<?xml version='1.0' encoding='ASCII' standalone='yes'?>
<svg xmlns="http://www.w3.org/2000/svg" xmlns:xlink="http://www.w3.org/1999/xlink" version="1.1" width="24px" height="24px">
  <g transform="translate(4.0, 4.0) scale(1 1) "><defs id="defs8"/>
  <sodipodi:namedview xmlns:sodipodi="http://sodipodi.sourceforge.net/DTD/sodipodi-0.dtd" xmlns:inkscape="http://www.inkscape.org/namespaces/inkscape" id="namedview6" pagecolor="#ffffff" bordercolor="#000000" borderopacity="0.25" inkscape:showpageshadow="2" inkscape:pageopacity="0.0" inkscape:pagecheckerboard="0" inkscape:deskcolor="#d1d1d1" showgrid="false" inkscape:zoom="64.1875" inkscape:cx="7.9922103" inkscape:cy="8.0155794" inkscape:current-layer="svg4"/>
  <path d="m 7 0 c -0.554688 0 -1 0.445312 -1 1 h -2 c -1.644531 0 -3 1.355469 -3 3 v 9 c 0 1.644531 1.355469 3 3 3 h 8 c 1.644531 0 3 -1.355469 3 -3 v -9 c 0 -1.644531 -1.355469 -3 -3 -3 h -2 c 0 -0.554688 -0.445312 -1 -1 -1 z m -3 3 h 1 v 1 c 0 0.554688 0.445312 1 1 1 h 4 c 0.554688 0 1 -0.445312 1 -1 v -1 h 1 c 0.570312 0 1 0.429688 1 1 v 9 c 0 0.570312 -0.429688 1 -1 1 h -8 c -0.570312 0 -1 -0.429688 -1 -1 v -9 c 0 -0.570312 0.429688 -1 1 -1 z m 0 0" fill="#2e3436" id="path2" style="fill:#444444;fill-opacity:1"/>
</g>
</svg>
