<?xml version='1.0' encoding='ASCII' standalone='yes'?>
<svg xmlns="http://www.w3.org/2000/svg" xmlns:xlink="http://www.w3.org/1999/xlink" version="1.1" width="24px" height="24px">
  <g transform="translate(4.0, 4.0) scale(1 1) ">
    <sodipodi:namedview xmlns:sodipodi="http://sodipodi.sourceforge.net/DTD/sodipodi-0.dtd" xmlns:inkscape="http://www.inkscape.org/namespaces/inkscape" id="namedview9" pagecolor="#ffffff" bordercolor="#000000" borderopacity="0.25" inkscape:showpageshadow="2" inkscape:pageopacity="0.0" inkscape:pagecheckerboard="0" inkscape:deskcolor="#d1d1d1" showgrid="false" inkscape:zoom="22.693708" inkscape:cx="9.6061869" inkscape:cy="5.7945577" inkscape:current-layer="svg7"/>
    <defs id="defs3">
      <style id="current-color-scheme" type="text/css">
   .ColorScheme-Text { color:#444444; } .ColorScheme-Highlight { color:#4285f4; }
  </style>
      <style id="current-color-scheme-5" type="text/css">
   .ColorScheme-Text { color:#444444; } .ColorScheme-Highlight { color:#4285f4; }
  </style>
    </defs>
    <g id="g298">
      <path id="path314" style="fill:#444444;fill-opacity:1" d="m 9,3 v 11 h 1 V 13.230469 A 3,3 0 0 0 12,14 3,3 0 0 0 15,11 3,3 0 0 0 12,8 3,3 0 0 0 10,8.7675781 V 3 Z m 3,6 a 2,2 0 0 1 2,2 2,2 0 0 1 -2,2 2,2 0 0 1 -2,-2 2,2 0 0 1 2,-2 z"/>
      <path id="path316" style="fill:#444444;fill-opacity:1" d="m 4,8 a 3,3 0 0 0 -3,3 3,3 0 0 0 3,3 3,3 0 0 0 2,-0.767578 V 14 H 7 V 8 H 6 V 8.7695312 A 3,3 0 0 0 4,8 Z M 4,9 A 2,2 0 0 1 6,11 2,2 0 0 1 4,13 2,2 0 0 1 2,11 2,2 0 0 1 4,9 Z"/>
      <path style="fill:#444444;fill-opacity:1;stroke-width:0.833335" d="m 10,1.5 v 0.8333354 h 0.0065 c -0.0032,0.221355 0.08464,0.4329435 0.237631,0.589194 l 1.666671,1.6666713 c 0.325522,0.3255215 0.852867,0.3255215 1.178388,0 l 1.666672,-1.6666713 c 0.152997,-0.1562505 0.240888,-0.367839 0.240888,-0.589194 h 0.0032 V 1.5 Z" id="path4"/>
    </g>
  </g>
</svg>
