<?xml version='1.0' encoding='ASCII' standalone='yes'?>
<svg xmlns="http://www.w3.org/2000/svg" xmlns:xlink="http://www.w3.org/1999/xlink" version="1.1" width="24px" height="24px">
  <g transform="translate(4.0, 4.0) scale(1 1) "><defs id="defs10"/>
  <sodipodi:namedview xmlns:sodipodi="http://sodipodi.sourceforge.net/DTD/sodipodi-0.dtd" xmlns:inkscape="http://www.inkscape.org/namespaces/inkscape" id="namedview8" pagecolor="#ffffff" bordercolor="#000000" borderopacity="0.25" inkscape:showpageshadow="2" inkscape:pageopacity="0.0" inkscape:pagecheckerboard="0" inkscape:deskcolor="#d1d1d1" showgrid="false" inkscape:zoom="64.1875" inkscape:cx="7.9922103" inkscape:cy="8.0155794" inkscape:current-layer="svg6"/>
  <path d="m 11 10 c -0.265625 0 -0.519531 0.105469 -0.707031 0.292969 c -0.390625 0.390625 -0.390625 1.023437 0 1.414062 l 1.292969 1.292969 l -1.292969 1.292969 c -0.390625 0.390625 -0.390625 1.023437 0 1.414062 s 1.023437 0.390625 1.414062 0 l 1.292969 -1.292969 l 1.292969 1.292969 c 0.390625 0.390625 1.023437 0.390625 1.414062 0 s 0.390625 -1.023437 0 -1.414062 l -1.292969 -1.292969 l 1.292969 -1.292969 c 0.390625 -0.390625 0.390625 -1.023437 0 -1.414062 c -0.1875 -0.1875 -0.441406 -0.292969 -0.707031 -0.292969 s -0.519531 0.105469 -0.707031 0.292969 l -1.292969 1.292969 l -1.292969 -1.292969 c -0.1875 -0.1875 -0.441406 -0.292969 -0.707031 -0.292969 z m 0 0" fill="#2e3436" id="path2" style="fill:#444444;fill-opacity:1"/>
  <path d="m 5.101562 0 c -0.265624 0 -0.519531 0.105469 -0.707031 0.292969 l -4.101562 4.101562 c -0.1875 0.1875 -0.292969 0.441407 -0.292969 0.707031 v 5.796876 c 0 0.265624 0.105469 0.519531 0.292969 0.707031 l 4.101562 4.101562 c 0.1875 0.1875 0.441407 0.292969 0.707031 0.292969 h 2.890626 c 0.265624 0 0.523437 -0.105469 0.710937 -0.292969 s 0.292969 -0.441406 0.292969 -0.707031 s -0.105469 -0.519531 -0.292969 -0.707031 s -0.445313 -0.292969 -0.710937 -0.292969 h -2.476563 l -3.515625 -3.511719 v -4.972656 l 3.511719 -3.515625 h 4.972656 l 3.515625 3.511719 l -0.007812 2.488281 c 0 0.550781 0.445312 0.996094 0.996093 1 c 0.265625 0 0.523438 -0.105469 0.710938 -0.289062 c 0.1875 -0.1875 0.292969 -0.445313 0.292969 -0.710938 l 0.007812 -2.898438 c 0 -0.265624 -0.105469 -0.519531 -0.292969 -0.707031 l -4.101562 -4.101562 c -0.1875 -0.1875 -0.441407 -0.292969 -0.707031 -0.292969 z m 1.890626 4 v 3 l 0.28125 2 h 1.46875 l 0.25 -2 v -3 z m 1 5.75 c -0.6875 0 -1.25 0.558594 -1.25 1.25 s 0.5625 1.25 1.25 1.25 c 0.691406 0 1.25 -0.558594 1.25 -1.25 s -0.558594 -1.25 -1.25 -1.25 z m 0 0" fill="#2e3434" fill-opacity="0.34902" id="path4" style="fill:#444444;fill-opacity:1;opacity:0.3"/>
</g>
</svg>
