<?xml version='1.0' encoding='ASCII' standalone='yes'?>
<svg xmlns="http://www.w3.org/2000/svg" xmlns:xlink="http://www.w3.org/1999/xlink" version="1.1" width="24px" height="24px">
  <g transform="translate(4.0, 4.0) scale(1 1) "><defs>
  <style id="current-color-scheme" type="text/css">
   .ColorScheme-Text { color:#444444; } .ColorScheme-Highlight { color:#4285f4; }
  </style>
 </defs>
 <path style="fill:currentColor" class="ColorScheme-Text" d="m2 1c-0.5523 0.0001-0.9999 0.4477-1 1v6c0.0001 0.5523 0.4477 0.9999 1 1h12c0.552-0.0001 1-0.4477 1-1v-6c0-0.5523-0.448-0.9999-1-1h-12zm1 2h1v2h1v-2h2v2h1v-2h2v2h1v-2h2v4h-10v-4zm1 7l-3 2.5 3 2.5v-5zm8 0v5l3-2.5-3-2.5z"/>
</g>
</svg>
