<?xml version='1.0' encoding='ASCII' standalone='yes'?>
<svg xmlns="http://www.w3.org/2000/svg" xmlns:xlink="http://www.w3.org/1999/xlink" version="1.1" width="24px" height="24px">
  <g transform="translate(4.0, 4.0) scale(1 1) ">
    <sodipodi:namedview xmlns:sodipodi="http://sodipodi.sourceforge.net/DTD/sodipodi-0.dtd" xmlns:inkscape="http://www.inkscape.org/namespaces/inkscape" id="namedview9" pagecolor="#ffffff" bordercolor="#000000" borderopacity="0.25" inkscape:showpageshadow="2" inkscape:pageopacity="0.0" inkscape:pagecheckerboard="0" inkscape:deskcolor="#d1d1d1" showgrid="false" inkscape:zoom="64.1875" inkscape:cx="7.9922103" inkscape:cy="8.0155794" inkscape:current-layer="svg7"/>
    <defs id="defs3">
      <style id="current-color-scheme" type="text/css">
   .ColorScheme-Text { color:#444444; } .ColorScheme-Highlight { color:#4285f4; }
  </style>
    </defs>
    <path d="m 13,5.0000003 c 0,-0.265625 -0.105469,-0.519531 -0.292969,-0.707031 L 8.7070309,0.29296927 c -0.390625,-0.3906252 -1.023437,-0.3906252 -1.414062,0 l -4,4.00000003 c -0.390625,0.390625 -0.390625,1.023437 0,1.414062 0.390625,0.390625 1.023437,0.390625 1.414062,0 l 2.292969,-2.292969 v 9.1718757 l -2.292969,-2.292969 c -0.390625,-0.3906247 -1.023437,-0.3906247 -1.414062,0 -0.390625,0.390625 -0.390625,1.023437 0,1.414062 l 4,4 c 0.390625,0.390625 1.023437,0.390625 1.414062,0 l 4.0000001,-4 C 12.894531,11.519531 13,11.265625 13,11 c 0,-0.265625 -0.105469,-0.519531 -0.292969,-0.707031 -0.390625,-0.3906247 -1.023437,-0.3906247 -1.414062,0 L 8.9999999,12.585938 V 3.4140623 l 2.2929691,2.292969 c 0.390625,0.390625 1.023437,0.390625 1.414062,0 C 12.894531,5.5195313 13,5.2656253 13,5.0000003 Z m 0,0" fill="#2e3436" id="path2" style="fill:#444444;fill-opacity:1"/>
  </g>
</svg>
