<?xml version='1.0' encoding='ASCII' standalone='yes'?>
<svg xmlns="http://www.w3.org/2000/svg" xmlns:xlink="http://www.w3.org/1999/xlink" version="1.1" width="24px" height="24px">
  <g transform="translate(4.0, 4.0) scale(1 1) ">
    <sodipodi:namedview xmlns:sodipodi="http://sodipodi.sourceforge.net/DTD/sodipodi-0.dtd" xmlns:inkscape="http://www.inkscape.org/namespaces/inkscape" id="namedview9" pagecolor="#ffffff" bordercolor="#000000" borderopacity="0.25" inkscape:showpageshadow="2" inkscape:pageopacity="0.0" inkscape:pagecheckerboard="0" inkscape:deskcolor="#d1d1d1" showgrid="false" inkscape:zoom="16.046875" inkscape:cx="-12.027264" inkscape:cy="7.5092502" inkscape:current-layer="g389"/>
    <defs id="defs3">
      <style id="current-color-scheme" type="text/css">
   .ColorScheme-Text { color:#444444; } .ColorScheme-Highlight { color:#4285f4; }
  </style>
    </defs>
    <g style="fill:#ff0000" id="g389" transform="scale(0.33333333)">
      <rect width="48" height="48" fill="#ffffff" fill-opacity="0.01" id="rect365" x="0" y="0" style="fill:#ff0000"/>
      <path style="color:#000000;fill:#ff0000;stroke-linecap:round;stroke-linejoin:round;-inkscape-stroke:none" d="M 24,2 C 18.037043,2 12.643716,4.4139682 8.6757813,8.2792969 V 6.6757812 a 2,2 0 0 0 -2.0000001,-2 2,2 0 0 0 -2,2 V 14 a 2,2 0 0 0 0.1035157,0.25 2,2 0 0 0 0.28125,0.679688 2,2 0 0 0 0.4492187,0.58789 2,2 0 0 0 0.1640625,0.212891 2,2 0 0 0 0.5175781,0.06836 A 2,2 0 0 0 6.6757812,16 H 14 a 2,2 0 0 0 2,-2 2,2 0 0 0 -2,-2 H 10.701172 C 13.991964,8.3517232 18.685059,6 24,6 A 2,2 0 0 0 26,4 2,2 0 0 0 24,2 Z m 10,2.6757812 a 2,2 0 0 0 -0.25,0.1035157 2,2 0 0 0 -0.679688,0.28125 2,2 0 0 0 -0.58789,0.4492187 2,2 0 0 0 -0.212891,0.1640625 2,2 0 0 0 0.05664,0.2148438 A 2,2 0 0 0 32,6.6757812 V 14 a 2,2 0 0 0 2,2 2,2 0 0 0 2,-2 V 10.701172 C 39.648275,13.991965 42,18.685061 42,24 a 2,2 0 0 0 2,2 2,2 0 0 0 2,-2 C 46,18.037041 43.58603,12.643715 39.720703,8.6757813 h 1.603516 a 2,2 0 0 0 2,-2.0000001 2,2 0 0 0 -2,-2 z M 4,22 a 2,2 0 0 0 -2,2 c 0,5.962957 2.4139717,11.35627 6.2792969,15.324219 H 6.6757812 a 2,2 0 0 0 -2,2 2,2 0 0 0 2,2 H 14 a 2,2 0 0 0 1.566406,-0.955078 2,2 0 0 0 0.164063,-0.04297 2,2 0 0 0 0.240234,-0.929688 A 2,2 0 0 0 16,41.324219 V 34 a 2,2 0 0 0 -2,-2 2,2 0 0 0 -2,2 v 3.298828 C 8.3517188,34.008014 6,29.314941 6,24 A 2,2 0 0 0 4,22 Z m 30,10 a 2,2 0 0 0 -2,2 2,2 0 0 0 2,2 h 3.298828 C 34.008013,39.648279 29.314939,42 24,42 a 2,2 0 0 0 -2,2 2,2 0 0 0 2,2 c 5.962959,0 11.356271,-2.413973 15.324219,-6.279297 v 1.603516 a 2,2 0 0 0 2,2 2,2 0 0 0 2,-2 V 34 a 2,2 0 0 0 -0.05078,-0.259766 2,2 0 0 0 -0.07617,-0.373047 2,2 0 0 0 -0.169922,-0.349609 2,2 0 0 0 -0.216797,-0.322266 2,2 0 0 0 -0.07227,-0.109375 2,2 0 0 0 -0.214844,-0.144531 2,2 0 0 0 -0.197265,-0.171875 2,2 0 0 0 -0.04297,0.01172 A 2,2 0 0 0 42.089844,32.152344 2,2 0 0 0 41.324219,32 Z" id="path3897"/>
      <path style="color:#000000;fill:#444444;stroke-linecap:round;stroke-linejoin:round;-inkscape-stroke:none;fill-opacity:1" d="m 34,32 a 2,2 0 0 0 -2,2 2,2 0 0 0 2,2 h 3.298828 C 34.008013,39.648279 29.314939,42 24,42 a 2,2 0 0 0 -2,2 2,2 0 0 0 2,2 c 5.962959,0 11.356271,-2.413973 15.324219,-6.279297 v 1.603516 a 2,2 0 0 0 2,2 2,2 0 0 0 2,-2 V 34 a 2,2 0 0 0 -0.05078,-0.259766 2,2 0 0 0 -0.07617,-0.373047 2,2 0 0 0 -0.02539,-0.132812 2,2 0 0 0 -0.144531,-0.216797 2,2 0 0 0 -0.216797,-0.322266 2,2 0 0 0 -0.28711,-0.253906 2,2 0 0 0 -0.197265,-0.171875 2,2 0 0 0 -0.04297,0.01172 A 2,2 0 0 0 41.324219,32 Z" id="path3894"/>
      <path style="color:#000000;fill:#444444;stroke-linecap:round;stroke-linejoin:round;-inkscape-stroke:none;fill-opacity:1" d="m 4,22 a 2,2 0 0 0 -2,2 c 0,5.962957 2.4139717,11.35627 6.2792969,15.324219 H 6.6757812 a 2,2 0 0 0 -2,2 2,2 0 0 0 2,2 H 14 a 2,2 0 0 0 1.414063,-0.585938 2,2 0 0 0 0.152343,-0.36914 2,2 0 0 0 0.164063,-0.04297 2,2 0 0 0 0.240234,-0.929688 A 2,2 0 0 0 16,41.324219 V 34 a 2,2 0 0 0 -2,-2 2,2 0 0 0 -2,2 v 3.298828 C 8.3517188,34.008014 6,29.314941 6,24 A 2,2 0 0 0 4,22 Z" id="path3891"/>
      <path style="color:#000000;fill:#444444;stroke-linecap:round;stroke-linejoin:round;-inkscape-stroke:none;fill-opacity:1" d="M 24,2 C 18.037043,2 12.643715,4.4139767 8.6757813,8.2792969 V 6.6757812 a 2,2 0 0 0 -2.0000001,-2 2,2 0 0 0 -2,2 V 14 a 2,2 0 0 0 0.1035157,0.25 2,2 0 0 0 0.28125,0.679688 2,2 0 0 0 0.4492187,0.58789 2,2 0 0 0 0.1640625,0.212891 2,2 0 0 0 0.5175781,0.06836 A 2,2 0 0 0 6.6757812,16 H 14 a 2,2 0 0 0 2,-2 2,2 0 0 0 -2,-2 H 10.701172 C 13.991984,8.3517107 18.685059,6 24,6 A 2,2 0 0 0 26,4 2,2 0 0 0 24,2 Z" id="path3888"/>
      <path style="color:#000000;fill:#444444;stroke-linecap:round;stroke-linejoin:round;-inkscape-stroke:none;stroke:none;fill-opacity:1" d="m 34,4.6757812 a 2,2 0 0 0 -0.25,0.1035157 2,2 0 0 0 -0.679688,0.28125 2,2 0 0 0 -0.58789,0.4492187 2,2 0 0 0 -0.212891,0.1640625 2,2 0 0 0 -0.06836,0.5175781 A 2,2 0 0 0 32,6.6757812 V 14 a 2,2 0 0 0 2,2 2,2 0 0 0 2,-2 V 10.701172 C 39.648285,13.991974 42,18.685061 42,24 a 2,2 0 0 0 2,2 2,2 0 0 0 2,-2 C 46,18.037041 43.586023,12.643707 39.720703,8.6757813 h 1.603516 a 2,2 0 0 0 2,-2.0000001 2,2 0 0 0 -2,-2 z" id="path3885"/>
    </g>
  </g>
</svg>
