<?xml version='1.0' encoding='ASCII' standalone='yes'?>
<svg xmlns="http://www.w3.org/2000/svg" xmlns:xlink="http://www.w3.org/1999/xlink" version="1.1" width="24px" height="24px">
  <g transform="translate(4.0, 4.0) scale(1 1) "><defs id="defs12"/>
  <sodipodi:namedview xmlns:sodipodi="http://sodipodi.sourceforge.net/DTD/sodipodi-0.dtd" xmlns:inkscape="http://www.inkscape.org/namespaces/inkscape" id="namedview10" pagecolor="#ffffff" bordercolor="#000000" borderopacity="0.25" inkscape:showpageshadow="2" inkscape:pageopacity="0.0" inkscape:pagecheckerboard="0" inkscape:deskcolor="#d1d1d1" showgrid="false" inkscape:zoom="64.1875" inkscape:cx="7.9922103" inkscape:cy="8.0155794" inkscape:current-layer="svg8"/>
  <g fill="#2e3436" id="g6" style="fill:#444444;fill-opacity:1">
    <path d="m 2 8 c -0.550781 0 -1 0.449219 -1 1 s 0.449219 1 1 1 h 2.585938 l -3.292969 3.292969 c -0.390625 0.390625 -0.390625 1.023437 0 1.414062 s 1.023437 0.390625 1.414062 0 l 3.292969 -3.292969 v 2.585938 c 0 0.550781 0.449219 1 1 1 s 1 -0.449219 1 -1 v -6 z m 0 0" id="path2" style="fill:#444444;fill-opacity:1"/>
    <path d="m 14 8 c 0.550781 0 1 -0.449219 1 -1 s -0.449219 -1 -1 -1 h -2.585938 l 3.292969 -3.292969 c 0.390625 -0.390625 0.390625 -1.023437 0 -1.414062 s -1.023437 -0.390625 -1.414062 0 l -3.292969 3.292969 v -2.585938 c 0 -0.550781 -0.449219 -1 -1 -1 s -1 0.449219 -1 1 v 6 z m 0 0" id="path4" style="fill:#444444;fill-opacity:1"/>
  </g>
</g>
</svg>
