/* XPM */
static char * maximize_active_xpm[] = {
"19 21 4 1",
" 	c None",
".	c #000000",
"+	c #5B80AD s active_color_1",
"=	c #729CCD s active_text_color",
"...................",
"+++++++++++++++++++",
"+++++++++++++++++++"+
"+++++++++++++++++++"+
"+++++++++++++++++++"+
"++++===========++++"+
"++++===========++++"+
"++++===========++++"+
"++++=+++++++++=++++"+
"++++=+++++++++=++++"+
"++++=+++++++++=++++"+
"++++=+++++++++=++++"+
"++++=+++++++++=++++"+
"++++=+++++++++=++++"+
"++++=+++++++++=++++"+
"++++===========++++"+
"+++++++++++++++++++"+
"+++++++++++++++++++"+
"+++++++++++++++++++"+
"+++++++++++++++++++"+
"..................."}+
