/* XPM */
static char * menu_inactive_xpm[] = {
"19 21 4 1",
" 	c None",
".	c #000000",
"+	c #5B80AD s inactive_color_1",
"=	c #729CCD s inactive_shadow_1",
"...................",
"+++++++++++++++++++",
"+++++++++++++++++++"+
"+++++++++++++++++++"+
"+++++++++++++++++++"+
"+++++++++++++++++++"+
"+++++++++++++++++++"+
"+++++===+++===+++++"+
"+++++===+++===+++++"+
"+++++++++++++++++++"+
"+++++++++++++++++++"+
"+++++===+++===+++++"+
"+++++===+++===+++++"+
"+++++++++++++++++++"+
"+++++++++++++++++++"+
"+++++++++++++++++++"+
"+++++++++++++++++++"+
"+++++++++++++++++++"+
"+++++++++++++++++++"+
"+++++++++++++++++++"+
"..................."}+
