/* XPM */
static char * title_1_inactive_xpm[] = {
"8 21 3 1",
" 	c None",
".	c #000000",
"+	c #5B80AD s inactive_color_1",
"........",
"++++++++",
"++++++++",
"++++++++",
"++++++++",
"++++++++",
"++++++++",
"++++++++",
"++++++++",
"++++++++",
"++++++++",
"++++++++",
"++++++++",
"++++++++",
"++++++++",
"++++++++",
"++++++++",
"++++++++",
"++++++++",
"++++++++",
"........"};
