/* XPM */
static char * top_left_active_xpm[] = {
"16 21 3 1",
" 	c None",
".	c #000000",
"+	c #5B80AD s active_color_1",
"................",
".+++++++++++++++",
".+++++++++++++++",
".+++++++++++++++",
".+++++++++++++++",
".+++++++++++++++",
".+++++++++++++++",
".+++++++++++++++",
".+++++++++++++++",
".+++++++++++++++",
".+++++++++++++++",
".+++++++++++++++",
".+++++++++++++++",
".+++++++++++++++",
".+++++++++++++++",
".+++++++++++++++",
".+++++++++++++++",
".+++++++++++++++",
".+++++++++++++++",
".+++++++++++++++",
"................"};
