<?xml version="1.0" encoding="UTF-8" standalone="no"?>
<svg
   width="16"
   height="16"
   version="1.1"
   id="svg4"
   sodipodi:docname="x-office-document-symbolic-new.svg"
   xml:space="preserve"
   inkscape:version="1.2.1 (9c6d41e410, 2022-07-14)"
   xmlns:inkscape="http://www.inkscape.org/namespaces/inkscape"
   xmlns:sodipodi="http://sodipodi.sourceforge.net/DTD/sodipodi-0.dtd"
   xmlns="http://www.w3.org/2000/svg"
   xmlns:svg="http://www.w3.org/2000/svg"><defs
     id="defs8" /><sodipodi:namedview
     id="namedview6"
     pagecolor="#ffffff"
     bordercolor="#000000"
     borderopacity="0.25"
     inkscape:showpageshadow="2"
     inkscape:pageopacity="0.0"
     inkscape:pagecheckerboard="0"
     inkscape:deskcolor="#d1d1d1"
     showgrid="false"
     inkscape:zoom="16.046875"
     inkscape:cx="5.2346641"
     inkscape:cy="3.8948393"
     inkscape:current-layer="svg4" /><path
     id="path2"
     style="fill:#444444"
     d="M 3 1 C 1.000006 1 1 3 1 3 L 1 13 C 1 14.999994 3 15 3 15 L 13 15 C 13 15 15 14.999994 15 13 L 15 3 C 15 1.000006 13 1 13 1 L 3 1 z M 4.25 3.7148438 L 8.75 3.7148438 A 0.75000196 0.75000196 0 0 1 9.5 4.4648438 A 0.75000196 0.75000196 0 0 1 8.75 5.2148438 L 4.25 5.2148438 A 0.75000196 0.75000196 0 0 1 3.5 4.4648438 A 0.75000196 0.75000196 0 0 1 4.25 3.7148438 z M 4.25 6.7148438 L 11.75 6.7148438 A 0.75000196 0.75000196 0 0 1 12.5 7.4648438 A 0.75000196 0.75000196 0 0 1 11.75 8.2148438 L 4.25 8.2148438 A 0.75000196 0.75000196 0 0 1 3.5 7.4648438 A 0.75000196 0.75000196 0 0 1 4.25 6.7148438 z M 4.25 9.7148438 L 8.75 9.7148438 A 0.75000196 0.75000196 0 0 1 9.5 10.464844 A 0.75000196 0.75000196 0 0 1 8.75 11.214844 L 4.25 11.214844 A 0.75000196 0.75000196 0 0 1 3.5 10.464844 A 0.75000196 0.75000196 0 0 1 4.25 9.7148438 z " /><g
     id="g346"
     transform="matrix(1.3241092,0,0,1.3241092,27.261721,-2.693315)" /></svg>
