<?xml version="1.0" encoding="UTF-8" standalone="no"?>
<svg
   width="16"
   height="16"
   viewBox="0 0 16 16"
   version="1.1"
   id="svg1086"
   sodipodi:docname="action-unavailable.svg"
   inkscape:version="1.2.1 (9c6d41e410, 2022-07-14)"
   xmlns:inkscape="http://www.inkscape.org/namespaces/inkscape"
   xmlns:sodipodi="http://sodipodi.sourceforge.net/DTD/sodipodi-0.dtd"
   xmlns="http://www.w3.org/2000/svg"
   xmlns:svg="http://www.w3.org/2000/svg">
  <sodipodi:namedview
     id="namedview1088"
     pagecolor="#ffffff"
     bordercolor="#000000"
     borderopacity="0.25"
     inkscape:showpageshadow="2"
     inkscape:pageopacity="0.0"
     inkscape:pagecheckerboard="0"
     inkscape:deskcolor="#d1d1d1"
     showgrid="false"
     inkscape:zoom="22.693708"
     inkscape:cx="1.5422777"
     inkscape:cy="10.333261"
     inkscape:current-layer="svg1086" />
  <defs
     id="defs1082">
    <style
       id="current-color-scheme"
       type="text/css">
   .ColorScheme-Text { color:#444444; } .ColorScheme-Highlight { color:#4285f4; }
  </style>
  </defs>
  <path
     style="fill:#dfdfdf;stroke-width:1.14286;fill-opacity:1"
     d="M 8,0 C 3.588571,0 0,3.585143 0,8 c 0,4.414857 3.588571,8 8,8 4.411429,0 8,-3.585143 8,-8 C 16,3.585143 12.411429,0 8,0 Z m 0,2.285714 c 1.165714,0 2.24,0.328 3.142857,0.928 L 3.211429,11.142857 C 2.617143,10.238857 2.285714,9.164571 2.285714,8 2.285714,4.845714 4.845714,2.285714 8,2.285714 Z m 4.788571,2.571429 c 0.594286,0.904 0.925715,1.977143 0.925715,3.142857 0,3.153143 -2.56,5.714286 -5.714286,5.714286 -1.165714,0 -2.24,-0.329143 -3.142857,-0.929143 z"
     id="path2" />
</svg>
