<?xml version="1.0" encoding="UTF-8" standalone="no"?>
<svg
   width="16"
   height="16"
   version="1.1"
   id="svg807"
   sodipodi:docname="address-book-new.svg"
   inkscape:version="1.2.1 (9c6d41e410, 2022-07-14)"
   xmlns:inkscape="http://www.inkscape.org/namespaces/inkscape"
   xmlns:sodipodi="http://sodipodi.sourceforge.net/DTD/sodipodi-0.dtd"
   xmlns="http://www.w3.org/2000/svg"
   xmlns:svg="http://www.w3.org/2000/svg">
  <sodipodi:namedview
     id="namedview809"
     pagecolor="#ffffff"
     bordercolor="#000000"
     borderopacity="0.25"
     inkscape:showpageshadow="2"
     inkscape:pageopacity="0.0"
     inkscape:pagecheckerboard="0"
     inkscape:deskcolor="#d1d1d1"
     showgrid="false"
     inkscape:zoom="11.346854"
     inkscape:cx="-1.7626031"
     inkscape:cy="14.673671"
     inkscape:current-layer="svg807" />
  <defs
     id="defs803">
    <style
       id="current-color-scheme"
       type="text/css">
   .ColorScheme-Text { color:#444444; } .ColorScheme-Highlight { color:#4285f4; }
  </style>
  </defs>
  <path
     d="M 4.500001,7.5000001e-8 C 3.207032,7.5000001e-8 2.093751,0.83984403 1.675782,2 H 0.500001 v 2 h 1 v 0.9999998 h -1 v 2 h 1 v 1 h -1 v 2.0000001 h 1 V 11 h -1 v 2 h 1.175781 c 0.417969,1.160156 1.53125,2 2.824219,2 h 1 c 0.550781,0 1,-0.449219 1,-1 0,-0.550781 -0.449219,-1 -1,-1 h -1 c -0.554688,0 -1,-0.445312 -1,-1 V 3 c 0,-0.554688 0.445312,-1 1,-1 h 7 c 0.570312,0 0.886719,0.441406 1,1 v 2.9999998 c 0,0.550781 0.449219,1 1,1 0.550781,0 1,-0.449219 1,-1 V 3 c 0,-1.644531 -1.355469,-2.999999924999999 -3,-2.999999924999999 z M 8.023439,4 C 7.945309,4 7.867189,4.00391 7.785157,4.011719 7.570313,4.023438 7.35547,4.058594 7.144532,4.113281 5.433595,4.546875 4.304689,6.1953118 4.527345,7.9453118 4.679689,9.1601558 5.453126,10.167969 6.500001,10.667969 V 9.9999999 h 1.332031 c -1.1875,-0.07813 -2.160156,-0.9804691 -2.3125,-2.1796881 -0.160156,-1.257812 0.640625,-2.425781 1.867188,-2.738281 0.617187,-0.15625 1.28125,-0.07813 1.808593,0.164063 0.527344,0.242187 0.890626,0.628906 1.003907,1.058594 0.0625,0.230468 0.08203,0.472656 0.07031,0.695312 h 1.007813 c 0.01172,-0.320312 -0.03125,-0.644531 -0.109375,-0.953125 C 10.95703,5.2617188 10.347655,4.675781 9.61328,4.335938 9.128905,4.117188 8.585937,3.996094 8.023437,4 Z m -0.02344,2.0078118 c -0.824219,0 -1.5,0.675782 -1.5,1.5 0,0.820313 0.675781,1.5 1.5,1.5 0.175781,0 0.34375,-0.03906 0.5,-0.09375 v 0.04297 l 0.449219,0.04687 c 0.191406,0.01953 0.375,0.01563 0.550781,-0.0039 v -1.492188 c 0,-0.824218 -0.675781,-1.5 -1.5,-1.5 z m 0,1 c 0.28125,0 0.5,0.214844 0.5,0.5 0,0.28125 -0.21875,0.5 -0.5,0.5 -0.28125,0 -0.5,-0.21875 -0.5,-0.5 0,-0.285156 0.21875,-0.5 0.5,-0.5 z m 2.5,0.992188 V 11 h -3 v 2 h 3 v 3 h 2 v -3 h 3 v -2 h -3 V 7.9999998 Z m -1.15625,1.7812501 c 0,0 -0.605469,0.191406 -1.1875,0.21875 h 1.257812 z m 0,0"
     fill="#2e3434"
     id="path2"
     style="fill:#dfdfdf;fill-opacity:1" />
</svg>
