<?xml version="1.0" encoding="UTF-8" standalone="no"?>
<svg
   width="16"
   height="16"
   version="1.1"
   viewBox="0 0 16 16"
   id="svg27901"
   sodipodi:docname="appointment-soon.svg"
   inkscape:version="1.2.1 (9c6d41e410, 2022-07-14)"
   xmlns:inkscape="http://www.inkscape.org/namespaces/inkscape"
   xmlns:sodipodi="http://sodipodi.sourceforge.net/DTD/sodipodi-0.dtd"
   xmlns="http://www.w3.org/2000/svg"
   xmlns:svg="http://www.w3.org/2000/svg">
  <sodipodi:namedview
     id="namedview27903"
     pagecolor="#ffffff"
     bordercolor="#000000"
     borderopacity="0.25"
     inkscape:showpageshadow="2"
     inkscape:pageopacity="0.0"
     inkscape:pagecheckerboard="0"
     inkscape:deskcolor="#d1d1d1"
     showgrid="false"
     inkscape:zoom="64.1875"
     inkscape:cx="7.3067186"
     inkscape:cy="8.0155794"
     inkscape:current-layer="svg27901" />
  <defs
     id="defs27897">
    <style
       id="current-color-scheme"
       type="text/css">
   .ColorScheme-Text { color:#444444; } .ColorScheme-Highlight { color:#4285f4; }
  </style>
  </defs>
  <path
     style="fill:#dfdfdf;fill-opacity:1"
     class="ColorScheme-Text"
     d="M 2 1 C 1 1 1 2 1 2 L 1 14 C 1 15 2 15 2 15 L 8.7617188 15 A 4.5 4.5 0 0 1 8.0332031 13 L 3 13 L 3 6 L 13 6 L 13 8.03125 A 4.5 4.5 0 0 1 15 8.7597656 L 15 2 C 15 1 14 1 14 1 L 2 1 z M 12.5 9 A 3.5 3.5 0 0 0 9 12.5 A 3.5 3.5 0 0 0 12.5 16 A 3.5 3.5 0 0 0 16 12.5 A 3.5 3.5 0 0 0 12.5 9 z M 12 10 L 13 10 L 13 12 L 15 12 L 15 13 L 13 13 L 12 13 L 12 12 L 12 10 z"
     id="path27899" />
</svg>
