<?xml version="1.0" encoding="UTF-8" standalone="no"?>
<svg
   width="16"
   height="16"
   version="1.1"
   id="svg7"
   sodipodi:docname="archive.svg"
   xml:space="preserve"
   inkscape:version="1.2.1 (9c6d41e410, 2022-07-14)"
   xmlns:inkscape="http://www.inkscape.org/namespaces/inkscape"
   xmlns:sodipodi="http://sodipodi.sourceforge.net/DTD/sodipodi-0.dtd"
   xmlns="http://www.w3.org/2000/svg"
   xmlns:svg="http://www.w3.org/2000/svg"><sodipodi:namedview
     id="namedview9"
     pagecolor="#ffffff"
     bordercolor="#000000"
     borderopacity="0.25"
     inkscape:showpageshadow="2"
     inkscape:pageopacity="0.0"
     inkscape:pagecheckerboard="0"
     inkscape:deskcolor="#d1d1d1"
     showgrid="false"
     inkscape:zoom="22.693708"
     inkscape:cx="-7.1385425"
     inkscape:cy="8.0418766"
     inkscape:current-layer="svg7" /><defs
     id="defs3"><style
       id="current-color-scheme"
       type="text/css">
   .ColorScheme-Text { color:#444444; } .ColorScheme-Highlight { color:#4285f4; }
  </style><style
       type="text/css"
       id="current-color-scheme-3675">
      .ColorScheme-Text {
        color:#122036;
      }
      </style><style
       type="text/css"
       id="current-color-scheme-367">
      .ColorScheme-Text {
        color:#122036;
      }
      </style><style
       type="text/css"
       id="current-color-scheme-36">
      .ColorScheme-Text {
        color:#122036;
      }
      </style><style
       type="text/css"
       id="current-color-scheme-3">
      .ColorScheme-Text {
        color:#122036;
      }
      </style><style
       type="text/css"
       id="current-color-scheme-7">
      .ColorScheme-Text {
        color:#122036;
      }
      </style></defs><path
     id="path5"
     style="fill:#dfdfdf;fill-opacity:1"
     class="ColorScheme-Text"
     d="M 3 1 C 2.4460006 1 2.1748998 1.4754005 2 2 L 1 5 L 1 13 C 1 13.553999 1.4460006 14 2 14 L 14 14 C 14.553999 14 15 13.553999 15 13 L 15 5 L 14 2 C 13.825 1.4744005 13.553999 1 13 1 L 3 1 z M 3.6699219 3 L 12.330078 3 L 12.664062 4 L 3.3339844 4 L 3.6699219 3 z M 8 6 C 8.4130856 6 8.75 6.3369145 8.75 6.75 L 8.75 9 L 10.25 9 L 10.25 9.75 L 10.244141 9.75 C 10.247141 9.9492182 10.16895 10.140624 10.03125 10.28125 L 8.53125 11.779297 C 8.2382813 12.072266 7.7636708 12.072266 7.4707031 11.779297 L 5.9707031 10.28125 C 5.8330083 10.140624 5.7539063 9.9492182 5.7539062 9.75 L 5.75 9.75 L 5.75 9 L 7.25 9 L 7.25 6.75 C 7.25 6.3369145 7.5869144 6 8 6 z " /></svg>
