<?xml version="1.0" encoding="UTF-8" standalone="no"?>
<svg
   height="16px"
   viewBox="0 0 16 16"
   width="16px"
   version="1.1"
   id="svg4"
   sodipodi:docname="call-stop.svg"
   inkscape:version="1.2.1 (9c6d41e410, 2022-07-14)"
   xmlns:inkscape="http://www.inkscape.org/namespaces/inkscape"
   xmlns:sodipodi="http://sodipodi.sourceforge.net/DTD/sodipodi-0.dtd"
   xmlns="http://www.w3.org/2000/svg"
   xmlns:svg="http://www.w3.org/2000/svg">
  <defs
     id="defs8" />
  <sodipodi:namedview
     id="namedview6"
     pagecolor="#ffffff"
     bordercolor="#000000"
     borderopacity="0.25"
     inkscape:showpageshadow="2"
     inkscape:pageopacity="0.0"
     inkscape:pagecheckerboard="0"
     inkscape:deskcolor="#d1d1d1"
     showgrid="false"
     inkscape:zoom="64.1875"
     inkscape:cx="7.9922103"
     inkscape:cy="8.0467381"
     inkscape:current-layer="svg4" />
  <path
     d="m 14.234375 11.714844 c -0.382813 0.382812 -1 0.382812 -1.386719 0 l -1.039062 -1.039063 l -1.039063 -1.042969 c -0.386719 -0.382812 -0.386719 -1 0 -1.386718 l 0.492188 -0.492188 c -2.035157 -1.109375 -4.5 -1.109375 -6.535157 0 l 0.492188 0.492188 c 0.386719 0.386718 0.386719 1.003906 0 1.386718 l -1.039062 1.042969 l -1.039063 1.039063 c -0.386719 0.382812 -1.003906 0.382812 -1.386719 0 l -1.042968 -1.039063 c -0.957032 -0.957031 -0.957032 -2.511719 0 -3.46875 l 0.347656 -0.347656 c 3.816406 -3.816406 10.054687 -3.816406 13.871094 0 l 0.347656 0.347656 c 0.957031 0.957031 0.957031 2.511719 0 3.46875 z m 0 0"
     fill="#2e3436"
     id="path2"
     style="fill:#f44336;fill-opacity:1" />
</svg>
