<?xml version="1.0" encoding="UTF-8" standalone="no"?>
<svg
   width="16"
   height="16"
   viewBox="0 0 16 16"
   version="1.1"
   id="svg7"
   sodipodi:docname="dialog-error.svg"
   inkscape:version="1.2.1 (9c6d41e410, 2022-07-14)"
   xmlns:inkscape="http://www.inkscape.org/namespaces/inkscape"
   xmlns:sodipodi="http://sodipodi.sourceforge.net/DTD/sodipodi-0.dtd"
   xmlns="http://www.w3.org/2000/svg"
   xmlns:svg="http://www.w3.org/2000/svg">
  <sodipodi:namedview
     id="namedview9"
     pagecolor="#ffffff"
     bordercolor="#000000"
     borderopacity="0.25"
     inkscape:showpageshadow="2"
     inkscape:pageopacity="0.0"
     inkscape:pagecheckerboard="0"
     inkscape:deskcolor="#d1d1d1"
     showgrid="false"
     inkscape:zoom="11.346854"
     inkscape:cx="-20.886846"
     inkscape:cy="13.704239"
     inkscape:current-layer="svg7" />
  <defs
     id="defs3">
    <style
       id="current-color-scheme"
       type="text/css">
   .ColorScheme-Text { color:#444444; } .ColorScheme-Highlight { color:#4285f4; }
  </style>
  </defs>
  <g
     id="g239"
     style="fill:#f44336;fill-opacity:1">
    <path
       d="M 8,0 C 3.589844,0 0,3.589844 0,8 c 0,4.410156 3.589844,8 8,8 4.410156,0 8,-3.589844 8,-8 C 16,3.589844 12.410156,0 8,0 Z m 0,2 c 3.332031,0 6,2.667969 6,6 0,3.332031 -2.667969,6 -6,6 C 4.667969,14 2,11.332031 2,8 2,4.667969 4.667969,2 8,2 Z M 8,3.875 C 7.378906,3.875 6.875,4.378906 6.875,5 6.875,5.621094 7.378906,6.125 8,6.125 8.621094,6.125 9.125,5.621094 9.125,5 9.125,4.378906 8.621094,3.875 8,3.875 Z M 6.476562,7 C 6.210938,7.011719 6,7.230469 6,7.5 6,7.777344 6.222656,8 6.5,8 H 7 v 3 H 6.5 C 6.222656,11 6,11.222656 6,11.5 6,11.777344 6.222656,12 6.5,12 h 3 C 9.777344,12 10,11.777344 10,11.5 10,11.222656 9.777344,11 9.5,11 H 9 V 7 H 6.5 C 6.492188,7 6.484375,7 6.476562,7 Z m 0,0"
       fill="#2e3436"
       id="path2"
       style="fill:#f44336;fill-opacity:1" />
  </g>
</svg>
