<?xml version="1.0" encoding="UTF-8" standalone="no"?>
<svg
   width="16"
   height="16"
   version="1.1"
   id="svg6"
   sodipodi:docname="document-open-recent.svg"
   xml:space="preserve"
   inkscape:version="1.2.1 (9c6d41e410, 2022-07-14)"
   xmlns:inkscape="http://www.inkscape.org/namespaces/inkscape"
   xmlns:sodipodi="http://sodipodi.sourceforge.net/DTD/sodipodi-0.dtd"
   xmlns="http://www.w3.org/2000/svg"
   xmlns:svg="http://www.w3.org/2000/svg"><defs
     id="defs10" /><sodipodi:namedview
     id="namedview8"
     pagecolor="#ffffff"
     bordercolor="#000000"
     borderopacity="0.25"
     inkscape:showpageshadow="2"
     inkscape:pageopacity="0.0"
     inkscape:pagecheckerboard="0"
     inkscape:deskcolor="#d1d1d1"
     showgrid="false"
     inkscape:zoom="16.046875"
     inkscape:cx="11.341772"
     inkscape:cy="14.800389"
     inkscape:current-layer="svg6" /><g
     id="g295"
     transform="matrix(0.4057971,0,0,0.4057971,1,1)"
     style="fill:#dfdfdf;fill-opacity:1"><g
       id="g241"
       style="fill:#dfdfdf;fill-opacity:1">
	<path
   d="M 17.25,0 C 7.738,0 0,7.738 0,17.25 0,26.762 7.738,34.5 17.25,34.5 26.762,34.5 34.5,26.762 34.5,17.25 34.5,7.738 26.762,0 17.25,0 Z m 0,29.5 C 10.495,29.5 5,24.005 5,17.25 5,10.495 10.495,5 17.25,5 24.005,5 29.5,10.495 29.5,17.25 29.5,24.005 24.005,29.5 17.25,29.5 Z m 8.664,-11.369 c 0,1.381 -1.119,2.5 -2.5,2.5 H 17.25 c -1.381,0 -2.5,-1.119 -2.5,-2.5 v -7.926 c 0,-1.381 1.119,-2.5 2.5,-2.5 1.381,0 2.5,1.119 2.5,2.5 v 5.426 h 3.664 c 1.381,0 2.5,1.119 2.5,2.5 z"
   id="path239"
   style="fill:#dfdfdf;fill-opacity:1" />
</g><g
       id="g243"
       style="fill:#dfdfdf;fill-opacity:1">
</g><g
       id="g245"
       style="fill:#dfdfdf;fill-opacity:1">
</g><g
       id="g247"
       style="fill:#dfdfdf;fill-opacity:1">
</g><g
       id="g249"
       style="fill:#dfdfdf;fill-opacity:1">
</g><g
       id="g251"
       style="fill:#dfdfdf;fill-opacity:1">
</g><g
       id="g253"
       style="fill:#dfdfdf;fill-opacity:1">
</g><g
       id="g255"
       style="fill:#dfdfdf;fill-opacity:1">
</g><g
       id="g257"
       style="fill:#dfdfdf;fill-opacity:1">
</g><g
       id="g259"
       style="fill:#dfdfdf;fill-opacity:1">
</g><g
       id="g261"
       style="fill:#dfdfdf;fill-opacity:1">
</g><g
       id="g263"
       style="fill:#dfdfdf;fill-opacity:1">
</g><g
       id="g265"
       style="fill:#dfdfdf;fill-opacity:1">
</g><g
       id="g267"
       style="fill:#dfdfdf;fill-opacity:1">
</g><g
       id="g269"
       style="fill:#dfdfdf;fill-opacity:1">
</g><g
       id="g271"
       style="fill:#dfdfdf;fill-opacity:1">
</g></g></svg>
