<?xml version="1.0" encoding="UTF-8" standalone="no"?>
<svg
   width="16"
   height="16"
   viewBox="0 0 16 16"
   version="1.1"
   id="svg7"
   sodipodi:docname="document-new-from-template.svg"
   xml:space="preserve"
   inkscape:version="1.2.1 (9c6d41e410, 2022-07-14)"
   xmlns:inkscape="http://www.inkscape.org/namespaces/inkscape"
   xmlns:sodipodi="http://sodipodi.sourceforge.net/DTD/sodipodi-0.dtd"
   xmlns="http://www.w3.org/2000/svg"
   xmlns:svg="http://www.w3.org/2000/svg"><sodipodi:namedview
     id="namedview9"
     pagecolor="#ffffff"
     bordercolor="#000000"
     borderopacity="0.25"
     inkscape:showpageshadow="2"
     inkscape:pageopacity="0.0"
     inkscape:pagecheckerboard="0"
     inkscape:deskcolor="#d1d1d1"
     showgrid="false"
     inkscape:zoom="5.673427"
     inkscape:cx="-83.723647"
     inkscape:cy="31.991246"
     inkscape:current-layer="svg7" /><defs
     id="defs3"><style
       id="current-color-scheme"
       type="text/css">
   .ColorScheme-Text { color:#444444; } .ColorScheme-Highlight { color:#4285f4; }
  </style></defs><g
     id="g324"
     transform="translate(35.056761,-6.3310616)"
     style="fill:#dfdfdf;fill-opacity:1"><path
       style="fill:#dfdfdf;fill-opacity:1"
       d="M -24.532619,14.331061"
       id="path310" /><path
       style="fill:#dfdfdf;fill-opacity:1"
       d="m -31.532619,6.3310613 c -1.644531,0 -3,1.355469 -3,3 v 9.9999997 c 0,1.644532 1.355469,3.000001 3,3.000001 h 3 c 0.550781,0 1,-0.449219 1,-1 0,-0.550781 -0.449219,-1 -1,-1 h -3 c -0.570312,0 -1,-0.429689 -1,-1.000001 V 9.3310613 c 0,-0.570312 0.429688,-1 1,-1 h 5.585938 l 3.414062,3.4140617 v 0.585938 c 0,0.550781 0.449219,1 1,1 0.550781,0 1,-0.449219 1,-1 v -1 c 0,-0.265625 -0.105469,-0.519531 -0.292969,-0.707031 l -4,-3.9999997 c -0.1875,-0.1875 -0.441406,-0.292969 -0.707031,-0.292969 z"
       id="path2" /><path
       style="fill:#dfdfdf;stroke-width:0.5;fill-opacity:1"
       d="m -24.080902,14.331062 v 1 h -0.5 c -0.275,0 -0.5,0.225 -0.5,0.5 v 2 l 0.27,0.27 -1.705,2.98 -0.065,1.25 0.935,-0.75 0.36,-0.635 c 0.535,0.25 1.115,0.385 1.705,0.385 0.59,0 1.17,-0.135 1.705,-0.385 l 0.36,0.635 0.935,0.75 -0.065,-1.25 -0.385,-0.67 c 0.92,-0.76 1.45,-1.89 1.45,-3.08 h -1 c 0,0.83 -0.345,1.625 -0.955,2.19 l -0.815,-1.42 0.27,-0.27 v -2 c 0,-0.275 -0.225,-0.5 -0.5,-0.5 h -0.5 v -1 z m 0.5,2 c 0.275,0 0.5,0.225 0.5,0.5 0,0.275 -0.225,0.5 -0.5,0.5 -0.275,0 -0.5,-0.225 -0.5,-0.5 0,-0.275 0.225,-0.5 0.5,-0.5 z m -0.495,2.5 c 0.315,0.155 0.63,0.27 0.99,0 l 0.71,1.245 c -0.38,0.165 -0.79,0.255 -1.205,0.255 -0.415,0 -0.825,-0.09 -1.205,-0.255 z"
       id="path312" /></g></svg>
