<?xml version="1.0" encoding="UTF-8" standalone="no"?>
<svg
   height="16px"
   viewBox="0 0 16 16"
   width="16px"
   version="1.1"
   id="svg4"
   sodipodi:docname="document-preview.svg"
   inkscape:version="1.2.1 (9c6d41e410, 2022-07-14)"
   xml:space="preserve"
   xmlns:inkscape="http://www.inkscape.org/namespaces/inkscape"
   xmlns:sodipodi="http://sodipodi.sourceforge.net/DTD/sodipodi-0.dtd"
   xmlns="http://www.w3.org/2000/svg"
   xmlns:svg="http://www.w3.org/2000/svg"><defs
     id="defs8" /><sodipodi:namedview
     id="namedview6"
     pagecolor="#ffffff"
     bordercolor="#000000"
     borderopacity="0.25"
     inkscape:showpageshadow="2"
     inkscape:pageopacity="0.0"
     inkscape:pagecheckerboard="0"
     inkscape:deskcolor="#d1d1d1"
     showgrid="false"
     inkscape:zoom="2.8367135"
     inkscape:cx="-123.38222"
     inkscape:cy="27.320348"
     inkscape:current-layer="svg4" /><path
     style="fill:#dfdfdf;fill-opacity:1"
     d="M 8.640625,6.167969"
     id="path302" /><path
     style="fill:#dfdfdf;fill-opacity:1"
     d="M 4,0 C 2.355469,0 1,1.355469 1,3 v 10 c 0,1.644531 1.355469,3 3,3 H 7 C 7.550781,16 8,15.550781 8,15 8,14.449219 7.550781,14 7,14 H 4 C 3.429688,14 3,13.570312 3,13 V 3 C 3,2.429688 3.429688,2 4,2 H 9.585938 L 13,5.414062 V 12 c 0,0.550781 0.449219,1 1,1 0.550781,0 1,-0.449219 1,-1 V 5 C 15,4.734375 14.894531,4.480469 14.707031,4.292969 l -4,-4 C 10.519531,0.105469 10.265625,0 10,0 Z"
     id="path2" /><path
     d="M 9.3952883,6.324327 C 7.4605634,5.8040157 5.4446386,6.9654452 4.9243274,8.90017 c -0.5203123,1.934724 0.6411172,3.950649 2.575842,4.470961 0.6055851,0.162862 1.2170229,0.162843 1.7904609,0.02188 l 1.1977437,2.084726 c 0.287483,0.498991 0.924527,0.670313 1.423518,0.38283 0.239515,-0.137991 0.41443,-0.36504 0.486342,-0.632442 0.07191,-0.267401 0.03449,-0.551558 -0.103515,-0.791074 l -1.201673,-2.085784 c 0.405641,-0.42644 0.71628,-0.954332 0.878084,-1.555984 C 12.491441,8.8605598 11.330013,6.8446351 9.3952881,6.3243228 Z M 8.8538257,8.3376998 C 9.6992856,8.5650718 10.185129,9.4083669 9.957758,10.253826 9.7303864,11.099285 8.8870919,11.58513 8.041632,11.357758 7.1961728,11.130386 6.7103272,10.287091 6.9376992,9.4416327 7.1650711,8.5961734 8.0083662,8.1103278 8.8538257,8.3376998 Z m 0,0"
     id="path2-3"
     style="fill:#dfdfdf;fill-opacity:1;stroke-width:1.04246" /></svg>
