<?xml version="1.0" encoding="UTF-8" standalone="no"?>
<svg
   height="16px"
   viewBox="0 0 16 16"
   width="16px"
   version="1.1"
   id="svg4"
   sodipodi:docname="document-new.svg"
   inkscape:version="1.2.1 (9c6d41e410, 2022-07-14)"
   xmlns:inkscape="http://www.inkscape.org/namespaces/inkscape"
   xmlns:sodipodi="http://sodipodi.sourceforge.net/DTD/sodipodi-0.dtd"
   xmlns="http://www.w3.org/2000/svg"
   xmlns:svg="http://www.w3.org/2000/svg">
  <defs
     id="defs8" />
  <sodipodi:namedview
     id="namedview6"
     pagecolor="#ffffff"
     bordercolor="#000000"
     borderopacity="0.25"
     inkscape:showpageshadow="2"
     inkscape:pageopacity="0.0"
     inkscape:pagecheckerboard="0"
     inkscape:deskcolor="#d1d1d1"
     showgrid="false"
     inkscape:zoom="11.346854"
     inkscape:cx="-12.161961"
     inkscape:cy="12.999198"
     inkscape:current-layer="svg4" />
  <path
     d="m 4 0 c -1.644531 0 -3 1.355469 -3 3 v 10 c 0 1.644531 1.355469 3 3 3 h 3 c 0.550781 0 1 -0.449219 1 -1 s -0.449219 -1 -1 -1 h -3 c -0.570312 0 -1 -0.429688 -1 -1 v -10 c 0 -0.570312 0.429688 -1 1 -1 h 5.585938 l 3.414062 3.414062 v 0.585938 c 0 0.550781 0.449219 1 1 1 s 1 -0.449219 1 -1 v -1 c 0 -0.265625 -0.105469 -0.519531 -0.292969 -0.707031 l -4 -4 c -0.1875 -0.1875 -0.441406 -0.292969 -0.707031 -0.292969 z m 7 8 v 3 h -3 v 2 h 3 v 3 h 2 v -3 h 3 v -2 h -3 v -3 z m 0 0"
     fill="#2e3436"
     id="path2"
     style="fill:#dfdfdf;fill-opacity:1" />
</svg>
