<?xml version="1.0" encoding="UTF-8" standalone="no"?>
<svg
   width="16"
   height="16"
   viewBox="0 0 16 16"
   version="1.1"
   id="svg7"
   sodipodi:docname="document-swap.svg"
   xml:space="preserve"
   inkscape:version="1.2.1 (9c6d41e410, 2022-07-14)"
   xmlns:inkscape="http://www.inkscape.org/namespaces/inkscape"
   xmlns:sodipodi="http://sodipodi.sourceforge.net/DTD/sodipodi-0.dtd"
   xmlns="http://www.w3.org/2000/svg"
   xmlns:svg="http://www.w3.org/2000/svg"><sodipodi:namedview
     id="namedview9"
     pagecolor="#ffffff"
     bordercolor="#000000"
     borderopacity="0.25"
     inkscape:showpageshadow="2"
     inkscape:pageopacity="0.0"
     inkscape:pagecheckerboard="0"
     inkscape:deskcolor="#d1d1d1"
     showgrid="false"
     inkscape:zoom="22.693708"
     inkscape:cx="-7.4910632"
     inkscape:cy="8.6587877"
     inkscape:current-layer="svg7" /><defs
     id="defs3"><style
   id="current-color-scheme"
   type="text/css">
   .ColorScheme-Text { color:#444444; } .ColorScheme-Highlight { color:#4285f4; }
  </style>
	

		
	
			
			
			
			
		</defs><path
     d="M 6.8333242,8 V 3.3333242 c 0,-0.1547109 -0.061469,-0.3030781 -0.1708437,-0.4124805 l -1.75,-1.75 C 4.8030781,1.0614687 4.6547109,1 4.5,1 H 1.5833242 C 1.2611602,1 1,1.2611602 1,1.5833242 V 8 C 1,8.3221641 1.2611602,8.5833242 1.5833242,8.5833242 H 6.25 C 6.5721641,8.5833242 6.8333242,8.3221641 6.8333242,8 Z M 5.6666758,7.4166758 h -3.5 v -5.25 h 2.0917148 l 1.4082852,1.4082851 z"
     id="path238"
     style="fill:#dfdfdf;fill-opacity:1;stroke-width:0.0273438" /><path
     d="m 14.829156,9.3375195 -1.75,-1.75 C 12.969754,7.4781172 12.821387,7.4166758 12.666676,7.4166758 H 9.75 C 9.4278359,7.4166758 9.1666758,7.6778359 9.1666758,8 v 6.416676 C 9.1666758,14.73884 9.4278359,15 9.75,15 h 4.666676 C 14.73884,15 15,14.73884 15,14.416676 V 9.75 C 15,9.5952891 14.938531,9.4469219 14.829156,9.3375195 Z m -0.995832,4.4958045 h -3.5 V 8.5833242 h 2.091715 l 1.408285,1.4082852 z"
     id="path240"
     style="fill:#dfdfdf;fill-opacity:1;stroke-width:0.0273438" /><g
     id="g252"
     style="fill:#444444;fill-opacity:1"
     transform="matrix(0.02734375,0,0,0.02734375,1,1)">
</g><g
     id="g254"
     style="fill:#444444;fill-opacity:1"
     transform="matrix(0.02734375,0,0,0.02734375,1,1)">
</g><g
     id="g256"
     style="fill:#444444;fill-opacity:1"
     transform="matrix(0.02734375,0,0,0.02734375,1,1)">
</g><g
     id="g258"
     style="fill:#444444;fill-opacity:1"
     transform="matrix(0.02734375,0,0,0.02734375,1,1)">
</g><g
     id="g260"
     style="fill:#444444;fill-opacity:1"
     transform="matrix(0.02734375,0,0,0.02734375,1,1)">
</g><g
     id="g262"
     style="fill:#444444;fill-opacity:1"
     transform="matrix(0.02734375,0,0,0.02734375,1,1)">
</g><g
     id="g264"
     style="fill:#444444;fill-opacity:1"
     transform="matrix(0.02734375,0,0,0.02734375,1,1)">
</g><g
     id="g266"
     style="fill:#444444;fill-opacity:1"
     transform="matrix(0.02734375,0,0,0.02734375,1,1)">
</g><g
     id="g268"
     style="fill:#444444;fill-opacity:1"
     transform="matrix(0.02734375,0,0,0.02734375,1,1)">
</g><g
     id="g270"
     style="fill:#444444;fill-opacity:1"
     transform="matrix(0.02734375,0,0,0.02734375,1,1)">
</g><g
     id="g272"
     style="fill:#444444;fill-opacity:1"
     transform="matrix(0.02734375,0,0,0.02734375,1,1)">
</g><g
     id="g274"
     style="fill:#444444;fill-opacity:1"
     transform="matrix(0.02734375,0,0,0.02734375,1,1)">
</g><g
     id="g276"
     style="fill:#444444;fill-opacity:1"
     transform="matrix(0.02734375,0,0,0.02734375,1,1)">
</g><g
     id="g278"
     style="fill:#444444;fill-opacity:1"
     transform="matrix(0.02734375,0,0,0.02734375,1,1)">
</g><g
     id="g280"
     style="fill:#444444;fill-opacity:1"
     transform="matrix(0.02734375,0,0,0.02734375,1,1)">
</g><path
     d="m 5.9916375,10.283389 v 0.0023 c 0.1593751,0 0.3117181,0.06328 0.424218,0.173438 l 1.2000002,1.2 c 0.234376,0.234375 0.234376,0.614062 0,0.848437 l -1.2000002,1.2 c -0.1125,0.110154 -0.264843,0.173436 -0.424218,0.171092 v 0.0047 H 5.3916376 v -1.2 h -3 c -0.330469,0 -0.6,-0.269531 -0.6,-0.6 0,-0.330469 0.269531,-0.6 0.6,-0.6 h 3 v -1.20001 z m 0,0"
     id="path2"
     style="fill:#dfdfdf;fill-opacity:1;stroke-width:0.6" /><path
     d="m 10.008323,1.5333756 v 0.0023 c -0.1593748,0 -0.3117178,0.06328 -0.4242178,0.173438 l -1.2,1.2 c -0.234376,0.234375 -0.234376,0.614062 0,0.848437 l 1.2,1.2000002 c 0.1125,0.110154 0.264843,0.173436 0.4242178,0.171092 v 0.0047 h 0.6 v -1.2 h 3 c 0.330469,0 0.6,-0.2695312 0.6,-0.6000002 0,-0.330469 -0.269531,-0.6 -0.6,-0.6 h -3 v -1.20001 z m 0,0"
     id="path2-3"
     style="fill:#dfdfdf;fill-opacity:1;stroke-width:0.6" /></svg>
