<?xml version="1.0" encoding="UTF-8" standalone="no"?>
<svg
   height="16px"
   viewBox="0 0 16 16"
   width="16px"
   version="1.1"
   id="svg4"
   sodipodi:docname="edit-redo.svg"
   inkscape:version="1.2.1 (9c6d41e410, 2022-07-14)"
   xmlns:inkscape="http://www.inkscape.org/namespaces/inkscape"
   xmlns:sodipodi="http://sodipodi.sourceforge.net/DTD/sodipodi-0.dtd"
   xmlns="http://www.w3.org/2000/svg"
   xmlns:svg="http://www.w3.org/2000/svg">
  <defs
     id="defs8" />
  <sodipodi:namedview
     id="namedview6"
     pagecolor="#ffffff"
     bordercolor="#000000"
     borderopacity="0.25"
     inkscape:showpageshadow="2"
     inkscape:pageopacity="0.0"
     inkscape:pagecheckerboard="0"
     inkscape:deskcolor="#d1d1d1"
     showgrid="false"
     inkscape:zoom="8.0234375"
     inkscape:cx="7.8519961"
     inkscape:cy="20.12853"
     inkscape:current-layer="svg4" />
  <path
     d="m 11 2 c 0.265625 0 0.519531 0.105469 0.707031 0.292969 l 4 4 c 0.390625 0.390625 0.390625 1.023437 0 1.414062 l -4 4 c -0.390625 0.390625 -1.023437 0.390625 -1.414062 0 s -0.390625 -1.023437 0 -1.414062 l 2.292969 -2.292969 h -8.585938 c -1.117188 0 -2 0.882812 -2 2 s 0.882812 2 2 2 c 0.550781 0 1 0.449219 1 1 s -0.449219 1 -1 1 c -2.195312 0 -4 -1.800781 -4 -4 s 1.804688 -4 4 -4 h 8.585938 l -2.292969 -2.292969 c -0.390625 -0.390625 -0.390625 -1.023437 0 -1.414062 c 0.1875 -0.1875 0.441406 -0.292969 0.707031 -0.292969 z m 0 0"
     fill="#2e3436"
     id="path2"
     style="fill:#dfdfdf;fill-opacity:1" />
</svg>
