<?xml version="1.0" encoding="UTF-8" standalone="no"?>
<svg
   width="16"
   height="16"
   viewBox="0 0 16 16"
   version="1.1"
   id="svg7"
   sodipodi:docname="edit-table-insert-row-under.svg"
   xml:space="preserve"
   inkscape:version="1.2.1 (9c6d41e410, 2022-07-14)"
   xmlns:inkscape="http://www.inkscape.org/namespaces/inkscape"
   xmlns:sodipodi="http://sodipodi.sourceforge.net/DTD/sodipodi-0.dtd"
   xmlns="http://www.w3.org/2000/svg"
   xmlns:svg="http://www.w3.org/2000/svg"><sodipodi:namedview
     id="namedview9"
     pagecolor="#ffffff"
     bordercolor="#000000"
     borderopacity="0.25"
     inkscape:showpageshadow="2"
     inkscape:pageopacity="0.0"
     inkscape:pagecheckerboard="0"
     inkscape:deskcolor="#d1d1d1"
     showgrid="false"
     inkscape:zoom="22.693708"
     inkscape:cx="2.2032539"
     inkscape:cy="10.112935"
     inkscape:current-layer="svg7" /><defs
     id="defs3"><style
       id="current-color-scheme"
       type="text/css">
   .ColorScheme-Text { color:#444444; } .ColorScheme-Highlight { color:#4285f4; }
  </style><style
       id="current-color-scheme-5356"
       type="text/css">
   .ColorScheme-Text { color:#444444; } .ColorScheme-Highlight { color:#4285f4; }
  </style><style
       id="current-color-scheme-535"
       type="text/css">
   .ColorScheme-Text { color:#444444; } .ColorScheme-Highlight { color:#4285f4; }
  </style><style
       id="current-color-scheme-53"
       type="text/css">
   .ColorScheme-Text { color:#444444; } .ColorScheme-Highlight { color:#4285f4; }
  </style><style
       id="current-color-scheme-5"
       type="text/css">
   .ColorScheme-Text { color:#444444; } .ColorScheme-Highlight { color:#4285f4; }
  </style></defs><g
     id="g580"
     style="fill:#dfdfdf;fill-opacity:1"><path
       id="path294"
       style="fill:#dfdfdf;fill-opacity:1"
       d="M 1 6 L 1 7 L 2.28125 7 L 2 7.28125 L 1 8.28125 L 1 9.71875 L 2 8.71875 L 3.71875 7 L 6.28125 7 L 6 7.28125 L 5 8.28125 L 3.28125 10 L 1 10 L 1 15 L 15 15 L 15 11 L 13 11 L 13 13 L 11 13 L 11 11 L 9 11 L 9 13 L 7 13 L 7 11 L 8 11 L 8 9.28125 L 7.28125 10 L 4.71875 10 L 5 9.71875 L 6 8.71875 L 7.71875 7 L 8 7 L 8 6 L 1 6 z M 3 11 L 5 11 L 5 13 L 3 13 L 3 11 z " /><path
       style="fill:#dfdfdf;fill-opacity:1"
       d="M 1,1 V 5 H 3 V 3 H 5 V 5 H 7 V 3 h 2 v 2 h 2 V 3 h 2 v 2 h 2 V 1 Z"
       id="path5" /><path
       d="m 10,6.999995 v 1.000003 h 0.0052 c -0.0026,0.265625 0.06771,0.5195319 0.190106,0.7070319 l 1.333337,2.0000061 c 0.260417,0.390625 0.682293,0.390625 0.94271,0 L 13.80469,8.7070299 C 13.927088,8.5195299 13.9974,8.265623 13.9974,7.999998 H 14 V 6.999995 Z m 0,0"
       id="path4"
       style="fill:#dfdfdf;fill-opacity:1;stroke-width:0.816497" /></g></svg>
