<?xml version="1.0" encoding="UTF-8" standalone="no"?>
<svg
   width="16"
   height="16"
   viewBox="0 0 16 16"
   version="1.1"
   id="svg7"
   sodipodi:docname="edit-duplicate.svg"
   xml:space="preserve"
   inkscape:version="1.2.1 (9c6d41e410, 2022-07-14)"
   xmlns:inkscape="http://www.inkscape.org/namespaces/inkscape"
   xmlns:sodipodi="http://sodipodi.sourceforge.net/DTD/sodipodi-0.dtd"
   xmlns="http://www.w3.org/2000/svg"
   xmlns:svg="http://www.w3.org/2000/svg"><sodipodi:namedview
     id="namedview9"
     pagecolor="#ffffff"
     bordercolor="#000000"
     borderopacity="0.25"
     inkscape:showpageshadow="2"
     inkscape:pageopacity="0.0"
     inkscape:pagecheckerboard="0"
     inkscape:deskcolor="#d1d1d1"
     showgrid="false"
     inkscape:zoom="11.346854"
     inkscape:cx="-22.385059"
     inkscape:cy="14.761801"
     inkscape:current-layer="svg7" /><defs
     id="defs3"><style
       id="current-color-scheme"
       type="text/css">
   .ColorScheme-Text { color:#444444; } .ColorScheme-Highlight { color:#4285f4; }
  </style><style
       id="current-color-scheme-5"
       type="text/css">
   .ColorScheme-Text { color:#444444; } .ColorScheme-Highlight { color:#4285f4; }
  </style></defs><g
     id="g2037"
     transform="matrix(0.9999457,0,0,0.9999457,22.694716,-1.6299017)"
     style="fill:#dfdfdf;fill-opacity:1"><path
       id="path1979"
       style="fill:#dfdfdf;fill-opacity:1"
       d="m -14.695312,6.6308594 c -1.64453,0 -3,1.3554706 -3,3 v 4.9999996 c 0,1.64453 1.35547,3 3,3 h 4.9999995 c 1.6445294,0 3,-1.35547 3,-3 V 9.6308594 c 0,-1.6445294 -1.3554706,-3 -3,-3 z"
       sodipodi:nodetypes="sssssssss" /><path
       style="fill:#dfdfdf;fill-opacity:1"
       d="m -22.695716,4.6299903 c 0,-1.6445311 1.355469,-3.0000001 3,-3.0000001 h 5 c 1.644531,0 3,1.355469 3,3.0000001 0,0.550781 -0.449219,1 -1,1 -0.550781,0 -1,-0.449219 -1,-1 0,-0.5703121 -0.429688,-1.0000001 -1,-1.0000001 h -5 c -0.570312,0 -1,0.429688 -1,1.0000001 v 4.9999999 c 0,0.5703118 0.429688,0.9999998 1,0.9999998 0.550781,0 1,0.449219 1,1 0,0.550781 -0.449219,1.000001 -1,1.000001 -1.644531,0 -3,-1.35547 -3,-3.0000008 z"
       id="path2" /></g></svg>
