<?xml version="1.0" encoding="UTF-8" standalone="no"?>
<svg
   width="16"
   height="16"
   viewBox="0 0 16 16"
   version="1.1"
   id="svg9"
   sodipodi:docname="flag-green.svg"
   xml:space="preserve"
   inkscape:version="1.2.1 (9c6d41e410, 2022-07-14)"
   xmlns:inkscape="http://www.inkscape.org/namespaces/inkscape"
   xmlns:sodipodi="http://sodipodi.sourceforge.net/DTD/sodipodi-0.dtd"
   xmlns="http://www.w3.org/2000/svg"
   xmlns:svg="http://www.w3.org/2000/svg"><sodipodi:namedview
     id="namedview11"
     pagecolor="#ffffff"
     bordercolor="#000000"
     borderopacity="0.25"
     inkscape:showpageshadow="2"
     inkscape:pageopacity="0.0"
     inkscape:pagecheckerboard="0"
     inkscape:deskcolor="#d1d1d1"
     showgrid="false"
     inkscape:zoom="22.693708"
     inkscape:cx="-11.28066"
     inkscape:cy="12.536515"
     inkscape:current-layer="svg9" /><defs
     id="defs3"><style
       id="current-color-scheme"
       type="text/css">
   .ColorScheme-Text { color:#444444; } .ColorScheme-Highlight { color:#4285f4; }
  </style><style
       id="current-color-scheme-53"
       type="text/css">
   .ColorScheme-Text { color:#444444; } .ColorScheme-Highlight { color:#4285f4; }
  </style><style
       id="current-color-scheme-5"
       type="text/css">
   .ColorScheme-Text { color:#444444; } .ColorScheme-Highlight { color:#4285f4; }
  </style><style
       id="current-color-scheme-6"
       type="text/css">
   .ColorScheme-Text { color:#444444; } .ColorScheme-Highlight { color:#4285f4; }
  </style></defs><path
     id="path353"
     style="fill:#75e73c;fill-opacity:1;stroke-width:0.0348582"
     d="M 4.791015,1.1464846 V 7.5605471 H 8.626953 V 8.386719 c 0,0.641145 0.519011,1.1601561 1.160156,1.1601561 h 3.013672 c 0.641145,0 1.160156,-0.5190111 1.160156,-1.1601561 V 4.2949221 c 0,-0.6411455 -0.519011,-1.1621094 -1.160156,-1.1621094 H 10.697265 V 2.308594 c 0,-0.6411455 -0.519011,-1.1621094 -1.160156,-1.1621094 z" /><path
     id="path566"
     style="fill:#dfdfdf;fill-opacity:1;stroke-width:0.0348582"
     d="M 4.791015,0.8925783 C 4.791015,0.4002771 4.390739,2e-7 3.898437,2e-7 3.406136,2e-7 3.007812,0.4002771 3.007812,0.8925783 V 13.962891 H 2.519531 C 1.956711,13.962891 1.5,14.419603 1.5,14.982422 1.5,15.545241 1.956711,16 2.519531,16 h 2.759765 c 0.562819,0 1.019532,-0.454724 1.019532,-1.017578 0,-0.562819 -0.456713,-1.019531 -1.019532,-1.019531 H 4.791015 V 10.484375 7.5605471 1.1464846 Z" /><g
     id="g359"
     transform="matrix(0.0348647,0,0,0.0348647,-185.48314,-16.691099)">
</g><g
     id="g361"
     transform="matrix(0.0348647,0,0,0.0348647,-185.48314,-16.691099)">
</g><g
     id="g363"
     transform="matrix(0.0348647,0,0,0.0348647,-185.48314,-16.691099)">
</g><g
     id="g365"
     transform="matrix(0.0348647,0,0,0.0348647,-185.48314,-16.691099)">
</g><g
     id="g367"
     transform="matrix(0.0348647,0,0,0.0348647,-185.48314,-16.691099)">
</g><g
     id="g369"
     transform="matrix(0.0348647,0,0,0.0348647,-185.48314,-16.691099)">
</g><g
     id="g371"
     transform="matrix(0.0348647,0,0,0.0348647,-185.48314,-16.691099)">
</g><g
     id="g373"
     transform="matrix(0.0348647,0,0,0.0348647,-185.48314,-16.691099)">
</g><g
     id="g375"
     transform="matrix(0.0348647,0,0,0.0348647,-185.48314,-16.691099)">
</g><g
     id="g377"
     transform="matrix(0.0348647,0,0,0.0348647,-185.48314,-16.691099)">
</g><g
     id="g379"
     transform="matrix(0.0348647,0,0,0.0348647,-185.48314,-16.691099)">
</g><g
     id="g381"
     transform="matrix(0.0348647,0,0,0.0348647,-185.48314,-16.691099)">
</g><g
     id="g383"
     transform="matrix(0.0348647,0,0,0.0348647,-185.48314,-16.691099)">
</g><g
     id="g385"
     transform="matrix(0.0348647,0,0,0.0348647,-185.48314,-16.691099)">
</g><g
     id="g387"
     transform="matrix(0.0348647,0,0,0.0348647,-185.48314,-16.691099)">
</g></svg>
