<?xml version="1.0" encoding="UTF-8" standalone="no"?>
<svg
   width="16"
   height="16"
   viewBox="0 0 16 16"
   version="1.1"
   id="svg7"
   sodipodi:docname="format-text-direction-horizontal.svg"
   xml:space="preserve"
   inkscape:version="1.2.1 (9c6d41e410, 2022-07-14)"
   xmlns:inkscape="http://www.inkscape.org/namespaces/inkscape"
   xmlns:sodipodi="http://sodipodi.sourceforge.net/DTD/sodipodi-0.dtd"
   xmlns="http://www.w3.org/2000/svg"
   xmlns:svg="http://www.w3.org/2000/svg"><sodipodi:namedview
     id="namedview9"
     pagecolor="#ffffff"
     bordercolor="#000000"
     borderopacity="0.25"
     inkscape:showpageshadow="2"
     inkscape:pageopacity="0.0"
     inkscape:pagecheckerboard="0"
     inkscape:deskcolor="#d1d1d1"
     showgrid="false"
     inkscape:zoom="2.8367135"
     inkscape:cx="-104.69862"
     inkscape:cy="20.622456"
     inkscape:current-layer="svg7" /><defs
     id="defs3"><style
       id="current-color-scheme"
       type="text/css">
   .ColorScheme-Text { color:#444444; } .ColorScheme-Highlight { color:#4285f4; }
  </style><style
       id="current-color-scheme-5"
       type="text/css">
   .ColorScheme-Text { color:#444444; } .ColorScheme-Highlight { color:#4285f4; }
  </style></defs><g
     id="g613"
     style="fill:#dfdfdf;fill-opacity:1"><path
       id="path5"
       style="fill:#dfdfdf;fill-opacity:1"
       d="M 3.6875 3 L 1 10 L 1.84375 10 L 2.6875 7.78125 L 5.46875 7.78125 L 6.28125 10 L 7.125 10 L 4.53125 3 L 3.6875 3 z M 4.09375 3.84375 C 4.1629499 4.0830498 4.5231007 5.1634519 5.1875 7.09375 L 2.9375 7.09375 L 4.09375 3.84375 z " /><path
       style="fill:#dfdfdf;fill-opacity:1"
       d="m 1,12 v 1 h 10 v -1 z"
       id="path322" /><path
       style="fill:#dfdfdf;fill-opacity:1"
       d="m 9,9 v 1 h 2 V 9 Z"
       id="path318" /><path
       style="fill:#dfdfdf;fill-opacity:1"
       d="m 8,6 v 1 h 3 V 6 Z"
       id="path316" /><path
       style="fill:#dfdfdf;fill-opacity:1"
       d="m 7,3 v 1 h 4 V 3 Z"
       id="path310" /><path
       d="m 12.66665,3 h 0.666675 v 0.0052 c 0.177086,-0.0026 0.346358,0.06771 0.47136,0.190108 l 1.33335,1.333349 c 0.26042,0.26042 0.26042,0.6823 0,0.94272 l -1.33335,1.333351 C 13.679683,6.927126 13.510411,6.99744 13.333325,6.99744 v 0.0026 H 12.66665 Z m 0,0"
       id="path4"
       style="fill:#dfdfdf;fill-opacity:1;stroke-width:0.666675" /><path
       d="m 12.66665,9 h 0.666675 v 0.0052 c 0.177086,-0.0026 0.346358,0.06771 0.47136,0.190108 l 1.33335,1.333349 c 0.26042,0.26042 0.26042,0.6823 0,0.94272 l -1.33335,1.333351 c -0.125002,0.122398 -0.294274,0.192712 -0.47136,0.192712 v 0.0026 H 12.66665 Z m 0,0"
       id="path4-3"
       style="fill:#dfdfdf;fill-opacity:1;stroke-width:0.666675" /></g></svg>
