<?xml version="1.0" encoding="UTF-8" standalone="no"?>
<svg
   height="16px"
   viewBox="0 0 16 16"
   width="16px"
   version="1.1"
   id="svg4"
   sodipodi:docname="go-jump-rtl.svg"
   inkscape:version="1.2.1 (9c6d41e410, 2022-07-14)"
   xmlns:inkscape="http://www.inkscape.org/namespaces/inkscape"
   xmlns:sodipodi="http://sodipodi.sourceforge.net/DTD/sodipodi-0.dtd"
   xmlns="http://www.w3.org/2000/svg"
   xmlns:svg="http://www.w3.org/2000/svg">
  <defs
     id="defs8" />
  <sodipodi:namedview
     id="namedview6"
     pagecolor="#ffffff"
     bordercolor="#000000"
     borderopacity="0.25"
     inkscape:showpageshadow="2"
     inkscape:pageopacity="0.0"
     inkscape:pagecheckerboard="0"
     inkscape:deskcolor="#d1d1d1"
     showgrid="false"
     inkscape:zoom="11.346854"
     inkscape:cx="-0.88130154"
     inkscape:cy="15.378712"
     inkscape:current-layer="svg4" />
  <path
     d="m 8 0 c 2.753906 0 5 2.246094 5 5 v 10 c 0 0.550781 -0.449219 1 -1 1 s -1 -0.449219 -1 -1 v -10 c 0 -1.679688 -1.320312 -3 -3 -3 s -3 1.320312 -3 3 v 3.585938 l 1.292969 -1.292969 c 0.390625 -0.390625 1.023437 -0.390625 1.414062 0 s 0.390625 1.023437 0 1.414062 l -3 3 c -0.390625 0.390625 -1.023437 0.390625 -1.414062 0 l -3 -3 c -0.3906252 -0.390625 -0.3906252 -1.023437 0 -1.414062 c 0.1875 -0.1875 0.441406 -0.292969 0.707031 -0.292969 s 0.519531 0.105469 0.707031 0.292969 l 1.292969 1.292969 v -3.585938 c 0 -2.753906 2.246094 -5 5 -5 z m 0 0"
     fill="#2e3436"
     id="path2"
     style="fill:#dfdfdf;fill-opacity:1" />
</svg>
