<?xml version="1.0" encoding="UTF-8" standalone="no"?>
<svg
   width="16"
   height="16"
   version="1.1"
   id="svg9"
   sodipodi:docname="go-parent-folder.svg"
   xml:space="preserve"
   inkscape:version="1.2.1 (9c6d41e410, 2022-07-14)"
   xmlns:inkscape="http://www.inkscape.org/namespaces/inkscape"
   xmlns:sodipodi="http://sodipodi.sourceforge.net/DTD/sodipodi-0.dtd"
   xmlns="http://www.w3.org/2000/svg"
   xmlns:svg="http://www.w3.org/2000/svg"><sodipodi:namedview
     id="namedview11"
     pagecolor="#ffffff"
     bordercolor="#000000"
     borderopacity="0.25"
     inkscape:showpageshadow="2"
     inkscape:pageopacity="0.0"
     inkscape:pagecheckerboard="0"
     inkscape:deskcolor="#d1d1d1"
     showgrid="false"
     inkscape:zoom="16.046875"
     inkscape:cx="-8.9113924"
     inkscape:cy="15.984421"
     inkscape:current-layer="svg9" /><defs
     id="defs3"><style
       id="current-color-scheme"
       type="text/css">
   .ColorScheme-Text { color:#444444; } .ColorScheme-Highlight { color:#4285f4; }
  </style><style
       type="text/css"
       id="current-color-scheme-3">
      .ColorScheme-Text {
        color:#122036;
      }
      </style><style
       type="text/css"
       id="current-color-scheme-36">
      .ColorScheme-Text {
        color:#122036;
      }
      </style><style
       type="text/css"
       id="current-color-scheme-7">
      .ColorScheme-Text {
        color:#122036;
      }
      </style></defs><g
     id="g2250"><g
       fill="#2e3436"
       id="g244"
       transform="translate(0,-0.07809755)"
       style="fill:#dfdfdf;fill-opacity:1"><path
         d="M 1,4 V 5 H 9 V 4 Z m 0,0"
         id="path240"
         style="fill:#dfdfdf;fill-opacity:1" /><path
         d="M 3,1 C 1.355469,1 0,2.355469 0,4 v 8 c 0,1.644531 1.355469,3 3,3 h 10 c 1.644531,0 3,-1.355469 3,-3 V 6 C 16,4.355469 14.644531,3 13,3 H 9.414062 L 7.707031,1.292969 C 7.519531,1.105469 7.265625,1 7,1 Z M 3,3 H 6.585938 L 8.292969,4.707031 C 8.480469,4.894531 8.734375,5 9,5 h 4 c 0.5625,0 1,0.4375 1,1 v 6 c 0,0.566406 -0.4375,1 -1,1 H 3 C 2.4375,13 2,12.566406 2,12 V 4 C 2,3.4375 2.4375,3 3,3 Z m 0,0"
         id="path242"
         style="fill:#dfdfdf;fill-opacity:1" /></g><path
       d="m 7.9999438,11.874235 c -0.413086,0 -0.750001,-0.336914 -0.750001,-0.75 V 8.8742353 h -1.5 v -0.75 h 0.0059 c -0.003,-0.199219 0.07617,-0.389649 0.21387,-0.530274 l 1.5,-1.4999987 c 0.292968,-0.292969 0.767578,-0.292969 1.060546,0 l 1.5000002,1.4999987 c 0.137696,0.140625 0.216798,0.331055 0.216798,0.530274 h 0.003 v 0.75 H 8.7500208 v 2.2499997 c 0,0.413086 -0.336914,0.75 -0.749999,0.75 z m 0,0"
       id="path4"
       style="fill:#dfdfdf;fill-opacity:1;stroke-width:0.75" /></g></svg>
