<?xml version="1.0" encoding="UTF-8" standalone="no"?>
<svg
   width="16"
   height="16"
   viewBox="0 0 16 16"
   version="1.1"
   id="svg7"
   sodipodi:docname="im-jabber.svg"
   xml:space="preserve"
   inkscape:version="1.2.1 (9c6d41e410, 2022-07-14)"
   xmlns:inkscape="http://www.inkscape.org/namespaces/inkscape"
   xmlns:sodipodi="http://sodipodi.sourceforge.net/DTD/sodipodi-0.dtd"
   xmlns="http://www.w3.org/2000/svg"
   xmlns:svg="http://www.w3.org/2000/svg"><sodipodi:namedview
     id="namedview9"
     pagecolor="#ffffff"
     bordercolor="#000000"
     borderopacity="0.25"
     inkscape:showpageshadow="2"
     inkscape:pageopacity="0.0"
     inkscape:pagecheckerboard="0"
     inkscape:deskcolor="#d1d1d1"
     showgrid="false"
     inkscape:zoom="16.046875"
     inkscape:cx="-15.080818"
     inkscape:cy="13.678676"
     inkscape:current-layer="svg7" /><defs
     id="defs3"><style
       id="current-color-scheme"
       type="text/css">
   .ColorScheme-Text { color:#444444; } .ColorScheme-Highlight { color:#4285f4; }
  </style></defs><path
     d="M 10.999986,14.500002 A 0.50002201,0.50002201 0 0 1 10.499988,15 H 5.5000129 a 0.499998,0.499998 0 1 1 0,-0.999996 h 4.9999751 a 0.50002201,0.50002201 0 0 1 0.499998,0.499998 z m 2.499988,-7.9999611 a 5.4714153,5.4714153 0 0 1 -2.10259,4.3254801 1.014419,1.014419 0 0 0 -0.397398,0.79797 v 0.376523 A 1.0011409,1.0011409 0 0 1 9.9999905,13.00001 H 6.0000099 a 1.0011409,1.0011409 0 0 1 -0.999995,-0.999996 v -0.37695 A 1.0011284,1.0011284 0 0 0 4.6106769,10.831869 5.4734872,5.4734872 0 0 1 2.5000909,6.5309855 C 2.4836709,3.5521191 4.8915589,1.0716647 7.8676799,1.0015901 A 5.5000508,5.5000508 0 0 1 13.499974,6.5000409 Z M 11.450729,5.9127615 A 3.4906084,3.4906084 0 0 0 8.590452,3.0560244 0.49997122,0.49997122 0 1 0 8.4245585,4.0421097 a 2.4899744,2.4899744 0 0 1 2.0402155,2.037767 0.50016076,0.50016076 0 0 0 0.492367,0.4165027 0.5064351,0.5064351 0 0 0 0.08417,-0.00709 0.49999763,0.49999763 0 0 0 0.409421,-0.576534 z"
     id="path134"
     style="fill:#dfdfdf;fill-opacity:1;stroke-width:0.0624997" /></svg>
