<?xml version="1.0" encoding="UTF-8" standalone="no"?>
<svg
   width="16"
   height="16"
   version="1.1"
   id="svg6"
   sodipodi:docname="image-red-eye-symbolic.svg"
   inkscape:version="1.2.1 (9c6d41e410, 2022-07-14)"
   xmlns:inkscape="http://www.inkscape.org/namespaces/inkscape"
   xmlns:sodipodi="http://sodipodi.sourceforge.net/DTD/sodipodi-0.dtd"
   xmlns="http://www.w3.org/2000/svg"
   xmlns:svg="http://www.w3.org/2000/svg">
  <defs
     id="defs10" />
  <sodipodi:namedview
     id="namedview8"
     pagecolor="#ffffff"
     bordercolor="#000000"
     borderopacity="0.25"
     inkscape:showpageshadow="2"
     inkscape:pageopacity="0.0"
     inkscape:pagecheckerboard="0"
     inkscape:deskcolor="#d1d1d1"
     showgrid="false"
     inkscape:zoom="65.8125"
     inkscape:cx="7.9924027"
     inkscape:cy="8.0151947"
     inkscape:current-layer="svg6" />
  <path
     style="fill:#dfdfdf;fill-opacity:1"
     d="M 8,3 C 7.5092,3 7.0467,3.0455 6.6094,3.1094 L 8.5625,5.0625 A 3,3 0 0 1 10.951,7.4512 L 14.115,10.615 C 15.46,9.3291 16,8 16,8 16,8 14,3 8,3 Z M 4.2715,3.7715 C 1.1494,5.162 0,8 0,8 0,8 2,13 8,13 9.8188,13 11.267,12.532 12.398,11.898 L 10.355,9.8555 A 3,3 0 0 1 8,11 3,3 0 0 1 5,8 3,3 0 0 1 6.1426,5.6426 Z"
     id="path2" />
  <path
     style="fill:#dfdfdf;fill-opacity:1"
     d="M 2.5,1 15,13.5 13.5,15 1,2.5 Z"
     id="path4" />
</svg>
