<?xml version="1.0" encoding="UTF-8" standalone="no"?>
<svg
   width="16"
   height="16"
   viewBox="0 0 16 16"
   version="1.1"
   id="svg7"
   sodipodi:docname="insert-button.svg"
   xml:space="preserve"
   inkscape:version="1.2.1 (9c6d41e410, 2022-07-14)"
   xmlns:inkscape="http://www.inkscape.org/namespaces/inkscape"
   xmlns:sodipodi="http://sodipodi.sourceforge.net/DTD/sodipodi-0.dtd"
   xmlns="http://www.w3.org/2000/svg"
   xmlns:svg="http://www.w3.org/2000/svg"><sodipodi:namedview
     id="namedview9"
     pagecolor="#ffffff"
     bordercolor="#000000"
     borderopacity="0.25"
     inkscape:showpageshadow="2"
     inkscape:pageopacity="0.0"
     inkscape:pagecheckerboard="0"
     inkscape:deskcolor="#d1d1d1"
     showgrid="false"
     inkscape:zoom="11.346854"
     inkscape:cx="-26.791567"
     inkscape:cy="14.40928"
     inkscape:current-layer="svg7" /><defs
     id="defs3"><style
       id="current-color-scheme"
       type="text/css">
   .ColorScheme-Text { color:#444444; } .ColorScheme-Highlight { color:#4285f4; }
  </style></defs><g
     id="g849"
     transform="translate(30.642578,-2.6777342)"
     style="fill:#dfdfdf;fill-opacity:1"><path
       style="color:#000000;fill:#dfdfdf;fill-opacity:1;stroke-linecap:round;stroke-linejoin:round;-inkscape-stroke:none"
       d="M -22.927734,4.6777344 A 0.57148717,0.57148717 0 0 0 -23.5,5.2480469 v 4.5722656 h -4.570312 a 0.57148717,0.57148717 0 0 0 -0.572266,0.5703125 v 5.714844 a 0.57148717,0.57148717 0 0 0 0.572266,0.572265 h 10.857421 a 0.57148717,0.57148717 0 0 0 0.570313,-0.572265 V 5.2480469 a 0.57148717,0.57148717 0 0 0 -0.570313,-0.5703125 z m 0.570312,1.1425781 h 4.572266 V 15.535156 H -27.5 v -4.572265 h 4.572266 a 0.57148717,0.57148717 0 0 0 0.570312,-0.572266 z"
       id="path238" /><g
       id="g691"
       style="fill:#dfdfdf;fill-opacity:1"><path
         style="color:#000000;fill:#dfdfdf;fill-opacity:1;stroke-width:0.285714;stroke-linecap:round;stroke-linejoin:round"
         d="m -20.070702,6.9629955 a 0.57142858,0.57142858 0 0 0 -0.571429,0.5714286 v 5.1428569 h -5.142857 a 0.57142858,0.57142858 0 0 0 -0.571429,0.571429 0.57142858,0.57142858 0 0 0 0.571429,0.571428 h 5.714286 a 0.57148572,0.57148572 0 0 0 0.571428,-0.571428 V 7.5344241 a 0.57142858,0.57142858 0 0 0 -0.571428,-0.5714286 z"
         id="path240" /><g
         id="path242"
         style="fill:#dfdfdf;fill-opacity:1"
         transform="matrix(0.28571429,0,0,0.28571429,-5.1672422,7.8318571)"><path
           style="color:#000000;fill:#dfdfdf;fill-opacity:1;stroke-width:4;stroke-linecap:round;stroke-linejoin:round"
           d="m -68.162327,14.958707 -4,4 4,4"
           id="path318" /><path
           style="color:#000000;fill:#dfdfdf;fill-opacity:1;stroke-linecap:round;stroke-linejoin:round"
           d="m -69.576172,13.544922 -4,4 a 2.0002,2.0002 0 0 0 0,2.828125 l 4,4 a 2,2 0 0 0 2.828125,0 2,2 0 0 0 0,-2.828125 l -2.585937,-2.585938 2.585937,-2.585937 a 2,2 0 0 0 0,-2.828125 2,2 0 0 0 -2.828125,0 z"
           id="path320" /></g></g></g></svg>
