<?xml version="1.0" encoding="UTF-8" standalone="no"?>
<svg
   width="16"
   height="16"
   viewBox="0 0 16 16"
   version="1.1"
   id="svg7"
   sodipodi:docname="kdeconnect.svg"
   xml:space="preserve"
   inkscape:version="1.2.1 (9c6d41e410, 2022-07-14)"
   xmlns:inkscape="http://www.inkscape.org/namespaces/inkscape"
   xmlns:sodipodi="http://sodipodi.sourceforge.net/DTD/sodipodi-0.dtd"
   xmlns="http://www.w3.org/2000/svg"
   xmlns:svg="http://www.w3.org/2000/svg"><sodipodi:namedview
     id="namedview9"
     pagecolor="#ffffff"
     bordercolor="#000000"
     borderopacity="0.25"
     inkscape:showpageshadow="2"
     inkscape:pageopacity="0.0"
     inkscape:pagecheckerboard="0"
     inkscape:deskcolor="#d1d1d1"
     showgrid="false"
     inkscape:zoom="4.0117188"
     inkscape:cx="-79.0185"
     inkscape:cy="31.03408"
     inkscape:current-layer="svg7" /><defs
     id="defs3"><style
       id="current-color-scheme"
       type="text/css">
   .ColorScheme-Text { color:#444444; } .ColorScheme-Highlight { color:#4285f4; }
  </style></defs><g
     id="g296"
     transform="scale(0.5)"
     style="fill:#dfdfdf;fill-opacity:1"><g
       id="g241"
       style="fill:#dfdfdf;fill-opacity:1">
	<g
   id="iphone"
   style="fill:#dfdfdf;fill-opacity:1">
		<path
   style="fill:#dfdfdf;fill-opacity:1"
   d="M 20,0 H 12 C 7.582,0 4,3.582 4,8 v 16 c 0,4.418 3.582,8 8,8 h 8 c 4.418,0 8,-3.582 8,-8 V 8 C 28,3.582 24.418,0 20,0 Z m -4,30.062 c -1.139,0 -2.062,-0.922 -2.062,-2.062 0,-1.14 0.924,-2.062 2.062,-2.062 1.138,0 2.062,0.922 2.062,2.062 0,1.14 -0.923,2.062 -2.062,2.062 z M 24,24 H 8 V 8 C 8,5.797 9.795,4 12,4 h 8 c 2.203,0 4,1.797 4,4 z"
   id="path238" />
	</g>
</g><g
       id="g243"
       style="fill:#dfdfdf;fill-opacity:1">
</g><g
       id="g245"
       style="fill:#dfdfdf;fill-opacity:1">
</g><g
       id="g247"
       style="fill:#dfdfdf;fill-opacity:1">
</g><g
       id="g249"
       style="fill:#dfdfdf;fill-opacity:1">
</g><g
       id="g251"
       style="fill:#dfdfdf;fill-opacity:1">
</g><g
       id="g253"
       style="fill:#dfdfdf;fill-opacity:1">
</g><g
       id="g255"
       style="fill:#dfdfdf;fill-opacity:1">
</g><g
       id="g257"
       style="fill:#dfdfdf;fill-opacity:1">
</g><g
       id="g259"
       style="fill:#dfdfdf;fill-opacity:1">
</g><g
       id="g261"
       style="fill:#dfdfdf;fill-opacity:1">
</g><g
       id="g263"
       style="fill:#dfdfdf;fill-opacity:1">
</g><g
       id="g265"
       style="fill:#dfdfdf;fill-opacity:1">
</g><g
       id="g267"
       style="fill:#dfdfdf;fill-opacity:1">
</g><g
       id="g269"
       style="fill:#dfdfdf;fill-opacity:1">
</g><g
       id="g271"
       style="fill:#dfdfdf;fill-opacity:1">
</g></g></svg>
