<?xml version="1.0" encoding="UTF-8" standalone="no"?>
<svg
   width="16"
   height="16"
   viewBox="0 0 16 16"
   version="1.1"
   id="svg7"
   sodipodi:docname="kdenlive-show-audiothumb.svg"
   xml:space="preserve"
   inkscape:version="1.2.1 (9c6d41e410, 2022-07-14)"
   xmlns:inkscape="http://www.inkscape.org/namespaces/inkscape"
   xmlns:sodipodi="http://sodipodi.sourceforge.net/DTD/sodipodi-0.dtd"
   xmlns="http://www.w3.org/2000/svg"
   xmlns:svg="http://www.w3.org/2000/svg"><sodipodi:namedview
     id="namedview9"
     pagecolor="#ffffff"
     bordercolor="#000000"
     borderopacity="0.25"
     inkscape:showpageshadow="2"
     inkscape:pageopacity="0.0"
     inkscape:pagecheckerboard="0"
     inkscape:deskcolor="#d1d1d1"
     showgrid="false"
     inkscape:zoom="16.046875"
     inkscape:cx="-17.261928"
     inkscape:cy="11.185979"
     inkscape:current-layer="svg7" /><defs
     id="defs3"><style
       id="current-color-scheme"
       type="text/css">
   .ColorScheme-Text { color:#444444; } .ColorScheme-Highlight { color:#4285f4; }
  </style></defs><g
     id="g336"
     transform="matrix(0.31914894,0,0,0.31914894,0.49999991,0.49999991)"
     style="fill:#dfdfdf;fill-opacity:1"><g
       id="g268"
       style="fill:#dfdfdf;fill-opacity:1">
	<g
   id="g266"
   style="fill:#dfdfdf;fill-opacity:1">
		<g
   id="g240"
   style="fill:#dfdfdf;fill-opacity:1">
			<path
   d="M 2.41,31.936 C 1.079,31.936 0,30.858 0,29.526 v -12.05 c 0,-1.331 1.079,-2.41 2.41,-2.41 1.331,0 2.41,1.079 2.41,2.41 v 12.05 c 0,1.329 -1.079,2.41 -2.41,2.41 z"
   id="path238"
   style="fill:#dfdfdf;fill-opacity:1" />
		</g>
		<g
   id="g244"
   style="fill:#dfdfdf;fill-opacity:1">
			<path
   d="m 9.44,37.962 c -1.331,0 -2.41,-1.079 -2.41,-2.41 V 11.448 c 0,-1.331 1.079,-2.41 2.41,-2.41 1.331,0 2.41,1.079 2.41,2.41 v 24.104 c 0.001,1.331 -1.079,2.41 -2.41,2.41 z"
   id="path242"
   style="fill:#dfdfdf;fill-opacity:1" />
		</g>
		<g
   id="g248"
   style="fill:#dfdfdf;fill-opacity:1">
			<path
   d="m 16.47,34.948 c -1.331,0 -2.41,-1.079 -2.41,-2.41 V 14.462 c 0,-1.331 1.079,-2.41 2.41,-2.41 1.331,0 2.411,1.079 2.411,2.41 v 18.076 c -0.001,1.331 -1.08,2.41 -2.411,2.41 z"
   id="path246"
   style="fill:#dfdfdf;fill-opacity:1" />
		</g>
		<g
   id="g252"
   style="fill:#dfdfdf;fill-opacity:1">
			<path
   d="m 23.5,40.975 c -1.331,0 -2.41,-1.078 -2.41,-2.41 V 8.436 c 0,-1.331 1.079,-2.41 2.41,-2.41 1.331,0 2.41,1.079 2.41,2.41 v 30.128 c 0,1.332 -1.079,2.411 -2.41,2.411 z"
   id="path250"
   style="fill:#dfdfdf;fill-opacity:1" />
		</g>
		<g
   id="g256"
   style="fill:#dfdfdf;fill-opacity:1">
			<path
   d="m 30.529,47 c -1.33,0 -2.41,-1.079 -2.41,-2.41 V 2.41 c 0,-1.331 1.08,-2.41 2.41,-2.41 1.332,0 2.41,1.079 2.41,2.41 v 42.18 c 0,1.331 -1.078,2.41 -2.41,2.41 z"
   id="path254"
   style="fill:#dfdfdf;fill-opacity:1" />
		</g>
		<g
   id="g260"
   style="fill:#dfdfdf;fill-opacity:1">
			<path
   d="m 37.561,37.962 c -1.332,0 -2.41,-1.079 -2.41,-2.41 V 11.448 c 0,-1.331 1.078,-2.41 2.41,-2.41 1.33,0 2.41,1.079 2.41,2.41 v 24.104 c 0,1.331 -1.08,2.41 -2.41,2.41 z"
   id="path258"
   style="fill:#dfdfdf;fill-opacity:1" />
		</g>
		<g
   id="g264"
   style="fill:#dfdfdf;fill-opacity:1">
			<path
   d="m 44.59,28.923 c -1.331,0 -2.41,-1.079 -2.41,-2.409 v -6.026 c 0,-1.331 1.079,-2.41 2.41,-2.41 1.331,0 2.41,1.079 2.41,2.41 v 6.026 c 0,1.33 -1.079,2.409 -2.41,2.409 z"
   id="path262"
   style="fill:#dfdfdf;fill-opacity:1" />
		</g>
	</g>
</g><g
       id="g270"
       style="fill:#dfdfdf;fill-opacity:1">
</g><g
       id="g272"
       style="fill:#dfdfdf;fill-opacity:1">
</g><g
       id="g274"
       style="fill:#dfdfdf;fill-opacity:1">
</g><g
       id="g276"
       style="fill:#dfdfdf;fill-opacity:1">
</g><g
       id="g278"
       style="fill:#dfdfdf;fill-opacity:1">
</g><g
       id="g280"
       style="fill:#dfdfdf;fill-opacity:1">
</g><g
       id="g282"
       style="fill:#dfdfdf;fill-opacity:1">
</g><g
       id="g284"
       style="fill:#dfdfdf;fill-opacity:1">
</g><g
       id="g286"
       style="fill:#dfdfdf;fill-opacity:1">
</g><g
       id="g288"
       style="fill:#dfdfdf;fill-opacity:1">
</g><g
       id="g290"
       style="fill:#dfdfdf;fill-opacity:1">
</g><g
       id="g292"
       style="fill:#dfdfdf;fill-opacity:1">
</g><g
       id="g294"
       style="fill:#dfdfdf;fill-opacity:1">
</g><g
       id="g296"
       style="fill:#dfdfdf;fill-opacity:1">
</g><g
       id="g298"
       style="fill:#dfdfdf;fill-opacity:1">
</g></g></svg>
