<?xml version="1.0" encoding="UTF-8" standalone="no"?>
<svg
   width="16"
   height="16"
   version="1.1"
   id="svg9"
   sodipodi:docname="kdenlive-zindex-down.svg"
   xml:space="preserve"
   inkscape:version="1.2.1 (9c6d41e410, 2022-07-14)"
   xmlns:inkscape="http://www.inkscape.org/namespaces/inkscape"
   xmlns:sodipodi="http://sodipodi.sourceforge.net/DTD/sodipodi-0.dtd"
   xmlns="http://www.w3.org/2000/svg"
   xmlns:svg="http://www.w3.org/2000/svg"><g
     id="g315"
     transform="translate(0,-0.36075989)"
     style="fill:#dfdfdf;fill-opacity:1"><path
       style="fill:#dfdfdf;fill-opacity:1"
       d="m 10,2.3607598 a 2,2 0 0 1 -2,2 2,2 0 0 1 -2,-2 2,2 0 0 1 2,-2.00000027 2,2 0 0 1 2,2.00000027 z"
       id="path2" /><path
       d="m 8.000008,5.3607595 c 0.757324,0 1.375,0.6176759 1.375,1.375 V 10.86076 h 2.749999 v 1.375 h -0.01073 c 0.0054,0.365234 -0.139652,0.714355 -0.392094,0.972168 l -2.749999,2.749999 c -0.53711,0.537111 -1.407226,0.537111 -1.944335,0 L 4.277856,13.207928 C 4.025414,12.950115 3.880393,12.600994 3.880393,12.23576 h -0.0054 v -1.375 h 2.75006 V 6.7357595 c 0,-0.7573241 0.617675,-1.375 1.374999,-1.375 z m 0,0"
       id="path4"
       style="fill:#dfdfdf;fill-opacity:1;stroke-width:1.375" /></g><sodipodi:namedview
     id="namedview11"
     pagecolor="#ffffff"
     bordercolor="#000000"
     borderopacity="0.25"
     inkscape:showpageshadow="2"
     inkscape:pageopacity="0.0"
     inkscape:pagecheckerboard="0"
     inkscape:deskcolor="#d1d1d1"
     showgrid="false"
     inkscape:zoom="16.046875"
     inkscape:cx="3.489776"
     inkscape:cy="15.236611"
     inkscape:current-layer="svg9" /><defs
     id="defs3"><style
       id="current-color-scheme"
       type="text/css">
   .ColorScheme-Text { color:#444444; } .ColorScheme-Highlight { color:#4285f4; }
  </style><style
       type="text/css"
       id="current-color-scheme-367">
      .ColorScheme-Text {
        color:#122036;
      }
      </style><style
       type="text/css"
       id="current-color-scheme-36">
      .ColorScheme-Text {
        color:#122036;
      }
      </style><style
       type="text/css"
       id="current-color-scheme-3">
      .ColorScheme-Text {
        color:#122036;
      }
      </style><style
       type="text/css"
       id="current-color-scheme-7">
      .ColorScheme-Text {
        color:#122036;
      }
      </style></defs></svg>
