<?xml version="1.0" encoding="UTF-8" standalone="no"?>
<svg
   width="16"
   height="16"
   viewBox="0 0 16 16"
   version="1.1"
   id="svg7"
   sodipodi:docname="kr_unselect.svg"
   xml:space="preserve"
   inkscape:version="1.2.1 (9c6d41e410, 2022-07-14)"
   xmlns:inkscape="http://www.inkscape.org/namespaces/inkscape"
   xmlns:sodipodi="http://sodipodi.sourceforge.net/DTD/sodipodi-0.dtd"
   xmlns="http://www.w3.org/2000/svg"
   xmlns:svg="http://www.w3.org/2000/svg"><sodipodi:namedview
     id="namedview9"
     pagecolor="#ffffff"
     bordercolor="#000000"
     borderopacity="0.25"
     inkscape:showpageshadow="2"
     inkscape:pageopacity="0.0"
     inkscape:pagecheckerboard="0"
     inkscape:deskcolor="#d1d1d1"
     showgrid="false"
     inkscape:zoom="11.346854"
     inkscape:cx="-23.00197"
     inkscape:cy="19.78522"
     inkscape:current-layer="svg7" /><defs
     id="defs3"><style
       id="current-color-scheme"
       type="text/css">
   .ColorScheme-Text { color:#444444; } .ColorScheme-Highlight { color:#4285f4; }
  </style><style
       id="current-color-scheme-5"
       type="text/css">
   .ColorScheme-Text { color:#444444; } .ColorScheme-Highlight { color:#4285f4; }
  </style></defs><g
     id="g882"><path
       d="m 14.166666,1 c 0.221354,0 0.432942,0.087891 0.589192,0.2441409 0.325522,0.3255208 0.325522,0.8528642 0,1.178385 l -1.077473,1.0774745 1.077473,1.077474 c 0.325522,0.32552 0.325522,0.852865 0,1.178385 -0.32552,0.325521 -0.852863,0.325521 -1.178384,0 L 12.5,4.6783854 11.422525,5.7558594 c -0.325521,0.325521 -0.852864,0.325521 -1.178385,0 -0.32552,-0.32552 -0.32552,-0.852865 0,-1.178385 L 11.321614,3.5000004 10.24414,2.4225259 c -0.32552,-0.3255208 -0.32552,-0.8528642 0,-1.178385 C 10.40039,1.0878909 10.611978,1 10.833332,1 c 0.221355,0 0.432943,0.087891 0.589193,0.2441409 L 12.5,2.3216151 13.577474,1.2441409 C 13.733724,1.0878909 13.945312,1 14.166666,1 Z m 0,0"
       id="path4"
       style="fill:#dfdfdf;fill-opacity:1;stroke-width:0.833333" /><g
       id="g193"
       transform="matrix(0.03621539,0,0,0.03621539,-0.84341472,0.9999997)"
       style="fill:#dfdfdf;fill-opacity:1"><g
         id="g138"
         style="fill:#dfdfdf;fill-opacity:1">
	<g
   id="g136"
   style="fill:#dfdfdf;fill-opacity:1">
		<path
   style="fill:#dfdfdf;fill-opacity:1"
   d="m 323.54,173.105 c -7.207,0 -13.947,1.954 -19.782,5.31 -3.462,-18.395 -19.595,-32.312 -39.007,-32.312 -7.874,0 -15.186,2.316 -21.361,6.274 -5.771,-14.825 -20.143,-25.333 -36.988,-25.333 -7.398,0 -14.286,2.051 -20.219,5.57 V 39.715 C 186.183,17.778 168.392,0 146.47,0 124.529,0 106.756,17.778 106.756,39.715 V 218.917 L 92.689,203.086 c -14.551,-16.4 -39.656,-17.879 -56.055,-3.32 -16.403,14.573 -17.891,39.675 -3.32,56.075 l 86.635,97.547 c 17.421,17.05 47.141,33.188 72.679,33.188 h 85.319 c 47.129,0 85.342,-34.201 85.342,-76.4 l -0.035,-97.351 c -0.001,-21.932 -17.791,-39.72 -39.714,-39.72 z"
   id="path134" />
	</g>
</g><g
         id="g140"
         style="fill:#dfdfdf;fill-opacity:1">
</g><g
         id="g142"
         style="fill:#dfdfdf;fill-opacity:1">
</g><g
         id="g144"
         style="fill:#dfdfdf;fill-opacity:1">
</g><g
         id="g146"
         style="fill:#dfdfdf;fill-opacity:1">
</g><g
         id="g148"
         style="fill:#dfdfdf;fill-opacity:1">
</g><g
         id="g150"
         style="fill:#dfdfdf;fill-opacity:1">
</g><g
         id="g152"
         style="fill:#dfdfdf;fill-opacity:1">
</g><g
         id="g154"
         style="fill:#dfdfdf;fill-opacity:1">
</g><g
         id="g156"
         style="fill:#dfdfdf;fill-opacity:1">
</g><g
         id="g158"
         style="fill:#dfdfdf;fill-opacity:1">
</g><g
         id="g160"
         style="fill:#dfdfdf;fill-opacity:1">
</g><g
         id="g162"
         style="fill:#dfdfdf;fill-opacity:1">
</g><g
         id="g164"
         style="fill:#dfdfdf;fill-opacity:1">
</g><g
         id="g166"
         style="fill:#dfdfdf;fill-opacity:1">
</g><g
         id="g168"
         style="fill:#dfdfdf;fill-opacity:1">
</g></g></g></svg>
