<?xml version="1.0" encoding="UTF-8" standalone="no"?>
<svg
   width="16"
   height="16"
   viewBox="0 0 16 16"
   version="1.1"
   id="svg7"
   sodipodi:docname="kt-remove-filters.svg"
   xml:space="preserve"
   inkscape:version="1.2.1 (9c6d41e410, 2022-07-14)"
   xmlns:inkscape="http://www.inkscape.org/namespaces/inkscape"
   xmlns:sodipodi="http://sodipodi.sourceforge.net/DTD/sodipodi-0.dtd"
   xmlns="http://www.w3.org/2000/svg"
   xmlns:svg="http://www.w3.org/2000/svg"><sodipodi:namedview
     id="namedview9"
     pagecolor="#ffffff"
     bordercolor="#000000"
     borderopacity="0.25"
     inkscape:showpageshadow="2"
     inkscape:pageopacity="0.0"
     inkscape:pagecheckerboard="0"
     inkscape:deskcolor="#d1d1d1"
     showgrid="false"
     inkscape:zoom="22.693708"
     inkscape:cx="0.30845554"
     inkscape:cy="9.0994385"
     inkscape:current-layer="svg7" /><defs
     id="defs3"><style
       id="current-color-scheme"
       type="text/css">
   .ColorScheme-Text { color:#444444; } .ColorScheme-Highlight { color:#4285f4; }
  </style><style
       id="current-color-scheme-3"
       type="text/css">
   .ColorScheme-Text { color:#444444; } .ColorScheme-Highlight { color:#4285f4; }
  </style></defs><g
     id="g792"><path
       fill="#494c4e"
       d="m 5.9977791,14.666703 h 0.0039 c 0.305558,0 0.553892,-0.24889 0.553892,-0.553337 v -0.0039 c 0,-0.305557 -0.24889,-0.553892 -0.553892,-0.553892 h -0.0039 c -0.304446,0 -0.553336,0.248891 -0.553336,0.553337 v 0.0039 c 0,0.305557 0.24889,0.553892 0.553336,0.553892 z M 9.1083531,4.6666452 6.9083401,6.7249908 6.5555601,7.0544372 V 10.32779 c -0.08,0.155557 -0.426113,0.511113 -0.901672,0.812227 -0.08222,0.05 -0.151667,0.08722 -0.209445,0.115 V 7.0538816 l -0.352225,-0.3294464 -2.200013,-2.05779 h 6.216704 M 10.444472,3.5555275 H 1.5555311 c -0.233335,0 -0.438892,0.1544454 -0.522226,0.3861134 -0.07778,0.2316681 -0.01667,0.4933363 0.155557,0.6538928 l 3.144463,2.9411286 v 3.9039107 c 0,0.535003 0.266668,0.78445 0.42778,0.879451 0.133334,0.08333 0.288891,0.124444 0.455559,0.124444 0.28889,0 0.627781,-0.11889 1.016672,-0.356669 0.05556,-0.03556 1.433342,-0.891116 1.433342,-1.700009 V 7.5361067 L 10.811141,4.5949781 C 10.983365,4.4349772 11.044476,4.1738645 10.966698,3.9421965 10.883368,3.7099729 10.677807,3.5555275 10.444472,3.5555275 Z M 3.2199851,2.4444097 h 0.0039 c 0.305557,0 0.553892,-0.2488903 0.553892,-0.5533366 v -0.00444 c 0,-0.3044462 -0.24889,-0.5533366 -0.553892,-0.5533366 h -0.0039 c -0.304446,0 -0.553337,0.2488904 -0.553337,0.5533366 v 0.00389 c 0,0.3055574 0.248891,0.5538922 0.553337,0.5538922 z m 2.777794,0 h 0.0039 c 0.305558,0 0.553892,-0.2488903 0.553892,-0.5533366 v -0.00444 c 0,-0.3044462 -0.24889,-0.5533366 -0.553892,-0.5533366 h -0.0039 c -0.304446,0 -0.553336,0.2488904 -0.553336,0.5533366 v 0.00389 c 0,0.3055574 0.24889,0.5538922 0.553336,0.5538922 z m 2.777795,0 h 0.0039 c 0.305557,0 0.5538916,-0.2488903 0.5538916,-0.5533366 v -0.00444 c 0,-0.3044462 -0.2488906,-0.5533366 -0.5538916,-0.5533366 h -0.0039 c -0.304447,0 -0.553337,0.2488904 -0.553337,0.5533366 v 0.00389 c 0,0.3055574 0.24889,0.5538922 0.553337,0.5538922 z"
       id="path238"
       style="fill:#dfdfdf;fill-opacity:1;stroke-width:0.555559" /><path
       style="fill:#dfdfdf;fill-opacity:1"
       d="m 9,8.0000001 v 1.9999992 h 6 V 8 Z"
       id="path306" /></g></svg>
