<?xml version="1.0" encoding="UTF-8" standalone="no"?>
<svg
   width="16"
   height="16"
   viewBox="0 0 16 16"
   version="1.1"
   id="svg7"
   sodipodi:docname="layer-delete.svg"
   xml:space="preserve"
   inkscape:version="1.2.1 (9c6d41e410, 2022-07-14)"
   xmlns:inkscape="http://www.inkscape.org/namespaces/inkscape"
   xmlns:sodipodi="http://sodipodi.sourceforge.net/DTD/sodipodi-0.dtd"
   xmlns="http://www.w3.org/2000/svg"
   xmlns:svg="http://www.w3.org/2000/svg"><sodipodi:namedview
     id="namedview9"
     pagecolor="#ffffff"
     bordercolor="#000000"
     borderopacity="0.25"
     inkscape:showpageshadow="2"
     inkscape:pageopacity="0.0"
     inkscape:pagecheckerboard="0"
     inkscape:deskcolor="#d1d1d1"
     showgrid="false"
     inkscape:zoom="32"
     inkscape:cx="-1.03125"
     inkscape:cy="9.921875"
     inkscape:current-layer="svg7" /><defs
     id="defs3"><style
   id="current-color-scheme"
   type="text/css">
   .ColorScheme-Text { color:#444444; } .ColorScheme-Highlight { color:#4285f4; }
  </style><style
   id="current-color-scheme-5"
   type="text/css">
   .ColorScheme-Text { color:#444444; } .ColorScheme-Highlight { color:#4285f4; }
  </style><style
   id="current-color-scheme-2"
   type="text/css">
   .ColorScheme-Text { color:#444444; } .ColorScheme-Highlight { color:#4285f4; }
  </style>
	

		
	</defs><g
     id="g268"
     style="fill:#444444;fill-opacity:1"
     transform="matrix(0.02734375,0,0,0.02734375,-30.310398,-5.1052017)">
</g><g
     id="g270"
     style="fill:#444444;fill-opacity:1"
     transform="matrix(0.02734375,0,0,0.02734375,-30.310398,-5.1052017)">
</g><g
     id="g272"
     style="fill:#444444;fill-opacity:1"
     transform="matrix(0.02734375,0,0,0.02734375,-30.310398,-5.1052017)">
</g><g
     id="g274"
     style="fill:#444444;fill-opacity:1"
     transform="matrix(0.02734375,0,0,0.02734375,-30.310398,-5.1052017)">
</g><g
     id="g276"
     style="fill:#444444;fill-opacity:1"
     transform="matrix(0.02734375,0,0,0.02734375,-30.310398,-5.1052017)">
</g><g
     id="g278"
     style="fill:#444444;fill-opacity:1"
     transform="matrix(0.02734375,0,0,0.02734375,-30.310398,-5.1052017)">
</g><g
     id="g280"
     style="fill:#444444;fill-opacity:1"
     transform="matrix(0.02734375,0,0,0.02734375,-30.310398,-5.1052017)">
</g><g
     id="g282"
     style="fill:#444444;fill-opacity:1"
     transform="matrix(0.02734375,0,0,0.02734375,-30.310398,-5.1052017)">
</g><g
     id="g284"
     style="fill:#444444;fill-opacity:1"
     transform="matrix(0.02734375,0,0,0.02734375,-30.310398,-5.1052017)">
</g><g
     id="g286"
     style="fill:#444444;fill-opacity:1"
     transform="matrix(0.02734375,0,0,0.02734375,-30.310398,-5.1052017)">
</g><g
     id="g288"
     style="fill:#444444;fill-opacity:1"
     transform="matrix(0.02734375,0,0,0.02734375,-30.310398,-5.1052017)">
</g><g
     id="g290"
     style="fill:#444444;fill-opacity:1"
     transform="matrix(0.02734375,0,0,0.02734375,-30.310398,-5.1052017)">
</g><g
     id="g292"
     style="fill:#444444;fill-opacity:1"
     transform="matrix(0.02734375,0,0,0.02734375,-30.310398,-5.1052017)">
</g><g
     id="g294"
     style="fill:#444444;fill-opacity:1"
     transform="matrix(0.02734375,0,0,0.02734375,-30.310398,-5.1052017)">
</g><g
     id="g296"
     style="fill:#444444;fill-opacity:1"
     transform="matrix(0.02734375,0,0,0.02734375,-30.310398,-5.1052017)">
</g><g
     id="g339"
     transform="translate(-0.14443309,0.6055665)"
     style="fill:#dfdfdf;fill-opacity:1"><path
       style="fill:#dfdfdf;fill-opacity:1;stroke-width:0.0273438"
       d="M 3.9928115,7.452971 1.7486708,8.5935959 C 1.5960382,8.6712248 1.500624,8.8286195 1.500624,8.9998461 c 0,0.1712262 0.095414,0.3286483 0.2480468,0.4062499 l 4.7773439,2.429687 c 0.064832,0.03298 0.1342851,0.04883 0.2050781,0.04883 0.070054,0 0.1407656,-0.01648 0.2050781,-0.04883 l 1.410156,-0.708984 V 8.0310966 L 7.344374,8.5350031 c -0.1893008,0.095129 -0.4014494,0.1445312 -0.6132812,0.1445312 -0.2140469,0 -0.4282816,-0.051312 -0.6191407,-0.1484375 z"
       id="path332" /><g
       id="g266"
       style="fill:#dfdfdf;fill-opacity:1"
       transform="matrix(0.02734375,0,0,0.02734375,-0.239992,2)">
	<g
   id="g264"
   style="fill:#dfdfdf;fill-opacity:1">
		<path
   d="M 439.198,90.64 262.453,1.772 C 260.891,0.986 259.233,0.488 257.547,0.224 257.324,0.19 257.103,0.134 256.879,0.109 256.632,0.081 256.382,0.083 256.133,0.066 255.739,0.039 255.345,0 254.949,0 c -0.195,0 -0.388,0.027 -0.584,0.034 -2.382,0.088 -4.751,0.663 -6.933,1.774 L 72.731,90.676 c -5.582,2.839 -9.097,8.571 -9.097,14.833 0,6.262 3.515,11.995 9.097,14.833 l 82.055,41.741 36.706,18.672 55.94,28.456 c 1.777,0.904 3.676,1.469 5.605,1.695 0.645,0.075 1.293,0.114 1.94,0.114 2.562,0 5.124,-0.591 7.476,-1.774 l 176.745,-88.868 c 5.62,-2.826 9.167,-8.577 9.167,-14.868 0,-6.291 -3.546,-12.044 -9.167,-14.87 z"
   id="path262"
   style="fill:#dfdfdf;fill-opacity:1" />
	</g>
</g><path
       d="m 13.824055,7 c 0.256278,0 0.501249,0.1017577 0.682151,0.2826598 0.37688,0.3768793 0.37688,0.9874235 0,1.3643031 l -1.24747,1.2474711 1.24747,1.247471 c 0.37688,0.376879 0.37688,0.987423 0,1.364302 -0.376879,0.37688 -0.987423,0.37688 -1.364302,0 l -1.247471,-1.24747 -1.247471,1.24747 c -0.37688,0.37688 -0.987424,0.37688 -1.364303,0 -0.3768787,-0.376879 -0.3768787,-0.987423 0,-1.364302 L 10.53013,9.894434 9.282659,8.6469629 C 8.9057804,8.2700833 8.9057804,7.6595391 9.282659,7.2826598 9.463561,7.1017577 9.708532,7 9.96481,7 c 0.256278,0 0.50125,0.1017577 0.682152,0.2826598 l 1.247471,1.2474711 1.247471,-1.2474711 C 13.322806,7.1017577 13.567777,7 13.824055,7 Z m 0,0"
       id="path4"
       style="fill:#dfdfdf;fill-opacity:1;stroke-width:0.964811" /></g></svg>
