<?xml version="1.0" encoding="UTF-8" standalone="no"?>
<svg
   width="16"
   height="16"
   viewBox="0 0 16 16"
   version="1.1"
   id="svg7"
   sodipodi:docname="link-old.svg"
   inkscape:version="1.2.1 (9c6d41e410, 2022-07-14)"
   xmlns:inkscape="http://www.inkscape.org/namespaces/inkscape"
   xmlns:sodipodi="http://sodipodi.sourceforge.net/DTD/sodipodi-0.dtd"
   xmlns="http://www.w3.org/2000/svg"
   xmlns:svg="http://www.w3.org/2000/svg">
  <sodipodi:namedview
     id="namedview9"
     pagecolor="#ffffff"
     bordercolor="#000000"
     borderopacity="0.25"
     inkscape:showpageshadow="2"
     inkscape:pageopacity="0.0"
     inkscape:pagecheckerboard="0"
     inkscape:deskcolor="#d1d1d1"
     showgrid="false"
     inkscape:zoom="11.634116"
     inkscape:cx="-14.526243"
     inkscape:cy="13.881587"
     inkscape:current-layer="svg7" />
  <defs
     id="defs3">
    <style
       id="current-color-scheme"
       type="text/css">
   .ColorScheme-Text { color:#444444; } .ColorScheme-Highlight { color:#4285f4; }
  </style>
  </defs>
  <path
     style="fill:#dfdfdf;fill-opacity:1"
     class="ColorScheme-Text"
     d="M 3 1 C 1.892 1 1 1.892 1 3 L 1 13 C 1 14.108 1.892 15 3 15 L 13 15 C 14.108 15.00002 15 14.108 15 13 L 15 9 L 13 8.9941406 L 13 13 L 3 13 L 3 3 L 7 3 L 7 1 L 3 1 z M 8 1 L 8 3 L 11.585938 3 L 7.0917969 7.4941406 L 6.3847656 8.2011719 L 6.390625 8.2070312 A 1 1 0 0 0 5.9902344 9 A 1 1 0 0 0 6.9902344 10 A 1 1 0 0 0 7.7832031 9.609375 L 7.7890625 9.6152344 L 8.4960938 8.9082031 L 12.990234 4.4140625 L 12.990234 8 L 14.990234 8.0058594 L 14.990234 1 L 8 1 z"
     id="path5" />
</svg>
