<?xml version="1.0" encoding="UTF-8" standalone="no"?>
<svg
   width="16"
   height="16"
   version="1.1"
   id="svg6"
   sodipodi:docname="mail-folder-inbox.svg"
   xml:space="preserve"
   inkscape:version="1.2.1 (9c6d41e410, 2022-07-14)"
   xmlns:inkscape="http://www.inkscape.org/namespaces/inkscape"
   xmlns:sodipodi="http://sodipodi.sourceforge.net/DTD/sodipodi-0.dtd"
   xmlns="http://www.w3.org/2000/svg"
   xmlns:svg="http://www.w3.org/2000/svg"><defs
     id="defs10" /><sodipodi:namedview
     id="namedview8"
     pagecolor="#ffffff"
     bordercolor="#000000"
     borderopacity="0.25"
     inkscape:showpageshadow="2"
     inkscape:pageopacity="0.0"
     inkscape:pagecheckerboard="0"
     inkscape:deskcolor="#d1d1d1"
     showgrid="false"
     inkscape:zoom="16.046875"
     inkscape:cx="-1.4333009"
     inkscape:cy="14.114898"
     inkscape:current-layer="svg6" /><g
     id="g853"><g
       id="g257"
       style="fill:#4285f4;fill-opacity:1"
       transform="matrix(0.5,0,0,0.5,0,0.2)">
	<path
   d="M 26.5,13 C 23.5,13 21,10.5 21,7.5 21,4.5 23.5,2 26.5,2 c 3,0 5.5,2.5 5.5,5.5 0,3 -2.5,5.5 -5.5,5.5 z"
   id="path255"
   style="fill:#4285f4;fill-opacity:1" />
</g><path
       d="M 9.5,3.95 C 9.5,3.3 9.65,2.7 9.95,2.2 H 3.5 C 2.35,2.2 1.4,2.95 1.1,4 L 8,8.6 10.75,6.75 C 10,6.05 9.5,5.05 9.5,3.95 Z"
       id="path259"
       style="fill:#dfdfdf;fill-opacity:1;stroke-width:0.5" /><path
       d="M 13.25,7.7 C 12.7,7.7 12.15,7.55 11.7,7.35 L 8.3,9.6 C 8.2,9.65 8.1,9.7 8,9.7 7.9,9.7 7.8,9.65 7.7,9.6 L 1,5.15 v 6.55 c 0,1.4 1.1,2.5 2.5,2.5 h 9 c 1.4,0 2.5,-1.1 2.5,-2.5 V 7.25 C 14.5,7.55 13.9,7.7 13.25,7.7 Z"
       id="path261"
       style="fill:#dfdfdf;fill-opacity:1;stroke-width:0.5" /></g></svg>
