<?xml version="1.0" encoding="UTF-8" standalone="no"?>
<svg
   width="16"
   height="16"
   version="1.1"
   id="svg4"
   sodipodi:docname="media-mount.svg"
   inkscape:version="1.2.1 (9c6d41e410, 2022-07-14)"
   xmlns:inkscape="http://www.inkscape.org/namespaces/inkscape"
   xmlns:sodipodi="http://sodipodi.sourceforge.net/DTD/sodipodi-0.dtd"
   xmlns="http://www.w3.org/2000/svg"
   xmlns:svg="http://www.w3.org/2000/svg">
  <defs
     id="defs8" />
  <sodipodi:namedview
     id="namedview6"
     pagecolor="#ffffff"
     bordercolor="#000000"
     borderopacity="0.25"
     inkscape:showpageshadow="2"
     inkscape:pageopacity="0.0"
     inkscape:pagecheckerboard="0"
     inkscape:deskcolor="#d1d1d1"
     showgrid="false"
     inkscape:zoom="22.693708"
     inkscape:cx="-13.616109"
     inkscape:cy="4.5166704"
     inkscape:current-layer="svg4" />
  <g
     id="g314"
     transform="translate(19.964943,1.4029009)"
     style="fill:#dfdfdf;fill-opacity:1">
    <path
       style="fill:#dfdfdf;fill-opacity:1"
       d="M -16.964946,5.098452"
       id="path309" />
    <path
       style="fill:#dfdfdf;fill-opacity:1"
       d="m -16.96494,12.599806 c -0.554688,0 -1,-0.445312 -1,-1 v -1 c 0,-0.554688 0.445312,-1.0000005 1,-1.0000005 h 10 c 0.554688,0 1,0.4453125 1,1.0000005 v 1 c 0,0.554688 -0.445312,1 -1,1 z"
       id="path307" />
    <path
       style="fill:#dfdfdf;fill-opacity:1"
       d="m -13.379014,7.0111615 -4,-4 c -0.371094,-0.378906 -0.578126,-0.8867184 -0.582032,-1.1484374 l -0.0039,-1.265625 c 0,-1 1,-1 1,-1 h 10 c 0,0 1,0 1,1 v 1 h -0.0039 c 0,0.53125 -0.207032,1.0390624 -0.582032,1.4140624 l -4,4 c -0.375006,0.375 -0.812506,0.617188 -1.414068,0.585938 -0.601562,-0.03125 -1.09375,-0.265625 -1.414062,-0.585938 z"
       id="path237" />
  </g>
</svg>
