<?xml version="1.0" encoding="UTF-8" standalone="no"?>
<svg
   height="16px"
   viewBox="0 0 16 16"
   width="16px"
   version="1.1"
   id="svg4"
   sodipodi:docname="media-repeat-track-amarok.svg"
   inkscape:version="1.2.1 (9c6d41e410, 2022-07-14)"
   xml:space="preserve"
   xmlns:inkscape="http://www.inkscape.org/namespaces/inkscape"
   xmlns:sodipodi="http://sodipodi.sourceforge.net/DTD/sodipodi-0.dtd"
   xmlns="http://www.w3.org/2000/svg"
   xmlns:svg="http://www.w3.org/2000/svg"><defs
     id="defs8"><style
       id="current-color-scheme"
       type="text/css">
   .ColorScheme-Text { color:#444444; } .ColorScheme-Highlight { color:#4285f4; }
  </style><style
       id="current-color-scheme-3"
       type="text/css">
   .ColorScheme-Text { color:#444444; } .ColorScheme-Highlight { color:#4285f4; }
  </style><style
       id="current-color-scheme-5"
       type="text/css">
   .ColorScheme-Text { color:#444444; } .ColorScheme-Highlight { color:#4285f4; }
  </style><style
       id="current-color-scheme-36"
       type="text/css">
   .ColorScheme-Text { color:#444444; } .ColorScheme-Highlight { color:#4285f4; }
  </style></defs><sodipodi:namedview
     id="namedview6"
     pagecolor="#ffffff"
     bordercolor="#000000"
     borderopacity="0.25"
     inkscape:showpageshadow="2"
     inkscape:pageopacity="0.0"
     inkscape:pagecheckerboard="0"
     inkscape:deskcolor="#d1d1d1"
     showgrid="false"
     inkscape:zoom="16.046875"
     inkscape:cx="-8.1635833"
     inkscape:cy="10.313535"
     inkscape:current-layer="svg4" /><g
     id="g794"><path
       id="path2"
       style="fill:#dfdfdf;fill-opacity:1"
       d="M 8,1 V 3 H 4 C 1.8007832,3 0,4.8007832 0,7 v 2 c 0,1.01953 0.38671988,1.964845 1.0195312,2.671875 0.3671877,0.410156 0.9999997,0.445313 1.4101563,0.07813 0.4140616,-0.367188 0.4492186,-1.000001 0.078125,-1.414062 C 2.1914068,9.9843749 2,9.5234375 2,9 V 7 C 2,5.8750011 2.8750011,5 4,5 h 4 v 2 h 1 v -0.00781 c 0.2656247,0.00391 0.5195314,-0.1015624 0.7070312,-0.2851563 l 1.9999998,-2 c 0.390625,-0.3906246 0.390625,-1.0234378 0,-1.4140624 l -1.9999998,-2 C 9.5195314,1.1093749 9.2656247,1.0039065 9,1.0078125 V 1 Z m 6.289062,3 C 14.023439,3.988281 13.765625,4.0781257 13.570312,4.2578125 13.156251,4.6250001 13.121094,5.2578122 13.492188,5.6679688 13.808593,6.0234374 14,6.484376 14,7.0078125 v 2 c 0,0.258984 -0.04769,0.5036546 -0.132812,0.7285156 h 2.0625 C 15.973874,9.4997017 16,9.2565224 16,9.0078125 v -2 C 16,5.9843765 15.61328,5.0390615 14.980469,4.3320312 14.804688,4.1328124 14.554688,4.015625 14.289062,4 Z M 7,9 v 0.00781 C 6.7343753,9.0039065 6.4804686,9.1093749 6.2929688,9.2929688 l -2,2.0000002 c -0.3906247,0.390624 -0.3906247,1.023438 0,1.414062 l 2,2 C 6.4804686,14.890625 6.7343753,14.996093 7,14.992188 V 15 h 1 v -1.992188 h 2.7 v -2 H 8 V 9 Z"
       sodipodi:nodetypes="ccssscccssscccccsscccccccssccssccccccscccccccccc" /><path
       style="fill:#dfdfdf;stroke-width:1.25;fill-opacity:1"
       d="m 12.5,11 v 5 h 1.25 v -5 z"
       id="path307" /></g></svg>
