<?xml version="1.0" encoding="UTF-8" standalone="no"?>
<svg
   width="16"
   height="16"
   viewBox="0 0 16 16"
   version="1.1"
   id="svg7"
   sodipodi:docname="mic-off.svg"
   xml:space="preserve"
   inkscape:version="1.2.1 (9c6d41e410, 2022-07-14)"
   xmlns:inkscape="http://www.inkscape.org/namespaces/inkscape"
   xmlns:sodipodi="http://sodipodi.sourceforge.net/DTD/sodipodi-0.dtd"
   xmlns="http://www.w3.org/2000/svg"
   xmlns:svg="http://www.w3.org/2000/svg"><sodipodi:namedview
     id="namedview9"
     pagecolor="#ffffff"
     bordercolor="#000000"
     borderopacity="0.25"
     inkscape:showpageshadow="2"
     inkscape:pageopacity="0.0"
     inkscape:pagecheckerboard="0"
     inkscape:deskcolor="#d1d1d1"
     showgrid="false"
     inkscape:zoom="11.346854"
     inkscape:cx="-24.676443"
     inkscape:cy="13.263588"
     inkscape:current-layer="svg7" /><defs
     id="defs3"><style
       id="current-color-scheme"
       type="text/css">
   .ColorScheme-Text { color:#444444; } .ColorScheme-Highlight { color:#4285f4; }
  </style></defs><path
     d="M 8,0 C 6.339844,0 5,1.3398439 5,2.9999999 V 8 c 0,1.660155 1.339844,3 3,3 1.660156,0 3,-1.339845 3,-3 V 2.9999999 C 11,1.3398439 9.660156,0 8,0 Z M 2,5.9999996 V 8.011719 c 0,2.964843 2.164062,5.429687 5,5.90625 V 16 h 2 v -2.082031 c 2.835938,-0.476563 5,-2.941407 5,-5.90625 V 5.9999997 H 12.5 V 8.011719 C 12.5,10.511719 10.507812,12.5 8,12.5 5.492188,12.5 3.5,10.511719 3.5,8.011719 V 5.9999997 Z m 0,0"
     fill="#2e3436"
     id="path2-3"
     style="fill:#f44336;fill-opacity:1" /></svg>
