<?xml version="1.0" encoding="UTF-8" standalone="no"?>
<svg
   width="16"
   height="16"
   viewBox="0 0 16 16"
   version="1.1"
   id="svg7"
   sodipodi:docname="quickopen-function.svg"
   xml:space="preserve"
   inkscape:version="1.2.1 (9c6d41e410, 2022-07-14)"
   xmlns:inkscape="http://www.inkscape.org/namespaces/inkscape"
   xmlns:sodipodi="http://sodipodi.sourceforge.net/DTD/sodipodi-0.dtd"
   xmlns="http://www.w3.org/2000/svg"
   xmlns:svg="http://www.w3.org/2000/svg"><sodipodi:namedview
     id="namedview9"
     pagecolor="#ffffff"
     bordercolor="#000000"
     borderopacity="0.25"
     inkscape:showpageshadow="2"
     inkscape:pageopacity="0.0"
     inkscape:pagecheckerboard="0"
     inkscape:deskcolor="#d1d1d1"
     showgrid="false"
     inkscape:zoom="32.09375"
     inkscape:cx="-3.9883155"
     inkscape:cy="6.7458617"
     inkscape:current-layer="svg7" /><defs
     id="defs3"><style
       id="current-color-scheme"
       type="text/css">
   .ColorScheme-Text { color:#444444; } .ColorScheme-Highlight { color:#4285f4; }
  </style><style
       id="current-color-scheme-5"
       type="text/css">
   .ColorScheme-Text { color:#444444; } .ColorScheme-Highlight { color:#4285f4; }
  </style></defs><path
     id="path5"
     style="fill:#dfdfdf;fill-opacity:1"
     class="ColorScheme-Text"
     d="M 6.234375 1 L 6.078125 2.84375 C 5.4885175 3.0603826 4.9403467 3.3747553 4.4570312 3.7734375 L 2.765625 2.984375 L 1 6.015625 L 2.5351562 7.0722656 C 2.4807424 7.3786001 2.4526468 7.6889582 2.4511719 8 C 2.4511334 8.3122363 2.477923 8.6239098 2.53125 8.9316406 L 1 9.984375 L 2.765625 13.015625 L 4.453125 12.228516 C 4.9380538 12.625498 5.4875493 12.937892 6.078125 13.152344 L 6.234375 15 L 9.765625 15 L 9.921875 13.15625 C 10.511482 12.939617 11.059653 12.625245 11.542969 12.226562 L 13.234375 13.015625 L 15 9.984375 L 13.464844 8.9277344 C 13.519258 8.6213999 13.547353 8.3110418 13.548828 8 C 13.548866 7.6877637 13.522077 7.3760902 13.46875 7.0683594 L 15 6.015625 L 13.234375 2.984375 L 11.546875 3.7714844 C 11.061946 3.3745015 10.51245 3.062108 9.921875 2.8476562 L 9.765625 1 L 6.234375 1 z M 8.9746094 4.5 C 9.1892751 4.5 9.3613281 4.6740053 9.3613281 4.8886719 C 9.3613281 4.9505046 9.3479296 5.0103891 9.3222656 5.0625 L 8.4902344 7.0566406 L 10.138672 8.0136719 C 10.244446 8.0751164 10.315688 8.1829576 10.330078 8.3046875 C 10.344078 8.426409 10.299987 8.5464655 10.210938 8.6308594 L 7.2949219 11.392578 C 7.2202556 11.462972 7.1237897 11.5 7.0273438 11.5 C 6.950733 11.5 6.8739246 11.477531 6.8066406 11.431641 C 6.6558189 11.327418 6.5968068 11.130493 6.6679688 10.960938 L 7.5097656 8.9433594 L 5.859375 7.9863281 C 5.7535919 7.9244944 5.6839219 7.8170284 5.6699219 7.6953125 C 5.6559219 7.5735895 5.7000086 7.4515794 5.7890625 7.3671875 L 8.7050781 4.6074219 L 8.7324219 4.5839844 C 8.796588 4.5330424 8.8777715 4.50156 8.9746094 4.5 z " /></svg>
