<?xml version="1.0" encoding="UTF-8" standalone="no"?>
<svg
   width="16"
   height="16"
   viewBox="0 0 16 16"
   version="1.1"
   id="svg7"
   sodipodi:docname="rating-unrated.svg"
   xml:space="preserve"
   inkscape:version="1.2.1 (9c6d41e410, 2022-07-14)"
   xmlns:inkscape="http://www.inkscape.org/namespaces/inkscape"
   xmlns:sodipodi="http://sodipodi.sourceforge.net/DTD/sodipodi-0.dtd"
   xmlns="http://www.w3.org/2000/svg"
   xmlns:svg="http://www.w3.org/2000/svg"><sodipodi:namedview
     id="namedview9"
     pagecolor="#ffffff"
     bordercolor="#000000"
     borderopacity="0.25"
     inkscape:showpageshadow="2"
     inkscape:pageopacity="0.0"
     inkscape:pagecheckerboard="0"
     inkscape:deskcolor="#d1d1d1"
     showgrid="false"
     inkscape:zoom="22.693708"
     inkscape:cx="-3.6133363"
     inkscape:cy="8.7469179"
     inkscape:current-layer="svg7" /><defs
     id="defs3"><style
       id="current-color-scheme"
       type="text/css">
   .ColorScheme-Text { color:#444444; } .ColorScheme-Highlight { color:#4285f4; }
  </style><style
       id="current-color-scheme-53"
       type="text/css">
   .ColorScheme-Text { color:#444444; } .ColorScheme-Highlight { color:#4285f4; }
  </style><style
       id="current-color-scheme-5"
       type="text/css">
   .ColorScheme-Text { color:#6e6e6e; } .ColorScheme-Highlight { color:#4285f4; }
  </style></defs><path
     style="opacity:0.3;fill:#dfdfdf;fill-opacity:1"
     class="ColorScheme-Text"
     d="M 8.0000029,-1.2172069e-6 C 7.2788179,0.01003478 6.7648669,0.43177057 6.5234949,1.1319402 l 0.0078,-0.031334 -1.132771,3.9132593 h -3.820173 c -0.0083,-1.301e-4 -0.01706,-1.301e-4 -0.02539,0 -0.45633,0.0144 -0.86826003,0.2203755 -1.15816103,0.5640123 -0.626968,0.7007156 -0.493432,1.8039654 0.302724,2.3265512 l 3.00379903,2.138547 -1.165973,3.985296 c -0.0013,0.0039 -0.0027,0.0078 -0.0039,0.01175 -0.178148,0.569792 -0.01062,1.157308 0.437484,1.558867 0.0032,0.003 0.0084,0.0049 0.01172,0.0078 0.538485,0.466081 1.294158,0.524829 1.902274,0.139045 0.01157,-0.0073 0.024,-0.01366 0.03515,-0.02155 l 3.081922,-2.167881 3.0819171,2.167923 c 0.01115,0.0079 0.0236,0.01426 0.03516,0.02155 0.608116,0.385784 1.363788,0.327036 1.902273,-0.139045 0.0033,-0.0029 0.0085,-0.0048 0.01172,-0.0078 0.448108,-0.401569 0.615632,-0.989075 0.437484,-1.558867 -0.0012,-0.0039 -0.0026,-0.0078 -0.0039,-0.01175 L 12.298681,10.043018 15.302477,7.904471 C 16.098632,7.3818853 16.232168,6.2786355 15.605201,5.5779199 15.3153,5.2342829 14.903368,5.0283091 14.44704,5.0139075 c -0.0083,-1.302e-4 -0.01709,-1.302e-4 -0.02539,0 h -3.820173 l -1.1327701,-3.9132593 0.0078,0.031334 C 9.2351399,0.43177057 8.7211889,0.01003487 8.0000029,-1.2172069e-6 Z"
     id="path5-3" /></svg>
