<?xml version="1.0" encoding="UTF-8" standalone="no"?>
<svg
   width="16"
   height="16"
   viewBox="0 0 16 16"
   version="1.1"
   id="svg7"
   sodipodi:docname="retweet.svg"
   xml:space="preserve"
   inkscape:version="1.2.1 (9c6d41e410, 2022-07-14)"
   xmlns:inkscape="http://www.inkscape.org/namespaces/inkscape"
   xmlns:sodipodi="http://sodipodi.sourceforge.net/DTD/sodipodi-0.dtd"
   xmlns="http://www.w3.org/2000/svg"
   xmlns:svg="http://www.w3.org/2000/svg"><sodipodi:namedview
     id="namedview9"
     pagecolor="#ffffff"
     bordercolor="#000000"
     borderopacity="0.25"
     inkscape:showpageshadow="2"
     inkscape:pageopacity="0.0"
     inkscape:pagecheckerboard="0"
     inkscape:deskcolor="#d1d1d1"
     showgrid="false"
     inkscape:zoom="8.0234374"
     inkscape:cx="-34.274587"
     inkscape:cy="13.024343"
     inkscape:current-layer="svg7" /><defs
     id="defs3"><style
       id="current-color-scheme"
       type="text/css">
   .ColorScheme-Text { color:#444444; } .ColorScheme-Highlight { color:#4285f4; }
  </style></defs><g
     style="color:#000000;fill:#dfdfdf;stroke:#000000;stroke-width:2;stroke-linecap:round;stroke-linejoin:round;fill-opacity:1"
     id="g255"
     transform="matrix(0.8,0,0,0.8,-1.6,-1.6)"><path
       style="fill:#dfdfdf;stroke:none;stroke-linecap:butt;stroke-linejoin:miter;-inkscape-stroke:none;fill-opacity:1"
       d="M 6,6 A 1,1 0 0 0 5,7 v 11 a 1.0001,1.0001 0 0 0 1,1 h 7 a 1,1 0 0 0 1,-1 1,1 0 0 0 -1,-1 H 7 V 7 A 1,1 0 0 0 6,6 Z"
       id="path237" /><path
       style="fill:#dfdfdf;stroke:none;stroke-linecap:butt;stroke-linejoin:miter;-inkscape-stroke:none;fill-opacity:1"
       d="M 5.2929687,5.2929687 2.2929688,8.2929688 a 1,1 0 0 0 0,1.4140625 1,1 0 0 0 1.4140625,0 L 6,7.4140625 8.2929688,9.7070313 a 1,1 0 0 0 1.4140625,0 1,1 0 0 0 0,-1.4140625 L 6.7070312,5.2929687 a 1.0001,1.0001 0 0 0 -1.4140625,0 z"
       id="path239" /><path
       style="fill:#dfdfdf;stroke:none;stroke-linecap:butt;stroke-linejoin:miter;-inkscape-stroke:none;fill-opacity:1"
       d="m 11,5 a 1,1 0 0 0 -1,1 1,1 0 0 0 1,1 h 6 v 10 a 1,1 0 0 0 1,1 1,1 0 0 0 1,-1 V 6 A 1.0001,1.0001 0 0 0 18,5 Z"
       id="path241" /><path
       style="fill:#dfdfdf;stroke:none;stroke-linecap:butt;stroke-linejoin:miter;-inkscape-stroke:none;fill-opacity:1"
       d="m 15,14 a 1,1 0 0 0 -0.707031,0.292969 1,1 0 0 0 0,1.414062 l 3,3 a 1.0001,1.0001 0 0 0 1.414062,0 l 3,-3 a 1,1 0 0 0 0,-1.414062 1,1 0 0 0 -1.414062,0 L 18,16.585937 15.707031,14.292969 A 1,1 0 0 0 15,14 Z"
       id="path243" /></g></svg>
