<?xml version="1.0" encoding="UTF-8" standalone="no"?>
<svg
   width="16"
   height="16"
   version="1.1"
   id="svg7"
   sodipodi:docname="view-hidden.svg"
   inkscape:version="1.2.1 (9c6d41e410, 2022-07-14)"
   xmlns:inkscape="http://www.inkscape.org/namespaces/inkscape"
   xmlns:sodipodi="http://sodipodi.sourceforge.net/DTD/sodipodi-0.dtd"
   xmlns="http://www.w3.org/2000/svg"
   xmlns:svg="http://www.w3.org/2000/svg">
  <sodipodi:namedview
     id="namedview9"
     pagecolor="#ffffff"
     bordercolor="#000000"
     borderopacity="0.25"
     inkscape:showpageshadow="2"
     inkscape:pageopacity="0.0"
     inkscape:pagecheckerboard="0"
     inkscape:deskcolor="#d1d1d1"
     showgrid="false"
     inkscape:zoom="11.346854"
     inkscape:cx="-10.399358"
     inkscape:cy="14.32115"
     inkscape:current-layer="svg7" />
  <defs
     id="defs3">
    <style
       id="current-color-scheme"
       type="text/css">
   .ColorScheme-Text { color:#444444; } .ColorScheme-Highlight { color:#4285f4; }
  </style>
  </defs>
  <g
     id="g239"
     style="fill:#eeeeee;fill-opacity:1">
    <path
       d="M 8,2 C 4.351562,2.003906 1.167969,4.476562 0.261719,8.007812 1.175781,11.535156 4.359375,13.996094 8,14 11.648438,13.996094 14.832031,11.523438 15.738281,7.988281 14.824219,4.464844 11.640625,2.003906 8,2 Z m 0,2 c 2.210938,0 4,1.789062 4,4 0,2.210938 -1.789062,4 -4,4 C 5.789062,12 4,10.210938 4,8 4,5.789062 5.789062,4 8,4 Z M 8,6 C 6.894531,6 6,6.894531 6,8 6,9.105469 6.894531,10 8,10 9.105469,10 10,9.105469 10,8 10,6.894531 9.105469,6 8,6 Z m 0,0"
       fill="#2e3436"
       id="path2"
       style="fill:#eeeeee;fill-opacity:1" />
  </g>
</svg>
