<?xml version="1.0" encoding="UTF-8" standalone="no"?>
<svg
   height="16px"
   viewBox="0 0 16 16"
   width="16px"
   version="1.1"
   id="svg8"
   sodipodi:docname="view-sort-ascending.svg"
   inkscape:version="1.2.1 (9c6d41e410, 2022-07-14)"
   xmlns:inkscape="http://www.inkscape.org/namespaces/inkscape"
   xmlns:sodipodi="http://sodipodi.sourceforge.net/DTD/sodipodi-0.dtd"
   xmlns="http://www.w3.org/2000/svg"
   xmlns:svg="http://www.w3.org/2000/svg">
  <defs
     id="defs12" />
  <sodipodi:namedview
     id="namedview10"
     pagecolor="#ffffff"
     bordercolor="#000000"
     borderopacity="0.25"
     inkscape:showpageshadow="2"
     inkscape:pageopacity="0.0"
     inkscape:pagecheckerboard="0"
     inkscape:deskcolor="#d1d1d1"
     showgrid="false"
     inkscape:zoom="22.693708"
     inkscape:cx="-11.236595"
     inkscape:cy="9.3197638"
     inkscape:current-layer="svg8" />
  <path
     d="M 6.5,2 C 6.222656,2 6,2.222656 6,2.5 v 1 C 6,3.777344 6.222656,4 6.5,4 h 5 C 11.777344,4 12,3.777344 12,3.5 v -1 C 12,2.222656 11.777344,2 11.5,2 Z m 0,3 C 6.222656,5 6,5.222656 6,5.5 v 1 C 6,6.777344 6.222656,7 6.5,7 h 7 C 13.777344,7 14,6.777344 14,6.5 v -1 C 14,5.222656 13.777344,5 13.5,5 Z m 0,3 C 6.222656,8 6,8.222656 6,8.5 v 1 C 6,9.777344 6.222656,10 6.5,10 h 9 C 15.777344,10 16,9.777344 16,9.5 v -1 C 16,8.222656 15.777344,8 15.5,8 Z m 0,0"
     id="path2"
     style="fill:#dfdfdf;fill-opacity:1" />
  <path
     d="m 3,1e-7 c -0.550781,0 -1,0.449219 -1,1 V 12 H 0 v 1 h 0.0078125 c -0.00390625,0.265625 0.1015625,0.519531 0.2851565,0.707031 l 2,2 c 0.390625,0.390625 1.023437,0.390625 1.414062,0 l 2,-2 C 5.890625,13.519531 5.996094,13.265625 5.996094,13 H 6 V 12 H 4 V 1.0000001 c 0,-0.550781 -0.449219,-1 -1,-1 z m 0,0"
     id="path4"
     style="fill:#dfdfdf;fill-opacity:1" />
</svg>
