/* XPM */
static char * desktop_xpm[] = {
"32 32 529 2",
"  	c None",
". 	c #DDDDDD",
"+ 	c #EBEBEB",
"@ 	c #EAEAEA",
"# 	c #ECECEC",
"$ 	c #EDEDED",
"% 	c #DEDEDE",
"& 	c #D8D8D8",
"* 	c #E3E3E3",
"= 	c #E6E6E6",
"- 	c #E7E7E7",
"; 	c #F0F0F0",
"> 	c #F1F1F1",
", 	c #F2F2F2",
"' 	c #EEEEEE",
") 	c #D9D9D9",
"! 	c #E2E2E2",
"~ 	c #D0D0D0",
"{ 	c #9FA39F",
"] 	c #959A95",
"^ 	c #949994",
"/ 	c #959994",
"( 	c #939893",
"_ 	c #949993",
": 	c #A0A4A0",
"< 	c #DBDBDB",
"[ 	c #E9E9E9",
"} 	c #A1A4A0",
"| 	c #6B846A",
"1 	c #769174",
"2 	c #97AC96",
"3 	c #6D8A6B",
"4 	c #708C6E",
"5 	c #708D6E",
"6 	c #718E6F",
"7 	c #6E8C6C",
"8 	c #6F8C6D",
"9 	c #A2A99A",
"0 	c #939D8A",
"a 	c #939D8B",
"b 	c #949D8B",
"c 	c #84917E",
"d 	c #A2A5A1",
"e 	c #E0E0E0",
"f 	c #9B9F9A",
"g 	c #85A283",
"h 	c #A5BAA4",
"i 	c #809D7D",
"j 	c #98B097",
"k 	c #97AF96",
"l 	c #91AA8F",
"m 	c #92AB90",
"n 	c #8DA78B",
"o 	c #7A9978",
"p 	c #B2BAAA",
"q 	c #ABB0A0",
"r 	c #999E99",
"s 	c #DFDFDF",
"t 	c #939D93",
"u 	c #336D33",
"v 	c #3C7B3C",
"w 	c #3B7A3B",
"x 	c #3B7A3C",
"y 	c #558953",
"z 	c #849F7C",
"A 	c #7D9A76",
"B 	c #7E9A76",
"C 	c #64865D",
"D 	c #8C978C",
"E 	c #C5C5C5",
"F 	c #BEBEBE",
"G 	c #BBBBBB",
"H 	c #313131",
"I 	c #E4E4E4",
"J 	c #949E94",
"K 	c #246625",
"L 	c #2B722C",
"M 	c #276E2A",
"N 	c #28702B",
"O 	c #2B732D",
"P 	c #377A38",
"Q 	c #73986D",
"R 	c #6E9368",
"S 	c #6F9368",
"T 	c #6F9468",
"U 	c #6E9367",
"V 	c #71936B",
"W 	c #849A81",
"X 	c #B7B8B7",
"Y 	c #CBCBCB",
"Z 	c #A8A8A8",
"` 	c #DADADA",
" .	c #96A096",
"..	c #38722F",
"+.	c #9B9559",
"@.	c #848D53",
"#.	c #347030",
"$.	c #2B732C",
"%.	c #2C742E",
"&.	c #2C752F",
"*.	c #2D772F",
"=.	c #2D7830",
"-.	c #2E7830",
";.	c #719E70",
">.	c #6A9464",
",.	c #6B9466",
"'.	c #6B9364",
").	c #6A9264",
"!.	c #65905E",
"~.	c #80997C",
"{.	c #AFB5AE",
"].	c #AFAEAF",
"^.	c #C4C4C4",
"/.	c #A5A5A5",
"(.	c #5E5E5E",
"_.	c #323232",
":.	c #E1E1E1",
"<.	c #98A298",
"[.	c #246725",
"}.	c #497237",
"|.	c #D8B374",
"1.	c #DAB274",
"2.	c #497438",
"3.	c #2F7B32",
"4.	c #2F7D33",
"5.	c #307F35",
"6.	c #318136",
"7.	c #318137",
"8.	c #318238",
"9.	c #308237",
"0.	c #519355",
"a.	c #729E70",
"b.	c #699967",
"c.	c #689867",
"d.	c #669564",
"e.	c #739670",
"f.	c #A0A89F",
"g.	c #BFBDBE",
"h.	c #B9B9B9",
"i.	c #767676",
"j.	c #5F5F5F",
"k.	c #B4B4B4",
"l.	c #D6D6D6",
"m.	c #9AA49A",
"n.	c #436A2D",
"o.	c #C0934B",
"p.	c #C0924B",
"q.	c #457332",
"r.	c #328438",
"s.	c #33853A",
"t.	c #33883C",
"u.	c #348A3D",
"v.	c #358B3E",
"w.	c #358C3E",
"x.	c #31893A",
"y.	c #79AC7B",
"z.	c #679F69",
"A.	c #649C65",
"B.	c #99AE99",
"C.	c #A9ABA9",
"D.	c #CECECE",
"E.	c #898889",
"F.	c #464846",
"G.	c #7D817D",
"H.	c #D4D4D4",
"I.	c #9DA79D",
"J.	c #256826",
"K.	c #29732E",
"L.	c #1C6929",
"M.	c #1F6E2D",
"N.	c #2F8137",
"O.	c #368F40",
"P.	c #379242",
"Q.	c #389443",
"R.	c #389545",
"S.	c #389645",
"T.	c #369443",
"U.	c #5AA462",
"V.	c #66A56B",
"W.	c #79957A",
"X.	c #AEADAE",
"Y.	c #CCCCCC",
"Z.	c #989798",
"`.	c #5F615F",
" +	c #3D4F3D",
".+	c #437241",
"++	c #97A197",
"@+	c #D2D2D2",
"#+	c #9FAA9F",
"$+	c #27702B",
"%+	c #3F7B44",
"&+	c #7E8D80",
"*+	c #7F8D80",
"=+	c #42844A",
"-+	c #399645",
";+	c #3A9847",
">+	c #3A9B49",
",+	c #3B9D4A",
"'+	c #3C9F4B",
")+	c #3CA04C",
"!+	c #3DA24D",
"~+	c #3D954B",
"{+	c #223124",
"]+	c #605E60",
"^+	c #6B696B",
"/+	c #415242",
"(+	c #508253",
"_+	c #578F59",
":+	c #477E48",
"<+	c #9EA99E",
"[+	c #DCDCDC",
"}+	c #A3AEA4",
"|+	c #2A7730",
"1+	c #4C8550",
"2+	c #D1CFD1",
"3+	c #C0BEC0",
"4+	c #4C8E55",
"5+	c #3DA14D",
"6+	c #3FA44F",
"7+	c #3FA550",
"8+	c #41A650",
"9+	c #42A852",
"0+	c #41A24F",
"a+	c #326B3B",
"b+	c #251F24",
"c+	c #161516",
"d+	c #0D100E",
"e+	c #424D44",
"f+	c #3E6A43",
"g+	c #589A5F",
"h+	c #58985D",
"i+	c #5A995E",
"j+	c #458048",
"k+	c #9AA59B",
"l+	c #CFCFCF",
"m+	c #A5B1A6",
"n+	c #2C7D35",
"o+	c #46834C",
"p+	c #AFACAF",
"q+	c #A7A4A7",
"r+	c #458B51",
"s+	c #40A650",
"t+	c #42A751",
"u+	c #45A952",
"v+	c #46AA53",
"w+	c #49B155",
"x+	c #3E8246",
"y+	c #404C41",
"z+	c #383738",
"A+	c #141114",
"B+	c #2B432E",
"C+	c #4B8953",
"D+	c #58A362",
"E+	c #5AA966",
"F+	c #52965A",
"G+	c #4F8F56",
"H+	c #4F8D54",
"I+	c #3F7B43",
"J+	c #CDCDCD",
"K+	c #D7D7D7",
"L+	c #A7B4A9",
"M+	c #2E8137",
"N+	c #369042",
"O+	c #2D8A3B",
"P+	c #2F8F3F",
"Q+	c #3E9F4C",
"R+	c #45AA52",
"S+	c #48AC54",
"T+	c #4BB056",
"U+	c #49A352",
"V+	c #3F6442",
"W+	c #393538",
"X+	c #333433",
"Y+	c #2B3A2C",
"Z+	c #37783D",
"`+	c #47A250",
" @	c #6AB471",
".@	c #59A762",
"+@	c #4A8D53",
"@@	c #4A8F54",
"#@	c #4B9054",
"$@	c #4B9053",
"%@	c #3E7E43",
"&@	c #9CA79D",
"*@	c #D5D5D5",
"=@	c #C9C9C9",
"-@	c #ABB7AC",
";@	c #30863B",
">@	c #3EA44F",
",@	c #43A851",
"'@	c #47AB53",
")@	c #4BAF55",
"!@	c #50B959",
"~@	c #3F7343",
"{@	c #3D433D",
"]@	c #2D292C",
"^@	c #202D21",
"/@	c #408043",
"(@	c #46964A",
"_@	c #418D46",
":@	c #3B8741",
"<@	c #4E8D53",
"[@	c #4B8C51",
"}@	c #4B8E52",
"|@	c #4B9154",
"1@	c #499155",
"2@	c #4B9555",
"3@	c #3F8747",
"4@	c #D3D3D3",
"5@	c #C8C8C8",
"6@	c #ADBAAF",
"7@	c #328B3E",
"8@	c #3DA34E",
"9@	c #41A751",
"0@	c #4BB156",
"a@	c #4DA154",
"b@	c #435344",
"c@	c #3D393D",
"d@	c #202620",
"e@	c #254A26",
"f@	c #3E7F3F",
"g@	c #3B773C",
"h@	c #3C7A3D",
"i@	c #3F8643",
"j@	c #46904A",
"k@	c #549B58",
"l@	c #55A35D",
"m@	c #52A35C",
"n@	c #54AB5F",
"o@	c #52AC60",
"p@	c #41914C",
"q@	c #ACB9AE",
"r@	c #D1D1D1",
"s@	c #B0BDB2",
"t@	c #338F41",
"u@	c #45AA53",
"v@	c #4AAF55",
"w@	c #57895A",
"x@	c #474B48",
"y@	c #272827",
"z@	c #1F3A1F",
"A@	c #316332",
"B@	c #386E37",
"C@	c #3A7139",
"D@	c #418040",
"E@	c #4E994D",
"F@	c #58AE58",
"G@	c #59B65B",
"H@	c #5AB85D",
"I@	c #65BE6B",
"J@	c #5FB865",
"K@	c #5AB463",
"L@	c #55B060",
"M@	c #51AC5E",
"N@	c #3F954C",
"O@	c #AFBDB1",
"P@	c #C3C3C3",
"Q@	c #B2C0B4",
"R@	c #349243",
"S@	c #43A852",
"T@	c #48AB54",
"U@	c #49714C",
"V@	c #3A3A39",
"W@	c #203721",
"X@	c #306431",
"Y@	c #3D783D",
"Z@	c #498B47",
"`@	c #59A758",
" #	c #68BF67",
".#	c #70CC6F",
"+#	c #6CC96A",
"@#	c #67C564",
"##	c #62C261",
"$#	c #5DBD5F",
"%#	c #65BE67",
"&#	c #5DB963",
"*#	c #59B461",
"=#	c #53B05E",
"-#	c #4FAD5C",
";#	c #3D964B",
">#	c #B1BFB3",
",#	c #C7C7C7",
"'#	c #C1C1C1",
")#	c #B5C3B7",
"!#	c #359344",
"~#	c #4BAD54",
"{#	c #458C4A",
"]#	c #4A9C4E",
"^#	c #55AD57",
"/#	c #5EB95D",
"(#	c #66C464",
"_#	c #6FCA6E",
":#	c #74CB75",
"<#	c #78CD79",
"[#	c #78CC79",
"}#	c #74CA75",
"|#	c #6EC86D",
"1#	c #62C061",
"2#	c #5EBD60",
"3#	c #5EBB63",
"4#	c #57B65E",
"5#	c #51B15C",
"6#	c #4CAC59",
"7#	c #3A9649",
"8#	c #B4C2B6",
"9#	c #BFBFBF",
"0#	c #B7C5B9",
"a#	c #349444",
"b#	c #44AA52",
"c#	c #51B558",
"d#	c #57B95B",
"e#	c #5DBE5E",
"f#	c #63C361",
"g#	c #6BC76A",
"h#	c #73CB75",
"i#	c #7BCE7E",
"j#	c #80D185",
"k#	c #73CA74",
"l#	c #6AC769",
"m#	c #5DBD5E",
"n#	c #5BBA5E",
"o#	c #54B55A",
"p#	c #4DB057",
"q#	c #369446",
"r#	c #B7C6B9",
"s#	c #CACACA",
"t#	c #BDBDBD",
"u#	c #C1CAC3",
"v#	c #6CA373",
"w#	c #7EB984",
"x#	c #80BB84",
"y#	c #85BF87",
"z#	c #89C289",
"A#	c #8FC68D",
"B#	c #92C98D",
"C#	c #97CC95",
"D#	c #9ECF9C",
"E#	c #A5D2A6",
"F#	c #AAD4AC",
"G#	c #A9D4AC",
"H#	c #A3D2A4",
"I#	c #9FCF9E",
"J#	c #98CD96",
"K#	c #93CA8F",
"L#	c #8BC38B",
"M#	c #86BF88",
"N#	c #82BC86",
"O#	c #7EB985",
"P#	c #6CA374",
"Q#	c #C6CEC8",
"R#	c #78A57E",
"S#	c #90BE95",
"T#	c #A7CDA9",
"U#	c #AACFAB",
"V#	c #ADD1AC",
"W#	c #9DC99B",
"X#	c #B3D6AF",
"Y#	c #B7D8B4",
"Z#	c #BAD9B8",
"`#	c #AFD3AE",
" $	c #C2DDC2",
".$	c #BFDBBE",
"+$	c #A6CFA4",
"@$	c #A3CD9F",
"#$	c #9ECB99",
"$$	c #9AC898",
"%$	c #97C496",
"&$	c #93C194",
"*$	c #8FBE92",
"=$	c #8CBC91",
"-$	c #79A57F",
";$	c #C7CEC8",
">$	c #BABABA",
",$	c #D1D4D2",
"'$	c #77987C",
")$	c #628A67",
"!$	c #688F6A",
"~$	c #6B916B",
"{$	c #6C926C",
"]$	c #6F946D",
"^$	c #73976F",
"/$	c #759A73",
"($	c #799B76",
"_$	c #7B9C7A",
":$	c #7F9E7E",
"<$	c #7C9C7B",
"[$	c #789A75",
"}$	c #749972",
"|$	c #72966E",
"1$	c #6E946C",
"2$	c #6B926B",
"3$	c #69906A",
"4$	c #668E69",
"5$	c #628A66",
"6$	c #76987C",
"7$	c #C2C2C2",
"8$	c #C0C0C0",
"9$	c #DFDDDF",
"0$	c #E3E0E3",
"a$	c #E3E0E2",
"b$	c #E2E0E2",
"c$	c #E2DFE2",
"d$	c #E1DFE2",
"e$	c #E1DFE1",
"f$	c #939393",
"g$	c #BCBCBC",
"h$	c #B7B7B7",
"i$	c #B6B6B6",
"j$	c #525252",
"k$	c #949494",
"l$	c #B1B1B1",
"m$	c #B2B2B2",
"n$	c #B3B3B3",
"o$	c #B5B5B5",
"p$	c #B8B8B8",
"q$	c #202020",
"r$	c #4E4E4E",
"s$	c #5A5A5A",
"t$	c #616161",
"u$	c #626262",
"v$	c #636363",
"w$	c #656565",
"x$	c #666666",
"y$	c #676767",
"z$	c #696969",
"A$	c #6B6B6B",
"B$	c #6C6C6C",
"C$	c #6D6D6D",
"D$	c #000000",
"                                                                ",
"                                                                ",
"      . + @ @ @ @ @ @ @ @ @ @ # # # # # # # # # # # # $ %       ",
"    & * * = = = = = = = = = - ; > > > > > > > > > > , ' $ )     ",
"    + ! ~ { ] ^ ] ] ] ] ] ] ] / ( _ _ _ _ _ _ _ _ ( : < $ $     ",
"    [ ! } | 1 2 3 4 5 6 6 4 7 8 9 0 a a a a a a a b c d ' +     ",
"    - e f 4 g h i j k l l m n o p q q q q q q q q q b r + =     ",
"    = s t u v w v w w x x x x x y z A A A A A A A B C D E F G H ",
"    I . J K L M N L L L L L L O P Q R S S S S T U V W X . Y Z   ",
"    ! `  .K ..+.@.#.$.%.&.*.=.-.*.;.>.,.'.).).!.~.{.].^./.(._.  ",
"    :.& <.[.}.|.1.2.3.4.5.6.7.8.9.0.a.b.c.d.e.f.g.h.h.i.j.k.    ",
"    s l.m.K n.o.p.q.r.s.t.u.v.w.w.x.y.z.A.B.C.D.k.E.F.G.H.:.    ",
"    % H.I.J.K.L.M.N.w.O.P.Q.R.S.S.T.U.V.W.X.Y.Z.`. +.+++< s     ",
"    < @+#+$+%+&+*+=+-+;+>+,+'+)+)+!+~+{+]+/.^+/+(+_+:+<+[+[+    ",
"    ` ~ }+|+1+2+3+4+'+5+6+7+8+9+0+a+b+c+d+e+f+g+h+i+j+k+l+)     ",
"    ) D.m+n+o+p+q+r+s+t+u+v+w+x+y+z+A+B+C+D+E+F+G+H+I+k+J+K+    ",
"    l.Y L+M+N+O+P+Q+R+S+T+U+V+W+X+Y+Z+`+ @.@+@@@#@$@%@&@Y l.    ",
"    *@=@-@;@,+>@,@'@)@!@~@{@]@^@/@(@_@:@<@[@}@|@1@2@3@L+l+l.    ",
"    4@5@6@7@8@9@'@0@a@b@c@d@e@f@g@h@f@i@j@k@l@m@n@o@p@q@D.H.    ",
"    r@E s@t@s+u@v@w@x@y@z@A@B@C@D@E@F@G@H@I@J@K@L@M@N@O@Y @+    ",
"    l+P@Q@R@S@T@U@V@W@X@Y@Z@`@ #.#+#@###$#%#&#*#=#-#;#>#,#~     ",
"    D.'#)#!#R+~#{#]#^#/#(#_#:#<#[#}#|#@#1#2#3#4#5#6#7#8#E D.    ",
"    Y.9#0#a#b#)@c#d#e#f#g#h#i#j#j#i#k#l#f#m#n#o#p#S+q#r#'#J+    ",
"    s#t#u#v#w#x#y#z#A#B#C#D#E#F#G#H#I#J#K#A#L#M#N#O#P#u#F s#    ",
"    5@G Q#R#S#T#U#V#W#X#Y#Z#`# $ $.$+$@$#$$$%$&$*$=$-$;$G 5@    ",
"    ,#>$,$'$)$!$~${$]$^$/$($_$:$:$<$[$}$|$1$2$3$4$5$6$,$>$,#    ",
"    7$>$8$9$0$a$b$b$b$b$c$d$e$e$e$e$d$c$b$b$b$b$a$0$9$8$>$7$    ",
"    f$g$h$i$i$i$i$i$i$i$i$i$i$i$i$i$i$i$i$i$i$i$i$i$i$h$g$f$    ",
"    j$k$l$m$m$n$k.k.o$i$i$p$p$h.h.p$p$i$i$o$k.k.n$m$m$l$k$j$    ",
"    q$r$s$t$u$v$w$x$y$z$z$A$B$C$C$B$A$z$z$y$x$w$v$u$t$s$r$q$    ",
"        D$D$D$D$D$D$D$D$D$D$D$D$D$D$D$D$D$D$D$D$D$D$D$D$        ",
"                                                                "};
