/* XPM */
static char * bottom_left_inactive_xpm[] = {
"26 26 4 1",
"       c None",
".      c #FFFFFF s inactive_hilight_1",
"+      c #919189 s inactive_shadow_1",
"@      c #CCCCC7 s inactive_color_1",
".++++                     ",
"....+                     ",
"..@@+                     ",
"..@@+                     ",
"..@@+                     ",
"..@@+                     ",
"..@@+                     ",
"..@@+                     ",
"..@@+                     ",
"..@@+                     ",
"..@@+                     ",
"..@@+                     ",
"..@@+                     ",
"..@@+                     ",
"..@@+                     ",
"..@@+                     ",
"..@@+                     ",
"..@@+                     ",
"..@@+                     ",
"..@@+                     ",
"..@@+                     ",
"..@@....................+.",
"..@@@@@@@@@@@@@@@@@@@@@@+.",
"..@@@@@@@@@@@@@@@@@@@@@@+.",
"..+++++++++++++++++++++++.",
".+++++++++++++++++++++++++"};
