/* XPM */
static char * right_inactive_xpm[] = {
"5 5 4 1",
" 	c None",
".	c #FFFFFF s inactive_hilight_1",
"+	c #CCCCC7 s inactive_color_1",
"@	c #919189 s inactive_shadow_1",
".++@@",
".++@@",
".++@@",
".++@@",
".++@@"};
