<?xml version="1.0" encoding="UTF-8" standalone="no"?>
<svg
   width="16"
   height="16"
   version="1.1"
   id="svg4"
   sodipodi:docname="drive-removable-media-symbolic.svg"
   xml:space="preserve"
   inkscape:version="1.2.1 (9c6d41e410, 2022-07-14)"
   xmlns:inkscape="http://www.inkscape.org/namespaces/inkscape"
   xmlns:sodipodi="http://sodipodi.sourceforge.net/DTD/sodipodi-0.dtd"
   xmlns="http://www.w3.org/2000/svg"
   xmlns:svg="http://www.w3.org/2000/svg"><defs
     id="defs8" /><sodipodi:namedview
     id="namedview6"
     pagecolor="#ffffff"
     bordercolor="#000000"
     borderopacity="0.25"
     inkscape:showpageshadow="2"
     inkscape:pageopacity="0.0"
     inkscape:pagecheckerboard="0"
     inkscape:deskcolor="#d1d1d1"
     showgrid="false"
     inkscape:zoom="32.09375"
     inkscape:cx="-4.0506329"
     inkscape:cy="4.097371"
     inkscape:current-layer="svg4" /><path
     id="path2"
     style="fill:#444444"
     d="M 3 1 C 3 1 1 1.000002 1 3 L 1 13 C 1 13 1.000002 15 3 15 L 13 15 C 14.999998 15 15 13 15 13 L 15 3 C 15 1.000002 13 1 13 1 L 3 1 z M 8 4.3105469 C 8.3238497 4.2937236 8.559835 4.4250722 8.7617188 4.6269531 L 10.914062 6.7792969 C 11.115943 6.9811778 11.228516 7.2550178 11.228516 7.5410156 L 11.230469 7.5410156 L 11.230469 8.0800781 C 11.230469 8.618427 10.691406 8.6171875 10.691406 8.6171875 L 5.3085938 8.6171875 C 5.3085938 8.6171875 4.7695312 8.618427 4.7695312 8.0800781 L 4.7714844 7.3984375 C 4.7735864 7.2575413 4.8861597 6.9832806 5.0859375 6.7792969 L 7.2382812 4.6269531 C 7.4107211 4.4545129 7.6761493 4.3273699 8 4.3105469 z M 5.3085938 9.6953125 L 10.691406 9.6953125 C 10.990022 9.6953125 11.230469 9.9338058 11.230469 10.232422 L 11.230469 10.771484 C 11.230469 11.0701 10.990022 11.310547 10.691406 11.310547 L 5.3085938 11.310547 C 5.009977 11.310547 4.7695312 11.0701 4.7695312 10.771484 L 4.7695312 10.232422 C 4.7695313 9.9338058 5.009977 9.6953125 5.3085938 9.6953125 z " /></svg>
