<?xml version="1.0" encoding="UTF-8" standalone="no"?>
<svg
   width="16"
   height="16"
   version="1.1"
   id="svg7"
   sodipodi:docname="network-wireless.svg"
   xml:space="preserve"
   inkscape:version="1.2.1 (9c6d41e410, 2022-07-14)"
   xmlns:inkscape="http://www.inkscape.org/namespaces/inkscape"
   xmlns:sodipodi="http://sodipodi.sourceforge.net/DTD/sodipodi-0.dtd"
   xmlns="http://www.w3.org/2000/svg"
   xmlns:svg="http://www.w3.org/2000/svg"><sodipodi:namedview
     id="namedview9"
     pagecolor="#ffffff"
     bordercolor="#000000"
     borderopacity="0.25"
     inkscape:showpageshadow="2"
     inkscape:pageopacity="0.0"
     inkscape:pagecheckerboard="0"
     inkscape:deskcolor="#d1d1d1"
     showgrid="false"
     inkscape:zoom="8.2265625"
     inkscape:cx="-50.567901"
     inkscape:cy="19.266857"
     inkscape:current-layer="svg7" /><defs
     id="defs3"><style
       id="current-color-scheme"
       type="text/css">
   .ColorScheme-Text { color:#444444; } .ColorScheme-Highlight { color:#4285f4; }
  </style></defs><path
     d="m 8,1.9960945 c -2.617188,0 -5.238281,0.933593 -7.19531204,2.808593 l -0.496094,0.480469 c -0.3984378,0.378906 -0.410156,1.011719 -0.03125,1.410156 0.382812,0.398438 1.01562504,0.410156 1.41406204,0.03125 l 0.5,-0.476562 c 3.085938,-2.957032 8.53125,-2.957032 11.617188,0 l 0.5,0.476562 c 0.398437,0.378906 1.03125,0.367188 1.414062,-0.03125 0.378906,-0.398437 0.367188,-1.03125 -0.03125,-1.410156 L 15.195312,4.8007815 C 13.238281,2.9296875 10.617188,1.9960945 8,1.9960945 Z m -0.03125,4.007812 c -1.570312,0.011719 -3.128906,0.628906 -4.207031,1.8125 l -0.5,0.550781 C 3.082031,8.5625005 2.984375,8.8203125 3,9.0859375 3.011719,9.3515625 3.128906,9.6015625 3.328125,9.7812505 3.523438,9.960937 3.78125,10.054687 4.046875,10.039062 4.3125,10.027342 4.5625,9.910156 4.742188,9.7109375 l 0.496093,-0.546875 c 1.277344,-1.402344 4.160157,-1.496094 5.523438,0.00391 l 0.5,0.542969 c 0.175781,0.1992145 0.425781,0.3164025 0.691406,0.3281205 0.265625,0.01563 0.523437,-0.07813 0.722656,-0.2578115 0.195313,-0.179688 0.3125,-0.429688 0.324219,-0.695313 0.01172,-0.261719 -0.08203,-0.523437 -0.261719,-0.71875 l -0.5,-0.546875 C 11.117188,6.5859375 9.535156,5.9921875 7.96875,6.0039065 Z M 8,10.003906 c -0.511719,0 -1.023438,0.195312 -1.414062,0.585938 -0.78125,0.78125 -0.78125,2.046874 0,2.828124 0.78125,0.78125 2.046874,0.78125 2.828124,0 0.78125,-0.78125 0.78125,-2.046874 0,-2.828124 C 9.023438,10.199218 8.511719,10.003906 8,10.003906 Z m 0,0"
     fill="#2e3436"
     id="path2"
     style="fill:#444444;fill-opacity:1" /></svg>
