<?xml version="1.0" encoding="UTF-8" standalone="no"?>
<svg
   width="16"
   height="16"
   version="1.1"
   id="svg4"
   sodipodi:docname="smartphone-symbolic.svg"
   xml:space="preserve"
   inkscape:version="1.2.1 (9c6d41e410, 2022-07-14)"
   xmlns:inkscape="http://www.inkscape.org/namespaces/inkscape"
   xmlns:sodipodi="http://sodipodi.sourceforge.net/DTD/sodipodi-0.dtd"
   xmlns="http://www.w3.org/2000/svg"
   xmlns:svg="http://www.w3.org/2000/svg"><defs
     id="defs8" /><sodipodi:namedview
     id="namedview6"
     pagecolor="#ffffff"
     bordercolor="#000000"
     borderopacity="0.25"
     inkscape:showpageshadow="2"
     inkscape:pageopacity="0.0"
     inkscape:pagecheckerboard="0"
     inkscape:deskcolor="#d1d1d1"
     showgrid="false"
     inkscape:zoom="11.634116"
     inkscape:cx="-7.735869"
     inkscape:cy="18.007384"
     inkscape:current-layer="svg4" /><g
     id="g191"
     transform="matrix(0.4375,0,0,0.4375,1,1)"
     style="fill:#444444;fill-opacity:1"><g
       id="g136"
       style="fill:#444444;fill-opacity:1">
	<g
   id="iphone"
   style="fill:#444444;fill-opacity:1">
		<path
   style="fill:#444444;fill-opacity:1"
   d="M 20,0 H 12 C 7.582,0 4,3.582 4,8 v 16 c 0,4.418 3.582,8 8,8 h 8 c 4.418,0 8,-3.582 8,-8 V 8 C 28,3.582 24.418,0 20,0 Z m -4,30.062 c -1.139,0 -2.062,-0.922 -2.062,-2.062 0,-1.14 0.924,-2.062 2.062,-2.062 1.138,0 2.062,0.922 2.062,2.062 0,1.14 -0.923,2.062 -2.062,2.062 z M 24,24 H 8 V 8 C 8,5.797 9.795,4 12,4 h 8 c 2.203,0 4,1.797 4,4 z"
   id="path133" />
	</g>
</g><g
       id="g138"
       style="fill:#444444;fill-opacity:1">
</g><g
       id="g140"
       style="fill:#444444;fill-opacity:1">
</g><g
       id="g142"
       style="fill:#444444;fill-opacity:1">
</g><g
       id="g144"
       style="fill:#444444;fill-opacity:1">
</g><g
       id="g146"
       style="fill:#444444;fill-opacity:1">
</g><g
       id="g148"
       style="fill:#444444;fill-opacity:1">
</g><g
       id="g150"
       style="fill:#444444;fill-opacity:1">
</g><g
       id="g152"
       style="fill:#444444;fill-opacity:1">
</g><g
       id="g154"
       style="fill:#444444;fill-opacity:1">
</g><g
       id="g156"
       style="fill:#444444;fill-opacity:1">
</g><g
       id="g158"
       style="fill:#444444;fill-opacity:1">
</g><g
       id="g160"
       style="fill:#444444;fill-opacity:1">
</g><g
       id="g162"
       style="fill:#444444;fill-opacity:1">
</g><g
       id="g164"
       style="fill:#444444;fill-opacity:1">
</g><g
       id="g166"
       style="fill:#444444;fill-opacity:1">
</g></g></svg>
