<svg width="24" height="24" viewBox="0 0 24 24" fill="none" xmlns="http://www.w3.org/2000/svg">
<rect x="3" y="3" width="18" height="18" rx="3" fill="#F9F9F9"/>
<path fill-rule="evenodd" clip-rule="evenodd" d="M7.09998 8.49998C7.09998 8.12867 7.24748 7.77258 7.51003 7.51003C7.77258 7.24748 8.12867 7.09998 8.49998 7.09998H15.5C15.8713 7.09998 16.2274 7.24748 16.4899 7.51003C16.7525 7.77258 16.9 8.12867 16.9 8.49998V14.1C16.9 14.4713 16.7525 14.8274 16.4899 15.0899C16.2274 15.3525 15.8713 15.5 15.5 15.5H13.946L14.0321 15.8423L14.5949 16.4051C14.6927 16.503 14.7594 16.6277 14.7864 16.7635C14.8134 16.8992 14.7995 17.0399 14.7466 17.1678C14.6936 17.2957 14.6039 17.405 14.4888 17.482C14.3737 17.5589 14.2384 17.5999 14.1 17.6H9.89998C9.76155 17.5999 9.62624 17.5589 9.51115 17.482C9.39607 17.405 9.30637 17.2957 9.2534 17.1678C9.20043 17.0399 9.18657 16.8992 9.21357 16.7635C9.24056 16.6277 9.30721 16.503 9.40508 16.4051L9.96788 15.8423L10.054 15.5H8.49998C8.12867 15.5 7.77258 15.3525 7.51003 15.0899C7.24748 14.8274 7.09998 14.4713 7.09998 14.1V8.49998ZM11.1397 13.4H8.49998V8.49998H15.5V13.4H11.1397Z" fill="#21252B"/>
</svg>
