<svg width="24" height="24" viewBox="0 0 24 24" fill="none" xmlns="http://www.w3.org/2000/svg">
<rect x="3" y="3" width="18" height="18" rx="3" fill="#F9F9F9"/>
<path d="M6.40002 9.19999C6.40002 8.82868 6.54752 8.47259 6.81007 8.21004C7.07263 7.94749 7.42872 7.79999 7.80002 7.79999H12C12.3713 7.79999 12.7274 7.94749 12.99 8.21004C13.2525 8.47259 13.4 8.82868 13.4 9.19999V14.8C13.4 15.1713 13.2525 15.5274 12.99 15.7899C12.7274 16.0525 12.3713 16.2 12 16.2H7.80002C7.42872 16.2 7.07263 16.0525 6.81007 15.7899C6.54752 15.5274 6.40002 15.1713 6.40002 14.8V9.19999ZM15.1871 9.97419C15.0709 10.0323 14.9731 10.1216 14.9047 10.2321C14.8363 10.3426 14.8001 10.47 14.8 10.6V13.4C14.8001 13.53 14.8363 13.6573 14.9047 13.7679C14.9731 13.8784 15.0709 13.9677 15.1871 14.0258L16.5871 14.7258C16.6938 14.7791 16.8124 14.8043 16.9315 14.7989C17.0507 14.7935 17.1665 14.7578 17.2679 14.6951C17.3694 14.6324 17.4532 14.5449 17.5113 14.4407C17.5694 14.3365 17.6 14.2193 17.6 14.1V9.89999C17.6 9.78071 17.5694 9.66343 17.5113 9.55928C17.4532 9.45512 17.3694 9.36754 17.2679 9.30485C17.1665 9.24216 17.0507 9.20644 16.9315 9.20107C16.8124 9.1957 16.6938 9.22087 16.5871 9.27419L15.1871 9.97419Z" fill="#FFB630"/>
</svg>
