<svg width="24" height="24" viewBox="0 0 24 24" fill="none" xmlns="http://www.w3.org/2000/svg">
<rect x="3" y="3" width="18" height="18" rx="3" fill="#F9F9F9"/>
<path fill-rule="evenodd" clip-rule="evenodd" d="M7.80002 7.09998C7.42872 7.09998 7.07263 7.24748 6.81007 7.51003C6.54752 7.77258 6.40002 8.12867 6.40002 8.49998V15.5C6.40002 15.8713 6.54752 16.2274 6.81007 16.4899C7.07263 16.7525 7.42872 16.9 7.80002 16.9H16.2C16.5713 16.9 16.9274 16.7525 17.19 16.4899C17.4525 16.2274 17.6 15.8713 17.6 15.5V8.49998C17.6 8.12867 17.4525 7.77258 17.19 7.51003C16.9274 7.24748 16.5713 7.09998 16.2 7.09998H7.80002ZM16.2 15.5H7.80002L10.6 9.89998L12.7 14.1L14.1 11.3L16.2 15.5Z" fill="#B467F9"/>
</svg>
