<svg width="24" height="24" viewBox="0 0 24 24" fill="none" xmlns="http://www.w3.org/2000/svg">
<rect x="3" y="3" width="18" height="15.3529" rx="2" fill="#FFD8C7"/>
<g filter="url(#filter0_d)">
<rect x="6.19998" y="6.19999" width="12" height="12" rx="1" fill="#F9F9F9"/>
</g>
<rect x="6.91464" y="6.91473" width="8.4" height="0.4" fill="#C4C4C4"/>
<rect x="6.91458" y="11.7147" width="8.8" height="0.4" fill="#C4C4C4"/>
<rect x="6.91458" y="10.9147" width="6.8" height="0.4" fill="#C4C4C4"/>
<rect x="6.91458" y="10.1147" width="8" height="0.4" fill="#C4C4C4"/>
<rect x="6.91458" y="9.31471" width="10.4" height="0.4" fill="#C4C4C4"/>
<rect x="6.91458" y="8.51471" width="8" height="0.4" fill="#C4C4C4"/>
<rect x="6.91458" y="7.71472" width="9.6" height="0.4" fill="#C4C4C4"/>
<path d="M3 14H21V19C21 20.1046 20.1046 21 19 21H5C3.89543 21 3 20.1046 3 19V14Z" fill="#AF7362"/>
<defs>
<filter id="filter0_d" x="1.19998" y="1.19999" width="22" height="22" filterUnits="userSpaceOnUse" color-interpolation-filters="sRGB">
<feFlood flood-opacity="0" result="BackgroundImageFix"/>
<feColorMatrix in="SourceAlpha" type="matrix" values="0 0 0 0 0 0 0 0 0 0 0 0 0 0 0 0 0 0 127 0" result="hardAlpha"/>
<feOffset/>
<feGaussianBlur stdDeviation="2.5"/>
<feColorMatrix type="matrix" values="0 0 0 0 0 0 0 0 0 0 0 0 0 0 0 0 0 0 0.11 0"/>
<feBlend mode="normal" in2="BackgroundImageFix" result="effect1_dropShadow"/>
<feBlend mode="normal" in="SourceGraphic" in2="effect1_dropShadow" result="shape"/>
</filter>
</defs>
</svg>
