<svg width="24" height="24" viewBox="0 0 24 24" fill="none" xmlns="http://www.w3.org/2000/svg">
<rect x="3" y="3" width="18" height="18" rx="3" fill="#F9F9F9"/>
<path d="M12.4949 6.6051C12.3636 6.47387 12.1856 6.40015 12 6.40015C11.8144 6.40015 11.6363 6.47387 11.5051 6.6051L6.60507 11.5051C6.47756 11.6371 6.407 11.8139 6.4086 11.9975C6.41019 12.181 6.48381 12.3566 6.61359 12.4864C6.74338 12.6162 6.91895 12.6898 7.10249 12.6914C7.28602 12.693 7.46285 12.6224 7.59487 12.4949L7.79997 12.2898V16.9C7.79997 17.0856 7.87372 17.2637 8.00499 17.395C8.13627 17.5262 8.31432 17.6 8.49997 17.6H9.89997C10.0856 17.6 10.2637 17.5262 10.3949 17.395C10.5262 17.2637 10.6 17.0856 10.6 16.9V15.5C10.6 15.3143 10.6737 15.1363 10.805 15.005C10.9363 14.8737 11.1143 14.8 11.3 14.8H12.7C12.8856 14.8 13.0637 14.8737 13.1949 15.005C13.3262 15.1363 13.4 15.3143 13.4 15.5V16.9C13.4 17.0856 13.4737 17.2637 13.605 17.395C13.7363 17.5262 13.9143 17.6 14.1 17.6H15.5C15.6856 17.6 15.8637 17.5262 15.9949 17.395C16.1262 17.2637 16.2 17.0856 16.2 16.9V12.2898L16.4051 12.4949C16.5371 12.6224 16.7139 12.693 16.8974 12.6914C17.081 12.6898 17.2566 12.6162 17.3863 12.4864C17.5161 12.3566 17.5897 12.181 17.5913 11.9975C17.5929 11.8139 17.5224 11.6371 17.3949 11.5051L12.4949 6.6051V6.6051Z" fill="#FE7CBD"/>
</svg>
