<?xml version="1.0" encoding="utf-8"?>
<!-- Generator: Adobe Illustrator 23.0.0, SVG Export Plug-In . SVG Version: 6.00 Build 0)  -->
<!DOCTYPE svg PUBLIC "-//W3C//DTD SVG 1.1//EN" "http://www.w3.org/Graphics/SVG/1.1/DTD/svg11.dtd" [
	<!ENTITY ns_extend "http://ns.adobe.com/Extensibility/1.0/">
	<!ENTITY ns_ai "http://ns.adobe.com/AdobeIllustrator/10.0/">
	<!ENTITY ns_graphs "http://ns.adobe.com/Graphs/1.0/">
	<!ENTITY ns_vars "http://ns.adobe.com/Variables/1.0/">
	<!ENTITY ns_imrep "http://ns.adobe.com/ImageReplacement/1.0/">
	<!ENTITY ns_sfw "http://ns.adobe.com/SaveForWeb/1.0/">
	<!ENTITY ns_custom "http://ns.adobe.com/GenericCustomNamespace/1.0/">
	<!ENTITY ns_adobe_xpath "http://ns.adobe.com/XPath/1.0/">
]>
<svg version="1.1" id="레이어_1" xmlns:x="&ns_extend;" xmlns:i="&ns_ai;" xmlns:graph="&ns_graphs;"
	 xmlns="http://www.w3.org/2000/svg" xmlns:xlink="http://www.w3.org/1999/xlink" x="0px" y="0px" viewBox="0 0 16 16"
	 style="enable-background:new 0 0 16 16;" xml:space="preserve">
<style type="text/css">
	.st0{fill:#363636;}
</style>
<metadata>
	<sfw  xmlns="&ns_sfw;">
		<slices></slices>
		<sliceSourceBounds  bottomLeftOrigin="true" height="15" width="14.7" x="0.7" y="0.5"></sliceSourceBounds>
	</sfw>
</metadata>
<path class="st0" d="M4.1,10c0.2,0.2,0.2,0.5,0,0.7c-0.5,0.5-1,1-1.5,1.5c0.6,0,1.3,0,1.9,0c0.1,0,0.2,0,0.4-0.1s0.3-0.2,0.3-0.3
	c0.1-0.2,0.9-1.6,2.2-3.8C6.2,5.8,5.3,4.4,5.2,4.2c0-0.1-0.1-0.2-0.3-0.3S4.5,3.8,4.5,3.8c-0.6,0-1.3,0-1.9,0c0.5,0.5,1,1,1.5,1.5
	c0.2,0.2,0.2,0.5,0,0.7S3.6,6.2,3.4,6C2.5,5.1,1.6,4.2,0.7,3.3c0.9-0.9,1.8-1.8,2.7-2.7C3.6,0.4,4,0.5,4.1,0.7s0,0.4-0.1,0.6
	c-0.5,0.5-1,1-1.5,1.5c0.7,0,1.3,0,2,0c0.2,0,0.6,0,1.1,0.3C6,3.3,6.2,3.7,6.3,3.8c0.2,0.3,0.8,1.5,1.8,3.1c0.6-1,1.2-2.1,1.9-3.4
	c0.1-0.1,0.3-0.3,0.6-0.4c0.3-0.2,0.6-0.3,0.8-0.3c1.2,0,2.4,0,3.6,0c0.2,0,0.4,0.3,0.4,0.5S15.2,3.7,15,3.8c-1.1,0-2.2,0-3.3,0
	c-0.1,0-0.3,0-0.5,0.2c-0.2,0.1-0.3,0.3-0.3,0.3C10.1,5.7,9.4,6.9,8.7,8c0.7,1.1,1.4,2.3,2.2,3.7c0,0.1,0.2,0.2,0.3,0.3
	c0.2,0.1,0.4,0.2,0.5,0.2c1.1,0,2.2,0,3.3,0c0.2,0,0.4,0.3,0.4,0.5s-0.2,0.5-0.4,0.5c-1.2,0-2.4,0-3.6,0c-0.2,0-0.5-0.1-0.8-0.3
	c-0.3-0.1-0.5-0.3-0.6-0.4c-0.7-1.2-1.3-2.3-1.9-3.4c-0.9,1.6-1.6,2.7-1.8,3.1c-0.1,0.1-0.3,0.5-0.7,0.7c-0.4,0.3-0.9,0.3-1.1,0.3
	c-0.7,0-1.3,0-2,0c0.5,0.5,1,1,1.5,1.5c0.1,0.2,0.2,0.4,0.1,0.6s-0.5,0.3-0.7,0.1c-0.9-0.9-1.8-1.8-2.7-2.7c0.9-0.9,1.8-1.8,2.7-2.7
	C3.6,9.8,3.9,9.8,4.1,10z"/>
</svg>
