<?xml version="1.0" encoding="utf-8"?>
<!-- Generator: Adobe Illustrator 23.0.0, SVG Export Plug-In . SVG Version: 6.00 Build 0)  -->
<!DOCTYPE svg PUBLIC "-//W3C//DTD SVG 1.1//EN" "http://www.w3.org/Graphics/SVG/1.1/DTD/svg11.dtd" [
	<!ENTITY ns_extend "http://ns.adobe.com/Extensibility/1.0/">
	<!ENTITY ns_ai "http://ns.adobe.com/AdobeIllustrator/10.0/">
	<!ENTITY ns_graphs "http://ns.adobe.com/Graphs/1.0/">
	<!ENTITY ns_vars "http://ns.adobe.com/Variables/1.0/">
	<!ENTITY ns_imrep "http://ns.adobe.com/ImageReplacement/1.0/">
	<!ENTITY ns_sfw "http://ns.adobe.com/SaveForWeb/1.0/">
	<!ENTITY ns_custom "http://ns.adobe.com/GenericCustomNamespace/1.0/">
	<!ENTITY ns_adobe_xpath "http://ns.adobe.com/XPath/1.0/">
]>
<svg version="1.1" id="레이어_1" xmlns:x="&ns_extend;" xmlns:i="&ns_ai;" xmlns:graph="&ns_graphs;"
	 xmlns="http://www.w3.org/2000/svg" xmlns:xlink="http://www.w3.org/1999/xlink" x="0px" y="0px" viewBox="0 0 16 16"
	 style="enable-background:new 0 0 16 16;" xml:space="preserve">
<style type="text/css">
	.st0{fill:#363636;}
</style>
<metadata>
	<sfw  xmlns="&ns_sfw;">
		<slices></slices>
		<sliceSourceBounds  bottomLeftOrigin="true" height="14.8" width="14.7" x="0.6" y="0.8"></sliceSourceBounds>
	</sfw>
</metadata>
<path class="st0" d="M15.1,15.1L15.1,15.1c-0.2,0.2-0.6,0.2-0.8,0L0.9,1.8c-0.2-0.2-0.2-0.6,0-0.8l0,0c0.2-0.2,0.6-0.2,0.8,0
	l13.3,13.3C15.3,14.5,15.3,14.8,15.1,15.1z"/>
<g>
	<g>
		<path class="st0" d="M8,9.1C8.2,8.8,8.4,8.4,8.7,8c0,0,0,0,0,0c0,0,0,0,0-0.1c0,0,0,0,0,0l0,0c1.2-2.1,2-3.5,2.1-3.7
			c0-0.1,0.1-0.2,0.3-0.3c0.2-0.1,0.4-0.1,0.4-0.1c0.6,0,1.3,0,1.9,0c-0.5,0.5-1,1-1.5,1.5c-0.2,0.2-0.2,0.5,0,0.7
			c0.2,0.2,0.5,0.2,0.7,0c0.9-0.9,1.8-1.8,2.7-2.7c-0.9-0.9-1.8-1.8-2.7-2.7c-0.2-0.2-0.6-0.1-0.7,0.1s0,0.4,0.1,0.6
			c0.5,0.5,1,1,1.5,1.5c-0.7,0-1.3,0-2,0c-0.2,0-0.6,0-1.1,0.3c-0.4,0.2-0.6,0.6-0.7,0.7C9,5.2,8.1,6.7,7.3,8.1
			c-1.1,1.9-1.9,3.2-2.1,3.6c0,0.1-0.1,0.2-0.3,0.3c-0.2,0.1-0.4,0.2-0.5,0.2c-1.1,0-2.2,0-3.3,0c-0.2,0-0.4,0.3-0.4,0.5
			c0,0.2,0.2,0.5,0.4,0.5c1.2,0,2.4,0,3.6,0c0.2,0,0.5-0.1,0.8-0.3c0.3-0.1,0.5-0.3,0.6-0.4C6.8,11.3,7.4,10.1,8,9.1
			C8,9.1,8,9.1,8,9.1z"/>
		<path class="st0" d="M12,9.2c-0.2,0.2-0.2,0.5,0,0.7c0.5,0.5,1,1,1.5,1.5c0.2,0.2,0.4,0.3,0.6,0.5c-0.2,0.2-0.4,0.3-0.5,0.5
			c-0.5,0.5-1,1-1.5,1.5c-0.1,0.2-0.2,0.4-0.1,0.6s0.5,0.3,0.7,0.1c0.9-0.9,1.8-1.8,2.7-2.7c-0.9-0.9-1.8-1.8-2.7-2.7
			C12.5,9,12.2,9,12,9.2z"/>
	</g>
	<path class="st0" d="M1.1,3.8c0.6,0,1.3,0,1.9,0c-0.3-0.3-0.7-0.7-1-1c-0.3,0-0.6,0-0.9,0c-0.2,0-0.4,0.3-0.4,0.5
		C0.6,3.6,0.8,3.8,1.1,3.8z"/>
</g>
</svg>
