<?xml version="1.0" encoding="UTF-8" standalone="no"?>
<svg
   height="16px"
   viewBox="0 0 16 16"
   width="16px"
   version="1.1"
   id="svg8"
   sodipodi:docname="bluetooth-acquiring-symbolic.svg"
   inkscape:version="1.2.1 (9c6d41e410, 2022-07-14)"
   xmlns:inkscape="http://www.inkscape.org/namespaces/inkscape"
   xmlns:sodipodi="http://sodipodi.sourceforge.net/DTD/sodipodi-0.dtd"
   xmlns="http://www.w3.org/2000/svg"
   xmlns:svg="http://www.w3.org/2000/svg">
  <defs
     id="defs12" />
  <sodipodi:namedview
     id="namedview10"
     pagecolor="#ffffff"
     bordercolor="#000000"
     borderopacity="0.25"
     inkscape:showpageshadow="2"
     inkscape:pageopacity="0.0"
     inkscape:pagecheckerboard="0"
     inkscape:deskcolor="#d1d1d1"
     showgrid="false"
     inkscape:zoom="64.1875"
     inkscape:cx="7.9922103"
     inkscape:cy="8.0155794"
     inkscape:current-layer="svg8" />
  <path
     d="M 7.957031,0 C 7.828125,0.0078125 7.703125,0.0390625 7.585938,0.0898438 7.230469,0.253906 7,0.609375 7,1 V 5 H 9 V 3.203125 L 10.480469,4.5 9.910156,5 h 2.953125 C 13.101562,4.585938 13.015625,4.0625 12.65625,3.75 l -4,-3.5 C 8.464844,0.078125 8.210938,-0.0078125 7.957031,0 Z M 4.089844,4.007812 C 3.773438,3.976562 3.457031,4.101562 3.25,4.34375 3.09375,4.527344 3.007812,4.757812 3.011719,5 H 5.519531 L 4.65625,4.25 C 4.5,4.109375 4.300781,4.023438 4.089844,4.007812 Z M 3.011719,11 C 3.007812,11.242188 3.09375,11.472656 3.25,11.65625 3.613281,12.074219 4.242188,12.113281 4.65625,11.75 L 5.519531,11 Z M 7,11 v 4 c 0,0.390625 0.230469,0.746094 0.585938,0.910156 C 7.945312,16.070312 8.363281,16.011719 8.65625,15.75 l 4,-3.5 C 13.015625,11.9375 13.101562,11.414062 12.863281,11 H 9.910156 L 10.480469,11.5 9,12.796875 V 11 Z m 0,0"
     fill-opacity="0.34902"
     id="path2"
     style="fill:#444444;fill-opacity:1;opacity:0.35" />
  <path
     d="M 3,6 C 1.894531,6 1,6.894531 1,8 1,9.105469 1.894531,10 3,10 4.105469,10 5,9.105469 5,8 5,6.894531 4.105469,6 3,6 Z M 8,6 C 6.894531,6 6,6.894531 6,8 6,9.105469 6.894531,10 8,10 9.105469,10 10,9.105469 10,8 10,6.894531 9.105469,6 8,6 Z m 5,0 c -1.105469,0 -2,0.894531 -2,2 0,1.105469 0.894531,2 2,2 1.105469,0 2,-0.894531 2,-2 0,-1.105469 -0.894531,-2 -2,-2 z m 0,0"
     id="path4"
     style="fill:#444444;fill-opacity:1" />
</svg>
