<?xml version="1.0" encoding="UTF-8" standalone="no"?>
<svg
   width="16"
   height="16"
   version="1.1"
   id="svg6"
   sodipodi:docname="clock-applet-symbolic.svg"
   xml:space="preserve"
   inkscape:version="1.2.1 (9c6d41e410, 2022-07-14)"
   xmlns:inkscape="http://www.inkscape.org/namespaces/inkscape"
   xmlns:sodipodi="http://sodipodi.sourceforge.net/DTD/sodipodi-0.dtd"
   xmlns="http://www.w3.org/2000/svg"
   xmlns:svg="http://www.w3.org/2000/svg"><defs
     id="defs10" /><sodipodi:namedview
     id="namedview8"
     pagecolor="#ffffff"
     bordercolor="#000000"
     borderopacity="0.25"
     inkscape:showpageshadow="2"
     inkscape:pageopacity="0.0"
     inkscape:pagecheckerboard="0"
     inkscape:deskcolor="#d1d1d1"
     showgrid="false"
     inkscape:zoom="22.693708"
     inkscape:cx="-16.92099"
     inkscape:cy="-1.6524404"
     inkscape:current-layer="svg6" /><g
     id="g298"
     transform="matrix(0.02734375,0,0,0.02734375,1,1)"
     style="fill:#444444;fill-opacity:1"><g
       id="g243"
       style="fill:#444444;fill-opacity:1">
	<g
   id="g241"
   style="fill:#444444;fill-opacity:1">
		<path
   d="M 256,0 C 114.842,0 0,114.842 0,256 0,397.158 114.842,512 256,512 397.158,512 512,397.158 512,256 512,114.842 397.158,0 256,0 Z M 374.821,283.546 H 256 c -15.148,0 -27.429,-12.283 -27.429,-27.429 V 137.295 c 0,-15.148 12.281,-27.429 27.429,-27.429 15.148,0 27.429,12.281 27.429,27.429 v 91.394 h 91.392 c 15.148,0 27.429,12.279 27.429,27.429 -10e-4,15.145 -12.282,27.428 -27.429,27.428 z"
   id="path239"
   style="fill:#444444;fill-opacity:1" />
	</g>
</g><g
       id="g245"
       style="fill:#444444;fill-opacity:1">
</g><g
       id="g247"
       style="fill:#444444;fill-opacity:1">
</g><g
       id="g249"
       style="fill:#444444;fill-opacity:1">
</g><g
       id="g251"
       style="fill:#444444;fill-opacity:1">
</g><g
       id="g253"
       style="fill:#444444;fill-opacity:1">
</g><g
       id="g255"
       style="fill:#444444;fill-opacity:1">
</g><g
       id="g257"
       style="fill:#444444;fill-opacity:1">
</g><g
       id="g259"
       style="fill:#444444;fill-opacity:1">
</g><g
       id="g261"
       style="fill:#444444;fill-opacity:1">
</g><g
       id="g263"
       style="fill:#444444;fill-opacity:1">
</g><g
       id="g265"
       style="fill:#444444;fill-opacity:1">
</g><g
       id="g267"
       style="fill:#444444;fill-opacity:1">
</g><g
       id="g269"
       style="fill:#444444;fill-opacity:1">
</g><g
       id="g271"
       style="fill:#444444;fill-opacity:1">
</g><g
       id="g273"
       style="fill:#444444;fill-opacity:1">
</g></g></svg>
