<?xml version="1.0" encoding="UTF-8" standalone="no"?>
<svg
   width="16"
   height="16"
   version="1.1"
   id="svg6"
   sodipodi:docname="help-faq-symbolic.svg"
   xml:space="preserve"
   inkscape:version="1.2.1 (9c6d41e410, 2022-07-14)"
   xmlns:inkscape="http://www.inkscape.org/namespaces/inkscape"
   xmlns:sodipodi="http://sodipodi.sourceforge.net/DTD/sodipodi-0.dtd"
   xmlns="http://www.w3.org/2000/svg"
   xmlns:svg="http://www.w3.org/2000/svg"><defs
     id="defs10" /><sodipodi:namedview
     id="namedview8"
     pagecolor="#ffffff"
     bordercolor="#000000"
     borderopacity="0.25"
     inkscape:showpageshadow="2"
     inkscape:pageopacity="0.0"
     inkscape:pagecheckerboard="0"
     inkscape:deskcolor="#d1d1d1"
     showgrid="false"
     inkscape:zoom="16.046875"
     inkscape:cx="10.531646"
     inkscape:cy="11.809153"
     inkscape:current-layer="svg6" /><path
     id="path2"
     style="fill:#444444"
     d="M 3 4 C 2.4460012 4 2 4.4500011 2 5 L 2 15 C 2 15.549998 2.4460012 16 3 16 L 11 16 C 11.553998 16 12 15.549998 12 15 L 12 8 L 8 4 L 3 4 z M 6.9902344 7.0097656 C 8.1994505 7.0534723 9.1906683 8.042737 9.234375 9.2519531 C 9.2780817 10.271774 8.6520546 11.18941 7.7050781 11.539062 C 7.5739584 11.597338 7.4863281 11.700911 7.4863281 11.832031 L 7.4863281 12.050781 C 7.4863281 12.181901 7.3685041 12.267578 7.2519531 12.267578 L 6.5234375 12.267578 C 6.4068865 12.267578 6.3203125 12.181004 6.3203125 12.064453 L 6.3203125 11.845703 C 6.3203125 11.233811 6.7141203 10.680527 7.296875 10.476562 C 7.4717014 10.418288 7.6305989 10.315611 7.7617188 10.169922 C 8.4901621 9.2957896 7.8213978 8.2478878 6.9472656 8.21875 C 6.6267505 8.2041811 6.3209926 8.3205294 6.0878906 8.5390625 C 5.8984953 8.7138889 5.7810909 8.9320167 5.7519531 9.1796875 C 5.7373842 9.2671007 5.6497541 9.3398437 5.5332031 9.3398438 L 4.8046875 9.3398438 C 4.6735676 9.3398438 4.5713686 9.2385416 4.5859375 9.1074219 C 4.6442129 8.5538048 4.8917968 8.057422 5.2851562 7.6640625 C 5.7513601 7.2269964 6.3492041 6.9951967 6.9902344 7.0097656 z M 6.5390625 12.851562 L 7.2675781 12.851562 C 7.3841292 12.851562 7.4863281 12.953761 7.4863281 13.070312 L 7.4863281 13.798828 C 7.4863281 13.915379 7.3841292 14.017578 7.2675781 14.017578 L 6.5390625 14.017578 C 6.4225114 14.017578 6.3203125 13.915379 6.3203125 13.798828 L 6.3203125 13.070312 C 6.3203125 12.953761 6.4225114 12.851562 6.5390625 12.851562 z " /><path
     style="fill:#444444"
     d="M 6,1 C 5.446,1 5,1.45 5,2 V 3 H 9 L 13,7 V 13 H 14 C 14.554,13 15,12.55 15,12 V 5 L 11,1 Z"
     id="path4" /><g
     id="g243"
     transform="matrix(0.14568898,0,0,0.14568898,3.1149293,6.7322261)"
     style="fill:#b3b3b3;fill-opacity:1">
	<g
   id="g239"
   style="fill:#b3b3b3;fill-opacity:1">
		
	</g>
	
</g></svg>
