<?xml version="1.0" encoding="UTF-8" standalone="no"?>
<svg
   width="16"
   height="16"
   version="1.1"
   id="svg4"
   sodipodi:docname="multimedia-video-player-symbolic.svg"
   xml:space="preserve"
   inkscape:version="1.2.1 (9c6d41e410, 2022-07-14)"
   xmlns:inkscape="http://www.inkscape.org/namespaces/inkscape"
   xmlns:sodipodi="http://sodipodi.sourceforge.net/DTD/sodipodi-0.dtd"
   xmlns="http://www.w3.org/2000/svg"
   xmlns:svg="http://www.w3.org/2000/svg"><defs
     id="defs8" /><sodipodi:namedview
     id="namedview6"
     pagecolor="#ffffff"
     bordercolor="#000000"
     borderopacity="0.25"
     inkscape:showpageshadow="2"
     inkscape:pageopacity="0.0"
     inkscape:pagecheckerboard="0"
     inkscape:deskcolor="#d1d1d1"
     showgrid="false"
     inkscape:zoom="32.09375"
     inkscape:cx="3.707887"
     inkscape:cy="6.6835443"
     inkscape:current-layer="svg4" /><path
     id="path2"
     style="fill:#444444"
     d="M 1 1 C 0.45000055 1 0 1.4500005 0 2 L 0 14 C 0 14.549999 0.45000055 15 1 15 L 15 15 C 15.559999 15 16 14.549999 16 14 L 16 2 L 16 1 L 12.5 1 L 14 4 L 12 4 L 10.5 1 L 8.5 1 L 10 4 L 8 4 L 6.5 1 L 4.5 1 L 6 4 L 4 4 L 2.5 1 L 1 1 z M 6.1269531 6.4101562 A 0.53707149 0.53707149 0 0 1 6.3984375 6.4882812 L 10.1875 8.7558594 A 0.55037213 0.55037213 0 0 1 10.1875 9.6875 L 6.3984375 11.957031 A 0.5427281 0.5427281 0 0 1 6.1191406 12.035156 A 0.54074064 0.54074064 0 0 1 5.8515625 11.962891 C 5.6681063 11.858928 5.5546875 11.658534 5.5546875 11.439453 L 5.5546875 7.0058594 C 5.5546875 6.7861677 5.6681063 6.584428 5.8515625 6.4804688 A 0.53707149 0.53707149 0 0 1 6.1269531 6.4101562 z " /></svg>
