<?xml version="1.0" encoding="UTF-8" standalone="no"?>
<svg
   width="16.031"
   height="16"
   version="1.1"
   id="svg8"
   sodipodi:docname="preferences-desktop-wallpaper-symbolic.svg"
   inkscape:version="1.2.1 (9c6d41e410, 2022-07-14)"
   xml:space="preserve"
   xmlns:inkscape="http://www.inkscape.org/namespaces/inkscape"
   xmlns:sodipodi="http://sodipodi.sourceforge.net/DTD/sodipodi-0.dtd"
   xmlns="http://www.w3.org/2000/svg"
   xmlns:svg="http://www.w3.org/2000/svg"><defs
     id="defs12" /><sodipodi:namedview
     id="namedview10"
     pagecolor="#ffffff"
     bordercolor="#000000"
     borderopacity="0.25"
     inkscape:showpageshadow="2"
     inkscape:pageopacity="0.0"
     inkscape:pagecheckerboard="0"
     inkscape:deskcolor="#d1d1d1"
     showgrid="false"
     inkscape:zoom="11.346854"
     inkscape:cx="-11.897571"
     inkscape:cy="3.3930109"
     inkscape:current-layer="svg8" /><g
     id="g291"
     transform="matrix(0.32608696,0,0,0.32608696,0.51549999,0.49999992)"
     style="fill:#444444;fill-opacity:1"><g
       id="g237"
       style="fill:#444444;fill-opacity:1">
	<path
   d="M 40.611,0 H 5.361 C 2.411,0 0,2.294 0,5.245 V 40.493 C 0,43.448 2.411,46 5.361,46 h 35.25 C 43.562,46 46,43.448 46,40.493 V 5.245 C 46,2.294 43.562,0 40.611,0 Z m -12.84,7.349 c 3.816,0 6.912,3.095 6.912,6.912 0,3.817 -3.096,6.911 -6.912,6.911 -3.817,0 -6.913,-3.094 -6.913,-6.911 0.001,-3.817 3.095,-6.912 6.913,-6.912 z M 39.885,37.334 C 39.592,37.877 39.025,38 38.409,38 H 8.207 C 7.676,38 7.176,37.963 6.859,37.537 6.542,37.109 6.446,36.666 6.6,36.156 l 4.321,-14.241 c 0.285,-0.94 1.079,-1.61 2.049,-1.771 0.97,-0.158 1.946,0.264 2.516,1.063 l 6.041,8.493 c 0.812,1.144 2.387,1.429 3.546,0.642 l 5.562,-3.777 c 0.572,-0.389 1.276,-0.528 1.953,-0.393 0.68,0.135 1.273,0.539 1.652,1.118 l 5.576,8.435 c 0.336,0.517 0.364,1.068 0.069,1.609 z"
   id="path235"
   style="fill:#444444;fill-opacity:1" />
</g><g
       id="g239"
       style="fill:#444444;fill-opacity:1">
</g><g
       id="g241"
       style="fill:#444444;fill-opacity:1">
</g><g
       id="g243"
       style="fill:#444444;fill-opacity:1">
</g><g
       id="g245"
       style="fill:#444444;fill-opacity:1">
</g><g
       id="g247"
       style="fill:#444444;fill-opacity:1">
</g><g
       id="g249"
       style="fill:#444444;fill-opacity:1">
</g><g
       id="g251"
       style="fill:#444444;fill-opacity:1">
</g><g
       id="g253"
       style="fill:#444444;fill-opacity:1">
</g><g
       id="g255"
       style="fill:#444444;fill-opacity:1">
</g><g
       id="g257"
       style="fill:#444444;fill-opacity:1">
</g><g
       id="g259"
       style="fill:#444444;fill-opacity:1">
</g><g
       id="g261"
       style="fill:#444444;fill-opacity:1">
</g><g
       id="g263"
       style="fill:#444444;fill-opacity:1">
</g><g
       id="g265"
       style="fill:#444444;fill-opacity:1">
</g><g
       id="g267"
       style="fill:#444444;fill-opacity:1">
</g></g></svg>
