<?xml version="1.0" encoding="UTF-8" standalone="no"?>
<svg
   height="16px"
   viewBox="0 0 16 16"
   width="16px"
   version="1.1"
   id="svg4"
   sodipodi:docname="preferences-system-privacy-symbolic.svg"
   inkscape:version="1.2.1 (9c6d41e410, 2022-07-14)"
   xmlns:inkscape="http://www.inkscape.org/namespaces/inkscape"
   xmlns:sodipodi="http://sodipodi.sourceforge.net/DTD/sodipodi-0.dtd"
   xmlns="http://www.w3.org/2000/svg"
   xmlns:svg="http://www.w3.org/2000/svg">
  <defs
     id="defs8" />
  <sodipodi:namedview
     id="namedview6"
     pagecolor="#ffffff"
     bordercolor="#000000"
     borderopacity="0.25"
     inkscape:showpageshadow="2"
     inkscape:pageopacity="0.0"
     inkscape:pagecheckerboard="0"
     inkscape:deskcolor="#d1d1d1"
     showgrid="false"
     inkscape:zoom="64.1875"
     inkscape:cx="7.9922103"
     inkscape:cy="8.0155794"
     inkscape:current-layer="svg4" />
  <path
     d="m 8 0 c 0.554688 0 1 0.445312 1 1 v 6.5 s 0 0.5 0.5 0.5 s 0.5 -0.5 0.5 -0.5 v -4.5 c 0 -0.554688 0.445312 -1 1 -1 s 1 0.445312 1 1 v 8.5 c 0 0.5 0.5 0.5 0.5 0.5 l 1.792969 -1.707031 c 0.1875 -0.195313 0.445312 -0.300781 0.71875 -0.304688 c 1.082031 0.085938 1.144531 1.269531 0.695312 1.71875 l -3 3 c -0.707031 0.792969 -1.757812 1.289063 -2.707031 1.292969 h -6 c -3 0 -3 -3 -3 -3 v -8 c 0 -0.554688 0.445312 -1 1 -1 s 1 0.445312 1 1 v 3.5 s 0 0.5 0.5 0.5 s 0.5 -0.5 0.5 -0.5 v -6.5 c 0 -0.554688 0.445312 -1 1 -1 s 1 0.445312 1 1 v 5.5 s 0 0.5 0.5 0.5 s 0.5 -0.5 0.5 -0.5 v -6.5 c 0 -0.554688 0.445312 -1 1 -1 z m 0 0"
     fill="#2e3436"
     id="path2"
     style="fill:#444444;fill-opacity:1" />
</svg>
