<?xml version="1.0" encoding="UTF-8" standalone="no"?>
<svg
   width="16"
   height="16"
   version="1.1"
   id="svg4"
   sodipodi:docname="preferences-desktop-apps-symbolic.svg"
   xml:space="preserve"
   inkscape:version="1.2.1 (9c6d41e410, 2022-07-14)"
   xmlns:inkscape="http://www.inkscape.org/namespaces/inkscape"
   xmlns:sodipodi="http://sodipodi.sourceforge.net/DTD/sodipodi-0.dtd"
   xmlns="http://www.w3.org/2000/svg"
   xmlns:svg="http://www.w3.org/2000/svg"><defs
     id="defs8" /><sodipodi:namedview
     id="namedview6"
     pagecolor="#ffffff"
     bordercolor="#000000"
     borderopacity="0.25"
     inkscape:showpageshadow="2"
     inkscape:pageopacity="0.0"
     inkscape:pagecheckerboard="0"
     inkscape:deskcolor="#d1d1d1"
     showgrid="false"
     inkscape:zoom="11.346854"
     inkscape:cx="-8.9011456"
     inkscape:cy="3.4811411"
     inkscape:current-layer="svg4" /><path
     d="M 13.208333,0.5 C 14.473986,0.5 15.5,1.5260141 15.5,2.7916667 V 13.208333 C 15.5,14.473986 14.473986,15.5 13.208333,15.5 H 2.791667 C 1.526014,15.5 0.5,14.473986 0.5,13.208333 V 2.7916667 C 0.5,1.5260141 1.526014,0.5 2.791667,0.5 Z m 0,1.25 H 2.791667 C 2.21637,1.75 1.75,2.2163701 1.75,2.7916667 V 13.208333 C 1.75,13.78363 2.21637,14.25 2.791667,14.25 H 13.208333 C 13.78363,14.25 14.25,13.78363 14.25,13.208333 V 2.7916667 C 14.25,2.2163701 13.78363,1.75 13.208333,1.75 Z M 6.12658,8.4166666 c 0.805416,0 1.458333,0.6529184 1.458333,1.4583334 v 1.666667 C 7.584913,12.347082 6.931996,13 6.12658,13 H 4.459913 C 3.654498,13 3.00158,12.347082 3.00158,11.541667 V 9.875 c 0,-0.805415 0.652918,-1.4583334 1.458333,-1.4583334 z m 5.41456,0 c 0.805415,0 1.458333,0.6529184 1.458333,1.4583334 v 1.666667 C 12.999473,12.347082 12.346555,13 11.54114,13 H 9.874473 C 9.069058,13 8.41614,12.347082 8.41614,11.541667 V 9.875 c 0,-0.805415 0.652918,-1.4583334 1.458333,-1.4583334 z M 6.125527,3 C 6.930942,3 7.58386,3.6529181 7.58386,4.4583333 V 6.125 c 0,0.805415 -0.652918,1.4583333 -1.458333,1.4583333 H 4.45886 C 3.653445,7.5833333 3.000527,6.930415 3.000527,6.125 V 4.4583333 C 3.000527,3.6529181 3.653445,3 4.45886,3 Z m 5.41456,0 c 0.805415,0 1.458333,0.6529181 1.458333,1.4583333 V 6.125 c 0,0.805415 -0.652918,1.4583333 -1.458333,1.4583333 H 9.87342 C 9.068004,7.5833333 8.415087,6.930415 8.415087,6.125 V 4.4583333 C 8.415087,3.6529181 9.068004,3 9.87342,3 Z"
     id="🎨-Color"
     style="fill:#444444;fill-rule:nonzero;stroke:none;stroke-width:0.833333;fill-opacity:1" /></svg>
