<?xml version="1.0" encoding="UTF-8" standalone="no"?>
<svg
   width="16"
   height="16"
   version="1.1"
   id="svg6"
   sodipodi:docname="preferences-system-notifications-symbolic-new.svg"
   xml:space="preserve"
   inkscape:version="1.2.1 (9c6d41e410, 2022-07-14)"
   xmlns:inkscape="http://www.inkscape.org/namespaces/inkscape"
   xmlns:sodipodi="http://sodipodi.sourceforge.net/DTD/sodipodi-0.dtd"
   xmlns="http://www.w3.org/2000/svg"
   xmlns:svg="http://www.w3.org/2000/svg"><defs
     id="defs10" /><sodipodi:namedview
     id="namedview8"
     pagecolor="#ffffff"
     bordercolor="#000000"
     borderopacity="0.25"
     inkscape:showpageshadow="2"
     inkscape:pageopacity="0.0"
     inkscape:pagecheckerboard="0"
     inkscape:deskcolor="#d1d1d1"
     showgrid="false"
     inkscape:zoom="22.693708"
     inkscape:cx="-2.7320348"
     inkscape:cy="7.7774861"
     inkscape:current-layer="svg6" /><g
     fill="#2e3436"
     id="g12"
     style="fill:#444444;fill-opacity:1"
     transform="translate(0,0.23758728)"><path
       d="m 13,6.5 c 0,2.761719 -2.238281,5 -5,5 -2.761719,0 -5,-2.238281 -5,-5 0,-2.761719 2.238281,-5 5,-5 2.761719,0 5,2.238281 5,5 z m 0,0"
       id="path2-3"
       style="fill:#444444;fill-opacity:1" /><path
       d="m 3,6.5 h 10 v 6 H 3 Z m 0,0"
       id="path4-3"
       style="fill:#444444;fill-opacity:1" /><path
       d="m 2.5,13 h 11 c 0.550781,0 1,-0.449219 1,-1 0,-0.550781 -0.449219,-1 -1,-1 h -11 c -0.550781,0 -1,0.449219 -1,1 0,0.550781 0.449219,1 1,1 z m 0,0"
       id="path6"
       style="fill:#444444;fill-opacity:1" /><path
       d="m 10,14 c 0,0.714844 -0.382812,1.375 -1,1.730469 -0.617188,0.359375 -1.382812,0.359375 -2,0 C 6.382812,15.375 6,14.714844 6,14"
       id="path8"
       style="fill:#444444;fill-opacity:1" /><path
       d="M 9.5,1.5 C 9.5,2.328125 8.828125,3 8,3 7.171875,3 6.5,2.328125 6.5,1.5 6.5,0.671875 7.171875,0 8,0 8.828125,0 9.5,0.671875 9.5,1.5 Z m 0,0"
       id="path10"
       style="fill:#444444;fill-opacity:1" /></g></svg>
