<?xml version="1.0" encoding="UTF-8" standalone="no"?>
<svg
   width="16"
   height="16"
   version="1"
   id="svg4"
   sodipodi:docname="preferences-desktop-default-applications-symbolic.svg"
   xml:space="preserve"
   inkscape:version="1.2.1 (9c6d41e410, 2022-07-14)"
   xmlns:inkscape="http://www.inkscape.org/namespaces/inkscape"
   xmlns:sodipodi="http://sodipodi.sourceforge.net/DTD/sodipodi-0.dtd"
   xmlns="http://www.w3.org/2000/svg"
   xmlns:svg="http://www.w3.org/2000/svg"><defs
     id="defs8"><style
       id="current-color-scheme"
       type="text/css">
   .ColorScheme-Text { color:#6e6e6e; } .ColorScheme-Highlight { color:#4285f4; }
  </style></defs><sodipodi:namedview
     id="namedview6"
     pagecolor="#ffffff"
     bordercolor="#000000"
     borderopacity="0.25"
     inkscape:showpageshadow="2"
     inkscape:pageopacity="0.0"
     inkscape:pagecheckerboard="0"
     inkscape:deskcolor="#d1d1d1"
     showgrid="false"
     inkscape:zoom="5.673427"
     inkscape:cx="-82.666085"
     inkscape:cy="10.840009"
     inkscape:current-layer="svg4" /><g
     id="g293"
     transform="translate(-55.618672,-39.417808)"><g
       id="g239">
	
</g><g
       id="g241">
</g><g
       id="g243">
</g><g
       id="g245">
</g><g
       id="g247">
</g><g
       id="g249">
</g><g
       id="g251">
</g><g
       id="g253">
</g><g
       id="g255">
</g><g
       id="g257">
</g><g
       id="g259">
</g><g
       id="g261">
</g><g
       id="g263">
</g><g
       id="g265">
</g><g
       id="g267">
</g><g
       id="g269">
</g></g><path
     style="fill:#444444;fill-opacity:1"
     class="ColorScheme-Text"
     d="M 7.9998846,-3.0572069e-6 C 7.2787046,0.01003694 6.7647546,0.43176894 6.5233846,1.1319379 l 0.008,-0.03133 -1.13277,3.91326 h -3.82018 c -0.008,-1.3e-4 -0.0171,-1.3e-4 -0.0254,0 -0.45633,0.0144 -0.86825998,0.220375 -1.15815998,0.564012 -0.62697,0.700716 -0.49343,1.803965 0.30273,2.326551 l 3.00378998,2.1385471 -1.16597,3.985296 c -10e-4,0.0039 -0.003,0.0078 -0.004,0.01175 -0.17815,0.569792 -0.0106,1.157308 0.43749,1.558867 0.003,0.003 0.008,0.0049 0.0117,0.0078 0.53848,0.466081 1.29415,0.524829 1.90227,0.139045 0.0116,-0.0073 0.024,-0.01366 0.0352,-0.02155 l 3.08192,-2.167881 3.0819204,2.167923 c 0.0111,0.0079 0.0236,0.01426 0.0352,0.02155 0.60811,0.385784 1.36379,0.327036 1.90227,-0.139045 0.003,-0.0029 0.008,-0.0048 0.0117,-0.0078 0.44811,-0.401569 0.61563,-0.989075 0.43749,-1.558867 -10e-4,-0.0039 -0.003,-0.0078 -0.004,-0.01175 l -1.16598,-3.985296 3.0038,-2.1385471 c 0.79615,-0.522585 0.92969,-1.625835 0.30272,-2.326551 -0.2899,-0.343637 -0.70183,-0.549611 -1.15816,-0.564012 -0.008,-1.3e-4 -0.0171,-1.3e-4 -0.0254,0 h -3.82017 l -1.1327704,-3.91326 0.008,0.03133 C 9.2352446,0.43176894 8.7212946,0.01003294 8.0001046,-3.0572069e-6 Z"
     id="path5" /></svg>
