<?xml version="1.0" encoding="UTF-8" standalone="no"?>
<svg
   width="16"
   height="16"
   version="1.1"
   id="svg6"
   sodipodi:docname="preferences-desktop-locale-symbolic-new.svg"
   xml:space="preserve"
   inkscape:version="1.2.1 (9c6d41e410, 2022-07-14)"
   xmlns:inkscape="http://www.inkscape.org/namespaces/inkscape"
   xmlns:sodipodi="http://sodipodi.sourceforge.net/DTD/sodipodi-0.dtd"
   xmlns="http://www.w3.org/2000/svg"
   xmlns:svg="http://www.w3.org/2000/svg"><defs
     id="defs10" /><sodipodi:namedview
     id="namedview8"
     pagecolor="#ffffff"
     bordercolor="#000000"
     borderopacity="0.25"
     inkscape:showpageshadow="2"
     inkscape:pageopacity="0.0"
     inkscape:pagecheckerboard="0"
     inkscape:deskcolor="#d1d1d1"
     showgrid="false"
     inkscape:zoom="16.046875"
     inkscape:cx="-5.1723466"
     inkscape:cy="17.791626"
     inkscape:current-layer="svg6" /><g
     id="g253"
     transform="matrix(0.03571534,0,0,0.03571534,-1.1428909,-1.7143363)"
     style="fill:#444444;fill-opacity:1"><path
       d="m 478.33,433.6 -90,-218 a 22,22 0 0 0 -40.67,0 l -90,218 a 22,22 0 1 0 40.67,16.79 L 316.66,406 h 102.67 l 18.33,44.39 A 22,22 0 0 0 458,464 22,22 0 0 0 478.32,433.6 Z M 334.83,362 368,281.65 401.17,362 Z"
       id="path241"
       style="fill:#444444;fill-opacity:1" /><path
       d="m 267.84,342.92 a 22,22 0 0 0 -4.89,-30.7 c -0.2,-0.15 -15,-11.13 -36.49,-34.73 C 266.11,223.81 288.57,162.74 297.73,134 H 330 a 22,22 0 0 0 0,-44 H 214 V 70 a 22,22 0 0 0 -44,0 V 90 H 54 a 22,22 0 0 0 0,44 h 197.25 c -9.52,26.95 -27.05,69.5 -53.79,108.36 -31.41,-41.68 -43.08,-68.65 -43.17,-68.87 a 22,22 0 0 0 -40.58,17 c 0.58,1.38 14.55,34.23 52.86,83.93 0.92,1.19 1.83,2.35 2.74,3.51 -39.24,44.35 -77.74,71.86 -93.85,80.74 a 22.00126,22.00126 0 1 0 21.07,38.63 c 2.16,-1.18 48.6,-26.89 101.63,-85.59 22.52,24.08 38,35.44 38.93,36.1 a 22,22 0 0 0 30.75,-4.9 z"
       id="path243"
       style="fill:#444444;fill-opacity:1" /></g></svg>
