<?xml version="1.0" encoding="UTF-8" standalone="no"?>
<svg
   width="16"
   height="16"
   version="1.1"
   id="svg4"
   sodipodi:docname="utilities-tweak-tool-symbolic.svg"
   xml:space="preserve"
   inkscape:version="1.2.1 (9c6d41e410, 2022-07-14)"
   xmlns:inkscape="http://www.inkscape.org/namespaces/inkscape"
   xmlns:sodipodi="http://sodipodi.sourceforge.net/DTD/sodipodi-0.dtd"
   xmlns="http://www.w3.org/2000/svg"
   xmlns:svg="http://www.w3.org/2000/svg"><defs
     id="defs8" /><sodipodi:namedview
     id="namedview6"
     pagecolor="#ffffff"
     bordercolor="#000000"
     borderopacity="0.25"
     inkscape:showpageshadow="2"
     inkscape:pageopacity="0.0"
     inkscape:pagecheckerboard="0"
     inkscape:deskcolor="#d1d1d1"
     showgrid="false"
     inkscape:zoom="16.046875"
     inkscape:cx="5.1100292"
     inkscape:cy="11.933788"
     inkscape:current-layer="svg4" /><path
     d="M 14.702273,11.818861 11.500636,8.6172216 C 10.869055,7.9856415 9.9257876,7.8626082 9.1657095,8.2371794 L 6.2511496,5.3226257 V 3.6247436 L 2.751491,1 1.0016617,2.7498291 3.6264051,6.2494872 h 1.6978824 l 2.91456,2.9145603 C 7.8670093,9.9241262 7.9873096,10.867394 8.6188845,11.498974 l 3.2016425,3.20164 c 0.399176,0.399181 1.044424,0.399181 1.440873,0 l 1.440873,-1.440873 c 0.396443,-0.399182 0.396443,-1.044432 0,-1.44088 z M 10.0707,7.1517446 c 0.773752,0 1.501023,0.3007461 2.047841,0.8475716 l 0.530418,0.5304124 C 13.08095,8.3410798 13.491066,8.078606 13.846498,7.7231679 14.860853,6.708813 15.205349,5.2816145 14.882725,3.9856466 14.82257,3.7395734 14.513618,3.6548188 14.333167,3.8352703 L 12.298993,5.8694448 10.442538,5.5604888 10.133582,3.7040334 12.167755,1.6698589 C 12.348207,1.4894074 12.260718,1.1804515 12.011915,1.1175686 10.715947,0.79767675 9.2887428,1.1421736 8.27712,2.1537952 7.497902,2.9330129 7.131529,3.9610361 7.1506678,4.9863269 L 9.3953684,7.2310281 C 9.6168375,7.1791004 9.8464975,7.1517444 10.0707,7.1517446 Z M 7.2299577,9.3937071 5.6797194,7.8434688 1.5129408,12.012987 c -0.68352635,0.683526 -0.68352635,1.79084 0,2.474367 0.6835272,0.683527 1.7908414,0.683527 2.4743677,0 L 7.366666,11.107997 C 7.158871,10.563909 7.0959891,9.970608 7.2299577,9.3937071 Z M 2.751491,13.904988 c -0.3609034,0 -0.6561844,-0.295287 -0.6561844,-0.656184 0,-0.363642 0.2925484,-0.65619 0.6561844,-0.65619 0.3636351,0 0.6561835,0.292548 0.6561835,0.65619 0,0.360897 -0.2925484,0.656184 -0.6561835,0.656184 z"
     id="path291"
     style="fill:#444444;fill-opacity:1;stroke-width:0.0273412" /></svg>
