<?xml version="1.0" encoding="UTF-8" standalone="no"?>
<svg
   width="16"
   height="16"
   version="1.1"
   id="svg4"
   sodipodi:docname="utilities-tweak-tool-symbolic-var.svg"
   xml:space="preserve"
   inkscape:version="1.2.1 (9c6d41e410, 2022-07-14)"
   xmlns:inkscape="http://www.inkscape.org/namespaces/inkscape"
   xmlns:sodipodi="http://sodipodi.sourceforge.net/DTD/sodipodi-0.dtd"
   xmlns="http://www.w3.org/2000/svg"
   xmlns:svg="http://www.w3.org/2000/svg"><defs
     id="defs8" /><sodipodi:namedview
     id="namedview6"
     pagecolor="#ffffff"
     bordercolor="#000000"
     borderopacity="0.25"
     inkscape:showpageshadow="2"
     inkscape:pageopacity="0.0"
     inkscape:pagecheckerboard="0"
     inkscape:deskcolor="#d1d1d1"
     showgrid="false"
     inkscape:zoom="22.693708"
     inkscape:cx="-6.0809806"
     inkscape:cy="8.6147225"
     inkscape:current-layer="svg4" /><path
     d="M 12.375,4.5000003 V 1.8750001 c 0,-0.483168 -0.391832,-0.8749999 -0.875,-0.8749999 H 1.8749998 c -0.483168,0 -0.87500005,0.3918319 -0.87500005,0.8749999 v 2.6250002 c 0,0.483168 0.39183205,0.875 0.87500005,0.875 H 11.5 c 0.483168,0 0.875,-0.391832 0.875,-0.875 z M 13.25,2.7500002 v 3.5000001 c 0,0.4831681 -0.391832,0.8750001 -0.875,0.8750001 H 7.9999998 c -0.966597,0 -1.75,0.7834027 -1.75,1.75 v 0.8749994 c -0.483168,0 -0.875,0.3918322 -0.875,0.8750002 v 3.5 c 0,0.483168 0.391832,0.875 0.875,0.875 h 1.75 c 0.483168,0 0.8750003,-0.391832 0.8750003,-0.875 v -3.5 c 0,-0.483168 -0.3918323,-0.8750002 -0.8750003,-0.8750002 V 8.8750004 H 12.375 c 1.449766,0 2.625,-1.1752347 2.625,-2.6250001 v -1.75 C 15,3.5334029 14.216598,2.7500002 13.25,2.7500002 Z"
     id="path129"
     style="fill:#444444;fill-opacity:1;stroke-width:0.0273438" /></svg>
