<?xml version="1.0" encoding="UTF-8" standalone="no"?>
<svg
   width="16"
   height="16"
   version="1.1"
   id="svg4"
   sodipodi:docname="utilities-tweak-tool-symbolic-var2.svg"
   xml:space="preserve"
   inkscape:version="1.2.1 (9c6d41e410, 2022-07-14)"
   xmlns:inkscape="http://www.inkscape.org/namespaces/inkscape"
   xmlns:sodipodi="http://sodipodi.sourceforge.net/DTD/sodipodi-0.dtd"
   xmlns="http://www.w3.org/2000/svg"
   xmlns:svg="http://www.w3.org/2000/svg"><defs
     id="defs8" /><sodipodi:namedview
     id="namedview6"
     pagecolor="#ffffff"
     bordercolor="#000000"
     borderopacity="0.25"
     inkscape:showpageshadow="2"
     inkscape:pageopacity="0.0"
     inkscape:pagecheckerboard="0"
     inkscape:deskcolor="#d1d1d1"
     showgrid="false"
     inkscape:zoom="32.09375"
     inkscape:cx="-7.3846154"
     inkscape:cy="7.369036"
     inkscape:current-layer="svg4" /><path
     d="M 14.883279,3.9831518 C 14.822053,3.7362383 14.513044,3.6525649 14.333126,3.8324837 L 12.299848,5.8657703 10.443755,5.5565101 10.134504,3.7004169 12.167781,1.6671396 C 12.348792,1.4861195 12.261561,1.17769 12.013016,1.115894 10.717465,0.79487375 9.2909484,1.140814 8.2784114,2.1530333 7.1945024,3.236942 6.8961814,4.808107 7.3473544,6.1780358 l -5.834877,5.8348682 c -0.68331201,0.683321 -0.68331201,1.791291 0,2.474604 0.683322,0.683323 1.791292,0.683323 2.474605,0 L 9.8170404,8.6575588 C 11.18751,9.1144724 12.755669,8.8128749 13.846681,7.7218542 14.86031,6.7082255 15.205662,5.2795153 14.883279,3.9831518 Z M 2.7500594,13.906181 c -0.36231,0 -0.656255,-0.293944 -0.656255,-0.656246 0,-0.362572 0.293945,-0.656246 0.656255,-0.656246 0.362302,0 0.656246,0.293674 0.656246,0.656246 0,0.362302 -0.293944,0.656246 -0.656246,0.656246 z"
     id="path661"
     style="fill:#444444;fill-opacity:1;stroke-width:0.0273437" /></svg>
