/* XPM */
static char * menu_inactive_xpm[] = {
"15 26 17 1",
" 	c None",
".	c #4E4E4E",
"+	c #505050",
"@	c #525252",
"#	c #555555",
"$	c #575757",
"%	c #5B5B5B",
"&	c #616161",
"*	c #696969",
"=	c #737373",
"-	c #7C7C7C",
";	c #888888",
">	c #989898",
",	c #A1A1A1",
"'	c #ABABAB",
")	c #B1B1B1",
"!	c #B6B6B6",
"               ",
"               ",
"               ",
"               ",
"               ",
"...............",
"+++++++++++++++",
"@@@@@@@@@@@@@@@",
"###############",
"$$$$$$$$$$$$$$$",
"%%%%%%%%%%%%%%%",
"&&&&&&&&&&&&&&&",
"***************",
"===============",
"---------------",
";;;;;;;;;;;;;;;",
">>>>>>>>>>>>>>>",
",,,,,,,,,,,,,,,",
"'''''''''''''''",
")))))))))))))))",
"!!!!!!!!!!!!!!!",
"               ",
"               ",
"               ",
"               ",
"               "};
