<svg id="레이어_1" data-name="레이어 1" xmlns="http://www.w3.org/2000/svg" viewBox="0 0 16 16"><defs><style>.cls-1{fill:#dedede;}</style></defs><title>audio-volume-overamplified-symbolic</title><g id="레이어_3" data-name="레이어 3"><path class="cls-1" d="M7.84,2.29,4.54,5.58H1.75a.3.3,0,0,0-.28.28h0V10.3a.27.27,0,0,0,.26.28h3l3.13,3.13a.16.16,0,0,0,.23,0h0a.18.18,0,0,0,.05-.12V2.41a.19.19,0,0,0-.1-.23A.18.18,0,0,0,7.84,2.29Z"/></g><rect class="cls-1" x="9.67" y="5.26" width="1.49" height="5.65"/><rect class="cls-1" x="12.43" y="3.1" width="1.5" height="9.9"/></svg>
