<?xml version="1.0" encoding="utf-8"?>
<!-- Generator: Adobe Illustrator 23.0.0, SVG Export Plug-In . SVG Version: 6.00 Build 0)  -->
<svg version="1.1"
	 id="svg6" inkscape:version="0.92.5 (2060ec1f9f, 2020-04-08)" sodipodi:docname="battery-level-10-symbolic.svg" xmlns:cc="http://creativecommons.org/ns#" xmlns:dc="http://purl.org/dc/elements/1.1/" xmlns:inkscape="http://www.inkscape.org/namespaces/inkscape" xmlns:rdf="http://www.w3.org/1999/02/22-rdf-syntax-ns#" xmlns:sodipodi="http://sodipodi.sourceforge.net/DTD/sodipodi-0.dtd" xmlns:svg="http://www.w3.org/2000/svg"
	 xmlns="http://www.w3.org/2000/svg" xmlns:xlink="http://www.w3.org/1999/xlink" x="0px" y="0px" viewBox="0 0 16 16"
	 style="enable-background:new 0 0 16 16;" xml:space="preserve">
<style type="text/css">
	.st0{opacity:0.35;fill:#dedede;enable-background:new    ;}
	.st1{fill:#E74C3C;}
</style>
<sodipodi:namedview  bordercolor="#666666" borderopacity="1" gridtolerance="10" guidetolerance="10" id="namedview8" inkscape:current-layer="svg6" inkscape:cx="4.4498734" inkscape:cy="9.4309353" inkscape:pageopacity="0" inkscape:pageshadow="2" inkscape:window-height="1612" inkscape:window-maximized="1" inkscape:window-width="2928" inkscape:window-x="144" inkscape:window-y="56" inkscape:zoom="41.7193" objecttolerance="10" pagecolor="#ffffff" showgrid="false">
	</sodipodi:namedview>
<path id="path2" inkscape:connector-curvature="0" sodipodi:nodetypes="cccsssscccc" class="st0" d="M6,1v1H3v12c0,0.6,0.4,1,1,1h8
	c0.6,0,1-0.4,1-1V2h-3V1H6z"/>
<path id="path4" class="st1" d="M3,13v1c0,0.6,0.4,1,1,1h8c0.6,0,1-0.4,1-1v-1H8H3z"/>
<g>
	<rect x="7.2" y="10.5" class="st1" width="1.5" height="1.5"/>
	<path class="st1" d="M8.7,10.1c-0.5,0-1,0-1.5,0c-0.2-2-0.3-4-0.5-6c0.8,0,1.7,0,2.5,0C9.1,6,8.9,8.1,8.7,10.1z"/>
</g>
</svg>
