<?xml version="1.0" encoding="utf-8"?>
<!-- Generator: Adobe Illustrator 23.0.0, SVG Export Plug-In . SVG Version: 6.00 Build 0)  -->
<!DOCTYPE svg PUBLIC "-//W3C//DTD SVG 1.1//EN" "http://www.w3.org/Graphics/SVG/1.1/DTD/svg11.dtd" [
	<!ENTITY ns_extend "http://ns.adobe.com/Extensibility/1.0/">
	<!ENTITY ns_ai "http://ns.adobe.com/AdobeIllustrator/10.0/">
	<!ENTITY ns_graphs "http://ns.adobe.com/Graphs/1.0/">
	<!ENTITY ns_vars "http://ns.adobe.com/Variables/1.0/">
	<!ENTITY ns_imrep "http://ns.adobe.com/ImageReplacement/1.0/">
	<!ENTITY ns_sfw "http://ns.adobe.com/SaveForWeb/1.0/">
	<!ENTITY ns_custom "http://ns.adobe.com/GenericCustomNamespace/1.0/">
	<!ENTITY ns_adobe_xpath "http://ns.adobe.com/XPath/1.0/">
]>
<svg version="1.1" id="레이어_1" xmlns:x="&ns_extend;" xmlns:i="&ns_ai;" xmlns:graph="&ns_graphs;"
	 xmlns="http://www.w3.org/2000/svg" xmlns:xlink="http://www.w3.org/1999/xlink" x="0px" y="0px" viewBox="0 0 16 16"
	 style="enable-background:new 0 0 16 16;" xml:space="preserve">
<style type="text/css">
	.st0{fill:#DEDEDE;}
</style>
<metadata>
	<sfw  xmlns="&ns_sfw;">
		<slices></slices>
		<sliceSourceBounds  bottomLeftOrigin="true" height="15.1" width="14.3" x="0.8" y="0.3"></sliceSourceBounds>
	</sfw>
</metadata>
<g>
	<path class="st0" d="M0.8,4.9c0-0.1,0-0.9,0.6-1.4C2,2.9,2.7,2.9,2.8,2.9v0c0.8,0,1.5,0,2.3,0v0h3.1c0.4,0,0.7,0,1.1,0
		c1.3,0,2.7,0,4,0c-0.5-0.5-1-1-1.5-1.5c-0.1-0.2-0.2-0.4-0.1-0.6c0.1-0.2,0.5-0.3,0.7-0.1c0.9,0.9,1.8,1.8,2.7,2.7
		c-0.9,0.9-1.8,1.8-2.7,2.7c-0.2,0.2-0.5,0.2-0.7,0c-0.2-0.2-0.2-0.5,0-0.7c0.5-0.5,1-1,1.5-1.5c-1.3,0-2.7,0-4,0
		c-0.4,0-0.7,0-1.1,0H6v0c-1.1,0-2.1,0-3.2,0c-0.2,0-0.4,0-0.7,0.3C1.9,4.3,1.9,4.6,1.8,4.9c0,1.5,0,3,0,4.4c0,0.3-0.2,0.6-0.5,0.6
		c-0.3,0-0.5-0.3-0.5-0.6C0.8,7.8,0.8,6.3,0.8,4.9z"/>
	<g>
		<path class="st0" d="M15.2,11.3c0,0.1,0,0.9-0.6,1.4c-0.6,0.6-1.3,0.6-1.4,0.6v0c-0.8,0-1.5,0-2.3,0v0H7.8c-0.4,0-0.7,0-1.1,0
			c-1.3,0-2.7,0-4,0c0.5,0.5,1,1,1.5,1.5c0.1,0.2,0.2,0.4,0.1,0.6c-0.1,0.2-0.5,0.3-0.7,0.1c-0.9-0.9-1.8-1.8-2.7-2.7
			c0.9-0.9,1.8-1.8,2.7-2.7c0.2-0.2,0.5-0.2,0.7,0c0.2,0.2,0.2,0.5,0,0.7c-0.5,0.5-1,1-1.5,1.5c1.3,0,2.7,0,4,0c0.4,0,0.7,0,1.1,0
			H10v0c1.1,0,2.1,0,3.2,0c0.2,0,0.4,0,0.7-0.3c0.2-0.2,0.3-0.5,0.3-0.7c0-1.5,0-3,0-4.4c0-0.3,0.2-0.6,0.5-0.6
			c0.3,0,0.5,0.3,0.5,0.6C15.2,8.4,15.2,9.9,15.2,11.3z"/>
	</g>
</g>
<g>
	<path class="st0" d="M8.7,5.2v6h-1v-5L6.4,6.7L6.1,5.9l1.8-0.7H8.7z"/>
</g>
</svg>
