<?xml version="1.0" encoding="utf-8"?>
<!-- Generator: Adobe Illustrator 23.0.0, SVG Export Plug-In . SVG Version: 6.00 Build 0)  -->
<!DOCTYPE svg PUBLIC "-//W3C//DTD SVG 1.1//EN" "http://www.w3.org/Graphics/SVG/1.1/DTD/svg11.dtd" [
	<!ENTITY ns_extend "http://ns.adobe.com/Extensibility/1.0/">
	<!ENTITY ns_ai "http://ns.adobe.com/AdobeIllustrator/10.0/">
	<!ENTITY ns_graphs "http://ns.adobe.com/Graphs/1.0/">
	<!ENTITY ns_vars "http://ns.adobe.com/Variables/1.0/">
	<!ENTITY ns_imrep "http://ns.adobe.com/ImageReplacement/1.0/">
	<!ENTITY ns_sfw "http://ns.adobe.com/SaveForWeb/1.0/">
	<!ENTITY ns_custom "http://ns.adobe.com/GenericCustomNamespace/1.0/">
	<!ENTITY ns_adobe_xpath "http://ns.adobe.com/XPath/1.0/">
]>
<svg version="1.1" id="레이어_1" xmlns:x="&ns_extend;" xmlns:i="&ns_ai;" xmlns:graph="&ns_graphs;"
	 xmlns="http://www.w3.org/2000/svg" xmlns:xlink="http://www.w3.org/1999/xlink" x="0px" y="0px" viewBox="0 0 16 16"
	 style="enable-background:new 0 0 16 16;" xml:space="preserve">
<style type="text/css">
	.st0{fill:#DEDEDE;}
</style>
<metadata>
	<sfw  xmlns="&ns_sfw;">
		<slices></slices>
		<sliceSourceBounds  bottomLeftOrigin="true" height="14.8" width="14.7" x="0.6" y="0.8"></sliceSourceBounds>
	</sfw>
</metadata>
<path class="st0" d="M0.9,15.1L0.9,15.1c0.2,0.2,0.6,0.2,0.8,0L15.1,1.8c0.2-0.2,0.2-0.6,0-0.8l0,0c-0.2-0.2-0.6-0.2-0.8,0L0.9,14.2
	C0.7,14.5,0.7,14.8,0.9,15.1z"/>
<g>
	<g>
		<path class="st0" d="M8,9.1C7.8,8.8,7.6,8.4,7.3,8c0,0,0,0,0,0c0,0,0,0,0-0.1c0,0,0,0,0,0l0,0c-1.2-2.1-2-3.5-2.1-3.7
			C5.1,4.1,5,4,4.9,3.9C4.7,3.8,4.5,3.8,4.4,3.8c-0.6,0-1.3,0-1.9,0c0.5,0.5,1,1,1.5,1.5C4.2,5.5,4.2,5.8,4,6C3.8,6.2,3.5,6.2,3.3,6
			C2.4,5.1,1.5,4.2,0.6,3.3c0.9-0.9,1.8-1.8,2.7-2.7C3.5,0.4,3.9,0.5,4,0.7s0,0.4-0.1,0.6c-0.5,0.5-1,1-1.5,1.5c0.7,0,1.3,0,2,0
			c0.2,0,0.6,0,1.1,0.3c0.4,0.2,0.6,0.6,0.7,0.7C7,5.2,7.9,6.7,8.7,8.1c1.1,1.9,1.9,3.2,2.1,3.6c0,0.1,0.1,0.2,0.3,0.3
			c0.2,0.1,0.4,0.2,0.5,0.2c1.1,0,2.2,0,3.3,0c0.2,0,0.4,0.3,0.4,0.5c0,0.2-0.2,0.5-0.4,0.5c-1.2,0-2.4,0-3.6,0
			c-0.2,0-0.5-0.1-0.8-0.3c-0.3-0.1-0.5-0.3-0.6-0.4C9.2,11.3,8.6,10.1,8,9.1C8,9.1,8,9.1,8,9.1z"/>
		<path class="st0" d="M4,9.2c0.2,0.2,0.2,0.5,0,0.7c-0.5,0.5-1,1-1.5,1.5c-0.2,0.2-0.4,0.3-0.6,0.5c0.2,0.2,0.4,0.3,0.5,0.5
			c0.5,0.5,1,1,1.5,1.5C4,14.1,4.1,14.3,4,14.5s-0.5,0.3-0.7,0.1c-0.9-0.9-1.8-1.8-2.7-2.7c0.9-0.9,1.8-1.8,2.7-2.7
			C3.5,9,3.8,9,4,9.2z"/>
	</g>
	<path class="st0" d="M14.9,3.8c-0.6,0-1.3,0-1.9,0c0.3-0.3,0.7-0.7,1-1c0.3,0,0.6,0,0.9,0c0.2,0,0.4,0.3,0.4,0.5
		C15.4,3.6,15.2,3.8,14.9,3.8z"/>
</g>
</svg>
