<?xml version="1.0" encoding="utf-8"?>
<!-- Generator: Adobe Illustrator 23.0.0, SVG Export Plug-In . SVG Version: 6.00 Build 0)  -->
<!DOCTYPE svg PUBLIC "-//W3C//DTD SVG 1.1//EN" "http://www.w3.org/Graphics/SVG/1.1/DTD/svg11.dtd" [
	<!ENTITY ns_extend "http://ns.adobe.com/Extensibility/1.0/">
	<!ENTITY ns_ai "http://ns.adobe.com/AdobeIllustrator/10.0/">
	<!ENTITY ns_graphs "http://ns.adobe.com/Graphs/1.0/">
	<!ENTITY ns_vars "http://ns.adobe.com/Variables/1.0/">
	<!ENTITY ns_imrep "http://ns.adobe.com/ImageReplacement/1.0/">
	<!ENTITY ns_sfw "http://ns.adobe.com/SaveForWeb/1.0/">
	<!ENTITY ns_custom "http://ns.adobe.com/GenericCustomNamespace/1.0/">
	<!ENTITY ns_adobe_xpath "http://ns.adobe.com/XPath/1.0/">
]>
<svg version="1.1" id="레이어_1" xmlns:x="&ns_extend;" xmlns:i="&ns_ai;" xmlns:graph="&ns_graphs;"
	 xmlns="http://www.w3.org/2000/svg" xmlns:xlink="http://www.w3.org/1999/xlink" x="0px" y="0px" viewBox="0 0 16 16"
	 style="enable-background:new 0 0 16 16;" xml:space="preserve">
<style type="text/css">
	.st0{fill:#DEDEDE;}
</style>
<metadata>
	<sfw  xmlns="&ns_sfw;">
		<slices></slices>
		<sliceSourceBounds  bottomLeftOrigin="true" height="12.9" width="14" x="1.1" y="1"></sliceSourceBounds>
	</sfw>
</metadata>
<path class="st0" d="M10.5,8.1H7.5L7,9.9H5.6l2.7-7.8h1.4l2.7,7.8H11L10.5,8.1z M10.1,7L9,3.4L7.9,7H10.1z"/>
<path class="st0" d="M3.8,9.4c0.3-0.2,0.6-0.1,0.7,0.1c0.1,0.2,0.1,0.4-0.1,0.6c-0.5,0.5-1,1-1.5,1.5c4.1,0,8.1,0,12.2,0
	c0,0.3,0,0.7,0,1c-4.1,0-8.1,0-12.2,0c0.5,0.5,1,1,1.5,1.5c0.2,0.2,0.2,0.5,0,0.7c-0.2,0.2-0.5,0.2-0.7,0c-0.9-0.9-1.8-1.8-2.7-2.7
	C2,11.2,2.9,10.3,3.8,9.4z"/>
</svg>
