<?xml version="1.0" encoding="UTF-8" standalone="no"?>
<!-- Created with Inkscape (http://www.inkscape.org/) -->

<svg
   xmlns:dc="http://purl.org/dc/elements/1.1/"
   xmlns:cc="http://creativecommons.org/ns#"
   xmlns:rdf="http://www.w3.org/1999/02/22-rdf-syntax-ns#"
   xmlns:svg="http://www.w3.org/2000/svg"
   xmlns="http://www.w3.org/2000/svg"
   xmlns:sodipodi="http://sodipodi.sourceforge.net/DTD/sodipodi-0.dtd"
   xmlns:inkscape="http://www.inkscape.org/namespaces/inkscape"
   width="16"
   height="16"
   viewBox="0 0 4.2333332 4.2333332"
   version="1.1"
   id="svg8"
   inkscape:version="0.92.5 (2060ec1f9f, 2020-04-08)"
   sodipodi:docname="network-wired-secure-symbolic.svg">
  <defs
     id="defs2" />
  <sodipodi:namedview
     id="base"
     pagecolor="#ffffff"
     bordercolor="#666666"
     borderopacity="1.0"
     inkscape:pageopacity="0.0"
     inkscape:pageshadow="2"
     inkscape:zoom="15.839192"
     inkscape:cx="38.157913"
     inkscape:cy="-1.1536345"
     inkscape:document-units="mm"
     inkscape:current-layer="layer1"
     showgrid="false"
     units="px"
     inkscape:window-width="1848"
     inkscape:window-height="1019"
     inkscape:window-x="72"
     inkscape:window-y="31"
     inkscape:window-maximized="1" />
  <metadata
     id="metadata5">
    <rdf:RDF>
      <cc:Work
         rdf:about="">
        <dc:format>image/svg+xml</dc:format>
        <dc:type
           rdf:resource="http://purl.org/dc/dcmitype/StillImage" />
        <dc:title></dc:title>
      </cc:Work>
    </rdf:RDF>
  </metadata>
  <g
     inkscape:label="Layer 1"
     inkscape:groupmode="layer"
     id="layer1"
     transform="translate(0,-292.76667)">
    <g
       id="g4690"
       transform="matrix(0.79999995,0,0,0.79999995,-38.987834,94.374187)">
      <path
         inkscape:connector-curvature="0"
         id="rect815-3"
         d="m 52.89152,251.77135 0.862562,-0.86256 0.272381,-0.27238 -0.272393,-0.2724 -0.86255,-0.86255 -0.272382,0.27238 0.862551,0.86255 -0.862563,0.86257 z"
         style="opacity:1;fill:#dedede;fill-opacity:1;stroke-width:0.00888002" />
      <path
         inkscape:connector-curvature="0"
         id="rect815-7-5"
         d="m 49.869739,251.77135 -0.862562,-0.86256 -0.272381,-0.27238 0.272393,-0.2724 0.86255,-0.86255 0.272381,0.27238 -0.86255,0.86255 0.862562,0.86257 z"
         style="opacity:1;fill:#dedede;fill-opacity:1;stroke-width:0.00888002" />
    </g>
    <g
       id="g4983"
       transform="matrix(0.26458333,0,0,0.26458333,-93.094642,409.36876)">
      <path
         style="color:#000000;fill:#dedede;stroke-width:0.5;enable-background:accumulate"
         d="m 359.85377,-436.2008 c -1.108,0 -2,0.9108 -2,2.03125 v 0.96875 h -0.38476 -0.61524 v 3.5 0.5 h 0.5 5 0.5 v -0.5 -3 -0.5 h -0.5 -0.5 v -0.96875 c 0,-1.12 -0.892,-2.03125 -2,-2.03125 z m 0,1 c 0.554,0 1,0.446 1,1 v 1 h -2 v -1 c 0,-0.554 0.446,-1 1,-1 z"
         id="path4981"
         inkscape:connector-curvature="0" />
    </g>
  </g>
</svg>
