<?xml version="1.0" encoding="UTF-8" standalone="no"?>
<!-- Created with Inkscape (http://www.inkscape.org/) -->

<svg
   xmlns:dc="http://purl.org/dc/elements/1.1/"
   xmlns:cc="http://creativecommons.org/ns#"
   xmlns:rdf="http://www.w3.org/1999/02/22-rdf-syntax-ns#"
   xmlns:svg="http://www.w3.org/2000/svg"
   xmlns="http://www.w3.org/2000/svg"
   xmlns:sodipodi="http://sodipodi.sourceforge.net/DTD/sodipodi-0.dtd"
   xmlns:inkscape="http://www.inkscape.org/namespaces/inkscape"
   width="16"
   height="16"
   viewBox="0 0 4.2333332 4.2333332"
   version="1.1"
   id="svg8"
   inkscape:version="0.92.5 (2060ec1f9f, 2020-04-08)"
   sodipodi:docname="network-wired-no-route-symbolic.svg">
  <defs
     id="defs2" />
  <sodipodi:namedview
     id="base"
     pagecolor="#ffffff"
     bordercolor="#666666"
     borderopacity="1.0"
     inkscape:pageopacity="0.0"
     inkscape:pageshadow="2"
     inkscape:zoom="15.839192"
     inkscape:cx="38.157913"
     inkscape:cy="-1.1536345"
     inkscape:document-units="mm"
     inkscape:current-layer="layer1"
     showgrid="false"
     units="px"
     inkscape:window-width="1848"
     inkscape:window-height="1019"
     inkscape:window-x="72"
     inkscape:window-y="31"
     inkscape:window-maximized="1" />
  <metadata
     id="metadata5">
    <rdf:RDF>
      <cc:Work
         rdf:about="">
        <dc:format>image/svg+xml</dc:format>
        <dc:type
           rdf:resource="http://purl.org/dc/dcmitype/StillImage" />
        <dc:title></dc:title>
      </cc:Work>
    </rdf:RDF>
  </metadata>
  <g
     inkscape:label="Layer 1"
     inkscape:groupmode="layer"
     id="layer1"
     transform="translate(0,-292.76667)">
    <g
       id="g4690"
       transform="matrix(0.79999995,0,0,0.79999995,-38.987834,94.374187)">
      <path
         inkscape:connector-curvature="0"
         id="rect815-3"
         d="m 52.89152,251.77135 0.862562,-0.86256 0.272381,-0.27238 -0.272393,-0.2724 -0.86255,-0.86255 -0.272382,0.27238 0.862551,0.86255 -0.862563,0.86257 z"
         style="opacity:1;fill:#dedede;fill-opacity:1;stroke-width:0.00888002" />
      <path
         inkscape:connector-curvature="0"
         id="rect815-7-5"
         d="m 49.869739,251.77135 -0.862562,-0.86256 -0.272381,-0.27238 0.272393,-0.2724 0.86255,-0.86255 0.272381,0.27238 -0.86255,0.86255 0.862562,0.86257 z"
         style="opacity:1;fill:#dedede;fill-opacity:1;stroke-width:0.00888002" />
    </g>
    <g
       id="g5252"
       transform="matrix(0.26370057,0,0,0.26370057,0.00706209,292.7769)"
       style="fill:#dedede;fill-opacity:1">
      <g
         id="g5230"
         transform="translate(0,2)"
         style="fill:#dedede;stroke-width:1.5;fill-opacity:1" />
      <path
         id="path5232"
         d="m 7.9948,4 c 0.65763,0 1.1922,0.19569 1.6041,0.58594 0.41192,0.38302 0.61719,0.87414 0.61719,1.474 0,0.26016 -0.06843,0.52428 -0.20573,0.79167 C 9.87305,7.119 9.75157,7.30891 9.64317,7.42453 9.542,7.53293 9.39617,7.67557 9.20827,7.84901 L 9.15619,7.903698 c -0.44083,0.39747 -0.66147,0.79263 -0.66147,1.1901 v 0.4349 h -1.0208 v -0.51042 c 0,-0.3252 0.068422,-0.60208 0.20573,-0.83334 0.13731,-0.23848 0.37968,-0.51796 0.72656,-0.83594 0.19512,-0.18067 0.33196,-0.31432 0.41146,-0.40104 0.08672,-0.093949 0.17051,-0.21861 0.25,-0.3776 0.086721,-0.16621 0.13021,-0.33698 0.13021,-0.51042 0,-0.33243 -0.10872,-0.59974 -0.32552,-0.80209 -0.20957,-0.20235 -0.50182,-0.3047 -0.87761,-0.3047 -0.6215,0 -1.0474,0.3479 -1.2786,1.0417 l -0.9323,-0.39063 c 0.15176,-0.41192 0.41268,-0.78158 0.78126,-1.1068 0.37579,-0.33243 0.85155,-0.4974 1.4297,-0.4974 z m -0.0104,6.526 c 0.20957,0 0.38352,0.07161 0.52083,0.21615 0.14453,0.14454 0.21615,0.31848 0.21615,0.52083 0,0.20235 -0.071614,0.3763 -0.21615,0.52083 -0.13731,0.14453 -0.31127,0.21615 -0.52084,0.21615 -0.20957,0 -0.38672,-0.07161 -0.53126,-0.21615 C 7.31582,11.63927 7.2474,11.46533 7.2474,11.26298 c 0,-0.20235 0.068422,-0.3763 0.20573,-0.52083 C 7.59766,10.59762 7.77481,10.526 7.98439,10.526 Z"
         inkscape:connector-curvature="0"
         style="fill:#dedede;enable-background:new;fill-opacity:1" />
    </g>
  </g>
</svg>
