<?xml version="1.0" encoding="UTF-8" standalone="no"?>
<svg
   xmlns:dc="http://purl.org/dc/elements/1.1/"
   xmlns:cc="http://creativecommons.org/ns#"
   xmlns:rdf="http://www.w3.org/1999/02/22-rdf-syntax-ns#"
   xmlns:svg="http://www.w3.org/2000/svg"
   xmlns="http://www.w3.org/2000/svg"
   xmlns:xlink="http://www.w3.org/1999/xlink"
   xmlns:sodipodi="http://sodipodi.sourceforge.net/DTD/sodipodi-0.dtd"
   xmlns:inkscape="http://www.inkscape.org/namespaces/inkscape"
   width="64"
   height="64"
   viewBox="0 0 64 64"
   version="1.1"
   id="svg216"
   sodipodi:docname="accessories-camera.svg"
   inkscape:version="1.0.1 (3bc2e813f5, 2020-09-07)">
  <metadata
     id="metadata220">
    <rdf:RDF>
      <cc:Work
         rdf:about="">
        <dc:format>image/svg+xml</dc:format>
        <dc:type
           rdf:resource="http://purl.org/dc/dcmitype/StillImage" />
        <dc:title>deepin-camera/512</dc:title>
      </cc:Work>
    </rdf:RDF>
  </metadata>
  <sodipodi:namedview
     pagecolor="#ffffff"
     bordercolor="#666666"
     borderopacity="1"
     objecttolerance="10"
     gridtolerance="10"
     guidetolerance="10"
     inkscape:pageopacity="0"
     inkscape:pageshadow="2"
     inkscape:window-width="1920"
     inkscape:window-height="1031"
     id="namedview218"
     showgrid="false"
     inkscape:zoom="6.015625"
     inkscape:cx="41.871792"
     inkscape:cy="59.504232"
     inkscape:window-x="0"
     inkscape:window-y="24"
     inkscape:window-maximized="1"
     inkscape:current-layer="svg216" />
  <title
     id="title2">deepin-camera/512</title>
  <defs
     id="defs157">
    <filter
       x="-0.122"
       y="-0.124"
       width="1.243"
       height="1.2509999"
       filterUnits="objectBoundingBox"
       id="filter-1">
      <feOffset
         dx="0"
         dy="8"
         in="SourceAlpha"
         result="shadowOffsetOuter1"
         id="feOffset4" />
      <feGaussianBlur
         stdDeviation="10"
         in="shadowOffsetOuter1"
         result="shadowBlurOuter1"
         id="feGaussianBlur6" />
      <feColorMatrix
         values="0 0 0 0 0   0 0 0 0 0   0 0 0 0 0  0 0 0 0.2 0"
         type="matrix"
         in="shadowBlurOuter1"
         result="shadowMatrixOuter1"
         id="feColorMatrix8" />
      <feMerge
         id="feMerge14">
        <feMergeNode
           in="shadowMatrixOuter1"
           id="feMergeNode10" />
        <feMergeNode
           in="SourceGraphic"
           id="feMergeNode12" />
      </feMerge>
    </filter>
    <linearGradient
       x1="72.270663"
       y1="2.0480514"
       x2="72.270663"
       y2="48.372277"
       id="linearGradient-2"
       gradientTransform="scale(1.5055453,0.66421116)"
       gradientUnits="userSpaceOnUse">
      <stop
         stop-color="#E6E6E6"
         offset="0%"
         id="stop17" />
      <stop
         stop-color="#BDBDB6"
         offset="100%"
         id="stop19" />
    </linearGradient>
    <path
       d="M 75.367544,10.897367 76.5,7.5 C 77.992976,3.0210728 82.18449,0 86.905694,0 h 51.188616 c 4.7212,0 8.91271,3.0210728 10.40569,7.5 l 1.13246,3.397367 C 150.44914,13.347419 152.74197,15 155.32455,15 H 162 v 0 30 H 60 V 15 h 9.675445 c 2.582582,0 4.875415,-1.652581 5.692099,-4.102633 z"
       id="path-3" />
    <filter
       x="-0.029000001"
       y="-0.067000002"
       width="1.059"
       height="1.133"
       filterUnits="objectBoundingBox"
       id="filter-4">
      <feOffset
         dx="0"
         dy="-6"
         in="SourceAlpha"
         result="shadowOffsetInner1"
         id="feOffset23" />
      <feComposite
         in="shadowOffsetInner1"
         in2="SourceAlpha"
         operator="arithmetic"
         k2="-1"
         k3="1"
         result="shadowInnerInner1"
         id="feComposite25"
         k1="0"
         k4="0" />
      <feColorMatrix
         values="0 0 0 0 0.129698822   0 0 0 0 0.129698822   0 0 0 0 0.129698822  0 0 0 0.3 0"
         type="matrix"
         in="shadowInnerInner1"
         id="feColorMatrix27" />
    </filter>
    <linearGradient
       x1="206.63121"
       y1="49.815171"
       x2="215.76216"
       y2="407.01797"
       id="linearGradient-5"
       gradientTransform="scale(1.0281745,0.97259753)"
       gradientUnits="userSpaceOnUse">
      <stop
         stop-color="#F3F3F3"
         offset="0%"
         id="stop30" />
      <stop
         stop-color="#BDBDB6"
         offset="100%"
         id="stop32" />
    </linearGradient>
    <path
       d="m 444,71 v 308 c 0,30.92795 -25.07205,56 -56,56 H 56 C 25.072054,435 0,409.92795 0,379 V 71 C 0,40.072054 25.072054,15 56,15 h 332 c 30.92795,0 56,25.072054 56,56 z"
       id="path-6" />
    <filter
       x="-0.0069999998"
       y="-0.0069999998"
       width="1.0140001"
       height="1.0140001"
       filterUnits="objectBoundingBox"
       id="filter-7">
      <feOffset
         dx="0"
         dy="-6"
         in="SourceAlpha"
         result="shadowOffsetInner1"
         id="feOffset36" />
      <feComposite
         in="shadowOffsetInner1"
         in2="SourceAlpha"
         operator="arithmetic"
         k2="-1"
         k3="1"
         result="shadowInnerInner1"
         id="feComposite38"
         k1="0"
         k4="0" />
      <feColorMatrix
         values="0 0 0 0 0.129698822   0 0 0 0 0.129698822   0 0 0 0 0.129698822  0 0 0 0.3 0"
         type="matrix"
         in="shadowInnerInner1"
         id="feColorMatrix40" />
    </filter>
    <linearGradient
       x1="48.61149"
       y1="71.873317"
       x2="48.61149"
       y2="108.91373"
       id="linearGradient-8"
       gradientTransform="scale(1.3165612,0.75955453)"
       gradientUnits="userSpaceOnUse">
      <stop
         stop-color="#B8B8B8"
         stop-opacity="0.706710282"
         offset="0%"
         id="stop43" />
      <stop
         stop-color="#A3A3A3"
         stop-opacity="0.755707427"
         offset="52.3746517%"
         id="stop45" />
      <stop
         stop-color="#707070"
         stop-opacity="0.349653764"
         offset="100%"
         id="stop47" />
    </linearGradient>
    <rect
       id="path-9"
       x="38"
       y="54"
       width="52"
       height="30"
       rx="6" />
    <filter
       x="-0.192"
       y="-0.26700002"
       width="1.385"
       height="1.6669999"
       filterUnits="objectBoundingBox"
       id="filter-10">
      <feOffset
         dx="0"
         dy="2"
         in="SourceAlpha"
         result="shadowOffsetOuter1"
         id="feOffset51" />
      <feGaussianBlur
         stdDeviation="3"
         in="shadowOffsetOuter1"
         result="shadowBlurOuter1"
         id="feGaussianBlur53" />
      <feComposite
         in="shadowBlurOuter1"
         in2="SourceAlpha"
         operator="out"
         result="shadowBlurOuter1"
         id="feComposite55" />
      <feColorMatrix
         values="0 0 0 0 0   0 0 0 0 0   0 0 0 0 0  0 0 0 0.0778313483 0"
         type="matrix"
         in="shadowBlurOuter1"
         id="feColorMatrix57" />
    </filter>
    <linearGradient
       x1="31.228802"
       y1="119.03975"
       x2="31.228802"
       y2="139.35853"
       id="linearGradient-11"
       gradientTransform="scale(2.0493902,0.48795004)"
       gradientUnits="userSpaceOnUse">
      <stop
         stop-color="#FFFFFF"
         offset="0%"
         id="stop60" />
      <stop
         stop-color="#FFFFFF"
         stop-opacity="0.676950735"
         offset="100%"
         id="stop62" />
    </linearGradient>
    <radialGradient
       cx="24.094087"
       cy="12.968118"
       fx="24.094087"
       fy="12.968118"
       r="31.659865"
       id="radialGradient-12"
       gradientUnits="userSpaceOnUse">
      <stop
         stop-color="#FE8C6C"
         offset="0%"
         id="stop65" />
      <stop
         stop-color="#EC3E3E"
         offset="100%"
         id="stop67" />
    </radialGradient>
    <circle
       id="path-13"
       cx="24"
       cy="24"
       r="17" />
    <filter
       x="-0.294"
       y="-0.235"
       width="1.5880001"
       height="1.5880001"
       filterUnits="objectBoundingBox"
       id="filter-14">
      <feOffset
         dx="0"
         dy="2"
         in="SourceAlpha"
         result="shadowOffsetOuter1"
         id="feOffset71" />
      <feGaussianBlur
         stdDeviation="3"
         in="shadowOffsetOuter1"
         result="shadowBlurOuter1"
         id="feGaussianBlur73" />
      <feColorMatrix
         values="0 0 0 0 0   0 0 0 0 0   0 0 0 0 0  0 0 0 0.26133632 0"
         type="matrix"
         in="shadowBlurOuter1"
         id="feColorMatrix75" />
    </filter>
    <filter
       x="-0.16600001"
       y="-0.16600001"
       width="1.3310001"
       height="1.3310001"
       filterUnits="objectBoundingBox"
       id="filter-15">
      <feOffset
         dx="0"
         dy="4"
         in="SourceAlpha"
         result="shadowOffsetOuter1"
         id="feOffset78" />
      <feGaussianBlur
         stdDeviation="9"
         in="shadowOffsetOuter1"
         result="shadowBlurOuter1"
         id="feGaussianBlur80" />
      <feColorMatrix
         values="0 0 0 0 0   0 0 0 0 0   0 0 0 0 0  0 0 0 0.3 0"
         type="matrix"
         in="shadowBlurOuter1"
         result="shadowMatrixOuter1"
         id="feColorMatrix82" />
      <feMerge
         id="feMerge88">
        <feMergeNode
           in="shadowMatrixOuter1"
           id="feMergeNode84" />
        <feMergeNode
           in="SourceGraphic"
           id="feMergeNode86" />
      </feMerge>
    </filter>
    <linearGradient
       x1="160.09752"
       y1="69.806306"
       x2="160.09752"
       y2="265.55344"
       id="linearGradient-16"
       gradientTransform="scale(1.004158,0.99585918)"
       gradientUnits="userSpaceOnUse">
      <stop
         stop-color="#0F0E12"
         offset="0%"
         id="stop91" />
      <stop
         stop-color="#2A272D"
         offset="100%"
         id="stop93" />
    </linearGradient>
    <linearGradient
       x1="160"
       y1="1.7963923"
       x2="160"
       y2="328.57618"
       id="linearGradient-17"
       gradientUnits="userSpaceOnUse">
      <stop
         stop-color="#777777"
         offset="0%"
         id="stop96" />
      <stop
         stop-color="#3D3D3D"
         offset="40.4098831%"
         id="stop98" />
      <stop
         stop-color="#383838"
         offset="74.0343641%"
         id="stop100" />
      <stop
         stop-color="#343434"
         offset="100%"
         id="stop102" />
    </linearGradient>
    <linearGradient
       x1="160"
       y1="-4.1969995"
       x2="160"
       y2="329.55209"
       id="linearGradient-18"
       gradientUnits="userSpaceOnUse">
      <stop
         stop-color="#FFFFFF"
         offset="0%"
         id="stop105" />
      <stop
         stop-color="#D7D7D7"
         offset="32.7551355%"
         id="stop107" />
      <stop
         stop-color="#D6D6D6"
         offset="75.9314904%"
         id="stop109" />
      <stop
         stop-color="#CCCCCC"
         offset="100%"
         id="stop111" />
    </linearGradient>
    <radialGradient
       cx="160"
       cy="258.63733"
       fx="160"
       fy="258.63733"
       r="55.364319"
       id="radialGradient-19"
       gradientUnits="userSpaceOnUse"
       gradientTransform="matrix(2.1930861,0,0,1.3840925,-190.89377,-99.340651)">
      <stop
         stop-color="#7066AE"
         offset="0%"
         id="stop114" />
      <stop
         stop-color="#232327"
         offset="100%"
         id="stop116" />
    </radialGradient>
    <linearGradient
       x1="160"
       y1="47.438332"
       x2="160"
       y2="269.93248"
       id="linearGradient-20"
       gradientUnits="userSpaceOnUse">
      <stop
         stop-color="#9CEAB0"
         stop-opacity="0.020301232"
         offset="0%"
         id="stop119" />
      <stop
         stop-color="#736FD8"
         stop-opacity="0.0890362079"
         offset="100%"
         id="stop121" />
    </linearGradient>
    <path
       d="m 160,41 c 65.72188,0 119,53.278115 119,119 0,65.72188 -53.27812,119 -119,119 C 94.278115,279 41,225.72188 41,160 41,94.278115 94.278115,41 160,41 Z m 0,29 c -49.70563,0 -90,40.29437 -90,90 0,49.70563 40.29437,90 90,90 49.70563,0 90,-40.29437 90,-90 0,-49.70563 -40.29437,-90 -90,-90 z"
       id="path-21" />
    <radialGradient
       cx="160"
       cy="221.86451"
       fx="160"
       fy="221.86451"
       r="35.195363"
       id="radialGradient-22"
       gradientUnits="userSpaceOnUse">
      <stop
         stop-color="#8784DE"
         offset="0%"
         id="stop125" />
      <stop
         stop-color="#232129"
         offset="100%"
         id="stop127" />
    </radialGradient>
    <circle
       id="path-23"
       cx="160"
       cy="160"
       r="75" />
    <linearGradient
       x1="160"
       y1="68.494807"
       x2="172.48435"
       y2="219.41379"
       id="linearGradient-24"
       gradientUnits="userSpaceOnUse">
      <stop
         stop-color="#5B0386"
         offset="0%"
         id="stop131" />
      <stop
         stop-color="#9F28A1"
         offset="17.0101139%"
         id="stop133" />
      <stop
         stop-color="#622C81"
         offset="39.318933%"
         id="stop135" />
      <stop
         stop-color="#71BDD2"
         offset="74.0890347%"
         id="stop137" />
      <stop
         stop-color="#5A38AA"
         offset="100%"
         id="stop139" />
    </linearGradient>
    <linearGradient
       x1="160.17893"
       y1="128.51472"
       x2="164.83838"
       y2="194.00001"
       id="linearGradient-25"
       gradientUnits="userSpaceOnUse">
      <stop
         stop-color="#CD66E0"
         offset="0%"
         id="stop142" />
      <stop
         stop-color="#1F296C"
         offset="43.5095872%"
         id="stop144" />
      <stop
         stop-color="#6BD9F6"
         offset="100%"
         id="stop146" />
    </linearGradient>
    <linearGradient
       x1="57.81721"
       y1="1.1496333"
       x2="57.81721"
       y2="67.547715"
       id="linearGradient-26"
       gradientTransform="scale(1.1934163,0.83793058)"
       gradientUnits="userSpaceOnUse">
      <stop
         stop-color="#FFFFFF"
         stop-opacity="0.900376967"
         offset="0%"
         id="stop149" />
      <stop
         stop-color="#FFFFFF"
         stop-opacity="0"
         offset="100%"
         id="stop151" />
    </linearGradient>
    <filter
       x="-0.62099999"
       y="-0.472"
       width="2.243"
       height="1.9439999"
       filterUnits="objectBoundingBox"
       id="filter-27">
      <feGaussianBlur
         stdDeviation="14"
         in="SourceGraphic"
         id="feGaussianBlur154" />
    </filter>
  </defs>
  <g
     id="deepin-camera/512"
     stroke="none"
     stroke-width="1"
     fill="none"
     fill-rule="evenodd"
     transform="matrix(0.12284982,0,0,0.12284982,0.23024112,0.52384697)">
    <g
       id="编组-4"
       filter="url(#filter-1)"
       transform="translate(34,34)">
      <g
         id="编组">
        <g
           id="路径">
          <use
             fill="url(#linearGradient-2)"
             fill-rule="evenodd"
             xlink:href="#path-3"
             id="use159"
             x="0"
             y="0"
             width="100%"
             height="100%"
             style="fill:url(#linearGradient-2)" />
          <use
             fill="#000000"
             fill-opacity="1"
             filter="url(#filter-4)"
             xlink:href="#path-3"
             id="use161"
             x="0"
             y="0"
             width="100%"
             height="100%" />
        </g>
        <g
           id="g168">
          <use
             fill="url(#linearGradient-5)"
             fill-rule="evenodd"
             xlink:href="#path-6"
             id="use164"
             x="0"
             y="0"
             width="100%"
             height="100%"
             style="fill:url(#linearGradient-5)" />
          <use
             fill="#000000"
             fill-opacity="1"
             filter="url(#filter-7)"
             xlink:href="#path-6"
             id="use166"
             x="0"
             y="0"
             width="100%"
             height="100%" />
        </g>
        <rect
           id="矩形"
           fill="#ffffff"
           x="30"
           y="45"
           width="68"
           height="47"
           rx="16" />
        <g
           id="g175"
           opacity="0.580419">
          <use
             fill="#000000"
             fill-opacity="1"
             filter="url(#filter-10)"
             xlink:href="#path-9"
             id="use171"
             x="0"
             y="0"
             width="100%"
             height="100%" />
          <use
             fill="url(#linearGradient-8)"
             fill-rule="evenodd"
             xlink:href="#path-9"
             id="use173"
             x="0"
             y="0"
             width="100%"
             height="100%"
             style="fill:url(#linearGradient-8)" />
        </g>
        <rect
           id="rect177"
           fill="url(#linearGradient-11)"
           opacity="0.683135"
           x="43"
           y="58"
           width="42"
           height="10"
           rx="3"
           style="fill:url(#linearGradient-11)" />
        <g
           id="编组-2"
           transform="translate(367,44)">
          <circle
             id="椭圆形"
             fill-opacity="0.08"
             fill="#000000"
             cx="24"
             cy="24"
             r="24" />
          <g
             id="g184">
            <use
               fill="#000000"
               fill-opacity="1"
               filter="url(#filter-14)"
               xlink:href="#path-13"
               id="use180"
               x="0"
               y="0"
               width="100%"
               height="100%" />
            <use
               fill="url(#radialGradient-12)"
               fill-rule="evenodd"
               xlink:href="#path-13"
               id="use182"
               x="0"
               y="0"
               width="100%"
               height="100%"
               style="fill:url(#radialGradient-12)" />
          </g>
        </g>
      </g>
      <g
         id="编组-6"
         filter="url(#filter-15)"
         transform="translate(62,74)">
        <g
           id="Group-6">
          <ellipse
             id="Oval备份-8"
             fill="url(#linearGradient-16)"
             cx="160.76321"
             cy="161.10345"
             rx="92.349426"
             ry="91.586205"
             style="fill:url(#linearGradient-16)" />
          <path
             d="m 160,-5 c 45.56349,0 86.81349,18.468254 116.67262,48.327381 C 306.53175,73.186508 325,114.43651 325,160 325,205.56349 306.53175,246.81349 276.67262,276.67262 246.81349,306.53175 205.56349,325 160,325 114.43651,325 73.186508,306.53175 43.327381,276.67262 13.468254,246.81349 -5,205.56349 -5,160 -5,114.43651 13.468254,73.186508 43.327381,43.327381 73.186508,13.468254 114.43651,-5 160,-5 Z m -2,60 C 129.55733,55 103.80733,66.528668 85.168002,85.168002 66.528668,103.80733 55,129.55733 55,158 55,186.44266 66.528668,212.19266 85.168002,230.832 103.80733,249.47133 129.55733,261 158,261 c 28.44266,0 54.19266,-11.52867 72.832,-30.168 C 249.47133,212.19266 261,186.44266 261,158 261,129.55733 249.47133,103.80733 230.832,85.168002 212.19266,66.528668 186.44266,55 158,55 Z"
             id="形状结合"
             stroke="url(#linearGradient-18)"
             stroke-width="10"
             fill="url(#linearGradient-17)"
             style="fill:url(#linearGradient-17);stroke:url(#linearGradient-18)" />
          <g
             id="形状结合备份">
            <use
               fill="url(#radialGradient-19)"
               fill-rule="evenodd"
               xlink:href="#path-21"
               id="use190"
               x="0"
               y="0"
               width="100%"
               height="100%"
               style="fill:url(#radialGradient-19)" />
            <path
               stroke-opacity="0.16606"
               stroke="#000000"
               stroke-width="4.41379"
               d="m 160,38.793103 c 33.47036,0 63.77208,13.566544 85.70622,35.500678 C 267.64035,96.227916 281.2069,126.52964 281.2069,160 c 0,33.47036 -13.56655,63.77208 -35.50068,85.70622 C 223.77208,267.64035 193.47036,281.2069 160,281.2069 c -33.47036,0 -63.772084,-13.56655 -85.706219,-35.50068 C 52.359647,223.77208 38.793103,193.47036 38.793103,160 c 0,-33.47036 13.566544,-63.772084 35.500678,-85.706219 C 96.227916,52.359647 126.52964,38.793103 160,38.793103 Z m 0,33.413794 c -24.2434,0 -46.19167,9.826577 -62.079099,25.714004 C 82.033474,113.80833 72.206897,135.7566 72.206897,160 c 0,24.2434 9.826577,46.19167 25.714004,62.0791 15.887429,15.88743 37.835699,25.714 62.079099,25.714 24.2434,0 46.19167,-9.82657 62.0791,-25.714 15.88743,-15.88743 25.714,-37.8357 25.714,-62.0791 0,-24.2434 -9.82657,-46.19167 -25.714,-62.079099 C 206.19167,82.033474 184.2434,72.206897 160,72.206897 Z"
               id="path192" />
            <path
               stroke="url(#linearGradient-20)"
               stroke-width="4.41379"
               d="m 160,43.206897 c 32.25152,0 61.4498,13.072513 82.58519,34.207908 21.1354,21.135394 34.20791,50.333675 34.20791,82.585195 0,32.25152 -13.07251,61.4498 -34.20791,82.58519 C 221.4498,263.72059 192.25152,276.7931 160,276.7931 c -32.25152,0 -61.449801,-13.07251 -82.585195,-34.20791 C 56.27941,221.4498 43.206897,192.25152 43.206897,160 c 0,-32.25152 13.072513,-61.449801 34.207908,-82.585195 C 98.550199,56.27941 127.74848,43.206897 160,43.206897 Z m 0,24.586206 c -25.46223,0 -48.51396,10.320609 -65.200122,27.006775 C 78.113712,111.48604 67.793103,134.53777 67.793103,160 c 0,25.46223 10.320609,48.51396 27.006775,65.20012 C 111.48604,241.88629 134.53777,252.2069 160,252.2069 c 25.46223,0 48.51396,-10.32061 65.20012,-27.00678 C 241.88629,208.51396 252.2069,185.46223 252.2069,160 c 0,-25.46223 -10.32061,-48.51396 -27.00678,-65.200122 C 208.51396,78.113712 185.46223,67.793103 160,67.793103 Z"
               stroke-linejoin="square"
               id="path194"
               style="stroke:url(#linearGradient-20)" />
          </g>
          <g
             id="Oval">
            <use
               fill="url(#radialGradient-22)"
               fill-rule="evenodd"
               xlink:href="#path-23"
               id="use197"
               x="0"
               y="0"
               width="100%"
               height="100%"
               style="fill:url(#radialGradient-22)" />
            <circle
               stroke-opacity="0.229362"
               stroke="#100f0f"
               stroke-width="3.31034"
               cx="160"
               cy="160"
               r="76.655174"
               id="circle199" />
            <circle
               stroke-opacity="0.0396942"
               stroke="#ffffff"
               stroke-width="3.31034"
               stroke-linejoin="square"
               cx="160"
               cy="160"
               r="73.344826"
               id="circle201" />
          </g>
          <circle
             id="circle204"
             stroke-opacity="0.602937"
             stroke="#080808"
             stroke-width="4.41379"
             fill="url(#linearGradient-24)"
             cx="160"
             cy="160"
             r="57.206898"
             style="fill:url(#linearGradient-24)" />
          <circle
             id="circle206"
             stroke="url(#linearGradient-25)"
             stroke-width="11.0345"
             fill-opacity="0.779922"
             fill="#0a0611"
             cx="160"
             cy="160"
             r="28.482759"
             style="stroke:url(#linearGradient-25)" />
        </g>
      </g>
      <g
         id="编组-12"
         transform="translate(149,155)">
        <path
           d="M 69,66 C 94.957383,66 116,51.225397 116,33 116,14.774603 94.957383,0 69,0 43.042617,0 22,14.774603 22,33 22,51.225397 43.042617,66 69,66 Z"
           id="path210"
           fill="url(#linearGradient-26)"
           opacity="0.457738"
           style="fill:url(#linearGradient-26)" />
        <path
           d="M 58.171508,53.926829 C 50.05764,19.97561 53.390973,2 68.171508,0 38.029217,4.7453669 5.1715082,10.933946 1.1715082,48.277784 -1.4951585,73.173676 4.9432471,86.747748 20.486725,89 42.943247,67.87761 54.838175,56.751483 56.171508,55.621622 c 1.333333,-1.129862 2,-1.694793 2,-1.694793 z"
           id="路径-3"
           fill="#59aaff"
           opacity="0.521018"
           filter="url(#filter-27)" />
      </g>
    </g>
  </g>
</svg>
