<?xml version="1.0" encoding="UTF-8" standalone="no"?>
<svg
   xmlns:dc="http://purl.org/dc/elements/1.1/"
   xmlns:cc="http://creativecommons.org/ns#"
   xmlns:rdf="http://www.w3.org/1999/02/22-rdf-syntax-ns#"
   xmlns:svg="http://www.w3.org/2000/svg"
   xmlns="http://www.w3.org/2000/svg"
   xmlns:xlink="http://www.w3.org/1999/xlink"
   xmlns:sodipodi="http://sodipodi.sourceforge.net/DTD/sodipodi-0.dtd"
   xmlns:inkscape="http://www.inkscape.org/namespaces/inkscape"
   width="64"
   height="64"
   viewBox="0 0 16.933333 16.933334"
   version="1.1"
   id="svg951"
   inkscape:version="1.0.2 (e86c870879, 2021-01-15)"
   sodipodi:docname="epic-games.svg">
  <defs
     id="defs945">
    <linearGradient
       inkscape:collect="always"
       id="linearGradient886">
      <stop
         style="stop-color:#000000;stop-opacity:1;"
         offset="0"
         id="stop882" />
      <stop
         style="stop-color:#000000;stop-opacity:0.9372549;"
         offset="0.79456264"
         id="stop891" />
      <stop
         style="stop-color:#000000;stop-opacity:0.89019608;"
         offset="0.81078207"
         id="stop909" />
      <stop
         style="stop-color:#000000;stop-opacity:0.81960784;"
         offset="0.82938337"
         id="stop911" />
      <stop
         style="stop-color:#000000;stop-opacity:0.77647059;"
         offset="0.84631515"
         id="stop913" />
      <stop
         style="stop-color:#000000;stop-opacity:0.67058824;"
         offset="0.87042409"
         id="stop918" />
      <stop
         style="stop-color:#000000;stop-opacity:0.12941176;"
         offset="0.93604785"
         id="stop907" />
      <stop
         style="stop-color:#000000;stop-opacity:0.10588235;"
         offset="0.944749"
         id="stop905" />
      <stop
         style="stop-color:#000000;stop-opacity:0.0745098;"
         offset="0.95550299"
         id="stop903" />
      <stop
         style="stop-color:#000000;stop-opacity:0.04313725;"
         offset="0.96715587"
         id="stop897" />
      <stop
         style="stop-color:#000000;stop-opacity:0.01960784;"
         offset="0.9769302"
         id="stop895" />
      <stop
         style="stop-color:#000000;stop-opacity:0"
         offset="0.9870621"
         id="stop893" />
      <stop
         style="stop-color:#000000;stop-opacity:0;"
         offset="1"
         id="stop884" />
    </linearGradient>
    <linearGradient
       inkscape:collect="always"
       id="linearGradient887">
      <stop
         style="stop-color:#fafafb;stop-opacity:1"
         offset="0"
         id="stop883" />
      <stop
         style="stop-color:#e9f2fe;stop-opacity:1"
         offset="1"
         id="stop885" />
    </linearGradient>
    <linearGradient
       inkscape:collect="always"
       xlink:href="#linearGradient887"
       id="linearGradient889"
       x1="-45.290127"
       y1="47.877674"
       x2="-69.193512"
       y2="6.4757967"
       gradientUnits="userSpaceOnUse"
       gradientTransform="matrix(0.26458333,0,0,0.26458333,21.691469,1.1210794)" />
    <radialGradient
       inkscape:collect="always"
       xlink:href="#linearGradient886"
       id="radialGradient888"
       cx="8.5563831"
       cy="8.976696"
       fx="8.5563831"
       fy="8.976696"
       r="8.5171833"
       gradientUnits="userSpaceOnUse"
       gradientTransform="matrix(3.7795276,0,0,3.7795276,0.11284966,-1.8345914)" />
    <linearGradient
       inkscape:collect="always"
       xlink:href="#linearGradient883"
       id="linearGradient885"
       x1="13.978879"
       y1="16.464621"
       x2="13.978879"
       y2="55.682991"
       gradientUnits="userSpaceOnUse"
       gradientTransform="matrix(0.48143164,0,0,0.48143164,-0.3882321,0.72618254)" />
    <linearGradient
       inkscape:collect="always"
       id="linearGradient883">
      <stop
         style="stop-color:#1d1d1d;stop-opacity:1;"
         offset="0"
         id="stop879" />
      <stop
         style="stop-color:#1d1d1d;stop-opacity:0;"
         offset="1"
         id="stop881" />
    </linearGradient>
  </defs>
  <sodipodi:namedview
     id="base"
     pagecolor="#ffffff"
     bordercolor="#666666"
     borderopacity="1.0"
     inkscape:pageopacity="0.0"
     inkscape:pageshadow="2"
     inkscape:zoom="11.2"
     inkscape:cx="62.447258"
     inkscape:cy="27.58199"
     inkscape:document-units="mm"
     inkscape:current-layer="layer1"
     inkscape:document-rotation="0"
     showgrid="false"
     units="px"
     inkscape:window-width="1920"
     inkscape:window-height="1028"
     inkscape:window-x="0"
     inkscape:window-y="24"
     inkscape:window-maximized="1" />
  <metadata
     id="metadata948">
    <rdf:RDF>
      <cc:Work
         rdf:about="">
        <dc:format>image/svg+xml</dc:format>
        <dc:type
           rdf:resource="http://purl.org/dc/dcmitype/StillImage" />
        <dc:title></dc:title>
      </cc:Work>
    </rdf:RDF>
  </metadata>
  <g
     inkscape:label="Capa 1"
     inkscape:groupmode="layer"
     id="layer1">
    <path
       id="path880"
       style="opacity:0.274313;fill:url(#radialGradient888);fill-opacity:1;stroke-width:11.3386;stroke-linecap:square;stroke-linejoin:round"
       d="M 32.451172,-0.09765625 C 14.673003,-0.09684124 0.26145516,14.315581 0.26171875,32.09375 0.26253385,49.871156 14.673766,64.282388 32.451172,64.283203 50.229341,64.283466 64.641763,49.871919 64.642578,32.09375 64.642842,14.314818 50.230104,-0.0979197 32.451172,-0.09765625 Z"
       transform="scale(0.26458333)"
       sodipodi:nodetypes="ccccc" />
    <g
       id="g959"
       style="opacity:0.491637"
       transform="translate(21.691469,1.1210794)">
      <path
         id="path944"
         style="opacity:1;fill:#183268;fill-opacity:0.0573203;stroke-width:0.0470344;stroke-linecap:round;stroke-linejoin:round"
         d="m -13.395906,-0.53349917 c -4.354784,-1.2391e-4 -7.885145,3.53000577 -7.885307,7.88478987 -1.24e-4,4.3549863 3.530321,7.8854303 7.885307,7.8853073 4.3549855,1.24e-4 7.8854302,-3.530321 7.8853063,-7.8853073 -1.614e-4,-4.3547841 -3.5305227,-7.88491394 -7.8853063,-7.88478987 z m 0.0062,1.1947591 c 0.0036,-9.9e-6 0.0072,-9.9e-6 0.01085,0 1.096967,-2.1162e-4 1.986368,0.88895767 1.986442,1.98592517 -0.457391,2.9238532 -3.907817,2.1371531 -3.972367,0 5.7e-5,-1.092542 0.882548,-1.97988185 1.975073,-1.98592517 z m -3.926893,7.07863757 c 0.0036,-9.8e-6 0.0072,-9.8e-6 0.01085,0 1.096766,7.38e-5 1.985852,0.8891595 1.985925,1.9859252 -7.3e-5,1.0967663 -0.889159,1.9858523 -1.985925,1.9859253 -1.096766,-7.3e-5 -1.985851,-0.889159 -1.985925,-1.9859253 5.7e-5,-1.0925421 0.882548,-1.9798819 1.975073,-1.9859252 z m 7.8222611,0 c 0.00362,-9.8e-6 0.00723,-9.8e-6 0.010853,0 1.0967657,7.38e-5 1.9858514,0.8891595 1.9859252,1.9859252 -7.38e-5,1.0967663 -0.8891595,1.9858523 -1.9859252,1.9859253 -1.0967651,-7.3e-5 -1.9858511,-0.889159 -1.9859251,-1.9859253 5.7e-5,-1.0925421 0.882548,-1.9798819 1.9750721,-1.9859252 z"
         sodipodi:nodetypes="cccccccccccccccccccccc" />
      <path
         id="path946"
         style="opacity:1;fill:#183268;fill-opacity:0.0573203;stroke-width:0.0470344;stroke-linecap:round;stroke-linejoin:round"
         d="m -13.298808,-0.39810823 c -4.354784,-1.2391e-4 -7.885145,3.53000573 -7.885307,7.88478983 -1.24e-4,4.3549864 3.530321,7.8854304 7.885307,7.8853074 4.3549857,1.24e-4 7.8854304,-3.530321 7.8853065,-7.8853074 -1.614e-4,-4.3547841 -3.5305227,-7.8849139 -7.8853065,-7.88478983 z m 0.0062,1.1947591 c 0.0036,-9.9e-6 0.0072,-9.9e-6 0.01085,0 1.096967,-2.1162e-4 1.986368,0.88895763 1.986442,1.98592513 -0.457391,2.9238532 -3.907817,2.1371531 -3.972367,0 5.7e-5,-1.092542 0.882548,-1.97988181 1.975073,-1.98592513 z m -3.926893,7.07863753 c 0.0036,-9.8e-6 0.0072,-9.8e-6 0.01085,0 1.096766,7.38e-5 1.985852,0.8891595 1.985925,1.9859252 -7.3e-5,1.0967664 -0.889159,1.9858524 -1.985925,1.9859254 -1.096766,-7.3e-5 -1.985851,-0.889159 -1.985925,-1.9859254 5.7e-5,-1.0925421 0.882548,-1.9798819 1.975073,-1.9859252 z m 7.8222613,0 c 0.00362,-9.8e-6 0.00723,-9.8e-6 0.010853,0 1.0967657,7.38e-5 1.9858514,0.8891595 1.9859252,1.9859252 -7.38e-5,1.0967664 -0.8891595,1.9858524 -1.9859252,1.9859254 -1.0967653,-7.3e-5 -1.9858513,-0.889159 -1.9859253,-1.9859254 5.7e-5,-1.0925421 0.882548,-1.9798819 1.9750723,-1.9859252 z"
         sodipodi:nodetypes="cccccccccccccccccccccc" />
      <path
         id="path948"
         style="opacity:1;fill:#183268;fill-opacity:0.0573203;stroke-width:0.0470344;stroke-linecap:round;stroke-linejoin:round"
         d="m -13.179382,-0.26017274 c -4.354784,-1.2391e-4 -7.885145,3.53000574 -7.885307,7.88478984 -1.24e-4,4.3549859 3.530321,7.8854299 7.885307,7.8853069 4.3549857,1.24e-4 7.8854304,-3.530321 7.8853065,-7.8853069 -1.614e-4,-4.3547841 -3.5305227,-7.88491391 -7.8853065,-7.88478984 z m 0.0062,1.1947591 c 0.0036,-9.9e-6 0.0072,-9.9e-6 0.01085,0 1.096967,-2.1162e-4 1.986368,0.88895764 1.986442,1.98592514 -0.457391,2.9238532 -3.907817,2.1371531 -3.972367,0 5.7e-5,-1.092542 0.882548,-1.97988182 1.975073,-1.98592514 z m -3.926893,7.07863754 c 0.0036,-9.8e-6 0.0072,-9.8e-6 0.01085,0 1.096766,7.38e-5 1.985852,0.8891595 1.985925,1.9859252 -7.3e-5,1.0967659 -0.889159,1.9858519 -1.985925,1.9859249 -1.096766,-7.3e-5 -1.985851,-0.889159 -1.985925,-1.9859249 5.7e-5,-1.0925421 0.882548,-1.9798819 1.975073,-1.9859252 z m 7.8222613,0 c 0.00362,-9.8e-6 0.00723,-9.8e-6 0.010853,0 1.0967657,7.38e-5 1.9858514,0.8891595 1.9859252,1.9859252 -7.38e-5,1.0967659 -0.8891595,1.9858519 -1.9859252,1.9859249 -1.0967653,-7.3e-5 -1.9858513,-0.889159 -1.9859253,-1.9859249 5.7e-5,-1.0925421 0.882548,-1.9798819 1.9750723,-1.9859252 z"
         sodipodi:nodetypes="cccccccccccccccccccccc" />
      <path
         id="path950"
         style="opacity:1;fill:#183268;fill-opacity:0.0573203;stroke-width:0.0470344;stroke-linecap:round;stroke-linejoin:round"
         d="m -13.093387,-0.10541145 c -4.354784,-1.2391e-4 -7.885145,3.53000575 -7.885307,7.88478985 -1.24e-4,4.3549856 3.530321,7.8854296 7.885307,7.8853066 4.354986,1.24e-4 7.8854307,-3.530321 7.8853068,-7.8853066 -1.614e-4,-4.3547841 -3.5305227,-7.88491392 -7.8853068,-7.88478985 z m 0.0062,1.19475915 c 0.0036,-9.9e-6 0.0072,-9.9e-6 0.01085,0 1.096967,-2.117e-4 1.986368,0.8889576 1.986442,1.9859251 -0.457391,2.9238532 -3.907817,2.1371531 -3.972367,0 5.7e-5,-1.092542 0.882548,-1.9798818 1.975073,-1.9859251 z m -3.926893,7.0786375 c 0.0036,-9.8e-6 0.0072,-9.8e-6 0.01085,0 1.096766,7.38e-5 1.985852,0.8891595 1.985925,1.9859248 -7.3e-5,1.096766 -0.889159,1.985852 -1.985925,1.985925 -1.096766,-7.3e-5 -1.985851,-0.889159 -1.985925,-1.985925 5.7e-5,-1.0925417 0.882548,-1.9798815 1.975073,-1.9859248 z m 7.8222616,0 c 0.00362,-9.8e-6 0.00723,-9.8e-6 0.010853,0 1.0967657,7.38e-5 1.9858514,0.8891595 1.9859252,1.9859248 -7.38e-5,1.096766 -0.8891595,1.985852 -1.9859252,1.985925 -1.0967656,-7.3e-5 -1.9858516,-0.889159 -1.9859256,-1.985925 5.7e-5,-1.0925417 0.882548,-1.9798815 1.9750726,-1.9859248 z"
         sodipodi:nodetypes="cccccccccccccccccccccc" />
      <path
         id="path952"
         style="opacity:1;fill:#183268;fill-opacity:0.0573203;stroke-width:0.0470344;stroke-linecap:round;stroke-linejoin:round"
         d="m -12.986118,0.01438582 c -4.354784,-1.2391e-4 -7.885145,3.53000578 -7.885307,7.88478988 -1.24e-4,4.3549853 3.530321,7.8854293 7.885307,7.8853063 4.3549861,1.24e-4 7.8854308,-3.530321 7.8853069,-7.8853063 -1.614e-4,-4.3547841 -3.5305227,-7.88491395 -7.8853069,-7.88478988 z"
         sodipodi:nodetypes="ccccc" />
    </g>
    <path
       id="path861"
       style="fill:url(#linearGradient889);fill-opacity:1;stroke-width:0.0470344;stroke-linecap:round;stroke-linejoin:round"
       d="M 8.2773008,0.3841735 C 3.9225167,0.38404957 0.39215563,3.9141793 0.3919942,8.2689634 0.39187026,12.623949 3.9223149,16.154394 8.2773008,16.15427 12.632287,16.154394 16.162732,12.62395 16.162608,8.2689634 16.162447,3.914179 12.632085,0.38404923 8.2773008,0.3841735 Z"
       sodipodi:nodetypes="ccccc" />
    <path
       id="path939"
       style="fill:#ddf2fe;fill-opacity:0.368149;stroke-width:0.0470344;stroke-linecap:round;stroke-linejoin:round"
       d="M 8.2773008,0.3841735 C 3.9225167,0.38404957 0.39215563,3.9141793 0.3919942,8.2689634 0.3918938,9.6906018 0.77614207,11.085823 1.504071,12.30696 0.86166304,11.141285 0.52477718,9.8319629 0.5248026,8.5009906 0.5249639,4.1462064 4.055325,0.61607662 8.4101092,0.61620067 11.187918,0.61605179 13.760886,2.0775412 15.183339,4.4635109 13.796526,1.9470174 11.150625,0.3841066 8.2773008,0.3841735 Z"
       sodipodi:nodetypes="ccccccc" />
    <rect
       style="fill:#14b9f4;fill-opacity:0;stroke:none;stroke-width:1;stroke-linecap:round;stroke-linejoin:round;stroke-miterlimit:4;stroke-dasharray:none;stroke-dashoffset:0;stroke-opacity:1"
       id="rect980"
       width="16.162594"
       height="5.0194068"
       x="0.75188744"
       y="3.3130858" />
    <path
       d="M 4.7482805,4.2145221 V 9.0031078 H 6.2056764 V 8.3785088 H 5.3728786 V 6.9211138 H 6.2056764 V 6.2965158 H 5.3728786 V 4.8391207 H 6.2056764 V 4.2145221 Z m 1.6655949,0 v 4.7885857 h 0.6245983 v -1.873795 h 0.6664814 c 0.4844387,0 0.7909133,-0.389838 0.7909133,-0.8742748 V 5.0887967 c 0,-0.4844377 -0.3064746,-0.8742746 -0.7909133,-0.8742746 h -0.583121 z m 2.4776542,0 V 9.0031078 H 9.5161275 V 4.2145221 Z m 1.4159184,0 c -0.3229593,0 -0.5831213,0.2601623 -0.5831213,0.5831212 v 3.6264095 c 0,0.322958 0.260162,0.583121 0.5831213,0.583121 h 0.915753 c 0.322959,0 0.583121,-0.260163 0.583121,-0.583121 v -1.29474 h -0.624599 v 0.974309 c 0,0.161479 -0.166701,0.284757 -0.291561,0.320431 h -0.249676 c -0.16148,0 -0.291561,-0.129674 -0.291561,-0.291154 V 5.0887967 c 0,-0.1614786 0.172185,-0.2911534 0.291561,-0.2911534 h 0.249676 c 0.161481,0 0.291561,0.1296748 0.291561,0.2911534 v 0.7913197 h 0.624599 V 4.7976433 c 0,-0.3229589 -0.260162,-0.5831212 -0.583121,-0.5831212 z M 7.0384737,4.8391207 h 0.541237 c 0.1614784,0 0.2915598,0.1300807 0.2915598,0.2915598 v 1.0824744 c 0,0.1614789 -0.1300814,0.2915599 -0.2915598,0.2915599 H 7.0384737 Z M 5.6404472,9.7448178 c -0.3332575,-0.0064 -0.6927854,0.239152 -0.7034862,0.6831542 -0.00763,0.314853 0.2779555,0.668067 0.6632289,0.673394 0.3379857,0.0047 0.5827138,-0.211045 0.5827138,-0.211045 v -0.44771 H 5.6201149 v 0.240323 l 0.231378,7.71e-4 0.00976,0.04595 c 0,0 -0.075142,0.07754 -0.2106393,0.08011 -0.2381445,0.0045 -0.3541801,-0.191182 -0.3619061,-0.361499 -0.0083,-0.182894 0.1214474,-0.40179 0.3659762,-0.40054 0.1629708,7.71e-4 0.2671618,0.149237 0.2671618,0.149237 L 6.1426507,9.9257388 c 0,0 -0.2105767,-0.175353 -0.5021991,-0.180953 z m 2.2113046,0.09109 V 11.083886 H 8.156732 v -0.692508 l 0.3183982,0.472516 0.3086391,-0.492034 0.00366,0.712026 H 9.0997266 V 9.8359048 H 8.7837679 L 8.4751288,10.333224 8.1664892,9.8359048 Z m 1.4561767,0 V 11.077379 H 10.226527 V 10.76996 l -0.6062998,0.0057 V 10.46054 H 10.140726 V 10.252342 H 9.6202272 v -0.104099 h 0.6079268 l -0.0016,-0.3123002 z m -2.436177,0.0077 -0.5469304,1.2398442 0.3704486,-7.7e-4 0.084987,-0.223651 h 0.4757685 l 0.082955,0.223651 h 0.345237 L 7.1759178,9.8436518 Z m 3.9984855,4.3e-4 c -0.205961,0.0013 -0.504047,0.130376 -0.509926,0.4468962 -0.006,0.321394 0.70052,0.276209 0.702674,0.439984 7.22e-4,0.05678 -0.0357,0.09807 -0.120367,0.09516 -0.177251,-0.0061 -0.409486,-0.137861 -0.409486,-0.137861 l -0.180547,0.216739 c 0,0 0.263069,0.185451 0.577021,0.187054 0.208157,0.0011 0.457456,-0.100458 0.455437,-0.403793 -0.0024,-0.364732 -0.697195,-0.34848 -0.706333,-0.472922 -0.0046,-0.06248 0.08675,-0.09714 0.211452,-0.09841 0.12121,-0.0013 0.356623,0.117926 0.356623,0.117926 l 0.151269,-0.229725 c 0,0 -0.237402,-0.1628812 -0.527817,-0.1610292 z M 7.0205813,10.223025 7.1531464,10.581681 H 6.8847641 Z m -0.8356435,2.319462 2.081993,1.040997 2.0819942,-1.040997 z"
       style="fill:url(#linearGradient885);fill-opacity:1;stroke-width:0.208199"
       id="path8" />
  </g>
</svg>
