<?xml version="1.0" encoding="UTF-8" standalone="no"?>
<svg
   xmlns:dc="http://purl.org/dc/elements/1.1/"
   xmlns:cc="http://creativecommons.org/ns#"
   xmlns:rdf="http://www.w3.org/1999/02/22-rdf-syntax-ns#"
   xmlns:svg="http://www.w3.org/2000/svg"
   xmlns="http://www.w3.org/2000/svg"
   xmlns:xlink="http://www.w3.org/1999/xlink"
   xmlns:sodipodi="http://sodipodi.sourceforge.net/DTD/sodipodi-0.dtd"
   xmlns:inkscape="http://www.inkscape.org/namespaces/inkscape"
   width="64"
   height="64"
   version="1.1"
   viewBox="0 0 16.933 16.933"
   id="svg20"
   sodipodi:docname="caprine.svg"
   inkscape:version="1.0.2 (e86c870879, 2021-01-15)">
  <metadata
     id="metadata26">
    <rdf:RDF>
      <cc:Work
         rdf:about="">
        <dc:format>image/svg+xml</dc:format>
        <dc:type
           rdf:resource="http://purl.org/dc/dcmitype/StillImage" />
        <dc:title />
      </cc:Work>
    </rdf:RDF>
  </metadata>
  <defs
     id="defs24">
    <linearGradient
       inkscape:collect="always"
       id="linearGradient873">
      <stop
         style="stop-color:#0482b7;stop-opacity:1;"
         offset="0"
         id="stop869" />
      <stop
         style="stop-color:#0482b7;stop-opacity:0;"
         offset="1"
         id="stop871" />
    </linearGradient>
    <linearGradient
       inkscape:collect="always"
       id="linearGradient863">
      <stop
         style="stop-color:#59dfe1;stop-opacity:1;"
         offset="0"
         id="stop859" />
      <stop
         style="stop-color:#59dfe1;stop-opacity:0;"
         offset="1"
         id="stop861" />
    </linearGradient>
    <linearGradient
       inkscape:collect="always"
       id="linearGradient960">
      <stop
         style="stop-color:#d3eef5;stop-opacity:1;"
         offset="0"
         id="stop956" />
      <stop
         style="stop-color:#d3eef5;stop-opacity:0;"
         offset="1"
         id="stop958" />
    </linearGradient>
    <linearGradient
       inkscape:collect="always"
       id="linearGradient950">
      <stop
         style="stop-color:#ffffff;stop-opacity:0.88091832"
         offset="0"
         id="stop946" />
      <stop
         style="stop-color:#ffffff;stop-opacity:0.72424853"
         offset="1"
         id="stop948" />
    </linearGradient>
    <linearGradient
       inkscape:collect="always"
       id="linearGradient894">
      <stop
         style="stop-color:#49bcd8;stop-opacity:1;"
         offset="0"
         id="stop890" />
      <stop
         style="stop-color:#5dc0d8;stop-opacity:1"
         offset="0.19778617"
         id="stop902" />
      <stop
         style="stop-color:#71c4d8;stop-opacity:1"
         offset="0.29706907"
         id="stop928" />
      <stop
         style="stop-color:#7ec6d8;stop-opacity:1"
         offset="0.35797191"
         id="stop930" />
      <stop
         style="stop-color:#c2d4d8;stop-opacity:1"
         offset="0.47833127"
         id="stop900" />
      <stop
         style="stop-color:#ddf4f6;stop-opacity:1"
         offset="1"
         id="stop892" />
    </linearGradient>
    <linearGradient
       inkscape:collect="always"
       xlink:href="#linearGradient1234"
       id="linearGradient1236"
       x1="342.63245"
       y1="348.09451"
       x2="403.47034"
       y2="348.09451"
       gradientUnits="userSpaceOnUse"
       gradientTransform="matrix(0.19284653,0,0,0.19284653,-65.511907,-59.933259)" />
    <linearGradient
       inkscape:collect="always"
       id="linearGradient1234">
      <stop
         style="stop-color:#4bd5d7;stop-opacity:1"
         offset="0"
         id="stop1230" />
      <stop
         style="stop-color:#0089c6;stop-opacity:1"
         offset="1"
         id="stop1232" />
    </linearGradient>
    <radialGradient
       inkscape:collect="always"
       xlink:href="#linearGradient894"
       id="radialGradient898"
       gradientUnits="userSpaceOnUse"
       gradientTransform="matrix(1.3344771,-1.8367641,1.2802378,0.93014014,-10.857446,51.786955)"
       cx="20.597254"
       cy="-6.1991973"
       fx="20.597254"
       fy="-6.1991973"
       r="4.7889585" />
    <linearGradient
       inkscape:collect="always"
       xlink:href="#linearGradient950"
       id="linearGradient952"
       x1="5.3465843"
       y1="5.4569917"
       x2="5.3465843"
       y2="9.145874"
       gradientUnits="userSpaceOnUse" />
    <radialGradient
       inkscape:collect="always"
       xlink:href="#linearGradient960"
       id="radialGradient962"
       cx="6.3423862"
       cy="-4.0367899"
       fx="6.3423862"
       fy="-4.0367899"
       r="4.7889585"
       gradientTransform="matrix(0.2939745,-0.28983983,0.20715312,0.21010823,6.7249715,10.182002)"
       gradientUnits="userSpaceOnUse" />
    <radialGradient
       inkscape:collect="always"
       xlink:href="#linearGradient863"
       id="radialGradient865"
       cx="6.429945"
       cy="1.3293704"
       fx="6.429945"
       fy="1.3293704"
       r="5.8661875"
       gradientTransform="matrix(1,0,0,0.90632074,0,0.6740745)"
       gradientUnits="userSpaceOnUse" />
    <radialGradient
       inkscape:collect="always"
       xlink:href="#linearGradient873"
       id="radialGradient875"
       cx="1.3947227"
       cy="9.2193308"
       fx="1.3947227"
       fy="9.2193308"
       r="5.8661875"
       gradientTransform="matrix(1,0,0,0.90632076,10.16903,2.1673151)"
       gradientUnits="userSpaceOnUse" />
  </defs>
  <sodipodi:namedview
     pagecolor="#ffffff"
     bordercolor="#666666"
     borderopacity="1"
     objecttolerance="10"
     gridtolerance="10"
     guidetolerance="10"
     inkscape:pageopacity="0"
     inkscape:pageshadow="2"
     inkscape:window-width="1920"
     inkscape:window-height="1028"
     id="namedview22"
     showgrid="false"
     inkscape:zoom="10.032077"
     inkscape:cx="73.598341"
     inkscape:cy="46.852926"
     inkscape:window-x="0"
     inkscape:window-y="24"
     inkscape:window-maximized="1"
     inkscape:current-layer="svg20"
     inkscape:document-rotation="0" />
  <circle
     cx="-330.35"
     cy="-328.38"
     r="0"
     fill="#5e4aa6"
     stroke-width=".26458"
     id="circle2" />
  <circle
     cx="-65.741"
     cy="5.3371"
     r="0"
     fill="#5e4aa6"
     fill-rule="evenodd"
     stroke-width=".40965"
     id="circle4" />
  <path
     id="path1197"
     style="fill:url(#linearGradient1236);fill-opacity:1;stroke:none;stroke-width:0.953095;stroke-linecap:square;stroke-miterlimit:4;stroke-dasharray:none;stroke-opacity:1"
     d="M 6.4299451,1.8789104 A 5.8663277,5.0704648 0 0 0 0.56356906,6.9494184 5.8663277,5.0704648 0 0 0 2.7500418,10.898629 l -0.2824893,1.246346 c -0.07214,0.262004 0.224078,0.469908 0.4459576,0.313001 l 1.2376833,-0.83655 a 5.8663277,5.0704648 0 0 0 2.2787517,0.3985 5.8663277,5.0704648 0 0 0 5.8659989,-5.0705076 5.8663277,5.0704648 0 0 0 -5.8659989,-5.070508 z" />
  <path
     id="path1266"
     style="fill:#ffffff;fill-opacity:0.237218;stroke:none;stroke-width:0.786275;stroke-linecap:square;stroke-miterlimit:4;stroke-dasharray:none;stroke-opacity:1"
     d="m 11.882451,6.3905028 a 4.7890156,4.2271422 0 0 0 -4.755248,4.2271802 4.7890156,4.2271422 0 0 0 1.8520035,3.338656 4.7890156,4.2271422 0 0 1 -1.6798727,-3.215112 4.7890156,4.2271422 0 0 1 4.7552482,-4.227181 4.7890156,4.2271422 0 0 1 0.03353,0 4.7890156,4.2271422 0 0 1 2.935635,0.8873946 4.7890156,4.2271422 0 0 0 -3.107765,-1.0109378 4.7890156,4.2271422 0 0 0 -0.03353,0 z" />
  <path
     d="m 5.6451809,6.9195216 -3.175,1.66 3.175,-3.424 1.94,1.764 3.3520001,-1.474 -3.3510001,3.238"
     fill="#ffffff"
     id="path4"
     style="fill-opacity:1;fill:url(#linearGradient952)" />
  <path
     id="path867"
     style="fill:url(#radialGradient875);fill-opacity:1;stroke:none;stroke-width:0.953095;stroke-linecap:square;stroke-miterlimit:4;stroke-dasharray:none;stroke-opacity:1"
     d="M 6.4299451,1.8789104 A 5.8663277,5.0704648 0 0 0 0.563569,6.9494184 5.8663277,5.0704648 0 0 0 2.7500418,10.898629 l -0.2824893,1.246346 c -0.07214,0.262004 0.224078,0.469908 0.4459576,0.313001 l 1.2376833,-0.83655 a 5.8663277,5.0704648 0 0 0 2.2787517,0.3985 5.8663277,5.0704648 0 0 0 5.8659989,-5.0705076 5.8663277,5.0704648 0 0 0 -5.8659989,-5.070508 z" />
  <path
     id="ellipse1199-3"
     style="fill:url(#radialGradient898);fill-opacity:1;stroke:none;stroke-width:0.786275;stroke-linecap:square;stroke-miterlimit:4;stroke-dasharray:none;stroke-opacity:1"
     d="m 11.882459,6.3905028 a 4.7890156,4.2271422 0 0 0 -4.755248,4.2271822 4.7890156,4.2271422 0 0 0 4.78877,4.227181 4.7890156,4.2271422 0 0 0 1.777426,-0.302077 l 1.065553,0.719785 c 0.221879,0.156907 0.518097,-0.051 0.445956,-0.312998 l -0.242939,-1.070449 a 4.7890156,4.2271422 0 0 0 1.743151,-3.261442 4.7890156,4.2271422 0 0 0 -4.789147,-4.2271822 4.7890156,4.2271422 0 0 0 -0.03353,0 z" />
  <path
     id="path932"
     style="fill:#ffffff;fill-opacity:0.15986158;stroke:none;stroke-width:2.97181;stroke-linecap:square;stroke-miterlimit:4;stroke-dasharray:none;stroke-opacity:1"
     d="M 44.910156 24.154297 A 18.100573 15.976915 0 0 0 26.9375 40.130859 A 18.100573 15.976915 0 0 0 33.873047 52.705078 A 18.100573 15.976915 0 0 1 27.705078 40.691406 A 18.100573 15.976915 0 0 1 45.677734 24.714844 A 18.100573 15.976915 0 0 1 45.804688 24.714844 A 18.100573 15.976915 0 0 1 56.970703 28.117188 A 18.100573 15.976915 0 0 0 45.037109 24.154297 A 18.100573 15.976915 0 0 0 44.910156 24.154297 z "
     transform="scale(0.26457812)" />
  <path
     id="path954"
     style="fill:url(#radialGradient962);fill-opacity:1;stroke:none;stroke-width:0.786275;stroke-linecap:square;stroke-miterlimit:4;stroke-dasharray:none;stroke-opacity:1"
     d="m 11.882459,6.3905028 a 4.7890156,4.2271422 0 0 0 -4.755248,4.2271822 4.7890156,4.2271422 0 0 0 4.78877,4.227181 4.7890156,4.2271422 0 0 0 1.777426,-0.302077 l 1.065553,0.719785 c 0.221879,0.156907 0.518097,-0.051 0.445956,-0.312998 l -0.242939,-1.070449 a 4.7890156,4.2271422 0 0 0 1.743151,-3.261442 4.7890156,4.2271422 0 0 0 -4.789147,-4.2271822 4.7890156,4.2271422 0 0 0 -0.03353,0 z" />
  <path
     id="path857"
     style="fill:url(#radialGradient865);fill-opacity:1;stroke:none;stroke-width:0.953095;stroke-linecap:square;stroke-miterlimit:4;stroke-dasharray:none;stroke-opacity:1"
     d="M 6.4299451,1.8789104 A 5.8663277,5.0704648 0 0 0 0.56356906,6.9494184 5.8663277,5.0704648 0 0 0 2.7500418,10.898629 l -0.2824893,1.246346 c -0.07214,0.262004 0.224078,0.469908 0.4459576,0.313001 l 1.2376833,-0.83655 a 5.8663277,5.0704648 0 0 0 2.2787517,0.3985 5.8663277,5.0704648 0 0 0 5.8659989,-5.0705076 5.8663277,5.0704648 0 0 0 -5.8659989,-5.070508 z" />
</svg>
