<?xml version="1.0" encoding="UTF-8" standalone="no"?>
<svg
   xmlns:dc="http://purl.org/dc/elements/1.1/"
   xmlns:cc="http://creativecommons.org/ns#"
   xmlns:rdf="http://www.w3.org/1999/02/22-rdf-syntax-ns#"
   xmlns:svg="http://www.w3.org/2000/svg"
   xmlns="http://www.w3.org/2000/svg"
   xmlns:xlink="http://www.w3.org/1999/xlink"
   xmlns:sodipodi="http://sodipodi.sourceforge.net/DTD/sodipodi-0.dtd"
   xmlns:inkscape="http://www.inkscape.org/namespaces/inkscape"
   width="64"
   height="64"
   viewBox="0 0 16.933333 16.933334"
   version="1.1"
   id="svg951"
   inkscape:version="1.0.2 (e86c870879, 2021-01-15)"
   sodipodi:docname="yast-software.svg">
  <defs
     id="defs945">
    <linearGradient
       inkscape:collect="always"
       id="linearGradient953">
      <stop
         style="stop-color:#9e48f2;stop-opacity:1;"
         offset="0"
         id="stop949" />
      <stop
         style="stop-color:#9e48f2;stop-opacity:1"
         offset="0.38304871"
         id="stop959" />
      <stop
         style="stop-color:#9e48f2;stop-opacity:0;"
         offset="1"
         id="stop951" />
    </linearGradient>
    <linearGradient
       inkscape:collect="always"
       id="linearGradient939">
      <stop
         style="stop-color:#9e48f2;stop-opacity:1;"
         offset="0"
         id="stop935" />
      <stop
         style="stop-color:#9e48f2;stop-opacity:0;"
         offset="1"
         id="stop937" />
    </linearGradient>
    <linearGradient
       inkscape:collect="always"
       id="linearGradient912">
      <stop
         style="stop-color:#9e48f2;stop-opacity:1;"
         offset="0"
         id="stop908" />
      <stop
         style="stop-color:#9e48f2;stop-opacity:0;"
         offset="1"
         id="stop910" />
    </linearGradient>
    <linearGradient
       inkscape:collect="always"
       id="linearGradient902">
      <stop
         style="stop-color:#a84aef;stop-opacity:1"
         offset="0"
         id="stop898" />
      <stop
         style="stop-color:#9043f5;stop-opacity:0.98431373"
         offset="1"
         id="stop900" />
    </linearGradient>
    <linearGradient
       inkscape:collect="always"
       id="linearGradient894">
      <stop
         style="stop-color:#d28eff;stop-opacity:0.71156305"
         offset="0"
         id="stop890" />
      <stop
         style="stop-color:#e4bdff;stop-opacity:0.6891638"
         offset="1"
         id="stop892" />
    </linearGradient>
    <clipPath
       clipPathUnits="userSpaceOnUse"
       id="clipPath1015">
      <circle
         style="opacity:1;fill:#000000;fill-opacity:0.391371;stroke-width:3;stroke-linecap:square;stroke-linejoin:round"
         id="circle1017"
         cx="7.9922285"
         cy="8.3515797"
         r="4.4578996" />
    </clipPath>
    <linearGradient
       inkscape:collect="always"
       xlink:href="#linearGradient894"
       id="linearGradient896"
       x1="7.2631879"
       y1="11.144886"
       x2="7.2631879"
       y2="0.12699203"
       gradientUnits="userSpaceOnUse" />
    <linearGradient
       inkscape:collect="always"
       xlink:href="#linearGradient902"
       id="linearGradient904"
       x1="9.150425"
       y1="6.4404564"
       x2="9.150425"
       y2="16.098465"
       gradientUnits="userSpaceOnUse"
       gradientTransform="scale(3.7795276)" />
    <linearGradient
       inkscape:collect="always"
       xlink:href="#linearGradient912"
       id="linearGradient914"
       x1="9.9680481"
       y1="6.5003781"
       x2="9.9680481"
       y2="5.1963153"
       gradientUnits="userSpaceOnUse"
       gradientTransform="scale(3.7795276)" />
    <linearGradient
       inkscape:collect="always"
       xlink:href="#linearGradient939"
       id="linearGradient941"
       x1="1.8475006"
       y1="8.0404558"
       x2="0.35016358"
       y2="8.0404558"
       gradientUnits="userSpaceOnUse"
       gradientTransform="scale(3.7795276)" />
    <radialGradient
       inkscape:collect="always"
       xlink:href="#linearGradient953"
       id="radialGradient955"
       cx="2.802413"
       cy="7.0172315"
       fx="2.802413"
       fy="7.0172315"
       r="1.7003841"
       gradientTransform="matrix(-1.4555581,-0.01234903,0.01031687,-1.2160311,6.8090922,15.827284)"
       gradientUnits="userSpaceOnUse" />
    <linearGradient
       inkscape:collect="always"
       xlink:href="#linearGradient912"
       id="linearGradient988"
       gradientUnits="userSpaceOnUse"
       gradientTransform="scale(3.7795276)"
       x1="9.9680481"
       y1="6.5003781"
       x2="9.9680481"
       y2="5.1963153" />
    <linearGradient
       inkscape:collect="always"
       xlink:href="#linearGradient939"
       id="linearGradient990"
       gradientUnits="userSpaceOnUse"
       gradientTransform="scale(3.7795276)"
       x1="1.8475006"
       y1="8.0404558"
       x2="0.35016358"
       y2="8.0404558" />
    <radialGradient
       inkscape:collect="always"
       xlink:href="#linearGradient953"
       id="radialGradient992"
       gradientUnits="userSpaceOnUse"
       gradientTransform="matrix(-1.4555581,-0.01234903,0.01031687,-1.2160311,6.8090922,15.827284)"
       cx="2.802413"
       cy="7.0172315"
       fx="2.802413"
       fy="7.0172315"
       r="1.7003841" />
  </defs>
  <sodipodi:namedview
     id="base"
     pagecolor="#ffffff"
     bordercolor="#666666"
     borderopacity="1.0"
     inkscape:pageopacity="0.0"
     inkscape:pageshadow="2"
     inkscape:zoom="2.8284271"
     inkscape:cx="-195.95538"
     inkscape:cy="-34.990772"
     inkscape:document-units="mm"
     inkscape:current-layer="layer1"
     inkscape:document-rotation="0"
     showgrid="false"
     units="px"
     inkscape:window-width="1920"
     inkscape:window-height="1028"
     inkscape:window-x="0"
     inkscape:window-y="24"
     inkscape:window-maximized="1"
     showguides="true"
     inkscape:guide-bbox="true">
    <sodipodi:guide
       position="0.32740516,8.8885209"
       orientation="1,0"
       id="guide963" />
  </sodipodi:namedview>
  <metadata
     id="metadata948">
    <rdf:RDF>
      <cc:Work
         rdf:about="">
        <dc:format>image/svg+xml</dc:format>
        <dc:type
           rdf:resource="http://purl.org/dc/dcmitype/StillImage" />
        <dc:title />
      </cc:Work>
    </rdf:RDF>
  </metadata>
  <g
     inkscape:label="Capa 1"
     inkscape:groupmode="layer"
     id="layer1">
    <path
       id="rect869"
       style="fill:url(#linearGradient904);fill-opacity:1;stroke-width:2;stroke-linecap:square;stroke-linejoin:round"
       d="M 13.089844 33.267578 C 13.089844 36.56475 10.015965 38.329987 6.875 38.603516 L 6.875 55.183594 C 6.875 58.240987 9.335185 60.703125 12.392578 60.703125 L 51.837891 60.703125 C 54.895284 60.703125 57.357422 58.240987 57.357422 55.183594 L 57.357422 38.605469 C 54.217021 38.332362 51.145351 36.566826 51.142578 33.267578 C 51.142578 40.458467 38.457031 40.458467 38.457031 33.267578 C 38.457031 40.458467 25.773438 40.458467 25.773438 33.267578 C 25.773438 40.458467 13.089844 40.458467 13.089844 33.267578 z "
       transform="scale(0.26458333)" />
    <rect
       style="fill:#9e48f2;stroke-width:2;stroke-linecap:square;stroke-linejoin:round;fill-opacity:1"
       id="rect870"
       width="12.052925"
       height="3.6355066"
       x="2.2595282"
       y="6.662539"
       rx="0.14409761"
       ry="0.14409761" />
    <g
       id="g1002">
      <g
         id="g978">
        <path
           id="path906"
           style="fill:url(#linearGradient914);fill-opacity:1;stroke-width:2;stroke-linecap:square;stroke-linejoin:round"
           d="M 11.400391 4.7382812 C 11.018216 4.7382812 10.656377 4.7781039 10.314453 4.8535156 C 9.8015668 4.9666332 9.3333846 5.1603851 8.9082031 5.4199219 C 7.9161129 6.0255078 7.1589868 6.991112 6.6132812 8.140625 C 6.3014495 8.7974896 6.0581103 9.5143003 5.8808594 10.257812 L 4.0351562 18.015625 L 10.580078 18.421875 L 10.603516 37.453125 C 10.786366 37.341116 10.962877 37.221267 11.130859 37.09375 C 11.298841 36.966233 11.458544 36.830566 11.609375 36.6875 C 11.740677 36.562957 11.861828 36.431277 11.978516 36.294922 C 12.004255 36.264701 12.031663 36.235879 12.056641 36.205078 C 12.156662 36.082334 12.246729 35.952296 12.333984 35.820312 C 12.358688 35.782746 12.386537 35.747297 12.410156 35.708984 C 12.48647 35.585865 12.55263 35.455087 12.617188 35.324219 C 12.645482 35.266478 12.677218 35.211585 12.703125 35.152344 C 12.761499 35.019823 12.807701 34.880322 12.853516 34.740234 C 12.871598 34.684577 12.894128 34.631063 12.910156 34.574219 C 12.949938 34.433976 12.977203 34.2862 13.003906 34.138672 C 13.016342 34.069438 13.035464 34.00442 13.044922 33.933594 C 13.073899 33.718617 13.089844 33.497379 13.089844 33.267578 C 13.089844 34.166439 13.287949 34.952807 13.634766 35.626953 C 13.894878 36.132563 14.238105 36.575871 14.644531 36.955078 C 14.780015 37.08148 14.921667 37.200142 15.070312 37.3125 C 15.070712 37.312802 15.071866 37.312198 15.072266 37.3125 C 15.220519 37.424495 15.375358 37.530876 15.535156 37.628906 C 15.695404 37.727219 15.860938 37.818076 16.03125 37.902344 C 16.371895 38.07088 16.72995 38.211861 17.101562 38.324219 C 17.102149 38.324396 17.10293 38.324042 17.103516 38.324219 C 17.474564 38.436303 17.858488 38.520084 18.248047 38.576172 C 18.638216 38.632351 19.035278 38.660156 19.431641 38.660156 C 20.224414 38.660156 21.016541 38.548934 21.759766 38.324219 C 23.431341 37.818784 24.852475 36.743832 25.458984 35.101562 C 25.459196 35.100989 25.458773 35.100183 25.458984 35.099609 C 25.593477 34.735014 25.688262 34.342476 25.736328 33.921875 C 25.7364 33.921248 25.736257 33.920549 25.736328 33.919922 C 25.760327 33.709251 25.773438 33.492293 25.773438 33.267578 C 25.773438 33.717009 25.823112 34.137998 25.916016 34.53125 C 26.008913 34.924502 26.144951 35.28988 26.318359 35.626953 C 27.35881 37.649391 29.737061 38.660156 32.115234 38.660156 L 32.115234 4.7421875 L 11.400391 4.7382812 z "
           transform="scale(0.26458333)" />
        <path
           id="path926"
           style="fill:url(#linearGradient941);fill-opacity:1;stroke:none;stroke-width:0.999999px;stroke-linecap:butt;stroke-linejoin:miter;stroke-opacity:1"
           d="M 1.7910156 27.4375 L 0.40429688 33.267578 C -1.0139813 38.560666 6.5236517 39.952337 10.603516 37.453125 L 10.591797 27.4375 L 1.7910156 27.4375 z "
           transform="scale(0.26458333)" />
        <path
           style="fill:url(#radialGradient955);stroke:none;stroke-width:0.264583px;stroke-linecap:butt;stroke-linejoin:miter;stroke-opacity:1;fill-opacity:1"
           d="m -0.59835531,4.5325838 0.47306267,2.7232213 2.92770554,0.0037 -0.0031,-3.8853155 z"
           id="path947"
           sodipodi:nodetypes="ccccc" />
      </g>
      <g
         id="g986"
         transform="matrix(-1,0,0,1,16.99451,1.1200256e-4)">
        <path
           id="path980"
           style="fill:url(#linearGradient988);fill-opacity:1;stroke-width:2;stroke-linecap:square;stroke-linejoin:round"
           d="m 11.400391,4.7382812 c -0.382175,0 -0.744014,0.039823 -1.085938,0.1152344 C 9.8015668,4.9666332 9.3333846,5.1603851 8.9082031,5.4199219 7.9161129,6.0255078 7.1589868,6.991112 6.6132812,8.140625 6.3014495,8.7974896 6.0581103,9.5143003 5.8808594,10.257812 l -1.8457032,7.757813 6.5449218,0.40625 0.02344,19.03125 c 0.18285,-0.112009 0.359361,-0.231858 0.527343,-0.359375 0.167982,-0.127517 0.327685,-0.263184 0.478516,-0.40625 0.131302,-0.124543 0.252453,-0.256223 0.369141,-0.392578 0.02574,-0.03022 0.05315,-0.05904 0.07813,-0.08984 0.100021,-0.122744 0.190088,-0.252782 0.277343,-0.384766 0.0247,-0.03757 0.05255,-0.07301 0.07617,-0.111328 0.07631,-0.123119 0.142474,-0.253897 0.207032,-0.384765 0.02829,-0.05774 0.06003,-0.112634 0.08594,-0.171875 0.05837,-0.132521 0.104576,-0.272022 0.150391,-0.41211 0.01808,-0.05566 0.04061,-0.109171 0.05664,-0.166015 0.03978,-0.140243 0.06705,-0.288019 0.09375,-0.435547 0.01244,-0.06923 0.03156,-0.134252 0.04102,-0.205078 0.02898,-0.214977 0.04492,-0.436215 0.04492,-0.666016 0,0.898861 0.198105,1.685229 0.544922,2.359375 0.260112,0.50561 0.603339,0.948918 1.009765,1.328125 0.135484,0.126402 0.277136,0.245064 0.425781,0.357422 4e-4,3.02e-4 0.0016,-3.02e-4 0.002,0 0.148253,0.111995 0.303092,0.218376 0.46289,0.316406 0.160248,0.09831 0.325782,0.18917 0.496094,0.273438 0.340645,0.168536 0.6987,0.309517 1.070312,0.421875 5.87e-4,1.77e-4 0.0014,-1.77e-4 0.002,0 0.371048,0.112084 0.754972,0.195865 1.144531,0.251953 0.390169,0.05618 0.787231,0.08398 1.183594,0.08398 0.792773,0 1.5849,-0.111222 2.328125,-0.335937 1.671575,-0.505435 3.092709,-1.580387 3.699218,-3.222657 2.12e-4,-5.73e-4 -2.11e-4,-0.0014 0,-0.002 0.134493,-0.364595 0.229278,-0.757133 0.277344,-1.177734 7.2e-5,-6.27e-4 -7.1e-5,-0.0013 0,-0.002 0.024,-0.210671 0.03711,-0.427629 0.03711,-0.652344 0,0.449431 0.04967,0.87042 0.142578,1.263672 0.0929,0.393252 0.228935,0.75863 0.402343,1.095703 1.040451,2.022438 3.418702,3.033203 5.796875,3.033203 V 4.7421875 Z"
           transform="scale(0.26458333)" />
        <path
           id="path982"
           style="fill:url(#linearGradient990);fill-opacity:1;stroke:none;stroke-width:0.999999px;stroke-linecap:butt;stroke-linejoin:miter;stroke-opacity:1"
           d="M 1.7910156,27.4375 0.40429688,33.267578 C -1.0139813,38.560666 6.5236517,39.952337 10.603516,37.453125 L 10.591797,27.4375 Z"
           transform="scale(0.26458333)" />
        <path
           style="fill:url(#radialGradient992);fill-opacity:1;stroke:none;stroke-width:0.264583px;stroke-linecap:butt;stroke-linejoin:miter;stroke-opacity:1"
           d="m -0.59835531,4.5325838 0.47306267,2.7232213 2.92770554,0.0037 -0.0031,-3.8853155 z"
           id="path984"
           sodipodi:nodetypes="ccccc" />
      </g>
    </g>
    <path
       id="rect871"
       style="fill:url(#linearGradient896);fill-opacity:1;stroke-width:0.529167;stroke-linecap:square;stroke-linejoin:round"
       d="m 3.0164214,1.2538822 c -0.8089355,0 -1.2727855,0.6734922 -1.4603761,1.4603759 L 0.10703815,8.8021337 c -0.50979709,1.9025893 3.35607425,1.9025893 3.35607425,0 0,1.9025893 3.3560743,1.9025893 3.3560743,0 0,1.9025893 3.3560743,1.9025893 3.3560743,0 0,1.9025893 3.356074,1.9025893 3.356074,0 0.0016,1.9037873 3.865871,1.9025893 3.356074,0 L 15.438401,2.7158083 C 15.250811,1.9289247 14.78696,1.2554325 13.978026,1.2554325 Z"
       sodipodi:nodetypes="ccccccccccc" />
    <path
       id="path874"
       style="fill:#ffffff;fill-opacity:0.215087;stroke-width:0.529167;stroke-linecap:square;stroke-linejoin:round"
       d="M 7.3704053,1.2546574 4.4896648,1.2542698 3.4631124,8.8021337 c 0,1.9024663 3.3560743,1.8866633 3.3560743,0 z m 2.8048557,7.5474763 c 0,1.9025893 3.356074,1.9025893 3.356074,0 L 12.565327,1.2554325 9.6048637,1.2550449"
       sodipodi:nodetypes="ccccccccc" />
  </g>
</svg>
