<?xml version="1.0" encoding="UTF-8" standalone="no"?>
<svg
   xmlns:dc="http://purl.org/dc/elements/1.1/"
   xmlns:cc="http://creativecommons.org/ns#"
   xmlns:rdf="http://www.w3.org/1999/02/22-rdf-syntax-ns#"
   xmlns:svg="http://www.w3.org/2000/svg"
   xmlns="http://www.w3.org/2000/svg"
   xmlns:xlink="http://www.w3.org/1999/xlink"
   xmlns:sodipodi="http://sodipodi.sourceforge.net/DTD/sodipodi-0.dtd"
   xmlns:inkscape="http://www.inkscape.org/namespaces/inkscape"
   width="64"
   height="64"
   version="1.1"
   viewBox="0 0 16.933 16.933"
   id="svg20"
   sodipodi:docname="goa-account-pocket.svg"
   inkscape:version="1.0.2 (e86c870879, 2021-01-15)">
  <metadata
     id="metadata26">
    <rdf:RDF>
      <cc:Work
         rdf:about="">
        <dc:format>image/svg+xml</dc:format>
        <dc:type
           rdf:resource="http://purl.org/dc/dcmitype/StillImage" />
      </cc:Work>
    </rdf:RDF>
  </metadata>
  <defs
     id="defs24">
    <linearGradient
       inkscape:collect="always"
       id="linearGradient1028">
      <stop
         style="stop-color:#83edb9;stop-opacity:1"
         offset="0"
         id="stop1024" />
      <stop
         style="stop-color:#73dcb8;stop-opacity:1"
         offset="0.1839187"
         id="stop1070" />
      <stop
         style="stop-color:#69cdb5;stop-opacity:0.97647059"
         offset="0.26262018"
         id="stop1072" />
      <stop
         style="stop-color:#6bb8ae;stop-opacity:0.99607843"
         offset="0.34653041"
         id="stop1074" />
      <stop
         style="stop-color:#7d9f9e;stop-opacity:1"
         offset="0.41859627"
         id="stop1076" />
      <stop
         style="stop-color:#a87b81;stop-opacity:1"
         offset="0.50345337"
         id="stop1078" />
      <stop
         style="stop-color:#d86062;stop-opacity:1"
         offset="0.60676581"
         id="stop1080" />
      <stop
         style="stop-color:#f27353;stop-opacity:0.99725634"
         offset="0.74029696"
         id="stop1082" />
      <stop
         style="stop-color:#f6904e;stop-opacity:0.98006409"
         offset="0.81729877"
         id="stop1084" />
      <stop
         style="stop-color:#fbb74b;stop-opacity:1"
         offset="1"
         id="stop1026" />
    </linearGradient>
    <linearGradient
       inkscape:collect="always"
       id="linearGradient948">
      <stop
         style="stop-color:#83edb9;stop-opacity:1;"
         offset="0"
         id="stop938" />
      <stop
         style="stop-color:#83edb9;stop-opacity:1"
         offset="0.2426838"
         id="stop940" />
      <stop
         style="stop-color:#51bbb7;stop-opacity:1"
         offset="0.2426838"
         id="stop950" />
      <stop
         style="stop-color:#51bbb7;stop-opacity:1"
         offset="0.49243507"
         id="stop954" />
      <stop
         style="stop-color:#ef4155;stop-opacity:1"
         offset="0.49243507"
         id="stop942" />
      <stop
         style="stop-color:#ef4155;stop-opacity:1"
         offset="0.75687754"
         id="stop958" />
      <stop
         style="stop-color:#fbb74b;stop-opacity:1"
         offset="0.75687754"
         id="stop944" />
      <stop
         style="stop-color:#fbb74b;stop-opacity:1"
         offset="1"
         id="stop946" />
    </linearGradient>
    <linearGradient
       inkscape:collect="always"
       xlink:href="#linearGradient948"
       id="linearGradient936"
       gradientUnits="userSpaceOnUse"
       x1="1.2619195"
       y1="-8.7653427"
       x2="15.623237"
       y2="-8.7653427"
       gradientTransform="translate(0.05372906,17.252425)" />
    <linearGradient
       inkscape:collect="always"
       xlink:href="#linearGradient1028"
       id="linearGradient1044"
       gradientUnits="userSpaceOnUse"
       gradientTransform="translate(-0.28072141,10.728519)"
       x1="1.5963693"
       y1="-2.2414362"
       x2="15.957687"
       y2="-2.2414362" />
    <radialGradient
       inkscape:collect="always"
       xlink:href="#linearGradient929"
       id="radialGradient935"
       gradientUnits="userSpaceOnUse"
       gradientTransform="matrix(0.16135597,0,0,0.16135597,-22.146255,-14.823293)"
       cx="190.85039"
       cy="148.92816"
       fx="190.85039"
       fy="148.92816"
       r="53.835484" />
    <linearGradient
       inkscape:collect="always"
       id="linearGradient929">
      <stop
         style="stop-color:#000000;stop-opacity:1;"
         offset="0"
         id="stop925" />
      <stop
         style="stop-color:#000000;stop-opacity:0.74117647;"
         offset="0.27787876"
         id="stop961" />
      <stop
         style="stop-color:#000000;stop-opacity:0.2627451;"
         offset="0.58380306"
         id="stop963" />
      <stop
         style="stop-color:#000000;stop-opacity:0.21568627;"
         offset="0.62281501"
         id="stop967" />
      <stop
         style="stop-color:#000000;stop-opacity:0.17254902;"
         offset="0.66894341"
         id="stop971" />
      <stop
         style="stop-color:#000000;stop-opacity:0.13333333;"
         offset="0.70968169"
         id="stop975" />
      <stop
         style="stop-color:#000000;stop-opacity:0.09019608;"
         offset="0.76298833"
         id="stop979" />
      <stop
         style="stop-color:#000000;stop-opacity:0.06666667;"
         offset="0.79677397"
         id="stop977" />
      <stop
         style="stop-color:#000000;stop-opacity:0.03137255;"
         offset="0.86606854"
         id="stop981" />
      <stop
         style="stop-color:#000000;stop-opacity:0.02745098;"
         offset="0.88822615"
         id="stop947" />
      <stop
         style="stop-color:#000000;stop-opacity:0.02352941;"
         offset="0.90482414"
         id="stop983" />
      <stop
         style="stop-color:#000000;stop-opacity:0.01960784;"
         offset="0.91823369"
         id="stop987" />
      <stop
         style="stop-color:#000000;stop-opacity:0.01176471;"
         offset="0.94519842"
         id="stop991" />
      <stop
         style="stop-color:#000000;stop-opacity:0;"
         offset="1"
         id="stop927" />
    </linearGradient>
  </defs>
  <sodipodi:namedview
     pagecolor="#ffffff"
     bordercolor="#666666"
     borderopacity="1"
     objecttolerance="10"
     gridtolerance="10"
     guidetolerance="10"
     inkscape:pageopacity="0"
     inkscape:pageshadow="2"
     inkscape:window-width="1920"
     inkscape:window-height="1028"
     id="namedview22"
     showgrid="false"
     showguides="true"
     inkscape:guide-bbox="true"
     inkscape:zoom="5.0160387"
     inkscape:cx="25.10465"
     inkscape:cy="51.956713"
     inkscape:window-x="0"
     inkscape:window-y="24"
     inkscape:window-maximized="1"
     inkscape:current-layer="svg20"
     inkscape:document-rotation="0" />
  <circle
     style="opacity:1;fill:url(#linearGradient936);fill-opacity:1;stroke-width:1.81251;stroke-linecap:round;stroke-linejoin:round"
     id="circle930"
     cx="8.4963074"
     cy="8.4870825"
     r="7.1806588" />
  <path
     id="circle960"
     style="opacity:1;fill:url(#linearGradient1044);fill-opacity:1;stroke-width:1.81251;stroke-linecap:round;stroke-linejoin:round"
     d="M 8.4964715,2.3588454 A 6.1282386,6.1282386 0 0 0 2.3682842,8.4870327 6.1282386,6.1282386 0 0 0 8.4964715,14.61522 6.1282386,6.1282386 0 0 0 14.624659,8.4870327 6.1282386,6.1282386 0 0 0 8.4964715,2.3588454 Z" />
  <path
     id="path1107"
     style="opacity:1;fill:#ffffff;fill-opacity:0.68964;stroke-width:1.81251;stroke-linecap:round;stroke-linejoin:round"
     d="M 8.4964715,2.3588454 A 6.1282386,6.1282386 0 0 0 2.3682842,8.4870327 6.1282386,6.1282386 0 0 0 8.4964715,14.61522 6.1282386,6.1282386 0 0 0 14.624659,8.4870327 6.1282386,6.1282386 0 0 0 8.4964715,2.3588454 Z" />
  <path
     d="m 4.980988,5.5246065 c -0.3998225,0 -0.7799135,0.05608 -1.007345,0.31882 -0.3499745,0.400861 -0.2128925,1.200506 -0.2128925,1.6865227 0,0.7435655 -0.050887,1.533864 0.1007345,2.2680835 0.162006,0.7840673 0.7342195,1.6345993 1.377051,2.1663113 0.4662865,0.384245 0.9668435,0.658409 1.5442495,0.881686 0.567021,0.197315 1.109118,0.287665 1.676139,0.292857 0.521327,0 1.042654,-0.05504 1.539057,-0.211854 0.5057495,-0.162006 1.0177305,-0.39463 1.4372845,-0.693718 0.440324,-0.339589 0.795491,-0.673986 1.079001,-1.098733 0.202508,-0.313627 0.37386,-0.654255 0.500557,-1.002152 0.313627,-0.8619553 0.223278,-1.8734543 0.223278,-2.7696798 0,-0.4050137 0.105927,-1.1340407 -0.167199,-1.4788227 -0.410208,-0.516134 -1.32201,-0.333358 -2.000151,-0.333358 H 5.861636 c -0.2585865,0 -0.5722135,-0.03531 -0.880648,-0.03531 z m 5.770945,2.2078497 c 0.111119,0 0.223277,0.03012 0.344782,0.100734 0.273125,0.162006 0.359321,0.557675 0.16616,0.7996455 -0.176545,0.22847 -0.440324,0.4102075 -0.662563,0.598176 l -1.14962,0.9969593 c -0.2523555,0.22847 -0.5161345,0.54729 -0.891033,0.58156 -0.37386,0.03635 -0.6231,-0.24197 -0.8650705,-0.460055 l -1.20466,-1.0478463 c -0.24924,-0.2025075 -0.598176,-0.429939 -0.770567,-0.693718 -0.243009,-0.369706 0.04154,-0.8152225 0.481864,-0.8702635 0.2835105,-0.03531 0.4808255,0.121505 0.6781405,0.283511 l 1.123657,0.972036 c 0.116312,0.1007345 0.3084345,0.363475 0.4704405,0.384245 0.182776,0.025963 0.461094,-0.334397 0.577406,-0.43617 L 9.8858235,8.2236667 C 10.128833,8.0055812 10.412343,7.7272632 10.747779,7.7272632"
     fill="#ee4055"
     id="path4"
     style="fill:#bd363f;fill-opacity:0.602073;stroke-width:1.0385" />
  <path
     id="circle923"
     style="opacity:0.642159;fill:url(#radialGradient935);fill-opacity:1;stroke:none;stroke-width:5.05744;stroke-linecap:round;stroke-linejoin:round;stroke-miterlimit:4;stroke-dasharray:none;stroke-opacity:1"
     d="M 8.6442633,0.52023417 A 8.6866778,8.6866778 0 0 0 -0.03823981,9.2073879 8.6866778,8.6866778 0 0 0 8.6483973,17.894025 8.6866778,8.6866778 0 0 0 17.335034,9.2073879 8.6866778,8.6866778 0 0 0 8.6483973,0.52023417 a 8.6866778,8.6866778 0 0 0 -0.00413,0 z M 8.4964715,2.3588454 A 6.1282386,6.1282386 0 0 1 14.624659,8.4870327 6.1282386,6.1282386 0 0 1 8.4964715,14.61522 6.1282386,6.1282386 0 0 1 2.3682842,8.4870327 6.1282386,6.1282386 0 0 1 8.4964715,2.3588454 Z" />
</svg>
