<?xml version="1.0" encoding="UTF-8" standalone="no"?>
<svg
   xmlns:dc="http://purl.org/dc/elements/1.1/"
   xmlns:cc="http://creativecommons.org/ns#"
   xmlns:rdf="http://www.w3.org/1999/02/22-rdf-syntax-ns#"
   xmlns:svg="http://www.w3.org/2000/svg"
   xmlns="http://www.w3.org/2000/svg"
   xmlns:xlink="http://www.w3.org/1999/xlink"
   xmlns:sodipodi="http://sodipodi.sourceforge.net/DTD/sodipodi-0.dtd"
   xmlns:inkscape="http://www.inkscape.org/namespaces/inkscape"
   width="64"
   height="64"
   version="1.1"
   viewBox="0 0 16.933 16.933"
   id="svg14"
   sodipodi:docname="gwenview.svg"
   inkscape:version="1.0.2 (e86c870879, 2021-01-15)">
  <metadata
     id="metadata20">
    <rdf:RDF>
      <cc:Work
         rdf:about="">
        <dc:format>image/svg+xml</dc:format>
        <dc:type
           rdf:resource="http://purl.org/dc/dcmitype/StillImage" />
        <dc:title />
      </cc:Work>
    </rdf:RDF>
  </metadata>
  <defs
     id="defs18">
    <linearGradient
       inkscape:collect="always"
       id="linearGradient987">
      <stop
         style="stop-color:#ffd247;stop-opacity:1;"
         offset="0"
         id="stop983" />
      <stop
         style="stop-color:#ffba47;stop-opacity:1"
         offset="1"
         id="stop985" />
    </linearGradient>
    <linearGradient
       inkscape:collect="always"
       id="linearGradient913">
      <stop
         style="stop-color:#8647ff;stop-opacity:1;"
         offset="0"
         id="stop909" />
      <stop
         style="stop-color:#8647ff;stop-opacity:0.96470588;"
         offset="0.09061763"
         id="stop919" />
      <stop
         style="stop-color:#8647ff;stop-opacity:0.90980392;"
         offset="0.22782956"
         id="stop921" />
      <stop
         style="stop-color:#8647ff;stop-opacity:0.85882353;"
         offset="0.35290194"
         id="stop923" />
      <stop
         style="stop-color:#8647ff;stop-opacity:0.80784314;"
         offset="0.42838424"
         id="stop925" />
      <stop
         style="stop-color:#8647ff;stop-opacity:0.76862745;"
         offset="0.48036432"
         id="stop938" />
      <stop
         style="stop-color:#8647ff;stop-opacity:0.62745098;"
         offset="0.55869555"
         id="stop960" />
      <stop
         style="stop-color:#8647ff;stop-opacity:0.48627451;"
         offset="0.62931377"
         id="stop962" />
      <stop
         style="stop-color:#8647ff;stop-opacity:0.22352941;"
         offset="0.78197259"
         id="stop964" />
      <stop
         style="stop-color:#8647ff;stop-opacity:0.15686275;"
         offset="0.83987141"
         id="stop952" />
      <stop
         style="stop-color:#8647ff;stop-opacity:0.0745098;"
         offset="0.91977257"
         id="stop954" />
      <stop
         style="stop-color:#8647ff;stop-opacity:0.01960784;"
         offset="0.97855145"
         id="stop956" />
      <stop
         style="stop-color:#8647ff;stop-opacity:0;"
         offset="1"
         id="stop911" />
    </linearGradient>
    <linearGradient
       inkscape:collect="always"
       id="linearGradient903">
      <stop
         style="stop-color:#fffefb;stop-opacity:1"
         offset="0"
         id="stop899" />
      <stop
         style="stop-color:#cbe9fc;stop-opacity:1"
         offset="1"
         id="stop901" />
    </linearGradient>
    <linearGradient
       inkscape:collect="always"
       id="linearGradient941">
      <stop
         style="stop-color:#ff296a;stop-opacity:1;"
         offset="0"
         id="stop937" />
      <stop
         style="stop-color:#ff3756;stop-opacity:1"
         offset="1"
         id="stop939" />
    </linearGradient>
    <clipPath
       clipPathUnits="userSpaceOnUse"
       id="clipPath1166">
      <circle
         style="opacity:0.549378;fill:url(#radialGradient1170);fill-opacity:1;stroke-width:1"
         id="circle1168"
         cx="16.60276"
         cy="47.223671"
         r="15.934281" />
    </clipPath>
    <radialGradient
       inkscape:collect="always"
       xlink:href="#linearGradient941"
       id="radialGradient1170"
       gradientUnits="userSpaceOnUse"
       gradientTransform="matrix(8.084336,0,0,7.4867944,-17.143765,-32.996318)"
       cx="3.9825375"
       cy="8.9006214"
       fx="3.9825375"
       fy="8.9006214"
       r="4.2158623" />
    <radialGradient
       inkscape:collect="always"
       xlink:href="#linearGradient903"
       id="radialGradient905"
       cx="8.2027817"
       cy="1.0858839"
       fx="8.2027817"
       fy="1.0858839"
       r="7.5121457"
       gradientUnits="userSpaceOnUse"
       gradientTransform="matrix(2.0446836,0,0,1.4493131,-8.569311,-0.48790155)" />
    <linearGradient
       inkscape:collect="always"
       xlink:href="#linearGradient913"
       id="linearGradient917"
       gradientUnits="userSpaceOnUse"
       x1="24.814301"
       y1="59.319275"
       x2="46.030811"
       y2="38.102764" />
    <linearGradient
       inkscape:collect="always"
       xlink:href="#linearGradient987"
       id="linearGradient989"
       x1="1.9596032"
       y1="5.249375"
       x2="6.0636566"
       y2="5.249375"
       gradientUnits="userSpaceOnUse"
       gradientTransform="translate(0.77439246,-0.77109614)" />
  </defs>
  <sodipodi:namedview
     pagecolor="#ffffff"
     bordercolor="#666666"
     borderopacity="1"
     objecttolerance="10"
     gridtolerance="10"
     guidetolerance="10"
     inkscape:pageopacity="0"
     inkscape:pageshadow="2"
     inkscape:window-width="1920"
     inkscape:window-height="1028"
     id="namedview16"
     showgrid="false"
     inkscape:zoom="2.828427"
     inkscape:cx="-118.85151"
     inkscape:cy="91.485983"
     inkscape:window-x="0"
     inkscape:window-y="24"
     inkscape:window-maximized="1"
     inkscape:current-layer="svg14"
     inkscape:document-rotation="0"
     showguides="true"
     inkscape:guide-bbox="true" />
  <path
     id="rect925"
     style="fill:url(#radialGradient905);fill-opacity:1;stroke-width:0.289287"
     d="m 3.4408739,1.0238182 c -1.4439252,0 -2.60641036,1.1624856 -2.60641036,2.6064102 v 9.8114706 c 0,1.443924 1.16248516,2.60641 2.60641036,2.60641 h 9.8114701 c 1.443925,0 2.606411,-1.162485 2.606411,-2.60641 V 3.6302284 c 0,-1.4439246 -1.162486,-2.6064102 -2.606411,-2.6064102 z"
     sodipodi:nodetypes="sccccccss" />
  <path
     id="path907"
     style="fill:url(#linearGradient917);stroke-width:1;fill-opacity:1"
     d="M 46.466797 22.078125 C 44.047797 22.078125 41.627001 23.003859 39.773438 24.857422 L 6.4628906 58.167969 C 8.2011805 59.712639 10.48687 60.65625 13.005859 60.65625 L 50.087891 60.65625 C 55.545352 60.65625 59.939453 56.262149 59.939453 50.804688 L 59.939453 31.638672 L 53.158203 24.857422 C 51.30464 23.003859 48.885797 22.078125 46.466797 22.078125 z "
     transform="scale(0.26457812)" />
  <path
     id="rect889"
     style="fill:#8647ff;stroke-width:1;fill-opacity:0.99933249"
     d="M 19.529297 30.986328 C 17.110297 30.986328 14.691454 31.912062 12.837891 33.765625 L 3.1542969 43.449219 L 3.1542969 50.804688 C 3.1542969 53.743157 4.4350275 56.365968 6.4628906 58.167969 L 28.542969 36.087891 L 26.222656 33.765625 C 24.369093 31.912062 21.948297 30.986328 19.529297 30.986328 z M 6.46875 58.171875 C 6.6772367 58.356877 6.8933552 58.532276 7.1171875 58.699219 C 6.8939831 58.532374 6.6768331 58.35652 6.46875 58.171875 z M 7.1621094 58.734375 C 7.3745591 58.89092 7.5932562 59.038362 7.8183594 59.177734 C 7.5937657 59.038125 7.3741757 58.891003 7.1621094 58.734375 z M 7.9296875 59.244141 C 8.1355844 59.367891 8.3451203 59.484991 8.5605469 59.59375 C 8.3454201 59.484575 8.1353308 59.368252 7.9296875 59.244141 z M 8.7714844 59.695312 C 8.9647795 59.787169 9.1593155 59.875673 9.359375 59.955078 C 9.1597045 59.875327 8.9644057 59.787491 8.7714844 59.695312 z M 9.6601562 60.064453 C 9.846053 60.131293 10.031697 60.198083 10.222656 60.253906 C 10.031893 60.197751 9.8458384 60.131648 9.6601562 60.064453 z M 10.558594 60.339844 C 10.742568 60.386642 10.925268 60.436323 11.113281 60.472656 C 10.925611 60.436101 10.742196 60.386886 10.558594 60.339844 z M 51.568359 60.533203 C 51.496033 60.544048 51.424404 60.557132 51.351562 60.566406 C 51.424424 60.55673 51.496016 60.544455 51.568359 60.533203 z M 11.666016 60.554688 C 11.787465 60.571115 11.906456 60.59543 12.029297 60.607422 C 11.906357 60.595331 11.787537 60.571253 11.666016 60.554688 z "
     transform="scale(0.26457812)" />
  <path
     id="rect891"
     style="fill:#5018b9;stroke-width:1;fill-opacity:0.4824858"
     d="M 46.466797 22.078125 C 44.047797 22.078125 41.627001 23.003859 39.773438 24.857422 L 6.4628906 58.167969 C 8.2011805 59.712639 10.48687 60.65625 13.005859 60.65625 L 50.087891 60.65625 C 55.545352 60.65625 59.939453 56.262149 59.939453 50.804688 L 59.939453 31.638672 L 53.158203 24.857422 C 51.30464 23.003859 48.885797 22.078125 46.466797 22.078125 z "
     transform="scale(0.26457812)" />
  <path
     id="path976"
     style="color:#000000;font-style:normal;font-variant:normal;font-weight:normal;font-stretch:normal;font-size:medium;line-height:normal;font-family:sans-serif;font-variant-ligatures:normal;font-variant-position:normal;font-variant-caps:normal;font-variant-numeric:normal;font-variant-alternates:normal;font-variant-east-asian:normal;font-feature-settings:normal;font-variation-settings:normal;text-indent:0;text-align:start;text-decoration:none;text-decoration-line:none;text-decoration-style:solid;text-decoration-color:#000000;letter-spacing:normal;word-spacing:normal;text-transform:none;writing-mode:lr-tb;direction:ltr;text-orientation:mixed;dominant-baseline:auto;baseline-shift:baseline;text-anchor:start;white-space:normal;shape-padding:0;shape-margin:0;inline-size:0;clip-rule:nonzero;display:inline;overflow:visible;visibility:visible;isolation:auto;mix-blend-mode:normal;color-interpolation:sRGB;color-interpolation-filters:linearRGB;solid-color:#000000;solid-opacity:1;vector-effect:none;fill:url(#linearGradient989);fill-opacity:1;fill-rule:nonzero;stroke:none;stroke-width:1.05831;stroke-linecap:round;stroke-linejoin:round;stroke-miterlimit:4;stroke-dasharray:none;stroke-dashoffset:0;stroke-opacity:1;color-rendering:auto;image-rendering:auto;shape-rendering:auto;text-rendering:auto;enable-background:accumulate;stop-color:#000000"
     d="M 4.6002275,2.0605859 C 3.271018,2.408284 2.4672885,3.7815598 2.8150777,5.1107455 3.1627757,6.4399551 4.5360516,7.2436845 5.8652372,6.8958954 6.1256702,6.8278642 6.3731074,6.7180938 6.5985607,6.5710413 A 0.52920916,0.52920916 0 0 0 6.3445648,5.6001802 C 5.7238754,5.5591606 5.2032156,5.1289415 5.045759,4.5271565 4.8885029,3.92557 5.1315308,3.2959281 5.6523117,2.9561885 A 0.52920916,0.52920916 0 0 0 5.3988157,1.9851966 c -0.2683962,-0.01801 -0.5378127,0.00735 -0.7980883,0.075259 a 0.52920916,0.52920916 0 0 0 -4.999e-4,1.307e-4 z" />
</svg>
