<?xml version="1.0" encoding="UTF-8" standalone="no"?>
<svg
   xmlns:dc="http://purl.org/dc/elements/1.1/"
   xmlns:cc="http://creativecommons.org/ns#"
   xmlns:rdf="http://www.w3.org/1999/02/22-rdf-syntax-ns#"
   xmlns:svg="http://www.w3.org/2000/svg"
   xmlns="http://www.w3.org/2000/svg"
   xmlns:xlink="http://www.w3.org/1999/xlink"
   xmlns:sodipodi="http://sodipodi.sourceforge.net/DTD/sodipodi-0.dtd"
   xmlns:inkscape="http://www.inkscape.org/namespaces/inkscape"
   width="64"
   height="64"
   version="1.1"
   viewBox="0 0 16.933 16.933"
   id="svg16"
   sodipodi:docname="email.svg"
   inkscape:version="1.0.2 (e86c870879, 2021-01-15)">
  <metadata
     id="metadata22">
    <rdf:RDF>
      <cc:Work
         rdf:about="">
        <dc:format>image/svg+xml</dc:format>
        <dc:type
           rdf:resource="http://purl.org/dc/dcmitype/StillImage" />
      </cc:Work>
    </rdf:RDF>
  </metadata>
  <defs
     id="defs20">
    <linearGradient
       inkscape:collect="always"
       xlink:href="#linearGradient2444"
       id="linearGradient2446"
       x1="1254.474"
       y1="352.48715"
       x2="1296.0004"
       y2="394.01349"
       gradientUnits="userSpaceOnUse" />
    <linearGradient
       inkscape:collect="always"
       id="linearGradient2444">
      <stop
         style="stop-color:#b9f3f6;stop-opacity:1;"
         offset="0"
         id="stop2440" />
      <stop
         style="stop-color:#b7cdfd;stop-opacity:1"
         offset="1"
         id="stop2442" />
    </linearGradient>
    <linearGradient
       inkscape:collect="always"
       xlink:href="#linearGradient2454"
       id="linearGradient2456"
       x1="1287.9857"
       y1="358.32129"
       x2="1287.9857"
       y2="408.29871"
       gradientUnits="userSpaceOnUse"
       gradientTransform="translate(0.50739419,-2.1386449)" />
    <linearGradient
       inkscape:collect="always"
       id="linearGradient2454">
      <stop
         style="stop-color:#3daeb7;stop-opacity:1;"
         offset="0"
         id="stop2450" />
      <stop
         style="stop-color:#1f4c8b;stop-opacity:1"
         offset="1"
         id="stop2452" />
    </linearGradient>
    <linearGradient
       inkscape:collect="always"
       xlink:href="#linearGradient2481"
       id="linearGradient2483"
       x1="1207.6428"
       y1="366.23575"
       x2="1207.6428"
       y2="357.17361"
       gradientUnits="userSpaceOnUse"
       gradientTransform="translate(96.181228,1.4880897)" />
    <linearGradient
       inkscape:collect="always"
       id="linearGradient2481">
      <stop
         style="stop-color:#e2872f;stop-opacity:1"
         offset="0"
         id="stop2477" />
      <stop
         style="stop-color:#dbd044;stop-opacity:1"
         offset="1"
         id="stop2479" />
    </linearGradient>
    <linearGradient
       inkscape:collect="always"
       xlink:href="#linearGradient2471"
       id="linearGradient2473"
       x1="1302.2532"
       y1="372.83075"
       x2="1287.6046"
       y2="402.80206"
       gradientUnits="userSpaceOnUse" />
    <linearGradient
       inkscape:collect="always"
       id="linearGradient2471">
      <stop
         style="stop-color:#dcfcdb;stop-opacity:1;"
         offset="0"
         id="stop2467" />
      <stop
         style="stop-color:#abe4f6;stop-opacity:1"
         offset="1"
         id="stop2469" />
    </linearGradient>
  </defs>
  <sodipodi:namedview
     pagecolor="#ffffff"
     bordercolor="#666666"
     borderopacity="1"
     objecttolerance="10"
     gridtolerance="10"
     guidetolerance="10"
     inkscape:pageopacity="0"
     inkscape:pageshadow="2"
     inkscape:window-width="1920"
     inkscape:window-height="1028"
     id="namedview18"
     showgrid="false"
     inkscape:zoom="5.0160387"
     inkscape:cx="32"
     inkscape:cy="32"
     inkscape:window-x="0"
     inkscape:window-y="24"
     inkscape:window-maximized="1"
     inkscape:current-layer="svg16" />
  <g
     id="g2490"
     transform="matrix(0.19306704,0,0,0.19306704,-239.89422,-64.828474)">
    <g
       id="rect2396"
       style="opacity:1">
      <path
         id="path2434"
         style="color:#000000;font-style:normal;font-variant:normal;font-weight:normal;font-stretch:normal;font-size:medium;line-height:normal;font-family:sans-serif;font-variant-ligatures:normal;font-variant-position:normal;font-variant-caps:normal;font-variant-numeric:normal;font-variant-alternates:normal;font-variant-east-asian:normal;font-feature-settings:normal;font-variation-settings:normal;text-indent:0;text-align:start;text-decoration:none;text-decoration-line:none;text-decoration-style:solid;text-decoration-color:#000000;letter-spacing:normal;word-spacing:normal;text-transform:none;writing-mode:lr-tb;direction:ltr;text-orientation:mixed;dominant-baseline:auto;baseline-shift:baseline;text-anchor:start;white-space:normal;shape-padding:0;shape-margin:0;inline-size:0;clip-rule:nonzero;display:inline;overflow:visible;visibility:visible;isolation:auto;mix-blend-mode:normal;color-interpolation:sRGB;color-interpolation-filters:linearRGB;solid-color:#000000;solid-opacity:1;vector-effect:none;fill:url(#linearGradient2446);fill-opacity:1;fill-rule:nonzero;stroke:none;stroke-width:5.51562;stroke-linecap:round;stroke-linejoin:round;stroke-miterlimit:4;stroke-dasharray:none;stroke-dashoffset:0;stroke-opacity:1;color-rendering:auto;image-rendering:auto;shape-rendering:auto;text-rendering:auto;enable-background:accumulate;stop-color:#000000;stop-opacity:1"
         d="m 1267.891,340.67708 a 2.758087,2.758087 0 0 0 -2.731,2.37435 c -0.1873,1.33543 -1.2892,2.29351 -2.6377,2.29332 -1.0874,-3.6e-4 -2.0482,-0.64518 -2.4614,-1.65111 a 2.758087,2.758087 0 0 0 -3.6547,-1.4789 c -4.0193,1.75688 -7.2575,4.90699 -9.147,8.84101 a 2.758087,2.758087 0 0 0 1.7625,3.85528 c 1.1721,0.31842 1.9648,1.35239 1.9652,2.56681 2e-4,1.50311 -1.1589,2.66373 -2.662,2.66405 -0.016,-1.5e-4 -0.033,-0.002 -0.049,-0.002 a 2.758087,2.758087 0 0 0 -2.8343,2.75725 v 3.50074 a 2.758087,2.758087 0 0 0 2.8343,2.75725 c 0.016,-4.5e-4 0.033,-0.002 0.049,-0.002 1.5027,3.1e-4 2.6617,1.15933 2.662,2.66202 2e-4,1.50312 -1.1589,2.66374 -2.662,2.66405 -0.016,-1.5e-4 -0.033,-0.002 -0.049,-0.002 a 2.758087,2.758087 0 0 0 -2.8343,2.75724 v 4.81555 a 2.758087,2.758087 0 0 0 2.8343,2.75724 c 0.016,-4.5e-4 0.033,-0.002 0.049,-0.002 1.5027,3.1e-4 2.6617,1.15934 2.662,2.66203 2e-4,1.50311 -1.1589,2.66373 -2.662,2.66405 -0.016,-1.4e-4 -0.033,-0.002 -0.049,-0.002 a 2.758087,2.758087 0 0 0 -2.8343,2.75725 v 3.31841 a 2.758087,2.758087 0 0 0 2.8343,2.75725 c 0.016,-4.5e-4 0.033,-0.002 0.049,-0.002 1.5031,3.1e-4 2.6622,1.16094 2.662,2.66405 -5e-4,1.33491 -0.9414,2.42827 -2.2609,2.62962 a 2.758087,2.758087 0 0 0 -2.1778,3.66484 c 1.7493,4.83973 5.455,8.72177 10.1983,10.68052 a 2.758087,2.758087 0 0 0 3.5615,-1.40395 c 0.4356,-0.95455 1.374,-1.55746 2.423,-1.55791 1.2844,4.9e-4 2.3561,0.87801 2.6094,2.13733 a 2.758087,2.758087 0 0 0 2.7045,2.2143 h 5.0627 a 2.758087,2.758087 0 0 0 2.7046,-2.2143 c 0.2531,-1.25863 1.3238,-2.13587 2.6073,-2.13733 1.285,0 2.356,0.87761 2.6094,2.13733 a 2.758087,2.758087 0 0 0 2.7045,2.2143 h 4.3233 a 2.758087,2.758087 0 0 0 2.7046,-2.2143 c 0.2531,-1.25865 1.3237,-2.1359 2.6073,-2.13733 1.2849,2e-5 2.356,0.87763 2.6094,2.13733 a 2.758087,2.758087 0 0 0 2.7045,2.2143 h 4.1208 a 2.758087,2.758087 0 0 0 2.7045,-2.2143 c 0.2533,-1.2597 1.3244,-2.13731 2.6093,-2.13733 1.1486,2.9e-4 2.1467,0.71425 2.5182,1.80103 a 2.758087,2.758087 0 0 0 3.4178,1.74632 c 5.155,-1.57998 9.3177,-5.35871 11.4239,-10.25306 a 2.758087,2.758087 0 0 0 -1.4809,-3.64053 c -1.0047,-0.41412 -1.6493,-1.37477 -1.6491,-2.46147 3e-4,-1.33917 0.9465,-2.43668 2.271,-2.63366 a 2.758087,2.758087 0 0 0 2.3521,-2.72686 v -5.36457 a 2.758087,2.758087 0 0 0 -2.3521,-2.72686 c -1.3235,-0.19683 -2.2692,-1.2938 -2.271,-2.63164 v -0.002 c 7e-4,-1.33865 0.9468,-2.43673 2.271,-2.63367 a 2.758087,2.758087 0 0 0 2.3521,-2.72686 v -4.3577 a 2.758087,2.758087 0 0 0 -2.3521,-2.72686 c -1.3245,-0.19698 -2.2707,-1.29448 -2.271,-2.63366 3e-4,-1.33918 0.9465,-2.43667 2.271,-2.63366 a 2.758087,2.758087 0 0 0 2.3521,-2.72686 v -3.5757 a 2.758087,2.758087 0 0 0 -2.3521,-2.72686 c -1.3239,-0.19689 -2.2698,-1.2934 -2.271,-2.63164 v -0.002 c 0,-1.04832 0.604,-1.98575 1.558,-2.42095 a 2.758087,2.758087 0 0 0 1.3573,-3.66687 c -2.1871,-4.71826 -6.3072,-8.33819 -11.3734,-9.83977 a 2.758087,2.758087 0 0 0 -3.4482,1.93067 c -0.3149,1.17569 -1.3518,1.97171 -2.5687,1.97323 -1.3485,1.9e-4 -2.4505,-0.95789 -2.6378,-2.29332 a 2.758087,2.758087 0 0 0 -2.7308,-2.37435 h -3.5048 a 2.758087,2.758087 0 0 0 -2.7309,2.37435 c -0.1872,1.33503 -1.2877,2.29299 -2.6357,2.29332 -1.3485,1.9e-4 -2.4505,-0.95789 -2.6377,-2.29332 a 2.758087,2.758087 0 0 0 -2.7309,-2.37435 h -4.5805 a 2.758087,2.758087 0 0 0 -2.7309,2.37435 c -0.1873,1.33505 -1.2877,2.29301 -2.6358,2.29332 -1.3485,1.6e-4 -2.4504,-0.95792 -2.6377,-2.29332 a 2.758087,2.758087 0 0 0 -2.7308,-2.37435 z" />
    </g>
    <rect
       style="opacity:1;fill:url(#linearGradient2456);fill-opacity:1;stroke:none;stroke-width:5;stroke-linecap:round;stroke-linejoin:round;stroke-miterlimit:4;stroke-dasharray:none;stroke-opacity:1"
       id="rect2448"
       width="63.899353"
       height="64.000702"
       x="1254.2562"
       y="348.3327"
       rx="9.5281601"
       ry="9.5281601" />
    <circle
       style="opacity:1;fill:url(#linearGradient2483);fill-opacity:1;stroke:none;stroke-width:5;stroke-linecap:round;stroke-linejoin:round;stroke-miterlimit:4;stroke-dasharray:none;stroke-opacity:1"
       id="path2475"
       cx="1301.6571"
       cy="366.04877"
       r="9.0624037" />
    <path
       id="path13"
       style="fill:url(#linearGradient2473);fill-opacity:1;stroke-width:5.38223"
       d="m 1300.6884,365.2682 c -0.3243,0.0661 -0.6558,0.20533 -0.9765,0.42008 l -37.8832,22.41469 c -2.5805,1.57317 -2.3027,3.11008 0.056,3.42552 l 10.938,1.50312 21.5119,-19.21421 c 1.0183,-0.88187 2.1288,-0.68373 1.3963,0.22071 l -16.5434,20.8466 0.1658,0.0841 0.8529,10.38037 0.06,0.35465 c 1.053,-0.17661 1.4334,-0.73404 1.923,-1.40556 0.3017,-0.41405 2.2299,-3.0365 4.2174,-5.74334 l 11.8242,6.01327 c 2.1105,0.74158 3.4141,-0.0405 3.5123,-2.43383 l 1.447,-33.6594 c 0.1867,-2.39451 -1.0961,-3.49316 -2.5017,-3.20678 z" />
  </g>
</svg>
