<?xml version="1.0" encoding="UTF-8" standalone="no"?>
<svg
   xmlns:dc="http://purl.org/dc/elements/1.1/"
   xmlns:cc="http://creativecommons.org/ns#"
   xmlns:rdf="http://www.w3.org/1999/02/22-rdf-syntax-ns#"
   xmlns:svg="http://www.w3.org/2000/svg"
   xmlns="http://www.w3.org/2000/svg"
   xmlns:xlink="http://www.w3.org/1999/xlink"
   xmlns:sodipodi="http://sodipodi.sourceforge.net/DTD/sodipodi-0.dtd"
   xmlns:inkscape="http://www.inkscape.org/namespaces/inkscape"
   width="64"
   height="64"
   version="1.1"
   viewBox="0 0 16.933 16.933"
   id="svg30"
   sodipodi:docname="stock_keyring.svg"
   inkscape:version="1.0.2 (e86c870879, 2021-01-15)">
  <metadata
     id="metadata36">
    <rdf:RDF>
      <cc:Work
         rdf:about="">
        <dc:format>image/svg+xml</dc:format>
        <dc:type
           rdf:resource="http://purl.org/dc/dcmitype/StillImage" />
      </cc:Work>
    </rdf:RDF>
  </metadata>
  <defs
     id="defs34">
    <linearGradient
       inkscape:collect="always"
       id="linearGradient958">
      <stop
         style="stop-color:#d63535;stop-opacity:1;"
         offset="0"
         id="stop954" />
      <stop
         style="stop-color:#d63535;stop-opacity:0;"
         offset="1"
         id="stop956" />
    </linearGradient>
    <linearGradient
       inkscape:collect="always"
       id="linearGradient909">
      <stop
         style="stop-color:#d63535;stop-opacity:1;"
         offset="0"
         id="stop905" />
      <stop
         style="stop-color:#d63535;stop-opacity:1"
         offset="0.25319105"
         id="stop915" />
      <stop
         style="stop-color:#d63535;stop-opacity:0.88235295"
         offset="0.42663971"
         id="stop917" />
      <stop
         style="stop-color:#d63535;stop-opacity:0.62352943"
         offset="0.66427213"
         id="stop927" />
      <stop
         style="stop-color:#d63535;stop-opacity:0.21176471;"
         offset="0.92136931"
         id="stop925" />
      <stop
         style="stop-color:#d63535;stop-opacity:0;"
         offset="1"
         id="stop907" />
    </linearGradient>
    <linearGradient
       inkscape:collect="always"
       id="linearGradient872">
      <stop
         style="stop-color:#d63535;stop-opacity:1;"
         offset="0"
         id="stop868" />
      <stop
         style="stop-color:#d63535;stop-opacity:1"
         offset="0.23803589"
         id="stop878" />
      <stop
         style="stop-color:#d63535;stop-opacity:0.88235294;"
         offset="0.39732814"
         id="stop898" />
      <stop
         style="stop-color:#d63535;stop-opacity:0.62352941;"
         offset="0.6548298"
         id="stop896" />
      <stop
         style="stop-color:#d63535;stop-opacity:0.48235294;"
         offset="0.75911915"
         id="stop892" />
      <stop
         style="stop-color:#d63535;stop-opacity:0.25490196;"
         offset="0.89790922"
         id="stop888" />
      <stop
         style="stop-color:#d63535;stop-opacity:0;"
         offset="1"
         id="stop870" />
    </linearGradient>
    <radialGradient
       inkscape:collect="always"
       xlink:href="#linearGradient872"
       id="radialGradient876"
       gradientUnits="userSpaceOnUse"
       gradientTransform="matrix(2.0104092,0,0,1.7929027,-12.580739,-9.5239537)"
       cx="12.451133"
       cy="12.224831"
       fx="12.451133"
       fy="12.224831"
       r="1.6914394" />
    <linearGradient
       inkscape:collect="always"
       xlink:href="#linearGradient909"
       id="linearGradient911"
       x1="12.386273"
       y1="9.3205566"
       x2="15.834012"
       y2="9.3205562"
       gradientUnits="userSpaceOnUse"
       gradientTransform="matrix(3.779602,0,0,3.779602,-2.9583542,-0.64966595)" />
    <linearGradient
       inkscape:collect="always"
       xlink:href="#linearGradient909"
       id="linearGradient933"
       gradientUnits="userSpaceOnUse"
       x1="12.386273"
       y1="9.3205566"
       x2="15.523705"
       y2="9.3205566"
       gradientTransform="matrix(0,3.779602,-3.779602,0,67.713656,-0.796957)" />
    <radialGradient
       inkscape:collect="always"
       xlink:href="#linearGradient958"
       id="radialGradient960"
       cx="10.202251"
       cy="10.205729"
       fx="10.202251"
       fy="10.205729"
       r="3.3775768"
       gradientUnits="userSpaceOnUse"
       gradientTransform="scale(3.779602)" />
  </defs>
  <sodipodi:namedview
     pagecolor="#ffffff"
     bordercolor="#666666"
     borderopacity="1"
     objecttolerance="10"
     gridtolerance="10"
     guidetolerance="10"
     inkscape:pageopacity="0"
     inkscape:pageshadow="2"
     inkscape:window-width="1920"
     inkscape:window-height="1028"
     id="namedview32"
     showgrid="false"
     showguides="true"
     inkscape:guide-bbox="true"
     inkscape:zoom="5.0160387"
     inkscape:cx="12.054046"
     inkscape:cy="47.349371"
     inkscape:window-x="0"
     inkscape:window-y="24"
     inkscape:window-maximized="1"
     inkscape:current-layer="svg30">
    <sodipodi:guide
       position="13.25921,4.4570341"
       orientation="1,0"
       id="guide913" />
    <sodipodi:guide
       position="14.67651,4.0840606"
       orientation="1,0"
       id="guide929" />
  </sodipodi:namedview>
  <path
     d="m3.1744 1.5872c-0.87946 0-1.5875 0.70801-1.5875 1.5875v9.5248c0 0.87946 0.70801 1.5875 1.5875 1.5875h5.227c-0.46038-0.67769-0.72914-1.4967-0.72914-2.3812 0-2.3452 1.888-4.2332 4.2332-4.2332 0.88452 0 1.7035 0.26876 2.3812 0.72914v-5.227c0-0.87946-0.70801-1.5875-1.5875-1.5875z"
     fill="#d63535"
     stroke-width=".95999"
     style="paint-order:markers stroke fill"
     id="path2" />
  <path
     d="m11.906 5.2911c-3.6644 0-6.6145 2.9501-6.6145 6.6145 0 0.84057 0.15682 1.6428 0.44029 2.3812h2.6701c-0.46037-0.6777-0.72916-1.4967-0.72916-2.3812 0-2.3452 1.888-4.2333 4.2333-4.2333 0.88452 0 1.7035 0.26876 2.3812 0.72916v-2.6696c-0.73847-0.28352-1.5406-0.44079-2.3812-0.44079z"
     fill="#f9f9f9"
     opacity=".1"
     stroke-width="1.9231"
     id="path4" />
  <path
     transform="scale(.26458)"
     d="m12.949 10a3 3 0 0 0-2.9492 3 3 3 0 0 0 3 3 3 3 0 0 0 3-3 3 3 0 0 0-3-3 3 3 0 0 0-0.050781 0zm0.048828 0.99805a2 2 0 0 1 2 2 2 2 0 0 1-2 2 2 2 0 0 1-2-2 2 2 0 0 1 2-2z"
     fill="#ffffff"
     opacity=".1"
     stroke-width="4.5386"
     style="paint-order:stroke fill markers"
     id="path6" />
  <circle
     cx="3.4389"
     cy="3.4392"
     r=".52916"
     fill="#ffffff"
     opacity=".5"
     stroke-width="1.3329"
     paint-order="stroke fill markers"
     id="circle8" />
  <rect
     x="11.641"
     y="5.8205"
     width=".52916"
     height="1.3229"
     rx=".26458"
     ry=".26458"
     fill="#ffffff"
     opacity=".25"
     stroke-width="0"
     style="paint-order:stroke fill markers"
     id="rect10" />
  <rect
     transform="rotate(-15)"
     x="8.1538"
     y="8.4961"
     width=".52916"
     height="1.3229"
     rx=".26458"
     ry=".26458"
     fill="#ffffff"
     opacity=".25"
     stroke-width="0"
     style="paint-order:stroke fill markers"
     id="rect12" />
  <rect
     transform="rotate(-30)"
     x="4.093"
     y="10.178"
     width=".52916"
     height="1.3229"
     rx=".26458"
     ry=".26458"
     fill="#ffffff"
     opacity=".25"
     stroke-width="0"
     style="paint-order:stroke fill markers"
     id="rect14" />
  <g
     id="g941"
     transform="translate(-0.7827158,-0.1718874)"
     style="opacity:0.71266478">
    <rect
       style="opacity:1;fill:url(#radialGradient876);fill-opacity:1;stroke-width:1.32289;stroke-linecap:round;stroke-linejoin:round"
       id="rect863"
       width="3.3828788"
       height="3.0445845"
       x="12.451133"
       y="12.393978" />
    <path
       id="rect900"
       style="opacity:1;fill:url(#linearGradient911);fill-opacity:1;stroke-width:5;stroke-linecap:round;stroke-linejoin:round"
       d="M 44.998047 28.998047 C 44.671865 28.998047 44.354436 29.027818 44.033203 29.046875 L 44.033203 46.195312 L 56.888672 46.195312 L 56.888672 34.298828 C 53.964115 31.049165 49.73427 28.998047 44.998047 28.998047 z "
       transform="matrix(0.26457812,0,0,0.26457812,0.7827158,0.1718874)" />
    <path
       id="rect931"
       style="opacity:1;fill:url(#linearGradient933);fill-opacity:1;stroke-width:5;stroke-linecap:round;stroke-linejoin:round"
       d="M 29.058594 46.195312 C 29.467947 51.759645 32.683621 56.519066 37.318359 59.048828 L 44.101562 59.048828 L 44.101562 46.195312 L 29.058594 46.195312 z "
       transform="matrix(0.26457812,0,0,0.26457812,0.7827158,0.1718874)" />
    <path
       id="rect935"
       style="opacity:1;fill:#d63535;fill-opacity:1;stroke-width:5;stroke-linecap:round;stroke-linejoin:round"
       d="m 44.033203,29.046875 c -8.39158,0.516003 -15.035156,7.425242 -15.035156,15.951172 0,0.466277 0.03161,0.924933 0.07031,1.380859 l 15.139158,-0.08511 z"
       transform="matrix(0.26457812,0,0,0.26457812,0.7827158,0.1718874)"
       sodipodi:nodetypes="csccc" />
  </g>
  <path
     id="path952"
     style="opacity:0.733176;fill:url(#radialGradient960);fill-opacity:1;stroke-width:5;stroke-linecap:round;stroke-linejoin:round"
     d="M 44.896484 28.880859 C 36.032484 28.880859 28.896484 36.016859 28.896484 44.880859 C 28.896484 45.639486 28.96721 46.379453 29.068359 47.109375 A 12.765896 12.765896 0 0 0 38.560547 51.339844 A 12.765896 12.765896 0 0 0 51.326172 38.574219 A 12.765896 12.765896 0 0 0 47.052734 29.041016 C 46.346021 28.946366 45.629923 28.880859 44.896484 28.880859 z "
     transform="scale(0.26457812)" />
  <rect
     transform="matrix(0,-1,-1,0,0,0)"
     x="-16.107698"
     y="-16.112061"
     width="8.4665003"
     height="8.4665003"
     rx="4.2339001"
     ry="4.2339001"
     fill="#f9f9f9"
     opacity="0.9"
     stroke-width="1.2308"
     id="rect16"
     style="fill:#f9f9f9;fill-opacity:0.76555842" />
  <rect
     transform="rotate(-45)"
     x="-.2648"
     y="10.752"
     width=".52916"
     height="1.3229"
     rx=".26458"
     ry=".26458"
     fill="#ffffff"
     opacity=".25"
     stroke-width="0"
     style="paint-order:stroke fill markers"
     id="rect18" />
  <rect
     transform="rotate(-60)"
     x="-4.6225"
     y="10.178"
     width=".52916"
     height="1.3229"
     rx=".26458"
     ry=".26458"
     fill="#ffffff"
     opacity=".25"
     stroke-width="0"
     style="paint-order:stroke fill markers"
     id="rect20" />
  <rect
     transform="rotate(-75)"
     x="-8.6833"
     y="8.4959"
     width=".52916"
     height="1.3229"
     rx=".26458"
     ry=".26458"
     fill="#ffffff"
     opacity=".25"
     stroke-width="0"
     style="paint-order:stroke fill markers"
     id="rect22" />
  <rect
     transform="rotate(-90)"
     x="-12.17"
     y="5.8201"
     width=".52916"
     height="1.3229"
     rx=".26458"
     ry=".26458"
     fill="#ffffff"
     opacity=".25"
     stroke-width="0"
     style="paint-order:stroke fill markers"
     id="rect24" />
  <path
     d="m11.906 8.9974-0.78586 0.94283a2.1166 2.1166 0 1 0 1.5707 0z"
     fill="#ffffff"
     stroke-width=".99982"
     id="path28" />
</svg>
