<?xml version="1.0" encoding="UTF-8" standalone="no"?>
<svg
   xmlns:dc="http://purl.org/dc/elements/1.1/"
   xmlns:cc="http://creativecommons.org/ns#"
   xmlns:rdf="http://www.w3.org/1999/02/22-rdf-syntax-ns#"
   xmlns:svg="http://www.w3.org/2000/svg"
   xmlns="http://www.w3.org/2000/svg"
   xmlns:xlink="http://www.w3.org/1999/xlink"
   xmlns:sodipodi="http://sodipodi.sourceforge.net/DTD/sodipodi-0.dtd"
   xmlns:inkscape="http://www.inkscape.org/namespaces/inkscape"
   width="64"
   height="64"
   viewBox="0 0 16.933333 16.933334"
   version="1.1"
   id="svg951"
   inkscape:version="1.0.2 (e86c870879, 2021-01-15)"
   sodipodi:docname="org.openshot.OpenShot.svg">
  <defs
     id="defs945">
    <linearGradient
       inkscape:collect="always"
       id="linearGradient872">
      <stop
         style="stop-color:#077d5f;stop-opacity:1;"
         offset="0"
         id="stop868" />
      <stop
         style="stop-color:#077d5f;stop-opacity:0.8745098;"
         offset="0.25147367"
         id="stop876" />
      <stop
         style="stop-color:#077d5f;stop-opacity:0.78823529;"
         offset="0.45244825"
         id="stop878" />
      <stop
         style="stop-color:#077d5f;stop-opacity:0.63921569;"
         offset="0.61282623"
         id="stop880" />
      <stop
         style="stop-color:#077d5f;stop-opacity:0;"
         offset="1"
         id="stop870" />
    </linearGradient>
    <linearGradient
       inkscape:collect="always"
       id="linearGradient848">
      <stop
         style="stop-color:#0bc96b;stop-opacity:0"
         offset="0"
         id="stop844" />
      <stop
         style="stop-color:#0bc96b;stop-opacity:0.40392157;"
         offset="0.08290037"
         id="stop875" />
      <stop
         style="stop-color:#0bc96b;stop-opacity:0.61960784;"
         offset="0.16856222"
         id="stop883" />
      <stop
         style="stop-color:#0bc96b;stop-opacity:0.78431373;"
         offset="0.24359004"
         id="stop885" />
      <stop
         style="stop-color:#0bc96b;stop-opacity:1"
         offset="0.33337888"
         id="stop854" />
      <stop
         style="stop-color:#0bc96b;stop-opacity:1"
         offset="0.68514359"
         id="stop856" />
      <stop
         style="stop-color:#0bc96b;stop-opacity:0.82352941;"
         offset="0.76413572"
         id="stop887" />
      <stop
         style="stop-color:#0bc96b;stop-opacity:0.6745098;"
         offset="0.81550932"
         id="stop881" />
      <stop
         style="stop-color:#0bc96b;stop-opacity:0.41176471;"
         offset="0.90052462"
         id="stop879" />
      <stop
         style="stop-color:#0bc96b;stop-opacity:0;"
         offset="1"
         id="stop846" />
    </linearGradient>
    <clipPath
       clipPathUnits="userSpaceOnUse"
       id="clipPath1041">
      <rect
         style="fill:#0254ff;fill-opacity:0.650205;stroke-width:1.32292;stroke-linecap:round;stroke-linejoin:round"
         id="rect1043"
         width="10.288502"
         height="14.650601"
         x="21.092087"
         y="1.0028646"
         rx="1.6305863"
         ry="1.6305863" />
    </clipPath>
    <clipPath
       clipPathUnits="userSpaceOnUse"
       id="clipPath1005">
      <rect
         style="opacity:1;fill:#ff9fff;fill-opacity:1;stroke-width:1.32292;stroke-linecap:round;stroke-linejoin:round"
         id="rect1007"
         width="10.081553"
         height="15.261112"
         x="-26.415657"
         y="18.421541"
         rx="1.6522382"
         ry="1.6522382" />
    </clipPath>
    <radialGradient
       inkscape:collect="always"
       xlink:href="#linearGradient872"
       id="radialGradient874"
       cx="4.5465145"
       cy="5.0756001"
       fx="4.5465145"
       fy="5.0756001"
       r="1.0333736"
       gradientUnits="userSpaceOnUse"
       gradientTransform="matrix(1.6524954,0,0,1.6524954,-2.657603,-3.5499327)" />
    <radialGradient
       inkscape:collect="always"
       xlink:href="#linearGradient872"
       id="radialGradient884"
       gradientUnits="userSpaceOnUse"
       gradientTransform="matrix(1.6524954,0,0,1.6524954,0.80486345,-3.5499327)"
       cx="4.5465145"
       cy="5.0756001"
       fx="4.5465145"
       fy="5.0756001"
       r="1.0333736" />
    <radialGradient
       inkscape:collect="always"
       xlink:href="#linearGradient872"
       id="radialGradient888"
       gradientUnits="userSpaceOnUse"
       gradientTransform="matrix(1.6524954,0,0,1.6524954,4.2608054,-3.5499327)"
       cx="4.5465145"
       cy="5.0756001"
       fx="4.5465145"
       fy="5.0756001"
       r="1.0333736" />
    <radialGradient
       inkscape:collect="always"
       xlink:href="#linearGradient872"
       id="radialGradient896"
       gradientUnits="userSpaceOnUse"
       gradientTransform="matrix(1.6524954,0,0,1.6524954,4.2608054,3.8162598)"
       cx="4.5465145"
       cy="5.0756001"
       fx="4.5465145"
       fy="5.0756001"
       r="1.0333736" />
    <radialGradient
       inkscape:collect="always"
       xlink:href="#linearGradient872"
       id="radialGradient898"
       gradientUnits="userSpaceOnUse"
       gradientTransform="matrix(1.6524954,0,0,1.6524954,0.80486345,3.8162598)"
       cx="4.5465145"
       cy="5.0756001"
       fx="4.5465145"
       fy="5.0756001"
       r="1.0333736" />
    <radialGradient
       inkscape:collect="always"
       xlink:href="#linearGradient872"
       id="radialGradient900"
       gradientUnits="userSpaceOnUse"
       gradientTransform="matrix(1.6524954,0,0,1.6524954,-2.657603,3.8162598)"
       cx="4.5465145"
       cy="5.0756001"
       fx="4.5465145"
       fy="5.0756001"
       r="1.0333736" />
    <linearGradient
       inkscape:collect="always"
       xlink:href="#linearGradient848"
       id="linearGradient871"
       gradientUnits="userSpaceOnUse"
       gradientTransform="translate(-13.978275)"
       x1="23.598845"
       y1="16.33493"
       x2="23.598845"
       y2="0.8713094" />
  </defs>
  <sodipodi:namedview
     id="base"
     pagecolor="#ffffff"
     bordercolor="#666666"
     borderopacity="1.0"
     inkscape:pageopacity="0.0"
     inkscape:pageshadow="2"
     inkscape:zoom="7.9999999"
     inkscape:cx="29.130981"
     inkscape:cy="21.325535"
     inkscape:document-units="mm"
     inkscape:current-layer="layer1"
     inkscape:document-rotation="0"
     showgrid="false"
     units="px"
     inkscape:window-width="1920"
     inkscape:window-height="1028"
     inkscape:window-x="0"
     inkscape:window-y="24"
     inkscape:window-maximized="1"
     showguides="true"
     inkscape:guide-bbox="true" />
  <metadata
     id="metadata948">
    <rdf:RDF>
      <cc:Work
         rdf:about="">
        <dc:format>image/svg+xml</dc:format>
        <dc:type
           rdf:resource="http://purl.org/dc/dcmitype/StillImage" />
        <dc:title />
      </cc:Work>
    </rdf:RDF>
  </metadata>
  <g
     inkscape:label="Capa 1"
     inkscape:groupmode="layer"
     id="layer1">
    <g
       id="g1015"
       transform="matrix(1.0192192,0,0,1.0192192,22.022025,-0.62773263)">
      <path
         id="rect898"
         style="opacity:1;fill:#0bc96b;fill-opacity:1;stroke-width:5.00001;stroke-linecap:round;stroke-linejoin:round"
         d="m -73.800781,9.3925781 c -3.459553,0 -6.244141,2.7865409 -6.244141,6.2460939 v 29.585937 c 0,3.459553 2.784588,6.246094 6.244141,6.246094 h 4.277343 V 9.3925781 Z m 42.380859,0 V 51.470703 h 4.277344 c 3.459553,0 6.246094,-2.786541 6.246094,-6.246094 V 15.638672 c 0,-3.459553 -2.786541,-6.2460939 -6.246094,-6.2460939 z"
         transform="matrix(0.26458333,0,0,0.26458333,0,1.0322747)" />
      <path
         id="rect921"
         style="opacity:1;fill:#ffffff;fill-opacity:0.313973;stroke-width:1.32292;stroke-linecap:round;stroke-linejoin:round"
         d="m -8.3358581,3.5176497 1.154631,0 c 0.91534,0 1.6522383,0.7368982 1.6522383,1.6522382 v 7.8282401 c 0,0.91534 -0.7368983,1.652238 -1.6522383,1.652238 l -1.154631,0 z"
         sodipodi:nodetypes="csssscc" />
      <path
         id="rect905"
         style="opacity:1;fill:#00094d;fill-opacity:0.39284;stroke-width:5.00001;stroke-linecap:round;stroke-linejoin:round"
         d="m -75.642578,13.050781 c -0.791146,0 -1.427734,0.636588 -1.427734,1.427735 v 3.90625 c 0,0.791147 0.636588,1.427734 1.427734,1.427734 h 3.90625 c 0.791149,0 1.427734,-0.636587 1.427734,-1.427734 v -3.90625 c 0,-0.791147 -0.636585,-1.427735 -1.427734,-1.427735 z m 46.4375,0 c -0.791146,0 -1.427734,0.636588 -1.427734,1.427735 v 3.90625 c 0,0.791147 0.636588,1.427734 1.427734,1.427734 h 3.90625 c 0.791147,0 1.427734,-0.636587 1.427734,-1.427734 v -3.90625 c 0,-0.791147 -0.636587,-1.427735 -1.427734,-1.427735 z m -46.4375,28.001953 c -0.791146,0 -1.427734,0.636589 -1.427734,1.427735 v 3.90625 c 0,0.791146 0.636588,1.427734 1.427734,1.427734 h 3.90625 c 0.791149,0 1.427734,-0.636588 1.427734,-1.427734 v -3.90625 c 0,-0.791146 -0.636585,-1.427735 -1.427734,-1.427735 z m 46.4375,0 c -0.791146,0 -1.427734,0.636589 -1.427734,1.427735 v 3.90625 c 0,0.791146 0.636588,1.427734 1.427734,1.427734 h 3.90625 c 0.791147,0 1.427734,-0.636588 1.427734,-1.427734 v -3.90625 c 0,-0.791146 -0.636587,-1.427735 -1.427734,-1.427735 z"
         transform="matrix(0.26458333,0,0,0.26458333,0,1.0322747)" />
      <path
         id="rect924"
         style="opacity:1;fill:#00094d;fill-opacity:0.0977877;stroke-width:5.00001;stroke-linecap:round;stroke-linejoin:round"
         d="m -75.640625,22.419922 v 16.02539 h 6.117187 v -16.02539 z m 44.220703,0 v 16.02539 h 6.119141 v -16.02539 z"
         transform="matrix(0.26458333,0,0,0.26458333,0,1.0322747)" />
    </g>
    <rect
       style="fill:url(#linearGradient871);fill-opacity:1;stroke-width:1.34835;stroke-linecap:round;stroke-linejoin:round"
       id="rect842"
       width="10.275312"
       height="15.554419"
       x="3.2738647"
       y="0.85365325"
       rx="1.683993"
       ry="1.683993" />
    <g
       id="g908"
       style="opacity:0.42389989">
      <circle
         style="fill:url(#radialGradient874);fill-opacity:1;stroke-width:2.18612;stroke-linecap:round;stroke-linejoin:round"
         id="path866"
         cx="4.8554912"
         cy="4.8374734"
         r="1.7076452" />
      <circle
         style="fill:url(#radialGradient884);fill-opacity:1;stroke-width:2.18612;stroke-linecap:round;stroke-linejoin:round"
         id="circle882"
         cx="8.3179579"
         cy="4.8374734"
         r="1.7076452" />
      <circle
         style="fill:url(#radialGradient888);fill-opacity:1;stroke-width:2.18612;stroke-linecap:round;stroke-linejoin:round"
         id="circle886"
         cx="11.7739"
         cy="4.8374734"
         r="1.7076452" />
      <circle
         style="fill:url(#radialGradient900);fill-opacity:1;stroke-width:2.18612;stroke-linecap:round;stroke-linejoin:round"
         id="circle890"
         cx="4.8554912"
         cy="12.203666"
         r="1.7076452" />
      <circle
         style="fill:url(#radialGradient898);fill-opacity:1;stroke-width:2.18612;stroke-linecap:round;stroke-linejoin:round"
         id="circle892"
         cx="8.3179579"
         cy="12.203666"
         r="1.7076452" />
      <circle
         style="fill:url(#radialGradient896);fill-opacity:1;stroke-width:2.18612;stroke-linecap:round;stroke-linejoin:round"
         id="circle894"
         cx="11.7739"
         cy="12.203666"
         r="1.7076452" />
    </g>
    <rect
       style="fill:#bf32f0;fill-opacity:0.30068734;stroke-width:1.34835;stroke-linecap:round;stroke-linejoin:round"
       id="rect903-3"
       width="10.275312"
       height="15.554419"
       x="3.2738645"
       y="0.85365325"
       rx="1.683993"
       ry="1.683993" />
    <path
       style="fill:#ffffff;fill-opacity:0.93203056;fill-rule:nonzero;stroke:none;stroke-width:0.0614367"
       d="M 8.020652,4.8186781 C 9.3043718,6.1023982 9.4401257,6.8771363 9.2612629,7.6787652 L 10.739596,7.4930463 c 0.273854,-0.060384 0.557042,-0.042611 0.809736,0.081717 l 0.111437,0.022286 -0.04456,0.029734 c 0.09105,0.052061 0.176508,0.1022211 0.252576,0.1782893 0.472831,0.4728315 0.480025,1.2434661 0.0074,1.7160587 -0.472828,0.4728269 -1.250891,0.4725894 -1.723486,-5e-6 C 9.9625631,9.3309509 9.8631951,9.0995302 9.8258737,8.8525354 9.4561122,8.8921942 9.1427777,8.9751191 8.8452696,9.0605409 8.7592271,9.3592181 8.677285,9.6696322 8.6372664,10.041143 c 0.2460385,0.03638 0.4709862,0.144119 0.6611613,0.334295 0.4735456,0.473545 0.4802612,1.243228 0.00744,1.716057 -0.4735435,0.473545 -1.2422783,0.466351 -1.7160593,-0.0074 -0.077022,-0.07702 -0.128176,-0.161487 -0.1857028,-0.245164 l -0.022321,0.03714 -0.02229,-0.111434 C 7.2361162,11.512854 7.2171557,11.228953 7.2777839,10.95486 l 0.17829,-1.4709045 C 6.6545528,9.6629247 5.8797046,9.5270685 4.5959848,8.243348 L 7.6566521,7.8719049 Z m 2.570366,3.4172487 c -0.234868,0.2348675 -0.242297,0.6194433 -0.0074,0.8543141 0.234868,0.2348686 0.626874,0.2348686 0.861741,1.2e-6 0.234871,-0.2348699 0.22744,-0.6194446 -0.0074,-0.854313 -0.234871,-0.2348708 -0.612015,-0.2348722 -0.846886,-2.3e-6 z M 8.020651,10.806293 c -0.2358208,0.235821 -0.242299,0.619445 -0.00744,0.854315 0.2358188,0.23582 0.6259219,0.235822 0.8617447,0 0.2348668,-0.234868 0.2358188,-0.625925 0,-0.861744 -0.2348709,-0.234869 -0.6194478,-0.227439 -0.8543166,0.0074 z"
       id="path64"
       inkscape:connector-curvature="0" />
  </g>
</svg>
