<?xml version="1.0" encoding="UTF-8" standalone="no"?>
<svg
   xmlns:dc="http://purl.org/dc/elements/1.1/"
   xmlns:cc="http://creativecommons.org/ns#"
   xmlns:rdf="http://www.w3.org/1999/02/22-rdf-syntax-ns#"
   xmlns:svg="http://www.w3.org/2000/svg"
   xmlns="http://www.w3.org/2000/svg"
   xmlns:xlink="http://www.w3.org/1999/xlink"
   xmlns:sodipodi="http://sodipodi.sourceforge.net/DTD/sodipodi-0.dtd"
   xmlns:inkscape="http://www.inkscape.org/namespaces/inkscape"
   height="48"
   width="48"
   version="1.1"
   id="svg10"
   sodipodi:docname="paraview.svg"
   inkscape:version="1.0.2 (e86c870879, 2021-01-15)">
  <metadata
     id="metadata16">
    <rdf:RDF>
      <cc:Work
         rdf:about="">
        <dc:format>image/svg+xml</dc:format>
        <dc:type
           rdf:resource="http://purl.org/dc/dcmitype/StillImage" />
      </cc:Work>
    </rdf:RDF>
  </metadata>
  <defs
     id="defs14">
    <linearGradient
       inkscape:collect="always"
       id="linearGradient847">
      <stop
         style="stop-color:#f88c6b;stop-opacity:1;"
         offset="0"
         id="stop843" />
      <stop
         style="stop-color:#ec946f;stop-opacity:1;"
         offset="0.14831129"
         id="stop855" />
      <stop
         style="stop-color:#7fe39c;stop-opacity:1"
         offset="0.25634763"
         id="stop853" />
      <stop
         style="stop-color:#7fe39c;stop-opacity:1"
         offset="0.62078279"
         id="stop857" />
      <stop
         style="stop-color:#72a5d4;stop-opacity:1"
         offset="0.76219743"
         id="stop859" />
      <stop
         style="stop-color:#72a5d4;stop-opacity:1"
         offset="1"
         id="stop845" />
    </linearGradient>
    <linearGradient
       inkscape:collect="always"
       xlink:href="#linearGradient847"
       id="linearGradient851"
       gradientUnits="userSpaceOnUse"
       x1="8.5879698"
       y1="23.994652"
       x2="42.522465"
       y2="23.994651" />
  </defs>
  <sodipodi:namedview
     pagecolor="#ffffff"
     bordercolor="#666666"
     borderopacity="1"
     objecttolerance="10"
     gridtolerance="10"
     guidetolerance="10"
     inkscape:pageopacity="0"
     inkscape:pageshadow="2"
     inkscape:window-width="1920"
     inkscape:window-height="1028"
     id="namedview12"
     showgrid="false"
     inkscape:zoom="3.3440258"
     inkscape:cx="-99.657781"
     inkscape:cy="19.612412"
     inkscape:window-x="0"
     inkscape:window-y="24"
     inkscape:window-maximized="1"
     inkscape:current-layer="svg10" />
  <path
     d="m23.804688 1.3046875a22.696228 22.696232 0 0 0 -22.6054692 20.8593745v3.730469a22.696228 22.696232 0 0 0 22.6054692 20.800781 22.696228 22.696232 0 0 0 22.695312-22.695312 22.696228 22.696232 0 0 0 -22.695312-22.6953125z"
     fill="#72a5d4"
     id="path2" />
  <path
     d="m16.300781 2.6054688a22.696228 22.696232 0 0 0 -15.1015622 19.5585932v3.730469a22.696228 22.696232 0 0 0 15.1015622 19.498047z"
     fill="#f88c6b"
     id="path4" />
  <path
     d="m23.804688 1.3046875a22.696228 22.696232 0 0 0 -7.503907 1.3007813v42.7871092a22.696228 22.696232 0 0 0 7.503907 1.302734 22.696228 22.696232 0 0 0 7.595703-1.332031v-42.7207029a22.696228 22.696232 0 0 0 -7.595703-1.3378906z"
     fill="#7fe49b"
     opacity=".99"
     transform="matrix(.99999999448 0 0 .99999999448 -.00000087021 .00000038841)"
     id="path6" />
  <path
     d="m 11.897056,11.551267 a 1.3823397,1.5396964 0 0 0 -1.334955,1.135319 L 5.2413742,34.493757 a 1.3823397,1.5396964 0 0 0 1.3332196,1.944278 h 6.1366302 a 1.3823397,1.5396964 0 0 0 1.333218,-1.137056 L 19.365171,13.49381 a 1.3823397,1.5396964 0 0 0 -1.33322,-1.942543 z m 11.554571,0 a 1.3823397,1.5396964 0 0 0 -1.334955,1.135319 l -5.320727,21.807171 a 1.3823397,1.5396964 0 0 0 1.33322,1.944278 h 6.136629 a 1.3823397,1.5396964 0 0 0 1.333221,-1.137056 L 30.919742,13.49381 a 1.3823397,1.5396964 0 0 0 -1.33322,-1.942543 z m 11.554572,0 a 1.3823397,1.5396964 0 0 0 -1.334955,1.135319 l -5.320728,21.807171 a 1.3823397,1.5396964 0 0 0 1.333219,1.944278 h 6.13663 a 1.3823397,1.5396964 0 0 0 1.333221,-1.137056 L 42.474312,13.49381 a 1.3823397,1.5396964 0 0 0 -1.333218,-1.942543 z"
     fill="#ffffff"
     stroke-width="0.888813"
     id="path841"
     style="fill:url(#linearGradient851);fill-opacity:1" />
  <path
     d="m 11.897056,11.551267 a 1.3823397,1.5396964 0 0 0 -1.334955,1.135319 L 5.2413742,34.493757 a 1.3823397,1.5396964 0 0 0 1.3332196,1.944278 h 6.1366302 a 1.3823397,1.5396964 0 0 0 1.333218,-1.137056 L 19.365171,13.49381 a 1.3823397,1.5396964 0 0 0 -1.33322,-1.942543 z m 11.554571,0 a 1.3823397,1.5396964 0 0 0 -1.334955,1.135319 l -5.320727,21.807171 a 1.3823397,1.5396964 0 0 0 1.33322,1.944278 h 6.136629 a 1.3823397,1.5396964 0 0 0 1.333221,-1.137056 L 30.919742,13.49381 a 1.3823397,1.5396964 0 0 0 -1.33322,-1.942543 z m 11.554572,0 a 1.3823397,1.5396964 0 0 0 -1.334955,1.135319 l -5.320728,21.807171 a 1.3823397,1.5396964 0 0 0 1.333219,1.944278 h 6.13663 a 1.3823397,1.5396964 0 0 0 1.333221,-1.137056 L 42.474312,13.49381 a 1.3823397,1.5396964 0 0 0 -1.333218,-1.942543 z"
     fill="#ffffff"
     stroke-width="0.888813"
     id="path8"
     style="fill:#ffffff;fill-opacity:0.56170499" />
  <path
     id="path861"
     style="fill:#004381;fill-opacity:0.19767255"
     d="M 19.087891 12.099609 A 1.3823397 1.5396964 0 0 1 19.365234 13.494141 L 14.044922 35.300781 A 1.3823397 1.5396964 0 0 1 12.710938 36.4375 L 6.5742188 36.4375 A 1.3823397 1.5396964 0 0 1 6.3789062 36.421875 A 1.3823397 1.5396964 0 0 0 7.4355469 36.970703 L 13.572266 36.970703 A 1.3823397 1.5396964 0 0 0 14.90625 35.833984 L 20.226562 14.027344 A 1.3823397 1.5396964 0 0 0 19.087891 12.099609 z M 30.642578 12.099609 A 1.3823397 1.5396964 0 0 1 30.919922 13.494141 L 25.599609 35.300781 A 1.3823397 1.5396964 0 0 1 24.265625 36.4375 L 18.128906 36.4375 A 1.3823397 1.5396964 0 0 1 17.933594 36.421875 A 1.3823397 1.5396964 0 0 0 18.990234 36.970703 L 25.126953 36.970703 A 1.3823397 1.5396964 0 0 0 26.460938 35.833984 L 31.78125 14.027344 A 1.3823397 1.5396964 0 0 0 30.642578 12.099609 z M 42.197266 12.099609 A 1.3823397 1.5396964 0 0 1 42.474609 13.494141 L 37.154297 35.300781 A 1.3823397 1.5396964 0 0 1 35.820312 36.4375 L 29.683594 36.4375 A 1.3823397 1.5396964 0 0 1 29.488281 36.421875 A 1.3823397 1.5396964 0 0 0 30.544922 36.970703 L 36.681641 36.970703 A 1.3823397 1.5396964 0 0 0 38.015625 35.833984 L 43.335938 14.027344 A 1.3823397 1.5396964 0 0 0 42.197266 12.099609 z " />
</svg>
