<?xml version="1.0" encoding="UTF-8" standalone="no"?>
<svg
   xmlns:dc="http://purl.org/dc/elements/1.1/"
   xmlns:cc="http://creativecommons.org/ns#"
   xmlns:rdf="http://www.w3.org/1999/02/22-rdf-syntax-ns#"
   xmlns:svg="http://www.w3.org/2000/svg"
   xmlns="http://www.w3.org/2000/svg"
   xmlns:xlink="http://www.w3.org/1999/xlink"
   xmlns:sodipodi="http://sodipodi.sourceforge.net/DTD/sodipodi-0.dtd"
   xmlns:inkscape="http://www.inkscape.org/namespaces/inkscape"
   width="64"
   height="64"
   viewBox="0 0 16.933333 16.933334"
   version="1.1"
   id="svg951"
   inkscape:version="1.0.2 (e86c870879, 2021-01-15)"
   sodipodi:docname="alarm.svg">
  <defs
     id="defs945">
    <linearGradient
       inkscape:collect="always"
       id="linearGradient1125">
      <stop
         style="stop-color:#000000;stop-opacity:1;"
         offset="0"
         id="stop1121" />
      <stop
         style="stop-color:#000000;stop-opacity:0.98039216;"
         offset="0.46104035"
         id="stop1133" />
      <stop
         style="stop-color:#000000;stop-opacity:0.89411765;"
         offset="0.5286302"
         id="stop1135" />
      <stop
         style="stop-color:#000000;stop-opacity:0.85882353;"
         offset="0.56508154"
         id="stop1137" />
      <stop
         style="stop-color:#000000;stop-opacity:0.80784314;"
         offset="0.62060487"
         id="stop1139" />
      <stop
         style="stop-color:#000000;stop-opacity:0.74509804;"
         offset="0.6646471"
         id="stop1141" />
      <stop
         style="stop-color:#000000;stop-opacity:0.72156863;"
         offset="0.68684751"
         id="stop1175" />
      <stop
         style="stop-color:#000000;stop-opacity:0.61568627;"
         offset="0.75111717"
         id="stop1187" />
      <stop
         style="stop-color:#000000;stop-opacity:0.5254902;"
         offset="0.79093057"
         id="stop1181" />
      <stop
         style="stop-color:#000000;stop-opacity:0.37254902;"
         offset="0.83658832"
         id="stop1173" />
      <stop
         style="stop-color:#000000;stop-opacity:0.16862745;"
         offset="0.90501153"
         id="stop1169" />
      <stop
         style="stop-color:#000000;stop-opacity:0.01176471;"
         offset="0.95989239"
         id="stop1131" />
      <stop
         style="stop-color:#000000;stop-opacity:0.00392157;"
         offset="0.98070705"
         id="stop1129" />
      <stop
         style="stop-color:#000000;stop-opacity:0;"
         offset="1"
         id="stop1123" />
    </linearGradient>
    <linearGradient
       inkscape:collect="always"
       id="linearGradient1003">
      <stop
         style="stop-color:#ffffff;stop-opacity:1;"
         offset="0"
         id="stop999" />
      <stop
         style="stop-color:#ffffff;stop-opacity:0.94117647;"
         offset="0.57644123"
         id="stop1007" />
      <stop
         style="stop-color:#ffffff;stop-opacity:0.88235294;"
         offset="0.63093871"
         id="stop1009" />
      <stop
         style="stop-color:#ffffff;stop-opacity:0.82352941;"
         offset="0.67018652"
         id="stop1037" />
      <stop
         style="stop-color:#ffffff;stop-opacity:0.63137255;"
         offset="0.73488241"
         id="stop1039" />
      <stop
         style="stop-color:#ffffff;stop-opacity:0.4627451;"
         offset="0.77507722"
         id="stop1043" />
      <stop
         style="stop-color:#ffffff;stop-opacity:0.34901961;"
         offset="0.80605203"
         id="stop1047" />
      <stop
         style="stop-color:#ffffff;stop-opacity:0.2745098;"
         offset="0.83581203"
         id="stop1051" />
      <stop
         style="stop-color:#ffffff;stop-opacity:0.21568627;"
         offset="0.8684324"
         id="stop1055" />
      <stop
         style="stop-color:#ffffff;stop-opacity:0.09803922;"
         offset="0.93133503"
         id="stop1057" />
      <stop
         style="stop-color:#ffffff;stop-opacity:0.0745098;"
         offset="0.94429475"
         id="stop1021" />
      <stop
         style="stop-color:#ffffff;stop-opacity:0.03529412;"
         offset="0.96956718"
         id="stop1019" />
      <stop
         style="stop-color:#ffffff;stop-opacity:0.01960784;"
         offset="0.98463249"
         id="stop1017" />
      <stop
         style="stop-color:#ffffff;stop-opacity:0;"
         offset="1"
         id="stop1001" />
    </linearGradient>
    <linearGradient
       inkscape:collect="always"
       id="linearGradient951">
      <stop
         style="stop-color:#14b9f4;stop-opacity:1;"
         offset="0"
         id="stop947" />
      <stop
         style="stop-color:#14b9f4;stop-opacity:0.49411765;"
         offset="0.22705132"
         id="stop964" />
      <stop
         style="stop-color:#14b9f4;stop-opacity:0"
         offset="0.33305991"
         id="stop962" />
      <stop
         style="stop-color:#14b9f4;stop-opacity:0;"
         offset="1"
         id="stop949" />
    </linearGradient>
    <linearGradient
       inkscape:collect="always"
       id="linearGradient933">
      <stop
         style="stop-color:#d66eea;stop-opacity:1;"
         offset="0"
         id="stop929" />
      <stop
         style="stop-color:#d66eea;stop-opacity:0.04705882;"
         offset="0.54413158"
         id="stop943" />
      <stop
         style="stop-color:#d66eea;stop-opacity:0.03529412;"
         offset="0.56846505"
         id="stop941" />
      <stop
         style="stop-color:#d66eea;stop-opacity:0"
         offset="0.60000002"
         id="stop939" />
      <stop
         style="stop-color:#d66eea;stop-opacity:0;"
         offset="1"
         id="stop931" />
    </linearGradient>
    <linearGradient
       inkscape:collect="always"
       id="linearGradient886">
      <stop
         style="stop-color:#000000;stop-opacity:1;"
         offset="0"
         id="stop882" />
      <stop
         style="stop-color:#000000;stop-opacity:0.9372549;"
         offset="0.79456264"
         id="stop891" />
      <stop
         style="stop-color:#000000;stop-opacity:0.89019608;"
         offset="0.81078207"
         id="stop909" />
      <stop
         style="stop-color:#000000;stop-opacity:0.81960784;"
         offset="0.82938337"
         id="stop911" />
      <stop
         style="stop-color:#000000;stop-opacity:0.77647059;"
         offset="0.84631515"
         id="stop913" />
      <stop
         style="stop-color:#000000;stop-opacity:0.67058824;"
         offset="0.87042409"
         id="stop918" />
      <stop
         style="stop-color:#000000;stop-opacity:0.12941176;"
         offset="0.93604785"
         id="stop907" />
      <stop
         style="stop-color:#000000;stop-opacity:0.10588235;"
         offset="0.944749"
         id="stop905" />
      <stop
         style="stop-color:#000000;stop-opacity:0.0745098;"
         offset="0.95550299"
         id="stop903" />
      <stop
         style="stop-color:#000000;stop-opacity:0.04313725;"
         offset="0.96715587"
         id="stop897" />
      <stop
         style="stop-color:#000000;stop-opacity:0.01960784;"
         offset="0.9769302"
         id="stop895" />
      <stop
         style="stop-color:#000000;stop-opacity:0"
         offset="0.9870621"
         id="stop893" />
      <stop
         style="stop-color:#000000;stop-opacity:0;"
         offset="1"
         id="stop884" />
    </linearGradient>
    <linearGradient
       inkscape:collect="always"
       id="linearGradient887">
      <stop
         style="stop-color:#fafafb;stop-opacity:1"
         offset="0"
         id="stop883" />
      <stop
         style="stop-color:#e9f2fe;stop-opacity:1"
         offset="1"
         id="stop885" />
    </linearGradient>
    <linearGradient
       inkscape:collect="always"
       xlink:href="#linearGradient887"
       id="linearGradient889"
       x1="-45.290127"
       y1="47.877674"
       x2="-69.193512"
       y2="6.4757967"
       gradientUnits="userSpaceOnUse"
       gradientTransform="matrix(0.26458333,0,0,0.26458333,21.691469,1.1210794)" />
    <radialGradient
       inkscape:collect="always"
       xlink:href="#linearGradient886"
       id="radialGradient888"
       cx="8.5563831"
       cy="8.976696"
       fx="8.5563831"
       fy="8.976696"
       r="8.5171833"
       gradientUnits="userSpaceOnUse"
       gradientTransform="matrix(3.7795276,0,0,3.7795276,0.11284966,-1.8345914)" />
    <radialGradient
       inkscape:collect="always"
       xlink:href="#linearGradient933"
       id="radialGradient937"
       gradientUnits="userSpaceOnUse"
       gradientTransform="matrix(-1.6447891,-0.00239486,0.01380672,-9.4824633,55.309513,155.47278)"
       cx="14.759679"
       cy="12.708527"
       fx="14.759679"
       fy="12.708527"
       r="3.2766347" />
    <radialGradient
       inkscape:collect="always"
       xlink:href="#linearGradient951"
       id="radialGradient960"
       gradientUnits="userSpaceOnUse"
       gradientTransform="matrix(4.8703542,0.93259967,-0.15975375,0.83428908,-91.684233,-18.433273)"
       cx="20.8787"
       cy="8.6577806"
       fx="20.8787"
       fy="8.6577806"
       r="3.2766347" />
    <radialGradient
       inkscape:collect="always"
       xlink:href="#linearGradient1003"
       id="radialGradient1005"
       cx="21.305382"
       cy="8.1843681"
       fx="21.305382"
       fy="8.1843681"
       r="1.6101599"
       gradientUnits="userSpaceOnUse"
       gradientTransform="matrix(1.1489019,0,0,1.1489019,-16.255812,-1.0811826)" />
    <radialGradient
       inkscape:collect="always"
       xlink:href="#linearGradient1125"
       id="radialGradient1127"
       cx="8.2219782"
       cy="8.3218546"
       fx="8.2219782"
       fy="8.3218546"
       r="1.8499157"
       gradientUnits="userSpaceOnUse"
       gradientTransform="matrix(0.83260912,0,0,0.83260912,1.4975192,1.6660043)" />
  </defs>
  <sodipodi:namedview
     id="base"
     pagecolor="#ffffff"
     bordercolor="#666666"
     borderopacity="1.0"
     inkscape:pageopacity="0.0"
     inkscape:pageshadow="2"
     inkscape:zoom="11.2"
     inkscape:cx="62.447258"
     inkscape:cy="27.58199"
     inkscape:document-units="mm"
     inkscape:current-layer="layer1"
     inkscape:document-rotation="0"
     showgrid="false"
     units="px"
     inkscape:window-width="1920"
     inkscape:window-height="1028"
     inkscape:window-x="0"
     inkscape:window-y="24"
     inkscape:window-maximized="1" />
  <metadata
     id="metadata948">
    <rdf:RDF>
      <cc:Work
         rdf:about="">
        <dc:format>image/svg+xml</dc:format>
        <dc:type
           rdf:resource="http://purl.org/dc/dcmitype/StillImage" />
        <dc:title />
      </cc:Work>
    </rdf:RDF>
  </metadata>
  <g
     inkscape:label="Capa 1"
     inkscape:groupmode="layer"
     id="layer1">
    <path
       id="path880"
       style="opacity:0.274313;fill:url(#radialGradient888);fill-opacity:1;stroke-width:11.3386;stroke-linecap:square;stroke-linejoin:round"
       d="M 32.451172,-0.09765625 C 14.673003,-0.09684124 0.26145516,14.315581 0.26171875,32.09375 0.26253385,49.871156 14.673766,64.282388 32.451172,64.283203 50.229341,64.283466 64.641763,49.871919 64.642578,32.09375 64.642842,14.314818 50.230104,-0.0979197 32.451172,-0.09765625 Z"
       transform="scale(0.26458333)"
       sodipodi:nodetypes="ccccc" />
    <g
       id="g959"
       style="opacity:0.491637"
       transform="translate(21.691469,1.1210794)">
      <path
         id="path944"
         style="opacity:1;fill:#183268;fill-opacity:0.0573203;stroke-width:0.0470344;stroke-linecap:round;stroke-linejoin:round"
         d="m -13.395906,-0.53349917 c -4.354784,-1.2391e-4 -7.885145,3.53000577 -7.885307,7.88478987 -1.24e-4,4.3549863 3.530321,7.8854303 7.885307,7.8853073 4.3549855,1.24e-4 7.8854302,-3.530321 7.8853063,-7.8853073 -1.614e-4,-4.3547841 -3.5305227,-7.88491394 -7.8853063,-7.88478987 z m 0.0062,1.1947591 c 0.0036,-9.9e-6 0.0072,-9.9e-6 0.01085,0 1.096967,-2.1162e-4 1.986368,0.88895767 1.986442,1.98592517 -0.457391,2.9238532 -3.907817,2.1371531 -3.972367,0 5.7e-5,-1.092542 0.882548,-1.97988185 1.975073,-1.98592517 z m -3.926893,7.07863757 c 0.0036,-9.8e-6 0.0072,-9.8e-6 0.01085,0 1.096766,7.38e-5 1.985852,0.8891595 1.985925,1.9859252 -7.3e-5,1.0967663 -0.889159,1.9858523 -1.985925,1.9859253 -1.096766,-7.3e-5 -1.985851,-0.889159 -1.985925,-1.9859253 5.7e-5,-1.0925421 0.882548,-1.9798819 1.975073,-1.9859252 z m 7.8222611,0 c 0.00362,-9.8e-6 0.00723,-9.8e-6 0.010853,0 1.0967657,7.38e-5 1.9858514,0.8891595 1.9859252,1.9859252 -7.38e-5,1.0967663 -0.8891595,1.9858523 -1.9859252,1.9859253 -1.0967651,-7.3e-5 -1.9858511,-0.889159 -1.9859251,-1.9859253 5.7e-5,-1.0925421 0.882548,-1.9798819 1.9750721,-1.9859252 z"
         sodipodi:nodetypes="cccccccccccccccccccccc" />
      <path
         id="path946"
         style="opacity:1;fill:#183268;fill-opacity:0.0573203;stroke-width:0.0470344;stroke-linecap:round;stroke-linejoin:round"
         d="m -13.298808,-0.39810823 c -4.354784,-1.2391e-4 -7.885145,3.53000573 -7.885307,7.88478983 -1.24e-4,4.3549864 3.530321,7.8854304 7.885307,7.8853074 4.3549857,1.24e-4 7.8854304,-3.530321 7.8853065,-7.8853074 -1.614e-4,-4.3547841 -3.5305227,-7.8849139 -7.8853065,-7.88478983 z m 0.0062,1.1947591 c 0.0036,-9.9e-6 0.0072,-9.9e-6 0.01085,0 1.096967,-2.1162e-4 1.986368,0.88895763 1.986442,1.98592513 -0.457391,2.9238532 -3.907817,2.1371531 -3.972367,0 5.7e-5,-1.092542 0.882548,-1.97988181 1.975073,-1.98592513 z m -3.926893,7.07863753 c 0.0036,-9.8e-6 0.0072,-9.8e-6 0.01085,0 1.096766,7.38e-5 1.985852,0.8891595 1.985925,1.9859252 -7.3e-5,1.0967664 -0.889159,1.9858524 -1.985925,1.9859254 -1.096766,-7.3e-5 -1.985851,-0.889159 -1.985925,-1.9859254 5.7e-5,-1.0925421 0.882548,-1.9798819 1.975073,-1.9859252 z m 7.8222613,0 c 0.00362,-9.8e-6 0.00723,-9.8e-6 0.010853,0 1.0967657,7.38e-5 1.9858514,0.8891595 1.9859252,1.9859252 -7.38e-5,1.0967664 -0.8891595,1.9858524 -1.9859252,1.9859254 -1.0967653,-7.3e-5 -1.9858513,-0.889159 -1.9859253,-1.9859254 5.7e-5,-1.0925421 0.882548,-1.9798819 1.9750723,-1.9859252 z"
         sodipodi:nodetypes="cccccccccccccccccccccc" />
      <path
         id="path948"
         style="opacity:1;fill:#183268;fill-opacity:0.0573203;stroke-width:0.0470344;stroke-linecap:round;stroke-linejoin:round"
         d="m -13.179382,-0.26017274 c -4.354784,-1.2391e-4 -7.885145,3.53000574 -7.885307,7.88478984 -1.24e-4,4.3549859 3.530321,7.8854299 7.885307,7.8853069 4.3549857,1.24e-4 7.8854304,-3.530321 7.8853065,-7.8853069 -1.614e-4,-4.3547841 -3.5305227,-7.88491391 -7.8853065,-7.88478984 z m 0.0062,1.1947591 c 0.0036,-9.9e-6 0.0072,-9.9e-6 0.01085,0 1.096967,-2.1162e-4 1.986368,0.88895764 1.986442,1.98592514 -0.457391,2.9238532 -3.907817,2.1371531 -3.972367,0 5.7e-5,-1.092542 0.882548,-1.97988182 1.975073,-1.98592514 z m -3.926893,7.07863754 c 0.0036,-9.8e-6 0.0072,-9.8e-6 0.01085,0 1.096766,7.38e-5 1.985852,0.8891595 1.985925,1.9859252 -7.3e-5,1.0967659 -0.889159,1.9858519 -1.985925,1.9859249 -1.096766,-7.3e-5 -1.985851,-0.889159 -1.985925,-1.9859249 5.7e-5,-1.0925421 0.882548,-1.9798819 1.975073,-1.9859252 z m 7.8222613,0 c 0.00362,-9.8e-6 0.00723,-9.8e-6 0.010853,0 1.0967657,7.38e-5 1.9858514,0.8891595 1.9859252,1.9859252 -7.38e-5,1.0967659 -0.8891595,1.9858519 -1.9859252,1.9859249 -1.0967653,-7.3e-5 -1.9858513,-0.889159 -1.9859253,-1.9859249 5.7e-5,-1.0925421 0.882548,-1.9798819 1.9750723,-1.9859252 z"
         sodipodi:nodetypes="cccccccccccccccccccccc" />
      <path
         id="path950"
         style="opacity:1;fill:#183268;fill-opacity:0.0573203;stroke-width:0.0470344;stroke-linecap:round;stroke-linejoin:round"
         d="m -13.093387,-0.10541145 c -4.354784,-1.2391e-4 -7.885145,3.53000575 -7.885307,7.88478985 -1.24e-4,4.3549856 3.530321,7.8854296 7.885307,7.8853066 4.354986,1.24e-4 7.8854307,-3.530321 7.8853068,-7.8853066 -1.614e-4,-4.3547841 -3.5305227,-7.88491392 -7.8853068,-7.88478985 z m 0.0062,1.19475915 c 0.0036,-9.9e-6 0.0072,-9.9e-6 0.01085,0 1.096967,-2.117e-4 1.986368,0.8889576 1.986442,1.9859251 -0.457391,2.9238532 -3.907817,2.1371531 -3.972367,0 5.7e-5,-1.092542 0.882548,-1.9798818 1.975073,-1.9859251 z m -3.926893,7.0786375 c 0.0036,-9.8e-6 0.0072,-9.8e-6 0.01085,0 1.096766,7.38e-5 1.985852,0.8891595 1.985925,1.9859248 -7.3e-5,1.096766 -0.889159,1.985852 -1.985925,1.985925 -1.096766,-7.3e-5 -1.985851,-0.889159 -1.985925,-1.985925 5.7e-5,-1.0925417 0.882548,-1.9798815 1.975073,-1.9859248 z m 7.8222616,0 c 0.00362,-9.8e-6 0.00723,-9.8e-6 0.010853,0 1.0967657,7.38e-5 1.9858514,0.8891595 1.9859252,1.9859248 -7.38e-5,1.096766 -0.8891595,1.985852 -1.9859252,1.985925 -1.0967656,-7.3e-5 -1.9858516,-0.889159 -1.9859256,-1.985925 5.7e-5,-1.0925417 0.882548,-1.9798815 1.9750726,-1.9859248 z"
         sodipodi:nodetypes="cccccccccccccccccccccc" />
      <path
         id="path952"
         style="opacity:1;fill:#183268;fill-opacity:0.0573203;stroke-width:0.0470344;stroke-linecap:round;stroke-linejoin:round"
         d="m -12.986118,0.01438582 c -4.354784,-1.2391e-4 -7.885145,3.53000578 -7.885307,7.88478988 -1.24e-4,4.3549853 3.530321,7.8854293 7.885307,7.8853063 4.3549861,1.24e-4 7.8854308,-3.530321 7.8853069,-7.8853063 -1.614e-4,-4.3547841 -3.5305227,-7.88491395 -7.8853069,-7.88478988 z"
         sodipodi:nodetypes="ccccc" />
    </g>
    <path
       id="path861"
       style="fill:url(#linearGradient889);fill-opacity:1;stroke-width:0.0470344;stroke-linecap:round;stroke-linejoin:round"
       d="M 8.2773008,0.3841735 C 3.9225167,0.38404957 0.39215563,3.9141793 0.3919942,8.2689634 0.39187026,12.623949 3.9223149,16.154394 8.2773008,16.15427 12.632287,16.154394 16.162732,12.62395 16.162608,8.2689634 16.162447,3.914179 12.632085,0.38404923 8.2773008,0.3841735 Z"
       sodipodi:nodetypes="ccccc" />
    <path
       id="path939"
       style="fill:#ddf2fe;fill-opacity:0.368149;stroke-width:0.0470344;stroke-linecap:round;stroke-linejoin:round"
       d="M 8.2773008,0.3841735 C 3.9225167,0.38404957 0.39215563,3.9141793 0.3919942,8.2689634 0.3918938,9.6906018 0.77614207,11.085823 1.504071,12.30696 0.86166304,11.141285 0.52477718,9.8319629 0.5248026,8.5009906 0.5249639,4.1462064 4.055325,0.61607662 8.4101092,0.61620067 11.187918,0.61605179 13.760886,2.0775412 15.183339,4.4635109 13.796526,1.9470174 11.150625,0.3841066 8.2773008,0.3841735 Z"
       sodipodi:nodetypes="ccccccc" />
    <path
       id="path899"
       style="color:#000000;font-style:normal;font-variant:normal;font-weight:normal;font-stretch:normal;font-size:medium;line-height:normal;font-family:sans-serif;font-variant-ligatures:normal;font-variant-position:normal;font-variant-caps:normal;font-variant-numeric:normal;font-variant-alternates:normal;font-variant-east-asian:normal;font-feature-settings:normal;font-variation-settings:normal;text-indent:0;text-align:start;text-decoration:none;text-decoration-line:none;text-decoration-style:solid;text-decoration-color:#000000;letter-spacing:normal;word-spacing:normal;text-transform:none;writing-mode:lr-tb;direction:ltr;text-orientation:mixed;dominant-baseline:auto;baseline-shift:baseline;text-anchor:start;white-space:normal;shape-padding:0;shape-margin:0;inline-size:0;clip-rule:nonzero;display:inline;overflow:visible;visibility:visible;isolation:auto;mix-blend-mode:normal;color-interpolation:sRGB;color-interpolation-filters:linearRGB;solid-color:#000000;solid-opacity:1;vector-effect:none;fill:#d66eea;fill-opacity:1;fill-rule:nonzero;stroke:none;stroke-width:2.48816;stroke-linecap:round;stroke-linejoin:round;stroke-miterlimit:4;stroke-dasharray:none;stroke-dashoffset:0;stroke-opacity:1;color-rendering:auto;image-rendering:auto;shape-rendering:auto;text-rendering:auto;enable-background:accumulate;stop-color:#000000"
       d="M 29.552734 43.515625 L 30.166016 53.443359 C 30.285298 55.169213 32.21468 55.169213 32.333984 53.443359 L 32.947266 43.525391 A 12.384131 12.384131 0 0 1 31.285156 43.638672 A 12.384131 12.384131 0 0 1 29.552734 43.515625 z "
       transform="scale(0.26458333)" />
    <path
       id="path908"
       style="color:#000000;font-style:normal;font-variant:normal;font-weight:normal;font-stretch:normal;font-size:medium;line-height:normal;font-family:sans-serif;font-variant-ligatures:normal;font-variant-position:normal;font-variant-caps:normal;font-variant-numeric:normal;font-variant-alternates:normal;font-variant-east-asian:normal;font-feature-settings:normal;font-variation-settings:normal;text-indent:0;text-align:start;text-decoration:none;text-decoration-line:none;text-decoration-style:solid;text-decoration-color:#000000;letter-spacing:normal;word-spacing:normal;text-transform:none;writing-mode:lr-tb;direction:ltr;text-orientation:mixed;dominant-baseline:auto;baseline-shift:baseline;text-anchor:start;white-space:normal;shape-padding:0;shape-margin:0;inline-size:0;clip-rule:nonzero;display:inline;overflow:visible;visibility:visible;isolation:auto;mix-blend-mode:normal;color-interpolation:sRGB;color-interpolation-filters:linearRGB;solid-color:#000000;solid-opacity:1;vector-effect:none;fill:#14b9f4;fill-opacity:1;fill-rule:nonzero;stroke:none;stroke-width:2.48816;stroke-linecap:round;stroke-linejoin:round;stroke-miterlimit:4;stroke-dasharray:none;stroke-dashoffset:0;stroke-opacity:1;color-rendering:auto;image-rendering:auto;shape-rendering:auto;text-rendering:auto;enable-background:accumulate;stop-color:#000000"
       inkscape:transform-center-x="-3.6116259"
       inkscape:transform-center-y="0.45369968"
       d="M 43.666016 31.455078 A 12.384131 12.384131 0 0 1 43.056641 35.097656 L 58.552734 37.378906 C 60.302735 37.628434 60.686389 35.68344 58.972656 35.25 L 43.666016 31.455078 z "
       transform="scale(0.26458333)" />
    <g
       id="g993">
      <path
         id="circle916"
         style="fill:url(#radialGradient937);fill-opacity:1;stroke:none;stroke-width:3.77953;stroke-linecap:round;stroke-linejoin:round;stroke-miterlimit:4;stroke-dasharray:none;stroke-dashoffset:0;stroke-opacity:1"
         d="M 43.664062 31.509766 L 18.904297 31.53125 A 12.384131 12.384131 0 0 0 31.285156 43.638672 A 12.384131 12.384131 0 0 0 43.664062 31.509766 z "
         transform="scale(0.26458333)" />
      <path
         id="circle945"
         style="fill:url(#radialGradient960);fill-opacity:1;stroke:none;stroke-width:1;stroke-linecap:round;stroke-linejoin:round;stroke-miterlimit:4;stroke-dasharray:none;stroke-dashoffset:0;stroke-opacity:1"
         d="M 9.7363565,5.3355917 6.9938883,11.284066 A 3.2766346,3.2766346 0 0 0 8.2775308,11.546065 3.2766346,3.2766346 0 0 0 11.553817,8.2692625 3.2766346,3.2766346 0 0 0 9.7363565,5.3355917 Z" />
    </g>
    <circle
       style="fill:#ffffff;fill-opacity:0.494273;stroke:none;stroke-width:1;stroke-linecap:round;stroke-linejoin:round;stroke-miterlimit:4;stroke-dasharray:none;stroke-dashoffset:0;stroke-opacity:1"
       id="path914"
       cx="8.2772999"
       cy="8.2692213"
       r="3.2766347" />
    <rect
       style="fill:#14b9f4;fill-opacity:0;stroke:none;stroke-width:1;stroke-linecap:round;stroke-linejoin:round;stroke-miterlimit:4;stroke-dasharray:none;stroke-dashoffset:0;stroke-opacity:1"
       id="rect980"
       width="16.162594"
       height="5.0194068"
       x="0.75188744"
       y="3.3130858" />
    <circle
       style="opacity:0.176715;fill:url(#radialGradient1127);fill-opacity:1;stroke:none;stroke-width:0.956584;stroke-linecap:round;stroke-linejoin:round;stroke-miterlimit:4;stroke-dasharray:none;stroke-dashoffset:0;stroke-opacity:1"
       id="circle1119"
       cx="8.343214"
       cy="8.5948572"
       r="1.5402567" />
    <circle
       style="fill:url(#radialGradient1005);fill-opacity:1;stroke:none;stroke-width:1.1489;stroke-linecap:round;stroke-linejoin:round;stroke-miterlimit:4;stroke-dasharray:none;stroke-dashoffset:0;stroke-opacity:1"
       id="path995"
       cx="8.2219782"
       cy="8.3218546"
       r="1.8499157" />
    <path
       id="circle1191"
       style="fill:#0b23bd;fill-opacity:0.04174179;stroke:none;stroke-width:4.11224;stroke-linecap:round;stroke-linejoin:round;stroke-miterlimit:4;stroke-dasharray:none;stroke-dashoffset:0;stroke-opacity:1"
       d="M 31.917969 18.835938 A 13.462758 13.485931 0 0 0 31.142578 18.871094 A 12.384131 12.384131 0 0 1 31.285156 18.869141 A 12.384131 12.384131 0 0 1 43.667969 31.253906 A 12.384131 12.384131 0 0 1 31.285156 43.638672 A 12.384131 12.384131 0 0 1 18.900391 31.253906 A 12.384131 12.384131 0 0 1 19.3125 28.089844 A 13.462758 13.485931 0 0 0 18.630859 32.322266 A 13.462758 13.485931 0 0 0 32.09375 45.806641 A 13.462758 13.485931 0 0 0 45.556641 32.322266 A 13.462758 13.485931 0 0 0 32.09375 18.835938 A 13.462758 13.485931 0 0 0 31.917969 18.835938 z "
       transform="scale(0.26458333)" />
    <circle
       style="fill:#9d63f9;fill-opacity:0.32069749;stroke:none;stroke-width:1;stroke-linecap:round;stroke-linejoin:round;stroke-miterlimit:4;stroke-dasharray:none;stroke-dashoffset:0;stroke-opacity:1"
       id="circle1193"
       cx="8.2772999"
       cy="8.2692213"
       r="3.2766347" />
    <circle
       style="opacity:0.757407;fill:#ffffff;fill-opacity:0.995614;stroke:none;stroke-width:0.3;stroke-linecap:round;stroke-linejoin:round"
       id="path915"
       cx="8.2773008"
       cy="8.2692213"
       r="1.4331566" />
  </g>
</svg>
