<?xml version="1.0" encoding="UTF-8" standalone="no"?>
<svg
   xmlns:dc="http://purl.org/dc/elements/1.1/"
   xmlns:cc="http://creativecommons.org/ns#"
   xmlns:rdf="http://www.w3.org/1999/02/22-rdf-syntax-ns#"
   xmlns:svg="http://www.w3.org/2000/svg"
   xmlns="http://www.w3.org/2000/svg"
   xmlns:xlink="http://www.w3.org/1999/xlink"
   xmlns:sodipodi="http://sodipodi.sourceforge.net/DTD/sodipodi-0.dtd"
   xmlns:inkscape="http://www.inkscape.org/namespaces/inkscape"
   height="48"
   width="48"
   version="1.1"
   id="svg8"
   sodipodi:docname="qtransmission.svg"
   inkscape:version="1.0.2 (e86c870879, 2021-01-15)">
  <metadata
     id="metadata14">
    <rdf:RDF>
      <cc:Work
         rdf:about="">
        <dc:format>image/svg+xml</dc:format>
        <dc:type
           rdf:resource="http://purl.org/dc/dcmitype/StillImage" />
        <dc:title />
      </cc:Work>
    </rdf:RDF>
  </metadata>
  <defs
     id="defs12">
    <linearGradient
       inkscape:collect="always"
       xlink:href="#linearGradient2530"
       id="linearGradient2532"
       x1="1527.5508"
       y1="628.56232"
       x2="1527.5508"
       y2="561.07379"
       gradientUnits="userSpaceOnUse"
       gradientTransform="matrix(0.7397987,0,0,0.7397987,-1027.6751,-412.15871)" />
    <linearGradient
       inkscape:collect="always"
       id="linearGradient2530">
      <stop
         style="stop-color:#4051fe;stop-opacity:1"
         offset="0"
         id="stop2526" />
      <stop
         style="stop-color:#1e98ff;stop-opacity:1"
         offset="1"
         id="stop2528" />
    </linearGradient>
    <linearGradient
       inkscape:collect="always"
       xlink:href="#linearGradient986"
       id="linearGradient988"
       x1="826.09894"
       y1="367.60583"
       x2="826.09894"
       y2="396.44464"
       gradientUnits="userSpaceOnUse"
       gradientTransform="translate(-719.30604,-353.12962)" />
    <linearGradient
       inkscape:collect="always"
       id="linearGradient986">
      <stop
         style="stop-color:#62b7f6;stop-opacity:1"
         offset="0"
         id="stop982" />
      <stop
         style="stop-color:#cea9ff;stop-opacity:1"
         offset="1"
         id="stop984" />
    </linearGradient>
    <linearGradient
       inkscape:collect="always"
       xlink:href="#linearGradient978"
       id="linearGradient980"
       x1="795.09192"
       y1="358.68527"
       x2="826.76093"
       y2="389.29477"
       gradientUnits="userSpaceOnUse"
       gradientTransform="translate(-719.30604,-353.12962)" />
    <linearGradient
       inkscape:collect="always"
       id="linearGradient978">
      <stop
         style="stop-color:#ffffff;stop-opacity:1;"
         offset="0"
         id="stop974" />
      <stop
         style="stop-color:#ffffff;stop-opacity:0;"
         offset="1"
         id="stop976" />
    </linearGradient>
    <linearGradient
       inkscape:collect="always"
       xlink:href="#linearGradient2607"
       id="linearGradient2609"
       x1="1616.2861"
       y1="527.5495"
       x2="1590.246"
       y2="572.6524"
       gradientUnits="userSpaceOnUse"
       gradientTransform="matrix(0.7397987,0,0,0.7397987,-1075.8,-373.71319)" />
    <linearGradient
       inkscape:collect="always"
       id="linearGradient2607">
      <stop
         style="stop-color:#d5f4ff;stop-opacity:1"
         offset="0"
         id="stop2603" />
      <stop
         style="stop-color:#a9e2ff;stop-opacity:1"
         offset="1"
         id="stop2605" />
    </linearGradient>
    <linearGradient
       inkscape:collect="always"
       xlink:href="#linearGradient1007"
       id="linearGradient1009"
       x1="821.96301"
       y1="374.89093"
       x2="821.96301"
       y2="390.14087"
       gradientUnits="userSpaceOnUse"
       gradientTransform="translate(-719.30604,-353.12962)" />
    <linearGradient
       inkscape:collect="always"
       id="linearGradient1007">
      <stop
         style="stop-color:#d2f3ff;stop-opacity:1"
         offset="0"
         id="stop1003" />
      <stop
         style="stop-color:#ddf9f8;stop-opacity:1"
         offset="1"
         id="stop1005" />
    </linearGradient>
  </defs>
  <sodipodi:namedview
     pagecolor="#ffffff"
     bordercolor="#666666"
     borderopacity="1"
     objecttolerance="10"
     gridtolerance="10"
     guidetolerance="10"
     inkscape:pageopacity="0"
     inkscape:pageshadow="2"
     inkscape:window-width="1920"
     inkscape:window-height="1028"
     id="namedview10"
     showgrid="false"
     inkscape:zoom="4.9166667"
     inkscape:cx="24"
     inkscape:cy="24"
     inkscape:window-x="0"
     inkscape:window-y="24"
     inkscape:window-maximized="1"
     inkscape:current-layer="svg8"
     inkscape:document-rotation="0" />
  <g
     id="g902"
     transform="matrix(0.72919626,0,0,0.72919626,-50.714657,2.4194898)">
    <circle
       style="fill:url(#linearGradient2532);fill-opacity:1;stroke:none;stroke-width:4.41823;stroke-linecap:round;stroke-linejoin:round;stroke-miterlimit:4;stroke-dasharray:none;stroke-opacity:1"
       id="path2524"
       cx="102.50848"
       cy="29.288136"
       r="30.320238" />
    <circle
       style="fill:url(#linearGradient988);fill-opacity:1;stroke:none;stroke-width:0.249094;stroke-linecap:round;stroke-linejoin:round"
       id="path959"
       cx="102.51446"
       cy="29.292133"
       r="19.480768" />
    <path
       id="circle961"
       style="fill:url(#linearGradient980);fill-opacity:1;stroke:none;stroke-width:0.249094;stroke-linecap:round;stroke-linejoin:round"
       d="m 102.34826,9.81179 a 19.480768,19.480768 0 0 0 -19.31446,19.48047 19.480768,19.480768 0 0 0 19.48047,19.48046 19.480768,19.480768 0 0 0 1.42383,-0.0527 19.030605,19.030605 0 0 1 -0.69726,0.0137 19.030605,19.030605 0 0 1 -19.03126,-19.03125 19.030605,19.030605 0 0 1 19.03126,-19.03125 19.030605,19.030605 0 0 1 16.66992,9.85352 19.480768,19.480768 0 0 0 -17.39649,-10.71289 19.480768,19.480768 0 0 0 -0.16601,0 z" />
    <path
       id="path2534-5"
       style="fill:none;fill-opacity:1;stroke:url(#linearGradient2609);stroke-width:5.17859;stroke-linecap:round;stroke-linejoin:round;stroke-miterlimit:4;stroke-dasharray:none;stroke-opacity:1"
       d="m 93.99875,9.13387 c 2.61739,-1.10706 5.49506,-1.71924 8.51571,-1.71924 12.08261,0 21.8775,9.79489 21.8775,21.8775 0,12.08261 -9.79489,21.8775 -21.8775,21.8775 -12.08261,0 -21.8775,-9.79489 -21.8775,-21.8775 0,-3.02065 0.61218,-5.89832 1.71924,-8.51571"
       sodipodi:nodetypes="cssssc" />
    <path
       id="path1011"
       style="color:#000000;font-style:normal;font-variant:normal;font-weight:normal;font-stretch:normal;font-size:medium;line-height:normal;font-family:sans-serif;font-variant-ligatures:normal;font-variant-position:normal;font-variant-caps:normal;font-variant-numeric:normal;font-variant-alternates:normal;font-variant-east-asian:normal;font-feature-settings:normal;font-variation-settings:normal;text-indent:0;text-align:start;text-decoration:none;text-decoration-line:none;text-decoration-style:solid;text-decoration-color:#000000;letter-spacing:normal;word-spacing:normal;text-transform:none;writing-mode:lr-tb;direction:ltr;text-orientation:mixed;dominant-baseline:auto;baseline-shift:baseline;text-anchor:start;white-space:normal;shape-padding:0;shape-margin:0;inline-size:0;clip-rule:nonzero;display:inline;overflow:visible;visibility:visible;isolation:auto;mix-blend-mode:normal;color-interpolation:sRGB;color-interpolation-filters:linearRGB;solid-color:#000000;solid-opacity:1;vector-effect:none;fill:#00364a;fill-opacity:0.191907;fill-rule:nonzero;stroke:none;stroke-linecap:round;stroke-linejoin:round;stroke-miterlimit:4;stroke-dasharray:none;stroke-dashoffset:0;stroke-opacity:1;color-rendering:auto;image-rendering:auto;shape-rendering:auto;text-rendering:auto;enable-background:accumulate;stop-color:#000000"
       d="m 103.824,17.45535 a 3.5,3.5 0 0 0 -3.5,3.5 v 9.94141 L 95.94705,26.5198 a 3.5,3.5 0 0 0 -2.40039,-1.02539 3.5,3.5 0 0 0 -2.54883,1.02539 3.5,3.5 0 0 0 0,4.94922 l 10.35156,10.35352 a 3.50035,3.50035 0 0 0 4.95117,0 l 10.35157,-10.35352 a 3.5,3.5 0 0 0 0,-4.94922 3.5,3.5 0 0 0 -4.94922,0 l -4.37891,4.37696 v -9.94141 a 3.5,3.5 0 0 0 -3.5,-3.5 z" />
    <path
       id="path990"
       style="color:#000000;font-style:normal;font-variant:normal;font-weight:normal;font-stretch:normal;font-size:medium;line-height:normal;font-family:sans-serif;font-variant-ligatures:normal;font-variant-position:normal;font-variant-caps:normal;font-variant-numeric:normal;font-variant-alternates:normal;font-variant-east-asian:normal;font-feature-settings:normal;font-variation-settings:normal;text-indent:0;text-align:start;text-decoration:none;text-decoration-line:none;text-decoration-style:solid;text-decoration-color:#000000;letter-spacing:normal;word-spacing:normal;text-transform:none;writing-mode:lr-tb;direction:ltr;text-orientation:mixed;dominant-baseline:auto;baseline-shift:baseline;text-anchor:start;white-space:normal;shape-padding:0;shape-margin:0;inline-size:0;clip-rule:nonzero;display:inline;overflow:visible;visibility:visible;isolation:auto;mix-blend-mode:normal;color-interpolation:sRGB;color-interpolation-filters:linearRGB;solid-color:#000000;solid-opacity:1;vector-effect:none;fill:url(#linearGradient1009);fill-opacity:1;fill-rule:nonzero;stroke:none;stroke-linecap:round;stroke-linejoin:round;stroke-miterlimit:4;stroke-dasharray:none;stroke-dashoffset:0;stroke-opacity:1;color-rendering:auto;image-rendering:auto;shape-rendering:auto;text-rendering:auto;enable-background:accumulate;stop-color:#000000"
       d="m 103.01849,16.52663 a 3.5,3.5 0 0 0 -3.5,3.5 v 9.94141 l -4.37695,-4.37696 a 3.5,3.5 0 0 0 -2.40039,-1.02539 3.5,3.5 0 0 0 -2.54883,1.02539 3.5,3.5 0 0 0 0,4.94922 l 10.35156,10.35352 a 3.50035,3.50035 0 0 0 4.95117,0 L 115.84662,30.5403 a 3.5,3.5 0 0 0 0,-4.94922 3.5,3.5 0 0 0 -4.94922,0 l -4.37891,4.37696 v -9.94141 a 3.5,3.5 0 0 0 -3.5,-3.5 z" />
  </g>
</svg>
