/* XPM */
static char * desktop_xpm[] = {
"22 22 324 2",
"  	c None",
". 	c #DDDDDD",
"+ 	c #ECECEC",
"@ 	c #EBEBEB",
"# 	c #EDEDED",
"$ 	c #EEEEEE",
"% 	c #EFEFEF",
"& 	c #DEDEDE",
"* 	c #C4C4C4",
"= 	c #E2E2E2",
"- 	c #DADADA",
"; 	c #E1E2E1",
"> 	c #E2E3E2",
", 	c #E3E4E2",
"' 	c #E3E3E2",
") 	c #E3E3E3",
"! 	c #E8E8E8",
"~ 	c #C6C6C6",
"{ 	c #C7C7C7",
"] 	c #DFDFDE",
"^ 	c #9FA49E",
"/ 	c #839082",
"( 	c #899488",
"_ 	c #828F81",
": 	c #849184",
"< 	c #849083",
"[ 	c #839083",
"} 	c #7D8B7B",
"| 	c #949790",
"1 	c #8B9287",
"2 	c #8C9288",
"3 	c #8D9288",
"4 	c #878D83",
"5 	c #A7AAA5",
"6 	c #EAEBEA",
"7 	c #C8C8C8",
"8 	c #C2C1C2",
"9 	c #D7D9D7",
"0 	c #738772",
"a 	c #689167",
"b 	c #749A73",
"c 	c #699168",
"d 	c #6E946D",
"e 	c #6C936B",
"f 	c #5E895D",
"g 	c #9BAB92",
"h 	c #99A58E",
"i 	c #97A58E",
"j 	c #99A68F",
"k 	c #8F9F84",
"l 	c #808B7C",
"m 	c #D4D5D4",
"n 	c #BFBFBF",
"o 	c #D5D7D5",
"p 	c #618161",
"q 	c #256C26",
"r 	c #307433",
"s 	c #327634",
"t 	c #347635",
"u 	c #337635",
"v 	c #317532",
"w 	c #4F864D",
"x 	c #7E9B76",
"y 	c #75966E",
"z 	c #76966F",
"A 	c #74966D",
"B 	c #709169",
"C 	c #8B9A89",
"D 	c #CCCDCC",
"E 	c #575757",
"F 	c #BCBCBC",
"G 	c #D3D4D3",
"H 	c #5D805F",
"I 	c #3E722B",
"J 	c #859254",
"K 	c #477A38",
"L 	c #27712A",
"M 	c #2A732C",
"N 	c #2A762D",
"O 	c #357C38",
"P 	c #70996D",
"Q 	c #699263",
"R 	c #679161",
"S 	c #658E5F",
"T 	c #7C9878",
"U 	c #A2AFA0",
"V 	c #B1B3B1",
"W 	c #9C9B9C",
"X 	c #7D7D7D",
"Y 	c #B8B8B8",
"Z 	c #D0D1D0",
"` 	c #5E8161",
" .	c #5D742E",
"..	c #DCA15D",
"+.	c #6B823E",
"@.	c #2B7A32",
"#.	c #308137",
"$.	c #318338",
"%.	c #328539",
"&.	c #33853A",
"*.	c #619B63",
"=.	c #6A9D69",
"-.	c #6D9B6C",
";.	c #9CAC9A",
">.	c #BEC2BD",
",.	c #9E9A9E",
"'.	c #7A797A",
").	c #A7A7A7",
"!.	c #989898",
"~.	c #B6B6B6",
"{.	c #CED0CE",
"].	c #668966",
"^.	c #1F661E",
"/.	c #356F2F",
"(.	c #337D36",
"_.	c #348B3C",
":.	c #358F40",
"<.	c #369242",
"[.	c #369343",
"}.	c #379443",
"|.	c #4CA056",
"1.	c #68A06C",
"2.	c #95A494",
"3.	c #BDB8BC",
"4.	c #848384",
"5.	c #445A44",
"6.	c #697E69",
"7.	c #D2D3D2",
"8.	c #B9B8B9",
"9.	c #B3B2B3",
"0.	c #CCCECC",
"a.	c #688E6B",
"b.	c #4B8350",
"c.	c #9DA79F",
"d.	c #5A9362",
"e.	c #379644",
"f.	c #3A9D4A",
"g.	c #3B9E4B",
"h.	c #3EA54E",
"i.	c #3CA64C",
"j.	c #34723D",
"k.	c #202521",
"l.	c #504A4F",
"m.	c #627264",
"n.	c #4E7D52",
"o.	c #48884C",
"p.	c #749376",
"q.	c #D0D2D1",
"r.	c #AFAFAF",
"s.	c #CACDCB",
"t.	c #6C9570",
"u.	c #578A5C",
"v.	c #BAADB8",
"w.	c #63986C",
"x.	c #3AA04A",
"y.	c #42A750",
"z.	c #46B255",
"A.	c #3F974B",
"B.	c #3F5141",
"C.	c #221D21",
"D.	c #263929",
"E.	c #4B8A54",
"F.	c #579E60",
"G.	c #529459",
"H.	c #428447",
"I.	c #709173",
"J.	c #C8CAC9",
"K.	c #AEAEAE",
"L.	c #ACABAC",
"M.	c #C7C9C8",
"N.	c #749F79",
"O.	c #21852E",
"P.	c #268D36",
"Q.	c #399F48",
"R.	c #48AD53",
"S.	c #49A953",
"T.	c #427D47",
"U.	c #353234",
"V.	c #313F33",
"W.	c #336A38",
"X.	c #4BA854",
"Y.	c #63AA6A",
"Z.	c #4A9053",
"`.	c #498E53",
" +	c #3C8745",
".+	c #739576",
"++	c #C8C9C7",
"@+	c #ACACAC",
"#+	c #A9A9A9",
"$+	c #C6C8C7",
"%+	c #79A67F",
"&+	c #2D973E",
"*+	c #44AB54",
"=+	c #4BB055",
"-+	c #4B9552",
";+	c #3C4F3D",
">+	c #282A27",
",+	c #2A502B",
"'+	c #3F8641",
")+	c #418C44",
"!+	c #3D8442",
"~+	c #4A8F4F",
"{+	c #509857",
"]+	c #4F9E5A",
"^+	c #3F984C",
"/+	c #7DA683",
"(+	c #CBCDCC",
"_+	c #AAAAAA",
":+	c #A5A5A5",
"<+	c #C4C6C4",
"[+	c #7DAC84",
"}+	c #309C40",
"|+	c #48AA54",
"1+	c #4E7F52",
"2+	c #343935",
"3+	c #243D24",
"4+	c #346A35",
"5+	c #407D3F",
"6+	c #488C47",
"7+	c #55A855",
"8+	c #59B65B",
"9+	c #5CB961",
"0+	c #5FB866",
"a+	c #57B261",
"b+	c #41A24E",
"c+	c #81AD87",
"d+	c #A7A6A6",
"e+	c #A3A2A3",
"f+	c #C2C4C2",
"g+	c #7FB086",
"h+	c #30A240",
"i+	c #47924E",
"j+	c #385C39",
"k+	c #387739",
"l+	c #4C9A4C",
"m+	c #5DAF5C",
"n+	c #70CA70",
"o+	c #77D577",
"p+	c #6CCB6A",
"q+	c #61C360",
"r+	c #5CBD5E",
"s+	c #5AB85F",
"t+	c #52B25B",
"u+	c #39A148",
"v+	c #80B088",
"w+	c #C4C7C5",
"x+	c #A3A3A3",
"y+	c #A0A0A0",
"z+	c #C0C2C0",
"A+	c #8BB691",
"B+	c #44A450",
"C+	c #59B05F",
"D+	c #62BB65",
"E+	c #6EC76C",
"F+	c #77CD75",
"G+	c #82D183",
"H+	c #89D18C",
"I+	c #87CE8B",
"J+	c #80CB80",
"K+	c #75C773",
"L+	c #6CC16B",
"M+	c #66BC69",
"N+	c #60B667",
"O+	c #47A553",
"P+	c #8BB692",
"Q+	c #9C9C9C",
"R+	c #BFC0C0",
"S+	c #A4BFA8",
"T+	c #76AF7C",
"U+	c #91C393",
"V+	c #92C492",
"W+	c #98C894",
"X+	c #A1CE9E",
"Y+	c #A5CEA3",
"Z+	c #AFD4B0",
"`+	c #B0D5B1",
" @	c #A3CEA2",
".@	c #97C994",
"+@	c #90C58D",
"@@	c #8BBF8A",
"#@	c #85BB88",
"$@	c #71AC78",
"%@	c #C0C1C0",
"&@	c #B7C5BA",
"*@	c #95B298",
"=@	c #A3BCA4",
"-@	c #A2BCA2",
";@	c #A6BFA4",
">@	c #ACC3AA",
",@	c #ABC2A9",
"'@	c #B1C5B0",
")@	c #B2C6B1",
"!@	c #AAC1A8",
"~@	c #A3BEA1",
"{@	c #A0BC9D",
"]@	c #9CB99C",
"^@	c #99B69B",
"/@	c #91B195",
"(@	c #B8C5BA",
"_@	c #878787",
":@	c #C1C1C1",
"<@	c #BCBDBC",
"[@	c #B8BBB8",
"}@	c #B7BBB6",
"|@	c #B7BBB7",
"1@	c #B8BBB7",
"2@	c #B8BCB8",
"3@	c #464646",
"4@	c #979797",
"5@	c #B3B3B3",
"6@	c #B2B1B2",
"7@	c #B4B3B4",
"8@	c #B4B4B4",
"9@	c #B5B5B5",
"0@	c #B7B6B7",
"a@	c #B8B7B8",
"b@	c #373737",
"c@	c #414141",
"d@	c #434343",
"e@	c #444444",
"f@	c #474747",
"g@	c #484848",
"h@	c #494949",
"i@	c #4A4A4A",
"                                            ",
"    . + @ @ @ @ @ @ # $ $ $ $ $ $ $ % &     ",
"  * = & - - - - - - ; > , , , , ' ) ! @ ~   ",
"  { ] ^ / ( _ : < [ } | 1 2 2 2 3 4 5 6 7   ",
"  8 9 0 a b c d e e f g h i i i j k l m ~   ",
"  n o p q r s t u t v w x y z y A B C D n E ",
"  F G H I J K L M N N O P Q R S T U V W X   ",
"  Y Z `  ...+.@.#.$.%.&.*.=.-.;.>.,.'.).!.  ",
"  ~.{.].^./.(._.:.<.[.}.|.1.2.3.4.5.6.7.8.  ",
"  9.0.a.b.c.d.e.f.g.h.i.j.k.l.m.n.o.p.q.9.  ",
"  r.s.t.u.v.w.x.y.z.A.B.C.D.E.F.G.H.I.J.K.  ",
"  L.M.N.O.P.Q.R.S.T.U.V.W.X.Y.Z.`. +.+++@+  ",
"  #+$+%+&+*+=+-+;+>+,+'+)+!+~+{+]+^+/+(+_+  ",
"  :+<+[+}+|+1+2+3+4+5+6+7+8+9+0+a+b+c+J.d+  ",
"  e+f+g+h+i+j+k+l+m+n+o+p+q+r+s+t+u+v+w+x+  ",
"  y+z+A+B+C+D+E+F+G+H+I+J+K+L+M+N+O+P+f+y+  ",
"  Q+R+S+T+U+V+W+X+Y+Z+`+ @.@+@@@#@$@S+%@Q+  ",
"  Q+n &@*@=@-@;@>@,@'@)@!@~@{@]@^@/@(@n Q+  ",
"  _@:@<@[@}@|@|@|@[@[@[@[@[@1@|@1@2@<@:@_@  ",
"  3@4@5@6@9.7@8@9@0@a@a@0@9@8@7@9.6@5@4@3@  ",
"    b@c@d@e@3@f@g@h@i@i@h@g@f@3@e@d@c@b@    ",
"                                            "};
