<?xml version="1.0" encoding="UTF-8" standalone="no"?>
<svg
   xmlns:dc="http://purl.org/dc/elements/1.1/"
   xmlns:cc="http://creativecommons.org/ns#"
   xmlns:rdf="http://www.w3.org/1999/02/22-rdf-syntax-ns#"
   xmlns:svg="http://www.w3.org/2000/svg"
   xmlns="http://www.w3.org/2000/svg"
   xmlns:sodipodi="http://sodipodi.sourceforge.net/DTD/sodipodi-0.dtd"
   xmlns:inkscape="http://www.inkscape.org/namespaces/inkscape"
   width="16"
   height="16"
   viewBox="0 0 16 16"
   version="1.1"
   id="svg8"
   sodipodi:docname="application-x-hwp-symbolic.svg"
   inkscape:version="0.92.5 (2060ec1f9f, 2020-04-08)">
  <metadata
     id="metadata14">
    <rdf:RDF>
      <cc:Work
         rdf:about="">
        <dc:format>image/svg+xml</dc:format>
        <dc:type
           rdf:resource="http://purl.org/dc/dcmitype/StillImage" />
        <dc:title>한셀</dc:title>
      </cc:Work>
    </rdf:RDF>
  </metadata>
  <defs
     id="defs12">
    <linearGradient
       id="a"
       x1="49.570999"
       x2="51.714001"
       y1="52.714001"
       y2="54.856998"
       gradientTransform="matrix(2.3333,0,0,2.3333,-68.667,-72.001)"
       gradientUnits="userSpaceOnUse">
      <stop
         offset="0"
         id="stop815" />
      <stop
         stop-opacity="0"
         offset="1"
         id="stop817" />
    </linearGradient>
    <linearGradient
       gradientUnits="userSpaceOnUse"
       gradientTransform="matrix(0,-0.11988932,0.11988589,0,0.36278001,292.54831)"
       y2="119.093"
       y1="401.58401"
       x2="-35.310001"
       x1="529.65503"
       id="linearGradient4226">
      <stop
         id="stop825"
         offset="0"
         style="stop-color:#f2f2f2" />
      <stop
         id="stop827"
         offset="1"
         style="stop-color:#f9f9f9" />
    </linearGradient>
    <linearGradient
       gradientUnits="userSpaceOnUse"
       y2="488"
       y1="88"
       x2="488"
       x1="88"
       id="linearGradient4358">
      <stop
         id="stop830"
         offset="0"
         style="stop-color:#000000;stop-opacity:.58823532" />
      <stop
         id="stop832"
         offset=".88"
         style="stop-color:#000000;stop-opacity:0" />
      <stop
         id="stop834"
         offset="1"
         style="stop-color:#000000" />
    </linearGradient>
    <filter
       style="color-interpolation-filters:sRGB"
       height="1.022"
       width="1.026"
       y="-0.0099999998"
       x="-0.0099999998"
       id="filter4346">
      <feGaussianBlur
         id="feGaussianBlur837"
         stdDeviation="2.12" />
    </filter>
    <linearGradient
       gradientUnits="userSpaceOnUse"
       gradientTransform="matrix(0,-0.10406712,0.10126686,0,5.8287035,288.81876)"
       y2="119.093"
       y1="401.58401"
       x2="-35.310001"
       x1="529.65503"
       id="linearGradient4226-3">
      <stop
         id="stop825-6"
         offset="0"
         style="stop-color:#f2f2f2" />
      <stop
         id="stop827-7"
         offset="1"
         style="stop-color:#f9f9f9" />
    </linearGradient>
    <linearGradient
       id="a-9"
       x1="49.570999"
       x2="51.714001"
       y1="52.714001"
       y2="54.856998"
       gradientTransform="matrix(2.3333,0,0,2.3333,-68.667,-72.001)"
       gradientUnits="userSpaceOnUse">
      <stop
         offset="0"
         id="stop815-1" />
      <stop
         stop-opacity="0"
         offset="1"
         id="stop817-2" />
    </linearGradient>
    <linearGradient
       id="linearGradient4358-1"
       x1="88"
       x2="488"
       y1="88"
       y2="488"
       gradientUnits="userSpaceOnUse">
      <stop
         style="stop-color:#000000;stop-opacity:.58823532"
         offset="0"
         id="stop830-2" />
      <stop
         style="stop-color:#000000;stop-opacity:0"
         offset=".88"
         id="stop832-9" />
      <stop
         style="stop-color:#000000"
         offset="1"
         id="stop834-3" />
    </linearGradient>
    <filter
       id="filter4346-1"
       x="-0.0099999998"
       y="-0.0099999998"
       width="1.026"
       height="1.022"
       style="color-interpolation-filters:sRGB">
      <feGaussianBlur
         stdDeviation="2.12"
         id="feGaussianBlur837-9" />
    </filter>
    <linearGradient
       id="linearGradient4226-3-4"
       x1="529.65503"
       x2="-35.310001"
       y1="401.58401"
       y2="119.093"
       gradientTransform="matrix(0,-0.10406712,0.10126686,0,5.8287035,288.81876)"
       gradientUnits="userSpaceOnUse">
      <stop
         style="stop-color:#f2f2f2"
         offset="0"
         id="stop825-6-7" />
      <stop
         style="stop-color:#f9f9f9"
         offset="1"
         id="stop827-7-8" />
    </linearGradient>
  </defs>
  <sodipodi:namedview
     pagecolor="#ffffff"
     bordercolor="#666666"
     borderopacity="1"
     objecttolerance="10"
     gridtolerance="10"
     guidetolerance="10"
     inkscape:pageopacity="0"
     inkscape:pageshadow="2"
     inkscape:window-width="1848"
     inkscape:window-height="1019"
     id="namedview10"
     showgrid="false"
     inkscape:zoom="5.2149125"
     inkscape:cx="61.921335"
     inkscape:cy="7.4611399"
     inkscape:window-x="72"
     inkscape:window-y="31"
     inkscape:window-maximized="1"
     inkscape:current-layer="svg8" />
  <title
     id="title2">한셀</title>
  <path
     d="m 3.5,15 v -3.581405 h 1.5193799 v 2.062032 H 12.941859 V 15 Z m 5.6671841,-3.181155 c 0.0014,0.437902 -0.2613772,0.83343 -0.6655497,1.001943 -0.4041697,0.168532 -0.8700683,0.07681 -1.1801879,-0.232363 -0.3101224,-0.309138 -0.4033036,-0.77476 -0.2360446,-1.179453 0.1672589,-0.404703 0.561973,-0.668677 0.9998697,-0.668677 0.2864969,-4.2e-4 0.5614429,0.112924 0.7643431,0.315196 0.202902,0.202262 0.3171308,0.476868 0.3175694,0.763354 z M 6.8758331,4.6728253 c 1.1120274,-0.461132 2.392347,-0.206892 3.2438149,0.64414 0.851467,0.8510414 1.106357,2.13122 0.645784,3.2434827 C 10.304861,9.67272 9.2195544,10.397911 8.0157065,10.397911 7.2266245,10.398125 6.4697845,10.084824 5.9116876,9.526999 5.3535907,8.969164 5.0399561,8.2124733 5.0397825,7.423396 5.0391525,6.2196667 5.7638065,5.1339853 6.8758331,4.6728253 Z m 2.519663,3.32626 C 9.6270076,7.4428467 9.500456,6.80188 9.0749045,6.3753747 8.6493531,5.94886 8.0086944,5.8208533 7.4519228,6.051116 6.8951531,6.28136 6.5320285,6.8244853 6.5320285,7.4269707 6.5315021,7.8214067 6.6877375,8.199864 6.9663207,8.47908 7.2449048,8.7583053 7.6230196,8.9153853 8.0174425,8.9157493 8.6200511,8.9166267 9.1639847,8.555324 9.3954961,7.9990853 Z M 3.8255821,2.6279013 H 7.4069772 V 1 h 1.5193789 v 1.6279013 h 3.6899229 l 0.0069,1.5193827 H 3.8255737 Z"
     id="한"
     inkscape:connector-curvature="0"
     style="fill:#dedede;fill-opacity:1;stroke-width:0.10852713" />
</svg>
