<?xml version="1.0" encoding="UTF-8" standalone="no"?>
<svg
   xmlns:dc="http://purl.org/dc/elements/1.1/"
   xmlns:cc="http://creativecommons.org/ns#"
   xmlns:rdf="http://www.w3.org/1999/02/22-rdf-syntax-ns#"
   xmlns:svg="http://www.w3.org/2000/svg"
   xmlns="http://www.w3.org/2000/svg"
   xmlns:sodipodi="http://sodipodi.sourceforge.net/DTD/sodipodi-0.dtd"
   xmlns:inkscape="http://www.inkscape.org/namespaces/inkscape"
   version="1.1"
   id="레이어_1"
   x="0px"
   y="0px"
   viewBox="0 0 16 16"
   style="enable-background:new 0 0 16 16;"
   xml:space="preserve"
   sodipodi:docname="playlist-symbolic.svg"
   inkscape:version="1.0.1 (3bc2e813f5, 2020-09-07)"><metadata
   id="metadata19"><rdf:RDF><cc:Work
       rdf:about=""><dc:format>image/svg+xml</dc:format><dc:type
         rdf:resource="http://purl.org/dc/dcmitype/StillImage" /></cc:Work></rdf:RDF></metadata><defs
   id="defs17" /><sodipodi:namedview
   pagecolor="#ffffff"
   bordercolor="#666666"
   borderopacity="1"
   objecttolerance="10"
   gridtolerance="10"
   guidetolerance="10"
   inkscape:pageopacity="0"
   inkscape:pageshadow="2"
   inkscape:window-width="1920"
   inkscape:window-height="1017"
   id="namedview15"
   showgrid="false"
   inkscape:zoom="53.125"
   inkscape:cx="8"
   inkscape:cy="8"
   inkscape:window-x="-8"
   inkscape:window-y="-8"
   inkscape:window-maximized="1"
   inkscape:current-layer="g12" />
<style
   type="text/css"
   id="style2">
	.st0{fill:#dedede;}
</style>
<g
   id="g12">
	<path
   class="st0"
   d="M 13.994118,6.6 C 13.294118,6 12.5,5.8 12.2,5.7 c -0.2,0 -0.4,0 -0.6,0 -0.3,0 -0.5,0.2 -0.5,0.5 v 1 0.4 1.9 C 10.7,9.3 10.3,9.1 9.8,9.1 c -1.3,0 -2.3,1 -2.3,2.3 0,1.3 1,2.3 2.3,2.3 1.3,0 2.3,-1 2.3,-2.2 v 0 V 8.9 7.6 7.1 c 0,0 0,-0.1 0.1,-0.1 h 0.1 c 0.1,0 0.2,0 0.4,0.1 0.4,0.2 0.7,0.5 0.8,0.6 0.4,0.5 0.4,1 0.4,1.3 v 1.3 c 0,0.3 0.2,0.5 0.5,0.5 0.3,0 0.504324,-0.200031 0.5,-0.5 L 14.881176,8.9941176 C 14.849411,8.5811764 14.894118,7.5 13.994118,6.6 Z"
   id="path4"
   sodipodi:nodetypes="cccscccssssccccssscsssscc" />
	<path
   class="st0"
   d="M 1.6,11.6 H 6 c 0.3,0 0.6,0.3 0.6,0.6 v 0 c 0,0.3 -0.3,0.6 -0.6,0.6 H 1.6 C 1.3,12.8 1,12.5 1,12.2 v 0 c 0,-0.3 0.3,-0.6 0.6,-0.6 z"
   id="path6" />
	<path
   class="st0"
   d="M 1.6,6.7 H 6 c 0.3,0 0.6,0.3 0.6,0.6 v 0 C 6.6,7.6 6.3,7.9 6,7.9 H 1.6 C 1.3,7.9 1,7.6 1,7.3 v 0 C 1,7 1.3,6.7 1.6,6.7 Z"
   id="path8" />
	<path
   class="st0"
   d="m 1.6,2.2 h 12.8 c 0.3,0 0.6,0.3 0.6,0.6 v 0 c 0,0.3 -0.3,0.6 -0.6,0.6 H 1.6 C 1.3,3.3 1,3.1 1,2.8 v 0 C 1,2.4 1.3,2.2 1.6,2.2 Z"
   id="path10" />
</g>
</svg>
