/* XPM */
static char *xterm_color_48x48[] = {
/* columns rows colors chars-per-pixel */
"32 32 114 2 ",
"   c black",
".  c gray2",
"X  c #090909",
"o  c gray4",
"O  c #0B0B0B",
"+  c #0C0C0C",
"@  c gray5",
"#  c #0E0E0E",
"$  c gray6",
"%  c #101010",
"&  c #161616",
"*  c #191919",
"=  c gray10",
"-  c #1B1B1B",
";  c gray11",
":  c #1D1D1D",
">  c #1E1E1E",
",  c gray12",
"<  c #202020",
"1  c gray13",
"2  c #222222",
"3  c #232323",
"4  c gray14",
"5  c #252525",
"6  c gray15",
"7  c #272727",
"8  c #282828",
"9  c gray16",
"0  c #2A2A2A",
"q  c gray17",
"w  c #2C2C2C",
"e  c #2D2D2D",
"r  c gray18",
"t  c #2F2F2F",
"y  c gray19",
"u  c #313131",
"i  c #323232",
"p  c gray20",
"a  c #343434",
"s  c #353535",
"d  c gray21",
"f  c #373737",
"g  c gray22",
"h  c #393939",
"j  c #3A3A3A",
"k  c gray23",
"l  c #3C3C3C",
"z  c gray24",
"x  c #3E3E3E",
"c  c #3F3F3F",
"v  c gray25",
"b  c #414141",
"n  c gray26",
"m  c #434343",
"M  c #444444",
"N  c gray27",
"B  c #464646",
"V  c gray28",
"C  c #484848",
"Z  c #494949",
"A  c gray29",
"S  c #4B4B4B",
"D  c #4C4C4C",
"F  c gray30",
"G  c #4E4E4E",
"H  c gray31",
"J  c #505050",
"K  c #515151",
"L  c gray32",
"P  c #535353",
"I  c gray33",
"U  c #555555",
"Y  c #565656",
"T  c gray34",
"R  c #585858",
"E  c gray35",
"W  c #5A5A5A",
"Q  c #5B5B5B",
"!  c gray36",
"~  c #5D5D5D",
"^  c gray37",
"/  c #5F5F5F",
"(  c #606060",
")  c gray38",
"_  c #626262",
"`  c gray39",
"'  c #646464",
"]  c #656565",
"[  c gray40",
"{  c #676767",
"}  c #686868",
"|  c DimGray",
" . c #6A6A6A",
".. c gray42",
"X. c #6C6C6C",
"o. c #6D6D6D",
"O. c gray43",
"+. c #6F6F6F",
"@. c gray44",
"#. c #717171",
"$. c gray45",
"%. c #747474",
"&. c #767676",
"*. c #777777",
"=. c #808080",
"-. c gray57",
";. c #9A9A9A",
":. c gray75",
">. c #CBCBCB",
",. c #D0D0D0",
"<. c gray84",
"1. c gray86",
"2. c gray89",
"3. c None",
/* pixels */
"3.3.3.3.3.3.3.3.3.3.3.3.3.3.3.3.3.3.3.3.3.3.3.3.3.3.3.3.3.3.3.3.",
"3.3.3.3.3.3.3.3.3.3.3.3.3.3.3.3.3.3.3.3.3.3.3.3.3.3.3.3.3.3.3.3.",
"3.3.3.h c v N A G J J E ~ ( ( ' %.%.%.$.o.....' ( ( ~ E J 3.3.3.",
"3.3.c d i d d c v v N A A G G G E ' ( ( ( ~ E E E J T G J J 3.3.",
"3.3.N h i d d h h c c v N v N N G ~ ~ ~ E E T T J J J G G T 3.3.",
"3.3.G h d -.J h A G A G N N A N N ~ ~ E E T E ( E T J J G T 3.3.",
"3.3.G h d ..>.-.J ' ' ..T N N N A T E ~ E E ..o.T J G G G T 3.3.",
"3.3.G c i d ..2.A ~ ....o.J G G G T ~ ~ ~ ( %.~ J J G G A T 3.3.",
"3.3.J c d ;.:.E c N ......( A A A A ~ E E %.( T J J G A G T 3.3.",
"3.3.J h d ~ h h *.<.<.1.$...T A N N T E ..o.T J J J G A A J 3.3.",
"3.3.A h d d h h v G G o.......A N A G ~ %.E J J G G A A A T 3.3.",
"3.3.A h d d d h c c c N ..' ..( N v N $.( J G G G A A N N J 3.3.",
"3.3.N d i d d h h c v v ~ o.o.o.T N E o.J J G G A A N N N J 3.3.",
"3.3.v d i d d d d h h h v ~ ' ' ~ A ( G G G A A N A N N N J 3.3.",
"3.3.c i i i i d d h h c c N ' ' G ( G v A A A N N N N v v J 3.3.",
"3.3.h t t t i d d d h h h c E T J ( v c N A N N N v v v v G 3.3.",
"3.3.d q t t i i i i d d d N ~ N ( ( E h c v v v v v c h c A 3.3.",
"3.3.d q q t t i d d d d c ~ A G ' ( ( G c N v v c c h h h A 3.3.",
"3.3.t q q q q t t t i i A G i i J ~ ~ E c h h h h h h h h v 3.3.",
"3.3.q q 6 q q t t t t c T d i i h ~ E E J h h h d d d i d c 3.3.",
"3.3.t 6 6 6 q q q t t T c t i i i N E E E N d d i i i t i h 3.3.",
"3.3.q 3 6 6 6 6 6 q N N q q q q q t G T T J d i i t t t q d 3.3.",
"3.3.6 3 3 3 6 6 q d J i t t i i i i h E E T G t t t t q q d 3.3.",
"3.3.6 ; 3 3 3 6 6 G d 6 6 6 6 6 6 6 6 v J J J c q q 6 6 6 t 3.3.",
"3.3.3 ; 3 3 3 3 c v 3 6 6 6 6 6 6 6 6 q G G J G q 3 6 3 3 q 3.3.",
"3.3.3 - - ; ; ; 3 3 3 3 3 3 6 6 6 3 3 6 3 3 3 6 3 3 3 3 3 6 3.3.",
"3.3.3 - - - ; 3 3 ; ; 3 ; 3 3 ; 3 ; 3 ; ; 3 3 ; 3 ; 3 ; ; 3 3.3.",
"3.3.- - - - - - ; ; ; ; 3 ; ; 3 ; 3 ; 3 ; ; ; ; ; ; - - ; - 3.3.",
"3.3.X & - ; ; 3 3 3 3 3 6 6 6 6 q 6 6 6 6 3 3 3 ; 3 ; ; - X 3.3.",
"3.3.. X X # # # # # # # # % % % # % # # # # # X # # # X X . 3.3.",
"3.3.3.3.                                                3.3.3.3.",
"3.3.3.3.3.3.3.3.3.3.3.3.3.3.3.3.3.3.3.3.3.3.3.3.3.3.3.3.3.3.3.3."
};
