<?xml version="1.0" encoding="UTF-8" standalone="no"?>
<svg
   viewBox="0 0 32 32"
   version="1.1"
   id="svg6"
   sodipodi:docname="document-open-folder.svg"
   inkscape:version="1.1.1 (3bf5ae0d25, 2021-09-20)"
   xmlns:inkscape="http://www.inkscape.org/namespaces/inkscape"
   xmlns:sodipodi="http://sodipodi.sourceforge.net/DTD/sodipodi-0.dtd"
   xmlns="http://www.w3.org/2000/svg"
   xmlns:svg="http://www.w3.org/2000/svg">
  <sodipodi:namedview
     id="namedview8"
     pagecolor="#ffffff"
     bordercolor="#666666"
     borderopacity="1.0"
     inkscape:pageshadow="2"
     inkscape:pageopacity="0.0"
     inkscape:pagecheckerboard="0"
     showgrid="false"
     inkscape:zoom="9.71875"
     inkscape:cx="-5.5562701"
     inkscape:cy="8.5401929"
     inkscape:window-width="1920"
     inkscape:window-height="1006"
     inkscape:window-x="0"
     inkscape:window-y="0"
     inkscape:window-maximized="1"
     inkscape:current-layer="svg6" />
  <defs
     id="defs3051">
    <style
       type="text/css"
       id="current-color-scheme">
      .ColorScheme-Text {
        color:#eff0f1;
      }
      </style>
  </defs>
  <path
     style="color:#eff0f1;fill:currentColor;fill-opacity:1;stroke:none"
     d="M 7.766,4 A 3.785,3.785 0 0 0 4,7.766 v 16.312 a 3.785,3.785 0 0 0 3.766,3.766 h 16.312 a 3.785,3.785 0 0 0 3.766,-3.766 V 10.35 A 3.785,3.785 0 0 0 24.078,6.584 H 17.132 L 15.802,5.256 15.15,4.604 14.548,4.002 H 7.766 Z m 4.892,7.04 h 14.176 v 13.157 a 2.563,2.563 0 0 1 -2.568,2.569 H 7.578 A 2.562,2.562 0 0 1 5.01,24.197 v -10.08 h 4.558 v -0.011 l 0.012,0.011 z"
     id="path825"
     class="ColorScheme-Text" />
</svg>
