<svg width="16" height="16" viewBox="0 0 16 16" fill="none" xmlns="http://www.w3.org/2000/svg">
<path d="M6.6542 0.637903C8.32328 0.293031 10.0995 0.609428 11.5918 1.42573C13.4709 2.45297 14.8863 4.3292 15.3303 6.45013C15.9678 9.0182 15.0381 11.8658 13.1454 13.6598C12.2812 14.4993 11.2049 15.0656 10.0808 15.4558C9.87485 15.3514 9.6211 15.2618 9.53895 15.0203C9.43702 14.7988 9.5223 14.5457 9.66685 14.3685C9.83948 14.224 10.0683 14.1892 10.2721 14.1101C11.9339 13.4826 13.2889 12.0957 13.9222 10.4188C14.4422 9.0604 14.4672 7.52375 14.0387 6.13795C13.4907 4.3946 12.1658 2.92863 10.5082 2.2104C9.3684 1.69889 8.0789 1.60292 6.85698 1.80119C5.05688 2.12286 3.43668 3.2967 2.5257 4.89978C1.79879 6.1432 1.53881 7.644 1.74991 9.06883C2.04005 11.3269 3.6561 13.3328 5.7557 14.1185C6.03648 14.2103 6.3963 14.2831 6.48158 14.6195C6.63028 15.0139 6.26943 15.3377 5.93145 15.4464C4.8 15.072 3.72785 14.4898 2.86055 13.6545C1.64904 12.4944 0.827495 10.9198 0.590393 9.24495C0.256578 7.17783 0.862853 4.99048 2.15236 3.36208C3.26715 1.94884 4.89153 0.944811 6.6542 0.637903Z" fill="url(#paint0_linear)"/>
<path d="M7.44349 4.65824C7.44869 4.15834 8.14333 3.93264 8.46051 4.29334C8.58636 4.45154 8.63106 4.65719 8.63524 4.85652C8.64876 5.86582 8.62171 6.87514 8.63836 7.88339C9.08031 7.57542 9.54309 7.29912 9.99026 6.99959C10.1868 6.87197 10.4239 6.73277 10.6652 6.81187C11.0073 6.88357 11.2122 7.31704 11.051 7.63344C10.9678 7.82539 10.7848 7.93402 10.6194 8.04369C9.87794 8.52039 9.13649 8.99817 8.39604 9.47697C8.17559 9.62252 7.84801 9.62884 7.64626 9.44639C6.90791 8.88532 6.12486 8.38647 5.38753 7.82432C5.07661 7.57227 5.12028 7.00907 5.48946 6.84034C5.71201 6.70744 5.98966 6.77494 6.18934 6.91944C6.60529 7.21262 7.02231 7.50477 7.43619 7.80217C7.44139 6.75384 7.42371 5.70552 7.44349 4.65824Z" fill="url(#paint1_linear)"/>
<path d="M5.33248 10.5707C5.3772 10.5623 5.46768 10.5464 5.51343 10.538C7.1773 10.5317 8.84223 10.537 10.5061 10.5359C10.9554 10.4958 11.3381 11.0622 11.0583 11.4503C10.9377 11.6992 10.6507 11.772 10.399 11.754C8.73513 11.7414 7.0702 11.7667 5.40633 11.7414C4.8094 11.6823 4.75325 10.7057 5.33248 10.5707Z" fill="url(#paint2_linear)"/>
<defs>
<linearGradient id="paint0_linear" x1="8.01508" y1="15.4558" x2="8.01508" y2="0.5" gradientUnits="userSpaceOnUse">
<stop stop-color="#02AA93"/>
<stop offset="1" stop-color="#67FF80"/>
</linearGradient>
<linearGradient id="paint1_linear" x1="8.14373" y1="9.58484" x2="8.14373" y2="4.11652" gradientUnits="userSpaceOnUse">
<stop stop-color="#02AA93"/>
<stop offset="1" stop-color="#67FF80"/>
</linearGradient>
<linearGradient id="paint2_linear" x1="8.04025" y1="11.7566" x2="8.04025" y2="10.5339" gradientUnits="userSpaceOnUse">
<stop stop-color="#02AA93"/>
<stop offset="1" stop-color="#67FF80"/>
</linearGradient>
</defs>
</svg>
