<?xml version="1.0" encoding="UTF-8" standalone="no"?>
<svg
   viewBox="0 0 32 32"
   version="1.1"
   id="svg12"
   sodipodi:docname="folder-sign.svg"
   inkscape:version="1.2 (dc2aedaf03, 2022-05-15)"
   xmlns:inkscape="http://www.inkscape.org/namespaces/inkscape"
   xmlns:sodipodi="http://sodipodi.sourceforge.net/DTD/sodipodi-0.dtd"
   xmlns="http://www.w3.org/2000/svg"
   xmlns:svg="http://www.w3.org/2000/svg"
   xmlns:rdf="http://www.w3.org/1999/02/22-rdf-syntax-ns#"
   xmlns:cc="http://creativecommons.org/ns#"
   xmlns:dc="http://purl.org/dc/elements/1.1/">
  <metadata
     id="metadata16">
    <rdf:RDF>
      <cc:Work
         rdf:about="">
        <dc:format>image/svg+xml</dc:format>
        <dc:type
           rdf:resource="http://purl.org/dc/dcmitype/StillImage" />
      </cc:Work>
    </rdf:RDF>
  </metadata>
  <sodipodi:namedview
     pagecolor="#ffffff"
     bordercolor="#666666"
     borderopacity="1"
     objecttolerance="10"
     gridtolerance="10"
     guidetolerance="10"
     inkscape:pageopacity="0"
     inkscape:pageshadow="2"
     inkscape:window-width="1920"
     inkscape:window-height="1000"
     id="namedview14"
     showgrid="true"
     inkscape:zoom="9.8125"
     inkscape:cx="20.942675"
     inkscape:cy="10.751592"
     inkscape:window-x="0"
     inkscape:window-y="0"
     inkscape:window-maximized="1"
     inkscape:current-layer="svg12"
     inkscape:document-rotation="0"
     inkscape:lockguides="false"
     inkscape:showpageshadow="2"
     inkscape:pagecheckerboard="0"
     inkscape:deskcolor="#d1d1d1">
    <inkscape:grid
       type="xygrid"
       id="grid841" />
  </sodipodi:namedview>
  <defs
     id="defs3051">
    <style
       type="text/css"
       id="current-color-scheme">
      .ColorScheme-Text {
        color:#31363b;
      }
      .ColorScheme-Background {
        color:#eff0f1;
      }
      .ColorScheme-Highlight {
        color:#3daee9;
      }
      .ColorScheme-ViewText {
        color:#31363b;
      }
      .ColorScheme-ViewBackground {
        color:#fcfcfc;
      }
      .ColorScheme-ViewHover {
        color:#93cee9;
      }
      .ColorScheme-ViewFocus{
        color:#3daee9;
      }
      .ColorScheme-ButtonText {
        color:#31363b;
      }
      .ColorScheme-ButtonBackground {
        color:#eff0f1;
      }
      .ColorScheme-ButtonHover {
        color:#93cee9;
      }
      .ColorScheme-ButtonFocus{
        color:#3daee9;
      }
      </style>
  </defs>
  <path
     style="fill:currentColor;fill-opacity:1;stroke:none"
     d="m 2,7 v 3 c -1,0 -1,0 -1,1 v 14 c 0,3 1,4 4,4 h 7 1 14 c 2.978306,0 4,-1 4,-4 V 8.9896483 9 C 31,8 31,8 30,8 30,5 28,5 25,5 H 16 C 16,5 16,3 14,3 H 6 C 2.9885736,3 2,4 2,7 Z"
     class="ColorScheme-Highlight"
     id="path4"
     sodipodi:nodetypes="ccccccccccccccccc" />
  <path
     style="fill-opacity:0.33;fill-rule:evenodd"
     d="M 6,3 C 3,3 2,4.03267 2,7 v 3 h 9 L 13,8 H 30 C 30,5 28,5 25,5 h -9 c 0,0 0,-2 -2,-2 z"
     id="path6"
     sodipodi:nodetypes="cccccccccc" />
  <path
     style="opacity:0.01;fill:#ffffff;fill-opacity:0.2;fill-rule:evenodd"
     d="m 14,3 1,3 H 27 V 5 H 16 c 0,0 0,-2 -2,-2 z m -1,5 -2,2 H 2 c -1,0 -1,0 -1,1 h 11 z"
     id="path8"
     sodipodi:nodetypes="cccccccccccc" />
  <path
     style="fill-opacity:0.2;fill-rule:evenodd"
     d="M 13,8 11,9 H 2 v 1 h 9 z M 1.738392,28 C 2.2760062,28.56082 3,29 5,29 h 22 c 1.852094,0 2.518009,-0.336138 3.224022,-1 z"
     class="ColorScheme-Text"
     id="path10"
     sodipodi:nodetypes="ccccccccccc" />
  <path
     style="color:#31363b;fill:#e5e5e5;fill-opacity:1;stroke:none"
     d="m 19.713123,12.000037 c -0.05187,-8.43e-4 -0.105908,0.01278 -0.15625,0.04492 -0.02689,0.01869 -0.142639,0.16057 -0.257813,0.314453 l -0.210937,0.28125 -0.07422,-0.05273 c -0.10522,-0.07116 -0.207469,-0.086 -0.302734,-0.04297 -0.06584,0.02963 -0.221077,0.230002 -1.238282,1.585937 -0.641945,0.854813 -1.163589,1.561303 -1.162109,1.572266 0.0012,0.0092 0.258553,0.215131 0.570312,0.455078 l 0.570313,0.439453 0.757812,-1.013672 c 0.417402,-0.557274 0.765205,-1.008289 0.773438,-1.001953 0.02671,0.02048 0.07286,0.460376 0.0625,0.601563 -0.0043,0.07702 -0.03264,0.214898 -0.0625,0.30664 -0.05327,0.163942 -0.05974,0.174087 -1,1.433594 -0.520018,0.696304 -0.953083,1.28712 -0.960938,1.310547 -0.02251,0.0646 8.39e-4,0.186185 0.04883,0.255859 0.08014,0.117465 0.280684,0.155064 0.394532,0.07227 0.07865,-0.05753 1.940506,-2.569873 2,-2.701172 0.173738,-0.3744 0.213589,-0.854646 0.107422,-1.328125 -0.04194,-0.187929 -0.09829,-0.369484 -0.152344,-0.498047 -0.01576,-0.03511 0.01135,-0.07974 0.185547,-0.314453 0.164621,-0.224061 0.201826,-0.287467 0.205078,-0.345703 0.0071,-0.123938 -0.02895,-0.191901 -0.148438,-0.287109 l -0.111328,-0.08984 0.222657,-0.300781 c 0.18329,-0.248997 0.223403,-0.314833 0.226561,-0.373056 0.0092,-0.185631 -0.131509,-0.321689 -0.287109,-0.324219 z m -3.761719,4.171875 c -0.0055,7.57e-4 -0.689847,0.911163 -1.521484,2.021484 -1.337601,1.787971 -1.526692,2.053542 -1.650391,2.28125 -0.245761,0.453344 -0.51606,1.145014 -0.695313,1.777344 -0.116169,0.405553 -0.120318,0.368632 0.03906,0.283203 0.491631,-0.265732 1.13355,-0.697318 1.507812,-1.015625 0.365968,-0.311621 0.428165,-0.391704 1.982422,-2.466797 l 1.496094,-1.998046 -0.574219,-0.441407 c -0.315929,-0.243156 -0.578529,-0.442163 -0.583984,-0.441406 z m -0.02734,4.630859 c -0.231646,0.05017 -0.488549,0.254469 -0.613281,0.488282 -0.03366,0.06121 -0.08647,0.197421 -0.119141,0.300781 -0.03069,0.106369 -0.06052,0.194255 -0.0625,0.197265 -0.01782,0.02308 -0.460349,0.130625 -0.720703,0.175782 -0.611782,0.108377 -0.777505,0.147879 -0.837891,0.205078 -0.117803,0.110384 -0.02764,0.221047 0.138672,0.171875 0.04455,-0.01405 0.233868,-0.05288 0.416016,-0.08398 0.182149,-0.03211 0.460751,-0.08887 0.619141,-0.125 0.15839,-0.03813 0.289945,-0.06367 0.296875,-0.05664 0.0069,0.01003 -0.01993,0.134633 -0.0625,0.285156 l -0.07422,0.271484 -0.167969,0.07422 c -0.09108,0.04014 -0.222711,0.111039 -0.291016,0.158203 -0.208878,0.139485 -0.249063,0.314341 -0.101562,0.427735 0.08019,0.06121 0.300861,0.05921 0.439453,0 0.122752,-0.0562 0.191086,-0.135132 0.287109,-0.339844 0.05148,-0.10637 0.09136,-0.162898 0.123047,-0.169922 0.02475,-0.01003 0.24572,-0.05234 0.490235,-0.103515 0.244515,-0.05017 0.467386,-0.0975 0.496094,-0.103516 0.04653,-0.01104 0.05097,-0.0091 0.03711,0.03711 -0.0089,0.02709 -0.04924,0.10654 -0.0918,0.175781 -0.04257,0.07024 -0.07422,0.152431 -0.07422,0.185547 0,0.07024 0.056,0.139157 0.103516,0.121094 0.01782,-0.01003 0.0438,-0.01367 0.05469,-0.01367 0.01089,0 0.06087,-0.03493 0.109375,-0.08008 0.09107,-0.08329 0.310547,-0.492829 0.310547,-0.578125 0,-0.04315 0.03489,-0.05365 0.05469,-0.01953 0.0069,0.01104 0.05785,0.03187 0.113281,0.04492 0.07821,0.02007 0.09961,0.03615 0.09961,0.07227 0,0.07024 0.11486,0.171337 0.214844,0.191407 0.0782,0.01405 0.17629,2.85e-4 0.283203,-0.04687 0.03762,-0.01606 0.04021,-0.01132 0.02734,0.04687 -0.0089,0.03613 -0.07328,0.151442 -0.142578,0.257812 -0.146511,0.220768 -0.324567,0.572975 -0.371094,0.728516 -0.03762,0.133464 -0.02144,0.231129 0.04687,0.279297 0.06237,0.04014 0.16334,0.0211 0.216797,-0.03711 0.04653,-0.05218 0.300487,-0.593935 0.394531,-0.841797 0.06633,-0.173603 0.09853,-0.220246 0.25,-0.382812 0.124732,-0.13246 0.163447,-0.165462 0.136719,-0.113281 -0.04455,0.09734 -0.04166,0.171639 0.0078,0.216796 0.104934,0.09734 0.255056,6.03e-4 0.386718,-0.240234 0.07821,-0.144503 0.13672,-0.188694 0.425782,-0.326172 l 0.15039,-0.07031 -0.01563,0.08398 c -0.0089,0.04516 -0.05983,0.172819 -0.113281,0.283203 -0.104934,0.223778 -0.124863,0.36686 -0.0625,0.488281 0.04257,0.08329 0.08709,0.08492 0.291016,0.01367 0.285102,-0.09734 0.654965,-0.320771 0.75,-0.449218 0.131661,-0.180628 0.171985,-0.353908 0.0918,-0.41211 -0.08216,-0.06121 -0.129442,-0.0364 -0.234375,0.119141 -0.140572,0.211737 -0.312205,0.375694 -0.478515,0.458984 -0.07821,0.04114 -0.147368,0.06953 -0.154297,0.0625 -0.0089,-0.01003 0.168637,-0.494863 0.263672,-0.722656 0.0198,-0.04716 0.03711,-0.106776 0.03711,-0.130859 0,-0.06322 -0.07821,-0.134766 -0.144531,-0.134766 -0.03069,0 -0.179661,0.0624 -0.326172,0.138672 -0.304901,0.153534 -0.285236,0.164955 -0.207031,-0.123047 0.04653,-0.177617 0.0317,-0.22529 -0.07422,-0.236328 -0.101964,-0.01104 -0.143273,0.02282 -0.236328,0.191406 -0.06039,0.114398 -0.139529,0.210967 -0.292969,0.355469 -0.201948,0.188656 -0.210295,0.195224 -0.257812,0.162109 -0.07128,-0.05218 -0.110928,-0.04534 -0.285157,0.04297 -0.169279,0.0853 -0.225011,0.0971 -0.267578,0.04492 -0.03564,-0.04315 0.02023,-0.06574 0.330078,-0.126953 0.299952,-0.05921 0.337891,-0.0735 0.337891,-0.136719 0,-0.101353 -0.082,-0.198445 -0.228516,-0.263672 -0.253425,-0.115401 -0.282668,-0.120899 -0.394531,-0.0918 -0.119783,0.03211 -0.297517,0.205126 -0.322265,0.3125 -0.02475,0.112391 -0.09961,0.07952 -0.09961,-0.04492 0,-0.05218 -0.06398,-0.18395 -0.09961,-0.207031 -0.07524,-0.05218 -0.197962,0.06281 -0.291016,0.269531 l -0.07227,0.158203 -0.164063,0.03711 c -0.213827,0.04716 -0.834815,0.173397 -0.917969,0.189453 -0.05346,0.01003 -0.06167,0.0098 -0.05078,-0.02734 0.0089,-0.02308 0.03577,-0.121303 0.0625,-0.222656 0.0693,-0.27897 0.08947,-0.315437 0.189453,-0.351563 0.119783,-0.04315 0.523973,-0.219249 0.628906,-0.273437 0.04851,-0.02509 0.148412,-0.09973 0.222657,-0.167969 0.224717,-0.211737 0.259983,-0.409235 0.09961,-0.552734 -0.04455,-0.03813 -0.102177,-0.07881 -0.128906,-0.08984 -0.08216,-0.03211 -0.282856,-0.04351 -0.38086,-0.02344 z m 0.08789,0.257813 c 0.117802,0.01003 0.163607,0.01856 0.197265,0.05469 0.04455,0.04516 0.04551,0.04651 0.0059,0.132813 -0.02673,0.05419 -0.08976,0.117687 -0.167969,0.171875 -0.135621,0.09433 -0.56036,0.267436 -0.574219,0.236328 -0.01782,-0.05218 0.117964,-0.360642 0.205078,-0.458984 0.115823,-0.132461 0.149856,-0.147757 0.333985,-0.136719 z m -1.25586,1.886719 c 0.01566,0.0014 0.01477,0.01757 0.0039,0.04297 -0.02871,0.0562 -0.104907,0.09809 -0.146485,0.08203 -0.04851,-0.02007 -0.03524,-0.04674 0.04297,-0.08789 0.05098,-0.02609 0.08253,-0.03861 0.09961,-0.03711 z"
     class="ColorScheme-Text"
     id="path51463" />
</svg>
