<?xml version="1.0" encoding="UTF-8" standalone="no"?>
<svg
   viewBox="0 0 32 32"
   version="1.1"
   id="svg12"
   sodipodi:docname="folder-deb.svg"
   inkscape:version="1.2 (dc2aedaf03, 2022-05-15)"
   xmlns:inkscape="http://www.inkscape.org/namespaces/inkscape"
   xmlns:sodipodi="http://sodipodi.sourceforge.net/DTD/sodipodi-0.dtd"
   xmlns="http://www.w3.org/2000/svg"
   xmlns:svg="http://www.w3.org/2000/svg"
   xmlns:rdf="http://www.w3.org/1999/02/22-rdf-syntax-ns#"
   xmlns:cc="http://creativecommons.org/ns#"
   xmlns:dc="http://purl.org/dc/elements/1.1/">
  <metadata
     id="metadata16">
    <rdf:RDF>
      <cc:Work
         rdf:about="">
        <dc:format>image/svg+xml</dc:format>
        <dc:type
           rdf:resource="http://purl.org/dc/dcmitype/StillImage" />
      </cc:Work>
    </rdf:RDF>
  </metadata>
  <sodipodi:namedview
     pagecolor="#ffffff"
     bordercolor="#666666"
     borderopacity="1"
     objecttolerance="10"
     gridtolerance="10"
     guidetolerance="10"
     inkscape:pageopacity="0"
     inkscape:pageshadow="2"
     inkscape:window-width="1920"
     inkscape:window-height="1000"
     id="namedview14"
     showgrid="true"
     inkscape:zoom="9.8125"
     inkscape:cx="20.942675"
     inkscape:cy="10.751592"
     inkscape:window-x="0"
     inkscape:window-y="0"
     inkscape:window-maximized="1"
     inkscape:current-layer="svg12"
     inkscape:document-rotation="0"
     inkscape:lockguides="false"
     inkscape:showpageshadow="2"
     inkscape:pagecheckerboard="0"
     inkscape:deskcolor="#d1d1d1">
    <inkscape:grid
       type="xygrid"
       id="grid841" />
  </sodipodi:namedview>
  <defs
     id="defs3051">
    <style
       type="text/css"
       id="current-color-scheme">
      .ColorScheme-Text {
        color:#31363b;
      }
      .ColorScheme-Background {
        color:#eff0f1;
      }
      .ColorScheme-Highlight {
        color:#3daee9;
      }
      .ColorScheme-ViewText {
        color:#31363b;
      }
      .ColorScheme-ViewBackground {
        color:#fcfcfc;
      }
      .ColorScheme-ViewHover {
        color:#93cee9;
      }
      .ColorScheme-ViewFocus{
        color:#3daee9;
      }
      .ColorScheme-ButtonText {
        color:#31363b;
      }
      .ColorScheme-ButtonBackground {
        color:#eff0f1;
      }
      .ColorScheme-ButtonHover {
        color:#93cee9;
      }
      .ColorScheme-ButtonFocus{
        color:#3daee9;
      }
      </style>
  </defs>
  <path
     style="fill:#f62459;fill-opacity:1;stroke:none"
     d="m 2,7 v 3 c -1,0 -1,0 -1,1 v 14 c 0,3 1,4 4,4 h 7 1 14 c 2.978306,0 4,-1 4,-4 V 8.9896483 9 C 31,8 31,8 30,8 30,5 28,5 25,5 H 16 C 16,5 16,3 14,3 H 6 C 2.9885736,3 2,4 2,7 Z"
     class="ColorScheme-Highlight"
     id="path4"
     sodipodi:nodetypes="ccccccccccccccccc" />
  <path
     style="color:#31363b;fill:currentColor;fill-opacity:0.6;stroke:none"
     d="m 15.619139,12 c -0.08109,0 -0.520403,0.171031 -0.533203,0.207031 -0.01753,0.049 0.03999,0.04175 0.259765,-0.03125 C 15.542821,12.110171 15.714439,12 15.619139,12 Z m 3.714843,0.105469 c -0.02939,-0.0412 -0.0568,0.06002 -0.06055,0.261719 -0.0034,0.19362 0.0038,0.251468 0.03125,0.230468 0.0506,-0.03961 0.08469,-0.271234 0.05859,-0.402344 -0.0094,-0.04706 -0.0195,-0.07611 -0.0293,-0.08984 z m -1.640625,0.04492 c -0.08544,0.0037 -0.182194,0.02641 -0.255859,0.06641 -0.12282,0.067 -0.121582,0.06858 -0.451172,0.01758 -0.18127,-0.028 -0.506013,-0.06127 -0.720703,-0.07227 -0.33995,-0.017 -0.390625,-0.01266 -0.390625,0.02734 0,0.032 -0.05157,0.05612 -0.160156,0.07813 -0.08821,0.018 -0.217763,0.0617 -0.289063,0.0957 -0.07115,0.034 -0.138237,0.05492 -0.148437,0.04492 -0.01,-0.008 0.0024,-0.01728 0.02734,-0.01758 0.0369,-10e-4 0.03755,-0.0053 -0.002,-0.03125 -0.0397,-0.025 -0.03717,-0.03539 0.01563,-0.02539 0.07756,0.007 0.173829,-0.03136 0.173829,-0.06836 0,-0.034 -0.169607,-0.03777 -0.279297,-0.0098 -0.0439,0.011 -0.06879,0.03459 -0.05859,0.05859 0.01112,0.027 -0.02136,0.04559 -0.101563,0.05859 -0.06493,0.01 -0.167215,0.03092 -0.228515,0.04492 -0.1076,0.025 -0.110216,0.02352 -0.04102,-0.02149 0.0394,-0.026 0.07227,-0.05726 0.07227,-0.07226 0,-0.05041 -0.09906,-0.02583 -0.322266,0.08008 -0.12342,0.058 -0.247344,0.09984 -0.277344,0.08984 -0.11012,-0.03301 -1.300084,0.932235 -1.552734,1.259765 -0.05806,0.07581 -0.114838,0.121328 -0.148437,0.111328 -0.03487,-0.007 -0.07262,0.02584 -0.107422,0.08984 -0.02956,0.0547 -0.142664,0.233118 -0.251954,0.398438 -0.248479,0.37563 -0.329771,0.52503 -0.388671,0.71875 -0.0257,0.08411 -0.06594,0.192187 -0.08984,0.242187 -0.0239,0.04961 -0.06384,0.234236 -0.08984,0.410156 -0.04746,0.32113 -0.09624,0.462641 -0.148437,0.431641 -0.0154,-0.006 -0.03497,-0.0022 -0.04297,0.0098 -0.04235,0.06531 -0.122284,0.686091 -0.146485,1.144531 -0.0256,0.48245 -0.02159,0.531061 0.03711,0.675781 0.03478,0.08571 0.116894,0.359592 0.183594,0.607422 0.26841,0.99669 0.363426,1.288476 0.535156,1.666016 0.5169,1.13641 1.351989,2.045754 2.630859,2.865234 0.5823,0.37304 1.522055,0.738393 2.177735,0.845703 v -0.0059 c 0.16715,0.023 0.459288,0.0432 0.886718,0.0332 0.54244,-0.006 0.682826,-0.01813 0.947266,-0.07813 0.20115,-0.04621 0.310547,-0.08533 0.310547,-0.111328 0,-0.036 -0.03979,-0.03834 -0.166016,-0.02734 -0.85264,0.0734 -1.069877,0.04869 -1.498047,-0.177734 -0.30663,-0.162 -0.396246,-0.189797 -0.310546,-0.0918 0.05806,0.066 -0.03984,0.06133 -0.271485,-0.01367 -0.10187,-0.033 -0.217966,-0.06055 -0.259765,-0.06055 -0.0651,0 -0.07127,-0.0066 -0.04297,-0.05664 0.05347,-0.09411 0.03855,-0.123047 -0.06445,-0.123047 -0.1047,0 -0.228038,-0.05118 -0.429688,-0.179687 -0.10107,-0.068 -0.144997,-0.07759 -0.216797,-0.05859 -0.07837,0.02031 -0.110411,0.0073 -0.238281,-0.101562 -0.2023,-0.17241 -0.258766,-0.236828 -0.259766,-0.298828 -0.0011,-0.056 -0.06563,-0.06844 -0.115234,-0.02344 -0.01876,0.0171 -0.150063,-0.07005 -0.345703,-0.230469 -0.173618,-0.142442 -0.299565,-0.261416 -0.279265,-0.271416 0.06709,-0.021 0.03832,-0.09105 -0.05078,-0.123047 -0.1437,-0.0518 -0.205894,-0.113687 -0.183594,-0.179687 0.01547,-0.04601 -0.01727,-0.08755 -0.140625,-0.185547 -0.08781,-0.06981 -0.179978,-0.15736 -0.205078,-0.19336 -0.0435,-0.063 -0.04162,-0.06473 0.04687,-0.05273 0.13711,0.01901 0.117306,-0.03531 -0.08984,-0.240234 -0.19933,-0.19742 -0.329641,-0.267141 -0.457031,-0.244141 -0.05814,0.011 -0.111194,-0.0084 -0.183594,-0.06641 -0.14395,-0.11421 -0.302353,-0.334563 -0.251953,-0.351563 0.0258,-0.0088 0.0044,-0.05119 -0.0625,-0.117187 -0.07336,-0.07291 -0.113419,-0.149615 -0.136719,-0.265625 -0.01953,-0.09721 -0.06428,-0.193281 -0.109375,-0.238281 -0.19233,-0.193821 -0.291694,-0.50687 -0.464843,-1.44336 -0.142051,-0.76858 -0.142219,-0.750525 -0.01172,-1.296875 0.0896,-0.37484 0.09264,-0.445312 0.02734,-0.445312 -0.06189,0 -0.06301,0.0098 0.05078,-0.261719 0.25537,-0.60925 0.732536,-1.274128 1.003906,-1.398438 0.12246,-0.05611 0.205078,-0.152281 0.205078,-0.238281 0,-0.024 -0.02338,-0.02367 -0.05078,-0.01367 -0.0391,0.015 -0.03573,5.47e-4 0.01367,-0.06445 0.12363,-0.16182 0.278941,-0.274043 0.519531,-0.376953 0.14318,-0.0612 0.260803,-0.132875 0.283203,-0.171875 0.035,-0.061 0.0313,-0.06678 -0.0332,-0.05078 -0.0388,0.0102 -0.06459,0.02172 -0.05859,0.01172 0.0061,-0.0044 0.122476,-0.1058 0.259766,-0.22461 0.22708,-0.19642 0.580899,-0.417685 0.474609,-0.296875 -0.0238,0.027 -0.02902,0.05445 -0.01172,0.06445 0.0164,0.009 0.04706,-0.0033 0.06836,-0.02734 0.04681,-0.05321 0.323859,-0.177484 0.605469,-0.271484 0.57702,-0.19201 1.388174,-0.239785 1.865234,-0.109375 0.56083,0.15341 1.15367,0.499326 1.625,0.947266 0.32756,0.31123 0.538433,0.597401 0.658203,0.894531 0.0355,0.08781 0.0769,0.165781 0.0918,0.175781 0.04918,0.02861 0.26025,0.851183 0.28125,1.095703 0.0159,0.18452 0.03166,0.241988 0.06836,0.242188 0.0397,3e-4 0.04611,0.04269 0.03711,0.253906 -0.01032,0.23602 -0.02017,0.263563 -0.109375,0.351563 -0.0926,0.09161 -0.09452,0.102636 -0.07422,0.285156 l 0.02148,0.189453 -0.193359,0.289062 c -0.17288,0.258131 -0.507464,0.660674 -0.365234,0.439454 0.0427,-0.068 0.04411,-0.08203 0.0078,-0.08203 -0.02458,0 -0.104887,0.08605 -0.179687,0.19336 -0.13457,0.19292 -0.250047,0.293812 -0.435547,0.382812 -0.05258,0.02511 -0.174585,0.08767 -0.271485,0.138672 -0.24126,0.12632 -0.503885,0.185547 -0.828125,0.185547 -0.62472,0 -1.282433,-0.294709 -1.689453,-0.755859 -0.16911,-0.19152 -0.414062,-0.6189 -0.414062,-0.72461 0,-0.031 -0.01662,-0.05101 -0.04492,-0.04102 -0.0336,0.0121 -0.05123,-0.03857 -0.07813,-0.208985 -0.0467,-0.29583 -0.04623,-0.377651 0.01367,-0.675781 0.0892,-0.44444 0.341972,-0.791367 0.794922,-1.091797 0.3195,-0.21233 0.539361,-0.269531 0.988281,-0.269531 0.3197,0.002 0.409911,0.01141 0.550781,0.06641 0.09265,0.036 0.185731,0.06691 0.207031,0.06641 0.09042,-0.0018 -0.204953,-0.18739 -0.439453,-0.27539 -0.20674,-0.07791 -0.31408,-0.09642 -0.5625,-0.107422 -0.51389,-0.0221 -0.908302,0.125445 -1.289062,0.484375 -0.21608,0.20362 -0.427735,0.519552 -0.427735,0.638672 0,0.0274 -0.02875,0.09344 -0.06445,0.148437 -0.14158,0.21512 -0.223884,0.901414 -0.146484,1.214844 0.2109,0.85468 0.634897,1.304003 1.654297,1.751953 0.32241,0.14131 0.414158,0.22525 0.173828,0.15625 -0.22046,-0.0629 -0.5254,-0.186906 -0.625,-0.253906 -0.11012,-0.074 -0.13086,-0.07658 -0.13086,-0.01758 0,0.03151 -0.05855,0.0088 -0.197265,-0.07422 -0.10851,-0.06411 -0.211063,-0.111563 -0.226563,-0.101563 -0.08171,0.0475 0.45312,0.39744 0.8125,0.53125 0.52966,0.19292 1.127942,0.274126 1.576172,0.203126 0.26343,-0.042 0.708203,-0.228391 0.658203,-0.275391 -0.02118,-0.013 -0.06175,-0.01223 -0.123047,0.0098 -0.15362,0.05512 -0.492719,0.114719 -0.78125,0.136719 -0.22024,0.017 -0.31053,0.0108 -0.46289,-0.0332 l -0.189453,-0.05664 0.382812,-0.01953 c 0.42458,-0.02291 0.678208,-0.07136 1.054688,-0.201172 0.6386,-0.22042 1.201984,-0.687455 1.558593,-1.291015 0.132061,-0.22361 0.175782,-0.261407 0.175782,-0.154297 0,0.08542 0.07584,0.0568 0.08984,-0.0332 0.006,-0.0391 -0.0064,-0.119688 -0.02734,-0.179688 -0.02889,-0.08261 -0.0282,-0.139281 0,-0.238281 0.0335,-0.118 0.04104,-0.124938 0.08984,-0.08594 0.12007,0.09632 0.134534,0.09214 0.115234,-0.04297 -0.0102,-0.07171 0.0031,-0.24135 0.03125,-0.38086 0.028,-0.13812 0.05364,-0.334136 0.05664,-0.435546 l 0.0059,-0.183594 0.01758,0.171875 c 0.019,0.178 0.0735,0.236266 0.0918,0.09766 0.0098,-0.07421 -0.02507,-0.264105 -0.07227,-0.390625 -0.022,-0.057 -0.02186,-0.057 0.02734,0 0.0773,0.08941 0.08991,0.04288 0.03711,-0.148438 -0.0349,-0.12601 -0.044,-0.245661 -0.0293,-0.425781 0.02,-0.24442 0.005,-0.289843 -0.07422,-0.214843 -0.05085,0.0479 -0.144438,-0.135253 -0.148438,-0.289063 -0.0019,-0.08382 -0.02211,-0.135922 -0.06641,-0.169922 -0.03553,-0.0272 -0.09305,-0.09344 -0.126953,-0.148437 l -0.0625,-0.101563 0.0918,0.06836 c 0.04973,0.037 0.09551,0.06273 0.103515,0.05274 0.008,-0.0075 -0.02632,-0.08583 -0.07813,-0.173828 -0.05176,-0.0877 -0.113718,-0.205672 -0.136718,-0.263672 -0.07099,-0.17812 -0.228219,-0.303985 -0.261719,-0.208985 -0.0063,0.01731 -0.04148,-0.02666 -0.08008,-0.09766 l -0.07031,-0.130859 0.07031,-0.0098 c 0.03908,-0.005 0.08772,-0.02873 0.107422,-0.05273 0.02939,-0.0357 0.06694,-0.0068 0.210937,0.160156 0.09644,0.11181 0.273328,0.344658 0.392578,0.517578 0.11926,0.17281 0.221516,0.298297 0.228516,0.279297 0.01561,-0.0441 -0.05061,-0.163844 -0.283203,-0.521484 -0.10324,-0.15861 -0.1875,-0.304219 -0.1875,-0.324219 0,-0.0198 -0.02208,-0.07981 -0.05078,-0.132813 l -0.05273,-0.0957 0.06836,0.05664 c 0.11929,0.10031 0.112298,0.02605 -0.01367,-0.138672 -0.53116,-0.69477 -1.24693,-1.187614 -2.125,-1.464844 -0.27236,-0.088 -0.344038,-0.08976 -0.273438,-0.0098 0.0372,0.043 0.03126,0.043 -0.05664,0 -0.05383,-0.026 -0.115872,-0.0697 -0.138672,-0.0957 -0.03113,-0.035 -0.10597,-0.05063 -0.191407,-0.04687 z m -1.632812,0.132812 c 0.023,-0.011 0.04995,-0.01 0.06055,0 v 0.002 c 0.0105,0.006 -0.0074,0.01563 -0.04102,0.01563 -0.0371,-0.001 -0.04493,-0.0076 -0.01953,-0.01758 z m 0.222656,0.02539 c 0.07495,-0.0098 0.188606,-0.01 0.253906,0 0.06526,0.002 0.0035,0.01182 -0.136718,0.01172 -0.14026,10e-7 -0.192088,-0.0017 -0.117188,-0.01172 z m 0.460938,0.03125 c 0.03073,-0.01 0.08073,-0.01 0.111328,0 0.0306,0.004 0.0047,0.01367 -0.05664,0.01367 -0.0608,0 -0.08529,-0.0037 -0.05469,-0.01367 z m -0.773438,0.01172 c 0.0351,-0.008 0.05708,-0.0033 0.04687,0.01172 -0.0097,0.014 -0.03915,0.02539 -0.06445,0.02539 -0.066,0 -0.05682,-0.01811 0.01758,-0.03711 z m 1.013672,0.02149 c 0.023,-0.011 0.04995,-0.01 0.06055,0 v 0.002 c 0.0105,0.006 -0.0074,0.01563 -0.04102,0.01563 -0.037,-0.001 -0.04503,-0.0076 -0.01953,-0.01758 z m -1.205078,0.02539 h 0.111328 l -0.126953,0.02148 v 0.002 c -0.0701,0.012 -0.156406,0.03097 -0.191406,0.04297 -0.0413,0.015 -0.03598,0.0066 0.01563,-0.02344 0.04382,-0.025 0.130106,-0.04297 0.191406,-0.04297 z m -0.806641,0.121093 c 0.0069,0.006 -0.0873,0.04403 -0.210937,0.08203 -0.15299,0.049 -0.235613,0.06006 -0.257813,0.03906 -0.02216,-0.02 -0.08246,-0.01447 -0.1875,0.01953 v -0.002 c -0.08488,0.02701 -0.195793,0.07356 -0.246094,0.101563 l -0.0918,0.05273 0.08594,-0.06641 c 0.12464,-0.09531 0.414913,-0.186625 0.445313,-0.140625 0.01798,0.027 0.07498,0.0217 0.236328,-0.0293 0.11746,-0.036 0.219562,-0.06664 0.226562,-0.05664 z m 0.417969,0.0039 c 0.0068,0.007 -0.0617,0.03455 -0.154297,0.06055 -0.18557,0.051 -0.189453,0.0512 -0.189453,0.0332 0,-0.018 0.32885,-0.10775 0.34375,-0.09375 z m -1.433594,0.287109 c 0.0088,0 -0.0092,0.02755 -0.04101,0.06055 -0.0318,0.033 -0.06522,0.05859 -0.07422,0.05859 -0.0088,0 0.01127,-0.02559 0.04297,-0.05859 0.0318,-0.033 0.06326,-0.06055 0.07226,-0.06055 z m -0.375,0.300781 c 0.0016,0.0016 -0.01078,0.01312 -0.0293,0.03516 -0.0416,0.052 -0.06641,0.06697 -0.06641,0.04297 0,-0.006 0.02409,-0.02973 0.05469,-0.05273 0.02525,-0.019 0.03938,-0.02702 0.04101,-0.02539 z m -2.490234,2.775391 c -0.08002,-0.0028 -0.08012,0.0035 -0.07813,0.173828 0.0014,0.09672 0.01144,0.175781 0.02344,0.175781 0.05826,0 0.157438,-0.168906 0.148438,-0.253906 -0.0078,-0.076 -0.02595,-0.0957 -0.09375,-0.0957 z m 7.613281,0.414062 c -0.02943,-0.006 -0.05591,0.01616 -0.07031,0.07031 -0.0141,0.05271 0.0013,0.103015 0.05078,0.166015 0.1206,0.15381 0.195875,0.0625 0.109375,-0.132812 -0.02783,-0.063 -0.06042,-0.09748 -0.08984,-0.103516 z m 2.09961,0.01953 c 0.0078,0.0215 0.0083,0.04697 -0.002,0.05664 -0.0107,0.011 -0.01858,-0.0071 -0.01758,-0.03906 0.0015,-0.035 0.0093,-0.04158 0.01953,-0.01758 z M 11.03906,16.84375 C 11.01016,16.83475 11,16.88091 11,17.011719 c 0,0.09911 0.0089,0.202515 0.01953,0.228515 0.0106,0.026 0.03243,0.04687 0.04883,0.04687 0.0464,0 0.018,-0.428359 -0.0293,-0.443359 z m 7.740235,0.25 c -0.0156,-0.009 -0.03878,0.05844 -0.05078,0.148438 -0.0128,0.09701 -0.04824,0.192421 -0.08594,0.232421 l -0.0625,0.06836 0.01367,-0.07617 c 0.0081,-0.04131 0.02626,-0.118875 0.03906,-0.171875 0.03556,-0.14922 -0.02814,-0.117398 -0.08984,0.04492 -0.0719,0.18882 -0.06842,0.244343 0.01758,0.277344 0.14051,0.05331 0.173637,0.03786 0.210937,-0.101563 0.0422,-0.15971 0.04721,-0.398875 0.0078,-0.421875 z m -0.615235,0.929688 c -0.0069,-0.006 -0.0759,0.01583 -0.154296,0.04883 -0.07845,0.033 -0.211622,0.07284 -0.294922,0.08984 -0.14493,0.02891 -0.200328,0.09295 -0.111328,0.126953 0.02191,0.007 0.118443,0.01563 0.214843,0.01563 0.17424,0.0023 0.176678,0.0028 0.267579,-0.132813 0.0503,-0.07542 0.08513,-0.138437 0.07812,-0.148437 z m -2.580078,0.675781 c -0.06813,0 -0.01426,0.08548 0.154297,0.246093 v 0.002 c 0.1002,0.09552 0.186406,0.171875 0.191407,0.171875 0.005,0 0.0098,-0.01611 0.0098,-0.03711 0,-0.0442 -0.314569,-0.382812 -0.355469,-0.382812 z M 15.486322,19 c -0.0134,0 -0.02539,0.03798 -0.02539,0.08398 0,0.08691 0.120722,0.198749 0.445312,0.417969 v 0.002 c 0.08402,0.054 0.14925,0.0825 0.15625,0.0625 C 16.074364,19.532809 15.532222,19 15.486322,19 Z m 0.75586,0.355469 0.08789,0.05078 c 0.0483,0.028 0.08789,0.05055 0.08789,0.06055 0,0.024 -0.02816,0.01117 -0.101563,-0.04883 z"
     class="ColorScheme-Text"
     id="path29901" />
  <path
     style="fill-opacity:0.33;fill-rule:evenodd"
     d="M 6,3 C 3,3 2,4.03267 2,7 v 3 h 9 L 13,8 H 30 C 30,5 28,5 25,5 h -9 c 0,0 0,-2 -2,-2 z"
     id="path6"
     sodipodi:nodetypes="cccccccccc" />
  <path
     style="opacity:0.01;fill:#ffffff;fill-opacity:0.2;fill-rule:evenodd"
     d="m 14,3 1,3 H 27 V 5 H 16 c 0,0 0,-2 -2,-2 z m -1,5 -2,2 H 2 c -1,0 -1,0 -1,1 h 11 z"
     id="path8"
     sodipodi:nodetypes="cccccccccccc" />
  <path
     style="fill-opacity:0.2;fill-rule:evenodd"
     d="M 13,8 11,9 H 2 v 1 h 9 z M 1.738392,28 C 2.2760062,28.56082 3,29 5,29 h 22 c 1.852094,0 2.518009,-0.336138 3.224022,-1 z"
     class="ColorScheme-Text"
     id="path10"
     sodipodi:nodetypes="ccccccccccc" />
</svg>
