/* XPM */
static char * shade_active_xpm[] = {
"16 20 5 1",
" 	c None",
".	c #567B9C s active_mid_2",
"+	c #4B58A2 s active_shadow_2",
"@	c #567B9C s active_color_2",
"#	c #000000",
"                ",
"                ",
"                ",
"                ",
"################",
"#@@@@@@@@@@@@@@#",
"#@@@@@@@@@@@@@@#",
"#@@@@@@@@@@@@@@#",
"#@@@@@@##@@@@@@#",
"#@@@@@####@@@@@#",
"#@@@@######@@@@#",
"#@@@########@@@#",
"#@@@##@##@##@@@#",
"#@@@@@@##@@@@@@#",
"#@@@@@@##@@@@@@#",
"#@@@@@@##@@@@@@#",
"#@@@@@@@@@@@@@@#",
"#@@@@@@@@@@@@@@#",
"#@@@@@@@@@@@@@@#",
"################"};
