/* XPM */
static char * shade_toggled_inactive_xpm[] = {
"16 20 5 1",
" 	c None",
".	c #567B9C s inactive_mid_2",
"+	c #4B58A2 s inactive_shadow_2",
"@	c #4C7BA6 s inactive_color_2",
"#	c #949595 s inactive_shadow_2",
"                ",
"                ",
"                ",
"                ",
"################",
"#@@@@@@@@@@@@@@#",
"#@@@@@@@@@@@@@@#",
"#@@@@@@@@@@@@@@#",
"#@@@@@@##@@@@@@#",
"#@@@@@@##@@@@@@#",
"#@@@@@@##@@@@@@#",
"#@@@##@##@##@@@#",
"#@@@########@@@#",
"#@@@@######@@@@#",
"#@@@@@####@@@@@#",
"#@@@@@@##@@@@@@#",
"#@@@@@@@@@@@@@@#",
"#@@@@@@@@@@@@@@#",
"#@@@@@@@@@@@@@@#",
"################"};
