<?xml version="1.0" encoding="UTF-8" standalone="no"?>
<svg
   width="16"
   height="16"
   version="1.1"
   id="svg58860"
   sodipodi:docname="audio-volume-low.svg"
   inkscape:version="1.2.1 (9c6d41e410, 2022-07-14)"
   xmlns:inkscape="http://www.inkscape.org/namespaces/inkscape"
   xmlns:sodipodi="http://sodipodi.sourceforge.net/DTD/sodipodi-0.dtd"
   xmlns="http://www.w3.org/2000/svg"
   xmlns:svg="http://www.w3.org/2000/svg">
  <sodipodi:namedview
     id="namedview58862"
     pagecolor="#ffffff"
     bordercolor="#000000"
     borderopacity="0.25"
     inkscape:showpageshadow="2"
     inkscape:pageopacity="0.0"
     inkscape:pagecheckerboard="0"
     inkscape:deskcolor="#d1d1d1"
     showgrid="false"
     inkscape:zoom="16.046875"
     inkscape:cx="-9.1606621"
     inkscape:cy="10.313535"
     inkscape:current-layer="svg58860" />
  <defs
     id="defs58854">
    <style
       id="current-color-scheme"
       type="text/css">
   .ColorScheme-Text { color:#444444; } .ColorScheme-Highlight { color:#4285f4; }
  </style>
  </defs>
  <path
     d="M 9.967311,4.1256729"
     id="path880"
     style="fill:#000000;fill-opacity:1;stroke-width:0.964811" />
  <path
     d="M 9.967311,4.1256729 C 9.75249,4.1181329 9.530131,4.1822049 9.34546,4.3216502 9.09295,4.5138589 8.964812,4.8040558 8.964812,5.0980222 v 0.056532 c 0.01131,0.1846706 0.07161,0.3618042 0.192208,0.5163245 1.036419,1.3793782 1.036419,3.2713133 0,4.6469223 -0.120601,0.15829 -0.180901,0.335423 -0.192208,0.516325 v 0.0603 c 0,0.293966 0.128138,0.584163 0.380648,0.776372 0.425874,0.320347 1.028881,0.233664 1.349229,-0.192209 0.776371,-1.02888 1.164557,-2.2537384 1.164557,-3.4823656 0,-1.2286272 -0.388186,-2.4534852 -1.164557,-3.4861342 C 10.517555,4.272655 10.246202,4.1407469 9.967311,4.1256718 Z"
     id="path878"
     style="opacity:0.3;fill:#444444;fill-opacity:1;stroke-width:0.964811" />
  <path
     d="m 13.268774,2.177207 c -0.184671,-0.00377 -0.37311,0.052764 -0.538937,0.1620583 -0.440949,0.3015035 -0.557782,0.900741 -0.260048,1.3416905 1.760027,2.6117737 1.760027,6.0187637 0,8.6305372 -0.297734,0.44095 -0.180901,1.040187 0.260048,1.341691 0.440949,0.297734 1.040187,0.180901 1.341691,-0.260047 1.096719,-1.631887 1.646962,-3.5125163 1.646962,-5.3969123 0,-1.8843973 -0.550243,-3.7650255 -1.646962,-5.3969129 C 13.883087,2.3241901 13.577816,2.177207 13.268774,2.177207 Z"
     id="path876"
     style="opacity:0.3;fill:#444444;fill-opacity:1;stroke-width:0.964811" />
  <path
     d="M 7.03519,1.2500833 C 6.748761,1.2463133 6.477408,1.3706846 6.292738,1.5892751 L 3.175945,5.1017907 H 2.211134 c -1.055262,0 -1.929623,0.8140594 -1.929623,1.9296228 v 1.9296223 c 0,1.0514932 0.878129,1.9296222 1.929623,1.9296222 h 0.964811 l 3.116793,3.512516 c 0.203514,0.244971 0.474867,0.350498 0.742452,0.346729 z"
     id="path2"
     style="fill:#444444;fill-opacity:1;stroke-width:0.964811" />
</svg>
