<?xml version="1.0" encoding="UTF-8" standalone="no"?>
<svg
   width="16"
   height="16"
   version="1.1"
   id="svg9"
   sodipodi:docname="audio-recorder-on.svg"
   inkscape:version="1.2.1 (9c6d41e410, 2022-07-14)"
   xmlns:inkscape="http://www.inkscape.org/namespaces/inkscape"
   xmlns:sodipodi="http://sodipodi.sourceforge.net/DTD/sodipodi-0.dtd"
   xmlns="http://www.w3.org/2000/svg"
   xmlns:svg="http://www.w3.org/2000/svg">
  <sodipodi:namedview
     id="namedview11"
     pagecolor="#ffffff"
     bordercolor="#000000"
     borderopacity="0.25"
     inkscape:showpageshadow="2"
     inkscape:pageopacity="0.0"
     inkscape:pagecheckerboard="0"
     inkscape:deskcolor="#d1d1d1"
     showgrid="false"
     inkscape:zoom="64.1875"
     inkscape:cx="7.9922103"
     inkscape:cy="8.0155794"
     inkscape:current-layer="svg9" />
  <defs
     id="defs3">
    <style
       id="current-color-scheme"
       type="text/css">
   .ColorScheme-Text { color:#dfdfdf; } .ColorScheme-Highlight { color:#4285f4; } .ColorScheme-NeutralText { color:#ff9800; } .ColorScheme-PositiveText { color:#4caf50; } .ColorScheme-NegativeText { color:#f44336; }
  </style>
  </defs>
  <path
     style="fill:#4285f4;fill-opacity:1"
     class="ColorScheme-PositiveText"
     d="M 3.8339844,6.024672 C 3.3737473,6.024672 3,6.4164229 3,6.899672 2.9999003,6.932213 3.00251,6.964978 3.00586,6.997328 3.0576455,9.075757 4.7505832,10.874892 7,11.273438 V 12 H 5 c -0.554,0 -1,0.446 -1,1 0,0.554 0.446,1 1,1 H 10.564453 11 c 0.554,0 1,-0.446 1,-1 0,-0.554 -0.446,-1 -1,-1 H 9 v -0.726562 c 2.252569,-0.399125 3.948746,-2.203541 3.996094,-4.2858754 0.003,-0.028949 0.0037,-0.058771 0.0039,-0.087891 0,-0.4832491 -0.373747,-0.875 -0.833984,-0.875 -0.460237,6e-7 -0.832032,0.3917513 -0.832032,0.875 h -0.01367 C 11.250704,8.7089848 10.144502,9.625 8,9.625 5.8553352,9.625 4.7492888,8.7089848 4.6796875,6.899672 h -0.013672 c 0,-0.4832495 -0.3717939,-0.8750005 -0.8320311,-0.875 z"
     id="path5" />
  <rect
     style="fill:#4285f4;fill-opacity:1"
     class="ColorScheme-PositiveText"
     width="8"
     height="6"
     x="-9"
     y="-11"
     rx="3.334"
     ry="3"
     transform="matrix(0,-1,-1,0,0,0)"
     id="rect7" />
</svg>
