<?xml version="1.0" encoding="UTF-8" standalone="no"?>
<svg
   width="16"
   height="16"
   version="1.1"
   id="svg7"
   sodipodi:docname="audio-volume-muted-blocking.svg"
   xml:space="preserve"
   inkscape:version="1.2.1 (9c6d41e410, 2022-07-14)"
   xmlns:inkscape="http://www.inkscape.org/namespaces/inkscape"
   xmlns:sodipodi="http://sodipodi.sourceforge.net/DTD/sodipodi-0.dtd"
   xmlns="http://www.w3.org/2000/svg"
   xmlns:svg="http://www.w3.org/2000/svg"><sodipodi:namedview
     id="namedview9"
     pagecolor="#ffffff"
     bordercolor="#000000"
     borderopacity="0.25"
     inkscape:showpageshadow="2"
     inkscape:pageopacity="0.0"
     inkscape:pagecheckerboard="0"
     inkscape:deskcolor="#d1d1d1"
     showgrid="false"
     inkscape:zoom="22.693708"
     inkscape:cx="-10.928139"
     inkscape:cy="3.2828482"
     inkscape:current-layer="svg7" /><defs
     id="defs3"><style
       id="current-color-scheme"
       type="text/css">
   .ColorScheme-Text { color:#444444; } .ColorScheme-Highlight { color:#4285f4; }
  </style><style
       id="current-color-scheme-3"
       type="text/css">
   .ColorScheme-Text { color:#444444; } .ColorScheme-Highlight { color:#4285f4; }
  </style></defs><path
     d="m 7.0351893,1.2500832 c -0.286429,-0.00377 -0.557782,0.1206014 -0.742453,0.3391919 l -3.116792,3.5125158 h -0.964811 c -1.055263,0 -1.929623,0.8140594 -1.929623,1.9296224 v 1.9296223 c 0,1.0514934 0.878129,1.9296224 1.929623,1.9296224 h 0.964811 l 3.116792,3.512516 c 0.203515,0.244971 0.474868,0.350497 0.742453,0.346729 z M 13.268775,2.177207 c -0.184672,-0.00377 -0.373111,0.052764 -0.538938,0.1620583 -0.440949,0.3015035 -0.557781,0.900741 -0.260047,1.3416906 1.760027,2.6117739 1.760027,6.0187632 0,8.6305371 -0.297734,0.440949 -0.180902,1.040187 0.260047,1.34169 0.440949,0.297735 1.040187,0.180903 1.341691,-0.260046 1.096719,-1.631887 1.646962,-3.5125158 1.646962,-5.3969126 0,-1.8843967 -0.550243,-3.7650251 -1.646962,-5.3969125 C 13.883088,2.3241902 13.577816,2.177207 13.268775,2.177207 Z M 9.9673103,4.125673 c -0.214821,-0.00754 -0.43718,0.056532 -0.621851,0.1959773 -0.25251,0.1922087 -0.380648,0.4824056 -0.380648,0.776372 v 0.056532 c 0.01131,0.1846707 0.07161,0.3618042 0.192209,0.5163245 1.0364177,1.3793781 1.0364177,3.2713129 0,4.6469222 -0.120602,0.158289 -0.180902,0.335423 -0.192209,0.516325 v 0.0603 c 0,0.293967 0.128138,0.584164 0.380648,0.776372 0.425874,0.320348 1.0288807,0.233665 1.3492287,-0.192208 0.776372,-1.028881 1.164558,-2.2537385 1.164558,-3.4823657 0,-1.2286271 -0.388186,-2.4534849 -1.164558,-3.4861339 C 10.517554,4.2726562 10.246201,4.1407482 9.9673103,4.125673 Z m 0,0"
     fill="#2e3436"
     id="path2"
     style="fill:#4285f4;fill-opacity:1;stroke-width:0.964811" /></svg>
