<?xml version="1.0" encoding="UTF-8" standalone="no"?>
<!-- Created with Inkscape (http://www.inkscape.org/) -->

<svg
   id="svg7384"
   height="16"
   width="16"
   version="1.1"
   sodipodi:docname="battery-full-charging.svg"
   inkscape:version="1.2.1 (9c6d41e410, 2022-07-14)"
   xmlns:inkscape="http://www.inkscape.org/namespaces/inkscape"
   xmlns:sodipodi="http://sodipodi.sourceforge.net/DTD/sodipodi-0.dtd"
   xmlns="http://www.w3.org/2000/svg"
   xmlns:svg="http://www.w3.org/2000/svg"
   xmlns:rdf="http://www.w3.org/1999/02/22-rdf-syntax-ns#"
   xmlns:cc="http://creativecommons.org/ns#"
   xmlns:dc="http://purl.org/dc/elements/1.1/">
  <defs
     id="defs12" />
  <sodipodi:namedview
     pagecolor="#ffffff"
     bordercolor="#666666"
     borderopacity="1"
     objecttolerance="10"
     gridtolerance="10"
     guidetolerance="10"
     inkscape:pageopacity="0"
     inkscape:pageshadow="2"
     inkscape:window-width="1366"
     inkscape:window-height="704"
     id="namedview10"
     showgrid="false"
     inkscape:zoom="14.75"
     inkscape:cx="-21.288136"
     inkscape:cy="2.2711864"
     inkscape:window-x="0"
     inkscape:window-y="30"
     inkscape:window-maximized="1"
     inkscape:current-layer="layer9"
     inkscape:showpageshadow="2"
     inkscape:pagecheckerboard="0"
     inkscape:deskcolor="#d1d1d1" />
  <metadata
     id="metadata90">
    <rdf:RDF>
      <cc:Work
         rdf:about="">
        <dc:format>image/svg+xml</dc:format>
        <dc:type
           rdf:resource="http://purl.org/dc/dcmitype/StillImage" />
        <dc:title>Gnome Symbolic Icon Theme</dc:title>
      </cc:Work>
    </rdf:RDF>
  </metadata>
  <title
     id="title9167">Gnome Symbolic Icon Theme</title>
  <g
     id="layer9"
     transform="rotate(90,137.0003,95.998825)">
    <g
       id="g856">
      <path
         id="path250"
         style="fill:#444444;fill-opacity:1;stroke-width:0.842105"
         d="m 43.948843,230.47281 c 0,1.39284 1.133475,2.52631 2.526316,2.52631 h 5.052631 c 1.392841,0 2.526316,-1.13347 2.526316,-2.52631 v -9.26316 c 0,-1.39284 -1.133475,-2.52631 -2.526316,-2.52631 0,-0.92969 -0.754527,-1.68422 -1.68421,-1.68422 h -1.684211 c -0.929683,0 -1.68421,0.75453 -1.68421,1.68422 -1.392841,0 -2.526316,1.13347 -2.526316,2.52631 z m 1.68421,0 v -9.26316 c 0,-0.464 0.377264,-0.8421 0.842106,-0.8421 h 5.052631 c 0.464841,0 0.842105,0.3781 0.842105,0.8421 v 9.26316 c 0,0.464 -0.377264,0.8421 -0.842105,0.8421 h -5.052631 c -0.464842,0 -0.842106,-0.3781 -0.842106,-0.8421 z" />
      <path
         id="path237"
         style="fill:#4285f4;fill-opacity:1;stroke-width:0.842105"
         d="m 46.475159,230.47281 h 5.052631 v -9.26316 h -5.052631 z m 0.929276,-4.39802 1.597039,-0.99014 -0.363487,-2.19079 1.970395,2.66941 -1.606908,1.01974 0.360197,2.20559 z" />
    </g>
  </g>
</svg>
