<?xml version="1.0" encoding="UTF-8" standalone="no"?>
<!-- Created with Inkscape (http://www.inkscape.org/) -->

<svg
   id="svg7384"
   height="16"
   width="16"
   version="1.1"
   sodipodi:docname="battery-caution-charging.svg"
   inkscape:version="1.2.1 (9c6d41e410, 2022-07-14)"
   xmlns:inkscape="http://www.inkscape.org/namespaces/inkscape"
   xmlns:sodipodi="http://sodipodi.sourceforge.net/DTD/sodipodi-0.dtd"
   xmlns="http://www.w3.org/2000/svg"
   xmlns:svg="http://www.w3.org/2000/svg"
   xmlns:rdf="http://www.w3.org/1999/02/22-rdf-syntax-ns#"
   xmlns:cc="http://creativecommons.org/ns#"
   xmlns:dc="http://purl.org/dc/elements/1.1/">
  <defs
     id="defs12" />
  <sodipodi:namedview
     pagecolor="#ffffff"
     bordercolor="#666666"
     borderopacity="1"
     objecttolerance="10"
     gridtolerance="10"
     guidetolerance="10"
     inkscape:pageopacity="0"
     inkscape:pageshadow="2"
     inkscape:window-width="1366"
     inkscape:window-height="704"
     id="namedview10"
     showgrid="false"
     inkscape:zoom="14.75"
     inkscape:cx="-14.644068"
     inkscape:cy="4.779661"
     inkscape:window-x="0"
     inkscape:window-y="30"
     inkscape:window-maximized="1"
     inkscape:current-layer="layer9"
     inkscape:showpageshadow="2"
     inkscape:pagecheckerboard="0"
     inkscape:deskcolor="#d1d1d1" />
  <metadata
     id="metadata90">
    <rdf:RDF>
      <cc:Work
         rdf:about="">
        <dc:format>image/svg+xml</dc:format>
        <dc:type
           rdf:resource="http://purl.org/dc/dcmitype/StillImage" />
        <dc:title>Gnome Symbolic Icon Theme</dc:title>
      </cc:Work>
    </rdf:RDF>
  </metadata>
  <title
     id="title9167">Gnome Symbolic Icon Theme</title>
  <g
     id="layer9"
     transform="rotate(90,137.0003,95.998825)">
    <g
       id="g885">
      <path
         id="path310"
         style="fill:#444444;fill-opacity:1;stroke-width:0.842104"
         d="m 43.948843,230.47281 c 0,1.39284 1.133476,2.52631 2.526316,2.52631 h 5.052632 c 1.39284,0 2.526315,-1.13347 2.526315,-2.52631 v -9.26316 c 0,-1.39284 -1.133475,-2.52632 -2.526315,-2.52632 0,-0.92968 -0.754528,-1.68421 -1.684211,-1.68421 h -1.68421 c -0.929684,0 -1.684211,0.75453 -1.684211,1.68421 -1.39284,0 -2.526316,1.13348 -2.526316,2.52632 z m 1.684211,0 v -9.26316 c 0,-0.464 0.377264,-0.84211 0.842105,-0.84211 h 5.052632 c 0.464842,0 0.842105,0.37811 0.842105,0.84211 v 9.26316 c 0,0.464 -0.377263,0.8421 -0.842105,0.8421 h -5.052632 c -0.464841,0 -0.842105,-0.3781 -0.842105,-0.8421 z" />
      <path
         d="m 50.607905,225.56344 -1.606737,1.01895 0.360421,2.20632 -1.957052,-2.71411 1.596631,-0.98948 -0.362105,-2.19115 z"
         id="path308"
         style="fill:#0066cc;fill-opacity:1;stroke-width:0.842104" />
    </g>
  </g>
</svg>
