<?xml version="1.0" encoding="UTF-8" standalone="no"?>
<svg
   width="16"
   height="16"
   version="1.1"
   id="svg7"
   sodipodi:docname="camera-off.svg"
   inkscape:version="1.2.1 (9c6d41e410, 2022-07-14)"
   xmlns:inkscape="http://www.inkscape.org/namespaces/inkscape"
   xmlns:sodipodi="http://sodipodi.sourceforge.net/DTD/sodipodi-0.dtd"
   xmlns="http://www.w3.org/2000/svg"
   xmlns:svg="http://www.w3.org/2000/svg">
  <sodipodi:namedview
     id="namedview9"
     pagecolor="#ffffff"
     bordercolor="#000000"
     borderopacity="0.25"
     inkscape:showpageshadow="2"
     inkscape:pageopacity="0.0"
     inkscape:pagecheckerboard="0"
     inkscape:deskcolor="#d1d1d1"
     showgrid="false"
     inkscape:zoom="65.8125"
     inkscape:cx="7.9924027"
     inkscape:cy="8.0151947"
     inkscape:current-layer="svg7" />
  <defs
     id="defs3">
    <style
       id="current-color-scheme"
       type="text/css">
   .ColorScheme-Text { color:#dfdfdf; } .ColorScheme-Highlight { color:#4285f4; } .ColorScheme-NeutralText { color:#ff9800; } .ColorScheme-PositiveText { color:#4caf50; } .ColorScheme-NegativeText { color:#f44336; }
  </style>
  </defs>
  <path
     style="opacity:0.3;fill:#444444;fill-opacity:1"
     class="ColorScheme-Text"
     d="M 2.40625,1 1,2.40625 2.7324219,4.1464844 C 2.2692068,4.9951009 2,5.9646164 2,7 2,9.087 3.0708,10.925 4.6875,12 H 4 c -2,0 -2,2 -2,2 v 1 H 13.585938 L 14.59375,16 16,14.59375 12.439453,11.025391 9.6054688,8.1914062 6.8125,5.3984375 3.9746094,2.5605469 Z M 8,1 C 7.1848953,1 6.4077568,1.1625986 5.6992188,1.4570312 L 13.537109,9.2949219 C 13.831828,8.5869736 14,7.8142921 14,7 14,3.6863 11.314,1 8,1 Z M 6.0566406,7.4707031 7.5332031,8.9472656 C 6.8027455,8.7714861 6.2324201,8.2011607 6.0566406,7.4707031 Z"
     id="path5" />
</svg>
