<?xml version="1.0" encoding="UTF-8" standalone="no"?>
<svg
   width="16"
   height="16"
   version="1.1"
   id="svg7"
   sodipodi:docname="fcitx-mozc-katakana-full.svg"
   inkscape:version="1.2.1 (9c6d41e410, 2022-07-14)"
   xmlns:inkscape="http://www.inkscape.org/namespaces/inkscape"
   xmlns:sodipodi="http://sodipodi.sourceforge.net/DTD/sodipodi-0.dtd"
   xmlns="http://www.w3.org/2000/svg"
   xmlns:svg="http://www.w3.org/2000/svg">
  <sodipodi:namedview
     id="namedview9"
     pagecolor="#ffffff"
     bordercolor="#000000"
     borderopacity="0.25"
     inkscape:showpageshadow="2"
     inkscape:pageopacity="0.0"
     inkscape:pagecheckerboard="0"
     inkscape:deskcolor="#d1d1d1"
     showgrid="false"
     inkscape:zoom="65.8125"
     inkscape:cx="7.9924027"
     inkscape:cy="8.0151947"
     inkscape:current-layer="svg7" />
  <defs
     id="defs3">
    <style
       id="current-color-scheme"
       type="text/css">
   .ColorScheme-Text { color:#dfdfdf; } .ColorScheme-Highlight { color:#4285f4; } .ColorScheme-NeutralText { color:#ff9800; } .ColorScheme-PositiveText { color:#4caf50; } .ColorScheme-NegativeText { color:#f44336; }
  </style>
  </defs>
  <path
     style="fill:#444444;fill-opacity:1"
     class="ColorScheme-Text"
     d="M 2 0 C 0.892 0 0 0.892 0 2 L 0 14 C 0 15.108 0.892 16 2 16 L 14 16 C 15.108 16 16 15.108 16 14 L 16 2 C 16 0.892 15.108 0 14 0 L 2 0 z M 3 3 L 12.900391 3 C 13.258835 2.9995787 13.501296 3.3653257 13.361328 3.6953125 C 12.323602 6.1512204 10.854207 7.9109492 9.234375 9.3710938 L 8.5664062 8.6289062 C 9.9345257 7.3956604 11.104685 5.9033594 12.041016 4 L 3 4 L 3 3 z M 7 5.9980469 L 8 6.0019531 C 7.9949307 7.4712076 8.1029182 8.9377274 7.7070312 10.341797 C 7.3111446 11.745866 6.3625255 13.045562 4.4296875 14.046875 L 3.9707031 13.160156 C 5.7186844 12.254609 6.4147644 11.24542 6.7460938 10.070312 C 7.0774231 8.8952055 6.99478 7.5120486 7 5.9980469 z"
     id="path5" />
</svg>
