<?xml version="1.0" encoding="UTF-8" standalone="no"?>
<svg
   width="16"
   height="16"
   version="1.1"
   id="svg7"
   sodipodi:docname="fcitx-mozc-properties.svg"
   inkscape:version="1.2.1 (9c6d41e410, 2022-07-14)"
   xmlns:inkscape="http://www.inkscape.org/namespaces/inkscape"
   xmlns:sodipodi="http://sodipodi.sourceforge.net/DTD/sodipodi-0.dtd"
   xmlns="http://www.w3.org/2000/svg"
   xmlns:svg="http://www.w3.org/2000/svg">
  <sodipodi:namedview
     id="namedview9"
     pagecolor="#ffffff"
     bordercolor="#000000"
     borderopacity="0.25"
     inkscape:showpageshadow="2"
     inkscape:pageopacity="0.0"
     inkscape:pagecheckerboard="0"
     inkscape:deskcolor="#d1d1d1"
     showgrid="false"
     inkscape:zoom="65.8125"
     inkscape:cx="7.9924027"
     inkscape:cy="8.0151947"
     inkscape:current-layer="svg7" />
  <defs
     id="defs3">
    <style
       id="current-color-scheme"
       type="text/css">
   .ColorScheme-Text { color:#dfdfdf; } .ColorScheme-Highlight { color:#4285f4; } .ColorScheme-NeutralText { color:#ff9800; } .ColorScheme-PositiveText { color:#4caf50; } .ColorScheme-NegativeText { color:#f44336; }
  </style>
  </defs>
  <path
     style="fill:#444444;fill-opacity:1"
     class="ColorScheme-Text"
     d="M 6.0019531 0 L 5.8261719 2.1074219 A 6.2848373 6.2848373 0 0 0 3.9902344 3.1699219 L 2.0742188 2.2675781 L 0.07421875 5.7304688 L 1.8125 6.9394531 A 6.2848373 6.2848373 0 0 0 1.7167969 7.9980469 A 6.2848373 6.2848373 0 0 0 1.8085938 9.0625 L 0.07421875 10.265625 L 2.0742188 13.730469 L 3.984375 12.830078 A 6.2848373 6.2848373 0 0 0 5.8261719 13.886719 L 5.9980469 16 L 9.9980469 16 L 10.173828 13.892578 A 6.2848373 6.2848373 0 0 0 12.009766 12.830078 L 13.925781 13.732422 L 15.925781 10.269531 L 14.1875 9.0605469 A 6.2848373 6.2848373 0 0 0 14.283203 8.0019531 A 6.2848373 6.2848373 0 0 0 14.191406 6.9375 L 15.925781 5.734375 L 13.925781 2.2695312 L 12.015625 3.1699219 A 6.2848373 6.2848373 0 0 0 10.173828 2.1132812 L 10.001953 0 L 6.0019531 0 z M 8 5 A 2.9999994 2.9999994 0 0 1 11 8 A 2.9999994 2.9999994 0 0 1 8 11 A 2.9999994 2.9999994 0 0 1 5 8 A 2.9999994 2.9999994 0 0 1 8 5 z"
     id="path5" />
</svg>
