<?xml version="1.0" encoding="UTF-8" standalone="no"?>
<svg
   width="16"
   height="16"
   version="1.1"
   id="svg7"
   sodipodi:docname="google-tasks-indicator-light-normal.svg"
   xml:space="preserve"
   inkscape:version="1.2.1 (9c6d41e410, 2022-07-14)"
   xmlns:inkscape="http://www.inkscape.org/namespaces/inkscape"
   xmlns:sodipodi="http://sodipodi.sourceforge.net/DTD/sodipodi-0.dtd"
   xmlns="http://www.w3.org/2000/svg"
   xmlns:svg="http://www.w3.org/2000/svg"><sodipodi:namedview
     id="namedview9"
     pagecolor="#ffffff"
     bordercolor="#000000"
     borderopacity="0.25"
     inkscape:showpageshadow="2"
     inkscape:pageopacity="0.0"
     inkscape:pagecheckerboard="0"
     inkscape:deskcolor="#d1d1d1"
     showgrid="false"
     inkscape:zoom="11.634116"
     inkscape:cx="-4.6415215"
     inkscape:cy="13.967542"
     inkscape:current-layer="svg7" /><defs
     id="defs3"><style
       id="current-color-scheme"
       type="text/css">
   .ColorScheme-Text { color:#dfdfdf; } .ColorScheme-Highlight { color:#4285f4; }
  </style></defs><path
     fill="#000000"
     fill-rule="evenodd"
     d="m 2.311115,3.3777693 h 5.777789 c 0.638191,0 1.155558,-0.5173663 1.155558,-1.1555576 0,-0.6381914 -0.517367,-1.1555577 -1.155558,-1.1555577 H 2.311115 C 1.034721,1.066654 0,2.101375 0,3.3777693 v 9.2444617 c 0,1.276429 1.034721,2.311115 2.311115,2.311115 h 9.244462 c 1.276429,0 2.311115,-1.034686 2.311115,-2.311115 v -2.311115 c 0,-0.638203 -0.517343,-1.155558 -1.155557,-1.155558 -0.638215,0 -1.155558,0.517355 -1.155558,1.155558 v 2.311115 H 2.311115 Z m 12.950451,-1.972664 c -0.451245,-0.45126845 -1.182944,-0.45126845 -1.63419,0 L 7.511125,7.5213565 6.594895,6.6051148 c -0.45128,-0.4512684 -1.182933,-0.4512684 -1.634213,0 -0.451268,0.45128 -0.451268,1.1829329 0,1.6342128 L 6.694019,9.972664 c 0.216713,0.216702 0.510629,0.338452 0.817106,0.338452 0.306477,0 0.600393,-0.12175 0.817106,-0.338452 l 6.933335,-6.933346 c 0.451245,-0.4512798 0.451245,-1.1829328 0,-1.6342127 z"
     id="path2678"
     style="fill:#444444;fill-opacity:1;stroke-width:1.15556" /></svg>
