<?xml version="1.0" encoding="UTF-8" standalone="no"?>
<svg
   width="16"
   height="16"
   version="1.1"
   id="svg9"
   sodipodi:docname="gpm-brightness-lcd-invalid.svg"
   inkscape:version="1.2.1 (9c6d41e410, 2022-07-14)"
   xmlns:inkscape="http://www.inkscape.org/namespaces/inkscape"
   xmlns:sodipodi="http://sodipodi.sourceforge.net/DTD/sodipodi-0.dtd"
   xmlns="http://www.w3.org/2000/svg"
   xmlns:svg="http://www.w3.org/2000/svg">
  <sodipodi:namedview
     id="namedview11"
     pagecolor="#ffffff"
     bordercolor="#000000"
     borderopacity="0.25"
     inkscape:showpageshadow="2"
     inkscape:pageopacity="0.0"
     inkscape:pagecheckerboard="0"
     inkscape:deskcolor="#d1d1d1"
     showgrid="false"
     inkscape:zoom="65.8125"
     inkscape:cx="7.9924027"
     inkscape:cy="8.0151947"
     inkscape:current-layer="svg9" />
  <defs
     id="defs3">
    <style
       id="current-color-scheme"
       type="text/css">
   .ColorScheme-Text { color:#dfdfdf; } .ColorScheme-Highlight { color:#4285f4; } .ColorScheme-NeutralText { color:#ff9800; } .ColorScheme-PositiveText { color:#4caf50; } .ColorScheme-NegativeText { color:#f44336; }
  </style>
  </defs>
  <path
     style="opacity:0.3;fill:#444444;fill-opacity:1"
     class="ColorScheme-Text"
     d="M 8.00015,0.721 5.81065,3.0003 H 3.0001499 V 5.8107999 L 0.72085,8.0002999 3.0001499,10.221 V 13 H 5.81065 l 2.1895,2.279 2.221,-2.279 h 2.779 v -2.779 l 2.279,-2.2207001 -2.279,-2 V 3.0003 h -2.779 z m 0,3.2793 c 2.21,0 4,1.7899999 4,3.9999999 C 12.00015,10.21 10.21015,12 8.00015,12 5.7901499,12 4.0001499,10.21 4.0001499,8.0002999 c 0,-2.21 1.79,-3.9999999 4.0000001,-3.9999999 z"
     id="path5" />
  <path
     style="fill:currentColor"
     class="ColorScheme-NegativeText"
     d="m 7,4.9999999 v 4 h 2 v -4 z m 0,5 V 11 H 9 V 9.9999999 Z"
     id="path7" />
</svg>
