<?xml version="1.0" encoding="UTF-8" standalone="no"?>
<svg
   width="16"
   height="16"
   version="1.1"
   id="svg7"
   sodipodi:docname="heroic-tray.svg"
   inkscape:version="1.2.1 (9c6d41e410, 2022-07-14)"
   xmlns:inkscape="http://www.inkscape.org/namespaces/inkscape"
   xmlns:sodipodi="http://sodipodi.sourceforge.net/DTD/sodipodi-0.dtd"
   xmlns="http://www.w3.org/2000/svg"
   xmlns:svg="http://www.w3.org/2000/svg">
  <sodipodi:namedview
     id="namedview9"
     pagecolor="#ffffff"
     bordercolor="#000000"
     borderopacity="0.25"
     inkscape:showpageshadow="2"
     inkscape:pageopacity="0.0"
     inkscape:pagecheckerboard="0"
     inkscape:deskcolor="#d1d1d1"
     showgrid="false"
     inkscape:zoom="65.8125"
     inkscape:cx="7.9924027"
     inkscape:cy="8.0151947"
     inkscape:current-layer="svg7" />
  <defs
     id="defs3">
    <style
       id="current-color-scheme"
       type="text/css">
   .ColorScheme-Text { color:#dfdfdf; } .ColorScheme-Highlight { color:#4285f4; } .ColorScheme-NeutralText { color:#ff9800; } .ColorScheme-PositiveText { color:#4caf50; } .ColorScheme-NegativeText { color:#f44336; }
  </style>
  </defs>
  <path
     style="fill:#444444;fill-opacity:1"
     class="ColorScheme-Text"
     d="M 8.5,1.0004531 2,3.1098281 5.3203125,13.537109 8.5,16 11.679688,13.537109 15,3.1098281 Z m -0.0059,0.5 L 10,3.3715469 9.242188,11.085938 8.5,12 7.751953,11.080078 7,3.3695937 Z M 6.060547,11.5 7.671875,11.78125 8,12.25 7.671875,12.716797 6.064453,13 5.75,12.248047 Z m 4.880859,0 L 11.25,12.248047 10.935547,13 9.328125,12.716797 9,12.25 9.328125,11.78125 Z M 8.501953,12.75 8.96875,13.078125 9.25,14.689453 8.503906,15 7.75,14.685547 8.035156,13.078125 Z"
     id="path5" />
</svg>
