<?xml version="1.0" encoding="UTF-8" standalone="no"?>
<svg
   width="16"
   height="16"
   version="1.1"
   id="svg9"
   sodipodi:docname="indicator-keyboard-Gr.svg"
   inkscape:version="1.2.1 (9c6d41e410, 2022-07-14)"
   xmlns:inkscape="http://www.inkscape.org/namespaces/inkscape"
   xmlns:sodipodi="http://sodipodi.sourceforge.net/DTD/sodipodi-0.dtd"
   xmlns="http://www.w3.org/2000/svg"
   xmlns:svg="http://www.w3.org/2000/svg">
  <sodipodi:namedview
     id="namedview11"
     pagecolor="#ffffff"
     bordercolor="#000000"
     borderopacity="0.25"
     inkscape:showpageshadow="2"
     inkscape:pageopacity="0.0"
     inkscape:pagecheckerboard="0"
     inkscape:deskcolor="#d1d1d1"
     showgrid="false"
     inkscape:zoom="65.8125"
     inkscape:cx="7.9924027"
     inkscape:cy="8.0151947"
     inkscape:current-layer="svg9" />
  <defs
     id="defs3">
    <style
       id="current-color-scheme"
       type="text/css">
   .ColorScheme-Text { color:#dfdfdf; } .ColorScheme-Highlight { color:#4285f4; } .ColorScheme-NeutralText { color:#ff9800; } .ColorScheme-PositiveText { color:#4caf50; } .ColorScheme-NegativeText { color:#f44336; }
  </style>
  </defs>
  <path
     style="fill:none;stroke:#444444;stroke-width:2;stroke-linecap:round;stroke-linejoin:bevel;stroke-opacity:1"
     class="ColorScheme-Text"
     d="m 5.0003317,8.999735 h 1.9999971 m -0.9999984,0 -1.13e-5,2.000448 c 0,1 0,1 -1.0000025,0.999552 -0.407777,0 -1.7015092,4.48e-4 -1.9999974,4.48e-4 -1.0000024,0 -1.0000024,0 -1.0000024,-1 l 1.51e-5,-3.00045 -1.51e-5,-2.9995494 c 0,-1 0,-1 1.0000024,-1 0.2508095,0 1.6159785,-3.629e-4 1.9999974,-4.492e-4 1.0000025,4.492e-4 1.0000025,4.492e-4 1.0000025,1.0004492"
     id="path5" />
  <path
     style="fill:none;stroke:#444444;stroke-width:2;stroke-linecap:round;stroke-opacity:1"
     class="ColorScheme-Text"
     d="M 15.000002,11.999822 13.000001,8.999823 M 11,7.999821 l 1.999982,-4e-6 c 0.423836,-1e-6 0.729048,4.55e-4 1.00001,4.55e-4 0.999999,0 0.999999,0 0.999999,-1.000001 0,-0.2567204 1.5e-5,-0.5997726 1.1e-5,-1.0004478 l -1.1e-5,-0.9995519 c 0,-1 0,-1 -0.999999,-1 -0.224504,0 -0.544112,0.00944 -0.874519,0.00719 C 11.999983,3.9998113 11,3.9999013 11,3.9999013 M 11.000098,12 V 3.9999996"
     id="path7" />
</svg>
