<?xml version="1.0" encoding="UTF-8" standalone="no"?>
<svg
   width="16"
   height="16"
   version="1.1"
   id="svg9"
   sodipodi:docname="indicator-keyboard-Xs.svg"
   inkscape:version="1.2.1 (9c6d41e410, 2022-07-14)"
   xmlns:inkscape="http://www.inkscape.org/namespaces/inkscape"
   xmlns:sodipodi="http://sodipodi.sourceforge.net/DTD/sodipodi-0.dtd"
   xmlns="http://www.w3.org/2000/svg"
   xmlns:svg="http://www.w3.org/2000/svg">
  <sodipodi:namedview
     id="namedview11"
     pagecolor="#ffffff"
     bordercolor="#000000"
     borderopacity="0.25"
     inkscape:showpageshadow="2"
     inkscape:pageopacity="0.0"
     inkscape:pagecheckerboard="0"
     inkscape:deskcolor="#d1d1d1"
     showgrid="false"
     inkscape:zoom="65.8125"
     inkscape:cx="7.9924027"
     inkscape:cy="8.0151947"
     inkscape:current-layer="svg9" />
  <defs
     id="defs3">
    <style
       id="current-color-scheme"
       type="text/css">
   .ColorScheme-Text { color:#dfdfdf; } .ColorScheme-Highlight { color:#4285f4; } .ColorScheme-NeutralText { color:#ff9800; } .ColorScheme-PositiveText { color:#4caf50; } .ColorScheme-NegativeText { color:#f44336; }
  </style>
  </defs>
  <path
     style="fill:none;stroke:#444444;stroke-width:2;stroke-linecap:round;stroke-opacity:1"
     class="ColorScheme-Text"
     d="M 7.0000016,4 2,12 m 0,-8 5.0000016,8"
     id="path5" />
  <path
     style="fill:none;stroke:#444444;stroke-width:2;stroke-linecap:round;stroke-linejoin:round;stroke-opacity:1"
     class="ColorScheme-Text"
     d="m 11.000051,11.000066 c 0,1 0,1 0.999998,1 0.359093,0 0.425299,2.17e-4 1.00001,3.1e-5 0.454553,-1.1e-4 -1.1e-5,-3.1e-5 0.999992,-3.1e-5 0,0 0.999991,0 0.999998,-1 l 8e-6,-1.00045 c 0,-4.2143841 -3.999999,0.211162 -3.988018,-3.9907041 -0.0025,-0.4205455 -0.01209,-0.7453845 -0.01209,-1.0088458 0,-0.9999999 0.999999,-0.9999999 0.999999,-0.9999999 0.251868,0 0.631707,-4.499e-4 1.00001,-4.492e-4 0.347679,0 0.741252,4.492e-4 0.999991,4.492e-4 0.999999,0 0.999999,0 0.999999,0.9999999"
     id="path7" />
</svg>
