<?xml version="1.0" encoding="UTF-8" standalone="no"?>
<svg
   width="16"
   height="16"
   version="1.1"
   id="svg9"
   sodipodi:docname="indicator-keyboard-Gu.svg"
   inkscape:version="1.2.1 (9c6d41e410, 2022-07-14)"
   xmlns:inkscape="http://www.inkscape.org/namespaces/inkscape"
   xmlns:sodipodi="http://sodipodi.sourceforge.net/DTD/sodipodi-0.dtd"
   xmlns="http://www.w3.org/2000/svg"
   xmlns:svg="http://www.w3.org/2000/svg">
  <sodipodi:namedview
     id="namedview11"
     pagecolor="#ffffff"
     bordercolor="#000000"
     borderopacity="0.25"
     inkscape:showpageshadow="2"
     inkscape:pageopacity="0.0"
     inkscape:pagecheckerboard="0"
     inkscape:deskcolor="#d1d1d1"
     showgrid="false"
     inkscape:zoom="65.8125"
     inkscape:cx="7.9924027"
     inkscape:cy="8.0151947"
     inkscape:current-layer="svg9" />
  <defs
     id="defs3">
    <style
       id="current-color-scheme"
       type="text/css">
   .ColorScheme-Text { color:#dfdfdf; } .ColorScheme-Highlight { color:#4285f4; } .ColorScheme-NeutralText { color:#ff9800; } .ColorScheme-PositiveText { color:#4caf50; } .ColorScheme-NegativeText { color:#f44336; }
  </style>
  </defs>
  <path
     style="fill:none;stroke:#444444;stroke-width:2;stroke-linecap:round;stroke-linejoin:bevel;fill-opacity:1;stroke-opacity:1"
     class="ColorScheme-Text"
     d="m 5.0003317,8.999735 h 1.9999971 m -0.9999984,0 -1.13e-5,2.000448 c 0,1 0,1 -1.0000025,0.999552 -0.407777,0 -1.7015092,4.48e-4 -1.9999974,4.48e-4 -1.0000024,0 -1.0000024,0 -1.0000024,-1 l 1.51e-5,-3.00045 -1.51e-5,-2.9995494 c 0,-1 0,-1 1.0000024,-1 0.2508095,0 1.6159785,-3.629e-4 1.9999974,-4.492e-4 1.0000025,4.492e-4 1.0000025,4.492e-4 1.0000025,1.0004492"
     id="path5" />
  <path
     style="fill:none;stroke:#444444;stroke-width:2;stroke-linecap:round;stroke-linejoin:bevel;fill-opacity:1;stroke-opacity:1"
     class="ColorScheme-Text"
     d="m 15.001901,3.9953573 -4e-6,5.9999999 c 0,1.0004488 -4e-6,2.0004488 -1.000006,2.0004488 -0.395448,0 -0.610938,0.0096 -0.999991,-4.48e-4 -0.383857,0.0015 -8e-6,4.48e-4 -1.000007,4.48e-4 -1.000002,0 -0.999995,-1 -0.999995,-2.0004488 l 4e-6,-5.9999999"
     id="path7" />
</svg>
