<?xml version="1.0" encoding="UTF-8" standalone="no"?>
<svg
   width="16"
   height="16"
   version="1.1"
   id="svg9"
   sodipodi:docname="insync-paused.svg"
   inkscape:version="1.2.1 (9c6d41e410, 2022-07-14)"
   xmlns:inkscape="http://www.inkscape.org/namespaces/inkscape"
   xmlns:sodipodi="http://sodipodi.sourceforge.net/DTD/sodipodi-0.dtd"
   xmlns="http://www.w3.org/2000/svg"
   xmlns:svg="http://www.w3.org/2000/svg">
  <sodipodi:namedview
     id="namedview11"
     pagecolor="#ffffff"
     bordercolor="#000000"
     borderopacity="0.25"
     inkscape:showpageshadow="2"
     inkscape:pageopacity="0.0"
     inkscape:pagecheckerboard="0"
     inkscape:deskcolor="#d1d1d1"
     showgrid="false"
     inkscape:zoom="65.8125"
     inkscape:cx="7.9924027"
     inkscape:cy="8.0151947"
     inkscape:current-layer="svg9" />
  <defs
     id="defs3">
    <style
       id="current-color-scheme"
       type="text/css">
   .ColorScheme-Text { color:#dfdfdf; } .ColorScheme-Highlight { color:#4285f4; } .ColorScheme-NeutralText { color:#ff9800; } .ColorScheme-PositiveText { color:#4caf50; } .ColorScheme-NegativeText { color:#f44336; }
  </style>
  </defs>
  <path
     style="fill:#444444;fill-opacity:1"
     class="ColorScheme-Text"
     d="M 5.9902344 8 C 5.313745 8.001344 4.627662 8.1747482 4 8.5371094 C 2.087024 9.6414494 1.4327394 12.087251 2.5371094 14 C 3.6414804 15.912649 6.087124 16.567231 8 15.462891 C 9.912976 14.358552 10.567262 11.914703 9.4628906 10.001953 C 8.7726586 8.8065476 7.5600359 8.1002816 6.2792969 8.0097656 C 6.1832416 8.0029769 6.0868757 7.999808 5.9902344 8 z M 4 10 L 5 10 L 5 14 L 4 14 L 4 10 z M 7 10 L 8 10 L 8 14 L 7 14 L 7 10 z"
     id="path5" />
  <path
     style="fill:#444444;opacity:0.3;fill-opacity:1"
     class="ColorScheme-Text"
     d="M 14 0 C 9.0953375 0 4.9292534 3.2299795 3.515625 7.6738281 A 5 5 0 0 1 5.9296875 7.0058594 C 7.3978179 4.0364771 10.454086 2 14 2 L 14 0 z M 14 4 C 11.453869 4 9.217322 5.372955 7.9921875 7.4160156 A 5 5 0 0 1 9.6289062 8.5625 C 10.480744 7.0306675 12.11354 6 14 6 L 14 4 z M 12.5 8 A 1.5 1.5 0 0 0 11 9.5 A 1.5 1.5 0 0 0 12.5 11 A 1.5 1.5 0 0 0 14 9.5 A 1.5 1.5 0 0 0 12.5 8 z M 11 12 L 11 16 L 14 16 L 14 12 L 11 12 z"
     id="path7" />
</svg>
