<?xml version="1.0" encoding="UTF-8" standalone="no"?>
<svg
   width="16"
   height="16"
   version="1.1"
   id="svg11"
   sodipodi:docname="keyboard-battery-caution.svg"
   inkscape:version="1.2.1 (9c6d41e410, 2022-07-14)"
   xmlns:inkscape="http://www.inkscape.org/namespaces/inkscape"
   xmlns:sodipodi="http://sodipodi.sourceforge.net/DTD/sodipodi-0.dtd"
   xmlns="http://www.w3.org/2000/svg"
   xmlns:svg="http://www.w3.org/2000/svg">
  <sodipodi:namedview
     id="namedview13"
     pagecolor="#ffffff"
     bordercolor="#000000"
     borderopacity="0.25"
     inkscape:showpageshadow="2"
     inkscape:pageopacity="0.0"
     inkscape:pagecheckerboard="0"
     inkscape:deskcolor="#d1d1d1"
     showgrid="false"
     inkscape:zoom="22.693708"
     inkscape:cx="14.805866"
     inkscape:cy="9.0113083"
     inkscape:current-layer="svg11" />
  <defs
     id="defs3">
    <style
       id="current-color-scheme"
       type="text/css">
   .ColorScheme-Text { color:#dfdfdf; } .ColorScheme-Highlight { color:#4285f4; } .ColorScheme-NeutralText { color:#ff9800; } .ColorScheme-PositiveText { color:#4caf50; } .ColorScheme-NegativeText { color:#f44336; }
  </style>
  </defs>
  <path
     style="color:#dfdfdf;fill:#f44336;fill-opacity:1;stroke-width:0.941176"
     class="ColorScheme-Text"
     d="m 10.352941,0.94117652 c -0.5214116,0 -0.9411763,0.41976468 -0.9411763,0.94117648 v 12.235294 c 0,0.521412 0.4197647,0.941177 0.9411763,0.941177 h 4.705883 C 15.580235,15.058824 16,14.639059 16,14.117647 V 1.882353 C 16,1.3609412 15.580235,0.94117652 15.058824,0.94117652 Z m 0,2.82352938 h 0.941177 v 0.9411765 h -0.941177 z m 1.882353,0 h 0.941177 v 0.9411765 h -0.941177 z m 1.882353,0.9411765 h 0.941177 v 6.5882356 h -0.941177 z m -3.764706,0.9411765 h 0.941177 v 0.9411764 h -0.941177 z m 1.882353,0 h 0.941177 v 0.9411764 h -0.941177 z m -1.882353,1.8823529 h 0.941177 v 0.9411765 h -0.941177 z m 1.882353,0 h 0.941177 v 0.9411765 h -0.941177 z m -1.882353,1.8823529 h 0.941177 v 0.9411763 h -0.941177 z m 1.882353,0 h 0.941177 v 0.9411763 h -0.941177 z m -1.882353,1.8823533 h 0.941177 v 0.941176 h -0.941177 z m 1.882353,0 h 0.941177 v 0.941176 h -0.941177 z"
     id="path9-3" />
  <path
     id="path313"
     style="fill:#f44336;fill-opacity:1;stroke-width:0.724216"
     d="m 0,12.829724 c 0,1.22898 0.95011869,2.2291 2.1176476,2.2291 h 4.2352936 c 1.1675294,0 2.117647,-1.00012 2.117647,-2.2291 V 4.6563511 c 0,-1.2289798 -0.9501176,-2.229106 -2.117647,-2.229106 0,-0.8203061 -0.6324718,-1.48606868 -1.4117646,-1.48606868 H 3.5294128 c -0.7792944,0 -1.4117652,0.66576258 -1.4117652,1.48606868 C 0.95011869,2.4272451 0,3.4273713 0,4.6563511 Z m 1.4117644,0 V 4.6563511 c 0,-0.4094118 0.3162349,-0.7430375 0.7058832,-0.7430375 h 4.2352936 c 0.389647,0 0.7058823,0.3336257 0.7058823,0.7430375 v 8.1733729 c 0,0.409412 -0.3162353,0.743031 -0.7058823,0.743031 H 2.1176476 c -0.3896483,0 -0.7058832,-0.333619 -0.7058832,-0.743031 z" />
</svg>
