<?xml version="1.0" encoding="UTF-8" standalone="no"?>
<svg
   width="16"
   height="16"
   version="1.1"
   id="svg9"
   sodipodi:docname="keyboard-battery-empty.svg"
   inkscape:version="1.2.1 (9c6d41e410, 2022-07-14)"
   xmlns:inkscape="http://www.inkscape.org/namespaces/inkscape"
   xmlns:sodipodi="http://sodipodi.sourceforge.net/DTD/sodipodi-0.dtd"
   xmlns="http://www.w3.org/2000/svg"
   xmlns:svg="http://www.w3.org/2000/svg">
  <sodipodi:namedview
     id="namedview11"
     pagecolor="#ffffff"
     bordercolor="#000000"
     borderopacity="0.25"
     inkscape:showpageshadow="2"
     inkscape:pageopacity="0.0"
     inkscape:pagecheckerboard="0"
     inkscape:deskcolor="#d1d1d1"
     showgrid="false"
     inkscape:zoom="32.09375"
     inkscape:cx="1.8695229"
     inkscape:cy="9.2697176"
     inkscape:current-layer="g245" />
  <defs
     id="defs3">
    <style
       id="current-color-scheme"
       type="text/css">
   .ColorScheme-Text { color:#dfdfdf; } .ColorScheme-Highlight { color:#4285f4; } .ColorScheme-NeutralText { color:#ff9800; } .ColorScheme-PositiveText { color:#4caf50; } .ColorScheme-NegativeText { color:#f44336; }
  </style>
  </defs>
  <g
     id="g245"
     transform="matrix(0.94117647,0,0,0.94117647,-2.8235294,-3.2941175)">
    <path
       style="color:#dfdfdf;fill:#f44336;fill-opacity:1"
       class="ColorScheme-Text"
       d="m 14,4.5 c -0.554,0 -1,0.446 -1,1 v 13 c 0,0.554 0.446,1 1,1 h 5 c 0.554,0 1,-0.446 1,-1 v -13 c 0,-0.554 -0.446,-1 -1,-1 z m 0,3 h 1 v 1 h -1 z m 2,0 h 1 v 1 h -1 z m 2,1 h 1 v 7 h -1 z m -4,1 h 1 v 1 h -1 z m 2,0 h 1 v 1 h -1 z m -2,2 h 1 v 1 h -1 z m 2,0 h 1 v 1 h -1 z m -2,2 h 1 v 1 h -1 z m 2,0 h 1 v 1 h -1 z m -2,2 h 1 v 1 h -1 z m 2,0 h 1 v 1 h -1 z"
       id="path7" />
    <g
       id="g335"
       transform="matrix(0.94999998,0,0,1,0.77022312,0)"
       style="fill:#f44336;fill-opacity:1">
      <path
         id="path313"
         style="fill:#f44336;fill-opacity:1;stroke-width:0.789472"
         d="m 2.3471336,17.131576 c 0,1.305792 1.0626326,2.368424 2.3684208,2.368424 h 4.7368424 c 1.3057872,0 2.3684212,-1.062632 2.3684212,-2.368424 V 8.4473678 c 0,-1.3057916 -1.062634,-2.3684235 -2.3684212,-2.3684235 0,-0.8715766 -0.7073694,-1.5789446 -1.5789473,-1.5789446 H 6.2945023 c -0.8715785,0 -1.5789479,0.707368 -1.5789479,1.5789446 -1.3057882,0 -2.3684208,1.0626319 -2.3684208,2.3684235 z m 1.5789472,0 V 8.4473678 c 0,-0.4350001 0.3536841,-0.7894724 0.7894736,-0.7894724 h 4.7368424 c 0.4357889,0 0.7894732,0.3544723 0.7894732,0.7894724 v 8.6842082 c 0,0.435 -0.3536843,0.789479 -0.7894732,0.789479 H 4.7155544 c -0.4357895,0 -0.7894736,-0.354479 -0.7894736,-0.789479 z" />
      <g
         id="g480"
         transform="matrix(0,0.63829787,-0.63829787,0,172.19967,-9.3745978)"
         style="fill:#f44336;fill-opacity:1">
        <path
           d="m 34.820203,259.34792 v -1.33333 c 0,-0.36979 0.296875,-0.66667 0.666667,-0.66667 h 1.333333 c 0.369792,0 0.666667,0.29688 0.666667,0.66667 v 1.33333 c 0,0.36979 -0.296875,0.66667 -0.666667,0.66667 H 35.48687 c -0.369792,0 -0.666667,-0.29688 -0.666667,-0.66667 z"
           id="path435"
           style="fill:#f44336;fill-opacity:1;stroke-width:1.33333" />
        <path
           d="m 29.48687,260.01459 v -2.66667 h 3.333333 c 0,0 0.666667,0 0.666667,0.66667 v 1.33333 c 0,0.66667 -0.666667,0.66667 -0.666667,0.66667 z"
           id="path433"
           style="fill:#f44336;fill-opacity:1;stroke-width:1.33333" />
      </g>
    </g>
  </g>
</svg>
