<?xml version="1.0" encoding="UTF-8" standalone="no"?>
<svg
   width="16"
   height="16"
   version="1.1"
   id="svg9"
   sodipodi:docname="laptopattention.svg"
   inkscape:version="1.2.1 (9c6d41e410, 2022-07-14)"
   xmlns:inkscape="http://www.inkscape.org/namespaces/inkscape"
   xmlns:sodipodi="http://sodipodi.sourceforge.net/DTD/sodipodi-0.dtd"
   xmlns="http://www.w3.org/2000/svg"
   xmlns:svg="http://www.w3.org/2000/svg">
  <sodipodi:namedview
     id="namedview11"
     pagecolor="#ffffff"
     bordercolor="#000000"
     borderopacity="0.25"
     inkscape:showpageshadow="2"
     inkscape:pageopacity="0.0"
     inkscape:pagecheckerboard="0"
     inkscape:deskcolor="#d1d1d1"
     showgrid="false"
     inkscape:zoom="65.8125"
     inkscape:cx="7.9924027"
     inkscape:cy="8.0151947"
     inkscape:current-layer="svg9" />
  <defs
     id="defs3">
    <style
       id="current-color-scheme"
       type="text/css">
   .ColorScheme-Text { color:#dfdfdf; } .ColorScheme-Highlight { color:#4285f4; } .ColorScheme-NeutralText { color:#ff9800; } .ColorScheme-PositiveText { color:#4caf50; } .ColorScheme-NegativeText { color:#f44336; }
  </style>
  </defs>
  <path
     style="fill:#444444;fill-opacity:1"
     class="ColorScheme-Text"
     d="M 2 2 C 1.446 2 1 2.446 1 3 L 1 12 C 1 12.554 1.446 13 2 13 L 0 13 L 0 14 C 0 14.554 0.892 15 2 15 L 13 15 L 13 12 L 3 12 L 3 4 L 13 4 L 13 6 L 15 6 L 15 3 C 15 2.446 14.554 2 14 2 L 2 2 z M 6 13 L 10 13 L 10 14 L 6 14 L 6 13 z"
     id="path5" />
  <path
     style="fill:currentColor"
     class="ColorScheme-NeutralText"
     d="M 14,7 V 11 L 14.25,13 H 15.75 L 16,11 V 7 Z M 14,14 V 16 H 16 V 14 Z"
     id="path7" />
</svg>
