<?xml version="1.0" encoding="UTF-8" standalone="no"?>
<svg
   width="16"
   height="16"
   version="1.1"
   id="svg11"
   sodipodi:docname="megawarning.svg"
   inkscape:version="1.2.1 (9c6d41e410, 2022-07-14)"
   xmlns:inkscape="http://www.inkscape.org/namespaces/inkscape"
   xmlns:sodipodi="http://sodipodi.sourceforge.net/DTD/sodipodi-0.dtd"
   xmlns="http://www.w3.org/2000/svg"
   xmlns:svg="http://www.w3.org/2000/svg">
  <sodipodi:namedview
     id="namedview13"
     pagecolor="#ffffff"
     bordercolor="#000000"
     borderopacity="0.25"
     inkscape:showpageshadow="2"
     inkscape:pageopacity="0.0"
     inkscape:pagecheckerboard="0"
     inkscape:deskcolor="#d1d1d1"
     showgrid="false"
     inkscape:zoom="65.8125"
     inkscape:cx="7.9924027"
     inkscape:cy="8.0151947"
     inkscape:current-layer="svg11" />
  <defs
     id="defs3">
    <style
       id="current-color-scheme"
       type="text/css">
   .ColorScheme-Text { color:#dfdfdf; } .ColorScheme-Highlight { color:#4285f4; } .ColorScheme-NeutralText { color:#ff9800; } .ColorScheme-PositiveText { color:#4caf50; } .ColorScheme-NegativeText { color:#f44336; }
  </style>
  </defs>
  <g
     transform="translate(-3,-3)"
     id="g7"
     style="fill:#444444;fill-opacity:1">
    <path
       style="fill:#444444;fill-opacity:1"
       class="ColorScheme-Text"
       d="M 8 1 A 7 7 0 0 0 1 8 A 7 7 0 0 0 8 15 A 7 7 0 0 0 8.0058594 15 A 5 5 0 0 1 7 12 A 5 5 0 0 1 7.4199219 10 L 7 10 L 6 8.5 L 6 11 L 4 11 L 4 5 L 6 5 L 8 8 L 10 5 L 12 5 L 12 7 A 5 5 0 0 1 15 8.0078125 A 7 7 0 0 0 15 8 A 7 7 0 0 0 8 1 z"
       transform="translate(3,3)"
       id="path5" />
  </g>
  <path
     style="fill:currentColor"
     class="ColorScheme-NeutralText"
     d="m 12.279037,8.0080492 c -0.768533,-0.054321 -1.561885,0.113119 -2.2792967,0.527344 -1.9132,1.1046001 -2.567391,3.5516438 -1.462891,5.4648438 1.1045,1.9131 3.5497907,2.567491 5.4628907,1.462891 1.9132,-1.1046 2.569344,-3.549691 1.464844,-5.462891 C 14.774271,8.8045492 13.559926,8.0985862 12.279037,8.0080492 Z m -1.693359,1.8710941 1.414062,1.4140627 1.414062,-1.4140627 0.707032,0.7070317 -1.414063,1.414062 1.414063,1.414062 -0.707032,0.707032 L 11.99974,12.707268 10.585678,14.121331 9.8786463,13.414299 11.292709,12.000237 9.8786463,10.586175 10.585678,9.8791433 Z"
     id="path9" />
</svg>
