<?xml version="1.0" encoding="UTF-8" standalone="no"?>
<svg
   width="16"
   height="16"
   version="1.1"
   id="svg7"
   sodipodi:docname="microphone-sensitivity-muted-symbolic.svg"
   inkscape:version="1.2.1 (9c6d41e410, 2022-07-14)"
   xmlns:inkscape="http://www.inkscape.org/namespaces/inkscape"
   xmlns:sodipodi="http://sodipodi.sourceforge.net/DTD/sodipodi-0.dtd"
   xmlns="http://www.w3.org/2000/svg"
   xmlns:svg="http://www.w3.org/2000/svg">
  <sodipodi:namedview
     id="namedview9"
     pagecolor="#ffffff"
     bordercolor="#000000"
     borderopacity="0.25"
     inkscape:showpageshadow="2"
     inkscape:pageopacity="0.0"
     inkscape:pagecheckerboard="0"
     inkscape:deskcolor="#d1d1d1"
     showgrid="false"
     inkscape:zoom="65.8125"
     inkscape:cx="7.9924027"
     inkscape:cy="8.0151947"
     inkscape:current-layer="svg7" />
  <defs
     id="defs3">
    <style
       id="current-color-scheme"
       type="text/css">
   .ColorScheme-Text { color:#dfdfdf; } .ColorScheme-Highlight { color:#4285f4; }
  </style>
  </defs>
  <path
     style="fill:#444444;fill-opacity:1"
     class="ColorScheme-Text"
     d="M 8,0 C 6.754,0 5.6889,0.7515 5.2344,1.8281 V 1.8301 L 11,7.594 V 3 C 11,1.3379 9.662,0 8,0 Z M 2.3438,0.9375 0.9375,2.3438 5,6.4062 V 8 C 5,9.662 6.3379,11 8,11 8.466,11 8.901,10.887 9.291,10.697 L 10.02,11.426 C 9.428,11.778 8.749,12 8,12 5.7666,12 4,10.233 4,8 V 7 H 2 V 8 C 2,10.969 4.1624,13.432 7,13.906 V 16 H 9 V 13.906 C 9.91,13.754 10.738,13.379 11.459,12.865 L 13.656,15.062 15.062,13.656 2.344,0.938 Z M 12,7 V 8 C 12,8.186 11.971,8.362 11.947,8.541 L 13.584,10.178 C 13.848,9.502 14,8.769 14,8 V 7 Z"
     id="path5" />
</svg>
