<?xml version="1.0" encoding="UTF-8" standalone="no"?>
<svg
   width="16"
   height="16"
   version="1.1"
   id="svg9"
   sodipodi:docname="mintupdate-error.svg"
   inkscape:version="1.2.1 (9c6d41e410, 2022-07-14)"
   xml:space="preserve"
   xmlns:inkscape="http://www.inkscape.org/namespaces/inkscape"
   xmlns:sodipodi="http://sodipodi.sourceforge.net/DTD/sodipodi-0.dtd"
   xmlns="http://www.w3.org/2000/svg"
   xmlns:svg="http://www.w3.org/2000/svg"><sodipodi:namedview
     id="namedview11"
     pagecolor="#ffffff"
     bordercolor="#000000"
     borderopacity="0.25"
     inkscape:showpageshadow="2"
     inkscape:pageopacity="0.0"
     inkscape:pagecheckerboard="0"
     inkscape:deskcolor="#d1d1d1"
     showgrid="false"
     inkscape:zoom="45.387417"
     inkscape:cx="6.2572409"
     inkscape:cy="5.4310207"
     inkscape:current-layer="svg9" /><defs
     id="defs3"><style
       id="current-color-scheme"
       type="text/css">
   .ColorScheme-Text { color:#dfdfdf; } .ColorScheme-Highlight { color:#4285f4; }
  </style></defs><path
     id="path2"
     style="fill:#444444;fill-opacity:1"
     d="M 8 0 C 7.744141 -3.7007397e-17 7.4882811 0.097656445 7.2929688 0.29296875 L 5.5859375 2 L 3 2 C 2.4492196 2 2 2.4492196 2 3 L 2 5.5859375 L 0.29296875 7.2929688 C -0.097656059 7.6835934 -0.097656059 8.3164066 0.29296875 8.7070312 L 2 10.414062 L 2 13 C 2 13.55078 2.4492196 14 3 14 L 5.5859375 14 L 7.2929688 15.707031 C 7.4882806 15.90234 7.7421883 16 8 16 C 8.2578117 16 8.5117194 15.902344 8.7070312 15.707031 L 10.414062 14 L 13 14 C 13.55078 14 14 13.55078 14 13 L 14 10.414062 L 15.707031 8.7070312 C 16.097656 8.3164066 16.097656 7.6835934 15.707031 7.2929688 L 14 5.5859375 L 14 3 C 14 2.4492196 13.55078 2 13 2 L 10.414062 2 L 8.7070312 0.29296875 C 8.5117189 0.097656445 8.255859 3.7007397e-17 8 0 z M 6.2460938 5.1230469 C 6.3660079 5.1230469 6.4846868 5.1682811 6.5742188 5.2578125 L 8 6.6816406 L 9.4238281 5.2578125 C 9.6028918 5.0787497 9.9049204 5.0787497 10.083984 5.2578125 L 10.742188 5.9160156 C 10.921251 6.0950794 10.921251 6.3951549 10.742188 6.5742188 L 9.3183594 8 L 10.742188 9.4238281 C 10.921251 9.6034789 10.921251 9.9043349 10.742188 10.083984 L 10.083984 10.742188 C 9.9049204 10.921251 9.6048449 10.921251 9.4257812 10.742188 L 8 9.3183594 L 6.5761719 10.742188 C 6.3971081 10.921251 6.0950794 10.921251 5.9160156 10.742188 L 5.2578125 10.083984 C 5.0787497 9.9049229 5.0787497 9.6048451 5.2578125 9.4257812 L 6.6816406 8 L 5.2578125 6.5761719 C 5.0787497 6.3971081 5.0787497 6.0950794 5.2578125 5.9160156 L 5.9160156 5.2578125 C 6.0055475 5.1682811 6.1261796 5.1230469 6.2460938 5.1230469 z " /></svg>
