<?xml version="1.0" encoding="UTF-8" standalone="no"?>
<svg
   width="16"
   height="16"
   version="1.1"
   id="svg11"
   sodipodi:docname="mouse-battery-caution.svg"
   xml:space="preserve"
   inkscape:version="1.2.1 (9c6d41e410, 2022-07-14)"
   xmlns:inkscape="http://www.inkscape.org/namespaces/inkscape"
   xmlns:sodipodi="http://sodipodi.sourceforge.net/DTD/sodipodi-0.dtd"
   xmlns="http://www.w3.org/2000/svg"
   xmlns:svg="http://www.w3.org/2000/svg"><sodipodi:namedview
     id="namedview13"
     pagecolor="#ffffff"
     bordercolor="#000000"
     borderopacity="0.25"
     inkscape:showpageshadow="2"
     inkscape:pageopacity="0.0"
     inkscape:pagecheckerboard="0"
     inkscape:deskcolor="#d1d1d1"
     showgrid="false"
     inkscape:zoom="32.09375"
     inkscape:cx="0.62317429"
     inkscape:cy="9.7059396"
     inkscape:current-layer="svg11" /><defs
     id="defs3"><style
       id="current-color-scheme"
       type="text/css">
   .ColorScheme-Text { color:#dfdfdf; } .ColorScheme-Highlight { color:#4285f4; }
  </style><style
       id="current-color-scheme-5"
       type="text/css">
   .ColorScheme-Text { color:#dfdfdf; } .ColorScheme-Highlight { color:#4285f4; } .ColorScheme-NeutralText { color:#ff9800; } .ColorScheme-PositiveText { color:#4caf50; } .ColorScheme-NegativeText { color:#f44336; }
  </style></defs><path
     style="fill:#f44336;fill-opacity:1"
     class="ColorScheme-Text"
     d="m 11.5,2.0000005 c -1.762728,0 -3,1.5069991 -3,3.999999 h 3 z m 1,0 v 3.999999 h 3 c 0,-2.4929999 -1.237272,-3.999999 -3,-3.999999 z m -4,4.999999 V 9.5000001 C 8.5,11.993 9.919091,14 11.681818,14 h 0.636364 C 14.080909,14 15.5,11.993 15.5,9.5000001 V 6.9999995 h -3.181818 z"
     id="path9" /><path
     id="path313"
     style="fill:#f44336;fill-opacity:1;stroke-width:0.615584"
     d="M 0.5,12.105265 C 0.5,13.149898 1.3076012,14 2.3000008,14 h 3.5999998 c 0.9923996,0 1.7999999,-0.850102 1.7999999,-1.894735 V 5.1578984 c 0,-1.0446328 -0.8076003,-1.89474 -1.7999999,-1.89474 C 5.9000006,2.5658982 5.3623994,2 4.7000003,2 H 3.500001 C 2.8376011,2 2.3000008,2.5658982 2.3000008,3.2631584 1.3076012,3.2631584 0.5,4.1132656 0.5,5.1578984 Z m 1.2000002,0 V 5.1578984 c 0,-0.348 0.2687998,-0.6315818 0.6000006,-0.6315818 h 3.5999998 c 0.3311999,0 0.5999997,0.2835818 0.5999997,0.6315818 v 6.9473666 c 0,0.348001 -0.2687998,0.631576 -0.5999997,0.631576 H 2.3000008 c -0.3312008,0 -0.6000006,-0.283575 -0.6000006,-0.631576 z" /></svg>
