<?xml version="1.0" encoding="UTF-8" standalone="no"?>
<svg
   width="16"
   height="16"
   version="1.1"
   id="svg7"
   sodipodi:docname="network-cellular-connected.svg"
   xml:space="preserve"
   inkscape:version="1.2.1 (9c6d41e410, 2022-07-14)"
   xmlns:inkscape="http://www.inkscape.org/namespaces/inkscape"
   xmlns:sodipodi="http://sodipodi.sourceforge.net/DTD/sodipodi-0.dtd"
   xmlns="http://www.w3.org/2000/svg"
   xmlns:svg="http://www.w3.org/2000/svg"><sodipodi:namedview
     id="namedview9"
     pagecolor="#ffffff"
     bordercolor="#000000"
     borderopacity="0.25"
     inkscape:showpageshadow="2"
     inkscape:pageopacity="0.0"
     inkscape:pagecheckerboard="0"
     inkscape:deskcolor="#d1d1d1"
     showgrid="false"
     inkscape:zoom="23.268233"
     inkscape:cx="-0.98847214"
     inkscape:cy="6.6399541"
     inkscape:current-layer="svg7" /><defs
     id="defs3"><style
       id="current-color-scheme"
       type="text/css">
   .ColorScheme-Text { color:#dfdfdf; } .ColorScheme-Highlight { color:#4285f4; }
  </style></defs><path
     d="m 1.9804715,2.0234374 c -0.125,0.00391 -0.25,0.054687 -0.34375,0.152343 l -0.238281,0.25 c -0.933594,0.96875 -1.398438,2.273438 -1.398438,3.574219 0,1.300781 0.464844,2.605469 1.398438,3.574219 l 0.238281,0.25 c 0.1875,0.1992186 0.503907,0.2031246 0.699219,0.015625 0.199219,-0.191406 0.207031,-0.503906 0.01563,-0.703125 l -0.234375,-0.25 c -1.46875,-1.53125 -1.46875,-4.238281 0,-5.773438 l 0.234375,-0.25 c 0.191406,-0.199219 0.183594,-0.511719 -0.01563,-0.703125 -0.09766,-0.09375 -0.226562,-0.140625 -0.355469,-0.136718 z m 12.0390635,0 c -0.128906,-0.00391 -0.257813,0.042968 -0.355469,0.136718 -0.199219,0.191406 -0.203125,0.503906 -0.01563,0.703125 l 0.238281,0.25 c 1.46875,1.535157 1.46875,4.242188 0,5.773438 l -0.238281,0.25 c -0.1875,0.199219 -0.183594,0.511719 0.01563,0.703125 0.199219,0.1874996 0.511719,0.1835936 0.703125,-0.015625 l 0.238281,-0.25 c 0.929683,-0.96875 1.394526,-2.273438 1.394526,-3.574219 0,-1.300781 -0.464843,-2.605469 -1.394531,-3.574219 l -0.238281,-0.25 c -0.09375,-0.097656 -0.21875,-0.148437 -0.347656,-0.152343 z M 3.4804715,3.5156244 c -0.113281,0.00391 -0.222656,0.046875 -0.3125,0.128906 l -0.273437,0.25 c -0.613282,0.554688 -0.90625,1.34375 -0.902344,2.125 0.0078,0.777344 0.3125,1.550781 0.902344,2.085938 l 0.273437,0.25 c 0.203125,0.1875 0.519531,0.171875 0.703125,-0.03125 0.183594,-0.203125 0.171875,-0.519531 -0.03516,-0.703125 l -0.269531,-0.246094 c -0.699219,-0.636719 -0.746094,-2.070312 0,-2.75 l 0.269531,-0.246094 c 0.207031,-0.183594 0.21875,-0.496094 0.03516,-0.703125 -0.105468,-0.113281 -0.25,-0.167969 -0.390625,-0.160156 z m 8.9921885,0 c -0.125,0.00391 -0.25,0.058594 -0.34375,0.160156 -0.183594,0.207031 -0.167969,0.519531 0.03516,0.703125 l 0.273433,0.246094 c 0.742188,0.679688 0.695313,2.113281 0,2.75 l -0.273437,0.246094 c -0.203125,0.183594 -0.21875,0.5 -0.03516,0.703125 0.1875,0.203125 0.5,0.21875 0.707031,0.03125 l 0.269531,-0.25 c 0.589844,-0.535157 0.894531,-1.308594 0.902344,-2.085938 0.0078,-0.78125 -0.289063,-1.570312 -0.902344,-2.125 l -0.269531,-0.25 c -0.101558,-0.09375 -0.234371,-0.132812 -0.363277,-0.128906 z m -7.6992195,1.484375 c -0.289062,0 -0.550781,0.164062 -0.675781,0.425781 -0.125,0.257813 -0.08984,0.566407 0.08984,0.792969 l 2.835938,3.542969 V 16 h 2 V 9.7617184 l 2.8359375,-3.542969 c 0.179687,-0.226562 0.214843,-0.535156 0.08984,-0.792969 -0.125,-0.261719 -0.386719,-0.425781 -0.675781,-0.425781 z m 1.5625,1.5 h 3.375 l -1.6875,2.113281 z m 0,0"
     fill="#2e3436"
     id="path2"
     style="fill:#444444;fill-opacity:1" /></svg>
