<?xml version="1.0" encoding="UTF-8" standalone="no"?>
<svg
   width="16"
   height="16"
   version="1.1"
   id="svg9"
   sodipodi:docname="network-cellular-signal-good.svg"
   xml:space="preserve"
   inkscape:version="1.2.1 (9c6d41e410, 2022-07-14)"
   xmlns:inkscape="http://www.inkscape.org/namespaces/inkscape"
   xmlns:sodipodi="http://sodipodi.sourceforge.net/DTD/sodipodi-0.dtd"
   xmlns="http://www.w3.org/2000/svg"
   xmlns:svg="http://www.w3.org/2000/svg"><sodipodi:namedview
     id="namedview11"
     pagecolor="#ffffff"
     bordercolor="#000000"
     borderopacity="0.25"
     inkscape:showpageshadow="2"
     inkscape:pageopacity="0.0"
     inkscape:pagecheckerboard="0"
     inkscape:deskcolor="#d1d1d1"
     showgrid="false"
     inkscape:zoom="16.453125"
     inkscape:cx="-19.449193"
     inkscape:cy="15.042735"
     inkscape:current-layer="svg9" /><defs
     id="defs3"><style
       id="current-color-scheme"
       type="text/css">
   .ColorScheme-Text { color:#dfdfdf; } .ColorScheme-Highlight { color:#4285f4; }
  </style><style
       id="current-color-scheme-6"
       type="text/css">
   .ColorScheme-Text { color:#dfdfdf; } .ColorScheme-Highlight { color:#4285f4; }
  </style></defs><g
     id="g804"><path
       style="fill:#444444;fill-opacity:1"
       d="M 1,9.9999998"
       id="path867" /><path
       style="fill:#444444;fill-opacity:1"
       d="M 1,9.9999998 C 0.445312,9.9999998 0,10.445312 0,11 v 3 c 0,0.554688 0.445312,1 1,1 h 1 c 0.554688,0 1,-0.445312 1,-1 V 11 C 3,10.445312 2.554688,9.9999998 2,9.9999998 Z"
       id="path865" /><path
       style="fill:#444444;fill-opacity:1"
       d="m 5,6.9999998 c -0.554688,0 -1,0.445312 -1,1 V 14 c 0,0.554688 0.445312,1 1,1 h 1 c 0.554688,0 1,-0.445312 1,-1 V 7.9999998 c 0,-0.554688 -0.445312,-1 -1,-1 z"
       id="path863" /><path
       style="fill:#444444;fill-opacity:1"
       d="m 9,3.9999998 c -0.554688,0 -1,0.4453119 -1,1 V 14 c 0,0.554688 0.445312,1 1,1 h 1 c 0.554688,0 1,-0.445312 1,-1 V 4.9999998 c 0,-0.5546881 -0.445312,-1 -1,-1 z"
       id="path861" /><path
       style="opacity:0.3;fill:#444444;fill-opacity:1"
       d="m 13,0.99999976 c -0.554688,0 -1,0.44531204 -1,1.00000004 V 14 c 0,0.554688 0.445312,1 1,1 h 1 c 0.554688,0 1,-0.445312 1,-1 V 1.9999998 C 15,1.4453118 14.554688,0.99999976 14,0.99999976 Z"
       id="path2" /></g></svg>
