<?xml version="1.0" encoding="UTF-8" standalone="no"?>
<!-- Created with Inkscape (http://www.inkscape.org/) -->

<svg
   width="16"
   height="16"
   id="svg2"
   sodipodi:version="0.32"
   inkscape:version="1.2.1 (9c6d41e410, 2022-07-14)"
   version="1.0"
   sodipodi:docname="network-wireless-signal-none.svg"
   inkscape:output_extension="org.inkscape.output.svg.inkscape"
   xml:space="preserve"
   xmlns:inkscape="http://www.inkscape.org/namespaces/inkscape"
   xmlns:sodipodi="http://sodipodi.sourceforge.net/DTD/sodipodi-0.dtd"
   xmlns:xlink="http://www.w3.org/1999/xlink"
   xmlns="http://www.w3.org/2000/svg"
   xmlns:svg="http://www.w3.org/2000/svg"
   xmlns:rdf="http://www.w3.org/1999/02/22-rdf-syntax-ns#"
   xmlns:cc="http://creativecommons.org/ns#"
   xmlns:dc="http://purl.org/dc/elements/1.1/"><defs
     id="defs4"><linearGradient
       id="linearGradient3171"
       inkscape:collect="always"><stop
         id="stop3173"
         offset="0"
         style="stop-color:#000000;stop-opacity:1;" /><stop
         id="stop3175"
         offset="1"
         style="stop-color:#000000;stop-opacity:0;" /></linearGradient><linearGradient
       inkscape:collect="always"
       xlink:href="#linearGradient3171"
       id="linearGradient3342"
       gradientUnits="userSpaceOnUse"
       x1="4.9375"
       y1="11"
       x2="8"
       y2="11" /><linearGradient
       id="linearGradient3266"
       inkscape:collect="always"><stop
         id="stop3268"
         offset="0"
         style="stop-color:#505050;stop-opacity:1;" /><stop
         id="stop3270"
         offset="1"
         style="stop-color:#505050;stop-opacity:0;" /></linearGradient><linearGradient
       inkscape:collect="always"
       xlink:href="#linearGradient3266"
       id="linearGradient3340"
       gradientUnits="userSpaceOnUse"
       gradientTransform="translate(2)"
       x1="3.8890872"
       y1="15.656685"
       x2="4.3288512"
       y2="12.842732" /><linearGradient
       inkscape:collect="always"
       xlink:href="#linearGradient3242"
       id="linearGradient3338"
       gradientUnits="userSpaceOnUse"
       x1="3.5"
       y1="14.03125"
       x2="3.5"
       y2="7.9958577" /><linearGradient
       id="linearGradient3242"><stop
         id="stop3244"
         offset="0"
         style="stop-color:#505050;stop-opacity:1;" /><stop
         style="stop-color:#a7a7a7;stop-opacity:1;"
         offset="0.5"
         id="stop3260" /><stop
         style="stop-color:#ffffff;stop-opacity:1;"
         offset="0.69999999"
         id="stop3250" /><stop
         id="stop3246"
         offset="1"
         style="stop-color:#c8c8c8;stop-opacity:1;" /></linearGradient><linearGradient
       inkscape:collect="always"
       xlink:href="#linearGradient3242"
       id="linearGradient3336"
       gradientUnits="userSpaceOnUse"
       x1="7.6126604"
       y1="14.756505"
       x2="5.5251265"
       y2="7.243495" /><inkscape:perspective
       sodipodi:type="inkscape:persp3d"
       inkscape:vp_x="0 : 3 : 1"
       inkscape:vp_y="0 : 1000 : 0"
       inkscape:vp_z="22 : 3 : 1"
       inkscape:persp3d-origin="11 : -0.6666667 : 1"
       id="perspective23" /><linearGradient
       id="ShadowGradient"><stop
         style="stop-color:#000000;stop-opacity:1;"
         offset="0"
         id="stop3393" /><stop
         style="stop-color:#000000;stop-opacity:0;"
         offset="1"
         id="stop3395" /></linearGradient><linearGradient
       id="StandardGradient"><stop
         style="stop-color:#000000;stop-opacity:1;"
         offset="0"
         id="stop3389" /><stop
         style="stop-color:#646464;stop-opacity:1;"
         offset="1"
         id="stop3391" /></linearGradient><linearGradient
       inkscape:collect="always"
       xlink:href="#StandardGradient"
       id="linearGradient3381"
       x1="9.9375"
       y1="3"
       x2="9.9375"
       y2="19.017569"
       gradientUnits="userSpaceOnUse" /><linearGradient
       inkscape:collect="always"
       xlink:href="#StandardGradient"
       id="linearGradient3782"
       x1="9.75"
       y1="5"
       x2="9.75"
       y2="19.055693"
       gradientUnits="userSpaceOnUse"
       gradientTransform="translate(0,-1)" /><linearGradient
       inkscape:collect="always"
       xlink:href="#StandardGradient"
       id="linearGradient2400"
       gradientUnits="userSpaceOnUse"
       gradientTransform="translate(-9,10)"
       x1="9.75"
       y1="5"
       x2="9.75"
       y2="19.055693" /><linearGradient
       inkscape:collect="always"
       xlink:href="#StandardGradient"
       id="linearGradient3174"
       gradientUnits="userSpaceOnUse"
       gradientTransform="rotate(45,-4.5710677,3.1458608)"
       x1="9.75"
       y1="5"
       x2="9.75"
       y2="19.055693" /><linearGradient
       inkscape:collect="always"
       xlink:href="#StandardGradient"
       id="linearGradient3178"
       gradientUnits="userSpaceOnUse"
       gradientTransform="rotate(90,2.5,9.5098219)"
       x1="9.75"
       y1="5"
       x2="9.75"
       y2="19.055693" /><linearGradient
       inkscape:collect="always"
       xlink:href="#StandardGradient"
       id="linearGradient3182"
       gradientUnits="userSpaceOnUse"
       gradientTransform="rotate(135,5.4289322,12.145861)"
       x1="9.75"
       y1="5"
       x2="9.75"
       y2="19.055693" /><linearGradient
       inkscape:collect="always"
       xlink:href="#StandardGradient"
       id="linearGradient3186"
       gradientUnits="userSpaceOnUse"
       gradientTransform="rotate(180,7.5,14.009822)"
       x1="9.75"
       y1="5"
       x2="9.75"
       y2="19.055693" /><linearGradient
       inkscape:collect="always"
       xlink:href="#StandardGradient"
       id="linearGradient3190"
       gradientUnits="userSpaceOnUse"
       gradientTransform="rotate(-135,9.5710677,15.873782)"
       x1="9.75"
       y1="5"
       x2="9.75"
       y2="19.055693" /><linearGradient
       inkscape:collect="always"
       xlink:href="#StandardGradient"
       id="linearGradient3194"
       gradientUnits="userSpaceOnUse"
       gradientTransform="rotate(-90,12.5,18.509821)"
       x1="9.75"
       y1="5"
       x2="9.75"
       y2="19.055693" /><linearGradient
       inkscape:collect="always"
       xlink:href="#StandardGradient"
       id="linearGradient3198"
       gradientUnits="userSpaceOnUse"
       gradientTransform="rotate(-45,19.571069,24.87378)"
       x1="9.75"
       y1="5"
       x2="9.75"
       y2="19.055693" /><linearGradient
       inkscape:collect="always"
       xlink:href="#StandardGradient"
       id="linearGradient3224"
       gradientUnits="userSpaceOnUse"
       gradientTransform="rotate(45,13.207106,10.5)"
       x1="9.75"
       y1="5"
       x2="9.75"
       y2="19.055693" /><linearGradient
       inkscape:collect="always"
       xlink:href="#StandardGradient"
       id="linearGradient2407"
       gradientUnits="userSpaceOnUse"
       gradientTransform="translate(-22,-5)"
       x1="9.75"
       y1="5"
       x2="9.75"
       y2="19.055693" /><linearGradient
       inkscape:collect="always"
       xlink:href="#StandardGradient"
       id="linearGradient3228"
       x1="6.7010484"
       y1="1"
       x2="6.7010484"
       y2="15.001111"
       gradientUnits="userSpaceOnUse" /><linearGradient
       inkscape:collect="always"
       xlink:href="#linearGradient3171"
       id="linearGradient2630"
       gradientUnits="userSpaceOnUse"
       x1="4.9375"
       y1="11"
       x2="8"
       y2="11"
       gradientTransform="translate(0.04804345,-1.0546018)" /><linearGradient
       inkscape:collect="always"
       xlink:href="#linearGradient3266"
       id="linearGradient2633"
       gradientUnits="userSpaceOnUse"
       gradientTransform="translate(2.0480435,-1.0546018)"
       x1="3.8890872"
       y1="15.656685"
       x2="4.3288512"
       y2="12.842732" /><linearGradient
       inkscape:collect="always"
       xlink:href="#linearGradient3242"
       id="linearGradient2636"
       gradientUnits="userSpaceOnUse"
       x1="3.5"
       y1="14.03125"
       x2="3.5"
       y2="7.9958577"
       gradientTransform="translate(0.04804345,-1.0546018)" /><linearGradient
       inkscape:collect="always"
       xlink:href="#linearGradient3242"
       id="linearGradient2639"
       gradientUnits="userSpaceOnUse"
       x1="7.6126604"
       y1="14.756505"
       x2="5.5251265"
       y2="7.243495"
       gradientTransform="translate(0.04804345,-1.0546018)" /><linearGradient
       inkscape:collect="always"
       xlink:href="#linearGradient3242"
       id="linearGradient2641"
       gradientUnits="userSpaceOnUse"
       gradientTransform="translate(-2,-2.9999999)"
       x1="7.6126604"
       y1="14.756505"
       x2="5.5251265"
       y2="7.243495" /><linearGradient
       inkscape:collect="always"
       xlink:href="#StandardGradient"
       id="linearGradient3421"
       x1="8.4375"
       y1="1"
       x2="8.4375"
       y2="15.007554"
       gradientUnits="userSpaceOnUse" /><linearGradient
       inkscape:collect="always"
       xlink:href="#StandardGradient"
       id="linearGradient2433"
       gradientUnits="userSpaceOnUse"
       x1="8.4375"
       y1="1"
       x2="8.4375"
       y2="15.007554"
       gradientTransform="matrix(1.2397314,0,0,1,-2.1450456,0)" /><linearGradient
       inkscape:collect="always"
       xlink:href="#StandardGradient"
       id="linearGradient2435"
       gradientUnits="userSpaceOnUse"
       x1="8.4375"
       y1="1"
       x2="8.4375"
       y2="15.007554"
       gradientTransform="matrix(1.3065009,0,0,1,-3.6644889,0)" /><linearGradient
       inkscape:collect="always"
       xlink:href="#StandardGradient"
       id="linearGradient2437"
       gradientUnits="userSpaceOnUse"
       x1="8.4375"
       y1="1"
       x2="8.4375"
       y2="15.007554"
       gradientTransform="matrix(1.315615,0,0,1,-4.7200494,0)" /><inkscape:perspective
       id="perspective2849"
       inkscape:persp3d-origin="0.5 : -7.6666667 : 1"
       inkscape:vp_z="1 : -7.5 : 1"
       inkscape:vp_y="0 : 1000 : 0"
       inkscape:vp_x="0 : -7.5 : 1"
       sodipodi:type="inkscape:persp3d" /><linearGradient
       inkscape:collect="always"
       xlink:href="#StandardGradient"
       id="linearGradient2898"
       gradientUnits="userSpaceOnUse"
       x1="8.4375"
       y1="1"
       x2="8.4375"
       y2="15.007554" /><inkscape:perspective
       id="perspective2917"
       inkscape:persp3d-origin="0.5 : -7.6666667 : 1"
       inkscape:vp_z="1 : -7.5 : 1"
       inkscape:vp_y="0 : 1000 : 0"
       inkscape:vp_x="0 : -7.5 : 1"
       sodipodi:type="inkscape:persp3d" /><linearGradient
       inkscape:collect="always"
       xlink:href="#linearGradient4081"
       id="linearGradient3538"
       gradientUnits="userSpaceOnUse"
       gradientTransform="translate(1)"
       x1="16.5"
       y1="19.542921"
       x2="16.5"
       y2="2.5" /><linearGradient
       id="linearGradient4081"><stop
         style="stop-color:#aaaaaa;stop-opacity:1;"
         offset="0"
         id="stop4083" /><stop
         style="stop-color:#f0f0f0;stop-opacity:1;"
         offset="1"
         id="stop4085" /></linearGradient><linearGradient
       inkscape:collect="always"
       xlink:href="#linearGradient4081"
       id="linearGradient3542"
       gradientUnits="userSpaceOnUse"
       gradientTransform="translate(-4,-3)"
       x1="10.50519"
       y1="15.28125"
       x2="10.50519"
       y2="6.7458849" /><linearGradient
       id="linearGradient2926"><stop
         style="stop-color:#aaaaaa;stop-opacity:1;"
         offset="0"
         id="stop2928" /><stop
         style="stop-color:#f0f0f0;stop-opacity:1;"
         offset="1"
         id="stop2930" /></linearGradient><linearGradient
       inkscape:collect="always"
       xlink:href="#linearGradient4081"
       id="linearGradient3540"
       gradientUnits="userSpaceOnUse"
       gradientTransform="translate(-4,-3)"
       x1="14.524625"
       y1="17.41902"
       x2="14.524625"
       y2="4.625" /><linearGradient
       id="linearGradient2933"><stop
         style="stop-color:#aaaaaa;stop-opacity:1;"
         offset="0"
         id="stop2935" /><stop
         style="stop-color:#f0f0f0;stop-opacity:1;"
         offset="1"
         id="stop2937" /></linearGradient><linearGradient
       y2="2.5"
       x2="16.5"
       y1="19.542921"
       x1="16.5"
       gradientTransform="translate(-4,-3)"
       gradientUnits="userSpaceOnUse"
       id="linearGradient2942"
       xlink:href="#linearGradient4081"
       inkscape:collect="always" /><linearGradient
       inkscape:collect="always"
       xlink:href="#linearGradient4081"
       id="linearGradient2945"
       gradientUnits="userSpaceOnUse"
       gradientTransform="translate(-4,-3)"
       x1="16.5"
       y1="19.542921"
       x2="16.5"
       y2="2.5" /><linearGradient
       inkscape:collect="always"
       xlink:href="#linearGradient4081"
       id="linearGradient2948"
       gradientUnits="userSpaceOnUse"
       gradientTransform="matrix(1,0,0,0.94352368,-4,-2.3752307)"
       x1="16.5"
       y1="19.542921"
       x2="16.5"
       y2="2.5" /><linearGradient
       inkscape:collect="always"
       xlink:href="#StandardGradient"
       id="linearGradient2950"
       gradientUnits="userSpaceOnUse"
       x1="8.4375"
       y1="1"
       x2="8.4375"
       y2="15.007554" /><linearGradient
       inkscape:collect="always"
       xlink:href="#StandardGradient"
       id="linearGradient3729"
       gradientUnits="userSpaceOnUse"
       x1="8.4375"
       y1="1"
       x2="8.4375"
       y2="15.007554"
       gradientTransform="translate(0,1)" /><linearGradient
       inkscape:collect="always"
       xlink:href="#StandardGradient"
       id="linearGradient3731"
       gradientUnits="userSpaceOnUse"
       x1="8.4375"
       y1="1"
       x2="8.4375"
       y2="15.007554" /><inkscape:perspective
       id="perspective3777"
       inkscape:persp3d-origin="0.5 : -7.6666667 : 1"
       inkscape:vp_z="1 : -7.5 : 1"
       inkscape:vp_y="0 : 1000 : 0"
       inkscape:vp_x="0 : -7.5 : 1"
       sodipodi:type="inkscape:persp3d" /><linearGradient
       id="StandardGradient-1"
       gradientTransform="scale(1.1467263,0.8720476)"
       x1="7.1904788"
       y1="6.9551144"
       x2="7.1904788"
       y2="18.319494"
       gradientUnits="userSpaceOnUse"><stop
         style="stop-color:#000000;stop-opacity:0.86274511;"
         offset="0"
         id="stop3280" /><stop
         style="stop-color:#000000;stop-opacity:0.47058824;"
         offset="1"
         id="stop3282" /></linearGradient><linearGradient
       y2="18.319494"
       x2="7.1904788"
       y1="6.9551144"
       x1="7.1904788"
       gradientTransform="matrix(1.1467263,0,0,0.8720476,2.5196744,8.5383193)"
       gradientUnits="userSpaceOnUse"
       id="linearGradient3785"
       xlink:href="#StandardGradient-1"
       inkscape:collect="always" /><linearGradient
       inkscape:collect="always"
       xlink:href="#StandardGradient-1"
       id="linearGradient3804"
       gradientUnits="userSpaceOnUse"
       x1="8.4375"
       y1="1"
       x2="8.4375"
       y2="15.007554" /><linearGradient
       inkscape:collect="always"
       xlink:href="#StandardGradient-1"
       id="linearGradient3808"
       gradientUnits="userSpaceOnUse"
       x1="8.4375"
       y1="1"
       x2="8.4375"
       y2="15.007554"
       gradientTransform="translate(0,1)" /><linearGradient
       inkscape:collect="always"
       xlink:href="#StandardGradient-1"
       id="linearGradient3812"
       gradientUnits="userSpaceOnUse"
       x1="8.4375"
       y1="1"
       x2="8.4375"
       y2="15.007554" /><linearGradient
       inkscape:collect="always"
       xlink:href="#StandardGradient-1"
       id="linearGradient3817"
       gradientUnits="userSpaceOnUse"
       x1="8.4375"
       y1="1"
       x2="8.4375"
       y2="15.007554"
       gradientTransform="translate(-20)" /><clipPath
       clipPathUnits="userSpaceOnUse"
       id="clipPath3824"><path
         style="display:inline;fill:#ff00ff;fill-opacity:1;stroke:none"
         d="M -20,0 V 16 H -4 V 0 Z M -7.625,1 C -5.995915,2.9288438 -5,5.3432918 -5,8 c 1e-6,2.708425 -1.032388,5.178784 -2.71875,7.125 l -1.5,-1.25 c 1.364366,-1.613056 2.1875,-3.651801 2.1875,-5.875 0,-2.1639699 -0.76332,-4.1574263 -2.0625,-5.75 z M -9.8125,2.84375 C -8.662551,4.2737473 -8,6.0683029 -8,8 c 0,1.9878056 -0.722863,3.803569 -1.9375,5.25 l -1.5,-1.28125 C -10.539955,10.861821 -10,9.5005507 -10,8 -10,6.5562172 -10.506676,5.24065 -11.34375,4.15625 Z M -15,3.96875 v 8 L -17,10 h -1.5 C -18.777,10 -19,9.777 -19,9.5 v -3 C -19,6.223 -18.777,6 -18.5,6 H -17 Z M -12.0625,4.75 C -11.393055,5.6663669 -11,6.8041149 -11,8 c 0,1.2594208 -0.420217,2.432325 -1.15625,3.375 L -13.6875,10.0625 C -13.263995,9.4700266 -13,8.7691247 -13,8 -13,7.2815285 -13.219346,6.6300346 -13.59375,6.0625 Z"
         id="path3826"
         inkscape:connector-curvature="0" /></clipPath><inkscape:perspective
       id="perspective2945"
       inkscape:persp3d-origin="0.5 : -7.6666667 : 1"
       inkscape:vp_z="1 : -7.5 : 1"
       inkscape:vp_y="0 : 1000 : 0"
       inkscape:vp_x="0 : -7.5 : 1"
       sodipodi:type="inkscape:persp3d" /><linearGradient
       inkscape:collect="always"
       xlink:href="#StandardGradient-6"
       id="linearGradient3750"
       x1="11"
       y1="3"
       x2="11"
       y2="20.117243"
       gradientUnits="userSpaceOnUse" /><linearGradient
       id="StandardGradient-6"
       gradientTransform="matrix(0.9984539,0,0,0.9984539,-0.0459776,0.05767558)"
       x1="10.710332"
       y1="1.9963325"
       x2="10.710332"
       y2="18.974037"
       gradientUnits="userSpaceOnUse"><stop
         style="stop-color:#000000;stop-opacity:0.86274511;"
         offset="0"
         id="stop3277" /><stop
         style="stop-color:#000000;stop-opacity:0.47058824;"
         offset="1"
         id="stop3279" /></linearGradient><linearGradient
       gradientTransform="matrix(0.77744586,0,0,0.77121526,-0.55489171,-1.3761043)"
       y2="20.117243"
       x2="11"
       y1="3"
       x1="11"
       gradientUnits="userSpaceOnUse"
       id="linearGradient2954"
       xlink:href="#StandardGradient-6"
       inkscape:collect="always" /><linearGradient
       inkscape:collect="always"
       xlink:href="#StandardGradient-6"
       id="linearGradient2953"
       gradientUnits="userSpaceOnUse"
       gradientTransform="matrix(0.77744586,0,0,0.77121526,-0.55489171,-0.3761043)"
       x1="11"
       y1="3"
       x2="11"
       y2="20.117243" /><linearGradient
       inkscape:collect="always"
       xlink:href="#StandardGradient-6"
       id="linearGradient2955"
       gradientUnits="userSpaceOnUse"
       gradientTransform="matrix(0.77744586,0,0,0.77121526,-0.55489171,-1.3761043)"
       x1="11"
       y1="3"
       x2="11"
       y2="20.117243" /><linearGradient
       inkscape:collect="always"
       xlink:href="#StandardGradient-6"
       id="linearGradient3732"
       gradientUnits="userSpaceOnUse"
       gradientTransform="matrix(0.77744586,0,0,0.77121526,-0.55489171,-0.3761043)"
       x1="11"
       y1="3"
       x2="11"
       y2="20.117243" /><linearGradient
       inkscape:collect="always"
       xlink:href="#StandardGradient-6"
       id="linearGradient3736"
       gradientUnits="userSpaceOnUse"
       gradientTransform="matrix(0.77744586,0,0,0.77121526,-0.55489171,-1.3761043)"
       x1="11"
       y1="3"
       x2="11"
       y2="20.117243" /><linearGradient
       inkscape:collect="always"
       xlink:href="#StandardGradient-6"
       id="linearGradient3741"
       gradientUnits="userSpaceOnUse"
       gradientTransform="matrix(0.77744586,0,0,0.77121526,-20.554892,-1.3761043)"
       x1="11"
       y1="3"
       x2="11"
       y2="20.117243" /><clipPath
       clipPathUnits="userSpaceOnUse"
       id="clipPath3748"><path
         style="display:inline;fill:#ff00ff;fill-opacity:1;stroke:none"
         d="M -20,0 V 16 H -4 V 0 Z M -15.5,1.46875 -12,3.9375 -8.5,1.46875 -5,3.9375 -8.5,6.625 -5,8.96875 -12,14 -19,8.96875 -15.5,6.625 -19,3.9375 Z"
         id="path3750"
         inkscape:connector-curvature="0" /></clipPath><inkscape:perspective
       id="perspective2966"
       inkscape:persp3d-origin="0.5 : -7.6666667 : 1"
       inkscape:vp_z="1 : -7.5 : 1"
       inkscape:vp_y="0 : 1000 : 0"
       inkscape:vp_x="0 : -7.5 : 1"
       sodipodi:type="inkscape:persp3d" /><linearGradient
       inkscape:collect="always"
       xlink:href="#StandardGradient-6"
       id="linearGradient3752"
       x1="10.973592"
       y1="1.0816979"
       x2="10.973592"
       y2="8.9478464"
       gradientUnits="userSpaceOnUse" /><linearGradient
       inkscape:collect="always"
       xlink:href="#StandardGradient-6"
       id="linearGradient3754"
       x1="3.8554573"
       y1="7.1189685"
       x2="3.8554573"
       y2="15.007722"
       gradientUnits="userSpaceOnUse" /><linearGradient
       inkscape:collect="always"
       xlink:href="#StandardGradient-6"
       id="linearGradient3760"
       gradientUnits="userSpaceOnUse"
       x1="3.8554573"
       y1="7.1189685"
       x2="3.8554573"
       y2="15.007722" /><linearGradient
       inkscape:collect="always"
       xlink:href="#StandardGradient-6"
       id="linearGradient3765"
       gradientUnits="userSpaceOnUse"
       x1="3.8554573"
       y1="7.1189685"
       x2="3.8554573"
       y2="15.007722"
       gradientTransform="translate(0,1)" /><linearGradient
       inkscape:collect="always"
       xlink:href="#StandardGradient-6"
       id="linearGradient3771"
       gradientUnits="userSpaceOnUse"
       x1="3.8554573"
       y1="7.1189685"
       x2="3.8554573"
       y2="15.007722" /><linearGradient
       inkscape:collect="always"
       xlink:href="#StandardGradient-6"
       id="linearGradient3773"
       gradientUnits="userSpaceOnUse"
       gradientTransform="translate(0,1)"
       x1="3.8554573"
       y1="7.1189685"
       x2="3.8554573"
       y2="15.007722" /><linearGradient
       inkscape:collect="always"
       xlink:href="#StandardGradient-6"
       id="linearGradient3778"
       gradientUnits="userSpaceOnUse"
       x1="3.8554573"
       y1="7.1189685"
       x2="3.8554573"
       y2="15.007722" /><linearGradient
       inkscape:collect="always"
       xlink:href="#StandardGradient-6"
       id="linearGradient3790"
       gradientUnits="userSpaceOnUse"
       x1="3.8554573"
       y1="7.1189685"
       x2="3.8554573"
       y2="15.007722"
       gradientTransform="translate(0.01442091,-0.014421)" /><linearGradient
       inkscape:collect="always"
       xlink:href="#StandardGradient-6"
       id="linearGradient3796"
       gradientUnits="userSpaceOnUse"
       gradientTransform="translate(-19.985579,-0.014421)"
       x1="3.8554573"
       y1="7.1189685"
       x2="3.8554573"
       y2="15.007722" /><linearGradient
       inkscape:collect="always"
       xlink:href="#StandardGradient-6"
       id="linearGradient3798"
       gradientUnits="userSpaceOnUse"
       x1="10.973592"
       y1="1.0816979"
       x2="10.973592"
       y2="8.9478464"
       gradientTransform="translate(-20)" /><clipPath
       clipPathUnits="userSpaceOnUse"
       id="clipPath3806"><path
         style="display:inline;fill:#ff00ff;fill-opacity:1;stroke:none"
         d="M -20,0 V 16 H -4 V 0 Z m 14.28125,1 c 0.1826931,0 0.3653865,0.084136 0.5,0.21875 0.269228,0.269228 0.269228,0.730773 0,1 L -8.03125,5 v 1.53125 a 0.52760556,0.52613824 0 0 1 -0.15625,0.375 L -10.15625,8.875 a 0.52760556,0.52613824 0 0 1 -0.0625,0.03125 l -2.6875,-2.6875 a 0.52760556,0.52613824 0 0 1 0,-0.03125 0.52760556,0.52613824 0 0 1 0.03125,-0.03125 l 1.96875,-1.96875 a 0.52760556,0.52613824 0 0 1 0.375,-0.15625 H -9 l 2.78125,-2.8125 C -6.084136,1.084136 -5.9014431,1 -5.71875,1 Z m -8.125,6.125 a 0.52760556,0.52613824 0 0 1 0.03125,0 l 2.6875,2.6875 a 0.52760556,0.52613824 0 0 1 0,0.03125 0.52760556,0.52613824 0 0 1 -0.03125,0.03125 L -13.125,11.84375 A 0.52760556,0.52613824 0 0 1 -13.5,12 h -1.53125 l -2.78125,2.8125 c -0.269228,0.269228 -0.730772,0.269228 -1,0 -0.269228,-0.269228 -0.269228,-0.730773 0,-1 L -16,11.03125 V 9.5 a 0.52760556,0.52613824 0 0 1 0.15625,-0.375 L -13.875,7.15625 A 0.52760556,0.52613824 0 0 1 -13.84375,7.125 Z"
         id="path3808"
         inkscape:connector-curvature="0" /></clipPath><linearGradient
       inkscape:collect="always"
       xlink:href="#StandardGradient-1"
       id="linearGradient3720"
       x1="7"
       y1="1"
       x2="7"
       y2="14.038404"
       gradientUnits="userSpaceOnUse" /><linearGradient
       inkscape:collect="always"
       xlink:href="#StandardGradient-1"
       id="linearGradient3726"
       gradientUnits="userSpaceOnUse"
       x1="7"
       y1="1"
       x2="7"
       y2="14.038404"
       gradientTransform="translate(0,1)" /><linearGradient
       inkscape:collect="always"
       xlink:href="#StandardGradient-1"
       id="linearGradient3728"
       gradientUnits="userSpaceOnUse"
       x1="7"
       y1="1"
       x2="7"
       y2="14.038404" /><linearGradient
       inkscape:collect="always"
       xlink:href="#StandardGradient-1"
       id="linearGradient3733"
       gradientUnits="userSpaceOnUse"
       x1="7"
       y1="1"
       x2="7"
       y2="14.038404"
       gradientTransform="translate(0,1)" /><linearGradient
       inkscape:collect="always"
       xlink:href="#StandardGradient-1"
       id="linearGradient3737"
       gradientUnits="userSpaceOnUse"
       x1="7"
       y1="1"
       x2="7"
       y2="14.038404" /><linearGradient
       inkscape:collect="always"
       xlink:href="#StandardGradient-1"
       id="linearGradient3742"
       gradientUnits="userSpaceOnUse"
       x1="7"
       y1="1"
       x2="7"
       y2="14.038404"
       gradientTransform="translate(-20)" /><clipPath
       clipPathUnits="userSpaceOnUse"
       id="clipPath3749"><path
         style="display:inline;fill:#ff00ff;fill-opacity:1;stroke:none"
         d="m -20,0 v 11 c 0,-0.554 0.446,-1 1,-1 h 1 c 0.554,0 1,0.446 1,1 v 2 c 0,0.554 -0.446,1 -1,1 h -1 c -0.554,0 -1,-0.446 -1,-1 v 3 H -4 V 0 Z m 13,1 h 1 c 0.554,0 1,0.446 1,1 v 11 c 0,0.554 -0.446,1 -1,1 h -1 c -0.554,0 -1,-0.446 -1,-1 V 2 c 0,-0.554 0.446,-1 1,-1 z m -4,3 h 1 c 0.554,0 1,0.446 1,1 v 8 c 0,0.554 -0.446,1 -1,1 h -1 c -0.554,0 -1,-0.446 -1,-1 V 5 c 0,-0.554 0.446,-1 1,-1 z m -4,3 h 1 c 0.554,0 1,0.446 1,1 v 5 c 0,0.554 -0.446,1 -1,1 h -1 c -0.554,0 -1,-0.446 -1,-1 V 8 c 0,-0.554 0.446,-1 1,-1 z"
         id="path3751"
         inkscape:connector-curvature="0" /></clipPath><clipPath
       clipPathUnits="userSpaceOnUse"
       id="clipPath3820"><path
         inkscape:connector-curvature="0"
         style="display:inline;fill:#ff00ff;fill-opacity:1;stroke:none"
         d="m -19.535739,2.999982 v 16 h 16.0000003 v -16 z m 6,1 h 4.0000003 c 0.554,0 1,0.446 1,1 v 4 h 1 c 0.554,0 1,0.446 1,1 v 6 c 0,0.554 -0.446,1 -1,1 h -8.0000003 c -0.554,0 -1,-0.446 -1,-1 v -6 c 0,-0.554 0.446,-1 1,-1 h 1 v -4 c 0,-0.554 0.446,-1 1,-1 z m 1,2 v 3 h 2 v -3 z"
         id="path3822" /></clipPath><linearGradient
       inkscape:collect="always"
       xlink:href="#linearGradient4036"
       id="linearGradient3790-0"
       gradientUnits="userSpaceOnUse"
       gradientTransform="translate(-0.4642613,-2.999982)"
       x1="8.4642611"
       y1="3.9999821"
       x2="8.4642611"
       y2="17.038387" /><linearGradient
       gradientUnits="userSpaceOnUse"
       y2="17.924156"
       x2="11.640054"
       y1="4.0775533"
       x1="11.640054"
       id="linearGradient4036"><stop
         id="stop4038"
         offset="0"
         style="stop-color:#282828;stop-opacity:1;" /><stop
         id="stop4040"
         offset="1"
         style="stop-color:#787878;stop-opacity:1;" /></linearGradient><linearGradient
       inkscape:collect="always"
       xlink:href="#linearGradient4036"
       id="linearGradient6070"
       gradientUnits="userSpaceOnUse"
       gradientTransform="translate(-0.4642616,-2.999982)"
       x1="8.4642611"
       y1="3.9999821"
       x2="8.4642611"
       y2="17.038387" /><linearGradient
       inkscape:collect="always"
       xlink:href="#linearGradient4036"
       id="linearGradient6074"
       gradientUnits="userSpaceOnUse"
       gradientTransform="translate(-0.4642616,-2.999982)"
       x1="8.4642611"
       y1="3.9999821"
       x2="8.4642611"
       y2="17.038387" /><linearGradient
       inkscape:collect="always"
       xlink:href="#StandardGradient-1-0"
       id="linearGradient3720-9"
       x1="7"
       y1="1"
       x2="7"
       y2="14.038404"
       gradientUnits="userSpaceOnUse" /><linearGradient
       id="StandardGradient-1-0"
       gradientTransform="scale(1.1467263,0.8720476)"
       x1="7.1904788"
       y1="6.9551144"
       x2="7.1904788"
       y2="18.319494"
       gradientUnits="userSpaceOnUse"><stop
         style="stop-color:#000000;stop-opacity:0.86274511;"
         offset="0"
         id="stop3280-6" /><stop
         style="stop-color:#000000;stop-opacity:0.47058824;"
         offset="1"
         id="stop3282-7" /></linearGradient><linearGradient
       gradientTransform="translate(-4)"
       y2="14.038404"
       x2="7"
       y1="1"
       x1="7"
       gradientUnits="userSpaceOnUse"
       id="linearGradient3129"
       xlink:href="#StandardGradient-1-0"
       inkscape:collect="always" /><inkscape:perspective
       sodipodi:type="inkscape:persp3d"
       inkscape:vp_x="0 : -5 : 1"
       inkscape:vp_y="0 : 1000 : 0"
       inkscape:vp_z="22 : -5 : 1"
       inkscape:persp3d-origin="11 : -8.6666667 : 1"
       id="perspective23-270" /><inkscape:perspective
       id="perspective2849-62"
       inkscape:persp3d-origin="0.5 : -15.666667 : 1"
       inkscape:vp_z="1 : -15.5 : 1"
       inkscape:vp_y="0 : 1000 : 0"
       inkscape:vp_x="0 : -15.5 : 1"
       sodipodi:type="inkscape:persp3d" /><inkscape:perspective
       id="perspective2917-61"
       inkscape:persp3d-origin="0.5 : -15.666667 : 1"
       inkscape:vp_z="1 : -15.5 : 1"
       inkscape:vp_y="0 : 1000 : 0"
       inkscape:vp_x="0 : -15.5 : 1"
       sodipodi:type="inkscape:persp3d" /><inkscape:perspective
       id="perspective3777-3"
       inkscape:persp3d-origin="0.5 : -15.666667 : 1"
       inkscape:vp_z="1 : -15.5 : 1"
       inkscape:vp_y="0 : 1000 : 0"
       inkscape:vp_x="0 : -15.5 : 1"
       sodipodi:type="inkscape:persp3d" /><clipPath
       clipPathUnits="userSpaceOnUse"
       id="clipPath3824-9"><path
         style="display:inline;fill:#ff00ff;fill-opacity:1;stroke:none"
         d="M -20,0 V 16 H -4 V 0 Z M -7.625,1 C -5.995915,2.9288438 -5,5.3432918 -5,8 c 1e-6,2.708425 -1.032388,5.178784 -2.71875,7.125 l -1.5,-1.25 c 1.364366,-1.613056 2.1875,-3.651801 2.1875,-5.875 0,-2.1639699 -0.76332,-4.1574263 -2.0625,-5.75 z M -9.8125,2.84375 C -8.662551,4.2737473 -8,6.0683029 -8,8 c 0,1.9878056 -0.722863,3.803569 -1.9375,5.25 l -1.5,-1.28125 C -10.539955,10.861821 -10,9.5005507 -10,8 -10,6.5562172 -10.506676,5.24065 -11.34375,4.15625 Z M -15,3.96875 v 8 L -17,10 h -1.5 C -18.777,10 -19,9.777 -19,9.5 v -3 C -19,6.223 -18.777,6 -18.5,6 H -17 Z M -12.0625,4.75 C -11.393055,5.6663669 -11,6.8041149 -11,8 c 0,1.2594208 -0.420217,2.432325 -1.15625,3.375 L -13.6875,10.0625 C -13.263995,9.4700266 -13,8.7691247 -13,8 -13,7.2815285 -13.219346,6.6300346 -13.59375,6.0625 Z"
         id="path3826-2"
         inkscape:connector-curvature="0" /></clipPath><inkscape:perspective
       id="perspective2945-2"
       inkscape:persp3d-origin="0.5 : -15.666667 : 1"
       inkscape:vp_z="1 : -15.5 : 1"
       inkscape:vp_y="0 : 1000 : 0"
       inkscape:vp_x="0 : -15.5 : 1"
       sodipodi:type="inkscape:persp3d" /><clipPath
       clipPathUnits="userSpaceOnUse"
       id="clipPath3748-7"><path
         style="display:inline;fill:#ff00ff;fill-opacity:1;stroke:none"
         d="M -20,0 V 16 H -4 V 0 Z M -15.5,1.46875 -12,3.9375 -8.5,1.46875 -5,3.9375 -8.5,6.625 -5,8.96875 -12,14 -19,8.96875 -15.5,6.625 -19,3.9375 Z"
         id="path3750-3"
         inkscape:connector-curvature="0" /></clipPath><inkscape:perspective
       id="perspective2966-6"
       inkscape:persp3d-origin="0.5 : -15.666667 : 1"
       inkscape:vp_z="1 : -15.5 : 1"
       inkscape:vp_y="0 : 1000 : 0"
       inkscape:vp_x="0 : -15.5 : 1"
       sodipodi:type="inkscape:persp3d" /><clipPath
       clipPathUnits="userSpaceOnUse"
       id="clipPath3806-1"><path
         style="display:inline;fill:#ff00ff;fill-opacity:1;stroke:none"
         d="M -20,0 V 16 H -4 V 0 Z m 14.28125,1 c 0.1826931,0 0.3653865,0.084136 0.5,0.21875 0.269228,0.269228 0.269228,0.730773 0,1 L -8.03125,5 v 1.53125 a 0.52760556,0.52613824 0 0 1 -0.15625,0.375 L -10.15625,8.875 a 0.52760556,0.52613824 0 0 1 -0.0625,0.03125 l -2.6875,-2.6875 a 0.52760556,0.52613824 0 0 1 0,-0.03125 0.52760556,0.52613824 0 0 1 0.03125,-0.03125 l 1.96875,-1.96875 a 0.52760556,0.52613824 0 0 1 0.375,-0.15625 H -9 l 2.78125,-2.8125 C -6.084136,1.084136 -5.9014431,1 -5.71875,1 Z m -8.125,6.125 a 0.52760556,0.52613824 0 0 1 0.03125,0 l 2.6875,2.6875 a 0.52760556,0.52613824 0 0 1 0,0.03125 0.52760556,0.52613824 0 0 1 -0.03125,0.03125 L -13.125,11.84375 A 0.52760556,0.52613824 0 0 1 -13.5,12 h -1.53125 l -2.78125,2.8125 c -0.269228,0.269228 -0.730772,0.269228 -1,0 -0.269228,-0.269228 -0.269228,-0.730773 0,-1 L -16,11.03125 V 9.5 a 0.52760556,0.52613824 0 0 1 0.15625,-0.375 L -13.875,7.15625 A 0.52760556,0.52613824 0 0 1 -13.84375,7.125 Z"
         id="path3808-2"
         inkscape:connector-curvature="0" /></clipPath><clipPath
       clipPathUnits="userSpaceOnUse"
       id="clipPath3749-9"><path
         style="display:inline;fill:#ff00ff;fill-opacity:1;stroke:none"
         d="m -20,0 v 11 c 0,-0.554 0.446,-1 1,-1 h 1 c 0.554,0 1,0.446 1,1 v 2 c 0,0.554 -0.446,1 -1,1 h -1 c -0.554,0 -1,-0.446 -1,-1 v 3 H -4 V 0 Z m 13,1 h 1 c 0.554,0 1,0.446 1,1 v 11 c 0,0.554 -0.446,1 -1,1 h -1 c -0.554,0 -1,-0.446 -1,-1 V 2 c 0,-0.554 0.446,-1 1,-1 z m -4,3 h 1 c 0.554,0 1,0.446 1,1 v 8 c 0,0.554 -0.446,1 -1,1 h -1 c -0.554,0 -1,-0.446 -1,-1 V 5 c 0,-0.554 0.446,-1 1,-1 z m -4,3 h 1 c 0.554,0 1,0.446 1,1 v 5 c 0,0.554 -0.446,1 -1,1 h -1 c -0.554,0 -1,-0.446 -1,-1 V 8 c 0,-0.554 0.446,-1 1,-1 z"
         id="path3751-3"
         inkscape:connector-curvature="0" /></clipPath><clipPath
       clipPathUnits="userSpaceOnUse"
       id="clipPath3820-19"><path
         inkscape:connector-curvature="0"
         style="display:inline;fill:#ff00ff;fill-opacity:1;stroke:none"
         d="m -19.535739,2.999982 v 16 h 16.0000003 v -16 z m 6,1 h 4.0000003 c 0.554,0 1,0.446 1,1 v 4 h 1 c 0.554,0 1,0.446 1,1 v 6 c 0,0.554 -0.446,1 -1,1 h -8.0000003 c -0.554,0 -1,-0.446 -1,-1 v -6 c 0,-0.554 0.446,-1 1,-1 h 1 v -4 c 0,-0.554 0.446,-1 1,-1 z m 1,2 v 3 h 2 v -3 z"
         id="path3822-4" /></clipPath><inkscape:perspective
       sodipodi:type="inkscape:persp3d"
       inkscape:vp_x="0 : -5 : 1"
       inkscape:vp_y="0 : 1000 : 0"
       inkscape:vp_z="22 : -5 : 1"
       inkscape:persp3d-origin="11 : -8.6666667 : 1"
       id="perspective23-27" /><inkscape:perspective
       id="perspective2849-0"
       inkscape:persp3d-origin="0.5 : -15.666667 : 1"
       inkscape:vp_z="1 : -15.5 : 1"
       inkscape:vp_y="0 : 1000 : 0"
       inkscape:vp_x="0 : -15.5 : 1"
       sodipodi:type="inkscape:persp3d" /><inkscape:perspective
       id="perspective2917-6"
       inkscape:persp3d-origin="0.5 : -15.666667 : 1"
       inkscape:vp_z="1 : -15.5 : 1"
       inkscape:vp_y="0 : 1000 : 0"
       inkscape:vp_x="0 : -15.5 : 1"
       sodipodi:type="inkscape:persp3d" /><inkscape:perspective
       id="perspective3777-2"
       inkscape:persp3d-origin="0.5 : -15.666667 : 1"
       inkscape:vp_z="1 : -15.5 : 1"
       inkscape:vp_y="0 : 1000 : 0"
       inkscape:vp_x="0 : -15.5 : 1"
       sodipodi:type="inkscape:persp3d" /><clipPath
       clipPathUnits="userSpaceOnUse"
       id="clipPath3824-3"><path
         style="display:inline;fill:#ff00ff;fill-opacity:1;stroke:none"
         d="M -20,0 V 16 H -4 V 0 Z M -7.625,1 C -5.995915,2.9288438 -5,5.3432918 -5,8 c 1e-6,2.708425 -1.032388,5.178784 -2.71875,7.125 l -1.5,-1.25 c 1.364366,-1.613056 2.1875,-3.651801 2.1875,-5.875 0,-2.1639699 -0.76332,-4.1574263 -2.0625,-5.75 z M -9.8125,2.84375 C -8.662551,4.2737473 -8,6.0683029 -8,8 c 0,1.9878056 -0.722863,3.803569 -1.9375,5.25 l -1.5,-1.28125 C -10.539955,10.861821 -10,9.5005507 -10,8 -10,6.5562172 -10.506676,5.24065 -11.34375,4.15625 Z M -15,3.96875 v 8 L -17,10 h -1.5 C -18.777,10 -19,9.777 -19,9.5 v -3 C -19,6.223 -18.777,6 -18.5,6 H -17 Z M -12.0625,4.75 C -11.393055,5.6663669 -11,6.8041149 -11,8 c 0,1.2594208 -0.420217,2.432325 -1.15625,3.375 L -13.6875,10.0625 C -13.263995,9.4700266 -13,8.7691247 -13,8 -13,7.2815285 -13.219346,6.6300346 -13.59375,6.0625 Z"
         id="path3826-7"
         inkscape:connector-curvature="0" /></clipPath><inkscape:perspective
       id="perspective2945-5"
       inkscape:persp3d-origin="0.5 : -15.666667 : 1"
       inkscape:vp_z="1 : -15.5 : 1"
       inkscape:vp_y="0 : 1000 : 0"
       inkscape:vp_x="0 : -15.5 : 1"
       sodipodi:type="inkscape:persp3d" /><clipPath
       clipPathUnits="userSpaceOnUse"
       id="clipPath3748-28"><path
         style="display:inline;fill:#ff00ff;fill-opacity:1;stroke:none"
         d="M -20,0 V 16 H -4 V 0 Z M -15.5,1.46875 -12,3.9375 -8.5,1.46875 -5,3.9375 -8.5,6.625 -5,8.96875 -12,14 -19,8.96875 -15.5,6.625 -19,3.9375 Z"
         id="path3750-9"
         inkscape:connector-curvature="0" /></clipPath><inkscape:perspective
       id="perspective2966-7"
       inkscape:persp3d-origin="0.5 : -15.666667 : 1"
       inkscape:vp_z="1 : -15.5 : 1"
       inkscape:vp_y="0 : 1000 : 0"
       inkscape:vp_x="0 : -15.5 : 1"
       sodipodi:type="inkscape:persp3d" /><clipPath
       clipPathUnits="userSpaceOnUse"
       id="clipPath3806-3"><path
         style="display:inline;fill:#ff00ff;fill-opacity:1;stroke:none"
         d="M -20,0 V 16 H -4 V 0 Z m 14.28125,1 c 0.1826931,0 0.3653865,0.084136 0.5,0.21875 0.269228,0.269228 0.269228,0.730773 0,1 L -8.03125,5 v 1.53125 a 0.52760556,0.52613824 0 0 1 -0.15625,0.375 L -10.15625,8.875 a 0.52760556,0.52613824 0 0 1 -0.0625,0.03125 l -2.6875,-2.6875 a 0.52760556,0.52613824 0 0 1 0,-0.03125 0.52760556,0.52613824 0 0 1 0.03125,-0.03125 l 1.96875,-1.96875 a 0.52760556,0.52613824 0 0 1 0.375,-0.15625 H -9 l 2.78125,-2.8125 C -6.084136,1.084136 -5.9014431,1 -5.71875,1 Z m -8.125,6.125 a 0.52760556,0.52613824 0 0 1 0.03125,0 l 2.6875,2.6875 a 0.52760556,0.52613824 0 0 1 0,0.03125 0.52760556,0.52613824 0 0 1 -0.03125,0.03125 L -13.125,11.84375 A 0.52760556,0.52613824 0 0 1 -13.5,12 h -1.53125 l -2.78125,2.8125 c -0.269228,0.269228 -0.730772,0.269228 -1,0 -0.269228,-0.269228 -0.269228,-0.730773 0,-1 L -16,11.03125 V 9.5 a 0.52760556,0.52613824 0 0 1 0.15625,-0.375 L -13.875,7.15625 A 0.52760556,0.52613824 0 0 1 -13.84375,7.125 Z"
         id="path3808-6"
         inkscape:connector-curvature="0" /></clipPath><clipPath
       clipPathUnits="userSpaceOnUse"
       id="clipPath3749-1"><path
         style="display:inline;fill:#ff00ff;fill-opacity:1;stroke:none"
         d="m -20,0 v 11 c 0,-0.554 0.446,-1 1,-1 h 1 c 0.554,0 1,0.446 1,1 v 2 c 0,0.554 -0.446,1 -1,1 h -1 c -0.554,0 -1,-0.446 -1,-1 v 3 H -4 V 0 Z m 13,1 h 1 c 0.554,0 1,0.446 1,1 v 11 c 0,0.554 -0.446,1 -1,1 h -1 c -0.554,0 -1,-0.446 -1,-1 V 2 c 0,-0.554 0.446,-1 1,-1 z m -4,3 h 1 c 0.554,0 1,0.446 1,1 v 8 c 0,0.554 -0.446,1 -1,1 h -1 c -0.554,0 -1,-0.446 -1,-1 V 5 c 0,-0.554 0.446,-1 1,-1 z m -4,3 h 1 c 0.554,0 1,0.446 1,1 v 5 c 0,0.554 -0.446,1 -1,1 h -1 c -0.554,0 -1,-0.446 -1,-1 V 8 c 0,-0.554 0.446,-1 1,-1 z"
         id="path3751-2"
         inkscape:connector-curvature="0" /></clipPath><clipPath
       clipPathUnits="userSpaceOnUse"
       id="clipPath3820-9"><path
         inkscape:connector-curvature="0"
         style="display:inline;fill:#ff00ff;fill-opacity:1;stroke:none"
         d="m -19.535739,2.999982 v 16 h 16.0000003 v -16 z m 6,1 h 4.0000003 c 0.554,0 1,0.446 1,1 v 4 h 1 c 0.554,0 1,0.446 1,1 v 6 c 0,0.554 -0.446,1 -1,1 h -8.0000003 c -0.554,0 -1,-0.446 -1,-1 v -6 c 0,-0.554 0.446,-1 1,-1 h 1 v -4 c 0,-0.554 0.446,-1 1,-1 z m 1,2 v 3 h 2 v -3 z"
         id="path3822-3" /></clipPath><inkscape:perspective
       sodipodi:type="inkscape:persp3d"
       inkscape:vp_x="0 : -5 : 1"
       inkscape:vp_y="0 : 1000 : 0"
       inkscape:vp_z="22 : -5 : 1"
       inkscape:persp3d-origin="11 : -8.6666667 : 1"
       id="perspective23-2" /><inkscape:perspective
       id="perspective2849-6"
       inkscape:persp3d-origin="0.5 : -15.666667 : 1"
       inkscape:vp_z="1 : -15.5 : 1"
       inkscape:vp_y="0 : 1000 : 0"
       inkscape:vp_x="0 : -15.5 : 1"
       sodipodi:type="inkscape:persp3d" /><inkscape:perspective
       id="perspective2917-0"
       inkscape:persp3d-origin="0.5 : -15.666667 : 1"
       inkscape:vp_z="1 : -15.5 : 1"
       inkscape:vp_y="0 : 1000 : 0"
       inkscape:vp_x="0 : -15.5 : 1"
       sodipodi:type="inkscape:persp3d" /><inkscape:perspective
       id="perspective3777-9"
       inkscape:persp3d-origin="0.5 : -15.666667 : 1"
       inkscape:vp_z="1 : -15.5 : 1"
       inkscape:vp_y="0 : 1000 : 0"
       inkscape:vp_x="0 : -15.5 : 1"
       sodipodi:type="inkscape:persp3d" /><clipPath
       clipPathUnits="userSpaceOnUse"
       id="clipPath3824-2"><path
         style="display:inline;fill:#ff00ff;fill-opacity:1;stroke:none"
         d="M -20,0 V 16 H -4 V 0 Z M -7.625,1 C -5.995915,2.9288438 -5,5.3432918 -5,8 c 1e-6,2.708425 -1.032388,5.178784 -2.71875,7.125 l -1.5,-1.25 c 1.364366,-1.613056 2.1875,-3.651801 2.1875,-5.875 0,-2.1639699 -0.76332,-4.1574263 -2.0625,-5.75 z M -9.8125,2.84375 C -8.662551,4.2737473 -8,6.0683029 -8,8 c 0,1.9878056 -0.722863,3.803569 -1.9375,5.25 l -1.5,-1.28125 C -10.539955,10.861821 -10,9.5005507 -10,8 -10,6.5562172 -10.506676,5.24065 -11.34375,4.15625 Z M -15,3.96875 v 8 L -17,10 h -1.5 C -18.777,10 -19,9.777 -19,9.5 v -3 C -19,6.223 -18.777,6 -18.5,6 H -17 Z M -12.0625,4.75 C -11.393055,5.6663669 -11,6.8041149 -11,8 c 0,1.2594208 -0.420217,2.432325 -1.15625,3.375 L -13.6875,10.0625 C -13.263995,9.4700266 -13,8.7691247 -13,8 -13,7.2815285 -13.219346,6.6300346 -13.59375,6.0625 Z"
         id="path3826-3"
         inkscape:connector-curvature="0" /></clipPath><inkscape:perspective
       id="perspective2945-7"
       inkscape:persp3d-origin="0.5 : -15.666667 : 1"
       inkscape:vp_z="1 : -15.5 : 1"
       inkscape:vp_y="0 : 1000 : 0"
       inkscape:vp_x="0 : -15.5 : 1"
       sodipodi:type="inkscape:persp3d" /><clipPath
       clipPathUnits="userSpaceOnUse"
       id="clipPath3748-2"><path
         style="display:inline;fill:#ff00ff;fill-opacity:1;stroke:none"
         d="M -20,0 V 16 H -4 V 0 Z M -15.5,1.46875 -12,3.9375 -8.5,1.46875 -5,3.9375 -8.5,6.625 -5,8.96875 -12,14 -19,8.96875 -15.5,6.625 -19,3.9375 Z"
         id="path3750-2"
         inkscape:connector-curvature="0" /></clipPath><inkscape:perspective
       id="perspective2966-8"
       inkscape:persp3d-origin="0.5 : -15.666667 : 1"
       inkscape:vp_z="1 : -15.5 : 1"
       inkscape:vp_y="0 : 1000 : 0"
       inkscape:vp_x="0 : -15.5 : 1"
       sodipodi:type="inkscape:persp3d" /><clipPath
       clipPathUnits="userSpaceOnUse"
       id="clipPath3806-9"><path
         style="display:inline;fill:#ff00ff;fill-opacity:1;stroke:none"
         d="M -20,0 V 16 H -4 V 0 Z m 14.28125,1 c 0.1826931,0 0.3653865,0.084136 0.5,0.21875 0.269228,0.269228 0.269228,0.730773 0,1 L -8.03125,5 v 1.53125 a 0.52760556,0.52613824 0 0 1 -0.15625,0.375 L -10.15625,8.875 a 0.52760556,0.52613824 0 0 1 -0.0625,0.03125 l -2.6875,-2.6875 a 0.52760556,0.52613824 0 0 1 0,-0.03125 0.52760556,0.52613824 0 0 1 0.03125,-0.03125 l 1.96875,-1.96875 a 0.52760556,0.52613824 0 0 1 0.375,-0.15625 H -9 l 2.78125,-2.8125 C -6.084136,1.084136 -5.9014431,1 -5.71875,1 Z m -8.125,6.125 a 0.52760556,0.52613824 0 0 1 0.03125,0 l 2.6875,2.6875 a 0.52760556,0.52613824 0 0 1 0,0.03125 0.52760556,0.52613824 0 0 1 -0.03125,0.03125 L -13.125,11.84375 A 0.52760556,0.52613824 0 0 1 -13.5,12 h -1.53125 l -2.78125,2.8125 c -0.269228,0.269228 -0.730772,0.269228 -1,0 -0.269228,-0.269228 -0.269228,-0.730773 0,-1 L -16,11.03125 V 9.5 a 0.52760556,0.52613824 0 0 1 0.15625,-0.375 L -13.875,7.15625 A 0.52760556,0.52613824 0 0 1 -13.84375,7.125 Z"
         id="path3808-7"
         inkscape:connector-curvature="0" /></clipPath><clipPath
       clipPathUnits="userSpaceOnUse"
       id="clipPath3749-3"><path
         style="display:inline;fill:#ff00ff;fill-opacity:1;stroke:none"
         d="m -20,0 v 11 c 0,-0.554 0.446,-1 1,-1 h 1 c 0.554,0 1,0.446 1,1 v 2 c 0,0.554 -0.446,1 -1,1 h -1 c -0.554,0 -1,-0.446 -1,-1 v 3 H -4 V 0 Z m 13,1 h 1 c 0.554,0 1,0.446 1,1 v 11 c 0,0.554 -0.446,1 -1,1 h -1 c -0.554,0 -1,-0.446 -1,-1 V 2 c 0,-0.554 0.446,-1 1,-1 z m -4,3 h 1 c 0.554,0 1,0.446 1,1 v 8 c 0,0.554 -0.446,1 -1,1 h -1 c -0.554,0 -1,-0.446 -1,-1 V 5 c 0,-0.554 0.446,-1 1,-1 z m -4,3 h 1 c 0.554,0 1,0.446 1,1 v 5 c 0,0.554 -0.446,1 -1,1 h -1 c -0.554,0 -1,-0.446 -1,-1 V 8 c 0,-0.554 0.446,-1 1,-1 z"
         id="path3751-6"
         inkscape:connector-curvature="0" /></clipPath><clipPath
       clipPathUnits="userSpaceOnUse"
       id="clipPath3820-1"><path
         inkscape:connector-curvature="0"
         style="display:inline;fill:#ff00ff;fill-opacity:1;stroke:none"
         d="m -19.535739,2.999982 v 16 h 16.0000003 v -16 z m 6,1 h 4.0000003 c 0.554,0 1,0.446 1,1 v 4 h 1 c 0.554,0 1,0.446 1,1 v 6 c 0,0.554 -0.446,1 -1,1 h -8.0000003 c -0.554,0 -1,-0.446 -1,-1 v -6 c 0,-0.554 0.446,-1 1,-1 h 1 v -4 c 0,-0.554 0.446,-1 1,-1 z m 1,2 v 3 h 2 v -3 z"
         id="path3822-2" /></clipPath></defs><sodipodi:namedview
     id="base"
     pagecolor="#000000"
     bordercolor="#e7e7e7"
     borderopacity="1"
     inkscape:pageopacity="0"
     inkscape:pageshadow="2"
     inkscape:zoom="16.769565"
     inkscape:cx="-5.7842884"
     inkscape:cy="12.075447"
     inkscape:document-units="px"
     inkscape:current-layer="layer1"
     showgrid="true"
     inkscape:showpageshadow="false"
     showguides="true"
     inkscape:guide-bbox="true"
     inkscape:window-width="1366"
     inkscape:window-height="710"
     inkscape:window-x="0"
     inkscape:window-y="25"
     inkscape:window-maximized="1"
     inkscape:snap-global="false"
     inkscape:pagecheckerboard="0"
     inkscape:deskcolor="#000000"><sodipodi:guide
       orientation="1,0"
       position="0,104"
       id="guide2383"
       inkscape:locked="false" /><sodipodi:guide
       orientation="0,1"
       position="78.156291,-8"
       id="guide2389"
       inkscape:locked="false" /><inkscape:grid
       type="xygrid"
       id="grid3672"
       visible="true"
       enabled="true"
       originx="0"
       originy="0" /><sodipodi:guide
       orientation="1,0"
       position="22.008699,-3.8457477"
       id="guide2950"
       inkscape:locked="false" /><sodipodi:guide
       orientation="0,1"
       position="11.22532,14.008699"
       id="guide2952"
       inkscape:locked="false" /></sodipodi:namedview><metadata
     id="metadata7"><rdf:RDF><cc:Work
         rdf:about=""><dc:format>image/svg+xml</dc:format><dc:type
           rdf:resource="http://purl.org/dc/dcmitype/StillImage" /></cc:Work></rdf:RDF></metadata><g
     inkscape:label="Calque 1"
     inkscape:groupmode="layer"
     id="layer1"
     transform="translate(0,8)"><g
       id="g1211"
       transform="translate(45.031372,1.3808658)"
       style="fill:#444444;fill-opacity:1"><path
         style="fill:#444444;fill-opacity:1"
         d="M -37.031372,0.62304018"
         id="path564" /><path
         style="opacity:0.3;fill:#444444;fill-opacity:1"
         d="m -37.031372,0.62304018 c -0.511719,0 -1.023438,0.195312 -1.414062,0.58593802 -0.78125,0.78125 -0.78125,2.046874 0,2.828124 0.78125,0.78125 2.046874,0.78125 2.828124,0 0.78125,-0.78125 0.78125,-2.046874 0,-2.828124 -0.390624,-0.39062602 -0.902343,-0.58593802 -1.414062,-0.58593802 z"
         id="path562" /><path
         style="opacity:0.3;fill:#444444;fill-opacity:1"
         d="m -37.062622,-3.3769594 c -1.570312,0.011719 -3.128906,0.628906 -4.207031,1.8125 l -0.5,0.5507809 c -0.179688,0.195313 -0.277344,0.453125 -0.261719,0.71875 0.01172,0.265625 0.128906,0.515625 0.328125,0.695313 0.195313,0.17968698 0.453125,0.27343668 0.71875,0.25781168 0.265625,-0.01172 0.515625,-0.1289058 0.695313,-0.32812468 l 0.496093,-0.546875 c 1.277344,-1.4023439 4.160157,-1.4960939 5.523438,0.0039 l 0.5,0.542969 c 0.175781,0.19921498 0.425781,0.31640268 0.691406,0.32812068 0.265625,0.01563 0.523437,-0.07813 0.722656,-0.25781168 0.195313,-0.179688 0.3125,-0.429688 0.324219,-0.695313 0.01172,-0.261719 -0.08203,-0.523437 -0.261719,-0.71875 l -0.5,-0.5468748 c -1.121093,-1.2343751 -2.703125,-1.8281251 -4.269531,-1.8164061 z"
         id="path560" /><path
         style="opacity:0.3;fill:#444444;fill-opacity:1"
         d="m -37.031372,-7.3847714 c -2.617188,0 -5.238281,0.933593 -7.195312,2.808593 l -0.496094,0.480469 c -0.398437,0.378906 -0.410156,1.011719 -0.03125,1.410156 0.382812,0.398438 1.015625,0.410156 1.414062,0.03125 l 0.5,-0.476562 c 3.085938,-2.957032 8.53125,-2.957032 11.617188,0 l 0.5,0.476562 c 0.398437,0.378906 1.03125,0.367188 1.414062,-0.03125 0.378906,-0.398437 0.367188,-1.03125 -0.03125,-1.410156 l -0.496094,-0.484375 c -1.957031,-1.871094 -4.578124,-2.804687 -7.195312,-2.804687 z"
         id="path2" /></g></g></svg>
