<?xml version="1.0" encoding="UTF-8" standalone="no"?>
<svg
   width="16"
   height="16"
   version="1.1"
   id="svg9"
   sodipodi:docname="network-cellular-secure-signal-none.svg"
   xml:space="preserve"
   inkscape:version="1.2.1 (9c6d41e410, 2022-07-14)"
   xmlns:inkscape="http://www.inkscape.org/namespaces/inkscape"
   xmlns:sodipodi="http://sodipodi.sourceforge.net/DTD/sodipodi-0.dtd"
   xmlns="http://www.w3.org/2000/svg"
   xmlns:svg="http://www.w3.org/2000/svg"><sodipodi:namedview
     id="namedview11"
     pagecolor="#ffffff"
     bordercolor="#000000"
     borderopacity="0.25"
     inkscape:showpageshadow="2"
     inkscape:pageopacity="0.0"
     inkscape:pagecheckerboard="0"
     inkscape:deskcolor="#d1d1d1"
     showgrid="false"
     inkscape:zoom="16.453125"
     inkscape:cx="-6.5641026"
     inkscape:cy="14.981956"
     inkscape:current-layer="svg9" /><defs
     id="defs3"><style
       id="current-color-scheme"
       type="text/css">
   .ColorScheme-Text { color:#dfdfdf; } .ColorScheme-Highlight { color:#4285f4; }
  </style><style
       id="current-color-scheme-67"
       type="text/css">
   .ColorScheme-Text { color:#dfdfdf; } .ColorScheme-Highlight { color:#4285f4; }
  </style><style
       id="current-color-scheme-5"
       type="text/css">
   .ColorScheme-Text { color:#dfdfdf; } .ColorScheme-Highlight { color:#4285f4; }
  </style><style
       id="current-color-scheme-6"
       type="text/css">
   .ColorScheme-Text { color:#dfdfdf; } .ColorScheme-Highlight { color:#4285f4; }
  </style></defs><g
     id="g806"><path
       style="display:inline;fill:#444444;fill-opacity:1;stroke-width:0.5"
       d="M 13,8.9999997 C 11.892,8.9999997 11,9.892 11,11 v 1 H 10.5 C 10.223,12 10,12.223 10,12.5 v 3 c 0,0.277 0.223,0.5 0.5,0.5 h 5 c 0.277,0 0.5,-0.223 0.5,-0.5 v -3 C 16,12.223 15.777,12 15.5,12 H 15 V 11 C 15,9.892 14.108,8.9999997 13,8.9999997 Z M 13,10 c 0.554,0 1,0.446 1,1 v 1 h -2 v -1 c 0,-0.554 0.446,-1 1,-1 z"
       id="path240" /><path
       style="display:inline;opacity:0.3;fill:#444444;fill-opacity:1"
       d="m 1,10 c -0.554687,0 -1,0.445314 -1,1 v 3 c 0,0.554686 0.445313,1 1,1 h 1 c 0.554687,0 1,-0.445314 1,-1 V 11 C 3,10.445314 2.554687,10 2,10 Z"
       id="path324" /><path
       style="display:inline;opacity:0.3;fill:#444444;fill-opacity:1"
       d="m 5,6.9999996 c -0.554687,0 -1,0.4453133 -1,1 V 14 c 0,0.554686 0.445313,1 1,1 h 1 c 0.554687,0 1,-0.445314 1,-1 V 7.9999996 c 0,-0.5546867 -0.445313,-1 -1,-1 z"
       id="path322" /><path
       style="display:inline;opacity:0.3;fill:#444444;fill-opacity:1"
       d="m 9,3.9999997 c -0.554687,0 -1,0.4453132 -1,0.9999999 V 14 c 0,0.554686 0.345704,1 0.900391,1 h 0.177734 v -3.138672 c 1.1e-5,-0.249191 0.102911,-0.626953 0.542969,-0.626953 h 0.480468 v -0.107422 h -0.002 v -0.210937 c 0,-0.751045 0.287591,-1.4324007 0.757813,-1.9414069 C 10.906025,8.9153841 10.955535,8.8527058 11,8.7988277 V 4.9999996 C 10.999939,4.4453129 10.554686,3.9999997 10,3.9999997 Z"
       id="path320" /><path
       style="display:inline;opacity:0.3;fill:#444444;fill-opacity:1"
       d="m 13,0.9999997 c -0.554686,0 -1,0.4453132 -1,0.9999999 v 6.2226563 c 0.29835,-0.1052348 0.619724,-0.1640625 0.955078,-0.1640625 0.517047,0 1.000393,0.1366791 1.417969,0.375 0.233699,0.1333776 0.446722,0.2986641 0.632812,0.4902344 l -0.0059,-6.9238281 c -4.86e-4,-0.5546866 -0.445314,-1 -1,-1 z"
       id="path2" /></g></svg>
