<?xml version="1.0" encoding="UTF-8" standalone="no"?>
<svg
   width="16"
   height="16"
   version="1.1"
   id="svg7"
   sodipodi:docname="network-cellular-no-route.svg"
   xml:space="preserve"
   inkscape:version="1.2.1 (9c6d41e410, 2022-07-14)"
   xmlns:inkscape="http://www.inkscape.org/namespaces/inkscape"
   xmlns:sodipodi="http://sodipodi.sourceforge.net/DTD/sodipodi-0.dtd"
   xmlns="http://www.w3.org/2000/svg"
   xmlns:svg="http://www.w3.org/2000/svg"><sodipodi:namedview
     id="namedview9"
     pagecolor="#ffffff"
     bordercolor="#000000"
     borderopacity="0.25"
     inkscape:showpageshadow="2"
     inkscape:pageopacity="0.0"
     inkscape:pagecheckerboard="0"
     inkscape:deskcolor="#d1d1d1"
     showgrid="false"
     inkscape:zoom="23.268233"
     inkscape:cx="-6.7473968"
     inkscape:cy="9.1756001"
     inkscape:current-layer="svg7" /><defs
     id="defs3"><style
       id="current-color-scheme"
       type="text/css">
   .ColorScheme-Text { color:#dfdfdf; } .ColorScheme-Highlight { color:#4285f4; }
  </style><style
       id="current-color-scheme-6"
       type="text/css">
   .ColorScheme-Text { color:#dfdfdf; } .ColorScheme-Highlight { color:#4285f4; }
  </style></defs><g
     id="g849"><path
       d="m 13,1 c -0.554688,0 -1,0.445312 -1,1 v 12 c 0,0.554688 0.445312,1 1,1 h 1 c 0.554688,0 1,-0.445312 1,-1 V 2 C 15,1.445312 14.554688,1 14,1 Z M 4.25,7.347656 C 4.097656,7.523438 4,7.75 4,8 v 6 c 0,0.554688 0.445312,1 1,1 h 1 c 0.554688,0 1,-0.445312 1,-1 V 13.71875 C 6.386719,13.363281 6.003906,12.710938 6,12 V 9.453125 C 5.1875,8.980469 4.566406,8.234375 4.25,7.347656 Z M 11,8.625 C 10.714844,8.953125 10.375,9.234375 10,9.453125 V 12 c 0,1.105469 -0.894531,2 -2,2 0,0.554688 0.445312,1 1,1 h 1 c 0.554688,0 1,-0.445312 1,-1 z M 1,10 c -0.554688,0 -1,0.445312 -1,1 v 3 c 0,0.554688 0.445312,1 1,1 h 1 c 0.554688,0 1,-0.445312 1,-1 V 11 C 3,10.445312 2.554688,10 2,10 Z m 0,0"
       fill="#2e3434"
       fill-opacity="0.34902"
       id="path2"
       style="opacity:0.3;fill:#444444;fill-opacity:1" /><path
       d="M 8.152344,3.007812 C 7.714844,2.984375 7.269531,3.054688 6.851562,3.230469 5.734375,3.691406 5,4.789062 5,6 H 7 C 7,5.59375 7.242188,5.230469 7.617188,5.074219 7.992188,4.921875 8.417969,5.003906 8.707031,5.292969 8.996094,5.582031 9.078125,6.007812 8.925781,6.382812 8.769531,6.757812 8.40625,7 8,7 7.449219,7 7,7.449219 7,8 v 2 H 9 V 8.820312 c 0.785156,-0.28125 1.441406,-0.875 1.769531,-1.671874 C 11.234375,6.03125 10.976562,4.734375 10.121094,3.878906 9.585938,3.34375 8.878906,3.042969 8.152344,3.007812 Z M 8,11 c -0.550781,0 -1,0.449219 -1,1 0,0.550781 0.449219,1 1,1 0.550781,0 1,-0.449219 1,-1 0,-0.550781 -0.449219,-1 -1,-1 z m 0,0"
       fill="#2e3436"
       id="path4"
       style="fill:#444444;fill-opacity:1" /></g></svg>
