<?xml version="1.0" encoding="UTF-8" standalone="no"?>
<svg
   width="16"
   height="16"
   version="1.1"
   id="svg11"
   sodipodi:docname="phone-battery-caution.svg"
   xml:space="preserve"
   inkscape:version="1.2.1 (9c6d41e410, 2022-07-14)"
   xmlns:inkscape="http://www.inkscape.org/namespaces/inkscape"
   xmlns:sodipodi="http://sodipodi.sourceforge.net/DTD/sodipodi-0.dtd"
   xmlns="http://www.w3.org/2000/svg"
   xmlns:svg="http://www.w3.org/2000/svg"><sodipodi:namedview
     id="namedview13"
     pagecolor="#ffffff"
     bordercolor="#000000"
     borderopacity="0.25"
     inkscape:showpageshadow="2"
     inkscape:pageopacity="0.0"
     inkscape:pagecheckerboard="0"
     inkscape:deskcolor="#d1d1d1"
     showgrid="false"
     inkscape:zoom="16.046875"
     inkscape:cx="0.56085686"
     inkscape:cy="9.7526777"
     inkscape:current-layer="svg11" /><defs
     id="defs3"><style
       id="current-color-scheme"
       type="text/css">
   .ColorScheme-Text { color:#dfdfdf; } .ColorScheme-Highlight { color:#4285f4; } .ColorScheme-NeutralText { color:#ff9800; } .ColorScheme-PositiveText { color:#4caf50; } .ColorScheme-NegativeText { color:#f44336; }
  </style><style
       id="current-color-scheme-53"
       type="text/css">
   .ColorScheme-Text { color:#dfdfdf; } .ColorScheme-Highlight { color:#4285f4; }
  </style><style
       id="current-color-scheme-5"
       type="text/css">
   .ColorScheme-Text { color:#dfdfdf; } .ColorScheme-Highlight { color:#4285f4; } .ColorScheme-NeutralText { color:#ff9800; } .ColorScheme-PositiveText { color:#4caf50; } .ColorScheme-NegativeText { color:#f44336; }
  </style></defs><path
     style="fill:#f44336;fill-opacity:1"
     class="ColorScheme-Text"
     d="m 9.5,2 c -0.554,0 -1,0.446 -1,1 v 10 c 0,0.554 0.446,1 1,1 h 5 c 0.554,0 1,-0.446 1,-1 V 3 c 0,-0.554 -0.446,-1 -1,-1 z m 0.714844,1 h 3.570312 C 14.180871,3 14.5,3.3345 14.5,3.75 v 7.5 C 14.5,11.6655 14.180871,12 13.785156,12 H 10.214844 C 9.819129,12 9.5,11.6655 9.5,11.25 V 3.75 C 9.5,3.3345 9.819129,3 10.214844,3 Z"
     id="path9" /><path
     id="path313"
     style="fill:#f44336;fill-opacity:1;stroke-width:0.615584"
     d="M 0.5,12.105265 C 0.5,13.149898 1.307601,14 2.300001,14 h 3.6 c 0.992399,0 1.8,-0.850102 1.8,-1.894735 V 5.1578983 c 0,-1.0446328 -0.807601,-1.89474 -1.8,-1.89474 C 5.900001,2.5658981 5.362399,1.9999999 4.7,1.9999999 H 3.500001 c -0.6624,0 -1.2,0.5658982 -1.2,1.2631584 -0.9924,0 -1.800001,0.8501072 -1.800001,1.89474 z m 1.2,0 V 5.1578983 c 0,-0.348 0.2688,-0.6315818 0.600001,-0.6315818 h 3.6 c 0.3312,0 0.599999,0.2835818 0.599999,0.6315818 v 6.9473667 c 0,0.348001 -0.268799,0.631576 -0.599999,0.631576 h -3.6 C 1.9688,12.736841 1.7,12.453266 1.7,12.105265 Z" /></svg>
