<?xml version="1.0" encoding="UTF-8" standalone="no"?>
<svg
   width="16"
   height="16"
   version="1.1"
   id="svg9"
   sodipodi:docname="radiotray_on.svg"
   inkscape:version="1.2.1 (9c6d41e410, 2022-07-14)"
   xmlns:inkscape="http://www.inkscape.org/namespaces/inkscape"
   xmlns:sodipodi="http://sodipodi.sourceforge.net/DTD/sodipodi-0.dtd"
   xmlns="http://www.w3.org/2000/svg"
   xmlns:svg="http://www.w3.org/2000/svg">
  <sodipodi:namedview
     id="namedview11"
     pagecolor="#ffffff"
     bordercolor="#000000"
     borderopacity="0.25"
     inkscape:showpageshadow="2"
     inkscape:pageopacity="0.0"
     inkscape:pagecheckerboard="0"
     inkscape:deskcolor="#d1d1d1"
     showgrid="false"
     inkscape:zoom="65.8125"
     inkscape:cx="7.9924027"
     inkscape:cy="8.0151947"
     inkscape:current-layer="svg9" />
  <defs
     id="defs3">
    <style
       id="current-color-scheme"
       type="text/css">
   .ColorScheme-Text { color:#dfdfdf; } .ColorScheme-Highlight { color:#4285f4; } .ColorScheme-NeutralText { color:#ff9800; } .ColorScheme-PositiveText { color:#4caf50; } .ColorScheme-NegativeText { color:#f44336; }
  </style>
  </defs>
  <path
     style="fill:#444444;fill-opacity:1"
     class="ColorScheme-Text"
     d="M 1.142578,1.9999999 C 0.509435,1.9999999 0,2.5344188 0,3.1992187 V 12.800781 C 0,13.465581 0.509435,14 1.142578,14 H 14.857422 C 15.490565,14 16,13.465581 16,12.800781 V 3.1992187 C 16,2.5344186 15.490565,1.9999999 14.857422,1.9999999 Z m 3.857422,2 c 2.209067,0 4,1.7909332 4,4.0000002 C 9,10.209066 7.209067,12 5,12 2.790933,12 1,10.209066 1,8.0000001 1,5.7909331 2.790933,3.9999999 5,3.9999999 Z m 5,0 h 5 v 1.0000002 h -5 z m 0,2.0000002 h 5 v 1 h -5 z m 0,2 h 5 v 1 H 10 Z M 11,10 c 0.552285,0 1,0.447715 1,1 0,0.552285 -0.447715,1 -1,1 -0.552285,0 -1,-0.447715 -1,-1 0,-0.552285 0.447715,-1 1,-1 z m 3,0 c 0.552285,0 1,0.447715 1,1 0,0.552285 -0.447715,1 -1,1 -0.552285,0 -1,-0.447715 -1,-1 0,-0.552285 0.447715,-1 1,-1 z"
     id="path5" />
  <circle
     style="fill:currentColor"
     class="ColorScheme-Highlight"
     cx="5"
     cy="8"
     r="2"
     id="circle7" />
</svg>
