<?xml version="1.0" encoding="UTF-8" standalone="no"?>
<svg
   width="16"
   height="16"
   version="1"
   id="svg7"
   sodipodi:docname="simplescreenrecorder-paused.svg"
   xml:space="preserve"
   inkscape:version="1.2.1 (9c6d41e410, 2022-07-14)"
   xmlns:inkscape="http://www.inkscape.org/namespaces/inkscape"
   xmlns:sodipodi="http://sodipodi.sourceforge.net/DTD/sodipodi-0.dtd"
   xmlns="http://www.w3.org/2000/svg"
   xmlns:svg="http://www.w3.org/2000/svg"><sodipodi:namedview
     id="namedview9"
     pagecolor="#ffffff"
     bordercolor="#000000"
     borderopacity="0.25"
     inkscape:showpageshadow="2"
     inkscape:pageopacity="0.0"
     inkscape:pagecheckerboard="0"
     inkscape:deskcolor="#d1d1d1"
     showgrid="false"
     inkscape:zoom="32.90625"
     inkscape:cx="-0.39506173"
     inkscape:cy="10.2868"
     inkscape:current-layer="svg7" /><defs
     id="defs3"><style
       id="current-color-scheme"
       type="text/css">
   .ColorScheme-Text { color:#dfdfdf; } .ColorScheme-Highlight { color:#4285f4; }
  </style></defs><path
     id="path5"
     style="fill:#444444;fill-opacity:1"
     class="ColorScheme-Text"
     d="M 1.1816406 2 C 0.52694196 2 1.4802959e-16 2.53442 0 3.1992188 L 0 12.800781 C 0 13.465781 0.52694196 14 1.1816406 14 L 10.818359 14 C 11.473359 14 12 13.465781 12 12.800781 L 12 10 L 16 12 L 16 4 L 12 6 L 12 3.1992188 C 12 2.53442 11.473359 2 10.818359 2 L 1.1816406 2 z M 3.5 4.5 L 5 4.5 C 5.2753899 4.5 5.5 4.7246101 5.5 5 L 5.5 11 C 5.5 11.27539 5.2753899 11.5 5 11.5 L 3.5 11.5 C 3.2246101 11.5 3 11.27539 3 11 L 3 5 C 3 4.7246101 3.2246101 4.5 3.5 4.5 z M 7 4.5 L 8.5 4.5 C 8.7753902 4.5 9 4.7246098 9 5 L 9 11 C 9 11.27539 8.7753902 11.5 8.5 11.5 L 7 11.5 C 6.7246098 11.5 6.5 11.27539 6.5 11 L 6.5 5 C 6.5 4.7246098 6.7246098 4.5 7 4.5 z " /><g
     fill="#2e3436"
     id="g6"
     style="fill:#444444;fill-opacity:1"
     transform="matrix(0.5,0,0,0.5,2,4)" /></svg>
