<?xml version="1.0" encoding="UTF-8" standalone="no"?>
<svg
   width="16"
   height="16"
   version="1"
   id="svg7"
   sodipodi:docname="simplescreenrecorder-error.svg"
   xml:space="preserve"
   inkscape:version="1.2.1 (9c6d41e410, 2022-07-14)"
   xmlns:inkscape="http://www.inkscape.org/namespaces/inkscape"
   xmlns:sodipodi="http://sodipodi.sourceforge.net/DTD/sodipodi-0.dtd"
   xmlns="http://www.w3.org/2000/svg"
   xmlns:svg="http://www.w3.org/2000/svg"><sodipodi:namedview
     id="namedview9"
     pagecolor="#ffffff"
     bordercolor="#000000"
     borderopacity="0.25"
     inkscape:showpageshadow="2"
     inkscape:pageopacity="0.0"
     inkscape:pagecheckerboard="0"
     inkscape:deskcolor="#d1d1d1"
     showgrid="false"
     inkscape:zoom="32.90625"
     inkscape:cx="1.4283001"
     inkscape:cy="10.560304"
     inkscape:current-layer="svg7" /><defs
     id="defs3"><style
       id="current-color-scheme"
       type="text/css">
   .ColorScheme-Text { color:#dfdfdf; } .ColorScheme-Highlight { color:#4285f4; } .ColorScheme-NeutralText { color:#ff9800; } .ColorScheme-PositiveText { color:#4caf50; } .ColorScheme-NegativeText { color:#f44336; }
  </style></defs><path
     id="path5"
     style="fill:currentColor"
     class="ColorScheme-NegativeText"
     d="M 1.1816406 2 C 0.52694137 2 1.4802959e-16 2.5344192 0 3.1992188 L 0 12.800781 C 0 13.465781 0.52694135 14 1.1816406 14 L 10.818359 14 C 11.473359 14 12 13.465781 12 12.800781 L 12 10 L 16 12 L 16 4 L 12 6 L 12 3.1992188 C 12 2.5344192 11.473359 2 10.818359 2 L 1.1816406 2 z M 3.6660156 4.5 C 3.9759112 4.5 4.2734377 4.6230471 4.4921875 4.8417969 L 6 6.3496094 L 7.5078125 4.8417969 C 7.7265623 4.6230471 8.0240887 4.5 8.3339844 4.5 C 8.64388 4.5 8.9394534 4.6230471 9.1582031 4.8417969 C 9.6139326 5.2975256 9.6139326 6.0364587 9.1582031 6.4921875 L 7.6503906 8 L 9.1582031 9.5078125 C 9.6139326 9.9635406 9.6139326 10.702475 9.1582031 11.158203 C 8.7024748 11.613933 7.9635408 11.613933 7.5078125 11.158203 L 6 9.6503906 L 4.4921875 11.158203 C 4.0364576 11.613933 3.2975255 11.613933 2.8417969 11.158203 C 2.3860684 10.702475 2.3860684 9.9635406 2.8417969 9.5078125 L 4.3496094 8 L 2.8417969 6.4921875 C 2.3860684 6.0364587 2.3860684 5.2975256 2.8417969 4.8417969 C 3.0605467 4.6230471 3.3561199 4.5 3.6660156 4.5 z " /></svg>
