<?xml version="1.0" encoding="UTF-8" standalone="no"?>
<svg
   width="16"
   height="16"
   version="1.1"
   id="svg11"
   sodipodi:docname="superproductivity-tray-3.svg"
   inkscape:version="1.2.1 (9c6d41e410, 2022-07-14)"
   xmlns:inkscape="http://www.inkscape.org/namespaces/inkscape"
   xmlns:sodipodi="http://sodipodi.sourceforge.net/DTD/sodipodi-0.dtd"
   xmlns="http://www.w3.org/2000/svg"
   xmlns:svg="http://www.w3.org/2000/svg">
  <sodipodi:namedview
     id="namedview13"
     pagecolor="#ffffff"
     bordercolor="#000000"
     borderopacity="0.25"
     inkscape:showpageshadow="2"
     inkscape:pageopacity="0.0"
     inkscape:pagecheckerboard="0"
     inkscape:deskcolor="#d1d1d1"
     showgrid="false"
     inkscape:zoom="65.8125"
     inkscape:cx="7.9924027"
     inkscape:cy="8.0151947"
     inkscape:current-layer="svg11" />
  <defs
     id="defs3">
    <style
       id="current-color-scheme"
       type="text/css">
   .ColorScheme-Text { color:#dfdfdf; } .ColorScheme-Highlight { color:#4285f4; } .ColorScheme-NeutralText { color:#ff9800; } .ColorScheme-PositiveText { color:#4caf50; } .ColorScheme-NegativeText { color:#f44336; }
  </style>
  </defs>
  <path
     style="fill:#444444;fill-opacity:1"
     class="ColorScheme-Text"
     d="M 6.748047,5 A 0.73085587,0.79027464 0 0 0 6,5.792969 v 4.416015 a 0.73085587,0.79027464 0 0 0 1.095703,0.685547 l 3.539063,-2.208984 a 0.73085587,0.79027464 0 0 0 0,-1.369141 L 7.095703,5.105469 A 0.73085587,0.79027464 0 0 0 6.748047,5 Z"
     id="path5" />
  <path
     style="opacity:0.3;fill:#444444;fill-opacity:1"
     class="ColorScheme-Text"
     d="M 8,0 C 3.5935666,0 0,3.5935666 0,8 c 0,4.406433 3.5935666,8 8,8 4.406433,0 8,-3.593567 8,-8 C 16,3.5935666 12.406433,0 8,0 Z m 0,2 c 3.325553,0 6,2.6744469 6,6 0,3.325553 -2.674447,6 -6,6 C 4.6744469,14 2,11.325553 2,8 2,4.6744469 4.6744469,2 8,2 Z"
     id="path7" />
  <path
     style="fill:#444444;fill-opacity:1"
     class="ColorScheme-Text"
     d="m 8,0 v 2 a 6,6 0 0 1 5.699219,4.148438 L 15.609375,5.527344 A 8,8 0 0 0 8,0 Z"
     id="path9" />
</svg>
