<?xml version="1.0" encoding="UTF-8" standalone="no"?>
<svg
   width="16"
   height="16"
   version="1.1"
   id="svg11"
   sodipodi:docname="superproductivity-tray-14.svg"
   inkscape:version="1.2.1 (9c6d41e410, 2022-07-14)"
   xmlns:inkscape="http://www.inkscape.org/namespaces/inkscape"
   xmlns:sodipodi="http://sodipodi.sourceforge.net/DTD/sodipodi-0.dtd"
   xmlns="http://www.w3.org/2000/svg"
   xmlns:svg="http://www.w3.org/2000/svg">
  <sodipodi:namedview
     id="namedview13"
     pagecolor="#ffffff"
     bordercolor="#000000"
     borderopacity="0.25"
     inkscape:showpageshadow="2"
     inkscape:pageopacity="0.0"
     inkscape:pagecheckerboard="0"
     inkscape:deskcolor="#d1d1d1"
     showgrid="false"
     inkscape:zoom="65.8125"
     inkscape:cx="7.9924027"
     inkscape:cy="8.0151947"
     inkscape:current-layer="svg11" />
  <defs
     id="defs3">
    <style
       id="current-color-scheme"
       type="text/css">
   .ColorScheme-Text { color:#dfdfdf; } .ColorScheme-Highlight { color:#4285f4; } .ColorScheme-NeutralText { color:#ff9800; } .ColorScheme-PositiveText { color:#4caf50; } .ColorScheme-NegativeText { color:#f44336; }
  </style>
  </defs>
  <path
     style="fill:#444444;fill-opacity:1"
     class="ColorScheme-Text"
     d="M 6.749068,5 A 0.73085587,0.79027464 0 0 0 6.001021,5.792969 v 4.416015 a 0.73085587,0.79027464 0 0 0 1.095703,0.685547 l 3.539063,-2.208984 a 0.73085587,0.79027464 0 0 0 0,-1.369141 L 7.096724,5.105469 A 0.73085587,0.79027464 0 0 0 6.749068,5 Z"
     id="path5" />
  <path
     style="opacity:0.3;fill:#444444;fill-opacity:1"
     class="ColorScheme-Text"
     d="M 8.001021,0 C 3.5945875,0 0.00102086,3.5935666 0.00102086,8 c 0,4.406433 3.59356664,8 8.00000014,8 4.406433,0 8,-3.593567 8,-8 0,-4.4064334 -3.593567,-8 -8,-8 z m 0,2 c 3.325553,0 6,2.6744469 6,6 0,3.325553 -2.674447,6 -6,6 -3.3255532,0 -6.0000001,-2.674447 -6.0000001,-6 0,-3.3255531 2.6744469,-6 6.0000001,-6 z"
     id="path7" />
  <path
     style="fill:#444444;fill-opacity:1"
     class="ColorScheme-Text"
     d="m 8.001021,0 v 2 a 6,6 0 0 1 6,6 6,6 0 0 1 -6,6 6,6 0 0 1 -6.0000001,-6 6,6 0 0 1 3.5625,-5.4746094 L 4.7471147,0.6914062 A 8,8 0 0 0 0.39164586,10.472656 8,8 0 0 0 9.665083,15.824219 8,8 0 0 0 15.958052,7.164062 8,8 0 0 0 8.001021,0 Z"
     id="path9" />
</svg>
