<?xml version="1.0" encoding="UTF-8" standalone="no"?>
<svg
   width="16"
   height="16"
   version="1.1"
   id="svg7"
   sodipodi:docname="tartube-refresh-tray.svg"
   inkscape:version="1.2.1 (9c6d41e410, 2022-07-14)"
   xmlns:inkscape="http://www.inkscape.org/namespaces/inkscape"
   xmlns:sodipodi="http://sodipodi.sourceforge.net/DTD/sodipodi-0.dtd"
   xmlns="http://www.w3.org/2000/svg"
   xmlns:svg="http://www.w3.org/2000/svg">
  <sodipodi:namedview
     id="namedview9"
     pagecolor="#ffffff"
     bordercolor="#000000"
     borderopacity="0.25"
     inkscape:showpageshadow="2"
     inkscape:pageopacity="0.0"
     inkscape:pagecheckerboard="0"
     inkscape:deskcolor="#d1d1d1"
     showgrid="false"
     inkscape:zoom="65.8125"
     inkscape:cx="7.9924027"
     inkscape:cy="8.0151947"
     inkscape:current-layer="svg7" />
  <defs
     id="defs3">
    <style
       id="current-color-scheme"
       type="text/css">
   .ColorScheme-Text { color:#dfdfdf; } .ColorScheme-Highlight { color:#4285f4; } .ColorScheme-NeutralText { color:#ff9800; } .ColorScheme-PositiveText { color:#4caf50; } .ColorScheme-NegativeText { color:#f44336; }
  </style>
  </defs>
  <path
     style="fill:#444444;fill-opacity:1"
     class="ColorScheme-Text"
     d="M 3.2382812 1 C 2.5592941 0.98377297 2.000341 1.5506607 2 2.2558594 L 2 13.744141 C 2.0009351 14.710449 3.0079696 15.314236 3.8144531 14.832031 L 13.394531 9.0878906 C 14.200261 8.6038956 14.200261 7.3961044 13.394531 6.9121094 L 3.8144531 1.1699219 C 3.6391382 1.064057 3.4410155 1.0056275 3.2382812 1 z M 5 5.3769531 L 9.375 8 L 5 10.623047 L 5 5.3769531 z M 13 10 L 11 11.5 L 13 13 L 13 12.087891 A 1.5 1.5 0 0 1 14 13.5 A 1.5 1.5 0 0 1 12.5 15 A 1.5 1.5 0 0 1 11.087891 14 L 10.050781 14 A 2.5 2.5 0 0 0 12.5 16 A 2.5 2.5 0 0 0 15 13.5 A 2.5 2.5 0 0 0 13 11.054688 L 13 10 z"
     id="path5" />
</svg>
