<?xml version="1.0" encoding="UTF-8" standalone="no"?>
<svg
   width="16"
   height="16"
   version="1.1"
   id="svg7"
   sodipodi:docname="teams-tray-dnd.svg"
   inkscape:version="1.2.1 (9c6d41e410, 2022-07-14)"
   xmlns:inkscape="http://www.inkscape.org/namespaces/inkscape"
   xmlns:sodipodi="http://sodipodi.sourceforge.net/DTD/sodipodi-0.dtd"
   xmlns="http://www.w3.org/2000/svg"
   xmlns:svg="http://www.w3.org/2000/svg">
  <sodipodi:namedview
     id="namedview9"
     pagecolor="#ffffff"
     bordercolor="#000000"
     borderopacity="0.25"
     inkscape:showpageshadow="2"
     inkscape:pageopacity="0.0"
     inkscape:pagecheckerboard="0"
     inkscape:deskcolor="#d1d1d1"
     showgrid="false"
     inkscape:zoom="65.8125"
     inkscape:cx="7.9924027"
     inkscape:cy="8.0151947"
     inkscape:current-layer="svg7" />
  <defs
     id="defs3">
    <style
       id="current-color-scheme"
       type="text/css">
   .ColorScheme-Text { color:#dfdfdf; } .ColorScheme-Highlight { color:#4285f4; } .ColorScheme-NeutralText { color:#ff9800; } .ColorScheme-PositiveText { color:#4caf50; } .ColorScheme-NegativeText { color:#f44336; }
  </style>
  </defs>
  <path
     style="fill:#444444;fill-opacity:1"
     class="ColorScheme-Text"
     d="M 2.0234375 0 C 1.4566955 0 1 0.4566955 1 1.0234375 L 1 13.976562 C 1 14.543306 1.4566955 15 2.0234375 15 L 8.7617188 15 A 4.5 4.5 0 0 1 8 12.5 A 4.5 4.5 0 0 1 8.03125 12 L 7 12 L 7 6 L 4 6 L 4 3 L 13 3 L 13 6 L 10 6 L 10 8.7617188 A 4.5 4.5 0 0 1 12.5 8 A 4.5 4.5 0 0 1 16 9.6738281 L 16 1.0234375 C 16 0.4566955 15.543307 0 14.976562 0 L 2.0234375 0 z M 12.5 9 A 3.5 3.5 0 0 0 9 12.5 A 3.5 3.5 0 0 0 12.5 16 A 3.5 3.5 0 0 0 16 12.5 A 3.5 3.5 0 0 0 12.5 9 z M 10 12 L 15 12 L 15 13 L 10 13 L 10 12 z"
     id="path5" />
</svg>
