<?xml version="1.0" encoding="UTF-8" standalone="no"?>
<svg
   width="16"
   height="16"
   version="1.1"
   id="svg7"
   sodipodi:docname="ticktick-tray.svg"
   inkscape:version="1.2.1 (9c6d41e410, 2022-07-14)"
   xmlns:inkscape="http://www.inkscape.org/namespaces/inkscape"
   xmlns:sodipodi="http://sodipodi.sourceforge.net/DTD/sodipodi-0.dtd"
   xmlns="http://www.w3.org/2000/svg"
   xmlns:svg="http://www.w3.org/2000/svg">
  <sodipodi:namedview
     id="namedview9"
     pagecolor="#ffffff"
     bordercolor="#000000"
     borderopacity="0.25"
     inkscape:showpageshadow="2"
     inkscape:pageopacity="0.0"
     inkscape:pagecheckerboard="0"
     inkscape:deskcolor="#d1d1d1"
     showgrid="false"
     inkscape:zoom="65.8125"
     inkscape:cx="7.9924027"
     inkscape:cy="8.0151947"
     inkscape:current-layer="svg7" />
  <defs
     id="defs3">
    <style
       id="current-color-scheme"
       type="text/css">
   .ColorScheme-Text { color:#dfdfdf; } .ColorScheme-Highlight { color:#4285f4; } .ColorScheme-NeutralText { color:#ff9800; } .ColorScheme-PositiveText { color:#4caf50; } .ColorScheme-NegativeText { color:#f44336; }
  </style>
  </defs>
  <path
     style="fill:#444444;fill-opacity:1"
     class="ColorScheme-Text"
     d="M 8 0 C 3.593571 0 0 3.593571 0 8 C 0 12.406429 3.593571 16 8 16 C 12.406429 16 16 12.406429 16 8 L 14 8 C 14 11.32555 11.32555 14 8 14 C 4.6744502 14 2 11.32555 2 8 C 2 4.6744502 4.6744502 2 8 2 L 8 0 z M 13.042969 1.6445312 L 7.8476562 7.6484375 L 5.5917969 5.9941406 L 4.4082031 7.6054688 L 7.4082031 9.8066406 A 1.0001 1.0001 0 0 0 8.7558594 9.6542969 L 14.556641 2.9550781 L 13.042969 1.6445312 z"
     id="path5" />
</svg>
