<?xml version="1.0" encoding="UTF-8" standalone="no"?>
<svg
   width="16"
   height="16"
   version="1.1"
   id="svg7"
   sodipodi:docname="weather-clouds.svg"
   inkscape:version="1.2.1 (9c6d41e410, 2022-07-14)"
   xmlns:inkscape="http://www.inkscape.org/namespaces/inkscape"
   xmlns:sodipodi="http://sodipodi.sourceforge.net/DTD/sodipodi-0.dtd"
   xmlns="http://www.w3.org/2000/svg"
   xmlns:svg="http://www.w3.org/2000/svg">
  <sodipodi:namedview
     id="namedview9"
     pagecolor="#ffffff"
     bordercolor="#000000"
     borderopacity="0.25"
     inkscape:showpageshadow="2"
     inkscape:pageopacity="0.0"
     inkscape:pagecheckerboard="0"
     inkscape:deskcolor="#d1d1d1"
     showgrid="false"
     inkscape:zoom="65.8125"
     inkscape:cx="7.9924027"
     inkscape:cy="8.0151947"
     inkscape:current-layer="svg7" />
  <defs
     id="defs3">
    <style
       id="current-color-scheme"
       type="text/css">
   .ColorScheme-Text { color:#dfdfdf; } .ColorScheme-Highlight { color:#4285f4; } .ColorScheme-NeutralText { color:#ff9800; } .ColorScheme-PositiveText { color:#4caf50; } .ColorScheme-NegativeText { color:#f44336; }
  </style>
  </defs>
  <path
     style="fill:#444444;fill-opacity:1"
     class="ColorScheme-Text"
     d="M 7,0 V 2.0859375 A 6,6 0 0 1 8,2 6,6 0 0 1 9,2.089844 V 0 Z M 3.0507812,1.6367188 1.6367188,3.0507812 3.1132812,4.5273438 A 6,6 0 0 1 4.5292969,3.1152344 Z m 9.8984378,0 -1.476563,1.4765624 a 6,6 0 0 1 1.41211,1.4160157 L 14.363281,3.0507812 Z M 8,3 A 5,5 0 0 0 3,8 5,5 0 0 0 3.1464844,9.175781 c 0.0073,-0.0017 0.014172,-0.0042 0.021484,-0.0059 C 3.5797152,6.827355 5.5442774,5 8,5 c 2.072335,0.0018 3.855484,1.320297 4.595703,3.212891 0.134007,0.03469 0.263609,0.07922 0.392578,0.125 A 5,5 0 0 0 13,8 5,5 0 0 0 8,3 Z m 0,3 a 4,4 0 0 0 -4,4 3,3 0 0 0 -3,3 3,3 0 0 0 3,3 H 11.5 12 V 15.96094 A 3.5,3.5 0 0 0 15,12.5 3.5,3.5 0 0 0 11.875,9.021484 4,4 0 0 0 8,6 Z M 0,7 V 9 H 2.0859375 A 6,6 0 0 1 2,8 6,6 0 0 1 2.0898438,7 Z M 13.914062,7 A 6,6 0 0 1 14,8 6,6 0 0 1 13.910156,9 H 16 V 7 Z"
     id="path5" />
</svg>
