<?xml version="1.0" encoding="utf-8"?>
<!-- Generator: Adobe Illustrator 23.0.0, SVG Export Plug-In . SVG Version: 6.00 Build 0)  -->
<!DOCTYPE svg PUBLIC "-//W3C//DTD SVG 1.1//EN" "http://www.w3.org/Graphics/SVG/1.1/DTD/svg11.dtd" [
	<!ENTITY ns_extend "http://ns.adobe.com/Extensibility/1.0/">
	<!ENTITY ns_ai "http://ns.adobe.com/AdobeIllustrator/10.0/">
	<!ENTITY ns_graphs "http://ns.adobe.com/Graphs/1.0/">
	<!ENTITY ns_vars "http://ns.adobe.com/Variables/1.0/">
	<!ENTITY ns_imrep "http://ns.adobe.com/ImageReplacement/1.0/">
	<!ENTITY ns_sfw "http://ns.adobe.com/SaveForWeb/1.0/">
	<!ENTITY ns_custom "http://ns.adobe.com/GenericCustomNamespace/1.0/">
	<!ENTITY ns_adobe_xpath "http://ns.adobe.com/XPath/1.0/">
]>
<svg version="1.1" id="레이어_1" xmlns:x="&ns_extend;" xmlns:i="&ns_ai;" xmlns:graph="&ns_graphs;"
	 xmlns="http://www.w3.org/2000/svg" xmlns:xlink="http://www.w3.org/1999/xlink" x="0px" y="0px" viewBox="0 0 16 16"
	 style="enable-background:new 0 0 16 16;" xml:space="preserve">
<style type="text/css">
	.st0{fill:#363636;}
</style>
<metadata>
	<sfw  xmlns="&ns_sfw;">
		<slices></slices>
		<sliceSourceBounds  bottomLeftOrigin="true" height="14.2" width="14" x="1" y="-15"></sliceSourceBounds>
	</sfw>
</metadata>
<polygon class="st0" points="11.5,4.3 8.7,1.5 8,0.8 7.3,1.5 4.5,4.3 5.2,5 7.5,2.7 7.5,8.6 8.5,8.6 8.5,2.7 10.8,5 "/>
<path class="st0" d="M14.4,1h-3.9v0.9h3.6c0,2.5,0,5,0,7.5c-1.4,0-2.9,0-4.3,0c0,0.1,0.1,0.3,0.1,0.5c0,1-0.8,1.8-1.8,1.8
	s-1.8-0.8-1.8-1.8c0-0.2,0-0.3,0.1-0.5H5.3c-1.1,0-2.3,0-3.4,0c0-2.5,0-5,0-7.5h3.6V1H1.6C1.3,1,1,1.3,1,1.6v8.1v0.9v3.7
	C1,14.7,1.3,15,1.6,15h12.7c0.4,0,0.6-0.3,0.6-0.6v-3.7V9.7V1.6C15,1.3,14.7,1,14.4,1z M14.1,10.6v2.5v1H1.9v-1v-2.5v-0.3
	c1.1,0,2.3,0,3.4,0c0.2,1.3,1.3,2.3,2.7,2.3c1.4,0,2.5-1,2.7-2.3c1.1,0,2.3,0,3.4,0V10.6z"/>
</svg>
