<?xml version="1.0" encoding="utf-8"?>
<!-- Generator: Adobe Illustrator 23.0.0, SVG Export Plug-In . SVG Version: 6.00 Build 0)  -->
<!DOCTYPE svg PUBLIC "-//W3C//DTD SVG 1.1//EN" "http://www.w3.org/Graphics/SVG/1.1/DTD/svg11.dtd" [
	<!ENTITY ns_extend "http://ns.adobe.com/Extensibility/1.0/">
	<!ENTITY ns_ai "http://ns.adobe.com/AdobeIllustrator/10.0/">
	<!ENTITY ns_graphs "http://ns.adobe.com/Graphs/1.0/">
	<!ENTITY ns_vars "http://ns.adobe.com/Variables/1.0/">
	<!ENTITY ns_imrep "http://ns.adobe.com/ImageReplacement/1.0/">
	<!ENTITY ns_sfw "http://ns.adobe.com/SaveForWeb/1.0/">
	<!ENTITY ns_custom "http://ns.adobe.com/GenericCustomNamespace/1.0/">
	<!ENTITY ns_adobe_xpath "http://ns.adobe.com/XPath/1.0/">
]>
<svg version="1.1" id="레이어_1" xmlns:x="&ns_extend;" xmlns:i="&ns_ai;" xmlns:graph="&ns_graphs;"
	 xmlns="http://www.w3.org/2000/svg" xmlns:xlink="http://www.w3.org/1999/xlink" x="0px" y="0px" viewBox="0 0 16 16"
	 style="enable-background:new 0 0 16 16;" xml:space="preserve">
<style type="text/css">
	.st0{fill:#363636;}
</style>
<metadata>
	<sfw  xmlns="&ns_sfw;">
		<slices></slices>
		<sliceSourceBounds  bottomLeftOrigin="true" height="14" width="12.7" x="1.6" y="-15"></sliceSourceBounds>
	</sfw>
</metadata>
<g>
	<path class="st0" d="M10.1,3.1V1.8C10.1,1.4,9.7,1,9.3,1H6.6C6.2,1,5.8,1.4,5.8,1.8v1.3H1.6v1.1h1C2.9,7.8,3.2,11.4,3.5,15
		c0.1,0,0.2,0,0.3,0h0.8h6.8h0.8c0.1,0,0.2,0,0.3,0c0.3-3.6,0.6-7.2,0.9-10.8h1V3.1H10.1z M7.1,2.1h1.6C8.9,2.1,9,2.2,9,2.3v0.8H6.9
		V2.3C6.9,2.2,7,2.1,7.1,2.1z M11.5,13.9h-7C4.3,10.7,4,7.4,3.8,4.2h2h1.1H9h1.1h2.1C12,7.4,11.7,10.7,11.5,13.9z"/>
	<rect x="5.8" y="6.4" class="st0" width="1.1" height="5.3"/>
	<rect x="9" y="6.4" class="st0" width="1.1" height="5.3"/>
</g>
</svg>
