<svg width="256" height="256" viewBox="0 0 256 256" fill="none" xmlns="http://www.w3.org/2000/svg">
<path d="M221 62.4373C221 61.4326 220.677 60.3181 220.141 59.4684C219.561 58.549 218.901 57.5014 218.9 57.5L171 9.35352C169.555 7.95733 158.291 2 156.269 2H41.1923C37.2202 2 34 5.29241 34 9.35352V245.646C34 249.708 37.2202 253 41.1923 253H213.808C217.78 253 221 249.708 221 245.646V68.1816C221 66.4864 221 65.7083 221 62.4373ZM163.462 34.4642C163.462 31.7754 166.726 30.4443 168.606 32.3665L191.458 55.7304C193.316 57.6297 191.97 60.8281 189.313 60.8281H166.462C164.805 60.8281 163.462 59.485 163.462 57.8281V34.4642ZM55 235.5C53.3431 235.5 52 234.157 52 232.5V22.5C52 20.8431 53.3431 19.5 55 19.5H141.5C143.157 19.5 144.5 20.8431 144.5 22.5V60.8281C144.5 64.8892 159.489 79 163.462 79H200C201.657 79 203 80.3431 203 82V232.5C203 234.157 201.657 235.5 200 235.5H55Z" fill="url(#paint0_linear)"/>
<path d="M61.041 149.251C61.1383 148.73 61.7153 148.505 62.1794 148.249C64.9978 146.693 70.2454 144.191 77.9221 140.742C86.3169 136.95 91.0969 134.781 92.2621 134.235C93.4538 133.689 94.288 133.416 94.7647 133.416C95.2413 133.416 95.4929 133.625 95.5195 134.043C95.982 141.245 96.4819 146.36 97.0192 149.387C97.0514 149.568 97.0726 149.752 97.0593 149.936C97.043 150.161 97.0052 150.341 96.9458 150.475C96.8162 150.767 96.4429 150.834 96.1505 150.964L84.2166 156.296C82.032 157.272 81.8277 160.26 83.8644 161.516C85.0161 162.226 86.3721 163.061 87.9323 164.022C93.2288 167.236 96.155 169.035 96.7111 169.42C97.2672 169.774 97.5454 170.031 97.5454 170.191C97.5454 170.273 97.5386 170.366 97.5251 170.472C97.4955 170.704 97.4156 170.924 97.3196 171.137C95.9963 174.071 94.39 178.961 92.5005 185.809C92.3151 186.419 91.9841 186.725 91.5073 186.725C91.0572 186.725 90.5541 186.532 89.9979 186.146L62.5208 166.714C62.3024 166.559 62.091 166.382 61.9843 166.137C61.8578 165.846 61.7945 165.479 61.7945 165.035C61.7945 160.889 61.6621 157.307 61.3973 154.286C61.1325 151.234 61 149.691 61 149.659V149.563C61.0099 149.448 61.0236 149.345 61.041 149.251ZM146.762 114.425L115.661 191.628C115.094 193.037 113.562 193.8 112.096 193.403L104.02 191.219C102.286 190.751 101.352 188.87 102.021 187.203C116.787 150.396 127.843 123.402 135.187 106.222C135.768 104.862 137.252 104.141 138.684 104.509L146.128 106.424C147.905 106.881 148.859 108.811 148.143 110.5L148.073 110.665L146.762 114.425ZM192.986 149.434C192.997 149.52 193 149.606 193 149.693C193 149.724 193 149.761 193 149.804C192.47 155.813 192.193 160.889 192.166 165.035C192.166 165.774 191.993 166.287 191.65 166.577L163.962 186.146C163.221 186.532 162.665 186.725 162.294 186.725C161.923 186.725 161.632 186.386 161.42 185.712C161.208 185.038 160.612 183.045 159.632 179.736C158.686 176.536 157.677 173.654 156.607 171.085C156.533 170.907 156.471 170.724 156.444 170.534C156.424 170.392 156.415 170.262 156.415 170.143C156.415 169.919 156.693 169.646 157.249 169.324C162.679 166.021 166.939 163.424 170.028 161.535C172.081 160.279 171.878 157.25 169.681 156.268L157.81 150.965C157.518 150.834 157.144 150.768 157.014 150.475C156.955 150.341 156.917 150.161 156.901 149.936C156.888 149.752 156.909 149.568 156.941 149.387C157.478 146.36 157.979 141.244 158.441 134.043C158.468 133.625 158.719 133.416 159.196 133.416C159.672 133.416 160.493 133.689 161.659 134.235C162.851 134.781 167.63 136.95 175.998 140.742C183.699 144.191 188.96 146.693 191.781 148.249C192.245 148.505 192.843 148.705 192.952 149.224C192.966 149.289 192.977 149.359 192.986 149.434Z" fill="url(#paint1_linear)"/>
<defs>
<linearGradient id="paint0_linear" x1="51.3953" y1="127.5" x2="189.109" y2="127.5" gradientUnits="userSpaceOnUse">
<stop stop-color="#5570FF"/>
<stop offset="1" stop-color="#4DD3FF"/>
</linearGradient>
<linearGradient id="paint1_linear" x1="69.4465" y1="150.777" x2="172.793" y2="150.777" gradientUnits="userSpaceOnUse">
<stop stop-color="#5570FF"/>
<stop offset="1" stop-color="#4DD3FF"/>
</linearGradient>
</defs>
</svg>
