<svg width="256" height="256" viewBox="0 0 256 256" fill="none" xmlns="http://www.w3.org/2000/svg">
<path d="M221 62.4373C221 61.4326 220.677 60.3181 220.141 59.4684C219.561 58.549 218.901 57.5014 218.9 57.5L171 9.35352C169.555 7.95733 158.291 2 156.269 2H41.1923C37.2202 2 34 5.29241 34 9.35352V245.646C34 249.708 37.2202 253 41.1923 253H213.808C217.78 253 221 249.708 221 245.646V68.1816C221 66.4864 221 65.7083 221 62.4373ZM163.462 34.4642C163.462 31.7754 166.726 30.4443 168.606 32.3665L191.458 55.7304C193.316 57.6297 191.97 60.8281 189.313 60.8281H166.462C164.805 60.8281 163.462 59.485 163.462 57.8281V34.4642ZM55 235.5C53.3431 235.5 52 234.157 52 232.5V22.5C52 20.8431 53.3431 19.5 55 19.5H141.5C143.157 19.5 144.5 20.8431 144.5 22.5V60.8281C144.5 64.8892 159.489 79 163.462 79H200C201.657 79 203 80.3431 203 82V232.5C203 234.157 201.657 235.5 200 235.5H55Z" fill="url(#paint0_linear)"/>
<path d="M128.502 124.022C132.499 122.383 136.858 123.429 141.022 123.226L141.008 125.021C140.952 129.267 140.911 133.512 140.841 137.773C136.566 137.758 132.276 137.758 127.987 137.773C127.973 142.549 127.903 147.325 128.057 152.102C128.753 152.148 130.132 152.226 130.828 152.258C133.446 152.46 136.162 152.07 138.71 152.991C141.342 154.162 142.22 157.455 143.055 160.186C146.579 173.032 149.977 185.94 153.695 198.739C155.158 207.261 151.23 216.064 144.643 220.403C134.198 226.943 120.968 226.412 110.509 220.153C103.88 215.283 100.176 205.435 102.905 196.866C106.638 183.411 110.245 169.942 113.865 156.456C115.62 150.463 114.812 144.079 114.91 137.898C119.269 137.758 123.642 137.742 128.015 137.711C128.377 133.215 126.97 128.143 128.502 124.022ZM114.492 205.216C118.698 212.833 127.903 213.27 134.853 211.069C137.652 210.18 141.663 207.776 140.688 203.843C139.393 200.237 135.563 198.973 132.457 198.271C126.037 197.069 117.765 197.865 114.492 205.216Z" fill="url(#paint1_linear)"/>
<path d="M114.068 87.1167C118.728 87.0719 123.404 87.0125 128.049 87.3553C127.989 91.9483 127.989 96.5263 128.004 101.104C132.664 101.134 137.325 101.089 142 100.985L141.97 102.476C141.895 106.637 141.88 110.797 141.836 114.973C137.205 114.988 132.59 114.973 127.974 114.973C127.959 119.238 128.079 123.503 128.273 127.767C123.971 130.154 118.743 128.483 114.038 128.871C113.979 124.218 113.978 119.551 114.113 114.898C118.714 114.943 123.314 114.943 127.93 114.928C128.004 110.29 127.974 105.668 127.825 101.045C123.254 101.045 118.684 101.045 114.128 101.089C113.978 96.4369 113.993 91.7693 114.068 87.1167Z" fill="url(#paint2_linear)" stroke="url(#paint3_linear)" stroke-width="4"/>
<defs>
<linearGradient id="paint0_linear" x1="34.0274" y1="123.781" x2="221.031" y2="123.781" gradientUnits="userSpaceOnUse">
<stop stop-color="#A93AFF"/>
<stop offset="1" stop-color="#FF81FF"/>
</linearGradient>
<linearGradient id="paint1_linear" x1="102.008" y1="172.571" x2="154.009" y2="172.571" gradientUnits="userSpaceOnUse">
<stop stop-color="#A93AFF"/>
<stop offset="1" stop-color="#FF81FF"/>
</linearGradient>
<linearGradient id="paint2_linear" x1="114.004" y1="107.46" x2="142.005" y2="107.46" gradientUnits="userSpaceOnUse">
<stop stop-color="#A93AFF"/>
<stop offset="1" stop-color="#FF81FF"/>
</linearGradient>
<linearGradient id="paint3_linear" x1="114.004" y1="107.46" x2="142.005" y2="107.46" gradientUnits="userSpaceOnUse">
<stop stop-color="#A93AFF"/>
<stop offset="1" stop-color="#FF81FF"/>
</linearGradient>
</defs>
</svg>
