<svg width="256" height="256" viewBox="0 0 256 256" fill="none" xmlns="http://www.w3.org/2000/svg">
<path d="M221 62.4373C221 61.4326 220.677 60.3181 220.141 59.4684C219.561 58.549 218.901 57.5014 218.9 57.5L171 9.35352C169.555 7.95733 158.291 2 156.269 2H41.1923C37.2202 2 34 5.29241 34 9.35352V245.646C34 249.708 37.2202 253 41.1923 253H213.808C217.78 253 221 249.708 221 245.646V68.1816C221 66.4864 221 65.7083 221 62.4373ZM163.462 34.4642C163.462 31.7754 166.726 30.4443 168.606 32.3665L191.458 55.7304C193.316 57.6297 191.97 60.8281 189.313 60.8281H166.462C164.805 60.8281 163.462 59.485 163.462 57.8281V34.4642ZM55 235.5C53.3431 235.5 52 234.157 52 232.5V22.5C52 20.8431 53.3431 19.5 55 19.5H141.5C143.157 19.5 144.5 20.8431 144.5 22.5V60.8281C144.5 64.8892 159.489 79 163.462 79H200C201.657 79 203 80.3431 203 82V232.5C203 234.157 201.657 235.5 200 235.5H55Z" fill="url(#paint0_linear)"/>
<path d="M128.502 110.383C132.499 108.744 136.858 109.79 141.022 109.587L141.008 111.382C140.952 115.627 140.911 119.873 140.841 124.134C136.566 124.118 132.276 124.118 127.987 124.134C127.973 128.91 127.903 133.686 128.057 138.462C128.753 138.509 130.132 138.587 130.828 138.618C133.446 138.821 136.162 138.431 138.71 139.352C141.342 140.522 142.22 143.816 143.055 146.547C146.579 159.393 149.977 172.301 153.695 185.1C155.158 193.622 151.23 202.425 144.643 206.764C134.198 213.304 120.968 212.773 110.509 206.514C103.88 201.644 100.176 191.796 102.905 183.227C106.638 169.772 110.245 156.303 113.865 142.817C115.62 136.823 114.812 130.44 114.91 124.259C119.269 124.118 123.642 124.103 128.015 124.071C128.377 119.576 126.97 114.504 128.502 110.383ZM114.492 191.577C118.698 199.194 127.903 199.631 134.853 197.43C137.652 196.541 141.663 194.137 140.688 190.204C139.393 186.598 135.563 185.334 132.457 184.632C126.037 183.43 117.765 184.226 114.492 191.577Z" fill="url(#paint1_linear)"/>
<path d="M114.068 73.4773C118.728 73.4325 123.404 73.3731 128.049 73.7159C127.989 78.3089 127.989 82.8869 128.004 87.4651C132.664 87.4949 137.325 87.4501 142 87.3457L141.97 88.8369C141.895 92.9975 141.88 97.1579 141.836 101.333C137.205 101.348 132.59 101.333 127.974 101.333C127.959 105.598 128.079 109.863 128.273 114.128C123.971 116.514 118.743 114.844 114.038 115.232C113.979 110.579 113.978 105.911 114.113 101.259C118.714 101.303 123.314 101.303 127.93 101.289C128.004 96.6511 127.974 92.0283 127.825 87.4053C123.254 87.4053 118.684 87.4053 114.128 87.4501C113.978 82.7975 113.993 78.1299 114.068 73.4773Z" fill="url(#paint2_linear)" stroke="url(#paint3_linear)" stroke-width="4"/>
<defs>
<linearGradient id="paint0_linear" x1="34" y1="86" x2="221" y2="167" gradientUnits="userSpaceOnUse">
<stop stop-color="#FD5900"/>
<stop offset="1" stop-color="#FFDE00"/>
</linearGradient>
<linearGradient id="paint1_linear" x1="102" y1="143.578" x2="158.769" y2="160.404" gradientUnits="userSpaceOnUse">
<stop stop-color="#FD5900"/>
<stop offset="1" stop-color="#FFDE00"/>
</linearGradient>
<linearGradient id="paint2_linear" x1="114" y1="87.4984" x2="142.91" y2="98.704" gradientUnits="userSpaceOnUse">
<stop stop-color="#FD5900"/>
<stop offset="1" stop-color="#FFDE00"/>
</linearGradient>
<linearGradient id="paint3_linear" x1="114" y1="87.4984" x2="142.91" y2="98.704" gradientUnits="userSpaceOnUse">
<stop stop-color="#FD5900"/>
<stop offset="1" stop-color="#FFDE00"/>
</linearGradient>
</defs>
</svg>
