<svg width="256" height="256" viewBox="0 0 256 256" fill="none" xmlns="http://www.w3.org/2000/svg">
<path d="M221 62.4373C221 61.4326 220.677 60.3181 220.141 59.4684C219.561 58.549 218.901 57.5014 218.9 57.5L171 9.35352C169.555 7.95733 158.291 2 156.269 2H41.1923C37.2202 2 34 5.29241 34 9.35352V245.646C34 249.708 37.2202 253 41.1923 253H213.808C217.78 253 221 249.708 221 245.646V68.1816C221 66.4864 221 65.7083 221 62.4373ZM163.462 34.4642C163.462 31.7754 166.726 30.4443 168.606 32.3665L191.458 55.7304C193.316 57.6297 191.97 60.8281 189.313 60.8281H166.462C164.805 60.8281 163.462 59.485 163.462 57.8281V34.4642ZM55 235.5C53.3431 235.5 52 234.157 52 232.5V22.5C52 20.8431 53.3431 19.5 55 19.5H141.5C143.157 19.5 144.5 20.8431 144.5 22.5V60.8281C144.5 64.8892 159.489 79 163.462 79H200C201.657 79 203 80.3431 203 82V232.5C203 234.157 201.657 235.5 200 235.5H55Z" fill="url(#paint0_linear)"/>
<path d="M101.667 146.667C100.612 146.667 99.5807 146.979 98.7036 147.565C97.8266 148.152 97.143 148.984 96.7393 149.959C96.3356 150.934 96.23 152.006 96.4358 153.04C96.6416 154.075 97.1496 155.025 97.8954 155.771C98.6413 156.517 99.5916 157.025 100.626 157.231C101.661 157.437 102.733 157.331 103.708 156.927C104.682 156.524 105.515 155.84 106.101 154.963C106.687 154.086 107 153.055 107 152C107 150.586 106.438 149.229 105.438 148.229C104.438 147.229 103.081 146.667 101.667 146.667ZM165.667 125.333H160.333V109.333C160.333 107.919 159.771 106.562 158.771 105.562C157.771 104.562 156.414 104 155 104H101.667C100.252 104 98.8956 104.562 97.8954 105.562C96.8952 106.562 96.3333 107.919 96.3333 109.333V125.333H91C86.7565 125.333 82.6869 127.019 79.6863 130.02C76.6857 133.02 75 137.09 75 141.333V173.333C75 177.577 76.6857 181.646 79.6863 184.647C82.6869 187.648 86.7565 189.333 91 189.333H96.3333V205.333C96.3333 206.748 96.8952 208.104 97.8954 209.105C98.8956 210.105 100.252 210.667 101.667 210.667H155C156.414 210.667 157.771 210.105 158.771 209.105C159.771 208.104 160.333 206.748 160.333 205.333V189.333H165.667C169.91 189.333 173.98 187.648 176.98 184.647C179.981 181.646 181.667 177.577 181.667 173.333V141.333C181.667 137.09 179.981 133.02 176.98 130.02C173.98 127.019 169.91 125.333 165.667 125.333ZM107 114.667H149.667V125.333H107V114.667ZM149.667 200H107V178.667H149.667V200ZM171 173.333C171 174.748 170.438 176.104 169.438 177.105C168.438 178.105 167.081 178.667 165.667 178.667H160.333V173.333C160.333 171.919 159.771 170.562 158.771 169.562C157.771 168.562 156.414 168 155 168H101.667C100.252 168 98.8956 168.562 97.8954 169.562C96.8952 170.562 96.3333 171.919 96.3333 173.333V178.667H91C89.5855 178.667 88.229 178.105 87.2288 177.105C86.2286 176.104 85.6667 174.748 85.6667 173.333V141.333C85.6667 139.919 86.2286 138.562 87.2288 137.562C88.229 136.562 89.5855 136 91 136H165.667C167.081 136 168.438 136.562 169.438 137.562C170.438 138.562 171 139.919 171 141.333V173.333Z" fill="url(#paint1_linear)"/>
<path fill-rule="evenodd" clip-rule="evenodd" d="M95.7741 103.441C97.3369 101.878 99.4565 101 101.667 101H155C157.21 101 159.33 101.878 160.893 103.441C162.455 105.004 163.333 107.123 163.333 109.333V122.333H165.667C170.706 122.333 175.539 124.335 179.102 127.898C182.665 131.461 184.667 136.294 184.667 141.333V173.333C184.667 178.372 182.665 183.205 179.102 186.768C175.539 190.332 170.706 192.333 165.667 192.333H163.333V205.333C163.333 207.543 162.455 209.663 160.893 211.226C159.33 212.789 157.21 213.667 155 213.667H101.667C99.4565 213.667 97.3369 212.789 95.7741 211.226C94.2113 209.663 93.3333 207.543 93.3333 205.333V192.333H91C85.9609 192.333 81.1282 190.332 77.565 186.768C74.0018 183.205 72 178.372 72 173.333V141.333C72 136.294 74.0018 131.461 77.565 127.898C81.1282 124.335 85.9609 122.333 91 122.333H93.3333V109.333C93.3333 107.123 94.2113 105.004 95.7741 103.441ZM101.667 107C101.048 107 100.454 107.246 100.017 107.683C99.5792 108.121 99.3333 108.714 99.3333 109.333V128.333H91C87.5522 128.333 84.2456 129.703 81.8076 132.141C79.3696 134.579 78 137.886 78 141.333V173.333C78 176.781 79.3696 180.088 81.8076 182.526C84.2456 184.964 87.5522 186.333 91 186.333H99.3333V205.333C99.3333 205.952 99.5792 206.546 100.017 206.983C100.454 207.421 101.048 207.667 101.667 207.667H155C155.619 207.667 156.212 207.421 156.65 206.983C157.088 206.546 157.333 205.952 157.333 205.333V186.333H165.667C169.114 186.333 172.421 184.964 174.859 182.526C177.297 180.088 178.667 176.781 178.667 173.333V141.333C178.667 137.886 177.297 134.579 174.859 132.141C172.421 129.703 169.114 128.333 165.667 128.333H157.333V109.333C157.333 108.714 157.088 108.121 156.65 107.683C156.212 107.246 155.619 107 155 107H101.667ZM104 111.667H152.667V128.333H104V111.667ZM110 117.667V122.333H146.667V117.667H110ZM91 139C90.3812 139 89.7877 139.246 89.3501 139.683C88.9125 140.121 88.6667 140.715 88.6667 141.333V173.333C88.6667 173.952 88.9125 174.546 89.3501 174.983C89.7877 175.421 90.3812 175.667 91 175.667H93.3333V173.333C93.3333 171.123 94.2113 169.004 95.7741 167.441C97.3369 165.878 99.4565 165 101.667 165H155C157.21 165 159.33 165.878 160.893 167.441C162.455 169.004 163.333 171.123 163.333 173.333V175.667H165.667C166.286 175.667 166.879 175.421 167.317 174.983C167.754 174.546 168 173.952 168 173.333V141.333C168 140.714 167.754 140.121 167.317 139.683C166.879 139.246 166.286 139 165.667 139H91ZM85.1074 135.441C86.6702 133.878 88.7899 133 91 133H165.667C167.877 133 169.996 133.878 171.559 135.441C173.122 137.004 174 139.123 174 141.333V173.333C174 175.543 173.122 177.663 171.559 179.226C169.996 180.789 167.877 181.667 165.667 181.667H157.333V173.333C157.333 172.715 157.088 172.121 156.65 171.683C156.212 171.246 155.619 171 155 171H101.667C101.048 171 100.454 171.246 100.017 171.683C99.5792 172.121 99.3333 172.715 99.3333 173.333V181.667H91C88.7899 181.667 86.6702 180.789 85.1074 179.226C83.5446 177.663 82.6667 175.543 82.6667 173.333V141.333C82.6667 139.123 83.5446 137.004 85.1074 135.441ZM97.0369 145.071C98.4073 144.155 100.018 143.667 101.667 143.667C103.877 143.667 105.996 144.545 107.559 146.107C109.122 147.67 110 149.79 110 152C110 153.648 109.511 155.259 108.596 156.63C107.68 158 106.378 159.068 104.856 159.699C103.333 160.33 101.657 160.495 100.041 160.173C98.4244 159.852 96.9395 159.058 95.7741 157.893C94.6087 156.727 93.815 155.242 93.4935 153.626C93.1719 152.009 93.3369 150.334 93.9677 148.811C94.5984 147.288 95.6665 145.987 97.0369 145.071ZM101.667 149.667C101.205 149.667 100.754 149.804 100.37 150.06C99.9866 150.316 99.6876 150.681 99.5109 151.107C99.3343 151.533 99.2881 152.003 99.3782 152.455C99.4682 152.908 99.6904 153.324 100.017 153.65C100.343 153.976 100.759 154.198 101.211 154.289C101.664 154.379 102.133 154.332 102.56 154.156C102.986 153.979 103.35 153.68 103.607 153.296C103.863 152.913 104 152.461 104 152C104 151.381 103.754 150.788 103.317 150.35C102.879 149.912 102.286 149.667 101.667 149.667ZM104 175.667H152.667V203H104V175.667ZM110 181.667V197H146.667V181.667H110Z" fill="url(#paint2_linear)"/>
<defs>
<linearGradient id="paint0_linear" x1="220.446" y1="3.59122" x2="-17.5882" y2="179.455" gradientUnits="userSpaceOnUse">
<stop stop-color="#FE7970"/>
<stop offset="1" stop-color="#DC3282"/>
</linearGradient>
<linearGradient id="paint1_linear" x1="181.351" y1="104.676" x2="75.5277" y2="209.618" gradientUnits="userSpaceOnUse">
<stop stop-color="#FE7970"/>
<stop offset="1" stop-color="#DC3282"/>
</linearGradient>
<linearGradient id="paint2_linear" x1="184.333" y1="101.714" x2="72.5574" y2="212.559" gradientUnits="userSpaceOnUse">
<stop stop-color="#FE7970"/>
<stop offset="1" stop-color="#DC3282"/>
</linearGradient>
</defs>
</svg>
