<svg width="256" height="256" viewBox="0 0 256 256" fill="none" xmlns="http://www.w3.org/2000/svg">
<path d="M221 62.4373C221 61.4326 220.677 60.3181 220.141 59.4684C219.561 58.549 218.901 57.5014 218.9 57.5L171 9.35352C169.555 7.95733 158.291 2 156.269 2H41.1923C37.2202 2 34 5.29241 34 9.35352V245.646C34 249.708 37.2202 253 41.1923 253H213.808C217.78 253 221 249.708 221 245.646V68.1816C221 66.4864 221 65.7083 221 62.4373ZM163.462 34.4642C163.462 31.7754 166.726 30.4443 168.606 32.3665L191.458 55.7304C193.316 57.6297 191.97 60.8281 189.313 60.8281H166.462C164.805 60.8281 163.462 59.485 163.462 57.8281V34.4642ZM55 235.5C53.3431 235.5 52 234.157 52 232.5V22.5C52 20.8431 53.3431 19.5 55 19.5H141.5C143.157 19.5 144.5 20.8431 144.5 22.5V60.8281C144.5 64.8892 159.489 79 163.462 79H200C201.657 79 203 80.3431 203 82V232.5C203 234.157 201.657 235.5 200 235.5H55Z" fill="url(#paint0_linear)"/>
<path d="M148.459 174.59C139.363 174.59 137.425 171.693 136.849 167.014C136.785 166.457 136.546 165.946 136.178 165.572C135.81 165.198 135.337 164.987 134.844 164.979H130.015C129.471 164.992 128.954 165.251 128.576 165.698C128.199 166.144 127.991 166.744 128 167.365C128 171.42 129.249 184.656 148.469 184.656C154.415 184.656 159.361 183.071 162.768 180.07C166.176 177.068 168 172.702 168 167.499C168 157.055 162.025 154.196 150.256 152.327C138.293 150.431 138.293 149.465 138.293 147.352C138.293 145.83 138.293 142.268 146.941 142.268C153.096 142.268 156.39 143.155 157.444 147.83C157.537 148.348 157.783 148.815 158.14 149.152C158.498 149.489 158.946 149.677 159.41 149.685H164.256C164.542 149.682 164.824 149.609 165.082 149.472C165.341 149.335 165.572 149.136 165.758 148.889C166.131 148.393 166.317 147.749 166.276 147.098C165.649 137.211 159.31 132.197 146.949 132.197C135.715 132.197 129.01 137.968 129.01 147.632C129.01 158.229 135.959 161.224 146.398 162.465C158.593 163.902 158.593 165.999 158.593 167.852C158.6 170.739 157.549 174.59 148.459 174.59Z" fill="url(#paint1_linear)" stroke="url(#paint2_linear)" stroke-width="3"/>
<path d="M178.632 122.02L132.894 95.3875C131.251 94.4782 129.393 94 127.501 94C125.61 94 123.752 94.4782 122.109 95.3875L76.3676 122.017C74.7192 122.997 73.3592 124.374 72.419 126.014C71.4788 127.654 70.9901 129.502 71.0002 131.379V184.566C70.9903 186.444 71.479 188.293 72.4191 189.934C73.3593 191.575 74.7191 192.954 76.3676 193.937L88.3621 200.89L88.4298 200.927C94.4858 203.936 96.8047 203.936 99.4914 203.936C108.949 203.936 114.826 197.993 114.826 188.426V136.856C114.831 136.212 114.574 135.592 114.109 135.133C113.644 134.673 113.011 134.411 112.348 134.404H105.762C105.099 134.411 104.466 134.673 104.001 135.133C103.537 135.592 103.279 136.212 103.285 136.856V188.426C103.308 189.164 103.135 189.896 102.782 190.55C102.429 191.204 101.908 191.759 101.269 192.16C99.5326 193.188 97.0107 192.971 94.1651 191.545L82.6709 184.829C82.6269 184.8 82.591 184.76 82.5663 184.715C82.5417 184.669 82.5291 184.618 82.5297 184.566V132.13C82.5315 132.07 82.5483 132.011 82.5785 131.958C82.6087 131.906 82.6515 131.861 82.7033 131.827L127.385 105.258C127.419 105.242 127.455 105.234 127.493 105.234C127.53 105.234 127.567 105.242 127.6 105.258L172.309 131.827C172.359 131.863 172.401 131.911 172.429 131.965C172.457 132.02 172.471 132.081 172.47 132.142V184.566C172.471 184.62 172.46 184.674 172.437 184.723V184.723C172.391 184.822 172.291 184.879 172.196 184.934L127.695 210.689C127.626 210.729 127.553 210.769 127.473 210.768V210.768C127.394 210.768 127.321 210.729 127.253 210.689L115.929 204.161C115.59 203.946 115.198 203.822 114.794 203.801C114.389 203.781 113.986 203.865 113.625 204.044L113.525 204.101C110.371 205.916 109.523 206.387 106.598 207.421C106.121 207.59 105 207.993 104.903 209.07C104.806 210.147 105.871 210.912 106.819 211.447L122.091 220.552C123.719 221.498 125.58 221.998 127.476 222H127.647C129.497 221.972 131.306 221.472 132.894 220.552L178.632 193.945C180.28 192.959 181.639 191.579 182.579 189.937C183.519 188.294 184.008 186.445 184 184.566V131.379C184.009 129.502 183.52 127.655 182.58 126.016C181.64 124.377 180.28 123 178.632 122.02Z" fill="url(#paint3_linear)" stroke="url(#paint4_linear)" stroke-width="3"/>
<defs>
<linearGradient id="paint0_linear" x1="40" y1="11" x2="202" y2="169" gradientUnits="userSpaceOnUse">
<stop stop-color="#FD8900"/>
<stop offset="1" stop-color="#FFDE00"/>
</linearGradient>
<linearGradient id="paint1_linear" x1="128" y1="149.752" x2="167.702" y2="167.353" gradientUnits="userSpaceOnUse">
<stop stop-color="#FD5900"/>
<stop offset="1" stop-color="#FFDE00"/>
</linearGradient>
<linearGradient id="paint2_linear" x1="128" y1="149.753" x2="167.702" y2="167.353" gradientUnits="userSpaceOnUse">
<stop stop-color="#FD5900"/>
<stop offset="1" stop-color="#FFDE00"/>
</linearGradient>
<linearGradient id="paint3_linear" x1="71" y1="136.837" x2="177.219" y2="191.355" gradientUnits="userSpaceOnUse">
<stop stop-color="#FD5900"/>
<stop offset="1" stop-color="#FFDE00"/>
</linearGradient>
<linearGradient id="paint4_linear" x1="71.0001" y1="136.837" x2="177.219" y2="191.355" gradientUnits="userSpaceOnUse">
<stop stop-color="#FD5900"/>
<stop offset="1" stop-color="#FFDE00"/>
</linearGradient>
</defs>
</svg>
