<svg width="256" height="256" viewBox="0 0 256 256" fill="none" xmlns="http://www.w3.org/2000/svg">
<path d="M221 62.4373C221 61.4326 220.677 60.3181 220.141 59.4684C219.561 58.549 218.901 57.5014 218.9 57.5L171 9.35352C169.555 7.95733 158.291 2 156.269 2H41.1923C37.2202 2 34 5.29241 34 9.35352V245.646C34 249.708 37.2202 253 41.1923 253H213.808C217.78 253 221 249.708 221 245.646V68.1816C221 66.4864 221 65.7083 221 62.4373ZM163.462 34.4642C163.462 31.7754 166.726 30.4443 168.606 32.3665L191.458 55.7304C193.316 57.6297 191.97 60.8281 189.313 60.8281H166.462C164.805 60.8281 163.462 59.485 163.462 57.8281V34.4642ZM55 235.5C53.3431 235.5 52 234.157 52 232.5V22.5C52 20.8431 53.3431 19.5 55 19.5H141.5C143.157 19.5 144.5 20.8431 144.5 22.5V60.8281C144.5 64.8892 159.489 79 163.462 79H200C201.657 79 203 80.3431 203 82V232.5C203 234.157 201.657 235.5 200 235.5H55Z" fill="url(#paint0_linear)"/>
<path fill-rule="evenodd" clip-rule="evenodd" d="M90.0477 144.243C90.7197 143.739 91.1397 143.235 91.3077 142.731L99.0357 125.007L106.764 142.731C106.932 143.235 107.324 143.739 107.94 144.243C108.612 144.747 109.452 144.999 110.46 144.999H122.22C123.284 144.999 124.152 144.691 124.824 144.075C125.552 143.403 125.972 142.647 126.084 141.807L133.392 88.2992V88.0472C133.392 87.5432 133.196 87.1232 132.804 86.7872C132.468 86.3952 132.048 86.1992 131.544 86.1992H117.096C115.976 86.1992 115.052 86.5352 114.324 87.2072C113.652 87.8792 113.26 88.7192 113.148 89.7272L110.46 115.431L105.588 102.075C105.42 101.515 105 100.983 104.328 100.479C103.712 99.9192 102.9 99.6392 101.892 99.6392H96.1797C95.1717 99.6392 94.3317 99.9192 93.6597 100.479C93.0437 100.983 92.6517 101.515 92.4837 102.075L87.6117 115.431L84.9237 89.7272C84.8117 88.7192 84.3917 87.8792 83.6637 87.2072C82.9917 86.5352 82.0957 86.1992 80.9757 86.1992H66.5277C66.0237 86.1992 65.5757 86.3952 65.1837 86.7872C64.8477 87.1232 64.6797 87.5432 64.6797 88.0472V88.2992L71.9877 141.807C72.0997 142.647 72.4917 143.403 73.1637 144.075C73.8917 144.691 74.7877 144.999 75.8517 144.999H87.6117C88.6197 144.999 89.4317 144.747 90.0477 144.243ZM154 121H182C187.523 121 192 124.838 192 129.571V130.429C192 135.162 187.523 139 182 139H154C148.477 139 144 135.162 144 130.429V129.571C144 124.838 148.477 121 154 121ZM73 186H145C150.523 186 155 189.838 155 194.571V195.429C155 200.162 150.523 204 145 204H73C67.4772 204 63 200.162 63 195.429V194.571C63 189.838 67.4772 186 73 186ZM182 153H73C67.4772 153 63 156.663 63 161.182V162.818C63 167.337 67.4772 171 73 171H182C187.523 171 192 167.337 192 162.818V161.182C192 156.663 187.523 153 182 153Z" fill="url(#paint1_linear)"/>
<defs>
<linearGradient id="paint0_linear" x1="127.5" y1="253" x2="127.5" y2="2" gradientUnits="userSpaceOnUse">
<stop stop-color="#5570FF"/>
<stop offset="1" stop-color="#4DD3FF"/>
</linearGradient>
<linearGradient id="paint1_linear" x1="127.5" y1="204" x2="127.5" y2="86.1992" gradientUnits="userSpaceOnUse">
<stop stop-color="#5570FF"/>
<stop offset="1" stop-color="#4DD3FF"/>
</linearGradient>
</defs>
</svg>
