<?xml version="1.0" encoding="UTF-8" standalone="no"?>
<!-- Created with Inkscape (http://www.inkscape.org/) -->

<svg
   xmlns:dc="http://purl.org/dc/elements/1.1/"
   xmlns:cc="http://creativecommons.org/ns#"
   xmlns:rdf="http://www.w3.org/1999/02/22-rdf-syntax-ns#"
   xmlns:svg="http://www.w3.org/2000/svg"
   xmlns="http://www.w3.org/2000/svg"
   xmlns:xlink="http://www.w3.org/1999/xlink"
   xmlns:inkscape="http://www.inkscape.org/namespaces/inkscape"
   version="1.0"
   width="96"
   height="96"
   id="svg2408">
  <defs
     id="defs2410">
    <linearGradient
       id="linearGradient4384">
      <stop
         id="stop4386"
         style="stop-color:#ffffff;stop-opacity:1"
         offset="0" />
      <stop
         id="stop4388"
         style="stop-color:#ffffff;stop-opacity:0"
         offset="1" />
    </linearGradient>
    <linearGradient
       id="linearGradient4367">
      <stop
         id="stop4369"
         style="stop-color:#ffffff;stop-opacity:0.71755725"
         offset="0" />
      <stop
         id="stop4371"
         style="stop-color:#ffffff;stop-opacity:1"
         offset="1" />
    </linearGradient>
    <linearGradient
       x1="45.447727"
       y1="92.539597"
       x2="45.447727"
       y2="7.0165396"
       id="ButtonShadow"
       gradientUnits="userSpaceOnUse"
       gradientTransform="scale(1.0058652,0.994169)">
      <stop
         id="stop3750"
         style="stop-color:#000000;stop-opacity:1"
         offset="0" />
      <stop
         id="stop3752"
         style="stop-color:#000000;stop-opacity:0.58823532"
         offset="1" />
    </linearGradient>
    <linearGradient
       id="linearGradient3737">
      <stop
         id="stop3739"
         style="stop-color:#ffffff;stop-opacity:1"
         offset="0" />
      <stop
         id="stop3741"
         style="stop-color:#ffffff;stop-opacity:0"
         offset="1" />
    </linearGradient>
    <filter
       color-interpolation-filters="sRGB"
       id="filter3174">
      <feGaussianBlur
         id="feGaussianBlur3176"
         stdDeviation="1.71" />
    </filter>
    <filter
       x="-0.192"
       y="-0.192"
       width="1.3839999"
       height="1.3839999"
       color-interpolation-filters="sRGB"
       id="filter3794">
      <feGaussianBlur
         id="feGaussianBlur3796"
         stdDeviation="5.28" />
    </filter>
    <linearGradient
       x1="48"
       y1="20.220806"
       x2="48"
       y2="138.66119"
       id="linearGradient3613"
       xlink:href="#linearGradient3737"
       gradientUnits="userSpaceOnUse" />
    <linearGradient
       x1="45.447727"
       y1="92.539597"
       x2="45.447727"
       y2="7.0165396"
       id="ButtonShadow-0"
       gradientUnits="userSpaceOnUse"
       gradientTransform="matrix(1.0058652,0,0,0.994169,100,0)">
      <stop
         id="stop3750-8"
         style="stop-color:#000000;stop-opacity:1"
         offset="0" />
      <stop
         id="stop3752-5"
         style="stop-color:#000000;stop-opacity:0.58823532"
         offset="1" />
    </linearGradient>
    <linearGradient
       x1="32.251034"
       y1="6.1317081"
       x2="32.251034"
       y2="90.238609"
       id="linearGradient3780"
       xlink:href="#ButtonShadow-0"
       gradientUnits="userSpaceOnUse"
       gradientTransform="matrix(1.0238095,0,0,1.0119048,-1.1428571,-98.071429)" />
    <linearGradient
       x1="32.251034"
       y1="6.1317081"
       x2="32.251034"
       y2="90.238609"
       id="linearGradient3772"
       xlink:href="#ButtonShadow-0"
       gradientUnits="userSpaceOnUse"
       gradientTransform="matrix(1.0238095,0,0,1.0119048,-1.1428571,-98.071429)" />
    <linearGradient
       x1="32.251034"
       y1="6.1317081"
       x2="32.251034"
       y2="90.238609"
       id="linearGradient3725"
       xlink:href="#ButtonShadow-0"
       gradientUnits="userSpaceOnUse"
       gradientTransform="matrix(1.0238095,0,0,1.0119048,-1.1428571,-98.071429)" />
    <linearGradient
       x1="32.251034"
       y1="6.1317081"
       x2="32.251034"
       y2="90.238609"
       id="linearGradient3721"
       xlink:href="#ButtonShadow-0"
       gradientUnits="userSpaceOnUse"
       gradientTransform="translate(0,-97)" />
    <linearGradient
       x1="32.251034"
       y1="6.1317081"
       x2="32.251034"
       y2="90.238609"
       id="linearGradient3026"
       xlink:href="#ButtonShadow-0"
       gradientUnits="userSpaceOnUse"
       gradientTransform="matrix(1.0238095,0,0,1.0119048,-1.1428571,-98.071429)" />
    <clipPath
       id="clipPath4355">
      <rect
         width="84"
         height="80"
         rx="6"
         ry="6"
         x="6"
         y="6"
         id="rect4357"
         style="fill:#ffffff;fill-opacity:1;fill-rule:nonzero;stroke:none" />
    </clipPath>
    <radialGradient
       cx="48"
       cy="87.792389"
       r="42"
       fx="48"
       fy="87.792389"
       id="radialGradient4375"
       xlink:href="#linearGradient4367"
       gradientUnits="userSpaceOnUse"
       gradientTransform="matrix(1,-6.7114942e-8,8.4282233e-8,1.2557894,109.99999,-24.505592)" />
    <linearGradient
       x1="48"
       y1="88"
       x2="48"
       y2="-40"
       id="linearGradient4390"
       xlink:href="#linearGradient4384"
       gradientUnits="userSpaceOnUse"
       gradientTransform="matrix(1,0,0,-1,0,92)" />
    <linearGradient
       x1="48"
       y1="82"
       x2="112.12357"
       y2="82.454597"
       id="linearGradient4429"
       xlink:href="#linearGradient4384"
       gradientUnits="userSpaceOnUse"
       spreadMethod="reflect" />
    <linearGradient
       id="linearGradient3892">
      <stop
         id="stop3894"
         style="stop-color:#000000;stop-opacity:0.58823532"
         offset="0" />
      <stop
         id="stop3896"
         style="stop-color:#000000;stop-opacity:0.47058824"
         offset="0.11780351" />
      <stop
         id="stop3898"
         style="stop-color:#000000;stop-opacity:0.39215687"
         offset="0.23809524" />
      <stop
         id="stop3900"
         style="stop-color:#000000;stop-opacity:0.3137255"
         offset="1" />
    </linearGradient>
    <linearGradient
       x1="90"
       y1="88"
       x2="48"
       y2="88"
       id="linearGradient3228"
       xlink:href="#linearGradient3892"
       gradientUnits="userSpaceOnUse"
       spreadMethod="reflect" />
    <linearGradient
       id="linearGradient3700-8">
      <stop
         id="stop3702-5"
         style="stop-color:#bebebe;stop-opacity:1"
         offset="0" />
      <stop
         id="stop3704-9"
         style="stop-color:#dcdcdc;stop-opacity:1"
         offset="1" />
    </linearGradient>
    <linearGradient
       x1="11.998966"
       y1="0.92195445"
       x2="11.998966"
       y2="19.387045"
       id="StandardGradient-3"
       gradientUnits="userSpaceOnUse"
       gradientTransform="scale(0.9219544,1.0846523)">
      <stop
         id="stop3283-5"
         style="stop-color:#000000;stop-opacity:0.86274511"
         offset="0" />
      <stop
         id="stop2651-2"
         style="stop-color:#000000;stop-opacity:0.47058824"
         offset="1" />
    </linearGradient>
    <linearGradient
       x1="48"
       y1="90"
       x2="48"
       y2="5.9877172"
       id="linearGradient3072"
       xlink:href="#linearGradient3700-8"
       gradientUnits="userSpaceOnUse" />
    <linearGradient
       x1="56"
       y1="16"
       x2="56"
       y2="80"
       id="linearGradient3102"
       xlink:href="#StandardGradient-3"
       gradientUnits="userSpaceOnUse"
       gradientTransform="matrix(0.94249199,0,0,0.94249199,-77.239616,-1.124598)" />
    <linearGradient
       x1="56"
       y1="16"
       x2="56"
       y2="80"
       id="linearGradient3875"
       xlink:href="#StandardGradient-3"
       gradientUnits="userSpaceOnUse"
       gradientTransform="matrix(1.1350441,0,0,1.1566947,-6.4821172,-0.56200582)" />
    <filter
       x="-0.23571429"
       y="-0.24444444"
       width="1.4714286"
       height="1.4888889"
       color-interpolation-filters="sRGB"
       id="filter3965">
      <feGaussianBlur
         id="feGaussianBlur3967"
         stdDeviation="5.5" />
    </filter>
    <clipPath
       id="clipPath3969">
      <path
         d="m 112,6 c -3.324,0 -6,2.676 -6,6 l 0,68 c 0,3.324 2.676,6 6,6 l 72,0 c 3.324,0 6,-2.676 6,-6 l 0,-68 c 0,-3.324 -2.676,-6 -6,-6 l -72,0 z m 36,12 c 7.92199,0 14.34376,6.062377 14.34375,13.53125 -0.0316,0.938654 -0.1119,1.96423 -0.1875,3.0625 1.08238,0.820671 1.21824,3.284897 0.15625,5.8125 -0.38331,0.9123 -0.88699,1.640144 -1.40625,2.28125 -0.16795,0.79293 -0.28375,1.420323 -0.5,2.34375 -0.58841,1.783113 -2.89786,5.322548 -4.65625,8.0625 -0.11333,1.822252 -0.0664,3.618647 0.15625,5.46875 5.49854,4.829865 19.82105,7.460042 19.84375,11.59375 L 176,72 l -56,0 0.25,-1.84375 c -0.0213,-4.829854 14.2457,-6.928354 19.8125,-11.59375 0.38805,-2.285373 0.38037,-4.272095 0.1875,-6.28125 -1.93403,-2.604458 -4.12476,-5.639327 -4.65625,-7.25 -0.17157,-0.793238 -0.29564,-1.328018 -0.4375,-2.03125 -0.02,-0.022 -0.0427,-0.03992 -0.0625,-0.0625 -0.59432,-0.675399 -1.19378,-1.504913 -1.625,-2.53125 -1.1183,-2.66163 -0.94121,-5.324875 0.3125,-6 -0.0881,-1.064655 -0.1058,-2.019055 -0.125,-2.875 C 133.65625,24.062375 140.07801,18 148,18 z"
         inkscape:connector-curvature="0"
         id="path3971"
         style="fill:#ff00ff;fill-opacity:1;fill-rule:nonzero;stroke:none" />
    </clipPath>
  </defs>
  <metadata
     id="metadata2413">
    <rdf:RDF>
      <cc:Work
         rdf:about="">
        <dc:format>image/svg+xml</dc:format>
        <dc:type
           rdf:resource="http://purl.org/dc/dcmitype/StillImage" />
        <dc:title />
      </cc:Work>
    </rdf:RDF>
  </metadata>
  <g
     id="layer2"
     style="display:none">
    <rect
       width="86"
       height="85"
       rx="6"
       ry="6"
       x="5"
       y="7"
       id="rect3745"
       style="opacity:0.9;fill:url(#ButtonShadow);fill-opacity:1;fill-rule:nonzero;stroke:none;filter:url(#filter3174)" />
  </g>
  <g
     id="layer3"
     style="display:inline">
    <path
       d="m 12,-95.03125 c -5.5110903,0 -10.03125,4.52016 -10.03125,10.03125 l 0,71 c 0,5.5110902 4.5201598,10.03125 10.03125,10.03125 l 72,0 c 5.51109,0 10.03125,-4.5201597 10.03125,-10.03125 l 0,-71 c 0,-5.51109 -4.52016,-10.03125 -10.03125,-10.03125 l -72,0 z"
       transform="scale(1,-1)"
       id="path3786"
       style="opacity:0.07999998;fill:url(#linearGradient3026);fill-opacity:1;fill-rule:nonzero;stroke:none;display:inline" />
    <path
       d="m 12,-94.03125 c -4.971633,0 -9.03125,4.059617 -9.03125,9.03125 l 0,71 c 0,4.9716329 4.0596171,9.03125 9.03125,9.03125 l 72,0 c 4.971633,0 9.03125,-4.059617 9.03125,-9.03125 l 0,-71 c 0,-4.971633 -4.059617,-9.03125 -9.03125,-9.03125 l -72,0 z"
       transform="scale(1,-1)"
       id="path3778"
       style="opacity:0.1;fill:url(#linearGradient3780);fill-opacity:1;fill-rule:nonzero;stroke:none;display:inline" />
    <path
       d="m 12,-93 c -4.4091333,0 -8,3.590867 -8,8 l 0,71 c 0,4.4091333 3.5908667,8 8,8 l 72,0 c 4.409133,0 8,-3.5908667 8,-8 l 0,-71 c 0,-4.409133 -3.590867,-8 -8,-8 l -72,0 z"
       transform="scale(1,-1)"
       id="path3770"
       style="opacity:0.2;fill:url(#linearGradient3772);fill-opacity:1;fill-rule:nonzero;stroke:none;display:inline" />
    <rect
       width="86"
       height="85"
       rx="7"
       ry="7"
       x="5"
       y="-92"
       transform="scale(1,-1)"
       id="rect3723"
       style="opacity:0.3;fill:url(#linearGradient3725);fill-opacity:1;fill-rule:nonzero;stroke:none;display:inline" />
    <rect
       width="84"
       height="84"
       rx="6"
       ry="6"
       x="6"
       y="-91"
       transform="scale(1,-1)"
       id="rect3716"
       style="opacity:0.45;fill:url(#linearGradient3721);fill-opacity:1;fill-rule:nonzero;stroke:none;display:inline" />
  </g>
  <g
     id="layer1">
    <rect
       width="84"
       height="84"
       rx="6"
       ry="6"
       x="6"
       y="6"
       id="rect2419"
       style="fill:url(#linearGradient3072);fill-opacity:1;fill-rule:nonzero;stroke:none" />
    <path
       d="M 120.78125,6.125 C 118.04223,6.6826484 116,9.0915 116,12 l 0,68 c 0,3.324 2.676,6 6,6 l 72,0 c 3.324,0 6,-2.676 6,-6 l 0,-68 c 0,-2.9085 -2.04223,-5.3173516 -4.78125,-5.875 2.20512,0.5362071 3.8125,2.4908437 3.8125,4.875 l 0,68 c 0,2.80489 -2.22636,5.03125 -5.03125,5.03125 l -72,0 c -2.80489,0 -5.03125,-2.22636 -5.03125,-5.03125 l 0,-68 c 0,-2.3841563 1.60738,-4.3387929 3.8125,-4.875 z"
       inkscape:connector-curvature="0"
       id="rect4359"
       style="opacity:0.2;fill:url(#radialGradient4375);fill-opacity:1;fill-rule:nonzero;stroke:none" />
    <path
       d="M 12,86 C 8.676,86 6,83.324 6,80 L 6,12 C 6,8.676 8.676,6 12,6 l 72,0 c 3.324,0 6,2.676 6,6 l 0,68 c 0,3.324 -2.676,6 -6,6 z m 0,-0.96875 72,0 c 2.80489,0 5.03125,-2.22636 5.03125,-5.03125 l 0,-68 C 89.03125,9.19511 86.80489,6.96875 84,6.96875 l -72,0 C 9.1951102,6.96875 6.96875,9.19511 6.96875,12 l 0,68 c 0,2.80489 2.2263602,5.03125 5.03125,5.03125 z"
       inkscape:connector-curvature="0"
       id="rect4377"
       style="opacity:0.5;fill:url(#linearGradient4390);fill-opacity:1;fill-rule:nonzero;stroke:none" />
    <path
       d="m 6,78 0,2 c 0,3.324 2.676,6 6,6 l 72,0 c 3.324,0 6,-2.676 6,-6 l 0,-2 c 0,3.324 -2.676,6 -6,6 L 12,84 C 8.676,84 6,81.324 6,78 z"
       inkscape:connector-curvature="0"
       id="rect4414"
       style="opacity:0.1;fill:url(#linearGradient4429);fill-opacity:1;fill-rule:nonzero;stroke:none" />
    <path
       d="m 6,100 0,1 c 0,3.324 2.676,6 6,6 l 72,0 c 3.324,0 6,-2.676 6,-6 l 0,-1 c 0,3.324 -2.676,6 -6,6 l -72,0 c -3.324,0 -6,-2.676 -6,-6 z"
       inkscape:connector-curvature="0"
       id="path4412"
       style="opacity:0.15;fill:#000000;fill-opacity:1;fill-rule:nonzero;stroke:none" />
  </g>
  <g
     id="layer4"
     style="display:inline">
    <path
       d="m 6,80 0,4 c 0,3.324 2.676,6 6,6 l 72,0 c 3.324,0 6,-2.676 6,-6 l 0,-4 c 0,3.324 -2.676,6 -6,6 L 12,86 C 8.676,86 6,83.324 6,80 z"
       inkscape:connector-curvature="0"
       id="path3888"
       style="fill:url(#linearGradient3228);fill-opacity:1;fill-rule:nonzero;stroke:none;display:inline" />
    <path
       d="m 6,82 0,2 c 0,3.324 2.676,6 6,6 l 72,0 c 3.324,0 6,-2.676 6,-6 l 0,-2 c 0,3.324 -2.676,6 -6,6 L 12,88 C 8.676,88 6,85.324 6,82 z"
       inkscape:connector-curvature="0"
       id="rect4345"
       style="opacity:0.1;color:#000000;fill:#000000;fill-opacity:1;fill-rule:nonzero;stroke:none;stroke-width:1.5;marker:none;visibility:visible;display:inline;overflow:visible;enable-background:accumulate" />
    <path
       d="m 6,83 0,1 c 0,3.324 2.676,6 6,6 l 72,0 c 3.324,0 6,-2.676 6,-6 l 0,-1 c 0,3.324 -2.676,6 -6,6 L 12,89 C 8.676,89 6,86.324 6,83 z"
       inkscape:connector-curvature="0"
       id="rect4336"
       style="opacity:0.15;color:#000000;fill:#000000;fill-opacity:1;fill-rule:nonzero;stroke:none;stroke-width:1.5;marker:none;visibility:visible;display:inline;overflow:visible;enable-background:accumulate" />
  </g>
  <g
     id="layer5"
     style="display:inline">
    <rect
       width="66"
       height="62"
       rx="12"
       ry="12"
       x="15"
       y="15"
       clip-path="url(#clipPath4355)"
       id="rect3171"
       style="opacity:0.1;fill:url(#linearGradient3613);fill-opacity:1;fill-rule:nonzero;stroke:#ffffff;stroke-width:0.5;stroke-linecap:round;stroke-linejoin:miter;stroke-miterlimit:4;stroke-opacity:1;stroke-dasharray:none;stroke-dashoffset:0;filter:url(#filter3794)" />
  </g>
  <g
     id="layer6"
     style="display:inline">
    <path
       d="m 148,18 c -7.92199,0 -14.33871,6.069478 -14.33871,13.538353 0.0192,0.855945 0.0248,1.811766 0.1129,2.876421 -1.25371,0.675125 -1.41937,3.321324 -0.30107,5.982954 0.43122,1.026337 1.02396,1.855851 1.61828,2.53125 0.0198,0.02258 0.0553,0.0547 0.0753,0.0767 0.14186,0.703232 0.24241,1.239432 0.41398,2.03267 0.53149,1.610673 2.73263,4.644122 4.66666,7.24858 0.19287,2.009155 0.19988,4.004399 -0.18817,6.289772 -5.5668,4.665396 -19.81704,6.752532 -19.7957,11.582386 L 120,72 l 56,0 -0.26344,-1.840909 c -0.0227,-4.133708 -14.33479,-6.752522 -19.83333,-11.582387 -0.22263,-1.850103 -0.26387,-3.662122 -0.15054,-5.484374 1.75839,-2.739952 4.07826,-6.270865 4.66667,-8.053978 0.21625,-0.923427 0.32129,-1.546558 0.48924,-2.339488 0.51926,-0.641106 1.00917,-1.388836 1.39248,-2.301136 1.06199,-2.527603 0.93184,-4.970522 -0.15054,-5.791193 0.0756,-1.09827 0.15655,-2.129528 0.18817,-3.068182 C 162.33872,24.06948 155.92199,18 148,18 z"
       inkscape:connector-curvature="0"
       transform="translate(-100,0)"
       clip-path="url(#clipPath3969)"
       id="path3958"
       style="fill:#ffffff;fill-opacity:1;stroke:none;display:inline;filter:url(#filter3965);enable-background:new" />
    <path
       d="m 48,18 c -7.921994,0 -14.33871,6.069478 -14.33871,13.538353 0.01925,0.855945 0.0248,1.811766 0.112904,2.876421 -1.253717,0.675125 -1.419374,3.321324 -0.301075,5.982954 0.431222,1.026337 1.023957,1.855851 1.618279,2.53125 0.01981,0.02258 0.05532,0.0547 0.07527,0.0767 0.141865,0.703232 0.242412,1.239432 0.413978,2.03267 0.531496,1.610673 2.732635,4.644122 4.666667,7.24858 0.19287,2.009155 0.199876,4.004399 -0.188172,6.289772 -5.566798,4.665396 -19.817037,6.752532 -19.795698,11.582386 L 20,72 76,72 75.736559,70.159091 C 75.713852,66.025383 61.401771,63.406569 55.903226,58.576704 55.680598,56.726601 55.639358,54.914582 55.752689,53.09233 c 1.758395,-2.739952 4.078265,-6.270865 4.666667,-8.053978 0.216251,-0.923427 0.321294,-1.546558 0.489246,-2.339488 0.519253,-0.641106 1.009167,-1.388836 1.392474,-2.301136 1.061991,-2.527603 0.93184,-4.970522 -0.150538,-5.791193 0.07563,-1.09827 0.156553,-2.129528 0.188172,-3.068182 C 62.338721,24.06948 55.921993,18 48,18 z"
       inkscape:connector-curvature="0"
       id="path3798"
       style="fill:url(#linearGradient3875);fill-opacity:1;stroke:none;display:inline;enable-background:new" />
    <path
       d="m -32.000013,14.000055 c -6.578084,0 -11.910673,4.933473 -11.910673,11.019222 0.01598,0.697437 0.0261,1.493764 0.09926,2.36126 -1.041033,0.550102 -1.176728,2.701364 -0.24814,4.870099 0.358069,0.836275 0.846451,1.515776 1.339951,2.066101 0.01645,0.0184 0.03308,0.0312 0.04963,0.04913 0.117798,0.573005 0.204935,1.026217 0.347397,1.672559 0.441331,1.3124 2.265031,3.781004 3.870968,5.903154 0.160151,1.637089 0.173325,3.253913 -0.148893,5.116069 -4.622431,3.801433 -16.444509,5.509609 -16.42679,9.445046 l -1.588084,10.232128 c 0,2.09638 3.159367,4.015841 8.188586,5.312838 l 0.694789,2.804 a 1.7295878,1.7144325 0 0 0 1.091813,1.131438 c 0.223226,0.08562 0.380762,0.266676 0.992554,0.442732 C -42.424897,77.353274 -37.517708,78 -32,78 c 5.517709,0 10.474525,-0.646726 13.697272,-1.574169 0.611792,-0.176056 0.769331,-0.357156 0.992554,-0.442732 a 1.7295878,1.7144325 0 0 0 1.042187,-1.082247 l 0.843671,-2.951578 c 4.906344,-1.294943 8.039703,-3.147592 8.039703,-5.214451 l -1.588095,-10.23212 c -0.01886,-3.368207 -11.910674,-5.509608 -16.47643,-9.445053 -0.18486,-1.507492 -0.193385,-2.991749 -0.09928,-4.476547 1.460096,-2.232553 3.382384,-5.08976 3.870967,-6.542667 0.179567,-0.752422 0.257562,-1.272434 0.397022,-1.918525 0.431165,-0.522382 0.823158,-1.125974 1.141439,-1.86933 0.881833,-2.059528 0.799501,-4.053827 -0.09926,-4.722522 0.0628,-0.894886 0.122622,-1.744011 0.148877,-2.50884 C -20.089364,18.933471 -25.421951,14 -32.000034,14 z"
       inkscape:connector-curvature="0"
       id="path3092"
       style="fill:url(#linearGradient3102);fill-opacity:1;stroke:none;display:inline;enable-background:new" />
    <path
       d="m -32,14 c -6.578084,0 -11.90625,4.945501 -11.90625,11.03125 0.01598,0.697437 0.02059,1.476254 0.09375,2.34375 -1.041033,0.550102 -1.178588,2.706265 -0.25,4.875 0.358069,0.836275 0.85025,1.512175 1.34375,2.0625 0.01645,0.0184 0.04595,0.04457 0.0625,0.0625 0.117798,0.573005 0.201288,1.009908 0.34375,1.65625 0.441331,1.3124 2.269063,3.7841 3.875,5.90625 0.160151,1.637089 0.165968,3.262844 -0.15625,5.125 -4.622431,3.801433 -16.455219,5.502063 -16.4375,9.4375 L -56.625,66.75 c 0,2.09638 3.158281,4.015503 8.1875,5.3125 l 0.71875,2.78125 a 1.7295878,1.7144325 0 0 0 1.09375,1.125 c 0.223226,0.08562 0.356958,0.292694 0.96875,0.46875 C -42.433502,77.364943 -37.517708,78 -32,78 c 5.517709,0 10.464753,-0.635057 13.6875,-1.5625 0.611792,-0.176056 0.776777,-0.383174 1,-0.46875 a 1.7295878,1.7144325 0 0 0 1.03125,-1.0625 L -15.4375,71.9375 C -10.531156,70.642557 -7.375,68.816859 -7.375,66.75 L -8.96875,56.5 c -0.01886,-3.368207 -11.902994,-5.502055 -16.46875,-9.4375 -0.18486,-1.507492 -0.219105,-2.983952 -0.125,-4.46875 1.460096,-2.232553 3.386417,-5.109593 3.875,-6.5625 0.179567,-0.752422 0.26679,-1.260159 0.40625,-1.90625 0.431165,-0.522382 0.837969,-1.131644 1.15625,-1.875 0.881833,-2.059528 0.773761,-4.050055 -0.125,-4.71875 0.0628,-0.894886 0.129995,-1.735171 0.15625,-2.5 C -20.093741,18.945502 -25.421917,14 -32,14 z m 0,1.9375 c 5.589056,0 9.931987,4.097552 9.96875,9.03125 1.56e-4,0.02098 0,0.04149 0,0.0625 -0.02545,0.688779 -0.063,1.491583 -0.125,2.375 a 1.9260586,1.9260586 0 0 0 0.625,1.5625 c -0.04866,-0.03591 0.081,0.101771 0.09375,0.46875 0.017,0.489306 -0.127404,1.265284 -0.46875,2.0625 -0.234439,0.54754 -0.533235,0.992182 -0.875,1.40625 a 1.9260586,1.9260586 0 0 0 -0.375,0.8125 c -0.13846,0.641458 -0.229377,1.123605 -0.375,1.75 -0.140365,0.390152 -0.691849,1.41967 -1.375,2.53125 -0.699714,1.13853 -1.546271,2.407434 -2.28125,3.53125 a 1.9260586,1.9260586 0 0 0 -0.3125,0.9375 c -0.101068,1.594663 -0.0436,3.21399 0.15625,4.84375 a 1.9260586,1.9260586 0 0 0 0.65625,1.21875 c 2.778403,2.394839 6.970946,3.82248 10.46875,5.25 1.748902,0.71376 3.325784,1.389438 4.3125,2 0.493358,0.305281 0.830394,0.621172 0.96875,0.78125 0.02661,0.03078 0.02025,0.01685 0.03125,0.03125 0.0028,0.0078 -0.0026,0.02524 0,0.03125 a 1.9260586,1.9260586 0 0 0 0.03125,0.15625 L -9.3125,66.75 c 0,0.05314 -0.146787,0.540805 -1.28125,1.25 -1.134463,0.709195 -3.007984,1.446016 -5.34375,2.0625 a 1.9260586,1.9260586 0 0 0 -1.34375,1.34375 l -0.78125,2.78125 c -0.668375,0.271611 -0.489908,0.32241 -0.78125,0.40625 -2.94392,0.847202 -7.786312,1.46875 -13.15625,1.46875 -5.369937,0 -10.177899,-0.620633 -13.125,-1.46875 -0.28413,-0.08176 0.01006,-0.09166 -0.78125,-0.40625 l -0.65625,-2.59375 a 1.9260586,1.9260586 0 0 0 -1.40625,-1.40625 c -2.386591,-0.615483 -4.259795,-1.363017 -5.40625,-2.09375 -1.146455,-0.730733 -1.3125,-1.262692 -1.3125,-1.34375 l 1.5625,-9.96875 A 1.9260586,1.9260586 0 0 0 -53.09375,56.5 c -8.2e-5,-0.01817 0.08294,-0.37888 1.03125,-1 0.948312,-0.62112 2.487742,-1.286755 4.21875,-1.96875 3.462017,-1.36399 7.643678,-2.645444 10.46875,-4.96875 a 1.9260586,1.9260586 0 0 0 0.6875,-1.15625 c 0.354991,-2.051555 0.32799,-3.900697 0.15625,-5.65625 a 1.9260586,1.9260586 0 0 0 -0.375,-0.96875 c -0.798009,-1.054521 -1.635807,-2.193362 -2.3125,-3.1875 -0.66528,-0.97737 -1.15615,-1.896071 -1.25,-2.15625 C -40.47035,35.433 -40.49863,35.41032 -40.5,35.40625 -40.606616,34.910433 -40.677182,34.506216 -40.78125,34 A 1.9260586,1.9260586 0 0 0 -41.25,33.0625 c -0.156701,-0.169767 -0.172559,-0.18931 -0.03125,-0.03125 -0.395143,-0.440643 -0.745486,-0.936828 -1,-1.53125 -0.359852,-0.840442 -0.496566,-1.682848 -0.46875,-2.1875 0.01391,-0.252326 0.05994,-0.355372 0.0625,-0.375 a 1.9260586,1.9260586 0 0 0 0.78125,-1.71875 c -0.06469,-0.767115 -0.04649,-1.475745 -0.0625,-2.1875 0,-0.0105 -3.9e-5,-0.02075 0,-0.03125 0.01844,-4.947692 4.367811,-9.0625 9.96875,-9.0625 z"
       inkscape:connector-curvature="0"
       id="path3094"
       style="opacity:0.1;fill:#000000;fill-opacity:1;stroke:none;display:inline;enable-background:new" />
    <path
       d="m -32,14 c -6.578084,0 -11.90625,4.945501 -11.90625,11.03125 0.01598,0.697437 0.02059,1.476254 0.09375,2.34375 -1.041033,0.550102 -1.178588,2.706265 -0.25,4.875 0.358069,0.836275 0.85025,1.512175 1.34375,2.0625 0.01645,0.0184 0.04595,0.04457 0.0625,0.0625 0.117798,0.573005 0.201288,1.009908 0.34375,1.65625 0.441331,1.3124 2.269063,3.7841 3.875,5.90625 0.160151,1.637089 0.165968,3.262844 -0.15625,5.125 -4.622431,3.801433 -16.455219,5.502063 -16.4375,9.4375 L -56.625,66.75 c 0,2.09638 3.158281,4.015503 8.1875,5.3125 l 0.71875,2.78125 a 1.7295878,1.7144325 0 0 0 1.09375,1.125 c 0.223226,0.08562 0.356958,0.292694 0.96875,0.46875 C -42.433502,77.364943 -37.517708,78 -32,78 c 5.517709,0 10.464753,-0.635057 13.6875,-1.5625 0.611792,-0.176056 0.776777,-0.383174 1,-0.46875 a 1.7295878,1.7144325 0 0 0 1.03125,-1.0625 L -15.4375,71.9375 C -10.531156,70.642557 -7.375,68.816859 -7.375,66.75 L -8.96875,56.5 c -0.01886,-3.368207 -11.902994,-5.502055 -16.46875,-9.4375 -0.18486,-1.507492 -0.219105,-2.983952 -0.125,-4.46875 1.460096,-2.232553 3.386417,-5.109593 3.875,-6.5625 0.179567,-0.752422 0.26679,-1.260159 0.40625,-1.90625 0.431165,-0.522382 0.837969,-1.131644 1.15625,-1.875 0.881833,-2.059528 0.773761,-4.050055 -0.125,-4.71875 0.0628,-0.894886 0.129995,-1.735171 0.15625,-2.5 C -20.093741,18.945502 -25.421917,14 -32,14 z m 0,1.0625 c 6.039419,0 10.825314,4.479735 10.84375,9.9375 3.6e-5,0.01053 0,0.02072 0,0.03125 -0.02575,0.723069 -0.0938,1.54758 -0.15625,2.4375 a 1.0515944,1.0515944 0 0 0 0.4375,0.90625 c 0.0647,0.04813 0.289992,0.383332 0.3125,1.03125 0.02251,0.647918 -0.144697,1.534703 -0.53125,2.4375 -0.272505,0.636444 -0.617646,1.161756 -1,1.625 a 1.0515944,1.0515944 0 0 0 -0.21875,0.4375 c -0.136962,0.634517 -0.219439,1.116441 -0.375,1.78125 -0.0084,0.03588 -0.02241,0.05671 -0.03125,0.09375 -0.196607,0.546091 -0.748278,1.566042 -1.4375,2.6875 -0.711269,1.157332 -1.54851,2.442107 -2.28125,3.5625 a 1.0515944,1.0515944 0 0 0 -0.1875,0.5 c -0.09791,1.544782 -0.0368,3.082002 0.15625,4.65625 a 1.0515944,1.0515944 0 0 0 0.34375,0.65625 c 2.553426,2.200921 6.699922,3.6889 10.21875,5.125 1.759414,0.71805 3.359339,1.426603 4.4375,2.09375 0.539081,0.333574 0.959556,0.642518 1.1875,0.90625 0.227944,0.263732 0.249372,0.419065 0.25,0.53125 A 1.0515944,1.0515944 0 0 0 -10,56.65625 L -8.4375,66.75 c 0,0.498211 -0.43142,1.214778 -1.6875,2 -1.25608,0.785222 -3.20468,1.525697 -5.59375,2.15625 a 1.0515944,1.0515944 0 0 0 -0.71875,0.75 l -0.8125,2.90625 -0.03125,0.03125 c -0.0095,0.02386 -0.0015,0.03464 0,0.03125 0.0015,-0.0034 -0.0204,-0.02329 -0.03125,0 -0.0217,0.04658 0.02427,0.01721 0,0.0625 -0.02427,0.04529 -0.0045,-0.01261 -0.03125,0.03125 -0.02676,0.04386 -0.0021,-0.01105 -0.03125,0.03125 -0.03147,0.04061 0.0024,-0.0075 -0.03125,0.03125 -0.03367,0.03879 0.0045,-0.0056 -0.03125,0.03125 -0.03578,0.03686 0.0065,-0.0036 -0.03125,0.03125 -0.03776,0.03481 0.0084,-0.0014 -0.03125,0.03125 -0.01982,0.01633 -0.01013,0.03132 0,0.03125 -0.04138,0.03042 0.01175,-0.02808 -0.03125,0 -0.043,0.02808 0.01323,0.0056 -0.03125,0.03125 -0.04448,0.02565 -0.01667,0.0081 -0.0625,0.03125 -0.04583,0.02315 0.01579,-0.02059 -0.03125,0 -0.04704,0.02059 0.01685,-0.01796 -0.03125,0 a 1.0515944,1.0515944 0 0 0 0,0.03125 c -0.591024,0.226578 -0.456797,0.30816 -0.90625,0.4375 -3.070512,0.883633 -7.969221,1.5 -13.40625,1.5 -5.437028,0 -10.302751,-0.615868 -13.375,-1.5 C -45.815352,75.310779 -45.628603,75.238341 -46.25,75 a 1.0515944,1.0515944 0 0 0 -0.03125,-0.03125 c -0.05173,-0.01761 0.01936,0.02062 -0.03125,0 -0.05061,-0.02062 -0.01318,-0.0077 -0.0625,-0.03125 -0.04932,-0.02356 0.0166,0.02642 -0.03125,0 -0.04785,-0.02642 0.01496,-0.0021 -0.03125,-0.03125 -0.04621,-0.02919 0.01317,6.13e-4 -0.03125,-0.03125 -0.04442,-0.03186 0.01121,0.0032 -0.03125,-0.03125 -0.02123,-0.01721 -0.03379,-0.0089 -0.03125,0 -0.04036,-0.03688 0.0069,0.008 -0.03125,-0.03125 -0.03811,-0.0392 0.0045,0.01014 -0.03125,-0.03125 0.0086,0.0028 0.01661,-0.0095 0,-0.03125 -0.03322,-0.04344 -6.63e-4,0.01408 -0.03125,-0.03125 -0.03059,-0.04533 -0.0034,0.01582 -0.03125,-0.03125 -0.02785,-0.04707 0.025,0.01739 0,-0.03125 -0.025,-0.04864 -0.0092,0.0188 -0.03125,-0.03125 -0.01103,-0.02502 -0.0015,-0.0349 0,-0.03125 l 0,-0.03125 c -0.01905,-0.05127 -0.01528,0.02107 -0.03125,-0.03125 l -0.6875,-2.71875 a 1.0515944,1.0515944 0 0 0 -0.78125,-0.78125 c -2.444714,-0.630473 -4.386408,-1.409372 -5.65625,-2.21875 -1.269842,-0.809378 -1.71875,-1.542347 -1.71875,-2.0625 L -54,56.65625 A 1.0515944,1.0515944 0 0 0 -53.96875,56.5 c -0.0021,-0.456611 0.384425,-1.029013 1.4375,-1.71875 1.053075,-0.689737 2.627699,-1.374086 4.375,-2.0625 3.494601,-1.376828 7.626978,-2.712307 10.21875,-4.84375 a 1.0515944,1.0515944 0 0 0 0.375,-0.625 c 0.340111,-1.965565 0.322728,-3.704481 0.15625,-5.40625 a 1.0515944,1.0515944 0 0 0 -0.1875,-0.53125 c -0.800261,-1.057497 -1.650645,-2.200501 -2.34375,-3.21875 -0.693105,-1.018249 -1.230547,-1.976685 -1.375,-2.40625 -0.121357,-0.55822 -0.202286,-0.995134 -0.3125,-1.53125 a 1.0515944,1.0515944 0 0 0 -0.25,-0.5 c -0.02327,-0.02521 -0.04683,-0.0175 -0.0625,-0.03125 -0.439799,-0.49044 -0.85472,-1.077023 -1.15625,-1.78125 -0.407271,-0.951189 -0.568432,-1.919185 -0.53125,-2.59375 0.03718,-0.674565 0.27681,-0.918641 0.3125,-0.9375 a 1.0515944,1.0515944 0 0 0 0.5625,-1.03125 c -0.0681,-0.807473 -0.07798,-1.547924 -0.09375,-2.25 0,-0.01053 -3.6e-5,-0.02072 0,-0.03125 0.01844,-5.457768 4.80433,-9.9375 10.84375,-9.9375 z"
       inkscape:connector-curvature="0"
       id="path3096"
       style="opacity:0.15;fill:#000000;fill-opacity:1;stroke:none;display:inline;enable-background:new" />
    <path
       d="m -32,14 c -6.578084,0 -11.90625,4.945501 -11.90625,11.03125 0.0048,0.209345 0.02565,0.429835 0.03125,0.65625 C -43.676299,19.76281 -38.452215,15 -32,15 c 6.383903,0 11.57293,4.663117 11.875,10.5 0.0071,-0.149119 0.02633,-0.325307 0.03125,-0.46875 C -20.093741,18.945502 -25.421917,14 -32,14 z m -11.875,13.40625 c -0.609597,0.370124 -0.873775,1.329002 -0.78125,2.5 0.09528,-0.722115 0.387821,-1.290328 0.84375,-1.53125 -0.02837,-0.336398 -0.04907,-0.655372 -0.0625,-0.96875 z m 23.6875,0.1875 c -0.0211,0.320759 -0.03894,0.601831 -0.0625,0.9375 0.407828,0.303432 0.629688,0.893433 0.6875,1.625 0.13658,-1.15474 -0.0914,-2.105822 -0.625,-2.5625 z M -38.375,44.75 c -0.02908,0.735547 -0.0793,1.506579 -0.21875,2.3125 -4.622431,3.801433 -16.455219,5.502063 -16.4375,9.4375 L -56.625,66.75 c 0,0.173606 0.0199,0.329073 0.0625,0.5 l 1.53125,-9.75 c -0.01772,-3.935437 11.815069,-5.636067 16.4375,-9.4375 0.203424,-1.175624 0.23527,-2.265609 0.21875,-3.3125 z m 12.78125,0.40625 c -0.0082,0.963601 0.03649,1.929609 0.15625,2.90625 4.565756,3.935445 16.44989,6.069293 16.46875,9.4375 l 1.53125,9.75 c 0.0422,-0.168029 0.0625,-0.328838 0.0625,-0.5 L -8.96875,56.5 c -0.01886,-3.368207 -11.902994,-5.502055 -16.46875,-9.4375 -0.07832,-0.638679 -0.135628,-1.274104 -0.15625,-1.90625 z"
       inkscape:connector-curvature="0"
       id="path3098"
       style="opacity:0.5;fill:#000000;fill-opacity:1;stroke:none;display:inline;enable-background:new" />
    <path
       d="m -20.125,25.5 c -0.03069,0.645974 -0.07398,1.304199 -0.125,2.03125 0.02247,0.01672 0.04105,0.04415 0.0625,0.0625 0.03516,-0.534376 0.07734,-1.084556 0.09375,-1.5625 0,-0.179647 -0.02206,-0.353709 -0.03125,-0.53125 z m -23.75,0.1875 c -0.0039,0.115578 -0.03125,0.227302 -0.03125,0.34375 0.0098,0.426984 0.01005,0.880246 0.03125,1.375 0.0193,-0.01172 0.04253,-0.0207 0.0625,-0.03125 -0.0512,-0.607106 -0.04943,-1.159609 -0.0625,-1.6875 z m -0.78125,4.28125 c -0.106491,0.91862 0.0832,2.088843 0.59375,3.28125 0.358069,0.836275 0.85025,1.512175 1.34375,2.0625 0.01645,0.0184 0.04595,0.04457 0.0625,0.0625 0.117798,0.573005 0.201288,1.009908 0.34375,1.65625 0.441331,1.3124 2.269063,3.7841 3.875,5.90625 0.05904,0.603555 0.05285,1.201144 0.0625,1.8125 0.03812,-0.964003 0.02834,-1.883926 -0.0625,-2.8125 -1.605937,-2.12215 -3.433669,-4.59385 -3.875,-5.90625 -0.142462,-0.646342 -0.225952,-1.083245 -0.34375,-1.65625 -0.01655,-0.01793 -0.04605,-0.0441 -0.0625,-0.0625 -0.4935,-0.550325 -0.985681,-1.226225 -1.34375,-2.0625 -0.338697,-0.791032 -0.530521,-1.571715 -0.59375,-2.28125 z m 25.09375,0.1875 c -0.07751,0.65529 -0.251229,1.366774 -0.5625,2.09375 -0.318281,0.743356 -0.725085,1.352618 -1.15625,1.875 -0.13946,0.646091 -0.226683,1.153828 -0.40625,1.90625 -0.488583,1.452907 -2.414904,4.329947 -3.875,6.5625 -0.0212,0.334536 0.0099,0.665247 0,1 1.460096,-2.232553 3.386417,-5.109593 3.875,-6.5625 0.179567,-0.752422 0.26679,-1.260159 0.40625,-1.90625 0.431165,-0.522382 0.837969,-1.131644 1.15625,-1.875 0.481686,-1.124982 0.632092,-2.213108 0.5625,-3.09375 z m -37,37.09375 -0.0625,0.5 c 0,2.09638 3.158281,4.015503 8.1875,5.3125 l 0.71875,2.78125 a 1.7295878,1.7144325 0 0 0 1.09375,1.125 c 0.223226,0.08562 0.356958,0.292694 0.96875,0.46875 C -42.433502,78.364943 -37.517708,79 -32,79 c 5.517709,0 10.464753,-0.635057 13.6875,-1.5625 0.611792,-0.176056 0.776777,-0.383174 1,-0.46875 a 1.7295878,1.7144325 0 0 0 1.03125,-1.0625 l 0.84375,-2.96875 c 4.906344,-1.294943 8.0625,-3.120641 8.0625,-5.1875 l -0.0625,-0.5 c -0.467429,1.860996 -3.499963,3.499794 -8,4.6875 l -0.84375,2.96875 a 1.7295878,1.7144325 0 0 1 -1.03125,1.0625 c -0.223223,0.08558 -0.388208,0.292694 -1,0.46875 C -21.535247,77.364943 -26.482291,78 -32,78 c -5.517708,0 -10.433502,-0.635057 -13.65625,-1.5625 -0.611792,-0.176056 -0.745524,-0.38313 -0.96875,-0.46875 a 1.7295878,1.7144325 0 0 1 -1.09375,-1.125 L -48.4375,72.0625 c -4.612737,-1.189589 -7.653174,-2.919405 -8.125,-4.8125 z"
       inkscape:connector-curvature="0"
       id="path3100"
       style="opacity:0.5;fill:#ffffff;fill-opacity:1;stroke:none;display:inline;enable-background:new" />
    <path
       d="m 48,18 c -7.921994,0 -14.34375,6.062375 -14.34375,13.53125 0.01925,0.855945 0.0369,1.810345 0.125,2.875 -1.253717,0.675125 -1.430799,3.33837 -0.3125,6 0.431222,1.026337 1.030678,1.855851 1.625,2.53125 0.01981,0.02258 0.04255,0.0405 0.0625,0.0625 0.141865,0.703232 0.265934,1.238012 0.4375,2.03125 0.531496,1.610673 2.722218,4.645542 4.65625,7.25 0.19287,2.009155 0.200548,3.995877 -0.1875,6.28125 C 34.495702,63.227896 20.228661,65.326396 20.25,70.15625 L 20,72 76,72 75.75,70.15625 C 75.727293,66.022542 61.404795,63.392365 55.90625,58.5625 55.683622,56.712397 55.636669,54.916002 55.75,53.09375 c 1.758395,-2.739952 4.067848,-6.279387 4.65625,-8.0625 0.216251,-0.923427 0.332048,-1.55082 0.5,-2.34375 0.519253,-0.641106 1.022943,-1.36895 1.40625,-2.28125 1.061991,-2.527603 0.926128,-4.991829 -0.15625,-5.8125 0.07563,-1.09827 0.155881,-2.123846 0.1875,-3.0625 C 62.343761,24.062377 55.921993,18 48,18 z m 0,2.875 c 6.447383,0 11.450617,4.813909 11.46875,10.625 -3.2e-4,0.0089 3.3e-4,0.02228 0,0.03125 -0.03051,0.828575 -0.113139,1.79516 -0.1875,2.875 a 2.8677534,2.8677534 0 0 0 0.8125,2.15625 2.8677534,2.8677534 0 0 0 0,0.03125 c 0.0076,0.01889 0.08514,0.131046 0.09375,0.375 0.01858,0.52635 -0.146074,1.395757 -0.53125,2.3125 -0.246791,0.587382 -0.54675,1.072719 -0.96875,1.59375 a 2.8677534,2.8677534 0 0 0 -0.59375,1.21875 c -0.156653,0.739587 -0.243034,1.31132 -0.40625,2.03125 -0.0029,0.01282 -0.0283,0.01831 -0.03125,0.03125 -0.132855,0.386157 -0.770228,1.690859 -1.59375,3.0625 -0.833588,1.388407 -1.834484,2.934626 -2.71875,4.3125 a 2.8677534,2.8677534 0 0 0 -0.46875,1.375 c -0.123624,1.987751 -0.05572,3.978786 0.1875,6 A 2.8677534,2.8677534 0 0 0 54,60.71875 c 3.48284,3.05929 8.580181,4.813531 12.78125,6.5625 1.585774,0.660182 2.738908,1.259761 3.84375,1.84375 l -46,0 c 1.100556,-0.670763 2.619007,-1.400517 4.5,-2.15625 4.151954,-1.668144 9.235781,-3.24738 12.78125,-6.21875 A 2.8677534,2.8677534 0 0 0 42.875,59.03125 C 43.310005,56.469327 43.30311,54.18093 43.09375,52 A 2.8677534,2.8677534 0 0 0 42.5625,50.5625 c -0.958142,-1.290278 -1.97826,-2.668825 -2.78125,-3.875 -0.784023,-1.177685 -1.348467,-2.260297 -1.4375,-2.5 -0.142301,-0.651357 -0.258293,-1.171476 -0.375,-1.75 a 2.8677534,2.8677534 0 0 0 -0.6875,-1.375 C 37.053426,40.811265 37.048384,40.801442 37.25,41.03125 c -0.456821,-0.519141 -0.847656,-1.089903 -1.125,-1.75 -0.405914,-0.966104 -0.561616,-1.931413 -0.53125,-2.46875 0.01197,-0.211774 0.05986,-0.21393 0.0625,-0.21875 a 2.8677534,2.8677534 0 0 0 0.96875,-2.4375 c -0.07725,-0.933451 -0.07482,-1.779749 -0.09375,-2.625 -4.5e-4,-0.0201 4.52e-4,-0.04242 0,-0.0625 C 36.567444,25.671804 41.564321,20.875 48,20.875 z"
       inkscape:connector-curvature="0"
       id="path3917"
       style="opacity:0.05;fill:#000000;fill-opacity:1;stroke:none;display:inline;enable-background:new" />
    <path
       d="m 62.3125,32.0625 c -0.03891,0.801765 -0.09374,1.623468 -0.15625,2.53125 0.02239,0.01698 0.04092,0.04415 0.0625,0.0625 0.05117,-0.731815 0.103063,-1.473784 0.125,-2.125 0,-0.159122 -0.02547,-0.310944 -0.03125,-0.46875 z m -28.625,0.21875 c -0.0017,0.08483 -0.03125,0.164799 -0.03125,0.25 0.01303,0.579511 0.03216,1.232395 0.0625,1.90625 0.01956,-0.01184 0.04238,-0.02042 0.0625,-0.03125 -0.06406,-0.77417 -0.07998,-1.462479 -0.09375,-2.125 z M 32.75,37.5 c -0.09401,1.107054 0.130321,2.505747 0.71875,3.90625 0.431222,1.026337 1.030678,1.855851 1.625,2.53125 0.01981,0.02258 0.04255,0.0405 0.0625,0.0625 0.141865,0.703232 0.265934,1.238012 0.4375,2.03125 0.531496,1.610673 2.722218,4.645542 4.65625,7.25 0.0733,0.763575 0.116874,1.536254 0.125,2.3125 0.03713,-1.124384 -0.02088,-2.227845 -0.125,-3.3125 -1.934032,-2.604458 -4.124754,-5.639327 -4.65625,-7.25 C 35.422184,44.238012 35.298115,43.703232 35.15625,43 35.1363,42.978 35.11356,42.96008 35.09375,42.9375 34.499428,42.262101 33.899972,41.432587 33.46875,40.40625 33.049388,39.408139 32.81858,38.390642 32.75,37.5 z M 63,37.65625 c -0.07561,0.842951 -0.289253,1.802149 -0.6875,2.75 -0.383307,0.9123 -0.886997,1.640144 -1.40625,2.28125 -0.167952,0.79293 -0.283749,1.420323 -0.5,2.34375 -0.588402,1.783113 -2.897855,5.322548 -4.65625,8.0625 -0.04942,0.794587 -0.07408,1.580299 -0.0625,2.375 0.0086,-0.455039 0.03417,-0.919437 0.0625,-1.375 1.758395,-2.739952 4.067848,-6.279387 4.65625,-8.0625 0.216251,-0.923427 0.332048,-1.55082 0.5,-2.34375 0.519253,-0.641106 1.022943,-1.36895 1.40625,-2.28125 0.569905,-1.356408 0.767145,-2.679984 0.6875,-3.75 z M 20.125,72 20,73 l 56,0 -0.125,-1 -55.75,0 z"
       inkscape:connector-curvature="0"
       id="path3877"
       style="opacity:0.3;fill:#ffffff;fill-opacity:1;stroke:none;display:inline;enable-background:new" />
    <path
       d="m 48,18 c -7.921994,0 -14.34375,6.062375 -14.34375,13.53125 0.01925,0.855945 0.0369,1.810345 0.125,2.875 -1.253717,0.675125 -1.430799,3.33837 -0.3125,6 0.431222,1.026337 1.030678,1.855851 1.625,2.53125 0.01981,0.02258 0.04255,0.0405 0.0625,0.0625 0.141865,0.703232 0.265934,1.238012 0.4375,2.03125 0.531496,1.610673 2.722218,4.645542 4.65625,7.25 0.19287,2.009155 0.200548,3.995877 -0.1875,6.28125 C 34.495702,63.227896 20.228661,65.326396 20.25,70.15625 L 20,72 76,72 75.75,70.15625 C 75.727293,66.022542 61.404795,63.392365 55.90625,58.5625 55.683622,56.712397 55.636669,54.916002 55.75,53.09375 c 1.758395,-2.739952 4.067848,-6.279387 4.65625,-8.0625 0.216251,-0.923427 0.332048,-1.55082 0.5,-2.34375 0.519253,-0.641106 1.022943,-1.36895 1.40625,-2.28125 1.061991,-2.527603 0.926128,-4.991829 -0.15625,-5.8125 0.07563,-1.09827 0.155881,-2.123846 0.1875,-3.0625 C 62.343761,24.062377 55.921993,18 48,18 z m 0,2 c 6.877907,0 12.307581,5.175633 12.34375,11.46875 1.21e-4,0.02109 0,0.04139 0,0.0625 -0.03078,0.861134 -0.112656,1.85065 -0.1875,2.9375 a 2.0015608,2.0015608 0 0 0 0.71875,1.6875 c -0.0067,0.03079 0.138254,0.271354 0.15625,0.78125 0.02399,0.679862 -0.13328,1.66593 -0.5625,2.6875 -0.288025,0.685522 -0.673625,1.255201 -1.125,1.8125 a 2.0015608,2.0015608 0 0 0 -0.40625,0.84375 c -0.161774,0.763764 -0.256645,1.337134 -0.4375,2.125 -0.173514,0.525824 -0.842699,1.874166 -1.6875,3.28125 -0.844801,1.407084 -1.867265,2.937012 -2.75,4.3125 A 2.0015608,2.0015608 0 0 0 53.75,52.96875 c -0.120515,1.937763 -0.08075,3.874219 0.15625,5.84375 a 2.0015608,2.0015608 0 0 0 0.6875,1.25 c 3.261269,2.864665 8.309125,4.648515 12.53125,6.40625 2.111063,0.878867 3.996621,1.728959 5.21875,2.5 0.611065,0.38552 1.047578,0.761343 1.25,1 0.0365,0.04304 0.009,0.0013 0.03125,0.03125 l -51.21875,0 c 0.05074,-0.252566 0.193877,-0.670062 1.25,-1.375 1.181598,-0.78869 3.063964,-1.628125 5.15625,-2.46875 4.184572,-1.681249 9.215961,-3.284038 12.53125,-6.0625 a 2.0015608,2.0015608 0 0 0 0.6875,-1.1875 c 0.420822,-2.478392 0.423129,-4.683454 0.21875,-6.8125 a 2.0015608,2.0015608 0 0 0 -0.40625,-1 C 40.882928,49.799862 39.881463,48.417668 39.0625,47.1875 38.261455,45.984247 37.676098,44.876628 37.53125,44.46875 37.373809,43.744829 37.252472,43.225636 37.125,42.59375 a 2.0015608,2.0015608 0 0 0 -0.5,-0.9375 c -0.165037,-0.181995 -0.165985,-0.184825 -0.03125,-0.03125 -0.498353,-0.566338 -0.957428,-1.229281 -1.28125,-2 -0.452198,-1.076263 -0.633429,-2.141627 -0.59375,-2.84375 0.02976,-0.526592 0.177298,-0.699433 0.125,-0.6875 A 2.0015608,2.0015608 0 0 0 35.78125,34.25 c -0.08088,-0.977363 -0.10587,-1.865672 -0.125,-2.71875 0,-0.01056 -3e-5,-0.0207 0,-0.03125 C 35.674381,25.192588 41.110568,20 48,20 z"
       inkscape:connector-curvature="0"
       id="path3900"
       style="opacity:0.1;fill:#000000;fill-opacity:1;stroke:none;display:inline;enable-background:new" />
    <path
       d="m 48,18 c -7.921994,0 -14.34375,6.062375 -14.34375,13.53125 0.01925,0.855945 0.0369,1.810345 0.125,2.875 -1.253717,0.675125 -1.430799,3.33837 -0.3125,6 0.431222,1.026337 1.030678,1.855851 1.625,2.53125 0.01981,0.02258 0.04255,0.0405 0.0625,0.0625 0.141865,0.703232 0.265934,1.238012 0.4375,2.03125 0.531496,1.610673 2.722218,4.645542 4.65625,7.25 0.19287,2.009155 0.200548,3.995877 -0.1875,6.28125 C 34.495702,63.227896 20.228661,65.326396 20.25,70.15625 L 20,72 76,72 75.75,70.15625 C 75.727293,66.022542 61.404795,63.392365 55.90625,58.5625 55.683622,56.712397 55.636669,54.916002 55.75,53.09375 c 1.758395,-2.739952 4.067848,-6.279387 4.65625,-8.0625 0.216251,-0.923427 0.332048,-1.55082 0.5,-2.34375 0.519253,-0.641106 1.022943,-1.36895 1.40625,-2.28125 1.061991,-2.527603 0.926128,-4.991829 -0.15625,-5.8125 0.07563,-1.09827 0.155881,-2.123846 0.1875,-3.0625 C 62.343761,24.062377 55.921993,18 48,18 z m 0,1.0625 c 7.3754,0 13.263019,5.584417 13.28125,12.4375 2.8e-5,0.01062 0,0.02063 0,0.03125 -0.03115,0.897638 -0.08098,1.906998 -0.15625,3 a 1.049094,1.049094 0 0 0 0.40625,0.90625 c 0.155237,0.117703 0.438798,0.620086 0.46875,1.46875 0.02995,0.848664 -0.178599,1.956911 -0.65625,3.09375 -0.333366,0.793437 -0.766324,1.43407 -1.25,2.03125 a 1.049094,1.049094 0 0 0 -0.21875,0.4375 c -0.163844,0.773535 -0.273914,1.376683 -0.46875,2.21875 -0.0084,0.03648 -0.02248,0.05631 -0.03125,0.09375 -0.248092,0.71296 -0.914338,1.983138 -1.75,3.375 -0.857132,1.427621 -1.868948,3.002135 -2.75,4.375 a 1.049094,1.049094 0 0 0 -0.1875,0.5 c -0.117096,1.882795 -0.04266,3.74355 0.1875,5.65625 a 1.049094,1.049094 0 0 0 0.34375,0.65625 c 3.017629,2.650654 8.004721,4.482626 12.25,6.25 2.122639,0.883687 4.053076,1.728499 5.375,2.5625 0.660962,0.417 1.170146,0.835443 1.46875,1.1875 0.298604,0.352057 0.373824,0.598346 0.375,0.8125 a 1.049094,1.049094 0 0 0 0.03125,0.15625 l 0.09375,0.625 -53.625,0 0.09375,-0.625 a 1.049094,1.049094 0 0 0 0.03125,-0.15625 c -0.0031,-0.690703 0.516735,-1.447606 1.8125,-2.3125 1.295765,-0.864894 3.202281,-1.71467 5.3125,-2.5625 4.220438,-1.695659 9.250317,-3.33991 12.3125,-5.90625 a 1.049094,1.049094 0 0 0 0.34375,-0.625 c 0.405226,-2.386542 0.386402,-4.490505 0.1875,-6.5625 a 1.049094,1.049094 0 0 0 -0.1875,-0.53125 c -0.96377,-1.297857 -1.975974,-2.7122 -2.8125,-3.96875 -0.836526,-1.25655 -1.494711,-2.415763 -1.6875,-3 -0.156714,-0.720555 -0.276046,-1.260824 -0.40625,-1.90625 a 1.049094,1.049094 0 0 0 -0.25,-0.5 C 35.9135,42.25478 35.89014,42.26334 35.875,42.25 35.330979,41.631764 34.81243,40.892358 34.4375,40 c -0.503092,-1.197395 -0.706169,-2.397927 -0.65625,-3.28125 0.04992,-0.883323 0.361964,-1.300668 0.5,-1.375 A 1.049094,1.049094 0 0 0 34.8125,34.3125 c -0.08386,-1.013404 -0.07467,-1.930201 -0.09375,-2.78125 0,-0.01062 -2.8e-5,-0.02063 0,-0.03125 C 34.736991,24.646913 40.624599,19.0625 48,19.0625 z"
       inkscape:connector-curvature="0"
       id="path3896"
       style="opacity:0.2;fill:#000000;fill-opacity:1;stroke:none;display:inline;enable-background:new" />
    <path
       d="m 48,18 c -7.921994,0 -14.34375,6.062375 -14.34375,13.53125 0.0053,0.23354 0.02608,0.501408 0.03125,0.75 C 33.831595,24.92974 40.168376,19 48,19 c 7.753218,0 14.047105,5.81318 14.3125,13.0625 0.0082,-0.168242 0.02577,-0.368446 0.03125,-0.53125 C 62.343761,24.062377 55.921993,18 48,18 z M 33.71875,34.4375 c -0.736524,0.445924 -1.072508,1.60015 -0.96875,3.03125 0.08935,-0.981234 0.44357,-1.746035 1.03125,-2.0625 -0.02845,-0.343838 -0.04803,-0.647313 -0.0625,-0.96875 z m 28.5,0.21875 c -0.02258,0.323014 -0.03934,0.601183 -0.0625,0.9375 0.484737,0.367533 0.762529,1.088591 0.84375,1.96875 0.0994,-1.312871 -0.166649,-2.383428 -0.78125,-2.90625 z M 40.375,55.59375 C 40.34335,56.552112 40.241058,57.510901 40.0625,58.5625 34.495702,63.227896 20.228661,65.326396 20.25,70.15625 L 20,72 l 0.125,0 0.125,-0.84375 c -0.02134,-4.829854 14.245702,-6.928354 19.8125,-11.59375 0.240571,-1.416822 0.325755,-2.702501 0.3125,-3.96875 z m 15.3125,0.21875 c -0.0094,1.249009 0.06602,2.480743 0.21875,3.75 5.498545,4.829865 19.821043,7.460042 19.84375,11.59375 L 75.875,72 76,72 75.75,70.15625 C 75.727293,66.022542 61.404795,63.392365 55.90625,58.5625 55.794936,57.637449 55.711472,56.724549 55.6875,55.8125 z"
       inkscape:connector-curvature="0"
       id="path3886"
       style="opacity:0.3;fill:#000000;fill-opacity:1;stroke:none;display:inline;enable-background:new" />
  </g>
</svg>
