<?xml version="1.0" encoding="UTF-8" standalone="no"?>
<svg
   width="32"
   height="32"
   version="1.1"
   id="svg22"
   sodipodi:docname="audio-input-microphone.svg"
   inkscape:version="1.2.1 (9c6d41e410, 2022-07-14)"
   xmlns:inkscape="http://www.inkscape.org/namespaces/inkscape"
   xmlns:sodipodi="http://sodipodi.sourceforge.net/DTD/sodipodi-0.dtd"
   xmlns="http://www.w3.org/2000/svg"
   xmlns:svg="http://www.w3.org/2000/svg"
   xmlns:rdf="http://www.w3.org/1999/02/22-rdf-syntax-ns#"
   xmlns:cc="http://creativecommons.org/ns#"
   xmlns:dc="http://purl.org/dc/elements/1.1/">
  <metadata
     id="metadata28">
    <rdf:RDF>
      <cc:Work
         rdf:about="">
        <dc:format>image/svg+xml</dc:format>
        <dc:type
           rdf:resource="http://purl.org/dc/dcmitype/StillImage" />
        <dc:title />
      </cc:Work>
    </rdf:RDF>
  </metadata>
  <defs
     id="defs26" />
  <sodipodi:namedview
     pagecolor="#ffffff"
     bordercolor="#666666"
     borderopacity="1"
     objecttolerance="10"
     gridtolerance="10"
     guidetolerance="10"
     inkscape:pageopacity="0"
     inkscape:pageshadow="2"
     inkscape:window-width="1366"
     inkscape:window-height="709"
     id="namedview24"
     showgrid="false"
     inkscape:zoom="19.666667"
     inkscape:cx="10.144068"
     inkscape:cy="25.398305"
     inkscape:window-x="0"
     inkscape:window-y="25"
     inkscape:window-maximized="1"
     inkscape:current-layer="g18"
     inkscape:showpageshadow="2"
     inkscape:pagecheckerboard="0"
     inkscape:deskcolor="#d1d1d1" />
  <g
     transform="translate(0,16)"
     id="g20">
    <g
       transform="matrix(0.07871412,0,0,0.07871412,-13.603644,-21.886191)"
       id="g18">
      <path
         style="opacity:0.2;fill:#000000;fill-opacity:1;stroke-width:0.85365856"
         d="m 310.31185,255.398 -86.41972,128.60519 c -11.30542,12.60902 -12.46492,22.13851 -8.17778,36.60571 6.26751,20.832 18.6535,30.94054 37.44202,33.98808 18.6082,3.81062 25.47222,-0.78327 39.15635,-12.72368 l 120.19451,-104.87851 2.66206,1.90354 z"
         id="path6-3"
         inkscape:connector-curvature="0" />
      <path
         style="fill:#333333;stroke-width:0.85365856"
         d="m 310.31185,246.72195 -86.41973,128.6052 c -11.30541,12.60901 -12.46491,22.1385 -8.17777,36.60571 6.26751,20.832 18.65349,30.94054 37.44201,33.98808 18.6082,3.81062 25.47223,-0.78329 39.15636,-12.72369 l 120.1945,-104.87851 2.66206,1.90355 z"
         id="path6"
         inkscape:connector-curvature="0" />
      <circle
         style="opacity:0.2;fill:#000000;fill-opacity:1;stroke:none;stroke-width:0.85365856"
         cx="419.47083"
         cy="230.32822"
         r="119.29536"
         id="circle8" />
      <circle
         style="fill:#bfbfbf;stroke-width:0.85365856"
         cx="419.47083"
         cy="219.48334"
         r="119.29536"
         id="circle10" />
      <path
         style="opacity:0.4;stroke-width:0.85365856"
         d="m 317.02612,157.91322 -5.84161,11.80558 c 5.889,44.15568 20.3953,75.23865 50.52258,102.36511 28.63306,25.78106 68.50393,42.57689 120.24048,49.16857 l 13.64608,-9.77261 c -54.10339,-5.64083 -98.51862,-22.31078 -126.53782,-47.53914 -28.0192,-25.22835 -46.40566,-63.85832 -52.02971,-106.02751 z"
         id="path12"
         inkscape:connector-curvature="0" />
      <path
         style="opacity:0.2;fill:#ffffff;stroke-width:10.84504986"
         d="m 419.47084,100.18776 a 119.29554,119.29554 0 0 0 -119.29555,119.29554 119.29554,119.29554 0 0 0 0.233,6.35453 119.29554,119.29554 0 0 1 119.06255,-114.80503 119.29554,119.29554 0 0 1 119.06255,112.94103 119.29554,119.29554 0 0 0 0.233,-4.49053 119.29554,119.29554 0 0 0 -119.29555,-119.29554 z"
         id="path16"
         inkscape:connector-curvature="0" />
    </g>
  </g>
</svg>
