<?xml version="1.0" encoding="UTF-8" standalone="no"?>
<svg
   xmlns:dc="http://purl.org/dc/elements/1.1/"
   xmlns:cc="http://creativecommons.org/ns#"
   xmlns:rdf="http://www.w3.org/1999/02/22-rdf-syntax-ns#"
   xmlns:svg="http://www.w3.org/2000/svg"
   xmlns="http://www.w3.org/2000/svg"
   xmlns:xlink="http://www.w3.org/1999/xlink"
   xmlns:sodipodi="http://sodipodi.sourceforge.net/DTD/sodipodi-0.dtd"
   xmlns:inkscape="http://www.inkscape.org/namespaces/inkscape"
   width="32"
   height="32"
   version="1"
   id="svg28"
   sodipodi:docname="media-flash-memory-stick.svg"
   inkscape:version="0.92.5 (2060ec1f9f, 2020-04-08)">
  <metadata
     id="metadata34">
    <rdf:RDF>
      <cc:Work
         rdf:about="">
        <dc:format>image/svg+xml</dc:format>
        <dc:type
           rdf:resource="http://purl.org/dc/dcmitype/StillImage" />
        <dc:title />
      </cc:Work>
    </rdf:RDF>
  </metadata>
  <defs
     id="defs32">
    <linearGradient
       inkscape:collect="always"
       id="linearGradient822">
      <stop
         style="stop-color:#4f4f4f;stop-opacity:1;"
         offset="0"
         id="stop818" />
      <stop
         style="stop-color:#636363;stop-opacity:1"
         offset="1"
         id="stop820" />
    </linearGradient>
    <linearGradient
       inkscape:collect="always"
       xlink:href="#linearGradient822"
       id="linearGradient824"
       x1="16.40678"
       y1="25.915255"
       x2="15.864407"
       y2="4.0508475"
       gradientUnits="userSpaceOnUse" />
  </defs>
  <sodipodi:namedview
     pagecolor="#ffffff"
     bordercolor="#666666"
     borderopacity="1"
     objecttolerance="10"
     gridtolerance="10"
     guidetolerance="10"
     inkscape:pageopacity="0"
     inkscape:pageshadow="2"
     inkscape:window-width="1920"
     inkscape:window-height="1021"
     id="namedview30"
     showgrid="false"
     inkscape:zoom="29.5"
     inkscape:cx="21.817296"
     inkscape:cy="16.492321"
     inkscape:window-x="0"
     inkscape:window-y="25"
     inkscape:window-maximized="1"
     inkscape:current-layer="svg28" />
  <path
     d="M 11,31 H 21 V 26 H 11 Z"
     id="path2-1"
     inkscape:connector-curvature="0"
     style="opacity:0.2;fill:#000000;fill-opacity:1;stroke-width:0.5" />
  <rect
     width="16"
     height="22"
     x="8"
     y="5"
     rx="0.79999995"
     ry="1.8337647"
     id="rect4-3"
     style="opacity:0.2;fill:#000000;fill-opacity:1;stroke-width:0.85993934" />
  <path
     d="M 11,30 H 21 V 25 H 11 Z"
     id="path2"
     inkscape:connector-curvature="0"
     style="fill:#b7b7b7;stroke-width:0.5" />
  <rect
     style="opacity:0.5;stroke-width:0.5"
     width="2.5"
     height="1.5"
     x="12.000001"
     y="-29"
     id="rect24"
     transform="scale(1,-1)" />
  <rect
     style="opacity:0.5;stroke-width:0.5"
     width="2.5"
     height="1.5"
     x="17.5"
     y="-29"
     id="rect26"
     transform="scale(1,-1)" />
  <rect
     width="16"
     height="22"
     x="8"
     y="4"
     rx="0.79999995"
     ry="1.8337647"
     id="rect4"
     style="fill:url(#linearGradient824);stroke-width:0.85993934;fill-opacity:1" />
  <path
     inkscape:connector-curvature="0"
     style="fill:currentColor;stroke-width:0.85654038;opacity:0.4"
     class="ColorScheme-Text"
     d="m 15.995849,8.2955036 -2.141376,3.4261234 h 1.284826 v 4.282655 h -2.56965 v -1.089065 c 0.5291,-0.305465 0.855471,-0.869564 0.85655,-1.480528 0,-0.946124 -0.76698,-1.713062 -1.7131,-1.713062 -0.946118,0 -1.713099,0.766964 -1.713099,1.713062 4.8e-4,0.611538 0.326937,1.176419 0.85655,1.482201 v 1.087392 c 0,1.713063 1.713099,1.713063 1.713099,1.713063 h 2.56965 v 1.089065 c -0.5291,0.305465 -0.855471,0.869564 -0.85655,1.480528 0,0.946124 0.76698,1.713062 1.7131,1.713062 0.946118,0 1.713099,-0.766964 1.713099,-1.713062 -4.8e-4,-0.611538 -0.326937,-1.176419 -0.85655,-1.482201 v -1.087392 h 2.569649 c 0,0 1.713099,0 1.713099,-1.713063 v -0.856531 c 0,0 0.963618,-0.160599 0.856549,-0.856531 v -1.713062 c 0.107069,-0.963597 -0.856549,-0.856531 -0.856549,-0.856531 h -1.713099 c -0.910084,0 -0.85655,0.856531 -0.85655,0.856531 v 1.713062 c 0,0.856531 0.85655,0.856531 0.85655,0.856531 v 0.856531 h -2.569649 v -4.282655 h 1.284825 z"
     id="path5" />
</svg>
