<?xml version="1.0" encoding="UTF-8" standalone="no"?>
<!-- Generator: Adobe Illustrator 23.0.0, SVG Export Plug-In . SVG Version: 6.00 Build 0)  -->

<svg
   xmlns:ns="&amp;ns_sfw;"
   xmlns:dc="http://purl.org/dc/elements/1.1/"
   xmlns:cc="http://creativecommons.org/ns#"
   xmlns:rdf="http://www.w3.org/1999/02/22-rdf-syntax-ns#"
   xmlns:svg="http://www.w3.org/2000/svg"
   xmlns="http://www.w3.org/2000/svg"
   xmlns:sodipodi="http://sodipodi.sourceforge.net/DTD/sodipodi-0.dtd"
   xmlns:inkscape="http://www.inkscape.org/namespaces/inkscape"
   version="1.1"
   id="레이어_1"
   x="0px"
   y="0px"
   viewBox="0 0 16 16"
   xml:space="preserve"
   sodipodi:docname="calc.svg"
   width="16"
   height="16"
   inkscape:version="0.92.5 (2060ec1f9f, 2020-04-08)"><defs
   id="defs37" /><sodipodi:namedview
   pagecolor="#ffffff"
   bordercolor="#666666"
   borderopacity="1"
   objecttolerance="10"
   gridtolerance="10"
   guidetolerance="10"
   inkscape:pageopacity="0"
   inkscape:pageshadow="2"
   inkscape:window-width="1262"
   inkscape:window-height="480"
   id="namedview35"
   showgrid="false"
   inkscape:zoom="0.921875"
   inkscape:cx="136.67797"
   inkscape:cy="128"
   inkscape:window-x="72"
   inkscape:window-y="28"
   inkscape:window-maximized="0"
   inkscape:current-layer="레이어_1" />
<style
   type="text/css"
   id="style2">
	.st0{opacity:0.1;}
	.st1{fill:#58AFF4;}
	.st2{fill-rule:evenodd;clip-rule:evenodd;fill:#FFFFFF;}
</style>
<metadata
   id="metadata4">
	<ns:sfw>
		<ns:slices />
		<ns:sliceSourceBounds
   bottomLeftOrigin="true"
   height="255.1"
   width="255"
   x="0.5"
   y="0.5" />
	</ns:sfw>
<rdf:RDF><cc:Work
     rdf:about=""><dc:format>image/svg+xml</dc:format><dc:type
       rdf:resource="http://purl.org/dc/dcmitype/StillImage" /><dc:title></dc:title></cc:Work></rdf:RDF></metadata>


<g
   id="g32"
   style="fill:#363636;fill-opacity:1"
   transform="matrix(0.09090909,0,0,0.09090909,-3.6363636,-3.54609)">
	<rect
   x="140.2"
   y="80.699997"
   class="st2"
   width="64.800003"
   height="10.8"
   id="rect14"
   style="clip-rule:evenodd;fill:#363636;fill-opacity:1;fill-rule:evenodd" />
	<g
   id="g20"
   style="fill:#363636;fill-opacity:1">
		<rect
   x="78"
   y="100.5"
   class="st2"
   width="10.8"
   height="18"
   id="rect16"
   style="clip-rule:evenodd;fill:#363636;fill-opacity:1;fill-rule:evenodd" />
		<polygon
   class="st2"
   points="115.8,91.5 115.8,80.7 88.8,80.7 88.8,53.7 78,53.7 78,80.7 51,80.7 51,91.5 78,91.5 88.8,91.5 "
   id="polygon18"
   style="clip-rule:evenodd;fill:#363636;fill-opacity:1;fill-rule:evenodd" />
	</g>
	<path
   class="st2"
   d="m 89.8,183.6 c 5.2,5.2 10.4,10.5 15.6,15.7 2.5,-2.6 5.1,-5.1 7.6,-7.7 -5.2,-5.2 -10.4,-10.5 -15.5,-15.7 z"
   id="path22"
   inkscape:connector-curvature="0"
   style="clip-rule:evenodd;fill:#363636;fill-opacity:1;fill-rule:evenodd" />
	<path
   class="st2"
   d="m 112.9,147.7 -7.6,-7.6 c -7.3,7.3 -14.5,14.5 -21.8,21.8 0,0 0,0 0,0 v 0 l -14.2,-14.2 -7.6,-7.6 -7.6,7.6 2.7,2.7 4.9,4.9 14.2,14.2 c -7.3,7.4 -14.6,14.7 -21.8,22.1 l 7.6,7.6 c 17,-17.1 34.1,-34.3 51.2,-51.5 z"
   id="path24"
   inkscape:connector-curvature="0"
   style="clip-rule:evenodd;fill:#363636;fill-opacity:1;fill-rule:evenodd" />
	<rect
   x="140.2"
   y="163.5"
   class="st2"
   width="64.800003"
   height="10.8"
   id="rect26"
   style="clip-rule:evenodd;fill:#363636;fill-opacity:1;fill-rule:evenodd" />
	<circle
   class="st2"
   cx="172.60001"
   cy="143.60001"
   r="7.1999998"
   id="circle28"
   style="clip-rule:evenodd;fill:#363636;fill-opacity:1;fill-rule:evenodd" />
	<circle
   class="st2"
   cx="172.60001"
   cy="193.10001"
   r="7.1999998"
   id="circle30"
   style="clip-rule:evenodd;fill:#363636;fill-opacity:1;fill-rule:evenodd" />
</g>
</svg>