<?xml version="1.0" encoding="UTF-8" standalone="no"?>
<!-- Generator: Adobe Illustrator 23.0.0, SVG Export Plug-In . SVG Version: 6.00 Build 0)  -->

<svg
   xmlns:ns="&amp;ns_sfw;"
   xmlns:dc="http://purl.org/dc/elements/1.1/"
   xmlns:cc="http://creativecommons.org/ns#"
   xmlns:rdf="http://www.w3.org/1999/02/22-rdf-syntax-ns#"
   xmlns:svg="http://www.w3.org/2000/svg"
   xmlns="http://www.w3.org/2000/svg"
   xmlns:sodipodi="http://sodipodi.sourceforge.net/DTD/sodipodi-0.dtd"
   xmlns:inkscape="http://www.inkscape.org/namespaces/inkscape"
   version="1.1"
   id="레이어_1"
   x="0px"
   y="0px"
   viewBox="0 0 16 16"
   xml:space="preserve"
   sodipodi:docname="office-calendar.svg"
   width="16"
   height="16"
   inkscape:version="0.92.5 (2060ec1f9f, 2020-04-08)"><defs
   id="defs31" /><sodipodi:namedview
   pagecolor="#ffffff"
   bordercolor="#666666"
   borderopacity="1"
   objecttolerance="10"
   gridtolerance="10"
   guidetolerance="10"
   inkscape:pageopacity="0"
   inkscape:pageshadow="2"
   inkscape:window-width="1262"
   inkscape:window-height="480"
   id="namedview29"
   showgrid="false"
   inkscape:snap-nodes="false"
   inkscape:zoom="0.921875"
   inkscape:cx="136.67797"
   inkscape:cy="128"
   inkscape:window-x="72"
   inkscape:window-y="28"
   inkscape:window-maximized="0"
   inkscape:current-layer="레이어_1" />
<style
   type="text/css"
   id="style2">
	.st0{opacity:0.1;}
	.st1{fill:#3FBDCF;}
	.st2{fill:#FFFFFF;}
</style>
<metadata
   id="metadata4">
	<ns:sfw>
		<ns:slices />
		<ns:sliceSourceBounds
   bottomLeftOrigin="true"
   height="255.1"
   width="255"
   x="0.5"
   y="0.5" />
	</ns:sfw>
<rdf:RDF><cc:Work
     rdf:about=""><dc:format>image/svg+xml</dc:format><dc:type
       rdf:resource="http://purl.org/dc/dcmitype/StillImage" /><dc:title></dc:title></cc:Work></rdf:RDF></metadata>


<g
   id="g26"
   style="fill:#363636;fill-opacity:1"
   transform="matrix(0.09032258,0,0,0.09032258,-3.552258,-3.602)">
	<polygon
   class="st2"
   points="88.6,52.3 88.6,63.1 50.4,63.1 50.4,73 98.5,73 98.5,52.3 "
   id="polygon14"
   style="fill:#363636;fill-opacity:1" />
	<polygon
   class="st2"
   points="157.4,52.3 157.4,63.1 112.3,63.1 112.3,73 167.3,73 167.3,52.3 "
   id="polygon16"
   style="fill:#363636;fill-opacity:1" />
	<path
   class="st2"
   d="m 195.5,179.1 c 0,8.6 -6.9,15.5 -15.5,15.5 H 76.7 c -8.6,0 -15.5,-7 -15.5,-15.5 V 90.8 h -9.9 v 90.5 c 0,12.9 10.4,23.3 23.3,23.3 h 107.5 c 12.9,0 23.3,-10.4 23.3,-23.3 V 90.8 h -9.9 z"
   id="path18"
   inkscape:connector-curvature="0"
   style="fill:#363636;fill-opacity:1" />
	<rect
   x="180.8"
   y="63.099998"
   class="st2"
   width="24.6"
   height="9.8999996"
   id="rect20"
   style="fill:#363636;fill-opacity:1" />
	
	
</g>
</svg>