<?xml version="1.0" encoding="UTF-8" standalone="no"?>
<!-- Generator: Adobe Illustrator 23.0.0, SVG Export Plug-In . SVG Version: 6.00 Build 0)  -->

<svg
   xmlns:ns="&amp;ns_sfw;"
   xmlns:dc="http://purl.org/dc/elements/1.1/"
   xmlns:cc="http://creativecommons.org/ns#"
   xmlns:rdf="http://www.w3.org/1999/02/22-rdf-syntax-ns#"
   xmlns:svg="http://www.w3.org/2000/svg"
   xmlns="http://www.w3.org/2000/svg"
   xmlns:sodipodi="http://sodipodi.sourceforge.net/DTD/sodipodi-0.dtd"
   xmlns:inkscape="http://www.inkscape.org/namespaces/inkscape"
   version="1.1"
   id="레이어_1"
   x="0px"
   y="0px"
   viewBox="0 0 16 16"
   xml:space="preserve"
   sodipodi:docname="kuickshow.svg"
   width="16"
   height="16"
   inkscape:version="0.92.5 (2060ec1f9f, 2020-04-08)"><defs
   id="defs30" /><sodipodi:namedview
   pagecolor="#ffffff"
   bordercolor="#666666"
   borderopacity="1"
   objecttolerance="10"
   gridtolerance="10"
   guidetolerance="10"
   inkscape:pageopacity="0"
   inkscape:pageshadow="2"
   inkscape:window-width="1262"
   inkscape:window-height="480"
   id="namedview28"
   showgrid="false"
   inkscape:zoom="2.6074563"
   inkscape:cx="49.507892"
   inkscape:cy="47.02952"
   inkscape:window-x="72"
   inkscape:window-y="28"
   inkscape:window-maximized="0"
   inkscape:current-layer="레이어_1" />
<style
   type="text/css"
   id="style2">
	.st0{opacity:0.1;}
	.st1{fill:url(#SVGID_1_);}
	.st2{fill:#FFFFFF;}
</style>
<metadata
   id="metadata4">
	<ns:sfw>
		<ns:slices />
		<ns:sliceSourceBounds
   bottomLeftOrigin="true"
   height="255"
   width="255.1"
   x="0.4"
   y="0.5" />
	</ns:sfw>
<rdf:RDF><cc:Work
     rdf:about=""><dc:format>image/svg+xml</dc:format><dc:type
       rdf:resource="http://purl.org/dc/dcmitype/StillImage" /><dc:title></dc:title></cc:Work></rdf:RDF></metadata>

<radialGradient
   id="SVGID_1_"
   cx="128"
   cy="127.963"
   r="181.2627"
   fx="-13.3662"
   fy="110.4191"
   gradientTransform="matrix(-0.5254,0.8508,-0.8803,-0.5436,307.9005,88.6208)"
   gradientUnits="userSpaceOnUse">
	<stop
   offset="0.1708"
   style="stop-color:#FA7250"
   id="stop12" />
	<stop
   offset="1"
   style="stop-color:#FFBB11"
   id="stop14" />
</radialGradient>

<g
   id="g25"
   style="fill:#363636;fill-opacity:1"
   transform="matrix(0.08335766,0,0,0.08335766,-2.6664736,-2.68228)">
	<path
   class="st2"
   d="m 65.8,116 c 3.2,-1.3 6.4,-2.5 9.5,-3.8 -8.5,-9 -13.1,-17.6 -10.5,-21.4 2.7,-3.9 12.1,-1.9 18.6,-0.5 12.1,2.6 21.7,7.9 28.6,12.9 0.3,-8.5 1.9,-45.1 12.4,-46.7 0.9,-0.1 1.7,0 2.2,0.2 11.4,2.8 13.7,33.4 14,38.4 3.3,-0.5 6.7,-1 10,-1.4 0.1,-3.6 0.9,-38.4 -18.6,-47.6 -1.8,-0.8 -3.8,-1.5 -6.2,-1.9 -1.8,-0.1 -3.3,0.1 -4.8,0.5 -14.9,4.1 -18.8,31.7 -19.8,41.5 C 79.5,75 60,76.5 54.8,85 c -3.4,5.6 -1,14.5 -0.6,15.8 2.6,9.5 9.9,14.1 11.6,15.2 z"
   id="path19"
   inkscape:connector-curvature="0"
   style="fill:#363636;fill-opacity:1" />
	<path
   class="st2"
   d="m 126.6,199.4 c -0.3,0.1 -1.3,0.3 -2.2,0.2 -10.5,-1.6 -12.1,-38.2 -12.4,-46.7 -6.9,5 -16.5,10.2 -28.6,12.9 -7.1,1.5 -15.6,3.5 -18.6,-0.5 -3.9,-5.1 4.1,-16.6 5.2,-18.3 6.5,-9.4 15.7,-13.8 21,-15.7 -2.2,-2.5 -4.4,-5.1 -6.7,-7.6 -5.1,2.2 -22.1,10.3 -28.6,28.6 -1.7,4.7 -4.7,13.1 -1,18.8 5.5,8.4 24.2,8.8 46.5,-1 0.9,9.8 4.8,37.4 19.8,41.5 1.4,0.4 3,0.6 4.8,0.5 2.5,-0.4 4.5,-1.1 6.2,-1.9 12.5,-6 14.9,-22.4 15.2,-25 -3,-1.4 -6,-2.9 -9.1,-4.3 -0.5,3.3 -3.4,16.7 -11.5,18.5 z"
   id="path21"
   inkscape:connector-curvature="0"
   style="fill:#363636;fill-opacity:1" />
	<path
   class="st2"
   d="m 176.5,127.9 c 8,-5.7 30,-22.9 26,-37.8 -0.4,-1.4 -1,-2.9 -2,-4.4 -1.6,-2 -3.2,-3.4 -4.7,-4.4 -11.5,-7.8 -26.8,-1.7 -29.3,-0.7 0.3,3.3 0.5,6.7 0.8,10 3.3,-1.1 16.3,-5.4 22,0.8 0.2,0.2 0.9,1 1.2,1.8 3.8,9.9 -27,29.6 -34.2,34.1 7.7,3.5 17.1,9.1 25.4,18.3 4.8,5.3 10.8,11.7 8.9,16.3 -2.5,5.9 -16.4,4.8 -18.5,4.6 -11.4,-0.9 -19.8,-6.7 -24.1,-10.3 -1.1,3.2 -2.2,6.4 -3.3,9.6 4.5,3.3 20,14 39.1,10.5 4.9,-0.9 13.7,-2.5 16.7,-8.6 4.6,-9 -4.4,-25.5 -24,-39.8 z"
   id="path23"
   inkscape:connector-curvature="0"
   style="fill:#363636;fill-opacity:1" />
</g>
</svg>