<?xml version="1.0" encoding="UTF-8" standalone="no"?>
<!-- Generator: Adobe Illustrator 23.0.0, SVG Export Plug-In . SVG Version: 6.00 Build 0)  -->

<svg
   xmlns:ns="&amp;ns_sfw;"
   xmlns:dc="http://purl.org/dc/elements/1.1/"
   xmlns:cc="http://creativecommons.org/ns#"
   xmlns:rdf="http://www.w3.org/1999/02/22-rdf-syntax-ns#"
   xmlns:svg="http://www.w3.org/2000/svg"
   xmlns="http://www.w3.org/2000/svg"
   xmlns:sodipodi="http://sodipodi.sourceforge.net/DTD/sodipodi-0.dtd"
   xmlns:inkscape="http://www.inkscape.org/namespaces/inkscape"
   version="1.1"
   id="레이어_1"
   x="0px"
   y="0px"
   viewBox="0 0 16 16"
   xml:space="preserve"
   sodipodi:docname="internet-mail.svg"
   width="16"
   height="16"
   inkscape:version="0.92.5 (2060ec1f9f, 2020-04-08)"><defs
   id="defs23" /><sodipodi:namedview
   pagecolor="#ffffff"
   bordercolor="#666666"
   borderopacity="1"
   objecttolerance="10"
   gridtolerance="10"
   guidetolerance="10"
   inkscape:pageopacity="0"
   inkscape:pageshadow="2"
   inkscape:window-width="1262"
   inkscape:window-height="480"
   id="namedview21"
   showgrid="false"
   inkscape:zoom="1.3037281"
   inkscape:cx="-45.122416"
   inkscape:cy="95.126573"
   inkscape:window-x="72"
   inkscape:window-y="28"
   inkscape:window-maximized="0"
   inkscape:current-layer="레이어_1" />
<style
   type="text/css"
   id="style2">
	.st0{opacity:0.1;}
	.st1{fill:#FF5439;}
	.st2{fill:#FFFFFF;}
</style>
<metadata
   id="metadata4">
	<ns:sfw>
		<ns:slices />
		<ns:sliceSourceBounds
   bottomLeftOrigin="true"
   height="255.1"
   width="255"
   x="0.5"
   y="0.5" />
	</ns:sfw>
<rdf:RDF><cc:Work
     rdf:about=""><dc:format>image/svg+xml</dc:format><dc:type
       rdf:resource="http://purl.org/dc/dcmitype/StillImage" /><dc:title></dc:title></cc:Work></rdf:RDF></metadata>


<g
   id="g18"
   style="fill:#363636;fill-opacity:1"
   transform="matrix(0.09327115,0,0,0.09327115,-3.943371,-3.9518)">
	<path
   class="st2"
   d="m 195.5,95.1 c -4.8,-2.3 -10.5,-1.4 -14.5,2.1 -15.8,13.5 -31.6,27 -47.4,40.5 -2.4,2 -5.9,1.9 -8.1,-0.4 C 112.1,123.7 98.8,110 85.4,96.4 c -2.9,2.6 -5.7,5.2 -8.6,7.8 14.4,14.4 28.8,28.8 43.2,43.2 5,5 13.1,5.3 18.5,0.7 15.9,-13.7 31.8,-27.5 47.8,-41.2 1.5,-1.2 3.5,-1.3 5,-0.4 1.8,1.2 1.9,3.4 1.9,3.5 0,16.5 0,33.1 0,49.6 0.1,0.8 0.5,6.7 -4,11.2 -3.8,3.8 -8.5,4 -9.5,4 -32.9,0 -65.8,0 -98.7,0 v 10.6 c 32.3,0 64.6,0 96.9,0 1.6,0 12.8,-0.5 20,-9.8 4.8,-6.2 5.2,-12.9 5.2,-15.3 0,-17.8 0,-35.6 0,-53.3 -0.1,-5.1 -3.1,-9.7 -7.6,-11.9 z"
   id="path14"
   style="fill:#363636;fill-opacity:1"
   inkscape:connector-curvature="0" />
	<path
   class="st2"
   d="M 197.6,70.5 H 169.7 79.4 72.5 64.3 C 58,70.5 53,75.6 53,81.8 v 74.4 18.9 10.4 h 10 v -10.4 -7.8 -11.2 -3.6 -69.4 c 0,-1.3 1,-2.3 2.3,-2.3 h 14.1 v -0.1 h 90.3 27.9 5.4 V 70.5 Z"
   id="path16"
   style="fill:#363636;fill-opacity:1"
   inkscape:connector-curvature="0" />
</g>
</svg>