<?xml version="1.0" encoding="utf-8"?>
<!-- Generator: Adobe Illustrator 23.0.0, SVG Export Plug-In . SVG Version: 6.00 Build 0)  -->
<!DOCTYPE svg PUBLIC "-//W3C//DTD SVG 1.1//EN" "http://www.w3.org/Graphics/SVG/1.1/DTD/svg11.dtd" [
	<!ENTITY ns_extend "http://ns.adobe.com/Extensibility/1.0/">
	<!ENTITY ns_ai "http://ns.adobe.com/AdobeIllustrator/10.0/">
	<!ENTITY ns_graphs "http://ns.adobe.com/Graphs/1.0/">
	<!ENTITY ns_vars "http://ns.adobe.com/Variables/1.0/">
	<!ENTITY ns_imrep "http://ns.adobe.com/ImageReplacement/1.0/">
	<!ENTITY ns_sfw "http://ns.adobe.com/SaveForWeb/1.0/">
	<!ENTITY ns_custom "http://ns.adobe.com/GenericCustomNamespace/1.0/">
	<!ENTITY ns_adobe_xpath "http://ns.adobe.com/XPath/1.0/">
]>
<svg version="1.1" id="레이어_1" xmlns:x="&ns_extend;" xmlns:i="&ns_ai;" xmlns:graph="&ns_graphs;"
	 xmlns="http://www.w3.org/2000/svg" xmlns:xlink="http://www.w3.org/1999/xlink" x="0px" y="0px" viewBox="0 0 16 16"
	 style="enable-background:new 0 0 16 16;" xml:space="preserve">
<style type="text/css">
	.st0{fill:#363636;}
</style>
<metadata>
	<sfw  xmlns="&ns_sfw;">
		<slices></slices>
		<sliceSourceBounds  bottomLeftOrigin="true" height="14" width="10.9" x="2.6" y="1"></sliceSourceBounds>
	</sfw>
</metadata>
<path class="st0" d="M13.4,1.1C13.3,1,13.2,1,13.1,1H8v0.7c1.6,1.6,3.1,3.1,4.7,4.7v6.4c0,0.8-0.6,1.4-1.4,1.4H4.8V15h6.5
	c1.2,0,2.2-1,2.2-2.2V1.3C13.4,1.3,13.4,1.2,13.4,1.1z M12.7,5.3L9.3,1.9c0,0,0-0.1,0.1-0.1h3.2c0.1,0,0.2,0.1,0.2,0.2V5.3z"/>
<path class="st0" d="M6.5,1H2.9C2.7,1,2.6,1.1,2.6,1.3v13.5c0,0.1,0.1,0.2,0.2,0.2h0.6v-0.7v-1.8V2c0-0.1,0.1-0.2,0.2-0.2h3V1z"/>
</svg>
