<?xml version="1.0" encoding="utf-8"?>
<!-- Generator: Adobe Illustrator 23.0.0, SVG Export Plug-In . SVG Version: 6.00 Build 0)  -->
<!DOCTYPE svg PUBLIC "-//W3C//DTD SVG 1.1//EN" "http://www.w3.org/Graphics/SVG/1.1/DTD/svg11.dtd" [
	<!ENTITY ns_extend "http://ns.adobe.com/Extensibility/1.0/">
	<!ENTITY ns_ai "http://ns.adobe.com/AdobeIllustrator/10.0/">
	<!ENTITY ns_graphs "http://ns.adobe.com/Graphs/1.0/">
	<!ENTITY ns_vars "http://ns.adobe.com/Variables/1.0/">
	<!ENTITY ns_imrep "http://ns.adobe.com/ImageReplacement/1.0/">
	<!ENTITY ns_sfw "http://ns.adobe.com/SaveForWeb/1.0/">
	<!ENTITY ns_custom "http://ns.adobe.com/GenericCustomNamespace/1.0/">
	<!ENTITY ns_adobe_xpath "http://ns.adobe.com/XPath/1.0/">
]>
<svg version="1.1" id="레이어_1" xmlns:x="&ns_extend;" xmlns:i="&ns_ai;" xmlns:graph="&ns_graphs;"
	 xmlns="http://www.w3.org/2000/svg" xmlns:xlink="http://www.w3.org/1999/xlink" x="0px" y="0px" viewBox="0 0 16 16"
	 style="enable-background:new 0 0 16 16;" xml:space="preserve">
<style type="text/css">
	.st0{fill:#363636;}
	.st1{fill:#363636;stroke:#363636;stroke-width:0.3111;stroke-miterlimit:10;}
</style>
<metadata>
	<sfw  xmlns="&ns_sfw;">
		<slices></slices>
		<sliceSourceBounds  bottomLeftOrigin="true" height="14" width="10.9" x="2.6" y="1"></sliceSourceBounds>
	</sfw>
</metadata>
<path class="st0" d="M13.4,1.1C13.3,1,13.2,1,13.1,1H8v0.7c1.6,1.6,3.1,3.1,4.7,4.7v6.4c0,0.8-0.6,1.4-1.4,1.4H4.8V15h6.5
	c1.2,0,2.2-1,2.2-2.2V1.3C13.4,1.3,13.4,1.2,13.4,1.1z M12.7,5.3L9.3,1.9c0,0,0-0.1,0.1-0.1h3.2c0.1,0,0.2,0.1,0.2,0.2V5.3z"/>
<path class="st0" d="M6.5,1H2.9C2.7,1,2.6,1.1,2.6,1.3v13.5c0,0.1,0.1,0.2,0.2,0.2h0.6v-0.7v-1.8V2c0-0.1,0.1-0.2,0.2-0.2h3V1z"/>
<path class="st1" d="M10.4,7.4c-0.1-0.1-0.2-0.2-0.4-0.2c-0.2,0-0.4,0.2-0.4,0.2C9.4,7.6,9.4,7.9,9.4,8.1c0,0.2,0,0.6,0.2,1
	c0,0,0.1,0.6-0.1,0.7c0,0-0.1,0-0.3-0.1c-0.4-0.3-0.5-0.7-1-1.2C8.1,8.5,8.1,8.5,8,8.4C7.9,8.3,7.6,8.1,7.2,8.1
	c-0.1,0-0.5,0-0.8,0.4C6.2,8.6,6.2,8.8,6.1,9.2C6,9.5,5.9,9.7,5.9,9.9c-0.3,0-0.6,0-0.9,0c0,0.1,0,0.3,0,0.4c0.3,0,0.6,0,0.9,0
	c0,0.3,0,1.2,0.5,1.8c0.2,0.2,0.4,0.3,0.4,0.3c0.5,0.2,1.1,0,1.3-0.5c0.3-0.6-0.2-1.3-0.6-1.6c-0.2-0.2-0.5-0.3-0.6-0.3
	C6.7,10,6.5,10,6.3,10c0-0.3,0.1-0.6,0.1-0.8C6.5,9,6.6,8.8,6.7,8.7c0.2-0.2,0.5-0.2,0.6-0.2c0.3,0,0.6,0.3,0.8,0.6
	c0.2,0.2,0.2,0.3,0.5,0.7c0.2,0.3,0.3,0.3,0.3,0.4c0.1,0.1,0.4,0.3,0.7,0.2C9.9,10.2,10,9.8,10,9.8c0,0,0-0.1,0-0.4
	c0-0.2,0-0.5-0.2-0.8c0-0.1-0.1-0.3,0-0.5c0-0.2,0-0.3,0.1-0.3c0.1-0.1,0.3,0.1,0.4,0.2c0.1,0.1,0.3,0.2,0.4,0.4
	C10.8,8.2,10.9,8.1,11,8C10.8,7.8,10.5,7.5,10.4,7.4z M7,10.6c0.2,0.1,0.4,0.2,0.6,0.4c0,0.1,0.3,0.5,0.1,0.8
	c-0.1,0.2-0.4,0.3-0.7,0.2c-0.1,0-0.1,0-0.2-0.1c-0.6-0.3-0.6-1.5-0.6-1.6C6.5,10.4,6.7,10.5,7,10.6z"/>
</svg>
