<?xml version="1.0" encoding="UTF-8" standalone="no"?>
<!-- Generator: Adobe Illustrator 23.0.0, SVG Export Plug-In . SVG Version: 6.00 Build 0)  -->

<svg
   xmlns:ns="&amp;ns_sfw;"
   xmlns:dc="http://purl.org/dc/elements/1.1/"
   xmlns:cc="http://creativecommons.org/ns#"
   xmlns:rdf="http://www.w3.org/1999/02/22-rdf-syntax-ns#"
   xmlns:svg="http://www.w3.org/2000/svg"
   xmlns="http://www.w3.org/2000/svg"
   xmlns:sodipodi="http://sodipodi.sourceforge.net/DTD/sodipodi-0.dtd"
   xmlns:inkscape="http://www.inkscape.org/namespaces/inkscape"
   version="1.1"
   id="레이어_1"
   x="0px"
   y="0px"
   viewBox="0 0 16 16"
   xml:space="preserve"
   sodipodi:docname="celluloid.svg"
   width="16"
   height="16"
   inkscape:version="0.92.5 (2060ec1f9f, 2020-04-08)"><defs
   id="defs21" /><sodipodi:namedview
   pagecolor="#ffffff"
   bordercolor="#666666"
   borderopacity="1"
   objecttolerance="10"
   gridtolerance="10"
   guidetolerance="10"
   inkscape:pageopacity="0"
   inkscape:pageshadow="2"
   inkscape:window-width="1262"
   inkscape:window-height="480"
   id="namedview19"
   showgrid="false"
   inkscape:zoom="0.921875"
   inkscape:cx="136.67797"
   inkscape:cy="128"
   inkscape:window-x="72"
   inkscape:window-y="28"
   inkscape:window-maximized="0"
   inkscape:current-layer="레이어_1" />
<style
   type="text/css"
   id="style2">
	.st0{opacity:0.1;}
	.st1{fill:#987EFC;}
	.st2{fill-rule:evenodd;clip-rule:evenodd;fill:#FFFFFF;}
</style>
<metadata
   id="metadata4">
	<ns:sfw>
		<ns:slices />
		<ns:sliceSourceBounds
   bottomLeftOrigin="true"
   height="255.1"
   width="255"
   x="0.5"
   y="0.5" />
	</ns:sfw>
<rdf:RDF><cc:Work
     rdf:about=""><dc:format>image/svg+xml</dc:format><dc:type
       rdf:resource="http://purl.org/dc/dcmitype/StillImage" /><dc:title></dc:title></cc:Work></rdf:RDF></metadata>


<g
   transform="matrix(0.11345219,0,0,0.11345219,-10.015289,-9.4376)"
   id="g16"
   style="fill:#363636;fill-opacity:1">
	<path
   class="st2"
   d="m 185.6,162.1 v 0 l -43.2,29.2 h 0.1 c 0,0 -15.5,10.4 -18.9,12.8 -3.4,2.3 0,0 0,0 -2,1.6 -3.5,0.8 -3.5,-1.7 v -71.8 h -10.8 v 72 c 0,7.1 5.7,12.8 12.8,12.8 2.8,0 5.5,-0.9 7.7,-2.5 l 72.1,-48.7 c 0.5,-0.3 0.9,-0.6 1.4,-0.9 l 0.5,-0.4 v 0 c 4,-3.4 5.8,-9.1 4.2,-14.5 -1.2,-4 -4.1,-7 -7.5,-8.6 L 114.2,92 l -5.2,9.5 75.8,42 c 0,0 0,0 0,0 4.9,2.7 10,5.6 10.3,5.8 0.6,0.5 0.7,0.7 0.7,0.7 1.6,1.9 1.3,4.6 -0.8,6 z"
   id="path14"
   inkscape:connector-curvature="0"
   style="clip-rule:evenodd;fill:#363636;fill-opacity:1;fill-rule:evenodd" />
</g>
</svg>