<?xml version="1.0" encoding="UTF-8" standalone="no"?>
<!-- Generator: Adobe Illustrator 23.0.0, SVG Export Plug-In . SVG Version: 6.00 Build 0)  -->

<svg
   xmlns:ns="&amp;ns_sfw;"
   xmlns:dc="http://purl.org/dc/elements/1.1/"
   xmlns:cc="http://creativecommons.org/ns#"
   xmlns:rdf="http://www.w3.org/1999/02/22-rdf-syntax-ns#"
   xmlns:svg="http://www.w3.org/2000/svg"
   xmlns="http://www.w3.org/2000/svg"
   xmlns:sodipodi="http://sodipodi.sourceforge.net/DTD/sodipodi-0.dtd"
   xmlns:inkscape="http://www.inkscape.org/namespaces/inkscape"
   version="1.1"
   id="레이어_1"
   x="0px"
   y="0px"
   viewBox="0 0 16 16"
   xml:space="preserve"
   sodipodi:docname="empathy.svg"
   width="16"
   height="16"
   inkscape:version="0.92.5 (2060ec1f9f, 2020-04-08)"><defs
   id="defs28" /><sodipodi:namedview
   pagecolor="#ffffff"
   bordercolor="#666666"
   borderopacity="1"
   objecttolerance="10"
   gridtolerance="10"
   guidetolerance="10"
   inkscape:pageopacity="0"
   inkscape:pageshadow="2"
   inkscape:window-width="1262"
   inkscape:window-height="480"
   id="namedview26"
   showgrid="false"
   inkscape:zoom="0.921875"
   inkscape:cx="136.67797"
   inkscape:cy="128"
   inkscape:window-x="72"
   inkscape:window-y="28"
   inkscape:window-maximized="0"
   inkscape:current-layer="레이어_1" />
<style
   type="text/css"
   id="style2">
	.st0{opacity:0.1;}
	.st1{fill:url(#SVGID_1_);}
	.st2{fill:#FFFFFF;}
</style>
<metadata
   id="metadata4">
	<ns:sfw>
		<ns:slices />
		<ns:sliceSourceBounds
   bottomLeftOrigin="true"
   height="255.1"
   width="255"
   x="0.5"
   y="0.5" />
	</ns:sfw>
<rdf:RDF><cc:Work
     rdf:about=""><dc:format>image/svg+xml</dc:format><dc:type
       rdf:resource="http://purl.org/dc/dcmitype/StillImage" /><dc:title></dc:title></cc:Work></rdf:RDF></metadata>

<linearGradient
   id="SVGID_1_"
   gradientUnits="userSpaceOnUse"
   x1="233.8139"
   y1="242.2348"
   x2="62.5378"
   y2="57.3876">
	<stop
   offset="9.806494e-02"
   style="stop-color:#009AFF"
   id="stop12" />
	<stop
   offset="1"
   style="stop-color:#5FD8C6"
   id="stop14" />
</linearGradient>

<g
   id="g23"
   style="fill:#363636;fill-opacity:1"
   transform="matrix(0.09327115,0,0,0.09327115,-3.943371,-4.53553)">
	<path
   class="st2"
   d="M 68.7,62.9 C 60,62.9 53,69.9 53,78.6 V 168 h 10.7 v -1.5 -22.3 -63.6 c 0,-3.9 3.1,-7 7,-7 H 126 189.6 203 V 62.9 Z"
   id="path19"
   style="fill:#363636;fill-opacity:1"
   inkscape:connector-curvature="0" />
	<path
   class="st2"
   d="m 192.3,94.6 v 55.9 c 0,8.8 -7.1,15.9 -15.9,15.9 h -73.9 c -4.8,0 -9.5,1.6 -13.3,4.5 -11.5,8.9 -22.9,17.7 -34.4,26.6 l 6.6,8.4 30.8,-24 c 4,-3.1 8.9,-4.8 14,-4.8 h 71.7 c 13.9,0 25.2,-11.3 25.2,-25.2 V 94.6 Z"
   id="path21"
   style="fill:#363636;fill-opacity:1"
   inkscape:connector-curvature="0" />
</g>
</svg>