<?xml version="1.0" encoding="utf-8"?>
<!-- Generator: Adobe Illustrator 23.0.0, SVG Export Plug-In . SVG Version: 6.00 Build 0)  -->
<!DOCTYPE svg PUBLIC "-//W3C//DTD SVG 1.1//EN" "http://www.w3.org/Graphics/SVG/1.1/DTD/svg11.dtd" [
	<!ENTITY ns_extend "http://ns.adobe.com/Extensibility/1.0/">
	<!ENTITY ns_ai "http://ns.adobe.com/AdobeIllustrator/10.0/">
	<!ENTITY ns_graphs "http://ns.adobe.com/Graphs/1.0/">
	<!ENTITY ns_vars "http://ns.adobe.com/Variables/1.0/">
	<!ENTITY ns_imrep "http://ns.adobe.com/ImageReplacement/1.0/">
	<!ENTITY ns_sfw "http://ns.adobe.com/SaveForWeb/1.0/">
	<!ENTITY ns_custom "http://ns.adobe.com/GenericCustomNamespace/1.0/">
	<!ENTITY ns_adobe_xpath "http://ns.adobe.com/XPath/1.0/">
]>
<svg version="1.1" id="레이어_1" xmlns:x="&ns_extend;" xmlns:i="&ns_ai;" xmlns:graph="&ns_graphs;"
	 xmlns="http://www.w3.org/2000/svg" xmlns:xlink="http://www.w3.org/1999/xlink" x="0px" y="0px" viewBox="0 0 16 16"
	 style="enable-background:new 0 0 16 16;" xml:space="preserve">
<style type="text/css">
	.st0{fill:#363636;}
</style>
<metadata>
	<sfw  xmlns="&ns_sfw;">
		<slices></slices>
		<sliceSourceBounds  bottomLeftOrigin="true" height="13.8" width="14" x="1" y="-14.9"></sliceSourceBounds>
	</sfw>
</metadata>
<g id="video">
	<path class="st0" d="M13.9,12.1c0,0.9-0.8,1.7-1.7,1.7H3.8v1.1h8.5c1.5,0,2.7-1.2,2.7-2.7V3.9h-1.1V12.1z"/>
	<path class="st0" d="M2.3,1.1C1.6,1.1,1,1.7,1,2.3v12.5h1.1V14V2.2h6.8h5H15V1.1H2.3z"/>
	<path class="st0" d="M6.9,11l3.6-2.4c0.3-0.2,0.3-0.7,0-0.9L6.9,5.2C6.5,4.9,6,5.2,6,5.7v4.9C6,11,6.5,11.2,6.9,11z M7,6.6
		c0.7,0.5,1.4,1,2.1,1.6C8.4,8.6,7.7,9.1,7,9.6C7,9.6,7,6.6,7,6.6z"/>
	<circle class="st0" cx="3.5" cy="4.5" r="0.6"/>
	<circle class="st0" cx="3.5" cy="6.8" r="0.6"/>
	<circle class="st0" cx="3.5" cy="9.2" r="0.6"/>
	<circle class="st0" cx="3.5" cy="11.5" r="0.6"/>
	<circle class="st0" cx="12.4" cy="4.5" r="0.6"/>
	<circle class="st0" cx="12.4" cy="6.8" r="0.6"/>
	<circle class="st0" cx="12.4" cy="9.2" r="0.6"/>
	<circle class="st0" cx="12.4" cy="11.5" r="0.6"/>
</g>
</svg>
