<?xml version="1.0" encoding="UTF-8" standalone="no"?>
<!-- Generator: Adobe Illustrator 23.0.0, SVG Export Plug-In . SVG Version: 6.00 Build 0)  -->

<svg
   xmlns:ns="&amp;#38;ns_sfw;"
   xmlns:dc="http://purl.org/dc/elements/1.1/"
   xmlns:cc="http://creativecommons.org/ns#"
   xmlns:rdf="http://www.w3.org/1999/02/22-rdf-syntax-ns#"
   xmlns:svg="http://www.w3.org/2000/svg"
   xmlns="http://www.w3.org/2000/svg"
   xmlns:sodipodi="http://sodipodi.sourceforge.net/DTD/sodipodi-0.dtd"
   xmlns:inkscape="http://www.inkscape.org/namespaces/inkscape"
   version="1.1"
   id="레이어_1"
   x="0px"
   y="0px"
   viewBox="0 0 16 16"
   xml:space="preserve"
   sodipodi:docname="notes-app-symbolic.svg"
   width="16"
   height="16"
   inkscape:version="0.92.5 (2060ec1f9f, 2020-04-08)"><defs
   id="defs19" /><sodipodi:namedview
   pagecolor="#ffffff"
   bordercolor="#666666"
   borderopacity="1"
   objecttolerance="10"
   gridtolerance="10"
   guidetolerance="10"
   inkscape:pageopacity="0"
   inkscape:pageshadow="2"
   inkscape:window-width="1262"
   inkscape:window-height="480"
   id="namedview17"
   showgrid="false"
   inkscape:zoom="10.429825"
   inkscape:cx="15.787698"
   inkscape:cy="8.5789611"
   inkscape:window-x="72"
   inkscape:window-y="28"
   inkscape:window-maximized="0"
   inkscape:current-layer="레이어_1" />
<style
   type="text/css"
   id="style2">
	.st0{opacity:0.1;}
	.st1{fill:#F86141;}
	.st2{fill-rule:evenodd;clip-rule:evenodd;fill:#FFFFFF;}
</style>
<metadata
   id="metadata4">
	<ns:sfw>
		<ns:slices />
		<ns:sliceSourceBounds
   bottomLeftOrigin="true"
   height="255"
   width="255.1"
   x="0.4"
   y="0.5" />
	</ns:sfw>
<rdf:RDF><cc:Work
     rdf:about=""><dc:format>image/svg+xml</dc:format><dc:type
       rdf:resource="http://purl.org/dc/dcmitype/StillImage" /><dc:title /></cc:Work></rdf:RDF></metadata>


<path
   class="st2"
   d="m 3.766335,12.42589 v 0.73546 c 0,0.4728 0.385241,0.85804 0.858036,0.85804 h 9.403378 V 15 H 4.571839 C 3.58247,15 2.785722,14.1945 2.785722,13.21388 V 12.42589 Z M 3.241007,11.45403 H 1.63 V 10.47342 H 2.776967 V 8.87992 H 3.75758 v 2.04879 c 0.0088,0.28893 -0.227643,0.52532 -0.516573,0.52532 z M 2.785722,2.17323 C 2.785722,1.52533 3.311051,1 3.958956,1 h 9.210756 c 0.665416,0 1.1995,0.54284 1.1995,1.20826 l -0.0088,6.75922 c 0,0.83177 -0.332708,1.63727 -0.919325,2.22389 l -1.10319,1.10319 -0.691682,-0.69168 0.849281,-0.84928 c 0.577861,-0.57787 0.893058,-1.3571 0.893058,-2.16261 V 1.97186 H 3.75758 v 1.86491 c 0,0.28893 -0.236398,0.52533 -0.525329,0.52533 H 1.63 V 3.39024 H 2.776967 V 2.17323 Z M 3.241007,7.90807 H 1.63 V 6.92745 H 2.776967 V 5.33396 H 3.75758 V 7.38274 C 3.76638,7.67167 3.529937,7.90807 3.241007,7.90807 Z"
   id="path14"
   style="clip-rule:evenodd;fill:#363636;fill-opacity:1;fill-rule:evenodd;stroke-width:0.08755472"
   inkscape:connector-curvature="0"
   sodipodi:nodetypes="cssccssccsccccccscssccccccsccsscccccsccccccs" />
</svg>