<?xml version="1.0" encoding="UTF-8" standalone="no"?>
<!-- Generator: Adobe Illustrator 23.0.0, SVG Export Plug-In . SVG Version: 6.00 Build 0)  -->

<svg
   xmlns:ns="&amp;ns_sfw;"
   xmlns:dc="http://purl.org/dc/elements/1.1/"
   xmlns:cc="http://creativecommons.org/ns#"
   xmlns:rdf="http://www.w3.org/1999/02/22-rdf-syntax-ns#"
   xmlns:svg="http://www.w3.org/2000/svg"
   xmlns="http://www.w3.org/2000/svg"
   xmlns:sodipodi="http://sodipodi.sourceforge.net/DTD/sodipodi-0.dtd"
   xmlns:inkscape="http://www.inkscape.org/namespaces/inkscape"
   version="1.1"
   id="레이어_1"
   x="0px"
   y="0px"
   viewBox="0 0 16 16"
   xml:space="preserve"
   sodipodi:docname="systemsettings.svg"
   width="16"
   height="16"
   inkscape:version="0.92.5 (2060ec1f9f, 2020-04-08)"><defs
   id="defs19" /><sodipodi:namedview
   pagecolor="#ffffff"
   bordercolor="#666666"
   borderopacity="1"
   objecttolerance="10"
   gridtolerance="10"
   guidetolerance="10"
   inkscape:pageopacity="0"
   inkscape:pageshadow="2"
   inkscape:window-width="1262"
   inkscape:window-height="480"
   id="namedview17"
   showgrid="false"
   inkscape:zoom="0.921875"
   inkscape:cx="136.67797"
   inkscape:cy="128"
   inkscape:window-x="72"
   inkscape:window-y="28"
   inkscape:window-maximized="0"
   inkscape:current-layer="레이어_1" />
<style
   type="text/css"
   id="style2">
	.st0{opacity:0.1;}
	.st1{fill:#618FFA;}
	.st2{fill-rule:evenodd;clip-rule:evenodd;fill:#FFFFFF;}
</style>
<metadata
   id="metadata4">
	<ns:sfw>
		<ns:slices />
		<ns:sliceSourceBounds
   bottomLeftOrigin="true"
   height="255.1"
   width="255"
   x="0.5"
   y="0.5" />
	</ns:sfw>
<rdf:RDF><cc:Work
     rdf:about=""><dc:format>image/svg+xml</dc:format><dc:type
       rdf:resource="http://purl.org/dc/dcmitype/StillImage" /><dc:title></dc:title></cc:Work></rdf:RDF></metadata>


<path
   class="st2"
   d="m 8.0754178,9.81482 c -1.067335,0 -1.93345,-0.86611 -1.93345,-1.93345 0,-1.06733 0.866115,-1.93345 1.93345,-1.93345 1.067334,0 1.9334502,0.86612 1.9334502,1.93345 0,1.06734 -0.8661162,1.93345 -1.9334502,1.93345 m 0,-4.77675 c 1.566007,0 2.8345602,1.26855 2.8345602,2.83456 0,1.566 -1.2685532,2.83456 -2.8345602,2.83456 -1.566007,0 -2.83456,-1.26856 -2.83456,-2.83456 0,-1.56601 1.268553,-2.83456 2.83456,-2.83456 z m -4.601786,3.68317 c 0,0.12249 -0.05249,0.23622 -0.139979,0.3237 l -1.251056,1.14608 -0.656148,-0.71739 0.944853,-0.86612 c 0.08749,-0.0787 0.13123,-0.18372 0.13123,-0.29745 V 7.55767 c 0,-0.12248 -0.05249,-0.22746 -0.139978,-0.3062 L 1.2602248,6.34161 C 0.98026781,6.1054 0.91902781,5.69421 1.1114978,5.38801 l 1.496018,-2.35338 c 0.201219,-0.3237 0.621154,-0.42869 0.953602,-0.26246 l 1.049837,0.53366 c 0.104984,0.0525 0.218716,0.0612 0.332449,0.0175 l 0.673645,-0.26246 c 0.139978,-0.0525 0.244962,-0.19247 0.253711,-0.3412 l 0.09624,-1.18106 c 0.03499,-0.37619 0.349946,-0.67365 0.734886,-0.67365 h 2.747074 c 0.376192,0 0.6911432,0.28871 0.7261372,0.6649 l 0.104984,1.17232 c 0.0087,0.11373 0.06999,0.21871 0.166224,0.2887 l 0.551165,0.41119 c 0.104984,0.0787 0.253711,0.0962 0.376192,0.0525 L 12.694707,2.9734 13.027155,3.892 11.233683,4.5569 C 11.093705,4.6094 10.936229,4.5832 10.822497,4.4957 L 9.5626918,3.55085 C 9.4402108,3.46335 9.3614738,3.32338 9.3527248,3.17465 L 9.2302438,1.85361 h -2.300893 l -0.139979,1.50477 c -0.0175,0.22746 -0.166224,0.41993 -0.38494,0.48992 l -1.469772,0.52492 c -0.148727,0.0525 -0.314951,0.0437 -0.463678,-0.0263 l -1.172318,-0.59491 -1.233559,1.93346 1.207313,1.04108 c 0.113732,0.10499 0.183721,0.24497 0.183721,0.40244 l 0.0175,1.59225 z M 14.715638,9.55237 c 0.297454,0.23621 0.376192,0.65614 0.166225,0.97109 l -1.478521,2.3184 c -0.201219,0.3237 -0.621154,0.42868 -0.962351,0.25371 L 11.391154,12.5444 c -0.139978,-0.07 -0.297454,-0.0612 -0.428684,0.035 l -0.586159,0.42868 c -0.09624,0.07 -0.148727,0.17497 -0.166224,0.2887 l -0.113732,1.17232 c -0.03499,0.37619 -0.3499462,0.6649 -0.7348862,0.6649 h -2.782069 c -0.367443,0 -0.682394,-0.27121 -0.726137,-0.63865 l -0.183722,-1.41728 c -0.0175,-0.11373 -0.07874,-0.21872 -0.183721,-0.28871 l -0.629903,-0.40243 c -0.09624,-0.0612 -0.209967,-0.0787 -0.3237,-0.0525 l -1.207312,0.3237 -0.253711,-0.94485 1.644745,-0.43743 c 0.122481,-0.035 0.244962,-0.009 0.349946,0.0525 l 1.338542,0.85737 c 0.13123,0.0875 0.218716,0.21871 0.244962,0.37619 l 0.227465,1.5835 h 2.300893 l 0.122481,-1.30354 c 0.0175,-0.15748 0.09624,-0.30621 0.218716,-0.40244 l 1.2335592,-0.9536 c 0.174973,-0.13998 0.419935,-0.15748 0.621154,-0.0525 l 1.338542,0.69115 1.233559,-1.93345 L 12.895921,9.3774 C 12.77344,9.2812 12.70345,9.14994 12.694702,8.99246 L 12.580969,7.41771 c -0.0087,-0.14873 0.05249,-0.28871 0.174973,-0.3762 l 1.522264,-1.15482 0.586159,0.77863 -1.119826,0.84862 c -0.104984,0.0787 -0.166224,0.20997 -0.157476,0.34995 l 0.04374,0.69114 c 0.0087,0.11373 0.06124,0.21872 0.157475,0.28871 l 0.927356,0.70864 z"
   id="path14"
   inkscape:connector-curvature="0"
   style="clip-rule:evenodd;fill:#363636;fill-opacity:1;fill-rule:evenodd;stroke-width:0.08748643" />
</svg>