<?xml version="1.0" encoding="UTF-8" standalone="no"?>
<!-- Generator: Adobe Illustrator 23.0.0, SVG Export Plug-In . SVG Version: 6.00 Build 0)  -->

<svg
   xmlns:ns="&amp;ns_sfw;"
   xmlns:dc="http://purl.org/dc/elements/1.1/"
   xmlns:cc="http://creativecommons.org/ns#"
   xmlns:rdf="http://www.w3.org/1999/02/22-rdf-syntax-ns#"
   xmlns:svg="http://www.w3.org/2000/svg"
   xmlns="http://www.w3.org/2000/svg"
   xmlns:sodipodi="http://sodipodi.sourceforge.net/DTD/sodipodi-0.dtd"
   xmlns:inkscape="http://www.inkscape.org/namespaces/inkscape"
   version="1.1"
   id="레이어_1"
   x="0px"
   y="0px"
   viewBox="0 0 16 16"
   xml:space="preserve"
   sodipodi:docname="keyboard (사본).svg"
   width="16"
   height="16"
   inkscape:version="0.92.5 (2060ec1f9f, 2020-04-08)"><defs
   id="defs43" /><sodipodi:namedview
   pagecolor="#ffffff"
   bordercolor="#666666"
   borderopacity="1"
   objecttolerance="10"
   gridtolerance="10"
   guidetolerance="10"
   inkscape:pageopacity="0"
   inkscape:pageshadow="2"
   inkscape:window-width="1262"
   inkscape:window-height="480"
   id="namedview41"
   showgrid="false"
   inkscape:zoom="7.375"
   inkscape:cx="5.8929488"
   inkscape:cy="13.49965"
   inkscape:window-x="72"
   inkscape:window-y="28"
   inkscape:window-maximized="0"
   inkscape:current-layer="레이어_1" />
<style
   type="text/css"
   id="style2">
	.st0{opacity:0.1;}
	.st1{fill:#777C8F;}
	.st2{fill:#FFFFFF;}
</style>
<metadata
   id="metadata4">
	<ns:sfw>
		<ns:slices />
		<ns:sliceSourceBounds
   bottomLeftOrigin="true"
   height="255.1"
   width="255"
   x="0.5"
   y="0.5" />
	</ns:sfw>
<rdf:RDF><cc:Work
     rdf:about=""><dc:format>image/svg+xml</dc:format><dc:type
       rdf:resource="http://purl.org/dc/dcmitype/StillImage" /><dc:title></dc:title></cc:Work></rdf:RDF></metadata>


<path
   class="st2"
   d="m 14.076,5.21933 c 0,1.97867 0,3.948 0,5.92667 0.0093,0.0747 0.04667,0.62533 -0.373333,1.04533 C 13.348,12.546 12.909333,12.56467 12.816,12.56467 c -3.070667,0 -6.141333,0 -9.212,0 V 13.554 c 3.014667,0 6.029333,0 9.044,0 0.149333,0 1.194667,-0.0467 1.866667,-0.91467 C 14.962667,12.06067 15,11.43533 15,11.21133 15,9.214 15,7.226 15,5.22867 h -0.924 z"
   id="path14"
   style="fill:#363636;fill-opacity:1;stroke-width:0.09333333"
   inkscape:connector-curvature="0" />
<path
   class="st2"
   d="M 2.054667,2.44733 C 1.466667,2.44733 1,2.92333 1,3.502 1,6.85267 1,10.194 1,13.54467 h 0.933333 c 0,-3.304 0,-6.61734 0,-9.92134 0,-0.12133 0.09333,-0.21466 0.214667,-0.21466 4.284,0 8.568,-0.009 12.852,-0.009 v -0.952 c -4.312,0 -8.624,0 -12.945333,0 z"
   id="path16"
   style="fill:#363636;fill-opacity:1;stroke-width:0.09333333"
   inkscape:connector-curvature="0" />
<rect
   x="5.8066673"
   y="10.007339"
   class="st2"
   width="4.6666665"
   height="1.0266666"
   id="rect18"
   style="fill:#363636;fill-opacity:1;stroke-width:0.09333333" />
<rect
   x="5.8066673"
   y="7.4219971"
   class="st2"
   width="1.0266666"
   height="1.0266666"
   id="rect20"
   style="fill:#363636;fill-opacity:1;stroke-width:0.09333333" />
<rect
   x="7.626667"
   y="7.4219971"
   class="st2"
   width="1.0266666"
   height="1.0266666"
   id="rect22"
   style="fill:#363636;fill-opacity:1;stroke-width:0.09333333" />
<rect
   x="9.4560013"
   y="7.4219971"
   class="st2"
   width="1.0266666"
   height="1.0266666"
   id="rect24"
   style="fill:#363636;fill-opacity:1;stroke-width:0.09333333" />
<rect
   x="5.8066673"
   y="5.2193298"
   class="st2"
   width="1.0266666"
   height="1.0266666"
   id="rect26"
   style="fill:#363636;fill-opacity:1;stroke-width:0.09333333" />
<rect
   x="7.626667"
   y="5.2193298"
   class="st2"
   width="1.0266666"
   height="1.0266666"
   id="rect28"
   style="fill:#363636;fill-opacity:1;stroke-width:0.09333333" />
<rect
   x="9.4560013"
   y="5.2193298"
   class="st2"
   width="1.0266666"
   height="1.0266666"
   id="rect30"
   style="fill:#363636;fill-opacity:1;stroke-width:0.09333333" />
<rect
   x="11.276001"
   y="7.4219971"
   class="st2"
   width="1.0266666"
   height="1.0266666"
   id="rect32"
   style="fill:#363636;fill-opacity:1;stroke-width:0.09333333" />
<rect
   x="11.276001"
   y="5.2193298"
   class="st2"
   width="1.0266666"
   height="1.0266666"
   id="rect34"
   style="fill:#363636;fill-opacity:1;stroke-width:0.09333333" />
<rect
   x="3.9959984"
   y="7.4219971"
   class="st2"
   width="1.0266666"
   height="1.0266666"
   id="rect36"
   style="fill:#363636;fill-opacity:1;stroke-width:0.09333333" />
<rect
   x="3.9959984"
   y="5.2193298"
   class="st2"
   width="1.0266666"
   height="1.0266666"
   id="rect38"
   style="fill:#363636;fill-opacity:1;stroke-width:0.09333333" />
</svg>
