<?xml version="1.0" encoding="UTF-8" standalone="no"?>
<!-- Generator: Adobe Illustrator 23.0.0, SVG Export Plug-In . SVG Version: 6.00 Build 0)  -->

<svg
   xmlns:ns="&amp;ns_sfw;"
   xmlns:dc="http://purl.org/dc/elements/1.1/"
   xmlns:cc="http://creativecommons.org/ns#"
   xmlns:rdf="http://www.w3.org/1999/02/22-rdf-syntax-ns#"
   xmlns:svg="http://www.w3.org/2000/svg"
   xmlns="http://www.w3.org/2000/svg"
   xmlns:sodipodi="http://sodipodi.sourceforge.net/DTD/sodipodi-0.dtd"
   xmlns:inkscape="http://www.inkscape.org/namespaces/inkscape"
   version="1.1"
   id="레이어_1"
   x="0px"
   y="0px"
   viewBox="0 0 16 16"
   xml:space="preserve"
   sodipodi:docname="file-manager.svg"
   width="16"
   height="16"
   inkscape:version="0.92.5 (2060ec1f9f, 2020-04-08)"><defs
   id="defs21" /><sodipodi:namedview
   pagecolor="#ffffff"
   bordercolor="#666666"
   borderopacity="1"
   objecttolerance="10"
   gridtolerance="10"
   guidetolerance="10"
   inkscape:pageopacity="0"
   inkscape:pageshadow="2"
   inkscape:window-width="1262"
   inkscape:window-height="480"
   id="namedview19"
   showgrid="false"
   inkscape:zoom="0.921875"
   inkscape:cx="136.67797"
   inkscape:cy="128"
   inkscape:window-x="241"
   inkscape:window-y="143"
   inkscape:window-maximized="0"
   inkscape:current-layer="레이어_1" />
<style
   type="text/css"
   id="style2">
	.st0{opacity:0.1;}
	.st1{fill:#F4A72E;}
	.st2{fill-rule:evenodd;clip-rule:evenodd;fill:#FFFFFF;}
</style>
<metadata
   id="metadata4">
	<ns:sfw>
		<ns:slices />
		<ns:sliceSourceBounds
   bottomLeftOrigin="true"
   height="255.1"
   width="255"
   x="0.5"
   y="0.5" />
	</ns:sfw>
<rdf:RDF><cc:Work
     rdf:about=""><dc:format>image/svg+xml</dc:format><dc:type
       rdf:resource="http://purl.org/dc/dcmitype/StillImage" /><dc:title></dc:title></cc:Work></rdf:RDF></metadata>


<g
   transform="matrix(0.09073234,0,0,0.09073234,-5.5236552,-5.97265)"
   id="g16"
   style="fill:#363636;fill-opacity:1">
	<path
   class="st2"
   d="m 154,100.4 h 72.1 v 11.2 h -72.9 c -1.9,0 -3.7,-0.5 -5.3,-1.5 -1.9,-1.2 -3.2,-3.2 -3.5,-5.5 l -1.2,-7.4 H 83.1 V 222.1 H 71.9 V 95.7 c 0,-5.4 4.4,-9.8 9.8,-9.8 H 143 c 3.1,0 6.1,1.2 8.3,3.4 1,1 1.7,2.4 1.8,3.8 z m -42.7,30.7 v -11.2 h 105.9 c 5,0 9,4 9,9 v 67.4 c 0,14.2 -11.5,25.7 -25.7,25.7 H 98.7 v -11.2 h 102.9 c 7.3,0 13.3,-6 13.3,-13.3 v -66.4 z"
   id="path14"
   style="clip-rule:evenodd;fill:#363636;fill-opacity:1;fill-rule:evenodd"
   inkscape:connector-curvature="0" />
</g>
</svg>