<?xml version="1.0" encoding="utf-8"?>
<!-- Generator: Adobe Illustrator 23.0.0, SVG Export Plug-In . SVG Version: 6.00 Build 0)  -->
<!DOCTYPE svg PUBLIC "-//W3C//DTD SVG 1.1//EN" "http://www.w3.org/Graphics/SVG/1.1/DTD/svg11.dtd" [
	<!ENTITY ns_extend "http://ns.adobe.com/Extensibility/1.0/">
	<!ENTITY ns_ai "http://ns.adobe.com/AdobeIllustrator/10.0/">
	<!ENTITY ns_graphs "http://ns.adobe.com/Graphs/1.0/">
	<!ENTITY ns_vars "http://ns.adobe.com/Variables/1.0/">
	<!ENTITY ns_imrep "http://ns.adobe.com/ImageReplacement/1.0/">
	<!ENTITY ns_sfw "http://ns.adobe.com/SaveForWeb/1.0/">
	<!ENTITY ns_custom "http://ns.adobe.com/GenericCustomNamespace/1.0/">
	<!ENTITY ns_adobe_xpath "http://ns.adobe.com/XPath/1.0/">
]>
<svg version="1.1" id="레이어_1" xmlns:x="&ns_extend;" xmlns:i="&ns_ai;" xmlns:graph="&ns_graphs;"
	 xmlns="http://www.w3.org/2000/svg" xmlns:xlink="http://www.w3.org/1999/xlink" x="0px" y="0px" viewBox="0 0 16 16"
	 style="enable-background:new 0 0 16 16;" xml:space="preserve">
<style type="text/css">
	.st0{fill-rule:evenodd;clip-rule:evenodd;fill:#363636;}
</style>
<metadata>
	<sfw  xmlns="&ns_sfw;">
		<slices></slices>
		<sliceSourceBounds  bottomLeftOrigin="true" height="14" width="10.5" x="2.8" y="-15"></sliceSourceBounds>
	</sfw>
</metadata>
<path class="st0" d="M13.2,8.7L13.2,8.7l0-1.1h-0.9v0.8c-0.1,0.4-0.3,0.4-1,0.6C8.6,9.6,8.4,9.9,9,12.6c0.2,0.8-0.3,1.4-1,1.4
	c-0.7,0-1.2-0.6-1-1.4c0.6-2.7,0.3-3.1-2.5-3.7C4.1,8.8,3.8,8.6,3.7,8.3V1.9h8.6v3.1h-7V6h7c0.5,0,0.9-0.4,0.9-0.9V1.9
	c0-0.5-0.4-0.9-0.9-0.9H3.7C3.2,1,2.8,1.4,2.8,1.9v6.7c0,0.2,0.1,0.4,0.2,0.5c0.2,0.2,0.4,0.4,0.8,0.4c0.6,0.2,1.1,0.2,1.7,0.4
	c0.8,0.3,1.1,0.4,1,1.5c0,0.3-0.1,0.7-0.2,1c-0.2,1-0.1,1.6,0.7,2.1C7.2,14.8,7.6,15,8.1,15c0.4,0,0.9-0.2,1.2-0.4
	c0.7-0.5,0.9-1.1,0.7-2.1c-0.1-0.3-0.2-0.6-0.2-1c-0.1-1,0.2-1.2,1-1.5c0.7-0.2,1.2-0.3,1.7-0.4c0.2,0,0.4-0.1,0.6-0.3
	C13.2,9.2,13.3,9,13.2,8.7"/>
</svg>
