<?xml version="1.0" encoding="UTF-8" standalone="no"?>
<!-- Generator: Adobe Illustrator 23.0.0, SVG Export Plug-In . SVG Version: 6.00 Build 0)  -->

<svg
   xmlns:ns="&amp;ns_sfw;"
   xmlns:dc="http://purl.org/dc/elements/1.1/"
   xmlns:cc="http://creativecommons.org/ns#"
   xmlns:rdf="http://www.w3.org/1999/02/22-rdf-syntax-ns#"
   xmlns:svg="http://www.w3.org/2000/svg"
   xmlns="http://www.w3.org/2000/svg"
   xmlns:sodipodi="http://sodipodi.sourceforge.net/DTD/sodipodi-0.dtd"
   xmlns:inkscape="http://www.inkscape.org/namespaces/inkscape"
   version="1.1"
   id="레이어_1"
   x="0px"
   y="0px"
   viewBox="0 0 16 16"
   xml:space="preserve"
   sodipodi:docname="web-browser-symbolic.svg"
   width="16"
   height="16"
   inkscape:version="0.92.5 (2060ec1f9f, 2020-04-08)"><defs
   id="defs21" /><sodipodi:namedview
   pagecolor="#ffffff"
   bordercolor="#666666"
   borderopacity="1"
   objecttolerance="10"
   gridtolerance="10"
   guidetolerance="10"
   inkscape:pageopacity="0"
   inkscape:pageshadow="2"
   inkscape:window-width="1262"
   inkscape:window-height="480"
   id="namedview19"
   showgrid="false"
   inkscape:zoom="0.921875"
   inkscape:cx="136.67797"
   inkscape:cy="128"
   inkscape:window-x="72"
   inkscape:window-y="28"
   inkscape:window-maximized="0"
   inkscape:current-layer="레이어_1" />
<style
   type="text/css"
   id="style2">
	.st0{opacity:0.1;}
	.st1{fill:#706CF5;}
	.st2{fill-rule:evenodd;clip-rule:evenodd;fill:#FFFFFF;}
</style>
<metadata
   id="metadata4">
	<ns:sfw>
		<ns:slices />
		<ns:sliceSourceBounds
   bottomLeftOrigin="true"
   height="255.1"
   width="255"
   x="0.5"
   y="0.5" />
	</ns:sfw>
<rdf:RDF><cc:Work
     rdf:about=""><dc:format>image/svg+xml</dc:format><dc:type
       rdf:resource="http://purl.org/dc/dcmitype/StillImage" /><dc:title></dc:title></cc:Work></rdf:RDF></metadata>


<g
   transform="matrix(0.07591969,0,0,0.07591969,-3.3192472,-3.55914)"
   id="g16"
   style="fill:#363636;fill-opacity:1">
	<path
   class="st2"
   d="m 230.6,173.8 c -1.1,4.2 -5.6,7.2 -12.7,9 3.2,-7.2 5.3,-14.9 6.1,-23.1 5.2,5.1 7.7,9.9 6.6,14.1 m -87.6,2.8 c -23.7,-6.3 -44.2,-15 -57.7,-23.8 0,-0.2 0,-0.4 0,-0.6 0,-35.3 28.6,-63.8 63.8,-63.8 35.2,0 63.8,28.6 63.8,63.8 0,11.8 -3.2,22.9 -8.8,32.4 -16,0.9 -37.8,-1.8 -61.1,-8 M 68.3,130.8 c 1.1,-4 5.3,-6.9 11.9,-8.7 -3.1,7 -5.1,14.5 -5.9,22.2 -4.8,-4.9 -7,-9.5 -6,-13.5 m 80.8,-53.7 c 39.8,0 72.4,31 75.1,70.1 12.6,10.1 19,20.7 16.6,29.7 -2.4,9.1 -13.4,15.1 -29.4,17.6 -0.1,0.1 -8.9,1.3 -14,1.3 -16.7,0.5 -36.8,-1.8 -57.8,-7.4 C 88.9,175 52.1,148 57.4,128.2 c 2.4,-9.1 13.2,-15 29.1,-17.6 13.4,-20.2 36.4,-33.5 62.6,-33.5 z m 33.5,129.5 c 6.6,0.4 12.8,0.3 18.6,-0.1 -13.5,13 -31.9,20.9 -52.1,20.9 -34.8,0 -64.1,-23.7 -72.7,-55.8 4.7,3.4 10,6.8 16,10 10.6,20.5 32,34.5 56.7,34.5 12.3,0 23.7,-3.4 33.5,-9.5 z"
   id="path14"
   style="clip-rule:evenodd;fill:#363636;fill-opacity:1;fill-rule:evenodd"
   inkscape:connector-curvature="0" />
</g>
</svg>