/* XPM */
static char * desktop_xpm[] = {
"24 24 359 2",
"  	c None",
". 	c #ECECEC",
"+ 	c #EAEAEA",
"@ 	c #EBEBEB",
"# 	c #EDEDED",
"$ 	c #E0E0E0",
"% 	c #E5E5E5",
"& 	c #EBEAEB",
"* 	c #F3F3F3",
"= 	c #F5F5F5",
"- 	c #F6F5F6",
"; 	c #F0EFF0",
"> 	c #E8E8E8",
", 	c #C3C3C3",
"' 	c #C1C2C1",
") 	c #8D948C",
"! 	c #8F968F",
"~ 	c #8B938A",
"{ 	c #8B938B",
"] 	c #8A9289",
"^ 	c #8F948E",
"/ 	c #8E948C",
"( 	c #8E938C",
"_ 	c #8E948D",
": 	c #CACBCA",
"< 	c #EFEFEF",
"[ 	c #C4C4C4",
"} 	c #BCBCBC",
"| 	c #E6E6E6",
"1 	c #919890",
"2 	c #718E6F",
"3 	c #A3B7A2",
"4 	c #779374",
"5 	c #88A186",
"6 	c #849E82",
"7 	c #849E81",
"8 	c #829D80",
"9 	c #739271",
"0 	c #B2B5A8",
"a 	c #A0A796",
"b 	c #A1A897",
"c 	c #A2A897",
"d 	c #979F8D",
"e 	c #949892",
"f 	c #BABABA",
"g 	c #E4E4E4",
"h 	c #849384",
"i 	c #3A753A",
"j 	c #498248",
"k 	c #457F45",
"l 	c #478147",
"m 	c #468047",
"n 	c #427D42",
"o 	c #689364",
"p 	c #89A080",
"q 	c #839D7C",
"r 	c #849D7C",
"s 	c #74916B",
"t 	c #829082",
"u 	c #CBCACB",
"v 	c #C2C2C2",
"w 	c #424242",
"x 	c #B7B7B7",
"y 	c #E2E1E2",
"z 	c #829382",
"A 	c #1F6720",
"B 	c #32712E",
"C 	c #30722E",
"D 	c #2A712B",
"E 	c #2A722B",
"F 	c #29722B",
"G 	c #3C7C3C",
"H 	c #73976D",
"I 	c #6D9266",
"J 	c #6C9265",
"K 	c #6F9369",
"L 	c #7E987A",
"M 	c #B4B6B4",
"N 	c #D7D7D7",
"O 	c #ABABAB",
"P 	c #B4B4B4",
"Q 	c #DEDDDE",
"R 	c #849685",
"S 	c #236521",
"T 	c #B3A265",
"U 	c #A79D62",
"V 	c #2E712E",
"W 	c #2D772F",
"X 	c #2E7931",
"Y 	c #2E7C32",
"Z 	c #2F7C33",
"` 	c #337F37",
" .	c #6B9A6A",
"..	c #6A9666",
"+.	c #689464",
"@.	c #669161",
"#.	c #7A9776",
"$.	c #A6AEA4",
"%.	c #C0BEC0",
"&.	c #A3A2A3",
"*.	c #767676",
"=.	c #5D5D5D",
"-.	c #B1B1B1",
";.	c #DBDADB",
">.	c #879987",
",.	c #246120",
"'.	c #BD944E",
").	c #BD934E",
"!.	c #337832",
"~.	c #328338",
"{.	c #32863B",
"].	c #33883C",
"^.	c #348A3C",
"/.	c #33893C",
"(.	c #589A5C",
"_.	c #6AA06B",
":.	c #689D69",
"<.	c #99A798",
"[.	c #C8C9C8",
"}.	c #B5B5B5",
"|.	c #6E6D6E",
"1.	c #707370",
"2.	c #CCCCCC",
"3.	c #B2B2B2",
"4.	c #AFAFAF",
"5.	c #D8D8D8",
"6.	c #8B9D8B",
"7.	c #206B24",
"8.	c #1E6B30",
"9.	c #227135",
"0.	c #369040",
"a.	c #379343",
"b.	c #389645",
"c.	c #389746",
"d.	c #389745",
"e.	c #459D51",
"f.	c #5B9961",
"g.	c #809180",
"h.	c #C0BCBF",
"i.	c #949494",
"j.	c #515B52",
"k.	c #386037",
"l.	c #8B9B8B",
"m.	c #E0DFE0",
"n.	c #ACACAC",
"o.	c #D5D4D5",
"p.	c #8FA290",
"q.	c #29732F",
"r.	c #A4ADA4",
"s.	c #9BA49B",
"t.	c #3B8F47",
"u.	c #3B9C49",
"v.	c #3CA04C",
"w.	c #3DA14D",
"x.	c #3FA64F",
"y.	c #3DA44D",
"z.	c #35743F",
"A.	c #171F19",
"B.	c #3A353A",
"C.	c #636C64",
"D.	c #466D4A",
"E.	c #559259",
"F.	c #4B8A4E",
"G.	c #8E9F8F",
"H.	c #DAD9DA",
"I.	c #A9A9A9",
"J.	c #D2D2D2",
"K.	c #93A895",
"L.	c #2A7932",
"M.	c #AEADAE",
"N.	c #A4A4A4",
"O.	c #3B954A",
"P.	c #40A650",
"Q.	c #44A851",
"R.	c #47B155",
"S.	c #3F934A",
"T.	c #405242",
"U.	c #241F23",
"V.	c #222E24",
"W.	c #447E4C",
"X.	c #579F61",
"Y.	c #54995C",
"Z.	c #508F56",
"`.	c #428246",
" +	c #8B9D8D",
".+	c #D2D1D2",
"++	c #A8A8A8",
"@+	c #A6A6A6",
"#+	c #CECDCE",
"$+	c #96AC99",
"%+	c #2B8736",
"&+	c #298B37",
"*+	c #2C923D",
"=+	c #43A750",
"-+	c #49AE54",
";+	c #49A753",
">+	c #427947",
",+	c #363235",
"'+	c #323D33",
")+	c #326136",
"!+	c #439F4C",
"~+	c #68B16F",
"{+	c #4F9657",
"]+	c #498D53",
"^+	c #4A9053",
"/+	c #3E8545",
"(+	c #8FA190",
"_+	c #D0CFCF",
":+	c #CCCBCC",
"<+	c #9BB19E",
"[+	c #2E913D",
"}+	c #3FA650",
"|+	c #46AB53",
"1+	c #4BB255",
"2+	c #4C9152",
"3+	c #3C4A3D",
"4+	c #282A27",
"5+	c #2B4F2C",
"6+	c #3F8341",
"7+	c #408943",
"8+	c #3A813F",
"9+	c #488A4C",
"0+	c #4E9354",
"a+	c #4E9857",
"b+	c #4E9E5A",
"c+	c #40944C",
"d+	c #9AB09E",
"e+	c #A0A0A0",
"f+	c #C8C8C8",
"g+	c #9FB6A2",
"h+	c #319640",
"i+	c #43A852",
"j+	c #4BAF56",
"k+	c #537556",
"l+	c #2D2C2E",
"m+	c #213A21",
"n+	c #306131",
"o+	c #376D36",
"p+	c #3F7D3E",
"q+	c #4F9D4F",
"r+	c #55AE57",
"s+	c #58B45C",
"t+	c #61B867",
"u+	c #59B262",
"v+	c #54AF5F",
"w+	c #419D4E",
"x+	c #A1A1A1",
"y+	c #9E9E9E",
"z+	c #C5C5C5",
"A+	c #A2BAA5",
"B+	c #339A43",
"C+	c #48AE54",
"D+	c #466748",
"E+	c #2D3C2D",
"F+	c #326B33",
"G+	c #458745",
"H+	c #56A154",
"I+	c #6AC269",
"J+	c #73D072",
"K+	c #6BC969",
"L+	c #63C362",
"M+	c #5EBD60",
"N+	c #61BB65",
"O+	c #59B560",
"P+	c #52AF5D",
"Q+	c #3E9E4C",
"R+	c #A1B9A5",
"S+	c #C9C8C9",
"T+	c #9C9C9C",
"U+	c #A4BDA8",
"V+	c #309A40",
"W+	c #47AD51",
"X+	c #48A24E",
"Y+	c #53B656",
"Z+	c #5FC15E",
"`+	c #69CA68",
" @	c #73CE75",
".@	c #7ACF7D",
"+@	c #79CD7C",
"@@	c #72CA73",
"#@	c #67C665",
"$@	c #5EC05D",
"%@	c #59BB5C",
"&@	c #53B559",
"*@	c #4AAF56",
"=@	c #359C44",
"-@	c #999999",
";@	c #BFBEBF",
">@	c #B4C4B7",
",@	c #67A96F",
"'@	c #77B87C",
")@	c #7DBD7F",
"!@	c #84C284",
"~@	c #89C785",
"{@	c #91CB8F",
"]@	c #9BCF9B",
"^@	c #A3D3A5",
"/@	c #A1D2A5",
"(@	c #93CC91",
"_@	c #8BC888",
":@	c #86C385",
"<@	c #80BE82",
"[@	c #7ABA7F",
"}@	c #67A970",
"|@	c #C0C0C0",
"1@	c #969696",
"2@	c #BCBBBC",
"3@	c #BECAC1",
"4@	c #7AA980",
"5@	c #9DC49F",
"6@	c #A3C7A4",
"7@	c #9DC49B",
"8@	c #A9CCA5",
"9@	c #B0D0AD",
"0@	c #ACCDAA",
"a@	c #B7D3B7",
"b@	c #BAD5B9",
"c@	c #ABCDA9",
"d@	c #9DC699",
"e@	c #97C392",
"f@	c #92BF91",
"g@	c #8DBA8E",
"h@	c #88B78C",
"i@	c #79A97F",
"j@	c #BFCAC1",
"k@	c #959595",
"l@	c #BBBBBB",
"m@	c #C7CAC8",
"n@	c #A6B7A8",
"o@	c #A3B5A4",
"p@	c #A5B7A5",
"q@	c #A6B8A6",
"r@	c #A9BAA7",
"s@	c #AABBA9",
"t@	c #ACBCAB",
"u@	c #AEBDAD",
"v@	c #ACBBAB",
"w@	c #ABBBAA",
"x@	c #A7B8A6",
"y@	c #A5B7A6",
"z@	c #A4B6A5",
"A@	c #A5B7A8",
"B@	c #707070",
"C@	c #B8B8B8",
"D@	c #BDBCBC",
"E@	c #303030",
"F@	c #808080",
"G@	c #AAAAAA",
"H@	c #ADADAD",
"I@	c #B0B0B0",
"J@	c #2A2A2A",
"K@	c #323232",
"L@	c #373737",
"M@	c #393939",
"N@	c #3A3A3A",
"O@	c #3B3B3B",
"P@	c #3C3C3C",
"Q@	c #3D3D3D",
"R@	c #3E3E3E",
"                                                ",
"      . + + + + + + + @ @ @ @ @ @ @ @ @ #       ",
"    $ % & & & & & & & * = = = = = = = - ; >     ",
"  , % ' ) ! ~ { { { { ] ^ / / / / / ( _ : < [   ",
"  } | 1 2 3 4 5 6 7 8 9 0 a b b b b c d e * f   ",
"  f g h i j k l m m m n o p q q q q r s t u v w ",
"  x y z A B C D D D E F G H I I I J K L M N O   ",
"  P Q R S T U V W X Y Z `  ...+.@.#.$.%.&.*.=.  ",
"  -.;.>.,.'.).!.~.{.].^./.(._.:.<.[.}.|.1.2.3.  ",
"  4.5.6.7.8.9.].0.a.b.c.d.e.f.g.h.i.j.k.l.m.4.  ",
"  n.o.p.q.r.s.t.u.v.w.x.y.z.A.B.C.D.E.F.G.H.O   ",
"  I.J.K.L.M.N.O.P.Q.R.S.T.U.V.W.X.Y.Z.`. +.+++  ",
"  @+#+$+%+&+*+=+-+;+>+,+'+)+!+~+{+]+^+/+(+_+@+  ",
"  N.:+<+[+}+|+1+2+3+4+5+6+7+8+9+0+a+b+c+d+.+N.  ",
"  e+f+g+h+i+j+k+l+m+n+o+p+q+r+s+t+u+v+w+g+#+x+  ",
"  y+z+A+B+C+D+E+F+G+H+I+J+K+L+M+N+O+P+Q+R+S+y+  ",
"  T+v U+V+W+X+Y+Z+`+ @.@+@@@#@$@%@&@*@=@U+z+T+  ",
"  -@;@>@,@'@)@!@~@{@]@^@/@]@(@_@:@<@[@}@>@|@-@  ",
"  1@2@3@4@5@6@7@8@9@0@a@b@c@d@e@f@g@h@i@j@2@1@  ",
"  k@l@m@n@o@p@q@r@s@t@u@u@v@w@r@x@y@z@A@m@l@k@  ",
"  B@f C@D@D@} } 2@2@2@2@2@2@2@2@} } D@D@C@f B@  ",
"  E@F@++++I.G@O n.H@4.I@I@4.H@n.O G@I.++++F@E@  ",
"    J@K@L@L@M@N@O@P@Q@R@R@Q@P@O@N@M@L@L@K@J@    ",
"                                                "};
