/* XPM */
static char * bottom_right_active_xpm[] = {
"16 16 2 1",
" 	c None",
".	c #0A4ABA s active_color_1",
"            ....",
"            ....",
"            ....",
"            ....",
"            ....",
"            ....",
"            ....",
"            ....",
"            ....",
"            ....",
"            ....",
"            ....",
"................",
"................",
"................",
"................"};
