/* XPM */
static char * bottom_left_inactive_xpm[] = {
"13 13 2 1",
" 	c None",
".	c #0A4ABA s inactive_color_1",
"....         ",
"....         ",
"....         ",
"....         ",
"....         ",
"....         ",
"....         ",
"....         ",
"....         ",
".............",
".............",
".............",
"............."};
