/* XPM */
static char * bottom_left_active_xpm[] = {
"13 13 2 1",
" 	c None",
".	c #0A4ABA s active_color_1",
"....         ",
"....         ",
"....         ",
"....         ",
"....         ",
"....         ",
"....         ",
"....         ",
"....         ",
".............",
".............",
".............",
"............."};
