/* XPM */
static char * maximize_toggled_active_xpm[] = {
"20 22 3 1",
" 	c None",
".	c #FFFFFF s active_text_color",
"+	c #0A4ABA s active_color_1",
"                    ",
"                    ",
"  ................  ",
" .++++++++++++++++. ",
".++++++++++++++++++.",
".++++++++++++++++++.",
".++++++++++++++++++.",
".+++++++.......++++.",
".+++++++.......++++.",
".+++++++.+++++.++++.",
".+++++++++++++.++++.",
".++++.......++.++++.",
".++++.......+..++++.",
".++++.+++++.+++++++.",
".++++.+++++.+++++++.",
".++++.+++++.+++++++.",
".++++.......+++++++.",
".++++++++++++++++++.",
".++++++++++++++++++.",
".++++++++++++++++++.",
" .++++++++++++++++. ",
"  ................  "};
