/* XPM */
static char * menu_inactive_xpm[] = {
"20 30 2 1",
" 	c None",
".	c #0A4ABA s inactive_color_1",
"                    ",
"                    ",
"                    ",
"                    ",
"                    ",
"....................",
"....................",
"....................",
"....................",
"....................",
"....................",
"....................",
"....................",
"....................",
"....................",
"....................",
"....................",
"....................",
"....................",
"....................",
"....................",
"....................",
"....................",
"....................",
"....................",
"                    ",
"                    ",
"                    ",
"                    ",
"                    "}:
