<?xml version="1.0" encoding="utf-8"?>
<!-- Generator: Adobe Illustrator 23.0.0, SVG Export Plug-In . SVG Version: 6.00 Build 0)  -->
<svg version="1.1" id="레이어_1" xmlns="http://www.w3.org/2000/svg" xmlns:xlink="http://www.w3.org/1999/xlink" x="0px"
	 y="0px" viewBox="0 0 16 16" style="enable-background:new 0 0 16 16;" xml:space="preserve">
<style type="text/css">
	.st0{opacity:0.7;fill:#DEDEDE;}
	.st1{opacity:0.9;fill:#DEDEDE;}
	.st2{fill:#DEDEDE;}
	.st3{opacity:0.48;fill:#DEDEDE;}
	.st4{opacity:0.6;fill:#DEDEDE;}
	.st5{opacity:0.4;fill:#DEDEDE;}
</style>
<g>
	<path class="st0" d="M12.8,13.9c0.1-0.1,0.3-0.2,0.6-0.4c0.2-0.2,0.4-0.4,0.4-0.6c0.4-0.7,0.9-1.6,1-1.8c0.1-0.2,0.1-0.4,0.2-0.6
		c0-0.2,0-0.3,0.1-0.4c-1.5,0-2.9,0-4.4,0C11.3,11.4,12,12.7,12.8,13.9z"/>
	<path class="st1" d="M5.5,10.1c-1.5,0-3,0-4.4,0c0,0.1,0,0.2,0,0.2c0,0,0,0,0,0c0,0,0,0,0,0c0,0,0,0.1,0,0.1c0,0,0,0.1,0,0.1
		c0.4,0.8,0.8,1.6,1.2,2.4c0.1,0.1,0.1,0.2,0.2,0.3c0,0,0,0,0,0c0.1,0.1,0.2,0.2,0.4,0.4C3,13.9,3.1,14,3.2,14
		C4,12.7,4.7,11.4,5.5,10.1z"/>
	<path class="st2" d="M9.6,1.8c-0.4,0-1.5,0-2.9,0c0,0,0,0,0,0c0,0-0.1,0-0.1,0c-0.1,0-0.3,0-0.5,0.1C6,1.9,5.9,1.9,5.9,2
		C6.6,3.2,7.3,4.5,8,5.7C8.8,4.5,9.5,3.2,10.2,2C10,1.9,9.8,1.8,9.6,1.8z"/>
	<path class="st3" d="M10.6,10.1c-1.7,0-3.4,0-5.1,0C4.7,11.4,4,12.7,3.2,14c0.1,0.1,0.2,0.1,0.4,0.2c0.2,0,0.3,0.1,0.4,0.1h7.6
		c0.1,0,0.3,0,0.6-0.1c0.2-0.1,0.4-0.1,0.5-0.2C12.1,12.7,11.3,11.4,10.6,10.1z"/>
	<path class="st4" d="M5.5,10.1C6.3,8.7,7.2,7.2,8,5.7C7.3,4.5,6.6,3.3,5.9,2C5.9,2,6,2,6,1.9c0,0,0,0,0,0C5.7,2.1,5.4,2.5,5.4,2.5
		c-0.2,0.3-1.9,3.1-4.2,7c0,0.1-0.1,0.2-0.1,0.3c0,0.1,0,0.3-0.1,0.4C2.5,10.1,4,10.1,5.5,10.1z"/>
	<path class="st5" d="M10.6,10.1C10.6,10.1,10.6,10.1,10.6,10.1c1.5,0,2.9,0,4.4,0c0-0.1,0-0.3-0.1-0.5c0-0.1-0.1-0.2-0.1-0.3
		c-1.2-2.1-2.5-4.2-3.7-6.3c-0.1-0.2-0.3-0.6-0.8-1c-0.1,0-0.1-0.1-0.2-0.1c0,0,0,0,0,0C9.5,3.3,8.8,4.5,8,5.7
		C8.9,7.2,9.7,8.7,10.6,10.1z"/>
</g>
</svg>
