<?xml version="1.0" encoding="UTF-8" standalone="no"?>
<!-- Created with Inkscape (http://www.inkscape.org/) -->

<svg
   xmlns:dc="http://purl.org/dc/elements/1.1/"
   xmlns:cc="http://creativecommons.org/ns#"
   xmlns:rdf="http://www.w3.org/1999/02/22-rdf-syntax-ns#"
   xmlns:svg="http://www.w3.org/2000/svg"
   xmlns="http://www.w3.org/2000/svg"
   xmlns:sodipodi="http://sodipodi.sourceforge.net/DTD/sodipodi-0.dtd"
   xmlns:inkscape="http://www.inkscape.org/namespaces/inkscape"
   width="16"
   height="16"
   viewBox="0 0 4.2333332 4.2333335"
   version="1.1"
   id="svg847"
   inkscape:version="0.92.5 (2060ec1f9f, 2020-04-08)"
   sodipodi:docname="user-home-symbolic.svg">
  <defs
     id="defs841" />
  <sodipodi:namedview
     id="base"
     pagecolor="#ffffff"
     bordercolor="#666666"
     borderopacity="1.0"
     inkscape:pageopacity="0.0"
     inkscape:pageshadow="2"
     inkscape:zoom="5.6"
     inkscape:cx="77.482883"
     inkscape:cy="17.027275"
     inkscape:document-units="mm"
     inkscape:current-layer="layer1"
     showgrid="false"
     units="px"
     inkscape:window-width="1920"
     inkscape:window-height="1008"
     inkscape:window-x="0"
     inkscape:window-y="0"
     inkscape:window-maximized="1" />
  <metadata
     id="metadata844">
    <rdf:RDF>
      <cc:Work
         rdf:about="">
        <dc:format>image/svg+xml</dc:format>
        <dc:type
           rdf:resource="http://purl.org/dc/dcmitype/StillImage" />
        <dc:title></dc:title>
      </cc:Work>
    </rdf:RDF>
  </metadata>
  <g
     inkscape:label="Layer 1"
     inkscape:groupmode="layer"
     id="layer1"
     transform="translate(0,-292.76665)">
    <path
       inkscape:connector-curvature="0"
       class="st1"
       d="m 3.5824581,294.45278 c -0.4180416,-0.35925 -0.8360832,-0.71847 -1.2541249,-1.07772 -0.1217084,-0.10565 -0.301625,-0.10565 -0.4233335,0 -0.4180416,0.35925 -0.836083,0.71847 -1.25412485,1.07772 -0.0740828,0.0634 -0.12170818,0.15848 -0.12170818,0.26413 v 1.15167 c 0,0.33281 0.25929159,0.60224 0.58208323,0.60224 h 0.4497917 v -1.31543 c 0,-0.14791 0.1217082,-0.26941 0.2698749,-0.26941 h 0.5715 c 0.1481667,0 0.2698751,0.1215 0.2698751,0.26941 v 1.31015 h 0.4497916 c 0.3227918,0 0.5820834,-0.26943 0.5820834,-0.60225 v -1.15166 c -0.00529,-0.095 -0.047625,-0.19018 -0.1217085,-0.25885 z"
       id="path18"
       style="stroke-width:0.05287255;fill-opacity:0.97131145;fill:#dedede" />
  </g>
</svg>
