<svg width="32" height="32" viewBox="0 0 32 32" fill="none" xmlns="http://www.w3.org/2000/svg">
<rect x="4" y="3" width="25" height="25" rx="4" fill="#FF598B"/>
<path d="M17 3H25C27.2091 3 29 4.79086 29 7V15H21C18.7909 15 17 13.2091 17 11V3Z" fill="#F9F9F9"/>
<path d="M19.8 7.39998C19.8 7.1878 19.8843 6.98432 20.0343 6.83429C20.1843 6.68426 20.3878 6.59998 20.6 6.59998H22.6L23.4 7.39998H25.4C25.6122 7.39998 25.8156 7.48426 25.9657 7.63429C26.1157 7.78432 26.2 7.9878 26.2 8.19998V10.6C26.2 10.8121 26.1157 11.0156 25.9657 11.1657C25.8156 11.3157 25.6122 11.4 25.4 11.4H20.6C20.3878 11.4 20.1843 11.3157 20.0343 11.1657C19.8843 11.0156 19.8 10.8121 19.8 10.6V7.39998Z" fill="#FF598B"/>
</svg>
