<svg width="32" height="32" viewBox="0 0 32 32" fill="none" xmlns="http://www.w3.org/2000/svg">
<rect x="4" y="3" width="25" height="25" rx="4" fill="#B467F9"/>
<path d="M17 3H25C27.2091 3 29 4.79086 29 7V15H21C18.7909 15 17 13.2091 17 11V3Z" fill="#F9F9F9"/>
<path fill-rule="evenodd" clip-rule="evenodd" d="M20.6 6.20001C20.3878 6.20001 20.1843 6.2843 20.0343 6.43433C19.8843 6.58436 19.8 6.78784 19.8 7.00001V11C19.8 11.2122 19.8843 11.4157 20.0343 11.5657C20.1843 11.7157 20.3878 11.8 20.6 11.8H25.4C25.6122 11.8 25.8156 11.7157 25.9657 11.5657C26.1157 11.4157 26.2 11.2122 26.2 11V7.00001C26.2 6.78784 26.1157 6.58436 25.9657 6.43433C25.8156 6.2843 25.6122 6.20001 25.4 6.20001H20.6ZM25.4 11H20.6L22.2 7.80001L23.4 10.2L24.2 8.60001L25.4 11Z" fill="#B467F9"/>
</svg>
