<svg width="32" height="32" viewBox="0 0 32 32" fill="none" xmlns="http://www.w3.org/2000/svg">
<rect x="4" y="3" width="25" height="25" rx="4" fill="#1FE0A6"/>
<path d="M17 3H25C27.2091 3 29 4.79086 29 7V15H21C18.7909 15 17 13.2091 17 11V3Z" fill="#F9F9F9"/>
<path d="M26.2 6.19999C26.2 6.14083 26.1868 6.08242 26.1615 6.02896C26.1362 5.9755 26.0993 5.92833 26.0535 5.89083C26.0078 5.85334 25.9543 5.82646 25.8969 5.81214C25.8395 5.79781 25.7796 5.7964 25.7216 5.80799L21.7216 6.60799C21.631 6.62611 21.5494 6.67506 21.4908 6.74652C21.4321 6.81799 21.4001 6.90755 21.4 6.99999V10.6456C21.2689 10.615 21.1347 10.5997 21 10.6C20.3372 10.6 19.8 10.958 19.8 11.4C19.8 11.842 20.3372 12.2 21 12.2C21.6628 12.2 22.2 11.842 22.2 11.4V8.12799L25.4 7.48799V9.84559C25.2689 9.81504 25.1347 9.79973 25 9.79999C24.3372 9.79999 23.8 10.158 23.8 10.6C23.8 11.042 24.3372 11.4 25 11.4C25.6628 11.4 26.2 11.042 26.2 10.6V6.19999Z" fill="#1FE0A6"/>
</svg>
