<svg width="32" height="32" viewBox="0 0 32 32" fill="none" xmlns="http://www.w3.org/2000/svg">
<rect x="4" y="3" width="25" height="25" rx="4" fill="#FF886A"/>
<path d="M17 3H25C27.2091 3 29 4.79086 29 7V15H21C18.7909 15 17 13.2091 17 11V3Z" fill="#F9F9F9"/>
<path fill-rule="evenodd" clip-rule="evenodd" d="M19.8 8.80001C19.8 9.17131 19.9475 9.52741 20.2101 9.78996C20.4726 10.0525 20.8287 10.2 21.2 10.2H22.6V11.2344L22.0828 10.7172C22.0074 10.6443 21.9063 10.604 21.8015 10.6049C21.6966 10.6059 21.5963 10.6479 21.5221 10.7221C21.4479 10.7962 21.4059 10.8966 21.4049 11.0014C21.404 11.1063 21.4444 11.2074 21.5172 11.2828L22.7172 12.4828C22.7922 12.5578 22.894 12.5999 23 12.5999C23.1061 12.5999 23.2078 12.5578 23.2828 12.4828L24.4828 11.2828C24.5557 11.2074 24.596 11.1063 24.5951 11.0014C24.5942 10.8966 24.5521 10.7962 24.4779 10.7221C24.4038 10.6479 24.3035 10.6059 24.1986 10.6049C24.0937 10.604 23.9927 10.6443 23.9172 10.7172L23.4 11.2344V10.2H24.4C24.6467 10.1999 24.8907 10.149 25.117 10.0506C25.3432 9.95221 25.5468 9.80836 25.7151 9.62798C25.8833 9.44761 26.0128 9.23457 26.0953 9.00209C26.1778 8.7696 26.2117 8.52264 26.1947 8.27652C26.1778 8.03041 26.1105 7.7904 25.9969 7.5714C25.8833 7.3524 25.726 7.15908 25.5346 7.00344C25.3432 6.84781 25.1218 6.73317 24.8843 6.66666C24.6467 6.60015 24.398 6.58318 24.1536 6.61681C24.1064 6.40824 24.0178 6.21126 23.8932 6.03748C23.7686 5.8637 23.6104 5.71666 23.428 5.60503C23.2456 5.4934 23.0427 5.41945 22.8312 5.38755C22.6197 5.35564 22.404 5.36643 22.1968 5.41927C21.9896 5.47211 21.7951 5.56593 21.6247 5.6952C21.4544 5.82446 21.3116 5.98655 21.205 6.1719C21.0983 6.35724 21.0298 6.56208 21.0036 6.77432C20.9774 6.98655 20.994 7.20189 21.0524 7.40761C20.7086 7.44406 20.3904 7.60648 20.1591 7.86357C19.9279 8.12066 19.8 8.45423 19.8 8.80001V8.80001ZM23.4 10.2H22.6V8.20001C22.6 8.09392 22.6422 7.99218 22.7172 7.91717C22.7922 7.84215 22.8939 7.80001 23 7.80001C23.1061 7.80001 23.2078 7.84215 23.2829 7.91717C23.3579 7.99218 23.4 8.09392 23.4 8.20001V10.2Z" fill="#FF886A"/>
</svg>
