<svg width="32" height="32" viewBox="0 0 32 32" fill="none" xmlns="http://www.w3.org/2000/svg">
<rect x="4" y="4" width="24" height="20.4706" rx="3" fill="#E4D4F6"/>
<g filter="url(#filter0_d)">
<rect x="8.26669" y="8.26664" width="16" height="16" rx="1" fill="#F9F9F9"/>
</g>
<rect x="9.2196" y="9.21963" width="11.2" height="0.533333" fill="#C4C4C4"/>
<rect x="9.21964" y="15.6196" width="11.7333" height="0.533333" fill="#C4C4C4"/>
<rect x="9.21964" y="14.553" width="9.06667" height="0.533333" fill="#C4C4C4"/>
<rect x="9.21964" y="13.4863" width="10.6667" height="0.533333" fill="#C4C4C4"/>
<rect x="9.21964" y="12.4196" width="13.8667" height="0.533333" fill="#C4C4C4"/>
<rect x="9.21964" y="11.3529" width="10.6667" height="0.533333" fill="#C4C4C4"/>
<rect x="9.21964" y="10.2863" width="12.8" height="0.533333" fill="#C4C4C4"/>
<path d="M4 18H28V25C28 26.6569 26.6569 28 25 28H7C5.34315 28 4 26.6569 4 25V18Z" fill="#CA97F5"/>
<defs>
<filter id="filter0_d" x="3.26669" y="3.26664" width="26" height="26" filterUnits="userSpaceOnUse" color-interpolation-filters="sRGB">
<feFlood flood-opacity="0" result="BackgroundImageFix"/>
<feColorMatrix in="SourceAlpha" type="matrix" values="0 0 0 0 0 0 0 0 0 0 0 0 0 0 0 0 0 0 127 0" result="hardAlpha"/>
<feOffset/>
<feGaussianBlur stdDeviation="2.5"/>
<feColorMatrix type="matrix" values="0 0 0 0 0 0 0 0 0 0 0 0 0 0 0 0 0 0 0.11 0"/>
<feBlend mode="normal" in2="BackgroundImageFix" result="effect1_dropShadow"/>
<feBlend mode="normal" in="SourceGraphic" in2="effect1_dropShadow" result="shape"/>
</filter>
</defs>
</svg>
