<svg width="32" height="32" viewBox="0 0 32 32" fill="none" xmlns="http://www.w3.org/2000/svg">
<rect x="4" y="3" width="25" height="25" rx="4" fill="#36ADFB"/>
<path d="M17 3H25C27.2091 3 29 4.79086 29 7V15H21C18.7909 15 17 13.2091 17 11V3Z" fill="#F9F9F9"/>
<path fill-rule="evenodd" clip-rule="evenodd" d="M20.6 6.59999C20.6 6.38781 20.6843 6.18433 20.8343 6.0343C20.9844 5.88427 21.1879 5.79999 21.4 5.79999H23.2344C23.4466 5.80003 23.65 5.88435 23.8 6.03439L25.1656 7.39999C25.3157 7.54998 25.4 7.75343 25.4 7.96559V11.4C25.4 11.6122 25.3157 11.8156 25.1657 11.9657C25.0157 12.1157 24.8122 12.2 24.6 12.2H21.4C21.1879 12.2 20.9844 12.1157 20.8343 11.9657C20.6843 11.8156 20.6 11.6122 20.6 11.4V6.59999ZM21.4 8.99999C21.4 8.8939 21.4422 8.79216 21.5172 8.71714C21.5922 8.64213 21.6939 8.59999 21.8 8.59999H24.2C24.3061 8.59999 24.4079 8.64213 24.4829 8.71714C24.5579 8.79216 24.6 8.8939 24.6 8.99999C24.6 9.10607 24.5579 9.20782 24.4829 9.28283C24.4079 9.35784 24.3061 9.39999 24.2 9.39999H21.8C21.6939 9.39999 21.5922 9.35784 21.5172 9.28283C21.4422 9.20782 21.4 9.10607 21.4 8.99999ZM21.8 10.2C21.6939 10.2 21.5922 10.2421 21.5172 10.3171C21.4422 10.3922 21.4 10.4939 21.4 10.6C21.4 10.7061 21.4422 10.8078 21.5172 10.8828C21.5922 10.9578 21.6939 11 21.8 11H24.2C24.3061 11 24.4079 10.9578 24.4829 10.8828C24.5579 10.8078 24.6 10.7061 24.6 10.6C24.6 10.4939 24.5579 10.3922 24.4829 10.3171C24.4079 10.2421 24.3061 10.2 24.2 10.2H21.8Z" fill="#36ADFB"/>
</svg>
