<svg width="32" height="32" viewBox="0 0 32 32" fill="none" xmlns="http://www.w3.org/2000/svg">
<rect x="4" y="3" width="25" height="25" rx="4" fill="#FE7CBD"/>
<path d="M17 3H25C27.2091 3 29 4.79086 29 7V15H21C18.7909 15 17 13.2091 17 11V3Z" fill="#F9F9F9"/>
<path d="M23.2828 5.91722C23.2078 5.84224 23.1061 5.80011 23 5.80011C22.894 5.80011 22.7922 5.84224 22.7172 5.91722L19.9172 8.71722C19.8444 8.79266 19.804 8.89371 19.8049 8.99858C19.8059 9.10346 19.8479 9.20379 19.9221 9.27795C19.9963 9.35211 20.0966 9.39418 20.2015 9.39509C20.3063 9.396 20.4074 9.35569 20.4828 9.28282L20.6 9.16562V11.8C20.6 11.9061 20.6422 12.0079 20.7172 12.0829C20.7922 12.1579 20.8939 12.2 21 12.2H21.8C21.9061 12.2 22.0078 12.1579 22.0829 12.0829C22.1579 12.0079 22.2 11.9061 22.2 11.8V11C22.2 10.8939 22.2422 10.7922 22.3172 10.7172C22.3922 10.6422 22.4939 10.6 22.6 10.6H23.4C23.5061 10.6 23.6078 10.6422 23.6829 10.7172C23.7579 10.7922 23.8 10.8939 23.8 11V11.8C23.8 11.9061 23.8422 12.0079 23.9172 12.0829C23.9922 12.1579 24.0939 12.2 24.2 12.2H25C25.1061 12.2 25.2078 12.1579 25.2829 12.0829C25.3579 12.0079 25.4 11.9061 25.4 11.8V9.16562L25.5172 9.28282C25.5927 9.35569 25.6937 9.396 25.7986 9.39509C25.9035 9.39418 26.0038 9.35211 26.0779 9.27795C26.1521 9.20379 26.1942 9.10346 26.1951 8.99858C26.196 8.89371 26.1557 8.79266 26.0828 8.71722L23.2828 5.91722V5.91722Z" fill="#FE7CBD"/>
</svg>
