<?xml version="1.0" encoding="UTF-8" standalone="no"?>
<!-- Created with Inkscape (http://www.inkscape.org/) -->

<svg
   xmlns:svg="http://www.w3.org/2000/svg"
   xmlns="http://www.w3.org/2000/svg"
   xmlns:xlink="http://www.w3.org/1999/xlink"
   version="1.2"
   width="96"
   height="96"
   id="svg2408">
  <defs
     id="defs2410">
    <linearGradient
       id="linearGradient3671">
      <stop
         id="stop3673"
         style="stop-color:#52802d;stop-opacity:1"
         offset="0" />
      <stop
         id="stop3675"
         style="stop-color:#52802d;stop-opacity:0.47058824"
         offset="1" />
    </linearGradient>
    <linearGradient
       id="linearGradient3348">
      <stop
         id="stop3350"
         style="stop-color:#95c070;stop-opacity:1"
         offset="0" />
      <stop
         id="stop3356"
         style="stop-color:#52802d;stop-opacity:1"
         offset="0.71691591" />
      <stop
         id="stop3352"
         style="stop-color:#52802d;stop-opacity:1"
         offset="1" />
    </linearGradient>
    <linearGradient
       id="linearGradient3187">
      <stop
         id="stop3189"
         style="stop-color:#52802d;stop-opacity:1"
         offset="0" />
      <stop
         id="stop3191"
         style="stop-color:#95c070;stop-opacity:1"
         offset="1" />
    </linearGradient>
    <linearGradient
       x1="45.447727"
       y1="80.471962"
       x2="45.447727"
       y2="7.0165396"
       id="ButtonShadow"
       gradientUnits="userSpaceOnUse"
       gradientTransform="matrix(1.0058652,0,0,0.994169,0,12)">
      <stop
         id="stop3750"
         style="stop-color:#000000;stop-opacity:1"
         offset="0" />
      <stop
         id="stop3752"
         style="stop-color:#000000;stop-opacity:0.58823532"
         offset="1" />
    </linearGradient>
    <linearGradient
       id="linearGradient3737">
      <stop
         id="stop3739"
         style="stop-color:#ffffff;stop-opacity:1"
         offset="0" />
      <stop
         id="stop3741"
         style="stop-color:#ffffff;stop-opacity:0"
         offset="1" />
    </linearGradient>
    <filter
       color-interpolation-filters="sRGB"
       id="filter3174">
      <feGaussianBlur
         id="feGaussianBlur3176"
         stdDeviation="1.71" />
    </filter>
    <linearGradient
       x1="36.357143"
       y1="18"
       x2="36.357143"
       y2="73.994667"
       id="linearGradient3188"
       xlink:href="#linearGradient3737"
       gradientUnits="userSpaceOnUse" />
    <linearGradient
       x1="23.607143"
       y1="6"
       x2="23.607143"
       y2="58.466385"
       id="linearGradient4010"
       xlink:href="#linearGradient3737"
       gradientUnits="userSpaceOnUse" />
    <linearGradient
       x1="45.447727"
       y1="80.471962"
       x2="45.447727"
       y2="5.297224"
       id="linearGradient4018"
       xlink:href="#ButtonShadow"
       gradientUnits="userSpaceOnUse"
       gradientTransform="matrix(1.0058652,0,0,0.994169,0,12)" />
    <linearGradient
       x1="34.85965"
       y1="17.736111"
       x2="34.85965"
       y2="32.012737"
       id="linearGradient4023"
       xlink:href="#linearGradient3348"
       gradientUnits="userSpaceOnUse"
       gradientTransform="matrix(0.72,0,0,0.72,1.92,-5.52)" />
    <clipPath
       id="clipPath4029">
      <path
         d="m 48,35.96875 c -11.624335,0 -22.145733,4.723533 -29.75,12.34375 l 4.28125,4.28125 C 29.05391,46.055178 38.064521,41.999999 48,42 c 9.93548,0 18.946089,4.055178 25.46875,10.59375 L 77.75,48.3125 C 70.145733,40.692283 59.624334,35.968749 48,35.96875 z M 48,48 c -8.312357,0 -15.825435,3.371953 -21.25,8.8125 l 4.28125,4.28125 C 35.379447,56.729631 41.376522,54 48,54 c 6.623478,0 12.620553,2.729631 16.96875,7.09375 L 69.25,56.8125 C 63.825435,51.371953 56.312358,48.000001 48,48 z m 0,12 c -5.000339,0 -9.524911,2.008927 -12.78125,5.28125 L 39.5,69.5625 C 41.677915,67.368689 44.688584,66.000001 48,66 c 3.311415,0 6.322085,1.368689 8.5,3.5625 l 4.28125,-4.28125 C 57.524911,62.008927 53.000339,60 48,60 z m 0,12 c -1.672407,0 -3.168436,0.668436 -4.25,1.75 L 48,78 52.25,73.75 C 51.168436,72.668437 49.672405,71.999998 48,72 z"
         id="path4031"
         style="fill:#ffffff;fill-opacity:1;fill-rule:nonzero;stroke:none" />
    </clipPath>
    <filter
       color-interpolation-filters="sRGB"
       id="filter4054">
      <feGaussianBlur
         id="feGaussianBlur4056"
         stdDeviation="0.77648438" />
    </filter>
    <clipPath
       id="clipPath3252">
      <path
         d="m 48,38 c -0.87358,0 -1.73569,0.03247 -2.59375,0.09375 -0.85688,0.06175 -1.71097,0.158494 -2.5625,0.28125 -0.57113,0.08233 -1.15136,0.171472 -1.71875,0.28125 -0.56739,0.109778 -1.12492,0.237777 -1.6875,0.375 -0.56258,0.137223 -1.1308,0.304082 -1.6875,0.46875 -0.14646,0.04353 -0.29182,0.07966 -0.4375,0.125 -0.40988,0.126913 -0.81274,0.264367 -1.21875,0.40625 -0.2386,0.08373 -0.48248,0.161418 -0.71875,0.25 -0.46569,0.174595 -0.91867,0.369384 -1.375,0.5625 -0.38854,0.163706 -0.77251,0.322049 -1.15625,0.5 -0.14774,0.06876 -0.29085,0.148055 -0.4375,0.21875 -0.45962,0.220779 -0.92319,0.446077 -1.375,0.6875 -0.06142,0.03292 -0.12629,0.06048 -0.1875,0.09375 C 30.46,42.551718 30.0963,42.777066 29.71875,43 c -0.266,0.157318 -0.5197,0.33609 -0.78125,0.5 -0.35154,0.219995 -0.71711,0.422958 -1.0625,0.65625 -0.02419,0.01634 -0.03836,0.0461 -0.0625,0.0625 -0.43311,0.294075 -0.85851,0.591215 -1.28125,0.90625 -0.09514,0.07088 -0.18683,0.146952 -0.28125,0.21875 -0.36143,0.27498 -0.74059,0.52202 -1.09375,0.8125 -0.2137,0.175524 -0.41545,0.350945 -0.625,0.53125 -0.22023,0.18953 -0.43959,0.398016 -0.65625,0.59375 -0.0221,0.01999 -0.04045,0.04246 -0.0625,0.0625 -0.42628,0.387466 -0.84275,0.8115 -1.25,1.21875 l 4.21875,4.21875 C 32.21125,47.35125 39.72,44 48,44 c 8.28,0 15.78875,3.35125 21.21875,8.78125 L 73.4375,48.5625 c -0.40725,-0.40725 -0.82372,-0.831284 -1.25,-1.21875 -0.02205,-0.02004 -0.0404,-0.04251 -0.0625,-0.0625 -0.39593,-0.357685 -0.81107,-0.725534 -1.21875,-1.0625 -0.0624,-0.0515 -0.12475,-0.105161 -0.1875,-0.15625 -0.38967,-0.317753 -0.7879,-0.607267 -1.1875,-0.90625 -0.08365,-0.06257 -0.16579,-0.125639 -0.25,-0.1875 C 68.89886,44.687805 68.51575,44.420177 68.125,44.15625 67.78186,43.924364 67.41392,43.720228 67.0625,43.5 66.36873,43.065835 65.68436,42.632379 64.96875,42.25 64.00645,41.734262 63.01203,41.272038 62,40.84375 61.54368,40.650635 61.09069,40.455845 60.625,40.28125 59.84227,39.989048 59.04747,39.735885 58.25,39.5 57.6933,39.335333 57.12508,39.168473 56.5625,39.03125 55.99992,38.894027 55.44239,38.766028 54.875,38.65625 54.30761,38.546472 53.72738,38.457334 53.15625,38.375 c -0.48808,-0.07036 -0.97866,-0.137182 -1.46875,-0.1875 -0.35885,-0.03648 -0.73188,-0.06791 -1.09375,-0.09375 -0.25098,-0.01809 -0.49876,-0.04965 -0.75,-0.0625 -0.04157,-0.0021 -0.08339,0.002 -0.125,0 C 49.14335,38.003805 48.57594,38 48,38 z m 0,12 c -6.624,0 -12.62475,2.68725 -16.96875,7.03125 l 4.1875,4.1875 C 38.48745,57.950054 43.01229,55.9375 48,55.9375 c 4.98771,0 9.51255,2.012554 12.78125,5.28125 l 4.1875,-4.1875 C 60.62475,52.68725 54.624,49.999999 48,50 z m 0,12 c -3.312,0 -6.29675,1.35925 -8.46875,3.53125 L 48,74 56.46875,65.53125 C 54.29675,63.35925 51.312,61.999999 48,62 z"
         id="path3254"
         style="fill:#ffffff;fill-opacity:1;fill-rule:nonzero;stroke:none;display:inline" />
    </clipPath>
    <filter
       color-interpolation-filters="sRGB"
       id="filter3301">
      <feGaussianBlur
         id="feGaussianBlur3303"
         stdDeviation="0.6590625" />
    </filter>
    <linearGradient
       x1="48"
       y1="78"
       x2="48"
       y2="5.9877172"
       id="linearGradient3312"
       xlink:href="#linearGradient3187"
       gradientUnits="userSpaceOnUse"
       gradientTransform="translate(0,12)" />
    <linearGradient
       id="linearGradient3737-5">
      <stop
         id="stop3739-0"
         style="stop-color:#ffffff;stop-opacity:1"
         offset="0" />
      <stop
         id="stop3741-4"
         style="stop-color:#ffffff;stop-opacity:0"
         offset="1" />
    </linearGradient>
    <radialGradient
       cx="48"
       cy="90.171875"
       r="42"
       fx="48"
       fy="90.171875"
       id="radialGradient3662"
       xlink:href="#linearGradient3737-5"
       gradientUnits="userSpaceOnUse"
       gradientTransform="matrix(1.1573129,0,0,0.99590774,-7.551021,0.197132)" />
    <clipPath
       id="clipPath3692">
      <path
         d="m 52,16 c -3.324,0 -6,2.676 -6,6 l 0,60 c 0,3.324 2.676,6 6,6 l 72,0 c 3.324,0 6,-2.676 6,-6 l 0,-60 c 0,-3.324 -2.676,-6 -6,-6 l -72,0 z m 36,20 c 0.57594,0 1.14335,0.0038 1.71875,0.03125 0.04161,0.002 0.08343,-0.0021 0.125,0 0.25124,0.01285 0.49902,0.04441 0.75,0.0625 0.36187,0.02584 0.7349,0.05727 1.09375,0.09375 0.49009,0.05032 0.98067,0.117139 1.46875,0.1875 0.57113,0.08233 1.15136,0.171472 1.71875,0.28125 0.56739,0.109778 1.12492,0.237777 1.6875,0.375 0.56258,0.137223 1.1308,0.304083 1.6875,0.46875 0.79747,0.235885 1.59227,0.489048 2.375,0.78125 0.46569,0.174595 0.91868,0.369385 1.375,0.5625 1.01203,0.428288 2.00645,0.890512 2.96875,1.40625 0.71561,0.382379 1.39998,0.815835 2.09375,1.25 0.35142,0.220228 0.71936,0.424364 1.0625,0.65625 0.39075,0.263927 0.77386,0.531555 1.15625,0.8125 0.0842,0.06186 0.16635,0.124926 0.25,0.1875 0.3996,0.298983 0.79783,0.588497 1.1875,0.90625 0.0627,0.05109 0.1251,0.104747 0.1875,0.15625 0.40768,0.336966 0.82282,0.704815 1.21875,1.0625 0.0221,0.01999 0.0405,0.04246 0.0625,0.0625 0.42628,0.387466 0.84275,0.8115 1.25,1.21875 l -4.21875,4.21875 C 103.78875,45.35125 96.28,42 88,42 79.72,42 72.21125,45.35125 66.78125,50.78125 L 62.5625,46.5625 c 0.40725,-0.40725 0.82372,-0.831284 1.25,-1.21875 0.02205,-0.02004 0.0404,-0.04251 0.0625,-0.0625 0.21666,-0.195734 0.43602,-0.40422 0.65625,-0.59375 0.20955,-0.180305 0.4113,-0.355726 0.625,-0.53125 0.35316,-0.29048 0.73232,-0.53752 1.09375,-0.8125 0.09442,-0.0718 0.18611,-0.147866 0.28125,-0.21875 0.42274,-0.315035 0.84814,-0.612175 1.28125,-0.90625 0.02414,-0.0164 0.03831,-0.04616 0.0625,-0.0625 0.34539,-0.233292 0.71096,-0.436255 1.0625,-0.65625 0.26155,-0.16391 0.51525,-0.342682 0.78125,-0.5 0.37755,-0.222934 0.74125,-0.448282 1.125,-0.65625 0.06121,-0.03327 0.12608,-0.06083 0.1875,-0.09375 0.45181,-0.241423 0.91538,-0.466721 1.375,-0.6875 0.14665,-0.0707 0.28976,-0.149993 0.4375,-0.21875 0.38374,-0.177951 0.76771,-0.336294 1.15625,-0.5 0.45633,-0.193116 0.90931,-0.387905 1.375,-0.5625 0.23627,-0.08858 0.48015,-0.166275 0.71875,-0.25 0.40601,-0.141883 0.80887,-0.279337 1.21875,-0.40625 0.14568,-0.04534 0.29104,-0.08147 0.4375,-0.125 0.5567,-0.164668 1.12492,-0.331527 1.6875,-0.46875 0.56258,-0.137223 1.12011,-0.265222 1.6875,-0.375 0.56739,-0.109778 1.14762,-0.198916 1.71875,-0.28125 0.85153,-0.122756 1.70562,-0.219502 2.5625,-0.28125 C 86.26431,36.032467 87.12642,36 88,36 z m 0,12 c 6.624,-10e-7 12.62475,2.68725 16.96875,7.03125 l -4.1875,4.1875 C 97.51255,55.950054 92.98771,53.9375 88,53.9375 c -4.98771,0 -9.51255,2.012554 -12.78125,5.28125 l -4.1875,-4.1875 C 75.37525,50.68725 81.376,48 88,48 z m 0,12 c 3.312,-10e-7 6.29675,1.35925 8.46875,3.53125 L 88,72 79.53125,63.53125 C 81.70325,61.35925 84.688,60 88,60 z"
         id="path3694"
         style="fill:#ffffff;fill-opacity:1;fill-rule:nonzero;stroke:none" />
    </clipPath>
    <filter
       color-interpolation-filters="sRGB"
       id="filter3708">
      <feGaussianBlur
         id="feGaussianBlur3710"
         stdDeviation="0.79488062" />
    </filter>
    <clipPath
       id="clipPath3737">
      <path
         d="m 96.53125,25.65625 c -3.324,0 -6,2.676 -6,6 l 0,45.65625 c 0,3.324 2.676,6 6,6 l 63.1875,0 c 3.324,0 6,-2.676 6,-6 l 0,-45.65625 c 0,-3.324 -2.676,-6 -6,-6 l -63.1875,0 z M 128,34 c 10.74874,0 21.48649,4.11149 29.6875,12.3125 L 152.75,51.25 c -13.66835,-13.66835 -35.83165,-13.66835 -49.5,0 L 98.3125,46.3125 C 106.51351,38.11149 117.25126,34 128,34 z m 0,14 c 7.16582,0 14.34516,2.72016 19.8125,8.1875 l -4.96875,4.96875 c -8.20101,-8.20101 -21.48649,-8.20101 -29.6875,0 L 108.1875,56.1875 C 113.65484,50.72016 120.83418,48 128,48 z m 0,14 c 3.58291,0 7.17258,1.36008 9.90625,4.09375 L 128,76 118.09375,66.09375 C 120.82742,63.36008 124.41709,62 128,62 z"
         id="path3739"
         style="fill:#ff0000;fill-opacity:1;stroke:none" />
    </clipPath>
    <filter
       color-interpolation-filters="sRGB"
       id="filter3741">
      <feGaussianBlur
         id="feGaussianBlur3743"
         stdDeviation="0.7603125" />
    </filter>
    <clipPath
       id="clipPath3749">
      <path
         d="M 28,34 C 17.251263,34 6.51351,38.11149 -1.6875,46.3125 L 3.25,51.25 c 13.66835,-13.66835 35.83165,-13.66835 49.5,0 l 4.9375,-4.9375 C 49.48649,38.11149 38.748737,34 28,34 z m 0,14 c -7.165825,0 -14.34516,2.72016 -19.8125,8.1875 l 4.96875,4.96875 c 8.20101,-8.20101 21.48649,-8.20101 29.6875,0 L 47.8125,56.1875 C 42.34516,50.72016 35.165825,48 28,48 z m 0,14 c -3.582912,0 -7.17258,1.36008 -9.90625,4.09375 L 28,76 37.90625,66.09375 C 35.17258,63.36008 31.582912,62 28,62 z"
         id="path3751"
         style="opacity:0.5;fill:#ff0000;fill-opacity:1;stroke:none" />
    </clipPath>
    <filter
       color-interpolation-filters="sRGB"
       id="filter3765">
      <feGaussianBlur
         id="feGaussianBlur3767"
         stdDeviation="0.506875" />
    </filter>
    <linearGradient
       x1="53.13393"
       y1="76.60714"
       x2="53.13393"
       y2="33.928478"
       id="linearGradient2909"
       xlink:href="#linearGradient3671"
       gradientUnits="userSpaceOnUse"
       gradientTransform="translate(-100,0)" />
    <linearGradient
       x1="53.13393"
       y1="76.60714"
       x2="53.13393"
       y2="33.928478"
       id="linearGradient2917"
       xlink:href="#linearGradient3671"
       gradientUnits="userSpaceOnUse" />
    <clipPath
       id="clipPath3699">
      <path
         d="M 48,34 C 37.251263,34 26.51351,38.11149 18.3125,46.3125 L 23.25,51.25 c 13.66835,-13.66835 35.83165,-13.66835 49.5,0 l 4.9375,-4.9375 C 69.48649,38.11149 58.748737,34 48,34 z m 0,14 c -7.165825,0 -14.34516,2.72016 -19.8125,8.1875 l 4.96875,4.96875 c 8.20101,-8.20101 21.48649,-8.20101 29.6875,0 L 67.8125,56.1875 C 62.34516,50.72016 55.165825,48 48,48 z m 0,14 c -3.582912,0 -7.17258,1.36008 -9.90625,4.09375 L 48,76 57.90625,66.09375 C 55.17258,63.36008 51.582912,62 48,62 z"
         id="path3701"
         style="opacity:0.9;fill:url(#linearGradient3703);fill-opacity:1;stroke:none" />
    </clipPath>
    <linearGradient
       x1="53.13393"
       y1="76.60714"
       x2="53.13393"
       y2="33.928478"
       id="linearGradient3703"
       xlink:href="#linearGradient3671"
       gradientUnits="userSpaceOnUse" />
    <filter
       color-interpolation-filters="sRGB"
       id="filter3709">
      <feGaussianBlur
         id="feGaussianBlur3711"
         stdDeviation="0.506875" />
    </filter>
    <clipPath
       id="clipPath3724">
      <path
         d="m 98.84375,25.28125 c -3.324,0 -6,2.676 -6,6 l 0,47.28125 c 0,3.324 2.676,6 6,6 l 60.6875,0 c 3.324,0 6,-2.676 6,-6 l 0,-47.28125 c 0,-3.324 -2.676,-6 -6,-6 l -60.6875,0 z M 128,34 c 10.74874,0 21.48649,4.11149 29.6875,12.3125 L 152.75,51.25 c -13.66835,-13.66835 -35.83165,-13.66835 -49.5,0 L 98.3125,46.3125 C 106.51351,38.11149 117.25126,34 128,34 z m 0,14 c 7.16582,0 14.34516,2.72016 19.8125,8.1875 l -4.96875,4.96875 c -8.20101,-8.20101 -21.48649,-8.20101 -29.6875,0 L 108.1875,56.1875 C 113.65484,50.72016 120.83418,48 128,48 z m 0,14 c 3.58291,0 7.17258,1.36008 9.90625,4.09375 L 128,76 118.09375,66.09375 C 120.82742,63.36008 124.41709,62 128,62 z"
         id="path3726"
         style="opacity:0.3;fill:#ff0000;fill-opacity:1;stroke:none" />
    </clipPath>
    <filter
       color-interpolation-filters="sRGB"
       id="filter3728">
      <feGaussianBlur
         id="feGaussianBlur3730"
         stdDeviation="0.7603125" />
    </filter>
    <linearGradient
       x1="26.5"
       y1="90.312759"
       x2="26.5"
       y2="6.9171443"
       id="linearGradient3671-5"
       xlink:href="#ButtonShadow-4"
       gradientUnits="userSpaceOnUse" />
    <linearGradient
       x1="45.447727"
       y1="80.471962"
       x2="45.447727"
       y2="7.0165396"
       id="ButtonShadow-4"
       gradientUnits="userSpaceOnUse"
       gradientTransform="matrix(1.0058652,0,0,0.994169,0,12)">
      <stop
         id="stop3750-6"
         style="stop-color:#000000;stop-opacity:1"
         offset="0" />
      <stop
         id="stop3752-2"
         style="stop-color:#000000;stop-opacity:0.58823532"
         offset="1" />
    </linearGradient>
    <linearGradient
       x1="26.5"
       y1="90.312759"
       x2="26.5"
       y2="6.9171443"
       id="linearGradient3692"
       xlink:href="#ButtonShadow-4"
       gradientUnits="userSpaceOnUse"
       gradientTransform="matrix(1.0277778,0,0,1.0127315,-1.333333,0.03087956)" />
    <linearGradient
       x1="26.5"
       y1="90.312759"
       x2="26.5"
       y2="6.9171443"
       id="linearGradient3701"
       xlink:href="#ButtonShadow-4"
       gradientUnits="userSpaceOnUse"
       gradientTransform="matrix(1.0277778,0,0,1.0127315,-1.333333,0.03087963)" />
    <linearGradient
       x1="26.5"
       y1="90.312759"
       x2="26.5"
       y2="6.9171443"
       id="linearGradient3709"
       xlink:href="#ButtonShadow-4"
       gradientUnits="userSpaceOnUse"
       gradientTransform="matrix(1.0277778,0,0,1.0127315,-1.333333,0.03087963)" />
    <linearGradient
       x1="26.5"
       y1="90.312759"
       x2="26.5"
       y2="6.9171443"
       id="linearGradient2946"
       xlink:href="#ButtonShadow-4"
       gradientUnits="userSpaceOnUse"
       gradientTransform="matrix(1.0277778,0,0,1.0127315,-1.333333,0.03087963)" />
  </defs>
  <g
     id="layer2"
     style="display:none">
    <path
       d="M 14.96875,8.8028918 C 13.32891,8.8028918 12,10.085142 12,11.677892 L 12,19 c -3.324,0 -7,2.676 -7,6 l 0,61 c 0,3.324 2.676,6 6,6 l 74,0 c 3.324,0 6,-2.676 6,-6 l 0,-61 c 0,-3.324 -3.747429,-6 -7.071429,-6 l 0,-0.134608 c 0,-2.389125 -1.97774,-4.3125 -4.4375,-4.3125 l -43.334821,0 -1.46875,-2.875 C 33.954141,10.253293 33.35859,8.8028918 31.71875,8.8028918 l -16.75,0 z"
       id="rect3745"
       style="opacity:0.9;fill:url(#linearGradient4018);fill-opacity:1;fill-rule:nonzero;stroke:none;filter:url(#filter3174)" />
  </g>
  <g
     id="layer6"
     style="display:inline">
    <path
       d="M 13.96875,4 C 10.667823,4 7.875,6.6931198 7.875,10.03125 l 0,7.0625 c -3.4360632,1.560695 -6,4.840711 -6,8.90625 l 0,59 c 0,5.561299 4.5637001,10.125 10.125,10.125 l 72,0 c 5.561299,0 10.125,-4.563701 10.125,-10.125 l 0,-59 c 0,-4.090756 -2.593768,-7.389362 -6.0625,-8.9375 -0.160383,-3.993445 -3.473555,-7.21875 -7.5,-7.21875 l -42.5,0 L 37.4375,8.625 C 37.135051,8.028958 36.735432,7.0401877 35.9375,6.0625 35.034313,4.9558457 33.554045,4 31.71875,4 l -17.75,0 z"
       transform="matrix(0.99728997,0,0,0.99862826,0.13008131,0.00548696)"
       id="path3715"
       style="opacity:0.07999998;fill:url(#linearGradient2946);fill-opacity:1;fill-rule:nonzero;stroke:none;display:inline" />
    <path
       d="m 13.96875,4.96875 c -2.783187,0 -5.125,2.2572798 -5.125,5.0625 l 0,7.3125 0,0.3125 c -3.4368535,1.290325 -6,4.439736 -6,8.34375 l 0,59 c 0,5.039918 4.1163315,9.15625 9.15625,9.15625 l 72,0 c 5.039918,0 9.15625,-4.116332 9.15625,-9.15625 l 0,-59 c 0,-3.904014 -2.563147,-7.053425 -6,-8.34375 l 0,-0.3125 c 0,-3.602656 -2.985437,-6.53125 -6.59375,-6.53125 l -43.09375,0 -0.875,-1.75 C 36.26366,8.4119848 35.884179,7.5098749 35.1875,6.65625 34.437476,5.737263 33.22926,4.96875 31.71875,4.96875 l -17.75,0 z"
       transform="matrix(0.99653979,0,0,0.99789769,0.16609001,0.04169586)"
       id="path3707"
       style="opacity:0.1;fill:url(#linearGradient3709);fill-opacity:1;fill-rule:nonzero;stroke:none;display:inline" />
    <path
       d="M 13.96875,6 C 11.736726,6 9.875,7.7965069 9.875,10.03125 l 0,7.3125 0,0.96875 c -3.4279042,0.950944 -6,3.959493 -6,7.6875 l 0,59 c 0,4.483833 3.6411665,8.125 8.125,8.125 l 72,0 c 4.483833,0 8.125,-3.641167 8.125,-8.125 l 0,-59 c 0,-3.728007 -2.572096,-6.736556 -6,-7.6875 l 0,-0.96875 c 0,-3.037808 -2.505776,-5.5 -5.5625,-5.5 l -43.71875,0 -1.15625,-2.3125 C 35.33448,8.8355471 34.9882,8.0255499 34.40625,7.3125 33.8243,6.5994501 32.873904,6 31.71875,6 l -17.75,0 z"
       transform="matrix(0.99716714,0,0,0.99856528,0.13597731,0.00860826)"
       id="path3698"
       style="opacity:0.2;fill:url(#linearGradient3701);fill-opacity:1;fill-rule:nonzero;stroke:none;display:inline" />
    <path
       d="M 13.96875,7.125 C 12.32891,7.125 11,8.4154163 11,10.03125 l 0,7.3125 0,1.75 C 7.602692,19.579354 5,22.464233 5,26 l 0,59 c 0,3.878 3.122,7 7,7 l 72,0 c 3.878,0 7,-3.122 7,-7 l 0,-59 c 0,-3.535767 -2.602692,-6.420646 -6,-6.90625 l 0,-1.75 c 0,-2.42375 -1.97774,-4.375 -4.4375,-4.375 l -44.40625,0 -1.46875,-2.9375 C 33.954141,8.5860044 33.35859,7.125 31.71875,7.125 l -17.75,0 z"
       id="path3679"
       style="opacity:0.3;fill:url(#linearGradient3692);fill-opacity:1;fill-rule:nonzero;stroke:none;display:inline" />
    <path
       d="M 14.875,7 C 13.27948,7 12,8.27948 12,9.875 L 12,17.09375 12,19 c -3.324,0 -6,2.676 -6,6 l 0,60 c 0,3.324 2.676,6 6,6 l 72,0 c 3.324,0 6,-2.676 6,-6 l 0,-60 c 0,-3.324 -2.676,-6 -6,-6 l 0,-1.90625 C 84,14.70047 82.08078,12.75 79.6875,12.75 l -43.21875,0 -1.4375,-2.875 C 34.317712,8.4479235 33.75177,7 32.15625,7 L 14.875,7 z"
       id="path2885"
       style="opacity:0.45;fill:url(#linearGradient3671-5);fill-opacity:1;fill-rule:nonzero;stroke:none;display:inline" />
  </g>
  <g
     id="layer3"
     style="display:inline">
    <path
       d="M 14.88,6 C 13.28448,6 12,7.28448 12,8.88 l 0,7.2 0,50.4 0,4.32 c 0,2.39328 1.92672,4.32 4.32,4.32 l 63.36,0 c 2.39328,0 4.32,-1.92672 4.32,-4.32 l 0,-54.72 c 0,-2.39328 -1.92672,-4.32 -4.32,-4.32 l -43.2,0 -1.44,-2.88 C 34.326462,7.4529235 33.75552,6 32.16,6 L 14.88,6 z"
       id="rect3325"
       style="fill:url(#linearGradient4023);fill-opacity:1;fill-rule:nonzero;stroke:none;display:inline" />
    <path
       d="M 14.875,6 C 13.27948,6 12,7.27948 12,8.875 l 0,7.21875 0,50.375 0,4.34375 c 0,2.393277 1.91922,4.3125 4.3125,4.3125 l 63.375,0 C 82.08078,75.124997 84,73.20578 84,70.8125 L 84,16.09375 C 84,13.70047 82.08078,11.75 79.6875,11.75 l -43.21875,0 -1.4375,-2.875 C 34.317711,7.4479234 33.75177,6 32.15625,6 L 14.875,6 z m 0,1.9375 17.28125,0 c 0.48716,0 0.660447,0.1126732 0.96875,0.5 0.308303,0.3873268 0.629671,1.0718434 1,1.8125 l 1.4375,2.875 c 0.173379,0.341986 0.522842,0.558894 0.90625,0.5625 l 43.21875,0 c 1.835408,0 3.28125,1.468154 3.28125,3.3125 l 0,54.71875 c 0,1.844346 -1.436902,3.281248 -3.28125,3.28125 l -63.375,0 c -1.844346,0 -3.28125,-1.436907 -3.28125,-3.28125 l 0,-4.34375 0,-50.375 0,-7.21875 c 0,-1.0465864 0.797164,-1.84375 1.84375,-1.84375 z"
       id="path3997"
       style="opacity:0.3;fill:url(#linearGradient4010);fill-opacity:1;fill-rule:nonzero;stroke:none;display:inline" />
    <path
       d="m 48,35.96875 c -11.624335,0 -22.145733,4.723533 -29.75,12.34375 l 4.28125,4.28125 C 29.05391,46.055178 38.064521,41.999999 48,42 c 9.93548,0 18.946089,4.055178 25.46875,10.59375 L 77.75,48.3125 C 70.145733,40.692283 59.624334,35.968749 48,35.96875 z M 48,48 c -8.312357,0 -15.825435,3.371953 -21.25,8.8125 l 4.28125,4.28125 C 35.379447,56.729631 41.376522,54 48,54 c 6.623478,0 12.620553,2.729631 16.96875,7.09375 L 69.25,56.8125 C 63.825435,51.371953 56.312358,48.000001 48,48 z m 0,12 c -5.000339,0 -9.524911,2.008927 -12.78125,5.28125 L 39.5,69.5625 C 41.677915,67.368689 44.688584,66.000001 48,66 c 3.311415,0 6.322085,1.368689 8.5,3.5625 l 4.28125,-4.28125 C 57.524911,62.008927 53.000339,60 48,60 z m 0,12 c -1.672407,0 -3.168436,0.668436 -4.25,1.75 L 48,78 52.25,73.75 C 51.168436,72.668437 49.672405,71.999998 48,72 z"
       transform="translate(0,70)"
       clip-path="url(#clipPath4029)"
       id="path3973"
       style="opacity:0.8;fill:none;stroke:#664017;stroke-width:2;stroke-linecap:square;stroke-linejoin:miter;stroke-miterlimit:4;stroke-opacity:1;stroke-dasharray:none;stroke-dashoffset:0;filter:url(#filter4054)" />
  </g>
  <g
     id="layer1"
     style="display:inline">
    <path
       d="m 12,18 c -3.324,0 -6,2.676 -6,6 l 0,60 c 0,3.324 2.676,6 6,6 l 72,0 c 3.324,0 6,-2.676 6,-6 l 0,-60 c 0,-3.324 -2.676,-6 -6,-6 l -72,0 z"
       id="rect2419"
       style="fill:url(#linearGradient3312);fill-opacity:1;fill-rule:nonzero;stroke:none" />
    <path
       d="m 12,18 c -3.324,0 -6,2.676 -6,6 l 0,2 0,56 0,2 c 0,0.334721 0.04135,0.6507 0.09375,0.96875 0.0487,0.295596 0.09704,0.596915 0.1875,0.875 0.00988,0.03038 0.020892,0.0636 0.03125,0.09375 0.098865,0.287771 0.2348802,0.547452 0.375,0.8125 0.1445918,0.273507 0.3156161,0.535615 0.5,0.78125 0.1843839,0.245635 0.3737765,0.473472 0.59375,0.6875 0.439947,0.428056 0.94291,0.814526 1.5,1.09375 0.278545,0.139612 0.5734731,0.246947 0.875,0.34375 -0.2562018,-0.100222 -0.4867109,-0.236272 -0.71875,-0.375 -0.00741,-0.0044 -0.023866,0.0045 -0.03125,0 -0.031933,-0.0193 -0.062293,-0.04251 -0.09375,-0.0625 -0.120395,-0.0767 -0.2310226,-0.163513 -0.34375,-0.25 -0.1061728,-0.0808 -0.2132809,-0.161112 -0.3125,-0.25 C 8.4783201,88.557317 8.3087904,88.373362 8.15625,88.1875 8.0486711,88.057245 7.9378561,87.922215 7.84375,87.78125 7.818661,87.74287 7.805304,87.69538 7.78125,87.65625 7.716487,87.553218 7.6510225,87.451733 7.59375,87.34375 7.4927417,87.149044 7.3880752,86.928049 7.3125,86.71875 7.30454,86.69694 7.288911,86.6782 7.28125,86.65625 7.2494249,86.5643 7.2454455,86.469419 7.21875,86.375 7.1884177,86.268382 7.1483606,86.171969 7.125,86.0625 7.0521214,85.720988 7,85.364295 7,85 L 7,83 7,27 7,25 c 0,-2.781848 2.2181517,-5 5,-5 l 2,0 68,0 2,0 c 2.781848,0 5,2.218152 5,5 l 0,2 0,56 0,2 c 0,0.364295 -0.05212,0.720988 -0.125,1.0625 -0.04415,0.206893 -0.08838,0.397658 -0.15625,0.59375 -0.0077,0.02195 -0.0233,0.04069 -0.03125,0.0625 -0.06274,0.173739 -0.138383,0.367449 -0.21875,0.53125 -0.04158,0.0828 -0.07904,0.169954 -0.125,0.25 -0.0546,0.09721 -0.126774,0.18835 -0.1875,0.28125 -0.09411,0.140965 -0.204921,0.275995 -0.3125,0.40625 -0.143174,0.17445 -0.303141,0.346998 -0.46875,0.5 -0.01117,0.0102 -0.01998,0.02115 -0.03125,0.03125 -0.138386,0.125556 -0.285091,0.234436 -0.4375,0.34375 -0.102571,0.07315 -0.204318,0.153364 -0.3125,0.21875 -0.0074,0.0045 -0.02384,-0.0044 -0.03125,0 -0.232039,0.138728 -0.462548,0.274778 -0.71875,0.375 0.301527,-0.0968 0.596455,-0.204138 0.875,-0.34375 0.55709,-0.279224 1.060053,-0.665694 1.5,-1.09375 0.219973,-0.214028 0.409366,-0.441865 0.59375,-0.6875 0.184384,-0.245635 0.355408,-0.507743 0.5,-0.78125 0.14012,-0.265048 0.276135,-0.524729 0.375,-0.8125 0.01041,-0.03078 0.02133,-0.06274 0.03125,-0.09375 0.09046,-0.278085 0.1388,-0.579404 0.1875,-0.875 C 89.95865,84.6507 90,84.334721 90,84 l 0,-2 0,-56 0,-2 c 0,-3.324 -2.676,-6 -6,-6 l -72,0 z"
       id="rect3728"
       style="opacity:0.5;fill:url(#linearGradient3188);fill-opacity:1;fill-rule:nonzero;stroke:none" />
    <path
       d="M 12,90 C 8.676,90 6,87.324 6,84 L 6,82 6,26 6,24 c 0,-0.334721 0.04135,-0.6507 0.09375,-0.96875 0.0487,-0.295596 0.09704,-0.596915 0.1875,-0.875 0.00988,-0.03038 0.020892,-0.0636 0.03125,-0.09375 0.098865,-0.287771 0.2348802,-0.547452 0.375,-0.8125 0.1445918,-0.273507 0.3156161,-0.535615 0.5,-0.78125 0.1843839,-0.245635 0.3737765,-0.473472 0.59375,-0.6875 0.439947,-0.428056 0.94291,-0.814526 1.5,-1.09375 0.278545,-0.139612 0.5734731,-0.246947 0.875,-0.34375 -0.2562018,0.100222 -0.4867109,0.236272 -0.71875,0.375 -0.00741,0.0044 -0.023866,-0.0045 -0.03125,0 -0.031933,0.0193 -0.062293,0.04251 -0.09375,0.0625 -0.120395,0.0767 -0.2310226,0.163513 -0.34375,0.25 -0.1061728,0.0808 -0.2132809,0.161112 -0.3125,0.25 -0.1779299,0.161433 -0.3474596,0.345388 -0.5,0.53125 -0.1075789,0.130255 -0.2183939,0.265285 -0.3125,0.40625 -0.025089,0.03838 -0.038446,0.08587 -0.0625,0.125 -0.064763,0.103032 -0.1302275,0.204517 -0.1875,0.3125 -0.1010083,0.194706 -0.2056748,0.415701 -0.28125,0.625 C 7.30454,21.30306 7.288911,21.3218 7.28125,21.34375 7.2494249,21.4357 7.2454455,21.530581 7.21875,21.625 7.1884177,21.731618 7.1483606,21.828031 7.125,21.9375 7.0521214,22.279012 7,22.635705 7,23 l 0,2 0,56 0,2 c 0,2.781848 2.2181517,5 5,5 l 2,0 68,0 2,0 c 2.781848,0 5,-2.218152 5,-5 l 0,-2 0,-56 0,-2 c 0,-0.364295 -0.05212,-0.720988 -0.125,-1.0625 -0.04415,-0.206893 -0.08838,-0.397658 -0.15625,-0.59375 -0.0077,-0.02195 -0.0233,-0.04069 -0.03125,-0.0625 -0.06274,-0.173739 -0.138383,-0.367449 -0.21875,-0.53125 -0.04158,-0.0828 -0.07904,-0.169954 -0.125,-0.25 -0.0546,-0.09721 -0.126774,-0.18835 -0.1875,-0.28125 -0.09411,-0.140965 -0.204921,-0.275995 -0.3125,-0.40625 -0.143174,-0.17445 -0.303141,-0.346998 -0.46875,-0.5 -0.01117,-0.0102 -0.01998,-0.02115 -0.03125,-0.03125 -0.138386,-0.125556 -0.285091,-0.234436 -0.4375,-0.34375 -0.102571,-0.07315 -0.204318,-0.153364 -0.3125,-0.21875 -0.0074,-0.0045 -0.02384,0.0044 -0.03125,0 -0.232039,-0.138728 -0.462548,-0.274778 -0.71875,-0.375 0.301527,0.0968 0.596455,0.204138 0.875,0.34375 0.55709,0.279224 1.060053,0.665694 1.5,1.09375 0.219973,0.214028 0.409366,0.441865 0.59375,0.6875 0.184384,0.245635 0.355408,0.507743 0.5,0.78125 0.14012,0.265048 0.276135,0.524729 0.375,0.8125 0.01041,0.03078 0.02133,0.06274 0.03125,0.09375 0.09046,0.278085 0.1388,0.579404 0.1875,0.875 C 89.95865,23.3493 90,23.665279 90,24 l 0,2 0,56 0,2 c 0,3.324 -2.676,6 -6,6 l -72,0 z"
       id="path3615"
       style="opacity:0.2;fill:url(#radialGradient3662);fill-opacity:1;fill-rule:nonzero;stroke:none" />
    <rect
       width="16"
       height="16"
       rx="2"
       x="104"
       y="8"
       id="rect2942"
       style="fill:#0d6471;fill-opacity:1;stroke:#000000;stroke-width:0.2;stroke-miterlimit:4;stroke-dasharray:none;display:inline" />
    <flowRoot
       transform="translate(136.36243,0.2823802)"
       id="flowRoot3716"
       xml:space="preserve"
       style="font-size:4px;font-style:normal;font-variant:normal;font-weight:normal;font-stretch:normal;text-align:start;line-height:125%;writing-mode:lr-tb;text-anchor:start;fill:#000000;fill-opacity:1;stroke:none;display:inline;font-family:Liberation Sans;-inkscape-font-specification:Liberation Sans"><flowRegion
         id="flowRegion3718"><rect
           width="28.462757"
           height="15.489427"
           x="-12.462757"
           y="8.0485411"
           id="rect3720"
           style="font-size:4px" /></flowRegion><flowPara
         id="flowPara3722">Glow : 2</flowPara><flowPara
         id="flowPara3724">Opacity : 35%</flowPara><flowPara
         id="flowPara3774">Width : 1px</flowPara></flowRoot>    <rect
       width="16"
       height="16"
       rx="2"
       x="104"
       y="28"
       id="rect3726"
       style="fill:#ffffff;fill-opacity:1;stroke:#000000;stroke-width:0.2;stroke-miterlimit:4;stroke-dasharray:none;display:inline" />
    <flowRoot
       transform="translate(136.36243,20.28238)"
       id="flowRoot3728"
       xml:space="preserve"
       style="font-size:4px;font-style:normal;font-variant:normal;font-weight:normal;font-stretch:normal;text-align:start;line-height:125%;writing-mode:lr-tb;text-anchor:start;fill:#000000;fill-opacity:1;stroke:none;display:inline;font-family:Liberation Sans;-inkscape-font-specification:Liberation Sans"><flowRegion
         id="flowRegion3730"><rect
           width="28.462757"
           height="15.489427"
           x="-12.462757"
           y="8.0485411"
           id="rect3732"
           style="font-size:4px" /></flowRegion><flowPara
         id="flowPara3734">Glow : 3</flowPara><flowPara
         id="flowPara3736">Opacity : 30%</flowPara><flowPara
         id="flowPara3776">Width : 1.5px</flowPara></flowRoot>  </g>
  <g
     id="layer4"
     style="display:none">
    <path
       d="m 48,36 c -0.87358,0 -1.73569,0.03247 -2.59375,0.09375 -0.85688,0.06175 -1.71097,0.158494 -2.5625,0.28125 -0.57113,0.08233 -1.15136,0.171472 -1.71875,0.28125 -0.56739,0.109778 -1.12492,0.237777 -1.6875,0.375 -0.56258,0.137223 -1.1308,0.304082 -1.6875,0.46875 -0.14646,0.04353 -0.29182,0.07966 -0.4375,0.125 -0.40988,0.126913 -0.81274,0.264367 -1.21875,0.40625 -0.2386,0.08373 -0.48248,0.161418 -0.71875,0.25 -0.46569,0.174595 -0.91867,0.369384 -1.375,0.5625 -0.38854,0.163706 -0.77251,0.322049 -1.15625,0.5 -0.14774,0.06876 -0.29085,0.148055 -0.4375,0.21875 -0.45962,0.220779 -0.92319,0.446077 -1.375,0.6875 -0.0614,0.03292 -0.12629,0.06048 -0.1875,0.09375 C 30.46,40.551718 30.0963,40.777066 29.71875,41 c -0.266,0.157318 -0.5197,0.33609 -0.78125,0.5 -0.35154,0.219995 -0.71711,0.422958 -1.0625,0.65625 -0.0242,0.01634 -0.0384,0.0461 -0.0625,0.0625 -0.43311,0.294075 -0.85851,0.591215 -1.28125,0.90625 -0.0951,0.07088 -0.18683,0.146952 -0.28125,0.21875 -0.36143,0.27498 -0.74059,0.52202 -1.09375,0.8125 -0.2137,0.175524 -0.41545,0.350945 -0.625,0.53125 -0.22023,0.18953 -0.43959,0.398016 -0.65625,0.59375 -0.0221,0.01999 -0.0405,0.04246 -0.0625,0.0625 -0.42628,0.387466 -0.84275,0.8115 -1.25,1.21875 l 4.21875,4.21875 C 32.21125,45.35125 39.72,42 48,42 c 8.28,0 15.78875,3.35125 21.21875,8.78125 L 73.4375,46.5625 c -0.40725,-0.40725 -0.82372,-0.831284 -1.25,-1.21875 -0.0221,-0.02004 -0.0404,-0.04251 -0.0625,-0.0625 -0.39593,-0.357685 -0.81107,-0.725534 -1.21875,-1.0625 -0.0624,-0.0515 -0.12475,-0.105161 -0.1875,-0.15625 -0.38967,-0.317753 -0.7879,-0.607267 -1.1875,-0.90625 -0.0837,-0.06257 -0.16579,-0.125639 -0.25,-0.1875 C 68.89886,42.687805 68.51575,42.420177 68.125,42.15625 67.78186,41.924364 67.41392,41.720228 67.0625,41.5 66.36873,41.065835 65.68436,40.632379 64.96875,40.25 64.00645,39.734262 63.01203,39.272038 62,38.84375 61.54368,38.650635 61.09069,38.455845 60.625,38.28125 59.84227,37.989048 59.04747,37.735885 58.25,37.5 57.6933,37.335333 57.12508,37.168473 56.5625,37.03125 55.99992,36.894027 55.44239,36.766028 54.875,36.65625 54.30761,36.546472 53.72738,36.457334 53.15625,36.375 52.66817,36.30464 52.17759,36.237818 51.6875,36.1875 c -0.35885,-0.03648 -0.73188,-0.06791 -1.09375,-0.09375 -0.25098,-0.01809 -0.49876,-0.04965 -0.75,-0.0625 -0.0416,-0.0021 -0.0834,0.002 -0.125,0 C 49.14335,36.003805 48.57594,36 48,36 z m 0,12 c -6.624,0 -12.62475,2.68725 -16.96875,7.03125 l 4.1875,4.1875 C 38.48745,55.950054 43.01229,53.9375 48,53.9375 c 4.98771,0 9.51255,2.012554 12.78125,5.28125 l 4.1875,-4.1875 C 60.62475,50.68725 54.624,47.999999 48,48 z m 0,12 c -3.312,0 -6.29675,1.35925 -8.46875,3.53125 L 48,72 56.46875,63.53125 C 54.29675,61.35925 51.312,59.999999 48,60 z"
       id="path3685"
       style="opacity:0.5;fill:#bd8c31;fill-opacity:1;fill-rule:nonzero;stroke:none;display:inline" />
    <path
       d="m 48,38 c -0.87358,0 -1.73569,0.03247 -2.59375,0.09375 -0.85688,0.06175 -1.71097,0.158494 -2.5625,0.28125 -0.57113,0.08233 -1.15136,0.171472 -1.71875,0.28125 -0.56739,0.109778 -1.12492,0.237777 -1.6875,0.375 -0.56258,0.137223 -1.1308,0.304082 -1.6875,0.46875 -0.14646,0.04353 -0.29182,0.07966 -0.4375,0.125 -0.40988,0.126913 -0.81274,0.264367 -1.21875,0.40625 -0.2386,0.08373 -0.48248,0.161418 -0.71875,0.25 -0.46569,0.174595 -0.91867,0.369384 -1.375,0.5625 -0.38854,0.163706 -0.77251,0.322049 -1.15625,0.5 -0.14774,0.06876 -0.29085,0.148055 -0.4375,0.21875 -0.45962,0.220779 -0.92319,0.446077 -1.375,0.6875 -0.06142,0.03292 -0.12629,0.06048 -0.1875,0.09375 C 30.46,42.551718 30.0963,42.777066 29.71875,43 c -0.266,0.157318 -0.5197,0.33609 -0.78125,0.5 -0.35154,0.219995 -0.71711,0.422958 -1.0625,0.65625 -0.02419,0.01634 -0.03836,0.0461 -0.0625,0.0625 -0.43311,0.294075 -0.85851,0.591215 -1.28125,0.90625 -0.09514,0.07088 -0.18683,0.146952 -0.28125,0.21875 -0.36143,0.27498 -0.74059,0.52202 -1.09375,0.8125 -0.2137,0.175524 -0.41545,0.350945 -0.625,0.53125 -0.22023,0.18953 -0.43959,0.398016 -0.65625,0.59375 -0.0221,0.01999 -0.04045,0.04246 -0.0625,0.0625 -0.42628,0.387466 -0.84275,0.8115 -1.25,1.21875 l 4.21875,4.21875 C 32.21125,47.35125 39.72,44 48,44 c 8.28,0 15.78875,3.35125 21.21875,8.78125 L 73.4375,48.5625 c -0.40725,-0.40725 -0.82372,-0.831284 -1.25,-1.21875 -0.02205,-0.02004 -0.0404,-0.04251 -0.0625,-0.0625 -0.39593,-0.357685 -0.81107,-0.725534 -1.21875,-1.0625 -0.0624,-0.0515 -0.12475,-0.105161 -0.1875,-0.15625 -0.38967,-0.317753 -0.7879,-0.607267 -1.1875,-0.90625 -0.08365,-0.06257 -0.16579,-0.125639 -0.25,-0.1875 C 68.89886,44.687805 68.51575,44.420177 68.125,44.15625 67.78186,43.924364 67.41392,43.720228 67.0625,43.5 66.36873,43.065835 65.68436,42.632379 64.96875,42.25 64.00645,41.734262 63.01203,41.272038 62,40.84375 61.54368,40.650635 61.09069,40.455845 60.625,40.28125 59.84227,39.989048 59.04747,39.735885 58.25,39.5 57.6933,39.335333 57.12508,39.168473 56.5625,39.03125 55.99992,38.894027 55.44239,38.766028 54.875,38.65625 54.30761,38.546472 53.72738,38.457334 53.15625,38.375 52.66817,38.30464 52.17759,38.237818 51.6875,38.1875 c -0.35885,-0.03648 -0.73188,-0.06791 -1.09375,-0.09375 -0.25098,-0.01809 -0.49876,-0.04965 -0.75,-0.0625 -0.04157,-0.0021 -0.08339,0.002 -0.125,0 C 49.14335,38.003805 48.57594,38 48,38 z m 0,12 c -6.624,0 -12.62475,2.68725 -16.96875,7.03125 l 4.1875,4.1875 C 38.48745,57.950054 43.01229,55.9375 48,55.9375 c 4.98771,0 9.51255,2.012554 12.78125,5.28125 l 4.1875,-4.1875 C 60.62475,52.68725 54.624,49.999999 48,50 z m 0,12 c -3.312,0 -6.29675,1.35925 -8.46875,3.53125 L 48,74 56.46875,65.53125 C 54.29675,63.35925 51.312,61.999999 48,62 z"
       transform="translate(0,-2)"
       clip-path="url(#clipPath3252)"
       id="path2436"
       style="opacity:0.3;fill:none;stroke:#0d6471;stroke-width:2;stroke-linecap:square;stroke-linejoin:round;stroke-miterlimit:4;stroke-opacity:1;stroke-dasharray:4, 2;stroke-dashoffset:0;display:inline;filter:url(#filter3301)" />
    <path
       d="m 87.03125,35.03125 -1.65625,0.0625 -0.0625,0 -1.40625,0.15625 -1,0.125 0.09375,1 -0.15625,-1 -0.96875,0.15625 -0.90625,0.125 -0.0625,0.03125 -1.6875,0.375 -0.0625,0 -1.28125,0.375 -0.96875,0.25 0.28125,1.03125 -0.34375,-1 -0.9375,0.3125 -0.125,0.0625 -0.03125,0 -0.71875,0.25 -0.03125,0 -1.375,0.5625 -0.03125,0.03125 -1.15625,0.5 -0.03125,0 -0.34375,0.1875 -0.875,0.4375 0.40625,0.84375 -0.5,-0.875 -0.875,0.5 -1,0.59375 -0.03125,0.03125 -0.78125,0.5 -1.0625,0.65625 -0.1875,0.125 -0.0625,0.0625 -0.3125,0.21875 -0.8125,0.59375 0.59375,0.8125 -0.625,-0.8125 -0.78125,0.59375 -0.59375,0.4375 -0.0625,0.0625 -0.625,0.53125 -0.65625,0.59375 -0.0625,0.03125 -0.03125,0.0625 -0.03125,0 -1.03125,1.03125 -0.71875,0.6875 1.21875,1.25 -0.1875,0.1875 0.6875,0.71875 2.84375,2.8125 0.71875,0.71875 1.1875,-1.1875 0.15625,0.15625 0.75,-0.65625 0.8125,-0.71875 0.03125,-0.03125 1.0625,-0.8125 0.03125,-0.03125 1.15625,-0.8125 0.71875,-0.53125 0.03125,0.03125 0.84375,-0.5 0.75,-0.4375 0.03125,-0.03125 1.21875,-0.59375 0.03125,-0.03125 1.25,-0.5625 0.03125,0 0.15625,-0.0625 0.875,-0.375 0.03125,0 0.90625,-0.3125 0.65625,-0.21875 0.0625,-0.03125 1.3125,-0.375 0.0625,0 1.34375,-0.3125 0.0625,0 0.21875,-0.0625 0.9375,-0.15625 0.0625,0 0.9375,-0.125 L 85,43.15625 l 0.0625,0 1.40625,-0.125 0.0625,0 1.4375,-0.03125 0.0625,0 0.125,0 1,0.03125 0,-0.03125 0.96875,0.09375 0.8125,0.0625 0.0625,0 1.40625,0.1875 0.03125,0 1.375,0.25 0.0625,0 0.0625,0 0.96875,0.25 0,-0.03125 0.90625,0.25 0.78125,0.21875 0.0625,0.03125 1.28125,0.40625 0,0.03125 1.34375,0.53125 0.03125,0 0.125,0.0625 0.875,0.375 0.0625,0.03125 0.84375,0.4375 0.59375,0.28125 0.0312,0.03125 1.1875,0.6875 0.0312,0.03125 1.125,0.71875 0.0625,0.03125 0.28125,0.1875 0.78125,0.5625 0.0312,0.03125 0.75,0.59375 0.34375,0.25 0.0312,0.03125 1.03125,0.875 0.0312,0.03125 1,0.96875 1.40625,0 0.4375,-0.46875 0.71875,-0.6875 0.6875,-0.71875 2.375,-2.34375 0.28125,-0.875 -0.3125,-0.5625 -0.46875,-0.46875 -0.71875,-0.6875 -0.8125,0.84375 0.78125,-0.90625 -0.75,-0.65625 -0.59375,-0.5 -0.0312,-0.03125 -0.1875,-0.15625 -0.0312,0 -1.1875,-0.90625 0,-0.03125 -0.25,-0.1875 -0.0312,0 -0.9375,-0.6875 -0.8125,-0.5625 L 107.5,41.75 108,40.90625 107.15625,40.375 106.5625,40 l -0.0312,0 -1.0625,-0.625 -0.0625,-0.03125 -1.46875,-0.71875 -0.0312,-0.03125 -0.375,-0.15625 -0.90625,-0.40625 -0.46875,1.0625 L 102.59375,38 101.65625,37.625 101,37.34375 l -0.0625,0 -2.375,-0.78125 -0.03125,-0.03125 -0.78125,-0.21875 -0.96875,-0.25 -0.1875,0.6875 0.15625,-0.71875 -1,-0.1875 -0.65625,-0.15625 -0.0625,-0.03125 -1.71875,-0.28125 -0.03125,0 -1.46875,-0.1875 -0.03125,0 -0.09375,0 -1,-0.09375 -0.09375,1 0.03125,-1.03125 -1,-0.03125 -0.65625,0 0,-0.0625 L 88.03125,35 88,35 87.96875,35 87.03125,34.96875 z M 88,37 l 0.03125,0 1.5625,0.03125 0.9375,0.03125 0,0.03125 0.96875,0.09375 0.0625,0 0.03125,0 L 93,37.375 l 0.03125,0 1.6875,0.28125 0.625,0.125 0.90625,0.1875 0.0625,0.03125 0.90625,0.25 0.75,0.21875 0,-0.03125 2.28125,0.75 0,0.03125 0.65625,0.25 0.90625,0.375 0.0312,0 0.875,0.40625 0.34375,0.15625 0.0312,0.03125 1.375,0.6875 0.0625,0.03125 0.96875,0.5625 0.0312,0 0.59375,0.375 0.84375,0.53125 0.0312,-0.0625 0.75,0.5625 0.9375,0.65625 0.0312,0 0.21875,0.1875 0,-0.03125 1.15625,0.90625 0.0312,0 0.125,0.125 0.0312,0.03125 0.5625,0.5 0.71875,0.625 0.0312,0.03125 0.40625,0.40625 -1.625,1.65625 -0.71875,0.6875 -0.46875,0.46875 -0.3125,-0.3125 -0.0312,-0.03125 -1.09375,-0.9375 -0.0312,-0.03125 -0.40625,-0.3125 -0.78125,-0.625 -0.4375,0.59375 L 106.5,47.125 105.6875,46.53125 105.34375,46.3125 105.3125,46.28125 104.09375,45.5 l -0.0312,-0.03125 -1.25,-0.71875 -0.0625,-0.03125 -0.625,-0.3125 -0.875,-0.46875 -0.40625,0.8125 0.34375,-0.8125 -0.90625,-0.40625 -0.1875,-0.09375 -0.0625,0 -1.34375,-0.5625 -0.0625,0 L 97.25,42.40625 97.1875,42.375 96.375,42.15625 95.40625,41.875 95.0625,43.0625 95.34375,41.875 94.375,41.65625 94.28125,41.625 l -0.0625,0 -1.46875,-0.25 -0.0625,-0.03125 -1.5,-0.1875 -0.03125,0 -0.875,-0.0625 -1,-0.09375 -0.09375,1.3125 0.03125,-1.28125 -1,-0.03125 -0.1875,0 -0.0625,0 -1.53125,0.03125 -0.0625,0 -1.53125,0.125 -0.03125,0 -0.71875,0.09375 -1,0.125 0.125,1.03125 -0.1875,-1 -0.96875,0.15625 -0.28125,0.0625 -0.0625,0 -1.4375,0.34375 -0.0625,0 L 78.8125,42.375 78.75,42.40625 78.0625,42.625 77.09375,42.96875 77.46875,44.0625 77.0625,43 l -0.9375,0.34375 -0.15625,0.09375 -0.0625,0 -1.3125,0.59375 -0.0625,0.03125 -1.28125,0.65625 -0.0625,0.03125 -0.78125,0.4375 -0.84375,0.5 0.46875,0.8125 -0.5625,-0.78125 -0.8125,0.59375 -1.1875,0.8125 -0.03125,0.03125 -1.15625,0.90625 -0.03125,0.03125 -0.84375,0.71875 -0.625,0.5625 -2.28125,-2.3125 -0.5,-0.5 0.5,-0.5 0.03125,0 0,-0.03125 L 64.59375,46 65.1875,45.4375 65.75,44.96875 l 0.0625,-0.0625 0.53125,-0.375 0.78125,-0.59375 0.03125,0 0.78125,-0.59375 0.4375,-0.3125 L 68.40625,43 l 0.125,-0.0625 0.03125,-0.03125 0.03125,-0.03125 0.875,-0.53125 0.75,-0.46875 0.03125,-0.03125 1,-0.5625 0.78125,-0.5 0.03125,0.0625 0.90625,-0.4375 L 73.25,40.25 l 0.03125,0 1.09375,-0.46875 0.03125,-0.03125 1.3125,-0.53125 0.03125,0 0.65625,-0.25 0.03125,0 0.09375,-0.03125 0.90625,-0.3125 0.0625,0 0,-0.03125 0.90625,-0.25 1.25,-0.34375 0.0625,0 1.5625,-0.34375 0.90625,-0.15625 0.9375,-0.15625 0.0625,0 0.9375,-0.09375 1.3125,-0.15625 0.0625,0 L 87.96875,37 z m -0.03125,10 -1.21875,0.03125 -0.0625,0 -1.21875,0.09375 -0.0625,0 -1.1875,0.15625 -0.0625,0 -0.3125,0.0625 -1,0.1875 0.1875,0.96875 -0.21875,-0.96875 -0.96875,0.25 -0.0625,0 -0.0625,0 -1.125,0.34375 -0.0625,0 -1.09375,0.375 -0.0625,0.03125 -1.09375,0.4375 -0.03125,0 -0.375,0.1875 -0.90625,0.40625 0.40625,0.875 -0.5,-0.875 -0.875,0.5 -0.9375,0.53125 -0.03125,0.03125 -1,0.625 L 74,51.28125 l -0.9375,0.6875 -0.03125,0 -0.5,0.375 -0.78125,0.625 0.5625,0.71875 -0.625,-0.65625 -0.71875,0.6875 -0.625,0.59375 -0.3125,0.84375 0.28125,0.59375 2.25,2.21875 0.6875,0.71875 0.71875,0.6875 0.53125,0.5625 1.40625,0.03125 1.1875,-1.125 0.09375,-0.0625 1.125,-0.8125 0.78125,-0.59375 0.75,-0.375 1.46875,-0.71875 0.09375,-0.03125 1.46875,-0.53125 0.03125,0 0.0625,-0.03125 0.375,-0.09375 0.96875,-0.25 0.90625,-0.15625 0.96875,-0.15625 0.125,0 1.625,-0.09375 0.0625,0 0.0625,0 L 89,55 l 0.875,0.03125 0,0.03125 1,0.125 0.53125,0.09375 1.625,0.40625 0.0625,0.03125 0.03125,0 1.40625,0.5 0.90625,0.34375 0.03125,0 0.6875,0.4375 1.34375,0.8125 0.03125,0.03125 0.0625,0.03125 1.21875,0.90625 0.09375,0.0625 0.34375,0.34375 0.75,0.6875 0.5625,-0.65625 0.8125,0.8125 0.71875,-0.71875 2.8125,-2.8125 0.71875,-0.71875 -0.65625,-0.65625 0.75,-0.78125 -0.75,-0.6875 -0.15625,-0.15625 -0.0312,-0.03125 -0.875,-0.75 -0.0312,-0.03125 -0.90625,-0.71875 -0.0312,0 -0.9375,-0.6875 -0.0312,-0.03125 -0.28125,-0.15625 -0.84375,-0.5625 -0.4375,0.6875 0.375,-0.75 L 99.875,50 l -1.03125,-0.53125 -0.03125,0 -1.0625,-0.5 -0.03125,0 L 96.625,48.53125 96.5625,48.5 96.09375,48.34375 95.15625,48.03125 94.8125,49.0625 95.0625,47.96875 94.09375,47.75 93.0625,47.5 93,47.5 l -1.15625,-0.21875 -0.0625,0 -1.1875,-0.15625 -0.0625,0 L 90,47.09375 89,47 l -0.03125,0.28125 0,-0.3125 z m 0.875,2 1,0.09375 0.46875,0.03125 0.0625,0 1.15625,0.15625 0,-0.03125 1.09375,0.21875 0.03125,0 0.96875,0.21875 0.875,0.21875 0,0.03125 0.9375,0.3125 0.4375,0.125 0.0625,0.03125 1,0.40625 0.03125,0 0.96875,0.4375 0.0625,0.03125 0.96875,0.5 0.8125,0.40625 -0.03125,0.03125 0.84375,0.5625 0.25,0.125 0.0312,0.03125 0.875,0.625 0.0312,0.03125 0.8125,0.65625 0.0625,0.03125 0.78125,0.6875 0.0312,0.03125 0.0625,0.0625 -0.0312,0.03125 -2.75,2.75 -0.15625,-0.125 -0.4375,-0.40625 -0.0625,-0.0625 -1.375,-1.03125 -0.09375,-0.0625 -1.4375,-0.875 -0.84375,-0.5 -0.5625,0.90625 0.375,-1 -0.9375,-0.34375 -1.5,-0.53125 -0.09375,-0.03125 -1.75,-0.4375 -0.09375,-0.03125 -0.59375,-0.09375 -1,-0.15625 -0.125,0.875 0.03125,-0.90625 -1,-0.03125 -1.03125,-0.0625 -0.125,0 -1.84375,0.09375 -0.09375,0 -1.09375,0.1875 -1,0.125 0.15625,1.09375 -0.25,-1.03125 -0.96875,0.25 -0.46875,0.125 -0.09375,0.03125 -1.65625,0.59375 -0.09375,0.03125 -1.5625,0.75 -0.90625,0.4375 0.46875,1 -0.625,-0.875 -0.8125,0.59375 -1.1875,0.90625 -0.0625,0.0625 L 75.25,57.84375 74.6875,57.25 l -0.71875,-0.6875 -1.5,-1.53125 0.53125,-0.5 0,0.03125 0.78125,-0.625 0.4375,-0.34375 0.03125,-0.03125 0.875,-0.625 0.03125,-0.03125 0.90625,-0.5625 0.03125,-0.03125 0.90625,-0.5 0.78125,-0.46875 0,0.03125 0.90625,-0.40625 0.34375,-0.15625 0.03125,0 1,-0.40625 0.0625,-0.03125 1,-0.34375 0.0625,0 1.03125,-0.3125 0.0625,0 0.9375,-0.21875 0.03125,0 0.9375,-0.1875 0.28125,-0.0625 0,0.03125 1.15625,-0.15625 0.0625,0 1.09375,-0.09375 0.0625,0 1.1875,-0.03125 0.8125,-0.03125 z m -1.78125,10.03125 -0.34375,0.03125 -0.09375,0 -1.1875,0.1875 -0.09375,0.03125 -1.15625,0.28125 -0.09375,0.03125 -0.375,0.15625 -0.9375,0.34375 L 83.125,61 l -0.53125,-0.875 -0.875,0.5 -0.9375,0.59375 -0.0625,0.03125 -0.9375,0.71875 -0.0625,0.0625 -0.875,0.75 -0.3125,0.84375 0.28125,0.625 0.4375,0.40625 0.6875,0.71875 0.71875,0.6875 2.8125,2.84375 0.71875,0.6875 0.71875,0.71875 2.375,2.40625 1.4375,0 0.40625,-0.4375 0.71875,-0.71875 0.71875,-0.6875 2.8125,-2.84375 0.71875,-0.71875 0.6875,-0.6875 2.40625,-2.375 0.28125,-0.875 -0.3125,-0.59375 -0.46875,-0.40625 -0.75,-0.6875 -0.6875,0.75 0.53125,-0.875 -0.84375,-0.53125 -0.71875,-0.4375 -0.0625,-0.03125 -1.0625,-0.5 L 93,60 91.90625,59.59375 91.8125,59.5625 91,59.375 l -0.96875,-0.25 -0.25,0.96875 0.0625,-1 -0.90625,-0.0625 0,-0.09375 L 88.0625,59 88,59 87.9375,59 87.0625,58.9375 z M 88,61 l 0.0625,0 0.65625,0.03125 0.90625,0.0625 0.09375,0 0.78125,0.21875 0.71875,0.15625 0.0625,0.03125 0.03125,0 0.90625,0.34375 0.09375,0.03125 0.875,0.4375 0.71875,0.4375 0.78125,0.46875 0.0625,0.0625 0.25,0.28125 -1.625,1.65625 -0.6875,0.6875 L 91.96875,66.625 89.125,69.4375 88.4375,70.15625 88,70.59375 86.3125,68.90625 85.59375,68.1875 84.90625,67.46875 82.0625,64.65625 81.375,63.9375 81,63.5625 81.0625,63.5 l 0.84375,-0.625 0,-0.03125 0.875,-0.5 0.6875,-0.4375 0.03125,0.0625 0.9375,-0.34375 0.25,-0.125 0.0625,0 0.03125,-0.03125 L 85.75,61.25 85.84375,61.21875 86.9375,61.0625 87.9375,61 z"
       transform="translate(-40,0)"
       clip-path="url(#clipPath3692)"
       id="path2455"
       style="font-size:medium;font-style:normal;font-variant:normal;font-weight:normal;font-stretch:normal;text-indent:0;text-align:start;text-decoration:none;line-height:normal;letter-spacing:normal;word-spacing:normal;text-transform:none;direction:ltr;block-progression:tb;writing-mode:lr-tb;text-anchor:start;opacity:0.5;color:#000000;fill:#eee0c4;fill-opacity:1;stroke:none;stroke-width:2;marker:none;visibility:visible;display:inline;overflow:visible;filter:url(#filter3708);enable-background:accumulate;font-family:Abandoned Bitplane;-inkscape-font-specification:Abandoned Bitplane" />
    <path
       d="m -42,35.96875 c -11.624335,0 -22.145733,4.723533 -29.75,12.34375 l 4.28125,4.28125 C -60.94609,46.055178 -51.935479,41.999999 -42,42 c 9.93548,0 18.946089,4.055178 25.46875,10.59375 L -12.25,48.3125 C -19.854267,40.692283 -30.375666,35.968749 -42,35.96875 z M -42,48 c -8.312357,0 -15.825435,3.371953 -21.25,8.8125 l 4.28125,4.28125 C -54.620553,56.729631 -48.623478,54 -42,54 c 6.623478,0 12.620553,2.729631 16.96875,7.09375 L -20.75,56.8125 C -26.174565,51.371953 -33.687642,48.000001 -42,48 z m 0,12 c -5.000339,0 -9.524911,2.008927 -12.78125,5.28125 L -50.5,69.5625 c 2.177915,-2.193811 5.188584,-3.562499 8.5,-3.5625 3.311415,0 6.322085,1.368689 8.5,3.5625 l 4.28125,-4.28125 C -32.475089,62.008927 -36.999661,60 -42,60 z m 0,12 c -1.672407,0 -3.168436,0.668436 -4.25,1.75 L -42,78 -37.75,73.75 C -38.831564,72.668437 -40.327595,71.999998 -42,72 z"
       id="path4019"
       style="opacity:0.8;fill:#782121;fill-opacity:1;fill-rule:nonzero;stroke:none;display:inline" />
    <path
       d="m 138,38 c -0.87358,0 -1.73569,0.03247 -2.59375,0.09375 -0.85688,0.06175 -1.71097,0.158494 -2.5625,0.28125 -0.57113,0.08233 -1.15136,0.171472 -1.71875,0.28125 -0.56739,0.109778 -1.12492,0.237777 -1.6875,0.375 -0.56258,0.137223 -1.1308,0.304082 -1.6875,0.46875 -0.14646,0.04353 -0.29182,0.07966 -0.4375,0.125 -0.40988,0.126913 -0.81274,0.264367 -1.21875,0.40625 -0.2386,0.08373 -0.48248,0.161418 -0.71875,0.25 -0.46569,0.174595 -0.91867,0.369384 -1.375,0.5625 -0.38854,0.163706 -0.77251,0.322049 -1.15625,0.5 -0.14774,0.06876 -0.29085,0.148055 -0.4375,0.21875 -0.45962,0.220779 -0.92319,0.446077 -1.375,0.6875 -0.0614,0.03292 -0.12629,0.06048 -0.1875,0.09375 -0.38375,0.207968 -0.74745,0.433316 -1.125,0.65625 -0.266,0.157318 -0.5197,0.33609 -0.78125,0.5 -0.35154,0.219995 -0.71711,0.422958 -1.0625,0.65625 -0.0242,0.01634 -0.0384,0.0461 -0.0625,0.0625 -0.43311,0.294075 -0.85851,0.591215 -1.28125,0.90625 -0.0951,0.07088 -0.18683,0.146952 -0.28125,0.21875 -0.36143,0.27498 -0.74059,0.52202 -1.09375,0.8125 -0.2137,0.175524 -0.41545,0.350945 -0.625,0.53125 -0.22023,0.18953 -0.43959,0.398016 -0.65625,0.59375 -0.0221,0.01999 -0.0405,0.04246 -0.0625,0.0625 -0.42628,0.387466 -0.84275,0.8115 -1.25,1.21875 l 4.21875,4.21875 C 122.21125,47.35125 129.72,44 138,44 c 8.28,0 15.78875,3.35125 21.21875,8.78125 l 4.21875,-4.21875 c -0.40725,-0.40725 -0.82372,-0.831284 -1.25,-1.21875 -0.0221,-0.02004 -0.0404,-0.04251 -0.0625,-0.0625 -0.39593,-0.357685 -0.81107,-0.725534 -1.21875,-1.0625 -0.0624,-0.0515 -0.12475,-0.105161 -0.1875,-0.15625 -0.38967,-0.317753 -0.7879,-0.607267 -1.1875,-0.90625 -0.0837,-0.06257 -0.16579,-0.125639 -0.25,-0.1875 -0.38239,-0.280945 -0.7655,-0.548573 -1.15625,-0.8125 -0.34314,-0.231886 -0.71108,-0.436022 -1.0625,-0.65625 -0.69377,-0.434165 -1.37814,-0.867621 -2.09375,-1.25 -0.9623,-0.515738 -1.95672,-0.977962 -2.96875,-1.40625 -0.45632,-0.193115 -0.90931,-0.387905 -1.375,-0.5625 -0.78273,-0.292202 -1.57753,-0.545365 -2.375,-0.78125 -0.5567,-0.164667 -1.12492,-0.331527 -1.6875,-0.46875 -0.56258,-0.137223 -1.12011,-0.265222 -1.6875,-0.375 -0.56739,-0.109778 -1.14762,-0.198916 -1.71875,-0.28125 -0.48808,-0.07036 -0.97866,-0.137182 -1.46875,-0.1875 -0.35885,-0.03648 -0.73188,-0.06791 -1.09375,-0.09375 -0.25098,-0.01809 -0.49876,-0.04965 -0.75,-0.0625 -0.0416,-0.0021 -0.0834,0.002 -0.125,0 C 139.14335,38.003805 138.57594,38 138,38 z m 0,12 c -6.624,0 -12.62475,2.68725 -16.96875,7.03125 l 4.1875,4.1875 c 3.2687,-3.268696 7.79354,-5.28125 12.78125,-5.28125 4.98771,0 9.51255,2.012554 12.78125,5.28125 l 4.1875,-4.1875 C 150.62475,52.68725 144.624,49.999999 138,50 z m 0,12 c -3.312,0 -6.29675,1.35925 -8.46875,3.53125 L 138,74 146.46875,65.53125 C 144.29675,63.35925 141.312,61.999999 138,62 z"
       id="path3233"
       style="opacity:0.8;fill:#ff0000;fill-opacity:1;fill-rule:nonzero;stroke:none;display:inline" />
  </g>
  <g
     id="layer5">
    <path
       d="m 128,34.5 c -10.74874,0 -21.48649,4.11149 -29.6875,12.3125 L 103.25,51.75 c 13.66835,-13.66835 35.83165,-13.66835 49.5,0 l 4.9375,-4.9375 C 149.48649,38.61149 138.74874,34.5 128,34.5 z m 0,14 c -7.16582,0 -14.34516,2.72016 -19.8125,8.1875 l 4.96875,4.96875 c 8.20101,-8.20101 21.48649,-8.20101 29.6875,0 L 147.8125,56.6875 C 142.34516,51.22016 135.16582,48.5 128,48.5 z m 0,14 c -3.58291,0 -7.17258,1.36008 -9.90625,4.09375 L 128,76.5 137.90625,66.59375 C 135.17258,63.86008 131.58291,62.5 128,62.5 z"
       transform="translate(-80,0)"
       clip-path="url(#clipPath3724)"
       id="path3713"
       style="opacity:0.3;fill:none;stroke:#ffffff;stroke-width:1.5;stroke-miterlimit:4;stroke-dasharray:none;filter:url(#filter3728)" />
    <path
       d="M 48,34 C 37.251263,34 26.51351,38.11149 18.3125,46.3125 L 23.25,51.25 c 13.66835,-13.66835 35.83165,-13.66835 49.5,0 l 4.9375,-4.9375 C 69.48649,38.11149 58.748737,34 48,34 z m 0,14 c -7.165825,0 -14.34516,2.72016 -19.8125,8.1875 l 4.96875,4.96875 c 8.20101,-8.20101 21.48649,-8.20101 29.6875,0 L 67.8125,56.1875 C 62.34516,50.72016 55.165825,48 48,48 z m 0,14 c -3.582912,0 -7.17258,1.36008 -9.90625,4.09375 L 48,76 57.90625,66.09375 C 55.17258,63.36008 51.582912,62 48,62 z"
       id="path3717"
       style="opacity:0.9;fill:url(#linearGradient2917);fill-opacity:1;stroke:none" />
    <path
       d="m 48,34.5 c -10.748737,0 -21.48649,4.11149 -29.6875,12.3125 L 23.25,51.75 c 13.66835,-13.66835 35.83165,-13.66835 49.5,0 l 4.9375,-4.9375 C 69.48649,38.61149 58.748737,34.5 48,34.5 z m 0,14 c -7.165825,0 -14.34516,2.72016 -19.8125,8.1875 l 4.96875,4.96875 c 8.20101,-8.20101 21.48649,-8.20101 29.6875,0 L 67.8125,56.6875 C 62.34516,51.22016 55.165825,48.5 48,48.5 z m 0,14 c -3.582912,0 -7.17258,1.36008 -9.90625,4.09375 L 48,76.5 57.90625,66.59375 C 55.17258,63.86008 51.582912,62.5 48,62.5 z"
       clip-path="url(#clipPath3699)"
       id="path2919"
       style="opacity:0.35;fill:none;stroke:#0d6471;filter:url(#filter3709)" />
    <path
       d="m 128,34 c -10.74874,0 -21.48649,4.11149 -29.6875,12.3125 L 103.25,51.25 c 13.66835,-13.66835 35.83165,-13.66835 49.5,0 l 4.9375,-4.9375 C 149.48649,38.11149 138.74874,34 128,34 z m 0,14 c -7.16582,0 -14.34516,2.72016 -19.8125,8.1875 l 4.96875,4.96875 c 8.20101,-8.20101 21.48649,-8.20101 29.6875,0 L 147.8125,56.1875 C 142.34516,50.72016 135.16582,48 128,48 z m 0,14 c -3.58291,0 -7.17258,1.36008 -9.90625,4.09375 L 128,76 137.90625,66.09375 C 135.17258,63.36008 131.58291,62 128,62 z"
       transform="translate(-180,0)"
       clip-path="url(#clipPath3737)"
       id="path2903"
       style="opacity:0.2;fill:none;stroke:#ffffff;stroke-width:2;stroke-miterlimit:4;stroke-dasharray:none;filter:url(#filter3741)" />
    <path
       d="m -52,34 c -10.748737,0 -21.48649,4.11149 -29.6875,12.3125 L -76.75,51.25 c 13.66835,-13.66835 35.83165,-13.66835 49.5,0 l 4.9375,-4.9375 C -30.51351,38.11149 -41.251263,34 -52,34 z m 0,14 c -7.165825,0 -14.34516,2.72016 -19.8125,8.1875 l 4.96875,4.96875 c 8.20101,-8.20101 21.48649,-8.20101 29.6875,0 L -32.1875,56.1875 C -37.65484,50.72016 -44.834175,48 -52,48 z m 0,14 c -3.582912,0 -7.17258,1.36008 -9.90625,4.09375 L -52,76 -42.09375,66.09375 C -44.82742,63.36008 -48.417088,62 -52,62 z"
       id="path2905"
       style="opacity:0.9;fill:url(#linearGradient2909);fill-opacity:1;stroke:none" />
    <path
       d="M 28,34 C 17.251263,34 6.51351,38.11149 -1.6875,46.3125 L 3.25,51.25 c 13.66835,-13.66835 35.83165,-13.66835 49.5,0 l 4.9375,-4.9375 C 49.48649,38.11149 38.748737,34 28,34 z m 0,14 c -7.165825,0 -14.34516,2.72016 -19.8125,8.1875 l 4.96875,4.96875 c 8.20101,-8.20101 21.48649,-8.20101 29.6875,0 L 47.8125,56.1875 C 42.34516,50.72016 35.165825,48 28,48 z m 0,14 c -3.582912,0 -7.17258,1.36008 -9.90625,4.09375 L 28,76 37.90625,66.09375 C 35.17258,63.36008 31.582912,62 28,62 z"
       transform="translate(-80,0)"
       clip-path="url(#clipPath3749)"
       id="path2907"
       style="opacity:0.3;fill:none;stroke:#0d6471;stroke-width:2;stroke-miterlimit:4;stroke-dasharray:none;filter:url(#filter3765)" />
  </g>
</svg>
