<?xml version="1.0" encoding="UTF-8" standalone="no"?>
<!-- Created with Inkscape (http://www.inkscape.org/) -->

<svg
   xmlns:svg="http://www.w3.org/2000/svg"
   xmlns="http://www.w3.org/2000/svg"
   xmlns:xlink="http://www.w3.org/1999/xlink"
   version="1.0"
   width="96"
   height="96"
   id="svg2408">
  <defs
     id="defs2410">
    <linearGradient
       id="linearGradient3656">
      <stop
         id="stop3658"
         style="stop-color:#000000;stop-opacity:1"
         offset="0" />
      <stop
         id="stop3675"
         style="stop-color:#000000;stop-opacity:0.30232558"
         offset="0.5" />
      <stop
         id="stop3660"
         style="stop-color:#000000;stop-opacity:0"
         offset="1" />
    </linearGradient>
    <linearGradient
       id="linearGradient3637">
      <stop
         id="stop3645"
         style="stop-color:#f0f0f0;stop-opacity:1"
         offset="0" />
      <stop
         id="stop3641"
         style="stop-color:#f5f5f5;stop-opacity:1"
         offset="1" />
    </linearGradient>
    <linearGradient
       id="linearGradient3348">
      <stop
         id="stop3350"
         style="stop-color:#95c070;stop-opacity:1"
         offset="0" />
      <stop
         id="stop3356"
         style="stop-color:#52802d;stop-opacity:1"
         offset="0.71691591" />
      <stop
         id="stop3352"
         style="stop-color:#52802d;stop-opacity:1"
         offset="1" />
    </linearGradient>
    <linearGradient
       id="linearGradient3187">
      <stop
         id="stop3189"
         style="stop-color:#52802d;stop-opacity:1"
         offset="0" />
      <stop
         id="stop3191"
         style="stop-color:#95c070;stop-opacity:1"
         offset="1" />
    </linearGradient>
    <linearGradient
       x1="45.447727"
       y1="80.471962"
       x2="45.447727"
       y2="7.0165396"
       id="ButtonShadow"
       gradientUnits="userSpaceOnUse"
       gradientTransform="matrix(1.0058652,0,0,0.994169,0,12)">
      <stop
         id="stop3750"
         style="stop-color:#000000;stop-opacity:1"
         offset="0" />
      <stop
         id="stop3752"
         style="stop-color:#000000;stop-opacity:0.58823532"
         offset="1" />
    </linearGradient>
    <linearGradient
       id="linearGradient3737">
      <stop
         id="stop3739"
         style="stop-color:#ffffff;stop-opacity:1"
         offset="0" />
      <stop
         id="stop3741"
         style="stop-color:#ffffff;stop-opacity:0"
         offset="1" />
    </linearGradient>
    <linearGradient
       x1="48"
       y1="66"
       x2="48"
       y2="5.9877172"
       id="linearGradient3706"
       xlink:href="#linearGradient3187"
       gradientUnits="userSpaceOnUse"
       gradientTransform="translate(0,22)" />
    <filter
       x="-0.29508197"
       y="-0.46153846"
       width="1.5901639"
       height="1.9230769"
       color-interpolation-filters="sRGB"
       id="filter3179">
      <feGaussianBlur
         id="feGaussianBlur3181"
         stdDeviation="6.6964288" />
    </filter>
    <filter
       color-interpolation-filters="sRGB"
       id="filter3174">
      <feGaussianBlur
         id="feGaussianBlur3176"
         stdDeviation="1.71" />
    </filter>
    <linearGradient
       x1="23.607143"
       y1="6"
       x2="23.607143"
       y2="58.466385"
       id="linearGradient4010"
       xlink:href="#linearGradient3737"
       gradientUnits="userSpaceOnUse" />
    <linearGradient
       x1="45.447727"
       y1="80.471962"
       x2="45.447727"
       y2="5.297224"
       id="linearGradient4018"
       xlink:href="#ButtonShadow"
       gradientUnits="userSpaceOnUse"
       gradientTransform="matrix(1.0058652,0,0,0.994169,0,12)" />
    <linearGradient
       x1="34.85965"
       y1="17.736111"
       x2="34.85965"
       y2="32.281696"
       id="linearGradient4023"
       xlink:href="#linearGradient3348"
       gradientUnits="userSpaceOnUse"
       gradientTransform="matrix(0.72,0,0,0.72,1.92,-5.52)" />
    <linearGradient
       id="linearGradient3737-5">
      <stop
         id="stop3739-0"
         style="stop-color:#ffffff;stop-opacity:1"
         offset="0" />
      <stop
         id="stop3741-4"
         style="stop-color:#ffffff;stop-opacity:0"
         offset="1" />
    </linearGradient>
    <radialGradient
       cx="48"
       cy="90.171875"
       r="42"
       fx="48"
       fy="90.171875"
       id="radialGradient2862"
       xlink:href="#linearGradient3737-5"
       gradientUnits="userSpaceOnUse"
       gradientTransform="matrix(1.1573129,0,0,0.99590774,-7.551021,0.1971319)" />
    <linearGradient
       x1="36.357143"
       y1="18"
       x2="36.357143"
       y2="73.994667"
       id="linearGradient2865"
       xlink:href="#linearGradient3737"
       gradientUnits="userSpaceOnUse" />
    <linearGradient
       x1="19.946079"
       y1="28.251511"
       x2="19.946079"
       y2="18.047863"
       id="linearGradient3643"
       xlink:href="#linearGradient3637"
       gradientUnits="userSpaceOnUse" />
    <linearGradient
       x1="18"
       y1="19"
       x2="18"
       y2="16"
       id="linearGradient3666"
       xlink:href="#linearGradient3656"
       gradientUnits="userSpaceOnUse"
       gradientTransform="matrix(1.1111112,0,0,1.780582,-5.3333338,-5.6116384)" />
    <linearGradient
       x1="45.447727"
       y1="92.539597"
       x2="45.447727"
       y2="7.0165396"
       id="ButtonShadow-0"
       gradientUnits="userSpaceOnUse"
       gradientTransform="matrix(1.0058652,0,0,0.994169,100,0)">
      <stop
         id="stop3750-8"
         style="stop-color:#000000;stop-opacity:1"
         offset="0" />
      <stop
         id="stop3752-5"
         style="stop-color:#000000;stop-opacity:0.58823532"
         offset="1" />
    </linearGradient>
    <linearGradient
       x1="41.535713"
       y1="90.964287"
       x2="41.535713"
       y2="6.8666673"
       id="linearGradient3692"
       xlink:href="#ButtonShadow-0"
       gradientUnits="userSpaceOnUse" />
    <linearGradient
       x1="26.5"
       y1="90.312759"
       x2="26.5"
       y2="6.9171443"
       id="linearGradient3718"
       xlink:href="#ButtonShadow-0"
       gradientUnits="userSpaceOnUse"
       gradientTransform="matrix(1.0277778,0,0,1.0127315,-1.333333,0.0308796)" />
    <linearGradient
       x1="26.5"
       y1="90.312759"
       x2="26.5"
       y2="6.9171443"
       id="linearGradient3730"
       xlink:href="#ButtonShadow-0"
       gradientUnits="userSpaceOnUse"
       gradientTransform="matrix(1.0277778,0,0,1.0127315,-1.333333,0.0308796)" />
    <linearGradient
       x1="26.5"
       y1="90.312759"
       x2="26.5"
       y2="6.9171443"
       id="linearGradient3738"
       xlink:href="#ButtonShadow-0"
       gradientUnits="userSpaceOnUse"
       gradientTransform="matrix(1.0277778,0,0,1.0127315,-1.333333,0.0308796)" />
    <linearGradient
       x1="26.5"
       y1="90.312759"
       x2="26.5"
       y2="6.9171443"
       id="linearGradient3750"
       xlink:href="#ButtonShadow-0"
       gradientUnits="userSpaceOnUse"
       gradientTransform="matrix(1.0277778,0,0,1.0127315,-1.333333,0.0308796)" />
  </defs>
  <g
     id="layer2"
     style="display:none">
    <path
       d="M 14.96875,8.8125 C 13.32891,8.8125 12,10.09475 12,11.6875 l 0,7.65625 C 9.6664933,20.164656 8,22.378887 8,25 l 0,5.21875 C 6.2723951,31.312574 5,33.042083 5,35 l 0,51 c 0,3.324 2.676,6 6,6 l 74,0 c 3.324,0 6,-2.676 6,-6 l 0,-51 c 0,-1.940712 -1.275252,-3.654683 -3,-4.75 L 88,25 C 88,21.717446 85.391284,19.06559 82.125,19 81.386647,16.517329 80.495259,14.5625 79.5,14.5625 l -43.34375,0 -1.46875,-2.875 c -0.733359,-1.424599 -1.32891,-2.875 -2.96875,-2.875 l -16.75,0 z"
       id="rect3745"
       style="opacity:0.9;fill:url(#linearGradient4018);fill-opacity:1;fill-rule:nonzero;stroke:none;filter:url(#filter3174)" />
  </g>
  <g
     id="layer5"
     style="display:inline">
    <path
       d="m 13.96875,4.09375 c -3.244117,0 -6,2.6582434 -6,5.9375 l 0,7.96875 c -2.3330986,1.694577 -4,4.352257 -4,7.5 l 0,4.84375 c -1.1417997,1.557866 -2,3.460255 -2,5.65625 l 0,49 c 0,5.500726 4.5305236,10.03125 10.03125,10.03125 l 72,0 c 5.500726,0 10.03125,-4.530524 10.03125,-10.03125 l 0,-49 c 0,-2.195995 -0.8582,-4.098384 -2,-5.65625 l 0,-4.84375 c 0,-3.147743 -1.666901,-5.805423 -4,-7.5 l 0,-0.65625 c 0,-4.071769 -3.40082,-7.40625 -7.46875,-7.40625 l -42.59375,0 L 37.5,9.0625 C 37.499626,9.0612378 37.477745,9.0273999 37.46875,9 l 0,-0.0625 c -3.38e-4,-9.355e-4 -0.02354,-0.011687 -0.03125,-0.03125 a 0.8919204,0.8919204 0 0 0 0,-0.0625 c -6.03e-4,-0.00141 -0.01781,-0.033542 -0.03125,-0.0625 A 0.8919204,0.8919204 0 0 0 37.375,8.75 c -6.67e-4,-0.00133 0.01492,-0.034714 0,-0.0625 A 0.8919204,0.8919204 0 0 0 37.34375,8.65625 C 37.024891,8.0278701 36.613957,7.0687172 35.84375,6.125 34.966262,5.0498343 33.530934,4.09375 31.71875,4.09375 l -17.75,0 z"
       id="path3748"
       style="opacity:0.07999998;fill:url(#linearGradient3750);fill-opacity:1;fill-rule:nonzero;stroke:none;display:inline" />
    <path
       d="M 13.96875,5 C 11.209799,5 8.875,7.2513513 8.875,10.03125 l 0,8.375 c -2.3438735,1.521602 -4,4.077864 -4,7.09375 l 0,5.09375 c -1.1626438,1.493545 -2,3.312591 -2,5.40625 l 0,49 c 0,5.013042 4.1119578,9.125 9.125,9.125 l 72,0 c 5.013042,0 9.125,-4.111958 9.125,-9.125 l 0,-49 c 0,-2.093659 -0.837356,-3.912705 -2,-5.40625 l 0,-5.09375 c 0,-3.015886 -1.656126,-5.572148 -4,-7.09375 l 0,-1.0625 c 0,-3.576407 -2.979736,-6.5 -6.5625,-6.5 l -43.125,0 -0.78125,-1.53125 a 1.0193377,1.0193377 0 0 0 -0.09375,-0.21875 1.0193377,1.0193377 0 0 0 0,-0.03125 C 36.225341,8.3980555 35.838159,7.5230278 35.15625,6.6875 34.4179,5.7828164 33.221144,5 31.71875,5 l -17.75,0 z"
       id="path3736"
       style="opacity:0.1;fill:url(#linearGradient3738);fill-opacity:1;fill-rule:nonzero;stroke:none;display:inline" />
    <path
       d="m 13.96875,6.03125 c -2.207961,0 -4.0625,1.7904059 -4.0625,4 l 0,8.875 c -2.3522189,1.287028 -4,3.727103 -4,6.59375 l 0,5.34375 c -1.1978966,1.400516 -2,3.16038 -2,5.15625 l 0,49 c 0,4.459216 3.6345342,8.09375 8.09375,8.09375 l 72,0 c 4.459216,0 8.09375,-3.634534 8.09375,-8.09375 l 0,-49 c 0,-1.995869 -0.802103,-3.755734 -2,-5.15625 l 0,-5.34375 c 0,-2.866647 -1.647781,-5.306722 -4,-6.59375 l 0,-1.5625 c 0,-3.012856 -2.498783,-5.46875 -5.53125,-5.46875 l -43.75,0 -1.15625,-2.3125 a 1.0830462,1.0830462 0 0 0 0,-0.03125 C 35.302675,8.8344532 34.951407,8.0500081 34.375,7.34375 33.798593,6.6374919 32.860282,6.03125 31.71875,6.03125 l -17.75,0 z"
       id="path3728"
       style="opacity:0.15;fill:url(#linearGradient3730);fill-opacity:1;fill-rule:nonzero;stroke:none;display:inline" />
    <path
       d="M 14.875,7 C 13.27948,7 12,8.27948 12,9.875 l 0,7.21875 0,2.25 C 9.666493,20.164656 8,22.378888 8,25 l 0,5.53125 C 6.774567,31.628291 6,33.218238 6,35 l 0,50 c 0,3.324 2.676,6 6,6 l 72,0 c 3.324,0 6,-2.676 6,-6 l 0,-50 c 0,-1.781762 -0.774568,-3.371709 -2,-4.46875 L 88,25 c 0,-2.621112 -1.666493,-4.835344 -4,-5.65625 l 0,-2.25 C 84,14.70047 82.08078,12.75 79.6875,12.75 l -43.21875,0 -1.4375,-2.875 C 34.317712,8.4479235 33.75177,7 32.15625,7 L 14.875,7 z"
       id="path2878"
       style="opacity:0.45;fill:url(#linearGradient3692);fill-opacity:1;fill-rule:nonzero;stroke:none;display:inline" />
    <path
       d="M 13.96875,7.125 C 12.32891,7.125 11,8.4154163 11,10.03125 L 11,19.5 c -2.3489742,0.977679 -4,3.28882 -4,6 l 0,5.625 C 5.7660954,32.379515 5,34.090054 5,36 l 0,49 c 0,3.878 3.122,7 7,7 l 72,0 c 3.878,0 7,-3.122 7,-7 l 0,-49 c 0,-1.909946 -0.766095,-3.620485 -2,-4.875 L 89,25.5 c 0,-2.71118 -1.651026,-5.022321 -4,-6 l 0,-2.15625 c 0,-2.42375 -1.97774,-4.375 -4.4375,-4.375 l -44.40625,0 -1.46875,-2.9375 C 33.954141,8.5860044 33.35859,7.125 31.71875,7.125 l -17.75,0 z"
       id="path3679"
       style="opacity:0.3;fill:url(#linearGradient3718);fill-opacity:1;fill-rule:nonzero;stroke:none;display:inline" />
  </g>
  <g
     id="layer3"
     style="display:inline">
    <path
       d="M 14.88,6 C 13.28448,6 12,7.28448 12,8.88 l 0,7.2 0,50.4 0,4.32 c 0,2.39328 1.92672,4.32 4.32,4.32 l 63.36,0 c 2.39328,0 4.32,-1.92672 4.32,-4.32 l 0,-54.72 c 0,-2.39328 -1.92672,-4.32 -4.32,-4.32 l -43.2,0 -1.44,-2.88 C 34.326462,7.4529235 33.75552,6 32.16,6 L 14.88,6 z"
       id="rect3325"
       style="fill:url(#linearGradient4023);fill-opacity:1;fill-rule:nonzero;stroke:none;display:inline" />
    <path
       d="M 14.875,6 C 13.27948,6 12,7.27948 12,8.875 l 0,7.21875 0,50.375 0,4.34375 c 0,2.393277 1.91922,4.3125 4.3125,4.3125 l 63.375,0 C 82.08078,75.124997 84,73.20578 84,70.8125 L 84,16.09375 C 84,13.70047 82.08078,11.75 79.6875,11.75 l -43.21875,0 -1.4375,-2.875 C 34.317711,7.4479234 33.75177,6 32.15625,6 L 14.875,6 z m 0,1.9375 17.28125,0 c 0.48716,0 0.660447,0.1126732 0.96875,0.5 0.308303,0.3873268 0.629671,1.0718434 1,1.8125 l 1.4375,2.875 c 0.173379,0.341986 0.522842,0.558894 0.90625,0.5625 l 43.21875,0 c 1.835408,0 3.28125,1.468154 3.28125,3.3125 l 0,54.71875 c 0,1.844346 -1.436902,3.281248 -3.28125,3.28125 l -63.375,0 c -1.844346,0 -3.28125,-1.436907 -3.28125,-3.28125 l 0,-4.34375 0,-50.375 0,-7.21875 c 0,-1.0465864 0.797164,-1.84375 1.84375,-1.84375 z"
       id="path3997"
       style="opacity:0.3;fill:url(#linearGradient4010);fill-opacity:1;fill-rule:nonzero;stroke:none;display:inline" />
  </g>
  <g
     id="layer4">
    <rect
       width="80"
       height="32"
       rx="6"
       ry="6"
       x="8"
       y="18"
       id="rect2863"
       style="fill:url(#linearGradient3643);fill-opacity:1;stroke:none" />
    <path
       d="m 14,18 c -3.324,0 -6,2.676 -6,6 l 0,20 c 0,2.974194 2.136686,5.422392 4.96875,5.90625 C 10.674877,49.44576 9,47.44451 9,45 L 9,25 c 0,-2.793726 2.206274,-5 5,-5 l 68,0 c 2.793726,0 5,2.206274 5,5 l 0,20 c 0,2.44451 -1.674877,4.44576 -3.96875,4.90625 C 85.863314,49.422392 88,46.974194 88,44 l 0,-20 c 0,-3.324 -2.676,-6 -6,-6 l -68,0 z"
       id="rect3647"
       style="opacity:0.8;fill:#ffffff;fill-opacity:1;stroke:none" />
    <rect
       width="80"
       height="7.1223278"
       x="8"
       y="22.877672"
       id="rect3664"
       style="opacity:0.2;fill:url(#linearGradient3666);fill-opacity:1;stroke:none" />
  </g>
  <g
     id="layer1">
    <rect
       width="84"
       height="62"
       rx="6"
       ry="6"
       x="6"
       y="28"
       id="rect2419"
       style="fill:url(#linearGradient3706);fill-opacity:1;fill-rule:nonzero;stroke:none" />
    <path
       d="M 12,28 C 8.1664778,27.865356 5.437668,31.719831 6,35.324934 6.0182267,55.046578 5.9635941,64.770241 6.027225,84.490627 5.4042181,86.817486 10.106592,90.112109 9.4375,89.28125 6.2443569,87.50699 7.1210795,83.590903 7,80.570955 7.0171381,61.875988 6.965773,53.179319 7.02559,34.485413 7.2333142,31.245774 10.611618,29.546599 13.545756,30 c 23.656065,0.01707 47.313826,-0.03414 70.968831,0.02559 3.239639,0.207724 4.938814,3.586028 4.485413,6.520166 -0.02354,19.664295 0.04703,29.331652 -0.03517,48.994038 0.412935,2.431244 -5.152855,5.528097 -1.087717,2.991175 C 90.899219,86.11209 89.784847,82.026839 90,78.687666 89.979342,60.25365 90.041266,51.817564 89.969136,33.384839 89.719134,29.67006 85.894704,27.489808 82.454244,28 58.969496,28 35.484748,28 12,28 z"
       id="rect3728"
       style="opacity:0.5;fill:url(#linearGradient2865);fill-opacity:1;fill-rule:nonzero;stroke:none" />
    <rect
       width="54.464287"
       height="34.82143"
       rx="9"
       ry="9"
       x="13.306199"
       y="13.887781"
       transform="matrix(0.8917533,0,0,0.69625935,12.134153,30.330503)"
       id="rect2399"
       style="opacity:0.15;fill:#ffffff;fill-opacity:1;fill-rule:nonzero;stroke:none;filter:url(#filter3179)" />
    <path
       d="M 12,90 C 8.1664778,90.134644 5.437668,86.280169 6,82.675066 6.0182267,62.953422 5.9635941,53.229759 6.027225,33.509373 5.4042181,31.182514 10.106592,27.887891 9.4375,28.71875 6.2443569,30.49301 7.1210795,34.409097 7,37.429045 7.0171381,56.124012 6.965773,64.820681 7.02559,83.514587 7.2333142,86.754226 10.611618,88.453401 13.545756,88 37.201821,87.982926 60.859582,88.034139 84.514587,87.97441 87.754226,87.766686 89.453401,84.388382 89,81.454244 88.976458,61.789949 89.047025,52.122592 88.96483,32.460206 89.377765,30.028962 83.811975,26.932109 87.877113,29.469031 90.899219,31.88791 89.784847,35.973161 90,39.312334 89.979342,57.74635 90.041266,66.182436 89.969136,84.615161 89.719134,88.32994 85.894704,90.510192 82.454244,90 58.969496,90 35.484748,90 12,90 z"
       id="path3615"
       style="opacity:0.2;fill:url(#radialGradient2862);fill-opacity:1;fill-rule:nonzero;stroke:none" />
  </g>
</svg>
