<?xml version="1.0" encoding="UTF-8" standalone="no"?>
<svg
   height="16"
   width="16"
   version="1.1"
   id="svg6"
   sodipodi:docname="folder-publicshare-symbolic-new.svg"
   inkscape:version="1.2.1 (9c6d41e410, 2022-07-14)"
   xml:space="preserve"
   xmlns:inkscape="http://www.inkscape.org/namespaces/inkscape"
   xmlns:sodipodi="http://sodipodi.sourceforge.net/DTD/sodipodi-0.dtd"
   xmlns="http://www.w3.org/2000/svg"
   xmlns:svg="http://www.w3.org/2000/svg"
   xmlns:rdf="http://www.w3.org/1999/02/22-rdf-syntax-ns#"
   xmlns:cc="http://creativecommons.org/ns#"
   xmlns:dc="http://purl.org/dc/elements/1.1/"><metadata
     id="metadata12"><rdf:RDF><cc:Work
         rdf:about=""><dc:format>image/svg+xml</dc:format><dc:type
           rdf:resource="http://purl.org/dc/dcmitype/StillImage" /></cc:Work></rdf:RDF></metadata><defs
     id="defs10" /><sodipodi:namedview
     pagecolor="#ffffff"
     bordercolor="#666666"
     borderopacity="1"
     objecttolerance="10"
     gridtolerance="10"
     guidetolerance="10"
     inkscape:pageopacity="0"
     inkscape:pageshadow="2"
     inkscape:window-width="1366"
     inkscape:window-height="704"
     id="namedview8"
     showgrid="false"
     inkscape:zoom="29.5"
     inkscape:cx="-4.8135593"
     inkscape:cy="7.1355932"
     inkscape:window-x="0"
     inkscape:window-y="30"
     inkscape:window-maximized="1"
     inkscape:current-layer="svg6"
     inkscape:showpageshadow="2"
     inkscape:pagecheckerboard="0"
     inkscape:deskcolor="#d1d1d1" /><path
     d="m 12.00001,9.9999999 c -0.7065,0 -1.35584,0.2443401 -1.86844,0.6529701 L 6.9288799,8.6512797 a 3.0172188,3.0172188 0 0 0 0,-1.30259 l 3.2026901,-2.00169 c 0.5126,0.40866 1.16194,0.653 1.86844,0.653 1.65684,0 3,-1.34316 3,-3 0,-1.65684 -1.34316,-2.999999915 -3,-2.999999915 -1.65684,0 -3.0000001,1.343159915 -3.0000001,2.999999915 0,0.22369 0.0247,0.44156 0.0711,0.65128 l -3.20268,2.00169 c -0.5125997,-0.40863 -1.1619397,-0.65297 -1.8684397,-0.65297 -1.65684,0 -3,1.34316 -3,3 0,1.65684 1.34316,3.0000003 3,3.0000003 0.7065,0 1.35584,-0.24434 1.8684397,-0.65297 l 3.20268,2.00169 A 3.0094063,3.0094063 0 0 0 9.0000099,13 c 0,1.65684 1.3431601,3 3.0000001,3 1.65684,0 3,-1.34316 3,-3 0,-1.65684 -1.34316,-3.0000001 -3,-3.0000001 z"
     id="path289"
     style="stroke-width:0.03125;fill:#444444;fill-opacity:1" /></svg>
