<?xml version="1.0" encoding="UTF-8" standalone="no"?>
<svg
   width="16"
   height="16"
   version="1.1"
   id="svg6"
   sodipodi:docname="mail-archive-symbolic.svg"
   xml:space="preserve"
   inkscape:version="1.2.1 (9c6d41e410, 2022-07-14)"
   xmlns:inkscape="http://www.inkscape.org/namespaces/inkscape"
   xmlns:sodipodi="http://sodipodi.sourceforge.net/DTD/sodipodi-0.dtd"
   xmlns="http://www.w3.org/2000/svg"
   xmlns:svg="http://www.w3.org/2000/svg"><defs
     id="defs10" /><sodipodi:namedview
     id="namedview8"
     pagecolor="#ffffff"
     bordercolor="#000000"
     borderopacity="0.25"
     inkscape:showpageshadow="2"
     inkscape:pageopacity="0.0"
     inkscape:pagecheckerboard="0"
     inkscape:deskcolor="#d1d1d1"
     showgrid="false"
     inkscape:zoom="22.693708"
     inkscape:cx="-8.5486249"
     inkscape:cy="6.6317941"
     inkscape:current-layer="svg6" /><path
     d="m 15.392299,6.6468891 0.0088,-0.00367 -1.875,-3.75 A 0.9395625,0.9395625 0 0 0 12.687474,2.3750006 H 3.3124747 a 0.9395625,0.9395625 0 0 0 -0.838624,0.5181877 l -1.87500005,3.7500001 0.0054,0.00881 a 0.91890622,0.91890622 0 0 0 -0.10425,0.4104997 v 5.6250009 a 0.9369687,0.9369687 0 0 0 0.93750005,0.9375 H 14.5625 a 0.9369687,0.9369687 0 0 0 0.937499,-0.9375 V 7.0624981 A 0.9183594,0.9183594 0 0 0 15.392324,6.6468704 Z M 3.8920187,4.2500144 h 8.2159363 l 0.9375,1.875 h -2.405094 a 0.93653122,0.93653122 0 0 0 -0.8834833,0.6243907 1.8593749,1.8593749 0 0 1 -3.513781,0 0.93651562,0.93651562 0 0 0 -0.883485,-0.6243907 H 2.9545187 Z M 13.624986,11.750014 H 2.3749867 V 8.0000139 h 2.389532 a 3.7290312,3.7290312 0 0 0 6.4709363,0 h 2.389531 z"
     id="path241"
     style="stroke-width:0.15625;fill:#444444;fill-opacity:1" /></svg>
