<?xml version="1.0" encoding="UTF-8" standalone="no"?>
<svg
   width="16"
   height="16"
   version="1.1"
   id="svg6"
   sodipodi:docname="mail-folder-outbox-symbolic.svg"
   xml:space="preserve"
   inkscape:version="1.2.1 (9c6d41e410, 2022-07-14)"
   xmlns:inkscape="http://www.inkscape.org/namespaces/inkscape"
   xmlns:sodipodi="http://sodipodi.sourceforge.net/DTD/sodipodi-0.dtd"
   xmlns="http://www.w3.org/2000/svg"
   xmlns:svg="http://www.w3.org/2000/svg"><defs
     id="defs10" /><sodipodi:namedview
     id="namedview8"
     pagecolor="#ffffff"
     bordercolor="#000000"
     borderopacity="0.25"
     inkscape:showpageshadow="2"
     inkscape:pageopacity="0.0"
     inkscape:pagecheckerboard="0"
     inkscape:deskcolor="#d1d1d1"
     showgrid="false"
     inkscape:zoom="45.387416"
     inkscape:cx="1.3219523"
     inkscape:cy="6.4665501"
     inkscape:current-layer="svg6" /><g
     id="g155"
     transform="matrix(0.53571429,0,0,0.51071429,-0.57142864,-0.34285728)"
     style="fill:#444444;fill-opacity:1">
	<path
   d="M 16,16.8 29.8,7.6 C 29.2,5.5 27.3,4 25,4 H 7 C 4.7,4 2.8,5.5 2.2,7.6 Z"
   id="path151"
   style="fill:#444444;fill-opacity:1" />
	<path
   d="M 16.6,18.8 C 16.4,18.9 16.2,19 16,19 15.8,19 15.6,18.9 15.4,18.8 L 2,9.9 V 23 c 0,2.8 2.2,5 5,5 h 1 v 3 c 0,0.4 0.2,0.7 0.5,0.9 C 8.7,32 8.8,32 9,32 9.2,32 9.4,31.9 9.6,31.8 13.4,29.3 17.7,28 22.3,28 H 25 c 2.8,0 5,-2.2 5,-5 V 9.9 Z"
   id="path153"
   style="fill:#444444;fill-opacity:1" />
</g></svg>
