<?xml version="1.0" encoding="UTF-8" standalone="no"?>
<svg
   width="16"
   height="16"
   version="1.1"
   id="svg4"
   sodipodi:docname="user-home-symbolic.svg"
   xml:space="preserve"
   inkscape:version="1.2.1 (9c6d41e410, 2022-07-14)"
   xmlns:inkscape="http://www.inkscape.org/namespaces/inkscape"
   xmlns:sodipodi="http://sodipodi.sourceforge.net/DTD/sodipodi-0.dtd"
   xmlns="http://www.w3.org/2000/svg"
   xmlns:svg="http://www.w3.org/2000/svg"><defs
     id="defs8" /><sodipodi:namedview
     id="namedview6"
     pagecolor="#ffffff"
     bordercolor="#000000"
     borderopacity="0.25"
     inkscape:showpageshadow="2"
     inkscape:pageopacity="0.0"
     inkscape:pagecheckerboard="0"
     inkscape:deskcolor="#d1d1d1"
     showgrid="false"
     inkscape:zoom="22.693708"
     inkscape:cx="-19.080178"
     inkscape:cy="2.8421975"
     inkscape:current-layer="svg4" /><g
     id="g303"
     transform="matrix(0.04542122,0,0,0.04542122,0.50000273,0.50002544)"
     style="fill:#444444;fill-opacity:1"><path
       d="M 324.442,129.811 283.121,96.134 V 42.275 c 0,-6.065 -4.935,-11 -11,-11 h -26 c -6.065,0 -11,4.935 -11,11 V 57.012 L 179.908,12.013 c -3.994,-3.254 -9.258,-5.047 -14.822,-5.047 -5.542,0 -10.781,1.782 -14.753,5.019 L 5.8,129.81 c -6.567,5.351 -6.173,10.012 -5.354,12.314 0.817,2.297 3.448,6.151 11.884,6.151 h 19.791 v 154.947 c 0,11.058 8.972,20.053 20,20.053 h 62.5 c 10.935,0 19.5,-8.809 19.5,-20.053 v -63.541 c 0,-5.446 5.005,-10.405 10.5,-10.405 h 42 c 5.238,0 9.5,4.668 9.5,10.405 v 63.541 c 0,10.87 9.388,20.053 20.5,20.053 h 61.5 c 11.028,0 20,-8.996 20,-20.053 V 148.275 h 19.791 c 8.436,0 11.066,-3.854 11.884,-6.151 0.819,-2.302 1.213,-6.963 -5.354,-12.313 z"
       id="path250"
       style="fill:#444444;fill-opacity:1" /><g
       id="g252"
       style="fill:#444444;fill-opacity:1">
</g><g
       id="g254"
       style="fill:#444444;fill-opacity:1">
</g><g
       id="g256"
       style="fill:#444444;fill-opacity:1">
</g><g
       id="g258"
       style="fill:#444444;fill-opacity:1">
</g><g
       id="g260"
       style="fill:#444444;fill-opacity:1">
</g><g
       id="g262"
       style="fill:#444444;fill-opacity:1">
</g><g
       id="g264"
       style="fill:#444444;fill-opacity:1">
</g><g
       id="g266"
       style="fill:#444444;fill-opacity:1">
</g><g
       id="g268"
       style="fill:#444444;fill-opacity:1">
</g><g
       id="g270"
       style="fill:#444444;fill-opacity:1">
</g><g
       id="g272"
       style="fill:#444444;fill-opacity:1">
</g><g
       id="g274"
       style="fill:#444444;fill-opacity:1">
</g><g
       id="g276"
       style="fill:#444444;fill-opacity:1">
</g><g
       id="g278"
       style="fill:#444444;fill-opacity:1">
</g><g
       id="g280"
       style="fill:#444444;fill-opacity:1">
</g></g></svg>
