<?xml version="1.0" encoding="utf-8"?>
<!-- Generator: Adobe Illustrator 23.0.0, SVG Export Plug-In . SVG Version: 6.00 Build 0)  -->
<svg version="1.1" id="레이어_1" xmlns="http://www.w3.org/2000/svg" xmlns:xlink="http://www.w3.org/1999/xlink" x="0px"
	 y="0px" viewBox="0 0 16 16" style="enable-background:new 0 0 16 16;" xml:space="preserve">
<style type="text/css">
	.st0{opacity:0.2;fill:#DEDEDE;}
	.st1{fill:#DEDEDE;}
	.st2{opacity:0.6;fill:#DEDEDE;}
	.st3{opacity:0.3;fill:#DEDEDE;}
</style>
<g>
	<path class="st0" d="M12.2,14H3.8c-1,0-1.8-0.8-1.8-1.8V3.8C2,2.8,2.8,2,3.8,2h8.5c1,0,1.8,0.8,1.8,1.8v8.5
		C14,13.2,13.2,14,12.2,14z"/>
	<path class="st1" d="M12.3,2H8v2.5c0.2-0.6,0.8-1.1,1.4-1.1c0.8,0,1.5,0.7,1.5,1.5c0,0.8-0.7,1.5-1.5,1.5C8.8,6.4,8.2,6,8,5.3V8h6
		V3.7C14,2.7,13.3,2,12.3,2z"/>
	<path class="st2" d="M8,8v2.7c-0.2-0.6-0.8-1.1-1.4-1.1c-0.8,0-1.5,0.7-1.5,1.5c0,0.8,0.7,1.5,1.5,1.5c0.7,0,1.3-0.5,1.4-1.1V14
		h4.3c0.9,0,1.7-0.7,1.7-1.7V8H8z"/>
	<path class="st3" d="M6.6,12.6c-0.8,0-1.5-0.7-1.5-1.5c0-0.8,0.7-1.5,1.5-1.5c0.7,0,1.3,0.5,1.4,1.1V8H2v4.3C2,13.3,2.7,14,3.7,14
		H8v-2.5C7.8,12.2,7.2,12.6,6.6,12.6z"/>
</g>
</svg>
