<?xml version="1.0" encoding="UTF-8" standalone="no"?>
<!-- Generator: Adobe Illustrator 23.0.0, SVG Export Plug-In . SVG Version: 6.00 Build 0)  -->

<svg
   xmlns:dc="http://purl.org/dc/elements/1.1/"
   xmlns:cc="http://creativecommons.org/ns#"
   xmlns:rdf="http://www.w3.org/1999/02/22-rdf-syntax-ns#"
   xmlns:svg="http://www.w3.org/2000/svg"
   xmlns="http://www.w3.org/2000/svg"
   xmlns:sodipodi="http://sodipodi.sourceforge.net/DTD/sodipodi-0.dtd"
   xmlns:inkscape="http://www.inkscape.org/namespaces/inkscape"
   version="1.1"
   id="레이어_1"
   x="0px"
   y="0px"
   viewBox="0 0 16 16"
   xml:space="preserve"
   sodipodi:docname="gnome-mahjongg.svg"
   width="16"
   height="16"
   inkscape:version="0.92.5 (2060ec1f9f, 2020-04-08)"><metadata
   id="metadata27"><rdf:RDF><cc:Work
       rdf:about=""><dc:format>image/svg+xml</dc:format><dc:type
         rdf:resource="http://purl.org/dc/dcmitype/StillImage" /><dc:title></dc:title></cc:Work></rdf:RDF></metadata><defs
   id="defs25">
	
	
</defs><sodipodi:namedview
   pagecolor="#ffffff"
   bordercolor="#666666"
   borderopacity="1"
   objecttolerance="10"
   gridtolerance="10"
   guidetolerance="10"
   inkscape:pageopacity="0"
   inkscape:pageshadow="2"
   inkscape:window-width="1848"
   inkscape:window-height="1052"
   id="namedview23"
   showgrid="false"
   inkscape:zoom="5.2149125"
   inkscape:cx="-56.066997"
   inkscape:cy="53.413075"
   inkscape:window-x="72"
   inkscape:window-y="28"
   inkscape:window-maximized="1"
   inkscape:current-layer="레이어_1" />
<style
   type="text/css"
   id="style2">
	.st0{opacity:0.1;}
	.st1{fill:#666699;}
	.st2{fill:#339966;}
	.st3{fill:#FFFFCC;}
	.st4{fill:#CC3333;}
</style>


<path
   style="fill:#dedede;fill-opacity:1;stroke-width:0.09660918"
   d="M 4.1,1 C 3.49,1 3,1.4573333 3,2.0266667 V 13.973333 C 3,14.542667 3.49,15 4.1,15 h 7.8 C 12.51,15 13,14.542667 13,13.973333 V 2.0266667 C 13,1.4573333 12.51,1 11.9,1 Z M 7.540039,4.2666667 8.259961,4.378592 v 0.7466667 h 2.259961 c 0.08,0 0.140156,-0.00933 0.160156,-0.018573 0.03,-0.00933 0.06988,-0.037333 0.129883,-0.084 0.03,-0.018667 0.07008,-0.046573 0.130078,-0.074573 0.06,-0.028 0.129961,-0.028 0.209961,0.00933 l 0.380078,0.167888 c 0.16,0.065333 0.239844,0.1587414 0.239844,0.261408 0,0.056 -0.01992,0.09324 -0.06992,0.1119254 -0.05,0.018667 -0.110039,0.028093 -0.190039,0.028093 h -3.25 V 6.1520187 H 9.65 c 0.04,0 0.07,-0.018667 0.1,-0.056 0.03,-0.037333 0.07004,-0.046573 0.140039,-0.027907 l 0.629883,0.149296 -0.03984,0.289296 v 2.4080747 c 0,0.056 -0.03008,0.1118506 -0.08008,0.177184 -0.05,0.065333 -0.160078,0.1027786 -0.330078,0.112112 -0.06,0.00933 -0.09988,-0.00943 -0.129883,-0.028093 -0.03,-0.028 -0.06012,-0.056 -0.07012,-0.093333 -0.02,-0.037333 -0.03984,-0.084 -0.03984,-0.14 h -1.05 c 0.4,0.3266667 0.849844,0.6440746 1.339844,0.9614076 0.49,0.317333 1.04,0.597333 1.65,0.84 0.12,0.04667 0.17,0.08391 0.15,0.111925 -0.01,0.028 -0.05,0.06533 -0.1,0.09333 l -0.35,0.17737 c -0.05,0.028 -0.109844,0.03733 -0.189844,0.04667 -0.08,0 -0.150078,-0.01867 -0.230078,-0.056 -0.16,-0.07467 -0.349961,-0.177445 -0.559961,-0.298779 C 10.280039,10.687925 10.05,10.548 9.8,10.38 9.55,10.212 9.300039,10.034629 9.040039,9.829296 8.780039,9.623963 8.519961,9.4092587 8.259961,9.1852587 v 2.1654453 c 0,0.028 -0.0099,0.07457 -0.02988,0.121221 -0.02,0.04667 -0.05004,0.09337 -0.09004,0.130704 -0.04,0.03733 -0.09,0.07467 -0.15,0.10263 -0.06,0.028 -0.129961,0.03733 -0.209961,0.03733 -0.12,0 -0.190156,-0.028 -0.210156,-0.09333 -0.02,-0.06533 -0.02988,-0.149222 -0.02988,-0.261222 V 9.194704 c -0.15,0.1493333 -0.330039,0.317221 -0.540039,0.494555 -0.21,0.177333 -0.45,0.354778 -0.7,0.532112 -0.26,0.177333 -0.539961,0.345184 -0.859961,0.50385 -0.31,0.158667 -0.640039,0.298704 -0.990039,0.410704 -0.07,0.01867 -0.130039,0.01867 -0.190039,0 -0.05,-0.01867 -0.09992,-0.04667 -0.119922,-0.084 -0.03,-0.03733 -0.03012,-0.08391 -0.02012,-0.121221 0.01,-0.04667 0.05012,-0.08409 0.120117,-0.112112 0.35,-0.158667 0.669961,-0.326517 0.959961,-0.503851 0.29,-0.168 0.539922,-0.34537 0.769922,-0.504037 0.22,-0.168 0.420078,-0.3266293 0.580078,-0.4759627 0.16,-0.1493333 0.3,-0.280112 0.4,-0.392112 H 5.9 C 5.89,9.0546293 5.84992,9.12 5.769922,9.1666667 c -0.08,0.037333 -0.179844,0.056 -0.289844,0.056 -0.06,0 -0.110039,-0.00933 -0.140039,-0.027907 -0.03,-0.018667 -0.05012,-0.046667 -0.07012,-0.084 -0.01,-0.028 -0.01992,-0.065333 -0.01992,-0.1026293 V 8.9147973 6.1519813 H 7.540038 V 5.5174267 H 4.469921 c -0.12,0 -0.209883,-0.028 -0.279883,-0.084 -0.07,-0.056 -0.109961,-0.1120374 -0.109961,-0.1773707 0,-0.028 0.02,-0.065333 0.05,-0.093333 0.03,-0.028 0.08996,-0.046667 0.159961,-0.046667 h 3.25 z m -1.6,2.2866666 v 0.84 h 1.6 v -0.84 z m 2.319922,0 v 0.84 h 1.530078 v -0.84 z M 5.940039,7.7759627 V 8.541408 h 1.6 V 7.7759627 Z m 2.319922,0 V 8.541408 H 9.790039 V 7.7759627 Z"
   id="path14"
   inkscape:connector-curvature="0" />
<g
   id="g20"
   transform="translate(0,-240)">
	
</g>
</svg>
