<?xml version="1.0" encoding="utf-8"?>
<!-- Generator: Adobe Illustrator 23.0.0, SVG Export Plug-In . SVG Version: 6.00 Build 0)  -->
<svg version="1.1" id="레이어_1" xmlns="http://www.w3.org/2000/svg" xmlns:xlink="http://www.w3.org/1999/xlink" x="0px"
	 y="0px" viewBox="0 0 16 16" style="enable-background:new 0 0 16 16;" xml:space="preserve">
<style type="text/css">
	.st0{fill:#DEDEDE;}
</style>
<path class="st0" d="M12.8,2.1H3.2c-0.9,0-1.7,0.8-1.7,1.7v5.9c0,0.9,0.8,1.7,1.7,1.7h0.9v2.5c0.8-0.8,1.6-1.7,2.4-2.5h6.3
	c0.9,0,1.7-0.8,1.7-1.7V3.8C14.5,2.8,13.7,2.1,12.8,2.1z M4.5,8C3.8,8,3.2,7.4,3.2,6.7s0.6-1.3,1.3-1.3S5.8,6,5.8,6.7S5.2,8,4.5,8z
	 M8,8C7.3,8,6.7,7.4,6.7,6.7S7.3,5.5,8,5.5s1.3,0.6,1.3,1.3S8.7,8,8,8z M11.6,8c-0.7,0-1.3-0.6-1.3-1.3s0.6-1.3,1.3-1.3
	s1.3,0.6,1.3,1.3S12.3,8,11.6,8z"/>
</svg>
