<?xml version="1.0" encoding="utf-8"?>
<!-- Generator: Adobe Illustrator 23.0.0, SVG Export Plug-In . SVG Version: 6.00 Build 0)  -->
<svg version="1.1" id="레이어_1" xmlns="http://www.w3.org/2000/svg" xmlns:xlink="http://www.w3.org/1999/xlink" x="0px"
	 y="0px" viewBox="0 0 16 16" style="enable-background:new 0 0 16 16;" xml:space="preserve">
<style type="text/css">
	.st0{fill:#DEDEDE;}
	.st1{opacity:0.4;fill:#DEDEDE;}
</style>
<g>
	<path class="st0" d="M9.1,10.7c0-1,0.8-1.8,1.8-1.8H14c-1.6,1.7-3.3,3.4-4.9,5V10.7z"/>
	<path class="st1" d="M9.1,10.7c0-1,0.8-1.8,1.8-1.8H14V4.1C14,3,13,2,11.8,2H4.1C3.4,2,2.7,2.4,2.3,3.1c0.7,0.1,1.2,0.6,1.2,1.3
		c0,0.7-0.6,1.3-1.3,1.3c0,0-0.1,0-0.1,0v1c0,0,0.1,0,0.1,0c0.7,0,1.3,0.6,1.3,1.3c0,0.7-0.6,1.3-1.3,1.3c0,0-0.1,0-0.1,0v1
		c0,0,0.1,0,0.1,0c0.7,0,1.3,0.6,1.3,1.3c0,0.7-0.5,1.2-1.2,1.3C2.7,13.5,3.4,14,4.1,14h4.9V10.7z"/>
</g>
</svg>
