<?xml version="1.0" encoding="utf-8"?>
<!-- Generator: Adobe Illustrator 23.0.0, SVG Export Plug-In . SVG Version: 6.00 Build 0)  -->
<svg version="1.1" id="레이어_1" xmlns="http://www.w3.org/2000/svg" xmlns:xlink="http://www.w3.org/1999/xlink" x="0px"
	 y="0px" viewBox="0 0 16 16" style="enable-background:new 0 0 16 16;" xml:space="preserve">
<style type="text/css">
	.st0{fill:#DEDEDE;}
</style>
<path class="st0" d="M13.5,2.8H2.5C1.7,2.8,1,3.4,1,4.3v7.4c0,0.9,0.7,1.5,1.5,1.5h10.9c0.8,0,1.5-0.7,1.5-1.5V4.3
	C15,3.4,14.3,2.8,13.5,2.8z M8.2,4.7c0.4,0,0.8,0.3,0.8,0.8c0,0.4-0.3,0.8-0.8,0.8S7.4,6,7.4,5.5C7.4,5.1,7.7,4.7,8.2,4.7z M8.2,7.3
	c0.4,0,0.8,0.3,0.8,0.8S8.6,8.8,8.2,8.8S7.4,8.5,7.4,8.1S7.7,7.3,8.2,7.3z M5.8,4.7c0.4,0,0.8,0.3,0.8,0.8c0,0.4-0.3,0.8-0.8,0.8
	S5,6,5,5.5C5,5.1,5.4,4.7,5.8,4.7z M3.6,8.8c-0.4,0-0.8-0.4-0.8-0.8c0-0.4,0.3-0.8,0.8-0.8s0.8,0.3,0.8,0.8C4.3,8.5,4,8.8,3.6,8.8z
	 M3.6,6.3C3.1,6.3,2.8,6,2.8,5.5c0-0.4,0.3-0.8,0.8-0.8s0.8,0.3,0.8,0.8C4.3,6,4,6.3,3.6,6.3z M5,8.1c0-0.4,0.3-0.8,0.8-0.8
	s0.8,0.3,0.8,0.8c0,0.4-0.3,0.8-0.8,0.8S5,8.5,5,8.1z M10.7,11.7H5.3V10h5.4V11.7z M10.3,8.8c-0.4,0-0.8-0.4-0.8-0.8
	c0-0.4,0.3-0.8,0.8-0.8s0.8,0.3,0.8,0.8C11.1,8.5,10.7,8.8,10.3,8.8z M10.3,6.3C9.8,6.3,9.5,6,9.5,5.5c0-0.4,0.3-0.8,0.8-0.8
	s0.8,0.3,0.8,0.8C11.1,6,10.7,6.3,10.3,6.3z M12.5,8.8c-0.4,0-0.8-0.4-0.8-0.8c0-0.4,0.3-0.8,0.8-0.8s0.8,0.3,0.8,0.8
	C13.3,8.5,12.9,8.8,12.5,8.8z M12.5,6.3c-0.4,0-0.8-0.3-0.8-0.8c0-0.4,0.3-0.8,0.8-0.8s0.8,0.3,0.8,0.8C13.3,6,12.9,6.3,12.5,6.3z"
	/>
</svg>
