<?xml version="1.0" encoding="utf-8"?>
<!-- Generator: Adobe Illustrator 23.0.0, SVG Export Plug-In . SVG Version: 6.00 Build 0)  -->
<svg version="1.1" id="레이어_1" xmlns="http://www.w3.org/2000/svg" xmlns:xlink="http://www.w3.org/1999/xlink" x="0px"
	 y="0px" viewBox="0 0 16 16" style="enable-background:new 0 0 16 16;" xml:space="preserve">
<style type="text/css">
	.st0{opacity:0.3;fill:#DEDEDE;enable-background:new    ;}
	.st1{fill:#DEDEDE;}
</style>
<g>
	<path class="st0" d="M7.8,8.9H2.5c-0.6,0-1-0.5-1-1V2.5c0-0.6,0.5-1,1-1h5.3c0.6,0,1,0.5,1,1v5.3C8.8,8.4,8.4,8.9,7.8,8.9z"/>
	<g>
		<path class="st1" d="M6,6.5H4.3L3.9,7.6H3.1l1.6-4.8h0.9l1.6,4.8H6.4L6,6.5z M5.8,5.8L5.1,3.6L4.5,5.8H5.8z"/>
	</g>
	<path class="st1" d="M13.5,7.1H8.8v0.7c0,0.6-0.5,1-1,1H7.2v4.6c0,0.6,0.5,1,1,1h5.3c0.6,0,1-0.5,1-1V8.2C14.5,7.6,14,7.1,13.5,7.1
		z M10.9,9.7c-0.1,0.4-0.3,0.7-0.5,1.1c-0.2,0.3-0.4,0.6-0.7,0.9c-0.3,0.3-0.6,0.5-0.9,0.7l-0.5-0.5c0.3-0.2,0.5-0.3,0.7-0.5
		s0.4-0.4,0.6-0.6c0.2-0.2,0.3-0.5,0.4-0.7c0.1-0.3,0.2-0.5,0.2-0.8H8.6V8.5H11C11,8.9,11,9.3,10.9,9.7z M13.3,10.7h-0.8v2.8h-0.7
		V8.2h0.7V10h0.8V10.7z"/>
</g>
</svg>
