<?xml version="1.0" encoding="utf-8"?>
<!-- Generator: Adobe Illustrator 23.0.0, SVG Export Plug-In . SVG Version: 6.00 Build 0)  -->
<svg version="1.1" id="레이어_1" xmlns="http://www.w3.org/2000/svg" xmlns:xlink="http://www.w3.org/1999/xlink" x="0px"
	 y="0px" viewBox="0 0 16 16" style="enable-background:new 0 0 16 16;" xml:space="preserve">
<style type="text/css">
	.st0{fill:#DEDEDE;}
</style>
<path class="st0" d="M13.2,2H2.8C1.8,2,1,2.8,1,3.8v8.4c0,1,0.8,1.8,1.8,1.8h10.4c1,0,1.8-0.8,1.8-1.8V3.8C15,2.8,14.2,2,13.2,2z
	 M4.5,11.5c0,0.4-0.3,0.7-0.7,0.7H3.2c-0.4,0-0.7-0.3-0.7-0.7v-0.6c0-0.4,0.3-0.7,0.7-0.7h0.6c0.4,0,0.7,0.3,0.7,0.7V11.5z M4.5,8.3
	C4.5,8.7,4.2,9,3.8,9H3.2C2.8,9,2.5,8.7,2.5,8.3V7.7C2.5,7.3,2.8,7,3.2,7h0.6c0.4,0,0.7,0.3,0.7,0.7V8.3z M4.5,4.9
	c0,0.4-0.3,0.7-0.7,0.7H3.2c-0.4,0-0.7-0.3-0.7-0.7V4.2c0-0.4,0.3-0.7,0.7-0.7h0.6c0.4,0,0.7,0.3,0.7,0.7V4.9z"/>
</svg>
