<?xml version="1.0" encoding="utf-8"?>
<!-- Generator: Adobe Illustrator 23.0.0, SVG Export Plug-In . SVG Version: 6.00 Build 0)  -->
<svg version="1.1" id="레이어_1" xmlns="http://www.w3.org/2000/svg" xmlns:xlink="http://www.w3.org/1999/xlink" x="0px"
	 y="0px" viewBox="0 0 16 16" style="enable-background:new 0 0 16 16;" xml:space="preserve">
<style type="text/css">
	.st0{fill:#DEDEDE;}
</style>
<path class="st0" d="M13.7,9c-0.2,0.8-0.9,2.5-2.4,4C10,14.2,8.8,14.7,8,15c-0.8-0.3-2.1-0.8-3.3-2C3.2,11.5,2.5,9.8,2.3,9
	c0-1.9,0-3.9,0-5.8C3.9,2.9,5.1,2.4,5.9,2C7,1.4,7.3,1,8.1,1c1,0,1.3,0.6,2.7,1.3c0.6,0.3,1.6,0.7,2.9,0.9C13.7,5.1,13.7,7.1,13.7,9
	z"/>
</svg>
