<?xml version="1.0" encoding="UTF-8" standalone="no"?>
<!-- Created with Inkscape (http://www.inkscape.org/) -->

<svg
   xmlns:dc="http://purl.org/dc/elements/1.1/"
   xmlns:cc="http://creativecommons.org/ns#"
   xmlns:rdf="http://www.w3.org/1999/02/22-rdf-syntax-ns#"
   xmlns:svg="http://www.w3.org/2000/svg"
   xmlns="http://www.w3.org/2000/svg"
   xmlns:sodipodi="http://sodipodi.sourceforge.net/DTD/sodipodi-0.dtd"
   xmlns:inkscape="http://www.inkscape.org/namespaces/inkscape"
   width="16"
   height="16"
   viewBox="0 0 4.2333332 4.2333335"
   version="1.1"
   id="svg8"
   inkscape:version="0.92.5 (2060ec1f9f, 2020-04-08)"
   sodipodi:docname="software-store-symbolic.svg">
  <defs
     id="defs2" />
  <sodipodi:namedview
     id="base"
     pagecolor="#ffffff"
     bordercolor="#666666"
     borderopacity="1.0"
     inkscape:pageopacity="0.0"
     inkscape:pageshadow="2"
     inkscape:zoom="11.2"
     inkscape:cx="-88.37212"
     inkscape:cy="30.143237"
     inkscape:document-units="mm"
     inkscape:current-layer="layer1"
     showgrid="false"
     units="px"
     inkscape:window-width="1118"
     inkscape:window-height="517"
     inkscape:window-x="918"
     inkscape:window-y="197"
     inkscape:window-maximized="0" />
  <metadata
     id="metadata5">
    <rdf:RDF>
      <cc:Work
         rdf:about="">
        <dc:format>image/svg+xml</dc:format>
        <dc:type
           rdf:resource="http://purl.org/dc/dcmitype/StillImage" />
        <dc:title></dc:title>
      </cc:Work>
    </rdf:RDF>
  </metadata>
  <g
     inkscape:label="Layer 1"
     inkscape:groupmode="layer"
     id="layer1"
     transform="translate(0,-292.76665)">
    <path
       class="st2"
       d="m 2.953501,294.25719 c 0,-0.01 0,-0.0168 0,-0.0263 0,-0.46079 -0.3748444,-0.83563 -0.8356407,-0.83563 -0.4607962,0 -0.835641,0.37484 -0.835641,0.83563 0,0.01 0,0.0168 0,0.0263 H 0.66145833 c 0.0716263,0.56347 0.14563949,1.12932 0.21726583,1.69278 0.040589,0.31515 0.31038144,0.55391 0.62792504,0.55391 h 1.23436 c 0.3318691,0 0.6112118,-0.25069 0.647025,-0.58017 0.062076,-0.5563 0.1217647,-1.11021 0.1838408,-1.66652 z m -1.2892739,-0.0263 c 0,-0.25069 0.2029406,-0.45364 0.4536332,-0.45364 0.2506918,0 0.4536333,0.20295 0.4536333,0.45364 0,0.01 0,0.0168 -0.00239,0.0263 H 1.6642235 c 0,-0.01 0,-0.0168 0,-0.0263 z"
       id="path34"
       inkscape:connector-curvature="0"
       style="fill:#dedede;stroke-width:0.02387545;fill-opacity:1" />
  </g>
</svg>
