<?xml version="1.0" encoding="UTF-8" standalone="no"?>
<!-- Generator: Adobe Illustrator 23.0.0, SVG Export Plug-In . SVG Version: 6.00 Build 0)  -->

<svg
   xmlns:dc="http://purl.org/dc/elements/1.1/"
   xmlns:cc="http://creativecommons.org/ns#"
   xmlns:rdf="http://www.w3.org/1999/02/22-rdf-syntax-ns#"
   xmlns:svg="http://www.w3.org/2000/svg"
   xmlns="http://www.w3.org/2000/svg"
   xmlns:sodipodi="http://sodipodi.sourceforge.net/DTD/sodipodi-0.dtd"
   xmlns:inkscape="http://www.inkscape.org/namespaces/inkscape"
   version="1.1"
   id="레이어_1"
   x="0px"
   y="0px"
   viewBox="0 0 16 16"
   style="enable-background:new 0 0 16 16;"
   xml:space="preserve"
   sodipodi:docname="weather-app-symbolic.svg"
   inkscape:version="0.92.5 (2060ec1f9f, 2020-04-08)"><metadata
   id="metadata31"><rdf:RDF><cc:Work
       rdf:about=""><dc:format>image/svg+xml</dc:format><dc:type
         rdf:resource="http://purl.org/dc/dcmitype/StillImage" /></cc:Work></rdf:RDF></metadata><defs
   id="defs29" /><sodipodi:namedview
   pagecolor="#ffffff"
   bordercolor="#666666"
   borderopacity="1"
   objecttolerance="10"
   gridtolerance="10"
   guidetolerance="10"
   inkscape:pageopacity="0"
   inkscape:pageshadow="2"
   inkscape:window-width="3072"
   inkscape:window-height="1584"
   id="namedview27"
   showgrid="false"
   inkscape:zoom="14.75"
   inkscape:cx="-12.033898"
   inkscape:cy="8"
   inkscape:window-x="0"
   inkscape:window-y="0"
   inkscape:window-maximized="1"
   inkscape:current-layer="레이어_1" />
<style
   type="text/css"
   id="style2">
	.st0{fill:#363636;}
</style>
<g
   id="g24"
   style="fill:#dedede;fill-opacity:1">
	<path
   class="st0"
   d="m 8,3.5 v 0 C 7.7,3.5 7.5,3.3 7.5,3 V 2.4 C 7.5,2.1 7.7,1.9 8,1.9 v 0 c 0.3,0 0.5,0.2 0.5,0.5 V 3.1 C 8.5,3.3 8.3,3.5 8,3.5 Z"
   id="path4"
   inkscape:connector-curvature="0"
   style="fill:#dedede;fill-opacity:1" />
	<path
   class="st0"
   d="m 5.3,4.3 v 0 C 5,4.4 4.8,4.3 4.6,4.1 L 4.3,3.5 C 4.1,3.3 4.2,3 4.4,2.9 v 0 C 4.7,2.7 5,2.8 5.1,3 L 5.4,3.6 C 5.6,3.9 5.5,4.1 5.3,4.3 Z"
   id="path6"
   inkscape:connector-curvature="0"
   style="fill:#dedede;fill-opacity:1" />
	<path
   class="st0"
   d="m 10.5,4.3 v 0 C 10.7,4.4 11,4.4 11.1,4.1 L 11.4,3.5 C 11.5,3.3 11.5,3 11.2,2.9 v 0 C 11,2.8 10.7,2.8 10.6,3.1 l -0.3,0.6 c -0.1,0.2 0,0.4 0.2,0.6 z"
   id="path8"
   inkscape:connector-curvature="0"
   style="fill:#dedede;fill-opacity:1" />
	<path
   class="st0"
   d="m 14.9,8.8 v 0 c 0,0.3 -0.2,0.5 -0.5,0.5 h -0.7 c -0.3,0 -0.5,-0.2 -0.5,-0.5 v 0 c 0,-0.3 0.2,-0.5 0.5,-0.5 h 0.7 c 0.2,0 0.5,0.2 0.5,0.5 z"
   id="path10"
   inkscape:connector-curvature="0"
   style="fill:#dedede;fill-opacity:1" />
	<path
   class="st0"
   d="M 2.8,9 V 9 C 2.8,9.3 2.6,9.5 2.3,9.5 H 1.6 C 1.4,9.5 1.1,9.2 1.1,9 V 9 C 1.1,8.7 1.3,8.5 1.6,8.5 h 0.7 c 0.3,0 0.5,0.2 0.5,0.5 z"
   id="path12"
   inkscape:connector-curvature="0"
   style="fill:#dedede;fill-opacity:1" />
	<path
   class="st0"
   d="m 12.6,6.1 v 0 c 0.2,0.2 0.5,0.2 0.7,0.1 L 13.8,5.8 C 14,5.6 14,5.3 13.9,5.1 v 0 C 13.7,4.9 13.4,4.9 13.2,5 l -0.5,0.4 c -0.2,0.3 -0.3,0.5 -0.1,0.7 z"
   id="path14"
   inkscape:connector-curvature="0"
   style="fill:#dedede;fill-opacity:1" />
	<path
   class="st0"
   d="m 3.4,6.5 v 0 C 3.2,6.7 2.9,6.7 2.7,6.6 L 2.2,6.1 C 2,5.9 2,5.6 2.1,5.5 v 0 C 2.3,5.3 2.6,5.3 2.8,5.4 L 3.3,5.8 C 3.5,6 3.6,6.3 3.4,6.5 Z"
   id="path16"
   inkscape:connector-curvature="0"
   style="fill:#dedede;fill-opacity:1" />
	<path
   class="st0"
   d="M 13.1,10.3 H 12.6 C 12.1,8.6 10.5,7.4 8.7,7.4 6.9,7.4 5.3,8.6 4.8,10.3 H 2.9 C 1.8,10.3 1,11.2 1,12.2 v 0 c 0,1.1 0.9,1.9 1.9,1.9 h 10.2 c 1.1,0 1.9,-0.9 1.9,-1.9 v 0 c 0,-1.1 -0.9,-1.9 -1.9,-1.9 z"
   id="path18"
   inkscape:connector-curvature="0"
   style="fill:#dedede;fill-opacity:1" />
	<g
   id="g22"
   style="fill:#dedede;fill-opacity:1">
		<path
   class="st0"
   d="m 4.5,9.9 c 0.6,-1.7 2.3,-3 4.2,-3 1.6,0 2.9,0.8 3.7,2 0,-0.1 0,-0.1 0,-0.2 0,-2.4 -2,-4.4 -4.4,-4.4 -2.4,0 -4.4,2 -4.4,4.4 0,0.4 0.1,0.8 0.2,1.2 z"
   id="path20"
   inkscape:connector-curvature="0"
   style="fill:#dedede;fill-opacity:1" />
	</g>
</g>
</svg>