<?xml version="1.0" encoding="UTF-8" standalone="no"?>
<svg
   width="16"
   height="16"
   version="1.1"
   id="svg4"
   sodipodi:docname="preferences-system-symbolic.svg"
   xml:space="preserve"
   inkscape:version="1.2.1 (9c6d41e410, 2022-07-14)"
   xmlns:inkscape="http://www.inkscape.org/namespaces/inkscape"
   xmlns:sodipodi="http://sodipodi.sourceforge.net/DTD/sodipodi-0.dtd"
   xmlns="http://www.w3.org/2000/svg"
   xmlns:svg="http://www.w3.org/2000/svg"><defs
     id="defs8">
	

		
	
			
			
		</defs><sodipodi:namedview
     id="namedview6"
     pagecolor="#ffffff"
     bordercolor="#000000"
     borderopacity="0.25"
     inkscape:showpageshadow="2"
     inkscape:pageopacity="0.0"
     inkscape:pagecheckerboard="0"
     inkscape:deskcolor="#d1d1d1"
     showgrid="false"
     inkscape:zoom="32.09375"
     inkscape:cx="2.5861734"
     inkscape:cy="10.858812"
     inkscape:current-layer="svg4" /><path
     d="M 15.459344,6.64 14.576688,6.47 C 14.181344,6.3946562 13.871344,6.136 13.724031,5.7626562 13.576688,5.3873125 13.628688,4.9866562 13.867375,4.662 l 0.554,-0.756 c 0.194656,-0.2646562 0.166,-0.6326563 -0.06666,-0.8646563 L 13.158063,1.8446875 c -0.225344,-0.226 -0.581344,-0.2593438 -0.844657,-0.080656 L 11.56875,2.267375 c -0.332,0.226 -0.733344,0.2626563 -1.103344,0.1026562 C 10.09675,2.2086875 9.8494063,1.8886875 9.78875,1.4906875 L 9.6460938,0.56534375 C 9.596,0.24 9.316,0 8.9866562,0 h -1.692 C 6.9753125,0 6.7006562,0.22665625 6.64,0.54065625 L 6.4206562,1.6806562 c -0.074,0.3860001 -0.3246562,0.694 -0.688,0.844 C 5.3693125,2.676 4.9733125,2.6353125 4.648,2.4146562 L 3.6866563,1.764 C 3.4233125,1.5853437 3.0686563,1.6186562 2.842,1.8446563 L 1.6453438,3.0413437 C 1.4126875,3.2733438 1.384,3.6413438 1.5786875,3.906 l 0.554,0.7566562 c 0.2386563,0.324 0.2906563,0.7246563 0.1433438,1.1 C 2.1286875,6.136 1.8186875,6.3946562 1.4226875,6.47 l -0.882,0.17 C 0.22665625,6.7006562 0,6.9753438 0,7.2946562 v 1.692 C 0,9.316 0.24,9.596 0.56534375,9.646 L 1.4906875,9.7886562 c 0.398,0.060656 0.718,0.3079998 0.8793437,0.6766568 0.1606563,0.368656 0.1233438,0.770656 -0.1026562,1.103999 l -0.5033438,0.744 c -0.1793437,0.264 -0.1453437,0.618657 0.080656,0.844657 l 1.1966563,1.196656 c 0.2326562,0.233344 0.6,0.26 0.8646562,0.06666 l 0.7566563,-0.554 c 0.3239999,-0.238 0.724,-0.289344 1.1,-0.143344 0.3733437,0.147344 0.632,0.457344 0.7073437,0.853344 l 0.17,0.882 C 6.7006563,15.773344 6.9753438,16 7.2946563,16 h 1.692 C 9.316,16 9.596,15.76 9.646,15.434656 L 9.746,14.784 C 9.808656,14.376656 10.062656,14.053344 10.442656,13.896656 10.82,13.739312 11.23,13.788 11.562656,14.032 L 12.094,14.421344 c 0.263344,0.193343 0.632,0.166656 0.864656,-0.06666 l 1.196656,-1.196656 c 0.226001,-0.226 0.26,-0.580656 0.08066,-0.844656 l -0.503344,-0.744656 c -0.226,-0.332657 -0.263344,-0.734657 -0.102656,-1.103344 0.161343,-0.368656 0.481343,-0.616 0.879343,-0.6766563 L 15.434656,9.6460625 C 15.76,9.5960625 16,9.3160625 16,8.9867188 V 7.2947187 C 16,6.9753437 15.773344,6.7006562 15.459344,6.64 Z M 8,11.333344 C 6.162,11.333344 4.6666562,9.838 4.6666562,8 4.6666562,6.162 6.162,4.6666562 8,4.6666562 9.838,4.6666562 11.333344,6.162 11.333344,8 11.333344,9.838 9.838,11.333344 8,11.333344 Z"
     id="path235"
     style="fill:#444444;fill-opacity:1;stroke-width:0.03125" /><g
     id="g243"
     style="fill:#444444;fill-opacity:1"
     transform="scale(0.03125)">
</g><g
     id="g245"
     style="fill:#444444;fill-opacity:1"
     transform="scale(0.03125)">
</g><g
     id="g247"
     style="fill:#444444;fill-opacity:1"
     transform="scale(0.03125)">
</g><g
     id="g249"
     style="fill:#444444;fill-opacity:1"
     transform="scale(0.03125)">
</g><g
     id="g251"
     style="fill:#444444;fill-opacity:1"
     transform="scale(0.03125)">
</g><g
     id="g253"
     style="fill:#444444;fill-opacity:1"
     transform="scale(0.03125)">
</g><g
     id="g255"
     style="fill:#444444;fill-opacity:1"
     transform="scale(0.03125)">
</g><g
     id="g257"
     style="fill:#444444;fill-opacity:1"
     transform="scale(0.03125)">
</g><g
     id="g259"
     style="fill:#444444;fill-opacity:1"
     transform="scale(0.03125)">
</g><g
     id="g261"
     style="fill:#444444;fill-opacity:1"
     transform="scale(0.03125)">
</g><g
     id="g263"
     style="fill:#444444;fill-opacity:1"
     transform="scale(0.03125)">
</g><g
     id="g265"
     style="fill:#444444;fill-opacity:1"
     transform="scale(0.03125)">
</g><g
     id="g267"
     style="fill:#444444;fill-opacity:1"
     transform="scale(0.03125)">
</g><g
     id="g269"
     style="fill:#444444;fill-opacity:1"
     transform="scale(0.03125)">
</g><g
     id="g271"
     style="fill:#444444;fill-opacity:1"
     transform="scale(0.03125)">
</g></svg>
