<?xml version="1.0" encoding="UTF-8" standalone="no"?>
<!-- Created with Inkscape (http://www.inkscape.org/) -->

<svg
   xmlns:dc="http://purl.org/dc/elements/1.1/"
   xmlns:cc="http://creativecommons.org/ns#"
   xmlns:rdf="http://www.w3.org/1999/02/22-rdf-syntax-ns#"
   xmlns:svg="http://www.w3.org/2000/svg"
   xmlns="http://www.w3.org/2000/svg"
   xmlns:xlink="http://www.w3.org/1999/xlink"
   xmlns:sodipodi="http://sodipodi.sourceforge.net/DTD/sodipodi-0.dtd"
   xmlns:inkscape="http://www.inkscape.org/namespaces/inkscape"
   width="180.82774mm"
   height="93.450615mm"
   viewBox="0 0 180.82774 93.450615"
   version="1.1"
   id="svg879"
   inkscape:version="0.92.4 (5da689c313, 2019-01-14)"
   sodipodi:docname="Horizontal ColorFull.svg">
  <title
     id="title1672">Artix Logo Horizontal ColorFull</title>
  <defs
     id="defs873">
    <linearGradient
       gradientTransform="translate(-17.035036,-82.929758)"
       inkscape:collect="always"
       xlink:href="#linearGradient887"
       id="linearGradient881"
       x1="75.542618"
       y1="145.98615"
       x2="81.200447"
       y2="143.22675"
       gradientUnits="userSpaceOnUse" />
    <linearGradient
       id="linearGradient887"
       inkscape:collect="always">
      <stop
         id="stop883"
         offset="0"
         style="stop-color:#ffffff;stop-opacity:0.36470589" />
      <stop
         id="stop885"
         offset="1"
         style="stop-color:#ffffff;stop-opacity:0" />
    </linearGradient>
    <linearGradient
       inkscape:collect="always"
       xlink:href="#linearGradient1849"
       id="linearGradient1851-9"
       x1="105.83431"
       y1="15.35424"
       x2="80.208908"
       y2="30.53084"
       gradientUnits="userSpaceOnUse"
       gradientTransform="translate(-56.846252,39.557141)" />
    <linearGradient
       inkscape:collect="always"
       id="linearGradient1849">
      <stop
         style="stop-color:#000000;stop-opacity:0.10217391"
         offset="0"
         id="stop1845" />
      <stop
         style="stop-color:#000000;stop-opacity:0.30434781"
         offset="1"
         id="stop1847" />
    </linearGradient>
    <linearGradient
       inkscape:collect="always"
       xlink:href="#linearGradient1849"
       id="linearGradient1851-9-8"
       x1="70.724709"
       y1="12.29244"
       x2="87.0924"
       y2="26.894571"
       gradientUnits="userSpaceOnUse"
       gradientTransform="translate(-26.863526,25.331281)" />
    <linearGradient
       inkscape:collect="always"
       xlink:href="#linearGradient1849"
       id="linearGradient1851-9-8-1"
       x1="70.724701"
       y1="12.29244"
       x2="81.157883"
       y2="19.324032"
       gradientUnits="userSpaceOnUse"
       gradientTransform="translate(-12.217124,50.763951)" />
    <linearGradient
       inkscape:collect="always"
       xlink:href="#linearGradient887"
       id="linearGradient1200-8"
       gradientUnits="userSpaceOnUse"
       gradientTransform="translate(-21.524626,-7.936016)"
       x1="70.512688"
       y1="62.847496"
       x2="55.280762"
       y2="56.393845" />
    <linearGradient
       inkscape:collect="always"
       xlink:href="#linearGradient887"
       id="linearGradient1200-5"
       gradientUnits="userSpaceOnUse"
       gradientTransform="matrix(-1,0,0,1,114.37386,-25.223682)"
       x1="70.512688"
       y1="62.847496"
       x2="63.043533"
       y2="59.204388" />
  </defs>
  <sodipodi:namedview
     id="base"
     pagecolor="#ffffff"
     bordercolor="#666666"
     borderopacity="1.0"
     inkscape:pageopacity="0.0"
     inkscape:pageshadow="2"
     inkscape:zoom="0.60818842"
     inkscape:cx="638.08865"
     inkscape:cy="-32.767328"
     inkscape:document-units="mm"
     inkscape:current-layer="layer1"
     showgrid="false"
     inkscape:snap-page="true"
     inkscape:snap-bbox="true"
     inkscape:bbox-paths="false"
     showguides="true"
     inkscape:guide-bbox="true"
     inkscape:snap-object-midpoints="true"
     fit-margin-top="0"
     fit-margin-left="0"
     fit-margin-right="0"
     fit-margin-bottom="0" />
  <metadata
     id="metadata876">
    <rdf:RDF>
      <cc:Work
         rdf:about="">
        <dc:format>image/svg+xml</dc:format>
        <dc:type
           rdf:resource="http://purl.org/dc/dcmitype/StillImage" />
        <dc:title>Artix Logo Horizontal ColorFull</dc:title>
        <cc:license
           rdf:resource="http://creativecommons.org/licenses/by-nc-sa/4.0/" />
      </cc:Work>
      <cc:License
         rdf:about="http://creativecommons.org/licenses/by-nc-sa/4.0/">
        <cc:permits
           rdf:resource="http://creativecommons.org/ns#Reproduction" />
        <cc:permits
           rdf:resource="http://creativecommons.org/ns#Distribution" />
        <cc:requires
           rdf:resource="http://creativecommons.org/ns#Notice" />
        <cc:requires
           rdf:resource="http://creativecommons.org/ns#Attribution" />
        <cc:prohibits
           rdf:resource="http://creativecommons.org/ns#CommercialUse" />
        <cc:permits
           rdf:resource="http://creativecommons.org/ns#DerivativeWorks" />
        <cc:requires
           rdf:resource="http://creativecommons.org/ns#ShareAlike" />
      </cc:License>
    </rdf:RDF>
  </metadata>
  <g
     inkscape:label="Layer 1"
     inkscape:groupmode="layer"
     id="layer1">
    <path
       style="font-style:normal;font-variant:normal;font-weight:normal;font-stretch:normal;font-size:17.63888931px;line-height:1.25;font-family:'Bai Jamjuree';-inkscape-font-specification:'Bai Jamjuree';text-align:center;letter-spacing:0px;word-spacing:0px;text-anchor:middle;display:inline;fill:#10a0cc;fill-opacity:1;stroke:none;stroke-width:0.26458332"
       d="m 129.60272,31.622431 c -0.74835,0 -1.35595,0.23405 -1.82367,0.70177 -0.46772,0.4677 -0.70125,1.07533 -0.70125,1.82366 0,0.74832 0.23357,1.35595 0.70125,1.82366 0.46772,0.46771 1.07532,0.70177 1.82367,0.70177 0.7483,0 1.3575,-0.23408 1.82522,-0.70177 0.46769,-0.46771 0.70176,-1.07534 0.70176,-1.82366 0,-0.74833 -0.23408,-1.35596 -0.70176,-1.82366 -0.46772,-0.46771 -1.07692,-0.70177 -1.82522,-0.70177 z m -18.1839,1.49655 v 18.47846 c 0,2.43206 0.52893,4.17729 1.58906,5.2374 1.0913,1.06013 2.86976,1.59061 5.333,1.59061 h 2.52542 v -2.99362 h -2.52542 c -1.27839,0 -2.19828,-0.2959 -2.75952,-0.88832 -0.53008,-0.59243 -0.88081,-1.57684 -0.79478,-2.94607 v -8.42274 h 6.07972 v -2.99362 h -6.07972 v -7.0621 z m -38.625551,6.68796 v 2.94711 h 8.35453 c 1.34075,0 2.41599,0.42007 3.22668,1.26194 0.81069,0.81068 1.21698,1.87111 1.21698,3.18068 v 0.28371 c -0.77951,-0.53007 -1.71472,-0.95014 -2.80603,-1.26194 -1.09131,-0.31179 -2.15278,-0.46871 -3.18172,-0.46871 h -2.99258 c -2.30733,0 -4.16296,0.59231 -5.56607,1.77716 -1.40311,1.18484 -2.10478,2.75982 -2.10478,4.73976 0,1.97995 0.67102,3.57093 2.01176,4.75578 1.37194,1.18484 3.19483,1.77715 5.47098,1.77715 h 2.80655 c 1.2472,0 2.44869,-0.32759 3.60237,-0.98237 1.18485,-0.65478 2.1354,-1.54401 2.85254,-2.6665 v 3.27474 h 3.18068 v -11.22878 c 0,-2.21379 -0.717,-3.99071 -2.15129,-5.33145 -1.40311,-1.37193 -3.25873,-2.05828 -5.56607,-2.05828 z m 22.92987,0.37414 v 18.24437 h 3.36775 v -8.32818 c 0,-2.08907 0.60764,-3.75817 1.823671,-5.00538 1.24721,-1.27839 2.86876,-1.91719 4.8643,-1.91719 v -2.99362 c -1.37193,0 -2.69656,0.34291 -3.97495,1.02888 -1.24721,0.68596 -2.182421,1.57519 -2.806031,2.6665 v -3.69538 z m 32.197011,0 v 18.24437 h 3.36669 v -18.24437 z m 8.86819,0 8.08837,9.12193 -8.08837,9.12244 h 4.49997 l 5.83788,-6.58513 5.83945,6.58513 h 4.49945 l -8.08788,-9.12244 8.08788,-9.12193 h -4.49945 l -5.83945,6.58513 -5.83788,-6.58513 z m -60.177211,8.51576 h 2.99258 c 1.15367,0 2.27645,0.18654 3.36775,0.56069 1.12249,0.34298 1.99639,0.8106 2.62,1.40302 v 0.23409 c -0.40535,1.49665 -1.1852,2.69814 -2.33888,3.60236 -1.15366,0.90424 -2.46297,1.35548 -3.92844,1.35548 h -2.90112 c -1.2472,0 -2.24373,-0.32655 -2.99206,-0.98134 -0.74832,-0.65479 -1.12241,-1.52877 -1.12241,-2.60449 0,-1.07572 0.38942,-1.93266 1.16892,-2.58744 0.81069,-0.65479 1.85527,-0.98237 3.13366,-0.98237 z"
       id="path4885-0"
       inkscape:connector-curvature="0"
       inkscape:label="Sign" />
    <path
       inkscape:label="Base"
       inkscape:connector-curvature="0"
       id="path886"
       d="m 46.151449,23.362661 -8.03465,16.47393 22.11235,12.38943 z m -10.46189,21.45089 -12.3269,25.27443 36.57813,-15.11174 z m 26.95598,12.3672 -11.53625,6.62285 17.83147,6.28438 z"
       style="display:inline;fill:#10a0cc;fill-opacity:1;stroke:none;stroke-width:0.09994879;stroke-linecap:butt;stroke-linejoin:miter;stroke-miterlimit:4;stroke-dasharray:none;stroke-opacity:1"
       sodipodi:nodetypes="cccccccccccc" />
    <path
       inkscape:label="Light"
       inkscape:connector-curvature="0"
       id="path947"
       d="m 58.507579,63.056391 4.13797,-5.87612 6.29521,12.9077 z"
       style="fill:url(#linearGradient881);fill-opacity:1;stroke:none;stroke-width:0.26458332px;stroke-linecap:butt;stroke-linejoin:miter;stroke-opacity:1" />
    <path
       inkscape:label="Shadow"
       sodipodi:nodetypes="cccc"
       inkscape:connector-curvature="0"
       id="path1434-9-4"
       d="m 23.362659,70.087981 25.6254,-15.1766 10.95269,0.065 z"
       style="fill:url(#linearGradient1851-9);fill-opacity:1;stroke:none;stroke-width:0.26458332px;stroke-linecap:butt;stroke-linejoin:miter;stroke-opacity:1" />
    <path
       inkscape:label="Shadow"
       sodipodi:nodetypes="cccc"
       inkscape:connector-curvature="0"
       id="path1434-9-4-2"
       d="m 60.229219,52.225851 -22.11223,-12.38962 5.74419,-2.21251 z"
       style="fill:url(#linearGradient1851-9-8);fill-opacity:1;stroke:none;stroke-width:0.26458332px;stroke-linecap:butt;stroke-linejoin:miter;stroke-opacity:1" />
    <path
       inkscape:label="Shadow"
       sodipodi:nodetypes="cccc"
       inkscape:connector-curvature="0"
       id="path1434-9-4-2-4"
       d="m 68.940759,70.087981 -17.83145,-6.28419 7.39827,-0.7474 z"
       style="fill:url(#linearGradient1851-9-8-1);fill-opacity:1;stroke:none;stroke-width:0.26458332px;stroke-linecap:butt;stroke-linejoin:miter;stroke-opacity:1" />
    <path
       inkscape:label="Light"
       sodipodi:nodetypes="cccc"
       inkscape:connector-curvature="0"
       id="path1381-5-9"
       d="m 23.362659,70.087981 25.6254,-15.1766 -13.29865,-10.09773 z"
       style="fill:url(#linearGradient1200-8);fill-opacity:1;stroke:none;stroke-width:0.26458332px;stroke-linecap:butt;stroke-linejoin:miter;stroke-opacity:1" />
    <path
       inkscape:label="Light"
       sodipodi:nodetypes="cccc"
       inkscape:connector-curvature="0"
       id="path1381-5-7"
       d="m 60.229209,52.225851 -16.36803,-14.60213 2.29027,-14.26106 z"
       style="fill:url(#linearGradient1200-5);fill-opacity:1;stroke:none;stroke-width:0.26458332px;stroke-linecap:butt;stroke-linejoin:miter;stroke-opacity:1" />
  </g>
</svg>
