<svg width="22" height="22" viewBox="0 0 22 22" fill="none" xmlns="http://www.w3.org/2000/svg">
<rect x="2" y="2" width="18" height="18" rx="3" fill="#F9F9F9"/>
<path fill-rule="evenodd" clip-rule="evenodd" d="M5.39999 10.65C5.39999 11.2998 5.65812 11.923 6.11758 12.3824C6.57705 12.8419 7.20021 13.1 7.84999 13.1H10.3V14.9102L9.39489 14.0051C9.26287 13.8776 9.08605 13.8071 8.90251 13.8086C8.71897 13.8102 8.54341 13.8839 8.41362 14.0136C8.28383 14.1434 8.21022 14.319 8.20862 14.5025C8.20703 14.6861 8.27758 14.8629 8.40509 14.9949L10.5051 17.0949C10.6364 17.2261 10.8144 17.2999 11 17.2999C11.1856 17.2999 11.3636 17.2261 11.4949 17.0949L13.5949 14.9949C13.7224 14.8629 13.793 14.6861 13.7914 14.5025C13.7898 14.319 13.7162 14.1434 13.5864 14.0136C13.4566 13.8839 13.281 13.8102 13.0975 13.8086C12.9139 13.8071 12.7371 13.8776 12.6051 14.0051L11.7 14.9102V13.1H13.45C13.8817 13.0998 14.3088 13.0108 14.7046 12.8386C15.1005 12.6664 15.4568 12.4146 15.7513 12.099C16.0458 11.7833 16.2723 11.4105 16.4167 11.0036C16.5611 10.5968 16.6204 10.1646 16.5907 9.73392C16.5611 9.30322 16.4433 8.88321 16.2445 8.49996C16.0458 8.1167 15.7704 7.77839 15.4355 7.50603C15.1005 7.23366 14.7132 7.03306 14.2974 6.91666C13.8817 6.80027 13.4465 6.77057 13.0188 6.82942C12.9361 6.46443 12.7812 6.1197 12.5631 5.81559C12.345 5.51148 12.0681 5.25415 11.7489 5.0588C11.4297 4.86345 11.0746 4.73404 10.7046 4.67821C10.3345 4.62237 9.95703 4.64125 9.5944 4.73372C9.23177 4.82619 8.89134 4.99038 8.59321 5.21659C8.29509 5.44281 8.04531 5.72647 7.85863 6.05082C7.67195 6.37517 7.55215 6.73364 7.5063 7.10505C7.46045 7.47647 7.48949 7.85331 7.59169 8.21332C6.98995 8.27711 6.4331 8.56134 6.02843 9.01125C5.62376 9.46115 5.39991 10.0449 5.39999 10.65V10.65ZM11.7 13.1H10.3V9.60002C10.3 9.41437 10.3737 9.23632 10.505 9.10504C10.6363 8.97377 10.8143 8.90002 11 8.90002C11.1856 8.90002 11.3637 8.97377 11.495 9.10504C11.6262 9.23632 11.7 9.41437 11.7 9.60002V13.1Z" fill="#FF886A"/>
</svg>
