<svg width="22" height="22" viewBox="0 0 22 22" fill="none" xmlns="http://www.w3.org/2000/svg">
<rect x="2" y="2" width="18" height="18" rx="3" fill="#F9F9F9"/>
<path fill-rule="evenodd" clip-rule="evenodd" d="M6.8 6.80002C6.8 6.42872 6.9475 6.07263 7.21005 5.81007C7.4726 5.54752 7.8287 5.40002 8.2 5.40002H11.4102C11.7815 5.4001 12.1375 5.54766 12.4 5.81022L14.7898 8.20002C15.0524 8.46251 15.1999 8.81855 15.2 9.18982V15.2C15.2 15.5713 15.0525 15.9274 14.79 16.19C14.5274 16.4525 14.1713 16.6 13.8 16.6H8.2C7.8287 16.6 7.4726 16.4525 7.21005 16.19C6.9475 15.9274 6.8 15.5713 6.8 15.2V6.80002ZM8.2 11C8.2 10.8144 8.27375 10.6363 8.40503 10.505C8.5363 10.3738 8.71435 10.3 8.9 10.3H13.1C13.2857 10.3 13.4637 10.3738 13.595 10.505C13.7263 10.6363 13.8 10.8144 13.8 11C13.8 11.1857 13.7263 11.3637 13.595 11.495C13.4637 11.6263 13.2857 11.7 13.1 11.7H8.9C8.71435 11.7 8.5363 11.6263 8.40503 11.495C8.27375 11.3637 8.2 11.1857 8.2 11ZM8.9 13.1C8.71435 13.1 8.5363 13.1738 8.40503 13.305C8.27375 13.4363 8.2 13.6144 8.2 13.8C8.2 13.9857 8.27375 14.1637 8.40503 14.295C8.5363 14.4263 8.71435 14.5 8.9 14.5H13.1C13.2857 14.5 13.4637 14.4263 13.595 14.295C13.7263 14.1637 13.8 13.9857 13.8 13.8C13.8 13.6144 13.7263 13.4363 13.595 13.305C13.4637 13.1738 13.2857 13.1 13.1 13.1H8.9Z" fill="#36ADFB"/>
</svg>
