<svg width="22" height="22" viewBox="0 0 22 22" fill="none" xmlns="http://www.w3.org/2000/svg">
<rect x="2" y="2" width="18" height="18" rx="3" fill="#F9F9F9"/>
<path d="M5.40002 8.19999C5.40002 7.82868 5.54752 7.47259 5.81007 7.21004C6.07263 6.94749 6.42872 6.79999 6.80002 6.79999H11C11.3713 6.79999 11.7274 6.94749 11.99 7.21004C12.2525 7.47259 12.4 7.82868 12.4 8.19999V13.8C12.4 14.1713 12.2525 14.5274 11.99 14.7899C11.7274 15.0525 11.3713 15.2 11 15.2H6.80002C6.42872 15.2 6.07263 15.0525 5.81007 14.7899C5.54752 14.5274 5.40002 14.1713 5.40002 13.8V8.19999ZM14.1871 8.97419C14.0709 9.03228 13.9731 9.12159 13.9047 9.23212C13.8363 9.34265 13.8001 9.47002 13.8 9.59999V12.4C13.8001 12.53 13.8363 12.6573 13.9047 12.7679C13.9731 12.8784 14.0709 12.9677 14.1871 13.0258L15.5871 13.7258C15.6938 13.7791 15.8124 13.8043 15.9315 13.7989C16.0507 13.7935 16.1665 13.7578 16.2679 13.6951C16.3694 13.6324 16.4532 13.5449 16.5113 13.4407C16.5694 13.3365 16.6 13.2193 16.6 13.1V8.89999C16.6 8.78071 16.5694 8.66343 16.5113 8.55928C16.4532 8.45512 16.3694 8.36754 16.2679 8.30485C16.1665 8.24216 16.0507 8.20644 15.9315 8.20107C15.8124 8.1957 15.6938 8.22087 15.5871 8.27419L14.1871 8.97419Z" fill="#FFB630"/>
</svg>
