<svg width="22" height="22" viewBox="0 0 22 22" fill="none" xmlns="http://www.w3.org/2000/svg">
<rect x="2" y="2" width="18" height="18" rx="3" fill="#F9F9F9"/>
<path d="M5.40002 8.19999C5.40002 7.82868 5.54752 7.47259 5.81007 7.21004C6.07263 6.94749 6.42872 6.79999 6.80002 6.79999H10.3L11.7 8.19999H15.2C15.5713 8.19999 15.9274 8.34749 16.19 8.61004C16.4525 8.87259 16.6 9.22868 16.6 9.59999V13.8C16.6 14.1713 16.4525 14.5274 16.19 14.7899C15.9274 15.0525 15.5713 15.2 15.2 15.2H6.80002C6.42872 15.2 6.07263 15.0525 5.81007 14.7899C5.54752 14.5274 5.40002 14.1713 5.40002 13.8V8.19999Z" fill="#FF598B"/>
</svg>
