<svg width="22" height="22" viewBox="0 0 22 22" fill="none" xmlns="http://www.w3.org/2000/svg">
<rect x="2" y="2" width="18" height="18" rx="3" fill="#F9F9F9"/>
<path d="M11.4949 5.6051C11.3636 5.47387 11.1856 5.40015 11 5.40015C10.8144 5.40015 10.6363 5.47387 10.5051 5.6051L5.60507 10.5051C5.47756 10.6371 5.407 10.8139 5.4086 10.9975C5.41019 11.181 5.48381 11.3566 5.61359 11.4864C5.74338 11.6162 5.91895 11.6898 6.10249 11.6914C6.28602 11.693 6.46285 11.6224 6.59487 11.4949L6.79997 11.2898V15.9C6.79997 16.0856 6.87372 16.2637 7.00499 16.395C7.13627 16.5262 7.31432 16.6 7.49997 16.6H8.89997C9.08562 16.6 9.26367 16.5262 9.39494 16.395C9.52622 16.2637 9.59997 16.0856 9.59997 15.9V14.5C9.59997 14.3143 9.67372 14.1363 9.80499 14.005C9.93627 13.8737 10.1143 13.8 10.3 13.8H11.7C11.8856 13.8 12.0637 13.8737 12.1949 14.005C12.3262 14.1363 12.4 14.3143 12.4 14.5V15.9C12.4 16.0856 12.4737 16.2637 12.605 16.395C12.7363 16.5262 12.9143 16.6 13.1 16.6H14.5C14.6856 16.6 14.8637 16.5262 14.9949 16.395C15.1262 16.2637 15.2 16.0856 15.2 15.9V11.2898L15.4051 11.4949C15.5371 11.6224 15.7139 11.693 15.8974 11.6914C16.081 11.6898 16.2566 11.6162 16.3863 11.4864C16.5161 11.3566 16.5897 11.181 16.5913 10.9975C16.5929 10.8139 16.5224 10.6371 16.3949 10.5051L11.4949 5.6051V5.6051Z" fill="#FE7CBD"/>
</svg>
