/* XPM */
static char * bottom_right_active_xpm[] = {
"32 32 7 1",
"       c None",
".      c #E0E0E0 s active_color_2",
"+      c #000000",
"@      c #808080 s active_shadow_2",
"#      c #4C4CA5 s active_shadow_1",
"$      c #C4C4FF s active_hilight_1",
"%      c #AAAAFF s active_color_1",
"                            +..@",
"                            +..@",
"                            +..@",
"                            ++++",
"                            +###",
"                            +$$#",
"                            +$%#",
"                            +$%#",
"                            +$%#",
"                            +..@",
"                            +..@",
"                            ++++",
"                            +###",
"                            +$$#",
"                            +$%#",
"                            +$%#",
"                            +$%#",
"                            +..@",
"                            +..@",
"                            ++++",
"                            +###",
"                            +$$#",
"                            +$%#",
"                            +$%#",
"                            +$%#",
"                            +$%#",
"                            +$%#",
"                            +$%#",
"+++++++++++++++++++++++++++++$%#",
"$$$$$$$$$$$$$$$$$$$$$$$$$$$$$$%#",
"%%%%%%%%%%%%%%%%%%%%%%%%%%%%%%%#",
"################################"};
