/* XPM */
static char * bottom_left_inactive_xpm[] = {
"32 32 3 1",
"       c None",
".      c #808080 s inactive_shadow_2",
"+      c #E0E0E0 s inactive_color_2",
".++.                            ",
".++.                            ",
".++.                            ",
".++.                            ",
".++.                            ",
".++.                            ",
".++.                            ",
".++.                            ",
".++.                            ",
".++.                            ",
".++.                            ",
".++.                            ",
".++.                            ",
".++.                            ",
".++.                            ",
".++.                            ",
".++.                            ",
".++.                            ",
".++.                            ",
".++.                            ",
".++.                            ",
".++.                            ",
".++.                            ",
".++.                            ",
".++.                            ",
".++.                            ",
".++.                            ",
".++.                            ",
".++.............................",
".+++++++++++++++++++++++++++++++",
".+++++++++++++++++++++++++++++++",
"................................"};
