/* XPM */
static char * close_pressed_xpm[] = {
"12 24 4 1",
"       c None",
".      c #808080 s active_shadow_2",
"+      c #E0E0E0 s active_color_2",
"@      c #000000",
"            ",
"            ",
"............",
"++++++++++++",
"++++++++++++",
"++++++++++++",
"++++++++++++",
"++++++++++++",
"+...+++++...",
"+.@@.+++.@@.",
"+.@@@.+.@@@.",
"++.@@@.@@@.+",
"+++.@@@@@.++",
"++++.@@@.+++",
"+++.@@@@@.++",
"++.@@@.@@@.+",
"+.@@@.+.@@@.",
"+.@@.+++.@@.",
"+...+++++...",
"++++++++++++",
"++++++++++++",
"++++++++++++",
"............",
"@@@@@@@@@@@@"};
