/* XPM */
static char * close_inactive_tmp_xpm[] = {
"14 23 5 1",
" 	c None",
".	c #A0A0A0",
"+	c #9A9A9A",
"@	c #E8E8E8",
"#	c #D3D3D3",
"              ",
"              ",
"              ",
"              ",
"              ",
"   .......    ",
"  .+@@@@@@@   ",
" .+@@@@@@@@@  ",
" .@@@@@@@@@@  ",
" .@@@@@@@@@@  ",
" .@@@@@###@@  ",
" .@@@@#####+  ",
" .@@@@#####+  ",
" .@@@@+####+  ",
"  @@@@@###+   ",
"   @@@@+++    ",
"              ",
"              ",
"              ",
"              ",
"              ",
"              ",
"              "};
