/* XPM */
static char * right_inactive_xpm[] = {
"4 16 3 1",
"       c None",
".      c #E0E0E0 s inactive_color_2",
"+      c #808080 s inactive_shadow_2",
"+..+",
"+..+",
"+..+",
"+..+",
"+..+",
"+..+",
"+..+",
"+..+",
"+..+",
"+..+",
"+..+",
"+..+",
"+..+",
"+..+",
"+..+",
"+..+",
"+..+"};
