/* XPM */
static char * right_active_xpm[] = {
"4 16 4 1",
"       c None",
".      c #E0E0E0 s active_color_2",
"+      c #000000",
"@      c #808080 s active_shadow_2",
"+..@",
"+..@",
"+..@",
"+..@",
"+..@",
"+..@",
"+..@",
"+..@",
"+..@",
"+..@",
"+..@",
"+..@",
"+..@",
"+..@",
"+..@",
"+..@"};
