/* XPM */
static char * title_4_active_xpm[] = {
"32 24 7 1",
"       c None",
".      c #4C4CA5 s active_shadow_1",
"+      c #C4C4FF s active_hilight_1",
"@      c #AAAAFF s active_color_1",
"#      c #808080 s active_shadow_2",
"$      c #E0E0E0 s active_color_2",
"&      c #000000",
"............................    ",
"++++++++++++++++++++++++++.#    ",
"@@@@@@@@@@@@@@@@@@@@@@@@@@.#####",
"@@@@@@@@@@@@@@@@@@@@@@@@@@.$$$$$",
"@@@@......................#$$$$$",
"@@@@.#####################$$$$$$",
"@@@@.#$$$$$$$$$$$$$$$$$$$$$$$$$$",
"@@@@++++++++++++++++++++.$$$$$$$",
"@@@@@@@@@@@@@@@@@@@@@@@@.$$$$$$$",
"@@@@@@@@@@@@@@@@@@@@@@@@.$$$$$$$",
"@@@@@@..................#$$$$$$$",
"@@@@@@.#################$$$$$$$$",
"@@@@@@.#$$$$$$$$$$$$$$$$$$$$$$$$",
"@@@@@@++++++++++++++++.$$$$$$$$$",
"@@@@@@@@@@@@@@@@@@@@@@.$$$$$$$$$",
"@@@@@@@@@@@@@@@@@@@@@@.$$$$$$$$$",
"@@@@@@@@..............#$$$$$$$$$",
"@@@@@@@@.#############$$$$$$$$$$",
"@@@@@@@@.#$$$$$$$$$$$$$$$$$$$$$$",
"@@@@@@@@++++++++++++.$$$$$$$$$$$",
"@@@@@@@@@@@@@@@@@@@@.$$$$$$$$$$$",
"@@@@@@@@@@@@@@@@@@@@.$$$$$$$$$$$",
"....................############",
"&&&&&&&&&&&&&&&&&&&&&&&&&&&&&&&&"};
