/* XPM */
static char * top_left_active_xpm[] = {
"12 30 6 1",
"       c None",
".      c #4C4CA5 s active_shadow_1",
"+      c #C4C4FF s active_hilight_1",
"@      c #AAAAFF s active_color_1",
"#      c #000000",
"$      c #E0E0E0 s active_color_2",
"     .......",
"   ..+++++++",
"  .++@@@@@@@",
" .+@@@@@@@@@",
" .+@@@@@@@@@",
".+@@@@@@@@@@",
".+@@@@@@@@@@",
".+@@@@@@@@@@",
".+@@@@@@@@@@",
".+@@@@@@@@@@",
".+@@@@@@@@@@",
".+@@@@@@@@@@",
".+@@@@@@@@@@",
".+@@@@@@@@@@",
".+@@@@@@@@@@",
".+@@@@@@@@@@",
".+@@@@@@@@@@",
".+@@@@@@@@@@",
".+@@@@@@@@@@",
".+@@@@@@@@@@",
".+@@@@@@@@@@",
".+@@@@@@@@@@",
".+@.........",
".+@#########",
".+@#        ",
".+@#        ",
".+@#        ",
".+@#        ",
".+@#        ",
".+@#        "};
