<?xml version="1.0" encoding="UTF-8" standalone="no"?>
<!-- Created with Inkscape (http://www.inkscape.org/) -->

<svg
   width="16"
   height="16"
   viewBox="0 0 4.2333332 4.2333335"
   version="1.1"
   id="svg5"
   inkscape:version="1.1 (c4e8f9ed74, 2021-05-24)"
   sodipodi:docname="go-home.svg"
   xmlns:inkscape="http://www.inkscape.org/namespaces/inkscape"
   xmlns:sodipodi="http://sodipodi.sourceforge.net/DTD/sodipodi-0.dtd"
   xmlns="http://www.w3.org/2000/svg"
   xmlns:svg="http://www.w3.org/2000/svg">
  <sodipodi:namedview
     id="namedview7"
     pagecolor="#ffffff"
     bordercolor="#666666"
     borderopacity="1.0"
     inkscape:pageshadow="2"
     inkscape:pageopacity="0.0"
     inkscape:pagecheckerboard="0"
     inkscape:document-units="px"
     showgrid="false"
     units="px"
     height="16px"
     inkscape:zoom="22.627417"
     inkscape:cx="11.534679"
     inkscape:cy="9.7227182"
     inkscape:window-width="1920"
     inkscape:window-height="1009"
     inkscape:window-x="0"
     inkscape:window-y="0"
     inkscape:window-maximized="1"
     inkscape:current-layer="layer1" />
  <defs
     id="defs2">
    <style
       id="current-color-scheme"
       type="text/css">
        .ColorScheme-Text { color:#dedede; }
    </style>
  </defs>
  <path
      id="rect846"
      style="fill:currentColor;stroke-width:1.05548"
      class="ColorScheme-Text"
      d="M 7.9980469,2 C 7.8058239,2 7.6140873,2.060818 7.4667969,2.1835938 L 2.2207031,6.5566406 C 1.9665055,6.936917 2.0097167,7.2172562 2,7.5 v 4.472656 C 2,13.096253 2.9037475,14 4.0273438,14 H 5.5 h 1 3 1 1.472656 C 13.096253,14 14,13.096253 14,11.972656 V 7.5 h -0.0039 c -0.003,-0.2889207 0.05651,-0.5326842 -0.220703,-0.9433594 L 8.5292969,2.1835938 C 8.382006,2.0608177 8.1902691,2 7.9980469,2 Z m -0.068359,1.0957031 c 0.077405,-0.0062 0.1572693,0.014831 0.2167969,0.064453 L 12.5625,6.8417969 C 12.668331,6.9300148 12.993677,7.1904805 12.996094,7.5 H 13 v 4.431641 C 13,12.523893 12.523893,13 11.931641,13 H 10.5 V 11.880859 10 9.1191406 C 10.5,8.4987927 10.001207,8 9.3808594,8 H 6.6191406 C 5.9987927,8 5.5,8.4987927 5.5,9.1191406 V 10 11.880859 13 H 4.0683594 C 3.476107,13 3,12.523893 3,11.931641 V 7.5 C 2.9971879,7.0956227 3.2437792,6.930011 3.3496094,6.8417969 L 7.765625,3.1601562 C 7.811928,3.1215623 7.8694838,3.1005281 7.9296875,3.0957031 Z M 6.8652344,9 H 9.1347656 C 9.3367782,9 9.5,9.1632218 9.5,9.3652344 V 13 h -3 V 9.3652344 C 6.5,9.1632218 6.6632218,9 6.8652344,9 Z"
      transform="scale(0.26458333)" />
</svg>
