<?xml version="1.0" encoding="UTF-8" standalone="no"?>
<!-- Created with Inkscape (http://www.inkscape.org/) -->

<svg
   width="16"
   height="16"
   viewBox="0 0 4.2333332 4.2333335"
   version="1.1"
   id="svg5"
   inkscape:version="1.1 (c4e8f9ed74, 2021-05-24)"
   sodipodi:docname="media-skip-forward.svg"
   xmlns:inkscape="http://www.inkscape.org/namespaces/inkscape"
   xmlns:sodipodi="http://sodipodi.sourceforge.net/DTD/sodipodi-0.dtd"
   xmlns="http://www.w3.org/2000/svg"
   xmlns:svg="http://www.w3.org/2000/svg">
  <sodipodi:namedview
     id="namedview7"
     pagecolor="#ffffff"
     bordercolor="#666666"
     borderopacity="1.0"
     inkscape:pageshadow="2"
     inkscape:pageopacity="0.0"
     inkscape:pagecheckerboard="0"
     inkscape:document-units="px"
     showgrid="false"
     units="px"
     height="22px"
     inkscape:zoom="26.272727"
     inkscape:cx="3.4636679"
     inkscape:cy="14.083045"
     inkscape:window-width="1432"
     inkscape:window-height="831"
     inkscape:window-x="259"
     inkscape:window-y="301"
     inkscape:window-maximized="0"
     inkscape:current-layer="svg5"
     inkscape:lockguides="true"
     showguides="true" />
  <defs
     id="defs2">
    <style
       id="current-color-scheme"
       type="text/css">
        .ColorScheme-Text { color:#dedede; }
    </style>
  </defs>
  <path
     id="path984"
     style="fill:currentColor;stroke-width:0.551929"
     class="ColorScheme-Text"
     d="m 0.947229,0.79376496 c -0.0809694,0.001102 -0.153479,0.065321 -0.153479,0.162264 V 3.2778511 c 0,0.1292556 0.1412579,0.199313 0.2470134,0.1405599 C 1.7086991,3.0331239 2.3748566,2.6480803 3.0427083,2.2624091 v 0.9787517 c 0,0.1099344 0.088503,0.1984375 0.1984375,0.1984375 0.1099344,0 0.1984375,-0.088503 0.1984375,-0.1984375 V 0.99220246 c 0,-0.1099345 -0.088503,-0.1984375 -0.1984375,-0.1984375 -0.1099344,0 -0.1984375,0.088503 -0.1984375,0.1984375 V 1.9611355 C 2.3703145,1.576875 1.7003082,1.19847 1.028361,0.81443556 1.001922,0.79975046 0.974218,0.79339856 0.947229,0.79376496 Z" />
</svg>
