<?xml version="1.0" encoding="UTF-8" standalone="no"?>
<!-- Created with Inkscape (http://www.inkscape.org/) -->

<svg
   width="16"
   height="16"
   viewBox="0 0 4.2333332 4.2333334"
   version="1.1"
   id="svg5"
   inkscape:version="1.1 (c4e8f9ed74, 2021-05-24)"
   sodipodi:docname="media-skip-backward.svg"
   xmlns:inkscape="http://www.inkscape.org/namespaces/inkscape"
   xmlns:sodipodi="http://sodipodi.sourceforge.net/DTD/sodipodi-0.dtd"
   xmlns="http://www.w3.org/2000/svg"
   xmlns:svg="http://www.w3.org/2000/svg">
  <sodipodi:namedview
     id="namedview7"
     pagecolor="#ffffff"
     bordercolor="#666666"
     borderopacity="1.0"
     inkscape:pageshadow="2"
     inkscape:pageopacity="0.0"
     inkscape:pagecheckerboard="0"
     inkscape:document-units="px"
     showgrid="false"
     units="px"
     height="22px"
     inkscape:zoom="26.272727"
     inkscape:cx="3.5017301"
     inkscape:cy="14.083045"
     inkscape:window-width="1920"
     inkscape:window-height="1009"
     inkscape:window-x="0"
     inkscape:window-y="0"
     inkscape:window-maximized="1"
     inkscape:current-layer="svg5"
     inkscape:lockguides="true"
     showguides="true" />
  <defs
     id="defs2">
    <style
       id="current-color-scheme"
       type="text/css">
        .ColorScheme-Text { color:#dedede; }
    </style>
  </defs>
  <path
     id="path984"
     style="fill:currentColor;stroke-width:0.551929"
     class="ColorScheme-Text"
     d="m 3.2861043,0.79376495 c 0.080969,0.0011 0.153479,0.065321 0.153479,0.162264 V 3.277851 c 0,0.1292556 -0.1412579,0.199313 -0.2470134,0.1405599 C 2.5246342,3.0331238 1.8584767,2.6480802 1.190625,2.262409 v 0.9787517 c 0,0.1099344 -0.088503,0.1984375 -0.19843751,0.1984375 -0.1099344,0 -0.1984375,-0.088503 -0.1984375,-0.1984375 V 0.99220245 c 0,-0.1099345 0.0885031,-0.1984375 0.1984375,-0.1984375 0.10993441,0 0.19843751,0.088503 0.19843751,0.1984375 V 1.9611354 C 1.8630188,1.5768749 2.5330251,1.1984699 3.2049723,0.81443555 c 0.026439,-0.0146851 0.054143,-0.021037 0.081132,-0.0206706 z" />
</svg>
