<?xml version="1.0" encoding="UTF-8" standalone="no"?>
<!-- Created with Inkscape (http://www.inkscape.org/) -->

<svg
   width="16"
   height="16"
   viewBox="0 0 4.2333332 4.2333335"
   version="1.1"
   id="svg5"
   inkscape:version="1.1 (c4e8f9ed74, 2021-05-24)"
   sodipodi:docname="media-repeat-track-amarok.svg"
   xmlns:inkscape="http://www.inkscape.org/namespaces/inkscape"
   xmlns:sodipodi="http://sodipodi.sourceforge.net/DTD/sodipodi-0.dtd"
   xmlns="http://www.w3.org/2000/svg"
   xmlns:svg="http://www.w3.org/2000/svg">
  <sodipodi:namedview
     id="namedview7"
     pagecolor="#ffffff"
     bordercolor="#666666"
     borderopacity="1.0"
     inkscape:pageshadow="2"
     inkscape:pageopacity="0.0"
     inkscape:pagecheckerboard="0"
     inkscape:document-units="px"
     showgrid="false"
     units="px"
     height="22px"
     inkscape:zoom="19.035714"
     inkscape:cx="4.9380864"
     inkscape:cy="14.971858"
     inkscape:window-width="1920"
     inkscape:window-height="1009"
     inkscape:window-x="0"
     inkscape:window-y="0"
     inkscape:window-maximized="1"
     inkscape:current-layer="svg5" />
  <defs
     id="defs2">
    <style
       id="current-color-scheme"
       type="text/css">
        .ColorScheme-Text { color:#dedede; }
    </style>
  </defs>
  <path
     id="rect948"
     style="fill:currentColor;stroke-width:0.307131"
     d="m 3.1269441,0.36538958 -0.1870687,0.1870686 0.312601,0.3126135 H 1.1715047 c -0.42919358,0 -0.64239126,0.21314442 -0.64233802,0.64233802 l 5.167e-5,0.4165121 c 9.08e-6,0.073063 0.0592287,0.1322916 0.13229167,0.1322916 0.0730627,0 0.13230222,-0.059229 0.13229166,-0.1322916 L 0.79375001,1.5663209 C 0.79370445,1.2510463 0.91514126,1.129655 1.2304158,1.129655 H 3.2524764 L 2.9398754,1.4427729 3.1269441,1.6298416 3.6607203,1.0960653 c 0.00167,-0.00152 0.00303,-0.00355 0.00465,-0.00517 0.051824,-0.051823 0.051824,-0.13524472 0,-0.18706872 z M 2.2164033,1.4609009 1.7736643,1.5445816 V 1.7269995 L 2.0458711,1.7104982 V 2.7838176 H 2.247926 V 1.4609009 Z m 1.3554334,0.7418576 c -0.073063,0 -0.1322917,0.059229 -0.1322917,0.1322916 v 0.3580741 c 0,0.3152746 -0.1213913,0.4361493 -0.4366659,0.4361493 H 0.98098817 L 1.2942652,2.8166601 1.1071965,2.6295914 0.5680935,3.1680307 c -0.051824,0.051824 -0.051824,0.1352457 0,0.1870686 0.001619,0.00161 0.003488,0.00313 0.005168,0.00465 L 1.1071965,3.8940434 1.2942652,3.7069748 0.98098817,3.3938568 H 3.0617904 c 0.4291936,0 0.642338,-0.2126279 0.642338,-0.6418212 V 2.3350501 c 0,-0.073062 -0.059229,-0.1322916 -0.1322917,-0.1322916 z"
     class="ColorScheme-Text"
     sodipodi:nodetypes="cccsssssssccccsscccccccccssssccccsccccssss" />
</svg>
