/* XPM */
static char * bottom_left_inactive_xpm[] = {
"19 19 85 1",
" 	c None",
".	c #3C3C3C",
"+	c #5D5D5D",
"@	c #5B5C5C",
"#	c #848484",
"$	c #E6E7E6",
"%	c #BFBFBF",
"&	c #B6B8BB",
"*	c #DBDBDB",
"=	c #DBDADB",
"-	c #D1D2D6",
";	c #D5D5D5",
">	c #CCCDD1",
",	c #CECFCF",
"'	c #CECECE",
")	c #C6C6CA",
"!	c #C7C7C7",
"~	c #BEC0C4",
"{	c #C0C0C0",
"]	c #BFC0BF",
"^	c #B8B9BC",
"/	c #B8B8B7",
"(	c #B8B8B8",
"_	c #AFB2B6",
":	c #B0B0AF",
"<	c #B0B0B0",
"[	c #A9AAAE",
"}	c #A8A8A9",
"|	c #A8A9A8",
"1	c #A2A3A8",
"2	c #A1A1A1",
"3	c #A2A2A1",
"4	c #9C9DA1",
"5	c #9B9C9B",
"6	c #9B9B9B",
"7	c #96969A",
"8	c #949494",
"9	c #919192",
"0	c #8E8F92",
"a	c #9E9F9F",
"b	c #A2A2A2",
"c	c #8C8B8C",
"d	c #8B8C8D",
"e	c #888A8F",
"f	c #898B8E",
"g	c #8A8B8D",
"h	c #8A8C8D",
"i	c #898A8E",
"j	c #888A8E",
"k	c #87898F",
"l	c #87898E",
"m	c #888A8C",
"n	c #898A8C",
"o	c #87888B",
"p	c #848483",
"q	c #838484",
"r	c #868686",
"s	c #878888",
"t	c #898A8B",
"u	c #888889",
"v	c #7F8080",
"w	c #7C7C7D",
"x	c #7C7C7C",
"y	c #7D7D7C",
"z	c #7C7D7C",
"A	c #7D7C7D",
"B	c #7C7D7D",
"C	c #7D7C7C",
"D	c #7B7B7B",
"E	c #777877",
"F	c #767575",
"G	c #757675",
"H	c #757575",
"I	c #757576",
"J	c #757676",
"K	c #767576",
"L	c #767675",
"M	c #767676",
"N	c #6F6F6F",
"O	c #6F6F70",
"P	c #707070",
"Q	c #70706F",
"R	c #6F706F",
"S	c #707170",
"T	c #696B74",
".++@#$             ",
".%%&#$             ",
".*=-#$             ",
".;;>#$             ",
".,')#$             ",
".!!~#$             ",
".{]^#$             ",
"./(_#$             ",
".:<[#$             ",
".}|1#$             ",
".234#$             ",
".567#$             ",
".890ab             ",
".ccdefggdhijkklmno$",
".#p#qrstuuuuuu##qv$",
".wxxxxyzzAAABzCwDE$",
".FGHHIIJKHHHILHHMG$",
".NONNPQONNNNRNROST$",
"..................."};
