/* XPM */
static char * bottom_right_inactive_xpm[] = {
"19 19 75 1",
" 	c None",
".	c #E6E7E6",
"+	c #767676",
"@	c #5B5C5C",
"#	c #5D5D5D",
"$	c #3C3C3C",
"%	c #B8B9BD",
"&	c #BFBFBF",
"*	c #BEBFBF",
"=	c #D3D4D8",
"-	c #DBDBDB",
";	c #CDD0D3",
">	c #D5D5D5",
",	c #C8C9CD",
"'	c #CECECF",
")	c #CFCECE",
"!	c #C0C1C5",
"~	c #C7C7C7",
"{	c #C8C7C8",
"]	c #B9BBBE",
"^	c #BFC0BF",
"/	c #B2B3B7",
"(	c #B8B8B7",
"_	c #B8B8B8",
":	c #AAACB0",
"<	c #B0B0B0",
"[	c #A3A4A8",
"}	c #A9A9A9",
"|	c #A9A9A8",
"1	c #9D9EA2",
"2	c #A1A2A2",
"3	c #A2A1A2",
"4	c #96999C",
"5	c #9C9B9B",
"6	c #8D8D8D",
"7	c #939394",
"8	c #949494",
"9	c #DEDEDF",
"0	c #87888D",
"a	c #8B8B8C",
"b	c #8B8C8C",
"c	c #8B8C8B",
"d	c #8C8C8C",
"e	c #8C8B8C",
"f	c #8C8B8B",
"g	c #8C8C8B",
"h	c #D4D6D7",
"i	c #808185",
"j	c #848484",
"k	c #848483",
"l	c #838484",
"m	c #848384",
"n	c #838384",
"o	c #CBCBCE",
"p	c #787A7E",
"q	c #7D7C7C",
"r	c #7C7C7C",
"s	c #7C7D7C",
"t	c #7C7D7D",
"u	c #7C7C7D",
"v	c #C4C3C6",
"w	c #727377",
"x	c #767575",
"y	c #757575",
"z	c #767576",
"A	c #757675",
"B	c #757576",
"C	c #767675",
"D	c #A8A9AA",
"E	c #6B6C71",
"F	c #6F6F6F",
"G	c #6F706F",
"H	c #706F6F",
"I	c #70706F",
"J	c #6F6F70",
"             .+@##$",
"             .+%&*$",
"             .+=--$",
"             .+;>>$",
"             .+,')$",
"             .+!~{$",
"             .+]^&$",
"             .+/(_$",
"             .+:<<$",
"             .+[}|$",
"             .+123$",
"             .+455$",
"             66788$",
"90abcddeddcedfccdg$",
"hijjjkjjjjlmjlknjj$",
"opqqqrsqqqtqqusqrs$",
"vwxyyzAyBACAzxBAyC$",
"DEFGFFFHFIJJFFGFFF$",
"$$$$$$$$$$$$$$$$$$$"};
