/* XPM */
static char * bottom_left_active_xpm[] = {
"19 19 61 1",
" 	c None",
".	c #3C3C3C",
"+	c #5B5D5F",
"@	c #5B5C5F",
"#	c #585C5F",
"$	c #848484",
"%	c #A6ADC1",
"&	c #A6AEC0",
"*	c #9DB0C2",
"=	c #A5B3D6",
"-	c #A4B3D5",
";	c #9FBBDA",
">	c #889BC9",
",	c #889AC9",
"'	c #8BA9D0",
")	c #6C83BD",
"!	c #6C84BD",
"~	c #7697C7",
"{	c #516DB1",
"]	c #526EB1",
"^	c #6287BF",
"/	c #3B5BA8",
"(	c #3C5AA8",
"_	c #5279B6",
":	c #2A4BA0",
"<	c #294BA0",
"[	c #436DB1",
"}	c #21449C",
"|	c #3D68AE",
"1	c #22449C",
"2	c #23449C",
"3	c #3F68AE",
"4	c #A5A5A5",
"5	c #2A499E",
"6	c #2A499F",
"7	c #395EA9",
"8	c #5881BA",
"9	c #334FA1",
"0	c #3250A1",
"a	c #324FA1",
"b	c #3350A2",
"c	c #3350A1",
"d	c #3250A2",
"e	c #334FA2",
"f	c #567DB7",
"g	c #E6E7E6",
"h	c #3B56A4",
"i	c #3B56A5",
"j	c #3B55A5",
"k	c #5A80B9",
"l	c #425CA7",
"m	c #425CA8",
"n	c #435CA8",
"o	c #435BA7",
"p	c #435BA8",
"q	c #425BA8",
"r	c #5D84BA",
"s	c #4960AA",
"t	c #4860AA",
"u	c #4860A9",
"v	c #5C81B6",
".+@#$.             ",
".%&*$.             ",
".=-;$.             ",
".>,'$.             ",
".)!~$.             ",
".{]^$.             ",
"./(_$.             ",
".:<[$.             ",
".}}|$.             ",
".}}|$.             ",
".}}|$.             ",
".}}|$.             ",
".1234.             ",
".5678..............",
".90a0b99cd9eaaa0efg",
".hijjihijiiihjiiikg",
".lmnoopnmnnmmmmqmrg",
".stsstttussttttttvg",
"..................."};
