/* XPM */
static char * bottom_right_active_xpm[] = {
"19 19 57 1",
" 	c None",
".	c #3C3C3C",
"+	c #767676",
"@	c #585C5F",
"#	c #5B5D5F",
"$	c #9EB1C2",
"%	c #A6AEC1",
"&	c #A1BDDB",
"*	c #A5B3D6",
"=	c #8DABD2",
"-	c #889BC9",
";	c #7899C9",
">	c #6C84BE",
",	c #6C83BD",
"'	c #6489C0",
")	c #526DB2",
"!	c #526EB2",
"~	c #537BB9",
"{	c #3C5BA8",
"]	c #3B5BA8",
"^	c #456FB3",
"/	c #2A4BA0",
"(	c #3F6AB0",
"_	c #21449C",
":	c #3F69AF",
"<	c #5B7FAB",
"[	c #3359A7",
"}	c #23449C",
"|	c #2B489F",
"1	c #2A499E",
"2	c #D4D6D7",
"3	c #4B71B2",
"4	c #334FA2",
"5	c #334FA1",
"6	c #324FA1",
"7	c #324FA2",
"8	c #3250A1",
"9	c #3350A1",
"0	c #CBCBCE",
"a	c #5176B5",
"b	c #3B56A5",
"c	c #3B56A4",
"d	c #3B55A5",
"e	c #3B55A4",
"f	c #C4C3C6",
"g	c #577AB7",
"h	c #435CA8",
"i	c #435BA8",
"j	c #425CA7",
"k	c #425CA8",
"l	c #425BA8",
"m	c #A8A9AA",
"n	c #5B7CB8",
"o	c #4860AA",
"p	c #4960AA",
"q	c #495FAA",
"r	c #485FAA",
"             .+@##.",
"             .+$%%.",
"             .+&**.",
"             .+=--.",
"             .+;>,.",
"             .+')!.",
"             .+~{].",
"             .+^//.",
"             .+(__.",
"             .+(__.",
"             .+:__.",
"             .+:__.",
"             .<[}}.",
"..............|111.",
"234456789859757775.",
"0abbbcdbbbebbbdbbb.",
"fghijklkljjkjillhk.",
"mnoooppooqoropopoo.",
"..................."};
