/* XPM */
static char * close_pressed_xpm[] = {
"20 25 124 2",
"  	c None",
". 	c #ECECEC",
"+ 	c #E6E6E6",
"@ 	c #D2D2D2",
"# 	c #C1C1C1",
"$ 	c #B5B5B5",
"% 	c #ADADAD",
"& 	c #AFAFAF",
"* 	c #B9B9B9",
"= 	c #C8C8C8",
"- 	c #DCDCDC",
"; 	c #EBEBEB",
"> 	c #DDDDDD",
", 	c #C4C4C4",
"' 	c #B2B2B2",
") 	c #AEAEAE",
"! 	c #ACACAC",
"~ 	c #B8B8B8",
"{ 	c #CECECE",
"] 	c #EAEAEA",
"^ 	c #D3D3D3",
"/ 	c #B6B6B6",
"( 	c #A9A9A9",
"_ 	c #A1A1A1",
": 	c #9C9C9C",
"< 	c #9B9B9B",
"[ 	c #A2A2A2",
"} 	c #ABABAB",
"| 	c #E2E2E2",
"1 	c #D5D5D5",
"2 	c #B3B3B3",
"3 	c #909090",
"4 	c #949494",
"5 	c #8B8B8B",
"6 	c #9E9E9E",
"7 	c #E3E3E3",
"8 	c #DFDFDF",
"9 	c #BCBCBC",
"0 	c #969696",
"a 	c #A6A6A6",
"b 	c #E0E0E0",
"c 	c #E4E4E4",
"d 	c #D8D8D8",
"e 	c #8E8E8E",
"f 	c #979797",
"g 	c #CCCCCC",
"h 	c #E8E8E8",
"i 	c #CDCDCD",
"j 	c #BABABA",
"k 	c #9A9A9A",
"l 	c #EEEEEE",
"m 	c #F6F6F6",
"n 	c #F5F5F5",
"o 	c #F4F4F4",
"p 	c #EFEFEF",
"q 	c #9D9D9D",
"r 	c #BFBFBF",
"s 	c #E9E9E9",
"t 	c #C5C5C5",
"u 	c #C2C2C2",
"v 	c #E0E2E6",
"w 	c #5171B6",
"x 	c #879BC9",
"y 	c #8CA0CA",
"z 	c #6782BE",
"A 	c #8F8F8F",
"B 	c #DADADA",
"C 	c #C9C9C9",
"D 	c #A0A0A0",
"E 	c #E5E5E5",
"F 	c #607DBA",
"G 	c #3057AB",
"H 	c #96A6CB",
"I 	c #CACFDB",
"J 	c #3056AA",
"K 	c #5775B7",
"L 	c #D0D0D0",
"M 	c #CBCBCB",
"N 	c #E7E7E7",
"O 	c #D1D1D1",
"P 	c #CACACA",
"Q 	c #D9D9D9",
"R 	c #4063AF",
"S 	c #B4BCCE",
"T 	c #3257AB",
"U 	c #365BAC",
"V 	c #D4D4D4",
"W 	c #4364AF",
"X 	c #3C5EAC",
"Y 	c #B4B4B4",
"Z 	c #BBBBBB",
"` 	c #929292",
" .	c #A3A3A3",
"..	c #C6C6C6",
"+.	c #3B5EAC",
"@.	c #3055AA",
"#.	c #385BAA",
"$.	c #B7B7B8",
"%.	c #3A5CAB",
"&.	c #AAAFB9",
"*.	c #3055A9",
"=.	c #2F55A9",
"-.	c #BDBDBD",
";.	c #BEBEBE",
">.	c #989898",
",.	c #E1E1E1",
"'.	c #B7BAC2",
").	c #B9BBC0",
"!.	c #9DA7BC",
"~.	c #B4B9C2",
"{.	c #F1F1F1",
"].	c #DEDEDE",
"^.	c #F3F3F3",
"/.	c #F7F7F7",
"(.	c #D7D7D7",
"_.	c #A5A5A5",
":.	c #FCFCFC",
"<.	c #DBDBDB",
"[.	c #FDFDFD",
"}.	c #FAFAFA",
"|.	c #FEFEFE",
"1.	c #FBFBFB",
"2.	c #B0B0B0",
"3.	c #F0F0F0",
"                                        ",
"                                        ",
"                                        ",
". . . . . + @ # $ % & * = - ; . . . . . ",
". . . ; > , ' ) ! % % % & ~ { + . . . . ",
". . ] ^ / ! % ( _ : < [ } % % # | . . . ",
"; ] 1 2 & % : 3 : [ _ 4 5 6 & ) # 7 ; ; ",
"] 8 9 $ & 0 a @ b c b d * e f $ $ g h ] ",
"h i j / k 2 l m n o n m p g 0 q j r - s ",
"b t u % a v w x ; ; ; y z p # A / # i h ",
"B C t D i E F G H 7 I J K c L 6 q M g N ",
"B O P q Q Q Q R J S T U g # j k e V L + ",
"> d L a V O O O W J X 9 Y $ Z < ` > d c ",
"| b Q  .M ......+.@.#.$.j j r k ` E b 7 ",
"c s | < u r r @.%.&.*.=.9 -.;.: >.. + ,.",
"7 l ; % 2 '.@.*.).u !.=.=.~.$ >.Z {.] 8 ",
"].. n 1 : P M M M M M M g P [ k ] ^.E > ",
"- c /./.#  .{ d (.(.(.Q i _.` d :.l > - ",
"B <.; [.}.t  .$ = M t / q q 1 |.m ,.B B ",
"Q Q <.. 1.|.b 9 2 Y Y 2.# . |.m 7 Q Q Q ",
"d d d B + m |.|.3.. p n |.:.p b d d d d ",
"O O O O O (.c l m :.}.o ; ].^ O O O O O ",
"                                        ",
"                                        ",
"                                        "};
