/* XPM */
static char * close_active_xpm[] = {
"20 25 178 2",
"  	c None",
". 	c #ECECEC",
"+ 	c #E8E8E8",
"@ 	c #D8D8D8",
"# 	c #CBCBCB",
"$ 	c #C2C2C2",
"% 	c #BBBBBB",
"& 	c #BDBDBD",
"* 	c #C5C5C5",
"= 	c #D0D0D0",
"- 	c #E0E0E0",
"; 	c #EBEBEB",
"> 	c #CDCDCD",
", 	c #BFBFBF",
"' 	c #BCBBBC",
") 	c #BABABA",
"! 	c #C4C4C4",
"~ 	c #D5D5D5",
"{ 	c #EAEAEA",
"] 	c #D9D9D9",
"^ 	c #C3C3C3",
"/ 	c #B8B8B8",
"( 	c #B1B1B1",
"_ 	c #ADADAD",
": 	c #ACACAD",
"< 	c #B2B2B2",
"[ 	c #B9BAB9",
"} 	c #BCBBBB",
"| 	c #E4E4E4",
"1 	c #EAEBEA",
"2 	c #DAD9DA",
"3 	c #C0C0C1",
"4 	c #BDBDBC",
"5 	c #AEADAD",
"6 	c #A3A3A3",
"7 	c #B2B2B3",
"8 	c #A6A6A7",
"9 	c #9F9F9F",
"0 	c #AFAEAE",
"a 	c #BCBCBC",
"b 	c #CBCACB",
"c 	c #E5E5E5",
"d 	c #E2E2E2",
"e 	c #C8C7C8",
"f 	c #A8A8A7",
"g 	c #B5B5B4",
"h 	c #DADADA",
"i 	c #E6E6E6",
"j 	c #E9E9E9",
"k 	c #E5E6E5",
"l 	c #DFDFDE",
"m 	c #A1A1A2",
"n 	c #A8A9A9",
"o 	c #C1C2C0",
"p 	c #C1C1C0",
"q 	c #D3D3D3",
"r 	c #D4D4D4",
"s 	c #C7C6C6",
"t 	c #ABABAB",
"u 	c #C0C0C0",
"v 	c #F1F1F1",
"w 	c #F8F8F8",
"x 	c #F7F7F7",
"y 	c #F6F6F6",
"z 	c #F6F7F7",
"A 	c #F2F2F2",
"B 	c #A8A8A8",
"C 	c #AEAEAE",
"D 	c #C6C6C6",
"E 	c #CACACA",
"F 	c #DFDFDF",
"G 	c #CFCECF",
"H 	c #CDCCCC",
"I 	c #B5B5B5",
"J 	c #E4E6EA",
"K 	c #5272B7",
"L 	c #899DCB",
"M 	c #EFEFEF",
"N 	c #8EA2CC",
"O 	c #6883BF",
"P 	c #CCCCCC",
"Q 	c #A2A2A2",
"R 	c #DEDEDE",
"S 	c #D0CFCF",
"T 	c #B0B0B0",
"U 	c #D6D6D6",
"V 	c #EAEAEB",
"W 	c #617EBB",
"X 	c #3057AB",
"Y 	c #99A9CE",
"Z 	c #CED3DF",
"` 	c #3056AA",
" .	c #5876B8",
"..	c #AFAFAF",
"+.	c #E7E7E7",
"@.	c #DFDEDE",
"#.	c #DAD9D9",
"$.	c #D4D3D3",
"%.	c #E0E0E1",
"&.	c #4164B0",
"*.	c #BAC2D4",
"=.	c #3257AB",
"-.	c #365BAC",
";.	c #D4D5D4",
">.	c #A1A1A1",
",.	c #DCDCDC",
"'.	c #D8D8D9",
").	c #E1E1E1",
"!.	c #DFDFE0",
"~.	c #D9D8D9",
"{.	c #4465B0",
"].	c #3D5FAD",
"^.	c #C8C8C8",
"/.	c #C1C1C1",
"(.	c #C7C7C7",
"_.	c #ABACAC",
":.	c #A4A5A5",
"<.	c #E3E3E3",
"[.	c #E7E5E6",
"}.	c #E1DFE0",
"|.	c #B3B3B2",
"1.	c #D3D4D4",
"2.	c #3B5EAC",
"3.	c #3055AA",
"4.	c #395CAB",
"5.	c #C3C3C4",
"6.	c #ACABAB",
"7.	c #A5A5A5",
"8.	c #E9EAEA",
"9.	c #ECECEB",
"0.	c #ACACAB",
"a.	c #CCCDCD",
"b.	c #3B5DAC",
"c.	c #B4BAC4",
"d.	c #3055A9",
"e.	c #2F55A9",
"f.	c #C8C9C8",
"g.	c #C9CAC9",
"h.	c #AAAAA9",
"i.	c #EFF0EF",
"j.	c #F0F0F1",
"k.	c #C0C3CB",
"l.	c #C3C5CB",
"m.	c #A5AFC4",
"n.	c #BDC2CB",
"o.	c #C1C2C1",
"p.	c #AAAAAA",
"q.	c #F3F4F4",
"r.	c #ECEDEC",
"s.	c #EEEEED",
"t.	c #F8F7F7",
"u.	c #DDDCDB",
"v.	c #D5D5D6",
"w.	c #EDEEEE",
"x.	c #F6F5F5",
"y.	c #DDDDDD",
"z.	c #F9F8F8",
"A.	c #F9F9F9",
"B.	c #B3B2B3",
"C.	c #D7D7D7",
"D.	c #B5B4B5",
"E.	c #FDFDFD",
"F.	c #DBDBDB",
"G.	c #FEFEFE",
"H.	c #FCFBFC",
"I.	c #CFCFCF",
"J.	c #B3B3B3",
"K.	c #D2D2D2",
"L.	c #DCDDDC",
"M.	c #FFFFFF",
"N.	c #EDEDED",
"O.	c #FCFCFC",
"P.	c #BEBEBE",
"Q.	c #F0F0F0",
"R.	c #F3F3F3",
"S.	c #D1D1D1",
"T.	c #FBFBFB",
"U.	c #F5F5F5",
"                                        ",
"                                        ",
"                                        ",
". . . . . + @ # $ % & * = - ; . . . . . ",
". . . ; - > , ' ) % % % & ! ~ + . . . . ",
". . { ] ^ ) % / ( _ : < [ } % # | . . . ",
"; 1 2 3 4 } 5 6 _ 7 ( 8 9 0 & a b c ; ; ",
"{ d e $ 4 f g h i j k l * m n o p q j { ",
"+ r s ^ t u v w x y z w A ~ B C D E F j ",
"d G H % I J K L M M M N O A P Q ^ P r + ",
"R q S T U V W X Y + Z `  .j @ ..C r ~ +.",
"@.#.$.C - %.- &.` *.=.-.;.P D t >.,.'.i ",
").!.~.g ,.] ] ] {.` ].^./.$ (._.:.<.F | ",
"c [.}.|.1.= = = 2.3.4.5.D D E 6.7.8.k <.",
"i 9.+.0.a.E E 3.b.c.d.e.^.f.g._ h.i.1 ).",
"| j.M % u k.3.d.l.> m.e.e.n.o.p.(.q.r.F ",
"R s.t.u._ q r r r r r r v.q < t w.x.+.y.",
",.c z.A.P B.C.F R R R - U D.7.l E.M R ,.",
"h F.. G.H.I.J.$ K.r I.^ C C L.M.x d h h ",
"] ] F.N.O.M.i ^.u /./.P.P Q.M.x <.] ] ] ",
"@ @ @ h i x M.M.R.Q.A x M.E.Q.- @ @ @ @ ",
"S.S.S.S.S.C.| M x E.T.U.. R q S.S.S.S.S.",
"                                        ",
"                                        ",
"                                        "};
