/* XPM */
static char * close_inactive_xpm[] = {
"20 25 128 2",
"  	c None",
". 	c #ECECEC",
"+ 	c #E9E9E9",
"@ 	c #DCDCDC",
"# 	c #D2D2D2",
"$ 	c #CBCCCB",
"% 	c #C6C7C6",
"& 	c #C7C8C7",
"* 	c #CDCECD",
"= 	c #D6D7D6",
"- 	c #E3E3E3",
"; 	c #EBEBEB",
"> 	c #D4D5D4",
", 	c #C9CAC9",
"' 	c #C5C6C5",
") 	c #CCCDCC",
"! 	c #DADADA",
"~ 	c #DDDDDD",
"{ 	c #CCCCCC",
"] 	c #C3C4C3",
"^ 	c #BDBEBD",
"/ 	c #BABBBA",
"( 	c #B9BAB9",
"_ 	c #BEBFBE",
": 	c #C4C5C4",
"< 	c #E6E6E6",
"[ 	c #DDDEDD",
"} 	c #CACACA",
"| 	c #B1B3B1",
"1 	c #B4B5B4",
"2 	c #AEAFAE",
"3 	c #BBBCBB",
"4 	c #D2D3D2",
"5 	c #E6E7E6",
"6 	c #EAEAEA",
"7 	c #E3E4E3",
"8 	c #CFD0CF",
"9 	c #B5B7B5",
"0 	c #C0C1C0",
"a 	c #DFE0DF",
"b 	c #E9EAE9",
"c 	c #E4E4E4",
"d 	c #CECFCE",
"e 	c #B0B1B0",
"f 	c #B6B7B6",
"g 	c #CACBCA",
"h 	c #D8D9D8",
"i 	c #E8E8E8",
"j 	c #B8B9B8",
"k 	c #F3F3F3",
"l 	c #F9F9F9",
"m 	c #F8F8F8",
"n 	c #F7F7F7",
"o 	c #F4F4F4",
"p 	c #DBDCDB",
"q 	c #E2E2E2",
"r 	c #D5D6D5",
"s 	c #C0C2C0",
"t 	c #EBECEB",
"u 	c #A0A1A0",
"v 	c #BBBBBB",
"w 	c #F1F1F1",
"x 	c #ABABAB",
"y 	c #D4D4D4",
"z 	c #B0B2B0",
"A 	c #E1E1E1",
"B 	c #D9D9D9",
"C 	c #BCBDBC",
"D 	c #DCDDDC",
"E 	c #EDEDED",
"F 	c #A5A6A5",
"G 	c #8B8C8B",
"H 	c #C2C3C2",
"I 	c #DEDFDE",
"J 	c #8C8C8C",
"K 	c #A1A2A1",
"L 	c #DEDEDE",
"M 	c #BBBDBB",
"N 	c #DADBDA",
"O 	c #DBDBDB",
"P 	c #E7E7E7",
"Q 	c #E1E2E1",
"R 	c #DFDFDF",
"S 	c #E4E5E4",
"T 	c #E5E5E5",
"U 	c #929292",
"V 	c #898989",
"W 	c #D0D1D0",
"X 	c #8A8B8A",
"Y 	c #878787",
"Z 	c #D0D0D0",
"` 	c #B3B4B3",
" .	c #BFC0BF",
"..	c #D7D8D7",
"+.	c #8A8A8A",
"@.	c #828482",
"#.	c #868786",
"$.	c #B8BAB8",
"%.	c #EEEFEE",
"&.	c #EAEBEA",
"*.	c #828382",
"=.	c #878987",
"-.	c #D1D2D1",
";.	c #B7B8B7",
">.	c #F2F2F2",
",.	c #EDEEED",
"'.	c #838483",
").	c #D5D5D5",
"!.	c #C0C0C0",
"~.	c #F5F5F5",
"{.	c #EEEEEE",
"].	c #F0F0F0",
"^.	c #F6F6F6",
"/.	c #F9FAF9",
"(.	c #FDFDFD",
"_.	c #EFEFEF",
":.	c #FBFCFB",
"<.	c #FEFEFE",
"[.	c #FBFBFB",
"}.	c #C8C9C8",
"|.	c #D8D8D8",
"1.	c #F4F5F4",
"2.	c #FCFCFC",
"3.	c #E0E0E0",
"4.	c #D1D1D1",
"5.	c #D7D7D7",
"6.	c #FAFAFA",
"7.	c #D3D3D3",
"                                        ",
"                                        ",
"                                        ",
". . . . . + @ # $ % & * = - ; . . . . . ",
". . . . - > , % ' ' ' ' & ) ! + . . . . ",
". . ; ~ { ' ' ] ^ / ( _ : % % # < . . . ",
"; ; [ } & % / | / _ ^ 1 2 3 & % 4 5 ; ; ",
"6 7 8 $ & 9 0 a 6 . b c d e f $ g h + 6 ",
"i ! 8 ) j g k l m n m l o p 9 3 8 4 q + ",
"c r > ' s t u v w w w _ x o y z ) y ! i ",
"A B = C D E F G H t I J K . L M 3 N O P ",
"Q R N 3 S T S U V W X G p y 8 j e Q L < ",
"c c I 0 Q R R R U Y G W g $ Z ( ` P c c ",
"P b S  .N ......+.@.#.* 8 8 4 $.` E b - ",
"P %.&.( > 4 4 *.=.% *.*.W -.4 / ;.>.,.A ",
"c >.w ' g d '.'.W ).!.'.'.d $ ;.Z ~.E R ",
"L {.m Q / ! N N N N N N p ! _ j ].^.P ~ ",
"@ T m /.y _ [ c - - - S D 0 ` c (._.L @ ",
"! O . (.:.=  .$ B N = ) 3 3 q <.^.q ! ! ",
"B B O . [.<.6 W g g g }.y >.<.^.- B B B ",
"|.|.|.! < ^.<.<.1.>.o m <.2._.3.|.|.|.|.",
"4.4.4.4.4.5.c {.^.2.6.o ; L 7.4.4.4.4.4.",
"                                        ",
"                                        ",
"                                        "};
