/* XPM */
static char * hide_pressed_xpm[] = {
"20 25 107 2",
"  	c None",
". 	c #ECECEC",
"+ 	c #E6E6E6",
"@ 	c #D2D2D2",
"# 	c #C1C1C1",
"$ 	c #B5B5B5",
"% 	c #ADADAD",
"& 	c #AFAFAF",
"* 	c #B9B9B9",
"= 	c #C8C8C8",
"- 	c #DCDCDC",
"; 	c #EBEBEB",
"> 	c #DDDDDD",
", 	c #C4C4C4",
"' 	c #B2B2B2",
") 	c #AEAEAE",
"! 	c #ACACAC",
"~ 	c #B8B8B8",
"{ 	c #CECECE",
"] 	c #EAEAEA",
"^ 	c #D3D3D3",
"/ 	c #B6B6B6",
"( 	c #A9A9A9",
"_ 	c #A1A1A1",
": 	c #9C9C9C",
"< 	c #9B9B9B",
"[ 	c #A2A2A2",
"} 	c #ABABAB",
"| 	c #E2E2E2",
"1 	c #D5D5D5",
"2 	c #B3B3B3",
"3 	c #909090",
"4 	c #949494",
"5 	c #8B8B8B",
"6 	c #9E9E9E",
"7 	c #E3E3E3",
"8 	c #DFDFDF",
"9 	c #BCBCBC",
"0 	c #969696",
"a 	c #A6A6A6",
"b 	c #E0E0E0",
"c 	c #E4E4E4",
"d 	c #D8D8D8",
"e 	c #8E8E8E",
"f 	c #979797",
"g 	c #CCCCCC",
"h 	c #E8E8E8",
"i 	c #CDCDCD",
"j 	c #BABABA",
"k 	c #9A9A9A",
"l 	c #EEEEEE",
"m 	c #F6F6F6",
"n 	c #F5F5F5",
"o 	c #F4F4F4",
"p 	c #EFEFEF",
"q 	c #9D9D9D",
"r 	c #BFBFBF",
"s 	c #E9E9E9",
"t 	c #C5C5C5",
"u 	c #C2C2C2",
"v 	c #8F8F8F",
"w 	c #DADADA",
"x 	c #C9C9C9",
"y 	c #A0A0A0",
"z 	c #E5E5E5",
"A 	c #D0D0D0",
"B 	c #CBCBCB",
"C 	c #E7E7E7",
"D 	c #D1D1D1",
"E 	c #CACACA",
"F 	c #D9D9D9",
"G 	c #D4D4D4",
"H 	c #C7C7C7",
"I 	c #B4B4B4",
"J 	c #BBBBBB",
"K 	c #929292",
"L 	c #A3A3A3",
"M 	c #C6C6C6",
"N 	c #BEBEBE",
"O 	c #BDBDBD",
"P 	c #989898",
"Q 	c #E1E1E1",
"R 	c #415DA4",
"S 	c #27499D",
"T 	c #284A9E",
"U 	c #25479D",
"V 	c #425EA5",
"W 	c #4F68A7",
"X 	c #F1F1F1",
"Y 	c #DEDEDE",
"Z 	c #3453A1",
"` 	c #294B9F",
" .	c #2E4FA0",
"..	c #24479E",
"+.	c #5C73AD",
"@.	c #F3F3F3",
"#.	c #F7F7F7",
"$.	c #D7D7D7",
"%.	c #A5A5A5",
"&.	c #FCFCFC",
"*.	c #DBDBDB",
"=.	c #FDFDFD",
"-.	c #FAFAFA",
";.	c #FEFEFE",
">.	c #FBFBFB",
",.	c #B0B0B0",
"'.	c #F0F0F0",
"                                        ",
"                                        ",
"                                        ",
". . . . . + @ # $ % & * = - ; . . . . . ",
". . . ; > , ' ) ! % % % & ~ { + . . . . ",
". . ] ^ / ! % ( _ : < [ } % % # | . . . ",
"; ] 1 2 & % : 3 : [ _ 4 5 6 & ) # 7 ; ; ",
"] 8 9 $ & 0 a @ b c b d * e f $ $ g h ] ",
"h i j / k 2 l m n o n m p g 0 q j r - s ",
"b t u % a ] p ; ; ; ; ; p p # v / # i h ",
"w x t y i z 7 c 7 7 7 z z c A 6 q B g C ",
"w D E q F F F F F F w 1 g # j k e G A + ",
"> d A a G D D D @ A H 9 I $ J < K > d c ",
"| b F L B M M M , r ~ ~ j j r k K z b 7 ",
"c s | < u r r N 9 9 9 N 9 O N : P . + Q ",
"7 l ; % 2 , u R S T U V W M $ P J X ] 8 ",
"Y . n 1 : E B Z ` `  ...+.E [ k ] @.z > ",
"- c #.#.# L { d $.$.$.F i %.K d &.l > - ",
"w *.; =.-.t L $ = B t / q q 1 ;.m Q w w ",
"F F *.. >.;.b 9 2 I I ,.# . ;.m 7 F F F ",
"d d d w + m ;.;.'.. p n ;.&.p b d d d d ",
"D D D D D $.c l m &.-.o ; Y ^ D D D D D ",
"                                        ",
"                                        ",
"                                        "};
