/* XPM */
static char * hide_inactive_xpm[] = {
"20 25 120 2",
"  	c None",
". 	c #ECECEC",
"+ 	c #E9E9E9",
"@ 	c #DCDCDC",
"# 	c #D2D2D2",
"$ 	c #CBCCCB",
"% 	c #C6C7C6",
"& 	c #C7C8C7",
"* 	c #CDCECD",
"= 	c #D6D7D6",
"- 	c #E3E3E3",
"; 	c #EBEBEB",
"> 	c #D4D5D4",
", 	c #C9CAC9",
"' 	c #C5C6C5",
") 	c #CCCDCC",
"! 	c #DADADA",
"~ 	c #DDDDDD",
"{ 	c #CCCCCC",
"] 	c #C3C4C3",
"^ 	c #BDBEBD",
"/ 	c #BABBBA",
"( 	c #B9BAB9",
"_ 	c #BEBFBE",
": 	c #C4C5C4",
"< 	c #E6E6E6",
"[ 	c #DDDEDD",
"} 	c #CACACA",
"| 	c #B1B3B1",
"1 	c #B4B5B4",
"2 	c #AEAFAE",
"3 	c #BBBCBB",
"4 	c #D2D3D2",
"5 	c #E6E7E6",
"6 	c #EAEAEA",
"7 	c #E3E4E3",
"8 	c #CFD0CF",
"9 	c #B5B7B5",
"0 	c #C0C1C0",
"a 	c #DFE0DF",
"b 	c #E9EAE9",
"c 	c #E4E4E4",
"d 	c #CECFCE",
"e 	c #B0B1B0",
"f 	c #B6B7B6",
"g 	c #CACBCA",
"h 	c #D8D9D8",
"i 	c #E8E8E8",
"j 	c #B8B9B8",
"k 	c #F3F3F3",
"l 	c #F9F9F9",
"m 	c #F8F8F8",
"n 	c #F7F7F7",
"o 	c #F4F4F4",
"p 	c #DBDCDB",
"q 	c #E2E2E2",
"r 	c #D5D6D5",
"s 	c #C0C2C0",
"t 	c #F0F0F0",
"u 	c #F1F1F1",
"v 	c #D4D4D4",
"w 	c #B0B2B0",
"x 	c #E1E1E1",
"y 	c #D9D9D9",
"z 	c #BCBDBC",
"A 	c #DCDDDC",
"B 	c #EDEDED",
"C 	c #EBECEB",
"D 	c #DEDEDE",
"E 	c #BBBDBB",
"F 	c #DADBDA",
"G 	c #DBDBDB",
"H 	c #E7E7E7",
"I 	c #E1E2E1",
"J 	c #DFDFDF",
"K 	c #E4E5E4",
"L 	c #E5E5E5",
"M 	c #E5E6E5",
"N 	c #DEDFDE",
"O 	c #D0D1D0",
"P 	c #D0D0D0",
"Q 	c #B3B4B3",
"R 	c #BFC0BF",
"S 	c #D7D8D7",
"T 	c #B8BAB8",
"U 	c #EEEFEE",
"V 	c #EAEBEA",
"W 	c #D1D2D1",
"X 	c #B7B8B7",
"Y 	c #F2F2F2",
"Z 	c #EDEEED",
"` 	c #D5D5D5",
" .	c #686A68",
"..	c #515451",
"+.	c #535553",
"@.	c #505250",
"#.	c #6A6B6A",
"$.	c #757675",
"%.	c #F5F5F5",
"&.	c #EEEEEE",
"*.	c #5D5F5D",
"=.	c #585A58",
"-.	c #515251",
";.	c #7E7F7E",
">.	c #F6F6F6",
",.	c #F9FAF9",
"'.	c #FDFDFD",
").	c #EFEFEF",
"!.	c #FBFCFB",
"~.	c #FEFEFE",
"{.	c #FBFBFB",
"].	c #C8C9C8",
"^.	c #D8D8D8",
"/.	c #F4F5F4",
"(.	c #FCFCFC",
"_.	c #E0E0E0",
":.	c #D1D1D1",
"<.	c #D7D7D7",
"[.	c #FAFAFA",
"}.	c #D3D3D3",
"                                        ",
"                                        ",
"                                        ",
". . . . . + @ # $ % & * = - ; . . . . . ",
". . . . - > , % ' ' ' ' & ) ! + . . . . ",
". . ; ~ { ' ' ] ^ / ( _ : % % # < . . . ",
"; ; [ } & % / | / _ ^ 1 2 3 & % 4 5 ; ; ",
"6 7 8 $ & 9 0 a 6 . b c d e f $ g h + 6 ",
"i ! 8 ) j g k l m n m l o p 9 3 8 4 q + ",
"c r > ' s t o u u u u u o o v w ) v ! i ",
"x y = z A B C . C C C B B . D E 3 F G H ",
"I J F 3 K L K K K K M q p v 8 j e I D < ",
"c c N 0 I J J J a D h O g $ P ( Q H c c ",
"H b K R F S S S r 4 * * 8 8 4 T Q B b - ",
"H U V ( > 4 4 W O O O W O W 4 / X Y Z x ",
"c Y u ' g r `  ...+.@.#.$.S $ X P %.B J ",
"D &.m I / ! F *.+.+.=.-.;.! _ j t >.H ~ ",
"@ L m ,.v _ [ c - - - K A 0 Q c '.).D @ ",
"! G . '.!.= R $ y F = ) 3 3 q ~.>.q ! ! ",
"y y G . {.~.6 O g g g ].v Y ~.>.- y y y ",
"^.^.^.! < >.~.~./.Y o m ~.(.)._.^.^.^.^.",
":.:.:.:.:.<.c &.>.(.[.o ; D }.:.:.:.:.:.",
"                                        ",
"                                        ",
"                                        "};
