/* XPM */
static char * hide_active_xpm[] = {
"20 25 169 2",
"  	c None",
". 	c #ECECEC",
"+ 	c #E8E8E8",
"@ 	c #D8D8D8",
"# 	c #CBCBCB",
"$ 	c #C2C2C2",
"% 	c #BBBBBB",
"& 	c #BDBDBD",
"* 	c #C5C5C5",
"= 	c #D0D0D0",
"- 	c #E0E0E0",
"; 	c #EBEBEB",
"> 	c #CDCDCD",
", 	c #BFBFBF",
"' 	c #BCBBBC",
") 	c #BABABA",
"! 	c #C4C4C4",
"~ 	c #D5D5D5",
"{ 	c #EAEAEA",
"] 	c #D9D9D9",
"^ 	c #C3C3C3",
"/ 	c #B8B8B8",
"( 	c #B1B1B1",
"_ 	c #ADADAD",
": 	c #ACACAD",
"< 	c #B2B2B2",
"[ 	c #B9BAB9",
"} 	c #BCBBBB",
"| 	c #E4E4E4",
"1 	c #EAEBEA",
"2 	c #DAD9DA",
"3 	c #C0C0C1",
"4 	c #BDBDBC",
"5 	c #AEADAD",
"6 	c #A3A3A3",
"7 	c #B2B2B3",
"8 	c #A6A6A7",
"9 	c #9F9F9F",
"0 	c #AFAEAE",
"a 	c #BCBCBC",
"b 	c #CBCACB",
"c 	c #E5E5E5",
"d 	c #E2E2E2",
"e 	c #C8C7C8",
"f 	c #A8A8A7",
"g 	c #B5B5B4",
"h 	c #DADADA",
"i 	c #E6E6E6",
"j 	c #E9E9E9",
"k 	c #E5E6E5",
"l 	c #DFDFDE",
"m 	c #A1A1A2",
"n 	c #A8A9A9",
"o 	c #C1C2C0",
"p 	c #C1C1C0",
"q 	c #D3D3D3",
"r 	c #D4D4D4",
"s 	c #C7C6C6",
"t 	c #ABABAB",
"u 	c #C0C0C0",
"v 	c #F1F1F1",
"w 	c #F8F8F8",
"x 	c #F7F7F7",
"y 	c #F6F6F6",
"z 	c #F6F7F7",
"A 	c #F2F2F2",
"B 	c #A8A8A8",
"C 	c #AEAEAE",
"D 	c #C6C6C6",
"E 	c #CACACA",
"F 	c #DFDFDF",
"G 	c #CFCECF",
"H 	c #CDCCCC",
"I 	c #B5B5B5",
"J 	c #EEEEEE",
"K 	c #EFEFEF",
"L 	c #CCCCCC",
"M 	c #A2A2A2",
"N 	c #DEDEDE",
"O 	c #D0CFCF",
"P 	c #B0B0B0",
"Q 	c #D6D6D6",
"R 	c #EAEAEB",
"S 	c #E8E9E8",
"T 	c #EAEAE9",
"U 	c #E9EAE9",
"V 	c #AFAFAF",
"W 	c #E7E7E7",
"X 	c #DFDEDE",
"Y 	c #DAD9D9",
"Z 	c #D4D3D3",
"` 	c #E0E0E1",
" .	c #E1E1E1",
"..	c #DCDDDC",
"+.	c #D4D5D4",
"@.	c #A1A1A1",
"#.	c #DCDCDC",
"$.	c #D8D8D9",
"%.	c #DFDFE0",
"&.	c #D9D8D9",
"*.	c #DADAD9",
"=.	c #D8D8D7",
"-.	c #D1D1D1",
";.	c #C8C8C8",
">.	c #C1C1C1",
",.	c #C7C7C7",
"'.	c #ABACAC",
").	c #A4A5A5",
"!.	c #E3E3E3",
"~.	c #E7E5E6",
"{.	c #E1DFE0",
"].	c #B3B3B2",
"^.	c #D3D4D4",
"/.	c #CECECE",
"(.	c #C4C4C5",
"_.	c #ACABAB",
":.	c #A5A5A5",
"<.	c #E9EAEA",
"[.	c #ECECEB",
"}.	c #ACACAB",
"|.	c #CCCDCD",
"1.	c #CAC9C9",
"2.	c #C7C8C8",
"3.	c #C9C9C8",
"4.	c #C8C9C8",
"5.	c #C9CAC9",
"6.	c #AAAAA9",
"7.	c #EFF0EF",
"8.	c #F0F0F1",
"9.	c #435FA6",
"0.	c #27499D",
"a.	c #294B9F",
"b.	c #25479D",
"c.	c #4460A7",
"d.	c #526BAA",
"e.	c #C1C2C1",
"f.	c #AAAAAA",
"g.	c #F3F4F4",
"h.	c #ECEDEC",
"i.	c #EEEEED",
"j.	c #F8F7F7",
"k.	c #DDDCDB",
"l.	c #3554A2",
"m.	c #2F50A1",
"n.	c #24479E",
"o.	c #5F76B0",
"p.	c #EDEEEE",
"q.	c #F6F5F5",
"r.	c #DDDDDD",
"s.	c #F9F8F8",
"t.	c #F9F9F9",
"u.	c #B3B2B3",
"v.	c #D7D7D7",
"w.	c #B5B4B5",
"x.	c #FDFDFD",
"y.	c #DBDBDB",
"z.	c #FEFEFE",
"A.	c #FCFBFC",
"B.	c #CFCFCF",
"C.	c #B3B3B3",
"D.	c #D2D2D2",
"E.	c #FFFFFF",
"F.	c #EDEDED",
"G.	c #FCFCFC",
"H.	c #BEBEBE",
"I.	c #F0F0F0",
"J.	c #F3F3F3",
"K.	c #FBFBFB",
"L.	c #F5F5F5",
"                                        ",
"                                        ",
"                                        ",
". . . . . + @ # $ % & * = - ; . . . . . ",
". . . ; - > , ' ) % % % & ! ~ + . . . . ",
". . { ] ^ ) % / ( _ : < [ } % # | . . . ",
"; 1 2 3 4 } 5 6 _ 7 ( 8 9 0 & a b c ; ; ",
"{ d e $ 4 f g h i j k l * m n o p q j { ",
"+ r s ^ t u v w x y z w A ~ B C D E F j ",
"d G H % I J A K K K K K A A L M ^ L r + ",
"N q O P Q R + S + + + T U j @ V C r ~ W ",
"X Y Z C - ` - - - -  ...+.L D t @.#.$.i ",
" .%.&.g #.] ] ] *.=.-.;.>.$ ,.'.).!.F | ",
"c ~.{.].^.= = = /.E (.! D D E _.:.<.k !.",
"i [.W }.|.E E 1.;.2.;.3.;.4.5._ 6.7.1  .",
"| 8.K % u /.> 9.0.a.b.c.d.= e.f.,.g.h.F ",
"N i.j.k._ q r l.a.a.m.n.o.q < t p.q.W r.",
"#.c s.t.L u.v.F N N N - Q w.:.l x.K N #.",
"h y.. z.A.B.C.$ D.r B.^ C C ..E.x d h h ",
"] ] y.F.G.E.i ;.u >.>.H.L I.E.x !.] ] ] ",
"@ @ @ h i x E.E.J.I.A x E.x.I.- @ @ @ @ ",
"-.-.-.-.-.v.| K x x.K.L.. N q -.-.-.-.-.",
"                                        ",
"                                        ",
"                                        "};
