/* XPM */
static char * left_inactive_xpm[] = {
"6 32 7 1",
" 	c None",
".	c #3C3C3C",
"+	c #A5A5A5",
"@	c #C9C9C9",
"#	c #929394",
"$	c #7C7C7C",
"%	c #E6E7E6",
".+@#$%",
".+@#$%",
".+@#$%",
".+@#$%",
".+@#$%",
".+@#$%",
".+@#$%",
".+@#$%",
".+@#$%",
".+@#$%",
".+@#$%",
".+@#$%",
".+@#$%",
".+@#$%",
".+@#$%",
".+@#$%",
".+@#$%",
".+@#$%",
".+@#$%",
".+@#$%",
".+@#$%",
".+@#$%",
".+@#$%",
".+@#$%",
".+@#$%",
".+@#$%",
".+@#$%",
".+@#$%",
".+@#$%",
".+@#$%",
".+@#$%",
".+@#$%"};
