/* XPM */
static char * maximize_pressed_xpm[] = {
"20 25 100 2",
"  	c None",
". 	c #ECECEC",
"+ 	c #E6E6E6",
"@ 	c #D2D2D2",
"# 	c #C1C1C1",
"$ 	c #B5B5B5",
"% 	c #ADADAD",
"& 	c #AFAFAF",
"* 	c #B9B9B9",
"= 	c #C8C8C8",
"- 	c #DCDCDC",
"; 	c #EBEBEB",
"> 	c #DDDDDD",
", 	c #C4C4C4",
"' 	c #B2B2B2",
") 	c #AEAEAE",
"! 	c #ACACAC",
"~ 	c #B8B8B8",
"{ 	c #CECECE",
"] 	c #EAEAEA",
"^ 	c #D3D3D3",
"/ 	c #B6B6B6",
"( 	c #A9A9A9",
"_ 	c #A1A1A1",
": 	c #9C9C9C",
"< 	c #9B9B9B",
"[ 	c #A2A2A2",
"} 	c #ABABAB",
"| 	c #E2E2E2",
"1 	c #D5D5D5",
"2 	c #B3B3B3",
"3 	c #909090",
"4 	c #949494",
"5 	c #8B8B8B",
"6 	c #9E9E9E",
"7 	c #E3E3E3",
"8 	c #DFDFDF",
"9 	c #BCBCBC",
"0 	c #969696",
"a 	c #A6A6A6",
"b 	c #E0E0E0",
"c 	c #E4E4E4",
"d 	c #D8D8D8",
"e 	c #8E8E8E",
"f 	c #979797",
"g 	c #CCCCCC",
"h 	c #E8E8E8",
"i 	c #CDCDCD",
"j 	c #BABABA",
"k 	c #9A9A9A",
"l 	c #EEEEEE",
"m 	c #F6F6F6",
"n 	c #F5F5F5",
"o 	c #F4F4F4",
"p 	c #EFEFEF",
"q 	c #9D9D9D",
"r 	c #BFBFBF",
"s 	c #E9E9E9",
"t 	c #C5C5C5",
"u 	c #C2C2C2",
"v 	c #8F8F8F",
"w 	c #DADADA",
"x 	c #C9C9C9",
"y 	c #A0A0A0",
"z 	c #E5E5E5",
"A 	c #3258AB",
"B 	c #3158AB",
"C 	c #D0D0D0",
"D 	c #CBCBCB",
"E 	c #E7E7E7",
"F 	c #D1D1D1",
"G 	c #CACACA",
"H 	c #D9D9D9",
"I 	c #3056AB",
"J 	c #D4D4D4",
"K 	c #C7C7C7",
"L 	c #B4B4B4",
"M 	c #BBBBBB",
"N 	c #929292",
"O 	c #A3A3A3",
"P 	c #C6C6C6",
"Q 	c #3056AA",
"R 	c #BEBEBE",
"S 	c #989898",
"T 	c #E1E1E1",
"U 	c #F1F1F1",
"V 	c #DEDEDE",
"W 	c #3055AA",
"X 	c #F3F3F3",
"Y 	c #F7F7F7",
"Z 	c #D7D7D7",
"` 	c #A5A5A5",
" .	c #FCFCFC",
"..	c #DBDBDB",
"+.	c #FDFDFD",
"@.	c #FAFAFA",
"#.	c #FEFEFE",
"$.	c #FBFBFB",
"%.	c #B0B0B0",
"&.	c #F0F0F0",
"                                        ",
"                                        ",
"                                        ",
". . . . . + @ # $ % & * = - ; . . . . . ",
". . . ; > , ' ) ! % % % & ~ { + . . . . ",
". . ] ^ / ! % ( _ : < [ } % % # | . . . ",
"; ] 1 2 & % : 3 : [ _ 4 5 6 & ) # 7 ; ; ",
"] 8 9 $ & 0 a @ b c b d * e f $ $ g h ] ",
"h i j / k 2 l m n o n m p g 0 q j r - s ",
"b t u % a ] p ; ; ; ; ; p p # v / # i h ",
"w x t y i z A B B B B B B B C 6 q D g E ",
"w F G q H H B H H H w 1 g I j k e J C + ",
"> d C a J F B F @ C K 9 L I M < N > d c ",
"| b H O D P I P , r ~ ~ j Q r k N z b 7 ",
"c s | < u r I R 9 9 9 R 9 Q R : S . + T ",
"7 l ; % 2 , I u # u u u u Q $ S M U ] 8 ",
"V . n 1 : G Q Q Q Q Q Q W W [ k ] X z > ",
"- c Y Y # O { d Z Z Z H i ` N d  .l > - ",
"w ..; +.@.t O $ = D t / q q 1 #.m T w w ",
"H H ... $.#.b 9 2 L L %.# . #.m 7 H H H ",
"d d d w + m #.#.&.. p n #. .p b d d d d ",
"F F F F F Z c l m  .@.o ; V ^ F F F F F ",
"                                        ",
"                                        ",
"                                        "};
