/* XPM */
static char * maximize_active_xpm[] = {
"20 25 161 2",
"  	c None",
". 	c #ECECEC",
"+ 	c #E8E8E8",
"@ 	c #D8D8D8",
"# 	c #CBCBCB",
"$ 	c #C2C2C2",
"% 	c #BBBBBB",
"& 	c #BDBDBD",
"* 	c #C5C5C5",
"= 	c #D0D0D0",
"- 	c #E0E0E0",
"; 	c #EBEBEB",
"> 	c #CDCDCD",
", 	c #BFBFBF",
"' 	c #BCBBBC",
") 	c #BABABA",
"! 	c #C4C4C4",
"~ 	c #D5D5D5",
"{ 	c #EAEAEA",
"] 	c #D9D9D9",
"^ 	c #C3C3C3",
"/ 	c #B8B8B8",
"( 	c #B1B1B1",
"_ 	c #ADADAD",
": 	c #ACACAD",
"< 	c #B2B2B2",
"[ 	c #B9BAB9",
"} 	c #BCBBBB",
"| 	c #E4E4E4",
"1 	c #EAEBEA",
"2 	c #DAD9DA",
"3 	c #C0C0C1",
"4 	c #BDBDBC",
"5 	c #AEADAD",
"6 	c #A3A3A3",
"7 	c #B2B2B3",
"8 	c #A6A6A7",
"9 	c #9F9F9F",
"0 	c #AFAEAE",
"a 	c #BCBCBC",
"b 	c #CBCACB",
"c 	c #E5E5E5",
"d 	c #E2E2E2",
"e 	c #C8C7C8",
"f 	c #A8A8A7",
"g 	c #B5B5B4",
"h 	c #DADADA",
"i 	c #E6E6E6",
"j 	c #E9E9E9",
"k 	c #E5E6E5",
"l 	c #DFDFDE",
"m 	c #A1A1A2",
"n 	c #A8A9A9",
"o 	c #C1C2C0",
"p 	c #C1C1C0",
"q 	c #D3D3D3",
"r 	c #D4D4D4",
"s 	c #C7C6C6",
"t 	c #ABABAB",
"u 	c #C0C0C0",
"v 	c #F1F1F1",
"w 	c #F8F8F8",
"x 	c #F7F7F7",
"y 	c #F6F6F6",
"z 	c #F6F7F7",
"A 	c #F2F2F2",
"B 	c #A8A8A8",
"C 	c #AEAEAE",
"D 	c #C6C6C6",
"E 	c #CACACA",
"F 	c #DFDFDF",
"G 	c #CFCECF",
"H 	c #CDCCCC",
"I 	c #B5B5B5",
"J 	c #EEEEEE",
"K 	c #EFEFEF",
"L 	c #CCCCCC",
"M 	c #A2A2A2",
"N 	c #DEDEDE",
"O 	c #D0CFCF",
"P 	c #B0B0B0",
"Q 	c #D6D6D6",
"R 	c #EAEAEB",
"S 	c #3258AB",
"T 	c #3158AB",
"U 	c #AFAFAF",
"V 	c #E7E7E7",
"W 	c #DFDEDE",
"X 	c #DAD9D9",
"Y 	c #D4D3D3",
"Z 	c #E0E0E1",
"` 	c #E1E1E1",
" .	c #DCDDDC",
"..	c #D4D5D4",
"+.	c #3056AB",
"@.	c #A1A1A1",
"#.	c #DCDCDC",
"$.	c #D8D8D9",
"%.	c #DFDFE0",
"&.	c #D9D8D9",
"*.	c #DADAD9",
"=.	c #D8D8D7",
"-.	c #D1D1D1",
";.	c #C8C8C8",
">.	c #C1C1C1",
",.	c #C7C7C7",
"'.	c #ABACAC",
").	c #A4A5A5",
"!.	c #E3E3E3",
"~.	c #E7E5E6",
"{.	c #E1DFE0",
"].	c #B3B3B2",
"^.	c #D3D4D4",
"/.	c #CECECE",
"(.	c #C4C4C5",
"_.	c #3056AA",
":.	c #ACABAB",
"<.	c #A5A5A5",
"[.	c #E9EAEA",
"}.	c #ECECEB",
"|.	c #ACACAB",
"1.	c #CCCDCD",
"2.	c #CAC9C9",
"3.	c #C7C8C8",
"4.	c #C9C9C8",
"5.	c #C9CAC9",
"6.	c #AAAAA9",
"7.	c #EFF0EF",
"8.	c #F0F0F1",
"9.	c #CCCCCD",
"0.	c #C1C2C1",
"a.	c #AAAAAA",
"b.	c #F3F4F4",
"c.	c #ECEDEC",
"d.	c #EEEEED",
"e.	c #F8F7F7",
"f.	c #DDDCDB",
"g.	c #3055AA",
"h.	c #EDEEEE",
"i.	c #F6F5F5",
"j.	c #DDDDDD",
"k.	c #F9F8F8",
"l.	c #F9F9F9",
"m.	c #B3B2B3",
"n.	c #D7D7D7",
"o.	c #B5B4B5",
"p.	c #FDFDFD",
"q.	c #DBDBDB",
"r.	c #FEFEFE",
"s.	c #FCFBFC",
"t.	c #CFCFCF",
"u.	c #B3B3B3",
"v.	c #D2D2D2",
"w.	c #FFFFFF",
"x.	c #EDEDED",
"y.	c #FCFCFC",
"z.	c #BEBEBE",
"A.	c #F0F0F0",
"B.	c #F3F3F3",
"C.	c #FBFBFB",
"D.	c #F5F5F5",
"                                        ",
"                                        ",
"                                        ",
". . . . . + @ # $ % & * = - ; . . . . . ",
". . . ; - > , ' ) % % % & ! ~ + . . . . ",
". . { ] ^ ) % / ( _ : < [ } % # | . . . ",
"; 1 2 3 4 } 5 6 _ 7 ( 8 9 0 & a b c ; ; ",
"{ d e $ 4 f g h i j k l * m n o p q j { ",
"+ r s ^ t u v w x y z w A ~ B C D E F j ",
"d G H % I J A K K K K K A A L M ^ L r + ",
"N q O P Q R S T T T T T T T @ U C r ~ V ",
"W X Y C - Z T - - - `  ...+.D t @.#.$.i ",
"` %.&.g #.] T ] *.=.-.;.>.+.,.'.).!.F | ",
"c ~.{.].^.= +.= /.E (.! D _.E :.<.[.k !.",
"i }.V |.1.E +.2.;.3.;.4.;._.5._ 6.7.1 ` ",
"| 8.K % u /.+.H 9.> > > > _.0.a.,.b.c.F ",
"N d.e.f._ q _._._._._._.g.g.< t h.i.V j.",
"#.c k.l.L m.n.F N N N - Q o.<.l p.K N #.",
"h q.. r.s.t.u.$ v.r t.^ C C  .w.x d h h ",
"] ] q.x.y.w.i ;.u >.>.z.L A.w.x !.] ] ] ",
"@ @ @ h i x w.w.B.A.A x w.p.A.- @ @ @ @ ",
"-.-.-.-.-.n.| K x p.C.D.. N q -.-.-.-.-.",
"                                        ",
"                                        ",
"                                        "};
