/* XPM */
static char * maximize_inactive_xpm[] = {
"20 25 120 2",
"  	c None",
". 	c #ECECEC",
"+ 	c #E9E9E9",
"@ 	c #DCDCDC",
"# 	c #D2D2D2",
"$ 	c #CBCCCB",
"% 	c #C6C7C6",
"& 	c #C7C8C7",
"* 	c #CDCECD",
"= 	c #D6D7D6",
"- 	c #E3E3E3",
"; 	c #EBEBEB",
"> 	c #D4D5D4",
", 	c #C9CAC9",
"' 	c #C5C6C5",
") 	c #CCCDCC",
"! 	c #DADADA",
"~ 	c #DDDDDD",
"{ 	c #CCCCCC",
"] 	c #C3C4C3",
"^ 	c #BDBEBD",
"/ 	c #BABBBA",
"( 	c #B9BAB9",
"_ 	c #BEBFBE",
": 	c #C4C5C4",
"< 	c #E6E6E6",
"[ 	c #DDDEDD",
"} 	c #CACACA",
"| 	c #B1B3B1",
"1 	c #B4B5B4",
"2 	c #AEAFAE",
"3 	c #BBBCBB",
"4 	c #D2D3D2",
"5 	c #E6E7E6",
"6 	c #EAEAEA",
"7 	c #E3E4E3",
"8 	c #CFD0CF",
"9 	c #B5B7B5",
"0 	c #C0C1C0",
"a 	c #DFE0DF",
"b 	c #E9EAE9",
"c 	c #E4E4E4",
"d 	c #CECFCE",
"e 	c #B0B1B0",
"f 	c #B6B7B6",
"g 	c #CACBCA",
"h 	c #D8D9D8",
"i 	c #E8E8E8",
"j 	c #B8B9B8",
"k 	c #F3F3F3",
"l 	c #F9F9F9",
"m 	c #F8F8F8",
"n 	c #F7F7F7",
"o 	c #F4F4F4",
"p 	c #DBDCDB",
"q 	c #E2E2E2",
"r 	c #D5D6D5",
"s 	c #C0C2C0",
"t 	c #F0F0F0",
"u 	c #F1F1F1",
"v 	c #D4D4D4",
"w 	c #B0B2B0",
"x 	c #E1E1E1",
"y 	c #D9D9D9",
"z 	c #BCBDBC",
"A 	c #DCDDDC",
"B 	c #EDEDED",
"C 	c #8C8D8C",
"D 	c #8D8E8D",
"E 	c #DEDEDE",
"F 	c #BBBDBB",
"G 	c #DADBDA",
"H 	c #DBDBDB",
"I 	c #E7E7E7",
"J 	c #E1E2E1",
"K 	c #DFDFDF",
"L 	c #E4E5E4",
"M 	c #E5E5E5",
"N 	c #8A8B8A",
"O 	c #E5E6E5",
"P 	c #848484",
"Q 	c #DEDFDE",
"R 	c #888988",
"S 	c #D0D1D0",
"T 	c #818281",
"U 	c #D0D0D0",
"V 	c #B3B4B3",
"W 	c #BFC0BF",
"X 	c #D7D8D7",
"Y 	c #858585",
"Z 	c #838383",
"` 	c #B8BAB8",
" .	c #EEEFEE",
"..	c #EAEBEA",
"+.	c #838483",
"@.	c #D1D2D1",
"#.	c #B7B8B7",
"$.	c #F2F2F2",
"%.	c #EDEEED",
"&.	c #D5D5D5",
"*.	c #F5F5F5",
"=.	c #EEEEEE",
"-.	c #868686",
";.	c #858685",
">.	c #F6F6F6",
",.	c #F9FAF9",
"'.	c #FDFDFD",
").	c #EFEFEF",
"!.	c #FBFCFB",
"~.	c #FEFEFE",
"{.	c #FBFBFB",
"].	c #C8C9C8",
"^.	c #D8D8D8",
"/.	c #F4F5F4",
"(.	c #FCFCFC",
"_.	c #E0E0E0",
":.	c #D1D1D1",
"<.	c #D7D7D7",
"[.	c #FAFAFA",
"}.	c #D3D3D3",
"                                        ",
"                                        ",
"                                        ",
". . . . . + @ # $ % & * = - ; . . . . . ",
". . . . - > , % ' ' ' ' & ) ! + . . . . ",
". . ; ~ { ' ' ] ^ / ( _ : % % # < . . . ",
"; ; [ } & % / | / _ ^ 1 2 3 & % 4 5 ; ; ",
"6 7 8 $ & 9 0 a 6 . b c d e f $ g h + 6 ",
"i ! 8 ) j g k l m n m l o p 9 3 8 4 q + ",
"c r > ' s t o u u u u u o o v w ) v ! i ",
"x y = z A B C C C C C D D C E F 3 G H I ",
"J K G 3 L M N L L L O q p P 8 j e J E < ",
"c c Q 0 J K R K a E h S g T U ( V I c c ",
"I b L W G X Y X r 4 * * 8 Z 4 ` V B b - ",
"I  ...( > 4 +.@.S S S @.S Z 4 / #.$.%.x ",
"c $.u ' g r P > > &.&.&.&.Y $ #.U *.B K ",
"E =.m J / ! -.-.-.-.-.-.;.;._ j t >.I ~ ",
"@ M m ,.v _ [ c - - - L A 0 V c '.).E @ ",
"! H . '.!.= W $ y G = ) 3 3 q ~.>.q ! ! ",
"y y H . {.~.6 S g g g ].v $.~.>.- y y y ",
"^.^.^.! < >.~.~./.$.o m ~.(.)._.^.^.^.^.",
":.:.:.:.:.<.c =.>.(.[.o ; E }.:.:.:.:.:.",
"                                        ",
"                                        ",
"                                        "};
