/* XPM */
static char * menu_inactive_xpm[] = {
"17 25 18 1",
" 	c None",
".	c #DEDDDE",
"+	c #D9D8D8",
"@	c #D4D4D4",
"#	c #D1D1D1",
"$	c #CCCCCC",
"%	c #C8C8C8",
"&	c #C4C4C5",
"*	c #C0C0C0",
"=	c #BDBDBD",
"-	c #B9BABA",
";	c #B7B6B7",
">	c #B4B4B4",
",	c #B0B0B0",
"'	c #ACACAC",
")	c #A8A9A8",
"!	c #A5A4A4",
"~	c #A2A1A1",
"                 ",
"                 ",
"                 ",
"                 ",
".................",
"+++++++++++++++++",
"@@@@@@@@@@@@@@@@@",
"#################",
"$$$$$$$$$$$$$$$$$",
"%%%%%%%%%%%%%%%%%",
"&&&&&&&&&&&&&&&&&",
"*****************",
"=================",
"-----------------",
";;;;;;;;;;;;;;;;;",
">>>>>>>>>>>>>>>>>",
",,,,,,,,,,,,,,,,,",
"'''''''''''''''''",
")))))))))))))))))",
"!!!!!!!!!!!!!!!!!",
"~~~~~~~~~~~~~~~~~",
"                 ",
"                 ",
"                 ",
"                 "};
