/* XPM */
static char * right_inactive_xpm[] = {
"6 32 6 1",
" 	c None",
".	c #E6E7E6",
"+	c #A5A5A5",
"@	c #ECECEC",
"#	c #A8A9AA",
"$	c #3C3C3C",
".+@@#$",
".+@@#$",
".+@@#$",
".+@@#$",
".+@@#$",
".+@@#$",
".+@@#$",
".+@@#$",
".+@@#$",
".+@@#$",
".+@@#$",
".+@@#$",
".+@@#$",
".+@@#$",
".+@@#$",
".+@@#$",
".+@@#$",
".+@@#$",
".+@@#$",
".+@@#$",
".+@@#$",
".+@@#$",
".+@@#$",
".+@@#$",
".+@@#$",
".+@@#$",
".+@@#$",
".+@@#$",
".+@@#$",
".+@@#$",
".+@@#$",
".+@@#$"};
