/* XPM */
static char * right_active_xpm[] = {
"6 32 5 1",
" 	c None",
".	c #3C3C3C",
"+	c #A5A5A5",
"@	c #ECECEC",
"#	c #A8A9AA",
".+@@#.",
".+@@#.",
".+@@#.",
".+@@#.",
".+@@#.",
".+@@#.",
".+@@#.",
".+@@#.",
".+@@#.",
".+@@#.",
".+@@#.",
".+@@#.",
".+@@#.",
".+@@#.",
".+@@#.",
".+@@#.",
".+@@#.",
".+@@#.",
".+@@#.",
".+@@#.",
".+@@#.",
".+@@#.",
".+@@#.",
".+@@#.",
".+@@#.",
".+@@#.",
".+@@#.",
".+@@#.",
".+@@#.",
".+@@#.",
".+@@#.",
".+@@#."};
