/* XPM */
static char * title_2_active_xpm[] = {
"8 25 18 1",
" 	c None",
".	c #3C3C3C",
"+	c #B2C8DC",
"@	c #B0BCDA",
"#	c #A4B2D5",
"$	c #96A6CF",
"%	c #889BC9",
"&	c #7C91C3",
"*	c #6E85BD",
"=	c #627BB8",
"-	c #5772B4",
";	c #4B68AF",
">	c #415FAA",
",	c #3857A5",
"'	c #3050A2",
")	c #294A9F",
"!	c #23459D",
"~	c #21449C",
"........",
"++++++++",
"@@@@@@@@",
"########",
"$$$$$$$$",
"%%%%%%%%",
"&&&&&&&&",
"********",
"========",
"--------",
";;;;;;;;",
">>>>>>>>",
",,,,,,,,",
"''''''''",
"))))))))",
"!!!!!!!!",
"~~~~~~~~",
"~~~~~~~~",
"~~~~~~~~",
"~~~~~~~~",
"~~~~~~~~",
"~~~~~~~~",
"~~~~~~~~",
"~~~~~~~~",
"........"};
