/* XPM */
static char * title_4_inactive_xpm[] = {
"28 25 193 2",
"  	c None",
". 	c #3C3C3C",
"+ 	c #E0E0E0",
"@ 	c #C3C3C3",
"# 	c #9F9F9F",
"$ 	c #636363",
"% 	c #535353",
"& 	c #525252",
"* 	c #888888",
"= 	c #B9B9B9",
"- 	c #EAEAEA",
"; 	c #EFEFEF",
"> 	c #F0F0F0",
", 	c #F2F2F2",
"' 	c #F1F1F1",
") 	c #EAEAE9",
"! 	c #E9EAEA",
"~ 	c #CCCCCC",
"{ 	c #A5A5A5",
"] 	c #6B6B6B",
"^ 	c #585858",
"/ 	c #5B5B5B",
"( 	c #9B9B9B",
"_ 	c #D9D9D9",
": 	c #E8E8E8",
"< 	c #E5E5E5",
"[ 	c #DFDFDF",
"} 	c #B4B4B4",
"| 	c #6C6C6C",
"1 	c #DADADA",
"2 	c #EBEBEB",
"3 	c #DFDEDF",
"4 	c #DFDFDE",
"5 	c #DEDEDE",
"6 	c #B3B3B3",
"7 	c #707070",
"8 	c #626262",
"9 	c #AFAFAF",
"0 	c #EEEEEE",
"a 	c #D9D9D8",
"b 	c #D9D8D9",
"c 	c #D8D9D9",
"d 	c #D0D1D0",
"e 	c #9D9D9D",
"f 	c #656565",
"g 	c #818181",
"h 	c #CDCDCD",
"i 	c #D5D5D5",
"j 	c #D5D4D5",
"k 	c #D5D5D4",
"l 	c #D4D5D4",
"m 	c #D4D5D5",
"n 	c #BBBBBA",
"o 	c #747474",
"p 	c #575757",
"q 	c #696969",
"r 	c #BABABA",
"s 	c #E9E9E9",
"t 	c #D1D1D1",
"u 	c #C7C7C7",
"v 	c #8E8E8E",
"w 	c #595959",
"x 	c #B2B2B2",
"y 	c #CACACA",
"z 	c #909090",
"A 	c #565656",
"B 	c #939393",
"C 	c #EDEDED",
"D 	c #C9C9C9",
"E 	c #C9C8C9",
"F 	c #C9C9C8",
"G 	c #C6C6C7",
"H 	c #A3A3A3",
"I 	c #4E4E4E",
"J 	c #E4E4E4",
"K 	c #ECECEC",
"L 	c #C5C5C6",
"M 	c #C5C5C5",
"N 	c #C6C6C5",
"O 	c #C6C5C5",
"P 	c #C5C6C6",
"Q 	c #C5C6C5",
"R 	c #9E9E9E",
"S 	c #5D5D5D",
"T 	c #A2A2A2",
"U 	c #C1C2C1",
"V 	c #C2C2C1",
"W 	c #C1C1C2",
"X 	c #C2C1C1",
"Y 	c #C2C1C2",
"Z 	c #C1C2C2",
"` 	c #C1C1C1",
" .	c #C2C2C2",
"..	c #C0BFBF",
"+.	c #949494",
"@.	c #5A5A5A",
"#.	c #555555",
"$.	c #A9A9A9",
"%.	c #E6E6E6",
"&.	c #BEBEBE",
"*.	c #BEBEBF",
"=.	c #BFBEBE",
"-.	c #BEBFBE",
";.	c #BCBCBB",
">.	c #898989",
",.	c #545454",
"'.	c #606060",
").	c #BFBFBF",
"!.	c #BBBABB",
"~.	c #BABBBA",
"{.	c #BBBABA",
"].	c #BABBBB",
"^.	c #BBBBBB",
"/.	c #BABABB",
"(.	c #B5B6B5",
"_.	c #7C7D7D",
":.	c #727272",
"<.	c #D6D6D6",
"[.	c #B8B7B8",
"}.	c #B8B8B8",
"|.	c #B7B7B7",
"1.	c #B8B7B7",
"2.	c #B7B7B8",
"3.	c #B7B8B7",
"4.	c #A9AAAA",
"5.	c #646464",
"6.	c #929292",
"7.	c #E2E2E2",
"8.	c #B5B4B5",
"9.	c #B4B4B5",
"0.	c #B5B5B5",
"a.	c #B5B4B4",
"b.	c #B4B5B5",
"c.	c #B4B5B4",
"d.	c #969797",
"e.	c #B1B1B0",
"f.	c #B0B1B0",
"g.	c #B0B1B1",
"h.	c #B1B0B0",
"i.	c #B1B0B1",
"j.	c #B1B1B1",
"k.	c #B0B0B0",
"l.	c #B0B0B1",
"m.	c #ADAEAF",
"n.	c #7C7C7C",
"o.	c #E3E3E3",
"p.	c #ADADAD",
"q.	c #A1A1A1",
"r.	c #5C5C5C",
"s.	c #A4A4A4",
"t.	c #878991",
"u.	c #616161",
"v.	c #A5A4A5",
"w.	c #A4A5A5",
"x.	c #A5A4A4",
"y.	c #A4A4A5",
"z.	c #A1A1A4",
"A.	c #5E6068",
"B.	c #9A9A9A",
"C.	c #8B8E96",
"D.	c #5E5E5E",
"E.	c #D8D8D8",
"F.	c #9F9F9E",
"G.	c #9E9F9F",
"H.	c #9E9F9E",
"I.	c #9E9E9F",
"J.	c #9F9E9F",
"K.	c #9F9E9E",
"L.	c #9D9D9F",
"M.	c #898B90",
"N.	c #9C9B9B",
"O.	c #9A9B9B",
"P.	c #9B9C9C",
"Q.	c #9C9C9B",
"R.	c #9C9C9C",
"S.	c #9B9B9C",
"T.	c #9B9C9B",
"U.	c #9C9B9C",
"V.	c #9497A0",
"W.	c #999999",
"X.	c #99999A",
"Y.	c #999A99",
"Z.	c #9A9A99",
"`.	c #9A9999",
" +	c #97979A",
".+	c #6F7073",
"++	c #989898",
"@+	c #979797",
"#+	c #989899",
"$+	c #989998",
"%+	c #999998",
"&+	c #999898",
"*+	c #969696",
". . . . . . . . . . . . . . . . . . . . . . . . . . . . ",
"+ @ # $ % & * = - ; > > > > , ' ' ' , > > ; ; > > ' > ' ",
"- ) - ! ~ { ] ^ / ( _ : ; ; ; ; ; ; ; ; ; ; ; ; ; ; ; ; ",
"< < < < < < [ } | ^ / ( 1 2 ; ; ; ; ; ; ; ; ; ; ; ; ; ; ",
"[ 3 [ 3 4 [ 5 3 1 6 7 ^ 8 9 + 0 ; ; ; ; ; ; ; ; ; ; ; ; ",
"_ _ a b c a c c _ _ d e f & g h - ; ; ; ; ; ; ; ; ; ; ; ",
"i j k j l k m m k i i m n o p q r s ; ; ; ; ; ; ; ; ; ; ",
"t t t t t t t t t t t t t u v w p x [ ; ; ; ; ; ; ; ; 0 ",
"h h h h h h h h h h h h h h y z f A B [ 0 0 0 0 0 0 0 C ",
"D E D D D D F D D D D D D D D G H 8 I e J C C C C C C K ",
"L L M N L M M O P M M L O Q M L L R S A T < K K K K K 2 ",
"U V W X Y Z ` Y  .X ` X  .V U Y Y ..+.@.#.$.%.2 2 2 2 - ",
"&.&.*.&.=.&.&.=.&.=.&.&.*.-.-.&.&.=.;.>.,.'.).- - - - s ",
"r r !.~.n {.{.n ~.{.].r r ^.r /.r n ~.(._.I :.<.: : : : ",
"[.[.}.|.1.2.[.}.3.|.2.|.3.1.|.[.|.|.3.3.4.5.I 6.7.%.%.%.",
"8.9.0.} a.9.8.0.b.b.8.8.9.a.c.8.b.} c.0.c.d.#.^ }.< < < ",
"e.f.g.h.i.g.j.h.k.i.k.l.k.i.h.l.f.j.j.k.e.m.n.I ] _ J o.",
"p.p.p.p.p.p.p.p.p.p.p.p.p.p.p.p.p.p.p.p.p.p.q.r.I s.o.7.",
"$.$.$.$.$.$.$.$.$.$.$.$.$.$.$.$.$.$.$.$.$.$.$.t.I u.i + ",
"v.v.v.w.{ v.{ x.{ { w.v.v.{ { { w.v.y.{ { y.v.z.A.I B.[ ",
"T T T T T T T T T T T T T T T T T T T T T T T q.C.% D.E.",
"# # R # F.G.H.# I.F.J.F.J.G.G.# H.K.# # F.J.F.J.L.M.A $.",
"N.O.B.P.Q.R.S.R.P.T.S.Q.U.R.Q.P.Q.S.N.( U.R.U.N.e V.S u.",
"W.W.W.W.W.X.X.W.W.W.W.W.X.Y.Z.X.W.W.W.W.W.W.W.`.B. +.+r.",
"++@+++@+++#+#+++++++@+++#+$+%+#+++++++++++++++&++.+.*+'."};
