/* XPM */
static char * title_4_active_xpm[] = {
"28 25 181 2",
"  	c None",
". 	c #3C3C3C",
"+ 	c #B9CCE2",
"@ 	c #A9C1D1",
"# 	c #89A0AA",
"$ 	c #4F5558",
"% 	c #414242",
"& 	c #3F4041",
"* 	c #767676",
"= 	c #ADADAD",
"- 	c #E5E5E5",
"; 	c #E8E8E8",
"> 	c #EBEBEB",
", 	c #ECECEC",
"' 	c #B0BDDB",
") 	c #A5BED5",
"! 	c #879DAA",
"~ 	c #535A5F",
"{ 	c #444749",
"] 	c #484848",
"^ 	c #8C8C8C",
"/ 	c #D2D2D2",
"( 	c #E4E4E4",
"_ 	c #A4B2D6",
": 	c #A3B2D6",
"< 	c #A3B2D5",
"[ 	c #A4B2D5",
"} 	c #A4B6D7",
"| 	c #8FA9BD",
"1 	c #51595E",
"2 	c #D3D3D3",
"3 	c #E7E7E7",
"4 	c #96A7D0",
"5 	c #96A7D1",
"6 	c #97A7D0",
"7 	c #97ABD2",
"8 	c #88A3BC",
"9 	c #545D65",
"0 	c #44484A",
"a 	c #4F4F4F",
"b 	c #A2A2A2",
"c 	c #DBDBDB",
"d 	c #899CCA",
"e 	c #899CC9",
"f 	c #899BCA",
"g 	c #8A9CCA",
"h 	c #8CA3CD",
"i 	c #71899E",
"j 	c #4B5259",
"k 	c #707070",
"l 	c #C5C5C5",
"m 	c #7D91C5",
"n 	c #7D91C4",
"o 	c #7C91C4",
"p 	c #7D92C4",
"q 	c #7D9BC0",
"r 	c #525E6A",
"s 	c #434649",
"t 	c #565656",
"u 	c #AFAFAF",
"v 	c #6F87BE",
"w 	c #6F86BF",
"x 	c #6F87BF",
"y 	c #7086BF",
"z 	c #6F86BE",
"A 	c #7492C2",
"B 	c #5E7189",
"C 	c #44484C",
"D 	c #444444",
"E 	c #A6A6A6",
"F 	c #D9D9D9",
"G 	c #EAEAEA",
"H 	c #627CB9",
"I 	c #627BBA",
"J 	c #637BBA",
"K 	c #637BB9",
"L 	c #627BB9",
"M 	c #637CB9",
"N 	c #6580BC",
"O 	c #5A6F8B",
"P 	c #49535B",
"Q 	c #848484",
"R 	c #D8D8D8",
"S 	c #E9E9E9",
"T 	c #5772B4",
"U 	c #5772B5",
"V 	c #5771B5",
"W 	c #5771B4",
"X 	c #5A77B6",
"Y 	c #5C79A0",
"Z 	c #475057",
"` 	c #8F8F8F",
" .	c #DEDEDE",
"..	c #4C69AF",
"+.	c #4C68B0",
"@.	c #4C69B0",
"#.	c #4C68AF",
"$.	c #4B68AF",
"%.	c #55729A",
"&.	c #444B51",
"*.	c #434343",
"=.	c #959595",
"-.	c #E0E0E0",
";.	c #405FAA",
">.	c #415FAB",
",.	c #415FAA",
"'.	c #4160AB",
").	c #4160AA",
"!.	c #4464AD",
"~.	c #4A638C",
"{.	c #42484D",
"].	c #424242",
"^.	c #9C9C9C",
"/.	c #E2E2E2",
"(.	c #E6E6E6",
"_.	c #3857A6",
":.	c #3858A6",
"<.	c #3857A7",
"[.	c #3858A7",
"}.	c #3757A6",
"|.	c #3757A7",
"1.	c #3758A7",
"2.	c #3B5DA9",
"3.	c #486084",
"4.	c #3F4245",
"5.	c #4E4E4E",
"6.	c #B4B4B4",
"7.	c #2F50A3",
"8.	c #2F50A2",
"9.	c #3050A2",
"0.	c #2F51A3",
"a.	c #2F51A2",
"b.	c #3050A3",
"c.	c #385CA7",
"d.	c #49607C",
"e.	c #606060",
"f.	c #CECECE",
"g.	c #E3E3E3",
"h.	c #284BA0",
"i.	c #294BA0",
"j.	c #294B9F",
"k.	c #284AA0",
"l.	c #284B9F",
"m.	c #294AA0",
"n.	c #284A9F",
"o.	c #3A5EA2",
"p.	c #45515C",
"q.	c #838383",
"r.	c #DCDCDC",
"s.	c #E1E1E1",
"t.	c #23469D",
"u.	c #24469D",
"v.	c #365490",
"w.	c #3F4346",
"x.	c #454545",
"y.	c #ACACAC",
"z.	c #DFDFDF",
"A.	c #21449C",
"B.	c #23469E",
"C.	c #334D80",
"D.	c #5A5A5A",
"E.	c #D1D1D1",
"F.	c #DDDDDD",
"G.	c #25489C",
"H.	c #3F4957",
"I.	c #969696",
"J.	c #304E8F",
"K.	c #CDCDCD",
"L.	c #DADADA",
"M.	c #23479D",
"N.	c #44505F",
"O.	c #8A8A8A",
"P.	c #2D4D93",
"Q.	c #4B4B4B",
"R.	c #D0D0D0",
"S.	c #22459D",
"T.	c #324B89",
"U.	c #9A9A9A",
"V.	c #24479D",
"W.	c #294994",
"X.	c #3E3E3E",
". . . . . . . . . . . . . . . . . . . . . . . . . . . . ",
"+ @ # $ % & * = - ; > , , , , , , , , , , , , , , , , > ",
"' ' ' ' ) ! ~ { ] ^ / ( > , , , , , , , , , , , , , , , ",
"_ : < _ : [ } | 1 { ] ^ 2 3 , , , , , , , , , , , , , , ",
"4 5 4 4 4 5 6 4 7 8 9 0 a b c > , , , , , , , , , , , , ",
"d d d d e f g e g d h i j & k l - , , , , , , , , , , , ",
"m n o m o n p o p m o n q r s t u - , , , , , , , , , > ",
"v w x w w y z w w w w w w A B C D E F > > > > > > > > G ",
"H I H J K J L K K L L M K H N O P D Q R G G G G G G G S ",
"T U U V U T T T T W W T V W T X Y Z . `  .S S S S S S ; ",
"..+.@.#.+.#.#...#.#.#.#.+.#.#.#.$.%.&.*.=.-.; ; ; ; ; 3 ",
";.>.>.,.>.>.,.>.>.,.,.>.>.>.'.'.).!.~.{.].^./.3 3 3 3 (.",
"_.:.<.<.[.[.:.[.<._.}.<.|.<.1.[.:.<.2.3.4.5.6.- - - - ( ",
"7.8.9.7.0.7.0.a.8.b.8.7.7.7.7.8.8.7.7.c.d.. e.f.g.g.g.g.",
"h.i.j.k.k.i.h.l.l.i.j.h.h.m.h.j.j.k.i.n.o.p.. q.r.s.s.s.",
"t.u.u.t.t.u.t.t.t.t.t.t.t.u.t.u.u.t.u.t.u.v.w.x.y.-.-.z.",
"A.A.A.A.A.A.A.A.A.A.A.A.A.A.A.A.A.A.A.A.A.B.C.. D.E. .F.",
"A.A.A.A.A.A.A.A.A.A.A.A.A.A.A.A.A.A.A.A.A.A.G.H.. I.F.r.",
"A.A.A.A.A.A.A.A.A.A.A.A.A.A.A.A.A.A.A.A.A.A.A.J.. a K.L.",
"A.A.A.A.A.A.A.A.A.A.A.A.A.A.A.A.A.A.A.A.A.A.A.M.N.. O.F ",
"A.A.A.A.A.A.A.A.A.A.A.A.A.A.A.A.A.A.A.A.A.A.A.A.P.. Q.R.",
"A.A.A.A.A.A.A.A.A.A.A.A.A.A.A.A.A.A.A.A.A.A.A.A.S.T.. U.",
"A.A.A.A.A.A.A.A.A.A.A.A.A.A.A.A.A.A.A.A.A.A.A.A.A.V.. t ",
"A.A.A.A.A.A.A.A.A.A.A.A.A.A.A.A.A.A.A.A.A.A.A.A.A.S.W.X.",
". . . . . . . . . . . . . . . . . . . . . . . . . . . . "};
