/* XPM */
static char * top_right_active_xpm[] = {
"6 42 47 1",
" 	c None",
".	c #3C3C3C",
"+	c #EDEDED",
"@	c #ECECEC",
"#	c #EBEBEB",
"$	c #EAEAEA",
"%	c #E9E9E9",
"&	c #E8E8E8",
"*	c #E7E7E7",
"=	c #E6E6E6",
"-	c #E4E4E4",
";	c #E3E3E3",
">	c #E1E1E1",
",	c #DFDFDF",
"'	c #DDDDDD",
")	c #DCDCDC",
"!	c #DADADA",
"~	c #D9D9D9",
"{	c #D8D8D8",
"]	c #D1D1D1",
"^	c #CFCFCF",
"/	c #CCCDCF",
"(	c #A5A5A5",
"_	c #CDCED0",
":	c #A8A9AA",
"<	c #CECFD1",
"[	c #CECFD2",
"}	c #D0D1D3",
"|	c #D2D2D4",
"1	c #D3D2D4",
"2	c #D4D5D6",
"3	c #D6D7D9",
"4	c #D8D9DA",
"5	c #D9D9DB",
"6	c #DBDBDC",
"7	c #DBDBDD",
"8	c #DDDDDE",
"9	c #DDDEDF",
"0	c #DFDFE0",
"a	c #DFE0E0",
"b	c #E2E2E3",
"c	c #E4E4E5",
"d	c #E6E6E7",
"e	c #E7E7E9",
"f	c #EAE9EA",
"g	c #E9EAEA",
"h	c #EAEBEB",
".     ",
"+..   ",
"@@@.  ",
"@@@@. ",
"@@@@. ",
"@@@@@.",
"#####.",
"$$$$$.",
"%%%%%.",
"&&&&&.",
"*****.",
"=====.",
"-----.",
";;;;;.",
">>>>>.",
",,,,,.",
"'''''.",
"))))).",
"!!!!!.",
"~~~~~.",
"{{{{{.",
"]]]]].",
"^^^^^.",
"/////.",
".////.",
".(__:.",
".(<[:.",
".(}}:.",
".(|1:.",
".(22:.",
".(33:.",
".(45:.",
".(67:.",
".(89:.",
".(0a:.",
".(bb:.",
".(cc:.",
".(=d:.",
".(e&:.",
".(fg:.",
".(h#:.",
".(@@:."};
