/* XPM */
static char * top_left_active_xpm[] = {
"6 42 50 1",
" 	c None",
".	c #3C3C3C",
"+	c #B2C8DC",
"@	c #B0BCDA",
"#	c #A4B2D5",
"$	c #96A6CF",
"%	c #889BC9",
"&	c #7C91C3",
"*	c #6E85BD",
"=	c #627BB8",
"-	c #5772B4",
";	c #4B68AF",
">	c #415FAA",
",	c #3857A5",
"'	c #3050A2",
")	c #294A9F",
"!	c #23459D",
"~	c #21449C",
"{	c #24449C",
"]	c #24459C",
"^	c #27479D",
"/	c #28479D",
"(	c #2B4A9F",
"_	c #2F4DA0",
":	c #2E4DA0",
"<	c #2F4CA0",
"[	c #334FA2",
"}	c #324FA1",
"|	c #3653A3",
"1	c #3652A3",
"2	c #3A56A5",
"3	c #3A55A4",
"4	c #3E58A6",
"5	c #3D58A6",
"6	c #3E58A5",
"7	c #415AA7",
"8	c #415BA7",
"9	c #445DA8",
"0	c #475FA9",
"a	c #4960AA",
"b	c #4961AA",
"c	c #4B62AB",
"d	c #4A61AB",
"e	c #4A61AA",
"f	c #4B61AB",
"g	c #4A62AA",
"h	c #4A62AB",
"i	c #4860AA",
"j	c #4961AB",
"k	c #3E4352",
"     .",
"   ..+",
"  .@@@",
" .####",
" .$$$$",
".%%%%%",
".&&&&&",
".*****",
".=====",
".-----",
".;;;;;",
".>>>>>",
".,,,,,",
".'''''",
".)))))",
".!!!!!",
".~~~~~",
".~~~~~",
".~~~~~",
".~~~~~",
".~~~~~",
".~~~~~",
".~~~~~",
".~~~~~",
".~~~~.",
".{{]].",
".^/^^.",
".((((.",
"._:<<.",
".[}[[.",
".|111.",
".2333.",
".4566.",
".7877.",
".9999.",
".0000.",
".aabb.",
".cdee.",
".cccc.",
".fghh.",
".bijj.",
".kkk.."};
