/* XPM */
static char * top_right_inactive_xpm[] = {
"6 42 48 1",
" 	c None",
".	c #3C3C3C",
"+	c #EDEDED",
"@	c #ECECEC",
"#	c #EBEBEB",
"$	c #EAEAEA",
"%	c #E9E9E9",
"&	c #E8E8E8",
"*	c #E7E7E7",
"=	c #E6E6E6",
"-	c #E4E4E4",
";	c #E3E3E3",
">	c #E1E1E1",
",	c #DFDFDF",
"'	c #DDDDDD",
")	c #DCDCDC",
"!	c #DADADA",
"~	c #D9D9D9",
"{	c #D8D8D8",
"]	c #D1D1D1",
"^	c #CFCFCF",
"/	c #CCCDCF",
"(	c #E6E7E6",
"_	c #A5A5A5",
":	c #CDCED0",
"<	c #A8A9AA",
"[	c #CECFD1",
"}	c #CECFD2",
"|	c #D0D1D3",
"1	c #D2D2D4",
"2	c #D3D2D4",
"3	c #D4D5D6",
"4	c #D6D7D9",
"5	c #D8D9DA",
"6	c #D9D9DB",
"7	c #DBDBDC",
"8	c #DBDBDD",
"9	c #DDDDDE",
"0	c #DDDEDF",
"a	c #DFDFE0",
"b	c #DFE0E0",
"c	c #E2E2E3",
"d	c #E4E4E5",
"e	c #E6E6E7",
"f	c #E7E7E9",
"g	c #EAE9EA",
"h	c #E9EAEA",
"i	c #EAEBEB",
".     ",
"+..   ",
"@@@.  ",
"@@@@. ",
"@@@@. ",
"@@@@@.",
"#####.",
"$$$$$.",
"%%%%%.",
"&&&&&.",
"*****.",
"=====.",
"-----.",
";;;;;.",
">>>>>.",
",,,,,.",
"'''''.",
"))))).",
"!!!!!.",
"~~~~~.",
"{{{{{.",
"]]]]].",
"^^^^^.",
"/////.",
"/////.",
"(_::<.",
"(_[}<.",
"(_||<.",
"(_12<.",
"(_33<.",
"(_44<.",
"(_56<.",
"(_78<.",
"(_90<.",
"(_ab<.",
"(_cc<.",
"(_dd<.",
"(_=e<.",
"(_f&<.",
"(_gh<.",
"(_i#<.",
"(_@@<."};
