/* XPM */
static char * top_left_inactive_xpm[] = {
"6 42 45 1",
" 	c None",
".	c #3C3C3C",
"+	c #ECECEC",
"@	c #E9E9E9",
"#	c #E4E4E4",
"$	c #DEDDDE",
"%	c #D9D8D8",
"&	c #D4D4D4",
"*	c #D1D1D1",
"=	c #CCCCCC",
"-	c #C8C8C8",
";	c #C4C4C5",
">	c #C0C0C0",
",	c #BDBDBD",
"'	c #B9BABA",
")	c #B7B6B7",
"!	c #B4B4B4",
"~	c #B0B0B0",
"{	c #ACACAC",
"]	c #A8A9A8",
"^	c #A5A4A4",
"/	c #A2A1A1",
"(	c #9E9E9E",
"_	c #9B9B9B",
":	c #989899",
"<	c #979798",
"[	c #969696",
"}	c #979697",
"|	c #E6E7E6",
"1	c #959595",
"2	c #969596",
"3	c #959596",
"4	c #949494",
"5	c #949493",
"6	c #939494",
"7	c #949394",
"8	c #949393",
"9	c #939393",
"0	c #939293",
"a	c #929392",
"b	c #929292",
"c	c #919291",
"d	c #919191",
"e	c #5D5D5D",
"f	c #4E4E4E",
"     .",
"   ..+",
"  .@@@",
" .####",
" .$$$$",
".%%%%%",
".&&&&&",
".*****",
".=====",
".-----",
".;;;;;",
".>>>>>",
".,,,,,",
".'''''",
".)))))",
".!!!!!",
".~~~~~",
".{{{{{",
".]]]]]",
".^^^^^",
"./////",
".(((((",
"._____",
".:::::",
".<<<<<",
".[}[[|",
".1233|",
".1111|",
".4444|",
".5466|",
".7688|",
".9999|",
".00aa|",
".bbbb|",
".cccc|",
".dddd|",
".dddd|",
".dddd|",
".dddd|",
".dddd|",
".dddd|",
".eeef|"};
