<?xml version="1.0" encoding="UTF-8" standalone="no"?>
<!-- Created with Inkscape (http://www.inkscape.org/) -->

<svg
   width="22"
   height="22"
   viewBox="0 0 5.8208332 5.8208335"
   version="1.1"
   id="svg5"
   inkscape:version="1.1 (c4e8f9ed74, 2021-05-24)"
   sodipodi:docname="media-playback-pause.svg"
   xmlns:inkscape="http://www.inkscape.org/namespaces/inkscape"
   xmlns:sodipodi="http://sodipodi.sourceforge.net/DTD/sodipodi-0.dtd"
   xmlns="http://www.w3.org/2000/svg"
   xmlns:svg="http://www.w3.org/2000/svg">
  <sodipodi:namedview
     id="namedview7"
     pagecolor="#ffffff"
     bordercolor="#666666"
     borderopacity="1.0"
     inkscape:pageshadow="2"
     inkscape:pageopacity="0.0"
     inkscape:pagecheckerboard="0"
     inkscape:document-units="px"
     showgrid="false"
     units="px"
     height="22px"
     inkscape:zoom="18.363636"
     inkscape:cx="7.5693069"
     inkscape:cy="7.1336634"
     inkscape:window-width="1920"
     inkscape:window-height="1009"
     inkscape:window-x="0"
     inkscape:window-y="0"
     inkscape:window-maximized="1"
     inkscape:current-layer="layer1" />
  <defs
     id="defs2">
    <style
       id="current-color-scheme"
       type="text/css">
        .ColorScheme-Text { color:#dedede; }
    </style>
  </defs>
  <path
     id="rect846"
     style="fill:currentColor;stroke-width:0.851361"
     class="ColorScheme-Text"
     d="M 7.25,5 C 6.5575,5 6,5.5575 6,6.25 v 9.5 C 6,16.4425 6.5575,17 7.25,17 7.9425,17 8.5,16.4425 8.5,15.75 V 6.25 C 8.5,5.5575 7.9425,5 7.25,5 Z m 7.5,0 C 14.0575,5 13.5,5.5575 13.5,6.25 v 9.5 C 13.5,16.4425 14.0575,17 14.75,17 15.4425,17 16,16.4425 16,15.75 V 6.25 C 16,5.5575 15.4425,5 14.75,5 Z"
     transform="scale(0.26458333)" />
</svg>
