<?xml version="1.0" encoding="UTF-8" standalone="no"?>
<!-- Created with Inkscape (http://www.inkscape.org/) -->

<svg
   width="22"
   height="22"
   viewBox="0 0 5.8208332 5.8208335"
   version="1.1"
   id="svg5"
   inkscape:version="1.1 (c4e8f9ed74, 2021-05-24)"
   sodipodi:docname="media-skip-forward.svg"
   xmlns:inkscape="http://www.inkscape.org/namespaces/inkscape"
   xmlns:sodipodi="http://sodipodi.sourceforge.net/DTD/sodipodi-0.dtd"
   xmlns="http://www.w3.org/2000/svg"
   xmlns:svg="http://www.w3.org/2000/svg">
  <sodipodi:namedview
     id="namedview7"
     pagecolor="#ffffff"
     bordercolor="#666666"
     borderopacity="1.0"
     inkscape:pageshadow="2"
     inkscape:pageopacity="0.0"
     inkscape:pagecheckerboard="0"
     inkscape:document-units="px"
     showgrid="false"
     units="px"
     height="22px"
     inkscape:zoom="26.272727"
     inkscape:cx="3.4636678"
     inkscape:cy="14.083045"
     inkscape:window-width="1920"
     inkscape:window-height="1009"
     inkscape:window-x="0"
     inkscape:window-y="0"
     inkscape:window-maximized="1"
     inkscape:current-layer="svg5"
     inkscape:lockguides="true"
     showguides="true" />
  <defs
     id="defs2">
    <style
       id="current-color-scheme"
       type="text/css">
        .ColorScheme-Text { color:#dedede; }
    </style>
  </defs>
  <path
     id="path984"
     style="fill:currentColor;stroke-width:0.551929"
     class="ColorScheme-Text"
     d="M 1.740979,1.5875 C 1.6600096,1.5886017 1.5875,1.652821 1.5875,1.749764 v 2.3218221 c 0,0.1292556 0.1412579,0.199313 0.2470134,0.1405599 C 2.5024491,3.8268589 3.1686066,3.4418153 3.8364583,3.0561441 v 0.9787517 c 0,0.1099344 0.088503,0.1984375 0.1984375,0.1984375 0.1099344,0 0.1984375,-0.088503 0.1984375,-0.1984375 V 1.7859375 C 4.2333333,1.676003 4.1448302,1.5875 4.0348958,1.5875 c -0.1099344,0 -0.1984375,0.088503 -0.1984375,0.1984375 v 0.968933 C 3.1640645,2.37061 2.4940582,1.992205 1.822111,1.6081706 1.795672,1.5934855 1.767968,1.5871336 1.740979,1.5875 Z" />
</svg>
