<?xml version="1.0" encoding="UTF-8" standalone="no"?>
<svg
   width="16"
   height="16"
   version="1.1"
   viewBox="0 0 16 16"
   id="svg4"
   sodipodi:docname="add-files-to-archive-symbolic-new.svg"
   xml:space="preserve"
   inkscape:version="1.2.1 (9c6d41e410, 2022-07-14)"
   xmlns:inkscape="http://www.inkscape.org/namespaces/inkscape"
   xmlns:sodipodi="http://sodipodi.sourceforge.net/DTD/sodipodi-0.dtd"
   xmlns="http://www.w3.org/2000/svg"
   xmlns:svg="http://www.w3.org/2000/svg"><defs
     id="defs8">
	
	
	
	
<inkscape:path-effect
   effect="fill_between_many"
   method="originald"
   linkedpaths="#path237,0,1|"
   id="path-effect988" /></defs><sodipodi:namedview
     id="namedview6"
     pagecolor="#ffffff"
     bordercolor="#000000"
     borderopacity="0.25"
     inkscape:showpageshadow="2"
     inkscape:pageopacity="0.0"
     inkscape:pagecheckerboard="0"
     inkscape:deskcolor="#d1d1d1"
     showgrid="false"
     inkscape:zoom="32.09375"
     inkscape:cx="0.15579357"
     inkscape:cy="6.06037"
     inkscape:current-layer="svg4" /><g
     id="g2604"
     transform="matrix(0.96875002,0,0,0.96875002,18.866516,0.01316163)"
     style="fill:#444444;fill-opacity:1"><path
       id="path990"
       style="fill:#444444;fill-opacity:1"
       d="m -6.4257812,9.3105469 c -1.9114648,0 -3.4667969,1.5553321 -3.4667969,3.4667971 0,1.911464 1.5553321,3.466797 3.4667969,3.466797 1.9114647,0 3.4667968,-1.555333 3.4667968,-3.466797 0,-1.911465 -1.5553321,-3.4667971 -3.4667968,-3.4667971 z m -0.013672,1.9667971 c 0.1622157,0 0.2949715,0.132706 0.2949219,0.294922 v 0.857422 h 0.9238281 c 0.1622157,-10e-5 0.2950709,0.130653 0.2949219,0.292968 0,0.162117 -0.1328056,0.294922 -0.2949219,0.294922 h -0.9238281 v 0.966797 c -4.97e-5,0.162116 -0.1327062,0.292969 -0.2949219,0.292969 -0.1622158,0 -0.2929688,-0.130604 -0.2929688,-0.292969 v -0.966797 h -0.9003906 c -0.1622157,0 -0.2928694,-0.132706 -0.2929687,-0.294922 0,-0.162166 0.130753,-0.292919 0.2929687,-0.292968 h 0.9003906 v -0.857422 c 0,-0.162216 0.1308027,-0.294922 0.2929688,-0.294922 z" /><path
       d="m -6.4264472,9.3111451 c -1.9114667,0 -3.4666667,1.5551999 -3.4666667,3.4666669 0,1.911466 1.5552,3.466666 3.4666667,3.466666 1.9114667,0 3.4666667,-1.5552 3.4666667,-3.466666 0,-1.911467 -1.5552,-3.4666669 -3.4666667,-3.4666669 z m 0,6.3999999 c -1.6173333,0 -2.9333334,-1.316 -2.9333334,-2.933333 0,-1.617334 1.3160001,-2.9333336 2.9333334,-2.9333336 1.6173334,0 2.9333334,1.3159996 2.9333334,2.9333336 0,1.617333 -1.316,2.933333 -2.9333334,2.933333 z"
       id="path237"
       style="fill:#444444;stroke:none;stroke-width:0.267;stroke-dasharray:none;fill-opacity:1" /><path
       d="m -4.0264472,0.99967831 c 0,-0.41626667 -0.3389333,-0.75520001 -0.7552,-0.75520001 H -17.670981 c -0.416533,0 -0.755466,0.33893334 -0.755466,0.75520001 V 7.9778117 h 14.3999998 z m -4.8,3.11013339 c 0,0.5154667 -0.4192,0.9346667 -0.9344,0.9346667 h -2.9309338 c -0.515466,0 -0.934666,-0.4192 -0.934666,-0.9346667 V 3.711145 c 0,-0.1474667 0.119466,-0.2666667 0.266666,-0.2666667 0.1472,0 0.266667,0.1192 0.266667,0.2666667 v 0.3986667 c 0,0.2213333 0.18,0.4013333 0.401333,0.4013333 h 2.9309338 c 0.2210666,0 0.4010666,-0.18 0.4010666,-0.4013333 V 3.711145 c 0,-0.1474667 0.1194667,-0.2666667 0.2666667,-0.2666667 0.1472,0 0.2666667,0.1192 0.2666667,0.2666667 z"
       id="path241"
       style="stroke-width:0.266667;fill:#444444;fill-opacity:1" /><path
       d="m -10.693114,12.777812 h -1.998667 c -0.515466,0 -0.934666,-0.4192 -0.934666,-0.934667 v -0.398667 c 0,-0.147466 0.119466,-0.266666 0.266666,-0.266666 0.1472,0 0.266667,0.1192 0.266667,0.266666 v 0.398667 c 0,0.221333 0.18,0.401333 0.401333,0.401333 h 2.035734 c 0.263733,-2.101333 2.0578665,-3.7333329 4.2295998,-3.7333329 H -18.426447 v 6.9781329 c 0,0.416267 0.338933,0.7552 0.755466,0.7552 h 8.7669338 c -1.0810667,-0.774933 -1.7890668,-2.0384 -1.7890668,-3.466666 z"
       id="path243"
       style="stroke-width:0.266667;fill:#444444;fill-opacity:1" /></g><g
     id="g247"
     transform="matrix(0.26666667,0,0,0.26666667,-18.693114,0.2444783)">
</g><g
     id="g249"
     transform="matrix(0.26666667,0,0,0.26666667,-18.693114,0.2444783)">
</g><g
     id="g251"
     transform="matrix(0.26666667,0,0,0.26666667,-18.693114,0.2444783)">
</g><g
     id="g253"
     transform="matrix(0.26666667,0,0,0.26666667,-18.693114,0.2444783)">
</g><g
     id="g255"
     transform="matrix(0.26666667,0,0,0.26666667,-18.693114,0.2444783)">
</g><g
     id="g257"
     transform="matrix(0.26666667,0,0,0.26666667,-18.693114,0.2444783)">
</g><g
     id="g259"
     transform="matrix(0.26666667,0,0,0.26666667,-18.693114,0.2444783)">
</g><g
     id="g261"
     transform="matrix(0.26666667,0,0,0.26666667,-18.693114,0.2444783)">
</g><g
     id="g263"
     transform="matrix(0.26666667,0,0,0.26666667,-18.693114,0.2444783)">
</g><g
     id="g265"
     transform="matrix(0.26666667,0,0,0.26666667,-18.693114,0.2444783)">
</g><g
     id="g267"
     transform="matrix(0.26666667,0,0,0.26666667,-18.693114,0.2444783)">
</g><g
     id="g269"
     transform="matrix(0.26666667,0,0,0.26666667,-18.693114,0.2444783)">
</g><g
     id="g271"
     transform="matrix(0.26666667,0,0,0.26666667,-18.693114,0.2444783)">
</g><g
     id="g273"
     transform="matrix(0.26666667,0,0,0.26666667,-18.693114,0.2444783)">
</g><g
     id="g275"
     transform="matrix(0.26666667,0,0,0.26666667,-18.693114,0.2444783)">
</g><g
     id="g2137"
     transform="matrix(0.0496985,0,0,0.0496985,-7.9264474,11.277811)"
     style="fill:#ffffff"><g
       id="g2083"
       style="fill:#ffffff">
	
</g><g
       id="g2085"
       style="fill:#ffffff">
</g><g
       id="g2087"
       style="fill:#ffffff">
</g><g
       id="g2089"
       style="fill:#ffffff">
</g><g
       id="g2091"
       style="fill:#ffffff">
</g><g
       id="g2093"
       style="fill:#ffffff">
</g><g
       id="g2095"
       style="fill:#ffffff">
</g><g
       id="g2097"
       style="fill:#ffffff">
</g><g
       id="g2099"
       style="fill:#ffffff">
</g><g
       id="g2101"
       style="fill:#ffffff">
</g><g
       id="g2103"
       style="fill:#ffffff">
</g><g
       id="g2105"
       style="fill:#ffffff">
</g><g
       id="g2107"
       style="fill:#ffffff">
</g><g
       id="g2109"
       style="fill:#ffffff">
</g><g
       id="g2111"
       style="fill:#ffffff">
</g><g
       id="g2113"
       style="fill:#ffffff">
</g></g></svg>
