<?xml version="1.0" encoding="UTF-8" standalone="no"?>
<svg
   width="16"
   height="16"
   version="1.1"
   id="svg4"
   sodipodi:docname="browser-download-symbolic.svg"
   inkscape:version="1.2.1 (9c6d41e410, 2022-07-14)"
   xml:space="preserve"
   xmlns:inkscape="http://www.inkscape.org/namespaces/inkscape"
   xmlns:sodipodi="http://sodipodi.sourceforge.net/DTD/sodipodi-0.dtd"
   xmlns="http://www.w3.org/2000/svg"
   xmlns:svg="http://www.w3.org/2000/svg"><defs
     id="defs8"><style
       type="text/css"
       id="current-color-scheme">
      .ColorScheme-Text {
        color:#122036;
      }
      </style><style
       type="text/css"
       id="current-color-scheme-3">
      .ColorScheme-Text {
        color:#122036;
      }
      </style><style
       type="text/css"
       id="current-color-scheme-7">
      .ColorScheme-Text {
        color:#122036;
      }
      </style></defs><sodipodi:namedview
     id="namedview6"
     pagecolor="#ffffff"
     bordercolor="#000000"
     borderopacity="0.25"
     inkscape:showpageshadow="2"
     inkscape:pageopacity="0.0"
     inkscape:pagecheckerboard="0"
     inkscape:deskcolor="#d1d1d1"
     showgrid="false"
     inkscape:zoom="16.046875"
     inkscape:cx="-9.0360273"
     inkscape:cy="10.064265"
     inkscape:current-layer="svg4" /><g
     id="g178"
     transform="matrix(1.2083333,0,0,1.2083333,-1.6666664,-1.6666664)"><g
       id="g239"
       transform="translate(-75.625364,-19.218585)">
</g><g
       id="g241"
       transform="translate(-75.625364,-19.218585)">
</g><g
       id="g243"
       transform="translate(-75.625364,-19.218585)">
</g><g
       id="g245"
       transform="translate(-75.625364,-19.218585)">
</g><g
       id="g247"
       transform="translate(-75.625364,-19.218585)">
</g><g
       id="g249"
       transform="translate(-75.625364,-19.218585)">
</g><g
       id="g251"
       transform="translate(-75.625364,-19.218585)">
</g><g
       id="g253"
       transform="translate(-75.625364,-19.218585)">
</g><g
       id="g255"
       transform="translate(-75.625364,-19.218585)">
</g><g
       id="g257"
       transform="translate(-75.625364,-19.218585)">
</g><g
       id="g259"
       transform="translate(-75.625364,-19.218585)">
</g><g
       id="g261"
       transform="translate(-75.625364,-19.218585)">
</g><g
       id="g263"
       transform="translate(-75.625364,-19.218585)">
</g><g
       id="g265"
       transform="translate(-75.625364,-19.218585)">
</g><g
       id="g267"
       transform="translate(-75.625364,-19.218585)">
</g><g
       id="g319"
       transform="matrix(0.78607937,0,0,0.78607937,1.711365,2)"><path
         style="fill:#444444;fill-opacity:1;stroke-width:0.337708"
         d="m 14.762781,12.395113 c 0,1.582839 -1.287682,2.870521 -2.870522,2.870521 H 4.1077412 c -1.58284,0 -2.870522,-1.287682 -2.870522,-2.870521 0,-0.65279 0.529189,-1.181979 1.18198,-1.181979 0.65279,0 1.181979,0.529189 1.181979,1.181979 0,0.279285 0.227278,0.506563 0.506563,0.506563 h 7.7845178 c 0.279285,0 0.506563,-0.227278 0.506563,-0.506563 0,-0.65279 0.529189,-1.181979 1.181979,-1.181979 0.652791,0 1.18198,0.529189 1.18198,1.181979 z"
         id="path235-3" /><path
         d="m 8.000008,0 c 0.757324,0 1.3750001,0.6176759 1.3750001,1.375 v 4.1250004 h 2.7499999 v 1.3750002 h -0.01073 c 0.0054,0.3652338 -0.139652,0.7143545 -0.392094,0.9721675 L 8.9721845,10.597167 c -0.5371094,0.537111 -1.4072261,0.537111 -1.9443353,0 L 4.2778538,7.8471681 C 4.0254118,7.5893551 3.8803918,7.2402344 3.8803918,6.8750006 h -0.0054 V 5.5000004 H 6.6250512 V 1.375 C 6.6250512,0.6176759 7.2427271,0 8.000051,0 Z m 0,0"
         id="path4"
         style="fill:#444444;fill-opacity:1;stroke-width:1.375" /></g></g></svg>
