<?xml version="1.0" encoding="UTF-8" standalone="no"?>
<svg
   width="16"
   height="16"
   viewBox="0 0 16 16"
   version="1.1"
   id="svg7"
   sodipodi:docname="format-text-direction-rtl.svg"
   xml:space="preserve"
   inkscape:version="1.2.1 (9c6d41e410, 2022-07-14)"
   xmlns:inkscape="http://www.inkscape.org/namespaces/inkscape"
   xmlns:sodipodi="http://sodipodi.sourceforge.net/DTD/sodipodi-0.dtd"
   xmlns="http://www.w3.org/2000/svg"
   xmlns:svg="http://www.w3.org/2000/svg"><sodipodi:namedview
     id="namedview9"
     pagecolor="#ffffff"
     bordercolor="#000000"
     borderopacity="0.25"
     inkscape:showpageshadow="2"
     inkscape:pageopacity="0.0"
     inkscape:pagecheckerboard="0"
     inkscape:deskcolor="#d1d1d1"
     showgrid="false"
     inkscape:zoom="16.046875"
     inkscape:cx="-5.9824732"
     inkscape:cy="4.4556962"
     inkscape:current-layer="svg7" /><defs
     id="defs3"><style
       id="current-color-scheme"
       type="text/css">
   .ColorScheme-Text { color:#444444; } .ColorScheme-Highlight { color:#4285f4; }
  </style><style
       id="current-color-scheme-5"
       type="text/css">
   .ColorScheme-Text { color:#444444; } .ColorScheme-Highlight { color:#4285f4; }
  </style></defs><g
     id="g307"
     transform="translate(23.0185,3.8247323)"><path
       id="path5-3"
       style="fill:#444444;fill-opacity:1"
       d="m -16.5185,-3.2300087 v 2 h 6 c 0.42816,0 1,0.6141404 1,1 v 1 h -5 c -0.919269,0 -1.7356,0.3839606 -2.25,0.96875 -0.514399,0.5847894 -0.75639,1.3106507 -0.75,2.03125 0.006,0.7206193 0.268931,1.4527506 0.78125,2.03125 0.51232,0.5785394 1.310451,0.96875 2.21875,0.96875 h 7 v -7 c 9e-5,-1.6342984 -1.319802,-3 -3,-3 z m 2,6 h 5 v 2 h -5 c -0.39787,0 -0.56691,-0.1097902 -0.71875,-0.28125 -0.15184,-0.1714598 -0.27877,-0.4393703 -0.28125,-0.71875 -0.002,-0.2793797 0.10467,-0.5535402 0.25,-0.71875 0.14533,-0.1652098 0.32764,-0.28125 0.75,-0.28125 z" /><path
       d="m -7.5185,8.7680313 c 0,-0.516357 -0.421143,-0.9375 -0.9375,-0.9375 H -18.7685 V 5.9555317 h -0.9375 v 0.0073 c -0.249024,-0.0037 -0.487061,0.09521 -0.662842,0.267333 l -1.874999,1.8749996 c -0.366212,0.366211 -0.366212,0.959473 0,1.325683 l 1.874999,1.8750007 c 0.175781,0.172119 0.413818,0.270996 0.662842,0.270996 v 0.0037 h 0.9375 V 9.7055443 H -8.456 c 0.516357,0 0.9375,-0.421143 0.9375,-0.9375 z m 0,0"
       id="path4"
       style="fill:#444444;fill-opacity:1;stroke-width:0.9375" /></g></svg>
