<?xml version="1.0" encoding="UTF-8" standalone="no"?>
<svg
   width="16"
   height="16"
   version="1.1"
   id="svg6"
   sodipodi:docname="go-first-symbolic.svg"
   xml:space="preserve"
   inkscape:version="1.2.1 (9c6d41e410, 2022-07-14)"
   xmlns:inkscape="http://www.inkscape.org/namespaces/inkscape"
   xmlns:sodipodi="http://sodipodi.sourceforge.net/DTD/sodipodi-0.dtd"
   xmlns="http://www.w3.org/2000/svg"
   xmlns:svg="http://www.w3.org/2000/svg"><defs
     id="defs10"><style
       type="text/css"
       id="current-color-scheme">
      .ColorScheme-Text {
        color:#122036;
      }
      </style><style
       type="text/css"
       id="current-color-scheme-75">
      .ColorScheme-Text {
        color:#122036;
      }
      </style><style
       type="text/css"
       id="current-color-scheme-36">
      .ColorScheme-Text {
        color:#122036;
      }
      </style><style
       type="text/css"
       id="current-color-scheme-3">
      .ColorScheme-Text {
        color:#122036;
      }
      </style><style
       type="text/css"
       id="current-color-scheme-7">
      .ColorScheme-Text {
        color:#122036;
      }
      </style></defs><sodipodi:namedview
     id="namedview8"
     pagecolor="#ffffff"
     bordercolor="#000000"
     borderopacity="0.25"
     inkscape:showpageshadow="2"
     inkscape:pageopacity="0.0"
     inkscape:pagecheckerboard="0"
     inkscape:deskcolor="#d1d1d1"
     showgrid="false"
     inkscape:zoom="16.046875"
     inkscape:cx="-12.027264"
     inkscape:cy="5.3904576"
     inkscape:current-layer="svg6" /><g
     id="g147"
     transform="rotate(90,7.9999998,7.9999998)"><path
       style="fill:#444444"
       d="m 10,14 a 2,2 0 0 1 -2,2 2,2 0 0 1 -2,-2 2,2 0 0 1 2,-2 2,2 0 0 1 2,2 z"
       id="path2" /><path
       d="m 8.0000078,0 c 0.7573241,0 1.375,0.6176759 1.375,1.375 v 4.1250002 h 2.7499992 v 1.3750002 h -0.01073 c 0.0054,0.3652338 -0.139652,0.7143545 -0.392094,0.9721675 L 8.9721838,10.597167 c -0.5371101,0.537111 -1.4072261,0.537111 -1.9443351,0 L 4.277856,7.8471679 C 4.025414,7.5893549 3.880393,7.2402342 3.880393,6.8750004 h -0.0054 V 5.5000002 H 6.6250527 V 1.375 C 6.6250527,0.6176759 7.2427277,0 8.0000518,0 Z m 0,0"
       id="path4"
       style="fill:#444444;fill-opacity:1;stroke-width:1.375" /></g></svg>
