<?xml version="1.0" encoding="UTF-8" standalone="no"?>
<svg
   height="16px"
   viewBox="0 0 16 16"
   width="16px"
   version="1.1"
   id="svg4"
   sodipodi:docname="list-drag-handle-symbolic.svg"
   inkscape:version="1.2.1 (9c6d41e410, 2022-07-14)"
   xmlns:inkscape="http://www.inkscape.org/namespaces/inkscape"
   xmlns:sodipodi="http://sodipodi.sourceforge.net/DTD/sodipodi-0.dtd"
   xmlns="http://www.w3.org/2000/svg"
   xmlns:svg="http://www.w3.org/2000/svg">
  <defs
     id="defs8" />
  <sodipodi:namedview
     id="namedview6"
     pagecolor="#ffffff"
     bordercolor="#000000"
     borderopacity="0.25"
     inkscape:showpageshadow="2"
     inkscape:pageopacity="0.0"
     inkscape:pagecheckerboard="0"
     inkscape:deskcolor="#d1d1d1"
     showgrid="false"
     inkscape:zoom="64.1875"
     inkscape:cx="7.9922103"
     inkscape:cy="8.0155794"
     inkscape:current-layer="svg4" />
  <path
     d="m 4.496094 0 c -0.832032 0 -1.5 0.671875 -1.5 1.5 s 0.667968 1.5 1.5 1.5 c 0.828125 0 1.5 -0.671875 1.5 -1.5 s -0.671875 -1.5 -1.5 -1.5 z m 6 0 c -0.832032 0 -1.5 0.671875 -1.5 1.5 s 0.667968 1.5 1.5 1.5 c 0.828125 0 1.5 -0.671875 1.5 -1.5 s -0.671875 -1.5 -1.5 -1.5 z m -6 6 c -0.832032 0 -1.5 0.671875 -1.5 1.5 s 0.667968 1.5 1.5 1.5 c 0.828125 0 1.5 -0.671875 1.5 -1.5 s -0.671875 -1.5 -1.5 -1.5 z m 6 0 c -0.832032 0 -1.5 0.671875 -1.5 1.5 s 0.667968 1.5 1.5 1.5 c 0.828125 0 1.5 -0.671875 1.5 -1.5 s -0.671875 -1.5 -1.5 -1.5 z m -6 6 c -0.832032 0 -1.5 0.671875 -1.5 1.5 s 0.667968 1.5 1.5 1.5 c 0.828125 0 1.5 -0.671875 1.5 -1.5 s -0.671875 -1.5 -1.5 -1.5 z m 6 0 c -0.832032 0 -1.5 0.671875 -1.5 1.5 s 0.667968 1.5 1.5 1.5 c 0.828125 0 1.5 -0.671875 1.5 -1.5 s -0.671875 -1.5 -1.5 -1.5 z m 0 0"
     fill="#2e3436"
     id="path2"
     style="fill:#444444;fill-opacity:1" />
</svg>
