<?xml version="1.0" encoding="UTF-8" standalone="no"?>
<svg
   width="16"
   height="16"
   version="1.1"
   id="svg6"
   sodipodi:docname="pane-show-symbolic.svg"
   xml:space="preserve"
   inkscape:version="1.2.1 (9c6d41e410, 2022-07-14)"
   xmlns:inkscape="http://www.inkscape.org/namespaces/inkscape"
   xmlns:sodipodi="http://sodipodi.sourceforge.net/DTD/sodipodi-0.dtd"
   xmlns="http://www.w3.org/2000/svg"
   xmlns:svg="http://www.w3.org/2000/svg"><defs
     id="defs10" /><sodipodi:namedview
     id="namedview8"
     pagecolor="#ffffff"
     bordercolor="#000000"
     borderopacity="0.25"
     inkscape:showpageshadow="2"
     inkscape:pageopacity="0.0"
     inkscape:pagecheckerboard="0"
     inkscape:deskcolor="#d1d1d1"
     showgrid="false"
     inkscape:zoom="16.046875"
     inkscape:cx="-9.5968841"
     inkscape:cy="6.1382668"
     inkscape:current-layer="svg6" /><g
     id="g246"
     transform="matrix(-1,0,0,1,15,0)"><path
       style="fill:#444444"
       d="M 13,15 H 3 v -2 h 8 V 3 3 H 3 V 1 h 10 z"
       id="path4-5" /><path
       d="m 7.0001691,5.000022 v 0.0039 c 0.265625,0 0.519531,0.105469 0.707031,0.289063 l 2,2 c 0.3906249,0.390625 0.3906249,1.023437 0,1.414062 l -2,2 c -0.1875,0.18359 -0.441406,0.289059 -0.707031,0.285153 V 11 h -1 V 9 H 3 C 2.449219,9 2,8.550781 2,8 2,7.449219 2.449219,7 3,7 H 6.0001691 V 5 Z"
       id="path2-3"
       style="fill:#444444;fill-opacity:1"
       sodipodi:nodetypes="cccsscccccsssccc" /></g></svg>
