<?xml version="1.0" encoding="UTF-8" standalone="no"?>
<svg
   width="16px"
   height="16px"
   viewBox="0 0 16 16"
   version="1.1"
   id="svg7"
   sodipodi:docname="selection-mode-symbolic.svg"
   inkscape:version="1.2.1 (9c6d41e410, 2022-07-14)"
   xmlns:inkscape="http://www.inkscape.org/namespaces/inkscape"
   xmlns:sodipodi="http://sodipodi.sourceforge.net/DTD/sodipodi-0.dtd"
   xmlns="http://www.w3.org/2000/svg"
   xmlns:svg="http://www.w3.org/2000/svg">
  <defs
     id="defs11" />
  <sodipodi:namedview
     id="namedview9"
     pagecolor="#ffffff"
     bordercolor="#000000"
     borderopacity="0.25"
     inkscape:showpageshadow="2"
     inkscape:pageopacity="0.0"
     inkscape:pagecheckerboard="0"
     inkscape:deskcolor="#d1d1d1"
     showgrid="false"
     inkscape:zoom="64.1875"
     inkscape:cx="7.9922103"
     inkscape:cy="8.0155794"
     inkscape:current-layer="svg7" />
  <g
     id="surface208719"
     style="fill:#444444;fill-opacity:1">
    <path
       style="stroke:none;fill-rule:nonzero;fill:#444444;fill-opacity:1"
       d="M 11.453125 5.414062 C 12.242188 5.464844 12.597656 6.421875 12.039062 6.980469 L 8.050781 11.101562 C 7.691406 11.460938 7.109375 11.460938 6.75 11.101562 L 4.367188 8.800781 C 3.5 7.933594 4.800781 6.632812 5.667969 7.5 L 7.398438 9.152344 L 10.738281 5.679688 C 10.925781 5.488281 11.1875 5.394531 11.453125 5.414062 Z M 11.453125 5.414062 "
       id="path2" />
    <path
       style="stroke:none;fill-rule:nonzero;fill:#444444;fill-opacity:1"
       d="M 7.996094 0 C 3.59375 0 0 3.59375 0 8 C 0 12.40625 3.59375 16 7.996094 16 C 12.402344 16 15.992188 12.40625 15.992188 8 C 15.992188 3.59375 12.402344 0 7.996094 0 Z M 7.996094 2 C 11.320312 2 13.992188 4.675781 13.992188 8 C 13.992188 11.324219 11.320312 14 7.996094 14 C 4.671875 14 2 11.324219 2 8 C 2 4.675781 4.671875 2 7.996094 2 Z M 7.996094 2 "
       id="path4" />
  </g>
</svg>
