<?xml version="1.0" encoding="UTF-8" standalone="no"?>
<svg
   height="16px"
   viewBox="0 0 16 16"
   width="16px"
   version="1.1"
   id="svg10"
   sodipodi:docname="sidebar-show-symbolic.svg"
   inkscape:version="1.2.1 (9c6d41e410, 2022-07-14)"
   xmlns:inkscape="http://www.inkscape.org/namespaces/inkscape"
   xmlns:sodipodi="http://sodipodi.sourceforge.net/DTD/sodipodi-0.dtd"
   xmlns="http://www.w3.org/2000/svg"
   xmlns:svg="http://www.w3.org/2000/svg">
  <defs
     id="defs14" />
  <sodipodi:namedview
     id="namedview12"
     pagecolor="#ffffff"
     bordercolor="#000000"
     borderopacity="0.25"
     inkscape:showpageshadow="2"
     inkscape:pageopacity="0.0"
     inkscape:pagecheckerboard="0"
     inkscape:deskcolor="#d1d1d1"
     showgrid="false"
     inkscape:zoom="64.1875"
     inkscape:cx="7.9922103"
     inkscape:cy="8.0155794"
     inkscape:current-layer="svg10" />
  <path
     d="M 6.5,14 V 2 h -5 v 12 z m 0,0"
     fill-opacity="0.34902"
     id="path2"
     style="fill:#444444;fill-opacity:1;opacity:0.3" />
  <path
     d="M 3,1 C 1.355469,1 0,2.355469 0,4 v 8 c 0,1.644531 1.355469,3 3,3 h 10 c 1.644531,0 3,-1.355469 3,-3 V 4 C 16,2.355469 14.644531,1 13,1 Z m 0,2 h 10 c 0.570312,0 1,0.429688 1,1 v 8 c 0,0.570312 -0.429688,1 -1,1 H 3 C 2.429688,13 2,12.570312 2,12 V 4 C 2,3.429688 2.429688,3 3,3 Z m 0,0"
     id="path4"
     style="fill:#444444;fill-opacity:1" />
  <path
     d="M 6,2 H 7 V 14 H 6 Z m 0,0"
     id="path6"
     style="fill:#444444;fill-opacity:1" />
</svg>
