<?xml version="1.0" encoding="UTF-8" standalone="no"?>
<svg
   height="16px"
   viewBox="0 0 16 16"
   width="16px"
   version="1.1"
   id="svg8"
   sodipodi:docname="view-paged-rtl-symbolic.svg"
   inkscape:version="1.2.1 (9c6d41e410, 2022-07-14)"
   xmlns:inkscape="http://www.inkscape.org/namespaces/inkscape"
   xmlns:sodipodi="http://sodipodi.sourceforge.net/DTD/sodipodi-0.dtd"
   xmlns="http://www.w3.org/2000/svg"
   xmlns:svg="http://www.w3.org/2000/svg">
  <defs
     id="defs12" />
  <sodipodi:namedview
     id="namedview10"
     pagecolor="#ffffff"
     bordercolor="#000000"
     borderopacity="0.25"
     inkscape:showpageshadow="2"
     inkscape:pageopacity="0.0"
     inkscape:pagecheckerboard="0"
     inkscape:deskcolor="#d1d1d1"
     showgrid="false"
     inkscape:zoom="64.1875"
     inkscape:cx="7.9922103"
     inkscape:cy="8.0155794"
     inkscape:current-layer="svg8" />
  <path
     d="M 7.5,4 C 7.222656,4 7,4.222656 7,4.5 v 1 C 7,5.777344 7.222656,6 7.5,6 h 3 C 10.777344,6 11,5.777344 11,5.5 v -1 C 11,4.222656 10.777344,4 10.5,4 Z m 0,3 C 7.222656,7 7,7.222656 7,7.5 v 1 C 7,8.777344 7.222656,9 7.5,9 h 3 C 10.777344,9 11,8.777344 11,8.5 v -1 C 11,7.222656 10.777344,7 10.5,7 Z m 0,0"
     fill-opacity="0.34902"
     id="path2"
     style="fill:#444444;fill-opacity:1;opacity:0.3" />
  <path
     d="m 12,0 c 1.644531,0 3,1.355469 3,3 v 7 c 0,1.644531 -1.355469,3 -3,3 H 6 C 4.355469,13 3,11.644531 3,10 V 3 C 3,1.355469 4.355469,0 6,0 Z m 0,2 H 6 C 5.429688,2 5,2.429688 5,3 v 7 c 0,0.570312 0.429688,1 1,1 h 6 c 0.570312,0 1,-0.429688 1,-1 V 3 C 13,2.429688 12.570312,2 12,2 Z M 1,4 c 0.550781,0 1,0.449219 1,1 v 8 c 0,0.550781 0.449219,1 1,1 h 7 c 0.550781,0 1,0.449219 1,1 0,0.550781 -0.449219,1 -1,1 H 3 C 1.34375,16 0,14.65625 0,13 V 5 C 0,4.449219 0.449219,4 1,4 Z m 0,0"
     id="path4"
     style="fill:#444444;fill-opacity:1" />
</svg>
