<?xml version="1.0" encoding="UTF-8" standalone="no"?>
<svg
   height="16px"
   viewBox="0 0 16 16"
   width="16px"
   version="1.1"
   id="svg4"
   sodipodi:docname="window-maximize-symbolic.svg"
   inkscape:version="1.2.1 (9c6d41e410, 2022-07-14)"
   xmlns:inkscape="http://www.inkscape.org/namespaces/inkscape"
   xmlns:sodipodi="http://sodipodi.sourceforge.net/DTD/sodipodi-0.dtd"
   xmlns="http://www.w3.org/2000/svg"
   xmlns:svg="http://www.w3.org/2000/svg">
  <defs
     id="defs8" />
  <sodipodi:namedview
     id="namedview6"
     pagecolor="#ffffff"
     bordercolor="#000000"
     borderopacity="0.25"
     inkscape:showpageshadow="2"
     inkscape:pageopacity="0.0"
     inkscape:pagecheckerboard="0"
     inkscape:deskcolor="#d1d1d1"
     showgrid="false"
     inkscape:zoom="32.09375"
     inkscape:cx="-0.74780915"
     inkscape:cy="9.4255112"
     inkscape:current-layer="svg4" />
  <g
     id="g348">
    <path
       id="path5-3"
       style="color:#444444;fill:currentColor;stroke-width:1.06853"
       class="ColorScheme-Text"
       d="m 4.7753906,3.6992188 c -0.5954407,0 -1.0761719,0.5130455 -1.0761718,1.1015624 v 6.3984378 c 0,0.588516 0.4807311,1.101562 1.0761718,1.101562 h 6.4492184 c 0.59544,0 1.076172,-0.513046 1.076172,-1.101562 V 4.8007812 c 0,-0.5885169 -0.480732,-1.1015625 -1.076172,-1.1015624 z M 6.125,5.5 h 3.75 c 0.346187,0 0.625,0.2965109 0.625,0.6386719 V 9.8613281 C 10.5,10.203489 10.221187,10.5 9.875,10.5 H 6.125 C 5.7788139,10.5 5.5,10.203489 5.5,9.8613281 V 6.1386719 C 5.5,5.7965109 5.7788139,5.5 6.125,5.5 Z" />
  </g>
</svg>
