<?xml version="1.0" encoding="UTF-8" standalone="no"?>
<svg
   height="16px"
   viewBox="0 0 16 16"
   width="16px"
   version="1.1"
   id="svg4"
   sodipodi:docname="window-maximize-symbolic.svg"
   inkscape:version="1.2.1 (9c6d41e410, 2022-07-14)"
   xmlns:inkscape="http://www.inkscape.org/namespaces/inkscape"
   xmlns:sodipodi="http://sodipodi.sourceforge.net/DTD/sodipodi-0.dtd"
   xmlns="http://www.w3.org/2000/svg"
   xmlns:svg="http://www.w3.org/2000/svg">
  <defs
     id="defs8" />
  <sodipodi:namedview
     id="namedview6"
     pagecolor="#ffffff"
     bordercolor="#000000"
     borderopacity="0.25"
     inkscape:showpageshadow="2"
     inkscape:pageopacity="0.0"
     inkscape:pagecheckerboard="0"
     inkscape:deskcolor="#d1d1d1"
     showgrid="false"
     inkscape:zoom="11.346854"
     inkscape:cx="-8.1079741"
     inkscape:cy="13.527979"
     inkscape:current-layer="svg4" />
  <g
     id="g244"
     transform="matrix(1.0015,0,0,1.0015,-0.012,-0.012)">
    <path
       style="color:#444444;fill:currentColor"
       class="ColorScheme-Text"
       d="M 5,4 C 4.446,4 4,4.446 4,5 v 6 c 0,0.554 0.446,1 1,1 h 6 c 0.554,0 1,-0.446 1,-1 V 5 C 12,4.446 11.554,4 11,4 Z m 1.5,2 h 3 C 9.777,6 10,6.223 10,6.5 v 3 C 10,9.777 9.777,10 9.5,10 h -3 C 6.223,10 6,9.777 6,9.5 v -3 C 6,6.223 6.223,6 6.5,6 Z"
       id="path5" />
  </g>
</svg>
