<?xml version="1.0" encoding="UTF-8" standalone="no"?>
<svg
   height="16px"
   viewBox="0 0 16 16"
   width="16px"
   version="1.1"
   id="svg4"
   sodipodi:docname="window-close-symbolic.svg"
   inkscape:version="1.2.1 (9c6d41e410, 2022-07-14)"
   xml:space="preserve"
   xmlns:inkscape="http://www.inkscape.org/namespaces/inkscape"
   xmlns:sodipodi="http://sodipodi.sourceforge.net/DTD/sodipodi-0.dtd"
   xmlns="http://www.w3.org/2000/svg"
   xmlns:svg="http://www.w3.org/2000/svg"><defs
     id="defs8"><style
       id="current-color-scheme"
       type="text/css">
   .ColorScheme-Text { color:#444444; } .ColorScheme-Highlight { color:#4285f4; }
  </style><style
       id="current-color-scheme-3"
       type="text/css">
   .ColorScheme-Text { color:#444444; } .ColorScheme-Highlight { color:#4285f4; }
  </style></defs><sodipodi:namedview
     id="namedview6"
     pagecolor="#ffffff"
     bordercolor="#000000"
     borderopacity="0.25"
     inkscape:showpageshadow="2"
     inkscape:pageopacity="0.0"
     inkscape:pagecheckerboard="0"
     inkscape:deskcolor="#d1d1d1"
     showgrid="false"
     inkscape:zoom="11.346854"
     inkscape:cx="-18.154812"
     inkscape:cy="6.6538267"
     inkscape:current-layer="svg4" /><path
     style="fill:currentColor"
     class="ColorScheme-Text"
     d="M 11.002022,3.995153 A 1,1 0 0 0 10.294991,4.288122 L 8.0020222,6.5810907 5.7188192,4.297888 a 1,1 0 0 0 -0.0098,-0.0098 1,1 0 0 0 -0.701172,-0.289063 l -0.0098,0.01367 a 1,1 0 0 0 -1,1 1,1 0 0 0 0.292969,0.707032 l 2.292969,2.2929683 -2.292969,2.2929687 a 1,1 0 0 0 -0.289063,0.699219 1,1 0 0 0 1,1 1,1 0 0 0 0.707032,-0.292969 l 2.292968,-2.2929687 2.2832028,2.2832027 a 1,1 0 0 0 0.716797,0.302735 1,1 0 0 0 1,-1 1,1 0 0 0 -0.292968,-0.707032 L 9.4082032,7.9990234 11.691406,5.71582 a 1,1 0 0 0 0.310547,-0.720703 1,1 0 0 0 -1,-1 z"
     id="path133" /></svg>
