<?xml version="1.0" encoding="UTF-8" standalone="no"?>
<svg
   height="16px"
   viewBox="0 0 16 16"
   width="16px"
   version="1.1"
   id="svg4"
   sodipodi:docname="window-close-symbolic-new.svg"
   inkscape:version="1.2.1 (9c6d41e410, 2022-07-14)"
   xml:space="preserve"
   xmlns:inkscape="http://www.inkscape.org/namespaces/inkscape"
   xmlns:sodipodi="http://sodipodi.sourceforge.net/DTD/sodipodi-0.dtd"
   xmlns="http://www.w3.org/2000/svg"
   xmlns:svg="http://www.w3.org/2000/svg"><defs
     id="defs8"><style
       id="current-color-scheme"
       type="text/css">
   .ColorScheme-Text { color:#444444; } .ColorScheme-Highlight { color:#4285f4; }
  </style><style
       id="current-color-scheme-3"
       type="text/css">
   .ColorScheme-Text { color:#444444; } .ColorScheme-Highlight { color:#4285f4; }
  </style></defs><sodipodi:namedview
     id="namedview6"
     pagecolor="#ffffff"
     bordercolor="#000000"
     borderopacity="0.25"
     inkscape:showpageshadow="2"
     inkscape:pageopacity="0.0"
     inkscape:pagecheckerboard="0"
     inkscape:deskcolor="#d1d1d1"
     showgrid="false"
     inkscape:zoom="11.346854"
     inkscape:cx="-18.154812"
     inkscape:cy="6.830087"
     inkscape:current-layer="svg4" /><path
     style="fill:currentColor;stroke-width:1.06159"
     class="ColorScheme-Text"
     d="M 11.188092,3.7500382 A 1.0619815,1.0612046 0 0 0 10.437238,4.0609383 L 8.0021475,6.4942472 5.5774282,4.071302 A 1.0619815,1.0612046 0 0 0 5.5670202,4.060902 1.0619815,1.0612046 0 0 0 4.8223885,3.754147 L 4.8119815,3.768653 A 1.0619815,1.0612046 0 0 0 3.7500001,4.8298584 1.0619815,1.0612046 0 0 0 4.0611278,5.580164 L 6.4962185,8.0134725 4.0611278,10.446781 A 1.0619815,1.0612046 0 0 0 3.7541482,11.188796 1.0619815,1.0612046 0 0 0 4.8161297,12.25 1.0619815,1.0612046 0 0 0 5.5669846,11.939101 L 8.0020743,9.5057915 10.426794,11.928736 A 1.0619815,1.0612046 0 0 0 11.188019,12.25 1.0619815,1.0612046 0 0 0 12.25,11.188796 1.0619815,1.0612046 0 0 0 11.938874,10.43849 L 9.4954858,7.9989639 11.920205,5.5760179 A 1.0619815,1.0612046 0 0 0 12.25,4.8112046 1.0619815,1.0612046 0 0 0 11.188019,3.75 Z"
     id="path133" /></svg>
