<?xml version="1.0" encoding="UTF-8" standalone="no"?>
<svg
   width="16"
   height="16"
   version="1.1"
   id="svg4"
   sodipodi:docname="xapp-go-history-next-symbolic.svg"
   xml:space="preserve"
   inkscape:version="1.2.1 (9c6d41e410, 2022-07-14)"
   xmlns:inkscape="http://www.inkscape.org/namespaces/inkscape"
   xmlns:sodipodi="http://sodipodi.sourceforge.net/DTD/sodipodi-0.dtd"
   xmlns="http://www.w3.org/2000/svg"
   xmlns:svg="http://www.w3.org/2000/svg"><defs
     id="defs8"><style
       id="current-color-scheme"
       type="text/css">
   .ColorScheme-Text { color:#444444; } .ColorScheme-Highlight { color:#4285f4; }
  </style><style
       id="current-color-scheme-5"
       type="text/css">
   .ColorScheme-Text { color:#444444; } .ColorScheme-Highlight { color:#4285f4; }
  </style><style
       type="text/css"
       id="current-color-scheme-3675">
      .ColorScheme-Text {
        color:#122036;
      }
      </style><style
       type="text/css"
       id="current-color-scheme-367">
      .ColorScheme-Text {
        color:#122036;
      }
      </style><style
       type="text/css"
       id="current-color-scheme-36">
      .ColorScheme-Text {
        color:#122036;
      }
      </style><style
       type="text/css"
       id="current-color-scheme-3">
      .ColorScheme-Text {
        color:#122036;
      }
      </style><style
       type="text/css"
       id="current-color-scheme-7">
      .ColorScheme-Text {
        color:#122036;
      }
      </style></defs><sodipodi:namedview
     id="namedview6"
     pagecolor="#ffffff"
     bordercolor="#000000"
     borderopacity="0.25"
     inkscape:showpageshadow="2"
     inkscape:pageopacity="0.0"
     inkscape:pagecheckerboard="0"
     inkscape:deskcolor="#d1d1d1"
     showgrid="false"
     inkscape:zoom="8.0234375"
     inkscape:cx="29.912366"
     inkscape:cy="31.968841"
     inkscape:current-layer="svg4" /><path
     style="fill:#444444"
     d="M 5,13.5 A 1.5,1.5 0 0 1 3.5,15 1.5,1.5 0 0 1 2,13.5 1.5,1.5 0 0 1 3.5,12 1.5,1.5 0 0 1 5,13.5 Z"
     id="path375" /><path
     style="fill:#444444"
     d="M 9,13.5 A 1.5,1.5 0 0 1 7.5,15 1.5,1.5 0 0 1 6,13.5 1.5,1.5 0 0 1 7.5,12 1.5,1.5 0 0 1 9,13.5 Z"
     id="path373" /><path
     style="fill:#444444"
     d="M 13,13.5 A 1.5,1.5 0 0 1 11.5,15 1.5,1.5 0 0 1 10,13.5 1.5,1.5 0 0 1 11.5,12 1.5,1.5 0 0 1 13,13.5 Z"
     id="path2" /><path
     style="fill:#444444;fill-opacity:1;stroke-width:1.66667"
     d="m 1.5829248,6.0000074 c 0,0.91797 0.748696,1.6666657 1.666664,1.6666657 h 3.50082 v 3.3333249 h 1.666666 v -0.01317 c 0.442708,0.0065 0.865885,-0.169277 1.178387,-0.47527 L 12.928792,7.1782241 c 0.651044,-0.6510377 0.651044,-1.7057257 0,-2.3567667 L 9.5954618,1.488255 C 9.2829598,1.1822647 8.8597828,1.0064819 8.4170748,1.0064819 v -0.00648 h -1.666666 v 3.3334025 h -3.50082 c -0.917968,0 -1.666664,0.748698 -1.666664,1.666665 z"
     id="path4-3"
     sodipodi:nodetypes="csccccccccccccscc" /></svg>
