<?xml version="1.0" encoding="UTF-8" standalone="no"?>
<svg
   width="16"
   height="16"
   version="1.1"
   id="svg4"
   sodipodi:docname="ymuse-random-symbolic.svg"
   xml:space="preserve"
   inkscape:version="1.2.1 (9c6d41e410, 2022-07-14)"
   xmlns:inkscape="http://www.inkscape.org/namespaces/inkscape"
   xmlns:sodipodi="http://sodipodi.sourceforge.net/DTD/sodipodi-0.dtd"
   xmlns="http://www.w3.org/2000/svg"
   xmlns:svg="http://www.w3.org/2000/svg"><defs
     id="defs8"><style
       id="current-color-scheme"
       type="text/css">
   .ColorScheme-Text { color:#444444; } .ColorScheme-Highlight { color:#4285f4; }
  </style><style
       id="current-color-scheme-3"
       type="text/css">
   .ColorScheme-Text { color:#444444; } .ColorScheme-Highlight { color:#4285f4; }
  </style></defs><sodipodi:namedview
     id="namedview6"
     pagecolor="#ffffff"
     bordercolor="#000000"
     borderopacity="0.25"
     inkscape:showpageshadow="2"
     inkscape:pageopacity="0.0"
     inkscape:pagecheckerboard="0"
     inkscape:deskcolor="#d1d1d1"
     showgrid="false"
     inkscape:zoom="16.046875"
     inkscape:cx="-19.754625"
     inkscape:cy="10.438169"
     inkscape:current-layer="svg4" /><path
     d="M 12,0.99999985 V 2.9999998 H 9.0000002 c -0.859375,0 -1.59375,0.480469 -2.011719,1.007812 -0.417969,0.523438 -0.648437,1.074219 -0.882812,1.542969 l -0.105469,0.210938 -0.105469,-0.210938 c -0.191406,-0.382812 -0.386719,-0.816406 -0.671875,-1.25 -0.414062,-0.632812 -1.207031,-1.300781 -2.222656,-1.300781 H 1.875e-7 v 2 H 3.0000002 c 0.296875,0 0.316406,0.039062 0.550781,0.398438 0.164063,0.246093 0.34375,0.625 0.554688,1.050781 l 0.777343,1.550781 -0.777343,1.550781 C 3.8437502,10.074219 3.6289062,10.519531 3.4492192,10.75 3.2656252,10.976562 3.2500002,11 3.0000002,11 H 1.875e-7 v 2 H 3.0000002 c 0.859375,0 1.59375,-0.480469 2.011719,-1.007812 0.417969,-0.523438 0.648437,-1.074219 0.882812,-1.542969 l 0.105469,-0.210938 0.105469,0.210938 c 0.164062,0.328125 0.335937,0.703125 0.5625,1.078125 C 7.0820312,12.214844 7.8906252,13 9.0000002,13 H 12 v 2 h 1 v -0.0078 c 0.265625,0.0039 0.519531,-0.101563 0.707031,-0.285157 l 2,-2 c 0.390625,-0.390625 0.390625,-1.023437 0,-1.414062 l -2,-2.0000001 C 13.519531,9.1093748 13.265625,9.0039058 13,9.0078119 v -0.00781 H 12 V 11.000002 H 9.0000002 c -0.324219,0 -0.351562,-0.05859 -0.617188,-0.503906 C 8.2343752,10.253908 8.0781252,9.9218768 7.8945312,9.5507828 L 7.1171882,8.0000019 7.8945312,6.4492208 c 0.261719,-0.523438 0.476563,-0.96875 0.65625,-1.199219 0.183594,-0.226562 0.199219,-0.25 0.449219,-0.25 H 12 v 2 h 1 v -0.00781 c 0.265625,0.00391 0.519531,-0.101563 0.707031,-0.285157 l 2,-2 c 0.390625,-0.390625 0.390625,-1.023437 0,-1.414062 l -2,-2 C 13.519531,1.1093768 13.265625,1.0039078 13,1.0078138 v -0.00781 z m 0,0"
     fill="#2e3436"
     id="path2-5"
     style="fill:#444444;fill-opacity:1" /></svg>
