<?xml version="1.0" encoding="UTF-8" standalone="no"?>
<!-- Generator: Adobe Illustrator 23.0.0, SVG Export Plug-In . SVG Version: 6.00 Build 0)  -->

<svg
   xmlns:dc="http://purl.org/dc/elements/1.1/"
   xmlns:cc="http://creativecommons.org/ns#"
   xmlns:rdf="http://www.w3.org/1999/02/22-rdf-syntax-ns#"
   xmlns:svg="http://www.w3.org/2000/svg"
   xmlns="http://www.w3.org/2000/svg"
   xmlns:sodipodi="http://sodipodi.sourceforge.net/DTD/sodipodi-0.dtd"
   xmlns:inkscape="http://www.inkscape.org/namespaces/inkscape"
   version="1.1"
   id="레이어_1"
   x="0px"
   y="0px"
   viewBox="0 0 16 16"
   style="enable-background:new 0 0 16 16;"
   xml:space="preserve"
   sodipodi:docname="cs-cat-appearance.svg"
   inkscape:version="0.92.5 (2060ec1f9f, 2020-04-08)"><metadata
   id="metadata15"><rdf:RDF><cc:Work
       rdf:about=""><dc:format>image/svg+xml</dc:format><dc:type
         rdf:resource="http://purl.org/dc/dcmitype/StillImage" /></cc:Work></rdf:RDF></metadata><defs
   id="defs13">
	
	
</defs><sodipodi:namedview
   pagecolor="#ffffff"
   bordercolor="#666666"
   borderopacity="1"
   objecttolerance="10"
   gridtolerance="10"
   guidetolerance="10"
   inkscape:pageopacity="0"
   inkscape:pageshadow="2"
   inkscape:window-width="1920"
   inkscape:window-height="1004"
   id="namedview11"
   showgrid="false"
   inkscape:zoom="14.75"
   inkscape:cx="8"
   inkscape:cy="8"
   inkscape:window-x="0"
   inkscape:window-y="0"
   inkscape:window-maximized="1"
   inkscape:current-layer="레이어_1" />
<style
   type="text/css"
   id="style2">
	.st0{fill:#E4728F;}
</style>
<path
   style="fill:#f1b8c7;fill-opacity:1"
   inkscape:connector-curvature="0"
   id="path4"
   d="m 2,9.2 c 0.8,0.6 1.5,0.8 2,1 0.5,0.1 0.6,0.1 1.4,0.3 0.8,0.2 1.2,0.4 1.5,0.5 0.1,0.2 0.4,0.8 0.2,1.3 v 0 c -0.2,0.2 -0.4,0.6 -0.4,1 0,0.8 0.6,1.4 1.4,1.4 0.8,0 1.4,-0.6 1.4,-1.4 0,-0.4 -0.2,-0.7 -0.4,-1 0,0 0,0 0,0 C 8.7,11.7 9,11.1 9.1,11 9.5,10.8 9.7,10.8 10,10.7 c 0.1,0 0.1,0 0.6,-0.1 0.3,-0.1 0.4,-0.1 0.5,-0.1 0.4,-0.1 0.6,-0.1 0.9,-0.2 0.5,-0.1 1.2,-0.4 2,-1 0,-1.4 0,-2.8 0,-4.2 H 2 c 0,1.3 0,2.7 0,4.1 z"
   class="st0" /><path
   style="fill:#f1b8c7;fill-opacity:1"
   inkscape:connector-curvature="0"
   id="path6"
   d="M 11.2,1.4 C 8.8,1.4 7.7,2.5 5.4,2.5 4.6,2.5 3.4,2.4 2,1.7 2,2.5 2,3.4 2,4.2 H 14 C 14,3.4 14,2.7 14,1.9 13.4,1.7 12.4,1.4 11.2,1.4 Z"
   class="st0" />
</svg>