<?xml version="1.0" encoding="UTF-8" standalone="no"?>
<!-- Created with Inkscape (http://www.inkscape.org/) -->

<svg
   xmlns:dc="http://purl.org/dc/elements/1.1/"
   xmlns:cc="http://creativecommons.org/ns#"
   xmlns:rdf="http://www.w3.org/1999/02/22-rdf-syntax-ns#"
   xmlns:svg="http://www.w3.org/2000/svg"
   xmlns="http://www.w3.org/2000/svg"
   xmlns:sodipodi="http://sodipodi.sourceforge.net/DTD/sodipodi-0.dtd"
   xmlns:inkscape="http://www.inkscape.org/namespaces/inkscape"
   width="16"
   height="16"
   viewBox="0 0 4.2333332 4.2333335"
   version="1.1"
   id="svg847"
   inkscape:version="0.92.5 (2060ec1f9f, 2020-04-08)"
   sodipodi:docname="cs-cat-hardware.svg">
  <defs
     id="defs841" />
  <sodipodi:namedview
     id="base"
     pagecolor="#ffffff"
     bordercolor="#666666"
     borderopacity="1.0"
     inkscape:pageopacity="0.0"
     inkscape:pageshadow="2"
     inkscape:zoom="25.53125"
     inkscape:cx="7.1001478"
     inkscape:cy="6.168539"
     inkscape:document-units="px"
     inkscape:current-layer="layer1"
     showgrid="false"
     units="px"
     inkscape:window-width="1920"
     inkscape:window-height="1004"
     inkscape:window-x="0"
     inkscape:window-y="0"
     inkscape:window-maximized="1" />
  <metadata
     id="metadata844">
    <rdf:RDF>
      <cc:Work
         rdf:about="">
        <dc:format>image/svg+xml</dc:format>
        <dc:type
           rdf:resource="http://purl.org/dc/dcmitype/StillImage" />
        <dc:title />
      </cc:Work>
    </rdf:RDF>
  </metadata>
  <g
     inkscape:label="Layer 1"
     inkscape:groupmode="layer"
     id="layer1"
     transform="translate(0,-292.76666)">
    <path
       style="opacity:1;fill:#b2c3b7;fill-opacity:1;stroke-width:0.00836368"
       d="m 1.29352,292.76666 v 0.70555 H 1.08438 c -0.20987,0 -0.37882,0.16895 -0.37882,0.37883 v 0.1621 H 0 v 0.47037 h 0.70556 v 0.70555 H 0 v 0.47037 h 0.70556 v 0.25618 c 0,0.20987 0.16895,0.37882 0.37882,0.37882 h 0.20914 v 0.70556 h 0.47037 v -0.70556 h 0.70555 v 0.70556 h 0.47037 v -0.70556 h 0.2091 c 0.20987,0 0.37887,-0.16895 0.37887,-0.37882 v -0.25618 h 0.70555 v -0.47037 H 3.52778 v -0.70555 h 0.70555 v -0.47037 H 3.52778 v -0.1621 c 0,-0.20988 -0.169,-0.37883 -0.37887,-0.37883 h -0.2091 v -0.70555 H 2.46944 v 0.70555 H 1.76389 v -0.70555 z m -0.11759,1.19944 h 1.88148 v 1.88148 H 1.17593 Z"
       id="rect816-3"
       inkscape:connector-curvature="0" />
  </g>
</svg>
