<?xml version="1.0" encoding="UTF-8" standalone="no"?>
<svg
   height="32"
   width="32"
   version="1.1"
   id="svg47"
   sodipodi:docname="preferences-system-performance.svg"
   inkscape:version="1.1.1 (3bf5ae0d25, 2021-09-20)"
   xmlns:inkscape="http://www.inkscape.org/namespaces/inkscape"
   xmlns:sodipodi="http://sodipodi.sourceforge.net/DTD/sodipodi-0.dtd"
   xmlns:xlink="http://www.w3.org/1999/xlink"
   xmlns="http://www.w3.org/2000/svg"
   xmlns:svg="http://www.w3.org/2000/svg">
  <defs
     id="defs51">
    <linearGradient
       id="linearGradient956"
       gradientUnits="userSpaceOnUse"
       x1="378.57101"
       x2="378.57101"
       y1="553.79797"
       y2="525.79797">
      <stop
         offset="0"
         stop-color="#63984b"
         id="stop2-3" />
      <stop
         offset="1"
         stop-color="#8fc278"
         id="stop4-6" />
    </linearGradient>
    <linearGradient
       id="linearGradient960"
       gradientUnits="userSpaceOnUse"
       x1="392.57101"
       x2="406.57101"
       xlink:href="#a"
       y1="539.79797"
       y2="553.79797">
      <stop
         offset="0"
         id="stop17-7" />
      <stop
         offset="1"
         stop-opacity="0"
         id="stop19-5" />
    </linearGradient>
    <linearGradient
       id="linearGradient964"
       gradientUnits="userSpaceOnUse"
       x1="389.57101"
       x2="399.57101"
       y1="536.79797"
       y2="546.79797">
      <stop
         offset="0"
         stop-color="#292c2f"
         id="stop22-3" />
      <stop
         offset="1"
         stop-opacity="0"
         id="stop24-5" />
    </linearGradient>
    <linearGradient
       id="linearGradient968"
       gradientUnits="userSpaceOnUse"
       x1="394.57101"
       x2="394.57101"
       y1="549.79797"
       y2="529.79797">
      <stop
         offset="0"
         stop-color="#999a9c"
         id="stop7-6" />
      <stop
         offset="1"
         stop-color="#dcdfdf"
         id="stop9-2" />
    </linearGradient>
    <linearGradient
       id="linearGradient972"
       gradientUnits="userSpaceOnUse"
       x1="394.85699"
       x2="394.85699"
       y1="543.79797"
       y2="535.79797">
      <stop
         offset="0"
         stop-color="#2a2c2f"
         id="stop12-9" />
      <stop
         offset="1"
         stop-color="#424649"
         id="stop14-1" />
    </linearGradient>
    <linearGradient
       inkscape:collect="always"
       xlink:href="#a"
       id="linearGradient886"
       gradientUnits="userSpaceOnUse"
       x1="389.57101"
       y1="536.79797"
       x2="399.57101"
       y2="546.79797"
       gradientTransform="translate(-376.571,-523.798)" />
    <linearGradient
       inkscape:collect="always"
       xlink:href="#b"
       id="linearGradient986"
       gradientUnits="userSpaceOnUse"
       x1="378.571"
       y1="553.798"
       x2="378.571"
       y2="525.798"
       gradientTransform="translate(-376.571,-523.798)" />
    <linearGradient
       inkscape:collect="always"
       xlink:href="#c"
       id="linearGradient988"
       gradientUnits="userSpaceOnUse"
       x1="392.571"
       y1="539.798"
       x2="406.571"
       y2="553.798"
       gradientTransform="translate(-376.571,-523.798)" />
    <linearGradient
       inkscape:collect="always"
       xlink:href="#d"
       id="linearGradient990"
       gradientUnits="userSpaceOnUse"
       x1="394.571"
       y1="549.798"
       x2="394.571"
       y2="529.798"
       gradientTransform="translate(-376.571,-523.798)" />
    <linearGradient
       inkscape:collect="always"
       xlink:href="#e"
       id="linearGradient992"
       gradientUnits="userSpaceOnUse"
       x1="394.857"
       y1="543.798"
       x2="394.857"
       y2="535.798"
       gradientTransform="translate(-376.571,-523.798)" />
  </defs>
  <sodipodi:namedview
     id="namedview49"
     pagecolor="#ffffff"
     bordercolor="#666666"
     borderopacity="1.0"
     inkscape:pageshadow="2"
     inkscape:pageopacity="0.0"
     inkscape:pagecheckerboard="0"
     showgrid="false"
     inkscape:zoom="6.872194"
     inkscape:cx="-24.009799"
     inkscape:cy="0.94584058"
     inkscape:window-width="1920"
     inkscape:window-height="1011"
     inkscape:window-x="0"
     inkscape:window-y="0"
     inkscape:window-maximized="1"
     inkscape:current-layer="svg47" />
  <linearGradient
     id="b"
     gradientUnits="userSpaceOnUse"
     x1="378.571"
     x2="378.571"
     y1="553.798"
     y2="525.798">
    <stop
       offset="0"
       stop-color="#63984b"
       id="stop2" />
    <stop
       offset="1"
       stop-color="#8fc278"
       id="stop4" />
  </linearGradient>
  <linearGradient
     id="d"
     gradientUnits="userSpaceOnUse"
     x1="394.571"
     x2="394.571"
     y1="549.798"
     y2="529.798">
    <stop
       offset="0"
       stop-color="#999a9c"
       id="stop7" />
    <stop
       offset="1"
       stop-color="#dcdfdf"
       id="stop9" />
  </linearGradient>
  <linearGradient
     id="e"
     gradientUnits="userSpaceOnUse"
     x1="394.857"
     x2="394.857"
     y1="543.798"
     y2="535.798">
    <stop
       offset="0"
       stop-color="#2a2c2f"
       id="stop12" />
    <stop
       offset="1"
       stop-color="#424649"
       id="stop14" />
  </linearGradient>
  <linearGradient
     id="c"
     gradientUnits="userSpaceOnUse"
     x1="392.571"
     x2="406.571"
     xlink:href="#a"
     y1="539.798"
     y2="553.798">
    <stop
       offset="0"
       id="stop17" />
    <stop
       offset="1"
       stop-opacity="0"
       id="stop19" />
  </linearGradient>
  <linearGradient
     id="a"
     gradientUnits="userSpaceOnUse"
     x1="389.571"
     x2="399.571"
     y1="536.798"
     y2="546.798">
    <stop
       offset="0"
       stop-color="#292c2f"
       id="stop22" />
    <stop
       offset="1"
       stop-opacity="0"
       id="stop24" />
  </linearGradient>
  <path
     d="M 2,7 V 5 C 2,3 3,2 5.07559,2 H 26.86025 C 29,2 30,3 30,5 v 22 c 0,2 -1,3 -2.9435,3 H 5 C 3,30 2,29 2,26.98361 V 10.000001 L 4,9 Z"
     fill="url(#b)"
     id="path27-2"
     sodipodi:nodetypes="cccccccccccc"
     style="fill:url(#linearGradient986)" />
  <path
     d="m 29,26.999999 -2,2 h 2 z"
     fill="#e6ea97"
     fill-rule="evenodd"
     id="path29-7" />
  <path
     d="m 6,26 3.9999997,4 H 30 V 10.000001 L 26,6 Z"
     fill="url(#c)"
     opacity="0.2"
     id="path31-0"
     style="fill:url(#linearGradient988)" />
  <path
     d="M 6,6 H 26 V 26 H 6 Z"
     fill="url(#d)"
     id="path33-9"
     style="fill:url(#linearGradient990)" />
  <path
     d="M 14.854,13.146001 17.5,15.792 H 19 V 15.5 h 0.5 L 26,22 v 4 h -1 l -8,-8 -0.5,-0.5 0.647,-0.646 -3,-3 z m -1.072,2.572999 -1.063,1.062 2.25,2.25 -0.676,0.676 6.291,6.293 h 3.479 z"
     fill="url(#a)"
     opacity="0.2"
     id="path35-3"
     style="fill:url(#linearGradient886)" />
  <path
     d="m 15,18 c -0.554,0 -1,0.446001 -1,1 0,0.554 0.446,1 1,1 0.554,0 1,-0.446 1,-1 0,-0.553999 -0.446,-1 -1,-1 z M 13.25,15.500001 A 0.748,0.748 0 0 0 12.5,16.25 a 0.75,0.75 0 1 0 1.5,0 0.748,0.748 0 0 0 -0.75,-0.749999 z m 3.75,-2.5 -1,1 1.5,1.5 L 16,17 l 1,1 1.5,-1.5 1,-0.999999 -1,-1 z m -2.5,0 a 0.5,0.5 0 1 0 0,1 0.5,0.5 0 1 0 0,-1 z"
     fill="url(#e)"
     id="path37-6"
     style="fill:url(#linearGradient992)" />
  <path
     d="m 6,24.999999 h 20 v 1 H 6 Z"
     fill="#616365"
     id="path39-0" />
  <path
     d="m 7,20.999999 h 4 v 1 H 7 Z m 0,2 h 2 v 1 H 7 Z m 15,-16 V 10 h 1 V 8.999999 h 1 v -1 h -1 v -1 z m 2,1 h 1 v -1 h -1 z m 0,1 V 10 h 1 V 8.999999 Z"
     fill="#484a4b"
     id="path41-6" />
  <path
     d="m 5,26.999999 h 1 v 1 H 5 Z m 1,1 h 1 v 1 H 6 Z m 1,-1 h 1 v 1 H 7 Z m 1,1 h 1 v 1 H 8 Z m 1,-1 h 0.9999997 v 1 H 9 Z m 0.9999997,1 H 11 v 1 H 9.9999997 Z m 1.0000003,-1 h 1 v 1 h -1 z m 14,0 h 1 v 1 h -1 z m -1,1 h 1 v 1 h -1 z m -1,-1 h 1 v 1 h -1 z m -1,1 h 1 v 1 h -1 z m -1,-1 h 1 v 1 h -1 z m -1,1 h 1 v 1 h -1 z m -1,-1 h 1 v 1 h -1 z m -1,1 h 1 v 1 h -1 z m -6,0 h 1 v 1 h -1 z m 15,-24 h 1 v 1 h -1 z m 1,1 h 1 v 1 h -1 z m -1,1 h 1 v 1 h -1 z m 1,1 h 1 v 1 h -1 z m -1,1 h 1 v 1 h -1 z m 1,1 h 1 V 10 H 28 Z M 27,10 h 1 v 1 h -1 z m 1,1 h 1 v 1 h -1 z m -1,1 h 1 v 1 h -1 z m 1,1 h 1 v 1 h -1 z m -1,10.999999 h 1 v 1 h -1 z m 1,-1 h 1 v 1 h -1 z m -1,-1 h 1 v 1 h -1 z m 1,-1 h 1 v 1 h -1 z m -1,-1 h 1 v 1 h -1 z"
     id="path43-2" />
  <path
     d="m 3,28.999999 h 26 c 0,0 -1,1 -2,1 H 5 c 0,0 -1,0 -2,-1 z"
     fill="#4a7937"
     id="path45-6"
     sodipodi:nodetypes="ccccc" />
</svg>
