<?xml version="1.0" encoding="UTF-8" standalone="no"?>
<svg
   height="16px"
   viewBox="0 0 16 16"
   width="16px"
   version="1.1"
   id="svg6"
   sodipodi:docname="appointment-soon-symbolic.svg"
   inkscape:version="1.2.1 (9c6d41e410, 2022-07-14)"
   xmlns:inkscape="http://www.inkscape.org/namespaces/inkscape"
   xmlns:sodipodi="http://sodipodi.sourceforge.net/DTD/sodipodi-0.dtd"
   xmlns="http://www.w3.org/2000/svg"
   xmlns:svg="http://www.w3.org/2000/svg">
  <defs
     id="defs10" />
  <sodipodi:namedview
     id="namedview8"
     pagecolor="#ffffff"
     bordercolor="#000000"
     borderopacity="0.25"
     inkscape:showpageshadow="2"
     inkscape:pageopacity="0.0"
     inkscape:pagecheckerboard="0"
     inkscape:deskcolor="#d1d1d1"
     showgrid="false"
     inkscape:zoom="64.1875"
     inkscape:cx="7.9922103"
     inkscape:cy="8.0155794"
     inkscape:current-layer="svg6" />
  <path
     d="m 6.5 0 c -3.578125 0 -6.5 2.921875 -6.5 6.5 s 2.921875 6.5 6.5 6.5 c 0.171875 0 0.332031 -0.019531 0.5 -0.03125 v -2.03125 c -0.167969 0.019531 -0.328125 0.0625 -0.5 0.0625 c -2.496094 0 -4.5 -2.003906 -4.5 -4.5 s 2.003906 -4.5 4.5 -4.5 s 4.5 2.003906 4.5 4.5 c 0 0.171875 -0.042969 0.332031 -0.0625 0.5 h 2.03125 c 0.011719 -0.167969 0.03125 -0.328125 0.03125 -0.5 c 0 -3.578125 -2.921875 -6.5 -6.5 -6.5 z m 0 3 c -0.277344 0 -0.5 0.222656 -0.5 0.5 v 2.5 h -1.5 c -0.277344 0 -0.5 0.222656 -0.5 0.5 s 0.222656 0.5 0.5 0.5 h 2 c 0.277344 0 0.5 -0.222656 0.5 -0.5 v -3 c 0 -0.277344 -0.222656 -0.5 -0.5 -0.5 z m 0 0"
     fill="#2e3436"
     id="path2"
     style="fill:#444444;fill-opacity:1" />
  <path
     d="m 8.875 8.070312 c -0.492188 0 -0.875 0.378907 -0.875 0.867188 v 6.195312 c 0 0.488282 0.382812 0.867188 0.875 0.867188 h 6.25 c 0.492188 0 0.875 -0.378906 0.875 -0.867188 v -6.195312 c 0 -0.488281 -0.382812 -0.867188 -0.875 -0.867188 z m 2.125 0.929688 h 2 v 2.5 s 0 0.5 -0.5 0.5 h -1 c -0.5 0 -0.5 -0.5 -0.5 -0.5 z m 0.5 4 h 1 c 0.277344 0 0.5 0.222656 0.5 0.5 v 1 c 0 0.277344 -0.222656 0.5 -0.5 0.5 h -1 c -0.277344 0 -0.5 -0.222656 -0.5 -0.5 v -1 c 0 -0.277344 0.222656 -0.5 0.5 -0.5 z m 0 0"
     class="warning"
     fill="#ff7800"
     id="path4" />
</svg>
