<?xml version="1.0" encoding="UTF-8" standalone="no"?>
<svg
   width="16"
   height="16"
   version="1.1"
   id="svg4"
   sodipodi:docname="arch-error-symbolic.svg"
   inkscape:version="1.2.1 (9c6d41e410, 2022-07-14)"
   xmlns:inkscape="http://www.inkscape.org/namespaces/inkscape"
   xmlns:sodipodi="http://sodipodi.sourceforge.net/DTD/sodipodi-0.dtd"
   xmlns="http://www.w3.org/2000/svg"
   xmlns:svg="http://www.w3.org/2000/svg">
  <defs
     id="defs8" />
  <sodipodi:namedview
     id="namedview6"
     pagecolor="#ffffff"
     bordercolor="#000000"
     borderopacity="0.25"
     inkscape:showpageshadow="2"
     inkscape:pageopacity="0.0"
     inkscape:pagecheckerboard="0"
     inkscape:deskcolor="#d1d1d1"
     showgrid="false"
     inkscape:zoom="16.046875"
     inkscape:cx="-4.5491723"
     inkscape:cy="9.6903603"
     inkscape:current-layer="svg4" />
  <g
     id="g240"
     style="fill:#444444;fill-opacity:1">
    <path
       id="path2"
       style="fill:#444444;fill-opacity:1"
       d="M 8,0 C 7.744141,0 7.4882811,0.09765644 7.2929688,0.29296875 L 5.5859375,2 H 3 C 2.4492196,2 2,2.4492196 2,3 V 5.5859375 L 0.29296875,7.2929688 c -0.39062481,0.3906246 -0.39062481,1.0234378 0,1.4140624 L 2,10.414062 V 13 c 0,0.55078 0.4492196,1 1,1 h 2.5859375 l 1.7070313,1.707031 C 7.4882806,15.90234 7.7421883,16 8,16 8.2578117,16 8.5117194,15.902344 8.7070312,15.707031 L 10.414062,14 H 13 c 0.55078,0 1,-0.44922 1,-1 v -2.585938 l 1.707031,-1.7070308 c 0.390625,-0.3906246 0.390625,-1.0234378 0,-1.4140624 L 14,5.5859375 V 3 C 14,2.4492196 13.55078,2 13,2 H 10.414062 L 8.7070312,0.29296875 C 8.5117189,0.09765644 8.255859,0 8,0 Z M 6.2460938,5.1230469 c 0.1199141,0 0.238593,0.045234 0.328125,0.1347656 L 8,6.6816406 9.4238281,5.2578125 c 0.1790637,-0.1790628 0.4810923,-0.1790628 0.6601559,0 l 0.658204,0.6582031 c 0.179063,0.1790638 0.179063,0.4791393 0,0.6582032 L 9.3183594,8 10.742188,9.4238281 c 0.179063,0.1796508 0.179063,0.4805068 0,0.6601559 l -0.658204,0.658204 c -0.1790636,0.179063 -0.4791391,0.179063 -0.6582028,0 L 8,9.3183594 6.5761719,10.742188 c -0.1790638,0.179063 -0.4810925,0.179063 -0.6601563,0 L 5.2578125,10.083984 c -0.1790628,-0.1790611 -0.1790628,-0.4791389 0,-0.6582028 L 6.6816406,8 5.2578125,6.5761719 c -0.1790628,-0.1790638 -0.1790628,-0.4810925 0,-0.6601563 L 5.9160156,5.2578125 c 0.089532,-0.089531 0.210164,-0.1347656 0.3300782,-0.1347656 z" />
  </g>
</svg>
