<?xml version="1.0" encoding="UTF-8" standalone="no"?>
<svg
   width="16"
   height="16"
   version="1.1"
   id="svg6"
   sodipodi:docname="audio-volume-medium-symbolic.svg"
   inkscape:version="1.2.1 (9c6d41e410, 2022-07-14)"
   xmlns:inkscape="http://www.inkscape.org/namespaces/inkscape"
   xmlns:sodipodi="http://sodipodi.sourceforge.net/DTD/sodipodi-0.dtd"
   xmlns="http://www.w3.org/2000/svg"
   xmlns:svg="http://www.w3.org/2000/svg">
  <defs
     id="defs10" />
  <sodipodi:namedview
     id="namedview8"
     pagecolor="#ffffff"
     bordercolor="#000000"
     borderopacity="0.25"
     inkscape:showpageshadow="2"
     inkscape:pageopacity="0.0"
     inkscape:pagecheckerboard="0"
     inkscape:deskcolor="#d1d1d1"
     showgrid="false"
     inkscape:zoom="32.09375"
     inkscape:cx="-3.8013632"
     inkscape:cy="8.4907498"
     inkscape:current-layer="svg6" />
  <g
     id="g1033"
     transform="translate(28.097372,0.42843246)">
    <path
       d="M -18.130061,3.6972407"
       id="path880"
       style="fill:#000000;fill-opacity:1;stroke-width:0.964811" />
    <path
       d="m -18.130061,3.6972407 c -0.214821,-0.00754 -0.43718,0.056532 -0.621851,0.1959773 -0.25251,0.1922087 -0.380648,0.4824055 -0.380648,0.7763719 v 0.056532 c 0.01131,0.1846706 0.07161,0.3618042 0.192208,0.5163245 1.036419,1.3793782 1.036419,3.2713134 0,4.646922 -0.120601,0.1582896 -0.180901,0.3354226 -0.192208,0.5163246 v 0.0603 c 0,0.293966 0.128138,0.584163 0.380648,0.776372 0.425874,0.320347 1.028881,0.233664 1.349229,-0.192209 0.776371,-1.02888 1.164557,-2.2537376 1.164557,-3.4823649 0,-1.2286272 -0.388186,-2.4534852 -1.164557,-3.4861342 -0.177134,-0.2374342 -0.448487,-0.3693423 -0.727378,-0.3844174 z"
       id="path878"
       style="fill:#444444;fill-opacity:1;stroke-width:0.964811" />
    <path
       d="m -14.828598,1.7487747 c -0.184671,-0.00377 -0.37311,0.052764 -0.538937,0.1620583 -0.440949,0.3015035 -0.557782,0.900741 -0.260048,1.3416905 1.760027,2.6117737 1.760027,6.0187638 0,8.6305365 -0.297734,0.44095 -0.180901,1.040187 0.260048,1.341691 0.440949,0.297734 1.040187,0.180901 1.341691,-0.260047 1.096719,-1.631887 1.646962,-3.5125155 1.646962,-5.3969115 0,-1.8843973 -0.550243,-3.7650255 -1.646962,-5.3969129 -0.188441,-0.2751217 -0.493712,-0.4221048 -0.802754,-0.4221049 z"
       id="path876"
       style="opacity:0.3;fill:#444444;fill-opacity:1;stroke-width:0.964811" />
    <path
       d="m -21.062182,0.82165105 c -0.286429,-0.00377 -0.557782,0.1206013 -0.742452,0.33919175 l -3.116793,3.5125156 h -0.964811 c -1.055262,0 -1.929623,0.8140594 -1.929623,1.9296228 v 1.9296224 c 0,1.0514929 0.878129,1.9296214 1.929623,1.9296214 h 0.964811 l 3.116793,3.512516 c 0.203514,0.244971 0.474867,0.350498 0.742452,0.346729 z"
       id="path2-3"
       style="fill:#444444;fill-opacity:1;stroke-width:0.964811" />
  </g>
</svg>
