<?xml version="1.0" encoding="UTF-8" standalone="no"?>
<svg
   height="16px"
   viewBox="0 0 16 16"
   width="16px"
   version="1.1"
   id="svg4"
   sodipodi:docname="audio-volume-overamplified-symbolic.svg"
   inkscape:version="1.2.1 (9c6d41e410, 2022-07-14)"
   xmlns:inkscape="http://www.inkscape.org/namespaces/inkscape"
   xmlns:sodipodi="http://sodipodi.sourceforge.net/DTD/sodipodi-0.dtd"
   xmlns="http://www.w3.org/2000/svg"
   xmlns:svg="http://www.w3.org/2000/svg">
  <defs
     id="defs8" />
  <sodipodi:namedview
     id="namedview6"
     pagecolor="#ffffff"
     bordercolor="#000000"
     borderopacity="0.25"
     inkscape:showpageshadow="2"
     inkscape:pageopacity="0.0"
     inkscape:pagecheckerboard="0"
     inkscape:deskcolor="#d1d1d1"
     showgrid="false"
     inkscape:zoom="11.346854"
     inkscape:cx="-18.242942"
     inkscape:cy="10.884074"
     inkscape:current-layer="svg4" />
  <path
     d="M 7.0319514,1.2575328 C 6.7456811,1.2537664 6.4744777,1.3780677 6.289909,1.5965376 L 3.1748363,5.107115 H 2.2105575 C 1.1558776,5.107115 0.282,5.9207252 0.282,7.0356725 V 8.96423 c 0,1.050913 0.8776441,1.928558 1.9285575,1.928558 h 0.9642788 l 3.1150727,3.510577 c 0.203402,0.244836 0.4746054,0.350304 0.7420424,0.346538 z m 6.7499516,-0.00753 c -0.531107,0 -0.964279,0.4331723 -0.964279,0.9642788 V 13.785624 c 0,0.531106 0.433172,0.964279 0.964279,0.964279 0.531106,0 0.964279,-0.433173 0.964279,-0.964279 V 2.2142787 c 0,-0.5311065 -0.433173,-0.9642788 -0.964279,-0.9642788 z M 9.924788,3.1785603 c -0.5311067,0 -0.9642791,0.4331724 -0.9642791,0.9642788 v 7.7142299 c 0,0.531107 0.4331724,0.964279 0.9642791,0.964279 0.531106,0 0.964278,-0.433172 0.964278,-0.964279 V 4.1428362 c 0,-0.5311064 -0.433172,-0.9642788 -0.964278,-0.9642788 z m 0,0"
     fill="#2e3436"
     id="path2"
     style="fill:#444444;fill-opacity:1;stroke-width:0.964279" />
</svg>
