<?xml version="1.0" encoding="UTF-8" standalone="no"?>
<svg
   height="16px"
   viewBox="0 0 16 16"
   width="16px"
   version="1.1"
   id="svg8"
   sodipodi:docname="audio-volume-muted-rtl-symbolic.svg"
   inkscape:version="1.2.1 (9c6d41e410, 2022-07-14)"
   xmlns:inkscape="http://www.inkscape.org/namespaces/inkscape"
   xmlns:sodipodi="http://sodipodi.sourceforge.net/DTD/sodipodi-0.dtd"
   xmlns="http://www.w3.org/2000/svg"
   xmlns:svg="http://www.w3.org/2000/svg">
  <defs
     id="defs12" />
  <sodipodi:namedview
     id="namedview10"
     pagecolor="#ffffff"
     bordercolor="#000000"
     borderopacity="0.25"
     inkscape:showpageshadow="2"
     inkscape:pageopacity="0.0"
     inkscape:pagecheckerboard="0"
     inkscape:deskcolor="#d1d1d1"
     showgrid="false"
     inkscape:zoom="16.046875"
     inkscape:cx="7.9143135"
     inkscape:cy="17.542356"
     inkscape:current-layer="svg8" />
  <g
     fill="#2e3436"
     id="g6"
     style="fill:#444444;fill-opacity:1"
     transform="matrix(0.96481118,0,0,0.96481118,0.28118858,0.27773506)">
    <path
       d="m 9,1.007812 c 0.296875,-0.00391 0.578125,0.125 0.769531,0.351563 L 13,5 h 1 c 1.09375,0 2,0.84375 2,2 v 2 c 0,1.089844 -0.910156,2 -2,2 H 13 L 9.769531,14.640625 C 9.558594,14.894531 9.277344,15.003906 9,15 Z m 0,0"
       id="path2"
       style="fill:#444444;fill-opacity:1" />
    <path
       d="m 6,5 c 0.265625,0 0.519531,0.105469 0.707031,0.292969 0.390625,0.390625 0.390625,1.023437 0,1.414062 L 5.414062,8 6.707031,9.292969 c 0.390625,0.390625 0.390625,1.023437 0,1.414062 -0.390625,0.390625 -1.023437,0.390625 -1.414062,0 L 4,9.414062 2.707031,10.707031 c -0.390625,0.390625 -1.023437,0.390625 -1.414062,0 -0.390625,-0.390625 -0.390625,-1.023437 0,-1.414062 L 2.585938,8 1.292969,6.707031 C 0.902344,6.316406 0.902344,5.683594 1.292969,5.292969 1.480469,5.105469 1.734375,5 2,5 2.265625,5 2.519531,5.105469 2.707031,5.292969 L 4,6.585938 5.292969,5.292969 C 5.480469,5.105469 5.734375,5 6,5 Z m 0,0"
       id="path4"
       style="fill:#444444;fill-opacity:1" />
  </g>
</svg>
