<?xml version="1.0" encoding="UTF-8" standalone="no"?>
<svg
   height="16px"
   viewBox="0 0 16 16"
   width="16px"
   version="1.1"
   id="svg4"
   sodipodi:docname="auth-sim-symbolic.svg"
   inkscape:version="1.2.1 (9c6d41e410, 2022-07-14)"
   xmlns:inkscape="http://www.inkscape.org/namespaces/inkscape"
   xmlns:sodipodi="http://sodipodi.sourceforge.net/DTD/sodipodi-0.dtd"
   xmlns="http://www.w3.org/2000/svg"
   xmlns:svg="http://www.w3.org/2000/svg">
  <defs
     id="defs8" />
  <sodipodi:namedview
     id="namedview6"
     pagecolor="#ffffff"
     bordercolor="#000000"
     borderopacity="0.25"
     inkscape:showpageshadow="2"
     inkscape:pageopacity="0.0"
     inkscape:pagecheckerboard="0"
     inkscape:deskcolor="#d1d1d1"
     showgrid="false"
     inkscape:zoom="64.1875"
     inkscape:cx="7.9922103"
     inkscape:cy="8.0155794"
     inkscape:current-layer="svg4" />
  <path
     d="m 4 0 c -2 0 -2 2 -2 2 v 12 c 0 2 2 2 2 2 h 8 s 2 0 2 -2 v -11 l -3 -3 z m 1 6 l 1 0.007812 v 2 h -2 v -1.007812 s 0 -1 1 -1 z m 6 0 c 1 0 1 1 1 1 l -0.003906 1 h -2 v -2 z m -4 0.007812 h 2 v 2 h -2 z m -3 2.996094 h 8 v 3.996094 c 0 1 -1 1 -1 1 l -1 -0.003906 v -2.996094 h -6 z m 6 2 h 2 v -0.003906 h -2 z m -6 1 h 2 v 2 l -1 -0.003906 c -1 0 -1 -1 -1 -1 z m 3 0 h 2 v 2 h -2 z m 0 0"
     fill="#2e3434"
     id="path2"
     style="fill:#444444;fill-opacity:1" />
</svg>
