<?xml version="1.0" encoding="UTF-8" standalone="no"?>
<!-- Created with Inkscape (http://www.inkscape.org/) -->

<svg
   id="svg7384"
   height="16"
   width="16"
   version="1.1"
   sodipodi:docname="battery-full-symbolic.svg"
   inkscape:version="1.2.1 (9c6d41e410, 2022-07-14)"
   xmlns:inkscape="http://www.inkscape.org/namespaces/inkscape"
   xmlns:sodipodi="http://sodipodi.sourceforge.net/DTD/sodipodi-0.dtd"
   xmlns="http://www.w3.org/2000/svg"
   xmlns:svg="http://www.w3.org/2000/svg"
   xmlns:rdf="http://www.w3.org/1999/02/22-rdf-syntax-ns#"
   xmlns:cc="http://creativecommons.org/ns#"
   xmlns:dc="http://purl.org/dc/elements/1.1/">
  <defs
     id="defs12" />
  <sodipodi:namedview
     pagecolor="#ffffff"
     bordercolor="#666666"
     borderopacity="1"
     objecttolerance="10"
     gridtolerance="10"
     guidetolerance="10"
     inkscape:pageopacity="0"
     inkscape:pageshadow="2"
     inkscape:window-width="1366"
     inkscape:window-height="708"
     id="namedview10"
     showgrid="false"
     inkscape:zoom="14.75"
     inkscape:cx="-19.050847"
     inkscape:cy="3.559322"
     inkscape:window-x="0"
     inkscape:window-y="25"
     inkscape:window-maximized="1"
     inkscape:current-layer="layer9"
     inkscape:showpageshadow="2"
     inkscape:pagecheckerboard="0"
     inkscape:deskcolor="#d1d1d1" />
  <metadata
     id="metadata90">
    <rdf:RDF>
      <cc:Work
         rdf:about="">
        <dc:format>image/svg+xml</dc:format>
        <dc:type
           rdf:resource="http://purl.org/dc/dcmitype/StillImage" />
        <dc:title>Gnome Symbolic Icon Theme</dc:title>
      </cc:Work>
    </rdf:RDF>
  </metadata>
  <title
     id="title9167">Gnome Symbolic Icon Theme</title>
  <g
     id="layer9"
     transform="rotate(90,137.0003,95.998825)">
    <g
       id="g247"
       transform="rotate(-90,137.0003,95.998822)"
       style="fill:#444444;fill-opacity:1">
      <g
         id="g143"
         transform="matrix(0,0.72727275,-0.72727275,0,168.72664,-24.728347)"
         style="fill:#444444;fill-opacity:1">
        <g
           id="g734"
           transform="matrix(1.1578947,0,0,1.1578947,13.619011,-66.451743)"
           style="fill:#444444;fill-opacity:1">
          <path
             id="path256"
             style="fill:#444444;fill-opacity:1"
             d="m 21.103038,254.75303 c 0,1.654 1.346001,3 3,3 h 6 c 1.653998,0 3,-1.346 3,-3 v -11 c 0,-1.654 -1.346002,-3 -3,-3 0,-1.104 -0.896002,-2 -2,-2 h -2 c -1.103999,0 -2,0.896 -2,2 -1.653999,0 -3,1.346 -3,3 z m 2,0 v -11 c 0,-0.551 0.448,-1 1,-1 h 6 c 0.551999,0 1,0.449 1,1 v 11 c 0,0.551 -0.448001,1 -1,1 h -6 c -0.552,0 -1,-0.449 -1,-1 z" />
          <path
             d="m 30.10317,247.75336 c 0,0.552 -0.447,1 -1,1 h -4 c -0.553,0 -1,-0.448 -1,-1 0,-0.552 0.447,-1 1,-1 h 4 c 0.553,0 1,0.448 1,1 z"
             id="path254"
             style="fill:#444444;fill-opacity:1" />
          <path
             d="m 30.10317,244.75336 c 0,0.552 -0.447,1 -1,1 h -4 c -0.553,0 -1,-0.448 -1,-1 0,-0.552 0.447,-1 1,-1 h 4 c 0.553,0 1,0.448 1,1 z"
             id="path252"
             style="fill:#444444;fill-opacity:1" />
          <path
             d="m 30.10317,253.75336 c 0,0.552 -0.447,1 -1,1 h -4 c -0.553,0 -1,-0.448 -1,-1 0,-0.552 0.447,-1 1,-1 h 4 c 0.553,0 1,0.448 1,1 z"
             id="path250"
             style="fill:#444444;fill-opacity:1" />
          <path
             d="m 30.10317,250.75336 c 0,0.552 -0.447,1 -1,1 h -4 c -0.553,0 -1,-0.448 -1,-1 0,-0.552 0.447,-1 1,-1 h 4 c 0.553,0 1,0.448 1,1 z"
             id="path239"
             style="fill:#444444;fill-opacity:1" />
        </g>
      </g>
    </g>
  </g>
</svg>
