<?xml version="1.0" encoding="UTF-8" standalone="no"?>
<svg
   width="16"
   height="16"
   version="1.1"
   id="svg4"
   sodipodi:docname="brightness-display-symbolic.svg"
   xml:space="preserve"
   inkscape:version="1.2.1 (9c6d41e410, 2022-07-14)"
   xmlns:inkscape="http://www.inkscape.org/namespaces/inkscape"
   xmlns:sodipodi="http://sodipodi.sourceforge.net/DTD/sodipodi-0.dtd"
   xmlns="http://www.w3.org/2000/svg"
   xmlns:svg="http://www.w3.org/2000/svg"><defs
     id="defs8" /><sodipodi:namedview
     id="namedview6"
     pagecolor="#ffffff"
     bordercolor="#000000"
     borderopacity="0.25"
     inkscape:showpageshadow="2"
     inkscape:pageopacity="0.0"
     inkscape:pagecheckerboard="0"
     inkscape:deskcolor="#d1d1d1"
     showgrid="false"
     inkscape:zoom="16.046875"
     inkscape:cx="-8.6621228"
     inkscape:cy="8.6309641"
     inkscape:current-layer="svg4" /><g
     id="g297"
     style="fill:#444444;fill-opacity:1"
     transform="matrix(-1,0,0,1,16,0)"><path
       id="path2"
       d="M 8,0 C 7.4453126,0 7,0.44531255 7,1 V 2 C 7,2.5546874 7.4453126,3 8,3 8.5546874,3 9,2.5546874 9,2 V 1 C 9,0.44531255 8.5546874,0 8,0 Z M 3.0078125,2.0039062 c -0.2578117,0 -0.5117184,0.1015632 -0.7070313,0.296875 -0.3945306,0.3906247 -0.3945306,1.0195309 0,1.4140626 L 3.0078125,4.421875 c 0.3906256,0.3906246 1.0195319,0.3906246 1.4140625,0 0.3906246,-0.3945306 0.3906246,-1.0234369 0,-1.4140625 L 3.7148438,2.3007812 C 3.5195309,2.1054694 3.2617192,2.0039062 3.0078125,2.0039062 Z m 9.9843755,0 c -0.253907,0 -0.511719,0.1015632 -0.707032,0.296875 l -0.707031,0.7070313 c -0.390625,0.3906256 -0.390625,1.0195319 0,1.4140625 0.394531,0.3906246 1.023437,0.3906246 1.414063,0 l 0.707031,-0.7070312 c 0.39453,-0.3945317 0.39453,-1.0234379 0,-1.4140626 -0.195313,-0.1953118 -0.44922,-0.296875 -0.707031,-0.296875 z M 8,4 C 5.7890642,4 4,5.7890642 4,8 c 0,2.210936 1.7890642,4 4,4 2.210936,0 4,-1.789064 4,-4 C 12,5.7890642 10.210936,4 8,4 Z M 8,5.0996094 V 10.900391 C 6.4263067,10.920739 5.1523437,9.617418 5.1523438,8.0097656 5.1523438,6.402112 6.4263067,5.0996094 8,5.0996094 Z M 1,7 C 0.44531255,7 0,7.4453126 0,8 0,8.5546874 0.44531255,9 1,9 H 2 C 2.5546874,9 3,8.5546874 3,8 3,7.4453126 2.5546874,7 2,7 Z m 13,0 c -0.554687,0 -1,0.4453126 -1,1 0,0.5546874 0.445313,1 1,1 h 1 C 15.554687,9 16,8.5546874 16,8 16,7.4453126 15.554687,7 15,7 Z M 3.6640625,11.285156 c -0.2382808,0.01172 -0.4726562,0.109375 -0.65625,0.292969 l -0.7070313,0.707031 c -0.3945306,0.394532 -0.3945306,1.023438 0,1.414063 0.3906247,0.39453 1.0195309,0.39453 1.4140626,0 L 4.421875,12.992188 c 0.3906246,-0.390626 0.3906246,-1.019532 0,-1.414063 C 4.2109382,11.371094 3.9375002,11.273438 3.6640625,11.285156 Z m 8.5742185,0 C 12,11.296875 11.761719,11.394531 11.578125,11.578125 c -0.390625,0.394531 -0.390625,1.023437 0,1.414063 l 0.707031,0.707031 c 0.394532,0.39453 1.023438,0.39453 1.414063,0 0.39453,-0.390625 0.39453,-1.019531 0,-1.414063 L 12.992188,11.578125 C 12.785156,11.371094 12.507812,11.273438 12.238281,11.285156 Z M 7.9492188,13 C 7.4179693,13.027344 7,13.464845 7,14 v 1 c 0,0.554687 0.4453126,1 1,1 0.5546874,0 1,-0.445313 1,-1 V 14 C 9,13.445313 8.5546874,13 8,13 Z"
       style="fill:#444444;fill-opacity:1" /></g></svg>
