<?xml version="1.0" encoding="UTF-8" standalone="no"?>
<svg
   width="16"
   height="16"
   version="1.1"
   id="svg4"
   sodipodi:docname="camera-disabled-symbolic.svg"
   xml:space="preserve"
   inkscape:version="1.2.1 (9c6d41e410, 2022-07-14)"
   xmlns:inkscape="http://www.inkscape.org/namespaces/inkscape"
   xmlns:sodipodi="http://sodipodi.sourceforge.net/DTD/sodipodi-0.dtd"
   xmlns="http://www.w3.org/2000/svg"
   xmlns:svg="http://www.w3.org/2000/svg"><defs
     id="defs8" /><sodipodi:namedview
     id="namedview6"
     pagecolor="#ffffff"
     bordercolor="#000000"
     borderopacity="0.25"
     inkscape:showpageshadow="2"
     inkscape:pageopacity="0.0"
     inkscape:pagecheckerboard="0"
     inkscape:deskcolor="#d1d1d1"
     showgrid="false"
     inkscape:zoom="22.627417"
     inkscape:cx="-5.2149125"
     inkscape:cy="3.7786019"
     inkscape:current-layer="svg4" /><g
     style="opacity:0.3;fill:#444444;fill-opacity:1"
     id="g249"
     transform="matrix(0.78999995,0,0,0.78999995,-1.4799989,-1.480068)"><path
       d="m 2.21968,2.21966 c 0.29289,-0.29289 0.76777,-0.29288 1.06066,2e-5 L 21.7801,20.7198 c 0.2929,0.2929 0.2929,0.7678 0,1.0607 -0.2929,0.2929 -0.7678,0.2929 -1.0607,0 L 19.7743,20.8353 C 19.4523,20.9422 19.1079,21 18.75,21 H 5.25 C 3.45507,21 2,19.5449 2,17.75 V 8.25 C 2,6.84663 2.88949,5.651 4.13545,5.19615 L 2.21966,3.28032 C 1.92677,2.98743 1.92678,2.51255 2.21968,2.21966 Z M 13.8224,14.8833 C 13.3172,15.2701 12.6854,15.5 12,15.5 c -1.6569,0 -3,-1.3431 -3,-3 0,-0.6855 0.22989,-1.3172 0.61678,-1.8224 L 8.54993,9.61072 C 7.89459,10.3924 7.5,11.4001 7.5,12.5 c 0,2.4853 2.01472,4.5 4.5,4.5 1.0998,0 2.1075,-0.3946 2.8892,-1.0499 z"
       fill="#212121"
       id="path237"
       style="fill:#444444;fill-opacity:1" /><path
       d="M 16.4369,13.2552 C 16.4784,13.0096 16.5,12.7573 16.5,12.5 16.5,10.0147 14.4853,8 12,8 11.7427,8 11.4904,8.0216 11.2449,8.06307 L 7.65437,4.47243 8.205,3.5757 C 8.61425,2.90921 9.34026,2.50305 10.1224,2.50305 h 3.8023 c 0.7978,0 1.536,0.42248 1.94,1.11037 L 16.6793,5 H 18.75 C 20.5449,5 22,6.45508 22,8.25 v 9.5 c 0,0.3241 -0.0474,0.6372 -0.1358,0.9326 z"
       fill="#212121"
       id="path239"
       style="fill:#444444;fill-opacity:1" /></g></svg>
