<?xml version="1.0" encoding="UTF-8" standalone="no"?>
<svg
   height="16px"
   viewBox="0 0 16 16"
   width="16px"
   version="1.1"
   id="svg8"
   sodipodi:docname="camera-switch-symbolic.svg"
   xml:space="preserve"
   inkscape:version="1.2.1 (9c6d41e410, 2022-07-14)"
   xmlns:inkscape="http://www.inkscape.org/namespaces/inkscape"
   xmlns:sodipodi="http://sodipodi.sourceforge.net/DTD/sodipodi-0.dtd"
   xmlns="http://www.w3.org/2000/svg"
   xmlns:svg="http://www.w3.org/2000/svg"><defs
     id="defs12" /><sodipodi:namedview
     id="namedview10"
     pagecolor="#ffffff"
     bordercolor="#000000"
     borderopacity="0.25"
     inkscape:showpageshadow="2"
     inkscape:pageopacity="0.0"
     inkscape:pagecheckerboard="0"
     inkscape:deskcolor="#d1d1d1"
     showgrid="false"
     inkscape:zoom="22.627417"
     inkscape:cx="3.049398"
     inkscape:cy="3.6902135"
     inkscape:current-layer="svg8" /><path
     style="opacity:0.3;fill:#444444;fill-opacity:1"
     d="M 8,8"
     id="path237" /><g
     style="fill:#444444;fill-opacity:1"
     id="g302"
     transform="matrix(0.79,0,0,0.79,-1.48,-1.4773147)"><path
       id="path293"
       style="fill:#444444;fill-opacity:1"
       d="M 10.123517 2.50293 C 9.3413778 2.50293 8.614253 2.909414 8.205004 3.5759126 L 7.3298062 4.9999632 L 5.2505934 4.9999632 C 3.4556668 4.9999632 1.9995055 6.4561346 1.9995055 8.251051 L 1.9995055 17.749667 C 1.9995055 19.544563 3.4556668 21.000754 5.2505934 21.000754 L 18.749407 21.000754 C 20.544303 21.000754 22.000494 19.544563 22.000494 17.749667 L 22.000494 8.251051 C 22.000494 6.4561346 20.544303 4.9999632 18.749407 4.9999632 L 16.680083 4.9999632 L 15.864221 3.6129972 C 15.460221 2.9250986 14.723728 2.50293 13.92593 2.50293 L 10.123517 2.50293 z M 9.8490902 8.1991325 C 10.508678 8.1997506 11.167196 8.2059358 11.206388 8.2164387 C 11.297141 8.2426278 11.39949 8.3464666 11.423952 8.4389466 C 11.437956 8.489506 11.442241 8.8949407 11.438786 9.8407465 C 11.433511 11.063992 11.43209 11.177062 11.404173 11.227712 C 11.362344 11.302733 11.291475 11.356273 11.228639 11.356273 C 11.082053 11.356273 11.052377 11.332219 10.605617 10.889006 C 10.370097 10.655214 10.171803 10.466241 10.163074 10.466241 C 10.117697 10.466241 9.849701 10.680067 9.6611946 10.866755 C 9.415127 11.111095 9.2308344 11.368508 9.0999802 11.65295 C 8.7352435 12.432982 8.744235 13.32313 9.1247033 14.085703 C 9.5609143 14.961762 10.38446 15.537848 11.354727 15.640786 C 11.417563 15.647788 11.489238 15.665685 11.515427 15.677871 C 11.616637 15.730158 11.616792 15.734635 11.616792 16.286059 C 11.616792 16.757188 11.615371 16.794895 11.58218 16.847273 C 11.529892 16.934479 11.492475 16.945989 11.312698 16.933804 C 10.584952 16.877971 9.960903 16.666589 9.3571005 16.268753 C 8.4898618 15.696413 7.8600364 14.766816 7.631428 13.719801 C 7.4883886 13.058347 7.5229565 12.284822 7.7253758 11.635644 C 7.9505287 10.90626 8.3842469 10.242061 8.9565862 9.7517433 C 9.0526127 9.6697207 9.156122 9.5847626 9.1840388 9.5638477 L 9.2359573 9.5242908 L 8.7810522 9.0669134 C 8.3063762 8.5870541 8.2841179 8.5600648 8.2841179 8.4117512 C 8.2841179 8.3227267 8.365706 8.2436109 8.484375 8.2139664 C 8.5288418 8.2034635 9.1895024 8.1985145 9.8490902 8.1991325 z M 12.477156 8.4166958 C 12.525988 8.3817771 12.596683 8.3834139 12.87767 8.4166958 C 13.530305 8.4934443 14.092219 8.6972317 14.645372 9.0619688 C 14.846064 9.1945508 15.156926 9.4527041 15.310423 9.6132939 C 15.922956 10.258927 16.302236 11.046218 16.427907 11.939738 C 16.466282 12.220724 16.466282 12.741623 16.427907 13.02261 C 16.307601 13.888121 15.942911 14.65323 15.342563 15.297135 C 15.230896 15.417532 14.94303 15.677849 14.820906 15.766874 L 14.766515 15.803958 L 15.223892 16.263808 C 15.698569 16.743668 15.718354 16.768184 15.718354 16.916498 C 15.718354 16.979334 15.667287 17.052584 15.592267 17.094504 C 15.541707 17.122421 15.426075 17.123933 14.202828 17.129117 C 13.253566 17.132572 12.853407 17.125814 12.801028 17.111811 C 12.705093 17.087349 12.602982 16.987711 12.578521 16.891775 C 12.564517 16.841216 12.56014 16.433309 12.563687 15.487503 C 12.568961 14.264256 12.570382 14.151096 12.598299 14.100537 C 12.640129 14.023697 12.711742 13.974449 12.776305 13.974449 C 12.926347 13.974449 12.949857 13.993228 13.4018 14.441716 C 13.893936 14.930305 13.820107 14.896419 14.034711 14.735921 C 14.216216 14.601611 14.468288 14.352755 14.60087 14.174706 C 14.974337 13.677387 15.16292 13.119742 15.164557 12.49848 C 15.166285 12.016892 15.073908 11.630147 14.850574 11.195572 C 14.719719 10.937319 14.572535 10.733838 14.356112 10.515687 C 13.898985 10.051559 13.329741 9.7689177 12.712025 9.6973525 C 12.523519 9.6747099 12.465669 9.6552769 12.420293 9.5959878 C 12.387102 9.5557948 12.38568 9.5242838 12.38568 9.0496072 C 12.38568 8.5086396 12.391678 8.4759849 12.477156 8.4166958 z " /></g><g
     transform="matrix(7.1838094e-4,0,0,-7.1838094e-4,4.408118,8.6138138)"
     id="g241" /></svg>
