<?xml version="1.0" encoding="UTF-8" standalone="no"?>
<svg
   width="16"
   height="16"
   version="1.1"
   id="svg6"
   sodipodi:docname="channel-insecure-symbolic.svg"
   xml:space="preserve"
   inkscape:version="1.2.1 (9c6d41e410, 2022-07-14)"
   xmlns:inkscape="http://www.inkscape.org/namespaces/inkscape"
   xmlns:sodipodi="http://sodipodi.sourceforge.net/DTD/sodipodi-0.dtd"
   xmlns="http://www.w3.org/2000/svg"
   xmlns:svg="http://www.w3.org/2000/svg"><defs
     id="defs10" /><sodipodi:namedview
     id="namedview8"
     pagecolor="#ffffff"
     bordercolor="#000000"
     borderopacity="0.25"
     inkscape:showpageshadow="2"
     inkscape:pageopacity="0.0"
     inkscape:pagecheckerboard="0"
     inkscape:deskcolor="#d1d1d1"
     showgrid="false"
     inkscape:zoom="45.387417"
     inkscape:cx="2.9082951"
     inkscape:cy="10.256147"
     inkscape:current-layer="svg6" /><path
     id="path239"
     style="fill:#444444;stroke-width:0.928571"
     d="M 8 1.5 C 5.9422871 1.5 4.2851562 3.1571314 4.2851562 5.2148438 L 4.2851562 7.0722656 L 3.3574219 7.0722656 C 2.8429944 7.0722656 2.4277344 7.4855719 2.4277344 8 L 2.4277344 13.572266 C 2.4277344 14.086694 2.8429944 14.5 3.3574219 14.5 L 10.632812 14.5 L 10.632812 4.9492188 L 11.703125 4.9492188 C 11.56755 3.0166653 9.968205 1.5 8 1.5 z M 8 3.3574219 C 9.0288559 3.3574219 9.8574219 4.1859876 9.8574219 5.2148438 L 9.8574219 7.0722656 L 6.1425781 7.0722656 L 6.1425781 5.2148438 C 6.1425781 4.1859876 6.971144 3.3574219 8 3.3574219 z " /><g
     id="g311"
     transform="translate(5.0065732,1.9868549)"
     style="fill:#f44336;fill-opacity:1"><path
       style="fill:#f44336;fill-opacity:1"
       d="M 8,11"
       id="path293" /><path
       style="fill:#f44336;fill-opacity:1"
       d="m 8,11 c 0.550781,0 1,0.449219 1,1 0,0.550781 -0.449219,1 -1,1 -0.550781,0 -1,-0.449219 -1,-1 0,-0.550781 0.449219,-1 1,-1 z"
       id="path291" /><path
       style="fill:#f44336;fill-opacity:1"
       d="M 9,4 V 9 C 9.007812,9.527344 8.527344,10 8,10 7.472656,10 6.992188,9.527344 7,9 V 4 Z"
       id="path289" /></g></svg>
