<?xml version="1.0" encoding="UTF-8" standalone="no"?>
<svg
   height="16px"
   viewBox="0 0 16 16"
   width="16px"
   version="1.1"
   id="svg8"
   sodipodi:docname="daytime-sunrise-symbolic.svg"
   inkscape:version="1.2.1 (9c6d41e410, 2022-07-14)"
   xmlns:inkscape="http://www.inkscape.org/namespaces/inkscape"
   xmlns:sodipodi="http://sodipodi.sourceforge.net/DTD/sodipodi-0.dtd"
   xmlns="http://www.w3.org/2000/svg"
   xmlns:svg="http://www.w3.org/2000/svg">
  <defs
     id="defs12" />
  <sodipodi:namedview
     id="namedview10"
     pagecolor="#ffffff"
     bordercolor="#000000"
     borderopacity="0.25"
     inkscape:showpageshadow="2"
     inkscape:pageopacity="0.0"
     inkscape:pagecheckerboard="0"
     inkscape:deskcolor="#d1d1d1"
     showgrid="false"
     inkscape:zoom="32.09375"
     inkscape:cx="-3.8013632"
     inkscape:cy="5.842259"
     inkscape:current-layer="svg8" />
  <g
     fill="#2e3436"
     id="g6"
     style="fill:#444444;fill-opacity:1">
    <path
       d="m 2.984375 7.84375 c -0.128906 0 -0.253906 0.046875 -0.355469 0.144531 l -0.707031 0.710938 c -0.195313 0.195312 -0.195313 0.507812 0 0.707031 l 1.417969 1.414062 c 0.195312 0.195313 0.507812 0.195313 0.703125 0 l 0.710937 -0.707031 c 0.195313 -0.199219 0.195313 -0.511719 0 -0.707031 l -1.417968 -1.417969 c -0.097657 -0.097656 -0.222657 -0.148437 -0.351563 -0.144531 z m 9.898437 0 c -0.125 -0.003906 -0.253906 0.046875 -0.351562 0.144531 l -1.414062 1.417969 c -0.195313 0.195312 -0.195313 0.507812 0 0.707031 l 0.707031 0.707031 c 0.195312 0.195313 0.511719 0.195313 0.707031 0 l 1.414062 -1.414062 c 0.195313 -0.199219 0.195313 -0.511719 0 -0.707031 l -0.707031 -0.710938 c -0.097656 -0.097656 -0.226562 -0.144531 -0.355469 -0.144531 z m -4.949218 2.15625 c -2.195313 0 -4 1.800781 -4 4 c 0.003906 0.550781 0.449218 1 1 1 h 6 c 0.554687 0 1 -0.449219 1 -1 c 0 -2.199219 -1.800782 -4 -4 -4 z m -7.5 3 c -0.273438 0 -0.5000002 0.222656 -0.5000002 0.5 v 1 c 0 0.277344 0.2265622 0.5 0.5000002 0.5 h 2 c 0.277344 0 0.5 -0.222656 0.5 -0.5 v -1 c 0 -0.277344 -0.222656 -0.5 -0.5 -0.5 z m 13 0 c -0.273438 0 -0.5 0.222656 -0.5 0.5 v 1 c 0 0.277344 0.226562 0.5 0.5 0.5 h 2 c 0.277344 0 0.5 -0.222656 0.5 -0.5 v -1 c 0 -0.277344 -0.222656 -0.5 -0.5 -0.5 z m 0 0"
       id="path2"
       style="fill:#444444;fill-opacity:1" />
    <path
       d="m 8 9 c -0.550781 0 -1 -0.449219 -1 -1 v -3 h -2 v -1 h 0.007812 c -0.003906 -0.265625 0.101563 -0.519531 0.285157 -0.707031 l 2 -2 c 0.390625 -0.390625 1.023437 -0.390625 1.414062 0 l 2 2 c 0.183594 0.1875 0.289063 0.441406 0.289063 0.707031 h 0.003906 v 1 h -2 v 3 c 0 0.550781 -0.449219 1 -1 1 z m 0 0"
       id="path4"
       style="fill:#444444;fill-opacity:1" />
  </g>
</svg>
