<?xml version="1.0" encoding="UTF-8" standalone="no"?>
<svg
   width="16"
   height="16"
   version="1.1"
   id="svg4"
   sodipodi:docname="dialog-information-symbolic.svg"
   xml:space="preserve"
   inkscape:version="1.2.1 (9c6d41e410, 2022-07-14)"
   xmlns:inkscape="http://www.inkscape.org/namespaces/inkscape"
   xmlns:sodipodi="http://sodipodi.sourceforge.net/DTD/sodipodi-0.dtd"
   xmlns="http://www.w3.org/2000/svg"
   xmlns:svg="http://www.w3.org/2000/svg"><defs
     id="defs8" /><sodipodi:namedview
     id="namedview6"
     pagecolor="#ffffff"
     bordercolor="#000000"
     borderopacity="0.25"
     inkscape:showpageshadow="2"
     inkscape:pageopacity="0.0"
     inkscape:pagecheckerboard="0"
     inkscape:deskcolor="#d1d1d1"
     showgrid="false"
     inkscape:zoom="32.09375"
     inkscape:cx="4.6426485"
     inkscape:cy="6.3719572"
     inkscape:current-layer="svg4" /><path
     id="path2"
     style="fill:#444444;fill-opacity:1"
     class="warning"
     d="M 8,15 C 4.1300078,15 1,11.869992 1,8 1,4.140008 4.1300078,1 8,1 c 3.869992,0 7,3.140008 7,7 0,3.869992 -3.130008,7 -7,7 z M 7,12.5 h 2 v -5 c 0.00781,-0.527343 -0.472657,-1 -1,-1 -0.527343,0 -1.007812,0.472657 -1,1 z m 1,-7 c 0.5507804,0 1,-0.44922 1,-1 0,-0.55078 -0.4492196,-1 -1,-1 -0.5507804,0 -1,0.44922 -1,1 0,0.55078 0.4492196,1 1,1 z" /><g
     id="g246"
     transform="translate(0,-0.5)"><path
       style="fill:#444444;fill-opacity:1"
       d="M 8,11"
       id="path293" /></g></svg>
