<?xml version="1.0" encoding="UTF-8" standalone="no"?>
<svg
   width="16"
   height="16"
   version="1.1"
   id="svg4"
   sodipodi:docname="display-brightness-high-symbolic.svg"
   inkscape:version="1.2.1 (9c6d41e410, 2022-07-14)"
   xmlns:inkscape="http://www.inkscape.org/namespaces/inkscape"
   xmlns:sodipodi="http://sodipodi.sourceforge.net/DTD/sodipodi-0.dtd"
   xmlns="http://www.w3.org/2000/svg"
   xmlns:svg="http://www.w3.org/2000/svg">
  <defs
     id="defs8" />
  <sodipodi:namedview
     id="namedview6"
     pagecolor="#ffffff"
     bordercolor="#000000"
     borderopacity="0.25"
     inkscape:showpageshadow="2"
     inkscape:pageopacity="0.0"
     inkscape:pagecheckerboard="0"
     inkscape:deskcolor="#d1d1d1"
     showgrid="false"
     inkscape:zoom="22.693708"
     inkscape:cx="-12.646677"
     inkscape:cy="4.3404101"
     inkscape:current-layer="svg4" />
  <path
     d="m 8,-1e-7 c -0.554688,0 -1,0.445312 -1,1 v 1 c 0,0.554688 0.445312,1 1,1 0.554688,0 1,-0.445312 1,-1 v -1 C 9,0.4453119 8.554688,-9.9999999e-8 8,-1e-7 Z m -4.992188,2.003906 c -0.257812,0 -0.511718,0.101563 -0.707031,0.296875 -0.394531,0.390625 -0.394531,1.019531 0,1.414063 l 0.707031,0.707031 c 0.390626,0.390625 1.019532,0.390625 1.414063,0 0.390625,-0.394531 0.390625,-1.023437 0,-1.414063 L 3.714844,2.3007809 C 3.519531,2.1054689 3.261719,2.0039059 3.007812,2.0039059 Z m 9.984376,0 c -0.253907,0 -0.511719,0.101563 -0.707032,0.296875 l -0.707031,0.707031 c -0.390625,0.390626 -0.390625,1.019532 0,1.414063 0.394531,0.390625 1.023437,0.390625 1.414063,0 l 0.707031,-0.707031 c 0.394531,-0.394532 0.394531,-1.023438 0,-1.414063 C 13.503906,2.1054689 13.25,2.0039059 12.992188,2.0039059 Z M 8,3.9999999 c -2.210938,0 -4,1.7890622 -4,4.0000002 C 4,10.210938 5.789062,12 8,12 10.210938,12 12,10.210938 12,8.0000001 12,5.7890621 10.210938,3.9999999 8,3.9999999 Z M 1,7.0000001 c -0.554688,0 -1,0.445312 -1,1 0,0.554688 0.445312,1 1,1 h 1 c 0.554688,0 1,-0.445312 1,-1 0,-0.554688 -0.445312,-1 -1,-1 z m 13,0 c -0.554688,0 -1,0.445312 -1,1 0,0.554688 0.445312,1 1,1 h 1 c 0.554688,0 1,-0.445312 1,-1 0,-0.554688 -0.445312,-1 -1,-1 z M 3.664062,11.285156 c -0.238281,0.01172 -0.472656,0.109375 -0.65625,0.292969 l -0.707031,0.707031 c -0.394531,0.394532 -0.394531,1.023438 0,1.414063 0.390625,0.394531 1.019531,0.394531 1.414063,0 l 0.707031,-0.707031 c 0.390625,-0.390626 0.390625,-1.019532 0,-1.414063 C 4.210938,11.371094 3.9375,11.273438 3.664062,11.285156 Z m 8.574219,0 C 12,11.296876 11.761719,11.394531 11.578125,11.578125 c -0.390625,0.394531 -0.390625,1.023437 0,1.414063 l 0.707031,0.707031 c 0.394532,0.394531 1.023438,0.394531 1.414063,0 0.394531,-0.390625 0.394531,-1.019531 0,-1.414063 L 12.992188,11.578125 C 12.785156,11.371094 12.507812,11.273438 12.238281,11.285156 Z M 7.949219,13 C 7.417969,13.02734 7,13.464844 7,14 v 1 c 0,0.554688 0.445312,1 1,1 0.554688,0 1,-0.445312 1,-1 V 14 C 9,13.445312 8.554688,13 8,13 7.98437,13 7.96484,13 7.94922,13 Z m 0,0"
     fill="#2e3436"
     id="path133"
     style="fill:#444444;fill-opacity:1" />
</svg>
