<?xml version="1.0" encoding="UTF-8" standalone="no"?>
<svg
   height="16px"
   viewBox="0 0 16 16"
   width="16px"
   version="1.1"
   id="svg4"
   sodipodi:docname="media-playlist-consecutive-rtl-symbolic.svg"
   inkscape:version="1.2.1 (9c6d41e410, 2022-07-14)"
   xmlns:inkscape="http://www.inkscape.org/namespaces/inkscape"
   xmlns:sodipodi="http://sodipodi.sourceforge.net/DTD/sodipodi-0.dtd"
   xmlns="http://www.w3.org/2000/svg"
   xmlns:svg="http://www.w3.org/2000/svg">
  <defs
     id="defs8" />
  <sodipodi:namedview
     id="namedview6"
     pagecolor="#ffffff"
     bordercolor="#000000"
     borderopacity="0.25"
     inkscape:showpageshadow="2"
     inkscape:pageopacity="0.0"
     inkscape:pagecheckerboard="0"
     inkscape:deskcolor="#d1d1d1"
     showgrid="false"
     inkscape:zoom="64.1875"
     inkscape:cx="7.9922103"
     inkscape:cy="8.0155794"
     inkscape:current-layer="svg4" />
  <path
     d="M 3.9999998,1 V 3 H 16 V 5 H 3.9999998 v 2 h -1 V 6.992188 C 2.7343748,6.996094 2.4804688,6.890625 2.2929688,6.707031 l -2.00000005,-2 c -0.390625,-0.390625 -0.390625,-1.023437 0,-1.414062 l 2.00000005,-2 c 0.1875,-0.183594 0.441406,-0.289063 0.707031,-0.285157 V 1 Z m 0,8 v 2 H 16 v 2 H 3.9999998 v 2 h -1 v -0.0078 c -0.265625,0.0039 -0.519531,-0.101563 -0.707031,-0.285157 l -2.00000005,-2 c -0.390625,-0.390625 -0.390625,-1.023437 0,-1.414062 l 2.00000005,-2 c 0.1875,-0.183594 0.441406,-0.289063 0.707031,-0.285157 V 9 Z m 0,0"
     fill="#2e3436"
     id="path2"
     style="fill:#444444;fill-opacity:1" />
</svg>
