<?xml version="1.0" encoding="UTF-8" standalone="no"?>
<svg
   height="16px"
   viewBox="0 0 16 16"
   width="16px"
   version="1.1"
   id="svg4"
   sodipodi:docname="media-playlist-repeat-song-symbolic-rtl.svg"
   inkscape:version="1.2.1 (9c6d41e410, 2022-07-14)"
   xmlns:inkscape="http://www.inkscape.org/namespaces/inkscape"
   xmlns:sodipodi="http://sodipodi.sourceforge.net/DTD/sodipodi-0.dtd"
   xmlns="http://www.w3.org/2000/svg"
   xmlns:svg="http://www.w3.org/2000/svg">
  <defs
     id="defs8" />
  <sodipodi:namedview
     id="namedview6"
     pagecolor="#ffffff"
     bordercolor="#000000"
     borderopacity="0.25"
     inkscape:showpageshadow="2"
     inkscape:pageopacity="0.0"
     inkscape:pagecheckerboard="0"
     inkscape:deskcolor="#d1d1d1"
     showgrid="false"
     inkscape:zoom="64.1875"
     inkscape:cx="7.9922103"
     inkscape:cy="8.0155794"
     inkscape:current-layer="svg4" />
  <path
     d="m 9,1 v 2 h 3 c 2.199219,0 4,1.800781 4,4 v 2 c 0,1.019531 -0.386719,1.964844 -1.019531,2.671875 -0.367188,0.410156 -1,0.445313 -1.410157,0.07813 -0.414062,-0.367188 -0.449218,-1 -0.07812,-1.414062 C 13.808594,9.984375 14,9.523438 14,9 V 7 C 14,5.875 13.125,5 12,5 H 9 V 7 H 8 V 6.992188 C 7.734375,6.996094 7.480469,6.890625 7.292969,6.707031 l -2,-2 C 5.085938,4.5 4.980469,4.210938 5.003906,3.917969 c 0,-0.015625 0.00391,-0.03125 0.00781,-0.046875 C 5.019531,3.800781 5.035156,3.734375 5.058594,3.667969 5.070312,3.632812 5.082031,3.597656 5.101562,3.566406 c 0,-0.00781 0.00391,-0.011718 0.00781,-0.019531 C 5.121094,3.523438 5.136719,3.5 5.148438,3.476562 5.15625,3.464844 5.167969,3.449219 5.175781,3.4375 5.191406,3.417969 5.203125,3.394531 5.21875,3.375 5.226562,3.367188 5.234375,3.359375 5.242188,3.351562 5.257812,3.332031 5.273438,3.3125 5.292969,3.292969 l 2,-2 C 7.480469,1.109375 7.734375,1.003906 8,1.007812 V 1 Z M 2,2 C 3.105469,2 4,2.894531 4,4 4,5.105469 3.105469,6 2,6 0.894531,6 0,5.105469 0,4 0,2.894531 0.894531,2 2,2 Z M 1,7 c 0.550781,0 1,0.449219 1,1 v 1.007812 c 0,1.125 0.875,2 2,2 H 8 V 9 h 1 v 0.00781 c 0.265625,-0.00391 0.519531,0.101563 0.707031,0.285157 l 2,2 c 0.390625,0.390625 0.390625,1.023437 0,1.414062 l -2,2 C 9.519531,14.890625 9.265625,14.996094 9,14.992188 V 15 H 8 V 13.007812 H 4 c -2.199219,0 -4,-1.804687 -4,-4 V 8 C 0,7.449219 0.449219,7 1,7 Z m 0,0"
     fill="#2e3436"
     id="path2"
     style="fill:#444444;fill-opacity:1" />
</svg>
