<?xml version="1.0" encoding="UTF-8" standalone="no"?>
<svg
   height="16px"
   viewBox="0 0 16 16"
   width="16px"
   version="1.1"
   id="svg4"
   sodipodi:docname="media-playlist-repeat-rtl-symbolic.svg"
   inkscape:version="1.2.1 (9c6d41e410, 2022-07-14)"
   xmlns:inkscape="http://www.inkscape.org/namespaces/inkscape"
   xmlns:sodipodi="http://sodipodi.sourceforge.net/DTD/sodipodi-0.dtd"
   xmlns="http://www.w3.org/2000/svg"
   xmlns:svg="http://www.w3.org/2000/svg">
  <defs
     id="defs8" />
  <sodipodi:namedview
     id="namedview6"
     pagecolor="#ffffff"
     bordercolor="#000000"
     borderopacity="0.25"
     inkscape:showpageshadow="2"
     inkscape:pageopacity="0.0"
     inkscape:pagecheckerboard="0"
     inkscape:deskcolor="#d1d1d1"
     showgrid="false"
     inkscape:zoom="64.1875"
     inkscape:cx="7.9922103"
     inkscape:cy="8.0467381"
     inkscape:current-layer="svg4" />
  <path
     d="m 8,1 v 2 h 4 c 2.199219,0 4,1.800781 4,4 v 2 c 0,1.019531 -0.386719,1.964844 -1.019531,2.671875 -0.367188,0.410156 -1,0.445313 -1.410157,0.07813 -0.414062,-0.367188 -0.449218,-1 -0.07812,-1.414062 C 13.808594,9.984375 14,9.523438 14,9 V 7 C 14,5.875 13.125,5 12,5 H 8 V 7 H 7 V 6.992188 C 6.734375,6.996094 6.480469,6.890625 6.292969,6.707031 l -2,-2 c -0.390625,-0.390625 -0.390625,-1.023437 0,-1.414062 l 2,-2 C 6.480469,1.109375 6.734375,1.003906 7,1.007812 V 1 Z M 1.710938,4 c 0.265624,-0.011719 0.523437,0.078125 0.71875,0.257812 0.414062,0.367188 0.449218,1 0.078124,1.410157 C 2.191406,6.023438 2,6.484375 2,7.007812 v 2 c 0,1.125 0.875,2 2,2 H 8 V 9 h 1 v 0.00781 c 0.265625,-0.00391 0.519531,0.101563 0.707031,0.285157 l 2,2 c 0.390625,0.390625 0.390625,1.023437 0,1.414062 l -2,2 C 9.519531,14.890625 9.265625,14.996094 9,14.992188 V 15 H 8 V 13.007812 H 4 c -2.199219,0 -4,-1.804687 -4,-4 v -2 C 0,5.984375 0.386719,5.039062 1.019531,4.332031 1.195312,4.132812 1.445312,4.015625 1.710938,4 Z m 0,0"
     fill="#2e3436"
     id="path2"
     style="fill:#444444;fill-opacity:1" />
</svg>
