<?xml version="1.0" encoding="UTF-8" standalone="no"?>
<svg
   height="16px"
   viewBox="0 0 16 16"
   width="16px"
   version="1.1"
   id="svg4"
   sodipodi:docname="media-playlist-shuffle-rtl-symbolic.svg"
   inkscape:version="1.2.1 (9c6d41e410, 2022-07-14)"
   xmlns:inkscape="http://www.inkscape.org/namespaces/inkscape"
   xmlns:sodipodi="http://sodipodi.sourceforge.net/DTD/sodipodi-0.dtd"
   xmlns="http://www.w3.org/2000/svg"
   xmlns:svg="http://www.w3.org/2000/svg">
  <defs
     id="defs8" />
  <sodipodi:namedview
     id="namedview6"
     pagecolor="#ffffff"
     bordercolor="#000000"
     borderopacity="0.25"
     inkscape:showpageshadow="2"
     inkscape:pageopacity="0.0"
     inkscape:pagecheckerboard="0"
     inkscape:deskcolor="#d1d1d1"
     showgrid="false"
     inkscape:zoom="64.1875"
     inkscape:cx="7.9922103"
     inkscape:cy="8.0155794"
     inkscape:current-layer="svg4" />
  <path
     d="m 3.9999998,1 v 2 h 3 c 0.859375,0 1.59375,0.480469 2.011719,1.007812 0.4179689,0.523438 0.648437,1.074219 0.882812,1.542969 l 0.105469,0.210938 0.1054692,-0.210938 c 0.191406,-0.382812 0.386719,-0.816406 0.671875,-1.25 C 11.191406,3.667969 11.984375,3 13,3 h 3 v 2 h -3 c -0.296875,0 -0.316406,0.039062 -0.550781,0.398438 -0.164063,0.246093 -0.34375,0.625 -0.554688,1.050781 L 11.117188,8 11.894531,9.550781 c 0.261719,0.523438 0.476563,0.96875 0.65625,1.199219 C 12.734375,10.976562 12.75,11 13,11 h 3 v 2 h -3 c -0.859375,0 -1.59375,-0.480469 -2.011719,-1.007812 -0.417969,-0.523438 -0.648437,-1.074219 -0.882812,-1.542969 l -0.1054692,-0.210938 -0.105469,0.210938 c -0.164062,0.328125 -0.335937,0.703125 -0.5625,1.078125 C 8.9179688,12.214844 8.1093748,13 6.9999998,13 h -3 v 2 h -1 v -0.0078 c -0.265625,0.0039 -0.519531,-0.101563 -0.707031,-0.285157 l -2.00000005,-2 c -0.390625,-0.390625 -0.390625,-1.023437 0,-1.414062 l 2.00000005,-2 c 0.1875,-0.183594 0.441406,-0.289063 0.707031,-0.285157 V 9 h 1 v 2 h 3 c 0.3242189,0 0.3515619,-0.05859 0.617188,-0.503906 0.148437,-0.242188 0.304687,-0.574219 0.488281,-0.945313 L 8.8828118,8 8.1054688,6.449219 C 7.8437498,5.925781 7.6289058,5.480469 7.4492187,5.25 7.2656248,5.023438 7.2499998,5 6.9999998,5 h -3 v 2 h -1 V 6.992188 C 2.7343748,6.996094 2.4804688,6.890625 2.2929688,6.707031 l -2.00000005,-2 c -0.390625,-0.390625 -0.390625,-1.023437 0,-1.414062 l 2.00000005,-2 c 0.1875,-0.183594 0.441406,-0.289063 0.707031,-0.285157 V 1 Z m 0,0"
     fill="#2e3436"
     id="path2"
     style="fill:#444444;fill-opacity:1" />
</svg>
