<?xml version="1.0" encoding="UTF-8" standalone="no"?>
<svg
   height="16px"
   viewBox="0 0 16 16"
   width="16px"
   version="1.1"
   id="svg8"
   sodipodi:docname="microphone-sensitivity-muted-symbolic.svg"
   inkscape:version="1.2.1 (9c6d41e410, 2022-07-14)"
   xmlns:inkscape="http://www.inkscape.org/namespaces/inkscape"
   xmlns:sodipodi="http://sodipodi.sourceforge.net/DTD/sodipodi-0.dtd"
   xmlns="http://www.w3.org/2000/svg"
   xmlns:svg="http://www.w3.org/2000/svg">
  <defs
     id="defs12" />
  <sodipodi:namedview
     id="namedview10"
     pagecolor="#ffffff"
     bordercolor="#000000"
     borderopacity="0.25"
     inkscape:showpageshadow="2"
     inkscape:pageopacity="0.0"
     inkscape:pagecheckerboard="0"
     inkscape:deskcolor="#d1d1d1"
     showgrid="false"
     inkscape:zoom="22.693708"
     inkscape:cx="3.7014665"
     inkscape:cy="10.333261"
     inkscape:current-layer="svg8" />
  <path
     d="M 8,0 C 6.339844,0 5,1.339844 5,3 v 5 c 0,1.660156 1.339844,3 3,3 0.359375,0 0.699219,-0.06641 1.015625,-0.179688 C 9.054688,10.367188 9.246094,9.925781 9.585938,9.585938 9.917969,9.253906 10.355469,9.050781 10.820312,9.011719 10.933594,8.695312 11,8.355469 11,8 V 3 C 11,1.339844 9.660156,0 8,0 Z M 8,2 C 8.554688,2 9,2.445312 9,3 V 8 C 9,8.554688 8.554688,9 8,9 7.445312,9 7,8.554688 7,8 V 3 C 7,2.445312 7.445312,2 8,2 Z M 2,6 v 2.011719 c 0,2.964843 2.164062,5.421875 5,5.898437 V 16 h 2 v -2.089844 c 0.128906,-0.02344 0.253906,-0.04687 0.382812,-0.07813 0.058594,-0.08594 0.125,-0.167969 0.203126,-0.246093 L 10,13.171875 v -0.34375 L 9.585938,12.414062 C 9.535156,12.363281 9.484375,12.308594 9.441406,12.25 8.992188,12.40625 8.507812,12.5 8,12.5 5.492188,12.5 3.5,10.511719 3.5,8.011719 V 6 Z m 10.5,0 v 2.011719 c 0,0.503906 -0.08984,0.980469 -0.246094,1.429687 0.05469,0.042969 0.109375,0.09375 0.160156,0.144532 L 12.828125,10 h 0.34375 L 13.585938,9.585938 C 13.664062,9.507812 13.746094,9.441406 13.832031,9.375 13.941406,8.9375 14,8.480469 14,8.011719 V 6 Z m 0,0"
     fill-opacity="0.34902"
     id="path2"
     style="fill:#444444;fill-opacity:1;opacity:0.3" />
  <path
     d="m 11,10 c -0.265625,0 -0.519531,0.105469 -0.707031,0.292969 -0.390625,0.390625 -0.390625,1.023437 0,1.414062 L 11.585938,13 10.292969,14.292969 c -0.390625,0.390625 -0.390625,1.023437 0,1.414062 0.390625,0.390625 1.023437,0.390625 1.414062,0 L 13,14.414062 l 1.292969,1.292969 c 0.390625,0.390625 1.023437,0.390625 1.414062,0 0.390625,-0.390625 0.390625,-1.023437 0,-1.414062 L 14.414062,13 15.707031,11.707031 c 0.390625,-0.390625 0.390625,-1.023437 0,-1.414062 C 15.519531,10.105469 15.265625,10 15,10 c -0.265625,0 -0.519531,0.105469 -0.707031,0.292969 L 13,11.585938 11.707031,10.292969 C 11.519531,10.105469 11.265625,10 11,10 Z m 0,0"
     id="path4"
     style="fill:#444444;fill-opacity:1" />
</svg>
