<?xml version="1.0" encoding="UTF-8" standalone="no"?>
<svg
   height="16px"
   viewBox="0 0 16 16"
   width="16px"
   version="1.1"
   id="svg8"
   sodipodi:docname="microphone-sensitivity-medium-symbolic.svg"
   inkscape:version="1.2.1 (9c6d41e410, 2022-07-14)"
   xmlns:inkscape="http://www.inkscape.org/namespaces/inkscape"
   xmlns:sodipodi="http://sodipodi.sourceforge.net/DTD/sodipodi-0.dtd"
   xmlns="http://www.w3.org/2000/svg"
   xmlns:svg="http://www.w3.org/2000/svg">
  <defs
     id="defs12" />
  <sodipodi:namedview
     id="namedview10"
     pagecolor="#ffffff"
     bordercolor="#000000"
     borderopacity="0.25"
     inkscape:showpageshadow="2"
     inkscape:pageopacity="0.0"
     inkscape:pagecheckerboard="0"
     inkscape:deskcolor="#d1d1d1"
     showgrid="false"
     inkscape:zoom="22.693708"
     inkscape:cx="0.61691108"
     inkscape:cy="9.0553733"
     inkscape:current-layer="svg8" />
  <g
     id="g853">
    <path
       d="m 5,5 v 3 c 0,1.660156 1.339844,3 3,3 1.660156,0 3,-1.339844 3,-3 V 5 Z M 2,6 v 2.011719 c 0,2.964843 2.164062,5.429687 5,5.90625 V 16 h 2 v -2.082031 c 2.835938,-0.476563 5,-2.941407 5,-5.90625 V 6 H 12.5 V 8.011719 C 12.5,10.511719 10.507812,12.5 8,12.5 5.492188,12.5 3.5,10.511719 3.5,8.011719 V 6 Z m 0,0"
       id="path2"
       style="fill:#444444;fill-opacity:1" />
    <path
       d="M 8,0 C 6.339844,0 5,1.339844 5,3 V 5 H 7 V 3 C 7,2.445312 7.445312,2 8,2 8.554688,2 9,2.445312 9,3 v 2 h 2 V 3 C 11,1.339844 9.660156,0 8,0 Z m 0,0"
       fill-opacity="0.34902"
       id="path4"
       style="fill:#444444;fill-opacity:1;opacity:0.3" />
  </g>
</svg>
