<?xml version="1.0" encoding="UTF-8" standalone="no"?>
<svg
   height="16px"
   viewBox="0 0 16 16"
   width="16px"
   version="1.1"
   id="svg8"
   sodipodi:docname="network-cellular-signal-good-symbolic.svg"
   inkscape:version="1.2.1 (9c6d41e410, 2022-07-14)"
   xmlns:inkscape="http://www.inkscape.org/namespaces/inkscape"
   xmlns:sodipodi="http://sodipodi.sourceforge.net/DTD/sodipodi-0.dtd"
   xmlns="http://www.w3.org/2000/svg"
   xmlns:svg="http://www.w3.org/2000/svg">
  <defs
     id="defs12" />
  <sodipodi:namedview
     id="namedview10"
     pagecolor="#ffffff"
     bordercolor="#000000"
     borderopacity="0.25"
     inkscape:showpageshadow="2"
     inkscape:pageopacity="0.0"
     inkscape:pagecheckerboard="0"
     inkscape:deskcolor="#d1d1d1"
     showgrid="false"
     inkscape:zoom="64.1875"
     inkscape:cx="7.9922103"
     inkscape:cy="8.0155794"
     inkscape:current-layer="svg8" />
  <path
     d="M 9,4 C 8.445312,4 8,4.445312 8,5 v 9 c 0,0.554688 0.445312,1 1,1 h 1 c 0.554688,0 1,-0.445312 1,-1 V 5 C 11,4.445312 10.554688,4 10,4 Z M 5,7 C 4.445312,7 4,7.445312 4,8 v 6 c 0,0.554688 0.445312,1 1,1 h 1 c 0.554688,0 1,-0.445312 1,-1 V 8 C 7,7.445312 6.554688,7 6,7 Z m -4,3 c -0.554688,0 -1,0.445312 -1,1 v 3 c 0,0.554688 0.445312,1 1,1 h 1 c 0.554688,0 1,-0.445312 1,-1 V 11 C 3,10.445312 2.554688,10 2,10 Z m 0,0"
     id="path2"
     style="fill:#444444;fill-opacity:1" />
  <path
     d="m 13,1 c -0.554688,0 -1,0.445312 -1,1 v 12 c 0,0.554688 0.445312,1 1,1 h 1 c 0.554688,0 1,-0.445312 1,-1 V 2 C 15,1.445312 14.554688,1 14,1 Z m 0,0"
     fill-opacity="0.34902"
     id="path4"
     style="fill:#444444;fill-opacity:1;opacity:0.3" />
</svg>
