<?xml version="1.0" encoding="UTF-8" standalone="no"?>
<svg
   height="16px"
   viewBox="0 0 16 16"
   width="16px"
   version="1.1"
   id="svg8"
   sodipodi:docname="network-wireless-offline-symbolic.svg"
   inkscape:version="1.2.1 (9c6d41e410, 2022-07-14)"
   xmlns:inkscape="http://www.inkscape.org/namespaces/inkscape"
   xmlns:sodipodi="http://sodipodi.sourceforge.net/DTD/sodipodi-0.dtd"
   xmlns="http://www.w3.org/2000/svg"
   xmlns:svg="http://www.w3.org/2000/svg">
  <defs
     id="defs12" />
  <sodipodi:namedview
     id="namedview10"
     pagecolor="#ffffff"
     bordercolor="#000000"
     borderopacity="0.25"
     inkscape:showpageshadow="2"
     inkscape:pageopacity="0.0"
     inkscape:pagecheckerboard="0"
     inkscape:deskcolor="#d1d1d1"
     showgrid="false"
     inkscape:zoom="64.1875"
     inkscape:cx="7.9922103"
     inkscape:cy="8.0155794"
     inkscape:current-layer="svg8" />
  <path
     d="m 8,1.992188 c -2.617188,0 -5.238281,0.933593 -7.195312,2.808593 L 0.308594,5.28125 C -0.0898438,5.660156 -0.101562,6.292969 0.277344,6.691406 0.660156,7.089844 1.292969,7.101562 1.691406,6.71875 l 0.5,-0.476562 c 3.085938,-2.953126 8.53125,-2.953126 11.617188,0 l 0.5,0.476562 c 0.398437,0.382812 1.03125,0.371094 1.414062,-0.027344 0.378906,-0.398437 0.367188,-1.03125 -0.03125,-1.410156 L 15.195312,4.800781 C 13.238281,2.925781 10.617188,1.992188 8,1.992188 Z M 7.96875,6 C 6.398438,6.011719 4.839844,6.628906 3.761719,7.8125 l -0.5,0.550781 c -0.375,0.40625 -0.347657,1.042969 0.0625,1.414063 0.410156,0.371094 1.042969,0.339844 1.414062,-0.070313 l 0.5,-0.542969 C 6.480469,7.800781 9.230469,7.671875 10.636719,9.035156 10.757812,9.011719 10.878906,9 11,9 c 0.53125,0 1.039062,0.210938 1.414062,0.585938 l 0.222657,0.222656 c 0.01172,-0.011719 0.02344,-0.019532 0.03906,-0.03125 0.40625,-0.371094 0.4375,-1.007813 0.0625,-1.414063 l -0.5,-0.550781 C 11.113281,6.582031 9.535156,5.988281 7.96875,6 Z M 8,10 c -0.511719,0 -1.023438,0.195312 -1.414062,0.585938 -0.78125,0.78125 -0.78125,2.046874 0,2.828124 0.78125,0.78125 2.046874,0.78125 2.828124,0 C 9.625,13.203125 9.773438,12.960938 9.871094,12.699219 L 9.585938,12.414062 C 9.03125,11.859375 8.878906,11.046875 9.117188,10.34375 8.78125,10.117188 8.390625,10 8,10 Z m 0,0"
     fill-opacity="0.34902"
     id="path2"
     style="fill:#444444;fill-opacity:1;opacity:0.3" />
  <path
     d="m 11,10 c -0.265625,0 -0.519531,0.105469 -0.707031,0.292969 -0.390625,0.390625 -0.390625,1.023437 0,1.414062 L 11.585938,13 10.292969,14.292969 c -0.390625,0.390625 -0.390625,1.023437 0,1.414062 0.390625,0.390625 1.023437,0.390625 1.414062,0 L 13,14.414062 l 1.292969,1.292969 c 0.390625,0.390625 1.023437,0.390625 1.414062,0 0.390625,-0.390625 0.390625,-1.023437 0,-1.414062 L 14.414062,13 15.707031,11.707031 c 0.390625,-0.390625 0.390625,-1.023437 0,-1.414062 C 15.519531,10.105469 15.265625,10 15,10 c -0.265625,0 -0.519531,0.105469 -0.707031,0.292969 L 13,11.585938 11.707031,10.292969 C 11.519531,10.105469 11.265625,10 11,10 Z m 0,0"
     id="path4"
     style="fill:#444444;fill-opacity:1" />
</svg>
