<?xml version="1.0" encoding="UTF-8" standalone="no"?>
<svg
   height="16px"
   viewBox="0 0 16 16"
   width="16px"
   version="1.1"
   id="svg6"
   sodipodi:docname="network-cellular-no-route-rtl-symbolic.svg"
   inkscape:version="1.2.1 (9c6d41e410, 2022-07-14)"
   xmlns:inkscape="http://www.inkscape.org/namespaces/inkscape"
   xmlns:sodipodi="http://sodipodi.sourceforge.net/DTD/sodipodi-0.dtd"
   xmlns="http://www.w3.org/2000/svg"
   xmlns:svg="http://www.w3.org/2000/svg">
  <defs
     id="defs10" />
  <sodipodi:namedview
     id="namedview8"
     pagecolor="#ffffff"
     bordercolor="#000000"
     borderopacity="0.25"
     inkscape:showpageshadow="2"
     inkscape:pageopacity="0.0"
     inkscape:pagecheckerboard="0"
     inkscape:deskcolor="#d1d1d1"
     showgrid="false"
     inkscape:zoom="64.1875"
     inkscape:cx="7.9922103"
     inkscape:cy="8.0155794"
     inkscape:current-layer="svg6" />
  <path
     d="m 3 1 c 0.554688 0 1 0.445312 1 1 v 12 c 0 0.554688 -0.445312 1 -1 1 h -1 c -0.554688 0 -1 -0.445312 -1 -1 v -12 c 0 -0.554688 0.445312 -1 1 -1 z m 8.75 6.347656 c 0.152344 0.175782 0.25 0.402344 0.25 0.652344 v 6 c 0 0.554688 -0.445312 1 -1 1 h -1 c -0.554688 0 -1 -0.445312 -1 -1 v -0.28125 c 0.613281 -0.355469 0.996094 -1.007812 1 -1.71875 v -2.546875 c 0.8125 -0.472656 1.433594 -1.21875 1.75 -2.105469 z m -6.75 1.277344 c 0.285156 0.328125 0.625 0.609375 1 0.828125 v 2.546875 c 0 1.105469 0.894531 2 2 2 c 0 0.554688 -0.445312 1 -1 1 h -1 c -0.554688 0 -1 -0.445312 -1 -1 z m 10 1.375 c 0.554688 0 1 0.445312 1 1 v 3 c 0 0.554688 -0.445312 1 -1 1 h -1 c -0.554688 0 -1 -0.445312 -1 -1 v -3 c 0 -0.554688 0.445312 -1 1 -1 z m 0 0"
     fill="#2e3434"
     fill-opacity="0.34902"
     id="path2"
     style="fill:#444444;fill-opacity:1;opacity:0.3" />
  <path
     d="m 8.152344 3.007812 c -0.4375 -0.023437 -0.878906 0.046876 -1.300782 0.222657 c -1.117187 0.460937 -1.851562 1.558593 -1.851562 2.769531 h 2 c 0 -0.40625 0.242188 -0.769531 0.617188 -0.925781 c 0.378906 -0.152344 0.804687 -0.070313 1.089843 0.21875 c 0.289063 0.289062 0.375 0.714843 0.21875 1.089843 s -0.515625 0.617188 -0.925781 0.617188 c -0.550781 0 -1 0.449219 -1 1 v 2 h 2 v -1.179688 c 0.789062 -0.28125 1.441406 -0.875 1.773438 -1.671874 c 0.460937 -1.117188 0.203124 -2.414063 -0.652344 -3.269532 c -0.535156 -0.535156 -1.238282 -0.835937 -1.96875 -0.871094 z m -0.152344 7.992188 c -0.550781 0 -1 0.449219 -1 1 s 0.449219 1 1 1 c 0.554688 0 1 -0.449219 1 -1 s -0.445312 -1 -1 -1 z m 0 0"
     fill="#2e3436"
     id="path4"
     style="fill:#444444;fill-opacity:1" />
</svg>
