<?xml version="1.0" encoding="UTF-8" standalone="no"?>
<svg
   width="16"
   height="16"
   version="1.1"
   id="svg6"
   sodipodi:docname="network-vpn-error-symbolic.svg"
   xml:space="preserve"
   inkscape:version="1.2.1 (9c6d41e410, 2022-07-14)"
   xmlns:inkscape="http://www.inkscape.org/namespaces/inkscape"
   xmlns:sodipodi="http://sodipodi.sourceforge.net/DTD/sodipodi-0.dtd"
   xmlns="http://www.w3.org/2000/svg"
   xmlns:svg="http://www.w3.org/2000/svg"><defs
     id="defs10" /><sodipodi:namedview
     id="namedview8"
     pagecolor="#ffffff"
     bordercolor="#000000"
     borderopacity="0.25"
     inkscape:showpageshadow="2"
     inkscape:pageopacity="0.0"
     inkscape:pagecheckerboard="0"
     inkscape:deskcolor="#d1d1d1"
     showgrid="false"
     inkscape:zoom="16"
     inkscape:cx="-18.1875"
     inkscape:cy="8.34375"
     inkscape:current-layer="svg6" /><path
     id="path2-3"
     style="opacity:0.3;fill:#444444;fill-opacity:1"
     d="M 7.9179688 1 C 6.3007824 1 5 2.3007824 5 3.9179688 L 5 5 L 4 5 L 4 11 L 7 11 L 7 13 L 2 13 L 2 15 L 10.548828 15 L 10.548828 13 L 9 13 L 9 11 L 10.548828 11 L 10.548828 4.9980469 L 11 4.9980469 L 11 3.9179688 C 11 2.3007823 9.6992176 1 8.0820312 1 L 7.9179688 1 z M 8 3 C 8.5546874 3 9 3.4453126 9 4 L 9 5 L 7 5 L 7 4 C 7 3.4453126 7.4453126 3 8 3 z " /><g
     id="g2598"
     transform="translate(4.400438,2)"
     style="fill:#f44336;fill-opacity:1"><path
       style="fill:#f44336;fill-opacity:1"
       d="M 8,11"
       id="path293" /><path
       style="fill:#f44336;fill-opacity:1"
       d="m 8,11 c 0.550781,0 1,0.449219 1,1 0,0.550781 -0.449219,1 -1,1 -0.550781,0 -1,-0.449219 -1,-1 0,-0.550781 0.449219,-1 1,-1 z"
       id="path291" /><path
       style="fill:#f44336;fill-opacity:1"
       d="M 9,4 V 9 C 9.007812,9.527344 8.527344,10 8,10 7.472656,10 6.992188,9.527344 7,9 V 4 Z"
       id="path289" /></g></svg>
