<?xml version="1.0" encoding="UTF-8" standalone="no"?>
<svg
   height="16px"
   viewBox="0 0 16 16"
   width="16px"
   version="1.1"
   id="svg4"
   sodipodi:docname="network-cellular-error-symbolic.svg"
   inkscape:version="1.2.1 (9c6d41e410, 2022-07-14)"
   xml:space="preserve"
   xmlns:inkscape="http://www.inkscape.org/namespaces/inkscape"
   xmlns:sodipodi="http://sodipodi.sourceforge.net/DTD/sodipodi-0.dtd"
   xmlns="http://www.w3.org/2000/svg"
   xmlns:svg="http://www.w3.org/2000/svg"><defs
     id="defs8" /><sodipodi:namedview
     id="namedview6"
     pagecolor="#ffffff"
     bordercolor="#000000"
     borderopacity="0.25"
     inkscape:showpageshadow="2"
     inkscape:pageopacity="0.0"
     inkscape:pagecheckerboard="0"
     inkscape:deskcolor="#d1d1d1"
     showgrid="false"
     inkscape:zoom="16.046875"
     inkscape:cx="-6.0447906"
     inkscape:cy="2.399221"
     inkscape:current-layer="svg4" /><path
     id="path2"
     style="fill:#444444;fill-opacity:1;opacity:0.3"
     d="M 13 1 C 12.445313 1 12 1.4453126 12 2 L 12 14 C 12 14.554687 12.445313 15 13 15 L 14 15 C 14.554687 15 15 14.554687 15 14 L 15 2 C 15 1.4453126 14.554687 1 14 1 L 13 1 z M 9.7539062 4 L 9.7539062 11.283203 C 9.7539062 12.447236 8.9983495 13.407217 8 13.597656 L 8 14 C 8 14.554687 8.4453126 15 9 15 L 10 15 C 10.554687 15 11 14.554687 11 14 L 11 5 C 11 4.4453126 10.554687 4 10 4 L 9.7539062 4 z M 5 7 C 4.4453126 7 4 7.4453126 4 8 L 4 14 C 4 14.554687 4.4453126 15 5 15 L 6 15 C 6.5546874 15 7 14.554687 7 14 L 7 13.527344 C 6.1401119 13.228695 5.5195312 12.338553 5.5195312 11.283203 L 5.5195312 7 L 5 7 z M 1 10 C 0.44531255 10 0 10.445313 0 11 L 0 14 C 0 14.554687 0.44531255 15 1 15 L 2 15 C 2.5546874 15 3 14.554687 3 14 L 3 11 C 3 10.445313 2.5546874 10 2 10 L 1 10 z " /><g
     id="g3527"
     transform="matrix(1.1111111,0,0,1.1111111,-1.3346687,-1.8400138)"
     style="fill:#f44336;fill-opacity:1"><path
       style="fill:#f44336;fill-opacity:1"
       d="M 8,11"
       id="path293" /><path
       style="fill:#f44336;fill-opacity:1"
       d="m 8,11 c 0.550781,0 1,0.449219 1,1 0,0.550781 -0.449219,1 -1,1 -0.550781,0 -1,-0.449219 -1,-1 0,-0.550781 0.449219,-1 1,-1 z"
       id="path291" /><path
       style="fill:#f44336;fill-opacity:1"
       d="M 9,4 V 9 C 9.007812,9.527344 8.527344,10 8,10 7.472656,10 6.992188,9.527344 7,9 V 4 Z"
       id="path289" /></g></svg>
