<?xml version="1.0" encoding="UTF-8" standalone="no"?>
<svg
   width="16"
   height="16"
   version="1.1"
   id="svg4"
   sodipodi:docname="network-wired-no-route-symbolic.svg"
   xml:space="preserve"
   inkscape:version="1.2.1 (9c6d41e410, 2022-07-14)"
   xmlns:inkscape="http://www.inkscape.org/namespaces/inkscape"
   xmlns:sodipodi="http://sodipodi.sourceforge.net/DTD/sodipodi-0.dtd"
   xmlns="http://www.w3.org/2000/svg"
   xmlns:svg="http://www.w3.org/2000/svg"><defs
     id="defs8" /><sodipodi:namedview
     id="namedview6"
     pagecolor="#ffffff"
     bordercolor="#000000"
     borderopacity="0.25"
     inkscape:showpageshadow="2"
     inkscape:pageopacity="0.0"
     inkscape:pagecheckerboard="0"
     inkscape:deskcolor="#d1d1d1"
     showgrid="false"
     inkscape:zoom="22.627417"
     inkscape:cx="-6.6733202"
     inkscape:cy="12.705825"
     inkscape:current-layer="svg4" /><path
     id="path2"
     style="fill:#444444;stroke-width:1.06665;opacity:0.3"
     d="M 1.0664062 0.53320312 C 1.0664062 0.53320312 0 0.53296868 0 1.5996094 L 0 11.199219 C 0 12.265861 1.0664062 12.265625 1.0664062 12.265625 L 3.1992188 12.265625 L 4.265625 13.332031 L 10.666016 13.332031 L 11.732422 12.265625 L 13.867188 12.265625 C 13.867188 12.265625 14.933594 12.404524 14.933594 11.199219 L 14.933594 1.5996094 C 14.933594 0.53296868 13.867187 0.53320313 13.867188 0.53320312 L 1.0664062 0.53320312 z M 7.4355469 1.1953125 A 4.1199951 4.1199951 0 0 1 10.589844 2.6660156 L 12.798828 2.6660156 L 12.798828 10.132812 L 10.666016 10.132812 L 9.5996094 11.199219 L 9.0429688 11.199219 A 1.6109924 1.6109924 0 0 1 7.4375 12.724609 A 1.6109924 1.6109924 0 0 1 5.8320312 11.199219 L 5.3339844 11.199219 L 4.265625 10.132812 L 2.1328125 10.132812 L 2.1328125 2.6660156 L 4.2851562 2.6660156 A 4.1199951 4.1199951 0 0 1 7.4355469 1.1953125 z " /><path
     style="fill:#999999;fill-opacity:1"
     d="M 7.4368775,10.114333"
     id="path499" /><g
     id="g533"
     style="fill:#444444;fill-opacity:1"><path
       style="fill:#444444;fill-opacity:1"
       d="m 7.4368775,10.114333 c -0.550781,0 -1,0.449219 -1,1 0,0.550781 0.449219,1 1,1 0.550781,0 1,-0.449219 1,-1 0,-0.550781 -0.449219,-1 -1,-1 z"
       id="path497" /><path
       style="fill:#444444;fill-opacity:1"
       d="m 7.5892215,2.122145 c -0.4375,-0.023437 -0.882813,0.046876 -1.300782,0.222657 -1.117187,0.460937 -1.851562,1.558593 -1.851562,2.769531 h 2 c 0,-0.40625 0.242188,-0.769531 0.617188,-0.921875 0.375,-0.15625 0.800781,-0.074219 1.089843,0.214844 0.289063,0.289062 0.371094,0.714843 0.21875,1.089843 -0.15625,0.375 -0.519531,0.617188 -0.925781,0.617188 -0.550781,0 -1,0.449219 -1,1.0000002 v 2 h 2 v -1.179688 c 0.785156,-0.28125 1.441406,-0.875 1.7695305,-1.6718742 C 10.671252,5.145583 10.413439,3.848708 9.5579715,2.993239 9.0228155,2.458083 8.3157835,2.157302 7.5892215,2.122145 Z"
       id="path4" /></g></svg>
