<?xml version="1.0" encoding="UTF-8" standalone="no"?>
<svg
   width="16"
   height="16"
   version="1.1"
   id="svg6"
   sodipodi:docname="network-wireless-disconnected-symbolic.svg"
   xml:space="preserve"
   inkscape:version="1.2.1 (9c6d41e410, 2022-07-14)"
   xmlns:inkscape="http://www.inkscape.org/namespaces/inkscape"
   xmlns:sodipodi="http://sodipodi.sourceforge.net/DTD/sodipodi-0.dtd"
   xmlns="http://www.w3.org/2000/svg"
   xmlns:svg="http://www.w3.org/2000/svg"><defs
     id="defs10" /><sodipodi:namedview
     id="namedview8"
     pagecolor="#ffffff"
     bordercolor="#000000"
     borderopacity="0.25"
     inkscape:showpageshadow="2"
     inkscape:pageopacity="0.0"
     inkscape:pagecheckerboard="0"
     inkscape:deskcolor="#d1d1d1"
     showgrid="false"
     inkscape:zoom="11.346854"
     inkscape:cx="31.462465"
     inkscape:cy="5.9487854"
     inkscape:current-layer="svg6" /><g
     style="fill:#444444;stroke:currentColor;stroke-width:1.5;stroke-linecap:round;stroke-linejoin:round;fill-opacity:1"
     id="g251"
     transform="matrix(1.1428619,0,0,1.1428619,-1.1428954,-0.57143523)"><path
       style="color:#000000;fill:#444444;stroke:none;stroke-linecap:butt;stroke-linejoin:miter;-inkscape-stroke:none;fill-opacity:1"
       d="M 8.7167969,2 A 0.75,0.75 0 0 0 8,2.7832031 0.75,0.75 0 0 0 8.7832031,3.5 c 0,0 2.2329479,-0.01776 4.3613279,1.4296875 L 11.664063,6.78125 A 0.75,0.75 0 0 0 11.78125,7.8359375 0.75,0.75 0 0 0 12.835938,7.71875 l 2,-2.5 A 0.750075,0.750075 0 0 0 14.734375,4.1777344 C 11.977298,1.8448274 8.7167969,2 8.7167969,2 Z M 5.25,2.5 C 4.250001,2.5 3.3159495,2.9393472 2.578125,3.3417969 1.8403005,3.7442466 1.3007812,4.1503906 1.3007812,4.1503906 A 0.750075,0.750075 0 0 0 1.1464844,5.1933594 l 6.25,8.4999996 a 0.750075,0.750075 0 0 0 1.203125,0.0059 l 2.2499996,-3 A 0.75,0.75 0 0 0 10.699219,9.6503906 0.75,0.75 0 0 0 9.6503906,9.8007813 L 8.0058594,11.994141 2.828125,4.953125 C 3.0134423,4.83253 3.0248613,4.8065742 3.296875,4.6582031 3.9340491,4.3106536 4.7500005,4 5.25,4 A 0.75,0.75 0 0 0 6,3.25 0.75,0.75 0 0 0 5.25,2.5 Z"
       id="path239" /><path
       style="color:#000000;fill:#444444;stroke:none;stroke-linecap:butt;stroke-linejoin:miter;-inkscape-stroke:none;fill-opacity:1"
       d="M 4.3496094,1.0058594 A 0.75,0.75 0 0 0 3.7949219,1.1542969 0.75,0.75 0 0 0 3.6542969,2.2050781 L 11.654297,12.705078 a 0.75,0.75 0 0 0 1.050781,0.140625 0.75,0.75 0 0 0 0.140625,-1.050781 L 4.8457031,1.2949219 A 0.75,0.75 0 0 0 4.3496094,1.0058594 Z"
       id="line241" /></g></svg>
