<?xml version="1.0" encoding="UTF-8" standalone="no"?>
<svg
   height="16px"
   viewBox="0 0 16 16"
   width="16px"
   version="1.1"
   id="svg6"
   sodipodi:docname="network-cellular-hardware-disabled-symbolic.svg"
   inkscape:version="1.2.1 (9c6d41e410, 2022-07-14)"
   xmlns:inkscape="http://www.inkscape.org/namespaces/inkscape"
   xmlns:sodipodi="http://sodipodi.sourceforge.net/DTD/sodipodi-0.dtd"
   xmlns="http://www.w3.org/2000/svg"
   xmlns:svg="http://www.w3.org/2000/svg">
  <defs
     id="defs10" />
  <sodipodi:namedview
     id="namedview8"
     pagecolor="#ffffff"
     bordercolor="#000000"
     borderopacity="0.25"
     inkscape:showpageshadow="2"
     inkscape:pageopacity="0.0"
     inkscape:pagecheckerboard="0"
     inkscape:deskcolor="#d1d1d1"
     showgrid="false"
     inkscape:zoom="64.1875"
     inkscape:cx="7.9922103"
     inkscape:cy="8.0155794"
     inkscape:current-layer="svg6" />
  <path
     d="m 13 1 c -0.554688 0 -1 0.445312 -1 1 v 3 h 3 v -3 c 0 -0.554688 -0.445312 -1 -1 -1 z m -4 3 c -0.554688 0 -1 0.445312 -1 1 h 3 c 0 -0.554688 -0.445312 -1 -1 -1 z m -9 7 v 3 c 0 0.554688 0.445312 1 1 1 h 1 c 0.554688 0 1 -0.445312 1 -1 v -3 z m 4 0 v 3 c 0 0.554688 0.445312 1 1 1 h 1 c 0.554688 0 1 -0.445312 1 -1 v -3 z m 4 0 v 3 c 0 0.554688 0.445312 1 1 1 h 1 c 0.554688 0 1 -0.445312 1 -1 v -3 z m 4 0 v 3 c 0 0.554688 0.445312 1 1 1 h 1 c 0.554688 0 1 -0.445312 1 -1 v -3 z m 0 0"
     fill="#2e3434"
     fill-opacity="0.34902"
     id="path2"
     style="fill:#444444;fill-opacity:1;opacity:0.3" />
  <path
     d="m 0 6 h 16 v 4 h -16 z m 0 0"
     fill="#2e3436"
     id="path4"
     style="fill:#444444;fill-opacity:1" />
</svg>
