<?xml version="1.0" encoding="UTF-8" standalone="no"?>
<svg
   height="16px"
   viewBox="0 0 16 16"
   width="16px"
   version="1.1"
   id="svg4"
   sodipodi:docname="network-wireless-error-symbolic.svg"
   inkscape:version="1.2.1 (9c6d41e410, 2022-07-14)"
   xml:space="preserve"
   xmlns:inkscape="http://www.inkscape.org/namespaces/inkscape"
   xmlns:sodipodi="http://sodipodi.sourceforge.net/DTD/sodipodi-0.dtd"
   xmlns="http://www.w3.org/2000/svg"
   xmlns:svg="http://www.w3.org/2000/svg"><defs
     id="defs8" /><sodipodi:namedview
     id="namedview6"
     pagecolor="#ffffff"
     bordercolor="#000000"
     borderopacity="0.25"
     inkscape:showpageshadow="2"
     inkscape:pageopacity="0.0"
     inkscape:pagecheckerboard="0"
     inkscape:deskcolor="#d1d1d1"
     showgrid="false"
     inkscape:zoom="32.09375"
     inkscape:cx="2.2122687"
     inkscape:cy="7.4313535"
     inkscape:current-layer="svg4" /><path
     id="path2"
     style="fill:#444444;fill-opacity:1;opacity:0.3"
     d="M 5.7519531 2.2285156 C 3.9274388 2.6121549 2.1973488 3.4664949 0.8046875 4.8007812 L 0.30859375 5.28125 C -0.089843254 5.6601552 -0.10156149 6.29297 0.27734375 6.6914062 C 0.66015499 7.0898436 1.29297 7.1015616 1.6914062 6.7226562 L 2.1914062 6.2460938 C 3.185918 5.2931249 4.4252964 4.6492839 5.7519531 4.3105469 L 5.7519531 2.2285156 z M 10.248047 2.2285156 L 10.248047 4.3105469 C 11.574704 4.6492839 12.814082 5.2931249 13.808594 6.2460938 L 14.308594 6.7226562 C 14.707029 7.1015616 15.339846 7.0898436 15.722656 6.6914062 C 16.101562 6.29297 16.089844 5.6601552 15.691406 5.28125 L 15.195312 4.796875 C 13.802652 3.4653681 12.072561 2.6119237 10.248047 2.2285156 z M 10.248047 6.4316406 L 10.248047 8.71875 C 10.435224 8.8474797 10.608495 8.9954723 10.761719 9.1640625 L 11.261719 9.7070312 C 11.4375 9.906246 11.6875 10.023438 11.953125 10.035156 C 12.21875 10.050781 12.476562 9.9570304 12.675781 9.7773438 C 12.871094 9.597656 12.988281 9.3476558 13 9.0820312 C 13.011719 8.8203128 12.917969 8.558594 12.738281 8.3632812 L 12.238281 7.8164062 C 11.671743 7.1926217 10.988507 6.7327648 10.248047 6.4316406 z M 5.7519531 6.4394531 C 5.0039341 6.7431995 4.3181912 7.2015899 3.7617188 7.8125 L 3.2617188 8.3632812 C 3.082031 8.558594 2.984375 8.8164068 3 9.0820312 C 3.011719 9.3476558 3.1289064 9.597656 3.328125 9.7773438 C 3.5234376 9.9570304 3.7812506 10.050781 4.046875 10.035156 C 4.3124994 10.023438 4.5624999 9.90625 4.7421875 9.7070312 L 5.2382812 9.1601562 C 5.388526 8.9952088 5.5623701 8.8489775 5.7519531 8.7207031 L 5.7519531 6.4394531 z M 6.2304688 11.068359 C 5.8322534 11.823404 5.9505125 12.778638 6.5859375 13.414062 C 7.3671859 14.195312 8.6328141 14.195312 9.4140625 13.414062 C 10.049488 12.778638 10.167747 11.823404 9.7695312 11.068359 A 2.1786757 2.1354065 0 0 1 8 11.966797 A 2.1786757 2.1354065 0 0 1 6.2304688 11.068359 z " /><g
     id="g426"
     transform="translate(0,-1.9496105)"
     style="fill:#f44336;fill-opacity:1"><path
       style="fill:#f44336;fill-opacity:1"
       d="M 8,11"
       id="path293" /><path
       style="fill:#f44336;fill-opacity:1"
       d="m 8,11 c 0.550781,0 1,0.449219 1,1 0,0.550781 -0.449219,1 -1,1 -0.550781,0 -1,-0.449219 -1,-1 0,-0.550781 0.449219,-1 1,-1 z"
       id="path291" /><path
       style="fill:#f44336;fill-opacity:1"
       d="M 9,4 V 9 C 9.007812,9.527344 8.527344,10 8,10 7.472656,10 6.992188,9.527344 7,9 V 4 Z"
       id="path289" /></g></svg>
