<?xml version="1.0" encoding="UTF-8" standalone="no"?>
<svg
   height="16px"
   viewBox="0 0 16 16"
   width="16px"
   version="1.1"
   id="svg6"
   sodipodi:docname="network-vpn-acquiring-symbolic.svg"
   inkscape:version="1.2.1 (9c6d41e410, 2022-07-14)"
   xmlns:inkscape="http://www.inkscape.org/namespaces/inkscape"
   xmlns:sodipodi="http://sodipodi.sourceforge.net/DTD/sodipodi-0.dtd"
   xmlns="http://www.w3.org/2000/svg"
   xmlns:svg="http://www.w3.org/2000/svg">
  <defs
     id="defs10" />
  <sodipodi:namedview
     id="namedview8"
     pagecolor="#ffffff"
     bordercolor="#000000"
     borderopacity="0.25"
     inkscape:showpageshadow="2"
     inkscape:pageopacity="0.0"
     inkscape:pagecheckerboard="0"
     inkscape:deskcolor="#d1d1d1"
     showgrid="false"
     inkscape:zoom="45.387417"
     inkscape:cx="2.1812213"
     inkscape:cy="9.1545197"
     inkscape:current-layer="svg6" />
  <path
     d="m 8 1 c -1.644531 0 -3 1.355469 -3 3 v 1 h 2 v -1 c 0 -0.5625 0.4375 -1 1 -1 s 1 0.4375 1 1 v 1 h 2 v -1 c 0 -1.644531 -1.355469 -3 -3 -3 z m -4 10 v 1.011719 h 3 v 0.988281 h -5 v 2 h 12 v -2 h -5 v -0.988281 h 3 v -1.011719 z m 0 0"
     fill="#2e3434"
     fill-opacity="0.34902"
     id="path2"
     style="fill:#444444;fill-opacity:1;opacity:0.3" />
  <path
     d="m 3 6 c -1.105469 0 -2 0.894531 -2 2 s 0.894531 2 2 2 s 2 -0.894531 2 -2 s -0.894531 -2 -2 -2 z m 5 0 c -1.105469 0 -2 0.894531 -2 2 s 0.894531 2 2 2 s 2 -0.894531 2 -2 s -0.894531 -2 -2 -2 z m 5 0 c -1.105469 0 -2 0.894531 -2 2 s 0.894531 2 2 2 s 2 -0.894531 2 -2 s -0.894531 -2 -2 -2 z m 0 0"
     fill="#2e3436"
     id="path4"
     style="fill:#444444;fill-opacity:1" />
</svg>
