<?xml version="1.0" encoding="UTF-8" standalone="no"?>
<svg
   width="16"
   height="16"
   version="1.1"
   id="svg6"
   sodipodi:docname="notification-new-symbolic.svg"
   inkscape:version="1.2.1 (9c6d41e410, 2022-07-14)"
   xml:space="preserve"
   xmlns:inkscape="http://www.inkscape.org/namespaces/inkscape"
   xmlns:sodipodi="http://sodipodi.sourceforge.net/DTD/sodipodi-0.dtd"
   xmlns="http://www.w3.org/2000/svg"
   xmlns:svg="http://www.w3.org/2000/svg"
   xmlns:rdf="http://www.w3.org/1999/02/22-rdf-syntax-ns#"
   xmlns:cc="http://creativecommons.org/ns#"
   xmlns:dc="http://purl.org/dc/elements/1.1/"><metadata
     id="metadata12"><rdf:RDF><cc:Work
         rdf:about=""><dc:format>image/svg+xml</dc:format><dc:type
           rdf:resource="http://purl.org/dc/dcmitype/StillImage" /></cc:Work></rdf:RDF></metadata><defs
     id="defs10" /><sodipodi:namedview
     pagecolor="#ffffff"
     bordercolor="#666666"
     borderopacity="1"
     objecttolerance="10"
     gridtolerance="10"
     guidetolerance="10"
     inkscape:pageopacity="0"
     inkscape:pageshadow="2"
     inkscape:window-width="1366"
     inkscape:window-height="704"
     id="namedview8"
     showgrid="false"
     inkscape:zoom="29.5"
     inkscape:cx="-2.1016949"
     inkscape:cy="6.9661017"
     inkscape:window-x="0"
     inkscape:window-y="30"
     inkscape:window-maximized="1"
     inkscape:current-layer="svg6"
     inkscape:showpageshadow="2"
     inkscape:pagecheckerboard="0"
     inkscape:deskcolor="#d1d1d1" /><g
     id="g367"
     style="opacity:0.3"><path
       id="path2-3"
       style="fill:#444444;fill-opacity:1"
       d="M 9.4179688 1.4375 C 7.729577 1.4717453 6.0989189 2.3600674 5.1894531 3.9277344 C 3.8036005 6.3165603 4.6170335 9.3758663 7.0058594 10.761719 C 9.3946852 12.147571 12.453991 11.336092 13.839844 8.9472656 C 14.390437 7.998195 14.590792 6.9434203 14.486328 5.9296875 C 13.815062 6.0619719 13.094846 5.9604202 12.457031 5.5878906 C 11.125633 4.8102579 10.631491 3.1368072 11.289062 1.7636719 C 10.679855 1.5315739 10.045042 1.4247812 9.4179688 1.4375 z " /><path
       d="M 5.1893388,3.928675 13.839126,8.9467597 10.828276,14.136632 2.178488,9.1185476 Z m 0,0"
       id="path4-3"
       style="fill:#444444;fill-opacity:1" /><path
       d="m 1.4950944,9.3001327 9.5147666,5.5198933 c 0.476414,0.276386 1.0904,0.113243 1.366787,-0.36317 0.276387,-0.476414 0.113244,-1.090401 -0.36317,-1.366788 L 2.4987113,7.5701752 C 2.0222975,7.2937886 1.4083107,7.4569316 1.1319241,7.9333455 0.85553752,8.4097593 1.0186805,9.0237461 1.4950944,9.3001327 Z m 0,0"
       id="path6"
       style="fill:#444444;fill-opacity:1" /><path
       d="M 7.4806266,13.928675 C 7.1219118,14.547 6.4595157,14.925923 5.7472838,14.923685 5.0330919,14.924827 4.3708434,14.54063 4.0173263,13.920069 3.6618492,13.302885 3.6619968,12.539766 4.0207116,11.921441"
       id="path8"
       style="fill:#444444;fill-opacity:1" /></g><path
     style="fill:#f44242;fill-opacity:1"
     class="warning"
     d="M 16,3 A 2,2 0 0 1 14,5 2,2 0 0 1 12,3 2,2 0 0 1 14,1 2,2 0 0 1 16,3 Z"
     id="path4" /></svg>
