<?xml version="1.0" encoding="UTF-8" standalone="no"?>
<svg
   width="16"
   height="16"
   version="1.1"
   id="svg6"
   sodipodi:docname="printer-warning-symbolic.svg"
   inkscape:version="1.2.1 (9c6d41e410, 2022-07-14)"
   xmlns:inkscape="http://www.inkscape.org/namespaces/inkscape"
   xmlns:sodipodi="http://sodipodi.sourceforge.net/DTD/sodipodi-0.dtd"
   xmlns="http://www.w3.org/2000/svg"
   xmlns:svg="http://www.w3.org/2000/svg">
  <defs
     id="defs10" />
  <sodipodi:namedview
     id="namedview8"
     pagecolor="#ffffff"
     bordercolor="#000000"
     borderopacity="0.25"
     inkscape:showpageshadow="2"
     inkscape:pageopacity="0.0"
     inkscape:pagecheckerboard="0"
     inkscape:deskcolor="#d1d1d1"
     showgrid="false"
     inkscape:zoom="64.1875"
     inkscape:cx="7.9922103"
     inkscape:cy="8.0155794"
     inkscape:current-layer="svg6" />
  <path
     style="fill:#ff9800;fill-opacity:1"
     class="warning"
     d="M 12.48,8.73 C 12.33,8.74 12.19,8.82 12.12,8.95 L 9.06,14.35 C 8.89,14.64 9.1,15 9.44,15 H 15.56 C 15.9,15 16.11,14.64 15.94,14.35 L 12.88,8.95 C 12.8,8.81 12.64,8.72 12.48,8.73 Z M 12,10 H 13 V 12 H 12 Z M 12,13 H 13 V 14 H 12 Z"
     id="path2" />
  <path
     style="fill:#444444"
     d="M 4,1 V 3 H 12 V 1 Z M 13.75,8.46 14.52,9.81 C 14.79,9.62 15,9.32 15,9 V 5 C 15,4.5 14.5,4 14,4 H 2 C 1.5,4 1,4.5 1,5 V 9 C 1,9.5 1.5,10 2,10 H 3 V 8 H 11.67 C 11.9,7.84 12.16,7.74 12.435,7.73 12.97,7.71 13.48,7.99 13.75,8.46 Z M 10.94,9 H 4 V 14 H 8.13 Z"
     id="path4" />
</svg>
