<?xml version="1.0" encoding="UTF-8" standalone="no"?>
<svg
   height="16px"
   viewBox="0 0 16 16"
   width="16px"
   version="1.1"
   id="svg4"
   sodipodi:docname="security-medium-symbolic.svg"
   inkscape:version="1.2.1 (9c6d41e410, 2022-07-14)"
   xmlns:inkscape="http://www.inkscape.org/namespaces/inkscape"
   xmlns:sodipodi="http://sodipodi.sourceforge.net/DTD/sodipodi-0.dtd"
   xmlns="http://www.w3.org/2000/svg"
   xmlns:svg="http://www.w3.org/2000/svg">
  <defs
     id="defs8" />
  <sodipodi:namedview
     id="namedview6"
     pagecolor="#ffffff"
     bordercolor="#000000"
     borderopacity="0.25"
     inkscape:showpageshadow="2"
     inkscape:pageopacity="0.0"
     inkscape:pagecheckerboard="0"
     inkscape:deskcolor="#d1d1d1"
     showgrid="false"
     inkscape:zoom="64.1875"
     inkscape:cx="7.9922103"
     inkscape:cy="8.0155794"
     inkscape:current-layer="svg4" />
  <path
     d="m 2 0 c -0.550781 0 -1 0.449219 -1 1 v 8 c 0 2.5 1.816406 4.246094 3.445312 5.332031 c 1.628907 1.085938 3.238282 1.617188 3.238282 1.617188 c 0.207031 0.070312 0.425781 0.070312 0.632812 0 c 0 0 1.609375 -0.53125 3.238282 -1.617188 c 1.628906 -1.085937 3.445312 -2.832031 3.445312 -5.332031 v -8 c 0 -0.550781 -0.449219 -1 -1 -1 z m 1 2 h 10 v 7 c 0 1.5 -1.183594 2.753906 -2.554688 3.667969 c -1.214843 0.808593 -2.179687 1.128906 -2.445312 1.226562 c -0.265625 -0.097656 -1.230469 -0.417969 -2.445312 -1.226562 c -1.371094 -0.914063 -2.554688 -2.167969 -2.554688 -3.667969 z m 1 1 v 6 c 0 1 0.867188 2.007812 2.109375 2.835938 c 0.933594 0.621093 1.472656 0.785156 1.890625 0.949218 v -9.785156 z m 0 0"
     fill="#2e3436"
     id="path2"
     style="fill:#444444;fill-opacity:1" />
</svg>
