<?xml version="1.0" encoding="UTF-8" standalone="no"?>
<svg
   width="16"
   height="16"
   version="1.1"
   id="svg6"
   sodipodi:docname="task-past-due-symbolic.svg"
   xml:space="preserve"
   inkscape:version="1.2.1 (9c6d41e410, 2022-07-14)"
   xmlns:inkscape="http://www.inkscape.org/namespaces/inkscape"
   xmlns:sodipodi="http://sodipodi.sourceforge.net/DTD/sodipodi-0.dtd"
   xmlns="http://www.w3.org/2000/svg"
   xmlns:svg="http://www.w3.org/2000/svg"><defs
     id="defs10" /><sodipodi:namedview
     id="namedview8"
     pagecolor="#ffffff"
     bordercolor="#000000"
     borderopacity="0.25"
     inkscape:showpageshadow="2"
     inkscape:pageopacity="0.0"
     inkscape:pagecheckerboard="0"
     inkscape:deskcolor="#d1d1d1"
     showgrid="false"
     inkscape:zoom="32.09375"
     inkscape:cx="-3.1470302"
     inkscape:cy="10.453749"
     inkscape:current-layer="svg6" /><path
     style="opacity:0.3;fill:#444444"
     d="M 8,0 A 2,2 0 0 0 6,2 H 2 C 1.446,2 1,2.45 1,3 V 14 C 1,14.55 1.446,15 2,15 H 10 V 12 H 4 V 11 H 10 V 10 H 15 V 3 C 15,2.45 14.554,2 14,2 H 10 A 2,2 0 0 0 8,0 Z M 8,1 A 1,1 0 0 1 9,2 1,1 0 0 1 8,3 1,1 0 0 1 7,2 1,1 0 0 1 8,1 Z M 4,5 H 12 V 6 H 4 Z M 4,8 H 12 V 9 H 4 Z"
     id="path2" /><path
     d="m 11.833333,11 c -0.221354,0 -0.432942,0.08789 -0.589192,0.244141 -0.325521,0.32552 -0.325521,0.852864 0,1.178385 L 12.321615,13.5 11.244141,14.577474 c -0.325521,0.325521 -0.325521,0.852864 0,1.178385 0.325521,0.325521 0.852864,0.325521 1.178385,0 L 13.5,14.678385 l 1.077474,1.077474 c 0.325521,0.325521 0.852864,0.325521 1.178385,0 0.325521,-0.325521 0.325521,-0.852864 0,-1.178385 L 14.678385,13.5 15.755859,12.422526 c 0.325521,-0.325521 0.325521,-0.852865 0,-1.178385 C 15.599609,11.087891 15.388021,11 15.166667,11 c -0.221354,0 -0.432943,0.08789 -0.589193,0.244141 L 13.5,12.321615 12.422526,11.244141 C 12.266276,11.087891 12.054688,11 11.833333,11 Z m 0,0"
     fill="#2e3436"
     id="path4-3"
     style="fill:#444444;fill-opacity:1;stroke-width:0.833333" /></svg>
