<?xml version="1.0" encoding="UTF-8" standalone="no"?>
<svg
   width="16"
   height="16"
   version="1.1"
   id="svg10"
   sodipodi:docname="weather-snow-symbolic-old2.svg"
   xml:space="preserve"
   inkscape:version="1.2.1 (9c6d41e410, 2022-07-14)"
   xmlns:inkscape="http://www.inkscape.org/namespaces/inkscape"
   xmlns:sodipodi="http://sodipodi.sourceforge.net/DTD/sodipodi-0.dtd"
   xmlns="http://www.w3.org/2000/svg"
   xmlns:svg="http://www.w3.org/2000/svg"><defs
     id="defs14" /><sodipodi:namedview
     id="namedview12"
     pagecolor="#ffffff"
     bordercolor="#000000"
     borderopacity="0.25"
     inkscape:showpageshadow="2"
     inkscape:pageopacity="0.0"
     inkscape:pagecheckerboard="0"
     inkscape:deskcolor="#d1d1d1"
     showgrid="false"
     inkscape:zoom="8.0234375"
     inkscape:cx="-51.224927"
     inkscape:cy="7.5404089"
     inkscape:current-layer="svg10" /><path
     style="fill:#444444"
     d="M 8 0 C 5.93 0 4.1702 1.2705 3.4102 3.0605 C 1.4802 3.3505 0 4.99 0 7 C 0 9.21 1.79 11 4 11 L 5.1758 11 A 3 3 0 0 1 8 9 A 3 3 0 0 1 10.826 11 L 12.5 11 C 14.43 11 16 9.43 16 7.5 C 16 5.7 14.65 4.2293 12.91 4.0293 C 12.45 1.7393 10.43 -5.9212e-16 8 0 z"
     id="path2" /><path
     style="fill:#444444"
     d="M 5,14 A 2,2 0 0 1 3,16 2,2 0 0 1 1,14 2,2 0 0 1 3,12 2,2 0 0 1 5,14 Z"
     id="path4" /><path
     style="fill:#444444"
     d="M 10,12 A 2,2 0 0 1 8,14 2,2 0 0 1 6,12 2,2 0 0 1 8,10 2,2 0 0 1 10,12 Z"
     id="path6" /><path
     style="fill:#444444"
     d="M 15,14 A 2,2 0 0 1 13,16 2,2 0 0 1 11,14 2,2 0 0 1 13,12 2,2 0 0 1 15,14 Z"
     id="path8" /></svg>
