<?xml version="1.0" encoding="UTF-8" standalone="no"?>
<svg
   width="16"
   height="16"
   version="1.1"
   id="svg6"
   sodipodi:docname="weather-overcast-symbolic.svg"
   xml:space="preserve"
   inkscape:version="1.2.1 (9c6d41e410, 2022-07-14)"
   xmlns:inkscape="http://www.inkscape.org/namespaces/inkscape"
   xmlns:sodipodi="http://sodipodi.sourceforge.net/DTD/sodipodi-0.dtd"
   xmlns="http://www.w3.org/2000/svg"
   xmlns:svg="http://www.w3.org/2000/svg"><defs
     id="defs10" /><sodipodi:namedview
     id="namedview8"
     pagecolor="#ffffff"
     bordercolor="#000000"
     borderopacity="0.25"
     inkscape:showpageshadow="2"
     inkscape:pageopacity="0.0"
     inkscape:pagecheckerboard="0"
     inkscape:deskcolor="#d1d1d1"
     showgrid="false"
     inkscape:zoom="16.046875"
     inkscape:cx="-4.9230769"
     inkscape:cy="12.619279"
     inkscape:current-layer="svg6" /><path
     d="M 12,13.6 H 3.2 C 1.4352,13.6 0,12.1648 0,10.4 0,8.9111999 1.0216,7.6568003 2.4008,7.3008002 l -8e-4,-0.1008 c 0,-2.6472 2.1528,-4.8 4.8,-4.8 2.0696,0 3.8592,1.3104 4.52,3.212 2.3536,-0.1968 4.28,1.6904 4.28,3.9879998 0,2.2056 -1.7944,4 -4,4 z M 3.124,8.7951999 C 2.3176,8.7999999 1.6,9.5176 1.6,10.4 1.6,11.2824 2.3176,12 3.2,12 H 12 c 1.3232,0 2.4,-1.0768 2.4,-2.4 0,-1.3231997 -1.0768,-2.3999998 -2.4,-2.3999998 -0.1944,0 -0.4,0.0328 -0.648,0.104 l -0.86,0.2456001 -0.1488,-0.8824001 c -0.26,-1.5456 -1.5816,-2.6672 -3.1432,-2.6672 -1.7648,0 -3.2,1.4352 -3.2,3.2 0,0.2176001 0.0216,0.4360001 0.0656,0.6488001 l 0.1952,0.9591996 z"
     id="path239"
     style="fill:#444444;fill-opacity:1;stroke-width:0.8" /></svg>
