<?xml version="1.0" encoding="UTF-8" standalone="no"?>
<svg
   width="16"
   height="16"
   version="1.1"
   id="svg4"
   sodipodi:docname="weather-few-clouds-symbolic.svg"
   xml:space="preserve"
   inkscape:version="1.2.1 (9c6d41e410, 2022-07-14)"
   xmlns:inkscape="http://www.inkscape.org/namespaces/inkscape"
   xmlns:sodipodi="http://sodipodi.sourceforge.net/DTD/sodipodi-0.dtd"
   xmlns="http://www.w3.org/2000/svg"
   xmlns:svg="http://www.w3.org/2000/svg"><defs
     id="defs8" /><sodipodi:namedview
     id="namedview6"
     pagecolor="#ffffff"
     bordercolor="#000000"
     borderopacity="0.25"
     inkscape:showpageshadow="2"
     inkscape:pageopacity="0.0"
     inkscape:pagecheckerboard="0"
     inkscape:deskcolor="#d1d1d1"
     showgrid="false"
     inkscape:zoom="16.046875"
     inkscape:cx="-10.282376"
     inkscape:cy="16.73223"
     inkscape:current-layer="svg4" /><path
     d="M 9.868287,1.56285 9.1372996,3.7558091 8.4063136,1.56285 C 8.2718124,1.1586146 8.4896503,0.72294669 8.8931502,0.5884452 9.2973859,0.45321274 9.7337845,0.67177763 9.868287,1.0752821 c 0.054825,0.165203 0.051165,0.3347918 0,0.4875679 z m 3.92101,2.2295083 -2.06796,1.0343457 1.034346,-2.0679603 c 0.190787,-0.3808438 0.653501,-0.5343509 1.033614,-0.3450255 0.380845,0.1907874 0.534352,0.6535018 0.345025,1.0343456 -0.07821,0.1549691 -0.200288,0.271927 -0.345025,0.3442945 z m 1.195894,4.3493688 -2.192959,-0.7309863 2.192959,-0.7309864 c 0.404235,-0.1352325 0.839903,0.083333 0.975137,0.4875679 0.134501,0.4035044 -0.08406,0.8391724 -0.488299,0.9744048 -0.164473,0.054824 -0.334062,0.050438 -0.486838,0 z M 5.5189173,2.7587437 6.5532633,4.826704 4.4853026,3.7923583 C 4.1044593,3.6015709 3.9502207,3.1388566 4.1402772,2.7587437 4.3310649,2.3778999 4.7945101,2.2243928 5.1738919,2.4137182 5.329592,2.4919338 5.4465503,2.6140084 5.5189173,2.7587437 Z m 6.7440817,5.6329808 c 0.101606,-0.3099383 0.16374,-0.6366892 0.16374,-0.9809837 0,-1.8135772 -1.475861,-3.2894386 -3.2894394,-3.2894386 -0.9795217,0 -1.8545117,0.434206 -2.4539213,1.1169472 L 6.5788474,5.2177814 c -1.2982319,0 -2.4626928,0.5701692 -3.2667781,1.4700135 C 3.1366328,6.6293161 2.9670439,6.62493 2.8025724,6.6797569 2.3983366,6.8149894 2.1797722,7.2506573 2.3142734,7.6541618 2.3559371,7.7762365 2.4297693,7.8727266 2.5167564,7.9545972 2.3098872,8.4640946 2.1929299,9.0203751 2.1929299,9.6037024 l 0.00149,0.092102 C 0.93346871,10.021093 -3.7694907e-7,11.16728 -3.7694907e-7,12.527645 -3.7694907e-7,14.140201 1.3121203,15.45159 2.9239449,15.45159 h 8.0408501 c 2.01533,0 3.654932,-1.639602 3.654932,-3.654931 0,-1.556271 -0.982446,-2.8793556 -2.3567,-3.4049348 z M 9.1372996,5.5832749 c 1.0080314,0 1.8274674,0.8194357 1.8274674,1.8274659 0,0.267541 -0.07017,0.5160763 -0.173976,0.7448751 -0.258768,0.01535 -0.526309,0.054093 -0.8172428,0.1374254 C 9.5927046,7.3040168 8.8010457,6.5277092 7.8047122,6.169526 8.1380414,5.8113427 8.6102589,5.5832749 9.1372996,5.5832749 Z M 10.964767,13.989618 H 2.923916 c -0.8070091,0 -1.4619721,-0.655695 -1.4619721,-1.461973 0,-0.806278 0.654963,-1.461972 1.3947215,-1.466359 l 1.0394623,0.0117 -0.1812842,-0.878646 c -0.040202,-0.192245 -0.059939,-0.3918046 -0.059939,-0.5906326 0,-1.6125557 1.3121207,-2.9239452 2.9239454,-2.9239452 l 0.050438,-0.010234 c 1.3917987,0.040204 2.5547973,1.0277667 2.8121045,2.3903254 l 0.027775,0.1359635 c 0.089914,0.3187051 0.3779211,0.5160717 0.6915142,0.5204579 l 0.211255,-0.016813 c 0.228068,-0.065789 0.415932,-0.09576 0.592831,-0.09576 1.209051,0 2.192959,0.983909 2.192959,2.19296 0,1.209051 -0.983908,2.192959 -2.192959,2.192959 z"
     id="path237"
     style="fill:#444444;fill-opacity:1;stroke-width:0.730986" /></svg>
