<?xml version="1.0" encoding="UTF-8" standalone="no"?>
<svg
   width="16"
   height="16"
   version="1.1"
   id="svg4"
   sodipodi:docname="weather-clear-symbolic.svg"
   xml:space="preserve"
   inkscape:version="1.2.1 (9c6d41e410, 2022-07-14)"
   xmlns:inkscape="http://www.inkscape.org/namespaces/inkscape"
   xmlns:sodipodi="http://sodipodi.sourceforge.net/DTD/sodipodi-0.dtd"
   xmlns="http://www.w3.org/2000/svg"
   xmlns:svg="http://www.w3.org/2000/svg"><defs
     id="defs8" /><sodipodi:namedview
     id="namedview6"
     pagecolor="#ffffff"
     bordercolor="#000000"
     borderopacity="0.25"
     inkscape:showpageshadow="2"
     inkscape:pageopacity="0.0"
     inkscape:pagecheckerboard="0"
     inkscape:deskcolor="#d1d1d1"
     showgrid="false"
     inkscape:zoom="11.346854"
     inkscape:cx="-21.944409"
     inkscape:cy="-2.5117094"
     inkscape:current-layer="svg4" /><path
     d="m 8.8512271,1.1897974 -0.85127,2.4976262 -0.85127,-2.4976262 c -0.160039,-0.47075232 0.09024,-0.98066312 0.560987,-1.14155312 0.469901,-0.1600388 0.981514,0.091086 1.141553,0.5609869 0.0664,0.1957921 0.06129,0.39924572 0,0.58056622 z m -7.66143,5.9588901 2.497626,0.85127 -2.497626,0.85127 C 0.71904506,9.0112663 0.20913406,8.7609929 0.04824406,8.2902406 c -0.160039,-0.469901 0.09109,-0.9815143 0.560987,-1.1415531 0.195792,-0.066399 0.39924604,-0.061291 0.58056604,0 z m 5.95889,7.6614305 0.85127,-2.497627 0.85127,2.497627 c 0.160039,0.470752 -0.09023,0.980663 -0.560987,1.141553 -0.469901,0.160038 -0.980663,-0.09023 -1.141553,-0.560987 -0.0664,-0.195792 -0.06129,-0.399246 0,-0.580566 z M 14.810117,8.849525 12.312491,7.998255 14.810117,7.146985 C 15.28087,6.9869462 15.79078,7.23722 15.95167,7.7079719 16.111709,8.177873 15.86144,8.688635 15.390684,8.849525 c -0.195793,0.066399 -0.399246,0.061291 -0.580567,0 z M 3.7861711,2.5824751 4.9498571,4.949857 2.5824751,3.7861709 C 2.1364091,3.5673945 1.9525351,3.0276893 2.1713111,2.5824751 2.3909391,2.1372609 2.9297931,1.9533866 3.3750071,2.172163 c 0.185577,0.091086 0.326037,0.2383556 0.411164,0.4103121 z m -1.203696,9.6304179 2.367382,-1.163686 -1.163686,2.367382 c -0.218777,0.445214 -0.758482,0.629088 -1.203696,0.410312 -0.445214,-0.219628 -0.629089,-0.758482 -0.410312,-1.203696 0.09109,-0.185577 0.238355,-0.325185 0.410312,-0.410312 z m 9.6304179,1.203696 -1.163687,-2.367382 2.367382,1.163686 c 0.445215,0.218776 0.629089,0.758481 0.410312,1.203696 -0.219627,0.445214 -0.758481,0.629088 -1.203695,0.410312 -0.185577,-0.09109 -0.325185,-0.238356 -0.410312,-0.410312 z m 1.202844,-9.6321206 -2.368233,1.1645374 1.164537,-2.3682332 c 0.218777,-0.4452142 0.758482,-0.6290886 1.203696,-0.4103122 0.445214,0.2196277 0.629089,0.7584816 0.409461,1.2045471 -0.09023,0.1847256 -0.237504,0.3243339 -0.409461,0.4094609 z M 7.9999571,11.830673 c -2.112001,0 -3.830715,-1.718715 -3.830715,-3.8307155 0,-2.1120009 1.718714,-3.8307151 3.830715,-3.8307151 2.1120009,0 3.8307149,1.7187142 3.8307149,3.8307151 0,2.1120005 -1.718714,3.8307155 -3.8307149,3.8307155 z m 0,-5.9588905 c -1.173901,0 -2.128175,0.9542737 -2.128175,2.128175 0,1.1739014 0.954274,2.1281755 2.128175,2.1281755 1.173902,0 2.1281749,-0.9542741 2.1281749,-2.1281755 0,-1.1739013 -0.9542729,-2.128175 -2.1281749,-2.128175 z"
     id="path237"
     style="stroke-width:0.85127;fill:#444444;fill-opacity:1" /></svg>
