<?xml version="1.0" encoding="UTF-8" standalone="no"?>
<svg
   width="16"
   height="16"
   version="1.1"
   id="svg4"
   sodipodi:docname="weather-clear-night-symbolic.svg"
   xml:space="preserve"
   inkscape:version="1.2.1 (9c6d41e410, 2022-07-14)"
   xmlns:inkscape="http://www.inkscape.org/namespaces/inkscape"
   xmlns:sodipodi="http://sodipodi.sourceforge.net/DTD/sodipodi-0.dtd"
   xmlns="http://www.w3.org/2000/svg"
   xmlns:svg="http://www.w3.org/2000/svg"><defs
     id="defs8" /><sodipodi:namedview
     id="namedview6"
     pagecolor="#ffffff"
     bordercolor="#000000"
     borderopacity="0.25"
     inkscape:showpageshadow="2"
     inkscape:pageopacity="0.0"
     inkscape:pagecheckerboard="0"
     inkscape:deskcolor="#d1d1d1"
     showgrid="false"
     inkscape:zoom="16.046875"
     inkscape:cx="-5.6708861"
     inkscape:cy="9.8149951"
     inkscape:current-layer="svg4" /><path
     d="M 6.97,15.5 C 6.109,15.5 5.26,15.349 4.447,15.049 L 3.13,14.564 4.02,13.477 c 1.275,-1.56 1.95,-3.454 1.95,-5.4769999 0,-2.023 -0.675,-3.917 -1.951,-5.477 L 3.129,1.4360002 4.446,0.95100027 c 0.814,-0.3 1.663,-0.451 2.524,-0.451 4.136,0 7.5,3.36399983 7.5,7.49999983 C 14.47,12.136 11.106,15.5 6.97,15.5 Z M 6.4609999,13.476 C 6.6299999,13.492 6.8,13.5 6.97,13.5 c 3.032,0 5.5,-2.468 5.5,-5.4999999 0,-3.032 -2.468,-5.5 -5.5,-5.5 -0.17,0 -0.34,0.008 -0.5090001,0.024 0.991,1.645 1.5090001,3.511 1.5090001,5.476 0,1.965 -0.518,3.8309999 -1.5090001,5.4759999 z"
     id="path237"
     style="fill:#444444;fill-opacity:1" /></svg>
