<?xml version="1.0" encoding="UTF-8" standalone="no"?>
<svg
   width="16"
   height="16"
   version="1.1"
   id="svg6"
   sodipodi:docname="weather-severe-alert-symbolic.svg"
   xml:space="preserve"
   inkscape:version="1.2.1 (9c6d41e410, 2022-07-14)"
   xmlns:inkscape="http://www.inkscape.org/namespaces/inkscape"
   xmlns:sodipodi="http://sodipodi.sourceforge.net/DTD/sodipodi-0.dtd"
   xmlns="http://www.w3.org/2000/svg"
   xmlns:svg="http://www.w3.org/2000/svg"><defs
     id="defs10" /><sodipodi:namedview
     id="namedview8"
     pagecolor="#ffffff"
     bordercolor="#000000"
     borderopacity="0.25"
     inkscape:showpageshadow="2"
     inkscape:pageopacity="0.0"
     inkscape:pagecheckerboard="0"
     inkscape:deskcolor="#d1d1d1"
     showgrid="false"
     inkscape:zoom="22.693708"
     inkscape:cx="-5.1996791"
     inkscape:cy="8.262202"
     inkscape:current-layer="svg6" /><g
     id="g888"
     transform="translate(0,0.67435895)"
     style="fill:#444444;fill-opacity:1"><path
       style="fill:#444444;fill-opacity:1;stroke-width:0.8"
       d="m 12,11.851283 c -0.4416,0 -0.8,-0.3576 -0.8,-0.8 0,-0.442401 0.3584,-0.800001 0.8,-0.800001 1.3232,0 2.4,-1.0768001 2.4,-2.4000001 0,-1.3232 -1.0768,-2.4 -2.4,-2.4 -0.1944,0 -0.4,0.0328 -0.648,0.104 l -0.86,0.2456 -0.148,-0.8824 c -0.2608,-1.5456 -1.5824001,-2.6672 -3.1440001,-2.6672 -1.7648,0 -3.2,1.4352 -3.2,3.2 0,0.2176 0.0216,0.436 0.0656,0.6488 l 0.1952,0.9592 -1.136,-0.0128 c -0.8072,0.0048 -1.5248,0.7224 -1.5248,1.6048 0,0.8824 0.7176,1.6000001 1.6,1.6000001 0.4416,0 0.8,0.3576 0.8,0.800001 0,0.4424 -0.3584,0.8 -0.8,0.8 -1.7648,0 -3.199999999999995,-1.435201 -3.199999999999995,-3.2000011 0,-1.4888 1.021599999999995,-2.7432 2.400799999999995,-3.0992 l -8e-4,-0.1008 c 0,-2.6472 2.1528,-4.7999998 4.8,-4.7999998 2.0696,0 3.8592001,1.3103998 4.5200001,3.2119998 2.3512,-0.1952 4.28,1.6904 4.28,3.988 0,2.2056001 -1.7944,4.0000011 -4,4.0000011 z"
       id="path239" /><g
       id="g253"
       transform="translate(-0.29990603,1)"
       style="fill:#444444;fill-opacity:1"><path
         style="fill:#444444;fill-opacity:1"
         d="M 8,11"
         id="path293" /><path
         style="fill:#444444;fill-opacity:1"
         d="m 8,11 c 0.550781,0 1,0.449219 1,1 0,0.550781 -0.449219,1 -1,1 -0.550781,0 -1,-0.449219 -1,-1 0,-0.550781 0.449219,-1 1,-1 z"
         id="path291" /><path
         style="fill:#444444;fill-opacity:1"
         d="M 9,4 V 9 C 9.007812,9.527344 8.527344,10 8,10 7.472656,10 6.992188,9.527344 7,9 V 4 Z"
         id="path289" /></g></g></svg>
