<?xml version="1.0" encoding="UTF-8" standalone="no"?>
<svg
   width="16"
   height="16"
   version="1.1"
   id="svg10"
   sodipodi:docname="weather-snow-symbolic.svg"
   xml:space="preserve"
   inkscape:version="1.2.1 (9c6d41e410, 2022-07-14)"
   xmlns:inkscape="http://www.inkscape.org/namespaces/inkscape"
   xmlns:sodipodi="http://sodipodi.sourceforge.net/DTD/sodipodi-0.dtd"
   xmlns="http://www.w3.org/2000/svg"
   xmlns:svg="http://www.w3.org/2000/svg"><defs
     id="defs14" /><sodipodi:namedview
     id="namedview12"
     pagecolor="#ffffff"
     bordercolor="#000000"
     borderopacity="0.25"
     inkscape:showpageshadow="2"
     inkscape:pageopacity="0.0"
     inkscape:pagecheckerboard="0"
     inkscape:deskcolor="#d1d1d1"
     showgrid="false"
     inkscape:zoom="8.0234375"
     inkscape:cx="-51.224927"
     inkscape:cy="7.6650438"
     inkscape:current-layer="svg10" /><path
     d="M 14.330504,10.671747 12.236546,10.24305 13.500418,9.9055643 C 13.954629,9.7836701 14.224826,9.3174979 14.102939,8.8615626 13.98189,8.4073496 13.515713,8.1371619 13.058935,8.2590466 L 11.773757,8.602547 c 0.03148,-0.1968915 0.06062,-0.3954252 0.06062,-0.6016679 0,-0.2062426 -0.02913,-0.4056692 -0.06062,-0.6025183 l 1.286883,0.3443485 0.221609,0.028664 c 0.37583,0 0.720994,-0.2514101 0.822412,-0.6314835 0.121894,-0.454213 -0.148303,-0.9221239 -0.602514,-1.0439946 L 12.238271,5.7575662 14.330525,5.3297149 C 14.514635,5.2921219 14.688449,5.196778 14.822232,5.0459375 15.151214,4.674336 15.117991,4.1067612 14.746392,3.7778049 14.374794,3.4488239 13.807224,3.4820455 13.47826,3.8536479 L 12.060975,5.4507467 12.400154,4.1902844 C 12.522894,3.7360713 12.252697,3.2681543 11.798482,3.1454308 11.34596,3.0243825 10.876358,3.2928879 10.753637,3.747101 L 10.406751,5.0399555 C 10.094828,4.7851339 9.7496815,4.576346 9.3678715,4.4289084 L 10.307041,3.4897368 c 0.333167,-0.3332115 0.333167,-0.8718413 0,-1.2050718 -0.3332565,-0.3332564 -0.8718415,-0.3332564 -1.2050645,0 l -0.925533,0.9255356 0.675819,-2.0274797 c 0.0585,-0.178142 0.06414,-0.37583199 0,-0.56847399 -0.156808,-0.470427 -0.665599,-0.725251 -1.136031,-0.567557 -0.470425,0.156808 -0.72441,0.66476 -0.568471,1.13604499 l 0.675822,2.0274798 -0.925536,-0.9255356 c -0.333258,-0.3331624 -0.871839,-0.3331624 -1.205064,0 -0.333212,0.3332587 -0.333212,0.8718462 0,1.2050718 l 0.939167,0.9391659 c -0.380954,0.1474571 -0.726966,0.357084 -1.038877,0.6110434 L 5.2480775,3.7488209 C 5.1261835,3.293762 4.6540905,3.0227073 4.2049295,3.145459 3.7497785,3.2673531 3.4796755,3.7335254 3.6015715,4.1886012 L 3.9390555,5.4541794 2.5226275,3.854522 C 2.3981965,3.7147337 2.2286515,3.6116265 2.0300705,3.5707445 1.5442795,3.4709925 1.0695925,3.7838102 0.96987847,4.269618 0.87011847,4.7554098 1.1838275,5.2309449 1.6704405,5.3306523 l 2.091405,0.4286971 -1.261315,0.3374879 c -0.454213,0.1218941 -0.724408,0.5889145 -0.602518,1.0440016 0.101453,0.3809544 0.445707,0.6314835 0.822416,0.6314835 l 0.221609,-0.029134 1.285179,-0.3443016 c -0.03289,0.1968914 -0.06203,0.3962734 -0.06203,0.6016749 0,0.2062426 0.02866,0.4048257 0.06062,0.6025136 L 2.9406315,8.2587268 c -0.453368,-0.1210483 -0.921276,0.1474571 -1.044002,0.6025183 -0.12274,0.4542084 0.148303,0.9221193 0.602518,1.0439899 l 1.263879,0.338334 -2.092263,0.427849 c -0.18411,0.03712 -0.357929,0.132937 -0.491712,0.284623 -0.32977903,0.371603 -0.29575703,0.939175 0.07584,1.267288 0.371603,0.329828 0.94002,0.295666 1.268133,-0.07584 l 1.418979,-1.600511 -0.33918,1.264722 c -0.12274,0.45421 0.147458,0.922131 0.602519,1.044001 l 0.221608,0.02866 c 0.375833,0 0.720144,-0.250564 0.822415,-0.631483 l 0.34599,-1.29115 c 0.311923,0.253948 0.657073,0.463564 1.039731,0.610204 l -0.940869,0.93917 c -0.333212,0.332413 -0.333212,0.871836 0,1.205069 0.333162,0.333259 0.871839,0.333259 1.205065,0 l 0.601668,-0.602518 h 0.214795 l -0.567626,1.703623 c -0.0585,0.178095 -0.06414,0.375832 0,0.568478 0.156809,0.47042 0.665604,0.725256 1.136031,0.56755 0.471283,-0.156808 0.725273,-0.66475 0.568483,-1.13603 l -0.567985,-1.70362 h 0.214795 l 0.602514,0.602518 c 0.167052,0.166206 0.38434,0.249747 0.602516,0.249747 0.218131,0 0.4364035,-0.08355 0.6025175,-0.249747 0.333165,-0.332364 0.333165,-0.871839 0,-1.20507 L 9.3678265,11.571064 c 0.3818,-0.146611 0.7278115,-0.356237 1.0397345,-0.611045 l 0.345993,1.292849 c 0.102299,0.381001 0.445659,0.631488 0.822412,0.631488 l 0.221609,-0.02866 c 0.45421,-0.121847 0.725263,-0.58891 0.602518,-1.043997 l -0.338334,-1.26132 1.416432,1.597102 c 0.124385,0.140597 0.293975,0.242896 0.491712,0.283778 0.485796,0.09971 0.961326,-0.213902 1.06019,-0.699717 0.09976,-0.485795 -0.213949,-0.960478 -0.699714,-1.060187 z M 8.0000535,10.131402 c -1.175242,0 -2.130607,-0.9553652 -2.130607,-2.1306121 0,-1.1752352 0.955365,-2.1306005 2.130607,-2.1306005 1.175242,0 2.1306095,0.9553653 2.1306095,2.1306005 0,1.1752469 -0.9553675,2.1306121 -2.1306095,2.1306121 z"
     id="path248-6"
     style="fill:#444444;fill-opacity:1;stroke-width:0.852244" /></svg>
