<?xml version="1.0" encoding="UTF-8" standalone="no"?>
<svg
   width="16"
   height="16"
   version="1.1"
   id="svg6"
   sodipodi:docname="weather-storm-symbolic.svg"
   xml:space="preserve"
   inkscape:version="1.2.1 (9c6d41e410, 2022-07-14)"
   xmlns:inkscape="http://www.inkscape.org/namespaces/inkscape"
   xmlns:sodipodi="http://sodipodi.sourceforge.net/DTD/sodipodi-0.dtd"
   xmlns="http://www.w3.org/2000/svg"
   xmlns:svg="http://www.w3.org/2000/svg"><defs
     id="defs10" /><sodipodi:namedview
     id="namedview8"
     pagecolor="#ffffff"
     bordercolor="#000000"
     borderopacity="0.25"
     inkscape:showpageshadow="2"
     inkscape:pageopacity="0.0"
     inkscape:pagecheckerboard="0"
     inkscape:deskcolor="#d1d1d1"
     showgrid="false"
     inkscape:zoom="16.046875"
     inkscape:cx="-0.062317429"
     inkscape:cy="12.183057"
     inkscape:current-layer="svg6" /><path
     d="m 12,11.6 c -0.4424,0 -0.8,-0.3576 -0.8,-0.8 0,-0.4424 0.3576,-0.8000002 0.8,-0.8000002 1.3232,0 2.4,-1.0767999 2.4,-2.3999999 0,-1.3231997 -1.0768,-2.3999997 -2.4,-2.3999997 -0.1904,0 -0.3968,0.0336 -0.6504,0.1048 l -0.8568,0.2408 -0.1488,-0.8784 c -0.2608,-1.5456 -1.5832,-2.6672 -3.144,-2.6672 -1.764,0 -3.2,1.4352 -3.2,3.2 0,0.2192 0.0216,0.436 0.0656,0.6448 l 0.208,0.992 -1.1488,-0.0416 C 2.3168,6.8000002 1.6,7.5175999 1.6,8.3999999 1.6,9.2823998 2.3168,9.9999998 3.2,9.9999998 3.6424,9.9999998 4,10.3576 4,10.8 4,11.2424 3.6424,11.6 3.2,11.6 1.436,11.6 0,10.1648 0,8.3999999 0,6.9112002 1.0216,5.6568002 2.4016,5.3008002 L 2.4,5.2000002 c 0,-2.6472 2.1528,-4.8 4.8,-4.8 2.0696,0 3.8592,1.3104 4.5192,3.212 C 14.0592,3.4192002 16,5.3016002 16,7.5999999 16,9.8055998 14.2056,11.6 12,11.6 Z m -3.4888,-3.2000001 -3.6,3.2408001 2.4,1.1592 -1.2,2.8 3.6,-3.24 -2.4,-1.16 z"
     id="path239"
     style="fill:#444444;fill-opacity:1;stroke-width:0.8" /></svg>
