<?xml version="1.0" encoding="UTF-8" standalone="no"?>
<svg
   width="16"
   height="16"
   version="1.1"
   id="svg6"
   sodipodi:docname="weather-showers-scattered-symbolic.svg"
   xml:space="preserve"
   inkscape:version="1.2.1 (9c6d41e410, 2022-07-14)"
   xmlns:inkscape="http://www.inkscape.org/namespaces/inkscape"
   xmlns:sodipodi="http://sodipodi.sourceforge.net/DTD/sodipodi-0.dtd"
   xmlns="http://www.w3.org/2000/svg"
   xmlns:svg="http://www.w3.org/2000/svg"><defs
     id="defs10" /><sodipodi:namedview
     id="namedview8"
     pagecolor="#ffffff"
     bordercolor="#000000"
     borderopacity="0.25"
     inkscape:showpageshadow="2"
     inkscape:pageopacity="0.0"
     inkscape:pagecheckerboard="0"
     inkscape:deskcolor="#d1d1d1"
     showgrid="false"
     inkscape:zoom="8.0234375"
     inkscape:cx="-26.67186"
     inkscape:cy="7.2911392"
     inkscape:current-layer="svg6" /><path
     d="m 12,12.244893 c -0.4416,0 -0.8,-0.3576 -0.8,-0.8 0,-0.4424 0.3584,-0.8 0.8,-0.8 1.3232,0 2.4,-1.0768005 2.4,-2.4000005 0,-1.3232 -1.0768,-2.4 -2.4,-2.4 -0.1944,0 -0.4,0.0328 -0.648,0.104 l -0.86,0.2456 -0.148,-0.8824 c -0.2608,-1.5456 -1.5824,-2.6672 -3.144,-2.6672 -1.7648,0 -3.2,1.4352 -3.2,3.2 0,0.2176 0.0216,0.436 0.0656,0.6488 l 0.1952,0.9592 -1.136,-0.0128 c -0.8072,0.0048 -1.5248,0.7224 -1.5248,1.6048 0,0.8824 0.7176,1.6000005 1.6,1.6000005 0.4416,0 0.8,0.3576 0.8,0.8 0,0.4424 -0.3584,0.8 -0.8,0.8 -1.7648,0 -3.2,-1.4352 -3.2,-3.2000005 0,-1.4888 1.0216,-2.7432 2.4008,-3.0992 l -8e-4,-0.1008 c 0,-2.6472 2.1528,-4.8 4.8,-4.8 2.0696,0 3.8592,1.3104 4.52,3.212 2.3512,-0.1952 4.28,1.6904 4.28,3.988 0,2.2056005 -1.7944,4.0000005 -4,4.0000005 z m -5.2,0 0.8,-2.4000005 0.8,2.4000005 c 0.1472,0.4424 -0.0912,0.9192 -0.5336,1.0664 -0.4416,0.148 -0.9192,-0.0912 -1.0664,-0.5328 -0.06,-0.1808 -0.056,-0.3664 0,-0.5336 z m 2.4,1.6 0.8,-2.4 0.8,2.4 c 0.1472,0.4424 -0.0912,0.9192 -0.5336,1.0664 -0.4416,0.148 -0.9192,-0.0912 -1.0664,-0.5328 -0.06,-0.1808 -0.056,-0.3664 0,-0.5336 z m -4.8,0 0.8,-2.4 0.8,2.4 c 0.1472,0.4424 -0.0912,0.9192 -0.5336,1.0664 -0.4416,0.148 -0.9192,-0.0912 -1.0664,-0.5328 -0.06,-0.1808 -0.056,-0.3664 0,-0.5336 z"
     id="path239"
     style="fill:#444444;fill-opacity:1;stroke-width:0.8" /></svg>
