<?xml version="1.0" encoding="UTF-8" standalone="no"?>
<svg
   xmlns:dc="http://purl.org/dc/elements/1.1/"
   xmlns:cc="http://creativecommons.org/ns#"
   xmlns:rdf="http://www.w3.org/1999/02/22-rdf-syntax-ns#"
   xmlns:svg="http://www.w3.org/2000/svg"
   xmlns="http://www.w3.org/2000/svg"
   xmlns:xlink="http://www.w3.org/1999/xlink"
   xmlns:sodipodi="http://sodipodi.sourceforge.net/DTD/sodipodi-0.dtd"
   xmlns:inkscape="http://www.inkscape.org/namespaces/inkscape"
   width="64"
   height="64"
   viewBox="0 0 64 64"
   version="1.1"
   id="svg71"
   sodipodi:docname="avernote.svg"
   inkscape:version="1.0.2 (e86c870879, 2021-01-15)">
  <metadata
     id="metadata75">
    <rdf:RDF>
      <cc:Work
         rdf:about="">
        <dc:format>image/svg+xml</dc:format>
        <dc:type
           rdf:resource="http://purl.org/dc/dcmitype/StillImage" />
        <dc:title></dc:title>
      </cc:Work>
    </rdf:RDF>
  </metadata>
  <sodipodi:namedview
     pagecolor="#ffffff"
     bordercolor="#666666"
     borderopacity="1"
     objecttolerance="10"
     gridtolerance="10"
     guidetolerance="10"
     inkscape:pageopacity="0"
     inkscape:pageshadow="2"
     inkscape:window-width="1920"
     inkscape:window-height="1028"
     id="namedview73"
     showgrid="false"
     inkscape:zoom="2.6074563"
     inkscape:cx="-110.01322"
     inkscape:cy="71.262855"
     inkscape:window-x="0"
     inkscape:window-y="24"
     inkscape:window-maximized="1"
     inkscape:current-layer="svg71"
     inkscape:document-rotation="0" />
  <defs
     id="defs38">
    <linearGradient
       inkscape:collect="always"
       id="linearGradient984">
      <stop
         style="stop-color:#c7ebc9;stop-opacity:1;"
         offset="0"
         id="stop980" />
      <stop
         style="stop-color:#c7ebc9;stop-opacity:0;"
         offset="1"
         id="stop982" />
    </linearGradient>
    <linearGradient
       inkscape:collect="always"
       id="linearGradient970">
      <stop
         style="stop-color:#ffffff;stop-opacity:1;"
         offset="0"
         id="stop966" />
      <stop
         style="stop-color:#ffffff;stop-opacity:0.88627451;"
         offset="0.58257204"
         id="stop976" />
      <stop
         style="stop-color:#ffffff;stop-opacity:0;"
         offset="1"
         id="stop968" />
    </linearGradient>
    <linearGradient
       inkscape:collect="always"
       id="linearGradient936">
      <stop
         style="stop-color:#ffffff;stop-opacity:1;"
         offset="0"
         id="stop932" />
      <stop
         style="stop-color:#ffffff;stop-opacity:0.78039216;"
         offset="0.47852153"
         id="stop962" />
      <stop
         style="stop-color:#ffffff;stop-opacity:0;"
         offset="1"
         id="stop934" />
    </linearGradient>
    <linearGradient
       inkscape:collect="always"
       id="linearGradient916">
      <stop
         style="stop-color:#55d2a0;stop-opacity:1"
         offset="0"
         id="stop912" />
      <stop
         style="stop-color:#5ed4a4;stop-opacity:1;"
         offset="0.6013059"
         id="stop922" />
      <stop
         style="stop-color:#73d8ae;stop-opacity:1;"
         offset="0.68004149"
         id="stop926" />
      <stop
         style="stop-color:#8bddba;stop-opacity:1;"
         offset="0.77924019"
         id="stop928" />
      <stop
         style="stop-color:#e7f1e9;stop-opacity:1;"
         offset="0.94771761"
         id="stop924" />
      <stop
         style="stop-color:#f0f3ee;stop-opacity:1"
         offset="1"
         id="stop914" />
    </linearGradient>
    <linearGradient
       inkscape:collect="always"
       id="linearGradient908">
      <stop
         style="stop-color:#a6e81f;stop-opacity:1"
         offset="0"
         id="stop904" />
      <stop
         style="stop-color:#1ea889;stop-opacity:1"
         offset="1"
         id="stop906" />
    </linearGradient>
    <filter
       id="deepin-system-monitor-a"
       width="1.271"
       height="1.271"
       x="-0.13600001"
       y="-0.13600001"
       filterUnits="objectBoundingBox">
      <feOffset
         dy="2"
         in="SourceAlpha"
         result="shadowOffsetOuter1"
         id="feOffset2" />
      <feGaussianBlur
         in="shadowOffsetOuter1"
         result="shadowBlurOuter1"
         stdDeviation="3"
         id="feGaussianBlur4" />
      <feComposite
         in="shadowBlurOuter1"
         in2="SourceAlpha"
         operator="out"
         result="shadowBlurOuter1"
         id="feComposite6" />
      <feColorMatrix
         in="shadowBlurOuter1"
         result="shadowMatrixOuter1"
         values="0 0 0 0 0   0 0 0 0 0   0 0 0 0 0  0 0 0 0.2 0"
         id="feColorMatrix8" />
      <feMerge
         id="feMerge14">
        <feMergeNode
           in="shadowMatrixOuter1"
           id="feMergeNode10" />
        <feMergeNode
           in="SourceGraphic"
           id="feMergeNode12" />
      </feMerge>
    </filter>
    <radialGradient
       id="deepin-system-monitor-b"
       cx="45.142082"
       cy="24.928679"
       r="118.2478"
       fx="45.142082"
       fy="24.928679"
       gradientUnits="userSpaceOnUse"
       gradientTransform="translate(5,5)">
      <stop
         offset="0%"
         stop-color="#665AFF"
         id="stop17" />
      <stop
         offset="100%"
         stop-color="#4300D7"
         id="stop19" />
    </radialGradient>
    <radialGradient
       id="deepin-system-monitor-d"
       cx="45"
       cy="47.029198"
       r="48.437359"
       fx="45"
       fy="47.029198"
       gradientUnits="userSpaceOnUse">
      <stop
         offset="0%"
         stop-color="#00D8FF"
         id="stop22" />
      <stop
         offset="100%"
         stop-color="#3D00B5"
         id="stop24" />
    </radialGradient>
    <circle
       id="deepin-system-monitor-c"
       cx="45"
       cy="45"
       r="44.5" />
    <path
       id="deepin-system-monitor-g"
       d="m 21.64151,65.934271 c 0.394644,0.842947 1.140491,2.037775 2.263553,3.237186 1.927046,2.058053 4.295368,3.322717 7.094937,3.322717 3.437931,0 5.95441,-2.028842 7.835856,-5.712657 C 40.156352,64.196028 40.923179,61.693656 42.45336,55.70156 45.252025,44.742159 47.078148,41.166667 51,41.166667 c 3.835521,0 5.332627,3.517543 7.187943,14.415498 1.021721,6.001499 1.576123,8.506502 2.681864,11.104511 1.587979,3.731056 3.986748,5.807498 7.463526,5.807498 2.387108,0 4.162416,-1.03284 5.367669,-2.916532 0.847784,-1.325004 1.315099,-2.750961 1.926183,-5.361469 0.03768,-0.160974 0.07394,-0.317107 0.146535,-0.630204 0.967698,-4.168679 1.626254,-5.331571 3.22628,-5.331571 1.210289,0 1.779599,0.816778 2.689596,3.816467 0.04726,0.155795 0.27483,0.91452 0.340318,1.12983 0.139066,0.457226 0.257418,0.832039 0.379104,1.195531 1.995673,5.961341 5.450904,8.798227 12.735935,8.090928 0.82455,-0.08006 1.428082,-0.813382 1.348027,-1.637932 -0.08006,-0.82455 -0.813383,-1.428083 -1.637933,-1.348028 -5.736714,0.556974 -8.01245,-1.311498 -9.601207,-6.057326 -0.111619,-0.333422 -0.222105,-0.683325 -0.353749,-1.116147 -0.06333,-0.208225 -0.290482,-0.965557 -0.339687,-1.127756 C 83.28836,57.006837 82.066875,55.254398 79,55.254398 c -2.037288,0 -3.535812,0.990959 -4.534761,2.754926 -0.671485,1.185723 -1.021551,2.346903 -1.613815,4.898277 -0.07273,0.313679 -0.108299,0.466839 -0.145276,0.624798 -1.054665,4.505458 -1.986468,5.961775 -4.372815,5.961775 -3.835521,0 -5.332626,-3.517544 -7.187942,-14.415498 C 60.123669,49.077177 59.569267,46.572173 58.463526,43.974164 56.875548,40.243109 54.476779,38.166667 51,38.166667 c -3.437931,0 -5.95441,2.028842 -7.835856,5.712656 -1.320496,2.58549 -2.087323,5.087862 -3.617504,11.079958 C 36.747975,65.918682 34.921852,69.494174 31,69.494174 c -1.867098,0 -3.498776,-0.871302 -4.905063,-2.373193 -0.512084,-0.546897 -0.954552,-1.137583 -1.322499,-1.727025 -0.216229,-0.346392 -0.354863,-0.605496 -0.413948,-0.7317 -0.351257,-0.750273 -1.244224,-1.073739 -1.994497,-0.722482 -0.750273,0.351257 -1.07374,1.244224 -0.722483,1.994497 z" />
    <filter
       id="deepin-system-monitor-f"
       width="1.4400001"
       height="1.959"
       x="-0.22"
       y="-0.479"
       filterUnits="objectBoundingBox">
      <feMorphology
         in="SourceAlpha"
         operator="dilate"
         radius="1"
         result="shadowSpreadOuter1"
         id="feMorphology29" />
      <feOffset
         in="shadowSpreadOuter1"
         result="shadowOffsetOuter1"
         id="feOffset31" />
      <feGaussianBlur
         in="shadowOffsetOuter1"
         result="shadowBlurOuter1"
         stdDeviation="4.5"
         id="feGaussianBlur33" />
      <feColorMatrix
         in="shadowBlurOuter1"
         values="0 0 0 0 0.243137255   0 0 0 0 0.423529412   0 0 0 0 1  0 0 0 1 0"
         id="feColorMatrix35" />
    </filter>
    <linearGradient
       inkscape:collect="always"
       xlink:href="#linearGradient908"
       id="linearGradient910"
       x1="9.4508772"
       y1="15.940757"
       x2="37.377998"
       y2="36.852222"
       gradientUnits="userSpaceOnUse" />
    <radialGradient
       inkscape:collect="always"
       xlink:href="#linearGradient916"
       id="radialGradient920"
       gradientUnits="userSpaceOnUse"
       cx="25.077917"
       cy="24.873011"
       fx="25.077917"
       fy="24.873011"
       r="23.232033"
       gradientTransform="matrix(1.5359934,0,0,1.5650779,-14.195176,-14.021287)" />
    <radialGradient
       inkscape:collect="always"
       xlink:href="#linearGradient936"
       id="radialGradient960"
       gradientUnits="userSpaceOnUse"
       gradientTransform="matrix(0.37487649,0.02286013,-0.0157889,0.25891737,19.245392,29.08651)"
       cx="-3.5151477"
       cy="32.19891"
       fx="-3.5151477"
       fy="32.19891"
       r="23.232033" />
    <radialGradient
       inkscape:collect="always"
       xlink:href="#linearGradient970"
       id="radialGradient974"
       gradientUnits="userSpaceOnUse"
       gradientTransform="matrix(0.86089031,0,-2.6826105e-8,0.68092942,14.274724,18.055302)"
       cx="13.042434"
       cy="6.3080897"
       fx="13.042434"
       fy="6.3080897"
       r="23.232033" />
    <radialGradient
       inkscape:collect="always"
       xlink:href="#linearGradient984"
       id="radialGradient986"
       cx="27.718325"
       cy="25.825096"
       fx="27.718325"
       fy="25.825096"
       r="23.232033"
       gradientUnits="userSpaceOnUse" />
  </defs>
  <circle
     style="fill:url(#linearGradient910);fill-opacity:1;stroke:none;stroke-width:3.84794;stroke-linecap:round;stroke-linejoin:round;stroke-miterlimit:4;stroke-dasharray:none;stroke-opacity:1"
     id="path2524"
     cx="28.197128"
     cy="28.089401"
     r="26.40659" />
  <path
     style="fill:#ffffff;fill-opacity:1;stroke-width:1.41339"
     inkscape:connector-curvature="0"
     d="m 37.304075,17.120882 -3.125973,-0.495621 c -0.178423,-0.02872 -0.29892,-0.193983 -0.270611,-0.372563 0,0 0.458712,-2.639795 0.575476,-3.376654 l 0.0017,-0.01567 c 0.09575,-0.604058 0.05048,-1.153633 -0.106496,-1.628801 l -0.07249,-0.214 c 0.0097,0 0.02472,0.01567 0.0308,0.0261 l 5.130486,6.911962 c 0.0078,0.01567 0.01123,0.02784 0.01444,0.04177 -0.113699,-0.08529 -0.272788,-0.194769 -0.296511,-0.209128 -0.491504,-0.321827 -1.109318,-0.550883 -1.88038,-0.673154 M 13.098358,12.61391 c 0.455361,-1.276341 1.343586,-1.794848 2.102176,-1.938008 0.815009,-0.155605 2.423186,-0.188327 4.417934,-0.105821 1.612309,0.06265 3.464901,0.371258 4.58239,0.584039 0.277243,-0.88933 1.057128,-1.617139 1.826206,-1.7937166 2.049063,-0.4565441 4.997813,0.199118 5.730094,0.5331281 0.578026,0.2589935 1.200592,0.7121435 1.487662,1.3000975 0.195575,0.395714 0.286631,0.877409 0.186297,1.510445 -0.05613,0.355853 -0.200606,1.19993 -0.329823,1.950365 -0.131029,0.760618 -0.246906,1.426115 -0.246906,1.426115 -0.106496,0.672285 0.356647,1.303928 1.036677,1.427246 l 3.125963,0.495358 c 0.667213,0.105918 1.160195,0.295457 1.517581,0.530083 0.362904,0.240629 0.602211,0.515984 0.765081,0.831284 0.332471,0.621199 0.293927,1.314632 0.18355,2.010937 0,0 -0.0935,0.557582 -0.407061,1.643508 -0.255138,0.842162 -2.13522,6.658624 -3.311238,8.321537 -0.457822,0.65314 -0.73188,0.90813 -1.4586,1.112296 -1.60908,0.399019 -5.174453,0.563414 -6.818493,0.51172 -1.648894,-0.05482 -2.726213,0.216871 -3.133473,-1.119517 -0.0044,0 -0.07476,-0.331314 -0.165987,-0.811616 -0.275711,-1.650471 -0.124133,-3.056831 0.03576,-4.065824 0.01602,-0.09947 -0.136807,-0.128282 -0.153167,-0.02436 -0.112906,0.712926 -0.373982,3.251596 -2.404466,3.62416 -0.80454,0.145945 -2.414534,0.133152 -4.045241,0.06352 -1.475545,-0.06788 -2.613173,0.330704 -3.195725,4.006211 -0.354463,2.2359 0.07345,2.607508 2.551166,3.000261 2.01308,0.318954 2.77045,0.494749 3.021254,-1.087754 0.203035,-1.281212 -1.10105,-1.339957 -2.045557,-1.48973 -0.420253,-0.06788 -0.06466,-0.329397 0.06005,-1.115776 0.123816,-0.781242 -0.299001,-1.315416 0.172025,-1.249884 3.283058,0.430001 5.198091,0.818752 4.556952,4.863949 -0.582411,3.6742 -2.114873,4.130832 -6.758879,3.394757 -3.639997,-0.577078 -4.906688,-0.904822 -5.679071,-5.751713 -0.152041,-0.957216 -0.4344268,-3.850957 -0.128626,-8.589063 0.194978,-2.990517 2.140209,-11.807849 2.923227,-13.996495 m 4.78324,10.84672 c 0.452619,0.05135 0.882587,0.155603 1.282589,0.285014 0.02019,-0.930059 -0.179416,-2.102402 -1.516649,-2.263751 -1.496694,-0.187022 -1.924709,1.170602 -2.078705,2.109103 0.671972,-0.177622 1.467304,-0.23332 2.317857,-0.129933 m 0,0"
     id="path2032-7-2" />
  <circle
     style="fill:url(#radialGradient920);fill-opacity:1;stroke:none;stroke-width:3.38535;stroke-linecap:round;stroke-linejoin:round;stroke-miterlimit:4;stroke-dasharray:none;stroke-opacity:1"
     id="circle891"
     cx="39.79763"
     cy="40.221275"
     r="23.232033" />
  <circle
     style="fill:url(#radialGradient986);fill-opacity:1;stroke:none;stroke-width:3.38535;stroke-linecap:round;stroke-linejoin:round;stroke-miterlimit:4;stroke-dasharray:none;stroke-opacity:1"
     id="circle978"
     cx="39.79763"
     cy="40.221275"
     r="23.232033" />
  <circle
     style="fill:url(#radialGradient960);fill-opacity:1;stroke:none;stroke-width:3.38535;stroke-linecap:round;stroke-linejoin:round;stroke-miterlimit:4;stroke-dasharray:none;stroke-opacity:1"
     id="circle954"
     cx="39.79763"
     cy="40.221275"
     r="23.232033" />
  <circle
     style="fill:url(#radialGradient974);fill-opacity:1;stroke:none;stroke-width:3.38535;stroke-linecap:round;stroke-linejoin:round;stroke-miterlimit:4;stroke-dasharray:none;stroke-opacity:1"
     id="circle964"
     cx="39.79763"
     cy="40.221275"
     r="23.232033" />
  <path
     d="m 49.70658,28.42972 -13.458741,0.187307 c -1.1984,0.01541 -2.286367,0.378638 -3.090439,0.990006 -0.5803,0.440502 -1.009668,1.028919 -1.204096,1.685686 -0.02192,-0.113912 -0.05953,-0.181622 -0.06083,-0.347842 l 0.0069,0.622096 c -0.03219,0.165286 -0.0673,0.335195 -0.0673,0.508382 l 0.0069,0.240804 c 0.0034,0.179155 0.03754,0.342317 0.07377,0.50838 l 0.21409,16.194649 c 0.0298,2.221864 1.844872,3.98311 4.067061,3.95334 l 10.174031,-0.127131 3.9801,-0.06021 -0.02706,-4.013543 -0.180595,-13.458747 c 0.234743,-0.291219 0.02604,-0.724431 -0.347944,-0.72243 -0.85589,0.01022 -1.625957,-0.238989 -2.160627,-0.615422 -0.533924,-0.384838 -0.822456,-0.881879 -0.829574,-1.418118 l -0.01302,-1.13717 c -0.0072,-0.5359 0.266012,-1.027765 0.789355,-1.424809 0.523345,-0.398688 1.277878,-0.671172 2.133868,-0.682304 0.588495,0.04901 0.662278,-0.833988 0.07377,-0.882981 -0.0202,-0.0013 -0.04066,-0.0013 -0.06083,0 -0.0069,-1.6e-4 -0.0137,-1.6e-4 -0.02055,0 z m -2.689073,0.916455 c -0.663532,0.525287 -1.128238,1.253685 -1.117107,2.087043 l 0.01302,1.137174 c 0.01101,0.830905 0.503151,1.546043 1.1773,2.053598 l -10.762992,0.147168 c -1.023778,0.01541 -1.941502,-0.287554 -2.588741,-0.735815 -0.645541,-0.460835 -1.007856,-1.073007 -1.016784,-1.732522 v -0.240804 c -0.0089,-0.659129 0.336803,-1.265435 0.969929,-1.745888 0.632594,-0.479594 1.538385,-0.808925 2.561969,-0.822779 z m -5.398217,9.752886 -0.0069,0.0069 c 1.192188,-0.01541 2.197492,0.378485 2.896444,1.076967 0.69913,0.694989 1.094971,1.671734 1.110374,2.829549 -0.0055,1.184937 -1.091219,3.129593 -2.495085,3.190769 -0.340708,0.0052 -0.650071,-0.09501 -0.903006,-0.234126 -0.193917,-0.121687 -0.293958,-0.339372 -0.381344,-0.561895 -0.352737,0.39662 -0.800487,0.729605 -1.284349,0.735818 -0.446067,0.0069 -0.850968,-0.164087 -1.137172,-0.461563 -0.284129,-0.309884 -0.441016,-0.762299 -0.448137,-1.297711 -0.0092,-0.670135 0.215015,-1.35375 0.61538,-1.893054 0.400631,-0.537194 0.99064,-0.934125 1.692386,-0.943184 0.32557,-0.0031 0.562179,0.227344 0.782622,0.468252 l 0.120385,-0.401356 1.1439,-0.01335 -0.488263,2.548601 c -0.08545,0.353257 -0.06343,0.596883 0,0.722433 0.06473,0.124255 0.163093,0.180594 0.394674,0.180594 0.273889,-0.0022 0.566453,-0.174874 0.802689,-0.515073 0.236248,-0.339646 0.416421,-0.832525 0.40801,-1.458256 -0.01067,-0.806956 -0.251763,-1.519415 -0.722433,-2.026837 -0.470659,-0.510014 -1.1817,-0.822737 -2.187381,-0.809407 -1.834543,0.02329 -3.611483,1.603893 -3.578744,4.04699 0.01439,1.049537 0.363221,1.815827 0.92307,2.327858 0.55985,0.512857 1.33679,0.767528 2.200766,0.755877 0.583537,-0.0079 1.187787,-0.189157 1.645554,-0.448175 l 0.167237,-0.0936 0.434807,1.010069 -0.126858,0.08025 c -0.681656,0.400503 -1.408617,0.59142 -2.207444,0.602033 -1.128888,0.01678 -2.187382,-0.32622 -2.970018,-1.030145 -0.782625,-0.701718 -1.272442,-1.765171 -1.29108,-3.150631 -0.04144,-3.107708 2.208311,-5.208519 4.889836,-5.244364 z m -0.287621,3.638888 c -0.307556,0.0058 -0.561922,0.207378 -0.749226,0.515073 -0.187033,0.308582 -0.299028,0.717669 -0.294369,1.050211 0.0058,0.264574 0.07121,0.439219 0.153777,0.535136 0.08414,0.0971 0.193643,0.145524 0.361281,0.140489 0.188986,-0.01439 0.413702,-0.142955 0.709096,-0.508383 l 0.24077,-1.458257 c -0.133571,-0.185492 -0.240119,-0.273101 -0.42147,-0.274265 z"
     style="fill:#222222;fill-opacity:0.609926;stroke:none;stroke-width:20.8656;stroke-linecap:round;stroke-linejoin:round;stroke-miterlimit:4;stroke-dasharray:none;stroke-dashoffset:0;stroke-opacity:1;paint-order:fill markers stroke"
     id="path970-3"
     sodipodi:nodetypes="ccccccccccccccccccccccccccccccccccccccccccccccccccccccccccccscccccccccccccccccc" />
  <path
     id="path997"
     style="fill:#ffffff;fill-opacity:0.11886653;stroke:none;stroke-width:20.8656;stroke-linecap:round;stroke-linejoin:round;stroke-miterlimit:4;stroke-dasharray:none;stroke-dashoffset:0;stroke-opacity:1;paint-order:fill markers stroke"
     d="M 49.736328 28.429688 C 49.836908 28.701378 49.678284 29.071314 49.291016 29.039062 C 48.435026 29.050195 47.679595 29.322015 47.15625 29.720703 C 46.632907 30.117747 46.359988 30.608631 46.367188 31.144531 L 46.380859 32.283203 C 46.387977 32.819442 46.677014 33.316334 47.210938 33.701172 C 47.30722 33.768959 47.418621 33.826002 47.529297 33.884766 C 47.06701 33.513042 46.809338 33.054142 46.802734 32.556641 L 46.789062 31.419922 C 46.781863 30.884022 47.054782 30.391185 47.578125 29.994141 C 48.10147 29.595453 48.856901 29.323632 49.712891 29.3125 C 50.301386 29.36151 50.375617 28.47868 49.787109 28.429688 C 49.770697 28.428631 49.752789 28.429027 49.736328 28.429688 z M 46.595703 29.072266 L 35.832031 29.21875 C 34.808447 29.232604 33.904078 29.561422 33.271484 30.041016 C 32.638358 30.521469 32.291881 31.12798 32.300781 31.787109 L 32.300781 32.029297 C 32.309709 32.688812 32.672818 33.300884 33.318359 33.761719 C 33.411488 33.826217 33.521162 33.879533 33.625 33.9375 C 33.056936 33.488784 32.730998 32.918913 32.722656 32.302734 L 32.722656 32.0625 C 32.713756 31.403371 33.05828 30.796859 33.691406 30.316406 C 34.324 29.836812 35.230322 29.507995 36.253906 29.494141 L 46.294922 29.355469 C 46.392343 29.258166 46.486209 29.158947 46.595703 29.072266 z M 49.777344 34.587891 C 49.837865 34.729124 49.831217 34.899538 49.71875 35.039062 L 49.900391 48.498047 L 49.925781 52.511719 L 45.947266 52.570312 L 35.771484 52.699219 C 35.030025 52.709152 34.343757 52.50545 33.744141 52.166016 C 34.42782 52.676039 35.270609 52.985018 36.193359 52.972656 L 46.367188 52.845703 L 50.347656 52.785156 L 50.320312 48.771484 L 50.140625 35.3125 C 50.375368 35.021281 50.166953 34.587843 49.792969 34.589844 C 49.787599 34.589908 49.782707 34.587847 49.777344 34.587891 z M 41.197266 38.824219 C 38.515741 38.860064 36.267154 40.962604 36.308594 44.070312 C 36.327232 45.455772 36.816984 46.518985 37.599609 47.220703 C 37.825533 47.423905 38.078748 47.587391 38.345703 47.730469 C 38.236821 47.652136 38.119791 47.584317 38.019531 47.494141 C 37.236906 46.792423 36.747154 45.72921 36.728516 44.34375 C 36.687076 41.236042 38.937616 39.135454 41.619141 39.099609 L 41.613281 39.105469 C 42.417157 39.095078 43.125344 39.285538 43.722656 39.615234 C 43.054974 39.109749 42.195862 38.819048 41.191406 38.832031 L 41.197266 38.824219 z M 43.058594 40.572266 C 43.140193 40.639455 43.228229 40.700842 43.298828 40.777344 C 43.769498 41.284766 44.008861 41.997732 44.019531 42.804688 C 44.027942 43.430418 43.849529 43.924026 43.613281 44.263672 C 43.378762 44.601399 43.088571 44.7727 42.816406 44.777344 C 42.824552 44.806039 42.824979 44.851357 42.835938 44.873047 C 42.900667 44.997302 42.998888 45.052734 43.230469 45.052734 C 43.504358 45.050534 43.796967 44.877308 44.033203 44.537109 C 44.269451 44.197463 44.449817 43.705809 44.441406 43.080078 C 44.430736 42.273122 44.18942 41.560156 43.71875 41.052734 C 43.538748 40.857681 43.31195 40.702402 43.058594 40.572266 z M 40.855469 41.273438 C 40.153723 41.282497 39.564693 41.679603 39.164062 42.216797 C 38.763698 42.756101 38.539628 43.43924 38.548828 44.109375 C 38.555949 44.644787 38.711965 45.096366 38.996094 45.40625 C 39.136175 45.551848 39.306281 45.667125 39.494141 45.746094 C 39.469537 45.723761 39.441067 45.705648 39.417969 45.681641 C 39.13384 45.371757 38.977824 44.918225 38.970703 44.382812 C 38.961503 43.712677 39.185573 43.029538 39.585938 42.490234 C 39.986568 41.95304 40.575598 41.555934 41.277344 41.546875 C 41.343404 41.546246 41.403547 41.561387 41.462891 41.578125 C 41.28821 41.412047 41.099421 41.271115 40.855469 41.273438 z M 42.902344 41.326172 L 41.759766 41.339844 L 41.662109 41.666016 C 41.807658 41.755163 41.937657 41.881327 42.060547 42.015625 L 42.181641 41.615234 L 42.849609 41.607422 L 42.902344 41.326172 z M 41.332031 42.738281 L 41.089844 44.195312 C 40.79445 44.560741 40.569845 44.690688 40.380859 44.705078 C 40.376953 44.705195 40.374937 44.703066 40.371094 44.703125 C 40.393173 44.752749 40.413988 44.806039 40.441406 44.837891 C 40.525546 44.934991 40.635096 44.983551 40.802734 44.978516 C 40.99172 44.964126 41.216325 44.836131 41.511719 44.470703 L 41.753906 43.011719 C 41.620335 42.826227 41.513382 42.739445 41.332031 42.738281 z M 41.839844 45.40625 C 41.789496 45.462861 41.733736 45.515106 41.679688 45.568359 C 41.71876 45.611229 41.748549 45.663761 41.798828 45.695312 C 41.87811 45.738918 41.972903 45.766869 42.0625 45.800781 C 41.971599 45.684805 41.897074 45.551984 41.839844 45.40625 z M 42.46875 46.558594 L 42.300781 46.652344 C 41.843014 46.911362 41.239787 47.091709 40.65625 47.099609 C 40.060155 47.107648 39.511535 46.979168 39.041016 46.736328 C 39.585277 47.161505 40.291145 47.38366 41.078125 47.373047 C 41.6298 47.365578 42.195154 47.201421 42.642578 46.964844 L 42.46875 46.558594 z " />
</svg>
