<?xml version="1.0" encoding="UTF-8" standalone="no"?>
<svg
   xmlns:dc="http://purl.org/dc/elements/1.1/"
   xmlns:cc="http://creativecommons.org/ns#"
   xmlns:rdf="http://www.w3.org/1999/02/22-rdf-syntax-ns#"
   xmlns:svg="http://www.w3.org/2000/svg"
   xmlns="http://www.w3.org/2000/svg"
   xmlns:xlink="http://www.w3.org/1999/xlink"
   xmlns:sodipodi="http://sodipodi.sourceforge.net/DTD/sodipodi-0.dtd"
   xmlns:inkscape="http://www.inkscape.org/namespaces/inkscape"
   width="64"
   height="64"
   viewBox="0 0 16.933333 16.933334"
   version="1.1"
   id="svg951"
   inkscape:version="1.0.2 (e86c870879, 2021-01-15)"
   sodipodi:docname="rss.svg">
  <defs
     id="defs945">
    <linearGradient
       inkscape:collect="always"
       id="linearGradient1418">
      <stop
         style="stop-color:#ffffff;stop-opacity:1;"
         offset="0"
         id="stop1414" />
      <stop
         style="stop-color:#ffffff;stop-opacity:0;"
         offset="1"
         id="stop1416" />
    </linearGradient>
    <linearGradient
       inkscape:collect="always"
       id="linearGradient1373">
      <stop
         style="stop-color:#24da47;stop-opacity:1;"
         offset="0"
         id="stop1369" />
      <stop
         style="stop-color:#24da47;stop-opacity:0;"
         offset="1"
         id="stop1371" />
    </linearGradient>
    <linearGradient
       inkscape:collect="always"
       id="linearGradient1338">
      <stop
         style="stop-color:#2ddc4f;stop-opacity:0"
         offset="0"
         id="stop1334" />
      <stop
         style="stop-color:#2ddc4f;stop-opacity:1"
         offset="0.19479907"
         id="stop1344" />
      <stop
         style="stop-color:#2ddc4f;stop-opacity:0.77647059;"
         offset="0.80000001"
         id="stop1342" />
      <stop
         style="stop-color:#2ddc4f;stop-opacity:0;"
         offset="1"
         id="stop1336" />
    </linearGradient>
    <linearGradient
       inkscape:collect="always"
       id="linearGradient1319">
      <stop
         style="stop-color:#e6e8e8;stop-opacity:0.67520446"
         offset="0"
         id="stop1315" />
      <stop
         style="stop-color:#f1f2f2;stop-opacity:0.67772639"
         offset="1"
         id="stop1317" />
    </linearGradient>
    <linearGradient
       inkscape:collect="always"
       id="linearGradient1256">
      <stop
         style="stop-color:#f2d548;stop-opacity:1;"
         offset="0"
         id="stop1252" />
      <stop
         style="stop-color:#f2d548;stop-opacity:0.85098039;"
         offset="0.51037705"
         id="stop1262" />
      <stop
         style="stop-color:#f2d548;stop-opacity:0;"
         offset="1"
         id="stop1254" />
    </linearGradient>
    <linearGradient
       inkscape:collect="always"
       id="linearGradient1134">
      <stop
         style="stop-color:#f2d548;stop-opacity:0.83137256"
         offset="0"
         id="stop1130" />
      <stop
         style="stop-color:#f2d548;stop-opacity:0.02352941;"
         offset="0.60001117"
         id="stop1177" />
      <stop
         style="stop-color:#f2d548;stop-opacity:0"
         offset="1"
         id="stop1132" />
    </linearGradient>
    <linearGradient
       inkscape:collect="always"
       id="linearGradient1106">
      <stop
         style="stop-color:#f2d548;stop-opacity:1;"
         offset="0"
         id="stop1102" />
      <stop
         style="stop-color:#f2d548;stop-opacity:0.94901961;"
         offset="0.07036724"
         id="stop1116" />
      <stop
         style="stop-color:#f2d548;stop-opacity:0.87843137;"
         offset="0.17279451"
         id="stop1118" />
      <stop
         style="stop-color:#f2d548;stop-opacity:0.83137255;"
         offset="0.2414929"
         id="stop1175" />
      <stop
         style="stop-color:#f2d548;stop-opacity:0.79607843;"
         offset="0.29661605"
         id="stop1120" />
      <stop
         style="stop-color:#f2d548;stop-opacity:0.58823529;"
         offset="0.46850824"
         id="stop1124" />
      <stop
         style="stop-color:#f2d548;stop-opacity:0.21960784;"
         offset="0.70594794"
         id="stop1122" />
      <stop
         style="stop-color:#f2d548;stop-opacity:0.07843137;"
         offset="0.85445958"
         id="stop1114" />
      <stop
         style="stop-color:#f2d548;stop-opacity:0.03137255;"
         offset="0.92733258"
         id="stop1112" />
      <stop
         style="stop-color:#f2d548;stop-opacity:0;"
         offset="1"
         id="stop1104" />
    </linearGradient>
    <linearGradient
       inkscape:collect="always"
       id="linearGradient1018">
      <stop
         style="stop-color:#f2d548;stop-opacity:0.80332458"
         offset="0"
         id="stop1014" />
      <stop
         style="stop-color:#f2e048;stop-opacity:0.83352965"
         offset="1"
         id="stop1016" />
    </linearGradient>
    <linearGradient
       inkscape:collect="always"
       xlink:href="#linearGradient1018"
       id="linearGradient1020"
       x1="12.507954"
       y1="18.185959"
       x2="12.507954"
       y2="27.512201"
       gradientUnits="userSpaceOnUse"
       gradientTransform="translate(-3.2093992,-14.199033)" />
    <linearGradient
       inkscape:collect="always"
       xlink:href="#linearGradient1106"
       id="linearGradient1110"
       gradientUnits="userSpaceOnUse"
       x1="33.69149"
       y1="23.266743"
       x2="31.693079"
       y2="23.266743"
       gradientTransform="matrix(4.0531489,0,0,3.7795274,-109.82285,-3.4030082)" />
    <radialGradient
       inkscape:collect="always"
       xlink:href="#linearGradient1134"
       id="radialGradient1136"
       cx="33.203785"
       cy="28.351978"
       fx="33.203785"
       fy="28.351978"
       r="1.0295357"
       gradientTransform="matrix(1.9265362,0,0,1.9426312,-30.764508,-26.500978)"
       gradientUnits="userSpaceOnUse" />
    <linearGradient
       inkscape:collect="always"
       xlink:href="#linearGradient1106"
       id="linearGradient1206"
       gradientUnits="userSpaceOnUse"
       gradientTransform="matrix(-4.0531488,0,0,3.7795273,197.69499,-3.4030082)"
       x1="33.69149"
       y1="23.266743"
       x2="31.693079"
       y2="23.266743" />
    <radialGradient
       inkscape:collect="always"
       xlink:href="#linearGradient1134"
       id="radialGradient1217"
       gradientUnits="userSpaceOnUse"
       gradientTransform="matrix(1.9265362,0,0,1.9426312,-106.68975,-26.500978)"
       cx="33.203785"
       cy="28.351978"
       fx="33.203785"
       fy="28.351978"
       r="1.0295357" />
    <linearGradient
       inkscape:collect="always"
       xlink:href="#linearGradient1106"
       id="linearGradient1248"
       x1="38.428226"
       y1="28.381445"
       x2="38.428226"
       y2="30.181101"
       gradientUnits="userSpaceOnUse" />
    <radialGradient
       inkscape:collect="always"
       xlink:href="#linearGradient1256"
       id="radialGradient1260"
       gradientUnits="userSpaceOnUse"
       gradientTransform="matrix(1.0029571,-5.9794818e-8,0,0.19426442,-0.10772469,23.071966)"
       cx="36.354298"
       cy="24.965956"
       fx="36.354298"
       fy="24.965956"
       r="4.5807209" />
    <radialGradient
       inkscape:collect="always"
       xlink:href="#linearGradient1256"
       id="radialGradient1266"
       gradientUnits="userSpaceOnUse"
       gradientTransform="matrix(1.0029571,-5.9794818e-8,0,0.19426442,-75.685644,23.071966)"
       cx="36.354298"
       cy="24.965956"
       fx="36.354298"
       fy="24.965956"
       r="4.5807209" />
    <linearGradient
       inkscape:collect="always"
       xlink:href="#linearGradient1319"
       id="linearGradient1321"
       x1="15.875478"
       y1="28.434834"
       x2="6.6488433"
       y2="21.565681"
       gradientUnits="userSpaceOnUse"
       gradientTransform="translate(-3.181438,-14.199033)" />
    <linearGradient
       inkscape:collect="always"
       xlink:href="#linearGradient1338"
       id="linearGradient1340"
       x1="22.648438"
       y1="71.745117"
       x2="64.804688"
       y2="71.745117"
       gradientUnits="userSpaceOnUse"
       gradientTransform="matrix(0.26458333,0,0,0.26458333,-3.181438,-14.199033)" />
    <radialGradient
       inkscape:collect="always"
       xlink:href="#linearGradient1373"
       id="radialGradient1375"
       cx="11.720923"
       cy="19.666191"
       fx="11.720923"
       fy="19.666191"
       r="7.4000473"
       gradientTransform="matrix(0.69431144,0,0,0.6230421,3.5829523,9.3195652)"
       gradientUnits="userSpaceOnUse" />
    <radialGradient
       inkscape:collect="always"
       xlink:href="#linearGradient1373"
       id="radialGradient1383"
       gradientUnits="userSpaceOnUse"
       gradientTransform="matrix(0.69431144,0,0,0.6230421,3.5829523,9.3195652)"
       cx="11.720923"
       cy="23.238306"
       fx="11.720923"
       fy="23.238306"
       r="7.4000473" />
    <linearGradient
       inkscape:collect="always"
       xlink:href="#linearGradient1418"
       id="linearGradient1420"
       x1="0.55361825"
       y1="68.580872"
       x2="48.196472"
       y2="96.751839"
       gradientUnits="userSpaceOnUse"
       gradientTransform="matrix(0.26458333,0,0,0.26458333,-3.181438,-14.199033)" />
  </defs>
  <sodipodi:namedview
     id="base"
     pagecolor="#ffffff"
     bordercolor="#666666"
     borderopacity="1.0"
     inkscape:pageopacity="0.0"
     inkscape:pageshadow="2"
     inkscape:zoom="5.6568543"
     inkscape:cx="82.921335"
     inkscape:cy="72.595181"
     inkscape:document-units="mm"
     inkscape:current-layer="layer1"
     inkscape:document-rotation="0"
     showgrid="false"
     units="px"
     inkscape:window-width="1920"
     inkscape:window-height="1028"
     inkscape:window-x="0"
     inkscape:window-y="24"
     inkscape:window-maximized="1"
     showguides="true"
     inkscape:guide-bbox="true" />
  <metadata
     id="metadata948">
    <rdf:RDF>
      <cc:Work
         rdf:about="">
        <dc:format>image/svg+xml</dc:format>
        <dc:type
           rdf:resource="http://purl.org/dc/dcmitype/StillImage" />
        <dc:title />
      </cc:Work>
    </rdf:RDF>
  </metadata>
  <g
     inkscape:label="Capa 1"
     inkscape:groupmode="layer"
     id="layer1">
    <path
       id="path1332"
       style="fill:url(#linearGradient1340);fill-opacity:1;stroke:none;stroke-width:0.01;stroke-linecap:round;stroke-linejoin:round;stroke-miterlimit:4;stroke-dasharray:none;stroke-opacity:1"
       d="m 4.2134594,3.3652694 c -0.7770484,0 -1.4024983,0.6259666 -1.4024983,1.4030151 v 1.4335042 c 0.026744,-0.00111 0.053074,-0.00414 0.080098,-0.00414 H 13.884704 c 0.0271,0 0.05328,0.00302 0.0801,0.00414 V 4.7682845 c 0,-0.7770485 -0.62545,-1.4030151 -1.402498,-1.4030151 z" />
    <g
       id="g1284"
       transform="matrix(1.0723957,0,0,1,-32.238734,-15.099412)"
       style="opacity:0.96221203">
      <rect
         style="opacity:0.814772;fill:url(#linearGradient1248);fill-opacity:1;stroke:none;stroke-width:0.01;stroke-linecap:round;stroke-linejoin:round;stroke-miterlimit:4;stroke-dasharray:none;stroke-opacity:1"
         id="rect1240"
         width="9.529809"
         height="3.5902922"
         x="33.203785"
         y="28.365421" />
      <g
         id="g1274">
        <path
           id="rect1009-6"
           style="fill:url(#linearGradient1110);fill-opacity:1;stroke:none;stroke-width:0.0441368;stroke-linecap:round;stroke-linejoin:round;stroke-miterlimit:4;stroke-dasharray:none;stroke-opacity:1"
           d="m 22.951172,77.089844 c -1.710276,0 -3.273935,0.594381 -4.50586,1.583984 v 25.130862 h 6.310547 32.074219 V 77.089844 Z"
           transform="matrix(0.24672174,0,0,0.26458333,27.095685,0.90037925)" />
        <rect
           style="fill:url(#radialGradient1136);fill-opacity:1;stroke:none;stroke-width:0.01;stroke-linecap:round;stroke-linejoin:round;stroke-miterlimit:4;stroke-dasharray:none;stroke-opacity:1"
           id="rect1128"
           width="2.0590725"
           height="1.8211479"
           x="31.144712"
           y="28.365421"
           rx="0"
           ry="0" />
        <path
           id="path1204"
           style="fill:url(#linearGradient1206);fill-opacity:1;stroke:none;stroke-width:0.0441368;stroke-linecap:round;stroke-linejoin:round;stroke-miterlimit:4;stroke-dasharray:none;stroke-opacity:1"
           d="m 32.337891,77.089844 v 26.714846 h 30.996093 6.091797 V 79.039062 c -1.285566,-1.207073 -3.013085,-1.949218 -4.923828,-1.949218 z"
           transform="matrix(0.24672174,0,0,0.26458333,27.095685,0.90037925)" />
        <rect
           style="fill:url(#radialGradient1217);fill-opacity:1;stroke:none;stroke-width:0.01;stroke-linecap:round;stroke-linejoin:round;stroke-miterlimit:4;stroke-dasharray:none;stroke-opacity:1"
           id="rect1215"
           width="2.0590725"
           height="1.8211479"
           x="-44.780521"
           y="28.365421"
           rx="0"
           ry="0"
           transform="scale(-1,1)" />
        <ellipse
           style="opacity:0.814772;fill:url(#radialGradient1260);fill-opacity:1;stroke:none;stroke-width:0.01;stroke-linecap:round;stroke-linejoin:round;stroke-miterlimit:4;stroke-dasharray:none;stroke-opacity:1"
           id="path1250"
           cx="37.78896"
           cy="28.436544"
           rx="4.5807209"
           ry="0.5317952" />
        <ellipse
           style="opacity:0.814772;fill:url(#radialGradient1266);fill-opacity:1;stroke:none;stroke-width:0.01;stroke-linecap:round;stroke-linejoin:round;stroke-miterlimit:4;stroke-dasharray:none;stroke-opacity:1"
           id="ellipse1264"
           cx="-37.78896"
           cy="28.436544"
           rx="4.5807209"
           ry="0.5317952"
           transform="scale(-1,1)" />
      </g>
    </g>
    <g
       id="g1387"
       style="opacity:0.317913"
       transform="translate(-3.181438,-14.199033)">
      <rect
         style="fill:url(#radialGradient1375);fill-opacity:1;stroke-width:30;stroke-linecap:round;stroke-linejoin:round"
         id="rect1367"
         width="14.800095"
         height="9.6849041"
         x="4.16923"
         y="20.39673"
         rx="1.9032787"
         ry="1.9032787" />
      <rect
         style="fill:url(#radialGradient1383);fill-opacity:1;stroke-width:30;stroke-linecap:round;stroke-linejoin:round"
         id="rect1377"
         width="14.800095"
         height="9.6849041"
         x="4.16923"
         y="20.39673"
         rx="1.9032787"
         ry="1.9032787" />
    </g>
    <path
       id="rect1009"
       style="fill:url(#linearGradient1020);fill-opacity:1;stroke:none;stroke-width:0.01;stroke-linecap:round;stroke-linejoin:round;stroke-miterlimit:4;stroke-dasharray:none;stroke-opacity:1"
       d="m 4.2134594,3.3652694 c -0.7770484,0 -1.4024983,0.6259666 -1.4024983,1.4030151 v 1.4335042 c 0.026744,-0.00111 0.053074,-0.00414 0.080098,-0.00414 H 13.884704 c 0.0271,0 0.05328,0.00302 0.0801,0.00414 V 4.7682845 c 0,-0.7770485 -0.62545,-1.4030151 -1.402498,-1.4030151 z" />
    <rect
       style="fill:url(#linearGradient1321);fill-opacity:1;stroke-width:30;stroke-linecap:round;stroke-linejoin:round"
       id="rect873"
       width="14.800095"
       height="9.6849041"
       x="0.98779196"
       y="6.1976976"
       rx="1.9032787"
       ry="1.9032787" />
    <path
       id="rect1323"
       style="fill:#af8d00;fill-opacity:0.26022887;stroke:none;stroke-width:0.01;stroke-linecap:round;stroke-linejoin:round;stroke-miterlimit:4;stroke-dasharray:none;stroke-opacity:1"
       d="m 2.8109611,5.6621393 v 0.5396494 c 0.026744,-0.00111 0.053074,-0.00414 0.080098,-0.00414 H 13.884704 c 0.0271,0 0.05328,0.00302 0.0801,0.00414 V 5.6621393 Z"
       sodipodi:nodetypes="ccssccc" />
    <path
       id="path1328"
       style="fill:#af5c00;fill-opacity:0.18108302;stroke:none;stroke-width:0.01;stroke-linecap:round;stroke-linejoin:round;stroke-miterlimit:4;stroke-dasharray:none;stroke-opacity:1"
       d="m 2.8109611,5.3370174 v 0.8647713 c 0.026744,-0.00111 0.053074,-0.00414 0.080098,-0.00414 H 13.884704 c 0.0271,0 0.05328,0.00302 0.0801,0.00414 V 5.3370174 Z"
       sodipodi:nodetypes="ccssccc" />
    <path
       id="rect1330"
       style="fill:#24da47;fill-opacity:0.917387;stroke:none;stroke-width:0.01;stroke-linecap:round;stroke-linejoin:round;stroke-miterlimit:4;stroke-dasharray:none;stroke-opacity:1"
       d="m 5.2743764,1.2274155 c -0.6296604,0 -1.1368815,0.5072213 -1.1368815,1.1368812 v 1.0045901 c 0.025329,-0.00135 0.050288,-0.00362 0.075964,-0.00362 h 8.3488441 c 0.0255,0 0.05029,0.00228 0.07545,0.00362 V 2.3642967 c 0,-0.6296599 -0.506703,-1.1368812 -1.136364,-1.1368812 z" />
    <path
       id="rect1352"
       style="fill:#00ac21;fill-opacity:0.806216;stroke:none;stroke-width:0.01;stroke-linecap:round;stroke-linejoin:round;stroke-miterlimit:4;stroke-dasharray:none;stroke-opacity:1"
       d="m 4.1374949,2.9389389 v 0.4299479 c 0.025329,-0.00135 0.050288,-0.00362 0.075964,-0.00362 h 8.3488441 c 0.0255,0 0.05029,0.00228 0.07545,0.00362 V 2.9389389 Z" />
    <g
       id="g1407"
       style="opacity:0.335683"
       transform="translate(-3.181438,-14.199033)">
      <path
         d="m 8.4582082,22.080086 c 0,0.322806 0.322806,0.645606 0.6456065,0.645606 3.2090353,0 5.8104863,2.601451 5.8104863,5.810486 0,0.3228 0.292763,0.645606 0.645606,0.645606 0.322805,0 0.645611,-0.322806 0.645611,-0.645606 0,-3.922075 -3.179528,-7.101703 -7.1017033,-7.101703 -0.3228005,0 -0.6456065,0.322806 -0.6456065,0.645611 z m 0,2.582434 c 0,0.322806 0.322806,0.645612 0.6456065,0.645612 1.7828203,-5e-6 3.2280463,1.445227 3.2280463,3.228046 0,0.3228 0.322806,0.645606 0.645612,0.645606 0.322804,0 0.645605,-0.322806 0.645605,-0.645606 0,-2.495924 -2.023339,-4.519263 -4.5192633,-4.519263 -0.3228005,0 -0.6456065,0.322801 -0.6456065,0.645605 z m 1.2912172,1.93683 c -0.7131099,0 -1.2912172,0.578112 -1.2912172,1.291216 0,0.713076 0.5781416,1.291218 1.2912172,1.291218 0.7131056,0 1.2912176,-0.578107 1.2912176,-1.291218 0,-0.713104 -0.578112,-1.291216 -1.2912176,-1.291216 z"
         fill="#ffffff"
         id="path1398"
         style="fill:#003d7a;fill-opacity:0.223286;stroke-width:0.322805" />
      <path
         d="m 8.6783734,22.129252 c 0,0.322806 0.322806,0.645606 0.6456065,0.645606 3.2090351,0 5.8104861,2.601451 5.8104861,5.810486 0,0.3228 0.292763,0.645606 0.645606,0.645606 0.322805,0 0.645611,-0.322806 0.645611,-0.645606 0,-3.922075 -3.179528,-7.101703 -7.1017031,-7.101703 -0.3228005,0 -0.6456065,0.322806 -0.6456065,0.645611 z m 0,2.582434 c 0,0.322806 0.322806,0.645612 0.6456065,0.645612 1.7828201,-5e-6 3.2280461,1.445227 3.2280461,3.228046 0,0.3228 0.322806,0.645606 0.645612,0.645606 0.322804,0 0.645605,-0.322806 0.645605,-0.645606 0,-2.495924 -2.023339,-4.519263 -4.5192631,-4.519263 -0.3228005,0 -0.6456065,0.322801 -0.6456065,0.645605 z m 1.2912172,1.93683 c -0.7131099,0 -1.2912172,0.578112 -1.2912172,1.291216 0,0.713076 0.5781416,1.291218 1.2912172,1.291218 0.7131054,0 1.2912174,-0.578107 1.2912174,-1.291218 0,-0.713104 -0.578112,-1.291216 -1.2912174,-1.291216 z"
         fill="#ffffff"
         id="path1400"
         style="fill:#003d7a;fill-opacity:0.223286;stroke-width:0.322805" />
      <path
         d="m 8.8796109,22.118089 c 0,0.322806 0.322806,0.645606 0.6456065,0.645606 3.2090356,0 5.8104866,2.601451 5.8104866,5.810486 0,0.3228 0.292763,0.645606 0.645606,0.645606 0.322805,0 0.645611,-0.322806 0.645611,-0.645606 0,-3.922075 -3.179528,-7.101703 -7.1017036,-7.101703 -0.3228005,0 -0.6456065,0.322806 -0.6456065,0.645611 z m 0,2.582434 c 0,0.322806 0.322806,0.645612 0.6456065,0.645612 1.7828206,-5e-6 3.2280466,1.445227 3.2280466,3.228046 0,0.3228 0.322806,0.645606 0.645612,0.645606 0.322804,0 0.645605,-0.322806 0.645605,-0.645606 0,-2.495924 -2.023339,-4.519263 -4.5192636,-4.519263 -0.3228005,0 -0.6456065,0.322801 -0.6456065,0.645605 z m 1.2912171,1.93683 c -0.7131098,0 -1.2912171,0.578112 -1.2912171,1.291216 0,0.713076 0.5781416,1.291218 1.2912171,1.291218 0.713106,0 1.291218,-0.578107 1.291218,-1.291218 0,-0.713104 -0.578112,-1.291216 -1.291218,-1.291216 z"
         fill="#ffffff"
         id="path1402"
         style="fill:#003d7a;fill-opacity:0.223286;stroke-width:0.322805" />
    </g>
    <path
       d="m 5.1359701,7.886534 c 0,0.322806 0.322806,0.645606 0.6456065,0.645606 3.2090344,0 5.8104854,2.601451 5.8104854,5.810486 0,0.3228 0.292763,0.645606 0.645606,0.645606 0.322805,0 0.645611,-0.322806 0.645611,-0.645606 0,-3.922075 -3.179528,-7.101703 -7.1017024,-7.101703 -0.3228005,0 -0.6456065,0.322806 -0.6456065,0.645611 z m 0,2.582434 c 0,0.322806 0.322806,0.645612 0.6456065,0.645612 1.7828194,-5e-6 3.2280454,1.445227 3.2280454,3.228046 0,0.3228 0.322806,0.645606 0.645612,0.645606 0.322804,0 0.645605,-0.322806 0.645605,-0.645606 0,-2.495924 -2.023339,-4.519263 -4.5192624,-4.519263 -0.3228005,0 -0.6456065,0.322801 -0.6456065,0.645605 z m 1.2912176,1.93683 c -0.7131103,0 -1.2912176,0.578112 -1.2912176,1.291216 0,0.713076 0.5781416,1.291218 1.2912176,1.291218 0.7131043,0 1.2912163,-0.578107 1.2912163,-1.291218 0,-0.713104 -0.578112,-1.291216 -1.2912163,-1.291216 z"
       fill="#ffffff"
       id="path8"
       style="fill:#ffffff;fill-opacity:1;stroke-width:0.322805" />
    <path
       id="rect1409"
       style="fill:url(#linearGradient1420);fill-opacity:1;stroke-width:30;stroke-linecap:round;stroke-linejoin:round"
       d="m 2.8910595,6.1976546 c -1.0544164,0 -1.90324313,0.8488265 -1.90324313,1.9032429 v 5.8781945 c 2.7e-7,0.595238 0.27078123,1.125318 0.69608173,1.473811 C 1.3871303,15.117446 1.205891,14.677163 1.205891,14.191999 V 8.3138045 c 0,-1.0544164 0.8488267,-1.9037598 1.9032431,-1.9037598 H 14.102778 c 0.45944,0 0.879511,0.1613537 1.207678,0.4304646 C 14.962245,6.4466492 14.454173,6.1976546 13.884704,6.1976546 Z" />
  </g>
</svg>
