<?xml version="1.0" encoding="UTF-8" standalone="no"?>
<svg
   xmlns:dc="http://purl.org/dc/elements/1.1/"
   xmlns:cc="http://creativecommons.org/ns#"
   xmlns:rdf="http://www.w3.org/1999/02/22-rdf-syntax-ns#"
   xmlns:svg="http://www.w3.org/2000/svg"
   xmlns="http://www.w3.org/2000/svg"
   xmlns:xlink="http://www.w3.org/1999/xlink"
   xmlns:sodipodi="http://sodipodi.sourceforge.net/DTD/sodipodi-0.dtd"
   xmlns:inkscape="http://www.inkscape.org/namespaces/inkscape"
   width="64"
   height="64"
   version="1.1"
   viewBox="0 0 16.933 16.933"
   id="svg12"
   sodipodi:docname="driver-manager.svg"
   inkscape:version="1.0.2 (e86c870879, 2021-01-15)">
  <metadata
     id="metadata18">
    <rdf:RDF>
      <cc:Work
         rdf:about="">
        <dc:format>image/svg+xml</dc:format>
        <dc:type
           rdf:resource="http://purl.org/dc/dcmitype/StillImage" />
      </cc:Work>
    </rdf:RDF>
  </metadata>
  <defs
     id="defs16">
    <linearGradient
       inkscape:collect="always"
       xlink:href="#linearGradient1689"
       id="linearGradient1691"
       x1="-1492.5676"
       y1="188.07291"
       x2="-1441.9921"
       y2="137.49736"
       gradientUnits="userSpaceOnUse"
       gradientTransform="matrix(0.20159874,0,0,0.20159874,287.54605,-24.063603)" />
    <linearGradient
       inkscape:collect="always"
       id="linearGradient1689">
      <stop
         style="stop-color:#02a2c1;stop-opacity:1"
         offset="0"
         id="stop1685" />
      <stop
         style="stop-color:#07d681;stop-opacity:1"
         offset="1"
         id="stop1687" />
    </linearGradient>
    <linearGradient
       inkscape:collect="always"
       xlink:href="#linearGradient1733"
       id="linearGradient1735"
       x1="1513.6202"
       y1="179.76451"
       x2="1495.2686"
       y2="147.97852"
       gradientUnits="userSpaceOnUse"
       gradientTransform="matrix(0.20159874,0,0,0.20159874,-295.93489,-24.063603)" />
    <linearGradient
       inkscape:collect="always"
       id="linearGradient1733">
      <stop
         style="stop-color:#e3f8fd;stop-opacity:1"
         offset="0"
         id="stop1729" />
      <stop
         style="stop-color:#e4f4ed;stop-opacity:1"
         offset="1"
         id="stop1731" />
    </linearGradient>
    <linearGradient
       inkscape:collect="always"
       xlink:href="#linearGradient1725"
       id="linearGradient1727"
       x1="1238.7003"
       y1="187.78702"
       x2="1238.7003"
       y2="205.74242"
       gradientUnits="userSpaceOnUse"
       gradientTransform="matrix(0.20159874,0,0,0.20159874,-243.10332,-29.112376)" />
    <linearGradient
       inkscape:collect="always"
       id="linearGradient1725">
      <stop
         style="stop-color:#18c185;stop-opacity:1;"
         offset="0"
         id="stop1721" />
      <stop
         style="stop-color:#1f9ea1;stop-opacity:1"
         offset="1"
         id="stop1723" />
    </linearGradient>
  </defs>
  <sodipodi:namedview
     pagecolor="#ffffff"
     bordercolor="#666666"
     borderopacity="1"
     objecttolerance="10"
     gridtolerance="10"
     guidetolerance="10"
     inkscape:pageopacity="0"
     inkscape:pageshadow="2"
     inkscape:window-width="1920"
     inkscape:window-height="1028"
     id="namedview14"
     showgrid="false"
     inkscape:zoom="7.09375"
     inkscape:cx="32"
     inkscape:cy="32"
     inkscape:window-x="0"
     inkscape:window-y="24"
     inkscape:window-maximized="1"
     inkscape:current-layer="svg12" />
  <rect
     style="fill:url(#linearGradient1691);fill-opacity:1;stroke:none;stroke-width:0.403197;stroke-linecap:round;stroke-linejoin:round;stroke-miterlimit:4;stroke-dasharray:none;stroke-opacity:1"
     id="rect1533-9"
     width="15.238202"
     height="15.568063"
     x="-16.067427"
     y="0.77304918"
     rx="3.1982186"
     ry="3.1982186"
     transform="scale(-1,1)" />
  <path
     id="rect1695"
     style="fill:#ffffff;fill-opacity:0.707231;stroke:none;stroke-width:0.141119;stroke-linecap:round;stroke-linejoin:round;stroke-miterlimit:4;stroke-dasharray:none;stroke-opacity:1"
     d="m 4.7480893,2.4870681 c -0.332759,0 -0.6004619,0.267705 -0.6004619,0.6004639 v 10.939094 c 0,0.332759 0.2677029,0.600466 0.6004619,0.600466 0.3327588,0 0.6004618,-0.267707 0.6004618,-0.600466 V 3.087532 c 0,-0.3327589 -0.267703,-0.6004639 -0.6004618,-0.6004639 z m 2.4668226,0 c -0.3327589,0 -0.6004619,0.267705 -0.6004619,0.6004639 v 10.939094 c 0,0.332759 0.267703,0.600466 0.6004619,0.600466 0.3327589,0 0.6004619,-0.267707 0.6004619,-0.600466 V 3.087532 c 0,-0.3327589 -0.267703,-0.6004639 -0.6004619,-0.6004639 z m 2.4668226,0 c -0.3327387,0 -0.6004618,0.267705 -0.6004618,0.6004639 v 10.939094 c 0,0.332759 0.2677231,0.600466 0.6004618,0.600466 0.3327585,0 0.6004815,-0.267707 0.6004815,-0.600466 V 3.087532 c 0,-0.3327589 -0.267723,-0.6004639 -0.6004815,-0.6004639 z m 2.4668425,0 c -0.332758,0 -0.600462,0.267705 -0.600462,0.6004639 v 10.939094 c 0,0.332759 0.267704,0.600466 0.600462,0.600466 0.332759,0 0.600462,-0.267707 0.600462,-0.600466 V 3.087532 c 0,-0.3327589 -0.267703,-0.6004639 -0.600462,-0.6004639 z" />
  <path
     id="path1704"
     style="fill:#ffffff;fill-opacity:0.707231;stroke:none;stroke-width:0.141119;stroke-linecap:round;stroke-linejoin:round;stroke-miterlimit:4;stroke-dasharray:none;stroke-opacity:1"
     d="m 14.910197,4.8568351 c 0,-0.3327589 -0.267702,-0.6004619 -0.600462,-0.6004619 H 2.5869306 c -0.3327588,0 -0.6004618,0.267703 -0.6004618,0.6004619 0,0.3327589 0.267703,0.6004618 0.6004618,0.6004618 H 14.309735 c 0.33276,0 0.600462,-0.2677029 0.600462,-0.6004618 z m 0,2.4668226 c 0,-0.3327588 -0.267702,-0.6004618 -0.600462,-0.6004618 H 2.5869306 c -0.3327588,0 -0.6004618,0.267703 -0.6004618,0.6004618 0,0.3327589 0.267703,0.6004618 0.6004618,0.6004618 H 14.309735 c 0.33276,0 0.600462,-0.2677029 0.600462,-0.6004618 z m 0,2.4668227 c 0,-0.332735 -0.267702,-0.600462 -0.600462,-0.600462 H 2.5869306 c -0.3327588,0 -0.6004618,0.267727 -0.6004618,0.600462 0,0.3327586 0.267703,0.6004816 0.6004618,0.6004816 H 14.309735 c 0.33276,0 0.600462,-0.267723 0.600462,-0.6004816 z m 0,2.4668416 c 0,-0.332754 -0.267702,-0.600457 -0.600462,-0.600457 H 2.5869306 c -0.3327588,0 -0.6004618,0.267703 -0.6004618,0.600457 0,0.33276 0.267703,0.600462 0.6004618,0.600462 H 14.309735 c 0.33276,0 0.600462,-0.267702 0.600462,-0.600462 z"
     sodipodi:nodetypes="ssssssssssssssssssssssssssss" />
  <rect
     style="fill:#000000;fill-opacity:0.104451;stroke:none;stroke-width:0.141119;stroke-linecap:round;stroke-linejoin:round;stroke-miterlimit:4;stroke-dasharray:none;stroke-opacity:1"
     id="rect1711"
     width="11.581671"
     height="10.81361"
     x="2.6574686"
     y="3.1502767"
     rx="1.5012507"
     ry="1.5012507" />
  <rect
     style="fill:url(#linearGradient1735);fill-opacity:1;stroke:none;stroke-width:0.141119;stroke-linecap:round;stroke-linejoin:round;stroke-miterlimit:4;stroke-dasharray:none;stroke-opacity:1"
     id="rect1693"
     width="11.088183"
     height="10.352846"
     x="2.9042251"
     y="3.3806591"
     rx="1.5012507"
     ry="1.5012507" />
  <text
     xml:space="preserve"
     style="font-style:normal;font-weight:normal;font-size:4.52097px;line-height:1.25;font-family:sans-serif;fill:url(#linearGradient1727);fill-opacity:1;stroke:none;stroke-width:0.113025"
     x="3.582567"
     y="12.082636"
     id="text1719"
     transform="scale(1.2178425,0.82112424)"><tspan
       sodipodi:role="line"
       id="tspan1717"
       x="3.582567"
       y="12.082636"
       style="font-style:normal;font-variant:normal;font-weight:normal;font-stretch:normal;font-family:'Noto Sans Mono CJK JP';-inkscape-font-specification:'Noto Sans Mono CJK JP';fill:url(#linearGradient1727);fill-opacity:1;stroke-width:0.113025">GPU</tspan></text>
</svg>
