<?xml version="1.0" encoding="UTF-8" standalone="no"?>
<svg
   xmlns:dc="http://purl.org/dc/elements/1.1/"
   xmlns:cc="http://creativecommons.org/ns#"
   xmlns:rdf="http://www.w3.org/1999/02/22-rdf-syntax-ns#"
   xmlns:svg="http://www.w3.org/2000/svg"
   xmlns="http://www.w3.org/2000/svg"
   xmlns:xlink="http://www.w3.org/1999/xlink"
   xmlns:sodipodi="http://sodipodi.sourceforge.net/DTD/sodipodi-0.dtd"
   xmlns:inkscape="http://www.inkscape.org/namespaces/inkscape"
   width="64"
   height="64"
   version="1.1"
   viewBox="0 0 16.933 16.933"
   id="svg29"
   sodipodi:docname="mozillavpn.svg"
   inkscape:version="1.0.2 (e86c870879, 2021-01-15)">
  <metadata
     id="metadata33">
    <rdf:RDF>
      <cc:Work
         rdf:about="">
        <dc:format>image/svg+xml</dc:format>
        <dc:type
           rdf:resource="http://purl.org/dc/dcmitype/StillImage" />
        <dc:title></dc:title>
      </cc:Work>
    </rdf:RDF>
  </metadata>
  <sodipodi:namedview
     pagecolor="#ffffff"
     bordercolor="#666666"
     borderopacity="1"
     objecttolerance="10"
     gridtolerance="10"
     guidetolerance="10"
     inkscape:pageopacity="0"
     inkscape:pageshadow="2"
     inkscape:window-width="1920"
     inkscape:window-height="1028"
     id="namedview31"
     showgrid="false"
     inkscape:zoom="2.5080194"
     inkscape:cx="-118.63656"
     inkscape:cy="14.101285"
     inkscape:window-x="0"
     inkscape:window-y="24"
     inkscape:window-maximized="1"
     inkscape:current-layer="svg29"
     inkscape:document-rotation="0" />
  <defs
     id="defs5">
    <linearGradient
       inkscape:collect="always"
       id="linearGradient1029">
      <stop
         style="stop-color:#0ea3f9;stop-opacity:1;"
         offset="0"
         id="stop1025" />
      <stop
         style="stop-color:#0ea3f9;stop-opacity:0;"
         offset="1"
         id="stop1027" />
    </linearGradient>
    <linearGradient
       inkscape:collect="always"
       id="linearGradient1000">
      <stop
         style="stop-color:#298df2;stop-opacity:1"
         offset="0"
         id="stop996" />
      <stop
         style="stop-color:#2b8af1;stop-opacity:1;"
         offset="0.73246437"
         id="stop1004" />
      <stop
         style="stop-color:#2b8af1;stop-opacity:0.94509804;"
         offset="0.75837368"
         id="stop1006" />
      <stop
         style="stop-color:#2b8af1;stop-opacity:0.89803922;"
         offset="0.78514433"
         id="stop1008" />
      <stop
         style="stop-color:#2b8af1;stop-opacity:0.03921569;"
         offset="0.91932702"
         id="stop1012" />
      <stop
         style="stop-color:#2c8af1;stop-opacity:0"
         offset="0.97024333"
         id="stop1010" />
      <stop
         style="stop-color:#2d8af1;stop-opacity:0"
         offset="1"
         id="stop998" />
    </linearGradient>
    <linearGradient
       inkscape:collect="always"
       id="linearGradient948">
      <stop
         style="stop-color:#ffffff;stop-opacity:0"
         offset="0"
         id="stop944" />
      <stop
         style="stop-color:#ffffff;stop-opacity:0"
         offset="0.24819484"
         id="stop964" />
      <stop
         style="stop-color:#ffffff;stop-opacity:0.80784314;"
         offset="0.35243216"
         id="stop966" />
      <stop
         style="stop-color:#ffffff;stop-opacity:1"
         offset="0.44733056"
         id="stop954" />
      <stop
         style="stop-color:#ffffff;stop-opacity:1"
         offset="0.74690002"
         id="stop956" />
      <stop
         style="stop-color:#ffffff;stop-opacity:0.85490196;"
         offset="0.81397289"
         id="stop960" />
      <stop
         style="stop-color:#ffffff;stop-opacity:0.09803922;"
         offset="0.95252085"
         id="stop962" />
      <stop
         style="stop-color:#ffffff;stop-opacity:0"
         offset="1"
         id="stop946" />
    </linearGradient>
    <filter
       id="filter862"
       x="-.011973"
       y="-.012027"
       width="1.0239"
       height="1.0241"
       color-interpolation-filters="sRGB">
      <feGaussianBlur
         stdDeviation="0.2350195"
         id="feGaussianBlur2" />
    </filter>
    <linearGradient
       inkscape:collect="always"
       xlink:href="#linearGradient887"
       id="linearGradient889"
       x1="-45.290127"
       y1="47.877674"
       x2="-69.193512"
       y2="6.4757967"
       gradientUnits="userSpaceOnUse"
       gradientTransform="translate(82.788401,5.588583)" />
    <linearGradient
       inkscape:collect="always"
       id="linearGradient887">
      <stop
         style="stop-color:#0ca4f9;stop-opacity:1"
         offset="0"
         id="stop883" />
      <stop
         style="stop-color:#2e89f1;stop-opacity:1"
         offset="1"
         id="stop885" />
    </linearGradient>
    <radialGradient
       inkscape:collect="always"
       xlink:href="#linearGradient948"
       id="radialGradient952"
       gradientUnits="userSpaceOnUse"
       gradientTransform="matrix(0.54432469,0,0,0.51997913,3.9326418,1.9012003)"
       cx="8.6303596"
       cy="3.9606614"
       fx="8.6303596"
       fy="3.9606614"
       r="4.1687016" />
    <radialGradient
       inkscape:collect="always"
       xlink:href="#linearGradient948"
       id="radialGradient976"
       gradientUnits="userSpaceOnUse"
       gradientTransform="matrix(0.54432469,0,0,0.51997913,-15.472129,8.6358128)"
       cx="7.9495964"
       cy="3.9815712"
       fx="7.9495964"
       fy="3.9815712"
       r="4.1687016" />
    <radialGradient
       inkscape:collect="always"
       xlink:href="#linearGradient1000"
       id="radialGradient1002"
       cx="8.1817245"
       cy="8.5995588"
       fx="8.1817245"
       fy="8.5995588"
       r="4.1687016"
       gradientUnits="userSpaceOnUse"
       gradientTransform="matrix(2.4773547,0,0,2.3450696,-12.097846,-11.573677)" />
    <linearGradient
       inkscape:collect="always"
       xlink:href="#linearGradient1029"
       id="linearGradient1031"
       x1="13.819559"
       y1="11.93963"
       x2="13.819559"
       y2="5.1779475"
       gradientUnits="userSpaceOnUse" />
  </defs>
  <circle
     style="fill:url(#radialGradient1002);fill-opacity:1;stroke:none;stroke-width:1.63461;stroke-linecap:round;stroke-linejoin:round;stroke-miterlimit:4;stroke-dasharray:none;stroke-opacity:1"
     id="circle994"
     cx="12.430756"
     cy="4.4474597"
     r="4.1687016" />
  <path
     id="path861"
     style="fill:url(#linearGradient889);fill-opacity:1;stroke-width:0.177768;stroke-linecap:round;stroke-linejoin:round"
     d="M 32.089844 2.8027344 C 15.630818 2.802267 2.28772 16.14449 2.2871094 32.603516 C 2.2866397 49.063305 15.630054 62.406719 32.089844 62.40625 C 48.549636 62.406719 61.893047 49.063308 61.892578 32.603516 C 61.892473 29.778846 61.490221 27.050322 60.755859 24.460938 A 15.756033 15.756033 0 0 1 46.982422 32.566406 A 15.756033 15.756033 0 0 1 31.226562 16.810547 A 15.756033 15.756033 0 0 1 38.535156 3.5097656 C 36.458663 3.051791 34.304014 2.8026712 32.089844 2.8027344 z "
     transform="scale(0.26457812)" />
  <circle
     style="fill:url(#radialGradient952);stroke:none;stroke-width:1.63461;stroke-linecap:round;stroke-linejoin:round;stroke-miterlimit:4;stroke-dasharray:none;stroke-opacity:1;fill-opacity:1"
     id="circle942"
     cx="12.430756"
     cy="4.4940815"
     r="4.1687016" />
  <g
     id="g972"
     style="opacity:1;fill:#ffffff"
     transform="translate(-31.529396,2.3784956)">
    <path
       id="path970"
       style="color:#000000;font-style:normal;font-variant:normal;font-weight:normal;font-stretch:normal;font-size:medium;line-height:normal;font-family:sans-serif;font-variant-ligatures:normal;font-variant-position:normal;font-variant-caps:normal;font-variant-numeric:normal;font-variant-alternates:normal;font-variant-east-asian:normal;font-feature-settings:normal;font-variation-settings:normal;text-indent:0;text-align:start;text-decoration:none;text-decoration-line:none;text-decoration-style:solid;text-decoration-color:#000000;letter-spacing:normal;word-spacing:normal;text-transform:none;writing-mode:lr-tb;direction:ltr;text-orientation:mixed;dominant-baseline:auto;baseline-shift:baseline;text-anchor:start;white-space:normal;shape-padding:0;shape-margin:0;inline-size:0;clip-rule:nonzero;display:inline;overflow:visible;visibility:visible;isolation:auto;mix-blend-mode:normal;color-interpolation:sRGB;color-interpolation-filters:linearRGB;solid-color:#000000;solid-opacity:1;vector-effect:none;fill:#ffffff;fill-opacity:1;fill-rule:nonzero;stroke:none;stroke-width:3.7796;stroke-linecap:round;stroke-linejoin:round;stroke-miterlimit:4;stroke-dasharray:none;stroke-dashoffset:0;stroke-opacity:1;color-rendering:auto;image-rendering:auto;shape-rendering:auto;text-rendering:auto;enable-background:accumulate;stop-color:#000000;stop-opacity:1"
       d="M 32.585938 8.6445312 C 29.057876 8.6445312 26.162109 11.53834 26.162109 15.066406 C 26.162109 15.919061 26.334421 16.733757 26.640625 17.480469 L 18.929688 26.740234 C 18.298169 26.530701 17.626545 26.414062 16.927734 26.414062 C 13.399669 26.414062 10.505859 29.307871 10.505859 32.835938 C 10.505859 36.364004 13.399669 39.257812 16.927734 39.257812 C 19.152442 39.257812 21.123424 38.105996 22.277344 36.371094 L 41.429688 36.371094 L 33.546875 44.253906 C 33.231959 44.205784 32.913606 44.173828 32.585938 44.173828 C 29.057876 44.173828 26.162109 47.069591 26.162109 50.597656 C 26.162109 54.125722 29.057876 57.019531 32.585938 57.019531 C 36.114007 57.019531 39.007812 54.125722 39.007812 50.597656 C 39.007812 49.262644 38.593089 48.01737 37.886719 46.986328 L 46.021484 38.851562 C 46.713412 39.108647 47.456635 39.257812 48.234375 39.257812 C 51.762444 39.257812 54.664062 36.364004 54.664062 32.835938 C 54.664062 32.108731 54.535224 31.411338 54.308594 30.757812 A 15.756033 15.756033 0 0 1 51.255859 31.974609 C 51.332809 32.249241 51.386719 32.534369 51.386719 32.835938 C 51.386719 34.59322 49.991656 35.980469 48.234375 35.980469 C 46.477094 35.980469 45.089844 34.59322 45.089844 32.835938 C 45.089844 32.705348 45.112049 32.581163 45.126953 32.455078 A 15.756033 15.756033 0 0 1 40.957031 31.367188 L 23.171875 31.367188 C 23.060868 30.899458 22.897286 30.452108 22.689453 30.029297 L 30.195312 21.019531 C 30.740556 21.240651 31.322406 21.389031 31.927734 21.453125 A 15.756033 15.756033 0 0 1 31.267578 17.925781 C 30.184486 17.430701 29.439453 16.349015 29.439453 15.066406 C 29.439453 13.515347 30.523935 12.25549 31.986328 11.980469 A 15.756033 15.756033 0 0 1 33.466797 8.7128906 C 33.178077 8.6726382 32.885161 8.6445312 32.585938 8.6445312 z M 16.927734 29.691406 C 18.685015 29.691406 20.080078 31.078657 20.080078 32.835938 C 20.080078 34.59322 18.685015 35.980469 16.927734 35.980469 C 15.170454 35.980469 13.783203 34.59322 13.783203 32.835938 C 13.783203 31.078657 15.170454 29.691407 16.927734 29.691406 z M 32.585938 47.451172 C 34.343218 47.451172 35.730469 48.840376 35.730469 50.597656 C 35.730469 52.354941 34.343218 53.748047 32.585938 53.748047 C 30.828657 53.748047 29.439453 52.354941 29.439453 50.597656 C 29.439453 48.840376 30.828657 47.451172 32.585938 47.451172 z "
       transform="matrix(0.26457812,0,0,0.26457812,31.529396,-2.3784956)" />
  </g>
  <circle
     style="fill:url(#linearGradient1031);fill-opacity:1;stroke:none;stroke-width:1.63461;stroke-linecap:round;stroke-linejoin:round;stroke-miterlimit:4;stroke-dasharray:none;stroke-opacity:1"
     id="circle1023"
     cx="12.430756"
     cy="4.4474597"
     r="4.1687016" />
  <circle
     style="fill:url(#radialGradient976);fill-opacity:1;stroke:none;stroke-width:1.63461;stroke-linecap:round;stroke-linejoin:round;stroke-miterlimit:4;stroke-dasharray:none;stroke-opacity:1"
     id="circle974"
     cx="-6.9740148"
     cy="11.228694"
     r="4.1687016"
     transform="rotate(-101.96754)" />
  <circle
     style="fill:#ffffff;fill-opacity:0.71085745;stroke:none;stroke-width:1.63461;stroke-linecap:round;stroke-linejoin:round;stroke-miterlimit:4;stroke-dasharray:none;stroke-opacity:1"
     id="path940"
     cx="12.430756"
     cy="4.4474597"
     r="4.1687016" />
  <path
     style="fill:#0328ff;fill-opacity:0.47358453;stroke-width:0.0477827"
     d="m 12.430475,1.9830065 c -0.03165,0 -0.06315,0.00975 -0.09002,0.029338 -0.256684,0.1868622 -1.036872,0.6976933 -1.992783,0.7871059 -0.115031,0.010553 -0.203358,0.1061106 -0.205367,0.2216435 -0.01155,0.7539791 0.109414,3.3136503 2.230703,3.8832837 0.03768,0.010047 0.07747,0.010047 0.115142,0 2.121288,-0.5691262 2.242156,-3.1293097 2.231105,-3.8832837 -0.0015,-0.1155329 -0.09034,-0.2110898 -0.205368,-0.2216435 -0.955909,-0.089413 -1.736002,-0.6002437 -1.993183,-0.7871059 -0.02687,-0.019591 -0.05858,-0.029338 -0.09023,-0.029338 z m -0.0098,1.5965169 c 0.299062,0 0.542353,0.243318 0.542353,0.5423534 v 0.220438 c 0.04275,0.009 0.07495,0.046839 0.07495,0.092234 v 0.8256874 c 0,0.051995 -0.04222,0.094445 -0.09424,0.094445 h -1.045924 c -0.05202,0 -0.09445,-0.04245 -0.09445,-0.094445 V 4.4345491 c 0,-0.045395 0.03221,-0.083342 0.07495,-0.092234 V 4.1218768 c 0,-0.2990354 0.243292,-0.5423534 0.542355,-0.5423534 z m 0,0.1886884 c -0.195024,0 -0.353666,0.1586393 -0.353666,0.353665 v 0.2184285 h 0.707332 V 4.1218768 c 0,-0.195016 -0.158644,-0.353665 -0.353666,-0.353665 z M 11.943026,4.442587 c -0.03278,0 -0.05928,0.026691 -0.05928,0.05948 0,0.03278 0.0265,0.059279 0.05928,0.059279 0.03278,0 0.05928,-0.026499 0.05928,-0.059279 0,-0.032769 -0.0265,-0.05948 -0.05928,-0.05948 z m 0.955298,0 c -0.03278,0 -0.05928,0.026691 -0.05928,0.05948 0,0.03278 0.0265,0.059279 0.05928,0.059279 0.03278,0 0.05948,-0.026499 0.05948,-0.059279 0,-0.032769 -0.0267,-0.05948 -0.05948,-0.05948 z m -0.477649,0.1874825 c -0.07309,0 -0.132223,0.059298 -0.132223,0.1324236 0,0.038757 0.01666,0.073666 0.04321,0.097861 l -0.03517,0.1856742 c -0.0019,0.010348 0.0051,0.018688 0.01547,0.018688 h 0.220037 c 0.01037,0 0.01741,-0.00833 0.01547,-0.018688 l -0.03557,-0.1876836 c 0.02529,-0.024114 0.04119,-0.058162 0.04119,-0.095851 0,-0.073125 -0.05933,-0.1324236 -0.132423,-0.1324236 z m -0.477649,0.5033701 c -0.03278,0 -0.05928,0.0267 -0.05928,0.05948 0,0.032779 0.0265,0.059279 0.05928,0.059279 0.03278,0 0.05928,-0.02652 0.05928,-0.059279 0,-0.03278 -0.0265,-0.05948 -0.05928,-0.05948 z m 0.955298,0 c -0.03278,0 -0.05928,0.0267 -0.05928,0.05948 0,0.032779 0.0265,0.059279 0.05928,0.059279 0.03278,0 0.05948,-0.02652 0.05948,-0.059279 0,-0.03278 -0.0267,-0.05948 -0.05948,-0.05948 z"
     id="path1022"
     inkscape:connector-curvature="0" />
</svg>
