<?xml version="1.0" encoding="UTF-8" standalone="no"?>
<svg
   xmlns:dc="http://purl.org/dc/elements/1.1/"
   xmlns:cc="http://creativecommons.org/ns#"
   xmlns:rdf="http://www.w3.org/1999/02/22-rdf-syntax-ns#"
   xmlns:svg="http://www.w3.org/2000/svg"
   xmlns="http://www.w3.org/2000/svg"
   xmlns:sodipodi="http://sodipodi.sourceforge.net/DTD/sodipodi-0.dtd"
   xmlns:inkscape="http://www.inkscape.org/namespaces/inkscape"
   width="48"
   height="48"
   viewBox="0 0 12.7 12.7"
   version="1.1"
   id="svg3660"
   inkscape:version="1.0.2 (e86c870879, 2021-01-15)"
   sodipodi:docname="pcsxr.svg">
  <defs
     id="defs3654" />
  <sodipodi:namedview
     id="base"
     pagecolor="#ffffff"
     bordercolor="#666666"
     borderopacity="1.0"
     inkscape:pageopacity="0.0"
     inkscape:pageshadow="2"
     inkscape:zoom="5.6"
     inkscape:cx="28.223897"
     inkscape:cy="41.804937"
     inkscape:document-units="mm"
     inkscape:current-layer="layer1"
     inkscape:document-rotation="0"
     showgrid="false"
     units="px"
     inkscape:window-width="1293"
     inkscape:window-height="875"
     inkscape:window-x="0"
     inkscape:window-y="24"
     inkscape:window-maximized="0" />
  <metadata
     id="metadata3657">
    <rdf:RDF>
      <cc:Work
         rdf:about="">
        <dc:format>image/svg+xml</dc:format>
        <dc:type
           rdf:resource="http://purl.org/dc/dcmitype/StillImage" />
        <dc:title></dc:title>
      </cc:Work>
    </rdf:RDF>
  </metadata>
  <g
     inkscape:label="Capa 1"
     inkscape:groupmode="layer"
     id="layer1">
    <path
       inkscape:connector-curvature="0"
       d="M 6.0976247,3.243996 C 5.8692147,3.248436 5.6443853,3.257326 5.4959548,3.279545 4.8320782,3.3808586 4.2997329,3.613699 3.9575869,3.9532026 A 1.3686266,1.3686266 0 0 0 3.5843273,4.5930828 C 3.5443353,4.7477188 3.5310033,5.1040964 3.5727783,5.2400594 3.7123068,5.7199586 4.0437908,6.0878908 4.6658977,6.4575915 4.9307276,6.6140047 5.135142,6.717094 5.7234711,6.9828193 6.4300115,7.3000955 6.645081,7.4280673 6.7454975,7.587153 6.7846005,7.651141 6.7988215,7.684912 6.7934895,7.7622302 6.7828345,7.8848744 6.7215035,7.9461942 6.5775318,7.9986317 6.4815498,8.0324027 6.4468896,8.0430667 6.2647096,8.0430667 5.9314505,8.0395138 5.6381702,7.9773015 5.2311326,7.8324411 A 3.760983,3.760983 0 0 1 4.426839,7.4378489 C 4.1904372,7.2832129 4.171769,7.277881 4.1015711,7.3152048 4.0491378,7.344533 3.6652096,7.6866962 3.3817113,7.9639718 3.1959701,8.1443809 3.1933041,8.1808185 3.321278,8.3052445 c 0.1253099,0.124421 0.4790258,0.3866 0.6727627,0.498567 0.210626,0.124422 0.3510542,0.192853 0.5883291,0.280835 0.3981513,0.147526 0.7323058,0.208849 1.3579498,0.262166 0.1421948,0.01155 0.6505353,0.01333 0.8291632,0 0.9793621,-0.07821 1.778328,-0.398151 2.1987285,-0.8665 0.151081,-0.16619 0.2417291,-0.3092627 0.3128216,-0.5083492 0.06932,-0.1937414 0.087093,-0.5741149 0.035551,-0.8051887 C 9.2330429,6.7926193 9.0072992,6.4540326 8.6438213,6.1687438 8.2794482,5.8825815 7.9097472,5.6923816 7.0219151,5.3368951 6.4015984,5.0898383 6.1687561,4.9583076 6.1083184,4.8205544 6.0754355,4.7467909 6.0949993,4.6161489 6.1438668,4.5663795 6.2416268,4.4677315 6.430029,4.4321828 6.6735486,4.4615108 c 0.4532394,0.05599 1.0362408,0.2639565 1.549918,0.5510139 0.099537,0.055102 0.1955189,0.1013139 0.2168488,0.1057576 0.08265,0.021331 0.1333079,-0.011554 0.4683487,-0.3945922 C 9.3201339,4.2526773 9.3157019,4.2713241 9.0890735,4.1104696 8.413647,3.6270113 7.631581,3.3461767 6.7340104,3.2617429 A 6.2760925,6.2760925 0 0 0 6.0967942,3.2439708 Z"
       id="path5154-4"
       style="fill:#ffffff;stroke-width:0.825254" />
    <g
       transform="matrix(0.30436473,0,0,0.30436473,-1.1955501,-2.0419002)"
       id="g6"
       style="fill:#74a2c6;fill-opacity:1"
       fill="#c185b1"
       opacity="0.99">
      <path
         d="M 44.322082,27.405077 A 19.729762,19.729765 0 0 1 24.59232,47.134842 19.729762,19.729765 0 0 1 4.8625579,27.405077 19.729762,19.729765 0 0 1 24.59232,7.6753138 19.729762,19.729765 0 0 1 44.322082,27.405077 Z"
         id="path2"
         style="fill:#74a2c6;fill-opacity:1" />
      <path
         d="M 44.322082,27.405077 A 19.729762,19.729765 0 0 1 24.59232,47.134842 19.729762,19.729765 0 0 1 4.8625579,27.405077 19.729762,19.729765 0 0 1 24.59232,7.6753138 19.729762,19.729765 0 0 1 44.322082,27.405077 Z"
         id="path4"
         style="fill:#74a2c6;fill-opacity:1" />
    </g>
    <path
       inkscape:connector-curvature="0"
       id="path18-7-0"
       d="m 5.4275175,3.5831426 0.00774,5.0556559 1.0962147,0.376537 0.00436,-4.3200068 c 0,0 0,-4.763e-4 0,-4.763e-4 3.969e-4,-0.4206531 0.456393,-0.2196931 0.456393,0.055659 v 1.867195 C 7.7848195,6.9860903 8.2527959,6.5954362 8.2617018,5.5882807 8.2705521,4.7223384 7.7224572,4.2279049 6.8267008,3.9737231 Z M 5.2039183,6.654964 5.0388816,6.7082019 3.4431991,7.2802663 C 3.1072836,7.4343125 2.8264609,7.5340662 2.8246726,7.7850574 c 0.00842,0.3176987 0.5066136,0.4725291 1.235601,0.5943281 0.3884813,0.07786 0.7853743,0.02552 1.1252538,-0.04646 V 7.7342397 c 0,0 -0.6299782,0.244847 -0.7796921,0.2652215 L 4.1028638,7.998006 C 3.8778508,7.9967624 3.7732097,7.8522555 3.9973562,7.7748916 L 5.2039183,7.3184985 Z m 2.8351557,0.2695768 4.762e-4,4.763e-4 C 7.62061,6.9236148 7.0402193,7.0375796 6.7526473,7.1713635 V 7.8537739 L 7.511044,7.5764533 8.1116632,7.3852818 C 8.7372895,7.2822705 8.9861934,7.5009171 8.3768845,7.6834135 l -1.6242372,0.593844 -0.00193,0.6616 L 9.1236715,8.085601 C 9.3855399,7.9942843 9.7535589,7.8097967 9.7542969,7.5832353 9.6907419,7.2323666 9.1630475,7.0278159 8.343494,6.9409929 8.269983,6.9334129 8.1961809,6.9286659 8.122799,6.9264729 8.094848,6.9256527 8.067041,6.9246229 8.039071,6.9245429 Z"
       style="fill:#ffffff;stroke-width:0.0184376" />
  </g>
</svg>
