<?xml version="1.0" encoding="utf-8"?>
<!-- Generator: Adobe Illustrator 23.0.0, SVG Export Plug-In . SVG Version: 6.00 Build 0)  -->
<!DOCTYPE svg PUBLIC "-//W3C//DTD SVG 1.1//EN" "http://www.w3.org/Graphics/SVG/1.1/DTD/svg11.dtd" [
	<!ENTITY ns_extend "http://ns.adobe.com/Extensibility/1.0/">
	<!ENTITY ns_ai "http://ns.adobe.com/AdobeIllustrator/10.0/">
	<!ENTITY ns_graphs "http://ns.adobe.com/Graphs/1.0/">
	<!ENTITY ns_vars "http://ns.adobe.com/Variables/1.0/">
	<!ENTITY ns_imrep "http://ns.adobe.com/ImageReplacement/1.0/">
	<!ENTITY ns_sfw "http://ns.adobe.com/SaveForWeb/1.0/">
	<!ENTITY ns_custom "http://ns.adobe.com/GenericCustomNamespace/1.0/">
	<!ENTITY ns_adobe_xpath "http://ns.adobe.com/XPath/1.0/">
]>
<svg version="1.1" id="레이어_1" xmlns:x="&ns_extend;" xmlns:i="&ns_ai;" xmlns:graph="&ns_graphs;"
	 xmlns="http://www.w3.org/2000/svg" xmlns:xlink="http://www.w3.org/1999/xlink" x="0px" y="0px" viewBox="0 0 16 16"
	 style="enable-background:new 0 0 16 16;" xml:space="preserve">
<style type="text/css">
	.st0{fill:#363636;}
</style>
<metadata>
	<sfw  xmlns="&ns_sfw;">
		<slices></slices>
		<sliceSourceBounds  bottomLeftOrigin="true" height="15" width="14" x="1" y="0.5"></sliceSourceBounds>
	</sfw>
</metadata>
<path class="st0" d="M8,0.5c-3.7,0-6.8,2.9-7,6.6h0c0,1.9,0,3.8,0,5.7c0,0.9,0.7,1.6,1.6,1.6c0.9,0,1.6-0.7,1.6-1.6V9.3
	c0-0.1,0.1-0.8-0.4-1.2c-0.4-0.4-1-0.4-1.2-0.4C2.3,7.7,2.1,7.8,2,7.8C1.8,4.4,4.6,1.4,8,1.4s6.2,2.9,6,6.4
	c-0.1-0.1-0.4-0.1-0.6-0.1c-0.2,0-0.7,0-1.1,0.3c-0.5,0.5-0.5,1.2-0.5,1.3c0,1.2,0,2.3,0,3.5c0,0.1,0,0.6,0.3,1
	c0.3,0.3,0.6,0.5,0.7,0.5c0,0.1-0.1,0.2-0.1,0.3H9.3c-0.1-0.2-0.3-0.5-0.5-0.7c-0.3,0.2-0.5,0.4-0.8,0.5c0.2,0.3,0.3,0.5,0.5,0.8
	c0,0.1,0.1,0.2,0.3,0.3c0.1,0.1,0.3,0.1,0.3,0.1c1.2,0,2.4,0,3.6,0c0.1,0,0.3,0,0.6-0.2c0.2-0.2,0.3-0.4,0.3-0.4l0.2-0.6
	c0.1,0,0.5-0.2,0.8-0.6c0.3-0.4,0.3-0.8,0.3-0.9c0-1.9,0-3.8,0-5.7C14.8,3.4,11.7,0.5,8,0.5z"/>
</svg>
