<?xml version="1.0" encoding="utf-8"?>
<!-- Generator: Adobe Illustrator 23.0.0, SVG Export Plug-In . SVG Version: 6.00 Build 0)  -->
<!DOCTYPE svg PUBLIC "-//W3C//DTD SVG 1.1//EN" "http://www.w3.org/Graphics/SVG/1.1/DTD/svg11.dtd" [
	<!ENTITY ns_extend "http://ns.adobe.com/Extensibility/1.0/">
	<!ENTITY ns_ai "http://ns.adobe.com/AdobeIllustrator/10.0/">
	<!ENTITY ns_graphs "http://ns.adobe.com/Graphs/1.0/">
	<!ENTITY ns_vars "http://ns.adobe.com/Variables/1.0/">
	<!ENTITY ns_imrep "http://ns.adobe.com/ImageReplacement/1.0/">
	<!ENTITY ns_sfw "http://ns.adobe.com/SaveForWeb/1.0/">
	<!ENTITY ns_custom "http://ns.adobe.com/GenericCustomNamespace/1.0/">
	<!ENTITY ns_adobe_xpath "http://ns.adobe.com/XPath/1.0/">
]>
<svg version="1.1" id="레이어_1" xmlns:x="&ns_extend;" xmlns:i="&ns_ai;" xmlns:graph="&ns_graphs;"
	 xmlns="http://www.w3.org/2000/svg" xmlns:xlink="http://www.w3.org/1999/xlink" x="0px" y="0px" viewBox="0 0 16 16"
	 style="enable-background:new 0 0 16 16;" xml:space="preserve">
<style type="text/css">
	.st0{fill:#363636;}
	.st1{fill-rule:evenodd;clip-rule:evenodd;fill:#363636;}
</style>
<metadata>
	<sfw  xmlns="&ns_sfw;">
		<slices></slices>
		<sliceSourceBounds  bottomLeftOrigin="true" height="14" width="11.1" x="2.4" y="-15"></sliceSourceBounds>
	</sfw>
</metadata>
<path class="st0" d="M8,7.5L8,7.5C7.7,7.5,7.5,7.3,7.5,7V3c0-0.3,0.2-0.5,0.5-0.5h0c0.3,0,0.5,0.2,0.5,0.5v4C8.5,7.3,8.3,7.5,8,7.5z
	"/>
<path class="st1" d="M7.2,1h1.6c1.2,0,2.1,1,2.1,2.1v4.7c0,1.6-1.3,2.9-2.9,2.9h0c-1.6,0-2.9-1.3-2.9-2.9V3.1C5.1,2,6,1,7.2,1z"/>
<rect x="6" y="14.1" class="st1" width="4.1" height="0.9"/>
<rect x="7.5" y="12.1" class="st1" width="1" height="2.9"/>
<path class="st1" d="M12.6,8.1c-0.1,0.4-0.3,1.6-1.3,2.7c-1.1,1.1-2.4,1.3-2.8,1.3c0,0,0,0,0,0c-0.3,0-0.7,0-1,0c0,0,0,0,0,0
	c-0.4,0-1.7-0.2-2.8-1.3c-1.1-1-1.3-2.3-1.3-2.7H2.4c0.1,0.5,0.3,2.1,1.7,3.4c1.3,1.3,2.9,1.5,3.4,1.6c0,0,0,0,0,0c0.3,0,0.6,0,1,0
	c0,0,0,0,0,0c0.5,0,2-0.3,3.4-1.6c1.4-1.3,1.6-3,1.7-3.4H12.6z"/>
</svg>
