<?xml version="1.0" encoding="utf-8"?>
<!-- Generator: Adobe Illustrator 23.0.0, SVG Export Plug-In . SVG Version: 6.00 Build 0)  -->
<!DOCTYPE svg PUBLIC "-//W3C//DTD SVG 1.1//EN" "http://www.w3.org/Graphics/SVG/1.1/DTD/svg11.dtd" [
	<!ENTITY ns_extend "http://ns.adobe.com/Extensibility/1.0/">
	<!ENTITY ns_ai "http://ns.adobe.com/AdobeIllustrator/10.0/">
	<!ENTITY ns_graphs "http://ns.adobe.com/Graphs/1.0/">
	<!ENTITY ns_vars "http://ns.adobe.com/Variables/1.0/">
	<!ENTITY ns_imrep "http://ns.adobe.com/ImageReplacement/1.0/">
	<!ENTITY ns_sfw "http://ns.adobe.com/SaveForWeb/1.0/">
	<!ENTITY ns_custom "http://ns.adobe.com/GenericCustomNamespace/1.0/">
	<!ENTITY ns_adobe_xpath "http://ns.adobe.com/XPath/1.0/">
]>
<svg version="1.1" id="레이어_1" xmlns:x="&ns_extend;" xmlns:i="&ns_ai;" xmlns:graph="&ns_graphs;"
	 xmlns="http://www.w3.org/2000/svg" xmlns:xlink="http://www.w3.org/1999/xlink" x="0px" y="0px" viewBox="0 0 16 16"
	 style="enable-background:new 0 0 16 16;" xml:space="preserve">
<style type="text/css">
	.st0{fill:#363636;}
</style>
<metadata>
	<sfw  xmlns="&ns_sfw;">
		<slices></slices>
		<sliceSourceBounds  bottomLeftOrigin="true" height="13" width="15" x="0.5" y="1.5"></sliceSourceBounds>
	</sfw>
</metadata>
<path class="st0" d="M0.5,3.7v7.8c0,0.3,0.3,0.6,0.6,0.6h10.8c0.3,0,0.6-0.3,0.6-0.6V3.7c0-0.3-0.3-0.6-0.6-0.6H1.1
	C0.8,3.1,0.5,3.4,0.5,3.7z M11.2,11.1H1.8c-0.2,0-0.3-0.1-0.3-0.3V4.4c0-0.2,0.1-0.3,0.3-0.3h9.4c0.2,0,0.3,0.1,0.3,0.3v6.4
	C11.5,11,11.4,11.1,11.2,11.1z"/>
<rect x="6" y="11.1" class="st0" width="1" height="3"/>
<path class="st0" d="M8.6,14.1H4.4c-0.2,0-0.4-0.2-0.4-0.4v-0.2c0-0.2,0.2-0.4,0.4-0.4h4.2c0.2,0,0.4,0.2,0.4,0.4v0.2
	C9,13.9,8.8,14.1,8.6,14.1z"/>
<path class="st0" d="M14.9,1.5h-4.8c-0.3,0-0.6,0.3-0.6,0.6v2h1V2.8c0-0.2,0.1-0.3,0.3-0.3h3.4c0.2,0,0.3,0.1,0.3,0.3v10.4
	c0,0.2-0.1,0.3-0.3,0.3h-3.4c-0.2,0-0.3-0.1-0.3-0.3v-2.1h-1v2.8c0,0.3,0.3,0.6,0.6,0.6h4.8c0.3,0,0.6-0.3,0.6-0.6V2.1
	C15.5,1.8,15.2,1.5,14.9,1.5z"/>
</svg>
