<?xml version="1.0" encoding="utf-8"?>
<!-- Generator: Adobe Illustrator 23.0.0, SVG Export Plug-In . SVG Version: 6.00 Build 0)  -->
<!DOCTYPE svg PUBLIC "-//W3C//DTD SVG 1.1//EN" "http://www.w3.org/Graphics/SVG/1.1/DTD/svg11.dtd" [
	<!ENTITY ns_extend "http://ns.adobe.com/Extensibility/1.0/">
	<!ENTITY ns_ai "http://ns.adobe.com/AdobeIllustrator/10.0/">
	<!ENTITY ns_graphs "http://ns.adobe.com/Graphs/1.0/">
	<!ENTITY ns_vars "http://ns.adobe.com/Variables/1.0/">
	<!ENTITY ns_imrep "http://ns.adobe.com/ImageReplacement/1.0/">
	<!ENTITY ns_sfw "http://ns.adobe.com/SaveForWeb/1.0/">
	<!ENTITY ns_custom "http://ns.adobe.com/GenericCustomNamespace/1.0/">
	<!ENTITY ns_adobe_xpath "http://ns.adobe.com/XPath/1.0/">
]>
<svg version="1.1" id="레이어_1" xmlns:x="&ns_extend;" xmlns:i="&ns_ai;" xmlns:graph="&ns_graphs;"
	 xmlns="http://www.w3.org/2000/svg" xmlns:xlink="http://www.w3.org/1999/xlink" x="0px" y="0px" viewBox="0 0 16 16"
	 style="enable-background:new 0 0 16 16;" xml:space="preserve">
<style type="text/css">
	.st0{fill:#363636;}
</style>
<metadata>
	<sfw  xmlns="&ns_sfw;">
		<slices></slices>
		<sliceSourceBounds  bottomLeftOrigin="true" height="12.7" width="14" x="1" y="1.6"></sliceSourceBounds>
	</sfw>
</metadata>
<g>
	<rect x="1" y="5.4" class="st0" width="1.5" height="0.9"/>
	<rect x="1" y="9.8" class="st0" width="1.5" height="0.9"/>
	<rect x="1" y="7.5" class="st0" width="1.5" height="0.9"/>
	<rect x="13.5" y="5.4" class="st0" width="1.5" height="0.9"/>
	<rect x="13.5" y="7.5" class="st0" width="1.5" height="0.9"/>
	<rect x="13.5" y="9.8" class="st0" width="1.5" height="0.9"/>
	<g>
		<rect x="5.4" y="1.6" class="st0" width="0.9" height="1.5"/>
		<rect x="9.8" y="1.6" class="st0" width="0.9" height="1.5"/>
		<rect x="7.7" y="1.6" class="st0" width="0.9" height="1.5"/>
		<rect x="5.4" y="12.9" class="st0" width="0.9" height="1.5"/>
		<path class="st0" d="M12.3,3.5c-2.8,0-5.7,0-8.5,0c-0.1,0-0.4,0-0.6,0.3C2.9,4,2.9,4.3,2.9,4.3c0,2.4,0,4.9,0,7.3v0
			c0,0.5,0.4,0.8,0.8,0.8c0.5,0,1,0,1.5,0v0h5.6v0l1.5,0c0.1,0,0.4,0,0.6-0.2c0.2-0.2,0.2-0.5,0.2-0.6c0-2.4,0-4.9,0-7.3
			c0-0.1,0-0.4-0.3-0.6C12.7,3.5,12.4,3.5,12.3,3.5z M12.3,11.5c0,0.1-0.1,0.2-0.2,0.2H4c-0.1,0-0.2-0.1-0.2-0.2V4.6
			c0-0.1,0.1-0.2,0.2-0.2c2.7,0,5.4,0,8.1,0c0.1,0,0.2,0.1,0.2,0.2V11.5z"/>
		<rect x="9.8" y="12.9" class="st0" width="0.9" height="1.5"/>
		<rect x="7.7" y="12.9" class="st0" width="0.9" height="1.5"/>
	</g>
</g>
</svg>
