<?xml version="1.0" encoding="utf-8"?>
<!-- Generator: Adobe Illustrator 23.0.0, SVG Export Plug-In . SVG Version: 6.00 Build 0)  -->
<!DOCTYPE svg PUBLIC "-//W3C//DTD SVG 1.1//EN" "http://www.w3.org/Graphics/SVG/1.1/DTD/svg11.dtd" [
	<!ENTITY ns_extend "http://ns.adobe.com/Extensibility/1.0/">
	<!ENTITY ns_ai "http://ns.adobe.com/AdobeIllustrator/10.0/">
	<!ENTITY ns_graphs "http://ns.adobe.com/Graphs/1.0/">
	<!ENTITY ns_vars "http://ns.adobe.com/Variables/1.0/">
	<!ENTITY ns_imrep "http://ns.adobe.com/ImageReplacement/1.0/">
	<!ENTITY ns_sfw "http://ns.adobe.com/SaveForWeb/1.0/">
	<!ENTITY ns_custom "http://ns.adobe.com/GenericCustomNamespace/1.0/">
	<!ENTITY ns_adobe_xpath "http://ns.adobe.com/XPath/1.0/">
]>
<svg version="1.1" id="레이어_1" xmlns:x="&ns_extend;" xmlns:i="&ns_ai;" xmlns:graph="&ns_graphs;"
	 xmlns="http://www.w3.org/2000/svg" xmlns:xlink="http://www.w3.org/1999/xlink" x="0px" y="0px" viewBox="0 0 16 16"
	 style="enable-background:new 0 0 16 16;" xml:space="preserve">
<style type="text/css">
	.st0{fill-rule:evenodd;clip-rule:evenodd;fill:#363636;}
</style>
<metadata>
	<sfw  xmlns="&ns_sfw;">
		<slices></slices>
		<sliceSourceBounds  bottomLeftOrigin="true" height="14" width="8.4" x="3.8" y="-15"></sliceSourceBounds>
	</sfw>
</metadata>
<g>
	<path class="st0" d="M11.4,5h-0.3V1.8c0-0.4-0.4-0.8-0.8-0.8H5.7C5.2,1,4.9,1.4,4.9,1.8V5H4.6C4.1,5,3.8,5.3,3.8,5.8v8.5
		c0,0.4,0.3,0.8,0.8,0.8h6.9c0.4,0,0.8-0.3,0.8-0.8V5.8C12.2,5.3,11.9,5,11.4,5z M5.8,2.3c0-0.2,0.2-0.4,0.4-0.4h3.7
		c0.2,0,0.4,0.2,0.4,0.4V5H5.8V2.3z M11.3,14.1H4.7V5.9h0.2h6.2h0.2V14.1z"/>
	<rect x="6.6" y="2.4" class="st0" width="0.8" height="2"/>
	<rect x="8.6" y="2.4" class="st0" width="0.8" height="2"/>
</g>
</svg>
