<?xml version="1.0" encoding="utf-8"?>
<!-- Generator: Adobe Illustrator 23.0.0, SVG Export Plug-In . SVG Version: 6.00 Build 0)  -->
<!DOCTYPE svg PUBLIC "-//W3C//DTD SVG 1.1//EN" "http://www.w3.org/Graphics/SVG/1.1/DTD/svg11.dtd" [
	<!ENTITY ns_extend "http://ns.adobe.com/Extensibility/1.0/">
	<!ENTITY ns_ai "http://ns.adobe.com/AdobeIllustrator/10.0/">
	<!ENTITY ns_graphs "http://ns.adobe.com/Graphs/1.0/">
	<!ENTITY ns_vars "http://ns.adobe.com/Variables/1.0/">
	<!ENTITY ns_imrep "http://ns.adobe.com/ImageReplacement/1.0/">
	<!ENTITY ns_sfw "http://ns.adobe.com/SaveForWeb/1.0/">
	<!ENTITY ns_custom "http://ns.adobe.com/GenericCustomNamespace/1.0/">
	<!ENTITY ns_adobe_xpath "http://ns.adobe.com/XPath/1.0/">
]>
<svg version="1.1" id="레이어_1" xmlns:x="&ns_extend;" xmlns:i="&ns_ai;" xmlns:graph="&ns_graphs;"
	 xmlns="http://www.w3.org/2000/svg" xmlns:xlink="http://www.w3.org/1999/xlink" x="0px" y="0px" viewBox="0 0 16 16"
	 style="enable-background:new 0 0 16 16;" xml:space="preserve">
<style type="text/css">
	.st0{fill:#363636;}
</style>
<metadata>
	<sfw  xmlns="&ns_sfw;">
		<slices></slices>
		<sliceSourceBounds  bottomLeftOrigin="true" height="13.6" width="14" x="1" y="-14.8"></sliceSourceBounds>
	</sfw>
</metadata>
<path class="st0" d="M15,9.1c-0.7-2.4-1.5-4.9-2.2-7.3c-0.1-0.4-0.5-0.6-0.8-0.6H4c-0.4,0-0.7,0.3-0.8,0.6C2.4,4.3,1.7,6.7,1,9.1
	c0,0,0,0,0,0.1v4.8c0,0.5,0.4,0.9,0.9,0.9h0h12.3c0.5,0,0.9-0.4,0.9-0.9L15,9.1C15,9.2,15,9.1,15,9.1C15,9.1,15,9.1,15,9.1z M4,2.4
	c0.1-0.2,0.2-0.3,0.4-0.3l7.2,0c0.2,0,0.4,0.1,0.4,0.3c0.7,2.2,1.4,4.5,2.1,6.7H14H2.1H1.9L4,2.4z M13.7,13.9H2.3
	c-0.2,0-0.4-0.2-0.4-0.4V10h12.2v3.5C14.1,13.7,13.9,13.9,13.7,13.9z"/>
</svg>
