<?xml version="1.0" encoding="utf-8"?>
<!-- Generator: Adobe Illustrator 23.0.0, SVG Export Plug-In . SVG Version: 6.00 Build 0)  -->
<!DOCTYPE svg PUBLIC "-//W3C//DTD SVG 1.1//EN" "http://www.w3.org/Graphics/SVG/1.1/DTD/svg11.dtd" [
	<!ENTITY ns_extend "http://ns.adobe.com/Extensibility/1.0/">
	<!ENTITY ns_ai "http://ns.adobe.com/AdobeIllustrator/10.0/">
	<!ENTITY ns_graphs "http://ns.adobe.com/Graphs/1.0/">
	<!ENTITY ns_vars "http://ns.adobe.com/Variables/1.0/">
	<!ENTITY ns_imrep "http://ns.adobe.com/ImageReplacement/1.0/">
	<!ENTITY ns_sfw "http://ns.adobe.com/SaveForWeb/1.0/">
	<!ENTITY ns_custom "http://ns.adobe.com/GenericCustomNamespace/1.0/">
	<!ENTITY ns_adobe_xpath "http://ns.adobe.com/XPath/1.0/">
]>
<svg version="1.1" id="레이어_1" xmlns:x="&ns_extend;" xmlns:i="&ns_ai;" xmlns:graph="&ns_graphs;"
	 xmlns="http://www.w3.org/2000/svg" xmlns:xlink="http://www.w3.org/1999/xlink" x="0px" y="0px" viewBox="0 0 16 16"
	 style="enable-background:new 0 0 16 16;" xml:space="preserve">
<style type="text/css">
	.st0{fill:#363636;}
</style>
<metadata>
	<sfw  xmlns="&ns_sfw;">
		<slices></slices>
		<sliceSourceBounds  bottomLeftOrigin="true" height="11.1" width="14" x="1" y="2.4"></sliceSourceBounds>
	</sfw>
</metadata>
<path class="st0" d="M13.6,2.4H2.4C1.6,2.4,1,3.1,1,3.9v8.2c0,0.8,0.6,1.4,1.4,1.4h11.1c0.8,0,1.4-0.6,1.4-1.4V3.9
	C15,3.1,14.4,2.4,13.6,2.4z M2.4,3.5h11.1c0.2,0,0.4,0.2,0.4,0.4V9H2.1V3.9C2.1,3.7,2.2,3.5,2.4,3.5z M2.1,12.1V10h5.4v2.5h-5
	C2.2,12.5,2.1,12.3,2.1,12.1z M13.6,12.5h-5V10h5.4v2.1C13.9,12.3,13.8,12.5,13.6,12.5z"/>
</svg>
