<?xml version="1.0" encoding="utf-8"?>
<!-- Generator: Adobe Illustrator 23.0.0, SVG Export Plug-In . SVG Version: 6.00 Build 0)  -->
<!DOCTYPE svg PUBLIC "-//W3C//DTD SVG 1.1//EN" "http://www.w3.org/Graphics/SVG/1.1/DTD/svg11.dtd" [
	<!ENTITY ns_extend "http://ns.adobe.com/Extensibility/1.0/">
	<!ENTITY ns_ai "http://ns.adobe.com/AdobeIllustrator/10.0/">
	<!ENTITY ns_graphs "http://ns.adobe.com/Graphs/1.0/">
	<!ENTITY ns_vars "http://ns.adobe.com/Variables/1.0/">
	<!ENTITY ns_imrep "http://ns.adobe.com/ImageReplacement/1.0/">
	<!ENTITY ns_sfw "http://ns.adobe.com/SaveForWeb/1.0/">
	<!ENTITY ns_custom "http://ns.adobe.com/GenericCustomNamespace/1.0/">
	<!ENTITY ns_adobe_xpath "http://ns.adobe.com/XPath/1.0/">
]>
<svg version="1.1" id="레이어_1" xmlns:x="&ns_extend;" xmlns:i="&ns_ai;" xmlns:graph="&ns_graphs;"
	 xmlns="http://www.w3.org/2000/svg" xmlns:xlink="http://www.w3.org/1999/xlink" x="0px" y="0px" viewBox="0 0 16 16"
	 style="enable-background:new 0 0 16 16;" xml:space="preserve">
<style type="text/css">
	.st0{fill:#363636;}
</style>
<metadata>
	<sfw  xmlns="&ns_sfw;">
		<slices></slices>
		<sliceSourceBounds  bottomLeftOrigin="true" height="11.1" width="13.2" x="2.3" y="1.4"></sliceSourceBounds>
	</sfw>
</metadata>
<path class="st0" d="M15.3,9L14,7.7c-0.3-0.3-0.8-0.3-1.1,0C11.6,9,10.3,10.3,9,11.6l-0.1,0.1l-0.2,0.2c-0.1,0.8-0.2,1.6-0.3,2.4
	c0,0.1,0.1,0.2,0.2,0.2c0.8-0.1,1.6-0.2,2.4-0.3l0.2-0.2l0.1-0.1c1.3-1.3,2.6-2.6,3.9-3.9C15.6,9.8,15.6,9.3,15.3,9z M10.8,13.5
	c-0.5,0.1-1,0.1-1.4,0.2c0.1-0.5,0.1-1,0.2-1.4l2.1-2.1L12,9.7l1.2,1.2c-0.2,0.2-0.3,0.3-0.5,0.5l0,0L10.8,13.5z M14.7,9.6l-0.8,0.8
	l-1.2-1.2c0.2-0.2,0.3-0.3,0.5-0.5l0.3-0.3c0.1-0.1,0.1-0.1,0.2,0l1.1,1.1C14.7,9.5,14.7,9.5,14.7,9.6z"/>
<path class="st0" d="M7.5,11.7H3.3c-0.1,0-0.2-0.1-0.2-0.2V4.5c0-0.1,0.1-0.2,0.2-0.2c3.2,0,6.3,0,9.5,0c0.1,0,0.2,0.1,0.2,0.2v1.7
	h0.7V4.4c0-0.5-0.4-0.9-0.9-0.9H3.2c-0.5,0-0.9,0.4-0.9,0.9v7.3c0,0.5,0.4,0.9,0.9,0.9c1.4,0,2.9,0,4.3,0V11.7z"/>
</svg>
