<?xml version="1.0" encoding="utf-8"?>
<!-- Generator: Adobe Illustrator 23.0.0, SVG Export Plug-In . SVG Version: 6.00 Build 0)  -->
<!DOCTYPE svg PUBLIC "-//W3C//DTD SVG 1.1//EN" "http://www.w3.org/Graphics/SVG/1.1/DTD/svg11.dtd" [
	<!ENTITY ns_extend "http://ns.adobe.com/Extensibility/1.0/">
	<!ENTITY ns_ai "http://ns.adobe.com/AdobeIllustrator/10.0/">
	<!ENTITY ns_graphs "http://ns.adobe.com/Graphs/1.0/">
	<!ENTITY ns_vars "http://ns.adobe.com/Variables/1.0/">
	<!ENTITY ns_imrep "http://ns.adobe.com/ImageReplacement/1.0/">
	<!ENTITY ns_sfw "http://ns.adobe.com/SaveForWeb/1.0/">
	<!ENTITY ns_custom "http://ns.adobe.com/GenericCustomNamespace/1.0/">
	<!ENTITY ns_adobe_xpath "http://ns.adobe.com/XPath/1.0/">
]>
<svg version="1.1" id="minimize" xmlns:x="&ns_extend;" xmlns:i="&ns_ai;" xmlns:graph="&ns_graphs;"
	 xmlns="http://www.w3.org/2000/svg" xmlns:xlink="http://www.w3.org/1999/xlink" x="0px" y="0px" viewBox="0 0 16 16"
	 style="enable-background:new 0 0 16 16;" xml:space="preserve">
<style type="text/css">
	.st0{fill:#363636;}
	.st1{fill-rule:evenodd;clip-rule:evenodd;fill:#363636;}
</style>
<metadata>
	<sfw  xmlns="&ns_sfw;">
		<slices></slices>
		<sliceSourceBounds  bottomLeftOrigin="true" height="14" width="12.5" x="1.8" y="-15"></sliceSourceBounds>
	</sfw>
</metadata>
<path class="st0" d="M3.1,1.6V7C2.6,7.7,2.2,8.5,1.8,9.2v5.2C1.8,14.7,2,15,2.3,15h11.3c0.3,0,0.6-0.3,0.6-0.6V1.6
	C14.3,1.3,14,1,13.6,1h-10C3.3,1,3.1,1.3,3.1,1.6z M13.4,14.2H2.6l0-4.7C3,8.7,3.5,7.9,3.9,7.2c0-1.8,0-3.6,0-5.3h9.5V14.2z"/>
<path class="st1" d="M10.9,5.8V3.6c0.1-0.2,0.2-0.3,0.4-0.3c0.2,0,0.4,0.1,0.4,0.3v2.2c-0.1,0.2-0.2,0.3-0.4,0.3
	C11.2,6.1,11,5.9,10.9,5.8z"/>
<path class="st1" d="M9.1,5.8V3.6c0.1-0.2,0.2-0.3,0.4-0.3c0.2,0,0.4,0.1,0.4,0.3v2.2C9.9,5.9,9.7,6.1,9.5,6.1
	C9.3,6.1,9.1,5.9,9.1,5.8z"/>
<path class="st1" d="M7.3,5.8V3.6c0.1-0.2,0.2-0.3,0.4-0.3c0.2,0,0.4,0.1,0.4,0.3v2.2C8,5.9,7.9,6.1,7.7,6.1
	C7.5,6.1,7.3,5.9,7.3,5.8z"/>
<path class="st1" d="M5.8,6.1c-0.2,0-0.4-0.1-0.4-0.3V3.6c0.1-0.2,0.2-0.3,0.4-0.3c0.2,0,0.4,0.1,0.4,0.3v2.2C6.2,5.9,6,6.1,5.8,6.1
	z"/>
</svg>
