<?xml version="1.0" encoding="utf-8"?>
<!-- Generator: Adobe Illustrator 23.0.0, SVG Export Plug-In . SVG Version: 6.00 Build 0)  -->
<!DOCTYPE svg PUBLIC "-//W3C//DTD SVG 1.1//EN" "http://www.w3.org/Graphics/SVG/1.1/DTD/svg11.dtd" [
	<!ENTITY ns_extend "http://ns.adobe.com/Extensibility/1.0/">
	<!ENTITY ns_ai "http://ns.adobe.com/AdobeIllustrator/10.0/">
	<!ENTITY ns_graphs "http://ns.adobe.com/Graphs/1.0/">
	<!ENTITY ns_vars "http://ns.adobe.com/Variables/1.0/">
	<!ENTITY ns_imrep "http://ns.adobe.com/ImageReplacement/1.0/">
	<!ENTITY ns_sfw "http://ns.adobe.com/SaveForWeb/1.0/">
	<!ENTITY ns_custom "http://ns.adobe.com/GenericCustomNamespace/1.0/">
	<!ENTITY ns_adobe_xpath "http://ns.adobe.com/XPath/1.0/">
]>
<svg version="1.1" id="레이어_1" xmlns:x="&ns_extend;" xmlns:i="&ns_ai;" xmlns:graph="&ns_graphs;"
	 xmlns="http://www.w3.org/2000/svg" xmlns:xlink="http://www.w3.org/1999/xlink" x="0px" y="0px" viewBox="0 0 16 16"
	 style="enable-background:new 0 0 16 16;" xml:space="preserve">
<style type="text/css">
	.st0{fill-rule:evenodd;clip-rule:evenodd;fill:#363636;}
</style>
<metadata>
	<sfw  xmlns="&ns_sfw;">
		<slices></slices>
		<sliceSourceBounds  bottomLeftOrigin="true" height="14" width="14" x="1" y="1"></sliceSourceBounds>
	</sfw>
</metadata>
<g>
	<rect x="1" y="7.5" class="st0" width="14" height="1.1"/>
	<path class="st0" d="M13.9,13.7c0,0.1-0.1,0.2-0.2,0.2H2.3c-0.1,0-0.2-0.1-0.2-0.2V9.7H1v3.9C1,14.3,1.7,15,2.5,15h11
		c0.8,0,1.5-0.7,1.5-1.5V9.7h-1.1V13.7z"/>
	<path class="st0" d="M13.5,1h-11C1.7,1,1,1.7,1,2.5v3.8h1.1V2.3c0-0.1,0.1-0.2,0.2-0.2h11.5c0.1,0,0.2,0.1,0.2,0.2v4.1H15V2.5
		C15,1.7,14.3,1,13.5,1z"/>
</g>
</svg>
