<?xml version="1.0" encoding="UTF-8" standalone="no"?>
<svg
   xmlns:dc="http://purl.org/dc/elements/1.1/"
   xmlns:cc="http://creativecommons.org/ns#"
   xmlns:rdf="http://www.w3.org/1999/02/22-rdf-syntax-ns#"
   xmlns:svg="http://www.w3.org/2000/svg"
   xmlns="http://www.w3.org/2000/svg"
   xmlns:sodipodi="http://sodipodi.sourceforge.net/DTD/sodipodi-0.dtd"
   xmlns:inkscape="http://www.inkscape.org/namespaces/inkscape"
   viewBox="0 0 16 16"
   version="1.1"
   id="svg13"
   sodipodi:docname="tablet-symbolic.svg"
   inkscape:version="0.92.5 (2060ec1f9f, 2020-04-08)">
  <metadata
     id="metadata17">
    <rdf:RDF>
      <cc:Work
         rdf:about="">
        <dc:format>image/svg+xml</dc:format>
        <dc:type
           rdf:resource="http://purl.org/dc/dcmitype/StillImage" />
      </cc:Work>
    </rdf:RDF>
  </metadata>
  <sodipodi:namedview
     pagecolor="#ffffff"
     bordercolor="#666666"
     borderopacity="1"
     objecttolerance="10"
     gridtolerance="10"
     guidetolerance="10"
     inkscape:pageopacity="0"
     inkscape:pageshadow="2"
     inkscape:window-width="3072"
     inkscape:window-height="1584"
     id="namedview15"
     showgrid="false"
     inkscape:zoom="14.75"
     inkscape:cx="-12.033898"
     inkscape:cy="8"
     inkscape:window-x="0"
     inkscape:window-y="0"
     inkscape:window-maximized="1"
     inkscape:current-layer="svg13" />
  <defs
     id="defs4">
    <style
       id="style2">.cls-1{fill:#dedede;}</style>
  </defs>
  <title
     id="title6">tablet-symbolic</title>
  <g
     id="레이어_1"
     data-name="레이어 1"
     style="fill:#363636;fill-opacity:1">
    <path
       class="cls-1"
       d="M 14.33,2.5 H 1.67 A 0.67,0.67 0 0 0 1,3.17 v 9.66 A 0.67,0.67 0 0 0 1.67,13.5 H 14.33 A 0.67,0.67 0 0 0 15,12.83 V 3.17 A 0.67,0.67 0 0 0 14.33,2.5 Z m -0.08,9.94 a 0.31,0.31 0 0 1 -0.31,0.31 H 2.06 A 0.31,0.31 0 0 1 1.75,12.44 V 3.56 A 0.31,0.31 0 0 1 2.06,3.25 h 11.88 a 0.31,0.31 0 0 1 0.31,0.31 z"
       id="path8"
       inkscape:connector-curvature="0"
       style="fill:#363636;fill-opacity:1" />
    <rect
       class="cls-1"
       x="6"
       y="11.1"
       width="4"
       height="0.80000001"
       rx="0.31999999"
       id="rect10"
       style="fill:#363636;fill-opacity:1" />
  </g>
</svg>
