<?xml version="1.0" encoding="UTF-8" standalone="no"?>
<svg
   xmlns:dc="http://purl.org/dc/elements/1.1/"
   xmlns:cc="http://creativecommons.org/ns#"
   xmlns:rdf="http://www.w3.org/1999/02/22-rdf-syntax-ns#"
   xmlns:svg="http://www.w3.org/2000/svg"
   xmlns="http://www.w3.org/2000/svg"
   xmlns:sodipodi="http://sodipodi.sourceforge.net/DTD/sodipodi-0.dtd"
   xmlns:inkscape="http://www.inkscape.org/namespaces/inkscape"
   viewBox="0 0 16 16"
   version="1.1"
   id="svg11"
   sodipodi:docname="tv-symbolic.svg"
   inkscape:version="0.92.5 (2060ec1f9f, 2020-04-08)">
  <metadata
     id="metadata15">
    <rdf:RDF>
      <cc:Work
         rdf:about="">
        <dc:format>image/svg+xml</dc:format>
        <dc:type
           rdf:resource="http://purl.org/dc/dcmitype/StillImage" />
      </cc:Work>
    </rdf:RDF>
  </metadata>
  <sodipodi:namedview
     pagecolor="#ffffff"
     bordercolor="#666666"
     borderopacity="1"
     objecttolerance="10"
     gridtolerance="10"
     guidetolerance="10"
     inkscape:pageopacity="0"
     inkscape:pageshadow="2"
     inkscape:window-width="3072"
     inkscape:window-height="1584"
     id="namedview13"
     showgrid="false"
     inkscape:zoom="14.75"
     inkscape:cx="-12.033898"
     inkscape:cy="8"
     inkscape:window-x="0"
     inkscape:window-y="0"
     inkscape:window-maximized="1"
     inkscape:current-layer="svg11" />
  <defs
     id="defs4">
    <style
       id="style2">.cls-1{fill:#dedede;}</style>
  </defs>
  <title
     id="title6">tv-symbolic</title>
  <g
     id="레이어_1"
     data-name="레이어 1"
     style="fill-opacity:1;fill:#363636">
    <path
       class="cls-1"
       d="M 14.38,2 H 1.62 A 0.62,0.62 0 0 0 1,2.58 v 8.26 a 0.62,0.62 0 0 0 0.62,0.62 H 7.5 v 0.66 L 4,13.06 a 0.5,0.5 0 0 0 -0.36,0.61 0.51,0.51 0 0 0 0.62,0.35 L 8,13 l 3.73,1 a 0.51,0.51 0 0 0 0.62,-0.35 0.5,0.5 0 0 0 -0.36,-0.61 L 8.5,12.12 v -0.66 h 5.88 A 0.62,0.62 0 0 0 15,10.84 V 2.58 A 0.62,0.62 0 0 0 14.38,2 Z M 14,10.19 a 0.27,0.27 0 0 1 -0.27,0.27 H 2.27 A 0.27,0.27 0 0 1 2,10.19 v -7 A 0.27,0.27 0 0 1 2.27,3 H 13.73 A 0.27,0.27 0 0 1 14,3.27 Z"
       id="path8"
       inkscape:connector-curvature="0"
       style="fill:#363636;fill-opacity:1" />
  </g>
</svg>
