<?xml version="1.0" encoding="utf-8"?>
<!-- Generator: Adobe Illustrator 23.0.0, SVG Export Plug-In . SVG Version: 6.00 Build 0)  -->
<!DOCTYPE svg PUBLIC "-//W3C//DTD SVG 1.1//EN" "http://www.w3.org/Graphics/SVG/1.1/DTD/svg11.dtd" [
	<!ENTITY ns_extend "http://ns.adobe.com/Extensibility/1.0/">
	<!ENTITY ns_ai "http://ns.adobe.com/AdobeIllustrator/10.0/">
	<!ENTITY ns_graphs "http://ns.adobe.com/Graphs/1.0/">
	<!ENTITY ns_vars "http://ns.adobe.com/Variables/1.0/">
	<!ENTITY ns_imrep "http://ns.adobe.com/ImageReplacement/1.0/">
	<!ENTITY ns_sfw "http://ns.adobe.com/SaveForWeb/1.0/">
	<!ENTITY ns_custom "http://ns.adobe.com/GenericCustomNamespace/1.0/">
	<!ENTITY ns_adobe_xpath "http://ns.adobe.com/XPath/1.0/">
]>
<svg version="1.1" id="레이어_1" xmlns:x="&ns_extend;" xmlns:i="&ns_ai;" xmlns:graph="&ns_graphs;"
	 xmlns="http://www.w3.org/2000/svg" xmlns:xlink="http://www.w3.org/1999/xlink" x="0px" y="0px" viewBox="0 0 256 256"
	 style="enable-background:new 0 0 256 256;" xml:space="preserve">
<style type="text/css">
	.st0{opacity:0.1;}
	.st1{fill:#60BAFF;}
	.st2{fill:#FFFFFF;}
</style>
<metadata>
	<sfw  xmlns="&ns_sfw;">
		<slices></slices>
		<sliceSourceBounds  bottomLeftOrigin="true" height="255" width="255.1" x="0.4" y="0.5"></sliceSourceBounds>
	</sfw>
</metadata>
<g class="st0">
	<g>
		<path d="M132.7,0.5c6.2,0,18.1,0.3,33.3,2.3c23.7,3.1,45.1,11.5,60.9,26.3l0,0C241.6,44.8,250,66.3,253.2,90c3,22.6,2.3,38,2.3,38
			s0.7,15.4-2.3,38c-3.1,23.7-11.5,45.1-26.3,60.9l0,0c-15.7,14.8-37.2,23.2-60.9,26.3c-15.1,2-27.1,2.3-33.3,2.3
			c-3.1,0-4.7-0.1-4.7-0.1s-1.7,0.1-4.7,0.1c-6.2,0-18.1-0.3-33.3-2.3c-23.7-3.1-45.1-11.5-60.9-26.3l0,0
			C14.4,211.2,6,189.7,2.8,166c-3-22.6-2.3-38-2.3-38s-0.7-15.4,2.3-38C6,66.3,14.4,44.8,29.1,29.1l0,0C44.9,14.3,66.3,5.9,90,2.8
			c15.2-2,27.1-2.3,33.3-2.3c3.1,0,4.7,0.1,4.7,0.1S129.7,0.5,132.7,0.5"/>
	</g>
</g>
<path class="st1" d="M251.7,90.4c-3.1-23.4-11.4-44.6-26-60.1l0,0c-15.6-14.6-36.7-22.9-60.1-26C143.2,1.3,128,2,128,2
	s-15.2-0.7-37.6,2.3C67,7.4,45.8,15.7,30.3,30.3C15.7,45.8,7.5,67,4.3,90.4c-3,22.3-2.2,37.6-2.2,37.6s-0.7,15.2,2.2,37.6
	c3.1,23.4,11.4,44.6,26,60.1l0,0c15.6,14.6,36.7,22.9,60.1,26c22.3,3,37.6,2.2,37.6,2.2s15.2,0.7,37.6-2.2
	c23.4-3.1,44.6-11.4,60.1-26l0,0c14.6-15.6,22.9-36.7,26-60.1c3-22.3,2.2-37.6,2.2-37.6S254.7,112.8,251.7,90.4"/>
<path class="st2" d="M208,174.5c0-21.9,0-43.7,0-65.6c-2.7-41.9-38-75-80-74.9c-42,0-77.3,33.2-79.8,75.2H48c0,21.8,0,43.5,0,65.3
	c0,10,8.1,18.2,18.2,18.2c10,0,18.2-8.1,18.2-18.2v-40c0.1-1,0.7-8.7-5-14c-4.8-4.4-10.9-4.3-13.2-4.2c-3.1,0.1-5.6,0.9-7.3,1.5
	C58.7,113.5,58,85,80.8,63.6c2.6-2.4,21.3-18.7,47.2-18.7c36.5,0,66.4,28.4,68.9,64.3h0.2v8.6c-1.6-0.6-4.1-1.4-7.3-1.5
	c-2.2-0.1-8.1-0.3-12.8,3.7c-6.1,5.2-5.5,13.6-5.4,14.5c0,13.3,0,26.7,0,40c0,1.6,0.2,6.5,3.8,11.1c2.9,3.7,6.5,5.3,8,5.9
	c-0.4,1.2-0.9,2.4-1.3,3.6h-39c-1.7-2.6-3.5-5.2-5.2-7.8c-3.1,2-6.2,4.1-9.3,6.1c1.8,2.9,3.7,5.8,5.5,8.7c0.3,0.6,1.2,1.9,2.9,2.9
	c1.6,0.9,3.2,1,3.8,0.9c13.8,0,27.5,0,41.3,0c0.9,0,3.6-0.1,6.3-1.9c2.6-1.8,3.6-4.2,3.9-5.1l2.6-7c1.5-0.4,6.3-2.1,9.7-7
	C207.8,180.6,208,176.1,208,174.5z M58.9,135.4v-0.9c0-4,3.3-7.3,7.3-7.3c4,0,7.3,3.3,7.3,7.3v40c0,4-3.3,7.3-7.3,7.3
	c-4,0-7.3-3.3-7.3-7.3V135.4z M182.5,134.5c0-4,3.3-7.3,7.3-7.3c4,0,7.3,3.3,7.3,7.3v40c0,4-3.3,7.3-7.3,7.3c-4,0-7.3-3.3-7.3-7.3
	V134.5z"/>
</svg>
