<?xml version="1.0" encoding="utf-8"?>
<!-- Generator: Adobe Illustrator 23.0.0, SVG Export Plug-In . SVG Version: 6.00 Build 0)  -->
<!DOCTYPE svg PUBLIC "-//W3C//DTD SVG 1.1//EN" "http://www.w3.org/Graphics/SVG/1.1/DTD/svg11.dtd" [
	<!ENTITY ns_extend "http://ns.adobe.com/Extensibility/1.0/">
	<!ENTITY ns_ai "http://ns.adobe.com/AdobeIllustrator/10.0/">
	<!ENTITY ns_graphs "http://ns.adobe.com/Graphs/1.0/">
	<!ENTITY ns_vars "http://ns.adobe.com/Variables/1.0/">
	<!ENTITY ns_imrep "http://ns.adobe.com/ImageReplacement/1.0/">
	<!ENTITY ns_sfw "http://ns.adobe.com/SaveForWeb/1.0/">
	<!ENTITY ns_custom "http://ns.adobe.com/GenericCustomNamespace/1.0/">
	<!ENTITY ns_adobe_xpath "http://ns.adobe.com/XPath/1.0/">
]>
<svg version="1.1" id="레이어_1" xmlns:x="&ns_extend;" xmlns:i="&ns_ai;" xmlns:graph="&ns_graphs;"
	 xmlns="http://www.w3.org/2000/svg" xmlns:xlink="http://www.w3.org/1999/xlink" x="0px" y="0px" viewBox="0 0 256 256"
	 style="enable-background:new 0 0 256 256;" xml:space="preserve">
<style type="text/css">
	.st0{fill:#999999;}
	.st1{fill:#FAFAFA;}
	.st2{fill-rule:evenodd;clip-rule:evenodd;fill:#FFFFFF;}
</style>
<metadata>
	<sfw  xmlns="&ns_sfw;">
		<slices></slices>
		<sliceSourceBounds  bottomLeftOrigin="true" height="322.9" width="360" x="-106" y="-68.8"></sliceSourceBounds>
	</sfw>
</metadata>
<path class="st0" d="M251.7,90.4c-3.1-23.4-11.4-44.6-26-60.1l0,0c-15.6-14.6-36.7-22.9-60.1-26C143.2,1.3,128,2,128,2
	s-15.2-0.7-37.6,2.3C67,7.4,45.8,15.7,30.3,30.3C15.7,45.8,7.5,67,4.3,90.4c-3,22.3-2.2,37.6-2.2,37.6s-0.7,15.2,2.2,37.6
	c3.1,23.4,11.4,44.6,26,60.1l0,0c15.6,14.6,36.7,22.9,60.1,26c22.3,3,37.6,2.2,37.6,2.2s15.2,0.7,37.6-2.2
	c23.4-3.1,44.6-11.4,60.1-26l0,0c14.6-15.6,22.9-36.7,26-60.1c3-22.3,2.2-37.6,2.2-37.6S254.7,112.8,251.7,90.4"/>
<image style="overflow:visible;" width="38" height="38" xlink:href="../../새 폴더/res/drawable-desk-hdpi-v8/email_account_ic_delete.png"  transform="matrix(1 0 0 1 -106.044 286.8077)">
</image>
<rect x="3.5" y="230.9" class="st1" width="3.5" height="20.4"/>
<rect x="111.1" y="56.6" class="st2" width="10" height="25.7"/>
<rect x="136.9" y="56.6" class="st2" width="10" height="25.7"/>
<g>
	<path class="st2" d="M171.9,112.7v78.9c0,8.3-6.7,15-15,15h-56.4V218h52.9c16.6,0,30-13.4,30-30v-75.3H171.9z"/>
	<path class="st2" d="M86.1,206.6v-13.6v-89.6c0-1.4,1.1-2.5,2.5-2.5H89h72.1h7.9h2.9h11.4V89.4H169V42.5c0-2.5-2-4.5-4.5-4.5h-71
		C91,38,89,40,89,42.5v46.9h-9.3c-2.8,0-5,2.2-5,5V218h11.4V206.6z M100.4,89.4v-40h57.1v40H100.4z"/>
</g>
</svg>
