<?xml version="1.0" encoding="UTF-8" standalone="no"?>
<svg
   width="16"
   height="16"
   version="1.1"
   id="svg7"
   sodipodi:docname="bluetooth.svg"
   inkscape:version="1.2.1 (9c6d41e410, 2022-07-14)"
   xmlns:inkscape="http://www.inkscape.org/namespaces/inkscape"
   xmlns:sodipodi="http://sodipodi.sourceforge.net/DTD/sodipodi-0.dtd"
   xmlns="http://www.w3.org/2000/svg"
   xmlns:svg="http://www.w3.org/2000/svg">
  <sodipodi:namedview
     id="namedview9"
     pagecolor="#ffffff"
     bordercolor="#000000"
     borderopacity="0.25"
     inkscape:showpageshadow="2"
     inkscape:pageopacity="0.0"
     inkscape:pagecheckerboard="0"
     inkscape:deskcolor="#d1d1d1"
     showgrid="false"
     inkscape:zoom="11.634116"
     inkscape:cx="8.1656396"
     inkscape:cy="8.4664789"
     inkscape:current-layer="svg7" />
  <defs
     id="defs3">
    <style
       id="current-color-scheme"
       type="text/css">
   .ColorScheme-Text { color:#444444; } .ColorScheme-Highlight { color:#4285f4; } .ColorScheme-NeutralText { color:#ff9800; } .ColorScheme-PositiveText { color:#4caf50; } .ColorScheme-NegativeText { color:#f44336; }
  </style>
  </defs>
  <path
     style="fill:#dfdfdf;fill-opacity:1"
     class="ColorScheme-Text"
     d="M 6.5655177,0.09923591 A 1.0001,1.0001 0 0 0 5.9991115,0.99962652 V 5.0660327 L 3.6123927,3.210564 A 1,1 0 0 0 2.2100489,3.3863453 1,1 0 0 0 2.3858302,4.788689 L 5.9991115,7.5992359 V 8.4000171 L 2.3858302,11.210564 a 1,1 0 0 0 -0.1757813,1.402343 1,1 0 0 0 1.4023438,0.175782 L 5.9991115,10.93322 v 4.066406 a 1.0001,1.0001 0 0 0 1.625,0.78125 l 5.0000005,-4 a 1.0001,1.0001 0 0 0 -0.01172,-1.570312 L 9.7705959,7.9996265 12.612393,5.788689 a 1.0001,1.0001 0 0 0 0.01172,-1.5703125 L 7.6241115,0.21837654 A 1.0001,1.0001 0 0 0 6.5655177,0.09923591 Z M 7.9991114,3.0816578 10.383878,4.9898609 8.1416895,6.7340015 7.9991114,6.6226734 Z M 8.1416895,9.2652515 10.383878,11.009392 7.9991114,12.917595 V 9.3765796 Z"
     id="path5" />
</svg>
