<?xml version='1.0' encoding='ASCII' standalone='yes'?>
<svg xmlns="http://www.w3.org/2000/svg" xmlns:xlink="http://www.w3.org/1999/xlink" version="1.1" width="24px" height="24px">
  <g transform="translate(4.0, 4.0) scale(1 1) "><sodipodi:namedview xmlns:sodipodi="http://sodipodi.sourceforge.net/DTD/sodipodi-0.dtd" xmlns:inkscape="http://www.inkscape.org/namespaces/inkscape" id="namedview9" pagecolor="#ffffff" bordercolor="#000000" borderopacity="0.25" inkscape:showpageshadow="2" inkscape:pageopacity="0.0" inkscape:pagecheckerboard="0" inkscape:deskcolor="#d1d1d1" showgrid="false" inkscape:zoom="65.8125" inkscape:cx="7.9924027" inkscape:cy="8.0151947" inkscape:current-layer="svg7"/>
  <defs id="defs3">
    <style id="current-color-scheme" type="text/css">
   .ColorScheme-Text { color:#dfdfdf; } .ColorScheme-Highlight { color:#4285f4; } .ColorScheme-NeutralText { color:#ff9800; } .ColorScheme-PositiveText { color:#4caf50; } .ColorScheme-NegativeText { color:#f44336; }
  </style>
  </defs>
  <path style="fill:#444444;fill-opacity:1" class="ColorScheme-Text" d="M 0.8359375 2 C 0.1939419 1.9992087 -0.20736961 2.6018921 0.11328125 3.0839844 L 1.6035156 5.9199219 L 2.0019531 6.5175781 L 2.0019531 10.410156 C 2.0019531 11.844039 3.1568292 13 4.5917969 13 L 13.410156 13 C 14.845124 13 16 11.844039 16 10.410156 L 16 4.5898438 C 16 3.1559615 14.845124 2 13.410156 2 L 8.390625 2 L 4.5917969 2 L 4.2128906 2 L 0.8359375 2 z M 5.3300781 4 L 12.603516 4 C 12.804971 4 12.966797 4.2229998 12.966797 4.5 C 12.966797 4.7770003 12.804971 5 12.603516 5 L 5.3300781 5 C 5.1286235 5 4.9667969 4.7770003 4.9667969 4.5 C 4.9667969 4.2229998 5.1286235 4 5.3300781 4 z M 5.3300781 7 L 12.603516 7 C 12.804971 7 12.966797 7.2229998 12.966797 7.5 C 12.966797 7.7770003 12.804971 8 12.603516 8 L 5.3300781 8 C 5.1286235 8 4.9667969 7.7770003 4.9667969 7.5 C 4.9667969 7.2229998 5.1286235 7 5.3300781 7 z M 5.4296875 10 L 10.572266 10 C 10.809694 10 11 10.223 11 10.5 C 11 10.777 10.809694 11 10.572266 11 L 5.4296875 11 C 5.1922589 11 5 10.777 5 10.5 C 5 10.223 5.1922589 10 5.4296875 10 z" id="path5"/>
</g>
</svg>
