<?xml version='1.0' encoding='ASCII' standalone='yes'?>
<svg xmlns="http://www.w3.org/2000/svg" xmlns:xlink="http://www.w3.org/1999/xlink" version="1.1" width="24px" height="24px">
  <g transform="translate(4.0, 4.0) scale(1 1) ">
    <sodipodi:namedview xmlns:sodipodi="http://sodipodi.sourceforge.net/DTD/sodipodi-0.dtd" xmlns:inkscape="http://www.inkscape.org/namespaces/inkscape" id="namedview59359" pagecolor="#ffffff" bordercolor="#000000" borderopacity="0.25" inkscape:showpageshadow="2" inkscape:pageopacity="0.0" inkscape:pagecheckerboard="0" inkscape:deskcolor="#d1d1d1" showgrid="false" inkscape:zoom="16.046875" inkscape:cx="-4.2375852" inkscape:cy="11.996105" inkscape:current-layer="svg59357"/>
    <defs id="defs59351">
      <style id="current-color-scheme" type="text/css">
   .ColorScheme-Text { color:#444444; } .ColorScheme-Highlight { color:#4285f4; }
  </style>
      <style id="current-color-scheme-3" type="text/css">
   .ColorScheme-Text { color:#444444; } .ColorScheme-Highlight { color:#4285f4; }
  </style>
    </defs>
    <g id="g855">
      <path d="M 9.96731,4.125673" id="path880" style="fill:#000000;fill-opacity:1;stroke-width:0.964811"/>
      <path d="M 9.96731,4.125673 C 9.752489,4.118133 9.53013,4.182205 9.345459,4.3216503 9.092949,4.513859 8.964811,4.8040559 8.964811,5.0980223 v 0.056532 c 0.01131,0.1846706 0.07161,0.3618042 0.192208,0.5163245 1.036419,1.3793782 1.036419,3.2713133 0,4.6469222 -0.120601,0.15829 -0.180901,0.335423 -0.192208,0.516325 v 0.0603 c 0,0.293966 0.128138,0.584163 0.380648,0.776372 0.425874,0.320347 1.028881,0.233664 1.349229,-0.192209 0.776371,-1.02888 1.164557,-2.2537383 1.164557,-3.4823655 0,-1.2286272 -0.388186,-2.4534852 -1.164557,-3.4861342 C 10.517554,4.2726551 10.246201,4.140747 9.96731,4.1256719 Z" id="path878" style="fill:#444444;fill-opacity:1;stroke-width:0.964811"/>
      <path d="m 13.268773,2.1772071 c -0.184671,-0.00377 -0.37311,0.052764 -0.538937,0.1620583 -0.440949,0.3015035 -0.557782,0.900741 -0.260048,1.3416905 1.760027,2.6117737 1.760027,6.0187637 0,8.6305371 -0.297734,0.44095 -0.180901,1.040187 0.260048,1.341691 0.440949,0.297734 1.040187,0.180901 1.341691,-0.260047 1.096719,-1.631887 1.646962,-3.5125162 1.646962,-5.3969122 0,-1.8843973 -0.550243,-3.7650255 -1.646962,-5.3969129 C 13.883086,2.3241902 13.577815,2.1772071 13.268773,2.1772071 Z" id="path876" style="opacity:0.3;fill:#444444;fill-opacity:1;stroke-width:0.964811"/>
      <path d="M 7.035189,1.2500834 C 6.74876,1.2463134 6.477407,1.3706847 6.292737,1.5892752 L 3.175944,5.1017908 H 2.211133 c -1.055262,0 -1.929623,0.8140594 -1.929623,1.9296228 v 1.9296223 c 0,1.0514931 0.878129,1.9296221 1.929623,1.9296221 h 0.964811 l 3.116793,3.512516 c 0.203514,0.244971 0.474867,0.350498 0.742452,0.346729 z" id="path2" style="fill:#444444;fill-opacity:1;stroke-width:0.964811"/>
    </g>
  </g>
</svg>
