<?xml version='1.0' encoding='ASCII' standalone='yes'?>
<svg xmlns="http://www.w3.org/2000/svg" xmlns:xlink="http://www.w3.org/1999/xlink" version="1.1" width="24px" height="24px">
  <g transform="translate(4.0, 4.0) scale(1 1) "><defs id="defs12"/>
  <sodipodi:namedview xmlns:sodipodi="http://sodipodi.sourceforge.net/DTD/sodipodi-0.dtd" xmlns:inkscape="http://www.inkscape.org/namespaces/inkscape" pagecolor="#000000" bordercolor="#666666" borderopacity="1" objecttolerance="10" gridtolerance="10" guidetolerance="10" inkscape:pageopacity="0" inkscape:pageshadow="2" inkscape:window-width="1366" inkscape:window-height="704" id="namedview10" showgrid="false" inkscape:zoom="14.75" inkscape:cx="-21.423729" inkscape:cy="11.355932" inkscape:window-x="0" inkscape:window-y="30" inkscape:window-maximized="1" inkscape:current-layer="layer9" inkscape:showpageshadow="2" inkscape:pagecheckerboard="0" inkscape:deskcolor="#000000"/>
  <metadata xmlns:rdf="http://www.w3.org/1999/02/22-rdf-syntax-ns#" xmlns:cc="http://creativecommons.org/ns#" xmlns:dc="http://purl.org/dc/elements/1.1/" id="metadata90">
    <rdf:RDF>
      <cc:Work rdf:about="">
        <dc:format>image/svg+xml</dc:format>
        <dc:type rdf:resource="http://purl.org/dc/dcmitype/StillImage"/>
        <dc:title>Gnome Symbolic Icon Theme</dc:title>
      </cc:Work>
    </rdf:RDF>
  </metadata>
  <title id="title9167">Gnome Symbolic Icon Theme</title>
  <g id="layer9" transform="rotate(90,137.0003,95.998825)">
    <g id="g854">
      <path id="path256" style="fill:#444444;fill-opacity:1;stroke-width:0.842104" d="m 43.948841,230.47281 c 0,1.39285 1.133475,2.52632 2.526316,2.52632 h 5.052634 c 1.392841,0 2.526317,-1.13347 2.526317,-2.52632 v -9.26316 c 0,-1.39284 -1.133476,-2.52632 -2.526317,-2.52632 0,-0.92968 -0.754528,-1.6842 -1.684211,-1.6842 h -1.684212 c -0.929683,0 -1.684211,0.75452 -1.684211,1.6842 -1.392841,0 -2.526316,1.13348 -2.526316,2.52632 z m 1.684211,0 v -9.26316 c 0,-0.464 0.377263,-0.84211 0.842105,-0.84211 h 5.052634 c 0.464841,0 0.842106,0.37811 0.842106,0.84211 v 9.26316 c 0,0.464 -0.377265,0.84211 -0.842106,0.84211 h -5.052634 c -0.464842,0 -0.842105,-0.37811 -0.842105,-0.84211 z"/>
      <path d="m 51.527902,229.63098 c 0,0.46485 -0.376421,0.84211 -0.842105,0.84211 h -3.368423 c -0.465684,0 -0.842106,-0.37726 -0.842106,-0.84211 0,-0.46484 0.376422,-0.8421 0.842106,-0.8421 h 3.368423 c 0.465684,0 0.842105,0.37726 0.842105,0.8421 z" id="path250" style="fill:#0066cc;fill-opacity:1;stroke-width:0.842104"/>
    </g>
  </g>
</g>
</svg>
