<?xml version='1.0' encoding='ASCII' standalone='yes'?>
<svg xmlns="http://www.w3.org/2000/svg" xmlns:xlink="http://www.w3.org/1999/xlink" version="1.1" width="24px" height="24px">
  <g transform="translate(4.0, 4.0) scale(1 1) "><defs id="defs12"/>
  <sodipodi:namedview xmlns:sodipodi="http://sodipodi.sourceforge.net/DTD/sodipodi-0.dtd" xmlns:inkscape="http://www.inkscape.org/namespaces/inkscape" pagecolor="#ffffff" bordercolor="#666666" borderopacity="1" objecttolerance="10" gridtolerance="10" guidetolerance="10" inkscape:pageopacity="0" inkscape:pageshadow="2" inkscape:window-width="1366" inkscape:window-height="704" id="namedview10" showgrid="false" inkscape:zoom="20.85965" inkscape:cx="-18.07317" inkscape:cy="10.378889" inkscape:window-x="0" inkscape:window-y="30" inkscape:window-maximized="1" inkscape:current-layer="layer9" inkscape:showpageshadow="2" inkscape:pagecheckerboard="0" inkscape:deskcolor="#d1d1d1"/>
  <metadata xmlns:rdf="http://www.w3.org/1999/02/22-rdf-syntax-ns#" xmlns:cc="http://creativecommons.org/ns#" xmlns:dc="http://purl.org/dc/elements/1.1/" id="metadata90">
    <rdf:RDF>
      <cc:Work rdf:about="">
        <dc:format>image/svg+xml</dc:format>
        <dc:type rdf:resource="http://purl.org/dc/dcmitype/StillImage"/>
        <dc:title>Gnome Symbolic Icon Theme</dc:title>
      </cc:Work>
    </rdf:RDF>
  </metadata>
  <title id="title9167">Gnome Symbolic Icon Theme</title>
  <g id="layer9" transform="rotate(90,137.0003,95.998825)">
    <g id="g244" transform="matrix(0.72727275,0,0,0.72727275,16.273128,64.272484)" style="fill:#444444;fill-opacity:1">
      <g id="g657" transform="matrix(1.1578947,0,0,1.1578947,-4.4798778,-70.382251)" style="fill:#444444;fill-opacity:1">
        <path id="path250" style="fill:#444444;fill-opacity:1" d="m 36.733897,258.14756 c 0,1.654 1.346002,3 3,3 h 6 c 1.653998,0 3,-1.346 3,-3 v -11 c 0,-1.654 -1.346002,-3 -3,-3 0,-1.104 -0.896001,-2 -2,-2 h -2 c -1.103999,0 -2,0.896 -2,2 -1.653998,0 -3,1.346 -3,3 z m 2,0 v -11 c 0,-0.551 0.448,-1 1,-1 h 6 c 0.551999,0 1,0.449 1,1 v 11 c 0,0.551 -0.448001,1 -1,1 h -6 c -0.552,0 -1,-0.449 -1,-1 z"/>
        <path id="path237" style="fill:#444444;fill-opacity:1" d="m 39.733897,258.14756 h 6 v -11 h -6 z m 1.103516,-5.22265 1.896484,-1.17579 -0.431641,-2.60156 2.339844,3.16992 -1.908203,1.21094 0.427734,2.61914 z"/>
      </g>
    </g>
  </g>
</g>
</svg>
