<?xml version='1.0' encoding='ASCII' standalone='yes'?>
<svg xmlns="http://www.w3.org/2000/svg" xmlns:xlink="http://www.w3.org/1999/xlink" version="1.1" width="24px" height="24px">
  <g transform="translate(4.0, 4.0) scale(1 1) "><sodipodi:namedview xmlns:sodipodi="http://sodipodi.sourceforge.net/DTD/sodipodi-0.dtd" xmlns:inkscape="http://www.inkscape.org/namespaces/inkscape" id="namedview11" pagecolor="#ffffff" bordercolor="#000000" borderopacity="0.25" inkscape:showpageshadow="2" inkscape:pageopacity="0.0" inkscape:pagecheckerboard="0" inkscape:deskcolor="#d1d1d1" showgrid="false" inkscape:zoom="65.8125" inkscape:cx="7.9924027" inkscape:cy="8.0151947" inkscape:current-layer="svg9"/>
  <defs id="defs3">
    <style id="current-color-scheme" type="text/css">
   .ColorScheme-Text { color:#dfdfdf; } .ColorScheme-Highlight { color:#4285f4; } .ColorScheme-NeutralText { color:#ff9800; } .ColorScheme-PositiveText { color:#4caf50; } .ColorScheme-NegativeText { color:#f44336; }
  </style>
  </defs>
  <path style="fill:#444444;fill-opacity:1" class="ColorScheme-Text" d="M 4 1 L 4 15 L 13.142578 15 C 13.617435 15 14 14.60975 14 14.125 L 14 1.875 C 14 1.39025 13.617435 1 13.142578 1 L 12 1 L 12 7 C 12 7.554 11.554 8 11 8 L 10 8 C 9.446 8 9 7.554 9 7 L 9 1 L 8.8574219 1 L 4 1 z M 10 1 L 10 7 L 11 7 L 11 1 L 10 1 z" id="path5"/>
  <path style="opacity:0.3;fill:#444444;fill-opacity:1" class="ColorScheme-Text" d="M 2.8571429,1 C 2.3822857,1 2,1.39025 2,1.875 l 0,12.25 C 2,14.60975 2.3822857,15 2.8571429,15 L 4,15 4,1 Z" id="path7"/>
</g>
</svg>
