<?xml version='1.0' encoding='ASCII' standalone='yes'?>
<svg xmlns="http://www.w3.org/2000/svg" xmlns:xlink="http://www.w3.org/1999/xlink" version="1.1" width="24px" height="24px">
  <g transform="translate(4.0, 4.0) scale(1 1) "><sodipodi:namedview xmlns:sodipodi="http://sodipodi.sourceforge.net/DTD/sodipodi-0.dtd" xmlns:inkscape="http://www.inkscape.org/namespaces/inkscape" id="namedview9" pagecolor="#ffffff" bordercolor="#000000" borderopacity="0.25" inkscape:showpageshadow="2" inkscape:pageopacity="0.0" inkscape:pagecheckerboard="0" inkscape:deskcolor="#d1d1d1" showgrid="false" inkscape:zoom="64.1875" inkscape:cx="7.9922103" inkscape:cy="8.0155794" inkscape:current-layer="svg7"/>
  <defs id="defs3">
    <style id="current-color-scheme" type="text/css">
   .ColorScheme-Text { color:#dfdfdf; } .ColorScheme-Highlight { color:#4285f4; } .ColorScheme-NeutralText { color:#ff9800; } .ColorScheme-PositiveText { color:#4caf50; } .ColorScheme-NegativeText { color:#f44336; }
  </style>
  </defs>
  <path style="fill:#4285f4;fill-opacity:1" class="ColorScheme-PositiveText" d="M 8,1 C 4.6863,1 2,3.6863 2,7 2,9.087 3.0708,10.925 4.6875,12 H 4 C 2,12 2,14 2,14 V 15 H 14 V 14 C 14,14 14,12 12,12 H 11.313 C 12.93,10.925 14,9.087 14,7 14,3.6863 11.314,1 8,1 Z M 8,5.0039 A 2,2 0 0 1 10,7.004 2,2 0 0 1 8,9.004 2,2 0 0 1 6,7.004 2,2 0 0 1 8,5.0039 Z" id="path5"/>
</g>
</svg>
