<?xml version='1.0' encoding='ASCII' standalone='yes'?>
<svg xmlns="http://www.w3.org/2000/svg" xmlns:xlink="http://www.w3.org/1999/xlink" version="1.1" width="24px" height="24px">
  <g transform="translate(4.0, 4.0) scale(1 1) ">
    <sodipodi:namedview xmlns:sodipodi="http://sodipodi.sourceforge.net/DTD/sodipodi-0.dtd" xmlns:inkscape="http://www.inkscape.org/namespaces/inkscape" id="namedview11" pagecolor="#ffffff" bordercolor="#000000" borderopacity="0.25" inkscape:showpageshadow="2" inkscape:pageopacity="0.0" inkscape:pagecheckerboard="0" inkscape:deskcolor="#d1d1d1" showgrid="false" inkscape:zoom="16.453125" inkscape:cx="-1.1547958" inkscape:cy="9.9373219" inkscape:current-layer="svg9"/>
    <defs id="defs3">
      <style id="current-color-scheme" type="text/css">
   .ColorScheme-Text { color:#dfdfdf; } .ColorScheme-Highlight { color:#4285f4; }
  </style>
      <style id="current-color-scheme-6" type="text/css">
   .ColorScheme-Text { color:#dfdfdf; } .ColorScheme-Highlight { color:#4285f4; }
  </style>
    </defs>
    <g id="g849">
      <path style="fill:#4285f4;fill-opacity:1;stroke-width:1.15556" d="m 15.261566,1.4051051 c -0.451245,-0.45126846 -1.182944,-0.45126846 -1.63419,0 L 7.511125,7.5213563 6.594895,6.6051146 c -0.45128,-0.4512684 -1.182933,-0.4512684 -1.634213,0 -0.451268,0.45128 -0.451268,1.1829329 0,1.6342128 l 1.733337,1.7333368 c 0.216713,0.2167018 0.510629,0.3384518 0.817106,0.3384518 0.306477,0 0.600393,-0.12175 0.817106,-0.3384518 l 6.933335,-6.9333464 c 0.451245,-0.4512798 0.451245,-1.1829328 0,-1.6342127 z" id="path303"/>
      <path style="fill:#444444;fill-opacity:1;stroke-width:1.15556" d="m 2.311115,3.3777691 h 5.777789 c 0.638191,0 1.155558,-0.5173663 1.155558,-1.1555576 0,-0.6381914 -0.517367,-1.1555577 -1.155558,-1.1555577 H 2.311115 C 1.034721,1.0666538 0,2.1013748 0,3.3777691 v 9.2444619 c 0,1.276429 1.034721,2.311115 2.311115,2.311115 h 9.244462 c 1.276429,0 2.311115,-1.034686 2.311115,-2.311115 v -2.311115 c 0,-0.6382028 -0.517343,-1.1555582 -1.155557,-1.1555582 -0.638215,0 -1.155558,0.5173554 -1.155558,1.1555582 v 2.311115 H 2.311115 Z" id="path2678"/>
    </g>
  </g>
</svg>
