<?xml version='1.0' encoding='ASCII' standalone='yes'?>
<svg xmlns="http://www.w3.org/2000/svg" xmlns:xlink="http://www.w3.org/1999/xlink" version="1.1" width="24px" height="24px">
  <g transform="translate(4.0, 4.0) scale(1 1) "><sodipodi:namedview xmlns:sodipodi="http://sodipodi.sourceforge.net/DTD/sodipodi-0.dtd" xmlns:inkscape="http://www.inkscape.org/namespaces/inkscape" id="namedview11" pagecolor="#ffffff" bordercolor="#000000" borderopacity="0.25" inkscape:showpageshadow="2" inkscape:pageopacity="0.0" inkscape:pagecheckerboard="0" inkscape:deskcolor="#d1d1d1" showgrid="false" inkscape:zoom="65.8125" inkscape:cx="7.9924027" inkscape:cy="8.0151947" inkscape:current-layer="svg9"/>
  <defs id="defs3">
    <style id="current-color-scheme" type="text/css">
   .ColorScheme-Text { color:#dfdfdf; } .ColorScheme-Highlight { color:#4285f4; } .ColorScheme-NeutralText { color:#ff9800; } .ColorScheme-PositiveText { color:#4caf50; } .ColorScheme-NegativeText { color:#f44336; }
  </style>
  </defs>
  <path style="fill:none;stroke:#444444;stroke-width:2;stroke-linecap:round;stroke-opacity:1" class="ColorScheme-Text" d="m 1.9999989,7.999998 h 4.0000022 m 0,4.000002 V 3.9999997 M 1.9999988,12 v -8.0000003 0" id="path5"/>
  <path style="fill:none;stroke:#444444;stroke-width:2;stroke-linecap:round;stroke-opacity:1" class="ColorScheme-Text" d="m 14.000002,11.999823 -2.000001,-3 M 10,7.99982 l 1.999982,-3e-6 c 0.423836,-1e-6 0.729048,4.54e-4 1.00001,4.54e-4 0.999999,0 0.999999,0 0.999999,-1 0,-0.2567203 1.5e-5,-0.5997725 1.1e-5,-1.0004477 l -1.1e-5,-0.9995519 c 0,-1 0,-1 -0.999999,-1 -0.224504,0 -0.544112,0.00944 -0.874519,0.00719 C 10.999983,3.9998114 10,3.9999014 10,3.9999014 M 10.000098,12 V 3.9999997" id="path7"/>
</g>
</svg>
