<?xml version='1.0' encoding='ASCII' standalone='yes'?>
<svg xmlns="http://www.w3.org/2000/svg" xmlns:xlink="http://www.w3.org/1999/xlink" version="1.1" width="24px" height="24px">
  <g transform="translate(4.0, 4.0) scale(1 1) "><sodipodi:namedview xmlns:sodipodi="http://sodipodi.sourceforge.net/DTD/sodipodi-0.dtd" xmlns:inkscape="http://www.inkscape.org/namespaces/inkscape" id="namedview11" pagecolor="#ffffff" bordercolor="#000000" borderopacity="0.25" inkscape:showpageshadow="2" inkscape:pageopacity="0.0" inkscape:pagecheckerboard="0" inkscape:deskcolor="#d1d1d1" showgrid="false" inkscape:zoom="11.346854" inkscape:cx="-4.2302474" inkscape:cy="10.884074" inkscape:current-layer="svg9"/>
  <defs id="defs3">
    <style id="current-color-scheme" type="text/css">
   .ColorScheme-Text { color:#dfdfdf; } .ColorScheme-Highlight { color:#4285f4; }
  </style>
  </defs>
  <g id="g246" transform="matrix(0.9411765,0,0,0.9411765,-2.82353,-3.2941195)" style="fill:#444444;fill-opacity:1">
    <path fill-rule="evenodd" style="color:#dfdfdf;fill:#444444;fill-opacity:1" class="ColorScheme-Text" d="m 14,4.5 c -0.554,0 -1,0.446 -1,1 v 13 c 0,0.554 0.446,1 1,1 h 5 c 0.554,0 1,-0.446 1,-1 v -13 c 0,-0.554 -0.446,-1 -1,-1 z m 0,3 h 1 v 1 h -1 z m 2,0 h 1 v 1 h -1 z m 2,1 h 1 v 7 h -1 z m -4,1 h 1 v 1 h -1 z m 2,0 h 1 v 1 h -1 z m -2,2 h 1 v 1 h -1 z m 2,0 h 1 v 1 h -1 z m -2,2 h 1 v 1 h -1 z m 2,0 h 1 v 1 h -1 z m -2,2 h 1 v 1 h -1 z m 2,0 h 1 v 1 h -1 z" id="path7"/>
    <g id="g734" transform="matrix(0.75,0,0,0.78947368,-12.827278,-183.98923)" style="fill:#444444;fill-opacity:1">
      <path id="path256" style="fill:#444444;fill-opacity:1" d="m 21.103038,254.75303 c 0,1.654 1.346001,3 3,3 h 6 c 1.653998,0 3,-1.346 3,-3 v -11 c 0,-1.654 -1.346002,-3 -3,-3 0,-1.104 -0.896002,-2 -2,-2 h -2 c -1.103999,0 -2,0.896 -2,2 -1.653999,0 -3,1.346 -3,3 z m 2,0 v -11 c 0,-0.551 0.448,-1 1,-1 h 6 c 0.551999,0 1,0.449 1,1 v 11 c 0,0.551 -0.448001,1 -1,1 h -6 c -0.552,0 -1,-0.449 -1,-1 z"/>
      <path d="m 30.10317,247.75336 c 0,0.552 -0.447,1 -1,1 h -4 c -0.553,0 -1,-0.448 -1,-1 0,-0.552 0.447,-1 1,-1 h 4 c 0.553,0 1,0.448 1,1 z" id="path254" style="fill:#444444;fill-opacity:1"/>
      <path d="m 30.10317,244.75336 c 0,0.552 -0.447,1 -1,1 h -4 c -0.553,0 -1,-0.448 -1,-1 0,-0.552 0.447,-1 1,-1 h 4 c 0.553,0 1,0.448 1,1 z" id="path252" style="fill:#444444;fill-opacity:1"/>
      <path d="m 30.10317,253.75336 c 0,0.552 -0.447,1 -1,1 h -4 c -0.553,0 -1,-0.448 -1,-1 0,-0.552 0.447,-1 1,-1 h 4 c 0.553,0 1,0.448 1,1 z" id="path250" style="fill:#444444;fill-opacity:1"/>
      <path d="m 30.10317,250.75336 c 0,0.552 -0.447,1 -1,1 h -4 c -0.553,0 -1,-0.448 -1,-1 0,-0.552 0.447,-1 1,-1 h 4 c 0.553,0 1,0.448 1,1 z" id="path239" style="fill:#444444;fill-opacity:1"/>
    </g>
  </g>
</g>
</svg>
