<?xml version='1.0' encoding='ASCII' standalone='yes'?>
<svg xmlns="http://www.w3.org/2000/svg" xmlns:xlink="http://www.w3.org/1999/xlink" version="1.1" width="24px" height="24px">
  <g transform="translate(4.0, 4.0) scale(1 1) "><sodipodi:namedview xmlns:sodipodi="http://sodipodi.sourceforge.net/DTD/sodipodi-0.dtd" xmlns:inkscape="http://www.inkscape.org/namespaces/inkscape" id="namedview11" pagecolor="#ffffff" bordercolor="#000000" borderopacity="0.25" inkscape:showpageshadow="2" inkscape:pageopacity="0.0" inkscape:pagecheckerboard="0" inkscape:deskcolor="#d1d1d1" showgrid="false" inkscape:zoom="65.8125" inkscape:cx="7.9924027" inkscape:cy="8.045584" inkscape:current-layer="svg9"/>
  <defs id="defs3">
    <style id="current-color-scheme" type="text/css">
   .ColorScheme-Text { color:#dfdfdf; } .ColorScheme-Highlight { color:#4285f4; } .ColorScheme-NeutralText { color:#ff9800; } .ColorScheme-PositiveText { color:#4caf50; } .ColorScheme-NegativeText { color:#f44336; }
  </style>
  </defs>
  <path style="fill:#444444;fill-opacity:1" class="ColorScheme-Text" d="m 14.620861,1.002477 c -0.116702,-0.0121 -0.298823,0.01588 -0.636688,0.101557 -0.672535,0.170535 -0.816254,0.224116 -0.808554,0.371076 0.0043,0.08257 0.04943,0.155921 0.167961,0.289048 L 12.849463,2.256321 12.714705,2.121562 c -0.03693,-0.03691 -0.08461,-0.05469 -0.132807,-0.05469 -0.04819,0 -0.09588,0.01777 -0.132805,0.05469 l -0.193351,0.191397 1.445242,1.417899 0.179678,-0.177725 c 0.07386,-0.07382 0.07386,-0.19179 0,-0.265612 L 13.74981,3.156668 14.243926,2.662551 c 0.127802,0.112556 0.198533,0.154019 0.285142,0.164055 0.14146,0.01639 0.175205,-0.152158 0.355452,-0.822225 0.178023,-0.661806 0.13389,-0.70794 -0.02148,-0.863239 -0.0742,-0.07417 -0.125474,-0.126565 -0.242175,-0.138665 z M 11.943258,2.625444 7.8282267,6.740475 9.2597977,8.172046 13.388499,4.043343 Z M 6.5939127,7.002182 c -0.05043,6.4e-5 -0.09997,0.01796 -0.138665,0.05664 l -4.400175,4.39822 c -0.07738,0.07735 -0.07719,0.200179 0,0.277331 l 2.206923,2.206922 c 0.07719,0.07715 0.201899,0.07539 0.279283,-0.002 l 4.398221,-4.396267 c 0.07738,-0.07735 0.07719,-0.202133 0,-0.279284 L 6.7325777,7.05882 c -0.03859,-0.03858 -0.08823,-0.0567 -0.138665,-0.05664 z m -5.050533,5.632535 -0.402324,0.400371 c -0.18807398,0.187983 -0.18807398,0.489718 0,0.677701 l 1.146428,1.146428 c 0.188073,0.187984 0.49158,0.187984 0.679654,0 l 0.400371,-0.400371 z" id="path5"/>
  <path style="fill:#444444;fill-opacity:1" class="ColorScheme-Text" d="M 10.455346,9.9998787 A 0.44227126,0.47078076 0 0 0 10,10.470389 v 5.058363 a 0.44227126,0.47078076 0 0 0 0.663519,0.40778 l 2.057484,-1.264666 2.057733,-1.264366 a 0.44227126,0.47078076 0 0 0 0,-0.815575 L 12.721003,11.32756 10.663519,10.062684 a 0.44227126,0.47078076 0 0 0 -0.208148,-0.06273 z" id="path7"/>
</g>
</svg>
