<?xml version='1.0' encoding='ASCII' standalone='yes'?>
<svg xmlns="http://www.w3.org/2000/svg" xmlns:xlink="http://www.w3.org/1999/xlink" version="1.1" width="24px" height="24px">
  <g transform="translate(4.0, 4.0) scale(1 1) "><sodipodi:namedview xmlns:sodipodi="http://sodipodi.sourceforge.net/DTD/sodipodi-0.dtd" xmlns:inkscape="http://www.inkscape.org/namespaces/inkscape" id="namedview11" pagecolor="#ffffff" bordercolor="#000000" borderopacity="0.25" inkscape:showpageshadow="2" inkscape:pageopacity="0.0" inkscape:pagecheckerboard="0" inkscape:deskcolor="#d1d1d1" showgrid="false" inkscape:zoom="65.8125" inkscape:cx="7.9924027" inkscape:cy="8.0151947" inkscape:current-layer="svg9"/>
  <defs id="defs3">
    <style id="current-color-scheme" type="text/css">
   .ColorScheme-Text { color:#dfdfdf; } .ColorScheme-Highlight { color:#4285f4; } .ColorScheme-NeutralText { color:#ff9800; } .ColorScheme-PositiveText { color:#4caf50; } .ColorScheme-NegativeText { color:#f44336; }
  </style>
  </defs>
  <path style="fill:#444444;fill-opacity:1" class="ColorScheme-Text" d="M 1.3497635,1 C 1.1559945,1 1,1.1543846 1,1.3461538 V 2.730769 9.653846 C 1,9.845615 1.1559945,10 1.3497635,10 H 2.649119 C 2.842887,10 3.000032,9.845615 3,9.653846 V 3 H 6.650236 C 6.844005,3 7,2.822692 7,2.630923 V 1.3461538 C 7,1.1543846 6.844005,1 6.650236,1 H 2.748818 Z" id="path5"/>
  <path style="opacity:0.3;fill:#444444;fill-opacity:1" class="ColorScheme-Text" d="M 14.650237,15 C 14.844006,15 15,14.845615 15,14.653846 V 13.269231 6.346154 C 15,6.154385 14.844006,6 14.650237,6 H 13.350881 C 13.157113,6 12.999968,6.154385 13,6.346154 V 13 H 9.349764 C 9.155995,13 9,13.177308 9,13.369077 v 1.284769 C 9,14.845615 9.155995,15 9.349764,15 h 3.901418 z" id="path7"/>
</g>
</svg>
