<?xml version='1.0' encoding='ASCII' standalone='yes'?>
<svg xmlns="http://www.w3.org/2000/svg" xmlns:xlink="http://www.w3.org/1999/xlink" version="1.1" width="24px" height="24px">
  <g transform="translate(4.0, 4.0) scale(1 1) "><sodipodi:namedview xmlns:sodipodi="http://sodipodi.sourceforge.net/DTD/sodipodi-0.dtd" xmlns:inkscape="http://www.inkscape.org/namespaces/inkscape" id="namedview13" pagecolor="#ffffff" bordercolor="#000000" borderopacity="0.25" inkscape:showpageshadow="2" inkscape:pageopacity="0.0" inkscape:pagecheckerboard="0" inkscape:deskcolor="#d1d1d1" showgrid="false" inkscape:zoom="65.8125" inkscape:cx="7.9924027" inkscape:cy="8.0151947" inkscape:current-layer="svg11"/>
  <defs id="defs3">
    <style id="current-color-scheme" type="text/css">
   .ColorScheme-Text { color:#dfdfdf; } .ColorScheme-Highlight { color:#4285f4; } .ColorScheme-NeutralText { color:#ff9800; } .ColorScheme-PositiveText { color:#4caf50; } .ColorScheme-NegativeText { color:#f44336; }
  </style>
  </defs>
  <g transform="translate(-3,-3)" id="g7" style="fill:#444444;fill-opacity:1">
    <path style="fill:#444444;fill-opacity:1" class="ColorScheme-Text" transform="translate(3,3)" d="M 8 1 A 7 7 0 0 0 1 8 A 7 7 0 0 0 8 15 A 7 7 0 0 0 8.0058594 15 A 5 5 0 0 1 7 12 A 5 5 0 0 1 7.4199219 10 L 7 10 L 6 8.5 L 6 11 L 4 11 L 4 5 L 6 5 L 8 8 L 10 5 L 12 5 L 12 7 A 5 5 0 0 1 15 8.0078125 A 7 7 0 0 0 15 8 A 7 7 0 0 0 8 1 z" id="path5"/>
  </g>
  <path style="fill:currentColor" class="ColorScheme-NeutralText" d="M 11.990234 7.9980469 C 11.313716 7.9993683 10.627735 8.1727094 10 8.5351562 C 8.0868 9.6397564 7.4326094 12.0868 8.5371094 14 C 9.6416094 15.9131 12.0869 16.567491 14 15.462891 C 15.9132 14.358291 16.569344 11.9132 15.464844 10 C 14.774531 8.8043122 13.560186 8.0983495 12.279297 8.0078125 C 12.18323 8.0010224 12.08688 7.9978581 11.990234 7.9980469 z M 11 9 L 13 9 L 13 13 L 11 13 L 11 9 z M 11 14 L 13 14 L 13 15 L 11 15 L 11 14 z" id="path9"/>
</g>
</svg>
