<?xml version='1.0' encoding='ASCII' standalone='yes'?>
<svg xmlns="http://www.w3.org/2000/svg" xmlns:xlink="http://www.w3.org/1999/xlink" version="1.1" width="24px" height="24px">
  <g transform="translate(4.0, 4.0) scale(1 1) "><sodipodi:namedview xmlns:sodipodi="http://sodipodi.sourceforge.net/DTD/sodipodi-0.dtd" xmlns:inkscape="http://www.inkscape.org/namespaces/inkscape" id="namedview11" pagecolor="#ffffff" bordercolor="#000000" borderopacity="0.25" inkscape:showpageshadow="2" inkscape:pageopacity="0.0" inkscape:pagecheckerboard="0" inkscape:deskcolor="#d1d1d1" showgrid="false" inkscape:zoom="32.09375" inkscape:cx="0.68549172" inkscape:cy="7.4936709" inkscape:current-layer="svg9"/>
  <defs id="defs3">
    <style id="current-color-scheme" type="text/css">
   .ColorScheme-Text { color:#dfdfdf; } .ColorScheme-Highlight { color:#4285f4; }
  </style>
  </defs>
  <g id="g297" style="fill:#4285f4;fill-opacity:1">
    <path d="M 8,0 C 7.742188,0 7.488281,0.0976562 7.292969,0.292969 L 5.585938,2 H 3 C 2.449219,2 2,2.449219 2,3 V 5.585938 L 0.292969,7.292969 c -0.3906252,0.390625 -0.3906252,1.023437 0,1.414062 L 2,10.414062 V 13 c 0,0.550781 0.449219,1 1,1 h 2.585938 l 1.707031,1.707031 c 0.390625,0.390625 1.023437,0.390625 1.414062,0 L 10.414062,14 H 13 c 0.550781,0 1,-0.449219 1,-1 v -2.585938 l 1.707031,-1.707031 c 0.390625,-0.390625 0.390625,-1.023437 0,-1.414062 L 14,5.585938 V 3 C 14,2.449219 13.550781,2 13,2 H 10.414062 L 8.707031,0.292969 C 8.511719,0.0976562 8.257812,0 8,0 Z m 0,5 c 0.257812,0 0.511719,0.097656 0.707031,0.292969 l 2,2 C 10.890625,7.480469 10.996094,7.734375 10.992188,8 H 11 V 9 H 9 v 2 H 7 V 9 H 5 V 8 H 5.00781 C 5.003906,7.734375 5.109375,7.480469 5.292969,7.292969 l 2,-2 C 7.488281,5.097656 7.742188,5 8,5 Z m 0,0" fill="#2e3436" id="path2" style="fill:#4285f4;fill-opacity:1"/>
  </g>
</g>
</svg>
