<?xml version='1.0' encoding='ASCII' standalone='yes'?>
<svg xmlns="http://www.w3.org/2000/svg" xmlns:xlink="http://www.w3.org/1999/xlink" version="1.1" width="24px" height="24px">
  <g transform="translate(4.0, 4.0) scale(1 1) ">
    <sodipodi:namedview xmlns:sodipodi="http://sodipodi.sourceforge.net/DTD/sodipodi-0.dtd" xmlns:inkscape="http://www.inkscape.org/namespaces/inkscape" id="namedview11" pagecolor="#ffffff" bordercolor="#000000" borderopacity="0.25" inkscape:showpageshadow="2" inkscape:pageopacity="0.0" inkscape:pagecheckerboard="0" inkscape:deskcolor="#d1d1d1" showgrid="false" inkscape:zoom="32.09375" inkscape:cx="-3.4274586" inkscape:cy="6.3096397" inkscape:current-layer="svg9"/>
    <defs id="defs3">
      <style id="current-color-scheme" type="text/css">
   .ColorScheme-Text { color:#dfdfdf; } .ColorScheme-Highlight { color:#4285f4; }
  </style>
    </defs>
    <path id="path2" style="fill:#444444;fill-opacity:1" d="M 8 0 C 7.7441413 0 7.4882809 0.097656635 7.2929688 0.29296875 L 5.5859375 2 L 3 2 C 2.4492202 2 2 2.4492202 2 3 L 2 5.5859375 L 0.29296875 7.2929688 C -0.097655669 7.683593 -0.097655669 8.316407 0.29296875 8.7070312 L 2 10.414062 L 2 13 C 2 13.550779 2.4492202 14 3 14 L 5.5859375 14 L 7.2929688 15.707031 C 7.4882804 15.90234 7.7421886 16 8 16 C 8.2578114 16 8.5117196 15.902344 8.7070312 15.707031 L 10.414062 14 L 13 14 C 13.550779 14 14 13.550779 14 13 L 14 10.414062 L 15.707031 8.7070312 C 16.097656 8.316407 16.097656 7.683593 15.707031 7.2929688 L 14 5.5859375 L 14 3 C 14 2.4492202 13.550779 2 13 2 L 10.414062 2 L 8.7070312 0.29296875 C 8.5117191 0.097656635 8.2558587 0 8 0 z M 10.855469 4.9375 C 10.992562 4.9938622 11.07983 5.1733637 11.082031 5.4648438 L 11.082031 8.0996094 L 8.4472656 8.0996094 C 7.8649344 8.0996094 7.7261349 7.7615175 8.1386719 7.3496094 L 8.8808594 6.6035156 C 8.5915804 6.4129688 8.2538141 6.3105469 7.9003906 6.3105469 C 7.4230803 6.3105469 6.9730963 6.4982357 6.6347656 6.8359375 C 6.2970638 7.1730104 6.1113281 7.6216702 6.1113281 8.0996094 C 6.1113281 8.5781774 6.2970638 9.0275326 6.6347656 9.3652344 C 6.9730963 9.703565 7.4230803 9.8886719 7.9003906 9.8886719 C 8.377701 9.8886719 8.827685 9.7029362 9.1660156 9.3652344 C 9.2565725 9.2727909 9.3377035 9.1726848 9.40625 9.0664062 C 9.5842195 8.7897046 9.9537671 8.7087493 10.230469 8.8867188 C 10.507799 9.0640593 10.588126 9.4329781 10.410156 9.7109375 C 10.296331 9.8876492 10.161952 10.054216 10.009766 10.207031 C 9.4463005 10.771125 8.6965367 11.082031 7.9003906 11.082031 C 7.1042445 11.082031 6.3564339 10.770496 5.7929688 10.207031 C 5.2295036 9.6448238 4.9179688 8.8970132 4.9179688 8.0996094 C 4.9179688 7.3034633 5.2288747 6.5531372 5.7929688 5.9921875 C 6.355805 5.4287223 7.1042445 5.1171875 7.9003906 5.1171875 C 8.5726498 5.1171875 9.2110908 5.3412362 9.7324219 5.75 L 10.324219 5.1542969 C 10.530173 4.9480284 10.718376 4.8811378 10.855469 4.9375 z "/>
    <g id="g389" transform="matrix(0.00628868,0,0,0.00628868,4.85566,4.8556039)">
      <g id="g357">
        <g id="g355"/>
      </g>
      <g id="g359"/>
      <g id="g361"/>
      <g id="g363"/>
      <g id="g365"/>
      <g id="g367"/>
      <g id="g369"/>
      <g id="g371"/>
      <g id="g373"/>
      <g id="g375"/>
      <g id="g377"/>
      <g id="g379"/>
      <g id="g381"/>
      <g id="g383"/>
      <g id="g385"/>
      <g id="g387"/>
    </g>
  </g>
</svg>
