<?xml version='1.0' encoding='ASCII' standalone='yes'?>
<svg xmlns="http://www.w3.org/2000/svg" xmlns:xlink="http://www.w3.org/1999/xlink" version="1.1" width="24px" height="24px">
  <g transform="translate(4.0, 4.0) scale(1 1) ">
    <sodipodi:namedview xmlns:sodipodi="http://sodipodi.sourceforge.net/DTD/sodipodi-0.dtd" xmlns:inkscape="http://www.inkscape.org/namespaces/inkscape" id="namedview9" pagecolor="#ffffff" bordercolor="#000000" borderopacity="0.25" inkscape:showpageshadow="2" inkscape:pageopacity="0.0" inkscape:pagecheckerboard="0" inkscape:deskcolor="#d1d1d1" showgrid="false" inkscape:zoom="16.453125" inkscape:cx="-18.598291" inkscape:cy="14.981956" inkscape:current-layer="svg7"/>
    <defs id="defs3">
      <style id="current-color-scheme" type="text/css">
   .ColorScheme-Text { color:#dfdfdf; } .ColorScheme-Highlight { color:#4285f4; }
  </style>
      <style id="current-color-scheme-67" type="text/css">
   .ColorScheme-Text { color:#dfdfdf; } .ColorScheme-Highlight { color:#4285f4; }
  </style>
      <style id="current-color-scheme-5" type="text/css">
   .ColorScheme-Text { color:#dfdfdf; } .ColorScheme-Highlight { color:#4285f4; }
  </style>
      <style id="current-color-scheme-6" type="text/css">
   .ColorScheme-Text { color:#dfdfdf; } .ColorScheme-Highlight { color:#4285f4; }
  </style>
    </defs>
    <g id="g860">
      <path style="fill:#444444;fill-opacity:1" d="M 1,10" id="path867"/>
      <path style="opacity:0.3;fill:#444444;fill-opacity:1" d="m 1,10 c -0.554688,0 -1,0.445312 -1,1 v 3 c 0,0.554688 0.445312,1 1,1 h 1 c 0.554688,0 1,-0.445312 1,-1 V 11 C 3,10.445312 2.554688,10 2,10 Z" id="path865"/>
      <path style="opacity:0.3;fill:#444444;fill-opacity:1" d="m 5,6.9999998 c -0.554688,0 -1,0.445312 -1,1 V 14 c 0,0.554688 0.445312,1 1,1 h 1 c 0.554688,0 1,-0.445312 1,-1 V 7.9999998 c 0,-0.554688 -0.445312,-1 -1,-1 z" id="path863"/>
      <path style="opacity:0.3;fill:#444444;fill-opacity:1" d="m 9,3.9999998 c -0.554688,0 -1,0.4453119 -1,1 V 14 c 0,0.554688 0.445312,1 1,1 h 1 c 0.554688,0 1,-0.445312 1,-1 V 4.9999998 c 0,-0.5546881 -0.445312,-1 -1,-1 z" id="path861"/>
      <path style="opacity:0.3;fill:#444444;fill-opacity:1" d="m 13,0.99999985 c -0.554688,0 -1,0.44531195 -1,0.99999995 V 14 c 0,0.554688 0.445312,1 1,1 h 1 c 0.554688,0 1,-0.445312 1,-1 V 1.9999998 C 15,1.4453118 14.554688,0.99999975 14,0.99999975 Z" id="path2"/>
    </g>
  </g>
</svg>
