<?xml version='1.0' encoding='ASCII' standalone='yes'?>
<svg xmlns="http://www.w3.org/2000/svg" xmlns:xlink="http://www.w3.org/1999/xlink" version="1.1" width="24px" height="24px">
  <g transform="translate(4.0, 4.0) scale(1 1) "><sodipodi:namedview xmlns:sodipodi="http://sodipodi.sourceforge.net/DTD/sodipodi-0.dtd" xmlns:inkscape="http://www.inkscape.org/namespaces/inkscape" id="namedview268" pagecolor="#ffffff" bordercolor="#000000" borderopacity="0.25" inkscape:showpageshadow="2" inkscape:pageopacity="0.0" inkscape:pagecheckerboard="0" inkscape:deskcolor="#d1d1d1" showgrid="false" inkscape:zoom="16.453125" inkscape:cx="3.1604938" inkscape:cy="11.213675" inkscape:current-layer="svg266"/>
  <defs id="defs262">
    <style id="current-color-scheme" type="text/css">
   .ColorScheme-Text { color:#dfdfdf; } .ColorScheme-Highlight { color:#4285f4; }
  </style>
  </defs>
  <path d="m 7.999995,1.9960942 c -2.617188,0 -5.238281,0.933593 -7.195312,2.8085931 L 0.308589,5.2851562 c -0.398438,0.3789061 -0.410156,1.011719 -0.03125,1.4101561 0.0039,0.0039 0.01172,0.01172 0.01563,0.01563 l 2.863281,2.863281 c 0.04687,0.07422 0.101562,0.144532 0.171875,0.207032 0.40625,0.3710937 1.039063,0.3398437 1.414063,-0.07031 l 0.496093,-0.546875 c 1.277344,-1.402344 4.160157,-1.496094 5.523438,0 l 0.5,0.546875 c 0.371093,0.4101567 1.003906,0.4414067 1.414062,0.07031 0.06641,-0.0625 0.117188,-0.128906 0.164063,-0.203125 l 2.867187,-2.867188 c 0.0039,-0.0039 0.01172,-0.01172 0.01563,-0.01563 0.378906,-0.398437 0.367188,-1.03125 -0.03125,-1.410156 L 15.195312,4.8046873 C 13.238281,2.9296873 10.617188,1.9960942 8,1.9960942 Z m 0,2.039062 c 2.023438,0 4.042969,0.6640621 5.5625,1.992188 l -1.550781,1.550781 C 10.906245,6.5078123 9.429683,5.9921873 7.968745,6.0039062 6.507807,6.0156263 5.054683,6.5507812 3.992183,7.5820312 L 2.437495,6.0273442 c 1.519531,-1.328126 3.539062,-1.992188 5.5625,-1.992188 z m 0,5.9687498 c -0.511719,0 -1.023438,0.195312 -1.414062,0.585938 -0.78125,0.78125 -0.78125,2.046874 0,2.828124 0.78125,0.78125 2.046874,0.78125 2.828124,0 0.78125,-0.78125 0.78125,-2.046874 0,-2.828124 C 9.023433,10.199218 8.511714,10.003906 7.999995,10.003906 Z m 0,0" fill="#2e3434" fill-opacity="0.34902" id="path2" style="opacity:1;fill:#444444;fill-opacity:1"/>
</g>
</svg>
