<?xml version='1.0' encoding='ASCII' standalone='yes'?>
<svg xmlns="http://www.w3.org/2000/svg" xmlns:xlink="http://www.w3.org/1999/xlink" version="1.1" width="24px" height="24px">
  <g transform="translate(4.0, 4.0) scale(1 1) ">
    <sodipodi:namedview xmlns:sodipodi="http://sodipodi.sourceforge.net/DTD/sodipodi-0.dtd" xmlns:inkscape="http://www.inkscape.org/namespaces/inkscape" id="namedview9" pagecolor="#ffffff" bordercolor="#000000" borderopacity="0.25" inkscape:showpageshadow="2" inkscape:pageopacity="0.0" inkscape:pagecheckerboard="0" inkscape:deskcolor="#d1d1d1" showgrid="false" inkscape:zoom="16.453125" inkscape:cx="-12.338082" inkscape:cy="12.793922" inkscape:current-layer="svg7"/>
    <defs id="defs3">
      <style id="current-color-scheme" type="text/css">
   .ColorScheme-Text { color:#dfdfdf; } .ColorScheme-Highlight { color:#4285f4; }
  </style>
    </defs>
    <path d="m 13,0.9999998 c -0.554688,0 -1,0.445312 -1,1 V 14 c 0,0.554688 0.445312,1 1,1 h 1 c 0.554688,0 1,-0.445312 1,-1 V 1.9999998 c 0,-0.554688 -0.445312,-1 -1,-1 z m -4,3 c -0.554688,0 -1,0.4453119 -1,1 V 14 c 0,0.554688 0.445312,1 1,1 h 1 c 0.554688,0 1,-0.445312 1,-1 V 4.9999998 c 0,-0.5546881 -0.445312,-1 -1,-1 z m -4,3 c -0.554688,0 -1,0.445312 -1,1 V 14 c 0,0.554688 0.445312,1 1,1 h 1 c 0.554688,0 1,-0.445312 1,-1 V 7.9999998 c 0,-0.554688 -0.445312,-1 -1,-1 z m -4,3 C 0.445312,9.9999998 0,10.445312 0,11 v 3 c 0,0.554688 0.445312,1 1,1 h 1 c 0.554688,0 1,-0.445312 1,-1 V 11 C 3,10.445312 2.554688,9.9999998 2,9.9999998 Z m 0,0" fill="#2e3436" id="path2" style="fill:#444444;fill-opacity:1"/>
  </g>
</svg>
