<?xml version='1.0' encoding='ASCII' standalone='yes'?>
<svg xmlns="http://www.w3.org/2000/svg" xmlns:xlink="http://www.w3.org/1999/xlink" version="1.1" width="24px" height="24px">
  <g transform="translate(4.0, 4.0) scale(1 1) "><sodipodi:namedview xmlns:sodipodi="http://sodipodi.sourceforge.net/DTD/sodipodi-0.dtd" xmlns:inkscape="http://www.inkscape.org/namespaces/inkscape" id="namedview11" pagecolor="#ffffff" bordercolor="#000000" borderopacity="0.25" inkscape:showpageshadow="2" inkscape:pageopacity="0.0" inkscape:pagecheckerboard="0" inkscape:deskcolor="#d1d1d1" showgrid="false" inkscape:zoom="65.8125" inkscape:cx="7.9924027" inkscape:cy="8.0151947" inkscape:current-layer="svg9"/>
  <defs id="defs3">
    <style id="current-color-scheme" type="text/css">
   .ColorScheme-Text { color:#dfdfdf; } .ColorScheme-Highlight { color:#4285f4; } .ColorScheme-NeutralText { color:#ff9800; } .ColorScheme-PositiveText { color:#4caf50; } .ColorScheme-NegativeText { color:#f44336; }
  </style>
  </defs>
  <path style="fill:#444444;fill-opacity:1" class="ColorScheme-Text" d="M 2 2 C 0.892 2 0 2.892 0 4 L 0 12 C 0 13.108 0.892 14 2 14 L 8 14 L 13.441406 14 L 13.441406 13.998047 A 2.5 2.5 0 0 1 11 11.5 A 2.5 2.5 0 0 1 13.5 9 A 2.5 2.5 0 0 1 15.996094 11.355469 L 16 11.355469 L 16 4 C 16 2.892 15.108 2 14 2 L 8 2 L 2 2 z M 2 4 L 8 7 L 14 4 L 14 6 L 8 9 L 2 6 L 2 4 z" id="path5"/>
  <path style="fill:currentColor" class="ColorScheme-NegativeText" d="M 13.5,10 A 1.5,1.5 0 0 0 12,11.5 1.5,1.5 0 0 0 13.5,13 1.5,1.5 0 0 0 15,11.5 1.5,1.5 0 0 0 13.5,10 Z" id="path7"/>
</g>
</svg>
