<?xml version='1.0' encoding='ASCII' standalone='yes'?>
<svg xmlns="http://www.w3.org/2000/svg" xmlns:xlink="http://www.w3.org/1999/xlink" version="1.1" width="24px" height="24px">
  <g transform="translate(4.0, 4.0) scale(1 1) ">
    <sodipodi:namedview xmlns:sodipodi="http://sodipodi.sourceforge.net/DTD/sodipodi-0.dtd" xmlns:inkscape="http://www.inkscape.org/namespaces/inkscape" id="namedview11" pagecolor="#ffffff" bordercolor="#000000" borderopacity="0.25" inkscape:showpageshadow="2" inkscape:pageopacity="0.0" inkscape:pagecheckerboard="0" inkscape:deskcolor="#d1d1d1" showgrid="false" inkscape:zoom="22.693708" inkscape:cx="-4.1861824" inkscape:cy="8.2181369" inkscape:current-layer="svg9"/>
    <defs id="defs3">
      <style id="current-color-scheme" type="text/css">
   .ColorScheme-Text { color:#dfdfdf; } .ColorScheme-Highlight { color:#4285f4; } .ColorScheme-NeutralText { color:#ff9800; } .ColorScheme-PositiveText { color:#4caf50; } .ColorScheme-NegativeText { color:#f44336; }
  </style>
      <style id="current-color-scheme-5" type="text/css">
   .ColorScheme-Text { color:#dfdfdf; } .ColorScheme-Highlight { color:#4285f4; }
  </style>
    </defs>
    <path style="fill:#f44336;fill-opacity:1" class="ColorScheme-Text" d="m 9.5,2 c -0.554,0 -1,0.446 -1,1 v 10 c 0,0.554 0.446,1 1,1 h 5 c 0.554,0 1,-0.446 1,-1 V 3 c 0,-0.554 -0.446,-1 -1,-1 z m 0.714844,1 h 3.570312 C 14.180871,3 14.5,3.3345 14.5,3.75 v 7.5 C 14.5,11.6655 14.180871,12 13.785156,12 H 10.214844 C 9.819129,12 9.5,11.6655 9.5,11.25 V 3.75 C 9.5,3.3345 9.819129,3 10.214844,3 Z" id="path7"/>
    <g id="g335" transform="matrix(0.75999997,0,0,0.79999998,-1.2838215,-1.5999996)" style="fill:#f44336;fill-opacity:1">
      <path id="path313" style="fill:#f44336;fill-opacity:1;stroke-width:0.789472" d="m 2.3471336,17.131576 c 0,1.305792 1.0626326,2.368424 2.3684208,2.368424 h 4.7368424 c 1.3057872,0 2.3684212,-1.062632 2.3684212,-2.368424 V 8.4473678 c 0,-1.3057916 -1.062634,-2.3684235 -2.3684212,-2.3684235 0,-0.8715766 -0.7073694,-1.5789446 -1.5789473,-1.5789446 H 6.2945023 c -0.8715785,0 -1.5789479,0.707368 -1.5789479,1.5789446 -1.3057882,0 -2.3684208,1.0626319 -2.3684208,2.3684235 z m 1.5789472,0 V 8.4473678 c 0,-0.4350001 0.3536841,-0.7894724 0.7894736,-0.7894724 h 4.7368424 c 0.4357889,0 0.7894732,0.3544723 0.7894732,0.7894724 v 8.6842082 c 0,0.435 -0.3536843,0.789479 -0.7894732,0.789479 H 4.7155544 c -0.4357895,0 -0.7894736,-0.354479 -0.7894736,-0.789479 z"/>
      <g id="g480" transform="matrix(0,0.63829787,-0.63829787,0,172.19967,-9.3745978)" style="fill:#f44336;fill-opacity:1">
        <path d="m 34.820203,259.34792 v -1.33333 c 0,-0.36979 0.296875,-0.66667 0.666667,-0.66667 h 1.333333 c 0.369792,0 0.666667,0.29688 0.666667,0.66667 v 1.33333 c 0,0.36979 -0.296875,0.66667 -0.666667,0.66667 H 35.48687 c -0.369792,0 -0.666667,-0.29688 -0.666667,-0.66667 z" id="path435" style="fill:#f44336;fill-opacity:1;stroke-width:1.33333"/>
        <path d="m 29.48687,260.01459 v -2.66667 h 3.333333 c 0,0 0.666667,0 0.666667,0.66667 v 1.33333 c 0,0.66667 -0.666667,0.66667 -0.666667,0.66667 z" id="path433" style="fill:#f44336;fill-opacity:1;stroke-width:1.33333"/>
      </g>
    </g>
  </g>
</svg>
