<?xml version='1.0' encoding='ASCII' standalone='yes'?>
<svg xmlns="http://www.w3.org/2000/svg" xmlns:xlink="http://www.w3.org/1999/xlink" version="1.1" width="24px" height="24px">
  <g transform="translate(4.0, 4.0) scale(1 1) "><defs>
  <style id="current-color-scheme" type="text/css">
   .ColorScheme-Text { color:#444444; } .ColorScheme-Highlight { color:#4285f4; }
  </style>
 </defs>
 <rect style="fill:currentColor" class="ColorScheme-Text" width="2" height="2" x="3" y="3" rx=".5" ry=".5"/>
 <rect style="fill:currentColor" class="ColorScheme-Text" width="2" height="2" x="7" y="3" rx=".5" ry=".5"/>
 <rect style="fill:currentColor" class="ColorScheme-Text" width="2" height="2" x="11" y="3" rx=".5" ry=".5"/>
 <rect style="fill:currentColor" class="ColorScheme-Text" width="2" height="2" x="3" y="7" rx=".5" ry=".5"/>
 <rect style="fill:currentColor" class="ColorScheme-Text" width="2" height="2" x="7" y="7" rx=".5" ry=".5"/>
 <rect style="fill:currentColor" class="ColorScheme-Text" width="2" height="2" x="11" y="7" rx=".5" ry=".5"/>
 <rect style="fill:currentColor" class="ColorScheme-Text" width="2" height="2" x="3" y="11" rx=".5" ry=".5"/>
 <rect style="fill:currentColor" class="ColorScheme-Text" width="2" height="2" x="7" y="11" rx=".5" ry=".5"/>
 <rect style="fill:currentColor" class="ColorScheme-Text" width="2" height="2" x="11" y="11" rx=".5" ry=".5"/>
</g>
</svg>
