<?xml version='1.0' encoding='ASCII' standalone='yes'?>
<svg xmlns="http://www.w3.org/2000/svg" xmlns:xlink="http://www.w3.org/1999/xlink" version="1.1" width="24px" height="24px">
  <g transform="translate(4.0, 4.0) scale(1 1) "><sodipodi:namedview xmlns:sodipodi="http://sodipodi.sourceforge.net/DTD/sodipodi-0.dtd" xmlns:inkscape="http://www.inkscape.org/namespaces/inkscape" id="namedview13" pagecolor="#ffffff" bordercolor="#000000" borderopacity="0.25" inkscape:showpageshadow="2" inkscape:pageopacity="0.0" inkscape:pagecheckerboard="0" inkscape:deskcolor="#d1d1d1" showgrid="false" inkscape:zoom="65.8125" inkscape:cx="7.9924027" inkscape:cy="8.0151947" inkscape:current-layer="svg11"/>
  <defs id="defs3">
    <style id="current-color-scheme" type="text/css">
   .ColorScheme-Text { color:#dfdfdf; } .ColorScheme-Highlight { color:#4285f4; } .ColorScheme-NeutralText { color:#ff9800; } .ColorScheme-PositiveText { color:#4caf50; } .ColorScheme-NegativeText { color:#f44336; }
  </style>
  </defs>
  <path style="fill:#444444;fill-opacity:1" class="ColorScheme-Text" d="m 6.7492279,4.9988678 a 0.73085587,0.79027464 0 0 0 -0.748047,0.792969 v 4.4160142 a 0.73085587,0.79027464 0 0 0 1.095703,0.685547 L 10.635947,8.6844144 a 0.73085587,0.79027464 0 0 0 0,-1.369141 L 7.0968839,5.1043368 a 0.73085587,0.79027464 0 0 0 -0.347656,-0.105469 z" id="path5"/>
  <path style="opacity:0.3;fill:#444444;fill-opacity:1" class="ColorScheme-Text" d="m 8.0011809,-0.00113219 c -4.4064333,0 -7.99999995,3.59356659 -7.99999995,7.99999959 0,4.4064326 3.59356665,7.9999996 7.99999995,7.9999996 4.4064331,0 8.0000001,-3.593567 8.0000001,-7.9999996 0,-4.406433 -3.593567,-7.99999959 -8.0000001,-7.99999959 z m 0,1.99999999 c 3.3255531,0 6.0000001,2.6744469 6.0000001,5.9999996 0,3.3255526 -2.674447,5.9999996 -6.0000001,5.9999996 -3.325553,0 -5.9999999,-2.674447 -5.9999999,-5.9999996 0,-3.3255527 2.6744469,-5.9999996 5.9999999,-5.9999996 z" id="path7"/>
  <path style="fill:#444444;fill-opacity:1" class="ColorScheme-Text" d="M 8.0011809,-0.00113219 V 1.9988678 A 6,6 0 0 1 14.001181,7.9988674 6,6 0 0 1 8.0011809,13.998867 6,6 0 0 1 2.001181,7.9988674 6,6 0 0 1 2.298056,6.1453514 L 0.39180595,5.5262118 a 8,8 0 0 0 2.90625005,8.9453112 8,8 0 0 0 9.40625,0 8,8 0 0 0 2.90625,-8.9453112 8,8 0 0 0 -7.6093751,-5.52734399 z" id="path9"/>
</g>
</svg>
