<?xml version='1.0' encoding='ASCII' standalone='yes'?>
<svg xmlns="http://www.w3.org/2000/svg" xmlns:xlink="http://www.w3.org/1999/xlink" version="1.1" width="24px" height="24px">
  <g transform="translate(4.0, 4.0) scale(1 1) ">
    <sodipodi:namedview xmlns:sodipodi="http://sodipodi.sourceforge.net/DTD/sodipodi-0.dtd" xmlns:inkscape="http://www.inkscape.org/namespaces/inkscape" id="namedview11" pagecolor="#ffffff" bordercolor="#000000" borderopacity="0.25" inkscape:showpageshadow="2" inkscape:pageopacity="0.0" inkscape:pagecheckerboard="0" inkscape:deskcolor="#d1d1d1" showgrid="false" inkscape:zoom="16.453125" inkscape:cx="-9.2383666" inkscape:cy="16.805318" inkscape:current-layer="svg9"/>
    <defs id="defs3">
      <style id="current-color-scheme" type="text/css">
   .ColorScheme-Text { color:#dfdfdf; } .ColorScheme-Highlight { color:#4285f4; } .ColorScheme-NeutralText { color:#ff9800; } .ColorScheme-PositiveText { color:#4caf50; } .ColorScheme-NegativeText { color:#f44336; }
  </style>
      <style id="current-color-scheme-5" type="text/css">
   .ColorScheme-Text { color:#dfdfdf; } .ColorScheme-Highlight { color:#4285f4; } .ColorScheme-NeutralText { color:#ff9800; } .ColorScheme-PositiveText { color:#4caf50; } .ColorScheme-NegativeText { color:#f44336; }
  </style>
      <style id="current-color-scheme-6" type="text/css">
   .ColorScheme-Text { color:#dfdfdf; } .ColorScheme-Highlight { color:#4285f4; }
  </style>
      <style id="current-color-scheme-3" type="text/css">
   .ColorScheme-Text { color:#dfdfdf; } .ColorScheme-Highlight { color:#4285f4; } .ColorScheme-NeutralText { color:#ff9800; } .ColorScheme-PositiveText { color:#4caf50; } .ColorScheme-NegativeText { color:#f44336; }
  </style>
    </defs>
    <path style="fill:#444444;opacity:0.35;fill-opacity:1" class="ColorScheme-Text" d="M 2 2 C 0.892 2 0 2.892 0 4 L 0 12 C 0 13.108 0.892 14 2 14 L 10.265625 14 C 10.346176 13.855139 10.437229 13.715779 10.554688 13.591797 A 1.0001 1.0001 0 0 1 10.572266 13.572266 L 10.644531 13.5 L 10.572266 13.427734 C 10.182753 13.038221 10 12.518095 10 12 L 3 12 L 3 4 L 13 4 L 13 10.261719 C 13.152415 10.346135 13.299045 10.44358 13.427734 10.572266 A 1.0001 1.0001 0 0 1 13.431641 10.578125 L 13.5 10.646484 L 13.568359 10.578125 A 1.0001 1.0001 0 0 1 13.572266 10.572266 C 13.974873 10.169658 14.483086 10 15 10 L 16 10 L 16 4 C 16 2.892 15.108 2 14 2 L 2 2 z M 7 2.5 L 9 2.5 L 9 3 L 7 3 L 7 2.5 z" id="path5"/>
    <path d="m 15.166667,11 c 0.221354,0 0.432942,0.08789 0.589192,0.244141 0.325522,0.325521 0.325522,0.852864 0,1.178384 L 14.678386,13.5 l 1.077473,1.077474 c 0.325522,0.32552 0.325522,0.852865 0,1.178385 -0.32552,0.325521 -0.852863,0.325521 -1.178384,0 l -1.077474,-1.077474 -1.077475,1.077474 c -0.325521,0.325521 -0.852864,0.325521 -1.178385,0 -0.32552,-0.32552 -0.32552,-0.852865 0,-1.178385 L 12.321615,13.5 11.244141,12.422525 c -0.32552,-0.32552 -0.32552,-0.852863 0,-1.178384 C 11.400391,11.087891 11.611979,11 11.833333,11 c 0.221355,0 0.432943,0.08789 0.589193,0.244141 l 1.077475,1.077473 1.077474,-1.077473 C 14.733725,11.087891 14.945313,11 15.166667,11 Z m 0,0" id="path4" style="fill:#444444;fill-opacity:1;stroke-width:0.833333"/>
  </g>
</svg>
