<?xml version='1.0' encoding='ASCII' standalone='yes'?>
<svg xmlns="http://www.w3.org/2000/svg" xmlns:xlink="http://www.w3.org/1999/xlink" version="1.1" width="24px" height="24px">
  <g transform="translate(4.0, 4.0) scale(1 1) "><sodipodi:namedview xmlns:sodipodi="http://sodipodi.sourceforge.net/DTD/sodipodi-0.dtd" xmlns:inkscape="http://www.inkscape.org/namespaces/inkscape" id="namedview9" pagecolor="#ffffff" bordercolor="#000000" borderopacity="0.25" inkscape:showpageshadow="2" inkscape:pageopacity="0.0" inkscape:pagecheckerboard="0" inkscape:deskcolor="#d1d1d1" showgrid="false" inkscape:zoom="65.8125" inkscape:cx="7.9924027" inkscape:cy="8.0151947" inkscape:current-layer="svg7"/>
  <defs id="defs3">
    <style id="current-color-scheme" type="text/css">
   .ColorScheme-Text { color:#dfdfdf; } .ColorScheme-Highlight { color:#4285f4; } .ColorScheme-NeutralText { color:#ff9800; } .ColorScheme-PositiveText { color:#4caf50; } .ColorScheme-NegativeText { color:#f44336; }
  </style>
  </defs>
  <path style="fill:#444444;fill-opacity:1" class="ColorScheme-Text" d="M 3.2382812 1 C 2.5592941 0.98377297 2.000341 1.5506607 2 2.2558594 L 2 13.744141 C 2.0009351 14.710449 3.0079696 15.314236 3.8144531 14.832031 L 13.394531 9.0878906 C 14.200261 8.6038956 14.200261 7.3961044 13.394531 6.9121094 L 3.8144531 1.1699219 C 3.6391382 1.064057 3.4410155 1.0056275 3.2382812 1 z M 5 5.3769531 L 9.375 8 L 5 10.623047 L 5 5.3769531 z M 10.494141 11.994141 A 0.50005 0.50005 0 0 0 10.146484 12.853516 L 11.292969 14 L 10.146484 15.146484 A 0.50005 0.50005 0 1 0 10.853516 15.853516 L 12 14.707031 L 13.146484 15.853516 A 0.50005 0.50005 0 1 0 13.853516 15.146484 L 12.707031 14 L 13.853516 12.853516 A 0.50005 0.50005 0 0 0 13.490234 11.996094 A 0.50005 0.50005 0 0 0 13.146484 12.146484 L 12 13.292969 L 10.853516 12.146484 A 0.50005 0.50005 0 0 0 10.494141 11.994141 z" id="path5"/>
</g>
</svg>
