<?xml version='1.0' encoding='ASCII' standalone='yes'?>
<svg xmlns="http://www.w3.org/2000/svg" xmlns:xlink="http://www.w3.org/1999/xlink" version="1.1" width="24px" height="24px">
  <g transform="translate(4.0, 4.0) scale(1 1) ">
    <sodipodi:namedview xmlns:sodipodi="http://sodipodi.sourceforge.net/DTD/sodipodi-0.dtd" xmlns:inkscape="http://www.inkscape.org/namespaces/inkscape" id="namedview11" pagecolor="#ffffff" bordercolor="#000000" borderopacity="0.25" inkscape:showpageshadow="2" inkscape:pageopacity="0.0" inkscape:pagecheckerboard="0" inkscape:deskcolor="#d1d1d1" showgrid="false" inkscape:zoom="23.268233" inkscape:cx="-3.6960263" inkscape:cy="16.266813" inkscape:current-layer="svg9"/>
    <defs id="defs3">
      <style id="current-color-scheme" type="text/css">
   .ColorScheme-Text { color:#dfdfdf; } .ColorScheme-Highlight { color:#4285f4; } .ColorScheme-NeutralText { color:#ff9800; } .ColorScheme-PositiveText { color:#4caf50; } .ColorScheme-NegativeText { color:#f44336; }
  </style>
      <style id="current-color-scheme-5" type="text/css">
   .ColorScheme-Text { color:#dfdfdf; } .ColorScheme-Highlight { color:#4285f4; } .ColorScheme-NeutralText { color:#ff9800; } .ColorScheme-PositiveText { color:#4caf50; } .ColorScheme-NegativeText { color:#f44336; }
  </style>
      <style id="current-color-scheme-6" type="text/css">
   .ColorScheme-Text { color:#dfdfdf; } .ColorScheme-Highlight { color:#4285f4; }
  </style>
    </defs>
    <path style="fill:#444444;fill-opacity:1" class="ColorScheme-Text" d="M 2.0234375 0 C 1.4566955 0 1 0.4566955 1 1.0234375 L 1 13.976562 C 1 14.543306 1.4566955 15 2.0234375 15 L 13 15 L 13 6 L 10 6 L 10 12 L 7 12 L 7 6 L 4 6 L 4 3 L 13 3 L 13 6 L 16 6 L 16 1.0234375 C 16 0.4566955 15.543306 0 14.976562 0 L 2.0234375 0 z" id="path5"/>
    <g id="g311" transform="translate(6.999906,3)" style="fill:#f44336;fill-opacity:1">
      <path style="fill:#f44336;fill-opacity:1" d="M 8,11" id="path293"/>
      <path style="fill:#f44336;fill-opacity:1" d="m 8,11 c 0.550781,0 1,0.449219 1,1 0,0.550781 -0.449219,1 -1,1 -0.550781,0 -1,-0.449219 -1,-1 0,-0.550781 0.449219,-1 1,-1 z" id="path291"/>
      <path style="fill:#f44336;fill-opacity:1" d="M 9,4 V 9 C 9.007812,9.527344 8.527344,10 8,10 7.472656,10 6.992188,9.527344 7,9 V 4 Z" id="path289"/>
    </g>
  </g>
</svg>
