<?xml version='1.0' encoding='ASCII' standalone='yes'?>
<svg xmlns="http://www.w3.org/2000/svg" xmlns:xlink="http://www.w3.org/1999/xlink" version="1.1" width="24px" height="24px">
  <g transform="translate(4.0, 4.0) scale(1 1) ">
    <sodipodi:namedview xmlns:sodipodi="http://sodipodi.sourceforge.net/DTD/sodipodi-0.dtd" xmlns:inkscape="http://www.inkscape.org/namespaces/inkscape" id="namedview11" pagecolor="#ffffff" bordercolor="#000000" borderopacity="0.25" inkscape:showpageshadow="2" inkscape:pageopacity="0.0" inkscape:pagecheckerboard="0" inkscape:deskcolor="#d1d1d1" showgrid="false" inkscape:zoom="32.90625" inkscape:cx="3.6467236" inkscape:cy="14.541311" inkscape:current-layer="svg9"/>
    <defs id="defs3">
      <style id="current-color-scheme" type="text/css">
   .ColorScheme-Text { color:#dfdfdf; } .ColorScheme-Highlight { color:#4285f4; } .ColorScheme-NeutralText { color:#ff9800; } .ColorScheme-PositiveText { color:#4caf50; } .ColorScheme-NegativeText { color:#f44336; }
  </style>
      <style id="current-color-scheme-53" type="text/css">
   .ColorScheme-Text { color:#dfdfdf; } .ColorScheme-Highlight { color:#4285f4; } .ColorScheme-NeutralText { color:#ff9800; } .ColorScheme-PositiveText { color:#4caf50; } .ColorScheme-NegativeText { color:#f44336; }
  </style>
      <style id="current-color-scheme-5" type="text/css">
   .ColorScheme-Text { color:#dfdfdf; } .ColorScheme-Highlight { color:#4285f4; } .ColorScheme-NeutralText { color:#ff9800; } .ColorScheme-PositiveText { color:#4caf50; } .ColorScheme-NegativeText { color:#f44336; }
  </style>
      <style id="current-color-scheme-6" type="text/css">
   .ColorScheme-Text { color:#dfdfdf; } .ColorScheme-Highlight { color:#4285f4; }
  </style>
      <style id="current-color-scheme-3" type="text/css">
   .ColorScheme-Text { color:#dfdfdf; } .ColorScheme-Highlight { color:#4285f4; } .ColorScheme-NeutralText { color:#ff9800; } .ColorScheme-PositiveText { color:#4caf50; } .ColorScheme-NegativeText { color:#f44336; }
  </style>
    </defs>
    <path style="fill:#444444;opacity:0.3;fill-opacity:1" class="ColorScheme-Text" d="M 1.8007812,2 C 1.3575812,2 1,2.3575812 1,2.8007812 V 12.199219 C 1,12.642419 1.3575812,13 1.8007812,13 H 5 v 0.199219 C 5,13.642419 5.3575812,14 5.8007812,14 h 4.3984378 c 0.02135,0 0.04157,-0.0042 0.0625,-0.0059 0.08022,-0.143644 0.176391,-0.279292 0.292969,-0.402344 0.0058,-0.0066 0.01163,-0.0131 0.01758,-0.01953 L 10.644531,13.5 10.572266,13.427734 C 10.182753,13.038222 10,12.518095 10,12 V 11 H 3 V 4 h 10 v 6.251953 c 0.153952,0.08478 0.297893,0.190475 0.427734,0.320313 0.0013,0.0019 0.0026,0.0039 0.0039,0.0059 l 0.06836,0.06836 0.06836,-0.06836 c 0.0013,-0.002 0.0026,-0.0039 0.0039,-0.0059 C 13.974873,10.169658 14.483087,10 15,10 V 2.8007812 C 15,2.3575813 14.64242,2 14.199219,2 Z" id="path5"/>
    <path d="m 15.166667,11 c 0.221354,0 0.432942,0.08789 0.589192,0.244141 0.325522,0.325521 0.325522,0.852864 0,1.178384 L 14.678386,13.5 l 1.077473,1.077474 c 0.325522,0.32552 0.325522,0.852865 0,1.178385 -0.32552,0.325521 -0.852863,0.325521 -1.178384,0 l -1.077474,-1.077474 -1.077475,1.077474 c -0.325521,0.325521 -0.852864,0.325521 -1.178385,0 -0.32552,-0.32552 -0.32552,-0.852865 0,-1.178385 L 12.321615,13.5 11.244141,12.422525 c -0.32552,-0.32552 -0.32552,-0.852863 0,-1.178384 C 11.400391,11.087891 11.611979,11 11.833333,11 c 0.221355,0 0.432943,0.08789 0.589193,0.244141 l 1.077475,1.077473 1.077474,-1.077473 C 14.733725,11.087891 14.945313,11 15.166667,11 Z m 0,0" id="path4" style="fill:#444444;fill-opacity:1;stroke-width:0.833333"/>
  </g>
</svg>
