<?xml version="1.0" encoding="UTF-8" standalone="no"?>
<svg
   width="32"
   height="32"
   id="svg2"
   version="1.1"
   sodipodi:docname="application-x-core.svg"
   inkscape:version="1.2.1 (9c6d41e410, 2022-07-14)"
   xml:space="preserve"
   xmlns:inkscape="http://www.inkscape.org/namespaces/inkscape"
   xmlns:sodipodi="http://sodipodi.sourceforge.net/DTD/sodipodi-0.dtd"
   xmlns:xlink="http://www.w3.org/1999/xlink"
   xmlns="http://www.w3.org/2000/svg"
   xmlns:svg="http://www.w3.org/2000/svg"
   xmlns:rdf="http://www.w3.org/1999/02/22-rdf-syntax-ns#"
   xmlns:cc="http://creativecommons.org/ns#"
   xmlns:dc="http://purl.org/dc/elements/1.1/"><sodipodi:namedview
     pagecolor="#ffffff"
     bordercolor="#666666"
     borderopacity="1"
     objecttolerance="10"
     gridtolerance="10"
     guidetolerance="10"
     inkscape:pageopacity="0"
     inkscape:pageshadow="2"
     inkscape:window-width="1920"
     inkscape:window-height="1006"
     id="namedview47"
     showgrid="false"
     inkscape:zoom="5.2149125"
     inkscape:cx="89.167364"
     inkscape:cy="14.861227"
     inkscape:window-x="0"
     inkscape:window-y="1237"
     inkscape:window-maximized="1"
     inkscape:current-layer="svg2"
     inkscape:document-rotation="0"
     inkscape:showpageshadow="2"
     inkscape:pagecheckerboard="0"
     inkscape:deskcolor="#d1d1d1" /><defs
     id="defs4"><inkscape:path-effect
   effect="fillet_chamfer"
   id="path-effect873"
   is_visible="true"
   lpeversion="1"
   satellites_param="F,0,0,1,0,2,0,10 @ F,0,0,1,0,2,0,10 @ F,0,0,1,0,2,0,10 @ F,0,0,1,0,2,0,10"
   unit="px"
   method="auto"
   mode="F"
   radius="2"
   chamfer_steps="10"
   flexible="false"
   use_knot_distance="true"
   apply_no_radius="true"
   apply_with_radius="true"
   only_selected="false"
   hide_knots="false"
   nodesatellites_param="F,0,0,1,0,2,0,10 @ F,0,0,1,0,2,0,10 @ F,0,0,1,0,2,0,10 @ F,0,0,1,0,2,0,10" /><inkscape:path-effect
   effect="fillet_chamfer"
   id="path-effect871"
   is_visible="true"
   lpeversion="1"
   satellites_param="F,0,0,1,0,2,0,10 @ F,0,0,1,0,2,0,10 @ F,0,0,1,0,2,0,10 @ F,0,0,1,0,2,0,10"
   unit="px"
   method="auto"
   mode="F"
   radius="2"
   chamfer_steps="10"
   flexible="false"
   use_knot_distance="true"
   apply_no_radius="true"
   apply_with_radius="true"
   only_selected="false"
   hide_knots="false"
   nodesatellites_param="F,0,0,1,0,2,0,10 @ F,0,0,1,0,2,0,10 @ F,0,0,1,0,2,0,10 @ F,0,0,1,0,2,0,10" /><linearGradient
   id="linearGradient902"><stop
     id="stop898"
     offset="0"
     style="stop-color:#770087;stop-opacity:1;" /><stop
     id="stop900"
     offset="1"
     style="stop-color:#452981;stop-opacity:1" /></linearGradient><linearGradient
   id="linearGradient899"><stop
     id="stop895"
     style="stop-color:#f282f1;stop-opacity:1"
     offset="0" /><stop
     id="stop897"
     style="stop-color:#a56de2;stop-opacity:1"
     offset="1" /></linearGradient><linearGradient
   id="linearGradient916"><stop
     id="stop912"
     style="stop-color:#ffffff;stop-opacity:1"
     offset="0" /><stop
     id="stop914"
     style="stop-color:#fafafa;stop-opacity:1"
     offset="1" /></linearGradient><linearGradient
   id="linearGradient3688-166-749-654"><stop
     id="stop3088"
     style="stop-color:#181818;stop-opacity:1"
     offset="0" /><stop
     id="stop3090"
     style="stop-color:#181818;stop-opacity:0"
     offset="1" /></linearGradient><linearGradient
   id="linearGradient3688-464-309-604"><stop
     id="stop3094"
     style="stop-color:#181818;stop-opacity:1"
     offset="0" /><stop
     id="stop3096"
     style="stop-color:#181818;stop-opacity:0"
     offset="1" /></linearGradient><linearGradient
   id="linearGradient3702-501-757-795"><stop
     id="stop3100"
     style="stop-color:#181818;stop-opacity:0"
     offset="0" /><stop
     id="stop3102"
     style="stop-color:#181818;stop-opacity:1"
     offset="0.5" /><stop
     id="stop3104"
     style="stop-color:#181818;stop-opacity:0"
     offset="1" /></linearGradient><radialGradient
   xlink:href="#linearGradient3688-166-749-654"
   id="radialGradient4730"
   gradientUnits="userSpaceOnUse"
   gradientTransform="matrix(3.2060542,2.6349059e-7,-8.2185947e-8,1.0000077,36.981009,15.99962)"
   cx="4.9964824"
   cy="43.5"
   fx="4.9964824"
   fy="43.5"
   r="2.5" /><radialGradient
   xlink:href="#linearGradient3688-464-309-604"
   id="radialGradient4732"
   gradientUnits="userSpaceOnUse"
   gradientTransform="matrix(3.163875,0,0,0.99999995,-29.702994,-103.00012)"
   cx="4.9929786"
   cy="43.5"
   fx="4.9929786"
   fy="43.5"
   r="2.5" /><linearGradient
   xlink:href="#linearGradient3702-501-757-795"
   id="linearGradient4734"
   gradientUnits="userSpaceOnUse"
   gradientTransform="matrix(1.3928572,0,0,0.71428561,-0.0214163,28.42862)"
   x1="25.058096"
   y1="47.027729"
   x2="25.058096"
   y2="39.999443" /><linearGradient
   gradientTransform="matrix(1.4324324,0,0,1.4362832,-7.3783796,-7.3995521)"
   gradientUnits="userSpaceOnUse"
   xlink:href="#linearGradient3924-2-2-5-8"
   id="linearGradient3381-5-4"
   y2="46.230125"
   x2="38.660378"
   y1="5.8481169"
   x1="38.660378" /><linearGradient
   id="linearGradient3924-2-2-5-8"><stop
     offset="0"
     style="stop-color:#ffffff;stop-opacity:1"
     id="stop3926-9-4-9-6" /><stop
     offset="0.06316455"
     style="stop-color:#ffffff;stop-opacity:0.23529412"
     id="stop3928-9-8-6-5" /><stop
     offset="0.95056331"
     style="stop-color:#ffffff;stop-opacity:0.15686275"
     id="stop3930-3-5-1-7" /><stop
     offset="1"
     style="stop-color:#ffffff;stop-opacity:0.39215687"
     id="stop3932-8-0-4-8" /></linearGradient><linearGradient
   gradientTransform="matrix(0.47054764,0,0,0.47457626,-60.688645,-0.1484071)"
   gradientUnits="userSpaceOnUse"
   xlink:href="#linearGradient916"
   id="linearGradient5809"
   y2="55.027"
   x2="161.97743"
   y1="10.027002"
   x1="161.97743" /><linearGradient
   y2="63.027"
   x2="161.97743"
   y1="5.1520023"
   x1="161.97743"
   gradientTransform="matrix(0.4705882,0,0,0.47457626,-60.695255,-0.1484071)"
   gradientUnits="userSpaceOnUse"
   id="linearGradient910"
   xlink:href="#linearGradient899" /><linearGradient
   gradientUnits="userSpaceOnUse"
   y2="60"
   x2="32"
   y1="0"
   x1="32"
   id="linearGradient904"
   xlink:href="#linearGradient902" /><linearGradient
   y2="63.027"
   x2="161.97743"
   y1="5.1520023"
   x1="161.97743"
   gradientTransform="matrix(0.94117646,0,0,0.94915254,-73.044014,10.801587)"
   gradientUnits="userSpaceOnUse"
   id="linearGradient910-3"
   xlink:href="#linearGradient899" /><linearGradient
   y2="63.027"
   x2="161.97743"
   y1="5.1520023"
   x1="161.97743"
   gradientTransform="matrix(0.47054764,0,0,0.47457626,-76.305129,-44.360347)"
   gradientUnits="userSpaceOnUse"
   id="linearGradient910-5"
   xlink:href="#linearGradient899" /><filter
   inkscape:collect="always"
   style="color-interpolation-filters:sRGB"
   id="filter1218"
   x="-0.00052002417"
   width="1.00104"
   y="-0.00044569657"
   height="1.0008914"><feGaussianBlur
     inkscape:collect="always"
     stdDeviation="0.0051997931"
     id="feGaussianBlur1220" /></filter>
	
<inkscape:path-effect
   effect="fillet_chamfer"
   id="path-effect872"
   is_visible="true"
   lpeversion="1"
   satellites_param="F,0,0,1,0,2,0,10 @ F,0,0,1,0,2,0,10 @ F,0,0,1,0,2,0,10 @ F,0,0,1,0,2,0,10"
   unit="px"
   method="auto"
   mode="F"
   radius="2"
   chamfer_steps="10"
   flexible="false"
   use_knot_distance="true"
   apply_no_radius="true"
   apply_with_radius="true"
   only_selected="false"
   hide_knots="false"
   nodesatellites_param="F,0,0,1,0,2,0,10 @ F,0,0,1,0,2,0,10 @ F,0,0,1,0,2,0,10 @ F,0,0,1,0,2,0,10" /><inkscape:path-effect
   effect="fillet_chamfer"
   id="path-effect870"
   is_visible="true"
   lpeversion="1"
   satellites_param="F,0,0,1,0,2,0,10 @ F,0,0,1,0,2,0,10 @ F,0,0,1,0,2,0,10 @ F,0,0,1,0,2,0,10"
   unit="px"
   method="auto"
   mode="F"
   radius="2"
   chamfer_steps="10"
   flexible="false"
   use_knot_distance="true"
   apply_no_radius="true"
   apply_with_radius="true"
   only_selected="false"
   hide_knots="false"
   nodesatellites_param="F,0,0,1,0,2,0,10 @ F,0,0,1,0,2,0,10 @ F,0,0,1,0,2,0,10 @ F,0,0,1,0,2,0,10" /><radialGradient
   r="2.5"
   fy="43.5"
   fx="4.9964824"
   cy="43.5"
   cx="4.9964824"
   gradientTransform="matrix(3.2060542,2.6349059e-7,-8.2185947e-8,1.0000077,36.981009,15.99962)"
   gradientUnits="userSpaceOnUse"
   id="radialGradient4730-0"
   xlink:href="#linearGradient3688-166-749-654" /><radialGradient
   r="2.5"
   fy="43.5"
   fx="4.9929786"
   cy="43.5"
   cx="4.9929786"
   gradientTransform="matrix(3.163875,0,0,0.99999995,-29.702994,-103.00012)"
   gradientUnits="userSpaceOnUse"
   id="radialGradient4732-6"
   xlink:href="#linearGradient3688-166-749-654" /><inkscape:path-effect
   effect="fillet_chamfer"
   id="path-effect870-5"
   is_visible="true"
   lpeversion="1"
   satellites_param="F,0,0,1,0,2,0,10 @ F,0,0,1,0,2,0,10 @ F,0,0,1,0,2,0,10 @ F,0,0,1,0,2,0,10"
   unit="px"
   method="auto"
   mode="F"
   radius="2"
   chamfer_steps="10"
   flexible="false"
   use_knot_distance="true"
   apply_no_radius="true"
   apply_with_radius="true"
   only_selected="false"
   hide_knots="false"
   nodesatellites_param="F,0,0,1,0,2,0,10 @ F,0,0,1,0,2,0,10 @ F,0,0,1,0,2,0,10 @ F,0,0,1,0,2,0,10" /><inkscape:path-effect
   effect="fillet_chamfer"
   id="path-effect868"
   is_visible="true"
   lpeversion="1"
   satellites_param="F,0,0,1,0,2,0,10 @ F,0,0,1,0,2,0,10 @ F,0,0,1,0,2,0,10 @ F,0,0,1,0,2,0,10"
   unit="px"
   method="auto"
   mode="F"
   radius="2"
   chamfer_steps="10"
   flexible="false"
   use_knot_distance="true"
   apply_no_radius="true"
   apply_with_radius="true"
   only_selected="false"
   hide_knots="false"
   nodesatellites_param="F,0,0,1,0,2,0,10 @ F,0,0,1,0,2,0,10 @ F,0,0,1,0,2,0,10 @ F,0,0,1,0,2,0,10" /><radialGradient
   r="2.5"
   fy="43.5"
   fx="4.9964824"
   cy="43.5"
   cx="4.9964824"
   gradientTransform="matrix(3.2060542,2.6349059e-7,-8.2185947e-8,1.0000077,36.981009,15.99962)"
   gradientUnits="userSpaceOnUse"
   id="radialGradient4730-6"
   xlink:href="#linearGradient3688-166-749-654" /><radialGradient
   r="2.5"
   fy="43.5"
   fx="4.9929786"
   cy="43.5"
   cx="4.9929786"
   gradientTransform="matrix(3.163875,0,0,0.99999995,-29.702994,-103.00012)"
   gradientUnits="userSpaceOnUse"
   id="radialGradient4732-2"
   xlink:href="#linearGradient3688-166-749-654" /></defs><metadata
     id="metadata7"><rdf:RDF><cc:Work
         rdf:about=""><dc:format>image/svg+xml</dc:format><dc:type
           rdf:resource="http://purl.org/dc/dcmitype/StillImage" /></cc:Work></rdf:RDF></metadata><path
     width="23.997931"
     height="28"
     rx="0"
     ry="0"
     x="4.0010357"
     y="2.7520487"
     id="rect4897-1"
     style="opacity:0.2;vector-effect:none;fill:#000000;fill-opacity:1;stroke:none;stroke-width:0.472558;stroke-linecap:butt;stroke-linejoin:miter;stroke-miterlimit:4;stroke-dasharray:none;stroke-dashoffset:0;stroke-opacity:1;filter:url(#filter1218)"
     inkscape:path-effect="#path-effect873"
     d="M 6.0010357,2.7520487 H 25.998966 a 2,2 45 0 1 2,2 V 28.752049 a 2,2 135 0 1 -2,2 H 6.0010357 a 2,2 45 0 1 -2,-2 V 4.7520487 a 2,2 135 0 1 2,-2 z"
     sodipodi:type="rect" /><path
     width="24"
     height="28"
     rx="0"
     ry="0"
     x="4"
     y="2"
     id="rect4897"
     style="opacity:1;vector-effect:none;fill:#eeeeee;fill-opacity:1;stroke:none;stroke-width:0.472578;stroke-linecap:butt;stroke-linejoin:miter;stroke-miterlimit:4;stroke-dasharray:none;stroke-dashoffset:0;stroke-opacity:1"
     inkscape:path-effect="#path-effect871"
     d="m 6,2 h 20 a 2,2 45 0 1 2,2 v 24 a 2,2 135 0 1 -2,2 H 6 A 2,2 45 0 1 4,28 V 4 A 2,2 135 0 1 6,2 Z"
     sodipodi:type="rect" /><g
     aria-label="Aa"
     id="text1723"
     style="font-style:normal;font-weight:normal;font-size:40px;line-height:1.25;font-family:sans-serif;fill:#000000;fill-opacity:1;stroke:none;opacity:0"
     transform="matrix(0.33382233,0,0,0.33382233,8.4975343,24.197799)"><path
       d="M 11.868958,-20.670654 6.517396,-6.1589355 h 10.722656 z m -2.226562,-3.886719 h 4.472656 L 25.228333,4.6027832 h -4.101562 l -2.65625,-7.4804687 H 5.3259897 l -2.65625,7.4804687 h -4.1601562 z"
       id="path1725" /><path
       d="m 39.271302,-6.3933105 q -4.355469,0 -6.035156,0.9960937 -1.679688,0.9960938 -1.679688,3.3984375 0,1.9140625 1.25,3.046875 1.269532,1.1132813 3.4375,1.1132813 2.988282,0 4.785157,-2.10937505 1.816406,-2.12890625 1.816406,-5.64453125 v -0.8007812 z m 7.167969,-1.484375 V 4.6027832 h -3.59375 V 1.2824707 q -1.230469,1.9921875 -3.066406,2.9492188 -1.835938,0.9375 -4.492188,0.9375 -3.359375,0 -5.351562,-1.875 -1.972657,-1.8945313 -1.972657,-5.0585938 0,-3.6914062 2.460938,-5.5664062 2.480469,-1.875 7.382812,-1.875 h 5.039063 V -9.557373 q 0,-2.480469 -1.640625,-3.828125 -1.621094,-1.367188 -4.570313,-1.367188 -1.875,0 -3.652343,0.449219 -1.777344,0.449219 -3.417969,1.347656 v -3.320312 q 1.972656,-0.761719 3.828125,-1.132813 1.855469,-0.390625 3.613281,-0.390625 4.746094,0 7.089844,2.460938 2.34375,2.460937 2.34375,7.4609375 z"
       id="path1727" /></g><path
     style="fill:#646464;fill-opacity:1;stroke-width:0.0346372"
     d="m 19.966941,15.685027 0.794266,-0.794266 -0.673555,-0.673556 c 0.355897,-0.362721 1.162563,-1.305996 0.836212,-2.122777 -0.322403,-0.806458 -1.586662,-1.181371 -3.855331,-1.143963 0.03058,-0.07212 0.07069,-0.141146 0.121127,-0.204602 l 0.302556,-0.382152 -0.484852,0.04815 C 16.741178,10.43832 16.483026,10.347986 16.299102,10.164062 16.115352,9.9803119 16.024845,9.7221955 16.0511,9.4561816 l 0.03349,-0.3389597 -0.316203,0.1267029 c -0.241803,0.097123 -0.514813,0.079146 -0.748787,-0.049601 l -0.368332,-0.2024892 0.0647,0.4154041 c 0.04402,0.2823279 -0.04507,0.5582479 -0.243673,0.7568583 -0.114718,0.114718 -0.261857,0.195111 -0.425968,0.232519 l -0.442698,0.101072 0.366843,0.267641 c 0.03658,0.02667 0.07377,0.05293 0.106855,0.08597 0.188496,0.188496 0.278379,0.452223 0.246548,0.723779 l -0.03058,0.259779 0.259779,-0.03038 c 0.405706,-0.04773 0.795686,0.180425 0.93233,0.593371 l 0.110354,0.335426 0.414192,-0.453228 c 0.236434,-0.236433 0.558629,-0.359395 0.862467,-0.329226 l 0.359811,0.03574 -0.151919,-0.328188 c -0.04361,-0.09466 -0.06758,-0.193865 -0.07607,-0.293689 2.739076,-0.05393 3.392369,0.526 3.535594,0.88311 0.217002,0.542523 -0.372627,1.301009 -0.743626,1.678416 l -0.825267,-0.825267 -0.833509,0.833511 c -1.873112,-1.020759 -4.205443,-0.690286 -5.724701,0.828972 -1.88364,1.883642 -1.88364,4.948654 0,6.832087 1.883641,1.883434 4.948654,1.883641 6.832087,0 1.567023,-1.567403 1.858633,-4.027061 0.722117,-5.910493 z"
     id="path277" /><g
     id="g281"
     transform="matrix(0.04156469,0,0,0.04156469,-34.825097,6.4821375)">
</g><g
     id="g283"
     transform="matrix(0.04156469,0,0,0.04156469,-34.825097,6.4821375)">
</g><g
     id="g285"
     transform="matrix(0.04156469,0,0,0.04156469,-34.825097,6.4821375)">
</g><g
     id="g287"
     transform="matrix(0.04156469,0,0,0.04156469,-34.825097,6.4821375)">
</g><g
     id="g289"
     transform="matrix(0.04156469,0,0,0.04156469,-34.825097,6.4821375)">
</g><g
     id="g291"
     transform="matrix(0.04156469,0,0,0.04156469,-34.825097,6.4821375)">
</g><g
     id="g293"
     transform="matrix(0.04156469,0,0,0.04156469,-34.825097,6.4821375)">
</g><g
     id="g295"
     transform="matrix(0.04156469,0,0,0.04156469,-34.825097,6.4821375)">
</g><g
     id="g297"
     transform="matrix(0.04156469,0,0,0.04156469,-34.825097,6.4821375)">
</g><g
     id="g299"
     transform="matrix(0.04156469,0,0,0.04156469,-34.825097,6.4821375)">
</g><g
     id="g301"
     transform="matrix(0.04156469,0,0,0.04156469,-34.825097,6.4821375)">
</g><g
     id="g303"
     transform="matrix(0.04156469,0,0,0.04156469,-34.825097,6.4821375)">
</g><g
     id="g305"
     transform="matrix(0.04156469,0,0,0.04156469,-34.825097,6.4821375)">
</g><g
     id="g307"
     transform="matrix(0.04156469,0,0,0.04156469,-34.825097,6.4821375)">
</g><g
     id="g309"
     transform="matrix(0.04156469,0,0,0.04156469,-34.825097,6.4821375)">
</g></svg>
