<?xml version="1.0" encoding="UTF-8" standalone="no"?>
<svg
   height="32"
   version="1"
   viewBox="0 0 32 32"
   width="32"
   id="svg97"
   sodipodi:docname="application-x-rpm2.svg"
   inkscape:version="1.2.1 (9c6d41e410, 2022-07-14)"
   xmlns:inkscape="http://www.inkscape.org/namespaces/inkscape"
   xmlns:sodipodi="http://sodipodi.sourceforge.net/DTD/sodipodi-0.dtd"
   xmlns:xlink="http://www.w3.org/1999/xlink"
   xmlns="http://www.w3.org/2000/svg"
   xmlns:svg="http://www.w3.org/2000/svg"
   xmlns:rdf="http://www.w3.org/1999/02/22-rdf-syntax-ns#"
   xmlns:cc="http://creativecommons.org/ns#"
   xmlns:dc="http://purl.org/dc/elements/1.1/">
  <metadata
     id="metadata101">
    <rdf:RDF>
      <cc:Work
         rdf:about="">
        <dc:format>image/svg+xml</dc:format>
        <dc:type
           rdf:resource="http://purl.org/dc/dcmitype/StillImage" />
        <dc:title>
        elementary Icon Template
    </dc:title>
      </cc:Work>
    </rdf:RDF>
  </metadata>
  <sodipodi:namedview
     pagecolor="#ffffff"
     bordercolor="#666666"
     borderopacity="1"
     objecttolerance="10"
     gridtolerance="10"
     guidetolerance="10"
     inkscape:pageopacity="0"
     inkscape:pageshadow="2"
     inkscape:window-width="1920"
     inkscape:window-height="1012"
     id="namedview99"
     showgrid="false"
     inkscape:zoom="19.666667"
     inkscape:cx="7.9322033"
     inkscape:cy="26.872881"
     inkscape:window-x="0"
     inkscape:window-y="32"
     inkscape:window-maximized="1"
     inkscape:current-layer="g95"
     inkscape:showpageshadow="2"
     inkscape:pagecheckerboard="0"
     inkscape:deskcolor="#d1d1d1" />
  <title
     id="title2">
        elementary Icon Template
    </title>
  <defs
     id="defs75">
    <linearGradient
       id="linearGradient4728">
      <stop
         id="stop4720"
         stop-color="#ee0000"
         offset="0"
         style="stop-color:#cd0000;stop-opacity:1;" />
      <stop
         id="stop4722"
         stop-color="#ee0000"
         offset="0.23060136"
         style="stop-color:#ce0000;stop-opacity:1;" />
      <stop
         id="stop4724"
         stop-color="#ee0000"
         offset="0.23060136"
         style="stop-color:#e20c0c;stop-opacity:1;" />
      <stop
         id="stop4726"
         stop-color="#ee0000"
         offset="1"
         style="stop-color:#e20c0c;stop-opacity:1;" />
    </linearGradient>
    <linearGradient
       id="f">
      <stop
         offset="0"
         stop-color="#ee0000"
         id="stop4" />
      <stop
         offset=".239"
         stop-color="#ee0000"
         id="stop6" />
      <stop
         offset=".276"
         stop-color="#ee0000"
         id="stop8" />
      <stop
         offset="1"
         stop-color="#ee0000"
         id="stop10" />
    </linearGradient>
    <linearGradient
       id="g">
      <stop
         offset="0"
         id="stop13" />
      <stop
         offset="1"
         stop-opacity="0"
         id="stop15" />
    </linearGradient>
    <linearGradient
       id="a">
      <stop
         offset="0"
         stop-color="#fff"
         id="stop18" />
      <stop
         offset=".084"
         stop-color="#fff"
         stop-opacity=".235"
         id="stop20" />
      <stop
         offset=".951"
         stop-color="#fff"
         stop-opacity=".157"
         id="stop22" />
      <stop
         offset="1"
         stop-color="#fff"
         stop-opacity=".392"
         id="stop24" />
    </linearGradient>
    <linearGradient
       id="b">
      <stop
         offset="0"
         stop-color="#fff"
         id="stop27" />
      <stop
         offset=".036"
         stop-color="#fff"
         stop-opacity=".235"
         id="stop29" />
      <stop
         offset=".951"
         stop-color="#fff"
         stop-opacity=".157"
         id="stop31" />
      <stop
         offset="1"
         stop-color="#fff"
         stop-opacity=".392"
         id="stop33" />
    </linearGradient>
    <linearGradient
       id="c">
      <stop
         offset="0"
         stop-color="#fff"
         id="stop36" />
      <stop
         offset=".302"
         stop-color="#fff"
         id="stop38" />
      <stop
         offset="0.36044097"
         stop-color="#fff"
         stop-opacity=".643"
         id="stop40" />
      <stop
         offset="1"
         stop-color="#fff"
         stop-opacity=".391"
         id="stop42" />
    </linearGradient>
    <linearGradient
       id="e">
      <stop
         offset="0"
         stop-color="#ee0000"
         id="stop45" />
      <stop
         offset="0.23060136"
         stop-color="#ee0000"
         id="stop47" />
      <stop
         offset="0.23060136"
         stop-color="#ee0000"
         id="stop49" />
      <stop
         offset="1"
         stop-color="#ee0000"
         id="stop51" />
    </linearGradient>
    <linearGradient
       id="h">
      <stop
         offset="0"
         stop-opacity="0"
         id="stop54" />
      <stop
         offset=".5"
         id="stop56" />
      <stop
         offset="1"
         stop-opacity="0"
         id="stop58" />
    </linearGradient>
    <linearGradient
       id="d">
      <stop
         offset="0"
         stop-color="#fff"
         stop-opacity="0"
         id="stop61" />
      <stop
         offset="1"
         stop-color="#fff"
         stop-opacity="0"
         id="stop63" />
    </linearGradient>
    <linearGradient
       gradientTransform="matrix(1.05405,0,0,0.21622,126.703,171.31)"
       gradientUnits="userSpaceOnUse"
       xlink:href="#a"
       id="p"
       x1="24"
       x2="24"
       y1="7.3470001"
       y2="43" />
    <linearGradient
       gradientTransform="matrix(1.05405,0,0,0.7027,126.703,176.635)"
       gradientUnits="userSpaceOnUse"
       xlink:href="#b"
       id="o"
       x1="24"
       x2="24"
       y1="5.5640001"
       y2="43" />
    <linearGradient
       gradientTransform="matrix(0.69999995,0,0,0.8245227,127.2,175.41605)"
       gradientUnits="userSpaceOnUse"
       xlink:href="#c"
       id="n"
       x1="26"
       x2="26"
       y1="22"
       y2="8" />
    <linearGradient
       gradientTransform="matrix(1.28223,0,0,1.17469,121.93,157.697)"
       gradientUnits="userSpaceOnUse"
       xlink:href="#d"
       id="m"
       x1="23.452"
       x2="43.007"
       y1="30.555"
       y2="45.933998" />
    <linearGradient
       gradientTransform="matrix(0.87553362,0,0,1.1237434,123.41672,165.8253)"
       gradientUnits="userSpaceOnUse"
       xlink:href="#linearGradient4728"
       id="l"
       x1="23.359486"
       x2="23.370872"
       y1="15.933548"
       y2="38.453457" />
    <linearGradient
       gradientTransform="translate(128,163)"
       gradientUnits="userSpaceOnUse"
       xlink:href="#f"
       id="q"
       x1="15.464"
       x2="15.464"
       y1="7.9759998"
       y2="45.042" />
    <radialGradient
       cx="5"
       cy="41.5"
       fx="5"
       fy="41.5"
       gradientTransform="matrix(0.4012,0,0,1.2,169.994,-254.8)"
       gradientUnits="userSpaceOnUse"
       xlink:href="#g"
       id="k"
       r="5" />
    <linearGradient
       gradientTransform="matrix(1.74414,0,0,1.0909,111.07,160.818)"
       gradientUnits="userSpaceOnUse"
       xlink:href="#h"
       id="j"
       x1="17.554001"
       x2="17.554001"
       y1="46"
       y2="35" />
    <radialGradient
       cx="5"
       cy="41.5"
       fx="5"
       fy="41.5"
       gradientTransform="matrix(0.4012,0,0,1.2,-134.006,-254.8)"
       gradientUnits="userSpaceOnUse"
       xlink:href="#g"
       id="i"
       r="5" />
    <linearGradient
       gradientTransform="matrix(1.2507624,0,0,1.555952,75.583213,130.05387)"
       gradientUnits="userSpaceOnUse"
       xlink:href="#e"
       id="l-7"
       x1="23.359486"
       x2="23.370872"
       y1="15.933548"
       y2="38.453457" />
  </defs>
  <g
     transform="translate(-128,-179)"
     id="g95">
    <path
       d="m 133.76452,183.0197 h 20.14185 c 1.17582,0 1.705,-0.2071 2.043,0.72162 l 2.04983,5.77292 V 208.041 c 0,1.12067 0.0703,0.94965 -1.10617,0.94965 H 131.1063 c -1.17582,0 -1.10549,0.17102 -1.10549,-0.94965 v -18.52676 l 2.04983,-5.77292 c 0.32775,-0.90924 0.53874,-0.72162 1.71388,-0.72162 z"
       display="block"
       overflow="visible"
       style="display:block;overflow:visible;opacity:0.2;fill:#000000;fill-opacity:1;stroke-width:0.70195049;marker:none"
       id="path83-5"
       inkscape:connector-curvature="0" />
    <path
       d="m 133.71367,182.99256 h 20.14185 c 1.17582,0 1.70501,-0.20711 2.043,0.72161 l 2.04983,5.77292 v 18.52677 c 0,1.12066 0.0703,0.94964 -1.10617,0.94964 h -25.78674 c -1.17581,0 -1.10548,0.17102 -1.10548,-0.94964 v -18.52677 l 2.04983,-5.77292 c 0.32775,-0.90924 0.53874,-0.72161 1.71388,-0.72161 z"
       display="block"
       overflow="visible"
       style="display:block;overflow:visible;fill:url(#l);stroke-width:0.70195;marker:none"
       id="path83"
       inkscape:connector-curvature="0" />
    <g
       transform="matrix(0.0570602,0,0,0.05778755,135.06306,194.10749)"
       id="g910"
       style="stroke-width:0.855192">
      <path
         style="fill:#d1d1d1;fill-opacity:1;stroke-width:0.855192"
         inkscape:connector-curvature="0"
         class="hat"
         d="m 230.2,110.6 c 0.1,-1.6 -0.1,-3.1 -0.4,-4.5 L 220.2,64.6 C 218,55.4 216,51.3 200.1,43.2 187.6,36.9 160.5,26.4 152.5,26.4 c -7.5,0 -9.6,9.5 -18.6,9.5 -9,0 -14.9,-7 -23.1,-7 -8.1,0 -12.7,5.2 -16.5,15.9 0,0 -10.8,30.4 -12.2,34.9 -0.2,0.8 -0.3,1.6 -0.3,2.5 0,11.8 45.8,50.7 109,50.7 16,0 39.4,-3.2 39.4,-22.3 z m 2.4,7.5 a 72,72 0 0 1 2.2,13 c 0,18 -20.2,28 -46.8,28 -60,0 -112.4,-35.1 -112.4,-58.4 0,-3.3 0.7,-6.5 2,-9.6 C 56.2,92.5 28,96.5 28,121 c 0,40.4 95.6,90.2 171.5,90.2 58,0 72.7,-26.3 72.7,-47.1 0,-16.3 -14,-34.8 -39.5,-45.9"
         id="path893" />
      <path
         style="fill:#000000;stroke-width:0.855192"
         inkscape:connector-curvature="0"
         class="band"
         d="m 232.7,118.2 c 1.2,4.3 1.9,8.6 2.2,13 0,18 -20.2,28 -46.8,28 -60,0 -112.5,-35.1 -112.5,-58.4 0,-3.3 0.6,-6.5 2,-9.6 l 4.6,-11.4 -0.3,2.4 c 0,11.9 46.6,50.7 109,50.7 15.9,0 39.3,-4.1 39.3,-22.3 0,-1.6 -0.1,-3.1 -0.4,-4.5 z"
         id="path895" />
    </g>
    <path
       d="m 142.6,182.01224 h 2.8 v 11.54331 c -0.2758,0 -0.5509,-0.63571 -0.8267,-0.63571 -0.2821,0 -0.5642,0.63571 -0.847,0.63571 -0.2268,0 -0.4543,-0.55655 -0.6811,-0.55655 -0.1484,0 -0.2968,0.55655 -0.4452,0.55655 z"
       overflow="visible"
       style="overflow:visible;opacity:0.3;fill:url(#n);stroke-width:0.75971431;marker:none"
       id="path87"
       inkscape:connector-curvature="0" />
  </g>
</svg>
