<?xml version="1.0" encoding="UTF-8" standalone="no"?>
<svg
   height="32"
   version="1"
   viewBox="0 0 32 32"
   width="32"
   id="svg97"
   sodipodi:docname="application-vnd.debian.binary-package.svg"
   inkscape:version="1.2.1 (9c6d41e410, 2022-07-14)"
   xml:space="preserve"
   xmlns:inkscape="http://www.inkscape.org/namespaces/inkscape"
   xmlns:sodipodi="http://sodipodi.sourceforge.net/DTD/sodipodi-0.dtd"
   xmlns:xlink="http://www.w3.org/1999/xlink"
   xmlns="http://www.w3.org/2000/svg"
   xmlns:svg="http://www.w3.org/2000/svg"
   xmlns:rdf="http://www.w3.org/1999/02/22-rdf-syntax-ns#"
   xmlns:cc="http://creativecommons.org/ns#"
   xmlns:dc="http://purl.org/dc/elements/1.1/"><metadata
     id="metadata101"><rdf:RDF><cc:Work
         rdf:about=""><dc:format>image/svg+xml</dc:format><dc:type
           rdf:resource="http://purl.org/dc/dcmitype/StillImage" /><dc:title>
        elementary Icon Template
    </dc:title></cc:Work></rdf:RDF></metadata><sodipodi:namedview
     pagecolor="#ffffff"
     bordercolor="#666666"
     borderopacity="1"
     objecttolerance="10"
     gridtolerance="10"
     guidetolerance="10"
     inkscape:pageopacity="0"
     inkscape:pageshadow="2"
     inkscape:window-width="1920"
     inkscape:window-height="1002"
     id="namedview99"
     showgrid="false"
     inkscape:zoom="9.8333335"
     inkscape:cx="-22.067796"
     inkscape:cy="27.508474"
     inkscape:window-x="0"
     inkscape:window-y="0"
     inkscape:window-maximized="1"
     inkscape:current-layer="g95"
     inkscape:pagecheckerboard="0"
     inkscape:showpageshadow="2"
     inkscape:deskcolor="#d1d1d1" /><title
     id="title2">
        elementary Icon Template
    </title><defs
     id="defs75"><linearGradient
       id="linearGradient4728"><stop
         id="stop4720"
         stop-color="#dac196"
         offset="0"
         style="stop-color:#c7ae8e;stop-opacity:1" /><stop
         id="stop4722"
         stop-color="#c7ae8e"
         offset="0.23060136" /><stop
         id="stop4724"
         stop-color="#dac197"
         offset="0.23060136" /><stop
         id="stop4726"
         stop-color="#b19974"
         offset="1"
         style="stop-color:#dac197;stop-opacity:1" /></linearGradient><linearGradient
       id="f"><stop
         offset="0"
         stop-color="#997543"
         id="stop4" /><stop
         offset=".239"
         stop-color="#715d43"
         id="stop6" /><stop
         offset=".276"
         stop-color="#7b6241"
         id="stop8" /><stop
         offset="1"
         stop-color="#604c31"
         id="stop10" /></linearGradient><linearGradient
       id="g"><stop
         offset="0"
         id="stop13" /><stop
         offset="1"
         stop-opacity="0"
         id="stop15" /></linearGradient><linearGradient
       id="a"><stop
         offset="0"
         stop-color="#fff"
         id="stop18" /><stop
         offset=".084"
         stop-color="#fff"
         stop-opacity=".235"
         id="stop20" /><stop
         offset=".951"
         stop-color="#fff"
         stop-opacity=".157"
         id="stop22" /><stop
         offset="1"
         stop-color="#fff"
         stop-opacity=".392"
         id="stop24" /></linearGradient><linearGradient
       id="b"><stop
         offset="0"
         stop-color="#fff"
         id="stop27" /><stop
         offset=".036"
         stop-color="#fff"
         stop-opacity=".235"
         id="stop29" /><stop
         offset=".951"
         stop-color="#fff"
         stop-opacity=".157"
         id="stop31" /><stop
         offset="1"
         stop-color="#fff"
         stop-opacity=".392"
         id="stop33" /></linearGradient><linearGradient
       id="c"><stop
         offset="0"
         stop-color="#fff"
         id="stop36" /><stop
         offset=".302"
         stop-color="#fff"
         id="stop38" /><stop
         offset=".344"
         stop-color="#fff"
         stop-opacity=".643"
         id="stop40" /><stop
         offset="1"
         stop-color="#fff"
         stop-opacity=".391"
         id="stop42" /></linearGradient><linearGradient
       id="e"><stop
         offset="0"
         stop-color="#dac196"
         id="stop45" /><stop
         offset="0.23060136"
         stop-color="#c7ae8e"
         id="stop47" /><stop
         offset="0.23060136"
         stop-color="#dac197"
         id="stop49" /><stop
         offset="1"
         stop-color="#b19974"
         id="stop51" /></linearGradient><linearGradient
       id="h"><stop
         offset="0"
         stop-opacity="0"
         id="stop54" /><stop
         offset=".5"
         id="stop56" /><stop
         offset="1"
         stop-opacity="0"
         id="stop58" /></linearGradient><linearGradient
       id="d"><stop
         offset="0"
         stop-color="#fff"
         stop-opacity="0"
         id="stop61" /><stop
         offset="1"
         stop-color="#fff"
         stop-opacity="0"
         id="stop63" /></linearGradient><linearGradient
       gradientTransform="matrix(1.05405,0,0,0.21622,126.703,171.31)"
       gradientUnits="userSpaceOnUse"
       xlink:href="#a"
       id="p"
       x1="24"
       x2="24"
       y1="7.3470001"
       y2="43" /><linearGradient
       gradientTransform="matrix(1.05405,0,0,0.7027,126.703,176.635)"
       gradientUnits="userSpaceOnUse"
       xlink:href="#b"
       id="o"
       x1="24"
       x2="24"
       y1="5.5640001"
       y2="43" /><linearGradient
       gradientTransform="matrix(0.69999995,0,0,0.8245227,127.2,175.41605)"
       gradientUnits="userSpaceOnUse"
       xlink:href="#c"
       id="n"
       x1="26"
       x2="26"
       y1="22"
       y2="8" /><linearGradient
       gradientTransform="matrix(1.28223,0,0,1.17469,121.93,157.697)"
       gradientUnits="userSpaceOnUse"
       xlink:href="#d"
       id="m"
       x1="23.452"
       x2="43.007"
       y1="30.555"
       y2="45.933998" /><linearGradient
       gradientTransform="matrix(0.87553362,0,0,1.1237434,123.46757,164.85245)"
       gradientUnits="userSpaceOnUse"
       xlink:href="#linearGradient4728"
       id="l"
       x1="23.359486"
       x2="23.370872"
       y1="15.933548"
       y2="38.453457" /><linearGradient
       gradientTransform="translate(128,163)"
       gradientUnits="userSpaceOnUse"
       xlink:href="#f"
       id="q"
       x1="15.464"
       x2="15.464"
       y1="7.9759998"
       y2="45.042" /><radialGradient
       cx="5"
       cy="41.5"
       fx="5"
       fy="41.5"
       gradientTransform="matrix(0.4012,0,0,1.2,169.994,-254.8)"
       gradientUnits="userSpaceOnUse"
       xlink:href="#g"
       id="k"
       r="5" /><linearGradient
       gradientTransform="matrix(1.74414,0,0,1.0909,111.07,160.818)"
       gradientUnits="userSpaceOnUse"
       xlink:href="#h"
       id="j"
       x1="17.554001"
       x2="17.554001"
       y1="46"
       y2="35" /><radialGradient
       cx="5"
       cy="41.5"
       fx="5"
       fy="41.5"
       gradientTransform="matrix(0.4012,0,0,1.2,-134.006,-254.8)"
       gradientUnits="userSpaceOnUse"
       xlink:href="#g"
       id="i"
       r="5" /><linearGradient
       gradientTransform="matrix(1.2507624,0,0,1.555952,75.583213,130.05387)"
       gradientUnits="userSpaceOnUse"
       xlink:href="#e"
       id="l-7"
       x1="23.359486"
       x2="23.370872"
       y1="15.933548"
       y2="38.453457" /></defs><g
     transform="translate(-128,-179)"
     id="g95"><path
       d="m 133.76452,183.0197 h 20.14185 c 1.17582,0 1.705,-0.2071 2.043,0.72162 l 2.04983,5.77292 V 208.041 c 0,1.12067 0.0703,0.94965 -1.10617,0.94965 H 131.1063 c -1.17582,0 -1.10549,0.17102 -1.10549,-0.94965 v -18.52676 l 2.04983,-5.77292 c 0.32775,-0.90924 0.53874,-0.72162 1.71388,-0.72162 z"
       display="block"
       overflow="visible"
       style="display:block;overflow:visible;opacity:0.2;fill:#000000;fill-opacity:1;stroke-width:0.70195049;marker:none"
       id="path83-5"
       inkscape:connector-curvature="0" /><path
       d="m 133.76452,182.01971 h 20.14185 c 1.17582,0 1.70501,-0.20711 2.043,0.72161 l 2.04983,5.77292 v 18.52677 c 0,1.12066 0.0703,0.94964 -1.10617,0.94964 h -25.78674 c -1.17581,0 -1.10548,0.17102 -1.10548,-0.94964 v -18.52677 l 2.04983,-5.77292 c 0.32775,-0.90924 0.53874,-0.72161 1.71388,-0.72161 z"
       display="block"
       overflow="visible"
       style="display:block;overflow:visible;fill:url(#l);stroke-width:0.70195049;marker:none"
       id="path83"
       inkscape:connector-curvature="0" /><path
       d="m 142.6,182.01224 h 2.8 v 11.54331 c -0.2758,0 -0.5509,-0.63571 -0.8267,-0.63571 -0.2821,0 -0.5642,0.63571 -0.847,0.63571 -0.2268,0 -0.4543,-0.55655 -0.6811,-0.55655 -0.1484,0 -0.2968,0.55655 -0.4452,0.55655 z"
       overflow="visible"
       style="overflow:visible;opacity:0.3;fill:url(#n);stroke-width:0.75971431;marker:none"
       id="path87"
       inkscape:connector-curvature="0" /><g
       fill="#a80030"
       id="g218"
       transform="matrix(0.03786747,0,0,0.03786747,147.47537,195.5)"><path
         d="m 152.79662,167.42537 c -5.25095,0.0731 0.9935,2.70583 7.84865,3.76069 1.8935,-1.47856 3.61167,-2.97466 5.14283,-4.42984 -4.26913,1.04609 -8.61424,1.06947 -12.99148,0.66915"
         id="path194" /><path
         d="m 180.9799,160.40073 c 3.12661,-4.31588 5.40581,-9.04086 6.20938,-13.92654 -0.70129,3.4831 -2.59187,6.4899 -4.3714,9.66326 -9.81521,6.18016 -0.92337,-3.67011 -0.006,-7.41328 -10.55448,13.2837 -1.44934,7.96554 -1.83213,11.67656"
         id="path196" /><path
         d="m 191.38244,133.33075 c 0.63409,-9.45579 -1.86135,-6.46652 -2.69999,-2.85777 0.9789,0.50844 1.75324,6.66522 2.69999,2.85777"
         id="path198" /><path
         d="m 132.88569,4.0879643 c 2.80225,0.5025946 6.05451,0.8883068 5.59867,1.5574589 3.06524,-0.6720742 3.76069,-1.2915513 -5.59867,-1.5574589"
         id="path200" /><path
         d="m 138.48436,5.6454232 -1.98116,0.4090887 1.84382,-0.1636355 0.13734,-0.2454532"
         id="path202" /><path
         d="m 225.86569,136.91612 c 0.31266,8.49151 -2.48375,12.61162 -5.00549,19.90509 l -4.53796,2.26752 c -3.71394,7.21165 0.35941,4.57887 -2.29967,10.31487 -5.79737,5.15452 -17.59373,16.12979 -21.36903,17.13205 -2.75551,-0.0614 1.86719,-3.25225 2.47206,-4.50289 -7.76099,5.32984 -6.22691,8.0006 -18.09633,11.23824 l -0.34772,-0.77142 c -29.27322,13.77168 -69.93663,-13.52038 -69.40189,-50.75913 -0.31266,2.36394 -0.88831,1.77369 -1.537,2.7292 -1.51071,-19.15996 8.848,-38.40465 26.31901,-46.262078 17.08821,-8.459369 37.12187,-4.987959 49.36238,6.419768 -6.72366,-8.807092 -20.1067,-18.14308 -35.96765,-17.269383 -15.53661,0.245453 -30.07094,10.1191 -34.92156,20.837223 -7.9597,5.01133 -8.88307,19.31775 -12.351558,21.93592 -4.666532,34.29623 8.777878,49.11401 31.520278,66.54411 3.57953,2.41362 1.00811,2.77888 1.49318,4.61685 -7.55646,-3.53861 -14.4759,-8.88014 -20.16515,-15.41972 3.01849,4.41816 6.27659,8.71359 10.48728,12.08857 -7.12399,-2.41362 -16.64115,-17.26354 -19.42003,-17.8684 12.28143,21.98851 49.827,38.56245 69.48663,30.33976 -9.09638,0.33604 -20.65313,0.18702 -30.8745,-3.59121 -4.29251,-2.20908 -10.13079,-6.78503 -9.08761,-7.64119 26.83037,10.02267 54.54612,7.59151 77.7619,-11.0191 5.90549,-4.59932 12.3574,-12.4246 14.22168,-12.53272 -2.8081,4.22238 0.47921,2.03083 -1.67727,5.75938 5.88504,-9.49085 -2.5568,-3.86296 6.08374,-16.38984 l 3.19089,4.39478 c -1.18636,-7.87788 9.78306,-17.44471 8.66975,-29.90438 2.5159,-3.81037 2.80811,4.09965 0.13734,12.86584 3.70517,-9.72462 0.97597,-11.28793 1.92856,-19.31191 1.02857,2.69707 2.37856,5.56361 3.07109,8.4097 -2.41362,-9.39735 2.47791,-15.82589 3.68764,-21.28722 -1.1922,-0.52889 -3.72563,4.15517 -4.3042,-6.94574 0.0847,-4.8214 1.34123,-2.52759 1.82629,-3.71394 -0.94675,-0.54351 -3.4305,-4.23991 -4.9412,-11.328836 1.09577,-1.665575 2.9279,4.318806 4.41815,4.564256 -0.95843,-5.636653 -2.6094,-9.935006 -2.67661,-14.259657 -4.35387,-9.0993 -1.53992,1.212656 -5.07269,-3.906796 -4.63439,-14.45544 3.84543,-3.354527 4.41815,-9.923322 7.02464,10.177541 11.03079,25.950835 12.86876,32.484565 -1.40259,-7.965545 -3.67011,-15.68271 -6.4373,-23.148578 2.13311,0.897073 -3.43634,-16.389844 2.77304,-4.941206 -6.63308,-24.40506 -28.38783,-47.208829 -48.40103,-57.909419 2.44869,2.241221 5.54023,5.055166 4.42984,5.496398 -9.95254,-5.925941 -8.20223,-6.387627 -9.62819,-8.891834 -8.10872,-3.299008 -8.64054,0.265908 -14.01129,0.0058 -15.28238,-8.105755 -18.22782,-7.243747 -32.2917,-12.32229 l 0.63993,2.9892691 c -10.12494,-3.3720592 -11.79636,1.279863 -22.73948,0.011688 -0.66623,-0.520127 3.50647,-1.8818077 6.93989,-2.3814803 -9.7889,1.2915513 -9.33014,-1.9285607 -18.90866,0.3564916 2.36103,-1.656809 4.85647,-2.7525822 7.37529,-4.1610159 -7.98308,0.4850622 -19.05769,4.6460781 -15.63888,0.8620082 C 96.316085,8.9298206 73.190888,17.085295 60.214012,29.25276 L 59.804924,26.526476 C 53.858528,33.665073 33.874548,47.845838 32.282025,57.091242 l -1.589602,0.371102 C 27.59796,62.7016 25.596347,68.63923 23.141816,74.030433 19.09476,80.926499 17.21003,76.683665 17.785676,77.764828 9.8259803,93.903375 5.8724309,107.46466 2.4565407,118.58603 4.8906182,122.224 2.514982,140.48688 3.4354314,155.10304 -0.56194899,227.28965 54.098137,297.37822 113.84553,313.5606 c 8.75742,3.13245 21.78105,3.01264 32.85859,3.33407 -13.07039,-3.73732 -14.75934,-1.98116 -27.49076,-6.41977 -9.18404,-4.32465 -11.19734,-9.26293 -17.70185,-14.90836 l 2.57434,4.54965 c -12.757724,-4.51458 -7.419118,-5.58698 -17.798281,-8.8743 l 2.74966,-3.59121 c -4.134717,-0.31266 -10.951887,-6.96912 -12.816162,-10.65384 l -4.523352,0.17825 C 66.26268,270.46895 63.366917,265.63586 63.577306,261.8927 l -1.461031,2.60356 c -1.656809,-2.84317 -19.995669,-25.15019 -10.481436,-19.95768 -1.767847,-1.6159 -4.117185,-2.62986 -6.665222,-7.2584 l 1.937326,-2.21493 c -4.57887,-5.89087 -8.427226,-13.44148 -8.135019,-15.95737 2.442843,3.299 4.137639,3.91556 5.814902,4.47952 -11.562598,-28.68881 -12.211295,-1.58084 -20.968714,-29.20309 l 1.852587,-0.14902 c -1.420122,-2.13895 -2.28213,-4.46199 -3.424657,-6.7412 l 0.80649,-8.03567 c -8.324954,-9.62527 -2.328884,-40.9264 -1.127916,-58.09351 0.832787,-6.9808 6.948662,-14.41161 11.600585,-26.064789 l -2.8344,-0.487985 c 5.417502,-9.449947 30.932945,-37.951737 42.749763,-36.484862 5.724319,-7.191194 -1.136683,-0.0263 -2.255832,-1.837977 12.573631,-13.011941 16.527181,-9.192806 25.012848,-11.533378 9.1519,-5.432112 -7.854502,2.118495 -3.51524,-2.071741 15.82004,-4.041212 11.21195,-9.186962 31.85047,-11.23825 2.17694,1.238955 -5.05224,1.913951 -6.86684,3.521085 13.18142,-6.448991 41.71243,-4.982116 60.24414,3.579525 21.50346,10.04897 45.66306,39.75465 46.61565,67.704172 l 1.08409,0.2922 c -0.54935,11.10968 1.70064,23.95799 -2.19739,35.76019 l 2.65323,-5.58698"
         id="path204" /><path
         d="m 95.483297,174.6341 -0.736359,3.68179 c 3.450955,4.68699 6.188932,9.76553 10.595392,13.4298 -3.17043,-6.18893 -5.525615,-8.74573 -9.859033,-17.11159"
         id="path206" /><path
         d="m 103.64169,174.31267 c -1.82629,-2.01915 -2.90745,-4.4503 -4.117181,-6.87269 1.157141,4.25744 3.526931,7.91586 5.733081,11.63565 l -1.6159,-4.76296"
         id="path208" /><path
         d="m 248.00323,142.93557 -0.77142,1.9344 c -1.41428,10.04605 -4.46784,19.98691 -9.14898,29.20309 5.17205,-9.72462 8.51781,-20.36093 9.9204,-31.13749"
         id="path210" /><path
         d="M 133.92302,1.5691471 C 137.47332,0.26882968 142.65122,0.85616408 146.41775,0 141.50869,0.4120107 136.623,0.65746388 131.79868,1.279863 l 2.12434,0.2892841"
         id="path212" /><path
         d="m 9.2824769,67.847351 c 0.8181771,7.573984 -5.6980203,10.513578 1.4434981,5.519774 3.827901,-8.623004 -1.4960952,-2.38148 -1.4434981,-5.519774"
         id="path214" /><path
         d="M 0.89031567,102.9004 C 2.5354364,97.85108 2.8334867,94.81798 3.46173,91.895919 -1.084998,97.707899 1.3695338,98.946854 0.89031567,102.9004"
         id="path216" /></g></g></svg>
