<?xml version="1.0" encoding="UTF-8" standalone="no"?>
<svg
   width="32"
   height="32"
   id="svg2"
   version="1.1"
   sodipodi:docname="application-illustrator.svg"
   inkscape:version="1.1 (c68e22c387, 2021-05-23)"
   xmlns:inkscape="http://www.inkscape.org/namespaces/inkscape"
   xmlns:sodipodi="http://sodipodi.sourceforge.net/DTD/sodipodi-0.dtd"
   xmlns:xlink="http://www.w3.org/1999/xlink"
   xmlns="http://www.w3.org/2000/svg"
   xmlns:svg="http://www.w3.org/2000/svg"
   xmlns:rdf="http://www.w3.org/1999/02/22-rdf-syntax-ns#"
   xmlns:cc="http://creativecommons.org/ns#"
   xmlns:dc="http://purl.org/dc/elements/1.1/">
  <sodipodi:namedview
     pagecolor="#ffffff"
     bordercolor="#666666"
     borderopacity="1"
     objecttolerance="10"
     gridtolerance="10"
     guidetolerance="10"
     inkscape:pageopacity="0"
     inkscape:pageshadow="2"
     inkscape:window-width="1920"
     inkscape:window-height="1007"
     id="namedview47"
     showgrid="false"
     inkscape:zoom="7.375"
     inkscape:cx="-26.779661"
     inkscape:cy="10.779661"
     inkscape:window-x="0"
     inkscape:window-y="1236"
     inkscape:window-maximized="1"
     inkscape:current-layer="svg2"
     inkscape:document-rotation="0"
     inkscape:pagecheckerboard="0" />
  <defs
     id="defs4">
    <inkscape:path-effect
       effect="fillet_chamfer"
       id="path-effect85"
       is_visible="true"
       lpeversion="1"
       satellites_param="F,0,0,1,0,2,0,10 @ F,0,0,1,0,2,0,10 @ F,0,0,1,0,2,0,10 @ F,0,0,1,0,2,0,10"
       unit="px"
       method="auto"
       mode="F"
       radius="2"
       chamfer_steps="10"
       flexible="false"
       use_knot_distance="true"
       apply_no_radius="true"
       apply_with_radius="true"
       only_selected="false"
       hide_knots="false" />
    <inkscape:path-effect
       effect="fillet_chamfer"
       id="path-effect83"
       is_visible="true"
       lpeversion="1"
       satellites_param="F,0,0,1,0,2,0,10 @ F,0,0,1,0,2,0,10 @ F,0,0,1,0,2,0,10 @ F,0,0,1,0,2,0,10"
       unit="px"
       method="auto"
       mode="F"
       radius="2"
       chamfer_steps="10"
       flexible="false"
       use_knot_distance="true"
       apply_no_radius="true"
       apply_with_radius="true"
       only_selected="false"
       hide_knots="false" />
    <inkscape:path-effect
       effect="fillet_chamfer"
       id="path-effect81"
       is_visible="true"
       lpeversion="1"
       satellites_param="F,0,0,1,0,2,0,10 @ F,0,0,1,0,2,0,10 @ F,0,0,1,0,2,0,10 @ F,0,0,1,0,2,0,10"
       unit="px"
       method="auto"
       mode="F"
       radius="2"
       chamfer_steps="10"
       flexible="false"
       use_knot_distance="true"
       apply_no_radius="true"
       apply_with_radius="true"
       only_selected="false"
       hide_knots="false" />
    <linearGradient
       id="linearGradient902">
      <stop
         id="stop898"
         offset="0"
         style="stop-color:#770087;stop-opacity:1;" />
      <stop
         id="stop900"
         offset="1"
         style="stop-color:#452981;stop-opacity:1" />
    </linearGradient>
    <linearGradient
       id="linearGradient899">
      <stop
         id="stop895"
         style="stop-color:#f282f1;stop-opacity:1"
         offset="0" />
      <stop
         id="stop897"
         style="stop-color:#a56de2;stop-opacity:1"
         offset="1" />
    </linearGradient>
    <linearGradient
       id="linearGradient916">
      <stop
         id="stop912"
         style="stop-color:#ffffff;stop-opacity:1"
         offset="0" />
      <stop
         id="stop914"
         style="stop-color:#fafafa;stop-opacity:1"
         offset="1" />
    </linearGradient>
    <linearGradient
       id="linearGradient3688-166-749-654">
      <stop
         id="stop3088"
         style="stop-color:#181818;stop-opacity:1"
         offset="0" />
      <stop
         id="stop3090"
         style="stop-color:#181818;stop-opacity:0"
         offset="1" />
    </linearGradient>
    <linearGradient
       id="linearGradient3688-464-309-604">
      <stop
         id="stop3094"
         style="stop-color:#181818;stop-opacity:1"
         offset="0" />
      <stop
         id="stop3096"
         style="stop-color:#181818;stop-opacity:0"
         offset="1" />
    </linearGradient>
    <linearGradient
       id="linearGradient3702-501-757-795">
      <stop
         id="stop3100"
         style="stop-color:#181818;stop-opacity:0"
         offset="0" />
      <stop
         id="stop3102"
         style="stop-color:#181818;stop-opacity:1"
         offset="0.5" />
      <stop
         id="stop3104"
         style="stop-color:#181818;stop-opacity:0"
         offset="1" />
    </linearGradient>
    <radialGradient
       xlink:href="#linearGradient3688-166-749-654"
       id="radialGradient4730"
       gradientUnits="userSpaceOnUse"
       gradientTransform="matrix(3.2060542,2.6349059e-7,-8.2185947e-8,1.0000077,36.981009,15.99962)"
       cx="4.9964824"
       cy="43.5"
       fx="4.9964824"
       fy="43.5"
       r="2.5" />
    <radialGradient
       xlink:href="#linearGradient3688-464-309-604"
       id="radialGradient4732"
       gradientUnits="userSpaceOnUse"
       gradientTransform="matrix(3.163875,0,0,0.99999995,-29.702994,-103.00012)"
       cx="4.9929786"
       cy="43.5"
       fx="4.9929786"
       fy="43.5"
       r="2.5" />
    <linearGradient
       xlink:href="#linearGradient3702-501-757-795"
       id="linearGradient4734"
       gradientUnits="userSpaceOnUse"
       gradientTransform="matrix(1.3928572,0,0,0.71428561,-0.0214163,28.42862)"
       x1="25.058096"
       y1="47.027729"
       x2="25.058096"
       y2="39.999443" />
    <linearGradient
       gradientTransform="matrix(1.4324324,0,0,1.4362832,-7.3783796,-7.3995521)"
       gradientUnits="userSpaceOnUse"
       xlink:href="#linearGradient3924-2-2-5-8"
       id="linearGradient3381-5-4"
       y2="46.230125"
       x2="38.660378"
       y1="5.8481169"
       x1="38.660378" />
    <linearGradient
       id="linearGradient3924-2-2-5-8">
      <stop
         offset="0"
         style="stop-color:#ffffff;stop-opacity:1"
         id="stop3926-9-4-9-6" />
      <stop
         offset="0.06316455"
         style="stop-color:#ffffff;stop-opacity:0.23529412"
         id="stop3928-9-8-6-5" />
      <stop
         offset="0.95056331"
         style="stop-color:#ffffff;stop-opacity:0.15686275"
         id="stop3930-3-5-1-7" />
      <stop
         offset="1"
         style="stop-color:#ffffff;stop-opacity:0.39215687"
         id="stop3932-8-0-4-8" />
    </linearGradient>
    <linearGradient
       gradientTransform="matrix(0.47054764,0,0,0.47457626,-60.688645,-0.1484071)"
       gradientUnits="userSpaceOnUse"
       xlink:href="#linearGradient916"
       id="linearGradient5809"
       y2="55.027"
       x2="161.97743"
       y1="10.027002"
       x1="161.97743" />
    <linearGradient
       y2="63.027"
       x2="161.97743"
       y1="5.1520023"
       x1="161.97743"
       gradientTransform="matrix(0.4705882,0,0,0.47457626,-60.695255,-0.1484071)"
       gradientUnits="userSpaceOnUse"
       id="linearGradient910"
       xlink:href="#linearGradient899" />
    <linearGradient
       gradientUnits="userSpaceOnUse"
       y2="60"
       x2="32"
       y1="0"
       x1="32"
       id="linearGradient904"
       xlink:href="#linearGradient902" />
    <linearGradient
       y2="63.027"
       x2="161.97743"
       y1="5.1520023"
       x1="161.97743"
       gradientTransform="matrix(0.94117646,0,0,0.94915254,-73.044014,10.801587)"
       gradientUnits="userSpaceOnUse"
       id="linearGradient910-3"
       xlink:href="#linearGradient899" />
    <linearGradient
       y2="63.027"
       x2="161.97743"
       y1="5.1520023"
       x1="161.97743"
       gradientTransform="matrix(0.47054764,0,0,0.47457626,-76.305129,-44.360347)"
       gradientUnits="userSpaceOnUse"
       id="linearGradient910-5"
       xlink:href="#linearGradient899" />
    <filter
       inkscape:collect="always"
       style="color-interpolation-filters:sRGB"
       id="filter1218"
       x="-0.00052002417"
       width="1.00104"
       y="-0.00044569657"
       height="1.0008914">
      <feGaussianBlur
         inkscape:collect="always"
         stdDeviation="0.0051997931"
         id="feGaussianBlur1220" />
    </filter>
  </defs>
  <metadata
     id="metadata7">
    <rdf:RDF>
      <cc:Work
         rdf:about="">
        <dc:format>image/svg+xml</dc:format>
        <dc:type
           rdf:resource="http://purl.org/dc/dcmitype/StillImage" />
      </cc:Work>
    </rdf:RDF>
  </metadata>
  <path
     width="23.997931"
     height="28"
     rx="0"
     ry="0"
     x="4.0010357"
     y="2.7520487"
     id="rect4897-1"
     style="opacity:0.2;vector-effect:none;fill:#000000;fill-opacity:1;stroke:none;stroke-width:0.472558;stroke-linecap:butt;stroke-linejoin:miter;stroke-miterlimit:4;stroke-dasharray:none;stroke-dashoffset:0;stroke-opacity:1;filter:url(#filter1218)"
     inkscape:path-effect="#path-effect83"
     d="M 6.0010357,2.7520487 H 25.998966 a 2,2 45 0 1 2,2 V 28.752049 a 2,2 135 0 1 -2,2 H 6.0010357 a 2,2 45 0 1 -2,-2 V 4.7520487 a 2,2 135 0 1 2,-2 z"
     sodipodi:type="rect" />
  <path
     width="24"
     height="28"
     rx="0"
     ry="0"
     x="4"
     y="2"
     id="rect4897"
     style="opacity:1;vector-effect:none;fill:#341c05;fill-opacity:1;stroke:none;stroke-width:0.472578;stroke-linecap:butt;stroke-linejoin:miter;stroke-miterlimit:4;stroke-dasharray:none;stroke-dashoffset:0;stroke-opacity:1"
     inkscape:path-effect="#path-effect81"
     d="m 6,2 h 20 a 2,2 45 0 1 2,2 v 24 a 2,2 135 0 1 -2,2 H 6 A 2,2 45 0 1 4,28 V 4 A 2,2 135 0 1 6,2 Z"
     sodipodi:type="rect" />
  <path
     style="opacity:1;fill:#ff7c00;fill-opacity:1;stroke:none;stroke-width:0.428245"
     id="rect7379"
     width="18"
     height="8"
     x="0"
     y="6"
     inkscape:path-effect="#path-effect85"
     d="m 2,6 h 14 a 2,2 45 0 1 2,2 v 4 a 2,2 135 0 1 -2,2 L 2,14 A 2,2 45 0 1 0,12 V 8 A 2,2 135 0 1 2,6 Z"
     sodipodi:type="rect" />
  <g
     id="g1067"
     transform="translate(-21.552145,-12.683348)" />
  <g
     id="g1069"
     transform="translate(-21.552145,-12.683348)" />
  <g
     id="g1071"
     transform="translate(-21.552145,-12.683348)" />
  <g
     id="g1073"
     transform="translate(-21.552145,-12.683348)" />
  <g
     id="g1075"
     transform="translate(-21.552145,-12.683348)" />
  <g
     id="g1077"
     transform="translate(-21.552145,-12.683348)" />
  <g
     id="g1079"
     transform="translate(-21.552145,-12.683348)" />
  <g
     id="g1081"
     transform="translate(-21.552145,-12.683348)" />
  <g
     id="g1083"
     transform="translate(-21.552145,-12.683348)" />
  <g
     id="g1085"
     transform="translate(-21.552145,-12.683348)" />
  <g
     id="g1087"
     transform="translate(-21.552145,-12.683348)" />
  <g
     id="g1089"
     transform="translate(-21.552145,-12.683348)" />
  <g
     id="g1091"
     transform="translate(-21.552145,-12.683348)" />
  <g
     id="g1093"
     transform="translate(-21.552145,-12.683348)" />
  <g
     id="g1095"
     transform="translate(-21.552145,-12.683348)" />
  <g
     id="g1365"
     transform="translate(-77.491525,-23.79661)" />
  <g
     id="g1367"
     transform="translate(-77.491525,-23.79661)" />
  <g
     id="g1369"
     transform="translate(-77.491525,-23.79661)" />
  <g
     id="g1371"
     transform="translate(-77.491525,-23.79661)" />
  <g
     id="g1373"
     transform="translate(-77.491525,-23.79661)" />
  <g
     id="g1375"
     transform="translate(-77.491525,-23.79661)" />
  <g
     id="g1377"
     transform="translate(-77.491525,-23.79661)" />
  <g
     id="g1379"
     transform="translate(-77.491525,-23.79661)" />
  <g
     id="g1381"
     transform="translate(-77.491525,-23.79661)" />
  <g
     id="g1383"
     transform="translate(-77.491525,-23.79661)" />
  <g
     id="g1385"
     transform="translate(-77.491525,-23.79661)" />
  <g
     id="g1387"
     transform="translate(-77.491525,-23.79661)" />
  <g
     id="g1389"
     transform="translate(-77.491525,-23.79661)" />
  <g
     id="g1391"
     transform="translate(-77.491525,-23.79661)" />
  <g
     id="g1393"
     transform="translate(-77.491525,-23.79661)" />
  <g
     aria-label="Adobe"
     id="text7119"
     style="font-size:5.33333px;line-height:1.25;fill:#ff7c00;fill-opacity:1">
    <path
       d="M 9.5091186,20.61849 8.7955773,22.553384 H 10.225264 Z M 9.2122438,20.100261 h 0.5963538 l 1.4817704,3.888018 H 10.743493 L 10.389326,22.990884 H 8.6367233 L 8.2825568,23.988279 H 7.7278696 Z"
       id="path104"
       style="fill:#ff7c00;fill-opacity:1" />
    <path
       d="m 13.662762,21.514322 v -1.578124 h 0.479166 v 4.052081 H 13.662762 V 23.55078 q -0.151042,0.260416 -0.382812,0.38802 -0.229167,0.125 -0.552083,0.125 -0.528646,0 -0.861979,-0.421875 -0.330729,-0.421874 -0.330729,-1.109374 0,-0.6875 0.330729,-1.109374 0.333333,-0.421875 0.861979,-0.421875 0.322916,0 0.552083,0.127604 0.23177,0.125 0.382812,0.385416 z m -1.632812,1.018229 q 0,0.528646 0.216146,0.830729 0.21875,0.299479 0.598958,0.299479 0.380208,0 0.598958,-0.299479 0.21875,-0.302083 0.21875,-0.830729 0,-0.528645 -0.21875,-0.828124 -0.21875,-0.302084 -0.598958,-0.302084 -0.380208,0 -0.598958,0.302084 -0.216146,0.299479 -0.216146,0.828124 z"
       id="path106"
       style="fill:#ff7c00;fill-opacity:1" />
    <path
       d="m 16.259114,21.407552 q -0.385416,0 -0.609374,0.302083 -0.223959,0.299479 -0.223959,0.822916 0,0.523437 0.221354,0.82552 0.223959,0.299479 0.611979,0.299479 0.382813,0 0.606771,-0.302083 0.223958,-0.302083 0.223958,-0.822916 0,-0.518229 -0.223958,-0.820312 -0.223958,-0.304687 -0.606771,-0.304687 z m 0,-0.40625 q 0.625,0 0.98177,0.40625 0.356771,0.406249 0.356771,1.124999 0,0.716145 -0.356771,1.124999 -0.35677,0.40625 -0.98177,0.40625 -0.627604,0 -0.984374,-0.40625 -0.354167,-0.408854 -0.354167,-1.124999 0,-0.71875 0.354167,-1.124999 0.35677,-0.40625 0.984374,-0.40625 z"
       id="path108"
       style="fill:#ff7c00;fill-opacity:1" />
    <path
       d="m 20.485675,22.532551 q 0,-0.528645 -0.21875,-0.828124 -0.216146,-0.302084 -0.596354,-0.302084 -0.380208,0 -0.598958,0.302084 -0.216145,0.299479 -0.216145,0.828124 0,0.528646 0.216145,0.830729 0.21875,0.299479 0.598958,0.299479 0.380208,0 0.596354,-0.299479 0.21875,-0.302083 0.21875,-0.830729 z m -1.630207,-1.018229 q 0.151041,-0.260416 0.380208,-0.385416 0.23177,-0.127604 0.552083,-0.127604 0.531249,0 0.861978,0.421875 0.333333,0.421874 0.333333,1.109374 0,0.6875 -0.333333,1.109374 -0.330729,0.421875 -0.861978,0.421875 -0.320313,0 -0.552083,-0.125 -0.229167,-0.127604 -0.380208,-0.38802 v 0.437499 h -0.481771 v -4.052081 h 0.481771 z"
       id="path110"
       style="fill:#ff7c00;fill-opacity:1" />
    <path
       d="m 24.27213,22.410155 v 0.234375 h -2.203123 q 0.03125,0.494792 0.296875,0.755208 0.268229,0.257812 0.744791,0.257812 0.276041,0 0.533854,-0.06771 0.260416,-0.06771 0.515624,-0.203125 v 0.453125 q -0.257812,0.109375 -0.528645,0.166666 -0.270833,0.05729 -0.549479,0.05729 -0.697916,0 -1.10677,-0.40625 -0.40625,-0.406249 -0.40625,-1.098957 0,-0.716146 0.385416,-1.135416 0.388021,-0.421875 1.044271,-0.421875 0.588541,0 0.929687,0.380208 0.343749,0.377604 0.343749,1.028645 z M 23.792964,22.26953 q -0.0052,-0.393229 -0.221354,-0.627603 -0.213542,-0.234375 -0.567708,-0.234375 -0.401041,0 -0.643229,0.226562 -0.239583,0.226562 -0.276041,0.638021 z"
       id="path112"
       style="fill:#ff7c00;fill-opacity:1" />
  </g>
  <g
     aria-label="AI"
     id="text3952"
     style="font-size:6.66667px;line-height:1.25;fill:#341c05">
    <path
       d="M 9.0325522,11.544598 H 7.0729158 L 6.7636709,12.430015 H 5.5039047 L 7.3040357,7.5699863 H 8.7981771 L 10.598308,12.430015 H 9.3385419 Z M 7.385416,10.642904 H 8.7167968 L 8.052734,8.7093097 Z"
       style="font-weight:bold;-inkscape-font-specification:'sans-serif Bold'"
       id="path15685" />
    <path
       d="m 11.24284,7.5699863 h 1.253256 V 12.430015 H 11.24284 Z"
       style="font-weight:bold;-inkscape-font-specification:'sans-serif Bold'"
       id="path15687" />
  </g>
</svg>
