<?xml version="1.0" encoding="UTF-8" standalone="no"?>
<svg
   width="32"
   height="32"
   id="svg2"
   version="1.1"
   sodipodi:docname="application-rdf+xml.svg"
   inkscape:version="1.2.1 (9c6d41e410, 2022-07-14)"
   xml:space="preserve"
   xmlns:inkscape="http://www.inkscape.org/namespaces/inkscape"
   xmlns:sodipodi="http://sodipodi.sourceforge.net/DTD/sodipodi-0.dtd"
   xmlns:xlink="http://www.w3.org/1999/xlink"
   xmlns="http://www.w3.org/2000/svg"
   xmlns:svg="http://www.w3.org/2000/svg"
   xmlns:rdf="http://www.w3.org/1999/02/22-rdf-syntax-ns#"
   xmlns:cc="http://creativecommons.org/ns#"
   xmlns:dc="http://purl.org/dc/elements/1.1/"><sodipodi:namedview
     pagecolor="#ffffff"
     bordercolor="#666666"
     borderopacity="1"
     objecttolerance="10"
     gridtolerance="10"
     guidetolerance="10"
     inkscape:pageopacity="0"
     inkscape:pageshadow="2"
     inkscape:window-width="1920"
     inkscape:window-height="1006"
     id="namedview47"
     showgrid="false"
     inkscape:zoom="14.75"
     inkscape:cx="-12.61017"
     inkscape:cy="8.7118644"
     inkscape:window-x="0"
     inkscape:window-y="1237"
     inkscape:window-maximized="1"
     inkscape:current-layer="svg2"
     inkscape:document-rotation="0"
     inkscape:pagecheckerboard="0"
     inkscape:showpageshadow="2"
     inkscape:deskcolor="#d1d1d1" /><defs
     id="defs4"><inkscape:path-effect
       effect="fillet_chamfer"
       id="path-effect54"
       is_visible="true"
       lpeversion="1"
       satellites_param="F,0,0,1,0,2,0,10 @ F,0,0,1,0,2,0,10 @ F,0,0,1,0,2,0,10 @ F,0,0,1,0,2,0,10"
       unit="px"
       method="auto"
       mode="F"
       radius="2"
       chamfer_steps="10"
       flexible="false"
       use_knot_distance="true"
       apply_no_radius="true"
       apply_with_radius="true"
       only_selected="false"
       hide_knots="false"
       nodesatellites_param="F,0,0,1,0,2,0,10 @ F,0,0,1,0,2,0,10 @ F,0,0,1,0,2,0,10 @ F,0,0,1,0,2,0,10" /><inkscape:path-effect
       effect="fillet_chamfer"
       id="path-effect52"
       is_visible="true"
       lpeversion="1"
       satellites_param="F,0,0,1,0,2,0,10 @ F,0,0,1,0,2,0,10 @ F,0,0,1,0,2,0,10 @ F,0,0,1,0,2,0,10"
       unit="px"
       method="auto"
       mode="F"
       radius="2"
       chamfer_steps="10"
       flexible="false"
       use_knot_distance="true"
       apply_no_radius="true"
       apply_with_radius="true"
       only_selected="false"
       hide_knots="false"
       nodesatellites_param="F,0,0,1,0,2,0,10 @ F,0,0,1,0,2,0,10 @ F,0,0,1,0,2,0,10 @ F,0,0,1,0,2,0,10" /><linearGradient
       id="linearGradient902"><stop
         id="stop898"
         offset="0"
         style="stop-color:#770087;stop-opacity:1;" /><stop
         id="stop900"
         offset="1"
         style="stop-color:#452981;stop-opacity:1" /></linearGradient><linearGradient
       id="linearGradient899"><stop
         id="stop895"
         style="stop-color:#f282f1;stop-opacity:1"
         offset="0" /><stop
         id="stop897"
         style="stop-color:#a56de2;stop-opacity:1"
         offset="1" /></linearGradient><linearGradient
       id="linearGradient916"><stop
         id="stop912"
         style="stop-color:#ffffff;stop-opacity:1"
         offset="0" /><stop
         id="stop914"
         style="stop-color:#fafafa;stop-opacity:1"
         offset="1" /></linearGradient><linearGradient
       id="linearGradient3688-166-749-654"><stop
         id="stop3088"
         style="stop-color:#181818;stop-opacity:1"
         offset="0" /><stop
         id="stop3090"
         style="stop-color:#181818;stop-opacity:0"
         offset="1" /></linearGradient><linearGradient
       id="linearGradient3688-464-309-604"><stop
         id="stop3094"
         style="stop-color:#181818;stop-opacity:1"
         offset="0" /><stop
         id="stop3096"
         style="stop-color:#181818;stop-opacity:0"
         offset="1" /></linearGradient><linearGradient
       id="linearGradient3702-501-757-795"><stop
         id="stop3100"
         style="stop-color:#181818;stop-opacity:0"
         offset="0" /><stop
         id="stop3102"
         style="stop-color:#181818;stop-opacity:1"
         offset="0.5" /><stop
         id="stop3104"
         style="stop-color:#181818;stop-opacity:0"
         offset="1" /></linearGradient><radialGradient
       xlink:href="#linearGradient3688-166-749-654"
       id="radialGradient4730"
       gradientUnits="userSpaceOnUse"
       gradientTransform="matrix(3.2060542,2.6349059e-7,-8.2185947e-8,1.0000077,36.981009,15.99962)"
       cx="4.9964824"
       cy="43.5"
       fx="4.9964824"
       fy="43.5"
       r="2.5" /><radialGradient
       xlink:href="#linearGradient3688-464-309-604"
       id="radialGradient4732"
       gradientUnits="userSpaceOnUse"
       gradientTransform="matrix(3.163875,0,0,0.99999995,-29.702994,-103.00012)"
       cx="4.9929786"
       cy="43.5"
       fx="4.9929786"
       fy="43.5"
       r="2.5" /><linearGradient
       xlink:href="#linearGradient3702-501-757-795"
       id="linearGradient4734"
       gradientUnits="userSpaceOnUse"
       gradientTransform="matrix(1.3928572,0,0,0.71428561,-0.0214163,28.42862)"
       x1="25.058096"
       y1="47.027729"
       x2="25.058096"
       y2="39.999443" /><linearGradient
       gradientTransform="matrix(1.4324324,0,0,1.4362832,-7.3783796,-7.3995521)"
       gradientUnits="userSpaceOnUse"
       xlink:href="#linearGradient3924-2-2-5-8"
       id="linearGradient3381-5-4"
       y2="46.230125"
       x2="38.660378"
       y1="5.8481169"
       x1="38.660378" /><linearGradient
       id="linearGradient3924-2-2-5-8"><stop
         offset="0"
         style="stop-color:#ffffff;stop-opacity:1"
         id="stop3926-9-4-9-6" /><stop
         offset="0.06316455"
         style="stop-color:#ffffff;stop-opacity:0.23529412"
         id="stop3928-9-8-6-5" /><stop
         offset="0.95056331"
         style="stop-color:#ffffff;stop-opacity:0.15686275"
         id="stop3930-3-5-1-7" /><stop
         offset="1"
         style="stop-color:#ffffff;stop-opacity:0.39215687"
         id="stop3932-8-0-4-8" /></linearGradient><linearGradient
       gradientTransform="matrix(0.47054764,0,0,0.47457626,-60.688645,-0.1484071)"
       gradientUnits="userSpaceOnUse"
       xlink:href="#linearGradient916"
       id="linearGradient5809"
       y2="55.027"
       x2="161.97743"
       y1="10.027002"
       x1="161.97743" /><linearGradient
       y2="63.027"
       x2="161.97743"
       y1="5.1520023"
       x1="161.97743"
       gradientTransform="matrix(0.4705882,0,0,0.47457626,-60.695255,-0.1484071)"
       gradientUnits="userSpaceOnUse"
       id="linearGradient910"
       xlink:href="#linearGradient899" /><linearGradient
       gradientUnits="userSpaceOnUse"
       y2="60"
       x2="32"
       y1="0"
       x1="32"
       id="linearGradient904"
       xlink:href="#linearGradient902" /><linearGradient
       y2="63.027"
       x2="161.97743"
       y1="5.1520023"
       x1="161.97743"
       gradientTransform="matrix(0.94117646,0,0,0.94915254,-73.044014,10.801587)"
       gradientUnits="userSpaceOnUse"
       id="linearGradient910-3"
       xlink:href="#linearGradient899" /><linearGradient
       y2="63.027"
       x2="161.97743"
       y1="5.1520023"
       x1="161.97743"
       gradientTransform="matrix(0.47054764,0,0,0.47457626,-76.305129,-44.360347)"
       gradientUnits="userSpaceOnUse"
       id="linearGradient910-5"
       xlink:href="#linearGradient899" /><inkscape:path-effect
       effect="fillet_chamfer"
       id="path-effect876"
       is_visible="true"
       lpeversion="1"
       satellites_param="F,0,0,1,0,2,0,10 @ F,0,0,1,0,2,0,10 @ F,0,0,1,0,2,0,10 @ F,0,0,1,0,2,0,10"
       unit="px"
       method="auto"
       mode="F"
       radius="2"
       chamfer_steps="10"
       flexible="false"
       use_knot_distance="true"
       apply_no_radius="true"
       apply_with_radius="true"
       only_selected="false"
       hide_knots="false"
       nodesatellites_param="F,0,0,1,0,2,0,10 @ F,0,0,1,0,2,0,10 @ F,0,0,1,0,2,0,10 @ F,0,0,1,0,2,0,10" /><inkscape:path-effect
       effect="fillet_chamfer"
       id="path-effect874"
       is_visible="true"
       lpeversion="1"
       satellites_param="F,0,0,1,0,2,0,10 @ F,0,0,1,0,2,0,10 @ F,0,0,1,0,2,0,10 @ F,0,0,1,0,2,0,10"
       unit="px"
       method="auto"
       mode="F"
       radius="2"
       chamfer_steps="10"
       flexible="false"
       use_knot_distance="true"
       apply_no_radius="true"
       apply_with_radius="true"
       only_selected="false"
       hide_knots="false"
       nodesatellites_param="F,0,0,1,0,2,0,10 @ F,0,0,1,0,2,0,10 @ F,0,0,1,0,2,0,10 @ F,0,0,1,0,2,0,10" /><inkscape:path-effect
       effect="fillet_chamfer"
       id="path-effect872"
       is_visible="true"
       lpeversion="1"
       satellites_param="F,0,0,1,0,2,0,10 @ F,0,0,1,0,2,0,10 @ F,0,0,1,0,2,0,10 @ F,0,0,1,0,2,0,10"
       unit="px"
       method="auto"
       mode="F"
       radius="2"
       chamfer_steps="10"
       flexible="false"
       use_knot_distance="true"
       apply_no_radius="true"
       apply_with_radius="true"
       only_selected="false"
       hide_knots="false"
       nodesatellites_param="F,0,0,1,0,2,0,10 @ F,0,0,1,0,2,0,10 @ F,0,0,1,0,2,0,10 @ F,0,0,1,0,2,0,10" /><radialGradient
       xlink:href="#linearGradient3688-166-749-654"
       id="radialGradient4730-062"
       gradientUnits="userSpaceOnUse"
       gradientTransform="matrix(3.2060542,2.6349059e-7,-8.2185947e-8,1.0000077,36.981009,15.99962)"
       cx="4.9964824"
       cy="43.5"
       fx="4.9964824"
       fy="43.5"
       r="2.5" /><radialGradient
       xlink:href="#linearGradient3688-166-749-654"
       id="radialGradient4732-61"
       gradientUnits="userSpaceOnUse"
       gradientTransform="matrix(3.163875,0,0,0.99999995,-29.702994,-103.00012)"
       cx="4.9929786"
       cy="43.5"
       fx="4.9929786"
       fy="43.5"
       r="2.5" /><filter
       inkscape:collect="always"
       style="color-interpolation-filters:sRGB"
       id="filter1218-0"
       x="-0.00052002417"
       width="1.00104"
       y="-0.00044569657"
       height="1.0008914"><feGaussianBlur
         inkscape:collect="always"
         stdDeviation="0.0051997931"
         id="feGaussianBlur1220-2" /></filter><inkscape:path-effect
       effect="fillet_chamfer"
       id="path-effect889"
       is_visible="true"
       lpeversion="1"
       satellites_param="F,0,0,1,0,1,0,10 @ F,0,0,1,0,1,0,10 @ F,0,0,1,0,1,0,10 @ F,0,0,1,0,1,0,10"
       unit="px"
       method="auto"
       mode="F"
       radius="1"
       chamfer_steps="10"
       flexible="false"
       use_knot_distance="true"
       apply_no_radius="true"
       apply_with_radius="true"
       only_selected="false"
       hide_knots="false"
       nodesatellites_param="F,0,0,1,0,1,0,10 @ F,0,0,1,0,1,0,10 @ F,0,0,1,0,1,0,10 @ F,0,0,1,0,1,0,10" /><inkscape:path-effect
       effect="fillet_chamfer"
       id="path-effect887"
       is_visible="true"
       lpeversion="1"
       satellites_param="F,0,0,1,0,1,0,10 @ F,0,0,1,0,1,0,10 @ F,0,0,1,0,1,0,10 @ F,0,0,1,0,1,0,10"
       unit="px"
       method="auto"
       mode="F"
       radius="1"
       chamfer_steps="10"
       flexible="false"
       use_knot_distance="true"
       apply_no_radius="true"
       apply_with_radius="true"
       only_selected="false"
       hide_knots="false"
       nodesatellites_param="F,0,0,1,0,1,0,10 @ F,0,0,1,0,1,0,10 @ F,0,0,1,0,1,0,10 @ F,0,0,1,0,1,0,10" /><inkscape:path-effect
       effect="fillet_chamfer"
       id="path-effect885"
       is_visible="true"
       lpeversion="1"
       satellites_param="F,0,0,1,0,1,0,10 @ F,0,0,1,0,1,0,10 @ F,0,0,1,0,1,0,10 @ F,0,0,1,0,1,0,10"
       unit="px"
       method="auto"
       mode="F"
       radius="1"
       chamfer_steps="10"
       flexible="false"
       use_knot_distance="true"
       apply_no_radius="true"
       apply_with_radius="true"
       only_selected="false"
       hide_knots="false"
       nodesatellites_param="F,0,0,1,0,1,0,10 @ F,0,0,1,0,1,0,10 @ F,0,0,1,0,1,0,10 @ F,0,0,1,0,1,0,10" /><radialGradient
       xlink:href="#linearGradient3688-166-749-654"
       id="radialGradient4730-06"
       gradientUnits="userSpaceOnUse"
       gradientTransform="matrix(3.2060542,2.6349059e-7,-8.2185947e-8,1.0000077,36.981009,15.99962)"
       cx="4.9964824"
       cy="43.5"
       fx="4.9964824"
       fy="43.5"
       r="2.5" /><radialGradient
       xlink:href="#linearGradient3688-166-749-654"
       id="radialGradient4732-2"
       gradientUnits="userSpaceOnUse"
       gradientTransform="matrix(3.163875,0,0,0.99999995,-29.702994,-103.00012)"
       cx="4.9929786"
       cy="43.5"
       fx="4.9929786"
       fy="43.5"
       r="2.5" /><radialGradient
       xlink:href="#linearGradient3688-166-749-654"
       id="radialGradient4730-0"
       gradientUnits="userSpaceOnUse"
       gradientTransform="matrix(3.2060542,2.6349059e-7,-8.2185947e-8,1.0000077,36.981009,15.99962)"
       cx="4.9964824"
       cy="43.5"
       fx="4.9964824"
       fy="43.5"
       r="2.5" /><radialGradient
       xlink:href="#linearGradient3688-166-749-654"
       id="radialGradient4732-6"
       gradientUnits="userSpaceOnUse"
       gradientTransform="matrix(3.163875,0,0,0.99999995,-29.702994,-103.00012)"
       cx="4.9929786"
       cy="43.5"
       fx="4.9929786"
       fy="43.5"
       r="2.5" /><radialGradient
       xlink:href="#linearGradient3688-166-749-654"
       id="radialGradient4730-9"
       gradientUnits="userSpaceOnUse"
       gradientTransform="matrix(3.2060542,2.6349059e-7,-8.2185947e-8,1.0000077,36.981009,15.99962)"
       cx="4.9964824"
       cy="43.5"
       fx="4.9964824"
       fy="43.5"
       r="2.5" /><radialGradient
       xlink:href="#linearGradient3688-166-749-654"
       id="radialGradient4732-4"
       gradientUnits="userSpaceOnUse"
       gradientTransform="matrix(3.163875,0,0,0.99999995,-29.702994,-103.00012)"
       cx="4.9929786"
       cy="43.5"
       fx="4.9929786"
       fy="43.5"
       r="2.5" /></defs><metadata
     id="metadata7"><rdf:RDF><cc:Work
         rdf:about=""><dc:format>image/svg+xml</dc:format><dc:type
           rdf:resource="http://purl.org/dc/dcmitype/StillImage" /></cc:Work></rdf:RDF></metadata><path
     width="23.997931"
     height="28"
     rx="0"
     ry="0"
     x="4.0010357"
     y="2.3697839"
     id="rect4897-1-7"
     style="opacity:0.2;fill:#000000;fill-opacity:1;stroke:none;stroke-width:0.472558;stroke-linecap:butt;stroke-linejoin:miter;stroke-miterlimit:4;stroke-dasharray:none;stroke-dashoffset:0;stroke-opacity:1;filter:url(#filter1218-0)"
     inkscape:path-effect="#path-effect876"
     d="M 6.0010357,2.3697839 H 25.998966 a 2,2 45 0 1 2,2 V 28.369784 a 2,2 135 0 1 -2,2 H 6.0010357 a 2,2 45 0 1 -2,-2 V 4.3697839 a 2,2 135 0 1 2,-2 z"
     sodipodi:type="rect" /><path
     width="24"
     height="28"
     rx="0"
     ry="0"
     x="4"
     y="1.6177351"
     id="rect4897-5"
     style="fill:#eeeeee;fill-opacity:1;stroke:none;stroke-width:0.472578;stroke-linecap:butt;stroke-linejoin:miter;stroke-miterlimit:4;stroke-dasharray:none;stroke-dashoffset:0;stroke-opacity:1"
     inkscape:path-effect="#path-effect874"
     d="m 6,1.6177351 h 20 a 2,2 45 0 1 2,2 V 27.617735 a 2,2 135 0 1 -2,2 H 6 a 2,2 45 0 1 -2,-2 V 3.6177351 a 2,2 135 0 1 2,-2 z"
     sodipodi:type="rect" /><path
     y="5.6177349"
     x="0"
     height="8"
     width="18"
     id="rect7379"
     style="fill:#002255;fill-opacity:1;stroke:none;stroke-width:0.428245"
     inkscape:path-effect="#path-effect872"
     d="m 2,5.6177349 h 14 a 2,2 45 0 1 2,2 v 4.0000001 a 2,2 135 0 1 -2,2 H 2 a 2,2 45 0 1 -2,-2 V 7.6177349 a 2,2 135 0 1 2,-2 z"
     sodipodi:type="rect" /><text
     xml:space="preserve"
     style="font-size:7.33333px;font-family:'DejaVu Sans';-inkscape-font-specification:'DejaVu Sans';fill:#000000;stroke:#646464;stroke-width:0.267"
     x="-23.153337"
     y="10.332627"
     id="text819"><tspan
       sodipodi:role="line"
       id="tspan817"
       x="-23.153337"
       y="10.332627" /></text><path
     fill="currentColor"
     d="m 19.06126,16.000744 q -0.60025,0 -1.11797,0.30763 -0.51771,0.30762 -0.80283,0.84785 -0.34514,0.64527 -0.22509,1.38057 l -0.03,-0.03 v 0.09 q -0.015,0.13505 -0.10504,0.28511 -0.10504,0.2251 -0.34514,0.45019 -0.30013,0.28512 -0.75782,0.57024 -0.45769,0.28512 -0.86286,0.42017 -0.33013,0.10505 -0.60025,0.10505 -0.21008,0 -0.36015,-0.06 l -0.12004,-0.045 0.045,0.045 -0.12005,-0.06 q -0.52521,-0.28512 -1.10295,-0.26261 -0.57774,0.0225 -1.08045,0.33013 -0.50271,0.30763 -0.78033,0.83285 -0.27761,0.52522 -0.2551,1.11046 0.0225,0.58524 0.33014,1.08045 0.30762,0.4952 0.83284,0.78032 0.60025,0.31513 1.25302,0.2476 0.65277,-0.0675 1.14798,-0.47269 l -0.015,0.03 0.10504,-0.06 q 0.13506,-0.045 0.31514,-0.045 0.2551,-0.015 0.58524,0.075 0.40517,0.12005 0.88537,0.37515 0.72029,0.39017 1.05043,0.84035 0.22509,0.28512 0.2401,0.55523 -0.015,0.63027 0.29262,1.17799 0.30763,0.54773 0.87787,0.84785 0.52521,0.27012 1.10295,0.24761 0.57774,-0.0225 1.08045,-0.33014 0.50271,-0.30763 0.78033,-0.83285 0.27761,-0.52521 0.2551,-1.11046 -0.0225,-0.58524 -0.33013,-1.08044 -0.30763,-0.49521 -0.83285,-0.76532 -0.10504,-0.06 -0.22509,-0.10505 l 0.045,-0.015 -0.075,-0.06 q -0.09,-0.075 -0.16506,-0.2401 -0.12005,-0.22509 -0.18008,-0.54022 -0.09,-0.40517 -0.10504,-0.94539 -0.015,-0.54023 0.045,-0.9454 0.06,-0.33013 0.16506,-0.55523 0.075,-0.16506 0.18008,-0.27011 l 0.075,-0.06 h -0.075 q 0.61525,-0.31513 0.93039,-0.93039 0.28511,-0.52522 0.2626,-1.10296 -0.0225,-0.57774 -0.33013,-1.07294 -0.30763,-0.49521 -0.83285,-0.78033 -0.4952,-0.27011 -1.05043,-0.2551 z m 0.03,0.34514 q 0.58524,0 0.99041,0.37516 v 0 q -0.22509,-0.19508 -0.66778,-0.15007 -0.44268,0.045 -0.87786,0.33014 0.12005,0.12005 0.12755,0.30013 0.007,0.18007 -0.12005,0.32263 -0.12755,0.14256 -0.32263,0.14256 h -0.12005 l -0.03,-0.015 q -0.18007,-0.06 -0.31513,0.12005 -0.2401,0.43518 -0.2401,0.84785 0,0.41268 0.2251,0.63777 -0.30013,-0.28512 -0.40517,-0.69779 -0.10504,-0.41267 0.007,-0.84035 0.11255,-0.42768 0.42768,-0.77282 0.27011,-0.28512 0.61526,-0.44268 0.34514,-0.15757 0.70529,-0.15757 z m -1.51563,3.6165 q 0.16507,0 0.27011,0.0525 0.10505,0.0525 0.21009,0.11255 0.19508,0.10504 0.40517,0.16507 0.16507,0.16507 0.30012,0.4952 0.16507,0.49521 0.18758,1.26053 0.0225,0.76532 -0.15757,1.26052 -0.13505,0.33014 -0.33013,0.51021 -0.30013,0.13506 -0.54023,0.34515 -0.21008,0.075 -0.54022,0.015 -0.51021,-0.09 -1.21551,-0.46519 -0.7353,-0.39016 -1.09545,-0.81034 -0.21009,-0.2551 -0.25511,-0.4802 0.03,-0.27011 -0.015,-0.55523 v 0.015 l 0.015,-0.09 q 0.015,-0.12005 0.10505,-0.27011 0.12005,-0.19508 0.36015,-0.42017 0.30012,-0.27012 0.75031,-0.55523 0.93038,-0.57024 1.54564,-0.58525 z m -4.89203,0.51021 q 0.58524,0 0.99041,0.37516 h -0.015 q -0.21008,-0.19508 -0.66027,-0.15006 -0.45019,0.045 -0.87036,0.33013 0.10504,0.12005 0.11255,0.30013 0.007,0.18007 -0.12005,0.32263 -0.12756,0.14256 -0.30763,0.14256 -0.06,0.015 -0.12005,0 l -0.03,-0.015 q -0.19509,-0.06 -0.33014,0.12005 -0.22509,0.43518 -0.2326,0.84785 -0.008,0.41267 0.21759,0.63776 -0.30012,-0.28512 -0.39766,-0.69779 -0.0975,-0.41267 0.015,-0.84035 0.11255,-0.42767 0.42768,-0.77282 0.27011,-0.28512 0.61526,-0.44268 0.34514,-0.15757 0.70529,-0.15757 z m 6.78281,3.49645 q 0.58525,0 0.99041,0.37516 v 0 q -0.21008,-0.19508 -0.66027,-0.15006 -0.45019,0.045 -0.88537,0.33014 0.12005,0.12005 0.12756,0.30012 0.007,0.18007 -0.12005,0.32263 -0.12756,0.14256 -0.32264,0.14256 -0.06,0 -0.12005,-0.015 h -0.03 q -0.18007,-0.06 -0.31513,0.12005 -0.2401,0.43518 -0.2401,0.84785 0,0.41267 0.22509,0.63776 -0.30012,-0.28512 -0.40516,-0.69779 -0.10505,-0.41267 0.008,-0.84035 0.11255,-0.42767 0.42768,-0.77282 0.27011,-0.28511 0.61525,-0.44268 0.34514,-0.15757 0.70529,-0.15757 z"
     id="path452"
     style="stroke-width:0.0150062;fill:#002255" /><g
     aria-label="RDF"
     id="text346"
     style="font-size:6px;font-family:'DejaVu Sans';-inkscape-font-specification:'DejaVu Sans';fill:#ffffff;stroke-width:0.267"><path
       d="m 5.4228516,9.7539654 q 0.1904296,0.064453 0.3691406,0.2753906 0.1816406,0.210938 0.3632812,0.580078 l 0.600586,1.195313 H 6.1201172 L 5.5605469,10.682676 Q 5.34375,10.243223 5.1386719,10.099669 4.9365234,9.9561138 4.5849609,9.9561138 H 3.9404297 V 11.804747 H 3.3486328 V 7.4307232 h 1.3359375 q 0.75,0 1.1191406,0.3134766 0.3691407,0.3134765 0.3691407,0.946289 0,0.413086 -0.1933594,0.6855469 Q 5.7890625,9.6484966 5.4228516,9.7539654 Z M 3.9404297,7.9170513 v 1.5527344 h 0.7441406 q 0.4277344,0 0.6445313,-0.1962891 0.2197265,-0.1992187 0.2197265,-0.5830078 0,-0.383789 -0.2197265,-0.5771484 Q 5.1123047,7.9170513 4.6845703,7.9170513 Z"
       id="path461" /><path
       d="m 8.109375,7.9170513 v 3.4013677 h 0.7148438 q 0.9052734,0 1.3242192,-0.410157 0.421875,-0.410156 0.421875,-1.2949216 0,-0.8789063 -0.421875,-1.2861328 Q 9.7294922,7.9170513 8.8242188,7.9170513 Z M 7.5175781,7.4307232 h 1.2158203 q 1.2714846,0 1.8662106,0.5302734 0.594727,0.5273438 0.594727,1.6523438 0,1.1308596 -0.597656,1.6611326 -0.5976566,0.530274 -1.8632816,0.530274 H 7.5175781 Z"
       id="path463" /><path
       d="m 12.137695,7.4307232 h 2.513672 v 0.4980469 h -1.921875 v 1.2890625 h 1.734375 v 0.4980468 h -1.734375 v 2.0888676 h -0.591797 z"
       id="path465" /></g></svg>
