<?xml version="1.0" encoding="UTF-8" standalone="no"?>
<svg
   width="32"
   height="32"
   id="svg2"
   version="1.1"
   sodipodi:docname="application-vnd-jgraph-mxfile.svg"
   inkscape:version="1.2.1 (9c6d41e410, 2022-07-14)"
   xml:space="preserve"
   xmlns:inkscape="http://www.inkscape.org/namespaces/inkscape"
   xmlns:sodipodi="http://sodipodi.sourceforge.net/DTD/sodipodi-0.dtd"
   xmlns:xlink="http://www.w3.org/1999/xlink"
   xmlns="http://www.w3.org/2000/svg"
   xmlns:svg="http://www.w3.org/2000/svg"
   xmlns:rdf="http://www.w3.org/1999/02/22-rdf-syntax-ns#"
   xmlns:cc="http://creativecommons.org/ns#"
   xmlns:dc="http://purl.org/dc/elements/1.1/"><sodipodi:namedview
     pagecolor="#ffffff"
     bordercolor="#666666"
     borderopacity="1"
     objecttolerance="10"
     gridtolerance="10"
     guidetolerance="10"
     inkscape:pageopacity="0"
     inkscape:pageshadow="2"
     inkscape:window-width="1920"
     inkscape:window-height="1006"
     id="namedview47"
     showgrid="false"
     inkscape:zoom="11.313709"
     inkscape:cx="-36.681163"
     inkscape:cy="15.246989"
     inkscape:window-x="0"
     inkscape:window-y="1237"
     inkscape:window-maximized="1"
     inkscape:current-layer="svg2"
     inkscape:document-rotation="0"
     inkscape:showpageshadow="2"
     inkscape:pagecheckerboard="0"
     inkscape:deskcolor="#d1d1d1" /><defs
     id="defs4"><inkscape:path-effect
       effect="fillet_chamfer"
       id="path-effect881"
       is_visible="true"
       lpeversion="1"
       satellites_param="F,0,0,1,0,2,0,10 @ F,0,0,1,0,2,0,10 @ F,0,0,1,0,2,0,10 @ F,0,0,1,0,2,0,10"
       unit="px"
       method="auto"
       mode="F"
       radius="2"
       chamfer_steps="10"
       flexible="false"
       use_knot_distance="true"
       apply_no_radius="true"
       apply_with_radius="true"
       only_selected="false"
       hide_knots="false"
       nodesatellites_param="F,0,0,1,0,2,0,10 @ F,0,0,1,0,2,0,10 @ F,0,0,1,0,2,0,10 @ F,0,0,1,0,2,0,10" /><inkscape:path-effect
       effect="fillet_chamfer"
       id="path-effect879"
       is_visible="true"
       lpeversion="1"
       satellites_param="F,0,0,1,0,2,0,10 @ F,0,0,1,0,2,0,10 @ F,0,0,1,0,2,0,10 @ F,0,0,1,0,2,0,10"
       unit="px"
       method="auto"
       mode="F"
       radius="2"
       chamfer_steps="10"
       flexible="false"
       use_knot_distance="true"
       apply_no_radius="true"
       apply_with_radius="true"
       only_selected="false"
       hide_knots="false"
       nodesatellites_param="F,0,0,1,0,2,0,10 @ F,0,0,1,0,2,0,10 @ F,0,0,1,0,2,0,10 @ F,0,0,1,0,2,0,10" /><linearGradient
       id="linearGradient902"><stop
         id="stop898"
         offset="0"
         style="stop-color:#770087;stop-opacity:1;" /><stop
         id="stop900"
         offset="1"
         style="stop-color:#452981;stop-opacity:1" /></linearGradient><linearGradient
       id="linearGradient899"><stop
         id="stop895"
         style="stop-color:#f282f1;stop-opacity:1"
         offset="0" /><stop
         id="stop897"
         style="stop-color:#a56de2;stop-opacity:1"
         offset="1" /></linearGradient><linearGradient
       id="linearGradient916"><stop
         id="stop912"
         style="stop-color:#ffffff;stop-opacity:1"
         offset="0" /><stop
         id="stop914"
         style="stop-color:#fafafa;stop-opacity:1"
         offset="1" /></linearGradient><linearGradient
       id="linearGradient3688-166-749-654"><stop
         id="stop3088"
         style="stop-color:#181818;stop-opacity:1"
         offset="0" /><stop
         id="stop3090"
         style="stop-color:#181818;stop-opacity:0"
         offset="1" /></linearGradient><linearGradient
       id="linearGradient3688-464-309-604"><stop
         id="stop3094"
         style="stop-color:#181818;stop-opacity:1"
         offset="0" /><stop
         id="stop3096"
         style="stop-color:#181818;stop-opacity:0"
         offset="1" /></linearGradient><linearGradient
       id="linearGradient3702-501-757-795"><stop
         id="stop3100"
         style="stop-color:#181818;stop-opacity:0"
         offset="0" /><stop
         id="stop3102"
         style="stop-color:#181818;stop-opacity:1"
         offset="0.5" /><stop
         id="stop3104"
         style="stop-color:#181818;stop-opacity:0"
         offset="1" /></linearGradient><radialGradient
       xlink:href="#linearGradient3688-166-749-654"
       id="radialGradient4730"
       gradientUnits="userSpaceOnUse"
       gradientTransform="matrix(3.2060542,2.6349059e-7,-8.2185947e-8,1.0000077,36.981009,15.99962)"
       cx="4.9964824"
       cy="43.5"
       fx="4.9964824"
       fy="43.5"
       r="2.5" /><radialGradient
       xlink:href="#linearGradient3688-464-309-604"
       id="radialGradient4732"
       gradientUnits="userSpaceOnUse"
       gradientTransform="matrix(3.163875,0,0,0.99999995,-29.702994,-103.00012)"
       cx="4.9929786"
       cy="43.5"
       fx="4.9929786"
       fy="43.5"
       r="2.5" /><linearGradient
       xlink:href="#linearGradient3702-501-757-795"
       id="linearGradient4734"
       gradientUnits="userSpaceOnUse"
       gradientTransform="matrix(1.3928572,0,0,0.71428561,-0.0214163,28.42862)"
       x1="25.058096"
       y1="47.027729"
       x2="25.058096"
       y2="39.999443" /><linearGradient
       gradientTransform="matrix(1.4324324,0,0,1.4362832,-7.3783796,-7.3995521)"
       gradientUnits="userSpaceOnUse"
       xlink:href="#linearGradient3924-2-2-5-8"
       id="linearGradient3381-5-4"
       y2="46.230125"
       x2="38.660378"
       y1="5.8481169"
       x1="38.660378" /><linearGradient
       id="linearGradient3924-2-2-5-8"><stop
         offset="0"
         style="stop-color:#ffffff;stop-opacity:1"
         id="stop3926-9-4-9-6" /><stop
         offset="0.06316455"
         style="stop-color:#ffffff;stop-opacity:0.23529412"
         id="stop3928-9-8-6-5" /><stop
         offset="0.95056331"
         style="stop-color:#ffffff;stop-opacity:0.15686275"
         id="stop3930-3-5-1-7" /><stop
         offset="1"
         style="stop-color:#ffffff;stop-opacity:0.39215687"
         id="stop3932-8-0-4-8" /></linearGradient><linearGradient
       gradientTransform="matrix(0.47054764,0,0,0.47457626,-60.688645,-0.1484071)"
       gradientUnits="userSpaceOnUse"
       xlink:href="#linearGradient916"
       id="linearGradient5809"
       y2="55.027"
       x2="161.97743"
       y1="10.027002"
       x1="161.97743" /><linearGradient
       y2="63.027"
       x2="161.97743"
       y1="5.1520023"
       x1="161.97743"
       gradientTransform="matrix(0.4705882,0,0,0.47457626,-60.695255,-0.1484071)"
       gradientUnits="userSpaceOnUse"
       id="linearGradient910"
       xlink:href="#linearGradient899" /><linearGradient
       gradientUnits="userSpaceOnUse"
       y2="60"
       x2="32"
       y1="0"
       x1="32"
       id="linearGradient904"
       xlink:href="#linearGradient902" /><linearGradient
       y2="63.027"
       x2="161.97743"
       y1="5.1520023"
       x1="161.97743"
       gradientTransform="matrix(0.94117646,0,0,0.94915254,-73.044014,10.801587)"
       gradientUnits="userSpaceOnUse"
       id="linearGradient910-3"
       xlink:href="#linearGradient899" /><linearGradient
       y2="63.027"
       x2="161.97743"
       y1="5.1520023"
       x1="161.97743"
       gradientTransform="matrix(0.47054764,0,0,0.47457626,-76.305129,-44.360347)"
       gradientUnits="userSpaceOnUse"
       id="linearGradient910-5"
       xlink:href="#linearGradient899" /><filter
       inkscape:collect="always"
       style="color-interpolation-filters:sRGB"
       id="filter1218"
       x="-0.00052002417"
       width="1.00104"
       y="-0.00044569656"
       height="1.0008914"><feGaussianBlur
         inkscape:collect="always"
         stdDeviation="0.0051997931"
         id="feGaussianBlur1220" /></filter></defs><metadata
     id="metadata7"><rdf:RDF><cc:Work
         rdf:about=""><dc:format>image/svg+xml</dc:format><dc:type
           rdf:resource="http://purl.org/dc/dcmitype/StillImage" /></cc:Work></rdf:RDF></metadata><path
     width="23.997931"
     height="28"
     rx="0"
     ry="0"
     x="4.0010357"
     y="2.7520487"
     id="rect4897-1"
     style="opacity:0.2;vector-effect:none;fill:#000000;fill-opacity:1;stroke:none;stroke-width:0.472558;stroke-linecap:butt;stroke-linejoin:miter;stroke-miterlimit:4;stroke-dasharray:none;stroke-dashoffset:0;stroke-opacity:1;filter:url(#filter1218)"
     inkscape:path-effect="#path-effect881"
     d="M 6.0010357,2.7520487 H 25.998966 a 2,2 45 0 1 2,2 V 28.752049 a 2,2 135 0 1 -2,2 H 6.0010357 a 2,2 45 0 1 -2,-2 V 4.7520487 a 2,2 135 0 1 2,-2 z"
     sodipodi:type="rect" /><path
     width="24"
     height="28"
     rx="0"
     ry="0"
     x="4"
     y="2"
     id="rect4897"
     style="opacity:1;vector-effect:none;fill:#f08705;fill-opacity:1;stroke:none;stroke-width:0.472578;stroke-linecap:butt;stroke-linejoin:miter;stroke-miterlimit:4;stroke-dasharray:none;stroke-dashoffset:0;stroke-opacity:1"
     inkscape:path-effect="#path-effect879"
     d="m 6,2 h 20 a 2,2 45 0 1 2,2 v 24 a 2,2 135 0 1 -2,2 H 6 A 2,2 45 0 1 4,28 V 4 A 2,2 135 0 1 6,2 Z"
     sodipodi:type="rect" /><path
     d="M 22.613161,18.348919 H 20.449614 L 18.432537,14.854666 H 18.5639 a 0.73497534,0.73497534 0 0 0 0.735632,-0.735632 V 10.992597 A 0.73497534,0.73497534 0 0 0 18.5639,10.256965 h -4.042693 a 0.73497534,0.73497534 0 0 0 -0.735632,0.735632 v 3.126437 a 0.73497534,0.73497534 0 0 0 0.735632,0.735632 h 0.134647 l -2.017077,3.494253 h -2.163548 a 0.73497534,0.73497534 0 0 0 -0.7356321,0.735632 v 3.126436 a 0.73497534,0.73497534 0 0 0 0.7356321,0.735633 h 4.045978 a 0.73497534,0.73497534 0 0 0 0.735632,-0.735633 V 19.084551 A 0.73497534,0.73497534 0 0 0 14.521207,18.348919 H 13.91234 l 2.017734,-3.494253 h 1.228243 l 2.017077,3.494253 h -0.60821 a 0.73497534,0.73497534 0 0 0 -0.735632,0.735632 v 3.126436 a 0.73497534,0.73497534 0 0 0 0.735632,0.735633 h 4.045977 a 0.73497534,0.73497534 0 0 0 0.735632,-0.735633 v -3.126436 a 0.73497534,0.73497534 0 0 0 -0.735632,-0.735632 z"
     style="opacity:0.3;fill:#000000;stroke-width:0.656814"
     id="path291-3" /><path
     d="m 22.068966,17.747127 h -2.163547 l -2.017077,-3.494253 h 0.131363 a 0.73497534,0.73497534 0 0 0 0.735632,-0.735632 V 10.390805 A 0.73497534,0.73497534 0 0 0 18.019705,9.6551724 H 13.977012 A 0.73497534,0.73497534 0 0 0 13.24138,10.390805 v 3.126437 a 0.73497534,0.73497534 0 0 0 0.735632,0.735632 h 0.134647 l -2.017077,3.494253 H 9.9310341 a 0.73497534,0.73497534 0 0 0 -0.735632,0.735632 v 3.126436 a 0.73497534,0.73497534 0 0 0 0.735632,0.735633 h 4.0459779 a 0.73497534,0.73497534 0 0 0 0.735632,-0.735633 v -3.126436 a 0.73497534,0.73497534 0 0 0 -0.735632,-0.735632 h -0.608867 l 2.017734,-3.494253 h 1.228243 l 2.017077,3.494253 h -0.60821 a 0.73497534,0.73497534 0 0 0 -0.735632,0.735632 v 3.126436 a 0.73497534,0.73497534 0 0 0 0.735632,0.735633 h 4.045977 a 0.73497534,0.73497534 0 0 0 0.735632,-0.735633 v -3.126436 a 0.73497534,0.73497534 0 0 0 -0.735632,-0.735632 z"
     style="fill:#ffffff;stroke-width:0.656814"
     id="path291" /></svg>
