<?xml version="1.0" encoding="UTF-8" standalone="no"?>
<svg
   width="32"
   height="32"
   id="svg2"
   version="1.1"
   sodipodi:docname="application-vnd.dart.svg"
   inkscape:version="1.1 (c68e22c387, 2021-05-23)"
   xmlns:inkscape="http://www.inkscape.org/namespaces/inkscape"
   xmlns:sodipodi="http://sodipodi.sourceforge.net/DTD/sodipodi-0.dtd"
   xmlns:xlink="http://www.w3.org/1999/xlink"
   xmlns="http://www.w3.org/2000/svg"
   xmlns:svg="http://www.w3.org/2000/svg"
   xmlns:rdf="http://www.w3.org/1999/02/22-rdf-syntax-ns#"
   xmlns:cc="http://creativecommons.org/ns#"
   xmlns:dc="http://purl.org/dc/elements/1.1/">
  <sodipodi:namedview
     pagecolor="#ffffff"
     bordercolor="#666666"
     borderopacity="1"
     objecttolerance="10"
     gridtolerance="10"
     guidetolerance="10"
     inkscape:pageopacity="0"
     inkscape:pageshadow="2"
     inkscape:window-width="1920"
     inkscape:window-height="1002"
     id="namedview47"
     showgrid="false"
     inkscape:zoom="10.429825"
     inkscape:cx="-20.61396"
     inkscape:cy="18.025231"
     inkscape:window-x="0"
     inkscape:window-y="0"
     inkscape:window-maximized="1"
     inkscape:current-layer="svg2"
     inkscape:document-rotation="0"
     inkscape:pagecheckerboard="0" />
  <defs
     id="defs4">
    <inkscape:path-effect
       effect="fillet_chamfer"
       id="path-effect343"
       is_visible="true"
       lpeversion="1"
       satellites_param="F,0,0,1,0,2,0,10 @ F,0,0,1,0,2,0,10 @ F,0,0,1,0,2,0,10 @ F,0,0,1,0,2,0,10"
       unit="px"
       method="auto"
       mode="F"
       radius="2"
       chamfer_steps="10"
       flexible="false"
       use_knot_distance="true"
       apply_no_radius="true"
       apply_with_radius="true"
       only_selected="false"
       hide_knots="false" />
    <inkscape:path-effect
       effect="fillet_chamfer"
       id="path-effect341"
       is_visible="true"
       lpeversion="1"
       satellites_param="F,0,0,1,0,2,0,10 @ F,0,0,1,0,2,0,10 @ F,0,0,1,0,2,0,10 @ F,0,0,1,0,2,0,10"
       unit="px"
       method="auto"
       mode="F"
       radius="2"
       chamfer_steps="10"
       flexible="false"
       use_knot_distance="true"
       apply_no_radius="true"
       apply_with_radius="true"
       only_selected="false"
       hide_knots="false" />
    <inkscape:path-effect
       effect="fillet_chamfer"
       id="path-effect339"
       is_visible="true"
       lpeversion="1"
       satellites_param="F,0,0,1,0,2,0,10 @ F,0,0,1,0,2,0,10 @ F,0,0,1,0,2,0,10 @ F,0,0,1,0,2,0,10"
       unit="px"
       method="auto"
       mode="F"
       radius="2"
       chamfer_steps="10"
       flexible="false"
       use_knot_distance="true"
       apply_no_radius="true"
       apply_with_radius="true"
       only_selected="false"
       hide_knots="false" />
    <linearGradient
       id="linearGradient902">
      <stop
         id="stop898"
         offset="0"
         style="stop-color:#770087;stop-opacity:1;" />
      <stop
         id="stop900"
         offset="1"
         style="stop-color:#452981;stop-opacity:1" />
    </linearGradient>
    <linearGradient
       id="linearGradient899">
      <stop
         id="stop895"
         style="stop-color:#f282f1;stop-opacity:1"
         offset="0" />
      <stop
         id="stop897"
         style="stop-color:#a56de2;stop-opacity:1"
         offset="1" />
    </linearGradient>
    <linearGradient
       id="linearGradient916">
      <stop
         id="stop912"
         style="stop-color:#ffffff;stop-opacity:1"
         offset="0" />
      <stop
         id="stop914"
         style="stop-color:#fafafa;stop-opacity:1"
         offset="1" />
    </linearGradient>
    <linearGradient
       id="linearGradient3688-166-749-654">
      <stop
         id="stop3088"
         style="stop-color:#181818;stop-opacity:1"
         offset="0" />
      <stop
         id="stop3090"
         style="stop-color:#181818;stop-opacity:0"
         offset="1" />
    </linearGradient>
    <linearGradient
       id="linearGradient3688-464-309-604">
      <stop
         id="stop3094"
         style="stop-color:#181818;stop-opacity:1"
         offset="0" />
      <stop
         id="stop3096"
         style="stop-color:#181818;stop-opacity:0"
         offset="1" />
    </linearGradient>
    <linearGradient
       id="linearGradient3702-501-757-795">
      <stop
         id="stop3100"
         style="stop-color:#181818;stop-opacity:0"
         offset="0" />
      <stop
         id="stop3102"
         style="stop-color:#181818;stop-opacity:1"
         offset="0.5" />
      <stop
         id="stop3104"
         style="stop-color:#181818;stop-opacity:0"
         offset="1" />
    </linearGradient>
    <radialGradient
       xlink:href="#linearGradient3688-166-749-654"
       id="radialGradient4730"
       gradientUnits="userSpaceOnUse"
       gradientTransform="matrix(3.2060542,2.6349059e-7,-8.2185947e-8,1.0000077,36.981009,15.99962)"
       cx="4.9964824"
       cy="43.5"
       fx="4.9964824"
       fy="43.5"
       r="2.5" />
    <radialGradient
       xlink:href="#linearGradient3688-464-309-604"
       id="radialGradient4732"
       gradientUnits="userSpaceOnUse"
       gradientTransform="matrix(3.163875,0,0,0.99999995,-29.702994,-103.00012)"
       cx="4.9929786"
       cy="43.5"
       fx="4.9929786"
       fy="43.5"
       r="2.5" />
    <linearGradient
       xlink:href="#linearGradient3702-501-757-795"
       id="linearGradient4734"
       gradientUnits="userSpaceOnUse"
       gradientTransform="matrix(1.3928572,0,0,0.71428561,-0.0214163,28.42862)"
       x1="25.058096"
       y1="47.027729"
       x2="25.058096"
       y2="39.999443" />
    <linearGradient
       gradientTransform="matrix(1.4324324,0,0,1.4362832,-7.3783796,-7.3995521)"
       gradientUnits="userSpaceOnUse"
       xlink:href="#linearGradient3924-2-2-5-8"
       id="linearGradient3381-5-4"
       y2="46.230125"
       x2="38.660378"
       y1="5.8481169"
       x1="38.660378" />
    <linearGradient
       id="linearGradient3924-2-2-5-8">
      <stop
         offset="0"
         style="stop-color:#ffffff;stop-opacity:1"
         id="stop3926-9-4-9-6" />
      <stop
         offset="0.06316455"
         style="stop-color:#ffffff;stop-opacity:0.23529412"
         id="stop3928-9-8-6-5" />
      <stop
         offset="0.95056331"
         style="stop-color:#ffffff;stop-opacity:0.15686275"
         id="stop3930-3-5-1-7" />
      <stop
         offset="1"
         style="stop-color:#ffffff;stop-opacity:0.39215687"
         id="stop3932-8-0-4-8" />
    </linearGradient>
    <linearGradient
       gradientTransform="matrix(0.47054764,0,0,0.47457626,-60.688645,-0.1484071)"
       gradientUnits="userSpaceOnUse"
       xlink:href="#linearGradient916"
       id="linearGradient5809"
       y2="55.027"
       x2="161.97743"
       y1="10.027002"
       x1="161.97743" />
    <linearGradient
       y2="63.027"
       x2="161.97743"
       y1="5.1520023"
       x1="161.97743"
       gradientTransform="matrix(0.4705882,0,0,0.47457626,-60.695255,-0.1484071)"
       gradientUnits="userSpaceOnUse"
       id="linearGradient910"
       xlink:href="#linearGradient899" />
    <linearGradient
       gradientUnits="userSpaceOnUse"
       y2="60"
       x2="32"
       y1="0"
       x1="32"
       id="linearGradient904"
       xlink:href="#linearGradient902" />
    <linearGradient
       y2="63.027"
       x2="161.97743"
       y1="5.1520023"
       x1="161.97743"
       gradientTransform="matrix(0.94117646,0,0,0.94915254,-73.044014,10.801587)"
       gradientUnits="userSpaceOnUse"
       id="linearGradient910-3"
       xlink:href="#linearGradient899" />
    <linearGradient
       y2="63.027"
       x2="161.97743"
       y1="5.1520023"
       x1="161.97743"
       gradientTransform="matrix(0.47054764,0,0,0.47457626,-76.305129,-44.360347)"
       gradientUnits="userSpaceOnUse"
       id="linearGradient910-5"
       xlink:href="#linearGradient899" />
    <filter
       inkscape:collect="always"
       style="color-interpolation-filters:sRGB"
       id="filter1218"
       x="-0.00052002417"
       width="1.00104"
       y="-0.00044569657"
       height="1.0008914">
      <feGaussianBlur
         inkscape:collect="always"
         stdDeviation="0.0051997931"
         id="feGaussianBlur1220" />
    </filter>
    <inkscape:path-effect
       effect="fillet_chamfer"
       id="path-effect889"
       is_visible="true"
       lpeversion="1"
       satellites_param="F,0,0,1,0,1,0,10 @ F,0,0,1,0,1,0,10 @ F,0,0,1,0,1,0,10 @ F,0,0,1,0,1,0,10"
       unit="px"
       method="auto"
       mode="F"
       radius="1"
       chamfer_steps="10"
       flexible="false"
       use_knot_distance="true"
       apply_no_radius="true"
       apply_with_radius="true"
       only_selected="false"
       hide_knots="false" />
    <inkscape:path-effect
       effect="fillet_chamfer"
       id="path-effect887"
       is_visible="true"
       lpeversion="1"
       satellites_param="F,0,0,1,0,1,0,10 @ F,0,0,1,0,1,0,10 @ F,0,0,1,0,1,0,10 @ F,0,0,1,0,1,0,10"
       unit="px"
       method="auto"
       mode="F"
       radius="1"
       chamfer_steps="10"
       flexible="false"
       use_knot_distance="true"
       apply_no_radius="true"
       apply_with_radius="true"
       only_selected="false"
       hide_knots="false" />
    <inkscape:path-effect
       effect="fillet_chamfer"
       id="path-effect885"
       is_visible="true"
       lpeversion="1"
       satellites_param="F,0,0,1,0,1,0,10 @ F,0,0,1,0,1,0,10 @ F,0,0,1,0,1,0,10 @ F,0,0,1,0,1,0,10"
       unit="px"
       method="auto"
       mode="F"
       radius="1"
       chamfer_steps="10"
       flexible="false"
       use_knot_distance="true"
       apply_no_radius="true"
       apply_with_radius="true"
       only_selected="false"
       hide_knots="false" />
    <radialGradient
       xlink:href="#linearGradient3688-166-749-654"
       id="radialGradient4730-06"
       gradientUnits="userSpaceOnUse"
       gradientTransform="matrix(3.2060542,2.6349059e-7,-8.2185947e-8,1.0000077,36.981009,15.99962)"
       cx="4.9964824"
       cy="43.5"
       fx="4.9964824"
       fy="43.5"
       r="2.5" />
    <radialGradient
       xlink:href="#linearGradient3688-166-749-654"
       id="radialGradient4732-2"
       gradientUnits="userSpaceOnUse"
       gradientTransform="matrix(3.163875,0,0,0.99999995,-29.702994,-103.00012)"
       cx="4.9929786"
       cy="43.5"
       fx="4.9929786"
       fy="43.5"
       r="2.5" />
    <radialGradient
       xlink:href="#linearGradient3688-166-749-654"
       id="radialGradient4730-0"
       gradientUnits="userSpaceOnUse"
       gradientTransform="matrix(3.2060542,2.6349059e-7,-8.2185947e-8,1.0000077,36.981009,15.99962)"
       cx="4.9964824"
       cy="43.5"
       fx="4.9964824"
       fy="43.5"
       r="2.5" />
    <radialGradient
       xlink:href="#linearGradient3688-166-749-654"
       id="radialGradient4732-6"
       gradientUnits="userSpaceOnUse"
       gradientTransform="matrix(3.163875,0,0,0.99999995,-29.702994,-103.00012)"
       cx="4.9929786"
       cy="43.5"
       fx="4.9929786"
       fy="43.5"
       r="2.5" />
    <radialGradient
       xlink:href="#linearGradient3688-166-749-654"
       id="radialGradient4730-9"
       gradientUnits="userSpaceOnUse"
       gradientTransform="matrix(3.2060542,2.6349059e-7,-8.2185947e-8,1.0000077,36.981009,15.99962)"
       cx="4.9964824"
       cy="43.5"
       fx="4.9964824"
       fy="43.5"
       r="2.5" />
    <radialGradient
       xlink:href="#linearGradient3688-166-749-654"
       id="radialGradient4732-4"
       gradientUnits="userSpaceOnUse"
       gradientTransform="matrix(3.163875,0,0,0.99999995,-29.702994,-103.00012)"
       cx="4.9929786"
       cy="43.5"
       fx="4.9929786"
       fy="43.5"
       r="2.5" />
  </defs>
  <metadata
     id="metadata7">
    <rdf:RDF>
      <cc:Work
         rdf:about="">
        <dc:format>image/svg+xml</dc:format>
        <dc:type
           rdf:resource="http://purl.org/dc/dcmitype/StillImage" />
      </cc:Work>
    </rdf:RDF>
  </metadata>
  <path
     width="23.997931"
     height="28"
     rx="0"
     ry="0"
     x="4.0010357"
     y="2.7520487"
     id="rect4897-1"
     style="opacity:0.2;vector-effect:none;fill:#000000;fill-opacity:1;stroke:none;stroke-width:0.472558;stroke-linecap:butt;stroke-linejoin:miter;stroke-miterlimit:4;stroke-dasharray:none;stroke-dashoffset:0;stroke-opacity:1;filter:url(#filter1218)"
     inkscape:path-effect="#path-effect343"
     d="M 6.0010357,2.7520487 H 25.998966 a 2,2 45 0 1 2,2 V 28.752049 a 2,2 135 0 1 -2,2 H 6.0010357 a 2,2 45 0 1 -2,-2 V 4.7520487 a 2,2 135 0 1 2,-2 z"
     sodipodi:type="rect" />
  <path
     width="24"
     height="28"
     rx="0"
     ry="0"
     x="4"
     y="2"
     id="rect4897"
     style="opacity:1;vector-effect:none;fill:#eeeeee;fill-opacity:1;stroke:none;stroke-width:0.472578;stroke-linecap:butt;stroke-linejoin:miter;stroke-miterlimit:4;stroke-dasharray:none;stroke-dashoffset:0;stroke-opacity:1"
     inkscape:path-effect="#path-effect341"
     d="m 6,2 h 20 a 2,2 45 0 1 2,2 v 24 a 2,2 135 0 1 -2,2 H 6 A 2,2 45 0 1 4,28 V 4 A 2,2 135 0 1 6,2 Z"
     sodipodi:type="rect" />
  <g
     id="g5880"
     transform="matrix(1.4328187,0,0,1.4328187,-6.1306929,-7.6267577)">
    <path
       d="m 12.895328,12.664351 a 0.31877952,0.31877952 0 0 0 0.318779,0.318779 h 7.650709 a 0.31877952,0.31877952 0 0 0 0,-0.637559 h -7.650709 a 0.31877952,0.31877952 0 0 0 -0.318779,0.31878 z"
       id="path5662"
       style="fill:#808080;stroke-width:0.0398474" />
    <path
       d="m 10.026312,14.895807 h 6.37559 a 0.31877952,0.31877952 0 0 0 0,-0.637559 h -6.37559 a 0.31877952,0.31877952 0 0 0 0,0.637559 z"
       id="path5664"
       style="fill:#808080;stroke-width:0.0398474" />
    <path
       d="m 20.864816,16.170925 h -5.738032 a 0.31877952,0.31877952 0 0 0 0,0.637559 h 5.738032 a 0.31877952,0.31877952 0 0 0 0,-0.637559 z"
       id="path5666"
       style="fill:#808080;stroke-width:0.0398474" />
    <path
       d="m 10.026312,18.721161 h 7.650709 a 0.31877952,0.31877952 0 0 0 0,-0.637559 h -7.650709 a 0.31877952,0.31877952 0 0 0 0,0.637559 z"
       id="path5668"
       style="fill:#808080;stroke-width:0.0398474" />
    <path
       d="m 10.026312,12.98313 h 1.912677 a 0.31877952,0.31877952 0 0 0 0,-0.637559 h -1.912677 a 0.31877952,0.31877952 0 0 0 0,0.637559 z"
       id="path5670"
       style="fill:#808080;stroke-width:0.0398474" />
    <path
       d="m 20.864816,14.258248 h -3.187795 a 0.31877952,0.31877952 0 0 0 0,0.637559 h 3.187795 a 0.31877952,0.31877952 0 0 0 0,-0.637559 z"
       id="path5672"
       style="fill:#808080;stroke-width:0.0398474" />
    <path
       d="m 10.026312,16.808484 h 3.825354 a 0.31877952,0.31877952 0 0 0 0,-0.637559 h -3.825354 a 0.31877952,0.31877952 0 0 0 0,0.637559 z"
       id="path5674"
       style="fill:#808080;stroke-width:0.0398474" />
    <path
       d="m 20.864816,18.083602 h -1.912677 a 0.31877952,0.31877952 0 0 0 0,0.637559 h 1.912677 a 0.31877952,0.31877952 0 0 0 0,-0.637559 z"
       id="path5676"
       style="fill:#808080;stroke-width:0.0398474" />
    <path
       d="m 18.31458,21.908957 h -3.187796 a 0.31877952,0.31877952 0 0 0 0,0.637559 h 3.187796 a 0.31877952,0.31877952 0 0 0 0,-0.637559 z"
       id="path5678"
       style="fill:#808080;stroke-width:0.0398474" />
    <path
       d="m 10.026312,22.546516 h 3.825354 a 0.31877952,0.31877952 0 0 0 0,-0.637559 h -3.825354 a 0.31877952,0.31877952 0 0 0 0,0.637559 z"
       id="path5680"
       style="fill:#808080;stroke-width:0.0398474" />
    <path
       d="m 10.026312,20.633839 h 2.550236 a 0.31878,0.31878 0 0 0 0,-0.63756 h -2.550236 a 0.31878,0.31878 0 0 0 0,0.63756 z"
       id="path5682"
       style="fill:#808080;stroke-width:0.0398474" />
    <path
       d="m 10.026312,11.070453 h 3.825354 a 0.31877952,0.31877952 0 0 0 0,-0.637559 h -3.825354 a 0.31877952,0.31877952 0 0 0 0,0.637559 z"
       id="path5684"
       style="fill:#808080;stroke-width:0.0398474" />
    <path
       d="m 17.358241,20.315059 a 0.31877952,0.31877952 0 0 0 -0.318779,-0.31878 h -3.187796 a 0.31878,0.31878 0 0 0 0,0.63756 h 3.187796 a 0.31877952,0.31877952 0 0 0 0.318779,-0.31878 z"
       id="path5686"
       style="fill:#808080;stroke-width:0.0398474" />
    <path
       d="M 20.864816,19.996279 H 18.31458 a 0.31878,0.31878 0 0 0 0,0.63756 h 2.550236 a 0.31878,0.31878 0 0 0 0,-0.63756 z"
       id="path5688"
       style="fill:#808080;stroke-width:0.0398474" />
    <path
       d="m 20.864816,21.908957 h -1.275118 a 0.31877952,0.31877952 0 0 0 0,0.637559 h 1.275118 a 0.31877952,0.31877952 0 0 0 0,-0.637559 z"
       id="path5690"
       style="fill:#808080;stroke-width:0.0398474" />
  </g>
  <path
     id="rect7379"
     style="opacity:1;fill:#00b8a9;stroke-width:0.428245;fill-opacity:1"
     d="m 2,6 h 14 a 2,2 45 0 1 2,2 v 4 a 2,2 135 0 1 -2,2 L 2,14 A 2,2 45 0 1 0,12 V 8 A 2,2 135 0 1 2,6 Z"
     inkscape:path-effect="#path-effect339"
     inkscape:original-d="m 0,6 h 18 v 8 H 0 Z" />
  <g
     aria-label="Dart"
     id="text1299"
     style="font-size:6.66667px;line-height:1.25">
    <path
       d="m 2.7776666,8.0631499 v 3.7792991 h 0.7942712 q 1.0058598,0 1.4713548,-0.45573 0.4687503,-0.455729 0.4687503,-1.4388025 0,-0.976563 -0.4687503,-1.4290372 Q 4.5777976,8.0631499 3.5719378,8.0631499 Z M 2.1201142,7.5227851 h 1.3509121 q 1.4127611,0 2.0735687,0.589193 0.6608076,0.5859378 0.6608076,1.8359384 0,1.2565105 -0.6640628,1.8457035 -0.6640629,0.589193 -2.0703135,0.589193 H 2.1201142 Z"
       style="fill:#ffffff"
       id="path3735" />
    <path
       d="m 8.8844401,10.55013 q -0.7259118,0 -1.0058599,0.166016 -0.279948,0.166016 -0.279948,0.566407 0,0.31901 0.2083334,0.507812 0.2115887,0.185547 0.5729169,0.185547 0.4980472,0 0.7975265,-0.351562 0.3027345,-0.354818 0.3027345,-0.940756 V 10.55013 Z m 1.1946619,-0.247396 v 2.080079 H 9.4801435 v -0.553385 q -0.2050782,0.332031 -0.511068,0.491536 -0.3059897,0.156251 -0.7486982,0.156251 -0.5598961,0 -0.8919275,-0.312501 -0.3287762,-0.315755 -0.3287762,-0.843099 0,-0.615235 0.4101564,-0.927735 0.4134117,-0.3125 1.2304693,-0.3125 h 0.8398442 v -0.05859 q 0,-0.4134114 -0.2734376,-0.6380209 -0.2701825,-0.2278646 -0.7617192,-0.2278646 -0.3125001,0 -0.6087242,0.07487 -0.2962241,0.07487 -0.5696617,0.2246095 V 8.9029941 Q 7.595377,8.7760409 7.9046219,8.7141919 q 0.3092449,-0.065104 0.6022138,-0.065104 0.791016,0 1.1816412,0.4101565 0.3906251,0.4101564 0.3906251,1.2434898 z"
       style="fill:#ffffff"
       id="path3737" />
    <path
       d="m 13.425458,9.2968745 q -0.100912,-0.058594 -0.221355,-0.084635 -0.117187,-0.029297 -0.260417,-0.029297 -0.507812,0 -0.78125,0.3320314 -0.270182,0.3287762 -0.270182,0.9472665 v 1.920573 H 11.29004 V 8.7369784 h 0.602214 v 0.5664065 q 0.188802,-0.3320314 0.491536,-0.4915367 0.302735,-0.1627605 0.735678,-0.1627605 0.06185,0 0.136719,0.00977 0.07487,0.00651 0.166015,0.022786 z"
       style="fill:#ffffff"
       id="path3739" />
    <path
       d="m 14.646161,7.7018216 v 1.0351568 h 1.233725 v 0.465495 h -1.233725 v 1.9791676 q 0,0.445964 0.120443,0.572917 0.123698,0.126953 0.498047,0.126953 h 0.615235 v 0.501302 h -0.615235 q -0.69336,0 -0.957032,-0.257161 -0.263672,-0.260417 -0.263672,-0.944011 V 9.2024734 h -0.439453 v -0.465495 h 0.439453 V 7.7018216 Z"
       style="fill:#ffffff"
       id="path3741" />
  </g>
</svg>
