<?xml version="1.0" encoding="UTF-8" standalone="no"?>
<svg
   width="32"
   height="32"
   id="svg2"
   version="1.1"
   sodipodi:docname="application-vnd.ms-publisher.svg"
   inkscape:version="1.2.1 (9c6d41e410, 2022-07-14)"
   xml:space="preserve"
   xmlns:inkscape="http://www.inkscape.org/namespaces/inkscape"
   xmlns:sodipodi="http://sodipodi.sourceforge.net/DTD/sodipodi-0.dtd"
   xmlns:xlink="http://www.w3.org/1999/xlink"
   xmlns="http://www.w3.org/2000/svg"
   xmlns:svg="http://www.w3.org/2000/svg"
   xmlns:rdf="http://www.w3.org/1999/02/22-rdf-syntax-ns#"
   xmlns:cc="http://creativecommons.org/ns#"
   xmlns:dc="http://purl.org/dc/elements/1.1/"><sodipodi:namedview
     pagecolor="#ffffff"
     bordercolor="#666666"
     borderopacity="1"
     objecttolerance="10"
     gridtolerance="10"
     guidetolerance="10"
     inkscape:pageopacity="0"
     inkscape:pageshadow="2"
     inkscape:window-width="1920"
     inkscape:window-height="1006"
     id="namedview47"
     showgrid="false"
     inkscape:zoom="14.75"
     inkscape:cx="-10.779661"
     inkscape:cy="11.830508"
     inkscape:window-x="0"
     inkscape:window-y="1237"
     inkscape:window-maximized="1"
     inkscape:current-layer="svg2"
     inkscape:document-rotation="0"
     inkscape:pagecheckerboard="0"
     inkscape:showpageshadow="2"
     inkscape:deskcolor="#d1d1d1" /><defs
     id="defs4"><inkscape:path-effect
   effect="fillet_chamfer"
   id="path-effect54"
   is_visible="true"
   lpeversion="1"
   satellites_param="F,0,0,1,0,2,0,10 @ F,0,0,1,0,2,0,10 @ F,0,0,1,0,2,0,10 @ F,0,0,1,0,2,0,10"
   unit="px"
   method="auto"
   mode="F"
   radius="2"
   chamfer_steps="10"
   flexible="false"
   use_knot_distance="true"
   apply_no_radius="true"
   apply_with_radius="true"
   only_selected="false"
   hide_knots="false"
   nodesatellites_param="F,0,0,1,0,2,0,10 @ F,0,0,1,0,2,0,10 @ F,0,0,1,0,2,0,10 @ F,0,0,1,0,2,0,10" /><inkscape:path-effect
   effect="fillet_chamfer"
   id="path-effect52"
   is_visible="true"
   lpeversion="1"
   satellites_param="F,0,0,1,0,2,0,10 @ F,0,0,1,0,2,0,10 @ F,0,0,1,0,2,0,10 @ F,0,0,1,0,2,0,10"
   unit="px"
   method="auto"
   mode="F"
   radius="2"
   chamfer_steps="10"
   flexible="false"
   use_knot_distance="true"
   apply_no_radius="true"
   apply_with_radius="true"
   only_selected="false"
   hide_knots="false"
   nodesatellites_param="F,0,0,1,0,2,0,10 @ F,0,0,1,0,2,0,10 @ F,0,0,1,0,2,0,10 @ F,0,0,1,0,2,0,10" /><inkscape:path-effect
   effect="fillet_chamfer"
   id="path-effect50"
   is_visible="true"
   lpeversion="1"
   satellites_param="F,0,0,1,0,2,0,10 @ F,0,0,1,0,2,0,10 @ F,0,0,1,0,2,0,10 @ F,0,0,1,0,2,0,10"
   unit="px"
   method="auto"
   mode="F"
   radius="2"
   chamfer_steps="10"
   flexible="false"
   use_knot_distance="true"
   apply_no_radius="true"
   apply_with_radius="true"
   only_selected="false"
   hide_knots="false"
   nodesatellites_param="F,0,0,1,0,2,0,10 @ F,0,0,1,0,2,0,10 @ F,0,0,1,0,2,0,10 @ F,0,0,1,0,2,0,10" /><linearGradient
   id="linearGradient902"><stop
     id="stop898"
     offset="0"
     style="stop-color:#770087;stop-opacity:1;" /><stop
     id="stop900"
     offset="1"
     style="stop-color:#452981;stop-opacity:1" /></linearGradient><linearGradient
   id="linearGradient899"><stop
     id="stop895"
     style="stop-color:#f282f1;stop-opacity:1"
     offset="0" /><stop
     id="stop897"
     style="stop-color:#a56de2;stop-opacity:1"
     offset="1" /></linearGradient><linearGradient
   id="linearGradient916"><stop
     id="stop912"
     style="stop-color:#ffffff;stop-opacity:1"
     offset="0" /><stop
     id="stop914"
     style="stop-color:#fafafa;stop-opacity:1"
     offset="1" /></linearGradient><linearGradient
   id="linearGradient3688-166-749-654"><stop
     id="stop3088"
     style="stop-color:#181818;stop-opacity:1"
     offset="0" /><stop
     id="stop3090"
     style="stop-color:#181818;stop-opacity:0"
     offset="1" /></linearGradient><linearGradient
   id="linearGradient3688-464-309-604"><stop
     id="stop3094"
     style="stop-color:#181818;stop-opacity:1"
     offset="0" /><stop
     id="stop3096"
     style="stop-color:#181818;stop-opacity:0"
     offset="1" /></linearGradient><linearGradient
   id="linearGradient3702-501-757-795"><stop
     id="stop3100"
     style="stop-color:#181818;stop-opacity:0"
     offset="0" /><stop
     id="stop3102"
     style="stop-color:#181818;stop-opacity:1"
     offset="0.5" /><stop
     id="stop3104"
     style="stop-color:#181818;stop-opacity:0"
     offset="1" /></linearGradient><radialGradient
   xlink:href="#linearGradient3688-166-749-654"
   id="radialGradient4730"
   gradientUnits="userSpaceOnUse"
   gradientTransform="matrix(3.2060542,2.6349059e-7,-8.2185947e-8,1.0000077,36.981009,15.99962)"
   cx="4.9964824"
   cy="43.5"
   fx="4.9964824"
   fy="43.5"
   r="2.5" /><radialGradient
   xlink:href="#linearGradient3688-464-309-604"
   id="radialGradient4732"
   gradientUnits="userSpaceOnUse"
   gradientTransform="matrix(3.163875,0,0,0.99999995,-29.702994,-103.00012)"
   cx="4.9929786"
   cy="43.5"
   fx="4.9929786"
   fy="43.5"
   r="2.5" /><linearGradient
   xlink:href="#linearGradient3702-501-757-795"
   id="linearGradient4734"
   gradientUnits="userSpaceOnUse"
   gradientTransform="matrix(1.3928572,0,0,0.71428561,-0.0214163,28.42862)"
   x1="25.058096"
   y1="47.027729"
   x2="25.058096"
   y2="39.999443" /><linearGradient
   gradientTransform="matrix(1.4324324,0,0,1.4362832,-7.3783796,-7.3995521)"
   gradientUnits="userSpaceOnUse"
   xlink:href="#linearGradient3924-2-2-5-8"
   id="linearGradient3381-5-4"
   y2="46.230125"
   x2="38.660378"
   y1="5.8481169"
   x1="38.660378" /><linearGradient
   id="linearGradient3924-2-2-5-8"><stop
     offset="0"
     style="stop-color:#ffffff;stop-opacity:1"
     id="stop3926-9-4-9-6" /><stop
     offset="0.06316455"
     style="stop-color:#ffffff;stop-opacity:0.23529412"
     id="stop3928-9-8-6-5" /><stop
     offset="0.95056331"
     style="stop-color:#ffffff;stop-opacity:0.15686275"
     id="stop3930-3-5-1-7" /><stop
     offset="1"
     style="stop-color:#ffffff;stop-opacity:0.39215687"
     id="stop3932-8-0-4-8" /></linearGradient><linearGradient
   gradientTransform="matrix(0.47054764,0,0,0.47457626,-60.688645,-0.1484071)"
   gradientUnits="userSpaceOnUse"
   xlink:href="#linearGradient916"
   id="linearGradient5809"
   y2="55.027"
   x2="161.97743"
   y1="10.027002"
   x1="161.97743" /><linearGradient
   y2="63.027"
   x2="161.97743"
   y1="5.1520023"
   x1="161.97743"
   gradientTransform="matrix(0.4705882,0,0,0.47457626,-60.695255,-0.1484071)"
   gradientUnits="userSpaceOnUse"
   id="linearGradient910"
   xlink:href="#linearGradient899" /><linearGradient
   gradientUnits="userSpaceOnUse"
   y2="60"
   x2="32"
   y1="0"
   x1="32"
   id="linearGradient904"
   xlink:href="#linearGradient902" /><linearGradient
   y2="63.027"
   x2="161.97743"
   y1="5.1520023"
   x1="161.97743"
   gradientTransform="matrix(0.94117646,0,0,0.94915254,-73.044014,10.801587)"
   gradientUnits="userSpaceOnUse"
   id="linearGradient910-3"
   xlink:href="#linearGradient899" /><linearGradient
   y2="63.027"
   x2="161.97743"
   y1="5.1520023"
   x1="161.97743"
   gradientTransform="matrix(0.47054764,0,0,0.47457626,-76.305129,-44.360347)"
   gradientUnits="userSpaceOnUse"
   id="linearGradient910-5"
   xlink:href="#linearGradient899" /><filter
   inkscape:collect="always"
   style="color-interpolation-filters:sRGB"
   id="filter1218"
   x="-0.00052002417"
   width="1.00104"
   y="-0.00044569657"
   height="1.0008914"><feGaussianBlur
     inkscape:collect="always"
     stdDeviation="0.0051997931"
     id="feGaussianBlur1220" /></filter>
	

		
	
			
			
		</defs><metadata
     id="metadata7"><rdf:RDF><cc:Work
         rdf:about=""><dc:format>image/svg+xml</dc:format><dc:type
           rdf:resource="http://purl.org/dc/dcmitype/StillImage" /></cc:Work></rdf:RDF></metadata><path
     width="23.997931"
     height="28"
     rx="0"
     ry="0"
     x="4.0010357"
     y="2.7520487"
     id="rect4897-1"
     style="opacity:0.2;vector-effect:none;fill:#000000;fill-opacity:1;stroke:none;stroke-width:0.472558;stroke-linecap:butt;stroke-linejoin:miter;stroke-miterlimit:4;stroke-dasharray:none;stroke-dashoffset:0;stroke-opacity:1;filter:url(#filter1218)"
     inkscape:path-effect="#path-effect54"
     d="M 6.0010357,2.7520487 H 25.998966 a 2,2 45 0 1 2,2 V 28.752049 a 2,2 135 0 1 -2,2 H 6.0010357 a 2,2 45 0 1 -2,-2 V 4.7520487 a 2,2 135 0 1 2,-2 z"
     sodipodi:type="rect" /><path
     width="24"
     height="28"
     rx="0"
     ry="0"
     x="4"
     y="2"
     id="rect4897"
     style="opacity:1;vector-effect:none;fill:#eeeeee;fill-opacity:1;stroke:none;stroke-width:0.472578;stroke-linecap:butt;stroke-linejoin:miter;stroke-miterlimit:4;stroke-dasharray:none;stroke-dashoffset:0;stroke-opacity:1"
     inkscape:path-effect="#path-effect52"
     d="m 6,2 h 20 a 2,2 45 0 1 2,2 v 24 a 2,2 135 0 1 -2,2 H 6 A 2,2 45 0 1 4,28 V 4 A 2,2 135 0 1 6,2 Z"
     sodipodi:type="rect" /><path
     y="6"
     x="0"
     height="8"
     width="18"
     id="rect7379"
     style="opacity:1;fill:#008080;fill-opacity:1;stroke:none;stroke-width:0.428245"
     inkscape:path-effect="#path-effect50"
     d="m 2,6 h 14 a 2,2 45 0 1 2,2 v 4 a 2,2 135 0 1 -2,2 L 2,14 A 2,2 45 0 1 0,12 V 8 A 2,2 135 0 1 2,6 Z"
     sodipodi:type="rect" /><path
     style="fill:#008080;fill-opacity:1;stroke-width:0.0248905"
     d="M 21.013184,17.235302 H 10.986789 c -0.302346,0 -0.547428,0.197476 -0.547428,0.441042 v 6.233901 l 1.954555,-1.858135 c 0.164109,-0.156032 0.439861,-0.200693 0.666058,-0.107887 l 2.929086,1.201968 2.081061,-0.930028 c 0.2214,-0.09891 0.497984,-0.06269 0.668998,0.0876 l 2.82152,2.47869 v -7.10611 c -2.8e-5,-0.243566 -0.24511,-0.441042 -0.547455,-0.441042 z m -1.824721,3.87266 h -6.376954 c -0.302318,0 -0.547427,-0.197476 -0.547427,-0.441042 v -1.520444 c 0,-0.243566 0.245109,-0.441042 0.547427,-0.441042 h 6.376899 c 0.302317,0 0.547427,0.197476 0.547427,0.441042 v 1.520467 h 2.8e-5 c 0,0.243566 -0.245082,0.441019 -0.5474,0.441019 z"
     id="path334" /><path
     style="fill:#008080;fill-opacity:1;stroke-width:0.0248905;opacity:0.5"
     d="m 16.265533,24.031358 c -0.159201,0.07116 -0.351872,0.07386 -0.513984,0.0073 l -2.802441,-1.150024 -2.509747,2.385928 v 2.958494 c 0,0.243567 0.24511,0.441042 0.547428,0.441042 h 10.026395 c 0.302317,0 0.547427,-0.197475 0.547427,-0.441042 v -2.145557 l -3.33678,-2.931349 z m -0.315462,3.098485 h -3.138562 c -0.302318,0 -0.547427,-0.197475 -0.547427,-0.441041 0,-0.243567 0.245109,-0.441042 0.547427,-0.441042 h 3.138562 c 0.302318,0 0.547427,0.197475 0.547427,0.441042 0,0.24361 -0.245054,0.441041 -0.547427,0.441041 z m 0,-1.308179 h -3.138562 c -0.302318,0 -0.547427,-0.197475 -0.547427,-0.441041 0,-0.243566 0.245109,-0.441042 0.547427,-0.441042 h 3.138562 c 0.302318,0 0.547427,0.197476 0.547427,0.441042 0,0.243566 -0.245054,0.441041 -0.547427,0.441041 z"
     id="path336" /><g
     id="g344"
     style="fill:#008080;fill-opacity:1"
     transform="matrix(0.02773047,0,0,0.02234141,8.9009858,17.235302)">
</g><g
     id="g346"
     style="fill:#008080;fill-opacity:1"
     transform="matrix(0.02773047,0,0,0.02234141,8.9009858,17.235302)">
</g><g
     id="g348"
     style="fill:#008080;fill-opacity:1"
     transform="matrix(0.02773047,0,0,0.02234141,8.9009858,17.235302)">
</g><g
     id="g350"
     style="fill:#008080;fill-opacity:1"
     transform="matrix(0.02773047,0,0,0.02234141,8.9009858,17.235302)">
</g><g
     id="g352"
     style="fill:#008080;fill-opacity:1"
     transform="matrix(0.02773047,0,0,0.02234141,8.9009858,17.235302)">
</g><g
     id="g354"
     style="fill:#008080;fill-opacity:1"
     transform="matrix(0.02773047,0,0,0.02234141,8.9009858,17.235302)">
</g><g
     id="g356"
     style="fill:#008080;fill-opacity:1"
     transform="matrix(0.02773047,0,0,0.02234141,8.9009858,17.235302)">
</g><g
     id="g358"
     style="fill:#008080;fill-opacity:1"
     transform="matrix(0.02773047,0,0,0.02234141,8.9009858,17.235302)">
</g><g
     id="g360"
     style="fill:#008080;fill-opacity:1"
     transform="matrix(0.02773047,0,0,0.02234141,8.9009858,17.235302)">
</g><g
     id="g362"
     style="fill:#008080;fill-opacity:1"
     transform="matrix(0.02773047,0,0,0.02234141,8.9009858,17.235302)">
</g><g
     id="g364"
     style="fill:#008080;fill-opacity:1"
     transform="matrix(0.02773047,0,0,0.02234141,8.9009858,17.235302)">
</g><g
     id="g366"
     style="fill:#008080;fill-opacity:1"
     transform="matrix(0.02773047,0,0,0.02234141,8.9009858,17.235302)">
</g><g
     id="g368"
     style="fill:#008080;fill-opacity:1"
     transform="matrix(0.02773047,0,0,0.02234141,8.9009858,17.235302)">
</g><g
     id="g370"
     style="fill:#008080;fill-opacity:1"
     transform="matrix(0.02773047,0,0,0.02234141,8.9009858,17.235302)">
</g><g
     id="g372"
     style="fill:#008080;fill-opacity:1"
     transform="matrix(0.02773047,0,0,0.02234141,8.9009858,17.235302)">
</g><g
     aria-label="PUB"
     id="text1592"
     style="font-weight:bold;font-size:6px;font-family:'DejaVu Sans';-inkscape-font-specification:'DejaVu Sans Bold';opacity:1;fill:#ffffff;stroke-width:0.267"><path
       d="m 4.0356445,8.2568359 v 1.6435547 h 0.7441407 q 0.4130859,0 0.6386718,-0.2138672 0.225586,-0.2138671 0.225586,-0.609375 0,-0.3925781 -0.225586,-0.6064453 Q 5.1928711,8.2568359 4.7797852,8.2568359 Z M 3.4438477,7.7705078 h 1.3359375 q 0.7353515,0 1.1103515,0.3339844 0.3779297,0.3310547 0.3779297,0.9726562 0,0.647461 -0.3779297,0.9785156 -0.375,0.331055 -1.1103515,0.331055 H 4.0356445 v 1.757812 H 3.4438477 Z"
       style="font-weight:normal;-inkscape-font-specification:'DejaVu Sans'"
       id="path1644" /><path
       d="m 6.9946289,7.7705078 h 0.5947266 v 2.6572262 q 0,0.703125 0.2548828,1.013672 0.2548828,0.307617 0.8261719,0.307617 0.5683593,0 0.8232421,-0.307617 0.2548829,-0.310547 0.2548829,-1.013672 V 7.7705078 h 0.5947268 v 2.7304692 q 0,0.855468 -0.424805,1.291992 -0.421875,0.436523 -1.2480468,0.436523 -0.8291016,0 -1.2539063,-0.436523 -0.421875,-0.436524 -0.421875,-1.291992 z"
       style="font-weight:normal;-inkscape-font-specification:'DejaVu Sans'"
       id="path1646" /><path
       d="m 12.04541,10.055664 v 1.602539 h 0.949219 q 0.477539,0 0.706055,-0.196289 0.231445,-0.199219 0.231445,-0.606445 0,-0.410156 -0.231445,-0.603516 -0.228516,-0.196289 -0.706055,-0.196289 z m 0,-1.7988281 v 1.3183594 h 0.875977 q 0.433593,0 0.644531,-0.1611328 Q 13.779785,9.25 13.779785,8.9160156 q 0,-0.3310547 -0.213867,-0.4951172 Q 13.35498,8.2568359 12.921387,8.2568359 Z M 11.453613,7.7705078 h 1.511719 q 0.676758,0 1.042969,0.28125 0.366211,0.28125 0.366211,0.7998047 0,0.4013672 -0.1875,0.6386719 -0.1875,0.2373047 -0.550782,0.2958984 0.436524,0.09375 0.676758,0.3925782 0.243164,0.295898 0.243164,0.741211 0,0.585937 -0.398437,0.905273 -0.398438,0.319336 -1.133789,0.319336 h -1.570313 z"
       style="font-weight:normal;-inkscape-font-specification:'DejaVu Sans'"
       id="path1648" /></g></svg>
