<?xml version="1.0" encoding="UTF-8" standalone="no"?>
<svg
   inkscape:version="1.2.1 (9c6d41e410, 2022-07-14)"
   sodipodi:docname="application-x-troff-man.svg"
   version="1.1"
   id="svg2"
   height="32"
   width="32"
   xml:space="preserve"
   xmlns:inkscape="http://www.inkscape.org/namespaces/inkscape"
   xmlns:sodipodi="http://sodipodi.sourceforge.net/DTD/sodipodi-0.dtd"
   xmlns:xlink="http://www.w3.org/1999/xlink"
   xmlns="http://www.w3.org/2000/svg"
   xmlns:svg="http://www.w3.org/2000/svg"
   xmlns:rdf="http://www.w3.org/1999/02/22-rdf-syntax-ns#"
   xmlns:cc="http://creativecommons.org/ns#"
   xmlns:dc="http://purl.org/dc/elements/1.1/"><sodipodi:namedview
     inkscape:document-rotation="0"
     inkscape:current-layer="svg2"
     inkscape:window-maximized="1"
     inkscape:window-y="1237"
     inkscape:window-x="0"
     inkscape:cy="23.966102"
     inkscape:cx="-6.9152542"
     inkscape:zoom="14.75"
     showgrid="false"
     id="namedview47"
     inkscape:window-height="1006"
     inkscape:window-width="1920"
     inkscape:pageshadow="2"
     inkscape:pageopacity="0"
     guidetolerance="10"
     gridtolerance="10"
     objecttolerance="10"
     borderopacity="1"
     bordercolor="#666666"
     pagecolor="#ffffff"
     inkscape:showpageshadow="2"
     inkscape:pagecheckerboard="0"
     inkscape:deskcolor="#d1d1d1" /><defs
     id="defs4"><inkscape:path-effect
       effect="fillet_chamfer"
       id="path-effect870"
       is_visible="true"
       lpeversion="1"
       satellites_param="F,0,0,1,0,2,0,10 @ F,0,0,1,0,2,0,10 @ F,0,0,1,0,2,0,10 @ F,0,0,1,0,2,0,10"
       unit="px"
       method="auto"
       mode="F"
       radius="2"
       chamfer_steps="10"
       flexible="false"
       use_knot_distance="true"
       apply_no_radius="true"
       apply_with_radius="true"
       only_selected="false"
       hide_knots="false"
       nodesatellites_param="F,0,0,1,0,2,0,10 @ F,0,0,1,0,2,0,10 @ F,0,0,1,0,2,0,10 @ F,0,0,1,0,2,0,10" /><inkscape:path-effect
       effect="fillet_chamfer"
       id="path-effect868"
       is_visible="true"
       lpeversion="1"
       satellites_param="F,0,0,1,0,2,0,10 @ F,0,0,1,0,2,0,10 @ F,0,0,1,0,2,0,10 @ F,0,0,1,0,2,0,10"
       unit="px"
       method="auto"
       mode="F"
       radius="2"
       chamfer_steps="10"
       flexible="false"
       use_knot_distance="true"
       apply_no_radius="true"
       apply_with_radius="true"
       only_selected="false"
       hide_knots="false"
       nodesatellites_param="F,0,0,1,0,2,0,10 @ F,0,0,1,0,2,0,10 @ F,0,0,1,0,2,0,10 @ F,0,0,1,0,2,0,10" /><linearGradient
       id="linearGradient902"><stop
         style="stop-color:#770087;stop-opacity:1;"
         offset="0"
         id="stop898" /><stop
         style="stop-color:#452981;stop-opacity:1"
         offset="1"
         id="stop900" /></linearGradient><linearGradient
       id="linearGradient899"><stop
         offset="0"
         style="stop-color:#f282f1;stop-opacity:1"
         id="stop895" /><stop
         offset="1"
         style="stop-color:#a56de2;stop-opacity:1"
         id="stop897" /></linearGradient><linearGradient
       id="linearGradient916"><stop
         offset="0"
         style="stop-color:#ffffff;stop-opacity:1"
         id="stop912" /><stop
         offset="1"
         style="stop-color:#fafafa;stop-opacity:1"
         id="stop914" /></linearGradient><linearGradient
       id="linearGradient3688-166-749-654"><stop
         offset="0"
         style="stop-color:#181818;stop-opacity:1"
         id="stop3088" /><stop
         offset="1"
         style="stop-color:#181818;stop-opacity:0"
         id="stop3090" /></linearGradient><linearGradient
       id="linearGradient3688-464-309-604"><stop
         offset="0"
         style="stop-color:#181818;stop-opacity:1"
         id="stop3094" /><stop
         offset="1"
         style="stop-color:#181818;stop-opacity:0"
         id="stop3096" /></linearGradient><linearGradient
       id="linearGradient3702-501-757-795"><stop
         offset="0"
         style="stop-color:#181818;stop-opacity:0"
         id="stop3100" /><stop
         offset="0.5"
         style="stop-color:#181818;stop-opacity:1"
         id="stop3102" /><stop
         offset="1"
         style="stop-color:#181818;stop-opacity:0"
         id="stop3104" /></linearGradient><radialGradient
       r="2.5"
       fy="43.5"
       fx="4.9964824"
       cy="43.5"
       cx="4.9964824"
       gradientTransform="matrix(3.2060542,2.6349059e-7,-8.2185947e-8,1.0000077,36.981009,15.99962)"
       gradientUnits="userSpaceOnUse"
       id="radialGradient4730"
       xlink:href="#linearGradient3688-166-749-654" /><radialGradient
       r="2.5"
       fy="43.5"
       fx="4.9929786"
       cy="43.5"
       cx="4.9929786"
       gradientTransform="matrix(3.163875,0,0,0.99999995,-29.702994,-103.00012)"
       gradientUnits="userSpaceOnUse"
       id="radialGradient4732"
       xlink:href="#linearGradient3688-464-309-604" /><linearGradient
       y2="39.999443"
       x2="25.058096"
       y1="47.027729"
       x1="25.058096"
       gradientTransform="matrix(1.3928572,0,0,0.71428561,-0.0214163,28.42862)"
       gradientUnits="userSpaceOnUse"
       id="linearGradient4734"
       xlink:href="#linearGradient3702-501-757-795" /><linearGradient
       x1="38.660378"
       y1="5.8481169"
       x2="38.660378"
       y2="46.230125"
       id="linearGradient3381-5-4"
       xlink:href="#linearGradient3924-2-2-5-8"
       gradientUnits="userSpaceOnUse"
       gradientTransform="matrix(1.4324324,0,0,1.4362832,-7.3783796,-7.3995521)" /><linearGradient
       id="linearGradient3924-2-2-5-8"><stop
         id="stop3926-9-4-9-6"
         style="stop-color:#ffffff;stop-opacity:1"
         offset="0" /><stop
         id="stop3928-9-8-6-5"
         style="stop-color:#ffffff;stop-opacity:0.23529412"
         offset="0.06316455" /><stop
         id="stop3930-3-5-1-7"
         style="stop-color:#ffffff;stop-opacity:0.15686275"
         offset="0.95056331" /><stop
         id="stop3932-8-0-4-8"
         style="stop-color:#ffffff;stop-opacity:0.39215687"
         offset="1" /></linearGradient><linearGradient
       x1="161.97743"
       y1="10.027002"
       x2="161.97743"
       y2="55.027"
       id="linearGradient5809"
       xlink:href="#linearGradient916"
       gradientUnits="userSpaceOnUse"
       gradientTransform="matrix(0.47054764,0,0,0.47457626,-60.688645,-0.1484071)" /><linearGradient
       xlink:href="#linearGradient899"
       id="linearGradient910"
       gradientUnits="userSpaceOnUse"
       gradientTransform="matrix(0.4705882,0,0,0.47457626,-60.695255,-0.1484071)"
       x1="161.97743"
       y1="5.1520023"
       x2="161.97743"
       y2="63.027" /><linearGradient
       xlink:href="#linearGradient902"
       id="linearGradient904"
       x1="32"
       y1="0"
       x2="32"
       y2="60"
       gradientUnits="userSpaceOnUse" /><linearGradient
       xlink:href="#linearGradient899"
       id="linearGradient910-3"
       gradientUnits="userSpaceOnUse"
       gradientTransform="matrix(0.94117646,0,0,0.94915254,-73.044014,10.801587)"
       x1="161.97743"
       y1="5.1520023"
       x2="161.97743"
       y2="63.027" /><linearGradient
       xlink:href="#linearGradient899"
       id="linearGradient910-5"
       gradientUnits="userSpaceOnUse"
       gradientTransform="matrix(0.47054764,0,0,0.47457626,-76.305129,-44.360347)"
       x1="161.97743"
       y1="5.1520023"
       x2="161.97743"
       y2="63.027" /><filter
       height="1.0008914"
       y="-0.00044569657"
       width="1.00104"
       x="-0.00052002417"
       id="filter1218"
       style="color-interpolation-filters:sRGB"
       inkscape:collect="always"><feGaussianBlur
         id="feGaussianBlur1220"
         stdDeviation="0.0051997931"
         inkscape:collect="always" /></filter><inkscape:path-effect
       effect="fillet_chamfer"
       id="path-effect870-5"
       is_visible="true"
       lpeversion="1"
       satellites_param="F,0,0,1,0,2,0,10 @ F,0,0,1,0,2,0,10 @ F,0,0,1,0,2,0,10 @ F,0,0,1,0,2,0,10"
       unit="px"
       method="auto"
       mode="F"
       radius="2"
       chamfer_steps="10"
       flexible="false"
       use_knot_distance="true"
       apply_no_radius="true"
       apply_with_radius="true"
       only_selected="false"
       hide_knots="false"
       nodesatellites_param="F,0,0,1,0,2,0,10 @ F,0,0,1,0,2,0,10 @ F,0,0,1,0,2,0,10 @ F,0,0,1,0,2,0,10" /><inkscape:path-effect
       effect="fillet_chamfer"
       id="path-effect868-3"
       is_visible="true"
       lpeversion="1"
       satellites_param="F,0,0,1,0,2,0,10 @ F,0,0,1,0,2,0,10 @ F,0,0,1,0,2,0,10 @ F,0,0,1,0,2,0,10"
       unit="px"
       method="auto"
       mode="F"
       radius="2"
       chamfer_steps="10"
       flexible="false"
       use_knot_distance="true"
       apply_no_radius="true"
       apply_with_radius="true"
       only_selected="false"
       hide_knots="false"
       nodesatellites_param="F,0,0,1,0,2,0,10 @ F,0,0,1,0,2,0,10 @ F,0,0,1,0,2,0,10 @ F,0,0,1,0,2,0,10" /><radialGradient
       r="2.5"
       fy="43.5"
       fx="4.9964824"
       cy="43.5"
       cx="4.9964824"
       gradientTransform="matrix(3.2060542,2.6349059e-7,-8.2185947e-8,1.0000077,36.981009,15.99962)"
       gradientUnits="userSpaceOnUse"
       id="radialGradient4730-2"
       xlink:href="#linearGradient3688-166-749-654" /><radialGradient
       r="2.5"
       fy="43.5"
       fx="4.9929786"
       cy="43.5"
       cx="4.9929786"
       gradientTransform="matrix(3.163875,0,0,0.99999995,-29.702994,-103.00012)"
       gradientUnits="userSpaceOnUse"
       id="radialGradient4732-6"
       xlink:href="#linearGradient3688-166-749-654" /></defs><metadata
     id="metadata7"><rdf:RDF><cc:Work
         rdf:about=""><dc:format>image/svg+xml</dc:format><dc:type
           rdf:resource="http://purl.org/dc/dcmitype/StillImage" /></cc:Work></rdf:RDF></metadata><path
     style="opacity:0.2;vector-effect:none;fill:#000000;fill-opacity:1;stroke:none;stroke-width:0.472558;stroke-linecap:butt;stroke-linejoin:miter;stroke-miterlimit:4;stroke-dasharray:none;stroke-dashoffset:0;stroke-opacity:1;filter:url(#filter1218)"
     id="rect4897-1"
     y="2.7520487"
     x="4.0010357"
     ry="0"
     rx="0"
     height="28"
     width="23.997931"
     inkscape:path-effect="#path-effect870"
     d="M 6.0010357,2.7520487 H 25.998966 a 2,2 45 0 1 2,2 V 28.752049 a 2,2 135 0 1 -2,2 H 6.0010357 a 2,2 45 0 1 -2,-2 V 4.7520487 a 2,2 135 0 1 2,-2 z"
     sodipodi:type="rect" /><path
     style="opacity:1;vector-effect:none;fill:#eeeeee;fill-opacity:1;stroke:none;stroke-width:0.472578;stroke-linecap:butt;stroke-linejoin:miter;stroke-miterlimit:4;stroke-dasharray:none;stroke-dashoffset:0;stroke-opacity:1"
     id="rect4897"
     y="2"
     x="4"
     ry="0"
     rx="0"
     height="28"
     width="24"
     inkscape:path-effect="#path-effect868"
     d="m 6,2 h 20 a 2,2 45 0 1 2,2 v 24 a 2,2 135 0 1 -2,2 H 6 A 2,2 45 0 1 4,28 V 4 A 2,2 135 0 1 6,2 Z"
     sodipodi:type="rect" /><g
     id="g338"
     transform="matrix(0.11966998,0,0,0.11966998,8.500043,9.2611939)"
     style="fill:#646464;fill-opacity:1"><g
       id="g281"
       style="fill:#646464;fill-opacity:1">
	<path
   d="m 37.873,124.4 6,-6.301 c 1.2,-1.199 3.2,-1.199 4.3,0 l 6,6.301 c 1.9,2 5.2,0.6 5.2,-2.101 V 110.9 h 48.6 c 1.4,0 2.9,-0.5 3.9,-1.601 1.6,-1.8 1.7,-4.399 0.399,-6.3 -1.199,-1.7 -2,-4 -2.3,-6 -0.3,-2 -0.2,-4 0.4,-6 0.7,-2.2 2.8,-4.301 2.8,-6.6 V 6 c 0,-3.3 -2.7,-6 -6,-6 h -89 c -3.3,0 -6,2.7 -6,6 v 78.3 20.6 c 0,3.299 2.7,6 6,6 h 14.5 v 11.4 c 0,2.7 3.3,4 5.201,2.1 z M 32.072,13.1 c 0,-1.7 1.3,-3 3,-3 h 65 c 1.699,0 3,1.3 3,3 v 63.2 c 0,1.7 -1.301,3 -3,3 h -65 c -1.7,0 -3,-1.3 -3,-3 z m -6.9,87.8 c -1.7,0 -3,-1.301 -3,-3 v -5.6 c 0,-1.7 1.3,-3 3,-3 h 75.2 c -1.101,4.3 -0.7,8.399 0.2,11.601 h -41.2 V 94.6 h -26.7 v 6.301 h -7.5 z"
   id="path273"
   style="fill:#646464;fill-opacity:1" />
	<path
   d="m 42.873,29.6 h 6.3 c 1.7,0 3,-1.3 3,-3 v -6.3 c 0,-1.7 -1.3,-3 -3,-3 h -6.3 c -1.7,0 -3,1.3 -3,3 v 6.3 c 0,1.7 1.299,3 3,3 z"
   id="path275"
   style="fill:#646464;fill-opacity:1" />
	<path
   d="m 42.873,51.3 h 6.3 c 1.7,0 3,-1.3 3,-3 V 42 c 0,-1.7 -1.3,-3 -3,-3 h -6.3 c -1.7,0 -3,1.3 -3,3 v 6.3 c 0,1.6 1.299,3 3,3 z"
   id="path277"
   style="fill:#646464;fill-opacity:1" />
	<path
   d="m 42.873,72.9 h 6.3 c 1.7,0 3,-1.301 3,-3 v -6.3 c 0,-1.7 -1.3,-3 -3,-3 h -6.3 c -1.7,0 -3,1.3 -3,3 v 6.3 c 0,1.6 1.299,3 3,3 z"
   id="path279"
   style="fill:#646464;fill-opacity:1" />
</g><g
       id="g283"
       style="fill:#646464;fill-opacity:1">
</g><g
       id="g285"
       style="fill:#646464;fill-opacity:1">
</g><g
       id="g287"
       style="fill:#646464;fill-opacity:1">
</g><g
       id="g289"
       style="fill:#646464;fill-opacity:1">
</g><g
       id="g291"
       style="fill:#646464;fill-opacity:1">
</g><g
       id="g293"
       style="fill:#646464;fill-opacity:1">
</g><g
       id="g295"
       style="fill:#646464;fill-opacity:1">
</g><g
       id="g297"
       style="fill:#646464;fill-opacity:1">
</g><g
       id="g299"
       style="fill:#646464;fill-opacity:1">
</g><g
       id="g301"
       style="fill:#646464;fill-opacity:1">
</g><g
       id="g303"
       style="fill:#646464;fill-opacity:1">
</g><g
       id="g305"
       style="fill:#646464;fill-opacity:1">
</g><g
       id="g307"
       style="fill:#646464;fill-opacity:1">
</g><g
       id="g309"
       style="fill:#646464;fill-opacity:1">
</g><g
       id="g311"
       style="fill:#646464;fill-opacity:1">
</g></g></svg>
