<?xml version="1.0" encoding="UTF-8" standalone="no"?>
<svg
   width="32"
   height="32"
   id="svg2"
   version="1.1"
   sodipodi:docname="application-vnd.google-apps.presentation.svg"
   inkscape:version="1.2.1 (9c6d41e410, 2022-07-14)"
   xmlns:inkscape="http://www.inkscape.org/namespaces/inkscape"
   xmlns:sodipodi="http://sodipodi.sourceforge.net/DTD/sodipodi-0.dtd"
   xmlns:xlink="http://www.w3.org/1999/xlink"
   xmlns="http://www.w3.org/2000/svg"
   xmlns:svg="http://www.w3.org/2000/svg"
   xmlns:rdf="http://www.w3.org/1999/02/22-rdf-syntax-ns#"
   xmlns:cc="http://creativecommons.org/ns#"
   xmlns:dc="http://purl.org/dc/elements/1.1/">
  <sodipodi:namedview
     pagecolor="#ffffff"
     bordercolor="#666666"
     borderopacity="1"
     objecttolerance="10"
     gridtolerance="10"
     guidetolerance="10"
     inkscape:pageopacity="0"
     inkscape:pageshadow="2"
     inkscape:window-width="1920"
     inkscape:window-height="1006"
     id="namedview47"
     showgrid="false"
     inkscape:zoom="20.85965"
     inkscape:cx="1.9175777"
     inkscape:cy="15.172834"
     inkscape:window-x="0"
     inkscape:window-y="1237"
     inkscape:window-maximized="1"
     inkscape:current-layer="svg2"
     inkscape:document-rotation="0"
     inkscape:pagecheckerboard="0"
     inkscape:showpageshadow="2"
     inkscape:deskcolor="#d1d1d1" />
  <defs
     id="defs4">
    <inkscape:path-effect
       effect="fillet_chamfer"
       id="path-effect60"
       is_visible="true"
       lpeversion="1"
       satellites_param="F,0,0,1,0,2,0,10 @ F,0,0,1,0,2,0,10 @ F,0,0,1,0,2,0,10 @ F,0,0,1,0,2,0,10"
       unit="px"
       method="auto"
       mode="F"
       radius="2"
       chamfer_steps="10"
       flexible="false"
       use_knot_distance="true"
       apply_no_radius="true"
       apply_with_radius="true"
       only_selected="false"
       hide_knots="false"
       nodesatellites_param="F,0,0,1,0,2,0,10 @ F,0,0,1,0,2,0,10 @ F,0,0,1,0,2,0,10 @ F,0,0,1,0,2,0,10" />
    <inkscape:path-effect
       effect="fillet_chamfer"
       id="path-effect58"
       is_visible="true"
       lpeversion="1"
       satellites_param="F,0,0,1,0,2,0,10 @ F,0,0,1,0,2,0,10 @ F,0,0,1,0,2,0,10 @ F,0,0,1,0,2,0,10"
       unit="px"
       method="auto"
       mode="F"
       radius="2"
       chamfer_steps="10"
       flexible="false"
       use_knot_distance="true"
       apply_no_radius="true"
       apply_with_radius="true"
       only_selected="false"
       hide_knots="false"
       nodesatellites_param="F,0,0,1,0,2,0,10 @ F,0,0,1,0,2,0,10 @ F,0,0,1,0,2,0,10 @ F,0,0,1,0,2,0,10" />
    <inkscape:path-effect
       effect="fillet_chamfer"
       id="path-effect56"
       is_visible="true"
       lpeversion="1"
       satellites_param="F,0,0,1,0,2,0,10 @ F,0,0,1,0,2,0,10 @ F,0,0,1,0,2,0,10 @ F,0,0,1,0,2,0,10"
       unit="px"
       method="auto"
       mode="F"
       radius="2"
       chamfer_steps="10"
       flexible="false"
       use_knot_distance="true"
       apply_no_radius="true"
       apply_with_radius="true"
       only_selected="false"
       hide_knots="false"
       nodesatellites_param="F,0,0,1,0,2,0,10 @ F,0,0,1,0,2,0,10 @ F,0,0,1,0,2,0,10 @ F,0,0,1,0,2,0,10" />
    <linearGradient
       id="linearGradient902">
      <stop
         id="stop898"
         offset="0"
         style="stop-color:#770087;stop-opacity:1;" />
      <stop
         id="stop900"
         offset="1"
         style="stop-color:#452981;stop-opacity:1" />
    </linearGradient>
    <linearGradient
       id="linearGradient899">
      <stop
         id="stop895"
         style="stop-color:#f282f1;stop-opacity:1"
         offset="0" />
      <stop
         id="stop897"
         style="stop-color:#a56de2;stop-opacity:1"
         offset="1" />
    </linearGradient>
    <linearGradient
       id="linearGradient916">
      <stop
         id="stop912"
         style="stop-color:#ffffff;stop-opacity:1"
         offset="0" />
      <stop
         id="stop914"
         style="stop-color:#fafafa;stop-opacity:1"
         offset="1" />
    </linearGradient>
    <linearGradient
       id="linearGradient3688-166-749-654">
      <stop
         id="stop3088"
         style="stop-color:#181818;stop-opacity:1"
         offset="0" />
      <stop
         id="stop3090"
         style="stop-color:#181818;stop-opacity:0"
         offset="1" />
    </linearGradient>
    <linearGradient
       id="linearGradient3688-464-309-604">
      <stop
         id="stop3094"
         style="stop-color:#181818;stop-opacity:1"
         offset="0" />
      <stop
         id="stop3096"
         style="stop-color:#181818;stop-opacity:0"
         offset="1" />
    </linearGradient>
    <linearGradient
       id="linearGradient3702-501-757-795">
      <stop
         id="stop3100"
         style="stop-color:#181818;stop-opacity:0"
         offset="0" />
      <stop
         id="stop3102"
         style="stop-color:#181818;stop-opacity:1"
         offset="0.5" />
      <stop
         id="stop3104"
         style="stop-color:#181818;stop-opacity:0"
         offset="1" />
    </linearGradient>
    <radialGradient
       xlink:href="#linearGradient3688-166-749-654"
       id="radialGradient4730"
       gradientUnits="userSpaceOnUse"
       gradientTransform="matrix(3.2060542,2.6349059e-7,-8.2185947e-8,1.0000077,36.981009,15.99962)"
       cx="4.9964824"
       cy="43.5"
       fx="4.9964824"
       fy="43.5"
       r="2.5" />
    <radialGradient
       xlink:href="#linearGradient3688-464-309-604"
       id="radialGradient4732"
       gradientUnits="userSpaceOnUse"
       gradientTransform="matrix(3.163875,0,0,0.99999995,-29.702994,-103.00012)"
       cx="4.9929786"
       cy="43.5"
       fx="4.9929786"
       fy="43.5"
       r="2.5" />
    <linearGradient
       xlink:href="#linearGradient3702-501-757-795"
       id="linearGradient4734"
       gradientUnits="userSpaceOnUse"
       gradientTransform="matrix(1.3928572,0,0,0.71428561,-0.0214163,28.42862)"
       x1="25.058096"
       y1="47.027729"
       x2="25.058096"
       y2="39.999443" />
    <linearGradient
       gradientTransform="matrix(1.4324324,0,0,1.4362832,-7.3783796,-7.3995521)"
       gradientUnits="userSpaceOnUse"
       xlink:href="#linearGradient3924-2-2-5-8"
       id="linearGradient3381-5-4"
       y2="46.230125"
       x2="38.660378"
       y1="5.8481169"
       x1="38.660378" />
    <linearGradient
       id="linearGradient3924-2-2-5-8">
      <stop
         offset="0"
         style="stop-color:#ffffff;stop-opacity:1"
         id="stop3926-9-4-9-6" />
      <stop
         offset="0.06316455"
         style="stop-color:#ffffff;stop-opacity:0.23529412"
         id="stop3928-9-8-6-5" />
      <stop
         offset="0.95056331"
         style="stop-color:#ffffff;stop-opacity:0.15686275"
         id="stop3930-3-5-1-7" />
      <stop
         offset="1"
         style="stop-color:#ffffff;stop-opacity:0.39215687"
         id="stop3932-8-0-4-8" />
    </linearGradient>
    <linearGradient
       gradientTransform="matrix(0.47054764,0,0,0.47457626,-60.688645,-0.1484071)"
       gradientUnits="userSpaceOnUse"
       xlink:href="#linearGradient916"
       id="linearGradient5809"
       y2="55.027"
       x2="161.97743"
       y1="10.027002"
       x1="161.97743" />
    <linearGradient
       y2="63.027"
       x2="161.97743"
       y1="5.1520023"
       x1="161.97743"
       gradientTransform="matrix(0.4705882,0,0,0.47457626,-60.695255,-0.1484071)"
       gradientUnits="userSpaceOnUse"
       id="linearGradient910"
       xlink:href="#linearGradient899" />
    <linearGradient
       gradientUnits="userSpaceOnUse"
       y2="60"
       x2="32"
       y1="0"
       x1="32"
       id="linearGradient904"
       xlink:href="#linearGradient902" />
    <linearGradient
       y2="63.027"
       x2="161.97743"
       y1="5.1520023"
       x1="161.97743"
       gradientTransform="matrix(0.94117646,0,0,0.94915254,-73.044014,10.801587)"
       gradientUnits="userSpaceOnUse"
       id="linearGradient910-3"
       xlink:href="#linearGradient899" />
    <linearGradient
       y2="63.027"
       x2="161.97743"
       y1="5.1520023"
       x1="161.97743"
       gradientTransform="matrix(0.47054764,0,0,0.47457626,-76.305129,-44.360347)"
       gradientUnits="userSpaceOnUse"
       id="linearGradient910-5"
       xlink:href="#linearGradient899" />
    <filter
       inkscape:collect="always"
       style="color-interpolation-filters:sRGB"
       id="filter1218"
       x="-0.00052002417"
       width="1.00104"
       y="-0.00044569656"
       height="1.0008914">
      <feGaussianBlur
         inkscape:collect="always"
         stdDeviation="0.0051997931"
         id="feGaussianBlur1220" />
    </filter>
  </defs>
  <metadata
     id="metadata7">
    <rdf:RDF>
      <cc:Work
         rdf:about="">
        <dc:format>image/svg+xml</dc:format>
        <dc:type
           rdf:resource="http://purl.org/dc/dcmitype/StillImage" />
      </cc:Work>
    </rdf:RDF>
  </metadata>
  <path
     width="23.997931"
     height="28"
     rx="0"
     ry="0"
     x="4.0010357"
     y="2.7520487"
     id="rect4897-1"
     style="opacity:0.2;vector-effect:none;fill:#000000;fill-opacity:1;stroke:none;stroke-width:0.472558;stroke-linecap:butt;stroke-linejoin:miter;stroke-miterlimit:4;stroke-dasharray:none;stroke-dashoffset:0;stroke-opacity:1;filter:url(#filter1218)"
     inkscape:path-effect="#path-effect60"
     d="M 6.0010357,2.7520487 H 25.998966 a 2,2 45 0 1 2,2 V 28.752049 a 2,2 135 0 1 -2,2 H 6.0010357 a 2,2 45 0 1 -2,-2 V 4.7520487 a 2,2 135 0 1 2,-2 z"
     sodipodi:type="rect" />
  <path
     width="24"
     height="28"
     rx="0"
     ry="0"
     x="4"
     y="2"
     id="rect4897"
     style="opacity:1;vector-effect:none;fill:#eeeeee;fill-opacity:1;stroke:none;stroke-width:0.472578;stroke-linecap:butt;stroke-linejoin:miter;stroke-miterlimit:4;stroke-dasharray:none;stroke-dashoffset:0;stroke-opacity:1"
     inkscape:path-effect="#path-effect58"
     d="m 6,2 h 20 a 2,2 45 0 1 2,2 v 24 a 2,2 135 0 1 -2,2 H 6 A 2,2 45 0 1 4,28 V 4 A 2,2 135 0 1 6,2 Z"
     sodipodi:type="rect" />
  <path
     y="6"
     x="0"
     height="8"
     width="18"
     id="rect7379"
     style="opacity:1;fill:#f6aa00;fill-opacity:1;stroke:none;stroke-width:0.428245"
     inkscape:path-effect="#path-effect56"
     d="m 2,6 h 14 a 2,2 45 0 1 2,2 v 4 a 2,2 135 0 1 -2,2 L 2,14 A 2,2 45 0 1 0,12 V 8 A 2,2 135 0 1 2,6 Z"
     sodipodi:type="rect" />
  <g
     id="g1033"
     transform="matrix(0.01990191,0,0,0.01990234,10.905111,17)"
     style="opacity:0.5;fill:#f6aa00;fill-opacity:1">
    <path
       d="m 120,256 c 0,-25.367 6.989,-49.13 19.131,-69.477 V 100.215 H 52.823 C 18.568,144.703 0,198.922 0,256 0,313.078 18.568,367.297 52.823,411.785 h 86.308 V 325.477 C 126.989,305.13 120,281.367 120,256 Z"
       fill="#fbbd00"
       id="path1021"
       style="fill:#f6aa00;fill-opacity:1" />
    <path
       d="m 256,392 -60,60 60,60 c 57.079,0 111.297,-18.568 155.785,-52.823 V 372.961 H 325.569 C 305.044,385.147 281.181,392 256,392 Z"
       fill="#0f9d58"
       id="path1023"
       style="fill:#f6aa00;fill-opacity:1" />
    <path
       d="m 139.131,325.477 -86.308,86.308 c 6.782,8.808 14.167,17.243 22.158,25.235 C 123.333,485.371 187.62,512 256,512 V 392 c -49.624,0 -93.117,-26.72 -116.869,-66.523 z"
       fill="#31aa52"
       id="path1025"
       style="fill:#f6aa00;fill-opacity:1" />
    <path
       d="m 512,256 c 0,-15.575 -1.41,-31.179 -4.192,-46.377 l -2.251,-12.299 H 256 v 120 h 121.452 c -11.794,23.461 -29.928,42.602 -51.884,55.638 l 86.216,86.216 c 8.808,-6.782 17.243,-14.167 25.235,-22.158 C 485.371,388.667 512,324.38 512,256 Z"
       fill="#3c79e6"
       id="path1027"
       style="fill:#f6aa00;fill-opacity:1" />
    <path
       d="M 352.167,159.833 362.773,170.439 447.626,85.587 437.02,74.981 C 388.668,26.629 324.381,0 256,0 l -60,60 60,60 c 36.326,0 70.479,14.146 96.167,39.833 z"
       fill="#cf2d48"
       id="path1029"
       style="fill:#f6aa00;fill-opacity:1" />
    <path
       d="M 256,120 V 0 C 187.62,0 123.333,26.629 74.98,74.98 66.989,82.971 59.604,91.406 52.822,100.215 l 86.308,86.308 C 162.883,146.72 206.376,120 256,120 Z"
       fill="#eb4132"
       id="path1031"
       style="fill:#f6aa00;fill-opacity:1" />
  </g>
  <g
     aria-label="PRES"
     id="text2030"
     style="font-size:6px;line-height:1.25">
    <path
       d="m 2.3598633,8.2963867 v 1.6435547 h 0.7441406 q 0.4130859,0 0.6386719,-0.2138672 0.2255859,-0.2138672 0.2255859,-0.609375 0,-0.3925781 -0.2255859,-0.6064453 Q 3.5170898,8.2963867 3.1040039,8.2963867 Z M 1.7680664,7.8100586 h 1.3359375 q 0.7353516,0 1.1103516,0.3339844 0.3779297,0.3310547 0.3779297,0.9726562 0,0.647461 -0.3779297,0.9785158 -0.375,0.331055 -1.1103516,0.331055 H 2.3598633 v 1.757812 H 1.7680664 Z"
       style="fill:#ffffff"
       id="path868" />
    <path
       d="m 7.4604492,10.133301 q 0.1904297,0.06445 0.3691406,0.27539 0.1816407,0.210938 0.3632813,0.580079 L 8.793457,12.184082 H 8.1577148 L 7.5981445,11.062012 Q 7.3813477,10.622559 7.1762695,10.479004 6.9741211,10.335449 6.6225586,10.335449 H 5.9780273 v 1.848633 H 5.3862305 V 7.8100586 H 6.722168 q 0.75,0 1.1191406,0.3134766 0.3691406,0.3134765 0.3691406,0.946289 0,0.413086 -0.1933594,0.6855469 Q 7.8266602,10.027832 7.4604492,10.133301 Z M 5.9780273,8.2963867 V 9.8491211 H 6.722168 q 0.4277343,0 0.6445312,-0.1962891 0.2197266,-0.1992187 0.2197266,-0.5830078 0,-0.383789 -0.2197266,-0.5771484 Q 7.1499023,8.2963867 6.722168,8.2963867 Z"
       style="fill:#ffffff"
       id="path870" />
    <path
       d="m 9.5551758,7.8100586 h 2.7656252 v 0.4980469 h -2.173828 v 1.2949218 h 2.083007 v 0.4980467 h -2.083007 v 1.584961 h 2.226562 v 0.498047 H 9.5551758 Z"
       style="fill:#ffffff"
       id="path872" />
    <path
       d="M 15.968262,7.9536133 V 8.5307617 Q 15.631348,8.3696289 15.33252,8.2905273 q -0.298829,-0.079102 -0.577149,-0.079102 -0.483398,0 -0.74707,0.1875 -0.260742,0.1875 -0.260742,0.5332031 0,0.2900391 0.172851,0.4394531 0.175781,0.1464844 0.66211,0.2373047 l 0.357421,0.073242 q 0.66211,0.1259766 0.975586,0.4453121 0.316407,0.316407 0.316407,0.84961 0,0.635742 -0.427735,0.963867 -0.424804,0.328125 -1.248047,0.328125 -0.310547,0 -0.662109,-0.07031 -0.348633,-0.07031 -0.723633,-0.208007 v -0.609375 q 0.360352,0.202148 0.706055,0.304687 0.345703,0.102539 0.679687,0.102539 0.506836,0 0.782227,-0.199219 0.275391,-0.199218 0.275391,-0.568359 0,-0.322266 -0.199219,-0.503906 -0.196289,-0.181641 -0.647461,-0.272461 l -0.360352,-0.07031 Q 13.744629,10.04248 13.44873,9.7612305 q -0.295898,-0.28125 -0.295898,-0.7822266 0,-0.5800781 0.407227,-0.9140625 0.410156,-0.3339844 1.127929,-0.3339844 0.307617,0 0.626953,0.055664 0.319336,0.055664 0.653321,0.1669922 z"
       style="fill:#ffffff"
       id="path874" />
  </g>
</svg>
