<?xml version="1.0" encoding="UTF-8" standalone="no"?>
<svg
   width="32"
   height="32"
   version="1"
   id="svg12"
   sodipodi:docname="aab.svg"
   inkscape:version="1.1 (c68e22c387, 2021-05-23)"
   xmlns:inkscape="http://www.inkscape.org/namespaces/inkscape"
   xmlns:sodipodi="http://sodipodi.sourceforge.net/DTD/sodipodi-0.dtd"
   xmlns:xlink="http://www.w3.org/1999/xlink"
   xmlns="http://www.w3.org/2000/svg"
   xmlns:svg="http://www.w3.org/2000/svg"
   xmlns:rdf="http://www.w3.org/1999/02/22-rdf-syntax-ns#"
   xmlns:cc="http://creativecommons.org/ns#"
   xmlns:dc="http://purl.org/dc/elements/1.1/">
  <metadata
     id="metadata18">
    <rdf:RDF>
      <cc:Work
         rdf:about="">
        <dc:format>image/svg+xml</dc:format>
        <dc:type
           rdf:resource="http://purl.org/dc/dcmitype/StillImage" />
      </cc:Work>
    </rdf:RDF>
  </metadata>
  <defs
     id="defs16">
    <linearGradient
       id="linearGradient4728">
      <stop
         id="stop4720"
         stop-color="#dac196"
         offset="0"
         style="stop-color:#c7ae8e;stop-opacity:1" />
      <stop
         id="stop4722"
         stop-color="#c7ae8e"
         offset="0.23060136" />
      <stop
         id="stop4724"
         stop-color="#dac197"
         offset="0.23060136" />
      <stop
         id="stop4726"
         stop-color="#b19974"
         offset="1"
         style="stop-color:#dac197;stop-opacity:1" />
    </linearGradient>
    <linearGradient
       id="f">
      <stop
         offset="0"
         stop-color="#997543"
         id="stop4" />
      <stop
         offset=".239"
         stop-color="#715d43"
         id="stop6" />
      <stop
         offset=".276"
         stop-color="#7b6241"
         id="stop8" />
      <stop
         offset="1"
         stop-color="#604c31"
         id="stop10" />
    </linearGradient>
    <linearGradient
       id="g">
      <stop
         offset="0"
         id="stop13" />
      <stop
         offset="1"
         stop-opacity="0"
         id="stop15" />
    </linearGradient>
    <linearGradient
       id="a">
      <stop
         offset="0"
         stop-color="#fff"
         id="stop18" />
      <stop
         offset=".084"
         stop-color="#fff"
         stop-opacity=".235"
         id="stop20" />
      <stop
         offset=".951"
         stop-color="#fff"
         stop-opacity=".157"
         id="stop22" />
      <stop
         offset="1"
         stop-color="#fff"
         stop-opacity=".392"
         id="stop24" />
    </linearGradient>
    <linearGradient
       id="b">
      <stop
         offset="0"
         stop-color="#fff"
         id="stop27" />
      <stop
         offset=".036"
         stop-color="#fff"
         stop-opacity=".235"
         id="stop29" />
      <stop
         offset=".951"
         stop-color="#fff"
         stop-opacity=".157"
         id="stop31" />
      <stop
         offset="1"
         stop-color="#fff"
         stop-opacity=".392"
         id="stop33" />
    </linearGradient>
    <linearGradient
       id="c">
      <stop
         offset="0"
         stop-color="#fff"
         id="stop36" />
      <stop
         offset=".302"
         stop-color="#fff"
         id="stop38" />
      <stop
         offset=".344"
         stop-color="#fff"
         stop-opacity=".643"
         id="stop40" />
      <stop
         offset="1"
         stop-color="#fff"
         stop-opacity=".391"
         id="stop42" />
    </linearGradient>
    <linearGradient
       id="e">
      <stop
         offset="0"
         stop-color="#dac196"
         id="stop45" />
      <stop
         offset="0.23060136"
         stop-color="#c7ae8e"
         id="stop47" />
      <stop
         offset="0.23060136"
         stop-color="#dac197"
         id="stop49" />
      <stop
         offset="1"
         stop-color="#b19974"
         id="stop51" />
    </linearGradient>
    <linearGradient
       id="h">
      <stop
         offset="0"
         stop-opacity="0"
         id="stop54" />
      <stop
         offset=".5"
         id="stop56" />
      <stop
         offset="1"
         stop-opacity="0"
         id="stop58" />
    </linearGradient>
    <linearGradient
       id="d">
      <stop
         offset="0"
         stop-color="#fff"
         stop-opacity="0"
         id="stop61" />
      <stop
         offset="1"
         stop-color="#fff"
         stop-opacity="0"
         id="stop63" />
    </linearGradient>
    <linearGradient
       gradientTransform="matrix(1.05405,0,0,0.21622,126.703,171.31)"
       gradientUnits="userSpaceOnUse"
       xlink:href="#a"
       id="p"
       x1="24"
       x2="24"
       y1="7.3470001"
       y2="43" />
    <linearGradient
       gradientTransform="matrix(1.05405,0,0,0.7027,126.703,176.635)"
       gradientUnits="userSpaceOnUse"
       xlink:href="#b"
       id="o"
       x1="24"
       x2="24"
       y1="5.5640001"
       y2="43" />
    <linearGradient
       gradientTransform="matrix(0.69999995,0,0,0.8245227,-32.87669,-4.39446)"
       gradientUnits="userSpaceOnUse"
       xlink:href="#c"
       id="n"
       x1="26"
       x2="26"
       y1="22"
       y2="8" />
    <linearGradient
       gradientTransform="matrix(1.28223,0,0,1.17469,121.93,157.697)"
       gradientUnits="userSpaceOnUse"
       xlink:href="#d"
       id="m"
       x1="23.452"
       x2="43.007"
       y1="30.555"
       y2="45.933998" />
    <linearGradient
       gradientTransform="matrix(0.87553362,0,0,1.1237434,-36.60912,-14.95806)"
       gradientUnits="userSpaceOnUse"
       xlink:href="#linearGradient4728"
       id="l"
       x1="23.359486"
       x2="23.370872"
       y1="15.933548"
       y2="38.453457" />
    <linearGradient
       gradientTransform="translate(128,163)"
       gradientUnits="userSpaceOnUse"
       xlink:href="#f"
       id="q"
       x1="15.464"
       x2="15.464"
       y1="7.9759998"
       y2="45.042" />
    <radialGradient
       cx="5"
       cy="41.5"
       fx="5"
       fy="41.5"
       gradientTransform="matrix(0.4012,0,0,1.2,169.994,-254.8)"
       gradientUnits="userSpaceOnUse"
       xlink:href="#g"
       id="k"
       r="5" />
    <linearGradient
       gradientTransform="matrix(1.74414,0,0,1.0909,111.07,160.818)"
       gradientUnits="userSpaceOnUse"
       xlink:href="#h"
       id="j"
       x1="17.554001"
       x2="17.554001"
       y1="46"
       y2="35" />
    <radialGradient
       cx="5"
       cy="41.5"
       fx="5"
       fy="41.5"
       gradientTransform="matrix(0.4012,0,0,1.2,-134.006,-254.8)"
       gradientUnits="userSpaceOnUse"
       xlink:href="#g"
       id="i"
       r="5" />
    <linearGradient
       gradientTransform="matrix(1.2507624,0,0,1.555952,75.583213,130.05387)"
       gradientUnits="userSpaceOnUse"
       xlink:href="#e"
       id="l-7"
       x1="23.359486"
       x2="23.370872"
       y1="15.933548"
       y2="38.453457" />
  </defs>
  <sodipodi:namedview
     inkscape:document-rotation="0"
     pagecolor="#ffffff"
     bordercolor="#666666"
     borderopacity="1"
     objecttolerance="10"
     gridtolerance="10"
     guidetolerance="10"
     inkscape:pageopacity="0"
     inkscape:pageshadow="2"
     inkscape:window-width="1920"
     inkscape:window-height="1007"
     id="namedview14"
     showgrid="false"
     inkscape:zoom="16.83798"
     inkscape:cx="2.0489394"
     inkscape:cy="15.11464"
     inkscape:window-x="0"
     inkscape:window-y="1236"
     inkscape:window-maximized="1"
     inkscape:current-layer="svg12"
     inkscape:pagecheckerboard="1" />
  <circle
     style="opacity:1;fill:#000000;stroke-width:0.0530819;fill-opacity:0.2"
     cx="15.903116"
     cy="16.401236"
     r="13.588977"
     id="circle444-3" />
  <circle
     style="fill:#3771c8;stroke-width:0.0530819"
     cx="15.886263"
     cy="15.533177"
     r="13.588977"
     id="circle444" />
  <g
     id="g460"
     transform="matrix(0.05308194,0,0,0.05308194,2.2972858,1.9442007)" />
  <g
     id="g462"
     transform="matrix(0.05308194,0,0,0.05308194,2.2972858,1.9442007)" />
  <g
     id="g464"
     transform="matrix(0.05308194,0,0,0.05308194,2.2972858,1.9442007)" />
  <g
     id="g466"
     transform="matrix(0.05308194,0,0,0.05308194,2.2972858,1.9442007)" />
  <g
     id="g468"
     transform="matrix(0.05308194,0,0,0.05308194,2.2972858,1.9442007)" />
  <g
     id="g470"
     transform="matrix(0.05308194,0,0,0.05308194,2.2972858,1.9442007)" />
  <g
     id="g472"
     transform="matrix(0.05308194,0,0,0.05308194,2.2972858,1.9442007)" />
  <g
     id="g474"
     transform="matrix(0.05308194,0,0,0.05308194,2.2972858,1.9442007)" />
  <g
     id="g476"
     transform="matrix(0.05308194,0,0,0.05308194,2.2972858,1.9442007)" />
  <g
     id="g478"
     transform="matrix(0.05308194,0,0,0.05308194,2.2972858,1.9442007)" />
  <g
     id="g480"
     transform="matrix(0.05308194,0,0,0.05308194,2.2972858,1.9442007)" />
  <g
     id="g482"
     transform="matrix(0.05308194,0,0,0.05308194,2.2972858,1.9442007)" />
  <g
     id="g484"
     transform="matrix(0.05308194,0,0,0.05308194,2.2972858,1.9442007)" />
  <g
     id="g486"
     transform="matrix(0.05308194,0,0,0.05308194,2.2972858,1.9442007)" />
  <g
     id="g488"
     transform="matrix(0.05308194,0,0,0.05308194,2.2972858,1.9442007)" />
  <g
     id="g30529">
    <path
       inkscape:connector-curvature="0"
       style="fill:#87cdde;fill-opacity:1;stroke-width:0.875"
       class="ColorScheme-Text"
       d="m 10.455133,8.844394 c -0.5958699,-9e-5 -0.9194499,0.69676 -0.5349699,1.15184 l 1.2561499,1.53642 c -1.2680499,1.13986 -2.2900499,2.73113 -2.2900499,4.52156 0,0.67375 0.68017,0.67375 0.68017,0.67375 H 22.188883 c 0,0 0.69738,0 0.69738,-0.70788 0,-1.77677 -1.02725,-3.35632 -2.28813,-4.48918 l 1.25388,-1.53467 c 0.3885,-0.46243 0.049,-1.1669 -0.55475,-1.1501 -0.2065,0.005 -0.39988,0.10194 -0.5285,0.2632 l -1.3055,1.59784 c -1.04825,-0.61836 -2.26984,-0.97921 -3.577,-0.97921 -1.30778,0 -2.52805,0.36032 -3.57691,0.97921 l -1.30568,-1.59784 c -0.13282,-0.16738 -0.33486,-0.26494 -0.54854,-0.26494 z m 1.93113,4.38357 c 0.48326,0 0.875,0.39174 0.875,0.875 0,0.48326 -0.39174,0.875 -0.875,0.875 -0.48326,0 -0.875,-0.39174 -0.875,-0.875 0,-0.48326 0.39174,-0.875 0.875,-0.875 z m 7,0 c 0.483,0 0.875,0.39174 0.875,0.875 0,0.48326 -0.392,0.875 -0.875,0.875 -0.483,0 -0.875,-0.39174 -0.875,-0.875 0,-0.48326 0.392,-0.875 0.875,-0.875 z"
       id="path5" />
    <g
       aria-label=".aab"
       id="text14870"
       style="font-size:5.33333px;line-height:1.25;fill:#87cdde">
      <path
         d="m 10.460485,20.451129 h 0.549479 v 0.661458 h -0.549479 z"
         id="path30496" />
      <path
         d="m 13.413608,19.646442 q -0.580728,0 -0.804687,0.132812 -0.223958,0.132813 -0.223958,0.453125 0,0.255208 0.166667,0.40625 0.16927,0.148437 0.458333,0.148437 0.398437,0 0.63802,-0.281249 0.242188,-0.283854 0.242188,-0.752604 v -0.106771 z m 0.955729,-0.197917 v 1.664062 h -0.479166 v -0.442708 q -0.164063,0.265625 -0.408854,0.393229 -0.244792,0.125 -0.598958,0.125 -0.447917,0 -0.713542,-0.25 -0.26302,-0.252604 -0.26302,-0.674479 0,-0.492187 0.328125,-0.742187 0.330729,-0.25 0.984374,-0.25 h 0.671875 v -0.04687 q 0,-0.330729 -0.21875,-0.510416 -0.216146,-0.182292 -0.609375,-0.182292 -0.25,0 -0.486979,0.0599 -0.236979,0.0599 -0.455729,0.179688 v -0.442709 q 0.263021,-0.101562 0.510417,-0.151041 0.247395,-0.05208 0.48177,-0.05208 0.632812,0 0.945312,0.328124 0.3125,0.328125 0.3125,0.994791 z"
         id="path30498" />
      <path
         d="m 16.681836,19.646442 q -0.580729,0 -0.804688,0.132812 -0.223958,0.132813 -0.223958,0.453125 0,0.255208 0.166667,0.40625 0.169271,0.148437 0.458333,0.148437 0.398437,0 0.63802,-0.281249 0.242188,-0.283854 0.242188,-0.752604 v -0.106771 z m 0.955728,-0.197917 v 1.664062 h -0.479166 v -0.442708 q -0.164063,0.265625 -0.408854,0.393229 -0.244792,0.125 -0.598958,0.125 -0.447917,0 -0.713541,-0.25 -0.263021,-0.252604 -0.263021,-0.674479 0,-0.492187 0.328125,-0.742187 0.330729,-0.25 0.984374,-0.25 h 0.671875 v -0.04687 q 0,-0.330729 -0.21875,-0.510416 -0.216146,-0.182292 -0.609375,-0.182292 -0.25,0 -0.486979,0.0599 -0.236979,0.0599 -0.455729,0.179688 v -0.442709 q 0.263021,-0.101562 0.510417,-0.151041 0.247396,-0.05208 0.48177,-0.05208 0.632812,0 0.945312,0.328124 0.3125,0.328125 0.3125,0.994791 z"
         id="path30500" />
      <path
         d="m 20.718291,19.656859 q 0,-0.528646 -0.21875,-0.828125 -0.216145,-0.302083 -0.596353,-0.302083 -0.380208,0 -0.598958,0.302083 -0.216146,0.299479 -0.216146,0.828125 0,0.528645 0.216146,0.830728 0.21875,0.299479 0.598958,0.299479 0.380208,0 0.596353,-0.299479 0.21875,-0.302083 0.21875,-0.830728 z M 19.088084,18.63863 q 0.151042,-0.260416 0.380208,-0.385416 0.231771,-0.127604 0.552083,-0.127604 0.53125,0 0.861979,0.421874 0.333333,0.421875 0.333333,1.109375 0,0.687499 -0.333333,1.109374 -0.330729,0.421875 -0.861979,0.421875 -0.320312,0 -0.552083,-0.125 -0.229166,-0.127604 -0.380208,-0.388021 v 0.4375 h -0.481771 v -4.052081 h 0.481771 z"
         id="path30502" />
    </g>
  </g>
</svg>
