<?xml version="1.0" encoding="UTF-8" standalone="no"?>
<svg
   width="32"
   height="32"
   version="1"
   id="svg16"
   sodipodi:docname="application-vnd.flatpak.svg"
   inkscape:version="1.1 (c68e22c387, 2021-05-23)"
   xmlns:inkscape="http://www.inkscape.org/namespaces/inkscape"
   xmlns:sodipodi="http://sodipodi.sourceforge.net/DTD/sodipodi-0.dtd"
   xmlns="http://www.w3.org/2000/svg"
   xmlns:svg="http://www.w3.org/2000/svg">
  <defs
     id="defs20" />
  <sodipodi:namedview
     id="namedview18"
     pagecolor="#ffffff"
     bordercolor="#666666"
     borderopacity="1.0"
     inkscape:pageshadow="2"
     inkscape:pageopacity="0.0"
     inkscape:pagecheckerboard="0"
     showgrid="false"
     inkscape:zoom="24.34375"
     inkscape:cx="9.2015404"
     inkscape:cy="17.622593"
     inkscape:window-width="1920"
     inkscape:window-height="1000"
     inkscape:window-x="0"
     inkscape:window-y="0"
     inkscape:window-maximized="1"
     inkscape:current-layer="svg16" />
  <path
     style="opacity:0.2"
     d="m 3.0054254,11.361575 c -0.00315,0.05326 -0.00495,0.106603 -0.00542,0.15996 v 10.886991 c 3.255e-4,1.13714 0.6047071,2.187762 1.5855577,2.756241 l 9.3288849,5.408575 c 0.981119,0.568877 2.189996,0.568877 3.171115,0 l 9.328883,-5.408575 C 27.395714,24.596043 28.000161,23.544788 28,22.407159 V 11.521535 C 27.9985,11.481385 27.9962,11.441285 27.9932,11.401223 28,11.399971 3.0054254,11.361575 3.0054254,11.361575 Z"
     id="path2" />
  <path
     style="fill:#3771c8"
     d="m 3.0054254,10.361575 c -0.00315,0.05326 -0.00495,0.106603 -0.00542,0.15996 v 10.886991 c 3.255e-4,1.13714 0.6047071,2.187762 1.5855577,2.756241 l 9.3288849,5.408575 c 0.981119,0.568877 2.189996,0.568877 3.171115,0 l 9.328883,-5.408575 C 27.395714,23.596043 28.000161,22.544788 28,21.407159 V 10.521535 C 27.9985,10.481385 27.9962,10.441285 27.9932,10.401223 28,10.399971 3.0054254,10.361575 3.0054254,10.361575 Z"
     id="path4" />
  <path
     style="fill:#3768b4;fill-opacity:1"
     d="m 15.574656,1.9999999 v 0.00139 A 3.1730185,3.2214105 0 0 0 13.913237,2.4302546 L 4.5772613,7.9032045 A 3.1730185,3.2214105 0 0 0 3,10.486116 3.1730185,3.2214105 0 0 0 4.5772613,13.095314 l 9.3359757,5.47295 a 3.1730185,3.2214105 0 0 0 3.173525,0 l 9.335977,-5.47295 A 3.1730185,3.2214105 0 0 0 28,10.512402 3.1730185,3.2214105 0 0 0 26.422739,7.9032045 L 17.086762,2.4302546 A 3.1730185,3.2214105 0 0 0 15.574656,1.9999999 Z"
     id="path6" />
  <path
     style="opacity:0.1;stroke-width:1.00001"
     d="m 3.0039062,10.421875 c -5.722e-4,0.01431 -0.00126,0.02864 -0.00195,0.04297 a 3.1730185,3.221492 0 0 1 0.00391,-0.0293 3.1730185,3.1835996 0 0 1 -0.00195,-0.01367 z m -0.00195,0.07422 c -2.855e-4,0.0085 -0.00188,0.01692 -0.00195,0.02539 v 10.886994 c 3.255e-4,1.137169 0.6050869,2.187436 1.5859375,2.755929 l 9.3281243,5.410294 C 14.254741,29.772243 14.62335,29.897172 15,29.957525 V 18.955294 A 3.1730185,3.221492 0 0 1 13.914062,18.568565 L 4.578125,13.095771 A 3.1730185,3.221492 0 0 1 3.0019531,10.496096 Z"
     id="path10" />
  <path
     style="opacity:0.1;fill:#ffffff"
     d="M 15.574219 2 L 15.574219 2.0019531 A 3.1730185 3.2214105 0 0 0 13.914062 2.4296875 L 4.578125 7.9023438 A 3.1730185 3.2214105 0 0 0 3 10.486328 A 3.1730185 3.2214105 0 0 0 3.0722656 10.996094 A 3.1730185 3.2214105 0 0 1 4.578125 8.9023438 L 13.914062 3.4296875 A 3.1730185 3.2214105 0 0 1 15.574219 3.0019531 L 15.574219 3 A 3.1730185 3.2214105 0 0 1 17.085938 3.4296875 L 26.421875 8.9023438 A 3.1730185 3.2214105 0 0 1 27.927734 11.001953 A 3.1730185 3.2214105 0 0 0 28 10.511719 A 3.1730185 3.2214105 0 0 0 26.421875 7.9023438 L 17.085938 2.4296875 A 3.1730185 3.2214105 0 0 0 15.574219 2 z"
     id="path12" />
  <path
     style="opacity:0.1"
     d="M 3.0722656 9.9960938 A 3.1730185 3.2214105 0 0 0 3 10.486328 A 3.1730185 3.2214105 0 0 0 4.578125 13.095703 L 13.914062 18.568359 A 3.1730185 3.2214105 0 0 0 17.085938 18.568359 L 26.421875 13.095703 A 3.1730185 3.2214105 0 0 0 28 10.511719 A 3.1730185 3.2214105 0 0 0 27.927734 10.001953 A 3.1730185 3.2214105 0 0 1 26.421875 12.095703 L 17.085938 17.568359 A 3.1730185 3.2214105 0 0 1 13.914062 17.568359 L 4.578125 12.095703 A 3.1730185 3.2214105 0 0 1 3.0722656 9.9960938 z"
     id="path14" />
</svg>
