<?xml version="1.0" encoding="UTF-8" standalone="no"?>
<svg
   inkscape:version="1.2.1 (9c6d41e410, 2022-07-14)"
   sodipodi:docname="application-gzip.svg"
   id="svg97"
   width="32"
   viewBox="0 0 32 32"
   version="1"
   height="32"
   xml:space="preserve"
   xmlns:inkscape="http://www.inkscape.org/namespaces/inkscape"
   xmlns:sodipodi="http://sodipodi.sourceforge.net/DTD/sodipodi-0.dtd"
   xmlns:xlink="http://www.w3.org/1999/xlink"
   xmlns="http://www.w3.org/2000/svg"
   xmlns:svg="http://www.w3.org/2000/svg"
   xmlns:rdf="http://www.w3.org/1999/02/22-rdf-syntax-ns#"
   xmlns:cc="http://creativecommons.org/ns#"
   xmlns:dc="http://purl.org/dc/elements/1.1/"><metadata
     id="metadata101"><rdf:RDF><cc:Work
         rdf:about=""><dc:format>image/svg+xml</dc:format><dc:type
           rdf:resource="http://purl.org/dc/dcmitype/StillImage" /><dc:title>
        elementary Icon Template
    </dc:title></cc:Work></rdf:RDF></metadata><sodipodi:namedview
     inkscape:document-rotation="0"
     inkscape:current-layer="g95"
     inkscape:window-maximized="1"
     inkscape:window-y="1237"
     inkscape:window-x="0"
     inkscape:cy="29.135593"
     inkscape:cx="-1.4237288"
     inkscape:zoom="9.8333335"
     showgrid="false"
     id="namedview99"
     inkscape:window-height="1006"
     inkscape:window-width="1920"
     inkscape:pageshadow="2"
     inkscape:pageopacity="0"
     guidetolerance="10"
     gridtolerance="10"
     objecttolerance="10"
     borderopacity="1"
     bordercolor="#666666"
     pagecolor="#ffffff"
     inkscape:showpageshadow="2"
     inkscape:pagecheckerboard="0"
     inkscape:deskcolor="#d1d1d1" /><title
     id="title2">
        elementary Icon Template
    </title><defs
     id="defs75"><inkscape:path-effect
       effect="fillet_chamfer"
       id="path-effect890"
       is_visible="true"
       lpeversion="1"
       satellites_param="F,0,0,1,0,2,0,10 @ F,0,0,1,0,2,0,10 @ F,0,0,1,0,2,0,10 @ F,0,0,1,0,2,0,10"
       unit="px"
       method="auto"
       mode="F"
       radius="2"
       chamfer_steps="10"
       flexible="false"
       use_knot_distance="true"
       apply_no_radius="true"
       apply_with_radius="true"
       only_selected="false"
       hide_knots="false"
       nodesatellites_param="F,0,0,1,0,2,0,10 @ F,0,0,1,0,2,0,10 @ F,0,0,1,0,2,0,10 @ F,0,0,1,0,2,0,10" /><linearGradient
       id="linearGradient4728"><stop
         style="stop-color:#c7ae8e;stop-opacity:1"
         offset="0"
         stop-color="#dac196"
         id="stop4720" /><stop
         offset="0.23060136"
         stop-color="#c7ae8e"
         id="stop4722" /><stop
         offset="0.23060136"
         stop-color="#dac197"
         id="stop4724" /><stop
         style="stop-color:#dac197;stop-opacity:1"
         offset="1"
         stop-color="#b19974"
         id="stop4726" /></linearGradient><linearGradient
       id="f"><stop
         id="stop4"
         stop-color="#997543"
         offset="0" /><stop
         id="stop6"
         stop-color="#715d43"
         offset=".239" /><stop
         id="stop8"
         stop-color="#7b6241"
         offset=".276" /><stop
         id="stop10"
         stop-color="#604c31"
         offset="1" /></linearGradient><linearGradient
       id="g"><stop
         id="stop13"
         offset="0" /><stop
         id="stop15"
         stop-opacity="0"
         offset="1" /></linearGradient><linearGradient
       id="a"><stop
         id="stop18"
         stop-color="#fff"
         offset="0" /><stop
         id="stop20"
         stop-opacity=".235"
         stop-color="#fff"
         offset=".084" /><stop
         id="stop22"
         stop-opacity=".157"
         stop-color="#fff"
         offset=".951" /><stop
         id="stop24"
         stop-opacity=".392"
         stop-color="#fff"
         offset="1" /></linearGradient><linearGradient
       id="b"><stop
         id="stop27"
         stop-color="#fff"
         offset="0" /><stop
         id="stop29"
         stop-opacity=".235"
         stop-color="#fff"
         offset=".036" /><stop
         id="stop31"
         stop-opacity=".157"
         stop-color="#fff"
         offset=".951" /><stop
         id="stop33"
         stop-opacity=".392"
         stop-color="#fff"
         offset="1" /></linearGradient><linearGradient
       id="c"><stop
         id="stop36"
         stop-color="#fff"
         offset="0" /><stop
         id="stop38"
         stop-color="#fff"
         offset=".302" /><stop
         id="stop40"
         stop-opacity=".643"
         stop-color="#fff"
         offset=".344" /><stop
         id="stop42"
         stop-opacity=".391"
         stop-color="#fff"
         offset="1" /></linearGradient><linearGradient
       id="e"><stop
         id="stop45"
         stop-color="#dac196"
         offset="0" /><stop
         id="stop47"
         stop-color="#c7ae8e"
         offset="0.23060136" /><stop
         id="stop49"
         stop-color="#dac197"
         offset="0.23060136" /><stop
         id="stop51"
         stop-color="#b19974"
         offset="1" /></linearGradient><linearGradient
       id="h"><stop
         id="stop54"
         stop-opacity="0"
         offset="0" /><stop
         id="stop56"
         offset=".5" /><stop
         id="stop58"
         stop-opacity="0"
         offset="1" /></linearGradient><linearGradient
       id="d"><stop
         id="stop61"
         stop-opacity="0"
         stop-color="#fff"
         offset="0" /><stop
         id="stop63"
         stop-opacity="0"
         stop-color="#fff"
         offset="1" /></linearGradient><linearGradient
       y2="43"
       y1="7.3470001"
       x2="24"
       x1="24"
       id="p"
       xlink:href="#a"
       gradientUnits="userSpaceOnUse"
       gradientTransform="matrix(1.05405,0,0,0.21622,126.703,171.31)" /><linearGradient
       y2="43"
       y1="5.5640001"
       x2="24"
       x1="24"
       id="o"
       xlink:href="#b"
       gradientUnits="userSpaceOnUse"
       gradientTransform="matrix(1.05405,0,0,0.7027,126.703,176.635)" /><linearGradient
       y2="8"
       y1="22"
       x2="26"
       x1="26"
       id="n"
       xlink:href="#c"
       gradientUnits="userSpaceOnUse"
       gradientTransform="matrix(0.69999995,0,0,0.8245227,127.2,175.41605)" /><linearGradient
       y2="45.933998"
       y1="30.555"
       x2="43.007"
       x1="23.452"
       id="m"
       xlink:href="#d"
       gradientUnits="userSpaceOnUse"
       gradientTransform="matrix(1.28223,0,0,1.17469,121.93,157.697)" /><linearGradient
       y2="38.453457"
       y1="15.933548"
       x2="23.370872"
       x1="23.359486"
       id="l"
       xlink:href="#linearGradient4728"
       gradientUnits="userSpaceOnUse"
       gradientTransform="matrix(0.87553362,0,0,1.1237434,123.46757,164.85245)" /><linearGradient
       y2="45.042"
       y1="7.9759998"
       x2="15.464"
       x1="15.464"
       id="q"
       xlink:href="#f"
       gradientUnits="userSpaceOnUse"
       gradientTransform="translate(128,163)" /><radialGradient
       r="5"
       id="k"
       xlink:href="#g"
       gradientUnits="userSpaceOnUse"
       gradientTransform="matrix(0.4012,0,0,1.2,169.994,-254.8)"
       fy="41.5"
       fx="5"
       cy="41.5"
       cx="5" /><linearGradient
       y2="35"
       y1="46"
       x2="17.554001"
       x1="17.554001"
       id="j"
       xlink:href="#h"
       gradientUnits="userSpaceOnUse"
       gradientTransform="matrix(1.74414,0,0,1.0909,111.07,160.818)" /><radialGradient
       r="5"
       id="i"
       xlink:href="#g"
       gradientUnits="userSpaceOnUse"
       gradientTransform="matrix(0.4012,0,0,1.2,-134.006,-254.8)"
       fy="41.5"
       fx="5"
       cy="41.5"
       cx="5" /><linearGradient
       y2="38.453457"
       y1="15.933548"
       x2="23.370872"
       x1="23.359486"
       id="l-7"
       xlink:href="#e"
       gradientUnits="userSpaceOnUse"
       gradientTransform="matrix(1.2507624,0,0,1.555952,75.583213,130.05387)" /><inkscape:path-effect
       effect="fillet_chamfer"
       id="path-effect886"
       is_visible="true"
       lpeversion="1"
       satellites_param="F,0,0,1,0,2,0,10 @ F,0,0,1,0,2,0,10 @ F,0,0,1,0,2,0,10 @ F,0,0,1,0,2,0,10"
       unit="px"
       method="auto"
       mode="F"
       radius="2"
       chamfer_steps="10"
       flexible="false"
       use_knot_distance="true"
       apply_no_radius="true"
       apply_with_radius="true"
       only_selected="false"
       hide_knots="false"
       nodesatellites_param="F,0,0,1,0,2,0,10 @ F,0,0,1,0,2,0,10 @ F,0,0,1,0,2,0,10 @ F,0,0,1,0,2,0,10" /><radialGradient
       cx="5"
       cy="41.5"
       fx="5"
       fy="41.5"
       gradientTransform="matrix(0.4012,0,0,1.2,169.994,-254.8)"
       gradientUnits="userSpaceOnUse"
       xlink:href="#g"
       id="k-3"
       r="5" /><radialGradient
       cx="5"
       cy="41.5"
       fx="5"
       fy="41.5"
       gradientTransform="matrix(0.4012,0,0,1.2,-134.006,-254.8)"
       gradientUnits="userSpaceOnUse"
       xlink:href="#g"
       id="i-6"
       r="5" /></defs><g
     id="g95"
     transform="translate(-128,-179)"><path
       inkscape:connector-curvature="0"
       id="path83-5"
       style="display:block;overflow:visible;opacity:0.2;fill:#000000;fill-opacity:1;stroke-width:0.70195049;marker:none"
       overflow="visible"
       display="block"
       d="m 133.76452,183.0197 h 20.14185 c 1.17582,0 1.705,-0.2071 2.043,0.72162 l 2.04983,5.77292 V 208.041 c 0,1.12067 0.0703,0.94965 -1.10617,0.94965 H 131.1063 c -1.17582,0 -1.10549,0.17102 -1.10549,-0.94965 v -18.52676 l 2.04983,-5.77292 c 0.32775,-0.90924 0.53874,-0.72162 1.71388,-0.72162 z" /><path
       inkscape:connector-curvature="0"
       id="path83"
       style="display:block;overflow:visible;fill:url(#l);stroke-width:0.70195049;marker:none"
       overflow="visible"
       display="block"
       d="m 133.76452,182.01971 h 20.14185 c 1.17582,0 1.70501,-0.20711 2.043,0.72161 l 2.04983,5.77292 v 18.52677 c 0,1.12066 0.0703,0.94964 -1.10617,0.94964 h -25.78674 c -1.17581,0 -1.10548,0.17102 -1.10548,-0.94964 v -18.52677 l 2.04983,-5.77292 c 0.32775,-0.90924 0.53874,-0.72161 1.71388,-0.72161 z" /><path
       inkscape:connector-curvature="0"
       id="path87"
       style="overflow:visible;opacity:0.3;fill:url(#n);stroke-width:0.75971431;marker:none"
       overflow="visible"
       d="m 142.6,182.01224 h 2.8 v 11.54331 c -0.2758,0 -0.5509,-0.63571 -0.8267,-0.63571 -0.2821,0 -0.5642,0.63571 -0.847,0.63571 -0.2268,0 -0.4543,-0.55655 -0.6811,-0.55655 -0.1484,0 -0.2968,0.55655 -0.4452,0.55655 z" /><path
       y="199"
       x="138"
       height="8"
       width="18"
       id="rect7379"
       style="opacity:0.996;fill:#008080;fill-opacity:1;stroke:none;stroke-width:0.428245"
       inkscape:path-effect="#path-effect890"
       d="m 140,199 h 14 a 2,2 45 0 1 2,2 v 4 a 2,2 135 0 1 -2,2 h -14 a 2,2 45 0 1 -2,-2 v -4 a 2,2 135 0 1 2,-2 z"
       sodipodi:type="rect" /><g
       aria-label="GZIP"
       id="text589"
       style="font-weight:bold;font-size:6.75462px;-inkscape-font-specification:'sans-serif Bold';fill:#ffffff;stroke-width:0.450871;fill-opacity:1"><path
         d="m 141.86972,203.5211 v -0.56728 l 2.04815,-0.003 v 1.7942 q -0.47164,0.37599 -0.97295,0.56728 -0.50132,0.188 -1.02903,0.188 -0.7124,0 -1.29617,-0.30343 -0.58048,-0.30673 -0.87731,-0.88391 -0.29684,-0.57718 -0.29684,-1.28958 0,-0.7058 0.29354,-1.31596 0.29683,-0.61346 0.85092,-0.91029 0.55409,-0.29684 1.27639,-0.29684 0.52441,0 0.94657,0.17151 0.42546,0.1682 0.66623,0.47163 0.24076,0.30343 0.36609,0.79156 l -0.57718,0.15831 q -0.10883,-0.36939 -0.27044,-0.58047 -0.16161,-0.21109 -0.46175,-0.33641 -0.30013,-0.12863 -0.66622,-0.12863 -0.43866,0 -0.75858,0.13522 -0.31992,0.13193 -0.51781,0.34961 -0.19459,0.21767 -0.30343,0.47823 -0.1847,0.44855 -0.1847,0.97295 0,0.64644 0.22098,1.0818 0.22428,0.43535 0.64974,0.64644 0.42546,0.21108 0.90369,0.21108 0.41557,0 0.81135,-0.15831 0.39578,-0.16161 0.60026,-0.34301 v -0.9004 z"
         style="font-weight:normal;font-family:Arial;-inkscape-font-specification:Arial;fill:#ffffff;fill-opacity:1"
         id="path1064" /><path
         d="m 144.47526,205.41754 v -0.59367 l 2.47691,-3.09696 q 0.26386,-0.32982 0.50132,-0.57388 h -2.69789 v -0.57058 h 3.46306 v 0.57058 l -2.71438,3.35422 -0.29353,0.33971 h 3.08707 v 0.57058 z"
         style="font-weight:normal;font-family:Arial;-inkscape-font-specification:Arial;fill:#ffffff;fill-opacity:1"
         id="path1066" /><path
         d="m 149.09597,205.41754 v -4.83509 h 0.63984 v 4.83509 z"
         style="font-weight:normal;font-family:Arial;-inkscape-font-specification:Arial;fill:#ffffff;fill-opacity:1"
         id="path1068" /><path
         d="m 150.86378,205.41754 v -4.83509 h 1.82388 q 0.48153,0 0.73549,0.0462 0.3562,0.0594 0.59697,0.22757 0.24076,0.16491 0.38588,0.46504 0.14842,0.30014 0.14842,0.65963 0,0.61676 -0.39248,1.04552 -0.39248,0.42546 -1.41821,0.42546 h -1.2401 v 1.9657 z m 0.63985,-2.53628 h 1.25 q 0.62005,0 0.8806,-0.23087 0.26056,-0.23087 0.26056,-0.64974 0,-0.30343 -0.15502,-0.51781 -0.15171,-0.21767 -0.40237,-0.28694 -0.16161,-0.0429 -0.59697,-0.0429 h -1.2368 z"
         style="font-weight:normal;font-family:Arial;-inkscape-font-specification:Arial;fill:#ffffff;fill-opacity:1"
         id="path1070" /></g></g></svg>
