<?xml version="1.0" encoding="UTF-8" standalone="no"?>
<svg
   xmlns:dc="http://purl.org/dc/elements/1.1/"
   xmlns:cc="http://creativecommons.org/ns#"
   xmlns:rdf="http://www.w3.org/1999/02/22-rdf-syntax-ns#"
   xmlns:svg="http://www.w3.org/2000/svg"
   xmlns="http://www.w3.org/2000/svg"
   xmlns:xlink="http://www.w3.org/1999/xlink"
   xmlns:sodipodi="http://sodipodi.sourceforge.net/DTD/sodipodi-0.dtd"
   xmlns:inkscape="http://www.inkscape.org/namespaces/inkscape"
   inkscape:version="1.0.2 (e86c870879, 2021-01-15)"
   sodipodi:docname="application-x-desktop.svg"
   version="1.1"
   id="svg2"
   height="32"
   width="32">
  <sodipodi:namedview
     inkscape:document-rotation="0"
     inkscape:current-layer="svg2"
     inkscape:window-maximized="1"
     inkscape:window-y="1237"
     inkscape:window-x="0"
     inkscape:cy="16.551141"
     inkscape:cx="2.9873376"
     inkscape:zoom="14.75"
     showgrid="false"
     id="namedview47"
     inkscape:window-height="1006"
     inkscape:window-width="1920"
     inkscape:pageshadow="2"
     inkscape:pageopacity="0"
     guidetolerance="10"
     gridtolerance="10"
     objecttolerance="10"
     borderopacity="1"
     bordercolor="#666666"
     pagecolor="#ffffff" />
  <defs
     id="defs4">
    <inkscape:path-effect
       effect="fillet_chamfer"
       id="path-effect872"
       is_visible="true"
       lpeversion="1"
       satellites_param="F,0,0,1,0,2,0,10 @ F,0,0,1,0,2,0,10 @ F,0,0,1,0,2,0,10 @ F,0,0,1,0,2,0,10"
       unit="px"
       method="auto"
       mode="F"
       radius="2"
       chamfer_steps="10"
       flexible="false"
       use_knot_distance="true"
       apply_no_radius="true"
       apply_with_radius="true"
       only_selected="false"
       hide_knots="false" />
    <inkscape:path-effect
       effect="fillet_chamfer"
       id="path-effect870"
       is_visible="true"
       lpeversion="1"
       satellites_param="F,0,0,1,0,2,0,10 @ F,0,0,1,0,2,0,10 @ F,0,0,1,0,2,0,10 @ F,0,0,1,0,2,0,10"
       unit="px"
       method="auto"
       mode="F"
       radius="2"
       chamfer_steps="10"
       flexible="false"
       use_knot_distance="true"
       apply_no_radius="true"
       apply_with_radius="true"
       only_selected="false"
       hide_knots="false" />
    <linearGradient
       id="linearGradient902">
      <stop
         style="stop-color:#770087;stop-opacity:1;"
         offset="0"
         id="stop898" />
      <stop
         style="stop-color:#452981;stop-opacity:1"
         offset="1"
         id="stop900" />
    </linearGradient>
    <linearGradient
       id="linearGradient899">
      <stop
         offset="0"
         style="stop-color:#f282f1;stop-opacity:1"
         id="stop895" />
      <stop
         offset="1"
         style="stop-color:#a56de2;stop-opacity:1"
         id="stop897" />
    </linearGradient>
    <linearGradient
       id="linearGradient916">
      <stop
         offset="0"
         style="stop-color:#ffffff;stop-opacity:1"
         id="stop912" />
      <stop
         offset="1"
         style="stop-color:#fafafa;stop-opacity:1"
         id="stop914" />
    </linearGradient>
    <linearGradient
       id="linearGradient3688-166-749-654">
      <stop
         offset="0"
         style="stop-color:#181818;stop-opacity:1"
         id="stop3088" />
      <stop
         offset="1"
         style="stop-color:#181818;stop-opacity:0"
         id="stop3090" />
    </linearGradient>
    <linearGradient
       id="linearGradient3688-464-309-604">
      <stop
         offset="0"
         style="stop-color:#181818;stop-opacity:1"
         id="stop3094" />
      <stop
         offset="1"
         style="stop-color:#181818;stop-opacity:0"
         id="stop3096" />
    </linearGradient>
    <linearGradient
       id="linearGradient3702-501-757-795">
      <stop
         offset="0"
         style="stop-color:#181818;stop-opacity:0"
         id="stop3100" />
      <stop
         offset="0.5"
         style="stop-color:#181818;stop-opacity:1"
         id="stop3102" />
      <stop
         offset="1"
         style="stop-color:#181818;stop-opacity:0"
         id="stop3104" />
    </linearGradient>
    <radialGradient
       r="2.5"
       fy="43.5"
       fx="4.9964824"
       cy="43.5"
       cx="4.9964824"
       gradientTransform="matrix(3.2060542,2.6349059e-7,-8.2185947e-8,1.0000077,36.981009,15.99962)"
       gradientUnits="userSpaceOnUse"
       id="radialGradient4730"
       xlink:href="#linearGradient3688-166-749-654" />
    <radialGradient
       r="2.5"
       fy="43.5"
       fx="4.9929786"
       cy="43.5"
       cx="4.9929786"
       gradientTransform="matrix(3.163875,0,0,0.99999995,-29.702994,-103.00012)"
       gradientUnits="userSpaceOnUse"
       id="radialGradient4732"
       xlink:href="#linearGradient3688-464-309-604" />
    <linearGradient
       y2="39.999443"
       x2="25.058096"
       y1="47.027729"
       x1="25.058096"
       gradientTransform="matrix(1.3928572,0,0,0.71428561,-0.0214163,28.42862)"
       gradientUnits="userSpaceOnUse"
       id="linearGradient4734"
       xlink:href="#linearGradient3702-501-757-795" />
    <linearGradient
       x1="38.660378"
       y1="5.8481169"
       x2="38.660378"
       y2="46.230125"
       id="linearGradient3381-5-4"
       xlink:href="#linearGradient3924-2-2-5-8"
       gradientUnits="userSpaceOnUse"
       gradientTransform="matrix(1.4324324,0,0,1.4362832,-7.3783796,-7.3995521)" />
    <linearGradient
       id="linearGradient3924-2-2-5-8">
      <stop
         id="stop3926-9-4-9-6"
         style="stop-color:#ffffff;stop-opacity:1"
         offset="0" />
      <stop
         id="stop3928-9-8-6-5"
         style="stop-color:#ffffff;stop-opacity:0.23529412"
         offset="0.06316455" />
      <stop
         id="stop3930-3-5-1-7"
         style="stop-color:#ffffff;stop-opacity:0.15686275"
         offset="0.95056331" />
      <stop
         id="stop3932-8-0-4-8"
         style="stop-color:#ffffff;stop-opacity:0.39215687"
         offset="1" />
    </linearGradient>
    <linearGradient
       x1="161.97743"
       y1="10.027002"
       x2="161.97743"
       y2="55.027"
       id="linearGradient5809"
       xlink:href="#linearGradient916"
       gradientUnits="userSpaceOnUse"
       gradientTransform="matrix(0.47054764,0,0,0.47457626,-60.688645,-0.1484071)" />
    <linearGradient
       xlink:href="#linearGradient899"
       id="linearGradient910"
       gradientUnits="userSpaceOnUse"
       gradientTransform="matrix(0.4705882,0,0,0.47457626,-60.695255,-0.1484071)"
       x1="161.97743"
       y1="5.1520023"
       x2="161.97743"
       y2="63.027" />
    <linearGradient
       xlink:href="#linearGradient902"
       id="linearGradient904"
       x1="32"
       y1="0"
       x2="32"
       y2="60"
       gradientUnits="userSpaceOnUse" />
    <linearGradient
       xlink:href="#linearGradient899"
       id="linearGradient910-3"
       gradientUnits="userSpaceOnUse"
       gradientTransform="matrix(0.94117646,0,0,0.94915254,-73.044014,10.801587)"
       x1="161.97743"
       y1="5.1520023"
       x2="161.97743"
       y2="63.027" />
    <linearGradient
       xlink:href="#linearGradient899"
       id="linearGradient910-5"
       gradientUnits="userSpaceOnUse"
       gradientTransform="matrix(0.47054764,0,0,0.47457626,-76.305129,-44.360347)"
       x1="161.97743"
       y1="5.1520023"
       x2="161.97743"
       y2="63.027" />
    <filter
       height="1.0008914"
       y="-0.00044569655"
       width="1.00104"
       x="-0.00052002415"
       id="filter1218"
       style="color-interpolation-filters:sRGB"
       inkscape:collect="always">
      <feGaussianBlur
         id="feGaussianBlur1220"
         stdDeviation="0.0051997931"
         inkscape:collect="always" />
    </filter>
  </defs>
  <metadata
     id="metadata7">
    <rdf:RDF>
      <cc:Work
         rdf:about="">
        <dc:format>image/svg+xml</dc:format>
        <dc:type
           rdf:resource="http://purl.org/dc/dcmitype/StillImage" />
        <dc:title />
      </cc:Work>
    </rdf:RDF>
  </metadata>
  <path
     style="opacity:0.2;vector-effect:none;fill:#000000;fill-opacity:1;stroke:none;stroke-width:0.472558;stroke-linecap:butt;stroke-linejoin:miter;stroke-miterlimit:4;stroke-dasharray:none;stroke-dashoffset:0;stroke-opacity:1;filter:url(#filter1218)"
     id="rect4897-1"
     y="2.7520487"
     x="4.0010357"
     ry="0"
     rx="0"
     height="28"
     width="23.997931"
     inkscape:path-effect="#path-effect872"
     d="M 6.0010357,2.7520487 H 25.998966 a 2,2 45 0 1 2,2 V 28.752049 a 2,2 135 0 1 -2,2 H 6.0010357 a 2,2 45 0 1 -2,-2 V 4.7520487 a 2,2 135 0 1 2,-2 z"
     sodipodi:type="rect" />
  <path
     style="opacity:1;vector-effect:none;fill:#eeeeee;fill-opacity:1;stroke:none;stroke-width:0.472578;stroke-linecap:butt;stroke-linejoin:miter;stroke-miterlimit:4;stroke-dasharray:none;stroke-dashoffset:0;stroke-opacity:1"
     id="rect4897"
     y="2"
     x="4"
     ry="0"
     rx="0"
     height="28"
     width="24"
     inkscape:path-effect="#path-effect870"
     d="m 6,2 h 20 a 2,2 45 0 1 2,2 v 24 a 2,2 135 0 1 -2,2 H 6 A 2,2 45 0 1 4,28 V 4 A 2,2 135 0 1 6,2 Z"
     sodipodi:type="rect" />
  <g
     transform="matrix(0.33382233,0,0,0.33382233,8.4975343,24.197799)"
     style="font-style:normal;font-weight:normal;font-size:40px;line-height:1.25;font-family:sans-serif;fill:#000000;fill-opacity:1;stroke:none;opacity:0"
     id="text1723"
     aria-label="Aa">
    <path
       id="path1725"
       d="M 11.868958,-20.670654 6.517396,-6.1589355 h 10.722656 z m -2.226562,-3.886719 h 4.472656 L 25.228333,4.6027832 h -4.101562 l -2.65625,-7.4804687 H 5.3259897 l -2.65625,7.4804687 h -4.1601562 z" />
    <path
       id="path1727"
       d="m 39.271302,-6.3933105 q -4.355469,0 -6.035156,0.9960937 -1.679688,0.9960938 -1.679688,3.3984375 0,1.9140625 1.25,3.046875 1.269532,1.1132813 3.4375,1.1132813 2.988282,0 4.785157,-2.10937505 1.816406,-2.12890625 1.816406,-5.64453125 v -0.8007812 z m 7.167969,-1.484375 V 4.6027832 h -3.59375 V 1.2824707 q -1.230469,1.9921875 -3.066406,2.9492188 -1.835938,0.9375 -4.492188,0.9375 -3.359375,0 -5.351562,-1.875 -1.972657,-1.8945313 -1.972657,-5.0585938 0,-3.6914062 2.460938,-5.5664062 2.480469,-1.875 7.382812,-1.875 h 5.039063 V -9.557373 q 0,-2.480469 -1.640625,-3.828125 -1.621094,-1.367188 -4.570313,-1.367188 -1.875,0 -3.652343,0.449219 -1.777344,0.449219 -3.417969,1.347656 v -3.320312 q 1.972656,-0.761719 3.828125,-1.132813 1.855469,-0.390625 3.613281,-0.390625 4.746094,0 7.089844,2.460938 2.34375,2.460937 2.34375,7.4609375 z" />
  </g>
  <path
     style="fill:#646464;fill-opacity:1;stroke-width:0.223652"
     d="m 15.673113,22 c -0.724179,0 -1.307092,-0.535115 -1.307092,-1.199915 v -0.562499 a 4.9019418,4.5000013 0 0 1 -1.545992,-0.819895 l -0.531133,0.28125 c -0.62716,0.332401 -1.423711,0.136282 -1.785801,-0.439453 l -0.326887,-0.518973 c -0.3620895,-0.575735 -0.148453,-1.30697 0.478706,-1.639369 l 0.528855,-0.280414 a 4.9019418,4.5000013 0 0 1 -0.08572,-0.820731 4.9019418,4.5000013 0 0 1 0.08572,-0.820731 l -0.528855,-0.280413 c -0.627159,-0.332401 -0.8407955,-1.063636 -0.478706,-1.63937 l 0.326887,-0.518973 c 0.36209,-0.575736 1.158641,-0.771853 1.785801,-0.439454 l 0.527486,0.279577 a 4.9019418,4.5000013 0 0 1 1.549639,-0.816964 V 11.199917 C 14.366021,10.535117 14.948934,10 15.673113,10 h 0.653775 c 0.724179,0 1.307093,0.535117 1.307093,1.199917 v 0.565848 a 4.9019418,4.5000013 0 0 1 1.54599,0.816545 l 0.531135,-0.28125 c 0.627158,-0.332399 1.423707,-0.136282 1.785799,0.439454 l 0.326887,0.518973 c 0.362089,0.575734 0.148451,1.306969 -0.478706,1.63937 l -0.528857,0.280413 a 4.9019418,4.5000013 0 0 1 0.08573,0.820731 4.9019418,4.5000013 0 0 1 -0.08573,0.820731 l 0.528857,0.280414 c 0.627159,0.332399 0.840795,1.063634 0.478706,1.639369 l -0.326887,0.518973 c -0.362092,0.575735 -1.158641,0.771854 -1.785799,0.439453 l -0.527489,-0.279577 a 4.9019418,4.5000013 0 0 1 -1.549636,0.817385 v 0.563336 C 17.633981,21.464885 17.051067,22 16.326888,22 Z m 0.326886,-3.428989 c 1.546965,0 2.801111,-1.151309 2.801111,-2.571429 0,-1.420119 -1.254146,-2.57101 -2.801111,-2.57101 -1.546963,0 -2.801109,1.150891 -2.801109,2.57101 0,1.42012 1.254146,2.571429 2.801109,2.571429 z"
     id="path4-81"
     inkscape:connector-curvature="0" />
</svg>
