<?xml version="1.0" encoding="UTF-8" standalone="no"?>
<svg
   xmlns:dc="http://purl.org/dc/elements/1.1/"
   xmlns:cc="http://creativecommons.org/ns#"
   xmlns:rdf="http://www.w3.org/1999/02/22-rdf-syntax-ns#"
   xmlns:svg="http://www.w3.org/2000/svg"
   xmlns="http://www.w3.org/2000/svg"
   xmlns:xlink="http://www.w3.org/1999/xlink"
   xmlns:sodipodi="http://sodipodi.sourceforge.net/DTD/sodipodi-0.dtd"
   xmlns:inkscape="http://www.inkscape.org/namespaces/inkscape"
   width="32"
   height="32"
   id="svg2"
   version="1.1"
   sodipodi:docname="application-ld+json.svg"
   inkscape:version="1.0.2 (e86c870879, 2021-01-15)">
  <sodipodi:namedview
     pagecolor="#ffffff"
     bordercolor="#666666"
     borderopacity="1"
     objecttolerance="10"
     gridtolerance="10"
     guidetolerance="10"
     inkscape:pageopacity="0"
     inkscape:pageshadow="2"
     inkscape:window-width="1920"
     inkscape:window-height="1006"
     id="namedview47"
     showgrid="false"
     inkscape:zoom="14.75"
     inkscape:cx="3.9999999"
     inkscape:cy="11.491526"
     inkscape:window-x="0"
     inkscape:window-y="1237"
     inkscape:window-maximized="1"
     inkscape:current-layer="svg2"
     inkscape:document-rotation="0"
     inkscape:pagecheckerboard="0" />
  <defs
     id="defs4">
    <inkscape:path-effect
       effect="fillet_chamfer"
       id="path-effect85"
       is_visible="true"
       lpeversion="1"
       satellites_param="F,0,0,1,0,2,0,10 @ F,0,0,1,0,2,0,10 @ F,0,0,1,0,2,0,10 @ F,0,0,1,0,2,0,10"
       unit="px"
       method="auto"
       mode="F"
       radius="2"
       chamfer_steps="10"
       flexible="false"
       use_knot_distance="true"
       apply_no_radius="true"
       apply_with_radius="true"
       only_selected="false"
       hide_knots="false" />
    <inkscape:path-effect
       effect="fillet_chamfer"
       id="path-effect83"
       is_visible="true"
       lpeversion="1"
       satellites_param="F,0,0,1,0,2,0,10 @ F,0,0,1,0,2,0,10 @ F,0,0,1,0,2,0,10 @ F,0,0,1,0,2,0,10"
       unit="px"
       method="auto"
       mode="F"
       radius="2"
       chamfer_steps="10"
       flexible="false"
       use_knot_distance="true"
       apply_no_radius="true"
       apply_with_radius="true"
       only_selected="false"
       hide_knots="false" />
    <inkscape:path-effect
       effect="fillet_chamfer"
       id="path-effect81"
       is_visible="true"
       lpeversion="1"
       satellites_param="F,0,0,1,0,2,0,10 @ F,0,0,1,0,2,0,10 @ F,0,0,1,0,2,0,10 @ F,0,0,1,0,2,0,10"
       unit="px"
       method="auto"
       mode="F"
       radius="2"
       chamfer_steps="10"
       flexible="false"
       use_knot_distance="true"
       apply_no_radius="true"
       apply_with_radius="true"
       only_selected="false"
       hide_knots="false" />
    <linearGradient
       id="linearGradient902">
      <stop
         id="stop898"
         offset="0"
         style="stop-color:#770087;stop-opacity:1;" />
      <stop
         id="stop900"
         offset="1"
         style="stop-color:#452981;stop-opacity:1" />
    </linearGradient>
    <linearGradient
       id="linearGradient899">
      <stop
         id="stop895"
         style="stop-color:#f282f1;stop-opacity:1"
         offset="0" />
      <stop
         id="stop897"
         style="stop-color:#a56de2;stop-opacity:1"
         offset="1" />
    </linearGradient>
    <linearGradient
       id="linearGradient916">
      <stop
         id="stop912"
         style="stop-color:#ffffff;stop-opacity:1"
         offset="0" />
      <stop
         id="stop914"
         style="stop-color:#fafafa;stop-opacity:1"
         offset="1" />
    </linearGradient>
    <linearGradient
       id="linearGradient3688-166-749-654">
      <stop
         id="stop3088"
         style="stop-color:#181818;stop-opacity:1"
         offset="0" />
      <stop
         id="stop3090"
         style="stop-color:#181818;stop-opacity:0"
         offset="1" />
    </linearGradient>
    <linearGradient
       id="linearGradient3688-464-309-604">
      <stop
         id="stop3094"
         style="stop-color:#181818;stop-opacity:1"
         offset="0" />
      <stop
         id="stop3096"
         style="stop-color:#181818;stop-opacity:0"
         offset="1" />
    </linearGradient>
    <linearGradient
       id="linearGradient3702-501-757-795">
      <stop
         id="stop3100"
         style="stop-color:#181818;stop-opacity:0"
         offset="0" />
      <stop
         id="stop3102"
         style="stop-color:#181818;stop-opacity:1"
         offset="0.5" />
      <stop
         id="stop3104"
         style="stop-color:#181818;stop-opacity:0"
         offset="1" />
    </linearGradient>
    <radialGradient
       xlink:href="#linearGradient3688-166-749-654"
       id="radialGradient4730"
       gradientUnits="userSpaceOnUse"
       gradientTransform="matrix(3.2060542,2.6349059e-7,-8.2185947e-8,1.0000077,36.981009,15.99962)"
       cx="4.9964824"
       cy="43.5"
       fx="4.9964824"
       fy="43.5"
       r="2.5" />
    <radialGradient
       xlink:href="#linearGradient3688-464-309-604"
       id="radialGradient4732"
       gradientUnits="userSpaceOnUse"
       gradientTransform="matrix(3.163875,0,0,0.99999995,-29.702994,-103.00012)"
       cx="4.9929786"
       cy="43.5"
       fx="4.9929786"
       fy="43.5"
       r="2.5" />
    <linearGradient
       xlink:href="#linearGradient3702-501-757-795"
       id="linearGradient4734"
       gradientUnits="userSpaceOnUse"
       gradientTransform="matrix(1.3928572,0,0,0.71428561,-0.0214163,28.42862)"
       x1="25.058096"
       y1="47.027729"
       x2="25.058096"
       y2="39.999443" />
    <linearGradient
       gradientTransform="matrix(1.4324324,0,0,1.4362832,-7.3783796,-7.3995521)"
       gradientUnits="userSpaceOnUse"
       xlink:href="#linearGradient3924-2-2-5-8"
       id="linearGradient3381-5-4"
       y2="46.230125"
       x2="38.660378"
       y1="5.8481169"
       x1="38.660378" />
    <linearGradient
       id="linearGradient3924-2-2-5-8">
      <stop
         offset="0"
         style="stop-color:#ffffff;stop-opacity:1"
         id="stop3926-9-4-9-6" />
      <stop
         offset="0.06316455"
         style="stop-color:#ffffff;stop-opacity:0.23529412"
         id="stop3928-9-8-6-5" />
      <stop
         offset="0.95056331"
         style="stop-color:#ffffff;stop-opacity:0.15686275"
         id="stop3930-3-5-1-7" />
      <stop
         offset="1"
         style="stop-color:#ffffff;stop-opacity:0.39215687"
         id="stop3932-8-0-4-8" />
    </linearGradient>
    <linearGradient
       gradientTransform="matrix(0.47054764,0,0,0.47457626,-60.688645,-0.1484071)"
       gradientUnits="userSpaceOnUse"
       xlink:href="#linearGradient916"
       id="linearGradient5809"
       y2="55.027"
       x2="161.97743"
       y1="10.027002"
       x1="161.97743" />
    <linearGradient
       y2="63.027"
       x2="161.97743"
       y1="5.1520023"
       x1="161.97743"
       gradientTransform="matrix(0.4705882,0,0,0.47457626,-60.695255,-0.1484071)"
       gradientUnits="userSpaceOnUse"
       id="linearGradient910"
       xlink:href="#linearGradient899" />
    <linearGradient
       gradientUnits="userSpaceOnUse"
       y2="60"
       x2="32"
       y1="0"
       x1="32"
       id="linearGradient904"
       xlink:href="#linearGradient902" />
    <linearGradient
       y2="63.027"
       x2="161.97743"
       y1="5.1520023"
       x1="161.97743"
       gradientTransform="matrix(0.94117646,0,0,0.94915254,-73.044014,10.801587)"
       gradientUnits="userSpaceOnUse"
       id="linearGradient910-3"
       xlink:href="#linearGradient899" />
    <linearGradient
       y2="63.027"
       x2="161.97743"
       y1="5.1520023"
       x1="161.97743"
       gradientTransform="matrix(0.47054764,0,0,0.47457626,-76.305129,-44.360347)"
       gradientUnits="userSpaceOnUse"
       id="linearGradient910-5"
       xlink:href="#linearGradient899" />
    <filter
       inkscape:collect="always"
       style="color-interpolation-filters:sRGB"
       id="filter1218"
       x="-0.00052002417"
       width="1.00104"
       y="-0.00044569657"
       height="1.0008914">
      <feGaussianBlur
         inkscape:collect="always"
         stdDeviation="0.0051997931"
         id="feGaussianBlur1220" />
    </filter>
  </defs>
  <metadata
     id="metadata7">
    <rdf:RDF>
      <cc:Work
         rdf:about="">
        <dc:format>image/svg+xml</dc:format>
        <dc:type
           rdf:resource="http://purl.org/dc/dcmitype/StillImage" />
      </cc:Work>
    </rdf:RDF>
  </metadata>
  <path
     width="23.997931"
     height="28"
     rx="0"
     ry="0"
     x="4.0010357"
     y="2.7520487"
     id="rect4897-1"
     style="opacity:0.2;vector-effect:none;fill:#000000;fill-opacity:1;stroke:none;stroke-width:0.472558;stroke-linecap:butt;stroke-linejoin:miter;stroke-miterlimit:4;stroke-dasharray:none;stroke-dashoffset:0;stroke-opacity:1;filter:url(#filter1218)"
     inkscape:path-effect="#path-effect83"
     d="M 6.0010357,2.7520487 H 25.998966 a 2,2 45 0 1 2,2 V 28.752049 a 2,2 135 0 1 -2,2 H 6.0010357 a 2,2 45 0 1 -2,-2 V 4.7520487 a 2,2 135 0 1 2,-2 z"
     sodipodi:type="rect" />
  <path
     width="24"
     height="28"
     rx="0"
     ry="0"
     x="4"
     y="2"
     id="rect4897"
     style="opacity:1;vector-effect:none;fill:#eeeeee;fill-opacity:1;stroke:none;stroke-width:0.472578;stroke-linecap:butt;stroke-linejoin:miter;stroke-miterlimit:4;stroke-dasharray:none;stroke-dashoffset:0;stroke-opacity:1"
     inkscape:path-effect="#path-effect81"
     d="m 6,2 h 20 a 2,2 45 0 1 2,2 v 24 a 2,2 135 0 1 -2,2 H 6 A 2,2 45 0 1 4,28 V 4 A 2,2 135 0 1 6,2 Z"
     sodipodi:type="rect" />
  <path
     style="opacity:1;fill:#f57900;fill-opacity:1;stroke:none;stroke-width:0.428245"
     id="rect7379"
     width="18"
     height="8"
     x="0"
     y="6"
     inkscape:path-effect="#path-effect85"
     d="m 2,6 h 14 a 2,2 45 0 1 2,2 v 4 a 2,2 135 0 1 -2,2 L 2,14 A 2,2 45 0 1 0,12 V 8 A 2,2 135 0 1 2,6 Z"
     sodipodi:type="rect" />
  <g
     id="g1067"
     transform="translate(-21.552145,-12.683348)" />
  <g
     id="g1069"
     transform="translate(-21.552145,-12.683348)" />
  <g
     id="g1071"
     transform="translate(-21.552145,-12.683348)" />
  <g
     id="g1073"
     transform="translate(-21.552145,-12.683348)" />
  <g
     id="g1075"
     transform="translate(-21.552145,-12.683348)" />
  <g
     id="g1077"
     transform="translate(-21.552145,-12.683348)" />
  <g
     id="g1079"
     transform="translate(-21.552145,-12.683348)" />
  <g
     id="g1081"
     transform="translate(-21.552145,-12.683348)" />
  <g
     id="g1083"
     transform="translate(-21.552145,-12.683348)" />
  <g
     id="g1085"
     transform="translate(-21.552145,-12.683348)" />
  <g
     id="g1087"
     transform="translate(-21.552145,-12.683348)" />
  <g
     id="g1089"
     transform="translate(-21.552145,-12.683348)" />
  <g
     id="g1091"
     transform="translate(-21.552145,-12.683348)" />
  <g
     id="g1093"
     transform="translate(-21.552145,-12.683348)" />
  <g
     id="g1095"
     transform="translate(-21.552145,-12.683348)" />
  <g
     id="g1365"
     transform="translate(-77.491525,-23.79661)" />
  <g
     id="g1367"
     transform="translate(-77.491525,-23.79661)" />
  <g
     id="g1369"
     transform="translate(-77.491525,-23.79661)" />
  <g
     id="g1371"
     transform="translate(-77.491525,-23.79661)" />
  <g
     id="g1373"
     transform="translate(-77.491525,-23.79661)" />
  <g
     id="g1375"
     transform="translate(-77.491525,-23.79661)" />
  <g
     id="g1377"
     transform="translate(-77.491525,-23.79661)" />
  <g
     id="g1379"
     transform="translate(-77.491525,-23.79661)" />
  <g
     id="g1381"
     transform="translate(-77.491525,-23.79661)" />
  <g
     id="g1383"
     transform="translate(-77.491525,-23.79661)" />
  <g
     id="g1385"
     transform="translate(-77.491525,-23.79661)" />
  <g
     id="g1387"
     transform="translate(-77.491525,-23.79661)" />
  <g
     id="g1389"
     transform="translate(-77.491525,-23.79661)" />
  <g
     id="g1391"
     transform="translate(-77.491525,-23.79661)" />
  <g
     id="g1393"
     transform="translate(-77.491525,-23.79661)" />
  <g
     aria-label="JSON"
     id="text2965"
     style="font-size:6px;line-height:1.25;fill:#ffffff">
    <path
       d="m 2.644043,7.2519531 h 0.5917968 v 4.0693359 q 0,0.791016 -0.3017578,1.148438 -0.2988281,0.357421 -0.9638672,0.357421 H 1.7446289 v -0.498046 h 0.1845703 q 0.3925781,0 0.553711,-0.219727 0.1611328,-0.219727 0.1611328,-0.788086 z"
       id="path896" />
    <path
       d="M 7.0356445,7.3955078 V 7.9726562 Q 6.6987305,7.8115234 6.3999023,7.7324219 6.1010742,7.6533203 5.8227539,7.6533203 q -0.4833984,0 -0.7470703,0.1875 -0.2607422,0.1875 -0.2607422,0.5332031 0,0.2900391 0.1728516,0.4394532 0.1757812,0.1464843 0.6621093,0.2373047 l 0.3574219,0.073242 Q 6.6694336,9.25 6.9829102,9.5693359 q 0.3164062,0.3164063 0.3164062,0.8496091 0,0.635743 -0.4277344,0.963868 -0.4248047,0.328125 -1.2480468,0.328125 -0.3105469,0 -0.6621094,-0.07031 Q 4.612793,11.570313 4.237793,11.432617 v -0.609375 q 0.3603515,0.202149 0.7060547,0.304688 0.3457031,0.102539 0.6796875,0.102539 0.5068359,0 0.7822265,-0.199219 0.2753906,-0.199219 0.2753906,-0.568359 0,-0.322266 -0.1992187,-0.5039066 Q 6.2856445,9.7773438 5.8344727,9.6865234 L 5.4741211,9.6162109 Q 4.8120117,9.484375 4.5161133,9.203125 4.2202148,8.921875 4.2202148,8.4208984 q 0,-0.5800781 0.4072266,-0.9140625 0.4101563,-0.3339843 1.1279297,-0.3339843 0.3076172,0 0.6269531,0.055664 0.319336,0.055664 0.6533203,0.1669922 z"
       id="path898" />
    <path
       d="m 9.9975586,7.6533203 q -0.6445313,0 -1.0253906,0.4804688 -0.3779297,0.4804687 -0.3779297,1.3095703 0,0.8261716 0.3779297,1.3066406 0.3808593,0.480469 1.0253906,0.480469 0.6445314,0 1.0195314,-0.480469 0.37793,-0.480469 0.37793,-1.3066406 0,-0.8291016 -0.37793,-1.3095703 -0.375,-0.4804688 -1.0195314,-0.4804688 z m 0,-0.4804687 q 0.9199214,0 1.4707034,0.618164 0.550781,0.6152344 0.550781,1.6523438 0,1.0341796 -0.550781,1.6523436 -0.550782,0.615235 -1.4707034,0.615235 -0.9228516,0 -1.4765625,-0.615235 -0.5507813,-0.615234 -0.5507813,-1.6523436 0,-1.0371094 0.5507813,-1.6523438 0.5537109,-0.618164 1.4765625,-0.618164 z"
       id="path900" />
    <path
       d="m 12.944824,7.2519531 h 0.796875 l 1.939453,3.6591799 V 7.2519531 h 0.574219 V 11.625977 H 15.458496 L 13.519043,7.9667969 v 3.6591801 h -0.574219 z"
       id="path902" />
  </g>
  <g
     aria-label="LD"
     id="text89"
     style="font-size:10.6667px;line-height:1.25;font-family:sans-serif;fill:#999999;fill-opacity:1">
    <path
       d="m 12.463997,22.021152 h 0.565335 c 0.245334,0 0.373334,-0.02133 0.469335,-0.07467 0.170667,-0.106667 0.277334,-0.288001 0.277334,-0.480002 0,-0.170667 -0.08533,-0.330668 -0.234667,-0.437335 C 13.424,20.943816 13.328,20.922482 13.029332,20.922482 h -2.282674 c -0.288001,0 -0.362668,0.01067 -0.469335,0.07467 -0.170667,0.106667 -0.2773339,0.277334 -0.2773339,0.469335 0,0.181334 0.085334,0.352001 0.2346669,0.448001 0.117334,0.08533 0.234668,0.106667 0.512002,0.106667 h 0.565335 v 3.818679 h -0.565335 c -0.277334,0 -0.362668,0.01067 -0.469335,0.07467 -0.170667,0.106667 -0.2773339,0.277334 -0.2773339,0.469335 0,0.373334 0.2560009,0.554668 0.7466689,0.554668 h 5.077349 v -1.994673 c 0,-0.266667 -0.02133,-0.362667 -0.08533,-0.458668 -0.106667,-0.170667 -0.288001,-0.266667 -0.490668,-0.266667 -0.192001,0 -0.352001,0.07467 -0.469335,0.224 -0.08533,0.117334 -0.106667,0.213334 -0.106667,0.501335 v 0.896003 h -2.208007 z"
       style="font-style:normal;font-variant:normal;font-weight:bold;font-stretch:normal;font-size:10.6667px;font-family:'Nimbus Mono PS';-inkscape-font-specification:'Nimbus Mono PS Bold';fill:#999999;fill-opacity:1"
       id="path96" />
    <path
       d="m 16.837328,25.839831 c -0.405335,0.01067 -0.650669,0.213334 -0.650669,0.544002 0,0.181334 0.096,0.352001 0.234667,0.448001 0.106667,0.07467 0.266668,0.106667 0.522669,0.106667 h 2.176007 c 1.685338,0.04267 2.869342,-1.045336 2.880009,-2.666675 v -0.469335 c 0,-1.632005 -1.226671,-2.901342 -2.794676,-2.880009 h -2.26134 c -0.288001,0 -0.373335,0.01067 -0.480002,0.07467 -0.170667,0.106667 -0.277334,0.288001 -0.277334,0.469335 0,0.181334 0.096,0.352001 0.245334,0.448001 0.096,0.07467 0.170667,0.096 0.405335,0.106667 z m 1.152003,0 v -3.818679 h 1.130671 c 0.981336,-0.04267 1.706672,0.693336 1.728005,1.749339 v 0.480002 c 0,1.013336 -0.661335,1.632005 -1.717339,1.589338 z"
       style="font-style:normal;font-variant:normal;font-weight:bold;font-stretch:normal;font-size:10.6667px;font-family:'Nimbus Mono PS';-inkscape-font-specification:'Nimbus Mono PS Bold';fill:#999999;fill-opacity:1"
       id="path98" />
  </g>
</svg>
