<?xml version="1.0" encoding="UTF-8" standalone="no"?>
<svg
   width="32"
   height="32"
   id="svg2"
   version="1.1"
   sodipodi:docname="image-vnd.djvu.svg"
   inkscape:version="1.1 (c68e22c387, 2021-05-23)"
   xmlns:inkscape="http://www.inkscape.org/namespaces/inkscape"
   xmlns:sodipodi="http://sodipodi.sourceforge.net/DTD/sodipodi-0.dtd"
   xmlns:xlink="http://www.w3.org/1999/xlink"
   xmlns="http://www.w3.org/2000/svg"
   xmlns:svg="http://www.w3.org/2000/svg"
   xmlns:rdf="http://www.w3.org/1999/02/22-rdf-syntax-ns#"
   xmlns:cc="http://creativecommons.org/ns#"
   xmlns:dc="http://purl.org/dc/elements/1.1/">
  <sodipodi:namedview
     pagecolor="#ffffff"
     bordercolor="#666666"
     borderopacity="1"
     objecttolerance="10"
     gridtolerance="10"
     guidetolerance="10"
     inkscape:pageopacity="0"
     inkscape:pageshadow="2"
     inkscape:window-width="1920"
     inkscape:window-height="1002"
     id="namedview47"
     showgrid="false"
     inkscape:zoom="7.375"
     inkscape:cx="19.525424"
     inkscape:cy="1.7627119"
     inkscape:window-x="0"
     inkscape:window-y="0"
     inkscape:window-maximized="1"
     inkscape:current-layer="svg2"
     inkscape:document-rotation="0"
     inkscape:pagecheckerboard="0" />
  <defs
     id="defs4">
    <inkscape:path-effect
       effect="fillet_chamfer"
       id="path-effect893"
       is_visible="true"
       lpeversion="1"
       satellites_param="F,0,0,1,0,2,0,10 @ F,0,0,1,0,2,0,10 @ F,0,0,1,0,2,0,10 @ F,0,0,1,0,2,0,10"
       unit="px"
       method="auto"
       mode="F"
       radius="2"
       chamfer_steps="10"
       flexible="false"
       use_knot_distance="true"
       apply_no_radius="true"
       apply_with_radius="true"
       only_selected="false"
       hide_knots="false" />
    <inkscape:path-effect
       effect="fillet_chamfer"
       id="path-effect891"
       is_visible="true"
       lpeversion="1"
       satellites_param="F,0,0,1,0,2,0,10 @ F,0,0,1,0,2,0,10 @ F,0,0,1,0,2,0,10 @ F,0,0,1,0,2,0,10"
       unit="px"
       method="auto"
       mode="F"
       radius="2"
       chamfer_steps="10"
       flexible="false"
       use_knot_distance="true"
       apply_no_radius="true"
       apply_with_radius="true"
       only_selected="false"
       hide_knots="false" />
    <inkscape:path-effect
       effect="fillet_chamfer"
       id="path-effect889"
       is_visible="true"
       lpeversion="1"
       satellites_param="F,0,0,1,0,2,0,10 @ F,0,0,1,0,2,0,10 @ F,0,0,1,0,2,0,10 @ F,0,0,1,0,2,0,10"
       unit="px"
       method="auto"
       mode="F"
       radius="2"
       chamfer_steps="10"
       flexible="false"
       use_knot_distance="true"
       apply_no_radius="true"
       apply_with_radius="true"
       only_selected="false"
       hide_knots="false" />
    <linearGradient
       id="linearGradient902">
      <stop
         id="stop898"
         offset="0"
         style="stop-color:#770087;stop-opacity:1;" />
      <stop
         id="stop900"
         offset="1"
         style="stop-color:#452981;stop-opacity:1" />
    </linearGradient>
    <linearGradient
       id="linearGradient899">
      <stop
         id="stop895"
         style="stop-color:#f282f1;stop-opacity:1"
         offset="0" />
      <stop
         id="stop897"
         style="stop-color:#a56de2;stop-opacity:1"
         offset="1" />
    </linearGradient>
    <linearGradient
       id="linearGradient916">
      <stop
         id="stop912"
         style="stop-color:#ffffff;stop-opacity:1"
         offset="0" />
      <stop
         id="stop914"
         style="stop-color:#fafafa;stop-opacity:1"
         offset="1" />
    </linearGradient>
    <linearGradient
       id="linearGradient3688-166-749-654">
      <stop
         id="stop3088"
         style="stop-color:#181818;stop-opacity:1"
         offset="0" />
      <stop
         id="stop3090"
         style="stop-color:#181818;stop-opacity:0"
         offset="1" />
    </linearGradient>
    <linearGradient
       id="linearGradient3688-464-309-604">
      <stop
         id="stop3094"
         style="stop-color:#181818;stop-opacity:1"
         offset="0" />
      <stop
         id="stop3096"
         style="stop-color:#181818;stop-opacity:0"
         offset="1" />
    </linearGradient>
    <linearGradient
       id="linearGradient3702-501-757-795">
      <stop
         id="stop3100"
         style="stop-color:#181818;stop-opacity:0"
         offset="0" />
      <stop
         id="stop3102"
         style="stop-color:#181818;stop-opacity:1"
         offset="0.5" />
      <stop
         id="stop3104"
         style="stop-color:#181818;stop-opacity:0"
         offset="1" />
    </linearGradient>
    <radialGradient
       xlink:href="#linearGradient3688-166-749-654"
       id="radialGradient4730"
       gradientUnits="userSpaceOnUse"
       gradientTransform="matrix(3.2060542,2.6349059e-7,-8.2185947e-8,1.0000077,36.981009,15.99962)"
       cx="4.9964824"
       cy="43.5"
       fx="4.9964824"
       fy="43.5"
       r="2.5" />
    <radialGradient
       xlink:href="#linearGradient3688-464-309-604"
       id="radialGradient4732"
       gradientUnits="userSpaceOnUse"
       gradientTransform="matrix(3.163875,0,0,0.99999995,-29.702994,-103.00012)"
       cx="4.9929786"
       cy="43.5"
       fx="4.9929786"
       fy="43.5"
       r="2.5" />
    <linearGradient
       xlink:href="#linearGradient3702-501-757-795"
       id="linearGradient4734"
       gradientUnits="userSpaceOnUse"
       gradientTransform="matrix(1.3928572,0,0,0.71428561,-0.0214163,28.42862)"
       x1="25.058096"
       y1="47.027729"
       x2="25.058096"
       y2="39.999443" />
    <linearGradient
       gradientTransform="matrix(1.4324324,0,0,1.4362832,-7.3783796,-7.3995521)"
       gradientUnits="userSpaceOnUse"
       xlink:href="#linearGradient3924-2-2-5-8"
       id="linearGradient3381-5-4"
       y2="46.230125"
       x2="38.660378"
       y1="5.8481169"
       x1="38.660378" />
    <linearGradient
       id="linearGradient3924-2-2-5-8">
      <stop
         offset="0"
         style="stop-color:#ffffff;stop-opacity:1"
         id="stop3926-9-4-9-6" />
      <stop
         offset="0.06316455"
         style="stop-color:#ffffff;stop-opacity:0.23529412"
         id="stop3928-9-8-6-5" />
      <stop
         offset="0.95056331"
         style="stop-color:#ffffff;stop-opacity:0.15686275"
         id="stop3930-3-5-1-7" />
      <stop
         offset="1"
         style="stop-color:#ffffff;stop-opacity:0.39215687"
         id="stop3932-8-0-4-8" />
    </linearGradient>
    <linearGradient
       gradientTransform="matrix(0.47054764,0,0,0.47457626,-60.688645,-0.1484071)"
       gradientUnits="userSpaceOnUse"
       xlink:href="#linearGradient916"
       id="linearGradient5809"
       y2="55.027"
       x2="161.97743"
       y1="10.027002"
       x1="161.97743" />
    <linearGradient
       y2="63.027"
       x2="161.97743"
       y1="5.1520023"
       x1="161.97743"
       gradientTransform="matrix(0.4705882,0,0,0.47457626,-60.695255,-0.1484071)"
       gradientUnits="userSpaceOnUse"
       id="linearGradient910"
       xlink:href="#linearGradient899" />
    <linearGradient
       gradientUnits="userSpaceOnUse"
       y2="60"
       x2="32"
       y1="0"
       x1="32"
       id="linearGradient904"
       xlink:href="#linearGradient902" />
    <linearGradient
       y2="63.027"
       x2="161.97743"
       y1="5.1520023"
       x1="161.97743"
       gradientTransform="matrix(0.94117646,0,0,0.94915254,-73.044014,10.801587)"
       gradientUnits="userSpaceOnUse"
       id="linearGradient910-3"
       xlink:href="#linearGradient899" />
    <linearGradient
       y2="63.027"
       x2="161.97743"
       y1="5.1520023"
       x1="161.97743"
       gradientTransform="matrix(0.47054764,0,0,0.47457626,-76.305129,-44.360347)"
       gradientUnits="userSpaceOnUse"
       id="linearGradient910-5"
       xlink:href="#linearGradient899" />
    <filter
       inkscape:collect="always"
       style="color-interpolation-filters:sRGB"
       id="filter1218"
       x="-0.00052002417"
       width="1.00104"
       y="-0.00044569657"
       height="1.0008914">
      <feGaussianBlur
         inkscape:collect="always"
         stdDeviation="0.0051997931"
         id="feGaussianBlur1220" />
    </filter>
  </defs>
  <metadata
     id="metadata7">
    <rdf:RDF>
      <cc:Work
         rdf:about="">
        <dc:format>image/svg+xml</dc:format>
        <dc:type
           rdf:resource="http://purl.org/dc/dcmitype/StillImage" />
      </cc:Work>
    </rdf:RDF>
  </metadata>
  <path
     width="23.997931"
     height="28"
     rx="0"
     ry="0"
     x="4.0010357"
     y="2.7520487"
     id="rect4897-1"
     style="opacity:0.2;vector-effect:none;fill:#000000;fill-opacity:1;stroke:none;stroke-width:0.472558;stroke-linecap:butt;stroke-linejoin:miter;stroke-miterlimit:4;stroke-dasharray:none;stroke-dashoffset:0;stroke-opacity:1;filter:url(#filter1218)"
     inkscape:path-effect="#path-effect893"
     d="M 6.0010357,2.7520487 H 25.998966 a 2,2 45 0 1 2,2 V 28.752049 a 2,2 135 0 1 -2,2 H 6.0010357 a 2,2 45 0 1 -2,-2 V 4.7520487 a 2,2 135 0 1 2,-2 z"
     sodipodi:type="rect" />
  <path
     width="24"
     height="28"
     rx="0"
     ry="0"
     x="4"
     y="2"
     id="rect4897"
     style="opacity:1;vector-effect:none;fill:#eeeeee;fill-opacity:1;stroke:none;stroke-width:0.472578;stroke-linecap:butt;stroke-linejoin:miter;stroke-miterlimit:4;stroke-dasharray:none;stroke-dashoffset:0;stroke-opacity:1"
     inkscape:path-effect="#path-effect891"
     d="m 6,2 h 20 a 2,2 45 0 1 2,2 v 24 a 2,2 135 0 1 -2,2 H 6 A 2,2 45 0 1 4,28 V 4 A 2,2 135 0 1 6,2 Z"
     sodipodi:type="rect" />
  <path
     y="6"
     x="0"
     height="8"
     width="18"
     id="rect7379"
     style="opacity:1;fill:#674180;fill-opacity:1;stroke:none;stroke-width:0.428245"
     inkscape:path-effect="#path-effect889"
     d="m 2,6 h 14 a 2,2 45 0 1 2,2 v 4 a 2,2 135 0 1 -2,2 L 2,14 A 2,2 45 0 1 0,12 V 8 A 2,2 135 0 1 2,6 Z"
     sodipodi:type="rect" />
  <g
     id="g1131"
     transform="matrix(0.14625241,0,0,0.14625241,-50.750183,-4.6745909)" />
  <g
     id="g1133"
     transform="matrix(0.14625241,0,0,0.14625241,-50.750183,-4.6745909)" />
  <g
     id="g1135"
     transform="matrix(0.14625241,0,0,0.14625241,-50.750183,-4.6745909)" />
  <g
     id="g1137"
     transform="matrix(0.14625241,0,0,0.14625241,-50.750183,-4.6745909)" />
  <g
     id="g1139"
     transform="matrix(0.14625241,0,0,0.14625241,-50.750183,-4.6745909)" />
  <g
     id="g1141"
     transform="matrix(0.14625241,0,0,0.14625241,-50.750183,-4.6745909)" />
  <g
     id="g1143"
     transform="matrix(0.14625241,0,0,0.14625241,-50.750183,-4.6745909)" />
  <g
     id="g1145"
     transform="matrix(0.14625241,0,0,0.14625241,-50.750183,-4.6745909)" />
  <g
     id="g1147"
     transform="matrix(0.14625241,0,0,0.14625241,-50.750183,-4.6745909)" />
  <g
     id="g1149"
     transform="matrix(0.14625241,0,0,0.14625241,-50.750183,-4.6745909)" />
  <g
     id="g1151"
     transform="matrix(0.14625241,0,0,0.14625241,-50.750183,-4.6745909)" />
  <g
     id="g1153"
     transform="matrix(0.14625241,0,0,0.14625241,-50.750183,-4.6745909)" />
  <g
     id="g1155"
     transform="matrix(0.14625241,0,0,0.14625241,-50.750183,-4.6745909)" />
  <g
     id="g1157"
     transform="matrix(0.14625241,0,0,0.14625241,-50.750183,-4.6745909)" />
  <g
     id="g1159"
     transform="matrix(0.14625241,0,0,0.14625241,-50.750183,-4.6745909)" />
  <g
     aria-label="djvu"
     id="text2436"
     style="font-size:6px;line-height:1.25">
    <path
       d="M 5.4169922,8.8720703 V 7.0966797 H 5.9560547 V 11.655273 H 5.4169922 v -0.492187 q -0.1699219,0.292969 -0.4306641,0.436523 -0.2578125,0.140625 -0.6210937,0.140625 -0.5947266,0 -0.9697266,-0.474609 -0.3720703,-0.474609 -0.3720703,-1.248047 0,-0.7734374 0.3720703,-1.2480467 0.375,-0.4746094 0.9697266,-0.4746094 0.3632812,0 0.6210937,0.1435547 0.2607422,0.140625 0.4306641,0.4335937 z M 3.5800781,10.017578 q 0,0.594727 0.2431641,0.93457 0.2460937,0.336915 0.6738281,0.336915 0.4277344,0 0.6738281,-0.336915 0.2460938,-0.339843 0.2460938,-0.93457 0,-0.5947264 -0.2460938,-0.9316405 -0.2460937,-0.3398437 -0.6738281,-0.3398437 -0.4277344,0 -0.6738281,0.3398437 -0.2431641,0.3369141 -0.2431641,0.9316405 z"
       style="fill:#ffffff"
       id="path24140" />
    <path
       d="m 7.0664062,8.3740234 h 0.5390625 v 3.3398436 q 0,0.626953 -0.2402343,0.908203 -0.2373047,0.28125 -0.7675782,0.28125 H 6.3925781 v -0.457031 h 0.1435547 q 0.3076172,0 0.4189453,-0.143555 0.1113281,-0.140625 0.1113281,-0.588867 z m 0,-1.2773437 H 7.6054687 V 7.7792969 H 7.0664062 Z"
       style="fill:#ffffff"
       id="path24142" />
    <path
       d="M 8.3466797,8.3740234 H 8.9179688 L 9.9433594,11.12793 10.96875,8.3740234 h 0.571289 L 10.30957,11.655273 H 9.5771484 Z"
       style="fill:#ffffff"
       id="path24144" />
    <path
       d="M 12.228516,10.360352 V 8.3740234 h 0.539062 v 1.9658206 q 0,0.46582 0.181641,0.700195 0.18164,0.231445 0.544922,0.231445 0.436523,0 0.688476,-0.27832 0.254883,-0.27832 0.254883,-0.758789 V 8.3740234 h 0.539063 V 11.655273 H 14.4375 v -0.503906 q -0.196289,0.298828 -0.457031,0.445313 -0.257813,0.143554 -0.600586,0.143554 -0.56543,0 -0.858399,-0.351562 -0.292968,-0.351563 -0.292968,-1.02832 z m 1.356445,-2.0654301 z"
       style="fill:#ffffff"
       id="path24146" />
  </g>
  <path
     id="path600"
     style="fill:none;stroke:#674180;stroke-width:1.09954;stroke-linecap:round;stroke-linejoin:round;stroke-opacity:1"
     d="m 20.579807,24.906017 c -0.03976,1.141055 -1.388407,1.928499 -2.525591,1.755388 -1.743777,-0.320536 -6.723182,-5.686626 -6.626422,-7.047237 -0.11365,-0.95387 1.43661,-2.141721 2.227573,-2.084721 1.304314,0.06193 5.752774,4.829164 5.634904,6.213349 -0.04293,0.752259 -0.740296,1.359907 -1.384185,1.174129 -1.409517,-0.263537 -3.533998,-5.359405 -4.797145,-5.281294" />
</svg>
