<?xml version="1.0" encoding="UTF-8" standalone="no"?>
<svg
   width="32"
   height="32"
   id="svg2"
   version="1.1"
   sodipodi:docname="model-vnd.sap.vds.svg"
   inkscape:version="1.2.1 (9c6d41e410, 2022-07-14)"
   xml:space="preserve"
   xmlns:inkscape="http://www.inkscape.org/namespaces/inkscape"
   xmlns:sodipodi="http://sodipodi.sourceforge.net/DTD/sodipodi-0.dtd"
   xmlns:xlink="http://www.w3.org/1999/xlink"
   xmlns="http://www.w3.org/2000/svg"
   xmlns:svg="http://www.w3.org/2000/svg"
   xmlns:rdf="http://www.w3.org/1999/02/22-rdf-syntax-ns#"
   xmlns:cc="http://creativecommons.org/ns#"
   xmlns:dc="http://purl.org/dc/elements/1.1/"><sodipodi:namedview
     pagecolor="#ffffff"
     bordercolor="#666666"
     borderopacity="1"
     objecttolerance="10"
     gridtolerance="10"
     guidetolerance="10"
     inkscape:pageopacity="0"
     inkscape:pageshadow="2"
     inkscape:window-width="1920"
     inkscape:window-height="1002"
     id="namedview47"
     showgrid="false"
     inkscape:zoom="7.375"
     inkscape:cx="-52.610169"
     inkscape:cy="7.7966102"
     inkscape:window-x="0"
     inkscape:window-y="0"
     inkscape:window-maximized="1"
     inkscape:current-layer="svg2"
     inkscape:document-rotation="0"
     inkscape:pagecheckerboard="0"
     inkscape:showpageshadow="2"
     inkscape:deskcolor="#d1d1d1" /><defs
     id="defs4"><inkscape:path-effect
       effect="fillet_chamfer"
       id="path-effect893"
       is_visible="true"
       lpeversion="1"
       satellites_param="F,0,0,1,0,2,0,10 @ F,0,0,1,0,2,0,10 @ F,0,0,1,0,2,0,10 @ F,0,0,1,0,2,0,10"
       unit="px"
       method="auto"
       mode="F"
       radius="2"
       chamfer_steps="10"
       flexible="false"
       use_knot_distance="true"
       apply_no_radius="true"
       apply_with_radius="true"
       only_selected="false"
       hide_knots="false"
       nodesatellites_param="F,0,0,1,0,2,0,10 @ F,0,0,1,0,2,0,10 @ F,0,0,1,0,2,0,10 @ F,0,0,1,0,2,0,10" /><inkscape:path-effect
       effect="fillet_chamfer"
       id="path-effect891"
       is_visible="true"
       lpeversion="1"
       satellites_param="F,0,0,1,0,2,0,10 @ F,0,0,1,0,2,0,10 @ F,0,0,1,0,2,0,10 @ F,0,0,1,0,2,0,10"
       unit="px"
       method="auto"
       mode="F"
       radius="2"
       chamfer_steps="10"
       flexible="false"
       use_knot_distance="true"
       apply_no_radius="true"
       apply_with_radius="true"
       only_selected="false"
       hide_knots="false"
       nodesatellites_param="F,0,0,1,0,2,0,10 @ F,0,0,1,0,2,0,10 @ F,0,0,1,0,2,0,10 @ F,0,0,1,0,2,0,10" /><inkscape:path-effect
       effect="fillet_chamfer"
       id="path-effect889"
       is_visible="true"
       lpeversion="1"
       satellites_param="F,0,0,1,0,2,0,10 @ F,0,0,1,0,2,0,10 @ F,0,0,1,0,2,0,10 @ F,0,0,1,0,2,0,10"
       unit="px"
       method="auto"
       mode="F"
       radius="2"
       chamfer_steps="10"
       flexible="false"
       use_knot_distance="true"
       apply_no_radius="true"
       apply_with_radius="true"
       only_selected="false"
       hide_knots="false"
       nodesatellites_param="F,0,0,1,0,2,0,10 @ F,0,0,1,0,2,0,10 @ F,0,0,1,0,2,0,10 @ F,0,0,1,0,2,0,10" /><linearGradient
       id="linearGradient902"><stop
         id="stop898"
         offset="0"
         style="stop-color:#770087;stop-opacity:1;" /><stop
         id="stop900"
         offset="1"
         style="stop-color:#452981;stop-opacity:1" /></linearGradient><linearGradient
       id="linearGradient899"><stop
         id="stop895"
         style="stop-color:#f282f1;stop-opacity:1"
         offset="0" /><stop
         id="stop897"
         style="stop-color:#a56de2;stop-opacity:1"
         offset="1" /></linearGradient><linearGradient
       id="linearGradient916"><stop
         id="stop912"
         style="stop-color:#ffffff;stop-opacity:1"
         offset="0" /><stop
         id="stop914"
         style="stop-color:#fafafa;stop-opacity:1"
         offset="1" /></linearGradient><linearGradient
       id="linearGradient3688-166-749-654"><stop
         id="stop3088"
         style="stop-color:#181818;stop-opacity:1"
         offset="0" /><stop
         id="stop3090"
         style="stop-color:#181818;stop-opacity:0"
         offset="1" /></linearGradient><linearGradient
       id="linearGradient3688-464-309-604"><stop
         id="stop3094"
         style="stop-color:#181818;stop-opacity:1"
         offset="0" /><stop
         id="stop3096"
         style="stop-color:#181818;stop-opacity:0"
         offset="1" /></linearGradient><linearGradient
       id="linearGradient3702-501-757-795"><stop
         id="stop3100"
         style="stop-color:#181818;stop-opacity:0"
         offset="0" /><stop
         id="stop3102"
         style="stop-color:#181818;stop-opacity:1"
         offset="0.5" /><stop
         id="stop3104"
         style="stop-color:#181818;stop-opacity:0"
         offset="1" /></linearGradient><radialGradient
       xlink:href="#linearGradient3688-166-749-654"
       id="radialGradient4730"
       gradientUnits="userSpaceOnUse"
       gradientTransform="matrix(3.2060542,2.6349059e-7,-8.2185947e-8,1.0000077,36.981009,15.99962)"
       cx="4.9964824"
       cy="43.5"
       fx="4.9964824"
       fy="43.5"
       r="2.5" /><radialGradient
       xlink:href="#linearGradient3688-464-309-604"
       id="radialGradient4732"
       gradientUnits="userSpaceOnUse"
       gradientTransform="matrix(3.163875,0,0,0.99999995,-29.702994,-103.00012)"
       cx="4.9929786"
       cy="43.5"
       fx="4.9929786"
       fy="43.5"
       r="2.5" /><linearGradient
       xlink:href="#linearGradient3702-501-757-795"
       id="linearGradient4734"
       gradientUnits="userSpaceOnUse"
       gradientTransform="matrix(1.3928572,0,0,0.71428561,-0.0214163,28.42862)"
       x1="25.058096"
       y1="47.027729"
       x2="25.058096"
       y2="39.999443" /><linearGradient
       gradientTransform="matrix(1.4324324,0,0,1.4362832,-7.3783796,-7.3995521)"
       gradientUnits="userSpaceOnUse"
       xlink:href="#linearGradient3924-2-2-5-8"
       id="linearGradient3381-5-4"
       y2="46.230125"
       x2="38.660378"
       y1="5.8481169"
       x1="38.660378" /><linearGradient
       id="linearGradient3924-2-2-5-8"><stop
         offset="0"
         style="stop-color:#ffffff;stop-opacity:1"
         id="stop3926-9-4-9-6" /><stop
         offset="0.06316455"
         style="stop-color:#ffffff;stop-opacity:0.23529412"
         id="stop3928-9-8-6-5" /><stop
         offset="0.95056331"
         style="stop-color:#ffffff;stop-opacity:0.15686275"
         id="stop3930-3-5-1-7" /><stop
         offset="1"
         style="stop-color:#ffffff;stop-opacity:0.39215687"
         id="stop3932-8-0-4-8" /></linearGradient><linearGradient
       gradientTransform="matrix(0.47054764,0,0,0.47457626,-60.688645,-0.1484071)"
       gradientUnits="userSpaceOnUse"
       xlink:href="#linearGradient916"
       id="linearGradient5809"
       y2="55.027"
       x2="161.97743"
       y1="10.027002"
       x1="161.97743" /><linearGradient
       y2="63.027"
       x2="161.97743"
       y1="5.1520023"
       x1="161.97743"
       gradientTransform="matrix(0.4705882,0,0,0.47457626,-60.695255,-0.1484071)"
       gradientUnits="userSpaceOnUse"
       id="linearGradient910"
       xlink:href="#linearGradient899" /><linearGradient
       gradientUnits="userSpaceOnUse"
       y2="60"
       x2="32"
       y1="0"
       x1="32"
       id="linearGradient904"
       xlink:href="#linearGradient902" /><linearGradient
       y2="63.027"
       x2="161.97743"
       y1="5.1520023"
       x1="161.97743"
       gradientTransform="matrix(0.94117646,0,0,0.94915254,-73.044014,10.801587)"
       gradientUnits="userSpaceOnUse"
       id="linearGradient910-3"
       xlink:href="#linearGradient899" /><linearGradient
       y2="63.027"
       x2="161.97743"
       y1="5.1520023"
       x1="161.97743"
       gradientTransform="matrix(0.47054764,0,0,0.47457626,-76.305129,-44.360347)"
       gradientUnits="userSpaceOnUse"
       id="linearGradient910-5"
       xlink:href="#linearGradient899" /><filter
       inkscape:collect="always"
       style="color-interpolation-filters:sRGB"
       id="filter1218"
       x="-0.00052002417"
       width="1.00104"
       y="-0.00044569657"
       height="1.0008914"><feGaussianBlur
         inkscape:collect="always"
         stdDeviation="0.0051997931"
         id="feGaussianBlur1220" /></filter></defs><metadata
     id="metadata7"><rdf:RDF><cc:Work
         rdf:about=""><dc:format>image/svg+xml</dc:format><dc:type
           rdf:resource="http://purl.org/dc/dcmitype/StillImage" /></cc:Work></rdf:RDF></metadata><g
     id="g1131"
     transform="matrix(0.14625241,0,0,0.14625241,-50.750183,-4.6745909)" /><g
     id="g1133"
     transform="matrix(0.14625241,0,0,0.14625241,-50.750183,-4.6745909)" /><g
     id="g1135"
     transform="matrix(0.14625241,0,0,0.14625241,-50.750183,-4.6745909)" /><g
     id="g1137"
     transform="matrix(0.14625241,0,0,0.14625241,-50.750183,-4.6745909)" /><g
     id="g1139"
     transform="matrix(0.14625241,0,0,0.14625241,-50.750183,-4.6745909)" /><g
     id="g1141"
     transform="matrix(0.14625241,0,0,0.14625241,-50.750183,-4.6745909)" /><g
     id="g1143"
     transform="matrix(0.14625241,0,0,0.14625241,-50.750183,-4.6745909)" /><g
     id="g1145"
     transform="matrix(0.14625241,0,0,0.14625241,-50.750183,-4.6745909)" /><g
     id="g1147"
     transform="matrix(0.14625241,0,0,0.14625241,-50.750183,-4.6745909)" /><g
     id="g1149"
     transform="matrix(0.14625241,0,0,0.14625241,-50.750183,-4.6745909)" /><g
     id="g1151"
     transform="matrix(0.14625241,0,0,0.14625241,-50.750183,-4.6745909)" /><g
     id="g1153"
     transform="matrix(0.14625241,0,0,0.14625241,-50.750183,-4.6745909)" /><g
     id="g1155"
     transform="matrix(0.14625241,0,0,0.14625241,-50.750183,-4.6745909)" /><g
     id="g1157"
     transform="matrix(0.14625241,0,0,0.14625241,-50.750183,-4.6745909)" /><g
     id="g1159"
     transform="matrix(0.14625241,0,0,0.14625241,-50.750183,-4.6745909)" /><g
     id="g319"
     transform="matrix(0.0546875,0,0,0.0546875,-40.397721,2.504461)">
</g><g
     id="g321"
     transform="matrix(0.0546875,0,0,0.0546875,-40.397721,2.504461)">
</g><g
     id="g323"
     transform="matrix(0.0546875,0,0,0.0546875,-40.397721,2.504461)">
</g><g
     id="g325"
     transform="matrix(0.0546875,0,0,0.0546875,-40.397721,2.504461)">
</g><g
     id="g327"
     transform="matrix(0.0546875,0,0,0.0546875,-40.397721,2.504461)">
</g><g
     id="g329"
     transform="matrix(0.0546875,0,0,0.0546875,-40.397721,2.504461)">
</g><g
     id="g331"
     transform="matrix(0.0546875,0,0,0.0546875,-40.397721,2.504461)">
</g><g
     id="g333"
     transform="matrix(0.0546875,0,0,0.0546875,-40.397721,2.504461)">
</g><g
     id="g335"
     transform="matrix(0.0546875,0,0,0.0546875,-40.397721,2.504461)">
</g><g
     id="g337"
     transform="matrix(0.0546875,0,0,0.0546875,-40.397721,2.504461)">
</g><g
     id="g339"
     transform="matrix(0.0546875,0,0,0.0546875,-40.397721,2.504461)">
</g><g
     id="g341"
     transform="matrix(0.0546875,0,0,0.0546875,-40.397721,2.504461)">
</g><g
     id="g343"
     transform="matrix(0.0546875,0,0,0.0546875,-40.397721,2.504461)">
</g><g
     id="g345"
     transform="matrix(0.0546875,0,0,0.0546875,-40.397721,2.504461)">
</g><g
     id="g347"
     transform="matrix(0.0546875,0,0,0.0546875,-40.397721,2.504461)">
</g><g
     id="g1054"><path
       width="23.997931"
       height="28"
       rx="0"
       ry="0"
       x="4.0010357"
       y="2.7520487"
       id="rect4897-1"
       style="opacity:0.2;fill:#000000;fill-opacity:1;stroke:none;stroke-width:0.472558;stroke-linecap:butt;stroke-linejoin:miter;stroke-miterlimit:4;stroke-dasharray:none;stroke-dashoffset:0;stroke-opacity:1;filter:url(#filter1218)"
       inkscape:path-effect="#path-effect893"
       d="M 6.0010357,2.7520487 H 25.998966 a 2,2 45 0 1 2,2 V 28.752049 a 2,2 135 0 1 -2,2 H 6.0010357 a 2,2 45 0 1 -2,-2 V 4.7520487 a 2,2 135 0 1 2,-2 z"
       sodipodi:type="rect" /><path
       width="24"
       height="28"
       rx="0"
       ry="0"
       x="4"
       y="2"
       id="rect4897"
       style="opacity:1;fill:#eeeeee;fill-opacity:1;stroke:none;stroke-width:0.472578;stroke-linecap:butt;stroke-linejoin:miter;stroke-miterlimit:4;stroke-dasharray:none;stroke-dashoffset:0;stroke-opacity:1"
       inkscape:path-effect="#path-effect891"
       d="m 6,2 h 20 a 2,2 45 0 1 2,2 v 24 a 2,2 135 0 1 -2,2 H 6 A 2,2 45 0 1 4,28 V 4 A 2,2 135 0 1 6,2 Z"
       sodipodi:type="rect" /><path
       y="6"
       x="0"
       height="8"
       width="18"
       id="rect7379"
       style="opacity:1;fill:#c94259;fill-opacity:1;stroke:none;stroke-width:0.428245"
       inkscape:path-effect="#path-effect889"
       d="m 2,6 h 14 a 2,2 45 0 1 2,2 v 4 a 2,2 135 0 1 -2,2 L 2,14 A 2,2 45 0 1 0,12 V 8 A 2,2 135 0 1 2,6 Z"
       sodipodi:type="rect" /><path
       style="fill:#c94258;stroke-width:0.0546875;fill-opacity:1"
       d="m 22.765954,23.9 h -0.933352 v -7 l -4.2,3.266648 v 7.466649 l 3.599969,-2.8 h 1.533328 c 0.257742,0 0.466648,-0.208961 0.466648,-0.466649 0,-0.257687 -0.208851,-0.466648 -0.466593,-0.466648 z"
       id="path305" /><path
       style="fill:#e83c58;stroke-width:0.0546875;fill-opacity:1"
       d="m 17.632657,20.166648 h -7.466703 v 6.80668 l -1.263336,1.263336 c -0.168492,0.168547 -0.181071,0.44543 -0.02866,0.628578 0.173195,0.208086 0.497218,0.222742 0.688625,0.03145 l 1.26339,-1.26339 h 6.80668 z"
       id="path307" /><path
       style="fill:#e897a5;stroke-width:0.0546875;fill-opacity:1"
       d="m 14.832657,16.9 v -0.933352 c 0,-0.257742 -0.208961,-0.466648 -0.466649,-0.466648 -0.257687,0 -0.466648,0.208961 -0.466648,0.466648 v 1.296258 l -3.733352,2.903742 h 7.466649 l 4.2,-3.266648 z"
       id="path309" /><g
       aria-label="3D"
       id="text1213"
       style="font-size:4px;font-family:'DejaVu Sans';-inkscape-font-specification:'DejaVu Sans';opacity:0.5;fill:#ffffff;stroke-width:0.267"><path
         d="m 12.777843,23.696247 q 0.294922,0.07617 0.447266,0.265625 0.154297,0.1875 0.154297,0.478516 0,0.433593 -0.332031,0.660156 -0.332032,0.224609 -0.96875,0.224609 -0.22461,0 -0.451172,-0.03711 -0.22461,-0.03516 -0.445313,-0.107422 v -0.580078 q 0.210938,0.105469 0.417969,0.160156 0.208984,0.05273 0.410156,0.05273 0.298828,0 0.457032,-0.103516 0.160156,-0.103516 0.160156,-0.296875 0,-0.199219 -0.164063,-0.300781 -0.162109,-0.103516 -0.480468,-0.103516 H 11.68214 v -0.484375 h 0.316407 q 0.283203,0 0.421875,-0.08789 0.138671,-0.08984 0.138671,-0.271484 0,-0.167969 -0.134765,-0.259766 -0.134766,-0.0918 -0.38086,-0.0918 -0.18164,0 -0.367187,0.04102 -0.185547,0.04102 -0.369141,0.121094 v -0.550781 q 0.222657,-0.0625 0.441407,-0.09375 0.21875,-0.03125 0.429687,-0.03125 0.568359,0 0.849609,0.1875 0.283204,0.185547 0.283204,0.560547 0,0.255859 -0.134766,0.419921 -0.134766,0.16211 -0.398438,0.228516 z"
         style="font-weight:bold;-inkscape-font-specification:'DejaVu Sans Bold';fill:#ffffff"
         id="path3104" /><path
         d="m 14.816906,22.920856 v 1.779297 h 0.269531 q 0.460938,0 0.703125,-0.228515 0.244141,-0.228516 0.244141,-0.664063 0,-0.433594 -0.242188,-0.660156 -0.242187,-0.226563 -0.705078,-0.226563 z m -0.751953,-0.568359 h 0.792969 q 0.664062,0 0.988281,0.0957 0.326172,0.09375 0.558594,0.320313 0.205078,0.197265 0.304687,0.455078 0.09961,0.257812 0.09961,0.583984 0,0.330078 -0.09961,0.589844 -0.09961,0.257812 -0.304687,0.455078 -0.234375,0.226563 -0.5625,0.322266 -0.328125,0.09375 -0.984375,0.09375 h -0.792969 z"
         style="font-weight:bold;-inkscape-font-specification:'DejaVu Sans Bold';fill:#ffffff"
         id="path3106" /></g><g
       aria-label="VDS"
       id="text369"
       style="font-size:6px;font-family:'DejaVu Sans';-inkscape-font-specification:'DejaVu Sans';fill:#ffffff;stroke-width:0.267"
       transform="translate(0.74374205,0.3390072)"><path
         d="M 3.8500078,11.845074 2.1800859,7.4710503 H 2.79825 L 4.1839921,11.153667 5.572664,7.4710503 H 6.1878984 L 4.5209062,11.845074 Z"
         id="path475" /><path
         d="m 7.4183671,7.9573784 v 3.4013676 h 0.7148438 q 0.9052734,0 1.3242187,-0.410157 0.421875,-0.410156 0.421875,-1.2949216 0,-0.8789062 -0.421875,-1.2861328 Q 9.0384843,7.9573784 8.1332109,7.9573784 Z M 6.8265703,7.4710503 h 1.2158203 q 1.2714844,0 1.8662109,0.5302734 0.5947265,0.5273437 0.5947265,1.6523437 0,1.1308596 -0.5976562,1.6611326 -0.5976562,0.530274 -1.8632812,0.530274 H 6.8265703 Z"
         id="path477" /><path
         d="M 14.068758,7.6146049 V 8.1917534 Q 13.731844,8.0306206 13.433016,7.951519 13.134187,7.872417 12.855867,7.872417 q -0.483398,0 -0.74707,0.1875 -0.260742,0.1875 -0.260742,0.5332032 0,0.290039 0.172851,0.4394531 0.175781,0.1464844 0.66211,0.2373047 l 0.357421,0.073242 q 0.66211,0.1259765 0.975586,0.4453125 0.316407,0.3164055 0.316407,0.8496085 0,0.635743 -0.427735,0.963868 -0.424804,0.328125 -1.248047,0.328125 -0.310546,0 -0.662109,-0.07031 -0.348633,-0.07031 -0.723633,-0.208008 v -0.609375 q 0.360352,0.202149 0.706055,0.304688 0.345703,0.102539 0.679687,0.102539 0.506836,0 0.782227,-0.199219 0.275391,-0.199219 0.275391,-0.568359 0,-0.322266 -0.199219,-0.503906 Q 13.318758,9.9964433 12.867586,9.905623 L 12.507234,9.835311 Q 11.845125,9.703475 11.549227,9.422225 11.253328,9.140975 11.253328,8.6399985 q 0,-0.5800782 0.407227,-0.9140625 0.410156,-0.3339844 1.127929,-0.3339844 0.307618,0 0.626953,0.055664 0.319336,0.055664 0.653321,0.1669921 z"
         id="path479" /></g></g></svg>
