<?xml version="1.0" encoding="UTF-8" standalone="no"?>
<svg
   width="32"
   height="32"
   id="svg2"
   version="1.1"
   sodipodi:docname="model-vnd.flatland.3dml.svg"
   inkscape:version="1.2.1 (9c6d41e410, 2022-07-14)"
   xml:space="preserve"
   xmlns:inkscape="http://www.inkscape.org/namespaces/inkscape"
   xmlns:sodipodi="http://sodipodi.sourceforge.net/DTD/sodipodi-0.dtd"
   xmlns:xlink="http://www.w3.org/1999/xlink"
   xmlns="http://www.w3.org/2000/svg"
   xmlns:svg="http://www.w3.org/2000/svg"
   xmlns:rdf="http://www.w3.org/1999/02/22-rdf-syntax-ns#"
   xmlns:cc="http://creativecommons.org/ns#"
   xmlns:dc="http://purl.org/dc/elements/1.1/"><sodipodi:namedview
     pagecolor="#ffffff"
     bordercolor="#666666"
     borderopacity="1"
     objecttolerance="10"
     gridtolerance="10"
     guidetolerance="10"
     inkscape:pageopacity="0"
     inkscape:pageshadow="2"
     inkscape:window-width="1920"
     inkscape:window-height="1002"
     id="namedview47"
     showgrid="false"
     inkscape:zoom="14.75"
     inkscape:cx="6.9152542"
     inkscape:cy="10.20339"
     inkscape:window-x="0"
     inkscape:window-y="0"
     inkscape:window-maximized="1"
     inkscape:current-layer="svg2"
     inkscape:document-rotation="0"
     inkscape:pagecheckerboard="0"
     inkscape:showpageshadow="2"
     inkscape:deskcolor="#d1d1d1" /><defs
     id="defs4"><inkscape:path-effect
       effect="fillet_chamfer"
       id="path-effect893"
       is_visible="true"
       lpeversion="1"
       satellites_param="F,0,0,1,0,2,0,10 @ F,0,0,1,0,2,0,10 @ F,0,0,1,0,2,0,10 @ F,0,0,1,0,2,0,10"
       unit="px"
       method="auto"
       mode="F"
       radius="2"
       chamfer_steps="10"
       flexible="false"
       use_knot_distance="true"
       apply_no_radius="true"
       apply_with_radius="true"
       only_selected="false"
       hide_knots="false"
       nodesatellites_param="F,0,0,1,0,2,0,10 @ F,0,0,1,0,2,0,10 @ F,0,0,1,0,2,0,10 @ F,0,0,1,0,2,0,10" /><inkscape:path-effect
       effect="fillet_chamfer"
       id="path-effect891"
       is_visible="true"
       lpeversion="1"
       satellites_param="F,0,0,1,0,2,0,10 @ F,0,0,1,0,2,0,10 @ F,0,0,1,0,2,0,10 @ F,0,0,1,0,2,0,10"
       unit="px"
       method="auto"
       mode="F"
       radius="2"
       chamfer_steps="10"
       flexible="false"
       use_knot_distance="true"
       apply_no_radius="true"
       apply_with_radius="true"
       only_selected="false"
       hide_knots="false"
       nodesatellites_param="F,0,0,1,0,2,0,10 @ F,0,0,1,0,2,0,10 @ F,0,0,1,0,2,0,10 @ F,0,0,1,0,2,0,10" /><inkscape:path-effect
       effect="fillet_chamfer"
       id="path-effect889"
       is_visible="true"
       lpeversion="1"
       satellites_param="F,0,0,1,0,2,0,10 @ F,0,0,1,0,2,0,10 @ F,0,0,1,0,2,0,10 @ F,0,0,1,0,2,0,10"
       unit="px"
       method="auto"
       mode="F"
       radius="2"
       chamfer_steps="10"
       flexible="false"
       use_knot_distance="true"
       apply_no_radius="true"
       apply_with_radius="true"
       only_selected="false"
       hide_knots="false"
       nodesatellites_param="F,0,0,1,0,2,0,10 @ F,0,0,1,0,2,0,10 @ F,0,0,1,0,2,0,10 @ F,0,0,1,0,2,0,10" /><linearGradient
       id="linearGradient902"><stop
         id="stop898"
         offset="0"
         style="stop-color:#770087;stop-opacity:1;" /><stop
         id="stop900"
         offset="1"
         style="stop-color:#452981;stop-opacity:1" /></linearGradient><linearGradient
       id="linearGradient899"><stop
         id="stop895"
         style="stop-color:#f282f1;stop-opacity:1"
         offset="0" /><stop
         id="stop897"
         style="stop-color:#a56de2;stop-opacity:1"
         offset="1" /></linearGradient><linearGradient
       id="linearGradient916"><stop
         id="stop912"
         style="stop-color:#ffffff;stop-opacity:1"
         offset="0" /><stop
         id="stop914"
         style="stop-color:#fafafa;stop-opacity:1"
         offset="1" /></linearGradient><linearGradient
       id="linearGradient3688-166-749-654"><stop
         id="stop3088"
         style="stop-color:#181818;stop-opacity:1"
         offset="0" /><stop
         id="stop3090"
         style="stop-color:#181818;stop-opacity:0"
         offset="1" /></linearGradient><linearGradient
       id="linearGradient3688-464-309-604"><stop
         id="stop3094"
         style="stop-color:#181818;stop-opacity:1"
         offset="0" /><stop
         id="stop3096"
         style="stop-color:#181818;stop-opacity:0"
         offset="1" /></linearGradient><linearGradient
       id="linearGradient3702-501-757-795"><stop
         id="stop3100"
         style="stop-color:#181818;stop-opacity:0"
         offset="0" /><stop
         id="stop3102"
         style="stop-color:#181818;stop-opacity:1"
         offset="0.5" /><stop
         id="stop3104"
         style="stop-color:#181818;stop-opacity:0"
         offset="1" /></linearGradient><radialGradient
       xlink:href="#linearGradient3688-166-749-654"
       id="radialGradient4730"
       gradientUnits="userSpaceOnUse"
       gradientTransform="matrix(3.2060542,2.6349059e-7,-8.2185947e-8,1.0000077,36.981009,15.99962)"
       cx="4.9964824"
       cy="43.5"
       fx="4.9964824"
       fy="43.5"
       r="2.5" /><radialGradient
       xlink:href="#linearGradient3688-464-309-604"
       id="radialGradient4732"
       gradientUnits="userSpaceOnUse"
       gradientTransform="matrix(3.163875,0,0,0.99999995,-29.702994,-103.00012)"
       cx="4.9929786"
       cy="43.5"
       fx="4.9929786"
       fy="43.5"
       r="2.5" /><linearGradient
       xlink:href="#linearGradient3702-501-757-795"
       id="linearGradient4734"
       gradientUnits="userSpaceOnUse"
       gradientTransform="matrix(1.3928572,0,0,0.71428561,-0.0214163,28.42862)"
       x1="25.058096"
       y1="47.027729"
       x2="25.058096"
       y2="39.999443" /><linearGradient
       gradientTransform="matrix(1.4324324,0,0,1.4362832,-7.3783796,-7.3995521)"
       gradientUnits="userSpaceOnUse"
       xlink:href="#linearGradient3924-2-2-5-8"
       id="linearGradient3381-5-4"
       y2="46.230125"
       x2="38.660378"
       y1="5.8481169"
       x1="38.660378" /><linearGradient
       id="linearGradient3924-2-2-5-8"><stop
         offset="0"
         style="stop-color:#ffffff;stop-opacity:1"
         id="stop3926-9-4-9-6" /><stop
         offset="0.06316455"
         style="stop-color:#ffffff;stop-opacity:0.23529412"
         id="stop3928-9-8-6-5" /><stop
         offset="0.95056331"
         style="stop-color:#ffffff;stop-opacity:0.15686275"
         id="stop3930-3-5-1-7" /><stop
         offset="1"
         style="stop-color:#ffffff;stop-opacity:0.39215687"
         id="stop3932-8-0-4-8" /></linearGradient><linearGradient
       gradientTransform="matrix(0.47054764,0,0,0.47457626,-60.688645,-0.1484071)"
       gradientUnits="userSpaceOnUse"
       xlink:href="#linearGradient916"
       id="linearGradient5809"
       y2="55.027"
       x2="161.97743"
       y1="10.027002"
       x1="161.97743" /><linearGradient
       y2="63.027"
       x2="161.97743"
       y1="5.1520023"
       x1="161.97743"
       gradientTransform="matrix(0.4705882,0,0,0.47457626,-60.695255,-0.1484071)"
       gradientUnits="userSpaceOnUse"
       id="linearGradient910"
       xlink:href="#linearGradient899" /><linearGradient
       gradientUnits="userSpaceOnUse"
       y2="60"
       x2="32"
       y1="0"
       x1="32"
       id="linearGradient904"
       xlink:href="#linearGradient902" /><linearGradient
       y2="63.027"
       x2="161.97743"
       y1="5.1520023"
       x1="161.97743"
       gradientTransform="matrix(0.94117646,0,0,0.94915254,-73.044014,10.801587)"
       gradientUnits="userSpaceOnUse"
       id="linearGradient910-3"
       xlink:href="#linearGradient899" /><linearGradient
       y2="63.027"
       x2="161.97743"
       y1="5.1520023"
       x1="161.97743"
       gradientTransform="matrix(0.47054764,0,0,0.47457626,-76.305129,-44.360347)"
       gradientUnits="userSpaceOnUse"
       id="linearGradient910-5"
       xlink:href="#linearGradient899" /><filter
       inkscape:collect="always"
       style="color-interpolation-filters:sRGB"
       id="filter1218"
       x="-0.00052002417"
       width="1.00104"
       y="-0.00044569657"
       height="1.0008914"><feGaussianBlur
         inkscape:collect="always"
         stdDeviation="0.0051997931"
         id="feGaussianBlur1220" /></filter></defs><metadata
     id="metadata7"><rdf:RDF><cc:Work
         rdf:about=""><dc:format>image/svg+xml</dc:format><dc:type
           rdf:resource="http://purl.org/dc/dcmitype/StillImage" /></cc:Work></rdf:RDF></metadata><path
     width="23.997931"
     height="28"
     rx="0"
     ry="0"
     x="4.0010357"
     y="2.7520487"
     id="rect4897-1"
     style="opacity:0.2;vector-effect:none;fill:#000000;fill-opacity:1;stroke:none;stroke-width:0.472558;stroke-linecap:butt;stroke-linejoin:miter;stroke-miterlimit:4;stroke-dasharray:none;stroke-dashoffset:0;stroke-opacity:1;filter:url(#filter1218)"
     inkscape:path-effect="#path-effect893"
     d="M 6.0010357,2.7520487 H 25.998966 a 2,2 45 0 1 2,2 V 28.752049 a 2,2 135 0 1 -2,2 H 6.0010357 a 2,2 45 0 1 -2,-2 V 4.7520487 a 2,2 135 0 1 2,-2 z"
     sodipodi:type="rect" /><path
     width="24"
     height="28"
     rx="0"
     ry="0"
     x="4"
     y="2"
     id="rect4897"
     style="opacity:1;vector-effect:none;fill:#eeeeee;fill-opacity:1;stroke:none;stroke-width:0.472578;stroke-linecap:butt;stroke-linejoin:miter;stroke-miterlimit:4;stroke-dasharray:none;stroke-dashoffset:0;stroke-opacity:1"
     inkscape:path-effect="#path-effect891"
     d="m 6,2 h 20 a 2,2 45 0 1 2,2 v 24 a 2,2 135 0 1 -2,2 H 6 A 2,2 45 0 1 4,28 V 4 A 2,2 135 0 1 6,2 Z"
     sodipodi:type="rect" /><path
     y="6"
     x="0"
     height="8"
     width="18"
     id="rect7379"
     style="opacity:1;fill:#808000;fill-opacity:1;stroke:none;stroke-width:0.428245"
     inkscape:path-effect="#path-effect889"
     d="m 2,6 h 14 a 2,2 45 0 1 2,2 v 4 a 2,2 135 0 1 -2,2 L 2,14 A 2,2 45 0 1 0,12 V 8 A 2,2 135 0 1 2,6 Z"
     sodipodi:type="rect" /><g
     id="g1131"
     transform="matrix(0.14625241,0,0,0.14625241,-50.750183,-4.6745909)" /><g
     id="g1133"
     transform="matrix(0.14625241,0,0,0.14625241,-50.750183,-4.6745909)" /><g
     id="g1135"
     transform="matrix(0.14625241,0,0,0.14625241,-50.750183,-4.6745909)" /><g
     id="g1137"
     transform="matrix(0.14625241,0,0,0.14625241,-50.750183,-4.6745909)" /><g
     id="g1139"
     transform="matrix(0.14625241,0,0,0.14625241,-50.750183,-4.6745909)" /><g
     id="g1141"
     transform="matrix(0.14625241,0,0,0.14625241,-50.750183,-4.6745909)" /><g
     id="g1143"
     transform="matrix(0.14625241,0,0,0.14625241,-50.750183,-4.6745909)" /><g
     id="g1145"
     transform="matrix(0.14625241,0,0,0.14625241,-50.750183,-4.6745909)" /><g
     id="g1147"
     transform="matrix(0.14625241,0,0,0.14625241,-50.750183,-4.6745909)" /><g
     id="g1149"
     transform="matrix(0.14625241,0,0,0.14625241,-50.750183,-4.6745909)" /><g
     id="g1151"
     transform="matrix(0.14625241,0,0,0.14625241,-50.750183,-4.6745909)" /><g
     id="g1153"
     transform="matrix(0.14625241,0,0,0.14625241,-50.750183,-4.6745909)" /><g
     id="g1155"
     transform="matrix(0.14625241,0,0,0.14625241,-50.750183,-4.6745909)" /><g
     id="g1157"
     transform="matrix(0.14625241,0,0,0.14625241,-50.750183,-4.6745909)" /><g
     id="g1159"
     transform="matrix(0.14625241,0,0,0.14625241,-50.750183,-4.6745909)" /><g
     id="g319"
     transform="matrix(0.0546875,0,0,0.0546875,-40.397721,2.504461)">
</g><g
     id="g321"
     transform="matrix(0.0546875,0,0,0.0546875,-40.397721,2.504461)">
</g><g
     id="g323"
     transform="matrix(0.0546875,0,0,0.0546875,-40.397721,2.504461)">
</g><g
     id="g325"
     transform="matrix(0.0546875,0,0,0.0546875,-40.397721,2.504461)">
</g><g
     id="g327"
     transform="matrix(0.0546875,0,0,0.0546875,-40.397721,2.504461)">
</g><g
     id="g329"
     transform="matrix(0.0546875,0,0,0.0546875,-40.397721,2.504461)">
</g><g
     id="g331"
     transform="matrix(0.0546875,0,0,0.0546875,-40.397721,2.504461)">
</g><g
     id="g333"
     transform="matrix(0.0546875,0,0,0.0546875,-40.397721,2.504461)">
</g><g
     id="g335"
     transform="matrix(0.0546875,0,0,0.0546875,-40.397721,2.504461)">
</g><g
     id="g337"
     transform="matrix(0.0546875,0,0,0.0546875,-40.397721,2.504461)">
</g><g
     id="g339"
     transform="matrix(0.0546875,0,0,0.0546875,-40.397721,2.504461)">
</g><g
     id="g341"
     transform="matrix(0.0546875,0,0,0.0546875,-40.397721,2.504461)">
</g><g
     id="g343"
     transform="matrix(0.0546875,0,0,0.0546875,-40.397721,2.504461)">
</g><g
     id="g345"
     transform="matrix(0.0546875,0,0,0.0546875,-40.397721,2.504461)">
</g><g
     id="g347"
     transform="matrix(0.0546875,0,0,0.0546875,-40.397721,2.504461)">
</g><style
     type="text/css"
     id="style315">
	.stone_een{fill:#0B1719;}
</style><path
     class="stone_een"
     d="m 13.428572,20.337045 v -2.571429 c 0,-0.236571 0.192,-0.428571 0.428571,-0.428571 v -0.428572 c 0,-0.236571 0.192,-0.428571 0.428571,-0.428571 h 1.285715 C 15.808,16.479902 16,16.671902 16,16.908473 v 0.428572 c 0.236572,0 0.428572,0.192 0.428572,0.428571 v 2.571429 z m 8.142856,3.857143 v -0.428571 c 0,-0.236572 -0.192,-0.428572 -0.428571,-0.428572 h -1.285714 c -0.236572,0 -0.428572,0.192 -0.428572,0.428572 v 0.428571 H 19 v -0.428571 c 0,-0.236572 -0.192,-0.428572 -0.428572,-0.428572 h -1.285713 c -0.236572,0 -0.428572,0.192 -0.428572,0.428572 v 0.428571 H 10 v 3.428572 c 0,0.236571 0.192,0.428571 0.428571,0.428571 H 21.571428 C 21.808,28.051331 22,27.859331 22,27.62276 v -3.000001 c 0,-0.236571 -0.192,-0.428571 -0.428572,-0.428571 z M 16.428572,23.765617 V 20.765616 H 13 v -0.428571 c 0,-0.236571 -0.192,-0.428571 -0.428571,-0.428571 h -1.285715 c -0.236571,0 -0.428571,0.192 -0.428571,0.428571 v 0.428571 H 10.428571 C 10.192,20.765616 10,20.957616 10,21.194188 v 2.571429 z"
     id="path317"
     style="fill:#808000;fill-opacity:1;stroke-width:0.428571" /><g
     aria-label="3dml"
     id="text364"
     style="font-size:6px;font-family:'DejaVu Sans';-inkscape-font-specification:'DejaVu Sans';fill:#ffffff;stroke-width:0.267"><path
       d="m 3.918457,9.878418 q 0.4248047,0.09082 0.6621094,0.37793 0.2402344,0.287109 0.2402344,0.708984 0,0.647461 -0.4453125,1.001953 -0.4453125,0.354492 -1.265625,0.354492 -0.2753906,0 -0.5683594,-0.05566 Q 2.2514648,12.213379 1.940918,12.10498 v -0.571289 q 0.2460937,0.143555 0.5390625,0.216797 0.2929687,0.07324 0.6123047,0.07324 0.5566406,0 0.8466796,-0.219726 0.2929688,-0.219727 0.2929688,-0.638672 0,-0.386719 -0.2724609,-0.603516 Q 3.6899414,10.14209 3.206543,10.14209 H 2.6967773 V 9.6557617 h 0.5332032 q 0.4365234,0 0.6679687,-0.1728515 0.2314453,-0.1757813 0.2314453,-0.5039063 0,-0.3369141 -0.2402343,-0.515625 Q 3.6518555,8.2817383 3.206543,8.2817383 q -0.2431641,0 -0.5214844,0.052734 Q 2.4067383,8.387207 2.0727539,8.4985352 V 7.9711914 q 0.3369141,-0.09375 0.6298828,-0.140625 0.2958985,-0.046875 0.5566406,-0.046875 0.6738282,0 1.0664063,0.3076172 0.3925781,0.3046875 0.3925781,0.8261719 0,0.3632812 -0.2080078,0.6152343 Q 4.3022461,9.7817383 3.918457,9.878418 Z"
       id="path470" /><path
       d="M 8.0258789,9.4536133 V 7.6782227 H 8.5649414 V 12.236816 H 8.0258789 v -0.492187 q -0.1699219,0.292969 -0.4306641,0.436523 -0.2578125,0.140625 -0.6210937,0.140625 -0.5947266,0 -0.9697266,-0.474609 -0.3720703,-0.474609 -0.3720703,-1.248047 0,-0.7734374 0.3720703,-1.2480468 0.375,-0.4746094 0.9697266,-0.4746094 0.3632812,0 0.6210937,0.1435547 0.2607422,0.140625 0.4306641,0.4335938 z M 6.1889648,10.599121 q 0,0.594727 0.2431641,0.93457 0.2460938,0.336914 0.6738281,0.336914 0.4277344,0 0.6738282,-0.336914 0.2460937,-0.339843 0.2460937,-0.93457 0,-0.594726 -0.2460937,-0.9316405 Q 7.5336914,9.3276367 7.105957,9.3276367 q -0.4277343,0 -0.6738281,0.3398438 -0.2431641,0.3369145 -0.2431641,0.9316405 z"
       id="path472" /><path
       d="m 12.22998,9.5854492 q 0.202149,-0.3632812 0.483399,-0.5361328 0.28125,-0.1728516 0.662109,-0.1728516 0.512696,0 0.791016,0.3603516 0.27832,0.3574219 0.27832,1.0195316 v 1.980468 h -0.541992 v -1.96289 q 0,-0.4716799 -0.166992,-0.7001955 -0.166992,-0.2285157 -0.509766,-0.2285157 -0.418945,0 -0.662109,0.2783204 -0.243164,0.2783203 -0.243164,0.7587888 v 1.854492 h -0.541992 v -1.96289 q 0,-0.4746096 -0.166993,-0.7001955 -0.166992,-0.2285157 -0.515625,-0.2285157 -0.413086,0 -0.65625,0.28125 -0.243164,0.2783204 -0.243164,0.7558592 v 1.854492 H 9.6547852 V 8.9555664 H 10.196777 V 9.465332 q 0.184571,-0.3017578 0.442383,-0.4453125 0.257813,-0.1435547 0.612305,-0.1435547 0.357422,0 0.606445,0.1816407 0.251953,0.1816406 0.37207,0.5273437 z"
       id="path474" /><path
       d="m 15.52002,7.6782227 h 0.539062 V 12.236816 H 15.52002 Z"
       id="path476" /></g></svg>
