<?xml version="1.0" encoding="UTF-8" standalone="no"?>
<svg
   width="32"
   height="32"
   id="svg2"
   version="1.1"
   sodipodi:docname="model-vrml.svg"
   inkscape:version="1.2.1 (9c6d41e410, 2022-07-14)"
   xml:space="preserve"
   xmlns:inkscape="http://www.inkscape.org/namespaces/inkscape"
   xmlns:sodipodi="http://sodipodi.sourceforge.net/DTD/sodipodi-0.dtd"
   xmlns:xlink="http://www.w3.org/1999/xlink"
   xmlns="http://www.w3.org/2000/svg"
   xmlns:svg="http://www.w3.org/2000/svg"
   xmlns:rdf="http://www.w3.org/1999/02/22-rdf-syntax-ns#"
   xmlns:cc="http://creativecommons.org/ns#"
   xmlns:dc="http://purl.org/dc/elements/1.1/"><sodipodi:namedview
     pagecolor="#ffffff"
     bordercolor="#666666"
     borderopacity="1"
     objecttolerance="10"
     gridtolerance="10"
     guidetolerance="10"
     inkscape:pageopacity="0"
     inkscape:pageshadow="2"
     inkscape:window-width="1920"
     inkscape:window-height="1002"
     id="namedview47"
     showgrid="false"
     inkscape:zoom="14.75"
     inkscape:cx="-0.33898305"
     inkscape:cy="14.881356"
     inkscape:window-x="0"
     inkscape:window-y="0"
     inkscape:window-maximized="1"
     inkscape:current-layer="svg2"
     inkscape:document-rotation="0"
     inkscape:pagecheckerboard="0"
     inkscape:showpageshadow="2"
     inkscape:deskcolor="#d1d1d1" /><defs
     id="defs4"><inkscape:path-effect
       effect="fillet_chamfer"
       id="path-effect893"
       is_visible="true"
       lpeversion="1"
       satellites_param="F,0,0,1,0,2,0,10 @ F,0,0,1,0,2,0,10 @ F,0,0,1,0,2,0,10 @ F,0,0,1,0,2,0,10"
       unit="px"
       method="auto"
       mode="F"
       radius="2"
       chamfer_steps="10"
       flexible="false"
       use_knot_distance="true"
       apply_no_radius="true"
       apply_with_radius="true"
       only_selected="false"
       hide_knots="false"
       nodesatellites_param="F,0,0,1,0,2,0,10 @ F,0,0,1,0,2,0,10 @ F,0,0,1,0,2,0,10 @ F,0,0,1,0,2,0,10" /><inkscape:path-effect
       effect="fillet_chamfer"
       id="path-effect891"
       is_visible="true"
       lpeversion="1"
       satellites_param="F,0,0,1,0,2,0,10 @ F,0,0,1,0,2,0,10 @ F,0,0,1,0,2,0,10 @ F,0,0,1,0,2,0,10"
       unit="px"
       method="auto"
       mode="F"
       radius="2"
       chamfer_steps="10"
       flexible="false"
       use_knot_distance="true"
       apply_no_radius="true"
       apply_with_radius="true"
       only_selected="false"
       hide_knots="false"
       nodesatellites_param="F,0,0,1,0,2,0,10 @ F,0,0,1,0,2,0,10 @ F,0,0,1,0,2,0,10 @ F,0,0,1,0,2,0,10" /><inkscape:path-effect
       effect="fillet_chamfer"
       id="path-effect889"
       is_visible="true"
       lpeversion="1"
       satellites_param="F,0,0,1,0,2,0,10 @ F,0,0,1,0,2,0,10 @ F,0,0,1,0,2,0,10 @ F,0,0,1,0,2,0,10"
       unit="px"
       method="auto"
       mode="F"
       radius="2"
       chamfer_steps="10"
       flexible="false"
       use_knot_distance="true"
       apply_no_radius="true"
       apply_with_radius="true"
       only_selected="false"
       hide_knots="false"
       nodesatellites_param="F,0,0,1,0,2,0,10 @ F,0,0,1,0,2,0,10 @ F,0,0,1,0,2,0,10 @ F,0,0,1,0,2,0,10" /><linearGradient
       id="linearGradient902"><stop
         id="stop898"
         offset="0"
         style="stop-color:#770087;stop-opacity:1;" /><stop
         id="stop900"
         offset="1"
         style="stop-color:#452981;stop-opacity:1" /></linearGradient><linearGradient
       id="linearGradient899"><stop
         id="stop895"
         style="stop-color:#f282f1;stop-opacity:1"
         offset="0" /><stop
         id="stop897"
         style="stop-color:#a56de2;stop-opacity:1"
         offset="1" /></linearGradient><linearGradient
       id="linearGradient916"><stop
         id="stop912"
         style="stop-color:#ffffff;stop-opacity:1"
         offset="0" /><stop
         id="stop914"
         style="stop-color:#fafafa;stop-opacity:1"
         offset="1" /></linearGradient><linearGradient
       id="linearGradient3688-166-749-654"><stop
         id="stop3088"
         style="stop-color:#181818;stop-opacity:1"
         offset="0" /><stop
         id="stop3090"
         style="stop-color:#181818;stop-opacity:0"
         offset="1" /></linearGradient><linearGradient
       id="linearGradient3688-464-309-604"><stop
         id="stop3094"
         style="stop-color:#181818;stop-opacity:1"
         offset="0" /><stop
         id="stop3096"
         style="stop-color:#181818;stop-opacity:0"
         offset="1" /></linearGradient><linearGradient
       id="linearGradient3702-501-757-795"><stop
         id="stop3100"
         style="stop-color:#181818;stop-opacity:0"
         offset="0" /><stop
         id="stop3102"
         style="stop-color:#181818;stop-opacity:1"
         offset="0.5" /><stop
         id="stop3104"
         style="stop-color:#181818;stop-opacity:0"
         offset="1" /></linearGradient><radialGradient
       xlink:href="#linearGradient3688-166-749-654"
       id="radialGradient4730"
       gradientUnits="userSpaceOnUse"
       gradientTransform="matrix(3.2060542,2.6349059e-7,-8.2185947e-8,1.0000077,36.981009,15.99962)"
       cx="4.9964824"
       cy="43.5"
       fx="4.9964824"
       fy="43.5"
       r="2.5" /><radialGradient
       xlink:href="#linearGradient3688-464-309-604"
       id="radialGradient4732"
       gradientUnits="userSpaceOnUse"
       gradientTransform="matrix(3.163875,0,0,0.99999995,-29.702994,-103.00012)"
       cx="4.9929786"
       cy="43.5"
       fx="4.9929786"
       fy="43.5"
       r="2.5" /><linearGradient
       xlink:href="#linearGradient3702-501-757-795"
       id="linearGradient4734"
       gradientUnits="userSpaceOnUse"
       gradientTransform="matrix(1.3928572,0,0,0.71428561,-0.0214163,28.42862)"
       x1="25.058096"
       y1="47.027729"
       x2="25.058096"
       y2="39.999443" /><linearGradient
       gradientTransform="matrix(1.4324324,0,0,1.4362832,-7.3783796,-7.3995521)"
       gradientUnits="userSpaceOnUse"
       xlink:href="#linearGradient3924-2-2-5-8"
       id="linearGradient3381-5-4"
       y2="46.230125"
       x2="38.660378"
       y1="5.8481169"
       x1="38.660378" /><linearGradient
       id="linearGradient3924-2-2-5-8"><stop
         offset="0"
         style="stop-color:#ffffff;stop-opacity:1"
         id="stop3926-9-4-9-6" /><stop
         offset="0.06316455"
         style="stop-color:#ffffff;stop-opacity:0.23529412"
         id="stop3928-9-8-6-5" /><stop
         offset="0.95056331"
         style="stop-color:#ffffff;stop-opacity:0.15686275"
         id="stop3930-3-5-1-7" /><stop
         offset="1"
         style="stop-color:#ffffff;stop-opacity:0.39215687"
         id="stop3932-8-0-4-8" /></linearGradient><linearGradient
       gradientTransform="matrix(0.47054764,0,0,0.47457626,-60.688645,-0.1484071)"
       gradientUnits="userSpaceOnUse"
       xlink:href="#linearGradient916"
       id="linearGradient5809"
       y2="55.027"
       x2="161.97743"
       y1="10.027002"
       x1="161.97743" /><linearGradient
       y2="63.027"
       x2="161.97743"
       y1="5.1520023"
       x1="161.97743"
       gradientTransform="matrix(0.4705882,0,0,0.47457626,-60.695255,-0.1484071)"
       gradientUnits="userSpaceOnUse"
       id="linearGradient910"
       xlink:href="#linearGradient899" /><linearGradient
       gradientUnits="userSpaceOnUse"
       y2="60"
       x2="32"
       y1="0"
       x1="32"
       id="linearGradient904"
       xlink:href="#linearGradient902" /><linearGradient
       y2="63.027"
       x2="161.97743"
       y1="5.1520023"
       x1="161.97743"
       gradientTransform="matrix(0.94117646,0,0,0.94915254,-73.044014,10.801587)"
       gradientUnits="userSpaceOnUse"
       id="linearGradient910-3"
       xlink:href="#linearGradient899" /><linearGradient
       y2="63.027"
       x2="161.97743"
       y1="5.1520023"
       x1="161.97743"
       gradientTransform="matrix(0.47054764,0,0,0.47457626,-76.305129,-44.360347)"
       gradientUnits="userSpaceOnUse"
       id="linearGradient910-5"
       xlink:href="#linearGradient899" /><filter
       inkscape:collect="always"
       style="color-interpolation-filters:sRGB"
       id="filter1218"
       x="-0.00052002417"
       width="1.00104"
       y="-0.00044569657"
       height="1.0008914"><feGaussianBlur
         inkscape:collect="always"
         stdDeviation="0.0051997931"
         id="feGaussianBlur1220" /></filter></defs><metadata
     id="metadata7"><rdf:RDF><cc:Work
         rdf:about=""><dc:format>image/svg+xml</dc:format><dc:type
           rdf:resource="http://purl.org/dc/dcmitype/StillImage" /></cc:Work></rdf:RDF></metadata><path
     width="23.997931"
     height="28"
     rx="0"
     ry="0"
     x="4.0010357"
     y="2.7520487"
     id="rect4897-1"
     style="opacity:0.2;vector-effect:none;fill:#000000;fill-opacity:1;stroke:none;stroke-width:0.472558;stroke-linecap:butt;stroke-linejoin:miter;stroke-miterlimit:4;stroke-dasharray:none;stroke-dashoffset:0;stroke-opacity:1;filter:url(#filter1218)"
     inkscape:path-effect="#path-effect893"
     d="M 6.0010357,2.7520487 H 25.998966 a 2,2 45 0 1 2,2 V 28.752049 a 2,2 135 0 1 -2,2 H 6.0010357 a 2,2 45 0 1 -2,-2 V 4.7520487 a 2,2 135 0 1 2,-2 z"
     sodipodi:type="rect" /><path
     width="24"
     height="28"
     rx="0"
     ry="0"
     x="4"
     y="2"
     id="rect4897"
     style="opacity:1;vector-effect:none;fill:#eeeeee;fill-opacity:1;stroke:none;stroke-width:0.472578;stroke-linecap:butt;stroke-linejoin:miter;stroke-miterlimit:4;stroke-dasharray:none;stroke-dashoffset:0;stroke-opacity:1"
     inkscape:path-effect="#path-effect891"
     d="m 6,2 h 20 a 2,2 45 0 1 2,2 v 24 a 2,2 135 0 1 -2,2 H 6 A 2,2 45 0 1 4,28 V 4 A 2,2 135 0 1 6,2 Z"
     sodipodi:type="rect" /><path
     y="6"
     x="0"
     height="8"
     width="18"
     id="rect7379"
     style="opacity:1;fill:#427fc9;fill-opacity:1;stroke:none;stroke-width:0.428245"
     inkscape:path-effect="#path-effect889"
     d="m 2,6 h 14 a 2,2 45 0 1 2,2 v 4 a 2,2 135 0 1 -2,2 L 2,14 A 2,2 45 0 1 0,12 V 8 A 2,2 135 0 1 2,6 Z"
     sodipodi:type="rect" /><g
     id="g1131"
     transform="matrix(0.14625241,0,0,0.14625241,-50.750183,-4.6745909)" /><g
     id="g1133"
     transform="matrix(0.14625241,0,0,0.14625241,-50.750183,-4.6745909)" /><g
     id="g1135"
     transform="matrix(0.14625241,0,0,0.14625241,-50.750183,-4.6745909)" /><g
     id="g1137"
     transform="matrix(0.14625241,0,0,0.14625241,-50.750183,-4.6745909)" /><g
     id="g1139"
     transform="matrix(0.14625241,0,0,0.14625241,-50.750183,-4.6745909)" /><g
     id="g1141"
     transform="matrix(0.14625241,0,0,0.14625241,-50.750183,-4.6745909)" /><g
     id="g1143"
     transform="matrix(0.14625241,0,0,0.14625241,-50.750183,-4.6745909)" /><g
     id="g1145"
     transform="matrix(0.14625241,0,0,0.14625241,-50.750183,-4.6745909)" /><g
     id="g1147"
     transform="matrix(0.14625241,0,0,0.14625241,-50.750183,-4.6745909)" /><g
     id="g1149"
     transform="matrix(0.14625241,0,0,0.14625241,-50.750183,-4.6745909)" /><g
     id="g1151"
     transform="matrix(0.14625241,0,0,0.14625241,-50.750183,-4.6745909)" /><g
     id="g1153"
     transform="matrix(0.14625241,0,0,0.14625241,-50.750183,-4.6745909)" /><g
     id="g1155"
     transform="matrix(0.14625241,0,0,0.14625241,-50.750183,-4.6745909)" /><g
     id="g1157"
     transform="matrix(0.14625241,0,0,0.14625241,-50.750183,-4.6745909)" /><g
     id="g1159"
     transform="matrix(0.14625241,0,0,0.14625241,-50.750183,-4.6745909)" /><g
     id="g467"
     transform="translate(28.180075,2.758616)"><path
       style="fill:#427fc9;stroke-width:0.0546875"
       d="m -5.4141206,21.141384 h -0.933352 v -7 l -4.2000004,3.266648 v 7.466649 l 3.5999694,-2.8 h 1.533328 c 0.257742,0 0.466648,-0.208961 0.466648,-0.466649 0,-0.257687 -0.208851,-0.466648 -0.466593,-0.466648 z"
       id="path305" /><path
       style="fill:#3c9fe8;stroke-width:0.0546875"
       d="m -10.547418,17.408032 h -7.466703 v 6.80668 l -1.263336,1.263336 c -0.168492,0.168547 -0.181071,0.44543 -0.02866,0.628578 0.173195,0.208086 0.497218,0.222742 0.688625,0.03145 l 1.26339,-1.26339 h 6.80668 z"
       id="path307" /><path
       style="fill:#97cce8;stroke-width:0.0546875"
       d="m -13.347418,14.141384 v -0.933352 c 0,-0.257742 -0.208961,-0.466648 -0.466649,-0.466648 -0.257687,0 -0.466648,0.208961 -0.466648,0.466648 v 1.296258 l -3.733352,2.903742 h 7.466649 l 4.2000004,-3.266648 z"
       id="path309" /></g><g
     id="g319"
     transform="matrix(0.0546875,0,0,0.0546875,-40.397721,2.504461)">
</g><g
     id="g321"
     transform="matrix(0.0546875,0,0,0.0546875,-40.397721,2.504461)">
</g><g
     id="g323"
     transform="matrix(0.0546875,0,0,0.0546875,-40.397721,2.504461)">
</g><g
     id="g325"
     transform="matrix(0.0546875,0,0,0.0546875,-40.397721,2.504461)">
</g><g
     id="g327"
     transform="matrix(0.0546875,0,0,0.0546875,-40.397721,2.504461)">
</g><g
     id="g329"
     transform="matrix(0.0546875,0,0,0.0546875,-40.397721,2.504461)">
</g><g
     id="g331"
     transform="matrix(0.0546875,0,0,0.0546875,-40.397721,2.504461)">
</g><g
     id="g333"
     transform="matrix(0.0546875,0,0,0.0546875,-40.397721,2.504461)">
</g><g
     id="g335"
     transform="matrix(0.0546875,0,0,0.0546875,-40.397721,2.504461)">
</g><g
     id="g337"
     transform="matrix(0.0546875,0,0,0.0546875,-40.397721,2.504461)">
</g><g
     id="g339"
     transform="matrix(0.0546875,0,0,0.0546875,-40.397721,2.504461)">
</g><g
     id="g341"
     transform="matrix(0.0546875,0,0,0.0546875,-40.397721,2.504461)">
</g><g
     id="g343"
     transform="matrix(0.0546875,0,0,0.0546875,-40.397721,2.504461)">
</g><g
     id="g345"
     transform="matrix(0.0546875,0,0,0.0546875,-40.397721,2.504461)">
</g><g
     id="g347"
     transform="matrix(0.0546875,0,0,0.0546875,-40.397721,2.504461)">
</g><g
     aria-label="3D"
     id="text1213"
     style="font-size:4px;font-family:'DejaVu Sans';-inkscape-font-specification:'DejaVu Sans';opacity:0.5;fill:#000000;stroke-width:0.267"><path
       d="m 12.777843,23.696247 q 0.294922,0.07617 0.447266,0.265625 0.154297,0.1875 0.154297,0.478516 0,0.433593 -0.332031,0.660156 -0.332032,0.224609 -0.96875,0.224609 -0.22461,0 -0.451172,-0.03711 -0.22461,-0.03516 -0.445313,-0.107422 v -0.580078 q 0.210938,0.105469 0.417969,0.160156 0.208984,0.05273 0.410156,0.05273 0.298828,0 0.457032,-0.103516 0.160156,-0.103516 0.160156,-0.296875 0,-0.199219 -0.164063,-0.300781 -0.162109,-0.103516 -0.480468,-0.103516 H 11.68214 v -0.484375 h 0.316407 q 0.283203,0 0.421875,-0.08789 0.138671,-0.08984 0.138671,-0.271484 0,-0.167969 -0.134765,-0.259766 -0.134766,-0.0918 -0.38086,-0.0918 -0.18164,0 -0.367187,0.04102 -0.185547,0.04102 -0.369141,0.121094 v -0.550781 q 0.222657,-0.0625 0.441407,-0.09375 0.21875,-0.03125 0.429687,-0.03125 0.568359,0 0.849609,0.1875 0.283204,0.185547 0.283204,0.560547 0,0.255859 -0.134766,0.419921 -0.134766,0.16211 -0.398438,0.228516 z"
       style="font-weight:bold;-inkscape-font-specification:'DejaVu Sans Bold';fill:#000000"
       id="path3104" /><path
       d="m 14.816906,22.920856 v 1.779297 h 0.269531 q 0.460938,0 0.703125,-0.228515 0.244141,-0.228516 0.244141,-0.664063 0,-0.433594 -0.242188,-0.660156 -0.242187,-0.226563 -0.705078,-0.226563 z m -0.751953,-0.568359 h 0.792969 q 0.664062,0 0.988281,0.0957 0.326172,0.09375 0.558594,0.320313 0.205078,0.197265 0.304687,0.455078 0.09961,0.257812 0.09961,0.583984 0,0.330078 -0.09961,0.589844 -0.09961,0.257812 -0.304687,0.455078 -0.234375,0.226563 -0.5625,0.322266 -0.328125,0.09375 -0.984375,0.09375 h -0.792969 z"
       style="font-weight:bold;-inkscape-font-specification:'DejaVu Sans Bold';fill:#000000"
       id="path3106" /></g><g
     aria-label="VRML"
     id="text370"
     style="font-size:6px;font-family:'DejaVu Sans';-inkscape-font-specification:'DejaVu Sans';fill:#3ce8a6;stroke-width:0.267"><path
       d="M 2.3129883,12.187012 0.64306641,7.8129883 H 1.2612305 L 2.6469727,11.495605 4.0356445,7.8129883 H 4.6508789 L 2.9838867,12.187012 Z"
       style="fill:#ffffff"
       id="path528" /><path
       d="m 7.3637695,10.13623 q 0.1904297,0.06445 0.3691407,0.275391 0.1816406,0.210938 0.3632812,0.580078 l 0.6005859,1.195313 H 8.0610352 L 7.5014648,11.064941 Q 7.284668,10.625488 7.0795898,10.481934 6.8774414,10.338379 6.5258789,10.338379 H 5.8813477 v 1.848633 H 5.2895508 V 7.8129883 h 1.3359375 q 0.75,0 1.1191406,0.3134765 0.3691406,0.3134766 0.3691406,0.9462891 0,0.4130859 -0.1933593,0.6855469 Q 7.7299805,10.030762 7.3637695,10.13623 Z M 5.8813477,8.2993164 v 1.5527344 h 0.7441406 q 0.4277344,0 0.6445312,-0.1962891 0.2197266,-0.1992187 0.2197266,-0.5830078 0,-0.3837891 -0.2197266,-0.5771484 Q 7.0532227,8.2993164 6.6254883,8.2993164 Z"
       style="fill:#ffffff"
       id="path530" /><path
       d="m 9.4584961,7.8129883 h 0.8818359 l 1.116211,2.9765627 1.12207,-2.9765627 h 0.881836 V 12.187012 H 12.883301 V 8.3461914 l -1.12793,2.9999996 H 11.160645 L 10.032715,8.3461914 V 12.187012 H 9.4584961 Z"
       style="fill:#ffffff"
       id="path532" /><path
       d="m 14.635254,7.8129883 h 0.591797 v 3.8759767 h 2.129883 v 0.498047 h -2.72168 z"
       style="fill:#ffffff"
       id="path534" /></g></svg>
