<?xml version="1.0" encoding="UTF-8" standalone="no"?>
<svg
   width="32"
   height="32"
   id="svg2"
   version="1.1"
   sodipodi:docname="model-vnd.moml+xml.svg"
   inkscape:version="1.2.1 (9c6d41e410, 2022-07-14)"
   xml:space="preserve"
   xmlns:inkscape="http://www.inkscape.org/namespaces/inkscape"
   xmlns:sodipodi="http://sodipodi.sourceforge.net/DTD/sodipodi-0.dtd"
   xmlns:xlink="http://www.w3.org/1999/xlink"
   xmlns="http://www.w3.org/2000/svg"
   xmlns:svg="http://www.w3.org/2000/svg"
   xmlns:rdf="http://www.w3.org/1999/02/22-rdf-syntax-ns#"
   xmlns:cc="http://creativecommons.org/ns#"
   xmlns:dc="http://purl.org/dc/elements/1.1/"><sodipodi:namedview
     pagecolor="#ffffff"
     bordercolor="#666666"
     borderopacity="1"
     objecttolerance="10"
     gridtolerance="10"
     guidetolerance="10"
     inkscape:pageopacity="0"
     inkscape:pageshadow="2"
     inkscape:window-width="1920"
     inkscape:window-height="1002"
     id="namedview47"
     showgrid="false"
     inkscape:zoom="14.75"
     inkscape:cx="-11.254237"
     inkscape:cy="18.474576"
     inkscape:window-x="0"
     inkscape:window-y="0"
     inkscape:window-maximized="1"
     inkscape:current-layer="svg2"
     inkscape:document-rotation="0"
     inkscape:pagecheckerboard="0"
     inkscape:showpageshadow="2"
     inkscape:deskcolor="#d1d1d1" /><defs
     id="defs4"><inkscape:path-effect
       effect="fillet_chamfer"
       id="path-effect893"
       is_visible="true"
       lpeversion="1"
       satellites_param="F,0,0,1,0,2,0,10 @ F,0,0,1,0,2,0,10 @ F,0,0,1,0,2,0,10 @ F,0,0,1,0,2,0,10"
       unit="px"
       method="auto"
       mode="F"
       radius="2"
       chamfer_steps="10"
       flexible="false"
       use_knot_distance="true"
       apply_no_radius="true"
       apply_with_radius="true"
       only_selected="false"
       hide_knots="false"
       nodesatellites_param="F,0,0,1,0,2,0,10 @ F,0,0,1,0,2,0,10 @ F,0,0,1,0,2,0,10 @ F,0,0,1,0,2,0,10" /><inkscape:path-effect
       effect="fillet_chamfer"
       id="path-effect891"
       is_visible="true"
       lpeversion="1"
       satellites_param="F,0,0,1,0,2,0,10 @ F,0,0,1,0,2,0,10 @ F,0,0,1,0,2,0,10 @ F,0,0,1,0,2,0,10"
       unit="px"
       method="auto"
       mode="F"
       radius="2"
       chamfer_steps="10"
       flexible="false"
       use_knot_distance="true"
       apply_no_radius="true"
       apply_with_radius="true"
       only_selected="false"
       hide_knots="false"
       nodesatellites_param="F,0,0,1,0,2,0,10 @ F,0,0,1,0,2,0,10 @ F,0,0,1,0,2,0,10 @ F,0,0,1,0,2,0,10" /><inkscape:path-effect
       effect="fillet_chamfer"
       id="path-effect889"
       is_visible="true"
       lpeversion="1"
       satellites_param="F,0,0,1,0,2,0,10 @ F,0,0,1,0,2,0,10 @ F,0,0,1,0,2,0,10 @ F,0,0,1,0,2,0,10"
       unit="px"
       method="auto"
       mode="F"
       radius="2"
       chamfer_steps="10"
       flexible="false"
       use_knot_distance="true"
       apply_no_radius="true"
       apply_with_radius="true"
       only_selected="false"
       hide_knots="false"
       nodesatellites_param="F,0,0,1,0,2,0,10 @ F,0,0,1,0,2,0,10 @ F,0,0,1,0,2,0,10 @ F,0,0,1,0,2,0,10" /><linearGradient
       id="linearGradient902"><stop
         id="stop898"
         offset="0"
         style="stop-color:#770087;stop-opacity:1;" /><stop
         id="stop900"
         offset="1"
         style="stop-color:#452981;stop-opacity:1" /></linearGradient><linearGradient
       id="linearGradient899"><stop
         id="stop895"
         style="stop-color:#f282f1;stop-opacity:1"
         offset="0" /><stop
         id="stop897"
         style="stop-color:#a56de2;stop-opacity:1"
         offset="1" /></linearGradient><linearGradient
       id="linearGradient916"><stop
         id="stop912"
         style="stop-color:#ffffff;stop-opacity:1"
         offset="0" /><stop
         id="stop914"
         style="stop-color:#fafafa;stop-opacity:1"
         offset="1" /></linearGradient><linearGradient
       id="linearGradient3688-166-749-654"><stop
         id="stop3088"
         style="stop-color:#181818;stop-opacity:1"
         offset="0" /><stop
         id="stop3090"
         style="stop-color:#181818;stop-opacity:0"
         offset="1" /></linearGradient><linearGradient
       id="linearGradient3688-464-309-604"><stop
         id="stop3094"
         style="stop-color:#181818;stop-opacity:1"
         offset="0" /><stop
         id="stop3096"
         style="stop-color:#181818;stop-opacity:0"
         offset="1" /></linearGradient><linearGradient
       id="linearGradient3702-501-757-795"><stop
         id="stop3100"
         style="stop-color:#181818;stop-opacity:0"
         offset="0" /><stop
         id="stop3102"
         style="stop-color:#181818;stop-opacity:1"
         offset="0.5" /><stop
         id="stop3104"
         style="stop-color:#181818;stop-opacity:0"
         offset="1" /></linearGradient><radialGradient
       xlink:href="#linearGradient3688-166-749-654"
       id="radialGradient4730"
       gradientUnits="userSpaceOnUse"
       gradientTransform="matrix(3.2060542,2.6349059e-7,-8.2185947e-8,1.0000077,36.981009,15.99962)"
       cx="4.9964824"
       cy="43.5"
       fx="4.9964824"
       fy="43.5"
       r="2.5" /><radialGradient
       xlink:href="#linearGradient3688-464-309-604"
       id="radialGradient4732"
       gradientUnits="userSpaceOnUse"
       gradientTransform="matrix(3.163875,0,0,0.99999995,-29.702994,-103.00012)"
       cx="4.9929786"
       cy="43.5"
       fx="4.9929786"
       fy="43.5"
       r="2.5" /><linearGradient
       xlink:href="#linearGradient3702-501-757-795"
       id="linearGradient4734"
       gradientUnits="userSpaceOnUse"
       gradientTransform="matrix(1.3928572,0,0,0.71428561,-0.0214163,28.42862)"
       x1="25.058096"
       y1="47.027729"
       x2="25.058096"
       y2="39.999443" /><linearGradient
       gradientTransform="matrix(1.4324324,0,0,1.4362832,-7.3783796,-7.3995521)"
       gradientUnits="userSpaceOnUse"
       xlink:href="#linearGradient3924-2-2-5-8"
       id="linearGradient3381-5-4"
       y2="46.230125"
       x2="38.660378"
       y1="5.8481169"
       x1="38.660378" /><linearGradient
       id="linearGradient3924-2-2-5-8"><stop
         offset="0"
         style="stop-color:#ffffff;stop-opacity:1"
         id="stop3926-9-4-9-6" /><stop
         offset="0.06316455"
         style="stop-color:#ffffff;stop-opacity:0.23529412"
         id="stop3928-9-8-6-5" /><stop
         offset="0.95056331"
         style="stop-color:#ffffff;stop-opacity:0.15686275"
         id="stop3930-3-5-1-7" /><stop
         offset="1"
         style="stop-color:#ffffff;stop-opacity:0.39215687"
         id="stop3932-8-0-4-8" /></linearGradient><linearGradient
       gradientTransform="matrix(0.47054764,0,0,0.47457626,-60.688645,-0.1484071)"
       gradientUnits="userSpaceOnUse"
       xlink:href="#linearGradient916"
       id="linearGradient5809"
       y2="55.027"
       x2="161.97743"
       y1="10.027002"
       x1="161.97743" /><linearGradient
       y2="63.027"
       x2="161.97743"
       y1="5.1520023"
       x1="161.97743"
       gradientTransform="matrix(0.4705882,0,0,0.47457626,-60.695255,-0.1484071)"
       gradientUnits="userSpaceOnUse"
       id="linearGradient910"
       xlink:href="#linearGradient899" /><linearGradient
       gradientUnits="userSpaceOnUse"
       y2="60"
       x2="32"
       y1="0"
       x1="32"
       id="linearGradient904"
       xlink:href="#linearGradient902" /><linearGradient
       y2="63.027"
       x2="161.97743"
       y1="5.1520023"
       x1="161.97743"
       gradientTransform="matrix(0.94117646,0,0,0.94915254,-73.044014,10.801587)"
       gradientUnits="userSpaceOnUse"
       id="linearGradient910-3"
       xlink:href="#linearGradient899" /><linearGradient
       y2="63.027"
       x2="161.97743"
       y1="5.1520023"
       x1="161.97743"
       gradientTransform="matrix(0.47054764,0,0,0.47457626,-76.305129,-44.360347)"
       gradientUnits="userSpaceOnUse"
       id="linearGradient910-5"
       xlink:href="#linearGradient899" /><filter
       inkscape:collect="always"
       style="color-interpolation-filters:sRGB"
       id="filter1218"
       x="-0.00052002417"
       width="1.00104"
       y="-0.00044569657"
       height="1.0008914"><feGaussianBlur
         inkscape:collect="always"
         stdDeviation="0.0051997931"
         id="feGaussianBlur1220" /></filter></defs><metadata
     id="metadata7"><rdf:RDF><cc:Work
         rdf:about=""><dc:format>image/svg+xml</dc:format><dc:type
           rdf:resource="http://purl.org/dc/dcmitype/StillImage" /></cc:Work></rdf:RDF></metadata><path
     width="23.997931"
     height="28"
     rx="0"
     ry="0"
     x="4.0010357"
     y="2.7520487"
     id="rect4897-1"
     style="opacity:0.2;vector-effect:none;fill:#000000;fill-opacity:1;stroke:none;stroke-width:0.472558;stroke-linecap:butt;stroke-linejoin:miter;stroke-miterlimit:4;stroke-dasharray:none;stroke-dashoffset:0;stroke-opacity:1;filter:url(#filter1218)"
     inkscape:path-effect="#path-effect893"
     d="M 6.0010357,2.7520487 H 25.998966 a 2,2 45 0 1 2,2 V 28.752049 a 2,2 135 0 1 -2,2 H 6.0010357 a 2,2 45 0 1 -2,-2 V 4.7520487 a 2,2 135 0 1 2,-2 z"
     sodipodi:type="rect" /><path
     width="24"
     height="28"
     rx="0"
     ry="0"
     x="4"
     y="2"
     id="rect4897"
     style="opacity:1;vector-effect:none;fill:#eeeeee;fill-opacity:1;stroke:none;stroke-width:0.472578;stroke-linecap:butt;stroke-linejoin:miter;stroke-miterlimit:4;stroke-dasharray:none;stroke-dashoffset:0;stroke-opacity:1"
     inkscape:path-effect="#path-effect891"
     d="m 6,2 h 20 a 2,2 45 0 1 2,2 v 24 a 2,2 135 0 1 -2,2 H 6 A 2,2 45 0 1 4,28 V 4 A 2,2 135 0 1 6,2 Z"
     sodipodi:type="rect" /><path
     y="6"
     x="0"
     height="8"
     width="18"
     id="rect7379"
     style="opacity:1;fill:#000000;fill-opacity:1;stroke:none;stroke-width:0.428245"
     inkscape:path-effect="#path-effect889"
     d="m 2,6 h 14 a 2,2 45 0 1 2,2 v 4 a 2,2 135 0 1 -2,2 L 2,14 A 2,2 45 0 1 0,12 V 8 A 2,2 135 0 1 2,6 Z"
     sodipodi:type="rect" /><g
     id="g1131"
     transform="matrix(0.14625241,0,0,0.14625241,-50.750183,-4.6745909)" /><g
     id="g1133"
     transform="matrix(0.14625241,0,0,0.14625241,-50.750183,-4.6745909)" /><g
     id="g1135"
     transform="matrix(0.14625241,0,0,0.14625241,-50.750183,-4.6745909)" /><g
     id="g1137"
     transform="matrix(0.14625241,0,0,0.14625241,-50.750183,-4.6745909)" /><g
     id="g1139"
     transform="matrix(0.14625241,0,0,0.14625241,-50.750183,-4.6745909)" /><g
     id="g1141"
     transform="matrix(0.14625241,0,0,0.14625241,-50.750183,-4.6745909)" /><g
     id="g1143"
     transform="matrix(0.14625241,0,0,0.14625241,-50.750183,-4.6745909)" /><g
     id="g1145"
     transform="matrix(0.14625241,0,0,0.14625241,-50.750183,-4.6745909)" /><g
     id="g1147"
     transform="matrix(0.14625241,0,0,0.14625241,-50.750183,-4.6745909)" /><g
     id="g1149"
     transform="matrix(0.14625241,0,0,0.14625241,-50.750183,-4.6745909)" /><g
     id="g1151"
     transform="matrix(0.14625241,0,0,0.14625241,-50.750183,-4.6745909)" /><g
     id="g1153"
     transform="matrix(0.14625241,0,0,0.14625241,-50.750183,-4.6745909)" /><g
     id="g1155"
     transform="matrix(0.14625241,0,0,0.14625241,-50.750183,-4.6745909)" /><g
     id="g1157"
     transform="matrix(0.14625241,0,0,0.14625241,-50.750183,-4.6745909)" /><g
     id="g1159"
     transform="matrix(0.14625241,0,0,0.14625241,-50.750183,-4.6745909)" /><g
     id="g319"
     transform="matrix(0.0546875,0,0,0.0546875,-40.397721,2.504461)">
</g><g
     id="g321"
     transform="matrix(0.0546875,0,0,0.0546875,-40.397721,2.504461)">
</g><g
     id="g323"
     transform="matrix(0.0546875,0,0,0.0546875,-40.397721,2.504461)">
</g><g
     id="g325"
     transform="matrix(0.0546875,0,0,0.0546875,-40.397721,2.504461)">
</g><g
     id="g327"
     transform="matrix(0.0546875,0,0,0.0546875,-40.397721,2.504461)">
</g><g
     id="g329"
     transform="matrix(0.0546875,0,0,0.0546875,-40.397721,2.504461)">
</g><g
     id="g331"
     transform="matrix(0.0546875,0,0,0.0546875,-40.397721,2.504461)">
</g><g
     id="g333"
     transform="matrix(0.0546875,0,0,0.0546875,-40.397721,2.504461)">
</g><g
     id="g335"
     transform="matrix(0.0546875,0,0,0.0546875,-40.397721,2.504461)">
</g><g
     id="g337"
     transform="matrix(0.0546875,0,0,0.0546875,-40.397721,2.504461)">
</g><g
     id="g339"
     transform="matrix(0.0546875,0,0,0.0546875,-40.397721,2.504461)">
</g><g
     id="g341"
     transform="matrix(0.0546875,0,0,0.0546875,-40.397721,2.504461)">
</g><g
     id="g343"
     transform="matrix(0.0546875,0,0,0.0546875,-40.397721,2.504461)">
</g><g
     id="g345"
     transform="matrix(0.0546875,0,0,0.0546875,-40.397721,2.504461)">
</g><g
     id="g347"
     transform="matrix(0.0546875,0,0,0.0546875,-40.397721,2.504461)">
</g><g
     id="g465"
     transform="matrix(0.02362223,0,0,0.02362223,9.9999536,16.26557)"
     style="fill:#808080;fill-opacity:1"><g
       id="g410"
       style="fill:#808080;fill-opacity:1">
	<g
   id="g408"
   style="fill:#808080;fill-opacity:1">
		<path
   d="M 468.38,274.698 V 94.366 C 492.204,90.57 508,71.054 508,47.562 508,21.366 486.708,0.002 460.504,0.002 c -23.488,0 -42.976,15.708 -46.776,39.536 H 233.404 C 229.608,15.71 210.092,0.002 186.604,0.002 c -26.204,0 -47.516,21.34 -47.516,47.544 0,10.24 3.288,19.716 8.816,27.484 L 75.048,147.886 C 67.276,142.354 57.808,139.07 47.568,139.07 21.372,139.07 0,160.39 0,186.594 c 0,23.492 15.704,43.004 39.528,46.8 V 413.718 C 15.704,417.518 0,437.034 0,460.522 c 0,26.2 21.344,47.476 47.544,47.476 23.492,0 43.028,-15.792 46.828,-39.616 H 274.7 c 3.796,23.824 23.308,39.616 46.8,39.616 26.204,0 47.52,-21.296 47.52,-47.5 0,-9.708 -2.94,-18.724 -7.952,-26.252 l 73.196,-73.192 c 7.536,5.016 16.564,7.956 26.268,7.956 26.2,0 47.468,-21.316 47.468,-47.52 0.004,-23.488 -15.796,-43 -39.62,-46.792 z M 159.06,86.234 c 5.708,4.06 11.508,6.916 19.452,8.132 v 84.148 H 94.376 c -1.22,-7.94 -4.032,-13.752 -8.096,-19.456 z M 76.16,422.71 c -5.968,-4.536 -12.804,-7.684 -20.748,-8.988 V 233.394 c 19.856,-3.36 35.6,-19.144 38.96,-39 h 84.136 v 80.3 c -23.82,3.796 -39.496,23.308 -39.496,46.8 0,10.764 3.676,20.676 9.736,28.656 z m 237.356,-8.988 c -19.852,3.356 -35.456,18.924 -38.812,38.776 H 94.376 c -1.132,-7.94 -3.624,-12.856 -7.236,-18.28 l 73.196,-73.176 c 7.528,5.012 16.556,7.948 26.268,7.948 23.492,0 43.004,-15.76 46.8,-39.584 h 80.112 z m 0,-100.204 h -80.112 v 0.004 c -3.36,-19.856 -19.156,-35.464 -39.012,-38.824 V 194.394 H 274.7 c 3.36,19.856 18.96,35.64 38.816,39 z M 274.7,178.514 H 194.392 V 94.366 C 214.248,91.01 230.044,75.27 233.404,55.418 h 180.324 c 1.22,7.94 4.036,13.868 8.1,19.576 l -72.86,72.88 c -7.76,-5.532 -17.232,-8.88 -27.468,-8.88 -23.492,0 -43.004,15.696 -46.8,39.52 z m 75.436,244.188 c -5.968,-4.536 -12.792,-7.676 -20.736,-8.984 v -84.316 h 84.328 c 1.304,7.94 4.452,14.756 8.984,20.732 z M 452.492,274.694 c -19.848,3.36 -35.404,18.972 -38.764,38.828 H 329.4 v -80.128 c 23.824,-3.796 39.6,-23.308 39.6,-46.8 0,-10.24 -3.276,-19.708 -8.808,-27.468 L 433.008,86.27 c 5.708,4.064 11.544,6.88 19.484,8.092 z"
   id="path406"
   style="fill:#808080;fill-opacity:1" />
	</g>
</g><g
       id="g412"
       style="fill:#808080;fill-opacity:1">
</g><g
       id="g414"
       style="fill:#808080;fill-opacity:1">
</g><g
       id="g416"
       style="fill:#808080;fill-opacity:1">
</g><g
       id="g418"
       style="fill:#808080;fill-opacity:1">
</g><g
       id="g420"
       style="fill:#808080;fill-opacity:1">
</g><g
       id="g422"
       style="fill:#808080;fill-opacity:1">
</g><g
       id="g424"
       style="fill:#808080;fill-opacity:1">
</g><g
       id="g426"
       style="fill:#808080;fill-opacity:1">
</g><g
       id="g428"
       style="fill:#808080;fill-opacity:1">
</g><g
       id="g430"
       style="fill:#808080;fill-opacity:1">
</g><g
       id="g432"
       style="fill:#808080;fill-opacity:1">
</g><g
       id="g434"
       style="fill:#808080;fill-opacity:1">
</g><g
       id="g436"
       style="fill:#808080;fill-opacity:1">
</g><g
       id="g438"
       style="fill:#808080;fill-opacity:1">
</g><g
       id="g440"
       style="fill:#808080;fill-opacity:1">
</g></g><g
     aria-label="MoML"
     id="text1487"
     style="font-size:5.33333px;font-family:'DejaVu Sans';-inkscape-font-specification:'DejaVu Sans';fill:#808080;stroke-width:0.267"><path
       d="M 1.5572963,8.0182305 H 2.34115 L 3.3333369,10.664062 4.3307322,8.0182305 H 5.1145859 V 11.906249 H 4.6015653 V 8.4921886 L 3.5989618,11.158854 H 3.0703163 L 2.0677127,8.4921886 V 11.906249 H 1.5572963 Z"
       style="fill:#ffffff"
       id="path1641" /><path
       d="m 7.2682303,9.3255214 q -0.3854164,0 -0.6093746,0.3020832 -0.2239582,0.299479 -0.2239582,0.8229164 0,0.523437 0.221354,0.82552 0.2239582,0.299479 0.6119788,0.299479 0.3828123,0 0.6067705,-0.302083 0.2239582,-0.302083 0.2239582,-0.822916 0,-0.5182291 -0.2239582,-0.8203123 Q 7.6510426,9.3255214 7.2682303,9.3255214 Z m 0,-0.4062497 q 0.6249996,0 0.9817702,0.4062497 0.3567707,0.4062498 0.3567707,1.1249996 0,0.716145 -0.3567707,1.124999 -0.3567706,0.40625 -0.9817702,0.40625 -0.6276038,0 -0.9843744,-0.40625 -0.3541665,-0.408854 -0.3541665,-1.124999 0,-0.7187498 0.3541665,-1.1249996 0.3567706,-0.4062497 0.9843744,-0.4062497 z"
       style="fill:#ffffff"
       id="path1643" /><path
       d="m 9.4218746,8.0182305 h 0.7838534 l 0.992187,2.6458315 0.997395,-2.6458315 h 0.783854 v 3.8880185 h -0.51302 V 8.4921886 L 11.46354,11.158854 H 10.934895 L 9.9322909,8.4921886 V 11.906249 H 9.4218746 Z"
       style="fill:#ffffff"
       id="path1645" /><path
       d="m 14.023434,8.0182305 h 0.526042 v 3.4453105 h 1.893228 v 0.442708 h -2.41927 z"
       style="fill:#ffffff"
       id="path1647" /></g></svg>
