<?xml version="1.0" encoding="UTF-8" standalone="no"?>
<svg
   xmlns:dc="http://purl.org/dc/elements/1.1/"
   xmlns:cc="http://creativecommons.org/ns#"
   xmlns:rdf="http://www.w3.org/1999/02/22-rdf-syntax-ns#"
   xmlns:svg="http://www.w3.org/2000/svg"
   xmlns="http://www.w3.org/2000/svg"
   xmlns:xlink="http://www.w3.org/1999/xlink"
   xmlns:sodipodi="http://sodipodi.sourceforge.net/DTD/sodipodi-0.dtd"
   xmlns:inkscape="http://www.inkscape.org/namespaces/inkscape"
   width="32"
   height="32"
   id="svg2"
   version="1.1"
   sodipodi:docname="text-csv.svg"
   inkscape:version="1.0.2 (e86c870879, 2021-01-15)">
  <sodipodi:namedview
     pagecolor="#ffffff"
     bordercolor="#666666"
     borderopacity="1"
     objecttolerance="10"
     gridtolerance="10"
     guidetolerance="10"
     inkscape:pageopacity="0"
     inkscape:pageshadow="2"
     inkscape:window-width="1920"
     inkscape:window-height="1006"
     id="namedview47"
     showgrid="false"
     inkscape:zoom="14.75"
     inkscape:cx="21.00913"
     inkscape:cy="13.684251"
     inkscape:window-x="0"
     inkscape:window-y="1237"
     inkscape:window-maximized="1"
     inkscape:current-layer="svg2"
     inkscape:document-rotation="0"
     inkscape:pagecheckerboard="0" />
  <defs
     id="defs4">
    <inkscape:path-effect
       effect="fillet_chamfer"
       id="path-effect878"
       is_visible="true"
       lpeversion="1"
       satellites_param="F,0,0,1,0,2,0,10 @ F,0,0,1,0,2,0,10 @ F,0,0,1,0,2,0,10 @ F,0,0,1,0,2,0,10"
       unit="px"
       method="auto"
       mode="F"
       radius="2"
       chamfer_steps="10"
       flexible="false"
       use_knot_distance="true"
       apply_no_radius="true"
       apply_with_radius="true"
       only_selected="false"
       hide_knots="false" />
    <inkscape:path-effect
       effect="fillet_chamfer"
       id="path-effect876"
       is_visible="true"
       lpeversion="1"
       satellites_param="F,0,0,1,0,2,0,10 @ F,0,0,1,0,2,0,10 @ F,0,0,1,0,2,0,10 @ F,0,0,1,0,2,0,10"
       unit="px"
       method="auto"
       mode="F"
       radius="2"
       chamfer_steps="10"
       flexible="false"
       use_knot_distance="true"
       apply_no_radius="true"
       apply_with_radius="true"
       only_selected="false"
       hide_knots="false" />
    <inkscape:path-effect
       effect="fillet_chamfer"
       id="path-effect874"
       is_visible="true"
       lpeversion="1"
       satellites_param="F,0,0,1,0,2,0,10 @ F,0,0,1,0,2,0,10 @ F,0,0,1,0,2,0,10 @ F,0,0,1,0,2,0,10"
       unit="px"
       method="auto"
       mode="F"
       radius="2"
       chamfer_steps="10"
       flexible="false"
       use_knot_distance="true"
       apply_no_radius="true"
       apply_with_radius="true"
       only_selected="false"
       hide_knots="false" />
    <linearGradient
       id="linearGradient902">
      <stop
         id="stop898"
         offset="0"
         style="stop-color:#770087;stop-opacity:1;" />
      <stop
         id="stop900"
         offset="1"
         style="stop-color:#452981;stop-opacity:1" />
    </linearGradient>
    <linearGradient
       id="linearGradient899">
      <stop
         id="stop895"
         style="stop-color:#f282f1;stop-opacity:1"
         offset="0" />
      <stop
         id="stop897"
         style="stop-color:#a56de2;stop-opacity:1"
         offset="1" />
    </linearGradient>
    <linearGradient
       id="linearGradient916">
      <stop
         id="stop912"
         style="stop-color:#ffffff;stop-opacity:1"
         offset="0" />
      <stop
         id="stop914"
         style="stop-color:#fafafa;stop-opacity:1"
         offset="1" />
    </linearGradient>
    <linearGradient
       id="linearGradient3688-166-749-654">
      <stop
         id="stop3088"
         style="stop-color:#181818;stop-opacity:1"
         offset="0" />
      <stop
         id="stop3090"
         style="stop-color:#181818;stop-opacity:0"
         offset="1" />
    </linearGradient>
    <linearGradient
       id="linearGradient3688-464-309-604">
      <stop
         id="stop3094"
         style="stop-color:#181818;stop-opacity:1"
         offset="0" />
      <stop
         id="stop3096"
         style="stop-color:#181818;stop-opacity:0"
         offset="1" />
    </linearGradient>
    <linearGradient
       id="linearGradient3702-501-757-795">
      <stop
         id="stop3100"
         style="stop-color:#181818;stop-opacity:0"
         offset="0" />
      <stop
         id="stop3102"
         style="stop-color:#181818;stop-opacity:1"
         offset="0.5" />
      <stop
         id="stop3104"
         style="stop-color:#181818;stop-opacity:0"
         offset="1" />
    </linearGradient>
    <radialGradient
       xlink:href="#linearGradient3688-166-749-654"
       id="radialGradient4730"
       gradientUnits="userSpaceOnUse"
       gradientTransform="matrix(3.2060542,2.6349059e-7,-8.2185947e-8,1.0000077,36.981009,15.99962)"
       cx="4.9964824"
       cy="43.5"
       fx="4.9964824"
       fy="43.5"
       r="2.5" />
    <radialGradient
       xlink:href="#linearGradient3688-464-309-604"
       id="radialGradient4732"
       gradientUnits="userSpaceOnUse"
       gradientTransform="matrix(3.163875,0,0,0.99999995,-29.702994,-103.00012)"
       cx="4.9929786"
       cy="43.5"
       fx="4.9929786"
       fy="43.5"
       r="2.5" />
    <linearGradient
       xlink:href="#linearGradient3702-501-757-795"
       id="linearGradient4734"
       gradientUnits="userSpaceOnUse"
       gradientTransform="matrix(1.3928572,0,0,0.71428561,-0.0214163,28.42862)"
       x1="25.058096"
       y1="47.027729"
       x2="25.058096"
       y2="39.999443" />
    <linearGradient
       gradientTransform="matrix(1.4324324,0,0,1.4362832,-7.3783796,-7.3995521)"
       gradientUnits="userSpaceOnUse"
       xlink:href="#linearGradient3924-2-2-5-8"
       id="linearGradient3381-5-4"
       y2="46.230125"
       x2="38.660378"
       y1="5.8481169"
       x1="38.660378" />
    <linearGradient
       id="linearGradient3924-2-2-5-8">
      <stop
         offset="0"
         style="stop-color:#ffffff;stop-opacity:1"
         id="stop3926-9-4-9-6" />
      <stop
         offset="0.06316455"
         style="stop-color:#ffffff;stop-opacity:0.23529412"
         id="stop3928-9-8-6-5" />
      <stop
         offset="0.95056331"
         style="stop-color:#ffffff;stop-opacity:0.15686275"
         id="stop3930-3-5-1-7" />
      <stop
         offset="1"
         style="stop-color:#ffffff;stop-opacity:0.39215687"
         id="stop3932-8-0-4-8" />
    </linearGradient>
    <linearGradient
       gradientTransform="matrix(0.47054764,0,0,0.47457626,-60.688645,-0.1484071)"
       gradientUnits="userSpaceOnUse"
       xlink:href="#linearGradient916"
       id="linearGradient5809"
       y2="55.027"
       x2="161.97743"
       y1="10.027002"
       x1="161.97743" />
    <linearGradient
       y2="63.027"
       x2="161.97743"
       y1="5.1520023"
       x1="161.97743"
       gradientTransform="matrix(0.4705882,0,0,0.47457626,-60.695255,-0.1484071)"
       gradientUnits="userSpaceOnUse"
       id="linearGradient910"
       xlink:href="#linearGradient899" />
    <linearGradient
       gradientUnits="userSpaceOnUse"
       y2="60"
       x2="32"
       y1="0"
       x1="32"
       id="linearGradient904"
       xlink:href="#linearGradient902" />
    <linearGradient
       y2="63.027"
       x2="161.97743"
       y1="5.1520023"
       x1="161.97743"
       gradientTransform="matrix(0.94117646,0,0,0.94915254,-73.044014,10.801587)"
       gradientUnits="userSpaceOnUse"
       id="linearGradient910-3"
       xlink:href="#linearGradient899" />
    <linearGradient
       y2="63.027"
       x2="161.97743"
       y1="5.1520023"
       x1="161.97743"
       gradientTransform="matrix(0.47054764,0,0,0.47457626,-76.305129,-44.360347)"
       gradientUnits="userSpaceOnUse"
       id="linearGradient910-5"
       xlink:href="#linearGradient899" />
    <filter
       inkscape:collect="always"
       style="color-interpolation-filters:sRGB"
       id="filter1218"
       x="-0.00052002417"
       width="1.00104"
       y="-0.00044569657"
       height="1.0008914">
      <feGaussianBlur
         inkscape:collect="always"
         stdDeviation="0.0051997931"
         id="feGaussianBlur1220" />
    </filter>
  </defs>
  <metadata
     id="metadata7">
    <rdf:RDF>
      <cc:Work
         rdf:about="">
        <dc:format>image/svg+xml</dc:format>
        <dc:type
           rdf:resource="http://purl.org/dc/dcmitype/StillImage" />
      </cc:Work>
    </rdf:RDF>
  </metadata>
  <path
     width="23.997931"
     height="28"
     rx="0"
     ry="0"
     x="4.0010357"
     y="2.7520487"
     id="rect4897-1"
     style="opacity:0.2;vector-effect:none;fill:#000000;fill-opacity:1;stroke:none;stroke-width:0.472558;stroke-linecap:butt;stroke-linejoin:miter;stroke-miterlimit:4;stroke-dasharray:none;stroke-dashoffset:0;stroke-opacity:1;filter:url(#filter1218)"
     inkscape:path-effect="#path-effect878"
     d="M 6.0010357,2.7520487 H 25.998966 a 2,2 45 0 1 2,2 V 28.752049 a 2,2 135 0 1 -2,2 H 6.0010357 a 2,2 45 0 1 -2,-2 V 4.7520487 a 2,2 135 0 1 2,-2 z"
     sodipodi:type="rect" />
  <path
     width="24"
     height="28"
     rx="0"
     ry="0"
     x="4"
     y="2"
     id="rect4897"
     style="opacity:1;vector-effect:none;fill:#eeeeee;fill-opacity:1;stroke:none;stroke-width:0.472578;stroke-linecap:butt;stroke-linejoin:miter;stroke-miterlimit:4;stroke-dasharray:none;stroke-dashoffset:0;stroke-opacity:1"
     inkscape:path-effect="#path-effect876"
     d="m 6,2 h 20 a 2,2 45 0 1 2,2 v 24 a 2,2 135 0 1 -2,2 H 6 A 2,2 45 0 1 4,28 V 4 A 2,2 135 0 1 6,2 Z"
     sodipodi:type="rect" />
  <path
     y="6"
     x="0"
     height="8"
     width="18"
     id="rect7379"
     style="opacity:1;fill:#008033;fill-opacity:1;stroke:none;stroke-width:0.428245"
     inkscape:path-effect="#path-effect874"
     d="m 2,6 h 14 a 2,2 45 0 1 2,2 v 4 a 2,2 135 0 1 -2,2 L 2,14 A 2,2 45 0 1 0,12 V 8 A 2,2 135 0 1 2,6 Z"
     sodipodi:type="rect" />
  <g
     aria-label="a,"
     id="text5724"
     style="font-size:11.4201px;line-height:1.25;stroke-width:1.42751">
    <path
       d="m 14.815053,22.34613 q -1.243497,0 -1.723052,0.284387 -0.479555,0.284388 -0.479555,0.970263 0,0.546469 0.356878,0.86989 0.362454,0.317845 0.981415,0.317845 0.853162,0 1.366174,-0.602232 0.518588,-0.607808 0.518588,-1.611528 V 22.34613 Z m 2.046473,-0.423793 v 3.563205 h -1.026025 v -0.947957 q -0.351301,0.568774 -0.875466,0.842009 -0.524165,0.267659 -1.282531,0.267659 -0.95911,0 -1.527884,-0.535317 -0.563199,-0.540894 -0.563199,-1.444242 0,-1.053905 0.702604,-1.589223 0.70818,-0.535317 2.107812,-0.535317 h 1.438664 v -0.100372 q 0,-0.70818 -0.468402,-1.092939 -0.462826,-0.390336 -1.304836,-0.390336 -0.535317,0 -1.042753,0.128254 -0.507436,0.128253 -0.975839,0.384759 v -0.947958 q 0.563199,-0.217472 1.09294,-0.323421 0.529741,-0.111524 1.0316,-0.111524 1.355022,0 2.024169,0.702604 0.669146,0.702604 0.669146,2.130116 z"
       style="fill:#808080"
       id="path73" />
    <path
       d="m 19.236996,24.069182 h 1.176583 v 0.95911 l -0.914501,1.784391 h -0.719332 l 0.45725,-1.784391 z"
       style="fill:#808080"
       id="path75" />
  </g>
  <g
     aria-label="CSV"
     id="text1498"
     style="font-size:6.66667px;line-height:1.25">
    <path
       d="M 6.4104808,7.9410795 V 8.6344392 Q 6.0784494,8.3251943 5.700845,8.1721994 5.3264959,8.0192046 4.9033186,8.0192046 q -0.8333337,0 -1.2760423,0.5110679 -0.4427085,0.5078128 -0.4427085,1.4713545 0,0.960287 0.4427085,1.471355 0.4427086,0.507813 1.2760423,0.507813 0.4231773,0 0.7975264,-0.152995 0.3776044,-0.152995 0.7096358,-0.46224 v 0.68685 q -0.3450522,0.234375 -0.7324222,0.351562 -0.3841148,0.117188 -0.8138025,0.117188 -1.1035161,0 -1.7382821,-0.673829 -0.6347659,-0.677083 -0.6347659,-1.845704 0,-1.1718752 0.6347659,-1.8457036 0.634766,-0.6770837 1.7382821,-0.6770837 0.4361981,0 0.8203129,0.1171876 0.38737,0.1139323 0.7259118,0.3450522 z"
       style="fill:#ffffff"
       id="path3059" />
    <path
       d="M 10.339519,7.7262357 V 8.367512 Q 9.96517,8.1884755 9.6331386,8.1005848 9.3011072,8.0126942 8.9918622,8.0126942 q -0.5371096,0 -0.8300785,0.2083334 Q 7.87207,8.429361 7.87207,8.8134758 q 0,0.3222658 0.1920574,0.4882815 0.1953126,0.1627605 0.7356775,0.263672 l 0.3971356,0.08138 q 0.7356774,0.139974 1.0839845,0.4947915 0.351563,0.351563 0.351563,0.944011 0,0.706381 -0.475261,1.070964 -0.4720051,0.364584 -1.386719,0.364584 -0.3450523,0 -0.7356775,-0.07813 -0.3873699,-0.07813 -0.8040368,-0.23112 v -0.677084 q 0.4003908,0.22461 0.7845056,0.338542 0.3841147,0.113932 0.7552087,0.113932 0.5631513,0 0.869141,-0.221354 0.3059897,-0.221354 0.3059897,-0.631511 0,-0.358073 -0.2213542,-0.559896 Q 9.5061854,10.372721 9.0048831,10.27181 L 8.6044923,10.193685 Q 7.8688148,10.0472 7.5400386,9.7347002 7.2112624,9.4222 7.2112624,8.8655592 q 0,-0.6445316 0.4524742,-1.0156255 0.4557294,-0.371094 1.2532558,-0.371094 0.3417971,0 0.6966149,0.061849 0.3548179,0.061849 0.7259117,0.185547 z"
       style="fill:#ffffff"
       id="path3061" />
    <path
       d="m 12.911135,12.426759 -1.85547,-4.8600286 h 0.686849 l 1.539714,4.0917986 1.54297,-4.0917986 h 0.683594 l -1.852214,4.8600286 z"
       style="fill:#ffffff"
       id="path3063" />
  </g>
</svg>
