<?xml version="1.0" encoding="UTF-8" standalone="no"?>
<svg
   xmlns:dc="http://purl.org/dc/elements/1.1/"
   xmlns:cc="http://creativecommons.org/ns#"
   xmlns:rdf="http://www.w3.org/1999/02/22-rdf-syntax-ns#"
   xmlns:svg="http://www.w3.org/2000/svg"
   xmlns="http://www.w3.org/2000/svg"
   xmlns:xlink="http://www.w3.org/1999/xlink"
   xmlns:sodipodi="http://sodipodi.sourceforge.net/DTD/sodipodi-0.dtd"
   xmlns:inkscape="http://www.inkscape.org/namespaces/inkscape"
   width="32"
   height="32"
   id="svg2"
   version="1.1"
   sodipodi:docname="text-x-dockerfile.svg"
   inkscape:version="1.0.2 (e86c870879, 2021-01-15)">
  <sodipodi:namedview
     pagecolor="#ffffff"
     bordercolor="#666666"
     borderopacity="1"
     objecttolerance="10"
     gridtolerance="10"
     guidetolerance="10"
     inkscape:pageopacity="0"
     inkscape:pageshadow="2"
     inkscape:window-width="1920"
     inkscape:window-height="1006"
     id="namedview47"
     showgrid="false"
     inkscape:zoom="20.85965"
     inkscape:cx="11.409588"
     inkscape:cy="20.302354"
     inkscape:window-x="0"
     inkscape:window-y="1237"
     inkscape:window-maximized="1"
     inkscape:current-layer="svg2"
     inkscape:document-rotation="0"
     inkscape:pagecheckerboard="0" />
  <defs
     id="defs4">
    <inkscape:path-effect
       effect="fillet_chamfer"
       id="path-effect904"
       is_visible="true"
       lpeversion="1"
       satellites_param="F,0,0,1,0,2,0,10 @ F,0,0,1,0,2,0,10 @ F,0,0,1,0,2,0,10 @ F,0,0,1,0,2,0,10"
       unit="px"
       method="auto"
       mode="F"
       radius="2"
       chamfer_steps="10"
       flexible="false"
       use_knot_distance="true"
       apply_no_radius="true"
       apply_with_radius="true"
       only_selected="false"
       hide_knots="false" />
    <inkscape:path-effect
       effect="fillet_chamfer"
       id="path-effect902"
       is_visible="true"
       lpeversion="1"
       satellites_param="F,0,0,1,0,2,0,10 @ F,0,0,1,0,2,0,10 @ F,0,0,1,0,2,0,10 @ F,0,0,1,0,2,0,10"
       unit="px"
       method="auto"
       mode="F"
       radius="2"
       chamfer_steps="10"
       flexible="false"
       use_knot_distance="true"
       apply_no_radius="true"
       apply_with_radius="true"
       only_selected="false"
       hide_knots="false" />
    <linearGradient
       id="linearGradient902">
      <stop
         id="stop898"
         offset="0"
         style="stop-color:#770087;stop-opacity:1;" />
      <stop
         id="stop900"
         offset="1"
         style="stop-color:#452981;stop-opacity:1" />
    </linearGradient>
    <linearGradient
       id="linearGradient899">
      <stop
         id="stop895"
         style="stop-color:#f282f1;stop-opacity:1"
         offset="0" />
      <stop
         id="stop897"
         style="stop-color:#a56de2;stop-opacity:1"
         offset="1" />
    </linearGradient>
    <linearGradient
       id="linearGradient916">
      <stop
         id="stop912"
         style="stop-color:#ffffff;stop-opacity:1"
         offset="0" />
      <stop
         id="stop914"
         style="stop-color:#fafafa;stop-opacity:1"
         offset="1" />
    </linearGradient>
    <linearGradient
       id="linearGradient3688-166-749-654">
      <stop
         id="stop3088"
         style="stop-color:#181818;stop-opacity:1"
         offset="0" />
      <stop
         id="stop3090"
         style="stop-color:#181818;stop-opacity:0"
         offset="1" />
    </linearGradient>
    <linearGradient
       id="linearGradient3688-464-309-604">
      <stop
         id="stop3094"
         style="stop-color:#181818;stop-opacity:1"
         offset="0" />
      <stop
         id="stop3096"
         style="stop-color:#181818;stop-opacity:0"
         offset="1" />
    </linearGradient>
    <linearGradient
       id="linearGradient3702-501-757-795">
      <stop
         id="stop3100"
         style="stop-color:#181818;stop-opacity:0"
         offset="0" />
      <stop
         id="stop3102"
         style="stop-color:#181818;stop-opacity:1"
         offset="0.5" />
      <stop
         id="stop3104"
         style="stop-color:#181818;stop-opacity:0"
         offset="1" />
    </linearGradient>
    <radialGradient
       xlink:href="#linearGradient3688-166-749-654"
       id="radialGradient4730"
       gradientUnits="userSpaceOnUse"
       gradientTransform="matrix(3.2060542,2.6349059e-7,-8.2185947e-8,1.0000077,36.981009,15.99962)"
       cx="4.9964824"
       cy="43.5"
       fx="4.9964824"
       fy="43.5"
       r="2.5" />
    <radialGradient
       xlink:href="#linearGradient3688-464-309-604"
       id="radialGradient4732"
       gradientUnits="userSpaceOnUse"
       gradientTransform="matrix(3.163875,0,0,0.99999995,-29.702994,-103.00012)"
       cx="4.9929786"
       cy="43.5"
       fx="4.9929786"
       fy="43.5"
       r="2.5" />
    <linearGradient
       xlink:href="#linearGradient3702-501-757-795"
       id="linearGradient4734"
       gradientUnits="userSpaceOnUse"
       gradientTransform="matrix(1.3928572,0,0,0.71428561,-0.0214163,28.42862)"
       x1="25.058096"
       y1="47.027729"
       x2="25.058096"
       y2="39.999443" />
    <linearGradient
       gradientTransform="matrix(1.4324324,0,0,1.4362832,-7.3783796,-7.3995521)"
       gradientUnits="userSpaceOnUse"
       xlink:href="#linearGradient3924-2-2-5-8"
       id="linearGradient3381-5-4"
       y2="46.230125"
       x2="38.660378"
       y1="5.8481169"
       x1="38.660378" />
    <linearGradient
       id="linearGradient3924-2-2-5-8">
      <stop
         offset="0"
         style="stop-color:#ffffff;stop-opacity:1"
         id="stop3926-9-4-9-6" />
      <stop
         offset="0.06316455"
         style="stop-color:#ffffff;stop-opacity:0.23529412"
         id="stop3928-9-8-6-5" />
      <stop
         offset="0.95056331"
         style="stop-color:#ffffff;stop-opacity:0.15686275"
         id="stop3930-3-5-1-7" />
      <stop
         offset="1"
         style="stop-color:#ffffff;stop-opacity:0.39215687"
         id="stop3932-8-0-4-8" />
    </linearGradient>
    <linearGradient
       gradientTransform="matrix(0.47054764,0,0,0.47457626,-60.688645,-0.1484071)"
       gradientUnits="userSpaceOnUse"
       xlink:href="#linearGradient916"
       id="linearGradient5809"
       y2="55.027"
       x2="161.97743"
       y1="10.027002"
       x1="161.97743" />
    <linearGradient
       y2="63.027"
       x2="161.97743"
       y1="5.1520023"
       x1="161.97743"
       gradientTransform="matrix(0.4705882,0,0,0.47457626,-60.695255,-0.1484071)"
       gradientUnits="userSpaceOnUse"
       id="linearGradient910"
       xlink:href="#linearGradient899" />
    <linearGradient
       gradientUnits="userSpaceOnUse"
       y2="60"
       x2="32"
       y1="0"
       x1="32"
       id="linearGradient904"
       xlink:href="#linearGradient902" />
    <linearGradient
       y2="63.027"
       x2="161.97743"
       y1="5.1520023"
       x1="161.97743"
       gradientTransform="matrix(0.94117646,0,0,0.94915254,-73.044014,10.801587)"
       gradientUnits="userSpaceOnUse"
       id="linearGradient910-3"
       xlink:href="#linearGradient899" />
    <linearGradient
       y2="63.027"
       x2="161.97743"
       y1="5.1520023"
       x1="161.97743"
       gradientTransform="matrix(0.47054764,0,0,0.47457626,-76.305129,-44.360347)"
       gradientUnits="userSpaceOnUse"
       id="linearGradient910-5"
       xlink:href="#linearGradient899" />
    <filter
       inkscape:collect="always"
       style="color-interpolation-filters:sRGB"
       id="filter1218"
       x="-0.00052002417"
       width="1.00104"
       y="-0.00044569657"
       height="1.0008914">
      <feGaussianBlur
         inkscape:collect="always"
         stdDeviation="0.0051997931"
         id="feGaussianBlur1220" />
    </filter>
  </defs>
  <metadata
     id="metadata7">
    <rdf:RDF>
      <cc:Work
         rdf:about="">
        <dc:format>image/svg+xml</dc:format>
        <dc:type
           rdf:resource="http://purl.org/dc/dcmitype/StillImage" />
      </cc:Work>
    </rdf:RDF>
  </metadata>
  <path
     width="23.997931"
     height="28"
     rx="0"
     ry="0"
     x="4.0010357"
     y="2.7520487"
     id="rect4897-1"
     style="opacity:0.2;vector-effect:none;fill:#000000;fill-opacity:1;stroke:none;stroke-width:0.472558;stroke-linecap:butt;stroke-linejoin:miter;stroke-miterlimit:4;stroke-dasharray:none;stroke-dashoffset:0;stroke-opacity:1;filter:url(#filter1218)"
     inkscape:path-effect="#path-effect904"
     d="M 6.0010357,2.7520487 H 25.998966 a 2,2 45 0 1 2,2 V 28.752049 a 2,2 135 0 1 -2,2 H 6.0010357 a 2,2 45 0 1 -2,-2 V 4.7520487 a 2,2 135 0 1 2,-2 z"
     sodipodi:type="rect" />
  <path
     width="24"
     height="28"
     rx="0"
     ry="0"
     x="4"
     y="2"
     id="rect4897"
     style="opacity:1;vector-effect:none;fill:#eeeeee;fill-opacity:1;stroke:none;stroke-width:0.472578;stroke-linecap:butt;stroke-linejoin:miter;stroke-miterlimit:4;stroke-dasharray:none;stroke-dashoffset:0;stroke-opacity:1"
     inkscape:path-effect="#path-effect902"
     d="m 6,2 h 20 a 2,2 45 0 1 2,2 v 24 a 2,2 135 0 1 -2,2 H 6 A 2,2 45 0 1 4,28 V 4 A 2,2 135 0 1 6,2 Z"
     sodipodi:type="rect" />
  <g
     id="g1138"
     transform="matrix(0.02829297,0,0,0.02829297,7.9887785,8.5251474)"
     style="fill:#808080">
    <path
       style="fill:#808080"
       d="m 511.958,251.643 c -21.859,26.624 -64.69,24.545 -64.69,24.545 -26.415,113.8 -185.94,171.719 -296.699,143.266 C 39.821,391.011 55.056,258.915 55.056,258.915 h 324.138 c 26.749,0 28.787,-8.129 28.787,-8.129 -23.709,-56.226 12.873,-86.371 12.873,-86.371 28.453,5.089 35.558,53.854 35.558,53.854 23.353,-4.19 42.109,0.794 53.582,5.59 1.149,9.122 1.818,18.39 1.964,27.784 z"
       id="path1118" />
    <rect
       x="89.599998"
       y="207.433"
       style="fill:#808080"
       width="45.389999"
       height="41.32"
       id="rect1120" />
    <rect
       x="146.64101"
       y="207.433"
       style="fill:#808080"
       width="45.389999"
       height="41.32"
       id="rect1122" />
    <rect
       x="317.74301"
       y="207.433"
       style="fill:#808080"
       width="45.389999"
       height="41.32"
       id="rect1124" />
    <rect
       x="260.71201"
       y="207.433"
       style="fill:#808080"
       width="45.389999"
       height="41.32"
       id="rect1126" />
    <rect
       x="260.71201"
       y="101.763"
       style="fill:#808080"
       width="45.389999"
       height="41.32"
       id="rect1128" />
    <rect
       x="203.67101"
       y="207.433"
       style="fill:#808080"
       width="45.389999"
       height="41.32"
       id="rect1130" />
    <rect
       x="146.64101"
       y="154.593"
       style="fill:#808080"
       width="45.389999"
       height="41.32"
       id="rect1132" />
    <rect
       x="260.71201"
       y="154.593"
       style="fill:#808080"
       width="45.389999"
       height="41.32"
       id="rect1134" />
    <rect
       x="203.67101"
       y="154.593"
       style="fill:#808080"
       width="45.389999"
       height="41.32"
       id="rect1136" />
  </g>
  <g
     id="g1140"
     transform="matrix(0.02433054,0,0,0.02433054,10.719216,8.9050047)" />
  <g
     id="g1142"
     transform="matrix(0.02433054,0,0,0.02433054,10.719216,8.9050047)" />
  <g
     id="g1144"
     transform="matrix(0.02433054,0,0,0.02433054,10.719216,8.9050047)" />
  <g
     id="g1146"
     transform="matrix(0.02433054,0,0,0.02433054,10.719216,8.9050047)" />
  <g
     id="g1148"
     transform="matrix(0.02433054,0,0,0.02433054,10.719216,8.9050047)" />
  <g
     id="g1150"
     transform="matrix(0.02433054,0,0,0.02433054,10.719216,8.9050047)" />
  <g
     id="g1152"
     transform="matrix(0.02433054,0,0,0.02433054,10.719216,8.9050047)" />
  <g
     id="g1154"
     transform="matrix(0.02433054,0,0,0.02433054,10.719216,8.9050047)" />
  <g
     id="g1156"
     transform="matrix(0.02433054,0,0,0.02433054,10.719216,8.9050047)" />
  <g
     id="g1158"
     transform="matrix(0.02433054,0,0,0.02433054,10.719216,8.9050047)" />
  <g
     id="g1160"
     transform="matrix(0.02433054,0,0,0.02433054,10.719216,8.9050047)" />
  <g
     id="g1162"
     transform="matrix(0.02433054,0,0,0.02433054,10.719216,8.9050047)" />
  <g
     id="g1164"
     transform="matrix(0.02433054,0,0,0.02433054,10.719216,8.9050047)" />
  <g
     id="g1166"
     transform="matrix(0.02433054,0,0,0.02433054,10.719216,8.9050047)" />
  <g
     id="g1168"
     transform="matrix(0.02433054,0,0,0.02433054,10.719216,8.9050047)" />
  <g
     aria-label="dockerfile"
     id="text4410"
     style="font-size:4px;line-height:1.25;fill:#666666"
     transform="translate(2e-7,-0.70485962)">
    <path
       d="m 8.0341797,27.098831 v -1.183594 h 0.359375 V 28.9543 h -0.359375 v -0.328125 q -0.1132813,0.195312 -0.2871094,0.291016 -0.171875,0.09375 -0.4140625,0.09375 -0.3964844,0 -0.6464844,-0.316407 -0.2480468,-0.316406 -0.2480468,-0.832031 0,-0.515625 0.2480468,-0.832031 0.25,-0.316406 0.6464844,-0.316406 0.2421875,0 0.4140625,0.0957 0.1738281,0.09375 0.2871094,0.289062 z m -1.2246094,0.763672 q 0,0.396484 0.1621094,0.623047 0.1640625,0.224609 0.4492187,0.224609 0.2851563,0 0.4492188,-0.224609 0.1640625,-0.226563 0.1640625,-0.623047 0,-0.396484 -0.1640625,-0.621094 -0.1640625,-0.226562 -0.4492188,-0.226562 -0.2851562,0 -0.4492187,0.226562 -0.1621094,0.22461 -0.1621094,0.621094 z"
       style="fill:#666666"
       id="path886" />
    <path
       d="m 9.9814453,27.018753 q -0.2890625,0 -0.4570312,0.226563 -0.1679688,0.224609 -0.1679688,0.617187 0,0.392578 0.1660156,0.619141 0.1679688,0.224609 0.4589844,0.224609 0.2871097,0 0.4550777,-0.226562 0.167969,-0.226563 0.167969,-0.617188 0,-0.388672 -0.167969,-0.615234 -0.167968,-0.228516 -0.4550777,-0.228516 z m 0,-0.304687 q 0.4687497,0 0.7363277,0.304687 0.267579,0.304688 0.267579,0.84375 0,0.537109 -0.267579,0.84375 -0.267578,0.304688 -0.7363277,0.304688 -0.4707031,0 -0.7382812,-0.304688 -0.265625,-0.306641 -0.265625,-0.84375 0,-0.539062 0.265625,-0.84375 0.2675781,-0.304687 0.7382812,-0.304687 z"
       style="fill:#666666"
       id="path888" />
    <path
       d="m 13.155273,26.850784 v 0.335938 q -0.152343,-0.08398 -0.30664,-0.125 -0.152344,-0.04297 -0.308594,-0.04297 -0.349609,0 -0.542969,0.222656 -0.193359,0.220703 -0.193359,0.621094 0,0.400391 0.193359,0.623047 0.19336,0.220703 0.542969,0.220703 0.15625,0 0.308594,-0.04102 0.154297,-0.04297 0.30664,-0.126953 v 0.332032 q -0.15039,0.07031 -0.3125,0.105468 -0.160156,0.03516 -0.341796,0.03516 -0.494141,0 -0.785157,-0.310547 -0.291015,-0.310547 -0.291015,-0.837891 0,-0.535156 0.292968,-0.841797 0.294922,-0.30664 0.806641,-0.30664 0.166016,0 0.324219,0.03516 0.158203,0.0332 0.30664,0.101562 z"
       style="fill:#666666"
       id="path890" />
    <path
       d="m 13.766602,25.915237 h 0.361328 v 1.794922 L 15.200195,26.7668 h 0.458985 l -1.160157,1.023437 1.208985,1.164063 h -0.46875 L 14.12793,27.885941 V 28.9543 h -0.361328 z"
       style="fill:#666666"
       id="path892" />
    <path
       d="m 17.825195,27.770706 v 0.175781 h -1.652343 q 0.02344,0.371094 0.222656,0.566407 0.201172,0.193359 0.558594,0.193359 0.207031,0 0.40039,-0.05078 0.195313,-0.05078 0.386719,-0.152344 v 0.339844 q -0.193359,0.08203 -0.396484,0.125 -0.203125,0.04297 -0.41211,0.04297 -0.523437,0 -0.830078,-0.304688 -0.304687,-0.304687 -0.304687,-0.824219 0,-0.537109 0.289062,-0.851562 0.291016,-0.316406 0.783203,-0.316406 0.441406,0 0.697266,0.285156 0.257812,0.283203 0.257812,0.771484 z M 17.46582,27.665237 q -0.0039,-0.294921 -0.166015,-0.470703 -0.160157,-0.175781 -0.425782,-0.175781 -0.300781,0 -0.482421,0.169922 -0.179688,0.169922 -0.207032,0.478516 z"
       style="fill:#666666"
       id="path894" />
    <path
       d="m 19.682617,27.102737 q -0.06055,-0.03516 -0.132812,-0.05078 -0.07031,-0.01758 -0.15625,-0.01758 -0.304688,0 -0.46875,0.199219 -0.16211,0.197265 -0.16211,0.568359 V 28.9543 h -0.361328 v -2.1875 h 0.361328 v 0.339844 q 0.113282,-0.199219 0.294922,-0.294922 0.181641,-0.09766 0.441406,-0.09766 0.03711,0 0.08203,0.0059 0.04492,0.0039 0.09961,0.01367 z"
       style="fill:#666666"
       id="path896" />
    <path
       d="m 21.827148,26.7668 v 2.1875 H 21.46582 V 27.046097 H 20.479492 V 28.9543 h -0.361328 v -1.908203 h -0.34375 V 26.7668 h 0.34375 v -0.152344 q 0,-0.357422 0.167969,-0.527344 0.169922,-0.171875 0.519531,-0.171875 h 0.361328 v 0.298829 h -0.34375 q -0.193359,0 -0.269531,0.07813 -0.07422,0.07813 -0.07422,0.28125 V 26.7668 Z M 21.46582,25.919144 h 0.361328 v 0.455078 H 21.46582 Z"
       style="fill:#666666"
       id="path898" />
    <path
       d="m 22.579102,25.915237 h 0.359375 V 28.9543 h -0.359375 z"
       style="fill:#666666"
       id="path900" />
    <path
       d="m 25.561523,27.770706 v 0.175781 H 23.90918 q 0.02344,0.371094 0.222656,0.566407 0.201172,0.193359 0.558594,0.193359 0.207031,0 0.40039,-0.05078 0.195313,-0.05078 0.386719,-0.152344 v 0.339844 q -0.193359,0.08203 -0.396484,0.125 -0.203125,0.04297 -0.41211,0.04297 -0.523437,0 -0.830078,-0.304688 -0.304687,-0.304687 -0.304687,-0.824219 0,-0.537109 0.289062,-0.851562 0.291016,-0.316406 0.783203,-0.316406 0.441407,0 0.697266,0.285156 0.257812,0.283203 0.257812,0.771484 z m -0.359375,-0.105469 q -0.0039,-0.294921 -0.166015,-0.470703 -0.160156,-0.175781 -0.425781,-0.175781 -0.300782,0 -0.482422,0.169922 -0.179688,0.169922 -0.207032,0.478516 z"
       style="fill:#666666"
       id="path902" />
  </g>
</svg>
