<?xml version="1.0" encoding="UTF-8" standalone="no"?>
<svg
   width="32"
   height="32"
   id="svg2"
   version="1.1"
   sodipodi:docname="text-less.svg"
   inkscape:version="1.1 (c68e22c387, 2021-05-23)"
   xmlns:inkscape="http://www.inkscape.org/namespaces/inkscape"
   xmlns:sodipodi="http://sodipodi.sourceforge.net/DTD/sodipodi-0.dtd"
   xmlns:xlink="http://www.w3.org/1999/xlink"
   xmlns="http://www.w3.org/2000/svg"
   xmlns:svg="http://www.w3.org/2000/svg"
   xmlns:rdf="http://www.w3.org/1999/02/22-rdf-syntax-ns#"
   xmlns:cc="http://creativecommons.org/ns#"
   xmlns:dc="http://purl.org/dc/elements/1.1/">
  <sodipodi:namedview
     pagecolor="#ffffff"
     bordercolor="#666666"
     borderopacity="1"
     objecttolerance="10"
     gridtolerance="10"
     guidetolerance="10"
     inkscape:pageopacity="0"
     inkscape:pageshadow="2"
     inkscape:window-width="1920"
     inkscape:window-height="1007"
     id="namedview47"
     showgrid="false"
     inkscape:zoom="20.85965"
     inkscape:cx="11.002102"
     inkscape:cy="15.316652"
     inkscape:window-x="0"
     inkscape:window-y="1236"
     inkscape:window-maximized="1"
     inkscape:current-layer="svg2"
     inkscape:document-rotation="0"
     inkscape:pagecheckerboard="1" />
  <defs
     id="defs4">
    <inkscape:path-effect
       effect="fillet_chamfer"
       id="path-effect50"
       is_visible="true"
       lpeversion="1"
       satellites_param="F,0,0,1,0,2,0,10 @ F,0,0,1,0,2,0,10 @ F,0,0,1,0,2,0,10 @ F,0,0,1,0,2,0,10"
       unit="px"
       method="auto"
       mode="F"
       radius="2"
       chamfer_steps="10"
       flexible="false"
       use_knot_distance="true"
       apply_no_radius="true"
       apply_with_radius="true"
       only_selected="false"
       hide_knots="false" />
    <inkscape:path-effect
       effect="fillet_chamfer"
       id="path-effect48"
       is_visible="true"
       lpeversion="1"
       satellites_param="F,0,0,1,0,2,0,10 @ F,0,0,1,0,2,0,10 @ F,0,0,1,0,2,0,10 @ F,0,0,1,0,2,0,10"
       unit="px"
       method="auto"
       mode="F"
       radius="2"
       chamfer_steps="10"
       flexible="false"
       use_knot_distance="true"
       apply_no_radius="true"
       apply_with_radius="true"
       only_selected="false"
       hide_knots="false" />
    <inkscape:path-effect
       effect="fillet_chamfer"
       id="path-effect46"
       is_visible="true"
       lpeversion="1"
       satellites_param="F,0,0,1,0,2,0,10 @ F,0,0,1,0,2,0,10 @ F,0,0,1,0,2,0,10 @ F,0,0,1,0,2,0,10"
       unit="px"
       method="auto"
       mode="F"
       radius="2"
       chamfer_steps="10"
       flexible="false"
       use_knot_distance="true"
       apply_no_radius="true"
       apply_with_radius="true"
       only_selected="false"
       hide_knots="false" />
    <linearGradient
       id="linearGradient902">
      <stop
         id="stop898"
         offset="0"
         style="stop-color:#770087;stop-opacity:1;" />
      <stop
         id="stop900"
         offset="1"
         style="stop-color:#452981;stop-opacity:1" />
    </linearGradient>
    <linearGradient
       id="linearGradient899">
      <stop
         id="stop895"
         style="stop-color:#f282f1;stop-opacity:1"
         offset="0" />
      <stop
         id="stop897"
         style="stop-color:#a56de2;stop-opacity:1"
         offset="1" />
    </linearGradient>
    <linearGradient
       id="linearGradient916">
      <stop
         id="stop912"
         style="stop-color:#ffffff;stop-opacity:1"
         offset="0" />
      <stop
         id="stop914"
         style="stop-color:#fafafa;stop-opacity:1"
         offset="1" />
    </linearGradient>
    <linearGradient
       id="linearGradient3688-166-749-654">
      <stop
         id="stop3088"
         style="stop-color:#181818;stop-opacity:1"
         offset="0" />
      <stop
         id="stop3090"
         style="stop-color:#181818;stop-opacity:0"
         offset="1" />
    </linearGradient>
    <linearGradient
       id="linearGradient3688-464-309-604">
      <stop
         id="stop3094"
         style="stop-color:#181818;stop-opacity:1"
         offset="0" />
      <stop
         id="stop3096"
         style="stop-color:#181818;stop-opacity:0"
         offset="1" />
    </linearGradient>
    <linearGradient
       id="linearGradient3702-501-757-795">
      <stop
         id="stop3100"
         style="stop-color:#181818;stop-opacity:0"
         offset="0" />
      <stop
         id="stop3102"
         style="stop-color:#181818;stop-opacity:1"
         offset="0.5" />
      <stop
         id="stop3104"
         style="stop-color:#181818;stop-opacity:0"
         offset="1" />
    </linearGradient>
    <radialGradient
       xlink:href="#linearGradient3688-166-749-654"
       id="radialGradient4730"
       gradientUnits="userSpaceOnUse"
       gradientTransform="matrix(3.2060542,2.6349059e-7,-8.2185947e-8,1.0000077,36.981009,15.99962)"
       cx="4.9964824"
       cy="43.5"
       fx="4.9964824"
       fy="43.5"
       r="2.5" />
    <radialGradient
       xlink:href="#linearGradient3688-464-309-604"
       id="radialGradient4732"
       gradientUnits="userSpaceOnUse"
       gradientTransform="matrix(3.163875,0,0,0.99999995,-29.702994,-103.00012)"
       cx="4.9929786"
       cy="43.5"
       fx="4.9929786"
       fy="43.5"
       r="2.5" />
    <linearGradient
       xlink:href="#linearGradient3702-501-757-795"
       id="linearGradient4734"
       gradientUnits="userSpaceOnUse"
       gradientTransform="matrix(1.3928572,0,0,0.71428561,-0.0214163,28.42862)"
       x1="25.058096"
       y1="47.027729"
       x2="25.058096"
       y2="39.999443" />
    <linearGradient
       gradientTransform="matrix(1.4324324,0,0,1.4362832,-7.3783796,-7.3995521)"
       gradientUnits="userSpaceOnUse"
       xlink:href="#linearGradient3924-2-2-5-8"
       id="linearGradient3381-5-4"
       y2="46.230125"
       x2="38.660378"
       y1="5.8481169"
       x1="38.660378" />
    <linearGradient
       id="linearGradient3924-2-2-5-8">
      <stop
         offset="0"
         style="stop-color:#ffffff;stop-opacity:1"
         id="stop3926-9-4-9-6" />
      <stop
         offset="0.06316455"
         style="stop-color:#ffffff;stop-opacity:0.23529412"
         id="stop3928-9-8-6-5" />
      <stop
         offset="0.95056331"
         style="stop-color:#ffffff;stop-opacity:0.15686275"
         id="stop3930-3-5-1-7" />
      <stop
         offset="1"
         style="stop-color:#ffffff;stop-opacity:0.39215687"
         id="stop3932-8-0-4-8" />
    </linearGradient>
    <linearGradient
       gradientTransform="matrix(0.47054764,0,0,0.47457626,-60.688645,-0.1484071)"
       gradientUnits="userSpaceOnUse"
       xlink:href="#linearGradient916"
       id="linearGradient5809"
       y2="55.027"
       x2="161.97743"
       y1="10.027002"
       x1="161.97743" />
    <linearGradient
       y2="63.027"
       x2="161.97743"
       y1="5.1520023"
       x1="161.97743"
       gradientTransform="matrix(0.4705882,0,0,0.47457626,-60.695255,-0.1484071)"
       gradientUnits="userSpaceOnUse"
       id="linearGradient910"
       xlink:href="#linearGradient899" />
    <linearGradient
       gradientUnits="userSpaceOnUse"
       y2="60"
       x2="32"
       y1="0"
       x1="32"
       id="linearGradient904"
       xlink:href="#linearGradient902" />
    <linearGradient
       y2="63.027"
       x2="161.97743"
       y1="5.1520023"
       x1="161.97743"
       gradientTransform="matrix(0.94117646,0,0,0.94915254,-73.044014,10.801587)"
       gradientUnits="userSpaceOnUse"
       id="linearGradient910-3"
       xlink:href="#linearGradient899" />
    <linearGradient
       y2="63.027"
       x2="161.97743"
       y1="5.1520023"
       x1="161.97743"
       gradientTransform="matrix(0.47054764,0,0,0.47457626,-76.305129,-44.360347)"
       gradientUnits="userSpaceOnUse"
       id="linearGradient910-5"
       xlink:href="#linearGradient899" />
    <filter
       inkscape:collect="always"
       style="color-interpolation-filters:sRGB"
       id="filter1218"
       x="-0.00052002417"
       width="1.00104"
       y="-0.00044569657"
       height="1.0008914">
      <feGaussianBlur
         inkscape:collect="always"
         stdDeviation="0.0051997931"
         id="feGaussianBlur1220" />
    </filter>
    <inkscape:path-effect
       effect="fillet_chamfer"
       id="path-effect889"
       is_visible="true"
       lpeversion="1"
       satellites_param="F,0,0,1,0,1,0,10 @ F,0,0,1,0,1,0,10 @ F,0,0,1,0,1,0,10 @ F,0,0,1,0,1,0,10"
       unit="px"
       method="auto"
       mode="F"
       radius="1"
       chamfer_steps="10"
       flexible="false"
       use_knot_distance="true"
       apply_no_radius="true"
       apply_with_radius="true"
       only_selected="false"
       hide_knots="false" />
    <inkscape:path-effect
       effect="fillet_chamfer"
       id="path-effect887"
       is_visible="true"
       lpeversion="1"
       satellites_param="F,0,0,1,0,1,0,10 @ F,0,0,1,0,1,0,10 @ F,0,0,1,0,1,0,10 @ F,0,0,1,0,1,0,10"
       unit="px"
       method="auto"
       mode="F"
       radius="1"
       chamfer_steps="10"
       flexible="false"
       use_knot_distance="true"
       apply_no_radius="true"
       apply_with_radius="true"
       only_selected="false"
       hide_knots="false" />
    <inkscape:path-effect
       effect="fillet_chamfer"
       id="path-effect885"
       is_visible="true"
       lpeversion="1"
       satellites_param="F,0,0,1,0,1,0,10 @ F,0,0,1,0,1,0,10 @ F,0,0,1,0,1,0,10 @ F,0,0,1,0,1,0,10"
       unit="px"
       method="auto"
       mode="F"
       radius="1"
       chamfer_steps="10"
       flexible="false"
       use_knot_distance="true"
       apply_no_radius="true"
       apply_with_radius="true"
       only_selected="false"
       hide_knots="false" />
    <radialGradient
       xlink:href="#linearGradient3688-166-749-654"
       id="radialGradient4730-06"
       gradientUnits="userSpaceOnUse"
       gradientTransform="matrix(3.2060542,2.6349059e-7,-8.2185947e-8,1.0000077,36.981009,15.99962)"
       cx="4.9964824"
       cy="43.5"
       fx="4.9964824"
       fy="43.5"
       r="2.5" />
    <radialGradient
       xlink:href="#linearGradient3688-166-749-654"
       id="radialGradient4732-2"
       gradientUnits="userSpaceOnUse"
       gradientTransform="matrix(3.163875,0,0,0.99999995,-29.702994,-103.00012)"
       cx="4.9929786"
       cy="43.5"
       fx="4.9929786"
       fy="43.5"
       r="2.5" />
    <radialGradient
       xlink:href="#linearGradient3688-166-749-654"
       id="radialGradient4730-0"
       gradientUnits="userSpaceOnUse"
       gradientTransform="matrix(3.2060542,2.6349059e-7,-8.2185947e-8,1.0000077,36.981009,15.99962)"
       cx="4.9964824"
       cy="43.5"
       fx="4.9964824"
       fy="43.5"
       r="2.5" />
    <radialGradient
       xlink:href="#linearGradient3688-166-749-654"
       id="radialGradient4732-6"
       gradientUnits="userSpaceOnUse"
       gradientTransform="matrix(3.163875,0,0,0.99999995,-29.702994,-103.00012)"
       cx="4.9929786"
       cy="43.5"
       fx="4.9929786"
       fy="43.5"
       r="2.5" />
    <radialGradient
       xlink:href="#linearGradient3688-166-749-654"
       id="radialGradient4730-9"
       gradientUnits="userSpaceOnUse"
       gradientTransform="matrix(3.2060542,2.6349059e-7,-8.2185947e-8,1.0000077,36.981009,15.99962)"
       cx="4.9964824"
       cy="43.5"
       fx="4.9964824"
       fy="43.5"
       r="2.5" />
    <radialGradient
       xlink:href="#linearGradient3688-166-749-654"
       id="radialGradient4732-4"
       gradientUnits="userSpaceOnUse"
       gradientTransform="matrix(3.163875,0,0,0.99999995,-29.702994,-103.00012)"
       cx="4.9929786"
       cy="43.5"
       fx="4.9929786"
       fy="43.5"
       r="2.5" />
  </defs>
  <metadata
     id="metadata7">
    <rdf:RDF>
      <cc:Work
         rdf:about="">
        <dc:format>image/svg+xml</dc:format>
        <dc:type
           rdf:resource="http://purl.org/dc/dcmitype/StillImage" />
      </cc:Work>
    </rdf:RDF>
  </metadata>
  <path
     width="23.997931"
     height="28"
     rx="0"
     ry="0"
     x="4.0010357"
     y="2.7520487"
     id="rect4897-1"
     style="opacity:0.2;vector-effect:none;fill:#000000;fill-opacity:1;stroke:none;stroke-width:0.472558;stroke-linecap:butt;stroke-linejoin:miter;stroke-miterlimit:4;stroke-dasharray:none;stroke-dashoffset:0;stroke-opacity:1;filter:url(#filter1218)"
     inkscape:path-effect="#path-effect48"
     d="M 6.0010357,2.7520487 H 25.998966 a 2,2 45 0 1 2,2 V 28.752049 a 2,2 135 0 1 -2,2 H 6.0010357 a 2,2 45 0 1 -2,-2 V 4.7520487 a 2,2 135 0 1 2,-2 z"
     sodipodi:type="rect" />
  <path
     width="24"
     height="28"
     rx="0"
     ry="0"
     x="4"
     y="2"
     id="rect4897"
     style="opacity:1;vector-effect:none;fill:#eeeeee;fill-opacity:1;stroke:none;stroke-width:0.472578;stroke-linecap:butt;stroke-linejoin:miter;stroke-miterlimit:4;stroke-dasharray:none;stroke-dashoffset:0;stroke-opacity:1"
     inkscape:path-effect="#path-effect46"
     d="m 6,2 h 20 a 2,2 45 0 1 2,2 v 24 a 2,2 135 0 1 -2,2 H 6 A 2,2 45 0 1 4,28 V 4 A 2,2 135 0 1 6,2 Z"
     sodipodi:type="rect" />
  <g
     aria-label="{less}"
     id="text9860"
     style="font-size:6px;line-height:1.25;fill:#214478">
    <path
       d="m 8.6157227,18.109375 v 0.65918 H 7.9799805 q -0.6386719,0 -0.9316407,-0.257813 Q 6.7553711,18.25293 6.7553711,17.6875 V 17.125 q 0,-0.439453 -0.1582031,-0.609375 Q 6.4389648,16.342773 6.0229492,16.342773 H 5.8442383 v -0.65332 h 0.1787109 q 0.4160156,0 0.5742188,-0.169922 0.1582031,-0.169922 0.1582031,-0.609375 V 14.30957 q 0,-0.565429 0.2929687,-0.820312 0.2929688,-0.257813 0.9316407,-0.257813 h 0.6357422 v 0.65918 H 8.4135742 q -0.4130859,0 -0.5390625,0.128906 -0.1230469,0.125977 -0.1230469,0.541992 v 0.486329 q 0,0.459961 -0.1318359,0.667968 -0.1318359,0.208008 -0.4541016,0.28125 0.3251954,0.0791 0.4541016,0.28711 0.1318359,0.208007 0.1318359,0.665039 v 0.486328 q 0,0.418945 0.1230469,0.544922 0.1259766,0.128906 0.5390625,0.128906 z"
       style="font-weight:bold;-inkscape-font-specification:'sans-serif Bold';fill:#214478"
       id="path57" />
    <path
       d="m 9.8696289,13.231445 h 1.0488281 v 4.558594 H 9.8696289 Z"
       style="font-weight:bold;-inkscape-font-specification:'sans-serif Bold';fill:#214478"
       id="path59" />
    <path
       d="m 15.20166,16.140625 v 0.298828 h -2.452148 q 0.03809,0.369141 0.266601,0.553711 0.228516,0.18457 0.638672,0.18457 0.331055,0 0.676758,-0.09668 0.348633,-0.09961 0.714844,-0.298828 v 0.808593 q -0.372071,0.140625 -0.744141,0.210938 -0.37207,0.07324 -0.744141,0.07324 -0.890625,0 -1.385742,-0.451172 -0.492187,-0.454101 -0.492187,-1.271484 0,-0.802735 0.483398,-1.262696 0.486328,-0.45996 1.335938,-0.45996 0.773437,0 1.236328,0.46582 0.46582,0.46582 0.46582,1.245117 z m -1.078125,-0.348633 q 0,-0.298828 -0.175781,-0.480469 -0.172852,-0.18457 -0.454102,-0.18457 -0.304687,0 -0.495117,0.172852 -0.19043,0.169922 -0.237305,0.492187 z"
       style="font-weight:bold;-inkscape-font-specification:'sans-serif Bold';fill:#214478"
       id="path61" />
    <path
       d="m 18.559082,14.611328 v 0.796875 q -0.336914,-0.140625 -0.650391,-0.210937 -0.313476,-0.07031 -0.591796,-0.07031 -0.298829,0 -0.445313,0.07617 -0.143555,0.07324 -0.143555,0.228516 0,0.125976 0.108399,0.193359 0.111328,0.06738 0.395508,0.09961 l 0.18457,0.02637 q 0.805664,0.102539 1.083984,0.336914 0.278321,0.234375 0.278321,0.735351 0,0.524414 -0.386719,0.788086 -0.386719,0.263672 -1.154297,0.263672 -0.325195,0 -0.673828,-0.05273 -0.345703,-0.0498 -0.711914,-0.152344 v -0.796875 q 0.313476,0.152344 0.641601,0.228515 0.331055,0.07617 0.670899,0.07617 0.307617,0 0.46289,-0.08496 0.155274,-0.08496 0.155274,-0.251953 0,-0.140625 -0.108399,-0.208008 -0.105468,-0.07031 -0.424804,-0.108398 l -0.184571,-0.02344 q -0.700195,-0.08789 -0.981445,-0.325196 -0.28125,-0.237304 -0.28125,-0.720703 0,-0.521484 0.357422,-0.773437 0.357422,-0.251953 1.095703,-0.251953 0.290039,0 0.609375,0.04394 0.319336,0.04395 0.694336,0.137695 z"
       style="font-weight:bold;-inkscape-font-specification:'sans-serif Bold';fill:#214478"
       id="path63" />
    <path
       d="m 22.130371,14.611328 v 0.796875 q -0.336914,-0.140625 -0.650391,-0.210937 -0.313476,-0.07031 -0.591796,-0.07031 -0.298829,0 -0.445313,0.07617 -0.143555,0.07324 -0.143555,0.228516 0,0.125976 0.108399,0.193359 0.111328,0.06738 0.395508,0.09961 l 0.18457,0.02637 q 0.805664,0.102539 1.083984,0.336914 0.278321,0.234375 0.278321,0.735351 0,0.524414 -0.386719,0.788086 Q 21.57666,17.875 20.809082,17.875 q -0.325195,0 -0.673828,-0.05273 -0.345703,-0.0498 -0.711914,-0.152344 v -0.796875 q 0.313476,0.152344 0.641601,0.228515 0.331055,0.07617 0.670899,0.07617 0.307617,0 0.46289,-0.08496 0.155274,-0.08496 0.155274,-0.251953 0,-0.140625 -0.108399,-0.208008 -0.105468,-0.07031 -0.424804,-0.108398 l -0.184571,-0.02344 q -0.700195,-0.08789 -0.981445,-0.325196 -0.28125,-0.237304 -0.28125,-0.720703 0,-0.521484 0.357422,-0.773437 0.357422,-0.251953 1.095703,-0.251953 0.290039,0 0.609375,0.04394 0.319336,0.04395 0.694336,0.137695 z"
       style="font-weight:bold;-inkscape-font-specification:'sans-serif Bold';fill:#214478"
       id="path65" />
    <path
       d="m 23.384277,18.109375 h 0.205078 q 0.410157,0 0.533204,-0.128906 0.125976,-0.125977 0.125976,-0.544922 v -0.486328 q 0,-0.457032 0.131836,-0.665039 0.131836,-0.208008 0.457031,-0.28711 -0.325195,-0.07324 -0.457031,-0.28125 -0.131836,-0.208007 -0.131836,-0.667968 v -0.486329 q 0,-0.416015 -0.125976,-0.541992 -0.123047,-0.128906 -0.533204,-0.128906 h -0.205078 v -0.65918 h 0.635743 q 0.638671,0 0.93164,0.257813 0.292969,0.254883 0.292969,0.820312 v 0.600586 q 0,0.439453 0.158203,0.609375 0.158203,0.169922 0.574219,0.169922 h 0.178711 v 0.65332 h -0.178711 q -0.416016,0 -0.574219,0.172852 -0.158203,0.169922 -0.158203,0.609375 v 0.5625 q 0,0.56543 -0.292969,0.823242 -0.292969,0.257813 -0.93164,0.257813 h -0.635743 z"
       style="font-weight:bold;-inkscape-font-specification:'sans-serif Bold';fill:#214478"
       id="path67" />
  </g>
</svg>
