<?xml version="1.0" encoding="UTF-8" standalone="no"?>
<svg
   width="32"
   height="32"
   id="svg2"
   version="1.1"
   sodipodi:docname="text-x-eiffel.svg"
   inkscape:version="1.2.1 (9c6d41e410, 2022-07-14)"
   xmlns:inkscape="http://www.inkscape.org/namespaces/inkscape"
   xmlns:sodipodi="http://sodipodi.sourceforge.net/DTD/sodipodi-0.dtd"
   xmlns:xlink="http://www.w3.org/1999/xlink"
   xmlns="http://www.w3.org/2000/svg"
   xmlns:svg="http://www.w3.org/2000/svg"
   xmlns:rdf="http://www.w3.org/1999/02/22-rdf-syntax-ns#"
   xmlns:cc="http://creativecommons.org/ns#"
   xmlns:dc="http://purl.org/dc/elements/1.1/">
  <sodipodi:namedview
     pagecolor="#ffffff"
     bordercolor="#666666"
     borderopacity="1"
     objecttolerance="10"
     gridtolerance="10"
     guidetolerance="10"
     inkscape:pageopacity="0"
     inkscape:pageshadow="2"
     inkscape:window-width="1920"
     inkscape:window-height="1006"
     id="namedview47"
     showgrid="false"
     inkscape:zoom="10.429825"
     inkscape:cx="-0.95878886"
     inkscape:cy="11.074011"
     inkscape:window-x="0"
     inkscape:window-y="1237"
     inkscape:window-maximized="1"
     inkscape:current-layer="svg2"
     inkscape:document-rotation="0"
     inkscape:showpageshadow="2"
     inkscape:pagecheckerboard="0"
     inkscape:deskcolor="#d1d1d1" />
  <defs
     id="defs4">
    <inkscape:path-effect
       effect="fillet_chamfer"
       id="path-effect873"
       is_visible="true"
       lpeversion="1"
       satellites_param="F,0,0,1,0,2,0,10 @ F,0,0,1,0,2,0,10 @ F,0,0,1,0,2,0,10 @ F,0,0,1,0,2,0,10"
       unit="px"
       method="auto"
       mode="F"
       radius="2"
       chamfer_steps="10"
       flexible="false"
       use_knot_distance="true"
       apply_no_radius="true"
       apply_with_radius="true"
       only_selected="false"
       hide_knots="false"
       nodesatellites_param="F,0,0,1,0,2,0,10 @ F,0,0,1,0,2,0,10 @ F,0,0,1,0,2,0,10 @ F,0,0,1,0,2,0,10" />
    <inkscape:path-effect
       effect="fillet_chamfer"
       id="path-effect871"
       is_visible="true"
       lpeversion="1"
       satellites_param="F,0,0,1,0,2,0,10 @ F,0,0,1,0,2,0,10 @ F,0,0,1,0,2,0,10 @ F,0,0,1,0,2,0,10"
       unit="px"
       method="auto"
       mode="F"
       radius="2"
       chamfer_steps="10"
       flexible="false"
       use_knot_distance="true"
       apply_no_radius="true"
       apply_with_radius="true"
       only_selected="false"
       hide_knots="false"
       nodesatellites_param="F,0,0,1,0,2,0,10 @ F,0,0,1,0,2,0,10 @ F,0,0,1,0,2,0,10 @ F,0,0,1,0,2,0,10" />
    <inkscape:path-effect
       effect="fillet_chamfer"
       id="path-effect869"
       is_visible="true"
       lpeversion="1"
       satellites_param="F,0,0,1,0,2,0,10 @ F,0,0,1,0,2,0,10 @ F,0,0,1,0,2,0,10 @ F,0,0,1,0,2,0,10"
       unit="px"
       method="auto"
       mode="F"
       radius="2"
       chamfer_steps="10"
       flexible="false"
       use_knot_distance="true"
       apply_no_radius="true"
       apply_with_radius="true"
       only_selected="false"
       hide_knots="false"
       nodesatellites_param="F,0,0,1,0,2,0,10 @ F,0,0,1,0,2,0,10 @ F,0,0,1,0,2,0,10 @ F,0,0,1,0,2,0,10" />
    <linearGradient
       id="linearGradient902">
      <stop
         id="stop898"
         offset="0"
         style="stop-color:#770087;stop-opacity:1;" />
      <stop
         id="stop900"
         offset="1"
         style="stop-color:#452981;stop-opacity:1" />
    </linearGradient>
    <linearGradient
       id="linearGradient899">
      <stop
         id="stop895"
         style="stop-color:#f282f1;stop-opacity:1"
         offset="0" />
      <stop
         id="stop897"
         style="stop-color:#a56de2;stop-opacity:1"
         offset="1" />
    </linearGradient>
    <linearGradient
       id="linearGradient916">
      <stop
         id="stop912"
         style="stop-color:#ffffff;stop-opacity:1"
         offset="0" />
      <stop
         id="stop914"
         style="stop-color:#fafafa;stop-opacity:1"
         offset="1" />
    </linearGradient>
    <linearGradient
       id="linearGradient3688-166-749-654">
      <stop
         id="stop3088"
         style="stop-color:#181818;stop-opacity:1"
         offset="0" />
      <stop
         id="stop3090"
         style="stop-color:#181818;stop-opacity:0"
         offset="1" />
    </linearGradient>
    <linearGradient
       id="linearGradient3688-464-309-604">
      <stop
         id="stop3094"
         style="stop-color:#181818;stop-opacity:1"
         offset="0" />
      <stop
         id="stop3096"
         style="stop-color:#181818;stop-opacity:0"
         offset="1" />
    </linearGradient>
    <linearGradient
       id="linearGradient3702-501-757-795">
      <stop
         id="stop3100"
         style="stop-color:#181818;stop-opacity:0"
         offset="0" />
      <stop
         id="stop3102"
         style="stop-color:#181818;stop-opacity:1"
         offset="0.5" />
      <stop
         id="stop3104"
         style="stop-color:#181818;stop-opacity:0"
         offset="1" />
    </linearGradient>
    <radialGradient
       xlink:href="#linearGradient3688-166-749-654"
       id="radialGradient4730"
       gradientUnits="userSpaceOnUse"
       gradientTransform="matrix(3.2060542,2.6349059e-7,-8.2185947e-8,1.0000077,36.981009,15.99962)"
       cx="4.9964824"
       cy="43.5"
       fx="4.9964824"
       fy="43.5"
       r="2.5" />
    <radialGradient
       xlink:href="#linearGradient3688-464-309-604"
       id="radialGradient4732"
       gradientUnits="userSpaceOnUse"
       gradientTransform="matrix(3.163875,0,0,0.99999995,-29.702994,-103.00012)"
       cx="4.9929786"
       cy="43.5"
       fx="4.9929786"
       fy="43.5"
       r="2.5" />
    <linearGradient
       xlink:href="#linearGradient3702-501-757-795"
       id="linearGradient4734"
       gradientUnits="userSpaceOnUse"
       gradientTransform="matrix(1.3928572,0,0,0.71428561,-0.0214163,28.42862)"
       x1="25.058096"
       y1="47.027729"
       x2="25.058096"
       y2="39.999443" />
    <linearGradient
       gradientTransform="matrix(1.4324324,0,0,1.4362832,-7.3783796,-7.3995521)"
       gradientUnits="userSpaceOnUse"
       xlink:href="#linearGradient3924-2-2-5-8"
       id="linearGradient3381-5-4"
       y2="46.230125"
       x2="38.660378"
       y1="5.8481169"
       x1="38.660378" />
    <linearGradient
       id="linearGradient3924-2-2-5-8">
      <stop
         offset="0"
         style="stop-color:#ffffff;stop-opacity:1"
         id="stop3926-9-4-9-6" />
      <stop
         offset="0.06316455"
         style="stop-color:#ffffff;stop-opacity:0.23529412"
         id="stop3928-9-8-6-5" />
      <stop
         offset="0.95056331"
         style="stop-color:#ffffff;stop-opacity:0.15686275"
         id="stop3930-3-5-1-7" />
      <stop
         offset="1"
         style="stop-color:#ffffff;stop-opacity:0.39215687"
         id="stop3932-8-0-4-8" />
    </linearGradient>
    <linearGradient
       gradientTransform="matrix(0.47054764,0,0,0.47457626,-60.688645,-0.1484071)"
       gradientUnits="userSpaceOnUse"
       xlink:href="#linearGradient916"
       id="linearGradient5809"
       y2="55.027"
       x2="161.97743"
       y1="10.027002"
       x1="161.97743" />
    <linearGradient
       y2="63.027"
       x2="161.97743"
       y1="5.1520023"
       x1="161.97743"
       gradientTransform="matrix(0.4705882,0,0,0.47457626,-60.695255,-0.1484071)"
       gradientUnits="userSpaceOnUse"
       id="linearGradient910"
       xlink:href="#linearGradient899" />
    <linearGradient
       gradientUnits="userSpaceOnUse"
       y2="60"
       x2="32"
       y1="0"
       x1="32"
       id="linearGradient904"
       xlink:href="#linearGradient902" />
    <linearGradient
       y2="63.027"
       x2="161.97743"
       y1="5.1520023"
       x1="161.97743"
       gradientTransform="matrix(0.94117646,0,0,0.94915254,-73.044014,10.801587)"
       gradientUnits="userSpaceOnUse"
       id="linearGradient910-3"
       xlink:href="#linearGradient899" />
    <linearGradient
       y2="63.027"
       x2="161.97743"
       y1="5.1520023"
       x1="161.97743"
       gradientTransform="matrix(0.47054764,0,0,0.47457626,-76.305129,-44.360347)"
       gradientUnits="userSpaceOnUse"
       id="linearGradient910-5"
       xlink:href="#linearGradient899" />
    <filter
       inkscape:collect="always"
       style="color-interpolation-filters:sRGB"
       id="filter1218"
       x="-0.00052002417"
       width="1.00104"
       y="-0.00044569657"
       height="1.0008914">
      <feGaussianBlur
         inkscape:collect="always"
         stdDeviation="0.0051997931"
         id="feGaussianBlur1220" />
    </filter>
    <inkscape:path-effect
       effect="fillet_chamfer"
       id="path-effect889"
       is_visible="true"
       lpeversion="1"
       satellites_param="F,0,0,1,0,1,0,10 @ F,0,0,1,0,1,0,10 @ F,0,0,1,0,1,0,10 @ F,0,0,1,0,1,0,10"
       unit="px"
       method="auto"
       mode="F"
       radius="1"
       chamfer_steps="10"
       flexible="false"
       use_knot_distance="true"
       apply_no_radius="true"
       apply_with_radius="true"
       only_selected="false"
       hide_knots="false"
       nodesatellites_param="F,0,0,1,0,1,0,10 @ F,0,0,1,0,1,0,10 @ F,0,0,1,0,1,0,10 @ F,0,0,1,0,1,0,10" />
    <inkscape:path-effect
       effect="fillet_chamfer"
       id="path-effect887"
       is_visible="true"
       lpeversion="1"
       satellites_param="F,0,0,1,0,1,0,10 @ F,0,0,1,0,1,0,10 @ F,0,0,1,0,1,0,10 @ F,0,0,1,0,1,0,10"
       unit="px"
       method="auto"
       mode="F"
       radius="1"
       chamfer_steps="10"
       flexible="false"
       use_knot_distance="true"
       apply_no_radius="true"
       apply_with_radius="true"
       only_selected="false"
       hide_knots="false"
       nodesatellites_param="F,0,0,1,0,1,0,10 @ F,0,0,1,0,1,0,10 @ F,0,0,1,0,1,0,10 @ F,0,0,1,0,1,0,10" />
    <inkscape:path-effect
       effect="fillet_chamfer"
       id="path-effect885"
       is_visible="true"
       lpeversion="1"
       satellites_param="F,0,0,1,0,1,0,10 @ F,0,0,1,0,1,0,10 @ F,0,0,1,0,1,0,10 @ F,0,0,1,0,1,0,10"
       unit="px"
       method="auto"
       mode="F"
       radius="1"
       chamfer_steps="10"
       flexible="false"
       use_knot_distance="true"
       apply_no_radius="true"
       apply_with_radius="true"
       only_selected="false"
       hide_knots="false"
       nodesatellites_param="F,0,0,1,0,1,0,10 @ F,0,0,1,0,1,0,10 @ F,0,0,1,0,1,0,10 @ F,0,0,1,0,1,0,10" />
    <radialGradient
       xlink:href="#linearGradient3688-166-749-654"
       id="radialGradient4730-06"
       gradientUnits="userSpaceOnUse"
       gradientTransform="matrix(3.2060542,2.6349059e-7,-8.2185947e-8,1.0000077,36.981009,15.99962)"
       cx="4.9964824"
       cy="43.5"
       fx="4.9964824"
       fy="43.5"
       r="2.5" />
    <radialGradient
       xlink:href="#linearGradient3688-166-749-654"
       id="radialGradient4732-2"
       gradientUnits="userSpaceOnUse"
       gradientTransform="matrix(3.163875,0,0,0.99999995,-29.702994,-103.00012)"
       cx="4.9929786"
       cy="43.5"
       fx="4.9929786"
       fy="43.5"
       r="2.5" />
    <radialGradient
       xlink:href="#linearGradient3688-166-749-654"
       id="radialGradient4730-0"
       gradientUnits="userSpaceOnUse"
       gradientTransform="matrix(3.2060542,2.6349059e-7,-8.2185947e-8,1.0000077,36.981009,15.99962)"
       cx="4.9964824"
       cy="43.5"
       fx="4.9964824"
       fy="43.5"
       r="2.5" />
    <radialGradient
       xlink:href="#linearGradient3688-166-749-654"
       id="radialGradient4732-6"
       gradientUnits="userSpaceOnUse"
       gradientTransform="matrix(3.163875,0,0,0.99999995,-29.702994,-103.00012)"
       cx="4.9929786"
       cy="43.5"
       fx="4.9929786"
       fy="43.5"
       r="2.5" />
    <radialGradient
       xlink:href="#linearGradient3688-166-749-654"
       id="radialGradient4730-9"
       gradientUnits="userSpaceOnUse"
       gradientTransform="matrix(3.2060542,2.6349059e-7,-8.2185947e-8,1.0000077,36.981009,15.99962)"
       cx="4.9964824"
       cy="43.5"
       fx="4.9964824"
       fy="43.5"
       r="2.5" />
    <radialGradient
       xlink:href="#linearGradient3688-166-749-654"
       id="radialGradient4732-4"
       gradientUnits="userSpaceOnUse"
       gradientTransform="matrix(3.163875,0,0,0.99999995,-29.702994,-103.00012)"
       cx="4.9929786"
       cy="43.5"
       fx="4.9929786"
       fy="43.5"
       r="2.5" />
  </defs>
  <metadata
     id="metadata7">
    <rdf:RDF>
      <cc:Work
         rdf:about="">
        <dc:format>image/svg+xml</dc:format>
        <dc:type
           rdf:resource="http://purl.org/dc/dcmitype/StillImage" />
      </cc:Work>
    </rdf:RDF>
  </metadata>
  <path
     width="23.997931"
     height="28"
     rx="0"
     ry="0"
     x="4.0010357"
     y="2.7520487"
     id="rect4897-1"
     style="opacity:0.2;vector-effect:none;fill:#000000;fill-opacity:1;stroke:none;stroke-width:0.472558;stroke-linecap:butt;stroke-linejoin:miter;stroke-miterlimit:4;stroke-dasharray:none;stroke-dashoffset:0;stroke-opacity:1;filter:url(#filter1218)"
     inkscape:path-effect="#path-effect873"
     d="M 6.0010357,2.7520487 H 25.998966 a 2,2 45 0 1 2,2 V 28.752049 a 2,2 135 0 1 -2,2 H 6.0010357 a 2,2 45 0 1 -2,-2 V 4.7520487 a 2,2 135 0 1 2,-2 z"
     sodipodi:type="rect" />
  <path
     width="24"
     height="28"
     rx="0"
     ry="0"
     x="4"
     y="2"
     id="rect4897"
     style="opacity:1;vector-effect:none;fill:#eeeeee;fill-opacity:1;stroke:none;stroke-width:0.472578;stroke-linecap:butt;stroke-linejoin:miter;stroke-miterlimit:4;stroke-dasharray:none;stroke-dashoffset:0;stroke-opacity:1"
     inkscape:path-effect="#path-effect871"
     d="m 6,2 h 20 a 2,2 45 0 1 2,2 v 24 a 2,2 135 0 1 -2,2 H 6 A 2,2 45 0 1 4,28 V 4 A 2,2 135 0 1 6,2 Z"
     sodipodi:type="rect" />
  <g
     id="g5880"
     transform="matrix(1.4328187,0,0,1.4328187,-6.1306929,-7.6267577)">
    <path
       d="m 12.895328,12.664351 a 0.31877952,0.31877952 0 0 0 0.318779,0.318779 h 7.650709 a 0.31877952,0.31877952 0 0 0 0,-0.637559 h -7.650709 a 0.31877952,0.31877952 0 0 0 -0.318779,0.31878 z"
       id="path5662"
       style="fill:#808080;stroke-width:0.0398474" />
    <path
       d="m 10.026312,14.895807 h 6.37559 a 0.31877952,0.31877952 0 0 0 0,-0.637559 h -6.37559 a 0.31877952,0.31877952 0 0 0 0,0.637559 z"
       id="path5664"
       style="fill:#808080;stroke-width:0.0398474" />
    <path
       d="m 20.864816,16.170925 h -5.738032 a 0.31877952,0.31877952 0 0 0 0,0.637559 h 5.738032 a 0.31877952,0.31877952 0 0 0 0,-0.637559 z"
       id="path5666"
       style="fill:#808080;stroke-width:0.0398474" />
    <path
       d="m 10.026312,18.721161 h 7.650709 a 0.31877952,0.31877952 0 0 0 0,-0.637559 h -7.650709 a 0.31877952,0.31877952 0 0 0 0,0.637559 z"
       id="path5668"
       style="fill:#808080;stroke-width:0.0398474" />
    <path
       d="m 10.026312,12.98313 h 1.912677 a 0.31877952,0.31877952 0 0 0 0,-0.637559 h -1.912677 a 0.31877952,0.31877952 0 0 0 0,0.637559 z"
       id="path5670"
       style="fill:#808080;stroke-width:0.0398474" />
    <path
       d="m 20.864816,14.258248 h -3.187795 a 0.31877952,0.31877952 0 0 0 0,0.637559 h 3.187795 a 0.31877952,0.31877952 0 0 0 0,-0.637559 z"
       id="path5672"
       style="fill:#808080;stroke-width:0.0398474" />
    <path
       d="m 10.026312,16.808484 h 3.825354 a 0.31877952,0.31877952 0 0 0 0,-0.637559 h -3.825354 a 0.31877952,0.31877952 0 0 0 0,0.637559 z"
       id="path5674"
       style="fill:#808080;stroke-width:0.0398474" />
    <path
       d="m 20.864816,18.083602 h -1.912677 a 0.31877952,0.31877952 0 0 0 0,0.637559 h 1.912677 a 0.31877952,0.31877952 0 0 0 0,-0.637559 z"
       id="path5676"
       style="fill:#808080;stroke-width:0.0398474" />
    <path
       d="m 18.31458,21.908957 h -3.187796 a 0.31877952,0.31877952 0 0 0 0,0.637559 h 3.187796 a 0.31877952,0.31877952 0 0 0 0,-0.637559 z"
       id="path5678"
       style="fill:#808080;stroke-width:0.0398474" />
    <path
       d="m 10.026312,22.546516 h 3.825354 a 0.31877952,0.31877952 0 0 0 0,-0.637559 h -3.825354 a 0.31877952,0.31877952 0 0 0 0,0.637559 z"
       id="path5680"
       style="fill:#808080;stroke-width:0.0398474" />
    <path
       d="m 10.026312,20.633839 h 2.550236 a 0.31878,0.31878 0 0 0 0,-0.63756 h -2.550236 a 0.31878,0.31878 0 0 0 0,0.63756 z"
       id="path5682"
       style="fill:#808080;stroke-width:0.0398474" />
    <path
       d="m 10.026312,11.070453 h 3.825354 a 0.31877952,0.31877952 0 0 0 0,-0.637559 h -3.825354 a 0.31877952,0.31877952 0 0 0 0,0.637559 z"
       id="path5684"
       style="fill:#808080;stroke-width:0.0398474" />
    <path
       d="m 17.358241,20.315059 a 0.31877952,0.31877952 0 0 0 -0.318779,-0.31878 h -3.187796 a 0.31878,0.31878 0 0 0 0,0.63756 h 3.187796 a 0.31877952,0.31877952 0 0 0 0.318779,-0.31878 z"
       id="path5686"
       style="fill:#808080;stroke-width:0.0398474" />
    <path
       d="M 20.864816,19.996279 H 18.31458 a 0.31878,0.31878 0 0 0 0,0.63756 h 2.550236 a 0.31878,0.31878 0 0 0 0,-0.63756 z"
       id="path5688"
       style="fill:#808080;stroke-width:0.0398474" />
    <path
       d="m 20.864816,21.908957 h -1.275118 a 0.31877952,0.31877952 0 0 0 0,0.637559 h 1.275118 a 0.31877952,0.31877952 0 0 0 0,-0.637559 z"
       id="path5690"
       style="fill:#808080;stroke-width:0.0398474" />
  </g>
  <path
     style="opacity:1;fill:#1774ff;fill-opacity:1;stroke:none;stroke-width:0.428245"
     id="rect7379"
     width="18"
     height="8"
     x="0"
     y="6"
     inkscape:path-effect="#path-effect869"
     d="m 2,6 h 14 a 2,2 45 0 1 2,2 v 4 a 2,2 135 0 1 -2,2 L 2,14 A 2,2 45 0 1 0,12 V 8 A 2,2 135 0 1 2,6 Z"
     sodipodi:type="rect" />
  <g
     aria-label="Eiffel"
     id="text356"
     style="font-size:6px;font-family:'DejaVu Sans';-inkscape-font-specification:'DejaVu Sans';fill:#ffffff;stroke-width:0.267">
    <path
       d="m 2.1005859,7.862793 h 2.765625 V 8.3608398 H 2.6923828 V 9.6557617 H 4.7753906 V 10.153809 H 2.6923828 v 1.584961 h 2.2265625 v 0.498046 H 2.1005859 Z"
       id="path1068" />
    <path
       d="M 5.8681641,8.9555664 H 6.4072266 V 12.236816 H 5.8681641 Z m 0,-1.2773437 H 6.4072266 V 8.3608398 H 5.8681641 Z"
       id="path1070" />
    <path
       d="m 11.217773,7.6782227 v 0.4482421 h -0.515625 q -0.290039,0 -0.404296,0.1171875 -0.111329,0.1171875 -0.111329,0.421875 v 0.2900391 h 0.887696 V 9.3745117 H 10.186523 V 12.236816 H 9.6445313 V 9.3745117 H 8.1650391 V 12.236816 H 7.6230469 V 9.3745117 H 7.1074219 V 8.9555664 h 0.515625 V 8.7270508 q 0,-0.5478516 0.2548828,-0.796875 0.2548828,-0.2519531 0.8085937,-0.2519531 h 0.5097657 v 0.4482421 h -0.515625 q -0.2900391,0 -0.4042969,0.1171875 -0.1113281,0.1171875 -0.1113281,0.421875 V 8.9555664 H 9.6445313 V 8.7270508 q 0,-0.5478516 0.2548828,-0.796875 0.2548829,-0.2519531 0.8085939,-0.2519531 z"
       id="path1072" />
    <path
       d="m 14.475586,10.461426 v 0.263672 H 11.99707 q 0.03516,0.55664 0.333985,0.849609 0.301758,0.290039 0.83789,0.290039 0.310547,0 0.600586,-0.07617 0.292969,-0.07617 0.580078,-0.228515 v 0.509765 q -0.290039,0.123047 -0.594726,0.1875 -0.304688,0.06445 -0.618164,0.06445 -0.785156,0 -1.245117,-0.457031 -0.457032,-0.457031 -0.457032,-1.236328 0,-0.8056641 0.433594,-1.2773438 0.436524,-0.4746094 1.174805,-0.4746094 0.662109,0 1.045898,0.4277344 0.386719,0.4248047 0.386719,1.1572268 z M 13.936523,10.303223 Q 13.930664,9.8608398 13.6875,9.597168 13.447266,9.3334961 13.048828,9.3334961 q -0.451172,0 -0.723633,0.2548828 -0.269531,0.2548828 -0.310547,0.7177731 z"
       id="path1074" />
    <path
       d="m 15.360352,7.6782227 h 0.539062 v 4.5585933 h -0.539062 z"
       id="path1076" />
  </g>
</svg>
