<?xml version="1.0" encoding="UTF-8" standalone="no"?>
<svg
   width="32"
   height="32"
   id="svg2"
   version="1.1"
   sodipodi:docname="text-org.svg"
   inkscape:version="1.2.1 (9c6d41e410, 2022-07-14)"
   xml:space="preserve"
   xmlns:inkscape="http://www.inkscape.org/namespaces/inkscape"
   xmlns:sodipodi="http://sodipodi.sourceforge.net/DTD/sodipodi-0.dtd"
   xmlns:xlink="http://www.w3.org/1999/xlink"
   xmlns="http://www.w3.org/2000/svg"
   xmlns:svg="http://www.w3.org/2000/svg"
   xmlns:rdf="http://www.w3.org/1999/02/22-rdf-syntax-ns#"
   xmlns:cc="http://creativecommons.org/ns#"
   xmlns:dc="http://purl.org/dc/elements/1.1/"><sodipodi:namedview
     pagecolor="#ffffff"
     bordercolor="#666666"
     borderopacity="1"
     objecttolerance="10"
     gridtolerance="10"
     guidetolerance="10"
     inkscape:pageopacity="0"
     inkscape:pageshadow="2"
     inkscape:window-width="1920"
     inkscape:window-height="1006"
     id="namedview47"
     showgrid="false"
     inkscape:zoom="14.75"
     inkscape:cx="-17.694915"
     inkscape:cy="12.711864"
     inkscape:window-x="0"
     inkscape:window-y="1237"
     inkscape:window-maximized="1"
     inkscape:current-layer="svg2"
     inkscape:document-rotation="0"
     inkscape:showpageshadow="2"
     inkscape:pagecheckerboard="0"
     inkscape:deskcolor="#d1d1d1" /><defs
     id="defs4"><inkscape:path-effect
       effect="fillet_chamfer"
       id="path-effect51"
       is_visible="true"
       lpeversion="1"
       satellites_param="F,0,0,1,0,2,0,10 @ F,0,0,1,0,2,0,10 @ F,0,0,1,0,2,0,10 @ F,0,0,1,0,2,0,10"
       unit="px"
       method="auto"
       mode="F"
       radius="2"
       chamfer_steps="10"
       flexible="false"
       use_knot_distance="true"
       apply_no_radius="true"
       apply_with_radius="true"
       only_selected="false"
       hide_knots="false"
       nodesatellites_param="F,0,0,1,0,2,0,10 @ F,0,0,1,0,2,0,10 @ F,0,0,1,0,2,0,10 @ F,0,0,1,0,2,0,10" /><inkscape:path-effect
       effect="fillet_chamfer"
       id="path-effect49"
       is_visible="true"
       lpeversion="1"
       satellites_param="F,0,0,1,0,2,0,10 @ F,0,0,1,0,2,0,10 @ F,0,0,1,0,2,0,10 @ F,0,0,1,0,2,0,10"
       unit="px"
       method="auto"
       mode="F"
       radius="2"
       chamfer_steps="10"
       flexible="false"
       use_knot_distance="true"
       apply_no_radius="true"
       apply_with_radius="true"
       only_selected="false"
       hide_knots="false"
       nodesatellites_param="F,0,0,1,0,2,0,10 @ F,0,0,1,0,2,0,10 @ F,0,0,1,0,2,0,10 @ F,0,0,1,0,2,0,10" /><linearGradient
       id="linearGradient902"><stop
         id="stop898"
         offset="0"
         style="stop-color:#770087;stop-opacity:1;" /><stop
         id="stop900"
         offset="1"
         style="stop-color:#452981;stop-opacity:1" /></linearGradient><linearGradient
       id="linearGradient899"><stop
         id="stop895"
         style="stop-color:#f282f1;stop-opacity:1"
         offset="0" /><stop
         id="stop897"
         style="stop-color:#a56de2;stop-opacity:1"
         offset="1" /></linearGradient><linearGradient
       id="linearGradient916"><stop
         id="stop912"
         style="stop-color:#ffffff;stop-opacity:1"
         offset="0" /><stop
         id="stop914"
         style="stop-color:#fafafa;stop-opacity:1"
         offset="1" /></linearGradient><linearGradient
       id="linearGradient3688-166-749-654"><stop
         id="stop3088"
         style="stop-color:#181818;stop-opacity:1"
         offset="0" /><stop
         id="stop3090"
         style="stop-color:#181818;stop-opacity:0"
         offset="1" /></linearGradient><linearGradient
       id="linearGradient3688-464-309-604"><stop
         id="stop3094"
         style="stop-color:#181818;stop-opacity:1"
         offset="0" /><stop
         id="stop3096"
         style="stop-color:#181818;stop-opacity:0"
         offset="1" /></linearGradient><linearGradient
       id="linearGradient3702-501-757-795"><stop
         id="stop3100"
         style="stop-color:#181818;stop-opacity:0"
         offset="0" /><stop
         id="stop3102"
         style="stop-color:#181818;stop-opacity:1"
         offset="0.5" /><stop
         id="stop3104"
         style="stop-color:#181818;stop-opacity:0"
         offset="1" /></linearGradient><radialGradient
       xlink:href="#linearGradient3688-166-749-654"
       id="radialGradient4730"
       gradientUnits="userSpaceOnUse"
       gradientTransform="matrix(3.2060542,2.6349059e-7,-8.2185947e-8,1.0000077,36.981009,15.99962)"
       cx="4.9964824"
       cy="43.5"
       fx="4.9964824"
       fy="43.5"
       r="2.5" /><radialGradient
       xlink:href="#linearGradient3688-464-309-604"
       id="radialGradient4732"
       gradientUnits="userSpaceOnUse"
       gradientTransform="matrix(3.163875,0,0,0.99999995,-29.702994,-103.00012)"
       cx="4.9929786"
       cy="43.5"
       fx="4.9929786"
       fy="43.5"
       r="2.5" /><linearGradient
       xlink:href="#linearGradient3702-501-757-795"
       id="linearGradient4734"
       gradientUnits="userSpaceOnUse"
       gradientTransform="matrix(1.3928572,0,0,0.71428561,-0.0214163,28.42862)"
       x1="25.058096"
       y1="47.027729"
       x2="25.058096"
       y2="39.999443" /><linearGradient
       gradientTransform="matrix(1.4324324,0,0,1.4362832,-7.3783796,-7.3995521)"
       gradientUnits="userSpaceOnUse"
       xlink:href="#linearGradient3924-2-2-5-8"
       id="linearGradient3381-5-4"
       y2="46.230125"
       x2="38.660378"
       y1="5.8481169"
       x1="38.660378" /><linearGradient
       id="linearGradient3924-2-2-5-8"><stop
         offset="0"
         style="stop-color:#ffffff;stop-opacity:1"
         id="stop3926-9-4-9-6" /><stop
         offset="0.06316455"
         style="stop-color:#ffffff;stop-opacity:0.23529412"
         id="stop3928-9-8-6-5" /><stop
         offset="0.95056331"
         style="stop-color:#ffffff;stop-opacity:0.15686275"
         id="stop3930-3-5-1-7" /><stop
         offset="1"
         style="stop-color:#ffffff;stop-opacity:0.39215687"
         id="stop3932-8-0-4-8" /></linearGradient><linearGradient
       gradientTransform="matrix(0.47054764,0,0,0.47457626,-60.688645,-0.1484071)"
       gradientUnits="userSpaceOnUse"
       xlink:href="#linearGradient916"
       id="linearGradient5809"
       y2="55.027"
       x2="161.97743"
       y1="10.027002"
       x1="161.97743" /><linearGradient
       y2="63.027"
       x2="161.97743"
       y1="5.1520023"
       x1="161.97743"
       gradientTransform="matrix(0.4705882,0,0,0.47457626,-60.695255,-0.1484071)"
       gradientUnits="userSpaceOnUse"
       id="linearGradient910"
       xlink:href="#linearGradient899" /><linearGradient
       gradientUnits="userSpaceOnUse"
       y2="60"
       x2="32"
       y1="0"
       x1="32"
       id="linearGradient904"
       xlink:href="#linearGradient902" /><linearGradient
       y2="63.027"
       x2="161.97743"
       y1="5.1520023"
       x1="161.97743"
       gradientTransform="matrix(0.94117646,0,0,0.94915254,-73.044014,10.801587)"
       gradientUnits="userSpaceOnUse"
       id="linearGradient910-3"
       xlink:href="#linearGradient899" /><linearGradient
       y2="63.027"
       x2="161.97743"
       y1="5.1520023"
       x1="161.97743"
       gradientTransform="matrix(0.47054764,0,0,0.47457626,-76.305129,-44.360347)"
       gradientUnits="userSpaceOnUse"
       id="linearGradient910-5"
       xlink:href="#linearGradient899" /><filter
       inkscape:collect="always"
       style="color-interpolation-filters:sRGB"
       id="filter1218"
       x="-0.00052002417"
       width="1.00104"
       y="-0.00044569657"
       height="1.0008914"><feGaussianBlur
         inkscape:collect="always"
         stdDeviation="0.0051997931"
         id="feGaussianBlur1220" /></filter></defs><metadata
     id="metadata7"><rdf:RDF><cc:Work
         rdf:about=""><dc:format>image/svg+xml</dc:format><dc:type
           rdf:resource="http://purl.org/dc/dcmitype/StillImage" /></cc:Work></rdf:RDF></metadata><path
     width="23.997931"
     height="28"
     rx="0"
     ry="0"
     x="4.0010357"
     y="2.7520487"
     id="rect4897-1"
     style="opacity:0.2;vector-effect:none;fill:#000000;fill-opacity:1;stroke:none;stroke-width:0.472558;stroke-linecap:butt;stroke-linejoin:miter;stroke-miterlimit:4;stroke-dasharray:none;stroke-dashoffset:0;stroke-opacity:1;filter:url(#filter1218)"
     inkscape:path-effect="#path-effect51"
     d="M 6.0010357,2.7520487 H 25.998966 a 2,2 45 0 1 2,2 V 28.752049 a 2,2 135 0 1 -2,2 H 6.0010357 a 2,2 45 0 1 -2,-2 V 4.7520487 a 2,2 135 0 1 2,-2 z"
     sodipodi:type="rect" /><path
     width="24"
     height="28"
     rx="0"
     ry="0"
     x="4"
     y="2"
     id="rect4897"
     style="opacity:1;vector-effect:none;fill:#eeeeee;fill-opacity:1;stroke:none;stroke-width:0.472578;stroke-linecap:butt;stroke-linejoin:miter;stroke-miterlimit:4;stroke-dasharray:none;stroke-dashoffset:0;stroke-opacity:1"
     inkscape:path-effect="#path-effect49"
     d="m 6,2 h 20 a 2,2 45 0 1 2,2 v 24 a 2,2 135 0 1 -2,2 H 6 A 2,2 45 0 1 4,28 V 4 A 2,2 135 0 1 6,2 Z"
     sodipodi:type="rect" /><g
     aria-label="Aa"
     id="text1723"
     style="font-style:normal;font-weight:normal;font-size:40px;line-height:1.25;font-family:sans-serif;fill:#000000;fill-opacity:1;stroke:none;opacity:0"
     transform="matrix(0.33382233,0,0,0.33382233,8.4975343,24.197799)"><path
       d="M 11.868958,-20.670654 6.517396,-6.1589355 h 10.722656 z m -2.226562,-3.886719 h 4.472656 L 25.228333,4.6027832 h -4.101562 l -2.65625,-7.4804687 H 5.3259897 l -2.65625,7.4804687 h -4.1601562 z"
       id="path1725" /><path
       d="m 39.271302,-6.3933105 q -4.355469,0 -6.035156,0.9960937 -1.679688,0.9960938 -1.679688,3.3984375 0,1.9140625 1.25,3.046875 1.269532,1.1132813 3.4375,1.1132813 2.988282,0 4.785157,-2.10937505 1.816406,-2.12890625 1.816406,-5.64453125 v -0.8007812 z m 7.167969,-1.484375 V 4.6027832 h -3.59375 V 1.2824707 q -1.230469,1.9921875 -3.066406,2.9492188 -1.835938,0.9375 -4.492188,0.9375 -3.359375,0 -5.351562,-1.875 -1.972657,-1.8945313 -1.972657,-5.0585938 0,-3.6914062 2.460938,-5.5664062 2.480469,-1.875 7.382812,-1.875 h 5.039063 V -9.557373 q 0,-2.480469 -1.640625,-3.828125 -1.621094,-1.367188 -4.570313,-1.367188 -1.875,0 -3.652343,0.449219 -1.777344,0.449219 -3.417969,1.347656 v -3.320312 q 1.972656,-0.761719 3.828125,-1.132813 1.855469,-0.390625 3.613281,-0.390625 4.746094,0 7.089844,2.460938 2.34375,2.460937 2.34375,7.4609375 z"
       id="path1727" /></g><g
     id="g344"
     transform="matrix(0.10028031,0,0,0.10028031,8.7311654,8.0006974)"><path
       fill="#a04d32"
       stroke="#000000"
       stroke-width="3"
       d="m 141.044,59.449 c -0.205,-3.15 -2.842,-4.366 -5.993,-2.125 -7.219,-1.297 -14.305,-0.687 -17.8,-0.981 -7.662,-1.073 -14.041,-5.128 -14.041,-5.128 0.932,-1.239 0.486,-3.917 -5.498,-4.101 -1.646,-0.542 -3.336,-1.327 -4.933,-1.979 0.544,-1.145 -0.133,-2.836 -0.133,-2.836 2.435,-0.672 2.808,-3.842 1.848,-5.709 3.106,0.084 2.612,-4.718 2.183,-6.381 2.435,-0.923 2.771,-3.831 1.763,-6.129 2.938,-0.671 3.022,-4.114 2.771,-6.548 3.022,-0.168 2.603,-5.457 2.603,-6.549 2.604,-1.679 2.016,-3.946 2.425,-6.573 1.605,-3.25 -0.577,-4.173 -2.116,-0.71 -1.651,3.001 -3.769,4.311 -3.75,6.528 0.755,1.259 -5.625,3.106 -3.61,7.052 -1.428,1.763 -4.785,4.03 -3.592,6.733 -0.606,1.326 -4.888,4.433 -3.041,7.371 -4.029,2.687 -3.789,3.335 -2.938,5.793 -1.147,0.736 -2.318,1.862 -2.995,3.094 -1.319,-1.568 -2.603,-4.429 -2.584,-8.294 0,-3.275 -6.099,0.318 -6.099,6.784 0,0.556 -0.057,1.061 -0.135,1.542 -2.11,0.243 -4.751,0.707 -8.08,1.494 -0.106,0.073 -0.157,0.186 -0.182,0.316 C 66.986,41.628 66.886,41.112 66.84,40.56 66.258,36.77 61.906,31 59.783,38.126 c -1.096,2.611 -1.74,4.392 -2.115,5.789 v 0 c 0,0 -0.336,0.226 -0.957,0.61 -2.619,1.622 -3.562,6.686 -13.075,9.883 -3.211,1.079 -7.4,1.945 -12.959,2.395 -9.57,0.773 -27.888,17.314 -29.115,33.097 -0.283,3.964 0.31,13.737 3.596,22.31 0.002,0.006 0.003,0.014 0.005,0.02 0.015,0.042 0.032,0.081 0.048,0.122 0.052,0.134 0.103,0.267 0.156,0.398 0.28,0.718 0.579,1.405 0.895,2.062 1.885,4.028 4.46,7.59 7.934,9.882 1.764,1.376 3.342,2.258 4.372,2.762 5.907,9.749 18.442,22.252 42.075,14.859 36.255,-10.284 56.263,13.809 58.568,15.5 3.399,3.433 -8.786,-29.835 -34.587,-44.788 -15.253,-8.322 -5.678,-22.656 -4.585,-27.718 0,0 12.227,8.557 21.087,-4.52 8.004,2.062 13.367,-1.462 20.251,1.03 4.183,1.833 21.77,0.726 15.234,-9.104 4.11,-2.683 4.544,-1.815 6.6,-5.9 1.104,-4.952 -1.403,-6.012 -2.167,-7.366 z M 70.751,46.15 c -0.041,0.018 -0.086,0.04 -0.125,0.056 0.039,-0.034 0.075,-0.062 0.115,-0.102 0.003,0.014 0.007,0.032 0.01,0.046 z m -13.413,4.523 c -0.073,0.429 -0.143,0.829 -0.212,1.216 0.037,-0.832 0.085,-1.714 0.143,-2.646 0.024,0.435 0.05,0.904 0.069,1.43 z M 68.031,44.34 c 0.746,1.124 1.662,2.179 1.662,2.179 0,0 -0.875,-0.79 -1.662,-2.179 z"
       id="path280" /><path
       fill="#77aa99"
       stroke="#000000"
       stroke-width="0.5"
       d="m 14.093,117.635 c 0,0 10.021,36.105 46.549,24.68 36.255,-10.284 56.263,13.809 58.568,15.5 3.399,3.433 -8.786,-29.835 -34.587,-44.788 -15.253,-8.322 -5.678,-22.656 -4.585,-27.718 0,0 12.227,8.557 21.087,-4.52 8.004,2.062 13.367,-1.462 20.251,1.03 4.183,1.833 21.77,0.726 15.234,-9.104 4.11,-2.683 4.544,-1.815 6.6,-5.9 1.105,-4.952 -1.402,-6.011 -2.166,-7.366 -0.205,-3.15 -2.842,-4.366 -5.993,-2.125 -7.219,-1.297 -14.305,-0.687 -17.8,-0.981 -7.662,-1.073 -14.041,-5.128 -14.041,-5.128 0.932,-1.239 0.486,-3.917 -5.498,-4.101 -3.287,-1.082 -6.752,-3.136 -9.288,-3.162 -2.567,0 -2.914,-2.537 -2.914,-2.537 -1.606,-0.87 -3.924,-4.252 -3.899,-9.438 0,-3.275 -6.099,0.318 -6.099,6.784 0,6.466 -5.818,7.758 -5.818,7.758 0,0 -2.549,-2.281 -2.855,-5.958 -0.582,-3.79 -4.934,-9.56 -7.057,-2.434 -3.226,7.646 -3.485,9.43 -4.115,13.154 -1.31,7.711 -0.345,8.012 -0.345,8.012 l -32.824,23.43 z"
       id="path282" /><path
       fill="#314b49"
       stroke="#314b49"
       stroke-width="0.75"
       stroke-linecap="round"
       stroke-linejoin="round"
       d="m 91.756,56.215 c 1.548,-0.562 0.896,-0.415 1.152,-0.581 -2.959,0.575 -9.635,0.614 -14.317,-1.133 0.392,0.23 2.568,0.962 2.845,1.128 0.218,0.715 0.1,1.438 2.932,2.709 2.559,0.793 5.845,0.461 6.835,-0.529 0.109,-1.684 0.126,-1.065 0.553,-1.594 z"
       id="path284" /><path
       fill="#314b49"
       stroke="#314b49"
       stroke-width="0.5"
       d="m 124.124,75.361 c -2.829,-2.085 -4.881,-0.264 -6.469,-0.413 0.99,-0.645 3.762,-2.062 8.245,-2.062 2.532,0 3.879,2.196 5.57,2.207 1.141,0.007 4.472,-1.71 5.14,-2.378 -0.969,0.838 0.454,1.755 -0.489,3.003 -0.282,0.359 -0.837,1.511 -2.663,2.051 -2.05,0.971 -5.411,1.762 -9.334,-2.408 z"
       id="path286" /><path
       fill="#314b49"
       d="m 62.577,37.415 c 0,0 -3.355,7.996 0.312,15.329 3.667,7.333 0.522,-6.829 4.688,-4.162 3.397,0.385 -2.387,-3.215 -2.033,-7.819 -0.176,-2.892 -1.77,-5.194 -2.967,-3.348 z"
       id="path288" /><path
       fill="#314b49"
       d="m 126.981,63.799 c 0,1.121 -1.363,2.03 -3.045,2.03 3.573,-1.121 -0.201,-4.653 -3.045,-2.03 0,-1.121 1.363,-2.03 3.045,-2.03 1.682,0 3.045,0.909 3.045,2.03 z"
       id="path290" /><path
       fill="#314b49"
       d="m 121.814,61.215 c 3.772,-0.231 6.336,0.323 5.536,3.138 0.548,-1.126 1.292,-2.83 -1.046,-3.507 -1.746,-0.388 -3.299,-0.378 -4.49,0.369 z"
       id="path292" /><path
       fill="#a04d32"
       stroke="#000000"
       stroke-width="0.5"
       d="m 67.574,82.616 c 0,-3.521 -1.509,-7.166 -7.04,-14.583 -1.635,-2.192 -2.62,-4.336 -3.211,-6.275 -1.401,-3.295 -3.426,-8.019 -0.613,-17.233 0,0 0.621,-0.384 0,0 -2.619,1.622 -3.562,6.686 -13.075,9.883 -3.211,1.079 -7.4,1.945 -12.959,2.395 C 21.107,57.576 2.789,74.117 1.562,89.9 c -0.283,3.964 0.31,13.737 3.596,22.31 0.002,0.006 0.003,0.014 0.005,0.02 0.015,0.042 0.032,0.081 0.048,0.122 0.052,0.134 0.103,0.267 0.156,0.398 0.28,0.718 0.579,1.405 0.895,2.062 1.885,4.028 4.46,7.59 7.934,9.882 3.084,2.404 5.606,3.306 5.606,3.306 -2.588,-3.578 -3.77,-7.562 -2.263,-12.32 0.651,2.637 1.903,4.162 3.646,4.777 -0.615,-1.884 -0.827,-3.549 0,-4.651 2.567,6.734 5.353,9.031 8.171,10.686 -2.631,-4.914 -4.032,-10.005 -3.771,-15.337 2.569,6.028 6.596,9.945 10.56,13.954 -3.78,-5.966 -6.911,-12.104 -6.977,-19.046 1.693,2.778 3.935,4.932 6.6,6.601 -1.683,-2.709 -2.505,-5.51 -2.263,-8.423 4.424,4.945 9.361,6.607 14.332,8.046 -5.197,-3.625 -9.843,-7.537 -12.32,-12.572 2.972,1.464 5.948,1.693 8.926,1.383 -3.706,-1.872 -5.069,-5.252 -5.783,-9.052 5.177,5.279 10.587,8.827 16.091,11.692 -5.456,-5.26 -9.479,-10.65 -11.566,-16.218 2.1,1.18 4.157,1.736 6.16,1.509 -2.766,-3.124 -3.465,-6.182 -4.211,-9.241 2.637,3.916 4.959,6.022 7.103,7.103 -2.189,-4.482 -2.034,-8.432 -0.503,-12.068 2.524,1.675 4.902,4.295 6.915,9.303 0.731,-2.386 -0.447,-6.364 -1.886,-10.56 2.175,0.622 4.779,3.351 8.171,9.932 -0.33,-3.865 -2.139,-7.775 -4.148,-11.692 3.027,3.51 7.557,12.713 6.788,10.81 z"
       id="path294" /><path
       fill="#796958"
       stroke="#000000"
       stroke-width="0.5"
       d="m 83.915,43.558 c 0,0 -0.252,7.472 6.717,2.603 3.61,0.084 2.015,-3.862 2.015,-3.862 2.435,-0.672 2.808,-3.842 1.848,-5.709 3.106,0.084 2.612,-4.718 2.183,-6.381 2.435,-0.923 2.771,-3.831 1.763,-6.129 2.938,-0.671 3.022,-4.114 2.771,-6.548 3.022,-0.168 2.603,-5.457 2.603,-6.549 2.604,-1.679 2.016,-3.946 2.425,-6.573 1.605,-3.25 -0.577,-4.173 -2.116,-0.71 -1.651,3.001 -3.769,4.311 -3.75,6.528 0.755,1.259 -5.625,3.106 -3.61,7.052 -1.428,1.763 -4.785,4.03 -3.592,6.733 -0.606,1.326 -4.888,4.433 -3.041,7.371 -4.029,2.687 -3.789,3.335 -2.938,5.793 -2.155,1.38 -4.409,4.131 -3.278,6.381 z"
       id="path296" /><path
       fill="#ffffff"
       d="m 101.739,8.295 c 0,0 -0.735,1.324 -0.735,2.133 0,0.809 2.185,0.568 2.927,-0.227 -1.625,0.024 -2.965,0.289 -2.192,-1.906 z"
       id="path298" /><path
       fill="#ffffff"
       d="m 97.478,14.565 c 0,0 -0.812,1.068 -0.183,2.316 0.392,0.98 2.807,0.962 3.549,0.167 -1.625,0.024 -4.14,-0.287 -3.366,-2.483 z"
       id="path300" /><path
       fill="#ffffff"
       d="m 94.343,21.02 c 0,0 -0.998,1.346 -0.492,2.602 0,0.809 2.838,0.956 3.58,0.161 -1.625,0.022 -3.645,-0.489 -3.088,-2.763 z"
       id="path302" /><path
       fill="#ffffff"
       d="m 91.266,28.182 c 0,0 -1.403,1.542 -0.149,2.945 1.438,0.809 3.744,0.049 4.486,-0.746 -1.625,0.022 -4.894,0.076 -4.337,-2.199 z"
       id="path304" /><path
       fill="#ffffff"
       d="m 88.261,33.903 c 0,0 -1.575,1.414 -0.02,3.312 1.438,0.809 4.57,0.198 5.312,-0.597 -1.624,0.024 -5.989,-1.346 -5.292,-2.715 z"
       id="path306" /><path
       fill="#ffffff"
       d="m 85.114,40.644 c 0,0 -1.403,1.542 -0.149,2.945 1.438,0.809 6.036,-0.186 6.778,-0.981 -1.625,0.023 -7.185,0.311 -6.629,-1.964 z"
       id="path308" /><path
       fill="#a04d32"
       stroke="#000000"
       stroke-width="0.5"
       d="m 83.997,43.672 c -0.45,-0.45 -0.534,-0.896 -0.367,-1.718 0,0 0.369,-4.107 -16.333,-0.158 -1.072,0.74 2.396,4.722 2.396,4.722 0,0 0.418,0.215 1.047,-0.415 0.253,1.123 0.852,4.081 0.233,4.579 1.245,-0.771 1.868,-1.946 1.676,-4.125 2.122,0.461 3.742,1.64 4.692,3.779 0.304,-1.4 0.603,-2.799 -0.384,-4.126 2.182,0.285 3.88,1.496 5.362,3.124 0.221,-0.933 0.354,-1.883 0,-2.931 1.391,0.473 2.587,1.607 3.71,2.988 0.001,0 0.211,-3.862 -2.032,-5.719 z"
       id="path310" /><path
       opacity="0.26"
       d="m 67.975,71.318 c 0,0 6.761,13.59 17.595,13.991 10.834,0.401 10.834,-2.73 10.834,-2.73 0,0 -15.527,3.048 -28.429,-11.261 z"
       id="path312" /><path
       opacity="0.26"
       d="m 71.13,79.012 c 2.279,3.104 4.856,5.221 7.722,6.382 0,0 -7.365,11.108 -3.611,20.023 3.754,8.915 13.125,11.053 23.321,21.249 7.942,7.942 17.158,24.961 17.158,24.961 0,0 -17.834,-14.176 -29.42,-13.479 0,0 -2.687,-9.668 -10.585,-17.566 C 64.471,109.337 59.547,94.707 71.13,79.012 Z"
       id="path314" /><path
       opacity="0.18"
       fill="#ffffff"
       d="M 52.362,51.627 C 48.488,54.128 43.943,58.723 27.947,59.71 10.898,66.494 0.514,86.395 4.17,100.174 c 1.348,7.317 3.891,14.18 3.891,14.18 -0.887,-5.919 -1.383,-11.397 1.033,-13.599 1.435,2.384 2.969,2.468 4.507,2.479 -1.59,-2.404 -1.788,-4.808 0,-7.212 1.489,1.525 2.992,1.881 4.507,1.353 -2.128,-2.449 -1.867,-4.848 0,-7.211 1.388,5.022 4.462,7.453 7.662,9.689 -2.208,-4.333 -4.166,-8.672 -2.93,-13.07 1.323,0.729 2.595,0.644 3.831,0 -1.257,-1.576 -0.925,-3.153 0,-4.732 2.947,3.04 6.213,3.724 9.465,4.507 -2.661,-2.454 -5.543,-4.527 -6.761,-9.465 1.501,-1.811 3.269,-2.685 5.408,-2.253 -1.901,-1.167 -1.65,-2.543 0,-4.057 2.089,1.104 4.195,1.352 6.31,1.127 -2.807,-1.68 -8.424,-4.994 11.269,-20.283 z"
       id="path316" /><path
       opacity="0.27"
       fill="#ffffff"
       d="m 78.923,32.771 c 0.996,-0.963 1.146,-0.65 0.854,0.285 -0.982,2.36 0.353,4.647 0.797,6.206 l -3.871,0.114 c 0.108,-2.271 0.247,-4.794 2.22,-6.605 z"
       id="path318" /></g></svg>
