<?xml version="1.0" encoding="UTF-8" standalone="no"?>
<svg
   inkscape:version="1.2.1 (9c6d41e410, 2022-07-14)"
   sodipodi:docname="x-office-chart.svg"
   id="svg6314"
   version="1"
   height="32"
   width="32"
   xml:space="preserve"
   xmlns:inkscape="http://www.inkscape.org/namespaces/inkscape"
   xmlns:sodipodi="http://sodipodi.sourceforge.net/DTD/sodipodi-0.dtd"
   xmlns="http://www.w3.org/2000/svg"
   xmlns:svg="http://www.w3.org/2000/svg"
   xmlns:rdf="http://www.w3.org/1999/02/22-rdf-syntax-ns#"
   xmlns:cc="http://creativecommons.org/ns#"
   xmlns:dc="http://purl.org/dc/elements/1.1/"><metadata
     id="metadata6320"><rdf:RDF><cc:Work
         rdf:about=""><dc:format>image/svg+xml</dc:format><dc:type
           rdf:resource="http://purl.org/dc/dcmitype/StillImage" /></cc:Work></rdf:RDF></metadata><defs
     id="defs6318"><rect
       x="-23.595891"
       y="10.740565"
       width="8.9203178"
       height="6.9785362"
       id="rect936" /><inkscape:path-effect
       effect="fillet_chamfer"
       id="path-effect16"
       is_visible="true"
       lpeversion="1"
       satellites_param="F,0,0,1,0,2,0,10 @ F,0,0,1,0,2,0,10 @ F,0,0,1,0,2,0,10 @ F,0,0,1,0,2,0,10"
       unit="px"
       method="auto"
       mode="F"
       radius="2"
       chamfer_steps="10"
       flexible="false"
       use_knot_distance="true"
       apply_no_radius="true"
       apply_with_radius="true"
       only_selected="false"
       hide_knots="false"
       nodesatellites_param="F,0,0,1,0,2,0,10 @ F,0,0,1,0,2,0,10 @ F,0,0,1,0,2,0,10 @ F,0,0,1,0,2,0,10" /><inkscape:path-effect
       effect="fillet_chamfer"
       id="path-effect14"
       is_visible="true"
       lpeversion="1"
       satellites_param="F,0,0,1,0,2,0,10 @ F,0,0,1,0,2,0,10 @ F,0,0,1,0,2,0,10 @ F,0,0,1,0,2,0,10 @ F,0,0,1,0,2,0,10"
       unit="px"
       method="auto"
       mode="F"
       radius="2"
       chamfer_steps="10"
       flexible="false"
       use_knot_distance="true"
       apply_no_radius="true"
       apply_with_radius="true"
       only_selected="false"
       hide_knots="false"
       nodesatellites_param="F,0,0,1,0,2,0,10 @ F,0,0,1,0,2,0,10 @ F,0,0,1,0,2,0,10 @ F,0,0,1,0,2,0,10 @ F,0,0,1,0,2,0,10" /><inkscape:path-effect
       effect="fillet_chamfer"
       id="path-effect12"
       is_visible="true"
       lpeversion="1"
       satellites_param="F,0,0,1,0,2,0,10 @ F,0,0,1,0,2,0,10 @ F,0,0,1,0,2,0,10 @ F,0,0,1,0,2,0,10"
       unit="px"
       method="auto"
       mode="F"
       radius="2"
       chamfer_steps="10"
       flexible="false"
       use_knot_distance="true"
       apply_no_radius="true"
       apply_with_radius="true"
       only_selected="false"
       hide_knots="false"
       nodesatellites_param="F,0,0,1,0,2,0,10 @ F,0,0,1,0,2,0,10 @ F,0,0,1,0,2,0,10 @ F,0,0,1,0,2,0,10" /><clipPath
       id="clipPath4157"
       clipPathUnits="userSpaceOnUse"><path
         style="fill:#f9f8f2;fill-opacity:1;stroke-width:1.00658333"
         inkscape:connector-curvature="0"
         id="path4159"
         d="m 27.642964,3.2951379 13.085584,13.0855841 -11.072418,0 c -0.977824,0 -2.013166,-1.035372 -2.013166,-2.013167 l 0,-11.0724171 z" /></clipPath></defs><sodipodi:namedview
     inkscape:document-rotation="0"
     inkscape:current-layer="svg6314"
     inkscape:window-maximized="1"
     inkscape:window-y="1237"
     inkscape:window-x="0"
     inkscape:cy="7.5130092"
     inkscape:cx="-15.556348"
     inkscape:zoom="5.6568545"
     showgrid="false"
     id="namedview6316"
     inkscape:window-height="1006"
     inkscape:window-width="1920"
     inkscape:pageshadow="2"
     inkscape:pageopacity="0"
     guidetolerance="10"
     gridtolerance="10"
     objecttolerance="10"
     borderopacity="1"
     bordercolor="#666666"
     pagecolor="#ffffff"
     inkscape:showpageshadow="2"
     inkscape:pagecheckerboard="0"
     inkscape:deskcolor="#d1d1d1" /><text
     xml:space="preserve"
     id="text934"
     style="font-size:6.66667px;font-family:sans-serif;-inkscape-font-specification:sans-serif;white-space:pre;shape-inside:url(#rect936);opacity:0.5;fill:#0088aa;fill-opacity:1;stroke-width:0.267" /><g
     id="g670"><path
       id="rect5540-8"
       d="m 4,5 v 24 a 2,2 45 0 0 2,2 l 20,0 a 2,2 135 0 0 2,-2 V 12 A 4.6024379,4.6024379 66.512533 0 0 26.537889,8.6353635 L 21.962111,4.3646365 A 5.0740406,5.0740406 21.512533 0 0 18.5,3 H 6 A 2,2 135 0 0 4,5 Z"
       style="opacity:0.2;fill:#000000;fill-opacity:1;stroke:none;stroke-width:1.12688565"
       inkscape:connector-curvature="0"
       inkscape:path-effect="#path-effect14"
       inkscape:original-d="M 4,3 V 31 H 28 V 10 L 20.5,3 Z" /><path
       transform="scale(1,-1)"
       style="opacity:1;fill:#eeeeee;fill-opacity:1;stroke:none;stroke-width:0.472578;stroke-linecap:butt;stroke-linejoin:miter;stroke-miterlimit:4;stroke-dasharray:none;stroke-dashoffset:0;stroke-opacity:1"
       id="rect4897"
       y="-30"
       x="4"
       ry="0"
       rx="0"
       height="28"
       width="24"
       inkscape:path-effect="#path-effect12"
       d="m 6,-30 h 20 a 2,2 45 0 1 2,2 v 24 a 2,2 135 0 1 -2,2 H 6 A 2,2 45 0 1 4,-4 v -24 a 2,2 135 0 1 2,-2 z"
       sodipodi:type="rect" /><path
       y="6"
       x="6"
       height="8"
       width="8"
       id="rect7379"
       style="opacity:1;fill:#0066ff;fill-opacity:1;stroke:none;stroke-width:0.285497"
       inkscape:path-effect="#path-effect16"
       d="m 8,6 h 4 a 2,2 45 0 1 2,2 v 4 a 2,2 135 0 1 -2,2 H 8 A 2,2 45 0 1 6,12 V 8 A 2,2 135 0 1 8,6 Z"
       sodipodi:type="rect" /><g
       aria-label="C"
       id="text1147"
       style="font-weight:bold;font-size:6.6568px;font-family:'Source Code Pro';-inkscape-font-specification:'Source Code Pro Bold';fill:#ffffff;stroke-width:0.266605"><path
         d="m 10.292899,12.249998 c 0.585799,0 1.071745,-0.219674 1.424555,-0.639053 l -0.5392,-0.592455 c -0.213018,0.232988 -0.472633,0.386094 -0.785503,0.386094 -0.6523661,0 -1.1050285,-0.51923 -1.1050285,-1.4112411 0,-0.8720408 0.4526624,-1.397928 1.0650875,-1.397928 0.319527,0 0.552515,0.1264792 0.758876,0.3128696 l 0.5392,-0.6057688 C 11.357987,8.0162734 10.905325,7.7500014 10.35281,7.7500014 c -1.1582827,0 -2.0702643,0.8387567 -2.0702643,2.2766256 0,1.457839 0.931952,2.223371 2.0103533,2.223371 z"
         id="path4779" /></g><path
       d="m 16.666667,27.666667 v -8 h 2 v 8 z"
       id="path16"
       inkscape:connector-curvature="0"
       style="font-weight:bold;font-size:6.13079px;-inkscape-font-specification:'sans-serif Bold';fill:#80b3ff;fill-opacity:1;stroke-width:0.163692" /><path
       d="M 13.333333,27.666667 V 17 h 2 v 10.666667 z"
       id="path18"
       inkscape:connector-curvature="0"
       style="font-weight:bold;font-size:6.13079px;-inkscape-font-specification:'sans-serif Bold';fill:#0066ff;fill-opacity:1;stroke-width:0.163692" /><path
       d="m 10,27.666667 v -6 h 2 v 6 z"
       id="path20"
       inkscape:connector-curvature="0"
       style="font-weight:bold;font-size:6.13079px;-inkscape-font-specification:'sans-serif Bold';fill:#80b3ff;fill-opacity:1;stroke-width:0.163692" /><path
       d="M 20,27.666667 V 25 h 2 v 2.666667 z"
       id="path22"
       inkscape:connector-curvature="0"
       style="font-weight:bold;font-size:6.13079px;-inkscape-font-specification:'sans-serif Bold';fill:#80b3ff;fill-opacity:1;stroke-width:0.163692" /></g><g
     transform="matrix(0.70553334,0,0,0.62994667,-8e-8,6.3333333)"
     id="g24"
     style="font-weight:bold;font-size:6.13079px;-inkscape-font-specification:'sans-serif Bold';fill:#80b3ff;fill-opacity:1;stroke-width:0.245538" /></svg>
