<?xml version="1.0" encoding="UTF-8" standalone="no"?>
<svg
   inkscape:version="1.2.1 (9c6d41e410, 2022-07-14)"
   sodipodi:docname="x-office-graphics.svg"
   id="svg6314"
   version="1"
   height="32"
   width="32"
   xml:space="preserve"
   xmlns:inkscape="http://www.inkscape.org/namespaces/inkscape"
   xmlns:sodipodi="http://sodipodi.sourceforge.net/DTD/sodipodi-0.dtd"
   xmlns="http://www.w3.org/2000/svg"
   xmlns:svg="http://www.w3.org/2000/svg"
   xmlns:rdf="http://www.w3.org/1999/02/22-rdf-syntax-ns#"
   xmlns:cc="http://creativecommons.org/ns#"
   xmlns:dc="http://purl.org/dc/elements/1.1/"><metadata
     id="metadata6320"><rdf:RDF><cc:Work
         rdf:about=""><dc:format>image/svg+xml</dc:format><dc:type
           rdf:resource="http://purl.org/dc/dcmitype/StillImage" /></cc:Work></rdf:RDF></metadata><defs
     id="defs6318"><inkscape:path-effect
       effect="fillet_chamfer"
       id="path-effect16"
       is_visible="true"
       lpeversion="1"
       satellites_param="F,0,0,1,0,2,0,10 @ F,0,0,1,0,2,0,10 @ F,0,0,1,0,2,0,10 @ F,0,0,1,0,2,0,10"
       unit="px"
       method="auto"
       mode="F"
       radius="2"
       chamfer_steps="10"
       flexible="false"
       use_knot_distance="true"
       apply_no_radius="true"
       apply_with_radius="true"
       only_selected="false"
       hide_knots="false"
       nodesatellites_param="F,0,0,1,0,2,0,10 @ F,0,0,1,0,2,0,10 @ F,0,0,1,0,2,0,10 @ F,0,0,1,0,2,0,10" /><inkscape:path-effect
       effect="fillet_chamfer"
       id="path-effect14"
       is_visible="true"
       lpeversion="1"
       satellites_param="F,0,0,1,0,2,0,10 @ F,0,0,1,0,2,0,10 @ F,0,0,1,0,2,0,10 @ F,0,0,1,0,2,0,10 @ F,0,0,1,0,2,0,10"
       unit="px"
       method="auto"
       mode="F"
       radius="2"
       chamfer_steps="10"
       flexible="false"
       use_knot_distance="true"
       apply_no_radius="true"
       apply_with_radius="true"
       only_selected="false"
       hide_knots="false"
       nodesatellites_param="F,0,0,1,0,2,0,10 @ F,0,0,1,0,2,0,10 @ F,0,0,1,0,2,0,10 @ F,0,0,1,0,2,0,10 @ F,0,0,1,0,2,0,10" /><inkscape:path-effect
       effect="fillet_chamfer"
       id="path-effect12"
       is_visible="true"
       lpeversion="1"
       satellites_param="F,0,0,1,0,2,0,10 @ F,0,0,1,0,2,0,10 @ F,0,0,1,0,2,0,10 @ F,0,0,1,0,2,0,10"
       unit="px"
       method="auto"
       mode="F"
       radius="2"
       chamfer_steps="10"
       flexible="false"
       use_knot_distance="true"
       apply_no_radius="true"
       apply_with_radius="true"
       only_selected="false"
       hide_knots="false"
       nodesatellites_param="F,0,0,1,0,2,0,10 @ F,0,0,1,0,2,0,10 @ F,0,0,1,0,2,0,10 @ F,0,0,1,0,2,0,10" /></defs><sodipodi:namedview
     inkscape:document-rotation="0"
     inkscape:current-layer="svg6314"
     inkscape:window-maximized="1"
     inkscape:window-y="1237"
     inkscape:window-x="0"
     inkscape:cy="18.127119"
     inkscape:cx="5.9491527"
     inkscape:zoom="19.666666"
     showgrid="false"
     id="namedview6316"
     inkscape:window-height="1006"
     inkscape:window-width="1920"
     inkscape:pageshadow="2"
     inkscape:pageopacity="0"
     guidetolerance="10"
     gridtolerance="10"
     objecttolerance="10"
     borderopacity="1"
     bordercolor="#666666"
     pagecolor="#ffffff"
     inkscape:showpageshadow="2"
     inkscape:pagecheckerboard="0"
     inkscape:deskcolor="#d1d1d1" /><path
     id="rect5540-8"
     d="m 4,5 v 24 a 2,2 45 0 0 2,2 l 20,0 a 2,2 135 0 0 2,-2 V 12 A 4.6024379,4.6024379 66.512533 0 0 26.537889,8.6353635 L 21.962111,4.3646365 A 5.0740406,5.0740406 21.512533 0 0 18.5,3 H 6 A 2,2 135 0 0 4,5 Z"
     style="opacity:0.2;fill:#000000;fill-opacity:1;stroke:none;stroke-width:1.12688565"
     inkscape:connector-curvature="0"
     inkscape:path-effect="#path-effect14"
     inkscape:original-d="M 4,3 V 31 H 28 V 10 L 20.5,3 Z" /><path
     transform="scale(1,-1)"
     style="opacity:1;vector-effect:none;fill:#eeeeee;fill-opacity:1;stroke:none;stroke-width:0.472578;stroke-linecap:butt;stroke-linejoin:miter;stroke-miterlimit:4;stroke-dasharray:none;stroke-dashoffset:0;stroke-opacity:1"
     id="rect4897"
     y="-30"
     x="4"
     ry="0"
     rx="0"
     height="28"
     width="24"
     inkscape:path-effect="#path-effect12"
     d="m 6,-30 h 20 a 2,2 45 0 1 2,2 v 24 a 2,2 135 0 1 -2,2 H 6 A 2,2 45 0 1 4,-4 v -24 a 2,2 135 0 1 2,-2 z"
     sodipodi:type="rect" /><path
     y="6"
     x="6"
     height="8"
     width="8"
     id="rect7379"
     style="opacity:1;fill:#fcb100;fill-opacity:1;stroke:none;stroke-width:0.285497"
     inkscape:path-effect="#path-effect16"
     d="m 8,6 h 4 a 2,2 45 0 1 2,2 v 4 a 2,2 135 0 1 -2,2 H 8 A 2,2 45 0 1 6,12 V 8 A 2,2 135 0 1 8,6 Z"
     sodipodi:type="rect" /><g
     aria-label="G"
     id="text296"
     style="font-weight:bold;font-size:6.13079px;-inkscape-font-specification:'sans-serif Bold';fill:#ffffff;stroke-width:0.245538"
     transform="translate(26.194337,-2.924815)"><path
       d="m -16.232708,12.655058 h 1.735014 v 2.268393 q -0.343324,0.116485 -0.717302,0.183924 -0.367848,0.06744 -0.839919,0.06744 -0.980926,0 -1.508174,-0.576294 -0.527248,-0.576294 -0.527248,-1.679837 0,-0.686648 0.263624,-1.189373 0.269755,-0.502725 0.77861,-0.77861 0.508856,-0.275886 1.244551,-0.275886 0.349455,0 0.686648,0.07357 0.337194,0.07357 0.613079,0.196185 l -0.306539,0.741826 q -0.202316,-0.104224 -0.45981,-0.171663 -0.257493,-0.06744 -0.539509,-0.06744 -0.404632,0 -0.705041,0.183924 -0.294278,0.183923 -0.459809,0.521117 -0.159401,0.331062 -0.159401,0.784741 0,0.429155 0.116485,0.760218 0.116485,0.331062 0.367848,0.521117 0.251362,0.183924 0.655994,0.183924 0.196186,0 0.331063,-0.01839 0.141008,-0.01839 0.257493,-0.04292 v -0.913488 h -0.827657 z"
       id="path352" /></g><path
     style="color:#000000;opacity:0.7;fill:#ce9002;fill-opacity:1;stroke-linecap:square;-inkscape-stroke:none"
     d="m 20.655286,17.10464 c -0.327973,-0.110876 -0.778463,-0.187468 -1.222656,0.05859 -0.663646,0.369144 -0.909805,1.134476 -0.910157,1.736328 -3.52e-4,0.601852 0.144629,1.175394 0.267578,1.712891 0.12295,0.537497 0.223651,1.040293 0.220704,1.339844 -0.0029,0.29955 0.0087,0.258036 -0.08008,0.302734 -0.119496,0.06015 -0.133434,0.04764 -0.166015,0.04102 -0.03258,-0.0066 -0.110833,-0.03784 -0.234375,-0.144532 -0.247084,-0.213377 -0.599623,-0.702471 -1.003906,-1.25 -0.404284,-0.547528 -0.876557,-1.162025 -1.550782,-1.617187 -0.674225,-0.455162 -1.594909,-0.703592 -2.599609,-0.474609 l -0.01563,0.0039 -0.01563,0.0039 c -0.715339,0.193912 -1.224585,0.732862 -1.5625,1.341797 -0.335407,0.604414 -0.530786,1.311801 -0.628906,2.05664 -0.08069,-0.0031 -0.149516,-0.03339 -0.230469,-0.03516 l -1.021484,-0.02344 -0.794922,-0.01758 -0.03516,1.591796 0.794922,0.01758 1.021485,0.02148 c 0.09975,0.0022 0.172645,0.03637 0.271484,0.04102 0.05876,1.01239 0.241609,2.00799 0.746094,2.824218 l 0.01563,0.02539 0.01758,0.02344 c 0.879193,1.211136 2.362906,1.579498 3.525391,1.126954 0.581242,-0.226273 1.110753,-0.728277 1.269531,-1.414063 0.158778,-0.685785 -0.0407,-1.44169 -0.53125,-2.203125 -0.501585,-0.778553 -1.327549,-1.246059 -2.248047,-1.548828 -0.372443,-0.122503 -0.820032,-0.115171 -1.226563,-0.1875 8.75e-4,-0.007 -9e-4,-0.01454 0,-0.02148 0.07738,-0.596884 0.241365,-1.138339 0.445313,-1.50586 0.199849,-0.360135 0.405912,-0.513595 0.578125,-0.564453 0.589278,-0.128724 0.94647,-0.02332 1.333984,0.238281 0.393209,0.265451 0.780927,0.72859 1.160157,1.242188 0.379229,0.513597 0.733168,1.068499 1.24414,1.509765 0.255486,0.220634 0.568486,0.420987 0.957031,0.5 0.388546,0.07901 0.825136,0.0096 1.201172,-0.179687 0.676713,-0.340585 0.949176,-1.109067 0.955078,-1.708984 0.0059,-0.599918 -0.136568,-1.170406 -0.259765,-1.708985 -0.123197,-0.538579 -0.228699,-1.046119 -0.228516,-1.359375 1.41e-4,-0.240644 0.03032,-0.235254 0.07031,-0.265625 0.106614,0.04145 0.26046,0.118967 0.417968,0.226563 0.344555,0.235369 0.644532,0.52539 0.644532,0.52539 l 0.568359,0.556641 1.113281,-1.136719 -0.568359,-0.55664 c 0,0 -0.371972,-0.370175 -0.859375,-0.703125 -0.243702,-0.166476 -0.517208,-0.330354 -0.845703,-0.441407 z m -7.898438,6.949219 c 0.220262,0.04847 0.505001,0.04159 0.699219,0.105469 0.713451,0.234668 1.198016,0.570234 1.408203,0.896484 0.339765,0.527388 0.350543,0.843416 0.31836,0.982422 -0.03218,0.139006 -0.09627,0.213681 -0.294922,0.291016 -0.392678,0.152866 -1.194851,0.0266 -1.640625,-0.564453 -0.253474,-0.423562 -0.408008,-1.040403 -0.490235,-1.710938 z"
     id="path1282" /></svg>
