<?xml version="1.0" encoding="UTF-8" standalone="no"?>
<svg
   inkscape:version="1.2.1 (9c6d41e410, 2022-07-14)"
   sodipodi:docname="x-office-presentation.svg"
   id="svg6314"
   version="1"
   height="32"
   width="32"
   xmlns:inkscape="http://www.inkscape.org/namespaces/inkscape"
   xmlns:sodipodi="http://sodipodi.sourceforge.net/DTD/sodipodi-0.dtd"
   xmlns="http://www.w3.org/2000/svg"
   xmlns:svg="http://www.w3.org/2000/svg"
   xmlns:rdf="http://www.w3.org/1999/02/22-rdf-syntax-ns#"
   xmlns:cc="http://creativecommons.org/ns#"
   xmlns:dc="http://purl.org/dc/elements/1.1/">
  <metadata
     id="metadata6320">
    <rdf:RDF>
      <cc:Work
         rdf:about="">
        <dc:format>image/svg+xml</dc:format>
        <dc:type
           rdf:resource="http://purl.org/dc/dcmitype/StillImage" />
        <dc:title />
      </cc:Work>
    </rdf:RDF>
  </metadata>
  <defs
     id="defs6318">
    <inkscape:path-effect
       effect="fillet_chamfer"
       id="path-effect16"
       is_visible="true"
       lpeversion="1"
       satellites_param="F,0,0,1,0,2,0,10 @ F,0,0,1,0,2,0,10 @ F,0,0,1,0,2,0,10 @ F,0,0,1,0,2,0,10"
       unit="px"
       method="auto"
       mode="F"
       radius="2"
       chamfer_steps="10"
       flexible="false"
       use_knot_distance="true"
       apply_no_radius="true"
       apply_with_radius="true"
       only_selected="false"
       hide_knots="false"
       nodesatellites_param="F,0,0,1,0,2,0,10 @ F,0,0,1,0,2,0,10 @ F,0,0,1,0,2,0,10 @ F,0,0,1,0,2,0,10" />
    <inkscape:path-effect
       effect="fillet_chamfer"
       id="path-effect14"
       is_visible="true"
       lpeversion="1"
       satellites_param="F,0,0,1,0,2,0,10 @ F,0,0,1,0,2,0,10 @ F,0,0,1,0,2,0,10 @ F,0,0,1,0,2,0,10 @ F,0,0,1,0,2,0,10"
       unit="px"
       method="auto"
       mode="F"
       radius="2"
       chamfer_steps="10"
       flexible="false"
       use_knot_distance="true"
       apply_no_radius="true"
       apply_with_radius="true"
       only_selected="false"
       hide_knots="false"
       nodesatellites_param="F,0,0,1,0,2,0,10 @ F,0,0,1,0,2,0,10 @ F,0,0,1,0,2,0,10 @ F,0,0,1,0,2,0,10 @ F,0,0,1,0,2,0,10" />
    <inkscape:path-effect
       effect="fillet_chamfer"
       id="path-effect12"
       is_visible="true"
       lpeversion="1"
       satellites_param="F,0,0,1,0,2,0,10 @ F,0,0,1,0,2,0,10 @ F,0,0,1,0,2,0,10 @ F,0,0,1,0,2,0,10"
       unit="px"
       method="auto"
       mode="F"
       radius="2"
       chamfer_steps="10"
       flexible="false"
       use_knot_distance="true"
       apply_no_radius="true"
       apply_with_radius="true"
       only_selected="false"
       hide_knots="false"
       nodesatellites_param="F,0,0,1,0,2,0,10 @ F,0,0,1,0,2,0,10 @ F,0,0,1,0,2,0,10 @ F,0,0,1,0,2,0,10" />
  </defs>
  <sodipodi:namedview
     inkscape:document-rotation="0"
     inkscape:current-layer="svg6314"
     inkscape:window-maximized="1"
     inkscape:window-y="1237"
     inkscape:window-x="0"
     inkscape:cy="13.051514"
     inkscape:cx="-2.8044575"
     inkscape:zoom="13.906433"
     showgrid="false"
     id="namedview6316"
     inkscape:window-height="1006"
     inkscape:window-width="1920"
     inkscape:pageshadow="2"
     inkscape:pageopacity="0"
     guidetolerance="10"
     gridtolerance="10"
     objecttolerance="10"
     borderopacity="1"
     bordercolor="#666666"
     pagecolor="#ffffff"
     inkscape:showpageshadow="2"
     inkscape:pagecheckerboard="0"
     inkscape:deskcolor="#d1d1d1" />
  <path
     id="rect5540-8"
     d="m 4,5 v 24 a 2,2 45 0 0 2,2 l 20,0 a 2,2 135 0 0 2,-2 V 12 A 4.6024379,4.6024379 66.512533 0 0 26.537889,8.6353635 L 21.962111,4.3646365 A 5.0740406,5.0740406 21.512533 0 0 18.5,3 H 6 A 2,2 135 0 0 4,5 Z"
     style="opacity:0.2;fill:#000000;fill-opacity:1;stroke:none;stroke-width:1.12688565"
     inkscape:connector-curvature="0"
     inkscape:path-effect="#path-effect14"
     inkscape:original-d="M 4,3 V 31 H 28 V 10 L 20.5,3 Z" />
  <path
     transform="scale(1,-1)"
     style="opacity:1;vector-effect:none;fill:#eeeeee;fill-opacity:1;stroke:none;stroke-width:0.472578;stroke-linecap:butt;stroke-linejoin:miter;stroke-miterlimit:4;stroke-dasharray:none;stroke-dashoffset:0;stroke-opacity:1"
     id="rect4897"
     y="-30"
     x="4"
     ry="0"
     rx="0"
     height="28"
     width="24"
     inkscape:path-effect="#path-effect12"
     d="m 6,-30 h 20 a 2,2 45 0 1 2,2 v 24 a 2,2 135 0 1 -2,2 H 6 A 2,2 45 0 1 4,-4 v -24 a 2,2 135 0 1 2,-2 z"
     sodipodi:type="rect" />
  <path
     y="6"
     x="6"
     height="8"
     width="8"
     id="rect7379"
     style="opacity:1;fill:#ff3300;fill-opacity:1;stroke:none;stroke-width:0.285497"
     inkscape:path-effect="#path-effect16"
     d="m 8,6 h 4 a 2,2 45 0 1 2,2 v 4 a 2,2 135 0 1 -2,2 H 8 A 2,2 45 0 1 6,12 V 8 A 2,2 135 0 1 8,6 Z"
     sodipodi:type="rect" />
  <path
     d="m 22,22.6 a 6,5.5999999 0 0 1 -3.723292,5.181186 6,5.5999999 0 0 1 -6.548908,-1.24917 6,5.5999999 0 0 1 -1.246692,-6.129183 6,5.5999999 0 0 1 5.602789,-3.402285 L 16,22.6 Z"
     sodipodi:end="4.7263723"
     sodipodi:start="0"
     sodipodi:ry="5.5999999"
     sodipodi:rx="6"
     sodipodi:cy="22.6"
     sodipodi:cx="16"
     sodipodi:type="arc"
     id="path1446"
     style="opacity:1;fill:#ff794b;fill-opacity:1;stroke:none;stroke-width:0.248733;stroke-miterlimit:4;stroke-dasharray:none;stroke-opacity:1"
     sodipodi:arc-type="slice" />
  <path
     transform="scale(1,-1)"
     d="M 22.984022,-21.598272 A 6,5.5999999 0 0 1 17.133057,-16 l -0.149035,-5.598272 z"
     sodipodi:end="1.5459547"
     sodipodi:start="0"
     sodipodi:ry="5.5999999"
     sodipodi:rx="6"
     sodipodi:cy="-21.598272"
     sodipodi:cx="16.984022"
     sodipodi:type="arc"
     id="path1446-9"
     style="opacity:0.5;fill:#ff794b;fill-opacity:1;stroke:none;stroke-width:0.248733;stroke-miterlimit:4;stroke-dasharray:none;stroke-opacity:1"
     sodipodi:arc-type="slice" />
  <path
     transform="matrix(0.14146014,0,0,0.14403215,8.245286,7.6307837)"
     d="M 2.9902344,1.8691406 V 31.029297 h 3.9453125 v -11.71875 h 4.9609371 c 3.26823,0 5.735677,-0.735677 7.402344,-2.207031 1.679688,-1.471355 2.519531,-3.645834 2.519531,-6.523438 0,-2.8515624 -0.839843,-5.0130207 -2.519531,-6.4843749 -1.666667,-1.484375 -4.134114,-2.2265625 -7.402344,-2.2265625 z m 3.9453125,3.2421875 h 4.9609371 c 1.835938,0 3.255209,0.4752604 4.257813,1.4257813 1.002604,0.9505208 1.503906,2.2981771 1.503906,4.0429686 0,1.757813 -0.501302,3.111979 -1.503906,4.0625 -1.002604,0.950521 -2.421875,1.425781 -4.257813,1.425781 H 6.9355469 Z"
     id="text1465"
     style="font-style:normal;font-weight:normal;font-size:40px;line-height:1.25;font-family:sans-serif;letter-spacing:0px;word-spacing:0px;fill:#ffffff;fill-opacity:1;stroke:#ffffff;stroke-width:2.43098736;stroke-miterlimit:4;stroke-dasharray:none;stroke-opacity:1"
     inkscape:original="M 2.9902344 1.8691406 L 2.9902344 31.029297 L 6.9355469 31.029297 L 6.9355469 19.310547 L 11.896484 19.310547 C 15.164714 19.310547 17.632161 18.57487 19.298828 17.103516 C 20.978516 15.632161 21.818359 13.457682 21.818359 10.580078 C 21.818359 7.7285156 20.978516 5.5670573 19.298828 4.0957031 C 17.632161 2.6113281 15.164714 1.8691406 11.896484 1.8691406 L 2.9902344 1.8691406 z M 6.9355469 5.1113281 L 11.896484 5.1113281 C 13.732422 5.1113281 15.151693 5.5865885 16.154297 6.5371094 C 17.156901 7.4876302 17.658203 8.8352865 17.658203 10.580078 C 17.658203 12.337891 17.156901 13.692057 16.154297 14.642578 C 15.151693 15.593099 13.732422 16.068359 11.896484 16.068359 L 6.9355469 16.068359 L 6.9355469 5.1113281 z "
     inkscape:radius="0"
     sodipodi:type="inkscape:offset" />
</svg>
