<?xml version="1.0" encoding="UTF-8" standalone="no"?>
<svg
   inkscape:version="1.2.1 (9c6d41e410, 2022-07-14)"
   sodipodi:docname="x-office-spreadsheet.svg"
   id="svg6314"
   version="1"
   height="32"
   width="32"
   xmlns:inkscape="http://www.inkscape.org/namespaces/inkscape"
   xmlns:sodipodi="http://sodipodi.sourceforge.net/DTD/sodipodi-0.dtd"
   xmlns="http://www.w3.org/2000/svg"
   xmlns:svg="http://www.w3.org/2000/svg"
   xmlns:rdf="http://www.w3.org/1999/02/22-rdf-syntax-ns#"
   xmlns:cc="http://creativecommons.org/ns#"
   xmlns:dc="http://purl.org/dc/elements/1.1/">
  <metadata
     id="metadata6320">
    <rdf:RDF>
      <cc:Work
         rdf:about="">
        <dc:format>image/svg+xml</dc:format>
        <dc:type
           rdf:resource="http://purl.org/dc/dcmitype/StillImage" />
        <dc:title />
      </cc:Work>
    </rdf:RDF>
  </metadata>
  <defs
     id="defs6318">
    <inkscape:path-effect
       effect="fillet_chamfer"
       id="path-effect15"
       is_visible="true"
       lpeversion="1"
       satellites_param="F,0,0,1,0,2,0,10 @ F,0,0,1,0,2,0,10 @ F,0,0,1,0,2,0,10 @ F,0,0,1,0,2,0,10"
       unit="px"
       method="auto"
       mode="F"
       radius="2"
       chamfer_steps="10"
       flexible="false"
       use_knot_distance="true"
       apply_no_radius="true"
       apply_with_radius="true"
       only_selected="false"
       hide_knots="false"
       nodesatellites_param="F,0,0,1,0,2,0,10 @ F,0,0,1,0,2,0,10 @ F,0,0,1,0,2,0,10 @ F,0,0,1,0,2,0,10" />
    <inkscape:path-effect
       effect="fillet_chamfer"
       id="path-effect13"
       is_visible="true"
       lpeversion="1"
       satellites_param="F,0,0,1,0,2,0,10 @ F,0,0,1,0,2,0,10 @ F,0,0,1,0,2,0,10 @ F,0,0,1,0,2,0,10 @ F,0,0,1,0,2,0,10"
       unit="px"
       method="auto"
       mode="F"
       radius="2"
       chamfer_steps="10"
       flexible="false"
       use_knot_distance="true"
       apply_no_radius="true"
       apply_with_radius="true"
       only_selected="false"
       hide_knots="false"
       nodesatellites_param="F,0,0,1,0,2,0,10 @ F,0,0,1,0,2,0,10 @ F,0,0,1,0,2,0,10 @ F,0,0,1,0,2,0,10 @ F,0,0,1,0,2,0,10" />
    <inkscape:path-effect
       effect="fillet_chamfer"
       id="path-effect11"
       is_visible="true"
       lpeversion="1"
       satellites_param="F,0,0,1,0,2,0,10 @ F,0,0,1,0,2,0,10 @ F,0,0,1,0,2,0,10 @ F,0,0,1,0,2,0,10"
       unit="px"
       method="auto"
       mode="F"
       radius="2"
       chamfer_steps="10"
       flexible="false"
       use_knot_distance="true"
       apply_no_radius="true"
       apply_with_radius="true"
       only_selected="false"
       hide_knots="false"
       nodesatellites_param="F,0,0,1,0,2,0,10 @ F,0,0,1,0,2,0,10 @ F,0,0,1,0,2,0,10 @ F,0,0,1,0,2,0,10" />
  </defs>
  <sodipodi:namedview
     inkscape:document-rotation="0"
     inkscape:current-layer="svg6314"
     inkscape:window-maximized="1"
     inkscape:window-y="1237"
     inkscape:window-x="0"
     inkscape:cy="11.757149"
     inkscape:cx="8.9167366"
     inkscape:zoom="13.906433"
     showgrid="false"
     id="namedview6316"
     inkscape:window-height="1006"
     inkscape:window-width="1920"
     inkscape:pageshadow="2"
     inkscape:pageopacity="0"
     guidetolerance="10"
     gridtolerance="10"
     objecttolerance="10"
     borderopacity="1"
     bordercolor="#666666"
     pagecolor="#ffffff"
     inkscape:showpageshadow="2"
     inkscape:pagecheckerboard="0"
     inkscape:deskcolor="#d1d1d1" />
  <path
     id="rect5540-8"
     d="m 4,5 v 24 a 2,2 45 0 0 2,2 l 20,0 a 2,2 135 0 0 2,-2 V 12 A 4.6024379,4.6024379 66.512533 0 0 26.537889,8.6353635 L 21.962111,4.3646365 A 5.0740406,5.0740406 21.512533 0 0 18.5,3 H 6 A 2,2 135 0 0 4,5 Z"
     style="opacity:0.2;fill:#000000;fill-opacity:1;stroke:none;stroke-width:1.12688565"
     inkscape:connector-curvature="0"
     inkscape:path-effect="#path-effect13"
     inkscape:original-d="M 4,3 V 31 H 28 V 10 L 20.5,3 Z" />
  <path
     style="opacity:1;vector-effect:none;fill:#eeeeee;fill-opacity:1;stroke:none;stroke-width:0.472578;stroke-linecap:butt;stroke-linejoin:miter;stroke-miterlimit:4;stroke-dasharray:none;stroke-dashoffset:0;stroke-opacity:1"
     id="rect4897"
     y="2"
     x="4"
     ry="0"
     rx="0"
     height="28"
     width="24"
     inkscape:path-effect="#path-effect11"
     d="m 6,2 h 20 a 2,2 45 0 1 2,2 v 24 a 2,2 135 0 1 -2,2 H 6 A 2,2 45 0 1 4,28 V 4 A 2,2 135 0 1 6,2 Z"
     sodipodi:type="rect" />
  <path
     y="6"
     x="6"
     height="8"
     width="8"
     id="rect7379"
     style="opacity:1;fill:#207245;fill-opacity:1;stroke:none;stroke-width:0.285497"
     inkscape:path-effect="#path-effect15"
     d="m 8,6 h 4 a 2,2 45 0 1 2,2 v 4 a 2,2 135 0 1 -2,2 H 8 A 2,2 45 0 1 6,12 V 8 A 2,2 135 0 1 8,6 Z"
     sodipodi:type="rect" />
  <path
     inkscape:connector-curvature="0"
     id="rect2862-0"
     d="m 7,17 v 2.8 2.8 2.8 2.8 H 11.5 16 20.5 25 V 25.4 22.6 19.8 17 H 20.5 16 11.5 Z m 0.4497076,0.467578 h 3.6005854 v 1.866211 H 7.4497076 Z m 4.5000004,0 h 3.600585 v 1.866211 h -3.600585 z m 4.5,0 h 3.600585 v 1.866211 h -3.600585 z m 4.5,0 h 3.600585 v 1.866211 h -3.600585 z m -13.5000004,2.8 h 3.6005854 v 1.866211 H 7.4497076 Z m 4.5000004,0 h 3.600585 v 1.866211 h -3.600585 z m 4.5,0 h 3.600585 v 1.866211 h -3.600585 z m 4.5,0 h 3.600585 v 1.866211 h -3.600585 z m -13.5000004,2.8 H 11.050293 V 24.93379 H 7.4497076 Z m 4.5000004,0 h 3.600585 v 1.866212 h -3.600585 z m 4.5,0 h 3.600585 v 1.866212 h -3.600585 z m 4.5,0 h 3.600585 v 1.866212 h -3.600585 z m -13.5000004,2.8 h 3.6005854 v 1.866211 H 7.4497076 Z m 4.5000004,0 h 3.600585 v 1.866211 h -3.600585 z m 4.5,0 h 3.600585 v 1.866211 h -3.600585 z m 4.5,0 h 3.600585 v 1.866211 h -3.600585 z"
     style="opacity:0.2;fill:#000000;fill-opacity:1;stroke:none;stroke-width:0.10322;stroke-miterlimit:4;stroke-dasharray:none;stroke-opacity:1" />
  <path
     transform="matrix(0.13717348,0,0,0.13717348,10.818576,8.8581388)"
     d="m -17.111328,-6.2558594 9.0820311,13.59375 -10.4101561,15.5664064 h 4.257812 l 8.2617191,-12.402344 8.203125,12.402344 h 4.2382813 l -10,-15.1562501 9.375,-14.0039063 H 1.6582031 L -5.6269531,4.5839844 -12.873047,-6.2558594 Z"
     id="text4170"
     style="font-style:normal;font-weight:normal;font-size:40px;line-height:1.25;font-family:sans-serif;letter-spacing:0px;word-spacing:0px;fill:#ffffff;fill-opacity:1;stroke:#ffffff;stroke-width:2.43001318;stroke-miterlimit:4;stroke-dasharray:none;stroke-opacity:1"
     inkscape:original="M -17.111328 -6.2558594 L -8.0292969 7.3378906 L -18.439453 22.904297 L -14.181641 22.904297 L -5.9199219 10.501953 L 2.2832031 22.904297 L 6.5214844 22.904297 L -3.4785156 7.7480469 L 5.8964844 -6.2558594 L 1.6582031 -6.2558594 L -5.6269531 4.5839844 L -12.873047 -6.2558594 L -17.111328 -6.2558594 z "
     inkscape:radius="0"
     sodipodi:type="inkscape:offset" />
</svg>
