<?xml version="1.0" encoding="UTF-8" standalone="no"?>
<svg
   width="32"
   height="32"
   version="1"
   id="svg6314"
   sodipodi:docname="x-office-document.svg"
   inkscape:version="1.2.1 (9c6d41e410, 2022-07-14)"
   xmlns:inkscape="http://www.inkscape.org/namespaces/inkscape"
   xmlns:sodipodi="http://sodipodi.sourceforge.net/DTD/sodipodi-0.dtd"
   xmlns:xlink="http://www.w3.org/1999/xlink"
   xmlns="http://www.w3.org/2000/svg"
   xmlns:svg="http://www.w3.org/2000/svg"
   xmlns:rdf="http://www.w3.org/1999/02/22-rdf-syntax-ns#"
   xmlns:cc="http://creativecommons.org/ns#"
   xmlns:dc="http://purl.org/dc/elements/1.1/">
  <metadata
     id="metadata6320">
    <rdf:RDF>
      <cc:Work
         rdf:about="">
        <dc:format>image/svg+xml</dc:format>
        <dc:type
           rdf:resource="http://purl.org/dc/dcmitype/StillImage" />
        <dc:title />
      </cc:Work>
    </rdf:RDF>
  </metadata>
  <defs
     id="defs6318">
    <inkscape:path-effect
       effect="fillet_chamfer"
       id="path-effect357"
       is_visible="true"
       lpeversion="1"
       satellites_param="F,0,0,1,0,2,0,10 @ F,0,0,1,0,2,0,10 @ F,0,0,1,0,2,0,10 @ F,0,0,1,0,2,0,10"
       unit="px"
       method="auto"
       mode="F"
       radius="2"
       chamfer_steps="10"
       flexible="false"
       use_knot_distance="true"
       apply_no_radius="true"
       apply_with_radius="true"
       only_selected="false"
       hide_knots="false"
       nodesatellites_param="F,0,0,1,0,2,0,10 @ F,0,0,1,0,2,0,10 @ F,0,0,1,0,2,0,10 @ F,0,0,1,0,2,0,10" />
    <inkscape:path-effect
       effect="fillet_chamfer"
       id="path-effect13"
       is_visible="true"
       lpeversion="1"
       satellites_param="F,0,0,1,0,2,0,10 @ F,0,0,1,0,2,0,10 @ F,0,0,1,0,2,0,10 @ F,0,0,1,0,2,0,10 @ F,0,0,1,0,2,0,10"
       unit="px"
       method="auto"
       mode="F"
       radius="2"
       chamfer_steps="10"
       flexible="false"
       use_knot_distance="true"
       apply_no_radius="true"
       apply_with_radius="true"
       only_selected="false"
       hide_knots="false"
       nodesatellites_param="F,0,0,1,0,2,0,10 @ F,0,0,1,0,2,0,10 @ F,0,0,1,0,2,0,10 @ F,0,0,1,0,2,0,10 @ F,0,0,1,0,2,0,10" />
    <inkscape:path-effect
       effect="fillet_chamfer"
       id="path-effect11"
       is_visible="true"
       lpeversion="1"
       satellites_param="F,0,0,1,0,2,0,10 @ F,0,0,1,0,2,0,10 @ F,0,0,1,0,2,0,10 @ F,0,0,1,0,2,0,10"
       unit="px"
       method="auto"
       mode="F"
       radius="2"
       chamfer_steps="10"
       flexible="false"
       use_knot_distance="true"
       apply_no_radius="true"
       apply_with_radius="true"
       only_selected="false"
       hide_knots="false"
       nodesatellites_param="F,0,0,1,0,2,0,10 @ F,0,0,1,0,2,0,10 @ F,0,0,1,0,2,0,10 @ F,0,0,1,0,2,0,10" />
    <inkscape:path-effect
       effect="fillet_chamfer"
       id="path-effect889"
       is_visible="true"
       lpeversion="1"
       satellites_param="F,0,0,1,0,1,0,10 @ F,0,0,1,0,1,0,10 @ F,0,0,1,0,1,0,10 @ F,0,0,1,0,1,0,10"
       unit="px"
       method="auto"
       mode="F"
       radius="1"
       chamfer_steps="10"
       flexible="false"
       use_knot_distance="true"
       apply_no_radius="true"
       apply_with_radius="true"
       only_selected="false"
       hide_knots="false"
       nodesatellites_param="F,0,0,1,0,1,0,10 @ F,0,0,1,0,1,0,10 @ F,0,0,1,0,1,0,10 @ F,0,0,1,0,1,0,10" />
    <inkscape:path-effect
       effect="fillet_chamfer"
       id="path-effect887"
       is_visible="true"
       lpeversion="1"
       satellites_param="F,0,0,1,0,1,0,10 @ F,0,0,1,0,1,0,10 @ F,0,0,1,0,1,0,10 @ F,0,0,1,0,1,0,10"
       unit="px"
       method="auto"
       mode="F"
       radius="1"
       chamfer_steps="10"
       flexible="false"
       use_knot_distance="true"
       apply_no_radius="true"
       apply_with_radius="true"
       only_selected="false"
       hide_knots="false"
       nodesatellites_param="F,0,0,1,0,1,0,10 @ F,0,0,1,0,1,0,10 @ F,0,0,1,0,1,0,10 @ F,0,0,1,0,1,0,10" />
    <inkscape:path-effect
       effect="fillet_chamfer"
       id="path-effect885"
       is_visible="true"
       lpeversion="1"
       satellites_param="F,0,0,1,0,1,0,10 @ F,0,0,1,0,1,0,10 @ F,0,0,1,0,1,0,10 @ F,0,0,1,0,1,0,10"
       unit="px"
       method="auto"
       mode="F"
       radius="1"
       chamfer_steps="10"
       flexible="false"
       use_knot_distance="true"
       apply_no_radius="true"
       apply_with_radius="true"
       only_selected="false"
       hide_knots="false"
       nodesatellites_param="F,0,0,1,0,1,0,10 @ F,0,0,1,0,1,0,10 @ F,0,0,1,0,1,0,10 @ F,0,0,1,0,1,0,10" />
    <linearGradient
       id="linearGradient902">
      <stop
         id="stop898"
         offset="0"
         style="stop-color:#770087;stop-opacity:1;" />
      <stop
         id="stop900"
         offset="1"
         style="stop-color:#452981;stop-opacity:1" />
    </linearGradient>
    <linearGradient
       id="linearGradient899">
      <stop
         id="stop895"
         style="stop-color:#f282f1;stop-opacity:1"
         offset="0" />
      <stop
         id="stop897"
         style="stop-color:#a56de2;stop-opacity:1"
         offset="1" />
    </linearGradient>
    <linearGradient
       id="linearGradient916">
      <stop
         id="stop912"
         style="stop-color:#ffffff;stop-opacity:1"
         offset="0" />
      <stop
         id="stop914"
         style="stop-color:#fafafa;stop-opacity:1"
         offset="1" />
    </linearGradient>
    <linearGradient
       id="linearGradient3688-166-749-654">
      <stop
         id="stop3088"
         style="stop-color:#181818;stop-opacity:1"
         offset="0" />
      <stop
         id="stop3090"
         style="stop-color:#181818;stop-opacity:0"
         offset="1" />
    </linearGradient>
    <linearGradient
       id="linearGradient3702-501-757-795">
      <stop
         id="stop3100"
         style="stop-color:#181818;stop-opacity:0"
         offset="0" />
      <stop
         id="stop3102"
         style="stop-color:#181818;stop-opacity:1"
         offset="0.5" />
      <stop
         id="stop3104"
         style="stop-color:#181818;stop-opacity:0"
         offset="1" />
    </linearGradient>
    <radialGradient
       xlink:href="#linearGradient3688-166-749-654"
       id="radialGradient4730"
       gradientUnits="userSpaceOnUse"
       gradientTransform="matrix(3.2060542,2.6349059e-7,-8.2185947e-8,1.0000077,36.981009,15.99962)"
       cx="4.9964824"
       cy="43.5"
       fx="4.9964824"
       fy="43.5"
       r="2.5" />
    <radialGradient
       xlink:href="#linearGradient3688-166-749-654"
       id="radialGradient4732"
       gradientUnits="userSpaceOnUse"
       gradientTransform="matrix(3.163875,0,0,0.99999995,-29.702994,-103.00012)"
       cx="4.9929786"
       cy="43.5"
       fx="4.9929786"
       fy="43.5"
       r="2.5" />
    <linearGradient
       xlink:href="#linearGradient3702-501-757-795"
       id="linearGradient4734"
       gradientUnits="userSpaceOnUse"
       gradientTransform="matrix(1.3928572,0,0,0.71428561,-0.0214163,28.42862)"
       x1="25.058096"
       y1="47.027729"
       x2="25.058096"
       y2="39.999443" />
    <linearGradient
       gradientTransform="matrix(1.4324324,0,0,1.4362832,-7.3783796,-7.3995521)"
       gradientUnits="userSpaceOnUse"
       xlink:href="#linearGradient3924-2-2-5-8"
       id="linearGradient3381-5-4"
       y2="46.230125"
       x2="38.660378"
       y1="5.8481169"
       x1="38.660378" />
    <linearGradient
       id="linearGradient3924-2-2-5-8">
      <stop
         offset="0"
         style="stop-color:#ffffff;stop-opacity:1"
         id="stop3926-9-4-9-6" />
      <stop
         offset="0.06316455"
         style="stop-color:#ffffff;stop-opacity:0.23529412"
         id="stop3928-9-8-6-5" />
      <stop
         offset="0.95056331"
         style="stop-color:#ffffff;stop-opacity:0.15686275"
         id="stop3930-3-5-1-7" />
      <stop
         offset="1"
         style="stop-color:#ffffff;stop-opacity:0.39215687"
         id="stop3932-8-0-4-8" />
    </linearGradient>
    <linearGradient
       gradientTransform="matrix(0.47054764,0,0,0.47457626,-60.688645,-0.1484071)"
       gradientUnits="userSpaceOnUse"
       xlink:href="#linearGradient916"
       id="linearGradient5809"
       y2="55.027"
       x2="161.97743"
       y1="10.027002"
       x1="161.97743" />
    <linearGradient
       y2="63.027"
       x2="161.97743"
       y1="5.1520023"
       x1="161.97743"
       gradientTransform="matrix(0.4705882,0,0,0.47457626,-60.695255,-0.1484071)"
       gradientUnits="userSpaceOnUse"
       id="linearGradient910"
       xlink:href="#linearGradient899" />
    <linearGradient
       gradientUnits="userSpaceOnUse"
       y2="60"
       x2="32"
       y1="0"
       x1="32"
       id="linearGradient904"
       xlink:href="#linearGradient902" />
    <linearGradient
       y2="63.027"
       x2="161.97743"
       y1="5.1520023"
       x1="161.97743"
       gradientTransform="matrix(0.94117646,0,0,0.94915254,-73.044014,10.801587)"
       gradientUnits="userSpaceOnUse"
       id="linearGradient910-3"
       xlink:href="#linearGradient899" />
    <linearGradient
       y2="63.027"
       x2="161.97743"
       y1="5.1520023"
       x1="161.97743"
       gradientTransform="matrix(0.47054764,0,0,0.47457626,-76.305129,-44.360347)"
       gradientUnits="userSpaceOnUse"
       id="linearGradient910-5"
       xlink:href="#linearGradient899" />
    <radialGradient
       xlink:href="#linearGradient3688-166-749-654"
       id="radialGradient4730-0"
       gradientUnits="userSpaceOnUse"
       gradientTransform="matrix(3.2060542,2.6349059e-7,-8.2185947e-8,1.0000077,36.981009,15.99962)"
       cx="4.9964824"
       cy="43.5"
       fx="4.9964824"
       fy="43.5"
       r="2.5" />
    <radialGradient
       xlink:href="#linearGradient3688-166-749-654"
       id="radialGradient4732-6"
       gradientUnits="userSpaceOnUse"
       gradientTransform="matrix(3.163875,0,0,0.99999995,-29.702994,-103.00012)"
       cx="4.9929786"
       cy="43.5"
       fx="4.9929786"
       fy="43.5"
       r="2.5" />
    <radialGradient
       xlink:href="#linearGradient3688-166-749-654"
       id="radialGradient4730-9"
       gradientUnits="userSpaceOnUse"
       gradientTransform="matrix(3.2060542,2.6349059e-7,-8.2185947e-8,1.0000077,36.981009,15.99962)"
       cx="4.9964824"
       cy="43.5"
       fx="4.9964824"
       fy="43.5"
       r="2.5" />
    <radialGradient
       xlink:href="#linearGradient3688-166-749-654"
       id="radialGradient4732-4"
       gradientUnits="userSpaceOnUse"
       gradientTransform="matrix(3.163875,0,0,0.99999995,-29.702994,-103.00012)"
       cx="4.9929786"
       cy="43.5"
       fx="4.9929786"
       fy="43.5"
       r="2.5" />
  </defs>
  <sodipodi:namedview
     pagecolor="#ffffff"
     bordercolor="#666666"
     borderopacity="1"
     objecttolerance="10"
     gridtolerance="10"
     guidetolerance="10"
     inkscape:pageopacity="0"
     inkscape:pageshadow="2"
     inkscape:window-width="1920"
     inkscape:window-height="1006"
     id="namedview6316"
     showgrid="false"
     inkscape:zoom="5.6568543"
     inkscape:cx="-41.7193"
     inkscape:cy="-0.61871843"
     inkscape:window-x="0"
     inkscape:window-y="1237"
     inkscape:window-maximized="1"
     inkscape:current-layer="svg6314"
     inkscape:document-rotation="0"
     inkscape:showpageshadow="2"
     inkscape:pagecheckerboard="0"
     inkscape:deskcolor="#d1d1d1" />
  <path
     inkscape:connector-curvature="0"
     style="opacity:0.2;fill:#000000;fill-opacity:1;stroke:none;stroke-width:1.12688565"
     d="m 4,5 v 24 a 2,2 45 0 0 2,2 l 20,0 a 2,2 135 0 0 2,-2 V 12 A 4.6024379,4.6024379 66.512533 0 0 26.537889,8.6353635 L 21.962111,4.3646365 A 5.0740406,5.0740406 21.512533 0 0 18.5,3 H 6 A 2,2 135 0 0 4,5 Z"
     id="rect5540-8"
     inkscape:path-effect="#path-effect13"
     inkscape:original-d="M 4,3 V 31 H 28 V 10 L 20.5,3 Z" />
  <path
     width="24"
     height="28"
     rx="0"
     ry="0"
     x="4"
     y="2"
     id="rect4897"
     style="opacity:1;vector-effect:none;fill:#eeeeee;fill-opacity:1;stroke:none;stroke-width:0.472578;stroke-linecap:butt;stroke-linejoin:miter;stroke-miterlimit:4;stroke-dasharray:none;stroke-dashoffset:0;stroke-opacity:1"
     inkscape:path-effect="#path-effect11"
     d="m 6,2 h 20 a 2,2 45 0 1 2,2 v 24 a 2,2 135 0 1 -2,2 H 6 A 2,2 45 0 1 4,28 V 4 A 2,2 135 0 1 6,2 Z"
     sodipodi:type="rect" />
  <path
     d="m 8.2351945,15.543246 h 8.2215595 a 0.45675326,0.45675326 0 0 1 0,0.913506 H 8.2351945 a 0.45675326,0.45675326 0 0 1 0,-0.913506 z"
     id="path5666"
     style="fill:#808080;stroke-width:0.0570941" />
  <path
     d="M 23.764806,19.197272 H 12.802727 a 0.4567535,0.4567535 0 0 1 0,-0.913507 h 10.962079 a 0.4567535,0.4567535 0 0 1 0,0.913507 z"
     id="path5668"
     style="fill:#808080;stroke-width:0.0570941" />
  <path
     d="m 23.764806,10.975714 h -2.74052 a 0.4567535,0.4567535 0 0 1 0,-0.913507 h 2.74052 a 0.4567535,0.4567535 0 0 1 0,0.913507 z"
     id="path5670"
     style="fill:#808080;stroke-width:0.0570941" />
  <path
     d="m 19.265273,10.975714 h -2.74052 a 0.4567535,0.4567535 0 0 1 0,-0.913507 h 2.74052 a 0.4567535,0.4567535 0 0 1 0,0.913507 z"
     id="path5670-3"
     style="fill:#808080;stroke-width:0.0570941" />
  <path
     d="m 8.2351945,12.802727 h 4.5675325 a 0.45675326,0.45675326 0 0 1 0,0.913506 H 8.2351945 a 0.45675326,0.45675326 0 0 1 0,-0.913506 z"
     id="path5672"
     style="fill:#808080;stroke-width:0.0570941" />
  <path
     d="m 23.764806,16.456752 h -5.481039 a 0.45675326,0.45675326 0 0 1 0,-0.913506 h 5.481039 a 0.45675326,0.45675326 0 0 1 0,0.913506 z"
     id="path5674"
     style="fill:#808080;stroke-width:0.0570941" />
  <path
     d="m 8.2351945,18.283765 h 2.7405195 a 0.4567535,0.4567535 0 0 1 0,0.913507 H 8.2351945 a 0.4567535,0.4567535 0 0 1 0,-0.913507 z"
     id="path5676"
     style="fill:#808080;stroke-width:0.0570941" />
  <path
     d="m 11.88922,23.764806 h 4.567534 a 0.45675326,0.45675326 0 0 1 0,0.913506 H 11.88922 a 0.45675326,0.45675326 0 0 1 0,-0.913506 z"
     id="path5678"
     style="fill:#808080;stroke-width:0.0570941" />
  <path
     d="m 23.764806,24.678312 h -5.481039 a 0.45675326,0.45675326 0 0 1 0,-0.913506 h 5.481039 a 0.45675326,0.45675326 0 0 1 0,0.913506 z"
     id="path5680"
     style="fill:#808080;stroke-width:0.0570941" />
  <path
     d="M 23.764806,21.937793 H 20.11078 a 0.456754,0.456754 0 0 1 0,-0.913508 h 3.654026 a 0.456754,0.456754 0 0 1 0,0.913508 z"
     id="path5682"
     style="fill:#808080;stroke-width:0.0570941" />
  <path
     d="M 23.764806,8.2351944 H 16.584 c -0.608877,-1.274e-4 -0.608877,-0.9136339 0,-0.9135065 h 7.180806 c 0.608877,1.274e-4 0.608877,0.9136339 0,0.9135065 z"
     id="path5684"
     style="fill:#808080;stroke-width:0.0570941"
     sodipodi:nodetypes="ccccc" />
  <path
     d="M 23.764318,13.716234 H 16.483 c -0.609004,0 -0.609004,-0.913507 0,-0.913507 h 7.281318 c 0.609004,0 0.609004,0.913507 0,0.913507 z"
     id="path5684-6"
     style="fill:#808080;stroke-width:0.0570941"
     sodipodi:nodetypes="sssss" />
  <path
     d="m 13.259481,21.481039 a 0.45675326,0.45675326 0 0 1 0.456752,-0.456754 h 4.567534 a 0.456754,0.456754 0 0 1 0,0.913508 h -4.567534 a 0.45675326,0.45675326 0 0 1 -0.456752,-0.456754 z"
     id="path5686"
     style="fill:#808080;stroke-width:0.0570941" />
  <path
     d="M 8.2351945,21.024285 H 11.88922 a 0.456754,0.456754 0 0 1 0,0.913508 H 8.2351945 a 0.456754,0.456754 0 0 1 0,-0.913508 z"
     id="path5688"
     style="fill:#808080;stroke-width:0.0570941" />
  <path
     d="m 8.2351945,23.764806 h 1.8270125 a 0.45675326,0.45675326 0 0 1 0,0.913506 H 8.2351945 a 0.45675326,0.45675326 0 0 1 0,-0.913506 z"
     id="path5690"
     style="fill:#808080;stroke-width:0.0570941" />
  <path
     style="opacity:1;fill:#0066cc;fill-opacity:1;stroke:none;stroke-width:0.285497"
     id="rect7379"
     width="8"
     height="8"
     x="6"
     y="6"
     inkscape:path-effect="#path-effect357"
     d="m 8,6 h 4 a 2,2 45 0 1 2,2 v 4 a 2,2 135 0 1 -2,2 H 8 A 2,2 45 0 1 6,12 V 8 A 2,2 135 0 1 8,6 Z"
     sodipodi:type="rect" />
  <path
     sodipodi:type="inkscape:offset"
     inkscape:radius="0"
     inkscape:original="M 3.8457031 -11.001953 L 11.150391 18.158203 L 16.111328 18.158203 L 22.322266 -7.1542969 L 28.474609 18.158203 L 33.435547 18.158203 L 40.759766 -11.001953 L 36.755859 -11.001953 L 30.642578 13.646484 L 24.509766 -11.001953 L 20.076172 -11.001953 L 13.962891 13.646484 L 7.8300781 -11.001953 L 3.8457031 -11.001953 z "
     style="font-style:normal;font-weight:normal;font-size:40px;line-height:1.25;font-family:sans-serif;letter-spacing:0px;word-spacing:0px;fill:#ffffff;fill-opacity:1;stroke:#ffffff;stroke-width:1.45800781;stroke-miterlimit:4;stroke-dasharray:none;stroke-opacity:1"
     id="text835"
     d="m 3.8457031,-11.001953 7.3046879,29.160156 h 4.960937 l 6.210938,-25.3124999 6.152343,25.3124999 h 4.960938 l 7.324219,-29.160156 H 36.755859 L 30.642578,13.646484 24.509766,-11.001953 H 20.076172 L 13.962891,13.646484 7.8300781,-11.001953 Z"
     transform="matrix(0.15432016,0,0,0.14403215,6.5581916,9.484635)" />
</svg>
