/* XPM */
static char * bottom_left_active_xpm[] = {
"20 20 5 1",
" 	c None",
".	c #F5F5F5 s active_hilight_2",
"+	c #C0C0C0 s active_color_2",
"@	c #606060 s active_shadow_2",
"#	c #000000",
"+.++                ",
"+.++                ",
"+.++                ",
"+.++                ",
"+.++                ",
"+.++                ",
"+.++                ",
"+.++                ",
"+.++                ",
"+.++                ",
"+.++                ",
"+.++                ",
"+.++                ",
"+.++                ",
"+.++                ",
"+.++                ",
"+.++++++++++++++++++",
"+.++++++++++++++++++",
"+@@@@@@@@@@@@@@@@@@@",
"####################"};
