/* XPM */
static char * maximize_toggled_pressed_xpm[] = {
"20 25 5 1",
" 	c None",
".	c #000000",
"+	c #606060 s active_shadow_2",
"@	c #FFFFFF",
"#	c #C0C0C0 s active_color_2",
"                    ",
"                    ",
"                    ",
"....................",
".++++++++++++++++++@",
".+#################@",
".+#################@",
".+#################@",
".+#################@",
".+#################@",
".+####++++++++++@##@",
".+####+@@@@@@@@+@##@",
".+####+@#######+@##@",
".+####+@#######+@##@",
".+####+@#######+@##@",
".+####+@#######+@##@",
".+####+@#######+@##@",
".+####+@#######+@##@",
".+####+@#######+@##@",
".+####++++++++++@##@",
".+####@@@@@@@@@@@##@",
".+#################@",
".+#################@",
".@@@@@@@@@@@@@@@@@@@",
"                    ",
"                    "};
