/* XPM */
static char * maximize_inactive_xpm[] = {
"20 25 4 1",
" 	c None",
".	c #C0C0C0 s inactive_color_2",
"+	c #FFFFFF",
"@	c #606060 s inactive_shadow_2",
"                    ",
"                    ",
"                    ",
"....................",
"....................",
"....................",
"....................",
"....................",
"....+++++++++++.....",
"....+@@@@@@@@@@.....",
"....+@.......+@.....",
"....+@.......+@.....",
"....+@.......+@.....",
"....+@.......+@.....",
"....+@.......+@.....",
"....+@.......+@.....",
"....+@.......+@.....",
"....+@++++++++@.....",
"....+@@@@@@@@@@.....",
"....................",
"....................",
"....................",
"....................",
"....................",
"                    ",
"                    "};
