/* XPM */
static char * maximize_toggled_inactive_xpm[] = {
"20 25 4 1",
" 	c None",
".	c #C0C0C0 s active_color_2",
"+	c #606060 s active_shadow_2",
"@	c #FFFFFF",
"                    ",
"                    ",
"                    ",
"....................",
"....................",
"....................",
"....................",
"....................",
"....................",
".....++++++++++@....",
".....+@@@@@@@@+@....",
".....+@.......+@....",
".....+@.......+@....",
".....+@.......+@....",
".....+@.......+@....",
".....+@.......+@....",
".....+@.......+@....",
".....+@.......+@....",
".....++++++++++@....",
".....@@@@@@@@@@@....",
"....................",
"....................",
"....................",
"....................",
"                    ",
"                    "};
