/* XPM */
static char * stick_inactive_xpm[] = {
"20 25 5 1",
" 	c None",
".	c #C0C0C0 s inactive_color_2",
"+	c #606060 s inactive_shadow_2",
"@	c #FFFFFF",
"#	c #A0A0A0 s inactive_mid_2",
"                    ",
"                    ",
"                    ",
"....................",
"....................",
"....................",
"....................",
"....................",
"....................",
".........++.....+...",
".........+@+...++...",
".........+@@+++@+...",
"...@@@@@@+#@#@#@+...",
"...######+#@#@#@+...",
"...+++++++##+#+#+...",
".........+#++++++...",
".........+++...++...",
".........++.....+...",
"....................",
"....................",
"....................",
"....................",
"....................",
"....................",
"                    ",
"                    "};
