/* XPM */
static char * stick_toggled_pressed_xpm[] = {
"20 25 6 1",
" 	c None",
".	c #000000",
"+	c #606060 s active_shadow_2",
"@	c #FFFFFF",
"#	c #C0C0C0 s active_color_2",
"$	c #A0A0A0 s active_mid_2",
"                    ",
"                    ",
"                    ",
"....................",
".++++++++++++++++++@",
".+#################@",
".+#################@",
".+#################@",
".+#################@",
".+#########++++####@",
".+#######++@@@@+###@",
".+#####+++@@@@@@+##@",
".+#####+@+@@@$$$+##@",
".+####+@@+@@$$$++##@",
".+####+@@++@$$+++##@",
".+####+@@@@+++++###@",
".+####+@@@$$$$++###@",
".+#####+@$$$$+++###@",
".+#####+$$$$+++####@",
".+######++++++#####@",
".+#################@",
".+#################@",
".+#################@",
".@@@@@@@@@@@@@@@@@@@",
"                    ",
"                    "};
