/* XPM */
static char * title_2_inactive_xpm[] = {
"8 25 4 1",
" 	c None",
".	c #F5F5F5 s inactive_hilight_2",
"+	c #C0C0C0 s inactive_color_2",
"@	c #606060 s inactive_color_1",
"++++++++",
"........",
"++++++++",
"++++@@@@",
"++++@@@@",
"++++@@@@",
"++++@@@@",
"++++@@@@",
"++++@@@@",
"++++@@@@",
"++++@@@@",
"++++@@@@",
"++++@@@@",
"++++@@@@",
"++++@@@@",
"++++@@@@",
"++++@@@@",
"++++@@@@",
"++++@@@@",
"++++@@@@",
"++++@@@@",
"++++@@@@",
"++++@@@@",
"++++++++",
"++++++++"};
