/* XPM */
static char * title_1_active_xpm[] = {
"8 25 3 1",
" 	c None",
".	c #F5F5F5 s active_hilight_2",
"+	c #C0C0C0 s active_color_2",
"++++++++",
"........",
"++++++++",
"++++++++",
"++++++++",
"++++++++",
"++++++++",
"++++++++",
"++++++++",
"++++++++",
"++++++++",
"++++++++",
"++++++++",
"++++++++",
"++++++++",
"++++++++",
"++++++++",
"++++++++",
"++++++++",
"++++++++",
"++++++++",
"++++++++",
"++++++++",
"++++++++",
"++++++++"};
