/* XPM */
static char * top_left_inactive_xpm[] = {
"25 25 3 1",
" 	c None",
".	c #F5F5F5 s inactive_hilight_2",
"+	c #C0C0C0 s inactive_color_2",
"+++++++++++++++++++++++++",
"+........................",
"+.+++++++++++++++++++++++",
"+.+++++++++++++++++++++++",
"+.+++++++++++++++++++++++",
"+.+++++++++++++++++++++++",
"+.+++++++++++++++++++++++",
"+.+++++++++++++++++++++++",
"+.+++++++++++++++++++++++",
"+.+++++++++++++++++++++++",
"+.+++++++++++++++++++++++",
"+.+++++++++++++++++++++++",
"+.+++++++++++++++++++++++",
"+.+++++++++++++++++++++++",
"+.+++++++++++++++++++++++",
"+.+++++++++++++++++++++++",
"+.+++++++++++++++++++++++",
"+.+++++++++++++++++++++++",
"+.+++++++++++++++++++++++",
"+.+++++++++++++++++++++++",
"+.+++++++++++++++++++++++",
"+.+++++++++++++++++++++++",
"+.+++++++++++++++++++++++",
"+.+++++++++++++++++++++++",
"+.+++++++++++++++++++++++"};
