<?xml version="1.0" encoding="UTF-8" standalone="no"?>
<svg
   xmlns:dc="http://purl.org/dc/elements/1.1/"
   xmlns:cc="http://creativecommons.org/ns#"
   xmlns:rdf="http://www.w3.org/1999/02/22-rdf-syntax-ns#"
   xmlns:svg="http://www.w3.org/2000/svg"
   xmlns="http://www.w3.org/2000/svg"
   xmlns:sodipodi="http://sodipodi.sourceforge.net/DTD/sodipodi-0.dtd"
   xmlns:inkscape="http://www.inkscape.org/namespaces/inkscape"
   viewBox="0 0 32 32"
   version="1.1"
   id="svg14"
   sodipodi:docname="folder-KDE.svg"
   inkscape:version="1.0.1 (3bc2e813f5, 2020-09-07)">
  <metadata
     id="metadata18">
    <rdf:RDF>
      <cc:Work
         rdf:about="">
        <dc:format>image/svg+xml</dc:format>
        <dc:type
           rdf:resource="http://purl.org/dc/dcmitype/StillImage" />
      </cc:Work>
    </rdf:RDF>
  </metadata>
  <sodipodi:namedview
     pagecolor="#ffffff"
     bordercolor="#666666"
     borderopacity="1"
     objecttolerance="10"
     gridtolerance="10"
     guidetolerance="10"
     inkscape:pageopacity="0"
     inkscape:pageshadow="2"
     inkscape:window-width="1920"
     inkscape:window-height="1016"
     id="namedview16"
     showgrid="false"
     inkscape:zoom="7.375"
     inkscape:cx="16"
     inkscape:cy="16"
     inkscape:window-x="0"
     inkscape:window-y="0"
     inkscape:window-maximized="1"
     inkscape:current-layer="svg14"
     inkscape:document-rotation="0" />
  <defs
     id="defs3051">
    <style
       type="text/css"
       id="current-color-scheme">
      .ColorScheme-Text {
        color:#31363b;
      }
      .ColorScheme-Background {
        color:#eff0f1;
      }
      .ColorScheme-Highlight {
        color:#3daee9;
      }
      .ColorScheme-ViewText {
        color:#31363b;
      }
      .ColorScheme-ViewBackground {
        color:#fcfcfc;
      }
      .ColorScheme-ViewHover {
        color:#93cee9;
      }
      .ColorScheme-ViewFocus{
        color:#3daee9;
      }
      .ColorScheme-ButtonText {
        color:#31363b;
      }
      .ColorScheme-ButtonBackground {
        color:#eff0f1;
      }
      .ColorScheme-ButtonHover {
        color:#93cee9;
      }
      .ColorScheme-ButtonFocus{
        color:#3daee9;
      }
      </style>
  </defs>
  <path
     style="fill:#00171e;fill-opacity:1;stroke:none"
     d="M 2 3 L 2 10 L 1 10 L 1 29 L 12 29 L 13 29 L 31 29 L 31 8 L 30 8 L 30 5 L 16 5 L 14 3 L 2 3 z "
     class="ColorScheme-Highlight"
     id="path4" />
  <path
     style="fill-opacity:1;fill-rule:evenodd;fill:#3daee9"
     d="m 2,3 0,7 9,0 L 13,8 30,8 30,5 16,5 14,3 2,3 Z"
     id="path6" />
  <path
     style="fill:#ffffff;fill-opacity:0.2;fill-rule:evenodd"
     d="M 14 3 L 15 6 L 30 6 L 30 5 L 16 5 L 14 3 z M 13 8 L 11 10 L 1 10 L 1 11 L 12 11 L 13 8 z "
     id="path8" />
  <path
     style="fill-opacity:0.2;fill-rule:evenodd"
     d="M 13 8 L 11 9 L 2 9 L 2 10 L 11 10 L 13 8 z M 1 28 L 1 29 L 31 29 L 31 28 L 1 28 z "
     class="ColorScheme-Text"
     id="path10" />
  <path
     style="color:#d3dae3;fill:#ffffff;fill-opacity:1;stroke-width:0.480943"
     d="m 16.770725,13 -1.9238,0.291206 v 6.95874 l 1.9238,-0.516641 v -2.688434 l 1.923801,3.169385 1.923801,-0.721431 L 18.213576,16.60713 20.619269,13.481896 18.752769,13 16.770725,16.154362 Z m -3.917114,1.887163 c -0.04554,0 -0.091,0.0177 -0.125871,0.05268 l -0.756183,0.756181 c -0.06981,0.0698 -0.05299,0.169442 0,0.252681 l 0.78248,1.228685 c -0.05802,0.120336 -0.108173,0.244275 -0.150295,0.371042 -0.0024,0.0051 -0.005,0.01057 -0.0059,0.0159 l -1.419356,0.315623 C 11.082156,17.901415 11,17.959775 11,18.058436 v 0.472495 0.472507 c 0,0.09866 0.08223,0.157076 0.178486,0.17848 l 1.419356,0.315624 c 0.0038,0.0093 0.0076,0.01789 0.01134,0.02721 0.04093,0.123153 0.08959,0.243612 0.145596,0.360724 l -0.782485,1.227737 c -0.05303,0.08329 -0.0698,0.182915 0,0.252682 l 0.756184,0.75618 c 0.0698,0.06981 0.181973,0.06981 0.251744,0 l 1.226807,-0.781549 c 0.120599,0.0587 0.244846,0.109482 0.371985,0.152179 0.008,0.0034 0.01598,0.0071 0.02448,0.01039 l 0.314685,1.418421 c 0,0.09867 0.07981,0.178486 0.178479,0.178486 h 1.068044 c 0.09867,0 0.157075,-0.08223 0.17848,-0.178486 l 0.314647,-1.461629 c 0.14458,-0.05431 0.284924,-0.119353 0.419895,-0.194455 l 1.197683,0.856707 c 0.06981,0.0698 0.181973,0.0698 0.251737,0 l 0.756199,-0.756181 c 0.06981,-0.06981 0.05301,-0.169448 0,-0.252688 l -0.455577,-0.691367 -0.048,0.01776 c -0.108338,0.04074 -0.230293,-0.002 -0.290265,-0.100504 l -0.479133,-0.789056 c -0.399158,0.954787 -1.341816,1.62603 -2.441383,1.62603 -1.46092,0 -2.64523,-1.184309 -2.64523,-2.645238 0,-1.121046 0.698719,-2.076902 1.683327,-2.462044 v -0.526978 l -0.0048,0.01687 c -0.01062,0.0048 -0.02047,0.0094 -0.03093,0.01317 -0.125444,0.04171 -0.24812,0.09126 -0.367288,0.148417 l -1.224927,-0.78061 c -0.03486,-0.03482 -0.08034,-0.05268 -0.125873,-0.05268 z"
     class="ColorScheme-Text"
     id="path10-7" />
</svg>
