<?xml version="1.0" encoding="UTF-8" standalone="no"?>
<svg
   xmlns:dc="http://purl.org/dc/elements/1.1/"
   xmlns:cc="http://creativecommons.org/ns#"
   xmlns:rdf="http://www.w3.org/1999/02/22-rdf-syntax-ns#"
   xmlns:svg="http://www.w3.org/2000/svg"
   xmlns="http://www.w3.org/2000/svg"
   xmlns:sodipodi="http://sodipodi.sourceforge.net/DTD/sodipodi-0.dtd"
   xmlns:inkscape="http://www.inkscape.org/namespaces/inkscape"
   viewBox="0 0 32 32"
   version="1.1"
   id="svg14"
   sodipodi:docname="folder-reddit.svg"
   inkscape:version="1.0.1 (3bc2e813f5, 2020-09-07)">
  <metadata
     id="metadata18">
    <rdf:RDF>
      <cc:Work
         rdf:about="">
        <dc:format>image/svg+xml</dc:format>
        <dc:type
           rdf:resource="http://purl.org/dc/dcmitype/StillImage" />
      </cc:Work>
    </rdf:RDF>
  </metadata>
  <sodipodi:namedview
     pagecolor="#ffffff"
     bordercolor="#666666"
     borderopacity="1"
     objecttolerance="10"
     gridtolerance="10"
     guidetolerance="10"
     inkscape:pageopacity="0"
     inkscape:pageshadow="2"
     inkscape:window-width="1920"
     inkscape:window-height="1016"
     id="namedview16"
     showgrid="false"
     inkscape:zoom="7.375"
     inkscape:cx="16"
     inkscape:cy="16"
     inkscape:window-x="0"
     inkscape:window-y="0"
     inkscape:window-maximized="1"
     inkscape:current-layer="svg14"
     inkscape:document-rotation="0" />
  <defs
     id="defs3051">
    <style
       type="text/css"
       id="current-color-scheme">
      .ColorScheme-Text {
        color:#31363b;
      }
      .ColorScheme-Background {
        color:#eff0f1;
      }
      .ColorScheme-Highlight {
        color:#3daee9;
      }
      .ColorScheme-ViewText {
        color:#31363b;
      }
      .ColorScheme-ViewBackground {
        color:#fcfcfc;
      }
      .ColorScheme-ViewHover {
        color:#93cee9;
      }
      .ColorScheme-ViewFocus{
        color:#3daee9;
      }
      .ColorScheme-ButtonText {
        color:#31363b;
      }
      .ColorScheme-ButtonBackground {
        color:#eff0f1;
      }
      .ColorScheme-ButtonHover {
        color:#93cee9;
      }
      .ColorScheme-ButtonFocus{
        color:#3daee9;
      }
      </style>
  </defs>
  <path
     style="fill:#00171e;fill-opacity:1;stroke:none"
     d="M 2 3 L 2 10 L 1 10 L 1 29 L 12 29 L 13 29 L 31 29 L 31 8 L 30 8 L 30 5 L 16 5 L 14 3 L 2 3 z "
     class="ColorScheme-Highlight"
     id="path4" />
  <path
     style="fill-opacity:1;fill-rule:evenodd;fill:#3daee9"
     d="m 2,3 0,7 9,0 L 13,8 30,8 30,5 16,5 14,3 2,3 Z"
     id="path6" />
  <path
     style="fill:#ffffff;fill-opacity:0.2;fill-rule:evenodd"
     d="M 14 3 L 15 6 L 30 6 L 30 5 L 16 5 L 14 3 z M 13 8 L 11 10 L 1 10 L 1 11 L 12 11 L 13 8 z "
     id="path8" />
  <path
     style="fill-opacity:0.2;fill-rule:evenodd"
     d="M 13 8 L 11 9 L 2 9 L 2 10 L 11 10 L 13 8 z M 1 28 L 1 29 L 31 29 L 31 28 L 1 28 z "
     class="ColorScheme-Text"
     id="path10" />
  <path
     d="m 22.786417,17.866052 c 0,-0.913976 -0.743572,-1.655204 -1.655134,-1.655204 -0.359145,0 -0.70212,0.1151 -0.985284,0.324614 -0.803461,-0.405192 -1.758813,-0.649148 -2.769361,-0.706714 l 0.660662,-1.82552 1.597662,0.398267 c 0.03453,0.656081 0.580092,1.176283 1.2431,1.176283 0.685934,0 1.245352,-0.559409 1.245352,-1.24534 0,-0.686021 -0.559418,-1.245438 -1.245352,-1.245438 -0.467325,0 -0.874776,0.257814 -1.088881,0.63998 l -2.189264,-0.547904 -0.953004,2.635838 c -1.098065,0.0322 -2.138651,0.280832 -3.006496,0.715962 C 13.357248,16.321348 13.016622,16.208589 12.657462,16.208589 11.743576,16.210989 11,16.95442 11,17.866048 c 0,0.446573 0.184159,0.877028 0.499524,1.185563 -0.02064,0.131197 -0.03219,0.264734 -0.03219,0.398172 0,1.001387 0.584672,1.931465 1.643613,2.617486 1.012897,0.658328 2.354999,1.019731 3.777673,1.019731 1.422672,0 2.762443,-0.361403 3.777577,-1.019731 1.058946,-0.688355 1.643707,-1.618345 1.643707,-2.617486 0,-0.1312 -0.01154,-0.262397 -0.02989,-0.393597 0.319956,-0.306179 0.506456,-0.73898 0.506456,-1.190138 z m -8.485341,0.966865 c 0,-0.531804 0.4328,-0.964606 0.964607,-0.964606 0.531722,0 0.964523,0.432802 0.964523,0.964606 0,0.531713 -0.432801,0.964513 -0.964523,0.964513 -0.531807,0 -0.964607,-0.4328 -0.964607,-0.964513 z m 2.654272,3.052435 c -0.748169,0 -1.4779,-0.211769 -2.10861,-0.612287 l 0.370576,-0.582427 c 0.520293,0.331449 1.12341,0.506443 1.740363,0.506443 0.616971,0 1.217747,-0.174994 1.740285,-0.506443 l 0.370668,0.582427 c -0.635394,0.400518 -1.36512,0.612287 -2.113282,0.612287 z m 1.710426,-2.087922 c -0.531811,0 -0.964526,-0.4328 -0.964526,-0.964513 0,-0.531804 0.432715,-0.964606 0.964526,-0.964606 0.531802,0 0.964512,0.432802 0.964512,0.964606 0,0.531713 -0.43271,0.964513 -0.964512,0.964513 z m 0,0"
     id="path2-3"
     style="fill:#ffffff;fill-opacity:1;stroke-width:0.0230207" />
</svg>
