<?xml version="1.0" encoding="UTF-8" standalone="no"?>
<svg
   xmlns:dc="http://purl.org/dc/elements/1.1/"
   xmlns:cc="http://creativecommons.org/ns#"
   xmlns:rdf="http://www.w3.org/1999/02/22-rdf-syntax-ns#"
   xmlns:svg="http://www.w3.org/2000/svg"
   xmlns="http://www.w3.org/2000/svg"
   xmlns:sodipodi="http://sodipodi.sourceforge.net/DTD/sodipodi-0.dtd"
   xmlns:inkscape="http://www.inkscape.org/namespaces/inkscape"
   viewBox="0 0 32 32"
   version="1.1"
   id="svg14"
   sodipodi:docname="folder-openSUSE.svg"
   inkscape:version="1.0.1 (3bc2e813f5, 2020-09-07)">
  <metadata
     id="metadata18">
    <rdf:RDF>
      <cc:Work
         rdf:about="">
        <dc:format>image/svg+xml</dc:format>
        <dc:type
           rdf:resource="http://purl.org/dc/dcmitype/StillImage" />
      </cc:Work>
    </rdf:RDF>
  </metadata>
  <sodipodi:namedview
     pagecolor="#ffffff"
     bordercolor="#666666"
     borderopacity="1"
     objecttolerance="10"
     gridtolerance="10"
     guidetolerance="10"
     inkscape:pageopacity="0"
     inkscape:pageshadow="2"
     inkscape:window-width="1920"
     inkscape:window-height="1016"
     id="namedview16"
     showgrid="false"
     inkscape:zoom="7.375"
     inkscape:cx="16"
     inkscape:cy="16"
     inkscape:window-x="0"
     inkscape:window-y="0"
     inkscape:window-maximized="1"
     inkscape:current-layer="svg14"
     inkscape:document-rotation="0" />
  <defs
     id="defs3051">
    <style
       type="text/css"
       id="current-color-scheme">
      .ColorScheme-Text {
        color:#31363b;
      }
      .ColorScheme-Background {
        color:#eff0f1;
      }
      .ColorScheme-Highlight {
        color:#3daee9;
      }
      .ColorScheme-ViewText {
        color:#31363b;
      }
      .ColorScheme-ViewBackground {
        color:#fcfcfc;
      }
      .ColorScheme-ViewHover {
        color:#93cee9;
      }
      .ColorScheme-ViewFocus{
        color:#3daee9;
      }
      .ColorScheme-ButtonText {
        color:#31363b;
      }
      .ColorScheme-ButtonBackground {
        color:#eff0f1;
      }
      .ColorScheme-ButtonHover {
        color:#93cee9;
      }
      .ColorScheme-ButtonFocus{
        color:#3daee9;
      }
      </style>
  </defs>
  <path
     style="fill:#00171e;fill-opacity:1;stroke:none"
     d="M 2 3 L 2 10 L 1 10 L 1 29 L 12 29 L 13 29 L 31 29 L 31 8 L 30 8 L 30 5 L 16 5 L 14 3 L 2 3 z "
     class="ColorScheme-Highlight"
     id="path4" />
  <path
     style="fill-opacity:1;fill-rule:evenodd;fill:#3daee9"
     d="m 2,3 0,7 9,0 L 13,8 30,8 30,5 16,5 14,3 2,3 Z"
     id="path6" />
  <path
     style="fill:#ffffff;fill-opacity:0.2;fill-rule:evenodd"
     d="M 14 3 L 15 6 L 30 6 L 30 5 L 16 5 L 14 3 z M 13 8 L 11 10 L 1 10 L 1 11 L 12 11 L 13 8 z "
     id="path8" />
  <path
     style="fill-opacity:0.2;fill-rule:evenodd"
     d="M 13 8 L 11 9 L 2 9 L 2 10 L 11 10 L 13 8 z M 1 28 L 1 29 L 31 29 L 31 28 L 1 28 z "
     class="ColorScheme-Text"
     id="path10" />
  <path
     style="color:#4d4d4d;font-size:20.4884px;font-family:TrebuchetMS-Bold;fill:#ffffff;fill-opacity:1;fill-rule:evenodd;stroke:none;stroke-width:0.0715874;stroke-miterlimit:4"
     d="m 16,13 c -2.761217,0 -5,2.238531 -5,5 0,2.761468 2.238783,5 5,5 2.761217,0 4.999999,-2.238532 5,-5 0,-2.761468 -2.238783,-5 -5,-5 z m 0.02389,0.69245 c 2.379129,0 4.309388,1.928674 4.309388,4.30755 0,2.379133 -1.930512,4.30755 -4.309388,4.30755 -1.284645,0 -2.437379,-0.563026 -3.226523,-1.454875 0.324476,-0.251834 0.867346,-0.1904 1.535911,-0.114192 0.320393,0.03647 0.685638,0.07817 1.062621,0.08656 1.0532,0.0059 2.186406,-0.186102 2.885817,-0.491719 0.452174,-0.198305 0.741683,-0.328893 0.92265,-0.493555 0.06529,-0.05352 0.09952,-0.142948 0.134445,-0.235726 l 0.02389,-0.06261 c 0.02928,-0.07492 0.0714,-0.236191 0.09024,-0.324118 0.0083,-0.0385 0.01255,-0.07985 -0.01474,-0.101296 l -0.0976,0.01842 c -0.306891,0.184031 -1.07362,0.53453 -1.791897,0.548802 -0.890081,0.0186 -2.683999,-0.896027 -2.871094,-0.99263 l -0.01841,-0.02218 c -0.04481,-0.107051 -0.313326,-0.744379 -0.370172,-0.878449 1.291272,0.850316 2.361842,1.32095 3.18233,1.394112 0.912242,0.08106 1.623837,-0.417003 1.928165,-0.629842 0.05943,-0.04051 0.104786,-0.07229 0.123391,-0.07921 l 0.02028,-0.03321 c -0.05049,-0.320652 -0.529091,-1.872281 -0.889503,-2.244934 -0.09992,-0.102213 -0.179364,-0.201677 -0.3407,-0.296503 -1.304525,-0.760335 -4.401935,-1.218254 -4.546965,-1.239415 l -0.02389,0.0076 -0.0092,0.02026 c 0,0 -0.01162,0.643175 -0.01283,0.71455 -0.106291,-0.03521 -0.435866,-0.143082 -0.907917,-0.272562 0.615924,-0.76212 1.559838,-1.438308 3.211785,-1.438308 z m 1.138124,2.279925 c 0.02197,-3.25e-4 0.0442,-0.0013 0.0663,0 0.730765,0.02624 1.304905,0.641749 1.279925,1.372004 -0.013,0.353279 -0.161936,0.679691 -0.419892,0.920809 -0.25871,0.242399 -0.594956,0.368752 -0.950269,0.357282 -0.729497,-0.02729 -1.303636,-0.642774 -1.279932,-1.372011 0.01248,-0.353784 0.162259,-0.682288 0.421733,-0.922644 0.242303,-0.227257 0.552424,-0.350491 0.882137,-0.35544 z m -0.03498,0.390424 c -0.212821,0.01289 -0.413666,0.09935 -0.5709,0.246776 -0.179186,0.16823 -0.284911,0.395999 -0.292813,0.642729 -0.01676,0.509772 0.382073,0.938775 0.891338,0.957645 0.247498,0.0076 0.482275,-0.07908 0.662986,-0.246779 0.180206,-0.168995 0.285175,-0.398852 0.292816,-0.644569 0.01714,-0.510545 -0.383656,-0.937958 -0.893181,-0.955802 -0.03081,-0.0017 -0.05979,-0.0021 -0.09025,0 z m 0.2431,0.462251 c 0.226339,0 0.408837,0.122996 0.408836,0.2744 0,0.150633 -0.182497,0.2744 -0.408836,0.2744 -0.227107,0 -0.410684,-0.124021 -0.410684,-0.2744 0,-0.151403 0.183577,-0.2744 0.410684,-0.2744 z"
     id="path2445"
     class="ColorScheme-Text"
     inkscape:connector-curvature="0" />
</svg>
