<?xml version="1.0" encoding="UTF-8" standalone="no"?>
<svg
   xmlns:dc="http://purl.org/dc/elements/1.1/"
   xmlns:cc="http://creativecommons.org/ns#"
   xmlns:rdf="http://www.w3.org/1999/02/22-rdf-syntax-ns#"
   xmlns:svg="http://www.w3.org/2000/svg"
   xmlns="http://www.w3.org/2000/svg"
   xmlns:xlink="http://www.w3.org/1999/xlink"
   xmlns:sodipodi="http://sodipodi.sourceforge.net/DTD/sodipodi-0.dtd"
   xmlns:inkscape="http://www.inkscape.org/namespaces/inkscape"
   viewBox="0 0 32 32"
   version="1.1"
   id="svg12"
   sodipodi:docname="folder-Pop_OS.svg"
   inkscape:version="1.0.1 (3bc2e813f5, 2020-09-07)">
  <metadata
     id="metadata16">
    <rdf:RDF>
      <cc:Work
         rdf:about="">
        <dc:format>image/svg+xml</dc:format>
        <dc:type
           rdf:resource="http://purl.org/dc/dcmitype/StillImage" />
      </cc:Work>
    </rdf:RDF>
  </metadata>
  <sodipodi:namedview
     pagecolor="#ffffff"
     bordercolor="#666666"
     borderopacity="1"
     objecttolerance="10"
     gridtolerance="10"
     guidetolerance="10"
     inkscape:pageopacity="0"
     inkscape:pageshadow="2"
     inkscape:window-width="1920"
     inkscape:window-height="1007"
     id="namedview14"
     showgrid="false"
     inkscape:zoom="22.72998"
     inkscape:cx="8.1029407"
     inkscape:cy="16"
     inkscape:window-x="0"
     inkscape:window-y="0"
     inkscape:window-maximized="1"
     inkscape:current-layer="svg12"
     inkscape:document-rotation="0" />
  <defs
     id="defs3051">
    <style
       type="text/css"
       id="current-color-scheme">
      .ColorScheme-Text {
        color:#31363b;
      }
      .ColorScheme-Background {
        color:#eff0f1;
      }
      .ColorScheme-Highlight {
        color:#3daee9;
      }
      .ColorScheme-ViewText {
        color:#31363b;
      }
      .ColorScheme-ViewBackground {
        color:#fcfcfc;
      }
      .ColorScheme-ViewHover {
        color:#93cee9;
      }
      .ColorScheme-ViewFocus{
        color:#3daee9;
      }
      .ColorScheme-ButtonText {
        color:#31363b;
      }
      .ColorScheme-ButtonBackground {
        color:#eff0f1;
      }
      .ColorScheme-ButtonHover {
        color:#93cee9;
      }
      .ColorScheme-ButtonFocus{
        color:#3daee9;
      }
      </style>
    <linearGradient
       inkscape:collect="always"
       xlink:href="#linearGradient848"
       id="linearGradient882"
       x1="38.886646"
       y1="37.846565"
       x2="42.124203"
       y2="37.846565"
       gradientUnits="userSpaceOnUse"
       gradientTransform="matrix(0.57142875,0,0,0.57142875,-2.0062923,-4.3775814)" />
    <linearGradient
       inkscape:collect="always"
       id="linearGradient848">
      <stop
         style="stop-color:#286aeb;stop-opacity:1"
         offset="0"
         id="stop844" />
      <stop
         style="stop-color:#00aad4;stop-opacity:1"
         offset="1"
         id="stop846" />
    </linearGradient>
    <linearGradient
       inkscape:collect="always"
       xlink:href="#linearGradient848"
       id="linearGradient866"
       x1="29.485872"
       y1="39.437679"
       x2="33.387089"
       y2="39.437679"
       gradientUnits="userSpaceOnUse"
       gradientTransform="matrix(0.57142875,0,0,0.57142875,-2.0062923,-4.3775814)" />
    <linearGradient
       inkscape:collect="always"
       xlink:href="#linearGradient848"
       id="linearGradient874"
       x1="34.126762"
       y1="39.295525"
       x2="38.177818"
       y2="39.295525"
       gradientUnits="userSpaceOnUse"
       gradientTransform="matrix(0.57142875,0,0,0.57142875,-2.0062923,-4.3775814)" />
    <linearGradient
       inkscape:collect="always"
       xlink:href="#linearGradient848"
       id="linearGradient858"
       x1="21.886"
       y1="38.515591"
       x2="28.731234"
       y2="38.515591"
       gradientUnits="userSpaceOnUse"
       gradientTransform="matrix(0.57142875,0,0,0.57142875,-2.0062923,-4.3775814)" />
  </defs>
  <path
     style="fill:#00171e;fill-opacity:1;stroke:none"
     d="M 2 3 L 2 10 L 1 10 L 1 29 L 12 29 L 13 29 L 31 29 L 31 8 L 30 8 L 30 5 L 16 5 L 14 3 L 2 3 z "
     class="ColorScheme-Highlight"
     id="path4" />
  <path
     style="fill-opacity:1;fill-rule:evenodd;fill:#3daee9"
     d="m 2,3 0,7 9,0 L 13,8 30,8 30,5 16,5 14,3 2,3 Z"
     id="path6" />
  <path
     style="fill:#ffffff;fill-opacity:0.2;fill-rule:evenodd"
     d="M 14 3 L 15 6 L 30 6 L 30 5 L 16 5 L 14 3 z M 13 8 L 11 10 L 1 10 L 1 11 L 12 11 L 13 8 z "
     id="path8" />
  <path
     style="fill-opacity:0.2;fill-rule:evenodd"
     d="M 13 8 L 11 9 L 2 9 L 2 10 L 11 10 L 13 8 z M 1 28 L 1 29 L 31 29 L 31 28 L 1 28 z "
     class="ColorScheme-Text"
     id="path10" />
  <path
     style="fill:url(#linearGradient882);fill-opacity:1;stroke-width:0.0112957"
     id="path2-3"
     d="m 20.851787,19.032776 c -0.02122,0.0902 -0.06708,0.170123 -0.14528,0.22036 -0.122923,0.07878 -0.272677,0.05595 -0.378842,-0.03996 -0.09946,-0.08906 -0.132984,-0.239771 -0.101694,-0.369931 0.03242,-0.135868 0.13522,-0.255754 0.267086,-0.293429 0.293914,-0.08335 0.415728,0.243192 0.35873,0.482962 z m -0.179925,-0.927109 c -0.182156,-0.07421 -0.11957,-1.050415 0.04692,-2.235564 0.04692,-0.331108 0.127399,-0.487529 0.217919,-0.567452 0.129637,-0.113035 0.365435,-0.117601 0.525239,-0.09362 0.183279,0.02739 0.358732,0.114174 0.491715,0.245475 0.117344,0.11646 0.130751,0.235203 0.09052,0.38934 -0.06593,0.24548 -0.178805,0.480681 -0.287206,0.710175 -0.0257,0.05596 -0.250329,0.490957 -0.2805,0.544618 -0.542002,0.975063 -0.650403,1.06983 -0.804623,1.007032 z" />
  <path
     style="fill:url(#linearGradient866);fill-opacity:1;stroke-width:0.0112957"
     id="path4-3"
     d="m 16.995189,17.666091 c 0.107282,0.468122 0.09611,0.98191 0.0042,1.351844 -0.08606,0.349376 -0.319613,0.662218 -0.690635,0.76726 -0.325201,0.09248 -0.704044,0.02513 -0.936489,-0.203234 -0.382197,-0.374497 -0.605705,-1.253651 -0.506241,-1.891893 0.08046,-0.512649 0.350904,-1.169163 0.944312,-1.197706 0.038,-0.0023 0.07599,-9.85e-4 0.113986,0.0023 0.604585,0.05596 0.934259,0.576589 1.070596,1.171445 z m -1.092946,1.06526 c 0.0335,0.0057 0.06706,0.0057 0.100577,-0.0047 0.112871,-0.03311 0.177689,-0.152997 0.207861,-0.269456 0.04582,-0.176973 0.03909,-0.367646 -0.02012,-0.541194 -0.03018,-0.08791 -0.07488,-0.173548 -0.143047,-0.237486 -0.240267,-0.224925 -0.480538,0.0091 -0.521889,0.275164 -0.03239,0.207802 0.01452,0.448712 0.141931,0.616551 0.05924,0.07764 0.14416,0.145002 0.234678,0.160988 z" />
  <path
     style="fill:url(#linearGradient874);fill-opacity:1;stroke-width:0.0112957"
     id="path6-6"
     d="m 18.303819,18.658279 c -0.0012,0.864311 0.08381,1.525389 -0.288327,1.604171 -0.301731,0.06279 -0.29167,-0.207802 -0.315141,-0.43501 -0.0894,-0.880297 -0.17098,-2.34289 -0.205625,-3.227754 0.02459,-0.380203 0.273795,-0.613124 0.533061,-0.67021 0.400075,-0.08792 0.826975,-0.06279 1.181233,0.160988 0.70069,0.443 0.756566,1.255932 0.331902,1.919294 -0.232446,0.361938 -0.93537,0.624543 -1.237103,0.601707 z m 0.0894,-1.937566 c -0.04359,0.0069 -0.115106,0.0274 -0.135222,0.07079 -0.04808,0.101615 -0.04469,0.746712 0.0391,1.017307 0.01344,0.04452 0.04359,0.08677 0.08716,0.102761 0.15869,0.05935 0.301737,-0.139297 0.366551,-0.259183 0.09052,-0.166696 0.119576,-0.363078 0.06255,-0.545761 -0.05366,-0.170123 -0.220152,-0.41674 -0.42019,-0.385915 z" />
  <path
     style="fill:url(#linearGradient858);fill-opacity:1;stroke-width:0.0112957"
     id="path8-7"
     d="m 14.29635,17.150015 c -0.262619,0.567456 -0.698459,1.01845 -1.30192,1.241092 0.173212,0.462412 0.349782,0.919117 0.521881,1.380387 0.09611,0.248903 0.187751,0.521784 0.103935,0.76726 -0.08716,0.251189 -0.426897,0.320835 -0.673876,0.05367 -0.474946,-0.516075 -2.08084,-3.786072 -2.199297,-4.031549 -0.10058,-0.211226 -0.251442,-0.437292 -0.246976,-0.681629 0.0078,-0.367648 0.564353,-0.739861 0.831445,-0.930534 0.373252,-0.26603 0.804623,-0.447569 1.266163,-0.448712 0.359845,0 0.667164,0.100476 0.939845,0.278588 0.417957,0.274023 0.708513,0.711318 0.815799,1.205699 0.09387,0.435006 0.07374,0.880296 -0.05698,1.165735 m -1.223705,-0.621118 c -0.09388,-0.348238 -0.306207,-0.669071 -0.573296,-0.893999 -0.05811,-0.04909 -0.120696,-0.09476 -0.193336,-0.119882 -0.500646,-0.167838 -0.283844,0.687338 -0.202272,0.90313 0.112872,0.302565 0.283856,0.685053 0.51295,0.913409 0.05028,0.05026 0.109518,0.09476 0.177684,0.108464 0.103932,0.02168 0.200036,-0.05252 0.252563,-0.139296 0.0436,-0.07193 0.06032,-0.157561 0.0704,-0.240908 0.01904,-0.176974 0.0024,-0.357372 -0.04469,-0.530918 z" />
  <path
     style="fill:#3bb4c4;fill-opacity:1;stroke-width:0.0112957"
     id="path10-5"
     d="m 20.283357,21.496364 c -0.0022,0.501233 -0.30173,1.002467 -0.962193,1.002467 -0.660458,0 -0.967781,-0.49324 -0.967781,-0.996758 0,-0.627967 0.428015,-1.016165 0.981189,-1.016165 0.641468,0.0059 0.954375,0.492099 0.948785,1.010456 z m -0.948785,-0.694188 c -0.4146,0 -0.647046,0.294575 -0.64928,0.696471 0,0.34938 0.191096,0.677065 0.64146,0.677065 0.450365,0 0.622464,-0.355088 0.622464,-0.680488 0.0054,-0.337962 -0.169864,-0.685057 -0.614644,-0.693048 z m 1.225933,1.439758 c 0,0.07422 0.0022,-0.352804 0,-0.417883 h 0.303969 l 0.02122,0.261463 c 0.09946,0.05826 0.253679,0.101617 0.379963,0.101617 0.23468,0 0.479419,-0.06053 0.479419,-0.294577 -0.0078,-0.212364 -0.280499,-0.255752 -0.500655,-0.278586 -0.37437,-0.03881 -0.676106,-0.132445 -0.676106,-0.561748 0,-0.382487 0.423545,-0.573161 0.738691,-0.573161 0.253679,-0.0059 0.433601,0.03537 0.662693,0.222642 0,0.154137 -0.0024,0.245478 -0.0024,0.399614 H 21.67348 l -0.01902,-0.253469 c -0.118458,-0.05826 -0.240269,-0.07422 -0.334142,-0.07192 -0.202271,0.0023 -0.417957,0.09933 -0.417957,0.27288 0,0.17012 0.139693,0.216934 0.387783,0.253469 0.404549,0.0548 0.794566,0.148432 0.794566,0.589149 -0.0024,0.481819 -0.444776,0.608557 -0.824739,0.608557 -0.28944,0.0012 -0.47048,-0.05369 -0.699572,-0.258038 z"
     inkscape:connector-curvature="0" />
  <path
     style="fill:#faa41a;stroke-width:0.0112957"
     id="path12"
     d="m 17.94325,22.334415 c 0,0.08792 -0.06929,0.158705 -0.155338,0.158705 h -1.795871 c -0.08605,0 -0.155335,-0.07078 -0.155335,-0.158705 v -0.0137 c 0,-0.0879 0.06928,-0.158707 0.155335,-0.158707 h 1.795871 c 0.08604,0 0.155338,0.07079 0.155338,0.158707 z"
     inkscape:connector-curvature="0" />
</svg>
