<svg xmlns="http://www.w3.org/2000/svg" viewBox="0 0 16 16"><defs><style>.cls-1{fill:#dedede;}</style></defs><title>tv-symbolic</title><g id="레이어_1" data-name="레이어 1"><path class="cls-1" d="M14.38,2H1.62A.62.62,0,0,0,1,2.58v8.26a.62.62,0,0,0,.62.62H7.5v.66L4,13.06a.5.5,0,0,0-.36.61.51.51,0,0,0,.62.35L8,13l3.73,1a.51.51,0,0,0,.62-.35.5.5,0,0,0-.36-.61L8.5,12.12v-.66h5.88a.62.62,0,0,0,.62-.62V2.58A.62.62,0,0,0,14.38,2ZM14,10.19a.27.27,0,0,1-.27.27H2.27A.27.27,0,0,1,2,10.19v-7A.27.27,0,0,1,2.27,3H13.73a.27.27,0,0,1,.27.27Z"/></g></svg>
