<svg xmlns="http://www.w3.org/2000/svg" viewBox="0 0 16 16"><defs><style>.cls-1{fill:#dedede;}</style></defs><title>video-display-symbolic</title><g id="레이어_1" data-name="레이어 1"><path class="cls-1" d="M14.38,2.39H1.62A.62.62,0,0,0,1,3v8.26a.62.62,0,0,0,.62.62H14.38a.62.62,0,0,0,.62-.62V3A.62.62,0,0,0,14.38,2.39ZM14,10.62a.27.27,0,0,1-.27.27H2.27A.27.27,0,0,1,2,10.62v-7a.27.27,0,0,1,.27-.27H13.73a.27.27,0,0,1,.27.27Z"/><rect class="cls-1" x="3" y="12.61" width="10" height="1" rx="0.5"/></g></svg>
