<?xml version="1.0" encoding="UTF-8" standalone="no"?>
<!-- Generator: Adobe Illustrator 23.0.0, SVG Export Plug-In . SVG Version: 6.00 Build 0)  -->

<svg
   xmlns:dc="http://purl.org/dc/elements/1.1/"
   xmlns:cc="http://creativecommons.org/ns#"
   xmlns:rdf="http://www.w3.org/1999/02/22-rdf-syntax-ns#"
   xmlns:svg="http://www.w3.org/2000/svg"
   xmlns="http://www.w3.org/2000/svg"
   xmlns:sodipodi="http://sodipodi.sourceforge.net/DTD/sodipodi-0.dtd"
   xmlns:inkscape="http://www.inkscape.org/namespaces/inkscape"
   version="1.1"
   id="레이어_1"
   x="0px"
   y="0px"
   viewBox="0 0 256 256"
   style="enable-background:new 0 0 256 256;"
   xml:space="preserve"
   sodipodi:docname="application-x-yaml.svg"
   inkscape:version="0.92.5 (2060ec1f9f, 2020-04-08)"><metadata
   id="metadata19"><rdf:RDF><cc:Work
       rdf:about=""><dc:format>image/svg+xml</dc:format><dc:type
         rdf:resource="http://purl.org/dc/dcmitype/StillImage" /><dc:title></dc:title></cc:Work></rdf:RDF></metadata><defs
   id="defs17"><filter
     color-interpolation-filters="sRGB"
     height="1.0669"
     width="1.078"
     y="-.033428"
     x="-.039001"
     id="a"><feGaussianBlur
       id="feGaussianBlur826"
       stdDeviation="0.20637525" /></filter></defs><sodipodi:namedview
   pagecolor="#ffffff"
   bordercolor="#666666"
   borderopacity="1"
   objecttolerance="10"
   gridtolerance="10"
   guidetolerance="10"
   inkscape:pageopacity="0"
   inkscape:pageshadow="2"
   inkscape:window-width="1624"
   inkscape:window-height="1025"
   id="namedview15"
   showgrid="false"
   inkscape:zoom="0.921875"
   inkscape:cx="128"
   inkscape:cy="128"
   inkscape:window-x="144"
   inkscape:window-y="56"
   inkscape:window-maximized="0"
   inkscape:current-layer="g893" />
<style
   type="text/css"
   id="style2">
	.st0{fill:#E6E6E6;}
	.st1{fill:#FAFAFA;}
	.st2{fill:#897C74;}
</style>
<path
   class="st0"
   d="M251.7,90.4c-3.1-23.4-11.4-44.6-26-60.1l0,0c-15.6-14.6-36.7-22.9-60.1-26C143.2,1.3,128,2,128,2  s-15.2-0.7-37.6,2.3C67,7.4,45.8,15.7,30.3,30.3C15.7,45.8,7.5,67,4.3,90.4c-3,22.3-2.2,37.6-2.2,37.6s-0.7,15.2,2.2,37.6  c3.1,23.4,11.4,44.6,26,60.1l0,0c15.6,14.6,36.7,22.9,60.1,26c22.3,3,37.6,2.2,37.6,2.2s15.2,0.7,37.6-2.2  c23.4-3.1,44.6-11.4,60.1-26l0,0c14.6-15.6,22.9-36.7,26-60.1c3-22.3,2.2-37.6,2.2-37.6S254.7,112.8,251.7,90.4"
   id="path4" />
<path
   class="st1"
   d="M249.8,91c-3-23-11.2-43.9-25.6-59.2l0,0C208.8,17.5,188,9.3,165,6.3C142.9,3.3,128,4,128,4s-14.9-0.7-37,2.2  c-23,3-43.9,11.2-59.2,25.6C17.5,47.1,9.4,68,6.2,91c-2.9,22-2.1,37-2.1,37S3.4,143,6.2,165c3,23,11.2,43.9,25.6,59.2l0,0  C47.2,238.6,68,246.8,91,249.8c22,2.9,37,2.1,37,2.1s14.9,0.7,37-2.1c23-3,43.9-11.2,59.2-25.6l0,0c14.4-15.3,22.6-36.1,25.6-59.2  c2.9-22,2.1-37,2.1-37S252.7,113,249.8,91"
   id="path6" />

<g
   id="g893"
   transform="matrix(18.626213,0,0,18.626213,269.35304,76.311564)"><g
     id="g847"
     transform="matrix(0.05509652,0,0,0.05509652,-15.956363,-5.7192394)"
     style="fill:#f09020;enable-background:new"><path
       id="path839"
       d="m 192,228 -7.9539,0.0344 v -21.156 c -3.7298,3.5759 -12.115,10.687 -12.115,10.687 l -11.931,-10.687 v 21.121 l -8,-0.0436 v -31.956 c 0,0 5.5277,0.0342 7.6495,0.0671 0.26076,0 0.54932,0.28 0.76305,0.4916 3.1847,3.1605 11.546,10.21 11.546,10.21 0,0 8.9156,-7.5065 11.489,-10.108 0.37683,-0.42619 0.92817,-0.65618 1.4962,-0.62412 1.6266,0.0299 5.3591,-0.0374 7.0562,-0.0374 z"
       class="cls-1"
       inkscape:connector-curvature="0" /><path
       id="path841"
       d="m 127.14,205.1 c 0,0 5.7412,-5.7006 8.6278,-8.536 0.25822,-0.25395 0.6402,-0.53564 0.96457,-0.54204 2.4669,-0.0285 7.2676,-0.0234 7.2676,-0.0234 v 32 h -8.0012 v -20.803 c 0,0 -13.572,13.58 -20.054,20.069 -0.45057,0.49497 -1.0984,0.76332 -1.767,0.73197 -3.0218,-0.0405 -9.9551,-0.009 -9.9551,-0.009 z"
       class="cls-1"
       inkscape:connector-curvature="0" /><path
       id="path843"
       d="M 100.53,212.63 83.875,196.003 c 0,0 6.5,0 8.6803,0.007 0.59603,-0.0362 1.1765,0.19884 1.5795,0.63947 3.4446,3.4915 6.9149,6.9447 10.385,10.404 0.24512,0.24514 0.50518,0.47322 0.79081,0.73967 3.6834,-3.6642 7.339,-7.2751 10.956,-10.924 0.59257,-0.59897 1.1745,-0.88247 2.0314,-0.86542 1.6766,-8e-4 8.413,-8e-4 8.413,-8e-4 0,0 -12.197,12.203 -17.364,17.354 -4.6511,4.6319 -9.3236,9.2447 -13.962,13.892 -0.47434,0.51688 -1.1563,0.79249 -1.8566,0.75032 -2.3544,0.004 -8.2599,0.004 -8.2599,0.004 z"
       class="cls-1"
       inkscape:connector-curvature="0" /><path
       id="path845"
       d="m 200,196 h 8 v 26 c 0,0 10.45,0.0106 15.257,-0.015 0.60169,-0.0383 1.1884,0.19759 1.596,0.64183 1.5105,1.564 3.043,3.1481 4.5791,4.6864 0.19255,0.19254 0.36157,0.40649 0.60761,0.68677 l -30.04,2e-5 z"
       class="cls-1"
       inkscape:connector-curvature="0" /></g><g
     id="g863"
     transform="matrix(0.05509652,0,0,0.05509652,-15.963276,-6.1600448)"
     style="fill:none;stroke:#999999;stroke-width:8;enable-background:new"><ellipse
       id="ellipse849"
       ry="20"
       rx="52"
       cy="115.98"
       cx="152"
       style="stroke-linejoin:round;stroke-dashoffset:1" /><path
       id="path851"
       d="m 99.999,115.99 v 48"
       inkscape:connector-curvature="0" /><g
       id="g859"
       style="stroke-linejoin:round;stroke-dashoffset:1"><path
         id="path853"
         d="m 204,131.98 a 52,20 0 0 1 -26,17.32 52,20 0 0 1 -52,0 52,20 0 0 1 -26,-17.32"
         inkscape:connector-curvature="0" /><path
         id="path855"
         d="m 204,147.98 a 52,20 0 0 1 -26,17.321 52,20 0 0 1 -52,0 52,20 0 0 1 -26,-17.321"
         inkscape:connector-curvature="0" /><path
         id="path857"
         d="m 204,163.98 a 52,20 0 0 1 -26,17.321 52,20 0 0 1 -52,0 52,20 0 0 1 -26,-17.321"
         inkscape:connector-curvature="0" /></g><path
       id="path861"
       d="m 204,115.99 v 48"
       inkscape:connector-curvature="0" /></g></g></svg>