<?xml version="1.0" encoding="utf-8"?>
<!-- Generator: Adobe Illustrator 23.0.0, SVG Export Plug-In . SVG Version: 6.00 Build 0)  -->
<svg version="1.1" id="레이어_1" xmlns="http://www.w3.org/2000/svg" xmlns:xlink="http://www.w3.org/1999/xlink" x="0px"
	 y="0px" viewBox="0 0 256 256" style="enable-background:new 0 0 256 256;" xml:space="preserve">
<style type="text/css">
	.st0{fill:#E6E6E6;}
	.st1{fill:#FAFAFA;}
	.st2{fill:#038387;}
	.st3{opacity:0.2;enable-background:new    ;}
	.st4{opacity:0.1;enable-background:new    ;}
	.st5{fill:#37C6D0;}
	.st6{fill:#1A9BA1;}
	.st7{fill:url(#SVGID_1_);}
	.st8{fill:#FFFFFF;}
</style>
<path class="st0" d="M251.7,90.4c-3.1-23.4-11.4-44.6-26-60.1l0,0c-15.6-14.6-36.7-22.9-60.1-26C143.2,1.3,128,2,128,2
	s-15.2-0.7-37.6,2.3C67,7.4,45.8,15.7,30.3,30.3C15.7,45.8,7.5,67,4.3,90.4c-3,22.3-2.2,37.6-2.2,37.6s-0.7,15.2,2.2,37.6
	c3.1,23.4,11.4,44.6,26,60.1l0,0c15.6,14.6,36.7,22.9,60.1,26c22.3,3,37.6,2.2,37.6,2.2s15.2,0.7,37.6-2.2
	c23.4-3.1,44.6-11.4,60.1-26l0,0c14.6-15.6,22.9-36.7,26-60.1c3-22.3,2.2-37.6,2.2-37.6S254.7,112.8,251.7,90.4"/>
<path class="st1" d="M249.8,91c-3-23-11.2-43.9-25.6-59.2l0,0C208.8,17.5,188,9.3,165,6.3C142.9,3.3,128,4,128,4s-14.9-0.7-37,2.2
	c-23,3-43.9,11.2-59.2,25.6C17.5,47.1,9.4,68,6.2,91c-2.9,22-2.1,37-2.1,37S3.4,143,6.2,165c3,23,11.2,43.9,25.6,59.2l0,0
	C47.2,238.6,68,246.8,91,249.8c22,2.9,37,2.1,37,2.1s14.9,0.7,37-2.1c23-3,43.9-11.2,59.2-25.6l0,0c14.4-15.3,22.6-36.1,25.6-59.2
	c2.9-22,2.1-37,2.1-37S252.7,113,249.8,91"/>
<path class="st2" d="M160.7,65.7H206c3.9,0,7,3.1,7,7v110.5c0,3.9-3.1,7-7,7h-45.3c-3.9,0-7-3.1-7-7V72.7
	C153.7,68.9,156.8,65.7,160.7,65.7z"/>
<rect x="189.8" y="65.7" class="st3" width="3.2" height="124.5"/>
<rect x="192.9" y="65.7" class="st4" width="3.2" height="124.5"/>
<path class="st5" d="M182.1,51.8H90.6c-4.2,0-7.6,3.4-7.6,7.5v21.6h35.9c8.7,0,15.8,7.1,15.8,15.8V134l3.4,0.4l51.8-6.4V59.3
	C189.8,55.2,186.4,51.8,182.1,51.8z"/>
<path class="st2" d="M141.2,153.4l-6.6,1.4v4.4c0,8.7-7.1,15.8-15.8,15.8H82.9v21.9c0,4,3.3,7.3,7.4,7.3h92.1c4.1,0,7.4-3.3,7.4-7.3
	v-30.8L141.2,153.4z"/>
<path class="st6" d="M134.6,128v31.3c0,2.5-0.6,4.8-1.6,6.8h56.8V128H134.6z"/>
<linearGradient id="SVGID_1_" gradientUnits="userSpaceOnUse" x1="61.7356" y1="78.4715" x2="115.5051" y2="184.1626">
	<stop  offset="0" style="stop-color:#058F92"/>
	<stop  offset="0.5" style="stop-color:#038489"/>
	<stop  offset="1" style="stop-color:#026D71"/>
</linearGradient>
<path class="st7" d="M120.5,170.1H53.3c-4.7,0-8.5-3.8-8.5-8.5V94.4c0-4.7,3.8-8.5,8.5-8.5h67.2c4.7,0,8.5,3.8,8.5,8.5v67.2
	C129.1,166.3,125.2,170.1,120.5,170.1z"/>
<path class="st8" d="M87.6,104.2c4.6-0.3,9.1,1,12.7,3.8c3.1,2.8,4.7,6.9,4.4,11.1c0.1,2.9-0.7,5.8-2.2,8.3
	c-1.5,2.4-3.6,4.4-6.2,5.6c-2.9,1.4-6.1,2.1-9.3,2h-8.8v16.8h-9v-47.6H87.6z M78.2,127.7H86c2.5,0.2,4.9-0.6,6.9-2.1
	c1.6-1.6,2.5-3.9,2.3-6.2c0-5.2-3-7.9-8.9-7.9h-8.1V127.7L78.2,127.7z"/>
</svg>
