<?xml version="1.0" encoding="UTF-8" standalone="no"?>
<svg
   xmlns:dc="http://purl.org/dc/elements/1.1/"
   xmlns:cc="http://creativecommons.org/ns#"
   xmlns:rdf="http://www.w3.org/1999/02/22-rdf-syntax-ns#"
   xmlns:svg="http://www.w3.org/2000/svg"
   xmlns="http://www.w3.org/2000/svg"
   xmlns:sodipodi="http://sodipodi.sourceforge.net/DTD/sodipodi-0.dtd"
   xmlns:inkscape="http://www.inkscape.org/namespaces/inkscape"
   width="256"
   height="256"
   version="1.1"
   viewBox="0 0 67.732 67.732"
   id="svg19"
   sodipodi:docname="application-epub+zip.svg"
   inkscape:version="0.92.5 (2060ec1f9f, 2020-04-08)">
  <metadata
     id="metadata23">
    <rdf:RDF>
      <cc:Work
         rdf:about="">
        <dc:format>image/svg+xml</dc:format>
        <dc:type
           rdf:resource="http://purl.org/dc/dcmitype/StillImage" />
        <dc:title></dc:title>
      </cc:Work>
    </rdf:RDF>
  </metadata>
  <sodipodi:namedview
     pagecolor="#ffffff"
     bordercolor="#666666"
     borderopacity="1"
     objecttolerance="10"
     gridtolerance="10"
     guidetolerance="10"
     inkscape:pageopacity="0"
     inkscape:pageshadow="2"
     inkscape:window-width="2928"
     inkscape:window-height="1598"
     id="namedview21"
     showgrid="false"
     inkscape:zoom="3.6875"
     inkscape:cx="196.45681"
     inkscape:cy="140.47458"
     inkscape:window-x="144"
     inkscape:window-y="56"
     inkscape:window-maximized="1"
     inkscape:current-layer="svg19" />
  <defs
     id="defs5">
    <filter
       id="a"
       x="-0.039000999"
       y="-0.033427998"
       width="1.0779999"
       height="1.0669"
       style="color-interpolation-filters:sRGB">
      <feGaussianBlur
         stdDeviation="0.20637525"
         id="feGaussianBlur2" />
    </filter>
  </defs>
  <g
     id="g4543"
     transform="matrix(0.26457812,0,0,0.26457812,-5.6506672e-5,5.7786672e-5)"
     style="fill:#84c835;fill-opacity:1">
    <path
       style="fill:#84c835;fill-opacity:1"
       id="path4"
       d="M 251.7,90.4 C 248.6,67 240.3,45.8 225.7,30.3 v 0 C 210.1,15.7 189,7.4 165.6,4.3 143.2,1.3 128,2 128,2 128,2 112.8,1.3 90.4,4.3 67,7.4 45.8,15.7 30.3,30.3 15.7,45.8 7.5,67 4.3,90.4 1.3,112.7 2.1,128 2.1,128 c 0,0 -0.7,15.2 2.2,37.6 3.1,23.4 11.4,44.6 26,60.1 v 0 c 15.6,14.6 36.7,22.9 60.1,26 22.3,3 37.6,2.2 37.6,2.2 0,0 15.2,0.7 37.6,-2.2 23.4,-3.1 44.6,-11.4 60.1,-26 v 0 c 14.6,-15.6 22.9,-36.7 26,-60.1 3,-22.3 2.2,-37.6 2.2,-37.6 0,0 0.8,-15.2 -2.2,-37.6"
       class="st0"
       inkscape:connector-curvature="0" />
    <path
       id="path6"
       d="m 58,79 v 98 H 198 V 79 Z m 17.5,17.5 h 43.7 v 22.8 H 75.5 Z m 0,40.2 h 43.7 v 22.8 H 75.5 Z m 105,22.8 h -43.7 v -22.8 h 43.7 z m 0,-40.2 H 136.8 V 96.5 h 43.7 z"
       class="st1"
       inkscape:connector-curvature="0"
       style="fill:#84c835;fill-opacity:1" />
  </g>
  <path
     d="m 33.865474,46.337131 -12.471068,-12.472069 12.471068,-12.47057 4.157373,4.156624 -8.314544,8.313546 4.157121,4.157372 12.471069,-12.470569 -10.863559,-10.86356 c -0.887106,-0.887854 -2.326014,-0.887854 -3.213868,0 L 14.687969,32.259003 c -0.887105,0.887104 -0.887105,2.326012 0,3.213867 l 17.571097,17.570598 c 0.887854,0.887855 2.326762,0.887855 3.213868,0 L 53.04403,35.47287 c 0.887105,-0.887855 0.887105,-2.326763 0,-3.213867 l -2.550814,-2.550064 z"
     id="path15"
     inkscape:connector-curvature="0"
     style="fill:#ffffff;stroke-width:0.25288141;enable-background:new" />
  <style
     id="style2"
     type="text/css">
	.st0{fill:#0DC54C;}
	.st1{fill:#FDFFFF;}
</style>
</svg>
