<?xml version="1.0" encoding="utf-8"?>
<!-- Generator: Adobe Illustrator 23.0.0, SVG Export Plug-In . SVG Version: 6.00 Build 0)  -->
<svg version="1.1" id="레이어_1" xmlns="http://www.w3.org/2000/svg" xmlns:xlink="http://www.w3.org/1999/xlink" x="0px"
	 y="0px" viewBox="0 0 256 256" style="enable-background:new 0 0 256 256;" xml:space="preserve">
<style type="text/css">
	.st0{fill:#E96C89;}
	.st1{fill:#E58645;}
	.st2{fill:#FFFFFF;}
</style>
<path class="st0" d="M251.7,90.4c-3.1-23.4-11.4-44.6-26-60.1l0,0c-15.6-14.6-36.7-22.9-60.1-26C143.2,1.3,128,2,128,2
	s-15.2-0.7-37.6,2.3C67,7.4,45.8,15.7,30.3,30.3C15.7,45.8,7.5,67,4.3,90.4c-3,22.3-2.2,37.6-2.2,37.6s-0.7,15.2,2.2,37.6
	c3.1,23.4,11.4,44.6,26,60.1l0,0c15.6,14.6,36.7,22.9,60.1,26c22.3,3,37.6,2.2,37.6,2.2s15.2,0.7,37.6-2.2
	c23.4-3.1,44.6-11.4,60.1-26l0,0c14.6-15.6,22.9-36.7,26-60.1c3-22.3,2.2-37.6,2.2-37.6S254.7,112.8,251.7,90.4"/>
<path class="st1" d="M251.7,90.4c-3.1-23.4-11.4-44.6-26-60.1l0,0c-15.6-14.6-36.7-22.9-60.1-26C143.2,1.3,128,2,128,2
	s-15.2-0.7-37.6,2.3C67,7.4,45.8,15.7,30.3,30.3C15.7,45.8,7.5,67,4.3,90.4c-3,22.3-2.2,37.6-2.2,37.6s-0.7,15.2,2.2,37.6
	c3.1,23.4,11.4,44.6,26,60.1l0,0c15.6,14.6,36.7,22.9,60.1,26c22.3,3,37.6,2.2,37.6,2.2s15.2,0.7,37.6-2.2
	c23.4-3.1,44.6-11.4,60.1-26l0,0c14.6-15.6,22.9-36.7,26-60.1c3-22.3,2.2-37.6,2.2-37.6S254.7,112.8,251.7,90.4"/>
<g>
	<path class="st2" d="M48.2,155.7c0-1.5,0.4-2.8,1.3-3.7c0.9-0.9,2.1-1.3,3.6-1.3c1.5,0,2.8,0.4,3.6,1.3c0.9,0.9,1.3,2.1,1.3,3.6
		c0,1.6-0.4,2.8-1.3,3.7c-0.9,0.9-2.1,1.3-3.6,1.3c-1.5,0-2.8-0.4-3.6-1.3C48.7,158.4,48.2,157.2,48.2,155.7z"/>
	<path class="st2" d="M67.2,156.8l2.6-5.6c3.4,2,6.9,3.1,10.3,3.1c3.2,0,5.6-0.8,7.3-2.5s2.5-4.1,2.5-7.4v-45h6.9v45.1
		c0,5.1-1.5,9-4.4,11.9s-7,4.2-12.2,4.2c-2.5,0-5-0.3-7.2-1C70.6,158.9,68.7,158,67.2,156.8z"/>
	<path class="st2" d="M142.9,143.6h-24.8l-5.3,15.9h-7.4l21.3-60.1h7.7l21.3,60.1h-7.5L142.9,143.6z M140.9,137.4l-10.4-30.7
		l-10.3,30.7H140.9z"/>
	<path class="st2" d="M184.6,136.5h-11.5v23h-6.9V99.4h20c5.9,0,10.4,1.6,13.7,4.9c3.3,3.3,4.9,7.8,4.9,13.6c0,4.8-1.1,8.7-3.3,11.7
		c-2.2,3.1-5.4,5.1-9.5,6.1l15.8,23.7h-8.5L184.6,136.5z M173.1,130.4h13.1c3.8,0,6.6-1,8.5-3.1c1.9-2.1,2.9-5.2,2.9-9.3
		c0-4-1-7.1-3-9.2c-2-2.1-4.9-3.2-8.8-3.2h-12.8V130.4z"/>
</g>
</svg>
