<?xml version="1.0" encoding="UTF-8" standalone="no"?>
<!-- Generator: Adobe Illustrator 23.0.0, SVG Export Plug-In . SVG Version: 6.00 Build 0)  -->

<svg
   xmlns:ns="&amp;ns_sfw;"
   xmlns:dc="http://purl.org/dc/elements/1.1/"
   xmlns:cc="http://creativecommons.org/ns#"
   xmlns:rdf="http://www.w3.org/1999/02/22-rdf-syntax-ns#"
   xmlns:svg="http://www.w3.org/2000/svg"
   xmlns="http://www.w3.org/2000/svg"
   xmlns:sodipodi="http://sodipodi.sourceforge.net/DTD/sodipodi-0.dtd"
   xmlns:inkscape="http://www.inkscape.org/namespaces/inkscape"
   version="1.1"
   id="video-x-generic"
   x="0px"
   y="0px"
   viewBox="0 0 256 256"
   style="enable-background:new 0 0 256 256;"
   xml:space="preserve"
   sodipodi:docname="application-x-kdenlivetitle.svg"
   inkscape:version="0.92.5 (2060ec1f9f, 2020-04-08)"><defs
   id="defs33" /><sodipodi:namedview
   pagecolor="#ffffff"
   bordercolor="#666666"
   borderopacity="1"
   objecttolerance="10"
   gridtolerance="10"
   guidetolerance="10"
   inkscape:pageopacity="0"
   inkscape:pageshadow="2"
   inkscape:window-width="1262"
   inkscape:window-height="480"
   id="namedview31"
   showgrid="false"
   inkscape:zoom="0.921875"
   inkscape:cx="136.67797"
   inkscape:cy="128"
   inkscape:window-x="72"
   inkscape:window-y="28"
   inkscape:window-maximized="0"
   inkscape:current-layer="video-x-generic" />
<style
   type="text/css"
   id="style2">
	.st0{fill:#9A80FF;}
	.st1{fill:#FFFFFF;}
</style>
<metadata
   id="metadata4">
	<ns:sfw>
		<ns:slices />
		<ns:sliceSourceBounds
   bottomLeftOrigin="true"
   height="252.1"
   width="252"
   x="2"
   y="2" />
	</ns:sfw>
<rdf:RDF><cc:Work
     rdf:about=""><dc:format>image/svg+xml</dc:format><dc:type
       rdf:resource="http://purl.org/dc/dcmitype/StillImage" /><dc:title></dc:title></cc:Work></rdf:RDF></metadata>
<path
   id="path1"
   class="st0"
   d="M251.7,90.4c-3.1-23.4-11.4-44.6-26-60.1l0,0c-15.6-14.6-36.7-22.9-60.1-26C143.2,1.3,128,2,128,2  s-15.2-0.7-37.6,2.3C67,7.4,45.8,15.7,30.3,30.3C15.7,45.8,7.5,67,4.3,90.4c-3,22.3-2.2,37.6-2.2,37.6s-0.7,15.2,2.2,37.6  c3.1,23.4,11.4,44.6,26,60.1l0,0c15.6,14.6,36.7,22.9,60.1,26c22.3,3,37.6,2.2,37.6,2.2s15.2,0.7,37.6-2.2  c23.4-3.1,44.6-11.4,60.1-26l0,0c14.6-15.6,22.9-36.7,26-60.1c3-22.3,2.2-37.6,2.2-37.6S254.7,112.8,251.7,90.4"
   style="fill:#748290;fill-opacity:1" />
<g
   id="video"
   style="fill:#ffffff">
	<path
   class="st1"
   d="M191.5,172.1c0,10.1-8.2,18.4-18.4,18.4H83.3v11.5h91.1c15.8,0,28.6-12.8,28.6-28.6V84.1h-11.5V172.1z"
   id="path7"
   style="fill:#ffffff" />
	<path
   class="st1"
   d="M66.4,54.1c-7.4,0-13.4,6-13.4,13.4v134.4h11.5v-9.3v-127h73.2h53.9H203V54.1H66.4z"
   id="path9"
   style="fill:#ffffff" />
	<path
   class="st1"
   d="M115.9,160.2l38.7-26.2c3.4-2.3,3.4-7.4,0-9.7L115.9,98c-3.9-2.7-9.2,0.1-9.2,4.9v52.5   C106.7,160,111.9,162.8,115.9,160.2z M117.4,112.7c7.6,5.6,15.2,11.2,22.8,16.7c-7.6,5.3-15.2,10.7-22.8,16V112.7z"
   id="path11"
   style="fill:#ffffff" />
	<circle
   class="st1"
   cx="79.9"
   cy="90.7"
   r="6.5"
   id="circle13"
   style="fill:#ffffff" />
	<circle
   class="st1"
   cx="79.9"
   cy="115.7"
   r="6.5"
   id="circle15"
   style="fill:#ffffff" />
	<circle
   class="st1"
   cx="79.9"
   cy="140.6"
   r="6.5"
   id="circle17"
   style="fill:#ffffff" />
	<circle
   class="st1"
   cx="79.9"
   cy="165.6"
   r="6.5"
   id="circle19"
   style="fill:#ffffff" />
	<circle
   class="st1"
   cx="175.2"
   cy="90.7"
   r="6.5"
   id="circle21"
   style="fill:#ffffff" />
	<circle
   class="st1"
   cx="175.2"
   cy="115.7"
   r="6.5"
   id="circle23"
   style="fill:#ffffff" />
	<circle
   class="st1"
   cx="175.2"
   cy="140.6"
   r="6.5"
   id="circle25"
   style="fill:#ffffff" />
	<circle
   class="st1"
   cx="175.2"
   cy="165.5"
   r="6.5"
   id="circle27"
   style="fill:#ffffff" />
</g>
</svg>