<?xml version="1.0" encoding="UTF-8" standalone="no"?>
<svg
   xmlns:dc="http://purl.org/dc/elements/1.1/"
   xmlns:cc="http://creativecommons.org/ns#"
   xmlns:rdf="http://www.w3.org/1999/02/22-rdf-syntax-ns#"
   xmlns:svg="http://www.w3.org/2000/svg"
   xmlns="http://www.w3.org/2000/svg"
   xmlns:sodipodi="http://sodipodi.sourceforge.net/DTD/sodipodi-0.dtd"
   xmlns:inkscape="http://www.inkscape.org/namespaces/inkscape"
   width="256"
   height="256"
   version="1.1"
   viewBox="0 0 67.732 67.732"
   id="svg19"
   sodipodi:docname="application-x-flash-video.svg"
   inkscape:version="0.92.5 (2060ec1f9f, 2020-04-08)">
  <metadata
     id="metadata23">
    <rdf:RDF>
      <cc:Work
         rdf:about="">
        <dc:format>image/svg+xml</dc:format>
        <dc:type
           rdf:resource="http://purl.org/dc/dcmitype/StillImage" />
        <dc:title></dc:title>
      </cc:Work>
    </rdf:RDF>
  </metadata>
  <sodipodi:namedview
     pagecolor="#ffffff"
     bordercolor="#666666"
     borderopacity="1"
     objecttolerance="10"
     gridtolerance="10"
     guidetolerance="10"
     inkscape:pageopacity="0"
     inkscape:pageshadow="2"
     inkscape:window-width="1015"
     inkscape:window-height="461"
     id="namedview21"
     showgrid="false"
     inkscape:zoom="3.6875"
     inkscape:cx="116.05003"
     inkscape:cy="97.084749"
     inkscape:window-x="1866"
     inkscape:window-y="428"
     inkscape:window-maximized="0"
     inkscape:current-layer="g849" />
  <defs
     id="defs5">
    <filter
       id="a"
       x="-0.039000999"
       y="-0.033427998"
       width="1.0779999"
       height="1.0669"
       style="color-interpolation-filters:sRGB">
      <feGaussianBlur
         stdDeviation="0.20637525"
         id="feGaussianBlur2" />
    </filter>
    <filter
       color-interpolation-filters="sRGB"
       height="1.0669"
       width="1.078"
       y="-.033428"
       x="-.039001"
       id="a-3">
      <feGaussianBlur
         id="feGaussianBlur818"
         stdDeviation="0.20637525" />
    </filter>
  </defs>
  <g
     id="g4543"
     transform="matrix(0.26457812,0,0,0.26457812,-5.6506672e-5,5.7786672e-5)"
     style="fill:#84c835;fill-opacity:1">
    <path
       style="fill:#f35450;fill-opacity:1"
       id="path4"
       d="M 251.7,90.4 C 248.6,67 240.3,45.8 225.7,30.3 v 0 C 210.1,15.7 189,7.4 165.6,4.3 143.2,1.3 128,2 128,2 128,2 112.8,1.3 90.4,4.3 67,7.4 45.8,15.7 30.3,30.3 15.7,45.8 7.5,67 4.3,90.4 1.3,112.7 2.1,128 2.1,128 c 0,0 -0.7,15.2 2.2,37.6 3.1,23.4 11.4,44.6 26,60.1 v 0 c 15.6,14.6 36.7,22.9 60.1,26 22.3,3 37.6,2.2 37.6,2.2 0,0 15.2,0.7 37.6,-2.2 23.4,-3.1 44.6,-11.4 60.1,-26 v 0 c 14.6,-15.6 22.9,-36.7 26,-60.1 3,-22.3 2.2,-37.6 2.2,-37.6 0,0 0.8,-15.2 -2.2,-37.6"
       class="st0"
       inkscape:connector-curvature="0" />
  </g>
  <style
     id="style2"
     type="text/css">
	.st0{fill:#0DC54C;}
	.st1{fill:#FDFFFF;}
</style>
  <g
     id="g849"
     transform="matrix(1.116207,0,0,1.116207,-1.989883,-4.724151)">
    <path
       id="path831"
       overflow="visible"
       d="M 19.474066,43.604 V 50 c 0,0 10.285,1.514 14.812,-12.198 h 8.188 v -6 h -5.726 c 0,0 2.174,-7 7.726,-7 v -6 c 0,0 -8.64,-1.99 -14.192,12.413 -4.801,14.105 -10.808,12.389 -10.808,12.389 z"
       inkscape:connector-curvature="0"
       style="color:#000000;overflow:visible;fill:#ffffff" />
  </g>
</svg>
