<?xml version="1.0" encoding="utf-8"?>
<!-- Generator: Adobe Illustrator 23.0.0, SVG Export Plug-In . SVG Version: 6.00 Build 0)  -->
<!DOCTYPE svg PUBLIC "-//W3C//DTD SVG 1.1//EN" "http://www.w3.org/Graphics/SVG/1.1/DTD/svg11.dtd" [
	<!ENTITY ns_extend "http://ns.adobe.com/Extensibility/1.0/">
	<!ENTITY ns_ai "http://ns.adobe.com/AdobeIllustrator/10.0/">
	<!ENTITY ns_graphs "http://ns.adobe.com/Graphs/1.0/">
	<!ENTITY ns_vars "http://ns.adobe.com/Variables/1.0/">
	<!ENTITY ns_imrep "http://ns.adobe.com/ImageReplacement/1.0/">
	<!ENTITY ns_sfw "http://ns.adobe.com/SaveForWeb/1.0/">
	<!ENTITY ns_custom "http://ns.adobe.com/GenericCustomNamespace/1.0/">
	<!ENTITY ns_adobe_xpath "http://ns.adobe.com/XPath/1.0/">
]>
<svg version="1.1" id="audio-x-generic" xmlns:x="&ns_extend;" xmlns:i="&ns_ai;" xmlns:graph="&ns_graphs;"
	 xmlns="http://www.w3.org/2000/svg" xmlns:xlink="http://www.w3.org/1999/xlink" x="0px" y="0px" viewBox="0 0 256 256"
	 style="enable-background:new 0 0 256 256;" xml:space="preserve">
<style type="text/css">
	.st0{fill:#F4A72E;}
	.st1{fill-rule:evenodd;clip-rule:evenodd;fill:#FFFFFF;}
</style>
<metadata>
	<sfw  xmlns="&ns_sfw;">
		<slices></slices>
		<sliceSourceBounds  bottomLeftOrigin="true" height="252.1" width="252" x="2" y="2"></sliceSourceBounds>
	</sfw>
</metadata>
<path id="path1" class="st0" d="M251.7,90.4c-3.1-23.4-11.4-44.6-26-60.1l0,0c-15.6-14.6-36.7-22.9-60.1-26C143.2,1.3,128,2,128,2
	s-15.2-0.7-37.6,2.3C67,7.4,45.8,15.7,30.3,30.3C15.7,45.8,7.5,67,4.3,90.4c-3,22.3-2.2,37.6-2.2,37.6s-0.7,15.2,2.2,37.6
	c3.1,23.4,11.4,44.6,26,60.1l0,0c15.6,14.6,36.7,22.9,60.1,26c22.3,3,37.6,2.2,37.6,2.2s15.2,0.7,37.6-2.2
	c23.4-3.1,44.6-11.4,60.1-26l0,0c14.6-15.6,22.9-36.7,26-60.1c3-22.3,2.2-37.6,2.2-37.6S254.7,112.8,251.7,90.4"/>
<g>
	<path class="st1" d="M129.4,82.7C129.4,82.7,129.4,82.7,129.4,82.7c-3.4-3.5-6.7-7.1-10.1-10.6c-1.2-1.3-3.3-3.2-6.4-4.6
		c-2-0.9-3.9-1.2-5.3-1.4c-14,0-28.1,0-42.1,0c-6.9,0-12.4,5.6-12.4,12.4c0,37.1,0,74.2,0,111.3h10.5v-10.5v-44.7V76.6
		c7.1,0,14.3,0.1,21.4,0.1v3.8h8.7v-3.7c3.8,0,7.7,0,11.5,0c0.8-0.1,2.4-0.3,4.4,0.4c1.5,0.6,2.5,1.4,3,2c3.4,3.5,6.7,7,10.1,10.5
		c1.3,0.8,3.1,1.7,5.4,2.4c1.9,0.5,3.5,0.7,4.8,0.8c2.4,0,4.9,0,7.3,0h21.2h31.3H203V82.7H129.4z"/>
	<path class="st1" d="M192.5,160.6c0,10.4-8.4,18.8-18.8,18.8h-93v10.5h96.5c14.2,0,25.8-11.5,25.8-25.8v-55.6h-10.5V160.6z"/>
	<path class="st1" d="M78.4,132.8v9.2c0,6,4.8,10.8,10.8,10.8c6,0,10.8-4.8,10.8-10.8v-9.2c0-6-4.8-10.8-10.8-10.8
		C83.3,121.9,78.4,126.8,78.4,132.8z M84.9,132.4c0-2.4,2-4.4,4.4-4.4c2.4,0,4.4,2,4.4,4.4v10c0,2.4-2,4.4-4.4,4.4
		c-2.4,0-4.4-2-4.4-4.4V132.4z"/>
	<rect x="84.9" y="103.9" class="st1" width="8.7" height="12.9"/>
	<rect x="84.9" y="86.8" class="st1" width="8.7" height="12"/>
</g>
</svg>
