<?xml version="1.0" encoding="utf-8"?>
<!-- Generator: Adobe Illustrator 23.0.0, SVG Export Plug-In . SVG Version: 6.00 Build 0)  -->
<svg version="1.1" id="레이어_1" xmlns="http://www.w3.org/2000/svg" xmlns:xlink="http://www.w3.org/1999/xlink" x="0px"
	 y="0px" viewBox="0 0 256 256" style="enable-background:new 0 0 256 256;" xml:space="preserve">
<style type="text/css">
	.st0{fill:#31A8FF;}
	.st1{fill:#001E36;}
</style>
<path class="st0" d="M251.7,90.4c-3.1-23.4-11.4-44.6-26-60.1l0,0c-15.6-14.6-36.7-22.9-60.1-26C143.2,1.3,128,2,128,2
	s-15.2-0.7-37.6,2.3C67,7.4,45.8,15.7,30.3,30.3C15.7,45.8,7.5,67,4.3,90.4c-3,22.3-2.2,37.6-2.2,37.6s-0.7,15.2,2.2,37.6
	c3.1,23.4,11.4,44.6,26,60.1l0,0c15.6,14.6,36.7,22.9,60.1,26c22.3,3,37.6,2.2,37.6,2.2s15.2,0.7,37.6-2.2
	c23.4-3.1,44.6-11.4,60.1-26l0,0c14.6-15.6,22.9-36.7,26-60.1c3-22.3,2.2-37.6,2.2-37.6S254.7,112.8,251.7,90.4"/>
<path class="st1" d="M236,95.2c-2.7-20.4-10-39-22.7-52.5l0,0c-13.6-12.7-32-20-52.5-22.7c-19.6-2.6-32.8-2-32.8-2s-13.3-0.6-32.8,2
	c-20.4,2.7-39,10-52.5,22.7C30,56.2,22.8,74.8,20,95.2c-2.6,19.5-1.9,32.8-1.9,32.8s-0.6,13.3,1.9,32.8c2.7,20.4,10,39,22.7,52.5
	l0,0c13.6,12.7,32,20,52.5,22.7c19.5,2.6,32.8,1.9,32.8,1.9s13.3,0.6,32.8-1.9c20.4-2.7,39-10,52.5-22.7l0,0
	c12.7-13.6,20-32,22.7-52.5c2.6-19.5,1.9-32.8,1.9-32.8S238.6,114.7,236,95.2"/>
<g>
	<g>
		<path class="st0" d="M95,81.7c13.1,0,23.1,2.4,30.1,7.1c7,4.8,10.5,12.2,10.5,22.4c0,5.3-0.9,9.8-2.8,13.6
			c-1.9,3.8-4.6,6.8-8.1,9.2c-3.6,2.4-7.9,4.1-13,5.3c-5.1,1.1-11,1.7-17.6,1.7h-8.2v31.7H69.5V83.9c3.8-0.9,8-1.5,12.7-1.8
			C86.8,81.8,91.1,81.7,95,81.7z M96.2,95.8c-4.2,0-7.6,0.1-10.3,0.4v30.7h7.9c7.9,0,14-1.1,18.2-3.3c4.2-2.2,6.4-6.4,6.4-12.5
			c0-2.9-0.6-5.4-1.7-7.4s-2.7-3.6-4.7-4.7s-4.4-1.9-7.1-2.4C102.2,96.1,99.3,95.8,96.2,95.8z"/>
		<path class="st0" d="M166.8,161.3c4.2,0,7.2-0.5,9.1-1.5c1.9-1,2.9-2.7,2.9-5.1c0-2.3-1-4.1-3.1-5.6c-2-1.5-5.4-3.1-10.1-4.8
			c-2.9-1-5.5-2.1-7.9-3.3s-4.4-2.5-6.2-4.1c-1.7-1.6-3.1-3.4-4.1-5.7c-1-2.2-1.5-4.9-1.5-8.1c0-6.2,2.3-11.2,6.9-14.8
			c4.6-3.6,10.8-5.4,18.7-5.4c4,0,7.8,0.4,11.4,1.1c3.6,0.7,6.4,1.5,8.2,2.1l-2.9,12.7c-1.7-0.8-3.9-1.5-6.6-2.1
			c-2.7-0.6-5.8-1-9.4-1c-3.2,0-5.8,0.5-7.8,1.6s-3,2.8-3,5c0,1.1,0.2,2.1,0.6,3c0.4,0.9,1.1,1.7,2,2.4c1,0.7,2.2,1.5,3.8,2.2
			s3.5,1.5,5.7,2.3c3.7,1.4,6.9,2.8,9.5,4.1s4.7,2.9,6.4,4.5c1.7,1.7,2.9,3.6,3.7,5.8s1.2,4.8,1.2,7.8c0,6.5-2.4,11.4-7.2,14.8
			c-4.8,3.3-11.7,5-20.6,5c-6,0-10.8-0.5-14.4-1.5c-3.6-1-6.2-1.8-7.7-2.4l2.7-13.1c2.3,1,5.1,1.9,8.4,2.7
			C158.9,160.9,162.6,161.3,166.8,161.3z"/>
	</g>
</g>
</svg>
