<?xml version="1.0" encoding="UTF-8" standalone="no"?>
<!-- Generator: Adobe Illustrator 23.0.0, SVG Export Plug-In . SVG Version: 6.00 Build 0)  -->

<svg
   xmlns:ns="&amp;#38;ns_sfw;"
   xmlns:dc="http://purl.org/dc/elements/1.1/"
   xmlns:cc="http://creativecommons.org/ns#"
   xmlns:rdf="http://www.w3.org/1999/02/22-rdf-syntax-ns#"
   xmlns:svg="http://www.w3.org/2000/svg"
   xmlns="http://www.w3.org/2000/svg"
   xmlns:sodipodi="http://sodipodi.sourceforge.net/DTD/sodipodi-0.dtd"
   xmlns:inkscape="http://www.inkscape.org/namespaces/inkscape"
   version="1.1"
   id="레이어_1"
   x="0px"
   y="0px"
   viewBox="0 0 256 256"
   style="enable-background:new 0 0 256 256;"
   xml:space="preserve"
   sodipodi:docname="application-x-executable.svg"
   inkscape:version="0.92.5 (2060ec1f9f, 2020-04-08)"><defs
   id="defs15" /><sodipodi:namedview
   pagecolor="#ffffff"
   bordercolor="#666666"
   borderopacity="1"
   objecttolerance="10"
   gridtolerance="10"
   guidetolerance="10"
   inkscape:pageopacity="0"
   inkscape:pageshadow="2"
   inkscape:window-width="1262"
   inkscape:window-height="480"
   id="namedview13"
   showgrid="false"
   inkscape:zoom="0.921875"
   inkscape:cx="146.79443"
   inkscape:cy="128"
   inkscape:window-x="465"
   inkscape:window-y="339"
   inkscape:window-maximized="0"
   inkscape:current-layer="레이어_1" />
<style
   type="text/css"
   id="style2">
	.st0{fill:#E6E6E6;}
	.st1{fill:#FAFAFA;}
	.st2{fill-rule:evenodd;clip-rule:evenodd;fill:#B2B2B2;}
</style>
<metadata
   id="metadata4">
	<ns:sfw>
		<ns:slices />
		<ns:sliceSourceBounds
   bottomLeftOrigin="true"
   height="252.1"
   width="252"
   x="2"
   y="2" />
	</ns:sfw>
<rdf:RDF><cc:Work
     rdf:about=""><dc:format>image/svg+xml</dc:format><dc:type
       rdf:resource="http://purl.org/dc/dcmitype/StillImage" /><dc:title /></cc:Work></rdf:RDF></metadata>
<path
   class="st0"
   d="M251.7,90.4c-3.1-23.4-11.4-44.6-26-60.1l0,0c-15.6-14.6-36.7-22.9-60.1-26C143.2,1.3,128,2,128,2  s-15.2-0.7-37.6,2.3C67,7.4,45.8,15.7,30.3,30.3C15.7,45.8,7.5,67,4.3,90.4c-3,22.3-2.2,37.6-2.2,37.6s-0.7,15.2,2.2,37.6  c3.1,23.4,11.4,44.6,26,60.1l0,0c15.6,14.6,36.7,22.9,60.1,26c22.3,3,37.6,2.2,37.6,2.2s15.2,0.7,37.6-2.2  c23.4-3.1,44.6-11.4,60.1-26l0,0c14.6-15.6,22.9-36.7,26-60.1c3-22.3,2.2-37.6,2.2-37.6S254.7,112.8,251.7,90.4"
   id="path6" />
<path
   class="st1"
   d="m 249.8,91 c -3,-23 -11.2,-43.9 -25.6,-59.2 v 0 C 208.8,17.5 188,9.3 165,6.3 142.9,3.3 128,4 128,4 128,4 113.1,3.3 91,6.2 68,9.2 47.1,17.4 31.8,31.8 17.5,47.1 9.4,68 6.2,91 c -2.9,22 -2.1,37 -2.1,37 0,0 -0.7,15 2.1,37 3,23 11.2,43.9 25.6,59.2 v 0 c 15.4,14.4 36.2,22.6 59.2,25.6 22,2.9 37,2.1 37,2.1 0,0 14.9,0.7 37,-2.1 23,-3 43.9,-11.2 59.2,-25.6 v 0 c 14.4,-15.3 22.6,-36.1 25.6,-59.2 2.9,-22 2.1,-37 2.1,-37 0,0 0.8,-15 -2.1,-37"
   id="path8"
   inkscape:connector-curvature="0"
   style="fill:#fafafa" />

<style
   id="style2-6"
   type="text/css">
	.st0{opacity:0.1;}
	.st1{fill:#618FFA;}
	.st2{fill-rule:evenodd;clip-rule:evenodd;fill:#FFFFFF;}
</style><g
   id="g841"
   transform="translate(-0.03754203,0.25)"
   style="fill:#b2b2b2;fill-opacity:1"><path
     style="clip-rule:evenodd;fill:#b2b2b2;fill-opacity:1;fill-rule:evenodd"
     id="path14"
     d="m 128.9,148.5 c -12.2,0 -22.1,-9.9 -22.1,-22.1 0,-12.2 9.9,-22.1 22.1,-22.1 12.2,0 22.1,9.9 22.1,22.1 0,12.2 -9.9,22.1 -22.1,22.1 m 0,-54.6 c 17.9,0 32.4,14.5 32.4,32.4 0,17.9 -14.5,32.4 -32.4,32.4 -17.9,0 -32.4,-14.5 -32.4,-32.4 0,-17.9 14.5,-32.4 32.4,-32.4 z M 76.3,136 c 0,1.4 -0.6,2.7 -1.6,3.7 l -14.3,13.1 -7.5,-8.2 10.8,-9.9 c 1,-0.9 1.5,-2.1 1.5,-3.4 v -8.6 c 0,-1.4 -0.6,-2.6 -1.6,-3.5 L 51,108.8 c -3.2,-2.7 -3.9,-7.4 -1.7,-10.9 L 66.4,71 c 2.3,-3.7 7.1,-4.9 10.9,-3 l 12,6.1 c 1.2,0.6 2.5,0.7 3.8,0.2 l 7.7,-3 c 1.6,-0.6 2.8,-2.2 2.9,-3.9 l 1.1,-13.5 c 0.4,-4.3 4,-7.7 8.4,-7.7 h 31.4 c 4.3,0 7.9,3.3 8.3,7.6 l 1.2,13.4 c 0.1,1.3 0.8,2.5 1.9,3.3 l 6.3,4.7 c 1.2,0.9 2.9,1.1 4.3,0.6 l 15.1,-5.5 3.8,10.5 -20.5,7.6 c -1.6,0.6 -3.4,0.3 -4.7,-0.7 L 145.9,76.9 c -1.4,-1 -2.3,-2.6 -2.4,-4.3 l -1.4,-15.1 h -26.3 l -1.6,17.2 c -0.2,2.6 -1.9,4.8 -4.4,5.6 L 93,86.3 C 91.3,86.9 89.4,86.8 87.7,86 L 74.3,79.2 60.2,101.3 74,113.2 c 1.3,1.2 2.1,2.8 2.1,4.6 z m 128.5,9.5 c 3.4,2.7 4.3,7.5 1.9,11.1 l -16.9,26.5 c -2.3,3.7 -7.1,4.9 -11,2.9 l -12,-6.3 c -1.6,-0.8 -3.4,-0.7 -4.9,0.4 l -6.7,4.9 c -1.1,0.8 -1.7,2 -1.9,3.3 l -1.3,13.4 c -0.4,4.3 -4,7.6 -8.4,7.6 h -31.8 c -4.2,0 -7.8,-3.1 -8.3,-7.3 l -2.1,-16.2 c -0.2,-1.3 -0.9,-2.5 -2.1,-3.3 l -7.2,-4.6 C 91,177.2 89.7,177 88.4,177.3 l -13.8,3.7 -2.9,-10.8 18.8,-5 c 1.4,-0.4 2.8,-0.1 4,0.6 l 15.3,9.8 c 1.5,1 2.5,2.5 2.8,4.3 l 2.6,18.1 h 26.3 l 1.4,-14.9 c 0.2,-1.8 1.1,-3.5 2.5,-4.6 l 14.1,-10.9 c 2,-1.6 4.8,-1.8 7.1,-0.6 l 15.3,7.9 14.1,-22.1 -12,-9.3 c -1.4,-1.1 -2.2,-2.6 -2.3,-4.4 l -1.3,-18 c -0.1,-1.7 0.6,-3.3 2,-4.3 l 17.4,-13.2 6.7,8.9 -12.8,9.7 c -1.2,0.9 -1.9,2.4 -1.8,4 l 0.5,7.9 c 0.1,1.3 0.7,2.5 1.8,3.3 z"
     class="st2"
     inkscape:connector-curvature="0" /></g></svg>