<?xml version="1.0" encoding="utf-8"?>
<!-- Generator: Adobe Illustrator 23.0.0, SVG Export Plug-In . SVG Version: 6.00 Build 0)  -->
<svg version="1.1" id="레이어_1" xmlns="http://www.w3.org/2000/svg" xmlns:xlink="http://www.w3.org/1999/xlink" x="0px"
	 y="0px" viewBox="0 0 256 256" style="enable-background:new 0 0 256 256;" xml:space="preserve">
<style type="text/css">
	.st0{fill:#E6E6E6;}
	.st1{fill:#FAFAFA;}
	.st2{fill-rule:evenodd;clip-rule:evenodd;fill:#897C74;}
	.st3{fill-rule:evenodd;clip-rule:evenodd;fill:#D3CEC8;}
</style>
<path class="st0" d="M251.7,90.4c-3.1-23.4-11.4-44.6-26-60.1l0,0c-15.6-14.6-36.7-22.9-60.1-26C143.2,1.3,128,2,128,2
	s-15.2-0.7-37.6,2.3C67,7.4,45.8,15.7,30.3,30.3C15.7,45.8,7.5,67,4.3,90.4c-3,22.3-2.2,37.6-2.2,37.6s-0.7,15.2,2.2,37.6
	c3.1,23.4,11.4,44.6,26,60.1l0,0c15.6,14.6,36.7,22.9,60.1,26c22.3,3,37.6,2.2,37.6,2.2s15.2,0.7,37.6-2.2
	c23.4-3.1,44.6-11.4,60.1-26l0,0c14.6-15.6,22.9-36.7,26-60.1c3-22.3,2.2-37.6,2.2-37.6S254.7,112.8,251.7,90.4"/>
<path class="st1" d="M249.8,91c-3-23-11.2-43.9-25.6-59.2l0,0C208.8,17.5,188,9.3,165,6.3C142.9,3.3,128,4,128,4s-14.9-0.7-37,2.2
	c-23,3-43.9,11.2-59.2,25.6C17.5,47.1,9.4,68,6.2,91c-2.9,22-2.1,37-2.1,37S3.4,143,6.2,165c3,23,11.2,43.9,25.6,59.2l0,0
	C47.2,238.6,68,246.8,91,249.8c22,2.9,37,2.1,37,2.1s14.9,0.7,37-2.1c23-3,43.9-11.2,59.2-25.6l0,0c14.4-15.3,22.6-36.1,25.6-59.2
	c2.9-22,2.1-37,2.1-37S252.7,113,249.8,91"/>
<g>
	<path class="st2" d="M144,43c6.7,26.4-23.7,34.4-34.6,50.8c-7.5,11.2,3.7,23.3,18.8,36.9c-5.9-13.4-26-25.1,0-45.6
		C160.6,59.7,144,43,144,43L144,43z"/>
	<path class="st2" d="M164.1,75.7c0,0-54.8,13.7-28.6,43.8c7.7,8.9-2,16.9-2,16.9s19.6-10.1,10.6-22.8
		C135.6,101.8,129.2,96,164.1,75.7L164.1,75.7z"/>
	<path class="st3" d="M173.8,129.6c-1.9,0-4,0.3-6.1,1.1c-1.7,0.6-2.6,2-2.6,2s1.1-0.4,3.4-0.9c9.7-2,23.6,13-6.4,28.6
		c-0.1,0.4-0.6,0.8-0.6,0.8C197.2,151.7,189.4,129.5,173.8,129.6L173.8,129.6z"/>
	<path class="st3" d="M109.4,131.1c-2.4-0.1-12.5,0.1-24.7,6c-16.4,7.9,40.6,11.6,70.2,3.8c3.1-2.1,7.3-3.9,7.3-3.9
		s-12.1,2.2-24.1,3.2c-14.7,1.2-30.5,1.5-38.5,0.4c-18.8-2.5,10.3-9.4,10.3-9.4S109.8,131.1,109.4,131.1L109.4,131.1z"/>
	<path class="st3" d="M103.2,149.3c-27.1,9,15.1,19.2,52.9,8.1c-4-1.4-6.6-4-6.6-4c-18.5,3.6-29.2,3.4-42.8,2.1
		C96.3,154.3,103.2,149.3,103.2,149.3L103.2,149.3z"/>
	<path class="st3" d="M107,166.8c-24.6,6.9,15,21.1,46.3,7.7c-5.1-2-8.8-4.3-8.8-4.3c-14,2.6-20.4,2.8-33.1,1.4
		C100.9,170.3,107,166.8,107,166.8L107,166.8z"/>
	<path class="st3" d="M89.9,178.4c-11,0.3-32.7,10.3-12.9,13.5c63.9,10.4,116.4-4.7,99.8-12.1c0,0,4.5,3.7-5,6.6
		c-18.1,5.5-75.2,7.1-91.1,0.2c-5.7-2.5,5-5.9,8.4-6.7c3.5-0.8,5.5-0.6,5.5-0.6C93.6,178.6,92,178.3,89.9,178.4L89.9,178.4z"/>
	<path class="st3" d="M187,187.9c0,0-2,5.2-23.8,9.3c-24.6,4.6-54.9,4.1-72.9,1.1c0,0,3.7,3.1,22.6,4.3
		C141.7,204.4,186,201.5,187,187.9L187,187.9z"/>
</g>
</svg>
