<?xml version="1.0" encoding="utf-8"?>
<!-- Generator: Adobe Illustrator 23.0.0, SVG Export Plug-In . SVG Version: 6.00 Build 0)  -->
<svg version="1.1" id="레이어_1" xmlns="http://www.w3.org/2000/svg" xmlns:xlink="http://www.w3.org/1999/xlink" x="0px"
	 y="0px" viewBox="0 0 256 256" style="enable-background:new 0 0 256 256;" xml:space="preserve">
<style type="text/css">
	.st0{fill:#E6E6E6;}
	.st1{fill:#FAFAFA;}
	.st2{fill:#185C37;}
	.st3{fill:#33C481;}
	.st4{fill:#21A366;}
	.st5{fill:url(#SVGID_1_);}
	.st6{fill:#FFFFFF;}
</style>
<path class="st0" d="M251.7,90.4c-3.1-23.4-11.4-44.6-26-60.1l0,0c-15.6-14.6-36.7-22.9-60.1-26C143.2,1.3,128,2,128,2
	s-15.2-0.7-37.6,2.3C67,7.4,45.8,15.7,30.3,30.3C15.7,45.8,7.5,67,4.3,90.4c-3,22.3-2.2,37.6-2.2,37.6s-0.7,15.2,2.2,37.6
	c3.1,23.4,11.4,44.6,26,60.1l0,0c15.6,14.6,36.7,22.9,60.1,26c22.3,3,37.6,2.2,37.6,2.2s15.2,0.7,37.6-2.2
	c23.4-3.1,44.6-11.4,60.1-26l0,0c14.6-15.6,22.9-36.7,26-60.1c3-22.3,2.2-37.6,2.2-37.6S254.7,112.8,251.7,90.4"/>
<path class="st1" d="M249.8,91c-3-23-11.2-43.9-25.6-59.2l0,0C208.8,17.5,188,9.3,165,6.3C142.9,3.3,128,4,128,4s-14.9-0.7-37,2.2
	c-23,3-43.9,11.2-59.2,25.6C17.5,47.1,9.4,68,6.2,91c-2.9,22-2.1,37-2.1,37S3.4,143,6.2,165c3,23,11.2,43.9,25.6,59.2l0,0
	C47.2,238.6,68,246.8,91,249.8c22,2.9,37,2.1,37,2.1s14.9,0.7,37-2.1c23-3,43.9-11.2,59.2-25.6l0,0c14.4-15.3,22.6-36.1,25.6-59.2
	c2.9-22,2.1-37,2.1-37S252.7,113,249.8,91"/>
<path class="st2" d="M205.7,152.6h-20.6l-46.3-18.4l-4.2,2.1v22.9c0,8.7-7.1,15.8-15.8,15.8h-17v19.8c0,4.1,3.2,7.3,7.3,7.3h96.6
	c4.1,0,7.3-3.2,7.3-7.3v-34.9C213,155.9,209.8,152.6,205.7,152.6z"/>
<path class="st3" d="M150.2,53.8H72c-4.1,0-7.3,3.2-7.3,7.3v19.8h54.1c8.7,0,15.8,7.1,15.8,15.8v14.7l22.6-8.1l0.3-42.2
	C157.5,57.1,154.3,53.8,150.2,53.8z"/>
<path class="st4" d="M177.8,103.4h-43.2v49.5h50.5v-42.2C185.1,106.6,181.9,103.4,177.8,103.4z"/>
<linearGradient id="SVGID_1_" gradientUnits="userSpaceOnUse" x1="75.2731" y1="95.092" x2="108.2661" y2="185.7733">
	<stop  offset="0" style="stop-color:#18884F"/>
	<stop  offset="0.5" style="stop-color:#117E43"/>
	<stop  offset="1" style="stop-color:#0B6631"/>
</linearGradient>
<path class="st5" d="M120.9,170.1H53.6c-4.7,0-8.5-3.8-8.5-8.5V94.4c0-4.7,3.8-8.5,8.5-8.5h67.2c4.7,0,8.5,3.8,8.5,8.5v67.2
	C129.4,166.3,125.6,170.1,120.9,170.1z"/>
<path class="st6" d="M87.9,104.4c4.6-0.3,9.1,1,12.7,3.8c3.1,2.8,4.7,6.9,4.4,11.1c0.1,2.9-0.7,5.8-2.2,8.3
	c-1.5,2.4-3.6,4.4-6.2,5.6c-2.9,1.4-6.1,2.1-9.3,2h-8.8V152h-9v-47.6H87.9z M78.5,127.9h7.8c2.5,0.2,4.9-0.6,6.9-2.1
	c1.6-1.6,2.5-3.9,2.3-6.2c0-5.2-3-7.9-8.9-7.9h-8.1L78.5,127.9L78.5,127.9z"/>
</svg>
