<?xml version="1.0" encoding="utf-8"?>
<!-- Generator: Adobe Illustrator 23.0.0, SVG Export Plug-In . SVG Version: 6.00 Build 0)  -->
<svg version="1.1" id="레이어_1" xmlns="http://www.w3.org/2000/svg" xmlns:xlink="http://www.w3.org/1999/xlink" x="0px"
	 y="0px" viewBox="0 0 256 256" style="enable-background:new 0 0 256 256;" xml:space="preserve">
<style type="text/css">
	.st0{fill:#EA5A47;}
	.st1{fill:#FFFFFF;}
</style>
<path class="st0" d="M251.7,90.4c-3.1-23.4-11.4-44.6-26-60.1l0,0c-15.6-14.6-36.7-22.9-60.1-26C143.2,1.3,128,2,128,2
	s-15.2-0.7-37.6,2.3C67,7.4,45.8,15.7,30.3,30.3C15.7,45.8,7.5,67,4.3,90.4c-3,22.3-2.2,37.6-2.2,37.6s-0.7,15.2,2.2,37.6
	c3.1,23.4,11.4,44.6,26,60.1l0,0c15.6,14.6,36.7,22.9,60.1,26c22.3,3,37.6,2.2,37.6,2.2s15.2,0.7,37.6-2.2
	c23.4-3.1,44.6-11.4,60.1-26l0,0c14.6-15.6,22.9-36.7,26-60.1c3-22.3,2.2-37.6,2.2-37.6S254.7,112.8,251.7,90.4"/>
<path class="st1" d="M236,95.2c-2.7-20.4-10-39-22.7-52.5l0,0c-13.6-12.7-32-20-52.5-22.7c-19.6-2.6-32.8-2-32.8-2s-13.3-0.6-32.8,2
	c-20.4,2.7-39,10-52.5,22.7C30,56.2,22.8,74.8,20,95.2c-2.6,19.5-1.9,32.8-1.9,32.8s-0.6,13.3,1.9,32.8c2.7,20.4,10,39,22.7,52.5
	l0,0c13.6,12.7,32,20,52.5,22.7c19.5,2.6,32.8,1.9,32.8,1.9s13.3,0.6,32.8-1.9c20.4-2.7,39-10,52.5-22.7l0,0
	c12.7-13.6,20-32,22.7-52.5c2.6-19.5,1.9-32.8,1.9-32.8S238.6,114.7,236,95.2"/>
<g>
	<g>
		<g>
			<path class="st0" d="M126.9,112c0,15.6-12.7,28.3-28.3,28.3S70.3,127.7,70.3,112s12.7-28.3,28.3-28.3V71.4
				C76.2,71.4,58,89.6,58,112c0,22.4,18.2,40.6,40.6,40.6s40.6-18.2,40.6-40.6H126.9z"/>
			<path class="st0" d="M126.9,112c0-15.6-12.7-28.3-28.3-28.3V112H126.9z"/>
		</g>
	</g>
	<rect x="148.9" y="71.4" class="st0" width="49.1" height="15.1"/>
	<rect x="148.9" y="137.1" class="st0" width="49.1" height="15.1"/>
	<rect x="148.9" y="104.8" class="st0" width="49.1" height="15.1"/>
	<rect x="58" y="169.5" class="st0" width="139.7" height="15.1"/>
</g>
</svg>
