<?xml version="1.0" encoding="utf-8"?>
<!-- Generator: Adobe Illustrator 23.0.0, SVG Export Plug-In . SVG Version: 6.00 Build 0)  -->
<svg version="1.1" id="레이어_1" xmlns="http://www.w3.org/2000/svg" xmlns:xlink="http://www.w3.org/1999/xlink" x="0px"
	 y="0px" viewBox="0 0 256 256" style="enable-background:new 0 0 256 256;" xml:space="preserve">
<style type="text/css">
	.st0{fill:#E6E6E6;}
	.st1{fill:#FAFAFA;}
	.st2{opacity:0.2;fill:#897C74;enable-background:new    ;}
	.st3{fill:#897C74;}
	.st4{opacity:0.6;fill:#897C74;enable-background:new    ;}
	.st5{opacity:0.3;fill:#897C74;enable-background:new    ;}
</style>
<path class="st0" d="M251.7,90.4c-3.1-23.4-11.4-44.6-26-60.1l0,0c-15.6-14.6-36.7-22.9-60.1-26C143.2,1.3,128,2,128,2
	s-15.2-0.7-37.6,2.3C67,7.4,45.8,15.7,30.3,30.3C15.7,45.8,7.5,67,4.3,90.4c-3,22.3-2.2,37.6-2.2,37.6s-0.7,15.2,2.2,37.6
	c3.1,23.4,11.4,44.6,26,60.1l0,0c15.6,14.6,36.7,22.9,60.1,26c22.3,3,37.6,2.2,37.6,2.2s15.2,0.7,37.6-2.2
	c23.4-3.1,44.6-11.4,60.1-26l0,0c14.6-15.6,22.9-36.7,26-60.1c3-22.3,2.2-37.6,2.2-37.6S254.7,112.8,251.7,90.4"/>
<path class="st1" d="M249.8,91c-3-23-11.2-43.9-25.6-59.2l0,0C208.8,17.5,188,9.3,165,6.3C142.9,3.3,128,4,128,4s-14.9-0.7-37,2.2
	c-23,3-43.9,11.2-59.2,25.6C17.5,47.1,9.4,68,6.2,91c-2.9,22-2.1,37-2.1,37S3.4,143,6.2,165c3,23,11.2,43.9,25.6,59.2l0,0
	C47.2,238.6,68,246.8,91,249.8c22,2.9,37,2.1,37,2.1s14.9,0.7,37-2.1c23-3,43.9-11.2,59.2-25.6l0,0c14.4-15.3,22.6-36.1,25.6-59.2
	c2.9-22,2.1-37,2.1-37S252.7,113,249.8,91"/>
<g>
	<path class="st2" d="M174.3,194.9H80.6c-11.2,0-20.1-8.9-20.1-20.1V81.1c0-11.2,8.9-20.1,20.1-20.1h94.8c11.2,0,20.1,8.9,20.1,20.1
		V176C194.4,186,185.5,194.9,174.3,194.9z"/>
	<path class="st3" d="M175.4,61.1h-48V89c2.2-6.7,8.9-12.3,15.6-12.3c8.9,0,16.7,7.8,16.7,16.7s-7.8,16.7-16.7,16.7
		c-6.7,0-13.4-4.5-15.6-12.3V128h66.9V80C194.4,68.9,186.6,61.1,175.4,61.1z"/>
	<path class="st4" d="M127.4,128v30.1c-2.2-6.7-8.9-12.3-15.6-12.3c-8.9,0-16.7,7.8-16.7,16.7c0,8.9,7.8,16.7,16.7,16.7
		c7.8,0,14.5-5.6,15.6-12.3v27.9h48c10,0,19-7.8,19-19v-48H127.4z"/>
	<path class="st5" d="M111.8,179.3c-8.9,0-16.7-7.8-16.7-16.7c0-8.9,7.8-16.7,16.7-16.7c7.8,0,14.5,5.6,15.6,12.3V128H60.5v48
		c0,11.2,7.8,19,19,19h48V167C125.2,174.9,118.5,179.3,111.8,179.3z"/>
</g>
</svg>
