<?xml version="1.0" encoding="UTF-8" standalone="no"?>
<!-- Generator: Adobe Illustrator 23.0.0, SVG Export Plug-In . SVG Version: 6.00 Build 0)  -->

<svg
   xmlns:dc="http://purl.org/dc/elements/1.1/"
   xmlns:cc="http://creativecommons.org/ns#"
   xmlns:rdf="http://www.w3.org/1999/02/22-rdf-syntax-ns#"
   xmlns:svg="http://www.w3.org/2000/svg"
   xmlns="http://www.w3.org/2000/svg"
   xmlns:sodipodi="http://sodipodi.sourceforge.net/DTD/sodipodi-0.dtd"
   xmlns:inkscape="http://www.inkscape.org/namespaces/inkscape"
   version="1.1"
   id="레이어_1"
   x="0px"
   y="0px"
   viewBox="0 0 256 256"
   style="enable-background:new 0 0 256 256;"
   xml:space="preserve"
   sodipodi:docname="extension.svg"
   inkscape:version="0.92.5 (2060ec1f9f, 2020-04-08)"><metadata
   id="metadata23"><rdf:RDF><cc:Work
       rdf:about=""><dc:format>image/svg+xml</dc:format><dc:type
         rdf:resource="http://purl.org/dc/dcmitype/StillImage" /><dc:title></dc:title></cc:Work></rdf:RDF></metadata><defs
   id="defs21" /><sodipodi:namedview
   pagecolor="#ffffff"
   bordercolor="#666666"
   borderopacity="1"
   objecttolerance="10"
   gridtolerance="10"
   guidetolerance="10"
   inkscape:pageopacity="0"
   inkscape:pageshadow="2"
   inkscape:window-width="1618"
   inkscape:window-height="1050"
   id="namedview19"
   showgrid="false"
   inkscape:zoom="2.6074563"
   inkscape:cx="16.690014"
   inkscape:cy="85.969076"
   inkscape:window-x="728"
   inkscape:window-y="545"
   inkscape:window-maximized="0"
   inkscape:current-layer="레이어_1" />
<style
   type="text/css"
   id="style2">
	.st0{fill:#E6E6E6;}
	.st1{fill:#FAFAFA;}
	.st2{opacity:0.2;fill:#897C74;enable-background:new    ;}
	.st3{fill:#897C74;}
	.st4{opacity:0.6;fill:#897C74;enable-background:new    ;}
	.st5{opacity:0.3;fill:#897C74;enable-background:new    ;}
</style>
<path
   class="st0"
   d="M251.7,90.4c-3.1-23.4-11.4-44.6-26-60.1l0,0c-15.6-14.6-36.7-22.9-60.1-26C143.2,1.3,128,2,128,2  s-15.2-0.7-37.6,2.3C67,7.4,45.8,15.7,30.3,30.3C15.7,45.8,7.5,67,4.3,90.4c-3,22.3-2.2,37.6-2.2,37.6s-0.7,15.2,2.2,37.6  c3.1,23.4,11.4,44.6,26,60.1l0,0c15.6,14.6,36.7,22.9,60.1,26c22.3,3,37.6,2.2,37.6,2.2s15.2,0.7,37.6-2.2  c23.4-3.1,44.6-11.4,60.1-26l0,0c14.6-15.6,22.9-36.7,26-60.1c3-22.3,2.2-37.6,2.2-37.6S254.7,112.8,251.7,90.4"
   id="path4"
   style="fill:#ff0091;fill-opacity:1;opacity:1" />


<style
   id="style830"
   type="text/css">
	.st0{opacity:0.1;}
	.st1{fill:#FF0091;}
	.st2{fill:#00FFDE;}
	.st3{fill:#FFACAE;}
	.st4{fill:#FFFFFF;}
	.st5{fill:#0768FF;}
</style><path
   class="st2"
   d="M 174.8,195 H 81.1 C 69.9,195 61,186.1 61,174.9 V 81.2 C 61,70 69.9,61.1 81.1,61.1 h 94.8 c 11.2,0 20.1,8.9 20.1,20.1 v 94.9 c -1.1,10 -10,18.9 -21.2,18.9 z"
   id="path8"
   inkscape:connector-curvature="0"
   style="opacity:0.454;fill:#fdffff;fill-opacity:1;enable-background:new" /><path
   inkscape:connector-curvature="0"
   class="st3"
   d="m 176.28352,61.1 h -48.00001 v 27.900004 c 2.2,-6.700004 8.9,-12.300004 15.6,-12.300004 8.9,0 16.7,7.8 16.7,16.700004 0,8.899996 -7.8,16.699996 -16.7,16.699996 -6.7,0 -13.4,-4.5 -15.6,-12.299996 V 128 h 66.90001 V 80 c 0.1,-11.1 -7.7,-18.9 -18.9,-18.9 z"
   id="path10"
   style="fill:#ffffff;fill-opacity:1;opacity:1" /><path
   inkscape:connector-curvature="0"
   class="st4"
   d="m 128.28351,128.1 v 30.1 c -2.2,-6.7 -8.9,-12.3 -15.6,-12.3 -8.9,0 -16.7,7.8 -16.7,16.7 0,8.9 7.8,16.7 16.7,16.7 7.8,0 14.5,-5.6 15.6,-12.3 v 27.9 h 48.00001 c 10,0 19,-7.8 19,-19 v -48 h -67.00001 z"
   id="path12"
   style="fill:#ffffff;fill-opacity:1;opacity:0.358" /><path
   inkscape:connector-curvature="0"
   class="st5"
   d="m 112.68351,179.3 c -8.9,0 -16.7,-7.8 -16.7,-16.7 0,-8.9 7.8,-16.7 16.7,-16.7 7.8,0 14.5,5.6 15.6,12.3 V 128 h -66.9 v 48 c 0,11.2 7.8,19 19,19 h 48 v -28 c -2.3,7.9 -9,12.3 -15.7,12.3 z"
   id="path14"
   style="fill:#ffffff;fill-opacity:1;opacity:0.8" /></svg>