<?xml version="1.0" encoding="utf-8"?>
<!-- Generator: Adobe Illustrator 23.0.0, SVG Export Plug-In . SVG Version: 6.00 Build 0)  -->
<svg version="1.1" id="레이어_1" xmlns="http://www.w3.org/2000/svg" xmlns:xlink="http://www.w3.org/1999/xlink" x="0px"
	 y="0px" viewBox="0 0 256 256" style="enable-background:new 0 0 256 256;" xml:space="preserve">
<style type="text/css">
	.st0{fill:#E6E6E6;}
	.st1{fill:#FAFAFA;}
	.st2{fill:#897C74;}
</style>
<path class="st0" d="M251.7,90.4c-3.1-23.4-11.4-44.6-26-60.1l0,0c-15.6-14.6-36.7-22.9-60.1-26C143.2,1.3,128,2,128,2
	s-15.2-0.7-37.6,2.3C67,7.4,45.8,15.7,30.3,30.3C15.7,45.8,7.5,67,4.3,90.4c-3,22.3-2.2,37.6-2.2,37.6s-0.7,15.2,2.2,37.6
	c3.1,23.4,11.4,44.6,26,60.1l0,0c15.6,14.6,36.7,22.9,60.1,26c22.3,3,37.6,2.2,37.6,2.2s15.2,0.7,37.6-2.2
	c23.4-3.1,44.6-11.4,60.1-26l0,0c14.6-15.6,22.9-36.7,26-60.1c3-22.3,2.2-37.6,2.2-37.6S254.7,112.8,251.7,90.4"/>
<path class="st1" d="M249.8,91c-3-23-11.2-43.9-25.6-59.2l0,0C208.8,17.5,188,9.3,165,6.3C142.9,3.3,128,4,128,4s-14.9-0.7-37,2.2
	c-23,3-43.9,11.2-59.2,25.6C17.5,47.1,9.4,68,6.2,91c-2.9,22-2.1,37-2.1,37S3.4,143,6.2,165c3,23,11.2,43.9,25.6,59.2l0,0
	C47.2,238.6,68,246.8,91,249.8c22,2.9,37,2.1,37,2.1s14.9,0.7,37-2.1c23-3,43.9-11.2,59.2-25.6l0,0c14.4-15.3,22.6-36.1,25.6-59.2
	c2.9-22,2.1-37,2.1-37S252.7,113,249.8,91"/>
<g>
	<path class="st2" d="M114.8,149.3H70.6l-9.5,28.4H48L86,70.7h13.8l38,107.1h-13.3L114.8,149.3z M111.1,138.4L92.7,83.7l-18.3,54.7
		H111.1z"/>
	<path class="st2" d="M208,121.8v55.9h-10.9v-10.1c-5.1,7.8-13.1,11.7-23.8,11.7c-7.9,0-14-2.1-18.3-6.2c-4.3-4.1-6.5-10-6.5-17.4
		c0-9.5,3.8-16.4,11.5-20.9c7.7-4.4,19.8-6.7,36.2-6.8v-5.2c0-4.9-1.6-8.7-4.7-11.2c-3.1-2.6-7.7-3.8-13.7-3.8
		c-6.6,0-12.8,1.4-18.6,4.1l-3.1-9.9c7.2-3.6,14.9-5.5,23.2-5.5c8.7,0,15.6,2.1,20.9,6.4S208,113.5,208,121.8z M196.2,159.2v-21.7
		c-12.3,0.1-21.4,1.5-27.1,4.3c-5.8,2.8-8.7,7.1-8.7,13c0,4.5,1.3,8,3.9,10.3c2.6,2.3,6.5,3.5,11.6,3.5c4,0,7.7-0.8,11-2.3
		C190.2,164.7,193.3,162.4,196.2,159.2z"/>
</g>
</svg>
