<?xml version="1.0" encoding="UTF-8" standalone="no"?>
<!-- Generator: Adobe Illustrator 23.0.0, SVG Export Plug-In . SVG Version: 6.00 Build 0)  -->

<svg
   xmlns:ns="&amp;ns_sfw;"
   xmlns:dc="http://purl.org/dc/elements/1.1/"
   xmlns:cc="http://creativecommons.org/ns#"
   xmlns:rdf="http://www.w3.org/1999/02/22-rdf-syntax-ns#"
   xmlns:svg="http://www.w3.org/2000/svg"
   xmlns="http://www.w3.org/2000/svg"
   xmlns:sodipodi="http://sodipodi.sourceforge.net/DTD/sodipodi-0.dtd"
   xmlns:inkscape="http://www.inkscape.org/namespaces/inkscape"
   version="1.1"
   id="레이어_1"
   x="0px"
   y="0px"
   viewBox="0 0 256 256"
   style="enable-background:new 0 0 256 256;"
   xml:space="preserve"
   sodipodi:docname="addressbook.svg"
   inkscape:version="0.92.5 (2060ec1f9f, 2020-04-08)"><defs
   id="defs21" /><sodipodi:namedview
   pagecolor="#ffffff"
   bordercolor="#666666"
   borderopacity="1"
   objecttolerance="10"
   gridtolerance="10"
   guidetolerance="10"
   inkscape:pageopacity="0"
   inkscape:pageshadow="2"
   inkscape:window-width="1262"
   inkscape:window-height="480"
   id="namedview19"
   showgrid="false"
   inkscape:zoom="0.921875"
   inkscape:cx="136.67797"
   inkscape:cy="128"
   inkscape:window-x="72"
   inkscape:window-y="28"
   inkscape:window-maximized="0"
   inkscape:current-layer="레이어_1" />
<style
   type="text/css"
   id="style2">
	.st0{opacity:0.1;}
	.st1{fill:#FF9D17;}
	.st2{fill-rule:evenodd;clip-rule:evenodd;fill:#FFFFFF;}
</style>
<metadata
   id="metadata4">
	<ns:sfw>
		<ns:slices />
		<ns:sliceSourceBounds
   bottomLeftOrigin="true"
   height="255"
   width="254.9"
   x="0.5"
   y="0.5" />
	</ns:sfw>
<rdf:RDF><cc:Work
     rdf:about=""><dc:format>image/svg+xml</dc:format><dc:type
       rdf:resource="http://purl.org/dc/dcmitype/StillImage" /></cc:Work></rdf:RDF></metadata>

<path
   class="st1"
   d="M251.7,90.4c-3.1-23.4-11.4-44.6-26-60.1l0,0c-15.6-14.6-36.7-22.9-60.1-26C143.2,1.3,128,2,128,2  s-15.2-0.7-37.6,2.3C67,7.4,45.8,15.7,30.3,30.3C15.7,45.8,7.5,67,4.3,90.4c-3,22.3-2.2,37.6-2.2,37.6s-0.7,15.2,2.2,37.6  c3.1,23.4,11.4,44.6,26,60.1l0,0c15.6,14.6,36.7,22.9,60.1,26c22.3,3,37.6,2.2,37.6,2.2s15.2,0.7,37.6-2.2  c23.4-3.1,44.6-11.4,60.1-26l0,0c14.6-15.6,22.9-36.7,26-60.1c3-22.3,2.2-37.6,2.2-37.6S254.7,112.8,251.7,90.4"
   id="path12" />
<g
   transform="translate(-21 -26)"
   id="g16">
	<path
   class="st2"
   d="M186.6,169.9c-6,16.7-20.1,28.5-36.5,28.5c-5.1,0-10-1.1-14.5-3.2c-9.7,16.6-27.7,27.8-48.3,27.8   c-2.6,0-5.2-0.2-7.7-0.5v-10.8c2.6,0.4,5.1,0.7,7.7,0.7c16.9,0,31.5-9.2,39.3-22.9c-5.7-4.9-10.2-11.6-13-19.3   c-9.5-1.2-17-13.1-17-24.6c0-6.8,3-8.2,7-12.3c-0.7-3.2-1.5-8.9-1.5-12.3c0-45.7,50.8-53.2,52.9-52.9v11.3   c-2-0.3-43.4,4.7-43.4,43.5c0,2.8,0.3,14,0.9,16.6c-3.9,1.6-7-0.4-7,5c0,9.2,6.8,17.2,14.5,18.2c4.8,13.3,16.9,26.7,30,26.7   c13.1,0,25.2-13.9,30-27.3c7.2-1.4,13.6-8.8,13.6-17.6c0-6-3.5-5.3-8.1-6c0.4-2.3,0.7-13.2,0.7-15.6c0-13.7-7.4-25.7-18.4-32.1   V78.4c16.3,7.2,27.6,23.6,27.6,42.5c0,3-0.9,7.9-1.4,10.7c4.9,4,8.6,5,8.6,12.5C202.5,155.2,195.6,168.2,186.6,169.9L186.6,169.9z    M210.6,212.3c2.6,0,5.2-0.2,7.7-0.7v10.8c-2.5,0.4-5.1,0.5-7.7,0.5c-15.7,0-29.8-6.5-40-16.9c0.2-0.2,5.8-4.6,8-7.1   C186.9,207.3,198.2,212.3,210.6,212.3z"
   id="path14" />
</g>
</svg>