<?xml version="1.0" encoding="utf-8"?>
<!-- Generator: Adobe Illustrator 23.0.0, SVG Export Plug-In . SVG Version: 6.00 Build 0)  -->
<svg version="1.1" id="레이어_1" xmlns="http://www.w3.org/2000/svg" xmlns:xlink="http://www.w3.org/1999/xlink" x="0px"
	 y="0px" viewBox="0 0 256 256" style="enable-background:new 0 0 256 256;" xml:space="preserve">
<style type="text/css">
	.st0{fill:#F7931E;}
	.st1{opacity:0.75;fill:#FFFFFF;enable-background:new    ;}
	.st2{opacity:0.5;fill:#FFFFFF;}
	.st3{opacity:0.8;fill:#FFFFFF;}
	.st4{fill:#FFFFFF;}
</style>
<path class="st0" d="M251.7,90.4c-3.1-23.4-11.4-44.6-26-60.1l0,0c-15.6-14.6-36.7-22.9-60.1-26C143.2,1.3,128,2,128,2
	s-15.2-0.7-37.6,2.3C67,7.4,45.8,15.7,30.3,30.3C15.7,45.8,7.5,67,4.3,90.4c-3,22.3-2.2,37.6-2.2,37.6s-0.7,15.2,2.2,37.6
	c3.1,23.4,11.4,44.6,26,60.1l0,0c15.6,14.6,36.7,22.9,60.1,26c22.3,3,37.6,2.2,37.6,2.2s15.2,0.7,37.6-2.2
	c23.4-3.1,44.6-11.4,60.1-26l0,0c14.6-15.6,22.9-36.7,26-60.1c3-22.3,2.2-37.6,2.2-37.6S254.7,112.8,251.7,90.4"/>
<g>
	<g transform="translate(2.3518,-3.7629)">
		<path class="st1" d="M113.4,101.9h5.8c2.3,0,4.2,1.9,4.2,4.2v5.8c0,2.3-1.9,4.2-4.2,4.2h-5.8c-2.3,0-4.2-1.9-4.2-4.2v-5.8
			C109.2,103.7,111.1,101.9,113.4,101.9z"/>
	</g>
	<path class="st2" d="M141.3,90.9c-4.4,0-8,3.6-8,8v29.5h0c8.8,14.1,17.6,28.3,26.4,42.4h43.4c5.5,0,10-4.5,10-10v-59.9
		c0-5.5-4.5-10-10-10H141.3z"/>
	<path class="st3" d="M103.4,58.7c-27,0-48.9,21.9-48.9,49c0,20.2,12.2,37.5,29.6,45c6.7-10.7,13.5-21.5,20.2-32.2v-18.5
		c0-2.8,2.2-5,5-5h16.9v-4.5c0-5.5,4.5-10,10-10h9.2C136.7,68.2,121.2,58.7,103.4,58.7z"/>
	<g transform="translate(2.3518,-3.7629)">
		<path class="st1" d="M64.4,183.1h5.8c2.3,0,4.2,1.9,4.2,4.2v5.8c0,2.3-1.9,4.2-4.2,4.2h-5.8c-2.3,0-4.2-1.9-4.2-4.2v-5.8
			C60.2,185,62.1,183.1,64.4,183.1z"/>
	</g>
	<g transform="translate(2.3518,-3.7629)">
		<path class="st1" d="M162.3,183.1h5.8c2.3,0,4.2,1.9,4.2,4.2v5.8c0,2.3-1.9,4.2-4.2,4.2h-5.8c-2.3,0-4.2-1.9-4.2-4.2v-5.8
			C158.1,185,160,183.1,162.3,183.1z"/>
	</g>
	<path class="st4" d="M113.4,116l-41.9,67.3c1.6,0.6,2.8,2.1,2.8,4v2.9h83.7v-2.9c0-1.8,1.2-3.4,2.8-4l-20.2-32.5L119.1,116H113.4z"
		/>
</g>
</svg>
