<?xml version="1.0" encoding="utf-8"?>
<!-- Generator: Adobe Illustrator 23.0.0, SVG Export Plug-In . SVG Version: 6.00 Build 0)  -->
<svg version="1.1" id="레이어_1" xmlns="http://www.w3.org/2000/svg" xmlns:xlink="http://www.w3.org/1999/xlink" x="0px"
	 y="0px" viewBox="0 0 256 256" style="enable-background:new 0 0 256 256;" xml:space="preserve">
<style type="text/css">
	.st0{fill:#9933CC;}
	.st1{fill:#FFFFFF;}
</style>
<path class="st0" d="M251.7,90.4c-3.1-23.4-11.4-44.6-26-60.1l0,0c-15.6-14.6-36.7-22.9-60.1-26C143.2,1.3,128,2,128,2
	s-15.2-0.7-37.6,2.3C67,7.4,45.8,15.7,30.3,30.3C15.7,45.8,7.5,67,4.3,90.4c-3,22.3-2.2,37.6-2.2,37.6s-0.7,15.2,2.2,37.6
	c3.1,23.4,11.4,44.6,26,60.1l0,0c15.6,14.6,36.7,22.9,60.1,26c22.3,3,37.6,2.2,37.6,2.2s15.2,0.7,37.6-2.2
	c23.4-3.1,44.6-11.4,60.1-26l0,0c14.6-15.6,22.9-36.7,26-60.1c3-22.3,2.2-37.6,2.2-37.6S254.7,112.8,251.7,90.4"/>
<path class="st1" d="M129,48c-30.4,0-55,11.2-55,25v110c0,13.8,24.6,25,55,25s55-11.2,55-25V73C184,59.2,159.4,48,129,48z"/>
<path class="st0" d="M171,90.6c-8,3.6-22.2,8.6-40.2,9c-20,0.4-35.4-5-43.6-8.8c0,2.4,0,5-0.2,7.4c0,1.2,0,2.4,0,3.6
	c0,24.8,0,49.6,0.2,74.6l0,0c0.4,8.2,22,17.6,41.4,17.8c19.8,0.2,42-9.4,42.2-17.8l0,0c0-20.4,0.2-40.8,0.2-61.2c0-4.8,0-9.6,0-14.6
	C171,97.2,171,93.8,171,90.6z"/>
</svg>
