<?xml version="1.0" encoding="UTF-8" standalone="no"?>
<svg
   version="1.1"
   id="svg2"
   width="400"
   height="400"
   viewBox="0 0 400 400"
   sodipodi:docname="garuda-system-maintenance.svg"
   inkscape:version="1.1 (c4e8f9ed74, 2021-05-24)"
   inkscape:export-filename="/home/sgs/Bilder/GSM-02-sgs.png"
   inkscape:export-xdpi="96"
   inkscape:export-ydpi="96"
   xmlns:inkscape="http://www.inkscape.org/namespaces/inkscape"
   xmlns:sodipodi="http://sodipodi.sourceforge.net/DTD/sodipodi-0.dtd"
   xmlns:xlink="http://www.w3.org/1999/xlink"
   xmlns="http://www.w3.org/2000/svg"
   xmlns:svg="http://www.w3.org/2000/svg"
   xmlns:rdf="http://www.w3.org/1999/02/22-rdf-syntax-ns#"
   xmlns:cc="http://creativecommons.org/ns#"
   xmlns:dc="http://purl.org/dc/elements/1.1/">
  <metadata
     id="metadata8">
    <rdf:RDF>
      <cc:Work
         rdf:about="">
        <dc:format>image/svg+xml</dc:format>
        <dc:type
           rdf:resource="http://purl.org/dc/dcmitype/StillImage" />
      </cc:Work>
    </rdf:RDF>
  </metadata>
  <defs
     id="defs6">
    <linearGradient
       inkscape:collect="always"
       id="linearGradient27706">
      <stop
         style="stop-color:#b300b3;stop-opacity:1"
         offset="0"
         id="stop27702" />
      <stop
         style="stop-color:#3974d4;stop-opacity:1"
         offset="1"
         id="stop27704" />
    </linearGradient>
    <linearGradient
       inkscape:collect="always"
       xlink:href="#linearGradient27706"
       id="linearGradient1299"
       x1="101.77115"
       y1="58.614143"
       x2="199.03926"
       y2="101.48587"
       gradientUnits="userSpaceOnUse"
       gradientTransform="matrix(4.7468856,1.7811019,-1.7811019,4.7468856,-369.95495,-451.93831)" />
    <linearGradient
       inkscape:collect="always"
       xlink:href="#linearGradient27706"
       id="linearGradient9498"
       x1="81.805214"
       y1="111.8433"
       x2="319.96838"
       y2="289.6243"
       gradientUnits="userSpaceOnUse"
       gradientTransform="translate(-8.0000041,-19.112494)" />
    <filter
       inkscape:collect="always"
       style="color-interpolation-filters:sRGB"
       id="filter51217"
       x="-0.012612757"
       y="-0.012612712"
       width="1.0252255"
       height="1.0252254">
      <feGaussianBlur
         inkscape:collect="always"
         stdDeviation="2.0285135"
         id="feGaussianBlur51219" />
    </filter>
    <filter
       inkscape:collect="always"
       style="color-interpolation-filters:sRGB"
       id="filter51241"
       x="-0.010408765"
       y="-0.014165552"
       width="1.0208175"
       height="1.0283311">
      <feGaussianBlur
         inkscape:collect="always"
         stdDeviation="1.0449089"
         id="feGaussianBlur51243" />
    </filter>
  </defs>
  <sodipodi:namedview
     pagecolor="#161616"
     bordercolor="#c60606"
     borderopacity="1"
     objecttolerance="10"
     gridtolerance="10"
     guidetolerance="10"
     inkscape:pageopacity="0"
     inkscape:pageshadow="2"
     inkscape:window-width="3840"
     inkscape:window-height="2078"
     id="namedview4"
     showgrid="false"
     inkscape:zoom="2.8284271"
     inkscape:cx="300.69716"
     inkscape:cy="195.16147"
     inkscape:window-x="0"
     inkscape:window-y="38"
     inkscape:window-maximized="0"
     inkscape:current-layer="svg2"
     inkscape:pagecheckerboard="true"
     borderlayer="true"
     inkscape:showpageshadow="false"
     inkscape:snap-global="true"
     inkscape:document-rotation="0"
     showguides="true"
     inkscape:lockguides="true"
     inkscape:guide-bbox="true" />
  <g
     id="g54574">
    <path
       style="fill:#000000;fill-opacity:1;stroke:none;stroke-width:0.750457;filter:url(#filter51217)"
       d="M 275.58108,14.523174 A 200.28529,200.28529 0 0 0 252.59728,7.0029628 L 223.60271,39.493637 A 162.40283,162.40283 0 0 0 174.5443,39.764974 L 145.04114,7.460492 A 200.28529,200.28529 0 0 0 100.7214,26.318184 l 2.47547,43.533117 A 162.40283,162.40283 0 0 0 68.742915,104.69782 L 25.113887,102.72145 A 200.28529,200.28529 0 0 0 14.523778,124.42062 200.28529,200.28529 0 0 0 7.0036468,147.40454 L 39.49423,176.39906 a 162.40283,162.40283 0 0 0 0.269017,49.05743 L 7.462168,254.95812 a 200.28529,200.28529 0 0 0 18.854288,44.32111 l 43.535612,-2.47437 a 162.40283,162.40283 0 0 0 34.846382,34.45397 l -1.97633,43.62893 a 200.28529,200.28529 0 0 0 21.69695,10.58905 200.28529,200.28529 0 0 0 22.98375,7.52023 l 28.99696,-32.48955 a 162.40283,162.40283 0 0 0 49.05488,-0.27003 l 29.50323,32.30444 a 200.28529,200.28529 0 0 0 44.3221,-18.85663 l -2.47443,-43.53558 a 162.40283,162.40283 0 0 0 34.45154,-34.84732 l 43.62807,1.97867 a 200.28529,200.28529 0 0 0 10.59249,-21.69831 200.28529,200.28529 0 0 0 7.51869,-22.98715 l -32.48819,-28.99355 a 162.40283,162.40283 0 0 0 -0.27239,-49.05608 l 32.30544,-29.50548 a 200.28529,200.28529 0 0 0 -18.85766,-44.31973 l -43.53553,2.47443 A 162.40283,162.40283 0 0 0 295.30299,68.744612 l 1.97734,-43.631396 A 200.28529,200.28529 0 0 0 275.58108,14.523174 Z M 251.63586,73.285116 A 136.83218,136.83218 0 0 1 326.7156,251.63744 136.83218,136.83218 0 0 1 148.36428,326.71495 136.83218,136.83218 0 0 1 73.28579,148.36588 136.83218,136.83218 0 0 1 251.63586,73.285116 Z"
       id="path51197"
       inkscape:connector-curvature="0" />
    <path
       style="fill:url(#linearGradient1299);fill-opacity:1;stroke:none;stroke-width:0.750457"
       d="M 275.58108,14.523174 A 200.28529,200.28529 0 0 0 252.59728,7.0029628 L 223.60271,39.493637 A 162.40283,162.40283 0 0 0 174.5443,39.764974 L 145.04114,7.460492 A 200.28529,200.28529 0 0 0 100.7214,26.318184 l 2.47547,43.533117 A 162.40283,162.40283 0 0 0 68.742915,104.69782 L 25.113887,102.72145 A 200.28529,200.28529 0 0 0 14.523778,124.42062 200.28529,200.28529 0 0 0 7.0036468,147.40454 L 39.49423,176.39906 a 162.40283,162.40283 0 0 0 0.269017,49.05743 L 7.462168,254.95812 a 200.28529,200.28529 0 0 0 18.854288,44.32111 l 43.535612,-2.47437 a 162.40283,162.40283 0 0 0 34.846382,34.45397 l -1.97633,43.62893 a 200.28529,200.28529 0 0 0 21.69695,10.58905 200.28529,200.28529 0 0 0 22.98375,7.52023 l 28.99696,-32.48955 a 162.40283,162.40283 0 0 0 49.05488,-0.27003 l 29.50323,32.30444 a 200.28529,200.28529 0 0 0 44.3221,-18.85663 l -2.47443,-43.53558 a 162.40283,162.40283 0 0 0 34.45154,-34.84732 l 43.62807,1.97867 a 200.28529,200.28529 0 0 0 10.59249,-21.69831 200.28529,200.28529 0 0 0 7.51869,-22.98715 l -32.48819,-28.99355 a 162.40283,162.40283 0 0 0 -0.27239,-49.05608 l 32.30544,-29.50548 a 200.28529,200.28529 0 0 0 -18.85766,-44.31973 l -43.53553,2.47443 A 162.40283,162.40283 0 0 0 295.30299,68.744612 l 1.97734,-43.631396 A 200.28529,200.28529 0 0 0 275.58108,14.523174 Z M 251.63586,73.285116 A 136.83218,136.83218 0 0 1 326.7156,251.63744 136.83218,136.83218 0 0 1 148.36428,326.71495 136.83218,136.83218 0 0 1 73.28579,148.36588 136.83218,136.83218 0 0 1 251.63586,73.285116 Z"
       id="path1291"
       inkscape:connector-curvature="0" />
    <g
       id="g51729"
       transform="matrix(1.0515238,0,0,1.0515238,-1.8925677,9.7924861)">
      <path
         id="path51221"
         style="fill:#000000;fill-opacity:1;stroke-width:6.12231;stroke-linecap:round;paint-order:stroke fill markers;filter:url(#filter51241)"
         d="M 174.3986,92.370616 C 139.94324,126.5 71.753416,195.48264 71.753416,195.48264 l -0.216507,-8.5e-4 0.109173,0.10934 -0.110963,0.11128 h 0.220282 l 73.327399,73.4535 75.29469,0.24849 63.56421,-63.3797 -138.00797,-0.12414 -15.30368,15.44677 115.5071,0.24472 -32.0852,32.08519 h -62.5722 l -58.04441,-58.04537 87.69728,-87.69728 h 63.05589 l 48.3151,48.30571 -75.23631,-0.094 v -21.26226 l -5.74946,5.74946 v -0.0412 L 195.98823,156.12 h 5.75137 v 0.007 l -5.75137,-0.007 -15.67828,15.69336 h 21.42965 v 0.0378 h 15.5277 v -0.0378 h 79.63597 v 21.08703 l 15.56161,-15.56157 -0.0337,-23.12964 c 0,0 -41.44732,-41.44731 -61.79645,-61.796424 z m 76.23595,0.0412 h 0.88858 l -0.90548,-0.0172 c 0.006,0.006 0.01,0.013 0.0172,0.0172 z" />
      <path
         id="path9410"
         style="fill:url(#linearGradient9498);fill-opacity:1;stroke-width:6.12231;stroke-linecap:round;paint-order:stroke fill markers"
         d="M 174.3986,92.370616 C 139.94324,126.5 71.753414,195.48264 71.753414,195.48264 l -0.216507,-8.5e-4 0.109173,0.10934 -0.110963,0.11128 h 0.220282 l 73.327401,73.4535 75.29469,0.24849 63.56421,-63.3797 -138.00797,-0.12414 -15.30368,15.44677 115.5071,0.24472 -32.0852,32.08519 h -62.5722 L 93.435338,195.63187 181.13262,107.93459 h 63.05589 l 48.3151,48.30571 -75.23631,-0.094 v -21.26226 l -5.74946,5.74946 v -0.0412 L 195.98823,156.12 h 5.75137 v 0.007 l -5.75137,-0.007 -15.67828,15.69336 h 21.42965 v 0.0378 h 15.5277 v -0.0378 h 79.63597 v 21.08703 l 15.56161,-15.56157 -0.0337,-23.12964 c 0,0 -41.44732,-41.44731 -61.79645,-61.796424 z m 76.23595,0.0412 h 0.88858 l -0.90548,-0.0172 c 0.006,0.006 0.01,0.013 0.0172,0.0172 z" />
    </g>
  </g>
</svg>
