<svg xmlns="http://www.w3.org/2000/svg" width="128" height="128"><path d="M20 12h88a8 8 0 018 8v88a8 8 0 01-8 8H20a8 8 0 01-8-8V20a8 8 0 018-8zm0 0" fill="#b90000"/><path d="M72.973 79.363L72 77.11l-8.379-19.93c-2.766-7.054-9.664-11.82-17.437-11.82-10.52 0-19.051 8.907-19.051 19.903 0 10.984 8.531 19.898 19.05 19.898 7.344 0 13.715-4.336 16.899-10.683l3.387 8.156c-4.805 6.12-12.114 10.02-20.285 10.02-14.489 0-26.23-12.255-26.23-27.391 0-15.133 11.741-27.403 26.23-27.403 10.933 0 19.761 6.094 24.25 16.903.336.84 4.742 11.59 8.586 20.738 2.375 5.66 4.402 9.422 10.988 9.652 6.453.23 10.898-3.87 10.898-9.07 0-5.074-3.394-6.293-9.101-8.277-10.258-3.528-15.563-7.075-15.563-15.575 0-8.289 5.399-13.82 14.18-13.82 5.71 0 9.848 2.656 12.71 7.953l-5.62 2.996c-2.11-3.086-4.438-4.308-7.407-4.308-4.12 0-7.05 2.992-7.05 6.972 0 5.653 4.84 6.504 11.601 8.817C103.77 63.937 108 67.48 108 76.312c0 9.282-7.621 16.043-17.578 16.028-9.172-.043-14.063-4.723-17.45-12.977" fill="#fff"/></svg>