<svg xmlns="http://www.w3.org/2000/svg" xmlns:xlink="http://www.w3.org/1999/xlink" width="128" height="128"><defs><clipPath id="b"><path d="M0 0h192v152H0z"/></clipPath><clipPath id="c"><path d="M0 0h192v152H0z"/></clipPath><clipPath id="d"><path d="M0 0h192v152H0z"/></clipPath><clipPath id="e"><path d="M0 0h192v152H0z"/></clipPath><mask id="i"><g filter="url(#a)"><path fill-opacity=".1" d="M0 0h128v128H0z"/></g></mask><mask id="g"><g filter="url(#a)"><path fill-opacity=".2" d="M0 0h128v128H0z"/></g></mask><mask id="k"><g filter="url(#a)"><path fill-opacity=".2" d="M0 0h128v128H0z"/></g></mask><mask id="m"><g filter="url(#a)"><path fill-opacity=".1" d="M0 0h128v128H0z"/></g></mask><g id="h" clip-path="url(#c)"><path d="M73.027 54.629v52.726a7.286 7.286 0 01-7.215 7.215H19.965V47.414h45.847a7.238 7.238 0 017.215 7.215zm0 0"/></g><g id="j" clip-path="url(#d)"><path d="M70.86 54.629v52.726a5.037 5.037 0 01-5.047 5.047H19.965V49.578h45.847a5.038 5.038 0 015.047 5.05zm0 0"/></g><g id="f" clip-path="url(#b)"><path d="M70.86 54.629v57.059c.003.292-.024.582-.087.867a5.007 5.007 0 01-4.96 4.18H19.965V49.577h45.847a5.038 5.038 0 015.047 5.05zm0 0"/></g><g id="l" clip-path="url(#e)"><path d="M68.695 54.629v52.726a5.04 5.04 0 01-5.05 5.047h-43.68V49.578h43.68a5.041 5.041 0 015.05 5.05zm0 0"/></g><filter id="a" filterUnits="objectBoundingBox" x="0%" y="0%" width="100%" height="100%"><feColorMatrix in="SourceGraphic" values="0 0 0 0 1 0 0 0 0 1 0 0 0 0 1 0 0 0 1 0"/></filter></defs><path d="M108.438 11.918H81.995a7.56 7.56 0 00-5.348 2.215L14.23 76.547a7.567 7.567 0 00-2.214 5.348v26.445a7.56 7.56 0 007.562 7.558h26.445a7.557 7.557 0 005.344-2.214l62.418-62.414A7.567 7.567 0 00116 45.922V19.477a7.56 7.56 0 00-7.563-7.559zm0 0" fill="#28a8ea"/><path d="M108.441 115.898H81.996a7.56 7.56 0 01-5.348-2.214l-12.64-12.637V77.426c0-7.465 6.05-13.52 13.52-13.52h23.617l12.64 12.64A7.567 7.567 0 01116 81.896v26.445a7.56 7.56 0 01-7.559 7.558zm0 0" fill="#0078d4"/><path d="M19.578 11.918h26.445c2.004 0 3.926.797 5.344 2.215l12.64 12.637v23.62c0 7.465-6.05 13.516-13.515 13.516h-23.62L14.23 51.27a7.567 7.567 0 01-2.214-5.348V19.477a7.56 7.56 0 017.562-7.559zm0 0" fill="#50d9ff"/><use xlink:href="#f" transform="translate(-8 -16)" mask="url(#g)"/><use xlink:href="#h" transform="translate(-8 -16)" mask="url(#i)"/><use xlink:href="#j" transform="translate(-8 -16)" mask="url(#k)"/><use xlink:href="#l" transform="translate(-8 -16)" mask="url(#m)"/><path d="M2.371 33.578H58.36a2.337 2.337 0 012.336 2.336v55.988a2.337 2.337 0 01-2.336 2.336H2.371A2.334 2.334 0 01.04 91.902V35.914a2.334 2.334 0 012.332-2.336zm0 0" fill="#0078d4"/><path d="M40.3 52.82H22.88v8.293h16.55v5.317H22.88v8.613h18.176v5.293H16.44V47.48h23.86zm0 0" fill="#fff"/></svg>