<?xml version="1.0" encoding="UTF-8" standalone="no"?>
<!-- Created with Sodipodi ("http://www.sodipodi.com/") -->
<svg
   xmlns:xml="http://www.w3.org/XML/1998/namespace"
   xmlns:dc="http://purl.org/dc/elements/1.1/"
   xmlns:cc="http://web.resource.org/cc/"
   xmlns:rdf="http://www.w3.org/1999/02/22-rdf-syntax-ns#"
   xmlns:svg="http://www.w3.org/2000/svg"
   xmlns="http://www.w3.org/2000/svg"
   xmlns:xlink="http://www.w3.org/1999/xlink"
   xmlns:sodipodi="http://inkscape.sourceforge.net/DTD/sodipodi-0.dtd"
   xmlns:inkscape="http://www.inkscape.org/namespaces/inkscape"
   inkscape:version="0.41"
   sodipodi:docname="xfcalendar.svg"
   sodipodi:docbase="/home/francois/Rodent/scalable/mcs_icons"
   height="128pt"
   width="128pt"
   sodipodi:version="0.32"
   id="svg814">
  <metadata
     id="metadata14">
    <rdf:RDF
       id="RDF16">
      <cc:Work
         id="Work18"
         rdf:about="">
        <dc:format
           id="format20">image/svg+xml</dc:format>
        <dc:type
           rdf:resource="http://purl.org/dc/dcmitype/StillImage"
           id="type22" />
      </cc:Work>
    </rdf:RDF>
  </metadata>
  <defs
     id="defs816">
    <linearGradient
       id="linearGradient2067">
      <stop
         style="stop-color:#c5d2c8;stop-opacity:1;"
         offset="0"
         id="stop2069" />
      <stop
         style="stop-color:#e2e8e3;stop-opacity:1.0000000;"
         offset="0.24285714"
         id="stop2075" />
      <stop
         style="stop-color:#ffffff;stop-opacity:1.0000000;"
         offset="1.0000000"
         id="stop2071" />
    </linearGradient>
    <linearGradient
       id="linearGradient2060">
      <stop
         id="stop2062"
         offset="0.0000000"
         style="stop-color:#efe0cd;stop-opacity:1.0000000;" />
      <stop
         id="stop2066"
         offset="0.30000001"
         style="stop-color:#f7efe6;stop-opacity:1.0000000;" />
      <stop
         id="stop2064"
         offset="1.0000000"
         style="stop-color:#ffffff;stop-opacity:1.0000000;" />
    </linearGradient>
    <linearGradient
       id="linearGradient828">
      <stop
         id="stop829"
         offset="0"
         style="stop-color:#f3f2f2;stop-opacity:1.0000;" />
      <stop
         id="stop830"
         offset="1"
         style="stop-color:#adaaaa;stop-opacity:1.0000;" />
    </linearGradient>
    <linearGradient
       y2="0.882812"
       x2="0.775194"
       y1="7.031250e-2"
       x1="4.651171e-2"
       id="linearGradient831"
       xlink:href="#linearGradient828" />
  </defs>
  <sodipodi:namedview
     inkscape:current-layer="svg814"
     inkscape:window-y="49"
     inkscape:window-x="15"
     inkscape:window-height="653"
     inkscape:window-width="1242"
     inkscape:cy="80.000000"
     inkscape:cx="80.000000"
     inkscape:zoom="2.9500000"
     gridspacingy="1mm"
     gridspacingx="1mm"
     snaptogrid="true"
     showgrid="true"
     id="base" />
  <rect
     y="7.6377954"
     x="14.173228"
     height="140.54474"
     width="127.25804"
     id="rect1307"
     style="font-size:12.000000;fill:#ffffff;fill-opacity:1.0000000;fill-rule:evenodd;stroke:none;stroke-width:3.3749681;stroke-linejoin:round" />
  <rect
     y="11.482059"
     x="17.094587"
     height="140.18172"
     width="127.42729"
     id="rect827"
     style="font-size:12.000000;fill:#000000;fill-opacity:0.48150000;fill-rule:evenodd;stroke:none;stroke-width:3.7500000;stroke-linejoin:round;stroke-opacity:1.0000000" />
  <rect
     y="10.695192"
     x="17.094570"
     height="137.48735"
     width="124.33670"
     id="rect817"
     style="font-size:12.000000;fill:#eae8e3;fill-opacity:1.0000000;fill-rule:evenodd;stroke:#000000;stroke-width:3.3749681;stroke-linejoin:round" />
  <path
     style="font-size:12.000000;fill:#000000;fill-opacity:0.42105260;stroke-width:0.21160001;font-family:helvetica"
     d="M 122.66162,137.94545 C 122.01748,139.54899 121.38984,140.59530 120.77873,141.08439 C 120.16760,141.57347 119.35004,141.81801 118.32601,141.81801 L 116.50504,141.81801 L 116.50504,139.96591 L 117.84289,139.96591 C 118.47052,139.96591 118.95776,139.82159 119.30461,139.53296 C 119.65146,139.24432 120.03548,138.56281 120.45665,137.48844 L 120.86543,136.47820 L 115.25390,123.22488 L 117.66947,123.22488 L 122.00509,133.76018 L 126.34071,123.22488 L 128.75626,123.22488 L 122.66162,137.94545 z M 107.64799,129.92370 C 105.80639,129.92370 104.53047,130.12815 103.82025,130.53705 C 103.11005,130.94596 102.75493,131.64350 102.75493,132.62969 C 102.75493,133.41542 103.01920,134.04080 103.54773,134.50583 C 104.08452,134.96284 104.81126,135.19135 105.72793,135.19135 C 106.99145,135.19135 108.00310,134.75839 108.76286,133.89248 C 109.53088,133.01854 109.91490,131.85998 109.91490,130.41679 L 109.91490,129.92370 L 107.64799,129.92370 z M 112.19420,129.00967 L 112.19420,136.69468 L 109.91490,136.69468 L 109.91490,134.65016 C 109.39462,135.46796 108.74635,136.07330 107.97006,136.46617 C 107.19378,136.85102 106.24407,137.04345 105.12094,137.04345 C 103.70051,137.04345 102.56912,136.65859 101.72677,135.88889 C 100.89268,135.11117 100.47565,134.07288 100.47565,132.77400 C 100.47565,131.25865 100.99591,130.11613 102.03646,129.34643 C 103.08527,128.57672 104.64609,128.19187 106.71892,128.19187 L 109.91490,128.19187 L 109.91490,127.97539 C 109.91490,126.95713 109.56805,126.17140 108.87435,125.61817 C 108.18891,125.05693 107.22269,124.77631 105.97568,124.77631 C 105.18289,124.77631 104.41073,124.86852 103.65922,125.05292 C 102.90772,125.23733 102.18511,125.51395 101.49141,125.88276 L 101.49141,123.83824 C 102.32550,123.52554 103.13481,123.29303 103.91936,123.14069 C 104.70390,122.98034 105.46780,122.90016 106.21104,122.90016 C 108.21782,122.90016 109.71670,123.40528 110.70770,124.41552 C 111.69869,125.42575 112.19420,126.95713 112.19420,129.00967 z M 94.368608,125.26940 L 94.368608,117.98128 L 96.647906,117.98128 L 96.647906,136.69468 L 94.368608,136.69468 L 94.368608,134.67420 C 93.889624,135.47598 93.282638,136.07330 92.547646,136.46617 C 91.820913,136.85102 90.945532,137.04345 89.921500,137.04345 C 88.245059,137.04345 86.878308,136.39401 85.821243,135.09514 C 84.772435,133.79627 84.248031,132.08849 84.248031,129.97180 C 84.248031,127.85512 84.772435,126.14734 85.821243,124.84847 C 86.878308,123.54960 88.245059,122.90016 89.921500,122.90016 C 90.945532,122.90016 91.820913,123.09660 92.547646,123.48947 C 93.282638,123.87432 93.889624,124.46763 94.368608,125.26940 z M 86.601653,129.97180 C 86.601653,131.59940 86.944374,132.87824 87.629816,133.80829 C 88.323515,134.73033 89.273220,135.19135 90.478937,135.19135 C 91.684651,135.19135 92.634359,134.73033 93.328058,133.80829 C 94.021757,132.87824 94.368608,131.59940 94.368608,129.97180 C 94.368608,128.34420 94.021757,127.06938 93.328058,126.14734 C 92.634359,125.21729 91.684651,124.75225 90.478937,124.75225 C 89.273220,124.75225 88.323515,125.21729 87.629816,126.14734 C 86.944374,127.06938 86.601653,128.34420 86.601653,129.97180 z M 80.692824,128.56469 L 80.692824,136.69468 L 78.413527,136.69468 L 78.413527,128.63685 C 78.413527,127.36204 78.157519,126.40792 77.645501,125.77451 C 77.133486,125.14111 76.365464,124.82442 75.341431,124.82442 C 74.110940,124.82442 73.140587,125.20526 72.430370,125.96694 C 71.720156,126.72863 71.365047,127.76693 71.365047,129.08183 L 71.365047,136.69468 L 69.073364,136.69468 L 69.073364,123.22488 L 71.365047,123.22488 L 71.365047,125.31751 C 71.910098,124.50772 72.550117,123.90238 73.285107,123.50149 C 74.028357,123.10060 74.883093,122.90016 75.849317,122.90016 C 77.443172,122.90016 78.648889,123.38123 79.466461,124.34336 C 80.284036,125.29747 80.692824,126.70458 80.692824,128.56469 z M 59.014725,124.77631 C 57.792493,124.77631 56.826269,125.24134 56.116055,126.17140 C 55.405838,127.09343 55.050729,128.36024 55.050729,129.97180 C 55.050729,131.58337 55.401709,132.85418 56.103666,133.78424 C 56.813883,134.70628 57.784235,135.16730 59.014725,135.16730 C 60.228699,135.16730 61.190793,134.70227 61.901010,133.77221 C 62.611225,132.84215 62.966333,131.57535 62.966333,129.97180 C 62.966333,128.37627 62.611225,127.11349 61.901010,126.18342 C 61.190793,125.24535 60.228699,124.77631 59.014725,124.77631 z M 59.014725,122.90016 C 60.996722,122.90016 62.553415,123.52554 63.684807,124.77631 C 64.816197,126.02708 65.381892,127.75890 65.381892,129.97180 C 65.381892,132.17668 64.816197,133.90852 63.684807,135.16730 C 62.553415,136.41807 60.996722,137.04345 59.014725,137.04345 C 57.024469,137.04345 55.463647,136.41807 54.332257,135.16730 C 53.209125,133.90852 52.647559,132.17668 52.647559,129.97180 C 52.647559,127.75890 53.209125,126.02708 54.332257,124.77631 C 55.463647,123.52554 57.024469,122.90016 59.014725,122.90016 z M 31.848972,118.73896 L 35.577604,118.73896 L 40.297236,130.95799 L 45.041642,118.73896 L 48.770275,118.73896 L 48.770275,136.69468 L 46.329940,136.69468 L 46.329940,120.92780 L 41.560759,133.24304 L 39.046100,133.24304 L 34.276918,120.92780 L 34.276918,136.69468 L 31.848972,136.69468 L 31.848972,118.73896 z "
     id="path5137" />
  <path
     id="path841"
     d="M 121.66047,136.94430 C 121.01633,138.54784 120.38869,139.59415 119.77758,140.08324 C 119.16646,140.57232 118.34889,140.81686 117.32486,140.81686 L 115.50389,140.81686 L 115.50389,138.96477 L 116.84175,138.96477 C 117.46937,138.96477 117.95661,138.82044 118.30346,138.53181 C 118.65031,138.24317 119.03433,137.56166 119.45550,136.48729 L 119.86429,135.47705 L 114.25275,122.22374 L 116.66832,122.22374 L 121.00394,132.75903 L 125.33956,122.22374 L 127.75511,122.22374 L 121.66047,136.94430 z M 106.64685,128.92255 C 104.80524,128.92255 103.52932,129.12701 102.81911,129.53590 C 102.10890,129.94481 101.75378,130.64236 101.75378,131.62854 C 101.75378,132.41427 102.01805,133.03966 102.54658,133.50468 C 103.08338,133.96170 103.81011,134.19020 104.72678,134.19020 C 105.99031,134.19020 107.00195,133.75725 107.76171,132.89133 C 108.52974,132.01739 108.91375,130.85883 108.91375,129.41565 L 108.91375,128.92255 L 106.64685,128.92255 z M 111.19305,128.00852 L 111.19305,135.69353 L 108.91375,135.69353 L 108.91375,133.64901 C 108.39347,134.46681 107.74520,135.07215 106.96891,135.46503 C 106.19264,135.84988 105.24292,136.04230 104.11980,136.04230 C 102.69936,136.04230 101.56797,135.65745 100.72563,134.88775 C 99.891539,134.11002 99.474499,133.07173 99.474499,131.77286 C 99.474499,130.25751 99.994779,129.11498 101.03531,128.34528 C 102.08412,127.57557 103.64494,127.19072 105.71778,127.19072 L 108.91375,127.19072 L 108.91375,126.97424 C 108.91375,125.95598 108.56690,125.17025 107.87321,124.61702 C 107.18776,124.05579 106.22154,123.77516 104.97453,123.77516 C 104.18174,123.77516 103.40958,123.86737 102.65807,124.05177 C 101.90657,124.23619 101.18396,124.51280 100.49027,124.88161 L 100.49027,122.83709 C 101.32435,122.52439 102.13366,122.29189 102.91821,122.13954 C 103.70275,121.97919 104.46665,121.89901 105.20990,121.89901 C 107.21667,121.89901 108.71555,122.40413 109.70655,123.41437 C 110.69755,124.42460 111.19305,125.95598 111.19305,128.00852 z M 93.367468,124.26825 L 93.367468,116.98013 L 95.646766,116.98013 L 95.646766,135.69353 L 93.367468,135.69353 L 93.367468,133.67306 C 92.888484,134.47484 92.281498,135.07215 91.546506,135.46503 C 90.819773,135.84988 89.944392,136.04230 88.920361,136.04230 C 87.243920,136.04230 85.877168,135.39286 84.820103,134.09399 C 83.771296,132.79512 83.246892,131.08734 83.246892,128.97065 C 83.246892,126.85398 83.771296,125.14620 84.820103,123.84732 C 85.877168,122.54845 87.243920,121.89901 88.920361,121.89901 C 89.944392,121.89901 90.819773,122.09545 91.546506,122.48832 C 92.281498,122.87317 92.888484,123.46648 93.367468,124.26825 z M 85.600513,128.97065 C 85.600513,130.59825 85.943235,131.87709 86.628677,132.80715 C 87.322376,133.72919 88.272081,134.19020 89.477797,134.19020 C 90.683511,134.19020 91.633219,133.72919 92.326918,132.80715 C 93.020617,131.87709 93.367468,130.59825 93.367468,128.97065 C 93.367468,127.34305 93.020617,126.06824 92.326918,125.14620 C 91.633219,124.21614 90.683511,123.75110 89.477797,123.75110 C 88.272081,123.75110 87.322376,124.21614 86.628677,125.14620 C 85.943235,126.06824 85.600513,127.34305 85.600513,128.97065 z M 79.691685,127.56354 L 79.691685,135.69353 L 77.412387,135.69353 L 77.412387,127.63570 C 77.412387,126.36089 77.156379,125.40678 76.644362,124.77337 C 76.132347,124.13997 75.364324,123.82327 74.340292,123.82327 C 73.109800,123.82327 72.139448,124.20411 71.429231,124.96580 C 70.719016,125.72748 70.363908,126.76578 70.363908,128.08069 L 70.363908,135.69353 L 68.072224,135.69353 L 68.072224,122.22374 L 70.363908,122.22374 L 70.363908,124.31636 C 70.908958,123.50657 71.548977,122.90123 72.283967,122.50035 C 73.027217,122.09946 73.881954,121.89901 74.848177,121.89901 C 76.442033,121.89901 77.647750,122.38008 78.465322,123.34221 C 79.282897,124.29632 79.691685,125.70343 79.691685,127.56354 z M 58.013585,123.77516 C 56.791353,123.77516 55.825130,124.24019 55.114915,125.17025 C 54.404698,126.09228 54.049590,127.35909 54.049590,128.97065 C 54.049590,130.58222 54.400570,131.85303 55.102526,132.78309 C 55.812744,133.70513 56.783096,134.16615 58.013585,134.16615 C 59.227559,134.16615 60.189653,133.70113 60.899871,132.77106 C 61.610085,131.84101 61.965193,130.57421 61.965193,128.97065 C 61.965193,127.37512 61.610085,126.11234 60.899871,125.18227 C 60.189653,124.24420 59.227559,123.77516 58.013585,123.77516 z M 58.013585,121.89901 C 59.995583,121.89901 61.552276,122.52439 62.683668,123.77516 C 63.815058,125.02593 64.380753,126.75776 64.380753,128.97065 C 64.380753,131.17553 63.815058,132.90737 62.683668,134.16615 C 61.552276,135.41692 59.995583,136.04230 58.013585,136.04230 C 56.023329,136.04230 54.462507,135.41692 53.331117,134.16615 C 52.207985,132.90737 51.646419,131.17553 51.646419,128.97065 C 51.646419,126.75776 52.207985,125.02593 53.331117,123.77516 C 54.462507,122.52439 56.023329,121.89901 58.013585,121.89901 z M 30.847832,117.73781 L 34.576465,117.73781 L 39.296097,129.95684 L 44.040502,117.73781 L 47.769135,117.73781 L 47.769135,135.69353 L 45.328801,135.69353 L 45.328801,119.92665 L 40.559620,132.24190 L 38.044961,132.24190 L 33.275778,119.92665 L 33.275778,135.69353 L 30.847832,135.69353 L 30.847832,117.73781 z "
     style="font-size:12.000000;stroke-width:0.21160001;font-family:helvetica" />
  <text
     transform="scale(0.983141,1.017148)"
     id="text1303"
     y="38.991158"
     x="41.908218"
     style="font-size:24.102474;font-style:normal;font-weight:normal;fill:#000000;fill-opacity:1.0000000;stroke:none;stroke-width:1.0000000pt;stroke-linecap:butt;stroke-linejoin:miter;stroke-opacity:1.0000000;font-family:Bitstream Vera Sans"
     xml:space="preserve"><tspan
       y="38.991158"
       x="41.908218"
       id="tspan1305"
       sodipodi:role="line">March</tspan></text>
  <path
     id="text1307"
     d="M 44.194769,22.455124 L 47.677454,22.455124 L 52.085771,34.617259 L 56.517228,22.455124 L 59.999913,22.455124 L 59.999913,40.327238 L 57.720547,40.327238 L 57.720547,24.633773 L 53.265949,36.891675 L 50.917161,36.891675 L 46.462563,24.633773 L 46.462563,40.327238 L 44.194769,40.327238 L 44.194769,22.455124 M 70.447971,33.587787 C 68.727834,33.587794 67.536086,33.791294 66.872722,34.198289 C 66.209349,34.605294 65.877665,35.299588 65.877669,36.281174 C 65.877665,37.063257 66.124500,37.685728 66.618174,38.148588 C 67.119552,38.603473 67.798347,38.830914 68.654561,38.830913 C 69.834733,38.830914 70.779647,38.399973 71.489306,37.538087 C 72.206659,36.668227 72.565340,35.515060 72.565351,34.078582 L 72.565351,33.587787 L 70.447971,33.587787 M 74.694302,32.678022 L 74.694302,40.327238 L 72.565351,40.327238 L 72.565351,38.292236 C 72.079385,39.106238 71.473869,39.708758 70.748801,40.099798 C 70.023715,40.482856 69.136653,40.674385 68.087611,40.674386 C 66.760870,40.674385 65.704109,40.291326 64.917327,39.525208 C 64.138253,38.751110 63.748716,37.717649 63.748718,36.424821 C 63.748716,34.916530 64.234672,33.779323 65.206586,33.013199 C 66.186208,32.247088 67.644075,31.864028 69.580192,31.864020 L 72.565351,31.864020 L 72.565351,31.648549 C 72.565340,30.635047 72.241370,29.852968 71.593439,29.302311 C 70.953202,28.743694 70.050713,28.464380 68.885969,28.464368 C 68.145458,28.464380 67.424238,28.556154 66.722307,28.739692 C 66.020367,28.923253 65.345428,29.198576 64.697490,29.565663 L 64.697490,27.530660 C 65.476559,27.219438 66.232490,26.988006 66.965284,26.836365 C 67.698071,26.676771 68.411577,26.596966 69.105806,26.596953 C 70.980200,26.596966 72.380215,27.099732 73.305856,28.105250 C 74.231475,29.110792 74.694290,30.635047 74.694302,32.678022 M 86.600227,28.979104 C 86.361096,28.835469 86.098835,28.731724 85.813441,28.667868 C 85.535743,28.596057 85.227200,28.560144 84.887811,28.560133 C 83.684484,28.560144 82.758854,28.967144 82.110918,29.781135 C 81.470686,30.587164 81.150572,31.748313 81.150576,33.264582 L 81.150576,40.327238 L 79.010055,40.327238 L 79.010055,26.920160 L 81.150576,26.920160 L 81.150576,29.003045 C 81.597960,28.189056 82.180336,27.586536 82.897704,27.195483 C 83.615062,26.796477 84.486696,26.596966 85.512612,26.596953 C 85.659161,26.596966 85.821146,26.608938 85.998568,26.632866 C 86.175971,26.648839 86.372668,26.676771 86.588658,26.716660 L 86.600227,28.979104 M 97.673087,27.434896 L 97.673087,29.493840 C 97.071413,29.150693 96.465898,28.895321 95.856536,28.727720 C 95.254867,28.552164 94.645493,28.464380 94.028414,28.464368 C 92.647676,28.464380 91.575488,28.919263 90.811847,29.829017 C 90.048199,30.730812 89.666376,31.999695 89.666380,33.635670 C 89.666376,35.271657 90.048199,36.544530 90.811847,37.454293 C 91.575488,38.356080 92.647676,38.806973 94.028414,38.806972 C 94.645493,38.806973 95.254867,38.723179 95.856536,38.555589 C 96.465898,38.380022 97.071413,38.120659 97.673087,37.777499 L 97.673087,39.812503 C 97.079126,40.099798 96.462042,40.315268 95.821825,40.458916 C 95.189302,40.602563 94.514362,40.674385 93.797007,40.674386 C 91.845462,40.674385 90.295033,40.039944 89.145712,38.771060 C 87.996386,37.502178 87.421723,35.790383 87.421725,33.635670 C 87.421723,31.449048 88.000243,29.729272 89.157283,28.476338 C 90.322030,27.223428 91.914885,26.596966 93.935852,26.596953 C 94.591498,26.596966 95.231725,26.668791 95.856536,26.812423 C 96.481326,26.948104 97.086839,27.155595 97.673087,27.434896 M 112.12448,32.235109 L 112.12448,40.327238 L 109.99554,40.327238 L 109.99554,32.306933 C 109.99552,31.038058 109.75640,30.088390 109.27818,29.457928 C 108.79992,28.827488 108.08256,28.512262 107.12608,28.512250 C 105.97675,28.512262 105.07041,28.891331 104.40704,29.649458 C 103.74367,30.407607 103.41198,31.441067 103.41199,32.749845 L 103.41199,40.327238 L 101.27147,40.327238 L 101.27147,21.700976 L 103.41199,21.700976 L 103.41199,29.003045 C 103.92107,28.197037 104.51888,27.594517 105.20539,27.195483 C 105.89960,26.796477 106.69797,26.596966 107.60048,26.596953 C 109.08918,26.596966 110.21536,27.075790 110.97902,28.033426 C 111.74265,28.983106 112.12447,30.383665 112.12448,32.235109"
     style="font-size:25.467827;font-style:normal;font-weight:normal;fill:none;fill-opacity:1.0000000;stroke:#000000;stroke-width:0.94638968pt;stroke-linecap:butt;stroke-linejoin:miter;stroke-opacity:0.29959515;font-family:Bitstream Vera Sans" />
  <path
     id="text4373"
     d="M 64.698981,104.14535 L 77.740606,104.14535 L 77.740606,59.131993 L 63.552900,61.977438 L 63.552900,54.705745 L 77.661565,51.860300 L 85.644620,51.860300 L 85.644620,104.14535 L 98.686240,104.14535 L 98.686240,110.86376 L 64.698981,110.86376 L 64.698981,104.14535"
     style="font-size:85.521957;font-style:normal;font-weight:normal;fill:#000000;fill-opacity:0.33198377;stroke:none;stroke-width:0.62500000;stroke-linecap:butt;stroke-linejoin:miter;stroke-miterlimit:4.0000000;stroke-opacity:1.0000000;font-family:Bitstream Vera Sans" />
  <path
     id="text3611"
     d="M 62.806202,102.25257 L 75.847826,102.25257 L 75.847826,57.239213 L 61.660120,60.084658 L 61.660120,52.812965 L 75.768786,49.967520 L 83.751840,49.967520 L 83.751840,102.25257 L 96.793465,102.25257 L 96.793465,108.97099 L 62.806202,108.97099 L 62.806202,102.25257"
     style="font-size:85.521957;font-style:normal;font-weight:normal;fill:#df421e;fill-opacity:1.0000000;stroke:#000000;stroke-width:0.59149361;stroke-linecap:butt;stroke-linejoin:miter;stroke-miterlimit:4.0000000;stroke-opacity:1.0000000;font-family:Bitstream Vera Sans" />
  <rect
     y="12.542373"
     x="18.644068"
     height="3.6914454"
     width="120.67796"
     id="rect2073"
     style="fill:#ffffff;fill-opacity:0.59109312;fill-rule:evenodd;stroke:none;stroke-width:0.62500000;stroke-linecap:butt;stroke-miterlimit:4.0000000;stroke-opacity:0.35627529" />
  <rect
     y="142.28346"
     x="18.644068"
     height="3.9842527"
     width="120.67796"
     id="rect2833"
     style="fill:#000000;fill-opacity:0.19433196;fill-rule:evenodd;stroke:none;stroke-width:0.62500000;stroke-linecap:butt;stroke-miterlimit:4.0000000;stroke-opacity:0.35627529" />
</svg>
