<?xml version="1.0" encoding="UTF-8" standalone="no"?>
<!-- Created with Inkscape (http://www.inkscape.org/) -->

<svg
   xmlns:dc="http://purl.org/dc/elements/1.1/"
   xmlns:cc="http://creativecommons.org/ns#"
   xmlns:rdf="http://www.w3.org/1999/02/22-rdf-syntax-ns#"
   xmlns:svg="http://www.w3.org/2000/svg"
   xmlns="http://www.w3.org/2000/svg"
   xmlns:xlink="http://www.w3.org/1999/xlink"
   xmlns:sodipodi="http://sodipodi.sourceforge.net/DTD/sodipodi-0.dtd"
   xmlns:inkscape="http://www.inkscape.org/namespaces/inkscape"
   width="125.31289pt"
   height="96.749695pt"
   viewBox="0 0 44.207603 34.131143"
   version="1.1"
   id="svg1006"
   inkscape:version="0.92.4 (5da689c313, 2019-01-14)"
   sodipodi:docname="xfce-mount.svg">
  <defs
     id="defs1000">
    <linearGradient
       y2="37.025398"
       x2="14.563"
       y1="33.702099"
       x1="14.563"
       gradientUnits="userSpaceOnUse"
       id="XMLID_28_">
      <stop
         id="stop800"
         style="stop-color:#828282"
         offset="0" />
      <stop
         id="stop801"
         style="stop-color:#A2A2A2"
         offset="1" />
    </linearGradient>
    <linearGradient
       gradientTransform="matrix(1.0583333,0,0,1.0583333,4.3144465,-3.9624838)"
       y2="35.3633"
       x2="20.9429"
       y1="35.3633"
       x1="8.1836004"
       gradientUnits="userSpaceOnUse"
       id="XMLID_27_">
      <stop
         id="stop793"
         style="stop-color:#DFDFDF"
         offset="0" />
      <stop
         id="stop794"
         style="stop-color:#A2A2A2"
         offset="1" />
    </linearGradient>
    <linearGradient
       gradientTransform="matrix(1.0583333,0,0,1.0583333,4.3144465,-3.9624838)"
       y2="36.4035"
       x2="39.5098"
       y1="35.482399"
       x1="39.5098"
       gradientUnits="userSpaceOnUse"
       id="XMLID_26_">
      <stop
         id="stop779"
         style="stop-color:#FFFFFF"
         offset="0" />
      <stop
         id="stop780"
         style="stop-color:#E8F7D6"
         offset="0.0907" />
      <stop
         id="stop781"
         style="stop-color:#C8ED9E"
         offset="0.2274" />
      <stop
         id="stop782"
         style="stop-color:#ADE46D"
         offset="0.3649" />
      <stop
         id="stop783"
         style="stop-color:#97DC46"
         offset="0.5002" />
      <stop
         id="stop784"
         style="stop-color:#85D627"
         offset="0.6328" />
      <stop
         id="stop785"
         style="stop-color:#79D212"
         offset="0.7621" />
      <stop
         id="stop786"
         style="stop-color:#72D004"
         offset="0.8863" />
      <stop
         id="stop787"
         style="stop-color:#6FCF00"
         offset="1" />
    </linearGradient>
    <linearGradient
       gradientTransform="matrix(1.0583333,0,0,1.0583333,4.3144465,-3.9624838)"
       y2="35.269402"
       x2="39.539501"
       y1="36.678699"
       x1="39.487301"
       gradientUnits="userSpaceOnUse"
       id="XMLID_25_">
      <stop
         id="stop770"
         style="stop-color:#33CC33"
         offset="0.0056" />
      <stop
         id="stop771"
         style="stop-color:#1BB433"
         offset="0.3584" />
      <stop
         id="stop772"
         style="stop-color:#07A033"
         offset="0.7397" />
      <stop
         id="stop773"
         style="stop-color:#009933"
         offset="1" />
    </linearGradient>
    <linearGradient
       gradientTransform="matrix(-1.0583333,0,0,0.79374999,-296.0869,4.809089)"
       y2="36.076199"
       x2="-323.353"
       y1="37.987301"
       x1="-323.353"
       gradientUnits="userSpaceOnUse"
       id="XMLID_24_">
      <stop
         id="stop759"
         style="stop-color:#99FF66"
         offset="0.0056" />
      <stop
         id="stop760"
         style="stop-color:#68DE56"
         offset="0.2358" />
      <stop
         id="stop761"
         style="stop-color:#3BC147"
         offset="0.4783" />
      <stop
         id="stop762"
         style="stop-color:#1BAB3C"
         offset="0.6954" />
      <stop
         id="stop763"
         style="stop-color:#079E35"
         offset="0.8767" />
      <stop
         id="stop764"
         style="stop-color:#009933"
         offset="1" />
    </linearGradient>
    <linearGradient
       gradientTransform="matrix(1.0583333,0,0,1.0583333,4.3144465,-3.9624838)"
       y2="35.3806"
       x2="39.5098"
       y1="37.224602"
       x1="39.5098"
       gradientUnits="userSpaceOnUse"
       id="XMLID_23_">
      <stop
         id="stop750"
         style="stop-color:#B6B6B6"
         offset="0.0056" />
      <stop
         id="stop751"
         style="stop-color:#9D9D9D"
         offset="0.3669" />
      <stop
         id="stop752"
         style="stop-color:#898989"
         offset="0.7432" />
      <stop
         id="stop753"
         style="stop-color:#828282"
         offset="1" />
    </linearGradient>
    <linearGradient
       gradientTransform="matrix(1.0583333,0,0,1.0583333,4.3144465,-3.9624838)"
       y2="35.180599"
       x2="39.5098"
       y1="37.3242"
       x1="39.5098"
       gradientUnits="userSpaceOnUse"
       id="XMLID_22_">
      <stop
         id="stop743"
         style="stop-color:#FFFFFF"
         offset="0.0056" />
      <stop
         id="stop744"
         style="stop-color:#B6B6B6"
         offset="1" />
    </linearGradient>
    <linearGradient
       gradientTransform="matrix(1.0583333,0,0,1.0583333,4.3144465,-3.9624838)"
       y2="27.3757"
       x2="24.0005"
       y1="38.25"
       x1="24.0005"
       gradientUnits="userSpaceOnUse"
       id="XMLID_21_">
      <stop
         id="stop736"
         style="stop-color:#FFFFFF"
         offset="0" />
      <stop
         id="stop737"
         style="stop-color:#CCCCCC"
         offset="1" />
    </linearGradient>
    <linearGradient
       gradientTransform="matrix(1.0583333,0,0,1.0583333,4.3144465,-3.9624838)"
       y2="38.752899"
       x2="23.9995"
       y1="28.283199"
       x1="23.9995"
       gradientUnits="userSpaceOnUse"
       id="XMLID_20_">
      <stop
         id="stop729"
         style="stop-color:#FFFFFF"
         offset="0" />
      <stop
         id="stop730"
         style="stop-color:#CCCCCC"
         offset="1" />
    </linearGradient>
    <linearGradient
       gradientTransform="matrix(1.0583333,0,0,1.0583333,4.3144465,-3.9624838)"
       y2="28.4004"
       x2="43.607399"
       y1="28.4004"
       x1="4.3926001"
       gradientUnits="userSpaceOnUse"
       id="XMLID_19_">
      <stop
         id="stop722"
         style="stop-color:#FFFFFF"
         offset="0" />
      <stop
         id="stop723"
         style="stop-color:#CCCCCC"
         offset="1" />
    </linearGradient>
    <linearGradient
       gradientTransform="matrix(1.0583333,0,0,1.0583333,4.3144465,-3.9624838)"
       y2="28.4004"
       x2="43.607399"
       y1="28.4004"
       x1="4.3926001"
       gradientUnits="userSpaceOnUse"
       id="XMLID_18_">
      <stop
         id="stop712"
         style="stop-color:#9A9AB1"
         offset="0" />
      <stop
         id="stop713"
         style="stop-color:#7D7D99"
         offset="0.2584" />
      <stop
         id="stop714"
         style="stop-color:#585868"
         offset="1" />
    </linearGradient>
    <linearGradient
       gradientTransform="matrix(1.0583333,0,0,1.0583333,4.3144465,-3.9624838)"
       spreadMethod="pad"
       gradientUnits="userSpaceOnUse"
       y2="29.209892"
       x2="5.7379613"
       y1="9.4067039"
       x1="41.871559"
       id="linearGradient821"
       xlink:href="#XMLID_17_" />
    <linearGradient
       y2="27.5144"
       x2="18.7054"
       y1="3.4219"
       x1="42.797901"
       gradientUnits="userSpaceOnUse"
       id="XMLID_17_">
      <stop
         id="stop701"
         style="stop-color:#FFFFFF"
         offset="0" />
      <stop
         id="stop702"
         style="stop-color:#F5F5F7"
         offset="0.0712" />
      <stop
         id="stop703"
         style="stop-color:#D7D7E1"
         offset="0.3121" />
      <stop
         id="stop704"
         style="stop-color:#C2C2D2"
         offset="0.5501" />
      <stop
         id="stop705"
         style="stop-color:#B5B5C8"
         offset="0.7818" />
      <stop
         id="stop706"
         style="stop-color:#B1B1C5"
         offset="1" />
    </linearGradient>
    <linearGradient
       gradientTransform="matrix(1.0583333,0,0,1.0583333,4.3144465,-3.9624838)"
       y2="6.5620999"
       x2="24.0005"
       y1="41.4375"
       x1="24.0005"
       gradientUnits="userSpaceOnUse"
       id="XMLID_16_">
      <stop
         id="stop691"
         style="stop-color:#CECEDB"
         offset="0" />
      <stop
         id="stop692"
         style="stop-color:#B1B1C5"
         offset="0.5843" />
      <stop
         id="stop693"
         style="stop-color:#9A9AB1"
         offset="1" />
    </linearGradient>
    <linearGradient
       gradientTransform="matrix(1.0583333,0,0,1.0583333,4.3144465,-3.9624838)"
       y2="8.9314003"
       x2="24.0005"
       y1="39.0732"
       x1="24.0005"
       gradientUnits="userSpaceOnUse"
       id="XMLID_15_">
      <stop
         id="stop684"
         style="stop-color:#7D7D99"
         offset="0" />
      <stop
         id="stop685"
         style="stop-color:#585868"
         offset="1" />
    </linearGradient>
  </defs>
  <sodipodi:namedview
     id="base"
     pagecolor="#ffffff"
     bordercolor="#666666"
     borderopacity="1.0"
     inkscape:pageopacity="0.0"
     inkscape:pageshadow="2"
     inkscape:zoom="3.959798"
     inkscape:cx="72.88074"
     inkscape:cy="53.073619"
     inkscape:document-units="mm"
     inkscape:current-layer="layer1"
     showgrid="false"
     fit-margin-top="0"
     fit-margin-left="0"
     fit-margin-right="0"
     fit-margin-bottom="0"
     units="pt"
     inkscape:window-width="1869"
     inkscape:window-height="997"
     inkscape:window-x="2"
     inkscape:window-y="25"
     inkscape:window-maximized="1" />
  <metadata
     id="metadata1003">
    <rdf:RDF>
      <cc:Work
         rdf:about="">
        <dc:format>image/svg+xml</dc:format>
        <dc:type
           rdf:resource="http://purl.org/dc/dcmitype/StillImage" />
        <dc:title></dc:title>
      </cc:Work>
    </rdf:RDF>
  </metadata>
  <g
     inkscape:label="Ebene 1"
     inkscape:groupmode="layer"
     id="layer1"
     transform="translate(-7.907563,-4.767808)">
    <path
       inkscape:connector-curvature="0"
       id="path681"
       d="m 15.309472,5.5625157 c -1.577975,0 -2.875491,1.1842744 -3.019425,2.7548405 l 0.03175,-0.178858 -0.09313,0.5175247 0.03281,-0.182034 -0.09419,0.5164667 0.03175,-0.1788577 -0.09313,0.5143497 0.03175,-0.178859 -0.09419,0.5164667 0.03175,-0.178858 -0.09419,0.5154077 0.03175,-0.1767417 -0.09313,0.5122337 0.03175,-0.178859 -0.09419,0.513292 0.03175,-0.174625 -0.09313,0.510117 0.03069,-0.173567 -0.09313,0.512233 0.03175,-0.176741 -0.09313,0.511175 0.03069,-0.173567 -0.09313,0.509058 0.03069,-0.17145 -0.09208,0.508 0.03175,-0.174625 -0.09313,0.509059 0.03069,-0.172509 -0.09208,0.509059 0.02963,-0.17145 -0.09208,0.510116 0.03069,-0.170391 -0.09207,0.506941 0.02963,-0.169333 -0.09208,0.504825 0.03069,-0.170392 c 0,0 -0.09207,0.506942 -0.09207,0.506942 0,0 0.03069,-0.169333 0.03069,-0.169333 l -0.09207,0.504825 0.02963,-0.167217 -0.09208,0.504825 0.02963,-0.169333 c 0,0 -0.09102,0.502708 -0.09102,0.503766 0,-0.0011 0.02963,-0.166158 0.02963,-0.166158 l -0.09102,0.504825 0.02963,-0.167217 -0.09102,0.500592 0.02963,-0.1651 c 0,0 -0.09102,0.502708 -0.09102,0.503767 0,-0.0011 0.02963,-0.166159 0.02963,-0.166159 l -0.09102,0.503767 0.02963,-0.166158 -0.09102,0.50165 0.02858,-0.1651 -0.09208,0.498475 0.02858,-0.161925 -0.08996,0.499533 0.02858,-0.1651 -0.08996,0.499533 0.02858,-0.161925 -0.08996,0.498475 0.02857,-0.161925 -0.09102,0.499534 0.02858,-0.161925 -0.08996,0.497416 0.02858,-0.159808 -0.08996,0.497417 0.02858,-0.160867 -0.08996,0.497417 0.02858,-0.160867 -0.08996,0.497417 0.02858,-0.159809 -0.08996,0.4953 0.02752,-0.15875 -0.08996,0.494242 0.02752,-0.157692 -0.08996,0.494242 0.02752,-0.156633 -0.0889,0.494241 0.02752,-0.157691 -0.0889,0.4953 0.02752,-0.157692 -0.0889,0.493183 0.02752,-0.157691 -0.0889,0.492125 0.02752,-0.154517 -0.0889,0.492125 0.02752,-0.155575 -0.0889,0.491067 0.02752,-0.154517 -0.08996,0.493183 0.02752,-0.154516 -0.0889,0.490008 0.02752,-0.155575 -0.08996,0.494242 0.02752,-0.154517 -0.0889,0.490008 0.02645,-0.153458 -0.08784,0.490008 0.02646,-0.153458 c 0,0 -0.08784,0.485775 -0.08784,0.486833 0,-0.0011 0.02646,-0.151341 0.02646,-0.151341 l -0.0889,0.490004 0.02646,-0.15345 -0.09208,0.48471 0.02646,-0.15346 -0.0889,0.48895 0.02646,-0.15028 -0.08784,0.48578 0.02646,-0.15135 -0.08784,0.4879 0.02646,-0.15135 -0.08784,0.48578 0.02646,-0.14923 -0.08784,0.48366 0.0254,-0.14816 -0.08784,0.48789 0.0254,-0.14923 -0.08784,0.48366 0.0254,-0.14817 -0.08572,0.48366 0.0254,-0.14605 c -0.06985,0.28258 -0.105833,0.56515 -0.105833,0.84138 v 6.24522 c 0,1.91559 1.557867,3.47239 3.472392,3.47239 h 36.667017 c 1.915583,0 3.472392,-1.55786 3.472392,-3.47239 v -6.24522 c 0,-0.27834 -0.03598,-0.56198 -0.10795,-0.84455 l 0.02646,0.15134 -0.08678,-0.48366 0.0254,0.14817 -0.0889,-0.48578 0.02646,0.14817 -0.0889,-0.48683 0.02646,0.15134 -0.08784,-0.4826 0.0254,0.14816 -0.0889,-0.48789 0.02646,0.15452 -0.08678,-0.48683 c 0.0254,0.15028 -0.06244,-0.33655 -0.06244,-0.33655 v -0.001 l 0.0254,0.14816 -0.0889,-0.48577 0.02646,0.15452 -0.08784,-0.48895 0.02646,0.15134 -0.0889,-0.490012 0.02646,0.1524 -0.0889,-0.487892 0.02646,0.154517 -0.08784,-0.487892 0.0254,0.1524 -0.08784,-0.490008 0.0254,0.150283 -0.08784,-0.486833 0.02646,0.153458 -0.0889,-0.48895 0.02646,0.153459 -0.08996,-0.493184 0.02752,0.155575 -0.0889,-0.491066 0.02646,0.156633 -0.0889,-0.494242 0.02752,0.156634 -0.08996,-0.494242 0.02752,0.155575 -0.0889,-0.491067 0.02646,0.15875 -0.09102,-0.500591 0.02857,0.164041 -0.0889,-0.4953 0.02646,0.153459 -0.08784,-0.48895 0.02646,0.153458 -0.08996,-0.492125 0.02752,0.15875 -0.08996,-0.4953 0.02752,0.15875 -0.08996,-0.496358 0.02858,0.160866 -0.09208,-0.500591 0.02963,0.164041 -0.08996,-0.497416 0.02752,0.156633 c 0,0 -0.08996,-0.493183 -0.08996,-0.494242 0,0.0011 0.02752,0.159809 0.02752,0.159809 l -0.08996,-0.497417 0.02752,0.159808 -0.09102,-0.498475 0.02858,0.164042 -0.09102,-0.502708 0.02963,0.168275 -0.09102,-0.502709 0.02857,0.164042 c 0,0 -0.09102,-0.500592 -0.09102,-0.500592 0,0 0.02858,0.166159 0.02858,0.166159 l -0.09102,-0.504825 0.02857,0.168275 -0.08996,-0.502709 0.02857,0.161925 -0.09208,-0.50165 0.02963,0.1651 -0.09313,-0.504825 0.03069,0.175684 -0.09102,-0.508 0.02857,0.166158 -0.09207,-0.504825 0.03069,0.170392 -0.07302,-0.503767 0.02963,0.168275 -0.09208,-0.504825 0.02963,0.167217 -0.09208,-0.505884 c 0,0.0011 0.02963,0.168275 0.02963,0.168275 l -0.09208,-0.505883 0.03069,0.175683 -0.09313,-0.510116 0.03069,0.170391 -0.09208,-0.506941 0.02963,0.170391 -0.09313,-0.506941 0.03069,0.173566 -0.09313,-0.511175 0.03069,0.173567 -0.09208,-0.508 0.03069,0.172508 -0.09313,-0.509058 0.03069,0.173567 -0.09419,-0.512234 0.03175,0.176742 -0.09207,-0.510117 0.02963,0.17145 c 0,0 -0.09313,-0.509058 -0.09313,-0.509058 0,0.0011 0.03175,0.175683 0.03175,0.175683 l -0.09523,-0.515367 0.03281,0.180975 -0.09313,-0.5132917 0.03069,0.1767417 c 0,0 -0.09313,-0.5143497 -0.09419,-0.5154077 0.0011,0.0011 0.03175,0.1778 0.03175,0.1778 0,0 -0.09313,-0.5122337 -0.09313,-0.5143497 0,0.0021 0.03069,0.176741 0.03069,0.176741 l -0.09313,-0.5122327 0.03175,0.1788577 -0.09419,-0.5175247 0.03175,0.180975 -0.09525,-0.5185827 0.03281,0.180975 C 48.185575,6.7468901 46.888058,5.5626157 45.309025,5.5626157 Z"
       style="font-size:12px;overflow:visible;opacity:0.2;stroke-width:1.05833328" />
    <path
       inkscape:connector-curvature="0"
       id="path682"
       d="m 15.110506,5.165641 c -1.577975,0 -2.875492,1.1842741 -3.019425,2.7548402 l 0.03175,-0.1788577 -0.09313,0.5164657 0.03281,-0.182033 -0.09419,0.5164667 0.03175,-0.178859 -0.09419,0.51435 0.03175,-0.178858 -0.09313,0.5175247 0.03175,-0.178858 -0.09419,0.5154077 0.03175,-0.1767417 -0.09313,0.5122337 0.03175,-0.178859 -0.09419,0.5132917 0.03175,-0.174625 -0.09313,0.510117 0.03069,-0.173567 -0.09207,0.511175 0.03175,-0.176742 -0.09313,0.511175 0.03069,-0.173566 -0.09313,0.509058 0.03069,-0.17145 -0.09207,0.508 0.03175,-0.174625 -0.09313,0.509058 0.03069,-0.172508 -0.09207,0.509058 0.02963,-0.17145 -0.09208,0.506942 0.03069,-0.170392 -0.09207,0.506942 0.02963,-0.169333 -0.09207,0.504825 0.03069,-0.170392 c 0,0 -0.09208,0.506942 -0.09208,0.506942 0,0 0.03069,-0.169334 0.03069,-0.169334 l -0.09207,0.504825 0.02963,-0.167216 -0.09208,0.504825 0.02963,-0.169334 c 0,0 -0.09102,0.502709 -0.09102,0.503767 0,-0.0011 0.02963,-0.166158 0.02963,-0.166158 l -0.09102,0.504825 0.02963,-0.167217 -0.09102,0.500592 0.02963,-0.1651 c 0,0 -0.09102,0.502708 -0.09102,0.503766 0,-0.0011 0.02963,-0.166158 0.02963,-0.166158 l -0.09102,0.503767 0.02963,-0.166159 -0.09102,0.50165 0.02858,-0.1651 -0.08996,0.499534 0.02858,-0.161925 -0.08996,0.499533 0.02858,-0.1651 -0.08996,0.499533 0.02858,-0.161925 -0.08996,0.498475 0.02857,-0.161925 -0.09102,0.499534 0.02858,-0.161925 -0.08996,0.497416 0.02858,-0.159808 -0.08996,0.497417 0.02858,-0.160867 -0.08996,0.497417 0.02858,-0.160867 -0.08996,0.497417 0.02858,-0.159809 -0.08996,0.4953 0.02752,-0.15875 -0.09525,0.4953 0.02752,-0.157691 -0.0889,0.494241 0.02752,-0.156633 -0.0889,0.494242 0.02752,-0.157692 -0.0889,0.4953 0.02752,-0.157692 -0.0889,0.493184 0.02752,-0.157692 -0.0889,0.492125 0.02752,-0.154517 -0.0889,0.492125 0.02752,-0.155575 -0.09102,0.490009 0.02752,-0.154517 -0.08996,0.493183 0.02752,-0.154516 -0.0889,0.48895 0.02752,-0.155575 -0.08996,0.494241 0.02752,-0.154516 -0.0889,0.490008 0.02646,-0.153458 -0.08784,0.490008 0.02646,-0.153458 c 0,0 -0.08784,0.485775 -0.08784,0.486833 0,-0.0011 0.02646,-0.151342 0.02646,-0.151342 l -0.0889,0.490009 0.02646,-0.153459 -0.08784,0.488953 0.02646,-0.15346 -0.0889,0.48895 0.02646,-0.15028 -0.08784,0.48577 0.02646,-0.15134 -0.08784,0.48895 0.02646,-0.15134 -0.08784,0.48683 0.02646,-0.14922 -0.08784,0.48365 0.0254,-0.14816 -0.08784,0.48577 0.0254,-0.14922 -0.08784,0.48366 0.0254,-0.14817 -0.08784,0.4826 0.0254,-0.14605 c -0.06985,0.28257 -0.105834,0.56515 -0.105834,0.84137 v 6.24523 c 0,1.91558 1.5578663,3.47239 3.472392,3.47239 h 36.667017 c 1.915583,0 3.472392,-1.55787 3.472392,-3.47239 v -6.24523 c 0,-0.27834 -0.03598,-0.56197 -0.10795,-0.84455 l 0.02646,0.15135 -0.08678,-0.48366 0.0254,0.14816 -0.0889,-0.48577 0.02646,0.14817 -0.0889,-0.48684 0.02646,0.15134 -0.08784,-0.4826 0.0254,0.14817 -0.0889,-0.48789 0.02646,0.15452 -0.08678,-0.48684 c 0.0254,0.15029 -0.06244,-0.33655 -0.06244,-0.33655 v -0.001 l 0.0254,0.14817 -0.0889,-0.48578 0.02646,0.15452 -0.08784,-0.48895 0.02646,0.151342 -0.0889,-0.490008 0.02646,0.1524 -0.0889,-0.487892 0.02646,0.154517 -0.08784,-0.487892 0.0254,0.1524 -0.08784,-0.490008 0.0254,0.150283 -0.08784,-0.486833 0.02646,0.153458 -0.0889,-0.48895 0.02646,0.153458 -0.08996,-0.493183 0.02752,0.155575 -0.0889,-0.491067 0.02646,0.156634 -0.0889,-0.494242 0.02752,0.156633 -0.08996,-0.494241 0.02752,0.155575 -0.0889,-0.491067 0.02646,0.15875 -0.09102,-0.500592 0.02858,0.164042 -0.0889,-0.4953 0.02646,0.153458 -0.08784,-0.48895 0.02646,0.153459 -0.08996,-0.492125 0.02752,0.15875 -0.08996,-0.4953 0.02752,0.15875 -0.08996,-0.496359 0.02857,0.160867 -0.07726,-0.50165 0.02963,0.164042 -0.08996,-0.497417 0.02752,0.156633 c 0,0 -0.08996,-0.493183 -0.08996,-0.494241 0,0.0011 0.02752,0.159808 0.02752,0.159808 l -0.08996,-0.497417 0.02752,0.159809 -0.09102,-0.498475 0.02858,0.164041 -0.09102,-0.502708 0.02963,0.168275 -0.0889,-0.500592 0.02857,0.164042 c 0,0 -0.09102,-0.500592 -0.09102,-0.500592 0,0 0.02857,0.166159 0.02857,0.166159 l -0.09102,-0.504825 0.02857,0.168275 -0.08996,-0.502709 0.02858,0.161925 -0.09208,-0.50165 0.02963,0.1651 -0.09313,-0.504825 0.03069,0.175684 -0.09102,-0.508 0.02858,0.166158 -0.09208,-0.504825 0.03069,0.170392 -0.09208,-0.504825 0.02963,0.168275 -0.09208,-0.504825 0.02963,0.167216 -0.09208,-0.505883 c 0,0.0011 0.02963,0.168275 0.02963,0.168275 l -0.09208,-0.505883 0.03069,0.175683 -0.09313,-0.510117 0.03069,0.170392 -0.09207,-0.506942 0.02963,0.170392 -0.09313,-0.506942 0.03069,0.173567 -0.09313,-0.511175 0.03069,0.173567 -0.09208,-0.508 0.03069,0.172508 -0.09313,-0.509058 0.03069,0.173566 -0.09419,-0.512233 0.03175,0.176742 -0.09208,-0.510117 0.02963,0.17145 c 0,0 -0.09313,-0.509058 -0.09313,-0.509058 0,0.0011 0.03175,0.175683 0.03175,0.175683 l -0.09525,-0.5154077 0.03281,0.180975 -0.09313,-0.5132917 0.03069,0.1767417 c 0,0 -0.09313,-0.5143497 -0.09419,-0.5154087 0.0011,0.0011 0.03175,0.1778 0.03175,0.1778 0,0 -0.09313,-0.5122327 -0.09313,-0.5143497 0,0.0021 0.03069,0.176742 0.03069,0.176742 l -0.09313,-0.512233 0.03175,0.178858 -0.09419,-0.5175247 0.03175,0.180975 -0.09525,-0.5185827 0.03281,0.1809747 C 47.975003,6.3521321 46.677486,5.167858 45.098453,5.167858 H 15.110577 Z"
       style="font-size:12px;overflow:visible;opacity:0.2;stroke-width:1.05833328" />
    <path
       inkscape:connector-curvature="0"
       id="path689"
       d="m 14.713631,4.768766 c -1.577975,0 -2.875492,1.1842744 -3.019425,2.7548405 l 0.03175,-0.1788577 -0.09313,0.5175247 0.03281,-0.183092 -0.09419,0.5164667 0.03175,-0.178859 -0.09313,0.5143497 0.03175,-0.1788577 -0.09419,0.5175247 0.03175,-0.178858 -0.09419,0.5154077 0.03175,-0.176742 -0.09313,0.5122337 0.03175,-0.1788587 -0.09419,0.5132917 0.03175,-0.174625 -0.09313,0.5101167 0.03069,-0.173567 -0.09207,0.511175 0.03175,-0.176742 -0.09313,0.512234 0.03069,-0.173567 -0.09313,0.509058 0.03069,-0.17145 -0.09207,0.508 0.03175,-0.174625 -0.09313,0.509059 0.03069,-0.172509 -0.09207,0.509059 0.02963,-0.17145 -0.09207,0.506941 0.03069,-0.170391 -0.09208,0.510116 0.02963,-0.169333 -0.09207,0.504825 0.03069,-0.170392 c 0,0 -0.09208,0.506942 -0.09208,0.506942 0,0 0.03069,-0.169333 0.03069,-0.169333 l -0.09208,0.504825 0.02963,-0.167217 -0.09207,0.504825 0.02963,-0.169333 c 0,0 -0.09102,0.502708 -0.09102,0.503766 0,-0.0011 0.02963,-0.166158 0.02963,-0.166158 l -0.09102,0.504825 0.02963,-0.167217 -0.09102,0.500592 0.02963,-0.1651 c 0,0 -0.09102,0.502708 -0.09102,0.503767 0,-0.0011 0.02963,-0.166159 0.02963,-0.166159 l -0.09102,0.503767 0.02963,-0.166158 -0.09102,0.50165 0.02858,-0.1651 -0.08996,0.499533 0.02858,-0.161925 -0.08996,0.499533 0.02858,-0.1651 -0.08996,0.499534 0.02858,-0.161925 -0.08996,0.498475 0.02858,-0.161925 -0.09102,0.499533 0.02857,-0.161925 -0.08996,0.497417 0.02858,-0.159809 -0.08996,0.497417 0.02858,-0.160867 -0.08996,0.497417 0.02858,-0.160867 -0.08996,0.497417 0.02858,-0.159808 -0.08996,0.4953 0.02752,-0.15875 -0.08996,0.494241 0.02752,-0.157691 -0.08996,0.494241 0.02752,-0.156633 -0.0889,0.494242 0.02752,-0.157692 -0.0889,0.4953 0.02752,-0.157692 -0.09419,0.490009 0.02752,-0.157692 -0.0889,0.492125 0.02752,-0.154517 -0.0889,0.492125 0.02752,-0.155575 -0.0889,0.491067 0.02752,-0.154517 -0.08996,0.492125 0.02752,-0.154516 -0.0889,0.490008 0.02752,-0.155575 -0.08996,0.494242 0.02752,-0.154517 -0.0889,0.490008 0.02646,-0.153458 -0.08784,0.490008 0.02646,-0.153458 c 0,0 -0.08784,0.485775 -0.08784,0.486833 0,-0.0011 0.02646,-0.151341 0.02646,-0.151341 l -0.0889,0.490008 0.02646,-0.153458 -0.08784,0.48895 0.02646,-0.153459 -0.0889,0.488948 0.02646,-0.15028 -0.08784,0.48577 0.02646,-0.15134 -0.08784,0.48789 0.02646,-0.15134 -0.08784,0.48578 0.02646,-0.14923 -0.08784,0.48366 0.0254,-0.14817 -0.08784,0.48578 0.0254,-0.14923 -0.08784,0.48578 0.0254,-0.14817 -0.08784,0.4826 0.0254,-0.14605 c -0.06985,0.28258 -0.105833,0.56515 -0.105833,0.84138 v 6.24522 c 0,1.91559 1.557867,3.47239 3.472393,3.47239 h 36.667016 c 1.915584,0 3.472392,-1.55786 3.472392,-3.47239 v -6.24522 c 0,-0.27834 -0.03598,-0.56198 -0.10795,-0.84455 l 0.02646,0.15134 -0.08678,-0.48366 0.0254,0.14817 -0.0889,-0.48578 0.02646,0.14817 -0.0889,-0.48683 0.02646,0.15134 -0.08784,-0.4826 0.0254,0.14816 -0.0889,-0.48789 0.02646,0.15452 -0.08678,-0.48683 c 0.0254,0.15028 -0.06244,-0.33655 -0.06244,-0.33655 v -10e-4 l 0.0254,0.14816 -0.0889,-0.485772 0.02646,0.154517 -0.08784,-0.48895 0.02646,0.151341 -0.0889,-0.490008 0.02646,0.1524 -0.0889,-0.487892 0.02646,0.154517 -0.08784,-0.487892 0.0254,0.1524 -0.08784,-0.490008 0.0254,0.150283 -0.08784,-0.486833 0.02646,0.153458 -0.0889,-0.48895 0.02646,0.153459 -0.08996,-0.492125 0.02752,0.155575 -0.0889,-0.491067 0.02646,0.156633 -0.0889,-0.494241 0.02752,0.156633 -0.08996,-0.494242 0.02752,0.155575 -0.0889,-0.491066 0.02646,0.15875 -0.09102,-0.500592 0.02858,0.164042 -0.0889,-0.4953 0.02646,0.153458 -0.08784,-0.48895 0.02646,0.153458 -0.08996,-0.492125 0.02752,0.15875 -0.08996,-0.4953 0.02752,0.15875 -0.08996,-0.496358 0.02858,0.160867 -0.09208,-0.500592 0.02963,0.164042 -0.08996,-0.497417 0.02752,0.156633 c 0,0 -0.08996,-0.493183 -0.08996,-0.494241 0,0.0011 0.02752,0.159808 0.02752,0.159808 l -0.08996,-0.497417 0.02752,0.159809 -0.09102,-0.498475 0.02857,0.164041 -0.09102,-0.502708 0.02963,0.168275 -0.09102,-0.502708 0.02858,0.164041 c 0,0 -0.09102,-0.500591 -0.09102,-0.500591 0,0 0.02857,0.166158 0.02857,0.166158 l -0.09102,-0.504825 0.02857,0.168275 -0.07302,-0.502708 0.02857,0.161925 -0.09208,-0.50165 0.02963,0.1651 -0.09313,-0.504825 0.03069,0.175683 -0.09102,-0.508 0.02857,0.166158 -0.09208,-0.504825 0.03069,0.170392 -0.09208,-0.504825 0.02963,0.168275 -0.09208,-0.504825 0.02963,0.167217 -0.09207,-0.505884 c 0,0.0011 0.02963,0.168275 0.02963,0.168275 l -0.09206,-0.505842 0.03069,0.175683 -0.09313,-0.510116 0.03069,0.170391 -0.09208,-0.506941 0.02963,0.170391 -0.09313,-0.506941 0.03069,0.173566 -0.09313,-0.511175 0.03069,0.173567 -0.09208,-0.508 0.03069,0.172508 -0.09313,-0.509058 0.03069,0.173567 -0.09419,-0.512234 0.03175,0.176742 -0.09208,-0.510117 0.02963,0.17145 c 0,0 -0.09313,-0.5090577 -0.09313,-0.5090577 0,0.0011 0.03175,0.175683 0.03175,0.175683 l -0.09524,-0.5154077 0.03281,0.1809747 -0.09313,-0.5132917 0.03069,0.176742 c 0,0 -0.09313,-0.5143497 -0.09419,-0.5154077 0.0011,0.0011 0.03175,0.1778 0.03175,0.1778 0,0 -0.09313,-0.5122337 -0.09313,-0.5143497 0,0.0021 0.03069,0.1767407 0.03069,0.1767407 l -0.09313,-0.5122327 0.03175,0.178858 -0.08361,-0.5217577 0.03175,0.180975 -0.09525,-0.5185827 0.03281,0.1809747 C 47.589769,5.9520824 46.292253,4.767808 44.713219,4.767808 H 14.713631 Z"
       style="font-size:12px;overflow:visible;fill:url(#XMLID_15_);stroke-width:1.05833328" />
    <path
       inkscape:connector-curvature="0"
       id="path699"
       d="m 50.391106,27.802331 c -0.0127,-0.11536 -0.03493,-0.22754 -0.06244,-0.33549 -0.01164,-0.11536 -0.03387,-0.22754 -0.06244,-0.33655 -0.01164,-0.1143 -0.03387,-0.22649 -0.06244,-0.33655 -0.01164,-0.1143 -0.03387,-0.22543 -0.06138,-0.33444 -0.01164,-0.1143 -0.03387,-0.22648 -0.06244,-0.33549 -0.01164,-0.11536 -0.03387,-0.22754 -0.06244,-0.33655 -0.01164,-0.1143 -0.03387,-0.22648 -0.06138,-0.33655 -0.0127,-0.1143 -0.03493,-0.22648 -0.06244,-0.335489 -0.0127,-0.1143 -0.03387,-0.226484 -0.06244,-0.335492 -0.01164,-0.115358 -0.03387,-0.227542 -0.06244,-0.33655 -0.01164,-0.115358 -0.03387,-0.226483 -0.06244,-0.335492 -0.01164,-0.115358 -0.03387,-0.227541 -0.06244,-0.33655 -0.01164,-0.1143 -0.03281,-0.226483 -0.06138,-0.335491 -0.0127,-0.115359 -0.03387,-0.227542 -0.06244,-0.33655 -0.01164,-0.1143 -0.03387,-0.226484 -0.06244,-0.335492 -0.01164,-0.115358 -0.03387,-0.227542 -0.06244,-0.33655 -0.01164,-0.115358 -0.03387,-0.226483 -0.06244,-0.335492 -0.01058,-0.115358 -0.03281,-0.226483 -0.06138,-0.33655 -0.01164,-0.1143 -0.03387,-0.226483 -0.06244,-0.335491 -0.01164,-0.115359 -0.03387,-0.226484 -0.06244,-0.33655 -0.01058,-0.115359 -0.03281,-0.226484 -0.06244,-0.33655 -0.01058,-0.115359 -0.03281,-0.226484 -0.06138,-0.33655 -0.01164,-0.115359 -0.03387,-0.227542 -0.06244,-0.33655 -0.01164,-0.1143 -0.03387,-0.226484 -0.06244,-0.335492 -0.01164,-0.115358 -0.03387,-0.227542 -0.06244,-0.33655 -0.01164,-0.115358 -0.03281,-0.226483 -0.06138,-0.335492 -0.01164,-0.115358 -0.03387,-0.227541 -0.06244,-0.33655 -0.01164,-0.1143 -0.03387,-0.226483 -0.06244,-0.33655 -0.01164,-0.1143 -0.03281,-0.226483 -0.06244,-0.33655 -0.01164,-0.115358 -0.03281,-0.226483 -0.06244,-0.33655 -0.01164,-0.115358 -0.03281,-0.226483 -0.06244,-0.335491 -0.01058,-0.115359 -0.03175,-0.226484 -0.06138,-0.335492 -0.01164,-0.115358 -0.03281,-0.226483 -0.06244,-0.33655 -0.01164,-0.115358 -0.03281,-0.226483 -0.06244,-0.33655 -0.01164,-0.115358 -0.03281,-0.226483 -0.06244,-0.33655 -0.01058,-0.115358 -0.03281,-0.227542 -0.06138,-0.33655 -0.01164,-0.115358 -0.03281,-0.227542 -0.06244,-0.337608 -0.01164,-0.1143 -0.03281,-0.226484 -0.06244,-0.335492 -0.01058,-0.115358 -0.03281,-0.227542 -0.06244,-0.33655 -0.01172,-0.115358 -0.03289,-0.227542 -0.06252,-0.33655 -0.01058,-0.115358 -0.03281,-0.227542 -0.06138,-0.33655 -0.01164,-0.115358 -0.03281,-0.227542 -0.06244,-0.33655 -0.01164,-0.115358 -0.03281,-0.227542 -0.06244,-0.33655 -0.01164,-0.115358 -0.03281,-0.226483 -0.06244,-0.335492 -0.01058,-0.115358 -0.03281,-0.226483 -0.06244,-0.33655 -0.01058,-0.115358 -0.03175,-0.226483 -0.06138,-0.33655 -0.01164,-0.115358 -0.03281,-0.226483 -0.06244,-0.335491 -0.01058,-0.115359 -0.03281,-0.227542 -0.06244,-0.33655 -0.01058,-0.115359 -0.03281,-0.227542 -0.06244,-0.33655 -0.01058,-0.115359 -0.03175,-0.227542 -0.06138,-0.337609 -0.01164,-0.115358 -0.03281,-0.226483 -0.06244,-0.335491 -0.01164,-0.115359 -0.03281,-0.227542 -0.06244,-0.33655 -0.01058,-0.115359 -0.03281,-0.227542 -0.06244,-0.3365497 -0.01058,-0.115359 -0.03175,-0.227542 -0.06244,-0.33655 -0.01058,-0.115359 -0.03175,-0.2275417 -0.06138,-0.3365497 -0.01058,-0.115359 -0.03281,-0.227542 -0.06244,-0.33655 -0.01058,-0.1153587 -0.03281,-0.2275417 -0.06244,-0.3376087 -0.01058,-0.1143 -0.03281,-0.2264827 -0.06244,-0.3354907 -0.01058,-0.115359 -0.03175,-0.227542 -0.06244,-0.33655 -0.01058,-0.1153587 -0.03175,-0.2275417 -0.06244,-0.3365497 -0.09102,-1.0075334 -0.937684,-1.7959911 -1.9685,-1.7959911 H 14.713631 c -1.030817,0 -1.876425,0.7884577 -1.9685,1.7959911 -0.02963,0.109008 -0.0508,0.220133 -0.06138,0.3365497 -0.02963,0.109008 -0.0508,0.221191 -0.06244,0.33655 -0.02963,0.109008 -0.0508,0.2201327 -0.06138,0.3354907 -0.02963,0.1016 -0.05186,0.213784 -0.06244,0.3291417 -0.02963,0.109008 -0.0508,0.220133 -0.06244,0.33655 -0.02858,0.109008 -0.0508,0.2201327 -0.06138,0.3365497 -0.02963,0.109008 -0.0508,0.220133 -0.06244,0.33655 -0.02857,0.1090077 -0.0508,0.2201327 -0.06138,0.3365497 -0.02858,0.109008 -0.0508,0.220133 -0.06244,0.33655 -0.02858,0.109008 -0.0508,0.220133 -0.06244,0.335492 -0.02857,0.110066 -0.0508,0.221191 -0.06138,0.337608 -0.02858,0.109008 -0.0508,0.220133 -0.06244,0.33655 -0.02858,0.109008 -0.0508,0.220133 -0.06138,0.33655 -0.02858,0.109008 -0.0508,0.220133 -0.06244,0.335492 -0.02858,0.110066 -0.0508,0.221191 -0.06138,0.33655 -0.02857,0.110066 -0.0508,0.221191 -0.06244,0.33655 -0.02858,0.109008 -0.0508,0.220133 -0.06138,0.335491 -0.02858,0.110067 -0.0508,0.221192 -0.06244,0.33655 -0.02857,0.109009 -0.0508,0.221192 -0.06244,0.33655 -0.02858,0.109009 -0.0508,0.221192 -0.06138,0.33655 -0.0254,0.109009 -0.04762,0.221192 -0.05821,0.33655 -0.02858,0.109009 -0.0508,0.221192 -0.06138,0.33655 -0.02858,0.109009 -0.0508,0.220134 -0.06244,0.335492 -0.02857,0.110067 -0.0508,0.221192 -0.06244,0.337608 -0.02858,0.109009 -0.0508,0.220134 -0.06138,0.33655 -0.02858,0.110067 -0.0508,0.220134 -0.06244,0.33655 -0.02752,0.109009 -0.04974,0.220134 -0.06033,0.335492 -0.02858,0.110067 -0.0508,0.221192 -0.06244,0.33655 -0.02858,0.109008 -0.0508,0.220133 -0.06244,0.335492 -0.02752,0.109008 -0.04974,0.220133 -0.06138,0.335491 -0.02858,0.110067 -0.0508,0.221192 -0.06244,0.33655 -0.02857,0.110067 -0.04974,0.221192 -0.06138,0.33655 -0.02858,0.110067 -0.0508,0.221192 -0.06244,0.33655 -0.02752,0.110067 -0.0508,0.221192 -0.06138,0.33655 -0.02858,0.109009 -0.0508,0.220134 -0.06244,0.335492 -0.02752,0.110067 -0.04974,0.221192 -0.06138,0.33655 -0.02857,0.109008 -0.0508,0.220133 -0.06244,0.335492 -0.02752,0.109008 -0.0508,0.221191 -0.06244,0.33655 -0.0254,0.111125 -0.04762,0.223308 -0.05927,0.338666 -0.02857,0.110067 -0.0508,0.221192 -0.06244,0.33655 -0.02752,0.110067 -0.04974,0.221192 -0.06138,0.33655 -0.02752,0.110067 -0.0508,0.221192 -0.06244,0.335492 -0.02752,0.110067 -0.0508,0.221192 -0.06244,0.33655 -0.02752,0.109008 -0.04974,0.220133 -0.06138,0.335492 -0.02752,0.110066 -0.0508,0.221191 -0.06244,0.33655 -0.02752,0.110066 -0.04974,0.221191 -0.06138,0.335491 -0.02752,0.110067 -0.0508,0.221192 -0.06244,0.33655 -0.02752,0.110067 -0.04974,0.221192 -0.06138,0.335492 -0.02752,0.110067 -0.04974,0.221192 -0.06244,0.33655 -0.02752,0.110067 -0.04974,0.220133 -0.06244,0.335492 -0.02752,0.110066 -0.04974,0.221191 -0.06244,0.33655 -0.02752,0.110066 -0.04974,0.221191 -0.06138,0.335491 -0.02751,0.110068 -0.04974,0.221188 -0.06244,0.335488 -0.02752,0.11007 -0.04974,0.22225 -0.06138,0.33655 -0.02752,0.11007 -0.04974,0.2212 -0.06138,0.33655 -0.02752,0.11007 -0.04974,0.2212 -0.06244,0.3355 -0.02752,0.11006 -0.04974,0.22013 -0.06138,0.33443 -0.02752,0.11007 -0.04974,0.22225 -0.06244,0.33655 -0.02752,0.11007 -0.04974,0.22119 -0.06138,0.33655 -0.02752,0.10901 -0.04974,0.22013 -0.06244,0.33549 -0.04657,0.18838 -0.07408,0.38312 -0.07408,0.58632 v 6.24522 c 0,1.33562 1.082676,2.41724 2.417234,2.41724 h 36.667016 c 1.335617,0 2.417234,-1.08162 2.417234,-2.41724 v -6.24522 c 0.0042,-0.19579 -0.02328,-0.39159 -0.06985,-0.57891 z"
       style="font-size:12px;overflow:visible;fill:url(#XMLID_16_);stroke-width:1.05833328" />
    <path
       inkscape:connector-curvature="0"
       id="path710"
       d="M 16.994339,5.8239244 10.051671,27.458371 c 13.20906,-1.58432 26.064635,-1.59173 39.080018,-0.87418 L 42.449372,5.8239244 Z"
       style="font-size:12px;overflow:visible;fill:url(#linearGradient821);stroke-width:1.05833328" />
    <path
       inkscape:connector-curvature="0"
       id="path720"
       d="m 9.3468215,26.332301 c -0.02752,0.11007 -0.04974,0.2212 -0.06244,0.3355 -0.02752,0.11006 -0.04974,0.22013 -0.06138,0.33443 -0.02752,0.11007 -0.04974,0.22225 -0.06244,0.33761 -0.02752,0.11006 -0.04974,0.22013 -0.06138,0.33549 -0.02752,0.10901 -0.04974,0.22013 -0.06244,0.33549 -0.04657,0.18838 -0.07408,0.38418 -0.07408,0.58738 v 2.56222 c 0.448734,0.42333 1.0530415,0.68368 1.7197925,0.68368 h 38.064017 c 0.665691,0 1.268941,-0.26035 1.718733,-0.68368 v -2.56222 c 0,-0.20215 -0.02752,-0.399 -0.07408,-0.58738 -0.0127,-0.11536 -0.03493,-0.22754 -0.06244,-0.33549 -0.01164,-0.11536 -0.03387,-0.22754 -0.06244,-0.33549 -0.01164,-0.11536 -0.03387,-0.22754 -0.06244,-0.33761 -0.01164,-0.1143 -0.03387,-0.22543 -0.06138,-0.33443 -0.01164,-0.1143 -0.03387,-0.22649 -0.06244,-0.3355 -0.01164,-0.11535 -0.03387,-0.22754 -0.06244,-0.33655 -0.01164,-0.1143 -0.03387,-0.22648 -0.06138,-0.33549 -0.0127,-0.11536 -0.03493,-0.22754 -0.06244,-0.33655 -0.0127,-0.1143 -0.03387,-0.226481 -0.06244,-0.335489 -0.01164,-0.115359 -0.03387,-0.227542 -0.06244,-0.33655 -0.01164,-0.1143 -0.03387,-0.226484 -0.06244,-0.335492 -0.01164,-0.1143 -0.03387,-0.227542 -0.06244,-0.335492 -0.01164,-0.115358 -0.03281,-0.227541 -0.06138,-0.33655 -0.0127,-0.115358 -0.03387,-0.227541 -0.06244,-0.33655 -0.01164,-0.1143 -0.03387,-0.226483 -0.06244,-0.335491 -0.01164,-0.1143 -0.03387,-0.227542 -0.06244,-0.33655 -0.01164,-0.115359 -0.03387,-0.226484 -0.06244,-0.335492 -0.01058,-0.115358 -0.03281,-0.226483 -0.06138,-0.33655 -0.01164,-0.115358 -0.03387,-0.226483 -0.06244,-0.33655 -0.01164,-0.115358 -0.03387,-0.226483 -0.06244,-0.335492 -0.01058,-0.115358 -0.03281,-0.227541 -0.06244,-0.33655 -0.01058,-0.115358 -0.03281,-0.226483 -0.06138,-0.335491 -0.0095,-0.08784 -0.02434,-0.172509 -0.04339,-0.256117 -0.07938,-0.0074 -0.159808,-0.01376 -0.242358,-0.01376 H 10.682454 c -0.08149,0 -0.161926,0.0063 -0.242359,0.01376 -0.01905,0.08361 -0.03493,0.168275 -0.04445,0.256117 -0.02752,0.109008 -0.04974,0.221191 -0.06138,0.335491 -0.02858,0.110067 -0.0508,0.221192 -0.06244,0.33655 -0.02752,0.109009 -0.04974,0.220134 -0.06138,0.335492 -0.02752,0.110067 -0.0508,0.221192 -0.06244,0.33655 -0.02752,0.110067 -0.0508,0.221192 -0.06244,0.33655 -0.02752,0.109008 -0.04974,0.220133 -0.06138,0.335492 -0.02752,0.110066 -0.0508,0.22225 -0.06244,0.33655 -0.02752,0.110066 -0.04974,0.221191 -0.06138,0.335491 -0.02752,0.110067 -0.0508,0.221192 -0.06244,0.33655 -0.02752,0.110067 -0.04974,0.221192 -0.06138,0.33655 -0.02752,0.109009 -0.04974,0.221192 -0.06244,0.335492 -0.02752,0.110067 -0.04974,0.221192 -0.06244,0.335492 -0.02752,0.110066 -0.04974,0.221191 -0.06244,0.33655 -0.02752,0.110066 -0.04974,0.221189 -0.06138,0.335489 -0.02752,0.11007 -0.04974,0.22119 -0.06244,0.33655 -0.02752,0.11007 -0.04974,0.22119 -0.06138,0.33549 -0.02328,0.10901 -0.04551,0.2212 -0.05715,0.33655 z"
       style="font-size:12px;overflow:visible;fill:url(#XMLID_18_);stroke-width:1.05833328" />
    <path
       inkscape:connector-curvature="0"
       id="path727"
       d="m 50.329722,27.465781 c -0.01164,-0.11536 -0.03387,-0.22754 -0.06244,-0.33655 -0.01164,-0.1143 -0.03387,-0.22648 -0.06244,-0.33655 -0.01164,-0.1143 -0.03387,-0.22543 -0.06138,-0.33443 -0.01164,-0.1143 -0.03387,-0.22649 -0.06244,-0.3355 -0.01164,-0.11535 -0.03387,-0.22754 -0.06244,-0.33655 -0.01164,-0.1143 -0.03387,-0.22648 -0.06138,-0.33655 -0.0127,-0.1143 -0.03493,-0.22648 -0.06244,-0.335488 -0.0127,-0.1143 -0.03387,-0.226483 -0.06244,-0.335491 -0.01164,-0.115359 -0.03387,-0.227542 -0.06244,-0.33655 -0.01164,-0.115359 -0.03387,-0.226484 -0.06244,-0.335492 -0.01164,-0.115358 -0.03387,-0.227542 -0.06244,-0.33655 -0.01164,-0.1143 -0.03281,-0.226483 -0.06138,-0.335492 -0.0127,-0.115358 -0.03387,-0.227541 -0.06244,-0.33655 -0.01164,-0.1143 -0.03387,-0.226483 -0.06244,-0.335491 -0.01164,-0.115359 -0.03387,-0.227542 -0.06244,-0.33655 -0.01164,-0.115359 -0.03387,-0.226484 -0.06244,-0.335492 -0.01058,-0.115358 -0.03281,-0.226483 -0.06138,-0.33655 -0.01164,-0.1143 -0.03387,-0.226483 -0.06244,-0.335492 -0.01164,-0.115358 -0.03387,-0.226483 -0.06244,-0.33655 -0.0085,-0.09313 -0.02646,-0.18415 -0.04762,-0.27305 -0.320718,-0.156633 -0.679493,-0.246591 -1.059435,-0.246591 H 11.380939 c -0.379942,0 -0.739775,0.08996 -1.059393,0.246591 -0.02117,0.0889 -0.03916,0.179917 -0.04762,0.27305 -0.02752,0.110067 -0.04974,0.221192 -0.06138,0.33655 -0.02752,0.110067 -0.0508,0.221192 -0.06244,0.335492 -0.02752,0.110067 -0.0508,0.221192 -0.06244,0.33655 -0.02752,0.109008 -0.04974,0.220133 -0.06138,0.335492 -0.02752,0.110066 -0.0508,0.221191 -0.06244,0.33655 -0.02752,0.110066 -0.04974,0.221191 -0.06138,0.335491 -0.02752,0.110067 -0.0508,0.221192 -0.06244,0.33655 -0.02752,0.110067 -0.04974,0.221192 -0.06138,0.335492 -0.02752,0.110067 -0.04974,0.221192 -0.06244,0.33655 -0.02752,0.110067 -0.04974,0.220133 -0.06244,0.335492 -0.02752,0.110066 -0.04974,0.221191 -0.06244,0.33655 -0.02752,0.110066 -0.04974,0.221191 -0.06138,0.335491 -0.02752,0.110068 -0.04974,0.221188 -0.06244,0.335488 -0.02752,0.11007 -0.04974,0.22225 -0.06138,0.33655 -0.02752,0.11007 -0.04974,0.2212 -0.06138,0.33655 -0.02752,0.11007 -0.04974,0.2212 -0.06244,0.3355 -0.02752,0.11006 -0.04974,0.22013 -0.06138,0.33443 -0.02752,0.11007 -0.04974,0.22225 -0.06244,0.33655 -0.02752,0.11007 -0.04974,0.22119 -0.06138,0.33655 -0.02752,0.10901 -0.04974,0.22013 -0.06244,0.33549 -0.04657,0.18733 -0.07408,0.38206 -0.07408,0.58526 v 0.83079 c 0,1.33562 1.082675,2.41723 2.417235,2.41723 h 36.667017 c 1.335616,0 2.417233,-1.08161 2.417233,-2.41723 v -0.82973 c 0,-0.20214 -0.02752,-0.39794 -0.07408,-0.58632 -0.0095,-0.11536 -0.03175,-0.22648 -0.05821,-0.33549 z"
       style="font-size:12px;overflow:visible;fill:url(#XMLID_19_);stroke-width:1.05833328" />
    <path
       inkscape:connector-curvature="0"
       id="path734"
       d="m 8.9637055,34.633871 c 0,1.33562 1.0826745,2.41723 2.4172335,2.41723 h 36.667017 c 1.335616,0 2.417233,-1.08161 2.417233,-2.41723 v -6.24522 c 0,-1.33562 -1.081617,-2.41724 -2.417233,-2.41724 H 11.380939 c -1.334559,0 -2.4172335,1.08162 -2.4172335,2.41724 z"
       style="font-size:12px;overflow:visible;fill:url(#XMLID_20_);stroke-width:1.05833328" />
    <path
       inkscape:connector-curvature="0"
       id="path741"
       d="m 11.380939,27.236121 c -0.635,0 -1.151468,0.51647 -1.151468,1.15147 v 6.24522 c 0,0.635 0.516468,1.15147 1.151468,1.15147 h 36.667017 c 0.635,0 1.151466,-0.51647 1.151466,-1.15147 v -6.24522 c 0,-0.635 -0.516466,-1.15147 -1.151466,-1.15147 z"
       style="font-size:12px;overflow:visible;fill:url(#XMLID_21_);stroke-width:1.05833328" />
    <path
       inkscape:connector-curvature="0"
       id="path748"
       d="m 45.702689,33.020971 c -0.805392,0 -1.434042,0.51858 -1.434042,1.1811 0,0.66252 0.629709,1.1811 1.434042,1.1811 h 0.851958 c 0.804334,0 1.434042,-0.51858 1.434042,-1.1811 0,-0.66252 -0.630767,-1.1811 -1.434042,-1.1811 z"
       style="font-size:12px;overflow:visible;fill:url(#XMLID_22_);stroke-width:1.05833328" />
    <path
       inkscape:connector-curvature="0"
       id="path757"
       d="m 45.702689,33.337411 c -0.617008,0 -1.118658,0.38841 -1.118658,0.86466 0,0.47625 0.50165,0.8636 1.118658,0.8636 h 0.851958 c 0.617009,0 1.1176,-0.38735 1.1176,-0.8636 0,-0.47625 -0.500591,-0.86466 -1.1176,-0.86466 z"
       style="font-size:12px;overflow:visible;fill:url(#XMLID_23_);stroke-width:1.05833328" />
    <path
       inkscape:connector-curvature="0"
       id="path768"
       d="m 47.566414,34.203131 c 0,0.4191 -0.452967,0.75882 -1.011767,0.75882 h -0.851958 c -0.5588,0 -1.012825,-0.33866 -1.012825,-0.75882 v 0 c 0,-0.4191 0.454025,-0.75883 1.012825,-0.75883 h 0.851958 c 0.5588,0 1.011767,0.33867 1.011767,0.75883 z"
       style="font-size:12px;overflow:visible;fill:url(#XMLID_24_);stroke-width:1.05833328" />
    <path
       inkscape:connector-curvature="0"
       id="path777"
       d="m 45.702689,33.654911 c -0.434975,0 -0.802217,0.26247 -0.802217,0.57362 0,0.31221 0.367242,0.57467 0.802217,0.57467 h 0.851958 c 0.433917,0 0.801159,-0.26246 0.801159,-0.57467 0,-0.31115 -0.367242,-0.57362 -0.801159,-0.57362 z"
       style="font-size:12px;overflow:visible;fill:url(#XMLID_25_);stroke-width:1.05833328" />
    <path
       inkscape:connector-curvature="0"
       id="path791"
       d="m 45.668822,33.530031 c -0.357716,0 -0.636058,0.22013 -0.636058,0.40957 0,0.18945 0.278342,0.40852 0.636058,0.40852 h 0.919692 c 0.364067,0 0.635,-0.2159 0.635,-0.40852 0,-0.19367 -0.270933,-0.40957 -0.635,-0.40957 z"
       style="font-size:12px;overflow:visible;fill:url(#XMLID_26_);stroke-width:1.05833328" />
    <rect
       id="rect798"
       height="3.5168417"
       width="13.503275"
       style="font-size:12px;overflow:visible;fill:url(#XMLID_27_);stroke-width:1.05833328"
       y="31.705456"
       x="12.975843" />
    <polygon
       transform="matrix(1.0583333,0,0,1.0583333,4.3144465,-3.9624838)"
       id="polygon805"
       points="20.544,34.102 20.544,37.025 20.943,37.025 20.943,33.702 8.184,33.702 8.184,34.102 "
       style="font-size:12px;overflow:visible;fill:url(#XMLID_28_)" />
    <rect
       id="rect806"
       height="3.5168417"
       width="0.84349167"
       style="font-size:12px;overflow:visible;fill:#949494;stroke-width:1.05833328"
       y="31.705456"
       x="23.243797" />
    <rect
       id="rect807"
       height="3.5168417"
       width="0.84454995"
       style="font-size:12px;overflow:visible;fill:#949494;stroke-width:1.05833328"
       y="31.705456"
       x="18.835838" />
    <rect
       id="rect808"
       height="3.5168417"
       width="0.84349167"
       style="font-size:12px;overflow:visible;fill:#949494;stroke-width:1.05833328"
       y="31.705456"
       x="21.040344" />
    <rect
       id="rect809"
       height="3.5168417"
       width="0.84349167"
       style="font-size:12px;overflow:visible;fill:#949494;stroke-width:1.05833328"
       y="31.705456"
       x="16.632385" />
    <rect
       id="rect810"
       height="3.5168417"
       width="0.84454995"
       style="font-size:12px;overflow:visible;fill:#f0f0f0;stroke-width:1.05833328"
       y="31.705456"
       x="23.033188" />
    <rect
       id="rect811"
       height="3.5168417"
       width="0.84349167"
       style="font-size:12px;overflow:visible;fill:#f0f0f0;stroke-width:1.05833328"
       y="31.705456"
       x="18.625229" />
    <rect
       id="rect812"
       height="3.5168417"
       width="0.84349167"
       style="font-size:12px;overflow:visible;fill:#f0f0f0;stroke-width:1.05833328"
       y="31.705456"
       x="20.828682" />
    <rect
       id="rect813"
       height="3.5168417"
       width="0.84454995"
       style="font-size:12px;overflow:visible;fill:#f0f0f0;stroke-width:1.05833328"
       y="31.705456"
       x="16.420721" />
  </g>
</svg>
