<?xml version="1.0" encoding="UTF-8" standalone="no"?>
<!-- Created with Inkscape (http://www.inkscape.org/) -->

<svg
   xmlns:dc="http://purl.org/dc/elements/1.1/"
   xmlns:cc="http://creativecommons.org/ns#"
   xmlns:rdf="http://www.w3.org/1999/02/22-rdf-syntax-ns#"
   xmlns:svg="http://www.w3.org/2000/svg"
   xmlns="http://www.w3.org/2000/svg"
   xmlns:xlink="http://www.w3.org/1999/xlink"
   xmlns:inkscape="http://www.inkscape.org/namespaces/inkscape"
   version="1.0"
   width="96"
   height="96"
   id="svg2408">
  <defs
     id="defs2410">
    <linearGradient
       id="linearGradient3892">
      <stop
         id="stop3894"
         style="stop-color:#000000;stop-opacity:0.47058824"
         offset="0" />
      <stop
         id="stop3896"
         style="stop-color:#000000;stop-opacity:0.39215687"
         offset="0.11780351" />
      <stop
         id="stop3898"
         style="stop-color:#000000;stop-opacity:0.29411766"
         offset="0.23809524" />
      <stop
         id="stop3900"
         style="stop-color:#000000;stop-opacity:0.15686275"
         offset="1" />
    </linearGradient>
    <linearGradient
       id="linearGradient3864">
      <stop
         id="stop3866"
         style="stop-color:#ffffff;stop-opacity:0.07843138"
         offset="0" />
      <stop
         id="stop3872"
         style="stop-color:#ffffff;stop-opacity:0.3137255"
         offset="0.25" />
      <stop
         id="stop3874"
         style="stop-color:#ffffff;stop-opacity:0"
         offset="0.60000002" />
      <stop
         id="stop3868"
         style="stop-color:#ffffff;stop-opacity:0"
         offset="1" />
    </linearGradient>
    <linearGradient
       id="linearGradient4384">
      <stop
         id="stop4386"
         style="stop-color:#ffffff;stop-opacity:1"
         offset="0" />
      <stop
         id="stop4388"
         style="stop-color:#ffffff;stop-opacity:0"
         offset="1" />
    </linearGradient>
    <linearGradient
       id="linearGradient4367">
      <stop
         id="stop4369"
         style="stop-color:#ffffff;stop-opacity:0.71755725"
         offset="0" />
      <stop
         id="stop4371"
         style="stop-color:#ffffff;stop-opacity:1"
         offset="1" />
    </linearGradient>
    <linearGradient
       x1="45.447727"
       y1="92.539597"
       x2="45.447727"
       y2="7.0165396"
       id="ButtonShadow"
       gradientUnits="userSpaceOnUse"
       gradientTransform="scale(1.0058652,0.994169)">
      <stop
         id="stop3750"
         style="stop-color:#000000;stop-opacity:1"
         offset="0" />
      <stop
         id="stop3752"
         style="stop-color:#000000;stop-opacity:0.58823532"
         offset="1" />
    </linearGradient>
    <linearGradient
       id="linearGradient3737">
      <stop
         id="stop3739"
         style="stop-color:#ffffff;stop-opacity:1"
         offset="0" />
      <stop
         id="stop3741"
         style="stop-color:#ffffff;stop-opacity:0"
         offset="1" />
    </linearGradient>
    <filter
       color-interpolation-filters="sRGB"
       id="filter3174">
      <feGaussianBlur
         id="feGaussianBlur3176"
         stdDeviation="1.71" />
    </filter>
    <filter
       x="-0.192"
       y="-0.192"
       width="1.3839999"
       height="1.3839999"
       color-interpolation-filters="sRGB"
       id="filter3794">
      <feGaussianBlur
         id="feGaussianBlur3796"
         stdDeviation="5.28" />
    </filter>
    <linearGradient
       x1="48"
       y1="20.220806"
       x2="48"
       y2="138.66119"
       id="linearGradient3613"
       xlink:href="#linearGradient3737"
       gradientUnits="userSpaceOnUse" />
    <linearGradient
       x1="45.447727"
       y1="92.539597"
       x2="45.447727"
       y2="7.0165396"
       id="ButtonShadow-0"
       gradientUnits="userSpaceOnUse"
       gradientTransform="matrix(1.0058652,0,0,0.994169,100,0)">
      <stop
         id="stop3750-8"
         style="stop-color:#000000;stop-opacity:1"
         offset="0" />
      <stop
         id="stop3752-5"
         style="stop-color:#000000;stop-opacity:0.58823532"
         offset="1" />
    </linearGradient>
    <linearGradient
       x1="32.251034"
       y1="6.1317081"
       x2="32.251034"
       y2="90.238609"
       id="linearGradient3780"
       xlink:href="#ButtonShadow-0"
       gradientUnits="userSpaceOnUse"
       gradientTransform="matrix(1.0238095,0,0,1.0119048,-1.1428571,-98.071429)" />
    <linearGradient
       x1="32.251034"
       y1="6.1317081"
       x2="32.251034"
       y2="90.238609"
       id="linearGradient3772"
       xlink:href="#ButtonShadow-0"
       gradientUnits="userSpaceOnUse"
       gradientTransform="matrix(1.0238095,0,0,1.0119048,-1.1428571,-98.071429)" />
    <linearGradient
       x1="32.251034"
       y1="6.1317081"
       x2="32.251034"
       y2="90.238609"
       id="linearGradient3725"
       xlink:href="#ButtonShadow-0"
       gradientUnits="userSpaceOnUse"
       gradientTransform="matrix(1.0238095,0,0,1.0119048,-1.1428571,-98.071429)" />
    <linearGradient
       x1="32.251034"
       y1="6.1317081"
       x2="32.251034"
       y2="90.238609"
       id="linearGradient3721"
       xlink:href="#ButtonShadow-0"
       gradientUnits="userSpaceOnUse"
       gradientTransform="translate(0,-97)" />
    <linearGradient
       x1="32.251034"
       y1="6.1317081"
       x2="32.251034"
       y2="90.238609"
       id="linearGradient3026"
       xlink:href="#ButtonShadow-0"
       gradientUnits="userSpaceOnUse"
       gradientTransform="matrix(1.0238095,0,0,1.0119048,-1.1428571,-98.071429)" />
    <clipPath
       id="clipPath4355">
      <rect
         width="84"
         height="80"
         rx="6"
         ry="6"
         x="6"
         y="6"
         id="rect4357"
         style="fill:#ffffff;fill-opacity:1;fill-rule:nonzero;stroke:none" />
    </clipPath>
    <radialGradient
       cx="48"
       cy="87.792389"
       r="42"
       fx="48"
       fy="87.792389"
       id="radialGradient4375"
       xlink:href="#linearGradient4367"
       gradientUnits="userSpaceOnUse"
       gradientTransform="matrix(1,-6.7114942e-8,8.4282233e-8,1.2557894,109.99999,-24.505592)" />
    <linearGradient
       x1="48"
       y1="88"
       x2="48"
       y2="-40"
       id="linearGradient4390"
       xlink:href="#linearGradient4384"
       gradientUnits="userSpaceOnUse"
       gradientTransform="matrix(1,0,0,-1,0,92)" />
    <linearGradient
       x1="48"
       y1="82"
       x2="112.12357"
       y2="82.454597"
       id="linearGradient4429"
       xlink:href="#linearGradient4384"
       gradientUnits="userSpaceOnUse"
       spreadMethod="reflect" />
    <linearGradient
       id="linearGradient4482">
      <stop
         id="stop4484"
         style="stop-color:#ffffff;stop-opacity:0.12977099"
         offset="0" />
      <stop
         id="stop4486"
         style="stop-color:#424242;stop-opacity:0.28244275"
         offset="0.11780351" />
      <stop
         id="stop4488"
         style="stop-color:#2f2f2f;stop-opacity:0.30534351"
         offset="0.23809524" />
      <stop
         id="stop4490"
         style="stop-color:#000000;stop-opacity:0.35114503"
         offset="1" />
    </linearGradient>
    <linearGradient
       x1="90"
       y1="88"
       x2="48"
       y2="88"
       id="linearGradient3855"
       xlink:href="#linearGradient4482"
       gradientUnits="userSpaceOnUse"
       gradientTransform="translate(0,40)"
       spreadMethod="reflect" />
    <linearGradient
       x1="6"
       y1="115"
       x2="24"
       y2="115"
       id="linearGradient3884"
       xlink:href="#linearGradient3864"
       gradientUnits="userSpaceOnUse"
       gradientTransform="matrix(-1,0,0,1,96,-30)" />
    <linearGradient
       x1="6"
       y1="115"
       x2="24"
       y2="115"
       id="linearGradient3886"
       xlink:href="#linearGradient3864"
       gradientUnits="userSpaceOnUse"
       gradientTransform="translate(0,-30)" />
    <linearGradient
       x1="90"
       y1="88"
       x2="48"
       y2="88"
       id="linearGradient3890"
       xlink:href="#linearGradient3892"
       gradientUnits="userSpaceOnUse"
       gradientTransform="translate(-120,0)"
       spreadMethod="reflect" />
    <linearGradient
       id="linearGradient3778">
      <stop
         id="stop3780"
         style="stop-color:#323232;stop-opacity:1"
         offset="0" />
      <stop
         id="stop3782"
         style="stop-color:#505050;stop-opacity:1"
         offset="1" />
    </linearGradient>
    <linearGradient
       id="linearGradient3720">
      <stop
         id="stop3722"
         style="stop-color:#928075;stop-opacity:1"
         offset="0" />
      <stop
         id="stop3724"
         style="stop-color:#5b4f48;stop-opacity:1"
         offset="1" />
    </linearGradient>
    <linearGradient
       id="linearGradient3762">
      <stop
         id="stop3764"
         style="stop-color:#c06517;stop-opacity:1"
         offset="0" />
      <stop
         id="stop3766"
         style="stop-color:#e88b3b;stop-opacity:1"
         offset="1" />
    </linearGradient>
    <linearGradient
       id="linearGradient3770">
      <stop
         id="stop3772"
         style="stop-color:#802b27;stop-opacity:1"
         offset="0" />
      <stop
         id="stop3774"
         style="stop-color:#a93833;stop-opacity:1"
         offset="1" />
    </linearGradient>
    <linearGradient
       x1="64"
       y1="15.5"
       x2="64"
       y2="35.770973"
       id="linearGradient3812"
       xlink:href="#linearGradient3465-8"
       gradientUnits="userSpaceOnUse"
       gradientTransform="matrix(1.025,0,0,1.0625,-9.6,-3.9999969)" />
    <linearGradient
       id="linearGradient3465-8">
      <stop
         id="stop3467-5"
         style="stop-color:#ccc7c1;stop-opacity:1"
         offset="0" />
      <stop
         id="stop3469-9"
         style="stop-color:#fefefd;stop-opacity:0.58015269"
         offset="1" />
    </linearGradient>
    <linearGradient
       x1="34"
       y1="14"
       x2="34"
       y2="39"
       id="linearGradient3894"
       xlink:href="#linearGradient3888"
       gradientUnits="userSpaceOnUse" />
    <linearGradient
       id="linearGradient3888">
      <stop
         id="stop3890"
         style="stop-color:#717249;stop-opacity:1"
         offset="0" />
      <stop
         id="stop3892"
         style="stop-color:#717249;stop-opacity:0"
         offset="1" />
    </linearGradient>
    <linearGradient
       x1="37"
       y1="16"
       x2="37"
       y2="49"
       id="linearGradient3902"
       xlink:href="#linearGradient3888"
       gradientUnits="userSpaceOnUse" />
    <linearGradient
       id="linearGradient4081">
      <stop
         id="stop4083"
         style="stop-color:#bcb5ac;stop-opacity:1"
         offset="0" />
      <stop
         id="stop4085"
         style="stop-color:#e9e7e4;stop-opacity:1"
         offset="1" />
    </linearGradient>
    <linearGradient
       x1="48"
       y1="90"
       x2="48"
       y2="5.9877172"
       id="linearGradient4102"
       xlink:href="#linearGradient4081"
       gradientUnits="userSpaceOnUse" />
    <linearGradient
       x1="94.746246"
       y1="102"
       x2="94.746246"
       y2="112.04894"
       id="linearGradient3419"
       xlink:href="#linearGradient3762"
       gradientUnits="userSpaceOnUse"
       gradientTransform="matrix(0.7499999,0,0,0.7500001,2.0000056,-2.5000253)" />
    <linearGradient
       x1="74.666664"
       y1="112"
       x2="74.666664"
       y2="102"
       id="linearGradient3423"
       xlink:href="#linearGradient3720"
       gradientUnits="userSpaceOnUse"
       gradientTransform="matrix(0.7499999,0,0,0.7500001,1.0000094,-2.5000253)" />
    <linearGradient
       x1="53.333332"
       y1="102"
       x2="53.333332"
       y2="112"
       id="linearGradient3428"
       xlink:href="#linearGradient3720"
       gradientUnits="userSpaceOnUse"
       gradientTransform="matrix(0.7499999,0,0,0.7500001,-0.9999944,-158)" />
    <linearGradient
       x1="30.246527"
       y1="102"
       x2="30.246527"
       y2="112.00001"
       id="linearGradient3432"
       xlink:href="#linearGradient3778"
       gradientUnits="userSpaceOnUse"
       gradientTransform="matrix(0.7499999,0,0,0.7500001,-1.999996,-2.5000253)" />
    <linearGradient
       x1="93.746803"
       y1="54"
       x2="93.746803"
       y2="64.000008"
       id="linearGradient3436"
       xlink:href="#linearGradient3770"
       gradientUnits="userSpaceOnUse"
       gradientTransform="matrix(0.7499999,0,0,0.7500001,2.0000056,-2.5000138)" />
    <linearGradient
       x1="30.246527"
       y1="102"
       x2="30.246527"
       y2="112.00001"
       id="linearGradient3440"
       xlink:href="#linearGradient3778"
       gradientUnits="userSpaceOnUse"
       gradientTransform="matrix(0.7499999,0,0,0.7500001,33.000006,-38.500023)" />
    <linearGradient
       x1="30.246527"
       y1="102"
       x2="30.246527"
       y2="112.00001"
       id="linearGradient3444"
       xlink:href="#linearGradient3778"
       gradientUnits="userSpaceOnUse"
       gradientTransform="matrix(0.7499999,0,0,0.7500001,15.000004,-38.500023)" />
    <linearGradient
       x1="30.246527"
       y1="102"
       x2="30.246527"
       y2="112.00001"
       id="linearGradient3448"
       xlink:href="#linearGradient3778"
       gradientUnits="userSpaceOnUse"
       gradientTransform="matrix(0.7499999,0,0,0.7500001,-1.999996,-38.500023)" />
    <linearGradient
       x1="96"
       y1="80"
       x2="96"
       y2="70"
       id="linearGradient3452"
       xlink:href="#linearGradient3720"
       gradientUnits="userSpaceOnUse"
       gradientTransform="matrix(0.7499999,0,0,0.7500001,2.0000056,-2.5000138)" />
    <linearGradient
       x1="30.246527"
       y1="102"
       x2="30.246527"
       y2="112.00001"
       id="linearGradient3456"
       xlink:href="#linearGradient3778"
       gradientUnits="userSpaceOnUse"
       gradientTransform="matrix(0.7499999,0,0,0.7500001,33.000006,-26.50002)" />
    <linearGradient
       x1="30.246527"
       y1="102"
       x2="30.246527"
       y2="112.00001"
       id="linearGradient3460"
       xlink:href="#linearGradient3778"
       gradientUnits="userSpaceOnUse"
       gradientTransform="matrix(0.7499999,0,0,0.7500001,15.000004,-26.50002)" />
    <linearGradient
       x1="30.246527"
       y1="102"
       x2="30.246527"
       y2="112.00001"
       id="linearGradient3464"
       xlink:href="#linearGradient3778"
       gradientUnits="userSpaceOnUse"
       gradientTransform="matrix(0.7499999,0,0,0.7500001,-1.999996,-26.50002)" />
    <linearGradient
       x1="95.745689"
       y1="96"
       x2="95.745689"
       y2="85.996765"
       id="linearGradient3468"
       xlink:href="#linearGradient3720"
       gradientUnits="userSpaceOnUse"
       gradientTransform="matrix(0.7499999,0,0,0.7500001,2.0000056,-2.5000214)" />
    <linearGradient
       x1="30.246527"
       y1="102"
       x2="30.246527"
       y2="112.00001"
       id="linearGradient3472"
       xlink:href="#linearGradient3778"
       gradientUnits="userSpaceOnUse"
       gradientTransform="matrix(0.7499999,0,0,0.7500001,33.000006,-14.500024)" />
    <linearGradient
       x1="30.246527"
       y1="102"
       x2="30.246527"
       y2="112.00001"
       id="linearGradient3476"
       xlink:href="#linearGradient3778"
       gradientUnits="userSpaceOnUse"
       gradientTransform="matrix(0.7499999,0,0,0.7500001,15.000004,-14.500024)" />
    <linearGradient
       x1="30.246527"
       y1="102"
       x2="30.246527"
       y2="112.00001"
       id="linearGradient3480"
       xlink:href="#linearGradient3778"
       gradientUnits="userSpaceOnUse"
       gradientTransform="matrix(0.7499999,0,0,0.7500001,-1.999996,-14.500024)" />
    <linearGradient
       id="linearGradient3892-4">
      <stop
         id="stop3894-8"
         style="stop-color:#000000;stop-opacity:0.58823532"
         offset="0" />
      <stop
         id="stop3896-1"
         style="stop-color:#000000;stop-opacity:0.47058824"
         offset="0.11780351" />
      <stop
         id="stop3898-2"
         style="stop-color:#000000;stop-opacity:0.39215687"
         offset="0.23809524" />
      <stop
         id="stop3900-9"
         style="stop-color:#000000;stop-opacity:0.3137255"
         offset="1" />
    </linearGradient>
    <linearGradient
       x1="90"
       y1="88"
       x2="48"
       y2="88"
       id="linearGradient3515"
       xlink:href="#linearGradient3892-4"
       gradientUnits="userSpaceOnUse"
       spreadMethod="reflect" />
  </defs>
  <metadata
     id="metadata2413">
    <rdf:RDF>
      <cc:Work
         rdf:about="">
        <dc:format>image/svg+xml</dc:format>
        <dc:type
           rdf:resource="http://purl.org/dc/dcmitype/StillImage" />
        <dc:title />
      </cc:Work>
    </rdf:RDF>
  </metadata>
  <g
     id="layer2"
     style="display:none">
    <rect
       width="86"
       height="85"
       rx="6"
       ry="6"
       x="5"
       y="7"
       id="rect3745"
       style="opacity:0.9;fill:url(#ButtonShadow);fill-opacity:1;fill-rule:nonzero;stroke:none;filter:url(#filter3174)" />
  </g>
  <g
     id="layer3"
     style="display:inline">
    <path
       d="m 12,-95.03125 c -5.5110903,0 -10.03125,4.52016 -10.03125,10.03125 l 0,71 c 0,5.5110902 4.5201598,10.03125 10.03125,10.03125 l 72,0 c 5.51109,0 10.03125,-4.5201597 10.03125,-10.03125 l 0,-71 c 0,-5.51109 -4.52016,-10.03125 -10.03125,-10.03125 l -72,0 z"
       transform="scale(1,-1)"
       id="path3786"
       style="opacity:0.07999998;fill:url(#linearGradient3026);fill-opacity:1;fill-rule:nonzero;stroke:none;display:inline" />
    <path
       d="m 12,-94.03125 c -4.971633,0 -9.03125,4.059617 -9.03125,9.03125 l 0,71 c 0,4.9716329 4.0596171,9.03125 9.03125,9.03125 l 72,0 c 4.971633,0 9.03125,-4.059617 9.03125,-9.03125 l 0,-71 c 0,-4.971633 -4.059617,-9.03125 -9.03125,-9.03125 l -72,0 z"
       transform="scale(1,-1)"
       id="path3778"
       style="opacity:0.1;fill:url(#linearGradient3780);fill-opacity:1;fill-rule:nonzero;stroke:none;display:inline" />
    <path
       d="m 12,-93 c -4.4091333,0 -8,3.590867 -8,8 l 0,71 c 0,4.4091333 3.5908667,8 8,8 l 72,0 c 4.409133,0 8,-3.5908667 8,-8 l 0,-71 c 0,-4.409133 -3.590867,-8 -8,-8 l -72,0 z"
       transform="scale(1,-1)"
       id="path3770"
       style="opacity:0.2;fill:url(#linearGradient3772);fill-opacity:1;fill-rule:nonzero;stroke:none;display:inline" />
    <rect
       width="86"
       height="85"
       rx="7"
       ry="7"
       x="5"
       y="-92"
       transform="scale(1,-1)"
       id="rect3723"
       style="opacity:0.3;fill:url(#linearGradient3725);fill-opacity:1;fill-rule:nonzero;stroke:none;display:inline" />
    <rect
       width="84"
       height="84"
       rx="6"
       ry="6"
       x="6"
       y="-91"
       transform="scale(1,-1)"
       id="rect3716"
       style="opacity:0.45;fill:url(#linearGradient3721);fill-opacity:1;fill-rule:nonzero;stroke:none;display:inline" />
  </g>
  <g
     id="layer1">
    <rect
       width="68.39286"
       height="26.107143"
       rx="2.5647321"
       ry="2.4475446"
       x="13.428574"
       y="10.714285"
       id="rect3907"
       style="fill:#bdc490;fill-opacity:1;fill-rule:nonzero;stroke:none;display:inline" />
    <g
       transform="matrix(0.7767857,0,0,0.7767857,18.2589,5.3571429)"
       id="g3824"
       style="display:inline">
      <path
         d="m 68.217479,22.237718 -1.89605,1.496038 -1.920998,-1.496038 0,-3.017432 1.920998,-1.496039 1.89605,1.496039 0,3.017432 m -2.220374,-4.741679 -1.89605,1.521393 -3.817048,0 -1.89605,-1.521393 L 60.284007,16 l 3.817048,0 1.89605,1.496039 m 2.220374,11.207606 -1.89605,1.496038 -1.920998,-1.496038 0,-3.017432 1.920998,-1.496039 1.89605,1.496039 0,3.017432 m -8.182953,-6.465927 -1.896049,1.496038 -1.920998,-1.496038 0,-3.017432 1.920998,-1.496039 1.896049,1.496039 0,3.017432 M 65.997105,30.503962 64.076107,32 l -3.7921,0 -1.920998,-1.496038 1.920998,-1.521394 3.7921,0 1.920998,1.521394 m -5.962579,-1.800317 -1.896049,1.496038 -1.920998,-1.496038 0,-3.017432 1.920998,-1.496039 1.896049,1.496039 0,3.017432"
         inkscape:connector-curvature="0"
         id="path3961"
         style="font-size:48px;font-style:normal;font-variant:normal;font-weight:900;font-stretch:normal;text-align:start;line-height:100%;writing-mode:lr-tb;text-anchor:start;opacity:0.5;fill:#000000;fill-opacity:1;stroke:none;display:inline;font-family:Endless Showroom;-inkscape-font-specification:Endless Showroom Heavy" />
      <path
         d="M 74.139297,30.473069 72.094762,32 l -1.889255,-1.526931 1.966895,-1.552812 1.966895,1.552812"
         inkscape:connector-curvature="0"
         id="text3944"
         style="font-size:48px;font-style:normal;font-variant:normal;font-weight:900;font-stretch:normal;text-align:start;line-height:100%;writing-mode:lr-tb;text-anchor:start;opacity:0.5;fill:#000000;fill-opacity:1;stroke:none;display:inline;font-family:Endless Showroom;-inkscape-font-specification:Endless Showroom Heavy" />
    </g>
    <path
       d="m 17,14 c -0.554,0 -1,0.446 -1,1 l 0,18 c 0,0.554 0.446,1 1,1 l 62,0 c 0.554,0 1,-0.446 1,-1 l 0,-18 c 0,-0.554 -0.446,-1 -1,-1 z m 1.03125,2.03125 59.9375,0 0,15.9375 -59.9375,0 z"
       inkscape:connector-curvature="0"
       id="rect3761"
       style="opacity:0.3;color:#000000;fill:url(#linearGradient3902);fill-opacity:1;fill-rule:nonzero;stroke:none;stroke-width:1.5;marker:none;visibility:visible;display:inline;overflow:visible;enable-background:accumulate" />
    <path
       d="m 17,14 c -0.554,0 -1,0.446 -1,1 l 0,18 c 0,0.554 0.446,1 1,1 l 62,0 c 0.554,0 1,-0.446 1,-1 l 0,-18 c 0,-0.554 -0.446,-1 -1,-1 z m 0.0313,1.03125 61.9375,0 0,17.9375 -61.9375,0 z"
       inkscape:connector-curvature="0"
       id="rect3757"
       style="opacity:0.6;color:#000000;fill:url(#linearGradient3894);fill-opacity:1;fill-rule:nonzero;stroke:none;stroke-width:1.5;marker:none;visibility:visible;display:inline;overflow:visible;enable-background:accumulate" />
    <path
       d="M 12,6 C 8.676,6 6,8.676 6,12 l 0,72 c 0,3.324 2.676,6 6,6 l 72,0 c 3.324,0 6,-2.676 6,-6 L 90,12 C 90,8.676 87.324,6 84,6 z m 6,7 60,0 c 1.108,0 2,0.892 2,2 l 0,18 c 0,1.108 -0.892,2 -2,2 l -60,0 c -1.108,0 -2,-0.892 -2,-2 l 0,-18 c 0,-1.108 0.892,-2 2,-2 z"
       inkscape:connector-curvature="0"
       id="rect2419-6"
       style="fill:url(#linearGradient4102);fill-opacity:1;fill-rule:nonzero;stroke:none;display:inline" />
    <rect
       width="66"
       height="22"
       rx="2"
       ry="2"
       x="15"
       y="13"
       id="rect3425"
       style="fill:none;stroke:url(#linearGradient3812);stroke-width:2;stroke-linecap:square;stroke-linejoin:round;stroke-miterlimit:4;stroke-opacity:1;stroke-dasharray:none;stroke-dashoffset:0;display:inline" />
    <path
       d="m 17.125,37.84375 c -0.970874,0 -1.78125,0.810376 -1.78125,1.78125 l 0,5.25 c 0,0.970874 0.810375,1.781252 1.78125,1.78125 l 9.75,0 c 0.970873,0 1.781248,-0.810377 1.78125,-1.78125 l 0,-5.25 c 0,-0.970874 -0.810377,-1.78125 -1.78125,-1.78125 l -9.75,0 z"
       inkscape:connector-curvature="0"
       id="path3545"
       style="opacity:0.2;fill:#000000;fill-opacity:1;stroke:none;display:inline" />
    <path
       d="m 34.125,37.84375 c -0.970874,0 -1.78125,0.810376 -1.78125,1.78125 l 0,5.25 c 0,0.970874 0.810375,1.781252 1.78125,1.78125 l 9.75,0 c 0.970873,0 1.781248,-0.810377 1.78125,-1.78125 l 0,-5.25 c 0,-0.970874 -0.810377,-1.78125 -1.78125,-1.78125 l -9.75,0 z"
       inkscape:connector-curvature="0"
       id="path3543"
       style="opacity:0.2;fill:#000000;fill-opacity:1;stroke:none;display:inline" />
    <path
       d="m 52.125,37.84375 c -0.970874,0 -1.78125,0.810376 -1.78125,1.78125 l 0,5.25 c 0,0.970874 0.810375,1.781252 1.78125,1.78125 l 9.75,0 c 0.970873,0 1.781248,-0.810377 1.78125,-1.78125 l 0,-5.25 c 0,-0.970874 -0.810377,-1.78125 -1.78125,-1.78125 l -9.75,0 z"
       inkscape:connector-curvature="0"
       id="path3541"
       style="opacity:0.2;fill:#000000;fill-opacity:1;stroke:none;display:inline" />
    <path
       d="m 69.125,37.84375 c -0.970874,0 -1.78125,0.810376 -1.78125,1.78125 l 0,5.25 c 0,0.970874 0.810375,1.781252 1.78125,1.78125 l 9.75,0 c 0.970873,0 1.781248,-0.810377 1.78125,-1.78125 l 0,-5.25 c 0,-0.970874 -0.810377,-1.78125 -1.78125,-1.78125 l -9.75,0 z"
       inkscape:connector-curvature="0"
       id="path3539"
       style="opacity:0.2;fill:#000000;fill-opacity:1;stroke:none;display:inline" />
    <path
       d="m 17.125,49.84375 c -0.970874,0 -1.78125,0.810376 -1.78125,1.78125 l 0,5.25 c 0,0.970874 0.810375,1.781252 1.78125,1.78125 l 9.75,0 c 0.970873,0 1.781248,-0.810377 1.78125,-1.78125 l 0,-5.25 c 0,-0.970874 -0.810377,-1.78125 -1.78125,-1.78125 l -9.75,0 z"
       inkscape:connector-curvature="0"
       id="path3537"
       style="opacity:0.2;fill:#000000;fill-opacity:1;stroke:none;display:inline" />
    <path
       d="m 34.125,49.84375 c -0.970874,0 -1.78125,0.810376 -1.78125,1.78125 l 0,5.25 c 0,0.970874 0.810375,1.781252 1.78125,1.78125 l 9.75,0 c 0.970873,0 1.781248,-0.810377 1.78125,-1.78125 l 0,-5.25 c 0,-0.970874 -0.810377,-1.78125 -1.78125,-1.78125 l -9.75,0 z"
       inkscape:connector-curvature="0"
       id="path3535"
       style="opacity:0.2;fill:#000000;fill-opacity:1;stroke:none;display:inline" />
    <path
       d="m 52.125,49.84375 c -0.970874,0 -1.78125,0.810376 -1.78125,1.78125 l 0,5.25 c 0,0.970874 0.810375,1.781252 1.78125,1.78125 l 9.75,0 c 0.970873,0 1.781248,-0.810377 1.78125,-1.78125 l 0,-5.25 c 0,-0.970874 -0.810377,-1.78125 -1.78125,-1.78125 l -9.75,0 z"
       inkscape:connector-curvature="0"
       id="path3533"
       style="opacity:0.2;fill:#000000;fill-opacity:1;stroke:none;display:inline" />
    <path
       d="m 69.125,49.84375 c -0.970874,0 -1.78125,0.810376 -1.78125,1.78125 l 0,5.25 c 0,0.970874 0.810375,1.781252 1.78125,1.78125 l 9.75,0 c 0.970873,0 1.781248,-0.810377 1.78125,-1.78125 l 0,-5.25 c 0,-0.970874 -0.810377,-1.78125 -1.78125,-1.78125 l -9.75,0 z"
       inkscape:connector-curvature="0"
       id="path3531"
       style="opacity:0.2;fill:#000000;fill-opacity:1;stroke:none;display:inline" />
    <path
       d="m 17.125,61.84375 c -0.970874,0 -1.78125,0.810376 -1.78125,1.78125 l 0,5.25 c 0,0.970874 0.810375,1.781252 1.78125,1.78125 l 9.75,0 c 0.970873,0 1.781248,-0.810377 1.78125,-1.78125 l 0,-5.25 c 0,-0.970874 -0.810377,-1.78125 -1.78125,-1.78125 l -9.75,0 z"
       inkscape:connector-curvature="0"
       id="path3529"
       style="opacity:0.2;fill:#000000;fill-opacity:1;stroke:none;display:inline" />
    <path
       d="m 34.125,61.84375 c -0.970874,0 -1.78125,0.810376 -1.78125,1.78125 l 0,5.25 c 0,0.970874 0.810375,1.781252 1.78125,1.78125 l 9.75,0 c 0.970873,0 1.781248,-0.810377 1.78125,-1.78125 l 0,-5.25 c 0,-0.970874 -0.810377,-1.78125 -1.78125,-1.78125 l -9.75,0 z"
       inkscape:connector-curvature="0"
       id="path3527"
       style="opacity:0.2;fill:#000000;fill-opacity:1;stroke:none;display:inline" />
    <path
       d="m 52.125,61.84375 c -0.970874,0 -1.78125,0.810376 -1.78125,1.78125 l 0,5.25 c 0,0.970874 0.810375,1.781252 1.78125,1.78125 l 9.75,0 c 0.970873,0 1.781248,-0.810377 1.78125,-1.78125 l 0,-5.25 c 0,-0.970874 -0.810377,-1.78125 -1.78125,-1.78125 l -9.75,0 z"
       inkscape:connector-curvature="0"
       id="path3525"
       style="opacity:0.2;fill:#000000;fill-opacity:1;stroke:none;display:inline" />
    <path
       d="m 69.125,61.84375 c -0.970874,0 -1.78125,0.810376 -1.78125,1.78125 l 0,5.25 c 0,0.970874 0.810375,1.781252 1.78125,1.78125 l 9.75,0 c 0.970873,0 1.781248,-0.810377 1.78125,-1.78125 l 0,-5.25 c 0,-0.970874 -0.810377,-1.78125 -1.78125,-1.78125 l -9.75,0 z"
       inkscape:connector-curvature="0"
       id="path3523"
       style="opacity:0.2;fill:#000000;fill-opacity:1;stroke:none;display:inline" />
    <path
       d="m 17.125,73.84375 c -0.970874,0 -1.78125,0.810376 -1.78125,1.78125 l 0,5.25 c 0,0.970874 0.810375,1.781252 1.78125,1.78125 l 9.75,0 c 0.970873,0 1.781248,-0.810377 1.78125,-1.78125 l 0,-5.25 c 0,-0.970874 -0.810377,-1.78125 -1.78125,-1.78125 l -9.75,0 z"
       inkscape:connector-curvature="0"
       id="path3521"
       style="opacity:0.2;fill:#000000;fill-opacity:1;stroke:none;display:inline" />
    <path
       d="m 34.125,73.84375 c -0.970875,-2e-6 -1.78125,0.810376 -1.78125,1.78125 l 0,5.25 c 0,0.970874 0.810376,1.78125 1.78125,1.78125 l 9.75,0 c 0.970873,0 1.78125,-0.810376 1.78125,-1.78125 l 0,-5.25 c -2e-6,-0.970873 -0.810377,-1.78125 -1.78125,-1.78125 l -9.75,0 z"
       inkscape:connector-curvature="0"
       id="path3519"
       style="opacity:0.2;fill:#000000;fill-opacity:1;stroke:none;display:inline" />
    <path
       d="m 52.125,73.84375 c -0.970874,0 -1.78125,0.810376 -1.78125,1.78125 l 0,5.25 c 0,0.970874 0.810375,1.781252 1.78125,1.78125 l 9.75,0 c 0.970873,0 1.781248,-0.810377 1.78125,-1.78125 l 0,-5.25 c 0,-0.970874 -0.810377,-1.78125 -1.78125,-1.78125 l -9.75,0 z"
       inkscape:connector-curvature="0"
       id="path3517"
       style="opacity:0.2;fill:#000000;fill-opacity:1;stroke:none;display:inline" />
    <path
       d="m 69.125,73.84375 c -0.970874,0 -1.78125,0.810376 -1.78125,1.78125 l 0,5.25 c 0,0.970874 0.810375,1.781252 1.78125,1.78125 l 9.75,0 c 0.970873,0 1.781248,-0.810377 1.78125,-1.78125 l 0,-5.25 c 0,-0.970874 -0.810377,-1.78125 -1.78125,-1.78125 l -9.75,0 z"
       inkscape:connector-curvature="0"
       id="path3773"
       style="opacity:0.2;fill:#000000;fill-opacity:1;stroke:none;display:inline" />
    <path
       d="M 17.125,38.5 C 16.50175,38.5 16,39.00175 16,39.625 l 0,5.25 c 0,0.62325 0.50175,1.125001 1.125,1.125 l 9.75,0 C 27.49825,46 28,45.498251 28,44.875 l 0,-5.25 C 28,39.00175 27.49825,38.5 26.875,38.5 l -9.75,0 z"
       inkscape:connector-curvature="0"
       id="path3512"
       style="opacity:0.6;fill:#000000;fill-opacity:1;stroke:none;display:inline" />
    <path
       d="M 34.125,38.5 C 33.50175,38.5 33,39.00175 33,39.625 l 0,5.25 c 0,0.62325 0.50175,1.125001 1.125,1.125 l 9.75,0 C 44.49825,46 45,45.498251 45,44.875 l 0,-5.25 C 45,39.00175 44.49825,38.5 43.875,38.5 l -9.75,0 z"
       inkscape:connector-curvature="0"
       id="path3510"
       style="opacity:0.6;fill:#000000;fill-opacity:1;stroke:none;display:inline" />
    <path
       d="M 52.125,38.5 C 51.50175,38.5 51,39.00175 51,39.625 l 0,5.25 c 0,0.62325 0.50175,1.125001 1.125,1.125 l 9.75,0 C 62.49825,46 63,45.498251 63,44.875 l 0,-5.25 C 63,39.00175 62.49825,38.5 61.875,38.5 l -9.75,0 z"
       inkscape:connector-curvature="0"
       id="path3508"
       style="opacity:0.6;fill:#000000;fill-opacity:1;stroke:none;display:inline" />
    <path
       d="M 69.125,38.5 C 68.50175,38.5 68,39.00175 68,39.625 l 0,5.25 c 0,0.62325 0.50175,1.125001 1.125,1.125 l 9.75,0 C 79.49825,46 80,45.498251 80,44.875 l 0,-5.25 C 80,39.00175 79.49825,38.5 78.875,38.5 l -9.75,0 z"
       inkscape:connector-curvature="0"
       id="path3506"
       style="opacity:0.6;fill:#000000;fill-opacity:1;stroke:none;display:inline" />
    <path
       d="M 17.125,50.5 C 16.50175,50.5 16,51.00175 16,51.625 l 0,5.25 c 0,0.62325 0.50175,1.125001 1.125,1.125 l 9.75,0 C 27.49825,58 28,57.498251 28,56.875 l 0,-5.25 C 28,51.00175 27.49825,50.5 26.875,50.5 l -9.75,0 z"
       inkscape:connector-curvature="0"
       id="path3504"
       style="opacity:0.6;fill:#000000;fill-opacity:1;stroke:none;display:inline" />
    <path
       d="M 34.125,50.5 C 33.50175,50.5 33,51.00175 33,51.625 l 0,5.25 c 0,0.62325 0.50175,1.125001 1.125,1.125 l 9.75,0 C 44.49825,58 45,57.498251 45,56.875 l 0,-5.25 C 45,51.00175 44.49825,50.5 43.875,50.5 l -9.75,0 z"
       inkscape:connector-curvature="0"
       id="path3502"
       style="opacity:0.6;fill:#000000;fill-opacity:1;stroke:none;display:inline" />
    <path
       d="M 52.125,50.5 C 51.50175,50.5 51,51.00175 51,51.625 l 0,5.25 c 0,0.62325 0.50175,1.125001 1.125,1.125 l 9.75,0 C 62.49825,58 63,57.498251 63,56.875 l 0,-5.25 C 63,51.00175 62.49825,50.5 61.875,50.5 l -9.75,0 z"
       inkscape:connector-curvature="0"
       id="path3500"
       style="opacity:0.6;fill:#000000;fill-opacity:1;stroke:none;display:inline" />
    <path
       d="M 69.125,50.5 C 68.50175,50.5 68,51.00175 68,51.625 l 0,5.25 c 0,0.62325 0.50175,1.125001 1.125,1.125 l 9.75,0 C 79.49825,58 80,57.498251 80,56.875 l 0,-5.25 C 80,51.00175 79.49825,50.5 78.875,50.5 l -9.75,0 z"
       inkscape:connector-curvature="0"
       id="path3498"
       style="opacity:0.6;fill:#000000;fill-opacity:1;stroke:none;display:inline" />
    <path
       d="M 17.125,62.5 C 16.50175,62.5 16,63.00175 16,63.625 l 0,5.25 c 0,0.62325 0.50175,1.125001 1.125,1.125 l 9.75,0 C 27.49825,70 28,69.498251 28,68.875 l 0,-5.25 C 28,63.00175 27.49825,62.5 26.875,62.5 l -9.75,0 z"
       inkscape:connector-curvature="0"
       id="path3496"
       style="opacity:0.6;fill:#000000;fill-opacity:1;stroke:none;display:inline" />
    <path
       d="M 34.125,62.5 C 33.50175,62.5 33,63.00175 33,63.625 l 0,5.25 c 0,0.62325 0.50175,1.125001 1.125,1.125 l 9.75,0 C 44.49825,70 45,69.498251 45,68.875 l 0,-5.25 C 45,63.00175 44.49825,62.5 43.875,62.5 l -9.75,0 z"
       inkscape:connector-curvature="0"
       id="path3494"
       style="opacity:0.6;fill:#000000;fill-opacity:1;stroke:none;display:inline" />
    <path
       d="M 52.125,62.5 C 51.50175,62.5 51,63.00175 51,63.625 l 0,5.25 c 0,0.62325 0.50175,1.125001 1.125,1.125 l 9.75,0 C 62.49825,70 63,69.498251 63,68.875 l 0,-5.25 C 63,63.00175 62.49825,62.5 61.875,62.5 l -9.75,0 z"
       inkscape:connector-curvature="0"
       id="path3492"
       style="opacity:0.6;fill:#000000;fill-opacity:1;stroke:none;display:inline" />
    <path
       d="M 69.125,62.5 C 68.50175,62.5 68,63.00175 68,63.625 l 0,5.25 c 0,0.62325 0.50175,1.125001 1.125,1.125 l 9.75,0 C 79.49825,70 80,69.498251 80,68.875 l 0,-5.25 C 80,63.00175 79.49825,62.5 78.875,62.5 l -9.75,0 z"
       inkscape:connector-curvature="0"
       id="path3490"
       style="opacity:0.6;fill:#000000;fill-opacity:1;stroke:none;display:inline" />
    <path
       d="M 17.125,74.5 C 16.50175,74.5 16,75.00175 16,75.625 l 0,5.25 c 0,0.62325 0.50175,1.125001 1.125,1.125 l 9.75,0 C 27.49825,82 28,81.498251 28,80.875 l 0,-5.25 C 28,75.00175 27.49825,74.5 26.875,74.5 l -9.75,0 z"
       inkscape:connector-curvature="0"
       id="path3488"
       style="opacity:0.6;fill:#000000;fill-opacity:1;stroke:none;display:inline" />
    <path
       d="M 34.125,74.5 C 33.50175,74.499999 33,75.00175 33,75.625 l 0,5.25 C 33,81.49825 33.50175,82 34.125,82 l 9.75,0 C 44.49825,82 45,81.49825 45,80.875 l 0,-5.25 C 45,75.001749 44.49825,74.5 43.875,74.5 l -9.75,0 z"
       inkscape:connector-curvature="0"
       id="path3486"
       style="opacity:0.6;fill:#000000;fill-opacity:1;stroke:none;display:inline" />
    <path
       d="M 52.125,74.5 C 51.50175,74.5 51,75.00175 51,75.625 l 0,5.25 c 0,0.62325 0.50175,1.125001 1.125,1.125 l 9.75,0 C 62.49825,82 63,81.498251 63,80.875 l 0,-5.25 C 63,75.00175 62.49825,74.5 61.875,74.5 l -9.75,0 z"
       inkscape:connector-curvature="0"
       id="path3484"
       style="opacity:0.6;fill:#000000;fill-opacity:1;stroke:none;display:inline" />
    <path
       d="M 69.125,74.5 C 68.50175,74.5 68,75.00175 68,75.625 l 0,5.25 c 0,0.62325 0.50175,1.125001 1.125,1.125 l 9.75,0 C 79.49825,82 80,81.498251 80,80.875 l 0,-5.25 C 80,75.00175 79.49825,74.5 78.875,74.5 l -9.75,0 z"
       inkscape:connector-curvature="0"
       id="rect3636"
       style="opacity:0.6;fill:#000000;fill-opacity:1;stroke:none;display:inline" />
    <rect
       width="11.999999"
       height="7.5000014"
       rx="1.125"
       ry="1.1250004"
       x="16"
       y="62"
       id="rect3786"
       style="fill:url(#linearGradient3480);fill-opacity:1;stroke:none;display:inline" />
    <path
       d="m 20.429507,68.071955 0,-0.688843 1.150267,0 0,-3.167359 -1.114012,0.695434 0,-0.728393 1.163452,-0.754761 0.876709,0 0,3.955079 1.064574,0 0,0.688843 -3.14099,0"
       inkscape:connector-curvature="0"
       id="text3826"
       style="font-size:9px;font-style:normal;font-variant:normal;font-weight:bold;font-stretch:normal;text-align:start;line-height:100%;writing-mode:lr-tb;text-anchor:start;fill:#ffffff;fill-opacity:1;stroke:none;display:inline;font-family:Liberation Sans;-inkscape-font-specification:Liberation Sans Bold" />
    <rect
       width="11.999999"
       height="7.5000014"
       rx="1.125"
       ry="1.1250004"
       x="33"
       y="62"
       id="rect3798"
       style="fill:url(#linearGradient3476);fill-opacity:1;stroke:none;display:inline" />
    <path
       d="m 37.375124,68.106562 0,-0.6427 c 0.105469,-0.230713 0.234008,-0.438353 0.38562,-0.622925 0.151611,-0.186766 0.309814,-0.357053 0.47461,-0.510863 0.166991,-0.156006 0.331786,-0.299926 0.494384,-0.431765 0.164794,-0.134031 0.312011,-0.26257 0.441651,-0.38562 0.131834,-0.125242 0.238401,-0.250486 0.319701,-0.375732 0.08129,-0.125241 0.121943,-0.258176 0.12195,-0.398804 -7e-6,-0.20654 -0.05164,-0.359249 -0.154912,-0.45813 -0.103268,-0.09887 -0.254881,-0.148311 -0.45483,-0.148316 -0.197756,5e-6 -0.349367,0.05384 -0.454834,0.1615 -0.103273,0.105472 -0.170289,0.264774 -0.201049,0.477905 l -0.93274,-0.05273 c 0.02197,-0.18237 0.06702,-0.353755 0.135132,-0.51416 0.06811,-0.160396 0.164794,-0.301021 0.290039,-0.421875 0.12744,-0.120845 0.285644,-0.215326 0.474609,-0.283447 0.191161,-0.07031 0.418578,-0.105464 0.682251,-0.105468 0.250484,4e-6 0.472409,0.02967 0.665774,0.08899 0.19335,0.05713 0.35595,0.141727 0.487793,0.253784 0.131827,0.112065 0.231802,0.249393 0.299925,0.411987 0.06811,0.160405 0.102165,0.343876 0.102172,0.550415 -7e-6,0.217533 -0.04285,0.414188 -0.128542,0.589966 -0.0857,0.175784 -0.195555,0.338381 -0.329588,0.487793 -0.13404,0.147219 -0.283447,0.285647 -0.448245,0.415283 -0.1626,0.129641 -0.320797,0.255985 -0.474606,0.37903 -0.153811,0.123048 -0.294436,0.247193 -0.421875,0.372435 -0.125245,0.125246 -0.218629,0.25928 -0.280151,0.4021 l 2.155517,0 0,0.761353 -3.249756,0"
       inkscape:connector-curvature="0"
       id="text3830"
       style="font-size:9px;font-style:normal;font-variant:normal;font-weight:bold;font-stretch:normal;text-align:start;line-height:100%;writing-mode:lr-tb;text-anchor:start;fill:#ffffff;fill-opacity:1;stroke:none;display:inline;font-family:Liberation Sans;-inkscape-font-specification:Liberation Sans Bold" />
    <rect
       width="11.999999"
       height="7.5000014"
       rx="1.125"
       ry="1.1250004"
       x="51"
       y="62"
       id="rect3810"
       style="fill:url(#linearGradient3472);fill-opacity:1;stroke:none;display:inline" />
    <path
       d="m 58.677616,66.779963 c 0,0.210938 -0.03516,0.401001 -0.105467,0.570191 -0.06813,0.166992 -0.171391,0.309814 -0.309816,0.428466 -0.138425,0.118653 -0.310917,0.209839 -0.517459,0.273559 -0.204341,0.06152 -0.442741,0.09229 -0.715208,0.09229 -0.303225,0 -0.559209,-0.03845 -0.767942,-0.115357 -0.206542,-0.0769 -0.376833,-0.177978 -0.510867,-0.303223 -0.131833,-0.127441 -0.231808,-0.271361 -0.299925,-0.431761 -0.06592,-0.1604 -0.108766,-0.322998 -0.128541,-0.487794 l 0.942633,-0.0824 c 0.01318,0.09888 0.03735,0.190064 0.07251,0.273559 0.03735,0.0813 0.08679,0.151612 0.148309,0.210937 0.06152,0.05933 0.136233,0.10547 0.224125,0.138428 0.09008,0.03076 0.195558,0.04614 0.3164,0.04614 0.221925,10e-7 0.394417,-0.05493 0.517458,-0.164795 0.123042,-0.109862 0.184567,-0.277953 0.184575,-0.504272 -8e-6,-0.138426 -0.02967,-0.249388 -0.08899,-0.332886 -0.05713,-0.08349 -0.130734,-0.147216 -0.220825,-0.191163 -0.08789,-0.04614 -0.183475,-0.0769 -0.286742,-0.09228 -0.103275,-0.01538 -0.20105,-0.02307 -0.293342,-0.02307 l -0.322992,0 0,-0.74817 0.303226,0 c 0.09228,4e-6 0.185658,-0.0088 0.28015,-0.02637 0.09667,-0.01758 0.183466,-0.04944 0.260375,-0.09558 0.0769,-0.04614 0.139525,-0.109861 0.187866,-0.191163 0.04833,-0.08349 0.07251,-0.188961 0.07251,-0.316406 0,-0.191159 -0.05383,-0.340573 -0.1615,-0.448242 -0.105467,-0.10986 -0.260375,-0.164792 -0.464717,-0.164795 -0.191167,3e-6 -0.346075,0.05274 -0.464725,0.158203 -0.116459,0.105472 -0.183475,0.254886 -0.20105,0.448242 l -0.92615,-0.06592 c 0.02637,-0.217525 0.0857,-0.40649 0.177975,-0.566895 0.09449,-0.160395 0.212041,-0.29333 0.352666,-0.398803 0.142825,-0.105464 0.306517,-0.183467 0.491084,-0.234008 0.184575,-0.05273 0.380133,-0.0791 0.586675,-0.0791 0.272458,5e-6 0.506467,0.03296 0.702033,0.09888 0.195542,0.06592 0.35595,0.154911 0.4812,0.266967 0.125234,0.112065 0.217517,0.242802 0.27685,0.392212 0.05932,0.149418 0.08899,0.30872 0.08899,0.477905 0,0.136234 -0.01978,0.263676 -0.05933,0.382325 -0.03956,0.116457 -0.09998,0.221927 -0.181275,0.316406 -0.07911,0.09229 -0.181275,0.172488 -0.306517,0.240601 -0.12525,0.06592 -0.273566,0.115358 -0.44495,0.148316 l 0,0.01318 c 0.191159,0.02197 0.357059,0.06592 0.497684,0.131836 0.140625,0.06372 0.255975,0.143922 0.346066,0.240601 0.09008,0.09668 0.1571,0.206545 0.20105,0.32959 0.04394,0.120851 0.06592,0.249391 0.06592,0.38562"
       inkscape:connector-curvature="0"
       id="text3834"
       style="font-size:9px;font-style:normal;font-variant:normal;font-weight:bold;font-stretch:normal;text-align:start;line-height:100%;writing-mode:lr-tb;text-anchor:start;fill:#ffffff;fill-opacity:1;stroke:none;display:inline;font-family:Liberation Sans;-inkscape-font-specification:Liberation Sans Bold" />
    <rect
       width="11.999999"
       height="7.5000014"
       rx="1.125"
       ry="1.1250004"
       x="68"
       y="62"
       id="rect3380"
       style="fill:url(#linearGradient3468);fill-opacity:1;stroke:none;display:inline" />
    <path
       d="m 74.408329,66.16015 0,1.494141 -0.827642,0 0,-1.494141 -1.461175,0 0,-0.820313 1.461175,0 0,-1.49414 0.827642,0 0,1.49414 1.472167,0 0,0.820313 -1.472167,0"
       inkscape:connector-curvature="0"
       id="text3870"
       style="font-size:10px;font-style:normal;font-variant:normal;font-weight:bold;font-stretch:normal;text-align:start;line-height:100%;writing-mode:lr-tb;text-anchor:start;fill:#ffffff;fill-opacity:1;stroke:none;display:inline;font-family:Liberation Sans;-inkscape-font-specification:Liberation Sans Bold" />
    <rect
       width="11.999999"
       height="7.5000014"
       rx="1.125"
       ry="1.1250004"
       x="16"
       y="50"
       id="rect3790"
       style="fill:url(#linearGradient3464);fill-opacity:1;stroke:none;display:inline" />
    <path
       d="m 23.188174,55.126036 0,0.945924 -0.883301,0 0,-0.945924 -2.112671,0 0,-0.695434 1.961059,-3.002565 1.034913,0 0,3.009157 0.619628,0 0,0.688842 -0.619628,0 m -0.883301,-2.208252 c -3e-6,-0.03735 -3e-6,-0.08569 0,-0.14502 0.0022,-0.06152 0.0044,-0.124141 0.0066,-0.187866 0.0044,-0.06372 0.0077,-0.124141 0.0099,-0.181274 0.0044,-0.05932 0.0088,-0.105465 0.01318,-0.138427 -0.01099,0.02417 -0.02857,0.05933 -0.05273,0.105468 -0.02417,0.04395 -0.05164,0.09229 -0.0824,0.145019 -0.02857,0.05054 -0.05933,0.101078 -0.09229,0.151611 -0.03076,0.05054 -0.05823,0.09449 -0.0824,0.131837 l -1.077759,1.638062 1.357911,0 0,-1.51941"
       inkscape:connector-curvature="0"
       id="text3838"
       style="font-size:9px;font-style:normal;font-variant:normal;font-weight:bold;font-stretch:normal;text-align:start;line-height:100%;writing-mode:lr-tb;text-anchor:start;fill:#ffffff;fill-opacity:1;stroke:none;display:inline;font-family:Liberation Sans;-inkscape-font-specification:Liberation Sans Bold" />
    <rect
       width="11.999999"
       height="7.5000014"
       rx="1.125"
       ry="1.1250004"
       x="33"
       y="50"
       id="rect3800"
       style="fill:url(#linearGradient3460);fill-opacity:1;stroke:none;display:inline" />
    <path
       d="m 40.679263,54.493224 c -8e-6,0.23291 -0.03736,0.448243 -0.112065,0.645995 -0.07251,0.195558 -0.181275,0.365846 -0.326288,0.510866 -0.145027,0.142822 -0.3252,0.254883 -0.540532,0.336181 -0.213135,0.0791 -0.460328,0.118652 -0.741575,0.118653 -0.259278,-1e-6 -0.485597,-0.03076 -0.678954,-0.09228 -0.193361,-0.06372 -0.357057,-0.150514 -0.49109,-0.260376 -0.131836,-0.112061 -0.236206,-0.242799 -0.31311,-0.392213 -0.07471,-0.149413 -0.126343,-0.309814 -0.154907,-0.481201 l 0.926148,-0.07581 c 0.01758,0.07251 0.04175,0.142823 0.07251,0.210937 0.03296,0.06812 0.078,0.128542 0.135132,0.181274 0.05713,0.05274 0.127439,0.09558 0.210937,0.128541 0.0835,0.03076 0.184569,0.04614 0.303223,0.04614 0.23071,10e-7 0.414182,-0.07361 0.550412,-0.220824 0.138427,-0.147216 0.207645,-0.359253 0.207645,-0.636109 0,-0.123045 -0.01758,-0.234007 -0.05273,-0.332886 -0.03296,-0.09887 -0.08131,-0.183469 -0.14502,-0.253784 -0.06153,-0.07031 -0.138435,-0.124143 -0.230715,-0.1615 -0.09009,-0.03735 -0.19336,-0.05603 -0.309814,-0.05603 -0.15381,3e-6 -0.280152,0.02967 -0.379028,0.08899 -0.09888,0.05713 -0.182374,0.127443 -0.250488,0.210938 l -0.903076,0 0.161499,-2.61365 2.791627,0 0,0.688845 -1.951173,0 -0.07581,1.17334 c 0.09228,-0.0813 0.208739,-0.15051 0.349365,-0.207642 0.140624,-0.05932 0.304319,-0.08899 0.491089,-0.08899 0.228513,3e-6 0.432858,0.03736 0.613038,0.112061 0.180172,0.07471 0.33288,0.179079 0.45813,0.31311 0.125242,0.134036 0.220822,0.295534 0.28674,0.484497 0.06592,0.186769 0.09887,0.394411 0.09888,0.622925"
       inkscape:connector-curvature="0"
       id="text3842"
       style="font-size:9px;font-style:normal;font-variant:normal;font-weight:bold;font-stretch:normal;text-align:start;line-height:100%;writing-mode:lr-tb;text-anchor:start;fill:#ffffff;fill-opacity:1;stroke:none;display:inline;font-family:Liberation Sans;-inkscape-font-specification:Liberation Sans Bold" />
    <rect
       width="11.999999"
       height="7.5000014"
       rx="1.125"
       ry="1.1250004"
       x="51"
       y="50"
       id="rect3812"
       style="fill:url(#linearGradient3456);fill-opacity:1;stroke:none;display:inline" />
    <path
       d="m 58.631474,54.554198 c -8e-6,0.232911 -0.03297,0.447144 -0.09888,0.6427 -0.06592,0.19336 -0.164792,0.360352 -0.296625,0.500977 -0.129642,0.138429 -0.292242,0.247193 -0.487792,0.326295 -0.195558,0.0769 -0.421883,0.115355 -0.678958,0.115355 -0.547117,0 -0.9679,-0.191161 -1.262325,-0.573486 -0.292234,-0.384521 -0.438359,-0.953613 -0.438359,-1.707275 0,-0.828367 0.148317,-1.451291 0.44495,-1.868777 0.298825,-0.419672 0.725092,-0.629511 1.278801,-0.629515 0.184575,4e-6 0.352666,0.01978 0.504283,0.05933 0.1516,0.03736 0.286742,0.09888 0.405392,0.18457 0.11865,0.0857 0.219725,0.19666 0.303225,0.332886 0.08348,0.134039 0.150508,0.297735 0.20105,0.49109 l -0.873417,0.121949 c -0.04395,-0.162594 -0.115358,-0.279049 -0.214233,-0.349366 -0.09888,-0.07251 -0.214242,-0.108761 -0.346067,-0.108764 -0.248292,3e-6 -0.44385,0.124149 -0.586675,0.372436 -0.140625,0.248295 -0.210934,0.625126 -0.210934,1.130493 0.09887,-0.164792 0.2362,-0.291135 0.411992,-0.379028 0.175775,-0.08789 0.374634,-0.131833 0.596559,-0.131836 0.204333,3e-6 0.388908,0.03406 0.553708,0.102172 0.166983,0.06592 0.308708,0.162601 0.425167,0.29004 0.11865,0.125246 0.209833,0.279055 0.273558,0.461425 0.06372,0.182375 0.09558,0.38782 0.09558,0.616334 m -0.929441,0.02637 c 0,-0.125242 -0.01428,-0.237303 -0.04285,-0.336181 -0.02857,-0.101073 -0.07251,-0.186766 -0.131834,-0.257081 -0.05713,-0.07031 -0.128541,-0.124143 -0.214233,-0.161499 -0.08569,-0.03955 -0.184575,-0.05932 -0.296633,-0.05933 -0.0813,10e-7 -0.1626,0.01319 -0.2439,0.03955 -0.0813,0.02637 -0.153809,0.06921 -0.217526,0.12854 -0.06372,0.05713 -0.115358,0.13074 -0.154908,0.220825 -0.03955,0.09009 -0.05933,0.198854 -0.05933,0.326294 0,0.131837 0.01647,0.254884 0.04944,0.36914 0.03295,0.11426 0.0791,0.214235 0.138425,0.299927 0.06152,0.0835 0.135125,0.149415 0.220825,0.197754 0.08569,0.04614 0.182367,0.06921 0.290042,0.06921 0.208733,1e-6 0.371333,-0.07361 0.487791,-0.220825 0.11645,-0.149413 0.174684,-0.354858 0.174684,-0.616333"
       inkscape:connector-curvature="0"
       id="text3846"
       style="font-size:9px;font-style:normal;font-variant:normal;font-weight:bold;font-stretch:normal;text-align:start;line-height:100%;writing-mode:lr-tb;text-anchor:start;fill:#ffffff;fill-opacity:1;stroke:none;display:inline;font-family:Liberation Sans;-inkscape-font-specification:Liberation Sans Bold" />
    <rect
       width="11.999999"
       height="7.5000014"
       rx="1.125"
       ry="1.1250004"
       x="68"
       y="50"
       id="rect3372"
       style="fill:url(#linearGradient3452);fill-opacity:1;stroke:none;display:inline" />
    <path
       d="m 72.385312,54.196776 0,-0.893555 3.229384,0 0,0.893555 -3.229384,0"
       inkscape:connector-curvature="0"
       id="text3874"
       style="font-size:10px;font-style:normal;font-variant:normal;font-weight:bold;font-stretch:normal;text-align:start;line-height:100%;writing-mode:lr-tb;text-anchor:start;fill:#ffffff;fill-opacity:1;stroke:none;display:inline;font-family:Liberation Sans;-inkscape-font-specification:Liberation Sans Bold" />
    <rect
       width="11.999999"
       height="7.5000014"
       rx="1.125"
       ry="1.1250004"
       x="16"
       y="38"
       id="rect3794"
       style="fill:url(#linearGradient3448);fill-opacity:1;stroke:none;display:inline" />
    <path
       d="m 23.583681,40.16302 c -0.208743,0.329593 -0.406497,0.649295 -0.593262,0.959107 -0.184573,0.309817 -0.346071,0.621829 -0.484496,0.936036 -0.138431,0.312013 -0.248294,0.633912 -0.329591,0.965697 -0.0791,0.329591 -0.118653,0.678956 -0.118652,1.048096 l -0.965698,0 c -1e-6,-0.366943 0.04285,-0.715208 0.12854,-1.044799 0.08789,-0.331786 0.206542,-0.654784 0.355957,-0.968994 0.149412,-0.314207 0.322996,-0.624021 0.520752,-0.929445 0.197752,-0.307614 0.406492,-0.620724 0.626221,-0.939331 l -2.307129,0 0,-0.761352 3.167358,0 0,0.734985"
       inkscape:connector-curvature="0"
       id="text3850"
       style="font-size:9px;font-style:normal;font-variant:normal;font-weight:bold;font-stretch:normal;text-align:start;line-height:100%;writing-mode:lr-tb;text-anchor:start;fill:#ffffff;fill-opacity:1;stroke:none;display:inline;font-family:Liberation Sans;-inkscape-font-specification:Liberation Sans Bold" />
    <rect
       width="11.999999"
       height="7.5000014"
       rx="1.125"
       ry="1.1250004"
       x="33"
       y="38"
       id="rect3802"
       style="fill:url(#linearGradient3444);fill-opacity:1;stroke:none;display:inline" />
    <path
       d="m 40.666078,42.765133 c 0,0.199952 -0.03296,0.384522 -0.09888,0.55371 -0.06592,0.166994 -0.166995,0.312013 -0.303218,0.43506 -0.136237,0.120849 -0.308722,0.215331 -0.517455,0.283446 -0.208747,0.06811 -0.457035,0.102173 -0.744875,0.102173 -0.285646,0 -0.533937,-0.03406 -0.744873,-0.102173 -0.208741,-0.06812 -0.382325,-0.162597 -0.520753,-0.283446 -0.13623,-0.123047 -0.237304,-0.268066 -0.303222,-0.43506 -0.06592,-0.16699 -0.09888,-0.349364 -0.09888,-0.547118 -1e-6,-0.169188 0.02637,-0.318602 0.0791,-0.448243 0.05273,-0.131834 0.123047,-0.244993 0.210937,-0.339477 0.08789,-0.09448 0.188965,-0.169187 0.303223,-0.224121 0.114258,-0.05713 0.231811,-0.09558 0.352662,-0.115356 l 0,-0.01318 c -0.12964,-0.02856 -0.246095,-0.0758 -0.349365,-0.141724 -0.103274,-0.06591 -0.191164,-0.145018 -0.263673,-0.237305 -0.07251,-0.09228 -0.12854,-0.194456 -0.168091,-0.306519 -0.03735,-0.114254 -0.05603,-0.232907 -0.05603,-0.355957 0,-0.184567 0.03296,-0.352658 0.09888,-0.504273 0.06811,-0.151606 0.166992,-0.281245 0.296631,-0.388915 0.129637,-0.107662 0.290038,-0.19006 0.481201,-0.247193 0.193358,-0.05932 0.416381,-0.08898 0.669067,-0.08899 0.270259,4e-6 0.503172,0.03077 0.698727,0.09229 0.197752,0.05933 0.360352,0.143925 0.487792,0.253784 0.12744,0.10767 0.221925,0.237308 0.283448,0.388916 0.06152,0.151616 0.09229,0.318607 0.09229,0.500977 0,0.120852 -0.01978,0.238406 -0.05933,0.352661 -0.03736,0.112064 -0.09229,0.214236 -0.164797,0.306518 -0.07251,0.09229 -0.161498,0.170293 -0.266963,0.23401 -0.103275,0.06372 -0.22083,0.108768 -0.352665,0.135132 l 0,0.01318 c 0.13623,0.02197 0.262575,0.06262 0.379028,0.121948 0.11865,0.05713 0.220822,0.132937 0.306517,0.227417 0.08569,0.09229 0.152708,0.204347 0.201053,0.336181 0.04834,0.129641 0.07251,0.276857 0.07251,0.441651 m -1.067869,-2.119268 c 0,-0.09228 -0.0099,-0.176876 -0.02966,-0.253784 -0.01978,-0.0791 -0.05273,-0.146114 -0.09887,-0.201049 -0.04615,-0.05713 -0.108772,-0.101071 -0.187867,-0.131837 -0.07691,-0.03295 -0.174686,-0.04943 -0.293337,-0.04944 -0.114259,4e-6 -0.20984,0.01648 -0.286743,0.04944 -0.07691,0.03077 -0.138428,0.07471 -0.18457,0.131837 -0.04614,0.05494 -0.0791,0.12195 -0.09888,0.201049 -0.01978,0.07691 -0.02966,0.161502 -0.02966,0.253784 -2e-6,0.0813 0.0077,0.161503 0.02307,0.240601 0.01758,0.0791 0.04834,0.150515 0.09229,0.214233 0.04394,0.06153 0.105466,0.112064 0.18457,0.151612 0.0791,0.03955 0.181273,0.05933 0.306518,0.05933 0.131834,2e-6 0.237305,-0.01977 0.316407,-0.05933 0.08129,-0.03955 0.142815,-0.09118 0.184568,-0.154908 0.04175,-0.06372 0.06921,-0.135129 0.0824,-0.214233 0.01319,-0.0791 0.01978,-0.1582 0.01978,-0.237305 m 0.108765,2.043458 c 0,-0.09448 -0.01099,-0.185667 -0.03296,-0.273559 -0.01978,-0.08789 -0.05713,-0.164794 -0.112065,-0.230714 -0.05273,-0.06811 -0.126345,-0.121946 -0.220822,-0.161498 -0.09448,-0.04175 -0.214236,-0.06262 -0.359253,-0.06262 -0.131838,3e-6 -0.2428,0.02088 -0.332886,0.06262 -0.08789,0.03955 -0.159304,0.09339 -0.214234,0.161498 -0.05274,0.06812 -0.09119,0.147219 -0.115356,0.237305 -0.02197,0.08789 -0.03296,0.181277 -0.03296,0.280152 -1e-6,0.116457 0.01098,0.223023 0.03296,0.319702 0.02417,0.09668 0.06372,0.180177 0.118652,0.250488 0.05713,0.06812 0.131835,0.12085 0.224122,0.158203 0.09228,0.03735 0.20764,0.05603 0.346068,0.05603 0.138427,1e-6 0.252682,-0.01868 0.342772,-0.05603 0.09009,-0.03955 0.161497,-0.09448 0.214237,-0.164795 0.05273,-0.07031 0.08899,-0.153807 0.108765,-0.250488 0.02197,-0.09887 0.03296,-0.20764 0.03296,-0.326294"
       inkscape:connector-curvature="0"
       id="text3854"
       style="font-size:9px;font-style:normal;font-variant:normal;font-weight:bold;font-stretch:normal;text-align:start;line-height:100%;writing-mode:lr-tb;text-anchor:start;fill:#ffffff;fill-opacity:1;stroke:none;display:inline;font-family:Liberation Sans;-inkscape-font-specification:Liberation Sans Bold" />
    <rect
       width="11.999999"
       height="7.5000014"
       rx="1.125"
       ry="1.1250004"
       x="51"
       y="38"
       id="rect3814"
       style="fill:url(#linearGradient3440);fill-opacity:1;stroke:none;display:inline" />
    <path
       d="m 58.634766,41.677486 c 0,0.823977 -0.150508,1.440309 -0.451533,1.848999 -0.301034,0.408692 -0.7284,0.613037 -1.282109,0.613037 -0.19995,0 -0.380125,-0.02087 -0.540525,-0.06262 -0.1582,-0.04175 -0.296633,-0.106567 -0.415283,-0.194457 -0.118659,-0.08789 -0.219725,-0.20105 -0.303225,-0.339478 -0.0813,-0.138427 -0.146109,-0.303222 -0.194459,-0.494385 l 0.870125,-0.121948 c 0.04394,0.164796 0.11535,0.286744 0.214225,0.365845 0.101075,0.0791 0.227417,0.118653 0.379026,0.118652 0.12525,1e-6 0.237308,-0.02966 0.336191,-0.08899 0.09887,-0.05932 0.183467,-0.149412 0.253784,-0.270263 0.07031,-0.120848 0.124141,-0.273558 0.1615,-0.45813 0.03955,-0.186766 0.06042,-0.406493 0.06262,-0.659179 -0.04394,0.0857 -0.102175,0.1615 -0.174683,0.227416 -0.07251,0.06592 -0.154908,0.120852 -0.247192,0.164795 -0.09009,0.04395 -0.186766,0.078 -0.290041,0.102173 -0.103267,0.02197 -0.207634,0.03296 -0.313109,0.03296 -0.20215,2e-6 -0.385617,-0.03515 -0.550408,-0.105468 -0.1648,-0.07251 -0.305425,-0.17578 -0.421875,-0.309815 -0.116459,-0.134031 -0.206542,-0.29553 -0.270267,-0.484497 -0.06152,-0.19116 -0.09228,-0.406493 -0.09228,-0.645997 0,-0.246091 0.03625,-0.465816 0.108766,-0.65918 0.0747,-0.193356 0.181275,-0.355952 0.3197,-0.487792 0.138425,-0.13403 0.307609,-0.235104 0.507567,-0.303224 0.20215,-0.07031 0.430658,-0.105464 0.68555,-0.105468 0.268059,4e-6 0.504267,0.04615 0.708609,0.138427 0.20655,0.09009 0.379033,0.230718 0.517458,0.421875 0.138425,0.18897 0.2428,0.42957 0.313108,0.721803 0.07251,0.290041 0.108767,0.635012 0.108767,1.034912 m -0.978875,-0.649292 c -8e-6,-0.131833 -0.01538,-0.25488 -0.04615,-0.369142 -0.02856,-0.116451 -0.07251,-0.216426 -0.131833,-0.299926 -0.05933,-0.08569 -0.131834,-0.152706 -0.217534,-0.20105 -0.08569,-0.04834 -0.184566,-0.0725 -0.296625,-0.07251 -0.103275,5e-6 -0.195558,0.01978 -0.27685,0.05933 -0.0813,0.03736 -0.150517,0.09229 -0.20765,0.164795 -0.05713,0.07251 -0.101075,0.160405 -0.131833,0.263672 -0.02857,0.103275 -0.04285,0.21973 -0.04285,0.349366 0,0.120852 0.01428,0.234012 0.04285,0.339477 0.02856,0.103274 0.07032,0.193363 0.125241,0.270265 0.05493,0.07471 0.12415,0.134036 0.20765,0.177979 0.08348,0.04175 0.179067,0.06262 0.286734,0.06262 0.0857,2e-6 0.169192,-0.01538 0.250492,-0.04614 0.08349,-0.03076 0.157108,-0.0769 0.220825,-0.138427 0.06592,-0.06152 0.11865,-0.138425 0.158208,-0.230714 0.03954,-0.09448 0.05932,-0.204342 0.05932,-0.329589"
       inkscape:connector-curvature="0"
       id="text3858"
       style="font-size:9px;font-style:normal;font-variant:normal;font-weight:bold;font-stretch:normal;text-align:start;line-height:100%;writing-mode:lr-tb;text-anchor:start;fill:#ffffff;fill-opacity:1;stroke:none;display:inline;font-family:Liberation Sans;-inkscape-font-specification:Liberation Sans Bold" />
    <rect
       width="11.999999"
       height="7.5000014"
       rx="1.125"
       ry="1.1250004"
       x="68"
       y="38"
       id="rect3396"
       style="fill:url(#linearGradient3436);fill-opacity:1;stroke:none;display:inline" />
    <path
       d="m 72.154296,43.194332 c 0.162108,10e-7 0.301758,-0.02246 0.41895,-0.06738 0.119133,-0.04687 0.221675,-0.107421 0.307608,-0.181641 0.08789,-0.07422 0.160158,-0.158201 0.216808,-0.251953 0.05858,-0.09375 0.106434,-0.188475 0.14355,-0.284179 l 0.752925,0.284179 c -0.06054,0.148438 -0.13965,0.293947 -0.2373,0.436524 -0.09766,0.142579 -0.219733,0.268554 -0.366216,0.377929 -0.146484,0.109376 -0.321292,0.198243 -0.524409,0.266602 -0.201175,0.06641 -0.438483,0.09961 -0.711916,0.09961 -0.357425,0 -0.666992,-0.05273 -0.928709,-0.158202 -0.261725,-0.107422 -0.478516,-0.25586 -0.650391,-0.445313 -0.169925,-0.191406 -0.296875,-0.417968 -0.380859,-0.679687 -0.08203,-0.261719 -0.12305,-0.54785 -0.12305,-0.858399 0,-0.322264 0.04102,-0.613279 0.12305,-0.873048 0.08398,-0.259763 0.209959,-0.480465 0.377934,-0.662109 0.167966,-0.18359 0.379875,-0.324215 0.635741,-0.421875 0.257809,-0.09961 0.560542,-0.14941 0.9082,-0.149414 0.269534,4e-6 0.504884,0.02832 0.70605,0.08496 0.203125,0.05665 0.377925,0.136724 0.524417,0.240234 0.148433,0.101567 0.270508,0.22266 0.366208,0.363283 0.09765,0.138675 0.173834,0.291995 0.228525,0.45996 l -0.761725,0.208008 c -0.02735,-0.08789 -0.06934,-0.171872 -0.125975,-0.251953 -0.05664,-0.08203 -0.128916,-0.154294 -0.2168,-0.216797 -0.08594,-0.0625 -0.1875,-0.112301 -0.304683,-0.149414 -0.117192,-0.03906 -0.250008,-0.05859 -0.398442,-0.05859 -0.208983,2e-6 -0.388666,0.03418 -0.539058,0.102539 -0.150392,0.06641 -0.274417,0.162113 -0.372067,0.287108 -0.09571,0.125004 -0.167,0.275394 -0.213875,0.451172 -0.04492,0.173832 -0.06737,0.369144 -0.06737,0.585939 0,0.214845 0.02245,0.412111 0.06737,0.591797 0.04687,0.177736 0.119142,0.331056 0.2168,0.459961 0.09766,0.128907 0.222659,0.229492 0.375,0.301757 0.154292,0.07227 0.338859,0.1084 0.553709,0.108399 m 2.4082,0.621093 0,-4.12793 3.246092,0 0,0.667969 -2.381825,0 0,1.037109 2.203116,0 0,0.66797 -2.203116,0 0,1.086914 2.50195,0 0,0.667968 -3.366217,0"
       inkscape:connector-curvature="0"
       id="text3878"
       style="font-size:8px;font-style:normal;font-variant:normal;font-weight:bold;font-stretch:normal;text-align:start;line-height:100%;writing-mode:lr-tb;text-anchor:start;fill:#ffffff;fill-opacity:1;stroke:none;display:inline;font-family:Liberation Sans;-inkscape-font-specification:Liberation Sans Bold" />
    <rect
       width="11.999999"
       height="7.5000014"
       rx="1.125"
       ry="1.1250004"
       x="16"
       y="74"
       id="rect3382"
       style="fill:url(#linearGradient3432);fill-opacity:1;stroke:none;display:inline" />
    <path
       d="m 23.605104,77.749985 c -3e-6,0.443851 -0.04065,0.818483 -0.121948,1.123906 -0.0813,0.303225 -0.194461,0.549315 -0.339477,0.738277 -0.142825,0.186773 -0.313114,0.3219 -0.510865,0.405398 -0.195559,0.0813 -0.409792,0.12195 -0.6427,0.12195 -0.232912,0 -0.447145,-0.04065 -0.6427,-0.12195 -0.195558,-0.0813 -0.363649,-0.215333 -0.504272,-0.402098 -0.140626,-0.18897 -0.250488,-0.43506 -0.32959,-0.738285 -0.0791,-0.305415 -0.118653,-0.68115 -0.118653,-1.127198 0,-0.468015 0.03845,-0.854731 0.115357,-1.160153 0.0791,-0.307613 0.190063,-0.552608 0.332886,-0.734985 0.142821,-0.18237 0.313109,-0.30981 0.510864,-0.382328 0.19995,-0.0747 0.420774,-0.112057 0.662476,-0.112057 0.226316,0 0.436155,0.03736 0.629516,0.112057 0.195554,0.07252 0.363645,0.199958 0.504272,0.382328 0.142819,0.182377 0.253781,0.427372 0.332886,0.734985 0.08129,0.305422 0.121945,0.692138 0.121948,1.160153 m -0.929443,0 c -2e-6,-0.32739 -0.01209,-0.597652 -0.03626,-0.810787 -0.02417,-0.215334 -0.06262,-0.385621 -0.115357,-0.510864 -0.05274,-0.12744 -0.12195,-0.216427 -0.207641,-0.26697 -0.0835,-0.05053 -0.18567,-0.0758 -0.306518,-0.07581 -0.129641,8e-6 -0.238406,0.02638 -0.326294,0.0791 -0.08789,0.05054 -0.159303,0.13953 -0.214234,0.26697 -0.05274,0.127447 -0.09119,0.29883 -0.115356,0.514163 -0.02197,0.213135 -0.03296,0.4812 -0.03296,0.804195 -1e-6,0.318608 0.01208,0.584476 0.03625,0.797611 0.02417,0.213135 0.06262,0.384525 0.115358,0.514162 0.05273,0.12744 0.121946,0.21753 0.20764,0.270263 0.08569,0.05273 0.191161,0.0791 0.316406,0.0791 0.120849,0 0.22412,-0.02637 0.309815,-0.0791 0.08569,-0.05273 0.156004,-0.142823 0.210938,-0.270263 0.05493,-0.129637 0.09448,-0.301027 0.118652,-0.514162 0.02636,-0.213135 0.03955,-0.479003 0.03955,-0.797611"
       inkscape:connector-curvature="0"
       id="text3822"
       style="font-size:9px;font-style:normal;font-variant:normal;font-weight:bold;font-stretch:normal;text-align:start;line-height:100%;writing-mode:lr-tb;text-anchor:start;fill:#ffffff;fill-opacity:1;stroke:none;display:inline;font-family:Liberation Sans;-inkscape-font-specification:Liberation Sans Bold" />
    <rect
       width="11.999999"
       height="7.5000014"
       rx="1.125"
       ry="1.1250004"
       x="33"
       y="-81.5"
       transform="scale(1,-1)"
       id="rect3384"
       style="fill:url(#linearGradient3428);fill-opacity:1;stroke:none;display:inline" />
    <path
       d="m 38.470828,79.808466 0,-1.116945 1.058347,0 0,1.116945 -1.058347,0"
       inkscape:connector-curvature="0"
       id="text3862"
       style="font-size:10px;font-style:normal;font-variant:normal;font-weight:bold;font-stretch:normal;text-align:start;line-height:100%;writing-mode:lr-tb;text-anchor:start;fill:#ffffff;fill-opacity:1;stroke:none;display:inline;font-family:Liberation Sans;-inkscape-font-specification:Liberation Sans Bold" />
    <rect
       width="11.999999"
       height="7.5000014"
       rx="1.125"
       ry="1.1250004"
       x="51"
       y="74"
       id="rect3386"
       style="fill:url(#linearGradient3423);fill-opacity:1;stroke:none;display:inline" />
    <path
       d="m 59.827883,78.648126 c 0,0.274657 -0.03077,0.506467 -0.09228,0.695437 -0.06153,0.188963 -0.145025,0.34167 -0.250491,0.45813 -0.105475,0.114255 -0.229617,0.19665 -0.372434,0.247193 -0.140633,0.05054 -0.291141,0.0758 -0.451541,0.0758 -0.164792,0 -0.3186,-0.02527 -0.461417,-0.0758 -0.140633,-0.05054 -0.263683,-0.132938 -0.369142,-0.247193 -0.103275,-0.11646 -0.185675,-0.269167 -0.247191,-0.45813 -0.05933,-0.18897 -0.089,-0.42078 -0.08899,-0.695437 -8e-6,-0.29004 0.02966,-0.529538 0.08899,-0.718508 0.06152,-0.19116 0.145008,-0.342773 0.250483,-0.45483 0.105467,-0.114255 0.229608,-0.193358 0.372442,-0.237308 0.145008,-0.04614 0.301016,-0.06921 0.468016,-0.06921 0.158192,0 0.307609,0.02307 0.448234,0.06921 0.140625,0.04395 0.262575,0.123053 0.36585,0.237308 0.105466,0.112057 0.187858,0.26367 0.247191,0.45483 0.06152,0.18897 0.09228,0.428468 0.09228,0.718508 m -4.004517,1.42383 -0.67895,0 3.032217,-4.643927 0.68885,0 -3.042117,4.643927 m -0.474609,-4.696659 c 0.1582,7e-6 0.307617,0.02308 0.448242,0.06922 0.140625,0.04395 0.263667,0.12195 0.369142,0.234008 0.105466,0.112065 0.188966,0.263677 0.250483,0.45483 0.06153,0.18897 0.09229,0.428475 0.09229,0.718507 0,0.274666 -0.03077,0.506476 -0.09229,0.695439 -0.06152,0.188962 -0.146117,0.341677 -0.253775,0.45813 -0.105475,0.116452 -0.229617,0.19995 -0.372442,0.250485 -0.142825,0.05054 -0.295533,0.07581 -0.458133,0.0758 -0.160392,7e-6 -0.312008,-0.02526 -0.454825,-0.0758 -0.140625,-0.05054 -0.263675,-0.13293 -0.369142,-0.247193 -0.103275,-0.116452 -0.185675,-0.26916 -0.2472,-0.45813 -0.05933,-0.188962 -0.08898,-0.421875 -0.08898,-0.698731 0,-0.290032 0.02966,-0.529537 0.08898,-0.718507 0.05932,-0.191153 0.141734,-0.342765 0.2472,-0.45483 0.105467,-0.112058 0.229609,-0.190058 0.372434,-0.234008 0.145016,-0.04614 0.301025,-0.06921 0.468016,-0.06922 m 3.770509,3.272829 c -8e-6,-0.19116 -0.0099,-0.349365 -0.02966,-0.474608 -0.01758,-0.125243 -0.04506,-0.224123 -0.0824,-0.296633 -0.03737,-0.07471 -0.0835,-0.126337 -0.138425,-0.154905 -0.05494,-0.03077 -0.119759,-0.04614 -0.194459,-0.04615 -0.08131,7e-6 -0.151625,0.01538 -0.210941,0.04615 -0.05713,0.02857 -0.104375,0.0802 -0.141725,0.154905 -0.03736,0.07471 -0.06592,0.174683 -0.08569,0.299926 -0.01758,0.12525 -0.02637,0.282352 -0.02637,0.471315 -8e-6,0.184575 0.0088,0.338377 0.02637,0.461422 0.01758,0.120855 0.04504,0.218633 0.0824,0.29334 0.03954,0.07471 0.08788,0.12744 0.145017,0.158198 0.05712,0.03077 0.125233,0.04615 0.20435,0.04615 0.0725,0 0.136216,-0.01538 0.191158,-0.04615 0.05712,-0.03076 0.104367,-0.0824 0.141725,-0.154905 0.03954,-0.07471 0.06921,-0.17358 0.08899,-0.296633 0.01977,-0.123045 0.02965,-0.276847 0.02966,-0.461422 m -3.325559,-1.796267 c 0,-0.188962 -0.0099,-0.34497 -0.02967,-0.468015 -0.01758,-0.125242 -0.04504,-0.224122 -0.0824,-0.296632 -0.03735,-0.0747 -0.0835,-0.126338 -0.138425,-0.154905 -0.05493,-0.03076 -0.119759,-0.04614 -0.194459,-0.04615 -0.0813,8e-6 -0.151608,0.01539 -0.210933,0.04615 -0.05933,0.03076 -0.107667,0.0835 -0.145017,0.158197 -0.03736,0.07252 -0.06593,0.17139 -0.0857,0.296633 -0.01758,0.123052 -0.02637,0.277957 -0.02637,0.464722 0,0.184576 0.0088,0.338386 0.02637,0.461424 0.01977,0.123052 0.04834,0.221932 0.0857,0.296632 0.03954,0.07471 0.08788,0.128543 0.145017,0.161498 0.05712,0.03077 0.125242,0.04615 0.204342,0.04615 0.0747,0 0.139525,-0.01538 0.194458,-0.04615 0.05712,-0.03076 0.104367,-0.08349 0.141725,-0.158198 0.03955,-0.07471 0.06812,-0.17358 0.08569,-0.296632 0.01978,-0.125243 0.02967,-0.280148 0.02967,-0.464724"
       inkscape:connector-curvature="0"
       id="text3866"
       style="font-size:9px;font-style:normal;font-variant:normal;font-weight:bold;font-stretch:normal;text-align:start;line-height:100%;writing-mode:lr-tb;text-anchor:start;fill:#ffffff;fill-opacity:1;stroke:none;display:inline;font-family:Liberation Sans;-inkscape-font-specification:Liberation Sans Bold" />
    <rect
       width="11.999999"
       height="7.5000014"
       rx="1.125"
       ry="1.1250004"
       x="68"
       y="74"
       id="rect3388"
       style="fill:url(#linearGradient3419);fill-opacity:1;stroke:none;display:inline" />
    <path
       d="m 72.119512,77.149408 0,-0.816654 3.760984,0 0,0.816654 -3.760984,0 m 0,2.017823 0,-0.809325 3.760984,0 0,0.809325 -3.760984,0"
       inkscape:connector-curvature="0"
       id="text3882"
       style="font-size:10px;font-style:normal;font-variant:normal;font-weight:bold;font-stretch:normal;text-align:start;line-height:100%;writing-mode:lr-tb;text-anchor:start;fill:#ffffff;fill-opacity:1;stroke:none;display:inline;font-family:Liberation Sans;-inkscape-font-specification:Liberation Sans Bold" />
    <path
       d="M 120.78125,6.125 C 118.04223,6.6826484 116,9.0915 116,12 l 0,68 c 0,3.324 2.676,6 6,6 l 72,0 c 3.324,0 6,-2.676 6,-6 l 0,-68 c 0,-2.9085 -2.04223,-5.3173516 -4.78125,-5.875 2.20512,0.5362071 3.8125,2.4908437 3.8125,4.875 l 0,68 c 0,2.80489 -2.22636,5.03125 -5.03125,5.03125 l -72,0 c -2.80489,0 -5.03125,-2.22636 -5.03125,-5.03125 l 0,-68 c 0,-2.3841563 1.60738,-4.3387929 3.8125,-4.875 z"
       inkscape:connector-curvature="0"
       id="rect4359"
       style="opacity:0.2;fill:url(#radialGradient4375);fill-opacity:1;fill-rule:nonzero;stroke:none" />
    <path
       d="M 12,86 C 8.676,86 6,83.324 6,80 L 6,12 C 6,8.676 8.676,6 12,6 l 72,0 c 3.324,0 6,2.676 6,6 l 0,68 c 0,3.324 -2.676,6 -6,6 z m 0,-0.96875 72,0 c 2.80489,0 5.03125,-2.22636 5.03125,-5.03125 l 0,-68 C 89.03125,9.19511 86.80489,6.96875 84,6.96875 l -72,0 C 9.1951102,6.96875 6.96875,9.19511 6.96875,12 l 0,68 c 0,2.80489 2.2263602,5.03125 5.03125,5.03125 z"
       inkscape:connector-curvature="0"
       id="rect4377"
       style="opacity:0.45;fill:url(#linearGradient4390);fill-opacity:1;fill-rule:nonzero;stroke:none" />
    <path
       d="m 6,100 0,1 c 0,3.324 2.676,6 6,6 l 72,0 c 3.324,0 6,-2.676 6,-6 l 0,-1 c 0,3.324 -2.676,6 -6,6 l -72,0 c -3.324,0 -6,-2.676 -6,-6 z"
       inkscape:connector-curvature="0"
       id="path4412"
       style="opacity:0.15;fill:#000000;fill-opacity:1;fill-rule:nonzero;stroke:none" />
    <path
       d="m 6,78 0,2 c 0,3.324 2.676,6 6,6 l 72,0 c 3.324,0 6,-2.676 6,-6 l 0,-2 c 0,3.324 -2.676,6 -6,6 L 12,84 C 8.676,84 6,81.324 6,78 z"
       inkscape:connector-curvature="0"
       id="rect4414"
       style="opacity:0.2;fill:url(#linearGradient4429);fill-opacity:1;fill-rule:nonzero;stroke:none" />
  </g>
  <g
     id="layer4"
     style="display:inline">
    <g
       transform="translate(0,20)"
       id="g3880">
      <path
         d="m 90,80 0,4 c 0,3.324 -2.676,6 -6,6 l -12,0 0,-4 12,0 c 3.324,0 6,-2.676 6,-6 z"
         inkscape:connector-curvature="0"
         id="path3876"
         style="fill:url(#linearGradient3884);fill-opacity:1;fill-rule:nonzero;stroke:none" />
      <path
         d="m 6,80 0,4 c 0,3.324 2.676,6 6,6 l 12,0 0,-4 -12,0 C 8.676,86 6,83.324 6,80 z"
         inkscape:connector-curvature="0"
         id="path3857"
         style="fill:url(#linearGradient3886);fill-opacity:1;fill-rule:nonzero;stroke:none" />
    </g>
    <path
       d="m 6,82 0,2 c 0,3.324 2.676,6 6,6 l 72,0 c 3.324,0 6,-2.676 6,-6 l 0,-2 c 0,3.324 -2.676,6 -6,6 L 12,88 C 8.676,88 6,85.324 6,82 z"
       inkscape:connector-curvature="0"
       id="rect4345"
       style="opacity:0.1;color:#000000;fill:#000000;fill-opacity:1;fill-rule:nonzero;stroke:none;stroke-width:1.5;marker:none;visibility:visible;display:inline;overflow:visible;enable-background:accumulate" />
    <path
       d="m 6,83 0,1 c 0,3.324 2.676,6 6,6 l 72,0 c 3.324,0 6,-2.676 6,-6 l 0,-1 c 0,3.324 -2.676,6 -6,6 L 12,89 C 8.676,89 6,86.324 6,83 z"
       inkscape:connector-curvature="0"
       id="rect4336"
       style="opacity:0.15;color:#000000;fill:#000000;fill-opacity:1;fill-rule:nonzero;stroke:none;stroke-width:1.5;marker:none;visibility:visible;display:inline;overflow:visible;enable-background:accumulate" />
    <path
       d="m 6,120 0,4 c 0,3.324 2.676,6 6,6 l 72,0 c 3.324,0 6,-2.676 6,-6 l 0,-4 c 0,3.324 -2.676,6 -6,6 l -72,0 c -3.324,0 -6,-2.676 -6,-6 z"
       inkscape:connector-curvature="0"
       id="path3853"
       style="fill:url(#linearGradient3855);fill-opacity:1;fill-rule:nonzero;stroke:none" />
    <path
       d="m -114,80 0,4 c 0,3.324 2.676,6 6,6 l 72,0 c 3.324,0 6,-2.676 6,-6 l 0,-4 c 0,3.324 -2.676,6 -6,6 l -72,0 c -3.324,0 -6,-2.676 -6,-6 z"
       inkscape:connector-curvature="0"
       id="path3888"
       style="fill:url(#linearGradient3890);fill-opacity:1;fill-rule:nonzero;stroke:none" />
    <path
       d="m 6,80 0,4 c 0,3.324 2.676,6 6,6 l 72,0 c 3.324,0 6,-2.676 6,-6 l 0,-4 c 0,3.324 -2.676,6 -6,6 L 12,86 C 8.676,86 6,83.324 6,80 z"
       inkscape:connector-curvature="0"
       id="path3888-3"
       style="fill:url(#linearGradient3515);fill-opacity:1;fill-rule:nonzero;stroke:none;display:inline" />
  </g>
  <g
     id="layer5"
     style="display:none">
    <rect
       width="66"
       height="62"
       rx="12"
       ry="12"
       x="15"
       y="15"
       clip-path="url(#clipPath4355)"
       id="rect3171"
       style="opacity:0.1;fill:url(#linearGradient3613);fill-opacity:1;fill-rule:nonzero;stroke:#ffffff;stroke-width:0.5;stroke-linecap:round;stroke-linejoin:miter;stroke-miterlimit:4;stroke-opacity:1;stroke-dasharray:none;stroke-dashoffset:0;filter:url(#filter3794)" />
  </g>
  <g
     id="layer6" />
</svg>
