<?xml version="1.0" encoding="UTF-8" standalone="no"?>
<!-- Created with Inkscape (http://www.inkscape.org/) -->

<svg
   xmlns:dc="http://purl.org/dc/elements/1.1/"
   xmlns:cc="http://creativecommons.org/ns#"
   xmlns:rdf="http://www.w3.org/1999/02/22-rdf-syntax-ns#"
   xmlns:svg="http://www.w3.org/2000/svg"
   xmlns="http://www.w3.org/2000/svg"
   xmlns:xlink="http://www.w3.org/1999/xlink"
   xmlns:inkscape="http://www.inkscape.org/namespaces/inkscape"
   version="1.0"
   width="96"
   height="96"
   id="svg2408">
  <defs
     id="defs2410">
    <linearGradient
       id="linearGradient4321">
      <stop
         id="stop4323"
         style="stop-color:#ff3c00;stop-opacity:1"
         offset="0" />
      <stop
         id="stop4325"
         style="stop-color:#ff0000;stop-opacity:0"
         offset="1" />
    </linearGradient>
    <linearGradient
       id="linearGradient4103">
      <stop
         id="stop4105"
         style="stop-color:#6790cd;stop-opacity:1"
         offset="0" />
      <stop
         id="stop4107"
         style="stop-color:#5583c8;stop-opacity:1"
         offset="0.25" />
      <stop
         id="stop4109"
         style="stop-color:#3c6eb8;stop-opacity:1"
         offset="0.5" />
      <stop
         id="stop4111"
         style="stop-color:#1b3152;stop-opacity:1"
         offset="1" />
    </linearGradient>
    <linearGradient
       id="linearGradient3916">
      <stop
         id="stop3918"
         style="stop-color:#000000;stop-opacity:1"
         offset="0" />
      <stop
         id="stop3920"
         style="stop-color:#000000;stop-opacity:0"
         offset="1" />
    </linearGradient>
    <linearGradient
       id="linearGradient4384">
      <stop
         id="stop4386"
         style="stop-color:#ffffff;stop-opacity:1"
         offset="0" />
      <stop
         id="stop4388"
         style="stop-color:#ffffff;stop-opacity:0"
         offset="1" />
    </linearGradient>
    <linearGradient
       id="linearGradient4367">
      <stop
         id="stop4369"
         style="stop-color:#ffffff;stop-opacity:0.71755725"
         offset="0" />
      <stop
         id="stop4371"
         style="stop-color:#ffffff;stop-opacity:1"
         offset="1" />
    </linearGradient>
    <linearGradient
       x1="45.447727"
       y1="92.539597"
       x2="45.447727"
       y2="7.0165396"
       id="ButtonShadow"
       gradientUnits="userSpaceOnUse"
       gradientTransform="scale(1.0058652,0.994169)">
      <stop
         id="stop3750"
         style="stop-color:#000000;stop-opacity:1"
         offset="0" />
      <stop
         id="stop3752"
         style="stop-color:#000000;stop-opacity:0.58823532"
         offset="1" />
    </linearGradient>
    <linearGradient
       id="linearGradient3737">
      <stop
         id="stop3739"
         style="stop-color:#ffffff;stop-opacity:1"
         offset="0" />
      <stop
         id="stop3741"
         style="stop-color:#ffffff;stop-opacity:0"
         offset="1" />
    </linearGradient>
    <linearGradient
       id="linearGradient3700">
      <stop
         id="stop3702"
         style="stop-color:#2276c5;stop-opacity:1"
         offset="0" />
      <stop
         id="stop3704"
         style="stop-color:#68baf4;stop-opacity:1"
         offset="1" />
    </linearGradient>
    <filter
       color-interpolation-filters="sRGB"
       id="filter3174">
      <feGaussianBlur
         id="feGaussianBlur3176"
         stdDeviation="1.71" />
    </filter>
    <filter
       x="-0.192"
       y="-0.192"
       width="1.3839999"
       height="1.3839999"
       color-interpolation-filters="sRGB"
       id="filter3794">
      <feGaussianBlur
         id="feGaussianBlur3796"
         stdDeviation="5.28" />
    </filter>
    <linearGradient
       x1="48"
       y1="20.220806"
       x2="48"
       y2="138.66119"
       id="linearGradient3613"
       xlink:href="#linearGradient3737"
       gradientUnits="userSpaceOnUse" />
    <linearGradient
       x1="48"
       y1="90"
       x2="48"
       y2="5.9877172"
       id="linearGradient3617"
       xlink:href="#linearGradient3700"
       gradientUnits="userSpaceOnUse"
       gradientTransform="translate(-130,0)" />
    <linearGradient
       x1="45.447727"
       y1="92.539597"
       x2="45.447727"
       y2="7.0165396"
       id="ButtonShadow-0"
       gradientUnits="userSpaceOnUse"
       gradientTransform="matrix(1.0058652,0,0,0.994169,100,0)">
      <stop
         id="stop3750-8"
         style="stop-color:#000000;stop-opacity:1"
         offset="0" />
      <stop
         id="stop3752-5"
         style="stop-color:#000000;stop-opacity:0.58823532"
         offset="1" />
    </linearGradient>
    <linearGradient
       x1="32.251034"
       y1="6.1317081"
       x2="32.251034"
       y2="90.238609"
       id="linearGradient3780"
       xlink:href="#ButtonShadow-0"
       gradientUnits="userSpaceOnUse"
       gradientTransform="matrix(1.0238095,0,0,1.0119048,-1.1428571,-98.071429)" />
    <linearGradient
       x1="32.251034"
       y1="6.1317081"
       x2="32.251034"
       y2="90.238609"
       id="linearGradient3772"
       xlink:href="#ButtonShadow-0"
       gradientUnits="userSpaceOnUse"
       gradientTransform="matrix(1.0238095,0,0,1.0119048,-1.1428571,-98.071429)" />
    <linearGradient
       x1="32.251034"
       y1="6.1317081"
       x2="32.251034"
       y2="90.238609"
       id="linearGradient3725"
       xlink:href="#ButtonShadow-0"
       gradientUnits="userSpaceOnUse"
       gradientTransform="matrix(1.0238095,0,0,1.0119048,-1.1428571,-98.071429)" />
    <linearGradient
       x1="32.251034"
       y1="6.1317081"
       x2="32.251034"
       y2="90.238609"
       id="linearGradient3721"
       xlink:href="#ButtonShadow-0"
       gradientUnits="userSpaceOnUse"
       gradientTransform="translate(0,-97)" />
    <linearGradient
       x1="32.251034"
       y1="6.1317081"
       x2="32.251034"
       y2="90.238609"
       id="linearGradient3026"
       xlink:href="#ButtonShadow-0"
       gradientUnits="userSpaceOnUse"
       gradientTransform="matrix(1.0238095,0,0,1.0119048,-1.1428571,-98.071429)" />
    <clipPath
       id="clipPath4355">
      <rect
         width="84"
         height="80"
         rx="6"
         ry="6"
         x="6"
         y="6"
         id="rect4357"
         style="fill:#ffffff;fill-opacity:1;fill-rule:nonzero;stroke:none" />
    </clipPath>
    <radialGradient
       cx="48"
       cy="87.792389"
       r="42"
       fx="48"
       fy="87.792389"
       id="radialGradient4375"
       xlink:href="#linearGradient4367"
       gradientUnits="userSpaceOnUse"
       gradientTransform="matrix(1,-6.7114942e-8,8.4282233e-8,1.2557894,109.99999,-24.505592)" />
    <linearGradient
       x1="48"
       y1="88"
       x2="48"
       y2="-40"
       id="linearGradient4390"
       xlink:href="#linearGradient4384"
       gradientUnits="userSpaceOnUse"
       gradientTransform="matrix(1,0,0,-1,0,92)" />
    <linearGradient
       x1="48"
       y1="82"
       x2="112.12357"
       y2="82.454597"
       id="linearGradient4429"
       xlink:href="#linearGradient4384"
       gradientUnits="userSpaceOnUse"
       spreadMethod="reflect" />
    <linearGradient
       id="linearGradient3892">
      <stop
         id="stop3894"
         style="stop-color:#000000;stop-opacity:0.58823532"
         offset="0" />
      <stop
         id="stop3896"
         style="stop-color:#000000;stop-opacity:0.47058824"
         offset="0.11780351" />
      <stop
         id="stop3898"
         style="stop-color:#000000;stop-opacity:0.39215687"
         offset="0.23809524" />
      <stop
         id="stop3900"
         style="stop-color:#000000;stop-opacity:0.3137255"
         offset="1" />
    </linearGradient>
    <linearGradient
       x1="90"
       y1="88"
       x2="48"
       y2="88"
       id="linearGradient3228"
       xlink:href="#linearGradient3892"
       gradientUnits="userSpaceOnUse"
       spreadMethod="reflect" />
    <linearGradient
       id="linearGradient3700-9">
      <stop
         id="stop3702-1"
         style="stop-color:#dcdcdc;stop-opacity:1"
         offset="0" />
      <stop
         id="stop3704-4"
         style="stop-color:#f0f0f0;stop-opacity:1"
         offset="1" />
    </linearGradient>
    <linearGradient
       x1="36.357143"
       y1="6"
       x2="36.357143"
       y2="63.893143"
       id="linearGradient3188-9"
       xlink:href="#linearGradient3737-10"
       gradientUnits="userSpaceOnUse" />
    <linearGradient
       id="linearGradient3737-10">
      <stop
         id="stop3739-75"
         style="stop-color:#ffffff;stop-opacity:1"
         offset="0" />
      <stop
         id="stop3741-8"
         style="stop-color:#ffffff;stop-opacity:0"
         offset="1" />
    </linearGradient>
    <radialGradient
       cx="48"
       cy="90.171875"
       r="42"
       fx="48"
       fy="90.171875"
       id="radialGradient2874"
       xlink:href="#linearGradient3737-1"
       gradientUnits="userSpaceOnUse"
       gradientTransform="matrix(1.1573129,0,0,0.99590774,-7.551021,0.1971319)" />
    <linearGradient
       id="linearGradient3737-1">
      <stop
         id="stop3739-7"
         style="stop-color:#ffffff;stop-opacity:1"
         offset="0" />
      <stop
         id="stop3741-2"
         style="stop-color:#ffffff;stop-opacity:0"
         offset="1" />
    </linearGradient>
    <linearGradient
       x1="48"
       y1="90"
       x2="48"
       y2="5.9877172"
       id="linearGradient3117"
       xlink:href="#linearGradient3700-9"
       gradientUnits="userSpaceOnUse" />
    <radialGradient
       cx="48"
       cy="-15.894132"
       r="35.9375"
       fx="48"
       fy="-15.894132"
       id="radialGradient3137"
       xlink:href="#linearGradient4103"
       gradientUnits="userSpaceOnUse"
       gradientTransform="matrix(0.00157491,1.6721142,-1.8823154,-1.7387686e-8,18.007986,-68.429479)" />
    <linearGradient
       x1="35"
       y1="14"
       x2="35"
       y2="120"
       id="linearGradient3922"
       xlink:href="#linearGradient3916"
       gradientUnits="userSpaceOnUse" />
    <linearGradient
       x1="38"
       y1="15"
       x2="38"
       y2="112"
       id="linearGradient3930"
       xlink:href="#linearGradient3916"
       gradientUnits="userSpaceOnUse" />
    <radialGradient
       cx="79"
       cy="72"
       r="3"
       fx="79"
       fy="72"
       id="radialGradient4327"
       xlink:href="#linearGradient4321"
       gradientUnits="userSpaceOnUse"
       gradientTransform="matrix(1,0,0,0.33333333,0,48)" />
    <linearGradient
       x1="65.15625"
       y1="16.125"
       x2="65.15625"
       y2="69.687508"
       id="linearGradient3167-3"
       xlink:href="#linearGradient3737-6-7"
       gradientUnits="userSpaceOnUse" />
    <linearGradient
       id="linearGradient3737-6-7">
      <stop
         id="stop3739-1-3"
         style="stop-color:#ffffff;stop-opacity:1"
         offset="0" />
      <stop
         id="stop3741-0-8"
         style="stop-color:#ffffff;stop-opacity:0"
         offset="1" />
    </linearGradient>
    <linearGradient
       id="linearGradient3687-6">
      <stop
         id="stop3689-0"
         style="stop-color:#ffffff;stop-opacity:1"
         offset="0" />
      <stop
         id="stop3691-9"
         style="stop-color:#ffffff;stop-opacity:0"
         offset="1" />
    </linearGradient>
    <linearGradient
       x1="68.517296"
       y1="9.0625"
       x2="68.517296"
       y2="87.868492"
       id="linearGradient4151-7"
       xlink:href="#linearGradient3737-6-7"
       gradientUnits="userSpaceOnUse" />
    <linearGradient
       x1="142.47113"
       y1="16.125"
       x2="142.47113"
       y2="64.188072"
       id="linearGradient3136"
       xlink:href="#linearGradient3687-6"
       gradientUnits="userSpaceOnUse"
       gradientTransform="translate(-80,0)" />
  </defs>
  <metadata
     id="metadata2413">
    <rdf:RDF>
      <cc:Work
         rdf:about="">
        <dc:format>image/svg+xml</dc:format>
        <dc:type
           rdf:resource="http://purl.org/dc/dcmitype/StillImage" />
        <dc:title />
      </cc:Work>
    </rdf:RDF>
  </metadata>
  <g
     id="layer2"
     style="display:none">
    <rect
       width="86"
       height="85"
       rx="6"
       ry="6"
       x="5"
       y="7"
       id="rect3745"
       style="opacity:0.9;fill:url(#ButtonShadow);fill-opacity:1;fill-rule:nonzero;stroke:none;filter:url(#filter3174)" />
  </g>
  <g
     id="layer3"
     style="display:inline">
    <path
       d="m 12,-95.03125 c -5.5110903,0 -10.03125,4.52016 -10.03125,10.03125 l 0,71 c 0,5.5110902 4.5201598,10.03125 10.03125,10.03125 l 72,0 c 5.51109,0 10.03125,-4.5201597 10.03125,-10.03125 l 0,-71 c 0,-5.51109 -4.52016,-10.03125 -10.03125,-10.03125 l -72,0 z"
       transform="scale(1,-1)"
       id="path3786"
       style="opacity:0.07999998;fill:url(#linearGradient3026);fill-opacity:1;fill-rule:nonzero;stroke:none;display:inline" />
    <path
       d="m 12,-94.03125 c -4.971633,0 -9.03125,4.059617 -9.03125,9.03125 l 0,71 c 0,4.9716329 4.0596171,9.03125 9.03125,9.03125 l 72,0 c 4.971633,0 9.03125,-4.059617 9.03125,-9.03125 l 0,-71 c 0,-4.971633 -4.059617,-9.03125 -9.03125,-9.03125 l -72,0 z"
       transform="scale(1,-1)"
       id="path3778"
       style="opacity:0.1;fill:url(#linearGradient3780);fill-opacity:1;fill-rule:nonzero;stroke:none;display:inline" />
    <path
       d="m 12,-93 c -4.4091333,0 -8,3.590867 -8,8 l 0,71 c 0,4.4091333 3.5908667,8 8,8 l 72,0 c 4.409133,0 8,-3.5908667 8,-8 l 0,-71 c 0,-4.409133 -3.590867,-8 -8,-8 l -72,0 z"
       transform="scale(1,-1)"
       id="path3770"
       style="opacity:0.2;fill:url(#linearGradient3772);fill-opacity:1;fill-rule:nonzero;stroke:none;display:inline" />
    <rect
       width="86"
       height="85"
       rx="7"
       ry="7"
       x="5"
       y="-92"
       transform="scale(1,-1)"
       id="rect3723"
       style="opacity:0.3;fill:url(#linearGradient3725);fill-opacity:1;fill-rule:nonzero;stroke:none;display:inline" />
    <rect
       width="84"
       height="84"
       rx="6"
       ry="6"
       x="6"
       y="-91"
       transform="scale(1,-1)"
       id="rect3716"
       style="opacity:0.45;fill:url(#linearGradient3721);fill-opacity:1;fill-rule:nonzero;stroke:none;display:inline" />
  </g>
  <g
     id="layer1">
    <path
       d="M 12,6 C 8.676,6 6,8.676 6,12 l 0,72 c 0,3.324 2.676,6 6,6 l 72,0 c 3.324,0 6,-2.676 6,-6 L 90,12 C 90,8.676 87.324,6 84,6 z"
       inkscape:connector-curvature="0"
       id="rect2419-7"
       style="fill:url(#linearGradient3117);fill-opacity:1;fill-rule:nonzero;stroke:none;display:inline" />
    <path
       d="M 12,6 C 8.676,6 6,8.676 6,12 l 0,2 0,68 0,2 c 0,0.334721 0.04135,0.6507 0.09375,0.96875 0.0487,0.295596 0.09704,0.596915 0.1875,0.875 0.00988,0.03038 0.020892,0.0636 0.03125,0.09375 0.098865,0.287771 0.2348802,0.547452 0.375,0.8125 0.1445918,0.273507 0.3156161,0.535615 0.5,0.78125 0.1843839,0.245635 0.3737765,0.473472 0.59375,0.6875 0.439947,0.428056 0.94291,0.814526 1.5,1.09375 0.278545,0.139612 0.5734731,0.246947 0.875,0.34375 -0.2562018,-0.100222 -0.4867109,-0.236272 -0.71875,-0.375 -0.00741,-0.0044 -0.023866,0.0045 -0.03125,0 -0.031933,-0.0193 -0.062293,-0.04251 -0.09375,-0.0625 -0.120395,-0.0767 -0.2310226,-0.163513 -0.34375,-0.25 -0.1061728,-0.0808 -0.2132809,-0.161112 -0.3125,-0.25 C 8.4783201,88.557317 8.3087904,88.373362 8.15625,88.1875 8.0486711,88.057245 7.9378561,87.922215 7.84375,87.78125 7.818661,87.74287 7.805304,87.69538 7.78125,87.65625 7.716487,87.553218 7.6510225,87.451733 7.59375,87.34375 7.4927417,87.149044 7.3880752,86.928049 7.3125,86.71875 7.30454,86.69694 7.288911,86.6782 7.28125,86.65625 7.2494249,86.5643 7.2454455,86.469419 7.21875,86.375 7.1884177,86.268382 7.1483606,86.171969 7.125,86.0625 7.0521214,85.720988 7,85.364295 7,85 L 7,83 7,15 7,13 C 7,10.218152 9.2181517,8 12,8 l 2,0 68,0 2,0 c 2.781848,0 5,2.218152 5,5 l 0,2 0,68 0,2 c 0,0.364295 -0.05212,0.720988 -0.125,1.0625 -0.04415,0.206893 -0.08838,0.397658 -0.15625,0.59375 -0.0077,0.02195 -0.0233,0.04069 -0.03125,0.0625 -0.06274,0.173739 -0.138383,0.367449 -0.21875,0.53125 -0.04158,0.0828 -0.07904,0.169954 -0.125,0.25 -0.0546,0.09721 -0.126774,0.18835 -0.1875,0.28125 -0.09411,0.140965 -0.204921,0.275995 -0.3125,0.40625 -0.143174,0.17445 -0.303141,0.346998 -0.46875,0.5 -0.01117,0.0102 -0.01998,0.02115 -0.03125,0.03125 -0.138386,0.125556 -0.285091,0.234436 -0.4375,0.34375 -0.102571,0.07315 -0.204318,0.153364 -0.3125,0.21875 -0.0074,0.0045 -0.02384,-0.0044 -0.03125,0 -0.232039,0.138728 -0.462548,0.274778 -0.71875,0.375 0.301527,-0.0968 0.596455,-0.204138 0.875,-0.34375 0.55709,-0.279224 1.060053,-0.665694 1.5,-1.09375 0.219973,-0.214028 0.409366,-0.441865 0.59375,-0.6875 0.184384,-0.245635 0.355408,-0.507743 0.5,-0.78125 0.14012,-0.265048 0.276135,-0.524729 0.375,-0.8125 0.01041,-0.03078 0.02133,-0.06274 0.03125,-0.09375 0.09046,-0.278085 0.1388,-0.579404 0.1875,-0.875 C 89.95865,84.6507 90,84.334721 90,84 l 0,-2 0,-68 0,-2 C 90,8.676 87.324,6 84,6 L 12,6 z"
       inkscape:connector-curvature="0"
       id="rect3728"
       style="fill:url(#linearGradient3188-9);fill-opacity:1;fill-rule:nonzero;stroke:none;display:inline" />
    <path
       d="M 11.3125,8 C 9.42859,8 8,9.4293755 8,11.3125 l 0,59.375 C 8,72.570624 9.42859,74 11.3125,74 l 73.375,0 C 86.57141,74 88,72.570624 88,70.6875 l 0,-59.375 C 88,9.4293754 86.57141,8 84.6875,8 z"
       inkscape:connector-curvature="0"
       id="path3174"
       style="fill:#000000;fill-opacity:1;fill-rule:nonzero;stroke:none;display:inline" />
    <path
       d="m 33,70 c -1.662,0 -3,1.338 -3,3 l -3,0 0,1 c 1.656,0 3,1.344 3,3 l 0,2 c 0,1.662 1.338,3 3,3 l 30,0 c 1.662,0 3,-1.338 3,-3 l 0,-2 c 0,-1.656 1.344,-3 3,-3 l 0,-1 -3,0 c 0,-1.662 -1.338,-3 -3,-3 l -30,0 z"
       inkscape:connector-curvature="0"
       id="rect3535"
       style="fill:#000000;fill-opacity:1;fill-rule:nonzero;stroke:none;display:inline" />
    <path
       d="m 14,68 68,0 0,1 -68,0 0,-1 z"
       inkscape:connector-curvature="0"
       id="rect3483"
       style="opacity:0.1;fill:#ffffff;fill-opacity:1;fill-rule:nonzero;stroke:none;display:inline" />
    <path
       d="M 12,90 C 8.676,90 6,87.324 6,84 L 6,82 6,14 6,12 c 0,-0.334721 0.04135,-0.6507 0.09375,-0.96875 0.0487,-0.295596 0.09704,-0.596915 0.1875,-0.875 C 6.29113,10.12587 6.302142,10.09265 6.3125,10.0625 6.411365,9.774729 6.5473802,9.515048 6.6875,9.25 6.8320918,8.976493 7.0031161,8.714385 7.1875,8.46875 7.3718839,8.223115 7.5612765,7.995278 7.78125,7.78125 8.221197,7.353194 8.72416,6.966724 9.28125,6.6875 9.559795,6.547888 9.8547231,6.440553 10.15625,6.34375 9.9000482,6.443972 9.6695391,6.580022 9.4375,6.71875 c -0.00741,0.0044 -0.023866,-0.0045 -0.03125,0 -0.031933,0.0193 -0.062293,0.04251 -0.09375,0.0625 -0.120395,0.0767 -0.2310226,0.163513 -0.34375,0.25 -0.1061728,0.0808 -0.2132809,0.161112 -0.3125,0.25 C 8.4783201,7.442683 8.3087904,7.626638 8.15625,7.8125 8.0486711,7.942755 7.9378561,8.077785 7.84375,8.21875 7.818661,8.25713 7.805304,8.30462 7.78125,8.34375 7.716487,8.446782 7.6510225,8.548267 7.59375,8.65625 7.4927417,8.850956 7.3880752,9.071951 7.3125,9.28125 7.30454,9.30306 7.288911,9.3218 7.28125,9.34375 7.2494249,9.4357 7.2454455,9.530581 7.21875,9.625 7.1884177,9.731618 7.1483606,9.828031 7.125,9.9375 7.0521214,10.279012 7,10.635705 7,11 l 0,2 0,68 0,2 c 0,2.781848 2.2181517,5 5,5 l 2,0 68,0 2,0 c 2.781848,0 5,-2.218152 5,-5 l 0,-2 0,-68 0,-2 C 89,10.635705 88.94788,10.279012 88.875,9.9375 88.83085,9.730607 88.78662,9.539842 88.71875,9.34375 88.71105,9.3218 88.69545,9.30306 88.6875,9.28125 88.62476,9.107511 88.549117,8.913801 88.46875,8.75 88.42717,8.6672 88.38971,8.580046 88.34375,8.5 88.28915,8.40279 88.216976,8.31165 88.15625,8.21875 88.06214,8.077785 87.951329,7.942755 87.84375,7.8125 87.700576,7.63805 87.540609,7.465502 87.375,7.3125 87.36383,7.3023 87.35502,7.29135 87.34375,7.28125 87.205364,7.155694 87.058659,7.046814 86.90625,6.9375 86.803679,6.86435 86.701932,6.784136 86.59375,6.71875 c -0.0074,-0.0045 -0.02384,0.0044 -0.03125,0 -0.232039,-0.138728 -0.462548,-0.274778 -0.71875,-0.375 0.301527,0.0968 0.596455,0.204138 0.875,0.34375 0.55709,0.279224 1.060053,0.665694 1.5,1.09375 0.219973,0.214028 0.409366,0.441865 0.59375,0.6875 0.184384,0.245635 0.355408,0.507743 0.5,0.78125 0.14012,0.265048 0.276135,0.524729 0.375,0.8125 0.01041,0.03078 0.02133,0.06274 0.03125,0.09375 0.09046,0.278085 0.1388,0.579404 0.1875,0.875 C 89.95865,11.3493 90,11.665279 90,12 l 0,2 0,68 0,2 c 0,3.324 -2.676,6 -6,6 l -72,0 z"
       inkscape:connector-curvature="0"
       id="path3615"
       style="opacity:0.6;fill:url(#radialGradient2874);fill-opacity:1;fill-rule:nonzero;stroke:none;display:inline" />
    <rect
       width="84"
       height="84"
       rx="6"
       ry="6"
       x="-124"
       y="6"
       id="rect2419"
       style="fill:url(#linearGradient3617);fill-opacity:1;fill-rule:nonzero;stroke:none" />
    <path
       d="M 120.78125,6.125 C 118.04223,6.6826484 116,9.0915 116,12 l 0,68 c 0,3.324 2.676,6 6,6 l 72,0 c 3.324,0 6,-2.676 6,-6 l 0,-68 c 0,-2.9085 -2.04223,-5.3173516 -4.78125,-5.875 2.20512,0.5362071 3.8125,2.4908437 3.8125,4.875 l 0,68 c 0,2.80489 -2.22636,5.03125 -5.03125,5.03125 l -72,0 c -2.80489,0 -5.03125,-2.22636 -5.03125,-5.03125 l 0,-68 c 0,-2.3841563 1.60738,-4.3387929 3.8125,-4.875 z"
       inkscape:connector-curvature="0"
       id="rect4359"
       style="opacity:0.2;fill:url(#radialGradient4375);fill-opacity:1;fill-rule:nonzero;stroke:none" />
    <path
       d="M 12,86 C 8.676,86 6,83.324 6,80 L 6,12 C 6,8.676 8.676,6 12,6 l 72,0 c 3.324,0 6,2.676 6,6 l 0,68 c 0,3.324 -2.676,6 -6,6 z m 0,-0.96875 72,0 c 2.80489,0 5.03125,-2.22636 5.03125,-5.03125 l 0,-68 C 89.03125,9.19511 86.80489,6.96875 84,6.96875 l -72,0 C 9.1951102,6.96875 6.96875,9.19511 6.96875,12 l 0,68 c 0,2.80489 2.2263602,5.03125 5.03125,5.03125 z"
       inkscape:connector-curvature="0"
       id="rect4377"
       style="opacity:0.8;fill:url(#linearGradient4390);fill-opacity:1;fill-rule:nonzero;stroke:none" />
    <path
       d="m 6,100 0,1 c 0,3.324 2.676,6 6,6 l 72,0 c 3.324,0 6,-2.676 6,-6 l 0,-1 c 0,3.324 -2.676,6 -6,6 l -72,0 c -3.324,0 -6,-2.676 -6,-6 z"
       inkscape:connector-curvature="0"
       id="path4412"
       style="opacity:0.15;fill:#000000;fill-opacity:1;fill-rule:nonzero;stroke:none" />
    <path
       d="m 12.0625,12.0625 0,53.875 71.875,0 0,-53.875 -71.875,0 z"
       transform="matrix(-0.94608695,0,0,-1.0023201,93.412174,80.090487)"
       id="path3215"
       style="fill:url(#radialGradient3137);fill-opacity:1;fill-rule:nonzero;stroke:none;display:inline" />
    <path
       d="m 14,14 0,54 68,0 0,-54 -68,0 z m 1.875,1.96875 64.25,0 0,50.0625 -64.25,0 0,-50.0625 z"
       inkscape:connector-curvature="0"
       id="path3906"
       style="opacity:0.15;fill:url(#linearGradient3930);fill-opacity:1;fill-rule:nonzero;stroke:none;display:inline" />
    <path
       d="m 14,14 0,54 68,0 0,-54 -68,0 z m 0.9375,1 66.125,0 0,52 -66.125,0 0,-52 z"
       inkscape:connector-curvature="0"
       id="path3902"
       style="opacity:0.4;fill:url(#linearGradient3922);fill-opacity:1;fill-rule:nonzero;stroke:none;display:inline" />
    <path
       d="m 6,78 0,2 c 0,3.324 2.676,6 6,6 l 72,0 c 3.324,0 6,-2.676 6,-6 l 0,-2 c 0,3.324 -2.676,6 -6,6 L 12,84 C 8.676,84 6,81.324 6,78 z"
       inkscape:connector-curvature="0"
       id="rect4414"
       style="opacity:0.2;fill:url(#linearGradient4429);fill-opacity:1;fill-rule:nonzero;stroke:none" />
    <g
       transform="matrix(0.33333333,0,0,0.33333333,45.333334,72.333334)"
       id="g4185"
       style="fill:#797979;fill-opacity:1;display:inline">
      <g
         transform="translate(-0.8611607,-0.9999999)"
         id="layer1-0"
         style="fill:#797979;fill-opacity:1;display:inline">
        <path
           d="M 7.5,1 C 7.223,1 7.0000001,1.223 7,1.5 l 0,5 C 7,6.777 7.2230001,7.0000001 7.5,7 l 1,0 C 8.777,7 9.0000001,6.7770001 9,6.5 l 0,-5 C 9,1.223 8.7770001,0.99999998 8.5,1 l -1,0 z M 6,2.34375 C 3.6692215,3.1673889 2,5.38835 2,8 c 0,3.312 2.6880002,6 6,6 3.312,0 6,-2.688 6,-6 C 14,5.38835 12.330779,3.1673889 10,2.34375 L 10,4.5625 C 11.193787,5.2548393 12,6.5215541 12,8 12,10.208 10.208,12 8,12 5.7920001,12 4,10.208 4,8 4,6.5215539 4.8062133,5.2548393 6,4.5625 L 6,2.34375 z"
           inkscape:connector-curvature="0"
           transform="translate(0.8611607,0.9999999)"
           id="path2401"
           style="fill:#797979;fill-opacity:1;fill-rule:nonzero;stroke:none" />
      </g>
    </g>
    <path
       d="m 82,72 a 3,1 0 1 1 -6,0 3,1 0 1 1 6,0 z"
       transform="matrix(4.3333344,0,0,2.5,-294.33342,-100.5)"
       id="path4209"
       style="color:#000000;fill:url(#radialGradient4327);fill-opacity:1;fill-rule:nonzero;stroke:none;stroke-width:2;marker:none;visibility:visible;display:inline;overflow:visible;enable-background:accumulate" />
    <rect
       width="26.000011"
       height="2"
       x="34.999985"
       y="80"
       id="rect4219"
       style="opacity:0.4;color:#000000;fill:#000000;fill-opacity:1;fill-rule:nonzero;stroke:none;stroke-width:2;marker:none;visibility:visible;display:inline;overflow:visible;enable-background:accumulate" />
    <path
       d="m 47.613639,113.93109 c -0.360386,-0.12027 -0.56995,-0.23965 -0.923833,-0.52627 -0.949854,-0.76932 -1.444268,-1.90355 -1.175143,-2.6959 0.111183,-0.32734 0.23791,-0.53476 0.467194,-0.76469 0.398115,-0.39923 1.018923,-0.6937 1.794854,-0.85137 1.204835,-0.24482 2.153652,0.0605 2.227849,0.71684 0.05387,0.47654 -0.31175,0.9103 -1.365793,1.62035 -0.748229,0.50404 -1.039682,0.77262 -1.039682,0.95807 0,0.26658 0.323412,0.53386 0.64597,0.53386 0.203531,0 0.308073,-0.10995 0.398082,-0.41867 0.119169,-0.40875 0.36272,-0.5529 0.94318,-0.55827 0.406606,-0.004 0.532885,0.0904 0.551551,0.41147 0.01093,0.18802 -0.01206,0.28287 -0.123118,0.50779 -0.182037,0.36871 -0.608732,0.79204 -0.983975,0.97624 -0.256056,0.12569 -0.335102,0.14252 -0.732014,0.1558 -0.346231,0.0116 -0.498247,-0.003 -0.685122,-0.0653 z m -2.331636,-4.49418 c -0.307067,-0.26883 -0.439179,-0.80553 -0.245759,-0.99839 0.294817,-0.29396 0.668824,-0.0774 0.787698,0.45606 0.125282,0.56225 -0.175441,0.86319 -0.541939,0.54233 z m 1.035116,-0.74914 c -0.220046,-0.23121 -0.293341,-0.41422 -0.295415,-0.73764 -0.0018,-0.27424 -0.0021,-0.34985 0.141863,-0.49339 0.285671,-0.28485 0.644511,-0.0731 0.7551,0.52343 0.05439,0.29335 -0.007,0.5591 -0.168466,0.72937 -0.149058,0.15717 -0.268485,0.15117 -0.433082,-0.0218 z m 2.957134,8e-4 c -0.142169,-0.0745 -0.297564,-0.30927 -0.334447,-0.50531 -0.07154,-0.38022 0.20158,-1.06934 0.530229,-1.33787 0.536455,-0.43831 1.328093,-0.49092 1.529965,-0.10167 0.164238,0.31668 -0.05224,0.8806 -0.532903,1.38821 -0.444957,0.46989 -0.928095,0.69535 -1.192844,0.55664 z m -1.605183,-0.30393 c -0.170018,-0.0818 -0.292715,-0.40529 -0.293776,-0.77449 -0.0015,-0.53916 0.212819,-0.82673 0.616539,-0.82709 0.246286,-2.1e-4 0.389576,0.16586 0.431456,0.50008 0.05117,0.40838 -0.206094,1.01583 -0.468907,1.10718 -0.158664,0.0551 -0.158903,0.0551 -0.285312,-0.006 z"
       inkscape:connector-curvature="0"
       id="path3456"
       style="fill:#000000;fill-opacity:1;stroke:none;display:inline" />
    <text
       x="35"
       y="76"
       id="text4252"
       xml:space="preserve"
       style="font-size:2.61658621px;font-style:normal;font-variant:normal;font-weight:normal;font-stretch:normal;text-align:start;line-height:125%;letter-spacing:0px;word-spacing:0px;writing-mode:lr-tb;text-anchor:start;fill:#797979;fill-opacity:1;stroke:none;font-family:Ubuntu;-inkscape-font-specification:Ubuntu"><tspan
         x="35"
         y="76"
         id="tspan4254">MENU</tspan></text>
    <g
       transform="matrix(0.18181818,0,0,0.18181818,57.272726,73.636364)"
       id="layer1-5"
       style="fill:#797979;fill-opacity:1">
      <path
         d="m 12.566634,11.6875 -6.3812011,3.684188 0,-7.3683763 z"
         transform="matrix(1.4103927,0,0,1.4928662,-4.7238894,-9.9478739)"
         id="Symbol"
         style="fill:#797979;fill-opacity:1;fill-rule:nonzero;stroke:none" />
    </g>
    <g
       transform="matrix(-0.18181818,0,0,0.18181818,55.727273,73.636364)"
       id="g4289"
       style="fill:#797979;fill-opacity:1">
      <path
         d="m 12.566634,11.6875 -6.3812011,3.684188 0,-7.3683763 z"
         transform="matrix(1.4103927,0,0,1.4928662,-4.7238894,-9.9478739)"
         id="path4291"
         style="fill:#797979;fill-opacity:1;fill-rule:nonzero;stroke:none" />
    </g>
  </g>
  <g
     id="layer4"
     style="display:inline">
    <path
       d="m 6,80 0,4 c 0,3.324 2.676,6 6,6 l 72,0 c 3.324,0 6,-2.676 6,-6 l 0,-4 c 0,3.324 -2.676,6 -6,6 L 12,86 C 8.676,86 6,83.324 6,80 z"
       inkscape:connector-curvature="0"
       id="path3888"
       style="fill:url(#linearGradient3228);fill-opacity:1;fill-rule:nonzero;stroke:none;display:inline" />
    <path
       d="m 6,82 0,2 c 0,3.324 2.676,6 6,6 l 72,0 c 3.324,0 6,-2.676 6,-6 l 0,-2 c 0,3.324 -2.676,6 -6,6 L 12,88 C 8.676,88 6,85.324 6,82 z"
       inkscape:connector-curvature="0"
       id="rect4345"
       style="opacity:0.1;color:#000000;fill:#000000;fill-opacity:1;fill-rule:nonzero;stroke:none;stroke-width:1.5;marker:none;visibility:visible;display:inline;overflow:visible;enable-background:accumulate" />
    <path
       d="m 6,83 0,1 c 0,3.324 2.676,6 6,6 l 72,0 c 3.324,0 6,-2.676 6,-6 l 0,-1 c 0,3.324 -2.676,6 -6,6 L 12,89 C 8.676,89 6,86.324 6,83 z"
       inkscape:connector-curvature="0"
       id="rect4336"
       style="opacity:0.15;color:#000000;fill:#000000;fill-opacity:1;fill-rule:nonzero;stroke:none;stroke-width:1.5;marker:none;visibility:visible;display:inline;overflow:visible;enable-background:accumulate" />
  </g>
  <g
     id="layer5"
     style="display:none">
    <rect
       width="66"
       height="62"
       rx="12"
       ry="12"
       x="15"
       y="15"
       clip-path="url(#clipPath4355)"
       id="rect3171"
       style="opacity:0.1;fill:url(#linearGradient3613);fill-opacity:1;fill-rule:nonzero;stroke:#ffffff;stroke-width:0.5;stroke-linecap:round;stroke-linejoin:miter;stroke-miterlimit:4;stroke-opacity:1;stroke-dasharray:none;stroke-dashoffset:0;filter:url(#filter3794)" />
  </g>
  <g
     id="layer6">
    <path
       d="m 47.65625,16.125 22.03125,59.75 9.3125,0 c 0.538805,0 0.875,-0.336196 0.875,-0.875 l 0,-58 c 0,-0.538805 -0.336194,-0.875 -0.875,-0.875 z"
       inkscape:connector-curvature="0"
       id="path3664"
       style="opacity:0.7;fill:url(#linearGradient3136);fill-opacity:1;fill-rule:evenodd;stroke:none;display:inline" />
    <path
       d="m 47.65625,16.125 22.03125,59.75 1,0 -22.03125,-59.75 z"
       inkscape:connector-curvature="0"
       id="path2669"
       style="opacity:0.5;fill:url(#linearGradient3167-3);fill-opacity:1;fill-rule:evenodd;stroke:none;display:inline" />
    <path
       d="m 45.03125,9.0625 1.375,3.875 35.59375,0 c 0.58434,0.0059 1.0566,0.478159 1.0625,1.0625 l 0,54 C 83.0566,68.584341 82.58434,69.056599 82,69.0625 l -14.25,0 1.375,3.875 15.5625,0 c 1.34102,0 2.25,-0.909693 2.25,-2.25 l 0,-59.375 c 0,-1.3403079 -0.90898,-2.25 -2.25,-2.25 z"
       inkscape:connector-curvature="0"
       id="path4128"
       style="opacity:0.3;fill:url(#linearGradient4151-7);fill-opacity:1;fill-rule:evenodd;stroke:none;display:inline" />
  </g>
  <g
     id="layer7">
    <path
       d="m 60.1875,31 a 1.394523,1.394523 0 0 0 -0.09375,0.03125 c -2.02779,0.518009 -2.886943,2.152606 -3.59375,2.75 a 1.394523,1.394523 0 0 0 -0.09375,0.0625 L 43.71875,46.5 C 41.670693,44.45354 39.651272,42.36935 37.5625,40.34375 A 1.394523,1.394523 0 0 0 37.5,40.28125 c -0.873803,-0.764206 -2.050387,-0.921751 -3,-0.6875 -0.887286,0.218876 -1.599685,0.760516 -2.15625,1.4375 L 32.3125,41 c -0.04079,0.04154 -0.08411,0.08346 -0.125,0.125 -1.574356,1.599509 -3.206019,3.188762 -4.78125,4.84375 a 1.394523,1.394523 0 0 0 -0.0625,0.0625 c -0.764446,0.873992 -0.922475,2.051308 -0.6875,3 0.219553,0.886426 0.764763,1.59978 1.4375,2.15625 l -0.03125,0.03125 c 0.04167,0.04147 0.08334,0.08351 0.125,0.125 4.421735,4.402628 8.828064,8.869243 13.28125,13.25 a 1.394523,1.394523 0 0 0 0.0625,0.0625 c 0.873992,0.764446 2.051308,0.922475 3,0.6875 0.880524,-0.218091 1.600975,-0.740278 2.15625,-1.40625 l 0.03125,0.03125 0.125,-0.15625 21.59375,-21.59375 0,-0.03125 c 0.806121,-0.80095 1.10682,-1.900813 0.96875,-2.875 -0.131047,-0.924634 -0.601138,-1.790105 -1.34375,-2.40625 -0.04124,-0.04027 -0.08381,-0.08459 -0.125,-0.125 -1.688823,-1.656692 -3.336968,-3.420635 -5.15625,-5.09375 a 1.394523,1.394523 0 0 0 -0.1875,-0.15625 C 61.917535,31.098969 61.096409,30.937612 60.3125,31 a 1.394523,1.394523 0 0 0 -0.125,0 z"
       transform="translate(2.1989032e-7,-8.0000001)"
       id="path3957"
       style="opacity:0.05;fill:#c5dcff;fill-opacity:1;stroke:none;display:inline;enable-background:new" />
    <path
       d="m 60.4375,24.375 c -1.313432,0.335523 -2.036851,1.624165 -3.02826,2.462105 -4.55308,4.543882 -9.10616,9.087763 -13.65924,13.631645 -2.388419,-2.367751 -4.752592,-4.794038 -7.15625,-7.125 -1.048508,-0.916999 -2.53756,-0.358764 -3.285906,0.632642 -1.62668,1.65659 -3.31101,3.28999 -4.901594,4.961108 -0.91772,1.049231 -0.357148,2.535939 0.631151,3.287401 4.469757,4.448902 8.915085,8.956781 13.400099,13.368849 1.049231,0.91772 2.535939,0.357148 3.287401,-0.631151 C 52.972851,47.714649 60.2208,40.4667 67.46875,33.21875 68.430994,32.279265 68.121874,30.683261 67.107213,29.919713 65.343483,28.197333 63.654387,26.383914 61.84375,24.71875 61.423208,24.449912 60.940854,24.33494 60.4375,24.375 z"
       inkscape:connector-curvature="0"
       id="path3951"
       style="opacity:0.12000002;fill:#c5dcff;fill-opacity:1;stroke:none;display:inline;enable-background:new" />
    <path
       d="m 60.625,33.5625 a 0.89829129,0.89829129 0 0 0 -0.53125,0.28125 L 43.75,50.15625 35.90625,42.3125 a 0.89829129,0.89829129 0 0 0 -1.25,0 L 29.375,47.625 a 0.89829129,0.89829129 0 0 0 0,1.25 l 13.75,13.75 a 0.89829129,0.89829129 0 0 0 1.25,0 l 22.25,-22.25 a 0.89829129,0.89829129 0 0 0 0,-1.25 L 61.34375,33.84375 A 0.89829129,0.89829129 0 0 0 60.625,33.5625 z"
       transform="translate(2.1989032e-7,-8.0000001)"
       id="path3947"
       style="opacity:0.25;fill:#c5dcff;fill-opacity:1;stroke:none;display:inline;enable-background:new" />
    <path
       d="M 35.294118,34.941176 43.764706,43.411765 60.705882,26.470588 66,31.764706 43.764706,54 30,40.235294 35.294118,34.941176 z"
       inkscape:connector-curvature="0"
       id="path3190"
       style="fill:#ffffff;stroke:none;display:inline;enable-background:new" />
  </g>
</svg>
