<?xml version="1.0" encoding="UTF-8" standalone="no"?>
<!-- Created with Inkscape (http://www.inkscape.org/) -->

<svg
   xmlns:dc="http://purl.org/dc/elements/1.1/"
   xmlns:cc="http://creativecommons.org/ns#"
   xmlns:rdf="http://www.w3.org/1999/02/22-rdf-syntax-ns#"
   xmlns:svg="http://www.w3.org/2000/svg"
   xmlns="http://www.w3.org/2000/svg"
   xmlns:xlink="http://www.w3.org/1999/xlink"
   xmlns:inkscape="http://www.inkscape.org/namespaces/inkscape"
   version="1.0"
   width="96"
   height="96"
   id="svg2408">
  <defs
     id="defs2410">
    <linearGradient
       id="linearGradient4384">
      <stop
         id="stop4386"
         style="stop-color:#ffffff;stop-opacity:1"
         offset="0" />
      <stop
         id="stop4388"
         style="stop-color:#ffffff;stop-opacity:0"
         offset="1" />
    </linearGradient>
    <linearGradient
       id="linearGradient4367">
      <stop
         id="stop4369"
         style="stop-color:#ffffff;stop-opacity:0.71755725"
         offset="0" />
      <stop
         id="stop4371"
         style="stop-color:#ffffff;stop-opacity:1"
         offset="1" />
    </linearGradient>
    <linearGradient
       x1="45.447727"
       y1="92.539597"
       x2="45.447727"
       y2="7.0165396"
       id="ButtonShadow"
       gradientUnits="userSpaceOnUse"
       gradientTransform="scale(1.0058652,0.994169)">
      <stop
         id="stop3750"
         style="stop-color:#000000;stop-opacity:1"
         offset="0" />
      <stop
         id="stop3752"
         style="stop-color:#000000;stop-opacity:0.58823532"
         offset="1" />
    </linearGradient>
    <linearGradient
       id="linearGradient3737">
      <stop
         id="stop3739"
         style="stop-color:#ffffff;stop-opacity:1"
         offset="0" />
      <stop
         id="stop3741"
         style="stop-color:#ffffff;stop-opacity:0"
         offset="1" />
    </linearGradient>
    <filter
       color-interpolation-filters="sRGB"
       id="filter3174">
      <feGaussianBlur
         id="feGaussianBlur3176"
         stdDeviation="1.71" />
    </filter>
    <filter
       x="-0.192"
       y="-0.192"
       width="1.3839999"
       height="1.3839999"
       color-interpolation-filters="sRGB"
       id="filter3794">
      <feGaussianBlur
         id="feGaussianBlur3796"
         stdDeviation="5.28" />
    </filter>
    <linearGradient
       x1="48"
       y1="20.220806"
       x2="48"
       y2="138.66119"
       id="linearGradient3613"
       xlink:href="#linearGradient3737"
       gradientUnits="userSpaceOnUse" />
    <linearGradient
       x1="45.447727"
       y1="92.539597"
       x2="45.447727"
       y2="7.0165396"
       id="ButtonShadow-0"
       gradientUnits="userSpaceOnUse"
       gradientTransform="matrix(1.0058652,0,0,0.994169,100,0)">
      <stop
         id="stop3750-8"
         style="stop-color:#000000;stop-opacity:1"
         offset="0" />
      <stop
         id="stop3752-5"
         style="stop-color:#000000;stop-opacity:0.58823532"
         offset="1" />
    </linearGradient>
    <linearGradient
       x1="32.251034"
       y1="6.1317081"
       x2="32.251034"
       y2="90.238609"
       id="linearGradient3780"
       xlink:href="#ButtonShadow-0"
       gradientUnits="userSpaceOnUse"
       gradientTransform="matrix(1.0238095,0,0,1.0119048,-1.1428571,-98.071429)" />
    <linearGradient
       x1="32.251034"
       y1="6.1317081"
       x2="32.251034"
       y2="90.238609"
       id="linearGradient3772"
       xlink:href="#ButtonShadow-0"
       gradientUnits="userSpaceOnUse"
       gradientTransform="matrix(1.0238095,0,0,1.0119048,-1.1428571,-98.071429)" />
    <linearGradient
       x1="32.251034"
       y1="6.1317081"
       x2="32.251034"
       y2="90.238609"
       id="linearGradient3725"
       xlink:href="#ButtonShadow-0"
       gradientUnits="userSpaceOnUse"
       gradientTransform="matrix(1.0238095,0,0,1.0119048,-1.1428571,-98.071429)" />
    <linearGradient
       x1="32.251034"
       y1="6.1317081"
       x2="32.251034"
       y2="90.238609"
       id="linearGradient3721"
       xlink:href="#ButtonShadow-0"
       gradientUnits="userSpaceOnUse"
       gradientTransform="translate(0,-97)" />
    <linearGradient
       x1="32.251034"
       y1="6.1317081"
       x2="32.251034"
       y2="90.238609"
       id="linearGradient3026"
       xlink:href="#ButtonShadow-0"
       gradientUnits="userSpaceOnUse"
       gradientTransform="matrix(1.0238095,0,0,1.0119048,-1.1428571,-98.071429)" />
    <clipPath
       id="clipPath4355">
      <rect
         width="84"
         height="80"
         rx="6"
         ry="6"
         x="6"
         y="6"
         id="rect4357"
         style="fill:#ffffff;fill-opacity:1;fill-rule:nonzero;stroke:none" />
    </clipPath>
    <radialGradient
       cx="48"
       cy="87.792389"
       r="42"
       fx="48"
       fy="87.792389"
       id="radialGradient4375"
       xlink:href="#linearGradient4367"
       gradientUnits="userSpaceOnUse"
       gradientTransform="matrix(1,-6.7114942e-8,8.4282233e-8,1.2557894,109.99999,-24.505592)" />
    <linearGradient
       x1="48"
       y1="88"
       x2="48"
       y2="-40"
       id="linearGradient4390"
       xlink:href="#linearGradient4384"
       gradientUnits="userSpaceOnUse"
       gradientTransform="matrix(1,0,0,-1,0,92)" />
    <linearGradient
       x1="48"
       y1="82"
       x2="112.12357"
       y2="82.454597"
       id="linearGradient4429"
       xlink:href="#linearGradient4384"
       gradientUnits="userSpaceOnUse"
       spreadMethod="reflect" />
    <linearGradient
       id="linearGradient3843">
      <stop
         id="stop3845"
         style="stop-color:#523823;stop-opacity:1"
         offset="0" />
      <stop
         id="stop3847"
         style="stop-color:#79563a;stop-opacity:1"
         offset="0.11780351" />
      <stop
         id="stop3849"
         style="stop-color:#875c38;stop-opacity:1"
         offset="0.23809524" />
      <stop
         id="stop3851"
         style="stop-color:#a66e40;stop-opacity:1"
         offset="1" />
    </linearGradient>
    <linearGradient
       x1="8"
       y1="1033.3622"
       x2="50"
       y2="1033.3622"
       id="linearGradient3870"
       xlink:href="#linearGradient3843"
       gradientUnits="userSpaceOnUse"
       gradientTransform="translate(-2,-956.3622)"
       spreadMethod="reflect" />
    <radialGradient
       cx="55.598351"
       cy="46.454388"
       r="2.6136763"
       fx="55.598351"
       fy="46.454388"
       id="radialGradient3776"
       xlink:href="#linearGradient3756"
       gradientUnits="userSpaceOnUse"
       gradientTransform="matrix(0.39510098,-0.13029391,0.5032517,1.5260517,6.382443,-28.002402)" />
    <linearGradient
       id="linearGradient3756">
      <stop
         id="stop3758"
         style="stop-color:#ffffff;stop-opacity:1"
         offset="0" />
      <stop
         id="stop3760"
         style="stop-color:#ffffff;stop-opacity:0"
         offset="1" />
    </linearGradient>
    <radialGradient
       cx="55.598351"
       cy="46.454388"
       r="2.6136763"
       fx="55.598351"
       fy="46.454388"
       id="radialGradient3762"
       xlink:href="#linearGradient3756"
       gradientUnits="userSpaceOnUse"
       gradientTransform="matrix(0.94969259,-0.31318364,1.2096513,3.6681255,-53.396602,-105.87465)" />
    <linearGradient
       x1="41.646389"
       y1="71.088478"
       x2="41.864433"
       y2="22.682728"
       id="linearGradient3750"
       xlink:href="#linearGradient3744"
       gradientUnits="userSpaceOnUse"
       gradientTransform="translate(0,-2)" />
    <linearGradient
       id="linearGradient3744">
      <stop
         id="stop3746"
         style="stop-color:#ffffff;stop-opacity:1"
         offset="0" />
      <stop
         id="stop3748"
         style="stop-color:#ffffff;stop-opacity:0"
         offset="1" />
    </linearGradient>
    <linearGradient
       x1="48.353294"
       y1="24.342234"
       x2="48.353294"
       y2="46.270821"
       id="linearGradient3789"
       xlink:href="#linearGradient3782"
       gradientUnits="userSpaceOnUse"
       gradientTransform="translate(0,-2)" />
    <linearGradient
       id="linearGradient3782">
      <stop
         id="stop3784"
         style="stop-color:#697c84;stop-opacity:1"
         offset="0" />
      <stop
         id="stop3786"
         style="stop-color:#697c84;stop-opacity:0"
         offset="1" />
    </linearGradient>
    <radialGradient
       cx="48"
       cy="58.666668"
       r="16"
       fx="48"
       fy="58.666668"
       id="radialGradient3723"
       xlink:href="#linearGradient3717"
       gradientUnits="userSpaceOnUse"
       gradientTransform="matrix(1,0,0,1.5,-1.0567803e-8,-26)" />
    <linearGradient
       id="linearGradient3717">
      <stop
         id="stop3719"
         style="stop-color:#ffffff;stop-opacity:1"
         offset="0" />
      <stop
         id="stop3721"
         style="stop-color:#93a3aa;stop-opacity:1"
         offset="1" />
    </linearGradient>
    <linearGradient
       x1="51"
       y1="73"
       x2="52"
       y2="26"
       id="linearGradient3715"
       xlink:href="#linearGradient3692"
       gradientUnits="userSpaceOnUse"
       gradientTransform="translate(0,-2)" />
    <linearGradient
       id="linearGradient3692">
      <stop
         id="stop3694"
         style="stop-color:#000000;stop-opacity:1"
         offset="0" />
      <stop
         id="stop3696"
         style="stop-color:#000000;stop-opacity:0"
         offset="1" />
    </linearGradient>
    <linearGradient
       x1="47"
       y1="74"
       x2="47"
       y2="24"
       id="linearGradient3707"
       xlink:href="#linearGradient3692"
       gradientUnits="userSpaceOnUse" />
    <linearGradient
       x1="49"
       y1="75"
       x2="49"
       y2="22.990385"
       id="linearGradient3142"
       xlink:href="#linearGradient3692"
       gradientUnits="userSpaceOnUse"
       gradientTransform="translate(0,-2)" />
    <linearGradient
       id="linearGradient3700-8">
      <stop
         id="stop3702-1"
         style="stop-color:#667981;stop-opacity:1"
         offset="0" />
      <stop
         id="stop3704-2"
         style="stop-color:#a4b2b8;stop-opacity:1"
         offset="1" />
    </linearGradient>
    <linearGradient
       x1="48"
       y1="90"
       x2="48"
       y2="5.9877172"
       id="linearGradient3159"
       xlink:href="#linearGradient3700-8"
       gradientUnits="userSpaceOnUse" />
  </defs>
  <metadata
     id="metadata2413">
    <rdf:RDF>
      <cc:Work
         rdf:about="">
        <dc:format>image/svg+xml</dc:format>
        <dc:type
           rdf:resource="http://purl.org/dc/dcmitype/StillImage" />
        <dc:title />
      </cc:Work>
    </rdf:RDF>
  </metadata>
  <g
     id="layer2"
     style="display:none">
    <rect
       width="86"
       height="85"
       rx="6"
       ry="6"
       x="5"
       y="7"
       id="rect3745"
       style="opacity:0.9;fill:url(#ButtonShadow);fill-opacity:1;fill-rule:nonzero;stroke:none;filter:url(#filter3174)" />
  </g>
  <g
     id="layer3"
     style="display:inline">
    <path
       d="m 12,-95.03125 c -5.5110903,0 -10.03125,4.52016 -10.03125,10.03125 l 0,71 c 0,5.5110902 4.5201598,10.03125 10.03125,10.03125 l 72,0 c 5.51109,0 10.03125,-4.5201597 10.03125,-10.03125 l 0,-71 c 0,-5.51109 -4.52016,-10.03125 -10.03125,-10.03125 l -72,0 z"
       transform="scale(1,-1)"
       id="path3786"
       style="opacity:0.07999998;fill:url(#linearGradient3026);fill-opacity:1;fill-rule:nonzero;stroke:none;display:inline" />
    <path
       d="m 12,-94.03125 c -4.971633,0 -9.03125,4.059617 -9.03125,9.03125 l 0,71 c 0,4.9716329 4.0596171,9.03125 9.03125,9.03125 l 72,0 c 4.971633,0 9.03125,-4.059617 9.03125,-9.03125 l 0,-71 c 0,-4.971633 -4.059617,-9.03125 -9.03125,-9.03125 l -72,0 z"
       transform="scale(1,-1)"
       id="path3778"
       style="opacity:0.1;fill:url(#linearGradient3780);fill-opacity:1;fill-rule:nonzero;stroke:none;display:inline" />
    <path
       d="m 12,-93 c -4.4091333,0 -8,3.590867 -8,8 l 0,71 c 0,4.4091333 3.5908667,8 8,8 l 72,0 c 4.409133,0 8,-3.5908667 8,-8 l 0,-71 c 0,-4.409133 -3.590867,-8 -8,-8 l -72,0 z"
       transform="scale(1,-1)"
       id="path3770"
       style="opacity:0.2;fill:url(#linearGradient3772);fill-opacity:1;fill-rule:nonzero;stroke:none;display:inline" />
    <rect
       width="86"
       height="85"
       rx="7"
       ry="7"
       x="5"
       y="-92"
       transform="scale(1,-1)"
       id="rect3723"
       style="opacity:0.3;fill:url(#linearGradient3725);fill-opacity:1;fill-rule:nonzero;stroke:none;display:inline" />
    <rect
       width="84"
       height="84"
       rx="6"
       ry="6"
       x="6"
       y="-91"
       transform="scale(1,-1)"
       id="rect3716"
       style="opacity:0.45;fill:url(#linearGradient3721);fill-opacity:1;fill-rule:nonzero;stroke:none;display:inline" />
  </g>
  <g
     id="layer4">
    <rect
       width="84"
       height="26.000017"
       rx="6"
       ry="6"
       x="6"
       y="64"
       id="rect2841"
       style="color:#000000;fill:url(#linearGradient3870);fill-opacity:1;fill-rule:nonzero;stroke:none;stroke-width:1.5;marker:none;visibility:visible;display:inline;overflow:visible;enable-background:accumulate" />
    <path
       d="m 6,82 0,2 c 0,3.324 2.676,6 6,6 l 72,0 c 3.324,0 6,-2.676 6,-6 l 0,-2 c 0,3.324 -2.676,6 -6,6 L 12,88 C 8.676,88 6,85.324 6,82 z"
       inkscape:connector-curvature="0"
       id="rect4345"
       style="opacity:0.1;color:#000000;fill:#000000;fill-opacity:1;fill-rule:nonzero;stroke:none;stroke-width:1.5;marker:none;visibility:visible;display:inline;overflow:visible;enable-background:accumulate" />
    <path
       d="m 6,83 0,1 c 0,3.324 2.676,6 6,6 l 72,0 c 3.324,0 6,-2.676 6,-6 l 0,-1 c 0,3.324 -2.676,6 -6,6 L 12,89 C 8.676,89 6,86.324 6,83 z"
       inkscape:connector-curvature="0"
       id="rect4336"
       style="opacity:0.1;color:#000000;fill:#000000;fill-opacity:1;fill-rule:nonzero;stroke:none;stroke-width:1.5;marker:none;visibility:visible;display:inline;overflow:visible;enable-background:accumulate" />
    <path
       d="m 6,80 0,1 c 0,3.324 2.676,6 6,6 l 72,0 c 3.324,0 6,-2.676 6,-6 l 0,-1 c 0,3.324 -2.676,6 -6,6 L 12,86 C 8.676,86 6,83.324 6,80 z"
       inkscape:connector-curvature="0"
       id="path4412"
       style="opacity:0.2;fill:#000000;fill-opacity:1;fill-rule:nonzero;stroke:none" />
  </g>
  <g
     id="layer1">
    <rect
       width="84"
       height="80"
       rx="6"
       ry="6"
       x="6"
       y="6"
       id="rect2419"
       style="fill:url(#linearGradient3159);fill-opacity:1;fill-rule:nonzero;stroke:none" />
    <path
       d="M 120.78125,6.125 C 118.04223,6.6826484 116,9.0915 116,12 l 0,68 c 0,3.324 2.676,6 6,6 l 72,0 c 3.324,0 6,-2.676 6,-6 l 0,-68 c 0,-2.9085 -2.04223,-5.3173516 -4.78125,-5.875 2.20512,0.5362071 3.8125,2.4908437 3.8125,4.875 l 0,68 c 0,2.80489 -2.22636,5.03125 -5.03125,5.03125 l -72,0 c -2.80489,0 -5.03125,-2.22636 -5.03125,-5.03125 l 0,-68 c 0,-2.3841563 1.60738,-4.3387929 3.8125,-4.875 z"
       inkscape:connector-curvature="0"
       id="rect4359"
       style="opacity:0.2;fill:url(#radialGradient4375);fill-opacity:1;fill-rule:nonzero;stroke:none" />
    <path
       d="M 12,86 C 8.676,86 6,83.324 6,80 L 6,12 C 6,8.676 8.676,6 12,6 l 72,0 c 3.324,0 6,2.676 6,6 l 0,68 c 0,3.324 -2.676,6 -6,6 z m 0,-0.96875 72,0 c 2.80489,0 5.03125,-2.22636 5.03125,-5.03125 l 0,-68 C 89.03125,9.19511 86.80489,6.96875 84,6.96875 l -72,0 C 9.1951102,6.96875 6.96875,9.19511 6.96875,12 l 0,68 c 0,2.80489 2.2263602,5.03125 5.03125,5.03125 z"
       inkscape:connector-curvature="0"
       id="rect4377"
       style="opacity:0.3;fill:url(#linearGradient4390);fill-opacity:1;fill-rule:nonzero;stroke:none" />
    <path
       d="m 6,78 0,2 c 0,3.324 2.676,6 6,6 l 72,0 c 3.324,0 6,-2.676 6,-6 l 0,-2 c 0,3.324 -2.676,6 -6,6 L 12,84 C 8.676,84 6,81.324 6,78 z"
       inkscape:connector-curvature="0"
       id="rect4414"
       style="opacity:0.1;fill:url(#linearGradient4429);fill-opacity:1;fill-rule:nonzero;stroke:none" />
  </g>
  <g
     id="layer5"
     style="display:inline">
    <rect
       width="66"
       height="62"
       rx="12"
       ry="12"
       x="15"
       y="15"
       clip-path="url(#clipPath4355)"
       id="rect3171"
       style="opacity:0.1;fill:url(#linearGradient3613);fill-opacity:1;fill-rule:nonzero;stroke:#ffffff;stroke-width:0.5;stroke-linecap:round;stroke-linejoin:miter;stroke-miterlimit:4;stroke-opacity:1;stroke-dasharray:none;stroke-dashoffset:0;filter:url(#filter3794)" />
  </g>
  <g
     id="layer6">
    <path
       d="m 47.65625,20.9375 c -1.851395,0.370176 -1.892434,2.672743 -2.856299,3.950163 -4.579781,8.111198 -11.090894,15.237037 -13.944919,24.245488 -2.120619,6.39783 -0.494436,13.905411 4.381016,18.630801 5.515261,5.715567 14.925514,6.977169 21.745013,2.900749 C 63.996524,66.75814 68.058136,57.549837 65.05169,49.897878 62.376296,43.241693 57.320937,37.960835 53.703147,31.840945 51.94092,28.944425 50.240387,25.83704 49.96875,22.40625 49.709514,21.410846 48.665076,20.795729 47.65625,20.9375 z"
       inkscape:connector-curvature="0"
       id="path3688"
       style="opacity:0.1;color:#000000;fill:url(#linearGradient3142);fill-opacity:1;fill-rule:nonzero;stroke:none;stroke-width:0.5;marker:none;visibility:visible;display:inline;overflow:visible;enable-background:accumulate" />
    <path
       d="M 47.84375,24.0625 A 0.93793621,0.93793621 0 0 0 47.125,24.65625 C 45.591356,28.643723 41.620217,33.899612 38,39.5 34.379783,45.100388 31.0625,51.103489 31.0625,57 c 0,9.343402 7.594096,16.9375 16.9375,16.9375 9.343404,0 16.9375,-7.594098 16.9375,-16.9375 0,-5.182182 -4.054324,-10.724001 -8,-16.3125 -3.945676,-5.588499 -7.803663,-11.203 -8,-15.71875 A 0.93793621,0.93793621 0 0 0 47.84375,24.0625 z"
       transform="translate(0,-2)"
       id="path3684"
       style="opacity:0.15;color:#000000;fill:url(#linearGradient3707);fill-opacity:1;fill-rule:nonzero;stroke:none;stroke-width:0.5;marker:none;visibility:visible;display:inline;overflow:visible;enable-background:accumulate" />
    <path
       d="m 48,23 c -3.251199,8.453116 -16,20.926817 -16,32 0,8.836554 7.163444,16 16,16 8.836556,0 16,-7.163446 16,-16 C 64,45.679898 48.433493,32.970342 48,23 z"
       inkscape:connector-curvature="0"
       id="path3679"
       style="opacity:0.3;color:#000000;fill:url(#linearGradient3715);fill-opacity:1;fill-rule:nonzero;stroke:none;stroke-width:0.5;marker:none;visibility:visible;display:inline;overflow:visible;enable-background:accumulate" />
    <path
       d="m 48,22 c -3.251199,8.453116 -16,20.926817 -16,32 0,8.836554 7.163444,16 16,16 8.836556,0 16,-7.163446 16,-16 C 64,44.679898 48.433493,31.970342 48,22 z"
       inkscape:connector-curvature="0"
       id="path3663"
       style="color:#000000;fill:url(#radialGradient3723);fill-opacity:1;fill-rule:nonzero;stroke:none;stroke-width:0.5;marker:none;visibility:visible;display:inline;overflow:visible;enable-background:accumulate" />
    <path
       d="M 48,22 C 45.116393,29.497377 34.773423,40.146866 32.46875,50.1875 l 30.8125,0 C 60.208022,41.403591 48.377049,30.67212 48,22 z"
       inkscape:connector-curvature="0"
       id="path3780"
       style="opacity:0.8;color:#000000;fill:url(#linearGradient3789);fill-opacity:1;fill-rule:nonzero;stroke:none;stroke-width:0.5;marker:none;visibility:visible;display:inline;overflow:visible;enable-background:accumulate" />
    <path
       d="M 47.474705,26.784687 C 41.169207,36.315974 30.831727,49.416191 34.254702,56.913998 38.368811,59.324879 30.992764,50.987563 47.474705,26.784687 z"
       inkscape:connector-curvature="0"
       id="path3732"
       style="opacity:0.4;fill:#6b7d85;fill-opacity:1;stroke:none" />
    <path
       d="M 47.315533,25.425184 C 38.484754,40.361193 33.687788,44.06794 32.924634,53.443829 33.130246,68.600017 47.315533,69.142992 47.315533,69.142992 l -1.417286,-8.830779 c 0,0 -3.456313,0.807425 -5.996208,-8.28567 -1.380475,-4.942248 7.413494,-26.601359 7.413494,-26.601359 z"
       inkscape:connector-curvature="0"
       id="path3734"
       style="opacity:0.6;fill:url(#linearGradient3750);fill-opacity:1;stroke:none" />
    <path
       d="m 59.807442,53.75445 c 0,7.875442 -6.015279,12.986846 -13.640978,12.986846 -1.871169,0 -3.659178,-0.393314 -5.28125,-1.0625 2.163405,1.416699 4.737481,2.25 7.53125,2.25 7.625699,0 13.75,-6.124302 13.75,-13.75 0,-3.412684 -1.497712,-6.15404 -7.40625,-14.46875 2.338445,5.548231 5.047228,6.183513 5.047228,14.044404 z"
       inkscape:connector-curvature="0"
       id="path3727"
       style="opacity:0.3;color:#000000;fill:#697c84;fill-opacity:1;fill-rule:nonzero;stroke:none;stroke-width:0.5;marker:none;visibility:visible;display:inline;overflow:visible;enable-background:accumulate" />
    <path
       d="M 41.973457,66.635487 40.665193,59.767103 C 33.578765,56.2784 37.067468,46.030335 37.067468,46.030335 c 0,0 -7.740559,13.30068 4.905989,20.605152 z"
       inkscape:connector-curvature="0"
       id="path3752"
       style="fill:#ffffff;stroke:none" />
    <path
       d="m 52.330543,35.673248 c 0.929847,4.894168 4.881699,8.623058 5.114161,11.497411 0.755502,5.127224 -2.498965,2.874353 -3.022004,0.466111 0,0 -1.511002,-5.437964 -2.092157,-11.963522 z"
       inkscape:connector-curvature="0"
       id="path3754"
       style="fill:url(#radialGradient3762);fill-opacity:1;stroke:none" />
    <path
       d="m 60.15625,49.5625 c 0.230563,1.193889 0.40625,2.472396 0.40625,4.1875 0,6.910999 -4.519713,11.836947 -10.65625,13.28125 6.490123,-0.744782 11.5,-6.141205 11.5,-12.84375 0,-1.475328 -0.355885,-2.793428 -1.25,-4.625 z"
       inkscape:connector-curvature="0"
       id="path3766"
       style="opacity:0.6;color:#000000;fill:#697c84;fill-opacity:1;fill-rule:nonzero;stroke:none;stroke-width:0.5;marker:none;visibility:visible;display:inline;overflow:visible;enable-background:accumulate" />
    <path
       d="m 48,22 c -0.175985,0.457561 -0.396888,0.925988 -0.625,1.40625 C 49.791544,32.954811 63,44.412435 63,53 63,61.836554 55.836556,69 47,69 42.838065,69 39.06475,67.38578 36.21875,64.78125 39.144118,67.977834 43.325379,70 48,70 56.836556,70 64,62.836554 64,54 64,44.679898 48.433493,31.970342 48,22 z"
       inkscape:connector-curvature="0"
       id="path3769"
       style="opacity:0.5;color:#000000;fill:#6a7d84;fill-opacity:1;fill-rule:nonzero;stroke:none;stroke-width:0.5;marker:none;visibility:visible;display:inline;overflow:visible;enable-background:accumulate" />
    <path
       d="m 50.368148,30.885825 c 0.386844,2.036123 2.030935,3.587454 2.127646,4.783272 0.314312,2.133081 -1.039645,1.195819 -1.257246,0.193917 0,0 -0.628622,-2.262358 -0.8704,-4.977189 z"
       inkscape:connector-curvature="0"
       id="path3774"
       style="opacity:0.5;fill:url(#radialGradient3776);fill-opacity:1;stroke:none" />
  </g>
</svg>
