<?xml version="1.0" encoding="UTF-8" standalone="no"?>
<!-- Created with Inkscape (http://www.inkscape.org/) -->

<svg
   xmlns:dc="http://purl.org/dc/elements/1.1/"
   xmlns:cc="http://creativecommons.org/ns#"
   xmlns:rdf="http://www.w3.org/1999/02/22-rdf-syntax-ns#"
   xmlns:svg="http://www.w3.org/2000/svg"
   xmlns="http://www.w3.org/2000/svg"
   xmlns:xlink="http://www.w3.org/1999/xlink"
   xmlns:inkscape="http://www.inkscape.org/namespaces/inkscape"
   version="1.0"
   width="96"
   height="96"
   id="svg2408">
  <defs
     id="defs2410">
    <linearGradient
       id="linearGradient4096">
      <stop
         id="stop4098"
         style="stop-color:#ffffff;stop-opacity:1"
         offset="0" />
      <stop
         id="stop4100"
         style="stop-color:#ffffff;stop-opacity:0"
         offset="1" />
    </linearGradient>
    <linearGradient
       x1="45.447727"
       y1="92.539597"
       x2="45.447727"
       y2="7.0165396"
       id="ButtonShadow"
       gradientUnits="userSpaceOnUse"
       gradientTransform="scale(1.0058652,0.994169)">
      <stop
         id="stop3750"
         style="stop-color:#000000;stop-opacity:1"
         offset="0" />
      <stop
         id="stop3752"
         style="stop-color:#000000;stop-opacity:0.58823532"
         offset="1" />
    </linearGradient>
    <linearGradient
       id="linearGradient3737">
      <stop
         id="stop3739"
         style="stop-color:#ffffff;stop-opacity:1"
         offset="0" />
      <stop
         id="stop3741"
         style="stop-color:#ffffff;stop-opacity:0"
         offset="1" />
    </linearGradient>
    <linearGradient
       id="linearGradient3700">
      <stop
         id="stop3702"
         style="stop-color:#2276c5;stop-opacity:1"
         offset="0" />
      <stop
         id="stop3704"
         style="stop-color:#68baf4;stop-opacity:1"
         offset="1" />
    </linearGradient>
    <filter
       color-interpolation-filters="sRGB"
       id="filter3174">
      <feGaussianBlur
         id="feGaussianBlur3176"
         stdDeviation="1.71" />
    </filter>
    <linearGradient
       x1="48"
       y1="20.220806"
       x2="48"
       y2="138.66119"
       id="linearGradient3613"
       xlink:href="#linearGradient3737"
       gradientUnits="userSpaceOnUse" />
    <linearGradient
       x1="48"
       y1="90"
       x2="48"
       y2="5.9877172"
       id="linearGradient3151"
       xlink:href="#linearGradient3700"
       gradientUnits="userSpaceOnUse"
       gradientTransform="translate(-110,0)" />
    <linearGradient
       x1="36.357143"
       y1="6"
       x2="36.357143"
       y2="63.893143"
       id="linearGradient3153"
       xlink:href="#linearGradient3737"
       gradientUnits="userSpaceOnUse"
       gradientTransform="translate(-110,0)" />
    <radialGradient
       cx="48"
       cy="90.171875"
       r="42"
       fx="48"
       fy="90.171875"
       id="radialGradient3155"
       xlink:href="#linearGradient3737"
       gradientUnits="userSpaceOnUse"
       gradientTransform="matrix(1.1573129,0,0,0.99590774,-117.55102,0.19713193)" />
    <linearGradient
       x1="48"
       y1="90"
       x2="48"
       y2="5.9877172"
       id="linearGradient3989"
       xlink:href="#ButtonShadow"
       gradientUnits="userSpaceOnUse"
       gradientTransform="translate(0,1)" />
    <linearGradient
       x1="48"
       y1="90.868095"
       x2="48"
       y2="5.9877172"
       id="linearGradient4001"
       xlink:href="#ButtonShadow"
       gradientUnits="userSpaceOnUse"
       gradientTransform="translate(-1,1)" />
    <linearGradient
       x1="48"
       y1="90.868095"
       x2="48"
       y2="5.9877172"
       id="linearGradient4009"
       xlink:href="#ButtonShadow"
       gradientUnits="userSpaceOnUse"
       gradientTransform="translate(-1,1)" />
    <linearGradient
       x1="48"
       y1="90.868095"
       x2="48"
       y2="5.9877172"
       id="linearGradient4023"
       xlink:href="#ButtonShadow"
       gradientUnits="userSpaceOnUse"
       gradientTransform="translate(-1,1)" />
    <linearGradient
       x1="48"
       y1="90.868095"
       x2="48"
       y2="5.9877172"
       id="linearGradient4031"
       xlink:href="#ButtonShadow"
       gradientUnits="userSpaceOnUse"
       gradientTransform="translate(-1,1)" />
    <filter
       x="-0.19410552"
       y="-0.19410552"
       width="1.388211"
       height="1.388211"
       color-interpolation-filters="sRGB"
       id="filter4055">
      <feGaussianBlur
         id="feGaussianBlur4057"
         stdDeviation="5.3379019" />
    </filter>
    <clipPath
       id="clipPath3297">
      <rect
         width="84"
         height="77.973236"
         rx="6"
         ry="5.5695176"
         x="6"
         y="9.338027"
         id="rect3299"
         style="fill:#ffffff;fill-opacity:1;fill-rule:nonzero;stroke:none" />
    </clipPath>
    <linearGradient
       x1="40"
       y1="8"
       x2="40"
       y2="120"
       id="linearGradient4102"
       xlink:href="#linearGradient4096"
       gradientUnits="userSpaceOnUse" />
    <linearGradient
       id="linearGradient3892-1">
      <stop
         id="stop3894-1"
         style="stop-color:#000000;stop-opacity:0.58823532"
         offset="0" />
      <stop
         id="stop3896-3"
         style="stop-color:#000000;stop-opacity:0.47058824"
         offset="0.11780351" />
      <stop
         id="stop3898-6"
         style="stop-color:#000000;stop-opacity:0.39215687"
         offset="0.23809524" />
      <stop
         id="stop3900-3"
         style="stop-color:#000000;stop-opacity:0.3137255"
         offset="1" />
    </linearGradient>
    <linearGradient
       x1="6"
       y1="77"
       x2="48"
       y2="77"
       id="linearGradient4148-8"
       xlink:href="#linearGradient3892-1"
       gradientUnits="userSpaceOnUse" />
    <linearGradient
       x1="6"
       y1="77"
       x2="48"
       y2="77"
       id="linearGradient4197"
       xlink:href="#linearGradient3892-1"
       gradientUnits="userSpaceOnUse" />
    <linearGradient
       x1="6"
       y1="77"
       x2="48"
       y2="77"
       id="linearGradient4199"
       xlink:href="#linearGradient3892-1"
       gradientUnits="userSpaceOnUse" />
    <linearGradient
       x1="10.31979"
       y1="21"
       x2="10.31979"
       y2="0.99929649"
       id="ButtonColor"
       gradientUnits="userSpaceOnUse">
      <stop
         id="stop3189"
         style="stop-color:#5a9b0f;stop-opacity:1"
         offset="0" />
      <stop
         id="stop3191"
         style="stop-color:#8fe02f;stop-opacity:1"
         offset="1" />
    </linearGradient>
    <linearGradient
       x1="48"
       y1="90"
       x2="48"
       y2="5.9877172"
       id="linearGradient3117"
       xlink:href="#ButtonColor"
       gradientUnits="userSpaceOnUse" />
    <linearGradient
       x1="48"
       y1="72.190804"
       x2="48"
       y2="5.9877172"
       id="linearGradient3908"
       xlink:href="#ButtonColor"
       gradientUnits="userSpaceOnUse" />
    <linearGradient
       x1="48"
       y1="72.190804"
       x2="48"
       y2="5.9877172"
       id="linearGradient3910"
       xlink:href="#ButtonColor"
       gradientUnits="userSpaceOnUse" />
    <linearGradient
       id="linearGradient4285">
      <stop
         id="stop4287"
         style="stop-color:#ffffff;stop-opacity:1"
         offset="0" />
      <stop
         id="stop5732"
         style="stop-color:#ffffff;stop-opacity:0.70866144"
         offset="0.5" />
      <stop
         id="stop4289"
         style="stop-color:#ffffff;stop-opacity:0"
         offset="1" />
    </linearGradient>
    <radialGradient
       cx="24"
       cy="34.75"
       r="42"
       fx="24"
       fy="34.75"
       id="radialGradient3148"
       xlink:href="#linearGradient4285"
       gradientUnits="userSpaceOnUse"
       gradientTransform="matrix(0.5,0,0,0.52380952,12,17.797619)" />
    <linearGradient
       x1="32"
       y1="56"
       x2="48"
       y2="72"
       id="linearGradient5778"
       xlink:href="#linearGradient4239"
       gradientUnits="userSpaceOnUse"
       gradientTransform="translate(0,-2)" />
    <linearGradient
       id="linearGradient4239">
      <stop
         id="stop5734"
         style="stop-color:#e2f39e;stop-opacity:0"
         offset="0" />
      <stop
         id="stop5736"
         style="stop-color:#e0f298;stop-opacity:0.29133859"
         offset="0.30000001" />
      <stop
         id="stop4243"
         style="stop-color:#e0f297;stop-opacity:0.16535433"
         offset="1" />
    </linearGradient>
    <linearGradient
       x1="36"
       y1="51"
       x2="82"
       y2="76"
       id="linearGradient5776"
       xlink:href="#linearGradient4239"
       gradientUnits="userSpaceOnUse"
       gradientTransform="translate(0,-2)" />
    <linearGradient
       x1="42"
       y1="45"
       x2="96"
       y2="48"
       id="linearGradient5774"
       xlink:href="#linearGradient4239"
       gradientUnits="userSpaceOnUse"
       gradientTransform="translate(0,-2)" />
    <linearGradient
       x1="44"
       y1="36"
       x2="96"
       y2="24"
       id="linearGradient5770"
       xlink:href="#linearGradient4239"
       gradientUnits="userSpaceOnUse"
       gradientTransform="translate(0,-2)" />
    <linearGradient
       x1="42"
       y1="23"
       x2="70"
       y2="1"
       id="linearGradient5784"
       xlink:href="#linearGradient4239"
       gradientUnits="userSpaceOnUse"
       gradientTransform="translate(0,-2)" />
    <linearGradient
       x1="32"
       y1="16"
       x2="39"
       y2="6"
       id="linearGradient5782"
       xlink:href="#linearGradient4239"
       gradientUnits="userSpaceOnUse"
       gradientTransform="translate(0,-2)" />
    <linearGradient
       x1="11.46875"
       y1="16.421875"
       x2="8"
       y2="0"
       id="linearGradient3226"
       xlink:href="#linearGradient4239"
       gradientUnits="userSpaceOnUse"
       gradientTransform="translate(0,-2)" />
  </defs>
  <metadata
     id="metadata2413">
    <rdf:RDF>
      <cc:Work
         rdf:about="">
        <dc:format>image/svg+xml</dc:format>
        <dc:type
           rdf:resource="http://purl.org/dc/dcmitype/StillImage" />
        <dc:title />
      </cc:Work>
    </rdf:RDF>
  </metadata>
  <g
     id="layer2"
     style="display:none">
    <rect
       width="86"
       height="85"
       rx="6"
       ry="6"
       x="5"
       y="7"
       id="rect3745"
       style="opacity:0.9;fill:url(#ButtonShadow);fill-opacity:1;fill-rule:nonzero;stroke:none;filter:url(#filter3174)" />
  </g>
  <g
     id="layer3"
     style="display:inline">
    <path
       d="m 12,4.03125 c -6.0701637,-0.1617408 -10.6911509,5.6895113 -9.96875,11.5 7.16e-5,0.04167 -7.01e-5,0.08333 0,0.125 0.030431,18.086218 -0.077787,36.153437 0.03125,54.25 a 0.93232674,0.93232674 0 0 0 0,0.0625 c 0.4297709,5.831518 6.2168912,9.674679 11.71875,9 0.0418,-0.0051 0.08323,0.0056 0.125,0 l 5.3125,0 c -0.679778,4.428501 -1.596836,8.895227 -2.0625,13.40625 a 0.93232674,0.93232674 0 0 0 0.03125,0.28125 c 0.279995,1.294203 1.371731,2.108795 2.46875,2.25 1.023884,0.131791 2.065552,-0.225148 2.84375,-1 l 0,0.03125 22.84375,-14.96875 c 13.185056,-0.02898 26.362788,0.07707 39.5625,-0.03125 a 0.93232674,0.93232674 0 0 0 0.0625,0 c 5.831518,-0.429771 9.674679,-6.216892 9,-11.71875 -0.0051,-0.0418 0.0056,-0.08323 0,-0.125 -0.03043,-18.00176 0.07779,-35.987855 -0.03125,-54 a 0.93232674,0.93232674 0 0 0 0,-0.0625 c -0.429771,-5.8315178 -6.216892,-9.6746792 -11.71875,-9 l -0.125,0 -70.0625,0 -0.03125,0 z"
       id="path4029"
       style="opacity:0.07999998;fill:url(#linearGradient4031);fill-opacity:1;fill-rule:nonzero;stroke:none" />
    <path
       d="M 12,4.96875 C 6.498217,4.8031106 2.2406967,10.230306 2.96875,15.520213 c 0.031153,18.132768 -0.06237,36.268711 0.046873,54.39949 0.3891125,5.279828 5.7301904,8.791471 10.757959,8.111547 2.17964,0 4.359279,0 6.538918,0 -0.693629,4.811167 -1.723208,9.637038 -2.21875,14.4375 0.399566,1.846889 2.79006,1.976363 3.910163,0.694482 C 29.700525,88.119238 37.397138,83.075244 45.09375,78.03125 58.368678,78.00033 71.646761,78.0933 84.919703,77.98438 90.199531,77.595267 93.711174,72.254189 93.03125,67.226421 93.000098,49.178106 93.093619,31.12662 92.984377,13.080297 92.595264,7.8004692 87.254186,4.2888256 82.226418,4.96875 c -23.408806,0 -46.817612,0 -70.226418,0 z"
       inkscape:connector-curvature="0"
       id="path4015"
       style="opacity:0.1;fill:url(#linearGradient4023);fill-opacity:1;fill-rule:nonzero;stroke:none" />
    <path
       d="M 12,6 C 7.5921478,6 4,9.5921478 4,14 l 0,55 c 0,4.407852 3.5921478,8 8,8 l 9.5,0 -2.40625,14.90625 a 0.98733463,0.98733463 0 0 0 1.5,0.96875 L 44.8125,77 84,77 c 4.407852,0 8,-3.592148 8,-8 L 92,14 C 92,9.5921478 88.407852,6 84,6 L 12,6 z"
       id="path4007"
       style="opacity:0.15;fill:url(#linearGradient4009);fill-opacity:1;fill-rule:nonzero;stroke:none" />
    <path
       d="M 12,7 C 8.122,7 5,10.122 5,14 l 0,55 c 0,3.878 3.122,7 7,7 L 22.65625,76 20.0625,92.0625 44.5625,76 84,76 c 3.878,0 7,-3.122 7,-7 L 91,14 C 91,10.122 87.878,7 84,7 L 12,7 z"
       inkscape:connector-curvature="0"
       id="rect3991"
       style="opacity:0.3;fill:url(#linearGradient4001);fill-opacity:1;fill-rule:nonzero;stroke:none" />
    <path
       d="M 12,7 C 8.676,7 6,9.676 6,13 l 0,56 c 0,3.324 2.676,6 6,6 l 12,0 -3,16 23,-16 40,0 c 3.324,0 6,-2.676 6,-6 L 90,13 C 90,9.676 87.324,7 84,7 L 12,7 z"
       inkscape:connector-curvature="0"
       id="path3984"
       style="opacity:0.45;fill:url(#linearGradient3989);fill-opacity:1;fill-rule:nonzero;stroke:none" />
  </g>
  <g
     id="layer1"
     style="display:inline">
    <path
       d="M 12,6 C 8.676,6 6,8.676 6,12 l 0,56 c 0,3.324 2.676,6 6,6 l 12,0 -3,16 23,-16 40,0 c 3.324,0 6,-2.676 6,-6 L 90,12 C 90,8.676 87.324,6 84,6 L 12,6 z"
       inkscape:connector-curvature="0"
       id="rect2419-9"
       style="fill:url(#linearGradient3117);fill-opacity:1;fill-rule:nonzero;stroke:none" />
    <path
       d="M 12,6 C 8.676,6 6,8.676 6,12 l 0,56 c 0,3.324 2.676,6 6,6 l 12,0 -3,16 23,-16 40,0 c 3.324,0 6,-2.676 6,-6 L 90,12 C 90,8.676 87.324,6 84,6 L 12,6 z"
       inkscape:connector-curvature="0"
       id="rect2419"
       style="fill:url(#linearGradient3910);fill-opacity:1;fill-rule:nonzero;stroke:none" />
    <rect
       width="84"
       height="84"
       rx="6"
       ry="6"
       x="-104"
       y="6"
       id="rect3145"
       style="fill:url(#linearGradient3151);fill-opacity:1;fill-rule:nonzero;stroke:none" />
    <path
       d="m -98,6 c -3.324,0 -6,2.676 -6,6 l 0,2 0,68 0,2 c 0,0.334721 0.0413,0.6507 0.0937,0.96875 0.0487,0.295596 0.097,0.596915 0.1875,0.875 0.01,0.03038 0.0209,0.0636 0.0312,0.09375 0.0989,0.287771 0.23488,0.547452 0.375,0.8125 0.14459,0.273507 0.31562,0.535615 0.5,0.78125 0.18438,0.245635 0.37378,0.473472 0.59375,0.6875 0.43995,0.428056 0.94291,0.814526 1.5,1.09375 0.27854,0.139612 0.57347,0.246947 0.875,0.34375 -0.2562,-0.100222 -0.48671,-0.236272 -0.71875,-0.375 -0.007,-0.0044 -0.0239,0.0045 -0.0312,0 -0.0319,-0.0193 -0.0623,-0.04251 -0.0937,-0.0625 -0.1204,-0.0767 -0.23102,-0.163513 -0.34375,-0.25 -0.10617,-0.0808 -0.21328,-0.161112 -0.3125,-0.25 -0.17793,-0.161433 -0.34746,-0.345388 -0.5,-0.53125 -0.10758,-0.130255 -0.21839,-0.265285 -0.3125,-0.40625 -0.0251,-0.03838 -0.0384,-0.08587 -0.0625,-0.125 -0.0648,-0.103032 -0.13023,-0.204517 -0.1875,-0.3125 -0.10101,-0.194706 -0.20568,-0.415701 -0.28125,-0.625 -0.008,-0.02181 -0.0236,-0.04055 -0.0312,-0.0625 -0.0318,-0.09195 -0.0358,-0.186831 -0.0625,-0.28125 -0.0303,-0.106618 -0.0704,-0.203031 -0.0937,-0.3125 C -102.94788,85.720988 -103,85.364295 -103,85 l 0,-2 0,-68 0,-2 c 0,-2.781848 2.21815,-5 5,-5 l 2,0 68,0 2,0 c 2.781848,0 5,2.218152 5,5 l 0,2 0,68 0,2 c 0,0.364295 -0.05212,0.720988 -0.125,1.0625 -0.04415,0.206893 -0.08838,0.397658 -0.15625,0.59375 -0.0077,0.02195 -0.0233,0.04069 -0.03125,0.0625 -0.06274,0.173739 -0.138383,0.367449 -0.21875,0.53125 -0.04158,0.0828 -0.07904,0.169954 -0.125,0.25 -0.0546,0.09721 -0.126774,0.18835 -0.1875,0.28125 -0.09411,0.140965 -0.204921,0.275995 -0.3125,0.40625 -0.143174,0.17445 -0.303141,0.346998 -0.46875,0.5 -0.01117,0.0102 -0.01998,0.02115 -0.03125,0.03125 -0.138386,0.125556 -0.285091,0.234436 -0.4375,0.34375 -0.102571,0.07315 -0.204318,0.153364 -0.3125,0.21875 -0.0074,0.0045 -0.02384,-0.0044 -0.03125,0 -0.232039,0.138728 -0.462548,0.274778 -0.71875,0.375 0.301527,-0.0968 0.596455,-0.204138 0.875,-0.34375 0.55709,-0.279224 1.060053,-0.665694 1.5,-1.09375 0.219973,-0.214028 0.409366,-0.441865 0.59375,-0.6875 0.184384,-0.245635 0.355408,-0.507743 0.5,-0.78125 0.14012,-0.265048 0.276135,-0.524729 0.375,-0.8125 0.01041,-0.03078 0.02133,-0.06274 0.03125,-0.09375 0.09046,-0.278085 0.1388,-0.579404 0.1875,-0.875 C -20.04135,84.6507 -20,84.334721 -20,84 l 0,-2 0,-68 0,-2 c 0,-3.324 -2.676,-6 -6,-6 l -72,0 z"
       inkscape:connector-curvature="0"
       id="path3147"
       style="opacity:0.5;fill:url(#linearGradient3153);fill-opacity:1;fill-rule:nonzero;stroke:none" />
    <path
       d="m -98,90 c -3.324,0 -6,-2.676 -6,-6 l 0,-2 0,-68 0,-2 c 0,-0.334721 0.0413,-0.6507 0.0937,-0.96875 0.0487,-0.295596 0.097,-0.596915 0.1875,-0.875 0.01,-0.03038 0.0209,-0.0636 0.0312,-0.09375 0.0989,-0.287771 0.23488,-0.547452 0.375,-0.8125 0.14459,-0.273507 0.31562,-0.535615 0.5,-0.78125 0.18438,-0.245635 0.37378,-0.473472 0.59375,-0.6875 0.43995,-0.428056 0.94291,-0.814526 1.5,-1.09375 0.27854,-0.139612 0.57347,-0.246947 0.875,-0.34375 -0.2562,0.100222 -0.48671,0.236272 -0.71875,0.375 -0.007,0.0044 -0.0239,-0.0045 -0.0312,0 -0.0319,0.0193 -0.0623,0.04251 -0.0937,0.0625 -0.1204,0.0767 -0.23102,0.163513 -0.34375,0.25 -0.10617,0.0808 -0.21328,0.161112 -0.3125,0.25 -0.17793,0.161433 -0.34746,0.345388 -0.5,0.53125 -0.10758,0.130255 -0.21839,0.265285 -0.3125,0.40625 -0.0251,0.03838 -0.0384,0.08587 -0.0625,0.125 -0.0648,0.103032 -0.13023,0.204517 -0.1875,0.3125 -0.10101,0.194706 -0.20568,0.415701 -0.28125,0.625 -0.008,0.02181 -0.0236,0.04055 -0.0312,0.0625 -0.0318,0.09195 -0.0358,0.186831 -0.0625,0.28125 -0.0303,0.106618 -0.0704,0.203031 -0.0937,0.3125 C -102.94788,10.279012 -103,10.635705 -103,11 l 0,2 0,68 0,2 c 0,2.781848 2.21815,5 5,5 l 2,0 68,0 2,0 c 2.781848,0 5,-2.218152 5,-5 l 0,-2 0,-68 0,-2 c 0,-0.364295 -0.05212,-0.720988 -0.125,-1.0625 -0.04415,-0.206893 -0.08838,-0.397658 -0.15625,-0.59375 -0.0077,-0.02195 -0.0233,-0.04069 -0.03125,-0.0625 -0.06274,-0.173739 -0.138383,-0.367449 -0.21875,-0.53125 -0.04158,-0.0828 -0.07904,-0.169954 -0.125,-0.25 -0.0546,-0.09721 -0.126774,-0.18835 -0.1875,-0.28125 -0.09411,-0.140965 -0.204921,-0.275995 -0.3125,-0.40625 -0.143174,-0.17445 -0.303141,-0.346998 -0.46875,-0.5 -0.01117,-0.0102 -0.01998,-0.02115 -0.03125,-0.03125 -0.138386,-0.125556 -0.285091,-0.234436 -0.4375,-0.34375 -0.102571,-0.07315 -0.204318,-0.153364 -0.3125,-0.21875 -0.0074,-0.0045 -0.02384,0.0044 -0.03125,0 -0.232039,-0.138728 -0.462548,-0.274778 -0.71875,-0.375 0.301527,0.0968 0.596455,0.204138 0.875,0.34375 0.55709,0.279224 1.060053,0.665694 1.5,1.09375 0.219973,0.214028 0.409366,0.441865 0.59375,0.6875 0.184384,0.245635 0.355408,0.507743 0.5,0.78125 0.14012,0.265048 0.276135,0.524729 0.375,0.8125 0.01041,0.03078 0.02133,0.06274 0.03125,0.09375 0.09046,0.278085 0.1388,0.579404 0.1875,0.875 C -20.04135,11.3493 -20,11.665279 -20,12 l 0,2 0,68 0,2 c 0,3.324 -2.676,6 -6,6 l -72,0 z"
       inkscape:connector-curvature="0"
       id="path3149"
       style="opacity:0.2;fill:url(#radialGradient3155);fill-opacity:1;fill-rule:nonzero;stroke:none" />
    <path
       d="M 12,6 C 8.676,6 6,8.676 6,12 l 0,52 c 0,3.324 2.676,6 6,6 l 12,0 -3,16 23,-16 40,0 c 3.324,0 6,-2.676 6,-6 L 90,12 C 90,8.676 87.324,6 84,6 z"
       inkscape:connector-curvature="0"
       id="path4061"
       style="fill:url(#linearGradient3908);fill-opacity:1;fill-rule:nonzero;stroke:none" />
    <path
       d="m 6,62 0,2 c 0,3.324 2.676,6 6,6 L 23.625,70 24,68 12,68 C 8.676,68 6,65.324 6,62 z m 84,0 c 0,3.324 -2.676,6 -6,6 L 44,68 21.4375,83.6875 21,86 44,70 84,70 c 3.324,0 6,-2.676 6,-6 l 0,-2 z"
       inkscape:connector-curvature="0"
       id="path4074"
       style="opacity:0.1;fill:#ffffff;fill-opacity:1;fill-rule:nonzero;stroke:none" />
    <path
       d="M 12,6 C 8.676,6 6,8.676 6,12 l 0,52 c 0,3.324 2.676,6 6,6 l 12,0 -3,16 23,-16 40,0 c 3.324,0 6,-2.676 6,-6 L 90,12 C 90,8.676 87.324,6 84,6 L 12,6 z m 0,1 72,0 c 2.789532,0 5,2.2104676 5,5 l 0,52 c 0,2.789532 -2.210468,5 -5,5 l -40,0 a 0.99593489,0.99593489 0 0 0 -0.5625,0.1875 l -21.03125,14.625 2.5625,-13.625 A 0.99593489,0.99593489 0 0 0 24,69 L 12,69 C 9.2104676,69 7,66.789532 7,64 L 7,12 C 7,9.2104676 9.2104676,7 12,7 z"
       inkscape:connector-curvature="0"
       id="path4083"
       style="opacity:0.35;fill:url(#linearGradient4102);fill-opacity:1;fill-rule:nonzero;stroke:none" />
  </g>
  <g
     id="layer6">
    <path
       d="m 6,64 0,4 c 0,3.324 2.676,6 6,6 L 23.25,74 24,70 12,70 C 8.676,70 6,67.324 6,64 z m 84,0 c 0,3.324 -2.676,6 -6,6 l -40,0 -23,16 0,4 23,-16 40,0 c 3.324,0 6,-2.676 6,-6 z"
       inkscape:connector-curvature="0"
       id="path4065"
       style="opacity:0.7;fill:url(#linearGradient4197);fill-opacity:1;fill-rule:nonzero;stroke:none;display:inline" />
    <path
       d="m 6,66 0,2 c 0,3.324 2.676,6 6,6 L 23.25,74 24,70 23.625,70 23.25,72 12,72 C 8.676,72 6,69.324 6,66 z m 84,0 c 0,3.324 -2.676,6 -6,6 l -40,0 -23,16 0,2 23,-16 40,0 c 3.324,0 6,-2.676 6,-6 l 0,-2 z"
       inkscape:connector-curvature="0"
       id="path4142"
       style="opacity:0.1;fill:url(#linearGradient4148-8);fill-opacity:1;fill-rule:nonzero;stroke:none;display:inline" />
    <path
       d="m 6,67 0,1 c 0,3.324 2.676,6 6,6 L 23.25,74 24,70 23.8125,70 23.25,73 12,73 C 8.676,73 6,70.324 6,67 z m 84,0 c 0,3.324 -2.676,6 -6,6 l -40,0 -23,16 0,1 23,-16 40,0 c 3.324,0 6,-2.676 6,-6 l 0,-1 z"
       inkscape:connector-curvature="0"
       id="path4133"
       style="opacity:0.15;fill:#000000;fill-opacity:1;fill-rule:nonzero;stroke:none;display:inline" />
    <path
       d="M 44,70 21,86 21,90 44,74 z"
       inkscape:connector-curvature="0"
       id="path4151"
       style="opacity:0.8;fill:url(#linearGradient4199);fill-opacity:1;fill-rule:nonzero;stroke:none;display:inline" />
  </g>
  <g
     id="layer5"
     style="display:none">
    <rect
       width="66"
       height="60.496479"
       rx="12"
       ry="12"
       x="15"
       y="15"
       transform="matrix(1,0,0,0.74384496,0,3.8423256)"
       clip-path="url(#clipPath3297)"
       id="rect3171"
       style="opacity:0.1;fill:url(#linearGradient3613);fill-opacity:1;fill-rule:nonzero;stroke:#ffffff;stroke-width:0.57973403;stroke-linecap:round;stroke-linejoin:miter;stroke-miterlimit:4;stroke-opacity:1;stroke-dasharray:none;stroke-dashoffset:0;filter:url(#filter4055)" />
  </g>
  <g
     id="layer4"
     style="display:inline">
    <path
       d="M 12,6 C 8.676,6 6,8.676 6,12 l 0,56 c 0,3.324 2.676,6 6,6 L 24,74 21,90 44,74 64,74 64,6 12,6 z"
       inkscape:connector-curvature="0"
       id="path3984-5"
       style="opacity:0.2;fill:url(#radialGradient3148);fill-opacity:1;fill-rule:nonzero;stroke:none" />
    <path
       d="m 22.0625,13.09375 c -0.309406,-0.01 -0.641762,-0.0076 -0.9375,0.03125 -0.943094,0.123944 -1.89608,0.103621 -2.84375,0.25 -1.815364,0.280343 -3.549663,0.850977 -5.25,1.53125 -0.619144,0.247669 -1.243778,0.522137 -1.84375,0.8125 -0.22328,0.108042 -0.539238,0.170359 -0.71875,0.34375 -0.09344,0.0904 -0.0824,0.316606 -0.09375,0.4375 -0.03157,0.340028 -0.09208,0.69144 -0.125,1.03125 -0.126988,1.311318 -0.219041,2.658086 -0.03125,3.96875 0.06078,0.423455 0.198294,1.168751 0.71875,1.25 0.800378,0.12525 1.419708,-0.831087 1.8125,-1.375 0.917387,-1.270367 1.964243,-2.463375 3.46875,-3.03125 1.771162,-0.668511 3.813728,-0.840232 5.6875,-0.96875 5.25706,-0.360286 11.002409,0.59666 14.875,4.46875 0.550738,0.550666 1.056665,1.138878 1.5,1.78125 1.733908,2.510673 2.652157,5.376396 3.09375,8.375 0.207615,1.407815 0.352369,2.816816 0.03125,4.21875 -0.557274,2.432254 -2.008491,4.5727 -3.6875,6.375 -1.149186,1.233553 -2.466591,2.330202 -3.8125,3.34375 -0.751381,0.565696 -1.574746,1.06909 -2.28125,1.6875 -0.813688,0.712294 -1.485644,1.580872 -2,2.53125 -1.38425,2.55903 -1.782149,5.643418 -1.375,8.5 0.08344,0.585518 0.179827,1.172541 0.3125,1.75 0.03965,0.172736 0.04449,0.483848 0.15625,0.625 0.209141,0.264006 0.774156,0.390784 1.09375,0.40625 0.333318,0.01612 0.543305,-0.23239 0.625,-0.53125 0.139863,-0.51211 0.08104,-1.078589 0,-1.59375 -0.166007,-1.055153 -0.328307,-2.116446 -0.28125,-3.1875 0.08671,-1.97765 0.848006,-3.816699 2.21875,-5.25 1.394055,-1.457697 3.290758,-2.310113 4.875,-3.53125 3.192884,-2.461008 6.026575,-5.767589 7.125,-9.71875 0.392575,-1.413043 0.523044,-2.920352 0.34375,-4.375 C 44.492175,31.410017 43.821459,29.576562 43.1875,27.84375 41.255345,22.561884 37.951096,17.541354 32.6875,15.125 30.598488,14.166126 28.418238,13.721227 26.15625,13.40625 25.095514,13.258563 24.036697,13.171833 22.96875,13.125 22.672151,13.11204 22.371906,13.103716 22.0625,13.09375 z M 18.78125,35 c -0.42164,0.04074 -0.816316,0.18037 -1.1875,0.40625 -0.667073,0.406247 -1.040858,1.115554 -1.25,1.84375 -0.415231,1.445934 -0.227875,3.110467 0.0625,4.5625 0.09281,0.464407 0.182223,0.919089 0.3125,1.375 0.04706,0.164459 0.08053,0.394454 0.1875,0.53125 0.18668,0.239174 0.626763,0.328301 0.90625,0.28125 0.838524,-0.140934 0.622289,-1.537957 0.59375,-2.125 -0.06688,-1.375141 -0.455072,-2.694765 -0.0625,-4.0625 0.166224,-0.578766 0.477995,-1.248628 1.0625,-1.5 0.527645,-0.227194 1.072327,0.04712 1.28125,0.5625 0.338307,0.834495 0.25656,1.819242 0.46875,2.6875 0.07211,0.295156 0.148141,0.568635 0.28125,0.84375 0.03856,0.07951 0.07574,0.26002 0.1875,0.25 C 21.896665,40.63142 22.296327,40.168163 22.5,40 c 0.657922,-0.543695 1.336268,-1.128923 2.09375,-1.53125 0.356411,-0.189291 0.948443,-0.478199 1.3125,-0.15625 0.09278,0.08212 0.152304,0.177346 0.21875,0.28125 0.427868,0.670253 -0.0031,1.175139 -0.28125,1.8125 -0.360114,0.824911 -0.728215,1.637874 -1.25,2.375 -0.448563,0.633877 -1.047857,1.213779 -1.40625,1.90625 -0.230708,0.445892 -0.37667,0.93432 -0.28125,1.4375 0.07734,0.4069 0.397486,0.626659 0.8125,0.53125 0.310661,-0.07145 0.510384,-0.316791 0.6875,-0.5625 0.315672,-0.438267 0.623789,-0.90374 0.9375,-1.34375 0.606944,-0.851049 1.333316,-1.647627 1.84375,-2.5625 0.615223,-1.102857 0.906925,-2.337543 0.90625,-3.59375 -3.92e-4,-1.026618 -0.366671,-2.597287 -1.5625,-2.8125 -0.225022,-0.0403 -0.49523,-0.03899 -0.71875,0 -0.277743,0.04836 -0.558698,0.158396 -0.8125,0.28125 -0.679925,0.328919 -1.276044,0.816492 -1.78125,1.375 -0.315215,0.348087 -0.594692,0.776711 -0.96875,1.0625 0,-0.758255 -0.121997,-1.582913 -0.5625,-2.21875 C 21.135509,35.484684 20.174049,35.034703 19.21875,35 19.075455,34.9948 18.921797,34.98642 18.78125,35 z M 13.25,47.28125 c -0.108898,-0.0084 -0.220607,0.01361 -0.34375,0.03125 -1.02588,0.146815 -1.345784,0.947276 -1.15625,1.875 0.242691,1.187157 1.199792,2.099335 2.125,2.8125 2.370481,1.827132 5.420983,2.818196 8.40625,2.6875 1.164871,-0.05097 2.430985,-0.255751 3.5,-0.75 0.573176,-0.264878 1.186824,-1.216575 0.40625,-1.625 -0.106968,-0.05598 -0.255811,-0.07415 -0.375,-0.09375 -0.340921,-0.05576 -0.708193,0.09471 -1.03125,0.1875 -0.569691,0.163588 -1.163535,0.312148 -1.75,0.40625 -1.752208,0.281432 -3.643053,-0.118088 -5.09375,-1.15625 -1.172692,-0.839506 -2.104594,-1.943306 -3,-3.0625 -0.479588,-0.599432 -0.925216,-1.253811 -1.6875,-1.3125 z M 12,53.0625 c -0.155118,0.0016 -0.313976,0.01502 -0.4375,0.03125 -0.260991,0.03442 -0.557731,0.02347 -0.78125,0.1875 -0.46621,0.342205 0.03595,1.031821 0.28125,1.34375 0.711275,0.903763 1.65913,1.651178 2.59375,2.3125 2.605525,1.843033 5.54458,2.907391 8.71875,3.125 0.912573,0.06252 1.847426,-0.006 2.75,-0.15625 0.330028,-0.05511 0.757502,-0.07629 1.0625,-0.21875 0.86312,-0.403633 0.614064,-2.012536 -0.15625,-2.375 -0.336368,-0.158142 -0.897293,0.04474 -1.25,0.09375 -0.834167,0.116319 -1.661041,0.114226 -2.5,0.09375 -2.198811,-0.0538 -4.552933,-0.712591 -6.46875,-1.78125 -0.753125,-0.420406 -1.415885,-0.930819 -2.0625,-1.5 C 13.356771,53.872624 12.947477,53.299915 12.4375,53.125 12.318769,53.08427 12.155118,53.06089 12,53.0625 z M 12.09375,58 c -0.371639,0.04161 -0.661816,0.224232 -0.90625,0.5 -0.168402,0.189945 -0.309522,0.35414 -0.40625,0.59375 -0.533309,1.319159 0.861878,2.564515 1.84375,3.1875 1.092739,0.693125 2.314965,1.223428 3.53125,1.65625 2.743231,0.976299 5.93236,1.591582 8.78125,0.71875 0.846802,-0.259215 1.696841,-0.734371 2.3125,-1.375 0.346803,-0.360938 0.573619,-0.893886 -0.0625,-1.125 C 26.810611,62.019455 26.373065,62.362333 26.03125,62.5 25.224316,62.825433 24.366191,63.082725 23.5,63.1875 22.359093,63.32582 21.349515,63.056365 20.25,62.78125 19.310827,62.546433 18.345541,62.307253 17.4375,61.96875 16.662807,61.679912 15.896692,61.354655 15.21875,60.875 15.016145,60.73167 14.791006,60.592928 14.625,60.40625 14.082323,59.795681 13.675641,59.080726 13.09375,58.5 c -0.251405,-0.250937 -0.615246,-0.542912 -1,-0.5 z"
       inkscape:connector-curvature="0"
       id="path4179"
       style="opacity:0.3;fill:#ffffff;fill-opacity:1;stroke:none" />
    <path
       d="m 22.0625,12.09375 c -0.309406,-0.01 -0.641762,-0.0076 -0.9375,0.03125 -0.943094,0.123944 -1.89608,0.103621 -2.84375,0.25 -1.815364,0.280343 -3.549663,0.850977 -5.25,1.53125 -0.619144,0.247669 -1.243778,0.522137 -1.84375,0.8125 -0.22328,0.108042 -0.539238,0.170359 -0.71875,0.34375 -0.09344,0.0904 -0.0824,0.316606 -0.09375,0.4375 -0.03157,0.340028 -0.09208,0.69144 -0.125,1.03125 -0.126988,1.311318 -0.219041,2.658086 -0.03125,3.96875 0.06078,0.423455 0.198294,1.168751 0.71875,1.25 0.800378,0.12525 1.419708,-0.831087 1.8125,-1.375 0.917387,-1.270367 1.964243,-2.463375 3.46875,-3.03125 1.771162,-0.668511 3.813728,-0.840232 5.6875,-0.96875 5.25706,-0.360286 11.002409,0.59666 14.875,4.46875 0.550738,0.550666 1.056665,1.138878 1.5,1.78125 1.733908,2.510673 2.652157,5.376396 3.09375,8.375 0.207615,1.407815 0.352369,2.816816 0.03125,4.21875 -0.557274,2.432254 -2.008491,4.5727 -3.6875,6.375 -1.149186,1.233553 -2.466591,2.330202 -3.8125,3.34375 -0.751381,0.565696 -1.574746,1.06909 -2.28125,1.6875 -0.813688,0.712294 -1.485644,1.580872 -2,2.53125 -1.38425,2.55903 -1.782149,5.643418 -1.375,8.5 0.08344,0.585518 0.179827,1.172541 0.3125,1.75 0.03965,0.172736 0.04449,0.483848 0.15625,0.625 0.209141,0.264006 0.774156,0.390784 1.09375,0.40625 0.333318,0.01612 0.543305,-0.23239 0.625,-0.53125 0.139863,-0.51211 0.08104,-1.078589 0,-1.59375 -0.166007,-1.055153 -0.328307,-2.116446 -0.28125,-3.1875 0.08671,-1.97765 0.848006,-3.816699 2.21875,-5.25 1.394055,-1.457697 3.290758,-2.310113 4.875,-3.53125 3.192884,-2.461008 6.026575,-5.767589 7.125,-9.71875 0.392575,-1.413043 0.523044,-2.920352 0.34375,-4.375 C 44.492175,30.410017 43.821459,28.576562 43.1875,26.84375 41.255345,21.561884 37.951096,16.541354 32.6875,14.125 30.598488,13.166126 28.418238,12.721227 26.15625,12.40625 25.095514,12.258563 24.036697,12.171833 22.96875,12.125 22.672151,12.11204 22.371906,12.103716 22.0625,12.09375 z M 18.78125,34 c -0.42164,0.04074 -0.816316,0.18037 -1.1875,0.40625 -0.667073,0.406247 -1.040858,1.115554 -1.25,1.84375 -0.415231,1.445934 -0.227875,3.110467 0.0625,4.5625 0.09281,0.464407 0.182223,0.919089 0.3125,1.375 0.04706,0.164459 0.08053,0.394454 0.1875,0.53125 0.18668,0.239174 0.626763,0.328301 0.90625,0.28125 0.838524,-0.140934 0.622289,-1.537957 0.59375,-2.125 -0.06688,-1.375141 -0.455072,-2.694765 -0.0625,-4.0625 0.166224,-0.578766 0.477995,-1.248628 1.0625,-1.5 0.527645,-0.227194 1.072327,0.04712 1.28125,0.5625 0.338307,0.834495 0.25656,1.819242 0.46875,2.6875 0.07211,0.295156 0.148141,0.568635 0.28125,0.84375 0.03856,0.07951 0.07574,0.26002 0.1875,0.25 C 21.896665,39.63142 22.296327,39.168163 22.5,39 c 0.657922,-0.543695 1.336268,-1.128923 2.09375,-1.53125 0.356411,-0.189291 0.948443,-0.478199 1.3125,-0.15625 0.09278,0.08212 0.152304,0.177346 0.21875,0.28125 0.427868,0.670253 -0.0031,1.175139 -0.28125,1.8125 -0.360114,0.824911 -0.728215,1.637874 -1.25,2.375 -0.448563,0.633877 -1.047857,1.213779 -1.40625,1.90625 -0.230708,0.445892 -0.37667,0.93432 -0.28125,1.4375 0.07734,0.4069 0.397486,0.626659 0.8125,0.53125 0.310661,-0.07145 0.510384,-0.316791 0.6875,-0.5625 0.315672,-0.438267 0.623789,-0.90374 0.9375,-1.34375 0.606944,-0.851049 1.333316,-1.647627 1.84375,-2.5625 0.615223,-1.102857 0.906925,-2.337543 0.90625,-3.59375 -3.92e-4,-1.026618 -0.366671,-2.597287 -1.5625,-2.8125 -0.225022,-0.0403 -0.49523,-0.03899 -0.71875,0 -0.277743,0.04836 -0.558698,0.158396 -0.8125,0.28125 -0.679925,0.328919 -1.276044,0.816492 -1.78125,1.375 -0.315215,0.348087 -0.594692,0.776711 -0.96875,1.0625 0,-0.758255 -0.121997,-1.582913 -0.5625,-2.21875 C 21.135509,34.484684 20.174049,34.034703 19.21875,34 19.075455,33.9948 18.921797,33.98642 18.78125,34 z M 13.25,46.28125 c -0.108898,-0.0084 -0.220607,0.01361 -0.34375,0.03125 -1.02588,0.146815 -1.345784,0.947276 -1.15625,1.875 0.242691,1.187157 1.199792,2.099335 2.125,2.8125 2.370481,1.827132 5.420983,2.818196 8.40625,2.6875 1.164871,-0.05097 2.430985,-0.255751 3.5,-0.75 0.573176,-0.264878 1.186824,-1.216575 0.40625,-1.625 -0.106968,-0.05598 -0.255811,-0.07415 -0.375,-0.09375 -0.340921,-0.05576 -0.708193,0.09471 -1.03125,0.1875 -0.569691,0.163588 -1.163535,0.312148 -1.75,0.40625 -1.752208,0.281432 -3.643053,-0.118088 -5.09375,-1.15625 -1.172692,-0.839506 -2.104594,-1.943306 -3,-3.0625 -0.479588,-0.599432 -0.925216,-1.253811 -1.6875,-1.3125 z M 12,52.0625 c -0.155118,0.0016 -0.313976,0.01502 -0.4375,0.03125 -0.260991,0.03442 -0.557731,0.02347 -0.78125,0.1875 -0.46621,0.342205 0.03595,1.031821 0.28125,1.34375 0.711275,0.903763 1.65913,1.651178 2.59375,2.3125 2.605525,1.843033 5.54458,2.907391 8.71875,3.125 0.912573,0.06252 1.847426,-0.006 2.75,-0.15625 0.330028,-0.05511 0.757502,-0.07629 1.0625,-0.21875 0.86312,-0.403633 0.614064,-2.012536 -0.15625,-2.375 -0.336368,-0.158142 -0.897293,0.04474 -1.25,0.09375 -0.834167,0.116319 -1.661041,0.114226 -2.5,0.09375 -2.198811,-0.0538 -4.552933,-0.712591 -6.46875,-1.78125 -0.753125,-0.420406 -1.415885,-0.930819 -2.0625,-1.5 C 13.356771,52.872624 12.947477,52.299915 12.4375,52.125 12.318769,52.08427 12.155118,52.06089 12,52.0625 z M 12.09375,57 c -0.371639,0.04161 -0.661816,0.224232 -0.90625,0.5 -0.168402,0.189945 -0.309522,0.35414 -0.40625,0.59375 -0.533309,1.319159 0.861878,2.564515 1.84375,3.1875 1.092739,0.693125 2.314965,1.223428 3.53125,1.65625 2.743231,0.976299 5.93236,1.591582 8.78125,0.71875 0.846802,-0.259215 1.696841,-0.734371 2.3125,-1.375 0.346803,-0.360938 0.573619,-0.893886 -0.0625,-1.125 C 26.810611,61.019455 26.373065,61.362333 26.03125,61.5 25.224316,61.825433 24.366191,62.082725 23.5,62.1875 22.359093,62.32582 21.349515,62.056365 20.25,61.78125 19.310827,61.546433 18.345541,61.307253 17.4375,60.96875 16.662807,60.679912 15.896692,60.354655 15.21875,59.875 15.016145,59.73167 14.791006,59.592928 14.625,59.40625 14.082323,58.795681 13.675641,58.080726 13.09375,57.5 c -0.251405,-0.250937 -0.615246,-0.542912 -1,-0.5 z"
       inkscape:connector-curvature="0"
       id="path26"
       style="fill:#ffffff;fill-opacity:1;stroke:none" />
    <path
       d="m 22.0625,11.09375 c -0.309406,-0.01 -0.641762,-0.0076 -0.9375,0.03125 -0.943094,0.123944 -1.89608,0.103621 -2.84375,0.25 -1.815364,0.280343 -3.549663,0.850977 -5.25,1.53125 -0.619144,0.247669 -1.243778,0.522137 -1.84375,0.8125 -0.22328,0.108042 -0.539238,0.170359 -0.71875,0.34375 -0.09344,0.0904 -0.0824,0.316606 -0.09375,0.4375 -0.03157,0.340028 -0.09208,0.69144 -0.125,1.03125 -0.09524,0.983488 -0.172382,1.975567 -0.125,2.96875 0.01637,-0.654099 0.06249,-1.323296 0.125,-1.96875 0.03292,-0.33981 0.09343,-0.691222 0.125,-1.03125 0.01135,-0.120894 3.1e-4,-0.3471 0.09375,-0.4375 0.179512,-0.173391 0.49547,-0.235708 0.71875,-0.34375 0.599972,-0.290363 1.224606,-0.564831 1.84375,-0.8125 1.700337,-0.680273 3.434636,-1.250907 5.25,-1.53125 0.94767,-0.146379 1.900656,-0.126056 2.84375,-0.25 0.295738,-0.03885 0.628094,-0.04125 0.9375,-0.03125 0.309406,0.01 0.609651,0.01829 0.90625,0.03125 1.067947,0.04683 2.126764,0.133563 3.1875,0.28125 2.261988,0.314977 4.442238,0.759876 6.53125,1.71875 5.263596,2.416354 8.567845,7.436884 10.5,12.71875 0.633959,1.732812 1.304675,3.566267 1.53125,5.40625 0.03071,0.249148 0.01848,0.4985 0.03125,0.75 0.02438,-0.589427 0.04048,-1.168022 -0.03125,-1.75 C 44.492175,29.410017 43.821459,27.576562 43.1875,25.84375 41.255345,20.561884 37.951096,15.541354 32.6875,13.125 30.598488,12.166126 28.418238,11.721227 26.15625,11.40625 25.095514,11.258563 24.036697,11.171833 22.96875,11.125 22.672151,11.11204 22.371906,11.103716 22.0625,11.09375 z m 19.5,21.78125 c -0.02084,0.447147 -0.0541,0.897768 -0.15625,1.34375 -0.557274,2.432254 -2.008491,4.5727 -3.6875,6.375 -1.149186,1.233553 -2.466591,2.330202 -3.8125,3.34375 -0.751381,0.565696 -1.574746,1.06909 -2.28125,1.6875 -0.813688,0.712294 -1.485644,1.580872 -2,2.53125 -1.142063,2.111304 -1.598921,4.565208 -1.5,6.96875 0.05254,-2.078871 0.516298,-4.150204 1.5,-5.96875 0.514356,-0.950378 1.186312,-1.818956 2,-2.53125 0.706504,-0.61841 1.529869,-1.121804 2.28125,-1.6875 1.345909,-1.013548 2.663314,-2.110197 3.8125,-3.34375 1.679009,-1.8023 3.130226,-3.942746 3.6875,-6.375 0.17951,-0.783699 0.197505,-1.557076 0.15625,-2.34375 z M 18.78125,33 c -0.42164,0.04074 -0.816316,0.18037 -1.1875,0.40625 -0.667073,0.406247 -1.040858,1.115554 -1.25,1.84375 -0.193587,0.674118 -0.236492,1.39954 -0.21875,2.125 0.03629,-0.382072 0.114942,-0.763517 0.21875,-1.125 0.209142,-0.728196 0.582927,-1.437503 1.25,-1.84375 0.371184,-0.22588 0.76586,-0.36551 1.1875,-0.40625 0.140547,-0.01358 0.294205,-0.0052 0.4375,0 0.955299,0.0347 1.916759,0.484684 2.46875,1.28125 0.440503,0.635837 0.5625,1.460495 0.5625,2.21875 0.374058,-0.285789 0.653535,-0.714413 0.96875,-1.0625 0.505206,-0.558508 1.101325,-1.046081 1.78125,-1.375 0.253802,-0.122854 0.534757,-0.23289 0.8125,-0.28125 0.22352,-0.03899 0.493728,-0.0403 0.71875,0 1.029832,0.185339 1.435739,1.361085 1.53125,2.34375 0.01172,-0.176694 0.03135,-0.35338 0.03125,-0.53125 -3.92e-4,-1.026618 -0.366671,-2.597287 -1.5625,-2.8125 -0.225022,-0.0403 -0.49523,-0.03899 -0.71875,0 -0.277743,0.04836 -0.558698,0.158396 -0.8125,0.28125 -0.679925,0.328919 -1.276044,0.816492 -1.78125,1.375 -0.315215,0.348087 -0.594692,0.776711 -0.96875,1.0625 0,-0.758255 -0.121997,-1.582913 -0.5625,-2.21875 C 21.135509,33.484684 20.174049,33.034703 19.21875,33 c -0.143295,-0.0052 -0.296953,-0.01358 -0.4375,0 z m 7.375,4.6875 c -0.09496,0.225988 -0.203998,0.470124 -0.3125,0.71875 -0.360114,0.824911 -0.728215,1.637874 -1.25,2.375 -0.448563,0.633877 -1.047857,1.213779 -1.40625,1.90625 -0.230708,0.445892 -0.37667,0.93432 -0.28125,1.4375 0.01096,0.05764 0.04222,0.106481 0.0625,0.15625 0.05541,-0.205642 0.119368,-0.401673 0.21875,-0.59375 0.358393,-0.692471 0.957687,-1.272373 1.40625,-1.90625 0.521785,-0.737126 0.889886,-1.550089 1.25,-2.375 0.265981,-0.609476 0.65164,-1.091112 0.3125,-1.71875 z m -7.96875,0.15625 c -0.0533,1.012617 0.16859,1.999894 0.21875,3.03125 0.0036,0.07361 0.02422,0.186249 0.03125,0.28125 0.06076,-0.455174 -0.01629,-0.973617 -0.03125,-1.28125 -0.03344,-0.68757 -0.162413,-1.358485 -0.21875,-2.03125 z m -4.9375,7.4375 c -0.108898,-0.0084 -0.220607,0.01361 -0.34375,0.03125 -1.02588,0.146815 -1.345784,0.947276 -1.15625,1.875 0.14381,-0.459409 0.527898,-0.785076 1.15625,-0.875 0.123143,-0.01764 0.234852,-0.03965 0.34375,-0.03125 0.762284,0.05869 1.207912,0.713068 1.6875,1.3125 0.895406,1.119194 1.827308,2.222994 3,3.0625 1.450697,1.038162 3.341542,1.437682 5.09375,1.15625 0.586465,-0.0941 1.180309,-0.242662 1.75,-0.40625 0.323057,-0.09279 0.690329,-0.24326 1.03125,-0.1875 0.119189,0.0196 0.268032,0.03777 0.375,0.09375 0.06773,0.03544 0.108578,0.08219 0.15625,0.125 0.270707,-0.385142 0.346531,-0.861926 -0.15625,-1.125 -0.106968,-0.05598 -0.255811,-0.07415 -0.375,-0.09375 -0.340921,-0.05576 -0.708193,0.09471 -1.03125,0.1875 -0.569691,0.163588 -1.163535,0.312148 -1.75,0.40625 -1.752208,0.281432 -3.643053,-0.118088 -5.09375,-1.15625 -1.172692,-0.839506 -2.104594,-1.943306 -3,-3.0625 -0.479588,-0.599432 -0.925216,-1.253811 -1.6875,-1.3125 z M 12,51.0625 c -0.155118,0.0016 -0.313976,0.01502 -0.4375,0.03125 -0.260991,0.03442 -0.557731,0.02347 -0.78125,0.1875 -0.330232,0.242395 -0.174808,0.666685 0.03125,1 0.22067,-0.147523 0.497709,-0.154227 0.75,-0.1875 0.123524,-0.01623 0.282382,-0.02965 0.4375,-0.03125 0.155118,-0.0016 0.318769,0.02177 0.4375,0.0625 0.509977,0.174915 0.919271,0.747624 1.3125,1.09375 0.646615,0.569181 1.309375,1.079594 2.0625,1.5 1.915817,1.068659 4.269939,1.72745 6.46875,1.78125 0.838959,0.02048 1.665833,0.02257 2.5,-0.09375 0.352707,-0.04901 0.913632,-0.251892 1.25,-0.09375 0.281613,0.13251 0.511592,0.435357 0.625,0.78125 0.198808,-0.637484 -0.07393,-1.521949 -0.625,-1.78125 -0.336368,-0.158142 -0.897293,0.04474 -1.25,0.09375 -0.834167,0.116319 -1.661041,0.114226 -2.5,0.09375 -2.198811,-0.0538 -4.552933,-0.712591 -6.46875,-1.78125 -0.753125,-0.420406 -1.415885,-0.930819 -2.0625,-1.5 C 13.356771,51.872624 12.947477,51.299915 12.4375,51.125 12.318769,51.08427 12.155118,51.06089 12,51.0625 z m 18.15625,4.0625 c -0.04706,1.071054 0.115243,2.132347 0.28125,3.1875 0.0171,0.108673 0.01779,0.231502 0.03125,0.34375 0.0704,-0.44567 0.03738,-0.907501 -0.03125,-1.34375 -0.114608,-0.728458 -0.237846,-1.451997 -0.28125,-2.1875 z M 12.09375,56 c -0.371639,0.04161 -0.661816,0.224232 -0.90625,0.5 -0.168402,0.189945 -0.309522,0.35414 -0.40625,0.59375 -0.15066,0.372662 -0.135606,0.745235 -0.03125,1.09375 0.01057,-0.03143 0.0185,-0.06223 0.03125,-0.09375 0.09673,-0.23961 0.237848,-0.403805 0.40625,-0.59375 0.244434,-0.275768 0.534611,-0.45839 0.90625,-0.5 0.384754,-0.04291 0.748595,0.249063 1,0.5 0.581891,0.580726 0.988573,1.295681 1.53125,1.90625 0.166006,0.186678 0.391145,0.32542 0.59375,0.46875 0.677942,0.479655 1.444057,0.804912 2.21875,1.09375 0.908041,0.338503 1.873327,0.577683 2.8125,0.8125 1.099515,0.275115 2.109093,0.54457 3.25,0.40625 0.866191,-0.104775 1.724316,-0.362067 2.53125,-0.6875 0.341815,-0.137667 0.779361,-0.480545 1.15625,-0.34375 0.05301,0.01926 0.08355,0.03932 0.125,0.0625 0.308962,-0.35691 0.471973,-0.845608 -0.125,-1.0625 C 26.810611,60.019455 26.373065,60.362333 26.03125,60.5 25.224316,60.825433 24.366191,61.082725 23.5,61.1875 22.359093,61.32582 21.349515,61.056365 20.25,60.78125 19.310827,60.546433 18.345541,60.307253 17.4375,59.96875 16.662807,59.679912 15.896692,59.354655 15.21875,58.875 15.016145,58.73167 14.791006,58.592928 14.625,58.40625 14.082323,57.795681 13.675641,57.080726 13.09375,56.5 c -0.251405,-0.250937 -0.615246,-0.542912 -1,-0.5 z"
       inkscape:connector-curvature="0"
       id="path4219"
       style="opacity:0.1;fill:#000000;fill-opacity:1;stroke:none" />
    <path
       d="m 11.96875,6 c 2.119271,8.520776 4.5625,18.486913 4.5625,18.84375 L 18.96875,6 12,6 c -0.01036,0 -0.0209,-5.19e-5 -0.03125,0 z"
       inkscape:connector-curvature="0"
       id="path5768"
       style="opacity:0.3;fill:url(#linearGradient3226);fill-opacity:1;stroke:none" />
    <path
       d="M 30.46875,6 21.625,34.3125 40.59375,6 30.46875,6 z"
       inkscape:connector-curvature="0"
       id="path5766"
       style="opacity:0.4;fill:url(#linearGradient5782);fill-opacity:1;stroke:none" />
    <path
       d="M 54.96875,6 28,34.875 71.90625,6 54.96875,6 z"
       inkscape:connector-curvature="0"
       id="path5764"
       style="opacity:0.5;fill:url(#linearGradient5784);fill-opacity:1;stroke:none" />
    <path
       d="M 90,13.09375 30.53125,37.4375 90,28.25 90,13.09375 z"
       inkscape:connector-curvature="0"
       id="path5762"
       style="opacity:0.5;fill:url(#linearGradient5770);fill-opacity:1;stroke:none" />
    <path
       d="M 31.6875,41.8125 90,53.40625 90,41.9375 31.6875,41.8125 z"
       inkscape:connector-curvature="0"
       id="path5760"
       style="opacity:0.5;fill:url(#linearGradient5774);fill-opacity:1;stroke:none" />
    <path
       d="M 27.84375,44.65625 66.09375,70 84,70 c 1.941202,0 3.654722,-0.922367 4.75,-2.34375 l -60.90625,-23 z"
       inkscape:connector-curvature="0"
       id="path5758"
       style="opacity:0.4;fill:url(#linearGradient5776);fill-opacity:1;stroke:none" />
    <path
       d="M 28,48.3125 42.9375,70.75 44,70 49.1875,70 28,48.3125 z"
       inkscape:connector-curvature="0"
       id="path4224"
       style="opacity:0.3;fill:url(#linearGradient5778);fill-opacity:1;stroke:none" />
  </g>
</svg>
