<?xml version="1.0" encoding="UTF-8" standalone="no"?>
<!-- Created with Inkscape (http://www.inkscape.org/) -->

<svg
   xmlns:dc="http://purl.org/dc/elements/1.1/"
   xmlns:cc="http://creativecommons.org/ns#"
   xmlns:rdf="http://www.w3.org/1999/02/22-rdf-syntax-ns#"
   xmlns:svg="http://www.w3.org/2000/svg"
   xmlns="http://www.w3.org/2000/svg"
   xmlns:xlink="http://www.w3.org/1999/xlink"
   xmlns:inkscape="http://www.inkscape.org/namespaces/inkscape"
   version="1.0"
   width="96"
   height="96"
   id="svg2408">
  <defs
     id="defs2410">
    <linearGradient
       id="linearGradient4384">
      <stop
         id="stop4386"
         style="stop-color:#ffffff;stop-opacity:1"
         offset="0" />
      <stop
         id="stop4388"
         style="stop-color:#ffffff;stop-opacity:0"
         offset="1" />
    </linearGradient>
    <linearGradient
       id="linearGradient4367">
      <stop
         id="stop4369"
         style="stop-color:#ffffff;stop-opacity:0.71755725"
         offset="0" />
      <stop
         id="stop4371"
         style="stop-color:#ffffff;stop-opacity:1"
         offset="1" />
    </linearGradient>
    <linearGradient
       x1="45.447727"
       y1="92.539597"
       x2="45.447727"
       y2="7.0165396"
       id="ButtonShadow"
       gradientUnits="userSpaceOnUse"
       gradientTransform="scale(1.0058652,0.994169)">
      <stop
         id="stop3750"
         style="stop-color:#000000;stop-opacity:1"
         offset="0" />
      <stop
         id="stop3752"
         style="stop-color:#000000;stop-opacity:0.58823532"
         offset="1" />
    </linearGradient>
    <linearGradient
       id="linearGradient3737">
      <stop
         id="stop3739"
         style="stop-color:#ffffff;stop-opacity:1"
         offset="0" />
      <stop
         id="stop3741"
         style="stop-color:#ffffff;stop-opacity:0"
         offset="1" />
    </linearGradient>
    <filter
       color-interpolation-filters="sRGB"
       id="filter3174">
      <feGaussianBlur
         id="feGaussianBlur3176"
         stdDeviation="1.71" />
    </filter>
    <filter
       x="-0.192"
       y="-0.192"
       width="1.3839999"
       height="1.3839999"
       color-interpolation-filters="sRGB"
       id="filter3794">
      <feGaussianBlur
         id="feGaussianBlur3796"
         stdDeviation="5.28" />
    </filter>
    <linearGradient
       x1="48"
       y1="20.220806"
       x2="48"
       y2="138.66119"
       id="linearGradient3613"
       xlink:href="#linearGradient3737"
       gradientUnits="userSpaceOnUse" />
    <linearGradient
       x1="45.447727"
       y1="92.539597"
       x2="45.447727"
       y2="7.0165396"
       id="ButtonShadow-0"
       gradientUnits="userSpaceOnUse"
       gradientTransform="matrix(1.0058652,0,0,0.994169,100,0)">
      <stop
         id="stop3750-8"
         style="stop-color:#000000;stop-opacity:1"
         offset="0" />
      <stop
         id="stop3752-5"
         style="stop-color:#000000;stop-opacity:0.58823532"
         offset="1" />
    </linearGradient>
    <linearGradient
       x1="32.251034"
       y1="6.1317081"
       x2="32.251034"
       y2="90.238609"
       id="linearGradient3780"
       xlink:href="#ButtonShadow-0"
       gradientUnits="userSpaceOnUse"
       gradientTransform="matrix(1.0238095,0,0,1.0119048,-1.1428571,-98.071429)" />
    <linearGradient
       x1="32.251034"
       y1="6.1317081"
       x2="32.251034"
       y2="90.238609"
       id="linearGradient3772"
       xlink:href="#ButtonShadow-0"
       gradientUnits="userSpaceOnUse"
       gradientTransform="matrix(1.0238095,0,0,1.0119048,-1.1428571,-98.071429)" />
    <linearGradient
       x1="32.251034"
       y1="6.1317081"
       x2="32.251034"
       y2="90.238609"
       id="linearGradient3725"
       xlink:href="#ButtonShadow-0"
       gradientUnits="userSpaceOnUse"
       gradientTransform="matrix(1.0238095,0,0,1.0119048,-1.1428571,-98.071429)" />
    <linearGradient
       x1="32.251034"
       y1="6.1317081"
       x2="32.251034"
       y2="90.238609"
       id="linearGradient3721"
       xlink:href="#ButtonShadow-0"
       gradientUnits="userSpaceOnUse"
       gradientTransform="translate(0,-97)" />
    <linearGradient
       x1="32.251034"
       y1="6.1317081"
       x2="32.251034"
       y2="90.238609"
       id="linearGradient3026"
       xlink:href="#ButtonShadow-0"
       gradientUnits="userSpaceOnUse"
       gradientTransform="matrix(1.0238095,0,0,1.0119048,-1.1428571,-98.071429)" />
    <clipPath
       id="clipPath4355">
      <rect
         width="84"
         height="80"
         rx="6"
         ry="6"
         x="6"
         y="6"
         id="rect4357"
         style="fill:#ffffff;fill-opacity:1;fill-rule:nonzero;stroke:none" />
    </clipPath>
    <radialGradient
       cx="48"
       cy="87.792389"
       r="42"
       fx="48"
       fy="87.792389"
       id="radialGradient4375"
       xlink:href="#linearGradient4367"
       gradientUnits="userSpaceOnUse"
       gradientTransform="matrix(1,-6.7114942e-8,8.4282233e-8,1.2557894,109.99999,-24.505592)" />
    <linearGradient
       x1="48"
       y1="88"
       x2="48"
       y2="-40"
       id="linearGradient4390"
       xlink:href="#linearGradient4384"
       gradientUnits="userSpaceOnUse"
       gradientTransform="matrix(1,0,0,-1,0,92)" />
    <linearGradient
       x1="48"
       y1="82"
       x2="112.12357"
       y2="82.454597"
       id="linearGradient4429"
       xlink:href="#linearGradient4384"
       gradientUnits="userSpaceOnUse"
       spreadMethod="reflect" />
    <linearGradient
       id="linearGradient3892">
      <stop
         id="stop3894"
         style="stop-color:#000000;stop-opacity:0.58823532"
         offset="0" />
      <stop
         id="stop3896"
         style="stop-color:#000000;stop-opacity:0.47058824"
         offset="0.11780351" />
      <stop
         id="stop3898"
         style="stop-color:#000000;stop-opacity:0.39215687"
         offset="0.23809524" />
      <stop
         id="stop3900"
         style="stop-color:#000000;stop-opacity:0.3137255"
         offset="1" />
    </linearGradient>
    <linearGradient
       x1="90"
       y1="88"
       x2="48"
       y2="88"
       id="linearGradient3228"
       xlink:href="#linearGradient3892"
       gradientUnits="userSpaceOnUse"
       spreadMethod="reflect" />
    <linearGradient
       id="linearGradient3641-7">
      <stop
         id="stop3643-7"
         style="stop-color:#bdb8c4;stop-opacity:1"
         offset="0" />
      <stop
         id="stop3645-6"
         style="stop-color:#dbd9df;stop-opacity:1"
         offset="1" />
    </linearGradient>
    <linearGradient
       x1="48"
       y1="90"
       x2="48"
       y2="5.9877172"
       id="linearGradient3218-7"
       xlink:href="#linearGradient3641-7"
       gradientUnits="userSpaceOnUse" />
    <linearGradient
       id="linearGradient3664">
      <stop
         id="stop3666"
         style="stop-color:#000000;stop-opacity:0.29838711"
         offset="0" />
      <stop
         id="stop3668"
         style="stop-color:#ffffff;stop-opacity:0.64516127"
         offset="1" />
    </linearGradient>
    <linearGradient
       x1="16.162441"
       y1="44.48222"
       x2="76.771591"
       y2="44.48222"
       id="linearGradient3674"
       xlink:href="#linearGradient3719"
       gradientUnits="userSpaceOnUse" />
    <linearGradient
       id="linearGradient3719">
      <stop
         id="stop3721"
         style="stop-color:#4b4b4b;stop-opacity:1"
         offset="0" />
      <stop
         id="stop3723"
         style="stop-color:#232323;stop-opacity:1"
         offset="0.37373093" />
      <stop
         id="stop3725"
         style="stop-color:#5c5c5c;stop-opacity:1"
         offset="1" />
    </linearGradient>
    <linearGradient
       x1="16.162441"
       y1="44.48222"
       x2="76.771591"
       y2="44.48222"
       id="linearGradient3707"
       xlink:href="#linearGradient3650"
       gradientUnits="userSpaceOnUse" />
    <linearGradient
       id="linearGradient3650">
      <stop
         id="stop3709"
         style="stop-color:#141414;stop-opacity:1"
         offset="0" />
      <stop
         id="stop3654"
         style="stop-color:#616161;stop-opacity:1"
         offset="1" />
    </linearGradient>
    <radialGradient
       cx="48"
       cy="48.000935"
       r="27.001867"
       fx="48"
       fy="48.000935"
       id="radialGradient3738"
       xlink:href="#linearGradient3732"
       gradientUnits="userSpaceOnUse"
       gradientTransform="matrix(1,0,0,0.99996543,1.6939927e-7,-1.9983408)" />
    <linearGradient
       id="linearGradient3732">
      <stop
         id="stop3734"
         style="stop-color:#000000;stop-opacity:0"
         offset="0" />
      <stop
         id="stop3740"
         style="stop-color:#000000;stop-opacity:0"
         offset="0.94999999" />
      <stop
         id="stop3736"
         style="stop-color:#000000;stop-opacity:1"
         offset="1" />
    </linearGradient>
    <linearGradient
       x1="16.162441"
       y1="44.48222"
       x2="76.771591"
       y2="44.48222"
       id="linearGradient3744"
       xlink:href="#linearGradient3746"
       gradientUnits="userSpaceOnUse" />
    <linearGradient
       id="linearGradient3746">
      <stop
         id="stop3748"
         style="stop-color:#5d5d5d;stop-opacity:1"
         offset="0" />
      <stop
         id="stop3753"
         style="stop-color:#0a0a0a;stop-opacity:1"
         offset="0.60000002" />
      <stop
         id="stop3751"
         style="stop-color:#4e4e4e;stop-opacity:1"
         offset="1" />
    </linearGradient>
    <linearGradient
       x1="16.162441"
       y1="52.098946"
       x2="76.838295"
       y2="52.098946"
       id="linearGradient3264"
       xlink:href="#linearGradient3664"
       gradientUnits="userSpaceOnUse" />
    <radialGradient
       cx="47.729706"
       cy="45.997448"
       r="13.637059"
       fx="47.729706"
       fy="45.997448"
       id="radialGradient3687"
       xlink:href="#linearGradient3681"
       gradientUnits="userSpaceOnUse" />
    <linearGradient
       id="linearGradient3681">
      <stop
         id="stop3683"
         style="stop-color:#ffffff;stop-opacity:0.18548387"
         offset="0" />
      <stop
         id="stop3689"
         style="stop-color:#ffffff;stop-opacity:0.10887097"
         offset="0.3086735" />
      <stop
         id="stop3691"
         style="stop-color:#000000;stop-opacity:0"
         offset="0.43622452" />
      <stop
         id="stop3693"
         style="stop-color:#000000;stop-opacity:0"
         offset="0.54464293" />
      <stop
         id="stop3695"
         style="stop-color:#ffffff;stop-opacity:0"
         offset="0.58290821" />
      <stop
         id="stop3697"
         style="stop-color:#000000;stop-opacity:0.1814516"
         offset="0.61479598" />
      <stop
         id="stop3699"
         style="stop-color:#000000;stop-opacity:0.43145162"
         offset="0.69132656" />
      <stop
         id="stop3701"
         style="stop-color:#ffffff;stop-opacity:0.08064516"
         offset="0.78061229" />
      <stop
         id="stop3703"
         style="stop-color:#000000;stop-opacity:0"
         offset="0.87627554" />
      <stop
         id="stop3685"
         style="stop-color:#ffffff;stop-opacity:0"
         offset="1" />
    </linearGradient>
    <linearGradient
       x1="33.199345"
       y1="45.997448"
       x2="67.957489"
       y2="45.997448"
       id="linearGradient3733"
       xlink:href="#linearGradient3727"
       gradientUnits="userSpaceOnUse" />
    <linearGradient
       id="linearGradient3727">
      <stop
         id="stop3729"
         style="stop-color:#ffffff;stop-opacity:1"
         offset="0" />
      <stop
         id="stop3731"
         style="stop-color:#ffffff;stop-opacity:0"
         offset="1" />
    </linearGradient>
    <filter
       color-interpolation-filters="sRGB"
       id="filter3774">
      <feGaussianBlur
         id="feGaussianBlur3776"
         stdDeviation="0.27274118" />
    </filter>
    <linearGradient
       x1="40.068184"
       y1="58.17598"
       x2="31.793724"
       y2="49.665066"
       id="linearGradient3767"
       xlink:href="#linearGradient3761"
       gradientUnits="userSpaceOnUse" />
    <linearGradient
       id="linearGradient3761">
      <stop
         id="stop3763"
         style="stop-color:#ffffff;stop-opacity:1"
         offset="0" />
      <stop
         id="stop3765"
         style="stop-color:#ffffff;stop-opacity:0"
         offset="1" />
    </linearGradient>
    <linearGradient
       x1="40.068184"
       y1="58.17598"
       x2="40.068184"
       y2="41.697067"
       id="linearGradient3771"
       xlink:href="#linearGradient3761"
       gradientUnits="userSpaceOnUse" />
    <linearGradient
       x1="40.068184"
       y1="58.17598"
       x2="40.068184"
       y2="41.697067"
       id="linearGradient3775"
       xlink:href="#linearGradient3761"
       gradientUnits="userSpaceOnUse" />
    <linearGradient
       x1="40.068184"
       y1="58.17598"
       x2="40.068184"
       y2="41.697067"
       id="linearGradient3779"
       xlink:href="#linearGradient3761"
       gradientUnits="userSpaceOnUse" />
    <linearGradient
       x1="40.068184"
       y1="58.17598"
       x2="40.068184"
       y2="41.697067"
       id="linearGradient3791"
       xlink:href="#linearGradient3761"
       gradientUnits="userSpaceOnUse" />
    <linearGradient
       x1="64.072342"
       y1="64.036171"
       x2="46.604744"
       y2="46.568573"
       id="linearGradient3817"
       xlink:href="#linearGradient3761"
       gradientUnits="userSpaceOnUse"
       gradientTransform="translate(0,-2)" />
    <clipPath
       id="clipPath3798">
      <path
         d="m 61.366765,45.997448 a 13.637059,13.637059 0 1 1 -27.274118,0 13.637059,13.637059 0 1 1 27.274118,0 z"
         transform="matrix(1.0266143,0,0,1.0266143,-0.999999,0.778362)"
         id="path3800"
         style="fill:#ff00ff;fill-opacity:1;stroke:none" />
    </clipPath>
    <filter
       x="-0.23999999"
       y="-0.24000001"
       width="1.48"
       height="1.48"
       color-interpolation-filters="sRGB"
       id="filter3833">
      <feGaussianBlur
         id="feGaussianBlur3835"
         stdDeviation="2.8000002" />
    </filter>
    <filter
       color-interpolation-filters="sRGB"
       id="filter3987">
      <feGaussianBlur
         id="feGaussianBlur3989"
         stdDeviation="0.42020394" />
    </filter>
    <linearGradient
       x1="53.510502"
       y1="59.608364"
       x2="61.49099"
       y2="39.92907"
       id="linearGradient3967"
       xlink:href="#linearGradient3881"
       gradientUnits="userSpaceOnUse"
       gradientTransform="matrix(1.0266143,0,0,1.0266143,-0.9999987,50.778362)" />
    <linearGradient
       id="linearGradient3881">
      <stop
         id="stop3883"
         style="stop-color:#d40000;stop-opacity:0"
         offset="0" />
      <stop
         id="stop3889"
         style="stop-color:#d40000;stop-opacity:1"
         offset="0.5" />
      <stop
         id="stop3885"
         style="stop-color:#d40000;stop-opacity:0"
         offset="1" />
    </linearGradient>
    <linearGradient
       x1="53.730709"
       y1="60.139374"
       x2="62.58559"
       y2="38.831467"
       id="linearGradient3969"
       xlink:href="#linearGradient3891"
       gradientUnits="userSpaceOnUse"
       gradientTransform="matrix(0.72592593,0.72592593,-0.72592593,0.72592593,46.742509,29.961028)" />
    <linearGradient
       id="linearGradient3891">
      <stop
         id="stop3893"
         style="stop-color:#d42aff;stop-opacity:0"
         offset="0" />
      <stop
         id="stop3899"
         style="stop-color:#d42aff;stop-opacity:1"
         offset="0.5" />
      <stop
         id="stop3895"
         style="stop-color:#d42aff;stop-opacity:0"
         offset="1" />
    </linearGradient>
    <linearGradient
       x1="53.387505"
       y1="60.34634"
       x2="61.982975"
       y2="39.437084"
       id="linearGradient3971"
       xlink:href="#linearGradient3901"
       gradientUnits="userSpaceOnUse"
       gradientTransform="matrix(0,1.0266143,-1.0266143,0,95.221638,49.000001)" />
    <linearGradient
       id="linearGradient3901">
      <stop
         id="stop3903"
         style="stop-color:#6600ff;stop-opacity:0"
         offset="0" />
      <stop
         id="stop3909"
         style="stop-color:#6600ff;stop-opacity:1"
         offset="0.5" />
      <stop
         id="stop3905"
         style="stop-color:#6600ff;stop-opacity:0"
         offset="1" />
    </linearGradient>
    <linearGradient
       x1="53.295853"
       y1="59.182693"
       x2="61.88982"
       y2="40.223007"
       id="linearGradient3973"
       xlink:href="#linearGradient3911"
       gradientUnits="userSpaceOnUse"
       gradientTransform="matrix(-0.72592593,0.72592593,-0.72592593,-0.72592593,116.03897,96.742509)" />
    <linearGradient
       id="linearGradient3911">
      <stop
         id="stop3913"
         style="stop-color:#2a7fff;stop-opacity:0"
         offset="0" />
      <stop
         id="stop3919"
         style="stop-color:#2a7fff;stop-opacity:1"
         offset="0.5" />
      <stop
         id="stop3915"
         style="stop-color:#2a7fff;stop-opacity:0"
         offset="1" />
    </linearGradient>
    <linearGradient
       x1="53.87949"
       y1="61.330303"
       x2="60.999012"
       y2="39.683075"
       id="linearGradient3975"
       xlink:href="#linearGradient3921"
       gradientUnits="userSpaceOnUse"
       gradientTransform="matrix(-1.0266143,0,0,-1.0266143,96.999997,145.22164)" />
    <linearGradient
       id="linearGradient3921">
      <stop
         id="stop3923"
         style="stop-color:#5fd3bc;stop-opacity:0"
         offset="0" />
      <stop
         id="stop3929"
         style="stop-color:#5fd3bc;stop-opacity:1"
         offset="0.5" />
      <stop
         id="stop3925"
         style="stop-color:#5fd3bc;stop-opacity:0"
         offset="1" />
    </linearGradient>
    <linearGradient
       x1="53.469795"
       y1="59.878456"
       x2="60.324341"
       y2="39.70118"
       id="linearGradient3977"
       xlink:href="#linearGradient3851-6"
       gradientUnits="userSpaceOnUse"
       gradientTransform="matrix(-0.72592593,-0.72592593,0.72592593,-0.72592593,49.25749,166.03897)" />
    <linearGradient
       id="linearGradient3851-6">
      <stop
         id="stop3853"
         style="stop-color:#55d400;stop-opacity:0"
         offset="0" />
      <stop
         id="stop3859"
         style="stop-color:#55d400;stop-opacity:1"
         offset="0.5" />
      <stop
         id="stop3855"
         style="stop-color:#55d400;stop-opacity:0"
         offset="1" />
    </linearGradient>
    <linearGradient
       x1="61.628212"
       y1="39.683075"
       x2="52.881298"
       y2="60.715324"
       id="linearGradient3979"
       xlink:href="#linearGradient3861"
       gradientUnits="userSpaceOnUse"
       gradientTransform="matrix(0,-1.0266143,1.0266143,0,0.77836254,147)" />
    <linearGradient
       id="linearGradient3861">
      <stop
         id="stop3863"
         style="stop-color:#ffcc00;stop-opacity:0"
         offset="0" />
      <stop
         id="stop3869"
         style="stop-color:#ffcc00;stop-opacity:1"
         offset="0.5" />
      <stop
         id="stop3865"
         style="stop-color:#ffcc00;stop-opacity:0"
         offset="1" />
    </linearGradient>
    <linearGradient
       x1="53.034939"
       y1="61.183025"
       x2="61.802849"
       y2="40.483921"
       id="linearGradient3981"
       xlink:href="#linearGradient3871"
       gradientUnits="userSpaceOnUse"
       gradientTransform="matrix(0.72592593,-0.72592593,0.72592593,0.72592593,-20.03897,99.25749)" />
    <linearGradient
       id="linearGradient3871">
      <stop
         id="stop3873"
         style="stop-color:#ff6600;stop-opacity:0"
         offset="0" />
      <stop
         id="stop3879"
         style="stop-color:#ff6600;stop-opacity:1"
         offset="0.5" />
      <stop
         id="stop3875"
         style="stop-color:#ff6600;stop-opacity:0"
         offset="1" />
    </linearGradient>
    <radialGradient
       cx="41"
       cy="52"
       r="9.7082043"
       fx="41"
       fy="52"
       id="radialGradient3803"
       xlink:href="#linearGradient3797"
       gradientUnits="userSpaceOnUse"
       gradientTransform="matrix(1,0,0,0.61803397,0,19.862234)" />
    <linearGradient
       id="linearGradient3797">
      <stop
         id="stop3799"
         style="stop-color:#ffffff;stop-opacity:1"
         offset="0" />
      <stop
         id="stop3805"
         style="stop-color:#ffffff;stop-opacity:1"
         offset="0.5" />
      <stop
         id="stop3801"
         style="stop-color:#ffffff;stop-opacity:0"
         offset="1" />
    </linearGradient>
  </defs>
  <metadata
     id="metadata2413">
    <rdf:RDF>
      <cc:Work
         rdf:about="">
        <dc:format>image/svg+xml</dc:format>
        <dc:type
           rdf:resource="http://purl.org/dc/dcmitype/StillImage" />
        <dc:title />
      </cc:Work>
    </rdf:RDF>
  </metadata>
  <g
     id="layer2"
     style="display:none">
    <rect
       width="86"
       height="85"
       rx="6"
       ry="6"
       x="5"
       y="7"
       id="rect3745"
       style="opacity:0.9;fill:url(#ButtonShadow);fill-opacity:1;fill-rule:nonzero;stroke:none;filter:url(#filter3174)" />
  </g>
  <g
     id="layer3"
     style="display:inline">
    <path
       d="m 12,-95.03125 c -5.5110903,0 -10.03125,4.52016 -10.03125,10.03125 l 0,71 c 0,5.5110902 4.5201598,10.03125 10.03125,10.03125 l 72,0 c 5.51109,0 10.03125,-4.5201597 10.03125,-10.03125 l 0,-71 c 0,-5.51109 -4.52016,-10.03125 -10.03125,-10.03125 l -72,0 z"
       transform="scale(1,-1)"
       id="path3786"
       style="opacity:0.07999998;fill:url(#linearGradient3026);fill-opacity:1;fill-rule:nonzero;stroke:none;display:inline" />
    <path
       d="m 12,-94.03125 c -4.971633,0 -9.03125,4.059617 -9.03125,9.03125 l 0,71 c 0,4.9716329 4.0596171,9.03125 9.03125,9.03125 l 72,0 c 4.971633,0 9.03125,-4.059617 9.03125,-9.03125 l 0,-71 c 0,-4.971633 -4.059617,-9.03125 -9.03125,-9.03125 l -72,0 z"
       transform="scale(1,-1)"
       id="path3778"
       style="opacity:0.1;fill:url(#linearGradient3780);fill-opacity:1;fill-rule:nonzero;stroke:none;display:inline" />
    <path
       d="m 12,-93 c -4.4091333,0 -8,3.590867 -8,8 l 0,71 c 0,4.4091333 3.5908667,8 8,8 l 72,0 c 4.409133,0 8,-3.5908667 8,-8 l 0,-71 c 0,-4.409133 -3.590867,-8 -8,-8 l -72,0 z"
       transform="scale(1,-1)"
       id="path3770"
       style="opacity:0.2;fill:url(#linearGradient3772);fill-opacity:1;fill-rule:nonzero;stroke:none;display:inline" />
    <rect
       width="86"
       height="85"
       rx="7"
       ry="7"
       x="5"
       y="-92"
       transform="scale(1,-1)"
       id="rect3723"
       style="opacity:0.3;fill:url(#linearGradient3725);fill-opacity:1;fill-rule:nonzero;stroke:none;display:inline" />
    <rect
       width="84"
       height="84"
       rx="6"
       ry="6"
       x="6"
       y="-91"
       transform="scale(1,-1)"
       id="rect3716"
       style="opacity:0.45;fill:url(#linearGradient3721);fill-opacity:1;fill-rule:nonzero;stroke:none;display:inline" />
  </g>
  <g
     id="layer1">
    <rect
       width="84"
       height="84"
       rx="6"
       ry="6"
       x="6"
       y="6"
       id="rect2419-3"
       style="fill:url(#linearGradient3218-7);fill-opacity:1;fill-rule:nonzero;stroke:none" />
    <path
       d="M 120.78125,6.125 C 118.04223,6.6826484 116,9.0915 116,12 l 0,68 c 0,3.324 2.676,6 6,6 l 72,0 c 3.324,0 6,-2.676 6,-6 l 0,-68 c 0,-2.9085 -2.04223,-5.3173516 -4.78125,-5.875 2.20512,0.5362071 3.8125,2.4908437 3.8125,4.875 l 0,68 c 0,2.80489 -2.22636,5.03125 -5.03125,5.03125 l -72,0 c -2.80489,0 -5.03125,-2.22636 -5.03125,-5.03125 l 0,-68 c 0,-2.3841563 1.60738,-4.3387929 3.8125,-4.875 z"
       inkscape:connector-curvature="0"
       id="rect4359"
       style="opacity:0.2;fill:url(#radialGradient4375);fill-opacity:1;fill-rule:nonzero;stroke:none" />
    <path
       d="M 12,86 C 8.676,86 6,83.324 6,80 L 6,12 C 6,8.676 8.676,6 12,6 l 72,0 c 3.324,0 6,2.676 6,6 l 0,68 c 0,3.324 -2.676,6 -6,6 z m 0,-0.96875 72,0 c 2.80489,0 5.03125,-2.22636 5.03125,-5.03125 l 0,-68 C 89.03125,9.19511 86.80489,6.96875 84,6.96875 l -72,0 C 9.1951102,6.96875 6.96875,9.19511 6.96875,12 l 0,68 c 0,2.80489 2.2263602,5.03125 5.03125,5.03125 z"
       inkscape:connector-curvature="0"
       id="rect4377"
       style="opacity:0.4;fill:url(#linearGradient4390);fill-opacity:1;fill-rule:nonzero;stroke:none" />
    <path
       d="m 6,78 0,2 c 0,3.324 2.676,6 6,6 l 72,0 c 3.324,0 6,-2.676 6,-6 l 0,-2 c 0,3.324 -2.676,6 -6,6 L 12,84 C 8.676,84 6,81.324 6,78 z"
       inkscape:connector-curvature="0"
       id="rect4414"
       style="opacity:0.15;fill:url(#linearGradient4429);fill-opacity:1;fill-rule:nonzero;stroke:none" />
    <path
       d="m 6,100 0,1 c 0,3.324 2.676,6 6,6 l 72,0 c 3.324,0 6,-2.676 6,-6 l 0,-1 c 0,3.324 -2.676,6 -6,6 l -72,0 c -3.324,0 -6,-2.676 -6,-6 z"
       inkscape:connector-curvature="0"
       id="path4412"
       style="opacity:0.15;fill:#000000;fill-opacity:1;fill-rule:nonzero;stroke:none" />
  </g>
  <g
     id="layer4"
     style="display:inline">
    <path
       d="m 6,80 0,4 c 0,3.324 2.676,6 6,6 l 72,0 c 3.324,0 6,-2.676 6,-6 l 0,-4 c 0,3.324 -2.676,6 -6,6 L 12,86 C 8.676,86 6,83.324 6,80 z"
       inkscape:connector-curvature="0"
       id="path3888"
       style="fill:url(#linearGradient3228);fill-opacity:1;fill-rule:nonzero;stroke:none;display:inline" />
    <path
       d="m 6,82 0,2 c 0,3.324 2.676,6 6,6 l 72,0 c 3.324,0 6,-2.676 6,-6 l 0,-2 c 0,3.324 -2.676,6 -6,6 L 12,88 C 8.676,88 6,85.324 6,82 z"
       inkscape:connector-curvature="0"
       id="rect4345"
       style="opacity:0.1;color:#000000;fill:#000000;fill-opacity:1;fill-rule:nonzero;stroke:none;stroke-width:1.5;marker:none;visibility:visible;display:inline;overflow:visible;enable-background:accumulate" />
    <path
       d="m 6,83 0,1 c 0,3.324 2.676,6 6,6 l 72,0 c 3.324,0 6,-2.676 6,-6 l 0,-1 c 0,3.324 -2.676,6 -6,6 L 12,89 C 8.676,89 6,86.324 6,83 z"
       inkscape:connector-curvature="0"
       id="rect4336"
       style="opacity:0.15;color:#000000;fill:#000000;fill-opacity:1;fill-rule:nonzero;stroke:none;stroke-width:1.5;marker:none;visibility:visible;display:inline;overflow:visible;enable-background:accumulate" />
  </g>
  <g
     id="layer5"
     style="display:inline">
    <rect
       width="66"
       height="62"
       rx="12"
       ry="12"
       x="15"
       y="15"
       clip-path="url(#clipPath4355)"
       id="rect3171"
       style="opacity:0.1;fill:url(#linearGradient3613);fill-opacity:1;fill-rule:nonzero;stroke:#ffffff;stroke-width:0.5;stroke-linecap:round;stroke-linejoin:miter;stroke-miterlimit:4;stroke-opacity:1;stroke-dasharray:none;stroke-dashoffset:0;filter:url(#filter3794)" />
  </g>
  <g
     id="layer6">
    <path
       d="m 76.771595,44.48222 a 30.304577,30.304577 0 1 1 -60.609154,0 30.304577,30.304577 0 1 1 60.609154,0 z"
       transform="matrix(0,1.0559461,-1.0559461,0,94.970826,-3.0666668)"
       id="path3660"
       style="fill:url(#linearGradient3264);fill-opacity:1;stroke:none;display:inline" />
    <path
       d="m 76.771595,44.48222 a 30.304577,30.304577 0 1 1 -60.609154,0 30.304577,30.304577 0 1 1 60.609154,0 z"
       transform="matrix(0.69999999,0.69999999,-0.69999999,0.69999999,46.610641,-17.664466)"
       id="path3648"
       style="fill:url(#linearGradient3674);fill-opacity:1;stroke:none;display:inline" />
    <path
       d="m 76.771595,44.48222 a 30.304577,30.304577 0 1 1 -60.609154,0 30.304577,30.304577 0 1 1 60.609154,0 z"
       transform="matrix(0,0.9816999,-0.9816999,0,91.66819,0.3833332)"
       id="path3672"
       style="fill:none;stroke:#000000;stroke-width:0.50932068;stroke-miterlimit:4;stroke-dasharray:none;display:inline" />
    <path
       d="m 76.771595,44.48222 a 30.304577,30.304577 0 1 1 -60.609154,0 30.304577,30.304577 0 1 1 60.609154,0 z"
       transform="matrix(0,0.89095453,-0.89095453,0,87.631635,4.5999997)"
       id="path3697"
       style="fill:url(#linearGradient3707);fill-opacity:1;stroke:none;display:inline" />
    <g
       transform="matrix(0.92592592,0,0,0.92592592,3.5555562,1.5555562)"
       id="g3691"
       style="opacity:0.2;display:inline">
      <path
         d="m 76.771595,44.48222 a 30.304577,30.304577 0 1 1 -60.609154,0 30.304577,30.304577 0 1 1 60.609154,0 z"
         transform="matrix(0,0.88270495,-0.88270495,0,87.264675,6.9833334)"
         id="path3676"
         style="fill:none;stroke:#000000;stroke-width:0.61175603;stroke-miterlimit:4;stroke-dasharray:none" />
      <path
         d="m 76.771595,44.48222 a 30.304577,30.304577 0 1 1 -60.609154,0 30.304577,30.304577 0 1 1 60.609154,0 z"
         transform="matrix(0,0.81670832,-0.81670832,0,84.328998,10.05)"
         id="path3678"
         style="fill:none;stroke:#000000;stroke-width:0.66119081;stroke-miterlimit:4;stroke-dasharray:none" />
      <path
         d="m 76.771595,44.48222 a 30.304577,30.304577 0 1 1 -60.609154,0 30.304577,30.304577 0 1 1 60.609154,0 z"
         transform="matrix(0,0.84970663,-0.84970663,0,85.796836,8.5166669)"
         id="path3680"
         style="fill:none;stroke:#000000;stroke-width:0.63551354;stroke-miterlimit:4;stroke-dasharray:none" />
      <path
         d="m 76.771595,44.48222 a 30.304577,30.304577 0 1 1 -60.609154,0 30.304577,30.304577 0 1 1 60.609154,0 z"
         transform="matrix(0,0.78371,-0.78371,0,82.861159,11.583334)"
         id="path3682"
         style="fill:none;stroke:#000000;stroke-width:0.68903041;stroke-miterlimit:4;stroke-dasharray:none" />
    </g>
    <path
       d="m 48,19 c -6.909903,0 -13.821672,2.634172 -19.09375,7.90625 -10.544156,10.544156 -10.544156,27.643344 0,38.1875 10.544156,10.544156 27.643344,10.544156 38.1875,0 10.544156,-10.544156 10.544156,-27.643344 0,-38.1875 C 61.821672,21.634172 54.909903,19 48,19 z m 0,2.5 c 6.270097,0 12.528577,2.403577 17.3125,7.1875 9.567845,9.567845 9.567845,25.057155 0,34.625 -9.567845,9.567845 -25.057155,9.567845 -34.625,0 -9.567845,-9.567845 -9.567845,-25.057155 0,-34.625 C 35.471423,23.903577 41.729903,21.5 48,21.5 z"
       inkscape:connector-curvature="0"
       id="path3727"
       style="opacity:0.6;fill:url(#radialGradient3738);fill-opacity:1;stroke:none;display:inline" />
    <path
       d="m 76.771595,44.48222 a 30.304577,30.304577 0 1 1 -60.609154,0 30.304577,30.304577 0 1 1 60.609154,0 z"
       transform="matrix(0,0.64907743,-0.64907743,0,76.872405,15.839307)"
       id="path3742"
       style="fill:url(#linearGradient3744);fill-opacity:1;stroke:#1a1a1a;stroke-width:1.54064822;stroke-miterlimit:4;stroke-dasharray:none;display:inline" />
  </g>
  <g
     id="layer7">
    <path
       d="m 61.366765,45.997448 a 13.637059,13.637059 0 1 1 -27.274118,0 13.637059,13.637059 0 1 1 27.274118,0 z"
       transform="matrix(1.0266143,0,0,1.0266143,-0.999999,-1.221638)"
       id="path3757"
       style="fill:#000000;fill-opacity:1;stroke:none;display:inline" />
    <path
       d="M 47.5,31 C 39.491871,31 33,37.491871 33,45.5 33,53.508129 39.491871,60 47.5,60 c 0.08504,0 0.165309,0.0015 0.25,0 C 40.133878,59.866031 34,53.648102 34,46 c 0,-7.731986 6.268014,-14 14,-14 7.648102,0 13.866031,6.133878 14,13.75 0.0015,-0.08469 0,-0.164961 0,-0.25 C 62,37.491871 55.508129,31 47.5,31 z"
       inkscape:connector-curvature="0"
       id="path3760"
       style="opacity:0.6;fill:#000000;fill-opacity:1;stroke:none;display:inline" />
    <path
       d="m 61.366765,45.997448 a 13.637059,13.637059 0 1 1 -27.274118,0 13.637059,13.637059 0 1 1 27.274118,0 z"
       transform="matrix(1.0266143,0,0,1.0266143,-0.999999,-1.221638)"
       id="path2907"
       style="fill:url(#radialGradient3687);fill-opacity:1;stroke:none;display:inline" />
    <path
       d="m 61.366765,45.997448 a 13.637059,13.637059 0 1 1 -27.274118,0 13.637059,13.637059 0 1 1 27.274118,0 z"
       transform="matrix(0,0.97161711,-0.97161711,0,92.69191,-0.374999)"
       id="path3705"
       style="fill:none;stroke:url(#linearGradient3733);stroke-width:0.514606;stroke-miterlimit:4;stroke-opacity:1;stroke-dasharray:none;display:inline;filter:url(#filter3774)" />
    <path
       d="m 41.34375,45.375 c 0.07082,-0.767299 0.285421,-1.486362 0.59375,-2.15625 L 37.34375,40.8125 c -0.603997,1.243084 -1.018186,2.621977 -1.15625,4.0625 l 5.15625,0.5 z m 1.375,-3.4375 c 1.071033,-1.389071 2.667628,-2.34897 4.5,-2.5625 L 46.625,34.21875 c -3.598468,0.417087 -6.654118,2.435762 -8.53125,5.3125 l 4.625,2.40625 z"
       inkscape:connector-curvature="0"
       id="path3735"
       style="opacity:0.6;fill:#ffffff;fill-opacity:1;stroke:none;display:inline" />
    <path
       d="m 50.708204,52 a 9.7082043,6 0 1 1 -19.416408,0 9.7082043,6 0 1 1 19.416408,0 z"
       transform="matrix(0.58268801,-0.58268801,0.58268801,0.58268801,-0.743557,44.935862)"
       id="path3759"
       style="opacity:0.4314516;fill:url(#linearGradient3767);fill-opacity:1;stroke:none;display:inline" />
    <path
       d="m 50.708204,52 a 9.7082043,6 0 1 1 -19.416408,0 9.7082043,6 0 1 1 19.416408,0 z"
       transform="matrix(0.15076894,-0.15076894,0.15076894,0.15076894,37.387737,47.649792)"
       id="path3769"
       style="opacity:0.3;fill:url(#linearGradient3771);fill-opacity:1;stroke:none;display:inline" />
    <path
       d="m 50.708204,52 a 9.7082043,6 0 1 1 -19.416408,0 9.7082043,6 0 1 1 19.416408,0 z"
       transform="matrix(-0.10757707,0.10757707,-0.10757707,-0.10757707,55.999137,45.076819)"
       id="path3773"
       style="opacity:0.3;fill:url(#linearGradient3775);fill-opacity:1;stroke:none;display:inline" />
    <path
       d="m 50.708204,52 a 9.7082043,6 0 1 1 -19.416408,0 9.7082043,6 0 1 1 19.416408,0 z"
       transform="matrix(-0.19358861,0.19358861,-0.19358861,-0.19358861,59.194255,41.21899)"
       id="path3777"
       style="opacity:0.4314516;fill:url(#linearGradient3779);fill-opacity:1;stroke:none;display:inline" />
    <path
       d="m 50.708204,52 a 9.7082043,6 0 1 1 -19.416408,0 9.7082043,6 0 1 1 19.416408,0 z"
       transform="matrix(0.08968638,-0.08968638,0.08968638,0.08968638,40.497472,45.750757)"
       id="path3789"
       style="opacity:0.6;fill:url(#linearGradient3791);fill-opacity:1;stroke:none;display:inline" />
    <path
       d="m 48,30 c -8.836556,0 -16,7.163444 -16,16 0,8.836556 7.163444,16 16,16 8.836556,0 16,-7.163444 16,-16 0,-8.836556 -7.163444,-16 -16,-16 z m 0,1.5 c 8.008129,0 14.5,6.491871 14.5,14.5 0,8.008129 -6.491871,14.5 -14.5,14.5 -8.008129,0 -14.5,-6.491871 -14.5,-14.5 0,-8.008129 6.491871,-14.5 14.5,-14.5 z"
       inkscape:connector-curvature="0"
       id="path3806"
       style="opacity:0.7;fill:url(#linearGradient3817);fill-opacity:1;stroke:none;display:inline" />
  </g>
  <g
     id="layer8">
    <g
       transform="translate(0,-2)"
       clip-path="url(#clipPath3798)"
       id="g3786"
       style="opacity:0.4;display:inline;filter:url(#filter3833)">
      <path
         d="m 61.366765,45.997448 a 13.637059,13.637059 0 0 1 -3.994202,9.642857 l -9.642857,-9.642857 z"
         transform="matrix(1.0266143,0,0,1.0266143,-0.9999987,0.7783622)"
         id="path3756"
         style="fill:#d40000;fill-opacity:1;stroke:none" />
      <path
         d="m 61.366765,45.997448 a 13.637059,13.637059 0 0 1 -3.994202,9.642857 l -9.642857,-9.642857 z"
         transform="matrix(0.72592593,0.72592593,-0.72592593,0.72592593,46.742509,-20.038972)"
         id="path3772"
         style="fill:#d42aff;fill-opacity:1;stroke:none" />
      <path
         d="m 61.366765,45.997448 a 13.637059,13.637059 0 0 1 -3.994202,9.642857 l -9.642857,-9.642857 z"
         transform="matrix(0,1.0266143,-1.0266143,0,95.221638,-0.99999877)"
         id="path3774"
         style="fill:#6600ff;fill-opacity:1;stroke:none" />
      <path
         d="m 61.366765,45.997448 a 13.637059,13.637059 0 0 1 -3.994202,9.642857 l -9.642857,-9.642857 z"
         transform="matrix(-0.72592593,0.72592593,-0.72592593,-0.72592593,116.03897,46.742509)"
         id="path3776"
         style="fill:#2a7fff;fill-opacity:1;stroke:none" />
      <path
         d="m 61.366765,45.997448 a 13.637059,13.637059 0 0 1 -3.994202,9.642857 l -9.642857,-9.642857 z"
         transform="matrix(-1.0266143,0,0,-1.0266143,96.999997,95.221637)"
         id="path3778-0"
         style="fill:#5fd3bc;fill-opacity:1;stroke:none" />
      <path
         d="m 61.366765,45.997448 a 13.637059,13.637059 0 0 1 -3.994202,9.642857 l -9.642857,-9.642857 z"
         transform="matrix(-0.72592593,-0.72592593,0.72592593,-0.72592593,49.25749,116.03897)"
         id="path3780"
         style="fill:#55d400;fill-opacity:1;stroke:none" />
      <path
         d="m 61.366765,45.997448 a 13.637059,13.637059 0 0 1 -3.994202,9.642857 l -9.642857,-9.642857 z"
         transform="matrix(0,-1.0266143,1.0266143,0,0.77836254,96.999997)"
         id="path3782"
         style="fill:#ffcc00;fill-opacity:1;stroke:none" />
      <path
         d="m 61.366765,45.997448 a 13.637059,13.637059 0 0 1 -3.994202,9.642857 l -9.642857,-9.642857 z"
         transform="matrix(0.72592593,-0.72592593,0.72592593,0.72592593,-20.03897,49.25749)"
         id="path3784"
         style="fill:#ff6600;fill-opacity:1;stroke:none" />
    </g>
    <g
       transform="translate(-2.0538128e-7,-52)"
       id="g3957"
       style="opacity:0.8;display:inline;filter:url(#filter3987)">
      <path
         d="m 61.53125,94.375 -0.96875,0.25 C 60.849921,95.699342 61,96.835019 61,98 c 0,4.80784 -2.619633,9.00086 -6.5,11.25 l 0.5,0.875 c 5.487553,-3.16824 8.171252,-9.62943 6.53125,-15.75 z"
         inkscape:connector-curvature="0"
         id="path3726"
         style="opacity:0.8;fill:url(#linearGradient3967);fill-opacity:1;stroke:none" />
      <path
         d="m 59.25,104.5 c -2.249137,3.88037 -6.442164,6.5 -11.25,6.5 -1.164981,0 -2.300658,-0.15008 -3.375,-0.4375 l -0.25,0.96875 c 6.120569,1.64 12.58176,-1.0437 15.75,-6.53125 l -0.875,-0.5 z"
         inkscape:connector-curvature="0"
         id="path3728"
         style="opacity:0.8;fill:url(#linearGradient3969);fill-opacity:1;stroke:none" />
      <path
         d="m 36.75,104.5 -0.875,0.5 c 3.16824,5.48755 9.629431,8.17125 15.75,6.53125 l -0.25,-0.96875 C 50.300658,110.84992 49.164981,111 48,111 c -4.807836,0 -9.000863,-2.61963 -11.25,-6.5 z"
         inkscape:connector-curvature="0"
         id="path3730"
         style="fill:url(#linearGradient3971);fill-opacity:1;stroke:none" />
      <path
         d="m 34.46875,94.375 c -1.640002,6.12057 1.043697,12.58176 6.53125,15.75 l 0.5,-0.875 C 37.619633,107.00086 35,102.80784 35,98 c 0,-1.164981 0.150079,-2.300658 0.4375,-3.375 l -0.96875,-0.25 z"
         inkscape:connector-curvature="0"
         id="path3732"
         style="opacity:0.9;fill:url(#linearGradient3973);fill-opacity:1;stroke:none" />
      <path
         d="m 41,85.875 c -5.487553,3.16824 -8.171252,9.629431 -6.53125,15.75 l 0.96875,-0.25 C 35.150079,100.30066 35,99.164981 35,98 35,93.192164 37.619633,88.999137 41.5,86.75 L 41,85.875 z"
         inkscape:connector-curvature="0"
         id="path3734"
         style="fill:url(#linearGradient3975);fill-opacity:1;stroke:none" />
      <path
         d="M 48.15625,84 C 43.183834,83.93941 38.449195,86.541364 35.875,91 l 0.875,0.5 C 38.999137,87.619633 43.192164,85 48,85 c 1.164981,0 2.300658,0.150079 3.375,0.4375 l 0.25,-0.96875 C 50.477393,84.16125 49.303731,84.013982 48.15625,84 z"
         inkscape:connector-curvature="0"
         id="path3736"
         style="fill:url(#linearGradient3977);fill-opacity:1;stroke:none" />
      <path
         d="m 47.84375,84 c -1.147481,0.01398 -2.321143,0.16125 -3.46875,0.46875 l 0.25,0.96875 C 45.699342,85.150079 46.835019,85 48,85 c 4.807836,0 9.000863,2.619633 11.25,6.5 L 60.125,91 C 57.550805,86.541363 52.816166,83.939411 47.84375,84 z"
         inkscape:connector-curvature="0"
         id="path3738"
         style="fill:url(#linearGradient3979);fill-opacity:1;stroke:none" />
      <path
         d="m 55,85.875 -0.5,0.875 c 3.880367,2.249137 6.5,6.442164 6.5,11.25 0,1.164981 -0.150079,2.30066 -0.4375,3.375 l 0.96875,0.25 C 63.171252,95.504431 60.487553,89.04324 55,85.875 z"
         inkscape:connector-curvature="0"
         id="path3740"
         style="opacity:0.9;fill:url(#linearGradient3981);fill-opacity:1;stroke:none" />
    </g>
    <path
       d="m 50.708204,52 a 9.7082043,6 0 1 1 -19.416408,0 9.7082043,6 0 1 1 19.416408,0 z"
       transform="matrix(0.23287504,-0.23287504,0.23287504,0.23287504,33.266783,50.13527)"
       id="path3793"
       style="fill:url(#radialGradient3803);fill-opacity:1;stroke:none;display:inline" />
  </g>
</svg>
