<?xml version="1.0" encoding="UTF-8" standalone="no"?>
<!-- Created with Inkscape (http://www.inkscape.org/) -->

<svg
   xmlns:dc="http://purl.org/dc/elements/1.1/"
   xmlns:cc="http://creativecommons.org/ns#"
   xmlns:rdf="http://www.w3.org/1999/02/22-rdf-syntax-ns#"
   xmlns:svg="http://www.w3.org/2000/svg"
   xmlns="http://www.w3.org/2000/svg"
   xmlns:xlink="http://www.w3.org/1999/xlink"
   xmlns:inkscape="http://www.inkscape.org/namespaces/inkscape"
   version="1.0"
   width="96"
   height="96"
   id="svg2408">
  <defs
     id="defs2410">
    <linearGradient
       id="linearGradient4384">
      <stop
         id="stop4386"
         style="stop-color:#ffffff;stop-opacity:1"
         offset="0" />
      <stop
         id="stop4388"
         style="stop-color:#ffffff;stop-opacity:0"
         offset="1" />
    </linearGradient>
    <linearGradient
       id="linearGradient4367">
      <stop
         id="stop4369"
         style="stop-color:#ffffff;stop-opacity:0.71755725"
         offset="0" />
      <stop
         id="stop4371"
         style="stop-color:#ffffff;stop-opacity:1"
         offset="1" />
    </linearGradient>
    <linearGradient
       x1="45.447727"
       y1="92.539597"
       x2="45.447727"
       y2="7.0165396"
       id="ButtonShadow"
       gradientUnits="userSpaceOnUse"
       gradientTransform="scale(1.0058652,0.994169)">
      <stop
         id="stop3750"
         style="stop-color:#000000;stop-opacity:1"
         offset="0" />
      <stop
         id="stop3752"
         style="stop-color:#000000;stop-opacity:0.58823532"
         offset="1" />
    </linearGradient>
    <linearGradient
       id="linearGradient3737">
      <stop
         id="stop3739"
         style="stop-color:#ffffff;stop-opacity:1"
         offset="0" />
      <stop
         id="stop3741"
         style="stop-color:#ffffff;stop-opacity:0"
         offset="1" />
    </linearGradient>
    <filter
       color-interpolation-filters="sRGB"
       id="filter3174">
      <feGaussianBlur
         id="feGaussianBlur3176"
         stdDeviation="1.71" />
    </filter>
    <filter
       x="-0.192"
       y="-0.192"
       width="1.3839999"
       height="1.3839999"
       color-interpolation-filters="sRGB"
       id="filter3794">
      <feGaussianBlur
         id="feGaussianBlur3796"
         stdDeviation="5.28" />
    </filter>
    <linearGradient
       x1="48"
       y1="20.220806"
       x2="48"
       y2="138.66119"
       id="linearGradient3613"
       xlink:href="#linearGradient3737"
       gradientUnits="userSpaceOnUse" />
    <linearGradient
       x1="45.447727"
       y1="92.539597"
       x2="45.447727"
       y2="7.0165396"
       id="ButtonShadow-0"
       gradientUnits="userSpaceOnUse"
       gradientTransform="matrix(1.0058652,0,0,0.994169,100,0)">
      <stop
         id="stop3750-8"
         style="stop-color:#000000;stop-opacity:1"
         offset="0" />
      <stop
         id="stop3752-5"
         style="stop-color:#000000;stop-opacity:0.58823532"
         offset="1" />
    </linearGradient>
    <linearGradient
       x1="32.251034"
       y1="6.1317081"
       x2="32.251034"
       y2="90.238609"
       id="linearGradient3780"
       xlink:href="#ButtonShadow-0"
       gradientUnits="userSpaceOnUse"
       gradientTransform="matrix(1.0238095,0,0,1.0119048,-1.1428571,-98.071429)" />
    <linearGradient
       x1="32.251034"
       y1="6.1317081"
       x2="32.251034"
       y2="90.238609"
       id="linearGradient3772"
       xlink:href="#ButtonShadow-0"
       gradientUnits="userSpaceOnUse"
       gradientTransform="matrix(1.0238095,0,0,1.0119048,-1.1428571,-98.071429)" />
    <linearGradient
       x1="32.251034"
       y1="6.1317081"
       x2="32.251034"
       y2="90.238609"
       id="linearGradient3725"
       xlink:href="#ButtonShadow-0"
       gradientUnits="userSpaceOnUse"
       gradientTransform="matrix(1.0238095,0,0,1.0119048,-1.1428571,-98.071429)" />
    <linearGradient
       x1="32.251034"
       y1="6.1317081"
       x2="32.251034"
       y2="90.238609"
       id="linearGradient3721"
       xlink:href="#ButtonShadow-0"
       gradientUnits="userSpaceOnUse"
       gradientTransform="translate(0,-97)" />
    <linearGradient
       x1="32.251034"
       y1="6.1317081"
       x2="32.251034"
       y2="90.238609"
       id="linearGradient3026"
       xlink:href="#ButtonShadow-0"
       gradientUnits="userSpaceOnUse"
       gradientTransform="matrix(1.0238095,0,0,1.0119048,-1.1428571,-98.071429)" />
    <clipPath
       id="clipPath4355">
      <rect
         width="84"
         height="80"
         rx="6"
         ry="6"
         x="6"
         y="6"
         id="rect4357"
         style="fill:#ffffff;fill-opacity:1;fill-rule:nonzero;stroke:none" />
    </clipPath>
    <radialGradient
       cx="48"
       cy="87.792389"
       r="42"
       fx="48"
       fy="87.792389"
       id="radialGradient4375"
       xlink:href="#linearGradient4367"
       gradientUnits="userSpaceOnUse"
       gradientTransform="matrix(1,-6.7114942e-8,8.4282233e-8,1.2557894,109.99999,-24.505592)" />
    <linearGradient
       x1="48"
       y1="88"
       x2="48"
       y2="-40"
       id="linearGradient4390"
       xlink:href="#linearGradient4384"
       gradientUnits="userSpaceOnUse"
       gradientTransform="matrix(1,0,0,-1,0,92)" />
    <linearGradient
       x1="48"
       y1="82"
       x2="112.12357"
       y2="82.454597"
       id="linearGradient4429"
       xlink:href="#linearGradient4384"
       gradientUnits="userSpaceOnUse"
       spreadMethod="reflect" />
    <linearGradient
       id="linearGradient3892">
      <stop
         id="stop3894"
         style="stop-color:#000000;stop-opacity:0.58823532"
         offset="0" />
      <stop
         id="stop3896"
         style="stop-color:#000000;stop-opacity:0.47058824"
         offset="0.11780351" />
      <stop
         id="stop3898"
         style="stop-color:#000000;stop-opacity:0.39215687"
         offset="0.23809524" />
      <stop
         id="stop3900"
         style="stop-color:#000000;stop-opacity:0.3137255"
         offset="1" />
    </linearGradient>
    <linearGradient
       x1="90"
       y1="88"
       x2="48"
       y2="88"
       id="linearGradient3228"
       xlink:href="#linearGradient3892"
       gradientUnits="userSpaceOnUse"
       spreadMethod="reflect" />
    <linearGradient
       x1="11.998966"
       y1="0.92195445"
       x2="11.998966"
       y2="19.387045"
       id="linearGradient4121"
       gradientUnits="userSpaceOnUse"
       gradientTransform="scale(0.9219544,1.0846523)">
      <stop
         id="stop4123"
         style="stop-color:#313233;stop-opacity:1"
         offset="0" />
      <stop
         id="stop4125"
         style="stop-color:#23486a;stop-opacity:1"
         offset="1" />
    </linearGradient>
    <linearGradient
       id="linearGradient3700-5-1">
      <stop
         id="stop3702-0-2"
         style="stop-color:#3781c6;stop-opacity:1"
         offset="0" />
      <stop
         id="stop3704-4-9"
         style="stop-color:#88b2db;stop-opacity:1"
         offset="1" />
    </linearGradient>
    <linearGradient
       x1="48"
       y1="90"
       x2="48"
       y2="5.9877172"
       id="linearGradient3390"
       xlink:href="#linearGradient3700-5-1"
       gradientUnits="userSpaceOnUse" />
    <radialGradient
       cx="49.233551"
       cy="70.608253"
       r="25.483549"
       fx="49.233551"
       fy="70.608253"
       id="radialGradient4246"
       xlink:href="#linearGradient5226-0"
       gradientUnits="userSpaceOnUse"
       gradientTransform="matrix(0.46811249,-0.52911558,1.7948202,1.5821666,-112.03757,-37.344561)" />
    <linearGradient
       id="linearGradient5226-0">
      <stop
         id="stop5228-7"
         style="stop-color:#ffffff;stop-opacity:1"
         offset="0" />
      <stop
         id="stop5230-6"
         style="stop-color:#ffffff;stop-opacity:0"
         offset="1" />
    </linearGradient>
    <radialGradient
       cx="64.230392"
       cy="68.449158"
       r="43.769611"
       fx="64.230392"
       fy="68.449158"
       id="radialGradient4252"
       xlink:href="#linearGradient5226-0"
       gradientUnits="userSpaceOnUse"
       gradientTransform="matrix(1.4544425,0,0,0.92610887,-45.079796,-12.6013)" />
    <radialGradient
       cx="74.375"
       cy="67.125"
       r="3.125"
       fx="74.375"
       fy="67.125"
       id="radialGradient3216"
       xlink:href="#linearGradient3543"
       gradientUnits="userSpaceOnUse" />
    <linearGradient
       id="linearGradient3543">
      <stop
         id="stop3545"
         style="stop-color:#ffffff;stop-opacity:1"
         offset="0" />
      <stop
         id="stop3555"
         style="stop-color:#ffffff;stop-opacity:1"
         offset="0.30645162" />
      <stop
         id="stop3551"
         style="stop-color:#ffffff;stop-opacity:0.640625"
         offset="0.51899064" />
      <stop
         id="stop3547"
         style="stop-color:#ffffff;stop-opacity:0"
         offset="1" />
    </linearGradient>
    <radialGradient
       cx="74.375"
       cy="67.125"
       r="3.125"
       fx="74.375"
       fy="67.125"
       id="radialGradient3443"
       xlink:href="#linearGradient3543"
       gradientUnits="userSpaceOnUse" />
    <radialGradient
       cx="74.375"
       cy="67.125"
       r="3.125"
       fx="74.375"
       fy="67.125"
       id="radialGradient3445"
       xlink:href="#linearGradient3543"
       gradientUnits="userSpaceOnUse" />
    <radialGradient
       cx="74.375"
       cy="67.125"
       r="3.125"
       fx="74.375"
       fy="67.125"
       id="radialGradient3447"
       xlink:href="#linearGradient3543"
       gradientUnits="userSpaceOnUse" />
    <radialGradient
       cx="74.375"
       cy="67.125"
       r="3.125"
       fx="74.375"
       fy="67.125"
       id="radialGradient3449"
       xlink:href="#linearGradient3543"
       gradientUnits="userSpaceOnUse" />
    <radialGradient
       cx="74.375"
       cy="67.125"
       r="3.125"
       fx="74.375"
       fy="67.125"
       id="radialGradient3451"
       xlink:href="#linearGradient3543"
       gradientUnits="userSpaceOnUse" />
    <radialGradient
       cx="63.875"
       cy="2.2173476"
       r="58.375"
       fx="63.875"
       fy="2.2173476"
       id="radialGradient4248"
       xlink:href="#linearGradient5226-0"
       gradientUnits="userSpaceOnUse"
       gradientTransform="matrix(1.0948456,0,0,0.33117465,-21.844872,32.792567)" />
    <radialGradient
       cx="69.75"
       cy="75.973572"
       r="58.5"
       fx="69.75"
       fy="75.973572"
       id="radialGradient4250"
       xlink:href="#linearGradient5226-0"
       gradientUnits="userSpaceOnUse"
       gradientTransform="matrix(2.2593878,-0.06832043,0.00797869,0.26385907,-105.95706,38.8624)" />
    <radialGradient
       cx="74.375"
       cy="67.125"
       r="3.125"
       fx="74.375"
       fy="67.125"
       id="radialGradient3511"
       xlink:href="#linearGradient3543"
       gradientUnits="userSpaceOnUse" />
    <linearGradient
       id="linearGradient3875">
      <stop
         id="stop3877"
         style="stop-color:#ffffff;stop-opacity:1"
         offset="0" />
      <stop
         id="stop3879"
         style="stop-color:#ffffff;stop-opacity:0.42635658"
         offset="1" />
    </linearGradient>
    <radialGradient
       cx="63.98003"
       cy="61.948856"
       r="58.01997"
       fx="63.98003"
       fy="61.948856"
       id="radialGradient3528"
       xlink:href="#linearGradient3875"
       gradientUnits="userSpaceOnUse"
       gradientTransform="matrix(1.090012,0,0,0.84044811,-21.739002,-7.487817)" />
    <clipPath
       id="clipPath3286">
      <rect
         width="84"
         height="80"
         rx="6"
         ry="6"
         x="6"
         y="6"
         id="rect3288"
         style="fill:#ff00ff;fill-opacity:1;fill-rule:nonzero;stroke:none;display:inline" />
    </clipPath>
    <linearGradient
       x1="56"
       y1="16"
       x2="56"
       y2="80"
       id="linearGradient3111"
       xlink:href="#linearGradient4121"
       gradientUnits="userSpaceOnUse"
       gradientTransform="matrix(0.88281209,0,0,0.89965146,5.6250198,11.562884)" />
  </defs>
  <metadata
     id="metadata2413">
    <rdf:RDF>
      <cc:Work
         rdf:about="">
        <dc:format>image/svg+xml</dc:format>
        <dc:type
           rdf:resource="http://purl.org/dc/dcmitype/StillImage" />
        <dc:title />
      </cc:Work>
    </rdf:RDF>
  </metadata>
  <g
     id="layer2"
     style="display:none">
    <rect
       width="86"
       height="85"
       rx="6"
       ry="6"
       x="5"
       y="7"
       id="rect3745"
       style="opacity:0.9;fill:url(#ButtonShadow);fill-opacity:1;fill-rule:nonzero;stroke:none;filter:url(#filter3174)" />
  </g>
  <g
     id="layer3"
     style="display:inline">
    <path
       d="m 12,-95.03125 c -5.5110903,0 -10.03125,4.52016 -10.03125,10.03125 l 0,71 c 0,5.5110902 4.5201598,10.03125 10.03125,10.03125 l 72,0 c 5.51109,0 10.03125,-4.5201597 10.03125,-10.03125 l 0,-71 c 0,-5.51109 -4.52016,-10.03125 -10.03125,-10.03125 l -72,0 z"
       transform="scale(1,-1)"
       id="path3786"
       style="opacity:0.07999998;fill:url(#linearGradient3026);fill-opacity:1;fill-rule:nonzero;stroke:none;display:inline" />
    <path
       d="m 12,-94.03125 c -4.971633,0 -9.03125,4.059617 -9.03125,9.03125 l 0,71 c 0,4.9716329 4.0596171,9.03125 9.03125,9.03125 l 72,0 c 4.971633,0 9.03125,-4.059617 9.03125,-9.03125 l 0,-71 c 0,-4.971633 -4.059617,-9.03125 -9.03125,-9.03125 l -72,0 z"
       transform="scale(1,-1)"
       id="path3778"
       style="opacity:0.1;fill:url(#linearGradient3780);fill-opacity:1;fill-rule:nonzero;stroke:none;display:inline" />
    <path
       d="m 12,-93 c -4.4091333,0 -8,3.590867 -8,8 l 0,71 c 0,4.4091333 3.5908667,8 8,8 l 72,0 c 4.409133,0 8,-3.5908667 8,-8 l 0,-71 c 0,-4.409133 -3.590867,-8 -8,-8 l -72,0 z"
       transform="scale(1,-1)"
       id="path3770"
       style="opacity:0.2;fill:url(#linearGradient3772);fill-opacity:1;fill-rule:nonzero;stroke:none;display:inline" />
    <rect
       width="86"
       height="85"
       rx="7"
       ry="7"
       x="5"
       y="-92"
       transform="scale(1,-1)"
       id="rect3723"
       style="opacity:0.3;fill:url(#linearGradient3725);fill-opacity:1;fill-rule:nonzero;stroke:none;display:inline" />
    <rect
       width="84"
       height="84"
       rx="6"
       ry="6"
       x="6"
       y="-91"
       transform="scale(1,-1)"
       id="rect3716"
       style="opacity:0.45;fill:url(#linearGradient3721);fill-opacity:1;fill-rule:nonzero;stroke:none;display:inline" />
  </g>
  <g
     id="layer1">
    <rect
       width="84"
       height="84"
       rx="6"
       ry="6"
       x="6"
       y="6"
       id="rect2419-8"
       style="fill:url(#linearGradient3390);fill-opacity:1;fill-rule:nonzero;stroke:none;display:inline" />
    <path
       d="m 36.27388,4.096377 c 1.65012,2.2155912 0.11259,5.915398 2.60148,5.878671 1.2119,1.713164 -2.41545,0.511042 0.2036,1.831432 1.5061,1.185988 -1.5934,1.863613 0.27178,2.927919 -2.14968,1.109114 0.34844,5.801103 1.94512,6.97538 2.62795,2.212061 1.1622,-4.683394 4.0945,-5.04209 1.59336,-1.818795 4.39184,-2.986327 6.37927,-4.815989 -1.9423,-0.15766 -3.07647,-1.366454 -1.23702,-2.115252 3.38545,3.468671 0.8489,-1.642711 -1.02514,-2.452023 1.81336,-0.5767594 3.57698,-0.154404 3.32537,-1.6505493 1.91632,-1.4018192 -1.84226,-1.8544226 -3.18394,-1.5374987 -4.45834,0 -8.91667,0 -13.37502,0 z M 8.472035,5.5434349 C 6.022275,6.2412831 5.851393,12.095058 8.313685,8.844535 8.918028,7.50983 11.710762,5.901324 8.472035,5.5434349 z M 19.918529,5.746927 C 18.506269,7.961168 20.12344,9.736445 21.29844,7.035713 22.13015,5.9079304 20.680509,5.7882479 19.918529,5.746927 z m 3.528951,0.4974263 c -2.728751,1.2645837 -0.6726,4.2134717 -0.60506,4.8693197 2.87457,0.994334 4.47323,-0.650114 5.56069,2.160413 2.73516,1.576152 -0.0538,4.314918 -1.08054,5.028176 1.84934,-1.610389 5.40416,4.378304 4.47226,1.214321 -1.11179,-0.811673 2.98515,1.303915 0.85962,-1.334006 -1.95607,-3.151091 0.15527,-1.410713 0.97995,-0.675273 2.80488,-2.514847 -3.1736,-2.818813 -1.68123,-5.40689 C 30.64542,11.041357 28.93028,7.83304 26.6145,8.46016 25.06426,10.464727 26.40035,4.0923691 24.12589,7.281181 c -0.11789,1.782531 -0.0429,4.044447 -0.70571,0.956351 -0.44407,-0.540606 0.764,-1.7974072 0.0273,-1.9931787 z m -5.56489,0.022612 C 16.050988,6.8775146 16.149361,9.351938 18.401546,9.617212 19.17298,8.738016 18.70804,6.4334551 17.88259,6.2669652 z M 10.734187,7.058325 c -2.379078,0.563598 -1.407992,2.481632 -0.679572,3.02182 -2.944918,0.737557 4.49569,0.942657 0.79268,1.409793 -3.08079,1.230224 2.966663,2.67961 3.958767,1.220954 C 18.61045,13.641165 14.94297,9.665861 14.609021,7.510944 12.996269,5.7803225 14.545371,11.500495 13.087153,7.69526 12.578366,8.825243 10.960625,7.861775 10.734187,7.058325 z M 86.33531,7.307037 C 83.14287,8.55628 88.31949,13.270509 87.03296,8.981701 86.90479,8.463833 87.32115,7.095532 86.33531,7.307037 z M 19.66969,9.2063 c -2.294083,2.155636 2.91599,3.938244 -0.658894,5.54415 -0.53602,-2.001942 -1.458276,1.001608 -3.503467,-0.615111 -3.515899,1.46374 -5.313868,-0.762449 -8.257534,-2.288432 -1.768029,-0.220055 -1.103781,1.679698 -1.220884,3.458474 0,4.915862 0,9.831727 0,14.74759 1.733489,1.823574 0.676329,0.804576 0,0.301602 0.951467,3.240031 -0.419572,7.976266 3.330851,9.860928 0.637563,1.182446 3.312882,6.219986 3.43622,4.712704 -1.341214,-1.404368 -2.717353,-5.614596 -0.447896,-1.862098 2.032756,3.567022 4.774753,5.880584 8.780474,6.729415 2.19006,0.744855 3.99117,3.305322 5.91712,2.741963 1.08905,2.870539 -3.22741,5.627088 0.14491,8.30447 1.76052,2.71045 4.71618,4.488168 3.11596,8.29345 -1.11907,3.716413 -0.63993,7.765882 -1.60779,11.228513 -0.30039,2.107681 2.93804,7.457302 2.65747,3.173531 0.94557,-2.976918 0.92064,-6.252508 3.14759,-8.360679 3.04711,0.02412 0.58237,-3.276114 3.607,-2.844995 1.84565,-2.418872 2.38023,-5.304486 5.49491,-6.264978 0.37205,-2.936144 5.17882,-7.4329 0.21314,-8.576056 -1.34961,-0.665119 -4.8245,-0.904282 -4.55894,-1.232465 0.53803,-2.913429 -4.49347,-3.742841 -6.63424,-4.934817 -2.81075,-1.994856 -7.03423,3.313948 -8.02451,-1.260398 -0.59088,-1.439233 -2.75133,-1.462574 -1.75843,-3.683379 -1.78939,1.779441 -5.28934,1.238624 -4.373028,-2.197824 1.391566,-2.894156 6.735638,-3.031092 7.646258,0.450058 -1.26435,-3.839294 2.44394,-6.828036 4.50253,-9.559465 0.41916,-1.305551 2.90974,-2.427219 2.05268,-0.692077 1.46015,-0.05266 3.67328,-2.687302 1.07941,-1.471281 -0.0367,-2.402702 -2.27298,-1.719417 -2.998,-1.378249 1.34377,-2.132514 8.24498,-0.966646 5.35509,-4.452373 -2.2393,-0.907229 -2.05302,-6.201368 -4.318,-3.251981 0.1906,-1.817243 -4.61001,-5.374474 -4.50525,-2.327163 0.58599,2.726773 0.10714,5.867952 -1.13992,7.655308 -0.26025,-3.995633 -7.075686,-3.112538 -6.199431,-7.370332 1.269451,-2.029282 2.752851,-4.835506 2.894181,-4.583059 2.27505,-0.868509 4.10459,-3.394824 1.46783,-5.055609 -0.14092,1.447483 -1.98303,4.433935 -1.72366,0.821917 -1.705794,2.022175 -1.3162,-3.217808 -2.91375,-3.761252 z m 54.45,1.401837 c -3.99594,0.977352 -5.58007,4.793453 -7.55681,7.954209 -2.91386,1.313584 -2.80294,6.954861 0.45241,5.153113 0.87128,1.52152 -0.60951,3.919724 1.92831,1.930256 2.047,-2.708555 0.35794,-7.089232 3.84142,-8.797142 0.25374,1.32799 -3.21334,6.286746 0.83699,5.471685 3.66156,0.13814 -2.66185,0.364788 -0.88099,2.703385 -1.85027,-1.097665 -0.88884,2.997843 -3.30399,2.044772 -2.09232,1.137967 -3.46433,-0.528366 -2.98503,-2.353789 -1.64596,0.960095 0.5177,3.668626 -2.33958,3.831405 -0.64005,2.272529 -5.90338,1.930002 -2.9102,4.244049 1.3289,3.443647 -4.95154,0.215879 -3.16854,4.348369 1.52545,4.086407 4.7224,-1.354049 6.01943,-2.405153 2.50248,-1.940907 6.21066,3.309444 3.95877,3.504593 2.52508,-0.338743 2.00619,-2.739888 -0.0169,-3.669477 -1.09268,-2.833524 3.45903,1.389634 3.2066,2.810286 1.60595,3.006852 0.94462,-3.078557 2.57885,-0.384373 -0.1908,2.841965 6.57418,0.668223 3.34439,4.290282 -2.77688,0.559235 -5.51013,-0.715787 -7.90083,0.100876 -2.22511,-0.01969 -2.11347,-2.396773 -2.92358,-2.992055 -2.83037,0.229926 -6.32794,0.203926 -8.22277,2.490166 -2.04902,2.810946 -5.00383,6.740445 -2.77053,10.329674 2.23487,5.318818 7.77718,0.27589 10.96298,3.417068 0.94693,1.309731 -0.8206,2.86661 1.2967,4.285291 0.79672,3.022035 -0.90448,5.891404 1.05227,8.780282 1.01184,2.716843 1.63978,6.783262 5.40576,4.300665 3.98577,-2.398255 2.92416,-6.819304 6.21294,-9.268036 -2.60227,-5.035562 3.18363,-7.243505 4.62722,-11.33147 -3.15395,0.461678 -5.96377,-2.682428 -6.72579,-5.847035 -1.32494,-1.53712 -0.98368,-3.80361 0.49633,-0.916013 2.03426,1.970926 2.07821,7.819175 5.84127,4.810628 1.72035,-0.719477 6.4186,-3.464001 2.67511,-4.712977 -2.41304,1.747528 -5.07525,-5.221667 -1.53182,-1.179385 2.57602,1.092759 4.37996,1.743838 4.37996,-1.879216 0,-9.761273 0,-19.654809 0,-29.482214 -0.8024,0.819872 -2.8638,2.334082 -3.90428,1.32791 -1.79037,0.249281 -4.15389,3.732429 -3.59125,0.365356 -1.55624,-0.103042 -0.27858,3.019034 -2.41664,3.106347 -0.21529,1.605089 -2.15987,0.29723 -1.42943,1.821464 -1.50065,-1.064346 -2.77067,-4.424842 0.18614,-2.315577 4.39103,-1.31719 -2.8956,-4.288275 -3.45804,-5.006418 0.94545,-0.226501 -1.02861,-1.211646 -1.26681,-0.881801 z m -36.23968,0.881801 c -1.4615,1.217596 2.77854,1.446893 0,0 z m -19.522371,0.655697 c -1.634647,1.709655 2.603281,1.571667 0,0 z m 9.478421,1.69577 c -1.23786,2.027571 1.82903,0.748571 0,0 z m 27.10058,2.39669 c -1.44923,1.668248 -3.36205,-0.439045 -3.39323,0.994852 0.26265,0.433258 1.31467,3.52554 3.61945,1.243565 1.23698,-0.521451 0.74995,-1.835967 -0.22622,-2.238417 z m -30.85575,0.994852 c -2.74881,2.400285 4.6683,2.621438 0.58232,0.275289 l -0.58232,-0.27529 z m 36.2623,6.647418 c -1.97909,1.2904 0.94943,4.030804 -0.0431,5.318079 -1.2401,2.160392 4.60832,-0.152179 1.48461,-1.875826 -0.22257,-1.48088 -1.83002,-3.287723 -1.44154,-3.442253 z m -1.33468,2.600181 c -2.75739,0.779471 -0.62595,4.803849 0.35067,1.013493 0.0549,-0.219748 0.12936,-1.020842 -0.35067,-1.013493 z m -22.0786,2.916726 c -2.56522,1.748962 -0.39843,3.494707 1.48156,2.707775 -0.38596,-1.055239 -1.46417,-1.720102 -1.48156,-2.707775 z m 48.4553,2.939335 c 1.27995,0.645878 -2.34554,1.749213 -0.0498,2.885924 1.33598,1.570889 0.83231,4.942999 -1.3392,2.556372 0.40344,-2.664667 -2.94356,-4.654664 1.38903,-5.442296 z m -6.58287,0.02261 c -0.17366,1.711943 3.69395,4.372967 -0.47504,3.504593 -2.20475,0.258597 -5.50697,-0.06736 -2.72943,-2.814283 0.87765,-0.526822 3.18206,1.817596 1.98292,-0.373765 0.42513,-0.02712 0.82107,-0.18758 1.22155,-0.316545 z M 66.06643,36.0673 c -1.60811,1.035898 1.11199,1.830212 0,0 z m -40.37941,9.654585 c -0.27111,0.904354 5.08598,1.82085 1.38929,0.371963 l -0.55107,-0.193949 -0.83822,-0.178014 z m 4.16235,1.288785 c -1.62491,1.649392 3.34782,0.492772 0,0 z m 54.3369,15.126272 c -3.53072,0.09109 -3.06133,9.197024 -0.60013,3.808943 0.2334,-1.169216 1.1689,-2.712425 0.60013,-3.808943 z"
       inkscape:connector-curvature="0"
       clip-path="url(#clipPath3286)"
       id="path3522-9"
       style="opacity:0.7;fill:url(#radialGradient3528);fill-opacity:1;stroke:none;display:inline" />
    <path
       d="M 120.78125,6.125 C 118.04223,6.6826484 116,9.0915 116,12 l 0,68 c 0,3.324 2.676,6 6,6 l 72,0 c 3.324,0 6,-2.676 6,-6 l 0,-68 c 0,-2.9085 -2.04223,-5.3173516 -4.78125,-5.875 2.20512,0.5362071 3.8125,2.4908437 3.8125,4.875 l 0,68 c 0,2.80489 -2.22636,5.03125 -5.03125,5.03125 l -72,0 c -2.80489,0 -5.03125,-2.22636 -5.03125,-5.03125 l 0,-68 c 0,-2.3841563 1.60738,-4.3387929 3.8125,-4.875 z"
       inkscape:connector-curvature="0"
       id="rect4359"
       style="opacity:0.2;fill:url(#radialGradient4375);fill-opacity:1;fill-rule:nonzero;stroke:none" />
    <path
       d="M 12,86 C 8.676,86 6,83.324 6,80 L 6,12 C 6,8.676 8.676,6 12,6 l 72,0 c 3.324,0 6,2.676 6,6 l 0,68 c 0,3.324 -2.676,6 -6,6 z m 0,-0.96875 72,0 c 2.80489,0 5.03125,-2.22636 5.03125,-5.03125 l 0,-68 C 89.03125,9.19511 86.80489,6.96875 84,6.96875 l -72,0 C 9.1951102,6.96875 6.96875,9.19511 6.96875,12 l 0,68 c 0,2.80489 2.2263602,5.03125 5.03125,5.03125 z"
       inkscape:connector-curvature="0"
       id="rect4377"
       style="opacity:0.3;fill:url(#linearGradient4390);fill-opacity:1;fill-rule:nonzero;stroke:none" />
    <path
       d="m 6,78 0,2 c 0,3.324 2.676,6 6,6 l 72,0 c 3.324,0 6,-2.676 6,-6 l 0,-2 c 0,3.324 -2.676,6 -6,6 L 12,84 C 8.676,84 6,81.324 6,78 z"
       inkscape:connector-curvature="0"
       id="rect4414"
       style="opacity:0.1;fill:url(#linearGradient4429);fill-opacity:1;fill-rule:nonzero;stroke:none" />
    <path
       d="m 6,100 0,1 c 0,3.324 2.676,6 6,6 l 72,0 c 3.324,0 6,-2.676 6,-6 l 0,-1 c 0,3.324 -2.676,6 -6,6 l -72,0 c -3.324,0 -6,-2.676 -6,-6 z"
       inkscape:connector-curvature="0"
       id="path4412"
       style="opacity:0.15;fill:#000000;fill-opacity:1;fill-rule:nonzero;stroke:none" />
  </g>
  <g
     id="layer4"
     style="display:inline">
    <path
       d="m 6,80 0,4 c 0,3.324 2.676,6 6,6 l 72,0 c 3.324,0 6,-2.676 6,-6 l 0,-4 c 0,3.324 -2.676,6 -6,6 L 12,86 C 8.676,86 6,83.324 6,80 z"
       inkscape:connector-curvature="0"
       id="path3888"
       style="fill:url(#linearGradient3228);fill-opacity:1;fill-rule:nonzero;stroke:none;display:inline" />
    <path
       d="m 6,82 0,2 c 0,3.324 2.676,6 6,6 l 72,0 c 3.324,0 6,-2.676 6,-6 l 0,-2 c 0,3.324 -2.676,6 -6,6 L 12,88 C 8.676,88 6,85.324 6,82 z"
       inkscape:connector-curvature="0"
       id="rect4345"
       style="opacity:0.1;color:#000000;fill:#000000;fill-opacity:1;fill-rule:nonzero;stroke:none;stroke-width:1.5;marker:none;visibility:visible;display:inline;overflow:visible;enable-background:accumulate" />
    <path
       d="m 6,83 0,1 c 0,3.324 2.676,6 6,6 l 72,0 c 3.324,0 6,-2.676 6,-6 l 0,-1 c 0,3.324 -2.676,6 -6,6 L 12,89 C 8.676,89 6,86.324 6,83 z"
       inkscape:connector-curvature="0"
       id="rect4336"
       style="opacity:0.15;color:#000000;fill:#000000;fill-opacity:1;fill-rule:nonzero;stroke:none;stroke-width:1.5;marker:none;visibility:visible;display:inline;overflow:visible;enable-background:accumulate" />
  </g>
  <g
     id="layer5"
     style="display:inline">
    <rect
       width="66"
       height="62"
       rx="12"
       ry="12"
       x="15"
       y="15"
       clip-path="url(#clipPath4355)"
       id="rect3171"
       style="opacity:0.1;fill:url(#linearGradient3613);fill-opacity:1;fill-rule:nonzero;stroke:#ffffff;stroke-width:0.5;stroke-linecap:round;stroke-linejoin:miter;stroke-miterlimit:4;stroke-opacity:1;stroke-dasharray:none;stroke-dashoffset:0;filter:url(#filter3794)" />
  </g>
  <g
     id="layer7">
    <g
       transform="translate(0,-2)"
       id="g4234"
       style="display:inline">
      <path
         d="M 7,29.523112 C 58.250036,38.347576 38.633643,89 38.633643,89"
         inkscape:connector-curvature="0"
         id="path3583"
         style="fill:none;stroke:url(#radialGradient4246);stroke-width:2;stroke-linecap:butt;stroke-linejoin:miter;stroke-miterlimit:4;stroke-opacity:1;stroke-dasharray:none;display:inline" />
      <path
         d="M 27.676739,88.823511 C 26.616393,73.292454 56.129343,28.640665 88.823332,20.875137"
         inkscape:connector-curvature="0"
         id="path3581"
         style="fill:none;stroke:url(#radialGradient4252);stroke-width:2;stroke-linecap:butt;stroke-linejoin:miter;stroke-miterlimit:4;stroke-opacity:1;stroke-dasharray:none;display:inline" />
      <path
         d="m 77.5,67.125 a 3.125,3.125 0 1 1 -6.25,0 3.125,3.125 0 1 1 6.25,0 z"
         transform="matrix(1.3572422,0,0,1.3554377,-73.268157,-53.871603)"
         id="path3537"
         style="fill:url(#radialGradient3216);fill-opacity:1;fill-rule:evenodd;stroke:none;display:inline" />
      <path
         d="m 77.5,67.125 a 3.125,3.125 0 1 1 -6.25,0 3.125,3.125 0 1 1 6.25,0 z"
         transform="matrix(1.0744835,0,0,1.0730548,-39.513825,-14.090919)"
         id="path3557"
         style="fill:url(#radialGradient3443);fill-opacity:1;fill-rule:evenodd;stroke:none;display:inline" />
      <path
         d="m 77.5,67.125 a 3.125,3.125 0 1 1 -6.25,0 3.125,3.125 0 1 1 6.25,0 z"
         transform="matrix(1.5834493,0,0,1.581344,-53.333661,-72.388859)"
         id="path3561"
         style="fill:url(#radialGradient3445);fill-opacity:1;fill-rule:evenodd;stroke:none;display:inline" />
      <path
         d="m 77.5,67.125 a 3.125,3.125 0 1 1 -6.25,0 3.125,3.125 0 1 1 6.25,0 z"
         transform="matrix(1.0219348,0,0,1.020576,-15.635673,-16.92189)"
         id="path3565"
         style="opacity:0.6;fill:url(#radialGradient3447);fill-opacity:1;fill-rule:evenodd;stroke:none;display:inline" />
      <path
         d="m 77.5,67.125 a 3.125,3.125 0 1 1 -6.25,0 3.125,3.125 0 1 1 6.25,0 z"
         transform="matrix(0.89260147,0,0,0.89141463,-51.611367,-28.371713)"
         id="path3569"
         style="opacity:0.7;fill:url(#radialGradient3449);fill-opacity:1;fill-rule:evenodd;stroke:none;display:inline" />
      <path
         d="m 77.5,67.125 a 3.125,3.125 0 1 1 -6.25,0 3.125,3.125 0 1 1 6.25,0 z"
         transform="matrix(0.56551763,0,0,0.5647657,38.456917,3.261507)"
         id="path3573"
         style="opacity:0.6;fill:url(#radialGradient3451);fill-opacity:1;fill-rule:evenodd;stroke:none;display:inline" />
      <path
         d="M 7.1767242,47.701508 C 35.275882,28.287687 72.387975,27.228751 89.000056,49.289911"
         inkscape:connector-curvature="0"
         id="path3577"
         style="fill:none;stroke:url(#radialGradient4248);stroke-width:2;stroke-linecap:butt;stroke-linejoin:miter;stroke-miterlimit:4;stroke-opacity:1;stroke-dasharray:none;display:inline" />
      <path
         d="M 7.1767242,67.821286 C 58.42676,56.349483 89.17678,37.641619 89.17678,37.641619"
         inkscape:connector-curvature="0"
         id="path3585"
         style="opacity:0.6;fill:none;stroke:url(#radialGradient4250);stroke-width:1.5;stroke-linecap:butt;stroke-linejoin:miter;stroke-miterlimit:4;stroke-opacity:1;stroke-dasharray:none;display:inline" />
      <path
         d="m 77.5,67.125 a 3.125,3.125 0 1 1 -6.25,0 3.125,3.125 0 1 1 6.25,0 z"
         transform="matrix(0.84547158,0,0,0.84434747,15.553432,-31.917967)"
         id="path3352"
         style="opacity:0.6;fill:url(#radialGradient3511);fill-opacity:1;fill-rule:evenodd;stroke:none;display:inline" />
    </g>
  </g>
  <g
     id="layer6">
    <path
       d="m 48,26 c -6.161552,0 -11.15233,4.720705 -11.15233,10.529831 0.01497,0.665734 0.01928,1.40915 0.08781,2.237215 -0.975113,0.525097 -1.103958,2.583252 -0.234169,4.65341 0.335394,0.798261 0.796411,1.443439 1.258661,1.96875 0.01541,0.01756 0.04302,0.04254 0.05855,0.05966 0.110339,0.546958 0.188543,0.964003 0.321983,1.580966 0.413386,1.252745 2.125383,3.612095 3.62963,5.637784 0.15001,1.562676 0.155459,3.114533 -0.146356,4.892045 -4.329732,3.628641 -15.413251,5.251969 -15.396654,9.008523 L 26.222222,68 69.777778,68 69.572879,66.568181 c -0.01766,-3.215106 -11.14928,-5.25196 -15.425925,-9.008523 -0.173156,-1.438969 -0.205232,-2.848316 -0.117085,-4.265624 1.367641,-2.131074 3.171983,-4.877339 3.629629,-6.264204 0.168196,-0.718221 0.249896,-1.20288 0.380526,-1.819602 0.403863,-0.498638 0.784907,-1.080206 1.083034,-1.789773 0.825993,-1.965914 0.724766,-3.865961 -0.117084,-4.504262 0.05883,-0.85421 0.121763,-1.656298 0.146356,-2.386363 C 59.152339,30.720706 54.16155,26 48,26 z"
       inkscape:connector-curvature="0"
       id="path3798-3"
       style="fill:url(#linearGradient3111);fill-opacity:1;stroke:none;display:inline;enable-background:new" />
    <path
       d="m 48,26 c -6.161552,0 -11.15625,4.722124 -11.15625,10.53125 0.01497,0.665734 0.02522,1.421935 0.09375,2.25 -0.975113,0.525097 -1.119789,2.554842 -0.25,4.625 0.335394,0.798261 0.819,1.443439 1.28125,1.96875 0.01541,0.01756 0.04697,0.04538 0.0625,0.0625 0.110339,0.546958 0.17906,0.976787 0.3125,1.59375 0.413386,1.252745 2.120753,3.599311 3.625,5.625 0.15001,1.562676 0.145565,3.128738 -0.15625,4.90625 -4.329732,3.628641 -15.391597,5.243446 -15.375,9 L 26.21875,68 69.78125,68 69.5625,66.5625 c -0.01766,-3.215106 -11.129605,-5.243437 -15.40625,-9 -0.173156,-1.438969 -0.213147,-2.863942 -0.125,-4.28125 1.367641,-2.131074 3.167354,-4.863135 3.625,-6.25 0.168196,-0.718221 0.24437,-1.195778 0.375,-1.8125 0.403863,-0.498638 0.795623,-1.102933 1.09375,-1.8125 0.825993,-1.965914 0.71685,-3.861699 -0.125,-4.5 0.05883,-0.85421 0.131657,-1.644935 0.15625,-2.375 C 59.156259,30.722126 54.16155,26 48,26 z m 0,1.96875 c 5.133588,0 9.151394,3.846401 9.1875,8.5 1.63e-4,0.02106 0,0.04141 0,0.0625 -0.02371,0.636603 -0.09713,1.391532 -0.15625,2.25 a 1.9666943,1.9666943 0 0 0 0.625,1.5625 c 0.01234,0.03603 0.05429,0.150828 0.0625,0.375 0.01641,0.448345 -0.09268,1.191174 -0.40625,1.9375 -0.214266,0.50997 -0.506243,0.934373 -0.8125,1.3125 a 1.9666943,1.9666943 0 0 0 -0.40625,0.84375 c -0.126374,0.59663 -0.188672,1.039918 -0.3125,1.59375 -0.108857,0.329883 -0.628623,1.388153 -1.28125,2.46875 -0.652627,1.080597 -1.435722,2.269709 -2.125,3.34375 a 1.9666943,1.9666943 0 0 0 -0.3125,0.9375 c -0.0955,1.535589 -0.03101,3.100049 0.15625,4.65625 a 1.9666943,1.9666943 0 0 0 0.625,1.21875 c 2.640943,2.319778 6.576834,3.703862 9.84375,5.0625 1.633458,0.679319 3.095488,1.335582 4,1.90625 0.01783,0.01125 0.01388,0.02007 0.03125,0.03125 l -37.75,0 c 0.134969,-0.133443 0.01883,-0.09546 0.34375,-0.3125 0.866079,-0.578517 2.29106,-1.226477 3.90625,-1.875 3.23038,-1.297047 7.157059,-2.529601 9.84375,-4.78125 A 1.9666943,1.9666943 0 0 0 43.75,57.90625 c 0.333192,-1.962307 0.349805,-3.746747 0.1875,-5.4375 a 1.9666943,1.9666943 0 0 0 -0.375,-1 c -0.747752,-1.006957 -1.557204,-2.057745 -2.1875,-3 -0.61169,-0.91444 -1.035431,-1.759067 -1.125,-2 -0.0027,-0.0073 -0.02922,-0.05635 -0.03125,-0.0625 -0.09336,-0.455071 -0.148336,-0.839794 -0.25,-1.34375 A 1.9666943,1.9666943 0 0 0 39.5,44.125 C 39.305984,43.91112 39.254104,43.853517 39.4375,44.0625 39.053414,43.626016 38.720477,43.181001 38.5,42.65625 38.169093,41.868668 38.066923,41.077346 38.09375,40.625 c 0.01209,-0.203779 0.02758,-0.26535 0.03125,-0.28125 A 1.9666943,1.9666943 0 0 0 38.90625,38.625 c -0.06084,-0.735106 -0.07883,-1.423882 -0.09375,-2.09375 0,-0.01055 -4.1e-5,-0.02071 0,-0.03125 0.01811,-4.667774 4.042294,-8.53125 9.1875,-8.53125 z"
       inkscape:connector-curvature="0"
       id="path4106"
       style="opacity:0.1;fill:#000000;fill-opacity:1;stroke:none;display:inline;enable-background:new" />
    <path
       d="m 59.125,37 c -0.03056,0.608163 -0.07778,1.220644 -0.125,1.90625 0.02209,0.01675 0.04143,0.04403 0.0625,0.0625 0.03356,-0.490219 0.07887,-0.995635 0.09375,-1.4375 0,-0.181535 -0.02162,-0.351952 -0.03125,-0.53125 z m -22.25,0.1875 c -0.0041,0.116761 -0.03125,0.226065 -0.03125,0.34375 0.0089,0.394015 0.01433,0.831368 0.03125,1.28125 0.02004,-0.01259 0.04169,-0.02004 0.0625,-0.03125 -0.04736,-0.572202 -0.05177,-1.100088 -0.0625,-1.59375 z m 22.78125,4.15625 c -0.06159,0.64763 -0.226321,1.33675 -0.53125,2.0625 -0.298127,0.709567 -0.689887,1.313862 -1.09375,1.8125 -0.13063,0.616722 -0.206804,1.094279 -0.375,1.8125 -0.457646,1.386865 -2.257359,4.118926 -3.625,6.25 -0.02074,0.333412 0.0072,0.66698 0,1 1.367641,-2.131074 3.167354,-4.863135 3.625,-6.25 0.168196,-0.718221 0.24437,-1.195778 0.375,-1.8125 0.403863,-0.498638 0.795623,-1.102933 1.09375,-1.8125 0.470287,-1.119312 0.627677,-2.206615 0.53125,-3.0625 z m -23.5,0.03125 c -0.0753,0.862573 0.07187,1.93789 0.53125,3.03125 0.335394,0.798261 0.819,1.443439 1.28125,1.96875 0.01541,0.01756 0.04697,0.04538 0.0625,0.0625 0.110339,0.546958 0.17906,0.976787 0.3125,1.59375 0.413386,1.252745 2.120753,3.599311 3.625,5.625 0.0375,0.390669 0.07686,0.794488 0.09375,1.1875 0.0081,-0.738161 -0.02467,-1.467847 -0.09375,-2.1875 -1.504247,-2.025689 -3.211614,-4.372255 -3.625,-5.625 C 38.21031,46.414287 38.141589,45.984458 38.03125,45.4375 38.01572,45.42038 37.98416,45.39256 37.96875,45.375 37.5065,44.849689 37.022894,44.204511 36.6875,43.40625 36.389824,42.69776 36.226098,42.019706 36.15625,41.375 z M 26.375,68 l -0.15625,1 43.5625,0 -0.15625,-1 -43.25,0 z"
       inkscape:connector-curvature="0"
       id="path4075"
       style="opacity:0.4;fill:#ffffff;fill-opacity:1;stroke:none;display:inline;enable-background:new" />
    <path
       d="m 48,26 c -6.161552,0 -11.15625,4.722124 -11.15625,10.53125 0.01497,0.665734 0.02522,1.421935 0.09375,2.25 -0.975113,0.525097 -1.119789,2.554842 -0.25,4.625 0.335394,0.798261 0.819,1.443439 1.28125,1.96875 0.01541,0.01756 0.04697,0.04538 0.0625,0.0625 0.110339,0.546958 0.17906,0.976787 0.3125,1.59375 0.413386,1.252745 2.120753,3.599311 3.625,5.625 0.15001,1.562676 0.145565,3.128738 -0.15625,4.90625 -4.329732,3.628641 -15.391597,5.243446 -15.375,9 L 26.21875,68 69.78125,68 69.5625,66.5625 c -0.01766,-3.215106 -11.129605,-5.243437 -15.40625,-9 -0.173156,-1.438969 -0.213147,-2.863942 -0.125,-4.28125 1.367641,-2.131074 3.167354,-4.863135 3.625,-6.25 0.168196,-0.718221 0.24437,-1.195778 0.375,-1.8125 0.403863,-0.498638 0.795623,-1.102933 1.09375,-1.8125 0.825993,-1.965914 0.71685,-3.861699 -0.125,-4.5 0.05883,-0.85421 0.131657,-1.644935 0.15625,-2.375 C 59.156259,30.722126 54.16155,26 48,26 z m 0,1.03125 c 5.621588,0 10.106856,4.26697 10.125,9.46875 3.7e-5,0.01057 0,0.02067 0,0.03125 -0.02407,0.679926 -0.0972,1.455099 -0.15625,2.3125 a 1.0345829,1.0345829 0 0 0 0.40625,0.875 c 0.04518,0.03425 0.258744,0.353989 0.28125,0.96875 0.02251,0.614761 -0.139305,1.454023 -0.5,2.3125 -0.254012,0.604569 -0.584983,1.127257 -0.9375,1.5625 A 1.0345829,1.0345829 0 0 0 57.03125,45 c -0.131113,0.619002 -0.194989,1.073194 -0.34375,1.71875 -0.0057,0.0249 -0.02528,0.037 -0.03125,0.0625 -0.179084,0.514513 -0.694727,1.487869 -1.34375,2.5625 -0.664694,1.100579 -1.469558,2.304989 -2.15625,3.375 A 1.0345829,1.0345829 0 0 0 53,53.21875 c -0.09202,1.47953 -0.05558,2.968111 0.125,4.46875 a 1.0345829,1.0345829 0 0 0 0.34375,0.65625 c 2.402727,2.110532 6.304152,3.506929 9.59375,4.875 1.644799,0.684036 3.122599,1.336322 4.125,1.96875 0.5012,0.316214 0.884387,0.627878 1.09375,0.875 0.209363,0.247122 0.249427,0.395744 0.25,0.5 a 1.0345829,1.0345829 0 0 0 0,0.15625 l 0.03125,0.25 -41.125,0 0.03125,-0.25 a 1.0345829,1.0345829 0 0 0 0,-0.15625 c -0.0019,-0.431123 0.365682,-0.971678 1.34375,-1.625 0.978068,-0.653322 2.42972,-1.313164 4.0625,-1.96875 3.26556,-1.311172 7.154377,-2.580622 9.59375,-4.625 A 1.0345829,1.0345829 0 0 0 42.84375,57.75 C 43.162071,55.875276 43.156478,54.192551 43,52.5625 a 1.0345829,1.0345829 0 0 0 -0.1875,-0.53125 c -0.749824,-1.009747 -1.571273,-2.094561 -2.21875,-3.0625 -0.623238,-0.931703 -1.094879,-1.730225 -1.25,-2.15625 -0.0048,-0.02234 0.0047,-0.04063 0,-0.0625 -0.0024,-0.007 -0.02904,-0.02456 -0.03125,-0.03125 -0.113695,-0.537542 -0.17352,-0.965974 -0.28125,-1.5 A 1.0345829,1.0345829 0 0 0 38.8125,44.75 C 38.703077,44.629374 38.660828,44.585887 38.75,44.6875 38.328868,44.208917 37.931192,43.65438 37.65625,43 c -0.380192,-0.904883 -0.537495,-1.805292 -0.5,-2.4375 0.03749,-0.632208 0.264795,-0.866139 0.28125,-0.875 a 1.0345829,1.0345829 0 0 0 0.53125,-1 c -0.06403,-0.773731 -0.07896,-1.4915 -0.09375,-2.15625 0,-0.01058 -3.7e-5,-0.02068 0,-0.03125 0.01815,-5.201785 4.50341,-9.46875 10.125,-9.46875 z"
       inkscape:connector-curvature="0"
       id="path4093"
       style="opacity:0.15;fill:#000000;fill-opacity:1;stroke:none;display:inline;enable-background:new" />
    <path
       d="m 48,26 c -6.161552,0 -11.15625,4.722124 -11.15625,10.53125 0.0046,0.205704 0.02645,0.435507 0.03125,0.65625 C 37.07158,31.540726 41.963273,27 48,27 c 5.969002,0 10.826445,4.441748 11.125,10 0.0075,-0.149559 0.0264,-0.32465 0.03125,-0.46875 C 59.156259,30.722126 54.16155,26 48,26 z M 36.875,38.8125 c -0.597548,0.375385 -0.848637,1.363625 -0.71875,2.5625 0.06727,-0.770614 0.321146,-1.345985 0.78125,-1.59375 -0.02797,-0.337974 -0.05083,-0.658505 -0.0625,-0.96875 z m 22.1875,0.15625 c -0.02189,0.319738 -0.03928,0.600292 -0.0625,0.9375 0.35676,0.2705 0.579709,0.773571 0.65625,1.40625 0.0939,-1.046833 -0.113039,-1.922404 -0.59375,-2.34375 z m -17,16.0625 c -0.01761,0.805488 -0.09909,1.642494 -0.25,2.53125 -4.329732,3.628641 -15.391597,5.243446 -15.375,9 L 26.21875,68 26.375,68 26.4375,67.5625 c -0.0166,-3.756554 11.045268,-5.371359 15.375,-9 0.214447,-1.262969 0.287433,-2.411299 0.25,-3.53125 z M 54,55.75 c -0.0017,0.926792 0.04294,1.87087 0.15625,2.8125 4.276645,3.756563 15.38859,5.784894 15.40625,9 L 69.625,68 69.78125,68 69.5625,66.5625 c -0.01766,-3.215106 -11.129605,-5.243437 -15.40625,-9 C 54.083266,56.955985 54.024418,56.348804 54,55.75 z"
       inkscape:connector-curvature="0"
       id="path4084"
       style="opacity:0.5;fill:#000000;fill-opacity:1;stroke:none;display:inline;enable-background:new" />
  </g>
</svg>
