<?xml version="1.0" encoding="UTF-8" standalone="no"?>
<!-- Created with Inkscape (http://www.inkscape.org/) -->

<svg
   xmlns:dc="http://purl.org/dc/elements/1.1/"
   xmlns:cc="http://creativecommons.org/ns#"
   xmlns:rdf="http://www.w3.org/1999/02/22-rdf-syntax-ns#"
   xmlns:svg="http://www.w3.org/2000/svg"
   xmlns="http://www.w3.org/2000/svg"
   xmlns:xlink="http://www.w3.org/1999/xlink"
   xmlns:inkscape="http://www.inkscape.org/namespaces/inkscape"
   version="1.0"
   width="96"
   height="96"
   id="svg2408">
  <defs
     id="defs2410">
    <linearGradient
       id="linearGradient4384">
      <stop
         id="stop4386"
         style="stop-color:#ffffff;stop-opacity:1"
         offset="0" />
      <stop
         id="stop4388"
         style="stop-color:#ffffff;stop-opacity:0"
         offset="1" />
    </linearGradient>
    <linearGradient
       id="linearGradient4367">
      <stop
         id="stop4369"
         style="stop-color:#ffffff;stop-opacity:0.71755725"
         offset="0" />
      <stop
         id="stop4371"
         style="stop-color:#ffffff;stop-opacity:1"
         offset="1" />
    </linearGradient>
    <linearGradient
       x1="45.447727"
       y1="92.539597"
       x2="45.447727"
       y2="7.0165396"
       id="ButtonShadow"
       gradientUnits="userSpaceOnUse"
       gradientTransform="scale(1.0058652,0.994169)">
      <stop
         id="stop3750"
         style="stop-color:#000000;stop-opacity:1"
         offset="0" />
      <stop
         id="stop3752"
         style="stop-color:#000000;stop-opacity:0.58823532"
         offset="1" />
    </linearGradient>
    <linearGradient
       id="linearGradient3737">
      <stop
         id="stop3739"
         style="stop-color:#ffffff;stop-opacity:1"
         offset="0" />
      <stop
         id="stop3741"
         style="stop-color:#ffffff;stop-opacity:0"
         offset="1" />
    </linearGradient>
    <filter
       color-interpolation-filters="sRGB"
       id="filter3174">
      <feGaussianBlur
         id="feGaussianBlur3176"
         stdDeviation="1.71" />
    </filter>
    <filter
       x="-0.192"
       y="-0.192"
       width="1.3839999"
       height="1.3839999"
       color-interpolation-filters="sRGB"
       id="filter3794">
      <feGaussianBlur
         id="feGaussianBlur3796"
         stdDeviation="5.28" />
    </filter>
    <linearGradient
       x1="48"
       y1="20.220806"
       x2="48"
       y2="138.66119"
       id="linearGradient3613"
       xlink:href="#linearGradient3737"
       gradientUnits="userSpaceOnUse" />
    <linearGradient
       x1="48"
       y1="90"
       x2="48"
       y2="5.9877172"
       id="linearGradient3617"
       xlink:href="#linearGradient3614"
       gradientUnits="userSpaceOnUse" />
    <linearGradient
       x1="45.447727"
       y1="92.539597"
       x2="45.447727"
       y2="7.0165396"
       id="ButtonShadow-0"
       gradientUnits="userSpaceOnUse"
       gradientTransform="matrix(1.0058652,0,0,0.994169,100,0)">
      <stop
         id="stop3750-8"
         style="stop-color:#000000;stop-opacity:1"
         offset="0" />
      <stop
         id="stop3752-5"
         style="stop-color:#000000;stop-opacity:0.58823532"
         offset="1" />
    </linearGradient>
    <linearGradient
       x1="32.251034"
       y1="6.1317081"
       x2="32.251034"
       y2="90.238609"
       id="linearGradient3780"
       xlink:href="#ButtonShadow-0"
       gradientUnits="userSpaceOnUse"
       gradientTransform="matrix(1.0238095,0,0,1.0119048,-1.1428571,-98.071429)" />
    <linearGradient
       x1="32.251034"
       y1="6.1317081"
       x2="32.251034"
       y2="90.238609"
       id="linearGradient3772"
       xlink:href="#ButtonShadow-0"
       gradientUnits="userSpaceOnUse"
       gradientTransform="matrix(1.0238095,0,0,1.0119048,-1.1428571,-98.071429)" />
    <linearGradient
       x1="32.251034"
       y1="6.1317081"
       x2="32.251034"
       y2="90.238609"
       id="linearGradient3725"
       xlink:href="#ButtonShadow-0"
       gradientUnits="userSpaceOnUse"
       gradientTransform="matrix(1.0238095,0,0,1.0119048,-1.1428571,-98.071429)" />
    <linearGradient
       x1="32.251034"
       y1="6.1317081"
       x2="32.251034"
       y2="90.238609"
       id="linearGradient3721"
       xlink:href="#ButtonShadow-0"
       gradientUnits="userSpaceOnUse"
       gradientTransform="translate(0,-97)" />
    <linearGradient
       x1="32.251034"
       y1="6.1317081"
       x2="32.251034"
       y2="90.238609"
       id="linearGradient3026"
       xlink:href="#ButtonShadow-0"
       gradientUnits="userSpaceOnUse"
       gradientTransform="matrix(1.0238095,0,0,1.0119048,-1.1428571,-98.071429)" />
    <clipPath
       id="clipPath4355">
      <rect
         width="84"
         height="80"
         rx="6"
         ry="6"
         x="6"
         y="6"
         id="rect4357"
         style="fill:#ffffff;fill-opacity:1;fill-rule:nonzero;stroke:none" />
    </clipPath>
    <radialGradient
       cx="48"
       cy="87.792389"
       r="42"
       fx="48"
       fy="87.792389"
       id="radialGradient4375"
       xlink:href="#linearGradient4367"
       gradientUnits="userSpaceOnUse"
       gradientTransform="matrix(1,-6.7114942e-8,8.4282233e-8,1.2557894,109.99999,-24.505592)" />
    <linearGradient
       x1="48"
       y1="88"
       x2="48"
       y2="-40"
       id="linearGradient4390"
       xlink:href="#linearGradient4384"
       gradientUnits="userSpaceOnUse"
       gradientTransform="matrix(1,0,0,-1,0,92)" />
    <linearGradient
       x1="48"
       y1="82"
       x2="112.12357"
       y2="82.454597"
       id="linearGradient4429"
       xlink:href="#linearGradient4384"
       gradientUnits="userSpaceOnUse"
       spreadMethod="reflect" />
    <linearGradient
       id="linearGradient3843">
      <stop
         id="stop3845"
         style="stop-color:#523823;stop-opacity:1"
         offset="0" />
      <stop
         id="stop3847"
         style="stop-color:#79563a;stop-opacity:1"
         offset="0.11780351" />
      <stop
         id="stop3849"
         style="stop-color:#875c38;stop-opacity:1"
         offset="0.23809524" />
      <stop
         id="stop3851"
         style="stop-color:#a66e40;stop-opacity:1"
         offset="1" />
    </linearGradient>
    <linearGradient
       x1="8"
       y1="1033.3622"
       x2="50"
       y2="1033.3622"
       id="linearGradient3870"
       xlink:href="#linearGradient3843"
       gradientUnits="userSpaceOnUse"
       gradientTransform="translate(-2,-956.3622)"
       spreadMethod="reflect" />
    <linearGradient
       id="linearGradient3614">
      <stop
         id="stop3616"
         style="stop-color:#2557a3;stop-opacity:1"
         offset="0" />
      <stop
         id="stop3618"
         style="stop-color:#5287d7;stop-opacity:1"
         offset="1" />
    </linearGradient>
    <linearGradient
       x1="46.125015"
       y1="63.048103"
       x2="46.125015"
       y2="24.840103"
       id="linearGradient3703"
       xlink:href="#linearGradient3697"
       gradientUnits="userSpaceOnUse" />
    <linearGradient
       id="linearGradient3697">
      <stop
         id="stop3699"
         style="stop-color:#dcdcdc;stop-opacity:1"
         offset="0" />
      <stop
         id="stop3701"
         style="stop-color:#f0f0f0;stop-opacity:1"
         offset="1" />
    </linearGradient>
    <linearGradient
       x1="46.125015"
       y1="63.048103"
       x2="46.125015"
       y2="24.840103"
       id="linearGradient3761"
       xlink:href="#linearGradient3697"
       gradientUnits="userSpaceOnUse" />
    <filter
       x="-0.18970989"
       y="-0.11606622"
       width="1.3794198"
       height="1.2321324"
       color-interpolation-filters="sRGB"
       id="filter3789">
      <feGaussianBlur
         id="feGaussianBlur3791"
         stdDeviation="1.8477742" />
    </filter>
    <linearGradient
       id="linearGradient3771">
      <stop
         id="stop3773"
         style="stop-color:#154a99;stop-opacity:1"
         offset="0" />
      <stop
         id="stop3775"
         style="stop-color:#154a99;stop-opacity:0"
         offset="1" />
    </linearGradient>
    <linearGradient
       x1="15"
       y1="47.277454"
       x2="106.50636"
       y2="47.024918"
       id="linearGradient3162"
       xlink:href="#linearGradient3771"
       gradientUnits="userSpaceOnUse"
       gradientTransform="translate(0,-2)" />
  </defs>
  <metadata
     id="metadata2413">
    <rdf:RDF>
      <cc:Work
         rdf:about="">
        <dc:format>image/svg+xml</dc:format>
        <dc:type
           rdf:resource="http://purl.org/dc/dcmitype/StillImage" />
        <dc:title />
      </cc:Work>
    </rdf:RDF>
  </metadata>
  <g
     id="layer2"
     style="display:none">
    <rect
       width="86"
       height="85"
       rx="6"
       ry="6"
       x="5"
       y="7"
       id="rect3745"
       style="opacity:0.9;fill:url(#ButtonShadow);fill-opacity:1;fill-rule:nonzero;stroke:none;filter:url(#filter3174)" />
  </g>
  <g
     id="layer3"
     style="display:inline">
    <path
       d="m 12,-95.03125 c -5.5110903,0 -10.03125,4.52016 -10.03125,10.03125 l 0,71 c 0,5.5110902 4.5201598,10.03125 10.03125,10.03125 l 72,0 c 5.51109,0 10.03125,-4.5201597 10.03125,-10.03125 l 0,-71 c 0,-5.51109 -4.52016,-10.03125 -10.03125,-10.03125 l -72,0 z"
       transform="scale(1,-1)"
       id="path3786"
       style="opacity:0.07999998;fill:url(#linearGradient3026);fill-opacity:1;fill-rule:nonzero;stroke:none;display:inline" />
    <path
       d="m 12,-94.03125 c -4.971633,0 -9.03125,4.059617 -9.03125,9.03125 l 0,71 c 0,4.9716329 4.0596171,9.03125 9.03125,9.03125 l 72,0 c 4.971633,0 9.03125,-4.059617 9.03125,-9.03125 l 0,-71 c 0,-4.971633 -4.059617,-9.03125 -9.03125,-9.03125 l -72,0 z"
       transform="scale(1,-1)"
       id="path3778"
       style="opacity:0.1;fill:url(#linearGradient3780);fill-opacity:1;fill-rule:nonzero;stroke:none;display:inline" />
    <path
       d="m 12,-93 c -4.4091333,0 -8,3.590867 -8,8 l 0,71 c 0,4.4091333 3.5908667,8 8,8 l 72,0 c 4.409133,0 8,-3.5908667 8,-8 l 0,-71 c 0,-4.409133 -3.590867,-8 -8,-8 l -72,0 z"
       transform="scale(1,-1)"
       id="path3770"
       style="opacity:0.2;fill:url(#linearGradient3772);fill-opacity:1;fill-rule:nonzero;stroke:none;display:inline" />
    <rect
       width="86"
       height="85"
       rx="7"
       ry="7"
       x="5"
       y="-92"
       transform="scale(1,-1)"
       id="rect3723"
       style="opacity:0.3;fill:url(#linearGradient3725);fill-opacity:1;fill-rule:nonzero;stroke:none;display:inline" />
    <rect
       width="84"
       height="84"
       rx="6"
       ry="6"
       x="6"
       y="-91"
       transform="scale(1,-1)"
       id="rect3716"
       style="opacity:0.45;fill:url(#linearGradient3721);fill-opacity:1;fill-rule:nonzero;stroke:none;display:inline" />
  </g>
  <g
     id="layer4">
    <rect
       width="84"
       height="26.000017"
       rx="6"
       ry="6"
       x="6"
       y="64"
       id="rect2841"
       style="color:#000000;fill:url(#linearGradient3870);fill-opacity:1;fill-rule:nonzero;stroke:none;stroke-width:1.5;marker:none;visibility:visible;display:inline;overflow:visible;enable-background:accumulate" />
    <path
       d="m 6,82 0,2 c 0,3.324 2.676,6 6,6 l 72,0 c 3.324,0 6,-2.676 6,-6 l 0,-2 c 0,3.324 -2.676,6 -6,6 L 12,88 C 8.676,88 6,85.324 6,82 z"
       inkscape:connector-curvature="0"
       id="rect4345"
       style="opacity:0.1;color:#000000;fill:#000000;fill-opacity:1;fill-rule:nonzero;stroke:none;stroke-width:1.5;marker:none;visibility:visible;display:inline;overflow:visible;enable-background:accumulate" />
    <path
       d="m 6,83 0,1 c 0,3.324 2.676,6 6,6 l 72,0 c 3.324,0 6,-2.676 6,-6 l 0,-1 c 0,3.324 -2.676,6 -6,6 L 12,89 C 8.676,89 6,86.324 6,83 z"
       inkscape:connector-curvature="0"
       id="rect4336"
       style="opacity:0.1;color:#000000;fill:#000000;fill-opacity:1;fill-rule:nonzero;stroke:none;stroke-width:1.5;marker:none;visibility:visible;display:inline;overflow:visible;enable-background:accumulate" />
    <path
       d="m 6,80 0,1 c 0,3.324 2.676,6 6,6 l 72,0 c 3.324,0 6,-2.676 6,-6 l 0,-1 c 0,3.324 -2.676,6 -6,6 L 12,86 C 8.676,86 6,83.324 6,80 z"
       inkscape:connector-curvature="0"
       id="path4412"
       style="opacity:0.2;fill:#000000;fill-opacity:1;fill-rule:nonzero;stroke:none" />
  </g>
  <g
     id="layer1">
    <rect
       width="84"
       height="80"
       rx="6"
       ry="6"
       x="6"
       y="6"
       id="rect2419"
       style="fill:url(#linearGradient3617);fill-opacity:1;fill-rule:nonzero;stroke:none" />
    <path
       d="M 120.78125,6.125 C 118.04223,6.6826484 116,9.0915 116,12 l 0,68 c 0,3.324 2.676,6 6,6 l 72,0 c 3.324,0 6,-2.676 6,-6 l 0,-68 c 0,-2.9085 -2.04223,-5.3173516 -4.78125,-5.875 2.20512,0.5362071 3.8125,2.4908437 3.8125,4.875 l 0,68 c 0,2.80489 -2.22636,5.03125 -5.03125,5.03125 l -72,0 c -2.80489,0 -5.03125,-2.22636 -5.03125,-5.03125 l 0,-68 c 0,-2.3841563 1.60738,-4.3387929 3.8125,-4.875 z"
       inkscape:connector-curvature="0"
       id="rect4359"
       style="opacity:0.2;fill:url(#radialGradient4375);fill-opacity:1;fill-rule:nonzero;stroke:none" />
    <path
       d="M 12,86 C 8.676,86 6,83.324 6,80 L 6,12 C 6,8.676 8.676,6 12,6 l 72,0 c 3.324,0 6,2.676 6,6 l 0,68 c 0,3.324 -2.676,6 -6,6 z m 0,-0.96875 72,0 c 2.80489,0 5.03125,-2.22636 5.03125,-5.03125 l 0,-68 C 89.03125,9.19511 86.80489,6.96875 84,6.96875 l -72,0 C 9.1951102,6.96875 6.96875,9.19511 6.96875,12 l 0,68 c 0,2.80489 2.2263602,5.03125 5.03125,5.03125 z"
       inkscape:connector-curvature="0"
       id="rect4377"
       style="opacity:0.25;fill:url(#linearGradient4390);fill-opacity:1;fill-rule:nonzero;stroke:none" />
    <path
       d="m 6,78 0,2 c 0,3.324 2.676,6 6,6 l 72,0 c 3.324,0 6,-2.676 6,-6 l 0,-2 c 0,3.324 -2.676,6 -6,6 L 12,84 C 8.676,84 6,81.324 6,78 z"
       inkscape:connector-curvature="0"
       id="rect4414"
       style="opacity:0.1;fill:url(#linearGradient4429);fill-opacity:1;fill-rule:nonzero;stroke:none" />
    <path
       d="m 48,15 c -18.225397,0 -33,12.088312 -33,27 0,9.498438 5.99976,17.843462 15.0625,22.65625 -0.344625,2.508754 -1.914014,8.649817 -9.34375,10.75 9.622915,1.045823 16.013601,-3.646306 19.40625,-7.1875 C 42.648507,68.724251 45.286067,69 48,69 66.225397,69 81,56.911688 81,42 81,27.088312 66.225397,15 48,15 z"
       inkscape:connector-curvature="0"
       id="path3620"
       style="opacity:0.6;fill:url(#linearGradient3162);fill-opacity:1;stroke:none;display:inline" />
    <path
       d="m 15,42.40625 c -0.0053,0.200069 0,0.392631 0,0.59375 0,9.441618 5.934255,17.73658 14.90625,22.5625 0.06714,-0.329302 0.120551,-0.646372 0.15625,-0.90625 C 21.128785,59.911981 15.167817,51.73661 15,42.40625 z M 81,42.5 C 80.669643,57.177737 66.018397,69 48,69 c -2.713933,0 -5.351493,-0.275749 -7.875,-0.78125 -3.113855,3.250193 -8.747725,7.449531 -17.09375,7.3125 -0.700608,0.332399 -1.466906,0.635974 -2.3125,0.875 9.622915,1.045823 16.013601,-3.646306 19.40625,-7.1875 C 42.648507,69.724251 45.286067,70 48,70 66.225397,70 81,57.911688 81,43 c 0,-0.169364 0.0038,-0.331378 0,-0.5 z"
       inkscape:connector-curvature="0"
       id="path3779"
       style="opacity:0.2;fill:#ffffff;fill-opacity:1;stroke:none;display:inline" />
    <path
       d="m 48,15 c -18.225397,0 -33,12.088312 -33,27 0,9.498438 5.99976,17.843462 15.0625,22.65625 -0.344625,2.508754 -1.914014,8.649817 -9.34375,10.75 9.622915,1.045823 16.013601,-3.646306 19.40625,-7.1875 C 42.648507,68.724251 45.286067,69 48,69 66.225397,69 81,56.911688 81,42 81,27.088312 66.225397,15 48,15 z m 0,2.9375 c 16.920322,0 30.0625,11.100368 30.0625,24.0625 0,12.962132 -13.142178,24.0625 -30.0625,24.0625 -2.514011,0 -4.943414,-0.281692 -7.28125,-0.75 A 2.9517629,2.9517629 0 0 0 38,66.1875 c -1.62088,1.691849 -4.004104,3.567605 -7.125,4.875 1.341535,-2.353896 1.934715,-4.614792 2.125,-6 a 2.9517629,2.9517629 0 0 0 -1.5625,-3 C 23.146372,57.659478 17.9375,50.25556 17.9375,42 17.9375,29.037868 31.079678,17.9375 48,17.9375 z"
       inkscape:connector-curvature="0"
       id="path3811"
       style="opacity:0.05;fill:#000000;fill-opacity:1;stroke:none;display:inline" />
    <path
       d="m 48,15 c -18.225397,0 -33,12.088312 -33,27 0,9.498438 5.99976,17.843462 15.0625,22.65625 -0.344625,2.508754 -1.914014,8.649817 -9.34375,10.75 9.622915,1.045823 16.013601,-3.646306 19.40625,-7.1875 C 42.648507,68.724251 45.286067,69 48,69 66.225397,69 81,56.911688 81,42 81,27.088312 66.225397,15 48,15 z m 0,1.875 c 17.393221,0 31.125,11.456439 31.125,25.125 0,13.668561 -13.731779,25.125 -31.125,25.125 -2.586453,0 -5.094885,-0.268215 -7.5,-0.75 a 1.8821808,1.8821808 0 0 0 -1.71875,0.53125 c -2.229762,2.327391 -5.862118,5.104965 -10.90625,6.21875 0.603013,-0.636706 1.319873,-1.240512 1.75,-1.90625 1.573141,-2.434865 2.115946,-4.881651 2.3125,-6.3125 A 1.8821808,1.8821808 0 0 0 30.9375,63 C 22.366775,58.448498 16.875,50.705921 16.875,42 16.875,28.331439 30.606779,16.875 48,16.875 z"
       inkscape:connector-curvature="0"
       id="path3804"
       style="opacity:0.07999998;fill:#000000;fill-opacity:1;stroke:none;display:inline" />
    <path
       d="m 48,15 c -18.225397,0 -33,12.088312 -33,27 0,9.498438 5.99976,17.843462 15.0625,22.65625 -0.344625,2.508754 -1.914014,8.649817 -9.34375,10.75 9.622915,1.045823 16.013601,-3.646306 19.40625,-7.1875 C 42.648507,68.724251 45.286067,69 48,69 66.225397,69 81,56.911688 81,42 81,27.088312 66.225397,15 48,15 z m 0,1.0625 c 17.7572,0 31.9375,11.725217 31.9375,25.9375 0,14.212283 -14.1803,25.9375 -31.9375,25.9375 -2.642211,0 -5.199353,-0.257842 -7.65625,-0.75 A 1.0589482,1.0589482 0 0 0 39.375,67.5 c -2.643757,2.759512 -7.248859,6.049087 -13.78125,6.71875 1.442602,-1.037266 2.550304,-2.240676 3.34375,-3.46875 1.481728,-2.293379 2.001549,-4.583837 2.1875,-5.9375 A 1.0589482,1.0589482 0 0 0 30.5625,63.71875 C 21.776577,59.052966 16.0625,51.052554 16.0625,42 16.0625,27.787717 30.2428,16.0625 48,16.0625 z"
       inkscape:connector-curvature="0"
       id="path3797"
       style="opacity:0.15;fill:#000000;fill-opacity:1;stroke:none;display:inline" />
  </g>
  <g
     id="layer5"
     style="display:inline">
    <rect
       width="66"
       height="62"
       rx="12"
       ry="12"
       x="15"
       y="15"
       clip-path="url(#clipPath4355)"
       id="rect3171"
       style="opacity:0.1;fill:url(#linearGradient3613);fill-opacity:1;fill-rule:nonzero;stroke:#ffffff;stroke-width:0.5;stroke-linecap:round;stroke-linejoin:miter;stroke-miterlimit:4;stroke-opacity:1;stroke-dasharray:none;stroke-dashoffset:0;filter:url(#filter3794)" />
  </g>
  <g
     id="layer6">
    <g
       transform="matrix(0.94113621,0,0,0.94221106,4.5900793,2.5953791)"
       id="g3741"
       style="font-size:48px;font-style:normal;font-variant:normal;font-weight:normal;font-stretch:normal;text-align:start;line-height:125%;writing-mode:tb-rl;text-anchor:start;opacity:0.8;fill:#000000;fill-opacity:1;stroke:none;display:inline;filter:url(#filter3789);font-family:American Participants;-inkscape-font-specification:American Participants">
      <path
         d="m 57.813014,34.824104 c -2.4e-5,2.400023 -0.736023,4.464021 -2.208,6.192 -0.448021,0.576019 -1.79202,1.744018 -4.032,3.504 -1.472016,1.184015 -2.208015,2.288014 -2.208,3.312 l 0,1.68 -8.88,0 0,-2.736 c -6e-6,-1.823985 0.703993,-3.519983 2.112,-5.088 0.03199,-0.06398 1.32799,-1.24798 3.888,-3.552 1.407986,-1.247977 2.111985,-2.399975 2.112,-3.456 -1.5e-5,-0.703974 -0.272014,-1.279973 -0.816,-1.728 -0.544013,-0.479972 -1.184013,-0.719972 -1.92,-0.72 -0.960011,2.8e-5 -1.68001,0.352028 -2.16,1.056 -0.480009,0.704026 -0.704009,1.552026 -0.672,2.544 l -8.592,0 0,-0.768 c 0,-3.167972 1.167998,-5.695969 3.504,-7.584 2.143994,-1.759965 4.831991,-2.639964 8.064,-2.64 3.199985,3.6e-5 5.919982,0.848035 8.16,2.544 2.431977,1.856031 3.647976,4.336029 3.648,7.44 m -7.872,23.328 c -1.6e-5,1.440001 -0.464015,2.608 -1.392,3.504 -0.896014,0.927998 -2.064012,1.391997 -3.504,1.392 -1.44001,-3e-6 -2.624008,-0.464002 -3.552,-1.392 -0.896007,-0.896 -1.344006,-2.063999 -1.344,-3.504 -6e-6,-1.439996 0.447993,-2.623995 1.344,-3.552 0.927992,-0.927993 2.11199,-1.391993 3.552,-1.392 1.439988,7e-6 2.607986,0.464007 3.504,1.392 0.927985,0.928005 1.391984,2.112004 1.392,3.552"
         inkscape:connector-curvature="0"
         id="path3743"
         style="fill:#000000;fill-opacity:1" />
    </g>
    <g
       transform="matrix(0.94113621,0,0,0.94221106,4.5900793,1.5953791)"
       id="text3688"
       style="font-size:48px;font-style:normal;font-variant:normal;font-weight:normal;font-stretch:normal;text-align:start;line-height:125%;writing-mode:tb-rl;text-anchor:start;fill:url(#linearGradient3703);fill-opacity:1;stroke:none;display:inline;font-family:American Participants;-inkscape-font-specification:American Participants">
      <path
         d="m 57.813014,34.824104 c -2.4e-5,2.400023 -0.736023,4.464021 -2.208,6.192 -0.448021,0.576019 -1.79202,1.744018 -4.032,3.504 -1.472016,1.184015 -2.208015,2.288014 -2.208,3.312 l 0,1.68 -8.88,0 0,-2.736 c -6e-6,-1.823985 0.703993,-3.519983 2.112,-5.088 0.03199,-0.06398 1.32799,-1.24798 3.888,-3.552 1.407986,-1.247977 2.111985,-2.399975 2.112,-3.456 -1.5e-5,-0.703974 -0.272014,-1.279973 -0.816,-1.728 -0.544013,-0.479972 -1.184013,-0.719972 -1.92,-0.72 -0.960011,2.8e-5 -1.68001,0.352028 -2.16,1.056 -0.480009,0.704026 -0.704009,1.552026 -0.672,2.544 l -8.592,0 0,-0.768 c 0,-3.167972 1.167998,-5.695969 3.504,-7.584 2.143994,-1.759965 4.831991,-2.639964 8.064,-2.64 3.199985,3.6e-5 5.919982,0.848035 8.16,2.544 2.431977,1.856031 3.647976,4.336029 3.648,7.44 m -7.872,23.328 c -1.6e-5,1.440001 -0.464015,2.608 -1.392,3.504 -0.896014,0.927998 -2.064012,1.391997 -3.504,1.392 -1.44001,-3e-6 -2.624008,-0.464002 -3.552,-1.392 -0.896007,-0.896 -1.344006,-2.063999 -1.344,-3.504 -6e-6,-1.439996 0.447993,-2.623995 1.344,-3.552 0.927992,-0.927993 2.11199,-1.391993 3.552,-1.392 1.439988,7e-6 2.607986,0.464007 3.504,1.392 0.927985,0.928005 1.391984,2.112004 1.392,3.552"
         inkscape:connector-curvature="0"
         id="path3695"
         style="fill:url(#linearGradient3761);fill-opacity:1" />
    </g>
    <path
       d="m 47.875,25 c -3.041761,3.4e-5 -5.544708,0.841742 -7.562499,2.5 -2.198496,1.778924 -3.3125,4.140101 -3.3125,7.125 l 0,0.71875 0.09375,0 c 0.280046,-2.387465 1.345144,-4.327712 3.21875,-5.84375 2.017791,-1.658258 4.520738,-2.499966 7.562499,-2.5 3.011621,3.4e-5 5.579338,0.808293 7.6875,2.40625 2.036262,1.555805 3.149551,3.577803 3.375,6.0625 C 58.97234,35.12254 59,34.768276 59,34.40625 c -2.3e-5,-2.924596 -1.148678,-5.251227 -3.4375,-7 C 53.454338,25.808293 50.886621,25.000034 47.875,25 z m 2.21875,10.3125 c -0.28962,0.700055 -0.868872,1.436865 -1.75,2.21875 -2.409318,2.170873 -3.62614,3.28347 -3.65625,3.34375 -1.325126,1.477403 -2.000005,3.062671 -1.999999,4.78125 l 0,2 c -6e-6,-1.718579 0.674873,-3.303847 1.999999,-4.78125 0.03011,-0.06028 1.246932,-1.172877 3.65625,-3.34375 1.325107,-1.175858 1.968736,-2.255002 1.96875,-3.25 -8e-6,-0.358281 -0.07419,-0.681674 -0.21875,-0.96875 z m -3.125,16.40625 c -1.355246,7e-6 -2.439133,0.438135 -3.3125,1.3125 -0.843264,0.874377 -1.281255,1.986969 -1.281249,3.34375 -10e-7,0.339196 0.03951,0.660559 0.09375,0.96875 0.16965,-0.899558 0.569223,-1.671413 1.187499,-2.3125 0.873367,-0.874365 1.957254,-1.312493 3.3125,-1.3125 1.355225,7e-6 2.469229,0.438135 3.3125,1.3125 0.640601,0.641347 1.047317,1.412472 1.21875,2.3125 0.05482,-0.308191 0.09375,-0.629554 0.09375,-0.96875 -1.5e-5,-1.356781 -0.43914,-2.469373 -1.3125,-3.34375 -0.843271,-0.874365 -1.957275,-1.312493 -3.3125,-1.3125 z"
       inkscape:connector-curvature="0"
       id="path3737"
       style="font-size:48px;font-style:normal;font-variant:normal;font-weight:normal;font-stretch:normal;text-align:start;line-height:125%;writing-mode:tb-rl;text-anchor:start;fill:#ffffff;fill-opacity:1;stroke:none;display:inline;font-family:American Participants;-inkscape-font-specification:American Participants" />
  </g>
</svg>
