<?xml version="1.0" encoding="UTF-8" standalone="no"?>
<!-- Created with Inkscape (http://www.inkscape.org/) -->

<svg
   xmlns:dc="http://purl.org/dc/elements/1.1/"
   xmlns:cc="http://creativecommons.org/ns#"
   xmlns:rdf="http://www.w3.org/1999/02/22-rdf-syntax-ns#"
   xmlns:svg="http://www.w3.org/2000/svg"
   xmlns="http://www.w3.org/2000/svg"
   xmlns:xlink="http://www.w3.org/1999/xlink"
   xmlns:inkscape="http://www.inkscape.org/namespaces/inkscape"
   version="1.0"
   width="96"
   height="96"
   id="svg2408">
  <defs
     id="defs2410">
    <linearGradient
       id="linearGradient4052">
      <stop
         id="stop4054"
         style="stop-color:#d7d7f4;stop-opacity:1"
         offset="0" />
      <stop
         id="stop4056"
         style="stop-color:#d7d7f4;stop-opacity:0"
         offset="1" />
    </linearGradient>
    <linearGradient
       id="linearGradient4384">
      <stop
         id="stop4386"
         style="stop-color:#ffffff;stop-opacity:1"
         offset="0" />
      <stop
         id="stop4388"
         style="stop-color:#ffffff;stop-opacity:0"
         offset="1" />
    </linearGradient>
    <linearGradient
       id="linearGradient4367">
      <stop
         id="stop4369"
         style="stop-color:#ffffff;stop-opacity:0.71755725"
         offset="0" />
      <stop
         id="stop4371"
         style="stop-color:#ffffff;stop-opacity:1"
         offset="1" />
    </linearGradient>
    <linearGradient
       x1="45.447727"
       y1="92.539597"
       x2="45.447727"
       y2="7.0165396"
       id="ButtonShadow"
       gradientUnits="userSpaceOnUse"
       gradientTransform="scale(1.0058652,0.994169)">
      <stop
         id="stop3750"
         style="stop-color:#000000;stop-opacity:1"
         offset="0" />
      <stop
         id="stop3752"
         style="stop-color:#000000;stop-opacity:0.58823532"
         offset="1" />
    </linearGradient>
    <linearGradient
       id="linearGradient3737">
      <stop
         id="stop3739"
         style="stop-color:#ffffff;stop-opacity:1"
         offset="0" />
      <stop
         id="stop3741"
         style="stop-color:#ffffff;stop-opacity:0"
         offset="1" />
    </linearGradient>
    <filter
       color-interpolation-filters="sRGB"
       id="filter3174">
      <feGaussianBlur
         id="feGaussianBlur3176"
         stdDeviation="1.71" />
    </filter>
    <filter
       x="-0.192"
       y="-0.192"
       width="1.3839999"
       height="1.3839999"
       color-interpolation-filters="sRGB"
       id="filter3794">
      <feGaussianBlur
         id="feGaussianBlur3796"
         stdDeviation="5.28" />
    </filter>
    <linearGradient
       x1="48"
       y1="20.220806"
       x2="48"
       y2="138.66119"
       id="linearGradient3613"
       xlink:href="#linearGradient3737"
       gradientUnits="userSpaceOnUse" />
    <linearGradient
       x1="45.447727"
       y1="92.539597"
       x2="45.447727"
       y2="7.0165396"
       id="ButtonShadow-0"
       gradientUnits="userSpaceOnUse"
       gradientTransform="matrix(1.0058652,0,0,0.994169,100,0)">
      <stop
         id="stop3750-8"
         style="stop-color:#000000;stop-opacity:1"
         offset="0" />
      <stop
         id="stop3752-5"
         style="stop-color:#000000;stop-opacity:0.58823532"
         offset="1" />
    </linearGradient>
    <linearGradient
       x1="32.251034"
       y1="6.1317081"
       x2="32.251034"
       y2="90.238609"
       id="linearGradient3780"
       xlink:href="#ButtonShadow-0"
       gradientUnits="userSpaceOnUse"
       gradientTransform="matrix(1.0238095,0,0,1.0119048,-1.1428571,-98.071429)" />
    <linearGradient
       x1="32.251034"
       y1="6.1317081"
       x2="32.251034"
       y2="90.238609"
       id="linearGradient3772"
       xlink:href="#ButtonShadow-0"
       gradientUnits="userSpaceOnUse"
       gradientTransform="matrix(1.0238095,0,0,1.0119048,-1.1428571,-98.071429)" />
    <linearGradient
       x1="32.251034"
       y1="6.1317081"
       x2="32.251034"
       y2="90.238609"
       id="linearGradient3725"
       xlink:href="#ButtonShadow-0"
       gradientUnits="userSpaceOnUse"
       gradientTransform="matrix(1.0238095,0,0,1.0119048,-1.1428571,-98.071429)" />
    <linearGradient
       x1="32.251034"
       y1="6.1317081"
       x2="32.251034"
       y2="90.238609"
       id="linearGradient3721"
       xlink:href="#ButtonShadow-0"
       gradientUnits="userSpaceOnUse"
       gradientTransform="translate(0,-97)" />
    <linearGradient
       x1="32.251034"
       y1="6.1317081"
       x2="32.251034"
       y2="90.238609"
       id="linearGradient3026"
       xlink:href="#ButtonShadow-0"
       gradientUnits="userSpaceOnUse"
       gradientTransform="matrix(1.0238095,0,0,1.0119048,-1.1428571,-98.071429)" />
    <clipPath
       id="clipPath4355">
      <rect
         width="84"
         height="80"
         rx="6"
         ry="6"
         x="6"
         y="6"
         id="rect4357"
         style="fill:#ffffff;fill-opacity:1;fill-rule:nonzero;stroke:none" />
    </clipPath>
    <radialGradient
       cx="48"
       cy="87.792389"
       r="42"
       fx="48"
       fy="87.792389"
       id="radialGradient4375"
       xlink:href="#linearGradient4367"
       gradientUnits="userSpaceOnUse"
       gradientTransform="matrix(1,-6.7114942e-8,8.4282233e-8,1.2557894,109.99999,-24.505592)" />
    <linearGradient
       x1="48"
       y1="88"
       x2="48"
       y2="-40"
       id="linearGradient4390"
       xlink:href="#linearGradient4384"
       gradientUnits="userSpaceOnUse"
       gradientTransform="matrix(1,0,0,-1,0,92)" />
    <linearGradient
       x1="48"
       y1="82"
       x2="112.12357"
       y2="82.454597"
       id="linearGradient4429"
       xlink:href="#linearGradient4384"
       gradientUnits="userSpaceOnUse"
       spreadMethod="reflect" />
    <linearGradient
       id="linearGradient3892">
      <stop
         id="stop3894"
         style="stop-color:#000000;stop-opacity:0.58823532"
         offset="0" />
      <stop
         id="stop3896"
         style="stop-color:#000000;stop-opacity:0.47058824"
         offset="0.11780351" />
      <stop
         id="stop3898"
         style="stop-color:#000000;stop-opacity:0.39215687"
         offset="0.23809524" />
      <stop
         id="stop3900"
         style="stop-color:#000000;stop-opacity:0.3137255"
         offset="1" />
    </linearGradient>
    <linearGradient
       x1="90"
       y1="88"
       x2="48"
       y2="88"
       id="linearGradient3228"
       xlink:href="#linearGradient3892"
       gradientUnits="userSpaceOnUse"
       spreadMethod="reflect" />
    <linearGradient
       id="linearGradient3643">
      <stop
         id="stop3645"
         style="stop-color:#5262d7;stop-opacity:1"
         offset="0" />
      <stop
         id="stop3647"
         style="stop-color:#8996f6;stop-opacity:1"
         offset="1" />
    </linearGradient>
    <linearGradient
       x1="48"
       y1="90"
       x2="48"
       y2="5.9877172"
       id="linearGradient3087"
       xlink:href="#linearGradient3643"
       gradientUnits="userSpaceOnUse" />
    <linearGradient
       x1="46"
       y1="13"
       x2="46"
       y2="79"
       id="linearGradient3954"
       xlink:href="#linearGradient4367"
       gradientUnits="userSpaceOnUse" />
    <clipPath
       id="clipPath4011">
      <path
         d="M 12,6 C 8.676,6 6,8.676 6,12 l 0,72 c 0,3.324 2.676,6 6,6 l 72,0 c 3.324,0 6,-2.676 6,-6 L 90,12 C 90,8.676 87.324,6 84,6 z m 5,8 62,0 c 1.662,0 3,1.338 3,3 l 0,58 c 0,1.662 -1.338,3 -3,3 l -62,0 c -1.662,0 -3,-1.338 -3,-3 l 0,-58 c 0,-1.662 1.338,-3 3,-3 z"
         inkscape:connector-curvature="0"
         id="path4013"
         style="opacity:0.4;fill:#ff00ff;fill-opacity:1;fill-rule:nonzero;stroke:none" />
    </clipPath>
    <radialGradient
       cx="14"
       cy="14"
       r="13"
       fx="14"
       fy="14"
       id="radialGradient4026"
       xlink:href="#linearGradient4384"
       gradientUnits="userSpaceOnUse"
       gradientTransform="matrix(1.6923077,-1.6923077,1.0769231,1.0769231,-24.769231,122.61538)" />
    <radialGradient
       cx="14"
       cy="14"
       r="13"
       fx="14"
       fy="14"
       id="radialGradient4042"
       xlink:href="#linearGradient4384"
       gradientUnits="userSpaceOnUse"
       gradientTransform="matrix(-1.6923077,-1.6923077,-1.0769231,1.0769231,120.76923,122.61538)" />
    <radialGradient
       cx="14"
       cy="14"
       r="13"
       fx="14"
       fy="14"
       id="radialGradient4048"
       xlink:href="#linearGradient4384"
       gradientUnits="userSpaceOnUse"
       gradientTransform="matrix(1.6923077,1.6923077,1.0769231,-1.0769231,-24.769231,169.38462)" />
    <radialGradient
       cx="14"
       cy="14"
       r="13"
       fx="14"
       fy="14"
       id="radialGradient4050"
       xlink:href="#linearGradient4384"
       gradientUnits="userSpaceOnUse"
       gradientTransform="matrix(-1.6923077,1.6923077,-1.0769231,-1.0769231,120.76923,169.38462)" />
    <radialGradient
       cx="48"
       cy="48"
       r="42"
       fx="48"
       fy="48"
       id="radialGradient4058"
       xlink:href="#linearGradient4052"
       gradientUnits="userSpaceOnUse"
       gradientTransform="matrix(2.2857143,0,0,2.0952381,-61.714286,-52.571429)" />
  </defs>
  <metadata
     id="metadata2413">
    <rdf:RDF>
      <cc:Work
         rdf:about="">
        <dc:format>image/svg+xml</dc:format>
        <dc:type
           rdf:resource="http://purl.org/dc/dcmitype/StillImage" />
        <dc:title />
      </cc:Work>
    </rdf:RDF>
  </metadata>
  <g
     id="layer2"
     style="display:none">
    <rect
       width="86"
       height="85"
       rx="6"
       ry="6"
       x="5"
       y="7"
       id="rect3745"
       style="opacity:0.9;fill:url(#ButtonShadow);fill-opacity:1;fill-rule:nonzero;stroke:none;filter:url(#filter3174)" />
  </g>
  <g
     id="layer3"
     style="display:inline">
    <path
       d="m 12,-95.03125 c -5.5110903,0 -10.03125,4.52016 -10.03125,10.03125 l 0,71 c 0,5.5110902 4.5201598,10.03125 10.03125,10.03125 l 72,0 c 5.51109,0 10.03125,-4.5201597 10.03125,-10.03125 l 0,-71 c 0,-5.51109 -4.52016,-10.03125 -10.03125,-10.03125 l -72,0 z"
       transform="scale(1,-1)"
       id="path3786"
       style="opacity:0.07999998;fill:url(#linearGradient3026);fill-opacity:1;fill-rule:nonzero;stroke:none;display:inline" />
    <path
       d="m 12,-94.03125 c -4.971633,0 -9.03125,4.059617 -9.03125,9.03125 l 0,71 c 0,4.9716329 4.0596171,9.03125 9.03125,9.03125 l 72,0 c 4.971633,0 9.03125,-4.059617 9.03125,-9.03125 l 0,-71 c 0,-4.971633 -4.059617,-9.03125 -9.03125,-9.03125 l -72,0 z"
       transform="scale(1,-1)"
       id="path3778"
       style="opacity:0.1;fill:url(#linearGradient3780);fill-opacity:1;fill-rule:nonzero;stroke:none;display:inline" />
    <path
       d="m 12,-93 c -4.4091333,0 -8,3.590867 -8,8 l 0,71 c 0,4.4091333 3.5908667,8 8,8 l 72,0 c 4.409133,0 8,-3.5908667 8,-8 l 0,-71 c 0,-4.409133 -3.590867,-8 -8,-8 l -72,0 z"
       transform="scale(1,-1)"
       id="path3770"
       style="opacity:0.2;fill:url(#linearGradient3772);fill-opacity:1;fill-rule:nonzero;stroke:none;display:inline" />
    <rect
       width="86"
       height="85"
       rx="7"
       ry="7"
       x="5"
       y="-92"
       transform="scale(1,-1)"
       id="rect3723"
       style="opacity:0.3;fill:url(#linearGradient3725);fill-opacity:1;fill-rule:nonzero;stroke:none;display:inline" />
    <rect
       width="84"
       height="84"
       rx="6"
       ry="6"
       x="6"
       y="-91"
       transform="scale(1,-1)"
       id="rect3716"
       style="opacity:0.45;fill:url(#linearGradient3721);fill-opacity:1;fill-rule:nonzero;stroke:none;display:inline" />
  </g>
  <g
     id="layer1">
    <rect
       width="84"
       height="84"
       rx="6"
       ry="6"
       x="6"
       y="6"
       id="rect2419"
       style="fill:url(#linearGradient3087);fill-opacity:1;fill-rule:nonzero;stroke:none" />
    <path
       d="M 12,6 C 8.676,6 6,8.676 6,12 l 0,72 c 0,3.324 2.676,6 6,6 l 72,0 c 3.324,0 6,-2.676 6,-6 L 90,12 C 90,8.676 87.324,6 84,6 z m 5,8 62,0 c 1.662,0 3,1.338 3,3 l 0,58 c 0,1.662 -1.338,3 -3,3 l -62,0 c -1.662,0 -3,-1.338 -3,-3 l 0,-58 c 0,-1.662 1.338,-3 3,-3 z"
       inkscape:connector-curvature="0"
       id="rect3651"
       style="opacity:0.8;fill:url(#radialGradient4058);fill-opacity:1;fill-rule:nonzero;stroke:none" />
    <path
       d="M 120.78125,6.125 C 118.04223,6.6826484 116,9.0915 116,12 l 0,68 c 0,3.324 2.676,6 6,6 l 72,0 c 3.324,0 6,-2.676 6,-6 l 0,-68 c 0,-2.9085 -2.04223,-5.3173516 -4.78125,-5.875 2.20512,0.5362071 3.8125,2.4908437 3.8125,4.875 l 0,68 c 0,2.80489 -2.22636,5.03125 -5.03125,5.03125 l -72,0 c -2.80489,0 -5.03125,-2.22636 -5.03125,-5.03125 l 0,-68 c 0,-2.3841563 1.60738,-4.3387929 3.8125,-4.875 z"
       inkscape:connector-curvature="0"
       id="rect4359"
       style="opacity:0.2;fill:url(#radialGradient4375);fill-opacity:1;fill-rule:nonzero;stroke:none" />
    <path
       d="m 6,78 0,2 c 0,3.324 2.676,6 6,6 l 72,0 c 3.324,0 6,-2.676 6,-6 l 0,-2 c 0,3.324 -2.676,6 -6,6 L 12,84 C 8.676,84 6,81.324 6,78 z"
       inkscape:connector-curvature="0"
       id="rect4414"
       style="opacity:0.1;fill:url(#linearGradient4429);fill-opacity:1;fill-rule:nonzero;stroke:none" />
    <path
       d="m 6,100 0,1 c 0,3.324 2.676,6 6,6 l 72,0 c 3.324,0 6,-2.676 6,-6 l 0,-1 c 0,3.324 -2.676,6 -6,6 l -72,0 c -3.324,0 -6,-2.676 -6,-6 z"
       inkscape:connector-curvature="0"
       id="path4412"
       style="opacity:0.15;fill:#000000;fill-opacity:1;fill-rule:nonzero;stroke:none" />
    <path
       d="m 17,14 c -1.662,0 -3,1.338 -3,3 l 0,58 c 0,1.662 1.338,3 3,3 l 62,0 c 1.662,0 3,-1.338 3,-3 l 0,-58 c 0,-1.662 -1.338,-3 -3,-3 z m -0.0625,2.9375 c 0.0048,-0.0048 0.01906,0 0.0625,0 l 62,0 c 0.08687,0 0.0625,-0.02437 0.0625,0.0625 l 0,58 c 0,0.08687 0.02437,0.0625 -0.0625,0.0625 l -62,0 c -0.08687,0 -0.0625,0.02437 -0.0625,-0.0625 l 0,-58 c 0,-0.04344 -0.0048,-0.05773 0,-0.0625 z"
       inkscape:connector-curvature="0"
       id="rect3712"
       style="opacity:0.05;fill:#000000;fill-opacity:1;fill-rule:nonzero;stroke:none" />
    <path
       d="m 17,14 c -1.662,0 -3,1.338 -3,3 l 0,58 c 0,1.662 1.338,3 3,3 l 62,0 c 1.662,0 3,-1.338 3,-3 l 0,-58 c 0,-1.662 -1.338,-3 -3,-3 z m 0,1.84375 62,0 c 0.670253,0 1.15625,0.485997 1.15625,1.15625 l 0,58 c 0,0.670253 -0.485997,1.15625 -1.15625,1.15625 l -62,0 c -0.670253,0 -1.15625,-0.485997 -1.15625,-1.15625 l 0,-58 c 0,-0.670253 0.485997,-1.15625 1.15625,-1.15625 z"
       inkscape:connector-curvature="0"
       id="rect3708"
       style="opacity:0.12000002;fill:#000000;fill-opacity:1;fill-rule:nonzero;stroke:none" />
    <path
       d="m 17,14 c -1.662,0 -3,1.338 -3,3 l 0,58 c 0,1.662 1.338,3 3,3 l 62,0 c 1.662,0 3,-1.338 3,-3 l 0,-58 c 0,-1.662 -1.338,-3 -3,-3 z m 0,0.96875 62,0 c 1.136957,0 2.03125,0.894293 2.03125,2.03125 l 0,58 c 0,1.136957 -0.894293,2.03125 -2.03125,2.03125 l -62,0 c -1.136957,0 -2.03125,-0.894293 -2.03125,-2.03125 l 0,-58 c 0,-1.136957 0.894293,-2.03125 2.03125,-2.03125 z"
       inkscape:connector-curvature="0"
       id="rect2932"
       style="opacity:0.15;fill:#000000;fill-opacity:1;fill-rule:nonzero;stroke:none" />
    <path
       d="m 17,13 c -2.216,0 -4,1.784 -4,4 l 0,58 c 0,2.216 1.784,4 4,4 l 62,0 c 2.216,0 4,-1.784 4,-4 l 0,-58 c 0,-2.216 -1.784,-4 -4,-4 l -62,0 z m 0,1 62,0 c 1.662,0 3,1.338 3,3 l 0,58 c 0,1.662 -1.338,3 -3,3 l -62,0 c -1.662,0 -3,-1.338 -3,-3 l 0,-58 c 0,-1.662 1.338,-3 3,-3 z"
       inkscape:connector-curvature="0"
       id="rect3943"
       style="opacity:0.3;color:#000000;fill:url(#linearGradient3954);fill-opacity:1;fill-rule:nonzero;stroke:none;stroke-width:2;marker:none;visibility:visible;display:inline;overflow:visible;enable-background:accumulate" />
    <g
       transform="translate(-120,0)"
       clip-path="url(#clipPath4011)"
       id="g3993"
       style="opacity:0.5">
      <g
         id="g3962">
        <path
           d="m 78,13 9,-4 -4,9 z"
           inkscape:connector-curvature="0"
           id="path3960"
           style="opacity:0.1;fill:#ffffff;stroke:none" />
        <path
           d="m 79,13 7,-3 -3,7 z"
           inkscape:connector-curvature="0"
           id="path3958"
           style="opacity:0.15;fill:#ffffff;stroke:none" />
        <path
           d="m 80,13 5,-2 -2,5 z"
           inkscape:connector-curvature="0"
           id="path3956"
           style="opacity:0.2;fill:#ffffff;stroke:none" />
      </g>
      <g
         transform="matrix(0,-1,1,0,0,96)"
         id="g3969">
        <path
           d="m 78,13 9,-4 -4,9 z"
           inkscape:connector-curvature="0"
           id="path3971"
           style="opacity:0.1;fill:#ffffff;stroke:none" />
        <path
           d="m 79,13 7,-3 -3,7 z"
           inkscape:connector-curvature="0"
           id="path3973"
           style="opacity:0.15;fill:#ffffff;stroke:none" />
        <path
           d="m 80,13 5,-2 -2,5 z"
           inkscape:connector-curvature="0"
           id="path3975"
           style="opacity:0.2;fill:#ffffff;stroke:none" />
      </g>
      <g
         transform="matrix(1,0,0,-1,0,92)"
         id="g3977">
        <path
           d="m 78,13 9,-4 -4,9 z"
           inkscape:connector-curvature="0"
           id="path3979"
           style="opacity:0.1;fill:#ffffff;stroke:none" />
        <path
           d="m 79,13 7,-3 -3,7 z"
           inkscape:connector-curvature="0"
           id="path3981"
           style="opacity:0.15;fill:#ffffff;stroke:none" />
        <path
           d="m 80,13 5,-2 -2,5 z"
           inkscape:connector-curvature="0"
           id="path3983"
           style="opacity:0.2;fill:#ffffff;stroke:none" />
      </g>
      <g
         transform="matrix(0,1,1,0,0,-4)"
         id="g3985">
        <path
           d="m 78,13 9,-4 -4,9 z"
           inkscape:connector-curvature="0"
           id="path3987"
           style="opacity:0.1;fill:#ffffff;stroke:none" />
        <path
           d="m 79,13 7,-3 -3,7 z"
           inkscape:connector-curvature="0"
           id="path3989"
           style="opacity:0.15;fill:#ffffff;stroke:none" />
        <path
           d="m 80,13 5,-2 -2,5 z"
           inkscape:connector-curvature="0"
           id="path3991"
           style="opacity:0.2;fill:#ffffff;stroke:none" />
      </g>
    </g>
    <path
       d="m 12,106 c -3.324,0 -6,2.676 -6,6 l 0,28 8,0 0,-23 c 0,-1.662 1.338,-3 3,-3 l 23,0 0,-8 z"
       inkscape:connector-curvature="0"
       id="path4015"
       style="opacity:0.3;fill:url(#radialGradient4026);fill-opacity:1;fill-rule:nonzero;stroke:none" />
    <path
       d="m 84,106 c 3.324,0 6,2.676 6,6 l 0,28 -8,0 0,-23 c 0,-1.662 -1.338,-3 -3,-3 l -23,0 0,-8 z"
       inkscape:connector-curvature="0"
       id="path4040"
       style="opacity:0.3;fill:url(#radialGradient4042);fill-opacity:1;fill-rule:nonzero;stroke:none" />
    <path
       d="m 12,186 c -3.324,0 -6,-2.676 -6,-6 l 0,-28 8,0 0,23 c 0,1.662 1.338,3 3,3 l 23,0 0,8 z"
       inkscape:connector-curvature="0"
       id="path4044"
       style="opacity:0.3;fill:url(#radialGradient4048);fill-opacity:1;fill-rule:nonzero;stroke:none" />
    <path
       d="m 84,186 c 3.324,0 6,-2.676 6,-6 l 0,-28 -8,0 0,23 c 0,1.662 -1.338,3 -3,3 l -23,0 0,8 z"
       inkscape:connector-curvature="0"
       id="path4046"
       style="opacity:0.3;fill:url(#radialGradient4050);fill-opacity:1;fill-rule:nonzero;stroke:none" />
    <path
       d="M 12,86 C 8.676,86 6,83.324 6,80 L 6,12 C 6,8.676 8.676,6 12,6 l 72,0 c 3.324,0 6,2.676 6,6 l 0,68 c 0,3.324 -2.676,6 -6,6 z m 0,-0.96875 72,0 c 2.80489,0 5.03125,-2.22636 5.03125,-5.03125 l 0,-68 C 89.03125,9.19511 86.80489,6.96875 84,6.96875 l -72,0 C 9.19511,6.96875 6.96875,9.19511 6.96875,12 l 0,68 c 0,2.80489 2.22636,5.03125 5.03125,5.03125 z"
       inkscape:connector-curvature="0"
       id="rect4377"
       style="opacity:0.4;fill:url(#linearGradient4390);fill-opacity:1;fill-rule:nonzero;stroke:none" />
  </g>
  <g
     id="layer4"
     style="display:inline">
    <path
       d="m 6,80 0,4 c 0,3.324 2.676,6 6,6 l 72,0 c 3.324,0 6,-2.676 6,-6 l 0,-4 c 0,3.324 -2.676,6 -6,6 L 12,86 C 8.676,86 6,83.324 6,80 z"
       inkscape:connector-curvature="0"
       id="path3888"
       style="fill:url(#linearGradient3228);fill-opacity:1;fill-rule:nonzero;stroke:none;display:inline" />
    <path
       d="m 6,82 0,2 c 0,3.324 2.676,6 6,6 l 72,0 c 3.324,0 6,-2.676 6,-6 l 0,-2 c 0,3.324 -2.676,6 -6,6 L 12,88 C 8.676,88 6,85.324 6,82 z"
       inkscape:connector-curvature="0"
       id="rect4345"
       style="opacity:0.1;color:#000000;fill:#000000;fill-opacity:1;fill-rule:nonzero;stroke:none;stroke-width:1.5;marker:none;visibility:visible;display:inline;overflow:visible;enable-background:accumulate" />
    <path
       d="m 6,83 0,1 c 0,3.324 2.676,6 6,6 l 72,0 c 3.324,0 6,-2.676 6,-6 l 0,-1 c 0,3.324 -2.676,6 -6,6 L 12,89 C 8.676,89 6,86.324 6,83 z"
       inkscape:connector-curvature="0"
       id="rect4336"
       style="opacity:0.15;color:#000000;fill:#000000;fill-opacity:1;fill-rule:nonzero;stroke:none;stroke-width:1.5;marker:none;visibility:visible;display:inline;overflow:visible;enable-background:accumulate" />
  </g>
  <g
     id="layer5"
     style="display:none">
    <rect
       width="66"
       height="62"
       rx="12"
       ry="12"
       x="15"
       y="15"
       clip-path="url(#clipPath4355)"
       id="rect3171"
       style="opacity:0.1;fill:url(#linearGradient3613);fill-opacity:1;fill-rule:nonzero;stroke:#ffffff;stroke-width:0.5;stroke-linecap:round;stroke-linejoin:miter;stroke-miterlimit:4;stroke-opacity:1;stroke-dasharray:none;stroke-dashoffset:0;filter:url(#filter3794)" />
  </g>
  <g
     id="layer6">
    <path
       d="m 47,23.09375 c -4.90315,0 -8.90625,4.0031 -8.90625,8.90625 0,4.90315 4.0031,8.90625 8.90625,8.90625 4.90315,0 8.90625,-4.0031 8.90625,-8.90625 0,-4.90315 -4.0031,-8.90625 -8.90625,-8.90625 z m -11.375,18 c -5.4e-4,1.05e-4 -0.155721,0.06235 -0.15625,0.0625 -5.29e-4,1.52e-4 -0.155737,0.03105 -0.15625,0.03125 -5.13e-4,1.97e-4 -0.155756,0.06226 -0.15625,0.0625 -4.94e-4,2.41e-4 -0.155779,0.09347 -0.15625,0.09375 -4.71e-4,2.84e-4 -0.124556,0.09343 -0.125,0.09375 -4.44e-4,3.24e-4 -0.124586,0.09339 -0.125,0.09375 -4.14e-4,3.61e-4 -0.124619,0.124604 -0.125,0.125 -3.81e-4,3.96e-4 -0.124655,0.124572 -0.125,0.125 -3.45e-4,4.28e-4 -0.09344,0.124543 -0.09375,0.125 -3.06e-4,4.57e-4 -0.09349,0.155768 -0.09375,0.15625 -2.65e-4,4.82e-4 -0.06228,0.155747 -0.0625,0.15625 -2.22e-4,5.03e-4 -0.06232,0.15573 -0.0625,0.15625 -1.77e-4,5.2e-4 -0.06237,0.155716 -0.0625,0.15625 -1.31e-4,5.34e-4 -0.03117,0.155707 -0.03125,0.15625 -8.4e-5,5.43e-4 3.6e-5,0.155701 0,0.15625 -3e-5,4.57e-4 8.55e-4,0.117448 0,0.15625 -1.71e-4,0.0078 -2e-6,0.03116 0,0.03125 l 0,5.96875 c -10e-7,3.1e-4 -1.4e-5,0.09344 0,0.09375 1.4e-5,3.09e-4 -3e-5,0.09344 0,0.09375 3e-5,3.08e-4 -4.5e-5,0.09344 0,0.09375 4.5e-5,3.06e-4 0.03119,0.09345 0.03125,0.09375 6e-5,3.04e-4 -7.5e-5,0.09345 0,0.09375 7.5e-5,3.01e-4 0.03116,0.09345 0.03125,0.09375 8.9e-5,2.96e-4 0.03115,0.09346 0.03125,0.09375 1.04e-4,2.92e-4 0.03113,0.06221 0.03125,0.0625 1.18e-4,2.86e-4 0.06237,0.09347 0.0625,0.09375 1.32e-4,2.8e-4 0.0311,0.09348 0.03125,0.09375 1.46e-4,2.73e-4 0.03109,0.09348 0.03125,0.09375 1.59e-4,2.66e-4 0.06233,0.06224 0.0625,0.0625 1.72e-4,2.58e-4 0.06232,0.0935 0.0625,0.09375 1.84e-4,2.49e-4 0.0623,0.06226 0.0625,0.0625 1.96e-4,2.39e-4 0.06229,0.06227 0.0625,0.0625 2.08e-4,2.29e-4 0.06228,0.06228 0.0625,0.0625 2.19e-4,2.19e-4 0.06227,0.06229 0.0625,0.0625 2.29e-4,2.08e-4 0.06226,0.0623 0.0625,0.0625 2.39e-4,1.96e-4 0.06225,0.06232 0.0625,0.0625 2.49e-4,1.84e-4 0.09349,0.06233 0.09375,0.0625 2.58e-4,1.72e-4 0.06223,0.06234 0.0625,0.0625 2.66e-4,1.59e-4 0.09348,0.0311 0.09375,0.03125 2.73e-4,1.46e-4 0.09347,0.03112 0.09375,0.03125 2.8e-4,1.32e-4 0.09346,0.06238 0.09375,0.0625 2.86e-4,1.18e-4 0.06221,0.03115 0.0625,0.03125 2.92e-4,1.04e-4 0.09345,0.03116 0.09375,0.03125 2.96e-4,8.9e-5 0.09345,0.03117 0.09375,0.03125 3.01e-4,7.5e-5 0.09345,-6e-5 0.09375,0 3.04e-4,6e-5 0.09344,0.0312 0.09375,0.03125 3.06e-4,4.5e-5 0.09344,-3e-5 0.09375,0 3.08e-4,3e-5 0.09344,-1.4e-5 0.09375,0 3.09e-4,1.4e-5 0.09344,10e-7 0.09375,0 l 4.09375,0 0,14.1875 -4.09375,0 c -3.1e-4,-10e-7 -0.09344,-1.4e-5 -0.09375,0 -3.09e-4,1.4e-5 -0.09344,-3e-5 -0.09375,0 -3.08e-4,3e-5 -0.09344,-4.5e-5 -0.09375,0 -3.06e-4,4.5e-5 -0.09345,0.03119 -0.09375,0.03125 -3.04e-4,6e-5 -0.09345,-7.5e-5 -0.09375,0 -3.01e-4,7.5e-5 -0.09345,0.03116 -0.09375,0.03125 -2.96e-4,8.9e-5 -0.09346,0.03115 -0.09375,0.03125 -2.92e-4,1.04e-4 -0.06221,0.03113 -0.0625,0.03125 -2.86e-4,1.18e-4 -0.09347,0.06237 -0.09375,0.0625 -2.8e-4,1.32e-4 -0.09348,0.0311 -0.09375,0.03125 -2.73e-4,1.46e-4 -0.09348,0.03109 -0.09375,0.03125 -2.66e-4,1.59e-4 -0.06224,0.06233 -0.0625,0.0625 -2.58e-4,1.72e-4 -0.0935,0.06232 -0.09375,0.0625 -2.49e-4,1.84e-4 -0.06226,0.0623 -0.0625,0.0625 -2.39e-4,1.96e-4 -0.06227,0.06229 -0.0625,0.0625 -2.29e-4,2.08e-4 -0.06228,0.06228 -0.0625,0.0625 -2.19e-4,2.19e-4 -0.06229,0.06227 -0.0625,0.0625 -2.08e-4,2.29e-4 -0.0623,0.06226 -0.0625,0.0625 -1.96e-4,2.39e-4 -0.06232,0.06225 -0.0625,0.0625 -1.84e-4,2.49e-4 -0.06233,0.09349 -0.0625,0.09375 -1.72e-4,2.58e-4 -0.06234,0.06223 -0.0625,0.0625 -1.59e-4,2.66e-4 -0.0311,0.09348 -0.03125,0.09375 -1.46e-4,2.73e-4 -0.03112,0.09347 -0.03125,0.09375 -1.32e-4,2.8e-4 -0.06238,0.09346 -0.0625,0.09375 -1.18e-4,2.86e-4 -0.03115,0.06221 -0.03125,0.0625 -1.04e-4,2.92e-4 -0.03116,0.09345 -0.03125,0.09375 -8.9e-5,2.96e-4 -0.03117,0.09345 -0.03125,0.09375 -7.5e-5,3.01e-4 6e-5,0.09345 0,0.09375 -6e-5,3.04e-4 -0.0312,0.09344 -0.03125,0.09375 -4.5e-5,3.06e-4 3e-5,0.09344 0,0.09375 -3e-5,3.08e-4 1.4e-5,0.09344 0,0.09375 -1.4e-5,3.09e-4 -10e-7,0.09344 0,0.09375 l 0,6 c -10e-7,3.1e-4 -1.4e-5,0.09344 0,0.09375 1.4e-5,3.09e-4 -3e-5,0.09344 0,0.09375 3e-5,3.08e-4 -4.5e-5,0.09344 0,0.09375 4.5e-5,3.06e-4 0.03119,0.09345 0.03125,0.09375 6e-5,3.04e-4 -7.5e-5,0.09345 0,0.09375 7.5e-5,3.01e-4 0.03116,0.09345 0.03125,0.09375 8.9e-5,2.96e-4 0.03115,0.09346 0.03125,0.09375 1.04e-4,2.92e-4 0.03113,0.06221 0.03125,0.0625 1.18e-4,2.86e-4 0.06237,0.09347 0.0625,0.09375 1.32e-4,2.8e-4 0.0311,0.09348 0.03125,0.09375 1.46e-4,2.73e-4 0.03109,0.09348 0.03125,0.09375 1.59e-4,2.66e-4 0.06233,0.06224 0.0625,0.0625 1.72e-4,2.58e-4 0.06232,0.0935 0.0625,0.09375 1.84e-4,2.49e-4 0.0623,0.06226 0.0625,0.0625 1.96e-4,2.39e-4 0.06229,0.06227 0.0625,0.0625 2.08e-4,2.29e-4 0.06228,0.06228 0.0625,0.0625 2.19e-4,2.19e-4 0.06227,0.06229 0.0625,0.0625 2.29e-4,2.08e-4 0.06226,0.0623 0.0625,0.0625 2.39e-4,1.96e-4 0.06225,0.06232 0.0625,0.0625 2.49e-4,1.84e-4 0.09349,0.06233 0.09375,0.0625 2.58e-4,1.72e-4 0.06223,0.06234 0.0625,0.0625 2.66e-4,1.59e-4 0.09348,0.0311 0.09375,0.03125 2.73e-4,1.46e-4 0.09347,0.03112 0.09375,0.03125 2.8e-4,1.32e-4 0.09346,0.06238 0.09375,0.0625 2.86e-4,1.18e-4 0.06221,0.03115 0.0625,0.03125 2.92e-4,1.04e-4 0.09345,0.03116 0.09375,0.03125 2.96e-4,8.9e-5 0.09345,0.03118 0.09375,0.03125 3.01e-4,7.5e-5 0.09345,-6e-5 0.09375,0 3.04e-4,6e-5 0.09344,0.0312 0.09375,0.03125 3.06e-4,4.5e-5 0.09344,-3e-5 0.09375,0 3.08e-4,3e-5 0.09344,-1.4e-5 0.09375,0 3.09e-4,1.4e-5 0.09344,10e-7 0.09375,0 l 24,0 c 3.1e-4,10e-7 0.09344,1.4e-5 0.09375,0 3.09e-4,-1.4e-5 0.09344,3e-5 0.09375,0 3.08e-4,-3e-5 0.09344,4.5e-5 0.09375,0 3.06e-4,-4.5e-5 0.09345,-0.03119 0.09375,-0.03125 3.04e-4,-6e-5 0.09345,7.5e-5 0.09375,0 3.01e-4,-7.5e-5 0.09345,-0.03116 0.09375,-0.03125 2.96e-4,-8.9e-5 0.09346,-0.03115 0.09375,-0.03125 2.92e-4,-1.04e-4 0.06221,-0.03113 0.0625,-0.03125 2.86e-4,-1.18e-4 0.09347,-0.06237 0.09375,-0.0625 2.8e-4,-1.32e-4 0.09348,-0.0311 0.09375,-0.03125 2.73e-4,-1.46e-4 0.09348,-0.03109 0.09375,-0.03125 2.66e-4,-1.59e-4 0.06224,-0.06233 0.0625,-0.0625 2.58e-4,-1.72e-4 0.0935,-0.06232 0.09375,-0.0625 2.49e-4,-1.84e-4 0.06226,-0.0623 0.0625,-0.0625 2.39e-4,-1.96e-4 0.06227,-0.06229 0.0625,-0.0625 2.29e-4,-2.08e-4 0.06228,-0.06228 0.0625,-0.0625 2.19e-4,-2.19e-4 0.06229,-0.06227 0.0625,-0.0625 2.08e-4,-2.29e-4 0.0623,-0.06226 0.0625,-0.0625 1.96e-4,-2.39e-4 0.06232,-0.06225 0.0625,-0.0625 1.84e-4,-2.49e-4 0.06233,-0.09349 0.0625,-0.09375 1.72e-4,-2.58e-4 0.06234,-0.06223 0.0625,-0.0625 1.59e-4,-2.66e-4 0.0311,-0.09348 0.03125,-0.09375 1.46e-4,-2.73e-4 0.03112,-0.09347 0.03125,-0.09375 1.32e-4,-2.8e-4 0.06238,-0.09346 0.0625,-0.09375 1.18e-4,-2.86e-4 0.03115,-0.06221 0.03125,-0.0625 1.04e-4,-2.92e-4 0.03116,-0.09345 0.03125,-0.09375 8.9e-5,-2.96e-4 0.03117,-0.09345 0.03125,-0.09375 7.5e-5,-3.01e-4 -6e-5,-0.09345 0,-0.09375 6e-5,-3.04e-4 0.0312,-0.09344 0.03125,-0.09375 4.5e-5,-3.06e-4 -3e-5,-0.09344 0,-0.09375 3e-5,-3.08e-4 -1.4e-5,-0.09344 0,-0.09375 1.4e-5,-3.09e-4 10e-7,-0.09344 0,-0.09375 l 0,-6 c 10e-7,-3.1e-4 1.4e-5,-0.09344 0,-0.09375 -1.4e-5,-3.09e-4 3e-5,-0.09344 0,-0.09375 -3e-5,-3.08e-4 4.5e-5,-0.09344 0,-0.09375 -4.5e-5,-3.06e-4 -0.03119,-0.09345 -0.03125,-0.09375 -6e-5,-3.04e-4 7.5e-5,-0.09345 0,-0.09375 -7.5e-5,-3.01e-4 -0.03116,-0.09345 -0.03125,-0.09375 -8.9e-5,-2.96e-4 -0.03115,-0.09346 -0.03125,-0.09375 -1.04e-4,-2.92e-4 -0.03113,-0.06221 -0.03125,-0.0625 -1.18e-4,-2.86e-4 -0.06237,-0.09347 -0.0625,-0.09375 -1.32e-4,-2.8e-4 -0.0311,-0.09348 -0.03125,-0.09375 -1.46e-4,-2.73e-4 -0.03109,-0.09348 -0.03125,-0.09375 -1.59e-4,-2.66e-4 -0.06233,-0.06224 -0.0625,-0.0625 -1.72e-4,-2.58e-4 -0.06232,-0.0935 -0.0625,-0.09375 -1.84e-4,-2.49e-4 -0.0623,-0.06226 -0.0625,-0.0625 -1.96e-4,-2.39e-4 -0.06229,-0.06227 -0.0625,-0.0625 -2.08e-4,-2.29e-4 -0.06228,-0.06228 -0.0625,-0.0625 -2.19e-4,-2.19e-4 -0.06227,-0.06229 -0.0625,-0.0625 -2.29e-4,-2.08e-4 -0.06226,-0.0623 -0.0625,-0.0625 -2.39e-4,-1.96e-4 -0.06225,-0.06232 -0.0625,-0.0625 -2.49e-4,-1.84e-4 -0.09349,-0.06233 -0.09375,-0.0625 -2.58e-4,-1.72e-4 -0.06223,-0.06234 -0.0625,-0.0625 -2.66e-4,-1.59e-4 -0.09348,-0.0311 -0.09375,-0.03125 -2.73e-4,-1.46e-4 -0.09347,-0.03112 -0.09375,-0.03125 -2.8e-4,-1.32e-4 -0.09346,-0.06238 -0.09375,-0.0625 -2.86e-4,-1.18e-4 -0.06221,-0.03115 -0.0625,-0.03125 -2.92e-4,-1.04e-4 -0.09345,-0.03116 -0.09375,-0.03125 -2.96e-4,-8.9e-5 -0.09345,-0.03118 -0.09375,-0.03125 -3.01e-4,-7.5e-5 -0.09345,6e-5 -0.09375,0 -3.04e-4,-6e-5 -0.09344,-0.0312 -0.09375,-0.03125 -3.06e-4,-4.5e-5 -0.09344,3e-5 -0.09375,0 -3.08e-4,-3e-5 -0.09344,1.4e-5 -0.09375,0 -3.09e-4,-1.4e-5 -0.09344,-10e-7 -0.09375,0 l -4.09375,0 0,-22.09375 c 10e-7,-3.1e-4 1.4e-5,-0.09344 0,-0.09375 -1.4e-5,-3.09e-4 3e-5,-0.09344 0,-0.09375 -3e-5,-3.08e-4 4.5e-5,-0.09344 0,-0.09375 -4.5e-5,-3.06e-4 -0.03119,-0.09345 -0.03125,-0.09375 -6e-5,-3.04e-4 7.5e-5,-0.09345 0,-0.09375 -7.5e-5,-3.01e-4 -0.03116,-0.09345 -0.03125,-0.09375 -8.9e-5,-2.96e-4 -0.03115,-0.09346 -0.03125,-0.09375 -1.04e-4,-2.92e-4 -0.03113,-0.06221 -0.03125,-0.0625 -1.18e-4,-2.86e-4 -0.06237,-0.09347 -0.0625,-0.09375 -1.32e-4,-2.8e-4 -0.0311,-0.09348 -0.03125,-0.09375 -1.46e-4,-2.73e-4 -0.03109,-0.09348 -0.03125,-0.09375 -1.59e-4,-2.66e-4 -0.06233,-0.06224 -0.0625,-0.0625 -1.72e-4,-2.58e-4 -0.06232,-0.0935 -0.0625,-0.09375 -1.84e-4,-2.49e-4 -0.0623,-0.06226 -0.0625,-0.0625 -1.96e-4,-2.39e-4 -0.06229,-0.06227 -0.0625,-0.0625 -2.08e-4,-2.29e-4 -0.06228,-0.06228 -0.0625,-0.0625 -2.19e-4,-2.19e-4 -0.06227,-0.06229 -0.0625,-0.0625 -2.29e-4,-2.08e-4 -0.06226,-0.0623 -0.0625,-0.0625 -2.39e-4,-1.96e-4 -0.06225,-0.06232 -0.0625,-0.0625 -2.49e-4,-1.84e-4 -0.09349,-0.06233 -0.09375,-0.0625 -2.58e-4,-1.72e-4 -0.06223,-0.06234 -0.0625,-0.0625 -2.66e-4,-1.59e-4 -0.09348,-0.0311 -0.09375,-0.03125 -2.73e-4,-1.46e-4 -0.09347,-0.03112 -0.09375,-0.03125 -2.8e-4,-1.32e-4 -0.09346,-0.06238 -0.09375,-0.0625 -2.86e-4,-1.18e-4 -0.06221,-0.03115 -0.0625,-0.03125 -2.92e-4,-1.04e-4 -0.09345,-0.03116 -0.09375,-0.03125 -2.96e-4,-8.9e-5 -0.09345,-0.03117 -0.09375,-0.03125 -3.01e-4,-7.5e-5 -0.09345,6e-5 -0.09375,0 -3.04e-4,-6e-5 -0.09344,-0.0312 -0.09375,-0.03125 -3.06e-4,-4.5e-5 -0.09344,3e-5 -0.09375,0 -3.08e-4,-3e-5 -0.09344,1.4e-5 -0.09375,0 -3.09e-4,-1.4e-5 -0.09344,-10e-7 -0.09375,0 l -17.96875,0 c -1.22e-4,-6e-6 -0.01936,4e-6 -0.03125,0 -0.02378,-7e-6 -0.02696,-2e-6 -0.0625,0 -2.44e-4,-1.2e-5 -0.02696,2e-6 -0.0625,0 -0.05331,-4e-6 -0.09338,-1.8e-5 -0.09375,0 a 0.94711273,0.94711273 0 0 0 -0.15625,0 z"
       transform="translate(0,-2)"
       id="path3746"
       style="opacity:0.07999998;fill:#000000;fill-opacity:1;stroke:none" />
    <path
       d="m 47,24.03125 c -4.387935,0 -7.96875,3.580815 -7.96875,7.96875 0,4.387935 3.580815,7.96875 7.96875,7.96875 4.387935,0 7.96875,-3.580815 7.96875,-7.96875 0,-4.387935 -3.580815,-7.96875 -7.96875,-7.96875 z m -11.09375,18 A 0.96586927,0.96586927 0 0 0 35.03125,43 l 0,6 A 0.96586927,0.96586927 0 0 0 36,49.96875 l 5.03125,0 0,16.0625 -5.03125,0 A 0.96586927,0.96586927 0 0 0 35.03125,67 l 0,6 A 0.96586927,0.96586927 0 0 0 36,73.96875 l 24,0 A 0.96586927,0.96586927 0 0 0 60.96875,73 l 0,-6 A 0.96586927,0.96586927 0 0 0 60,66.03125 l -5.03125,0 0,-23.03125 A 0.96586927,0.96586927 0 0 0 54,42.03125 l -18,0 a 0.96586927,0.96586927 0 0 0 -0.09375,0 z"
       transform="translate(0,-2)"
       id="path3742"
       style="opacity:0.15;fill:#000000;fill-opacity:1;stroke:none" />
    <path
       d="m 47,25 c -3.865993,0 -7,3.134007 -7,7 0,3.865993 3.134007,7 7,7 3.865993,0 7,-3.134007 7,-7 0,-3.865993 -3.134007,-7 -7,-7 z m -11,18 0,6 6,0 0,18 -6,0 0,6 24,0 0,-6 -6,0 0,-24 -18,0 z"
       transform="translate(0,-2)"
       id="path3733"
       style="opacity:0.4;fill:#000000;fill-opacity:1;stroke:none" />
    <path
       d="m 47,22 c -3.865992,0 -6.999999,3.134007 -6.999999,7 0,3.865993 3.134007,7 6.999999,7 3.865993,0 7,-3.134007 7,-7 0,-3.865993 -3.134007,-7 -7,-7 z m -10.999999,18 0,6 6,0 0,18 -6,0 0,6 L 60,70 l 0,-6 -6,0 0,-24 -17.999999,0 z"
       inkscape:connector-curvature="0"
       id="path3716"
       style="fill:#ffffff;fill-opacity:1;stroke:none" />
  </g>
</svg>
