<?xml version="1.0" encoding="UTF-8" standalone="no"?>
<!-- Created with Inkscape (http://www.inkscape.org/) -->

<svg
   xmlns:dc="http://purl.org/dc/elements/1.1/"
   xmlns:cc="http://creativecommons.org/ns#"
   xmlns:rdf="http://www.w3.org/1999/02/22-rdf-syntax-ns#"
   xmlns:svg="http://www.w3.org/2000/svg"
   xmlns="http://www.w3.org/2000/svg"
   xmlns:xlink="http://www.w3.org/1999/xlink"
   xmlns:inkscape="http://www.inkscape.org/namespaces/inkscape"
   version="1.0"
   width="96"
   height="96"
   id="svg2408">
  <defs
     id="defs2410">
    <linearGradient
       id="linearGradient4384">
      <stop
         id="stop4386"
         style="stop-color:#ffffff;stop-opacity:1"
         offset="0" />
      <stop
         id="stop4388"
         style="stop-color:#ffffff;stop-opacity:0"
         offset="1" />
    </linearGradient>
    <linearGradient
       id="linearGradient4367">
      <stop
         id="stop4369"
         style="stop-color:#ffffff;stop-opacity:0.71755725"
         offset="0" />
      <stop
         id="stop4371"
         style="stop-color:#ffffff;stop-opacity:1"
         offset="1" />
    </linearGradient>
    <linearGradient
       x1="45.447727"
       y1="92.539597"
       x2="45.447727"
       y2="7.0165396"
       id="ButtonShadow"
       gradientUnits="userSpaceOnUse"
       gradientTransform="scale(1.0058652,0.994169)">
      <stop
         id="stop3750"
         style="stop-color:#000000;stop-opacity:1"
         offset="0" />
      <stop
         id="stop3752"
         style="stop-color:#000000;stop-opacity:0.58823532"
         offset="1" />
    </linearGradient>
    <linearGradient
       id="linearGradient3737">
      <stop
         id="stop3739"
         style="stop-color:#ffffff;stop-opacity:1"
         offset="0" />
      <stop
         id="stop3741"
         style="stop-color:#ffffff;stop-opacity:0"
         offset="1" />
    </linearGradient>
    <filter
       color-interpolation-filters="sRGB"
       id="filter3174">
      <feGaussianBlur
         id="feGaussianBlur3176"
         stdDeviation="1.71" />
    </filter>
    <filter
       x="-0.192"
       y="-0.192"
       width="1.3839999"
       height="1.3839999"
       color-interpolation-filters="sRGB"
       id="filter3794">
      <feGaussianBlur
         id="feGaussianBlur3796"
         stdDeviation="5.28" />
    </filter>
    <linearGradient
       x1="48"
       y1="20.220806"
       x2="48"
       y2="138.66119"
       id="linearGradient3613"
       xlink:href="#linearGradient3737"
       gradientUnits="userSpaceOnUse" />
    <linearGradient
       x1="45.447727"
       y1="92.539597"
       x2="45.447727"
       y2="7.0165396"
       id="ButtonShadow-0"
       gradientUnits="userSpaceOnUse"
       gradientTransform="matrix(1.0058652,0,0,0.994169,100,0)">
      <stop
         id="stop3750-8"
         style="stop-color:#000000;stop-opacity:1"
         offset="0" />
      <stop
         id="stop3752-5"
         style="stop-color:#000000;stop-opacity:0.58823532"
         offset="1" />
    </linearGradient>
    <linearGradient
       x1="32.251034"
       y1="6.1317081"
       x2="32.251034"
       y2="90.238609"
       id="linearGradient3780"
       xlink:href="#ButtonShadow-0"
       gradientUnits="userSpaceOnUse"
       gradientTransform="matrix(1.0238095,0,0,1.0119048,-1.1428571,-98.071429)" />
    <linearGradient
       x1="32.251034"
       y1="6.1317081"
       x2="32.251034"
       y2="90.238609"
       id="linearGradient3772"
       xlink:href="#ButtonShadow-0"
       gradientUnits="userSpaceOnUse"
       gradientTransform="matrix(1.0238095,0,0,1.0119048,-1.1428571,-98.071429)" />
    <linearGradient
       x1="32.251034"
       y1="6.1317081"
       x2="32.251034"
       y2="90.238609"
       id="linearGradient3725"
       xlink:href="#ButtonShadow-0"
       gradientUnits="userSpaceOnUse"
       gradientTransform="matrix(1.0238095,0,0,1.0119048,-1.1428571,-98.071429)" />
    <linearGradient
       x1="32.251034"
       y1="6.1317081"
       x2="32.251034"
       y2="90.238609"
       id="linearGradient3721"
       xlink:href="#ButtonShadow-0"
       gradientUnits="userSpaceOnUse"
       gradientTransform="translate(0,-97)" />
    <linearGradient
       x1="32.251034"
       y1="6.1317081"
       x2="32.251034"
       y2="90.238609"
       id="linearGradient3026"
       xlink:href="#ButtonShadow-0"
       gradientUnits="userSpaceOnUse"
       gradientTransform="matrix(1.0238095,0,0,1.0119048,-1.1428571,-98.071429)" />
    <clipPath
       id="clipPath4355">
      <rect
         width="84"
         height="80"
         rx="6"
         ry="6"
         x="6"
         y="6"
         id="rect4357"
         style="fill:#ffffff;fill-opacity:1;fill-rule:nonzero;stroke:none" />
    </clipPath>
    <radialGradient
       cx="48"
       cy="87.792389"
       r="42"
       fx="48"
       fy="87.792389"
       id="radialGradient4375"
       xlink:href="#linearGradient4367"
       gradientUnits="userSpaceOnUse"
       gradientTransform="matrix(1,-6.7114942e-8,8.4282233e-8,1.2557894,109.99999,-24.505592)" />
    <linearGradient
       x1="48"
       y1="88"
       x2="48"
       y2="-40"
       id="linearGradient4390"
       xlink:href="#linearGradient4384"
       gradientUnits="userSpaceOnUse"
       gradientTransform="matrix(1,0,0,-1,0,92)" />
    <linearGradient
       x1="48"
       y1="82"
       x2="112.12357"
       y2="82.454597"
       id="linearGradient4429"
       xlink:href="#linearGradient4384"
       gradientUnits="userSpaceOnUse"
       spreadMethod="reflect" />
    <linearGradient
       id="linearGradient3892">
      <stop
         id="stop3894"
         style="stop-color:#000000;stop-opacity:0.58823532"
         offset="0" />
      <stop
         id="stop3896"
         style="stop-color:#000000;stop-opacity:0.47058824"
         offset="0.11780351" />
      <stop
         id="stop3898"
         style="stop-color:#000000;stop-opacity:0.39215687"
         offset="0.23809524" />
      <stop
         id="stop3900"
         style="stop-color:#000000;stop-opacity:0.3137255"
         offset="1" />
    </linearGradient>
    <linearGradient
       x1="90"
       y1="88"
       x2="48"
       y2="88"
       id="linearGradient3228"
       xlink:href="#linearGradient3892"
       gradientUnits="userSpaceOnUse"
       spreadMethod="reflect" />
    <linearGradient
       id="linearGradient3700-6">
      <stop
         id="stop3702-1"
         style="stop-color:#f05517;stop-opacity:1"
         offset="0" />
      <stop
         id="stop3704-5"
         style="stop-color:#f37340;stop-opacity:1"
         offset="1" />
    </linearGradient>
    <linearGradient
       x1="47.973103"
       y1="79.776169"
       x2="47.973103"
       y2="16.436062"
       id="linearGradient3087"
       xlink:href="#linearGradient3700-6"
       gradientUnits="userSpaceOnUse"
       gradientTransform="translate(-1.6444444e-5,-2)" />
    <linearGradient
       id="linearGradient3822">
      <stop
         id="stop3824"
         style="stop-color:#e6e6e6;stop-opacity:1"
         offset="0" />
      <stop
         id="stop3826"
         style="stop-color:#f5f5f5;stop-opacity:1"
         offset="1" />
    </linearGradient>
    <linearGradient
       x1="48"
       y1="90"
       x2="48"
       y2="5.9877172"
       id="linearGradient3104"
       xlink:href="#linearGradient3822"
       gradientUnits="userSpaceOnUse" />
  </defs>
  <metadata
     id="metadata2413">
    <rdf:RDF>
      <cc:Work
         rdf:about="">
        <dc:format>image/svg+xml</dc:format>
        <dc:type
           rdf:resource="http://purl.org/dc/dcmitype/StillImage" />
        <dc:title />
      </cc:Work>
    </rdf:RDF>
  </metadata>
  <g
     id="layer2"
     style="display:none">
    <rect
       width="86"
       height="85"
       rx="6"
       ry="6"
       x="5"
       y="7"
       id="rect3745"
       style="opacity:0.9;fill:url(#ButtonShadow);fill-opacity:1;fill-rule:nonzero;stroke:none;filter:url(#filter3174)" />
  </g>
  <g
     id="layer3"
     style="display:inline">
    <path
       d="m 12,-95.03125 c -5.5110903,0 -10.03125,4.52016 -10.03125,10.03125 l 0,71 c 0,5.5110902 4.5201598,10.03125 10.03125,10.03125 l 72,0 c 5.51109,0 10.03125,-4.5201597 10.03125,-10.03125 l 0,-71 c 0,-5.51109 -4.52016,-10.03125 -10.03125,-10.03125 l -72,0 z"
       transform="scale(1,-1)"
       id="path3786"
       style="opacity:0.07999998;fill:url(#linearGradient3026);fill-opacity:1;fill-rule:nonzero;stroke:none;display:inline" />
    <path
       d="m 12,-94.03125 c -4.971633,0 -9.03125,4.059617 -9.03125,9.03125 l 0,71 c 0,4.9716329 4.0596171,9.03125 9.03125,9.03125 l 72,0 c 4.971633,0 9.03125,-4.059617 9.03125,-9.03125 l 0,-71 c 0,-4.971633 -4.059617,-9.03125 -9.03125,-9.03125 l -72,0 z"
       transform="scale(1,-1)"
       id="path3778"
       style="opacity:0.1;fill:url(#linearGradient3780);fill-opacity:1;fill-rule:nonzero;stroke:none;display:inline" />
    <path
       d="m 12,-93 c -4.4091333,0 -8,3.590867 -8,8 l 0,71 c 0,4.4091333 3.5908667,8 8,8 l 72,0 c 4.409133,0 8,-3.5908667 8,-8 l 0,-71 c 0,-4.409133 -3.590867,-8 -8,-8 l -72,0 z"
       transform="scale(1,-1)"
       id="path3770"
       style="opacity:0.2;fill:url(#linearGradient3772);fill-opacity:1;fill-rule:nonzero;stroke:none;display:inline" />
    <rect
       width="86"
       height="85"
       rx="7"
       ry="7"
       x="5"
       y="-92"
       transform="scale(1,-1)"
       id="rect3723"
       style="opacity:0.3;fill:url(#linearGradient3725);fill-opacity:1;fill-rule:nonzero;stroke:none;display:inline" />
    <rect
       width="84"
       height="84"
       rx="6"
       ry="6"
       x="6"
       y="-91"
       transform="scale(1,-1)"
       id="rect3716"
       style="opacity:0.45;fill:url(#linearGradient3721);fill-opacity:1;fill-rule:nonzero;stroke:none;display:inline" />
  </g>
  <g
     id="layer1">
    <rect
       width="84"
       height="84"
       rx="6"
       ry="6"
       x="6"
       y="6"
       id="rect2419-8"
       style="fill:url(#linearGradient3104);fill-opacity:1;fill-rule:nonzero;stroke:none" />
    <path
       d="M 120.78125,6.125 C 118.04223,6.6826484 116,9.0915 116,12 l 0,68 c 0,3.324 2.676,6 6,6 l 72,0 c 3.324,0 6,-2.676 6,-6 l 0,-68 c 0,-2.9085 -2.04223,-5.3173516 -4.78125,-5.875 2.20512,0.5362071 3.8125,2.4908437 3.8125,4.875 l 0,68 c 0,2.80489 -2.22636,5.03125 -5.03125,5.03125 l -72,0 c -2.80489,0 -5.03125,-2.22636 -5.03125,-5.03125 l 0,-68 c 0,-2.3841563 1.60738,-4.3387929 3.8125,-4.875 z"
       inkscape:connector-curvature="0"
       id="rect4359"
       style="opacity:0.2;fill:url(#radialGradient4375);fill-opacity:1;fill-rule:nonzero;stroke:none" />
    <path
       d="M 12,86 C 8.676,86 6,83.324 6,80 L 6,12 C 6,8.676 8.676,6 12,6 l 72,0 c 3.324,0 6,2.676 6,6 l 0,68 c 0,3.324 -2.676,6 -6,6 z m 0,-0.96875 72,0 c 2.80489,0 5.03125,-2.22636 5.03125,-5.03125 l 0,-68 C 89.03125,9.19511 86.80489,6.96875 84,6.96875 l -72,0 C 9.1951102,6.96875 6.96875,9.19511 6.96875,12 l 0,68 c 0,2.80489 2.2263602,5.03125 5.03125,5.03125 z"
       inkscape:connector-curvature="0"
       id="rect4377"
       style="opacity:0.8;fill:url(#linearGradient4390);fill-opacity:1;fill-rule:nonzero;stroke:none" />
    <path
       d="m 6,78 0,2 c 0,3.324 2.676,6 6,6 l 72,0 c 3.324,0 6,-2.676 6,-6 l 0,-2 c 0,3.324 -2.676,6 -6,6 L 12,84 C 8.676,84 6,81.324 6,78 z"
       inkscape:connector-curvature="0"
       id="rect4414"
       style="opacity:0.2;fill:url(#linearGradient4429);fill-opacity:1;fill-rule:nonzero;stroke:none" />
    <path
       d="m 6,100 0,1 c 0,3.324 2.676,6 6,6 l 72,0 c 3.324,0 6,-2.676 6,-6 l 0,-1 c 0,3.324 -2.676,6 -6,6 l -72,0 c -3.324,0 -6,-2.676 -6,-6 z"
       inkscape:connector-curvature="0"
       id="path4412"
       style="opacity:0.15;fill:#000000;fill-opacity:1;fill-rule:nonzero;stroke:none" />
  </g>
  <g
     id="layer4"
     style="display:inline">
    <path
       d="m 6,80 0,4 c 0,3.324 2.676,6 6,6 l 72,0 c 3.324,0 6,-2.676 6,-6 l 0,-4 c 0,3.324 -2.676,6 -6,6 L 12,86 C 8.676,86 6,83.324 6,80 z"
       inkscape:connector-curvature="0"
       id="path3888"
       style="fill:url(#linearGradient3228);fill-opacity:1;fill-rule:nonzero;stroke:none;display:inline" />
    <path
       d="m 6,82 0,2 c 0,3.324 2.676,6 6,6 l 72,0 c 3.324,0 6,-2.676 6,-6 l 0,-2 c 0,3.324 -2.676,6 -6,6 L 12,88 C 8.676,88 6,85.324 6,82 z"
       inkscape:connector-curvature="0"
       id="rect4345"
       style="opacity:0.1;color:#000000;fill:#000000;fill-opacity:1;fill-rule:nonzero;stroke:none;stroke-width:1.5;marker:none;visibility:visible;display:inline;overflow:visible;enable-background:accumulate" />
    <path
       d="m 6,83 0,1 c 0,3.324 2.676,6 6,6 l 72,0 c 3.324,0 6,-2.676 6,-6 l 0,-1 c 0,3.324 -2.676,6 -6,6 L 12,89 C 8.676,89 6,86.324 6,83 z"
       inkscape:connector-curvature="0"
       id="rect4336"
       style="opacity:0.15;color:#000000;fill:#000000;fill-opacity:1;fill-rule:nonzero;stroke:none;stroke-width:1.5;marker:none;visibility:visible;display:inline;overflow:visible;enable-background:accumulate" />
  </g>
  <g
     id="layer5"
     style="display:inline">
    <rect
       width="66"
       height="62"
       rx="12"
       ry="12"
       x="15"
       y="15"
       clip-path="url(#clipPath4355)"
       id="rect3171"
       style="opacity:0.1;fill:url(#linearGradient3613);fill-opacity:1;fill-rule:nonzero;stroke:#ffffff;stroke-width:0.5;stroke-linecap:round;stroke-linejoin:miter;stroke-miterlimit:4;stroke-opacity:1;stroke-dasharray:none;stroke-dashoffset:0;filter:url(#filter3794)" />
  </g>
  <g
     id="layer6">
    <path
       d="m 47.999984,14 c -17.673112,0 -32,14.10303 -32,31.5 0,17.39697 14.326888,31.5 32,31.5 5.423369,0 10.524178,-1.343699 15,-3.6875 l 12,3.6875 -2.9375,-10.75 c 4.935711,-5.542746 7.9375,-12.800092 7.9375,-20.75 0,-17.39697 -14.326888,-31.5 -32,-31.5 z m -11.125,11.96875 3.875,7.375 4.1875,-4.0625 0.5,5.8125 4.46875,-0.65625 -1.28125,4.4375 7.40625,0.15625 -4.5,3.21875 c -0.759312,0.303837 -1.450366,0.728691 -2.09375,1.21875 0.01114,-0.190441 0.03125,-0.369272 0.03125,-0.5625 0,-3.21872 -1.589631,-6.078999 -4.03125,-7.8125 -1.561035,-1.108304 -3.473379,-1.75 -5.53125,-1.75 -3.218723,0 -6.079,1.58963 -7.8125,4.03125 -1.108303,1.561035 -1.75,3.47338 -1.75,5.53125 0,3.216679 1.594685,6.081115 4.03125,7.8125 0.566831,0.402782 1.194039,0.72894 1.84375,1 -1.102825,1.226561 -1.78125,2.840965 -1.78125,4.625 0,0.140131 0.02325,0.267993 0.03125,0.40625 l -0.03125,0.03125 0,-0.4375 -0.0625,-5.625 -6.84375,2.78125 3.65625,-6.5625 -5.5625,-1.53125 4.71875,-3.34375 -6.5,-5.5625 8.25,0.875 -1.03125,-4.625 4.8125,1.4375 1,-8.21875 z m 3.03125,8.96875 c 4.397162,0 7.96875,3.571588 7.96875,7.96875 0,0.933946 -0.172814,1.823103 -0.46875,2.65625 -0.04344,0.06233 -0.08301,0.12409 -0.125,0.1875 -0.574833,-0.233454 -1.199916,-0.375 -1.875,-0.375 -2.460815,0 -4.434138,1.755368 -5.03125,4.03125 -1.015462,0.191124 -1.952873,0.600669 -2.78125,1.15625 -3.275392,-0.989825 -5.65625,-4.060273 -5.65625,-7.65625 0,-4.397162 3.571588,-7.96875 7.96875,-7.96875 z m 14.90625,8.25 c 4.15838,0 7.53125,3.372869 7.53125,7.53125 3.118784,0 5.65625,2.506218 5.65625,5.625 0,3.118782 -2.537466,5.65625 -5.65625,5.65625 l -20.6875,0 c -3.118784,0 -5.65625,-2.537468 -5.65625,-5.65625 0,-3.118782 2.537466,-5.625 5.65625,-5.625 0,-2.07919 1.670811,-3.78125 3.75,-3.78125 0.93205,0 1.74879,0.376457 2.40625,0.9375 1.113929,-2.765808 3.835473,-4.6875 7,-4.6875 z"
       inkscape:connector-curvature="0"
       id="path3050"
       style="color:#000000;fill:url(#linearGradient3087);fill-opacity:1;fill-rule:nonzero;stroke:none;stroke-width:2;marker:none;visibility:visible;display:inline;overflow:visible;enable-background:accumulate" />
    <path
       d="m 36.874984,25.96875 -1,8.21875 -4.8125,-1.4375 0.25,1.0625 3.4375,1.03125 c 0.394361,-0.251401 0.819233,-0.463731 1.25,-0.65625 l 0.875,-7.21875 3.34375,6.375 c 0.478533,0.01552 0.947521,0.07351 1.40625,0.15625 l 3.3125,-3.21875 0.40625,4.75 c 0.03083,0.02134 0.06319,0.0408 0.09375,0.0625 l -0.5,-5.8125 -4.1875,4.0625 -3.875,-7.375 z m 8.5625,9.125 c 0.365023,0.259159 0.706776,0.53679 1.03125,0.84375 l 3.125,-0.46875 0.3125,-1.03125 -4.46875,0.65625 z m -5.53125,-0.15625 c -4.397162,0 -7.96875,3.571588 -7.96875,7.96875 0,0.150002 0.02307,0.28944 0.03125,0.4375 0.290966,-4.133455 3.730725,-7.40625 7.9375,-7.40625 4.21733,0 7.661716,3.289341 7.9375,7.4375 0.0098,-0.156685 0.03125,-0.309401 0.03125,-0.46875 0,-4.397162 -3.571588,-7.96875 -7.96875,-7.96875 z m -16.0625,1.5625 1.34375,1.15625 6.3125,0.65625 c 0.131194,-0.24063 0.286503,-0.460103 0.4375,-0.6875 L 31.874984,37.34375 23.843734,36.5 z m 25.0625,2.375 -0.125,0.46875 c 0.0697,0.174247 0.127896,0.352162 0.1875,0.53125 l 5.71875,0.125 1.34375,-0.96875 -7.125,-0.15625 z m -19.1875,3.625 -4.09375,2.90625 1.03125,0.28125 3.6875,-2.625 -0.625,-0.5625 z m 25.09375,0.6875 c -3.164527,0 -5.886071,1.921692 -7,4.6875 -0.65746,-0.561043 -1.4742,-0.9375 -2.40625,-0.9375 -2.079189,0 -3.75,1.70206 -3.75,3.78125 -3.118784,0 -5.65625,2.506218 -5.65625,5.625 0,0.151741 0.01946,0.288737 0.03125,0.4375 0.290196,-2.845139 2.70114,-5.0625 5.625,-5.0625 0,-2.07919 1.670811,-3.78125 3.75,-3.78125 0.93205,0 1.74879,0.376457 2.40625,0.9375 1.113929,-2.765808 3.835473,-4.6875 7,-4.6875 4.15838,0 7.53125,3.372869 7.53125,7.53125 2.92386,0 5.334804,2.217361 5.625,5.0625 0.01179,-0.148763 0.03125,-0.285759 0.03125,-0.4375 0,-3.118782 -2.537466,-5.625 -5.65625,-5.625 0,-4.158381 -3.37287,-7.53125 -7.53125,-7.53125 z m -24.4375,0.15625 c -0.01115,0.190306 -0.03125,0.369463 -0.03125,0.5625 0,1.022538 0.170641,2.011233 0.46875,2.9375 l 0.375,0.09375 -0.21875,0.40625 c 0.550449,1.43536 1.43977,2.71282 2.5625,3.71875 l 0.84375,-0.34375 c -2.324244,-1.651571 -3.86128,-4.339165 -4,-7.375 z m 4,7.375 0,1 c 0.39461,0.280404 0.840896,0.505355 1.28125,0.71875 0.172012,-0.249445 0.360427,-0.494005 0.5625,-0.71875 -0.649711,-0.27106 -1.276919,-0.597218 -1.84375,-1 z m 45.625,-4.75 c -0.116895,7.763941 -3.100196,14.849014 -7.9375,20.28125 l 0.21875,0.75 c 4.805459,-5.510346 7.71875,-12.668276 7.71875,-20.5 0,-0.177668 0.003,-0.354281 0,-0.53125 z m -64,0.03125 c -0.0026,0.166598 0,0.332783 0,0.5 0,17.39697 14.326888,31.5 32,31.5 5.423369,0 10.524178,-1.343699 15,-3.6875 l 12,3.6875 -0.3125,-1.09375 -11.6875,-3.59375 c -4.475822,2.343801 -9.576631,3.6875 -15,3.6875 -17.503241,0 -31.728237,-13.833949 -32,-31 z m 14.71875,1.8125 -3.1875,5.6875 0.71875,-0.28125 2.9375,-5.28125 -0.46875,-0.125 z"
       inkscape:connector-curvature="0"
       id="path3070"
       style="color:#000000;fill:#ffffff;fill-opacity:1;fill-rule:nonzero;stroke:none;stroke-width:2;marker:none;visibility:visible;display:inline;overflow:visible;enable-background:accumulate" />
    <path
       d="m 47.999984,14 c -17.673112,0 -32,14.10303 -32,31.5 0,17.39697 14.326888,31.5 32,31.5 5.423369,0 10.524178,-1.343699 15,-3.6875 l 12,3.6875 -2.9375,-10.75 c 4.935711,-5.542746 7.9375,-12.800092 7.9375,-20.75 0,-17.39697 -14.326888,-31.5 -32,-31.5 z m 0,2.03125 c 16.585436,0 29.96875,13.194259 29.96875,29.46875 0,7.435251 -2.817445,14.186732 -7.4375,19.375 a 2.0447244,2.0447244 0 0 0 -0.4375,1.90625 l 1.96875,7.15625 -8.46875,-2.59375 A 2.0447244,2.0447244 0 0 0 62.062484,71.5 c -4.194789,2.196636 -8.976832,3.46875 -14.0625,3.46875 -16.585436,0 -29.96875,-13.194259 -29.96875,-29.46875 0,-16.274491 13.383314,-29.46875 29.96875,-29.46875 z m -11.21875,7.875 a 2.0447244,2.0447244 0 0 0 -0.21875,0.03125 2.0447244,2.0447244 0 0 0 -1.71875,1.78125 l -0.71875,5.8125 -2.46875,-0.75 a 2.0447244,2.0447244 0 0 0 -2.59375,2.40625 l 0.40625,1.84375 -5.40625,-0.5625 a 2.0447244,2.0447244 0 0 0 -1.5625,3.59375 l 4.5,3.875 -2.5625,1.8125 a 2.0447244,2.0447244 0 0 0 0.65625,3.625 l 3.03125,0.84375 -2.375,4.28125 a 2.0447244,2.0447244 0 0 0 2.5625,2.90625 l 4.0625,-1.65625 0.03125,2.59375 0,0.03125 0,0.40625 a 2.0447244,2.0447244 0 0 0 2.0625,2.03125 c 1.044235,3.018877 3.830292,5.21875 7.1875,5.21875 l 20.6875,0 c 4.227743,0 7.6875,-3.459759 7.6875,-7.6875 0,-3.626528 -2.610512,-6.518888 -6,-7.3125 -0.74275,-3.97372 -3.826737,-6.983266 -7.84375,-7.59375 l 1.03125,-0.75 A 2.0447244,2.0447244 0 0 0 56.062484,37 l -4.75,-0.09375 L 51.874984,35 a 2.0447244,2.0447244 0 0 0 -2.28125,-2.59375 l -2.3125,0.34375 -0.3125,-3.65625 a 2.0447244,2.0447244 0 0 0 -3.46875,-1.28125 l -2.21875,2.15625 -2.59375,-4.9375 a 2.0447244,2.0447244 0 0 0 -1.90625,-1.125 z m 0.09375,2.0625 3.875,7.375 4.1875,-4.0625 0.5,5.8125 4.46875,-0.65625 -1.28125,4.4375 7.40625,0.15625 -4.5,3.21875 c -0.759312,0.303837 -1.450366,0.728691 -2.09375,1.21875 0.01114,-0.190441 0.03125,-0.369272 0.03125,-0.5625 0,-3.21872 -1.589631,-6.078999 -4.03125,-7.8125 -1.561035,-1.108304 -3.473379,-1.75 -5.53125,-1.75 -3.218723,0 -6.079,1.58963 -7.8125,4.03125 -1.108303,1.561035 -1.75,3.47338 -1.75,5.53125 0,3.216679 1.594685,6.081115 4.03125,7.8125 0.566831,0.402782 1.194039,0.72894 1.84375,1 -1.102825,1.226561 -1.78125,2.840965 -1.78125,4.625 0,0.140131 0.02325,0.267993 0.03125,0.40625 l -0.03125,0.03125 0,-0.4375 -0.0625,-5.625 -6.84375,2.78125 3.65625,-6.5625 -5.5625,-1.53125 4.71875,-3.34375 -6.5,-5.5625 8.25,0.875 -1.03125,-4.625 4.8125,1.4375 1,-8.21875 z m 3.03125,8.96875 c 4.397162,0 7.96875,3.571588 7.96875,7.96875 0,0.933946 -0.172814,1.823103 -0.46875,2.65625 -0.04344,0.06233 -0.08301,0.12409 -0.125,0.1875 -0.574833,-0.233454 -1.199916,-0.375 -1.875,-0.375 -2.460815,0 -4.434138,1.755368 -5.03125,4.03125 -1.015462,0.191124 -1.952873,0.600669 -2.78125,1.15625 -3.275392,-0.989825 -5.65625,-4.060273 -5.65625,-7.65625 0,-4.397162 3.571588,-7.96875 7.96875,-7.96875 z m 14.90625,8.25 c 4.15838,0 7.53125,3.372869 7.53125,7.53125 3.118784,0 5.65625,2.506218 5.65625,5.625 0,3.118782 -2.537466,5.65625 -5.65625,5.65625 l -20.6875,0 c -3.118784,0 -5.65625,-2.537468 -5.65625,-5.65625 0,-3.118782 2.537466,-5.625 5.65625,-5.625 0,-2.07919 1.670811,-3.78125 3.75,-3.78125 0.93205,0 1.74879,0.376457 2.40625,0.9375 1.113929,-2.765808 3.835473,-4.6875 7,-4.6875 z"
       inkscape:connector-curvature="0"
       id="path3856"
       style="opacity:0.05;color:#000000;fill:#552200;fill-opacity:1;fill-rule:nonzero;stroke:none;stroke-width:2;marker:none;visibility:visible;display:inline;overflow:visible;enable-background:accumulate" />
    <path
       d="m 47.999984,14 c -17.673112,0 -32,14.10303 -32,31.5 0,17.39697 14.326888,31.5 32,31.5 5.423369,0 10.524178,-1.343699 15,-3.6875 l 12,3.6875 -2.9375,-10.75 c 4.935711,-5.542746 7.9375,-12.800092 7.9375,-20.75 0,-17.39697 -14.326888,-31.5 -32,-31.5 z m 0,1.0625 c 17.10343,0 30.9375,13.628441 30.9375,30.4375 0,7.680351 -2.917117,14.674166 -7.6875,20.03125 a 1.0709466,1.0709466 0 0 0 -0.21875,1 l 2.4375,8.875 -10.15625,-3.125 a 1.0709466,1.0709466 0 0 0 -0.8125,0.09375 c -4.328628,2.266722 -9.253506,3.5625 -14.5,3.5625 -17.10343,0 -30.9375,-13.628441 -30.9375,-30.4375 0,-16.809059 13.83407,-30.4375 30.9375,-30.4375 z m -11.28125,9.84375 a 1.0709466,1.0709466 0 0 0 -0.90625,0.9375 l -0.84375,6.9375 -3.59375,-1.0625 a 1.0709466,1.0709466 0 0 0 -1.34375,1.25 l 0.71875,3.1875 -6.78125,-0.71875 a 1.0709466,1.0709466 0 0 0 -0.8125,1.875 l 5.4375,4.65625 -3.59375,2.5625 a 1.0709466,1.0709466 0 0 0 0.34375,1.90625 l 4.25,1.15625 -3,5.375 A 1.0709466,1.0709466 0 0 0 27.937484,54.5 l 5.40625,-2.1875 0.03125,4.03125 0,0.4375 a 1.0709466,1.0709466 0 0 0 1.8125,0.75 c 0.581381,3.118719 3.188208,5.53125 6.46875,5.53125 l 20.6875,0 c 3.699613,0 6.71875,-3.019139 6.71875,-6.71875 0,-3.387015 -2.58059,-6.05144 -5.84375,-6.5 -0.462028,-4.307335 -3.979811,-7.71875 -8.40625,-7.71875 -0.541523,0 -1.047303,0.123622 -1.5625,0.21875 l 3.40625,-2.4375 a 1.0709466,1.0709466 0 0 0 -0.59375,-1.9375 l -6.03125,-0.125 0.90625,-3.09375 a 1.0709466,1.0709466 0 0 0 -1.1875,-1.375 l -3.34375,0.5 -0.40625,-4.6875 A 1.0709466,1.0709466 0 0 0 44.187484,28.5 l -3.15625,3.0625 -3.21875,-6.09375 a 1.0709466,1.0709466 0 0 0 -1.09375,-0.5625 z m 0.15625,1.0625 3.875,7.375 4.1875,-4.0625 0.5,5.8125 4.46875,-0.65625 -1.28125,4.4375 7.40625,0.15625 -4.5,3.21875 c -0.759312,0.303837 -1.450366,0.728691 -2.09375,1.21875 0.01114,-0.190441 0.03125,-0.369272 0.03125,-0.5625 0,-3.21872 -1.589631,-6.078999 -4.03125,-7.8125 -1.561035,-1.108304 -3.473379,-1.75 -5.53125,-1.75 -3.218723,0 -6.079,1.58963 -7.8125,4.03125 -1.108303,1.561035 -1.75,3.47338 -1.75,5.53125 0,3.216679 1.594685,6.081115 4.03125,7.8125 0.566831,0.402782 1.194039,0.72894 1.84375,1 -1.102825,1.226561 -1.78125,2.840965 -1.78125,4.625 0,0.140131 0.02325,0.267993 0.03125,0.40625 l -0.03125,0.03125 0,-0.4375 -0.0625,-5.625 -6.84375,2.78125 3.65625,-6.5625 -5.5625,-1.53125 4.71875,-3.34375 -6.5,-5.5625 8.25,0.875 -1.03125,-4.625 4.8125,1.4375 1,-8.21875 z m 3.03125,8.96875 c 4.397162,0 7.96875,3.571588 7.96875,7.96875 0,0.933946 -0.172814,1.823103 -0.46875,2.65625 -0.04344,0.06233 -0.08301,0.12409 -0.125,0.1875 -0.574833,-0.233454 -1.199916,-0.375 -1.875,-0.375 -2.460815,0 -4.434138,1.755368 -5.03125,4.03125 -1.015462,0.191124 -1.952873,0.600669 -2.78125,1.15625 -3.275392,-0.989825 -5.65625,-4.060273 -5.65625,-7.65625 0,-4.397162 3.571588,-7.96875 7.96875,-7.96875 z m 14.90625,8.25 c 4.15838,0 7.53125,3.372869 7.53125,7.53125 3.118784,0 5.65625,2.506218 5.65625,5.625 0,3.118782 -2.537466,5.65625 -5.65625,5.65625 l -20.6875,0 c -3.118784,0 -5.65625,-2.537468 -5.65625,-5.65625 0,-3.118782 2.537466,-5.625 5.65625,-5.625 0,-2.07919 1.670811,-3.78125 3.75,-3.78125 0.93205,0 1.74879,0.376457 2.40625,0.9375 1.113929,-2.765808 3.835473,-4.6875 7,-4.6875 z m -6.125,1.0625 a 1.0709466,1.0709466 0 0 0 0.3125,0.1875 c -0.140455,0.128957 -0.274687,0.268233 -0.40625,0.40625 0.04523,-0.194774 0.06122,-0.393814 0.09375,-0.59375 z"
       inkscape:connector-curvature="0"
       id="path3852"
       style="opacity:0.1;color:#000000;fill:#552200;fill-opacity:1;fill-rule:nonzero;stroke:none;stroke-width:2;marker:none;visibility:visible;display:inline;overflow:visible;enable-background:accumulate" />
    <path
       d="m 47.999984,14 c -17.673112,0 -32,14.10303 -32,31.5 0,0.167217 -0.0026,0.333402 0,0.5 0.271763,-17.166051 14.496759,-31 32,-31 17.492624,0 31.711493,13.817156 32,30.96875 0.0024,-0.157945 0,-0.310246 0,-0.46875 0,-17.39697 -14.326888,-31.5 -32,-31.5 z m -8.09375,19.34375 c -1.390738,0 -2.711327,0.309712 -3.90625,0.84375 l -0.125,1 -1.125,-0.34375 c -1.043507,0.665226 -1.941771,1.524913 -2.65625,2.53125 -0.05672,0.07989 -0.101996,0.168295 -0.15625,0.25 l 0.15625,0.75 c 1.7335,-2.44162 4.593777,-4.03125 7.8125,-4.03125 2.057871,0 3.970215,0.641696 5.53125,1.75 l -0.09375,-1.0625 C 44.250717,34.274695 42.983815,33.745092 41.624984,33.5 l -0.875,0.84375 -0.53125,-1 c -0.106179,-0.0034 -0.205505,0 -0.3125,0 z m 5.53125,2.75 c 2.313046,1.642217 3.843337,4.301055 4,7.3125 0.01136,-0.167343 0.03125,-0.328176 0.03125,-0.5 0,-1.057861 -0.182773,-2.0781 -0.5,-3.03125 l -0.34375,0 0.15625,-0.53125 c -0.519342,-1.298246 -1.313929,-2.461579 -2.3125,-3.40625 l -1.03125,0.15625 z m -13.34375,2.28125 -0.59375,-0.0625 c -0.74272,1.36227 -1.15625,2.934321 -1.15625,4.59375 0,0.05276 -8.55e-4,0.103683 0,0.15625 0.0015,0.09517 0.02693,0.186741 0.03125,0.28125 0.107699,-1.838452 0.71441,-3.554147 1.71875,-4.96875 z m 0,-1 -0.78125,-3.5625 -0.25,-0.0625 0.8125,3.59375 0.21875,0.03125 z m 17.8125,-1.9375 -0.3125,0.03125 -0.96875,3.40625 0.28125,0 1,-3.4375 z m -26.0625,2.0625 5.875,5 0.625,-0.4375 -5.15625,-4.40625 L 23.843734,37.5 z m 30.84375,2.5 -3.15625,2.25 c -0.759312,0.303837 -1.450366,0.728691 -2.09375,1.21875 0.0067,0.146778 0.03125,0.289123 0.03125,0.4375 0,0.193228 -0.02011,0.372059 -0.03125,0.5625 0.643384,-0.490059 1.334438,-0.914913 2.09375,-1.21875 l 4.5,-3.21875 L 54.687484,40 z m -22.71875,3.34375 c -0.01317,0.187068 -0.03125,0.372113 -0.03125,0.5625 0,3.595977 2.380858,6.666425 5.65625,7.65625 0.828377,-0.555581 1.765788,-0.965126 2.78125,-1.15625 0.597112,-2.275882 2.570435,-4.03125 5.03125,-4.03125 0.675084,0 1.300167,0.141546 1.875,0.375 0.04199,-0.06341 0.08156,-0.12517 0.125,-0.1875 0.295936,-0.833147 0.46875,-1.722304 0.46875,-2.65625 0,-0.179832 -0.01949,-0.354367 -0.03125,-0.53125 -0.04771,0.761651 -0.192056,1.496503 -0.4375,2.1875 -0.04344,0.06233 -0.08301,0.12409 -0.125,0.1875 -0.574833,-0.233454 -1.199916,-0.375 -1.875,-0.375 -2.460815,0 -4.434138,1.755368 -5.03125,4.03125 -1.015462,0.191124 -1.952873,0.600669 -2.78125,1.15625 -3.138763,-0.948536 -5.437135,-3.817383 -5.625,-7.21875 z m -5.3125,2.34375 -1.03125,0.71875 5.09375,1.40625 0.25,-0.46875 c -0.06226,-0.162357 -0.10269,-0.33358 -0.15625,-0.5 l -4.15625,-1.15625 z m 6.875,5.375 -5.28125,2.15625 -0.71875,1.28125 6.84375,-2.78125 c -0.292561,-0.207889 -0.576767,-0.417042 -0.84375,-0.65625 z m 2.125,1.375 c -0.766757,1.11192 -1.21875,2.449107 -1.21875,3.90625 0,0.118699 0.02128,0.228882 0.03125,0.34375 0.144932,-1.52094 0.785028,-2.895509 1.75,-3.96875 -0.197403,-0.08236 -0.370314,-0.188117 -0.5625,-0.28125 z m -1.1875,4.3125 -0.03125,0.03125 0,0.5625 c 0,-0.201814 0.01425,-0.396593 0.03125,-0.59375 z m -0.03125,0.59375 0,0.4375 0.03125,-0.03125 c -0.008,-0.138257 -0.03125,-0.266119 -0.03125,-0.40625 z m 1.59375,-0.4375 c -0.01179,0.148623 -0.03125,0.285759 -0.03125,0.4375 0,3.118782 2.537466,5.65625 5.65625,5.65625 l 20.6875,0 c 3.118784,0 5.65625,-2.537468 5.65625,-5.65625 0,-0.151741 -0.01946,-0.288877 -0.03125,-0.4375 C 67.678538,59.754822 65.267594,62 62.343734,62 l -20.6875,0 c -2.92386,0 -5.334804,-2.245178 -5.625,-5.09375 z M 72.281234,67 c -0.07252,0.08315 -0.145375,0.167601 -0.21875,0.25 l 2.625,9.65625 0.3125,0.09375 -2.71875,-10 z"
       inkscape:connector-curvature="0"
       id="path3079"
       style="opacity:0.3;color:#000000;fill:#552200;fill-opacity:1;fill-rule:nonzero;stroke:none;stroke-width:2;marker:none;visibility:visible;display:inline;overflow:visible;enable-background:accumulate" />
  </g>
</svg>
