<?xml version="1.0" encoding="UTF-8" standalone="no"?>
<!-- Created with Inkscape (http://www.inkscape.org/) -->

<svg
   xmlns:dc="http://purl.org/dc/elements/1.1/"
   xmlns:cc="http://creativecommons.org/ns#"
   xmlns:rdf="http://www.w3.org/1999/02/22-rdf-syntax-ns#"
   xmlns:svg="http://www.w3.org/2000/svg"
   xmlns="http://www.w3.org/2000/svg"
   xmlns:xlink="http://www.w3.org/1999/xlink"
   xmlns:inkscape="http://www.inkscape.org/namespaces/inkscape"
   version="1.0"
   width="96"
   height="96"
   id="svg2408">
  <defs
     id="defs2410">
    <linearGradient
       id="linearGradient4384">
      <stop
         id="stop4386"
         style="stop-color:#ffffff;stop-opacity:1"
         offset="0" />
      <stop
         id="stop4388"
         style="stop-color:#ffffff;stop-opacity:0"
         offset="1" />
    </linearGradient>
    <linearGradient
       id="linearGradient4367">
      <stop
         id="stop4369"
         style="stop-color:#ffffff;stop-opacity:0.71755725"
         offset="0" />
      <stop
         id="stop4371"
         style="stop-color:#ffffff;stop-opacity:1"
         offset="1" />
    </linearGradient>
    <linearGradient
       x1="45.447727"
       y1="92.539597"
       x2="45.447727"
       y2="7.0165396"
       id="ButtonShadow"
       gradientUnits="userSpaceOnUse"
       gradientTransform="scale(1.0058652,0.994169)">
      <stop
         id="stop3750"
         style="stop-color:#000000;stop-opacity:1"
         offset="0" />
      <stop
         id="stop3752"
         style="stop-color:#000000;stop-opacity:0.58823532"
         offset="1" />
    </linearGradient>
    <linearGradient
       id="linearGradient3737">
      <stop
         id="stop3739"
         style="stop-color:#ffffff;stop-opacity:1"
         offset="0" />
      <stop
         id="stop3741"
         style="stop-color:#ffffff;stop-opacity:0"
         offset="1" />
    </linearGradient>
    <filter
       color-interpolation-filters="sRGB"
       id="filter3174">
      <feGaussianBlur
         id="feGaussianBlur3176"
         stdDeviation="1.71" />
    </filter>
    <filter
       x="-0.192"
       y="-0.192"
       width="1.3839999"
       height="1.3839999"
       color-interpolation-filters="sRGB"
       id="filter3794">
      <feGaussianBlur
         id="feGaussianBlur3796"
         stdDeviation="5.28" />
    </filter>
    <linearGradient
       x1="48"
       y1="20.220806"
       x2="48"
       y2="138.66119"
       id="linearGradient3613"
       xlink:href="#linearGradient3737"
       gradientUnits="userSpaceOnUse" />
    <linearGradient
       x1="48"
       y1="90"
       x2="48"
       y2="5.9877172"
       id="linearGradient3617"
       xlink:href="#linearGradient3700-5"
       gradientUnits="userSpaceOnUse" />
    <linearGradient
       x1="45.447727"
       y1="92.539597"
       x2="45.447727"
       y2="7.0165396"
       id="ButtonShadow-0"
       gradientUnits="userSpaceOnUse"
       gradientTransform="matrix(1.0058652,0,0,0.994169,100,0)">
      <stop
         id="stop3750-8"
         style="stop-color:#000000;stop-opacity:1"
         offset="0" />
      <stop
         id="stop3752-5"
         style="stop-color:#000000;stop-opacity:0.58823532"
         offset="1" />
    </linearGradient>
    <linearGradient
       x1="32.251034"
       y1="6.1317081"
       x2="32.251034"
       y2="90.238609"
       id="linearGradient3780"
       xlink:href="#ButtonShadow-0"
       gradientUnits="userSpaceOnUse"
       gradientTransform="matrix(1.0238095,0,0,1.0119048,-1.1428571,-98.071429)" />
    <linearGradient
       x1="32.251034"
       y1="6.1317081"
       x2="32.251034"
       y2="90.238609"
       id="linearGradient3772"
       xlink:href="#ButtonShadow-0"
       gradientUnits="userSpaceOnUse"
       gradientTransform="matrix(1.0238095,0,0,1.0119048,-1.1428571,-98.071429)" />
    <linearGradient
       x1="32.251034"
       y1="6.1317081"
       x2="32.251034"
       y2="90.238609"
       id="linearGradient3725"
       xlink:href="#ButtonShadow-0"
       gradientUnits="userSpaceOnUse"
       gradientTransform="matrix(1.0238095,0,0,1.0119048,-1.1428571,-98.071429)" />
    <linearGradient
       x1="32.251034"
       y1="6.1317081"
       x2="32.251034"
       y2="90.238609"
       id="linearGradient3721"
       xlink:href="#ButtonShadow-0"
       gradientUnits="userSpaceOnUse"
       gradientTransform="translate(0,-97)" />
    <linearGradient
       x1="32.251034"
       y1="6.1317081"
       x2="32.251034"
       y2="90.238609"
       id="linearGradient3026"
       xlink:href="#ButtonShadow-0"
       gradientUnits="userSpaceOnUse"
       gradientTransform="matrix(1.0238095,0,0,1.0119048,-1.1428571,-98.071429)" />
    <clipPath
       id="clipPath4355">
      <rect
         width="84"
         height="80"
         rx="6"
         ry="6"
         x="6"
         y="6"
         id="rect4357"
         style="fill:#ffffff;fill-opacity:1;fill-rule:nonzero;stroke:none" />
    </clipPath>
    <radialGradient
       cx="48"
       cy="87.792389"
       r="42"
       fx="48"
       fy="87.792389"
       id="radialGradient4375"
       xlink:href="#linearGradient4367"
       gradientUnits="userSpaceOnUse"
       gradientTransform="matrix(1,-6.7114942e-8,8.4282233e-8,1.2557894,109.99999,-24.505592)" />
    <linearGradient
       x1="48"
       y1="88"
       x2="48"
       y2="-40"
       id="linearGradient4390"
       xlink:href="#linearGradient4384"
       gradientUnits="userSpaceOnUse"
       gradientTransform="matrix(1,0,0,-1,0,92)" />
    <linearGradient
       x1="48"
       y1="82"
       x2="112.12357"
       y2="82.454597"
       id="linearGradient4429"
       xlink:href="#linearGradient4384"
       gradientUnits="userSpaceOnUse"
       spreadMethod="reflect" />
    <linearGradient
       id="linearGradient3843">
      <stop
         id="stop3845"
         style="stop-color:#523823;stop-opacity:1"
         offset="0" />
      <stop
         id="stop3847"
         style="stop-color:#79563a;stop-opacity:1"
         offset="0.11780351" />
      <stop
         id="stop3849"
         style="stop-color:#875c38;stop-opacity:1"
         offset="0.23809524" />
      <stop
         id="stop3851"
         style="stop-color:#a66e40;stop-opacity:1"
         offset="1" />
    </linearGradient>
    <linearGradient
       x1="8"
       y1="1033.3622"
       x2="50"
       y2="1033.3622"
       id="linearGradient3870"
       xlink:href="#linearGradient3843"
       gradientUnits="userSpaceOnUse"
       gradientTransform="translate(-2,-956.3622)"
       spreadMethod="reflect" />
    <linearGradient
       id="linearGradient3700-5">
      <stop
         id="stop3702-0"
         style="stop-color:#236f23;stop-opacity:1"
         offset="0" />
      <stop
         id="stop3704-4"
         style="stop-color:#61a939;stop-opacity:1"
         offset="1" />
    </linearGradient>
    <linearGradient
       x1="48"
       y1="72"
       x2="48"
       y2="24"
       id="linearGradient3149-4"
       xlink:href="#linearGradient3714-0"
       gradientUnits="userSpaceOnUse"
       gradientTransform="translate(4,-4)" />
    <linearGradient
       id="linearGradient3714-0">
      <stop
         id="stop3716-9"
         style="stop-color:#d7d7d7;stop-opacity:1"
         offset="0" />
      <stop
         id="stop3718-1"
         style="stop-color:#c8c8c8;stop-opacity:1"
         offset="1" />
    </linearGradient>
    <radialGradient
       cx="57"
       cy="37"
       r="15"
       fx="57"
       fy="37"
       id="radialGradient3827-9"
       xlink:href="#linearGradient3737-8-6"
       gradientUnits="userSpaceOnUse"
       gradientTransform="matrix(1.2,7.0502532e-8,-6.070424e-8,1.0332266,-7.399999,-5.2293852)" />
    <linearGradient
       id="linearGradient3737-8-6">
      <stop
         id="stop3739-7-2"
         style="stop-color:#ffffff;stop-opacity:1"
         offset="0" />
      <stop
         id="stop3741-1-5"
         style="stop-color:#ffffff;stop-opacity:0"
         offset="1" />
    </linearGradient>
    <linearGradient
       x1="62.823048"
       y1="53.023079"
       x2="62.823048"
       y2="22.999353"
       id="linearGradient3742-4"
       xlink:href="#linearGradient3749-4"
       gradientUnits="userSpaceOnUse"
       gradientTransform="matrix(1,0,0,-1,4,66)" />
    <linearGradient
       id="linearGradient3749-4">
      <stop
         id="stop3751-9"
         style="stop-color:#000000;stop-opacity:0.5271318"
         offset="0" />
      <stop
         id="stop3757-9"
         style="stop-color:#7f7f7f;stop-opacity:0"
         offset="0.5" />
      <stop
         id="stop3753-3"
         style="stop-color:#ffffff;stop-opacity:1"
         offset="1" />
    </linearGradient>
    <linearGradient
       x1="59"
       y1="32"
       x2="69.1875"
       y2="32"
       id="linearGradient3755-6"
       xlink:href="#linearGradient3749-4"
       gradientUnits="userSpaceOnUse"
       gradientTransform="matrix(0.25881905,0.96592583,-0.96592583,0.25881905,82.414693,-42.192018)" />
    <linearGradient
       x1="24"
       y1="75"
       x2="59.503521"
       y2="39.496479"
       id="linearGradient3123-0"
       xlink:href="#linearGradient3813-5"
       gradientUnits="userSpaceOnUse"
       gradientTransform="translate(3,-4.9999996)" />
    <linearGradient
       id="linearGradient3813-5">
      <stop
         id="stop3815-0"
         style="stop-color:#666666;stop-opacity:1"
         offset="0" />
      <stop
         id="stop3817-2"
         style="stop-color:#666666;stop-opacity:0"
         offset="1" />
    </linearGradient>
    <linearGradient
       x1="34"
       y1="58"
       x2="36"
       y2="60"
       id="linearGradient3127-9"
       xlink:href="#linearGradient3790-4"
       gradientUnits="userSpaceOnUse"
       gradientTransform="translate(2,-3.9999996)" />
    <linearGradient
       id="linearGradient3790-4">
      <stop
         id="stop3792-3"
         style="stop-color:#969696;stop-opacity:1"
         offset="0" />
      <stop
         id="stop3794-5"
         style="stop-color:#ffffff;stop-opacity:0.79069769"
         offset="1" />
    </linearGradient>
    <linearGradient
       x1="48"
       y1="72"
       x2="48"
       y2="24"
       id="linearGradient3131-1"
       xlink:href="#linearGradient3714-0"
       gradientUnits="userSpaceOnUse"
       gradientTransform="translate(2,-3.9999996)" />
    <linearGradient
       x1="48"
       y1="72"
       x2="48"
       y2="-8"
       id="linearGradient4059-7"
       xlink:href="#linearGradient4062-4"
       gradientUnits="userSpaceOnUse"
       gradientTransform="translate(2,-3.9999996)" />
    <linearGradient
       id="linearGradient4062-4">
      <stop
         id="stop4064-3"
         style="stop-color:#206520;stop-opacity:1"
         offset="0" />
      <stop
         id="stop4066-1"
         style="stop-color:#5a9d35;stop-opacity:1"
         offset="1" />
    </linearGradient>
  </defs>
  <metadata
     id="metadata2413">
    <rdf:RDF>
      <cc:Work
         rdf:about="">
        <dc:format>image/svg+xml</dc:format>
        <dc:type
           rdf:resource="http://purl.org/dc/dcmitype/StillImage" />
        <dc:title />
      </cc:Work>
    </rdf:RDF>
  </metadata>
  <g
     id="layer2"
     style="display:none">
    <rect
       width="86"
       height="85"
       rx="6"
       ry="6"
       x="5"
       y="7"
       id="rect3745"
       style="opacity:0.9;fill:url(#ButtonShadow);fill-opacity:1;fill-rule:nonzero;stroke:none;filter:url(#filter3174)" />
  </g>
  <g
     id="layer3"
     style="display:inline">
    <path
       d="m 12,-95.03125 c -5.5110903,0 -10.03125,4.52016 -10.03125,10.03125 l 0,71 c 0,5.5110902 4.5201598,10.03125 10.03125,10.03125 l 72,0 c 5.51109,0 10.03125,-4.5201597 10.03125,-10.03125 l 0,-71 c 0,-5.51109 -4.52016,-10.03125 -10.03125,-10.03125 l -72,0 z"
       transform="scale(1,-1)"
       id="path3786"
       style="opacity:0.07999998;fill:url(#linearGradient3026);fill-opacity:1;fill-rule:nonzero;stroke:none;display:inline" />
    <path
       d="m 12,-94.03125 c -4.971633,0 -9.03125,4.059617 -9.03125,9.03125 l 0,71 c 0,4.9716329 4.0596171,9.03125 9.03125,9.03125 l 72,0 c 4.971633,0 9.03125,-4.059617 9.03125,-9.03125 l 0,-71 c 0,-4.971633 -4.059617,-9.03125 -9.03125,-9.03125 l -72,0 z"
       transform="scale(1,-1)"
       id="path3778"
       style="opacity:0.1;fill:url(#linearGradient3780);fill-opacity:1;fill-rule:nonzero;stroke:none;display:inline" />
    <path
       d="m 12,-93 c -4.4091333,0 -8,3.590867 -8,8 l 0,71 c 0,4.4091333 3.5908667,8 8,8 l 72,0 c 4.409133,0 8,-3.5908667 8,-8 l 0,-71 c 0,-4.409133 -3.590867,-8 -8,-8 l -72,0 z"
       transform="scale(1,-1)"
       id="path3770"
       style="opacity:0.2;fill:url(#linearGradient3772);fill-opacity:1;fill-rule:nonzero;stroke:none;display:inline" />
    <rect
       width="86"
       height="85"
       rx="7"
       ry="7"
       x="5"
       y="-92"
       transform="scale(1,-1)"
       id="rect3723"
       style="opacity:0.3;fill:url(#linearGradient3725);fill-opacity:1;fill-rule:nonzero;stroke:none;display:inline" />
    <rect
       width="84"
       height="84"
       rx="6"
       ry="6"
       x="6"
       y="-91"
       transform="scale(1,-1)"
       id="rect3716"
       style="opacity:0.45;fill:url(#linearGradient3721);fill-opacity:1;fill-rule:nonzero;stroke:none;display:inline" />
  </g>
  <g
     id="layer4">
    <rect
       width="84"
       height="26.000017"
       rx="6"
       ry="6"
       x="6"
       y="64"
       id="rect2841"
       style="color:#000000;fill:url(#linearGradient3870);fill-opacity:1;fill-rule:nonzero;stroke:none;stroke-width:1.5;marker:none;visibility:visible;display:inline;overflow:visible;enable-background:accumulate" />
    <path
       d="m 6,82 0,2 c 0,3.324 2.676,6 6,6 l 72,0 c 3.324,0 6,-2.676 6,-6 l 0,-2 c 0,3.324 -2.676,6 -6,6 L 12,88 C 8.676,88 6,85.324 6,82 z"
       inkscape:connector-curvature="0"
       id="rect4345"
       style="opacity:0.1;color:#000000;fill:#000000;fill-opacity:1;fill-rule:nonzero;stroke:none;stroke-width:1.5;marker:none;visibility:visible;display:inline;overflow:visible;enable-background:accumulate" />
    <path
       d="m 6,83 0,1 c 0,3.324 2.676,6 6,6 l 72,0 c 3.324,0 6,-2.676 6,-6 l 0,-1 c 0,3.324 -2.676,6 -6,6 L 12,89 C 8.676,89 6,86.324 6,83 z"
       inkscape:connector-curvature="0"
       id="rect4336"
       style="opacity:0.1;color:#000000;fill:#000000;fill-opacity:1;fill-rule:nonzero;stroke:none;stroke-width:1.5;marker:none;visibility:visible;display:inline;overflow:visible;enable-background:accumulate" />
    <path
       d="m 6,80 0,1 c 0,3.324 2.676,6 6,6 l 72,0 c 3.324,0 6,-2.676 6,-6 l 0,-1 c 0,3.324 -2.676,6 -6,6 L 12,86 C 8.676,86 6,83.324 6,80 z"
       inkscape:connector-curvature="0"
       id="path4412"
       style="opacity:0.2;fill:#000000;fill-opacity:1;fill-rule:nonzero;stroke:none" />
  </g>
  <g
     id="layer1">
    <rect
       width="84"
       height="80"
       rx="6"
       ry="6"
       x="6"
       y="6"
       id="rect2419"
       style="fill:url(#linearGradient3617);fill-opacity:1;fill-rule:nonzero;stroke:none" />
    <path
       d="M 120.78125,6.125 C 118.04223,6.6826484 116,9.0915 116,12 l 0,68 c 0,3.324 2.676,6 6,6 l 72,0 c 3.324,0 6,-2.676 6,-6 l 0,-68 c 0,-2.9085 -2.04223,-5.3173516 -4.78125,-5.875 2.20512,0.5362071 3.8125,2.4908437 3.8125,4.875 l 0,68 c 0,2.80489 -2.22636,5.03125 -5.03125,5.03125 l -72,0 c -2.80489,0 -5.03125,-2.22636 -5.03125,-5.03125 l 0,-68 c 0,-2.3841563 1.60738,-4.3387929 3.8125,-4.875 z"
       inkscape:connector-curvature="0"
       id="rect4359"
       style="opacity:0.2;fill:url(#radialGradient4375);fill-opacity:1;fill-rule:nonzero;stroke:none" />
    <path
       d="M 12,86 C 8.676,86 6,83.324 6,80 L 6,12 C 6,8.676 8.676,6 12,6 l 72,0 c 3.324,0 6,2.676 6,6 l 0,68 c 0,3.324 -2.676,6 -6,6 z m 0,-0.96875 72,0 c 2.80489,0 5.03125,-2.22636 5.03125,-5.03125 l 0,-68 C 89.03125,9.19511 86.80489,6.96875 84,6.96875 l -72,0 C 9.1951102,6.96875 6.96875,9.19511 6.96875,12 l 0,68 c 0,2.80489 2.2263602,5.03125 5.03125,5.03125 z"
       inkscape:connector-curvature="0"
       id="rect4377"
       style="opacity:0.3;fill:url(#linearGradient4390);fill-opacity:1;fill-rule:nonzero;stroke:none" />
    <path
       d="m 6,78 0,2 c 0,3.324 2.676,6 6,6 l 72,0 c 3.324,0 6,-2.676 6,-6 l 0,-2 c 0,3.324 -2.676,6 -6,6 L 12,84 C 8.676,84 6,81.324 6,78 z"
       inkscape:connector-curvature="0"
       id="rect4414"
       style="opacity:0.1;fill:url(#linearGradient4429);fill-opacity:1;fill-rule:nonzero;stroke:none" />
  </g>
  <g
     id="layer5"
     style="display:inline">
    <rect
       width="66"
       height="62"
       rx="12"
       ry="12"
       x="15"
       y="15"
       clip-path="url(#clipPath4355)"
       id="rect3171"
       style="opacity:0.1;fill:url(#linearGradient3613);fill-opacity:1;fill-rule:nonzero;stroke:#ffffff;stroke-width:0.5;stroke-linecap:round;stroke-linejoin:miter;stroke-miterlimit:4;stroke-opacity:1;stroke-dasharray:none;stroke-dashoffset:0;filter:url(#filter3794)" />
  </g>
  <g
     id="layer6">
    <path
       d="m 65,14 c -8.981983,-0.167125 -16.994562,7.046707 -17.84375,15.96875 -0.01487,0.03623 -0.01725,0.06214 -0.03125,0.125 -0.01071,0.04807 -0.02605,0.02935 -0.03125,0.09375 A 1.0066117,1.0066117 0 0 0 47.125,30.5 a 1.0066117,1.0066117 0 0 0 0,0.09375 c -0.310742,2.512948 0.200273,4.812833 0.5,6.5 C 39.001419,45.724649 30.321556,54.328715 21.71875,63 a 1.0066117,1.0066117 0 0 0 0,0.03125 c 9.3e-5,-9.8e-5 -0.09384,0.09385 -0.09375,0.09375 8.6e-5,-1.04e-4 -0.09383,0.09386 -0.09375,0.09375 7.9e-5,-1.1e-4 -0.06257,0.125115 -0.0625,0.125 7.2e-5,-1.15e-4 -0.06256,0.125119 -0.0625,0.125 6.4e-5,-1.19e-4 -0.06256,0.125123 -0.0625,0.125 5.6e-5,-1.23e-4 -0.06255,0.125127 -0.0625,0.125 4.7e-5,-1.27e-4 -0.03129,0.12513 -0.03125,0.125 2.9e-5,-9.9e-5 -0.0219,0.05784 -0.03125,0.09375 -0.0029,0.01105 -7e-6,0.03128 0,0.03125 -0.498345,2.040613 -0.140626,3.882314 -0.21875,5 8e-6,-1.26e-4 0,0.125126 0,0.125 0,-1.26e-4 8e-6,0.125126 0,0.125 0.06664,1.089698 -0.224878,2.777866 0.1875,4.6875 l -0.03125,0 c -2.3e-5,-1.11e-4 0.03128,0.09386 0.03125,0.09375 -3e-5,-1.1e-4 0.03129,0.125108 0.03125,0.125 -3.6e-5,-1.08e-4 0.06254,0.09386 0.0625,0.09375 -4.2e-5,-1.06e-4 0.0313,0.09385 0.03125,0.09375 -4.8e-5,-1.03e-4 0.06255,0.1251 0.0625,0.125 -5.3e-5,-1e-4 0.03131,0.09385 0.03125,0.09375 -5.9e-5,-9.7e-5 0.06256,0.09384 0.0625,0.09375 -6.4e-5,-9.4e-5 0.09382,0.09384 0.09375,0.09375 0.927132,1.182431 2.335605,1.336891 3.1875,1.3125 0.391382,-0.01121 0.74183,-0.04421 1,-0.0625 0.25817,-0.01829 0.465859,0.02293 0.34375,0 0.01365,0.0031 0.03128,7e-6 0.03125,0 -1.09e-4,-2.2e-5 0.12511,0.03127 0.125,0.03125 -1.1e-4,-1.6e-5 0.09386,1e-5 0.09375,0 -1.11e-4,-1e-5 0.125111,3e-6 0.125,0 a 1.0066117,1.0066117 0 0 0 0.0625,0 c 1.780877,-0.0716 3.91502,0.194661 6.21875,-0.125 a 1.0066117,1.0066117 0 0 0 0.03125,0 c -1.59e-4,2.3e-5 0.156407,-0.03129 0.15625,-0.03125 -1.57e-4,3.6e-5 0.156404,-0.0313 0.15625,-0.03125 -1.54e-4,4.8e-5 0.125149,-0.06256 0.125,-0.0625 -1.49e-4,6e-5 0.156394,-0.06257 0.15625,-0.0625 -1.44e-4,7.2e-5 0.156388,-0.09383 0.15625,-0.09375 -1.38e-4,8.3e-5 0.125131,-0.09384 0.125,-0.09375 -1.31e-4,9.4e-5 0.125123,-0.09385 0.125,-0.09375 -1.03e-4,8.7e-5 0.06711,-0.06926 0.09375,-0.09375 l 0.03125,0 c 0.684268,-0.661567 1.855862,-1.538656 2.71875,-2.9375 -5.2e-5,7e-5 0.04465,-0.0373 0.0625,-0.0625 0.0054,-0.0076 1.5e-5,-0.03127 0,-0.03125 -6.3e-5,9.4e-5 0.06256,-0.09385 0.0625,-0.09375 a 1.0066117,1.0066117 0 0 0 0.03125,-0.0625 c 0.223231,-0.483067 0.189819,-0.822835 0.1875,-1.15625 0.156255,-0.01003 0.225458,0.03096 0.40625,0 0.476031,-0.08152 1.13547,-0.280022 1.6875,-0.78125 0.386889,-0.351285 0.451576,-0.829404 0.59375,-1.28125 A 1.0066117,1.0066117 0 0 0 40,68.25 c 0.0041,-0.0338 -3.07e-4,-0.05381 0,-0.09375 0.006,-0.06115 -0.0016,-0.172035 0,-0.15625 0.0055,-0.101358 1.09e-4,-0.128325 0,-0.21875 0.894158,-0.110411 1.688192,-0.469075 2.375,-1.125 0.0062,-0.0059 0.02508,0.006 0.03125,0 a 1.0066117,1.0066117 0 0 0 0.5,-0.28125 c 0.0562,-0.06242 0.0474,-0.07175 0.0625,-0.09375 0.16356,-0.16567 0.65832,-0.527739 1.15625,-1.125 0.439559,-0.527247 0.71033,-1.356538 0.78125,-2.25 1.246273,-0.06742 2.227152,-0.704243 2.78125,-1.28125 0.564347,-0.58768 1.10105,-1.152461 1.0625,-1.125 -9.4e-5,6.3e-5 0.09384,-0.06257 0.09375,-0.0625 A 1.0066117,1.0066117 0 0 0 48.9375,60.375 c 0.810414,-0.741916 0.979389,-1.640261 1.03125,-2.375 0.01317,-0.001 0.01776,0.0011 0.03125,0 0.482836,-0.03947 1.151577,-0.163442 1.78125,-0.625 0.592682,-0.434442 0.900405,-1.056597 1.0625,-1.71875 A 1.0066117,1.0066117 0 0 0 53,55.25 c 0.01519,-0.12837 4.49e-4,-0.02381 0,-0.03125 0.0017,-0.01543 -0.0015,-0.01601 0,-0.03125 0.01982,-0.198132 0.0016,-0.2436 0,-0.40625 0.834791,-0.111794 1.593117,-0.445578 2.25,-1.03125 a 1.0066117,1.0066117 0 0 0 0.59375,-0.28125 l 4.25,-4.25 c 8.382507,2.647983 18.028646,-1.756547 21.4375,-9.90625 0.0035,-0.0085 -0.0035,-0.02276 0,-0.03125 0.01179,-0.02435 0.0199,-0.0038 0.03125,-0.03125 3.403287,-7.645036 0.791661,-17.138377 -6.09375,-21.90625 -0.02433,-0.01685 -0.03806,-0.04577 -0.0625,-0.0625 l 0,0.03125 c -0.11417,-0.07468 -0.209059,-0.121183 -0.21875,-0.125 -1.01702,-0.754053 -2.237186,-1.393779 -3.40625,-1.875 -1.054143,-0.433917 -1.9446,-0.691989 -2.8125,-0.84375 -0.01907,-0.015 -0.06249,-0.03125 -0.0625,-0.03125 -2.8e-5,-1.6e-5 -0.256494,-0.06625 -0.34375,-0.09375 -0.01689,-0.0053 -0.06249,-0.03125 -0.0625,-0.03125 C 67.393856,14.123425 66.260308,13.99349 65.03125,14 c 0.0012,-7e-6 -0.0071,-1.84e-4 -0.03125,0 z m 2.96875,14.0625 c 0.05269,-1e-6 0.125108,-5e-6 0.125,0 a 1.0066117,1.0066117 0 0 0 0.0625,0 c -0.01408,0.0019 0.411324,0.106985 0.625,0.4375 0.213676,0.330515 0.275039,0.640941 0,1.0625 A 1.0066117,1.0066117 0 0 0 68.75,29.625 c -0.0024,0.0041 -0.377621,0.239564 -0.8125,0.1875 -0.434879,-0.05206 -0.635487,-0.177741 -0.6875,-0.4375 a 1.0066117,1.0066117 0 0 0 -0.03125,-0.1875 c -0.05005,-0.164468 -0.0191,-0.49716 0.15625,-0.75 0.17535,-0.25284 0.436195,-0.371629 0.59375,-0.375 z"
       transform="translate(-2,4e-7)"
       id="path3974"
       style="opacity:0.05;fill:#000000;fill-opacity:1;stroke:none" />
    <path
       d="m 21.999999,24 0,8 L 62,72 70,72 70,64 30,24 z"
       inkscape:connector-curvature="0"
       id="path3855"
       style="fill:url(#linearGradient4059-7);fill-opacity:1;stroke:none" />
    <path
       d="m 65,15 c -8.478101,-0.174017 -16.13916,6.750303 -16.875,15.1875 -0.0029,0.03298 -0.02859,0.06072 -0.03125,0.09375 l 0.03125,0 c -0.461279,2.63802 0.301463,5.213578 0.59375,7.15625 -8.749059,8.758986 -17.557933,17.488495 -26.28125,26.28125 a 1.0004701,1.0004701 0 0 0 -0.25,0.46875 C 21.742972,65.975948 22.094716,67.676185 22,69.03125 a 1.0004701,1.0004701 0 0 0 0,0.125 c 0.0787,1.286935 -0.205844,2.854469 0.15625,4.53125 a 1.0004701,1.0004701 0 0 0 0.1875,0.40625 c 0.642467,0.834336 1.660954,0.957944 2.375,0.9375 0.714046,-0.02044 1.306224,-0.110614 1.5625,-0.0625 A 1.0004701,1.0004701 0 0 0 26.5,75 c 1.898012,-0.07631 3.985167,0.171919 6.125,-0.125 a 1.0004701,1.0004701 0 0 0 0.5625,-0.28125 c 0.778426,-0.756807 1.877629,-1.564433 2.625,-2.8125 A 1.0004701,1.0004701 0 0 0 35.875,71.6875 c 0.215277,-0.465854 0.17763,-0.810586 0.15625,-1.125 C 36.015886,70.336562 36.019005,70.169816 36,70 c 0.350134,0.01922 0.700606,0.05748 1.21875,-0.03125 0.365308,-0.06256 0.789372,-0.198135 1.15625,-0.53125 0.349916,-0.317714 0.549072,-0.811933 0.59375,-1.3125 l 0.03125,0 c 0.0036,-0.03015 -0.0029,-0.03277 0,-0.0625 0.0528,-0.535406 -0.0085,-0.862254 -0.03125,-1.125 1.173143,0.149781 2.410103,-0.257331 3.15625,-1.28125 l 0.03125,0.03125 c 0.02352,-0.02612 0.06643,-0.09732 0.09375,-0.125 0.269322,-0.272797 0.680806,-0.567178 1.09375,-1.0625 0.454837,-0.545572 0.867499,-1.449659 0.625,-2.40625 a 1.0004701,1.0004701 0 0 0 0,-0.03125 c -0.02041,-0.07116 -0.02257,-0.04381 -0.03125,-0.09375 0.09123,-4.73e-4 0.166935,-0.02309 0.53125,0.03125 a 1.0004701,1.0004701 0 0 0 0.0625,0 c 1.07375,0.103614 1.917245,-0.520735 2.4375,-1.0625 0.520255,-0.541765 0.915538,-1.056269 1.1875,-1.25 A 1.0004701,1.0004701 0 0 0 48.25,59.625 c 0.67869,-0.621325 0.790657,-1.508937 0.78125,-2.125 -0.0035,-0.229109 0.01026,-0.310798 0,-0.5 0.313246,0.01559 0.480866,0.03222 0.875,0 0.401173,-0.0328 0.846035,-0.118482 1.28125,-0.4375 0.424203,-0.310945 0.709927,-0.870358 0.78125,-1.4375 l 0.03125,0 c 0.0011,-0.0095 -9.95e-4,-0.02176 0,-0.03125 0.06073,-0.554251 -0.0079,-0.886209 -0.03125,-1.15625 1.150059,0.14693 2.343937,-0.262589 3.09375,-1.25 L 55.125,52.75 59.75,48.09375 c 8.006148,2.92721 17.56951,-1.322307 20.84375,-9.1875 0.0055,-0.01312 0.02582,-0.01811 0.03125,-0.03125 3.232734,-7.215371 0.744633,-16.282488 -5.78125,-20.75 -0.0166,-0.01325 -0.04568,-0.01807 -0.0625,-0.03125 -0.926168,-0.72589 -2.178922,-1.351409 -3.375,-1.84375 -1.191595,-0.490496 -2.192002,-0.819984 -3,-0.90625 -0.0024,-2.52e-4 0.0024,-0.031 0,-0.03125 -0.02009,-0.0035 -0.04238,0.0034 -0.0625,0 -1.075301,-0.183803 -2.165672,-0.318574 -3.3125,-0.3125 -0.01073,5.7e-5 -0.02052,-8.2e-5 -0.03125,0 z m 2.9375,12.0625 a 1.0004701,1.0004701 0 0 0 0.09375,0 c 1.099761,-0.151297 2.583183,1.545973 1.59375,3.0625 a 1.0004701,1.0004701 0 0 0 0,0.03125 c -0.619868,1.036025 -3.069398,0.932456 -3.375,-0.59375 a 1.0004701,1.0004701 0 0 0 0,-0.09375 c -0.321239,-1.055553 0.580361,-2.382561 1.6875,-2.40625 z"
       transform="translate(-2,4e-7)"
       id="path3970"
       style="opacity:0.1;fill:#000000;fill-opacity:1;stroke:none" />
    <path
       d="m 63,16.000001 c -7.954698,-0.179727 -15.27785,6.437342 -15.91733,14.365047 -0.465788,2.492207 0.474587,5.239417 0.716429,7.429332 -8.874596,8.887316 -17.798643,17.731699 -26.642368,26.645819 -0.370849,1.492017 -0.04894,3.119148 -0.156732,4.661293 0.0888,1.452066 -0.176375,2.967077 0.129157,4.381931 0.769736,0.999613 2.258035,0.314998 3.331738,0.516577 2.00161,-0.08047 4.055561,0.158654 6.026143,-0.11478 0.84541,-0.821931 1.870359,-1.587402 2.477961,-2.602063 C 33.281598,70.598044 32.443726,68.8987 33.492179,69 34.369432,68.98883 35.92961,69.294848 36,68 36.107248,67.112462 35.512154,65.522582 36.984358,66 37.9545,66.17617 38.863984,65.867942 39.414796,65.022704 40.115973,64.24396 41.313738,63.581371 41,62.343761 40.599809,60.948784 41.471401,60.82559 42.640597,61 44.002703,61.13144 44.608172,59.551253 45.574874,58.862626 46.366458,58.137949 45.854119,56.934474 46,56 c 0.995776,-0.115414 2.844052,0.488209 3,-1 0.107248,-0.887538 -0.487846,-2.477418 0.984358,-2 0.970011,0.17604 1.880401,-0.131286 2.428539,-0.97919 1.674868,-1.68402 3.349735,-3.36804 5.024603,-5.05206 7.589386,3.206301 17.128014,-0.907475 20.253987,-8.476587 C 80.747254,31.718426 78.378465,23.089104 72.23222,18.92162 70.660355,17.666744 67.299875,16.410484 66.25,16.312501 65.176797,16.12718 64.091774,15.991628 63,16.000001 z M 65.90625,26.0625 c 2.040553,-0.280724 3.985741,2.412316 2.5625,4.59375 -1.126955,1.883551 -4.700594,1.525407 -5.1875,-0.90625 -0.521101,-1.712275 0.815256,-3.648777 2.625,-3.6875 z"
       inkscape:connector-curvature="0"
       id="path3964"
       style="opacity:0.15;fill:#000000;fill-opacity:1;stroke:none" />
    <path
       d="m 63,17.000001 c -8.284292,0 -15,6.715708 -15,14.999999 0,0.366324 0.0054,0.733786 0.03125,1.09375 0.0046,0.06407 0.02485,0.124421 0.03125,0.1875 0.03391,0.399221 0.09168,0.797809 0.15625,1.1875 0.02207,0.125194 0.03896,0.252258 0.0625,0.375 0.01174,0.0613 0.01876,0.126471 0.03125,0.1875 0.183079,0.89014 0.447545,1.737824 0.78125,2.5625 0.02957,0.07355 0.06305,0.14578 0.09375,0.21875 0.0038,0.009 -0.0038,0.02228 0,0.03125 L 21.999999,65 l 0,8 L 30,73 l 2,-2 0,-3 3,0 0,-3 3,0 2,-2 0,-3 3,0 2,-2 0,-3 3,0 0,-3 3,0 6.15625,-6.1875 0.03125,0 c 0.63719,0.269722 1.281691,0.534653 1.96875,0.71875 8.002012,2.144133 16.230867,-2.591739 18.375,-10.59375 0.214301,-0.799783 0.326765,-1.608733 0.40625,-2.40625 0.0042,-0.04109 -0.0038,-0.08381 0,-0.125 0.181183,-1.987137 -0.0222,-3.94662 -0.59375,-5.78125 -0.0096,-0.03121 -0.02155,-0.06264 -0.03125,-0.09375 -0.0029,-0.0094 0.003,-0.02183 0,-0.03125 -0.01287,-0.041 -0.01803,-0.08415 -0.03125,-0.125 -0.0942,-0.285295 -0.201673,-0.565111 -0.3125,-0.84375 -0.04933,-0.125853 -0.103635,-0.250839 -0.15625,-0.375 -0.0037,-0.0087 0.0037,-0.02255 0,-0.03125 -0.113533,-0.266467 -0.246736,-0.522996 -0.375,-0.78125 -0.08368,-0.166531 -0.16133,-0.337033 -0.25,-0.5 -0.0043,-0.0079 0.0043,-0.02335 0,-0.03125 -0.08928,-0.163357 -0.18049,-0.31253 -0.28125,-0.46875 -0.05747,-0.0966 -0.127932,-0.186067 -0.1875,-0.28125 -0.104365,-0.151937 -0.205083,-0.319277 -0.3125,-0.468749 -0.06713,-0.09884 -0.149335,-0.184118 -0.21875,-0.28125 -0.207084,-0.289676 -0.398323,-0.601188 -0.625,-0.875 -0.23065,-0.278132 -0.468897,-0.551863 -0.71875,-0.8125 -0.06367,-0.06056 -0.12277,-0.128057 -0.1875,-0.1875 -0.02075,-0.02092 -0.04163,-0.0417 -0.0625,-0.0625 -0.04166,-0.04147 -0.08286,-0.08402 -0.125,-0.125 -0.641233,-0.624134 -1.348916,-1.185525 -2.09375,-1.6875 -0.29417,-0.197893 -0.591486,-0.385178 -0.90625,-0.5625 -0.1141,-0.06551 -0.227787,-0.124927 -0.34375,-0.1875 -0.204354,-0.108691 -0.418769,-0.212955 -0.625,-0.3125 -0.167676,-0.0808 -0.332913,-0.167303 -0.5,-0.25 -0.934312,-0.408976 -1.884077,-0.724749 -2.90625,-0.9375 -0.01985,-0.0042 -0.04263,0.0041 -0.0625,0 -0.122421,-0.02505 -0.251286,-0.04024 -0.375,-0.0625 -0.860078,-0.152987 -1.752202,-0.25 -2.65625,-0.25 z m 2.84375,8.062499 c 0.26055,-0.01524 0.528082,-0.0045 0.78125,0.03125 0.06127,0.0096 0.127179,0.01895 0.1875,0.03125 0.188989,0.03595 0.381948,0.0937 0.5625,0.15625 0.06186,0.02252 0.12711,0.03706 0.1875,0.0625 0.06905,0.02783 0.120185,0.09338 0.1875,0.125 0.62595,0.307405 1.173598,0.741745 1.5625,1.3125 0.143901,0.21285 0.273435,0.41709 0.375,0.65625 0.209889,0.481205 0.310711,1.00627 0.3125,1.5625 0,0.547893 -0.11009,1.05645 -0.3125,1.53125 -0.0055,0.01255 -0.02565,0.01876 -0.03125,0.03125 -0.09803,0.223332 -0.207768,0.456539 -0.34375,0.65625 -0.005,0.0075 0.005,0.02379 0,0.03125 -0.07612,0.107953 -0.163103,0.212479 -0.25,0.3125 -0.02877,0.03378 -0.06387,0.06095 -0.09375,0.09375 -0.140087,0.150316 -0.273706,0.278559 -0.4375,0.40625 -0.0064,0.0052 -0.02478,-0.0052 -0.03125,0 -0.395702,0.304229 -0.862956,0.548545 -1.375,0.6875 l -0.03125,0.03125 C 65.003191,33.341413 62.872664,32.090559 62.3125,30 c -0.560163,-2.090559 0.659441,-4.252336 2.75,-4.8125 0.26132,-0.07002 0.5207,-0.109758 0.78125,-0.125 z"
       inkscape:connector-curvature="0"
       id="path3919"
       style="opacity:0.3;fill:#000000;fill-opacity:1;stroke:none" />
    <path
       d="M 49.8125,36.1875 21.999999,64 l 0,8 L 30,72 l 2,-2 0,-3 3,0 0,0 0,-3 3,0 2,-2 0,-3 3,0 2,-2 0,-3 3,0 0,0 0,-3 3,0 6.8125,-6.8125 z"
       inkscape:connector-curvature="0"
       id="path3666"
       style="fill:url(#linearGradient3131-1);fill-opacity:1;stroke:none" />
    <path
       d="M 49.8125,36.1875 21.999999,64 l 0,1 L 50.21875,36.78125 C 50.092533,36.574459 49.928827,36.40072 49.8125,36.1875 z"
       inkscape:connector-curvature="0"
       id="path3772"
       style="opacity:0.6;fill:#ffffff;stroke:none" />
    <path
       d="M 50.59375,39.40625 21.999999,68 l 0,3 L 52.375,41.5625 c -0.656026,-0.659879 -1.256357,-1.384144 -1.78125,-2.15625 z"
       inkscape:connector-curvature="0"
       id="path3788"
       style="fill:url(#linearGradient3127-9);fill-opacity:1;stroke:none" />
    <path
       d="M 54.4375,41.5625 31,65 32,66 55.59375,42.40625 c -0.386155,-0.262516 -0.765771,-0.547288 -1.125,-0.84375 -0.0059,-0.0049 -0.02531,0.0049 -0.03125,0 z M 31,65 l -7.000001,7 2,0 L 31,67 z"
       inkscape:connector-curvature="0"
       id="path3798"
       style="opacity:0.49590167;fill:url(#linearGradient3123-0);fill-opacity:1;stroke:none" />
    <path
       d="m 21.999999,32 0,1 L 62,73 l 8,0 0,-1 -8,0 -40.000001,-40 z"
       inkscape:connector-curvature="0"
       id="path4068"
       style="opacity:0.08999999;fill:#ffffff;fill-opacity:1;stroke:none" />
    <path
       d="M 56.8125,43.1875 50,50 l -3,0 0,3 -3,0 0,3 -2,2 -3,0 0,3 -2,2 -3,0 0,3 -3,0 0,3 -2,2 -7.000001,0 0,1 L 30,72 l 2,-2 0,-3 3,0 0,-3 3,0 2,-2 0,-3 3,0 2,-2 0,-3 3,0 0,-3 3,0 6.8125,-6.8125 -1,-1 z"
       inkscape:connector-curvature="0"
       id="path3910"
       style="opacity:0.15;fill:#000000;fill-opacity:1;stroke:none" />
    <path
       d="M 57.3125,43.6875 51,50 l -3,0 0,1 3,0 6.8125,-6.8125 -0.5,-0.5 z M 45,53 l 0,1 3,0 0,-1 -3,0 z m 0,3 -2,2 -3,0 0,1 3,0 2,-2 0,-1 z m -5,5 -2,2 -3,0 0,1 3,0 2,-2 0,-1 z m -8,5 0,1 3,0 0,-1 -3,0 z m 0,3 -2,2 -8.000001,0 0,1 L 30,72 l 2,-2 0,-1 z"
       inkscape:connector-curvature="0"
       id="path3133"
       style="opacity:0.2;fill:#000000;fill-opacity:1;stroke:none" />
    <g
       transform="translate(-2,4e-7)"
       id="g3151">
      <path
         d="m 65,16 c -8.284271,0 -15,6.715729 -15,15 0,0.366324 0.0054,0.733786 0.03125,1.09375 0.01985,0.276007 0.05915,0.540732 0.09375,0.8125 0.03986,0.313102 0.09741,0.630645 0.15625,0.9375 0.01989,0.103824 0.04048,0.209448 0.0625,0.3125 0.09499,0.444512 0.21033,0.88354 0.34375,1.3125 0.14609,0.469695 0.31024,0.926356 0.5,1.375 0.07024,0.16584 0.142806,0.337317 0.21875,0.5 0.128389,0.274959 0.26198,0.546923 0.40625,0.8125 0.0043,0.0079 -0.0043,0.02335 0,0.03125 1.381336,2.531913 3.468087,4.618664 6,6 0.0079,0.0043 0.02334,-0.0043 0.03125,0 0.265675,0.144323 0.537262,0.277763 0.8125,0.40625 0.165138,0.07711 0.331655,0.147546 0.5,0.21875 0.448644,0.18976 0.905305,0.35391 1.375,0.5 0.42896,0.13342 0.867988,0.248759 1.3125,0.34375 0.04221,0.009 0.08266,0.02259 0.125,0.03125 0.368192,0.07552 0.747636,0.139459 1.125,0.1875 0.271768,0.0346 0.536493,0.0739 0.8125,0.09375 C 64.269196,45.995035 64.630351,46 65,46 c 8.284271,0 15,-6.715729 15,-15 0,-0.0211 8.7e-5,-0.04142 0,-0.0625 -1.34e-4,-0.04201 4.79e-4,-0.08307 0,-0.125 -0.01017,-0.891038 -0.122231,-1.7469 -0.28125,-2.59375 -0.01711,-0.09128 -0.0125,-0.190556 -0.03125,-0.28125 -0.09899,-0.47683 -0.231893,-0.947293 -0.375,-1.40625 -0.0029,-0.0094 0.003,-0.02183 0,-0.03125 -0.14404,-0.458692 -0.314219,-0.905323 -0.5,-1.34375 -0.0037,-0.0087 0.0037,-0.02255 0,-0.03125 -0.186738,-0.438285 -0.398871,-0.865643 -0.625,-1.28125 -0.0043,-0.0079 0.0043,-0.02335 0,-0.03125 -0.288944,-0.528684 -0.651594,-1.012482 -1,-1.5 -0.207084,-0.289676 -0.398323,-0.601188 -0.625,-0.875 C 76.261658,21.074726 75.926982,20.738985 75.59375,20.40625 74.915133,19.727633 74.173005,19.101622 73.375,18.5625 72.78666,18.166713 72.143546,17.810633 71.5,17.5 71.269446,17.388907 71.049424,17.255712 70.8125,17.15625 70.376851,16.972753 69.924227,16.829929 69.46875,16.6875 68.999055,16.54141 68.519482,16.412407 68.03125,16.3125 67.054786,16.112687 66.035534,16 65,16 z m 3,8 c 2.204156,0 3.992967,1.795855 4,4 0,2.209139 -1.790861,4 -4,4 -2.209139,0 -4,-1.790861 -4,-4 0,-2.209139 1.790861,-4 4,-4 z"
         inkscape:connector-curvature="0"
         id="path3141"
         style="fill:url(#linearGradient3149-4);fill-opacity:1;stroke:none" />
      <path
         d="m 65,16 c -8.284271,0 -15,6.715729 -15,15 0,8.284271 6.715729,15 15,15 8.284271,0 15,-6.715729 15,-15 l 0,-0.0625 C 79.973625,22.671957 73.265586,16 65,16 z m 3,8.03125 c 2.204169,0 3.992967,1.782132 4,3.96875 0,2.191572 -1.790849,3.96875 -4,3.96875 -2.209151,0 -4,-1.777178 -4,-3.96875 0,-2.191572 1.790849,-3.96875 4,-3.96875 z"
         inkscape:connector-curvature="0"
         id="path3759"
         style="opacity:0.4;color:#000000;fill:url(#radialGradient3827-9);fill-opacity:1;fill-rule:nonzero;stroke:none;stroke-width:1;marker:none;visibility:visible;display:inline;overflow:visible;enable-background:accumulate" />
      <path
         d="m 65,16 c -8.284292,0 -15,6.715708 -15,15 0,4.269326 1.793515,8.1121 4.65625,10.84375 C 52.087347,39.151572 50.5,35.514966 50.5,31.5 c 0,-8.284292 6.715708,-15 15,-15 4.00591,0 7.652855,1.565283 10.34375,4.125 C 73.112751,17.772329 69.259696,16 65,16 z"
         inkscape:connector-curvature="0"
         id="path3722"
         style="opacity:0.8;color:#000000;fill:#ffffff;fill-opacity:1;fill-rule:nonzero;stroke:none;stroke-width:1;marker:none;visibility:visible;display:inline;overflow:visible;enable-background:accumulate" />
      <path
         d="m 65,44 c -7.179723,0 -13,-5.820277 -13,-13 0,-7.179723 5.820277,-13 13,-13 7.179723,0 13,5.820277 13,13 l 0,0.03125 C 77.977142,38.194743 72.163529,44 65,44 z m 0,-1 c 6.612447,0 11.9789,-5.356337 12,-11.96875 L 77,31 c 0,-6.627395 -5.372605,-12 -12,-12 -6.627395,0 -12,5.372605 -12,12 0,6.627395 5.372605,12 12,12 z"
         inkscape:connector-curvature="0"
         id="path3726"
         style="opacity:0.6;color:#000000;fill:url(#linearGradient3742-4);fill-opacity:1;fill-rule:nonzero;stroke:none;stroke-width:1;marker:none;visibility:visible;display:inline;overflow:visible;enable-background:accumulate" />
      <path
         d="m 61.151788,45.534131 c 8.002012,2.144133 16.227041,-2.60459 18.371174,-10.606601 1.104982,-4.123853 0.367163,-8.299883 -1.691024,-11.679385 1.784583,3.265326 2.37662,7.188853 1.33747,11.067012 -2.144132,8.002012 -10.369161,12.750734 -18.371173,10.606602 -3.869412,-1.036806 -6.986965,-3.492652 -8.923667,-6.661604 1.899617,3.462304 5.16267,6.171486 9.27722,7.273976 z"
         inkscape:connector-curvature="0"
         id="path3734"
         style="opacity:0.3;color:#000000;fill:#000000;fill-opacity:1;fill-rule:nonzero;stroke:none;stroke-width:1;marker:none;visibility:visible;display:inline;overflow:visible;enable-background:accumulate" />
      <path
         d="m 73.013935,26.68164 c -0.72801,-2.716967 -3.521577,-4.329834 -6.238545,-3.601825 -2.716967,0.72801 -4.329834,3.521577 -3.601825,6.238545 0.72801,2.716967 3.521577,4.329834 6.238545,3.601825 l 0.03019,-0.0081 c 2.708507,-0.735014 4.298007,-3.519617 3.57164,-6.230457 z m -1.116852,0.29926 c 0.5589,2.085844 -0.678086,4.218606 -2.762136,4.78416 l -0.03019,0.0081 c -2.090559,0.560163 -4.223996,-0.671577 -4.78416,-2.762136 -0.560163,-2.090559 0.663489,-4.254181 2.754048,-4.814345 2.090559,-0.560164 4.262269,0.693674 4.822433,2.784233 z"
         inkscape:connector-curvature="0"
         id="path3744"
         style="opacity:0.8;color:#000000;fill:url(#linearGradient3755-6);fill-opacity:1;fill-rule:nonzero;stroke:none;stroke-width:1;marker:none;visibility:visible;display:inline;overflow:visible;enable-background:accumulate" />
    </g>
  </g>
</svg>
