<?xml version="1.0" encoding="UTF-8" standalone="no"?>
<!-- Created with Inkscape (http://www.inkscape.org/) -->

<svg
   xmlns:dc="http://purl.org/dc/elements/1.1/"
   xmlns:cc="http://creativecommons.org/ns#"
   xmlns:rdf="http://www.w3.org/1999/02/22-rdf-syntax-ns#"
   xmlns:svg="http://www.w3.org/2000/svg"
   xmlns="http://www.w3.org/2000/svg"
   xmlns:xlink="http://www.w3.org/1999/xlink"
   xmlns:inkscape="http://www.inkscape.org/namespaces/inkscape"
   version="1.0"
   width="96"
   height="96"
   id="svg2408"
   style="display:inline">
  <defs
     id="defs2410">
    <linearGradient
       id="linearGradient3914">
      <stop
         id="stop3916"
         style="stop-color:#000000;stop-opacity:1"
         offset="0" />
      <stop
         id="stop3918"
         style="stop-color:#000000;stop-opacity:0"
         offset="1" />
    </linearGradient>
    <linearGradient
       id="linearGradient3873">
      <stop
         id="stop3875"
         style="stop-color:#dfdfdf;stop-opacity:1"
         offset="0" />
      <stop
         id="stop3877"
         style="stop-color:#fefefe;stop-opacity:1"
         offset="1" />
    </linearGradient>
    <linearGradient
       id="linearGradient3856">
      <stop
         id="stop3858"
         style="stop-color:#b3b3b3;stop-opacity:1"
         offset="0" />
      <stop
         id="stop3860"
         style="stop-color:#e6e6e6;stop-opacity:1"
         offset="1" />
    </linearGradient>
    <linearGradient
       x1="45.447727"
       y1="92.539597"
       x2="45.447727"
       y2="7.0165396"
       id="ButtonShadow"
       gradientUnits="userSpaceOnUse"
       gradientTransform="scale(1.0058652,0.994169)">
      <stop
         id="stop3750"
         style="stop-color:#000000;stop-opacity:1"
         offset="0" />
      <stop
         id="stop3752"
         style="stop-color:#000000;stop-opacity:0.58823532"
         offset="1" />
    </linearGradient>
    <linearGradient
       id="linearGradient3737">
      <stop
         id="stop3739"
         style="stop-color:#ffffff;stop-opacity:1"
         offset="0" />
      <stop
         id="stop3741"
         style="stop-color:#ffffff;stop-opacity:0"
         offset="1" />
    </linearGradient>
    <linearGradient
       id="linearGradient3700">
      <stop
         id="stop3702"
         style="stop-color:#2276c5;stop-opacity:1"
         offset="0" />
      <stop
         id="stop3704"
         style="stop-color:#68baf4;stop-opacity:1"
         offset="1" />
    </linearGradient>
    <filter
       color-interpolation-filters="sRGB"
       id="filter3174">
      <feGaussianBlur
         id="feGaussianBlur3176"
         stdDeviation="1.71" />
    </filter>
    <filter
       x="-0.192"
       y="-0.192"
       width="1.3839999"
       height="1.3839999"
       color-interpolation-filters="sRGB"
       id="filter3794">
      <feGaussianBlur
         id="feGaussianBlur3796"
         stdDeviation="5.28" />
    </filter>
    <linearGradient
       x1="48"
       y1="20.220806"
       x2="48"
       y2="138.66119"
       id="linearGradient3613"
       xlink:href="#linearGradient3737"
       gradientUnits="userSpaceOnUse" />
    <clipPath
       id="clipPath3613">
      <rect
         width="84"
         height="84"
         rx="6"
         ry="6"
         x="6"
         y="6"
         id="rect3615"
         style="fill:#ffffff;fill-opacity:1;fill-rule:nonzero;stroke:none" />
    </clipPath>
    <linearGradient
       x1="48"
       y1="90"
       x2="48"
       y2="5.9877172"
       id="linearGradient3047"
       xlink:href="#linearGradient3700"
       gradientUnits="userSpaceOnUse"
       gradientTransform="translate(100,0)" />
    <radialGradient
       cx="47.999981"
       cy="47.999424"
       r="34.937546"
       fx="47.999981"
       fy="47.999424"
       id="radialGradient3920"
       xlink:href="#linearGradient3914"
       gradientUnits="userSpaceOnUse"
       gradientTransform="matrix(1.3452582,-3.8835319e-8,3.3050848e-8,1.1448837,-16.572388,-6.9543292)" />
    <linearGradient
       id="linearGradient10292">
      <stop
         id="stop10294"
         style="stop-color:#666666;stop-opacity:1"
         offset="0" />
      <stop
         id="stop10296"
         style="stop-color:#333333;stop-opacity:1"
         offset="1" />
    </linearGradient>
    <linearGradient
       x1="121.30617"
       y1="976.37823"
       x2="121.30617"
       y2="992.4245"
       id="linearGradient4320"
       xlink:href="#linearGradient10292"
       gradientUnits="userSpaceOnUse"
       gradientTransform="matrix(4.4806049,0,0,4.4787412,-651.59679,-4376.6526)" />
    <linearGradient
       x1="48"
       y1="74"
       x2="48"
       y2="16"
       id="linearGradient3135"
       xlink:href="#linearGradient3873"
       gradientUnits="userSpaceOnUse" />
    <linearGradient
       x1="32"
       y1="81"
       x2="32"
       y2="8"
       id="linearGradient3141"
       xlink:href="#linearGradient3856"
       gradientUnits="userSpaceOnUse" />
    <linearGradient
       id="linearGradient3892">
      <stop
         id="stop3894"
         style="stop-color:#000000;stop-opacity:0.58823532"
         offset="0" />
      <stop
         id="stop3896"
         style="stop-color:#000000;stop-opacity:0.47058824"
         offset="0.11780351" />
      <stop
         id="stop3898"
         style="stop-color:#000000;stop-opacity:0.39215687"
         offset="0.23809524" />
      <stop
         id="stop3900"
         style="stop-color:#000000;stop-opacity:0.3137255"
         offset="1" />
    </linearGradient>
    <linearGradient
       x1="90"
       y1="88"
       x2="48"
       y2="88"
       id="linearGradient3077"
       xlink:href="#linearGradient3892"
       gradientUnits="userSpaceOnUse"
       spreadMethod="reflect" />
    <linearGradient
       x1="39"
       y1="6"
       x2="39"
       y2="90"
       id="linearGradient4068"
       xlink:href="#linearGradient4110"
       gradientUnits="userSpaceOnUse"
       gradientTransform="translate(0,4)" />
    <linearGradient
       x1="90"
       y1="28"
       x2="79"
       y2="28"
       id="linearGradient4085"
       xlink:href="#linearGradient3892"
       gradientUnits="userSpaceOnUse"
       gradientTransform="translate(0,4)" />
    <linearGradient
       x1="24"
       y1="8"
       x2="24"
       y2="136"
       id="linearGradient4149"
       xlink:href="#linearGradient3737"
       gradientUnits="userSpaceOnUse" />
    <linearGradient
       x1="45.447727"
       y1="92.539597"
       x2="45.447727"
       y2="7.0165396"
       id="ButtonShadow-0-9"
       gradientUnits="userSpaceOnUse"
       gradientTransform="matrix(1.0058652,0,0,0.994169,100,0)">
      <stop
         id="stop3750-8-4"
         style="stop-color:#000000;stop-opacity:1"
         offset="0" />
      <stop
         id="stop3752-5-1"
         style="stop-color:#000000;stop-opacity:0.58823532"
         offset="1" />
    </linearGradient>
    <linearGradient
       x1="49"
       y1="91"
       x2="49"
       y2="7"
       id="linearGradient4188"
       xlink:href="#ButtonShadow-0-9"
       gradientUnits="userSpaceOnUse"
       gradientTransform="translate(100,-1)" />
    <linearGradient
       x1="78.523811"
       y1="9"
       x2="78.523811"
       y2="129"
       id="linearGradient4224"
       xlink:href="#linearGradient3737"
       gradientUnits="userSpaceOnUse"
       gradientTransform="translate(0,-1)" />
    <linearGradient
       x1="56"
       y1="86"
       x2="56"
       y2="2"
       id="linearGradient4316"
       xlink:href="#ButtonShadow-0-9"
       gradientUnits="userSpaceOnUse"
       gradientTransform="translate(0,5)" />
    <linearGradient
       x1="56"
       y1="86"
       x2="56"
       y2="2"
       id="linearGradient4321"
       xlink:href="#ButtonShadow-0-9"
       gradientUnits="userSpaceOnUse"
       gradientTransform="matrix(1.0237656,0,0,1.0119048,-1.1425939,4.9761905)" />
    <linearGradient
       x1="56"
       y1="86"
       x2="56"
       y2="2"
       id="linearGradient4332"
       xlink:href="#ButtonShadow-0-9"
       gradientUnits="userSpaceOnUse"
       gradientTransform="matrix(1.0237656,0,0,1.0119048,-1.1425939,4.9761905)" />
    <linearGradient
       x1="56"
       y1="86"
       x2="56"
       y2="2"
       id="linearGradient4346"
       xlink:href="#ButtonShadow-0-9"
       gradientUnits="userSpaceOnUse"
       gradientTransform="matrix(1.0237656,0,0,1.0119048,-1.1425939,4.9761905)" />
    <linearGradient
       x1="56"
       y1="86"
       x2="56"
       y2="2"
       id="linearGradient4354"
       xlink:href="#ButtonShadow-0-9"
       gradientUnits="userSpaceOnUse"
       gradientTransform="matrix(1.0237656,0,0,1.0119048,-1.1425939,4.9761905)" />
    <linearGradient
       x1="34"
       y1="50.26075"
       x2="62"
       y2="50.26075"
       id="linearGradient4522"
       xlink:href="#linearGradient4508"
       gradientUnits="userSpaceOnUse"
       gradientTransform="translate(0,10)" />
    <linearGradient
       id="linearGradient4508">
      <stop
         id="stop4510"
         style="stop-color:#ffffff;stop-opacity:1"
         offset="0" />
      <stop
         id="stop4512"
         style="stop-color:#ffffff;stop-opacity:0"
         offset="1" />
    </linearGradient>
    <linearGradient
       x1="34"
       y1="50.26075"
       x2="62"
       y2="50.26075"
       id="linearGradient4518"
       xlink:href="#linearGradient4508"
       gradientUnits="userSpaceOnUse"
       gradientTransform="translate(0,4)" />
    <linearGradient
       x1="34"
       y1="50.26075"
       x2="62"
       y2="50.26075"
       id="linearGradient4514"
       xlink:href="#linearGradient4508"
       gradientUnits="userSpaceOnUse"
       gradientTransform="translate(0,-2)" />
    <linearGradient
       x1="1510.4767"
       y1="169.00002"
       x2="1485.8766"
       y2="193.9996"
       id="linearGradient4488"
       xlink:href="#linearGradient8984"
       gradientUnits="userSpaceOnUse"
       gradientTransform="matrix(0.39211044,0,0,0.30769216,-538.81119,-11.308493)" />
    <linearGradient
       id="linearGradient8984">
      <stop
         id="stop8986"
         style="stop-color:#ffffff;stop-opacity:1"
         offset="0" />
      <stop
         id="stop8988"
         style="stop-color:#ffffff;stop-opacity:0"
         offset="1" />
    </linearGradient>
    <linearGradient
       x1="1559.5"
       y1="184"
       x2="1542.0002"
       y2="184"
       id="linearGradient4328"
       xlink:href="#linearGradient8742"
       gradientUnits="userSpaceOnUse"
       gradientTransform="matrix(-0.53333333,0,0,4.25,858.93333,-954.25935)" />
    <linearGradient
       id="linearGradient8742">
      <stop
         id="stop8744"
         style="stop-color:#9200ff;stop-opacity:1"
         offset="0" />
      <stop
         id="stop8746"
         style="stop-color:#ff00ff;stop-opacity:0"
         offset="1" />
    </linearGradient>
    <linearGradient
       x1="453.50003"
       y1="970.5"
       x2="404.49997"
       y2="970.5"
       id="linearGradient4448"
       xlink:href="#linearGradient8964"
       gradientUnits="userSpaceOnUse"
       gradientTransform="matrix(0.59554669,0,0,0.59554669,-207.49419,-526.27124)" />
    <linearGradient
       id="linearGradient8964">
      <stop
         id="stop8966"
         style="stop-color:#e196fb;stop-opacity:1"
         offset="0" />
      <stop
         id="stop8968"
         style="stop-color:#f4c7fa;stop-opacity:1"
         offset="0.13010512" />
      <stop
         id="stop8970"
         style="stop-color:#e091f3;stop-opacity:1"
         offset="0.31360075" />
      <stop
         id="stop8972"
         style="stop-color:#d764e9;stop-opacity:1"
         offset="0.44078669" />
      <stop
         id="stop8974"
         style="stop-color:#e7adf0;stop-opacity:1"
         offset="0.68364757" />
      <stop
         id="stop8976"
         style="stop-color:#e6a9f8;stop-opacity:1"
         offset="0.75620717" />
      <stop
         id="stop8978"
         style="stop-color:#e595f2;stop-opacity:1"
         offset="0.88021636" />
      <stop
         id="stop8980"
         style="stop-color:#f2cbf8;stop-opacity:1"
         offset="1" />
    </linearGradient>
    <linearGradient
       x1="453.50003"
       y1="970.5"
       x2="404.49997"
       y2="970.5"
       id="linearGradient4460"
       xlink:href="#linearGradient8964"
       gradientUnits="userSpaceOnUse"
       gradientTransform="matrix(0.59554669,0,0,0.59554669,-207.49419,-526.91132)" />
    <linearGradient
       x1="453.50003"
       y1="970.5"
       x2="404.49997"
       y2="970.5"
       id="linearGradient4462"
       xlink:href="#linearGradient8964"
       gradientUnits="userSpaceOnUse"
       gradientTransform="matrix(0.59554669,0,0,0.59554669,-207.49419,-527.5514)" />
    <radialGradient
       cx="47.995335"
       cy="46.440277"
       r="13.995334"
       fx="47.995335"
       fy="46.440277"
       id="radialGradient4484"
       xlink:href="#linearGradient14494"
       gradientUnits="userSpaceOnUse"
       gradientTransform="matrix(1,0,0,0.25495832,0,32.599943)" />
    <linearGradient
       id="linearGradient14494">
      <stop
         id="stop14496"
         style="stop-color:#dc85e9;stop-opacity:1"
         offset="0" />
      <stop
         id="stop14498"
         style="stop-color:#f2cbf8;stop-opacity:1"
         offset="1" />
    </linearGradient>
    <linearGradient
       x1="453.50003"
       y1="970.5"
       x2="404.49997"
       y2="970.5"
       id="linearGradient4482"
       xlink:href="#linearGradient8663"
       gradientUnits="userSpaceOnUse"
       gradientTransform="matrix(0.59554669,0,0,0.59554669,-207.49419,-526.17287)" />
    <linearGradient
       id="linearGradient8663">
      <stop
         id="stop8665"
         style="stop-color:#9207a7;stop-opacity:1"
         offset="0" />
      <stop
         id="stop8667"
         style="stop-color:#c658bc;stop-opacity:1"
         offset="0.27254906" />
      <stop
         id="stop8669"
         style="stop-color:#a42eb6;stop-opacity:1"
         offset="0.50966245" />
      <stop
         id="stop8671"
         style="stop-color:#b415cd;stop-opacity:1"
         offset="0.83376038" />
      <stop
         id="stop8673"
         style="stop-color:#950ba8;stop-opacity:1"
         offset="1" />
    </linearGradient>
    <linearGradient
       x1="1559.5"
       y1="184"
       x2="1542.0002"
       y2="184"
       id="linearGradient4323"
       xlink:href="#linearGradient8742"
       gradientUnits="userSpaceOnUse"
       gradientTransform="matrix(0.53333333,0,0,4.25,-762.93333,-954.25935)" />
    <radialGradient
       cx="152.3331"
       cy="-754.6377"
       r="15"
       fx="152.3331"
       fy="-754.6377"
       id="radialGradient4155"
       xlink:href="#linearGradient8717"
       gradientUnits="userSpaceOnUse"
       gradientTransform="matrix(1.2696438e-6,0.47379733,-1.3366718,0,-960.75315,-9.278409)" />
    <linearGradient
       id="linearGradient8717">
      <stop
         id="stop8719"
         style="stop-color:#800080;stop-opacity:1"
         offset="0" />
      <stop
         id="stop8723"
         style="stop-color:#800080;stop-opacity:1"
         offset="0.7268371" />
      <stop
         id="stop8721"
         style="stop-color:#ff00ff;stop-opacity:0"
         offset="1" />
    </linearGradient>
    <linearGradient
       id="linearGradient8754">
      <stop
         id="stop8756"
         style="stop-color:#dc85e9;stop-opacity:1"
         offset="0" />
      <stop
         id="stop8758"
         style="stop-color:#f8dcfb;stop-opacity:1"
         offset="1" />
    </linearGradient>
    <linearGradient
       x1="1199.2002"
       y1="-1083.6361"
       x2="1199.2002"
       y2="-1131.6356"
       id="linearGradient3403"
       xlink:href="#linearGradient8754"
       gradientUnits="userSpaceOnUse"
       gradientTransform="matrix(0.85714285,0,0,0.66667325,-990.2858,792.43123)" />
    <linearGradient
       id="linearGradient4110">
      <stop
         id="stop4112"
         style="stop-color:#a240b0;stop-opacity:1"
         offset="0" />
      <stop
         id="stop4114"
         style="stop-color:#70247c;stop-opacity:1"
         offset="1" />
    </linearGradient>
  </defs>
  <metadata
     id="metadata2413">
    <rdf:RDF>
      <cc:Work
         rdf:about="">
        <dc:format>image/svg+xml</dc:format>
        <dc:type
           rdf:resource="http://purl.org/dc/dcmitype/StillImage" />
        <dc:title />
      </cc:Work>
    </rdf:RDF>
  </metadata>
  <g
     id="layer2"
     style="display:none">
    <rect
       width="86"
       height="85"
       rx="6"
       ry="6"
       x="5"
       y="7"
       id="rect3745"
       style="opacity:0.9;fill:url(#ButtonShadow);fill-opacity:1;fill-rule:nonzero;stroke:none;filter:url(#filter3174)" />
  </g>
  <g
     id="layer3"
     style="display:inline">
    <path
       d="m 53.3125,4.03125 c -1.660944,0.029867 -3.310484,0.1096277 -4.875,0.03125 a 0.91518541,0.91518541 0 0 0 -0.03125,0 l -36.59375,0 c -6.0093322,-0.072138 -10.4543524,5.7368793 -9.75,11.46875 5.52e-5,0.04167 -5.46e-5,0.08333 0,0.125 0.030657,23.42145 -0.046636,46.822795 0.0625,70.25 a 0.91518541,0.91518541 0 0 0 0,0.0625 c 0.4308375,5.815091 6.1647924,9.641692 11.65625,8.96875 0.04176,-0.0051 0.08327,0.0056 0.125,0 23.664871,-0.02956 47.328173,0.07409 71,-0.03125 a 0.91518541,0.91518541 0 0 0 0.0625,0 c 5.748886,-0.407646 9.581227,-6.059657 8.96875,-11.5 -0.0047,-0.04165 0.0052,-0.08338 0,-0.125 -0.02028,-14.237769 0.04011,-28.476387 -0.03125,-42.71875 -3.13e-4,-0.06251 3.18e-4,-0.124988 0,-0.1875 l -0.03125,0 C 93.942792,39.696844 93.776391,39.056347 93.5,38.59375 93.194768,38.082881 92.809718,37.682 92.5625,37.375 c -0.190852,-0.237004 -0.197244,-0.299519 -0.21875,-0.3125 0.04226,-0.03439 0.0477,-0.05486 0.1875,-0.125 A 0.91518541,0.91518541 0 0 0 92.8125,36.71875 C 93.815408,35.551854 94.00466,34.123547 94,32.84375 93.99534,31.563953 93.834585,30.352561 93.9375,29.375 a 0.91518541,0.91518541 0 0 0 0,-0.125 C 93.836181,23.601521 94.155167,17.875813 93.75,12.125 a 0.91518541,0.91518541 0 0 0 0,-0.09375 C 92.792897,6.6454701 87.321281,3.4653203 82.1875,4.0625 c -0.03114,0.00362 -0.06264,-0.0039 -0.09375,0 C 77.096467,4.1468843 72.020841,3.8843871 66.9375,4.1875 A 0.91518541,0.91518541 0 0 0 66.75,4.21875 C 64.712512,4.7598597 63.643851,6.6264975 63.59375,8.5625 63.32257,8.2936714 63.107409,8.1243921 62.75,7.71875 c -0.602373,-0.6836646 -1.275415,-1.4702387 -2,-2.125 -0.692056,-0.6253671 -1.427186,-1.168068 -2.375,-1.25 l 0,-0.03125 c -0.04196,-0.0078 -0.08305,0.00743 -0.125,0 C 56.587821,4.0179132 54.928765,4.0021867 53.3125,4.03125 z"
       id="path4352"
       style="opacity:0.07999998;fill:url(#linearGradient4354);fill-opacity:1;fill-rule:nonzero;stroke:none;display:inline" />
    <path
       d="M 11.8125,4.96875 C 6.3709192,4.903427 2.2580353,10.299049 2.96875,15.519967 2.999852,38.985986 2.906348,62.455183 3.015656,85.919208 3.4067072,91.197296 8.7457168,94.710806 13.773295,94.03125 37.483284,94.00116 61.196284,94.09149 84.904387,93.98599 90.116805,93.616384 93.654476,88.390499 93.03125,83.414201 93.010333,69.068747 93.073036,54.715779 93,40.375 c 0.374162,-1.946174 -3.121054,-3.123182 -0.875,-4.25 1.607435,-1.87027 0.666451,-4.572628 0.90625,-6.850406 C 92.92913,23.581441 93.246496,17.861385 92.846726,12.187179 91.979853,7.3091399 86.936526,4.3782215 82.226705,4.96875 77.156712,5.0587719 72.046216,4.7928508 67,5.09375 65.072523,5.6056433 64.131185,7.7034306 64.53125,9.5691557 63.996715,11.967497 60.607626,5.3159308 58.208775,5.2296145 55.010515,4.6347981 51.67182,5.1317518 48.418103,4.96875 c -12.201868,0 -24.403735,0 -36.605603,0 z"
       inkscape:connector-curvature="0"
       id="path4338"
       style="opacity:0.1;fill:url(#linearGradient4346);fill-opacity:1;fill-rule:nonzero;stroke:none;display:inline" />
    <path
       d="M 11.84375,5.96875 C 7.4843095,6.044916 3.96875,9.6240823 3.96875,14 l 0,10.1875 0,50.625 0,10.1875 c 0,4.423744 3.607506,8.03125 8.03125,8.03125 l 6.3125,0 65.6875,0 c 4.35197,0 7.917827,-3.48523 8.03125,-7.8125 a 1.0169475,1.0169475 0 0 0 0,-0.03125 l 0,-10.375 0,-33.96875 -0.03125,0 c 0.0039,-0.108903 0.0056,-0.234982 0,-0.34375 a 1.0169475,1.0169475 0 0 0 0,-0.03125 c -0.09472,-0.89596 -0.48688,-1.722945 -1.125,-2.34375 -0.606226,-0.60129 -1.316296,-1.321757 -1.9375,-1.9375 0.04109,0.01058 0.08851,0.0301 0.09375,0.03125 0.0102,0.0022 0.14589,0.02973 0.15625,0.03125 0.01036,0.0015 0.177044,0.03047 0.1875,0.03125 0.01046,7.78e-4 0.177009,-3.5e-5 0.1875,0 0.01049,3.5e-5 0.145788,7.09e-4 0.15625,0 0.01046,-7.09e-4 0.177128,-0.0298 0.1875,-0.03125 0.01037,-0.0014 0.14603,-0.02908 0.15625,-0.03125 0.01022,-0.0022 0.177492,-0.02837 0.1875,-0.03125 0.01001,-0.0029 0.14651,-0.05893 0.15625,-0.0625 0.0097,-0.0036 0.146834,-0.05826 0.15625,-0.0625 0.0094,-0.0042 0.147208,-0.05763 0.15625,-0.0625 0.009,-0.0049 0.14763,-0.08828 0.15625,-0.09375 0.0086,-0.0055 0.148095,-0.08771 0.15625,-0.09375 0.0082,-0.006 0.117349,-0.118439 0.125,-0.125 0.0077,-0.0066 0.149138,-0.117956 0.15625,-0.125 0.0071,-0.007 0.08721,-0.117516 0.09375,-0.125 0.0065,-0.0075 0.119053,-0.117119 0.125,-0.125 0.0059,-0.0079 0.08842,-0.148016 0.09375,-0.15625 0.0053,-0.0082 0.08906,-0.147707 0.09375,-0.15625 0.0047,-0.0085 0.08971,-0.147441 0.09375,-0.15625 0.004,-0.0088 0.05913,-0.147218 0.0625,-0.15625 0.0034,-0.009 0.0598,-0.147038 0.0625,-0.15625 0.0027,-0.0092 0.02923,-0.178149 0.03125,-0.1875 0.002,-0.0094 0.02992,-0.146801 0.03125,-0.15625 0.0013,-0.0094 -6.4e-4,-0.177994 0,-0.1875 a 1.0169475,1.0169475 0 0 0 0.03125,-0.03125 c 2.32e-4,-0.007 1.39e-4,-0.08342 0,-0.125 l 0,-0.03125 0,-3.75 0,-0.03125 c 1.72e-4,-0.03085 8.6e-5,-0.04788 0,-0.09375 1.16e-4,-0.0035 -2.3e-5,-0.03305 0,-0.0625 2.3e-5,-0.02945 7e-5,-0.04171 0,-0.0625 l 0,-0.03125 0,-8.625 0,-3.75 0,-0.28125 0,-3.125 C 92.03125,9.576256 88.423744,5.96875 84,5.96875 l -16.21875,0 A 1.0169475,1.0169475 0 0 0 67.6875,6 c -0.0083,7.875e-4 -0.14804,-0.00125 -0.15625,0 -0.0082,0.00125 -0.116889,0.029542 -0.125,0.03125 -0.0081,0.00171 -0.117017,0.029093 -0.125,0.03125 -0.008,0.00216 -0.148424,0.028654 -0.15625,0.03125 -0.0078,0.0026 -0.117359,0.059477 -0.125,0.0625 -0.0076,0.00302 -0.11757,0.059064 -0.125,0.0625 -0.0074,0.00344 -0.117807,0.058665 -0.125,0.0625 -0.0072,0.00383 -0.118068,0.058284 -0.125,0.0625 -0.0069,0.00422 -0.0871,0.057921 -0.09375,0.0625 -0.0066,0.00458 -0.118654,0.088826 -0.125,0.09375 -0.0063,0.00492 -0.08773,0.088502 -0.09375,0.09375 -0.006,0.00525 -0.119315,0.088198 -0.125,0.09375 -0.0057,0.00555 -0.08842,0.087916 -0.09375,0.09375 -0.0053,0.00583 -0.08879,0.087655 -0.09375,0.09375 -0.005,0.0061 -0.08917,0.1186657 -0.09375,0.125 -0.0046,0.00633 -0.05831,0.1184485 -0.0625,0.125 -0.0042,0.00655 -0.05871,0.087003 -0.0625,0.09375 -0.0038,0.00675 -0.05912,0.1180795 -0.0625,0.125 -0.0034,0.00692 -0.05954,0.1179275 -0.0625,0.125 -0.003,0.00707 -0.05996,0.1490467 -0.0625,0.15625 -0.0025,0.0072 -0.02913,0.117687 -0.03125,0.125 -0.0021,0.00731 -0.02956,0.117598 -0.03125,0.125 -0.0017,0.0074 -0.02999,0.1487796 -0.03125,0.15625 -0.0013,0.00747 -0.03043,0.1174814 -0.03125,0.125 -8.24e-4,0.00752 3.9e-4,0.1174535 0,0.125 -3.9e-4,0.00755 -4.6e-5,0.1486955 0,0.15625 4.6e-5,0.00755 -4.81e-4,0.1174577 0,0.125 4.81e-4,0.00754 -9.15e-4,0.1487399 0,0.15625 9.15e-4,0.00751 0.0299,0.1175422 0.03125,0.125 5.7e-4,0.00316 0.02562,0.035701 0.03125,0.0625 0.0077,0.036544 -0.001,0.089489 0,0.09375 l 0,2.9375 c -0.0095,0.04404 -0.03031,0.08853 -0.03125,0.09375 -0.0016,0.0089 9.85e-4,0.178521 0,0.1875 -9.85e-4,0.009 -0.03088,0.147234 -0.03125,0.15625 -3.65e-4,0.009 -2.56e-4,0.147231 0,0.15625 2.56e-4,0.009 0.03037,0.178512 0.03125,0.1875 8.76e-4,0.009 -0.0015,0.147328 0,0.15625 0.0015,0.0089 0.02914,0.147428 0.03125,0.15625 C 63.533687,11.057417 61.375472,8.947494 59.5,7.09375 58.860386,6.453647 58.018182,6.0810752 57.125,6 A 1.0169475,1.0169475 0 0 0 57.03125,5.96875 l -45.15625,0 a 1.0169475,1.0169475 0 0 0 -0.03125,0 z"
       id="path4330"
       style="opacity:0.2;fill:url(#linearGradient4332);fill-opacity:1;fill-rule:nonzero;stroke:none;display:inline" />
    <path
       d="M 11.875,7 C 8.0555739,7.0667311 5,10.164073 5,14 L 5,24.1875 5,74.8125 5,85 c 0,3.878 3.122,7 7,7 L 18.3125,92 84,92 c 3.814891,0 6.900658,-3.022431 7,-6.8125 l 0,-10.375 0,-33.96875 C 91.0049,40.74896 91.0049,40.657284 91,40.5625 90.93224,39.921574 90.620902,39.295794 90.15625,38.84375 80.394131,29.161122 68.56037,17.478323 58.78125,7.8125 58.315916,7.3468104 57.690681,7.0598573 57.03125,7 L 11.875,7 z M 67.78125,7 A 1.4434152,1.4266924 0 0 0 66.5625,8.90625 l 0,3.125 a 1.4434152,1.4266924 0 0 0 0.34375,1.4375 l 21.625,21.375 A 1.4434152,1.4266924 0 0 0 91,33.9375 1.4434152,1.4266924 0 0 0 91,33.84375 l 0,-3.8125 a 1.4434152,1.4266924 0 0 0 0,-0.125 1.4434152,1.4266924 0 0 0 0,-0.09375 l 0,-8.65625 0,-3.75 L 91,17.125 91,14 C 91,10.122 87.878,7 84,7 L 67.78125,7 z"
       inkscape:connector-curvature="0"
       id="path4318"
       style="opacity:0.3;fill:url(#linearGradient4321);fill-opacity:1;fill-rule:nonzero;stroke:none;display:inline" />
    <path
       d="M 12,7 C 8.676,7 6,9.676 6,13 l 0,11 0,50 0,11 c 0,3.324 2.676,6 6,6 l 7,0 65,0 c 3.324,0 6,-2.676 6,-6 L 90,84.28125 90,74 90,40.4375 c 0.0048,-0.09367 0.0048,-0.187581 0,-0.28125 -0.06619,-0.633386 -0.358634,-1.240774 -0.8125,-1.6875 C 79.651999,28.900035 68.083358,17.364608 58.53125,7.8125 58.076718,7.3522891 57.456623,7.0591531 56.8125,7 L 12.71875,7 12,7 z M 67.3125,7 A 1.4099078,1.4099078 0 0 0 66.125,8.875 l 0,3.09375 a 1.4099078,1.4099078 0 0 0 0.34375,1.4375 l 21.125,21.125 A 1.4099078,1.4099078 0 0 0 90,33.625 1.4099078,1.4099078 0 0 0 90,33.53125 L 90,29.75 a 1.4099078,1.4099078 0 0 0 0,-0.125 1.4099078,1.4099078 0 0 0 0,-0.09375 L 90,21 90,17.28125 90,17 90,13.28125 90,13 C 90,9.676 87.324,7 84,7 L 67.3125,7 z"
       inkscape:connector-curvature="0"
       id="path3173-9"
       style="opacity:0.45;fill:url(#linearGradient4316);fill-opacity:1;fill-rule:nonzero;stroke:none;display:inline" />
  </g>
  <g
     id="layer1"
     style="display:inline">
    <path
       d="M 12,6 C 8.676,6 6,8.676 6,12 l 0,11 0,50 0,11 c 0,3.324 2.676,6 6,6 l 7,0 65,0 c 3.324,0 6,-2.676 6,-6 L 90,83.28125 90,73 90,39.4375 c 0.0048,-0.09367 0.0048,-0.187581 0,-0.28125 -0.06619,-0.633386 -0.358634,-1.240774 -0.8125,-1.6875 C 79.651999,27.900035 68.083358,16.364608 58.53125,6.8125 58.076718,6.3522891 57.456623,6.0591531 56.8125,6 L 12.71875,6 12,6 z M 67.3125,6 A 1.4099078,1.4099078 0 0 0 66.125,7.875 l 0,3.09375 a 1.4099078,1.4099078 0 0 0 0.34375,1.4375 l 21.125,21.125 A 1.4099078,1.4099078 0 0 0 90,32.625 1.4099078,1.4099078 0 0 0 90,32.53125 L 90,28.75 a 1.4099078,1.4099078 0 0 0 0,-0.125 1.4099078,1.4099078 0 0 0 0,-0.09375 L 90,20 90,16.28125 90,16 90,12.28125 90,12 C 90,8.676 87.324,6 84,6 L 67.3125,6 z"
       inkscape:connector-curvature="0"
       id="path3173"
       style="fill:url(#linearGradient4068);fill-opacity:1;fill-rule:nonzero;stroke:none" />
    <rect
       width="84"
       height="84"
       rx="6"
       ry="6"
       x="106"
       y="6"
       id="rect3045"
       style="fill:url(#linearGradient3047);fill-opacity:1;fill-rule:nonzero;stroke:none" />
    <path
       d="m 114,6 26,26 0,4 -30,-30 z"
       inkscape:connector-curvature="0"
       id="path3049"
       style="fill:#ff00ff;stroke:none" />
    <path
       d="m -152.02625,-3.741835 c -1.15757,0 -2.22285,1.023711 -2.22285,2.266604 l 0,67.201748 c 0,1.08285 1.01251,2.22285 2.17034,2.22285 l 53.7684,0 c 1.29579,0 2.31036,-1.08534 2.31036,-2.17034 L -96,24 c 0,-1.182972 -0.1434,-1.736346 -0.98015,-2.572902 l -23.89999,-23.882482 c -0.83684,-0.836446 -1.47695,-1.268027 -2.66041,-1.268948 l -28.4857,-0.0175 z m 38.88232,0.0087 c -1.91483,0 -2.00143,1.993315 -0.9889,3.01047 L -99.238,14.242173 C -98.023,15.46268 -96,15.169532 -96,13.244531 l 0,-14.684794 c 0,-1.183644 -1.07142,-2.292858 -2.2491,-2.292858 l -14.89483,0 z"
       inkscape:connector-curvature="0"
       id="path6862"
       style="font-size:medium;font-style:normal;font-variant:normal;font-weight:normal;font-stretch:normal;text-indent:0pt;text-align:start;text-decoration:none;line-height:normal;letter-spacing:normal;word-spacing:normal;text-transform:none;direction:ltr;text-anchor:start;color:#000000;fill:url(#linearGradient4320);fill-opacity:1;stroke:none;stroke-width:2;marker:none;visibility:visible;display:inline;overflow:visible;font-family:Andale Mono" />
    <path
       d="m 6,78 0,2 c 0,3.324 2.676,6 6,6 l 7,0 65,0 c 3.324,0 6,-2.676 6,-6 L 90,79.28125 90,78 c 0,3.324 -2.676,6 -6,6 l -65,0 -7,0 C 8.676,84 6,81.324 6,78 z"
       inkscape:connector-curvature="0"
       id="path4151"
       style="opacity:0.05;fill:#ffffff;fill-opacity:1;fill-rule:nonzero;stroke:none" />
    <path
       d="M 12,6 C 8.676,6 6,8.676 6,12 l 0,11 0,46 0,11 c 0,3.324 2.7094079,5.529915 6,6 l 7,0 65,0 c 3.324,0 6,-2.676 6,-6 L 90,79.28125 90,69 90,39.4375 c 0.0048,-0.09367 0.0048,-0.187581 0,-0.28125 -0.06619,-0.633386 -0.358634,-1.240774 -0.8125,-1.6875 C 79.651999,27.900035 68.083358,16.364608 58.53125,6.8125 58.076718,6.3522891 57.456623,6.0591531 56.8125,6 L 12.71875,6 12,6 z m 0,1.03125 0.71875,0 44,0 c 0.396194,0.036384 0.814172,0.2169286 1.09375,0.5 9.55295,9.55295 21.122606,21.089398 30.65625,30.65625 0.272632,0.268343 0.453196,0.650494 0.5,1.03125 6.01e-4,0.01173 -3.61e-4,0.01951 0,0.03125 0.0014,0.04696 0.0024,0.07809 0,0.125 a 1.0271693,1.0271693 0 0 0 0,0.0625 l 0,29.5625 0,10.28125 0,0.71875 c 0,2.772771 -2.195979,4.96875 -4.96875,4.96875 l -65,0 -6.84375,0 C 10.69454,84.759934 9.3769411,84.168188 8.46875,83.3125 7.5605589,82.456812 7.03125,81.382944 7.03125,80 l 0,-11 0,-46 0,-11 C 7.03125,9.2272295 9.2272295,7.03125 12,7.03125 z"
       inkscape:connector-curvature="0"
       id="path4136"
       style="opacity:0.22000002;fill:url(#linearGradient4149);fill-opacity:1;fill-rule:nonzero;stroke:none" />
    <path
       d="m 112,6 c -3.324,0 -6,2.676 -6,6 l 0,11 0,50 0,11 c 0,3.324 2.676,6 6,6 l 7,0 65,0 c 3.324,0 6,-2.676 6,-6 L 190,83.28125 190,73 190,39.4375 c 0.005,-0.09367 0.005,-0.187581 0,-0.28125 -0.0662,-0.633386 -0.35863,-1.240774 -0.8125,-1.6875 C 179.652,27.900035 168.08336,16.364608 158.53125,6.8125 158.07672,6.3522891 157.45662,6.0591531 156.8125,6 L 112.71875,6 112,6 z"
       inkscape:connector-curvature="0"
       id="path4209"
       style="opacity:0.45;fill:url(#linearGradient4188);fill-opacity:1;fill-rule:nonzero;stroke:none;display:inline" />
    <path
       d="m 167.3125,6 a 1.4099078,1.4099078 0 0 0 -0.84375,2.40625 l 21.125,21.125 A 1.4099078,1.4099078 0 0 0 190,28.625 1.4099078,1.4099078 0 0 0 190,28.53125 L 190,16 190,12.28125 190,12 c 0,-3.324 -2.676,-6 -6,-6 l -16.6875,0 z"
       inkscape:connector-curvature="0"
       id="path3873-8"
       style="opacity:0.45;fill:url(#linearGradient4188);fill-opacity:1;fill-rule:nonzero;stroke:none;display:inline" />
    <path
       d="m 67.3125,6 a 1.4099078,1.4099078 0 0 0 -0.84375,2.40625 l 21.125,21.125 A 1.4099078,1.4099078 0 0 0 90,28.625 1.4099078,1.4099078 0 0 0 90,28.53125 L 90,16 90,12.28125 90,12 C 90,8.676 87.324,6 84,6 L 67.3125,6 z m 0,1 0.09375,0 L 84,7 c 2.792209,0 5,2.2077914 5,5 L 89,12.28125 89,16 89,28.53125 a 0.9909481,0.9909481 0 0 0 0,0.03125 c 0.0018,0.05319 0.0018,-0.02194 0,0.03125 -0.0077,0.05689 0.01176,-0.02494 0,0.03125 -0.01176,0.05619 0.01576,-0.02395 0,0.03125 -0.01576,0.0552 0.01967,-0.02268 0,0.03125 -0.01967,0.05393 -0.0078,-0.02113 -0.03125,0.03125 -0.02349,0.05238 0.02718,-0.01931 0,0.03125 -5.73e-4,-0.01238 -0.01588,-0.02424 -0.03125,0 -0.01537,0.02424 -0.0081,0.03527 0,0.03125 -0.03413,0.04616 0.0061,-0.01234 -0.03125,0.03125 -0.01868,0.0218 -0.0097,0.03399 0,0.03125 0.0026,-0.0098 -0.0096,-0.0189 -0.03125,0 -0.0432,0.0378 0.01455,-0.0034 -0.03125,0.03125 0.0039,-0.0082 -0.0072,-0.01562 -0.03125,0 -0.04816,0.03124 0.01903,0.0035 -0.03125,0.03125 -0.05213,0.02403 0.02247,0.01102 -0.03125,0.03125 -0.05372,0.02023 0.02379,-0.01633 -0.03125,0 -0.05504,0.01633 0.02481,-0.01234 -0.03125,0 -0.05606,0.01234 0.02555,-0.0083 -0.03125,0 -0.0568,0.0083 0.026,0.02705 -0.03125,0.03125 -0.05725,0.0042 0.02616,-8.7e-5 -0.03125,0 -0.05741,8.7e-5 0.02602,0.004 -0.03125,0 -0.05727,-0.004 0.02558,-0.02313 -0.03125,-0.03125 -0.05683,-0.0081 0.02485,0.01217 -0.03125,0 -0.0561,-0.01217 0.02383,0.01616 -0.03125,0 -0.05508,-0.01616 0.02253,0.02007 -0.03125,0 -0.05378,-0.02007 0.02096,-0.0074 -0.03125,-0.03125 -0.05036,-0.02755 0.01701,-1.57e-4 -0.03125,-0.03125 -0.02413,-0.01555 -0.03521,-0.0082 -0.03125,0 -0.0459,-0.03447 0.01207,0.0064 -0.03125,-0.03125 -0.02166,-0.01884 -0.03391,-0.0098 -0.03125,0 l -21.125,-21.125 a 0.9909481,0.9909481 0 0 0 0,-0.03125 C 67.11892,7.64509 67.15925,7.701189 67.125,7.65625 67.09075,7.611311 67.124743,7.672243 67.09375,7.625 c -0.03099,-0.047243 0.02758,0.018061 0,-0.03125 -0.02404,-0.051134 -0.01088,0.021453 -0.03125,-0.03125 -0.02037,-0.052703 0.0166,0.022758 0,-0.03125 -0.0166,-0.054008 0.01275,0.023795 0,-0.03125 -0.01275,-0.055045 -0.02242,0.024557 -0.03125,-0.03125 -0.0088,-0.055807 0.0049,0.025041 0,-0.03125 -0.0049,-0.056291 8.91e-4,0.025245 0,-0.03125 -8.91e-4,-0.056495 -0.0031,0.025167 0,-0.03125 0.0031,-0.056417 -0.0071,0.024808 0,-0.03125 0.0071,-0.056058 0.02024,0.02417 0.03125,-0.03125 0.01101,-0.05542 -0.01489,0.023255 0,-0.03125 0.01489,-0.054505 -0.0187,0.022069 0,-0.03125 0.02241,-0.051867 0.0052,0.018907 0.03125,-0.03125 0.02601,-0.050157 -0.02949,0.016947 0,-0.03125 0.02949,-0.048197 -0.0016,0.014746 0.03125,-0.03125 0.01641,-0.022998 0.0086,-0.034633 0,-0.03125 -0.0016,0.010561 0.01177,0.02046 0.03125,0 0.03896,-0.04092 -0.0105,0.00682 0.03125,-0.03125 0.02088,-0.019035 0.01076,-0.032575 0,-0.03125 -0.0036,0.00836 0.0079,0.015907 0.03125,0 0.04669,-0.031815 -0.01757,-0.00281 0.03125,-0.03125 0.04882,-0.028441 -0.01946,0.024926 0.03125,0 C 67.331957,7.0063238 67.260161,7.0212869 67.3125,7 z"
       inkscape:connector-curvature="0"
       id="path4211"
       style="opacity:0.12000002;fill:url(#linearGradient4224);fill-opacity:1;fill-rule:nonzero;stroke:none;display:inline" />
  </g>
  <g
     id="layer6"
     style="display:inline">
    <path
       d="m 14,12.03125 c -1.155927,0 -1.96875,0.812823 -1.96875,1.96875 l 0,1 c 0,-1.155927 0.812823,-1.96875 1.96875,-1.96875 l 0.71875,0 41.34375,0 c 9.302007,9.302007 18.590178,18.61793 27.90625,27.90625 l 0,-1 C 74.652678,30.64918 65.364507,21.333257 56.0625,12.03125 l -41.34375,0 -0.71875,0 z"
       inkscape:connector-curvature="0"
       id="path3851"
       style="opacity:0.2;fill:#000000;fill-opacity:1;fill-rule:nonzero;stroke:none;display:inline" />
    <path
       d="m 14,12.03125 c -1.155927,0 -1.96875,0.812823 -1.96875,1.96875 l 0,1 c 0,-1.155927 0.812823,-1.96875 1.96875,-1.96875 l 0.71875,0 41.34375,0 c 9.302007,9.302007 18.590178,18.61793 27.90625,27.90625 l 0,-1 C 74.652678,30.64918 65.364507,21.333257 56.0625,12.03125 l -41.34375,0 -0.71875,0 z"
       inkscape:connector-curvature="0"
       id="path3992"
       style="opacity:0.2;fill:#000000;fill-opacity:1;fill-rule:nonzero;stroke:none;display:inline" />
    <path
       d="m 14,12.03125 c -1.155927,0 -1.96875,0.812823 -1.96875,1.96875 l 0,9 0,29 0,17 0,8.28125 0,0.71875 c 0,1.077732 0.717552,1.836973 1.75,1.9375 0.07491,0.0073 0.142073,0.01592 0.21875,0.03125 l 5,0 58,0 5,0 c 0.07224,0 0.1493,-0.0086 0.21875,-0.03125 1.032448,-0.100527 1.75,-0.859768 1.75,-1.9375 l 0,-0.71875 0,-8.28125 0,-17 0,-12.0625 C 74.652678,30.64918 65.364507,21.333257 56.0625,12.03125 l -41.34375,0 z"
       inkscape:connector-curvature="0"
       id="path3994"
       style="fill:url(#linearGradient3141);fill-opacity:1;fill-rule:nonzero;stroke:none;display:inline" />
    <path
       d="M 17.90625,17.0625 C 17.446299,17.10552 17.057,17.538075 17.0625,18 l 0,9 0,38 0,9 c -0.0037,0.491884 0.445616,0.941233 0.9375,0.9375 l 5,0 55,0 C 78.491884,74.9412 78.941233,74.491884 78.9375,74 l 0,-9 0,-23.40625 C 78.9348,41.349509 78.83124,41.10791 78.65625,40.9375 L 55.0625,17.34375 C 54.89209,17.16876 54.650491,17.065218 54.40625,17.0625 L 18,17.0625 c -0.03122,-0.0016 -0.06253,-0.0016 -0.09375,0 z"
       inkscape:connector-curvature="0"
       id="path3996"
       style="opacity:0.6;fill:url(#radialGradient3920);fill-opacity:1;fill-rule:nonzero;stroke:none;display:inline" />
    <path
       d="m 18,18 0,9 0,38 0,9 5,0 55,0 0,-9 L 78,41.59375 54.40625,18 z"
       inkscape:connector-curvature="0"
       id="path3998"
       style="fill:url(#linearGradient3135);fill-opacity:1;fill-rule:nonzero;stroke:none;display:inline" />
    <path
       d="m 18,18 0,9 0,38 0,9 5,0 55,0 0,-9 L 78,41.59375 54.40625,18 z m 1,1 35.03125,0 L 77,41.96875 77,65 l 0,8 -54,0 -4,0 0,-8 0,-38 z"
       inkscape:connector-curvature="0"
       id="path4000"
       style="opacity:0.7;fill:#ffffff;fill-opacity:1;fill-rule:nonzero;stroke:none;display:inline" />
    <path
       d="m 14,12.03125 c -1.155927,0 -1.96875,0.812823 -1.96875,1.96875 l 0,1 c 0,-1.155927 0.812823,-1.96875 1.96875,-1.96875 l 0.71875,0 41.34375,0 c 9.302007,9.302007 18.590178,18.61793 27.90625,27.90625 l 0,-1 C 74.652678,30.64918 65.364507,21.333257 56.0625,12.03125 l -41.34375,0 -0.71875,0 z"
       inkscape:connector-curvature="0"
       id="path4004"
       style="opacity:0.2;fill:#000000;fill-opacity:1;fill-rule:nonzero;stroke:none;display:inline" />
    <path
       d="m 14,12.03125 c -1.155927,0 -1.96875,0.812823 -1.96875,1.96875 l 0,9 0,33 0,13 0,8.28125 0,0.71875 c 0,1.077732 0.717552,1.836973 1.75,1.9375 0.07491,0.0073 0.142073,0.01592 0.21875,0.03125 l 5,0 58,0 5,0 c 0.07224,0 0.1493,-0.0086 0.21875,-0.03125 1.032448,-0.100527 1.75,-0.859768 1.75,-1.9375 l 0,-0.71875 0,-8.28125 0,-13 0,-16.0625 C 74.652678,30.64918 65.364507,21.333257 56.0625,12.03125 l -41.34375,0 z M 14,13 l 0.71875,0 40.9375,0 C 64.769843,22.114133 73.870942,31.240801 83,40.34375 L 83,56 83,69 83,77.28125 83,78 c 0,0.648416 -0.267049,0.909555 -0.875,0.96875 C 82.0827,78.97635 82.04091,78.98682 82,79 l -5,0 -58,0 -5,0 c 0.119302,0 0.09888,-0.0094 -0.125,-0.03125 C 13.267049,78.909555 13,78.648416 13,78 L 13,77.28125 13,69 13,56 13,23 13,14 c 0,-0.702508 0.297492,-1 1,-1 z"
       inkscape:connector-curvature="0"
       id="path3990"
       style="opacity:0.1;fill:#000000;fill-opacity:1;fill-rule:nonzero;stroke:none;display:inline" />
  </g>
  <g
     id="layer4">
    <path
       d="m 6,80 0,4 c 0,3.324 2.676,6 6,6 l 72,0 c 3.324,0 6,-2.676 6,-6 l 0,-4 c 0,3.324 -2.676,6 -6,6 L 12,86 C 8.676,86 6,83.324 6,80 z"
       inkscape:connector-curvature="0"
       id="path3888"
       style="fill:url(#linearGradient3077);fill-opacity:1;fill-rule:nonzero;stroke:none;display:inline" />
    <path
       d="m 6,82 0,2 c 0,3.324 2.676,6 6,6 l 72,0 c 3.324,0 6,-2.676 6,-6 l 0,-2 c 0,3.324 -2.676,6 -6,6 L 12,88 C 8.676,88 6,85.324 6,82 z"
       inkscape:connector-curvature="0"
       id="rect4345"
       style="opacity:0.1;color:#000000;fill:#000000;fill-opacity:1;fill-rule:nonzero;stroke:none;stroke-width:1.5;marker:none;visibility:visible;display:inline;overflow:visible;enable-background:accumulate" />
    <path
       d="m 6,83 0,1 c 0,3.324 2.676,6 6,6 l 72,0 c 3.324,0 6,-2.676 6,-6 l 0,-1 c 0,3.324 -2.676,6 -6,6 L 12,89 C 8.676,89 6,86.324 6,83 z"
       inkscape:connector-curvature="0"
       id="rect4336"
       style="opacity:0.15;color:#000000;fill:#000000;fill-opacity:1;fill-rule:nonzero;stroke:none;stroke-width:1.5;marker:none;visibility:visible;display:inline;overflow:visible;enable-background:accumulate" />
    <path
       d="m 66.125,7.875 0,3.09375 a 1.4099078,1.4099078 0 0 0 0.34375,1.4375 l 21.125,21.125 A 1.4099078,1.4099078 0 0 0 90,32.625 1.4099078,1.4099078 0 0 0 90,32.53125 L 90,28.75 a 1.4099078,1.4099078 0 0 1 -2.40625,0.78125 l -21.125,-21.125 A 1.4099078,1.4099078 0 0 1 66.125,7.875 z"
       inkscape:connector-curvature="0"
       id="path4056"
       style="fill:url(#linearGradient4085);fill-opacity:1;fill-rule:nonzero;stroke:none;display:inline" />
  </g>
  <g
     id="layer5"
     style="display:none">
    <rect
       width="66"
       height="66"
       rx="12"
       ry="12"
       x="15"
       y="15"
       clip-path="url(#clipPath3613)"
       id="rect3171"
       style="opacity:0.1;fill:url(#linearGradient3613);fill-opacity:1;fill-rule:nonzero;stroke:#ffffff;stroke-width:0.5;stroke-linecap:round;stroke-linejoin:miter;stroke-miterlimit:4;stroke-opacity:1;stroke-dasharray:none;stroke-dashoffset:0;filter:url(#filter3794)" />
  </g>
  <g
     id="layer7"
     style="display:inline">
    <path
       d="m 28,36 0,2 12,0 0,-2 -12,0 z m 14,0 0,2 12,0 0,-2 -12,0 z m 14,0 0,2 12,0 0,-2 -12,0 z m -28,4 0,2 12,0 0,-2 -12,0 z m 14,0 0,2 12,0 0,-2 -12,0 z m 14,0 0,2 12,0 0,-2 -12,0 z m -28,4 0,2 12,0 0,-2 -12,0 z m 14,0 0,2 12,0 0,-2 -12,0 z m 14,0 0,2 12,0 0,-2 -12,0 z m -28,4 0,2 12,0 0,-2 -12,0 z m 14,0 0,2 12,0 0,-2 -12,0 z m 14,0 0,2 12,0 0,-2 -12,0 z m -28,4 0,2 12,0 0,-2 -12,0 z m 14,0 0,2 12,0 0,-2 -12,0 z m 14,0 0,2 12,0 0,-2 -12,0 z m -28,4 0,2 12,0 0,-2 -12,0 z m 14,0 0,2 12,0 0,-2 -12,0 z m 14,0 0,2 12,0 0,-2 -12,0 z m -28,4 0,2 12,0 0,-2 -12,0 z m 14,0 0,2 12,0 0,-2 -12,0 z m 14,0 0,2 12,0 0,-2 -12,0 z m -28,4 0,2 12,0 0,-2 -12,0 z m 14,0 0,2 12,0 0,-2 -12,0 z m 14,0 0,2 12,0 0,-2 -12,0 z m -28,4 0,2 12,0 0,-2 -12,0 z m 14,0 0,2 12,0 0,-2 -12,0 z m 14,0 0,2 12,0 0,-2 -12,0 z"
       inkscape:connector-curvature="0"
       id="path4246"
       style="opacity:0.8;color:#000000;fill:url(#linearGradient3403);fill-opacity:1;fill-rule:nonzero;stroke:none;stroke-width:2;marker:none;visibility:visible;display:inline;overflow:visible" />
    <rect
       width="40"
       height="14"
       x="28"
       y="56"
       id="rect8713"
       style="opacity:0.5;color:#000000;fill:url(#radialGradient4155);fill-opacity:1;fill-rule:nonzero;stroke:none;stroke-width:1;marker:none;visibility:visible;display:inline;overflow:visible" />
    <path
       d="m 60,36 0,2 8,0 0,-2 -8,0 z m 0,4 0,2 8,0 0,-2 -8,0 z m 0,4 0,2 8,0 0,-2 -8,0 z m 0,4 0,2 8,0 0,-2 -8,0 z m 0,4 0,2 8,0 0,-2 -8,0 z m 0,4 0,2 8,0 0,-2 -8,0 z m 0,4 0,2 8,0 0,-2 -8,0 z m 0,4 0,2 8,0 0,-2 -8,0 z m 0,4 0,2 8,0 0,-2 -8,0 z"
       inkscape:connector-curvature="0"
       id="path4307"
       style="opacity:0.2;color:#000000;fill:url(#linearGradient4323);fill-opacity:1;fill-rule:nonzero;stroke:none;stroke-width:1;marker:none;visibility:visible;display:inline;overflow:visible" />
    <path
       d="m 48,40.875 c -0.465389,0 -0.838647,0.02474 -1.15625,0.03125 a 2.014517,2.014517 0 0 0 -0.03125,0 c -2.834126,0.0805 -6.026894,0.397912 -9.28125,1.125 -1.552156,0.346781 -2.77221,0.95391 -3.625,1.5 -0.548893,0.351446 -1.06311,0.71232 -1.5,1.4375 A 2.014517,2.014517 0 0 0 32.3125,45.125 c -0.04476,0.06807 -0.03786,-3.13e-4 -0.125,0.21875 C 32.049934,45.689603 32,46.153917 32,46.4375 c 0,-0.126651 -0.05114,-0.03664 0,0.375 a 2.014517,2.014517 0 0 0 0,0.03125 c 0.0067,0.05174 -0.01252,-0.01573 0,0.0625 a 2.014517,2.014517 0 0 0 0.0625,0.1875 c 0.02903,0.114408 0.08738,0.178131 0.125,0.28125 a 2.014517,2.014517 0 0 0 0,0.03125 2.014517,2.014517 0 0 0 -0.1875,0.875 l 0,3.84375 c 0,0.04995 -0.09532,0.431579 0.09375,1.09375 0.0248,0.08684 0.09504,0.107998 0.125,0.1875 A 2.014517,2.014517 0 0 0 32,54.3125 c 0,1.363921 -0.01057,2.73054 0,4.125 0.0017,0.227136 0.0091,0.445664 0.125,0.8125 0.01638,0.05199 0.07502,0.07471 0.09375,0.125 A 2.014517,2.014517 0 0 0 32,60.3125 l 0,4.125 c 0,1.493171 0.96121,2.332405 1.90625,2.9375 0.966948,0.619166 2.131763,1.058503 3.53125,1.4375 C 40.237586,69.570863 43.926202,70 48,70 c 4.073779,0 7.762423,-0.429182 10.5625,-1.1875 1.399364,-0.379006 2.564173,-0.818209 3.53125,-1.4375 C 63.038857,66.769903 64,65.930668 64,64.4375 l 0,-0.3125 0,-3.8125 A 2.014517,2.014517 0 0 0 63.78125,59.375 c 0.03183,-0.09224 0.130296,-0.11729 0.15625,-0.21875 0.0027,-0.01044 -0.0026,-0.02071 0,-0.03125 C 64.078592,58.532876 64,58.24815 64,58.125 l 0,-3.8125 A 2.014517,2.014517 0 0 0 63.78125,53.375 c 0.03089,-0.08968 0.131343,-0.121385 0.15625,-0.21875 0.0026,-0.01002 -0.0025,-0.02115 0,-0.03125 C 64.078595,52.532868 64,52.248149 64,52.125 l 0,-3.84375 A 2.014517,2.014517 0 0 0 63.8125,47.4375 c 0.0065,-0.01708 0.02486,-0.01387 0.03125,-0.03125 A 2.014517,2.014517 0 0 0 63.90625,47.25 c 1.7e-5,-6.1e-5 -6.67e-4,-0.0279 0,-0.03125 0.003,-0.01124 -0.0028,-0.02013 0,-0.03125 0.01376,-0.06985 0.05735,-0.270756 0.0625,-0.34375 0.0013,-0.01005 -0.0011,-0.02127 0,-0.03125 0.0039,-0.06385 4.7e-4,-0.09124 0,-0.125 -3.65e-4,-0.0205 5.32e-4,-0.01693 0,-0.03125 -0.0016,-0.0724 -3.08e-4,-0.0981 0,-0.09375 0.0014,-0.03946 0.03125,-0.08596 0.03125,-0.125 0,-0.271988 -0.125414,-0.402089 -0.1875,-0.625 0.0038,0.08556 0.03591,0.183711 0.03125,0.25 0.01764,-0.259876 -0.09178,-0.748221 -0.3125,-1.15625 L 63.5625,44.875 c -0.05129,-0.08561 -0.02143,-0.03443 -0.0625,-0.09375 -0.01474,-0.02253 -0.01533,-0.04056 -0.03125,-0.0625 L 63.4375,44.75 c -0.05733,-0.07487 -0.05835,-0.125239 -0.09375,-0.15625 -0.01002,-0.01245 -0.02115,-0.01901 -0.03125,-0.03125 -0.36012,-0.436693 -0.755467,-0.754595 -1.1875,-1.03125 -0.954159,-0.61096 -2.140764,-1.083686 -3.5625,-1.46875 -1.731988,-0.469085 -3.839287,-0.8331 -6.15625,-1.03125 -0.103372,-0.0089 0.0079,0.0024 -0.03125,0 -0.07829,-0.0049 -0.234232,-0.01401 -0.0625,0 -0.399934,-0.03176 -0.844986,-0.06812 -1.3125,-0.09375 -0.134781,-0.0074 -0.0202,-2.53e-4 -0.03125,0 -0.01105,2.53e-4 -0.147597,-0.0064 -0.03125,0 a 2.014517,2.014517 0 0 0 -0.03125,0 c -0.527482,-0.02756 -0.960281,-0.02028 -1.375,-0.03125 -0.131632,-0.0035 -0.141885,-0.0029 -0.03125,0 C 49.048082,40.894531 48.536044,40.875 48,40.875 z"
       transform="translate(0,-2)"
       id="path4480"
       style="color:#000000;fill:url(#linearGradient4482);fill-opacity:1;fill-rule:nonzero;stroke:none;stroke-width:2;marker:none;visibility:visible;display:inline;overflow:visible" />
    <path
       d="m 47.995347,40.872051 c -0.382723,0 -0.760296,0.01092 -1.135261,0.01861 -2.718272,0.07721 -5.779334,0.413104 -8.886673,1.107345 -1.290549,0.288333 -2.303471,0.771977 -2.987038,1.209704 -0.42725,0.27356 -0.721502,0.54596 -0.87471,0.800265 -0.01226,0.02539 -0.02706,0.0489 -0.03722,0.07444 C 34.026663,44.202543 34,44.321989 34,44.445331 c 0,0.03827 0.0046,0.07384 0.0093,0.111666 0.0013,0.006 -0.0014,0.01263 0,0.01861 8.94e-4,0.0063 -0.001,0.01236 0,0.01861 0.160536,0.632637 0.956074,1.11478 1.554005,1.414424 0.7168,0.359203 1.44231,0.628435 2.279827,0.846792 3.609281,0.926373 7.524837,1.207903 11.47358,1.144567 2.85383,-0.07316 5.821632,-0.354515 8.793618,-1.125956 0.870452,-0.225951 1.835506,-0.572931 2.642739,-1.032901 0.429979,-0.245041 1.008946,-0.614672 1.200399,-1.135261 0.0018,-0.0065 0.0076,-0.01202 0.0093,-0.01861 0.02156,-0.08053 0.0279,-0.159507 0.0279,-0.241941 0,-0.174548 -0.04487,-0.343944 -0.139581,-0.511797 -0.0062,-0.009 -0.01206,-0.01896 -0.01861,-0.02792 -0.0117,-0.01953 -0.0336,-0.0364 -0.04653,-0.05583 -0.167855,-0.208599 -0.42126,-0.423211 -0.763044,-0.642074 -0.683569,-0.437698 -1.710694,-0.864019 -2.987039,-1.209705 -1.595452,-0.432106 -3.583002,-0.770028 -5.80658,-0.958457 -0.02446,-0.0021 -0.04992,-0.0073 -0.07444,-0.0093 -0.420047,-0.03336 -0.848166,-0.06049 -1.284147,-0.08375 -0.01823,-10e-4 -0.03758,0.001 -0.05583,0 -0.446375,-0.02332 -0.897837,-0.04364 -1.358591,-0.05583 -0.0091,-2.44e-4 -0.01872,2.4e-4 -0.02792,0 -0.470453,-0.0122 -0.949916,-0.01861 -1.433005,-0.01861 z"
       inkscape:connector-curvature="0"
       id="path4458"
       style="color:#000000;fill:url(#radialGradient4484);fill-opacity:1;fill-rule:nonzero;stroke:none;stroke-width:2;marker:none;visibility:visible;display:inline;overflow:visible" />
    <path
       d="m 34.009305,46.295114 0,3.833832 c 0,0.177681 -0.01093,0.343169 0.03722,0.511798 0.05318,0.186258 0.174852,0.403259 0.390827,0.604852 0.938016,0.865627 2.238869,1.219099 3.536059,1.628448 3.022966,0.790916 6.619978,1.099752 10.03124,1.125956 3.161043,-0.0045 6.640241,-0.300841 9.984712,-1.11665 0.941232,-0.254448 2.005831,-0.60323 2.977734,-1.172483 0.588102,-0.344464 0.914328,-0.740994 0.99568,-1.070123 C 62,50.492483 62,50.30222 62,50.128946 l 0,-3.833832 c -0.976369,0.952071 -2.444407,1.424086 -3.824527,1.814557 -2.788944,0.78901 -5.829062,1.012265 -8.840146,1.107345 -3.72431,0.109133 -7.599205,-0.202145 -11.501495,-1.107345 -0.969014,-0.236314 -2.165557,-0.680368 -3.145231,-1.274842 -0.264632,-0.16059 -0.490805,-0.350628 -0.679296,-0.539715 z"
       inkscape:connector-curvature="0"
       id="path4456"
       style="color:#000000;fill:url(#linearGradient4462);fill-opacity:1;fill-rule:nonzero;stroke:none;stroke-width:2;marker:none;visibility:visible;display:inline;overflow:visible" />
    <path
       d="m 34.009305,52.304421 c 0,1.374104 -0.01042,2.748225 0,4.1223 4.77e-4,0.06438 0.01489,0.143273 0.03722,0.214024 0.05821,0.184769 0.173096,0.405166 0.390827,0.604853 0.321357,0.294735 0.721565,0.572096 1.153872,0.772349 2.536553,1.164502 5.196116,1.439407 8.188767,1.805251 C 45.112825,59.948799 46.531864,60 48.004651,60 c 2.911895,-0.0042 5.746609,-0.237117 8.840146,-0.837487 1.331195,-0.289317 2.845299,-0.702477 4.1223,-1.451645 0.578157,-0.360901 0.914328,-0.740994 0.99568,-1.070123 C 62,56.492483 62,56.302222 62,56.128947 l 0,-3.824526 c -0.130305,0.120241 -0.664363,0.553471 -1.004985,0.725822 -0.895285,0.452973 -2.079292,0.875409 -3.182452,1.163177 -3.115603,0.799879 -6.427171,0.972885 -9.80791,1.042207 -3.36073,-0.0065 -6.388996,-0.266179 -9.80791,-1.042207 -1.235998,-0.307182 -2.655305,-0.765352 -3.79661,-1.554004 -0.142217,-0.107348 -0.275261,-0.22065 -0.390828,-0.334995 z"
       inkscape:connector-curvature="0"
       id="path4454"
       style="color:#000000;fill:url(#linearGradient4460);fill-opacity:1;fill-rule:nonzero;stroke:none;stroke-width:2;marker:none;visibility:visible;display:inline;overflow:visible" />
    <path
       d="m 34.009305,58.30442 0,4.1223 c 0,0.385944 0.304593,0.819696 0.986375,1.256231 0.681781,0.436565 1.702906,0.845855 2.977733,1.191093 C 40.523068,65.564581 44.079494,66 48.004653,66 c 3.925129,0 7.481555,-0.435449 10.03124,-1.125956 1.274797,-0.345268 2.295951,-0.754498 2.977732,-1.191093 C 61.695408,63.246445 62,62.812664 62,62.42672 l 0,-0.297773 0,-3.824527 c -0.218953,0.203111 -0.438367,0.39315 -0.716517,0.558325 -1.038217,0.613086 -2.214704,0.989545 -3.47092,1.330675 -3.123137,0.77826 -6.422614,0.987476 -9.80791,1.042206 -1.361807,3.88e-4 -2.801646,-0.05606 -4.271187,-0.176803 -2.436411,-0.204927 -5.49374,-0.640986 -8.077102,-1.712196 C 35.09256,59.109837 34.4755,58.763289 34.009305,58.30442 z"
       inkscape:connector-curvature="0"
       id="path11957"
       style="color:#000000;fill:url(#linearGradient4448);fill-opacity:1;fill-rule:nonzero;stroke:none;stroke-width:2;marker:none;visibility:visible;display:inline;overflow:visible" />
    <path
       d="m 28,36 0,2 8,0 0,-2 -8,0 z m 0,4 0,2 8,0 0,-2 -8,0 z m 0,4 0,2 8,0 0,-2 -8,0 z m 0,4 0,2 8,0 0,-2 -8,0 z m 0,4 0,2 8,0 0,-2 -8,0 z m 0,4 0,2 8,0 0,-2 -8,0 z m 0,4 0,2 8,0 0,-2 -8,0 z m 0,4 0,2 8,0 0,-2 -8,0 z m 0,4 0,2 8,0 0,-2 -8,0 z"
       inkscape:connector-curvature="0"
       id="path4326"
       style="opacity:0.2;color:#000000;fill:url(#linearGradient4328);fill-opacity:1;fill-rule:nonzero;stroke:none;stroke-width:1;marker:none;visibility:visible;display:inline;overflow:visible" />
    <path
       d="M 42.1875,41.28125 C 40.810141,41.458525 39.394211,41.681524 37.96875,42 c -0.582196,0.130074 -1.098054,0.281327 -1.5625,0.46875 l 11.375,1.9375 -5.59375,-3.125 z m 5.59375,3.125 5.875,3.28125 0.03125,0 c 1.460227,-0.175898 2.961768,-0.429443 4.4375,-0.8125 0.477748,-0.124013 0.975741,-0.304399 1.46875,-0.5 l -11.8125,-1.96875 z"
       inkscape:connector-curvature="0"
       id="path4486"
       style="opacity:0.3;fill:url(#linearGradient4488);fill-opacity:1;stroke:none;display:inline" />
    <path
       d="m 34,46.28125 0,1 c 0.188491,0.189087 0.422868,0.40191 0.6875,0.5625 0.979674,0.594474 2.187236,1.044936 3.15625,1.28125 3.90229,0.9052 7.77569,1.202883 11.5,1.09375 3.011084,-0.09508 6.054806,-0.30474 8.84375,-1.09375 1.38012,-0.390471 2.836131,-0.891679 3.8125,-1.84375 l 0,-1 c -0.976369,0.952071 -2.43238,1.453279 -3.8125,1.84375 -2.788944,0.78901 -5.832666,0.99867 -8.84375,1.09375 -3.72431,0.109133 -7.59771,-0.18855 -11.5,-1.09375 C 36.874736,47.888686 35.667174,47.438224 34.6875,46.84375 34.422868,46.68316 34.188491,46.470337 34,46.28125 z"
       inkscape:connector-curvature="0"
       id="path4499"
       style="opacity:0.5;color:#000000;fill:url(#linearGradient4514);fill-opacity:1;fill-rule:nonzero;stroke:none;stroke-width:2;marker:none;visibility:visible;display:inline;overflow:visible" />
    <path
       d="m 34,52.28125 0,1 c 0.188491,0.189087 0.422868,0.40191 0.6875,0.5625 0.979674,0.594474 2.187236,1.044936 3.15625,1.28125 3.90229,0.9052 7.77569,1.202883 11.5,1.09375 3.011084,-0.09508 6.054806,-0.30474 8.84375,-1.09375 1.38012,-0.390471 2.836131,-0.891679 3.8125,-1.84375 l 0,-1 c -0.976369,0.952071 -2.43238,1.453279 -3.8125,1.84375 -2.788944,0.78901 -5.832666,0.99867 -8.84375,1.09375 -3.72431,0.109133 -7.59771,-0.18855 -11.5,-1.09375 C 36.874736,53.888686 35.667174,53.438224 34.6875,52.84375 34.422868,52.68316 34.188491,52.470337 34,52.28125 z"
       inkscape:connector-curvature="0"
       id="path4516"
       style="opacity:0.5;color:#000000;fill:url(#linearGradient4518);fill-opacity:1;fill-rule:nonzero;stroke:none;stroke-width:2;marker:none;visibility:visible;display:inline;overflow:visible" />
    <path
       d="m 34,58.28125 0,1 c 0.188491,0.189087 0.422868,0.40191 0.6875,0.5625 0.979674,0.594474 2.187236,1.044936 3.15625,1.28125 3.90229,0.9052 7.77569,1.202883 11.5,1.09375 3.011084,-0.09508 6.054806,-0.30474 8.84375,-1.09375 1.38012,-0.390471 2.836131,-0.891679 3.8125,-1.84375 l 0,-1 c -0.976369,0.952071 -2.43238,1.453279 -3.8125,1.84375 -2.788944,0.78901 -5.832666,0.99867 -8.84375,1.09375 -3.72431,0.109133 -7.59771,-0.18855 -11.5,-1.09375 C 36.874736,59.888686 35.667174,59.438224 34.6875,58.84375 34.422868,58.68316 34.188491,58.470337 34,58.28125 z"
       inkscape:connector-curvature="0"
       id="path4520"
       style="opacity:0.5;color:#000000;fill:url(#linearGradient4522);fill-opacity:1;fill-rule:nonzero;stroke:none;stroke-width:2;marker:none;visibility:visible;display:inline;overflow:visible" />
    <path
       d="m 48,39.875 c -0.382723,0 -0.750035,0.02356 -1.125,0.03125 C 44.156728,39.98346 41.076089,40.305759 37.96875,41 36.678201,41.288333 35.683567,41.781023 35,42.21875 34.57275,42.49231 34.278208,42.745695 34.125,43 34.11274,43.02539 34.07266,43.06821 34.0625,43.09375 34.014718,43.213878 34,43.314158 34,43.4375 c 0,0.03827 -0.0047,0.08717 0,0.125 8.94e-4,0.0063 -10e-4,0.025 0,0.03125 0.03173,0.125031 0.112594,0.230722 0.1875,0.34375 C 34.349976,43.703281 34.611273,43.467645 35,43.21875 35.683567,42.781023 36.678201,42.288333 37.96875,42 41.076089,41.305759 44.156728,40.98346 46.875,40.90625 47.249965,40.89856 47.617277,40.875 48,40.875 c 0.483089,0 0.967047,0.01905 1.4375,0.03125 0.0092,2.4e-4 0.02215,-2.44e-4 0.03125,0 0.460754,0.01219 0.897375,0.0079 1.34375,0.03125 0.01825,10e-4 0.04427,-10e-4 0.0625,0 0.435981,0.02326 0.861203,0.06039 1.28125,0.09375 0.02452,0.002 0.03804,-0.0021 0.0625,0 2.223578,0.188429 4.217048,0.536644 5.8125,0.96875 1.276345,0.345686 2.316431,0.781052 3,1.21875 0.341784,0.218863 0.582145,0.416401 0.75,0.625 0.01293,0.01943 0.0508,0.04297 0.0625,0.0625 0.03986,-0.06626 0.09853,-0.115536 0.125,-0.1875 0.0018,-0.0065 -0.0017,-0.02466 0,-0.03125 C 61.99031,43.60697 62,43.519934 62,43.4375 c 0,-0.174548 -0.06154,-0.332147 -0.15625,-0.5 -0.0062,-0.009 0.0065,-0.02229 0,-0.03125 -0.0117,-0.01953 -0.04957,-0.04307 -0.0625,-0.0625 -0.167855,-0.208599 -0.408216,-0.406137 -0.75,-0.625 -0.683569,-0.437698 -1.723655,-0.873064 -3,-1.21875 -1.595452,-0.432106 -3.588922,-0.780321 -5.8125,-0.96875 -0.02446,-0.0021 -0.03798,0.002 -0.0625,0 -0.420047,-0.03336 -0.845269,-0.07049 -1.28125,-0.09375 -0.01823,-10e-4 -0.04425,10e-4 -0.0625,0 -0.446375,-0.02332 -0.882996,-0.01906 -1.34375,-0.03125 -0.0091,-2.44e-4 -0.02205,2.4e-4 -0.03125,0 C 48.967047,39.89405 48.483089,39.875 48,39.875 z"
       inkscape:connector-curvature="0"
       id="path4524"
       style="opacity:0.2;color:#000000;fill:#ffffff;fill-opacity:1;fill-rule:nonzero;stroke:none;stroke-width:2;marker:none;visibility:visible;display:inline;overflow:visible" />
  </g>
</svg>
