<?xml version="1.0" encoding="UTF-8" standalone="no"?>
<!-- Created with Inkscape (http://www.inkscape.org/) -->

<svg
   xmlns:dc="http://purl.org/dc/elements/1.1/"
   xmlns:cc="http://creativecommons.org/ns#"
   xmlns:rdf="http://www.w3.org/1999/02/22-rdf-syntax-ns#"
   xmlns:svg="http://www.w3.org/2000/svg"
   xmlns="http://www.w3.org/2000/svg"
   xmlns:xlink="http://www.w3.org/1999/xlink"
   xmlns:inkscape="http://www.inkscape.org/namespaces/inkscape"
   version="1.0"
   width="96"
   height="96"
   id="svg2408">
  <defs
     id="defs2410">
    <linearGradient
       id="linearGradient4384">
      <stop
         id="stop4386"
         style="stop-color:#ffffff;stop-opacity:1"
         offset="0" />
      <stop
         id="stop4388"
         style="stop-color:#ffffff;stop-opacity:0"
         offset="1" />
    </linearGradient>
    <linearGradient
       id="linearGradient4367">
      <stop
         id="stop4369"
         style="stop-color:#ffffff;stop-opacity:0.71755725"
         offset="0" />
      <stop
         id="stop4371"
         style="stop-color:#ffffff;stop-opacity:1"
         offset="1" />
    </linearGradient>
    <linearGradient
       x1="45.447727"
       y1="92.539597"
       x2="45.447727"
       y2="7.0165396"
       id="ButtonShadow"
       gradientUnits="userSpaceOnUse"
       gradientTransform="scale(1.0058652,0.994169)">
      <stop
         id="stop3750"
         style="stop-color:#000000;stop-opacity:1"
         offset="0" />
      <stop
         id="stop3752"
         style="stop-color:#000000;stop-opacity:0.58823532"
         offset="1" />
    </linearGradient>
    <linearGradient
       id="linearGradient3737">
      <stop
         id="stop3739"
         style="stop-color:#ffffff;stop-opacity:1"
         offset="0" />
      <stop
         id="stop3741"
         style="stop-color:#ffffff;stop-opacity:0"
         offset="1" />
    </linearGradient>
    <filter
       color-interpolation-filters="sRGB"
       id="filter3174">
      <feGaussianBlur
         id="feGaussianBlur3176"
         stdDeviation="1.71" />
    </filter>
    <filter
       x="-0.192"
       y="-0.192"
       width="1.3839999"
       height="1.3839999"
       color-interpolation-filters="sRGB"
       id="filter3794">
      <feGaussianBlur
         id="feGaussianBlur3796"
         stdDeviation="5.28" />
    </filter>
    <linearGradient
       x1="48"
       y1="20.220806"
       x2="48"
       y2="138.66119"
       id="linearGradient3613"
       xlink:href="#linearGradient3737"
       gradientUnits="userSpaceOnUse" />
    <linearGradient
       x1="48"
       y1="90"
       x2="48"
       y2="5.9877172"
       id="linearGradient3617"
       xlink:href="#linearGradient4418"
       gradientUnits="userSpaceOnUse" />
    <linearGradient
       x1="45.447727"
       y1="92.539597"
       x2="45.447727"
       y2="7.0165396"
       id="ButtonShadow-0"
       gradientUnits="userSpaceOnUse"
       gradientTransform="matrix(1.0058652,0,0,0.994169,100,0)">
      <stop
         id="stop3750-8"
         style="stop-color:#000000;stop-opacity:1"
         offset="0" />
      <stop
         id="stop3752-5"
         style="stop-color:#000000;stop-opacity:0.58823532"
         offset="1" />
    </linearGradient>
    <linearGradient
       x1="32.251034"
       y1="6.1317081"
       x2="32.251034"
       y2="90.238609"
       id="linearGradient3780"
       xlink:href="#ButtonShadow-0"
       gradientUnits="userSpaceOnUse"
       gradientTransform="matrix(1.0238095,0,0,1.0119048,-1.1428571,-98.071429)" />
    <linearGradient
       x1="32.251034"
       y1="6.1317081"
       x2="32.251034"
       y2="90.238609"
       id="linearGradient3772"
       xlink:href="#ButtonShadow-0"
       gradientUnits="userSpaceOnUse"
       gradientTransform="matrix(1.0238095,0,0,1.0119048,-1.1428571,-98.071429)" />
    <linearGradient
       x1="32.251034"
       y1="6.1317081"
       x2="32.251034"
       y2="90.238609"
       id="linearGradient3725"
       xlink:href="#ButtonShadow-0"
       gradientUnits="userSpaceOnUse"
       gradientTransform="matrix(1.0238095,0,0,1.0119048,-1.1428571,-98.071429)" />
    <linearGradient
       x1="32.251034"
       y1="6.1317081"
       x2="32.251034"
       y2="90.238609"
       id="linearGradient3721"
       xlink:href="#ButtonShadow-0"
       gradientUnits="userSpaceOnUse"
       gradientTransform="translate(0,-97)" />
    <linearGradient
       x1="32.251034"
       y1="6.1317081"
       x2="32.251034"
       y2="90.238609"
       id="linearGradient3026"
       xlink:href="#ButtonShadow-0"
       gradientUnits="userSpaceOnUse"
       gradientTransform="matrix(1.0238095,0,0,1.0119048,-1.1428571,-98.071429)" />
    <clipPath
       id="clipPath4355">
      <rect
         width="84"
         height="80"
         rx="6"
         ry="6"
         x="6"
         y="6"
         id="rect4357"
         style="fill:#ffffff;fill-opacity:1;fill-rule:nonzero;stroke:none" />
    </clipPath>
    <radialGradient
       cx="48"
       cy="87.792389"
       r="42"
       fx="48"
       fy="87.792389"
       id="radialGradient4375"
       xlink:href="#linearGradient4367"
       gradientUnits="userSpaceOnUse"
       gradientTransform="matrix(1,-6.7114942e-8,8.4282233e-8,1.2557894,109.99999,-24.505592)" />
    <linearGradient
       x1="48"
       y1="88"
       x2="48"
       y2="-40"
       id="linearGradient4390"
       xlink:href="#linearGradient4384"
       gradientUnits="userSpaceOnUse"
       gradientTransform="matrix(1,0,0,-1,0,92)" />
    <linearGradient
       x1="48"
       y1="82"
       x2="112.12357"
       y2="82.454597"
       id="linearGradient4429"
       xlink:href="#linearGradient4384"
       gradientUnits="userSpaceOnUse"
       spreadMethod="reflect" />
    <linearGradient
       id="linearGradient3843">
      <stop
         id="stop3845"
         style="stop-color:#523823;stop-opacity:1"
         offset="0" />
      <stop
         id="stop3847"
         style="stop-color:#79563a;stop-opacity:1"
         offset="0.11780351" />
      <stop
         id="stop3849"
         style="stop-color:#875c38;stop-opacity:1"
         offset="0.23809524" />
      <stop
         id="stop3851"
         style="stop-color:#a66e40;stop-opacity:1"
         offset="1" />
    </linearGradient>
    <linearGradient
       x1="8"
       y1="1033.3622"
       x2="50"
       y2="1033.3622"
       id="linearGradient3870"
       xlink:href="#linearGradient3843"
       gradientUnits="userSpaceOnUse"
       gradientTransform="translate(-2,-956.3622)"
       spreadMethod="reflect" />
    <linearGradient
       id="linearGradient4418">
      <stop
         id="stop4420"
         style="stop-color:#3b8132;stop-opacity:1"
         offset="0" />
      <stop
         id="stop4422"
         style="stop-color:#55c845;stop-opacity:1"
         offset="1" />
    </linearGradient>
    <radialGradient
       cx="63.98003"
       cy="61.948856"
       r="58.01997"
       fx="63.98003"
       fy="61.948856"
       id="radialGradient5232-9"
       xlink:href="#linearGradient4314"
       gradientUnits="userSpaceOnUse"
       gradientTransform="matrix(1.090012,0,0,0.79742883,-21.739,-4.8998001)" />
    <linearGradient
       id="linearGradient4314">
      <stop
         id="stop4316"
         style="stop-color:#88f07b;stop-opacity:1"
         offset="0" />
      <stop
         id="stop4318"
         style="stop-color:#b5f2bc;stop-opacity:0.1221374"
         offset="1" />
    </linearGradient>
    <linearGradient
       x1="59"
       y1="40"
       x2="69"
       y2="40"
       id="linearGradient4578-3"
       xlink:href="#linearGradient5932-3-2-4-3"
       gradientUnits="userSpaceOnUse" />
    <linearGradient
       id="linearGradient5932-3-2-4-3">
      <stop
         id="stop5934-3-2-9-4"
         style="stop-color:#ff7c53;stop-opacity:1"
         offset="0" />
      <stop
         id="stop5940-1-4-5-4"
         style="stop-color:#f21919;stop-opacity:1"
         offset="0.5" />
      <stop
         id="stop5942-5-4-7-3"
         style="stop-color:#db1414;stop-opacity:1"
         offset="0.5" />
      <stop
         id="stop5936-2-5-0-9"
         style="stop-color:#9b1818;stop-opacity:1"
         offset="1" />
    </linearGradient>
    <linearGradient
       x1="59"
       y1="88"
       x2="69"
       y2="88"
       id="linearGradient4580-7"
       xlink:href="#linearGradient5944-6-9-3-2"
       gradientUnits="userSpaceOnUse" />
    <linearGradient
       id="linearGradient5944-6-9-3-2">
      <stop
         id="stop5946-9-5-0-5"
         style="stop-color:#f0f0f0;stop-opacity:1"
         offset="0" />
      <stop
         id="stop5952-4-9-7-8"
         style="stop-color:#e6e6e6;stop-opacity:1"
         offset="0.5" />
      <stop
         id="stop5954-4-7-2-9"
         style="stop-color:#d2d2d2;stop-opacity:1"
         offset="0.5" />
      <stop
         id="stop5948-6-2-1-0"
         style="stop-color:#bebebe;stop-opacity:1"
         offset="1" />
    </linearGradient>
    <radialGradient
       cx="63.335083"
       cy="63.279507"
       r="1.7404202"
       fx="63.335083"
       fy="63.279507"
       id="radialGradient4582-2"
       xlink:href="#linearGradient5960-0-4-4-4"
       gradientUnits="userSpaceOnUse"
       gradientTransform="matrix(0.644005,-1.4508695e-6,1.4508659e-6,0.6440034,22.699101,22.755712)" />
    <linearGradient
       id="linearGradient5960-0-4-4-4">
      <stop
         id="stop5962-7-7-5-7"
         style="stop-color:#c1c1c1;stop-opacity:1"
         offset="0" />
      <stop
         id="stop5964-4-1-8-6"
         style="stop-color:#3f3f3f;stop-opacity:1"
         offset="1" />
    </linearGradient>
  </defs>
  <metadata
     id="metadata2413">
    <rdf:RDF>
      <cc:Work
         rdf:about="">
        <dc:format>image/svg+xml</dc:format>
        <dc:type
           rdf:resource="http://purl.org/dc/dcmitype/StillImage" />
        <dc:title />
      </cc:Work>
    </rdf:RDF>
  </metadata>
  <g
     id="layer2"
     style="display:none">
    <rect
       width="86"
       height="85"
       rx="6"
       ry="6"
       x="5"
       y="7"
       id="rect3745"
       style="opacity:0.9;fill:url(#ButtonShadow);fill-opacity:1;fill-rule:nonzero;stroke:none;filter:url(#filter3174)" />
  </g>
  <g
     id="layer3"
     style="display:inline">
    <path
       d="m 12,-95.03125 c -5.5110903,0 -10.03125,4.52016 -10.03125,10.03125 l 0,71 c 0,5.5110902 4.5201598,10.03125 10.03125,10.03125 l 72,0 c 5.51109,0 10.03125,-4.5201597 10.03125,-10.03125 l 0,-71 c 0,-5.51109 -4.52016,-10.03125 -10.03125,-10.03125 l -72,0 z"
       transform="scale(1,-1)"
       id="path3786"
       style="opacity:0.07999998;fill:url(#linearGradient3026);fill-opacity:1;fill-rule:nonzero;stroke:none;display:inline" />
    <path
       d="m 12,-94.03125 c -4.971633,0 -9.03125,4.059617 -9.03125,9.03125 l 0,71 c 0,4.9716329 4.0596171,9.03125 9.03125,9.03125 l 72,0 c 4.971633,0 9.03125,-4.059617 9.03125,-9.03125 l 0,-71 c 0,-4.971633 -4.059617,-9.03125 -9.03125,-9.03125 l -72,0 z"
       transform="scale(1,-1)"
       id="path3778"
       style="opacity:0.1;fill:url(#linearGradient3780);fill-opacity:1;fill-rule:nonzero;stroke:none;display:inline" />
    <path
       d="m 12,-93 c -4.4091333,0 -8,3.590867 -8,8 l 0,71 c 0,4.4091333 3.5908667,8 8,8 l 72,0 c 4.409133,0 8,-3.5908667 8,-8 l 0,-71 c 0,-4.409133 -3.590867,-8 -8,-8 l -72,0 z"
       transform="scale(1,-1)"
       id="path3770"
       style="opacity:0.2;fill:url(#linearGradient3772);fill-opacity:1;fill-rule:nonzero;stroke:none;display:inline" />
    <rect
       width="86"
       height="85"
       rx="7"
       ry="7"
       x="5"
       y="-92"
       transform="scale(1,-1)"
       id="rect3723"
       style="opacity:0.3;fill:url(#linearGradient3725);fill-opacity:1;fill-rule:nonzero;stroke:none;display:inline" />
    <rect
       width="84"
       height="84"
       rx="6"
       ry="6"
       x="6"
       y="-91"
       transform="scale(1,-1)"
       id="rect3716"
       style="opacity:0.45;fill:url(#linearGradient3721);fill-opacity:1;fill-rule:nonzero;stroke:none;display:inline" />
  </g>
  <g
     id="layer4">
    <rect
       width="84"
       height="26.000017"
       rx="6"
       ry="6"
       x="6"
       y="64"
       id="rect2841"
       style="color:#000000;fill:url(#linearGradient3870);fill-opacity:1;fill-rule:nonzero;stroke:none;stroke-width:1.5;marker:none;visibility:visible;display:inline;overflow:visible;enable-background:accumulate" />
    <path
       d="m 6,82 0,2 c 0,3.324 2.676,6 6,6 l 72,0 c 3.324,0 6,-2.676 6,-6 l 0,-2 c 0,3.324 -2.676,6 -6,6 L 12,88 C 8.676,88 6,85.324 6,82 z"
       inkscape:connector-curvature="0"
       id="rect4345"
       style="opacity:0.1;color:#000000;fill:#000000;fill-opacity:1;fill-rule:nonzero;stroke:none;stroke-width:1.5;marker:none;visibility:visible;display:inline;overflow:visible;enable-background:accumulate" />
    <path
       d="m 6,83 0,1 c 0,3.324 2.676,6 6,6 l 72,0 c 3.324,0 6,-2.676 6,-6 l 0,-1 c 0,3.324 -2.676,6 -6,6 L 12,89 C 8.676,89 6,86.324 6,83 z"
       inkscape:connector-curvature="0"
       id="rect4336"
       style="opacity:0.1;color:#000000;fill:#000000;fill-opacity:1;fill-rule:nonzero;stroke:none;stroke-width:1.5;marker:none;visibility:visible;display:inline;overflow:visible;enable-background:accumulate" />
    <path
       d="m 6,80 0,1 c 0,3.324 2.676,6 6,6 l 72,0 c 3.324,0 6,-2.676 6,-6 l 0,-1 c 0,3.324 -2.676,6 -6,6 L 12,86 C 8.676,86 6,83.324 6,80 z"
       inkscape:connector-curvature="0"
       id="path4412"
       style="opacity:0.2;fill:#000000;fill-opacity:1;fill-rule:nonzero;stroke:none" />
  </g>
  <g
     id="layer1">
    <rect
       width="84"
       height="80"
       rx="6"
       ry="6"
       x="6"
       y="6"
       id="rect2419"
       style="fill:url(#linearGradient3617);fill-opacity:1;fill-rule:nonzero;stroke:none" />
    <path
       d="M 120.78125,6.125 C 118.04223,6.6826484 116,9.0915 116,12 l 0,68 c 0,3.324 2.676,6 6,6 l 72,0 c 3.324,0 6,-2.676 6,-6 l 0,-68 c 0,-2.9085 -2.04223,-5.3173516 -4.78125,-5.875 2.20512,0.5362071 3.8125,2.4908437 3.8125,4.875 l 0,68 c 0,2.80489 -2.22636,5.03125 -5.03125,5.03125 l -72,0 c -2.80489,0 -5.03125,-2.22636 -5.03125,-5.03125 l 0,-68 c 0,-2.3841563 1.60738,-4.3387929 3.8125,-4.875 z"
       inkscape:connector-curvature="0"
       id="rect4359"
       style="opacity:0.2;fill:url(#radialGradient4375);fill-opacity:1;fill-rule:nonzero;stroke:none" />
    <path
       d="M 12,86 C 8.676,86 6,83.324 6,80 L 6,12 C 6,8.676 8.676,6 12,6 l 72,0 c 3.324,0 6,2.676 6,6 l 0,68 c 0,3.324 -2.676,6 -6,6 z m 0,-0.96875 72,0 c 2.80489,0 5.03125,-2.22636 5.03125,-5.03125 l 0,-68 C 89.03125,9.19511 86.80489,6.96875 84,6.96875 l -72,0 C 9.1951102,6.96875 6.96875,9.19511 6.96875,12 l 0,68 c 0,2.80489 2.2263602,5.03125 5.03125,5.03125 z"
       inkscape:connector-curvature="0"
       id="rect4377"
       style="opacity:0.3;fill:url(#linearGradient4390);fill-opacity:1;fill-rule:nonzero;stroke:none" />
    <path
       d="m 36.27388,6.0914437 c 1.65012,2.102184 0.11259,5.6126123 2.60148,5.5777653 1.2119,1.625474 -2.41545,0.484884 0.2036,1.737688 1.5061,1.125282 -1.5934,1.768222 0.27178,2.77805 -2.14968,1.052343 0.34844,5.504167 1.94512,6.618337 2.62795,2.098835 1.1622,-4.443669 4.0945,-4.784005 1.59336,-1.725697 4.39184,-2.833468 6.37927,-4.569477 -1.9423,-0.14959 -3.07647,-1.29651 -1.23702,-2.00698 3.38545,3.291123 0.8489,-1.5586273 -1.02514,-2.3265143 1.81336,-0.547237 3.57698,-0.1465 3.32537,-1.566064 1.91632,-1.330065 -1.84226,-1.7595016 -3.18394,-1.4588 -4.45834,0 -8.91667,0 -13.37502,0 z M 8.472035,7.4644327 C 6.022275,8.1265607 5.851393,13.680704 8.313685,10.596562 8.918028,9.3301757 11.710762,7.8040027 8.472035,7.4644327 z m 11.446494,0.193076 c -1.41226,2.100903 0.204911,3.7853103 1.379911,1.222818 0.83171,-1.070056 -0.617931,-1.183612 -1.379911,-1.222818 z m 3.528951,0.471965 c -2.728751,1.199854 -0.6726,3.9978003 -0.60506,4.6200783 2.87457,0.943438 4.47323,-0.616837 5.56069,2.04983 2.73516,1.495475 -0.0538,4.094054 -1.08054,4.770803 1.84934,-1.527959 5.40416,4.154196 4.47226,1.152165 -1.11179,-0.770127 2.98515,1.237172 0.85962,-1.265724 -1.95607,-2.989799 0.15527,-1.338504 0.97995,-0.640708 2.80488,-2.386122 -3.1736,-2.674529 -1.68123,-5.130132 C 30.64542,12.680938 28.93028,9.6368417 26.6145,10.231862 25.06426,12.133823 26.40035,6.0876407 24.12589,9.1132297 24.008,10.804521 24.08299,12.950658 23.42018,10.02063 c -0.44407,-0.5129353 0.764,-1.7054053 0.0273,-1.8911563 z m -5.56489,0.02145 C 16.050988,8.7302217 16.149361,11.077989 18.401546,11.329685 19.17298,10.495492 18.70804,8.3088917 17.88259,8.1509237 z m -7.148403,0.750854 c -2.379078,0.534749 -1.407992,2.3546063 -0.679572,2.8671443 -2.944918,0.699805 4.49569,0.894406 0.79268,1.337631 -3.08079,1.167254 2.966663,2.542452 3.958767,1.158459 3.804388,0.882656 0.136908,-2.889168 -0.197041,-4.9337833 -1.612752,-1.642038 -0.06365,3.7853413 -1.521868,0.174881 -0.508787,1.0721443 -2.126528,0.157992 -2.352966,-0.604332 z m 75.601123,0.235981 c -3.19244,1.1852993 1.98418,5.6582253 0.69765,1.5889443 -0.12817,-0.49136 0.28819,-1.7896233 -0.69765,-1.5889443 z M 19.66969,10.939806 c -2.294083,2.045297 2.91599,3.736661 -0.658894,5.260367 -0.53602,-1.899471 -1.458276,0.950339 -3.503467,-0.583626 -3.515899,1.388816 -5.313868,-0.723423 -8.257534,-2.171296 -1.768029,-0.208792 -1.103781,1.59372 -1.220884,3.281448 0,4.664238 0,9.328479 0,13.992718 1.733489,1.730232 0.676329,0.763393 0,0.286164 0.951467,3.074186 -0.419572,7.567992 3.330851,9.356185 0.637563,1.121921 3.312882,5.901609 3.43622,4.471479 -1.341214,-1.332484 -2.717353,-5.327206 -0.447896,-1.766784 2.032756,3.38444 4.774753,5.57958 8.780474,6.384962 2.19006,0.706729 3.99117,3.136136 5.91712,2.601613 1.08905,2.723607 -3.22741,5.339059 0.14491,7.879396 1.76052,2.571713 4.71618,4.258436 3.11596,7.868941 -1.11907,3.526184 -0.63993,7.368376 -1.60779,10.653768 -0.30039,1.999797 2.93804,7.075592 2.65747,3.011091 0.94557,-2.824541 0.92064,-5.932467 3.14759,-7.932729 3.04711,0.02289 0.58237,-3.108422 3.607,-2.69937 1.84565,-2.29506 2.38023,-5.03297 5.49491,-5.944298 0.37205,-2.785854 5.17882,-7.052439 0.21314,-8.137081 -1.34961,-0.631074 -4.8245,-0.857996 -4.55894,-1.16938 0.53803,-2.764302 -4.49347,-3.55126 -6.63424,-4.682223 -2.81075,-1.892747 -7.03423,3.14432 -8.02451,-1.195883 -0.59088,-1.365564 -2.75133,-1.387711 -1.75843,-3.494841 -1.78939,1.688358 -5.28934,1.175223 -4.373028,-2.085326 1.391566,-2.746016 6.735638,-2.875942 7.646258,0.427021 -1.26435,-3.642775 2.44394,-6.478535 4.50253,-9.070153 0.41916,-1.238725 2.90974,-2.302979 2.05268,-0.656652 1.46015,-0.04997 3.67328,-2.54975 1.07941,-1.395972 -0.0367,-2.279717 -2.27298,-1.631407 -2.998,-1.307702 1.34377,-2.023359 8.24498,-0.917167 5.35509,-4.224473 -2.2393,-0.860792 -2.05302,-5.883944 -4.318,-3.085525 0.1906,-1.724225 -4.61001,-5.099375 -4.50525,-2.208044 0.58599,2.5872 0.10714,5.567594 -1.13992,7.263462 -0.26025,-3.791112 -7.075686,-2.953219 -6.199431,-6.993073 1.269451,-1.925411 2.752851,-4.587995 2.894181,-4.34847 2.27505,-0.824054 4.10459,-3.221056 1.46783,-4.796832 -0.14092,1.373392 -1.98303,4.206979 -1.72366,0.779846 -1.705794,1.918668 -1.3162,-3.053101 -2.91375,-3.568728 z m 54.45,1.330082 c -3.99594,0.927326 -5.58007,4.548095 -7.55681,7.547064 -2.91386,1.246347 -2.80294,6.598869 0.45241,4.889345 0.87128,1.44364 -0.60951,3.719089 1.92831,1.831454 2.047,-2.569914 0.35794,-6.726362 3.84142,-8.34685 0.25374,1.260015 -3.21334,5.964952 0.83699,5.19161 3.66156,0.13107 -2.66185,0.346116 -0.88099,2.56501 -1.85027,-1.04148 -0.88884,2.844395 -3.30399,1.940108 -2.09232,1.079719 -3.46433,-0.501321 -2.98503,-2.233308 -1.64596,0.910951 0.5177,3.480843 -2.33958,3.63529 -0.64005,2.156207 -5.90338,1.831213 -2.9102,4.026813 1.3289,3.26738 -4.95154,0.204829 -3.16854,4.125793 1.52545,3.877239 4.7224,-1.284741 6.01943,-2.282043 2.50248,-1.841559 6.21066,3.140046 3.95877,3.325207 2.52508,-0.321404 2.00619,-2.599644 -0.0169,-3.481651 -1.09268,-2.688487 3.45903,1.318504 3.2066,2.666438 1.60595,2.852943 0.94462,-2.920977 2.57885,-0.364698 -0.1908,2.696496 6.57418,0.634019 3.34439,4.070679 -2.77688,0.53061 -5.51013,-0.679149 -7.90083,0.09571 -2.22511,-0.01868 -2.11347,-2.274091 -2.92358,-2.838903 -2.83037,0.218157 -6.32794,0.193488 -8.22277,2.362704 -2.04902,2.667065 -5.00383,6.395428 -2.77053,9.800938 2.23487,5.046569 7.77718,0.261768 10.96298,3.242162 0.94693,1.242691 -0.8206,2.719879 1.2967,4.065943 0.79672,2.867349 -0.90448,5.589846 1.05227,8.330854 1.01184,2.577778 1.63978,6.436053 5.40576,4.08053 3.98577,-2.275497 2.92416,-6.47025 6.21294,-8.793641 -2.60227,-4.777811 3.18363,-6.872738 4.62722,-10.751456 -3.15395,0.438047 -5.96377,-2.545125 -6.72579,-5.547748 -1.32494,-1.458441 -0.98368,-3.608918 0.49633,-0.869126 2.03426,1.870042 2.07821,7.418942 5.84127,4.564391 1.72035,-0.68265 6.4186,-3.286692 2.67511,-4.471738 -2.41304,1.658079 -5.07525,-4.95439 -1.53182,-1.119017 2.57602,1.036825 4.37996,1.654578 4.37996,-1.783026 0,-9.261631 0,-18.648756 0,-27.973134 -0.8024,0.777906 -2.8638,2.21461 -3.90428,1.25994 -1.79037,0.236521 -4.15389,3.54138 -3.59125,0.346654 -1.55624,-0.09777 -0.27858,2.864502 -2.41664,2.947346 -0.21529,1.52293 -2.15987,0.282016 -1.42943,1.72823 -1.50065,-1.009866 -2.77067,-4.198352 0.18614,-2.197052 4.39103,-1.249768 -2.8956,-4.068774 -3.45804,-4.750159 0.94545,-0.214907 -1.02861,-1.149626 -1.26681,-0.836665 z m -36.23968,0.836665 c -1.4615,1.155272 2.77854,1.372833 0,0 z m -19.522371,0.622135 c -1.634647,1.622144 2.603281,1.491219 0,0 z m 9.478421,1.60897 c -1.23786,1.923787 1.82903,0.710255 0,0 z m 27.10058,2.274013 c -1.44923,1.582857 -3.36205,-0.416572 -3.39323,0.943929 0.26265,0.411081 1.31467,3.345081 3.61945,1.179912 1.23698,-0.49476 0.74995,-1.741991 -0.22622,-2.123841 z m -30.85575,0.943933 c -2.74881,2.277424 4.6683,2.487257 0.58232,0.261198 l -0.58232,-0.261199 z m 36.2623,6.307163 c -1.97909,1.224349 0.94943,3.824482 -0.0431,5.045867 -1.2401,2.04981 4.60832,-0.14439 1.48461,-1.77981 -0.22257,-1.40508 -1.83002,-3.119437 -1.44154,-3.266057 z m -1.33468,2.467087 c -2.75739,0.739573 -0.62595,4.557959 0.35067,0.961617 0.0549,-0.2085 0.12936,-0.968589 -0.35067,-0.961617 z m -22.0786,2.76743 c -2.56522,1.65944 -0.39843,3.315827 1.48156,2.569175 -0.38596,-1.001225 -1.46417,-1.632057 -1.48156,-2.569175 z m 48.4553,2.788882 c 1.27995,0.612818 -2.34554,1.659678 -0.0498,2.738205 1.33598,1.490481 0.83231,4.689986 -1.3392,2.425521 0.40344,-2.528273 -2.94356,-4.41641 1.38903,-5.163726 z m -6.58287,0.02145 c -0.17366,1.624315 3.69395,4.149132 -0.47504,3.325206 -2.20475,0.245361 -5.50697,-0.06391 -2.72943,-2.67023 0.87765,-0.499856 3.18206,1.72456 1.98292,-0.354634 0.42513,-0.02573 0.82107,-0.177978 1.22155,-0.300342 z m -12.73591,3.518281 c -1.60811,0.982874 1.11199,1.73653 0,0 z m -40.37941,9.160407 c -0.27111,0.858063 5.08598,1.727648 1.38929,0.352923 l -0.55107,-0.184021 -0.83822,-0.168902 z m 4.16235,1.222817 c -1.62491,1.564966 3.34782,0.467549 0,0 z m 54.3369,14.352017 c -3.53072,0.08643 -3.06133,8.726264 -0.60013,3.613978 0.2334,-1.109369 1.1689,-2.573587 0.60013,-3.613978 z"
       inkscape:connector-curvature="0"
       id="path3522-9"
       style="opacity:0.8;fill:url(#radialGradient5232-9);fill-opacity:1;stroke:none;display:inline" />
    <path
       d="m 6,78 0,2 c 0,3.324 2.676,6 6,6 l 72,0 c 3.324,0 6,-2.676 6,-6 l 0,-2 c 0,3.324 -2.676,6 -6,6 L 12,84 C 8.676,84 6,81.324 6,78 z"
       inkscape:connector-curvature="0"
       id="rect4414"
       style="opacity:0.1;fill:url(#linearGradient4429);fill-opacity:1;fill-rule:nonzero;stroke:none" />
  </g>
  <g
     id="layer5"
     style="display:inline">
    <rect
       width="66"
       height="62"
       rx="12"
       ry="12"
       x="15"
       y="15"
       clip-path="url(#clipPath4355)"
       id="rect3171"
       style="opacity:0.1;fill:url(#linearGradient3613);fill-opacity:1;fill-rule:nonzero;stroke:#ffffff;stroke-width:0.5;stroke-linecap:round;stroke-linejoin:miter;stroke-miterlimit:4;stroke-opacity:1;stroke-dasharray:none;stroke-dashoffset:0;filter:url(#filter3794)" />
  </g>
  <g
     id="layer6">
    <path
       d="m 48,14 -4.625,16.6875 c -1.750115,0.528895 -3.372187,1.350473 -4.8125,2.40625 l -7.53125,-4.0625 4.0625,7.53125 c -1.055777,1.440313 -1.877355,3.062385 -2.40625,4.8125 L 16,46 32.6875,50.625 c 0.528895,1.750115 1.350473,3.372187 2.40625,4.8125 l -4.0625,7.53125 7.53125,-4.0625 c 1.440313,1.055777 3.062385,1.877355 4.8125,2.40625 L 48,78 52.625,61.3125 c 1.750115,-0.528895 3.372187,-1.350473 4.8125,-2.40625 l 7.53125,4.0625 -4.0625,-7.53125 c 1.055777,-1.440313 1.877355,-3.062385 2.40625,-4.8125 L 80,46 63.3125,41.375 c -0.528895,-1.750115 -1.350473,-3.372187 -2.40625,-4.8125 l 4.0625,-7.53125 -7.53125,4.0625 C 55.997187,32.037973 54.375115,31.216395 52.625,30.6875 L 48,14 z m 0,20 c 6.627417,0 12,5.372583 12,12 0,6.627417 -5.372583,12 -12,12 -6.627417,0 -12,-5.372583 -12,-12 0,-6.627417 5.372583,-12 12,-12 z"
       inkscape:connector-curvature="0"
       id="path4588"
       style="color:#000000;fill:#ffffff;fill-opacity:1;fill-rule:nonzero;stroke:none;stroke-width:0.80000001;marker:none;visibility:visible;display:inline;overflow:visible;enable-background:accumulate" />
    <path
       d="M 73.59375,19.875 A 0.98733463,0.98733463 0 0 0 73.5,19.90625 c -1.862486,0.662889 -2.985802,2.089997 -4.15625,2.84375 a 0.98733463,0.98733463 0 0 0 -0.0625,0.0625 C 60.328027,29.67862 51.301634,36.489351 42.375,43.40625 a 0.98733463,0.98733463 0 0 0 -0.1875,0.1875 C 34.543066,53.6051 26.89933,63.61961 19.25,73.625 a 0.98733463,0.98733463 0 0 0 -0.0625,0.0625 c -1.493391,2.412529 1.376631,5.582816 3.90625,4.25 A 0.98733463,0.98733463 0 0 0 23.1875,77.875 c 4.295201,-3.098936 8.478503,-6.431181 12.6875,-9.59375 5.909361,-4.541521 11.86439,-9.03043 17.75,-13.625 a 0.98733463,0.98733463 0 0 0 0.1875,-0.1875 C 61.453624,44.423181 69.179217,34.430141 76.78125,24.34375 A 0.98733463,0.98733463 0 0 0 76.875,24.1875 c 1.06411,-2.143866 -0.820619,-4.644879 -3.15625,-4.3125 a 0.98733463,0.98733463 0 0 0 -0.125,0 z"
       transform="translate(0,-2)"
       id="path4654"
       style="opacity:0.05;fill:#000000;fill-opacity:1;fill-rule:evenodd;stroke:none" />
    <path
       d="m 73.84375,18.84375 c -1.519181,0.540701 -2.627486,1.890163 -3.980569,2.761531 -8.957315,6.869258 -17.974482,13.6705 -26.894431,20.582219 -7.644356,10.011247 -15.287853,20.025446 -22.9375,30.03125 -0.987163,1.594733 0.915897,3.727784 2.59375,2.84375 4.270136,-3.080852 8.417658,-6.404008 12.641025,-9.577375 C 41.180246,60.939869 47.154405,56.462728 53.03125,51.875 60.675498,41.825324 68.402826,31.829944 76,21.75 76.719423,20.300577 75.426316,18.618538 73.84375,18.84375 z"
       inkscape:connector-curvature="0"
       id="path4648"
       style="opacity:0.1;fill:#000000;fill-opacity:1;fill-rule:evenodd;stroke:none" />
    <path
       d="m 74.09375,19.9375 a 0.93157725,0.93157725 0 0 0 -0.5,0.1875 L 43.9375,42.78125 A 0.93157725,0.93157725 0 0 0 43.75,42.96875 L 21.09375,72.625 a 0.93157725,0.93157725 0 0 0 1.3125,1.3125 L 52.0625,51.28125 A 0.93157725,0.93157725 0 0 0 52.25,51.09375 L 74.90625,21.4375 a 0.93157725,0.93157725 0 0 0 -0.8125,-1.5 z"
       inkscape:connector-curvature="0"
       id="path4643"
       style="opacity:0.15;fill:#000000;fill-opacity:1;fill-rule:evenodd;stroke:none" />
    <path
       d="M 74.15625,20.875 44.5,43.53125 21.84375,73.1875 51.5,50.53125 74.15625,20.875 z"
       inkscape:connector-curvature="0"
       id="path4612"
       style="opacity:0.3;fill:#000000;fill-opacity:1;fill-rule:evenodd;stroke:none" />
    <g
       transform="matrix(0.70710678,0.70710678,-0.70710678,0.70710678,48.020021,-21.873366)"
       id="g4572">
      <g
         transform="matrix(0.98983765,0,0,0.77048859,-15.350324,-1.2826605)"
         id="g5928-7-4">
        <path
           d="m 69,64 -10,0 5,-48 5,48 z"
           inkscape:connector-curvature="0"
           id="path5923-0-5"
           style="fill:url(#linearGradient4578-3);fill-opacity:1;fill-rule:evenodd;stroke:none" />
        <path
           d="m 69,63.999997 -10,0 L 64,112 69,63.999997 z"
           inkscape:connector-curvature="0"
           id="path5926-8-6"
           style="fill:url(#linearGradient4580-7);fill-opacity:1;fill-rule:evenodd;stroke:none" />
      </g>
      <path
         d="m 65.503089,63.920891 a 1.7404202,1.7404202 0 1 1 -3.480841,0 1.7404202,1.7404202 0 1 1 3.480841,0 z"
         transform="matrix(0.88540527,0,0,0.88540527,-8.4565171,-8.5672842)"
         id="path5958-8-4"
         style="fill:url(#radialGradient4582-2);fill-opacity:1;fill-rule:evenodd;stroke:none" />
    </g>
  </g>
</svg>
