<?xml version="1.0" encoding="UTF-8" standalone="no"?>
<!-- Created with Inkscape (http://www.inkscape.org/) -->

<svg
   xmlns:dc="http://purl.org/dc/elements/1.1/"
   xmlns:cc="http://creativecommons.org/ns#"
   xmlns:rdf="http://www.w3.org/1999/02/22-rdf-syntax-ns#"
   xmlns:svg="http://www.w3.org/2000/svg"
   xmlns="http://www.w3.org/2000/svg"
   xmlns:xlink="http://www.w3.org/1999/xlink"
   xmlns:sodipodi="http://sodipodi.sourceforge.net/DTD/sodipodi-0.dtd"
   xmlns:inkscape="http://www.inkscape.org/namespaces/inkscape"
   version="1.0"
   width="96"
   height="96"
   id="svg2408"
   inkscape:version="0.48.0 r9654"
   sodipodi:docname="scribes.svg"
   inkscape:export-filename="/home/tobias/Desktop/Faenza-Fresh/apps v0.2/scribes.png"
   inkscape:export-xdpi="45"
   inkscape:export-ydpi="45">
  <sodipodi:namedview
     pagecolor="#ffffff"
     bordercolor="#666666"
     borderopacity="1"
     objecttolerance="10"
     gridtolerance="10"
     guidetolerance="10"
     inkscape:pageopacity="0"
     inkscape:pageshadow="2"
     inkscape:window-width="1920"
     inkscape:window-height="1029"
     id="namedview61"
     showgrid="false"
     inkscape:zoom="1.4008602"
     inkscape:cx="20.220745"
     inkscape:cy="46.505675"
     inkscape:window-x="0"
     inkscape:window-y="24"
     inkscape:window-maximized="1"
     inkscape:current-layer="layer1"
     inkscape:snap-bbox="false"
     inkscape:bbox-paths="true"
     inkscape:bbox-nodes="true"
     inkscape:snap-bbox-edge-midpoints="true"
     inkscape:snap-bbox-midpoints="true"
     inkscape:snap-smooth-nodes="false"
     inkscape:object-nodes="false"
     inkscape:object-paths="true"
     inkscape:snap-intersection-paths="false" />
  <defs
     id="defs2410">
    <linearGradient
       id="linearGradient4527">
      <stop
         style="stop-color:#fdc26a;stop-opacity:1;"
         offset="0"
         id="stop4529" />
      <stop
         style="stop-color:#fd973c;stop-opacity:1;"
         offset="1"
         id="stop4531" />
    </linearGradient>
    <linearGradient
       id="linearGradient4497">
      <stop
         id="stop4499"
         style="stop-color:#7db6ea;stop-opacity:1;"
         offset="0" />
      <stop
         id="stop4501"
         style="stop-color:#006dbd;stop-opacity:1;"
         offset="0.50094414" />
      <stop
         id="stop4503"
         style="stop-color:#00003d;stop-opacity:1"
         offset="1" />
    </linearGradient>
    <linearGradient
       id="linearGradient4467">
      <stop
         id="stop4469"
         style="stop-color:#c3e0f5;stop-opacity:1;"
         offset="0" />
      <stop
         id="stop4471"
         style="stop-color:#81bfe0;stop-opacity:1;"
         offset="0.50094414" />
      <stop
         id="stop4473"
         style="stop-color:#2186b8;stop-opacity:1;"
         offset="1" />
    </linearGradient>
    <linearGradient
       id="linearGradient4015">
      <stop
         offset="0"
         style="stop-color:#ffffff;stop-opacity:0.86250001;"
         id="stop4017" />
      <stop
         offset="1"
         style="stop-color:#ffffff;stop-opacity:0.39166668;"
         id="stop4019" />
    </linearGradient>
    <linearGradient
       id="linearGradient3953">
      <stop
         offset="0"
         style="stop-color:#f54a00;stop-opacity:1;"
         id="stop3955" />
      <stop
         offset="1"
         style="stop-color:#f57900;stop-opacity:1;"
         id="stop3957" />
    </linearGradient>
    <linearGradient
       id="linearGradient4085">
      <stop
         id="stop4087"
         style="stop-color:#782121;stop-opacity:1"
         offset="0" />
      <stop
         id="stop4089"
         style="stop-color:#782121;stop-opacity:0"
         offset="1" />
    </linearGradient>
    <linearGradient
       id="linearGradient3694">
      <stop
         id="stop3696"
         style="stop-color:#e6e6e6;stop-opacity:1"
         offset="0" />
      <stop
         id="stop3698"
         style="stop-color:#f5f5f5;stop-opacity:1"
         offset="1" />
    </linearGradient>
    <linearGradient
       id="linearGradient3688">
      <stop
         id="stop3690"
         style="stop-color:#ad0d0d;stop-opacity:1"
         offset="0" />
      <stop
         id="stop3692"
         style="stop-color:#e02f11;stop-opacity:1"
         offset="1" />
    </linearGradient>
    <linearGradient
       x1="45.447727"
       y1="92.539597"
       x2="45.447727"
       y2="7.0165396"
       id="ButtonShadow"
       gradientUnits="userSpaceOnUse"
       gradientTransform="scale(1.0058652,0.994169)">
      <stop
         id="stop3750"
         style="stop-color:#000000;stop-opacity:1"
         offset="0" />
      <stop
         id="stop3752"
         style="stop-color:#000000;stop-opacity:0.58823532"
         offset="1" />
    </linearGradient>
    <linearGradient
       id="linearGradient3737">
      <stop
         id="stop3739"
         style="stop-color:#ffffff;stop-opacity:1"
         offset="0" />
      <stop
         id="stop3741"
         style="stop-color:#ffffff;stop-opacity:0"
         offset="1" />
    </linearGradient>
    <filter
       color-interpolation-filters="sRGB"
       id="filter3174">
      <feGaussianBlur
         id="feGaussianBlur3176"
         stdDeviation="1.71" />
    </filter>
    <linearGradient
       x1="36.357143"
       y1="6"
       x2="36.357143"
       y2="63.893143"
       id="linearGradient3188"
       xlink:href="#linearGradient3737"
       gradientUnits="userSpaceOnUse" />
    <filter
       x="-0.192"
       y="-0.192"
       width="1.3839999"
       height="1.3839999"
       color-interpolation-filters="sRGB"
       id="filter3794">
      <feGaussianBlur
         id="feGaussianBlur3796"
         stdDeviation="5.28" />
    </filter>
    <linearGradient
       x1="48"
       y1="20.220806"
       x2="48"
       y2="138.66119"
       id="linearGradient3613"
       xlink:href="#linearGradient3737"
       gradientUnits="userSpaceOnUse" />
    <radialGradient
       cx="48"
       cy="90.171875"
       r="42"
       fx="48"
       fy="90.171875"
       id="radialGradient3619"
       xlink:href="#linearGradient3737"
       gradientUnits="userSpaceOnUse"
       gradientTransform="matrix(1.1573129,0,0,0.99590774,-7.5510206,0.19713193)" />
    <clipPath
       id="clipPath3613">
      <rect
         width="84"
         height="84"
         rx="6"
         ry="6"
         x="6"
         y="6"
         id="rect3615"
         style="fill:#ffffff;fill-opacity:1;fill-rule:nonzero;stroke:none" />
    </clipPath>
    <linearGradient
       x1="48"
       y1="90"
       x2="48"
       y2="53.747875"
       id="linearGradient3617"
       xlink:href="#linearGradient3953"
       gradientUnits="userSpaceOnUse" />
    <linearGradient
       x1="45.447727"
       y1="92.539597"
       x2="45.447727"
       y2="7.0165396"
       id="ButtonShadow-0"
       gradientUnits="userSpaceOnUse"
       gradientTransform="matrix(1.0058652,0,0,0.994169,100,0)">
      <stop
         id="stop3750-8"
         style="stop-color:#000000;stop-opacity:1"
         offset="0" />
      <stop
         id="stop3752-5"
         style="stop-color:#000000;stop-opacity:0.58823532"
         offset="1" />
    </linearGradient>
    <linearGradient
       x1="32.251034"
       y1="6.1317081"
       x2="32.251034"
       y2="90.238609"
       id="linearGradient3780"
       xlink:href="#ButtonShadow-0"
       gradientUnits="userSpaceOnUse"
       gradientTransform="matrix(1.0238095,0,0,1.0119048,-1.1428571,-98.071429)" />
    <linearGradient
       x1="32.251034"
       y1="6.1317081"
       x2="32.251034"
       y2="90.238609"
       id="linearGradient3772"
       xlink:href="#ButtonShadow-0"
       gradientUnits="userSpaceOnUse"
       gradientTransform="matrix(1.0238095,0,0,1.0119048,-1.1428571,-98.071429)" />
    <linearGradient
       x1="32.251034"
       y1="6.1317081"
       x2="32.251034"
       y2="90.238609"
       id="linearGradient3725"
       xlink:href="#ButtonShadow-0"
       gradientUnits="userSpaceOnUse"
       gradientTransform="matrix(1.0238095,0,0,1.0119048,-1.1428571,-98.071429)" />
    <linearGradient
       x1="32.251034"
       y1="6.1317081"
       x2="32.251034"
       y2="90.238609"
       id="linearGradient3721"
       xlink:href="#ButtonShadow-0"
       gradientUnits="userSpaceOnUse"
       gradientTransform="translate(0,-97)" />
    <linearGradient
       x1="32.251034"
       y1="6.1317081"
       x2="32.251034"
       y2="90.238609"
       id="linearGradient3026"
       xlink:href="#ButtonShadow-0"
       gradientUnits="userSpaceOnUse"
       gradientTransform="matrix(1.0238095,0,0,1.0119048,-1.1428571,-98.071429)" />
    <linearGradient
       x1="-73.494293"
       y1="72.699486"
       x2="-50.243786"
       y2="159.47563"
       id="linearGradient4018"
       xlink:href="#linearGradient3694"
       gradientUnits="userSpaceOnUse"
       gradientTransform="matrix(0.59136097,-0.15844727,-0.15844727,-0.59136097,103.35407,108.29989)" />
    <linearGradient
       x1="-73.494293"
       y1="72.699486"
       x2="-50.243786"
       y2="159.47563"
       id="linearGradient4071"
       xlink:href="#linearGradient3694"
       gradientUnits="userSpaceOnUse"
       gradientTransform="matrix(0.59136097,-0.15844727,-0.15844727,-0.59136097,103.35407,109.29989)" />
    <linearGradient
       x1="58"
       y1="19"
       x2="58"
       y2="120"
       id="linearGradient4091"
       xlink:href="#linearGradient4085"
       gradientUnits="userSpaceOnUse" />
    <linearGradient
       inkscape:collect="always"
       xlink:href="#linearGradient3953"
       id="linearGradient4002"
       gradientUnits="userSpaceOnUse"
       x1="48"
       y1="90"
       x2="48"
       y2="5.9877172"
       gradientTransform="translate(0,110.67813)" />
    <linearGradient
       inkscape:collect="always"
       xlink:href="#linearGradient4015"
       id="linearGradient4013"
       gradientUnits="userSpaceOnUse"
       x1="48"
       y1="61.747875"
       x2="48"
       y2="9" />
    <linearGradient
       gradientTransform="matrix(0.84815852,0.52974252,-0.52974252,0.84815852,-2.1584304,-41.320509)"
       gradientUnits="userSpaceOnUse"
       xlink:href="#linearGradient3936"
       id="linearGradient3946"
       y2="41.356407"
       x2="134.48746"
       y1="79.295097"
       x1="103.94804" />
    <linearGradient
       gradientTransform="matrix(0.98565429,0.16877686,-0.16877686,0.98565429,-45.008735,-15.895389)"
       gradientUnits="userSpaceOnUse"
       xlink:href="#linearGradient3936"
       id="linearGradient3942"
       y2="30.335871"
       x2="142.16823"
       y1="78.680206"
       x1="102.76233" />
    <radialGradient
       gradientTransform="matrix(-0.01380294,-0.0125728,0.35517379,-0.38992442,-103.15415,193.49332)"
       gradientUnits="userSpaceOnUse"
       xlink:href="#linearGradient3242"
       id="radialGradient3896"
       fy="181.18982"
       fx="418.45551"
       r="63.068935"
       cy="181.18982"
       cx="418.45551" />
    <radialGradient
       gradientTransform="matrix(0.08730492,0.06948468,-0.10650365,0.13381795,-44.944061,65.934759)"
       gradientUnits="userSpaceOnUse"
       xlink:href="#linearGradient3202"
       id="radialGradient3894"
       fy="382.14804"
       fx="283.50717"
       r="17.67668"
       cy="382.14804"
       cx="283.50717" />
    <radialGradient
       gradientTransform="matrix(0.08730492,0.06948468,-0.10650365,0.13381795,-66.303078,90.119143)"
       gradientUnits="userSpaceOnUse"
       xlink:href="#linearGradient3202"
       id="radialGradient3892"
       fy="390.45248"
       fx="289.44067"
       r="17.67668"
       cy="390.45248"
       cx="289.44067" />
    <radialGradient
       gradientTransform="matrix(-0.02122419,-0.01702548,0.22621343,-0.28200081,-136.43035,244.91947)"
       gradientUnits="userSpaceOnUse"
       xlink:href="#linearGradient3294"
       id="radialGradient3890"
       fy="356.62274"
       fx="425.51019"
       r="143.34167"
       cy="356.62274"
       cx="425.51019" />
    <radialGradient
       gradientTransform="matrix(0.35132636,0,0,0.21957897,-55.867109,-41.232151)"
       gradientUnits="userSpaceOnUse"
       xlink:href="#linearGradient4966"
       id="radialGradient3858"
       fy="371.76376"
       fx="299.70135"
       r="76.696358"
       cy="371.76376"
       cx="299.70135" />
    <radialGradient
       gradientTransform="matrix(0.27451828,0,0,0.17157392,-32.847623,6.6143846)"
       gradientUnits="userSpaceOnUse"
       xlink:href="#linearGradient4966"
       id="radialGradient3854"
       fy="371.76376"
       fx="299.70135"
       r="76.696358"
       cy="371.76376"
       cx="299.70135" />
    <linearGradient
       id="linearGradient3294">
      <stop
         offset="0"
         style="stop-color:#6376e6;stop-opacity:1"
         id="stop3296" />
      <stop
         offset="0.50094414"
         style="stop-color:#222989;stop-opacity:1"
         id="stop3302" />
      <stop
         offset="1"
         style="stop-color:#00003d;stop-opacity:1"
         id="stop3298" />
    </linearGradient>
    <linearGradient
       id="linearGradient3242">
      <stop
         offset="0"
         style="stop-color:#282828;stop-opacity:1"
         id="stop3244" />
      <stop
         offset="0.39253417"
         style="stop-color:#969696;stop-opacity:1"
         id="stop3252" />
      <stop
         offset="1"
         style="stop-color:#e3e3e3;stop-opacity:1"
         id="stop3246" />
    </linearGradient>
    <linearGradient
       id="linearGradient3202">
      <stop
         offset="0"
         style="stop-color:#2b2b2b;stop-opacity:1"
         id="stop3204" />
      <stop
         offset="0.5"
         style="stop-color:#828383;stop-opacity:1"
         id="stop3250" />
      <stop
         offset="1"
         style="stop-color:#dadbdb;stop-opacity:1"
         id="stop3206" />
    </linearGradient>
    <linearGradient
       id="linearGradient4966">
      <stop
         offset="0"
         style="stop-color:#b6b3d8;stop-opacity:1"
         id="stop4968" />
      <stop
         offset="1"
         style="stop-color:#b6b3d8;stop-opacity:0"
         id="stop4970" />
    </linearGradient>
    <linearGradient
       gradientTransform="matrix(1.0238095,0,0,1.0119048,-1.1428571,-98.071429)"
       gradientUnits="userSpaceOnUse"
       xlink:href="#ButtonShadow-0-6"
       id="linearGradient3026-5"
       y2="90.238609"
       x2="32.251034"
       y1="6.1317081"
       x1="32.251034" />
    <linearGradient
       gradientTransform="translate(0,-97)"
       gradientUnits="userSpaceOnUse"
       xlink:href="#ButtonShadow-0-6"
       id="linearGradient3721-8"
       y2="90.238609"
       x2="32.251034"
       y1="6.1317081"
       x1="32.251034" />
    <linearGradient
       gradientTransform="matrix(1.0238095,0,0,1.0119048,-1.1428571,-98.071429)"
       gradientUnits="userSpaceOnUse"
       xlink:href="#ButtonShadow-0-6"
       id="linearGradient3725-7"
       y2="90.238609"
       x2="32.251034"
       y1="6.1317081"
       x1="32.251034" />
    <linearGradient
       gradientTransform="matrix(1.0238095,0,0,1.0119048,-1.1428571,-98.071429)"
       gradientUnits="userSpaceOnUse"
       xlink:href="#ButtonShadow-0-6"
       id="linearGradient3772-4"
       y2="90.238609"
       x2="32.251034"
       y1="6.1317081"
       x1="32.251034" />
    <linearGradient
       gradientTransform="matrix(1.0238095,0,0,1.0119048,-1.1428571,-98.071429)"
       gradientUnits="userSpaceOnUse"
       xlink:href="#ButtonShadow-0-6"
       id="linearGradient3780-2"
       y2="90.238609"
       x2="32.251034"
       y1="6.1317081"
       x1="32.251034" />
    <linearGradient
       gradientTransform="matrix(1.0058652,0,0,0.994169,100,0)"
       gradientUnits="userSpaceOnUse"
       id="ButtonShadow-0-6"
       y2="7.0165396"
       x2="45.447727"
       y1="92.539597"
       x1="45.447727">
      <stop
         offset="0"
         style="stop-color:#000000;stop-opacity:1"
         id="stop3750-8-3" />
      <stop
         offset="1"
         style="stop-color:#000000;stop-opacity:0.58823532"
         id="stop3752-5-3" />
    </linearGradient>
    <linearGradient
       gradientTransform="translate(0,-96)"
       gradientUnits="userSpaceOnUse"
       xlink:href="#linearGradient3801"
       id="linearGradient3617-7"
       y2="5.9877172"
       x2="48"
       y1="90"
       x1="48" />
    <clipPath
       id="clipPath3613-9">
      <rect
         style="fill:#ffffff;fill-opacity:1;fill-rule:nonzero;stroke:none"
         id="rect3615-5"
         y="6"
         x="6"
         ry="6"
         rx="6"
         height="84"
         width="84" />
    </clipPath>
    <radialGradient
       gradientTransform="matrix(1.1573129,0,0,0.99590774,-7.5510206,0.19713193)"
       gradientUnits="userSpaceOnUse"
       xlink:href="#linearGradient3737-5"
       id="radialGradient3619-7"
       fy="90.171875"
       fx="48"
       r="42"
       cy="90.171875"
       cx="48" />
    <linearGradient
       gradientUnits="userSpaceOnUse"
       xlink:href="#linearGradient3737-5"
       id="linearGradient3613-0"
       y2="138.66119"
       x2="48"
       y1="20.220806"
       x1="48" />
    <filter
       id="filter3794-8"
       color-interpolation-filters="sRGB"
       height="1.3839999"
       width="1.3839999"
       y="-0.192"
       x="-0.192">
      <feGaussianBlur
         stdDeviation="5.28"
         id="feGaussianBlur3796-6" />
    </filter>
    <linearGradient
       gradientUnits="userSpaceOnUse"
       xlink:href="#linearGradient3737-5"
       id="linearGradient3188-5"
       y2="63.893143"
       x2="36.357143"
       y1="6"
       x1="36.357143" />
    <filter
       id="filter3174-3"
       color-interpolation-filters="sRGB">
      <feGaussianBlur
         stdDeviation="1.71"
         id="feGaussianBlur3176-8" />
    </filter>
    <linearGradient
       id="linearGradient3737-5">
      <stop
         offset="0"
         style="stop-color:#ffffff;stop-opacity:1"
         id="stop3739-4" />
      <stop
         offset="1"
         style="stop-color:#ffffff;stop-opacity:0"
         id="stop3741-9" />
    </linearGradient>
    <linearGradient
       gradientTransform="scale(1.0058652,0.994169)"
       gradientUnits="userSpaceOnUse"
       id="ButtonShadow-3"
       y2="7.0165396"
       x2="45.447727"
       y1="92.539597"
       x1="45.447727">
      <stop
         offset="0"
         style="stop-color:#000000;stop-opacity:1"
         id="stop3750-3" />
      <stop
         offset="1"
         style="stop-color:#000000;stop-opacity:0.58823532"
         id="stop3752-6" />
    </linearGradient>
    <linearGradient
       id="linearGradient3801">
      <stop
         offset="0"
         style="stop-color:#9491c7;stop-opacity:1"
         id="stop3803" />
      <stop
         offset="1"
         style="stop-color:#4b46a7;stop-opacity:0.99215686"
         id="stop3805" />
    </linearGradient>
    <linearGradient
       id="linearGradient3936">
      <stop
         offset="0"
         style="stop-color:#000000;stop-opacity:1"
         id="stop3938" />
      <stop
         offset="1"
         style="stop-color:#000000;stop-opacity:0"
         id="stop3940" />
    </linearGradient>
    <linearGradient
       inkscape:collect="always"
       xlink:href="#ButtonShadow-3"
       id="linearGradient4257"
       gradientUnits="userSpaceOnUse"
       gradientTransform="scale(1.0058652,0.994169)"
       x1="45.447727"
       y1="92.539597"
       x2="45.447727"
       y2="7.0165396" />
    <linearGradient
       inkscape:collect="always"
       xlink:href="#ButtonShadow-0-6"
       id="linearGradient4259"
       gradientUnits="userSpaceOnUse"
       gradientTransform="matrix(1.0238095,0,0,1.0119048,-1.1428571,-98.071429)"
       x1="32.251034"
       y1="6.1317081"
       x2="32.251034"
       y2="90.238609" />
    <linearGradient
       inkscape:collect="always"
       xlink:href="#ButtonShadow-0-6"
       id="linearGradient4261"
       gradientUnits="userSpaceOnUse"
       gradientTransform="matrix(1.0238095,0,0,1.0119048,-1.1428571,-98.071429)"
       x1="32.251034"
       y1="6.1317081"
       x2="32.251034"
       y2="90.238609" />
    <linearGradient
       inkscape:collect="always"
       xlink:href="#ButtonShadow-0-6"
       id="linearGradient4263"
       gradientUnits="userSpaceOnUse"
       gradientTransform="matrix(1.0238095,0,0,1.0119048,-1.1428571,-98.071429)"
       x1="32.251034"
       y1="6.1317081"
       x2="32.251034"
       y2="90.238609" />
    <linearGradient
       inkscape:collect="always"
       xlink:href="#ButtonShadow-0-6"
       id="linearGradient4265"
       gradientUnits="userSpaceOnUse"
       gradientTransform="matrix(1.0238095,0,0,1.0119048,-1.1428571,-98.071429)"
       x1="32.251034"
       y1="6.1317081"
       x2="32.251034"
       y2="90.238609" />
    <linearGradient
       inkscape:collect="always"
       xlink:href="#ButtonShadow-0-6"
       id="linearGradient4267"
       gradientUnits="userSpaceOnUse"
       gradientTransform="translate(0,-97)"
       x1="32.251034"
       y1="6.1317081"
       x2="32.251034"
       y2="90.238609" />
    <linearGradient
       inkscape:collect="always"
       xlink:href="#linearGradient3801"
       id="linearGradient4269"
       gradientUnits="userSpaceOnUse"
       gradientTransform="translate(0,-96)"
       x1="48"
       y1="90"
       x2="48"
       y2="5.9877172" />
    <linearGradient
       inkscape:collect="always"
       xlink:href="#linearGradient3737-5"
       id="linearGradient4271"
       gradientUnits="userSpaceOnUse"
       x1="36.357143"
       y1="6"
       x2="36.357143"
       y2="63.893143" />
    <radialGradient
       inkscape:collect="always"
       xlink:href="#linearGradient3737-5"
       id="radialGradient4273"
       gradientUnits="userSpaceOnUse"
       gradientTransform="matrix(1.1573129,0,0,0.99590774,-7.5510206,0.19713193)"
       cx="48"
       cy="90.171875"
       fx="48"
       fy="90.171875"
       r="42" />
    <linearGradient
       inkscape:collect="always"
       xlink:href="#linearGradient3737-5"
       id="linearGradient4275"
       gradientUnits="userSpaceOnUse"
       x1="48"
       y1="20.220806"
       x2="48"
       y2="138.66119" />
    <radialGradient
       inkscape:collect="always"
       xlink:href="#linearGradient4966"
       id="radialGradient4277"
       gradientUnits="userSpaceOnUse"
       gradientTransform="matrix(0.35132636,0,0,0.21957897,-55.867109,-41.232151)"
       cx="299.70135"
       cy="371.76376"
       fx="299.70135"
       fy="371.76376"
       r="76.696358" />
    <radialGradient
       inkscape:collect="always"
       xlink:href="#linearGradient4966"
       id="radialGradient4279"
       gradientUnits="userSpaceOnUse"
       gradientTransform="matrix(0.27451828,0,0,0.17157392,-32.847623,6.6143846)"
       cx="299.70135"
       cy="371.76376"
       fx="299.70135"
       fy="371.76376"
       r="76.696358" />
    <linearGradient
       inkscape:collect="always"
       xlink:href="#linearGradient3936"
       id="linearGradient4281"
       gradientUnits="userSpaceOnUse"
       gradientTransform="matrix(0.98565429,0.16877686,-0.16877686,0.98565429,-45.008735,-15.895389)"
       x1="102.76233"
       y1="78.680206"
       x2="142.16823"
       y2="30.335871" />
    <radialGradient
       inkscape:collect="always"
       xlink:href="#linearGradient3294"
       id="radialGradient4283"
       gradientUnits="userSpaceOnUse"
       gradientTransform="matrix(-0.02122419,-0.01702548,0.22621343,-0.28200081,-136.43035,244.91947)"
       cx="425.51019"
       cy="356.62274"
       fx="425.51019"
       fy="356.62274"
       r="143.34167" />
    <radialGradient
       inkscape:collect="always"
       xlink:href="#linearGradient3202"
       id="radialGradient4285"
       gradientUnits="userSpaceOnUse"
       gradientTransform="matrix(0.08730492,0.06948468,-0.10650365,0.13381795,-66.303078,90.119143)"
       cx="289.44067"
       cy="390.45248"
       fx="289.44067"
       fy="390.45248"
       r="17.67668" />
    <radialGradient
       inkscape:collect="always"
       xlink:href="#linearGradient3202"
       id="radialGradient4287"
       gradientUnits="userSpaceOnUse"
       gradientTransform="matrix(0.08730492,0.06948468,-0.10650365,0.13381795,-44.944061,65.934759)"
       cx="283.50717"
       cy="382.14804"
       fx="283.50717"
       fy="382.14804"
       r="17.67668" />
    <radialGradient
       inkscape:collect="always"
       xlink:href="#linearGradient3242"
       id="radialGradient4289"
       gradientUnits="userSpaceOnUse"
       gradientTransform="matrix(-0.01380294,-0.0125728,0.35517379,-0.38992442,-103.15415,193.49332)"
       cx="418.45551"
       cy="181.18982"
       fx="418.45551"
       fy="181.18982"
       r="63.068935" />
    <linearGradient
       inkscape:collect="always"
       xlink:href="#linearGradient3936"
       id="linearGradient4291"
       gradientUnits="userSpaceOnUse"
       gradientTransform="matrix(0.84815852,0.52974252,-0.52974252,0.84815852,-2.1584304,-41.320509)"
       x1="103.94804"
       y1="79.295097"
       x2="134.48746"
       y2="41.356407" />
    <linearGradient
       inkscape:collect="always"
       xlink:href="#linearGradient3936"
       id="linearGradient4363"
       gradientUnits="userSpaceOnUse"
       gradientTransform="matrix(0.84815852,0.52974252,-0.52974252,0.84815852,74.082703,-45.469704)"
       x1="103.94804"
       y1="79.295097"
       x2="134.48746"
       y2="41.356407" />
    <linearGradient
       inkscape:collect="always"
       xlink:href="#linearGradient3936"
       id="linearGradient4373"
       gradientUnits="userSpaceOnUse"
       gradientTransform="matrix(0.98565429,0.16877686,-0.16877686,0.98565429,31.232398,-20.044584)"
       x1="102.76233"
       y1="78.680206"
       x2="142.16823"
       y2="30.335871" />
    <radialGradient
       inkscape:collect="always"
       xlink:href="#linearGradient3294"
       id="radialGradient4375"
       gradientUnits="userSpaceOnUse"
       gradientTransform="matrix(-0.02122419,-0.01702548,0.22621343,-0.28200081,-136.43035,244.91947)"
       cx="425.51019"
       cy="356.62274"
       fx="425.51019"
       fy="356.62274"
       r="143.34167" />
    <radialGradient
       inkscape:collect="always"
       xlink:href="#linearGradient3202"
       id="radialGradient4377"
       gradientUnits="userSpaceOnUse"
       gradientTransform="matrix(0.08730492,0.06948468,-0.10650365,0.13381795,-66.303078,90.119143)"
       cx="289.44067"
       cy="390.45248"
       fx="289.44067"
       fy="390.45248"
       r="17.67668" />
    <radialGradient
       inkscape:collect="always"
       xlink:href="#linearGradient3202"
       id="radialGradient4379"
       gradientUnits="userSpaceOnUse"
       gradientTransform="matrix(0.08730492,0.06948468,-0.10650365,0.13381795,-44.944061,65.934759)"
       cx="283.50717"
       cy="382.14804"
       fx="283.50717"
       fy="382.14804"
       r="17.67668" />
    <radialGradient
       inkscape:collect="always"
       xlink:href="#linearGradient3242"
       id="radialGradient4381"
       gradientUnits="userSpaceOnUse"
       gradientTransform="matrix(-0.01380294,-0.0125728,0.35517379,-0.38992442,-103.15415,193.49332)"
       cx="418.45551"
       cy="181.18982"
       fx="418.45551"
       fy="181.18982"
       r="63.068935" />
    <radialGradient
       inkscape:collect="always"
       xlink:href="#linearGradient4497"
       id="radialGradient4489"
       gradientUnits="userSpaceOnUse"
       gradientTransform="matrix(-0.02122419,-0.01702548,0.22621343,-0.28200081,-136.43035,244.91947)"
       cx="425.51019"
       cy="356.62274"
       fx="425.51019"
       fy="356.62274"
       r="143.34167" />
    <radialGradient
       inkscape:collect="always"
       xlink:href="#linearGradient3202"
       id="radialGradient4491"
       gradientUnits="userSpaceOnUse"
       gradientTransform="matrix(0.08730492,0.06948468,-0.10650365,0.13381795,-66.303078,90.119143)"
       cx="289.44067"
       cy="390.45248"
       fx="289.44067"
       fy="390.45248"
       r="17.67668" />
    <radialGradient
       inkscape:collect="always"
       xlink:href="#linearGradient3202"
       id="radialGradient4493"
       gradientUnits="userSpaceOnUse"
       gradientTransform="matrix(0.08730492,0.06948468,-0.10650365,0.13381795,-44.944061,65.934759)"
       cx="283.50717"
       cy="382.14804"
       fx="283.50717"
       fy="382.14804"
       r="17.67668" />
    <radialGradient
       inkscape:collect="always"
       xlink:href="#linearGradient3242"
       id="radialGradient4495"
       gradientUnits="userSpaceOnUse"
       gradientTransform="matrix(-0.01380294,-0.0125728,0.35517379,-0.38992442,-103.15415,193.49332)"
       cx="418.45551"
       cy="181.18982"
       fx="418.45551"
       fy="181.18982"
       r="63.068935" />
    <radialGradient
       inkscape:collect="always"
       xlink:href="#linearGradient4497"
       id="radialGradient4519"
       gradientUnits="userSpaceOnUse"
       gradientTransform="matrix(-0.02122419,-0.01702548,0.22621343,-0.28200081,-136.43035,244.91947)"
       cx="425.51019"
       cy="356.62274"
       fx="425.51019"
       fy="356.62274"
       r="143.34167" />
    <radialGradient
       inkscape:collect="always"
       xlink:href="#linearGradient3202"
       id="radialGradient4521"
       gradientUnits="userSpaceOnUse"
       gradientTransform="matrix(0.08730492,0.06948468,-0.10650365,0.13381795,-66.303078,90.119143)"
       cx="289.44067"
       cy="390.45248"
       fx="289.44067"
       fy="390.45248"
       r="17.67668" />
    <radialGradient
       inkscape:collect="always"
       xlink:href="#linearGradient3202"
       id="radialGradient4523"
       gradientUnits="userSpaceOnUse"
       gradientTransform="matrix(0.08730492,0.06948468,-0.10650365,0.13381795,-44.944061,65.934759)"
       cx="283.50717"
       cy="382.14804"
       fx="283.50717"
       fy="382.14804"
       r="17.67668" />
    <radialGradient
       inkscape:collect="always"
       xlink:href="#linearGradient3242"
       id="radialGradient4525"
       gradientUnits="userSpaceOnUse"
       gradientTransform="matrix(-0.01380294,-0.0125728,0.35517379,-0.38992442,-103.15415,193.49332)"
       cx="418.45551"
       cy="181.18982"
       fx="418.45551"
       fy="181.18982"
       r="63.068935" />
    <linearGradient
       inkscape:collect="always"
       xlink:href="#linearGradient4527"
       id="linearGradient4533"
       x1="6"
       y1="48"
       x2="90"
       y2="48"
       gradientUnits="userSpaceOnUse" />
  </defs>
  <metadata
     id="metadata2413">
    <rdf:RDF>
      <cc:Work
         rdf:about="">
        <dc:format>image/svg+xml</dc:format>
        <dc:type
           rdf:resource="http://purl.org/dc/dcmitype/StillImage" />
        <dc:title></dc:title>
      </cc:Work>
    </rdf:RDF>
  </metadata>
  <g
     id="layer2"
     style="display:none">
    <rect
       width="86"
       height="85"
       rx="6"
       ry="6"
       x="5"
       y="7"
       id="rect3745"
       style="opacity:0.9;fill:url(#ButtonShadow);fill-opacity:1;fill-rule:nonzero;stroke:none;filter:url(#filter3174)" />
  </g>
  <g
     id="layer3">
    <path
       d="m 12,-95.03125 c -5.5110903,0 -10.03125,4.52016 -10.03125,10.03125 l 0,71 c 0,5.5110902 4.5201598,10.03125 10.03125,10.03125 l 72,0 c 5.51109,0 10.03125,-4.5201597 10.03125,-10.03125 l 0,-71 c 0,-5.51109 -4.52016,-10.03125 -10.03125,-10.03125 l -72,0 z"
       transform="scale(1,-1)"
       id="path3786"
       style="opacity:0.07999998;fill:url(#linearGradient3026);fill-opacity:1;fill-rule:nonzero;stroke:none;display:inline" />
    <path
       d="m 12,-94.03125 c -4.971633,0 -9.03125,4.059617 -9.03125,9.03125 l 0,71 c 0,4.9716329 4.0596171,9.03125 9.03125,9.03125 l 72,0 c 4.971633,0 9.03125,-4.059617 9.03125,-9.03125 l 0,-71 c 0,-4.971633 -4.059617,-9.03125 -9.03125,-9.03125 l -72,0 z"
       transform="scale(1,-1)"
       id="path3778"
       style="opacity:0.1;fill:url(#linearGradient3780);fill-opacity:1;fill-rule:nonzero;stroke:none;display:inline" />
    <path
       d="m 12,-93 c -4.4091333,0 -8,3.590867 -8,8 l 0,71 c 0,4.4091333 3.5908667,8 8,8 l 72,0 c 4.409133,0 8,-3.5908667 8,-8 l 0,-71 c 0,-4.409133 -3.590867,-8 -8,-8 l -72,0 z"
       transform="scale(1,-1)"
       id="path3770"
       style="opacity:0.2;fill:url(#linearGradient3772);fill-opacity:1;fill-rule:nonzero;stroke:none;display:inline" />
    <rect
       width="86"
       height="85"
       rx="7"
       ry="7"
       x="5"
       y="-92"
       transform="scale(1,-1)"
       id="rect3723"
       style="opacity:0.3;fill:url(#linearGradient3725);fill-opacity:1;fill-rule:nonzero;stroke:none;display:inline" />
    <rect
       width="84"
       height="84"
       rx="6"
       ry="6"
       x="6"
       y="-91"
       transform="scale(1,-1)"
       id="rect3716"
       style="opacity:0.45;fill:url(#linearGradient3721);fill-opacity:1;fill-rule:nonzero;stroke:none;display:inline" />
  </g>
  <g
     id="layer1">
    <rect
       width="84"
       height="84"
       rx="6"
       ry="6"
       x="6"
       y="6"
       id="rect2419"
       style="fill:url(#linearGradient3617);fill-opacity:1;fill-rule:nonzero;stroke:none" />
    <path
       inkscape:connector-curvature="0"
       id="path4004"
       d="M 12,6 C 8.676,6 6,8.676 6,12 l 0,72 c 0,3.324 2.676,6 6,6 l 72,0 c 3.324,0 6,-2.676 6,-6 L 90,12 C 90,8.676 87.324,6 84,6 L 12,6 z m 0,3 72,0 c 1.713892,0 3,1.28611 3,3 l 0,72 c 0,1.71389 -1.286108,3 -3,3 L 12,87 C 10.286108,87 9,85.71389 9,84 L 9,12 c 0,-1.71389 1.286108,-3 3,-3 z"
       style="font-size:medium;font-style:normal;font-variant:normal;font-weight:normal;font-stretch:normal;text-indent:0;text-align:start;text-decoration:none;line-height:normal;letter-spacing:normal;word-spacing:normal;text-transform:none;direction:ltr;block-progression:tb;writing-mode:lr-tb;text-anchor:start;baseline-shift:baseline;color:#000000;fill:url(#linearGradient4533);fill-opacity:1;stroke:none;stroke-width:6;marker:none;visibility:visible;display:inline;overflow:visible;enable-background:accumulate;font-family:Sans;-inkscape-font-specification:Sans" />
    <path
       d="M 12,6 C 8.676,6 6,8.676 6,12 l 0,2 0,68 0,2 c 0,0.334721 0.04135,0.6507 0.09375,0.96875 0.0487,0.295596 0.09704,0.596915 0.1875,0.875 0.00988,0.03038 0.020892,0.0636 0.03125,0.09375 0.098865,0.287771 0.2348802,0.547452 0.375,0.8125 0.1445918,0.273507 0.3156161,0.535615 0.5,0.78125 0.1843839,0.245635 0.3737765,0.473472 0.59375,0.6875 0.439947,0.428056 0.94291,0.814526 1.5,1.09375 0.278545,0.139612 0.5734731,0.246947 0.875,0.34375 -0.2562018,-0.100222 -0.4867109,-0.236272 -0.71875,-0.375 -0.00741,-0.0044 -0.023866,0.0045 -0.03125,0 -0.031933,-0.0193 -0.062293,-0.04251 -0.09375,-0.0625 -0.120395,-0.0767 -0.2310226,-0.163513 -0.34375,-0.25 -0.1061728,-0.0808 -0.2132809,-0.161112 -0.3125,-0.25 C 8.4783201,88.557317 8.3087904,88.373362 8.15625,88.1875 8.0486711,88.057245 7.9378561,87.922215 7.84375,87.78125 7.818661,87.74287 7.805304,87.69538 7.78125,87.65625 7.716487,87.553218 7.6510225,87.451733 7.59375,87.34375 7.4927417,87.149044 7.3880752,86.928049 7.3125,86.71875 7.30454,86.69694 7.288911,86.6782 7.28125,86.65625 7.2494249,86.5643 7.2454455,86.469419 7.21875,86.375 7.1884177,86.268382 7.1483606,86.171969 7.125,86.0625 7.0521214,85.720988 7,85.364295 7,85 L 7,83 7,15 7,13 C 7,10.218152 9.2181517,8 12,8 l 2,0 68,0 2,0 c 2.781848,0 5,2.218152 5,5 l 0,2 0,68 0,2 c 0,0.364295 -0.05212,0.720988 -0.125,1.0625 -0.04415,0.206893 -0.08838,0.397658 -0.15625,0.59375 -0.0077,0.02195 -0.0233,0.04069 -0.03125,0.0625 -0.06274,0.173739 -0.138383,0.367449 -0.21875,0.53125 -0.04158,0.0828 -0.07904,0.169954 -0.125,0.25 -0.0546,0.09721 -0.126774,0.18835 -0.1875,0.28125 -0.09411,0.140965 -0.204921,0.275995 -0.3125,0.40625 -0.143174,0.17445 -0.303141,0.346998 -0.46875,0.5 -0.01117,0.0102 -0.01998,0.02115 -0.03125,0.03125 -0.138386,0.125556 -0.285091,0.234436 -0.4375,0.34375 -0.102571,0.07315 -0.204318,0.153364 -0.3125,0.21875 -0.0074,0.0045 -0.02384,-0.0044 -0.03125,0 -0.232039,0.138728 -0.462548,0.274778 -0.71875,0.375 0.301527,-0.0968 0.596455,-0.204138 0.875,-0.34375 0.55709,-0.279224 1.060053,-0.665694 1.5,-1.09375 0.219973,-0.214028 0.409366,-0.441865 0.59375,-0.6875 0.184384,-0.245635 0.355408,-0.507743 0.5,-0.78125 0.14012,-0.265048 0.276135,-0.524729 0.375,-0.8125 0.01041,-0.03078 0.02133,-0.06274 0.03125,-0.09375 0.09046,-0.278085 0.1388,-0.579404 0.1875,-0.875 C 89.95865,84.6507 90,84.334721 90,84 l 0,-2 0,-68 0,-2 C 90,8.676 87.324,6 84,6 L 12,6 z"
       inkscape:connector-curvature="0"
       id="rect3728"
       style="opacity:0.35;fill:url(#linearGradient3188);fill-opacity:1;fill-rule:nonzero;stroke:none" />
    <path
       d="M 12,90 C 8.676,90 6,87.324 6,84 L 6,82 6,14 6,12 c 0,-0.334721 0.04135,-0.6507 0.09375,-0.96875 0.0487,-0.295596 0.09704,-0.596915 0.1875,-0.875 C 6.29113,10.12587 6.302142,10.09265 6.3125,10.0625 6.411365,9.774729 6.5473802,9.515048 6.6875,9.25 6.8320918,8.976493 7.0031161,8.714385 7.1875,8.46875 7.3718839,8.223115 7.5612765,7.995278 7.78125,7.78125 8.221197,7.353194 8.72416,6.966724 9.28125,6.6875 9.559795,6.547888 9.8547231,6.440553 10.15625,6.34375 9.9000482,6.443972 9.6695391,6.580022 9.4375,6.71875 c -0.00741,0.0044 -0.023866,-0.0045 -0.03125,0 -0.031933,0.0193 -0.062293,0.04251 -0.09375,0.0625 -0.120395,0.0767 -0.2310226,0.163513 -0.34375,0.25 -0.1061728,0.0808 -0.2132809,0.161112 -0.3125,0.25 C 8.4783201,7.442683 8.3087904,7.626638 8.15625,7.8125 8.0486711,7.942755 7.9378561,8.077785 7.84375,8.21875 7.818661,8.25713 7.805304,8.30462 7.78125,8.34375 7.716487,8.446782 7.6510225,8.548267 7.59375,8.65625 7.4927417,8.850956 7.3880752,9.071951 7.3125,9.28125 7.30454,9.30306 7.288911,9.3218 7.28125,9.34375 7.2494249,9.4357 7.2454455,9.530581 7.21875,9.625 7.1884177,9.731618 7.1483606,9.828031 7.125,9.9375 7.0521214,10.279012 7,10.635705 7,11 l 0,2 0,68 0,2 c 0,2.781848 2.2181517,5 5,5 l 2,0 68,0 2,0 c 2.781848,0 5,-2.218152 5,-5 l 0,-2 0,-68 0,-2 C 89,10.635705 88.94788,10.279012 88.875,9.9375 88.83085,9.730607 88.78662,9.539842 88.71875,9.34375 88.71105,9.3218 88.69545,9.30306 88.6875,9.28125 88.62476,9.107511 88.549117,8.913801 88.46875,8.75 88.42717,8.6672 88.38971,8.580046 88.34375,8.5 88.28915,8.40279 88.216976,8.31165 88.15625,8.21875 88.06214,8.077785 87.951329,7.942755 87.84375,7.8125 87.700576,7.63805 87.540609,7.465502 87.375,7.3125 87.36383,7.3023 87.35502,7.29135 87.34375,7.28125 87.205364,7.155694 87.058659,7.046814 86.90625,6.9375 86.803679,6.86435 86.701932,6.784136 86.59375,6.71875 c -0.0074,-0.0045 -0.02384,0.0044 -0.03125,0 -0.232039,-0.138728 -0.462548,-0.274778 -0.71875,-0.375 0.301527,0.0968 0.596455,0.204138 0.875,0.34375 0.55709,0.279224 1.060053,0.665694 1.5,1.09375 0.219973,0.214028 0.409366,0.441865 0.59375,0.6875 0.184384,0.245635 0.355408,0.507743 0.5,0.78125 0.14012,0.265048 0.276135,0.524729 0.375,0.8125 0.01041,0.03078 0.02133,0.06274 0.03125,0.09375 0.09046,0.278085 0.1388,0.579404 0.1875,0.875 C 89.95865,11.3493 90,11.665279 90,12 l 0,2 0,68 0,2 c 0,3.324 -2.676,6 -6,6 l -72,0 z"
       inkscape:connector-curvature="0"
       id="path3615"
       style="opacity:0.2;fill:url(#radialGradient3619);fill-opacity:1;fill-rule:nonzero;stroke:none" />
    <g
       id="g3164"
       transform="matrix(1.5002955,0,0,1.5002955,111.79551,-110.30247)">
      <path
         id="path3160"
         d="m -40.521476,89.529963 c -8.601453,0.268299 -15.5,7.302175 -15.5,15.968747 0,2.76142 -2.238577,5 -4.999997,5 l 0,11 c 8.836552,0 15.999997,-7.16344 15.999997,-16 0,-2.58883 1.978719,-4.7127 4.5,-4.96875 l 0,-10.999997 z"
         style="fill:#ffffff;fill-opacity:1;stroke:none"
         inkscape:connector-curvature="0" />
      <path
         style="fill:#ffffff;fill-opacity:1;stroke:none"
         d="m -39.522449,89.529963 0,10.999997 c 0.0099,9.5e-4 0.0214,-0.001 0.03125,0 0.304194,0.0328 0.589368,0.10277 0.875,0.1875 0.06665,0.0192 0.122022,0.0719 0.1875,0.0937 0.203407,0.068 0.402931,0.1263 0.59375,0.21875 0.02865,0.0139 0.0654,0.0168 0.09375,0.0312 0.08782,0.0447 0.165269,0.10662 0.25,0.15625 0.173551,0.10219 0.340633,0.19087 0.5,0.3125 0.03518,0.0266 0.05931,0.0662 0.09375,0.0937 0.204246,0.16327 0.38624,0.33845 0.5625,0.53125 0.20246,0.22164 0.40224,0.43215 0.5625,0.6875 0.08689,0.13759 0.145346,0.29128 0.21875,0.4375 0.06241,0.12519 0.1356,0.24412 0.1875,0.375 0.01588,0.0397 0.01637,0.0848 0.03125,0.125 0.09101,0.2477 0.167808,0.51689 0.21875,0.78125 0.05898,0.30713 0.09375,0.61316 0.09375,0.9375 0,0.33476 -0.03101,0.68367 -0.09375,1 -0.002,0.01 0.0021,0.0215 0,0.0312 -0.131324,0.64176 -0.398459,1.2235 -0.75,1.75 -0.0044,0.007 0.0044,0.0247 0,0.0312 -0.359414,0.532 -0.811747,0.98434 -1.34375,1.34375 -0.0065,0.004 -0.02471,-0.004 -0.03125,0 -0.526504,0.35154 -1.108236,0.61868 -1.75,0.75 -0.0097,0.002 -0.02148,-0.002 -0.03125,0 -0.316334,0.0627 -0.665242,0.0937 -1,0.0937 l -0.5,0 -4.5,0 0,11 5,0 c 8.836556,0 16,-7.16344 16,-16 0,-8.666572 -6.898547,-15.700448 -15.5,-15.968747 z"
         id="path3162"
         inkscape:connector-curvature="0" />
    </g>
    <path
       style="opacity:0.47507329999999998;fill:url(#linearGradient4013);fill-opacity:1;fill-rule:nonzero;stroke:none"
       d="M 12,6 C 8.676,6 6,8.676 6,12 l 0,36.84375 c 4.493669,12.922648 21.608103,-3.44017 27.6875,-6.4375 7.969767,-3.785639 22.287588,-10.344767 28.862646,-4.168198 4.323792,4.061744 11.920686,8.459349 17.579295,9.521433 C 86.284541,48.876258 90.063946,45.360234 90,40.25 L 90,12 C 90,8.676 87.324,6 84,6 z"
       id="rect4006"
       inkscape:connector-curvature="0"
       sodipodi:nodetypes="ssccsccsss" />
    <g
       id="layer2-0"
       style="display:none"
       transform="translate(223.30869,12.145502)">
      <rect
         width="86"
         height="85"
         rx="6"
         ry="6"
         x="5"
         y="7"
         id="rect3745-9"
         style="opacity:0.9;fill:url(#linearGradient4257);fill-opacity:1;fill-rule:nonzero;stroke:none;filter:url(#filter3174-3)" />
    </g>
    <g
       transform="matrix(-0.76261093,-0.43468937,-0.43468937,0.76261093,86.504597,-99.414815)"
       id="g4505"
       style="display:inline"
       inkscape:transform-center-x="8.2606286"
       inkscape:transform-center-y="-39.857366">
      <g
         transform="matrix(0.21052296,0,0,0.21052296,-139.34468,79.702555)"
         id="g4507">
        <path
           d="m 279.476,404.243 c -0.007,-0.004 -7.446,-4.112 -16.804,-11.401 l 0,0 c -8.082,-6.285 -13.538,-12.214 -13.544,-12.22 l 0,0 -0.122,-0.133 3.646,-4.669 0.157,-0.205 0.169,0.197 c 0.017,0.01 5.4,6.295 13.725,12.78 l 0,0 c 7.913,6.157 16.594,10.586 16.612,10.595 l 0,0 0.229,0.117 -3.911,5.026 -0.157,-0.087 0,0 z m -16.542,-11.737 c 8.545,6.656 15.469,10.644 16.589,11.275 l 0,0 3.372,-4.334 c -1.423,-0.743 -9.253,-4.919 -16.453,-10.521 l 0,0 c -7.504,-5.845 -12.637,-11.533 -13.614,-12.645 l 0,0 -3.264,4.184 c 0.849,0.905 6.01,6.32 13.37,12.041 l 0,0 z"
           inkscape:connector-curvature="0"
           id="path4509"
           style="fill:#4d4d4d" />
      </g>
      <path
         d="m -80.520491,164.42315 c 0,0 11.20545,-12.0216 22.173568,-25.25929 l 0.479092,0.14793 c 0,0 22.746706,-24.92865 17.182764,-26.94694 0,0 -2.781971,-5.50939 -24.601354,21.00116 l -0.04196,0.39783 c -10.067183,11.61004 -21.252943,25.76582 -21.252943,25.76582 -8.640035,12.42004 -13.770056,21.60008 -13.345768,22.48723 0.576731,1.20589 19.440079,-17.47293 19.4066,-17.59374 z"
         inkscape:connector-curvature="0"
         id="path4511"
         style="fill:url(#radialGradient4519);fill-opacity:1;fill-rule:evenodd;stroke:#000030;stroke-width:0.55904901;stroke-linecap:butt;stroke-linejoin:miter;stroke-miterlimit:4;stroke-opacity:1;stroke-dasharray:none" />
      <path
         d="m -86.947753,159.76108 c 2.449296,2.50716 6.441455,5.05288 6.441455,5.05288 l 0.790716,-1.00286 c -2.709026,-1.41579 -6.480025,-5.0143 -6.480025,-5.0143 l -0.752146,0.96428 z"
         inkscape:connector-curvature="0"
         id="path4513"
         style="fill:url(#radialGradient4521);fill-opacity:1;fill-rule:evenodd;stroke:none" />
      <path
         d="m -65.762308,133.68669 c 4.320018,2.75787 7.714317,6.09431 7.714317,6.09431 l 0.578572,-0.675 c -2.304024,-2.43794 -7.723275,-6.12627 -7.723275,-6.12627 l -0.569614,0.70696 z"
         inkscape:connector-curvature="0"
         id="path4515"
         style="fill:url(#radialGradient4523);fill-opacity:1;fill-rule:evenodd;stroke:none" />
      <path
         d="m -42.031143,111.66232 c 2.275724,0.19285 2.661442,2.19858 2.661442,2.19858 -10.375759,10.80004 -25.572963,26.49868 -25.572963,26.49868 l -0.771432,-0.65572 c 13.384341,-16.04578 23.682953,-28.04154 23.682953,-28.04154"
         inkscape:connector-curvature="0"
         id="path4517"
         style="fill:url(#radialGradient4525);fill-opacity:1;fill-rule:evenodd;stroke:none" />
    </g>
  </g>
  <g
     id="layer5" />
</svg>
