<?xml version="1.0" encoding="UTF-8" standalone="no"?>
<!-- Created with Inkscape (http://www.inkscape.org/) -->

<svg
   xmlns:dc="http://purl.org/dc/elements/1.1/"
   xmlns:cc="http://creativecommons.org/ns#"
   xmlns:rdf="http://www.w3.org/1999/02/22-rdf-syntax-ns#"
   xmlns:svg="http://www.w3.org/2000/svg"
   xmlns="http://www.w3.org/2000/svg"
   xmlns:xlink="http://www.w3.org/1999/xlink"
   xmlns:inkscape="http://www.inkscape.org/namespaces/inkscape"
   version="1.0"
   width="96"
   height="96"
   id="svg2408">
  <defs
     id="defs2410">
    <linearGradient
       id="linearGradient4367">
      <stop
         id="stop4369"
         style="stop-color:#ffffff;stop-opacity:0.71755725"
         offset="0" />
      <stop
         id="stop4371"
         style="stop-color:#ffffff;stop-opacity:1"
         offset="1" />
    </linearGradient>
    <linearGradient
       x1="45.447727"
       y1="92.539597"
       x2="45.447727"
       y2="7.0165396"
       id="ButtonShadow"
       gradientUnits="userSpaceOnUse"
       gradientTransform="scale(1.0058652,0.994169)">
      <stop
         id="stop3750"
         style="stop-color:#000000;stop-opacity:1"
         offset="0" />
      <stop
         id="stop3752"
         style="stop-color:#000000;stop-opacity:0.58823532"
         offset="1" />
    </linearGradient>
    <linearGradient
       id="linearGradient3737">
      <stop
         id="stop3739"
         style="stop-color:#ffffff;stop-opacity:1"
         offset="0" />
      <stop
         id="stop3741"
         style="stop-color:#ffffff;stop-opacity:0"
         offset="1" />
    </linearGradient>
    <filter
       color-interpolation-filters="sRGB"
       id="filter3174">
      <feGaussianBlur
         id="feGaussianBlur3176"
         stdDeviation="1.71" />
    </filter>
    <filter
       x="-0.192"
       y="-0.192"
       width="1.3839999"
       height="1.3839999"
       color-interpolation-filters="sRGB"
       id="filter3794">
      <feGaussianBlur
         id="feGaussianBlur3796"
         stdDeviation="5.28" />
    </filter>
    <linearGradient
       x1="48"
       y1="20.220806"
       x2="48"
       y2="138.66119"
       id="linearGradient3613"
       xlink:href="#linearGradient3737"
       gradientUnits="userSpaceOnUse" />
    <linearGradient
       x1="45.447727"
       y1="92.539597"
       x2="45.447727"
       y2="7.0165396"
       id="ButtonShadow-0"
       gradientUnits="userSpaceOnUse"
       gradientTransform="matrix(1.0058652,0,0,0.994169,100,0)">
      <stop
         id="stop3750-8"
         style="stop-color:#000000;stop-opacity:1"
         offset="0" />
      <stop
         id="stop3752-5"
         style="stop-color:#000000;stop-opacity:0.58823532"
         offset="1" />
    </linearGradient>
    <linearGradient
       x1="32.251034"
       y1="6.1317081"
       x2="32.251034"
       y2="90.238609"
       id="linearGradient3780"
       xlink:href="#ButtonShadow-0"
       gradientUnits="userSpaceOnUse"
       gradientTransform="matrix(1.0238095,0,0,1.0119048,-1.1428571,-98.071429)" />
    <linearGradient
       x1="32.251034"
       y1="6.1317081"
       x2="32.251034"
       y2="90.238609"
       id="linearGradient3772"
       xlink:href="#ButtonShadow-0"
       gradientUnits="userSpaceOnUse"
       gradientTransform="matrix(1.0238095,0,0,1.0119048,-1.1428571,-98.071429)" />
    <linearGradient
       x1="32.251034"
       y1="6.1317081"
       x2="32.251034"
       y2="90.238609"
       id="linearGradient3725"
       xlink:href="#ButtonShadow-0"
       gradientUnits="userSpaceOnUse"
       gradientTransform="matrix(1.0238095,0,0,1.0119048,-1.1428571,-98.071429)" />
    <linearGradient
       x1="32.251034"
       y1="6.1317081"
       x2="32.251034"
       y2="90.238609"
       id="linearGradient3721"
       xlink:href="#ButtonShadow-0"
       gradientUnits="userSpaceOnUse"
       gradientTransform="translate(0,-97)" />
    <linearGradient
       x1="32.251034"
       y1="6.1317081"
       x2="32.251034"
       y2="90.238609"
       id="linearGradient3026"
       xlink:href="#ButtonShadow-0"
       gradientUnits="userSpaceOnUse"
       gradientTransform="matrix(1.0238095,0,0,1.0119048,-1.1428571,-98.071429)" />
    <clipPath
       id="clipPath4355">
      <rect
         width="84"
         height="80"
         rx="6"
         ry="6"
         x="6"
         y="6"
         id="rect4357"
         style="fill:#ffffff;fill-opacity:1;fill-rule:nonzero;stroke:none" />
    </clipPath>
    <radialGradient
       cx="48"
       cy="87.792389"
       r="42"
       fx="48"
       fy="87.792389"
       id="radialGradient4375"
       xlink:href="#linearGradient4367"
       gradientUnits="userSpaceOnUse"
       gradientTransform="matrix(1,-6.7114942e-8,8.4282233e-8,1.2557894,109.99999,-24.505592)" />
    <linearGradient
       id="linearGradient3892">
      <stop
         id="stop3894"
         style="stop-color:#000000;stop-opacity:0.58823532"
         offset="0" />
      <stop
         id="stop3896"
         style="stop-color:#000000;stop-opacity:0.47058824"
         offset="0.11780351" />
      <stop
         id="stop3898"
         style="stop-color:#000000;stop-opacity:0.39215687"
         offset="0.23809524" />
      <stop
         id="stop3900"
         style="stop-color:#000000;stop-opacity:0.3137255"
         offset="1" />
    </linearGradient>
    <linearGradient
       x1="90"
       y1="88"
       x2="48"
       y2="88"
       id="linearGradient3228"
       xlink:href="#linearGradient3892"
       gradientUnits="userSpaceOnUse"
       spreadMethod="reflect" />
    <linearGradient
       id="linearGradient3700-7">
      <stop
         id="stop3702-1"
         style="stop-color:#da4714;stop-opacity:1"
         offset="0" />
      <stop
         id="stop3704-1"
         style="stop-color:#ee743e;stop-opacity:1"
         offset="1" />
    </linearGradient>
    <linearGradient
       x1="48"
       y1="90"
       x2="48"
       y2="5.9877172"
       id="linearGradient3083"
       xlink:href="#linearGradient3700-7"
       gradientUnits="userSpaceOnUse" />
    <linearGradient
       id="linearGradient3700-9">
      <stop
         id="stop3702-6"
         style="stop-color:#73004b;stop-opacity:1"
         offset="0" />
      <stop
         id="stop3704-2"
         style="stop-color:#a20069;stop-opacity:1"
         offset="1" />
    </linearGradient>
    <linearGradient
       x1="48"
       y1="90"
       x2="48"
       y2="5.9877172"
       id="linearGradient3049"
       xlink:href="#linearGradient3700-9"
       gradientUnits="userSpaceOnUse"
       gradientTransform="translate(-190,0)" />
    <linearGradient
       x1="48"
       y1="44.5"
       x2="119.60932"
       y2="44.651531"
       id="linearGradient3957"
       xlink:href="#linearGradient3951"
       gradientUnits="userSpaceOnUse"
       spreadMethod="reflect" />
    <linearGradient
       id="linearGradient3951">
      <stop
         id="stop3953"
         style="stop-color:#000000;stop-opacity:1"
         offset="0" />
      <stop
         id="stop3955"
         style="stop-color:#000000;stop-opacity:0"
         offset="1" />
    </linearGradient>
    <linearGradient
       x1="46"
       y1="7"
       x2="46"
       y2="44"
       id="linearGradient3944"
       xlink:href="#linearGradient4384-9"
       gradientUnits="userSpaceOnUse"
       gradientTransform="translate(1,40)" />
    <linearGradient
       id="linearGradient4384-9">
      <stop
         id="stop4386-6"
         style="stop-color:#ffffff;stop-opacity:1"
         offset="0" />
      <stop
         id="stop4388-2"
         style="stop-color:#ffffff;stop-opacity:0"
         offset="1" />
    </linearGradient>
    <linearGradient
       x1="46"
       y1="7"
       x2="46"
       y2="61"
       id="linearGradient3940"
       xlink:href="#linearGradient4384-9"
       gradientUnits="userSpaceOnUse"
       gradientTransform="translate(3,0)" />
    <linearGradient
       x1="46"
       y1="7"
       x2="46"
       y2="61"
       id="linearGradient3936"
       xlink:href="#linearGradient4384-9"
       gradientUnits="userSpaceOnUse"
       gradientTransform="translate(1,0)" />
    <linearGradient
       x1="50"
       y1="8"
       x2="50"
       y2="128"
       id="linearGradient3926"
       xlink:href="#linearGradient4384-9"
       gradientUnits="userSpaceOnUse" />
    <linearGradient
       x1="72"
       y1="64"
       x2="72"
       y2="8"
       id="linearGradient3868"
       xlink:href="#linearGradient3856-9"
       gradientUnits="userSpaceOnUse" />
    <linearGradient
       id="linearGradient3856-9">
      <stop
         id="stop3858-8"
         style="stop-color:#dcdcdc;stop-opacity:1"
         offset="0" />
      <stop
         id="stop3860-1"
         style="stop-color:#f5f5f5;stop-opacity:1"
         offset="1" />
    </linearGradient>
    <linearGradient
       x1="48"
       y1="88"
       x2="48"
       y2="-40"
       id="linearGradient4390"
       xlink:href="#linearGradient4384-9"
       gradientUnits="userSpaceOnUse"
       gradientTransform="matrix(1,0,0,-1,0,92)" />
    <linearGradient
       x1="48"
       y1="82"
       x2="112.12357"
       y2="82.454597"
       id="linearGradient4429"
       xlink:href="#linearGradient4384-9"
       gradientUnits="userSpaceOnUse"
       spreadMethod="reflect" />
    <linearGradient
       x1="71.149818"
       y1="88.220551"
       x2="71.149818"
       y2="16.638798"
       id="linearGradient3973-5"
       xlink:href="#linearGradient3856-6"
       gradientUnits="userSpaceOnUse"
       gradientTransform="translate(0,70)" />
    <linearGradient
       id="linearGradient3856-6">
      <stop
         id="stop3858-4"
         style="stop-color:#dcdcdc;stop-opacity:1"
         offset="0" />
      <stop
         id="stop3860-3"
         style="stop-color:#f5f5f5;stop-opacity:1"
         offset="1" />
    </linearGradient>
    <linearGradient
       x1="71.149818"
       y1="88.220551"
       x2="71.149818"
       y2="16.638798"
       id="linearGradient4281"
       xlink:href="#linearGradient3856-6"
       gradientUnits="userSpaceOnUse"
       gradientTransform="matrix(0.80997959,0,0,0.80997959,61.984388,12.72107)" />
    <linearGradient
       x1="72"
       y1="64"
       x2="72"
       y2="8"
       id="linearGradient3960"
       xlink:href="#linearGradient3856-9"
       gradientUnits="userSpaceOnUse"
       gradientTransform="translate(0,110)" />
    <clipPath
       id="clipPath3981">
      <path
         d="m 21.3125,14 c -0.629251,0.0031 -1.262739,0.08711 -1.875,0.25 l 4.5,4.5 -5.1875,5.1875 -4.5,-4.5 c -0.651553,2.449047 -0.01469,5.172807 1.90625,7.09375 2.868827,2.868821 7.506181,2.868821 10.375,0 2.86882,-2.868823 2.86882,-7.506179 0,-10.375 C 25.090546,14.715543 23.200254,13.990789 21.3125,14 z m 46.15625,0 c -0.432905,0 -0.75,0.372198 -0.75,0.8125 l 0,1.53125 C 65.944692,16.549989 65.176724,16.856422 64.5,17.25 l -1.09375,-1.09375 c -0.155672,-0.155665 -0.329795,-0.248295 -0.53125,-0.25 -0.201454,-0.0017 -0.440695,0.09696 -0.59375,0.25 l -2.125,2.15625 c -0.306105,0.306108 -0.31133,0.78241 0,1.09375 L 61.25,20.5 c -0.39358,0.676723 -0.700005,1.44469 -0.90625,2.21875 l -1.53125,0 c -0.440311,0 -0.8125,0.317099 -0.8125,0.75 l 0,3.0625 c 0,0.432902 0.372198,0.75 0.8125,0.75 l 1.53125,0 C 60.549995,28.055311 60.856425,28.823277 61.25,29.5 l -1.09375,1.09375 c -0.311339,0.31134 -0.306135,0.787642 0,1.09375 l 2.15625,2.15625 c 0.306107,0.306107 0.78241,0.311337 1.09375,0 L 64.5,32.75 c 0.676724,0.393577 1.444692,0.70001 2.21875,0.90625 l 0,1.53125 c 0,0.440302 0.317095,0.8125 0.75,0.8125 l 3.0625,0 c 0.432904,0 0.75,-0.372198 0.75,-0.8125 l 0,-1.53125 C 72.05531,33.45001 72.823277,33.143577 73.5,32.75 l 1.09375,1.09375 c 0.311337,0.311338 0.787642,0.306119 1.09375,0 l 2.15625,-2.15625 c 0.306105,-0.30611 0.3113,-0.782411 0,-1.09375 L 76.75,29.5 c 0.393576,-0.676723 0.700011,-1.444689 0.90625,-2.21875 l 1.53125,0 c 0.440298,8e-6 0.8125,-0.317097 0.8125,-0.75 l 0,-3.0625 c 0,-0.4329 -0.372202,-0.75 -0.8125,-0.75 l -1.53125,0 C 77.45001,21.944693 77.143576,21.176726 76.75,20.5 l 1.09375,-1.09375 c 0.311337,-0.311339 0.306145,-0.787641 0,-1.09375 L 75.6875,16.15625 c -0.306115,-0.306105 -0.782408,-0.311299 -1.09375,0 L 73.5,17.28125 c -0.676724,-0.393579 -1.44469,-0.73126 -2.21875,-0.9375 l 0,-1.53125 c 0,-0.440306 -0.3171,-0.8125 -0.75,-0.8125 l -3.0625,0 z M 69,20.46875 c 2.492178,0 4.53125,2.039075 4.53125,4.53125 0,2.492178 -2.039077,4.53125 -4.53125,4.53125 -2.492175,0 -4.53125,-2.039072 -4.53125,-4.53125 0,-2.492175 2.039075,-4.53125 4.53125,-4.53125 z M 29.875,24.6875 c -0.44788,1.141391 -1.108851,2.233851 -2.03125,3.15625 -0.9224,0.9224 -2.014857,1.58337 -3.15625,2.03125 l 7.03125,7.03125 c 1.438866,1.438866 3.748634,1.438866 5.1875,0 1.438867,-1.438865 1.438867,-3.748634 0,-5.1875 L 29.875,24.6875 z M 34.3125,32.5 c 0.470005,0 0.953896,0.172647 1.3125,0.53125 0.717206,0.717205 0.717206,1.876544 0,2.59375 -0.7172,0.717205 -1.876543,0.717205 -2.59375,0 -0.717206,-0.717206 -0.717206,-1.876545 0,-2.59375 C 33.389854,32.672647 33.842495,32.5 34.3125,32.5 z M 24.25,55.9375 c -3.546316,-0.0921 -7.007771,1.711738 -8.90625,5 C 12.582326,65.720426 14.217074,71.863576 19,74.625 c 4.782926,2.761424 10.894826,1.095426 13.65625,-3.6875 l -8.65625,-5 8.65625,-5 C 31.778567,59.417308 30.520192,58.158933 29,57.28125 27.505336,56.418305 25.861962,55.979366 24.25,55.9375 z M 25.5,59 C 26.328427,59 27,59.671573 27,60.5 27,61.328427 26.328427,62 25.5,62 24.671573,62 24,61.328427 24,60.5 24,59.671573 24.671573,59 25.5,59 z m 8.5,5 c -1.104569,0 -2,0.895431 -2,2 0,1.104569 0.895431,2 2,2 1.104569,0 2,-0.895431 2,-2 0,-1.104569 -0.895431,-2 -2,-2 z m 6,0 c -1.104569,0 -2,0.895431 -2,2 0,1.104569 0.895431,2 2,2 1.104569,0 2,-0.895431 2,-2 0,-1.104569 -0.895431,-2 -2,-2 z"
         inkscape:connector-curvature="0"
         id="path3983"
         style="fill:#ff00ff;fill-opacity:1;fill-rule:nonzero;stroke:none;stroke-width:1;marker:none;visibility:visible;display:block;overflow:visible;enable-background:accumulate" />
    </clipPath>
    <filter
       color-interpolation-filters="sRGB"
       id="filter3985">
      <feGaussianBlur
         id="feGaussianBlur3987"
         stdDeviation="0.63979148" />
    </filter>
    <clipPath
       id="clipPath4012">
      <path
         d="m 12,-34 c -3.324,0 -6,2.676 -6,6 l 0,33 42,0 0,-39 -36,0 z m 37,0 0,39 41,0 0,-33 c 0,-3.324 -2.676,-6 -6,-6 l -35,0 z m -27.6875,8 c 1.887754,-0.0092 3.778046,0.715543 5.21875,2.15625 2.86882,2.868821 2.86882,7.506177 0,10.375 -2.868819,2.868821 -7.506173,2.868821 -10.375,0 -1.920943,-1.920943 -2.557803,-4.644703 -1.90625,-7.09375 l 4.5,4.5 5.1875,-5.1875 -4.5,-4.5 c 0.612261,-0.162889 1.245749,-0.24693 1.875,-0.25 z m 46.15625,0 3.0625,0 c 0.4329,0 0.75,0.372194 0.75,0.8125 l 0,1.53125 c 0.77406,0.20624 1.542026,0.543921 2.21875,0.9375 l 1.09375,-1.125 c 0.311342,-0.311299 0.787635,-0.306105 1.09375,0 l 2.15625,2.15625 c 0.306145,0.306109 0.311337,0.782411 0,1.09375 L 76.75,-19.5 c 0.393576,0.676726 0.70001,1.444693 0.90625,2.21875 l 1.53125,0 c 0.440298,0 0.8125,0.3171 0.8125,0.75 l 0,3.0625 c 0,0.432903 -0.372202,0.750008 -0.8125,0.75 l -1.53125,0 C 77.450011,-11.944689 77.143576,-11.176723 76.75,-10.5 l 1.09375,1.09375 c 0.3113,0.311339 0.306105,0.78764 0,1.09375 l -2.15625,2.15625 c -0.306108,0.306119 -0.782413,0.311338 -1.09375,0 L 73.5,-7.25 c -0.676723,0.393577 -1.44469,0.70001 -2.21875,0.90625 l 0,1.53125 c 0,0.440302 -0.317096,0.8125 -0.75,0.8125 l -3.0625,0 c -0.432905,0 -0.75,-0.372198 -0.75,-0.8125 l 0,-1.53125 C 65.944692,-6.54999 65.176724,-6.856423 64.5,-7.25 l -1.09375,1.09375 c -0.31134,0.311337 -0.787643,0.306107 -1.09375,0 L 60.15625,-8.3125 c -0.306135,-0.306108 -0.311339,-0.78241 0,-1.09375 L 61.25,-10.5 c -0.393575,-0.676723 -0.700005,-1.444689 -0.90625,-2.21875 l -1.53125,0 c -0.440302,0 -0.8125,-0.317098 -0.8125,-0.75 l 0,-3.0625 c 0,-0.432901 0.372189,-0.75 0.8125,-0.75 l 1.53125,0 C 60.549995,-18.05531 60.85642,-18.823277 61.25,-19.5 l -1.09375,-1.09375 c -0.31133,-0.31134 -0.306105,-0.787642 0,-1.09375 l 2.125,-2.15625 c 0.153055,-0.15304 0.392296,-0.2517 0.59375,-0.25 0.201455,0.0017 0.375578,0.09433 0.53125,0.25 L 64.5,-22.75 c 0.676724,-0.393578 1.444692,-0.700011 2.21875,-0.90625 l 0,-1.53125 c 0,-0.440302 0.317095,-0.8125 0.75,-0.8125 z M 69,-19.53125 c -2.492175,0 -4.53125,2.039075 -4.53125,4.53125 0,2.492178 2.039075,4.53125 4.53125,4.53125 2.492173,0 4.53125,-2.039072 4.53125,-4.53125 0,-2.492175 -2.039072,-4.53125 -4.53125,-4.53125 z m -39.125,4.21875 7.03125,7.03125 c 1.438867,1.438866 1.438867,3.748635 0,5.1875 -1.438866,1.438866 -3.748634,1.438866 -5.1875,0 L 24.6875,-10.125 c 1.141393,-0.44788 2.23385,-1.10885 3.15625,-2.03125 0.922399,-0.922399 1.58337,-2.014859 2.03125,-3.15625 z M 34.3125,-7.5 c -0.470005,0 -0.922646,0.172647 -1.28125,0.53125 -0.717206,0.717205 -0.717206,1.876544 0,2.59375 0.717207,0.717205 1.87655,0.717205 2.59375,0 0.717206,-0.717206 0.717206,-1.876545 0,-2.59375 C 35.266396,-7.327353 34.782505,-7.5 34.3125,-7.5 z M 6,6 6,44 c 0,3.324 2.676,6 6,6 L 48,50 48,6 6,6 z m 18.25,9.9375 c 1.611962,0.04187 3.255336,0.480805 4.75,1.34375 1.520192,0.877683 2.778567,2.136058 3.65625,3.65625 l -8.65625,5 8.65625,5 C 29.894826,35.720426 23.782926,37.386424 19,34.625 14.217074,31.863576 12.582326,25.720426 15.34375,20.9375 c 1.898479,-3.288262 5.359934,-5.0921 8.90625,-5 z M 25.5,19 C 24.671573,19 24,19.671573 24,20.5 24,21.328427 24.671573,22 25.5,22 26.328427,22 27,21.328427 27,20.5 27,19.671573 26.328427,19 25.5,19 z m 8.5,5 c 1.104569,0 2,0.895431 2,2 0,1.104569 -0.895431,2 -2,2 -1.104569,0 -2,-0.895431 -2,-2 0,-1.104569 0.895431,-2 2,-2 z m 6,0 c 1.104569,0 2,0.895431 2,2 0,1.104569 -0.895431,2 -2,2 -1.104569,0 -2,-0.895431 -2,-2 0,-1.104569 0.895431,-2 2,-2 z"
         inkscape:connector-curvature="0"
         id="path4014"
         style="color:#000000;fill:url(#linearGradient4016);fill-opacity:1;fill-rule:nonzero;stroke:none;stroke-width:2;marker:none;visibility:visible;display:inline;overflow:visible;enable-background:accumulate" />
    </clipPath>
    <linearGradient
       x1="72"
       y1="64"
       x2="72"
       y2="8"
       id="linearGradient4016"
       xlink:href="#linearGradient3856-9"
       gradientUnits="userSpaceOnUse"
       gradientTransform="translate(0,-40)" />
    <filter
       color-interpolation-filters="sRGB"
       id="filter4018">
      <feGaussianBlur
         id="feGaussianBlur4020"
         stdDeviation="1.5994787" />
    </filter>
  </defs>
  <metadata
     id="metadata2413">
    <rdf:RDF>
      <cc:Work
         rdf:about="">
        <dc:format>image/svg+xml</dc:format>
        <dc:type
           rdf:resource="http://purl.org/dc/dcmitype/StillImage" />
        <dc:title />
      </cc:Work>
    </rdf:RDF>
  </metadata>
  <g
     id="layer2"
     style="display:none">
    <rect
       width="86"
       height="85"
       rx="6"
       ry="6"
       x="5"
       y="7"
       id="rect3745"
       style="opacity:0.9;fill:url(#ButtonShadow);fill-opacity:1;fill-rule:nonzero;stroke:none;filter:url(#filter3174)" />
  </g>
  <g
     id="layer3"
     style="display:inline">
    <path
       d="m 12,-95.03125 c -5.5110903,0 -10.03125,4.52016 -10.03125,10.03125 l 0,71 c 0,5.5110902 4.5201598,10.03125 10.03125,10.03125 l 72,0 c 5.51109,0 10.03125,-4.5201597 10.03125,-10.03125 l 0,-71 c 0,-5.51109 -4.52016,-10.03125 -10.03125,-10.03125 l -72,0 z"
       transform="scale(1,-1)"
       id="path3786"
       style="opacity:0.07999998;fill:url(#linearGradient3026);fill-opacity:1;fill-rule:nonzero;stroke:none;display:inline" />
    <path
       d="m 12,-94.03125 c -4.971633,0 -9.03125,4.059617 -9.03125,9.03125 l 0,71 c 0,4.9716329 4.0596171,9.03125 9.03125,9.03125 l 72,0 c 4.971633,0 9.03125,-4.059617 9.03125,-9.03125 l 0,-71 c 0,-4.971633 -4.059617,-9.03125 -9.03125,-9.03125 l -72,0 z"
       transform="scale(1,-1)"
       id="path3778"
       style="opacity:0.1;fill:url(#linearGradient3780);fill-opacity:1;fill-rule:nonzero;stroke:none;display:inline" />
    <path
       d="m 12,-93 c -4.4091333,0 -8,3.590867 -8,8 l 0,71 c 0,4.4091333 3.5908667,8 8,8 l 72,0 c 4.409133,0 8,-3.5908667 8,-8 l 0,-71 c 0,-4.409133 -3.590867,-8 -8,-8 l -72,0 z"
       transform="scale(1,-1)"
       id="path3770"
       style="opacity:0.2;fill:url(#linearGradient3772);fill-opacity:1;fill-rule:nonzero;stroke:none;display:inline" />
    <rect
       width="86"
       height="85"
       rx="7"
       ry="7"
       x="5"
       y="-92"
       transform="scale(1,-1)"
       id="rect3723"
       style="opacity:0.3;fill:url(#linearGradient3725);fill-opacity:1;fill-rule:nonzero;stroke:none;display:inline" />
    <rect
       width="84"
       height="84"
       rx="6"
       ry="6"
       x="6"
       y="-91"
       transform="scale(1,-1)"
       id="rect3716"
       style="opacity:0.45;fill:url(#linearGradient3721);fill-opacity:1;fill-rule:nonzero;stroke:none;display:inline" />
  </g>
  <g
     id="layer1">
    <rect
       width="84"
       height="84"
       rx="6"
       ry="6"
       x="6"
       y="6"
       id="rect2419-5"
       style="fill:url(#linearGradient3083);fill-opacity:1;fill-rule:nonzero;stroke:none" />
    <path
       d="M 120.78125,6.125 C 118.04223,6.6826484 116,9.0915 116,12 l 0,68 c 0,3.324 2.676,6 6,6 l 72,0 c 3.324,0 6,-2.676 6,-6 l 0,-68 c 0,-2.9085 -2.04223,-5.3173516 -4.78125,-5.875 2.20512,0.5362071 3.8125,2.4908437 3.8125,4.875 l 0,68 c 0,2.80489 -2.22636,5.03125 -5.03125,5.03125 l -72,0 c -2.80489,0 -5.03125,-2.22636 -5.03125,-5.03125 l 0,-68 c 0,-2.3841563 1.60738,-4.3387929 3.8125,-4.875 z"
       inkscape:connector-curvature="0"
       id="rect4359"
       style="opacity:0.2;fill:url(#radialGradient4375);fill-opacity:1;fill-rule:nonzero;stroke:none" />
    <path
       d="m 6,100 0,1 c 0,3.324 2.676,6 6,6 l 72,0 c 3.324,0 6,-2.676 6,-6 l 0,-1 c 0,3.324 -2.676,6 -6,6 l -72,0 c -3.324,0 -6,-2.676 -6,-6 z"
       inkscape:connector-curvature="0"
       id="path4412"
       style="opacity:0.15;fill:#000000;fill-opacity:1;fill-rule:nonzero;stroke:none" />
    <rect
       width="84"
       height="84"
       rx="6"
       ry="6"
       x="-184"
       y="6"
       id="rect2419"
       style="fill:url(#linearGradient3049);fill-opacity:1;fill-rule:nonzero;stroke:none" />
    <path
       d="m 72,48 a 24,24 0 1 1 -48,0 24,24 0 1 1 48,0 z"
       transform="matrix(0.75000001,0,0,0.75000001,-178,12)"
       id="path3659"
       style="color:#000000;fill:#ffffff;fill-opacity:1;fill-rule:nonzero;stroke:none;stroke-width:1;marker:none;visibility:visible;display:inline;overflow:visible;enable-background:accumulate" />
    <path
       d="m -142,16 c -17.67311,0 -32,14.326888 -32,32 0,17.673112 14.32689,32 32,32 17.67311,0 32,-14.326888 32,-32 0,-17.673112 -14.32689,-32 -32,-32 z m 0,8 c 13.25483,0 24,10.745166 24,24 0,13.254834 -10.74517,24 -24,24 -13.25483,0 -24,-10.745166 -24,-24 0,-13.254834 10.74517,-24 24,-24 z"
       inkscape:connector-curvature="0"
       id="path3661"
       style="color:#000000;fill:#ffffff;fill-opacity:1;fill-rule:nonzero;stroke:none;stroke-width:1;marker:none;visibility:visible;display:inline;overflow:visible;enable-background:accumulate" />
    <path
       d="m 29,-84 c -1,0 -5,5.372583 -5,12 0,6.627417 4,12 5,12 1,0 5,-5.372583 5,-12 0,-6.627417 -4,-12 -5,-12 z m 0,5 c 1.104569,0 2,0.895431 2,2 0,1.104569 -0.895431,2 -2,2 -1.104569,0 -2,-0.895431 -2,-2 0,-1.104569 0.895431,-2 2,-2 z"
       inkscape:connector-curvature="0"
       id="path3921"
       style="opacity:0.98999999;color:#000000;fill:#e45e2a;fill-opacity:1;fill-rule:nonzero;stroke:none;stroke-width:2;marker:none;visibility:visible;display:inline;overflow:visible;enable-background:accumulate" />
    <path
       d="m 22.730104,-57 c 0,0 0,-7 4,-6 l -2,-5 c -7,2 -2,11 -2,11 z"
       inkscape:connector-curvature="0"
       id="path3924"
       style="fill:#e4602c;fill-opacity:1;stroke:none" />
    <path
       d="m 35.25,-57 c 0,0 0,-7 -4,-6 l 2,-5 c 7,2 2,11 2,11 z"
       inkscape:connector-curvature="0"
       id="path3926"
       style="fill:#e4602c;fill-opacity:1;stroke:none" />
  </g>
  <g
     id="layer5"
     style="display:none">
    <rect
       width="66"
       height="62"
       rx="12"
       ry="12"
       x="15"
       y="15"
       clip-path="url(#clipPath4355)"
       id="rect3171"
       style="opacity:0.1;fill:url(#linearGradient3613);fill-opacity:1;fill-rule:nonzero;stroke:#ffffff;stroke-width:0.5;stroke-linecap:round;stroke-linejoin:miter;stroke-miterlimit:4;stroke-opacity:1;stroke-dasharray:none;stroke-dashoffset:0;filter:url(#filter3794)" />
  </g>
  <g
     id="layer6">
    <path
       d="m 48,6 0,39 -42,0 0,1 42,0 0,44 1,0 0,-44 41,0 0,-1 -41,0 0,-39 -1,0 z"
       inkscape:connector-curvature="0"
       id="rect3943"
       style="opacity:0.2;color:#000000;fill:#000000;fill-opacity:1;fill-rule:nonzero;stroke:none;stroke-width:2;marker:none;visibility:visible;display:inline;overflow:visible;enable-background:accumulate" />
    <path
       d="m 6,78 0,2 c 0,3.324 2.676,6 6,6 l 72,0 c 3.324,0 6,-2.676 6,-6 l 0,-2 c 0,3.324 -2.676,6 -6,6 L 12,84 C 8.676,84 6,81.324 6,78 z"
       inkscape:connector-curvature="0"
       id="rect4414"
       style="opacity:0.1;fill:url(#linearGradient4429);fill-opacity:1;fill-rule:nonzero;stroke:none" />
    <path
       d="M 12,86 C 8.676,86 6,83.324 6,80 L 6,12 C 6,8.676 8.676,6 12,6 l 72,0 c 3.324,0 6,2.676 6,6 l 0,68 c 0,3.324 -2.676,6 -6,6 z m 0,-0.96875 72,0 c 2.80489,0 5.03125,-2.22636 5.03125,-5.03125 l 0,-68 C 89.03125,9.19511 86.80489,6.96875 84,6.96875 l -72,0 C 9.1951102,6.96875 6.96875,9.19511 6.96875,12 l 0,68 c 0,2.80489 2.2263602,5.03125 5.03125,5.03125 z"
       inkscape:connector-curvature="0"
       id="rect4377"
       style="opacity:0.3;fill:url(#linearGradient4390);fill-opacity:1;fill-rule:nonzero;stroke:none" />
    <path
       d="M 12,6 C 8.676,6 6,8.676 6,12 L 6,45 48,45 48,6 12,6 z m 37,0 0,39 41,0 0,-33 C 90,8.676 87.324,6 84,6 L 49,6 z m -27.6875,8 c 1.887754,-0.0092 3.778046,0.715543 5.21875,2.15625 2.86882,2.868821 2.86882,7.506177 0,10.375 -2.868819,2.868821 -7.506173,2.868821 -10.375,0 C 14.235307,24.610307 13.598447,21.886547 14.25,19.4375 l 4.5,4.5 5.1875,-5.1875 -4.5,-4.5 c 0.612261,-0.162889 1.245749,-0.24693 1.875,-0.25 z m 46.15625,0 3.0625,0 c 0.4329,0 0.75,0.372194 0.75,0.8125 l 0,1.53125 c 0.77406,0.20624 1.542026,0.543921 2.21875,0.9375 l 1.09375,-1.125 c 0.311342,-0.311299 0.787635,-0.306105 1.09375,0 l 2.15625,2.15625 c 0.306145,0.306109 0.311337,0.782411 0,1.09375 L 76.75,20.5 c 0.393576,0.676726 0.70001,1.444693 0.90625,2.21875 l 1.53125,0 c 0.440298,0 0.8125,0.3171 0.8125,0.75 l 0,3.0625 c 0,0.432903 -0.372202,0.750008 -0.8125,0.75 l -1.53125,0 C 77.450011,28.055311 77.143576,28.823277 76.75,29.5 l 1.09375,1.09375 c 0.3113,0.311339 0.306105,0.78764 0,1.09375 l -2.15625,2.15625 c -0.306108,0.306119 -0.782413,0.311338 -1.09375,0 L 73.5,32.75 c -0.676723,0.393577 -1.44469,0.70001 -2.21875,0.90625 l 0,1.53125 c 0,0.440302 -0.317096,0.8125 -0.75,0.8125 l -3.0625,0 c -0.432905,0 -0.75,-0.372198 -0.75,-0.8125 l 0,-1.53125 C 65.944692,33.45001 65.176724,33.143577 64.5,32.75 l -1.09375,1.09375 c -0.31134,0.311337 -0.787643,0.306107 -1.09375,0 L 60.15625,31.6875 c -0.306135,-0.306108 -0.311339,-0.78241 0,-1.09375 L 61.25,29.5 c -0.393575,-0.676723 -0.700005,-1.444689 -0.90625,-2.21875 l -1.53125,0 c -0.440302,0 -0.8125,-0.317098 -0.8125,-0.75 l 0,-3.0625 c 0,-0.432901 0.372189,-0.75 0.8125,-0.75 l 1.53125,0 C 60.549995,21.94469 60.85642,21.176723 61.25,20.5 l -1.09375,-1.09375 c -0.31133,-0.31134 -0.306105,-0.787642 0,-1.09375 l 2.125,-2.15625 c 0.153055,-0.15304 0.392296,-0.2517 0.59375,-0.25 0.201455,0.0017 0.375578,0.09434 0.53125,0.25 L 64.5,17.25 c 0.676724,-0.393578 1.444692,-0.700011 2.21875,-0.90625 l 0,-1.53125 c 0,-0.440302 0.317095,-0.8125 0.75,-0.8125 z M 69,20.46875 c -2.492175,0 -4.53125,2.039075 -4.53125,4.53125 0,2.492178 2.039075,4.53125 4.53125,4.53125 2.492173,0 4.53125,-2.039072 4.53125,-4.53125 0,-2.492175 -2.039072,-4.53125 -4.53125,-4.53125 z m -39.125,4.21875 7.03125,7.03125 c 1.438867,1.438866 1.438867,3.748635 0,5.1875 -1.438866,1.438866 -3.748634,1.438866 -5.1875,0 L 24.6875,29.875 c 1.141393,-0.44788 2.23385,-1.10885 3.15625,-2.03125 0.922399,-0.922399 1.58337,-2.014859 2.03125,-3.15625 z M 34.3125,32.5 c -0.470005,0 -0.922646,0.172647 -1.28125,0.53125 -0.717206,0.717205 -0.717206,1.876544 0,2.59375 0.717207,0.717205 1.87655,0.717205 2.59375,0 0.717206,-0.717206 0.717206,-1.876545 0,-2.59375 C 35.266396,32.672647 34.782505,32.5 34.3125,32.5 z M 6,46 6,84 c 0,3.324 2.676,6 6,6 l 36,0 0,-44 -42,0 z m 18.25,9.9375 c 1.611962,0.04187 3.255336,0.480805 4.75,1.34375 1.520192,0.877683 2.778567,2.136058 3.65625,3.65625 l -8.65625,5 8.65625,5 C 29.894826,75.720426 23.782926,77.386424 19,74.625 14.217074,71.863576 12.582326,65.720426 15.34375,60.9375 c 1.898479,-3.288262 5.359934,-5.0921 8.90625,-5 z M 25.5,59 C 24.671573,59 24,59.671573 24,60.5 24,61.328427 24.671573,62 25.5,62 26.328427,62 27,61.328427 27,60.5 27,59.671573 26.328427,59 25.5,59 z m 8.5,5 c 1.104569,0 2,0.895431 2,2 0,1.104569 -0.895431,2 -2,2 -1.104569,0 -2,-0.895431 -2,-2 0,-1.104569 0.895431,-2 2,-2 z m 6,0 c 1.104569,0 2,0.895431 2,2 0,1.104569 -0.895431,2 -2,2 -1.104569,0 -2,-0.895431 -2,-2 0,-1.104569 0.895431,-2 2,-2 z"
       inkscape:connector-curvature="0"
       id="path3963"
       style="color:#000000;fill:url(#linearGradient3868);fill-opacity:1;fill-rule:nonzero;stroke:none;stroke-width:2;marker:none;visibility:visible;display:inline;overflow:visible;enable-background:accumulate" />
    <path
       d="M 12,6 C 8.676,6 6,8.676 6,12 l 0,33 0.96875,0 0,-33 C 6.96875,9.19511 9.19511,6.96875 12,6.96875 l 36,0 L 48,6 z m 37,0 0,0.96875 35,0 c 2.80489,0 5.03125,2.22636 5.03125,5.03125 l 0,33 L 90,45 90,12 C 90,8.676 87.324,6 84,6 z M 6,46 6,47 6,80 c 0,3.324 2.676,6 6,6 l 35,0 0,-0.96875 -35,0 C 9.19511,85.03125 6.96875,82.80489 6.96875,80 l 0,-33 L 48,47 48,46 6.96875,46 z"
       inkscape:connector-curvature="0"
       id="path3920"
       style="opacity:0.8;color:#000000;fill:url(#linearGradient3926);fill-opacity:1;fill-rule:nonzero;stroke:none;stroke-width:2;marker:none;visibility:visible;display:inline;overflow:visible;enable-background:accumulate" />
    <rect
       width="1"
       height="38"
       x="47"
       y="7"
       id="rect3928"
       style="opacity:0.8;color:#000000;fill:url(#linearGradient3936);fill-opacity:1;fill-rule:nonzero;stroke:none;stroke-width:2;marker:none;visibility:visible;display:inline;overflow:visible;enable-background:accumulate" />
    <rect
       width="1"
       height="38"
       x="49"
       y="7"
       id="rect3938"
       style="opacity:0.8;color:#000000;fill:url(#linearGradient3940);fill-opacity:1;fill-rule:nonzero;stroke:none;stroke-width:2;marker:none;visibility:visible;display:inline;overflow:visible;enable-background:accumulate" />
    <rect
       width="1"
       height="38"
       x="47"
       y="47"
       id="rect3942"
       style="opacity:0.5;color:#000000;fill:url(#linearGradient3944);fill-opacity:1;fill-rule:nonzero;stroke:none;stroke-width:2;marker:none;visibility:visible;display:inline;overflow:visible;enable-background:accumulate" />
    <path
       d="m 7,44 0,1 41,0 0,-1 z m 42,0 0,1 40,0 0,-1 z"
       inkscape:connector-curvature="0"
       id="rect3946"
       style="opacity:0.1;color:#000000;fill:url(#linearGradient3957);fill-opacity:1;fill-rule:nonzero;stroke:none;stroke-width:2;marker:none;visibility:visible;display:inline;overflow:visible;enable-background:accumulate" />
    <g
       id="g4283">
      <path
         d="m 62,46 7,8 7,-8 z"
         inkscape:connector-curvature="0"
         id="path3952"
         style="opacity:0.05;fill:#000000;fill-opacity:1;stroke:none;display:inline" />
      <path
         d="m 63,46 6,7 6,-7 z"
         inkscape:connector-curvature="0"
         id="path3950"
         style="opacity:0.15;fill:#000000;fill-opacity:1;stroke:none;display:inline" />
      <path
         d="M 56,37 69,52 83,36 z"
         inkscape:connector-curvature="0"
         id="path3048"
         style="fill:#e5e5e5;fill-opacity:1;stroke:none;display:inline" />
      <path
         d="m 62,44 1,0 6,7 6,-7 1,0 -7,8 z"
         inkscape:connector-curvature="0"
         id="path3948"
         style="opacity:0.07000002;fill:#000000;stroke:none" />
    </g>
    <path
       d="m 77.375,50.9375 c -1.78462,0 -3.227162,1.215639 -3.71875,2.84375 -0.139045,-0.08757 -0.252618,-0.217809 -0.4375,-0.25 -0.786664,-0.136943 -1.541611,-0.1875 -2.28125,-0.1875 -2.034898,2.65e-4 -4.090804,0.489595 -5.9375,1.40625 -0.32914,0.163951 -0.508651,0.413461 -0.59375,0.71875 -0.09272,0.328222 -0.01634,0.71113 0.125,0.9375 l 2.5,3.9375 c 0.260529,0.415478 0.920147,0.642702 1.40625,0.4375 0.795199,-0.337671 1.647197,-0.5 2.5,-0.5 3.086352,0 5.797703,2.329162 6.28125,5.375 0.03556,0.224517 0.128809,0.42952 0.3125,0.625 0.183691,0.19548 0.490714,0.34375 0.8125,0.34375 l 4.65625,0 c 0.456801,0 0.673888,-0.152495 0.875,-0.375 0.21915,-0.242589 0.312021,-0.576331 0.28125,-0.90625 -0.270743,-2.794131 -1.436045,-5.466326 -3.3125,-7.5625 -0.12717,-0.142817 -0.312035,-0.209001 -0.5,-0.28125 0.614106,-0.700786 1,-1.593774 1,-2.59375 0,-2.19185 -1.783519,-3.96875 -3.96875,-3.96875 z m -14.15625,4.96875 c 0.07479,-0.01853 -0.130666,-0.02135 -0.4375,0.21875 -2.178854,1.685647 -3.798684,4.036864 -4.59375,6.65625 -0.03473,0.114402 0.09066,0.170963 0.09375,0.28125 -0.52757,-0.256224 -1.095176,-0.40625 -1.71875,-0.40625 -2.23255,0 -4.0625,1.823033 -4.0625,4.0625 0,2.239466 1.84102,4.03125 4.0625,4.03125 0.595699,0 1.145381,-0.140949 1.65625,-0.375 0.0075,0.04918 -0.0463,0.07531 -0.03125,0.125 0.789799,2.600891 2.41133,4.943688 4.5625,6.625 0.340423,0.267076 0.727663,0.250143 0.90625,0.21875 0.479967,-0.08294 0.674376,-0.36343 0.78125,-0.53125 l 2.5,-3.90625 c 0.347283,-0.546515 0.129421,-1.164891 -0.25,-1.5 -1.368022,-1.209039 -2.15625,-2.973797 -2.15625,-4.78125 0,-1.820545 0.795022,-3.531645 2.1875,-4.75 0.383573,-0.336738 0.591298,-0.956019 0.25,-1.5 l -2.5,-3.96875 c -0.190248,-0.30222 -0.582588,-0.464908 -0.78125,-0.5 -0.08035,-0.01396 -0.27762,-0.04735 -0.46875,0 z m 15.125,10.8125 c -0.64795,0.0013 -1.057998,0.361234 -1.15625,0.96875 -0.490195,3.023423 -3.173789,5.34375 -6.25,5.34375 -0.832038,0 -1.670274,-0.205502 -2.5,-0.5625 -0.491074,-0.209952 -1.178833,0.03433 -1.4375,0.4375 l -2.53125,3.9375 c -0.136777,0.216688 -0.16807,0.494362 -0.15625,0.65625 0.01182,0.161888 0.05447,0.251941 0.0625,0.28125 0.08582,0.312178 0.2671,0.555326 0.59375,0.71875 1.857413,0.934042 3.909351,1.4375 5.96875,1.4375 0.781881,0 1.562726,-0.07954 2.34375,-0.21875 0.112707,-0.01985 0.163674,-0.205719 0.28125,-0.28125 0.216704,2.022167 1.858307,3.625 3.9375,3.625 2.224652,0 4.03125,-1.809214 4.03125,-4.03125 0,-1.176146 -0.534009,-2.196403 -1.34375,-2.9375 0.0836,-0.0566 0.197946,-0.102951 0.25,-0.15625 2.09879,-2.14988 3.420675,-4.983401 3.71875,-7.96875 C 84.191112,67.629789 84.092106,67.302615 83.875,67.0625 83.550023,66.703252 83.177551,66.718123 83,66.71875 l -4.65625,0 z"
       transform="translate(0,70)"
       id="path3990"
       style="opacity:0.05;fill:#000000;fill-opacity:1;overflow:visible" />
    <path
       d="m 77.38907,121.82912 c -1.68981,0 -3.05811,1.37577 -3.05811,3.07177 0,1.69601 1.3683,3.07177 3.05811,3.07177 1.68981,0 3.0581,-1.37576 3.0581,-3.07177 0,-1.696 -1.36829,-3.07177 -3.0581,-3.07177 z m -6.45837,2.40586 c -1.88595,2.5e-4 -3.79803,0.47836 -5.51742,1.33182 -0.0611,0.0305 -0.0993,0.0845 -0.11762,0.15036 -0.0186,0.0658 -0.0148,0.13535 0.0214,0.19333 l 2.4807,3.94175 c 0.0628,0.10023 0.19056,0.1426 0.2994,0.0967 0.91815,-0.38988 1.87089,-0.57999 2.83355,-0.57999 3.54101,0 6.63028,2.63567 7.18547,6.13279 0.0186,0.11743 0.11711,0.20407 0.23524,0.20407 l 4.66201,0 c 0.068,0 0.13604,-0.0246 0.18177,-0.0752 0.0457,-0.0506 0.0705,-0.11429 0.0642,-0.18258 -0.25142,-2.59478 -1.35581,-5.10707 -3.10087,-7.05648 -0.0787,-0.0884 -0.21055,-0.0968 -0.31009,-0.0322 -0.70365,0.45646 -1.50202,0.69813 -2.30961,0.69813 -2.35603,0 -4.26613,-1.92264 -4.26638,-4.27469 2.5e-4,-9.5e-4 0,-0.082 0,-0.0859 0,-0.11719 -0.0875,-0.22689 -0.20316,-0.24703 -0.73667,-0.12824 -1.45176,-0.21481 -2.13853,-0.21481 z m -7.48487,2.57771 c -0.0323,0.008 -0.0697,0.0222 -0.0962,0.043 -2.02217,1.56443 -3.53869,3.7646 -4.27707,6.19724 -0.0289,0.0951 -0.003,0.19586 0.0748,0.25777 1.01623,0.8085 1.62529,2.05303 1.62529,3.32954 0,1.2765 -0.60882,2.52103 -1.62529,3.32953 -0.0775,0.0617 -0.1037,0.16245 -0.0748,0.25777 0.73252,2.41225 2.23707,4.60402 4.2343,6.16502 0.0536,0.042 0.11476,0.0655 0.18177,0.0537 0.0668,-0.0115 0.12395,-0.0609 0.1604,-0.11815 l 2.50208,-3.931 c 0.0639,-0.10048 0.0465,-0.23261 -0.0428,-0.31148 -1.5675,-1.38533 -2.47001,-3.37169 -2.47001,-5.4454 0,-2.08919 0.90751,-4.08105 2.49139,-5.46688 0.0893,-0.0784 0.11681,-0.21051 0.0535,-0.31148 l -2.4807,-3.94174 c -0.0362,-0.0575 -0.0936,-0.0956 -0.16039,-0.1074 -0.0334,-0.006 -0.0639,-0.008 -0.0962,0 z m -6.89677,6.745 c -1.72939,0 -3.13295,1.41105 -3.13295,3.14695 0,1.73589 1.40356,3.13621 3.13295,3.13621 1.72939,0 3.13295,-1.40032 3.13295,-3.13621 0,-1.7359 -1.40356,-3.14695 -3.13295,-3.14695 z m 26.46435,4.05989 -4.662,0.0107 c -0.11764,2.4e-4 -0.2271,0.0876 -0.24593,0.20406 -0.56278,3.47109 -3.64356,6.08983 -7.17478,6.08983 -0.97391,0 -1.93722,-0.202 -2.86564,-0.60146 -0.1086,-0.0464 -0.23556,-0.0136 -0.29939,0.0859 l -2.50209,3.94175 c -0.0364,0.0577 -0.0395,0.12724 -0.0214,0.19332 0.0181,0.0658 0.0567,0.11991 0.11762,0.15037 1.73284,0.87139 3.66317,1.33181 5.57088,1.33181 0.70757,0 1.44628,-0.0712 2.192,-0.20407 0.10468,-0.0184 0.17999,-0.0982 0.19247,-0.20406 0.24849,-2.15577 2.06348,-3.78064 4.2236,-3.78064 0.66965,0 1.35887,0.16978 1.97814,0.49406 0.0942,0.0494 0.20342,0.0334 0.27801,-0.043 1.95296,-2.0005 3.18756,-4.63802 3.46443,-7.4109 0.007,-0.0681 -0.0182,-0.13174 -0.0642,-0.18259 -0.046,-0.0508 -0.11379,-0.0754 -0.18178,-0.0752 z m -5.50672,8.30236 c -1.72939,0 -3.13295,1.39853 -3.13295,3.12547 0,1.72694 1.40356,3.12547 3.13295,3.12547 1.72938,0 3.13295,-1.39853 3.13295,-3.12547 0,-1.72694 -1.40357,-3.12547 -3.13295,-3.12547 z"
       inkscape:connector-curvature="0"
       id="path3984"
       style="opacity:0.15;fill:#000000;fill-opacity:1;overflow:visible" />
    <path
       d="m 77.38907,120.82912 c -1.68981,0 -3.05811,1.37577 -3.05811,3.07177 0,1.69601 1.3683,3.07177 3.05811,3.07177 1.68981,0 3.0581,-1.37576 3.0581,-3.07177 0,-1.696 -1.36829,-3.07177 -3.0581,-3.07177 z m -6.45837,2.40586 c -1.88595,2.5e-4 -3.79803,0.47836 -5.51742,1.33182 -0.0611,0.0305 -0.0993,0.0845 -0.11762,0.15036 -0.0186,0.0658 -0.0148,0.13535 0.0214,0.19333 l 2.4807,3.94175 c 0.0628,0.10023 0.19056,0.1426 0.2994,0.0967 0.91815,-0.38988 1.87089,-0.57999 2.83355,-0.57999 3.54101,0 6.63028,2.63567 7.18547,6.13279 0.0186,0.11743 0.11711,0.20407 0.23524,0.20407 l 4.66201,0 c 0.068,0 0.13604,-0.0246 0.18177,-0.0752 0.0457,-0.0506 0.0705,-0.11429 0.0642,-0.18258 -0.25142,-2.59478 -1.35581,-5.10707 -3.10087,-7.05648 -0.0787,-0.0884 -0.21055,-0.0968 -0.31009,-0.0322 -0.70365,0.45646 -1.50202,0.69813 -2.30961,0.69813 -2.35603,0 -4.26613,-1.92264 -4.26638,-4.27469 2.5e-4,-9.5e-4 0,-0.082 0,-0.0859 0,-0.11719 -0.0875,-0.22689 -0.20316,-0.24703 -0.73667,-0.12824 -1.45176,-0.21481 -2.13853,-0.21481 z m -7.48487,2.57771 c -0.0323,0.008 -0.0697,0.0222 -0.0962,0.043 -2.02217,1.56443 -3.53869,3.7646 -4.27707,6.19724 -0.0289,0.0951 -0.003,0.19586 0.0748,0.25777 1.01623,0.8085 1.62529,2.05303 1.62529,3.32954 0,1.2765 -0.60882,2.52103 -1.62529,3.32953 -0.0775,0.0617 -0.1037,0.16245 -0.0748,0.25777 0.73252,2.41225 2.23707,4.60402 4.2343,6.16502 0.0536,0.042 0.11476,0.0655 0.18177,0.0537 0.0668,-0.0115 0.12395,-0.0609 0.1604,-0.11815 l 2.50208,-3.931 c 0.0639,-0.10048 0.0465,-0.23261 -0.0428,-0.31148 -1.5675,-1.38533 -2.47001,-3.37169 -2.47001,-5.4454 0,-2.08919 0.90751,-4.08105 2.49139,-5.46688 0.0893,-0.0784 0.11681,-0.21051 0.0535,-0.31148 l -2.4807,-3.94174 c -0.0362,-0.0575 -0.0936,-0.0956 -0.16039,-0.1074 -0.0334,-0.006 -0.0639,-0.008 -0.0962,0 z m -6.89677,6.745 c -1.72939,0 -3.13295,1.41105 -3.13295,3.14695 0,1.73589 1.40356,3.13621 3.13295,3.13621 1.72939,0 3.13295,-1.40032 3.13295,-3.13621 0,-1.7359 -1.40356,-3.14695 -3.13295,-3.14695 z m 26.46435,4.05989 -4.662,0.0107 c -0.11764,2.4e-4 -0.2271,0.0876 -0.24593,0.20406 -0.56278,3.47109 -3.64356,6.08983 -7.17478,6.08983 -0.97391,0 -1.93722,-0.202 -2.86564,-0.60146 -0.1086,-0.0464 -0.23556,-0.0136 -0.29939,0.0859 l -2.50209,3.94175 c -0.0364,0.0577 -0.0395,0.12724 -0.0214,0.19332 0.0181,0.0658 0.0567,0.11991 0.11762,0.15037 1.73284,0.87139 3.66317,1.33181 5.57088,1.33181 0.70757,0 1.44628,-0.0712 2.192,-0.20407 0.10468,-0.0184 0.17999,-0.0982 0.19247,-0.20406 0.24849,-2.15577 2.06348,-3.78064 4.2236,-3.78064 0.66965,0 1.35887,0.16978 1.97814,0.49406 0.0942,0.0494 0.20342,0.0334 0.27801,-0.043 1.95296,-2.0005 3.18756,-4.63802 3.46443,-7.4109 0.007,-0.0681 -0.0182,-0.13174 -0.0642,-0.18259 -0.046,-0.0508 -0.11379,-0.0754 -0.18178,-0.0752 z m -5.50672,8.30236 c -1.72939,0 -3.13295,1.39853 -3.13295,3.12547 0,1.72694 1.40356,3.12547 3.13295,3.12547 1.72938,0 3.13295,-1.39853 3.13295,-3.12547 0,-1.72694 -1.40357,-3.12547 -3.13295,-3.12547 z"
       inkscape:connector-curvature="0"
       id="path3324"
       style="fill:url(#linearGradient3973-5);fill-opacity:1;overflow:visible" />
    <path
       d="m -64,14 c -6.627416,0 -12,5.372583 -12,12 0,6.627417 5.372584,12 12,12 6.627416,0 12,-5.372583 12,-12 0,-6.627417 -5.372584,-12 -12,-12 z m 0,3 c 4.970561,0 9,4.029437 9,9 0,4.970563 -4.029439,9 -9,9 -4.970561,0 -9,-4.029437 -9,-9 0,-4.970563 4.029439,-9 9,-9 z m 0,2.25 c -3.727924,0 -6.75,3.022078 -6.75,6.75 0,3.727922 3.022076,6.75 6.75,6.75 3.727924,0 6.75,-3.022078 6.75,-6.75 0,-3.727922 -3.022076,-6.75 -6.75,-6.75 z"
       inkscape:connector-curvature="0"
       id="path3923"
       style="color:#000000;fill:#e45e2a;fill-opacity:1;fill-rule:nonzero;stroke:none;stroke-width:1;marker:none;visibility:visible;display:inline;overflow:visible;enable-background:accumulate" />
    <path
       d="m 77.375,120.84375 c -1.68981,0 -3.03125,1.3665 -3.03125,3.0625 0,0.17002 0.036,0.33748 0.0625,0.5 0.23737,-1.45867 1.44834,-2.5625 2.96875,-2.5625 1.52041,0 2.76263,1.10383 3,2.5625 0.0265,-0.16252 0.0625,-0.32998 0.0625,-0.5 0,-1.696 -1.37269,-3.0625 -3.0625,-3.0625 z M 70.9375,123.25 c -1.88594,2.5e-4 -3.81187,0.45904 -5.53125,1.3125 -0.0611,0.0305 -0.10665,0.0904 -0.125,0.15625 -0.0186,0.0658 -0.005,0.12952 0.0312,0.1875 l 0.34375,0.5625 c 1.65706,-0.78138 3.48166,-1.21851 5.28125,-1.21875 0.68678,0 1.38833,0.0593 2.125,0.1875 0.11569,0.0201 0.21875,0.13281 0.21875,0.25 0,0.004 2.4e-4,0.0928 0,0.0937 2.4e-4,2.35205 1.89397,4.28125 4.25,4.28125 0.8076,0 1.60885,-0.26229 2.3125,-0.71875 0.0995,-0.0646 0.23375,-0.0259 0.3125,0.0625 1.56935,1.75311 2.62135,3.93581 3,6.25 0.0108,-0.008 0.0221,-0.0211 0.0312,-0.0312 0.0457,-0.0506 0.0689,-0.1192 0.0625,-0.1875 -0.25143,-2.59478 -1.34868,-5.08185 -3.09375,-7.03125 -0.0788,-0.0884 -0.21296,-0.12711 -0.3125,-0.0625 -0.70365,0.45646 -1.5049,0.71875 -2.3125,0.71875 -2.35603,0 -4.24976,-1.9292 -4.25,-4.28125 2.4e-4,-9.5e-4 0,-0.0898 0,-0.0937 0,-0.11719 -0.10306,-0.22986 -0.21875,-0.25 -0.73667,-0.12829 -1.43822,-0.18755 -2.125,-0.18755 z m -7.5,2.5625 c -0.0323,0.008 -0.0672,0.0105 -0.0937,0.0312 -2.02217,1.56443 -3.54287,3.78611 -4.28125,6.21875 -0.0289,0.0951 0.0159,0.18809 0.0937,0.25 0.0483,0.0384 0.0786,0.0847 0.125,0.125 0.79554,-2.18317 2.21493,-4.1644 4.0625,-5.59375 0.0265,-0.0208 0.0615,-0.0233 0.0937,-0.0312 0.0323,-0.008 0.0604,-0.006 0.0937,0 0.0668,0.0118 0.12006,0.0363 0.15625,0.0937 l 2.21875,3.5 c 0.0757,-0.0722 0.13962,-0.14951 0.21875,-0.21875 0.0893,-0.0784 0.12585,-0.21153 0.0625,-0.3125 l -2.5,-3.96875 c -0.0362,-0.0575 -0.0895,-0.082 -0.15625,-0.0937 -0.0334,-0.006 -0.0615,-0.008 -0.0937,0 z m -6.875,6.75 c -1.72939,0 -3.15625,1.42035 -3.15625,3.15625 0,0.17402 0.0354,0.3338 0.0625,0.5 0.2336,-1.50502 1.52953,-2.65625 3.09375,-2.65625 1.56422,0 2.8289,1.15123 3.0625,2.65625 0.0271,-0.1662 0.0625,-0.32598 0.0625,-0.5 0,-1.7359 -1.39561,-3.15625 -3.125,-3.15625 z m 7.09375,3.5625 c -0.0124,0.17216 -0.0312,0.3262 -0.0312,0.5 0,1.9625 0.83471,3.8481 2.25,5.21875 l 0.28125,-0.4375 c 0.0639,-0.10048 0.0268,-0.23364 -0.0625,-0.3125 -1.44228,-1.27466 -2.30622,-3.07657 -2.4375,-4.96875 z M 60.75,136.1562 c -0.13733,1.09314 -0.71249,2.11154 -1.59375,2.8125 -0.0775,0.0617 -0.12262,0.15468 -0.0937,0.25 0.0633,0.20828 0.14417,0.42027 0.21875,0.625 0.93085,-0.80868 1.5,-2.00289 1.5,-3.21875 0,-0.15956 -0.0126,-0.31097 -0.0312,-0.46875 z m 17.59375,0.46875 c -0.11764,2.4e-4 -0.23117,0.10231 -0.25,0.21875 -0.56278,3.47109 -3.62503,6.09375 -7.15625,6.09375 -0.97391,0 -1.94658,-0.22554 -2.875,-0.625 -0.1086,-0.0464 -0.21742,-0.006 -0.28125,0.0937 L 65.25,146.3437 c -0.0364,0.0577 -0.0181,0.12141 0,0.1875 0.0181,0.0658 0.0641,0.12579 0.125,0.15625 0.0716,0.036 0.14654,0.0592 0.21875,0.0937 l 2.1875,-3.375 c 0.0638,-0.0995 0.17265,-0.14018 0.28125,-0.0937 0.92842,0.39946 1.90109,0.625 2.875,0.625 3.53122,0 6.59347,-2.62266 7.15625,-6.09375 0.0188,-0.11644 0.13236,-0.21851 0.25,-0.21875 l 4.65625,0 c 0.0578,-2e-4 0.11201,0.0259 0.15625,0.0625 0.0456,-0.2698 0.0665,-0.5396 0.0937,-0.8125 0.007,-0.0681 -0.0165,-0.13665 -0.0625,-0.1875 -0.046,-0.0508 -0.11951,-0.0627 -0.1875,-0.0624 l -4.65625,0 z M 77.5,144.90625 c -1.72939,0 -3.125,1.39806 -3.125,3.125 0,0.16493 0.0378,0.34199 0.0625,0.5 0.24345,-1.4849 1.50648,-2.625 3.0625,-2.625 1.55602,0 2.81905,1.1401 3.0625,2.625 0.0247,-0.15801 0.0625,-0.33507 0.0625,-0.5 0,-1.72694 -1.39561,-3.125 -3.125,-3.125 z"
       inkscape:connector-curvature="0"
       id="path3975"
       style="opacity:0.3;fill:#ffffff;fill-opacity:1;overflow:visible" />
    <path
       d="m -15.73455,13.46116 c -1.396641,0 -2.527545,1.137084 -2.527545,2.53884 0,1.401764 1.130904,2.53884 2.527545,2.53884 1.396642,0 2.527542,-1.137076 2.527542,-2.53884 0,-1.401756 -1.1309,-2.53884 -2.527542,-2.53884 z m -5.337888,1.988461 c -1.558746,2.06e-4 -3.1391,0.395368 -4.560183,1.100758 -0.05054,0.02521 -0.08205,0.06984 -0.09721,0.124274 -0.01537,0.05438 -0.01225,0.111868 0.01767,0.159789 l 2.050316,3.257884 c 0.05195,0.08284 0.157496,0.11786 0.247452,0.07992 0.758855,-0.322239 1.546308,-0.479366 2.341952,-0.479366 2.926666,0 5.479974,2.1784 5.938844,5.068795 0.01537,0.09706 0.09679,0.168665 0.194427,0.168665 l 3.853177,0 c 0.05619,0 0.112438,-0.02033 0.150239,-0.06215 0.03779,-0.04182 0.05829,-0.09446 0.05303,-0.150903 -0.207805,-2.144604 -1.120583,-4.22103 -2.562893,-5.832231 -0.06509,-0.07306 -0.174016,-0.08001 -0.256289,-0.02661 -0.581573,0.377267 -1.241428,0.577009 -1.908912,0.577009 -1.947271,0 -3.525988,-1.589076 -3.526191,-3.533061 2.03e-4,-7.86e-4 0,-0.06777 0,-0.071 0,-0.09686 -0.07229,-0.187527 -0.167911,-0.204172 -0.608866,-0.105992 -1.199891,-0.177542 -1.767516,-0.177542 z m -6.186296,2.130495 c -0.02668,0.0066 -0.05761,0.01835 -0.07953,0.03554 -1.671341,1.293012 -2.924749,3.111469 -3.535027,5.122063 -0.02385,0.0786 -0.0025,0.161879 0.06186,0.213048 0.839916,0.668231 1.34331,1.696844 1.34331,2.751889 0,1.055036 -0.503192,2.083649 -1.34331,2.75188 -0.06408,0.051 -0.08571,0.134266 -0.06186,0.213049 0.605428,1.993741 1.848955,3.805255 3.499678,5.095432 0.04427,0.03471 0.09485,0.05414 0.150237,0.04438 0.05519,-0.0095 0.102444,-0.05033 0.132564,-0.09765 l 2.06799,-3.248999 c 0.05277,-0.08305 0.03844,-0.192254 -0.03536,-0.257441 -1.295552,-1.144985 -2.041478,-2.786725 -2.041478,-4.500661 0,-1.726731 0.750058,-3.373017 2.059153,-4.518415 0.07378,-0.0648 0.09654,-0.173988 0.04419,-0.257441 l -2.050317,-3.257876 c -0.02991,-0.04752 -0.07738,-0.07901 -0.132562,-0.08877 -0.0276,-0.005 -0.05286,-0.0066 -0.07954,0 z m -5.700228,5.57479 c -1.429353,0 -2.589406,1.166243 -2.589406,2.600977 0,1.434725 1.160053,2.5921 2.589406,2.5921 1.429352,0 2.589407,-1.157375 2.589407,-2.5921 0,-1.434734 -1.160055,-2.600977 -2.589407,-2.600977 z m 21.872971,3.355528 -3.853178,0.0088 c -0.09723,1.98e-4 -0.187699,0.0724 -0.203263,0.168657 -0.465138,2.86888 -3.011427,5.033287 -5.930006,5.033287 -0.804946,0 -1.601123,-0.166954 -2.368468,-0.49711 -0.08976,-0.03835 -0.194692,-0.01124 -0.24745,0.071 l -2.067992,3.257885 c -0.03012,0.04769 -0.03263,0.105165 -0.01767,0.15978 0.01496,0.05438 0.04689,0.09911 0.09721,0.124282 1.432203,0.72021 3.027635,1.10075 4.60437,1.10075 0.584808,0 1.19536,-0.05885 1.811703,-0.168665 0.08652,-0.01521 0.148765,-0.08116 0.159075,-0.168657 0.20538,-1.781759 1.705488,-3.124726 3.490839,-3.124726 0.553473,0 1.123115,0.140325 1.634949,0.408344 0.07782,0.04083 0.168121,0.02761 0.229775,-0.03554 1.614134,-1.653428 2.634543,-3.833357 2.863371,-6.125162 0.0058,-0.05629 -0.01503,-0.108884 -0.05303,-0.150912 -0.03801,-0.04199 -0.09404,-0.06232 -0.150239,-0.06215 z m -4.551347,6.86196 c -1.429351,0 -2.589405,1.155894 -2.589405,2.583223 0,1.427328 1.160054,2.583223 2.589405,2.583223 1.429352,0 2.589408,-1.155895 2.589408,-2.583223 0,-1.427329 -1.160056,-2.583223 -2.589408,-2.583223 z"
       inkscape:connector-curvature="0"
       id="path3907"
       style="fill:#e45e2a;fill-opacity:1;overflow:visible" />
    <path
       d="m 106,22.461538 c 0,-7.538462 5.63731,-9.684514 9.84615,-9.846153 C 120.055,12.453745 125,14 125,20 c 0,6 -5.79657,6.113637 -5.46154,8.615385 C 119.87349,31.117132 122,30 122,33 c 0,2 -2.38461,3 -6,3 -3.61539,0 -10,-4 -10,-13.538462 z"
       inkscape:connector-curvature="0"
       id="path3929"
       style="fill:#ff0000;stroke:none" />
    <path
       d="m 30,33 a 2,1 0 1 1 -4,0 2,1 0 1 1 4,0 z"
       transform="matrix(1.4574514,0.3547327,-0.47297693,1.9432686,91.8847,-41.769845)"
       id="path3931"
       style="opacity:0.98999999;color:#000000;fill:#ffffff;fill-opacity:1;fill-rule:nonzero;stroke:none;stroke-width:2;marker:none;visibility:visible;display:inline;overflow:visible;enable-background:accumulate" />
    <path
       d="m 177.48177,14 c -0.4329,0 -0.77344,0.361781 -0.77344,0.802083 l 0,1.546875 c -0.77405,0.206239 -1.529,0.523089 -2.20573,0.916667 l -1.08854,-1.117188 c -0.15567,-0.155665 -0.34281,-0.227461 -0.54427,-0.229166 -0.20145,-0.0017 -0.41986,0.07613 -0.57292,0.229166 l -2.14843,2.148438 c -0.30611,0.306108 -0.31133,0.805847 0,1.117187 l 1.11718,1.088542 c -0.39358,0.676723 -0.71042,1.431669 -0.91666,2.205729 l -1.54688,0 c -0.44031,0 -0.80208,0.340537 -0.80208,0.773438 l 0,3.036458 c 0,0.432902 0.36178,0.773438 0.80208,0.773438 l 1.54688,0 c 0.20624,0.774061 0.52309,1.529006 0.91667,2.205729 l -1.11719,1.088542 c -0.31134,0.31134 -0.30614,0.811079 0,1.117187 l 2.14844,2.148438 c 0.3061,0.306107 0.80584,0.311337 1.11718,0 l 1.08854,-1.117188 c 0.67673,0.393577 1.43168,0.710427 2.20573,0.916667 l 0,1.546875 c 0,0.440302 0.34054,0.802083 0.77344,0.802083 l 3.03646,0 c 0.4329,0 0.77344,-0.361781 0.77344,-0.802083 l 0,-1.546875 c 0.77406,-0.20624 1.529,-0.52309 2.20573,-0.916667 l 1.08854,1.117188 c 0.31133,0.311338 0.81108,0.306119 1.11719,0 l 2.14843,-2.148438 c 0.30611,-0.30611 0.3113,-0.805848 0,-1.117187 l -1.11718,-1.088542 c 0.39357,-0.676723 0.71042,-1.431668 0.91666,-2.205729 l 1.54688,0 c 0.4403,8e-6 0.80208,-0.340535 0.80208,-0.773438 l 0,-3.036458 c 0,-0.4329 -0.36178,-0.773438 -0.80208,-0.773438 l -1.54688,0 c -0.20624,-0.774057 -0.52309,-1.529003 -0.91666,-2.205729 l 1.11718,-1.088542 c 0.31134,-0.311339 0.30615,-0.811078 0,-1.117187 l -2.14843,-2.148438 c -0.30612,-0.306105 -0.80585,-0.311299 -1.11719,0 l -1.08854,1.117188 c -0.67673,-0.393579 -1.43167,-0.710427 -2.20573,-0.916667 l 0,-1.546875 C 181.29167,14.361777 180.95113,14 180.51823,14 l -3.03646,0 z M 179,20.473958 c 2.49218,0 4.52604,2.033867 4.52604,4.526042 0,2.492178 -2.03387,4.526042 -4.52604,4.526042 -2.49218,0 -4.52604,-2.033864 -4.52604,-4.526042 0,-2.492175 2.03386,-4.526042 4.52604,-4.526042 z"
       inkscape:connector-curvature="0"
       id="path3955"
       style="fill:#e45d28;fill-opacity:1;fill-rule:nonzero;stroke:none;stroke-width:1;marker:none;visibility:visible;display:block;overflow:visible;enable-background:accumulate" />
    <path
       d="m 134.25,55.9375 c -3.54632,-0.0921 -7.00777,1.711738 -8.90625,5 -2.76142,4.782926 -1.12668,10.926076 3.65625,13.6875 4.78293,2.761424 10.89483,1.095426 13.65625,-3.6875 l -8.65625,-5 8.65625,-5 C 141.77857,59.417308 140.52019,58.158933 139,57.28125 137.50534,56.418305 135.86196,55.979366 134.25,55.9375 z M 135.5,59 c 0.82843,0 1.5,0.671573 1.5,1.5 0,0.828427 -0.67157,1.5 -1.5,1.5 -0.82843,0 -1.5,-0.671573 -1.5,-1.5 0,-0.828427 0.67157,-1.5 1.5,-1.5 z m 8.5,5 c -1.10457,0 -2,0.895431 -2,2 0,1.104569 0.89543,2 2,2 1.10457,0 2,-0.895431 2,-2 0,-1.104569 -0.89543,-2 -2,-2 z m 6,0 c -1.10457,0 -2,0.895431 -2,2 0,1.104569 0.89543,2 2,2 1.10457,0 2,-0.895431 2,-2 0,-1.104569 -0.89543,-2 -2,-2 z"
       inkscape:connector-curvature="0"
       id="path3957"
       style="opacity:0.98999999;color:#000000;fill:#e45d28;fill-opacity:1;fill-rule:nonzero;stroke:none;stroke-width:2;marker:none;visibility:visible;display:inline;overflow:visible;enable-background:accumulate" />
    <path
       d="m 127.39303,14 c -0.79444,0.609598 -0.70159,7.310347 3.33292,12.56823 0.87913,1.145701 1.86446,2.113033 2.88934,2.942991 -3.99211,5.748969 5.2242,9.738357 5.2242,9.738357 0,0 -3.98896,-5.226878 -0.74208,-7.032805 1.96687,0.842373 3.54124,1.103517 3.9059,0.823707 0.36465,-0.279809 0.51988,-1.868121 0.21527,-3.985997 2.58517,-2.640938 6.57628,2.55607 6.57628,2.55607 0,0 -1.46691,-9.915899 -8.02958,-7.585714 -0.53642,-1.204769 -1.21577,-2.406888 -2.09489,-3.552589 C 134.63587,15.214367 128.18748,13.390402 127.39303,14 z m 3.04381,3.966767 c 0.87752,-0.673343 2.13399,-0.508803 2.80641,0.367511 0.67242,0.876313 0.50615,2.132559 -0.37137,2.805902 -0.87751,0.673343 -2.13399,0.508803 -2.80641,-0.36751 -0.67242,-0.876314 -0.50615,-2.13256 0.37137,-2.805903 z"
       inkscape:connector-curvature="0"
       id="path3959"
       style="opacity:0.98999999;color:#000000;fill:#e45e2a;fill-opacity:1;fill-rule:nonzero;stroke:none;stroke-width:2;marker:none;visibility:visible;display:inline;overflow:visible;enable-background:accumulate" />
    <path
       d="m 77.375,50.9375 c -1.78462,0 -3.227162,1.215639 -3.71875,2.84375 -0.139045,-0.08757 -0.252618,-0.217809 -0.4375,-0.25 -0.786664,-0.136943 -1.541611,-0.1875 -2.28125,-0.1875 -2.034898,2.65e-4 -4.090804,0.489595 -5.9375,1.40625 -0.32914,0.163951 -0.508651,0.413461 -0.59375,0.71875 -0.09272,0.328222 -0.01634,0.71113 0.125,0.9375 l 2.5,3.9375 c 0.260529,0.415478 0.920147,0.642702 1.40625,0.4375 0.795199,-0.337671 1.647197,-0.5 2.5,-0.5 3.086352,0 5.797703,2.329162 6.28125,5.375 0.03556,0.224517 0.128809,0.42952 0.3125,0.625 0.183691,0.19548 0.490714,0.34375 0.8125,0.34375 l 4.65625,0 c 0.456801,0 0.673888,-0.152495 0.875,-0.375 0.21915,-0.242589 0.312021,-0.576331 0.28125,-0.90625 -0.270743,-2.794131 -1.436045,-5.466326 -3.3125,-7.5625 -0.12717,-0.142817 -0.312035,-0.209001 -0.5,-0.28125 0.614106,-0.700786 1,-1.593774 1,-2.59375 0,-2.19185 -1.783519,-3.96875 -3.96875,-3.96875 z m -14.15625,4.96875 c 0.07479,-0.01853 -0.130666,-0.02135 -0.4375,0.21875 -2.178854,1.685647 -3.798684,4.036864 -4.59375,6.65625 -0.03473,0.114402 0.09066,0.170963 0.09375,0.28125 -0.52757,-0.256224 -1.095176,-0.40625 -1.71875,-0.40625 -2.23255,0 -4.0625,1.823033 -4.0625,4.0625 0,2.239466 1.84102,4.03125 4.0625,4.03125 0.595699,0 1.145381,-0.140949 1.65625,-0.375 0.0075,0.04918 -0.0463,0.07531 -0.03125,0.125 0.789799,2.600891 2.41133,4.943688 4.5625,6.625 0.340423,0.267076 0.727663,0.250143 0.90625,0.21875 0.479967,-0.08294 0.674376,-0.36343 0.78125,-0.53125 l 2.5,-3.90625 c 0.347283,-0.546515 0.129421,-1.164891 -0.25,-1.5 -1.368022,-1.209039 -2.15625,-2.973797 -2.15625,-4.78125 0,-1.820545 0.795022,-3.531645 2.1875,-4.75 0.383573,-0.336738 0.591298,-0.956019 0.25,-1.5 l -2.5,-3.96875 c -0.190248,-0.30222 -0.582588,-0.464908 -0.78125,-0.5 -0.08035,-0.01396 -0.27762,-0.04735 -0.46875,0 z m 15.125,10.8125 c -0.64795,0.0013 -1.057998,0.361234 -1.15625,0.96875 -0.490195,3.023423 -3.173789,5.34375 -6.25,5.34375 -0.832038,0 -1.670274,-0.205502 -2.5,-0.5625 -0.491074,-0.209952 -1.178833,0.03433 -1.4375,0.4375 l -2.53125,3.9375 c -0.136777,0.216688 -0.16807,0.494362 -0.15625,0.65625 0.01182,0.161888 0.05447,0.251941 0.0625,0.28125 0.08582,0.312178 0.2671,0.555326 0.59375,0.71875 1.857413,0.934042 3.909351,1.4375 5.96875,1.4375 0.781881,0 1.562726,-0.07954 2.34375,-0.21875 0.112707,-0.01985 0.163674,-0.205719 0.28125,-0.28125 0.216704,2.022167 1.858307,3.625 3.9375,3.625 2.224652,0 4.03125,-1.809214 4.03125,-4.03125 0,-1.176146 -0.534009,-2.196403 -1.34375,-2.9375 0.0836,-0.0566 0.197946,-0.102951 0.25,-0.15625 2.09879,-2.14988 3.420675,-4.983401 3.71875,-7.96875 C 84.191112,67.629789 84.092106,67.302615 83.875,67.0625 83.550023,66.703252 83.177551,66.718123 83,66.71875 l -4.65625,0 z"
       transform="matrix(0.80997959,0,0,0.80997959,61.984388,12.72107)"
       id="path4273"
       style="opacity:0.05;fill:#000000;fill-opacity:1;overflow:visible" />
    <path
       d="m 124.66796,54.7016 c -1.36872,0 -2.47701,1.114345 -2.47701,2.488071 0,1.373733 1.10829,2.488071 2.47701,2.488071 1.36871,0 2.47699,-1.114338 2.47699,-2.488071 0,-1.373726 -1.10828,-2.488071 -2.47699,-2.488071 z m -5.23115,1.948697 c -1.52758,2.03e-4 -3.07633,0.387462 -4.469,1.078747 -0.0495,0.0247 -0.0804,0.06844 -0.0953,0.121789 -0.0151,0.0533 -0.012,0.10963 0.0173,0.156593 l 2.00932,3.192737 c 0.0509,0.08118 0.15435,0.115503 0.2425,0.07832 0.74369,-0.315795 1.51539,-0.46978 2.29512,-0.46978 2.86815,0 5.37039,2.134839 5.82009,4.967435 0.0151,0.09512 0.0949,0.165292 0.19054,0.165292 l 3.77613,0 c 0.0551,0 0.11019,-0.01993 0.14723,-0.06091 0.037,-0.04099 0.0571,-0.09257 0.052,-0.147886 -0.20365,-2.101719 -1.09818,-4.136623 -2.51164,-5.715605 -0.0637,-0.0716 -0.17054,-0.07841 -0.25117,-0.02608 -0.56994,0.369723 -1.2166,0.565471 -1.87074,0.565471 -1.90833,0 -3.45547,-1.557299 -3.45568,-3.462412 2.1e-4,-7.69e-4 0,-0.06642 0,-0.06958 0,-0.09492 -0.0709,-0.183777 -0.16455,-0.200089 -0.59669,-0.103872 -1.1759,-0.173992 -1.73217,-0.173992 z m -6.06259,2.087893 c -0.0262,0.0065 -0.0565,0.01798 -0.0779,0.03483 -1.63792,1.267156 -2.86627,3.049249 -3.46434,5.019638 -0.0234,0.07703 -0.002,0.158642 0.0606,0.208788 0.82312,0.654869 1.31645,1.662912 1.31645,2.69686 0,1.033938 -0.49313,2.041982 -1.31645,2.696851 -0.0628,0.04998 -0.084,0.131581 -0.0606,0.208788 0.59332,1.953874 1.81198,3.729163 3.42969,4.993541 0.0434,0.03402 0.093,0.05305 0.14723,0.0435 0.0541,-0.0093 0.1004,-0.04933 0.12992,-0.0957 l 2.02664,-3.18403 c 0.0518,-0.08139 0.0377,-0.18841 -0.0347,-0.252293 -1.26965,-1.122089 -2.00066,-2.731 -2.00066,-4.410663 0,-1.692201 0.73506,-3.305567 2.01798,-4.428061 0.0723,-0.0635 0.0946,-0.170509 0.0433,-0.252292 l -2.00932,-3.192729 c -0.0293,-0.04657 -0.0758,-0.07743 -0.12991,-0.08699 -0.0271,-0.0049 -0.0518,-0.0065 -0.0779,0 z m -5.58625,5.463312 c -1.40077,0 -2.53762,1.142922 -2.53762,2.548965 0,1.406036 1.13685,2.540266 2.53762,2.540266 1.40077,0 2.53763,-1.13423 2.53763,-2.540266 0,-1.406043 -1.13686,-2.548965 -2.53763,-2.548965 z m 21.43559,3.288428 -3.77613,0.0087 c -0.0953,1.94e-4 -0.18394,0.07095 -0.1992,0.165284 -0.45584,2.811512 -2.95121,4.932638 -5.81142,4.932638 -0.78885,0 -1.56911,-0.163616 -2.32111,-0.48717 -0.088,-0.03758 -0.1908,-0.01102 -0.2425,0.06958 l -2.02664,3.192737 c -0.0295,0.04674 -0.032,0.103062 -0.0173,0.156585 0.0147,0.0533 0.0459,0.09712 0.0953,0.121797 1.40356,0.705808 2.96709,1.078739 4.5123,1.078739 0.57311,0 1.17145,-0.05767 1.77547,-0.165293 0.0848,-0.0149 0.14579,-0.07954 0.1559,-0.165284 0.20127,-1.74613 1.67137,-3.062241 3.42103,-3.062241 0.5424,0 1.10065,0.137518 1.60225,0.400178 0.0763,0.04001 0.16477,0.02705 0.22518,-0.03483 1.58186,-1.620364 2.58186,-3.756701 2.80612,-6.002678 0.006,-0.05516 -0.0147,-0.106706 -0.052,-0.147894 -0.0373,-0.04115 -0.0922,-0.06107 -0.14724,-0.06091 z m -4.46033,6.724742 c -1.40078,0 -2.53763,1.132781 -2.53763,2.531567 0,1.398786 1.13685,2.531567 2.53763,2.531567 1.40076,0 2.53762,-1.132781 2.53762,-2.531567 0,-1.398786 -1.13686,-2.531567 -2.53762,-2.531567 z"
       inkscape:connector-curvature="0"
       id="path4275"
       style="opacity:0.15;fill:#000000;fill-opacity:1;overflow:visible" />
    <path
       d="m 124.66796,53.89162 c -1.36872,0 -2.47701,1.114346 -2.47701,2.488071 0,1.373734 1.10829,2.488071 2.47701,2.488071 1.36871,0 2.47699,-1.114337 2.47699,-2.488071 0,-1.373725 -1.10828,-2.488071 -2.47699,-2.488071 z m -5.23115,1.948698 c -1.52758,2.02e-4 -3.07633,0.387461 -4.469,1.078747 -0.0495,0.0247 -0.0804,0.06844 -0.0953,0.121788 -0.0151,0.0533 -0.012,0.109631 0.0173,0.156593 l 2.00932,3.192737 c 0.0509,0.08118 0.15435,0.115504 0.2425,0.07832 0.74369,-0.315794 1.51539,-0.46978 2.29512,-0.46978 2.86815,0 5.37039,2.134839 5.82009,4.967435 0.0151,0.09512 0.0949,0.165293 0.19054,0.165293 l 3.77613,0 c 0.0551,0 0.11019,-0.01993 0.14723,-0.06091 0.037,-0.04098 0.0571,-0.09257 0.052,-0.147886 -0.20365,-2.101719 -1.09818,-4.136622 -2.51164,-5.715605 -0.0637,-0.0716 -0.17054,-0.07841 -0.25117,-0.02608 -0.56994,0.369723 -1.2166,0.565471 -1.87074,0.565471 -1.90833,0 -3.45547,-1.557299 -3.45568,-3.462412 2.1e-4,-7.69e-4 0,-0.06642 0,-0.06958 0,-0.09492 -0.0709,-0.183776 -0.16455,-0.200089 -0.59669,-0.103872 -1.1759,-0.173992 -1.73217,-0.173992 z m -6.06259,2.087892 c -0.0262,0.0065 -0.0565,0.01798 -0.0779,0.03483 -1.63792,1.267156 -2.86627,3.049249 -3.46434,5.019638 -0.0234,0.07703 -0.002,0.158643 0.0606,0.208788 0.82312,0.654869 1.31645,1.662913 1.31645,2.69686 0,1.033939 -0.49313,2.041983 -1.31645,2.696851 -0.0628,0.04998 -0.084,0.131581 -0.0606,0.208789 0.59332,1.953873 1.81198,3.729162 3.42969,4.99354 0.0434,0.03402 0.093,0.05305 0.14723,0.0435 0.0541,-0.0093 0.1004,-0.04933 0.12992,-0.0957 l 2.02664,-3.18403 c 0.0518,-0.08139 0.0377,-0.188409 -0.0347,-0.252292 -1.26965,-1.122089 -2.00066,-2.731 -2.00066,-4.410663 0,-1.692201 0.73506,-3.305567 2.01798,-4.428061 0.0723,-0.0635 0.0946,-0.170509 0.0433,-0.252293 l -2.00932,-3.192729 c -0.0293,-0.04657 -0.0758,-0.07743 -0.12991,-0.08699 -0.0271,-0.0049 -0.0518,-0.0065 -0.0779,0 z m -5.58625,5.463312 c -1.40077,0 -2.53762,1.142922 -2.53762,2.548966 0,1.406035 1.13685,2.540266 2.53762,2.540266 1.40077,0 2.53763,-1.134231 2.53763,-2.540266 0,-1.406044 -1.13686,-2.548966 -2.53763,-2.548966 z m 21.43559,3.288428 -3.77613,0.0087 c -0.0953,1.95e-4 -0.18394,0.07095 -0.1992,0.165285 -0.45584,2.811512 -2.95121,4.932638 -5.81142,4.932638 -0.78885,0 -1.56911,-0.163616 -2.32111,-0.487171 -0.088,-0.03758 -0.1908,-0.01102 -0.2425,0.06958 l -2.02664,3.192737 c -0.0295,0.04673 -0.032,0.103061 -0.0173,0.156585 0.0147,0.0533 0.0459,0.09712 0.0953,0.121797 1.40356,0.705808 2.96709,1.078738 4.5123,1.078738 0.57311,0 1.17145,-0.05767 1.77547,-0.165292 0.0848,-0.0149 0.14579,-0.07954 0.1559,-0.165285 0.20127,-1.746129 1.67137,-3.062241 3.42103,-3.062241 0.5424,0 1.10065,0.137519 1.60225,0.400179 0.0763,0.04001 0.16477,0.02705 0.22518,-0.03483 1.58186,-1.620365 2.58186,-3.756702 2.80612,-6.002678 0.006,-0.05516 -0.0147,-0.106707 -0.052,-0.147894 -0.0373,-0.04115 -0.0922,-0.06107 -0.14724,-0.06091 z m -4.46033,6.724743 c -1.40078,0 -2.53763,1.13278 -2.53763,2.531566 0,1.398787 1.13685,2.531567 2.53763,2.531567 1.40076,0 2.53762,-1.13278 2.53762,-2.531567 0,-1.398786 -1.13686,-2.531566 -2.53762,-2.531566 z"
       inkscape:connector-curvature="0"
       id="path4277"
       style="fill:url(#linearGradient4281);fill-opacity:1;overflow:visible" />
    <path
       d="m 124.65656,53.90347 c -1.36871,0 -2.45525,1.106837 -2.45525,2.480563 0,0.137712 0.0292,0.273351 0.0506,0.404989 0.19226,-1.181493 1.17312,-2.075572 2.40463,-2.075572 1.2315,0 2.23767,0.894079 2.42994,2.075572 0.0215,-0.131638 0.0506,-0.267277 0.0506,-0.404989 0,-1.373726 -1.11185,-2.480563 -2.48056,-2.480563 z m -5.21424,1.949013 c -1.52758,2.03e-4 -3.08754,0.371813 -4.4802,1.063099 -0.0495,0.0247 -0.0864,0.07322 -0.10125,0.126559 -0.0151,0.0533 -0.004,0.104908 0.0253,0.151871 l 0.27843,0.455614 c 1.34218,-0.632902 2.82007,-0.986969 4.2777,-0.987163 0.55628,0 1.12452,0.04803 1.72121,0.151871 0.0937,0.01628 0.17718,0.107574 0.17718,0.202495 0,0.0032 2e-4,0.07517 0,0.07589 2e-4,1.905113 1.53408,3.467725 3.44242,3.467725 0.65414,0 1.30313,-0.212449 1.87308,-0.582173 0.0806,-0.05232 0.18933,-0.02098 0.25311,0.05062 1.27115,1.419983 2.12324,3.187926 2.42994,5.062373 0.009,-0.0065 0.0179,-0.01709 0.0253,-0.02527 0.037,-0.04099 0.0558,-0.09655 0.0506,-0.151871 -0.20365,-2.101719 -1.0924,-4.116195 -2.50587,-5.695169 -0.0638,-0.0716 -0.1725,-0.102956 -0.25312,-0.05062 -0.56994,0.369724 -1.21894,0.582173 -1.87308,0.582173 -1.90834,0 -3.44222,-1.562612 -3.44241,-3.467725 1.9e-4,-7.69e-4 0,-0.07274 0,-0.07589 0,-0.09492 -0.0835,-0.186182 -0.17719,-0.202495 -0.59668,-0.103912 -1.16492,-0.151912 -1.7212,-0.151912 z m -6.07485,2.075573 c -0.0262,0.0065 -0.0544,0.0085 -0.0759,0.02527 -1.63792,1.267157 -2.86965,3.066672 -3.46773,5.037061 -0.0234,0.07703 0.0129,0.152349 0.0759,0.202495 0.0391,0.0311 0.0637,0.0686 0.10125,0.101247 0.64437,-1.768323 1.79405,-3.373079 3.29054,-4.530823 0.0215,-0.01685 0.0498,-0.01887 0.0759,-0.02527 0.0262,-0.0065 0.0489,-0.0049 0.0759,0 0.0541,0.0096 0.0973,0.0294 0.12656,0.07589 l 1.79714,2.834928 c 0.0613,-0.05848 0.11309,-0.1211 0.17719,-0.177183 0.0723,-0.0635 0.10193,-0.171335 0.0506,-0.253118 l -2.02495,-3.214607 c -0.0293,-0.04657 -0.0725,-0.06642 -0.12656,-0.0759 -0.0271,-0.0049 -0.0498,-0.0065 -0.0759,0 z m -5.56861,5.467362 c -1.40077,0 -2.5565,1.150455 -2.5565,2.556498 0,0.140953 0.0287,0.270372 0.0506,0.40499 0.18921,-1.219035 1.23889,-2.151508 2.50587,-2.151508 1.26699,0 2.29136,0.932473 2.48057,2.151508 0.022,-0.134618 0.0506,-0.264037 0.0506,-0.40499 0,-1.406043 -1.13042,-2.556498 -2.53119,-2.556498 z m 5.74579,2.885553 c -0.01,0.139446 -0.0253,0.264215 -0.0253,0.404989 0,1.589585 0.6761,3.116883 1.82246,4.227081 l 0.2278,-0.354366 c 0.0518,-0.08139 0.0217,-0.189243 -0.0506,-0.253118 -1.16822,-1.032449 -1.86799,-2.491959 -1.97432,-4.024586 z m -2.354,0.02527 c -0.11124,0.885421 -0.5771,1.710304 -1.29091,2.278068 -0.0628,0.04998 -0.0993,0.125287 -0.0759,0.202495 0.0513,0.168702 0.11678,0.34041 0.17719,0.506237 0.75397,-0.655015 1.21497,-1.6223 1.21497,-2.607122 0,-0.12924 -0.0102,-0.251879 -0.0253,-0.379678 z m 14.25058,0.379678 c -0.0953,1.94e-4 -0.18725,0.08287 -0.2025,0.177183 -0.45584,2.811512 -2.9362,4.935813 -5.79641,4.935813 -0.78885,0 -1.57669,-0.182683 -2.3287,-0.506237 -0.088,-0.03758 -0.1761,-0.0049 -0.2278,0.07589 l -2.05026,3.189335 c -0.0295,0.04674 -0.0147,0.09834 0,0.151871 0.0147,0.0533 0.0519,0.101888 0.10124,0.12656 0.058,0.02916 0.1187,0.04795 0.17719,0.07589 l 1.77183,-2.733681 c 0.0517,-0.08059 0.13984,-0.113543 0.2278,-0.0759 0.75201,0.323555 1.53985,0.506238 2.3287,0.506238 2.86021,0 5.34057,-2.124301 5.79641,-4.935813 0.0152,-0.09431 0.10721,-0.176989 0.2025,-0.177183 l 3.77146,0 c 0.0468,-1.62e-4 0.0907,0.02098 0.12656,0.05062 0.0369,-0.218532 0.0539,-0.437065 0.0759,-0.658108 0.006,-0.05516 -0.0134,-0.110684 -0.0506,-0.151871 -0.0373,-0.04115 -0.0968,-0.05079 -0.15187,-0.05054 l -3.77146,0 z m -0.68342,6.707684 c -1.40077,0 -2.53119,1.1324 -2.53119,2.531186 0,0.13359 0.0306,0.277005 0.0506,0.40499 0.19719,-1.202739 1.22022,-2.126196 2.48056,-2.126196 1.26035,0 2.28338,0.923457 2.48057,2.126196 0.02,-0.127985 0.0506,-0.2714 0.0506,-0.40499 0,-1.398786 -1.13042,-2.531186 -2.53119,-2.531186 z"
       inkscape:connector-curvature="0"
       id="path4279"
       style="opacity:0.3;fill:#ffffff;fill-opacity:1;overflow:visible" />
    <path
       d="m 12,116 c -3.324,0 -6,2.676 -6,6 l 0,33 42,0 0,-39 z m 37,0 0,39 41,0 0,-33 c 0,-3.324 -2.676,-6 -6,-6 z m -43,40 0,38 c 0,3.324 2.676,6 6,6 l 36,0 0,-44 z"
       inkscape:connector-curvature="0"
       id="path3956"
       style="color:#000000;fill:url(#linearGradient3960);fill-opacity:1;fill-rule:nonzero;stroke:none;stroke-width:2;marker:none;visibility:visible;display:inline;overflow:visible;enable-background:accumulate" />
    <path
       d="m 21.3125,124 c -0.629251,0.003 -1.262739,0.0871 -1.875,0.25 l 4.5,4.5 -5.1875,5.1875 -4.5,-4.5 c -0.651553,2.44905 -0.01469,5.17281 1.90625,7.09375 2.868827,2.86882 7.506181,2.86882 10.375,0 2.86882,-2.86882 2.86882,-7.50618 0,-10.375 C 25.090546,124.71554 23.200254,123.99079 21.3125,124 z m 46.15625,0 c -0.432905,0 -0.75,0.3722 -0.75,0.8125 l 0,1.53125 C 65.944692,126.54999 65.176724,126.85642 64.5,127.25 l -1.09375,-1.09375 c -0.155672,-0.15566 -0.329795,-0.24829 -0.53125,-0.25 -0.201454,-0.002 -0.440695,0.097 -0.59375,0.25 l -2.125,2.15625 c -0.306105,0.30611 -0.31133,0.78241 0,1.09375 L 61.25,130.5 c -0.39358,0.67672 -0.700005,1.44469 -0.90625,2.21875 l -1.53125,0 c -0.440311,0 -0.8125,0.3171 -0.8125,0.75 l 0,3.0625 c 0,0.4329 0.372198,0.75 0.8125,0.75 l 1.53125,0 c 0.206245,0.77406 0.512675,1.54203 0.90625,2.21875 l -1.09375,1.09375 c -0.311339,0.31134 -0.306135,0.78764 0,1.09375 l 2.15625,2.15625 c 0.306107,0.30611 0.78241,0.31134 1.09375,0 L 64.5,142.75 c 0.676724,0.39358 1.444692,0.70001 2.21875,0.90625 l 0,1.53125 c 0,0.4403 0.317095,0.8125 0.75,0.8125 l 3.0625,0 c 0.432904,0 0.75,-0.3722 0.75,-0.8125 l 0,-1.53125 C 72.05531,143.45001 72.823277,143.14358 73.5,142.75 l 1.09375,1.09375 c 0.311337,0.31134 0.787642,0.30612 1.09375,0 l 2.15625,-2.15625 c 0.306105,-0.30611 0.3113,-0.78241 0,-1.09375 L 76.75,139.5 c 0.393576,-0.67672 0.700011,-1.44469 0.90625,-2.21875 l 1.53125,0 c 0.440298,1e-5 0.8125,-0.3171 0.8125,-0.75 l 0,-3.0625 c 0,-0.4329 -0.372202,-0.75 -0.8125,-0.75 l -1.53125,0 C 77.45001,131.94469 77.143576,131.17673 76.75,130.5 l 1.09375,-1.09375 c 0.311337,-0.31134 0.306145,-0.78764 0,-1.09375 l -2.15625,-2.15625 c -0.306115,-0.30611 -0.782408,-0.3113 -1.09375,0 l -1.09375,1.125 c -0.676724,-0.39358 -1.44469,-0.73126 -2.21875,-0.9375 l 0,-1.53125 c 0,-0.44031 -0.3171,-0.8125 -0.75,-0.8125 l -3.0625,0 z M 69,130.46875 c 2.492178,0 4.53125,2.03907 4.53125,4.53125 0,2.49218 -2.039077,4.53125 -4.53125,4.53125 -2.492175,0 -4.53125,-2.03907 -4.53125,-4.53125 0,-2.49218 2.039075,-4.53125 4.53125,-4.53125 z m -39.125,4.21875 c -0.44788,1.14139 -1.108851,2.23385 -2.03125,3.15625 -0.9224,0.9224 -2.014857,1.58337 -3.15625,2.03125 l 7.03125,7.03125 c 1.438866,1.43887 3.748634,1.43887 5.1875,0 1.438867,-1.43887 1.438867,-3.74863 0,-5.1875 L 29.875,134.6875 z m 4.4375,7.8125 c 0.470005,0 0.953896,0.17265 1.3125,0.53125 0.717206,0.71721 0.717206,1.87654 0,2.59375 -0.7172,0.71721 -1.876543,0.71721 -2.59375,0 -0.717206,-0.71721 -0.717206,-1.87654 0,-2.59375 C 33.389854,142.67265 33.842495,142.5 34.3125,142.5 z M 24.25,165.9375 c -3.546316,-0.0921 -7.007771,1.71174 -8.90625,5 -2.761424,4.78293 -1.126676,10.92608 3.65625,13.6875 4.782926,2.76142 10.894826,1.09543 13.65625,-3.6875 l -8.65625,-5 8.65625,-5 C 31.778567,169.41731 30.520192,168.15893 29,167.28125 27.505336,166.41831 25.861962,165.97937 24.25,165.9375 z M 25.5,169 c 0.828427,0 1.5,0.67157 1.5,1.5 0,0.82843 -0.671573,1.5 -1.5,1.5 -0.828427,0 -1.5,-0.67157 -1.5,-1.5 0,-0.82843 0.671573,-1.5 1.5,-1.5 z m 8.5,5 c -1.104569,0 -2,0.89543 -2,2 0,1.10457 0.895431,2 2,2 1.104569,0 2,-0.89543 2,-2 0,-1.10457 -0.895431,-2 -2,-2 z m 6,0 c -1.104569,0 -2,0.89543 -2,2 0,1.10457 0.895431,2 2,2 1.104569,0 2,-0.89543 2,-2 0,-1.10457 -0.895431,-2 -2,-2 z"
       inkscape:connector-curvature="0"
       id="path3958"
       style="fill:#e45d28;fill-opacity:1;fill-rule:nonzero;stroke:none;stroke-width:1;marker:none;visibility:visible;display:block;overflow:visible;enable-background:accumulate" />
    <path
       d="M 20.28125,15.09375 C 20.00027,15.13489 19.712232,15.17691 19.4375,15.25 l 4,4 0.5,-0.5 -3.65625,-3.65625 z M 60.125,19.375 c -0.257948,0.306006 -0.262957,0.737034 0.03125,1.03125 l 0.75,0.75 C 61.011617,20.930115 61.127296,20.710978 61.25,20.5 L 60.15625,19.40625 C 60.14535,19.39535 60.13512,19.38629 60.125,19.375 z m 17.75,0 c -0.01012,0.01129 -0.02035,0.02035 -0.03125,0.03125 L 76.75,20.5 c 0.122703,0.210979 0.238382,0.430114 0.34375,0.65625 l 0.75,-0.75 C 78.137963,20.112035 78.132978,19.681006 77.875,19.375 z M 69,20.46875 c -2.492175,0 -4.53125,2.039075 -4.53125,4.53125 0,0.172253 0.04354,0.332599 0.0625,0.5 0.255337,-2.254564 2.148828,-4.03125 4.46875,-4.03125 2.319925,0 4.213413,1.776686 4.46875,4.03125 0.01896,-0.167401 0.0625,-0.327747 0.0625,-0.5 0,-2.492175 -2.039072,-4.53125 -4.53125,-4.53125 z M 14.03125,21.8125 c -0.14637,2.052695 0.556268,4.150015 2.125,5.71875 2.868827,2.868821 7.506181,2.868821 10.375,0 1.564912,-1.564913 2.267375,-3.644221 2.125,-5.6875 -0.118629,1.702491 -0.821092,3.38359 -2.125,4.6875 -2.868819,2.868821 -7.506173,2.868821 -10.375,0 -1.312678,-1.31268 -2.012957,-3.000133 -2.125,-4.71875 z M 58,26.53125 l 0,1 c 0,0.432902 0.372198,0.75 0.8125,0.75 l 1.53125,0 c 0.141945,0.532736 0.329897,1.063296 0.5625,1.5625 L 61.25,29.5 c -0.393575,-0.676723 -0.700005,-1.444689 -0.90625,-2.21875 l -1.53125,0 c -0.440302,0 -0.8125,-0.317098 -0.8125,-0.75 z m 22,0 c 0,0.432903 -0.372202,0.750008 -0.8125,0.75 l -1.53125,0 C 77.450011,28.055311 77.143576,28.823277 76.75,29.5 l 0.34375,0.34375 c 0.232604,-0.499204 0.420559,-1.029764 0.5625,-1.5625 l 1.53125,0 c 0.440298,8e-6 0.8125,-0.317097 0.8125,-0.75 l 0,-1 z M 25.375,30.5625 c -0.228251,0.109807 -0.454122,0.220923 -0.6875,0.3125 l 7.03125,7.03125 c 1.438866,1.438866 3.748634,1.438866 5.1875,0 0.850041,-0.850039 1.185568,-1.994936 1.03125,-3.09375 -0.106896,0.761152 -0.442424,1.504924 -1.03125,2.09375 -1.438866,1.438866 -3.748634,1.438866 -5.1875,0 L 25.375,30.5625 z m 34.75,1.0625 c -0.279078,0.31119 -0.26417,0.767106 0.03125,1.0625 l 2.15625,2.15625 c 0.306107,0.306107 0.78241,0.311337 1.09375,0 L 64.5,33.75 c 0.676724,0.393577 1.444692,0.70001 2.21875,0.90625 l 0,-1 C 65.944692,33.45001 65.176724,33.143577 64.5,32.75 l -1.09375,1.09375 c -0.31134,0.311337 -0.787643,0.306107 -1.09375,0 L 60.15625,31.6875 C 60.13941,31.67066 60.14001,31.64281 60.125,31.625 z m 17.75,0 c -0.01501,0.01781 -0.01441,0.04566 -0.03125,0.0625 l -2.15625,2.15625 c -0.306108,0.306119 -0.782413,0.311338 -1.09375,0 L 73.5,32.75 c -0.676723,0.393577 -1.44469,0.70001 -2.21875,0.90625 l 0,1 C 72.05531,34.45001 72.823277,34.143577 73.5,33.75 l 1.09375,1.09375 c 0.311337,0.311338 0.787642,0.306119 1.09375,0 L 77.84375,32.6875 C 78.139141,32.392104 78.154044,31.936189 77.875,31.625 z M 34.3125,32.5 c -0.470005,0 -0.922646,0.172647 -1.28125,0.53125 -0.480666,0.480665 -0.632361,1.169593 -0.46875,1.78125 0.08278,-0.290301 0.239796,-0.552296 0.46875,-0.78125 C 33.389854,33.672647 33.842495,33.5 34.3125,33.5 c 0.470005,0 0.953896,0.172647 1.3125,0.53125 0.228954,0.228954 0.385974,0.490949 0.46875,0.78125 C 36.257361,34.200843 36.10567,33.511915 35.625,33.03125 35.266396,32.672647 34.782505,32.5 34.3125,32.5 z m 32.40625,2.6875 0,1 c 0,0.440302 0.317095,0.8125 0.75,0.8125 l 3.0625,0 c 0.432904,0 0.75,-0.372198 0.75,-0.8125 l 0,-1 c 0,0.440302 -0.317096,0.8125 -0.75,0.8125 l -3.0625,0 c -0.432905,0 -0.75,-0.372198 -0.75,-0.8125 z M 25.5,59 c -0.828427,0 -1.5,0.671573 -1.5,1.5 0,0.172589 0.04011,0.345681 0.09375,0.5 0.20384,-0.586412 0.750412,-1 1.40625,-1 0.655838,0 1.20241,0.413588 1.40625,1 C 26.959892,60.845681 27,60.672589 27,60.5 27,59.671573 26.328427,59 25.5,59 z M 32.1875,61.21875 24,65.9375 l 0.875,0.5 7.78125,-4.5 C 32.512388,61.688324 32.351294,61.453334 32.1875,61.21875 z m -18.15625,5.125 C 13.808186,70.015141 15.605486,73.665176 19,75.625 c 4.782926,2.761424 10.894826,1.095426 13.65625,-3.6875 L 32.1875,71.65625 C 29.252575,75.884452 23.536333,77.244054 19,74.625 15.914342,72.843494 14.161227,69.666978 14.03125,66.34375 z M 32.0625,66.5 C 32.021396,66.659759 32,66.827411 32,67 c 0,1.104569 0.895431,2 2,2 1.104569,0 2,-0.895431 2,-2 0,-0.172589 -0.0214,-0.340241 -0.0625,-0.5 C 35.715537,67.362699 34.93198,68 34,68 33.06802,68 32.284463,67.362699 32.0625,66.5 z m 6,0 C 38.021396,66.659759 38,66.827411 38,67 c 0,1.104569 0.895431,2 2,2 1.104569,0 2,-0.895431 2,-2 0,-0.172589 -0.0214,-0.340241 -0.0625,-0.5 C 41.715537,67.362699 40.93198,68 40,68 39.06802,68 38.284463,67.362699 38.0625,66.5 z"
       inkscape:connector-curvature="0"
       id="path3966"
       style="opacity:0.3;fill:#ffffff;fill-opacity:1;fill-rule:nonzero;stroke:none;stroke-width:1;marker:none;visibility:visible;display:block;overflow:visible;enable-background:accumulate" />
    <path
       d="m 21.3125,14 c -0.629251,0.0031 -1.262739,0.08711 -1.875,0.25 l 0.84375,0.84375 C 20.626454,15.0432 20.965605,15.00171 21.3125,15 c 1.887754,-0.0092 3.778046,0.715543 5.21875,2.15625 1.303908,1.303909 2.006371,2.985009 2.125,4.6875 0.142375,-2.043279 -0.560088,-4.122588 -2.125,-5.6875 C 25.090546,14.715543 23.200254,13.990789 21.3125,14 z m 46.15625,0 c -0.432905,0 -0.75,0.372198 -0.75,0.8125 l 0,1 c 0,-0.440302 0.317095,-0.8125 0.75,-0.8125 l 3.0625,0 c 0.4329,0 0.75,0.372194 0.75,0.8125 l 0,-1 c 0,-0.440306 -0.3171,-0.8125 -0.75,-0.8125 l -3.0625,0 z M 62.875,15.90625 c -0.201454,-0.0017 -0.440695,0.09696 -0.59375,0.25 l -2.125,2.15625 c -0.295391,0.295394 -0.310319,0.75131 -0.03125,1.0625 0.01501,-0.01781 0.01441,-0.04566 0.03125,-0.0625 l 2.125,-2.15625 c 0.153055,-0.15304 0.392296,-0.2517 0.59375,-0.25 0.201455,0.0017 0.375578,0.09434 0.53125,0.25 L 64.5,18.25 c 0.676724,-0.393578 1.444692,-0.700011 2.21875,-0.90625 l 0,-1 C 65.944692,16.549989 65.176724,16.856422 64.5,17.25 l -1.09375,-1.09375 c -0.155672,-0.155665 -0.329795,-0.248295 -0.53125,-0.25 z m 12.28125,0.03125 c -0.196255,-6.49e-4 -0.406829,0.0631 -0.5625,0.21875 L 73.5,17.28125 c -0.676724,-0.393579 -1.44469,-0.73126 -2.21875,-0.9375 l 0,1 c 0.77406,0.20624 1.542026,0.543921 2.21875,0.9375 l 1.09375,-1.125 c 0.311342,-0.311299 0.787635,-0.306105 1.09375,0 l 2.15625,2.15625 c 0.01684,0.01684 0.01623,0.04469 0.03125,0.0625 0.279077,-0.311189 0.26418,-0.767105 -0.03125,-1.0625 L 75.6875,16.15625 C 75.534442,16.003197 75.352505,15.938149 75.15625,15.9375 z M 23.4375,19.25 18.75,23.9375 l -4.5,-4.5 c -0.206313,0.775486 -0.270668,1.578635 -0.21875,2.375 0.03286,-0.460866 0.09929,-0.925963 0.21875,-1.375 l 4.5,4.5 5.1875,-5.1875 -0.5,-0.5 z m 37.46875,1.90625 c -0.232603,0.499205 -0.420555,1.029765 -0.5625,1.5625 l -1.53125,0 c -0.440311,0 -0.8125,0.317099 -0.8125,0.75 l 0,1 c 0,-0.432901 0.372189,-0.75 0.8125,-0.75 l 1.53125,0 C 60.549995,22.94469 60.85642,22.176723 61.25,21.5 l -0.34375,-0.34375 z m 16.1875,0 L 76.75,21.5 c 0.393576,0.676726 0.70001,1.444693 0.90625,2.21875 l 1.53125,0 c 0.440298,0 0.8125,0.3171 0.8125,0.75 l 0,-1 c 0,-0.4329 -0.372202,-0.75 -0.8125,-0.75 l -1.53125,0 c -0.141942,-0.532733 -0.329896,-1.063295 -0.5625,-1.5625 z M 29.875,24.6875 c -0.44788,1.141391 -1.108851,2.233851 -2.03125,3.15625 -0.9224,0.9224 -2.014857,1.58337 -3.15625,2.03125 l 0.6875,0.6875 c 0.888067,-0.427234 1.734951,-0.984951 2.46875,-1.71875 0.922399,-0.922399 1.58337,-2.014859 2.03125,-3.15625 l 7.03125,7.03125 c 0.588826,0.588826 0.924354,1.332598 1.03125,2.09375 0.154318,-1.098813 -0.181209,-2.24371 -1.03125,-3.09375 L 29.875,24.6875 z M 64.53125,25.5 c -0.01896,0.1674 -0.0625,0.327747 -0.0625,0.5 0,2.492178 2.039075,4.53125 4.53125,4.53125 2.492173,0 4.53125,-2.039072 4.53125,-4.53125 0,-0.172253 -0.04354,-0.3326 -0.0625,-0.5 -0.255337,2.254566 -2.14883,4.03125 -4.46875,4.03125 -2.319922,0 -4.213413,-1.776684 -4.46875,-4.03125 z m -3.625,4.34375 -0.75,0.75 c -0.294215,0.294216 -0.289221,0.725244 -0.03125,1.03125 0.01012,-0.01129 0.02035,-0.02035 0.03125,-0.03125 L 61.25,30.5 c -0.122703,-0.210978 -0.238383,-0.430115 -0.34375,-0.65625 z m 16.1875,0 C 76.988382,30.069885 76.872703,30.289022 76.75,30.5 l 1.09375,1.09375 c 0.0109,0.0109 0.02113,0.01996 0.03125,0.03125 0.257945,-0.306007 0.262929,-0.737035 -0.03125,-1.03125 l -0.75,-0.75 z M 32.5625,34.8125 c -0.176522,0.619075 -0.0195,1.324248 0.46875,1.8125 0.717207,0.717205 1.87655,0.717205 2.59375,0 0.488252,-0.488252 0.645272,-1.193425 0.46875,-1.8125 -0.08051,0.301002 -0.23221,0.57596 -0.46875,0.8125 -0.7172,0.717205 -1.876543,0.717205 -2.59375,0 -0.23654,-0.23654 -0.388235,-0.511498 -0.46875,-0.8125 z M 24.25,55.9375 c -3.546316,-0.0921 -7.007771,1.711738 -8.90625,5 -0.979918,1.697268 -1.383994,3.578307 -1.3125,5.40625 0.09124,-1.501658 0.5109,-3.017838 1.3125,-4.40625 1.898479,-3.288262 5.359934,-5.0921 8.90625,-5 1.611962,0.04187 3.255336,0.480805 4.75,1.34375 1.271016,0.733821 2.352006,1.740916 3.1875,2.9375 L 32.65625,60.9375 C 31.778567,59.417308 30.520192,58.158933 29,57.28125 27.505336,56.418305 25.861962,55.979366 24.25,55.9375 z M 24.09375,61 C 24.040108,61.154319 24,61.327411 24,61.5 24,62.328427 24.671573,63 25.5,63 26.328427,63 27,62.328427 27,61.5 27,61.327411 26.959892,61.154319 26.90625,61 26.70241,61.586412 26.155838,62 25.5,62 24.844162,62 24.29759,61.586412 24.09375,61 z M 34,64 c -1.104569,0 -2,0.895431 -2,2 0,0.172589 0.0214,0.340241 0.0625,0.5 C 32.284463,65.637301 33.06802,65 34,65 c 0.93198,0 1.715537,0.637301 1.9375,1.5 C 35.978604,66.340241 36,66.172589 36,66 36,64.895431 35.104569,64 34,64 z m 6,0 c -1.104569,0 -2,0.895431 -2,2 0,0.172589 0.0214,0.340241 0.0625,0.5 C 38.284463,65.637301 39.06802,65 40,65 c 0.93198,0 1.715537,0.637301 1.9375,1.5 C 41.978604,66.340241 42,66.172589 42,66 42,64.895431 41.104569,64 40,64 z m -15.125,2.4375 -0.875,0.5 8.1875,4.71875 c 0.159541,-0.229843 0.32638,-0.472157 0.46875,-0.71875 l -7.78125,-4.5 z"
       inkscape:connector-curvature="0"
       id="path3971"
       style="opacity:0.2;fill:#000000;fill-opacity:1;fill-rule:nonzero;stroke:none;stroke-width:1;marker:none;visibility:visible;display:block;overflow:visible;enable-background:accumulate" />
    <path
       d="m 21.3125,14 c -0.629251,0.0031 -1.262739,0.08711 -1.875,0.25 l 4.5,4.5 -5.1875,5.1875 -4.5,-4.5 c -0.651553,2.449047 -0.01469,5.172807 1.90625,7.09375 2.868827,2.868821 7.506181,2.868821 10.375,0 2.86882,-2.868823 2.86882,-7.506179 0,-10.375 C 25.090546,14.715543 23.200254,13.990789 21.3125,14 z m 46.15625,0 c -0.432905,0 -0.75,0.372198 -0.75,0.8125 l 0,1.53125 C 65.944692,16.549989 65.176724,16.856422 64.5,17.25 l -1.09375,-1.09375 c -0.155672,-0.155665 -0.329795,-0.248295 -0.53125,-0.25 -0.201454,-0.0017 -0.440695,0.09696 -0.59375,0.25 l -2.125,2.15625 c -0.306105,0.306108 -0.31133,0.78241 0,1.09375 L 61.25,20.5 c -0.39358,0.676723 -0.700005,1.44469 -0.90625,2.21875 l -1.53125,0 c -0.440311,0 -0.8125,0.317099 -0.8125,0.75 l 0,3.0625 c 0,0.432902 0.372198,0.75 0.8125,0.75 l 1.53125,0 C 60.549995,28.055311 60.856425,28.823277 61.25,29.5 l -1.09375,1.09375 c -0.311339,0.31134 -0.306135,0.787642 0,1.09375 l 2.15625,2.15625 c 0.306107,0.306107 0.78241,0.311337 1.09375,0 L 64.5,32.75 c 0.676724,0.393577 1.444692,0.70001 2.21875,0.90625 l 0,1.53125 c 0,0.440302 0.317095,0.8125 0.75,0.8125 l 3.0625,0 c 0.432904,0 0.75,-0.372198 0.75,-0.8125 l 0,-1.53125 C 72.05531,33.45001 72.823277,33.143577 73.5,32.75 l 1.09375,1.09375 c 0.311337,0.311338 0.787642,0.306119 1.09375,0 l 2.15625,-2.15625 c 0.306105,-0.30611 0.3113,-0.782411 0,-1.09375 L 76.75,29.5 c 0.393576,-0.676723 0.700011,-1.444689 0.90625,-2.21875 l 1.53125,0 c 0.440298,8e-6 0.8125,-0.317097 0.8125,-0.75 l 0,-3.0625 c 0,-0.4329 -0.372202,-0.75 -0.8125,-0.75 l -1.53125,0 C 77.45001,21.944693 77.143576,21.176726 76.75,20.5 l 1.09375,-1.09375 c 0.311337,-0.311339 0.306145,-0.787641 0,-1.09375 L 75.6875,16.15625 c -0.306115,-0.306105 -0.782408,-0.311299 -1.09375,0 L 73.5,17.28125 c -0.676724,-0.393579 -1.44469,-0.73126 -2.21875,-0.9375 l 0,-1.53125 c 0,-0.440306 -0.3171,-0.8125 -0.75,-0.8125 l -3.0625,0 z M 69,20.46875 c 2.492178,0 4.53125,2.039075 4.53125,4.53125 0,2.492178 -2.039077,4.53125 -4.53125,4.53125 -2.492175,0 -4.53125,-2.039072 -4.53125,-4.53125 0,-2.492175 2.039075,-4.53125 4.53125,-4.53125 z M 29.875,24.6875 c -0.44788,1.141391 -1.108851,2.233851 -2.03125,3.15625 -0.9224,0.9224 -2.014857,1.58337 -3.15625,2.03125 l 7.03125,7.03125 c 1.438866,1.438866 3.748634,1.438866 5.1875,0 1.438867,-1.438865 1.438867,-3.748634 0,-5.1875 L 29.875,24.6875 z M 34.3125,32.5 c 0.470005,0 0.953896,0.172647 1.3125,0.53125 0.717206,0.717205 0.717206,1.876544 0,2.59375 -0.7172,0.717205 -1.876543,0.717205 -2.59375,0 -0.717206,-0.717206 -0.717206,-1.876545 0,-2.59375 C 33.389854,32.672647 33.842495,32.5 34.3125,32.5 z M 24.25,55.9375 c -3.546316,-0.0921 -7.007771,1.711738 -8.90625,5 C 12.582326,65.720426 14.217074,71.863576 19,74.625 c 4.782926,2.761424 10.894826,1.095426 13.65625,-3.6875 l -8.65625,-5 8.65625,-5 C 31.778567,59.417308 30.520192,58.158933 29,57.28125 27.505336,56.418305 25.861962,55.979366 24.25,55.9375 z M 25.5,59 C 26.328427,59 27,59.671573 27,60.5 27,61.328427 26.328427,62 25.5,62 24.671573,62 24,61.328427 24,60.5 24,59.671573 24.671573,59 25.5,59 z m 8.5,5 c -1.104569,0 -2,0.895431 -2,2 0,1.104569 0.895431,2 2,2 1.104569,0 2,-0.895431 2,-2 0,-1.104569 -0.895431,-2 -2,-2 z m 6,0 c -1.104569,0 -2,0.895431 -2,2 0,1.104569 0.895431,2 2,2 1.104569,0 2,-0.895431 2,-2 0,-1.104569 -0.895431,-2 -2,-2 z"
       inkscape:connector-curvature="0"
       clip-path="url(#clipPath3981)"
       id="path3978"
       style="opacity:0.2;fill:none;stroke:#000000;stroke-width:1;marker:none;visibility:visible;display:block;overflow:visible;filter:url(#filter3985);enable-background:accumulate" />
    <path
       d="m 21.3125,-26 c -0.629251,0.0031 -1.262739,0.08711 -1.875,0.25 l 4.5,4.5 -5.1875,5.1875 -4.5,-4.5 c -0.651553,2.449047 -0.01469,5.172807 1.90625,7.09375 2.868827,2.868821 7.506181,2.868821 10.375,0 2.86882,-2.868823 2.86882,-7.506179 0,-10.375 C 25.090546,-25.284457 23.200254,-26.009211 21.3125,-26 z m 46.15625,0 c -0.432905,0 -0.75,0.372198 -0.75,0.8125 l 0,1.53125 C 65.944692,-23.450011 65.176724,-23.143578 64.5,-22.75 l -1.09375,-1.09375 c -0.155672,-0.155665 -0.329795,-0.248295 -0.53125,-0.25 -0.201454,-0.0017 -0.440695,0.09696 -0.59375,0.25 l -2.125,2.15625 c -0.306105,0.306108 -0.31133,0.78241 0,1.09375 L 61.25,-19.5 c -0.39358,0.676723 -0.700005,1.44469 -0.90625,2.21875 l -1.53125,0 c -0.440311,0 -0.8125,0.317099 -0.8125,0.75 l 0,3.0625 c 0,0.432902 0.372198,0.75 0.8125,0.75 l 1.53125,0 c 0.206245,0.774061 0.512675,1.542027 0.90625,2.21875 l -1.09375,1.09375 c -0.311339,0.31134 -0.306135,0.787642 0,1.09375 l 2.15625,2.15625 c 0.306107,0.306107 0.78241,0.311337 1.09375,0 L 64.5,-7.25 c 0.676724,0.393577 1.444692,0.70001 2.21875,0.90625 l 0,1.53125 c 0,0.440302 0.317095,0.8125 0.75,0.8125 l 3.0625,0 c 0.432904,0 0.75,-0.372198 0.75,-0.8125 l 0,-1.53125 C 72.05531,-6.54999 72.823277,-6.856423 73.5,-7.25 l 1.09375,1.09375 c 0.311337,0.311338 0.787642,0.306119 1.09375,0 l 2.15625,-2.15625 c 0.306105,-0.30611 0.3113,-0.782411 0,-1.09375 L 76.75,-10.5 c 0.393576,-0.676723 0.700011,-1.444689 0.90625,-2.21875 l 1.53125,0 c 0.440298,8e-6 0.8125,-0.317097 0.8125,-0.75 l 0,-3.0625 c 0,-0.4329 -0.372202,-0.75 -0.8125,-0.75 l -1.53125,0 C 77.45001,-18.055307 77.143576,-18.823274 76.75,-19.5 l 1.09375,-1.09375 c 0.311337,-0.311339 0.306145,-0.787641 0,-1.09375 l -2.15625,-2.15625 c -0.306115,-0.306105 -0.782408,-0.311299 -1.09375,0 l -1.09375,1.125 c -0.676724,-0.393579 -1.44469,-0.73126 -2.21875,-0.9375 l 0,-1.53125 c 0,-0.440306 -0.3171,-0.8125 -0.75,-0.8125 l -3.0625,0 z M 69,-19.53125 c 2.492178,0 4.53125,2.039075 4.53125,4.53125 0,2.492178 -2.039077,4.53125 -4.53125,4.53125 -2.492175,0 -4.53125,-2.039072 -4.53125,-4.53125 0,-2.492175 2.039075,-4.53125 4.53125,-4.53125 z m -39.125,4.21875 c -0.44788,1.141391 -1.108851,2.233851 -2.03125,3.15625 -0.9224,0.9224 -2.014857,1.58337 -3.15625,2.03125 l 7.03125,7.03125 c 1.438866,1.438866 3.748634,1.438866 5.1875,0 1.438867,-1.438865 1.438867,-3.748634 0,-5.1875 L 29.875,-15.3125 z M 34.3125,-7.5 c 0.470005,0 0.953896,0.172647 1.3125,0.53125 0.717206,0.717205 0.717206,1.876544 0,2.59375 -0.7172,0.717205 -1.876543,0.717205 -2.59375,0 -0.717206,-0.717206 -0.717206,-1.876545 0,-2.59375 C 33.389854,-7.327353 33.842495,-7.5 34.3125,-7.5 z M 24.25,15.9375 c -3.546316,-0.0921 -7.007771,1.711738 -8.90625,5 C 12.582326,25.720426 14.217074,31.863576 19,34.625 c 4.782926,2.761424 10.894826,1.095426 13.65625,-3.6875 l -8.65625,-5 8.65625,-5 C 31.778567,19.417308 30.520192,18.158933 29,17.28125 27.505336,16.418305 25.861962,15.979366 24.25,15.9375 z M 25.5,19 C 26.328427,19 27,19.671573 27,20.5 27,21.328427 26.328427,22 25.5,22 24.671573,22 24,21.328427 24,20.5 24,19.671573 24.671573,19 25.5,19 z m 8.5,5 c -1.104569,0 -2,0.895431 -2,2 0,1.104569 0.895431,2 2,2 1.104569,0 2,-0.895431 2,-2 0,-1.104569 -0.895431,-2 -2,-2 z m 6,0 c -1.104569,0 -2,0.895431 -2,2 0,1.104569 0.895431,2 2,2 1.104569,0 2,-0.895431 2,-2 0,-1.104569 -0.895431,-2 -2,-2 z"
       inkscape:connector-curvature="0"
       transform="translate(0,40)"
       clip-path="url(#clipPath4012)"
       id="path3991"
       style="opacity:0.8;fill:none;stroke:#ffffff;stroke-width:1;marker:none;visibility:visible;display:block;overflow:visible;filter:url(#filter4018);enable-background:accumulate" />
  </g>
  <g
     id="layer4"
     style="display:inline">
    <path
       d="m 6,80 0,4 c 0,3.324 2.676,6 6,6 l 72,0 c 3.324,0 6,-2.676 6,-6 l 0,-4 c 0,3.324 -2.676,6 -6,6 L 12,86 C 8.676,86 6,83.324 6,80 z"
       inkscape:connector-curvature="0"
       id="path3888"
       style="fill:url(#linearGradient3228);fill-opacity:1;fill-rule:nonzero;stroke:none;display:inline" />
    <path
       d="m 6,82 0,2 c 0,3.324 2.676,6 6,6 l 72,0 c 3.324,0 6,-2.676 6,-6 l 0,-2 c 0,3.324 -2.676,6 -6,6 L 12,88 C 8.676,88 6,85.324 6,82 z"
       inkscape:connector-curvature="0"
       id="rect4345"
       style="opacity:0.1;color:#000000;fill:#000000;fill-opacity:1;fill-rule:nonzero;stroke:none;stroke-width:1.5;marker:none;visibility:visible;display:inline;overflow:visible;enable-background:accumulate" />
    <path
       d="m 6,83 0,1 c 0,3.324 2.676,6 6,6 l 72,0 c 3.324,0 6,-2.676 6,-6 l 0,-1 c 0,3.324 -2.676,6 -6,6 L 12,89 C 8.676,89 6,86.324 6,83 z"
       inkscape:connector-curvature="0"
       id="rect4336"
       style="opacity:0.15;color:#000000;fill:#000000;fill-opacity:1;fill-rule:nonzero;stroke:none;stroke-width:1.5;marker:none;visibility:visible;display:inline;overflow:visible;enable-background:accumulate" />
  </g>
</svg>
