<?xml version="1.0" encoding="UTF-8" standalone="no"?>
<!-- Created with Inkscape (http://www.inkscape.org/) -->

<svg
   xmlns:dc="http://purl.org/dc/elements/1.1/"
   xmlns:cc="http://creativecommons.org/ns#"
   xmlns:rdf="http://www.w3.org/1999/02/22-rdf-syntax-ns#"
   xmlns:svg="http://www.w3.org/2000/svg"
   xmlns="http://www.w3.org/2000/svg"
   xmlns:xlink="http://www.w3.org/1999/xlink"
   xmlns:inkscape="http://www.inkscape.org/namespaces/inkscape"
   version="1.0"
   width="96"
   height="96"
   id="svg2408">
  <defs
     id="defs2410">
    <linearGradient
       id="linearGradient4384">
      <stop
         id="stop4386"
         style="stop-color:#ffffff;stop-opacity:1"
         offset="0" />
      <stop
         id="stop4388"
         style="stop-color:#ffffff;stop-opacity:0"
         offset="1" />
    </linearGradient>
    <linearGradient
       id="linearGradient4367">
      <stop
         id="stop4369"
         style="stop-color:#ffffff;stop-opacity:0.71755725"
         offset="0" />
      <stop
         id="stop4371"
         style="stop-color:#ffffff;stop-opacity:1"
         offset="1" />
    </linearGradient>
    <linearGradient
       x1="45.447727"
       y1="92.539597"
       x2="45.447727"
       y2="7.0165396"
       id="ButtonShadow"
       gradientUnits="userSpaceOnUse"
       gradientTransform="scale(1.0058652,0.994169)">
      <stop
         id="stop3750"
         style="stop-color:#000000;stop-opacity:1"
         offset="0" />
      <stop
         id="stop3752"
         style="stop-color:#000000;stop-opacity:0.58823532"
         offset="1" />
    </linearGradient>
    <linearGradient
       id="linearGradient3737">
      <stop
         id="stop3739"
         style="stop-color:#ffffff;stop-opacity:1"
         offset="0" />
      <stop
         id="stop3741"
         style="stop-color:#ffffff;stop-opacity:0"
         offset="1" />
    </linearGradient>
    <filter
       color-interpolation-filters="sRGB"
       id="filter3174">
      <feGaussianBlur
         id="feGaussianBlur3176"
         stdDeviation="1.71" />
    </filter>
    <filter
       x="-0.192"
       y="-0.192"
       width="1.3839999"
       height="1.3839999"
       color-interpolation-filters="sRGB"
       id="filter3794">
      <feGaussianBlur
         id="feGaussianBlur3796"
         stdDeviation="5.28" />
    </filter>
    <linearGradient
       x1="48"
       y1="20.220806"
       x2="48"
       y2="138.66119"
       id="linearGradient3613"
       xlink:href="#linearGradient3737"
       gradientUnits="userSpaceOnUse" />
    <linearGradient
       x1="45.447727"
       y1="92.539597"
       x2="45.447727"
       y2="7.0165396"
       id="ButtonShadow-0"
       gradientUnits="userSpaceOnUse"
       gradientTransform="matrix(1.0058652,0,0,0.994169,100,0)">
      <stop
         id="stop3750-8"
         style="stop-color:#000000;stop-opacity:1"
         offset="0" />
      <stop
         id="stop3752-5"
         style="stop-color:#000000;stop-opacity:0.58823532"
         offset="1" />
    </linearGradient>
    <linearGradient
       x1="32.251034"
       y1="6.1317081"
       x2="32.251034"
       y2="90.238609"
       id="linearGradient3780"
       xlink:href="#ButtonShadow-0"
       gradientUnits="userSpaceOnUse"
       gradientTransform="matrix(1.0238095,0,0,1.0119048,-1.1428571,-98.071429)" />
    <linearGradient
       x1="32.251034"
       y1="6.1317081"
       x2="32.251034"
       y2="90.238609"
       id="linearGradient3772"
       xlink:href="#ButtonShadow-0"
       gradientUnits="userSpaceOnUse"
       gradientTransform="matrix(1.0238095,0,0,1.0119048,-1.1428571,-98.071429)" />
    <linearGradient
       x1="32.251034"
       y1="6.1317081"
       x2="32.251034"
       y2="90.238609"
       id="linearGradient3725"
       xlink:href="#ButtonShadow-0"
       gradientUnits="userSpaceOnUse"
       gradientTransform="matrix(1.0238095,0,0,1.0119048,-1.1428571,-98.071429)" />
    <linearGradient
       x1="32.251034"
       y1="6.1317081"
       x2="32.251034"
       y2="90.238609"
       id="linearGradient3721"
       xlink:href="#ButtonShadow-0"
       gradientUnits="userSpaceOnUse"
       gradientTransform="translate(0,-97)" />
    <linearGradient
       x1="32.251034"
       y1="6.1317081"
       x2="32.251034"
       y2="90.238609"
       id="linearGradient3026"
       xlink:href="#ButtonShadow-0"
       gradientUnits="userSpaceOnUse"
       gradientTransform="matrix(1.0238095,0,0,1.0119048,-1.1428571,-98.071429)" />
    <clipPath
       id="clipPath4355">
      <rect
         width="84"
         height="80"
         rx="6"
         ry="6"
         x="6"
         y="6"
         id="rect4357"
         style="fill:#ffffff;fill-opacity:1;fill-rule:nonzero;stroke:none" />
    </clipPath>
    <radialGradient
       cx="48"
       cy="87.792389"
       r="42"
       fx="48"
       fy="87.792389"
       id="radialGradient4375"
       xlink:href="#linearGradient4367"
       gradientUnits="userSpaceOnUse"
       gradientTransform="matrix(1,-6.7114942e-8,8.4282233e-8,1.2557894,109.99999,-24.505592)" />
    <linearGradient
       x1="48"
       y1="88"
       x2="48"
       y2="-40"
       id="linearGradient4390"
       xlink:href="#linearGradient4384"
       gradientUnits="userSpaceOnUse"
       gradientTransform="matrix(1,0,0,-1,0,92)" />
    <linearGradient
       x1="48"
       y1="82"
       x2="112.12357"
       y2="82.454597"
       id="linearGradient4429"
       xlink:href="#linearGradient4384"
       gradientUnits="userSpaceOnUse"
       spreadMethod="reflect" />
    <linearGradient
       id="linearGradient3843">
      <stop
         id="stop3845"
         style="stop-color:#523823;stop-opacity:1"
         offset="0" />
      <stop
         id="stop3847"
         style="stop-color:#79563a;stop-opacity:1"
         offset="0.11780351" />
      <stop
         id="stop3849"
         style="stop-color:#875c38;stop-opacity:1"
         offset="0.23809524" />
      <stop
         id="stop3851"
         style="stop-color:#a66e40;stop-opacity:1"
         offset="1" />
    </linearGradient>
    <linearGradient
       x1="8"
       y1="1033.3622"
       x2="50"
       y2="1033.3622"
       id="linearGradient3870"
       xlink:href="#linearGradient3843"
       gradientUnits="userSpaceOnUse"
       gradientTransform="translate(-2,-956.3622)"
       spreadMethod="reflect" />
    <linearGradient
       id="linearGradient3915">
      <stop
         id="stop3917"
         style="stop-color:#bdd84a;stop-opacity:1"
         offset="0" />
      <stop
         id="stop4331"
         style="stop-color:#96be2c;stop-opacity:0.99607843"
         offset="0.6111111" />
      <stop
         id="stop3919"
         style="stop-color:#6fa40f;stop-opacity:0.99607843"
         offset="1" />
    </linearGradient>
    <clipPath
       id="clipPath4252">
      <path
         d="m 0,35.999999 0,26.412313 c -0.00781333,1.760677 0,3.640398 0,5.643657 l 0,23.888059 c 0,2.003266 -0.00781333,3.882974 0,5.643657 L 0,124 l 26.375,0 43.25,0 26.375,0 0,-26.412315 c 0.0078,-1.760683 0,-3.640391 0,-5.643657 l 0,-23.888059 c 0,-2.003259 0.0078,-3.88298 0,-5.643657 l 0,-26.412313 -26.375,0 -43.25,0 -26.375,0 z"
         inkscape:connector-curvature="0"
         id="path4254"
         style="fill:#ff00ff;fill-opacity:1;stroke:none" />
    </clipPath>
    <filter
       color-interpolation-filters="sRGB"
       id="filter4205">
      <feGaussianBlur
         id="feGaussianBlur4207"
         stdDeviation="0.58615815" />
    </filter>
    <linearGradient
       id="linearGradient3978">
      <stop
         id="stop3980"
         style="stop-color:#6d931d;stop-opacity:1"
         offset="0" />
      <stop
         id="stop3982"
         style="stop-color:#547d11;stop-opacity:1"
         offset="1" />
    </linearGradient>
    <linearGradient
       id="linearGradient3970">
      <stop
         id="stop3972"
         style="stop-color:#5d891a;stop-opacity:1"
         offset="0" />
      <stop
         id="stop3974"
         style="stop-color:#3b660d;stop-opacity:1"
         offset="1" />
    </linearGradient>
    <linearGradient
       id="linearGradient3962">
      <stop
         id="stop3964"
         style="stop-color:#4d8217;stop-opacity:1"
         offset="0" />
      <stop
         id="stop3966"
         style="stop-color:#305e0b;stop-opacity:1"
         offset="1" />
    </linearGradient>
    <linearGradient
       id="linearGradient3946">
      <stop
         id="stop3948"
         style="stop-color:#295a08;stop-opacity:1"
         offset="0" />
      <stop
         id="stop3950"
         style="stop-color:#153903;stop-opacity:0.99607843"
         offset="1" />
    </linearGradient>
    <clipPath
       id="clipPath4194">
      <path
         d="m 36.75,47.375001 c -7.098447,0.116755 -14.605643,0.938733 -22.21875,2.84375 a 5.0004998,5.0004998 0 1 0 2.4375,9.6875 c 30.881003,-7.727311 61.3125,4.8125 61.3125,4.8125 a 5.0144324,5.0144324 0 1 0 3.875,-9.25 c 0,0 -18.462624,-7.836962 -42.375,-8.09375 -0.996349,-0.0107 -2.017186,-0.01668 -3.03125,0 z m 1.03125,18 c -6.273659,0.03688 -13.053152,0.696379 -20.1875,2.40625 a 4.0135573,4.0135573 0 1 0 1.84375,7.8125 c 29.691876,-7.116174 52.71875,4.90625 52.71875,4.90625 a 4.0004,4.0004 0 1 0 3.6875,-7.09375 c 0,0 -14.428844,-7.553625 -35.40625,-8.03125 -0.874059,-0.0199 -1.760013,-0.0053 -2.65625,0 z m -0.46875,16.90625 c -5.506265,-0.02531 -11.565887,0.507181 -18.03125,1.9375 a 3.009912,3.009912 0 1 0 1.3125,5.875 c 27.495824,-6.082848 46.03125,4.78125 46.03125,4.78125 a 3.0041069,3.0041069 0 1 0 3.03125,-5.1875 c 0,0 -11.708641,-6.761304 -30.03125,-7.375 -0.763442,-0.02557 -1.525891,-0.02763 -2.3125,-0.03125 z m -0.875,16.4375 c -25.108554,0 -46.125,19.575999 -46.125,44.093749 0,24.51775 21.016446,44.09375 46.125,44.09375 25.108555,0 46.125,-19.576 46.125,-44.09375 0,-24.51774 -21.016445,-44.093749 -46.125,-44.093749 z m 0,15.687499 c 14.430156,0 25.5625,12.47664 25.5625,27.5 0,15.02335 -11.132344,27.53125 -25.5625,27.53125 -14.43015,0 -25.5625,-12.5079 -25.5625,-27.53125 0,-15.02336 11.13235,-27.5 25.5625,-27.5 z"
         inkscape:connector-curvature="0"
         id="path4196"
         style="font-size:medium;font-style:normal;font-variant:normal;font-weight:normal;font-stretch:normal;text-indent:0;text-align:start;text-decoration:none;line-height:normal;letter-spacing:normal;word-spacing:normal;text-transform:none;direction:ltr;block-progression:tb;writing-mode:lr-tb;text-anchor:start;baseline-shift:baseline;color:#000000;fill:#ff00ff;fill-opacity:1;stroke:none;stroke-width:5.53480864;marker:none;visibility:visible;display:inline;overflow:visible;enable-background:accumulate;font-family:Sans;-inkscape-font-specification:Sans" />
    </clipPath>
    <filter
       color-interpolation-filters="sRGB"
       id="filter4190">
      <feGaussianBlur
         id="feGaussianBlur4192"
         stdDeviation="0.58615815" />
    </filter>
    <radialGradient
       cx="47.58062"
       cy="65.949036"
       r="42.000011"
       fx="47.58062"
       fy="65.949036"
       id="radialGradient3153"
       xlink:href="#linearGradient3915"
       gradientUnits="userSpaceOnUse"
       gradientTransform="matrix(1.9762999,0,0,1.9962029,-30.752597,-110.3786)" />
    <linearGradient
       x1="48.866333"
       y1="87.345551"
       x2="68.408249"
       y2="93.217575"
       id="linearGradient3155"
       xlink:href="#linearGradient3978"
       gradientUnits="userSpaceOnUse"
       spreadMethod="reflect" />
    <linearGradient
       x1="48.811367"
       y1="72.18055"
       x2="78.640907"
       y2="75.955421"
       id="linearGradient3157"
       xlink:href="#linearGradient3970"
       gradientUnits="userSpaceOnUse"
       spreadMethod="reflect" />
    <linearGradient
       x1="51.072086"
       y1="57.542301"
       x2="84.610764"
       y2="66.528961"
       id="linearGradient3159"
       xlink:href="#linearGradient3962"
       gradientUnits="userSpaceOnUse"
       spreadMethod="reflect" />
    <radialGradient
       cx="3.9860761"
       cy="114.75382"
       r="54.625"
       fx="3.9860761"
       fy="114.75382"
       id="radialGradient3161"
       xlink:href="#linearGradient3946"
       gradientUnits="userSpaceOnUse"
       gradientTransform="matrix(0.77877229,0,0,0.74468987,38.017133,21.820474)" />
    <clipPath
       id="clipPath3163">
      <rect
         width="144.01041"
         height="137.15277"
         rx="10.286458"
         ry="10.286458"
         x="-8.0052099"
         y="-112"
         transform="scale(1,-1)"
         id="rect3165"
         style="fill:#ff00ff;fill-opacity:1;fill-rule:nonzero;stroke:none" />
    </clipPath>
  </defs>
  <metadata
     id="metadata2413">
    <rdf:RDF>
      <cc:Work
         rdf:about="">
        <dc:format>image/svg+xml</dc:format>
        <dc:type
           rdf:resource="http://purl.org/dc/dcmitype/StillImage" />
        <dc:title />
      </cc:Work>
    </rdf:RDF>
  </metadata>
  <g
     id="layer2"
     style="display:none">
    <rect
       width="86"
       height="85"
       rx="6"
       ry="6"
       x="5"
       y="7"
       id="rect3745"
       style="opacity:0.9;fill:url(#ButtonShadow);fill-opacity:1;fill-rule:nonzero;stroke:none;filter:url(#filter3174)" />
  </g>
  <g
     id="layer3"
     style="display:inline">
    <path
       d="m 12,-95.03125 c -5.5110903,0 -10.03125,4.52016 -10.03125,10.03125 l 0,71 c 0,5.5110902 4.5201598,10.03125 10.03125,10.03125 l 72,0 c 5.51109,0 10.03125,-4.5201597 10.03125,-10.03125 l 0,-71 c 0,-5.51109 -4.52016,-10.03125 -10.03125,-10.03125 l -72,0 z"
       transform="scale(1,-1)"
       id="path3786"
       style="opacity:0.07999998;fill:url(#linearGradient3026);fill-opacity:1;fill-rule:nonzero;stroke:none;display:inline" />
    <path
       d="m 12,-94.03125 c -4.971633,0 -9.03125,4.059617 -9.03125,9.03125 l 0,71 c 0,4.9716329 4.0596171,9.03125 9.03125,9.03125 l 72,0 c 4.971633,0 9.03125,-4.059617 9.03125,-9.03125 l 0,-71 c 0,-4.971633 -4.059617,-9.03125 -9.03125,-9.03125 l -72,0 z"
       transform="scale(1,-1)"
       id="path3778"
       style="opacity:0.1;fill:url(#linearGradient3780);fill-opacity:1;fill-rule:nonzero;stroke:none;display:inline" />
    <path
       d="m 12,-93 c -4.4091333,0 -8,3.590867 -8,8 l 0,71 c 0,4.4091333 3.5908667,8 8,8 l 72,0 c 4.409133,0 8,-3.5908667 8,-8 l 0,-71 c 0,-4.409133 -3.590867,-8 -8,-8 l -72,0 z"
       transform="scale(1,-1)"
       id="path3770"
       style="opacity:0.2;fill:url(#linearGradient3772);fill-opacity:1;fill-rule:nonzero;stroke:none;display:inline" />
    <rect
       width="86"
       height="85"
       rx="7"
       ry="7"
       x="5"
       y="-92"
       transform="scale(1,-1)"
       id="rect3723"
       style="opacity:0.3;fill:url(#linearGradient3725);fill-opacity:1;fill-rule:nonzero;stroke:none;display:inline" />
    <rect
       width="84"
       height="84"
       rx="6"
       ry="6"
       x="6"
       y="-91"
       transform="scale(1,-1)"
       id="rect3716"
       style="opacity:0.45;fill:url(#linearGradient3721);fill-opacity:1;fill-rule:nonzero;stroke:none;display:inline" />
  </g>
  <g
     id="layer4">
    <rect
       width="84"
       height="26.000017"
       rx="6"
       ry="6"
       x="6"
       y="64"
       id="rect2841"
       style="color:#000000;fill:url(#linearGradient3870);fill-opacity:1;fill-rule:nonzero;stroke:none;stroke-width:1.5;marker:none;visibility:visible;display:inline;overflow:visible;enable-background:accumulate" />
    <path
       d="m 6,82 0,2 c 0,3.324 2.676,6 6,6 l 72,0 c 3.324,0 6,-2.676 6,-6 l 0,-2 c 0,3.324 -2.676,6 -6,6 L 12,88 C 8.676,88 6,85.324 6,82 z"
       inkscape:connector-curvature="0"
       id="rect4345"
       style="opacity:0.1;color:#000000;fill:#000000;fill-opacity:1;fill-rule:nonzero;stroke:none;stroke-width:1.5;marker:none;visibility:visible;display:inline;overflow:visible;enable-background:accumulate" />
    <path
       d="m 6,83 0,1 c 0,3.324 2.676,6 6,6 l 72,0 c 3.324,0 6,-2.676 6,-6 l 0,-1 c 0,3.324 -2.676,6 -6,6 L 12,89 C 8.676,89 6,86.324 6,83 z"
       inkscape:connector-curvature="0"
       id="rect4336"
       style="opacity:0.1;color:#000000;fill:#000000;fill-opacity:1;fill-rule:nonzero;stroke:none;stroke-width:1.5;marker:none;visibility:visible;display:inline;overflow:visible;enable-background:accumulate" />
    <path
       d="m 6,80 0,1 c 0,3.324 2.676,6 6,6 l 72,0 c 3.324,0 6,-2.676 6,-6 l 0,-1 c 0,3.324 -2.676,6 -6,6 L 12,86 C 8.676,86 6,83.324 6,80 z"
       inkscape:connector-curvature="0"
       id="path4412"
       style="opacity:0.2;fill:#000000;fill-opacity:1;fill-rule:nonzero;stroke:none" />
  </g>
  <g
     id="layer1">
    <g
       transform="matrix(0.58329117,0,0,0.58329117,10.669368,20.67139)"
       clip-path="url(#clipPath3163)"
       id="g3142">
      <path
         d="m -8,-39.144096 0,57.362846 c -0.01172,2.68103 0,5.543333 0,8.59375 l 0,36.375 c 0,3.050428 -0.01172,5.91271 0,8.59375 L -8,112 31.5625,112 96.437501,112 136,112 136,71.78125 c 0.0117,-2.68104 0,-5.543322 0,-8.59375 l 0,-36.375 c 0,-3.050417 0.0117,-5.91272 0,-8.59375 l 0,-57.362846 -39.562499,0 -64.875001,0 z"
         inkscape:connector-curvature="0"
         id="path8459"
         style="fill:url(#radialGradient3153);fill-opacity:1;stroke:none" />
      <g
         transform="matrix(1.5,0,0,1.5227273,-8,-76.818182)"
         clip-path="url(#clipPath4252)"
         id="g4209">
        <path
           d="m 36.75,47.375001 c -7.098447,0.116755 -14.605643,0.938733 -22.21875,2.84375 a 5.0004998,5.0004998 0 1 0 2.4375,9.6875 c 30.881003,-7.727311 61.3125,4.8125 61.3125,4.8125 a 5.0144324,5.0144324 0 1 0 3.875,-9.25 c 0,0 -18.462624,-7.836962 -42.375,-8.09375 -0.996349,-0.0107 -2.017186,-0.01668 -3.03125,0 z m 1.03125,18 c -6.273659,0.03688 -13.053152,0.696379 -20.1875,2.40625 a 4.0135573,4.0135573 0 1 0 1.84375,7.8125 c 29.691876,-7.116174 52.71875,4.90625 52.71875,4.90625 a 4.0004,4.0004 0 1 0 3.6875,-7.09375 c 0,0 -14.428844,-7.553625 -35.40625,-8.03125 -0.874059,-0.0199 -1.760013,-0.0053 -2.65625,0 z m -0.46875,16.90625 c -5.506265,-0.02531 -11.565887,0.507181 -18.03125,1.9375 a 3.009912,3.009912 0 1 0 1.3125,5.875 c 27.495824,-6.082848 46.03125,4.78125 46.03125,4.78125 a 3.0041069,3.0041069 0 1 0 3.03125,-5.1875 c 0,0 -11.708641,-6.761304 -30.03125,-7.375 -0.763442,-0.02557 -1.525891,-0.02763 -2.3125,-0.03125 z m -0.875,16.4375 c -25.108554,0 -46.125,19.575999 -46.125,44.093749 0,24.51775 21.016446,44.09375 46.125,44.09375 25.108555,0 46.125,-19.576 46.125,-44.09375 0,-24.51774 -21.016445,-44.093749 -46.125,-44.093749 z m 0,15.687499 c 14.430156,0 25.5625,12.47664 25.5625,27.5 0,15.02335 -11.132344,27.53125 -25.5625,27.53125 -14.43015,0 -25.5625,-12.5079 -25.5625,-27.53125 0,-15.02336 11.13235,-27.5 25.5625,-27.5 z"
           inkscape:connector-curvature="0"
           id="path4153-5"
           style="font-size:medium;font-style:normal;font-variant:normal;font-weight:normal;font-stretch:normal;text-indent:0;text-align:start;text-decoration:none;line-height:normal;letter-spacing:normal;word-spacing:normal;text-transform:none;direction:ltr;block-progression:tb;writing-mode:lr-tb;text-anchor:start;baseline-shift:baseline;opacity:0.3;color:#000000;fill:#ffffff;fill-opacity:1;stroke:#ffffff;stroke-width:1.71440959;stroke-miterlimit:4;stroke-dasharray:none;marker:none;visibility:visible;display:inline;overflow:visible;filter:url(#filter4205);enable-background:accumulate;font-family:Sans;-inkscape-font-specification:Sans" />
        <g
           transform="matrix(1.0840483,0,0,1.0840483,-7.2484432,-9.1057811)"
           id="g4180">
          <path
             d="m 43.25,84.34375 c -5.634008,-0.188705 -11.965146,0.242087 -18.78125,1.75 A 2.7709606,2.7709606 0 1 0 25.6875,91.5 c 25.364021,-5.611233 42.46875,4.40625 42.46875,4.40625 A 2.7676811,2.7676811 0 1 0 70.9375,91.125 c 0,0 -10.785477,-6.215135 -27.6875,-6.78125 z"
             inkscape:connector-curvature="0"
             id="path3767"
             style="font-size:medium;font-style:normal;font-variant:normal;font-weight:normal;font-stretch:normal;text-indent:0;text-align:start;text-decoration:none;line-height:normal;letter-spacing:normal;word-spacing:normal;text-transform:none;direction:ltr;block-progression:tb;writing-mode:lr-tb;text-anchor:start;baseline-shift:baseline;color:#000000;fill:url(#linearGradient3155);fill-opacity:1;stroke:none;stroke-width:5.53480864;marker:none;visibility:visible;display:inline;overflow:visible;enable-background:accumulate;font-family:Sans;-inkscape-font-specification:Sans" />
          <path
             d="M 44,68.71875 C 37.549671,68.571885 30.427631,69.13487 22.90625,70.9375 A 3.695073,3.695073 0 1 0 24.625,78.125 C 52.014809,71.560556 73.25,82.65625 73.25,82.65625 A 3.6902415,3.6902415 0 1 0 76.65625,76.125 c 0,0 -13.305262,-6.965656 -32.65625,-7.40625 z"
             inkscape:connector-curvature="0"
             id="path37"
             style="font-size:medium;font-style:normal;font-variant:normal;font-weight:normal;font-stretch:normal;text-indent:0;text-align:start;text-decoration:none;line-height:normal;letter-spacing:normal;word-spacing:normal;text-transform:none;direction:ltr;block-progression:tb;writing-mode:lr-tb;text-anchor:start;baseline-shift:baseline;color:#000000;fill:url(#linearGradient3157);fill-opacity:1;stroke:none;stroke-width:7.37974501;marker:none;visibility:visible;display:inline;overflow:visible;enable-background:accumulate;font-family:Sans;-inkscape-font-specification:Sans" />
          <path
             d="m 43.375,52.09375 c -7.352802,-0.07896 -15.255137,0.616637 -23.28125,2.625 a 4.6128017,4.6128017 0 1 0 2.25,8.9375 c 28.486741,-7.128198 56.5625,4.4375 56.5625,4.4375 a 4.6225976,4.6225976 0 1 0 3.5625,-8.53125 c 0,0 -17.035345,-7.231871 -39.09375,-7.46875 z"
             inkscape:connector-curvature="0"
             id="path39"
             style="font-size:medium;font-style:normal;font-variant:normal;font-weight:normal;font-stretch:normal;text-indent:0;text-align:start;text-decoration:none;line-height:normal;letter-spacing:normal;word-spacing:normal;text-transform:none;direction:ltr;block-progression:tb;writing-mode:lr-tb;text-anchor:start;baseline-shift:baseline;color:#000000;fill:url(#linearGradient3159);fill-opacity:1;stroke:none;stroke-width:9.2246809;marker:none;visibility:visible;display:inline;overflow:visible;enable-background:accumulate;font-family:Sans;-inkscape-font-specification:Sans" />
          <path
             d="m 40.304777,99.46603 c -23.161841,0 -42.5404367,18.04967 -42.5404367,40.66651 0,22.61684 19.3785957,40.69086 42.5404367,40.69086 23.161842,0 42.540436,-18.07402 42.540436,-40.69086 0,-22.61683 -19.378594,-40.66651 -42.540436,-40.66651 z m 0,14.4803 c 13.311359,0 23.582198,11.5002 23.582198,25.35877 0,13.85856 -10.270839,25.40744 -23.582198,25.40744 -13.311353,0 -23.582199,-11.54888 -23.582199,-25.40744 0,-13.85857 10.270846,-25.35877 23.582199,-25.35877 z"
             inkscape:connector-curvature="0"
             id="path3943"
             style="font-size:medium;font-style:normal;font-variant:normal;font-weight:normal;font-stretch:normal;text-indent:0;text-align:start;text-decoration:none;line-height:normal;letter-spacing:normal;word-spacing:normal;text-transform:none;direction:ltr;block-progression:tb;writing-mode:lr-tb;text-anchor:start;baseline-shift:baseline;color:#000000;fill:url(#radialGradient3161);fill-opacity:1;stroke:none;stroke-width:20.68722153;marker:none;visibility:visible;display:inline;overflow:visible;enable-background:accumulate;font-family:Sans;-inkscape-font-specification:Sans" />
        </g>
        <path
           d="m 36.75,47.375001 c -7.098447,0.116755 -14.605643,0.938733 -22.21875,2.84375 a 5.0004998,5.0004998 0 1 0 2.4375,9.6875 c 30.881003,-7.727311 61.3125,4.8125 61.3125,4.8125 a 5.0144324,5.0144324 0 1 0 3.875,-9.25 c 0,0 -18.462624,-7.836962 -42.375,-8.09375 -0.996349,-0.0107 -2.017186,-0.01668 -3.03125,0 z m 1.03125,18 c -6.273659,0.03688 -13.053152,0.696379 -20.1875,2.40625 a 4.0135573,4.0135573 0 1 0 1.84375,7.8125 c 29.691876,-7.116174 52.71875,4.90625 52.71875,4.90625 a 4.0004,4.0004 0 1 0 3.6875,-7.09375 c 0,0 -14.428844,-7.553625 -35.40625,-8.03125 -0.874059,-0.0199 -1.760013,-0.0053 -2.65625,0 z m -0.46875,16.90625 c -5.506265,-0.02531 -11.565887,0.507181 -18.03125,1.9375 a 3.009912,3.009912 0 1 0 1.3125,5.875 c 27.495824,-6.082848 46.03125,4.78125 46.03125,4.78125 a 3.0041069,3.0041069 0 1 0 3.03125,-5.1875 c 0,0 -11.708641,-6.761304 -30.03125,-7.375 -0.763442,-0.02557 -1.525891,-0.02763 -2.3125,-0.03125 z m -0.875,16.4375 c -25.108554,0 -46.125,19.575999 -46.125,44.093749 0,24.51775 21.016446,44.09375 46.125,44.09375 25.108555,0 46.125,-19.576 46.125,-44.09375 0,-24.51774 -21.016445,-44.093749 -46.125,-44.093749 z m 0,15.687499 c 14.430156,0 25.5625,12.47664 25.5625,27.5 0,15.02335 -11.132344,27.53125 -25.5625,27.53125 -14.43015,0 -25.5625,-12.5079 -25.5625,-27.53125 0,-15.02336 11.13235,-27.5 25.5625,-27.5 z"
           inkscape:connector-curvature="0"
           clip-path="url(#clipPath4194)"
           id="path4153"
           style="font-size:medium;font-style:normal;font-variant:normal;font-weight:normal;font-stretch:normal;text-indent:0;text-align:start;text-decoration:none;line-height:normal;letter-spacing:normal;word-spacing:normal;text-transform:none;direction:ltr;block-progression:tb;writing-mode:lr-tb;text-anchor:start;baseline-shift:baseline;opacity:0.4;color:#000000;fill:none;stroke:#000000;stroke-width:1.71440959;stroke-miterlimit:4;stroke-dasharray:none;marker:none;visibility:visible;display:inline;overflow:visible;filter:url(#filter4190);enable-background:accumulate;font-family:Sans;-inkscape-font-specification:Sans" />
      </g>
    </g>
    <path
       d="M 120.78125,6.125 C 118.04223,6.6826484 116,9.0915 116,12 l 0,68 c 0,3.324 2.676,6 6,6 l 72,0 c 3.324,0 6,-2.676 6,-6 l 0,-68 c 0,-2.9085 -2.04223,-5.3173516 -4.78125,-5.875 2.20512,0.5362071 3.8125,2.4908437 3.8125,4.875 l 0,68 c 0,2.80489 -2.22636,5.03125 -5.03125,5.03125 l -72,0 c -2.80489,0 -5.03125,-2.22636 -5.03125,-5.03125 l 0,-68 c 0,-2.3841563 1.60738,-4.3387929 3.8125,-4.875 z"
       inkscape:connector-curvature="0"
       id="rect4359"
       style="opacity:0.2;fill:url(#radialGradient4375);fill-opacity:1;fill-rule:nonzero;stroke:none" />
    <path
       d="M 12,86 C 8.676,86 6,83.324 6,80 L 6,12 C 6,8.676 8.676,6 12,6 l 72,0 c 3.324,0 6,2.676 6,6 l 0,68 c 0,3.324 -2.676,6 -6,6 z m 0,-0.96875 72,0 c 2.80489,0 5.03125,-2.22636 5.03125,-5.03125 l 0,-68 C 89.03125,9.19511 86.80489,6.96875 84,6.96875 l -72,0 C 9.1951102,6.96875 6.96875,9.19511 6.96875,12 l 0,68 c 0,2.80489 2.2263602,5.03125 5.03125,5.03125 z"
       inkscape:connector-curvature="0"
       id="rect4377"
       style="opacity:0.3;fill:url(#linearGradient4390);fill-opacity:1;fill-rule:nonzero;stroke:none" />
    <path
       d="m 6,78 0,2 c 0,3.324 2.676,6 6,6 l 72,0 c 3.324,0 6,-2.676 6,-6 l 0,-2 c 0,3.324 -2.676,6 -6,6 L 12,84 C 8.676,84 6,81.324 6,78 z"
       inkscape:connector-curvature="0"
       id="rect4414"
       style="opacity:0.1;fill:url(#linearGradient4429);fill-opacity:1;fill-rule:nonzero;stroke:none" />
  </g>
  <g
     id="layer5"
     style="display:inline">
    <rect
       width="66"
       height="62"
       rx="12"
       ry="12"
       x="15"
       y="15"
       clip-path="url(#clipPath4355)"
       id="rect3171"
       style="opacity:0.1;fill:url(#linearGradient3613);fill-opacity:1;fill-rule:nonzero;stroke:#ffffff;stroke-width:0.5;stroke-linecap:round;stroke-linejoin:miter;stroke-miterlimit:4;stroke-opacity:1;stroke-dasharray:none;stroke-dashoffset:0;filter:url(#filter3794)" />
  </g>
  <g
     id="layer6" />
</svg>
