<?xml version="1.0" encoding="UTF-8" standalone="no"?>
<!-- Created with Inkscape (http://www.inkscape.org/) -->

<svg
   xmlns:dc="http://purl.org/dc/elements/1.1/"
   xmlns:cc="http://creativecommons.org/ns#"
   xmlns:rdf="http://www.w3.org/1999/02/22-rdf-syntax-ns#"
   xmlns:svg="http://www.w3.org/2000/svg"
   xmlns="http://www.w3.org/2000/svg"
   xmlns:xlink="http://www.w3.org/1999/xlink"
   xmlns:inkscape="http://www.inkscape.org/namespaces/inkscape"
   version="1.0"
   width="96"
   height="96"
   id="svg2408">
  <defs
     id="defs2410">
    <linearGradient
       id="linearGradient4384">
      <stop
         id="stop4386"
         style="stop-color:#ffffff;stop-opacity:1"
         offset="0" />
      <stop
         id="stop4388"
         style="stop-color:#ffffff;stop-opacity:0"
         offset="1" />
    </linearGradient>
    <linearGradient
       id="linearGradient4367">
      <stop
         id="stop4369"
         style="stop-color:#ffffff;stop-opacity:0.71755725"
         offset="0" />
      <stop
         id="stop4371"
         style="stop-color:#ffffff;stop-opacity:1"
         offset="1" />
    </linearGradient>
    <linearGradient
       x1="45.447727"
       y1="92.539597"
       x2="45.447727"
       y2="7.0165396"
       id="ButtonShadow"
       gradientUnits="userSpaceOnUse"
       gradientTransform="scale(1.0058652,0.994169)">
      <stop
         id="stop3750"
         style="stop-color:#000000;stop-opacity:1"
         offset="0" />
      <stop
         id="stop3752"
         style="stop-color:#000000;stop-opacity:0.58823532"
         offset="1" />
    </linearGradient>
    <linearGradient
       id="linearGradient3737">
      <stop
         id="stop3739"
         style="stop-color:#ffffff;stop-opacity:1"
         offset="0" />
      <stop
         id="stop3741"
         style="stop-color:#ffffff;stop-opacity:0"
         offset="1" />
    </linearGradient>
    <filter
       color-interpolation-filters="sRGB"
       id="filter3174">
      <feGaussianBlur
         id="feGaussianBlur3176"
         stdDeviation="1.71" />
    </filter>
    <filter
       x="-0.192"
       y="-0.192"
       width="1.3839999"
       height="1.3839999"
       color-interpolation-filters="sRGB"
       id="filter3794">
      <feGaussianBlur
         id="feGaussianBlur3796"
         stdDeviation="5.28" />
    </filter>
    <linearGradient
       x1="48"
       y1="20.220806"
       x2="48"
       y2="138.66119"
       id="linearGradient3613"
       xlink:href="#linearGradient3737"
       gradientUnits="userSpaceOnUse" />
    <linearGradient
       x1="45.447727"
       y1="92.539597"
       x2="45.447727"
       y2="7.0165396"
       id="ButtonShadow-0"
       gradientUnits="userSpaceOnUse"
       gradientTransform="matrix(1.0058652,0,0,0.994169,100,0)">
      <stop
         id="stop3750-8"
         style="stop-color:#000000;stop-opacity:1"
         offset="0" />
      <stop
         id="stop3752-5"
         style="stop-color:#000000;stop-opacity:0.58823532"
         offset="1" />
    </linearGradient>
    <linearGradient
       x1="32.251034"
       y1="6.1317081"
       x2="32.251034"
       y2="90.238609"
       id="linearGradient3780"
       xlink:href="#ButtonShadow-0"
       gradientUnits="userSpaceOnUse"
       gradientTransform="matrix(1.0238095,0,0,1.0119048,-1.1428571,-98.071429)" />
    <linearGradient
       x1="32.251034"
       y1="6.1317081"
       x2="32.251034"
       y2="90.238609"
       id="linearGradient3772"
       xlink:href="#ButtonShadow-0"
       gradientUnits="userSpaceOnUse"
       gradientTransform="matrix(1.0238095,0,0,1.0119048,-1.1428571,-98.071429)" />
    <linearGradient
       x1="32.251034"
       y1="6.1317081"
       x2="32.251034"
       y2="90.238609"
       id="linearGradient3725"
       xlink:href="#ButtonShadow-0"
       gradientUnits="userSpaceOnUse"
       gradientTransform="matrix(1.0238095,0,0,1.0119048,-1.1428571,-98.071429)" />
    <linearGradient
       x1="32.251034"
       y1="6.1317081"
       x2="32.251034"
       y2="90.238609"
       id="linearGradient3721"
       xlink:href="#ButtonShadow-0"
       gradientUnits="userSpaceOnUse"
       gradientTransform="translate(0,-97)" />
    <linearGradient
       x1="32.251034"
       y1="6.1317081"
       x2="32.251034"
       y2="90.238609"
       id="linearGradient3026"
       xlink:href="#ButtonShadow-0"
       gradientUnits="userSpaceOnUse"
       gradientTransform="matrix(1.0238095,0,0,1.0119048,-1.1428571,-98.071429)" />
    <clipPath
       id="clipPath4355">
      <rect
         width="84"
         height="80"
         rx="6"
         ry="6"
         x="6"
         y="6"
         id="rect4357"
         style="fill:#ffffff;fill-opacity:1;fill-rule:nonzero;stroke:none" />
    </clipPath>
    <radialGradient
       cx="48"
       cy="87.792389"
       r="42"
       fx="48"
       fy="87.792389"
       id="radialGradient4375"
       xlink:href="#linearGradient4367"
       gradientUnits="userSpaceOnUse"
       gradientTransform="matrix(1,-6.7114942e-8,8.4282233e-8,1.2557894,109.99999,-24.505592)" />
    <linearGradient
       x1="48"
       y1="88"
       x2="48"
       y2="-40"
       id="linearGradient4390"
       xlink:href="#linearGradient4384"
       gradientUnits="userSpaceOnUse"
       gradientTransform="matrix(1,0,0,-1,0,92)" />
    <linearGradient
       x1="48"
       y1="82"
       x2="112.12357"
       y2="82.454597"
       id="linearGradient4429"
       xlink:href="#linearGradient4384"
       gradientUnits="userSpaceOnUse"
       spreadMethod="reflect" />
    <linearGradient
       id="linearGradient3892">
      <stop
         id="stop3894"
         style="stop-color:#000000;stop-opacity:0.58823532"
         offset="0" />
      <stop
         id="stop3896"
         style="stop-color:#000000;stop-opacity:0.47058824"
         offset="0.11780351" />
      <stop
         id="stop3898"
         style="stop-color:#000000;stop-opacity:0.39215687"
         offset="0.23809524" />
      <stop
         id="stop3900"
         style="stop-color:#000000;stop-opacity:0.3137255"
         offset="1" />
    </linearGradient>
    <linearGradient
       x1="90"
       y1="88"
       x2="48"
       y2="88"
       id="linearGradient3228"
       xlink:href="#linearGradient3892"
       gradientUnits="userSpaceOnUse"
       spreadMethod="reflect" />
    <linearGradient
       id="linearGradient3926">
      <stop
         id="stop3928"
         style="stop-color:#e9e6e8;stop-opacity:1"
         offset="0" />
      <stop
         id="stop3930"
         style="stop-color:#92838d;stop-opacity:1"
         offset="1" />
    </linearGradient>
    <linearGradient
       x1="301.57123"
       y1="70.042267"
       x2="301.57123"
       y2="443.59406"
       id="linearGradient3920"
       xlink:href="#linearGradient3972"
       gradientUnits="userSpaceOnUse"
       gradientTransform="matrix(0.22574344,0,0,0.22574344,-9.78435,-9.790321)" />
    <linearGradient
       id="linearGradient3972">
      <stop
         id="stop3974"
         style="stop-color:#0b9879;stop-opacity:1"
         offset="0" />
      <stop
         id="stop3976"
         style="stop-color:#60e7dc;stop-opacity:1"
         offset="1" />
    </linearGradient>
    <linearGradient
       x1="40"
       y1="8"
       x2="40"
       y2="88"
       id="linearGradient3089"
       xlink:href="#linearGradient3926"
       gradientUnits="userSpaceOnUse" />
  </defs>
  <metadata
     id="metadata2413">
    <rdf:RDF>
      <cc:Work
         rdf:about="">
        <dc:format>image/svg+xml</dc:format>
        <dc:type
           rdf:resource="http://purl.org/dc/dcmitype/StillImage" />
        <dc:title />
      </cc:Work>
    </rdf:RDF>
  </metadata>
  <g
     id="layer2"
     style="display:none">
    <rect
       width="86"
       height="85"
       rx="6"
       ry="6"
       x="5"
       y="7"
       id="rect3745"
       style="opacity:0.9;fill:url(#ButtonShadow);fill-opacity:1;fill-rule:nonzero;stroke:none;filter:url(#filter3174)" />
  </g>
  <g
     id="layer3"
     style="display:inline">
    <path
       d="m 12,-95.03125 c -5.5110903,0 -10.03125,4.52016 -10.03125,10.03125 l 0,71 c 0,5.5110902 4.5201598,10.03125 10.03125,10.03125 l 72,0 c 5.51109,0 10.03125,-4.5201597 10.03125,-10.03125 l 0,-71 c 0,-5.51109 -4.52016,-10.03125 -10.03125,-10.03125 l -72,0 z"
       transform="scale(1,-1)"
       id="path3786"
       style="opacity:0.07999998;fill:url(#linearGradient3026);fill-opacity:1;fill-rule:nonzero;stroke:none;display:inline" />
    <path
       d="m 12,-94.03125 c -4.971633,0 -9.03125,4.059617 -9.03125,9.03125 l 0,71 c 0,4.9716329 4.0596171,9.03125 9.03125,9.03125 l 72,0 c 4.971633,0 9.03125,-4.059617 9.03125,-9.03125 l 0,-71 c 0,-4.971633 -4.059617,-9.03125 -9.03125,-9.03125 l -72,0 z"
       transform="scale(1,-1)"
       id="path3778"
       style="opacity:0.1;fill:url(#linearGradient3780);fill-opacity:1;fill-rule:nonzero;stroke:none;display:inline" />
    <path
       d="m 12,-93 c -4.4091333,0 -8,3.590867 -8,8 l 0,71 c 0,4.4091333 3.5908667,8 8,8 l 72,0 c 4.409133,0 8,-3.5908667 8,-8 l 0,-71 c 0,-4.409133 -3.590867,-8 -8,-8 l -72,0 z"
       transform="scale(1,-1)"
       id="path3770"
       style="opacity:0.2;fill:url(#linearGradient3772);fill-opacity:1;fill-rule:nonzero;stroke:none;display:inline" />
    <rect
       width="86"
       height="85"
       rx="7"
       ry="7"
       x="5"
       y="-92"
       transform="scale(1,-1)"
       id="rect3723"
       style="opacity:0.3;fill:url(#linearGradient3725);fill-opacity:1;fill-rule:nonzero;stroke:none;display:inline" />
    <rect
       width="84"
       height="84"
       rx="6"
       ry="6"
       x="6"
       y="-91"
       transform="scale(1,-1)"
       id="rect3716"
       style="opacity:0.45;fill:url(#linearGradient3721);fill-opacity:1;fill-rule:nonzero;stroke:none;display:inline" />
  </g>
  <g
     id="layer1">
    <rect
       width="84"
       height="84"
       rx="6"
       ry="6"
       x="6"
       y="6"
       id="rect2419"
       style="fill:url(#linearGradient3089);fill-opacity:1;fill-rule:nonzero;stroke:none" />
    <path
       d="m 48.005965,27.940523 c -9.973968,0 -18.059471,8.045596 -18.059471,18.059475 0,0 -0.119718,1.696399 0.399063,3.611895 l 27.734218,0 c -0.74873,2.091414 -2.09166,3.967816 -3.91524,5.220317 -4.1954,3.31225 -10.54926,2.107841 -14.12308,-1.608422 l -8.585301,0 c 2.788017,6.375372 9.146371,10.835685 16.549811,10.835685 9.97398,0 18.05948,-8.085502 18.05948,-18.059475 0,0 0,-1.856024 -0.35916,-3.611895 l -27.745899,0 c 1.561269,-3.946361 5.289499,-7.144335 9.622319,-7.181463 0.21682,-0.01045 0.43282,-0.01144 0.64901,-0.007 2.90447,0.0589 5.72277,1.436261 7.68233,3.576622 l 8.64174,0 C 61.767765,32.40088 55.409415,27.940566 48.005965,27.940566 z M 43.899405,6 l 0,7.451553 C 30.455873,15.12708 19.539196,24.935734 16.228425,37.798816 l 8.505523,0 c 3.488212,-9.284749 12.723999,-16.526029 22.817557,-16.45843 0.24474,-0.0065 0.49252,-0.0095 0.73682,-0.008 3.66456,0.02185 7.26669,0.931689 10.53179,2.56287 5.88112,2.647413 10.24801,7.879367 12.38187,13.90357 l 8.56959,0 C 76.460805,24.935734 65.544135,15.12708 52.100595,13.451553 l 0,-7.451553 z m -27.67098,48.201185 c 3.310771,12.863082 14.227448,22.671736 27.67098,24.347262 l 0,11.451553 8.20119,0 0,-11.451553 c 13.44354,-1.675526 24.36021,-11.48418 27.67098,-24.347262 l -8.44946,0 C 68.006735,63.981562 57.759555,71.01491 47.399325,70.651606 37.312268,70.702576 28.161708,63.496677 24.749966,54.201185 z"
       inkscape:connector-curvature="0"
       id="path4189"
       style="fill:url(#linearGradient3920);fill-opacity:1;stroke:none;display:inline" />
    <path
       d="m 43.90625,6 0,7.4375 c -13.443532,1.675527 -24.376729,11.511918 -27.6875,24.375 l 8.5,0 c 3.488212,-9.284749 12.750192,-16.536349 22.84375,-16.46875 0.24474,-0.0065 0.47445,-0.0015 0.71875,0 3.66456,0.02185 7.26615,0.931319 10.53125,2.5625 5.88112,2.647413 10.24114,7.882047 12.375,13.90625 l 8.59375,0 C 76.47048,24.949408 65.53729,15.113027 52.09375,13.4375 l 0,-7.4375 -1.90625,0 0,1.90625 0,2.09375 0,3.4375 c -0.0082,0.920071 0.744053,1.78586 1.65625,1.90625 11.807641,1.471638 21.491835,9.646699 25.28125,20.5625 l -4.75,0 C 69.947957,30.015572 65.601862,24.885983 59.65625,22.1875 c -0.02081,-0.01039 -0.04167,-0.02091 -0.0625,-0.03125 -3.496517,-1.735523 -7.363662,-2.695205 -11.3125,-2.71875 -0.207585,-0.0013 -0.447749,-0.0054 -0.71875,0 -0.02356,4.72e-4 -0.03832,-6.42e-4 -0.0625,0 -10.520085,-0.04192 -19.916125,7.088979 -24,16.46875 l -4.625,0 c 3.789416,-10.915794 13.473617,-19.090862 25.28125,-20.5625 0.912197,-0.12039 1.66444,-0.986179 1.65625,-1.90625 l 0,-3.4375 0,-2.09375 0,-1.90625 z M 48,27.9375 c -9.973968,0 -18.0625,8.048621 -18.0625,18.0625 0,0 -0.112531,1.709504 0.40625,3.625 l 27.75,0 c -0.74873,2.091414 -2.11392,3.966249 -3.9375,5.21875 -4.1954,3.31225 -10.55118,2.091263 -14.125,-1.625 l -8.5625,0 C 34.256767,59.594122 40.59656,64.0625 48,64.0625 c 9.97398,0 18.0625,-8.088527 18.0625,-18.0625 0,0 0.01541,-1.869129 -0.34375,-3.625 l -27.75,0 c 1.561269,-3.946361 5.29218,-7.119122 9.625,-7.15625 0.21682,-0.01045 0.40881,-0.03569 0.625,-0.03125 2.90447,0.0589 5.72794,1.453389 7.6875,3.59375 l 8.65625,0 C 61.77448,32.405868 55.40345,27.9375 48,27.9375 z m 0,1.90625 c 5.508738,0 10.239946,2.834961 13.15625,7.03125 l -4.6875,0 C 54.236172,34.793358 51.379371,33.344711 48.25,33.28125 c -0.355318,-0.0073 -0.555647,0.02181 -0.6875,0.03125 -0.01196,8.57e-4 -0.05223,-4.95e-4 -0.0625,0 -5.224565,0.0746 -9.505111,3.806531 -11.3125,8.375 -0.445509,1.150611 0.547403,2.596431 1.78125,2.59375 l 26.03125,0 c 0.04408,0.669183 0.15625,1.6875 0.15625,1.6875 -8.5e-5,0.01042 -8.5e-5,0.02083 0,0.03125 0,8.943792 -7.212452,16.15625 -16.15625,16.15625 -5.508727,0 -10.215306,-2.833348 -13.125,-7.03125 l 4.59375,0 c 4.265107,3.801178 10.959955,5.007378 15.78125,1.28125 0.03102,-0.0213 0.06297,-0.04092 0.09375,-0.0625 l 0,-0.03125 c 2.132095,-1.501243 3.671403,-3.629455 4.53125,-6.03125 0.420093,-1.144106 -0.562467,-2.557613 -1.78125,-2.5625 l -26.0625,0 c -0.04228,-0.614307 -0.1875,-1.59375 -0.1875,-1.59375 0.0014,-0.04165 0.0014,-0.08335 0,-0.125 0,-8.987801 7.207382,-16.15625 16.15625,-16.15625 z M 16.21875,54.1875 c 3.310771,12.863082 14.243968,22.699474 27.6875,24.375 l 0,11.4375 1.96875,0 0,-1.90625 -0.0625,0 0,-9.53125 C 45.82069,77.642429 45.068447,76.77664 44.15625,76.65625 32.348617,75.184613 22.664416,67.009544 18.875,56.09375 l 4.65625,0 c 4.005699,9.387423 13.305054,16.493436 23.8125,16.46875 0.021,-4.9e-5 0.04149,1.06e-4 0.0625,0 10.772217,0.349682 21.132279,-6.549251 25.15625,-16.46875 l 4.5625,0 c -3.789415,10.915795 -13.47361,19.090863 -25.28125,20.5625 -0.912197,0.12039 -1.66444,0.986179 -1.65625,1.90625 l 0,9.53125 -0.0625,0 0,1.90625 1.96875,0 0,-11.4375 c 13.44354,-1.675526 24.37673,-11.511918 27.6875,-24.375 l -8.46875,0 C 67.99712,63.967877 57.76648,71.019554 47.40625,70.65625 37.319193,70.70722 28.161742,63.482992 24.75,54.1875 z"
       inkscape:connector-curvature="0"
       id="path3936"
       style="opacity:0.1;fill:#000000;fill-opacity:1;stroke:none;display:inline" />
    <path
       d="m 43.90625,6 0,7.4375 c -13.443532,1.675527 -24.376729,11.511918 -27.6875,24.375 l 8.5,0 c 3.488212,-9.284749 12.750192,-16.536349 22.84375,-16.46875 0.24474,-0.0065 0.47445,-0.0015 0.71875,0 3.66456,0.02185 7.26615,0.931319 10.53125,2.5625 5.88112,2.647413 10.24114,7.882047 12.375,13.90625 l 8.59375,0 C 76.47048,24.949408 65.53729,15.113027 52.09375,13.4375 L 52.09375,6 51,6 l 0,1.0625 0.03125,0 0,6.375 c -0.0016,0.516516 0.424809,0.999739 0.9375,1.0625 12.521701,1.560634 22.707761,10.487443 26.3125,22.25 l -6.4375,0 c -2.306366,-5.949031 -6.640413,-11.137856 -12.5625,-13.8125 -0.0083,-0.0037 -0.02297,0.0037 -0.03125,0 -3.396932,-1.692261 -7.141734,-2.633431 -10.96875,-2.65625 -0.224104,-0.0014 -0.456004,-0.006 -0.71875,0 -0.01142,2.63e-4 -0.01971,-3.07e-4 -0.03125,0 -10.338842,-0.05453 -19.670389,7.123559 -23.5,16.46875 l -6.3125,0 c 3.60474,-11.762549 13.790807,-20.689366 26.3125,-22.25 0.512691,-0.06276 0.939065,-0.545984 0.9375,-1.0625 l 0,-6.375 L 45,7.0625 45,6 z M 48,27.9375 c -9.973968,0 -18.0625,8.048621 -18.0625,18.0625 0,0 -0.112531,1.709504 0.40625,3.625 l 27.75,0 c -0.74873,2.091414 -2.11392,3.966249 -3.9375,5.21875 -4.1954,3.31225 -10.55118,2.091263 -14.125,-1.625 l -8.5625,0 C 34.256767,59.594122 40.59656,64.0625 48,64.0625 c 9.97398,0 18.0625,-8.088527 18.0625,-18.0625 0,0 0.01541,-1.869129 -0.34375,-3.625 l -27.75,0 c 1.561269,-3.946361 5.29218,-7.119122 9.625,-7.15625 0.21682,-0.01045 0.40881,-0.03569 0.625,-0.03125 2.90447,0.0589 5.72794,1.453389 7.6875,3.59375 l 8.65625,0 C 61.77448,32.405868 55.40345,27.9375 48,27.9375 z M 48,29 c 6.339011,0 11.733483,3.582774 14.65625,8.71875 l -6.4375,0 C 54.09839,35.612639 51.283529,34.186517 48.25,34.125 c -0.285064,-0.0059 -0.496711,0.0208 -0.65625,0.03125 -0.01516,9.93e-4 -0.04822,-6.88e-4 -0.0625,0 -4.820367,0.07122 -8.866706,3.526105 -10.5625,7.8125 -0.26337,0.648342 0.300246,1.476152 1,1.46875 l 26.78125,0 C 64.888252,44.625491 65,46 65,46 65,55.397071 57.397078,63 48,63 41.661,63 36.293768,59.418829 33.375,54.28125 l 6.3125,0 c 3.967768,3.772606 10.506351,4.980998 15.0625,1.4375 0.01855,-0.01274 0.04404,-0.0184 0.0625,-0.03125 l 0,-0.03125 C 56.803365,54.264159 58.284422,52.260681 59.09375,50 c 0.237549,-0.642011 -0.315451,-1.436948 -1,-1.4375 l -26.8125,0 C 31.101293,47.37147 31,46.0625 31,46.0625 31.00061,46.041673 31.00061,46.020827 31,46 31,36.560724 38.600088,29 48,29 z M 16.21875,54.1875 c 3.310771,12.863082 14.243968,22.699474 27.6875,24.375 l 0,11.4375 1.09375,0 0,-1.0625 -0.03125,0 0,-10.375 C 44.970315,78.045984 44.543941,77.562761 44.03125,77.5 31.509557,75.939367 21.32349,67.012549 17.71875,55.25 l 6.34375,0 c 3.751791,9.353962 12.983655,16.5063 23.3125,16.46875 0.01053,-3.8e-5 0.02072,5.3e-5 0.03125,0 C 57.999157,72.075751 68.274551,65.112504 72,55.25 l 6.28125,0 c -3.604739,11.762549 -13.790799,20.689367 -26.3125,22.25 -0.512691,0.06276 -0.939065,0.545984 -0.9375,1.0625 l 0,10.375 -0.03125,0 0,1.0625 1.09375,0 0,-11.4375 c 13.44354,-1.675526 24.37673,-11.511918 27.6875,-24.375 l -8.46875,0 C 67.99712,63.967877 57.76648,71.019554 47.40625,70.65625 37.319193,70.70722 28.161742,63.482992 24.75,54.1875 z"
       inkscape:connector-curvature="0"
       id="path3932"
       style="opacity:0.15;fill:#000000;fill-opacity:1;stroke:none;display:inline" />
    <path
       d="m 43.90625,13.4375 c -13.443532,1.675527 -24.376729,11.511918 -27.6875,24.375 l 0.3125,0 c 3.610778,-12.363265 14.286213,-21.743686 27.375,-23.375 z m 8.1875,0 0,1 c 13.088795,1.631314 23.764224,11.011726 27.375,23.375 l 0.3125,0 C 76.47048,24.949408 65.53729,15.113027 52.09375,13.4375 z M 48,27.9375 c -9.973968,0 -18.0625,8.048621 -18.0625,18.0625 0,0 -0.0224,0.432106 0,1 0,-10.013879 8.088532,-18.0625 18.0625,-18.0625 7.014539,0 13.103388,4.000561 16.09375,9.84375 l 0.46875,0 C 61.77448,32.405868 55.40345,27.9375 48,27.9375 z M 38.4375,42.375 c -0.16828,0.331489 -0.332458,0.6555 -0.46875,1 l 27.75,0 c 0.25718,1.257306 0.291765,2.326952 0.3125,2.96875 0.0022,-0.115933 0.03125,-0.227292 0.03125,-0.34375 0,0 0.01541,-1.869129 -0.34375,-3.625 z m 19.21875,8.25 c -0.786369,1.673654 -1.98035,3.174999 -3.5,4.21875 -4.1954,3.31225 -10.55118,2.091263 -14.125,-1.625 l -8.5625,0 c 0.146458,0.334905 0.302954,0.676033 0.46875,1 l 8.09375,0 c 3.57382,3.716263 9.9296,4.93725 14.125,1.625 1.82358,-1.252501 3.18877,-3.127336 3.9375,-5.21875 z m -41.4375,3.5625 c 0.08736,0.339428 0.214637,0.664919 0.3125,1 l 8.21875,0 c 3.411742,9.295492 12.569193,16.51972 22.65625,16.46875 10.36023,0.363304 20.59087,-6.688373 23.90625,-16.46875 l 8.15625,0 c 0.09786,-0.335081 0.225136,-0.660572 0.3125,-1 l -8.46875,0 C 67.99712,63.967877 57.76648,71.019554 47.40625,70.65625 37.319193,70.70722 28.161742,63.482992 24.75,54.1875 z"
       inkscape:connector-curvature="0"
       id="path3922"
       style="opacity:0.3;fill:#000000;fill-opacity:1;stroke:none;display:inline" />
    <path
       d="M 47.5625,21.34375 C 37.468942,21.276151 28.206962,28.527751 24.71875,37.8125 l -8.1875,0 c -0.09786,0.335081 -0.225136,0.660572 -0.3125,1 l 8.5,0 c 3.488212,-9.284749 12.750192,-16.536349 22.84375,-16.46875 0.24474,-0.0065 0.47445,-0.0015 0.71875,0 3.66456,0.02185 7.26615,0.931319 10.53125,2.5625 5.88112,2.647413 10.24114,7.882047 12.375,13.90625 l 8.59375,0 c -0.08736,-0.339429 -0.214637,-0.664918 -0.3125,-1 l -8.28125,0 C 69.05364,31.788297 64.69362,26.553663 58.8125,23.90625 55.5474,22.275069 51.94581,21.3656 48.28125,21.34375 c -0.2443,-0.0015 -0.47401,-0.0065 -0.71875,0 z m 0.65625,13.84375 c -0.21619,-0.0044 -0.40818,0.0208 -0.625,0.03125 -4.33282,0.03713 -8.063731,3.209889 -9.625,7.15625 l 0.46875,0 c 1.759416,-3.465826 5.201667,-6.122363 9.15625,-6.15625 0.21682,-0.01045 0.40881,-0.03569 0.625,-0.03125 2.90447,0.0589 5.72794,1.453389 7.6875,3.59375 l 8.65625,0 c -0.146458,-0.334906 -0.302954,-0.676032 -0.46875,-1 l -8.1875,0 C 53.94669,36.640889 51.12322,35.2464 48.21875,35.1875 z m 17.8125,11.15625 C 65.845474,56.156844 57.857522,64.0625 48,64.0625 c -7.014529,0 -13.07214,-4.000569 -16.0625,-9.84375 l -0.46875,0 C 34.256767,60.594122 40.59656,65.0625 48,65.0625 c 9.97398,0 18.0625,-8.088527 18.0625,-18.0625 0,0 -0.02303,-0.401755 -0.03125,-0.65625 z m -36.09375,0.75 c -0.0085,0.136577 -0.0903,1.697847 0.40625,3.53125 l 27.3125,0 c 0.157274,-0.334731 0.312712,-0.651431 0.4375,-1 l -27.75,0 C 30.084359,48.667252 29.972418,47.757287 29.9375,47.09375 z M 16.21875,55.1875 c 3.310771,12.863082 14.243968,22.699474 27.6875,24.375 l 0,-1 C 30.817463,76.931187 20.142028,67.550765 16.53125,55.1875 z m 63.25,0 c -3.610776,12.363265 -14.286205,21.743687 -27.375,23.375 l 0,1 c 13.44354,-1.675526 24.37673,-11.511918 27.6875,-24.375 z"
       inkscape:connector-curvature="0"
       id="path3963"
       style="opacity:0.3;fill:#ffffff;fill-opacity:1;stroke:none;display:inline" />
    <path
       d="M 120.78125,6.125 C 118.04223,6.6826484 116,9.0915 116,12 l 0,68 c 0,3.324 2.676,6 6,6 l 72,0 c 3.324,0 6,-2.676 6,-6 l 0,-68 c 0,-2.9085 -2.04223,-5.3173516 -4.78125,-5.875 2.20512,0.5362071 3.8125,2.4908437 3.8125,4.875 l 0,68 c 0,2.80489 -2.22636,5.03125 -5.03125,5.03125 l -72,0 c -2.80489,0 -5.03125,-2.22636 -5.03125,-5.03125 l 0,-68 c 0,-2.3841563 1.60738,-4.3387929 3.8125,-4.875 z"
       inkscape:connector-curvature="0"
       id="rect4359"
       style="opacity:0.2;fill:url(#radialGradient4375);fill-opacity:1;fill-rule:nonzero;stroke:none" />
    <path
       d="M 12,86 C 8.676,86 6,83.324 6,80 L 6,12 C 6,8.676 8.676,6 12,6 l 72,0 c 3.324,0 6,2.676 6,6 l 0,68 c 0,3.324 -2.676,6 -6,6 z m 0,-0.96875 72,0 c 2.80489,0 5.03125,-2.22636 5.03125,-5.03125 l 0,-68 C 89.03125,9.19511 86.80489,6.96875 84,6.96875 l -72,0 C 9.1951102,6.96875 6.96875,9.19511 6.96875,12 l 0,68 c 0,2.80489 2.2263602,5.03125 5.03125,5.03125 z"
       inkscape:connector-curvature="0"
       id="rect4377"
       style="opacity:0.4;fill:url(#linearGradient4390);fill-opacity:1;fill-rule:nonzero;stroke:none" />
    <path
       d="m 6,78 0,2 c 0,3.324 2.676,6 6,6 l 72,0 c 3.324,0 6,-2.676 6,-6 l 0,-2 c 0,3.324 -2.676,6 -6,6 L 12,84 C 8.676,84 6,81.324 6,78 z"
       inkscape:connector-curvature="0"
       id="rect4414"
       style="opacity:0.1;fill:url(#linearGradient4429);fill-opacity:1;fill-rule:nonzero;stroke:none" />
    <path
       d="m 6,100 0,1 c 0,3.324 2.676,6 6,6 l 72,0 c 3.324,0 6,-2.676 6,-6 l 0,-1 c 0,3.324 -2.676,6 -6,6 l -72,0 c -3.324,0 -6,-2.676 -6,-6 z"
       inkscape:connector-curvature="0"
       id="path4412"
       style="opacity:0.15;fill:#000000;fill-opacity:1;fill-rule:nonzero;stroke:none" />
    <rect
       width="8"
       height="4"
       x="44"
       y="86"
       id="rect3093"
       style="opacity:0.545082;color:#000000;fill:#135648;fill-opacity:1;fill-rule:nonzero;stroke:none;stroke-width:2;marker:none;visibility:visible;display:inline;overflow:visible;enable-background:accumulate" />
  </g>
  <g
     id="layer4"
     style="display:inline">
    <path
       d="m 6,80 0,4 c 0,3.324 2.676,6 6,6 l 72,0 c 3.324,0 6,-2.676 6,-6 l 0,-4 c 0,3.324 -2.676,6 -6,6 L 12,86 C 8.676,86 6,83.324 6,80 z"
       inkscape:connector-curvature="0"
       id="path3888"
       style="fill:url(#linearGradient3228);fill-opacity:1;fill-rule:nonzero;stroke:none;display:inline" />
    <path
       d="m 6,82 0,2 c 0,3.324 2.676,6 6,6 l 72,0 c 3.324,0 6,-2.676 6,-6 l 0,-2 c 0,3.324 -2.676,6 -6,6 L 12,88 C 8.676,88 6,85.324 6,82 z"
       inkscape:connector-curvature="0"
       id="rect4345"
       style="opacity:0.1;color:#000000;fill:#000000;fill-opacity:1;fill-rule:nonzero;stroke:none;stroke-width:1.5;marker:none;visibility:visible;display:inline;overflow:visible;enable-background:accumulate" />
    <path
       d="m 6,83 0,1 c 0,3.324 2.676,6 6,6 l 72,0 c 3.324,0 6,-2.676 6,-6 l 0,-1 c 0,3.324 -2.676,6 -6,6 L 12,89 C 8.676,89 6,86.324 6,83 z"
       inkscape:connector-curvature="0"
       id="rect4336"
       style="opacity:0.15;color:#000000;fill:#000000;fill-opacity:1;fill-rule:nonzero;stroke:none;stroke-width:1.5;marker:none;visibility:visible;display:inline;overflow:visible;enable-background:accumulate" />
  </g>
  <g
     id="layer5"
     style="display:inline">
    <rect
       width="66"
       height="62"
       rx="12"
       ry="12"
       x="15"
       y="15"
       clip-path="url(#clipPath4355)"
       id="rect3171"
       style="opacity:0.1;fill:url(#linearGradient3613);fill-opacity:1;fill-rule:nonzero;stroke:#ffffff;stroke-width:0.5;stroke-linecap:round;stroke-linejoin:miter;stroke-miterlimit:4;stroke-opacity:1;stroke-dasharray:none;stroke-dashoffset:0;filter:url(#filter3794)" />
  </g>
  <g
     id="layer6" />
</svg>
