<?xml version="1.0" encoding="UTF-8" standalone="no"?>
<!-- Created with Inkscape (http://www.inkscape.org/) -->

<svg
   xmlns:dc="http://purl.org/dc/elements/1.1/"
   xmlns:cc="http://creativecommons.org/ns#"
   xmlns:rdf="http://www.w3.org/1999/02/22-rdf-syntax-ns#"
   xmlns:svg="http://www.w3.org/2000/svg"
   xmlns="http://www.w3.org/2000/svg"
   xmlns:xlink="http://www.w3.org/1999/xlink"
   xmlns:inkscape="http://www.inkscape.org/namespaces/inkscape"
   version="1.0"
   width="96"
   height="96"
   id="svg2408">
  <defs
     id="defs2410">
    <linearGradient
       id="linearGradient4384">
      <stop
         id="stop4386"
         style="stop-color:#ffffff;stop-opacity:1"
         offset="0" />
      <stop
         id="stop4388"
         style="stop-color:#ffffff;stop-opacity:0"
         offset="1" />
    </linearGradient>
    <linearGradient
       id="linearGradient4367">
      <stop
         id="stop4369"
         style="stop-color:#ffffff;stop-opacity:0.71755725"
         offset="0" />
      <stop
         id="stop4371"
         style="stop-color:#ffffff;stop-opacity:1"
         offset="1" />
    </linearGradient>
    <linearGradient
       x1="45.447727"
       y1="92.539597"
       x2="45.447727"
       y2="7.0165396"
       id="ButtonShadow"
       gradientUnits="userSpaceOnUse"
       gradientTransform="scale(1.0058652,0.994169)">
      <stop
         id="stop3750"
         style="stop-color:#000000;stop-opacity:1"
         offset="0" />
      <stop
         id="stop3752"
         style="stop-color:#000000;stop-opacity:0.58823532"
         offset="1" />
    </linearGradient>
    <linearGradient
       id="linearGradient3737">
      <stop
         id="stop3739"
         style="stop-color:#ffffff;stop-opacity:1"
         offset="0" />
      <stop
         id="stop3741"
         style="stop-color:#ffffff;stop-opacity:0"
         offset="1" />
    </linearGradient>
    <filter
       color-interpolation-filters="sRGB"
       id="filter3174">
      <feGaussianBlur
         id="feGaussianBlur3176"
         stdDeviation="1.71" />
    </filter>
    <filter
       x="-0.192"
       y="-0.192"
       width="1.3839999"
       height="1.3839999"
       color-interpolation-filters="sRGB"
       id="filter3794">
      <feGaussianBlur
         id="feGaussianBlur3796"
         stdDeviation="5.28" />
    </filter>
    <linearGradient
       x1="48"
       y1="20.220806"
       x2="48"
       y2="138.66119"
       id="linearGradient3613"
       xlink:href="#linearGradient3737"
       gradientUnits="userSpaceOnUse" />
    <linearGradient
       x1="45.447727"
       y1="92.539597"
       x2="45.447727"
       y2="7.0165396"
       id="ButtonShadow-0"
       gradientUnits="userSpaceOnUse"
       gradientTransform="matrix(1.0058652,0,0,0.994169,100,0)">
      <stop
         id="stop3750-8"
         style="stop-color:#000000;stop-opacity:1"
         offset="0" />
      <stop
         id="stop3752-5"
         style="stop-color:#000000;stop-opacity:0.58823532"
         offset="1" />
    </linearGradient>
    <linearGradient
       x1="32.251034"
       y1="6.1317081"
       x2="32.251034"
       y2="90.238609"
       id="linearGradient3780"
       xlink:href="#ButtonShadow-0"
       gradientUnits="userSpaceOnUse"
       gradientTransform="matrix(1.0238095,0,0,1.0119048,-1.1428571,-98.071429)" />
    <linearGradient
       x1="32.251034"
       y1="6.1317081"
       x2="32.251034"
       y2="90.238609"
       id="linearGradient3772"
       xlink:href="#ButtonShadow-0"
       gradientUnits="userSpaceOnUse"
       gradientTransform="matrix(1.0238095,0,0,1.0119048,-1.1428571,-98.071429)" />
    <linearGradient
       x1="32.251034"
       y1="6.1317081"
       x2="32.251034"
       y2="90.238609"
       id="linearGradient3725"
       xlink:href="#ButtonShadow-0"
       gradientUnits="userSpaceOnUse"
       gradientTransform="matrix(1.0238095,0,0,1.0119048,-1.1428571,-98.071429)" />
    <linearGradient
       x1="32.251034"
       y1="6.1317081"
       x2="32.251034"
       y2="90.238609"
       id="linearGradient3721"
       xlink:href="#ButtonShadow-0"
       gradientUnits="userSpaceOnUse"
       gradientTransform="translate(0,-97)" />
    <linearGradient
       x1="32.251034"
       y1="6.1317081"
       x2="32.251034"
       y2="90.238609"
       id="linearGradient3026"
       xlink:href="#ButtonShadow-0"
       gradientUnits="userSpaceOnUse"
       gradientTransform="matrix(1.0238095,0,0,1.0119048,-1.1428571,-98.071429)" />
    <clipPath
       id="clipPath4355">
      <rect
         width="84"
         height="80"
         rx="6"
         ry="6"
         x="6"
         y="6"
         id="rect4357"
         style="fill:#ffffff;fill-opacity:1;fill-rule:nonzero;stroke:none" />
    </clipPath>
    <radialGradient
       cx="48"
       cy="87.792389"
       r="42"
       fx="48"
       fy="87.792389"
       id="radialGradient4375"
       xlink:href="#linearGradient4367"
       gradientUnits="userSpaceOnUse"
       gradientTransform="matrix(1,-6.7114942e-8,8.4282233e-8,1.2557894,109.99999,-24.505592)" />
    <linearGradient
       x1="48"
       y1="88"
       x2="48"
       y2="-40"
       id="linearGradient4390"
       xlink:href="#linearGradient4384"
       gradientUnits="userSpaceOnUse"
       gradientTransform="matrix(1,0,0,-1,0,92)" />
    <linearGradient
       x1="48"
       y1="82"
       x2="112.12357"
       y2="82.454597"
       id="linearGradient4429"
       xlink:href="#linearGradient4384"
       gradientUnits="userSpaceOnUse"
       spreadMethod="reflect" />
    <linearGradient
       id="linearGradient3892">
      <stop
         id="stop3894"
         style="stop-color:#000000;stop-opacity:0.58823532"
         offset="0" />
      <stop
         id="stop3896"
         style="stop-color:#000000;stop-opacity:0.47058824"
         offset="0.11780351" />
      <stop
         id="stop3898"
         style="stop-color:#000000;stop-opacity:0.39215687"
         offset="0.23809524" />
      <stop
         id="stop3900"
         style="stop-color:#000000;stop-opacity:0.3137255"
         offset="1" />
    </linearGradient>
    <linearGradient
       x1="90"
       y1="88"
       x2="48"
       y2="88"
       id="linearGradient3228"
       xlink:href="#linearGradient3892"
       gradientUnits="userSpaceOnUse"
       spreadMethod="reflect" />
    <linearGradient
       x1="48"
       y1="26"
       x2="48"
       y2="30"
       id="linearGradient4100"
       xlink:href="#linearGradient3967"
       gradientUnits="userSpaceOnUse"
       gradientTransform="translate(0,36)" />
    <linearGradient
       id="linearGradient3967">
      <stop
         id="stop3969"
         style="stop-color:#ffffff;stop-opacity:1"
         offset="0" />
      <stop
         id="stop3971"
         style="stop-color:#8e8e8e;stop-opacity:1"
         offset="0.75" />
      <stop
         id="stop3973"
         style="stop-color:#cacaca;stop-opacity:1"
         offset="1" />
    </linearGradient>
    <linearGradient
       x1="50"
       y1="31"
       x2="50"
       y2="17"
       id="linearGradient4098"
       xlink:href="#linearGradient4040"
       gradientUnits="userSpaceOnUse" />
    <linearGradient
       id="linearGradient4040">
      <stop
         id="stop4042"
         style="stop-color:#656565;stop-opacity:1"
         offset="0" />
      <stop
         id="stop4044"
         style="stop-color:#b9b9b9;stop-opacity:1"
         offset="1" />
    </linearGradient>
    <filter
       x="-0.06469065"
       y="-0.18604138"
       width="1.1293813"
       height="1.3720828"
       color-interpolation-filters="sRGB"
       id="filter4078">
      <feGaussianBlur
         id="feGaussianBlur4080"
         stdDeviation="0.7025" />
    </filter>
    <linearGradient
       x1="46"
       y1="26"
       x2="46"
       y2="32"
       id="linearGradient4094"
       xlink:href="#linearGradient4040"
       gradientUnits="userSpaceOnUse" />
    <linearGradient
       x1="45"
       y1="30"
       x2="45"
       y2="18"
       id="linearGradient4096"
       xlink:href="#linearGradient3967"
       gradientUnits="userSpaceOnUse"
       gradientTransform="matrix(1,0,0,-1,0,45)" />
    <linearGradient
       x1="48"
       y1="26"
       x2="48"
       y2="30"
       id="linearGradient3955"
       xlink:href="#linearGradient3967"
       gradientUnits="userSpaceOnUse"
       gradientTransform="translate(0,2)" />
    <linearGradient
       x1="50"
       y1="31"
       x2="50"
       y2="17"
       id="linearGradient4004"
       xlink:href="#linearGradient4040"
       gradientUnits="userSpaceOnUse" />
    <linearGradient
       x1="48"
       y1="32"
       x2="48"
       y2="40"
       id="linearGradient3871"
       xlink:href="#linearGradient3865"
       gradientUnits="userSpaceOnUse" />
    <linearGradient
       id="linearGradient3865">
      <stop
         id="stop3867"
         style="stop-color:#000000;stop-opacity:1"
         offset="0" />
      <stop
         id="stop3869"
         style="stop-color:#000000;stop-opacity:0"
         offset="1" />
    </linearGradient>
    <filter
       x="-0.11625"
       y="-0.39857143"
       width="1.2325"
       height="1.7971429"
       color-interpolation-filters="sRGB"
       id="filter4020">
      <feGaussianBlur
         id="feGaussianBlur4022"
         stdDeviation="1.1625" />
    </filter>
    <linearGradient
       x1="46"
       y1="26"
       x2="46"
       y2="32"
       id="linearGradient4060"
       xlink:href="#linearGradient4040"
       gradientUnits="userSpaceOnUse" />
    <linearGradient
       x1="45"
       y1="30"
       x2="45"
       y2="18"
       id="linearGradient4058"
       xlink:href="#linearGradient3967"
       gradientUnits="userSpaceOnUse"
       gradientTransform="matrix(1,0,0,-1,0,45)" />
    <linearGradient
       x1="48"
       y1="32"
       x2="48"
       y2="40"
       id="linearGradient3875"
       xlink:href="#linearGradient3865"
       gradientUnits="userSpaceOnUse"
       gradientTransform="translate(0,34)" />
    <linearGradient
       x1="32"
       y1="8"
       x2="32"
       y2="32"
       id="linearGradient3929"
       xlink:href="#linearGradient3905"
       gradientUnits="userSpaceOnUse"
       gradientTransform="translate(0,38)" />
    <linearGradient
       id="linearGradient3905">
      <stop
         id="stop3907"
         style="stop-color:#ffffff;stop-opacity:1"
         offset="0" />
      <stop
         id="stop3962"
         style="stop-color:#ffffff;stop-opacity:0"
         offset="1" />
    </linearGradient>
    <linearGradient
       x1="32"
       y1="16"
       x2="32"
       y2="32"
       id="linearGradient3911"
       xlink:href="#linearGradient3905"
       gradientUnits="userSpaceOnUse" />
    <linearGradient
       x1="24"
       y1="40"
       x2="72"
       y2="88"
       id="linearGradient3872"
       xlink:href="#linearGradient3866"
       gradientUnits="userSpaceOnUse"
       gradientTransform="translate(0,-2)" />
    <linearGradient
       id="linearGradient3866">
      <stop
         id="stop3868"
         style="stop-color:#ffffff;stop-opacity:1"
         offset="0" />
      <stop
         id="stop3880"
         style="stop-color:#d2d2d2;stop-opacity:1"
         offset="0.16666667" />
      <stop
         id="stop3878"
         style="stop-color:#c8c8c8;stop-opacity:1"
         offset="0.33333334" />
      <stop
         id="stop3876"
         style="stop-color:#dcdcdc;stop-opacity:1"
         offset="0.66666669" />
      <stop
         id="stop3874"
         style="stop-color:#cfcfcf;stop-opacity:1"
         offset="0.83333331" />
      <stop
         id="stop3870"
         style="stop-color:#bdbdbd;stop-opacity:1"
         offset="1" />
    </linearGradient>
    <linearGradient
       x1="67"
       y1="44"
       x2="67"
       y2="-40"
       id="linearGradient3915"
       xlink:href="#linearGradient3850"
       gradientUnits="userSpaceOnUse"
       gradientTransform="translate(0,38)" />
    <linearGradient
       id="linearGradient3850">
      <stop
         id="stop3852"
         style="stop-color:#000000;stop-opacity:1"
         offset="0" />
      <stop
         id="stop3854"
         style="stop-color:#000000;stop-opacity:0"
         offset="1" />
    </linearGradient>
    <linearGradient
       x1="80"
       y1="40"
       x2="71.425629"
       y2="8"
       id="linearGradient3931"
       xlink:href="#linearGradient3850"
       gradientUnits="userSpaceOnUse"
       gradientTransform="translate(0,38)" />
    <linearGradient
       x1="67"
       y1="42"
       x2="67"
       y2="14"
       id="linearGradient3925"
       xlink:href="#linearGradient3850"
       gradientUnits="userSpaceOnUse"
       gradientTransform="translate(0,39)" />
    <linearGradient
       x1="24"
       y1="8"
       x2="72"
       y2="48"
       id="linearGradient3840"
       xlink:href="#linearGradient3700-0"
       gradientUnits="userSpaceOnUse" />
    <linearGradient
       id="linearGradient3700-0">
      <stop
         id="stop3702-6"
         style="stop-color:#dcdcdc;stop-opacity:1"
         offset="0" />
      <stop
         id="stop3822"
         style="stop-color:#f0f0f0;stop-opacity:1"
         offset="0.30000001" />
      <stop
         id="stop3824"
         style="stop-color:#dcdcdc;stop-opacity:1"
         offset="0.60000002" />
      <stop
         id="stop3828"
         style="stop-color:#c8c8c8;stop-opacity:1"
         offset="0.80000001" />
      <stop
         id="stop3704-4"
         style="stop-color:#bebebe;stop-opacity:1"
         offset="1" />
    </linearGradient>
    <linearGradient
       x1="67"
       y1="44"
       x2="67"
       y2="-24"
       id="linearGradient3856"
       xlink:href="#linearGradient3850"
       gradientUnits="userSpaceOnUse" />
    <linearGradient
       x1="80"
       y1="40"
       x2="73.569221"
       y2="16"
       id="linearGradient3864"
       xlink:href="#linearGradient3850"
       gradientUnits="userSpaceOnUse" />
    <linearGradient
       x1="67"
       y1="44"
       x2="67"
       y2="16"
       id="linearGradient3890-6"
       xlink:href="#linearGradient3850"
       gradientUnits="userSpaceOnUse" />
    <linearGradient
       x1="24"
       y1="8"
       x2="70.188019"
       y2="88"
       id="linearGradient4062"
       xlink:href="#linearGradient3700-0"
       gradientUnits="userSpaceOnUse" />
  </defs>
  <metadata
     id="metadata2413">
    <rdf:RDF>
      <cc:Work
         rdf:about="">
        <dc:format>image/svg+xml</dc:format>
        <dc:type
           rdf:resource="http://purl.org/dc/dcmitype/StillImage" />
        <dc:title />
      </cc:Work>
    </rdf:RDF>
  </metadata>
  <g
     id="layer2"
     style="display:none">
    <rect
       width="86"
       height="85"
       rx="6"
       ry="6"
       x="5"
       y="7"
       id="rect3745"
       style="opacity:0.9;fill:url(#ButtonShadow);fill-opacity:1;fill-rule:nonzero;stroke:none;filter:url(#filter3174)" />
  </g>
  <g
     id="layer3"
     style="display:inline">
    <path
       d="m 12,-95.03125 c -5.5110903,0 -10.03125,4.52016 -10.03125,10.03125 l 0,71 c 0,5.5110902 4.5201598,10.03125 10.03125,10.03125 l 72,0 c 5.51109,0 10.03125,-4.5201597 10.03125,-10.03125 l 0,-71 c 0,-5.51109 -4.52016,-10.03125 -10.03125,-10.03125 l -72,0 z"
       transform="scale(1,-1)"
       id="path3786"
       style="opacity:0.07999998;fill:url(#linearGradient3026);fill-opacity:1;fill-rule:nonzero;stroke:none;display:inline" />
    <path
       d="m 12,-94.03125 c -4.971633,0 -9.03125,4.059617 -9.03125,9.03125 l 0,71 c 0,4.9716329 4.0596171,9.03125 9.03125,9.03125 l 72,0 c 4.971633,0 9.03125,-4.059617 9.03125,-9.03125 l 0,-71 c 0,-4.971633 -4.059617,-9.03125 -9.03125,-9.03125 l -72,0 z"
       transform="scale(1,-1)"
       id="path3778"
       style="opacity:0.1;fill:url(#linearGradient3780);fill-opacity:1;fill-rule:nonzero;stroke:none;display:inline" />
    <path
       d="m 12,-93 c -4.4091333,0 -8,3.590867 -8,8 l 0,71 c 0,4.4091333 3.5908667,8 8,8 l 72,0 c 4.409133,0 8,-3.5908667 8,-8 l 0,-71 c 0,-4.409133 -3.590867,-8 -8,-8 l -72,0 z"
       transform="scale(1,-1)"
       id="path3770"
       style="opacity:0.2;fill:url(#linearGradient3772);fill-opacity:1;fill-rule:nonzero;stroke:none;display:inline" />
    <rect
       width="86"
       height="85"
       rx="7"
       ry="7"
       x="5"
       y="-92"
       transform="scale(1,-1)"
       id="rect3723"
       style="opacity:0.3;fill:url(#linearGradient3725);fill-opacity:1;fill-rule:nonzero;stroke:none;display:inline" />
    <rect
       width="84"
       height="84"
       rx="6"
       ry="6"
       x="6"
       y="-91"
       transform="scale(1,-1)"
       id="rect3716"
       style="opacity:0.45;fill:url(#linearGradient3721);fill-opacity:1;fill-rule:nonzero;stroke:none;display:inline" />
  </g>
  <g
     id="layer1">
    <rect
       width="84"
       height="84"
       rx="6"
       ry="6"
       x="6"
       y="6"
       id="rect2419-5"
       style="fill:url(#linearGradient4062);fill-opacity:1;fill-rule:nonzero;stroke:none" />
    <path
       d="m 15,11.96875 c -1.660749,0 -3.03125,1.370501 -3.03125,3.03125 l 0,26 c 0,1.660749 1.370501,3.03125 3.03125,3.03125 l 66,0 c 1.660749,0 3.03125,-1.370501 3.03125,-3.03125 l 0,-26 c 0,-1.660749 -1.370501,-3.03125 -3.03125,-3.03125 l -66,0 z"
       transform="translate(0,1)"
       id="path3888-8"
       style="opacity:0.05;color:#000000;fill:url(#linearGradient3890-6);fill-opacity:1;fill-rule:nonzero;stroke:none;stroke-width:1;marker:none;visibility:visible;display:inline;overflow:visible;enable-background:accumulate" />
    <path
       d="m 15,11.96875 c -1.660749,0 -3.03125,1.370501 -3.03125,3.03125 l 0,26 c 0,1.660749 1.370501,3.03125 3.03125,3.03125 l 66,0 c 1.660749,0 3.03125,-1.370501 3.03125,-3.03125 l 0,-26 c 0,-1.660749 -1.370501,-3.03125 -3.03125,-3.03125 l -66,0 z"
       id="path3862"
       style="opacity:0.1;color:#000000;fill:url(#linearGradient3864);fill-opacity:1;fill-rule:nonzero;stroke:none;stroke-width:1;marker:none;visibility:visible;display:inline;overflow:visible;enable-background:accumulate" />
    <path
       d="m 15,12.96875 c -1.10119,0 -2.03125,0.93006 -2.03125,2.03125 l 0,26 c 0,1.10119 0.93006,2.03125 2.03125,2.03125 l 66,0 c 1.10119,0 2.03125,-0.93006 2.03125,-2.03125 l 0,-26 c 0,-1.10119 -0.93006,-2.03125 -2.03125,-2.03125 l -66,0 z"
       id="path3846"
       style="opacity:0.5;color:#000000;fill:url(#linearGradient3856);fill-opacity:1;fill-rule:nonzero;stroke:none;stroke-width:1;marker:none;visibility:visible;display:inline;overflow:visible;enable-background:accumulate" />
    <rect
       width="68"
       height="28"
       rx="1"
       ry="1"
       x="14"
       y="14"
       id="rect3830"
       style="color:#000000;fill:url(#linearGradient3840);fill-opacity:1;fill-rule:nonzero;stroke:none;stroke-width:1;marker:none;visibility:visible;display:inline;overflow:visible;enable-background:accumulate" />
    <path
       d="m 15,46.96875 c -1.660749,0 -3.03125,1.370501 -3.03125,3.03125 l 0,28 c 0,1.660749 1.370501,3.03125 3.03125,3.03125 l 66,0 c 1.660749,0 3.03125,-1.370501 3.03125,-3.03125 l 0,-28 c 0,-1.660749 -1.370501,-3.03125 -3.03125,-3.03125 z"
       inkscape:connector-curvature="0"
       id="path3923"
       style="opacity:0.05;color:#000000;fill:url(#linearGradient3925);fill-opacity:1;fill-rule:nonzero;stroke:none;stroke-width:1;marker:none;visibility:visible;display:inline;overflow:visible;enable-background:accumulate" />
    <path
       d="m 15,45.96875 c -1.660749,0 -3.03125,1.370501 -3.03125,3.03125 l 0,28 c 0,1.660749 1.370501,3.03125 3.03125,3.03125 l 66,0 c 1.660749,0 3.03125,-1.370501 3.03125,-3.03125 l 0,-28 c 0,-1.660749 -1.370501,-3.03125 -3.03125,-3.03125 z"
       inkscape:connector-curvature="0"
       id="path3918"
       style="opacity:0.1;color:#000000;fill:url(#linearGradient3931);fill-opacity:1;fill-rule:nonzero;stroke:none;stroke-width:1;marker:none;visibility:visible;display:inline;overflow:visible;enable-background:accumulate" />
    <path
       d="m 15,46.96875 c -1.10119,0 -2.03125,0.93006 -2.03125,2.03125 l 0,28 c 0,1.10119 0.93006,2.03125 2.03125,2.03125 l 66,0 c 1.10119,0 2.03125,-0.93006 2.03125,-2.03125 l 0,-28 c 0,-1.10119 -0.93006,-2.03125 -2.03125,-2.03125 z"
       inkscape:connector-curvature="0"
       id="path3913"
       style="opacity:0.5;color:#000000;fill:url(#linearGradient3915);fill-opacity:1;fill-rule:nonzero;stroke:none;stroke-width:1;marker:none;visibility:visible;display:inline;overflow:visible;enable-background:accumulate" />
    <rect
       width="68"
       height="30"
       rx="1"
       ry="1"
       x="14"
       y="48"
       id="rect3832"
       style="color:#000000;fill:url(#linearGradient3872);fill-opacity:1;fill-rule:nonzero;stroke:none;stroke-width:1;marker:none;visibility:visible;display:inline;overflow:visible;enable-background:accumulate" />
    <path
       d="m 15,14 c -0.554,0 -1,0.446 -1,1 l 0,26 c 0,0.554 0.446,1 1,1 l 66,0 c 0.554,0 1,-0.446 1,-1 l 0,-26 c 0,-0.554 -0.446,-1 -1,-1 z m 0,0.90625 66,0 c 0.06312,0 0.09375,0.03063 0.09375,0.09375 l 0,26 c 0,0.06312 -0.03063,0.09375 -0.09375,0.09375 l -66,0 c -0.06312,0 -0.09375,-0.03063 -0.09375,-0.09375 l 0,-26 c 0,-0.06312 0.03063,-0.09375 0.09375,-0.09375 z"
       inkscape:connector-curvature="0"
       id="rect3892"
       style="opacity:0.7;color:#000000;fill:url(#linearGradient3911);fill-opacity:1;fill-rule:nonzero;stroke:none;stroke-width:1;marker:none;visibility:visible;display:inline;overflow:visible;enable-background:accumulate" />
    <path
       d="m 15,48 c -0.554,0 -1,0.446 -1,1 l 0,28 c 0,0.554 0.446,1 1,1 l 66,0 c 0.554,0 1,-0.446 1,-1 l 0,-28 c 0,-0.554 -0.446,-1 -1,-1 z m 0,0.90625 66,0 c 0.06312,0 0.09375,0.03063 0.09375,0.09375 l 0,28 c 0,0.06312 -0.03063,0.09375 -0.09375,0.09375 l -66,0 c -0.06312,0 -0.09375,-0.03063 -0.09375,-0.09375 l 0,-28 c 0,-0.06312 0.03063,-0.09375 0.09375,-0.09375 z"
       inkscape:connector-curvature="0"
       id="path3927"
       style="opacity:0.7;color:#000000;fill:url(#linearGradient3929);fill-opacity:1;fill-rule:nonzero;stroke:none;stroke-width:1;marker:none;visibility:visible;display:inline;overflow:visible;enable-background:accumulate" />
    <path
       d="m 38,63 2,7 20,0 -2,-6.928203"
       inkscape:connector-curvature="0"
       id="path3873"
       style="opacity:0.25;fill:none;stroke:url(#linearGradient3875);stroke-width:3;stroke-linecap:butt;stroke-linejoin:round;stroke-miterlimit:4;stroke-opacity:1;stroke-dasharray:none;display:inline;filter:url(#filter4020)" />
    <g
       transform="translate(0,5)"
       id="g4054"
       style="opacity:0.2;display:inline;filter:url(#filter4078)">
      <path
         d="m 37,21.96875 c -1.114316,0 -2.03125,0.916934 -2.03125,2.03125 l 0,1 0,1 0,2 0,1 c 0,1.114316 0.916934,2.03125 2.03125,2.03125 l 22,0 c 1.114316,0 2.03125,-0.916934 2.03125,-2.03125 l 0,-1 0,-2 0,-1 0,-1 c 0,-1.114316 -0.916934,-2.03125 -2.03125,-2.03125 l -2,0 c -1.114316,0 -2.03125,0.916934 -2.03125,2.03125 l 0,0.96875 -0.96875,0 -12.96875,0 0,-0.96875 c 0,-1.114316 -0.916934,-2.03125 -2.03125,-2.03125 l -2,0 z"
         transform="matrix(1,0,0,-1,0,45)"
         id="path4046"
         style="color:#000000;fill:url(#linearGradient4060);fill-opacity:1;fill-rule:nonzero;stroke:none;stroke-width:1;marker:none;visibility:visible;display:inline;overflow:visible;enable-background:accumulate" />
      <path
         d="m 37,22 c -0.554,0 -1,-0.446 -1,-1 l 0,-1 0,-1 0,-2 0,-1 c 0,-0.554 0.446,-1 1,-1 l 22,0 c 0.554,0 1,0.446 1,1 l 0,1 0,2 0,1 0,1 c 0,0.554 -0.446,1 -1,1 l -2,0 c -0.554,0 -1,-0.446 -1,-1 l 0,-1 c 0,-0.554 -0.446,-1 -1,-1 l -1,0 -13,0 c -0.554,0 -1,0.446 -1,1 l 0,1 c 0,0.554 -0.446,1 -1,1 l -2,0 z"
         inkscape:connector-curvature="0"
         id="path4048"
         style="color:#000000;fill:url(#linearGradient4058);fill-opacity:1;fill-rule:nonzero;stroke:none;stroke-width:1;marker:none;visibility:visible;display:inline;overflow:visible;enable-background:accumulate" />
    </g>
    <path
       d="m 38,29 2,7 20,0 -2,-6.928203"
       inkscape:connector-curvature="0"
       id="path4006"
       style="opacity:0.25;fill:none;stroke:url(#linearGradient3871);stroke-width:3;stroke-linecap:butt;stroke-linejoin:round;stroke-miterlimit:4;stroke-opacity:1;stroke-dasharray:none;display:inline;filter:url(#filter4020)" />
    <path
       d="m 37,21.96875 c -1.114316,0 -2.03125,0.916934 -2.03125,2.03125 l 0,1 0,1 0,2 0,1 c 0,1.114316 0.916934,2.03125 2.03125,2.03125 l 22,0 c 1.114316,0 2.03125,-0.916934 2.03125,-2.03125 l 0,-1 0,-2 0,-1 0,-1 c 0,-1.114316 -0.916934,-2.03125 -2.03125,-2.03125 l -2,0 c -1.114316,0 -2.03125,0.916934 -2.03125,2.03125 l 0,0.96875 -0.96875,0 -12.96875,0 0,-0.96875 c 0,-1.114316 -0.916934,-2.03125 -2.03125,-2.03125 l -2,0 z"
       transform="translate(0,2)"
       id="path3994"
       style="color:#000000;fill:url(#linearGradient4004);fill-opacity:1;fill-rule:nonzero;stroke:none;stroke-width:1;marker:none;visibility:visible;display:inline;overflow:visible;enable-background:accumulate" />
    <path
       d="m 37,25 c -0.554,0 -1,0.446 -1,1 l 0,1 0,1 0,2 0,1 c 0,0.554 0.446,1 1,1 l 22,0 c 0.554,0 1,-0.446 1,-1 l 0,-1 0,-2 0,-1 0,-1 c 0,-0.554 -0.446,-1 -1,-1 l -2,0 c -0.554,0 -1,0.446 -1,1 l 0,1 c 0,0.554 -0.446,1 -1,1 l -1,0 -13,0 c -0.554,0 -1,-0.446 -1,-1 l 0,-1 c 0,-0.554 -0.446,-1 -1,-1 l -2,0 z"
       inkscape:connector-curvature="0"
       id="rect3934"
       style="color:#000000;fill:url(#linearGradient3955);fill-opacity:1;fill-rule:nonzero;stroke:none;stroke-width:1;marker:none;visibility:visible;display:inline;overflow:visible;enable-background:accumulate" />
    <g
       transform="translate(0,39)"
       id="g4082"
       style="opacity:0.2;display:inline;filter:url(#filter4078)">
      <path
         d="m 37,21.96875 c -1.114316,0 -2.03125,0.916934 -2.03125,2.03125 l 0,1 0,1 0,2 0,1 c 0,1.114316 0.916934,2.03125 2.03125,2.03125 l 22,0 c 1.114316,0 2.03125,-0.916934 2.03125,-2.03125 l 0,-1 0,-2 0,-1 0,-1 c 0,-1.114316 -0.916934,-2.03125 -2.03125,-2.03125 l -2,0 c -1.114316,0 -2.03125,0.916934 -2.03125,2.03125 l 0,0.96875 -0.96875,0 -12.96875,0 0,-0.96875 c 0,-1.114316 -0.916934,-2.03125 -2.03125,-2.03125 l -2,0 z"
         transform="matrix(1,0,0,-1,0,45)"
         id="path4084"
         style="color:#000000;fill:url(#linearGradient4094);fill-opacity:1;fill-rule:nonzero;stroke:none;stroke-width:1;marker:none;visibility:visible;display:inline;overflow:visible;enable-background:accumulate" />
      <path
         d="m 37,22 c -0.554,0 -1,-0.446 -1,-1 l 0,-1 0,-1 0,-2 0,-1 c 0,-0.554 0.446,-1 1,-1 l 22,0 c 0.554,0 1,0.446 1,1 l 0,1 0,2 0,1 0,1 c 0,0.554 -0.446,1 -1,1 l -2,0 c -0.554,0 -1,-0.446 -1,-1 l 0,-1 c 0,-0.554 -0.446,-1 -1,-1 l -1,0 -13,0 c -0.554,0 -1,0.446 -1,1 l 0,1 c 0,0.554 -0.446,1 -1,1 l -2,0 z"
         inkscape:connector-curvature="0"
         id="path4086"
         style="color:#000000;fill:url(#linearGradient4096);fill-opacity:1;fill-rule:nonzero;stroke:none;stroke-width:1;marker:none;visibility:visible;display:inline;overflow:visible;enable-background:accumulate" />
    </g>
    <path
       d="m 37,21.96875 c -1.114316,0 -2.03125,0.916934 -2.03125,2.03125 l 0,1 0,1 0,2 0,1 c 0,1.114316 0.916934,2.03125 2.03125,2.03125 l 22,0 c 1.114316,0 2.03125,-0.916934 2.03125,-2.03125 l 0,-1 0,-2 0,-1 0,-1 c 0,-1.114316 -0.916934,-2.03125 -2.03125,-2.03125 l -2,0 c -1.114316,0 -2.03125,0.916934 -2.03125,2.03125 l 0,0.96875 -0.96875,0 -12.96875,0 0,-0.96875 c 0,-1.114316 -0.916934,-2.03125 -2.03125,-2.03125 l -2,0 z"
       transform="translate(0,36)"
       id="path4090"
       style="color:#000000;fill:url(#linearGradient4098);fill-opacity:1;fill-rule:nonzero;stroke:none;stroke-width:1;marker:none;visibility:visible;display:inline;overflow:visible;enable-background:accumulate" />
    <path
       d="m 37,59 c -0.554,0 -1,0.446 -1,1 l 0,1 0,1 0,2 0,1 c 0,0.554 0.446,1 1,1 l 22,0 c 0.554,0 1,-0.446 1,-1 l 0,-1 0,-2 0,-1 0,-1 c 0,-0.554 -0.446,-1 -1,-1 l -2,0 c -0.554,0 -1,0.446 -1,1 l 0,1 c 0,0.554 -0.446,1 -1,1 l -1,0 -13,0 c -0.554,0 -1,-0.446 -1,-1 l 0,-1 c 0,-0.554 -0.446,-1 -1,-1 l -2,0 z"
       inkscape:connector-curvature="0"
       id="path4092"
       style="color:#000000;fill:url(#linearGradient4100);fill-opacity:1;fill-rule:nonzero;stroke:none;stroke-width:1;marker:none;visibility:visible;display:inline;overflow:visible;enable-background:accumulate" />
    <path
       d="M 120.78125,6.125 C 118.04223,6.6826484 116,9.0915 116,12 l 0,68 c 0,3.324 2.676,6 6,6 l 72,0 c 3.324,0 6,-2.676 6,-6 l 0,-68 c 0,-2.9085 -2.04223,-5.3173516 -4.78125,-5.875 2.20512,0.5362071 3.8125,2.4908437 3.8125,4.875 l 0,68 c 0,2.80489 -2.22636,5.03125 -5.03125,5.03125 l -72,0 c -2.80489,0 -5.03125,-2.22636 -5.03125,-5.03125 l 0,-68 c 0,-2.3841563 1.60738,-4.3387929 3.8125,-4.875 z"
       inkscape:connector-curvature="0"
       id="rect4359"
       style="opacity:0.2;fill:url(#radialGradient4375);fill-opacity:1;fill-rule:nonzero;stroke:none" />
    <path
       d="M 12,86 C 8.676,86 6,83.324 6,80 L 6,12 C 6,8.676 8.676,6 12,6 l 72,0 c 3.324,0 6,2.676 6,6 l 0,68 c 0,3.324 -2.676,6 -6,6 z m 0,-0.96875 72,0 c 2.80489,0 5.03125,-2.22636 5.03125,-5.03125 l 0,-68 C 89.03125,9.19511 86.80489,6.96875 84,6.96875 l -72,0 C 9.1951102,6.96875 6.96875,9.19511 6.96875,12 l 0,68 c 0,2.80489 2.2263602,5.03125 5.03125,5.03125 z"
       inkscape:connector-curvature="0"
       id="rect4377"
       style="opacity:0.4;fill:url(#linearGradient4390);fill-opacity:1;fill-rule:nonzero;stroke:none" />
    <path
       d="m 6,78 0,2 c 0,3.324 2.676,6 6,6 l 72,0 c 3.324,0 6,-2.676 6,-6 l 0,-2 c 0,3.324 -2.676,6 -6,6 L 12,84 C 8.676,84 6,81.324 6,78 z"
       inkscape:connector-curvature="0"
       id="rect4414"
       style="opacity:0.1;fill:url(#linearGradient4429);fill-opacity:1;fill-rule:nonzero;stroke:none" />
    <path
       d="m 6,100 0,1 c 0,3.324 2.676,6 6,6 l 72,0 c 3.324,0 6,-2.676 6,-6 l 0,-1 c 0,3.324 -2.676,6 -6,6 l -72,0 c -3.324,0 -6,-2.676 -6,-6 z"
       inkscape:connector-curvature="0"
       id="path4412"
       style="opacity:0.15;fill:#000000;fill-opacity:1;fill-rule:nonzero;stroke:none" />
  </g>
  <g
     id="layer4"
     style="display:inline">
    <path
       d="m 6,80 0,4 c 0,3.324 2.676,6 6,6 l 72,0 c 3.324,0 6,-2.676 6,-6 l 0,-4 c 0,3.324 -2.676,6 -6,6 L 12,86 C 8.676,86 6,83.324 6,80 z"
       inkscape:connector-curvature="0"
       id="path3888"
       style="fill:url(#linearGradient3228);fill-opacity:1;fill-rule:nonzero;stroke:none;display:inline" />
    <path
       d="m 6,82 0,2 c 0,3.324 2.676,6 6,6 l 72,0 c 3.324,0 6,-2.676 6,-6 l 0,-2 c 0,3.324 -2.676,6 -6,6 L 12,88 C 8.676,88 6,85.324 6,82 z"
       inkscape:connector-curvature="0"
       id="rect4345"
       style="opacity:0.1;color:#000000;fill:#000000;fill-opacity:1;fill-rule:nonzero;stroke:none;stroke-width:1.5;marker:none;visibility:visible;display:inline;overflow:visible;enable-background:accumulate" />
    <path
       d="m 6,83 0,1 c 0,3.324 2.676,6 6,6 l 72,0 c 3.324,0 6,-2.676 6,-6 l 0,-1 c 0,3.324 -2.676,6 -6,6 L 12,89 C 8.676,89 6,86.324 6,83 z"
       inkscape:connector-curvature="0"
       id="rect4336"
       style="opacity:0.15;color:#000000;fill:#000000;fill-opacity:1;fill-rule:nonzero;stroke:none;stroke-width:1.5;marker:none;visibility:visible;display:inline;overflow:visible;enable-background:accumulate" />
  </g>
  <g
     id="layer5"
     style="display:none">
    <rect
       width="66"
       height="62"
       rx="12"
       ry="12"
       x="15"
       y="15"
       clip-path="url(#clipPath4355)"
       id="rect3171"
       style="opacity:0.1;fill:url(#linearGradient3613);fill-opacity:1;fill-rule:nonzero;stroke:#ffffff;stroke-width:0.5;stroke-linecap:round;stroke-linejoin:miter;stroke-miterlimit:4;stroke-opacity:1;stroke-dasharray:none;stroke-dashoffset:0;filter:url(#filter3794)" />
  </g>
  <g
     id="layer6" />
</svg>
