<?xml version="1.0" encoding="UTF-8" standalone="no"?>
<!-- Created with Inkscape (http://www.inkscape.org/) -->

<svg
   xmlns:dc="http://purl.org/dc/elements/1.1/"
   xmlns:cc="http://creativecommons.org/ns#"
   xmlns:rdf="http://www.w3.org/1999/02/22-rdf-syntax-ns#"
   xmlns:svg="http://www.w3.org/2000/svg"
   xmlns="http://www.w3.org/2000/svg"
   xmlns:xlink="http://www.w3.org/1999/xlink"
   xmlns:inkscape="http://www.inkscape.org/namespaces/inkscape"
   version="1.0"
   width="96"
   height="96"
   id="svg2408">
  <defs
     id="defs2410">
    <linearGradient
       id="linearGradient4384">
      <stop
         id="stop4386"
         style="stop-color:#ffffff;stop-opacity:1"
         offset="0" />
      <stop
         id="stop4388"
         style="stop-color:#ffffff;stop-opacity:0"
         offset="1" />
    </linearGradient>
    <linearGradient
       id="linearGradient4367">
      <stop
         id="stop4369"
         style="stop-color:#ffffff;stop-opacity:0.71755725"
         offset="0" />
      <stop
         id="stop4371"
         style="stop-color:#ffffff;stop-opacity:1"
         offset="1" />
    </linearGradient>
    <linearGradient
       x1="45.447727"
       y1="92.539597"
       x2="45.447727"
       y2="7.0165396"
       id="ButtonShadow"
       gradientUnits="userSpaceOnUse"
       gradientTransform="scale(1.0058652,0.994169)">
      <stop
         id="stop3750"
         style="stop-color:#000000;stop-opacity:1"
         offset="0" />
      <stop
         id="stop3752"
         style="stop-color:#000000;stop-opacity:0.58823532"
         offset="1" />
    </linearGradient>
    <linearGradient
       id="linearGradient3737">
      <stop
         id="stop3739"
         style="stop-color:#ffffff;stop-opacity:1"
         offset="0" />
      <stop
         id="stop3741"
         style="stop-color:#ffffff;stop-opacity:0"
         offset="1" />
    </linearGradient>
    <linearGradient
       id="linearGradient3700">
      <stop
         id="stop3702"
         style="stop-color:#2276c5;stop-opacity:1"
         offset="0" />
      <stop
         id="stop3704"
         style="stop-color:#68baf4;stop-opacity:1"
         offset="1" />
    </linearGradient>
    <filter
       color-interpolation-filters="sRGB"
       id="filter3174">
      <feGaussianBlur
         id="feGaussianBlur3176"
         stdDeviation="1.71" />
    </filter>
    <filter
       x="-0.192"
       y="-0.192"
       width="1.3839999"
       height="1.3839999"
       color-interpolation-filters="sRGB"
       id="filter3794">
      <feGaussianBlur
         id="feGaussianBlur3796"
         stdDeviation="5.28" />
    </filter>
    <linearGradient
       x1="48"
       y1="20.220806"
       x2="48"
       y2="138.66119"
       id="linearGradient3613"
       xlink:href="#linearGradient3737"
       gradientUnits="userSpaceOnUse" />
    <linearGradient
       x1="48"
       y1="90"
       x2="48"
       y2="5.9877172"
       id="linearGradient3617"
       xlink:href="#linearGradient3700"
       gradientUnits="userSpaceOnUse"
       gradientTransform="translate(110,0)" />
    <linearGradient
       x1="45.447727"
       y1="92.539597"
       x2="45.447727"
       y2="7.0165396"
       id="ButtonShadow-0"
       gradientUnits="userSpaceOnUse"
       gradientTransform="matrix(1.0058652,0,0,0.994169,100,0)">
      <stop
         id="stop3750-8"
         style="stop-color:#000000;stop-opacity:1"
         offset="0" />
      <stop
         id="stop3752-5"
         style="stop-color:#000000;stop-opacity:0.58823532"
         offset="1" />
    </linearGradient>
    <linearGradient
       x1="32.251034"
       y1="6.1317081"
       x2="32.251034"
       y2="90.238609"
       id="linearGradient3780"
       xlink:href="#ButtonShadow-0"
       gradientUnits="userSpaceOnUse"
       gradientTransform="matrix(1.0238095,0,0,1.0119048,-1.1428571,-98.071429)" />
    <linearGradient
       x1="32.251034"
       y1="6.1317081"
       x2="32.251034"
       y2="90.238609"
       id="linearGradient3772"
       xlink:href="#ButtonShadow-0"
       gradientUnits="userSpaceOnUse"
       gradientTransform="matrix(1.0238095,0,0,1.0119048,-1.1428571,-98.071429)" />
    <linearGradient
       x1="32.251034"
       y1="6.1317081"
       x2="32.251034"
       y2="90.238609"
       id="linearGradient3725"
       xlink:href="#ButtonShadow-0"
       gradientUnits="userSpaceOnUse"
       gradientTransform="matrix(1.0238095,0,0,1.0119048,-1.1428571,-98.071429)" />
    <linearGradient
       x1="32.251034"
       y1="6.1317081"
       x2="32.251034"
       y2="90.238609"
       id="linearGradient3721"
       xlink:href="#ButtonShadow-0"
       gradientUnits="userSpaceOnUse"
       gradientTransform="translate(0,-97)" />
    <linearGradient
       x1="32.251034"
       y1="6.1317081"
       x2="32.251034"
       y2="90.238609"
       id="linearGradient3026"
       xlink:href="#ButtonShadow-0"
       gradientUnits="userSpaceOnUse"
       gradientTransform="matrix(1.0238095,0,0,1.0119048,-1.1428571,-98.071429)" />
    <clipPath
       id="clipPath4355">
      <rect
         width="84"
         height="80"
         rx="6"
         ry="6"
         x="6"
         y="6"
         id="rect4357"
         style="fill:#ffffff;fill-opacity:1;fill-rule:nonzero;stroke:none" />
    </clipPath>
    <radialGradient
       cx="48"
       cy="87.792389"
       r="42"
       fx="48"
       fy="87.792389"
       id="radialGradient4375"
       xlink:href="#linearGradient4367"
       gradientUnits="userSpaceOnUse"
       gradientTransform="matrix(1,-6.7114942e-8,8.4282233e-8,1.2557894,109.99999,-24.505592)" />
    <linearGradient
       x1="48"
       y1="88"
       x2="48"
       y2="-40"
       id="linearGradient4390"
       xlink:href="#linearGradient4384"
       gradientUnits="userSpaceOnUse"
       gradientTransform="matrix(1,0,0,-1,0,92)" />
    <linearGradient
       x1="48"
       y1="82"
       x2="112.12357"
       y2="82.454597"
       id="linearGradient4429"
       xlink:href="#linearGradient4384"
       gradientUnits="userSpaceOnUse"
       spreadMethod="reflect" />
    <linearGradient
       id="linearGradient3892">
      <stop
         id="stop3894"
         style="stop-color:#000000;stop-opacity:0.58823532"
         offset="0" />
      <stop
         id="stop3896"
         style="stop-color:#000000;stop-opacity:0.47058824"
         offset="0.11780351" />
      <stop
         id="stop3898"
         style="stop-color:#000000;stop-opacity:0.39215687"
         offset="0.23809524" />
      <stop
         id="stop3900"
         style="stop-color:#000000;stop-opacity:0.3137255"
         offset="1" />
    </linearGradient>
    <linearGradient
       x1="90"
       y1="88"
       x2="48"
       y2="88"
       id="linearGradient3228"
       xlink:href="#linearGradient3892"
       gradientUnits="userSpaceOnUse"
       spreadMethod="reflect" />
    <linearGradient
       x1="49.978714"
       y1="82.681816"
       x2="49.978714"
       y2="-5.7324624"
       id="linearGradient5313"
       xlink:href="#linearGradient3737-3"
       gradientUnits="userSpaceOnUse" />
    <linearGradient
       id="linearGradient3737-3">
      <stop
         id="stop3739-6"
         style="stop-color:#ffffff;stop-opacity:1"
         offset="0" />
      <stop
         id="stop3741-5"
         style="stop-color:#ffffff;stop-opacity:0"
         offset="1" />
    </linearGradient>
    <clipPath
       id="clipPath3750">
      <rect
         width="84"
         height="84"
         rx="6"
         ry="6"
         x="6"
         y="6"
         id="rect3752"
         style="fill:#ffffff;fill-opacity:1;fill-rule:nonzero;stroke:none" />
    </clipPath>
    <filter
       x="-0.28534135"
       y="-0.20178936"
       width="1.5706826"
       height="1.4035788"
       color-interpolation-filters="sRGB"
       id="filter3772">
      <feGaussianBlur
         id="feGaussianBlur3774"
         stdDeviation="7.6796946" />
    </filter>
    <linearGradient
       x1="47.753529"
       y1="90.218231"
       x2="47.753529"
       y2="6.3465385"
       id="linearGradient5239"
       xlink:href="#linearGradient5134"
       gradientUnits="userSpaceOnUse" />
    <linearGradient
       id="linearGradient5134">
      <stop
         id="stop5136"
         style="stop-color:#5a5a5a;stop-opacity:1"
         offset="0" />
      <stop
         id="stop5138"
         style="stop-color:#909090;stop-opacity:1"
         offset="1" />
    </linearGradient>
    <clipPath
       id="clipPath5288">
      <rect
         width="84"
         height="84"
         rx="6"
         ry="6"
         x="16"
         y="6"
         id="rect5290"
         style="fill:#ffffff;fill-opacity:1;fill-rule:nonzero;stroke:none" />
    </clipPath>
    <filter
       x="-0.12"
       y="-0.12"
       width="1.24"
       height="1.24"
       color-interpolation-filters="sRGB"
       id="filter5300">
      <feGaussianBlur
         id="feGaussianBlur5302"
         stdDeviation="4.2" />
    </filter>
    <linearGradient
       id="linearGradient3619">
      <stop
         id="stop3621"
         style="stop-color:#d2d2d2;stop-opacity:1"
         offset="0" />
      <stop
         id="stop3623"
         style="stop-color:#f0f0f0;stop-opacity:1"
         offset="1" />
    </linearGradient>
    <linearGradient
       x1="47.753529"
       y1="90.218231"
       x2="47.753529"
       y2="6.3465385"
       id="linearGradient3142"
       xlink:href="#linearGradient3619"
       gradientUnits="userSpaceOnUse" />
    <radialGradient
       cx="48"
       cy="90.171875"
       r="42"
       fx="48"
       fy="90.171875"
       id="radialGradient3619"
       xlink:href="#linearGradient3737-2"
       gradientUnits="userSpaceOnUse"
       gradientTransform="matrix(1.1573129,0,0,0.99590774,-7.551021,0.1971319)" />
    <linearGradient
       id="linearGradient3737-2">
      <stop
         id="stop3739-67"
         style="stop-color:#ffffff;stop-opacity:1"
         offset="0" />
      <stop
         id="stop3741-56"
         style="stop-color:#ffffff;stop-opacity:0"
         offset="1" />
    </linearGradient>
    <clipPath
       id="clipPath3167">
      <path
         d="M 12,6 C 8.676,6 6,8.676 6,12 l 0,72 c 0,3.324 2.676,6 6,6 l 72,0 c 3.324,0 6,-2.676 6,-6 L 90,12 C 90,8.676 87.324,6 84,6 z m 7.5,9 57,0 c 2.493,0 4.5,2.007 4.5,4.5 l 0,53 c 0,2.493 -2.007,4.5 -4.5,4.5 l -57,0 C 17.007,77 15,74.993 15,72.5 l 0,-53 C 15,17.007 17.007,15 19.5,15 z"
         inkscape:connector-curvature="0"
         id="path3169"
         style="fill:#ffffff;fill-opacity:1;fill-rule:nonzero;stroke:none" />
    </clipPath>
    <linearGradient
       x1="55.619888"
       y1="35.701611"
       x2="39.929382"
       y2="35.701611"
       id="linearGradient5492"
       xlink:href="#linearGradient5274"
       gradientUnits="userSpaceOnUse"
       gradientTransform="matrix(-0.13333333,0,0,1.0909091,62.35643,0.6363628)" />
    <linearGradient
       id="linearGradient5274">
      <stop
         id="stop5276"
         style="stop-color:#000000;stop-opacity:1"
         offset="0" />
      <stop
         id="stop5278"
         style="stop-color:#000000;stop-opacity:0"
         offset="1" />
    </linearGradient>
    <linearGradient
       x1="55.619888"
       y1="35.701611"
       x2="39.929382"
       y2="35.701611"
       id="linearGradient5488"
       xlink:href="#linearGradient5274"
       gradientUnits="userSpaceOnUse"
       gradientTransform="matrix(0.13333333,0,0,1.0909091,33.6,0.6363628)" />
    <linearGradient
       x1="46.79694"
       y1="31.65823"
       x2="46.79694"
       y2="42.515114"
       id="linearGradient5439"
       xlink:href="#linearGradient3693"
       gradientUnits="userSpaceOnUse"
       gradientTransform="matrix(0.86666667,0,0,1.3636363,6.4,-8.4545432)" />
    <linearGradient
       id="linearGradient3693">
      <stop
         id="stop3695"
         style="stop-color:#8d8d8d;stop-opacity:1"
         offset="0" />
      <stop
         id="stop3697"
         style="stop-color:#ffffff;stop-opacity:1"
         offset="0.25843728" />
      <stop
         id="stop3699"
         style="stop-color:#686868;stop-opacity:1"
         offset="0.54385865" />
      <stop
         id="stop3711"
         style="stop-color:#b1b1b1;stop-opacity:1"
         offset="1" />
    </linearGradient>
    <linearGradient
       x1="50.498287"
       y1="42.38448"
       x2="50.498287"
       y2="53.953835"
       id="linearGradient3738"
       xlink:href="#linearGradient3731"
       gradientUnits="userSpaceOnUse"
       gradientTransform="matrix(1,0,0,0.88235294,2.8610231e-8,2.2941168)" />
    <linearGradient
       id="linearGradient3731">
      <stop
         id="stop3733"
         style="stop-color:#4d4d4d;stop-opacity:1"
         offset="0" />
      <stop
         id="stop3735"
         style="stop-color:#878787;stop-opacity:1"
         offset="1" />
    </linearGradient>
    <linearGradient
       x1="34.15395"
       y1="33.945866"
       x2="34.15395"
       y2="46.010723"
       id="linearGradient5469"
       xlink:href="#linearGradient5463"
       gradientUnits="userSpaceOnUse"
       gradientTransform="matrix(0.97916667,0,0,1,1.489583,0.9999998)" />
    <linearGradient
       id="linearGradient5463">
      <stop
         id="stop5465"
         style="stop-color:#d40000;stop-opacity:1"
         offset="0" />
      <stop
         id="stop5471"
         style="stop-color:#ff8c67;stop-opacity:1"
         offset="0.33869192" />
      <stop
         id="stop5473"
         style="stop-color:#d40000;stop-opacity:1"
         offset="0.60884869" />
      <stop
         id="stop5467"
         style="stop-color:#6e0000;stop-opacity:1"
         offset="1" />
    </linearGradient>
    <linearGradient
       x1="46.79694"
       y1="31.771585"
       x2="46.79694"
       y2="36.256687"
       id="linearGradient5502"
       xlink:href="#linearGradient5433"
       gradientUnits="userSpaceOnUse"
       gradientTransform="matrix(0.86666667,0,0,1.7454545,-14.6,-16.981815)" />
    <linearGradient
       id="linearGradient5433">
      <stop
         id="stop5435"
         style="stop-color:#8d8d8d;stop-opacity:1"
         offset="0" />
      <stop
         id="stop5441"
         style="stop-color:#ffffff;stop-opacity:1"
         offset="0.32500392" />
      <stop
         id="stop5443"
         style="stop-color:#686868;stop-opacity:1"
         offset="0.5802148" />
      <stop
         id="stop5437"
         style="stop-color:#b3b3b3;stop-opacity:1"
         offset="1" />
    </linearGradient>
    <filter
       color-interpolation-filters="sRGB"
       id="filter3775">
      <feGaussianBlur
         id="feGaussianBlur3777"
         stdDeviation="0.4875" />
    </filter>
    <linearGradient
       x1="50.252888"
       y1="20.248539"
       x2="50.252888"
       y2="75.615822"
       id="linearGradient5371"
       xlink:href="#linearGradient5420"
       gradientUnits="userSpaceOnUse"
       gradientTransform="translate(0,-2)" />
    <linearGradient
       id="linearGradient5420">
      <stop
         id="stop5422"
         style="stop-color:#525252;stop-opacity:1"
         offset="0" />
      <stop
         id="stop5498"
         style="stop-color:#cecece;stop-opacity:1"
         offset="0.21238038" />
      <stop
         id="stop5424"
         style="stop-color:#fdfdfd;stop-opacity:1"
         offset="0.60427487" />
      <stop
         id="stop5428"
         style="stop-color:#7c7c7c;stop-opacity:1"
         offset="0.74339777" />
      <stop
         id="stop5426"
         style="stop-color:#040404;stop-opacity:1"
         offset="1" />
    </linearGradient>
    <linearGradient
       id="linearGradient3737-28">
      <stop
         id="stop3739-8"
         style="stop-color:#ffffff;stop-opacity:1"
         offset="0" />
      <stop
         id="stop3741-8"
         style="stop-color:#ffffff;stop-opacity:0"
         offset="1" />
    </linearGradient>
    <linearGradient
       x1="48.961185"
       y1="78.065437"
       x2="48.961185"
       y2="18.06966"
       id="linearGradient3291"
       xlink:href="#linearGradient3737-28"
       gradientUnits="userSpaceOnUse" />
  </defs>
  <metadata
     id="metadata2413">
    <rdf:RDF>
      <cc:Work
         rdf:about="">
        <dc:format>image/svg+xml</dc:format>
        <dc:type
           rdf:resource="http://purl.org/dc/dcmitype/StillImage" />
        <dc:title />
      </cc:Work>
    </rdf:RDF>
  </metadata>
  <g
     id="layer2"
     style="display:none">
    <rect
       width="86"
       height="85"
       rx="6"
       ry="6"
       x="5"
       y="7"
       id="rect3745"
       style="opacity:0.9;fill:url(#ButtonShadow);fill-opacity:1;fill-rule:nonzero;stroke:none;filter:url(#filter3174)" />
  </g>
  <g
     id="layer3"
     style="display:inline">
    <path
       d="m 12,-95.03125 c -5.5110903,0 -10.03125,4.52016 -10.03125,10.03125 l 0,71 c 0,5.5110902 4.5201598,10.03125 10.03125,10.03125 l 72,0 c 5.51109,0 10.03125,-4.5201597 10.03125,-10.03125 l 0,-71 c 0,-5.51109 -4.52016,-10.03125 -10.03125,-10.03125 l -72,0 z"
       transform="scale(1,-1)"
       id="path3786"
       style="opacity:0.07999998;fill:url(#linearGradient3026);fill-opacity:1;fill-rule:nonzero;stroke:none;display:inline" />
    <path
       d="m 12,-94.03125 c -4.971633,0 -9.03125,4.059617 -9.03125,9.03125 l 0,71 c 0,4.9716329 4.0596171,9.03125 9.03125,9.03125 l 72,0 c 4.971633,0 9.03125,-4.059617 9.03125,-9.03125 l 0,-71 c 0,-4.971633 -4.059617,-9.03125 -9.03125,-9.03125 l -72,0 z"
       transform="scale(1,-1)"
       id="path3778"
       style="opacity:0.1;fill:url(#linearGradient3780);fill-opacity:1;fill-rule:nonzero;stroke:none;display:inline" />
    <path
       d="m 12,-93 c -4.4091333,0 -8,3.590867 -8,8 l 0,71 c 0,4.4091333 3.5908667,8 8,8 l 72,0 c 4.409133,0 8,-3.5908667 8,-8 l 0,-71 c 0,-4.409133 -3.590867,-8 -8,-8 l -72,0 z"
       transform="scale(1,-1)"
       id="path3770"
       style="opacity:0.2;fill:url(#linearGradient3772);fill-opacity:1;fill-rule:nonzero;stroke:none;display:inline" />
    <rect
       width="86"
       height="85"
       rx="7"
       ry="7"
       x="5"
       y="-92"
       transform="scale(1,-1)"
       id="rect3723"
       style="opacity:0.3;fill:url(#linearGradient3725);fill-opacity:1;fill-rule:nonzero;stroke:none;display:inline" />
    <rect
       width="84"
       height="84"
       rx="6"
       ry="6"
       x="6"
       y="-91"
       transform="scale(1,-1)"
       id="rect3716"
       style="opacity:0.45;fill:url(#linearGradient3721);fill-opacity:1;fill-rule:nonzero;stroke:none;display:inline" />
  </g>
  <g
     id="layer1"
     style="display:inline">
    <rect
       width="84"
       height="84"
       rx="6"
       ry="6"
       x="116"
       y="6"
       id="rect2419"
       style="fill:url(#linearGradient3617);fill-opacity:1;fill-rule:nonzero;stroke:none" />
    <path
       d="M 120.78125,6.125 C 118.04223,6.6826484 116,9.0915 116,12 l 0,68 c 0,3.324 2.676,6 6,6 l 72,0 c 3.324,0 6,-2.676 6,-6 l 0,-68 c 0,-2.9085 -2.04223,-5.3173516 -4.78125,-5.875 2.20512,0.5362071 3.8125,2.4908437 3.8125,4.875 l 0,68 c 0,2.80489 -2.22636,5.03125 -5.03125,5.03125 l -72,0 c -2.80489,0 -5.03125,-2.22636 -5.03125,-5.03125 l 0,-68 c 0,-2.3841563 1.60738,-4.3387929 3.8125,-4.875 z"
       inkscape:connector-curvature="0"
       id="rect4359"
       style="opacity:0.2;fill:url(#radialGradient4375);fill-opacity:1;fill-rule:nonzero;stroke:none" />
    <path
       d="m 6,78 0,2 c 0,3.324 2.676,6 6,6 l 72,0 c 3.324,0 6,-2.676 6,-6 l 0,-2 c 0,3.324 -2.676,6 -6,6 L 12,84 C 8.676,84 6,81.324 6,78 z"
       inkscape:connector-curvature="0"
       id="rect4414"
       style="opacity:0.1;fill:url(#linearGradient4429);fill-opacity:1;fill-rule:nonzero;stroke:none" />
    <path
       d="m 6,100 0,1 c 0,3.324 2.676,6 6,6 l 72,0 c 3.324,0 6,-2.676 6,-6 l 0,-1 c 0,3.324 -2.676,6 -6,6 l -72,0 c -3.324,0 -6,-2.676 -6,-6 z"
       inkscape:connector-curvature="0"
       id="path4412"
       style="opacity:0.15;fill:#000000;fill-opacity:1;fill-rule:nonzero;stroke:none" />
    <path
       d="m 12,11.65625 c -0.281536,0 -0.34375,0.06221 -0.34375,0.34375 l 0,68 c 0,0.281536 0.06221,0.34375 0.34375,0.34375 l 72,0 c 0.281536,0 0.34375,-0.06221 0.34375,-0.34375 l 0,-68 c 0,-0.281536 -0.06221,-0.34375 -0.34375,-0.34375 z"
       inkscape:connector-curvature="0"
       id="path5319"
       style="fill:url(#linearGradient3142);fill-opacity:1;fill-rule:nonzero;stroke:none;display:inline" />
    <path
       d="m 22,6 c -3.324,0 -6,2.676 -6,6 l 0,72 c 0,3.324 2.676,6 6,6 l 72,0 c 3.324,0 6,-2.676 6,-6 l 0,-72 C 100,8.676 97.324,6 94,6 z m 8,10 56,0 c 2.216,0 4,1.784 4,4 l 0,52 c 0,2.216 -1.784,4 -4,4 l -56,0 c -2.216,0 -4,-1.784 -4,-4 l 0,-52 c 0,-2.216 1.784,-4 4,-4 z"
       inkscape:connector-curvature="0"
       transform="translate(-10,0)"
       clip-path="url(#clipPath5288)"
       id="path5282"
       style="opacity:0.7;fill:#000000;fill-opacity:1;fill-rule:nonzero;stroke:none;display:inline;filter:url(#filter5300)" />
    <path
       d="M 12,6 C 8.676,6 6,8.676 6,12 l 0,72 c 0,3.324 2.676,6 6,6 l 72,0 c 3.324,0 6,-2.676 6,-6 L 90,12 C 90,8.676 87.324,6 84,6 z m 8,10 56,0 c 2.216,0 4,1.784 4,4 l 0,52 c 0,2.216 -1.784,4 -4,4 l -56,0 c -2.216,0 -4,-1.784 -4,-4 l 0,-52 c 0,-2.216 1.784,-4 4,-4 z"
       inkscape:connector-curvature="0"
       id="rect2841"
       style="fill:url(#linearGradient5239);fill-opacity:1;fill-rule:nonzero;stroke:none;display:inline" />
    <path
       d="M 47.84375,2.40625 C 35.926729,2.4327652 24.276423,7.1298273 15.625,15.78125 L 47.9375,48.0625 59.75,3.96875 C 55.810646,2.913203 51.81609,2.3974116 47.84375,2.40625 z M 47.9375,48.0625 36.09375,92.1875 c 15.757417,4.222188 32.58977,-0.27727 44.125,-11.8125 L 47.9375,48.0625 z"
       inkscape:connector-curvature="0"
       clip-path="url(#clipPath3750)"
       id="path3740"
       style="opacity:0.4;fill:#ffffff;fill-opacity:1;stroke:none;display:inline;filter:url(#filter3772)" />
    <path
       d="m 20,14.96875 c -2.766322,0 -5.03125,2.264928 -5.03125,5.03125 l 0,52 c 0,2.766322 2.264928,5.03125 5.03125,5.03125 l 56,0 c 2.766322,0 5.03125,-2.264928 5.03125,-5.03125 l 0,-52 c 0,-2.766322 -2.264928,-5.03125 -5.03125,-5.03125 z M 20,16 76,16 c 2.216,0 4,1.784 4,4 l 0,52 c 0,2.216 -1.784,4 -4,4 l -56,0 c -2.216,0 -4,-1.784 -4,-4 l 0,-52 c 0,-2.216 1.784,-4 4,-4 z"
       inkscape:connector-curvature="0"
       id="path5246"
       style="opacity:0.8;fill:#333333;fill-opacity:1;stroke:none;display:inline" />
    <path
       d="m 20,13.03125 c -3.814344,0 -6.96875,3.154406 -6.96875,6.96875 l 0,52 c 0,3.814344 3.154406,6.96875 6.96875,6.96875 l 56,0 c 3.814344,0 6.96875,-3.154406 6.96875,-6.96875 l 0,-52 c 0,-3.814344 -3.154406,-6.96875 -6.96875,-6.96875 z m 0,2 56,0 c 2.732574,0 4.96875,2.236176 4.96875,4.96875 l 0,52 c 0,2.732574 -2.236176,4.96875 -4.96875,4.96875 l -56,0 c -2.732574,0 -4.96875,-2.236176 -4.96875,-4.96875 l 0,-52 c 0,-2.732574 2.236176,-4.96875 4.96875,-4.96875 z"
       inkscape:connector-curvature="0"
       id="path5253"
       style="opacity:0.4;fill:url(#linearGradient5313);fill-opacity:1;stroke:none;display:inline" />
    <path
       d="m 20,16 c -2.216,0 -4,1.784 -4,4 l 0,1 c 0,-2.216 1.784,-4 4,-4 l 56,0 c 2.216,0 4,1.784 4,4 l 0,-1 c 0,-2.216 -1.784,-4 -4,-4 l -56,0 z"
       inkscape:connector-curvature="0"
       id="path5304"
       style="opacity:0.2;fill:#000000;fill-opacity:1;stroke:none;display:inline" />
    <path
       d="m 20,17 c -2.216,0 -4,1.784 -4,4 l 0,1 c 0,-2.216 1.784,-4 4,-4 l 56,0 c 2.216,0 4,1.784 4,4 l 0,-1 c 0,-2.216 -1.784,-4 -4,-4 l -56,0 z"
       inkscape:connector-curvature="0"
       id="path5311"
       style="opacity:0.1;fill:#000000;fill-opacity:1;stroke:none;display:inline" />
    <path
       d="M 12,86 C 8.676,86 6,83.324 6,80 L 6,12 C 6,8.676 8.676,6 12,6 l 72,0 c 3.324,0 6,2.676 6,6 l 0,68 c 0,3.324 -2.676,6 -6,6 z m 0,-0.96875 72,0 c 2.80489,0 5.03125,-2.22636 5.03125,-5.03125 l 0,-68 C 89.03125,9.19511 86.80489,6.96875 84,6.96875 l -72,0 C 9.1951102,6.96875 6.96875,9.19511 6.96875,12 l 0,68 c 0,2.80489 2.2263602,5.03125 5.03125,5.03125 z"
       inkscape:connector-curvature="0"
       id="rect4377"
       style="opacity:0.4;fill:url(#linearGradient4390);fill-opacity:1;fill-rule:nonzero;stroke:none" />
  </g>
  <g
     id="layer7"
     style="display:inline">
    <path
       d="M 61,-47 -50,64 -48,66 63,-45 z m 4,4 -111,111 2,2 111,-111 z m 4,4 -111,111 2,2 111,-111 z m 4,4 -111,111 2,2 111,-111 z m 4,4 -111,111 2,2 111,-111 z m 4,4 -111,111 2,2 111,-111 z m 4,4 -111,111 2,2 111,-111 z m 4,4 -111,111 2,2 111,-111 z m 4,4 -111,111 2,2 111,-111 z m 4,4 -111,111 2,2 L 99,-9 z m 4,4 -111,111 2,2 111,-111 z m 4,4 -111,111 2,2 L 107,-1 z M 109,1 -2,112 0,114 111,3 z M 113,5 2,116 4,118 115,7 z M 117,9 6,120 8,122 119,11 z m 4,4 -111,111 2,2 111,-111 z m 4,4 -111,111 2,2 111,-111 z m 4,4 -111,111 2,2 111,-111 z m 4,4 -111,111 2,2 111,-111 z m 4,4 -111,111 2,2 111,-111 z m 4,4 -111,111 2,2 111,-111 z"
       inkscape:connector-curvature="0"
       clip-path="url(#clipPath3167)"
       id="path5077"
       style="opacity:0.1;fill:#000000;stroke:none;display:inline" />
    <path
       d="M 12,90 C 8.676,90 6,87.324 6,84 L 6,82 6,14 6,12 c 0,-0.334721 0.04135,-0.6507 0.09375,-0.96875 0.0487,-0.295596 0.09704,-0.596915 0.1875,-0.875 C 6.29113,10.12587 6.302142,10.09265 6.3125,10.0625 6.411365,9.774729 6.5473802,9.515048 6.6875,9.25 6.8320918,8.976493 7.0031161,8.714385 7.1875,8.46875 7.3718839,8.223115 7.5612765,7.995278 7.78125,7.78125 8.221197,7.353194 8.72416,6.966724 9.28125,6.6875 9.559795,6.547888 9.8547231,6.440553 10.15625,6.34375 9.9000482,6.443972 9.6695391,6.580022 9.4375,6.71875 c -0.00741,0.0044 -0.023866,-0.0045 -0.03125,0 -0.031933,0.0193 -0.062293,0.04251 -0.09375,0.0625 -0.120395,0.0767 -0.2310226,0.163513 -0.34375,0.25 -0.1061728,0.0808 -0.2132809,0.161112 -0.3125,0.25 C 8.4783201,7.442683 8.3087904,7.626638 8.15625,7.8125 8.0486711,7.942755 7.9378561,8.077785 7.84375,8.21875 7.818661,8.25713 7.805304,8.30462 7.78125,8.34375 7.716487,8.446782 7.6510225,8.548267 7.59375,8.65625 7.4927417,8.850956 7.3880752,9.071951 7.3125,9.28125 7.30454,9.30306 7.288911,9.3218 7.28125,9.34375 7.2494249,9.4357 7.2454455,9.530581 7.21875,9.625 7.1884177,9.731618 7.1483606,9.828031 7.125,9.9375 7.0521214,10.279012 7,10.635705 7,11 l 0,2 0,68 0,2 c 0,2.781848 2.2181517,5 5,5 l 2,0 68,0 2,0 c 2.781848,0 5,-2.218152 5,-5 l 0,-2 0,-68 0,-2 C 89,10.635705 88.94788,10.279012 88.875,9.9375 88.83085,9.730607 88.78662,9.539842 88.71875,9.34375 88.71105,9.3218 88.69545,9.30306 88.6875,9.28125 88.62476,9.107511 88.549117,8.913801 88.46875,8.75 88.42717,8.6672 88.38971,8.580046 88.34375,8.5 88.28915,8.40279 88.216976,8.31165 88.15625,8.21875 88.06214,8.077785 87.951329,7.942755 87.84375,7.8125 87.700576,7.63805 87.540609,7.465502 87.375,7.3125 87.36383,7.3023 87.35502,7.29135 87.34375,7.28125 87.205364,7.155694 87.058659,7.046814 86.90625,6.9375 86.803679,6.86435 86.701932,6.784136 86.59375,6.71875 c -0.0074,-0.0045 -0.02384,0.0044 -0.03125,0 -0.232039,-0.138728 -0.462548,-0.274778 -0.71875,-0.375 0.301527,0.0968 0.596455,0.204138 0.875,0.34375 0.55709,0.279224 1.060053,0.665694 1.5,1.09375 0.219973,0.214028 0.409366,0.441865 0.59375,0.6875 0.184384,0.245635 0.355408,0.507743 0.5,0.78125 0.14012,0.265048 0.276135,0.524729 0.375,0.8125 0.01041,0.03078 0.02133,0.06274 0.03125,0.09375 0.09046,0.278085 0.1388,0.579404 0.1875,0.875 C 89.95865,11.3493 90,11.665279 90,12 l 0,2 0,68 0,2 c 0,3.324 -2.676,6 -6,6 z"
       inkscape:connector-curvature="0"
       id="path3615"
       style="opacity:0.2;fill:url(#radialGradient3619);fill-opacity:1;fill-rule:nonzero;stroke:none;display:inline" />
  </g>
  <g
     id="layer4"
     style="display:inline">
    <path
       d="m 6,80 0,4 c 0,3.324 2.676,6 6,6 l 72,0 c 3.324,0 6,-2.676 6,-6 l 0,-4 c 0,3.324 -2.676,6 -6,6 L 12,86 C 8.676,86 6,83.324 6,80 z"
       inkscape:connector-curvature="0"
       id="path3888"
       style="fill:url(#linearGradient3228);fill-opacity:1;fill-rule:nonzero;stroke:none;display:inline" />
    <path
       d="m 6,82 0,2 c 0,3.324 2.676,6 6,6 l 72,0 c 3.324,0 6,-2.676 6,-6 l 0,-2 c 0,3.324 -2.676,6 -6,6 L 12,88 C 8.676,88 6,85.324 6,82 z"
       inkscape:connector-curvature="0"
       id="rect4345"
       style="opacity:0.1;color:#000000;fill:#000000;fill-opacity:1;fill-rule:nonzero;stroke:none;stroke-width:1.5;marker:none;visibility:visible;display:inline;overflow:visible;enable-background:accumulate" />
    <path
       d="m 6,83 0,1 c 0,3.324 2.676,6 6,6 l 72,0 c 3.324,0 6,-2.676 6,-6 l 0,-1 c 0,3.324 -2.676,6 -6,6 L 12,89 C 8.676,89 6,86.324 6,83 z"
       inkscape:connector-curvature="0"
       id="rect4336"
       style="opacity:0.15;color:#000000;fill:#000000;fill-opacity:1;fill-rule:nonzero;stroke:none;stroke-width:1.5;marker:none;visibility:visible;display:inline;overflow:visible;enable-background:accumulate" />
  </g>
  <g
     id="layer5"
     style="display:none">
    <rect
       width="66"
       height="62"
       rx="12"
       ry="12"
       x="15"
       y="15"
       clip-path="url(#clipPath4355)"
       id="rect3171"
       style="opacity:0.1;fill:url(#linearGradient3613);fill-opacity:1;fill-rule:nonzero;stroke:#ffffff;stroke-width:0.5;stroke-linecap:round;stroke-linejoin:miter;stroke-miterlimit:4;stroke-opacity:1;stroke-dasharray:none;stroke-dashoffset:0;filter:url(#filter3794)" />
  </g>
  <g
     id="layer6">
    <path
       d="m 47.8125,20.6875 c -0.224194,0.03645 -0.448708,0.13884 -0.625,0.28125 l -7.5,6 -7.5,6 c -0.407408,0.324566 -0.606165,0.984948 -0.4375,1.46875 0.168665,0.483803 0.731791,0.874065 1.25,0.875 l 5.09375,0 a 0.58842457,0.58842457 0 0 1 0.59375,0.59375 l 0,24.1875 a 0.58842457,0.58842457 0 0 1 -0.59375,0.59375 l -5.09375,0 c -0.518191,9.23e-4 -1.081334,0.391194 -1.25,0.875 -0.168665,0.483802 0.03009,1.144184 0.4375,1.46875 l 7.5,6 7.5,6 c 0.437698,0.34705 1.187302,0.34705 1.625,0 l 7.5,-6 7.5,-6 C 64.219908,62.706684 64.418665,62.046302 64.25,61.5625 64.081335,61.078697 63.518209,60.688435 63,60.6875 l -5.09375,0 A 0.58842457,0.58842457 0 0 1 57.3125,60.09375 l 0,-24.1875 a 0.58842457,0.58842457 0 0 1 0.59375,-0.59375 l 5.09375,0 c 0.518191,-9.23e-4 1.081334,-0.391194 1.25,-0.875 0.168665,-0.483802 -0.03009,-1.144184 -0.4375,-1.46875 l -7.5,-6 -7.5,-6 c -0.262027,-0.210552 -0.633244,-0.315028 -0.96875,-0.28125 -0.01001,0.001 -0.0213,-0.0013 -0.03125,0 z"
       inkscape:connector-curvature="0"
       transform="translate(0,-2)"
       id="path3289"
       style="fill:url(#linearGradient3291);fill-opacity:1;stroke:none;display:inline" />
    <path
       d="m 48,20 -7.5,6 -7.5,6 7,0 0,28 -7,0 7.5,6 7.5,6 7.5,-6 7.5,-6 -7,0 0,-28 7,0 -7.5,-6 z"
       inkscape:connector-curvature="0"
       id="path5323"
       style="fill:url(#linearGradient5371);fill-opacity:1;stroke:none;display:inline" />
    <path
       d="m 48,20 -7.5,6 -7.5,6 7,0 0,28 -7,0 7.5,6 7.5,6 7.5,-6 7.5,-6 -7,0 0,-28 7,0 -7.5,-6 z m 0,3.03125 6.03125,4.8125 2.28125,1.8125 -0.3125,0 C 54.774115,29.660984 53.660984,30.774115 53.65625,32 l 0,28 c 0.0047,1.225885 1.117865,2.339016 2.34375,2.34375 l 0.3125,0 -2.28125,1.8125 -6.03125,4.8125 -6.03125,-4.8125 -2.28125,-1.8125 0.3125,0 C 41.225885,62.339016 42.339016,61.225885 42.34375,60 l 0,-28 C 42.339016,30.774115 41.225885,29.660984 40,29.65625 l -0.3125,0 2.28125,-1.8125 z"
       inkscape:connector-curvature="0"
       id="path3794"
       style="opacity:0.1;fill:#000000;fill-opacity:1;stroke:none;display:inline" />
    <path
       d="m 48,20 -7.5,6 -7.5,6 7,0 0,28 -7,0 7.5,6 7.5,6 7.5,-6 7.5,-6 -7,0 0,-28 7,0 -7.5,-6 z m 0,1.96875 6.53125,5.21875 4.09375,3.28125 -2.625,0 C 55.197727,30.46687 54.46687,31.197727 54.46875,32 l 0,28 c -0.0019,0.802273 0.728977,1.53313 1.53125,1.53125 l 2.625,0 L 54.53125,64.8125 48,70.03125 41.46875,64.8125 37.375,61.53125 l 2.625,0 C 40.802273,61.53313 41.53313,60.802273 41.53125,60 l 0,-28 C 41.53313,31.197727 40.802273,30.46687 40,30.46875 l -2.625,0 4.09375,-3.28125 z"
       inkscape:connector-curvature="0"
       id="path3787"
       style="opacity:0.15;fill:#000000;fill-opacity:1;stroke:none;display:inline" />
    <path
       d="m 48,20 -7.5,6 -7.5,6 7,0 0,28 -7,0 7.5,6 7.5,6 7.5,-6 7.5,-6 -7,0 0,-28 7,0 -7.5,-6 z m 0,1.03125 7,5.59375 5.6875,4.5625 -4.6875,0 C 55.572642,31.180267 55.180267,31.572642 55.1875,32 l 0,28 c -0.0072,0.427358 0.385142,0.819733 0.8125,0.8125 l 4.6875,0 L 55,65.375 48,70.96875 41,65.375 35.3125,60.8125 40,60.8125 C 40.427358,60.8197 40.819733,60.427358 40.8125,60 l 0,-28 C 40.819733,31.572642 40.427358,31.180267 40,31.1875 l -4.6875,0 L 41,26.625 z"
       inkscape:connector-curvature="0"
       id="path3779"
       style="opacity:0.3;fill:#000000;fill-opacity:1;stroke:none;display:inline" />
    <path
       d="m 43.5,45 c -5.556772,0 -10.572557,0.294226 -14.21875,0.75 -1.823097,0.227887 -3.286628,0.467795 -4.34375,0.78125 -0.528561,0.156727 -0.950962,0.328464 -1.28125,0.53125 C 23.325962,47.265286 23,47.558524 23,48 l -1.5,0 C 20.123649,48 19,49.123649 19,50.5 l 0,1 c 0,1.376351 1.123649,2.5 2.5,2.5 l 1.5,0 c 0,0.441476 0.325962,0.734714 0.65625,0.9375 0.330288,0.202786 0.752689,0.374523 1.28125,0.53125 1.057122,0.313455 2.520653,0.553363 4.34375,0.78125 C 32.927443,56.705774 37.943228,57 43.5,57 l 8,0 c 5.556772,0 10.572557,-0.294226 14.21875,-0.75 1.823097,-0.227887 3.286628,-0.467795 4.34375,-0.78125 0.528561,-0.156727 0.950962,-0.328464 1.28125,-0.53125 C 71.674038,54.734714 72,54.441476 72,54 l 0,-6 C 72,47.558524 71.674038,47.265286 71.34375,47.0625 71.013462,46.859714 70.591061,46.687977 70.0625,46.53125 69.005378,46.217795 67.541847,45.977887 65.71875,45.75 62.072557,45.294226 57.056772,45 51.5,45 l -8,0 z"
       inkscape:connector-curvature="0"
       id="rect5504"
       style="opacity:0.15;fill:#000000;fill-opacity:1;stroke:none;filter:url(#filter3775)" />
    <rect
       width="16"
       height="6"
       x="40"
       y="44"
       id="rect3725"
       style="fill:#333333;fill-opacity:1;stroke:none" />
    <rect
       width="13"
       height="6"
       rx="2"
       x="20.5"
       y="38"
       id="rect5500"
       style="fill:url(#linearGradient5502);fill-opacity:1;stroke:#474747;stroke-width:0.99999994;stroke-opacity:1" />
    <rect
       width="47"
       height="11"
       rx="19.583334"
       ry="2.5"
       x="24.5"
       y="35.5"
       id="rect5461"
       style="fill:url(#linearGradient5469);fill-opacity:1;stroke:#800000;stroke-width:1;stroke-opacity:1" />
    <rect
       width="13"
       height="15"
       x="41.5"
       y="34.5"
       id="rect5431"
       style="fill:url(#linearGradient5439);fill-opacity:1;stroke:url(#linearGradient3738);stroke-width:1" />
    <path
       d="M 38.95643,35.104568 41,35 41,47 39,46.895432 38.95643,35.104568 z"
       inkscape:connector-curvature="0"
       id="rect5475"
       style="opacity:0.6;fill:url(#linearGradient5488);fill-opacity:1;stroke:none" />
    <path
       d="M 57,35.104568 54.95643,35 l 0,12 2,-0.104568 L 57,35.104568 z"
       inkscape:connector-curvature="0"
       id="path5490"
       style="opacity:0.6;fill:url(#linearGradient5492);fill-opacity:1;stroke:none" />
  </g>
</svg>
