<?xml version="1.0" encoding="UTF-8" standalone="no"?>
<!-- Created with Inkscape (http://www.inkscape.org/) -->

<svg
   xmlns:dc="http://purl.org/dc/elements/1.1/"
   xmlns:cc="http://creativecommons.org/ns#"
   xmlns:rdf="http://www.w3.org/1999/02/22-rdf-syntax-ns#"
   xmlns:svg="http://www.w3.org/2000/svg"
   xmlns="http://www.w3.org/2000/svg"
   xmlns:xlink="http://www.w3.org/1999/xlink"
   version="1.0"
   width="96"
   height="96"
   id="svg2408">
  <defs
     id="defs2410">
    <linearGradient
       id="linearGradient4208">
      <stop
         id="stop4210"
         style="stop-color:#f3840c;stop-opacity:1"
         offset="0" />
      <stop
         id="stop4212"
         style="stop-color:#f2b80c;stop-opacity:1"
         offset="1" />
    </linearGradient>
    <linearGradient
       id="linearGradient4084">
      <stop
         id="stop4086"
         style="stop-color:#f37526;stop-opacity:1"
         offset="0" />
      <stop
         id="stop4088"
         style="stop-color:#fad1b3;stop-opacity:1"
         offset="1" />
    </linearGradient>
    <linearGradient
       x1="45.447727"
       y1="92.539597"
       x2="45.447727"
       y2="7.0165396"
       id="ButtonShadow"
       gradientUnits="userSpaceOnUse"
       gradientTransform="scale(1.0058652,0.994169)">
      <stop
         id="stop3750"
         style="stop-color:#000000;stop-opacity:1"
         offset="0" />
      <stop
         id="stop3752"
         style="stop-color:#000000;stop-opacity:0.58823532"
         offset="1" />
    </linearGradient>
    <linearGradient
       id="linearGradient3737">
      <stop
         id="stop3739"
         style="stop-color:#ffffff;stop-opacity:1"
         offset="0" />
      <stop
         id="stop3741"
         style="stop-color:#ffffff;stop-opacity:0"
         offset="1" />
    </linearGradient>
    <filter
       color-interpolation-filters="sRGB"
       id="filter3174">
      <feGaussianBlur
         id="feGaussianBlur3176"
         stdDeviation="1.71" />
    </filter>
    <linearGradient
       x1="36.357143"
       y1="6"
       x2="36.357143"
       y2="63.893143"
       id="linearGradient3188"
       xlink:href="#linearGradient3737"
       gradientUnits="userSpaceOnUse" />
    <radialGradient
       cx="48"
       cy="90.171875"
       r="42"
       fx="48"
       fy="90.171875"
       id="radialGradient3619"
       xlink:href="#linearGradient3737"
       gradientUnits="userSpaceOnUse"
       gradientTransform="matrix(1.1573129,0,0,0.99590774,-7.5510206,0.19713193)" />
    <linearGradient
       x1="48.88446"
       y1="68.330742"
       x2="48"
       y2="5.9877172"
       id="linearGradient4206"
       xlink:href="#linearGradient4084"
       gradientUnits="userSpaceOnUse" />
    <linearGradient
       x1="48"
       y1="90"
       x2="48"
       y2="5.9877172"
       id="linearGradient4214"
       xlink:href="#linearGradient4208"
       gradientUnits="userSpaceOnUse" />
    <linearGradient
       x1="45.447727"
       y1="92.539597"
       x2="45.447727"
       y2="7.0165396"
       id="ButtonShadow-0"
       gradientUnits="userSpaceOnUse"
       gradientTransform="matrix(1.0058652,0,0,0.994169,100,0)">
      <stop
         id="stop3750-8"
         style="stop-color:#000000;stop-opacity:1"
         offset="0" />
      <stop
         id="stop3752-5"
         style="stop-color:#000000;stop-opacity:0.58823532"
         offset="1" />
    </linearGradient>
    <linearGradient
       x1="32.251034"
       y1="6.1317081"
       x2="32.251034"
       y2="90.238609"
       id="linearGradient3780"
       xlink:href="#ButtonShadow-0"
       gradientUnits="userSpaceOnUse"
       gradientTransform="matrix(1.0238095,0,0,1.0119048,-1.1428571,-98.071429)" />
    <linearGradient
       x1="32.251034"
       y1="6.1317081"
       x2="32.251034"
       y2="90.238609"
       id="linearGradient3772"
       xlink:href="#ButtonShadow-0"
       gradientUnits="userSpaceOnUse"
       gradientTransform="matrix(1.0238095,0,0,1.0119048,-1.1428571,-98.071429)" />
    <linearGradient
       x1="32.251034"
       y1="6.1317081"
       x2="32.251034"
       y2="90.238609"
       id="linearGradient3725"
       xlink:href="#ButtonShadow-0"
       gradientUnits="userSpaceOnUse"
       gradientTransform="matrix(1.0238095,0,0,1.0119048,-1.1428571,-98.071429)" />
    <linearGradient
       x1="32.251034"
       y1="6.1317081"
       x2="32.251034"
       y2="90.238609"
       id="linearGradient3721"
       xlink:href="#ButtonShadow-0"
       gradientUnits="userSpaceOnUse"
       gradientTransform="translate(0,-97)" />
    <linearGradient
       x1="32.251034"
       y1="6.1317081"
       x2="32.251034"
       y2="90.238609"
       id="linearGradient3059"
       xlink:href="#ButtonShadow-0"
       gradientUnits="userSpaceOnUse"
       gradientTransform="matrix(1.0238095,0,0,1.0119048,-1.1428571,-98.071429)" />
  </defs>
  <metadata
     id="metadata2413">
    <rdf:RDF>
      <cc:Work
         rdf:about="">
        <dc:format>image/svg+xml</dc:format>
        <dc:type
           rdf:resource="http://purl.org/dc/dcmitype/StillImage" />
        <dc:title></dc:title>
      </cc:Work>
    </rdf:RDF>
  </metadata>
  <g
     id="layer2"
     style="display:none">
    <rect
       width="86"
       height="85"
       rx="6"
       ry="6"
       x="5"
       y="7"
       id="rect3745"
       style="opacity:0.9;fill:url(#ButtonShadow);fill-opacity:1;fill-rule:nonzero;stroke:none;filter:url(#filter3174)" />
  </g>
  <g
     transform="matrix(1.3872362,0,0,1.5325437,-34.854605,-47.92456)"
     id="layer5" />
  <g
     id="layer4"
     style="display:inline">
    <path
       d="m 12,-95.03125 c -5.5110903,0 -10.03125,4.52016 -10.03125,10.03125 l 0,71 c 0,5.5110902 4.5201598,10.03125 10.03125,10.03125 l 72,0 c 5.51109,0 10.03125,-4.5201597 10.03125,-10.03125 l 0,-71 c 0,-5.51109 -4.52016,-10.03125 -10.03125,-10.03125 l -72,0 z"
       transform="scale(1,-1)"
       id="path3786"
       style="opacity:0.07999998;fill:url(#linearGradient3059);fill-opacity:1;fill-rule:nonzero;stroke:none;display:inline" />
    <path
       d="m 12,-94.03125 c -4.971633,0 -9.03125,4.059617 -9.03125,9.03125 l 0,71 c 0,4.9716329 4.0596171,9.03125 9.03125,9.03125 l 72,0 c 4.971633,0 9.03125,-4.059617 9.03125,-9.03125 l 0,-71 c 0,-4.971633 -4.059617,-9.03125 -9.03125,-9.03125 l -72,0 z"
       transform="scale(1,-1)"
       id="path3778"
       style="opacity:0.1;fill:url(#linearGradient3780);fill-opacity:1;fill-rule:nonzero;stroke:none;display:inline" />
    <path
       d="m 12,-93 c -4.4091333,0 -8,3.590867 -8,8 l 0,71 c 0,4.4091333 3.5908667,8 8,8 l 72,0 c 4.409133,0 8,-3.5908667 8,-8 l 0,-71 c 0,-4.409133 -3.590867,-8 -8,-8 l -72,0 z"
       transform="scale(1,-1)"
       id="path3770"
       style="opacity:0.2;fill:url(#linearGradient3772);fill-opacity:1;fill-rule:nonzero;stroke:none;display:inline" />
    <rect
       width="86"
       height="85"
       rx="7"
       ry="7"
       x="5"
       y="-92"
       transform="scale(1,-1)"
       id="rect3723"
       style="opacity:0.3;fill:url(#linearGradient3725);fill-opacity:1;fill-rule:nonzero;stroke:none;display:inline" />
    <rect
       width="84"
       height="84"
       rx="6"
       ry="6"
       x="6"
       y="-91"
       transform="scale(1,-1)"
       id="rect3716"
       style="opacity:0.45;fill:url(#linearGradient3721);fill-opacity:1;fill-rule:nonzero;stroke:none;display:inline" />
  </g>
  <g
     id="layer1">
    <rect
       width="84"
       height="84"
       rx="6"
       ry="6"
       x="6"
       y="6"
       id="rect2419"
       style="fill:url(#linearGradient4214);fill-opacity:1;fill-rule:nonzero;stroke:none" />
    <rect
       width="84"
       height="84"
       rx="6"
       ry="6"
       x="6"
       y="6"
       id="rect4204"
       style="fill:url(#linearGradient4206);fill-opacity:1;fill-rule:nonzero;stroke:none" />
    <path
       d="M 12,6 C 8.676,6 6,8.676 6,12 l 0,2 0,68 0,2 c 0,0.334721 0.04135,0.6507 0.09375,0.96875 0.0487,0.295596 0.09704,0.596915 0.1875,0.875 0.00988,0.03038 0.020892,0.0636 0.03125,0.09375 0.098865,0.287771 0.2348802,0.547452 0.375,0.8125 0.1445918,0.273507 0.3156161,0.535615 0.5,0.78125 0.1843839,0.245635 0.3737765,0.473472 0.59375,0.6875 0.439947,0.428056 0.94291,0.814526 1.5,1.09375 0.278545,0.139612 0.5734731,0.246947 0.875,0.34375 -0.2562018,-0.100222 -0.4867109,-0.236272 -0.71875,-0.375 -0.00741,-0.0044 -0.023866,0.0045 -0.03125,0 -0.031933,-0.0193 -0.062293,-0.04251 -0.09375,-0.0625 -0.120395,-0.0767 -0.2310226,-0.163513 -0.34375,-0.25 -0.1061728,-0.0808 -0.2132809,-0.161112 -0.3125,-0.25 C 8.4783201,88.557317 8.3087904,88.373362 8.15625,88.1875 8.0486711,88.057245 7.9378561,87.922215 7.84375,87.78125 7.818661,87.74287 7.805304,87.69538 7.78125,87.65625 7.716487,87.553218 7.6510225,87.451733 7.59375,87.34375 7.4927417,87.149044 7.3880752,86.928049 7.3125,86.71875 7.30454,86.69694 7.288911,86.6782 7.28125,86.65625 7.2494249,86.5643 7.2454455,86.469419 7.21875,86.375 7.1884177,86.268382 7.1483606,86.171969 7.125,86.0625 7.0521214,85.720988 7,85.364295 7,85 L 7,83 7,15 7,13 C 7,10.218152 9.2181517,8 12,8 l 2,0 68,0 2,0 c 2.781848,0 5,2.218152 5,5 l 0,2 0,68 0,2 c 0,0.364295 -0.05212,0.720988 -0.125,1.0625 -0.04415,0.206893 -0.08838,0.397658 -0.15625,0.59375 -0.0077,0.02195 -0.0233,0.04069 -0.03125,0.0625 -0.06274,0.173739 -0.138383,0.367449 -0.21875,0.53125 -0.04158,0.0828 -0.07904,0.169954 -0.125,0.25 -0.0546,0.09721 -0.126774,0.18835 -0.1875,0.28125 -0.09411,0.140965 -0.204921,0.275995 -0.3125,0.40625 -0.143174,0.17445 -0.303141,0.346998 -0.46875,0.5 -0.01117,0.0102 -0.01998,0.02115 -0.03125,0.03125 -0.138386,0.125556 -0.285091,0.234436 -0.4375,0.34375 -0.102571,0.07315 -0.204318,0.153364 -0.3125,0.21875 -0.0074,0.0045 -0.02384,-0.0044 -0.03125,0 -0.232039,0.138728 -0.462548,0.274778 -0.71875,0.375 0.301527,-0.0968 0.596455,-0.204138 0.875,-0.34375 0.55709,-0.279224 1.060053,-0.665694 1.5,-1.09375 0.219973,-0.214028 0.409366,-0.441865 0.59375,-0.6875 0.184384,-0.245635 0.355408,-0.507743 0.5,-0.78125 0.14012,-0.265048 0.276135,-0.524729 0.375,-0.8125 0.01041,-0.03078 0.02133,-0.06274 0.03125,-0.09375 0.09046,-0.278085 0.1388,-0.579404 0.1875,-0.875 C 89.95865,84.6507 90,84.334721 90,84 l 0,-2 0,-68 0,-2 C 90,8.676 87.324,6 84,6 L 12,6 z"
       id="rect3728"
       style="opacity:0.5;fill:url(#linearGradient3188);fill-opacity:1;fill-rule:nonzero;stroke:none" />
    <path
       d="M 12,90 C 8.676,90 6,87.324 6,84 L 6,82 6,14 6,12 c 0,-0.334721 0.04135,-0.6507 0.09375,-0.96875 0.0487,-0.295596 0.09704,-0.596915 0.1875,-0.875 C 6.29113,10.12587 6.302142,10.09265 6.3125,10.0625 6.411365,9.774729 6.5473802,9.515048 6.6875,9.25 6.8320918,8.976493 7.0031161,8.714385 7.1875,8.46875 7.3718839,8.223115 7.5612765,7.995278 7.78125,7.78125 8.221197,7.353194 8.72416,6.966724 9.28125,6.6875 9.559795,6.547888 9.8547231,6.440553 10.15625,6.34375 9.9000482,6.443972 9.6695391,6.580022 9.4375,6.71875 c -0.00741,0.0044 -0.023866,-0.0045 -0.03125,0 -0.031933,0.0193 -0.062293,0.04251 -0.09375,0.0625 -0.120395,0.0767 -0.2310226,0.163513 -0.34375,0.25 -0.1061728,0.0808 -0.2132809,0.161112 -0.3125,0.25 C 8.4783201,7.442683 8.3087904,7.626638 8.15625,7.8125 8.0486711,7.942755 7.9378561,8.077785 7.84375,8.21875 7.818661,8.25713 7.805304,8.30462 7.78125,8.34375 7.716487,8.446782 7.6510225,8.548267 7.59375,8.65625 7.4927417,8.850956 7.3880752,9.071951 7.3125,9.28125 7.30454,9.30306 7.288911,9.3218 7.28125,9.34375 7.2494249,9.4357 7.2454455,9.530581 7.21875,9.625 7.1884177,9.731618 7.1483606,9.828031 7.125,9.9375 7.0521214,10.279012 7,10.635705 7,11 l 0,2 0,68 0,2 c 0,2.781848 2.2181517,5 5,5 l 2,0 68,0 2,0 c 2.781848,0 5,-2.218152 5,-5 l 0,-2 0,-68 0,-2 C 89,10.635705 88.94788,10.279012 88.875,9.9375 88.83085,9.730607 88.78662,9.539842 88.71875,9.34375 88.71105,9.3218 88.69545,9.30306 88.6875,9.28125 88.62476,9.107511 88.549117,8.913801 88.46875,8.75 88.42717,8.6672 88.38971,8.580046 88.34375,8.5 88.28915,8.40279 88.216976,8.31165 88.15625,8.21875 88.06214,8.077785 87.951329,7.942755 87.84375,7.8125 87.700576,7.63805 87.540609,7.465502 87.375,7.3125 87.36383,7.3023 87.35502,7.29135 87.34375,7.28125 87.205364,7.155694 87.058659,7.046814 86.90625,6.9375 86.803679,6.86435 86.701932,6.784136 86.59375,6.71875 c -0.0074,-0.0045 -0.02384,0.0044 -0.03125,0 -0.232039,-0.138728 -0.462548,-0.274778 -0.71875,-0.375 0.301527,0.0968 0.596455,0.204138 0.875,0.34375 0.55709,0.279224 1.060053,0.665694 1.5,1.09375 0.219973,0.214028 0.409366,0.441865 0.59375,0.6875 0.184384,0.245635 0.355408,0.507743 0.5,0.78125 0.14012,0.265048 0.276135,0.524729 0.375,0.8125 0.01041,0.03078 0.02133,0.06274 0.03125,0.09375 0.09046,0.278085 0.1388,0.579404 0.1875,0.875 C 89.95865,11.3493 90,11.665279 90,12 l 0,2 0,68 0,2 c 0,3.324 -2.676,6 -6,6 l -72,0 z"
       id="path3615"
       style="opacity:0.2;fill:url(#radialGradient3619);fill-opacity:1;fill-rule:nonzero;stroke:none" />
  </g>
  <rect
     width="39.726368"
     height="37.407921"
     rx="0"
     ry="0"
     x="27.896727"
     y="28.800158"
     id="rect14166"
     style="opacity:0.1;fill:#000000;fill-opacity:1;stroke:none" />
  <rect
     width="37.515221"
     height="35.639004"
     rx="0"
     ry="0"
     x="29.223415"
     y="29.57406"
     id="rect14164"
     style="opacity:0.2;fill:#000000;fill-opacity:1;stroke:none" />
  <path
     d="M 45.439838,62.195632 56.228112,75.094655"
     id="path14209"
     style="opacity:0.3;fill:none;stroke:#000000;stroke-width:1.39999998;stroke-linecap:round;stroke-linejoin:miter;stroke-miterlimit:4;stroke-opacity:1;stroke-dasharray:none" />
  <rect
     width="35.746304"
     height="33.759529"
     rx="0"
     ry="0"
     x="30.328991"
     y="30.347963"
     id="rect14162"
     style="opacity:0.3;fill:#000000;fill-opacity:1;stroke:none" />
  <path
     d="M 47.374593,62.306189 58.162867,75.205212"
     id="path14207"
     style="opacity:0.45;fill:none;stroke:#000000;stroke-width:1.39999998;stroke-linecap:round;stroke-linejoin:miter;stroke-miterlimit:4;stroke-opacity:1;stroke-dasharray:none" />
  <path
     d="M 43.947313,62.527304 54.735587,75.426327"
     id="path14211"
     style="opacity:0.2;fill:none;stroke:#000000;stroke-width:1.39999998;stroke-linecap:round;stroke-linejoin:miter;stroke-miterlimit:4;stroke-opacity:1;stroke-dasharray:none" />
  <rect
     width="34.087944"
     height="32.322281"
     rx="0"
     ry="0"
     x="31.324007"
     y="31.011309"
     id="rect14160"
     style="opacity:0.45;fill:#000000;fill-opacity:1;stroke:none" />
  <path
     d="M 42.123116,62.527304 52.91139,75.426327"
     id="path14213"
     style="opacity:0.1;fill:none;stroke:#000000;stroke-width:1.39999998;stroke-linecap:round;stroke-linejoin:miter;stroke-miterlimit:4;stroke-opacity:1;stroke-dasharray:none" />
  <g
     transform="matrix(-1,0,0,-1,37.142713,138.26022)"
     id="g14192">
    <path
       d="M -26.358536,89.21509 -52.850654,59.493119 c 0,0 -0.02121,0.578369 -1.84e-4,-1.461162 1.184661,-4.901286 5.439616,-5.170764 5.439616,-5.170764 l 73.32899,-0.03909 c 0,0 4.227207,0.447602 5.329469,5.010053 0.04689,3.78069 0.02558,10.507864 0.02558,10.507864 l -52.651466,-0.467905 10.612756,12.935809 z"
       id="path14182"
       style="opacity:0.1;fill:#000000;fill-opacity:1;stroke:none" />
    <path
       d="m -26.436712,88.120627 -26.35531,-29.712199 c 0,0 -0.09939,0.558825 -0.07836,-1.480706 1.184661,-4.901285 5.380984,-5.160991 5.380984,-5.160991 l 73.32899,-0.03909 c 0,0 4.227207,0.447602 5.329469,5.010052 0.04689,3.78069 0.02558,10.507864 0.02558,10.507864 l -52.651466,-0.467905 10.612756,12.935809 z"
       id="path14184"
       style="opacity:0.2;fill:#000000;fill-opacity:1;stroke:none" />
    <path
       d="m -26.358536,86.947988 -26.45303,-29.761059 c 0,0 -0.0603,0.617457 -0.03927,-1.422074 1.184661,-4.901284 5.439616,-5.170762 5.439616,-5.170762 l 73.32899,-0.03909 c 0,0 4.227207,0.447602 5.329469,5.010051 0.04689,3.78069 0.02558,10.507864 0.02558,10.507864 l -52.651466,-0.467905 10.612756,12.935809 z"
       id="path14186"
       style="opacity:0.3;fill:#000000;fill-opacity:1;stroke:none" />
    <path
       d="M -26.436711,85.853525 -52.792022,56.141326 c 0,0 -0.09939,0.558825 -0.07836,-1.480706 1.184661,-4.901284 5.380985,-5.16099 5.380985,-5.16099 l 73.32899,-0.03909 c 0,0 4.227207,0.447602 5.329469,5.010051 0.04689,3.78069 0.02558,10.507864 0.02558,10.507864 l -52.651466,-0.467905 10.612756,12.935809 z"
       id="path14188"
       style="opacity:0.45;fill:#000000;fill-opacity:1;stroke:none" />
    <path
       d="M -26.514887,84.553662 -52.870198,54.841463 c 0,0 -0.09939,0.558825 -0.07836,-1.480706 1.184661,-4.901284 5.380985,-5.16099 5.380985,-5.16099 l 73.32899,-0.03909 c 0,0 4.324927,0.48669 5.427189,5.049139 0.04689,3.78069 0.02558,10.449232 0.02558,10.449232 L -21.535,63.210687 -10.922244,76.146496 z"
       id="path14190"
       style="fill:#ffffff;fill-opacity:1;stroke:none" />
  </g>
  <path
     d="M 32.458007,46.982159 6.1026972,17.26996 c 0,0 -0.09939,0.558825 -0.07836,-1.480706 1.184661,-4.901286 5.3809838,-5.160992 5.3809838,-5.160992 l 73.32899,-0.03909 c 0,0 4.227207,0.447602 5.329469,5.010053 0.04689,3.78069 0.02558,10.507864 0.02558,10.507864 L 37.437894,25.639184 48.05065,38.574993 z"
     id="path14139"
     style="opacity:0.1;fill:#000000;fill-opacity:1;stroke:none" />
  <path
     d="M 32.379831,45.887696 6.0245213,16.175497 c 0,0 -0.09939,0.558825 -0.07836,-1.480706 1.184661,-4.9012851 5.3809837,-5.1609911 5.3809837,-5.1609911 l 73.32899,-0.03909 c 0,0 4.227207,0.447602 5.329469,5.0100521 0.04689,3.78069 0.02558,10.507864 0.02558,10.507864 L 37.359718,24.544721 47.972474,37.48053 z"
     id="path14137"
     style="opacity:0.2;fill:#000000;fill-opacity:1;stroke:none" />
  <g
     transform="matrix(-1,0,0,-1,104.55113,100.65087)"
     id="g14223">
    <path
       d="M 55.390005,67.944617 66.178279,80.84364"
       id="path14215"
       style="opacity:0.3;fill:none;stroke:#000000;stroke-width:1.39999998;stroke-linecap:round;stroke-linejoin:miter;stroke-miterlimit:4;stroke-opacity:1;stroke-dasharray:none" />
    <path
       d="M 57.32476,68.055174 68.113034,80.954197"
       id="path14217"
       style="opacity:0.45;fill:none;stroke:#000000;stroke-width:1.39999998;stroke-linecap:round;stroke-linejoin:miter;stroke-miterlimit:4;stroke-opacity:1;stroke-dasharray:none" />
    <path
       d="M 53.89748,68.276289 64.685754,81.175312"
       id="path14219"
       style="opacity:0.2;fill:none;stroke:#000000;stroke-width:1.39999998;stroke-linecap:round;stroke-linejoin:miter;stroke-miterlimit:4;stroke-opacity:1;stroke-dasharray:none" />
    <path
       d="M 52.073283,68.276289 62.861557,81.175312"
       id="path14221"
       style="opacity:0.1;fill:none;stroke:#000000;stroke-width:1.39999998;stroke-linecap:round;stroke-linejoin:miter;stroke-miterlimit:4;stroke-opacity:1;stroke-dasharray:none" />
  </g>
  <path
     d="M 32.458007,44.715057 6.1026972,15.002858 c 0,0 -0.09939,0.558825 -0.07836,-1.480706 1.184661,-4.9012846 5.3809838,-5.1609906 5.3809838,-5.1609906 l 73.32899,-0.03909 c 0,0 4.227207,0.447602 5.329469,5.0100516 0.04689,3.78069 0.02558,10.507864 0.02558,10.507864 L 37.437894,23.372082 48.05065,36.307891 z"
     id="path14135"
     style="opacity:0.3;fill:#000000;fill-opacity:1;stroke:none" />
  <path
     d="M 32.379832,43.620594 6.0245213,13.908395 c 0,0 -0.09939,0.558825 -0.07836,-1.480706 1.184661,-4.9012842 5.3809847,-5.1609902 5.3809847,-5.1609902 l 73.32899,-0.03909 c 0,0 4.227207,0.447602 5.329469,5.0100512 0.04689,3.78069 0.02558,10.507864 0.02558,10.507864 L 37.359719,22.277619 47.972475,35.213428 z"
     id="path14133"
     style="opacity:0.45;fill:#000000;fill-opacity:1;stroke:none" />
  <path
     d="M 32.301656,42.320731 5.9463454,12.608532 c 0,0 0.045717,0.109686 0.066747,-1.459976 C 6.9632253,6.4212022 11.24897,5.9668352 11.24897,5.9668352 l 73.32899,-0.03909 c 0,0 4.365404,0.3923233 5.412387,5.0929698 0.04689,3.78069 -0.05734,10.424946 -0.05734,10.424946 L 37.281543,20.977756 47.894299,33.913565 z"
     id="path14112"
     style="fill:#ffffff;fill-opacity:1;stroke:none" />
  <rect
     width="32.208469"
     height="30.332247"
     rx="0"
     ry="0"
     x="32.208466"
     y="31.895767"
     id="rect13336"
     style="fill:#ffffff;fill-opacity:1;stroke:none" />
  <rect
     width="16.260586"
     height="15.009772"
     rx="0.26104537"
     x="40.33876"
     y="40.026058"
     id="rect13334"
     style="fill:#000000;fill-opacity:1;stroke:none" />
</svg>
