<?xml version="1.0" encoding="utf-8"?>
<!-- Generator: Adobe Illustrator 23.0.0, SVG Export Plug-In . SVG Version: 6.00 Build 0)  -->
<!DOCTYPE svg PUBLIC "-//W3C//DTD SVG 1.1//EN" "http://www.w3.org/Graphics/SVG/1.1/DTD/svg11.dtd" [
	<!ENTITY ns_extend "http://ns.adobe.com/Extensibility/1.0/">
	<!ENTITY ns_ai "http://ns.adobe.com/AdobeIllustrator/10.0/">
	<!ENTITY ns_graphs "http://ns.adobe.com/Graphs/1.0/">
	<!ENTITY ns_vars "http://ns.adobe.com/Variables/1.0/">
	<!ENTITY ns_imrep "http://ns.adobe.com/ImageReplacement/1.0/">
	<!ENTITY ns_sfw "http://ns.adobe.com/SaveForWeb/1.0/">
	<!ENTITY ns_custom "http://ns.adobe.com/GenericCustomNamespace/1.0/">
	<!ENTITY ns_adobe_xpath "http://ns.adobe.com/XPath/1.0/">
]>
<svg version="1.1" id="레이어_1" xmlns:x="&ns_extend;" xmlns:i="&ns_ai;" xmlns:graph="&ns_graphs;"
	 xmlns="http://www.w3.org/2000/svg" xmlns:xlink="http://www.w3.org/1999/xlink" x="0px" y="0px" viewBox="0 0 16 16"
	 style="enable-background:new 0 0 16 16;" xml:space="preserve">
<style type="text/css">
	.st0{fill:#dedede;}
</style>
<metadata>
	<sfw  xmlns="&ns_sfw;">
		<slices></slices>
		<sliceSourceBounds  bottomLeftOrigin="true" height="12" width="12" x="2" y="-14"></sliceSourceBounds>
	</sfw>
</metadata>
<path class="st0" d="M12.6,9.2v2.5L4.3,3.4h2.5c0.4,0,0.7-0.3,0.7-0.7S7.2,2,6.8,2L2.7,2c0,0-0.3,0-0.5,0.2C2,2.4,2,2.6,2,2.7
	C2,4,2,5.4,2,6.8c0,0.4,0.3,0.7,0.7,0.7s0.7-0.3,0.7-0.7V4.3l8.3,8.3H9.2c-0.4,0-0.7,0.3-0.7,0.7c0,0.4,0.3,0.7,0.7,0.7l4.1,0
	c0,0,0.3,0,0.5-0.2c0.2-0.2,0.2-0.4,0.2-0.5c0-1.4,0-2.7,0-4.1c0-0.4-0.3-0.7-0.7-0.7C12.9,8.5,12.6,8.8,12.6,9.2z"/>
</svg>
