<?xml version="1.0" encoding="utf-8"?>
<!-- Generator: Adobe Illustrator 23.0.0, SVG Export Plug-In . SVG Version: 6.00 Build 0)  -->
<svg version="1.1" id="레이어_1" xmlns="http://www.w3.org/2000/svg" xmlns:xlink="http://www.w3.org/1999/xlink" x="0px"
	 y="0px" viewBox="0 0 16 16" style="enable-background:new 0 0 16 16;" xml:space="preserve">
<style type="text/css">
	.st0{fill:#dedede;}
</style>
<g>
	<path class="st0" d="M2,9.2c0.8,0.6,1.5,0.8,2,1c0.5,0.1,0.6,0.1,1.4,0.3c0.8,0.2,1.2,0.4,1.5,0.5c0.1,0.2,0.4,0.8,0.2,1.3l0,0
		c-0.2,0.2-0.4,0.6-0.4,1c0,0.8,0.6,1.4,1.4,1.4c0.8,0,1.4-0.6,1.4-1.4c0-0.4-0.2-0.7-0.4-1c0,0,0,0,0,0C8.7,11.7,9,11.1,9.1,11
		c0.4-0.2,0.6-0.2,0.9-0.3c0.1,0,0.1,0,0.6-0.1c0.3-0.1,0.4-0.1,0.5-0.1c0.4-0.1,0.6-0.1,0.9-0.2c0.5-0.1,1.2-0.4,2-1
		c0-1.4,0-2.8,0-4.2H2C2,6.4,2,7.8,2,9.2z"/>
	<path class="st0" d="M11.2,1.4c-2.4,0-3.5,1.1-5.8,1.1c-0.8,0-2-0.1-3.4-0.8c0,0.8,0,1.7,0,2.5h12c0-0.8,0-1.5,0-2.3
		C13.4,1.7,12.4,1.4,11.2,1.4z"/>
</g>
</svg>
