<?xml version="1.0" encoding="UTF-8" standalone="no"?>
<svg
   xmlns:dc="http://purl.org/dc/elements/1.1/"
   xmlns:cc="http://creativecommons.org/ns#"
   xmlns:rdf="http://www.w3.org/1999/02/22-rdf-syntax-ns#"
   xmlns:svg="http://www.w3.org/2000/svg"
   xmlns="http://www.w3.org/2000/svg"
   xmlns:sodipodi="http://sodipodi.sourceforge.net/DTD/sodipodi-0.dtd"
   xmlns:inkscape="http://www.inkscape.org/namespaces/inkscape"
   viewBox="0 0 16 16"
   version="1.1"
   id="svg11"
   sodipodi:docname="image-x-generic.svg"
   inkscape:version="0.92.5 (2060ec1f9f, 2020-04-08)">
  <metadata
     id="metadata15">
    <rdf:RDF>
      <cc:Work
         rdf:about="">
        <dc:format>image/svg+xml</dc:format>
        <dc:type
           rdf:resource="http://purl.org/dc/dcmitype/StillImage" />
      </cc:Work>
    </rdf:RDF>
  </metadata>
  <sodipodi:namedview
     pagecolor="#ffffff"
     bordercolor="#666666"
     borderopacity="1"
     objecttolerance="10"
     gridtolerance="10"
     guidetolerance="10"
     inkscape:pageopacity="0"
     inkscape:pageshadow="2"
     inkscape:window-width="1262"
     inkscape:window-height="480"
     id="namedview13"
     showgrid="false"
     inkscape:zoom="14.75"
     inkscape:cx="8.5423729"
     inkscape:cy="1.8374265"
     inkscape:window-x="72"
     inkscape:window-y="28"
     inkscape:window-maximized="0"
     inkscape:current-layer="svg11" />
  <defs
     id="defs4">
    <style
       id="style2">.cls-1{fill:#dedede;}</style>
  </defs>
  <title
     id="title6">picture</title>
  <g
     id="레이어_1"
     data-name="레이어 1"
     style="fill:#dedede;fill-opacity:1">
    <path
       class="cls-1"
       d="M 14.47,0.5 H 1.53 a 1,1 0 0 0 -1,1 v 12.97 a 1,1 0 0 0 1,1 h 12.94 a 1,1 0 0 0 1,-1 V 1.53 a 1,1 0 0 0 -1,-1.03 z M 4.77,3 A 1.5,1.5 0 1 1 3.27,4.5 1.5,1.5 0 0 1 4.77,3 Z m 8.73,6.86 v 3.34 a 0.16,0.16 0 0 1 -0.17,0.16 H 2.67 A 0.16,0.16 0 0 1 2.5,13.2 v -2.5 l 2.17,-1.86 1,-0.89 1,0.89 0.5,0.4 0.94,-0.8 2.1,-1.8 1.69,1.36 0.8,0.69 0.8,0.69 z"
       id="path8"
       inkscape:connector-curvature="0"
       style="fill:#dedede;fill-opacity:1" />
  </g>
</svg>
