<?xml version="1.0" encoding="utf-8"?>
<!-- Generator: Adobe Illustrator 23.0.0, SVG Export Plug-In . SVG Version: 6.00 Build 0)  -->
<svg version="1.1" id="레이어_1" xmlns="http://www.w3.org/2000/svg" xmlns:xlink="http://www.w3.org/1999/xlink" x="0px"
	 y="0px" viewBox="0 0 22 22" style="enable-background:new 0 0 22 22;" xml:space="preserve">
<style type="text/css">
	.st0{fill:#666666;}
	.st1{fill:#FFFFFF;}
</style>
<path class="st0" d="M19.8,8.3C19.6,6.6,19,5.1,18,4l0,0c-1.1-1-2.6-1.6-4.3-1.9C12.1,2,11,2,11,2S9.9,2,8.3,2.2C6.6,2.4,5.1,3,4,4
	C3,5.1,2.4,6.6,2.2,8.3C1.9,9.9,2,11,2,11S2,12.1,2.2,13.7C2.4,15.4,3,16.9,4,18l0,0c1.1,1,2.6,1.6,4.3,1.9C9.9,20.1,11,20,11,20
	s1.1,0.1,2.7-0.2c1.7-0.2,3.2-0.8,4.3-1.9l0,0c1-1.1,1.6-2.6,1.9-4.3C20.1,12.1,20,11,20,11S20.1,9.9,19.8,8.3"/>
<path class="st1" d="M9.2,10.7c0.9-0.4,1.8-0.4,2.6-0.3l0,2.7c1.7-1.4,3.5-2.8,5.2-4.2c-1.7-1.4-3.5-2.8-5.2-4.2l0,2.2
	c-1.6-0.1-3.2,0.4-4.5,1.5c-2.7,2.2-3,6.2-0.8,8.9C5.7,14.4,7,11.7,9.2,10.7z"/>
</svg>
