/* XPM */
static char * bottom_right_inactive_xpm[] = {
"16 16 5 1",
" 	c None",
".	c #FFFFFF s inactive_hilight_2",
"+	c #D8D8D8 s inactive_color_2",
"@	c #888888 s inactive_mid_2",
"#	c #606060 s inactive_shadow_2",
"            .+@#",
"            .+@#",
"            .+@#",
"            .+@#",
"            .+@#",
"            .+@#",
"            .+@#",
"            .+@#",
"            .+@#",
"            .+@#",
"            .+@#",
"            .+@#",
".............+@#",
"++++++++++++++@#",
"@@@@@@@@@@@@@@@#",
"################"};
