/* XPM */
static char * maximize_inactive_xpm[] = {
"14 22 5 1",
"       c None",
".      c #606060 s inactive_shadow_1",
"+      c #FFFFFF s inactive_hilight_1",
"@      c #D8D8D8 s inactive_color_1",
"#      c #888888 s inactive_mid_1",
"              ",
"              ",
"              ",
"              ",
"..............",
".+++++++++++++",
".++++++++++@.+",
".++........+.+",
".++........@.+",
".++........@.+",
".++.+@+@@@.#.+",
".++.@+@@@#.#.+",
".++.+@@@#@.#.+",
".++.@@@#@#.#.+",
".++........#.+",
".+@+@@######.+",
".+...........+",
".+++++++++++++",
"              ",
"              ",
"              ",
"              "};
