/* XPM */
static char * right_active_xpm[] = {
"4 8 5 1",
" 	c None",
".	c #FFFFFF s active_hilight_2",
"+	c #D8D8D8 s active_color_2",
"@	c #888888 s active_mid_2",
"#	c #606060 s active_shadow_2",
".+@#",
".+@#",
".+@#",
".+@#",
".+@#",
".+@#",
".+@#",
".+@#"};
