/* XPM */
static char * stick_active_xpm[] = {
"14 22 6 1",
"       c None",
".      c #B78200 s active_shadow_1",
"+      c #FFFF50 s active_hilight_1",
"@      c #FFCB00 s active_color_1",
"#      c #EAB500 s active_mid_1",
"=      c #FFFFFF s active_text_color",
"              ",
"              ",
"              ",
"              ",
"..............",
".+++++++++++++",
".++++++++++@.+",
".+++++++@+@+.+",
".++++++=+@=@.+",
".+++++@====@.+",
".++========#.+",
".++========#.+",
".++@+@@====#.+",
".+++@@@=@#=#.+",
".++@+@@#####.+",
".+@+@@######.+",
".+...........+",
".+++++++++++++",
"              ",
"              ",
"              ",
"              "};
