/* XPM */
static char * top_right_inactive_xpm[] = {
"8 22 9 1",
" 	c None",
".	c #606060 s inactive_shadow_1",
"+	c #FFFF50 s inactive_hilight_1",
"@	c #FFCB00 s inactive_color_1",
"#	c #AF7B00 s inactive_mid_1",
"$	c #D8D8D8 s inactive_color_2",
"%	c #888888 s inactive_mid_2",
"&	c #FFFFFF s inactive_hilight_2",
"=	c #606060 s inactive_shadow_2",
"........",
"+++++++.",
"@@@@@@#.",
"@@@@@@#.",
"@@@@@@#.",
"@@@@@@#.",
"@@@@@@#.",
"@@@@@@#.",
"@@@@@@#.",
"@@@@@@#.",
"@@@@@@#.",
"@@@@@@#.",
"@@@@@@#.",
"@@@@@@#.",
"@@@@@@#.",
"@@@@@@#.",
"@@@@@@#.",
"@@@@@@#.",
"@@@@@@#.",
"@@@@@@#.",
"$$$$$$%=",
"%%%%%$%="};
