<?xml version="1.0" encoding="utf-8"?>
<!-- Generator: Adobe Illustrator 23.0.0, SVG Export Plug-In . SVG Version: 6.00 Build 0)  -->
<svg version="1.1" id="레이어_1" xmlns="http://www.w3.org/2000/svg" xmlns:xlink="http://www.w3.org/1999/xlink" x="0px"
	 y="0px" viewBox="0 0 16 16" style="enable-background:new 0 0 16 16;" xml:space="preserve">
<style type="text/css">
	.st0{opacity:0.7;fill:#363636;}
	.st1{opacity:0.8;fill:#363636;}
	.st2{fill:#363636;}
	.st3{opacity:0.48;fill:#363636;}
	.st4{opacity:0.6;fill:#363636;}
	.st5{opacity:0.4;fill:#363636;}
</style>
<g>
	<path class="st0" d="M12.1,13.1c0.1-0.1,0.3-0.2,0.5-0.4c0.2-0.2,0.3-0.4,0.4-0.5c0.4-0.6,0.8-1.3,0.8-1.5c0.1-0.1,0.1-0.3,0.2-0.5
		c0-0.1,0-0.3,0-0.4c-1.3,0-2.5,0-3.8,0C10.8,10.9,11.5,12,12.1,13.1z"/>
	<path class="st1" d="M5.8,9.8c-1.3,0-2.5,0-3.8,0c0,0.1,0,0.1,0,0.2c0,0,0,0,0,0c0,0,0,0,0,0c0,0,0,0.1,0,0.1c0,0,0,0.1,0,0.1
		c0.3,0.7,0.7,1.4,1,2.1c0.1,0.1,0.1,0.2,0.2,0.3c0,0,0,0,0,0c0.1,0.1,0.2,0.2,0.3,0.3c0.1,0.1,0.2,0.2,0.3,0.2
		C4.5,12.1,5.2,10.9,5.8,9.8z"/>
	<path class="st2" d="M9.4,2.7c-0.3,0-1.3,0-2.5,0c0,0,0,0,0,0c0,0-0.1,0-0.1,0c-0.1,0-0.3,0-0.4,0.1c0,0-0.1,0.1-0.1,0.1
		C6.8,3.9,7.4,5,8,6C8.7,5,9.3,3.9,9.9,2.9C9.7,2.8,9.5,2.7,9.4,2.7z"/>
	<path class="st3" d="M10.2,9.8c-1.5,0-2.9,0-4.4,0c-0.6,1.1-1.3,2.2-1.9,3.3c0.1,0,0.2,0.1,0.4,0.1c0.1,0,0.3,0,0.4,0h6.5
		c0.1,0,0.3,0,0.5-0.1c0.2-0.1,0.3-0.1,0.5-0.2C11.5,12,10.8,10.9,10.2,9.8z"/>
	<path class="st4" d="M5.8,9.8C6.6,8.6,7.3,7.3,8,6C7.4,5,6.8,3.9,6.2,2.9c0,0,0.1-0.1,0.1-0.1c0,0,0,0,0,0C6,2.9,5.8,3.3,5.8,3.3
		c-0.2,0.2-1.6,2.7-3.6,6c0,0.1-0.1,0.2-0.1,0.3c0,0.1,0,0.2,0,0.3C3.3,9.8,4.6,9.8,5.8,9.8z"/>
	<path class="st5" d="M10.2,9.8C10.2,9.8,10.2,9.8,10.2,9.8c1.3,0,2.5,0,3.8,0c0-0.1,0-0.2,0-0.4c0-0.1,0-0.2-0.1-0.3
		c-1.1-1.8-2.1-3.6-3.2-5.4C10.6,3.6,10.4,3.2,10,3c-0.1,0-0.1-0.1-0.2-0.1c0,0,0,0,0,0C9.3,3.9,8.7,5,8,6.1
		C8.8,7.3,9.5,8.6,10.2,9.8z"/>
</g>
</svg>
