<?xml version="1.0" encoding="utf-8"?>
<!-- Generator: Adobe Illustrator 23.0.0, SVG Export Plug-In . SVG Version: 6.00 Build 0)  -->
<!DOCTYPE svg PUBLIC "-//W3C//DTD SVG 1.1//EN" "http://www.w3.org/Graphics/SVG/1.1/DTD/svg11.dtd" [
	<!ENTITY ns_extend "http://ns.adobe.com/Extensibility/1.0/">
	<!ENTITY ns_ai "http://ns.adobe.com/AdobeIllustrator/10.0/">
	<!ENTITY ns_graphs "http://ns.adobe.com/Graphs/1.0/">
	<!ENTITY ns_vars "http://ns.adobe.com/Variables/1.0/">
	<!ENTITY ns_imrep "http://ns.adobe.com/ImageReplacement/1.0/">
	<!ENTITY ns_sfw "http://ns.adobe.com/SaveForWeb/1.0/">
	<!ENTITY ns_custom "http://ns.adobe.com/GenericCustomNamespace/1.0/">
	<!ENTITY ns_adobe_xpath "http://ns.adobe.com/XPath/1.0/">
]>
<svg version="1.1" id="레이어_1" xmlns:x="&ns_extend;" xmlns:i="&ns_ai;" xmlns:graph="&ns_graphs;"
	 xmlns="http://www.w3.org/2000/svg" xmlns:xlink="http://www.w3.org/1999/xlink" x="0px" y="0px" viewBox="0 0 16 16"
	 style="enable-background:new 0 0 16 16;" xml:space="preserve">
<style type="text/css">
	.st0{fill-rule:evenodd;clip-rule:evenodd;fill:#363636;}
</style>
<metadata>
	<sfw  xmlns="&ns_sfw;">
		<slices></slices>
		<sliceSourceBounds  bottomLeftOrigin="true" height="13.4" width="14" x="1.1" y="1.2"></sliceSourceBounds>
	</sfw>
</metadata>
<path class="st0" d="M14.6,6.2l-4.2-0.7L8.7,1.7c-0.2-0.4-0.8-0.4-1,0L5.8,5.4L1.6,6C1.1,6,0.9,6.6,1.3,6.9l3,3L3.5,14
	c-0.1,0.5,0.4,0.8,0.8,0.6L8,12.7l3.7,2c0.4,0.2,0.9-0.1,0.8-0.6L11.9,10l3.1-2.9C15.3,6.8,15.1,6.3,14.6,6.2z M8,11.5l-3.4,1.7
	l0.7-3.7L2.7,6.8l3.8-0.5L8.2,3l1.6,3.4L13.6,7l-2.8,2.6l0.6,3.8L8,11.5z"/>
</svg>
