<?xml version="1.0" encoding="UTF-8" standalone="no"?>
<svg
   xmlns:dc="http://purl.org/dc/elements/1.1/"
   xmlns:cc="http://creativecommons.org/ns#"
   xmlns:rdf="http://www.w3.org/1999/02/22-rdf-syntax-ns#"
   xmlns:svg="http://www.w3.org/2000/svg"
   xmlns="http://www.w3.org/2000/svg"
   xmlns:sodipodi="http://sodipodi.sourceforge.net/DTD/sodipodi-0.dtd"
   xmlns:inkscape="http://www.inkscape.org/namespaces/inkscape"
   height="64"
   width="64"
   version="1.1"
   id="svg19"
   sodipodi:docname="folder-root.svg"
   inkscape:version="0.92.4 (5da689c313, 2019-01-14)">
  <metadata
     id="metadata25">
    <rdf:RDF>
      <cc:Work
         rdf:about="">
        <dc:format>image/svg+xml</dc:format>
        <dc:type
           rdf:resource="http://purl.org/dc/dcmitype/StillImage" />
      </cc:Work>
    </rdf:RDF>
  </metadata>
  <defs
     id="defs23" />
  <sodipodi:namedview
     pagecolor="#ffffff"
     bordercolor="#666666"
     borderopacity="1"
     objecttolerance="10"
     gridtolerance="10"
     guidetolerance="10"
     inkscape:pageopacity="0"
     inkscape:pageshadow="2"
     inkscape:window-width="1920"
     inkscape:window-height="1022"
     id="namedview21"
     showgrid="false"
     inkscape:zoom="3.1829301"
     inkscape:cx="-44.386291"
     inkscape:cy="64.220364"
     inkscape:window-x="0"
     inkscape:window-y="0"
     inkscape:window-maximized="1"
     inkscape:current-layer="svg19" />
  <linearGradient
     id="a"
     gradientUnits="userSpaceOnUse"
     x1="3"
     x2="3"
     y1="58"
     y2="16">
    <stop
       offset="0"
       stop-color="#3daee9"
       id="stop2" />
    <stop
       offset="1"
       stop-color="#6cc1ef"
       id="stop4" />
  </linearGradient>
  <path
     d="m 3.9999997,6 v 27 c 0,0.554 0.446,1 1,1 H 59 c 0.554,0 1,-0.446 1,-1 V 11.01 L 59.998,11 H 60 V 10 H 32 L 28,6 Z"
     id="path7"
     style="fill:#3daee9;fill-opacity:1"
     inkscape:connector-curvature="0" />
  <path
     d="M 3,20 V 58 H 61 V 16 H 26 l -4,4 z"
     id="path9"
     style="fill:#00171e;fill-opacity:1"
     inkscape:connector-curvature="0" />
  <g
     fill-opacity=".235"
     id="g15">
    <path
       d="M3 20v1h20l3-5-4 4zM28 6l3 5h29v-1H32z"
       fill="#fff"
       id="path11" />
    <path
       d="M4 19v1h18l4-4-6 3zM3 57v1h58v-1z"
       fill="#000"
       id="path13" />
  </g>
  <path
     d="M34 27h-2L22 47h2zm-2 19h10v1H32z"
     fill="#1272a5"
     id="path17"
     style="fill:#1795d9;fill-opacity:1" />
</svg>
