<?xml version="1.0" encoding="UTF-8" standalone="no"?>
<svg
   xmlns:dc="http://purl.org/dc/elements/1.1/"
   xmlns:cc="http://creativecommons.org/ns#"
   xmlns:rdf="http://www.w3.org/1999/02/22-rdf-syntax-ns#"
   xmlns:svg="http://www.w3.org/2000/svg"
   xmlns="http://www.w3.org/2000/svg"
   xmlns:xlink="http://www.w3.org/1999/xlink"
   xmlns:sodipodi="http://sodipodi.sourceforge.net/DTD/sodipodi-0.dtd"
   xmlns:inkscape="http://www.inkscape.org/namespaces/inkscape"
   viewBox="0 0 64 64"
   version="1.1"
   id="svg12"
   sodipodi:docname="folder-Pop_OS.svg"
   inkscape:version="1.0.1 (3bc2e813f5, 2020-09-07)">
  <metadata
     id="metadata16">
    <rdf:RDF>
      <cc:Work
         rdf:about="">
        <dc:format>image/svg+xml</dc:format>
        <dc:type
           rdf:resource="http://purl.org/dc/dcmitype/StillImage" />
      </cc:Work>
    </rdf:RDF>
  </metadata>
  <sodipodi:namedview
     pagecolor="#ffffff"
     bordercolor="#666666"
     borderopacity="1"
     objecttolerance="10"
     gridtolerance="10"
     guidetolerance="10"
     inkscape:pageopacity="0"
     inkscape:pageshadow="2"
     inkscape:window-width="1920"
     inkscape:window-height="1007"
     id="namedview14"
     showgrid="false"
     inkscape:zoom="4.501343"
     inkscape:cx="8.6140992"
     inkscape:cy="-16.050092"
     inkscape:window-x="0"
     inkscape:window-y="0"
     inkscape:window-maximized="1"
     inkscape:current-layer="svg12"
     inkscape:document-rotation="0" />
  <defs
     id="defs3051">
    <style
       type="text/css"
       id="current-color-scheme">
      .ColorScheme-Text {
        color:#31363b;
      }
      .ColorScheme-Background {
        color:#eff0f1;
      }
      .ColorScheme-Highlight {
        color:#3daee9;
      }
      .ColorScheme-ViewText {
        color:#31363b;
      }
      .ColorScheme-ViewBackground {
        color:#fcfcfc;
      }
      .ColorScheme-ViewHover {
        color:#93cee9;
      }
      .ColorScheme-ViewFocus{
        color:#3daee9;
      }
      .ColorScheme-ButtonText {
        color:#31363b;
      }
      .ColorScheme-ButtonBackground {
        color:#eff0f1;
      }
      .ColorScheme-ButtonHover {
        color:#93cee9;
      }
      .ColorScheme-ButtonFocus{
        color:#3daee9;
      }
      </style>
    <linearGradient
       inkscape:collect="always"
       xlink:href="#linearGradient848"
       id="linearGradient882"
       x1="38.886646"
       y1="37.846565"
       x2="42.124203"
       y2="37.846565"
       gradientUnits="userSpaceOnUse"
       gradientTransform="translate(0.11399941,-3.0357255)" />
    <linearGradient
       inkscape:collect="always"
       id="linearGradient848">
      <stop
         style="stop-color:#286aeb;stop-opacity:1"
         offset="0"
         id="stop844" />
      <stop
         style="stop-color:#00aad4;stop-opacity:1"
         offset="1"
         id="stop846" />
    </linearGradient>
    <linearGradient
       inkscape:collect="always"
       xlink:href="#linearGradient848"
       id="linearGradient866"
       x1="29.485872"
       y1="39.437679"
       x2="33.387089"
       y2="39.437679"
       gradientUnits="userSpaceOnUse"
       gradientTransform="translate(0.11399941,-3.0357255)" />
    <linearGradient
       inkscape:collect="always"
       xlink:href="#linearGradient848"
       id="linearGradient874"
       x1="34.126762"
       y1="39.295525"
       x2="38.177818"
       y2="39.295525"
       gradientUnits="userSpaceOnUse"
       gradientTransform="translate(0.11399941,-3.0357255)" />
    <linearGradient
       inkscape:collect="always"
       xlink:href="#linearGradient848"
       id="linearGradient858"
       x1="21.886"
       y1="38.515591"
       x2="28.731234"
       y2="38.515591"
       gradientUnits="userSpaceOnUse"
       gradientTransform="translate(0.11399941,-3.0357255)" />
  </defs>
  <path
     style="fill:#00171e;fill-opacity:1;stroke:none"
     d="M 4 6 L 4 11 L 4 20 L 3 20 L 3 21 L 3.0019531 21 C 3.0019031 21.004 3 21.008019 3 21.011719 L 3 57 L 3 58 L 4 58 L 60 58 L 61 58 L 61 57 L 61 21.011719 L 61 21 L 61 16 L 60 16 L 60 11.009766 C 60 11.006766 59.998047 11.004 59.998047 11 L 60 11 L 60 10 L 32 10 L 28 6 L 4 6 z "
     class="ColorScheme-Highlight"
     id="path4" />
  <path
     style="fill-opacity:1;fill-rule:evenodd;fill:#3daee9"
     d="M 4 6 L 4 11 L 4 20 L 22 20 L 26 16 L 60 16 L 60 11.009766 C 60 11.006766 59.998047 11.004 59.998047 11 L 60 11 L 60 10 L 32 10 L 28 6 L 4 6 z "
     id="path6" />
  <path
     style="fill:#ffffff;fill-opacity:0.2;fill-rule:evenodd"
     d="M 28 6 L 31 11 L 33 11 L 60 11 L 60 10 L 33 10 L 32 10 L 28 6 z M 26 16 L 22 20 L 3 20 L 3 21 L 23 21 L 26 16 z "
     id="path8" />
  <path
     style="fill-opacity:0.2;fill-rule:evenodd"
     d="M 26 16 L 20 19 L 4 19 L 4 20 L 22 20 L 26 16 z M 3 57 L 3 58 L 4 58 L 60 58 L 61 58 L 61 57 L 60 57 L 4 57 L 3 57 z "
     class="ColorScheme-Text"
     id="path10" />
  <path
     style="fill:url(#linearGradient882);fill-opacity:1;stroke-width:0.0197677"
     id="path2-3"
     d="m 40.115622,37.932388 c -0.03715,0.157846 -0.117345,0.297711 -0.254239,0.385627 -0.21512,0.137864 -0.477183,0.09792 -0.662972,-0.06994 -0.174056,-0.155851 -0.232724,-0.4196 -0.177968,-0.64738 0.05674,-0.23777 0.236638,-0.447571 0.467405,-0.513502 0.514341,-0.145861 0.727517,0.425586 0.627774,0.845186 z m -0.314864,-1.622441 c -0.318776,-0.129874 -0.209256,-1.838226 0.08213,-3.912236 0.08213,-0.579438 0.222953,-0.853176 0.381358,-0.993041 0.226861,-0.19781 0.63951,-0.205802 0.919174,-0.163842 0.32073,0.04794 0.627773,0.199805 0.860495,0.429582 0.20535,0.203804 0.228815,0.411604 0.158411,0.681344 -0.11538,0.42959 -0.312909,0.841193 -0.50261,1.242807 -0.04495,0.09792 -0.438072,0.859174 -0.490877,0.953081 -0.948504,1.706359 -1.138205,1.872201 -1.408087,1.762305 z" />
  <path
     style="fill:url(#linearGradient866);fill-opacity:1;stroke-width:0.0197677"
     id="path4-3"
     d="m 33.366579,35.540688 c 0.187744,0.819215 0.168181,1.718343 0.008,2.365724 -0.150588,0.611413 -0.559322,1.158882 -1.20861,1.342705 -0.569101,0.161843 -1.232076,0.04395 -1.638856,-0.355657 -0.668842,-0.655372 -1.059979,-2.193888 -0.885923,-3.310812 0.140808,-0.897135 0.614081,-2.046034 1.652548,-2.095984 0.06647,-0.0041 0.132985,-0.0017 0.199478,0.0041 1.058022,0.09792 1.634948,1.00903 1.873541,2.050027 z m -1.912657,1.864205 c 0.05869,0.01005 0.117338,0.01005 0.176013,-0.0082 0.197519,-0.05794 0.310952,-0.267745 0.363759,-0.471548 0.08018,-0.309703 0.06847,-0.64338 -0.03517,-0.947089 -0.05281,-0.153851 -0.131031,-0.303708 -0.250331,-0.415601 -0.420464,-0.393618 -0.840941,0.01599 -0.913298,0.481537 -0.05674,0.363654 0.02539,0.785247 0.248373,1.078965 0.103641,0.135867 0.252282,0.253753 0.410686,0.281728 z" />
  <path
     style="fill:url(#linearGradient874);fill-opacity:1;stroke-width:0.0197677"
     id="path6-6"
     d="m 35.656678,37.277017 c -0.0017,1.512547 0.146672,2.66943 -0.504569,2.807301 -0.528032,0.109869 -0.510426,-0.363653 -0.551501,-0.761274 -0.15645,-1.540516 -0.299219,-4.100051 -0.359845,-5.648562 0.04304,-0.665357 0.479146,-1.072968 0.93286,-1.172868 0.700134,-0.153853 1.447206,-0.109883 2.067155,0.281729 1.226207,0.77525 1.323994,2.19788 0.580835,3.358764 -0.406782,0.633391 -1.636905,1.09295 -2.164935,1.052986 z m 0.156453,-3.390738 c -0.0763,0.01201 -0.201438,0.04795 -0.236638,0.123884 -0.08408,0.177826 -0.07825,1.306744 0.06847,1.780285 0.02351,0.07792 0.07626,0.151854 0.152544,0.179832 0.277702,0.10387 0.528034,-0.243769 0.641459,-0.453569 0.158413,-0.291718 0.209258,-0.635386 0.109497,-0.955082 -0.09386,-0.297715 -0.385269,-0.729295 -0.735336,-0.67535 z" />
  <path
     style="fill:url(#linearGradient858);fill-opacity:1;stroke-width:0.0197677"
     id="path8-7"
     d="m 28.643613,34.637557 c -0.459583,0.993047 -1.222299,1.782286 -2.278365,2.17191 0.303132,0.809219 0.612127,1.608453 0.913303,2.415678 0.168188,0.435574 0.328557,0.913115 0.181875,1.342704 -0.152544,0.439575 -0.747064,0.561458 -1.179273,0.09389 -0.831159,-0.903133 -3.641476,-6.625625 -3.848776,-7.055209 -0.176012,-0.369645 -0.440026,-0.765261 -0.432207,-1.192851 0.01372,-0.643383 0.987621,-1.294755 1.455031,-1.628433 C 24.108395,30.319694 24.863286,30.002 25.670983,30 c 0.629727,0 1.167541,0.175832 1.644725,0.48753 0.731428,0.479539 1.239903,1.244805 1.427649,2.109971 0.16427,0.761261 0.129073,1.540518 -0.09972,2.040036 M 26.502163,33.550585 C 26.337887,32.94117 25.966307,32.379712 25.498896,31.98609 25.39718,31.90018 25.287683,31.820253 25.160563,31.776295 c -0.87614,-0.293717 -0.496738,1.202842 -0.353976,1.580477 0.197527,0.529489 0.496742,1.198842 0.89766,1.598464 0.08803,0.08795 0.191656,0.165834 0.310951,0.189814 0.181876,0.03794 0.350064,-0.09191 0.441983,-0.243769 0.07627,-0.125877 0.105571,-0.275731 0.123205,-0.421588 0.03329,-0.309705 0.0041,-0.625402 -0.07825,-0.929108 z" />
  <path
     style="fill:#3bb4c4;fill-opacity:1;stroke-width:0.0197677"
     id="path10-5"
     d="m 39.120873,42.243664 c -0.0041,0.877155 -0.528032,1.754316 -1.683836,1.754316 -1.155806,0 -1.693619,-0.863173 -1.693619,-1.744326 0,-1.098944 0.749021,-1.778287 1.71708,-1.778287 1.122568,0.01005 1.670157,0.861167 1.660375,1.768297 z m -1.660375,-1.214829 c -0.725551,0 -1.132335,0.515508 -1.136248,1.218821 0,0.611413 0.334427,1.184868 1.122561,1.184868 0.788141,0 1.089313,-0.621404 1.089313,-1.190859 0.0097,-0.591428 -0.29726,-1.198844 -1.075626,-1.21283 z m 2.145383,2.519575 c 0,0.129873 0.0041,-0.617405 0,-0.731294 h 0.531946 l 0.03716,0.457556 c 0.174056,0.101943 0.443938,0.177831 0.664933,0.177831 0.410689,0 0.838985,-0.105927 0.838985,-0.515507 -0.01366,-0.371637 -0.490877,-0.44757 -0.876148,-0.487524 -0.655146,-0.06797 -1.183186,-0.231785 -1.183186,-0.983057 0,-0.669354 0.741204,-1.003036 1.292708,-1.003036 0.443938,-0.01005 0.758803,0.0619 1.159714,0.389623 0,0.269739 -0.0041,0.42959 -0.0041,0.699329 h -0.514172 l -0.03327,-0.443578 c -0.207303,-0.101933 -0.420471,-0.129868 -0.58475,-0.125877 -0.353977,0.0041 -0.731424,0.17384 -0.731424,0.477541 0,0.297716 0.244462,0.379641 0.678622,0.443571 0.707956,0.09595 1.390487,0.259758 1.390487,1.031014 -0.0041,0.843187 -0.778358,1.064976 -1.443291,1.064976 -0.50652,0.0017 -0.823339,-0.09389 -1.224255,-0.451568 z"
     inkscape:connector-curvature="0" />
  <path
     style="fill:#faa41a;stroke-width:0.0197677"
     id="path12"
     d="m 35.025684,43.710253 c 0,0.153854 -0.12125,0.277729 -0.271839,0.277729 h -3.142773 c -0.150588,0 -0.271839,-0.123875 -0.271839,-0.277729 v -0.02395 c 0,-0.153851 0.121251,-0.277734 0.271839,-0.277734 h 3.142773 c 0.150589,0 0.271839,0.123883 0.271839,0.277734 z"
     inkscape:connector-curvature="0" />
</svg>
