<svg width="64" height="64" viewBox="0 0 64 64" fill="none" xmlns="http://www.w3.org/2000/svg">
<g clip-path="url(#clip0)">
<path d="M8.24717 5.28688C10.8404 4.80099 13.5052 5.09747 16.1297 5.01923C18.8839 5.09747 21.902 4.61569 24.37 6.03631C26.7218 7.40752 28.2688 9.63522 30.3702 11.2823C31.1437 11.8341 32.1453 12.04 33.1155 12.0235C42.5183 12.0235 51.921 12.0359 61.3238 12.0894C62.9423 11.9617 64.3418 13.5059 63.926 14.9471C63.6979 16.063 62.522 16.8907 61.2969 16.8166C51.7466 16.8289 42.1963 16.7836 32.646 16.7754C30.4597 16.763 28.2778 16.0177 26.6547 14.663C24.6696 13.1765 23.3506 10.8953 21.0033 9.87817C17.7483 9.63934 14.462 9.84523 11.1981 9.77522C8.9536 9.63934 6.7091 10.8252 5.75228 12.7029C5.09503 13.893 5.21128 15.2601 5.20234 16.5489C5.22469 27.3992 5.19339 38.2494 5.21575 49.1038C5.17998 51.138 6.62415 53.0815 8.66745 53.8392C9.88359 54.3169 11.2339 54.2263 12.526 54.2345C26.1093 54.2139 39.6925 54.2428 53.2713 54.218C55.3727 54.2263 57.3847 53.0157 58.2611 51.2656C58.963 49.9521 58.7618 48.4532 58.7886 47.0408C58.7976 41.0124 58.7574 34.9841 58.8065 28.9557C58.7708 27.6009 60.206 26.4603 61.6546 26.6374C63.0765 26.7239 64.1406 28.0086 63.9796 29.2975C63.9796 36.0341 64.0109 42.7707 63.9662 49.5115C63.9036 54.498 59.1016 58.8917 53.696 58.974C39.384 59.0234 25.0675 58.9864 10.7555 58.9905C6.61521 59.0317 2.60462 56.6516 0.945834 53.1557C0.163389 51.6362 -0.0243975 49.9356 0.00242916 48.272C0.0381981 37.01 -0.0243977 25.7397 0.0337268 14.4777C0.114207 10.1664 3.70004 6.22985 8.24717 5.28688Z" fill="url(#paint0_linear)"/>
<path d="M21.5455 27.0909C21.5455 26.5386 21.9932 26.0909 22.5455 26.0909H23.0909C23.6432 26.0909 24.0909 26.5386 24.0909 27.0909V28.9091C24.0909 29.4614 24.5386 29.9091 25.0909 29.9091H35.8182C36.3705 29.9091 36.8182 29.4614 36.8182 28.9091V27.0909C36.8182 26.5386 37.2659 26.0909 37.8182 26.0909H38.3636C38.9159 26.0909 39.3636 26.5386 39.3636 27.0909V31.4545C39.3636 32.0068 39.8114 32.4545 40.3636 32.4545H40.9091C41.4614 32.4545 41.9091 32.0068 41.9091 31.4545V24.5455C41.9091 23.9932 41.4614 23.5455 40.9091 23.5455H34.7451C34.3241 23.5455 33.9587 23.2746 33.7468 22.9109C33.0834 21.7724 31.8609 21 30.4545 21C29.0482 21 27.8257 21.7724 27.1623 22.9109C26.9504 23.2746 26.585 23.5455 26.164 23.5455H20C19.4477 23.5455 19 23.9932 19 24.5455V45.4545C19 46.0068 19.4477 46.4545 20 46.4545H26.9091C27.4614 46.4545 27.9091 46.0068 27.9091 45.4545V44.9091C27.9091 44.3568 27.4614 43.9091 26.9091 43.9091H22.5455C21.9932 43.9091 21.5455 43.4614 21.5455 42.9091V27.0909ZM30.4545 23.5455C31.1545 23.5455 31.7273 24.1182 31.7273 24.8182C31.7273 25.5182 31.1545 26.0909 30.4545 26.0909C29.7545 26.0909 29.1818 25.5182 29.1818 24.8182C29.1818 24.1182 29.7545 23.5455 30.4545 23.5455Z" fill="url(#paint1_linear)" stroke="url(#paint2_linear)"/>
<path d="M41.0182 43.7818C41.5273 42.8909 41.9091 41.8727 41.9091 40.7273C41.9091 37.5455 39.3637 35 36.1819 35C33 35 30.4546 37.5455 30.4546 40.7273C30.4546 43.9091 33 46.4545 36.1819 46.4545C37.3273 46.4545 38.3455 46.0727 39.2364 45.5636L42.3192 48.6464C42.5145 48.8417 42.8311 48.8417 43.0263 48.6464L44.101 47.5717C44.2963 47.3765 44.2963 47.0599 44.101 46.8646L41.0182 43.7818ZM36.1819 43.9091C34.4 43.9091 33 42.5091 33 40.7273C33 38.9455 34.4 37.5455 36.1819 37.5455C37.9637 37.5455 39.3637 38.9455 39.3637 40.7273C39.3637 42.5091 37.9637 43.9091 36.1819 43.9091Z" fill="url(#paint3_linear)" stroke="url(#paint4_linear)"/>
</g>
<defs>
<linearGradient id="paint0_linear" x1="32" y1="59" x2="32" y2="5" gradientUnits="userSpaceOnUse">
<stop stop-color="#02AA93"/>
<stop offset="1" stop-color="#67FF80"/>
</linearGradient>
<linearGradient id="paint1_linear" x1="30.4545" y1="46.4545" x2="30.4545" y2="21" gradientUnits="userSpaceOnUse">
<stop stop-color="#02AA93"/>
<stop offset="1" stop-color="#67FF80"/>
</linearGradient>
<linearGradient id="paint2_linear" x1="30.4545" y1="46.4545" x2="30.4545" y2="21" gradientUnits="userSpaceOnUse">
<stop stop-color="#02AA93"/>
<stop offset="1" stop-color="#67FF80"/>
</linearGradient>
<linearGradient id="paint3_linear" x1="37.4546" y1="49" x2="37.4546" y2="35" gradientUnits="userSpaceOnUse">
<stop stop-color="#02AA93"/>
<stop offset="1" stop-color="#67FF80"/>
</linearGradient>
<linearGradient id="paint4_linear" x1="37.4546" y1="49" x2="37.4546" y2="35" gradientUnits="userSpaceOnUse">
<stop stop-color="#02AA93"/>
<stop offset="1" stop-color="#67FF80"/>
</linearGradient>
<clipPath id="clip0">
<rect width="64" height="64" fill="white"/>
</clipPath>
</defs>
</svg>
