<svg width="64" height="64" viewBox="0 0 64 64" fill="none" xmlns="http://www.w3.org/2000/svg">
<path d="M8.27138 5.27874C10.8465 4.80105 13.4931 5.10167 16.0995 5.01931C18.7818 5.11402 21.6833 4.61163 24.1287 5.91291C26.6233 7.25537 28.2014 9.59027 30.3697 11.291C31.1476 11.814 32.1222 12.0528 33.0834 12.024C42.3242 12.024 51.565 12.024 60.8058 12.0611C62.062 11.9252 63.4747 12.4976 63.8458 13.6835C64.4896 15.2031 63.0187 16.9656 61.2707 16.8256C51.7438 16.8338 42.2124 16.7926 32.6855 16.7761C30.3786 16.7803 28.0807 15.9525 26.4177 14.4742C24.9692 13.1853 23.6503 11.7769 22.2019 10.4962C21.5402 9.91559 20.6014 9.73028 19.7117 9.77146C16.6404 9.79617 13.5646 9.75087 10.4933 9.79205C7.60526 9.85794 5.11512 12.2917 5.20006 14.9519C5.20006 26.3381 5.19112 37.7243 5.19559 49.1147C5.12406 51.8408 7.78408 54.291 10.7481 54.2292C24.9111 54.2374 39.074 54.2374 53.237 54.2251C56.201 54.2786 58.8655 51.8119 58.7671 49.0735C58.7761 42.6288 58.7716 36.1883 58.7627 29.7437C58.7761 28.9901 58.7493 28.1459 59.3215 27.5364C60.2469 26.3752 62.3347 26.3093 63.3317 27.4252C63.9844 28.0347 63.9844 28.9365 63.9799 29.7354C63.9486 36.3407 64.0023 42.9459 63.9531 49.5512C63.8681 54.5298 59.0667 58.8949 53.6796 58.9772C39.3691 59.0143 25.0586 58.9978 10.7481 58.9855C6.61278 59.0266 2.60262 56.6506 0.948489 53.1544C0.157187 51.6307 -0.012696 49.9177 0.000715861 48.254C0.0364809 36.9954 -0.0350494 25.7369 0.0275394 14.4824C0.112481 10.1585 3.70687 6.21352 8.27138 5.27874Z" fill="url(#paint0_linear)"/>
<path d="M30.0187 23.8823C30.0371 22.1453 32.4985 21.3611 33.6224 22.6144C34.0684 23.1641 34.2268 23.8786 34.2416 24.5712C34.2895 28.078 34.1937 31.585 34.2527 35.0882C35.8187 34.0181 37.4585 33.0581 39.0431 32.0174C39.7394 31.574 40.5797 31.0903 41.4345 31.3651C42.6469 31.6143 43.3728 33.1204 42.8017 34.2197C42.5069 34.8867 41.8583 35.2641 41.2724 35.6452C38.645 37.3015 36.0177 38.9615 33.394 40.6252C32.6128 41.1309 31.4521 41.1529 30.7372 40.5189C28.1209 38.5694 25.3462 36.8362 22.7335 34.8829C21.6317 34.0072 21.7865 32.0503 23.0946 31.4641C23.8832 31.0023 24.8671 31.2368 25.5746 31.7389C27.0485 32.7576 28.5262 33.7727 29.9928 34.806C30.0112 31.1635 29.9486 27.5211 30.0187 23.8823Z" fill="url(#paint1_linear)"/>
<path d="M22.4327 44.1205C22.5907 44.0929 22.9104 44.0411 23.072 44.0135C28.9509 43.9929 34.8336 44.0101 40.7125 44.0066C42.2998 43.8755 43.652 45.7282 42.6636 46.9979C42.2374 47.8121 41.2233 48.0502 40.3341 47.9916C34.4552 47.9501 28.5725 48.0329 22.6936 47.9501C20.5845 47.7569 20.3861 44.5621 22.4327 44.1205Z" fill="url(#paint2_linear)"/>
<defs>
<linearGradient id="paint0_linear" x1="32" y1="59" x2="32" y2="5" gradientUnits="userSpaceOnUse">
<stop stop-color="#02AA93"/>
<stop offset="1" stop-color="#67FF80"/>
</linearGradient>
<linearGradient id="paint1_linear" x1="32.5" y1="41" x2="32.5" y2="22" gradientUnits="userSpaceOnUse">
<stop stop-color="#02AA93"/>
<stop offset="1" stop-color="#67FF80"/>
</linearGradient>
<linearGradient id="paint2_linear" x1="32" y1="48" x2="32" y2="44.0001" gradientUnits="userSpaceOnUse">
<stop stop-color="#02AA93"/>
<stop offset="1" stop-color="#67FF80"/>
</linearGradient>
</defs>
</svg>
