<svg width="64" height="64" viewBox="0 0 64 64" fill="none" xmlns="http://www.w3.org/2000/svg">
<path d="M8.24717 5.28688C10.8404 4.80099 13.5052 5.09747 16.1297 5.01923C18.8839 5.09747 21.902 4.61569 24.37 6.03631C26.7218 7.40752 28.2688 9.63522 30.3702 11.2823C31.1437 11.8341 32.1453 12.04 33.1155 12.0235C42.5183 12.0235 51.921 12.0359 61.3238 12.0894C62.9423 11.9617 64.3418 13.5059 63.926 14.9471C63.6979 16.063 62.522 16.8907 61.2969 16.8166C51.7466 16.8289 42.1963 16.7836 32.646 16.7754C30.4597 16.763 28.2778 16.0177 26.6547 14.663C24.6696 13.1765 23.3506 10.8953 21.0033 9.87817C17.7483 9.63934 14.462 9.84523 11.1981 9.77522C8.9536 9.63934 6.7091 10.8252 5.75228 12.7029C5.09503 13.893 5.21128 15.2601 5.20234 16.5489C5.22469 27.3992 5.19339 38.2494 5.21575 49.1038C5.17998 51.138 6.62415 53.0815 8.66745 53.8392C9.88359 54.3169 11.2339 54.2263 12.526 54.2345C26.1093 54.2139 39.6925 54.2428 53.2713 54.218C55.3727 54.2263 57.3847 53.0157 58.2611 51.2656C58.963 49.9521 58.7618 48.4532 58.7886 47.0408C58.7976 41.0124 58.7574 34.9841 58.8065 28.9557C58.7708 27.6009 60.206 26.4603 61.6546 26.6374C63.0765 26.7239 64.1406 28.0086 63.9796 29.2975C63.9796 36.0341 64.0109 42.7707 63.9662 49.5115C63.9036 54.498 59.1016 58.8917 53.696 58.974C39.384 59.0234 25.0675 58.9864 10.7555 58.9905C6.61521 59.0317 2.60462 56.6516 0.945834 53.1557C0.163389 51.6362 -0.0243975 49.9356 0.00242917 48.272C0.0381981 37.01 -0.0243977 25.7397 0.0337268 14.4777C0.114207 10.1664 3.70004 6.22985 8.24717 5.28688Z" fill="url(#paint0_linear)"/>
<path d="M28.8769 22.6144C31.9396 22.0132 35.2348 22.285 38.074 23.5285C39.4332 24.0721 39.5629 25.9951 38.3333 26.728C37.4793 27.3622 36.3973 26.9298 35.4986 26.6416C31.7965 25.3486 27.3567 26.308 24.607 28.9187C21.7186 31.554 20.7931 35.8241 22.443 39.2624C24.1822 43.1908 29.0021 45.6944 33.5581 44.982C38.3378 44.3932 42.2947 40.3825 42.3707 35.923C42.5227 34.3459 41.9102 32.8594 41.4452 31.3728C40.9757 29.9646 42.8491 28.651 44.2352 29.3099C45.2322 29.6722 45.496 30.7305 45.8224 31.5623C47.4678 36.2359 46.0102 41.6796 42.1472 45.0767C37.4078 49.4497 29.3151 50.1045 23.829 46.5385C18.4458 43.302 16.094 36.5447 18.3966 31.0187C20.0375 26.8145 24.133 23.5368 28.8769 22.6144Z" fill="url(#paint1_linear)"/>
<path d="M30.0796 29.2645C30.3837 27.568 33.2541 27.3333 33.9114 28.9269C34.3227 30.3928 34.0231 31.9452 34.117 33.444C34.0321 34.5476 34.3853 35.8117 33.6431 36.7753C32.2705 37.7965 30.6117 38.4183 29.1228 39.2871C28.1615 39.7606 27.1197 40.5265 25.9662 40.1148C24.6249 39.6618 24.2269 37.8294 25.3447 36.9894C26.7933 36.0382 28.4164 35.3382 29.95 34.5146C30.0841 32.7687 29.9097 31.0104 30.0796 29.2645Z" fill="url(#paint2_linear)"/>
<defs>
<linearGradient id="paint0_linear" x1="0" y1="31.9999" x2="64.001" y2="31.9999" gradientUnits="userSpaceOnUse">
<stop stop-color="#5433FF"/>
<stop offset="0.517391" stop-color="#20BDFF"/>
<stop offset="0.982609" stop-color="#A5FECB"/>
</linearGradient>
<linearGradient id="paint1_linear" x1="17.5159" y1="35.5726" x2="46.4908" y2="35.5726" gradientUnits="userSpaceOnUse">
<stop stop-color="#5433FF"/>
<stop offset="0.517391" stop-color="#20BDFF"/>
<stop offset="0.982609" stop-color="#A5FECB"/>
</linearGradient>
<linearGradient id="paint2_linear" x1="24.6943" y1="34.0424" x2="34.1357" y2="34.0424" gradientUnits="userSpaceOnUse">
<stop stop-color="#5433FF"/>
<stop offset="0.517391" stop-color="#20BDFF"/>
<stop offset="0.982609" stop-color="#A5FECB"/>
</linearGradient>
</defs>
</svg>
