<svg width="64" height="64" viewBox="0 0 64 64" fill="none" xmlns="http://www.w3.org/2000/svg">
<path d="M8.27138 5.27874C10.8465 4.80105 13.4931 5.10167 16.0995 5.01931C18.7818 5.11402 21.6833 4.61163 24.1287 5.91291C26.6233 7.25537 28.2014 9.59027 30.3697 11.291C31.1476 11.814 32.1222 12.0528 33.0834 12.024C42.3242 12.024 51.565 12.024 60.8058 12.0611C62.062 11.9252 63.4747 12.4976 63.8458 13.6835C64.4896 15.2031 63.0187 16.9656 61.2707 16.8256C51.7438 16.8338 42.2124 16.7926 32.6855 16.7761C30.3786 16.7803 28.0807 15.9525 26.4177 14.4742C24.9692 13.1853 23.6503 11.7769 22.2019 10.4962C21.5402 9.91559 20.6014 9.73028 19.7117 9.77146C16.6404 9.79617 13.5646 9.75087 10.4933 9.79205C7.60526 9.85794 5.11512 12.2917 5.20006 14.9519C5.20006 26.3381 5.19112 37.7243 5.19559 49.1147C5.12406 51.8408 7.78408 54.291 10.7481 54.2292C24.9111 54.2374 39.074 54.2374 53.237 54.2251C56.201 54.2786 58.8655 51.8119 58.7671 49.0735C58.7761 42.6288 58.7716 36.1883 58.7627 29.7437C58.7761 28.9901 58.7493 28.1459 59.3215 27.5364C60.2469 26.3752 62.3347 26.3093 63.3317 27.4252C63.9844 28.0347 63.9844 28.9365 63.9799 29.7354C63.9486 36.3407 64.0023 42.9459 63.9531 49.5512C63.8681 54.5298 59.0667 58.8949 53.6796 58.9772C39.3691 59.0143 25.0586 58.9978 10.7481 58.9855C6.61278 59.0266 2.60262 56.6506 0.948489 53.1544C0.157187 51.6307 -0.012696 49.9177 0.000715861 48.254C0.0364809 36.9954 -0.0350494 25.7369 0.0275394 14.4824C0.112481 10.1585 3.70687 6.21352 8.27138 5.27874Z" fill="url(#paint0_linear)"/>
<path d="M23.4447 22.949C26.5697 21.8742 29.6633 23.6696 32.0954 25.3209C33.4723 26.441 32.2608 28.78 30.4368 28.4877C28.6485 28.1088 27.3878 26.5481 25.5012 26.3669C24.1064 26.3545 23.8292 27.8905 23.8247 28.8871C23.8023 33.2975 23.8158 37.7037 23.8158 42.1099C23.8471 43.0612 23.9096 44.3501 25.0184 44.7784C26.2076 44.9472 27.2447 44.2636 28.2149 43.7407C31.5991 41.764 35.0281 39.8492 38.4034 37.8684C39.3825 37.2878 40.451 36.2912 40.0889 35.1176C39.4987 33.4292 37.3171 33.071 36.2128 31.8026C35.274 30.4725 36.7627 28.5741 38.4303 29.0106C41.1573 30.1019 43.9381 32.1444 44.2331 35.0682C44.5416 37.5637 42.7712 39.8409 40.5493 41.0928C36.8745 43.2094 33.2041 45.3302 29.5069 47.418C27.5309 48.534 24.8932 49.0487 22.7741 47.9534C20.6818 46.9033 19.7251 44.6178 19.7341 42.5094C19.7251 37.8396 19.7028 33.1616 19.7385 28.4918C19.752 26.2228 21.0171 23.7643 23.4447 22.949Z" fill="url(#paint1_linear)"/>
<defs>
<linearGradient id="paint0_linear" x1="63.8104" y1="5.34233" x2="10.9272" y2="67.497" gradientUnits="userSpaceOnUse">
<stop stop-color="#FE7970"/>
<stop offset="1" stop-color="#DC3282"/>
</linearGradient>
<linearGradient id="paint1_linear" x1="44.1954" y1="22.7881" x2="18.5147" y2="46.8929" gradientUnits="userSpaceOnUse">
<stop stop-color="#FE7970"/>
<stop offset="1" stop-color="#DC3282"/>
</linearGradient>
</defs>
</svg>
