<svg width="64" height="64" viewBox="0 0 64 64" fill="none" xmlns="http://www.w3.org/2000/svg">
<path d="M8.25837 5.28518C10.8473 4.80758 13.5077 5.09167 16.1324 5.01756C18.8823 5.09167 21.9004 4.62643 24.3641 6.03862C26.7116 7.40552 28.2542 9.62468 30.3467 11.2633C31.1158 11.8356 32.1219 12.0332 33.0877 12.0209C42.4998 12.0209 51.912 12.0456 61.3241 12.095C63.0814 11.9468 64.5122 13.7707 63.8236 15.2652C63.4346 16.4057 62.0753 16.945 60.8502 16.8256C51.4559 16.8092 42.0572 16.7968 32.6584 16.7762C30.0248 16.7968 27.494 15.6605 25.7502 13.8654C24.1674 12.5726 23.0227 10.7034 21.0419 9.8923C17.6392 9.63703 14.1963 9.83878 10.7802 9.78937C7.80229 9.71938 5.12396 12.1856 5.21339 14.9276C5.20892 26.3157 5.20892 37.7038 5.21786 49.0878C5.13291 51.8093 7.77546 54.2508 10.7221 54.2096C24.7531 54.2343 38.7886 54.2096 52.8197 54.2261C54.957 54.3372 57.1032 53.2832 58.1137 51.5334C58.9722 50.1624 58.771 48.5279 58.7889 47.0128C58.7978 40.9976 58.7576 34.9783 58.8112 28.959C58.771 27.5797 60.2555 26.4187 61.7265 26.6451C63.144 26.7686 64.1321 28.0614 63.9801 29.3336C63.9846 36.0611 64.0159 42.7886 63.9622 49.516C63.8996 54.5019 59.1019 58.8867 53.7005 58.9732C39.3788 59.0267 25.0527 58.9814 10.731 58.9938C5.16421 59.1008 0.0713589 54.646 0.0221743 49.4996C-0.0180677 37.9673 0.00875997 26.431 0.00875997 14.8988C-0.0940807 10.4316 3.54111 6.2486 8.25837 5.28518Z" fill="url(#paint0_linear)"/>
<path d="M33.28 25.7764C34.2994 25.3976 35.3502 25.9575 35.9225 26.7316C39.5085 30.8158 43.1079 34.8877 46.7029 38.9678C47.2752 39.5854 47.8118 40.4294 47.3691 41.2487C46.8907 42.6115 44.6819 42.8462 43.8189 41.681C39.9914 37.3827 36.1818 33.0679 32.408 28.7284C31.4914 27.7979 31.9922 26.1552 33.28 25.7764Z" fill="url(#paint1_linear)"/>
<path d="M24.1763 33.0103C24.6681 32.3309 25.4417 31.7051 26.403 31.8698C27.4314 31.9398 27.968 32.8415 28.5269 33.5126C30.8564 36.5716 33.3157 39.5442 35.6095 42.6239C36.5171 43.7314 35.5022 45.473 34.0356 45.4894C33.0116 45.6335 32.2873 44.843 31.7686 44.1596C29.9219 41.7757 28.0484 39.4125 26.2018 37.0327C23.9885 39.5319 22.1239 42.2739 19.9687 44.8101C19.1416 45.8559 17.2234 45.6582 16.6108 44.5219C16.0697 43.7149 16.4677 42.7433 17.0669 42.0763C19.4456 39.0625 21.8065 36.0323 24.1763 33.0103Z" fill="url(#paint2_linear)"/>
<defs>
<linearGradient id="paint0_linear" x1="0.00937518" y1="31.1999" x2="64.0106" y2="31.1999" gradientUnits="userSpaceOnUse">
<stop stop-color="#A93AFF"/>
<stop offset="1" stop-color="#FF81FF"/>
</linearGradient>
<linearGradient id="paint1_linear" x1="31.9417" y1="33.7936" x2="47.535" y2="33.7936" gradientUnits="userSpaceOnUse">
<stop stop-color="#A93AFF"/>
<stop offset="1" stop-color="#FF81FF"/>
</linearGradient>
<linearGradient id="paint2_linear" x1="16.3583" y1="38.4724" x2="35.9567" y2="38.4724" gradientUnits="userSpaceOnUse">
<stop stop-color="#A93AFF"/>
<stop offset="1" stop-color="#FF81FF"/>
</linearGradient>
</defs>
</svg>
