<svg width="64" height="64" viewBox="0 0 64 64" fill="none" xmlns="http://www.w3.org/2000/svg">
<g clip-path="url(#clip0)">
<path d="M8.26577 5.27904C10.8503 4.80552 13.5019 5.09787 16.1132 5.01963C18.5904 5.11434 21.2107 4.67376 23.5492 5.64962C25.7224 6.51843 27.1309 8.35486 28.7719 9.84542C29.7824 10.8995 30.9942 12.0319 32.6442 12.0071C42.1997 12.0401 51.7597 12.0195 61.3152 12.0813C62.9518 11.9577 64.3603 13.5265 63.9176 14.9841C63.6806 16.0712 62.518 16.8782 61.3197 16.8206C51.7597 16.8329 42.2042 16.7876 32.6442 16.7753C30.6812 16.7671 28.7182 16.17 27.1622 15.0583C24.922 13.543 23.5358 11.023 21.0229 9.89072C17.6245 9.63131 14.186 9.83719 10.7743 9.78366C7.77838 9.71366 5.09997 12.2089 5.19834 14.9636C5.20282 26.3445 5.19387 37.7214 5.20282 49.1023C5.17152 51.1446 6.62027 53.0964 8.67714 53.8457C9.90232 54.3357 11.2616 54.2163 12.5628 54.2328C26.1203 54.2163 39.6778 54.2369 53.2308 54.2204C56.2088 54.274 58.8783 51.8076 58.7799 49.0653C58.7844 42.6254 58.7844 36.1855 58.7709 29.7456C58.7844 28.9798 58.7665 28.1192 59.3612 27.5057C60.2912 26.3816 62.3258 26.3198 63.3184 27.4068C64.1054 28.1315 63.9623 29.2268 63.9891 30.1615C63.9578 36.6055 64.0115 43.0495 63.9623 49.4935C63.9087 54.484 59.1197 58.8733 53.7137 58.9721C39.2351 59.0051 24.7565 59.0133 10.2779 58.9721C4.70201 58.8815 -0.158468 54.2204 0.00697565 49.0817C-0.00196728 37.6925 0.00250408 26.3033 0.00250408 14.9183C-0.109282 10.4425 3.53496 6.24255 8.26577 5.27904Z" fill="url(#paint0_linear)"/>
<path d="M26.7106 26.5792C27.3366 25.6404 28.2264 24.6563 29.5365 24.6357C31.1686 24.574 32.8052 24.5575 34.4373 24.6522C35.6937 24.7346 36.4718 25.7351 37.1291 26.5998C39.7091 26.6492 42.7497 26.1881 44.7306 28.1068C46.9082 29.8609 46.4968 32.6938 46.5013 35.0779C46.461 37.429 46.5818 39.7843 46.4431 42.1354C46.2017 44.7418 43.5367 46.8665 40.7152 46.8253C34.9068 46.8459 29.0939 46.8377 23.2854 46.8294C20.5578 46.9159 17.9554 45.0053 17.4725 42.5266C17.2221 40.7354 17.4233 38.9237 17.3518 37.1243C17.4055 36.099 17.0925 34.7979 18.112 34.0773C19.194 33.192 21.1838 33.8014 21.3851 35.1396C21.6042 37.3137 21.318 39.5084 21.5147 41.6825C21.5416 42.4854 22.4269 43.0989 23.2675 43.0495C28.9284 43.0742 34.5893 43.0495 40.2502 43.0577C41.1892 43.1813 42.2936 42.6336 42.3562 41.6907C42.468 38.8084 42.3562 35.9179 42.4099 33.0356C42.3562 32.2738 42.5574 31.3185 41.8107 30.775C41.2786 30.2974 40.4916 30.3839 39.812 30.3592C34.4462 30.3797 29.0804 30.3509 23.7147 30.3715C22.7936 30.3509 21.6802 30.4744 21.0408 29.7168C20.0257 28.7409 20.6383 26.8963 22.1005 26.6657C23.6297 26.5339 25.1769 26.6616 26.7106 26.5792Z" fill="url(#paint1_linear)"/>
<path d="M30.1133 33.6038C32.51 32.3438 35.8547 34.1926 35.6847 36.7455C35.8144 39.3807 32.2372 41.1595 29.8763 39.706C27.3812 38.4543 27.5199 34.6826 30.1133 33.6038Z" fill="url(#paint2_linear)"/>
</g>
<defs>
<linearGradient id="paint0_linear" x1="32" y1="59" x2="32" y2="5" gradientUnits="userSpaceOnUse">
<stop stop-color="#FD2E00"/>
<stop offset="1" stop-color="#FF9900"/>
</linearGradient>
<linearGradient id="paint1_linear" x1="31.9359" y1="46.8383" x2="31.9359" y2="24.5853" gradientUnits="userSpaceOnUse">
<stop stop-color="#FD2E00"/>
<stop offset="1" stop-color="#FF9900"/>
</linearGradient>
<linearGradient id="paint2_linear" x1="31.8875" y1="40.2273" x2="31.8875" y2="33.198" gradientUnits="userSpaceOnUse">
<stop stop-color="#FD2E00"/>
<stop offset="1" stop-color="#FF9900"/>
</linearGradient>
<clipPath id="clip0">
<rect width="64" height="64" fill="white"/>
</clipPath>
</defs>
</svg>
