<svg width="64" height="64" viewBox="0 0 64 64" fill="none" xmlns="http://www.w3.org/2000/svg">
<path d="M8.24108 5.29237C10.6734 4.81888 13.1817 5.09474 15.6498 5.02475C18.0375 5.12768 20.5145 4.7283 22.835 5.40766C25.3881 6.11996 26.9798 8.20744 28.7817 9.8626C29.7877 10.9125 30.9994 12.0324 32.6403 12.0118C42.1953 12.0448 51.7502 12.0324 61.3007 12.0901C63.0891 11.9377 64.5467 13.8111 63.8 15.3222C63.3887 16.4256 62.0652 16.9444 60.8669 16.8332C52.5103 16.8126 44.1581 16.8085 35.8059 16.7797C33.5659 16.7591 31.2096 16.9897 29.1126 16.1086C26.1124 14.9393 24.391 12.2218 21.9855 10.3361C21.2209 9.75144 20.1791 9.7679 19.2447 9.77202C16.4189 9.80496 13.5886 9.75967 10.7628 9.78849C8.54512 9.75967 6.43919 11.1019 5.61649 12.9835C5.08889 14.1117 5.20514 15.3675 5.1962 16.5615C5.21409 27.4065 5.19173 38.2516 5.20961 49.0966C5.17385 51.1305 6.61357 53.078 8.6569 53.8397C10.0206 54.3709 11.5319 54.2103 12.9716 54.2309C26.3852 54.2185 39.8032 54.2391 53.2167 54.2226C55.4345 54.2474 57.5538 52.9133 58.372 51.0235C58.9443 49.7512 58.7521 48.3472 58.7834 47.0091C58.7923 40.9937 58.7476 34.97 58.8057 28.9546C58.7655 27.5918 60.2231 26.4472 61.6807 26.6407C63.0981 26.7395 64.1309 28.0282 63.9744 29.3005C63.9744 36.0323 64.0057 42.7641 63.961 49.496C63.9118 54.6426 58.8236 59.1017 53.257 58.9905C38.9224 58.9864 24.5833 59.0234 10.2531 58.974C4.86981 58.867 0.0990491 54.5026 0.0230389 49.533C-0.021673 37.9922 0.0140961 26.4472 0.00515373 14.9022C-0.0976836 10.4431 3.52845 6.25994 8.24108 5.29237Z" fill="url(#paint0_linear)"/>
<path d="M20.7866 26.4636C20.7642 24.3515 22.7941 22.4575 25.0879 22.4616C30.3013 22.4287 35.5191 22.4575 40.7325 22.4493C41.6268 22.3875 42.5881 22.7786 42.919 23.5898C43.5226 24.7097 42.5121 26.2248 41.1439 26.1837C35.7248 26.2743 30.3057 26.1096 24.8867 26.2619C24.8911 32.4338 24.8196 38.6139 24.9224 44.7816C29.5233 45.1728 34.303 44.8969 38.9709 44.9134C39.0335 40.9155 38.9843 36.9134 38.9977 32.9155C35.7069 32.8867 32.4206 32.9567 29.1298 32.8867C27.547 32.9484 26.5321 31.0339 27.547 29.914C28.1819 29.0329 29.4294 29.1399 30.4309 29.1276C33.3998 29.1687 36.3731 29.0946 39.342 29.1605C41.3585 29.1234 43.1291 30.7786 43.0799 32.6314C43.1246 36.5923 43.1023 40.5572 43.0889 44.5222C43.2051 46.8156 40.9516 48.8372 38.4746 48.7219C33.9989 48.7219 29.5233 48.7589 25.0476 48.7013C22.7271 48.6766 20.6972 46.7332 20.7821 44.5922C20.7687 38.548 20.7642 32.5038 20.7866 26.4636Z" fill="url(#paint1_linear)"/>
<path d="M28.7728 37.3499C30.7937 37.2305 32.8281 37.3046 34.8535 37.3087C35.8059 37.2634 36.7583 37.9057 36.9058 38.7868C37.2233 39.8985 36.1725 41.0925 34.9251 41.039C32.8236 41.039 30.7088 41.1296 28.6073 40.9813C26.6266 40.5531 26.7429 37.5969 28.7728 37.3499Z" fill="url(#paint2_linear)"/>
<defs>
<linearGradient id="paint0_linear" x1="32" y1="59" x2="32" y2="5" gradientUnits="userSpaceOnUse">
<stop stop-color="#5558FF"/>
<stop offset="1" stop-color="#00C0FF"/>
</linearGradient>
<linearGradient id="paint1_linear" x1="31.9387" y1="48.7336" x2="31.9387" y2="22.4429" gradientUnits="userSpaceOnUse">
<stop stop-color="#5558FF"/>
<stop offset="1" stop-color="#00C0FF"/>
</linearGradient>
<linearGradient id="paint2_linear" x1="32.0736" y1="41.0664" x2="32.0736" y2="37.2822" gradientUnits="userSpaceOnUse">
<stop stop-color="#5558FF"/>
<stop offset="1" stop-color="#00C0FF"/>
</linearGradient>
</defs>
</svg>
