<svg width="64" height="64" viewBox="0 0 64 64" fill="none" xmlns="http://www.w3.org/2000/svg">
<g clip-path="url(#clip0)">
<path d="M8.25837 5.28518C10.8473 4.80758 13.5077 5.09167 16.1324 5.01756C18.8823 5.09167 21.9004 4.62643 24.3641 6.03862C26.7116 7.40552 28.2542 9.62468 30.3467 11.2633C31.1158 11.8356 32.1219 12.0332 33.0877 12.0209C42.4998 12.0209 51.912 12.0456 61.3241 12.095C63.0814 11.9468 64.5122 13.7707 63.8236 15.2652C63.4346 16.4057 62.0753 16.945 60.8502 16.8256C51.4559 16.8092 42.0572 16.7968 32.6584 16.7762C30.0248 16.7968 27.494 15.6605 25.7502 13.8654C24.1674 12.5726 23.0227 10.7034 21.0419 9.8923C17.6392 9.63703 14.1963 9.83878 10.7802 9.78937C7.80229 9.71938 5.12396 12.1856 5.21339 14.9276C5.20892 26.3157 5.20892 37.7038 5.21786 49.0878C5.13291 51.8093 7.77546 54.2508 10.7221 54.2096C24.7531 54.2343 38.7886 54.2096 52.8197 54.2261C54.957 54.3372 57.1032 53.2832 58.1137 51.5334C58.9722 50.1624 58.771 48.5279 58.7889 47.0128C58.7978 40.9976 58.7576 34.9783 58.8112 28.959C58.771 27.5797 60.2555 26.4187 61.7265 26.6451C63.144 26.7686 64.1321 28.0614 63.9801 29.3336C63.9846 36.0611 64.0159 42.7886 63.9622 49.516C63.8996 54.5019 59.1019 58.8867 53.7005 58.9732C39.3788 59.0267 25.0527 58.9814 10.731 58.9938C5.16421 59.1008 0.0713589 54.646 0.0221743 49.4996C-0.0180677 37.9673 0.00875996 26.431 0.00875996 14.8988C-0.0940807 10.4316 3.54111 6.2486 8.25837 5.28518Z" fill="url(#paint0_linear)"/>
<path d="M32.7032 23.289C32.3136 22.9037 31.6864 22.9037 31.2968 23.289L30.3549 24.2205C30.3523 24.2231 30.3523 24.2271 30.3548 24.2297C30.3573 24.2322 30.3573 24.2362 30.3548 24.2387L18.0032 36.5858C18.0012 36.5879 18 36.5907 18 36.5936V37.9269C18 38.4792 18.4477 38.9269 19 38.9269H19.3516C19.9038 38.9269 20.3516 39.3746 20.3516 39.9269V48.2512C20.3516 48.2562 20.3475 48.2602 20.3424 48.2602C20.3374 48.2602 20.3333 48.2644 20.3333 48.2694V49.5936C20.3333 50.1458 20.781 50.5936 21.3333 50.5936H42.6666C43.219 50.5936 43.6666 50.1458 43.6666 49.5936V48.2602V39.9269C43.6666 39.3746 44.1144 38.9269 44.6666 38.9269H45C45.5522 38.9269 46 38.4792 46 37.9269V36.5936C46 36.5907 45.9988 36.5879 45.9968 36.5858L44.041 34.6301C43.6506 34.2396 43.0174 34.2396 42.6268 34.6301L42.001 35.2561C41.8336 35.4234 41.8336 35.6947 42.001 35.8621L42.0328 35.894C42.291 36.1522 42.1082 36.5936 41.7432 36.5936C41.5168 36.5936 41.3334 36.777 41.3334 37.0034V47.2602C41.3334 47.8126 40.8856 48.2602 40.3334 48.2602H35.3333C34.781 48.2602 34.3333 47.8126 34.3333 47.2602V42.2602C34.3333 41.708 33.8856 41.2602 33.3333 41.2602H30.6667C30.1144 41.2602 29.6667 41.708 29.6667 42.2602V47.2602C29.6667 47.8126 29.219 48.2602 28.6667 48.2602H23.6667C23.1144 48.2602 22.6667 47.8126 22.6667 47.2602V38.9269V37.0033C22.6667 36.777 22.4832 36.5936 22.257 36.5936C21.8919 36.5936 21.7092 36.1522 21.9673 35.8941L31.9932 25.8726C31.9944 25.8713 31.9965 25.8713 31.9977 25.8726C31.999 25.8738 32.001 25.8738 32.0023 25.8726C32.0035 25.8713 32.0056 25.8713 32.0068 25.8725L34.6607 28.5228C35.0513 28.9129 35.6841 28.9127 36.0744 28.5224L36.2964 28.3005C36.687 27.9098 36.6868 27.2763 36.2958 26.8858L33.6452 24.2387C33.6427 24.2362 33.6427 24.2322 33.6452 24.2297C33.6477 24.2271 33.6477 24.2231 33.6451 24.2205L32.7032 23.289ZM40 24.9269C39.4478 24.9269 39 25.3746 39 25.9269V30.9269C39 31.4792 39.4478 31.9269 40 31.9269H40.3516C40.9038 31.9269 41.3516 31.4792 41.3516 30.9269V25.9269C41.3516 25.3746 40.9038 24.9269 40.3516 24.9269H40Z" fill="url(#paint1_linear)" stroke="url(#paint2_linear)"/>
</g>
<defs>
<linearGradient id="paint0_linear" x1="32" y1="59" x2="32" y2="5" gradientUnits="userSpaceOnUse">
<stop stop-color="#02AA93"/>
<stop offset="1" stop-color="#67FF80"/>
</linearGradient>
<linearGradient id="paint1_linear" x1="32" y1="50.5936" x2="32" y2="23" gradientUnits="userSpaceOnUse">
<stop stop-color="#02AA93"/>
<stop offset="1" stop-color="#67FF80"/>
</linearGradient>
<linearGradient id="paint2_linear" x1="32" y1="50.5936" x2="32" y2="23" gradientUnits="userSpaceOnUse">
<stop stop-color="#02AA93"/>
<stop offset="1" stop-color="#67FF80"/>
</linearGradient>
<clipPath id="clip0">
<rect width="64" height="64" fill="white"/>
</clipPath>
</defs>
</svg>
