<svg width="64" height="64" viewBox="0 0 64 64" fill="none" xmlns="http://www.w3.org/2000/svg">
<g clip-path="url(#clip0)">
<path d="M8.25837 5.28518C10.8473 4.80758 13.5077 5.09167 16.1324 5.01756C18.8823 5.09167 21.9004 4.62643 24.3641 6.03862C26.7116 7.40552 28.2542 9.62468 30.3467 11.2633C31.1158 11.8356 32.1219 12.0332 33.0877 12.0209C42.4998 12.0209 51.912 12.0456 61.3241 12.095C63.0814 11.9468 64.5122 13.7707 63.8236 15.2652C63.4346 16.4057 62.0753 16.945 60.8502 16.8256C51.4559 16.8092 42.0572 16.7968 32.6584 16.7762C30.0248 16.7968 27.494 15.6605 25.7502 13.8654C24.1674 12.5726 23.0227 10.7034 21.0419 9.8923C17.6392 9.63703 14.1963 9.83878 10.7802 9.78937C7.80229 9.71938 5.12396 12.1856 5.21339 14.9276C5.20892 26.3157 5.20892 37.7038 5.21786 49.0878C5.13291 51.8093 7.77546 54.2508 10.7221 54.2096C24.7531 54.2343 38.7886 54.2096 52.8197 54.2261C54.957 54.3372 57.1032 53.2832 58.1137 51.5334C58.9722 50.1624 58.771 48.5279 58.7889 47.0128C58.7978 40.9976 58.7576 34.9783 58.8112 28.959C58.771 27.5797 60.2555 26.4187 61.7265 26.6451C63.144 26.7686 64.1321 28.0614 63.9801 29.3336C63.9846 36.0611 64.0159 42.7886 63.9622 49.516C63.8996 54.5019 59.1019 58.8867 53.7005 58.9732C39.3788 59.0267 25.0527 58.9814 10.731 58.9938C5.16421 59.1008 0.0713589 54.646 0.0221743 49.4996C-0.0180677 37.9673 0.00875996 26.431 0.00875996 14.8988C-0.0940807 10.4316 3.54111 6.2486 8.25837 5.28518Z" fill="url(#paint0_linear)"/>
<path fill-rule="evenodd" clip-rule="evenodd" d="M25.2729 25.0088C24.6182 24.9942 23.9632 24.9797 23.324 25.1246C22.0876 25.4613 21.1179 26.6051 21.0247 27.8798C20.9947 28.3801 20.9987 28.8811 21.0028 29.3818C21.0044 29.5773 21.0059 29.7728 21.0055 29.9681C20.9894 30.2952 21.1034 30.6461 21.3892 30.8328C21.8837 31.2157 22.693 30.9014 22.8021 30.292C22.8442 29.8922 22.8376 29.4911 22.8309 29.0901C22.8252 28.7421 22.8194 28.3942 22.8455 28.0473C22.8921 27.4171 23.4492 26.8779 24.085 26.8444C24.5768 26.823 25.0697 26.8283 25.5627 26.8336C26.1321 26.8398 26.7017 26.846 27.2705 26.8109C27.9465 26.7136 28.2419 25.7883 27.7683 25.3081C27.4919 24.9846 27.0707 24.9964 26.6695 25.0077C26.5463 25.0112 26.425 25.0146 26.3104 25.0082C25.9662 25.0242 25.6196 25.0165 25.2729 25.0088ZM30.4613 25.0042C29.9628 24.9677 29.5156 25.4369 29.5591 25.9442C29.5621 26.4293 30.0063 26.8494 30.4815 26.8097C32.2662 26.8171 34.0509 26.816 35.8355 26.815C37.5243 26.8141 39.2129 26.8131 40.9012 26.8192C41.6124 26.7955 42.2444 27.4407 42.2258 28.1667C42.2326 29.4821 42.2314 30.7974 42.2303 32.1128C42.2294 33.199 42.2284 34.2853 42.232 35.3715C40.7273 35.3788 39.2223 35.3818 37.7171 35.3847C35.9772 35.3881 34.2371 35.3914 32.4971 35.4016C32.0343 35.381 31.615 35.7931 31.6104 36.2639C31.57 36.7601 31.9955 37.223 32.4847 37.2087C34.2394 37.2284 35.9946 37.2171 37.7498 37.2058C39.2424 37.1962 40.735 37.1866 42.2273 37.196C42.2245 37.4939 42.2276 37.792 42.2307 38.0901C42.2363 38.6375 42.2419 39.1848 42.2118 39.7308C42.1404 40.4536 41.4292 40.9673 40.7366 40.8943C37.9742 40.8912 35.2119 40.8928 32.4497 40.8943C29.6732 40.8959 26.8968 40.8975 24.1209 40.8943C23.419 40.9229 22.7715 40.3062 22.7761 39.5865C22.7651 38.6661 22.7679 37.7457 22.7707 36.8255C22.7739 35.79 22.777 34.7546 22.7606 33.7197C22.7792 33.0396 21.9236 32.591 21.3925 33.0031C21.04 33.2188 20.9857 33.6642 21.0028 34.0462C21.0092 34.8311 21.0068 35.6159 21.0045 36.4007C21.0012 37.5181 20.9979 38.6356 21.0198 39.753C21.0711 41.3112 22.4329 42.6809 23.9625 42.6967C24.5081 42.6971 25.0537 42.6984 25.5993 42.6997C27.1671 42.7033 28.735 42.7069 30.3029 42.6904C29.5796 43.3481 28.8755 44.0274 28.1716 44.7066C27.6709 45.1897 27.1702 45.6727 26.6629 46.1477C26.6424 46.1674 26.6217 46.1872 26.6007 46.2072C26.3636 46.4331 26.1046 46.68 26.0946 47.0339C26.0449 47.5697 26.531 48.0484 27.0543 47.9961C30.6833 48.0009 34.3139 48.0009 37.9445 47.9961C38.4679 48.0468 38.9384 47.5554 38.8856 47.0244C38.8668 46.6575 38.6036 46.4133 38.3526 46.1804C38.2923 46.1245 38.2328 46.0692 38.1775 46.013C37.7271 45.5927 37.2855 45.1619 36.844 44.7311C36.1301 44.0345 35.4162 43.338 34.6649 42.6856C36.2187 42.7111 37.7734 42.707 39.3277 42.7029C39.9046 42.7014 40.4813 42.6999 41.058 42.6999C42.645 42.6777 44.0224 41.2003 43.996 39.585C43.9963 39.2325 43.9966 38.88 43.9969 38.5274C43.9999 35.021 44.0029 31.5125 43.9945 28.0066C43.965 26.4293 42.6016 25.0232 41.0518 25.0042C37.5221 24.9978 33.9909 24.9994 30.4613 25.0042ZM35.7736 46.181C33.5856 46.1873 31.3992 46.1873 29.2112 46.1826C29.7792 45.6531 30.3395 45.1149 30.8998 44.5767C31.4316 44.0659 31.9633 43.5551 32.5017 43.0518C33.0094 43.5312 33.5125 44.0164 34.0157 44.5017C34.599 45.0643 35.1825 45.627 35.7736 46.181Z" fill="url(#paint1_linear)"/>
<path d="M23.324 25.1246L23.1029 24.1494L23.0819 24.1541L23.0612 24.1598L23.324 25.1246ZM25.2729 25.0088L25.2951 24.009L25.2729 25.0088ZM21.0247 27.8798L20.0273 27.8069L20.0265 27.82L21.0247 27.8798ZM21.0028 29.3818L20.0028 29.3899L21.0028 29.3818ZM21.0055 29.9681L22.0043 30.0173L22.0054 29.9939L22.0055 29.9704L21.0055 29.9681ZM21.3892 30.8328L22.0014 30.0421L21.9697 30.0176L21.9361 29.9956L21.3892 30.8328ZM22.8021 30.292L23.7864 30.4682L23.7928 30.4327L23.7966 30.3968L22.8021 30.292ZM22.8309 29.0901L23.8308 29.0735L23.8308 29.0735L22.8309 29.0901ZM22.8455 28.0473L23.8427 28.1224L23.8428 28.1211L22.8455 28.0473ZM24.085 26.8444L24.0414 25.8453L24.0324 25.8458L24.085 26.8444ZM25.5627 26.8336L25.5519 27.8336L25.5519 27.8336L25.5627 26.8336ZM27.2705 26.8109L27.332 27.809L27.3726 27.8065L27.413 27.8007L27.2705 26.8109ZM27.7683 25.3081L27.0081 25.9578L27.0312 25.9849L27.0563 26.0103L27.7683 25.3081ZM26.6695 25.0077L26.6976 26.0073L26.6695 25.0077ZM26.3104 25.0082L26.3658 24.0098L26.3149 24.0069L26.264 24.0093L26.3104 25.0082ZM29.5591 25.9442L30.559 25.938L30.5588 25.8983L30.5554 25.8588L29.5591 25.9442ZM30.4613 25.0042L30.3882 26.0016L30.4254 26.0043L30.4626 26.0042L30.4613 25.0042ZM30.4815 26.8097L30.4856 25.8097L30.4418 25.8096L30.3982 25.8132L30.4815 26.8097ZM35.8355 26.815L35.8349 25.815L35.8349 25.815L35.8355 26.815ZM40.9012 26.8192L40.8975 27.8192L40.916 27.8193L40.9345 27.8187L40.9012 26.8192ZM42.2258 28.1667L41.2261 28.1411L41.2257 28.1565L41.2258 28.1719L42.2258 28.1667ZM42.2303 32.1128L43.2303 32.1136L43.2303 32.1136L42.2303 32.1128ZM42.232 35.3715L42.2368 36.3715L43.2352 36.3666L43.232 35.3683L42.232 35.3715ZM37.7171 35.3847L37.719 36.3847L37.719 36.3847L37.7171 35.3847ZM32.4971 35.4016L32.4526 36.4006L32.4777 36.4018L32.5029 36.4016L32.4971 35.4016ZM31.6104 36.2639L32.6071 36.3451L32.61 36.3094L32.6103 36.2737L31.6104 36.2639ZM32.4847 37.2087L32.4959 36.2088L32.4757 36.2086L32.4554 36.2091L32.4847 37.2087ZM37.7498 37.2058L37.7562 38.2058L37.7562 38.2058L37.7498 37.2058ZM42.2273 37.196L43.2272 37.2051L43.2364 36.2024L42.2336 36.196L42.2273 37.196ZM42.2307 38.0901L43.2306 38.0798L43.2306 38.0798L42.2307 38.0901ZM42.2118 39.7308L43.2069 39.8291L43.209 39.8076L43.2102 39.786L42.2118 39.7308ZM40.7366 40.8943L40.8414 39.8998L40.7897 39.8944L40.7377 39.8943L40.7366 40.8943ZM32.4497 40.8943L32.4492 39.8943L32.4492 39.8943L32.4497 40.8943ZM24.1209 40.8943L24.122 39.8943L24.1011 39.8943L24.0802 39.8951L24.1209 40.8943ZM22.7761 39.5865L23.776 39.5929L23.7761 39.5838L23.776 39.5746L22.7761 39.5865ZM22.7707 36.8255L23.7707 36.8286L23.7707 36.8286L22.7707 36.8255ZM22.7606 33.7197L21.7609 33.6924L21.7603 33.714L21.7607 33.7356L22.7606 33.7197ZM21.3925 33.0031L21.9144 33.8561L21.9617 33.8272L22.0055 33.7932L21.3925 33.0031ZM21.0028 34.0462L22.0027 34.0381L22.0026 34.0198L22.0018 34.0015L21.0028 34.0462ZM21.0045 36.4007L22.0045 36.4036L21.0045 36.4007ZM21.0198 39.753L20.0199 39.7726L20.0203 39.7859L21.0198 39.753ZM23.9625 42.6967L23.9521 43.6967L23.9617 43.6967L23.9625 42.6967ZM25.5993 42.6997L25.6016 41.6997L25.6016 41.6997L25.5993 42.6997ZM30.3029 42.6904L30.9756 43.4303L32.9192 41.6629L30.2924 41.6905L30.3029 42.6904ZM28.1716 44.7066L27.4773 43.9869L27.4773 43.9869L28.1716 44.7066ZM26.6629 46.1477L25.9794 45.4178L25.9739 45.4228L25.9686 45.428L26.6629 46.1477ZM26.6007 46.2072L25.9108 45.4833L25.9108 45.4833L26.6007 46.2072ZM26.0946 47.0339L27.0903 47.1263L27.0933 47.0943L27.0942 47.0622L26.0946 47.0339ZM27.0543 47.9961L27.0556 46.9961L27.0051 46.9961L26.9548 47.0011L27.0543 47.9961ZM37.9445 47.9961L38.0409 47.0008L37.9921 46.9961L37.9431 46.9961L37.9445 47.9961ZM38.8856 47.0244L37.8869 47.0756L37.8881 47.0995L37.8905 47.1234L38.8856 47.0244ZM38.3526 46.1804L37.6724 46.9134L37.6724 46.9134L38.3526 46.1804ZM38.1775 46.013L38.8899 45.3113L38.8752 45.2963L38.8598 45.282L38.1775 46.013ZM36.844 44.7311L36.1457 45.4469L36.1457 45.4469L36.844 44.7311ZM34.6649 42.6856L34.6812 41.6858L31.9364 41.6408L34.0092 43.4407L34.6649 42.6856ZM39.3277 42.7029L39.3251 41.7029L39.3251 41.7029L39.3277 42.7029ZM41.058 42.6999V43.7L41.072 43.6998L41.058 42.6999ZM43.996 39.585L42.996 39.5842L42.996 39.5928L42.9961 39.6014L43.996 39.585ZM43.9969 38.5274L44.9969 38.5283L44.9969 38.5283L43.9969 38.5274ZM43.9945 28.0066L44.9945 28.0042L44.9944 27.9961L44.9943 27.9879L43.9945 28.0066ZM41.0518 25.0042L41.064 24.0042L41.0536 24.0042L41.0518 25.0042ZM29.2112 46.1826L28.5293 45.4511L26.6775 47.1772L29.209 47.1826L29.2112 46.1826ZM35.7736 46.181L35.7764 47.181L38.2949 47.1738L36.4574 45.4514L35.7736 46.181ZM30.8998 44.5767L31.5926 45.2979L31.5926 45.2979L30.8998 44.5767ZM32.5017 43.0518L33.1882 42.3247L32.5051 41.6797L31.8187 42.3213L32.5017 43.0518ZM34.0157 44.5017L33.3215 45.2215L33.3215 45.2215L34.0157 44.5017ZM23.5451 26.0999C24.0441 25.9867 24.5746 25.9935 25.2506 26.0085L25.2951 24.009C24.6618 23.995 23.8823 23.9726 23.1029 24.1494L23.5451 26.0999ZM22.022 27.9527C22.0833 27.1153 22.7457 26.3185 23.5867 26.0895L23.0612 24.1598C21.4295 24.6041 20.1525 26.095 20.0274 27.8069L22.022 27.9527ZM22.0028 29.3737C21.9987 28.8674 21.9953 28.4003 22.0229 27.9397L20.0265 27.82C19.9941 28.3598 19.9988 28.8949 20.0028 29.3899L22.0028 29.3737ZM22.0055 29.9704C22.006 29.769 22.0043 29.5684 22.0028 29.3737L20.0028 29.3899C20.0044 29.5863 20.0059 29.7765 20.0055 29.9658L22.0055 29.9704ZM21.9361 29.9956C21.9604 30.0115 21.9791 30.0299 21.9919 30.0461C22.0042 30.0616 22.0088 30.0724 22.0096 30.0742C22.0102 30.0758 22.0081 30.0711 22.0063 30.0593C22.0044 30.0477 22.0035 30.0331 22.0043 30.0173L20.0067 29.919C19.9798 30.4645 20.1603 31.2245 20.8423 31.67L21.9361 29.9956ZM21.8177 30.1158C21.8265 30.0669 21.8486 30.0327 21.8638 30.0159C21.8709 30.0082 21.8761 30.0043 21.8783 30.0029C21.8795 30.002 21.8802 30.0016 21.8806 30.0015C21.8809 30.0013 21.881 30.0012 21.881 30.0012C21.881 30.0012 21.8812 30.0012 21.8816 30.0011C21.8819 30.001 21.8828 30.0008 21.8842 30.0006C21.8869 30.0002 21.8934 29.9996 21.9037 30.0006C21.9264 30.0029 21.9643 30.0134 22.0014 30.0421L20.777 31.6235C21.3532 32.0697 22.0621 32.0745 22.5993 31.8678C23.1353 31.6616 23.6584 31.1836 23.7864 30.4682L21.8177 30.1158ZM21.8311 29.1066C21.8379 29.5178 21.8423 29.858 21.8076 30.1872L23.7966 30.3968C23.8462 29.9264 23.8373 29.4644 23.8308 29.0735L21.8311 29.1066ZM21.8483 27.9723C21.8182 28.3725 21.8254 28.7664 21.8311 29.1066L23.8308 29.0735C23.8249 28.7178 23.8206 28.4158 23.8427 28.1224L21.8483 27.9723ZM24.0324 25.8458C22.9023 25.9053 21.9326 26.8327 21.8482 27.9736L23.8428 28.1211C23.8516 28.0015 23.9961 27.8505 24.1376 27.843L24.0324 25.8458ZM25.5736 25.8337C25.085 25.8284 24.565 25.8225 24.0414 25.8454L24.1285 27.8435C24.5886 27.8234 25.0543 27.8282 25.5519 27.8336L25.5736 25.8337ZM27.209 25.8128C26.6824 25.8453 26.1489 25.8399 25.5736 25.8337L25.5519 27.8336C26.1152 27.8397 26.7211 27.8467 27.332 27.809L27.209 25.8128ZM27.0563 26.0103C27.0208 25.9743 27.0058 25.9341 27.0015 25.9108C26.9981 25.8921 27.0016 25.8875 26.9999 25.8926C26.9983 25.8976 26.9992 25.8889 27.0168 25.8724C27.0385 25.8521 27.0783 25.8283 27.128 25.8211L27.413 27.8007C28.2067 27.6865 28.7107 27.0962 28.9011 26.5136C29.0904 25.934 29.0337 25.1671 28.4803 24.6059L27.0563 26.0103ZM26.6976 26.0073C26.8024 26.0044 26.878 26.0025 26.948 26.0041C27.016 26.0057 27.0563 26.0105 27.0792 26.0148C27.1004 26.0189 27.094 26.0202 27.0734 26.0095C27.0495 25.997 27.0254 25.9781 27.0081 25.9578L28.5285 24.6585C27.8897 23.9108 26.9263 24.0001 26.6414 24.0081L26.6976 26.0073ZM26.255 26.0067C26.4189 26.0158 26.5833 26.0105 26.6976 26.0073L26.6414 24.0081C26.5094 24.0118 26.4312 24.0134 26.3658 24.0098L26.255 26.0067ZM25.2506 26.0085C25.5915 26.0161 25.9726 26.025 26.3568 26.0071L26.264 24.0093C25.9599 24.0234 25.6477 24.0169 25.2951 24.009L25.2506 26.0085ZM30.5554 25.8588C30.5611 25.9255 30.5344 25.9565 30.5292 25.9619C30.524 25.9674 30.4801 26.0083 30.3882 26.0016L30.5343 24.0069C29.3907 23.9232 28.4694 24.9411 28.5627 26.0297L30.5554 25.8588ZM30.3982 25.8132C30.4834 25.8061 30.524 25.8413 30.5284 25.8454C30.5328 25.8495 30.5587 25.8755 30.559 25.938L28.5591 25.9504C28.5655 26.99 29.4812 27.8968 30.5647 27.8063L30.3982 25.8132ZM35.8349 25.815C34.05 25.816 32.2676 25.8171 30.4856 25.8097L30.4773 27.8097C32.2648 27.8171 34.0519 27.816 35.8361 27.815L35.8349 25.815ZM40.9048 25.8192C39.2141 25.8131 37.5234 25.8141 35.8349 25.815L35.8361 27.815C37.5252 27.8141 39.2117 27.8131 40.8975 27.8192L40.9048 25.8192ZM43.2254 28.1923C43.2581 26.9165 42.1793 25.7761 40.8679 25.8198L40.9345 27.8187C40.9732 27.8174 41.0476 27.8351 41.1236 27.9124C41.1994 27.9897 41.2277 28.0776 41.2261 28.1411L43.2254 28.1923ZM43.2303 32.1136C43.2314 30.7988 43.2326 29.4804 43.2257 28.1616L41.2258 28.1719C41.2326 29.4837 41.2314 30.7961 41.2303 32.1119L43.2303 32.1136ZM43.232 35.3683C43.2284 34.2844 43.2294 33.2002 43.2303 32.1136L41.2303 32.1119C41.2294 33.1978 41.2284 34.2861 41.232 35.3748L43.232 35.3683ZM37.719 36.3847C39.224 36.3818 40.7304 36.3788 42.2368 36.3715L42.2271 34.3715C40.7241 34.3789 39.2206 34.3818 37.7152 34.3847L37.719 36.3847ZM32.5029 36.4016C34.2407 36.3914 35.9788 36.3881 37.719 36.3847L37.7152 34.3847C35.9756 34.3881 34.2336 34.3914 32.4912 34.4016L32.5029 36.4016ZM32.6103 36.2737C32.6097 36.333 32.5859 36.3587 32.5803 36.3642C32.5746 36.3698 32.5352 36.4043 32.4526 36.4006L32.5415 34.4026C31.4851 34.3556 30.6203 35.2463 30.6104 36.2542L32.6103 36.2737ZM32.4554 36.2091C32.5408 36.2067 32.5794 36.2448 32.5836 36.2494C32.5878 36.2539 32.6122 36.2824 32.6071 36.3451L30.6137 36.1828C30.5272 37.2452 31.4016 38.2408 32.5139 38.2083L32.4554 36.2091ZM37.7433 36.2058C35.9867 36.2172 34.2403 36.2284 32.4959 36.2088L32.4734 38.2087C34.2385 38.2285 36.0025 38.2171 37.7562 38.2058L37.7433 36.2058ZM42.2336 36.196C40.7339 36.1865 39.2349 36.1962 37.7433 36.2058L37.7562 38.2058C39.2499 38.1962 40.7361 38.1866 42.2209 38.196L42.2336 36.196ZM43.2306 38.0798C43.2275 37.7801 43.2246 37.4917 43.2272 37.2051L41.2273 37.1869C41.2245 37.4961 41.2277 37.8039 41.2307 38.1004L43.2306 38.0798ZM43.2102 39.786C43.2425 39.2018 43.2362 38.6217 43.2306 38.0798L41.2307 38.1004C41.2364 38.6533 41.2413 39.1678 41.2133 39.6756L43.2102 39.786ZM40.6317 41.8888C41.8202 42.0141 43.0756 41.1584 43.2069 39.8291L41.2166 39.6325C41.2115 39.684 41.1817 39.7537 41.0985 39.8176C41.0114 39.8844 40.9122 39.9073 40.8414 39.8998L40.6317 41.8888ZM32.4503 41.8943C35.2126 41.8928 37.9741 41.8912 40.7354 41.8943L40.7377 39.8943C37.9744 39.8912 35.2112 39.8928 32.4492 39.8943L32.4503 41.8943ZM24.1197 41.8943C26.8967 41.8975 29.6739 41.8959 32.4503 41.8943L32.4492 39.8943C29.6725 39.8959 26.897 39.8975 24.122 39.8943L24.1197 41.8943ZM21.7761 39.5801C21.7678 40.8709 22.8896 41.9453 24.1616 41.8935L24.0802 39.8951C24.0359 39.897 23.9563 39.8772 23.8783 39.8018C23.8014 39.7275 23.7757 39.647 23.776 39.5929L21.7761 39.5801ZM21.7707 36.8225C21.7679 37.7414 21.7651 38.6693 21.7761 39.5984L23.776 39.5746C23.7651 38.663 23.7679 37.75 23.7707 36.8286L21.7707 36.8225ZM21.7607 33.7356C21.777 34.7594 21.7739 35.7853 21.7707 36.8225L23.7707 36.8286C23.7739 35.7946 23.7771 34.7497 23.7604 33.7038L21.7607 33.7356ZM22.0055 33.7932C21.9593 33.829 21.9058 33.8437 21.867 33.845C21.8343 33.8461 21.8199 33.8383 21.8185 33.8376C21.817 33.8368 21.8063 33.8315 21.7926 33.8105C21.7759 33.785 21.7596 33.7421 21.7609 33.6924L23.7602 33.7471C23.782 32.9514 23.2919 32.3517 22.7468 32.0661C22.2018 31.7805 21.4197 31.7162 20.7794 32.2131L22.0055 33.7932ZM22.0018 34.0015C21.9989 33.937 21.9996 33.8815 22.0035 33.835C22.0074 33.788 22.0137 33.7603 22.0173 33.7482C22.0207 33.7366 22.0185 33.7498 22.0009 33.7751C21.9812 33.8034 21.9512 33.8336 21.9144 33.8561L20.8705 32.1501C19.9909 32.6884 19.9863 33.7018 20.0038 34.0909L22.0018 34.0015ZM22.0045 36.4036C22.0068 35.6198 22.0092 34.8294 22.0027 34.0381L20.0028 34.0544C20.0091 34.8327 20.0068 35.612 20.0045 36.3977L22.0045 36.4036ZM22.0196 39.7335C21.998 38.6291 22.0012 37.523 22.0045 36.4036L20.0045 36.3977C20.0012 37.5133 19.9978 38.642 20.02 39.7726L22.0196 39.7335ZM23.9728 41.6968C23.0012 41.6867 22.0537 40.766 22.0192 39.7201L20.0203 39.7859C20.0885 41.8564 21.8645 43.6751 23.9521 43.6967L23.9728 41.6968ZM25.6016 41.6997C25.0561 41.6984 24.5097 41.6971 23.9632 41.6967L23.9617 43.6967C24.5064 43.6971 25.0512 43.6984 25.597 43.6997L25.6016 41.6997ZM30.2924 41.6905C28.7319 41.7069 27.1705 41.7033 25.6016 41.6997L25.597 43.6997C27.1638 43.7033 28.738 43.7069 30.3134 43.6904L30.2924 41.6905ZM28.8659 45.4262C29.5716 44.7454 30.2651 44.0764 30.9756 43.4303L29.6301 41.9506C28.8941 42.6198 28.1794 43.3095 27.4773 43.9869L28.8659 45.4262ZM27.3464 46.8777C27.8601 46.3967 28.3661 45.9085 28.8659 45.4262L27.4773 43.9869C26.9756 44.4709 26.4804 44.9487 25.9794 45.4178L27.3464 46.8777ZM27.2906 46.9311C27.3112 46.9115 27.3342 46.8896 27.3571 46.8674L25.9686 45.428C25.9507 45.4452 25.9322 45.4629 25.9108 45.4833L27.2906 46.9311ZM27.0942 47.0622C27.0932 47.0955 27.0859 47.1253 27.0779 47.1462C27.0708 47.1645 27.0665 47.1674 27.0768 47.153C27.0877 47.1377 27.1082 47.1123 27.1459 47.0729C27.1849 47.0321 27.2286 46.9902 27.2906 46.9311L25.9108 45.4833C25.7413 45.6449 25.1186 46.1712 25.095 47.0056L27.0942 47.0622ZM26.9548 47.0011C27.0306 46.9935 27.064 47.0259 27.0654 47.0273C27.068 47.0298 27.0964 47.0604 27.0903 47.1263L25.0988 46.9416C24.9914 48.0997 26.0008 49.1064 27.1537 48.9912L26.9548 47.0011ZM37.9431 46.9961C34.3134 47.0009 30.6837 47.0009 27.0556 46.9961L27.0529 48.9961C30.6828 49.0009 34.3143 49.0009 37.9458 48.9961L37.9431 46.9961ZM37.8905 47.1234C37.8845 47.0631 37.9089 47.0367 37.9114 47.0341C37.9143 47.0311 37.9551 46.9925 38.0409 47.0008L37.848 48.9915C39.0334 49.1063 39.9923 48.0487 39.8807 46.9255L37.8905 47.1234ZM37.6724 46.9134C37.738 46.9743 37.7843 47.0175 37.8256 47.0595C37.8653 47.1 37.8871 47.1263 37.8991 47.1426C37.9103 47.1579 37.9072 47.157 37.9011 47.1417C37.8941 47.1242 37.8881 47.1004 37.8869 47.0756L39.8843 46.9733C39.8413 46.1351 39.2216 45.6226 39.0328 45.4474L37.6724 46.9134ZM37.465 46.7147C37.5388 46.7897 37.6153 46.8604 37.6724 46.9134L39.0328 45.4474C38.9694 45.3885 38.9267 45.3487 38.8899 45.3113L37.465 46.7147ZM36.1457 45.4469C36.5859 45.8763 37.0353 46.3149 37.4952 46.7441L38.8598 45.282C38.4188 44.8704 37.9852 44.4474 37.5424 44.0153L36.1457 45.4469ZM34.0092 43.4407C34.7349 44.0708 35.4282 44.7469 36.1457 45.4469L37.5424 44.0153C36.8319 43.3222 36.0974 42.6051 35.3205 41.9306L34.0092 43.4407ZM39.3251 41.7029C37.7692 41.707 36.224 41.711 34.6812 41.6858L34.6485 43.6855C36.2134 43.7111 37.7776 43.707 39.3304 43.7029L39.3251 41.7029ZM41.058 41.6999C40.4798 41.6999 39.9017 41.7014 39.3251 41.7029L39.3304 43.7029C39.9074 43.7014 40.4828 43.6999 41.058 43.6999V41.6999ZM42.9961 39.6014C43.0139 40.6938 42.048 41.686 41.044 41.7L41.072 43.6998C43.2419 43.6695 45.0308 41.7068 44.9958 39.5687L42.9961 39.6014ZM42.9969 38.5265C42.9966 38.8791 42.9963 39.2317 42.996 39.5842L44.996 39.5858C44.9963 39.2334 44.9966 38.8808 44.9969 38.5283L42.9969 38.5265ZM42.9945 28.009C43.0029 31.513 42.9999 35.0198 42.9969 38.5265L44.9969 38.5283C44.9999 35.0221 45.0029 31.512 44.9945 28.0042L42.9945 28.009ZM41.0395 26.0041C42.0215 26.0162 42.9747 26.9601 42.9946 28.0253L44.9943 27.9879C44.9552 25.8985 43.1816 24.0303 41.064 24.0043L41.0395 26.0041ZM30.4626 26.0042C33.9917 25.9994 37.5217 25.9978 41.05 26.0042L41.0536 24.0042C37.5224 23.9978 33.9901 23.9994 30.4599 24.0042L30.4626 26.0042ZM29.209 47.1826C31.3984 47.1873 33.5865 47.1873 35.7764 47.181L35.7707 45.181C33.5846 45.1873 31.3999 45.1873 29.2133 45.1826L29.209 47.1826ZM30.2071 43.8555C29.6459 44.3946 29.091 44.9276 28.5293 45.4511L29.893 46.9141C30.4675 46.3787 31.0332 45.8352 31.5926 45.2979L30.2071 43.8555ZM31.8187 42.3213C31.2746 42.83 30.738 43.3455 30.2071 43.8555L31.5926 45.2979C32.1251 44.7863 32.652 44.2802 33.1846 43.7823L31.8187 42.3213ZM34.7099 43.7819C34.2073 43.2972 33.7004 42.8083 33.1882 42.3247L31.8151 43.7789C32.3184 44.2541 32.8177 44.7356 33.3215 45.2215L34.7099 43.7819ZM36.4574 45.4514C35.8724 44.9031 35.294 44.3453 34.7099 43.7819L33.3215 45.2215C33.904 45.7832 34.4925 46.3509 35.0897 46.9106L36.4574 45.4514Z" fill="url(#paint2_linear)"/>
</g>
<defs>
<linearGradient id="paint0_linear" x1="32" y1="59" x2="32" y2="5" gradientUnits="userSpaceOnUse">
<stop stop-color="#A93AFF"/>
<stop offset="1" stop-color="#FF81FF"/>
</linearGradient>
<linearGradient id="paint1_linear" x1="32.5" y1="48" x2="32.5" y2="25" gradientUnits="userSpaceOnUse">
<stop stop-color="#A93AFF"/>
<stop offset="1" stop-color="#FF81FF"/>
</linearGradient>
<linearGradient id="paint2_linear" x1="32.5" y1="48" x2="32.5" y2="25" gradientUnits="userSpaceOnUse">
<stop stop-color="#A93AFF"/>
<stop offset="1" stop-color="#FF81FF"/>
</linearGradient>
<clipPath id="clip0">
<rect width="64" height="64" fill="white"/>
</clipPath>
</defs>
</svg>
