<?xml version="1.0" encoding="UTF-8" standalone="no"?>
<!-- Created with Inkscape (http://www.inkscape.org/) -->

<svg
   xmlns:dc="http://purl.org/dc/elements/1.1/"
   xmlns:cc="http://creativecommons.org/ns#"
   xmlns:rdf="http://www.w3.org/1999/02/22-rdf-syntax-ns#"
   xmlns:svg="http://www.w3.org/2000/svg"
   xmlns="http://www.w3.org/2000/svg"
   xmlns:xlink="http://www.w3.org/1999/xlink"
   xmlns:sodipodi="http://sodipodi.sourceforge.net/DTD/sodipodi-0.dtd"
   xmlns:inkscape="http://www.inkscape.org/namespaces/inkscape"
   version="1.0"
   width="96"
   height="96"
   id="svg2408"
   inkscape:version="0.48.3.1 r9886"
   sodipodi:docname="drive-harddisk-system.svg"
   inkscape:export-filename="/home/rowen/MATE/Icon themes/sources/Faience-Ocre/devices/16/drive-harddisk-system.png"
   inkscape:export-xdpi="15"
   inkscape:export-ydpi="15">
  <sodipodi:namedview
     pagecolor="#ffffff"
     bordercolor="#666666"
     borderopacity="1"
     objecttolerance="10"
     gridtolerance="10"
     guidetolerance="10"
     inkscape:pageopacity="0"
     inkscape:pageshadow="2"
     inkscape:window-width="705"
     inkscape:window-height="480"
     id="namedview3298"
     showgrid="false"
     inkscape:zoom="2.4583333"
     inkscape:cx="48"
     inkscape:cy="48"
     inkscape:window-x="0"
     inkscape:window-y="25"
     inkscape:window-maximized="0"
     inkscape:current-layer="svg2408" />
  <defs
     id="defs2410">
    <linearGradient
       id="linearGradient3901">
      <stop
         id="stop3903"
         style="stop-color:#a2dfff;stop-opacity:1"
         offset="0" />
      <stop
         id="stop3905"
         style="stop-color:#006dff;stop-opacity:0"
         offset="1" />
    </linearGradient>
    <linearGradient
       id="linearGradient4384">
      <stop
         id="stop4386"
         style="stop-color:#ffffff;stop-opacity:1"
         offset="0" />
      <stop
         id="stop4388"
         style="stop-color:#ffffff;stop-opacity:0"
         offset="1" />
    </linearGradient>
    <linearGradient
       id="linearGradient4367">
      <stop
         id="stop4369"
         style="stop-color:#ffffff;stop-opacity:0.71755725"
         offset="0" />
      <stop
         id="stop4371"
         style="stop-color:#ffffff;stop-opacity:1"
         offset="1" />
    </linearGradient>
    <linearGradient
       x1="45.447727"
       y1="92.539597"
       x2="45.447727"
       y2="7.0165396"
       id="ButtonShadow"
       gradientUnits="userSpaceOnUse"
       gradientTransform="scale(1.0058652,0.994169)">
      <stop
         id="stop3750"
         style="stop-color:#000000;stop-opacity:1"
         offset="0" />
      <stop
         id="stop3752"
         style="stop-color:#000000;stop-opacity:0.58823532"
         offset="1" />
    </linearGradient>
    <linearGradient
       id="linearGradient3737">
      <stop
         id="stop3739"
         style="stop-color:#ffffff;stop-opacity:1"
         offset="0" />
      <stop
         id="stop3741"
         style="stop-color:#ffffff;stop-opacity:0"
         offset="1" />
    </linearGradient>
    <filter
       color-interpolation-filters="sRGB"
       id="filter3174">
      <feGaussianBlur
         id="feGaussianBlur3176"
         stdDeviation="1.71" />
    </filter>
    <filter
       x="-0.192"
       y="-0.192"
       width="1.3839999"
       height="1.3839999"
       color-interpolation-filters="sRGB"
       id="filter3794">
      <feGaussianBlur
         id="feGaussianBlur3796"
         stdDeviation="5.28" />
    </filter>
    <linearGradient
       x1="48"
       y1="20.220806"
       x2="48"
       y2="138.66119"
       id="linearGradient3613"
       xlink:href="#linearGradient3737"
       gradientUnits="userSpaceOnUse" />
    <linearGradient
       x1="32"
       y1="88"
       x2="32"
       y2="-8"
       id="linearGradient3617"
       xlink:href="#linearGradient4327"
       gradientUnits="userSpaceOnUse"
       gradientTransform="translate(0,-96)" />
    <linearGradient
       x1="45.447727"
       y1="92.539597"
       x2="45.447727"
       y2="7.0165396"
       id="ButtonShadow-0"
       gradientUnits="userSpaceOnUse"
       gradientTransform="matrix(1.0058652,0,0,0.994169,100,0)">
      <stop
         id="stop3750-8"
         style="stop-color:#000000;stop-opacity:1"
         offset="0" />
      <stop
         id="stop3752-5"
         style="stop-color:#000000;stop-opacity:0.58823532"
         offset="1" />
    </linearGradient>
    <linearGradient
       x1="32.251034"
       y1="6.1317081"
       x2="32.251034"
       y2="90.238609"
       id="linearGradient3780"
       xlink:href="#ButtonShadow-0"
       gradientUnits="userSpaceOnUse"
       gradientTransform="matrix(1.0238095,0,0,1.0119048,-1.1428571,-98.071429)" />
    <linearGradient
       x1="32.251034"
       y1="6.1317081"
       x2="32.251034"
       y2="90.238609"
       id="linearGradient3772"
       xlink:href="#ButtonShadow-0"
       gradientUnits="userSpaceOnUse"
       gradientTransform="matrix(1.0238095,0,0,1.0119048,-1.1428571,-98.071429)" />
    <linearGradient
       x1="32.251034"
       y1="6.1317081"
       x2="32.251034"
       y2="90.238609"
       id="linearGradient3725"
       xlink:href="#ButtonShadow-0"
       gradientUnits="userSpaceOnUse"
       gradientTransform="matrix(1.0238095,0,0,1.0119048,-1.1428571,-98.071429)" />
    <linearGradient
       x1="32.251034"
       y1="6.1317081"
       x2="32.251034"
       y2="90.238609"
       id="linearGradient3721"
       xlink:href="#ButtonShadow-0"
       gradientUnits="userSpaceOnUse"
       gradientTransform="translate(0,-97)" />
    <linearGradient
       x1="32.251034"
       y1="6.1317081"
       x2="32.251034"
       y2="90.238609"
       id="linearGradient3026"
       xlink:href="#ButtonShadow-0"
       gradientUnits="userSpaceOnUse"
       gradientTransform="matrix(1.0238095,0,0,1.0119048,-1.1428571,-98.071429)" />
    <clipPath
       id="clipPath4355">
      <rect
         width="84"
         height="80"
         rx="6"
         ry="6"
         x="6"
         y="6"
         id="rect4357"
         style="fill:#ffffff;fill-opacity:1;fill-rule:nonzero;stroke:none" />
    </clipPath>
    <radialGradient
       cx="48"
       cy="87.792389"
       r="42"
       fx="48"
       fy="87.792389"
       id="radialGradient4375"
       xlink:href="#linearGradient4367"
       gradientUnits="userSpaceOnUse"
       gradientTransform="matrix(1,-6.7114942e-8,8.4282233e-8,1.2557894,109.99999,-24.505592)" />
    <linearGradient
       x1="48"
       y1="88"
       x2="48"
       y2="-40"
       id="linearGradient4390"
       xlink:href="#linearGradient4384"
       gradientUnits="userSpaceOnUse"
       gradientTransform="matrix(1,0,0,-1,0,92)" />
    <linearGradient
       id="linearGradient4327">
      <stop
         id="stop4329"
         style="stop-color:#f0f0f0;stop-opacity:1"
         offset="0" />
      <stop
         id="stop4331"
         style="stop-color:#b4b4b4;stop-opacity:1"
         offset="1" />
    </linearGradient>
    <linearGradient
       id="linearGradient3892-6">
      <stop
         id="stop3894-4"
         style="stop-color:#000000;stop-opacity:0.58823532"
         offset="0" />
      <stop
         id="stop3896-3"
         style="stop-color:#000000;stop-opacity:0.47058824"
         offset="0.11780351" />
      <stop
         id="stop3898-3"
         style="stop-color:#000000;stop-opacity:0.39215687"
         offset="0.23809524" />
      <stop
         id="stop3900-6"
         style="stop-color:#000000;stop-opacity:0.3137255"
         offset="1" />
    </linearGradient>
    <linearGradient
       x1="90"
       y1="88"
       x2="48"
       y2="88"
       id="linearGradient3140"
       xlink:href="#linearGradient3892-6"
       gradientUnits="userSpaceOnUse"
       spreadMethod="reflect" />
    <radialGradient
       cx="48"
       cy="85.5"
       r="36"
       fx="48"
       fy="85.5"
       id="radialGradient4087"
       xlink:href="#linearGradient3901"
       gradientUnits="userSpaceOnUse"
       gradientTransform="matrix(1,0,0,0.01388889,0,84.3125)" />
    <radialGradient
       cx="48"
       cy="85.5"
       r="36"
       fx="48"
       fy="85.5"
       id="radialGradient4091"
       xlink:href="#linearGradient3901"
       gradientUnits="userSpaceOnUse"
       gradientTransform="matrix(1,0,0,0.01388889,0,84.3125)" />
    <clipPath
       id="clipPath3919-4">
      <rect
         width="84"
         height="76"
         rx="6.0999999"
         ry="6.0999999"
         x="6"
         y="-82"
         transform="scale(1,-1)"
         id="rect3921-3"
         style="fill:#ff00ff;fill-opacity:1;fill-rule:nonzero;stroke:none" />
    </clipPath>
    <filter
       x="-0.21600001"
       y="-0.27000001"
       width="1.432"
       height="1.54"
       color-interpolation-filters="sRGB"
       id="filter3927-5">
      <feGaussianBlur
         id="feGaussianBlur3929-0"
         stdDeviation="7.2000001" />
    </filter>
    <radialGradient
       cx="48"
       cy="84"
       r="30"
       fx="48"
       fy="84"
       id="radialGradient4138"
       xlink:href="#linearGradient3175-0"
       gradientUnits="userSpaceOnUse"
       gradientTransform="matrix(1.0666667,0,0,0.04999999,-3.2000002,81.300245)" />
    <filter
       x="-0.11444673"
       y="-1.4149175"
       width="1.2288935"
       height="3.8298349"
       color-interpolation-filters="sRGB"
       id="filter4180">
      <feGaussianBlur
         id="feGaussianBlur4182"
         stdDeviation="3.5372897" />
    </filter>
    <linearGradient
       id="linearGradient3175-0">
      <stop
         id="stop3177-4"
         style="stop-color:#7bff9d;stop-opacity:1;"
         offset="0" />
      <stop
         id="stop3179-8"
         style="stop-color:#2ea04c;stop-opacity:0;"
         offset="1" />
    </linearGradient>
    <clipPath
       id="clipPath4114">
      <path
         d="M 12.09375,6 C 8.7143501,6 6,8.7143501 6,12.09375 l 0,67.8125 C 6,83.28565 8.7143501,86 12.09375,86 l 71.8125,0 C 87.28565,86 90,83.28565 90,79.90625 l 0,-67.8125 C 90,8.7143501 87.28565,6 83.90625,6 l -71.8125,0 z m 32.875,18 6.0625,0 c 0.865802,0 1.5625,0.668199 1.5625,1.46875 l 0,2.8125 C 54.141869,28.656231 55.646552,29.221906 57,29.9375 l 2.1875,-2 c 0.622678,-0.566075 1.606531,-0.587802 2.21875,-0.03125 l 4.3125,3.90625 c 0.61221,0.556562 0.591371,1.433924 -0.03125,2 l -2.21875,2.03125 c 0.787147,1.230407 1.43127,2.56136 1.84375,3.96875 l 3.09375,0 C 69.286845,39.8125 70,40.462899 70,41.25 l 0,5.5 c 0,0.787098 -0.713155,1.4375 -1.59375,1.4375 l -3.09375,0 c -0.412477,1.407388 -1.056603,2.738342 -1.84375,3.96875 l 2.21875,2.03125 c 0.622678,0.566076 0.643525,1.443438 0.03125,2 l -4.3125,3.90625 c -0.61222,0.556561 -1.59607,0.534836 -2.21875,-0.03125 l -2.1875,-2 c -1.353446,0.715594 -2.858132,1.281269 -4.40625,1.65625 l 0,2.8125 C 52.59375,63.331803 51.897053,64 51.03125,64 l -6.0625,0 c -0.86581,0 -1.5625,-0.6682 -1.5625,-1.46875 l 0,-2.8125 C 41.858131,59.343771 40.353446,58.778093 39,58.0625 l -2.1875,2 c -0.311343,0.283039 -0.690843,0.434397 -1.09375,0.4375 -0.402908,0.0031 -0.818895,-0.127971 -1.125,-0.40625 l -4.3125,-3.90625 c -0.612211,-0.556562 -0.591361,-1.433924 0.03125,-2 l 2.21875,-2.03125 C 31.744104,50.925842 31.099987,49.594888 30.6875,48.1875 l -3.09375,0 C 26.713146,48.1875 26,47.537099 26,46.75 l 0,-5.5 c 0,-0.787099 0.713146,-1.4375 1.59375,-1.4375 l 3.09375,0 c 0.412487,-1.40739 1.056604,-2.738343 1.84375,-3.96875 L 30.3125,33.8125 c -0.62268,-0.566076 -0.643528,-1.443438 -0.03125,-2 l 4.3125,-3.90625 c 0.61221,-0.556561 1.596073,-0.534834 2.21875,0.03125 l 2.1875,2 c 1.353446,-0.715594 2.858131,-1.281269 4.40625,-1.65625 l 0,-2.8125 C 43.40625,24.668201 44.10294,24 44.96875,24 z M 48,37.96875 c -3.67143,0 -6.65625,2.693576 -6.65625,6.03125 0,3.337676 2.98482,6.03125 6.65625,6.03125 3.671436,0 6.65625,-2.693574 6.65625,-6.03125 0,-3.337674 -2.984814,-6.03125 -6.65625,-6.03125 z"
         inkscape:connector-curvature="0"
         id="path4116"
         style="fill:#ff00ff;fill-opacity:1;fill-rule:nonzero;stroke:none;display:inline" />
    </clipPath>
    <filter
       x="-0.2290909"
       y="-0.252"
       width="1.4581819"
       height="1.5039999"
       color-interpolation-filters="sRGB"
       id="filter4118">
      <feGaussianBlur
         id="feGaussianBlur4120"
         stdDeviation="4.2000002" />
    </filter>
    <linearGradient
       id="linearGradient3767-1">
      <stop
         id="stop3769-2"
         style="stop-color:#4d4d4d;stop-opacity:0.70731705"
         offset="0" />
      <stop
         id="stop3771-9"
         style="stop-color:#4d4d4d;stop-opacity:0.3137255"
         offset="1" />
    </linearGradient>
    <linearGradient
       x1="20.758585"
       y1="1"
       x2="20.758585"
       y2="45.017357"
       id="linearGradient4144"
       xlink:href="#linearGradient3767-1"
       gradientUnits="userSpaceOnUse"
       gradientTransform="matrix(1.0232529,0,0,-0.93023283,23.441935,65.395351)" />
  </defs>
  <metadata
     id="metadata2413">
    <rdf:RDF>
      <cc:Work
         rdf:about="">
        <dc:format>image/svg+xml</dc:format>
        <dc:type
           rdf:resource="http://purl.org/dc/dcmitype/StillImage" />
        <dc:title></dc:title>
      </cc:Work>
    </rdf:RDF>
  </metadata>
  <g
     id="layer2"
     style="display:none">
    <rect
       width="86"
       height="85"
       rx="6"
       ry="6"
       x="5"
       y="7"
       id="rect3745"
       style="opacity:0.9;fill:url(#ButtonShadow);fill-opacity:1;fill-rule:nonzero;stroke:none;filter:url(#filter3174)" />
  </g>
  <g
     id="layer3"
     style="display:inline">
    <path
       d="m 12,-95.03125 c -5.5110903,0 -10.03125,4.52016 -10.03125,10.03125 l 0,71 c 0,5.5110902 4.5201598,10.03125 10.03125,10.03125 l 72,0 c 5.51109,0 10.03125,-4.5201597 10.03125,-10.03125 l 0,-71 c 0,-5.51109 -4.52016,-10.03125 -10.03125,-10.03125 l -72,0 z"
       transform="scale(1,-1)"
       id="path3786"
       style="opacity:0.07999998;fill:url(#linearGradient3026);fill-opacity:1;fill-rule:nonzero;stroke:none;display:inline" />
    <path
       d="m 12,-94.03125 c -4.971633,0 -9.03125,4.059617 -9.03125,9.03125 l 0,71 c 0,4.9716329 4.0596171,9.03125 9.03125,9.03125 l 72,0 c 4.971633,0 9.03125,-4.059617 9.03125,-9.03125 l 0,-71 c 0,-4.971633 -4.059617,-9.03125 -9.03125,-9.03125 l -72,0 z"
       transform="scale(1,-1)"
       id="path3778"
       style="opacity:0.1;fill:url(#linearGradient3780);fill-opacity:1;fill-rule:nonzero;stroke:none;display:inline" />
    <path
       d="m 12,-93 c -4.4091333,0 -8,3.590867 -8,8 l 0,71 c 0,4.4091333 3.5908667,8 8,8 l 72,0 c 4.409133,0 8,-3.5908667 8,-8 l 0,-71 c 0,-4.409133 -3.590867,-8 -8,-8 l -72,0 z"
       transform="scale(1,-1)"
       id="path3770"
       style="opacity:0.2;fill:url(#linearGradient3772);fill-opacity:1;fill-rule:nonzero;stroke:none;display:inline" />
    <rect
       width="86"
       height="85"
       rx="7"
       ry="7"
       x="5"
       y="-92"
       transform="scale(1,-1)"
       id="rect3723"
       style="opacity:0.3;fill:url(#linearGradient3725);fill-opacity:1;fill-rule:nonzero;stroke:none;display:inline" />
    <rect
       width="84"
       height="84"
       rx="6"
       ry="6"
       x="6"
       y="-91"
       transform="scale(1,-1)"
       id="rect3716"
       style="opacity:0.45;fill:url(#linearGradient3721);fill-opacity:1;fill-rule:nonzero;stroke:none;display:inline" />
  </g>
  <g
     id="layer1"
     style="display:inline">
    <rect
       width="84"
       height="84"
       rx="6.0999999"
       ry="6.0999999"
       x="6"
       y="-90"
       transform="scale(1,-1)"
       id="rect2419"
       style="fill:url(#linearGradient3617);fill-opacity:1;fill-rule:nonzero;stroke:none" />
    <path
       d="M 120.78125,6.125 C 118.04223,6.6826484 116,9.0915 116,12 l 0,68 c 0,3.324 2.676,6 6,6 l 72,0 c 3.324,0 6,-2.676 6,-6 l 0,-68 c 0,-2.9085 -2.04223,-5.3173516 -4.78125,-5.875 2.20512,0.5362071 3.8125,2.4908437 3.8125,4.875 l 0,68 c 0,2.80489 -2.22636,5.03125 -5.03125,5.03125 l -72,0 c -2.80489,0 -5.03125,-2.22636 -5.03125,-5.03125 l 0,-68 c 0,-2.3841563 1.60738,-4.3387929 3.8125,-4.875 z"
       inkscape:connector-curvature="0"
       id="rect4359"
       style="opacity:0.2;fill:url(#radialGradient4375);fill-opacity:1;fill-rule:nonzero;stroke:none" />
    <path
       d="m 6,100 0,1 c 0,3.324 2.676,6 6,6 l 72,0 c 3.324,0 6,-2.676 6,-6 l 0,-1 c 0,3.324 -2.676,6 -6,6 l -72,0 c -3.324,0 -6,-2.676 -6,-6 z"
       inkscape:connector-curvature="0"
       id="path4412"
       style="opacity:0.15;fill:#000000;fill-opacity:1;fill-rule:nonzero;stroke:none" />
  </g>
  <g
     id="layer7"
     style="display:inline">
    <g
       clip-path="url(#clipPath3919-4)"
       id="g3915"
       style="opacity:0.2;display:inline;filter:url(#filter3927-5)">
      <path
         d="m 48,36 a 16,20 0 1 1 -32,0 16,20 0 1 1 32,0 z"
         transform="matrix(1.25,0,0,1,-12,0)"
         id="path3911"
         style="opacity:0.35655739;color:#000000;fill:#000000;fill-opacity:1;fill-rule:nonzero;stroke:none;stroke-width:1.5;marker:none;visibility:visible;display:inline;overflow:visible;enable-background:accumulate" />
      <path
         d="m 80,52 a 24,28 0 1 1 -48,0 24,28 0 1 1 48,0 z"
         transform="matrix(1.1666667,0,0,1,-5.3333333,0)"
         id="path3913"
         style="opacity:0.2;color:#000000;fill:#000000;fill-opacity:1;fill-rule:nonzero;stroke:none;stroke-width:1.5;marker:none;visibility:visible;display:inline;overflow:visible;enable-background:accumulate" />
    </g>
  </g>
  <g
     id="layer8">
    <path
       d="m 6,73.90625 0,2 C 6,79.28565 8.7143501,82 12.09375,82 l 71.8125,0 C 87.28565,82 90,79.28565 90,75.90625 l 0,-2 C 90,77.28565 87.28565,80 83.90625,80 l -71.8125,0 C 8.7143501,80 6,77.28565 6,73.90625 z"
       inkscape:connector-curvature="0"
       id="rect4028"
       style="opacity:0.15;fill:#ffffff;fill-opacity:1;fill-rule:nonzero;stroke:none;display:inline" />
    <path
       d="M 12,82 C 8.676,82 6,79.324 6,76 L 6,12 C 6,8.676 8.676,6 12,6 l 72,0 c 3.324,0 6,2.676 6,6 l 0,64 c 0,3.324 -2.676,6 -6,6 z m 0,-0.96875 72,0 c 2.80489,0 5.03125,-2.22636 5.03125,-5.03125 l 0,-64 C 89.03125,9.19511 86.80489,6.96875 84,6.96875 l -72,0 C 9.1951102,6.96875 6.96875,9.19511 6.96875,12 l 0,64 c 0,2.80489 2.2263602,5.03125 5.03125,5.03125 z"
       inkscape:connector-curvature="0"
       id="rect4377"
       style="opacity:0.8;fill:url(#linearGradient4390);fill-opacity:1;fill-rule:nonzero;stroke:none;display:inline" />
  </g>
  <g
     id="layer4"
     style="display:inline">
    <path
       d="m 6,76 0,8 c 0,3.324 2.676,6 6,6 l 72,0 c 3.324,0 6,-2.676 6,-6 l 0,-8 c 0,3.324 -2.676,6 -6,6 L 12,82 C 8.676,82 6,79.324 6,76 z"
       inkscape:connector-curvature="0"
       id="path3888"
       style="opacity:0.5;fill:url(#linearGradient3140);fill-opacity:1;fill-rule:nonzero;stroke:none;display:inline" />
    <path
       d="m 6,78 0,4 c 0,3.324 2.676,6 6,6 l 72,0 c 3.324,0 6,-2.676 6,-6 l 0,-4 c 0,3.324 -2.676,6 -6,6 L 12,84 C 8.676,84 6,81.324 6,78 z"
       inkscape:connector-curvature="0"
       id="path4010"
       style="opacity:0.8;fill:#000000;fill-opacity:1;fill-rule:nonzero;stroke:none;display:inline" />
    <path
       d="m 6,82 0,1 c 0,3.324 2.676,6 6,6 l 72,0 c 3.324,0 6,-2.676 6,-6 l 0,-1 c 0,3.324 -2.676,6 -6,6 L 12,88 C 8.676,88 6,85.324 6,82 z"
       inkscape:connector-curvature="0"
       id="path4054"
       style="opacity:0.4;fill:#ffffff;fill-opacity:1;fill-rule:nonzero;stroke:none;display:inline" />
    <path
       d="m 6,77 0,1 c 0,3.324 2.676,6 6,6 l 72,0 c 3.324,0 6,-2.676 6,-6 l 0,-1 c 0,3.324 -2.676,6 -6,6 L 12,83 C 8.676,83 6,80.324 6,77 z"
       inkscape:connector-curvature="0"
       id="path4059"
       style="opacity:0.2;fill:#000000;fill-opacity:1;fill-rule:nonzero;stroke:none;display:inline" />
    <path
       d="m 84,85.5 a 36,0.5 0 1 1 -72,0 36,0.5 0 1 1 72,0 z"
       transform="matrix(1.0833333,0,0,8,-4,-579)"
       id="path4089"
       style="opacity:0.5;color:#000000;fill:url(#radialGradient4091);fill-opacity:1;fill-rule:nonzero;stroke:none;stroke-width:1.5;marker:none;visibility:visible;display:inline;overflow:visible;enable-background:accumulate" />
    <path
       d="m 84,85.5 a 36,0.5 0 1 1 -72,0 36,0.5 0 1 1 72,0 z"
       transform="matrix(1,0,0,2,0,-66)"
       id="path4061"
       style="color:#000000;fill:url(#radialGradient4087);fill-opacity:1;fill-rule:nonzero;stroke:none;stroke-width:1.5;marker:none;visibility:visible;display:inline;overflow:visible;enable-background:accumulate" />
    <rect
       width="74.178574"
       height="5.9999933"
       rx="6.7435069"
       ry="5.9999933"
       x="10.910714"
       y="80.000008"
       transform="matrix(1,0,0,0.50000072,0,44.000184)"
       id="rect3323"
       style="opacity:0.59999999999999998;fill:#00aa2c;fill-opacity:1;fill-rule:nonzero;stroke:none;display:inline;filter:url(#filter4180)" />
    <rect
       width="64"
       height="3"
       rx="5.818182"
       ry="3"
       x="16"
       y="84.000244"
       id="rect3311"
       style="fill:url(#radialGradient4138);fill-opacity:1.0;fill-rule:nonzero;stroke:none;display:inline" />
  </g>
  <g
     id="layer5"
     style="display:inline">
    <rect
       width="66"
       height="62"
       rx="12"
       ry="12"
       x="15"
       y="15"
       clip-path="url(#clipPath4355)"
       id="rect3171"
       style="opacity:0.2;fill:url(#linearGradient3613);fill-opacity:1;fill-rule:nonzero;stroke:#ffffff;stroke-width:0.5;stroke-linecap:round;stroke-linejoin:miter;stroke-miterlimit:4;stroke-opacity:1;stroke-dasharray:none;stroke-dashoffset:0;filter:url(#filter3794)" />
  </g>
  <g
     id="layer6">
    <path
       d="m 44.962229,64 c -0.86581,0 -1.566862,-0.652938 -1.566862,-1.453488 l 0,-2.81977 c -1.548119,-0.374979 -3.027352,-0.941383 -4.380798,-1.656976 l -2.206395,2.005814 c -0.311343,0.283039 -0.684294,0.432944 -1.087201,0.436047 -0.402908,0.0031 -0.813076,-0.128697 -1.119181,-0.406976 L 30.284939,56.18023 c -0.612211,-0.556562 -0.590701,-1.439738 0.03191,-2.005814 l 2.206391,-2.005814 c -0.787146,-1.230408 -1.410185,-2.575172 -1.822672,-3.98256 l -3.101731,0 c -0.880604,0 -1.598835,-0.63732 -1.598835,-1.424419 l 0,-5.523256 c 0,-0.787099 0.718231,-1.42442 1.598835,-1.42442 l 3.101731,0 c 0.412487,-1.40739 1.035526,-2.752153 1.822672,-3.98256 l -2.206391,-2.005813 c -0.62268,-0.566076 -0.644188,-1.449253 -0.03191,-2.005815 l 4.316853,-3.924421 c 0.61221,-0.556561 1.583705,-0.537004 2.206382,0.02908 l 2.206395,2.005814 c 1.353446,-0.715594 2.832679,-1.281994 4.380798,-1.656975 l 0,-2.81977 C 43.395367,24.652938 44.096419,24 44.962229,24 l 6.075563,0 c 0.865802,0 1.566854,0.652938 1.566854,1.453489 l 0,2.81977 c 1.548119,0.374981 3.027351,0.941381 4.380799,1.656975 l 2.206392,-2.005814 c 0.622678,-0.566075 1.594173,-0.585632 2.206392,-0.02908 l 4.316845,3.924421 c 0.61221,0.556562 0.590701,1.439739 -0.03192,2.005815 l -2.206384,2.005813 c 0.787147,1.230407 1.410184,2.57517 1.822664,3.98256 l 3.101741,0 c 0.880595,0 1.598831,0.637319 1.598831,1.42442 l 0,5.523256 c 0,0.787098 -0.718236,1.424419 -1.598831,1.424419 l -3.101741,0 c -0.412477,1.407388 -1.035513,2.752152 -1.82266,3.98256 l 2.206383,2.005814 c 0.622678,0.566076 0.644195,1.449252 0.03192,2.005814 l -4.316844,3.924421 c -0.61222,0.556561 -1.583713,0.537006 -2.206393,-0.02908 l -2.206393,-2.005816 c -1.353446,0.715594 -2.832679,1.281998 -4.380797,1.656979 l 0,2.819766 c 0,0.800553 -0.701052,1.453489 -1.566855,1.453489 l -6.075563,0 z m 3.037778,-13.953491 c 3.671436,0 6.651146,-2.708839 6.651146,-6.046515 0,-3.337674 -2.97971,-6.046512 -6.651146,-6.046512 -3.67143,0 -6.651146,2.708838 -6.651146,6.046512 0,3.337676 2.979716,6.046515 6.651146,6.046515 z"
       inkscape:connector-curvature="0"
       id="rect3267"
       style="opacity:0.7;fill:url(#linearGradient4144);fill-opacity:1;fill-rule:nonzero;stroke:none;stroke-width:1;marker:none;visibility:visible;display:block;overflow:visible;enable-background:accumulate" />
    <path
       d="m 44.96875,24 c -0.86581,0 -1.5625,0.668201 -1.5625,1.46875 l 0,2.8125 C 41.858131,28.656231 40.353446,29.221906 39,29.9375 l -2.1875,-2 c -0.622677,-0.566084 -1.60654,-0.587811 -2.21875,-0.03125 l -4.3125,3.90625 c -0.612278,0.556562 -0.59143,1.433924 0.03125,2 l 2.21875,2.03125 c -0.787146,1.230407 -1.431263,2.56136 -1.84375,3.96875 l -3.09375,0 C 26.713146,39.8125 26,40.462901 26,41.25 l 0,5.5 c 0,0.787099 0.713146,1.4375 1.59375,1.4375 l 3.09375,0 c 0.412487,1.407388 1.056604,2.738342 1.84375,3.96875 L 30.3125,54.1875 c -0.622611,0.566076 -0.643461,1.443438 -0.03125,2 l 4.3125,3.90625 c 0.306105,0.278279 0.722092,0.40935 1.125,0.40625 0.402907,-0.0031 0.782407,-0.154461 1.09375,-0.4375 l 2.1875,-2 c 1.353446,0.715593 2.858131,1.281271 4.40625,1.65625 l 0,2.8125 c 0,0.80055 0.69669,1.46875 1.5625,1.46875 l 6.0625,0 c 0.865803,0 1.5625,-0.668197 1.5625,-1.46875 l 0,-2.8125 C 54.141868,59.343769 55.646554,58.778094 57,58.0625 l 2.1875,2 c 0.62268,0.566086 1.60653,0.587811 2.21875,0.03125 l 4.3125,-3.90625 c 0.612275,-0.556562 0.591428,-1.433924 -0.03125,-2 l -2.21875,-2.03125 c 0.787147,-1.230408 1.431273,-2.561362 1.84375,-3.96875 l 3.09375,0 C 69.286845,48.1875 70,47.537098 70,46.75 l 0,-5.5 c 0,-0.787101 -0.713155,-1.4375 -1.59375,-1.4375 l -3.09375,0 C 64.90002,38.40511 64.255897,37.074157 63.46875,35.84375 L 65.6875,33.8125 c 0.622621,-0.566076 0.64346,-1.443438 0.03125,-2 l -4.3125,-3.90625 C 60.794031,27.349698 59.810178,27.371425 59.1875,27.9375 l -2.1875,2 c -1.353448,-0.715594 -2.858131,-1.281269 -4.40625,-1.65625 l 0,-2.8125 C 52.59375,24.668199 51.897052,24 51.03125,24 l -6.0625,0 z m 0,0.96875 6.0625,0 c 0.368155,0 0.59375,0.260613 0.59375,0.5 l 0,2.8125 a 0.96731774,0.96731774 0 0 0 0.75,0.9375 c 1.471179,0.356345 2.90972,0.886913 4.1875,1.5625 a 0.96731774,0.96731774 0 0 0 1.09375,-0.125 l 2.1875,-2 C 60.100313,28.423009 60.528696,28.423818 60.75,28.625 l 4.3125,3.90625 c 0.229762,0.208877 0.231258,0.323832 -0.03125,0.5625 L 62.8125,35.125 a 0.96731774,0.96731774 0 0 0 -0.15625,1.25 c 0.745594,1.165455 1.336416,2.41422 1.71875,3.71875 a 0.96731774,0.96731774 0 0 0 0.9375,0.6875 l 3.09375,0 c 0.404342,0 0.625,0.265884 0.625,0.46875 l 0,5.5 c 0,0.20286 -0.220661,0.46875 -0.625,0.46875 l -3.09375,0 a 0.96731774,0.96731774 0 0 0 -0.9375,0.6875 c -0.38233,1.304525 -0.973155,2.553293 -1.71875,3.71875 a 0.96731774,0.96731774 0 0 0 0.15625,1.25 l 2.21875,2.03125 c 0.262556,0.238689 0.26106,0.353601 0.03125,0.5625 L 60.75,59.375 c -0.22131,0.20119 -0.649681,0.202 -0.90625,-0.03125 l -2.1875,-2 a 0.96731774,0.96731774 0 0 0 -1.09375,-0.125 c -1.277777,0.675586 -2.716321,1.206155 -4.1875,1.5625 a 0.96731774,0.96731774 0 0 0 -0.75,0.9375 l 0,2.8125 c 0,0.239391 -0.225592,0.5 -0.59375,0.5 l -6.0625,0 c -0.368166,0 -0.59375,-0.260609 -0.59375,-0.5 l 0,-2.8125 a 0.96731774,0.96731774 0 0 0 -0.75,-0.9375 c -1.471178,-0.356343 -2.909721,-0.886914 -4.1875,-1.5625 a 0.96731774,0.96731774 0 0 0 -1.09375,0.125 l -2.1875,2 c -0.148869,0.135335 -0.272128,0.186226 -0.4375,0.1875 C 35.530711,59.53265 35.34523,59.46157 35.25,59.375 l -4.3125,-3.90625 c -0.229758,-0.208874 -0.231255,-0.323832 0.03125,-0.5625 L 33.1875,52.875 a 0.96731774,0.96731774 0 0 0 0.15625,-1.25 C 32.598158,50.459546 32.007342,49.210783 31.625,47.90625 a 0.96731774,0.96731774 0 0 0 -0.9375,-0.6875 l -3.09375,0 c -0.404354,0 -0.625,-0.265881 -0.625,-0.46875 l 0,-5.5 c 0,-0.202869 0.220646,-0.46875 0.625,-0.46875 l 3.09375,0 a 0.96731774,0.96731774 0 0 0 0.9375,-0.6875 c 0.382342,-1.304535 0.973158,-2.553297 1.71875,-3.71875 a 0.96731774,0.96731774 0 0 0 -0.15625,-1.25 l -2.21875,-2.03125 c -0.262558,-0.23869 -0.261062,-0.3536 -0.03125,-0.5625 L 35.25,28.625 c 0.22129,-0.201175 0.64969,-0.201992 0.90625,0.03125 l 2.1875,2 a 0.96731774,0.96731774 0 0 0 1.09375,0.125 c 1.277777,-0.675587 2.71632,-1.206155 4.1875,-1.5625 a 0.96731774,0.96731774 0 0 0 0.75,-0.9375 l 0,-2.8125 c 0,-0.23939 0.225584,-0.5 0.59375,-0.5 z M 48,37 c -4.144503,0 -7.625,3.085681 -7.625,7 0,3.914321 3.480497,7 7.625,7 4.144508,0 7.625,-3.08568 7.625,-7 0,-3.914318 -3.480491,-7 -7.625,-7 z m 0,0.96875 c 3.671436,0 6.65625,2.693576 6.65625,6.03125 0,3.337676 -2.984814,6.03125 -6.65625,6.03125 -3.67143,0 -6.65625,-2.693574 -6.65625,-6.03125 0,-3.337674 2.98482,-6.03125 6.65625,-6.03125 z"
       inkscape:connector-curvature="0"
       id="path4053"
       style="opacity:0.05;fill:#000000;fill-opacity:1;fill-rule:nonzero;stroke:none;stroke-width:1;marker:none;visibility:visible;display:block;overflow:visible;enable-background:accumulate" />
    <path
       d="m 44.96875,24 c -0.86581,0 -1.5625,0.668201 -1.5625,1.46875 l 0,1 C 43.40625,25.668201 44.10294,25 44.96875,25 l 6.0625,0 c 0.865802,0 1.5625,0.668199 1.5625,1.46875 l 0,-1 C 52.59375,24.668199 51.897052,24 51.03125,24 l -6.0625,0 z m -9.5625,3.5 c -0.293286,0.04824 -0.582921,0.19754 -0.8125,0.40625 l -4.3125,3.90625 c -0.439288,0.399314 -0.544908,0.970919 -0.34375,1.46875 0.07436,-0.169909 0.19068,-0.32961 0.34375,-0.46875 l 4.3125,-3.90625 c 0.61221,-0.556561 1.596073,-0.534834 2.21875,0.03125 l 2.1875,2 c 1.353446,-0.715594 2.858131,-1.281269 4.40625,-1.65625 l 0,-1 C 41.858131,28.656231 40.353446,29.221906 39,29.9375 l -2.1875,-2 C 36.423327,27.583697 35.89506,27.419604 35.40625,27.5 z m 24.90625,0 c -0.397236,0.0061 -0.813661,0.154463 -1.125,0.4375 l -2.1875,2 c -1.353448,-0.715594 -2.858131,-1.281269 -4.40625,-1.65625 l 0,1 C 54.141869,29.656231 55.646552,30.221906 57,30.9375 l 2.1875,-2 c 0.622678,-0.566075 1.606531,-0.587802 2.21875,-0.03125 l 4.3125,3.90625 c 0.153053,0.13914 0.269403,0.298841 0.34375,0.46875 0.201141,-0.497831 0.09549,-1.069436 -0.34375,-1.46875 l -4.3125,-3.90625 C 61.10014,27.627974 60.709736,27.49392 60.3125,27.5 z m -28.15625,9 c -0.603071,1.049214 -1.127538,2.148299 -1.46875,3.3125 l -3.09375,0 C 26.713146,39.8125 26,40.462901 26,41.25 l 0,1 c 0,-0.787099 0.713146,-1.4375 1.59375,-1.4375 l 3.09375,0 c 0.412487,-1.40739 1.056604,-2.738343 1.84375,-3.96875 L 32.15625,36.5 z m 31.6875,0 -0.375,0.34375 c 0.787147,1.230407 1.43127,2.56136 1.84375,3.96875 l 3.09375,0 C 69.286845,40.8125 70,41.462899 70,42.25 l 0,-1 c 0,-0.787101 -0.713155,-1.4375 -1.59375,-1.4375 l -3.09375,0 C 64.971294,38.648299 64.446821,37.549214 63.84375,36.5 z M 41.375,44.625 c -0.0083,0.123486 -0.03125,0.249629 -0.03125,0.375 0,3.337676 2.98482,6.03125 6.65625,6.03125 3.671436,0 6.65625,-2.693574 6.65625,-6.03125 0,-0.125371 -0.02296,-0.251514 -0.03125,-0.375 -0.340806,3.047762 -3.183029,5.40625 -6.625,5.40625 -3.441966,0 -6.284193,-2.358488 -6.625,-5.40625 z M 32.15625,52.5 30.3125,54.1875 c -0.466958,0.424557 -0.598042,1.021522 -0.375,1.53125 0.07921,-0.196043 0.199091,-0.371314 0.375,-0.53125 l 2.21875,-2.03125 C 32.395236,52.943643 32.282225,52.719169 32.15625,52.5 z m 31.6875,0 c -0.125975,0.219169 -0.238986,0.443643 -0.375,0.65625 l 2.21875,2.03125 c 0.175928,0.159936 0.295784,0.335207 0.375,0.53125 0.223064,-0.509728 0.09201,-1.106693 -0.375,-1.53125 L 63.84375,52.5 z"
       inkscape:connector-curvature="0"
       id="path4044"
       style="opacity:0.2;fill:#000000;fill-opacity:1;fill-rule:nonzero;stroke:none;stroke-width:1;marker:none;visibility:visible;display:block;overflow:visible;enable-background:accumulate" />
    <path
       d="m 44.962229,64 c -0.86581,0 -1.566862,-0.652938 -1.566862,-1.453488 l 0,-2.81977 c -1.548119,-0.374979 -3.027352,-0.941383 -4.380798,-1.656976 l -2.206395,2.005814 c -0.311343,0.283039 -0.684294,0.432944 -1.087201,0.436047 -0.402908,0.0031 -0.813076,-0.128697 -1.119181,-0.406976 L 30.284939,56.18023 c -0.612211,-0.556562 -0.590701,-1.439738 0.03191,-2.005814 l 2.206391,-2.005814 c -0.787146,-1.230408 -1.410185,-2.575172 -1.822672,-3.98256 l -3.101731,0 c -0.880604,0 -1.598835,-0.63732 -1.598835,-1.424419 l 0,-5.523256 c 0,-0.787099 0.718231,-1.42442 1.598835,-1.42442 l 3.101731,0 c 0.412487,-1.40739 1.035526,-2.752153 1.822672,-3.98256 l -2.206391,-2.005813 c -0.62268,-0.566076 -0.644188,-1.449253 -0.03191,-2.005815 l 4.316853,-3.924421 c 0.61221,-0.556561 1.583705,-0.537004 2.206382,0.02908 l 2.206395,2.005814 c 1.353446,-0.715594 2.832679,-1.281994 4.380798,-1.656975 l 0,-2.81977 C 43.395367,24.652938 44.096419,24 44.962229,24 l 6.075563,0 c 0.865802,0 1.566854,0.652938 1.566854,1.453489 l 0,2.81977 c 1.548119,0.374981 3.027351,0.941381 4.380799,1.656975 l 2.206392,-2.005814 c 0.622678,-0.566075 1.594173,-0.585632 2.206392,-0.02908 l 4.316845,3.924421 c 0.61221,0.556562 0.590701,1.439739 -0.03192,2.005815 l -2.206384,2.005813 c 0.787147,1.230407 1.410184,2.57517 1.822664,3.98256 l 3.101741,0 c 0.880595,0 1.598831,0.637319 1.598831,1.42442 l 0,5.523256 c 0,0.787098 -0.718236,1.424419 -1.598831,1.424419 l -3.101741,0 c -0.412477,1.407388 -1.035513,2.752152 -1.82266,3.98256 l 2.206383,2.005814 c 0.622678,0.566076 0.644195,1.449252 0.03192,2.005814 l -4.316844,3.924421 c -0.61222,0.556561 -1.583713,0.537006 -2.206393,-0.02908 l -2.206393,-2.005816 c -1.353446,0.715594 -2.832679,1.281998 -4.380797,1.656979 l 0,2.819766 c 0,0.800553 -0.701052,1.453489 -1.566855,1.453489 l -6.075563,0 z m 3.037778,-13.953491 c 3.671436,0 6.651146,-2.708839 6.651146,-6.046515 0,-3.337674 -2.97971,-6.046512 -6.651146,-6.046512 -3.67143,0 -6.651146,2.708838 -6.651146,6.046512 0,3.337676 2.979716,6.046515 6.651146,6.046515 z"
       inkscape:connector-curvature="0"
       clip-path="url(#clipPath4114)"
       id="path4067"
       style="fill:#ffffff;fill-opacity:1;fill-rule:nonzero;stroke:none;stroke-width:1;marker:none;visibility:visible;display:block;overflow:visible;filter:url(#filter4118);enable-background:accumulate" />
  </g>
</svg>
