<?xml version="1.0" encoding="UTF-8" standalone="no"?>
<!-- Created with Inkscape (http://www.inkscape.org/) -->

<svg
   xmlns:dc="http://purl.org/dc/elements/1.1/"
   xmlns:cc="http://creativecommons.org/ns#"
   xmlns:rdf="http://www.w3.org/1999/02/22-rdf-syntax-ns#"
   xmlns:svg="http://www.w3.org/2000/svg"
   xmlns="http://www.w3.org/2000/svg"
   xmlns:xlink="http://www.w3.org/1999/xlink"
   xmlns:sodipodi="http://sodipodi.sourceforge.net/DTD/sodipodi-0.dtd"
   xmlns:inkscape="http://www.inkscape.org/namespaces/inkscape"
   version="1.0"
   width="96"
   height="96"
   id="svg2408"
   inkscape:version="0.48.3.1 r9886"
   sodipodi:docname="drive-harddisk.svg"
   inkscape:export-filename="/home/rowen/MATE/Icon themes/sources/Faience-Ocre/devices/16/drive-harddisk.png"
   inkscape:export-xdpi="15"
   inkscape:export-ydpi="15">
  <sodipodi:namedview
     pagecolor="#ffffff"
     bordercolor="#666666"
     borderopacity="1"
     objecttolerance="10"
     gridtolerance="10"
     guidetolerance="10"
     inkscape:pageopacity="0"
     inkscape:pageshadow="2"
     inkscape:window-width="705"
     inkscape:window-height="480"
     id="namedview3196"
     showgrid="false"
     inkscape:zoom="2.4583333"
     inkscape:cx="48.068735"
     inkscape:cy="15.721813"
     inkscape:window-x="0"
     inkscape:window-y="25"
     inkscape:window-maximized="0"
     inkscape:current-layer="svg2408" />
  <defs
     id="defs2410">
    <linearGradient
       id="linearGradient3901">
      <stop
         id="stop3903"
         style="stop-color:#a2dfff;stop-opacity:1"
         offset="0" />
      <stop
         id="stop3905"
         style="stop-color:#006dff;stop-opacity:0"
         offset="1" />
    </linearGradient>
    <linearGradient
       id="linearGradient4384">
      <stop
         id="stop4386"
         style="stop-color:#ffffff;stop-opacity:1"
         offset="0" />
      <stop
         id="stop4388"
         style="stop-color:#ffffff;stop-opacity:0"
         offset="1" />
    </linearGradient>
    <linearGradient
       id="linearGradient4367">
      <stop
         id="stop4369"
         style="stop-color:#ffffff;stop-opacity:0.71755725"
         offset="0" />
      <stop
         id="stop4371"
         style="stop-color:#ffffff;stop-opacity:1"
         offset="1" />
    </linearGradient>
    <linearGradient
       x1="45.447727"
       y1="92.539597"
       x2="45.447727"
       y2="7.0165396"
       id="ButtonShadow"
       gradientUnits="userSpaceOnUse"
       gradientTransform="scale(1.0058652,0.994169)">
      <stop
         id="stop3750"
         style="stop-color:#000000;stop-opacity:1"
         offset="0" />
      <stop
         id="stop3752"
         style="stop-color:#000000;stop-opacity:0.58823532"
         offset="1" />
    </linearGradient>
    <linearGradient
       id="linearGradient3737">
      <stop
         id="stop3739"
         style="stop-color:#ffffff;stop-opacity:1"
         offset="0" />
      <stop
         id="stop3741"
         style="stop-color:#ffffff;stop-opacity:0"
         offset="1" />
    </linearGradient>
    <filter
       color-interpolation-filters="sRGB"
       id="filter3174">
      <feGaussianBlur
         id="feGaussianBlur3176"
         stdDeviation="1.71" />
    </filter>
    <filter
       x="-0.192"
       y="-0.192"
       width="1.3839999"
       height="1.3839999"
       color-interpolation-filters="sRGB"
       id="filter3794">
      <feGaussianBlur
         id="feGaussianBlur3796"
         stdDeviation="5.28" />
    </filter>
    <linearGradient
       x1="48"
       y1="20.220806"
       x2="48"
       y2="138.66119"
       id="linearGradient3613"
       xlink:href="#linearGradient3737"
       gradientUnits="userSpaceOnUse" />
    <linearGradient
       x1="32"
       y1="88"
       x2="32"
       y2="-8"
       id="linearGradient3617"
       xlink:href="#linearGradient4327"
       gradientUnits="userSpaceOnUse"
       gradientTransform="translate(0,-96)" />
    <linearGradient
       x1="45.447727"
       y1="92.539597"
       x2="45.447727"
       y2="7.0165396"
       id="ButtonShadow-0"
       gradientUnits="userSpaceOnUse"
       gradientTransform="matrix(1.0058652,0,0,0.994169,100,0)">
      <stop
         id="stop3750-8"
         style="stop-color:#000000;stop-opacity:1"
         offset="0" />
      <stop
         id="stop3752-5"
         style="stop-color:#000000;stop-opacity:0.58823532"
         offset="1" />
    </linearGradient>
    <linearGradient
       x1="32.251034"
       y1="6.1317081"
       x2="32.251034"
       y2="90.238609"
       id="linearGradient3780"
       xlink:href="#ButtonShadow-0"
       gradientUnits="userSpaceOnUse"
       gradientTransform="matrix(1.0238095,0,0,1.0119048,-1.1428571,-98.071429)" />
    <linearGradient
       x1="32.251034"
       y1="6.1317081"
       x2="32.251034"
       y2="90.238609"
       id="linearGradient3772"
       xlink:href="#ButtonShadow-0"
       gradientUnits="userSpaceOnUse"
       gradientTransform="matrix(1.0238095,0,0,1.0119048,-1.1428571,-98.071429)" />
    <linearGradient
       x1="32.251034"
       y1="6.1317081"
       x2="32.251034"
       y2="90.238609"
       id="linearGradient3725"
       xlink:href="#ButtonShadow-0"
       gradientUnits="userSpaceOnUse"
       gradientTransform="matrix(1.0238095,0,0,1.0119048,-1.1428571,-98.071429)" />
    <linearGradient
       x1="32.251034"
       y1="6.1317081"
       x2="32.251034"
       y2="90.238609"
       id="linearGradient3721"
       xlink:href="#ButtonShadow-0"
       gradientUnits="userSpaceOnUse"
       gradientTransform="translate(0,-97)" />
    <linearGradient
       x1="32.251034"
       y1="6.1317081"
       x2="32.251034"
       y2="90.238609"
       id="linearGradient3026"
       xlink:href="#ButtonShadow-0"
       gradientUnits="userSpaceOnUse"
       gradientTransform="matrix(1.0238095,0,0,1.0119048,-1.1428571,-98.071429)" />
    <clipPath
       id="clipPath4355">
      <rect
         width="84"
         height="80"
         rx="6"
         ry="6"
         x="6"
         y="6"
         id="rect4357"
         style="fill:#ffffff;fill-opacity:1;fill-rule:nonzero;stroke:none" />
    </clipPath>
    <radialGradient
       cx="48"
       cy="87.792389"
       r="42"
       fx="48"
       fy="87.792389"
       id="radialGradient4375"
       xlink:href="#linearGradient4367"
       gradientUnits="userSpaceOnUse"
       gradientTransform="matrix(1,-6.7114942e-8,8.4282233e-8,1.2557894,109.99999,-24.505592)" />
    <linearGradient
       x1="48"
       y1="88"
       x2="48"
       y2="-40"
       id="linearGradient4390"
       xlink:href="#linearGradient4384"
       gradientUnits="userSpaceOnUse"
       gradientTransform="matrix(1,0,0,-1,0,92)" />
    <linearGradient
       id="linearGradient4327">
      <stop
         id="stop4329"
         style="stop-color:#f0f0f0;stop-opacity:1"
         offset="0" />
      <stop
         id="stop4331"
         style="stop-color:#b4b4b4;stop-opacity:1"
         offset="1" />
    </linearGradient>
    <linearGradient
       id="linearGradient3892-6">
      <stop
         id="stop3894-4"
         style="stop-color:#000000;stop-opacity:0.58823532"
         offset="0" />
      <stop
         id="stop3896-3"
         style="stop-color:#000000;stop-opacity:0.47058824"
         offset="0.11780351" />
      <stop
         id="stop3898-3"
         style="stop-color:#000000;stop-opacity:0.39215687"
         offset="0.23809524" />
      <stop
         id="stop3900-6"
         style="stop-color:#000000;stop-opacity:0.3137255"
         offset="1" />
    </linearGradient>
    <linearGradient
       x1="90"
       y1="88"
       x2="48"
       y2="88"
       id="linearGradient3140"
       xlink:href="#linearGradient3892-6"
       gradientUnits="userSpaceOnUse"
       spreadMethod="reflect" />
    <radialGradient
       cx="48"
       cy="85.5"
       r="36"
       fx="48"
       fy="85.5"
       id="radialGradient4087"
       xlink:href="#linearGradient3901"
       gradientUnits="userSpaceOnUse"
       gradientTransform="matrix(1,0,0,0.01388889,0,84.3125)" />
    <radialGradient
       cx="48"
       cy="85.5"
       r="36"
       fx="48"
       fy="85.5"
       id="radialGradient4091"
       xlink:href="#linearGradient3901"
       gradientUnits="userSpaceOnUse"
       gradientTransform="matrix(1,0,0,0.01388889,0,84.3125)" />
    <clipPath
       id="clipPath3919-4">
      <rect
         width="84"
         height="76"
         rx="6.0999999"
         ry="6.0999999"
         x="6"
         y="-82"
         transform="scale(1,-1)"
         id="rect3921-3"
         style="fill:#ff00ff;fill-opacity:1;fill-rule:nonzero;stroke:none" />
    </clipPath>
    <filter
       x="-0.21600001"
       y="-0.27000001"
       width="1.432"
       height="1.54"
       color-interpolation-filters="sRGB"
       id="filter3927-5">
      <feGaussianBlur
         id="feGaussianBlur3929-0"
         stdDeviation="7.2000001" />
    </filter>
    <linearGradient
       id="linearGradient3767">
      <stop
         id="stop3769"
         style="stop-color:#4d4d4d;stop-opacity:0.70731705"
         offset="0" />
      <stop
         id="stop3771"
         style="stop-color:#4d4d4d;stop-opacity:0.3137255"
         offset="1" />
    </linearGradient>
    <linearGradient
       x1="48"
       y1="64"
       x2="48"
       y2="24"
       id="linearGradient3942"
       xlink:href="#linearGradient3767"
       gradientUnits="userSpaceOnUse"
       gradientTransform="translate(-100,0)" />
    <linearGradient
       x1="56"
       y1="64"
       x2="56"
       y2="24"
       id="linearGradient3968"
       xlink:href="#linearGradient3767"
       gradientUnits="userSpaceOnUse" />
    <radialGradient
       cx="48"
       cy="84"
       r="30"
       fx="48"
       fy="84"
       id="radialGradient4138"
       xlink:href="#linearGradient3175-0"
       gradientUnits="userSpaceOnUse"
       gradientTransform="matrix(1.0666667,0,0,0.04999999,-3.2000002,81.300245)" />
    <filter
       x="-0.11444673"
       y="-1.4149175"
       width="1.2288935"
       height="3.8298349"
       color-interpolation-filters="sRGB"
       id="filter4180">
      <feGaussianBlur
         id="feGaussianBlur4182"
         stdDeviation="3.5372897" />
    </filter>
    <linearGradient
       id="linearGradient3175-0">
      <stop
         id="stop3177-4"
         style="stop-color:#7bff9d;stop-opacity:1;"
         offset="0" />
      <stop
         id="stop3179-8"
         style="stop-color:#2ea04c;stop-opacity:0;"
         offset="1" />
    </linearGradient>
  </defs>
  <metadata
     id="metadata2413">
    <rdf:RDF>
      <cc:Work
         rdf:about="">
        <dc:format>image/svg+xml</dc:format>
        <dc:type
           rdf:resource="http://purl.org/dc/dcmitype/StillImage" />
        <dc:title></dc:title>
      </cc:Work>
    </rdf:RDF>
  </metadata>
  <g
     id="layer2"
     style="display:none">
    <rect
       width="86"
       height="85"
       rx="6"
       ry="6"
       x="5"
       y="7"
       id="rect3745"
       style="opacity:0.9;fill:url(#ButtonShadow);fill-opacity:1;fill-rule:nonzero;stroke:none;filter:url(#filter3174)" />
  </g>
  <g
     id="layer3"
     style="display:inline">
    <path
       d="m 12,-95.03125 c -5.5110903,0 -10.03125,4.52016 -10.03125,10.03125 l 0,71 c 0,5.5110902 4.5201598,10.03125 10.03125,10.03125 l 72,0 c 5.51109,0 10.03125,-4.5201597 10.03125,-10.03125 l 0,-71 c 0,-5.51109 -4.52016,-10.03125 -10.03125,-10.03125 l -72,0 z"
       transform="scale(1,-1)"
       id="path3786"
       style="opacity:0.07999998;fill:url(#linearGradient3026);fill-opacity:1;fill-rule:nonzero;stroke:none;display:inline" />
    <path
       d="m 12,-94.03125 c -4.971633,0 -9.03125,4.059617 -9.03125,9.03125 l 0,71 c 0,4.9716329 4.0596171,9.03125 9.03125,9.03125 l 72,0 c 4.971633,0 9.03125,-4.059617 9.03125,-9.03125 l 0,-71 c 0,-4.971633 -4.059617,-9.03125 -9.03125,-9.03125 l -72,0 z"
       transform="scale(1,-1)"
       id="path3778"
       style="opacity:0.1;fill:url(#linearGradient3780);fill-opacity:1;fill-rule:nonzero;stroke:none;display:inline" />
    <path
       d="m 12,-93 c -4.4091333,0 -8,3.590867 -8,8 l 0,71 c 0,4.4091333 3.5908667,8 8,8 l 72,0 c 4.409133,0 8,-3.5908667 8,-8 l 0,-71 c 0,-4.409133 -3.590867,-8 -8,-8 l -72,0 z"
       transform="scale(1,-1)"
       id="path3770"
       style="opacity:0.2;fill:url(#linearGradient3772);fill-opacity:1;fill-rule:nonzero;stroke:none;display:inline" />
    <rect
       width="86"
       height="85"
       rx="7"
       ry="7"
       x="5"
       y="-92"
       transform="scale(1,-1)"
       id="rect3723"
       style="opacity:0.3;fill:url(#linearGradient3725);fill-opacity:1;fill-rule:nonzero;stroke:none;display:inline" />
    <rect
       width="84"
       height="84"
       rx="6"
       ry="6"
       x="6"
       y="-91"
       transform="scale(1,-1)"
       id="rect3716"
       style="opacity:0.45;fill:url(#linearGradient3721);fill-opacity:1;fill-rule:nonzero;stroke:none;display:inline" />
  </g>
  <g
     id="layer1"
     style="display:inline">
    <rect
       width="84"
       height="84"
       rx="6.0999999"
       ry="6.0999999"
       x="6"
       y="-90"
       transform="scale(1,-1)"
       id="rect2419"
       style="fill:url(#linearGradient3617);fill-opacity:1;fill-rule:nonzero;stroke:none" />
    <path
       d="M 120.78125,6.125 C 118.04223,6.6826484 116,9.0915 116,12 l 0,68 c 0,3.324 2.676,6 6,6 l 72,0 c 3.324,0 6,-2.676 6,-6 l 0,-68 c 0,-2.9085 -2.04223,-5.3173516 -4.78125,-5.875 2.20512,0.5362071 3.8125,2.4908437 3.8125,4.875 l 0,68 c 0,2.80489 -2.22636,5.03125 -5.03125,5.03125 l -72,0 c -2.80489,0 -5.03125,-2.22636 -5.03125,-5.03125 l 0,-68 c 0,-2.3841563 1.60738,-4.3387929 3.8125,-4.875 z"
       inkscape:connector-curvature="0"
       id="rect4359"
       style="opacity:0.2;fill:url(#radialGradient4375);fill-opacity:1;fill-rule:nonzero;stroke:none" />
    <path
       d="m 6,100 0,1 c 0,3.324 2.676,6 6,6 l 72,0 c 3.324,0 6,-2.676 6,-6 l 0,-1 c 0,3.324 -2.676,6 -6,6 l -72,0 c -3.324,0 -6,-2.676 -6,-6 z"
       inkscape:connector-curvature="0"
       id="path4412"
       style="opacity:0.15;fill:#000000;fill-opacity:1;fill-rule:nonzero;stroke:none" />
  </g>
  <g
     id="layer7"
     style="display:inline">
    <g
       clip-path="url(#clipPath3919-4)"
       id="g3915"
       style="opacity:0.2;display:inline;filter:url(#filter3927-5)">
      <path
         d="m 48,36 a 16,20 0 1 1 -32,0 16,20 0 1 1 32,0 z"
         transform="matrix(1.25,0,0,1,-12,0)"
         id="path3911"
         style="opacity:0.35655739;color:#000000;fill:#000000;fill-opacity:1;fill-rule:nonzero;stroke:none;stroke-width:1.5;marker:none;visibility:visible;display:inline;overflow:visible;enable-background:accumulate" />
      <path
         d="m 80,52 a 24,28 0 1 1 -48,0 24,28 0 1 1 48,0 z"
         transform="matrix(1.1666667,0,0,1,-5.3333333,0)"
         id="path3913"
         style="opacity:0.2;color:#000000;fill:#000000;fill-opacity:1;fill-rule:nonzero;stroke:none;stroke-width:1.5;marker:none;visibility:visible;display:inline;overflow:visible;enable-background:accumulate" />
    </g>
  </g>
  <g
     id="layer8">
    <path
       d="m 6,73.90625 0,2 C 6,79.28565 8.7143501,82 12.09375,82 l 71.8125,0 C 87.28565,82 90,79.28565 90,75.90625 l 0,-2 C 90,77.28565 87.28565,80 83.90625,80 l -71.8125,0 C 8.7143501,80 6,77.28565 6,73.90625 z"
       inkscape:connector-curvature="0"
       id="rect4028"
       style="opacity:0.15;fill:#ffffff;fill-opacity:1;fill-rule:nonzero;stroke:none;display:inline" />
    <path
       d="M 12,82 C 8.676,82 6,79.324 6,76 L 6,12 C 6,8.676 8.676,6 12,6 l 72,0 c 3.324,0 6,2.676 6,6 l 0,64 c 0,3.324 -2.676,6 -6,6 z m 0,-0.96875 72,0 c 2.80489,0 5.03125,-2.22636 5.03125,-5.03125 l 0,-64 C 89.03125,9.19511 86.80489,6.96875 84,6.96875 l -72,0 C 9.1951102,6.96875 6.96875,9.19511 6.96875,12 l 0,64 c 0,2.80489 2.2263602,5.03125 5.03125,5.03125 z"
       inkscape:connector-curvature="0"
       id="rect4377"
       style="opacity:0.8;fill:url(#linearGradient4390);fill-opacity:1;fill-rule:nonzero;stroke:none;display:inline" />
  </g>
  <g
     id="layer4"
     style="display:inline">
    <path
       d="m 6,76 0,8 c 0,3.324 2.676,6 6,6 l 72,0 c 3.324,0 6,-2.676 6,-6 l 0,-8 c 0,3.324 -2.676,6 -6,6 L 12,82 C 8.676,82 6,79.324 6,76 z"
       inkscape:connector-curvature="0"
       id="path3888"
       style="opacity:0.5;fill:url(#linearGradient3140);fill-opacity:1;fill-rule:nonzero;stroke:none;display:inline" />
    <path
       d="m 6,78 0,4 c 0,3.324 2.676,6 6,6 l 72,0 c 3.324,0 6,-2.676 6,-6 l 0,-4 c 0,3.324 -2.676,6 -6,6 L 12,84 C 8.676,84 6,81.324 6,78 z"
       inkscape:connector-curvature="0"
       id="path4010"
       style="opacity:0.8;fill:#000000;fill-opacity:1;fill-rule:nonzero;stroke:none;display:inline" />
    <path
       d="m 6,82 0,1 c 0,3.324 2.676,6 6,6 l 72,0 c 3.324,0 6,-2.676 6,-6 l 0,-1 c 0,3.324 -2.676,6 -6,6 L 12,88 C 8.676,88 6,85.324 6,82 z"
       inkscape:connector-curvature="0"
       id="path4054"
       style="opacity:0.4;fill:#ffffff;fill-opacity:1;fill-rule:nonzero;stroke:none;display:inline" />
    <path
       d="m 6,77 0,1 c 0,3.324 2.676,6 6,6 l 72,0 c 3.324,0 6,-2.676 6,-6 l 0,-1 c 0,3.324 -2.676,6 -6,6 L 12,83 C 8.676,83 6,80.324 6,77 z"
       inkscape:connector-curvature="0"
       id="path4059"
       style="opacity:0.2;fill:#000000;fill-opacity:1;fill-rule:nonzero;stroke:none;display:inline" />
    <path
       d="m 84,85.5 a 36,0.5 0 1 1 -72,0 36,0.5 0 1 1 72,0 z"
       transform="matrix(1.0833333,0,0,8,-4,-579)"
       id="path4089"
       style="opacity:0.5;color:#000000;fill:url(#radialGradient4091);fill-opacity:1;fill-rule:nonzero;stroke:none;stroke-width:1.5;marker:none;visibility:visible;display:inline;overflow:visible;enable-background:accumulate" />
    <path
       d="m 84,85.5 a 36,0.5 0 1 1 -72,0 36,0.5 0 1 1 72,0 z"
       transform="matrix(1,0,0,2,0,-66)"
       id="path4061"
       style="color:#000000;fill:url(#radialGradient4087);fill-opacity:1;fill-rule:nonzero;stroke:none;stroke-width:1.5;marker:none;visibility:visible;display:inline;overflow:visible;enable-background:accumulate" />
    <rect
       width="74.178574"
       height="5.9999933"
       rx="6.7435069"
       ry="5.9999933"
       x="10.910714"
       y="80.000008"
       transform="matrix(1,0,0,0.50000072,0,44.000184)"
       id="rect3323"
       style="opacity:0.59999999999999998;fill:#00aa2c;fill-opacity:1;fill-rule:nonzero;stroke:none;display:inline;filter:url(#filter4180)" />
    <rect
       width="64"
       height="3"
       rx="5.818182"
       ry="3"
       x="16"
       y="84.000244"
       id="rect3311"
       style="fill:url(#radialGradient4138);fill-opacity:1.0;fill-rule:nonzero;stroke:none;display:inline" />
  </g>
  <g
     id="layer5"
     style="display:inline">
    <rect
       width="66"
       height="62"
       rx="12"
       ry="12"
       x="15"
       y="15"
       clip-path="url(#clipPath4355)"
       id="rect3171"
       style="opacity:0.2;fill:url(#linearGradient3613);fill-opacity:1;fill-rule:nonzero;stroke:#ffffff;stroke-width:0.5;stroke-linecap:round;stroke-linejoin:miter;stroke-miterlimit:4;stroke-opacity:1;stroke-dasharray:none;stroke-dashoffset:0;filter:url(#filter3794)" />
  </g>
  <g
     id="layer6">
    <path
       d="m 48,20 c -10.250337,-0.07413 -20.967315,5.05619 -25.75,14.53125 -3.670983,7.062171 -2.796508,16.014137 2.03125,22.3125 0.478659,0.596973 0.905271,1.056777 1,1.21875 -0.02935,0.02452 -0.07014,0.08577 -0.375,0.21875 a 0.95298813,0.95298813 0 0 0 -0.28125,0.1875 c -1.625638,1.544648 -1.965324,3.774497 -1.40625,5.6875 0.548631,1.877273 1.948561,3.536178 3.875,4.25 l 0,0.03125 c 0.01889,0.0086 0.04355,-0.0084 0.0625,0 0.01135,0.005 0.01987,0.0263 0.03125,0.03125 3.186074,1.386603 7.072995,0.0066 8.78125,-2.96875 0.456881,0.42312 0.994922,0.744762 1.53125,0.96875 1.048409,0.43785 2.159181,0.611597 3.03125,0.84375 a 0.95298813,0.95298813 0 0 0 0.03125,0.03125 C 51.513684,69.911849 64.130547,66.581346 71.28125,57.5 76.464196,51.136429 77.557155,41.85276 73.75,34.53125 68.977556,25.03977 58.233938,19.93867 48,20 z M 37.875,57.84375 c -0.596056,0.5996 -1.179471,1.174102 -1.75,1.8125 -0.141685,-0.315833 -0.349098,-0.675731 -0.5625,-1.03125 l 2.3125,-0.78125 z"
       id="path4011"
       style="opacity:0.05;color:#000000;fill:#ffffff;fill-opacity:1;fill-rule:nonzero;stroke:none;stroke-width:1.5;marker:none;visibility:visible;display:inline;overflow:visible;enable-background:accumulate" />
    <path
       d="m 48,20.9375 c -9.924267,-0.07177 -20.309057,4.945003 -24.894263,14.028834 -3.489225,6.712508 -2.65737,15.288331 1.937262,21.282554 0.920293,1.147768 2.152484,2.066673 0.241576,2.900193 -2.690176,2.556151 -1.076374,7.253627 2.219711,8.399277 3.201871,1.451786 7.601446,-0.324162 8.370714,-3.892108 0.647509,1.952282 3.065391,2.26853 4.913737,2.760577 10.612944,2.48878 22.874421,-0.75894 29.755953,-9.498441 4.935935,-6.060294 5.967912,-14.993653 2.349573,-21.952052 C 68.319906,25.868812 57.909873,20.878112 48,20.9375 z M 41.3125,55.625 c -1.682045,1.798762 -3.559602,3.466848 -5.125,5.34375 -0.618126,1.085507 -1.060801,-2.615978 -2.4375,-2.71875 2.520833,-0.875 5.041667,-1.75 7.5625,-2.625 z m -5.375,6.65625 c 1.41708,0.274474 1.036848,0.244312 0,0 z"
       inkscape:connector-curvature="0"
       id="path4004"
       style="opacity:0.07999998;color:#000000;fill:#ffffff;fill-opacity:1;fill-rule:nonzero;stroke:none;stroke-width:1.5;marker:none;visibility:visible;display:inline;overflow:visible;enable-background:accumulate" />
    <path
       d="m 48,22.09375 c -14.127981,0 -25.90625,9.67078 -25.90625,22 0,5.240387 2.180412,10.04628 5.71875,13.78125 0.0015,0.0015 0.09217,0.09233 0.09375,0.09375 0.0016,0.0014 0.09208,0.09245 0.09375,0.09375 0.0017,0.0013 0.123237,0.09257 0.125,0.09375 0.0018,0.0012 0.123158,0.06145 0.125,0.0625 0.0018,0.001 0.123087,0.06159 0.125,0.0625 9.56e-4,4.57e-4 0.03139,0.01772 0.0625,0.03125 -1.627036,0.484754 -2.999748,1.686675 -3.3125,3.46875 -0.453063,2.581573 1.648083,4.781728 4.1875,5.09375 2.508606,0.308236 5.1145,-1.134771 5.5625,-3.6875 0.453063,-2.581573 -1.648083,-4.781728 -4.1875,-5.09375 l 14.875,-5.1875 -8.1875,8.375 a 0.91789185,0.91789185 0 0 0 -0.03125,0.03125 c -0.0012,0.0013 -0.06135,0.09235 -0.0625,0.09375 -0.0011,0.0014 -0.06144,0.09229 -0.0625,0.09375 -0.0011,0.0015 -0.06153,0.09223 -0.0625,0.09375 -9.69e-4,0.0015 -0.06163,0.09217 -0.0625,0.09375 -8.74e-4,0.0016 -0.06172,0.09212 -0.0625,0.09375 -7.76e-4,0.0016 -0.06182,0.123325 -0.0625,0.125 -6.75e-4,0.0017 -0.03068,0.09204 -0.03125,0.09375 -5.72e-4,0.0017 -0.03078,0.123255 -0.03125,0.125 -4.67e-4,0.0017 -0.03089,0.12323 -0.03125,0.125 -3.59e-4,0.0018 2.51e-4,0.09196 0,0.09375 -2.51e-4,0.0018 -0.03111,0.1232 -0.03125,0.125 -1.41e-4,0.0018 3.1e-5,0.123194 0,0.125 -3.1e-5,0.0018 -7.9e-5,0.123196 0,0.125 7.9e-5,0.0018 -1.89e-4,0.09195 0,0.09375 1.89e-4,0.0018 0.03095,0.123219 0.03125,0.125 2.98e-4,0.0018 0.03084,0.12324 0.03125,0.125 4.06e-4,0.0018 0.03074,0.09202 0.03125,0.09375 5.13e-4,0.0017 0.03063,0.123303 0.03125,0.125 6.17e-4,0.0017 0.03053,0.09209 0.03125,0.09375 7.2e-4,0.0017 0.06168,0.123391 0.0625,0.125 8.19e-4,0.0016 0.06158,0.09219 0.0625,0.09375 9.16e-4,0.0016 0.06149,0.09225 0.0625,0.09375 0.001,0.0015 0.0614,0.09232 0.0625,0.09375 0.0011,0.0014 0.06132,0.09239 0.0625,0.09375 0.0012,0.0014 0.09249,0.09246 0.09375,0.09375 0.0013,0.0013 0.06116,0.09254 0.0625,0.09375 0.0013,0.0012 0.09234,0.06137 0.09375,0.0625 0.0014,0.0011 0.09227,0.06146 0.09375,0.0625 0.0015,0.001 0.09221,0.06155 0.09375,0.0625 0.0015,9.45e-4 0.123406,0.06165 0.125,0.0625 0.0016,8.5e-4 0.09211,0.06175 0.09375,0.0625 0.0016,7.51e-4 0.09206,0.0306 0.09375,0.03125 a 0.91789185,0.91789185 0 0 0 0.03125,0.03125 c 3.057851,1.069706 6.417065,1.625 9.90625,1.625 14.125053,0 25.90625,-9.639448 25.90625,-21.96875 0,-12.32922 -11.778269,-22 -25.90625,-22 z"
       id="path3999"
       style="opacity:0.12000002;color:#000000;fill:#ffffff;fill-opacity:1;fill-rule:nonzero;stroke:none;stroke-width:1.5;marker:none;visibility:visible;display:inline;overflow:visible;enable-background:accumulate" />
    <path
       d="m 48,23 c -13.710588,0 -25,9.352869 -25,21.09375 0,4.986274 2.070836,9.569507 5.46875,13.15625 a 1.0065935,1.0065935 0 0 0 1.0625,0.25 l 19,-6.625 a 1.0065935,1.0065935 0 0 0 -0.375,-1.9375 c -0.03473,7.22e-4 -0.07947,0 -0.15625,0 -3.413177,0 -6,-2.259019 -6,-4.84375 0,-2.58473 2.592247,-4.875 6,-4.875 3.407753,0 6,2.29027 6,4.875 0,1.414808 -0.777351,2.70365 -2.0625,3.625 0.009,-0.0065 0.0056,-0.01573 -0.0625,0.03125 a 1.0065935,1.0065935 0 0 0 -0.15625,0.15625 L 38.03125,61.9375 a 1.0065935,1.0065935 0 0 0 0.375,1.625 c 2.957441,1.03458 6.205544,1.59375 9.59375,1.59375 13.709006,0 25,-9.321619 25,-21.0625 C 73,32.352869 61.710588,23 48,23 z m 0,16.75 c -2.663311,0 -5,1.845199 -5,4.34375 0,2.498551 2.33669,4.34375 5,4.34375 2.66331,0 5,-1.845199 5,-4.34375 C 53,41.595199 50.663311,39.75 48,39.75 z M 29.78125,58.96875 c -1.793504,0.08419 -3.440706,1.206381 -3.75,2.96875 -0.351934,2.005337 1.314114,3.774186 3.40625,4.03125 2.096459,0.257595 4.179071,-0.930765 4.53125,-2.9375 C 34.320684,61.025913 32.654636,59.257064 30.5625,59 c -0.230252,-0.02829 -0.500509,-0.04442 -0.78125,-0.03125 z"
       id="path3993"
       style="opacity:0.2;color:#000000;fill:#ffffff;fill-opacity:1;fill-rule:nonzero;stroke:none;stroke-width:1.5;marker:none;visibility:visible;display:inline;overflow:visible;enable-background:accumulate" />
    <path
       d="m 48,20 c -10.131508,-0.06655 -20.716872,4.901565 -25.59375,14.1875 -3.714832,6.865845 -3.06498,15.631966 1.5,21.9375 0.0083,0.0115 0.0229,0.01976 0.03125,0.03125 1.315661,1.9702 3.025757,3.5649 4.5625,5.0625 a 0.97909614,0.97909614 0 0 0 0.09375,0.09375 c 0.99515,0.743346 2.483364,1.101018 3.84375,0.46875 l 0,0.03125 c 0.0294,-0.01029 0.03374,-0.05151 0.0625,-0.0625 0.02985,-0.01463 0.06402,0.01564 0.09375,0 L 32.5625,61.71875 c 0.650781,-0.265567 1.122765,-0.723444 1.5,-1.21875 -0.0013,0.87799 -0.06652,1.686489 0.0625,2.59375 a 0.97909614,0.97909614 0 0 0 0.03125,0.125 c 0.376774,1.450515 1.482945,2.324464 2.59375,2.8125 1.110805,0.488036 2.297055,0.706417 3.15625,0.96875 a 0.97909614,0.97909614 0 0 0 0.03125,0 c 11.079935,2.860748 24.037287,-0.389398 31.34375,-9.59375 0.0091,-0.01111 0.02219,-0.02012 0.03125,-0.03125 5.153251,-6.329721 6.23079,-15.626712 2.4375,-22.90625 -0.0041,-0.008 0.0041,-0.02324 0,-0.03125 C 68.954824,24.984051 58.200868,19.941369 48,20 z m 0,23 a 0.97909614,0.97909614 0 0 0 0.1875,0 c 0.836615,-0.152371 1.422143,0.404547 1.59375,0.90625 0.0858,0.250852 0.05442,0.395979 -0.03125,0.53125 -0.08567,0.135271 -0.291738,0.345667 -0.90625,0.4375 a 0.97909614,0.97909614 0 0 0 -0.28125,0.09375 c -0.694637,0.333978 -1.76402,-0.09136 -2.21875,-0.65625 -0.227365,-0.282448 -0.244858,-0.505827 -0.21875,-0.59375 0.02611,-0.08792 0.123521,-0.305463 0.84375,-0.53125 a 0.97909614,0.97909614 0 0 0 0.03125,0 C 47.301895,43.081336 47.666189,42.999868 48,43 z"
       transform="translate(-100,0)"
       id="path4003"
       style="opacity:0.05;color:#000000;fill:#ffffff;fill-opacity:1;fill-rule:nonzero;stroke:none;stroke-width:1.5;marker:none;visibility:visible;display:inline;overflow:visible;enable-background:accumulate" />
    <path
       d="m -52,20.96875 c -9.803655,-0.0644 -20.060381,4.799277 -24.731531,13.69349 -3.531368,6.526761 -2.908969,14.940705 1.447693,20.931059 1.232099,1.856751 2.903976,3.425489 4.461641,4.943478 0.713649,0.533074 2.026585,0.822394 2.947197,0.338223 1.591726,-0.557158 1.965772,-2.607476 2.84375,-4.0625 0.07963,2.045885 -0.16178,4.139583 0.125,6.15625 0.575402,2.215198 3.227122,2.53085 5.098388,3.102193 10.739215,2.772777 23.305807,-0.431437 30.32458,-9.30514 4.925481,-6.023288 5.96766,-14.923193 2.3471,-21.84492 C -31.720435,25.857074 -42.120137,20.911964 -52,20.96875 z m 0,21.0625 c 2.638966,-0.480629 4.2567,3.3301 1.011114,3.815124 -2.432488,1.169529 -5.933411,-2.469688 -2.312445,-3.604837 0.416918,-0.146613 0.860253,-0.210462 1.301331,-0.210287 z"
       inkscape:connector-curvature="0"
       id="path3967"
       style="opacity:0.075;color:#000000;fill:#ffffff;fill-opacity:1;fill-rule:nonzero;stroke:none;stroke-width:1.5;marker:none;visibility:visible;display:inline;overflow:visible;enable-background:accumulate" />
    <path
       d="m 48,23 c -14.154887,0 -26,9.665966 -26,22 0,6.133112 3.00856,11.658544 7.6875,15.59375 0.0057,0.0048 -0.0057,0.02643 0,0.03125 0.02075,0.01678 0.09192,0.06111 0.09375,0.0625 0.0022,0.0017 0.09146,0.06096 0.09375,0.0625 0.0023,0.0015 0.09137,0.06109 0.09375,0.0625 0.0024,0.0014 0.0913,0.06123 0.09375,0.0625 0.0025,0.0013 0.09123,0.03012 0.09375,0.03125 0.0025,0.0011 0.09117,0.06151 0.09375,0.0625 0.0026,9.87e-4 0.122367,0.03041 0.125,0.03125 0.0026,8.38e-4 0.09107,0.03056 0.09375,0.03125 0.0027,6.87e-4 0.122289,0.03072 0.125,0.03125 0.0027,5.33e-4 0.122263,-3.78e-4 0.125,0 0.0027,3.78e-4 0.09099,0.03103 0.09375,0.03125 0.0028,2.22e-4 0.122237,-6.4e-5 0.125,0 0.0028,6.4e-5 0.09099,9.3e-5 0.09375,0 0.0028,-9.3e-5 0.122248,2.5e-4 0.125,0 0.0028,-2.5e-4 0.122267,-0.03084 0.125,-0.03125 0.0027,-4.07e-4 0.09104,-0.03069 0.09375,-0.03125 0.0027,-5.62e-4 0.122331,7.15e-4 0.125,0 0.0027,-7.15e-4 0.09113,-0.03038 0.09375,-0.03125 0.0026,-8.66e-4 0.122429,-0.06149 0.125,-0.0625 0.0026,-0.001 0.09124,-0.03009 0.09375,-0.03125 0.0025,-0.0012 0.09131,-0.0612 0.09375,-0.0625 0.0024,-0.0013 0.09139,-0.06106 0.09375,-0.0625 0.0024,-0.0014 0.09148,-0.02968 0.09375,-0.03125 0.0023,-0.0016 0.09157,-0.09206 0.09375,-0.09375 0.0022,-0.0017 0.09167,-0.06068 0.09375,-0.0625 0.0021,-0.0018 0.09177,-0.06057 0.09375,-0.0625 0.002,-0.0019 0.06064,-0.09171 0.0625,-0.09375 0.0019,-0.002 0.09201,-0.09161 0.09375,-0.09375 0.0017,-0.0021 0.06088,-0.09151 0.0625,-0.09375 0.0016,-0.0022 0.06101,-0.09142 0.0625,-0.09375 0.0015,-0.0023 0.06115,-0.09134 0.0625,-0.09375 0.0014,-0.0024 0.06129,-0.09127 0.0625,-0.09375 l -0.03125,0 3.25,-6.53125 0,9.75 c -3e-6,0.0037 0.03098,0.152604 0.03125,0.15625 2.73e-4,0.0036 -5.46e-4,0.152635 0,0.15625 5.46e-4,0.0036 0.03043,0.121437 0.03125,0.125 8.17e-4,0.0036 0.03017,0.152758 0.03125,0.15625 0.0011,0.0035 0.06116,0.1216 0.0625,0.125 0.0013,0.0034 0.0609,0.152961 0.0625,0.15625 0.0016,0.0033 0.06066,0.12184 0.0625,0.125 0.0018,0.0032 0.09168,0.121988 0.09375,0.125 0.0021,0.003 0.09146,0.122152 0.09375,0.125 0.0023,0.0028 0.09125,0.122333 0.09375,0.125 0.0025,0.0027 0.09106,0.09128 0.09375,0.09375 0.0027,0.0025 0.122128,0.09149 0.125,0.09375 0.0029,0.0023 0.121966,0.09171 0.125,0.09375 0.003,0.002 0.121821,0.09194 0.125,0.09375 0.0032,0.0018 0.121694,0.06094 0.125,0.0625 0.0033,0.0016 0.121586,0.06119 0.125,0.0625 C 40.557509,66.31606 44.19019,67 48,67 62.154887,67 74,57.334034 74,45 74,32.665966 62.154887,23 48,23 z m 0,19 c 2.425002,0 4,1.559941 4,3 0,1.440059 -1.574998,3 -4,3 -2.425002,0 -4,-1.559941 -4,-3 0,-1.440059 1.574998,-3 4,-3 z"
       transform="translate(-100,-1)"
       id="path3963"
       style="opacity:0.1;color:#000000;fill:#ffffff;fill-opacity:1;fill-rule:nonzero;stroke:none;stroke-width:1.5;marker:none;visibility:visible;display:inline;overflow:visible;enable-background:accumulate" />
    <path
       d="m 48,23.9375 c -13.73663,0 -25.0625,9.323018 -25.0625,21.0625 0,5.841789 2.832879,11.119552 7.34375,14.90625 A 1.0698938,1.0698938 0 0 0 31.9375,59.5625 l 5,-10.03125 0,13.65625 a 1.0698938,1.0698938 0 0 0 0.6875,1 c 3.168639,1.212383 6.675571,1.875 10.375,1.875 C 61.73663,66.0625 73.0625,56.739482 73.0625,45 73.0625,33.260518 61.73663,23.9375 48,23.9375 z m 0,17.125 c 2.831911,0 4.9375,1.869864 4.9375,3.9375 0,2.067636 -2.105589,3.9375 -4.9375,3.9375 -2.831911,0 -4.9375,-1.869864 -4.9375,-3.9375 0,-2.067636 2.105589,-3.9375 4.9375,-3.9375 z"
       transform="translate(-100,-1)"
       id="path3959"
       style="opacity:0.2;color:#000000;fill:#ffffff;fill-opacity:1;fill-rule:nonzero;stroke:none;stroke-width:1.5;marker:none;visibility:visible;display:inline;overflow:visible;enable-background:accumulate" />
    <path
       d="m -52,24 c -13.254834,0 -24,8.954305 -24,20 0,5.496334 2.662309,10.473455 6.96875,14.088542 L -62,44 -62,62.177083 C -58.954952,63.342178 -55.570098,64 -52,64 c 13.254834,0 24,-8.954305 24,-20 0,-11.045695 -10.745166,-20 -24,-20 z m 0,15 c 3.313708,0 6,2.238577 6,5 0,2.761423 -2.686292,5 -6,5 -3.313708,0 -6,-2.238577 -6,-5 0,-2.761423 2.686292,-5 6,-5 z"
       inkscape:connector-curvature="0"
       id="path3154"
       style="opacity:0.6;color:#000000;fill:url(#linearGradient3942);fill-opacity:1;fill-rule:nonzero;stroke:none;stroke-width:1.5;marker:none;visibility:visible;display:inline;overflow:visible;enable-background:accumulate" />
    <path
       d="m -52,24 c -13.254834,0 -24,8.954305 -24,20 0,0.166403 -0.0049,0.334572 0,0.5 0.318529,-10.814582 10.945813,-19.5 24,-19.5 13.054187,0 23.681471,8.685418 24,19.5 0.0049,-0.166223 0,-0.332795 0,-0.5 0,-11.045695 -10.745166,-20 -24,-20 z m -5.96875,20.5 C -57.989234,44.668085 -58,44.827411 -58,45 c 0,2.761423 2.686292,5 6,5 3.313708,0 6,-2.238577 6,-5 0,-0.172589 -0.01077,-0.331915 -0.03125,-0.5 -0.30726,2.52128 -2.862149,4.5 -5.96875,4.5 -3.106601,0 -5.66149,-1.97872 -5.96875,-4.5 z"
       inkscape:connector-curvature="0"
       id="path3944"
       style="opacity:0.2;color:#000000;fill:#000000;fill-opacity:1;fill-rule:nonzero;stroke:none;stroke-width:1.5;marker:none;visibility:visible;display:inline;overflow:visible;enable-background:accumulate" />
    <path
       d="m 48,24 c -13.254834,0 -24,9.002953 -24,20.09375 0,4.709404 1.943219,9.044178 5.1875,12.46875 l 19,-6.625 c -0.06252,0.0013 -0.124586,0 -0.1875,0 -3.865993,0 -7,-2.608934 -7,-5.84375 0,-3.234815 3.134007,-5.875 7,-5.875 3.865993,0 7,2.640185 7,5.875 0,1.780494 -0.970351,3.363266 -2.46875,4.4375 -0.0329,0.02359 -0.06033,0.03943 -0.09375,0.0625 L 38.75,62.625 c 2.846903,0.995911 5.971354,1.53125 9.25,1.53125 13.254834,0 24,-8.971703 24,-20.0625 C 72,33.002953 61.254834,24 48,24 z m 0,16.75 c -2.209139,0 -4,1.495284 -4,3.34375 0,1.848467 1.790861,3.34375 4,3.34375 2.209139,0 4,-1.495283 4,-3.34375 C 52,42.245284 50.209139,40.75 48,40.75 z M 29.84375,59.96875 c -1.393187,0.0654 -2.601869,0.956065 -2.8125,2.15625 -0.240721,1.37164 0.891976,2.64233 2.53125,2.84375 1.639274,0.20142 3.165529,-0.75336 3.40625,-2.125 C 33.209471,61.47211 32.076774,60.20142 30.4375,60 30.232591,59.97482 30.042777,59.95941 29.84375,59.96875 z"
       inkscape:connector-curvature="0"
       id="path3157"
       style="opacity:0.7;color:#000000;fill:url(#linearGradient3968);fill-opacity:1;fill-rule:nonzero;stroke:none;stroke-width:1.5;marker:none;visibility:visible;display:inline;overflow:visible;enable-background:accumulate" />
    <path
       d="m 72,48 a 24,24 0 1 1 -48,0 24,24 0 1 1 48,0 z"
       transform="translate(0,-80)"
       id="path3948"
       style="opacity:0.2;color:#000000;fill:#000000;fill-opacity:1;fill-rule:nonzero;stroke:none;stroke-width:1.5;marker:none;visibility:visible;display:inline;overflow:visible;enable-background:accumulate" />
    <path
       d="m 54,48 a 6,6 0 1 1 -12,0 6,6 0 1 1 12,0 z"
       transform="matrix(1.1666667,0,0,1.1666667,-8,-88)"
       id="path3950"
       style="opacity:0.2;color:#000000;fill:#000000;fill-opacity:1;fill-rule:nonzero;stroke:none;stroke-width:1.5;marker:none;visibility:visible;display:inline;overflow:visible;enable-background:accumulate" />
    <path
       d="m 54,48 a 6,6 0 1 1 -12,0 6,6 0 1 1 12,0 z"
       transform="matrix(0.66666667,0,0,0.66666667,16,-64)"
       id="path3952"
       style="opacity:0.2;color:#000000;fill:#000000;fill-opacity:1;fill-rule:nonzero;stroke:none;stroke-width:1.5;marker:none;visibility:visible;display:inline;overflow:visible;enable-background:accumulate" />
    <path
       d="M 25.779495,-15.673388 52.693552,-26.882022 34.220505,-4.326612 z"
       inkscape:connector-curvature="0"
       id="path3954"
       style="fill:#000000;stroke:none" />
    <path
       d="m 31,68 a 3,3 0 1 1 -6,0 3,3 0 1 1 6,0 z"
       transform="matrix(0.98938937,0.14528823,-0.14528823,0.98938937,12.176698,-81.346548)"
       id="path3956"
       style="opacity:0.2;color:#000000;fill:#000000;fill-opacity:1;fill-rule:nonzero;stroke:none;stroke-width:1.5;marker:none;visibility:visible;display:inline;overflow:visible;enable-background:accumulate" />
    <path
       d="m 48,24 c -13.254834,0 -24,9.002953 -24,20.09375 0,0.126345 0.02847,0.249204 0.03125,0.375 C 24.427887,33.6682 34.996354,25 48,25 c 13.054187,0 23.681471,8.734655 24,19.59375 0.0049,-0.166893 0,-0.332112 0,-0.5 C 72,33.002953 61.254834,24 48,24 z m 0,16.75 c -2.209139,0 -4,1.495284 -4,3.34375 0,0.167787 0.03402,0.338887 0.0625,0.5 C 44.347822,42.979924 45.991386,41.75 48,41.75 c 2.008614,0 3.652178,1.229924 3.9375,2.84375 C 51.965984,44.432637 52,44.261537 52,44.09375 52,42.245284 50.209139,40.75 48,40.75 z m -6.96875,3.9375 C 41.019947,44.823666 41,44.955243 41,45.09375 c 0,2.654975 2.105709,4.878396 5,5.59375 l 2.1875,-0.75 c -0.06252,0.0013 -0.124586,0 -0.1875,0 -3.624368,0 -6.61028,-2.297968 -6.96875,-5.25 z m 13.9375,0.0625 c -0.206217,1.510431 -1.126401,2.841295 -2.4375,3.78125 -0.0329,0.02359 -0.06033,0.03943 -0.09375,0.0625 L 38.75,62.625 c 0.243461,0.08517 0.502557,0.140365 0.75,0.21875 l 12.9375,-13.25 c 0.03342,-0.02307 0.06085,-0.03891 0.09375,-0.0625 C 54.029649,48.457016 55,46.874244 55,45.09375 55,44.976466 54.976875,44.865624 54.96875,44.75 z m -25.125,15.21875 c -1.393187,0.0654 -2.601869,0.956065 -2.8125,2.15625 -0.05257,0.299561 -0.03816,0.595156 0.03125,0.875 0.270316,-1.135978 1.43735,-1.968164 2.78125,-2.03125 0.199027,-0.0093 0.388841,0.0061 0.59375,0.03125 1.281263,0.157431 2.251581,0.967234 2.5,1.96875 0.0098,-0.04129 0.02386,-0.0829 0.03125,-0.125 C 33.209471,61.47211 32.076774,60.20142 30.4375,60 30.232591,59.97482 30.042777,59.95941 29.84375,59.96875 z"
       inkscape:connector-curvature="0"
       id="path3980"
       style="opacity:0.2;color:#000000;fill:#000000;fill-opacity:1;fill-rule:nonzero;stroke:none;stroke-width:1.5;marker:none;visibility:visible;display:inline;overflow:visible;enable-background:accumulate" />
    <path
       d="m 48,24 c -13.254834,0 -24,9.002953 -24,20.09375 0,4.709404 1.943219,9.044178 5.1875,12.46875 l 19,-6.625 c -0.06252,0.0013 -0.124586,0 -0.1875,0 -3.865993,0 -7,-2.608934 -7,-5.84375 0,-3.234815 3.134007,-5.875 7,-5.875 3.865993,0 7,2.640185 7,5.875 0,1.780494 -0.970351,3.363266 -2.46875,4.4375 -0.0329,0.02359 -0.06033,0.03943 -0.09375,0.0625 L 38.75,62.625 c 2.846903,0.995911 5.971354,1.53125 9.25,1.53125 13.254834,0 24,-8.971703 24,-20.0625 C 72,33.002953 61.254834,24 48,24 z m 0,1.09375 c 12.762025,0 22.90625,8.612142 22.90625,19 0,10.387858 -10.142514,18.96875 -22.90625,18.96875 -2.519536,0 -4.896541,-0.414711 -7.15625,-1.03125 L 53.0625,49.5 c -0.004,0.0028 0.01554,-0.03767 0.09375,-0.09375 0.02431,-0.01743 0.0384,-0.04481 0.0625,-0.0625 1.689718,-1.240534 2.875,-3.104681 2.875,-5.25 0,-3.937755 -3.73226,-6.96875 -8.09375,-6.96875 -4.36149,0 -8.09375,3.030995 -8.09375,6.96875 0,2.717757 1.841262,4.917808 4.375,6.0625 l -14.71875,5.125 c -2.800181,-3.161963 -4.46875,-6.999938 -4.46875,-11.1875 0,-10.387858 10.144225,-19 22.90625,-19 z M 48,40.75 c -2.209139,0 -4,1.495284 -4,3.34375 0,1.848467 1.790861,3.34375 4,3.34375 2.209139,0 4,-1.495283 4,-3.34375 C 52,42.245284 50.209139,40.75 48,40.75 z m 0,1.09375 c 1.718041,0 2.90625,1.104474 2.90625,2.25 0,1.145528 -1.188209,2.25 -2.90625,2.25 -1.718041,0 -2.90625,-1.104472 -2.90625,-2.25 0,-1.145526 1.188209,-2.25 2.90625,-2.25 z m -18.15625,18.125 c -1.393187,0.0654 -2.601869,0.956065 -2.8125,2.15625 -0.240721,1.37164 0.891976,2.64233 2.53125,2.84375 1.639274,0.20142 3.165529,-0.75336 3.40625,-2.125 C 33.209471,61.47211 32.076774,60.20142 30.4375,60 30.232591,59.97482 30.042777,59.95941 29.84375,59.96875 z m 0.0625,1.09375 c 0.110669,-0.0052 0.228744,0.0094 0.40625,0.03125 1.149592,0.141252 1.714216,0.87608 1.59375,1.5625 -0.120201,0.684908 -1.073832,1.359428 -2.21875,1.21875 -1.149592,-0.141252 -1.714216,-0.87608 -1.59375,-1.5625 0.103947,-0.592292 0.852177,-1.20492 1.8125,-1.25 z"
       inkscape:connector-curvature="0"
       id="path4013"
       style="opacity:0.05;color:#000000;fill:#000000;fill-opacity:1;fill-rule:nonzero;stroke:none;stroke-width:1.5;marker:none;visibility:visible;display:inline;overflow:visible;enable-background:accumulate" />
  </g>
</svg>
