<?xml version="1.0" encoding="UTF-8" standalone="no"?>
<!-- Created with Inkscape (http://www.inkscape.org/) -->

<svg
   xmlns:dc="http://purl.org/dc/elements/1.1/"
   xmlns:cc="http://creativecommons.org/ns#"
   xmlns:rdf="http://www.w3.org/1999/02/22-rdf-syntax-ns#"
   xmlns:svg="http://www.w3.org/2000/svg"
   xmlns="http://www.w3.org/2000/svg"
   xmlns:xlink="http://www.w3.org/1999/xlink"
   xmlns:sodipodi="http://sodipodi.sourceforge.net/DTD/sodipodi-0.dtd"
   xmlns:inkscape="http://www.inkscape.org/namespaces/inkscape"
   version="1.0"
   width="96"
   height="96"
   id="svg2408"
   style="display:inline"
   inkscape:version="0.48.3.1 r9886"
   sodipodi:docname="video-display.svg"
   inkscape:export-filename="/home/rowen/MATE/Icon themes/sources/Faience-Ocre/devices/16/video-display.png"
   inkscape:export-xdpi="15"
   inkscape:export-ydpi="15">
  <sodipodi:namedview
     pagecolor="#ffffff"
     bordercolor="#666666"
     borderopacity="1"
     objecttolerance="10"
     gridtolerance="10"
     guidetolerance="10"
     inkscape:pageopacity="0"
     inkscape:pageshadow="2"
     inkscape:window-width="705"
     inkscape:window-height="480"
     id="namedview3796"
     showgrid="false"
     inkscape:zoom="2.4583333"
     inkscape:cx="48"
     inkscape:cy="48"
     inkscape:window-x="0"
     inkscape:window-y="25"
     inkscape:window-maximized="0"
     inkscape:current-layer="svg2408" />
  <defs
     id="defs2410">
    <linearGradient
       id="linearGradient4114">
      <stop
         id="stop4116"
         style="stop-color:#b3b3b3;stop-opacity:1"
         offset="0" />
      <stop
         id="stop4122"
         style="stop-color:#a4a4a4;stop-opacity:1"
         offset="0.3125" />
      <stop
         id="stop4124"
         style="stop-color:#949494;stop-opacity:1"
         offset="0.5625" />
      <stop
         id="stop3909"
         style="stop-color:#a2a2a2;stop-opacity:1"
         offset="0.75" />
      <stop
         id="stop4118"
         style="stop-color:#e2e2e2;stop-opacity:1"
         offset="1" />
    </linearGradient>
    <linearGradient
       x1="45.447727"
       y1="92.539597"
       x2="45.447727"
       y2="7.0165396"
       id="ButtonShadow"
       gradientUnits="userSpaceOnUse"
       gradientTransform="scale(1.0058652,0.994169)">
      <stop
         id="stop3750"
         style="stop-color:#000000;stop-opacity:1"
         offset="0" />
      <stop
         id="stop3752"
         style="stop-color:#000000;stop-opacity:0.58823532"
         offset="1" />
    </linearGradient>
    <linearGradient
       id="linearGradient3700">
      <stop
         id="stop3702"
         style="stop-color:#2276c5;stop-opacity:1"
         offset="0" />
      <stop
         id="stop3704"
         style="stop-color:#68baf4;stop-opacity:1"
         offset="1" />
    </linearGradient>
    <filter
       color-interpolation-filters="sRGB"
       id="filter3174">
      <feGaussianBlur
         id="feGaussianBlur3176"
         stdDeviation="1.71" />
    </filter>
    <linearGradient
       x1="48"
       y1="90"
       x2="48"
       y2="5.9877172"
       id="linearGradient3617"
       xlink:href="#linearGradient3700"
       gradientUnits="userSpaceOnUse"
       gradientTransform="translate(-100,0)" />
    <linearGradient
       x1="45.447727"
       y1="92.539597"
       x2="45.447727"
       y2="7.0165396"
       id="ButtonShadow-0"
       gradientUnits="userSpaceOnUse"
       gradientTransform="matrix(1.0058652,0,0,0.994169,100,0)">
      <stop
         id="stop3750-8"
         style="stop-color:#000000;stop-opacity:1"
         offset="0" />
      <stop
         id="stop3752-5"
         style="stop-color:#000000;stop-opacity:0.58823532"
         offset="1" />
    </linearGradient>
    <linearGradient
       x1="32.251034"
       y1="6.1317081"
       x2="32.251034"
       y2="90.238609"
       id="linearGradient3780"
       xlink:href="#ButtonShadow-0"
       gradientUnits="userSpaceOnUse"
       gradientTransform="matrix(1.0238095,0,0,1.0119048,-1.1428571,-98.071429)" />
    <linearGradient
       x1="32.251034"
       y1="6.1317081"
       x2="32.251034"
       y2="90.238609"
       id="linearGradient3772"
       xlink:href="#ButtonShadow-0"
       gradientUnits="userSpaceOnUse"
       gradientTransform="matrix(1.0238095,0,0,1.0119048,-1.1428571,-98.071429)" />
    <linearGradient
       x1="32.251034"
       y1="6.1317081"
       x2="32.251034"
       y2="90.238609"
       id="linearGradient3725"
       xlink:href="#ButtonShadow-0"
       gradientUnits="userSpaceOnUse"
       gradientTransform="matrix(1.0238095,0,0,1.0119048,98.857143,-98.071429)" />
    <linearGradient
       x1="32.251034"
       y1="6.1317081"
       x2="32.251034"
       y2="90.238609"
       id="linearGradient3721"
       xlink:href="#ButtonShadow-0"
       gradientUnits="userSpaceOnUse"
       gradientTransform="translate(100,-97)" />
    <linearGradient
       x1="32.251034"
       y1="6.1317081"
       x2="32.251034"
       y2="90.238609"
       id="linearGradient3026"
       xlink:href="#ButtonShadow-0"
       gradientUnits="userSpaceOnUse"
       gradientTransform="matrix(1.0238095,0,0,1.0119048,-1.1428571,-98.071429)" />
    <radialGradient
       cx="48"
       cy="4.3132138"
       r="35.9375"
       fx="48"
       fy="4.3132138"
       id="radialGradient3465"
       xlink:href="#linearGradient3175-0"
       gradientUnits="userSpaceOnUse"
       gradientTransform="matrix(-2.7021356e-8,1.6165908,-1.3333334,-2.2260868e-8,53.750954,-65.764352)" />
    <linearGradient
       id="linearGradient3700-8">
      <stop
         id="stop3702-5"
         style="stop-color:#000000;stop-opacity:1"
         offset="0" />
      <stop
         id="stop3704-6"
         style="stop-color:#1f1f1f;stop-opacity:1"
         offset="1" />
    </linearGradient>
    <linearGradient
       x1="48"
       y1="72"
       x2="48"
       y2="5.9877172"
       id="linearGradient3205"
       xlink:href="#linearGradient3700-8"
       gradientUnits="userSpaceOnUse" />
    <linearGradient
       id="linearGradient3737-1">
      <stop
         id="stop3739-4"
         style="stop-color:#ffffff;stop-opacity:1"
         offset="0" />
      <stop
         id="stop3741-91"
         style="stop-color:#ffffff;stop-opacity:0"
         offset="1" />
    </linearGradient>
    <linearGradient
       x1="142.47113"
       y1="16.125"
       x2="142.47113"
       y2="55"
       id="linearGradient4126"
       xlink:href="#linearGradient3687"
       gradientUnits="userSpaceOnUse"
       gradientTransform="translate(-78,-2)" />
    <linearGradient
       id="linearGradient3687">
      <stop
         id="stop3689"
         style="stop-color:#ffffff;stop-opacity:1"
         offset="0" />
      <stop
         id="stop3691"
         style="stop-color:#ffffff;stop-opacity:0"
         offset="1" />
    </linearGradient>
    <linearGradient
       x1="65.15625"
       y1="16.125"
       x2="65.15625"
       y2="63"
       id="linearGradient3129"
       xlink:href="#linearGradient3737-1"
       gradientUnits="userSpaceOnUse"
       gradientTransform="translate(2,-2)" />
    <linearGradient
       x1="68.517296"
       y1="9.0625"
       x2="68.517296"
       y2="90"
       id="linearGradient3926"
       xlink:href="#linearGradient3737-1"
       gradientUnits="userSpaceOnUse"
       gradientTransform="translate(2,-2)" />
    <linearGradient
       id="linearGradient4384">
      <stop
         id="stop4386"
         style="stop-color:#ffffff;stop-opacity:1"
         offset="0" />
      <stop
         id="stop4388"
         style="stop-color:#ffffff;stop-opacity:0"
         offset="1" />
    </linearGradient>
    <linearGradient
       id="linearGradient3073">
      <stop
         id="stop3075"
         style="stop-color:#ffffff;stop-opacity:1"
         offset="0" />
      <stop
         id="stop3077"
         style="stop-color:#ffffff;stop-opacity:0"
         offset="1" />
    </linearGradient>
    <linearGradient
       x1="48"
       y1="88"
       x2="48"
       y2="-40"
       id="linearGradient3081"
       xlink:href="#linearGradient4384"
       gradientUnits="userSpaceOnUse"
       gradientTransform="matrix(1,0,0,-1,0,92)" />
    <linearGradient
       id="linearGradient3892">
      <stop
         id="stop3894"
         style="stop-color:#000000;stop-opacity:0.58823532"
         offset="0" />
      <stop
         id="stop3896"
         style="stop-color:#000000;stop-opacity:0.47058824"
         offset="0.11780351" />
      <stop
         id="stop3898"
         style="stop-color:#000000;stop-opacity:0.39215687"
         offset="0.23809524" />
      <stop
         id="stop3900"
         style="stop-color:#000000;stop-opacity:0.3137255"
         offset="1" />
    </linearGradient>
    <linearGradient
       x1="90"
       y1="88"
       x2="48"
       y2="88"
       id="linearGradient3102"
       xlink:href="#linearGradient3892"
       gradientUnits="userSpaceOnUse"
       gradientTransform="translate(0,-16)"
       spreadMethod="reflect" />
    <linearGradient
       x1="26"
       y1="86"
       x2="48"
       y2="86"
       id="linearGradient4105"
       xlink:href="#linearGradient3892"
       gradientUnits="userSpaceOnUse"
       spreadMethod="reflect" />
    <linearGradient
       x1="48"
       y1="70"
       x2="48"
       y2="86"
       id="linearGradient4120"
       xlink:href="#linearGradient4114"
       gradientUnits="userSpaceOnUse" />
    <linearGradient
       x1="44"
       y1="86"
       x2="44"
       y2="73"
       id="linearGradient4148"
       xlink:href="#linearGradient3073"
       gradientUnits="userSpaceOnUse" />
    <linearGradient
       x1="49"
       y1="91"
       x2="49"
       y2="6"
       id="linearGradient3984"
       xlink:href="#ButtonShadow"
       gradientUnits="userSpaceOnUse" />
    <linearGradient
       x1="48"
       y1="92"
       x2="48"
       y2="6.3387823"
       id="linearGradient3996"
       xlink:href="#ButtonShadow"
       gradientUnits="userSpaceOnUse" />
    <linearGradient
       x1="48"
       y1="92"
       x2="48"
       y2="6.3387823"
       id="linearGradient4004"
       xlink:href="#ButtonShadow"
       gradientUnits="userSpaceOnUse" />
    <linearGradient
       x1="48"
       y1="92"
       x2="48"
       y2="6.3387823"
       id="linearGradient4012"
       xlink:href="#ButtonShadow"
       gradientUnits="userSpaceOnUse" />
    <linearGradient
       x1="48"
       y1="92"
       x2="48"
       y2="6.3387823"
       id="linearGradient4020"
       xlink:href="#ButtonShadow"
       gradientUnits="userSpaceOnUse" />
    <linearGradient
       id="linearGradient3175-0">
      <stop
         id="stop3177-4"
         style="stop-color:#7ed193;stop-opacity:1;"
         offset="0" />
      <stop
         id="stop3179-8"
         style="stop-color:#328247;stop-opacity:1;"
         offset="1" />
    </linearGradient>
  </defs>
  <metadata
     id="metadata2413">
    <rdf:RDF>
      <cc:Work
         rdf:about="">
        <dc:format>image/svg+xml</dc:format>
        <dc:type
           rdf:resource="http://purl.org/dc/dcmitype/StillImage" />
        <dc:title></dc:title>
      </cc:Work>
    </rdf:RDF>
  </metadata>
  <g
     id="layer2"
     style="display:none">
    <rect
       width="86"
       height="85"
       rx="6"
       ry="6"
       x="5"
       y="7"
       id="rect3745"
       style="opacity:0.9;fill:url(#ButtonShadow);fill-opacity:1;fill-rule:nonzero;stroke:none;filter:url(#filter3174)" />
  </g>
  <g
     id="layer3"
     style="display:inline">
    <path
       d="M 12,3.9375 C 6.4594213,3.9375 1.9375,8.4594213 1.9375,14 l 0,55 c 0,5.540578 4.5219211,10.0625 10.0625,10.0625 l 17.40625,0 c -2.190792,0.554393 -4.34375,0.875 -4.34375,0.875 -0.0044,3.01e-4 -0.504874,0.06253 -0.3125,0.03125 -0.0044,7.14e-4 -0.245695,0.06138 -0.25,0.0625 -0.0043,0.0011 -0.277068,0.09223 -0.28125,0.09375 -0.0042,0.0015 -0.277229,0.09185 -0.28125,0.09375 -0.004,0.0019 -0.434036,0.265488 -0.25,0.15625 -0.0348,0.02065 -0.0236,0.008 -0.0625,0.03125 -0.0389,0.02328 -0.154452,0.123691 -0.15625,0.125 -0.0036,0.0026 -0.246664,0.184556 -0.25,0.1875 -0.0033,0.0029 -0.215704,0.184257 -0.21875,0.1875 -0.0015,0.0016 -7.5e-5,2e-4 -0.03125,0.03125 -0.01559,0.01552 -0.018,0.04923 -0.03125,0.0625 -0.0066,0.0066 -0.02469,-0.0066 -0.03125,0 -0.0066,0.0066 -0.09341,0.124561 -0.09375,0.125 -3.41e-4,4.39e-4 -0.05771,0.08588 -0.0625,0.09375 -0.0048,0.0079 -0.02632,0.02306 -0.03125,0.03125 -0.0099,0.01638 -0.01962,0.04304 -0.03125,0.0625 -0.02325,0.03892 -0.03006,0.02937 -0.03125,0.03125 -0.0024,0.0038 -0.122972,0.24604 -0.125,0.25 -0.002,0.004 -0.141224,0.290654 -0.125,0.25 -0.0016,0.0041 -0.09249,0.308232 -0.09375,0.3125 -0.0047,0.01158 -0.02697,0.02055 -0.03125,0.03125 -0.0036,0.0089 0.0042,0.02046 0,0.03125 -0.0022,0.006 -0.02587,0.01551 -0.03125,0.03125 -0.0054,0.01574 -0.03122,0.156114 -0.03125,0.15625 -2.7e-5,1.36e-4 7.82e-4,0.140057 0,0.15625 -7.82e-4,0.01619 1.48e-4,0.02514 0,0.03125 -2.95e-4,0.01223 5.1e-5,0.02545 0,0.03125 -1.03e-4,0.0116 3e-6,0.02089 0,0.03125 -3e-6,0.01036 -2.8e-5,0.01986 0,0.03125 -2.2e-4,0.0022 0.0079,-0.01535 0,0.03125 -0.0039,0.0233 -0.02791,0.04238 -0.03125,0.0625 -0.0017,0.01006 0.0017,0.02083 0,0.03125 -8.28e-4,0.0052 0.0015,0.02101 0,0.03125 -0.0017,0.01333 1e-6,0.156111 0,0.15625 l 0,4 c 0,4.477461 3.735878,8.0625 8.21875,8.0625 l 35.1875,0 c 4.482872,0 8.21875,-3.585039 8.21875,-8.0625 l 0,-4 c -10e-7,-1.39e-4 0.0017,-0.142918 0,-0.15625 -0.0015,-0.01024 8.28e-4,-0.02604 0,-0.03125 -0.0017,-0.01042 0.0017,-0.02119 0,-0.03125 -0.0033,-0.02012 -0.0273,-0.0392 -0.03125,-0.0625 8.2e-5,-0.02331 7e-6,-0.04179 0,-0.0625 -3e-6,-0.01036 1.03e-4,-0.01965 0,-0.03125 -5.1e-5,-0.0058 2.95e-4,-0.01902 0,-0.03125 -1.48e-4,-0.0061 7.82e-4,-0.01506 0,-0.03125 -7.82e-4,-0.01619 2.7e-5,-0.156114 0,-0.15625 -2.7e-5,-1.36e-4 -0.02587,-0.140506 -0.03125,-0.15625 -0.0054,-0.01574 -0.02904,-0.02528 -0.03125,-0.03125 -0.0042,-0.01079 0.0036,-0.02233 0,-0.03125 -0.0043,-0.0107 -0.02658,-0.01967 -0.03125,-0.03125 -0.0013,-0.0043 -0.0921,-0.308368 -0.09375,-0.3125 0.01622,0.04065 -0.122972,-0.24604 -0.125,-0.25 -0.002,-0.004 -0.122611,-0.246247 -0.125,-0.25 -0.0012,-0.0019 -0.008,0.0077 -0.03125,-0.03125 -0.01163,-0.01946 -0.0214,-0.04612 -0.03125,-0.0625 -0.0049,-0.0082 -0.02646,-0.02338 -0.03125,-0.03125 -0.0048,-0.0079 -0.06216,-0.09331 -0.0625,-0.09375 -3.41e-4,-4.39e-4 -0.08719,-0.118354 -0.09375,-0.125 -0.0066,-0.0066 -0.02463,0.0066 -0.03125,0 -0.01325,-0.01327 -0.01566,-0.04698 -0.03125,-0.0625 -0.03118,-0.03105 -0.02973,-0.02963 -0.03125,-0.03125 -0.003,-0.0032 -0.215414,-0.184556 -0.21875,-0.1875 -0.0033,-0.0029 -0.246403,-0.184881 -0.25,-0.1875 -0.0018,-0.0013 -0.117352,-0.101717 -0.15625,-0.125 -0.0389,-0.02328 -0.0277,-0.0106 -0.0625,-0.03125 0.184036,0.109238 -0.245979,-0.154346 -0.25,-0.15625 -0.004,-0.0019 -0.277068,-0.09223 -0.28125,-0.09375 -0.0042,-0.0015 -0.276945,-0.09263 -0.28125,-0.09375 -0.0043,-0.0011 -0.245609,-0.06179 -0.25,-0.0625 0.192374,0.03128 -0.308061,-0.03095 -0.3125,-0.03125 0,0 -2.152958,-0.320607 -4.34375,-0.875 l 17.40625,0 c 5.540578,0 10.0625,-4.521922 10.0625,-10.0625 l 0,-55 C 94.0625,8.4594211 89.540578,3.9375 84,3.9375 l -72,0 z"
       id="path4018"
       style="opacity:0.1;fill:url(#linearGradient4020);fill-opacity:1;fill-rule:nonzero;stroke:none;display:inline" />
    <path
       d="M 12,5.0625 C 7.0799525,5.0625 3.0625,9.0799525 3.0625,14 l 0,55 c 0,4.920047 4.0174524,8.9375 8.9375,8.9375 l 22.65625,0 c -1.231537,0.856906 -2.645657,1.600627 -4.125,2.0625 -2.875161,0.897669 -5.40625,1.0625 -5.40625,1.0625 -0.0044,3.01e-4 -0.183109,0.03054 -0.1875,0.03125 -0.0044,7.14e-4 -0.151945,0.03013 -0.15625,0.03125 -0.0043,0.0011 -0.183318,0.06098 -0.1875,0.0625 -0.0042,0.0015 -0.152229,0.0606 -0.15625,0.0625 -0.004,0.0019 -0.152424,0.09148 -0.15625,0.09375 -0.0038,0.0023 -0.152653,0.09113 -0.15625,0.09375 -0.0036,0.0026 -0.152914,0.122056 -0.15625,0.125 -0.0033,0.0029 -0.121954,0.121757 -0.125,0.125 -0.003,0.0032 -0.12227,0.121487 -0.125,0.125 -0.0027,0.0035 -0.09136,0.152497 -0.09375,0.15625 -0.0024,0.0038 -0.09172,0.15229 -0.09375,0.15625 -0.002,0.004 -0.06085,0.152118 -0.0625,0.15625 -0.0016,0.0041 -0.06124,0.183232 -0.0625,0.1875 -0.0013,0.0043 -0.06165,0.151883 -0.0625,0.15625 -8.51e-4,0.0044 4.39e-4,0.183073 0,0.1875 -4.39e-4,0.0044 -0.03123,0.183051 -0.03125,0.1875 l 0,4 c 0,3.840708 3.218104,6.9375 7.09375,6.9375 l 35.1875,0 c 3.875646,0 7.09375,-3.096792 7.09375,-6.9375 l 0,-4 c -2.3e-5,-0.0044 -0.03081,-0.183073 -0.03125,-0.1875 -4.39e-4,-0.0044 8.51e-4,-0.183133 0,-0.1875 -8.51e-4,-0.0044 -0.06124,-0.151982 -0.0625,-0.15625 -0.0013,-0.0043 -0.06085,-0.183368 -0.0625,-0.1875 -0.0016,-0.0041 -0.06047,-0.15229 -0.0625,-0.15625 -0.002,-0.004 -0.09136,-0.152497 -0.09375,-0.15625 -0.0024,-0.0038 -0.09102,-0.152737 -0.09375,-0.15625 -0.0027,-0.0035 -0.121954,-0.121757 -0.125,-0.125 -0.003,-0.0032 -0.121664,-0.122056 -0.125,-0.125 -0.0033,-0.0029 -0.152653,-0.122381 -0.15625,-0.125 -0.0036,-0.0026 -0.152424,-0.09148 -0.15625,-0.09375 -0.0038,-0.0023 -0.152229,-0.09185 -0.15625,-0.09375 -0.004,-0.0019 -0.152068,-0.06098 -0.15625,-0.0625 -0.0042,-0.0015 -0.183195,-0.06138 -0.1875,-0.0625 -0.0043,-0.0011 -0.151859,-0.03054 -0.15625,-0.03125 -0.0044,-7.14e-4 -0.183061,-0.03095 -0.1875,-0.03125 0,0 -2.531089,-0.164831 -5.40625,-1.0625 -1.479343,-0.461873 -2.893463,-1.205594 -4.125,-2.0625 l 22.65625,0 c 4.920047,0 8.9375,-4.017453 8.9375,-8.9375 l 0,-55 C 92.9375,9.0799524 88.920047,5.0625 84,5.0625 l -72,0 z"
       id="path4010"
       style="opacity:0.1;fill:url(#linearGradient4012);fill-opacity:1;fill-rule:nonzero;stroke:none;display:inline" />
    <path
       d="M 12,5.96875 C 7.5644167,5.96875 3.96875,9.5644167 3.96875,14 l 0,55 c 0,4.435583 3.5956667,8.03125 8.03125,8.03125 l 25.15625,0 c -1.509482,1.811921 -3.960921,3.068545 -6.34375,3.8125 -2.985076,0.931986 -5.625,1.125 -5.625,1.125 A 1.039009,1.039009 0 0 0 24.21875,83 l 0,4 c 0,3.34304 2.783867,6.03125 6.1875,6.03125 l 35.1875,0 c 3.403633,0 6.1875,-2.68821 6.1875,-6.03125 l 0,-4 A 1.039009,1.039009 0 0 0 70.8125,81.96875 c 0,0 -2.639924,-0.193014 -5.625,-1.125 -2.382829,-0.743955 -4.834268,-2.000579 -6.34375,-3.8125 l 25.15625,0 c 4.435583,0 8.03125,-3.595667 8.03125,-8.03125 l 0,-55 C 92.03125,9.5644167 88.435583,5.96875 84,5.96875 l -72,0 z"
       id="path4002"
       style="opacity:0.2;fill:url(#linearGradient4004);fill-opacity:1;fill-rule:nonzero;stroke:none;display:inline" />
    <path
       d="M 12,7 C 8.122,7 5,10.122 5,14 l 0,55 c 0,3.878 3.122,7 7,7 l 27.09375,0 C 36.322709,82.220703 25.25,83 25.25,83 l 0,4 c 0,2.77 2.291818,5 5.15625,5 l 35.1875,0 C 68.458182,92 70.75,89.77 70.75,87 l 0,-4 c 0,0 -11.072709,-0.779297 -13.84375,-7 L 84,76 c 3.878,0 7,-3.122 7,-7 L 91,14 C 91,10.122 87.878,7 84,7 L 12,7 z"
       inkscape:connector-curvature="0"
       id="rect2419-9-4"
       style="opacity:0.3;fill:url(#linearGradient3996);fill-opacity:1;fill-rule:nonzero;stroke:none;display:inline" />
    <path
       d="m 12,-95.03125 c -5.5110903,0 -10.03125,4.52016 -10.03125,10.03125 l 0,71 c 0,5.5110902 4.5201598,10.03125 10.03125,10.03125 l 72,0 c 5.51109,0 10.03125,-4.5201597 10.03125,-10.03125 l 0,-71 c 0,-5.51109 -4.52016,-10.03125 -10.03125,-10.03125 l -72,0 z"
       transform="matrix(1,0,0,-1,100,0)"
       id="path3786"
       style="opacity:0.07999998;fill:url(#linearGradient3026);fill-opacity:1;fill-rule:nonzero;stroke:none;display:inline" />
    <path
       d="m 12,-94.03125 c -4.971633,0 -9.03125,4.059617 -9.03125,9.03125 l 0,71 c 0,4.9716329 4.0596171,9.03125 9.03125,9.03125 l 72,0 c 4.971633,0 9.03125,-4.059617 9.03125,-9.03125 l 0,-71 c 0,-4.971633 -4.059617,-9.03125 -9.03125,-9.03125 l -72,0 z"
       transform="matrix(1,0,0,-1,100,0)"
       id="path3778"
       style="opacity:0.1;fill:url(#linearGradient3780);fill-opacity:1;fill-rule:nonzero;stroke:none;display:inline" />
    <path
       d="m 12,-93 c -4.4091333,0 -8,3.590867 -8,8 l 0,71 c 0,4.4091333 3.5908667,8 8,8 l 72,0 c 4.409133,0 8,-3.5908667 8,-8 l 0,-71 c 0,-4.409133 -3.590867,-8 -8,-8 l -72,0 z"
       transform="matrix(1,0,0,-1,100,0)"
       id="path3770"
       style="opacity:0.2;fill:url(#linearGradient3772);fill-opacity:1;fill-rule:nonzero;stroke:none;display:inline" />
    <rect
       width="86"
       height="85"
       rx="7"
       ry="7"
       x="105"
       y="-92"
       transform="scale(1,-1)"
       id="rect3723"
       style="opacity:0.3;fill:url(#linearGradient3725);fill-opacity:1;fill-rule:nonzero;stroke:none;display:inline" />
    <rect
       width="84"
       height="84"
       rx="6"
       ry="6"
       x="106"
       y="-91"
       transform="scale(1,-1)"
       id="rect3716"
       style="opacity:0.45;fill:url(#linearGradient3721);fill-opacity:1;fill-rule:nonzero;stroke:none;display:inline" />
    <path
       d="M 12,7 C 8.676,7 6,9.676 6,13 l 0,56 c 0,3.324 2.676,6 6,6 l 27.40625,0 C 36.726562,81.2207 26,82 26,82 l 0,5 c 0,2.216 1.784,4 4,4 l 36,0 c 2.216,0 4,-1.784 4,-4 l 0,-5 C 70,82 59.273438,81.2207 56.59375,75 L 84,75 c 3.324,0 6,-2.676 6,-6 L 90,13 C 90,9.676 87.324,7 84,7 L 12,7 z"
       inkscape:connector-curvature="0"
       id="rect3205"
       style="opacity:0.45;fill:url(#linearGradient3984);fill-opacity:1;fill-rule:nonzero;stroke:none;display:inline" />
  </g>
  <g
     id="layer1"
     style="display:inline">
    <rect
       width="84"
       height="62"
       rx="6"
       ry="6"
       x="6"
       y="6"
       id="rect2419-9"
       style="fill:url(#linearGradient3205);fill-opacity:1;fill-rule:nonzero;stroke:none" />
    <path
       d="m 6,62 0,2 0,4 c 0,3.324 2.676,6 6,6 l 72,0 c 3.324,0 6,-2.676 6,-6 l 0,-4 0,-2 c 0,3.324 -2.676,6 -6,6 L 12,68 C 8.676,68 6,65.324 6,62 z"
       inkscape:connector-curvature="0"
       id="rect3884"
       style="fill:#b3b3b3;fill-opacity:1;fill-rule:nonzero;stroke:none" />
    <path
       d="m 6,63 0,1 c 0,3.324 2.676,6 6,6 l 72,0 c 3.324,0 6,-2.676 6,-6 l 0,-1 c 0,3.324 -2.676,6 -6,6 L 12,69 C 8.676,69 6,66.324 6,63 z"
       inkscape:connector-curvature="0"
       id="rect3291"
       style="fill:#b3b3b3;fill-opacity:1;fill-rule:nonzero;stroke:none" />
    <path
       d="m 12,12 0,50 72,0 0,-50 z m 2,2 68,0 0,46 -68,0 z"
       inkscape:connector-curvature="0"
       id="path4001"
       style="opacity:0.07999998;fill:#000000;fill-opacity:1;fill-rule:nonzero;stroke:none" />
    <path
       d="m 12.0625,12.0625 0,53.875 71.875,0 0,-53.875 -71.875,0 z"
       transform="matrix(-1.0017391,0,0,-0.92807427,96.083478,73.194896)"
       id="path3215"
       style="fill:url(#radialGradient3465);fill-opacity:1;fill-rule:nonzero;stroke:none" />
    <path
       d="m 12.0625,12.0625 0,49.808885 71.875,0 0,-49.808885 z"
       inkscape:connector-curvature="0"
       transform="matrix(0.987812,0,0,0.9837399,0.585025,0.6341434)"
       id="path3374"
       style="opacity:0.15;fill:none;stroke:#000000;stroke-width:1.01544595;stroke-linecap:square;stroke-linejoin:miter;stroke-miterlimit:4;stroke-opacity:1;stroke-dashoffset:0" />
    <rect
       width="72"
       height="1"
       x="12"
       y="62.064079"
       id="rect3724"
       style="opacity:0.4;fill:#ffffff;fill-opacity:1;fill-rule:nonzero;stroke:none" />
    <rect
       width="84"
       height="84"
       rx="6"
       ry="6"
       x="-94"
       y="6"
       id="rect2419"
       style="fill:url(#linearGradient3617);fill-opacity:1;fill-rule:nonzero;stroke:none" />
    <path
       d="m 12,12 0,1 72,0 0,-1 -72,0 z"
       inkscape:connector-curvature="0"
       id="path3992"
       style="opacity:0.3;fill:#000000;fill-opacity:1;fill-rule:nonzero;stroke:none" />
    <path
       d="m 49.65625,14.125 17.03125,46.75 1,0 -17.03125,-46.75 z"
       inkscape:connector-curvature="0"
       id="path2669"
       style="opacity:0.5;fill:url(#linearGradient3129);fill-opacity:1;fill-rule:evenodd;stroke:none;display:inline" />
    <path
       d="m 49.65625,14.125 17.03125,46.75 14.3125,0 c 0.538805,0 0.875,-0.336196 0.875,-0.875 l 0,-45 c 0,-0.538805 -0.336194,-0.875 -0.875,-0.875 z"
       inkscape:connector-curvature="0"
       id="path3664"
       style="opacity:0.7;fill:url(#linearGradient4126);fill-opacity:1;fill-rule:evenodd;stroke:none;display:inline" />
    <path
       d="m 47,7 1.40625,3.9375 35.59375,0 c 0.58434,0.0059 1.0566,0.478159 1.0625,1.0625 l 0,50 C 85.0566,62.584341 84.58434,63.056599 84,63.0625 l -14.25,0 1.375,3.875 14.40625,0 c 1.279113,-0.163533 2.314719,-0.91678 2.90625,-1.96875 -0.07832,0.08832 -0.132583,0.197412 -0.21875,0.28125 -0.439947,0.428056 -0.94291,0.814526 -1.5,1.09375 -0.278545,0.139612 -0.573473,0.24695 -0.875,0.34375 0.256202,-0.100222 0.486711,-0.236272 0.71875,-0.375 0.0074,-0.0044 0.02385,0.0045 0.03125,0 0.108182,-0.06539 0.209929,-0.1456 0.3125,-0.21875 0.152409,-0.109314 0.299114,-0.218194 0.4375,-0.34375 0.01127,-0.01009 0.02008,-0.02105 0.03125,-0.03125 0.165609,-0.153002 0.325576,-0.32555 0.46875,-0.5 0.107579,-0.130255 0.21839,-0.265285 0.3125,-0.40625 0.06073,-0.0929 0.1329,-0.18404 0.1875,-0.28125 0.04596,-0.08005 0.08342,-0.1672 0.125,-0.25 0.08037,-0.163801 0.15601,-0.357511 0.21875,-0.53125 0.0079,-0.02181 0.02355,-0.04055 0.03125,-0.0625 0.06787,-0.196092 0.1121,-0.386857 0.15625,-0.59375 0.0236,-0.11059 0.04432,-0.230233 0.0625,-0.34375 l 0,-51.5 C 88.573765,8.8379124 86.52105,7 84,7 l -2,0 z"
       inkscape:connector-curvature="0"
       id="path4128"
       style="opacity:0.25;fill:url(#linearGradient3926);fill-opacity:1;fill-rule:evenodd;stroke:none;display:inline" />
    <path
       d="M 12,70 C 8.676,70 6,67.324 6,64 L 6,12 C 6,8.676 8.676,6 12,6 l 72,0 c 3.324,0 6,2.676 6,6 l 0,52 c 0,3.324 -2.676,6 -6,6 z m 0,-0.96875 72,0 c 2.80489,0 5.03125,-2.22636 5.03125,-5.03125 l 0,-52 C 89.03125,9.19511 86.80489,6.96875 84,6.96875 l -72,0 C 9.19511,6.96875 6.96875,9.19511 6.96875,12 l 0,52 c 0,2.80489 2.22636,5.03125 5.03125,5.03125 z"
       inkscape:connector-curvature="0"
       id="rect4377"
       style="opacity:0.35;fill:url(#linearGradient3081);fill-opacity:1;fill-rule:nonzero;stroke:none" />
    <path
       d="m 6,64 0,4 c 0,3.324 2.676,6 6,6 l 72,0 c 3.324,0 6,-2.676 6,-6 l 0,-4 c 0,3.324 -2.676,6 -6,6 L 12,70 C 8.676,70 6,67.324 6,64 z"
       inkscape:connector-curvature="0"
       id="path3888"
       style="fill:url(#linearGradient3102);fill-opacity:1;fill-rule:nonzero;stroke:none;display:inline" />
    <path
       d="m 6,66 0,2 c 0,3.324 2.676,6 6,6 l 72,0 c 3.324,0 6,-2.676 6,-6 l 0,-2 c 0,3.324 -2.676,6 -6,6 L 12,72 C 8.676,72 6,69.324 6,66 z"
       inkscape:connector-curvature="0"
       id="rect4345"
       style="opacity:0.1;color:#000000;fill:#000000;fill-opacity:1;fill-rule:nonzero;stroke:none;stroke-width:1.5;marker:none;visibility:visible;display:inline;overflow:visible;enable-background:accumulate" />
    <path
       d="m 6,67 0,1 c 0,3.324 2.676,6 6,6 l 72,0 c 3.324,0 6,-2.676 6,-6 l 0,-1 c 0,3.324 -2.676,6 -6,6 L 12,73 C 8.676,73 6,70.324 6,67 z"
       inkscape:connector-curvature="0"
       id="rect4336"
       style="opacity:0.15;color:#000000;fill:#000000;fill-opacity:1;fill-rule:nonzero;stroke:none;stroke-width:1.5;marker:none;visibility:visible;display:inline;overflow:visible;enable-background:accumulate" />
    <g
       transform="matrix(1,0,0,1.5,4,-41)"
       id="g3895">
      <g
         transform="translate(0,2)"
         id="g3302">
        <rect
           width="6"
           height="2"
           x="56"
           y="70"
           id="rect3296"
           style="fill:#b3b3b3;fill-opacity:1;fill-rule:nonzero;stroke:none" />
        <rect
           width="1"
           height="2"
           x="56"
           y="70"
           id="rect3298"
           style="opacity:0.4;fill:#ffffff;fill-opacity:1;fill-rule:nonzero;stroke:none" />
        <rect
           width="1"
           height="2"
           x="61"
           y="70"
           id="rect3300"
           style="opacity:0.4;fill:#000000;fill-opacity:1;fill-rule:nonzero;stroke:none" />
      </g>
      <g
         transform="translate(6,2)"
         id="g3307">
        <rect
           width="6"
           height="2"
           x="56"
           y="70"
           id="rect3309"
           style="fill:#b3b3b3;fill-opacity:1;fill-rule:nonzero;stroke:none" />
        <rect
           width="1"
           height="2"
           x="56"
           y="70"
           id="rect3311"
           style="opacity:0.4;fill:#ffffff;fill-opacity:1;fill-rule:nonzero;stroke:none" />
        <rect
           width="1"
           height="2"
           x="61"
           y="70"
           id="rect3313"
           style="opacity:0.4;fill:#000000;fill-opacity:1;fill-rule:nonzero;stroke:none" />
      </g>
      <g
         transform="translate(12,2)"
         id="g3315">
        <rect
           width="6"
           height="2"
           x="56"
           y="70"
           id="rect3317"
           style="fill:#b3b3b3;fill-opacity:1;fill-rule:nonzero;stroke:none" />
        <rect
           width="1"
           height="2"
           x="56"
           y="70"
           id="rect3319"
           style="opacity:0.4;fill:#ffffff;fill-opacity:1;fill-rule:nonzero;stroke:none" />
        <rect
           width="1"
           height="2"
           x="61"
           y="70"
           id="rect3321"
           style="opacity:0.4;fill:#000000;fill-opacity:1;fill-rule:nonzero;stroke:none" />
      </g>
      <g
         transform="translate(18,2)"
         id="g3323">
        <rect
           width="6"
           height="2"
           x="56"
           y="70"
           id="rect3325"
           style="fill:#b3b3b3;fill-opacity:1;fill-rule:nonzero;stroke:none" />
        <rect
           width="1"
           height="2"
           x="56"
           y="70"
           id="rect3327"
           style="opacity:0.4;fill:#ffffff;fill-opacity:1;fill-rule:nonzero;stroke:none" />
        <rect
           width="1"
           height="2"
           x="61"
           y="70"
           id="rect3329"
           style="opacity:0.4;fill:#000000;fill-opacity:1;fill-rule:nonzero;stroke:none" />
      </g>
    </g>
    <path
       d="m 40,71 c 0,9 -14,10 -14,10 l 0,5 c 0,2.216 1.784,4 4,4 l 36,0 c 2.216,0 4,-1.784 4,-4 l 0,-5 C 70,81 56,80 56,71 z"
       inkscape:connector-curvature="0"
       id="rect4095"
       style="color:#000000;fill:url(#linearGradient4120);fill-opacity:1;fill-rule:nonzero;stroke:none;stroke-width:1;marker:none;visibility:visible;display:inline;overflow:visible;enable-background:accumulate" />
    <path
       d="m 26,82 0,4 c 0,2.216 1.784,4 4,4 l 36,0 c 2.216,0 4,-1.784 4,-4 l 0,-4 c 0,2.216 -1.784,4 -4,4 l -36,0 c -2.216,0 -4,-1.784 -4,-4 z"
       inkscape:connector-curvature="0"
       id="path4097"
       style="color:#000000;fill:url(#linearGradient4105);fill-opacity:1;fill-rule:nonzero;stroke:none;stroke-width:1;marker:none;visibility:visible;display:inline;overflow:visible;enable-background:accumulate" />
    <path
       d="m 26,84 0,2 c 0,2.216 1.784,4 4,4 l 36,0 c 2.216,0 4,-1.784 4,-4 l 0,-2 c 0,2.216 -1.784,4 -4,4 l -36,0 c -2.216,0 -4,-1.784 -4,-4 z"
       inkscape:connector-curvature="0"
       id="path4099"
       style="opacity:0.1;color:#000000;fill:#000000;fill-opacity:1;fill-rule:nonzero;stroke:none;stroke-width:1;marker:none;visibility:visible;display:inline;overflow:visible;enable-background:accumulate" />
    <path
       d="m 26,85 0,1 c 0,2.216 1.784,4 4,4 l 36,0 c 2.216,0 4,-1.784 4,-4 l 0,-1 c 0,2.216 -1.784,4 -4,4 l -36,0 c -2.216,0 -4,-1.784 -4,-4 z"
       inkscape:connector-curvature="0"
       id="path4101"
       style="opacity:0.15;color:#000000;fill:#000000;fill-opacity:1;fill-rule:nonzero;stroke:none;stroke-width:1;marker:none;visibility:visible;display:inline;overflow:visible;enable-background:accumulate" />
    <path
       d="m 40,71 c 0,9 -14,10 -14,10 l 0,1 c 0,2.216 1.784,4 4,4 l 36,0 c 2.216,0 4,-1.784 4,-4 l 0,-1 C 70,81 56,80 56,71 l -16,0 z m 0.78125,0.96875 14.4375,0 c 0.237358,2.025389 1.037762,3.774602 2.28125,5.0625 1.451373,1.503208 3.322716,2.529683 5.15625,3.25 2.938586,1.154444 5.336057,1.453446 6.375,1.5625 l 0,0.15625 c 0,1.69704 -1.33421,3.03125 -3.03125,3.03125 l -36,0 c -1.69704,0 -3.03125,-1.33421 -3.03125,-3.03125 l 0,-0.15625 c 1.038943,-0.109054 3.436414,-0.408056 6.375,-1.5625 1.833534,-0.720317 3.704877,-1.746792 5.15625,-3.25 1.243488,-1.287898 2.043892,-3.037111 2.28125,-5.0625 z"
       inkscape:connector-curvature="0"
       id="path4126"
       style="opacity:0.4;color:#000000;fill:url(#linearGradient4148);fill-opacity:1;fill-rule:nonzero;stroke:none;stroke-width:1;marker:none;visibility:visible;display:inline;overflow:visible;enable-background:accumulate" />
  </g>
</svg>
