/* XPM */
static char * desktop_xpm[] = {
"16 16 173 2",
"  	c None",
". 	c #D6D6D6",
"+ 	c #E7E7E7",
"@ 	c #E6E5E6",
"# 	c #ECEBEC",
"$ 	c #ECECEC",
"% 	c #EDEDED",
"& 	c #EFEFEF",
"* 	c #DBDBDB",
"= 	c #DBDBDA",
"- 	c #A5A9A4",
"; 	c #869285",
"> 	c #879386",
", 	c #879387",
"' 	c #879287",
") 	c #818E7F",
"! 	c #969992",
"~ 	c #8E948A",
"{ 	c #8E948B",
"] 	c #8F948B",
"^ 	c #898E85",
"/ 	c #ADB0AC",
"( 	c #E3E3E3",
"_ 	c #6F866E",
": 	c #548954",
"< 	c #588B59",
"[ 	c #5D8C5C",
"} 	c #5B8B5B",
"| 	c #4D824D",
"1 	c #8CA484",
"2 	c #91A387",
"3 	c #8FA286",
"4 	c #889E7D",
"5 	c #818E7E",
"6 	c #D5D5D6",
"7 	c #D4D3D4",
"8 	c #638364",
"9 	c #3E742C",
"0 	c #4A7D3B",
"a 	c #27702A",
"b 	c #2A722C",
"c 	c #28732B",
"d 	c #428143",
"e 	c #72966B",
"f 	c #699163",
"g 	c #668E60",
"h 	c #89A285",
"i 	c #ABB0AB",
"j 	c #9D9C9D",
"k 	c #D0CECF",
"l 	c #628466",
"m 	c #807F37",
"n 	c #908C48",
"o 	c #297A32",
"p 	c #318338",
"q 	c #328539",
"r 	c #39883F",
"s 	c #679D68",
"t 	c #6D9B6C",
"u 	c #ACB5AA",
"v 	c #A7A5A7",
"w 	c #787878",
"x 	c #A7A7A7",
"y 	c #CCCACC",
"z 	c #6C8E6D",
"A 	c #337338",
"B 	c #46844E",
"C 	c #35903F",
"D 	c #379645",
"E 	c #399B48",
"F 	c #3A9F48",
"G 	c #427949",
"H 	c #787976",
"I 	c #8F9390",
"J 	c #466A47",
"K 	c #718B72",
"L 	c #D2D1D3",
"M 	c #C8C7C8",
"N 	c #6F9572",
"O 	c #779379",
"P 	c #849E89",
"Q 	c #379E47",
"R 	c #43AC52",
"S 	c #40A64E",
"T 	c #3B513E",
"U 	c #1E201E",
"V 	c #477A4E",
"W 	c #57985F",
"X 	c #438748",
"Y 	c #759377",
"Z 	c #C6C5C7",
"` 	c #C3C0C3",
" .	c #7AA27F",
"..	c #188628",
"+.	c #319C41",
"@.	c #4AAB54",
"#.	c #448A4A",
"$.	c #343532",
"%.	c #324E34",
"&.	c #409448",
"*.	c #60A867",
"=.	c #488E51",
"-.	c #3B8A45",
";.	c #79997C",
">.	c #C4C2C3",
",.	c #BFBDBF",
"'.	c #80AB86",
").	c #309F41",
"!.	c #4FA258",
"~.	c #3C573F",
"{.	c #283A28",
"].	c #305F30",
"^.	c #448D44",
"/.	c #4B9D4E",
"(.	c #52A557",
"_.	c #59AB61",
":.	c #41A14E",
"<.	c #84AC8A",
"[.	c #C3C1C3",
"}.	c #BCB9BB",
"|.	c #83B089",
"1.	c #309E3E",
"2.	c #3C673F",
"3.	c #367437",
"4.	c #509F50",
"5.	c #6AC26A",
"6.	c #74D273",
"7.	c #64C562",
"8.	c #5BBD5D",
"9.	c #58B65E",
"0.	c #3AA448",
"a.	c #84B18B",
"b.	c #BDBBBD",
"c.	c #B7B5B6",
"d.	c #95B99A",
"e.	c #53A95C",
"f.	c #6FC172",
"g.	c #7DCD7A",
"h.	c #89D287",
"i.	c #94D396",
"j.	c #92CF95",
"k.	c #84CA82",
"l.	c #76C375",
"m.	c #6FBB72",
"n.	c #54AA5D",
"o.	c #95B99B",
"p.	c #B8B6B7",
"q.	c #B3B2B3",
"r.	c #B3C4B7",
"s.	c #8DB391",
"t.	c #9EBE9E",
"u.	c #A2C29F",
"v.	c #A9C6A7",
"w.	c #B0C9AF",
"x.	c #B1CAB0",
"y.	c #A2C2A0",
"z.	c #9BBE98",
"A.	c #95B996",
"B.	c #86AF8B",
"C.	c #B4C4B7",
"D.	c #A9A9A9",
"E.	c #BCBCBC",
"F.	c #B8BAB7",
"G.	c #B7BAB7",
"H.	c #B8BAB8",
"I.	c #B8BBB8",
"J.	c #575757",
"K.	c #838383",
"L.	c #858485",
"M.	c #878687",
"N.	c #888788",
"O.	c #898989",
"P.	c #8B8A8B",
"                                ",
"  . + @ @ @ @ # $ % % % % & *   ",
"  = - ; > , ' ) ! ~ { ] ^ / (   ",
"  . _ : < [ } | 1 2 3 3 4 5 6   ",
"  7 8 9 0 a b c d e f g h i j   ",
"  k l m n o p q r s t u v w x   ",
"  y z A B C D E F G H I J K L   ",
"  M N O P Q R S T U V W X Y Z   ",
"  `  ...+.@.#.$.%.&.*.=.-.;.>.  ",
"  ,.'.).!.~.{.].^./.(._.:.<.[.  ",
"  }.|.1.2.3.4.5.6.7.8.9.0.a.b.  ",
"  c.d.e.f.g.h.i.j.k.l.m.n.o.p.  ",
"  q.r.s.t.u.v.w.x.y.z.A.B.C.q.  ",
"  D.E.F.G.G.G.H.H.H.F.F.I.E.D.  ",
"  J.K.L.M.N.O.P.P.O.N.M.L.K.J.  ",
"                                "};
