<?xml version="1.0" encoding="UTF-8" standalone="no"?>
<svg
   width="32"
   height="32"
   version="1.1"
   id="svg12"
   sodipodi:docname="0ad.svg"
   inkscape:version="1.2.1 (9c6d41e410, 2022-07-14)"
   xmlns:inkscape="http://www.inkscape.org/namespaces/inkscape"
   xmlns:sodipodi="http://sodipodi.sourceforge.net/DTD/sodipodi-0.dtd"
   xmlns:xlink="http://www.w3.org/1999/xlink"
   xmlns="http://www.w3.org/2000/svg"
   xmlns:svg="http://www.w3.org/2000/svg"
   xmlns:rdf="http://www.w3.org/1999/02/22-rdf-syntax-ns#"
   xmlns:cc="http://creativecommons.org/ns#"
   xmlns:dc="http://purl.org/dc/elements/1.1/">
  <metadata
     id="metadata18">
    <rdf:RDF>
      <cc:Work
         rdf:about="">
        <dc:format>image/svg+xml</dc:format>
        <dc:type
           rdf:resource="http://purl.org/dc/dcmitype/StillImage" />
        <dc:title />
      </cc:Work>
    </rdf:RDF>
  </metadata>
  <defs
     id="defs16">
    <radialGradient
       inkscape:collect="always"
       xlink:href="#linearGradient841"
       id="radialGradient843"
       cx="32"
       cy="32"
       fx="32"
       fy="32"
       r="28"
       gradientUnits="userSpaceOnUse"
       gradientTransform="matrix(0.5,0,0,0.5,0,-0.34351565)" />
    <linearGradient
       inkscape:collect="always"
       id="linearGradient841">
      <stop
         style="stop-color:#9d7d41;stop-opacity:1"
         offset="0"
         id="stop837" />
      <stop
         style="stop-color:#d4a609;stop-opacity:1"
         offset="1"
         id="stop839" />
    </linearGradient>
  </defs>
  <sodipodi:namedview
     pagecolor="#ffffff"
     bordercolor="#666666"
     borderopacity="1"
     objecttolerance="10"
     gridtolerance="10"
     guidetolerance="10"
     inkscape:pageopacity="0"
     inkscape:pageshadow="2"
     inkscape:window-width="2560"
     inkscape:window-height="1357"
     id="namedview14"
     showgrid="false"
     inkscape:zoom="22.5"
     inkscape:cx="8"
     inkscape:cy="19.711111"
     inkscape:window-x="0"
     inkscape:window-y="0"
     inkscape:window-maximized="1"
     inkscape:current-layer="svg12"
     inkscape:showpageshadow="0"
     inkscape:pagecheckerboard="0"
     inkscape:deskcolor="#d1d1d1" />
  <ellipse
     style="opacity:1;fill:#ececec;stroke:#000000;stroke-width:1.359"
     id="path369"
     cx="15.997134"
     cy="15.680903"
     rx="11.636545"
     ry="11.718576" />
  <path
     style="opacity:0.2;stroke-width:0.5"
     d="m 2.0215,15.770484 a 14,14 0 0 0 -0.0215,0.586 14,14 0 0 0 13.9999998,14 14,14 0 0 0 14,-14 14,14 0 0 0 -0.021,-0.414 14,14 0 0 1 -13.979,13.414 14,14 0 0 1 -13.9780001,-13.586 z"
     id="path2"
     inkscape:connector-curvature="0" />
  <path
     inkscape:connector-curvature="0"
     style="fill:url(#radialGradient843);fill-opacity:1;stroke-width:0.5"
     d="M 16,1.6564844 A 14,14 0 0 0 2,15.656484 a 14,14 0 0 0 14,14 14,14 0 0 0 14,-14 A 14,14 0 0 0 16,1.6564844 Z m 1,3.050781 a 11,11 0 0 1 0.953125,0.1298831 11,11 0 0 1 1.071289,0.2499999 11,11 0 0 1 1.040039,0.3554691 11,11 0 0 1 1,0.4580075 11,11 0 0 1 0.949219,0.5556642 11,11 0 0 1 0.888672,0.6464843 11,11 0 0 1 0.819336,0.7333984 11,11 0 0 1 0.743164,0.8105475 11,11 0 0 1 0.657226,0.880859 11,11 0 0 1 0.567383,0.9423826 11,11 0 0 1 0.469726,0.99414 11,11 0 0 1 0.368165,1.036133 11,11 0 0 1 0.262695,1.067384 11,11 0 0 1 0.155274,1.088866 H 17 Z m -2,0.0039 V 14.656484 H 5.050781 a 11,11 0 0 1 0.1298831,-0.953125 11,11 0 0 1 0.2499999,-1.071289 11,11 0 0 1 0.355469,-1.040039 11,11 0 0 1 0.4580076,-1 A 11,11 0 0 1 6.7998048,9.6428124 11,11 0 0 1 7.4462891,8.7541408 11,11 0 0 1 8.179688,7.9338289 11,11 0 0 1 8.990234,7.1916406 11,11 0 0 1 9.871094,6.5334376 11,11 0 0 1 10.813477,5.9670319 11,11 0 0 1 11.807617,5.497305 11,11 0 0 1 12.84375,5.1291404 11,11 0 0 1 13.911133,4.8664455 11,11 0 0 1 15,4.7111719 Z M 5.0546875,16.656484 H 15 v 9.948242 a 11,11 0 0 1 -0.953125,-0.129882 11,11 0 0 1 -1.071289,-0.25 11,11 0 0 1 -1.040039,-0.355469 11,11 0 0 1 -1,-0.458008 A 11,11 0 0 1 9.986328,24.85668 11,11 0 0 1 9.097656,24.209218 11,11 0 0 1 8.27832,23.476797 11,11 0 0 1 7.5351562,22.66625 11,11 0 0 1 6.8769532,21.784413 11,11 0 0 1 6.3105468,20.843008 11,11 0 0 1 5.8408205,19.848867 11,11 0 0 1 5.472656,18.812734 11,11 0 0 1 5.209961,17.744375 11,11 0 0 1 5.0546875,16.656484 Z m 11.9453125,0 h 9.948242 a 11,11 0 0 1 -0.129883,0.953125 11,11 0 0 1 -0.25,1.070313 11,11 0 0 1 -0.355469,1.041015 11,11 0 0 1 -0.457031,0.999024 11,11 0 0 1 -0.555664,0.949219 11,11 0 0 1 -0.647461,0.888671 11,11 0 0 1 -0.732422,0.820313 11,11 0 0 1 -0.810546,0.742187 11,11 0 0 1 -0.881837,0.658204 11,11 0 0 1 -0.941406,0.566406 11,11 0 0 1 -0.99414,0.469726 11,11 0 0 1 -1.036133,0.368164 11,11 0 0 1 -1.068359,0.263672 A 11,11 0 0 1 17,26.60082 Z"
     id="path4-6" />
  <path
     style="opacity:0.2;fill:#ffffff;stroke-width:0.5"
     d="M 15.999023,1.6435155 A 14,14 0 0 0 2.0000001,15.643515 14,14 0 0 0 2.0107423,15.84664 14,14 0 0 1 15.999023,2.1435157 H 16 A 14,14 0 0 1 29.988281,15.936484 14,14 0 0 0 29.999023,15.643515 14,14 0 0 0 16,1.6435155 Z"
     id="path6"
     inkscape:connector-curvature="0" />
</svg>
