<?xml version="1.0" encoding="UTF-8" standalone="no"?>
<svg
   inkscape:version="1.2.1 (9c6d41e410, 2022-07-14)"
   sodipodi:docname="abiword.svg"
   id="svg12"
   version="1.1"
   height="32"
   width="32"
   xmlns:inkscape="http://www.inkscape.org/namespaces/inkscape"
   xmlns:sodipodi="http://sodipodi.sourceforge.net/DTD/sodipodi-0.dtd"
   xmlns:xlink="http://www.w3.org/1999/xlink"
   xmlns="http://www.w3.org/2000/svg"
   xmlns:svg="http://www.w3.org/2000/svg"
   xmlns:rdf="http://www.w3.org/1999/02/22-rdf-syntax-ns#"
   xmlns:cc="http://creativecommons.org/ns#"
   xmlns:dc="http://purl.org/dc/elements/1.1/">
  <metadata
     id="metadata18">
    <rdf:RDF>
      <cc:Work
         rdf:about="">
        <dc:format>image/svg+xml</dc:format>
        <dc:type
           rdf:resource="http://purl.org/dc/dcmitype/StillImage" />
      </cc:Work>
    </rdf:RDF>
  </metadata>
  <defs
     id="defs16">
    <linearGradient
       id="linearGradient847"
       inkscape:collect="always">
      <stop
         id="stop843"
         offset="0"
         style="stop-color:#248afd;stop-opacity:1;" />
      <stop
         id="stop845"
         offset="1"
         style="stop-color:#0259bb;stop-opacity:1" />
    </linearGradient>
    <linearGradient
       gradientTransform="translate(0,-32)"
       gradientUnits="userSpaceOnUse"
       y2="16"
       x2="30"
       y1="16"
       x1="2"
       id="linearGradient849"
       xlink:href="#linearGradient847"
       inkscape:collect="always" />
  </defs>
  <sodipodi:namedview
     inkscape:current-layer="svg12"
     inkscape:window-maximized="1"
     inkscape:window-y="0"
     inkscape:window-x="0"
     inkscape:cy="13.324543"
     inkscape:cx="13.191961"
     inkscape:zoom="22.627417"
     showgrid="false"
     id="namedview14"
     inkscape:window-height="1003"
     inkscape:window-width="1920"
     inkscape:pageshadow="2"
     inkscape:pageopacity="0"
     guidetolerance="10"
     gridtolerance="10"
     objecttolerance="10"
     borderopacity="1"
     bordercolor="#666666"
     pagecolor="#ffffff"
     inkscape:showpageshadow="2"
     inkscape:pagecheckerboard="0"
     inkscape:deskcolor="#d1d1d1" />
  <circle
     id="circle2"
     r="14"
     cy="17"
     cx="16"
     style="opacity:.2" />
  <circle
     transform="rotate(90)"
     id="circle4"
     r="14"
     cy="-16"
     cx="16"
     style="fill:url(#linearGradient849);fill-opacity:1" />
  <path
     id="path6"
     d="m16.785 4.0039c-0.95-0.0688-1.934 0.6676-2.59 1.3457-2.748 2.8326-4.4219 6.5284-6.0622 10.097-1.3355 2.949-2.3361 6.037-3.1406 9.178a14 14 0 0 0 2.2226 2.271c0.0261-0.673 0.295-1.474 0.4278-1.972 1.2637-4.196 3.2224-8.125 5.0864-12.065 0.737-1.244 1.262-2.9602 2.75-3.4391 1.445-0.165 2.394 1.2721 3.142 2.3201 2.797 4.402 5.438 8.916 7.809 13.574a14 14 0 0 0 0.861 -1.066c-1.644-5.549-3.742-10.959-6.646-15.943-0.901-1.361-1.722-2.8373-2.936-3.932-0.296-0.2335-0.607-0.3461-0.924-0.3691zm5.861 18.363c-4.459 2.266-9.048 4.389-13.9 5.592a14 14 0 0 0 2.893 1.326c1.94-0.806 3.82-1.78 5.634-2.836 1.924-1.16 3.773-2.479 5.373-4.082z"
     style="opacity:.2" />
  <path
     id="path8"
     d="m22.646 21.368c-4.6258 2.3502-9.3867 4.5558-14.441 5.7308-1.6292-0.0082-0.82535-2.188-0.56221-3.1757 1.2632-4.196 3.223-8.124 5.086-12.063 0.73783-1.2446 1.2612-2.9598 2.7488-3.4387 1.445-0.16501 2.3944 1.2712 3.1429 2.3189 3.0605 4.8172 5.9508 9.7605 8.4857 14.89 0.64202 1.337 1.271 2.6806 1.8933 4.0274-1.8504-7.7623-4.3411-15.462-8.3563-22.352-0.90008-1.3607-1.7198-2.8372-2.9342-3.9319-1.1835-0.93406-2.6392 0.071567-3.5139 0.97577-2.7482 2.8326-4.4221 6.5288-6.0624 10.098-1.913 4.2239-3.1682 8.7262-4.0896 13.274-0.32303 1.5316 1.2099 2.6434 2.5722 2.1681 3.7733-0.80655 7.3194-2.4984 10.657-4.4399 1.9233-1.1607 3.773-2.4786 5.3731-4.0811z"
     style="fill:#ffffff" />
  <path
     style="opacity:0.1;fill:#ffffff;stroke-width:0.995917"
     d="m 16.000931,1.9899156 c -7.7666591,0 -14.0192406,6.1846197 -14.0192406,13.8668604 0,0.167236 0.019548,0.329475 0.025426,0.495245 C 2.2712202,8.9029732 8.4033459,2.9804054 16.000931,2.9804054 c 7.597585,0 13.72971,5.9225678 13.993815,13.3716156 0.0059,-0.16577 0.02543,-0.328009 0.02543,-0.495245 0,-7.6822407 -6.252583,-13.8668604 -14.019241,-13.8668604 z"
     id="path255" />
</svg>
