<?xml version="1.0" encoding="UTF-8" standalone="no"?>
<svg
   xmlns:dc="http://purl.org/dc/elements/1.1/"
   xmlns:cc="http://creativecommons.org/ns#"
   xmlns:rdf="http://www.w3.org/1999/02/22-rdf-syntax-ns#"
   xmlns:svg="http://www.w3.org/2000/svg"
   xmlns="http://www.w3.org/2000/svg"
   xmlns:xlink="http://www.w3.org/1999/xlink"
   xmlns:sodipodi="http://sodipodi.sourceforge.net/DTD/sodipodi-0.dtd"
   xmlns:inkscape="http://www.inkscape.org/namespaces/inkscape"
   inkscape:version="1.0 (4035a4fb49, 2020-05-01)"
   sodipodi:docname="accessories-dictionary.svg"
   id="svg14"
   version="1.1"
   height="32"
   width="32">
  <metadata
     id="metadata20">
    <rdf:RDF>
      <cc:Work
         rdf:about="">
        <dc:format>image/svg+xml</dc:format>
        <dc:type
           rdf:resource="http://purl.org/dc/dcmitype/StillImage" />
        <dc:title />
      </cc:Work>
    </rdf:RDF>
  </metadata>
  <defs
     id="defs18">
    <linearGradient
       id="linearGradient839"
       inkscape:collect="always">
      <stop
         id="stop835"
         offset="0"
         style="stop-color:#c30000;stop-opacity:1;" />
      <stop
         id="stop837"
         offset="1"
         style="stop-color:#f70000;stop-opacity:1" />
    </linearGradient>
    <linearGradient
       gradientUnits="userSpaceOnUse"
       y2="2.1993155"
       x2="17.630329"
       y1="29.416733"
       x1="17.753315"
       id="linearGradient841"
       xlink:href="#linearGradient839"
       inkscape:collect="always" />
  </defs>
  <sodipodi:namedview
     inkscape:document-rotation="0"
     inkscape:current-layer="svg14"
     inkscape:window-maximized="1"
     inkscape:window-y="25"
     inkscape:window-x="0"
     inkscape:cy="9.9751085"
     inkscape:cx="-4.8823249"
     inkscape:zoom="13.037281"
     showgrid="false"
     id="namedview16"
     inkscape:window-height="1021"
     inkscape:window-width="1920"
     inkscape:pageshadow="2"
     inkscape:pageopacity="0"
     guidetolerance="10"
     gridtolerance="10"
     objecttolerance="10"
     borderopacity="1"
     bordercolor="#666666"
     pagecolor="#ffffff">
    <inkscape:grid
       id="grid833"
       type="xygrid" />
  </sodipodi:namedview>
  <path
     inkscape:connector-curvature="0"
     id="path2"
     d="m 5,28.456141 v 1.017543 C 5,30.319263 5.669,31 6.4999998,31 H 25.5 c 0.831,0 1.5,-0.680737 1.5,-1.526316 v -1.017543 c 0,0.845578 -0.668999,1.526315 -1.5,1.526315 H 6.4999998 C 5.669,29.982456 5,29.301719 5,28.456141 Z"
     style="opacity:0.2;stroke-width:0.50436687" />
  <path
     inkscape:connector-curvature="0"
     id="path4"
     d="M 6.4999999,2 C 5.6689999,2 5,2.6689998 5,3.5 v 25 C 5,29.331 5.6689999,30 6.4999999,30 H 25.5 C 26.331,30 27,29.331 27,28.5 V 3.5 C 27,2.6689998 26.331,2 25.5,2 Z"
     style="fill:url(#linearGradient841);fill-opacity:1;stroke-width:0.49999994" />
  <path
     inkscape:connector-curvature="0"
     id="path6"
     d="M 6.4999999,2 C 5.6689999,2 5,2.6689998 5,3.5 v 25 C 5,29.331 5.6689999,30 6.4999999,30 H 8.9999996 V 2 Z"
     style="opacity:0.2;stroke-width:0.49999994" />
  <path
     transform="matrix(0.26911959,0,0,0.26911958,18.965572,-0.00367931)"
     d="m -22.181641,44.603516 -11.132812,29.160156 h 4.160156 l 2.65625,-7.480469 h 13.144531 l 2.65625,7.480469 h 4.1015629 L -17.708984,44.603516 Z m 2.226563,3.886718 5.371094,14.511719 h -10.722657 z m 25.1367186,2.871094 c -1.171875,0 -2.3763021,0.130208 -3.6132812,0.390625 -1.23697919,0.247396 -2.51302086,0.625 -3.828125,1.132813 v 3.320312 c 1.09375,-0.598958 2.23307289,-1.048177 3.4179687,-1.347656 1.1848959,-0.299479 2.4023438,-0.449219 3.6523438,-0.449219 1.9661458,0 3.4895833,0.455729 4.5703125,1.367188 1.0937496,0.898437 1.6406246,2.174479 1.6406246,3.828125 v 0.351562 H 5.9824219 c -3.2682292,0 -5.72916669,0.625 -7.3828125,1.875 -1.640625,1.25 -2.4609375,3.105469 -2.4609375,5.566406 0,2.109375 0.6575521,3.795573 1.9726562,5.058594 1.32812502,1.25 3.1119792,1.875 5.3515625,1.875 1.7708334,0 3.2682292,-0.3125 4.4921875,-0.9375 1.2239584,-0.638021 2.2460939,-1.621094 3.0664059,-2.949219 v 3.320313 h 3.59375 V 61.283203 c 0,-3.333333 -0.78125,-5.820312 -2.34375,-7.460937 -1.5625,-1.640625 -3.9257809,-2.460938 -7.0898434,-2.460938 z m 2.265625,11.40625 h 3.5742184 v 0.800781 c 0,2.34375 -0.605468,4.225261 -1.8164059,5.644532 -1.1979166,1.40625 -2.7929687,2.109375 -4.7851562,2.109375 -1.4453125,0 -2.5911459,-0.371094 -3.43750002,-1.113282 -0.83333334,-0.755208 -1.25,-1.770833 -1.25,-3.046875 0,-1.601562 0.55989583,-2.734375 1.67968752,-3.398437 1.1197916,-0.664063 3.1315104,-0.996094 6.0351562,-0.996094 z"
     id="text829"
     style="font-style:normal;font-weight:normal;font-size:40px;line-height:1.25;font-family:sans-serif;letter-spacing:0px;word-spacing:0px;fill:#ffffff;fill-opacity:1;stroke:none"
     inkscape:original="M -22.181641 44.603516 L -33.314453 73.763672 L -29.154297 73.763672 L -26.498047 66.283203 L -13.353516 66.283203 L -10.697266 73.763672 L -6.5957031 73.763672 L -17.708984 44.603516 L -22.181641 44.603516 z M -19.955078 48.490234 L -14.583984 63.001953 L -25.306641 63.001953 L -19.955078 48.490234 z M 5.1816406 51.361328 C 4.0097656 51.361328 2.8053385 51.491536 1.5683594 51.751953 C 0.33138021 51.999349 -0.94466146 52.376953 -2.2597656 52.884766 L -2.2597656 56.205078 C -1.1660156 55.60612 -0.026692708 55.156901 1.1582031 54.857422 C 2.343099 54.557943 3.5605469 54.408203 4.8105469 54.408203 C 6.7766927 54.408203 8.3001302 54.863932 9.3808594 55.775391 C 10.474609 56.673828 11.021484 57.94987 11.021484 59.603516 L 11.021484 59.955078 L 5.9824219 59.955078 C 2.7141927 59.955078 0.25325521 60.580078 -1.4003906 61.830078 C -3.0410156 63.080078 -3.8613281 64.935547 -3.8613281 67.396484 C -3.8613281 69.505859 -3.203776 71.192057 -1.8886719 72.455078 C -0.56054688 73.705078 1.2233073 74.330078 3.4628906 74.330078 C 5.233724 74.330078 6.7311198 74.017578 7.9550781 73.392578 C 9.1790365 72.754557 10.201172 71.771484 11.021484 70.443359 L 11.021484 73.763672 L 14.615234 73.763672 L 14.615234 61.283203 C 14.615234 57.94987 13.833984 55.462891 12.271484 53.822266 C 10.708984 52.181641 8.3457031 51.361328 5.1816406 51.361328 z M 7.4472656 62.767578 L 11.021484 62.767578 L 11.021484 63.568359 C 11.021484 65.912109 10.416016 67.79362 9.2050781 69.212891 C 8.0071615 70.619141 6.4121094 71.322266 4.4199219 71.322266 C 2.9746094 71.322266 1.828776 70.951172 0.98242188 70.208984 C 0.14908854 69.453776 -0.26757812 68.438151 -0.26757812 67.162109 C -0.26757812 65.560547 0.29231771 64.427734 1.4121094 63.763672 C 2.531901 63.099609 4.5436198 62.767578 7.4472656 62.767578 z "
     inkscape:radius="0"
     sodipodi:type="inkscape:offset" />
</svg>
