<?xml version="1.0" encoding="UTF-8" standalone="no"?>
<svg
   width="48"
   height="48"
   version="1.1"
   id="svg1241"
   sodipodi:docname="allusion.svg"
   inkscape:version="1.2.1 (9c6d41e410, 2022-07-14)"
   xmlns:inkscape="http://www.inkscape.org/namespaces/inkscape"
   xmlns:sodipodi="http://sodipodi.sourceforge.net/DTD/sodipodi-0.dtd"
   xmlns:xlink="http://www.w3.org/1999/xlink"
   xmlns="http://www.w3.org/2000/svg"
   xmlns:svg="http://www.w3.org/2000/svg">
  <defs
     id="defs1245">
    <linearGradient
       inkscape:collect="always"
       id="linearGradient1754">
      <stop
         style="stop-color:#1979e4;stop-opacity:1;"
         offset="0"
         id="stop1750" />
      <stop
         style="stop-color:#74e8ac;stop-opacity:1;"
         offset="1"
         id="stop1752" />
    </linearGradient>
    <linearGradient
       inkscape:collect="always"
       xlink:href="#linearGradient1754"
       id="linearGradient1756"
       x1="4"
       y1="23"
       x2="44"
       y2="23"
       gradientUnits="userSpaceOnUse" />
  </defs>
  <sodipodi:namedview
     id="namedview1243"
     pagecolor="#ffffff"
     bordercolor="#000000"
     borderopacity="0.25"
     inkscape:showpageshadow="2"
     inkscape:pageopacity="0.0"
     inkscape:pagecheckerboard="0"
     inkscape:deskcolor="#d1d1d1"
     showgrid="false"
     inkscape:zoom="21.395833"
     inkscape:cx="24.046738"
     inkscape:cy="24.046738"
     inkscape:current-layer="svg1241" />
  <path
     style="opacity:0.2"
     d="M 4.1153679,34.818182 C 4.5966874,37.453979 5.1124837,41 9.1009469,41 14.086526,41 16.080758,36.878788 22.063453,36.878788 28.046148,36.878788 29.043263,41 35.025958,41 38.017306,41 44,36.893073 44,32.757576 44,26.575758 36.739139,26.837876 35.325093,22.454545 34.327977,19.363636 37.02019,7 30.040379,7 c -5.982695,0 -7.976926,8.242424 -9.971158,12.363636 -2.473883,5.112444 -8.974042,6.181819 -13.9596215,9.272728 -1.8025399,1.11752 -2.3839927,4.047411 -1.9942316,6.181818 z"
     id="path1235" />
  <path
     style="fill:url(#linearGradient1756);fill-opacity:1"
     d="M 4.1153679,33.818182 C 4.5966874,36.453979 5.1124837,40 9.1009469,40 14.086526,40 16.080758,35.878788 22.063453,35.878788 28.046148,35.878788 29.043263,40 35.025958,40 38.017306,40 44,35.893073 44,31.757576 44,25.575758 36.739139,25.837876 35.325093,21.454545 34.327977,18.363636 37.02019,6 30.040379,6 c -5.982695,0 -7.976926,8.242424 -9.971158,12.363636 -2.473883,5.112444 -8.974042,6.181819 -13.9596215,9.272728 -1.8025399,1.11752 -2.3839927,4.047411 -1.9942316,6.181818 z"
     id="path1237" />
  <path
     style="fill:#ffffff;opacity:0.2"
     d="M 30.041016 6 C 24.058321 6 22.062591 14.242069 20.068359 18.363281 C 17.594476 23.475725 11.094955 24.54581 6.109375 27.636719 C 4.5242061 28.619475 3.8859605 31.003239 4.0195312 33.015625 C 4.1217434 31.267489 4.7811955 29.46015 6.109375 28.636719 C 11.094955 25.54581 17.594476 24.475725 20.068359 19.363281 C 22.062591 15.242069 24.058321 7 30.041016 7 C 37.020827 7 34.327103 19.364169 35.324219 22.455078 C 36.694392 26.70241 43.534633 26.605847 43.958984 32.21875 C 43.975123 32.064995 44 31.911857 44 31.757812 C 44 25.575995 36.738265 25.838409 35.324219 21.455078 C 34.327103 18.364169 37.020827 6 30.041016 6 z"
     id="path1239" />
</svg>
