<?xml version="1.0" encoding="UTF-8" standalone="no"?>
<svg
   xmlns:dc="http://purl.org/dc/elements/1.1/"
   xmlns:cc="http://creativecommons.org/ns#"
   xmlns:rdf="http://www.w3.org/1999/02/22-rdf-syntax-ns#"
   xmlns:svg="http://www.w3.org/2000/svg"
   xmlns="http://www.w3.org/2000/svg"
   xmlns:xlink="http://www.w3.org/1999/xlink"
   xmlns:sodipodi="http://sodipodi.sourceforge.net/DTD/sodipodi-0.dtd"
   xmlns:inkscape="http://www.inkscape.org/namespaces/inkscape"
   width="32"
   height="32"
   version="1"
   id="svg14"
   sodipodi:docname="amarok.svg"
   inkscape:version="0.92.4 5da689c313, 2019-01-14">
  <metadata
     id="metadata20">
    <rdf:RDF>
      <cc:Work
         rdf:about="">
        <dc:format>image/svg+xml</dc:format>
        <dc:type
           rdf:resource="http://purl.org/dc/dcmitype/StillImage" />
        <dc:title></dc:title>
      </cc:Work>
    </rdf:RDF>
  </metadata>
  <defs
     id="defs18">
    <linearGradient
       inkscape:collect="always"
       id="linearGradient865">
      <stop
         style="stop-color:#ffffff;stop-opacity:1;"
         offset="0"
         id="stop861" />
      <stop
         style="stop-color:#ffffff;stop-opacity:0;"
         offset="1"
         id="stop863" />
    </linearGradient>
    <linearGradient
       inkscape:collect="always"
       id="linearGradient833">
      <stop
         style="stop-color:#f0f0f0;stop-opacity:1"
         offset="0"
         id="stop829" />
      <stop
         style="stop-color:#dcdcdc;stop-opacity:1"
         offset="1"
         id="stop831" />
    </linearGradient>
    <linearGradient
       inkscape:collect="always"
       xlink:href="#linearGradient833"
       id="linearGradient835"
       x1="4"
       y1="32"
       x2="60"
       y2="32"
       gradientUnits="userSpaceOnUse"
       gradientTransform="matrix(0.49910876,0,0,0.49910876,-0.09563389,-31.97148)" />
    <linearGradient
       inkscape:collect="always"
       xlink:href="#linearGradient865"
       id="linearGradient867"
       x1="3.950001"
       y1="-32"
       x2="20.162676"
       y2="-31.549295"
       gradientUnits="userSpaceOnUse"
       gradientTransform="matrix(0.49007342,0,0,0.49007342,0.31765073,-0.31765104)" />
    <filter
       inkscape:collect="always"
       style="color-interpolation-filters:sRGB"
       id="filter935"
       x="-0.046960302"
       width="1.0939206"
       y="-0.049086779"
       height="1.0981736">
      <feGaussianBlur
         inkscape:collect="always"
         stdDeviation="0.78267172"
         id="feGaussianBlur937" />
    </filter>
  </defs>
  <sodipodi:namedview
     pagecolor="#ffffff"
     bordercolor="#666666"
     borderopacity="1"
     objecttolerance="10"
     gridtolerance="10"
     guidetolerance="10"
     inkscape:pageopacity="0"
     inkscape:pageshadow="2"
     inkscape:window-width="1366"
     inkscape:window-height="691"
     id="namedview16"
     showgrid="false"
     inkscape:zoom="8.875"
     inkscape:cx="32"
     inkscape:cy="32"
     inkscape:window-x="0"
     inkscape:window-y="0"
     inkscape:window-maximized="1"
     inkscape:current-layer="svg14" />
  <circle
     style="opacity:0.2;fill:#000000;fill-opacity:1;stroke:none;stroke-width:0.5260179;stroke-miterlimit:4;stroke-dasharray:none;stroke-opacity:1;paint-order:fill markers stroke"
     id="path827-1"
     cx="16.374956"
     cy="-16"
     r="13.975045"
     transform="rotate(90)" />
  <circle
     style="opacity:1;fill:url(#linearGradient835);fill-opacity:1;stroke:none;stroke-width:0.5260179;stroke-miterlimit:4;stroke-dasharray:none;stroke-opacity:1;paint-order:fill markers stroke"
     id="path827"
     cx="15.875846"
     cy="-16"
     r="13.975045"
     transform="rotate(90)" />
  <path
     style="opacity:0.5;stroke-width:0.66666669;filter:url(#filter935)"
     d="m 48.742323,-1.2671716 c -0.06527,0.215809 -0.15657,0.41898997 -0.26302,0.60675897 -0.431016,0.760301 -3.788575,7.22289303 -3.419251,7.85661103 0.04564,0.07826 0.127451,0.143117 0.234367,0.197915 0.726064,-2.046351 2.846465,-6.124252 3.184857,-6.72117103 0.306446,-0.540547 0.471029,-1.211731 0.263021,-1.94008697 z m 3.19259,10.557079 c -0.113557,0.280607 -0.424856,0.528908 -1.25257,0.692691 -1.600895,0.3167786 -6.175051,3.3589856 -7.775813,5.8930576 -1.600894,2.53434 -2.032884,12.101443 -2.156214,13.241816 -0.188797,1.796356 0.186875,5.176942 -0.833313,5.471202 -2.57114,0.741502 -9.383376,2.494873 -15.832954,-1.145812 -6.215051,-3.508317 -8.123671,-6.555177 -8.585794,-8.176871 -0.08619,0.178276 -0.143663,0.352645 -0.145837,0.518214 -0.01573,1.201597 1.271156,4.780686 8.731525,8.991917 6.449577,3.640713 13.261814,1.887289 15.832953,1.145813 1.020188,-0.29422 0.644517,-3.674845 0.833313,-5.471202 0.12325,-1.140426 0.555254,-10.70761 2.156214,-13.241816 1.600762,-2.534071 6.174919,-5.576265 7.775814,-5.893057 1.600895,-0.31678 1.294235,-0.950658 1.294235,-1.5207636 0,-0.136197 -0.0144,-0.313619 -0.04167,-0.505202 z M 12.538526,16.703063 c -0.105612,0.05484 -0.433376,0.203902 -0.486962,0.236968 -0.528401,0.326258 3.143125,4.274831 4.666555,5.473868 0.504028,-0.513401 0.900245,-0.915924 0.562494,-0.973937 -0.549948,-0.09424 -3.513117,-3.065526 -4.742021,-4.736819 z"
     id="path2"
     inkscape:connector-curvature="0"
     transform="matrix(0.49910876,0,0,0.49910876,0.0285201,7.8901061)" />
  <path
     d="m 17.172574,12.064759 c 0,0 -1.217463,-0.18784 -1.919925,0.516525 -0.702529,0.704325 -1.311427,2.253788 -1.264445,2.723338 0.04677,0.469563 1.451706,-1.596445 2.060471,-1.737257 0.608865,-0.140911 1.264445,-1.174008 1.123899,-1.502613 z"
     id="path4"
     inkscape:connector-curvature="0"
     style="stroke-width:0.33273917" />
  <path
     style="fill:#2d79c7;stroke-width:0.33273917"
     d="m 23.302814,5.3948291 c -0.507083,0 -1.490636,1.201759 -1.859303,1.391482 -0.36933,0.189723 -3.288715,2.340032 -3.564882,2.719544 -0.276831,0.379447 -0.645498,0.5375619 -1.044775,0.5059509 -0.399943,-0.03154 -1.662326,-0.04458 -2.092879,0.208357 -0.429889,0.253076 -2.393669,2.321733 -2.885645,2.574608 -0.491657,0.252915 -1.133149,0.382501 -1.44046,0.41415 -0.30725,0.03158 -1.325268,1.198498 -1.601834,1.419898 -0.276566,0.221405 -2.4620116,1.194571 -2.7693215,1.384161 -0.3073238,0.189757 2.2419425,2.847114 2.6106755,2.910333 0.368765,0.06334 -0.9556038,0.901967 -0.9635236,1.503147 -0.00785,0.599728 0.6340396,2.385881 4.3575816,4.48781 3.21904,1.817113 6.61962,0.94203 7.903031,0.57194 0.509185,-0.146849 0.321957,-1.833816 0.416186,-2.730326 0.06152,-0.569197 0.276534,-5.344261 1.075587,-6.609173 0.798954,-1.264778 3.082555,-2.783296 3.881576,-2.941343 0.79902,-0.158107 0.645331,-0.474349 0.645331,-0.758894 0,-0.284564 -0.12289,-0.917074 -0.338047,-1.011902 -0.215091,-0.09484 -1.054426,0.474848 -1.330992,0.538073 -0.276566,0.06323 -1.597975,0.158141 -1.782441,-0.158068 -0.184333,-0.316027 1.490636,-3.5415899 1.70558,-3.9210359 0.214945,-0.379514 0.307444,-0.885531 -0.0925,-1.423026 -0.399278,-0.537672 -0.675444,-1.075253 -0.829166,-1.075253 z"
     id="path6"
     inkscape:connector-curvature="0" />
  <path
     style="opacity:0.2;stroke-width:0.33273917"
     d="m 16.649521,12.40041 c 0,0 -1.01077,-0.150062 -1.593983,0.412653 -0.583237,0.562688 -1.088762,1.800541 -1.049766,2.175663 0.03883,0.375134 1.205286,-1.275426 1.710638,-1.387889 0.505498,-0.112576 1.049766,-0.937902 0.933111,-1.200427 z"
     id="path8"
     inkscape:connector-curvature="0" />
  <path
     style="fill:#ffffff;stroke-width:0.33273917"
     d="m 16.649521,12.067421 c 0,0 -1.01077,-0.150062 -1.593983,0.412653 -0.583237,0.562688 -1.088762,1.800541 -1.049766,2.175663 0.03883,0.375134 1.205286,-1.275426 1.710638,-1.387889 0.505498,-0.112577 1.049766,-0.937903 0.933111,-1.200427 z"
     id="path10"
     inkscape:connector-curvature="0" />
  <path
     style="opacity:0.2;fill:#ffffff;stroke-width:0.33273917"
     d="m 23.302715,5.3945631 c -0.507082,0 -1.490643,1.202322 -1.85931,1.392045 -0.369332,0.189723 -3.288432,2.33959 -3.564598,2.719103 -0.276832,0.379447 -0.645732,0.5378679 -1.045009,0.5062579 -0.399943,-0.03154 -1.662063,-0.04498 -2.092618,0.207961 -0.429888,0.253076 -2.394145,2.321954 -2.886122,2.57483 -0.491656,0.252916 -1.132826,0.382325 -1.440136,0.413974 -0.307251,0.03158 -1.325391,1.198591 -1.601958,1.419991 -0.276565,0.221405 -2.4618332,1.194656 -2.7691432,1.384247 -0.05294,0.03269 -0.016755,0.141786 0.074086,0.295045 0.4202106,-0.234572 2.4282902,-1.132992 2.6950572,-1.346553 0.276567,-0.2214 1.294707,-1.388407 1.601958,-1.41999 0.30731,-0.03165 0.94848,-0.16106 1.440136,-0.413975 0.491977,-0.252876 2.456234,-2.321104 2.886122,-2.57418 0.430555,-0.252942 1.692675,-0.240155 2.092618,-0.208612 0.399277,0.03161 0.768177,-0.12681 1.045009,-0.5062559 0.276166,-0.379514 3.195266,-2.52938 3.564598,-2.719103 0.368667,-0.189724 1.352228,-1.391396 1.85931,-1.391396 0.153722,0 0.429971,0.53788 0.829248,1.075553 0.157014,0.211016 0.235599,0.416626 0.263202,0.612188 0.0437,-0.287507 -0.01396,-0.609976 -0.263202,-0.944927 -0.399277,-0.537673 -0.675526,-1.075553 -0.829248,-1.075553 z m 2.221944,6.0334969 c -0.308529,0.04637 -0.981731,0.489278 -1.223726,0.5446 -0.265822,0.06077 -1.49369,0.149738 -1.75273,-0.124127 -0.03823,0.143126 -0.05513,0.254579 -0.02925,0.298945 0.184467,0.316209 1.505409,0.221154 1.781974,0.157921 0.276567,-0.06322 1.115866,-0.632943 1.330957,-0.538101 0.215158,0.09483 0.338588,0.7273 0.338588,1.011865 0,0.0036 5.99e-4,0.0074 6.49e-4,0.01105 0.02145,-0.11166 -6.49e-4,-0.230146 -6.49e-4,-0.343787 0,-0.284566 -0.12343,-0.917037 -0.338588,-1.011865 -0.02689,-0.01185 -0.06315,-0.01312 -0.10723,-0.0065 z M 8.560161,19.214286 c -0.284522,0.311966 -0.8642749,0.812219 -0.8695417,1.212029 -7.7e-4,0.05709 0.00702,0.128169 0.020153,0.206012 0.162344,-0.585854 1.2871087,-1.317453 0.9436277,-1.376449 -0.02318,-0.004 -0.05509,-0.01839 -0.09423,-0.04159 z"
     id="path12"
     inkscape:connector-curvature="0" />
  <circle
     style="opacity:1;fill:none;fill-opacity:1;stroke:url(#linearGradient867);stroke-width:0.98921818;stroke-miterlimit:4;stroke-dasharray:none;stroke-opacity:1;paint-order:fill markers stroke"
     id="path827-4"
     cx="16"
     cy="-16"
     r="13.505391"
     transform="rotate(90)" />
</svg>
