<?xml version="1.0" encoding="UTF-8" standalone="no"?>
<svg
   width="32"
   height="32"
   version="1.1"
   id="svg28"
   sodipodi:docname="androidstudio-canary.svg"
   inkscape:version="1.2.1 (9c6d41e410, 2022-07-14)"
   xmlns:inkscape="http://www.inkscape.org/namespaces/inkscape"
   xmlns:sodipodi="http://sodipodi.sourceforge.net/DTD/sodipodi-0.dtd"
   xmlns:xlink="http://www.w3.org/1999/xlink"
   xmlns="http://www.w3.org/2000/svg"
   xmlns:svg="http://www.w3.org/2000/svg"
   xmlns:rdf="http://www.w3.org/1999/02/22-rdf-syntax-ns#"
   xmlns:cc="http://creativecommons.org/ns#"
   xmlns:dc="http://purl.org/dc/elements/1.1/">
  <metadata
     id="metadata34">
    <rdf:RDF>
      <cc:Work
         rdf:about="">
        <dc:format>image/svg+xml</dc:format>
        <dc:type
           rdf:resource="http://purl.org/dc/dcmitype/StillImage" />
      </cc:Work>
    </rdf:RDF>
  </metadata>
  <defs
     id="defs32">
    <linearGradient
       inkscape:collect="always"
       id="linearGradient845">
      <stop
         style="stop-color:#ff8802;stop-opacity:1;"
         offset="0"
         id="stop841" />
      <stop
         style="stop-color:#e7521d;stop-opacity:1;"
         offset="1"
         id="stop843" />
    </linearGradient>
    <linearGradient
       inkscape:collect="always"
       xlink:href="#linearGradient845"
       id="linearGradient847"
       x1="1"
       y1="1106.02"
       x2="30"
       y2="1106.02"
       gradientUnits="userSpaceOnUse"
       gradientTransform="translate(-1121.52,-1090.52)" />
  </defs>
  <sodipodi:namedview
     pagecolor="#ffffff"
     bordercolor="#666666"
     borderopacity="1"
     objecttolerance="10"
     gridtolerance="10"
     guidetolerance="10"
     inkscape:pageopacity="0"
     inkscape:pageshadow="2"
     inkscape:window-width="1366"
     inkscape:window-height="691"
     id="namedview30"
     showgrid="false"
     inkscape:zoom="18.4375"
     inkscape:cx="1.8983051"
     inkscape:cy="16.298305"
     inkscape:window-x="0"
     inkscape:window-y="0"
     inkscape:window-maximized="1"
     inkscape:current-layer="g26"
     inkscape:showpageshadow="2"
     inkscape:pagecheckerboard="0"
     inkscape:deskcolor="#d1d1d1" />
  <g
     transform="translate(0,-1090.5197)"
     id="g26">
    <circle
       style="opacity:0.2"
       cx="15.5"
       cy="1107.02"
       r="14.5"
       id="circle2" />
    <circle
       style="fill:url(#linearGradient847);fill-opacity:1"
       id="circle4"
       transform="rotate(-90)"
       r="14.5"
       cy="15.5"
       cx="-1106.02" />
    <path
       style="opacity:0.1"
       d="m 16.778974,1104.4702 -2.511474,1.45 7.975,13.813 2.705737,1.7865 -0.194263,-3.2365 z"
       id="path6" />
    <path
       style="fill:#e4e4e4"
       d="m 16.778974,1103.4702 -2.511474,1.45 7.975,13.813 2.705737,1.7865 -0.194263,-3.2365 z"
       id="path8" />
    <path
       style="opacity:0.2"
       d="m 14.244141,1104.4709 -7.9746098,13.8125 -0.1953124,3.2363 2.7070312,-1.7871 1.449219,-2.5098 c 1.623159,0.8415 3.42747,1.2936 5.269531,1.2969 6.351275,0 11.5,-5.1487 11.5,-11.5 -0.0048,-0.1668 -0.0133,-0.3335 -0.02539,-0.5 h -2.992187 c 0.01076,0.1665 0.01663,0.3332 0.01758,0.5 0,4.6944 -3.80558,8.5 -8.5,8.5 -1.325421,-0 -2.606549,-0.3277 -3.765625,-0.9043 l 5.021484,-8.6953 z"
       id="path10" />
    <path
       style="fill:#ffffff"
       d="m 14.244263,1103.4702 2.511474,1.45 -7.975,13.813 -2.705737,1.7865 0.194263,-3.2365 z"
       id="path12" />
    <path
       style="opacity:0.1"
       d="m 14,1097.5197 v 3 H 12.499999 C 11,1100.5197 11,1101.9614 11,1101.9614 v 5.9682 l 3,2.9473 c 0.99648,0.7912 2.075587,0.9206 3,0 l 3,-2.9473 v -5.9682 c 0,-1.4737 -1.499999,-1.4417 -1.499999,-1.4417 H 17 v -3 z"
       id="path14" />
    <path
       style="fill:#4f4f4f"
       d="m 14,1096.5197 v 3 H 12.499999 C 11,1099.5197 11,1100.9614 11,1100.9614 v 5.9682 l 3,2.9473 c 0.99648,0.7912 2.075587,0.9206 3,0 l 3,-2.9473 v -5.9682 c 0,-1.4737 -1.499999,-1.4417 -1.499999,-1.4417 H 17 v -3 z"
       id="path16" />
    <circle
       style="opacity:0.2"
       cx="15.5"
       cy="1105.02"
       r="1.5"
       id="circle18" />
    <circle
       style="fill:#ffffff"
       cx="15.5"
       cy="1104.02"
       r="1.5"
       id="circle20" />
    <path
       style="fill:#ffffff"
       transform="translate(0,1090.5197)"
       d="m 23.982422,15 c 0.01076,0.166458 0.01663,0.333197 0.01758,0.5 0,4.69442 -3.80558,8.5 -8.5,8.5 -1.612826,-0.0023 -3.172045,-0.462537 -4.508402,-1.301661 C 10.249301,22.232237 10.575766,22.686345 10,22 L 9,24.972656 C 10.912353,26.289061 13.178363,26.995827 15.5,27 21.851275,27 27,21.851275 27,15.5 26.995166,15.333169 26.9867,15.166463 26.974609,15 Z"
       id="path22" />
  </g>
</svg>
