<?xml version="1.0" encoding="UTF-8" standalone="no"?>
<svg
   width="48"
   height="48"
   version="1.1"
   id="svg18"
   sodipodi:docname="applications-other.svg"
   inkscape:version="1.2.1 (9c6d41e410, 2022-07-14)"
   xmlns:inkscape="http://www.inkscape.org/namespaces/inkscape"
   xmlns:sodipodi="http://sodipodi.sourceforge.net/DTD/sodipodi-0.dtd"
   xmlns="http://www.w3.org/2000/svg"
   xmlns:svg="http://www.w3.org/2000/svg">
  <defs
     id="defs22" />
  <sodipodi:namedview
     id="namedview20"
     pagecolor="#ffffff"
     bordercolor="#000000"
     borderopacity="0.25"
     inkscape:showpageshadow="2"
     inkscape:pageopacity="0.0"
     inkscape:pagecheckerboard="0"
     inkscape:deskcolor="#d1d1d1"
     showgrid="false"
     inkscape:zoom="4.9166667"
     inkscape:cx="24"
     inkscape:cy="24.101695"
     inkscape:current-layer="svg18" />
  <circle
     style="opacity:0.2"
     cx="24"
     cy="25"
     r="20"
     id="circle2" />
  <circle
     style="fill:#6c5d53"
     cx="24"
     cy="24"
     r="20"
     id="circle4" />
  <path
     style="opacity:0.2"
     d="m 12,21 a 4,4 0 0 0 -4,4 4,4 0 0 0 4,4 4,4 0 0 0 4,-4 4,4 0 0 0 -4,-4 z m 12,0 a 4,4 0 0 0 -4,4 4,4 0 0 0 4,4 4,4 0 0 0 4,-4 4,4 0 0 0 -4,-4 z m 12,0 a 4,4 0 0 0 -4,4 4,4 0 0 0 4,4 4,4 0 0 0 4,-4 4,4 0 0 0 -4,-4 z"
     id="path6" />
  <path
     style="opacity:0.1;fill:#ffffff"
     d="M 24,4 A 20,20 0 0 0 4,24 20,20 0 0 0 4.0215,24.582 20,20 0 0 1 24,5 20,20 0 0 1 43.979,24.418 20,20 0 0 0 44,24 20,20 0 0 0 24,4 Z"
     id="path8" />
  <circle
     style="fill:#e6e6e6"
     cx="24"
     cy="24"
     r="4"
     id="circle10" />
  <circle
     style="fill:#e6e6e6"
     cx="36"
     cy="24"
     r="4"
     id="circle12" />
  <circle
     style="fill:#e6e6e6"
     cx="12"
     cy="24"
     r="4"
     id="circle14" />
  <path
     style="opacity:0.2;fill:#ffffff"
     d="M 12 20 A 4 4 0 0 0 8 24 A 4 4 0 0 0 8.0351562 24.505859 A 4 4 0 0 1 12 21 A 4 4 0 0 1 15.964844 24.494141 A 4 4 0 0 0 16 24 A 4 4 0 0 0 12 20 z M 24 20 A 4 4 0 0 0 20 24 A 4 4 0 0 0 20.035156 24.505859 A 4 4 0 0 1 24 21 A 4 4 0 0 1 27.964844 24.494141 A 4 4 0 0 0 28 24 A 4 4 0 0 0 24 20 z M 36 20 A 4 4 0 0 0 32 24 A 4 4 0 0 0 32.035156 24.505859 A 4 4 0 0 1 36 21 A 4 4 0 0 1 39.964844 24.494141 A 4 4 0 0 0 40 24 A 4 4 0 0 0 36 20 z"
     id="path16" />
</svg>
