<?xml version="1.0" encoding="UTF-8" standalone="no"?>
<svg
   width="48"
   height="48"
   version="1.1"
   id="svg14"
   sodipodi:docname="aranym.svg"
   inkscape:version="1.2.1 (9c6d41e410, 2022-07-14)"
   xmlns:inkscape="http://www.inkscape.org/namespaces/inkscape"
   xmlns:sodipodi="http://sodipodi.sourceforge.net/DTD/sodipodi-0.dtd"
   xmlns="http://www.w3.org/2000/svg"
   xmlns:svg="http://www.w3.org/2000/svg">
  <defs
     id="defs18" />
  <sodipodi:namedview
     id="namedview16"
     pagecolor="#ffffff"
     bordercolor="#000000"
     borderopacity="0.25"
     inkscape:showpageshadow="2"
     inkscape:pageopacity="0.0"
     inkscape:pagecheckerboard="0"
     inkscape:deskcolor="#d1d1d1"
     showgrid="false"
     inkscape:zoom="15.129139"
     inkscape:cx="10.575618"
     inkscape:cy="27.265266"
     inkscape:current-layer="svg14" />
  <path
     d="m 16.000003,5 c -3.31357,3.314e-4 -5.999666,2.6864288 -5.999997,6 -3.3135695,3.31e-4 -5.9996656,2.686429 -5.999997,6 v 2 c 0.00102,2.011803 1.0101397,3.889228 2.6874987,5 -1.677359,1.110772 -2.6864739,2.988198 -2.6874987,5 v 8 c 0.00154,2.095142 1.0957521,4.037772 2.8867174,5.125 1.087923,1.782914 3.0246564,2.871864 5.1132786,2.875 h 3.999998 c 0.326015,-0.0022 0.65131,-0.03092 0.972656,-0.08594 0.339348,0.05807 0.683064,0.08682 1.027343,0.08594 h 1.999999 c 1.783532,-0.0012 3.474124,-0.79563 4.61328,-2.167968 0.295388,0.07086 0.595729,0.11918 0.898435,0.14454 1.137788,1.28543 2.771631,2.022006 4.48828,2.023428 h 1.999999 c 0.326014,-0.0022 0.65131,-0.03092 0.972656,-0.08594 0.339347,0.05806 0.683063,0.08682 1.027343,0.08594 h 1.999999 c 2.095141,-0.0015 4.03777,-1.095752 5.124997,-2.886718 C 42.907904,41.025358 43.996853,39.088624 43.999989,37 v -2 c -0.0022,-0.326014 -0.03092,-0.65131 -0.08594,-0.972656 0.05807,-0.339348 0.08682,-0.683064 0.08594,-1.027344 v -2 c -0.0026,-1.71529 -0.739022,-3.347492 -2.023437,-4.484376 -0.02536,-0.302706 -0.07368,-0.603048 -0.14454,-0.898436 C 43.205411,24.477158 43.999999,22.7849 43.999989,21 v -2 c -0.0022,-0.326015 -0.03092,-0.65131 -0.08594,-0.972656 0.05806,-0.339349 0.08682,-0.683065 0.08594,-1.027344 V 13 C 43.998445,10.904857 42.904238,8.9622288 41.113272,7.875 40.025349,6.0920866 38.088616,5.0031358 35.999993,5 H 27.999997 C 25.988196,5.0010248 24.110771,6.0101402 23,7.6875 21.889227,6.0101402 20.011804,5.0010248 18.000002,5 Z"
     style="opacity:0.2;stroke-width:2"
     id="path2" />
  <path
     d="m 16.000003,4.0000196 c -3.31357,3.314e-4 -5.999666,2.6864288 -5.999997,6.0000004 -3.3135695,3.31e-4 -5.9996656,2.686428 -5.999997,6 v 2 c 0.00102,2.011803 1.0101397,3.889227 2.6874987,5 -1.677359,1.110772 -2.6864739,2.988198 -2.6874987,5 v 8 c 0.00154,2.095142 1.0957521,4.037772 2.8867174,5.125 1.087923,1.782914 3.0246564,2.871864 5.1132786,2.875 h 3.999998 c 0.326015,-0.0022 0.65131,-0.03092 0.972656,-0.08594 0.339348,0.05807 0.683064,0.08682 1.027343,0.08594 h 1.999999 c 1.783532,-0.0012 3.474124,-0.79563 4.61328,-2.167968 0.295388,0.07086 0.595729,0.11918 0.898435,0.14454 1.137788,1.28543 2.771631,2.022006 4.48828,2.023428 h 1.999999 c 0.326014,-0.0022 0.65131,-0.03092 0.972656,-0.08594 0.339347,0.05807 0.683063,0.08682 1.027343,0.08594 h 1.999999 c 2.095141,-0.0015 4.03777,-1.095752 5.124997,-2.886718 1.782914,-1.087924 2.871863,-3.024658 2.874999,-5.113282 v -2 c -0.0022,-0.326014 -0.03092,-0.65131 -0.08594,-0.972656 0.05807,-0.339348 0.08682,-0.683064 0.08594,-1.027344 v -2 c -0.0026,-1.71529 -0.739022,-3.347492 -2.023437,-4.484376 -0.02536,-0.302706 -0.07368,-0.603048 -0.14454,-0.898436 1.373399,-1.14003 2.167987,-2.832289 2.167977,-4.617188 v -2 c -0.0022,-0.326015 -0.03092,-0.651311 -0.08594,-0.972657 0.05806,-0.339348 0.08682,-0.683064 0.08594,-1.027343 v -4 C 43.998445,9.904877 42.904238,7.9622484 41.113272,6.8750196 40.025349,5.0921062 38.088616,4.0031554 35.999993,4.0000196 H 27.999997 C 25.988196,4.0010444 24.110771,5.0101598 23,6.6875196 21.889227,5.0101598 20.011804,4.0010444 18.000002,4.0000196 Z"
     style="fill:#0a1760;stroke-width:2;fill-opacity:1"
     id="path4" />
  <path
     d="m 16.000003,11 v 2 h 1.999999 v -2 z m 11.999994,0 v 2 h -1.999999 v 2 h -1.999999 v 4 H 22 v 2 h -1.999999 v 2 h -1.999999 v 2 h -3.999998 v 2 h -1.999999 v 2 h -1.999999 v 8 h 1.999999 v -6 h 1.999999 v -2 h 1.999999 v -2 h 3.999998 V 25 H 22 v -2 h 1.999999 v -2 h 1.999999 v -4 h 1.999999 v -2 h 1.999999 v -2 h 5.999997 v -2 z m 7.999996,2 v 4 h 1.999999 v -4 z m 0,4 h -1.999999 v 2 h 1.999999 z m 0,2 v 2 h 1.999999 v -2 z m 0,2 h -1.999999 v 2 h 1.999999 z m -1.999999,0 v -2 h -1.999999 v 2 z m -1.999999,0 h -1.999999 v 2 h 1.999999 z m -1.999999,2 h -1.999999 v -2 h -1.999999 v 2 h -1.999999 v 2 h 1.999999 v 2 H 23.999999 V 25 H 22 v 2 h -1.999999 v 2 H 22 v 2 h 1.999999 v -2 h 1.999999 v 2 h -1.999999 v 4 h 1.999999 v 2 h 1.999999 v -6 h 1.999999 v -2 h 5.999997 v -2 h -1.999999 v -2 h -3.999998 v 2 h -1.999999 v -2 h 1.999999 z m 0,8 v 8 h 1.999999 v -4 h 1.999999 v -2 h 3.999998 v -2 h -3.999998 z m 3.999998,4 v 4 h 1.999999 v -2 h 1.999999 V 35 Z M 22,31 h -1.999999 v 2 H 22 Z m -1.999999,2 h -1.999999 v 2 h 1.999999 z m 0,2 v 2 H 22 v -2 z m 0,2 h -1.999999 v 2 h 1.999999 z m -1.999999,0 v -2 h -1.999999 v 2 z m -1.999999,0 h -3.999998 v 2 h 3.999998 z m 1.999999,-14 v -4 h -3.999998 v 4 z m 0,-4 H 22 v -4 h -3.999998 z m -7.999996,-2 v 2 h 1.999999 v -2 z"
     style="opacity:0.2;stroke-width:2"
     id="path6" />
  <path
     d="m 16.000003,10.00002 v 2 h 1.999999 v -2 z m 11.999994,0 v 2 h -1.999999 v 2 h -1.999999 v 4 H 22 v 2 h -1.999999 v 2 h -1.999999 v 2 h -3.999998 v 2 h -1.999999 v 2 h -1.999999 v 8 h 1.999999 v -6 h 1.999999 v -2 h 1.999999 v -2 h 3.999998 v -2 H 22 v -2 h 1.999999 v -2 h 1.999999 v -4 h 1.999999 v -2 h 1.999999 v -2 h 5.999997 v -2 z m 7.999996,2 v 4 h 1.999999 v -4 z m 0,4 h -1.999999 v 2 h 1.999999 z m 0,2 v 2 h 1.999999 v -2 z m 0,2 h -1.999999 v 2 h 1.999999 z m -1.999999,0 v -2 h -1.999999 v 2 z m -1.999999,0 h -1.999999 v 2 h 1.999999 z m -1.999999,2 h -1.999999 v -2 h -1.999999 v 2 h -1.999999 v 2 h 1.999999 v 2 h -1.999999 v -2 H 22 v 2 h -1.999999 v 2 H 22 v 2 h 1.999999 v -2 h 1.999999 v 2 h -1.999999 v 4 h 1.999999 v 2 h 1.999999 v -6 h 1.999999 v -2 h 5.999997 v -2 h -1.999999 v -2 h -3.999998 v 2 h -1.999999 v -2 h 1.999999 z m 0,8 v 8 h 1.999999 v -4 h 1.999999 v -2 h 3.999998 v -2 h -3.999998 z m 3.999998,4 v 4 h 1.999999 v -2 h 1.999999 v -2 z M 22,30.00002 h -1.999999 v 2 H 22 Z m -1.999999,2 h -1.999999 v 2 h 1.999999 z m 0,2 v 2 H 22 v -2 z m 0,2 h -1.999999 v 2 h 1.999999 z m -1.999999,0 v -2 h -1.999999 v 2 z m -1.999999,0 h -3.999998 v 2 h 3.999998 z m 1.999999,-14 v -4 h -3.999998 v 4 z m 0,-4 H 22 v -4 h -3.999998 z m -7.999996,-2 v 2 h 1.999999 v -2 z"
     style="fill:#7095ce;stroke-width:2"
     id="path8" />
  <path
     d="m 16.000003,4.0000196 c -3.31357,3.314e-4 -5.999666,2.6864288 -5.999997,6.0000004 -3.3135695,3.31e-4 -5.9996656,2.686428 -5.999997,6 v 1 c 3.314e-4,-3.313572 2.6864275,-5.999669 5.999997,-6 3.31e-4,-3.3135716 2.686427,-5.999669 5.999997,-6.0000004 h 1.999999 c 2.011802,0.00102 3.889225,1.0101402 4.999998,2.6875 1.110771,-1.6773598 2.988196,-2.6864752 4.999997,-2.6875 h 7.999996 c 2.088623,0.00314 4.025356,1.0920866 5.113279,2.875 1.790966,1.0872288 2.885173,3.0298574 2.886717,5.1250004 v -1 C 43.998445,9.904877 42.904238,7.9622484 41.113272,6.8750196 40.025349,5.0921062 38.088616,4.0031554 35.999993,4.0000196 H 27.999997 C 25.988196,4.0010444 24.110771,5.0101598 23,6.6875196 21.889227,5.0101598 20.011804,4.0010444 18.000002,4.0000196 Z M 43.957021,17.515645 c -0.0144,0.17073 -0.014,0.342685 -0.04296,0.511718 0.05501,0.321346 0.08375,0.646642 0.08593,0.972657 v -1 c -0.0011,-0.162358 -0.02874,-0.322773 -0.04297,-0.484375 z M 6.1054759,23.50002 c -1.3060191,1.130604 -2.1045751,2.747624 -2.1054677,4.5 v 1 c 0.00102,-2.011802 1.0101397,-3.889228 2.6874987,-5 -0.2162987,-0.143236 -0.388685,-0.332622 -0.582031,-0.5 z M 41.96874,25.472676 c -0.04998,0.04438 -0.0851,0.10168 -0.13672,0.14454 0.07086,0.295388 0.11918,0.59573 0.14454,0.898436 1.284407,1.136876 2.020829,2.769078 2.023429,4.484368 v -1 c -0.0026,-1.71529 -0.739022,-3.347492 -2.023437,-4.484376 -0.0012,-0.0146 -0.0064,-0.02846 -0.0078,-0.04296 z m 1.988281,8.042968 c -0.0144,0.17074 -0.014,0.342686 -0.04296,0.51172 0.05501,0.321346 0.08373,0.646642 0.08593,0.972656 v -1 c -0.0011,-0.16236 -0.02874,-0.322772 -0.04296,-0.484376 z"
     style="opacity:0.1;fill:#ffffff;stroke-width:2"
     id="path10" />
</svg>
