<?xml version="1.0" encoding="UTF-8" standalone="no"?>
<svg
   height="48"
   width="48"
   version="1.1"
   id="svg14"
   sodipodi:docname="archipelago.svg"
   inkscape:version="1.2.1 (9c6d41e410, 2022-07-14)"
   xmlns:inkscape="http://www.inkscape.org/namespaces/inkscape"
   xmlns:sodipodi="http://sodipodi.sourceforge.net/DTD/sodipodi-0.dtd"
   xmlns="http://www.w3.org/2000/svg"
   xmlns:svg="http://www.w3.org/2000/svg">
  <defs
     id="defs18" />
  <sodipodi:namedview
     id="namedview16"
     pagecolor="#ffffff"
     bordercolor="#000000"
     borderopacity="0.25"
     inkscape:showpageshadow="2"
     inkscape:pageopacity="0.0"
     inkscape:pagecheckerboard="0"
     inkscape:deskcolor="#d1d1d1"
     showgrid="false"
     inkscape:zoom="21.395833"
     inkscape:cx="24.046738"
     inkscape:cy="21.33593"
     inkscape:current-layer="svg14" />
  <g
     id="g325">
    <circle
       cx="24"
       cy="25"
       r="20"
       style="opacity:0.2;stroke-width:2"
       id="circle2" />
    <circle
       cx="24"
       cy="24"
       r="20"
       style="fill:#e4e4e4;stroke-width:2"
       id="circle4" />
    <path
       d="M 24,4 A 20,20 0 0 0 4,24 20,20 0 0 0 4.0196,24.586 20,20 0 0 1 24,5 20,20 0 0 1 43.98,24.414 20,20 0 0 0 44,24 20,20 0 0 0 24,4 Z"
       style="opacity:0.2;fill:#ffffff;stroke-width:2"
       id="path6" />
    <path
       style="opacity:0.2;stroke-width:2"
       d="m 19.96188,12.999997 c -0.335539,0.01295 -0.642187,0.193412 -0.816406,0.480469 l -11,18 c -0.4043698,0.665308 0.07301,1.517148 0.8515624,1.519532 H 38.997036 c 0.722878,0.0017 1.208716,-0.740512 0.917968,-1.402344 l -7,-16.000001 c -0.165968,-0.378707 -0.547874,-0.616235 -0.960936,-0.597656 -0.383738,0.01704 -0.723808,0.252359 -0.875,0.605469 L 27.125942,24.76953 20.872037,13.515622 C 20.689887,13.186136 20.338135,12.986859 19.96188,12.999997 Z M 20,16 l 2.739216,4.999997 h -2.74218 l -2,2.000001 -1.445312,-1.445313 z m 12,2 2.329068,5.83203 -2.332032,1.167968 -2.300782,-1.148438 z m -16.334995,4.999998 h 0.332031 l 2,2 2,-2 h 3.855468 l 2.460938,4.425782 c 0.02708,0.06594 0.06112,0.1288 0.10156,0.1875 l 1.882816,3.386718 H 10.778286 Z m 19.382813,2.472656 2.417968,5.527344 H 30.58688 l -2.238282,-4.023438 0.640626,-1.480468 3.007812,1.503906 z"
       id="path8" />
    <path
       style="fill:#333333;stroke-width:2"
       d="m 19.96188,12 c -0.335539,0.01294 -0.642187,0.193412 -0.816406,0.480469 l -11,17.999999 C 7.7411042,31.145776 8.2184846,31.997616 8.9970364,32 H 38.997036 c 0.722878,0.0017 1.208716,-0.740512 0.917968,-1.402344 l -7,-16 C 32.749036,14.218949 32.36713,13.981421 31.954068,14 c -0.383738,0.01704 -0.723808,0.252358 -0.875,0.605469 L 27.125942,23.769532 20.872037,12.515625 C 20.689888,12.186138 20.338135,11.986862 19.96188,12 Z M 20,15 l 2.739224,5 h -2.742188 l -2,2 -1.445312,-1.445312 z m 12,2 2.329068,5.832032 L 31.997036,24 29.696254,22.851562 Z m -16.334995,5 h 0.332031 l 2,2 2,-2 h 3.855468 l 2.460938,4.425782 c 0.02708,0.06594 0.06112,0.1288 0.10156,0.1875 L 28.297818,30 H 10.778286 Z M 35.047818,24.472656 37.465786,30 H 30.58688 L 28.348598,25.976562 28.989224,24.496094 31.997036,26 Z"
       id="path10" />
  </g>
</svg>
