<?xml version="1.0" encoding="UTF-8" standalone="no"?>
<svg
   xmlns:dc="http://purl.org/dc/elements/1.1/"
   xmlns:cc="http://creativecommons.org/ns#"
   xmlns:rdf="http://www.w3.org/1999/02/22-rdf-syntax-ns#"
   xmlns:svg="http://www.w3.org/2000/svg"
   xmlns="http://www.w3.org/2000/svg"
   xmlns:xlink="http://www.w3.org/1999/xlink"
   xmlns:sodipodi="http://sodipodi.sourceforge.net/DTD/sodipodi-0.dtd"
   xmlns:inkscape="http://www.inkscape.org/namespaces/inkscape"
   width="32"
   height="32"
   version="1.1"
   viewBox="0 0 24 24"
   id="svg26"
   sodipodi:docname="ark.svg"
   inkscape:version="0.92.4 5da689c313, 2019-01-14">
  <metadata
     id="metadata32">
    <rdf:RDF>
      <cc:Work
         rdf:about="">
        <dc:format>image/svg+xml</dc:format>
        <dc:type
           rdf:resource="http://purl.org/dc/dcmitype/StillImage" />
        <dc:title />
      </cc:Work>
    </rdf:RDF>
  </metadata>
  <defs
     id="defs30">
    <linearGradient
       inkscape:collect="always"
       xlink:href="#linearGradient1105"
       id="linearGradient1107"
       x1="194.61057"
       y1="16.483648"
       x2="198.72252"
       y2="365.54987"
       gradientUnits="userSpaceOnUse"
       gradientTransform="matrix(0.06244499,0,0,0.06240401,0.0213971,-0.51415109)" />
    <linearGradient
       inkscape:collect="always"
       id="linearGradient1105">
      <stop
         style="stop-color:#58d46a;stop-opacity:1"
         offset="0"
         id="stop1101" />
      <stop
         style="stop-color:#38cc4e;stop-opacity:1"
         offset="1"
         id="stop1103" />
    </linearGradient>
  </defs>
  <sodipodi:namedview
     pagecolor="#ffffff"
     bordercolor="#666666"
     borderopacity="1"
     objecttolerance="10"
     gridtolerance="10"
     guidetolerance="10"
     inkscape:pageopacity="0"
     inkscape:pageshadow="2"
     inkscape:window-width="1366"
     inkscape:window-height="689"
     id="namedview28"
     showgrid="false"
     inkscape:zoom="20.85965"
     inkscape:cx="-1.2026904"
     inkscape:cy="21.147949"
     inkscape:window-x="0"
     inkscape:window-y="0"
     inkscape:window-maximized="1"
     inkscape:current-layer="svg26" />
  <rect
     style="opacity:0.2;fill:#000000;fill-opacity:1;stroke:none;stroke-width:0.46818361;stroke-linecap:round;stroke-linejoin:round;stroke-miterlimit:4;stroke-dasharray:none;stroke-opacity:1;paint-order:stroke fill markers"
     id="rect837-4"
     width="18"
     height="21"
     x="3"
     y="2.25"
     rx="1.3288081"
     ry="1.3279362" />
  <rect
     style="opacity:1;fill:url(#linearGradient1107);fill-opacity:1;stroke:none;stroke-width:0.46818364;stroke-linecap:round;stroke-linejoin:round;stroke-miterlimit:4;stroke-dasharray:none;stroke-opacity:1;paint-order:stroke fill markers"
     id="rect837"
     width="18"
     height="21"
     x="3"
     y="1.5"
     rx="1.3288081"
     ry="1.3279362" />
  <path
     style="fill-opacity:0.66666697;fill-rule:evenodd;stroke-width:0.04107158"
     inkscape:connector-curvature="0"
     d="m 10.657738,1.869624 v 7.1680199 h -0.0075 v 2.3470671 c -0.154015,1.511533 2.859009,1.511533 2.699195,0 v -1.161364 h 9.1e-4 V 1.869624 h -2.692468 z"
     id="path11" />
  <g
     transform="matrix(0.45697935,0,0,0.45609383,-174.60455,-226.7693)"
     style="fill:#ffffff;stroke-width:0.08996344"
     id="g25">
    <rect
       rx="0.087458909"
       style="opacity:0.92900002;stroke-width:0.08996344"
       height="2.197578"
       ry="0.08822985"
       width="4.395155"
       x="406.2309"
       y="502.52133"
       id="rect13" />
    <rect
       rx="0.087458909"
       style="opacity:0.92900002;stroke-width:0.08996344"
       height="2.197578"
       ry="0.08822985"
       width="4.395155"
       x="406.22171"
       y="505.69974"
       id="rect15" />
    <rect
       rx="0.087458909"
       style="opacity:0.92900002;stroke-width:0.08996344"
       height="2.197578"
       ry="0.08822985"
       width="4.395155"
       x="406.19412"
       y="508.83987"
       id="rect17" />
    <rect
       rx="0.087458909"
       style="opacity:0.92900002;stroke-width:0.08996344"
       height="2.197578"
       ry="0.08822985"
       width="4.395155"
       x="406.24228"
       y="512.10864"
       id="rect19" />
    <rect
       rx="0.087458909"
       style="opacity:0.92900002;stroke-width:0.08996344"
       height="2.197578"
       ry="0.08822985"
       width="4.395155"
       x="406.24228"
       y="515.32019"
       id="rect21" />
    <rect
       rx="0.087458909"
       style="opacity:0.92900002;stroke-width:0.08996344"
       height="2.197578"
       ry="0.08822985"
       width="4.395155"
       x="406.24222"
       y="518.60736"
       id="rect23" />
  </g>
  <path
     style="fill-opacity:0.66666697;stroke-width:0.04107158"
     inkscape:connector-curvature="0"
     d="M 12.779289,12.446212 V 11.8137 c 0,-0.176223 -0.142687,-0.319144 -0.318615,-0.319144 h -0.88522 c -0.175927,0 -0.318646,0.142964 -0.318646,0.319144 v 0.632202 l -0.492359,1.448918 c -0.137761,0.403823 -0.07166,0.852484 0.176559,1.200205 0.248235,0.347082 0.650736,0.554376 1.077039,0.554376 0.426381,0 0.828926,-0.207294 1.07715,-0.554376 0.248228,-0.347721 0.314244,-0.796382 0.176523,-1.199887 z m -0.205646,2.275113 c -0.255419,0.358061 -0.855776,0.358061 -1.111232,0 -0.128028,-0.17938 -0.162112,-0.41075 -0.09136,-0.619245 l 0.165245,-0.485985 h 0.963467 l 0.165284,0.486302 c 0.07078,0.208178 0.03665,0.439548 -0.0914,0.618928 z"
     id="path27" />
  <path
     style="fill:#f0f5f1;stroke-width:0.04107158"
     inkscape:connector-curvature="0"
     d="m 12.779289,12.231493 v -0.632512 c 0,-0.176221 -0.142687,-0.319144 -0.318615,-0.319144 h -0.88522 c -0.175927,0 -0.318646,0.142958 -0.318646,0.319144 v 0.632202 l -0.492359,1.448919 c -0.137761,0.403816 -0.07166,0.852484 0.176559,1.200198 0.248235,0.347088 0.650736,0.554383 1.077039,0.554383 0.426381,0 0.828926,-0.207295 1.07715,-0.554383 0.248228,-0.347714 0.314244,-0.796382 0.176523,-1.199888 z m -0.205646,2.275106 c -0.255419,0.358061 -0.855776,0.358061 -1.111232,0 -0.128028,-0.179365 -0.162112,-0.410743 -0.09136,-0.619237 l 0.165245,-0.485984 h 0.963467 l 0.165284,0.486302 c 0.07078,0.208176 0.03665,0.439554 -0.0914,0.618919 z"
     id="path31" />
</svg>
