<?xml version="1.0" encoding="UTF-8" standalone="no"?>
<svg
   xmlns:dc="http://purl.org/dc/elements/1.1/"
   xmlns:cc="http://creativecommons.org/ns#"
   xmlns:rdf="http://www.w3.org/1999/02/22-rdf-syntax-ns#"
   xmlns:svg="http://www.w3.org/2000/svg"
   xmlns="http://www.w3.org/2000/svg"
   xmlns:xlink="http://www.w3.org/1999/xlink"
   xmlns:sodipodi="http://sodipodi.sourceforge.net/DTD/sodipodi-0.dtd"
   xmlns:inkscape="http://www.inkscape.org/namespaces/inkscape"
   width="32"
   height="32"
   version="1"
   id="svg12"
   sodipodi:docname="atom.svg"
   inkscape:version="0.92.4 5da689c313, 2019-01-14">
  <metadata
     id="metadata18">
    <rdf:RDF>
      <cc:Work
         rdf:about="">
        <dc:format>image/svg+xml</dc:format>
        <dc:type
           rdf:resource="http://purl.org/dc/dcmitype/StillImage" />
        <dc:title></dc:title>
      </cc:Work>
    </rdf:RDF>
  </metadata>
  <defs
     id="defs16">
    <linearGradient
       inkscape:collect="always"
       id="linearGradient840">
      <stop
         style="stop-color:#34e379;stop-opacity:1;"
         offset="0"
         id="stop836" />
      <stop
         style="stop-color:#129888;stop-opacity:1"
         offset="1"
         id="stop838" />
    </linearGradient>
    <linearGradient
       inkscape:collect="always"
       xlink:href="#linearGradient840"
       id="linearGradient842"
       x1="-44"
       y1="24"
       x2="-4"
       y2="24"
       gradientUnits="userSpaceOnUse"
       gradientTransform="matrix(0.66500001,0,0,0.66500001,31.960001,0.04)" />
  </defs>
  <sodipodi:namedview
     pagecolor="#ffffff"
     bordercolor="#666666"
     borderopacity="1"
     objecttolerance="10"
     gridtolerance="10"
     guidetolerance="10"
     inkscape:pageopacity="0"
     inkscape:pageshadow="2"
     inkscape:window-width="1366"
     inkscape:window-height="709"
     id="namedview14"
     showgrid="false"
     inkscape:zoom="4.9166667"
     inkscape:cx="3.3559322"
     inkscape:cy="22.067797"
     inkscape:window-x="0"
     inkscape:window-y="25"
     inkscape:window-maximized="1"
     inkscape:current-layer="svg12" />
  <rect
     style="fill:url(#linearGradient842);fill-opacity:1;stroke-width:0.66500002"
     width="26.6"
     height="26.6"
     x="2.6999998"
     y="2.7000003"
     rx="13.3"
     ry="13.3"
     id="rect2"
     transform="matrix(0,1,1,0,0,0)" />
  <path
     style="opacity:0.2;stroke-width:0.69999999"
     d="m 12.740757,8.504759 c -0.207462,-0.0059 -0.403353,0.01231 -0.533202,0.05606 -0.637,0.2184 -1.036613,0.689128 -1.257813,1.473828 -0.1911,0.6839 -0.185828,1.914238 0.01367,2.985938 0.035,0.1862 0.0709,0.355512 0.0793,0.382812 0.0105,0.0385 -0.0572,0.06265 -0.358203,0.13125 -1.4714,0.336001 -2.545615,0.836501 -3.1910158,1.487501 -0.2898,0.2898 -0.4510401,0.544162 -0.5441401,0.864062 -0.0658,0.2219 -0.0658,0.661368 0,0.880468 0.1806,0.602 0.6893684,1.16747 1.4929689,1.66797 0.5579,0.3444 0.724478,0.382943 0.905078,0.202343 0.0847,-0.0847 0.103906,-0.125453 0.103906,-0.226953 0,-0.1967 -0.06016,-0.276063 -0.322656,-0.426563 -1.6457002,-0.9268 -1.9357193,-1.856422 -0.836719,-2.682422 0.5579,-0.4186 1.33711,-0.74935 2.38711,-1.00625 0.4599,-0.112 0.563281,-0.125825 0.563281,-0.06563 0,0.0819 0.339062,1.164822 0.514062,1.632422 l 0.180469,0.489453 -0.237891,0.459375 c -0.9513,1.8375 -1.561656,3.71057 -1.635156,5.08047 -0.0602,1.0556 0.131294,1.810134 0.596094,2.277733 0.5082,0.5089 1.225284,0.618056 2.146484,0.322656 0.3472,-0.112 1.036482,-0.461846 1.438282,-0.735546 0.2898,-0.1939 0.352515,-0.251234 0.391015,-0.352734 0.0385,-0.1015 0.0385,-0.134225 0,-0.240625 -0.0574,-0.1589 -0.17663,-0.247461 -0.34043,-0.247461 -0.1064,0 -0.180206,0.03392 -0.453906,0.220117 -0.6209,0.4214 -1.203409,0.683725 -1.687109,0.765625 -0.6699,0.1148 -1.099394,-0.180469 -1.296094,-0.880469 -0.0847,-0.3038 -0.07943,-1.276778 0.01367,-1.780078 0.1421,-0.8008 0.390885,-1.632422 0.746485,-2.507422 0.2107,-0.5194 0.612587,-1.389084 0.667187,-1.446484 0.0273,-0.0301 0.06283,0.01905 0.153125,0.226953 0.4599,1.0332 1.162438,2.294162 1.848438,3.314062 1.638,2.4318 3.4314,4.014215 4.8125,4.241015 l -0.01504,0.0027 c 0.6069,0.098 1.118644,-0.05223 1.514844,-0.448437 0.3227,-0.3283 0.53585,-0.790212 0.65625,-1.432812 0.0735,-0.4018 0.0735,-1.527257 0,-2.076757 -0.224,-1.638001 -0.819186,-3.514952 -1.713086,-5.385352 -0.1393,-0.2926 -0.218619,-0.365039 -0.399219,-0.365039 -0.2023,-0.0028 -0.366406,0.1533 -0.366406,0.35 0,0.0686 0.0684,0.254056 0.183203,0.497656 1.1018,2.3485 1.692622,4.620853 1.632422,6.264453 -0.0371,0.9793 -0.28175,1.568317 -0.74375,1.795117 -0.2429,0.1197 -0.549697,0.116561 -0.954297,-0.01504 -1.8571,-0.6286 -4.37255,-3.773087 -5.99375,-7.492187 l -0.161328,-0.371875 0.235156,-0.400586 c 0.2653,-0.4564 0.93544,-1.476322 1.24414,-1.894922 l 0.207813,-0.278907 h 0.546875 c 3.3229,0 6.61185,0.751625 8.35625,1.903125 0.3556,0.2352 0.784482,0.664716 0.913282,0.916016 0.0931,0.175 0.101171,0.221507 0.101171,0.453907 0,0.2275 -0.0085,0.281793 -0.08477,0.421093 -0.2135,0.4102 -0.776672,0.836434 -1.501172,1.140234 -0.336,0.1421 -0.426563,0.235398 -0.426563,0.429298 0,0.1638 0.106969,0.301 0.267969,0.35 0.1043,0.0301 0.140558,0.02428 0.326758,-0.04922 1.1704,-0.4627 1.971747,-1.181294 2.135547,-1.908594 0.0462,-0.1967 0.04346,-0.566322 -0.0027,-0.757422 -0.0875,-0.3752 -0.399022,-0.855815 -0.757422,-1.178515 -1.596706,-1.432902 -4.984903,-2.356837 -9.004303,-2.452737 l -0.287109,-0.0082 0.336328,-0.377344 c 0.1806,-0.2107 0.502042,-0.560766 0.723242,-0.784766 1.1431,-1.162 2.205427,-1.922353 3.132227,-2.239453 0.2954,-0.1036 0.355119,-0.114844 0.661719,-0.114844 0.2849,0 0.352581,0.0081 0.475781,0.07109 0.1673,0.0791 0.355272,0.27324 0.451172,0.45664 0.1883,0.3745 0.251628,1.03086 0.161328,1.73086 -0.0301,0.2408 -0.05469,0.519334 -0.05469,0.615234 0,0.1617 0.0053,0.186135 0.09844,0.265235 0.0763,0.0714 0.128254,0.09023 0.226954,0.09023 0.1589,0 0.3059,-0.08481 0.35,-0.199609 0.1309,-0.3388 0.199543,-1.539213 0.114843,-2.045313 -0.1316,-0.777 -0.464712,-1.301759 -0.995312,-1.555859 -0.938,-0.4536 -2.299281,-0.01072 -3.888281,1.263281 -0.8309,0.6671 -1.925088,1.799087 -2.679688,2.767187 l -0.07383,0.0875 -0.445704,0.02461 c -0.3745,0.0217 -0.984177,0.0821 -1.692578,0.166797 l -0.153125,0.01914 -0.06699,-0.37461 c -0.1281,-0.7462 -0.138085,-0.858265 -0.138085,-1.572265 0,-0.6265 0.0082,-0.746747 0.06836,-0.998047 0.1477,-0.6342 0.440081,-1.028256 0.825781,-1.110156 0.5306,-0.112 1.189672,0.153453 2.113672,0.839453 0.2954,0.2219 0.653865,0.03281 0.609765,-0.317188 -0.0189,-0.1526 -0.158506,-0.284528 -0.628906,-0.598828 -0.3941,-0.2653 -0.836456,-0.484225 -1.197656,-0.590625 -0.1778,-0.0532 -0.396835,-0.083 -0.604297,-0.08887 z m 0.70547,5.382617 c 0,0.014 -0.125541,0.2079 -0.281641,0.4375 -0.1561,0.2268 -0.377388,0.560219 -0.492188,0.749219 -0.112,0.1834 -0.221659,0.35011 -0.243359,0.37461 -0.0301,0.0322 -0.07411,-0.05495 -0.207812,-0.48125 -0.1911,-0.588 -0.273329,-0.905123 -0.248829,-0.932423 0.0406,-0.0413 1.473829,-0.188956 1.473829,-0.147656 z m 2.910742,2.108204 c -0.5796,0 -1.05,0.473134 -1.05,1.052734 0,0.5796 0.4704,1.05 1.05,1.05 0.5796,0 1.05,-0.4704 1.05,-1.05 0,-0.5796 -0.4704,-1.052734 -1.05,-1.052734 z"
     id="path4"
     inkscape:connector-curvature="0" />
  <path
     style="opacity:0.2;stroke-width:0.69999999"
     d="M 2.00819,16.65 C 2.00532,16.7669 2,16.8824 2,17 2,24.756 8.244,31 16,31 23.756,31 30,24.756 30,17 30,16.8824 29.9944,16.7669 29.9916,16.65 29.8068,24.2422 23.6384,30.3 16,30.3 8.3616,30.3 2.1932,24.2422 2.0084,16.65 Z"
     id="path8"
     inkscape:connector-curvature="0" />
  <path
     style="fill:#ffffff;stroke-width:0.69999999"
     d="m 12.740757,7.804759 c -0.207462,-0.0059 -0.403353,0.01231 -0.533202,0.05606 -0.637,0.2184 -1.036613,0.689128 -1.257813,1.473828 -0.1911,0.6839 -0.185828,1.914238 0.01367,2.985938 0.035,0.1862 0.0709,0.355512 0.0793,0.382812 0.0105,0.0385 -0.0572,0.06265 -0.358203,0.13125 -1.4714,0.336 -2.545615,0.836501 -3.1910158,1.487501 -0.2898,0.2898 -0.4510401,0.544162 -0.5441401,0.864062 -0.0658,0.2219 -0.0658,0.661368 0,0.880468 0.1806,0.602 0.6893684,1.16747 1.4929689,1.66797 0.5579,0.3444 0.724478,0.382943 0.905078,0.202343 0.0847,-0.0847 0.103906,-0.125453 0.103906,-0.226953 0,-0.1967 -0.06016,-0.276063 -0.322656,-0.426563 -1.6457002,-0.9268 -1.9357193,-1.856422 -0.836719,-2.682422 0.5579,-0.4186 1.33711,-0.74935 2.38711,-1.00625 0.4599,-0.112 0.563281,-0.125825 0.563281,-0.06563 0,0.0819 0.339062,1.164822 0.514062,1.632422 l 0.180469,0.489453 -0.237891,0.459375 c -0.9513,1.8375 -1.561656,3.71057 -1.635156,5.08047 -0.0602,1.0556 0.131294,1.810134 0.596094,2.277733 0.5082,0.5089 1.225284,0.618056 2.146484,0.322656 0.3472,-0.112 1.036482,-0.461846 1.438282,-0.735546 0.2898,-0.1939 0.352515,-0.251234 0.391015,-0.352734 0.0385,-0.1015 0.0385,-0.134225 0,-0.240625 -0.0574,-0.1589 -0.17663,-0.247461 -0.34043,-0.247461 -0.1064,0 -0.180206,0.03392 -0.453906,0.220117 -0.6209,0.4214 -1.203409,0.683725 -1.687109,0.765625 -0.6699,0.1148 -1.099394,-0.180469 -1.296094,-0.880469 -0.0847,-0.3038 -0.07943,-1.276778 0.01367,-1.780078 0.1421,-0.8008 0.390885,-1.632422 0.746485,-2.507422 0.2107,-0.5194 0.612587,-1.389084 0.667187,-1.446484 0.0273,-0.0301 0.06283,0.01905 0.153125,0.226953 0.4599,1.0332 1.162438,2.294162 1.848438,3.314062 1.638,2.4318 3.4314,4.014215 4.8125,4.241015 l -0.01504,0.0027 c 0.6069,0.098 1.118644,-0.05223 1.514844,-0.448437 0.3227,-0.3283 0.53585,-0.790212 0.65625,-1.432812 0.0735,-0.4018 0.0735,-1.527257 0,-2.076757 -0.224,-1.638001 -0.819186,-3.514952 -1.713086,-5.385352 -0.1393,-0.2926 -0.218619,-0.365039 -0.399219,-0.365039 -0.2023,-0.0028 -0.366406,0.1533 -0.366406,0.35 0,0.0686 0.0684,0.254056 0.183203,0.497656 1.1018,2.3485 1.692622,4.620853 1.632422,6.264453 -0.0371,0.9793 -0.28175,1.568317 -0.74375,1.795117 -0.2429,0.1197 -0.549697,0.116561 -0.954297,-0.01504 -1.8571,-0.6286 -4.37255,-3.773087 -5.99375,-7.492187 l -0.161328,-0.371875 0.235156,-0.400586 c 0.2653,-0.4564 0.93544,-1.476322 1.24414,-1.894922 l 0.207813,-0.278907 h 0.546875 c 3.3229,0 6.61185,0.751625 8.35625,1.903125 0.3556,0.2352 0.784482,0.664716 0.913282,0.916016 0.0931,0.175 0.101171,0.221507 0.101171,0.453907 0,0.2275 -0.0085,0.281793 -0.08477,0.421093 -0.2135,0.4102 -0.776672,0.836434 -1.501172,1.140234 -0.336,0.1421 -0.426563,0.235398 -0.426563,0.429298 0,0.1638 0.106969,0.301 0.267969,0.35 0.1043,0.0301 0.140558,0.02428 0.326758,-0.04922 1.1704,-0.4627 1.971747,-1.181294 2.135547,-1.908594 0.0462,-0.1967 0.04346,-0.566322 -0.0027,-0.757422 -0.0875,-0.3752 -0.399022,-0.855815 -0.757422,-1.178515 -1.596706,-1.432902 -4.984903,-2.356837 -9.004303,-2.452737 l -0.287109,-0.0082 0.336328,-0.377344 c 0.1806,-0.2107 0.502042,-0.560766 0.723242,-0.784766 1.1431,-1.162 2.205427,-1.922353 3.132227,-2.239453 0.2954,-0.1036 0.355119,-0.114844 0.661719,-0.114844 0.2849,0 0.352581,0.0081 0.475781,0.07109 0.1673,0.0791 0.355272,0.27324 0.451172,0.45664 0.1883,0.3745 0.251628,1.03086 0.161328,1.73086 -0.0301,0.2408 -0.05469,0.519334 -0.05469,0.615234 0,0.1617 0.0053,0.186135 0.09844,0.265235 0.0763,0.0714 0.128254,0.09023 0.226954,0.09023 0.1589,0 0.3059,-0.08481 0.35,-0.199609 0.1309,-0.3388 0.199543,-1.539213 0.114843,-2.045313 -0.1316,-0.777 -0.464712,-1.301759 -0.995312,-1.555859 -0.938,-0.4536 -2.299281,-0.01072 -3.888281,1.263281 -0.8309,0.6671 -1.925088,1.799087 -2.679688,2.767187 l -0.07383,0.0875 -0.445704,0.02461 c -0.3745,0.0217 -0.984177,0.0821 -1.692578,0.166797 l -0.153125,0.01914 -0.06699,-0.37461 c -0.1281,-0.7462 -0.138085,-0.858265 -0.138085,-1.572265 0,-0.6265 0.0082,-0.746747 0.06836,-0.998047 0.1477,-0.6342 0.440081,-1.028256 0.825781,-1.110156 0.5306,-0.112 1.189672,0.153453 2.113672,0.839453 0.2954,0.2219 0.653865,0.03281 0.609765,-0.317188 -0.0189,-0.1526 -0.158506,-0.284528 -0.628906,-0.598828 -0.3941,-0.2653 -0.836456,-0.484225 -1.197656,-0.590625 -0.1778,-0.0532 -0.396835,-0.083 -0.604297,-0.08887 z m 0.70547,5.382617 c 0,0.014 -0.125541,0.2079 -0.281641,0.4375 -0.1561,0.2268 -0.377388,0.560219 -0.492188,0.749219 -0.112,0.1834 -0.221659,0.35011 -0.243359,0.37461 -0.0301,0.0322 -0.07411,-0.05495 -0.207812,-0.48125 -0.1911,-0.588 -0.273329,-0.905123 -0.248829,-0.932423 0.0406,-0.0413 1.473829,-0.188956 1.473829,-0.147656 z m 2.910742,2.108204 c -0.5796,0 -1.05,0.473134 -1.05,1.052734 0,0.5796 0.4704,1.05 1.05,1.05 0.5796,0 1.05,-0.4704 1.05,-1.05 0,-0.5796 -0.4704,-1.052734 -1.05,-1.052734 z"
     id="path10"
     inkscape:connector-curvature="0" />
  <rect
     style="fill:none;fill-opacity:1;stroke:#ffffff;stroke-width:1.33333337;stroke-miterlimit:4;stroke-dasharray:none;stroke-opacity:1"
     width="26.666666"
     height="26.666666"
     x="2.666667"
     y="2.666667"
     rx="13.333333"
     ry="13.333333"
     id="rect2-5"
     transform="matrix(0,1,1,0,0,0)" />
</svg>
