<?xml version="1.0" encoding="UTF-8" standalone="no"?>
<svg
   width="32"
   height="32"
   version="1"
   id="svg12"
   sodipodi:docname="atom-night.svg"
   inkscape:version="1.2.1 (9c6d41e410, 2022-07-14)"
   xmlns:inkscape="http://www.inkscape.org/namespaces/inkscape"
   xmlns:sodipodi="http://sodipodi.sourceforge.net/DTD/sodipodi-0.dtd"
   xmlns:xlink="http://www.w3.org/1999/xlink"
   xmlns="http://www.w3.org/2000/svg"
   xmlns:svg="http://www.w3.org/2000/svg"
   xmlns:rdf="http://www.w3.org/1999/02/22-rdf-syntax-ns#"
   xmlns:cc="http://creativecommons.org/ns#"
   xmlns:dc="http://purl.org/dc/elements/1.1/">
  <metadata
     id="metadata18">
    <rdf:RDF>
      <cc:Work
         rdf:about="">
        <dc:format>image/svg+xml</dc:format>
        <dc:type
           rdf:resource="http://purl.org/dc/dcmitype/StillImage" />
      </cc:Work>
    </rdf:RDF>
  </metadata>
  <defs
     id="defs16">
    <linearGradient
       inkscape:collect="always"
       id="linearGradient840">
      <stop
         style="stop-color:#7c30b0;stop-opacity:1;"
         offset="0"
         id="stop836" />
      <stop
         style="stop-color:#129888;stop-opacity:1"
         offset="1"
         id="stop838" />
    </linearGradient>
    <linearGradient
       inkscape:collect="always"
       xlink:href="#linearGradient840"
       id="linearGradient842"
       x1="-44"
       y1="24"
       x2="-4"
       y2="24"
       gradientUnits="userSpaceOnUse"
       gradientTransform="matrix(0.66500001,0,0,0.66500001,31.960001,0.04)" />
  </defs>
  <sodipodi:namedview
     pagecolor="#ffffff"
     bordercolor="#666666"
     borderopacity="1"
     objecttolerance="10"
     gridtolerance="10"
     guidetolerance="10"
     inkscape:pageopacity="0"
     inkscape:pageshadow="2"
     inkscape:window-width="1366"
     inkscape:window-height="709"
     id="namedview14"
     showgrid="false"
     inkscape:zoom="27.812867"
     inkscape:cx="6.8673251"
     inkscape:cy="17.024495"
     inkscape:window-x="0"
     inkscape:window-y="25"
     inkscape:window-maximized="1"
     inkscape:current-layer="svg12"
     inkscape:showpageshadow="2"
     inkscape:pagecheckerboard="0"
     inkscape:deskcolor="#d1d1d1" />
  <rect
     style="fill:url(#linearGradient842);fill-opacity:1;stroke-width:0.66500002"
     width="26.6"
     height="26.6"
     x="2.6999998"
     y="2.7000003"
     rx="13.3"
     ry="13.3"
     id="rect2"
     transform="matrix(0,1,1,0,0,0)" />
  <path
     style="opacity:0.2;stroke-width:0.69999999"
     d="m 12.740757,8.504759 c -0.207462,-0.0059 -0.403353,0.01231 -0.533202,0.05606 -0.637,0.2184 -1.036613,0.689128 -1.257813,1.473828 -0.1911,0.6839 -0.185828,1.914238 0.01367,2.985938 0.035,0.1862 0.0709,0.355512 0.0793,0.382812 0.0105,0.0385 -0.0572,0.06265 -0.358203,0.13125 -1.4714,0.336001 -2.545615,0.836501 -3.1910158,1.487501 -0.2898,0.2898 -0.4510401,0.544162 -0.5441401,0.864062 -0.0658,0.2219 -0.0658,0.661368 0,0.880468 0.1806,0.602 0.6893684,1.16747 1.4929689,1.66797 0.5579,0.3444 0.724478,0.382943 0.905078,0.202343 0.0847,-0.0847 0.103906,-0.125453 0.103906,-0.226953 0,-0.1967 -0.06016,-0.276063 -0.322656,-0.426563 -1.6457002,-0.9268 -1.9357193,-1.856422 -0.836719,-2.682422 0.5579,-0.4186 1.33711,-0.74935 2.38711,-1.00625 0.4599,-0.112 0.563281,-0.125825 0.563281,-0.06563 0,0.0819 0.339062,1.164822 0.514062,1.632422 l 0.180469,0.489453 -0.237891,0.459375 c -0.9513,1.8375 -1.561656,3.71057 -1.635156,5.08047 -0.0602,1.0556 0.131294,1.810134 0.596094,2.277733 0.5082,0.5089 1.225284,0.618056 2.146484,0.322656 0.3472,-0.112 1.036482,-0.461846 1.438282,-0.735546 0.2898,-0.1939 0.352515,-0.251234 0.391015,-0.352734 0.0385,-0.1015 0.0385,-0.134225 0,-0.240625 -0.0574,-0.1589 -0.17663,-0.247461 -0.34043,-0.247461 -0.1064,0 -0.180206,0.03392 -0.453906,0.220117 -0.6209,0.4214 -1.203409,0.683725 -1.687109,0.765625 -0.6699,0.1148 -1.099394,-0.180469 -1.296094,-0.880469 -0.0847,-0.3038 -0.07943,-1.276778 0.01367,-1.780078 0.1421,-0.8008 0.390885,-1.632422 0.746485,-2.507422 0.2107,-0.5194 0.612587,-1.389084 0.667187,-1.446484 0.0273,-0.0301 0.06283,0.01905 0.153125,0.226953 0.4599,1.0332 1.162438,2.294162 1.848438,3.314062 1.638,2.4318 3.4314,4.014215 4.8125,4.241015 l -0.01504,0.0027 c 0.6069,0.098 1.118644,-0.05223 1.514844,-0.448437 0.3227,-0.3283 0.53585,-0.790212 0.65625,-1.432812 0.0735,-0.4018 0.0735,-1.527257 0,-2.076757 -0.224,-1.638001 -0.819186,-3.514952 -1.713086,-5.385352 -0.1393,-0.2926 -0.218619,-0.365039 -0.399219,-0.365039 -0.2023,-0.0028 -0.366406,0.1533 -0.366406,0.35 0,0.0686 0.0684,0.254056 0.183203,0.497656 1.1018,2.3485 1.692622,4.620853 1.632422,6.264453 -0.0371,0.9793 -0.28175,1.568317 -0.74375,1.795117 -0.2429,0.1197 -0.549697,0.116561 -0.954297,-0.01504 -1.8571,-0.6286 -4.37255,-3.773087 -5.99375,-7.492187 l -0.161328,-0.371875 0.235156,-0.400586 c 0.2653,-0.4564 0.93544,-1.476322 1.24414,-1.894922 l 0.207813,-0.278907 h 0.546875 c 3.3229,0 6.61185,0.751625 8.35625,1.903125 0.3556,0.2352 0.784482,0.664716 0.913282,0.916016 0.0931,0.175 0.101171,0.221507 0.101171,0.453907 0,0.2275 -0.0085,0.281793 -0.08477,0.421093 -0.2135,0.4102 -0.776672,0.836434 -1.501172,1.140234 -0.336,0.1421 -0.426563,0.235398 -0.426563,0.429298 0,0.1638 0.106969,0.301 0.267969,0.35 0.1043,0.0301 0.140558,0.02428 0.326758,-0.04922 1.1704,-0.4627 1.971747,-1.181294 2.135547,-1.908594 0.0462,-0.1967 0.04346,-0.566322 -0.0027,-0.757422 -0.0875,-0.3752 -0.399022,-0.855815 -0.757422,-1.178515 -1.596706,-1.432902 -4.984903,-2.356837 -9.004303,-2.452737 l -0.287109,-0.0082 0.336328,-0.377344 c 0.1806,-0.2107 0.502042,-0.560766 0.723242,-0.784766 1.1431,-1.162 2.205427,-1.922353 3.132227,-2.239453 0.2954,-0.1036 0.355119,-0.114844 0.661719,-0.114844 0.2849,0 0.352581,0.0081 0.475781,0.07109 0.1673,0.0791 0.355272,0.27324 0.451172,0.45664 0.1883,0.3745 0.251628,1.03086 0.161328,1.73086 -0.0301,0.2408 -0.05469,0.519334 -0.05469,0.615234 0,0.1617 0.0053,0.186135 0.09844,0.265235 0.0763,0.0714 0.128254,0.09023 0.226954,0.09023 0.1589,0 0.3059,-0.08481 0.35,-0.199609 0.1309,-0.3388 0.199543,-1.539213 0.114843,-2.045313 -0.1316,-0.777 -0.464712,-1.301759 -0.995312,-1.555859 -0.938,-0.4536 -2.299281,-0.01072 -3.888281,1.263281 -0.8309,0.6671 -1.925088,1.799087 -2.679688,2.767187 l -0.07383,0.0875 -0.445704,0.02461 c -0.3745,0.0217 -0.984177,0.0821 -1.692578,0.166797 l -0.153125,0.01914 -0.06699,-0.37461 c -0.1281,-0.7462 -0.138085,-0.858265 -0.138085,-1.572265 0,-0.6265 0.0082,-0.746747 0.06836,-0.998047 0.1477,-0.6342 0.440081,-1.028256 0.825781,-1.110156 0.5306,-0.112 1.189672,0.153453 2.113672,0.839453 0.2954,0.2219 0.653865,0.03281 0.609765,-0.317188 -0.0189,-0.1526 -0.158506,-0.284528 -0.628906,-0.598828 -0.3941,-0.2653 -0.836456,-0.484225 -1.197656,-0.590625 -0.1778,-0.0532 -0.396835,-0.083 -0.604297,-0.08887 z m 0.70547,5.382617 c 0,0.014 -0.125541,0.2079 -0.281641,0.4375 -0.1561,0.2268 -0.377388,0.560219 -0.492188,0.749219 -0.112,0.1834 -0.221659,0.35011 -0.243359,0.37461 -0.0301,0.0322 -0.07411,-0.05495 -0.207812,-0.48125 -0.1911,-0.588 -0.273329,-0.905123 -0.248829,-0.932423 0.0406,-0.0413 1.473829,-0.188956 1.473829,-0.147656 z m 2.910742,2.108204 c -0.5796,0 -1.05,0.473134 -1.05,1.052734 0,0.5796 0.4704,1.05 1.05,1.05 0.5796,0 1.05,-0.4704 1.05,-1.05 0,-0.5796 -0.4704,-1.052734 -1.05,-1.052734 z"
     id="path4"
     inkscape:connector-curvature="0" />
  <path
     style="opacity:0.2;stroke-width:0.69999999"
     d="M 2.00819,16.65 C 2.00532,16.7669 2,16.8824 2,17 2,24.756 8.244,31 16,31 23.756,31 30,24.756 30,17 30,16.8824 29.9944,16.7669 29.9916,16.65 29.8068,24.2422 23.6384,30.3 16,30.3 8.3616,30.3 2.1932,24.2422 2.0084,16.65 Z"
     id="path8"
     inkscape:connector-curvature="0" />
  <rect
     style="fill:none;fill-opacity:1;stroke:#ffffff;stroke-width:1.33333337;stroke-miterlimit:4;stroke-dasharray:none;stroke-opacity:1"
     width="26.666666"
     height="26.666666"
     x="2.666667"
     y="2.666667"
     rx="13.333333"
     ry="13.333333"
     id="rect2-5"
     transform="matrix(0,1,1,0,0,0)" />
  <path
     style="fill:#ffffff;stroke-width:0.705623"
     d="m 16.139884,4.4365208 -0.217635,0.4646903 -0.487611,0.074462 0.352623,0.3626517 -0.08264,0.5101946 0.43527,-0.2413084 0.435269,0.2413084 -0.08264,-0.5101946 0.352623,-0.3626517 -0.487612,-0.074462 z m -3.636428,3.3838281 c -0.209017,-0.00598 -0.406376,0.012415 -0.537199,0.056537 -0.641774,0.2202711 -1.044381,0.6950333 -1.26724,1.4864576 -0.19253,0.6897595 -0.187219,1.9306395 0.01378,3.0115235 0.03527,0.187796 0.07143,0.358559 0.07989,0.386094 0.01058,0.03884 -0.05763,0.06318 -0.360888,0.132375 -1.4824274,0.338878 -2.5646934,0.843665 -3.2149314,1.500245 -0.291973,0.292284 -0.454421,0.548826 -0.548219,0.871468 -0.06629,0.2238 -0.06629,0.667035 0,0.888011 0.181954,0.607159 0.694536,1.177473 1.504158,1.682263 0.562081,0.347351 0.729909,0.386225 0.911862,0.204077 0.08533,-0.08543 0.104684,-0.126527 0.104684,-0.228898 0,-0.198385 -0.06061,-0.278429 -0.325074,-0.430218 -1.658033,-0.934742 -1.950227,-1.87233 -0.842989,-2.705407 0.562081,-0.422187 1.34713,-0.75577 2.4050004,-1.014874 0.463346,-0.112959 0.567502,-0.126903 0.567502,-0.06619 0,0.08261 0.341604,1.174804 0.517916,1.646411 l 0.181821,0.493647 -0.239673,0.46331 c -0.95843,1.853246 -1.5733614,3.742365 -1.6474134,5.124005 -0.06065,1.064644 0.132279,1.825645 0.6005634,2.297251 0.512008,0.513262 1.234467,0.623353 2.162571,0.325422 0.349802,-0.112961 1.044249,-0.465804 1.449062,-0.74185 0.291972,-0.195563 0.355158,-0.253387 0.393945,-0.355757 0.03879,-0.102369 0.03879,-0.135375 0,-0.242687 -0.05783,-0.160261 -0.177953,-0.249581 -0.34298,-0.249581 -0.107197,0 -0.181557,0.0342 -0.457309,0.222002 -0.625553,0.425012 -1.212429,0.689584 -1.699754,0.772186 -0.674921,0.115784 -1.107633,-0.182014 -1.305808,-0.888013 -0.08533,-0.306402 -0.08003,-1.287719 0.01378,-1.795331 0.143165,-0.807661 0.393814,-1.64641 0.752079,-2.528909 0.212279,-0.523851 0.617178,-1.400987 0.672187,-1.458879 0.0275,-0.03036 0.0633,0.01922 0.154273,0.228897 0.463347,1.042054 1.17115,2.313822 1.862293,3.342462 1.650275,2.452637 3.457117,4.048614 4.848568,4.277359 l -0.01515,0.0028 c 0.611448,0.09884 1.127027,-0.05268 1.526196,-0.452279 0.325119,-0.331114 0.539867,-0.796987 0.661169,-1.445091 0.07405,-0.405245 0.07405,-1.540345 0,-2.094555 -0.225679,-1.652037 -0.825325,-3.545071 -1.725924,-5.431498 -0.140344,-0.295107 -0.220258,-0.368166 -0.402211,-0.368166 -0.203817,-0.0028 -0.369152,0.154612 -0.369152,0.352998 0,0.0692 0.06892,0.256234 0.184576,0.50192 1.110057,2.368625 1.705307,4.66045 1.644656,6.318135 -0.03738,0.987692 -0.283862,1.581756 -0.749324,1.810498 -0.244721,0.120727 -0.553817,0.117559 -0.96145,-0.01517 -1.871018,-0.633986 -4.40532,-3.805419 -6.038671,-7.556389 L 12.50209,15.7739 12.739008,15.369881 c 0.267288,-0.460311 0.942452,-1.488973 1.253466,-1.91116 l 0.209371,-0.281297 h 0.550974 c 3.347804,0 6.661403,0.758067 8.418877,1.919434 0.358266,0.237214 0.790361,0.670413 0.920126,0.923865 0.0938,0.176499 0.10193,0.223405 0.10193,0.457796 0,0.22945 -0.0086,0.284208 -0.0854,0.424701 -0.215101,0.413715 -0.782493,0.843602 -1.512424,1.150005 -0.338517,0.143318 -0.429759,0.237416 -0.429759,0.432978 0,0.165203 0.107771,0.303579 0.269977,0.352999 0.105082,0.03036 0.141611,0.02449 0.329207,-0.04964 1.179172,-0.466666 1.986525,-1.191417 2.151552,-1.924949 0.04654,-0.198385 0.04379,-0.571176 -0.0028,-0.763912 -0.08816,-0.378415 -0.402012,-0.863149 -0.763098,-1.188614 -1.608673,-1.445181 -5.022257,-2.377031 -9.071782,-2.473753 l -0.28926,-0.0083 0.338848,-0.380578 c 0.181953,-0.212506 0.505805,-0.565571 0.728662,-0.79149 1.151667,-1.171958 2.221957,-1.9388255 3.155703,-2.2586434 0.297614,-0.1044879 0.35778,-0.115828 0.666677,-0.115828 0.287036,0 0.355224,0.00816 0.479348,0.071701 0.168554,0.079773 0.357934,0.275581 0.454553,0.4605523 0.189711,0.3777094 0.253514,1.0396931 0.162537,1.7456921 -0.03033,0.242863 -0.0551,0.523784 -0.0551,0.620507 0,0.163085 0.0054,0.187728 0.09918,0.267506 0.07687,0.07201 0.129215,0.091 0.228655,0.091 0.16009,0 0.308191,-0.08554 0.352622,-0.20132 0.131881,-0.341703 0.201039,-1.552401 0.115705,-2.0628377 C 21.384768,9.0926441 21.049159,8.5633881 20.514582,8.3071106 19.569552,7.8496242 18.198069,8.2962996 16.59716,9.5812165 15.760032,10.254033 14.657644,11.395721 13.897388,12.372117 l -0.07438,0.08825 -0.449046,0.02482 c -0.377306,0.02188 -0.991553,0.0828 -1.705263,0.168226 l -0.154273,0.0193 -0.06749,-0.377821 c -0.129059,-0.752593 -0.13912,-0.86562 -0.13912,-1.585738 0,-0.631868 0.0083,-0.7531457 0.06888,-1.0065997 0.148807,-0.6396342 0.44338,-1.0370666 0.83197,-1.1196684 0.534577,-0.1129604 1.198588,0.1547679 2.129514,0.8466465 0.297615,0.2238015 0.658767,0.033091 0.614336,-0.3199054 C 14.933461,8.9557502 14.792808,8.8226911 14.318883,8.5056981 13.921829,8.2381251 13.476156,8.0173239 13.112249,7.9100122 12.933116,7.8563552 12.712441,7.8262932 12.503424,7.8203852 Z m -4.1212834,0.8521617 -0.217634,0.4646904 -0.487611,0.074462 0.352623,0.3626516 -0.08264,0.5101924 0.435269,-0.2413068 0.43527,0.2413068 -0.08264,-0.5101924 0.352623,-0.3626516 -0.487612,-0.074462 z m 16.2206674,2.1179954 -0.217635,0.46469 -0.487612,0.07446 0.352623,0.362652 -0.08264,0.510192 0.435269,-0.241308 0.43527,0.241308 -0.08264,-0.510192 0.352622,-0.362652 -0.487611,-0.07446 z M 13.214212,13.24909 c 0,0.01411 -0.126481,0.209681 -0.283751,0.441248 -0.157269,0.228745 -0.380215,0.56502 -0.495876,0.755639 -0.112839,0.184972 -0.223321,0.35311 -0.245183,0.37782 -0.03033,0.03248 -0.07467,-0.05542 -0.20937,-0.485373 -0.192532,-0.59304 -0.275376,-0.912879 -0.250693,-0.940414 0.0409,-0.04165 1.484873,-0.190575 1.484873,-0.14892 z m 2.932559,2.126269 c -0.583944,0 -1.057869,0.477188 -1.057869,1.061755 0,0.584566 0.473925,1.058997 1.057869,1.058997 0.583945,0 1.05787,-0.474431 1.05787,-1.058997 0,-0.584567 -0.473925,-1.061755 -1.05787,-1.061755 z m -9.7040244,4.240125 -0.272733,0.580519 -0.608826,0.09376 0.440779,0.452279 -0.104684,0.638433 0.545464,-0.30198 0.545464,0.30198 -0.104685,-0.638433 0.440778,-0.452279 -0.608826,-0.09376 z m 18.1600934,0.353 -0.43527,0.92938 -0.975223,0.148923 0.705246,0.723922 -0.166669,1.021768 0.871916,-0.482615 0.871915,0.482615 -0.16667,-1.021768 0.705247,-0.723922 -0.975223,-0.148923 z m -9.168202,4.941989 -0.217635,0.46469 -0.487612,0.07446 0.352623,0.362652 -0.08264,0.510193 0.43527,-0.241308 0.435269,0.241308 -0.08264,-0.510193 0.352623,-0.362652 -0.487611,-0.07446 z"
     id="path1530" />
</svg>
