<?xml version="1.0" encoding="UTF-8" standalone="no"?>
<svg
   width="32"
   height="32"
   version="1"
   id="svg11522"
   sodipodi:docname="audacious.svg"
   inkscape:version="1.2.1 (9c6d41e410, 2022-07-14)"
   xmlns:inkscape="http://www.inkscape.org/namespaces/inkscape"
   xmlns:sodipodi="http://sodipodi.sourceforge.net/DTD/sodipodi-0.dtd"
   xmlns="http://www.w3.org/2000/svg"
   xmlns:svg="http://www.w3.org/2000/svg">
  <defs
     id="defs11526" />
  <sodipodi:namedview
     id="namedview11524"
     pagecolor="#ffffff"
     bordercolor="#000000"
     borderopacity="0.25"
     inkscape:showpageshadow="2"
     inkscape:pageopacity="0.0"
     inkscape:pagecheckerboard="0"
     inkscape:deskcolor="#d1d1d1"
     showgrid="false"
     inkscape:zoom="20.85965"
     inkscape:cx="4.7699746"
     inkscape:cy="18.528595"
     inkscape:current-layer="svg11522" />
  <path
     fill="#4f4f4f"
     d="m31 16a15 15 0 0 1 -15 15 15 15 0 0 1 -15 -15 15 15 0 0 1 15 -15 15 15 0 0 1 15 15z"
     id="path11512" />
  <path
     opacity=".2"
     d="m16.661 10.003c-0.2134-0.00828-0.43115 0.0044-0.65606 0.01504-1.3355 0.06309-3.6984 0.0112-4.62 1.1953-0.56317 0.72352-0.30087 2.4067 0.56214 2.5815 1.0751 0.21776 2.8927-0.32213 4.0579-0.18944 0.8124 0.09252 1.0497 0.80369 0.38811 1.2975-0.70052 0.52284-2.2909 0.36434-3.0938 0.62695-2.7759 0.9079-3.7735 2.8315-3.0938 5.4381 0.4432 1.6997 2.0123 2.9609 3.7236 3.0325 3.2921-0.008 2.6779-1.816 4.272-0.87502 0.52458 0.65908 1.5819 0.87056 2.1298 0.40744 0.88079-0.74458 2.209-1.1433 1.2721-2.6672-0.44867-0.72974 0.59725-1.6758 0.36187-5.3073-0.20882-3.2215-2.1026-5.4317-5.3037-5.5553zm-0.42816 7.7865c0.74145-0.000001 1.3259 0.56422 1.3259 1.2674 0 0.70321-0.58447 1.284-1.3259 1.284-0.74145 0-1.3535-0.58076-1.3535-1.284 0-0.70321 0.6121-1.2674 1.3535-1.2674z"
     id="path11514" />
  <path
     fill="#fff"
     d="m16.661 9.0027c-0.2134-0.00828-0.43115 0.00444-0.65606 0.015038-1.3355 0.063094-3.6984 0.0112-4.62 1.1953-0.56317 0.72352-0.30087 2.4067 0.56214 2.5815 1.0751 0.21776 2.8927-0.32213 4.0579-0.18944 0.8124 0.09252 1.0497 0.80369 0.38811 1.2975-0.70052 0.52284-2.2909 0.36434-3.0938 0.62695-2.7759 0.9079-3.7735 2.8315-3.0938 5.4381 0.4432 1.6997 2.0123 2.9609 3.7236 3.0325 3.2921-0.008 2.6779-1.816 4.272-0.87502 0.52458 0.65908 1.5819 0.87056 2.1298 0.40744 0.88079-0.74458 2.209-1.1433 1.2721-2.6672-0.44867-0.72974 0.59725-1.6758 0.36187-5.3073-0.20882-3.2215-2.1026-5.4317-5.3037-5.5553zm-0.42816 7.7865c0.74145-0.000001 1.3259 0.56422 1.3259 1.2674 0 0.70321-0.58447 1.284-1.3259 1.284-0.74145 0-1.3535-0.58076-1.3535-1.284 0-0.70321 0.6121-1.2674 1.3535-1.2674z"
     id="path11516"
     style="fill:#ff7f2a" />
  <path
     fill="#fff"
     opacity=".1"
     d="m16 1a15 15 0 0 0 -15 15 15 15 0 0 0 0.0195 0.586 15 15 0 0 1 14.98 -14.586 15 15 0 0 1 14.98 14.414 15 15 0 0 0 0.02 -0.414 15 15 0 0 0 -15 -15z"
     id="path11518" />
  <path
     opacity=".2"
     d="m30.98 16.414a15 15 0 0 1 -14.98 14.586 15 15 0 0 1 -14.98 -14.414 15 15 0 0 0 -0.02 0.414 15 15 0 0 0 15 15 15 15 0 0 0 15 -15 15 15 0 0 0 -0.02 -0.586z"
     id="path11520" />
</svg>
