<?xml version="1.0" encoding="UTF-8" standalone="no"?>
<svg
   width="48"
   height="48"
   version="1.1"
   id="svg18"
   sodipodi:docname="bingwall.svg"
   inkscape:version="1.2.1 (9c6d41e410, 2022-07-14)"
   xmlns:inkscape="http://www.inkscape.org/namespaces/inkscape"
   xmlns:sodipodi="http://sodipodi.sourceforge.net/DTD/sodipodi-0.dtd"
   xmlns:xlink="http://www.w3.org/1999/xlink"
   xmlns="http://www.w3.org/2000/svg"
   xmlns:svg="http://www.w3.org/2000/svg">
  <defs
     id="defs22">
    <linearGradient
       inkscape:collect="always"
       id="linearGradient1667">
      <stop
         style="stop-color:#453eff;stop-opacity:1;"
         offset="0"
         id="stop1663" />
      <stop
         style="stop-color:#640f89;stop-opacity:1;"
         offset="0.78734469"
         id="stop1665" />
    </linearGradient>
    <linearGradient
       inkscape:collect="always"
       xlink:href="#linearGradient1667"
       id="linearGradient1638"
       gradientUnits="userSpaceOnUse"
       x1="1"
       y1="11.25"
       x2="21"
       y2="11.25"
       gradientTransform="matrix(2,0,0,2,1.999,2.004)" />
  </defs>
  <sodipodi:namedview
     id="namedview20"
     pagecolor="#ffffff"
     bordercolor="#000000"
     borderopacity="0.25"
     inkscape:showpageshadow="2"
     inkscape:pageopacity="0.0"
     inkscape:pagecheckerboard="0"
     inkscape:deskcolor="#d1d1d1"
     showgrid="false"
     inkscape:zoom="15.129139"
     inkscape:cx="19.862333"
     inkscape:cy="26.60429"
     inkscape:current-layer="svg18" />
  <circle
     cx="23.999001"
     cy="25.004"
     r="20"
     style="opacity:0.2;fill:#000000;fill-opacity:1;stroke-width:2"
     id="circle2" />
  <circle
     cx="23.999001"
     cy="24.004"
     r="20"
     style="fill:url(#linearGradient1638);fill-opacity:1;stroke-width:2"
     id="circle4" />
  <path
     d="m 23.999,4.004 a 20,20 0 0 0 -20,20 20,20 0 0 0 0.0196,0.586 20,20 0 0 1 19.9804,-19.586 20,20 0 0 1 19.98,19.414 20,20 0 0 0 0.02,-0.414 20,20 0 0 0 -20,-20 z"
     style="opacity:0.2;fill:#ffffff;fill-opacity:1;stroke-width:2"
     id="path6" />
  <g
     id="g1677"
     transform="translate(46.134468,-1.7954869)">
    <circle
       cx="-30.131561"
       cy="18.299486"
       r="3"
       style="opacity:0.1;fill:#000000;fill-opacity:1;stroke-width:2"
       id="circle8" />
    <circle
       cx="-30.131561"
       cy="17.299486"
       r="3"
       style="fill:#f2f2f2;fill-opacity:1;stroke-width:2"
       id="circle10" />
    <path
       d="m -19.100311,19.236987 -4.167968,7.253906 -2.867188,-5.296875 -8.671875,16.105469 h 25.343749 z m -0.0625,4.125 6.363282,11.9375 h -5.69922 l -3.648436,-6.742188 z m -6.96875,2.039062 5.359376,9.898438 h -10.687501 z"
       style="opacity:0.1;fill:#000000;fill-opacity:1;stroke-width:2"
       id="path12" />
    <path
       d="m -19.100311,18.236987 -4.167968,7.253906 -2.867188,-5.296875 -8.671875,16.105469 h 25.343749 z m -0.0625,4.125 6.363282,11.9375 h -5.69922 l -3.648436,-6.742188 z m -6.96875,2.039062 5.359376,9.898438 h -10.687501 z"
       style="fill:#f2f2f2;fill-opacity:1;stroke-width:2"
       id="path14" />
  </g>
</svg>
