<?xml version="1.0" encoding="UTF-8" standalone="no"?>
<svg
   width="32"
   height="32"
   version="1"
   id="svg24"
   sodipodi:docname="bluefish.svg"
   inkscape:version="1.2.1 (9c6d41e410, 2022-07-14)"
   xmlns:inkscape="http://www.inkscape.org/namespaces/inkscape"
   xmlns:sodipodi="http://sodipodi.sourceforge.net/DTD/sodipodi-0.dtd"
   xmlns="http://www.w3.org/2000/svg"
   xmlns:svg="http://www.w3.org/2000/svg">
  <defs
     id="defs28" />
  <sodipodi:namedview
     id="namedview26"
     pagecolor="#ffffff"
     bordercolor="#000000"
     borderopacity="0.25"
     inkscape:showpageshadow="2"
     inkscape:pageopacity="0.0"
     inkscape:pagecheckerboard="0"
     inkscape:deskcolor="#d1d1d1"
     showgrid="false"
     inkscape:zoom="32.09375"
     inkscape:cx="14.613437"
     inkscape:cy="16.031159"
     inkscape:current-layer="svg24" />
  <g
     id="g877">
    <path
       fill="#3780c9"
       d="M 11.630116,7.0062206 C 8.8396972,7.1094149 5.8855975,8.5935552 3.3431164,12.638257 c -0.4869943,0.775568 -1.3487386,2.173956 -1.3433456,3.40669 0.00532,1.205733 0.8560851,2.542867 1.3433456,3.318759 6.2584636,9.955829 15.0107316,4.393003 17.6806136,0.924573 0.553335,-0.718976 1.545127,-1.019343 2.265337,-0.611723 l 5.882145,3.32407 c 0.72007,0.406855 1.029641,-0.004 0.69218,-0.917553 L 27.219144,16.044956 29.863392,9.918998 C 30.20086,9.0054054 29.89131,8.5945542 29.171212,9.0014454 L 23.289067,12.325515 C 22.568927,12.73318 21.577107,12.432777 21.02373,11.713792 19.4384,9.6544063 15.70834,6.8555782 11.630116,7.0063286 Z"
       id="path2"
       style="stroke-width:0.793947;fill:#2070e0;fill-opacity:1" />
    <circle
       opacity=".2"
       cx="7.5"
       cy="13.5"
       r="1.5"
       id="circle8" />
    <circle
       fill="#fff"
       cx="7.5"
       cy="12.5"
       r="1.5"
       id="circle10" />
    <g
       fill="#fff"
       transform="matrix(.062585 0 0 .080422 1.985 -3.4694)"
       id="g16">
      <g
         id="g14">
        <path
           opacity=".2"
           transform="matrix(15.978 0 0 12.434 -31.716 43.14)"
           d="m11.631 7.0059c-2.7905 0.1032-5.7448 1.5882-8.2872 5.6331-0.487 0.775-1.3492 2.173-1.3438 3.406 0.0007 0.161 0.0189 0.324 0.0469 0.488 0.1796-1.091 0.8763-2.225 1.2969-2.894 2.5424-4.0449 5.4967-5.5299 8.2872-5.6331 4.078-0.1509 7.807 2.6481 9.392 4.7071 0.554 0.719 1.546 1.019 2.266 0.611l5.883-3.324c0.32-0.181 0.552-0.1911 0.689-0.0762l0.002-0.0058c0.338-0.9136 0.029-1.3249-0.691-0.918l-5.883 3.324c-0.72 0.408-1.712 0.108-2.266-0.611-1.585-2.0594-5.314-4.858-9.392-4.7071zm15.805 9.5351l-0.217 0.504 2.642 6.033c0.172-0.143 0.19-0.488 0.002-0.996l-2.427-5.541z"
           id="path12" />
      </g>
    </g>
    <g
       transform="matrix(.062585 0 0 .080422 1.985 -2.4682)"
       id="g22">
      <g
         id="g20">
        <path
           opacity=".2"
           transform="matrix(15.978,0,0,12.434,-31.716,43.14)"
           d="m29.861 8.9238-2.642 6.1212 0.217 0.496 2.427-5.623c0.188-0.5071 0.169-0.8507-0.002-0.9942zm-27.814 6.6092c-0.0284 0.172-0.0476 0.344-0.0469 0.512 0.0053 1.206 0.8565 2.542 1.3438 3.318 6.2583 9.956 15.009 4.392 17.679 0.924 0.554-0.719 1.546-1.019 2.266-0.611l5.883 3.324c0.72 0.407 1.029-0.004 0.691-0.918l-0.002-0.004c-0.137 0.115-0.369 0.103-0.689-0.078l-5.883-3.324c-0.72-0.408-1.712-0.108-2.266 0.611-2.67 3.468-11.421 9.032-17.679-0.924-0.4224-0.672-1.1156-1.765-1.2971-2.83z"
           id="path18" />
      </g>
    </g>
  </g>
</svg>
