<?xml version="1.0" encoding="UTF-8" standalone="no"?>
<svg
   width="32"
   height="32"
   version="1"
   id="svg22"
   sodipodi:docname="bluejeans.svg"
   inkscape:version="1.2.1 (9c6d41e410, 2022-07-14)"
   xmlns:inkscape="http://www.inkscape.org/namespaces/inkscape"
   xmlns:sodipodi="http://sodipodi.sourceforge.net/DTD/sodipodi-0.dtd"
   xmlns="http://www.w3.org/2000/svg"
   xmlns:svg="http://www.w3.org/2000/svg">
  <defs
     id="defs26" />
  <sodipodi:namedview
     id="namedview24"
     pagecolor="#ffffff"
     bordercolor="#000000"
     borderopacity="0.25"
     inkscape:showpageshadow="2"
     inkscape:pageopacity="0.0"
     inkscape:pagecheckerboard="0"
     inkscape:deskcolor="#d1d1d1"
     showgrid="false"
     inkscape:zoom="16.046875"
     inkscape:cx="10.251217"
     inkscape:cy="17.666991"
     inkscape:current-layer="svg22" />
  <g
     id="g265"
     transform="matrix(0.92053446,0,0,0.92053446,0.81118141,0.81118141)">
    <rect
       style="opacity:0.2"
       width="26"
       height="26"
       x="1"
       y="4"
       rx="3.059"
       ry="3.059"
       id="rect2" />
    <path
       style="opacity:0.2"
       d="M 27,9.9285709 32,5.9999995 V 28 l -5,-3.928571 z"
       id="path4" />
    <rect
       style="fill:#1c6bdd"
       width="26"
       height="26"
       x="1"
       y="3"
       rx="3.059"
       ry="3.059"
       id="rect6" />
    <rect
       style="fill:none"
       width="24.799999"
       height="24.799999"
       x="4.0999999"
       y="3.4200001"
       id="rect8" />
    <path
       style="fill:#1f56a8"
       d="M 27,8.9285714 32,5 v 22 l -5,-3.928571 z"
       id="path10" />
    <path
       style="opacity:0.2"
       d="m 7,8 v 7 3 7 h 9.333984 C 18.911313,25 21,22.549006 21,20 21,18.702939 20.454974,17.436287 19.583984,16.5 20.454974,15.563713 21,14.297061 21,13 21,10.450994 18.911313,8 16.333984,8 Z m 3,3 h 6.333984 C 17.229944,11 18,12.113886 18,13 c 0,0.886114 -0.770122,2.010881 -1.666016,2 H 10 Z m 0,7 h 6.333984 C 17.229944,18 18,19.113886 18,20 c 0,0.886114 -0.770122,2.010881 -1.666016,2 H 10 Z"
       id="path12" />
    <path
       style="fill:#ffffff"
       d="m 7,14 v 10 h 9.333333 C 18.910662,24 21,21.549006 21,19 21,16.450994 18.910662,14 16.333333,14 Z m 3,3 h 6.333333 C 17.229293,17 18,18.113886 18,19 c 0,0.886114 -0.770773,2.010881 -1.666667,2 H 10 Z"
       id="path14" />
    <path
       style="fill:#ffffff"
       d="m 7,7 v 10 h 9.333333 C 18.910662,17 21,14.549006 21,12 21,9.450994 18.910662,7 16.333333,7 Z m 3,3 h 6.333333 C 17.229293,10 18,11.113886 18,12 c 0,0.886114 -0.770773,2.010881 -1.666667,2 H 10 Z"
       id="path16" />
    <path
       style="opacity:0.1;fill:#ffffff"
       d="M 4.0585938,3 C 2.3640056,3 1,4.3640056 1,6.0585938 v 1 C 1,5.3640056 2.3640056,4 4.0585938,4 H 23.941406 C 25.635994,4 27,5.3640056 27,7.0585938 v -1 C 27,4.3640056 25.635994,3 23.941406,3 Z"
       id="path18" />
    <path
       style="opacity:0.1;fill:#ffffff"
       d="m 32,5.0007812 -5,3.9277344 v 1 l 5,-3.9277344 z"
       id="path20" />
  </g>
</svg>
