<?xml version="1.0" encoding="UTF-8" standalone="no"?>
<svg
   width="32"
   height="32"
   version="1"
   id="svg264"
   sodipodi:docname="box.svg"
   inkscape:version="1.2.1 (9c6d41e410, 2022-07-14)"
   xmlns:inkscape="http://www.inkscape.org/namespaces/inkscape"
   xmlns:sodipodi="http://sodipodi.sourceforge.net/DTD/sodipodi-0.dtd"
   xmlns="http://www.w3.org/2000/svg"
   xmlns:svg="http://www.w3.org/2000/svg">
  <defs
     id="defs268" />
  <sodipodi:namedview
     id="namedview266"
     pagecolor="#ffffff"
     bordercolor="#000000"
     borderopacity="0.25"
     inkscape:showpageshadow="2"
     inkscape:pageopacity="0.0"
     inkscape:pagecheckerboard="0"
     inkscape:deskcolor="#d1d1d1"
     showgrid="false"
     inkscape:zoom="22.693708"
     inkscape:cx="11.523018"
     inkscape:cy="19.586927"
     inkscape:current-layer="svg264" />
  <rect
     fill="#1b9bc9"
     width="28"
     height="28"
     x="2.0002"
     y="2"
     rx="1.4"
     ry="1.4"
     id="rect238"
     style="fill:#257dde;fill-opacity:1" />
  <path
     fill="#fff"
     opacity=".2"
     d="m3.4004 2c-0.7756 0-1.4004 0.6248-1.4004 1.4004v1c0-0.7756 0.6248-1.4004 1.4004-1.4004h25.2c0.775 0 1.4 0.6248 1.4 1.4004v-1c0-0.7756-0.625-1.4004-1.4-1.4004h-25.2z"
     id="path260" />
  <path
     opacity=".2"
     d="m2 28.6v1c0 0.775 0.6248 1.4 1.4004 1.4h25.2c0.775 0 1.4-0.625 1.4-1.4v-1c0 0.775-0.625 1.4-1.4 1.4h-25.2c-0.7752 0-1.4-0.625-1.4-1.4z"
     id="path262" />
  <g
     id="g1051"
     transform="translate(-0.11830574,-0.72176241)">
    <path
       d="m 26.585715,20.813548 c 0.249668,0.349535 0.199734,0.798939 -0.09986,1.048607 -0.349541,0.249668 -0.848878,0.199735 -1.098546,-0.09986 l -1.747678,-2.247019 -1.697746,2.197082 c -0.249668,0.349535 -0.749005,0.349535 -1.09854,0.09986 -0.349535,-0.249667 -0.39947,-0.699071 -0.1498,-1.048606 l 1.997346,-2.596551 -1.997346,-2.596551 c -0.24967,-0.349535 -0.149802,-0.848872 0.1498,-1.09854 0.349535,-0.249668 0.848872,-0.149801 1.09854,0.1498 l 1.697746,2.247015 1.747678,-2.147147 c 0.249668,-0.349535 0.699071,-0.399469 1.098541,-0.149801 0.349535,0.249668 0.349535,0.749005 0.09986,1.098541 l -1.947408,2.546616 z m -9.087928,-0.299602 c -1.298275,0 -2.346881,-0.998673 -2.346881,-2.296949 0,-1.248341 1.048606,-2.296948 2.346881,-2.296948 1.298276,0 2.346883,1.048607 2.346883,2.296948 -0.04993,1.298276 -1.09854,2.296949 -2.346883,2.296949 z m -6.890846,0 c -1.2982755,0 -2.3468825,-0.998673 -2.3468825,-2.296949 0,-1.248341 1.048607,-2.296948 2.3468825,-2.296948 1.298275,0 2.346883,1.048607 2.346883,2.296948 0,1.298276 -1.048608,2.296949 -2.346883,2.296949 z m 6.890846,-6.091907 c -1.448076,0 -2.746351,0.798939 -3.395489,1.997347 -0.649137,-1.198408 -1.947412,-1.997347 -3.445422,-1.997347 -0.8988085,0 -1.6977465,0.299602 -2.3468845,0.749005 v -3.195755 c 0,-0.39947 -0.349535,-0.749006 -0.749004,-0.749006 -0.449403,0 -0.798939,0.349536 -0.798939,0.749006 v 6.291642 c 0.04993,2.097214 1.747678,3.745025 3.8448935,3.745025 1.498009,0 2.796285,-0.848873 3.445422,-2.04728 0.649138,1.198407 1.947414,2.04728 3.395491,2.04728 2.147146,0 3.894825,-1.697745 3.894825,-3.844893 0.04993,-2.04728 -1.697745,-3.745024 -3.844893,-3.745024 z"
       fill="#0071f7"
       id="path2-3"
       style="opacity:0.2;fill:#000000;stroke-width:0.499337" />
    <path
       d="m 25.823665,20.1894 c 0.249668,0.349535 0.199734,0.798939 -0.09986,1.048607 -0.349541,0.249668 -0.848878,0.199735 -1.098546,-0.09986 l -1.747678,-2.247019 -1.697746,2.197082 c -0.249668,0.349535 -0.749005,0.349535 -1.09854,0.09986 -0.349535,-0.249667 -0.39947,-0.699071 -0.1498,-1.048606 l 1.997346,-2.596551 -1.997346,-2.596551 c -0.24967,-0.349535 -0.149802,-0.848872 0.1498,-1.09854 0.349535,-0.249668 0.848872,-0.149801 1.09854,0.1498 l 1.697746,2.247015 1.747678,-2.147147 c 0.249668,-0.349535 0.699071,-0.399469 1.098541,-0.149801 0.349535,0.249668 0.349535,0.749005 0.09986,1.098541 l -1.947408,2.546616 z m -9.087928,-0.299602 c -1.298275,0 -2.346881,-0.998673 -2.346881,-2.296949 0,-1.248341 1.048606,-2.296948 2.346881,-2.296948 1.298276,0 2.346883,1.048607 2.346883,2.296948 -0.04993,1.298276 -1.09854,2.296949 -2.346883,2.296949 z m -6.8908458,0 c -1.2982753,0 -2.3468823,-0.998673 -2.3468823,-2.296949 0,-1.248341 1.048607,-2.296948 2.3468823,-2.296948 1.2982748,0 2.3468828,1.048607 2.3468828,2.296948 0,1.298276 -1.048608,2.296949 -2.3468828,2.296949 z m 6.8908458,-6.091907 c -1.448076,0 -2.746351,0.798939 -3.395489,1.997347 -0.649137,-1.198408 -1.947412,-1.997347 -3.4454228,-1.997347 -0.8988073,0 -1.6977453,0.299602 -2.3468833,0.749005 v -3.195755 c 0,-0.39947 -0.349535,-0.749006 -0.7490047,-0.749006 -0.4494029,0 -0.7989387,0.349536 -0.7989387,0.749006 v 6.291642 c 0.049934,2.097214 1.7476784,3.745025 3.8448927,3.745025 1.4980098,0 2.7962858,-0.848873 3.4454228,-2.04728 0.649138,1.198407 1.947414,2.04728 3.395491,2.04728 2.147146,0 3.894825,-1.697745 3.894825,-3.844893 0.04993,-2.04728 -1.697745,-3.745024 -3.844893,-3.745024 z"
       fill="#0071f7"
       id="path2"
       style="fill:#ffffff;stroke-width:0.499337" />
  </g>
</svg>
