<?xml version="1.0" encoding="UTF-8" standalone="no"?>
<svg
   width="32"
   height="32"
   version="1"
   id="svg44"
   sodipodi:docname="carla-control.svg"
   inkscape:version="1.2.1 (9c6d41e410, 2022-07-14)"
   xmlns:inkscape="http://www.inkscape.org/namespaces/inkscape"
   xmlns:sodipodi="http://sodipodi.sourceforge.net/DTD/sodipodi-0.dtd"
   xmlns="http://www.w3.org/2000/svg"
   xmlns:svg="http://www.w3.org/2000/svg">
  <defs
     id="defs48" />
  <sodipodi:namedview
     id="namedview46"
     pagecolor="#ffffff"
     bordercolor="#000000"
     borderopacity="0.25"
     inkscape:showpageshadow="2"
     inkscape:pageopacity="0.0"
     inkscape:pagecheckerboard="0"
     inkscape:deskcolor="#d1d1d1"
     showgrid="false"
     inkscape:zoom="32.09375"
     inkscape:cx="14.613437"
     inkscape:cy="16.031159"
     inkscape:current-layer="svg44" />
  <rect
     style="opacity:0.2"
     width="28"
     height="28"
     x="-31"
     y="-30"
     rx="1.4"
     ry="1.4"
     transform="matrix(0,-1,-1,0,0,0)"
     id="rect2" />
  <rect
     style="fill:#4d4d4d"
     width="28"
     height="28"
     x="-30"
     y="-30"
     rx="1.4"
     ry="1.4"
     transform="matrix(0,-1,-1,0,0,0)"
     id="rect4" />
  <rect
     style="opacity:0.2"
     width="8"
     height="11"
     x="19"
     y="4"
     id="rect6" />
  <path
     style="opacity:0.2"
     d="M 30,28.6 V 16 H 2 V 28.6 C 2,29.3756 2.6244,30 3.4,30 h 25.2 c 0.7756,0 1.4,-0.6244 1.4,-1.4 z"
     id="path8" />
  <circle
     style="opacity:0.2"
     cx="9"
     cy="10"
     r="4"
     id="circle10" />
  <circle
     style="fill:#bbbbbb"
     cx="9"
     cy="9"
     r="4"
     id="circle12" />
  <rect
     style="fill:#3fea3f"
     width="4"
     height="2"
     x="19"
     y="4"
     id="rect14" />
  <rect
     style="fill:#3fea3f"
     width="6"
     height="2"
     x="19"
     y="7"
     id="rect16" />
  <rect
     style="fill:#00ffed"
     width="3"
     height="2"
     x="19"
     y="10"
     id="rect18" />
  <rect
     style="fill:#00ffed"
     width="7"
     height="2"
     x="19"
     y="13"
     id="rect20" />
  <path
     style="opacity:0.2;fill:#ffffff"
     d="M 9 5 A 4 4 0 0 0 5 9 A 4 4 0 0 0 5.0351562 9.4941406 A 4 4 0 0 1 9 6 A 4 4 0 0 1 12.964844 9.5058594 A 4 4 0 0 0 13 9 A 4 4 0 0 0 9 5 z"
     id="path22" />
  <path
     style="fill:#ffffff;opacity:0.1"
     d="M 3.4003906 2 C 2.6247906 2 2 2.6247906 2 3.4003906 L 2 4.4003906 C 2 3.6247906 2.6247906 3 3.4003906 3 L 28.599609 3 C 29.375209 3 30 3.6247906 30 4.4003906 L 30 3.4003906 C 30 2.6247906 29.375209 2 28.599609 2 L 3.4003906 2 z"
     id="path24" />
  <rect
     style="opacity:0.2"
     width="28"
     height="1"
     x="2"
     y="16"
     id="rect26" />
  <rect
     style="opacity:0.2"
     width="8"
     height="11"
     x="19"
     y="18"
     id="rect28" />
  <circle
     style="opacity:0.2"
     cx="9"
     cy="24"
     r="4"
     id="circle30" />
  <circle
     style="fill:#bbbbbb"
     cx="9"
     cy="23"
     r="4"
     id="circle32" />
  <rect
     style="fill:#3fea3f"
     width="4"
     height="2"
     x="19"
     y="18"
     id="rect34" />
  <rect
     style="fill:#3fea3f"
     width="6"
     height="2"
     x="19"
     y="21"
     id="rect36" />
  <rect
     style="fill:#00ffed"
     width="3"
     height="2"
     x="19"
     y="24"
     id="rect38" />
  <rect
     style="fill:#00ffed"
     width="7"
     height="2"
     x="19"
     y="27"
     id="rect40" />
  <path
     style="opacity:0.2;fill:#ffffff"
     d="M 9,19 A 4,4 0 0 0 5,23 4,4 0 0 0 5.0351562,23.494141 4,4 0 0 1 9,20 4,4 0 0 1 12.964844,23.505859 4,4 0 0 0 13,23 4,4 0 0 0 9,19 Z"
     id="path42" />
</svg>
