<?xml version="1.0" encoding="UTF-8" standalone="no"?>
<svg
   xmlns:dc="http://purl.org/dc/elements/1.1/"
   xmlns:cc="http://creativecommons.org/ns#"
   xmlns:rdf="http://www.w3.org/1999/02/22-rdf-syntax-ns#"
   xmlns:svg="http://www.w3.org/2000/svg"
   xmlns="http://www.w3.org/2000/svg"
   xmlns:xlink="http://www.w3.org/1999/xlink"
   xmlns:sodipodi="http://sodipodi.sourceforge.net/DTD/sodipodi-0.dtd"
   xmlns:inkscape="http://www.inkscape.org/namespaces/inkscape"
   inkscape:version="1.0 (4035a4fb49, 2020-05-01)"
   sodipodi:docname="com.github.artemanufrij.webpin.svg"
   id="svg12"
   version="1"
   height="32"
   width="32">
  <metadata
     id="metadata18">
    <rdf:RDF>
      <cc:Work
         rdf:about="">
        <dc:format>image/svg+xml</dc:format>
        <dc:type
           rdf:resource="http://purl.org/dc/dcmitype/StillImage" />
        <dc:title />
      </cc:Work>
    </rdf:RDF>
  </metadata>
  <defs
     id="defs16">
    <linearGradient
       id="linearGradient832"
       inkscape:collect="always">
      <stop
         id="stop828"
         offset="0"
         style="stop-color:#0e69d7;stop-opacity:1" />
      <stop
         id="stop830"
         offset="1"
         style="stop-color:#4f99f3;stop-opacity:1" />
    </linearGradient>
    <linearGradient
       gradientTransform="matrix(0.63636364,0,0,0.60666668,0.7272727,1.34)"
       gradientUnits="userSpaceOnUse"
       y2="9"
       x2="24"
       y1="38.298859"
       x1="24.372881"
       id="linearGradient834"
       xlink:href="#linearGradient832"
       inkscape:collect="always" />
    <filter
       height="1.2418843"
       y="-0.12094216"
       width="1.19512"
       x="-0.097559995"
       id="filter1653"
       style="color-interpolation-filters:sRGB"
       inkscape:collect="always">
      <feGaussianBlur
         id="feGaussianBlur1655"
         stdDeviation="0.67257268"
         inkscape:collect="always" />
    </filter>
  </defs>
  <sodipodi:namedview
     inkscape:document-rotation="0"
     inkscape:current-layer="svg12"
     inkscape:window-maximized="1"
     inkscape:window-y="0"
     inkscape:window-x="0"
     inkscape:cy="14.166489"
     inkscape:cx="9.0389111"
     inkscape:zoom="19.666667"
     showgrid="false"
     id="namedview14"
     inkscape:window-height="1003"
     inkscape:window-width="1920"
     inkscape:pageshadow="2"
     inkscape:pageopacity="0"
     guidetolerance="10"
     gridtolerance="10"
     objecttolerance="10"
     borderopacity="1"
     bordercolor="#666666"
     pagecolor="#ffffff" />
  <path
     style="opacity:0.2;stroke-width:0.62133771"
     inkscape:connector-curvature="0"
     id="path2"
     d="M 2.0148909,18.564587 C 2.0096091,18.670754 2,18.7751 2,18.88248 2,22.537647 5.1340275,25.5 9,25.5 H 23.875 C 27.257909,25.5 30,22.907713 30,19.709367 30,19.604413 29.9911,19.50128 29.98536,19.39754 c -0.164183,3.060027 -2.833093,5.495793 -6.110365,5.495793 H 9 c -3.7627545,0 -6.8237273,-2.808866 -6.9853636,-6.328746 z" />
  <path
     inkscape:connector-curvature="0"
     id="path4"
     d="M 16,6.8 C 12.375909,6.8 9.289545,8.8978545 7.9608178,11.866881 4.5872636,12.341294 2,15.060373 2,18.381874 2,22.03704 5.1340275,25 9,25 H 23.875 C 27.257909,25 30,22.407107 30,19.209367 30,16.236701 27.635909,13.800934 24.585818,13.469694 23.790364,9.6756007 20.247091,6.8 16,6.8 Z"
     style="fill:url(#linearGradient834);fill-opacity:1;stroke-width:0.62133771" />
  <path
     style="fill:none;stroke:#000000;stroke-width:2.48535;stroke-linecap:round;stroke-linejoin:round;stroke-opacity:1;filter:url(#filter1653);opacity:0.5"
     d="M 7.7272728,10.242675 11.545454,23.58934 15.999999,13.587835 20.454545,23.58934 24.272727,10.242675"
     id="path10-9"
     inkscape:connector-curvature="0" />
  <path
     inkscape:connector-curvature="0"
     id="path10"
     d="M 7.7272726,9.2351292 11.545454,22.581795 15.999999,12.580289 20.454545,22.581795 24.272727,9.2351292"
     style="fill:none;stroke:#ffffff;stroke-width:2.48535085;stroke-linecap:round;stroke-linejoin:round;stroke-opacity:1" />
</svg>
