<?xml version="1.0" encoding="UTF-8" standalone="no"?>
<svg
   xmlns:dc="http://purl.org/dc/elements/1.1/"
   xmlns:cc="http://creativecommons.org/ns#"
   xmlns:rdf="http://www.w3.org/1999/02/22-rdf-syntax-ns#"
   xmlns:svg="http://www.w3.org/2000/svg"
   xmlns="http://www.w3.org/2000/svg"
   xmlns:xlink="http://www.w3.org/1999/xlink"
   xmlns:sodipodi="http://sodipodi.sourceforge.net/DTD/sodipodi-0.dtd"
   xmlns:inkscape="http://www.inkscape.org/namespaces/inkscape"
   id="svg4569"
   height="32"
   width="32"
   version="1.0"
   sodipodi:docname="cs-login.svg"
   inkscape:version="0.92.3 (2405546, 2018-03-11)">
  <sodipodi:namedview
     pagecolor="#ffffff"
     bordercolor="#666666"
     borderopacity="1"
     objecttolerance="10"
     gridtolerance="10"
     guidetolerance="10"
     inkscape:pageopacity="0"
     inkscape:pageshadow="2"
     inkscape:window-width="1366"
     inkscape:window-height="704"
     id="namedview45"
     showgrid="false"
     inkscape:zoom="17.812499"
     inkscape:cx="7.0501803"
     inkscape:cy="17.821165"
     inkscape:window-x="0"
     inkscape:window-y="30"
     inkscape:window-maximized="1"
     inkscape:current-layer="svg4569" />
  <metadata
     id="metadata46">
    <rdf:RDF>
      <cc:Work
         rdf:about="">
        <dc:format>image/svg+xml</dc:format>
        <dc:type
           rdf:resource="http://purl.org/dc/dcmitype/StillImage" />
        <dc:title></dc:title>
      </cc:Work>
    </rdf:RDF>
  </metadata>
  <defs
     id="defs4571">
    <linearGradient
       id="linearGradient3912">
      <stop
         offset="0"
         style="stop-color:#787878;stop-opacity:1"
         id="stop3914" />
      <stop
         offset="0.35046947"
         style="stop-color:#b4b4b4;stop-opacity:1"
         id="stop3916" />
      <stop
         offset="0.49417919"
         style="stop-color:#c8c8c8;stop-opacity:1"
         id="stop3918" />
      <stop
         offset="0.58907253"
         style="stop-color:#e6e6e6;stop-opacity:1"
         id="stop3920" />
      <stop
         offset="1"
         style="stop-color:#8c8c8c;stop-opacity:1"
         id="stop3922" />
    </linearGradient>
    <linearGradient
       id="linearGradient6592-2-7">
      <stop
         offset="0"
         style="stop-color:#ffffff;stop-opacity:0.27450982"
         id="stop6594-0-2" />
      <stop
         offset="1"
         style="stop-color:#ffffff;stop-opacity:0"
         id="stop6596-2-5" />
    </linearGradient>
    <linearGradient
       id="linearGradient10691-1">
      <stop
         offset="0"
         style="stop-color:#000000;stop-opacity:1"
         id="stop10693-3" />
      <stop
         offset="1"
         style="stop-color:#000000;stop-opacity:0"
         id="stop10695-1" />
    </linearGradient>
    <linearGradient
       gradientTransform="matrix(0.5959409,0,0,0.56726725,-197.43503,-25.182382)"
       gradientUnits="userSpaceOnUse"
       xlink:href="#linearGradient3912"
       id="linearGradient3221"
       y2="94.396416"
       x2="361.10583"
       y1="87.050117"
       x1="361.10583" />
    <radialGradient
       gradientTransform="matrix(19.609558,0,0,4.1283273,124.56278,120.73303)"
       gradientUnits="userSpaceOnUse"
       xlink:href="#linearGradient10691-1"
       id="radialGradient3226"
       fy="73.615715"
       fx="6.702713"
       r="7.228416"
       cy="73.615715"
       cx="6.702713" />
    <linearGradient
       id="linearGradient4084">
      <stop
         offset="0"
         style="stop-color:#ffffff;stop-opacity:1"
         id="stop4086" />
      <stop
         offset="0.01596775"
         style="stop-color:#ffffff;stop-opacity:0.23529412"
         id="stop4088" />
      <stop
         offset="0.99257565"
         style="stop-color:#ffffff;stop-opacity:0.15686275"
         id="stop4090" />
      <stop
         offset="1"
         style="stop-color:#ffffff;stop-opacity:0.39215687"
         id="stop4092" />
    </linearGradient>
    <linearGradient
       id="outerBackgroundGradient-5-0">
      <stop
         id="stop3864-8-6-4"
         offset="0"
         style="stop-color:#0036cb;stop-opacity:1" />
      <stop
         id="stop3866-9-1-86"
         offset="1"
         style="stop-color:#0fdb00;stop-opacity:1" />
    </linearGradient>
    <linearGradient
       xlink:href="#linearGradient6592-2-7"
       id="linearGradient3141"
       gradientUnits="userSpaceOnUse"
       gradientTransform="matrix(11.563494,0,0,11.697807,13.166596,124.82849)"
       x1="10"
       y1="-3"
       x2="20"
       y2="12" />
    <linearGradient
       xlink:href="#linearGradient4084"
       id="linearGradient3144"
       gradientUnits="userSpaceOnUse"
       gradientTransform="matrix(12.400257,0,0,8.6700979,-41.606263,-14.574369)"
       x1="23.99999"
       y1="5.7531762"
       x2="23.99999"
       y2="42.121033" />
    <linearGradient
       xlink:href="#outerBackgroundGradient-5-0"
       id="linearGradient3148"
       gradientUnits="userSpaceOnUse"
       gradientTransform="matrix(10.664852,0,0,13.003648,32.03815,146.26633)"
       x1="-2.5488214"
       y1="28.788479"
       x2="44.631618"
       y2="-12.349135" />
    <linearGradient
       id="linearGradient4054-5">
      <stop
         offset="0"
         style="stop-color:#ffffff;stop-opacity:1"
         id="stop4056-0" />
      <stop
         offset="0.01719457"
         style="stop-color:#ffffff;stop-opacity:0.23529412"
         id="stop4058-4" />
      <stop
         offset="1"
         style="stop-color:#ffffff;stop-opacity:0.15686275"
         id="stop4060-4" />
      <stop
         offset="1"
         style="stop-color:#ffffff;stop-opacity:0.39215687"
         id="stop4062-0" />
    </linearGradient>
    <linearGradient
       xlink:href="#linearGradient4054-5"
       id="linearGradient3152-7"
       gradientUnits="userSpaceOnUse"
       gradientTransform="matrix(4.5366797,0,0,3.1252681,27.212142,49.812456)"
       x1="47.546879"
       y1="121.84093"
       x2="47.546879"
       y2="99.079079" />
    <linearGradient
       xlink:href="#linearGradient10691-1"
       id="linearGradient3148-3"
       gradientUnits="userSpaceOnUse"
       gradientTransform="matrix(10.664852,0,0,12.508438,41.430903,566.40042)"
       x1="15"
       y1="24.618645"
       x2="15"
       y2="2" />
    <clipPath
       id="clip1">
      <rect
         width="384"
         height="384"
         x="0"
         y="0"
         id="rect10" />
    </clipPath>
    <mask
       id="mask0">
      <g
         id="g7"
         style="filter:url(#alpha)">
        <rect
           width="384"
           height="384"
           x="0"
           y="0"
           style="fill:#000000;fill-opacity:0.2"
           id="rect5" />
      </g>
    </mask>
    <filter
       id="alpha"
       width="1"
       height="1"
       x="0"
       y="0"
       filterUnits="objectBoundingBox">
      <feColorMatrix
         in="SourceGraphic"
         type="matrix"
         values="0 0 0 0 1 0 0 0 0 1 0 0 0 0 1 0 0 0 1 0"
         id="feColorMatrix2" />
    </filter>
    <clipPath
       id="clipPath873">
      <rect
         width="384"
         height="384"
         x="0"
         y="0"
         id="rect871" />
    </clipPath>
    <clipPath
       id="clip1-4">
      <rect
         width="384"
         height="384"
         x="0"
         y="0"
         id="rect10-0" />
    </clipPath>
    <clipPath
       id="clip1-48">
      <rect
         width="384"
         height="384"
         x="0"
         y="0"
         id="rect10-8" />
    </clipPath>
  </defs>
  <path
     style="display:inline;overflow:visible;visibility:visible;fill:url(#linearGradient3221);fill-opacity:1;fill-rule:nonzero;stroke:none;stroke-width:0.22242539;stroke-linecap:round;stroke-linejoin:round;stroke-miterlimit:4;stroke-dasharray:none;stroke-dashoffset:0.5;stroke-opacity:1;marker:none;enable-background:new"
     id="rect1789"
     d="m 12.335697,23.74449 c 0,0 0.08857,2.414947 -0.334351,2.977833 -0.422918,0.562891 -1.264449,0.921679 -1.264449,0.921679 -0.540006,0.05914 -0.544473,0.77988 0,0.77988 h 10.55028 c 0.544475,0 0.540121,-0.721501 0,-0.77988 0,0 -0.841494,-0.35879 -1.264406,-0.921679 C 19.599859,26.159439 19.68842,23.74449 19.68842,23.74449 h -7.348948 z"
     inkscape:connector-curvature="0" />
  <path
     id="rect2722-0-5"
     d="M 2.0025629,4 H 30.002563 V 24 H 2.0025629 Z"
     style="display:inline;fill:#000000;fill-opacity:1;stroke:none;stroke-width:0.25592393"
     inkscape:connector-curvature="0" />
  <path
     style="color:#000000;clip-rule:nonzero;display:inline;overflow:visible;visibility:visible;opacity:0.4;isolation:auto;mix-blend-mode:normal;color-interpolation:sRGB;color-interpolation-filters:linearRGB;solid-color:#000000;solid-opacity:1;fill:none;fill-opacity:1;fill-rule:nonzero;stroke:#000000;stroke-width:0.22242539;stroke-linecap:round;stroke-linejoin:round;stroke-miterlimit:4;stroke-dasharray:none;stroke-dashoffset:0.5;stroke-opacity:1;marker:none;color-rendering:auto;image-rendering:auto;shape-rendering:auto;text-rendering:auto;enable-background:new"
     id="rect1789-8"
     d="m 12.335697,23.74449 c 0,0 0.08857,2.414947 -0.334351,2.977833 -0.422918,0.562891 -1.264449,0.921679 -1.264449,0.921679 -0.540006,0.05914 -0.544473,0.77988 0,0.77988 h 10.55028 c 0.544475,0 0.540121,-0.721501 0,-0.77988 0,0 -0.841494,-0.35879 -1.264406,-0.921679 C 19.599859,26.159439 19.68842,23.74449 19.68842,23.74449 h -7.348948 z"
     inkscape:connector-curvature="0" />
  <path
     id="rect2722-0"
     d="M 3.0025629,5 H 29.002563 V 23 H 3.0025629 Z"
     style="display:inline;fill:#0083d7;fill-opacity:1;stroke:none;stroke-width:0.23395905"
     inkscape:connector-curvature="0" />
  <rect
     y="18.952879"
     x="11"
     height="1.0471205"
     width="10"
     id="rect848"
     style="opacity:1;fill:#ffffff;fill-opacity:1;stroke:none;stroke-width:0.60892624;stroke-linejoin:round;stroke-miterlimit:4;stroke-dasharray:none;stroke-opacity:0.58823529;paint-order:normal" />
  <path
     id="path865"
     d="m 16.118531,8.9964344 a 4.1666771,4.1666771 0 0 0 -4.166688,4.1666876 4.1666771,4.1666771 0 0 0 4.166688,4.166688 4.1666771,4.1666771 0 0 0 4.166687,-4.166688 4.1666771,4.1666771 0 0 0 -4.166687,-4.1666876 z m -0.0099,1.5933486 c 0.15709,0 0.308509,0.02499 0.447558,0.07402 0.13905,0.04903 0.2657,0.122194 0.372555,0.219092 0.106854,0.0969 0.194115,0.217577 0.25462,0.361205 0.0605,0.143627 0.09425,0.310159 0.09425,0.49937 0,0.246103 -0.06189,0.494098 -0.164319,0.71945 -0.102423,0.225351 -0.245556,0.427909 -0.40759,0.583257 h 0.0019 c -0.06217,0.175897 -0.04356,0.284798 -0.0054,0.350843 0.03813,0.06604 0.09577,0.08947 0.11152,0.09425 0.188305,0.06022 0.389285,0.142583 0.584244,0.247218 0.194958,0.104635 0.383808,0.23152 0.548715,0.379464 0.164906,0.147942 0.305987,0.317121 0.404135,0.507265 0.09815,0.190145 0.153352,0.401365 0.148035,0.632602 h -4.76127 c -0.0047,-0.24206 0.06733,-0.465582 0.18455,-0.666157 0.117225,-0.200573 0.279792,-0.3785 0.456935,-0.530457 0.177141,-0.151958 0.368795,-0.277823 0.54378,-0.374035 0.174985,-0.09621 0.333352,-0.16256 0.444105,-0.1959 0.02375,-0.008 0.09228,-0.04094 0.139153,-0.110533 0.04687,-0.06959 0.07193,-0.17594 0.0084,-0.331104 -0.16303,-0.154981 -0.30625,-0.358225 -0.408576,-0.584244 -0.102326,-0.226019 -0.163825,-0.474797 -0.163825,-0.721917 0,-0.189258 0.03353,-0.356228 0.09375,-0.499864 0.06023,-0.143636 0.147125,-0.263826 0.253632,-0.360711 0.106509,-0.09689 0.232742,-0.170085 0.371568,-0.219092 0.138826,-0.04901 0.290371,-0.07402 0.447558,-0.07402 z"
     style="opacity:1;fill:#ffffff;fill-opacity:1;stroke:none;stroke-width:0.46817511;stroke-linejoin:round;stroke-miterlimit:4;stroke-dasharray:none;stroke-opacity:0.58823529;paint-order:normal"
     inkscape:connector-curvature="0" />
</svg>
