<?xml version="1.0" encoding="UTF-8" standalone="no"?>
<svg
   xmlns:dc="http://purl.org/dc/elements/1.1/"
   xmlns:cc="http://creativecommons.org/ns#"
   xmlns:rdf="http://www.w3.org/1999/02/22-rdf-syntax-ns#"
   xmlns:svg="http://www.w3.org/2000/svg"
   xmlns="http://www.w3.org/2000/svg"
   xmlns:xlink="http://www.w3.org/1999/xlink"
   xmlns:sodipodi="http://sodipodi.sourceforge.net/DTD/sodipodi-0.dtd"
   xmlns:inkscape="http://www.inkscape.org/namespaces/inkscape"
   width="32"
   height="32"
   version="1"
   id="svg12"
   sodipodi:docname="desktop-environment-gnome.svg"
   inkscape:version="0.92.4 5da689c313, 2019-01-14">
  <metadata
     id="metadata18">
    <rdf:RDF>
      <cc:Work
         rdf:about="">
        <dc:format>image/svg+xml</dc:format>
        <dc:type
           rdf:resource="http://purl.org/dc/dcmitype/StillImage" />
        <dc:title />
      </cc:Work>
    </rdf:RDF>
  </metadata>
  <defs
     id="defs16">
    <linearGradient
       id="linearGradient889"
       inkscape:collect="always">
      <stop
         id="stop885"
         offset="0"
         style="stop-color:#ffffff;stop-opacity:1" />
      <stop
         id="stop887"
         offset="1"
         style="stop-color:#ffffff;stop-opacity:0" />
    </linearGradient>
    <linearGradient
       inkscape:collect="always"
       id="linearGradient825">
      <stop
         style="stop-color:#4a86cf;stop-opacity:1;"
         offset="0"
         id="stop821" />
      <stop
         style="stop-color:#7aa6dc;stop-opacity:1"
         offset="1"
         id="stop823" />
    </linearGradient>
    <linearGradient
       inkscape:collect="always"
       xlink:href="#linearGradient825"
       id="linearGradient827"
       x1="-69.966103"
       y1="37.355934"
       x2="-13.966103"
       y2="37.355934"
       gradientUnits="userSpaceOnUse"
       gradientTransform="matrix(0.49999999,0,0,0.49999999,36.98305,-34.677967)" />
    <linearGradient
       inkscape:collect="always"
       xlink:href="#linearGradient889"
       id="linearGradient859-7"
       x1="4"
       y1="-32"
       x2="22.32202"
       y2="-32.07943"
       gradientUnits="userSpaceOnUse"
       gradientTransform="matrix(0.48013657,0,0,0.50017759,0.0843268,0.005683)" />
  </defs>
  <sodipodi:namedview
     pagecolor="#ffffff"
     bordercolor="#666666"
     borderopacity="1"
     objecttolerance="10"
     gridtolerance="10"
     guidetolerance="10"
     inkscape:pageopacity="0"
     inkscape:pageshadow="2"
     inkscape:window-width="1366"
     inkscape:window-height="691"
     id="namedview14"
     showgrid="false"
     inkscape:zoom="14.75"
     inkscape:cx="8.9327347"
     inkscape:cy="7.6085207"
     inkscape:window-x="0"
     inkscape:window-y="0"
     inkscape:window-maximized="1"
     inkscape:current-layer="svg12" />
  <circle
     style="opacity:0.2;fill:#000000;fill-opacity:1;stroke-width:0.47205704"
     id="path819-6"
     cx="16"
     cy="-17"
     r="14"
     transform="scale(1,-1)" />
  <circle
     style="fill:url(#linearGradient827);fill-opacity:1;stroke-width:0.47205704"
     id="path819"
     cx="16"
     cy="-16"
     r="14"
     transform="scale(1,-1)" />
  <path
     style="opacity:0.2;stroke-width:0.44444445"
     d="m 21.871755,6.9444451 c -3.949194,0 -4.689524,5.7777769 -2.467882,5.7777769 2.221321,0 6.417238,-5.7777769 2.467882,-5.7777769 z m -6.06684,0.8888887 c -0.06374,-2.261e-4 -0.13078,0.00448 -0.201389,0.013888 -2.258684,0.3024126 -1.464826,4.3539592 -0.262153,4.4296882 1.164616,0.07336 2.43926,-4.4365734 0.463542,-4.4435762 z m -4.131077,0.8897567 c -0.05048,-0.00252 -0.10217,-9.8e-4 -0.156249,0.00434 -0.115371,0.011256 -0.239391,0.040999 -0.371528,0.091146 -2.114569,0.8025528 -0.320882,4.1158885 0.863715,3.8932285 1.076721,-0.201903 1.228903,-3.9107369 -0.335938,-3.9887145 z M 8.737206,11.833334 c -0.188751,-0.005 -0.393783,0.04451 -0.611111,0.164063 -1.737837,0.95655 0.586056,3.268099 1.608507,2.909721 0.894648,-0.313715 0.323864,-3.038362 -0.997396,-3.073784 z m 8.256944,1.777777 c -2.99673,-0.05324 -6.949976,1.526452 -7.624131,4.697049 -0.730134,3.431133 3.00583,8.19184 6.903646,8.19184 1.917525,0 4.129612,-1.951747 4.543402,-4.255208 0.151081,-0.839715 -0.785773,-1.144241 -1.789062,-1.078126 -1.095391,0.07219 -2.270122,0.580858 -2.194444,1.187501 0.118394,0.949536 -0.224183,1.463709 -0.907119,1.479167 -0.932409,-0.113428 -1.63688,-0.541246 -1.759548,-1.35764 -0.166983,-2.143774 6.717603,-3.671542 6.184895,-6.99566 -0.194836,-1.215793 -1.5596,-1.836977 -3.357639,-1.868923 z"
     id="path6"
     inkscape:connector-curvature="0" />
  <path
     style="fill:#ffffff;stroke-width:0.44444445"
     d="m 21.871755,6.5000004 c -3.949194,0 -4.689524,5.7777776 -2.467882,5.7777776 2.221321,0 6.417238,-5.7777776 2.467882,-5.7777776 z m -6.06684,0.8888887 c -0.06374,-2.254e-4 -0.13078,0.00448 -0.201389,0.013888 -2.258684,0.3024126 -1.464826,4.3539589 -0.262153,4.4296879 1.164616,0.07336 2.43926,-4.4365738 0.463542,-4.4435759 z m -4.131077,0.8897574 c -0.05048,-0.00252 -0.10217,-9.8e-4 -0.156249,0.00434 -0.115371,0.011263 -0.239391,0.040999 -0.371528,0.091146 -2.114569,0.8025528 -0.320882,4.1158885 0.863715,3.8932285 1.076721,-0.201902 1.228903,-3.9107369 -0.335938,-3.9887145 z M 8.737206,11.388889 c -0.188751,-0.005 -0.393783,0.04451 -0.611111,0.164063 -1.737837,0.956551 0.586056,3.268099 1.608507,2.909722 0.894648,-0.313715 0.323864,-3.038362 -0.997396,-3.073785 z m 8.256944,1.777778 c -2.99673,-0.05324 -6.949976,1.526451 -7.624131,4.697048 -0.730134,3.431133 3.00583,8.19184 6.903646,8.19184 1.917525,0 4.129612,-1.951747 4.543402,-4.255208 0.151081,-0.839715 -0.785773,-1.144241 -1.789062,-1.078125 -1.095391,0.07219 -2.270122,0.580858 -2.194444,1.1875 0.118394,0.949537 -0.224183,1.463709 -0.907119,1.479167 -0.932409,-0.113427 -1.63688,-0.541245 -1.759548,-1.357639 -0.166983,-2.143774 6.717603,-3.671542 6.184895,-6.99566 -0.194836,-1.215792 -1.5596,-1.836977 -3.357639,-1.868923 z"
     id="path8"
     inkscape:connector-curvature="0" />
  <ellipse
     style="opacity:0.4;fill:none;fill-opacity:1;stroke:url(#linearGradient859-7);stroke-width:0.4814572;stroke-miterlimit:4;stroke-dasharray:none;stroke-opacity:1"
     id="path819-2-5"
     cx="15.448696"
     cy="-16"
     transform="rotate(90)"
     rx="13.207967"
     ry="13.759271" />
</svg>
