<?xml version="1.0" encoding="UTF-8" standalone="no"?>
<svg
   xmlns:dc="http://purl.org/dc/elements/1.1/"
   xmlns:cc="http://creativecommons.org/ns#"
   xmlns:rdf="http://www.w3.org/1999/02/22-rdf-syntax-ns#"
   xmlns:svg="http://www.w3.org/2000/svg"
   xmlns="http://www.w3.org/2000/svg"
   xmlns:sodipodi="http://sodipodi.sourceforge.net/DTD/sodipodi-0.dtd"
   xmlns:inkscape="http://www.inkscape.org/namespaces/inkscape"
   height="32"
   width="32"
   id="svg1008"
   version="1.1"
   viewBox="0 0 32 32"
   sodipodi:docname="firefox.svg"
   inkscape:version="0.92.4 5da689c313, 2019-01-14">
  <sodipodi:namedview
     pagecolor="#ffffff"
     bordercolor="#666666"
     borderopacity="1"
     objecttolerance="10"
     gridtolerance="10"
     guidetolerance="10"
     inkscape:pageopacity="0"
     inkscape:pageshadow="2"
     inkscape:window-width="1366"
     inkscape:window-height="708"
     id="namedview95"
     showgrid="false"
     inkscape:zoom="2.8792082"
     inkscape:cx="3.9414039"
     inkscape:cy="40.98349"
     inkscape:window-x="0"
     inkscape:window-y="19"
     inkscape:window-maximized="1"
     inkscape:current-layer="svg1008" />
  <metadata
     id="metadata1012">
    <rdf:RDF>
      <cc:Work
         rdf:about="">
        <dc:format>image/svg+xml</dc:format>
        <dc:type
           rdf:resource="http://purl.org/dc/dcmitype/StillImage" />
        <dc:title></dc:title>
      </cc:Work>
    </rdf:RDF>
  </metadata>
  <defs
     id="defs978">
    <linearGradient
       gradientTransform="matrix(0.36167035,0,0,0.36167035,1.5298403,1.5376195)"
       gradientUnits="userSpaceOnUse"
       y2="74.468002"
       x2="6.447"
       y1="12.393"
       x1="70.786003"
       id="a">
      <stop
         id="stop834"
         stop-color="#fff44f"
         offset=".048" />
      <stop
         id="stop836"
         stop-color="#ffe847"
         offset=".111" />
      <stop
         id="stop838"
         stop-color="#ffc830"
         offset=".225" />
      <stop
         id="stop840"
         stop-color="#ff980e"
         offset=".368" />
      <stop
         id="stop842"
         stop-color="#ff8b16"
         offset=".401" />
      <stop
         id="stop844"
         stop-color="#ff672a"
         offset=".462" />
      <stop
         id="stop846"
         stop-color="#ff3647"
         offset=".534" />
      <stop
         id="stop848"
         stop-color="#e31587"
         offset=".705" />
    </linearGradient>
    <radialGradient
       gradientUnits="userSpaceOnUse"
       gradientTransform="matrix(0.36167035,0,0,0.36167035,2885.8509,3084.4156)"
       r="80.796997"
       cy="-8515.1211"
       cx="-7907.187"
       id="b">
      <stop
         id="stop851"
         stop-color="#ffbd4f"
         offset=".129" />
      <stop
         id="stop853"
         stop-color="#ffac31"
         offset=".186" />
      <stop
         id="stop855"
         stop-color="#ff9d17"
         offset=".247" />
      <stop
         id="stop857"
         stop-color="#ff980e"
         offset=".283" />
      <stop
         id="stop859"
         stop-color="#ff563b"
         offset=".403" />
      <stop
         id="stop861"
         stop-color="#ff3750"
         offset=".467" />
      <stop
         id="stop863"
         stop-color="#f5156c"
         offset=".71" />
      <stop
         id="stop865"
         stop-color="#eb0878"
         offset=".782" />
      <stop
         id="stop867"
         stop-color="#e50080"
         offset=".86" />
    </radialGradient>
    <radialGradient
       gradientUnits="userSpaceOnUse"
       gradientTransform="matrix(0.36167035,0,0,0.36167035,2885.8509,3084.4156)"
       r="80.796997"
       cy="-8482.0889"
       cx="-7936.7109"
       id="c">
      <stop
         id="stop870"
         stop-color="#960e18"
         offset=".3" />
      <stop
         id="stop872"
         stop-opacity=".74"
         stop-color="#b11927"
         offset=".351" />
      <stop
         id="stop874"
         stop-opacity=".343"
         stop-color="#db293d"
         offset=".435" />
      <stop
         id="stop876"
         stop-opacity=".094"
         stop-color="#f5334b"
         offset=".497" />
      <stop
         id="stop878"
         stop-opacity="0"
         stop-color="#ff3750"
         offset=".53" />
    </radialGradient>
    <radialGradient
       gradientUnits="userSpaceOnUse"
       gradientTransform="matrix(0.36167035,0,0,0.36167035,2885.8509,3084.4156)"
       r="58.534"
       cy="-8533.457"
       cx="-7926.9702"
       id="d">
      <stop
         id="stop881"
         stop-color="#fff44f"
         offset=".132" />
      <stop
         id="stop883"
         stop-color="#ffdc3e"
         offset=".252" />
      <stop
         id="stop885"
         stop-color="#ff9d12"
         offset=".506" />
      <stop
         id="stop887"
         stop-color="#ff980e"
         offset=".526" />
    </radialGradient>
    <radialGradient
       gradientUnits="userSpaceOnUse"
       gradientTransform="matrix(0.36167035,0,0,0.36167035,2885.8509,3084.4156)"
       r="38.471001"
       cy="-8460.9844"
       cx="-7945.6479"
       id="e">
      <stop
         id="stop890"
         stop-color="#3a8ee6"
         offset=".353" />
      <stop
         id="stop892"
         stop-color="#5c79f0"
         offset=".472" />
      <stop
         id="stop894"
         stop-color="#9059ff"
         offset=".669" />
      <stop
         id="stop896"
         stop-color="#c139e6"
         offset="1" />
    </radialGradient>
    <radialGradient
       gradientUnits="userSpaceOnUse"
       gradientTransform="matrix(0.35154358,-0.08499253,0.09945935,0.41158086,3651.2545,2834.79)"
       r="20.396999"
       cy="-8491.5459"
       cx="-7935.6201"
       id="f">
      <stop
         id="stop899"
         stop-opacity="0"
         stop-color="#9059ff"
         offset=".206" />
      <stop
         id="stop901"
         stop-opacity=".064"
         stop-color="#8c4ff3"
         offset=".278" />
      <stop
         id="stop903"
         stop-opacity=".45"
         stop-color="#7716a8"
         offset=".747" />
      <stop
         id="stop905"
         stop-opacity=".6"
         stop-color="#6e008b"
         offset=".975" />
    </radialGradient>
    <radialGradient
       gradientUnits="userSpaceOnUse"
       gradientTransform="matrix(0.36167035,0,0,0.36167035,2885.8509,3084.4156)"
       r="27.676001"
       cy="-8518.4268"
       cx="-7937.731"
       id="g">
      <stop
         id="stop908"
         stop-color="#ffe226"
         offset="0" />
      <stop
         id="stop910"
         stop-color="#ffdb27"
         offset=".121" />
      <stop
         id="stop912"
         stop-color="#ffc82a"
         offset=".295" />
      <stop
         id="stop914"
         stop-color="#ffa930"
         offset=".502" />
      <stop
         id="stop916"
         stop-color="#ff7e37"
         offset=".732" />
      <stop
         id="stop918"
         stop-color="#ff7139"
         offset=".792" />
    </radialGradient>
    <radialGradient
       gradientUnits="userSpaceOnUse"
       gradientTransform="matrix(0.36167035,0,0,0.36167035,2885.8509,3084.4156)"
       r="118.081"
       cy="-8535.9814"
       cx="-7915.9771"
       id="h">
      <stop
         id="stop921"
         stop-color="#fff44f"
         offset=".113" />
      <stop
         id="stop923"
         stop-color="#ff980e"
         offset=".456" />
      <stop
         id="stop925"
         stop-color="#ff5634"
         offset=".622" />
      <stop
         id="stop927"
         stop-color="#ff3647"
         offset=".716" />
      <stop
         id="stop929"
         stop-color="#e31587"
         offset=".904" />
    </radialGradient>
    <radialGradient
       gradientUnits="userSpaceOnUse"
       gradientTransform="matrix(0.03797539,0.359862,-0.23617074,0.02495525,-1692.5356,3064.9545)"
       r="86.499001"
       cy="-8522.8594"
       cx="-7927.165"
       id="i">
      <stop
         id="stop932"
         stop-color="#fff44f"
         offset="0" />
      <stop
         id="stop934"
         stop-color="#ffe847"
         offset=".06" />
      <stop
         id="stop936"
         stop-color="#ffc830"
         offset=".168" />
      <stop
         id="stop938"
         stop-color="#ff980e"
         offset=".304" />
      <stop
         id="stop940"
         stop-color="#ff8b16"
         offset=".356" />
      <stop
         id="stop942"
         stop-color="#ff672a"
         offset=".455" />
      <stop
         id="stop944"
         stop-color="#ff3647"
         offset=".57" />
      <stop
         id="stop946"
         stop-color="#e31587"
         offset=".737" />
    </radialGradient>
    <radialGradient
       gradientUnits="userSpaceOnUse"
       gradientTransform="matrix(0.36167035,0,0,0.36167035,2885.8509,3084.4156)"
       r="73.720001"
       cy="-8508.1758"
       cx="-7938.3828"
       id="j">
      <stop
         id="stop949"
         stop-color="#fff44f"
         offset=".137" />
      <stop
         id="stop951"
         stop-color="#ff980e"
         offset=".48" />
      <stop
         id="stop953"
         stop-color="#ff5634"
         offset=".592" />
      <stop
         id="stop955"
         stop-color="#ff3647"
         offset=".655" />
      <stop
         id="stop957"
         stop-color="#e31587"
         offset=".904" />
    </radialGradient>
    <radialGradient
       gradientUnits="userSpaceOnUse"
       gradientTransform="matrix(0.36167035,0,0,0.36167035,2885.8509,3084.4156)"
       r="80.685997"
       cy="-8503.8613"
       cx="-7918.9229"
       id="k">
      <stop
         id="stop960"
         stop-color="#fff44f"
         offset=".094" />
      <stop
         id="stop962"
         stop-color="#ffe141"
         offset=".231" />
      <stop
         id="stop964"
         stop-color="#ffaf1e"
         offset=".509" />
      <stop
         id="stop966"
         stop-color="#ff980e"
         offset=".626" />
    </radialGradient>
    <linearGradient
       gradientTransform="matrix(0.36167035,0,0,0.36167035,1.5298403,1.5376195)"
       gradientUnits="userSpaceOnUse"
       y2="66.806"
       x2="15.267"
       y1="12.061"
       x1="70.013"
       id="l">
      <stop
         id="stop969"
         stop-opacity=".8"
         stop-color="#fff44f"
         offset=".167" />
      <stop
         id="stop971"
         stop-opacity=".634"
         stop-color="#fff44f"
         offset=".266" />
      <stop
         id="stop973"
         stop-opacity=".217"
         stop-color="#fff44f"
         offset=".489" />
      <stop
         id="stop975"
         stop-opacity="0"
         stop-color="#fff44f"
         offset=".6" />
    </linearGradient>
  </defs>
  <path
     style="fill:url(#a);stroke-width:0.36167035"
     id="path980"
     d="M 28.986407,11.241597 C 28.377354,9.7761088 27.141888,8.1938009 26.17442,7.693611 a 14.563019,14.563019 0 0 1 1.419556,4.254691 l 0.0025,0.02351 C 26.011668,8.0205607 23.324095,6.4274035 21.129118,2.958261 21.018085,2.7828508 20.907052,2.6070787 20.798913,2.4215416 20.737068,2.3155721 20.687518,2.2200915 20.64448,2.1322058 a 2.550861,2.550861 0 0 1 -0.209046,-0.5551637 0.03616703,0.03616703 0 0 0 -0.03182,-0.036162 0.04991051,0.04991051 0 0 0 -0.0264,0 c -0.0018,0 -0.0047,0.00322 -0.0069,0.00399 -0.0022,7.7e-4 -0.0069,0.00399 -0.01013,0.00539 l 0.0055,-0.00941 c -3.520913,2.0615015 -4.71551,5.8778472 -4.825458,7.7867437 A 7.011703,7.011703 0 0 0 11.682651,10.814423 4.1906744,4.1906744 0 0 0 11.32098,10.540276 6.4984928,6.4984928 0 0 1 11.281563,7.1141734 10.381748,10.381748 0 0 0 7.9075397,9.7218161 h -0.00651 C 7.3455041,9.0176442 7.3845648,6.6957205 7.4163917,6.2107206 A 2.5056522,2.5056522 0 0 0 6.9483906,6.4591877 10.208146,10.208146 0 0 0 5.5783829,7.6328083 12.240733,12.240733 0 0 0 4.2680514,9.2049894 v 0.00217 -0.00252 A 11.838556,11.838556 0 0 0 2.3873655,13.451777 l -0.018807,0.09259 c -0.026402,0.12333 -0.1215213,0.741062 -0.1377964,0.875242 0,0.01049 -0.00217,0.02026 -0.00326,0.03074 a 13.359018,13.359018 0 0 0 -0.2274926,1.932444 v 0.07234 a 14.017981,14.017981 0 0 0 27.8319825,2.37033 c 0.02351,-0.180835 0.04267,-0.359861 0.06365,-0.542505 A 14.415095,14.415095 0 0 0 28.986407,11.241597 Z M 12.830592,22.213952 c 0.06546,0.03147 0.126946,0.06546 0.194217,0.09548 l 0.0098,0.0062 q -0.101992,-0.04883 -0.203983,-0.10163 z m 3.210909,-8.454405 z m 11.556091,-1.784482 v -0.01338 l 0.0025,0.01483 z"
     inkscape:connector-curvature="0" />
  <path
     style="fill:url(#b);stroke-width:0.36167035"
     id="path982"
     d="M 28.986407,11.241597 C 28.377354,9.7761088 27.141888,8.1938009 26.17442,7.693611 a 14.563019,14.563019 0 0 1 1.419556,4.254691 v 0.01338 l 0.0025,0.01483 a 12.69463,12.69463 0 0 1 -0.436163,9.460573 c -1.60654,3.44708 -5.495219,6.980238 -11.582131,6.808444 -6.5769749,-0.18626 -12.3691262,-5.06664 -13.4519673,-11.458802 -0.1971103,-1.007975 0,-1.519015 0.099098,-2.338198 a 10.443593,10.443593 0 0 0 -0.2253206,1.934212 v 0.07233 a 14.017981,14.017981 0 0 0 27.8319999,2.370392 c 0.02351,-0.180835 0.04267,-0.359861 0.06365,-0.542505 a 14.415095,14.415095 0 0 0 -0.909235,-7.041361 z"
     inkscape:connector-curvature="0" />
  <path
     style="fill:url(#c);stroke-width:0.36167035"
     id="path984"
     d="M 28.986407,11.241597 C 28.377354,9.7761088 27.141888,8.1938009 26.17442,7.693611 a 14.563019,14.563019 0 0 1 1.419556,4.254691 v 0.01338 l 0.0025,0.01483 a 12.69463,12.69463 0 0 1 -0.436163,9.460573 c -1.60654,3.44708 -5.495219,6.980238 -11.582131,6.808444 -6.5769749,-0.18626 -12.3691262,-5.06664 -13.4519673,-11.458802 -0.1971103,-1.007975 0,-1.519015 0.099098,-2.338198 a 10.443593,10.443593 0 0 0 -0.2253206,1.934212 v 0.07233 a 14.017981,14.017981 0 0 0 27.8319999,2.370392 c 0.02351,-0.180835 0.04267,-0.359861 0.06365,-0.542505 a 14.415095,14.415095 0 0 0 -0.909235,-7.041361 z"
     inkscape:connector-curvature="0" />
  <path
     style="fill:url(#d);stroke-width:0.36167035"
     id="path986"
     d="m 22.174707,12.889368 c 0.03038,0.02134 0.05859,0.04267 0.08716,0.06401 A 7.6312443,7.6312443 0 0 0 20.959857,11.25534 C 16.603176,6.8979364 19.818063,1.8074261 20.360207,1.5488314 l 0.0055,-0.00795 C 16.844771,3.6023998 15.650174,7.4187455 15.540226,9.327642 15.703701,9.316435 15.865729,9.302687 16.032821,9.302687 a 7.0742725,7.0742725 0 0 1 6.141886,3.586685 z"
     inkscape:connector-curvature="0" />
  <path
     style="fill:url(#e);stroke-width:0.36167035"
     id="path988"
     d="m 16.041863,13.759547 c -0.02314,0.34865 -1.254996,1.551204 -1.685745,1.551204 -3.985969,0 -4.6329979,2.411256 -4.6329979,2.411256 0.176496,2.030417 1.5913499,3.702782 3.3016889,4.587427 0.07812,0.0405 0.157327,0.07704 0.236532,0.112841 q 0.205791,0.09114 0.411581,0.168539 a 6.2333883,6.2333883 0 0 0 1.823904,0.351905 c 6.986386,0.327673 8.339756,-8.354585 3.298071,-10.873982 a 4.8391494,4.8391494 0 0 1 3.37981,0.820631 7.0742725,7.0742725 0 0 0 -6.141886,-3.5866859 c -0.166368,0 -0.32912,0.013748 -0.492595,0.024955 a 7.011703,7.011703 0 0 0 -3.857575,1.4868269 c 0.213746,0.180836 0.454981,0.422431 0.963127,0.923344 0.951193,0.937089 3.39066,1.907812 3.396085,2.021739 z"
     inkscape:connector-curvature="0" />
  <path
     style="fill:url(#f);stroke-width:0.36167035"
     id="path990"
     d="m 16.041863,13.759547 c -0.02314,0.34865 -1.254996,1.551204 -1.685745,1.551204 -3.985969,0 -4.6329979,2.411256 -4.6329979,2.411256 0.176496,2.030417 1.5913499,3.702782 3.3016889,4.587427 0.07812,0.0405 0.157327,0.07704 0.236532,0.112841 q 0.205791,0.09114 0.411581,0.168539 a 6.2333883,6.2333883 0 0 0 1.823904,0.351905 c 6.986386,0.327673 8.339756,-8.354585 3.298071,-10.873982 a 4.8391494,4.8391494 0 0 1 3.37981,0.820631 7.0742725,7.0742725 0 0 0 -6.141886,-3.5866859 c -0.166368,0 -0.32912,0.013748 -0.492595,0.024955 a 7.011703,7.011703 0 0 0 -3.857575,1.4868269 c 0.213746,0.180836 0.454981,0.422431 0.963127,0.923344 0.951193,0.937089 3.39066,1.907812 3.396085,2.021739 z"
     inkscape:connector-curvature="0" />
  <path
     style="fill:url(#g);stroke-width:0.36167035"
     id="path992"
     d="m 11.029112,10.348271 c 0.113564,0.07233 0.207238,0.135266 0.289336,0.192047 A 6.4984928,6.4984928 0 0 1 11.279028,7.1142154 10.381748,10.381748 0 0 0 7.9050055,9.7218581 c 0.068355,-0.00182 2.1016665,-0.038332 3.1241085,0.6264129 z"
     inkscape:connector-curvature="0" />
  <path
     style="fill:url(#h);stroke-width:0.36167035"
     id="path994"
     d="m 2.1280431,16.786727 c 1.081756,6.392162 6.874992,11.272542 13.4519669,11.458802 6.086912,0.172156 9.975592,-3.361364 11.582131,-6.808444 a 12.69463,12.69463 0 0 0 0.436175,-9.460573 v -0.01338 c 0,-0.01049 -0.0022,-0.01664 0,-0.01338 l 0.0025,0.02351 c 0.497297,3.246714 -1.15409,6.392161 -3.735693,8.519145 l -0.008,0.01809 c -5.030112,4.09664 -9.843944,2.471655 -10.818284,1.808352 q -0.101991,-0.04883 -0.203982,-0.10163 C 9.9021201,20.815378 8.6905241,18.143358 8.9502041,15.851814 a 3.5997051,3.5997051 0 0 1 -3.3204958,-2.088646 5.2868974,5.2868974 0 0 1 5.1534407,-0.206875 6.9802378,6.9802378 0 0 0 5.263027,0.206875 c -0.0054,-0.113926 -2.444891,-1.085011 -3.396085,-2.021737 -0.508147,-0.500914 -0.749381,-0.742148 -0.963128,-0.923345 A 4.1906744,4.1906744 0 0 0 11.32532,10.543935 C 11.242136,10.487151 11.148463,10.425669 11.035984,10.351888 10.013542,9.6871381 7.9802312,9.7236669 7.9129605,9.725475 h -0.00651 C 7.3509249,9.0213031 7.3899849,6.6993794 7.4218118,6.2143795 A 2.5056522,2.5056522 0 0 0 6.9538107,6.4628466 10.208146,10.208146 0 0 0 5.5838031,7.6364672 12.240733,12.240733 0 0 0 4.2680465,9.2050314 v 0.00217 -0.00252 A 11.838556,11.838556 0 0 0 2.3873607,13.451777 c -0.00687,0.02857 -0.5048918,2.205827 -0.2593176,3.334962 z"
     inkscape:connector-curvature="0" />
  <path
     style="fill:url(#i);stroke-width:0.36167035"
     id="path996"
     d="m 20.96058,11.25534 a 7.6312443,7.6312443 0 0 1 1.302013,1.699851 c 0.07704,0.05823 0.149008,0.116097 0.21013,0.172156 3.177998,2.92953 1.512868,7.070655 1.388815,7.365416 2.581603,-2.126983 4.231543,-5.27243 3.735693,-8.519144 C 26.011668,8.0205607 23.324095,6.4274035 21.129118,2.958261 21.018085,2.7828508 20.907052,2.6070787 20.798913,2.4215416 20.737068,2.3155721 20.687518,2.2200915 20.64448,2.1322058 a 2.550861,2.550861 0 0 1 -0.209046,-0.5551637 0.03616703,0.03616703 0 0 0 -0.03182,-0.036162 0.04991051,0.04991051 0 0 0 -0.0264,0 c -0.0018,0 -0.0047,0.00322 -0.0069,0.00399 -0.0022,7.7e-4 -0.0069,0.00399 -0.01013,0.00539 -0.542101,0.2571471 -3.756989,5.3476574 0.600415,9.7050619 z"
     inkscape:connector-curvature="0" />
  <path
     style="fill:url(#j);stroke-width:0.36167035"
     id="path998"
     d="m 22.470553,13.125539 c -0.06112,-0.05606 -0.133094,-0.113927 -0.21013,-0.172156 -0.02857,-0.02134 -0.05678,-0.04267 -0.08716,-0.06401 a 4.8391494,4.8391494 0 0 0 -3.379809,-0.82063 c 5.041685,2.520843 3.689037,11.201654 -3.298072,10.873982 a 6.2333883,6.2333883 0 0 1 -1.823903,-0.351906 q -0.205791,-0.07704 -0.411581,-0.168539 c -0.07921,-0.03616 -0.158412,-0.07233 -0.236533,-0.11284 l 0.0098,0.0062 c 0.97434,0.665111 5.786726,2.290096 10.818284,-1.808352 l 0.008,-0.01809 c 0.125499,-0.292953 1.79063,-4.435164 -1.388815,-7.363609 z"
     inkscape:connector-curvature="0" />
  <path
     style="fill:url(#k);stroke-width:0.36167035"
     id="path1000"
     d="m 9.7231201,17.722007 c 0,0 0.6470289,-2.411256 4.6329979,-2.411256 0.430749,0 1.663683,-1.202554 1.685745,-1.551204 a 6.9802378,6.9802378 0 0 1 -5.263026,-0.206876 5.2868974,5.2868974 0 0 0 -5.1534419,0.206876 3.5997051,3.5997051 0 0 0 3.320496,2.088646 c -0.25968,2.291905 0.951916,4.963926 3.8847009,6.365398 0.06546,0.03147 0.126946,0.06546 0.194217,0.09548 -1.711786,-0.884283 -3.1251929,-2.556648 -3.3016889,-4.587064 z"
     inkscape:connector-curvature="0" />
  <path
     style="fill:url(#l);stroke-width:0.36167035"
     id="path1002"
     d="M 28.986407,11.241597 C 28.377354,9.7761088 27.141888,8.1938009 26.17442,7.693611 a 14.563019,14.563019 0 0 1 1.419556,4.254691 l 0.0025,0.02351 C 26.011668,8.0205607 23.324095,6.4274035 21.129118,2.958261 21.018085,2.7828508 20.907052,2.6070787 20.798913,2.4215416 20.737068,2.3155721 20.687518,2.2200915 20.64448,2.1322058 a 2.550861,2.550861 0 0 1 -0.209046,-0.5551637 0.03616703,0.03616703 0 0 0 -0.03182,-0.036162 0.04991051,0.04991051 0 0 0 -0.0264,0 c -0.0018,0 -0.0047,0.00322 -0.0069,0.00399 -0.0022,7.7e-4 -0.0069,0.00399 -0.01013,0.00539 l 0.0055,-0.00941 c -3.520915,2.061522 -4.715512,5.8778675 -4.82546,7.786764 0.163475,-0.011207 0.325503,-0.024955 0.492595,-0.024955 a 7.0742725,7.0742725 0 0 1 6.141886,3.5866859 4.8391494,4.8391494 0 0 0 -3.37981,-0.820631 c 5.041685,2.520843 3.689038,11.201655 -3.298071,10.873982 A 6.2333883,6.2333883 0 0 1 13.67292,22.590772 q -0.20579,-0.07704 -0.411581,-0.168539 c -0.0792,-0.03616 -0.158411,-0.07233 -0.236532,-0.112841 l 0.0098,0.0062 q -0.101992,-0.04883 -0.203983,-0.10163 c 0.06546,0.03147 0.126946,0.06546 0.194217,0.09548 -1.711785,-0.884645 -3.1251929,-2.55701 -3.3016879,-4.587427 0,0 0.6470279,-2.411256 4.6329969,-2.411256 0.430749,0 1.663684,-1.202554 1.685746,-1.551204 -0.0055,-0.113926 -2.444892,-1.085011 -3.396085,-2.021738 -0.508147,-0.500913 -0.749381,-0.742147 -0.963128,-0.923344 a 4.1906744,4.1906744 0 0 0 -0.36167,-0.274146 6.4984928,6.4984928 0 0 1 -0.03942,-3.4261034 10.381748,10.381748 0 0 0 -3.3740226,2.6076427 h -0.00651 C 7.3454978,9.0176554 7.3845578,6.6957317 7.4163854,6.2107318 A 2.5056522,2.5056522 0 0 0 6.9483836,6.4591989 10.208146,10.208146 0 0 0 5.5783761,7.6328195 12.240733,12.240733 0 0 0 4.2680445,9.2050006 v 0.00217 -0.00252 A 11.838556,11.838556 0 0 0 2.3873587,13.451788 l -0.018807,0.09259 c -0.026402,0.12333 -0.1446681,0.749743 -0.1616666,0.884284 0,0.01012 0,-0.01049 0,0 a 16.309163,16.309163 0 0 0 -0.2068768,1.954142 v 0.07233 a 14.017981,14.017981 0 0 0 27.8319837,2.370329 c 0.02351,-0.180835 0.04267,-0.359861 0.06365,-0.542505 a 14.415095,14.415095 0 0 0 -0.909235,-7.041361 z m -1.390623,0.720086 0.0025,0.01483 z"
     inkscape:connector-curvature="0" />
</svg>
