<?xml version="1.0" encoding="UTF-8" standalone="no"?>
<svg
   xmlns:dc="http://purl.org/dc/elements/1.1/"
   xmlns:cc="http://creativecommons.org/ns#"
   xmlns:rdf="http://www.w3.org/1999/02/22-rdf-syntax-ns#"
   xmlns:svg="http://www.w3.org/2000/svg"
   xmlns="http://www.w3.org/2000/svg"
   xmlns:xlink="http://www.w3.org/1999/xlink"
   xmlns:sodipodi="http://sodipodi.sourceforge.net/DTD/sodipodi-0.dtd"
   xmlns:inkscape="http://www.inkscape.org/namespaces/inkscape"
   inkscape:version="1.0 (4035a4fb49, 2020-05-01)"
   sodipodi:docname="help-browser.svg"
   id="svg12"
   version="1"
   height="32"
   width="32">
  <metadata
     id="metadata18">
    <rdf:RDF>
      <cc:Work
         rdf:about="">
        <dc:format>image/svg+xml</dc:format>
        <dc:type
           rdf:resource="http://purl.org/dc/dcmitype/StillImage" />
      </cc:Work>
    </rdf:RDF>
  </metadata>
  <defs
     id="defs16">
    <linearGradient
       id="linearGradient847"
       inkscape:collect="always">
      <stop
         id="stop843"
         offset="0"
         style="stop-color:#435ece;stop-opacity:1;" />
      <stop
         id="stop845"
         offset="1"
         style="stop-color:#6d82d9;stop-opacity:1" />
    </linearGradient>
    <linearGradient
       gradientUnits="userSpaceOnUse"
       y2="-15.5"
       x2="-1"
       y1="-15.5"
       x1="-30"
       id="linearGradient849"
       xlink:href="#linearGradient847"
       inkscape:collect="always" />
  </defs>
  <sodipodi:namedview
     inkscape:current-layer="svg12"
     inkscape:window-maximized="1"
     inkscape:window-y="0"
     inkscape:window-x="0"
     inkscape:cy="16"
     inkscape:cx="16"
     inkscape:zoom="20.8125"
     showgrid="false"
     id="namedview14"
     inkscape:window-height="1003"
     inkscape:window-width="1920"
     inkscape:pageshadow="2"
     inkscape:pageopacity="0"
     guidetolerance="10"
     gridtolerance="10"
     objecttolerance="10"
     borderopacity="1"
     bordercolor="#666666"
     pagecolor="#ffffff" />
  <rect
     id="rect2"
     transform="matrix(0,-1,-1,0,0,0)"
     ry="14.5"
     rx="14.5"
     y="-30"
     x="-31"
     height="29"
     width="29"
     style="opacity:0.2" />
  <rect
     id="rect4"
     transform="matrix(0,-1,-1,0,0,0)"
     ry="14.5"
     rx="14.5"
     y="-30"
     x="-30"
     height="29"
     width="29"
     style="fill:url(#linearGradient849);fill-opacity:1" />
  <path
     id="path8"
     d="M 15.499781,7 C 12.295281,7 9.699,9.7955 9.699,13 h 2.90039 c 0,-1.595 1.305391,-3.0996094 2.900391,-3.0996094 1.595,0 2.900391,1.3053904 2.900391,2.9003904 0,0.7975 -0.318969,1.520969 -0.855469,2.042969 l -1.798828,1.828125 c -1.044,1.0585 -1.695313,2.508516 -1.695313,4.103516 V 21 h 2.919922 c 0.09713,-1.807411 0.717891,-2.632321 1.675781,-3.603516 L 19.950953,16.0625 c 0.8265,-0.8265 1.349609,-1.985719 1.349609,-3.261719 C 21.300562,9.5962814 18.704281,7 15.499781,7 Z m -1.5,17 v 3 h 3 v -3 z"
     style="opacity:0.2" />
  <path
     id="path10"
     d="M 15.499781,6 C 12.295281,6 9.699,8.7955 9.699,12 h 2.90039 c 0,-1.595 1.305391,-3.0996094 2.900391,-3.0996094 1.595,0 2.900391,1.3053904 2.900391,2.9003904 0,0.7975 -0.318969,1.520969 -0.855469,2.042969 l -1.798828,1.828125 c -1.044,1.0585 -1.695313,2.508516 -1.695313,4.103516 V 20 h 2.919922 c 0.09713,-1.807411 0.717891,-2.632321 1.675781,-3.603516 L 19.950953,15.0625 c 0.8265,-0.8265 1.349609,-1.985719 1.349609,-3.261719 C 21.300562,8.5962814 18.704281,6 15.499781,6 Z m -1.5,17 v 3 h 3 v -3 z"
     style="fill:#ffffff" />
</svg>
