<?xml version="1.0" encoding="UTF-8" standalone="no"?>
<svg
   xmlns:dc="http://purl.org/dc/elements/1.1/"
   xmlns:cc="http://creativecommons.org/ns#"
   xmlns:rdf="http://www.w3.org/1999/02/22-rdf-syntax-ns#"
   xmlns:svg="http://www.w3.org/2000/svg"
   xmlns="http://www.w3.org/2000/svg"
   xmlns:xlink="http://www.w3.org/1999/xlink"
   xmlns:sodipodi="http://sodipodi.sourceforge.net/DTD/sodipodi-0.dtd"
   xmlns:inkscape="http://www.inkscape.org/namespaces/inkscape"
   width="32"
   height="32"
   version="1"
   id="svg12"
   sodipodi:docname="inkscape.svg"
   inkscape:version="0.92.4 5da689c313, 2019-01-14">
  <metadata
     id="metadata18">
    <rdf:RDF>
      <cc:Work
         rdf:about="">
        <dc:format>image/svg+xml</dc:format>
        <dc:type
           rdf:resource="http://purl.org/dc/dcmitype/StillImage" />
        <dc:title />
      </cc:Work>
    </rdf:RDF>
  </metadata>
  <defs
     id="defs16">
    <linearGradient
       inkscape:collect="always"
       id="linearGradient832">
      <stop
         style="stop-color:#3b3b3b;stop-opacity:1"
         offset="0"
         id="stop828" />
      <stop
         style="stop-color:#636363;stop-opacity:1"
         offset="1"
         id="stop830" />
    </linearGradient>
    <linearGradient
       inkscape:collect="always"
       xlink:href="#linearGradient832"
       id="linearGradient834"
       x1="33.372715"
       y1="59.660995"
       x2="31.996094"
       y2="4.0000463"
       gradientUnits="userSpaceOnUse"
       gradientTransform="matrix(0.48275874,0,0,0.48275874,0.55155998,0.55172437)" />
  </defs>
  <sodipodi:namedview
     pagecolor="#ffffff"
     bordercolor="#666666"
     borderopacity="1"
     objecttolerance="10"
     gridtolerance="10"
     guidetolerance="10"
     inkscape:pageopacity="0"
     inkscape:pageshadow="2"
     inkscape:window-width="1366"
     inkscape:window-height="711"
     id="namedview14"
     showgrid="false"
     inkscape:zoom="7.375"
     inkscape:cx="6.4703834"
     inkscape:cy="25.924239"
     inkscape:window-x="0"
     inkscape:window-y="25"
     inkscape:window-maximized="1"
     inkscape:current-layer="svg12" />
  <path
     style="opacity:0.2;fill:#000000;fill-opacity:1;fill-rule:evenodd;stroke-width:0.48275873"
     d="m 15.997954,3.0000155 c -0.797919,3.25e-4 -1.5741,0.299938 -2.185616,0.932517 L 2.9295247,15.171761 c -0.5996485,0.62036 -0.9177547,1.438234 -0.9296878,2.247845 -1.793e-4,0.01231 0,0.04218 0,0.05563 -1.129e-4,2.408724 6.0860363,0.06942 6.6662193,3.014413 0.313937,1.593857 -3.2840796,0.863894 -3.2840796,2.467538 0,1.881126 5.8435684,0.346598 7.1037184,2.137527 0.964613,1.37091 -2.452153,1.43042 -1.686827,2.742862 0.656509,1.125832 3.004762,0.404719 3.396283,1.917834 0.447207,1.728404 3.326346,1.535438 4.952991,0.165005 0.997145,-0.840083 -1.324742,-1.366174 -0.418642,-2.303475 0.90604,-0.937367 5.221495,-0.761186 4.980336,-2.795663 -0.159603,-1.346442 -1.829806,-1.494465 -1.855605,-3.015357 -0.09009,-1.288014 1.591353,-0.912278 6.231548,-2.194101 1.855411,-0.871725 1.92113,-1.334706 1.914063,-2.137526 -1.47e-4,-0.01591 0,-0.03771 0,-0.05469 -0.01057,-0.809545 -0.384788,-1.627505 -0.984375,-2.247845 L 18.185454,3.9325325 c -0.611648,-0.632645 -1.388096,-0.932192 -2.185615,-0.932517 z m 12.75539,19.3122355 c -0.214909,-0.0074 -0.431676,0.01158 -0.584591,0.05846 -0.288235,0.09113 -1.654156,0.143533 -1.541621,1.282328 1.237093,0.569133 3.123386,1.021744 3.348196,-0.116918 0.168779,-0.853885 -0.577159,-1.197736 -1.221984,-1.223872 z M 6.8142235,25.700049 c -0.1205372,0.01572 -0.2037195,0.07035 -0.3215246,0.121632 -0.9420319,0.409852 -1.5731243,1.272401 -0.6930225,1.649112 0.8802311,0.376621 1.4687085,-0.02137 2.2403018,-0.488417 0.771724,-0.467273 0.750724,-0.552371 0.694909,-0.732624 -0.106973,0.02446 -0.808473,-0.475408 -1.5472795,-0.549703 -0.1231139,-0.01179 -0.2528792,-0.01572 -0.3733842,0 z"
     id="path4-5"
     inkscape:connector-curvature="0" />
  <path
     style="fill:url(#linearGradient834);fill-opacity:1;fill-rule:evenodd;stroke-width:0.48275873"
     d="m 15.997954,2.0000004 c -0.797919,3.255e-4 -1.5741,0.299938 -2.185616,0.9325167 L 2.929524,14.171745 c -0.5996485,0.62036 -0.9177547,1.438234 -0.9296878,2.247845 -1.793e-4,0.01231 0,0.04218 0,0.05563 -1.129e-4,2.408725 6.0860363,0.06942 6.6662193,3.014414 0.313937,1.593857 -3.2840796,0.863894 -3.2840796,2.467538 0,1.881126 5.8435681,0.346598 7.1037191,2.137527 0.964613,1.37091 -2.452154,1.43042 -1.686828,2.742862 0.656509,1.125832 3.004763,0.404719 3.396284,1.917834 0.447207,1.728404 3.326346,1.535438 4.952991,0.165005 0.997145,-0.840083 -1.324742,-1.366174 -0.418642,-2.303475 0.90604,-0.937367 5.221495,-0.761186 4.980336,-2.795663 -0.159603,-1.346442 -1.829806,-1.494465 -1.855605,-3.015357 -0.09009,-1.288014 1.591353,-0.912278 6.231548,-2.194101 1.855411,-0.871725 1.92113,-1.334706 1.914063,-2.137527 -1.47e-4,-0.01591 0,-0.03771 0,-0.05469 -0.01057,-0.809545 -0.384788,-1.627505 -0.984375,-2.247845 L 18.185454,2.9325171 C 17.573806,2.2998726 16.797358,2.0003259 15.999839,2.0000004 Z m 12.75539,19.3122356 c -0.214909,-0.0074 -0.431676,0.01158 -0.584591,0.05846 -0.288235,0.09113 -1.654156,0.143533 -1.541621,1.282328 1.237093,0.569133 3.123386,1.021744 3.348196,-0.116918 0.168779,-0.853885 -0.577159,-1.197736 -1.221984,-1.223872 z M 6.8142228,24.700034 c -0.1205372,0.01572 -0.2037195,0.07035 -0.3215246,0.121632 -0.9420319,0.409852 -1.5731243,1.272401 -0.6930225,1.649112 0.8802311,0.376621 1.4687085,-0.02137 2.2403018,-0.488417 0.771724,-0.467273 0.750724,-0.552371 0.694909,-0.732624 -0.106973,0.02446 -0.808473,-0.475408 -1.5472795,-0.549703 -0.1231139,-0.01179 -0.2528792,-0.01572 -0.3733842,0 z"
     id="path4"
     inkscape:connector-curvature="0" />
  <path
     style="opacity:0.2;fill-rule:evenodd;stroke-width:0.48275873"
     d="m 16.049917,5.8645744 c 0.821134,0.007 3.071137,2.7914037 5.078606,4.8766726 0.564668,0.757668 -0.218414,1.534203 -0.218414,1.534203 L 16.705438,9.974113 14.848769,12.494784 13.210767,10.029447 12.227432,13.864785 9.3334285,12.11145 10.098095,11.124781 14.630101,6.467642 c 0.347634,-0.3543744 0.613841,-0.6090078 1.419802,-0.6027344 z"
     id="path6"
     inkscape:connector-curvature="0" />
  <path
     style="fill:#ffffff;fill-rule:evenodd;stroke-width:0.48275873"
     d="m 16.049917,5.3817933 c 0.821134,0.00699 3.071137,2.791404 5.078606,4.8766727 0.564668,0.757668 -0.218414,1.534202 -0.218414,1.534202 L 16.705438,9.4913321 14.848769,12.012002 13.210767,9.5466657 12.227432,13.382004 9.3334285,11.628668 10.098095,10.642 14.630101,5.984861 c 0.347634,-0.3543743 0.613841,-0.6090076 1.419802,-0.6027341 z"
     id="path8"
     inkscape:connector-curvature="0" />
</svg>
