<?xml version="1.0" encoding="UTF-8" standalone="no"?>
<svg
   xmlns:dc="http://purl.org/dc/elements/1.1/"
   xmlns:cc="http://creativecommons.org/ns#"
   xmlns:rdf="http://www.w3.org/1999/02/22-rdf-syntax-ns#"
   xmlns:svg="http://www.w3.org/2000/svg"
   xmlns="http://www.w3.org/2000/svg"
   xmlns:xlink="http://www.w3.org/1999/xlink"
   xmlns:sodipodi="http://sodipodi.sourceforge.net/DTD/sodipodi-0.dtd"
   xmlns:inkscape="http://www.inkscape.org/namespaces/inkscape"
   id="Layer_1"
   version="1.1"
   viewBox="0 0 32 32"
   xml:space="preserve"
   sodipodi:docname="maps.svg"
   width="32"
   height="32"
   inkscape:version="0.92.4 5da689c313, 2019-01-14"><metadata
     id="metadata15"><rdf:RDF><cc:Work
         rdf:about=""><dc:format>image/svg+xml</dc:format><dc:type
           rdf:resource="http://purl.org/dc/dcmitype/StillImage" /><dc:title></dc:title></cc:Work></rdf:RDF></metadata><defs
     id="defs13"><linearGradient
       inkscape:collect="always"
       id="linearGradient836"><stop
         style="stop-color:#e70000;stop-opacity:1"
         offset="0"
         id="stop832" /><stop
         style="stop-color:#ff01a0;stop-opacity:1"
         offset="1"
         id="stop834" /></linearGradient><linearGradient
       inkscape:collect="always"
       xlink:href="#linearGradient836"
       id="linearGradient838"
       x1="0.65180868"
       y1="34.516819"
       x2="64.426826"
       y2="31.280909"
       gradientUnits="userSpaceOnUse"
       gradientTransform="matrix(0.5090909,0,0,0.5,-0.29090895,6e-7)" /><filter
       inkscape:collect="always"
       style="color-interpolation-filters:sRGB"
       id="filter915"
       x="-0.096000001"
       width="1.192"
       y="-0.096000001"
       height="1.192"><feGaussianBlur
         inkscape:collect="always"
         stdDeviation="0.96000016"
         id="feGaussianBlur917" /></filter></defs><sodipodi:namedview
     pagecolor="#ffffff"
     bordercolor="#666666"
     borderopacity="1"
     objecttolerance="10"
     gridtolerance="10"
     guidetolerance="10"
     inkscape:pageopacity="0"
     inkscape:pageshadow="2"
     inkscape:window-width="1366"
     inkscape:window-height="711"
     id="namedview11"
     showgrid="false"
     inkscape:zoom="2.7812867"
     inkscape:cx="21.611609"
     inkscape:cy="27.332499"
     inkscape:window-x="0"
     inkscape:window-y="25"
     inkscape:window-maximized="1"
     inkscape:current-layer="Layer_1" /><style
     type="text/css"
     id="style2">
	.st0{fill:none;stroke:#6C3DB7;stroke-width:4;stroke-linecap:round;stroke-linejoin:round;stroke-miterlimit:10;}
	.st1{fill:none;stroke:#1F992A;stroke-width:4;stroke-linecap:round;stroke-linejoin:round;stroke-miterlimit:10;}
	.st2{fill:none;stroke:#6A83BA;stroke-width:4;stroke-linecap:round;stroke-linejoin:round;stroke-miterlimit:10;}
	.st3{fill:#8A8AFF;stroke:#8A8AFF;stroke-width:2;stroke-linecap:round;stroke-linejoin:round;stroke-miterlimit:10;}
	.st4{fill:#6C3DB7;stroke:#6C3DB7;stroke-width:2;stroke-linecap:round;stroke-linejoin:round;stroke-miterlimit:10;}
	.st5{fill:#A576FF;stroke:#A576FF;stroke-width:2;stroke-linecap:round;stroke-linejoin:round;stroke-miterlimit:10;}
	.st6{fill:#F2BB41;stroke:#F2BB41;stroke-width:2;stroke-linecap:round;stroke-linejoin:round;stroke-miterlimit:10;}
	.st7{fill:#E08838;stroke:#E08838;stroke-width:2;stroke-linecap:round;stroke-linejoin:round;stroke-miterlimit:10;}
	.st8{fill:#1F992A;stroke:#1F992A;stroke-width:2;stroke-linecap:round;stroke-linejoin:round;stroke-miterlimit:10;}
	.st9{fill:#5EC11E;stroke:#5EC11E;stroke-width:2;stroke-linecap:round;stroke-linejoin:round;stroke-miterlimit:10;}
	.st10{fill:#E3FAFF;stroke:#E3FAFF;stroke-width:2;stroke-linecap:round;stroke-linejoin:round;stroke-miterlimit:10;}
	.st11{fill:#FF5093;stroke:#FF5093;stroke-width:2;stroke-linecap:round;stroke-linejoin:round;stroke-miterlimit:10;}
	.st12{fill:#B7257F;stroke:#B7257F;stroke-width:2;stroke-linecap:round;stroke-linejoin:round;stroke-miterlimit:10;}
	.st13{fill:#5189E5;stroke:#5189E5;stroke-width:2;stroke-linecap:round;stroke-linejoin:round;stroke-miterlimit:10;}
	.st14{fill:#6EBAFF;stroke:#6EBAFF;stroke-width:2;stroke-linecap:round;stroke-linejoin:round;stroke-miterlimit:10;}
	.st15{fill:#EDD977;stroke:#EDD977;stroke-width:2;stroke-linecap:round;stroke-linejoin:round;stroke-miterlimit:10;}
	.st16{fill:#8C43FF;stroke:#8C43FF;stroke-width:2;stroke-linecap:round;stroke-linejoin:round;stroke-miterlimit:10;}
	.st17{fill:#5252BA;stroke:#5252BA;stroke-width:2;stroke-linecap:round;stroke-linejoin:round;stroke-miterlimit:10;}
	.st18{fill:none;stroke:#E3FAFF;stroke-width:4;stroke-linecap:round;stroke-linejoin:round;stroke-miterlimit:10;}
	.st19{fill:#354C75;stroke:#354C75;stroke-width:2;stroke-linecap:round;stroke-linejoin:round;stroke-miterlimit:10;}
</style><path
     inkscape:connector-curvature="0"
     style="opacity:0.2;fill:#000000;fill-opacity:1;stroke:none;stroke-width:2.01810002;stroke-linecap:round;stroke-linejoin:round;stroke-miterlimit:10"
     d="M 16,3 C 9.78909,3 4.8,7.9 4.8,14 4.8,21.999999 16,31 16,31 16,31 27.2,21.999999 27.2,14 27.2,7.9 22.21091,3 16,3 Z m 0,6.4999998 a 4.5818181,4.5 0 0 1 0.457386,0.022463 4.5818181,4.5 0 0 1 0.452415,0.067382 4.5818181,4.5 0 0 1 0.44446,0.111328 4.5818181,4.5 0 0 1 0.429545,0.1542975 4.5818181,4.5 0 0 1 0.412643,0.1953117 4.5818181,4.5 0 0 1 0.390767,0.235352 4.5818181,4.5 0 0 1 0.364914,0.272461 4.5818181,4.5 0 0 1 0.335086,0.306641 4.5818181,4.5 0 0 1 0.302273,0.33789 4.5818181,4.5 0 0 1 0.265483,0.365235 4.5818181,4.5 0 0 1 0.228693,0.390625 4.5818181,4.5 0 0 1 0.186931,0.410156 4.5818181,4.5 0 0 1 0.144177,0.426757 4.5818181,4.5 0 0 1 0.100426,0.439453 4.5818181,4.5 0 0 1 0.05469,0.44629 4.5818181,4.5 0 0 1 0.01194,0.31836 4.5818181,4.5 0 0 1 -0.02287,0.449219 4.5818181,4.5 0 0 1 -0.06861,0.444335 4.5818181,4.5 0 0 1 -0.113352,0.436524 4.5818181,4.5 0 0 1 -0.157102,0.421875 4.5818181,4.5 0 0 1 -0.198864,0.405274 4.5818181,4.5 0 0 1 -0.239631,0.383789 4.5818181,4.5 0 0 1 -0.277415,0.358398 4.5818181,4.5 0 0 1 -0.312215,0.329102 4.5818181,4.5 0 0 1 -0.344034,0.296875 4.5818181,4.5 0 0 1 -0.371875,0.260742 4.5818181,4.5 0 0 1 -0.397728,0.224609 4.5818181,4.5 0 0 1 -0.417613,0.183594 4.5818181,4.5 0 0 1 -0.434518,0.141601 4.5818181,4.5 0 0 1 -0.447442,0.09863 4.5818181,4.5 0 0 1 -0.454404,0.05371 4.5818181,4.5 0 0 1 -0.324149,0.01172 4.5818181,4.5 0 0 1 -0.457386,-0.02246 4.5818181,4.5 0 0 1 -0.452414,-0.06738 4.5818181,4.5 0 0 1 -0.444461,-0.111328 4.5818181,4.5 0 0 1 -0.429545,-0.154297 4.5818181,4.5 0 0 1 -0.412643,-0.195311 4.5818181,4.5 0 0 1 -0.390766,-0.235352 4.5818181,4.5 0 0 1 -0.364915,-0.272461 4.5818181,4.5 0 0 1 -0.335085,-0.306641 4.5818181,4.5 0 0 1 -0.302273,-0.337891 4.5818181,4.5 0 0 1 -0.265483,-0.365232 4.5818181,4.5 0 0 1 -0.228693,-0.390626 4.5818181,4.5 0 0 1 -0.186932,-0.410155 4.5818181,4.5 0 0 1 -0.144177,-0.426758 4.5818181,4.5 0 0 1 -0.100426,-0.439453 4.5818181,4.5 0 0 1 -0.05468,-0.446289 4.5818181,4.5 0 0 1 -0.01194,-0.31836 4.5818181,4.5 0 0 1 0.02287,-0.449219 4.5818181,4.5 0 0 1 0.06861,-0.444336 4.5818181,4.5 0 0 1 0.113353,-0.436523 4.5818181,4.5 0 0 1 0.157102,-0.421875 4.5818181,4.5 0 0 1 0.198863,-0.405274 4.5818181,4.5 0 0 1 0.239631,-0.383789 4.5818181,4.5 0 0 1 0.277415,-0.358398 4.5818181,4.5 0 0 1 0.312216,-0.329101 4.5818181,4.5 0 0 1 0.344034,-0.296876 4.5818181,4.5 0 0 1 0.371875,-0.260742 4.5818181,4.5 0 0 1 0.397727,-0.2246091 4.5818181,4.5 0 0 1 0.417613,-0.1835939 4.5818181,4.5 0 0 1 0.434518,-0.1416016 4.5818181,4.5 0 0 1 0.447443,-0.098633 4.5818181,4.5 0 0 1 0.454403,-0.053711 A 4.5818181,4.5 0 0 1 16,9.5000012 Z"
     id="path4-3" /><path
     style="fill:#a30000;fill-opacity:1;stroke:none;stroke-width:2.69079995;stroke-linecap:round;stroke-linejoin:round;stroke-miterlimit:10"
     d="m 16,8.0000003 a 6.1090909,6 0 0 0 -0.432197,0.015624 6.1090909,6 0 0 0 -0.605871,0.071614 6.1090909,6 0 0 0 -0.596591,0.1315104 6.1090909,6 0 0 0 -0.579356,0.1888019 6.1090909,6 0 0 0 -0.556818,0.2447928 6.1090909,6 0 0 0 -0.530303,0.2994782 6.1090909,6 0 0 0 -0.495834,0.3476564 6.1090909,6 0 0 0 -0.458711,0.3958339 6.1090909,6 0 0 0 -0.416289,0.4388021 6.1090909,6 0 0 0 -0.369886,0.477864 6.1090909,6 0 0 0 -0.319508,0.511719 6.1090909,6 0 0 0 -0.265151,0.540365 6.1090909,6 0 0 0 -0.209469,0.5625 6.1090909,6 0 0 0 -0.151136,0.582031 6.1090909,6 0 0 0 -0.09148,0.592448 6.1090909,6 0 0 0 -0.03049,0.598958 6.1090909,6 0 0 0 0.01591,0.42448 6.1090909,6 0 0 0 0.07292,0.595052 6.1090909,6 0 0 0 0.133901,0.585937 6.1090909,6 0 0 0 0.192236,0.569011 6.1090909,6 0 0 0 0.249243,0.546875 6.1090909,6 0 0 0 0.304924,0.520833 6.1090909,6 0 0 0 0.353977,0.48698 6.1090909,6 0 0 0 0.40303,0.45052 6.1090909,6 0 0 0 0.446781,0.408853 6.1090909,6 0 0 0 0.486553,0.363282 6.1090909,6 0 0 0 0.521022,0.313803 6.1090909,6 0 0 0 0.55019,0.260416 6.1090909,6 0 0 0 0.572727,0.205729 6.1090909,6 0 0 0 0.592613,0.148437 6.1090909,6 0 0 0 0.60322,0.08984 6.1090909,6 0 0 0 0.609849,0.02995 6.1090909,6 0 0 0 0.432197,-0.01562 6.1090909,6 0 0 0 0.605871,-0.07161 6.1090909,6 0 0 0 0.596591,-0.131511 6.1090909,6 0 0 0 0.579355,-0.188802 6.1090909,6 0 0 0 0.556819,-0.244792 6.1090909,6 0 0 0 0.530303,-0.299479 6.1090909,6 0 0 0 0.495834,-0.347656 6.1090909,6 0 0 0 0.458712,-0.395834 6.1090909,6 0 0 0 0.416287,-0.438802 6.1090909,6 0 0 0 0.369887,-0.477864 6.1090909,6 0 0 0 0.319508,-0.511719 6.1090909,6 0 0 0 0.265151,-0.540365 6.1090909,6 0 0 0 0.209469,-0.5625 6.1090909,6 0 0 0 0.151137,-0.582031 6.1090909,6 0 0 0 0.09148,-0.592448 6.1090909,6 0 0 0 0.03049,-0.598958 6.1090909,6 0 0 0 -0.01591,-0.42448 6.1090909,6 0 0 0 -0.07292,-0.595052 A 6.1090909,6 0 0 0 21.886364,12.39453 6.1090909,6 0 0 0 21.694129,11.82552 6.1090909,6 0 0 0 21.444886,11.278645 6.1090909,6 0 0 0 21.139963,10.757811 6.1090909,6 0 0 0 20.785985,10.270832 6.1090909,6 0 0 0 20.382954,9.8203111 6.1090909,6 0 0 0 19.936174,9.4114572 6.1090909,6 0 0 0 19.449621,9.0481754 6.1090909,6 0 0 0 18.928598,8.7343738 6.1090909,6 0 0 0 18.378409,8.473957 6.1090909,6 0 0 0 17.805682,8.2682284 6.1090909,6 0 0 0 17.213067,8.1197906 6.1090909,6 0 0 0 16.609848,8.0299463 6.1090909,6 0 0 0 16,8.0000003 Z"
     id="path830"
     inkscape:connector-curvature="0" /><path
     style="opacity:0.5;fill:none;fill-opacity:1;stroke:#000000;stroke-width:4;stroke-linecap:round;stroke-linejoin:round;stroke-miterlimit:10;stroke-dasharray:none;stroke-opacity:1;filter:url(#filter915)"
     d="m 32,13.999996 a 12,12 0 0 0 -0.848959,0.03125 12,12 0 0 0 -1.190104,0.143228 12,12 0 0 0 -1.171874,0.263021 12,12 0 0 0 -1.138021,0.377604 12,12 0 0 0 -1.09375,0.489585 12,12 0 0 0 -1.041667,0.598957 12,12 0 0 0 -0.973959,0.695313 12,12 0 0 0 -0.901041,0.791667 12,12 0 0 0 -0.817708,0.877604 12,12 0 0 0 -0.726563,0.955729 12,12 0 0 0 -0.627604,1.023437 12,12 0 0 0 -0.520833,1.08073 12,12 0 0 0 -0.411458,1.125 12,12 0 0 0 -0.296875,1.164062 12,12 0 0 0 -0.179688,1.184896 12,12 0 0 0 -0.0599,1.197917 12,12 0 0 0 0.03125,0.848959 12,12 0 0 0 0.143228,1.190104 12,12 0 0 0 0.263021,1.171874 12,12 0 0 0 0.377604,1.138021 12,12 0 0 0 0.489585,1.09375 12,12 0 0 0 0.598957,1.041667 12,12 0 0 0 0.695313,0.973959 12,12 0 0 0 0.791667,0.901041 12,12 0 0 0 0.877604,0.817708 12,12 0 0 0 0.955729,0.726563 12,12 0 0 0 1.023437,0.627604 12,12 0 0 0 1.08073,0.520833 12,12 0 0 0 1.125,0.411458 12,12 0 0 0 1.164062,0.296875 12,12 0 0 0 1.184896,0.179688 12,12 0 0 0 1.197917,0.0599 12,12 0 0 0 0.848959,-0.03125 12,12 0 0 0 1.190104,-0.143228 12,12 0 0 0 1.171874,-0.263021 12,12 0 0 0 1.138021,-0.377604 12,12 0 0 0 1.09375,-0.489585 12,12 0 0 0 1.041667,-0.598957 12,12 0 0 0 0.973959,-0.695313 12,12 0 0 0 0.901041,-0.791667 12,12 0 0 0 0.817708,-0.877604 12,12 0 0 0 0.726563,-0.955729 12,12 0 0 0 0.627604,-1.023437 12,12 0 0 0 0.520833,-1.08073 12,12 0 0 0 0.411458,-1.125 12,12 0 0 0 0.296875,-1.164062 A 12,12 0 0 0 43.9401,27.197917 12,12 0 0 0 44,26 12,12 0 0 0 43.96875,25.151041 12,12 0 0 0 43.825521,23.960937 12,12 0 0 0 43.5625,22.789063 12,12 0 0 0 43.184896,21.651042 12,12 0 0 0 42.695312,20.557292 12,12 0 0 0 42.096355,19.515625 12,12 0 0 0 41.401041,18.541666 12,12 0 0 0 40.609375,17.640625 12,12 0 0 0 39.73177,16.822917 12,12 0 0 0 38.776041,16.096354 12,12 0 0 0 37.752604,15.46875 12,12 0 0 0 36.671875,14.947917 12,12 0 0 0 35.546875,14.536459 12,12 0 0 0 34.382812,14.239584 12,12 0 0 0 33.197917,14.059896 12,12 0 0 0 32,13.999996 Z"
     id="path830-7"
     inkscape:connector-curvature="0"
     transform="matrix(0.4270896,0,0,0.419463,2.3331335,3.0939628)" /><path
     style="fill:url(#linearGradient838);fill-opacity:1;stroke:none;stroke-width:2.01810002;stroke-linecap:round;stroke-linejoin:round;stroke-miterlimit:10"
     d="M 16,2 C 9.7890898,2 4.8000001,6.9 4.8000001,13 4.8000001,20.999999 16,30 16,30 16,30 27.2,20.999999 27.2,13 27.199999,6.9 22.21091,2 16,2 Z m 0,6.4999998 a 4.5818181,4.5 0 0 1 0.457386,0.022463 4.5818181,4.5 0 0 1 0.452415,0.067382 4.5818181,4.5 0 0 1 0.444461,0.111328 4.5818181,4.5 0 0 1 0.429545,0.1542975 4.5818181,4.5 0 0 1 0.412642,0.1953119 4.5818181,4.5 0 0 1 0.390767,0.2353519 4.5818181,4.5 0 0 1 0.364915,0.272461 4.5818181,4.5 0 0 1 0.335085,0.3066406 4.5818181,4.5 0 0 1 0.302273,0.3378903 4.5818181,4.5 0 0 1 0.265482,0.365235 4.5818181,4.5 0 0 1 0.228693,0.390625 4.5818181,4.5 0 0 1 0.186932,0.410156 4.5818181,4.5 0 0 1 0.144177,0.426757 4.5818181,4.5 0 0 1 0.100426,0.439453 4.5818181,4.5 0 0 1 0.05469,0.44629 4.5818181,4.5 0 0 1 0.01193,0.31836 4.5818181,4.5 0 0 1 -0.02287,0.449219 4.5818181,4.5 0 0 1 -0.06861,0.444336 4.5818181,4.5 0 0 1 -0.113353,0.436523 4.5818181,4.5 0 0 1 -0.157102,0.421875 4.5818181,4.5 0 0 1 -0.198863,0.405274 4.5818181,4.5 0 0 1 -0.239632,0.383789 4.5818181,4.5 0 0 1 -0.277415,0.358398 4.5818181,4.5 0 0 1 -0.312214,0.329102 4.5818181,4.5 0 0 1 -0.344035,0.296875 4.5818181,4.5 0 0 1 -0.371875,0.260742 4.5818181,4.5 0 0 1 -0.397727,0.224609 4.5818181,4.5 0 0 1 -0.417614,0.183594 4.5818181,4.5 0 0 1 -0.434517,0.141602 4.5818181,4.5 0 0 1 -0.447443,0.09863 4.5818181,4.5 0 0 1 -0.454404,0.05371 A 4.5818181,4.5 0 0 1 16,17.500001 4.5818181,4.5 0 0 1 15.542613,17.477538 4.5818181,4.5 0 0 1 15.090199,17.410156 4.5818181,4.5 0 0 1 14.645739,17.298828 4.5818181,4.5 0 0 1 14.216194,17.144531 4.5818181,4.5 0 0 1 13.803551,16.949219 4.5818181,4.5 0 0 1 13.412785,16.713867 4.5818181,4.5 0 0 1 13.04787,16.441406 4.5818181,4.5 0 0 1 12.712785,16.134765 4.5818181,4.5 0 0 1 12.410512,15.796875 4.5818181,4.5 0 0 1 12.145028,15.431641 4.5818181,4.5 0 0 1 11.916335,15.041015 4.5818181,4.5 0 0 1 11.729403,14.63086 4.5818181,4.5 0 0 1 11.585227,14.204102 4.5818181,4.5 0 0 1 11.484801,13.764649 4.5818181,4.5 0 0 1 11.43011,13.31836 4.5818181,4.5 0 0 1 11.418182,13 a 4.5818181,4.5 0 0 1 0.02287,-0.449219 4.5818181,4.5 0 0 1 0.06861,-0.444336 4.5818181,4.5 0 0 1 0.113352,-0.436523 4.5818181,4.5 0 0 1 0.157103,-0.421875 4.5818181,4.5 0 0 1 0.198863,-0.405273 4.5818181,4.5 0 0 1 0.239631,-0.383789 4.5818181,4.5 0 0 1 0.277415,-0.358399 4.5818181,4.5 0 0 1 0.312216,-0.3291013 4.5818181,4.5 0 0 1 0.344034,-0.2968749 4.5818181,4.5 0 0 1 0.371875,-0.260743 4.5818181,4.5 0 0 1 0.397727,-0.224609 4.5818181,4.5 0 0 1 0.417614,-0.1835939 4.5818181,4.5 0 0 1 0.434517,-0.1416016 4.5818181,4.5 0 0 1 0.447443,-0.098633 4.5818181,4.5 0 0 1 0.454404,-0.053711 A 4.5818181,4.5 0 0 1 16,8.4999998 Z"
     id="path4"
     inkscape:connector-curvature="0" /></svg>