<?xml version="1.0" encoding="UTF-8" standalone="no"?>
<svg
   width="48"
   height="48"
   version="1"
   id="svg14"
   sodipodi:docname="muon2.svg"
   inkscape:version="1.2.1 (9c6d41e410, 2022-07-14)"
   xml:space="preserve"
   xmlns:inkscape="http://www.inkscape.org/namespaces/inkscape"
   xmlns:sodipodi="http://sodipodi.sourceforge.net/DTD/sodipodi-0.dtd"
   xmlns="http://www.w3.org/2000/svg"
   xmlns:svg="http://www.w3.org/2000/svg"><defs
     id="defs18" /><sodipodi:namedview
     id="namedview16"
     pagecolor="#ffffff"
     bordercolor="#000000"
     borderopacity="0.25"
     inkscape:showpageshadow="2"
     inkscape:pageopacity="0.0"
     inkscape:pagecheckerboard="0"
     inkscape:deskcolor="#d1d1d1"
     showgrid="false"
     inkscape:zoom="4"
     inkscape:cx="-14.75"
     inkscape:cy="28.375"
     inkscape:current-layer="svg14" /><g
     id="g379"><path
       fill="#e4e4e4"
       d="m 18,4.5 -2,2 v 4 H 4 v 30 c 0,1.108 0.892,2 2,2 h 36 c 1.108,0 2,-0.892 2,-2 v -30 H 32 v -4 l -2,-2 z m 0,2 h 12 v 4 H 18 Z"
       id="path2"
       style="fill:#ececec" /><path
       opacity="0.2"
       d="m 18,6.5 v 1 h 12 v -1 z m -14,34 v 1 c 0,1.108 0.892,2 2,2 h 36 c 1.108,0 2,-0.892 2,-2 v -1 c 0,1.108 -0.892,2 -2,2 H 6 c -1.108,0 -2,-0.892 -2,-2 z"
       id="path4" /><path
       fill="#ffffff"
       opacity="0.2"
       d="m 18,4.5 -2,2 v 1 l 2,-2 h 12 l 2,2 v -1 l -2,-2 z m -14,6 v 1 h 12 v -1 z m 14,0 v 1 h 12 v -1 z m 14,0 v 1 h 12 v -1 z"
       id="path12" /><g
       id="g363"
       transform="matrix(0.68965518,0,0,0.68965518,53.629291,21.759205)"><path
         style="opacity:0.1"
         d="m -54.963451,-6.626176 c -1.108,0 -2,0.892 -2,2 v 8 c 0,1.108 0.892,2 2,2 h 8 c 1.108,0 2,-0.892 2,-2 v -8 c 0,-1.108 -0.892,-2 -2,-2 z m 16,0 c -1.108,0 -2,0.892 -2,2 v 8 c 0,1.108 0.892,2 2,2 h 8 c 1.108,0 2,-0.892 2,-2 v -8 c 0,-1.108 -0.892,-2 -2,-2 z m -16,16 c -1.108,0 -2,0.892 -2,2 v 8 c 0,1.108 0.892,2 2,2 h 8 c 1.108,0 2,-0.892 2,-2 v -8 c 0,-1.108 -0.892,-2 -2,-2 z m 20,0 c -1.108,0 -2,0.910404 -2,2.041016 v 3.958984 h -3.142578 a 0.85726445,0.75009309 0 0 0 -0.607422,1.28125 l 5.144531,4.5 a 0.85726445,0.75009309 0 0 0 1.210938,0 l 5.144531,-4.5 a 0.85726445,0.75009309 0 0 0 -0.607422,-1.28125 h -3.142578 V 11.41484 c 0,-1.130612 -0.892,-2.041016 -2,-2.041016 z"
         id="path6" /><rect
         style="fill:#03a5ee;fill-opacity:1"
         width="12"
         height="12"
         x="-56.963451"
         y="-7.6258478"
         rx="2"
         ry="2"
         id="rect10" /><rect
         style="fill:#ff9107"
         width="12"
         height="12"
         x="-40.963451"
         y="-7.6258478"
         rx="2"
         ry="2"
         id="rect12" /><rect
         style="fill:#f54235;fill-opacity:1"
         width="12"
         height="12"
         x="-56.963451"
         y="8.3741522"
         rx="2"
         ry="2"
         id="rect14" /><g
         id="g354"><path
           style="fill:#4caf50"
           d="m -34.963451,8.374152 c 1.108,0 2,0.910204 2,2.040816 v 5.918368 c 0,1.130612 -0.892,2.040816 -2,2.040816 -1.108,0 -2,-0.910204 -2,-2.040816 v -5.918368 c 0,-1.130612 0.892,-2.040816 2,-2.040816 z"
           id="path16" /><path
           style="fill:#47a44b;fill-opacity:1"
           d="m -40.106523,14.374152 a 0.85726445,0.75009309 0 0 0 -0.606052,1.280304 l 5.143072,4.500109 a 0.85726445,0.75009309 0 0 0 1.212104,0 l 5.143072,-4.500109 a 0.85726445,0.75009309 0 0 0 -0.606052,-1.280304 z"
           id="path18" /></g></g></g></svg>
