<?xml version="1.0" encoding="UTF-8" standalone="no"?>
<svg
   width="48"
   height="48"
   x="0"
   y="0"
   version="1.1"
   id="svg30"
   sodipodi:docname="nomacs.svg"
   inkscape:version="1.2.1 (9c6d41e410, 2022-07-14)"
   xmlns:inkscape="http://www.inkscape.org/namespaces/inkscape"
   xmlns:sodipodi="http://sodipodi.sourceforge.net/DTD/sodipodi-0.dtd"
   xmlns="http://www.w3.org/2000/svg"
   xmlns:svg="http://www.w3.org/2000/svg">
  <defs
     id="defs34" />
  <sodipodi:namedview
     id="namedview32"
     pagecolor="#ffffff"
     bordercolor="#000000"
     borderopacity="0.25"
     inkscape:showpageshadow="2"
     inkscape:pageopacity="0.0"
     inkscape:pagecheckerboard="0"
     inkscape:deskcolor="#d1d1d1"
     showgrid="false"
     inkscape:zoom="21.395833"
     inkscape:cx="24.046738"
     inkscape:cy="24.046738"
     inkscape:current-layer="svg30" />
  <path
     style="opacity:0.2"
     d="M 7,5 C 5.892,5 5,5.892 5,7 v 6 c 0,1.108 0.892,2 2,2 h 6 c 1.108,0 2,-0.892 2,-2 V 7 C 15,5.892 14.108,5 13,5 Z m 29,0 c -1.108,0 -2,0.892 -2,2 v 6 c 0,1.108 0.892,2 2,2 h 6 c 1.108,0 2,-0.892 2,-2 V 7 C 44,5.892 43.108,5 42,5 Z M 7,34 c -1.108,0 -2,0.892 -2,2 v 6 c 0,1.108 0.892,2 2,2 h 6 c 1.108,0 2,-0.892 2,-2 v -6 c 0,-1.108 -0.892,-2 -2,-2 z m 29,0 c -1.108,0 -2,0.892 -2,2 v 6 c 0,1.108 0.892,2 2,2 h 6 c 1.108,0 2,-0.892 2,-2 v -6 c 0,-1.108 -0.892,-2 -2,-2 z"
     id="path2" />
  <rect
     style="fill:#006699"
     width="10"
     height="10"
     x="5"
     y="33"
     rx="2"
     ry="2"
     id="rect4" />
  <rect
     style="fill:#006699"
     width="10"
     height="10"
     x="34"
     y="33"
     rx="2"
     ry="2"
     id="rect6" />
  <rect
     style="fill:#006699"
     width="10"
     height="10"
     x="5"
     y="4"
     rx="2"
     ry="2"
     id="rect8" />
  <rect
     style="fill:#006699"
     width="10"
     height="10"
     x="34"
     y="4"
     rx="2"
     ry="2"
     id="rect10" />
  <path
     style="opacity:0.1;fill:#ffffff"
     d="M 7 4 C 5.892 4 5 4.892 5 6 L 5 7 C 5 5.892 5.892 5 7 5 L 13 5 C 14.108 5 15 5.892 15 7 L 15 6 C 15 4.892 14.108 4 13 4 L 7 4 z M 36 4 C 34.892 4 34 4.892 34 6 L 34 7 C 34 5.892 34.892 5 36 5 L 42 5 C 43.108 5 44 5.892 44 7 L 44 6 C 44 4.892 43.108 4 42 4 L 36 4 z M 7 33 C 5.892 33 5 33.892 5 35 L 5 36 C 5 34.892 5.892 34 7 34 L 13 34 C 14.108 34 15 34.892 15 36 L 15 35 C 15 33.892 14.108 33 13 33 L 7 33 z M 36 33 C 34.892 33 34 33.892 34 35 L 34 36 C 34 34.892 34.892 34 36 34 L 42 34 C 43.108 34 44 34.892 44 36 L 44 35 C 44 33.892 43.108 33 42 33 L 36 33 z"
     id="path12" />
  <rect
     style="fill:#ececec"
     class="st0"
     width="33"
     height="33"
     x="8"
     y="7"
     id="rect14" />
  <path
     style="opacity:0.1"
     d="m 32.470703,9.9861781 a 1.50015,1.50015 0 0 0 -1.03125,0.4531249 L 27.878906,13.99985 H 13 L 23,25.042819 V 35.99985 h -4.5 a 1.50015,1.50015 0 1 0 0,3 h 12 a 1.50015,1.50015 0 1 0 0,-3 H 26 V 25.042819 L 36,13.99985 h -3.878906 l 1.439453,-1.439453 A 1.50015,1.50015 0 0 0 32.470703,9.9861781 Z"
     id="path16" />
  <path
     style="fill:none;stroke:#006699;stroke-width:3;stroke-linecap:round;stroke-linejoin:round"
     d="m 18.5,36.5 h 12"
     id="path18" />
  <rect
     style="fill:#006699"
     width="3"
     height="15"
     x="23"
     y="21"
     id="rect20" />
  <path
     style="fill:none;stroke:#006699;stroke-width:3;stroke-linecap:round"
     d="M 32.5,10.5 25,18"
     id="path22" />
  <path
     style="fill:#006699"
     d="M 13,13 H 36 L 24.5,25.7 Z"
     id="path24" />
  <rect
     style="opacity:0.2"
     width="33"
     height="1"
     x="8"
     y="40"
     id="rect26" />
  <rect
     style="opacity:0.2;fill:#ffffff"
     width="33"
     height="1"
     x="8"
     y="7"
     id="rect28" />
</svg>
