<?xml version="1.0" encoding="UTF-8" standalone="no"?>
<svg
   width="48"
   height="48"
   version="1"
   id="svg28"
   sodipodi:docname="org.gnome.Music.svg"
   inkscape:version="1.2.1 (9c6d41e410, 2022-07-14)"
   xmlns:inkscape="http://www.inkscape.org/namespaces/inkscape"
   xmlns:sodipodi="http://sodipodi.sourceforge.net/DTD/sodipodi-0.dtd"
   xmlns="http://www.w3.org/2000/svg"
   xmlns:svg="http://www.w3.org/2000/svg">
  <defs
     id="defs32" />
  <sodipodi:namedview
     id="namedview30"
     pagecolor="#ffffff"
     bordercolor="#000000"
     borderopacity="0.25"
     inkscape:showpageshadow="2"
     inkscape:pageopacity="0.0"
     inkscape:pagecheckerboard="0"
     inkscape:deskcolor="#d1d1d1"
     showgrid="false"
     inkscape:zoom="21.395833"
     inkscape:cx="24.046738"
     inkscape:cy="24.046738"
     inkscape:current-layer="svg28" />
  <path
     style="opacity:0.2"
     d="M 24,5 A 20,20 0 0 0 13.490234,8 H 11 C 8.784,8 7,9.784 7,12 v 2.513672 A 20,20 0 0 0 4,25 20,20 0 0 0 7,35.509766 V 38 c 0,2.216 1.784,4 4,4 h 2.513672 A 20,20 0 0 0 24,45 20,20 0 0 0 34.509766,42 H 37 c 2.216,0 4,-1.784 4,-4 V 35.486328 A 20,20 0 0 0 44,25 20,20 0 0 0 41,14.490234 V 12 C 41,9.784 39.216,8 37,8 H 34.486328 A 20,20 0 0 0 24,5 Z"
     id="path2" />
  <circle
     style="fill:#b2d1e9"
     cx="24"
     cy="24"
     r="20"
     id="circle4" />
  <rect
     style="fill:#b2d1e9"
     width="34"
     height="34"
     x="7"
     y="7"
     rx="4"
     ry="4"
     id="rect6" />
  <circle
     style="fill:#4d4d4d"
     cx="24"
     cy="24"
     r="17"
     id="circle8" />
  <circle
     style="opacity:0.2"
     cx="24"
     cy="25"
     r="14"
     id="circle10" />
  <circle
     style="fill:#ffcf24"
     cx="24"
     cy="24"
     r="14"
     id="circle12" />
  <circle
     style="fill:#4f4f4f"
     cx="10.5"
     cy="10.5"
     r="1.5"
     id="circle14" />
  <circle
     style="fill:#4d4d4d"
     cx="24"
     cy="24"
     r="5"
     id="circle16" />
  <path
     style="opacity:0.2;fill:#ffffff"
     d="M 24 4 A 20 20 0 0 0 13.490234 7 L 11 7 C 8.784 7 7 8.784 7 11 L 7 12 C 7 9.784 8.784 8 11 8 L 13.490234 8 A 20 20 0 0 1 24 5 A 20 20 0 0 1 34.486328 8 L 37 8 C 39.216 8 41 9.784 41 12 L 41 11 C 41 8.784 39.216 7 37 7 L 34.486328 7 A 20 20 0 0 0 24 4 z M 41 13.490234 L 41 14.490234 A 20 20 0 0 1 43.982422 24.644531 A 20 20 0 0 0 44 24 A 20 20 0 0 0 41 13.490234 z M 7 13.513672 A 20 20 0 0 0 4 24 A 20 20 0 0 0 4.0175781 24.355469 A 20 20 0 0 1 7 14.513672 L 7 13.513672 z"
     id="path18" />
  <circle
     style="fill:#4f4f4f"
     cx="37.5"
     cy="10.5"
     r="1.5"
     id="circle20" />
  <circle
     style="fill:#4f4f4f"
     cx="10.5"
     cy="38.5"
     r="1.5"
     id="circle22" />
  <circle
     style="fill:#4f4f4f"
     cx="37.5"
     cy="38.5"
     r="1.5"
     id="circle24" />
  <path
     style="opacity:0.2;fill:#ffffff"
     d="M 24 10 A 14 14 0 0 0 10 24 A 14 14 0 0 0 10.021484 24.585938 A 14 14 0 0 1 24 11 A 14 14 0 0 1 37.978516 24.414062 A 14 14 0 0 0 38 24 A 14 14 0 0 0 24 10 z"
     id="path26" />
</svg>
