<?xml version="1.0" encoding="UTF-8" standalone="no"?>
<svg
   width="48"
   height="48"
   version="1.1"
   id="svg26"
   sodipodi:docname="parole.svg"
   inkscape:version="1.2.1 (9c6d41e410, 2022-07-14)"
   xmlns:inkscape="http://www.inkscape.org/namespaces/inkscape"
   xmlns:sodipodi="http://sodipodi.sourceforge.net/DTD/sodipodi-0.dtd"
   xmlns="http://www.w3.org/2000/svg"
   xmlns:svg="http://www.w3.org/2000/svg">
  <defs
     id="defs30" />
  <sodipodi:namedview
     id="namedview28"
     pagecolor="#ffffff"
     bordercolor="#000000"
     borderopacity="0.25"
     inkscape:showpageshadow="2"
     inkscape:pageopacity="0.0"
     inkscape:pagecheckerboard="0"
     inkscape:deskcolor="#d1d1d1"
     showgrid="false"
     inkscape:zoom="21.395833"
     inkscape:cx="24.046738"
     inkscape:cy="24.046738"
     inkscape:current-layer="svg26" />
  <path
     style="opacity:0.2"
     d="M 7.0769233,45 H 40.923077 C 42.627692,45 44,43.5728 44,41.8 V 34 H 4.0000002 v 7.8 c 0,1.7728 1.3723077,3.2 3.0769231,3.2 z"
     id="path2" />
  <path
     style="fill:#e4e4e4"
     d="M 7.0769233,44 H 40.923077 C 42.627692,44 44,42.5728 44,40.8 V 33 H 4.0000002 v 7.8 c 0,1.7728 1.3723077,3.2 3.0769231,3.2 z"
     id="path4" />
  <path
     style="fill:#333333"
     d="M 7.0769233,4 H 40.923077 C 42.627692,4 44,5.4272 44,7.2 V 33 H 4.0000002 V 7.2 c 0,-1.7728 1.3723077,-3.2 3.0769231,-3.2 z"
     id="path6" />
  <rect
     style="fill:#7e7e7e"
     width="19"
     height="3"
     x="21"
     y="37"
     id="rect8" />
  <rect
     style="fill:#f04113"
     width="13"
     height="3"
     x="8"
     y="37"
     id="rect10" />
  <rect
     style="opacity:0.2;fill:#ffffff"
     width="6"
     height="3"
     x="18"
     y="37"
     id="rect12" />
  <path
     style="opacity:0.2"
     d="m 24,9 c -6.071408,0 -11,4.928592 -11,11 0,6.071408 4.928592,11 11,11 6.071408,0 11,-4.928592 11,-11 C 35,13.928592 30.071408,9 24,9 Z m 0,1 c 5.526442,0 10,4.473558 10,10 0,5.526442 -4.473558,10 -10,10 C 18.473558,30 14,25.526442 14,20 14,14.473558 18.473558,10 24,10 Z M 21.007812,15 21,25 30,20.005859 Z"
     id="path14" />
  <path
     style="fill:#ffffff"
     d="M 30,19.006714 21,24 21.0081,14 Z"
     id="path16" />
  <path
     style="fill:#ffffff"
     d="M 24 8 C 17.928592 8 13 12.928592 13 19 C 13 25.071408 17.928592 30 24 30 C 30.071408 30 35 25.071408 35 19 C 35 12.928592 30.071408 8 24 8 z M 24 9 C 29.526442 9 34 13.473558 34 19 C 34 24.526442 29.526442 29 24 29 C 18.473558 29 14 24.526442 14 19 C 14 13.473558 18.473558 9 24 9 z"
     id="path18" />
  <rect
     style="opacity:0.1"
     width="32"
     height="1"
     x="8"
     y="40"
     id="rect20" />
  <path
     style="opacity:0.1;fill:#ffffff"
     d="M 7.0761719 4 C 5.3715565 4 4 5.4264187 4 7.1992188 L 4 8.1992188 C 4 6.4264187 5.3715565 5 7.0761719 5 L 40.923828 5 C 42.628443 5 44 6.4264188 44 8.1992188 L 44 7.1992188 C 44 5.4264187 42.628443 4 40.923828 4 L 7.0761719 4 z"
     id="path22" />
  <rect
     style="opacity:0.2;fill:#ffffff"
     width="40"
     height="1"
     x="4"
     y="33"
     id="rect24" />
</svg>
