<?xml version="1.0" encoding="UTF-8" standalone="no"?>
<svg
   xmlns:dc="http://purl.org/dc/elements/1.1/"
   xmlns:cc="http://creativecommons.org/ns#"
   xmlns:rdf="http://www.w3.org/1999/02/22-rdf-syntax-ns#"
   xmlns:svg="http://www.w3.org/2000/svg"
   xmlns="http://www.w3.org/2000/svg"
   xmlns:xlink="http://www.w3.org/1999/xlink"
   xmlns:sodipodi="http://sodipodi.sourceforge.net/DTD/sodipodi-0.dtd"
   xmlns:inkscape="http://www.inkscape.org/namespaces/inkscape"
   width="32"
   height="32"
   version="1.1"
   viewBox="0 0 24 24"
   id="svg22"
   sodipodi:docname="partitionmanager.svg"
   inkscape:version="0.92.3 (2405546, 2018-03-11)">
  <metadata
     id="metadata28">
    <rdf:RDF>
      <cc:Work
         rdf:about="">
        <dc:format>image/svg+xml</dc:format>
        <dc:type
           rdf:resource="http://purl.org/dc/dcmitype/StillImage" />
        <dc:title></dc:title>
      </cc:Work>
    </rdf:RDF>
  </metadata>
  <defs
     id="defs26">
    <linearGradient
       inkscape:collect="always"
       id="linearGradient957">
      <stop
         style="stop-color:#d2d2d2;stop-opacity:1;"
         offset="0"
         id="stop953" />
      <stop
         style="stop-color:#dcdcdc;stop-opacity:1"
         offset="1"
         id="stop955" />
    </linearGradient>
    <linearGradient
       inkscape:collect="always"
       id="linearGradient924">
      <stop
         style="stop-color:#ffffff;stop-opacity:1;"
         offset="0"
         id="stop920" />
      <stop
         style="stop-color:#ffffff;stop-opacity:0;"
         offset="1"
         id="stop922" />
    </linearGradient>
    <linearGradient
       inkscape:collect="always"
       id="linearGradient892">
      <stop
         style="stop-color:#000000;stop-opacity:1;"
         offset="0"
         id="stop888" />
      <stop
         style="stop-color:#000000;stop-opacity:0;"
         offset="1"
         id="stop890" />
    </linearGradient>
    <linearGradient
       inkscape:collect="always"
       xlink:href="#linearGradient892"
       id="linearGradient894"
       x1="195.51483"
       y1="364.47458"
       x2="194.18008"
       y2="336.81357"
       gradientUnits="userSpaceOnUse"
       gradientTransform="matrix(0.05725067,0,0,0.05778092,1.0078731,0.69607567)" />
    <linearGradient
       inkscape:collect="always"
       xlink:href="#linearGradient924"
       id="linearGradient926"
       x1="180.87076"
       y1="18.711864"
       x2="180.34958"
       y2="46.372883"
       gradientUnits="userSpaceOnUse"
       gradientTransform="matrix(0.05722777,0,0,0.05957446,1.0122699,0.56170088)" />
    <linearGradient
       inkscape:collect="always"
       xlink:href="#linearGradient957"
       id="linearGradient959"
       x1="197.80704"
       y1="369.35593"
       x2="187.82008"
       y2="14.644068"
       gradientUnits="userSpaceOnUse"
       gradientTransform="matrix(0.05722777,0,0,0.05957446,1.0122699,0.56170088)" />
    <linearGradient
       gradientTransform="matrix(0.05722777,0,0,0.05283996,1.0122699,-21.430378)"
       inkscape:collect="always"
       xlink:href="#linearGradient924"
       id="linearGradient926-5"
       x1="180.87076"
       y1="18.711864"
       x2="180.34958"
       y2="35.170052"
       gradientUnits="userSpaceOnUse" />
  </defs>
  <sodipodi:namedview
     pagecolor="#ffffff"
     bordercolor="#666666"
     borderopacity="1"
     objecttolerance="10"
     gridtolerance="10"
     guidetolerance="10"
     inkscape:pageopacity="0"
     inkscape:pageshadow="2"
     inkscape:window-width="1366"
     inkscape:window-height="704"
     id="namedview24"
     showgrid="false"
     inkscape:zoom="25.157301"
     inkscape:cx="22.063657"
     inkscape:cy="8.5492964"
     inkscape:window-x="0"
     inkscape:window-y="30"
     inkscape:window-maximized="1"
     inkscape:current-layer="svg22"
     showguides="true"
     inkscape:guide-bbox="true" />
  <rect
     style="opacity:1;fill:url(#linearGradient959);fill-opacity:1;stroke:none;stroke-width:0.43791974;stroke-linecap:round;stroke-linejoin:round;stroke-miterlimit:4;stroke-dasharray:none;stroke-opacity:1;paint-order:stroke fill markers"
     id="rect837"
     width="16.46876"
     height="20.999998"
     x="3.7656186"
     y="1.4999998"
     rx="1.2177873"
     ry="1.2677245" />
  <rect
     style="opacity:0.4;fill:none;fill-opacity:1;stroke:url(#linearGradient926);stroke-width:0.43791983;stroke-linecap:round;stroke-linejoin:round;stroke-miterlimit:4;stroke-dasharray:none;stroke-opacity:1;paint-order:stroke fill markers"
     id="rect837-3-3"
     width="16.062126"
     height="20.553188"
     x="3.9689369"
     y="1.7234027"
     rx="1.2177873"
     ry="1.2677245" />
  <ellipse
     style="fill:#000000;fill-opacity:0.58823529;stroke:none;stroke-width:0.5560993;stroke-miterlimit:4;stroke-dasharray:none;stroke-opacity:1"
     id="path833-2"
     cx="12"
     cy="11.285105"
     rx="6.4381223"
     ry="6.7021279" />
  <ellipse
     style="fill:#e6e6e6;fill-opacity:1;stroke:none;stroke-width:0.5560993;stroke-miterlimit:4;stroke-dasharray:none;stroke-opacity:1"
     id="path833"
     cx="12"
     cy="10.927656"
     rx="6.4381223"
     ry="6.7021279" />
  <ellipse
     style="fill:#000000;fill-opacity:0.19607843;stroke:none;stroke-width:0.0926832;stroke-miterlimit:4;stroke-dasharray:none;stroke-opacity:1"
     id="path833-6"
     cx="12"
     cy="10.838299"
     rx="1.0730205"
     ry="1.1170212" />
  <rect
     style="opacity:1;fill:#000000;fill-opacity:0.58823529;stroke:none;stroke-width:0.13185504;stroke-linecap:round;stroke-linejoin:round;stroke-miterlimit:4;stroke-dasharray:none;stroke-opacity:1;paint-order:stroke fill markers"
     id="rect837-1"
     width="16.46876"
     height="1.9038093"
     x="3.7656186"
     y="20.596191"
     rx="0.78549552"
     ry="0.81770599" />
  <rect
     style="opacity:0.4;fill:none;fill-opacity:1;stroke:url(#linearGradient926-5);stroke-width:0.41242582;stroke-linecap:round;stroke-linejoin:round;stroke-miterlimit:4;stroke-dasharray:none;stroke-opacity:1;paint-order:stroke fill markers"
     id="rect837-3-3-4"
     width="16.062126"
     height="18.229786"
     x="3.9689369"
     y="-20.399998"
     rx="0"
     ry="0"
     transform="scale(1,-1)" />
  <ellipse
     style="fill:#000000;fill-opacity:0.39215686;stroke:none;stroke-width:0.34376299;stroke-miterlimit:4;stroke-dasharray:none;stroke-opacity:1"
     id="path1084"
     cx="5.5094361"
     cy="3.4341314"
     rx="0.42920816"
     ry="0.44680852" />
  <ellipse
     style="fill:#000000;fill-opacity:0.39215686;stroke:none;stroke-width:0.34376299;stroke-miterlimit:4;stroke-dasharray:none;stroke-opacity:1"
     id="path1084-0"
     cx="18.523964"
     cy="3.4341445"
     rx="0.42920816"
     ry="0.44680852" />
  <ellipse
     style="fill:#000000;fill-opacity:0.39215686;stroke:none;stroke-width:0.34376299;stroke-miterlimit:4;stroke-dasharray:none;stroke-opacity:1"
     id="path1084-8"
     cx="5.5094266"
     cy="18.656933"
     rx="0.42920816"
     ry="0.44680852" />
  <ellipse
     style="fill:#000000;fill-opacity:0.39215686;stroke:none;stroke-width:0.34376299;stroke-miterlimit:4;stroke-dasharray:none;stroke-opacity:1"
     id="path1084-8-5"
     cx="18.523964"
     cy="18.65691"
     rx="0.42920816"
     ry="0.44680852" />
  <rect
     style="opacity:0.4;fill:none;fill-opacity:1;stroke:url(#linearGradient894);stroke-width:0.43136376;stroke-linecap:round;stroke-linejoin:round;stroke-miterlimit:4;stroke-dasharray:none;stroke-opacity:1;paint-order:stroke fill markers"
     id="rect837-3"
     width="16.068554"
     height="19.934416"
     x="3.9657238"
     y="2.256161"
     rx="1.2182745"
     ry="1.2295586" />
  <path
     inkscape:connector-curvature="0"
     style="opacity:0.2;stroke-width:0.375"
     d="m 23.960778,17.561096 a 6,6 0 0 1 -5.98425,5.682 6,6 0 0 1 -5.98425,-5.568 6,6 0 0 0 -0.01575,0.318 6,6 0 0 0 6,6 6,6 0 0 0 6,-6 6,6 0 0 0 -0.01611,-0.432127 z"
     id="path10" />
  <circle
     style="fill:#c6262e;stroke-width:0.375"
     cx="17.976526"
     cy="17.618095"
     r="6"
     id="circle12" />
  <path
     inkscape:connector-curvature="0"
     style="fill:#ffffff;stroke-width:0.375"
     d="m 17.226528,14.618096 -0.06615,0.7902 a 2.357175,2.357175 0 0 0 -0.68889,0.398445 l -0.718192,-0.338175 -0.75,1.299075 0.652057,0.45285 a 2.357175,2.357175 0 0 0 -0.036,0.397598 2.357175,2.357175 0 0 0 0.03427,0.399277 l -0.650392,0.45117 0.75,1.299075 0.716519,-0.337335 a 2.357175,2.357175 0 0 0 0.690563,0.395925 l 0.06615,0.79185 h 1.5 l 0.06615,-0.7902 a 2.357175,2.357175 0 0 0 0.688905,-0.398445 l 0.718185,0.338175 0.75,-1.299075 -0.652065,-0.45285 a 2.357175,2.357175 0 0 0 0.036,-0.397597 2.357175,2.357175 0 0 0 -0.03427,-0.399278 l 0.650392,-0.45117 -0.75,-1.299075 -0.71652,0.337335 a 2.357175,2.357175 0 0 0 -0.69075,-0.396 l -0.066,-0.792 h -1.5 z m 0.75,2.1429 a 0.857175,0.857175 0 0 1 0.85725,0.85725 0.857175,0.857175 0 0 1 -0.85725,0.85725 0.857175,0.857175 0 0 1 -0.85725,-0.85725 0.857175,0.857175 0 0 1 0.85725,-0.85725 z"
     id="path14" />
</svg>
