<?xml version="1.0" encoding="UTF-8" standalone="no"?>
<svg
   xmlns:dc="http://purl.org/dc/elements/1.1/"
   xmlns:cc="http://creativecommons.org/ns#"
   xmlns:rdf="http://www.w3.org/1999/02/22-rdf-syntax-ns#"
   xmlns:svg="http://www.w3.org/2000/svg"
   xmlns="http://www.w3.org/2000/svg"
   xmlns:xlink="http://www.w3.org/1999/xlink"
   xmlns:sodipodi="http://sodipodi.sourceforge.net/DTD/sodipodi-0.dtd"
   xmlns:inkscape="http://www.inkscape.org/namespaces/inkscape"
   width="32"
   height="32"
   version="1"
   id="svg12"
   sodipodi:docname="preferences-desktop-online-accounts.svg"
   inkscape:version="0.92.4 5da689c313, 2019-01-14">
  <metadata
     id="metadata18">
    <rdf:RDF>
      <cc:Work
         rdf:about="">
        <dc:format>image/svg+xml</dc:format>
        <dc:type
           rdf:resource="http://purl.org/dc/dcmitype/StillImage" />
        <dc:title />
      </cc:Work>
    </rdf:RDF>
  </metadata>
  <defs
     id="defs16">
    <linearGradient
       inkscape:collect="always"
       id="linearGradient832">
      <stop
         style="stop-color:#37dbad;stop-opacity:1;"
         offset="0"
         id="stop828" />
      <stop
         style="stop-color:#0066cc;stop-opacity:1"
         offset="1"
         id="stop830" />
    </linearGradient>
    <linearGradient
       inkscape:collect="always"
       xlink:href="#linearGradient832"
       id="linearGradient834"
       x1="0.47457626"
       y1="0.67796606"
       x2="63.796612"
       y2="63.050846"
       gradientUnits="userSpaceOnUse"
       gradientTransform="scale(0.5)" />
  </defs>
  <sodipodi:namedview
     pagecolor="#ffffff"
     bordercolor="#666666"
     borderopacity="1"
     objecttolerance="10"
     gridtolerance="10"
     guidetolerance="10"
     inkscape:pageopacity="0"
     inkscape:pageshadow="2"
     inkscape:window-width="1366"
     inkscape:window-height="691"
     id="namedview14"
     showgrid="false"
     inkscape:zoom="14.75"
     inkscape:cx="13.302355"
     inkscape:cy="3.5026387"
     inkscape:window-x="0"
     inkscape:window-y="0"
     inkscape:window-maximized="1"
     inkscape:current-layer="svg12" />
  <rect
     style="opacity:0.2;fill:#000000;fill-opacity:1;stroke-width:0.5"
     width="28"
     height="28"
     x="2"
     y="3"
     rx="14"
     ry="14"
     id="rect2-5" />
  <rect
     style="fill:url(#linearGradient834);fill-opacity:1;stroke-width:0.5"
     width="28"
     height="28"
     x="2"
     y="2"
     rx="14"
     ry="14"
     id="rect2" />
  <path
     style="opacity:0.2;stroke-width:0.5"
     d="m 15.9998,8.5002287 c -4.418237,0 -7.9998858,3.5816483 -7.9998858,7.9998853 0,4.418237 3.5816488,7.999886 7.9998858,7.999886 h 4.999928 c 0,0 0.937487,0 0.999986,-0.999986 0,-0.999985 -0.999986,-0.999985 -0.999986,-0.999985 H 15.9998 c -3.313653,0 -5.999914,-2.686262 -5.999914,-5.999915 0,-3.313653 2.686261,-5.999914 5.999914,-5.999914 3.313653,0 5.999914,2.686261 5.999914,5.999914 V 17.5001 c 0,0.552272 -0.447714,0.999986 -0.999986,0.999986 -0.552272,0 -0.999985,-0.447714 -0.999985,-0.999986 v -0.999986 c 0,-2.209068 -1.790875,-3.999942 -3.999943,-3.999942 -2.209069,0 -3.999943,1.790874 -3.999943,3.999942 0,2.209069 1.790874,3.999943 3.999943,3.999943 1.046185,0 1.990271,-0.410894 2.703061,-1.068385 0.569992,0.676991 1.41098,1.067985 2.296967,1.067985 1.656776,0 2.999958,-1.343181 2.999958,-2.999957 v -0.999985 c 0,-4.417938 -3.58195,-7.9998867 -7.999887,-7.9998867 z m 0,5.9999143 c 1.104584,0 1.999971,0.895417 1.999971,1.999971 0,1.104555 -0.895417,1.999972 -1.999971,1.999972 -1.104555,0 -1.999972,-0.895417 -1.999972,-1.999972 0,-1.104554 0.895417,-1.999971 1.999972,-1.999971 z"
     id="path4"
     inkscape:connector-curvature="0" />
  <path
     style="fill:#ffffff;stroke-width:0.5"
     d="m 15.9998,8.0003293 c -4.418237,0 -7.9998858,3.5816487 -7.9998858,7.9998847 0,4.418238 3.5816488,7.999886 7.9998858,7.999886 h 4.999928 c 0,0 0.937487,0 0.999986,-0.999985 0,-0.999986 -0.999986,-0.999986 -0.999986,-0.999986 H 15.9998 c -3.313653,0 -5.999914,-2.686262 -5.999914,-5.999915 0,-3.313652 2.686261,-5.999913 5.999914,-5.999913 3.313653,0 5.999914,2.686261 5.999914,5.999913 v 0.999987 c 0,0.552272 -0.447714,0.999985 -0.999986,0.999985 -0.552272,0 -0.999985,-0.447713 -0.999985,-0.999985 v -0.999987 c 0,-2.209068 -1.790875,-3.999942 -3.999943,-3.999942 -2.209069,0 -3.999943,1.790874 -3.999943,3.999942 0,2.209069 1.790874,3.999944 3.999943,3.999944 1.046185,0 1.990271,-0.410895 2.703061,-1.068386 0.569992,0.676991 1.41098,1.067985 2.296967,1.067985 1.656776,0 2.999958,-1.343181 2.999958,-2.999957 v -0.999985 c 0,-4.417937 -3.58195,-7.9998861 -7.999887,-7.9998861 z m 0,5.9999137 c 1.104584,0 1.999971,0.895417 1.999971,1.999971 0,1.104555 -0.895417,1.999972 -1.999971,1.999972 -1.104555,0 -1.999972,-0.895417 -1.999972,-1.999972 0,-1.104554 0.895417,-1.999971 1.999972,-1.999971 z"
     id="path6"
     inkscape:connector-curvature="0" />
  <path
     style="opacity:0.4;fill:#ffffff;stroke-width:0.5"
     d="M 16,2 C 8.244111,2 2,8.2441113 2,16 2,16.05678 2.00564,16.112017 2.00879,16.167969 2.1845581,8.5671991 8.355473,2.5000002 16,2.5000002 c 7.644528,0 13.815442,6.0671989 13.991211,13.6679688 C 29.994399,16.112017 30,16.056777 30,16 30,8.2441113 23.755889,2 16,2 Z"
     id="path10"
     inkscape:connector-curvature="0" />
</svg>
