<?xml version="1.0" encoding="UTF-8" standalone="no"?>
<svg
   xmlns:dc="http://purl.org/dc/elements/1.1/"
   xmlns:cc="http://creativecommons.org/ns#"
   xmlns:rdf="http://www.w3.org/1999/02/22-rdf-syntax-ns#"
   xmlns:svg="http://www.w3.org/2000/svg"
   xmlns="http://www.w3.org/2000/svg"
   xmlns:xlink="http://www.w3.org/1999/xlink"
   xmlns:sodipodi="http://sodipodi.sourceforge.net/DTD/sodipodi-0.dtd"
   xmlns:inkscape="http://www.inkscape.org/namespaces/inkscape"
   width="32"
   height="32"
   version="1"
   id="svg12"
   sodipodi:docname="preferences-desktop-accessibility.svg"
   inkscape:version="0.92.4 5da689c313, 2019-01-14">
  <metadata
     id="metadata18">
    <rdf:RDF>
      <cc:Work
         rdf:about="">
        <dc:format>image/svg+xml</dc:format>
        <dc:type
           rdf:resource="http://purl.org/dc/dcmitype/StillImage" />
        <dc:title />
      </cc:Work>
    </rdf:RDF>
  </metadata>
  <defs
     id="defs16">
    <linearGradient
       inkscape:collect="always"
       id="linearGradient832">
      <stop
         style="stop-color:#3e50b4;stop-opacity:1;"
         offset="0"
         id="stop828" />
      <stop
         style="stop-color:#6675ca;stop-opacity:1"
         offset="1"
         id="stop830" />
    </linearGradient>
    <linearGradient
       inkscape:collect="always"
       xlink:href="#linearGradient832"
       id="linearGradient834"
       x1="4"
       y1="32"
       x2="60"
       y2="32"
       gradientUnits="userSpaceOnUse"
       gradientTransform="matrix(0.5,0,0,0.5,-32,-32)" />
  </defs>
  <sodipodi:namedview
     pagecolor="#ffffff"
     bordercolor="#666666"
     borderopacity="1"
     objecttolerance="10"
     gridtolerance="10"
     guidetolerance="10"
     inkscape:pageopacity="0"
     inkscape:pageshadow="2"
     inkscape:window-width="1366"
     inkscape:window-height="691"
     id="namedview14"
     showgrid="false"
     inkscape:zoom="14.75"
     inkscape:cx="2.6651012"
     inkscape:cy="5.3663069"
     inkscape:window-x="0"
     inkscape:window-y="0"
     inkscape:window-maximized="1"
     inkscape:current-layer="svg12" />
  <rect
     style="opacity:0.2;fill:#000000;fill-opacity:1;stroke-width:0.5"
     width="28"
     height="28"
     x="-31"
     y="-30"
     rx="14"
     ry="14"
     id="rect2-0"
     transform="matrix(0,-1,-1,0,0,0)" />
  <rect
     style="fill:url(#linearGradient834);fill-opacity:1;stroke-width:0.5"
     width="28"
     height="28"
     x="-30"
     y="-30"
     rx="14"
     ry="14"
     id="rect2"
     transform="matrix(0,-1,-1,0,0,0)" />
  <path
     style="opacity:0.2;stroke-width:0.5"
     d="m 16,7.5000001 c -1.1046,0 -2,0.8954302 -2,2.0000001 C 14,10.60457 14.89543,11.5 16,11.5 c 1.10457,0 2,-0.89543 2,-1.9999998 C 18,8.3954303 17.10457,7.5000001 16,7.5000001 Z M 9,12.5 v 1 h 5 v 12 h 1 v -6 h 2 v 6 h 1 v -12 h 5 v -1 h -9 z"
     id="path4"
     inkscape:connector-curvature="0" />
  <path
     style="fill:#ffffff;stroke-width:0.5"
     d="m 16,6.9999999 c -1.1046,0 -2,0.8954302 -2,2.0000001 0,1.10457 0.89543,2 2,2 1.10457,0 2,-0.89543 2,-2 C 18,7.8954301 17.10457,6.9999999 16,6.9999999 Z M 9,12 v 1 h 5 v 12 h 1 v -6 h 2 v 6 h 1 V 13 h 5 v -1 h -9 z"
     id="path6"
     inkscape:connector-curvature="0" />
  <path
     style="opacity:0.4;fill:#ffffff;stroke-width:0.5"
     d="M 16,2 C 8.244219,2 2,8.244 2,16 2,16.05672 2.00564,16.112057 2.00879,16.167969 2.1845557,8.5670906 8.355579,2.5000002 16,2.5000002 c 7.644421,0 13.815444,6.0670904 13.991211,13.6679688 C 29.994347,16.112057 30,16.056724 30,16 30,8.244 23.755781,2 16,2 Z"
     id="path8"
     inkscape:connector-curvature="0" />
</svg>
