<?xml version="1.0" encoding="UTF-8" standalone="no"?>
<svg
   width="48"
   height="48"
   version="1.1"
   id="svg18"
   sodipodi:docname="quodlibet.svg"
   inkscape:version="1.2.1 (9c6d41e410, 2022-07-14)"
   xmlns:inkscape="http://www.inkscape.org/namespaces/inkscape"
   xmlns:sodipodi="http://sodipodi.sourceforge.net/DTD/sodipodi-0.dtd"
   xmlns="http://www.w3.org/2000/svg"
   xmlns:svg="http://www.w3.org/2000/svg">
  <defs
     id="defs22" />
  <sodipodi:namedview
     id="namedview20"
     pagecolor="#ffffff"
     bordercolor="#000000"
     borderopacity="0.25"
     inkscape:showpageshadow="2"
     inkscape:pageopacity="0.0"
     inkscape:pagecheckerboard="0"
     inkscape:deskcolor="#d1d1d1"
     showgrid="false"
     inkscape:zoom="15.129139"
     inkscape:cx="13.979646"
     inkscape:cy="21.448676"
     inkscape:current-layer="svg18" />
  <rect
     style="fill:#e6e6e6"
     width="40"
     height="40"
     x="4"
     y="4"
     rx="2"
     ry="2"
     id="rect2" />
  <path
     style="opacity:.2;fill:#ffffff"
     d="m4 7v-1c0-1.108 0.892-2 2-2h36c1.108 0 2 0.892 2 2v1c0-1.108-0.892-2-2-2h-36c-1.108 0-2 0.892-2 2z"
     id="path4" />
  <path
     style="opacity:.2"
     d="m4 42v1c0 1.108 0.892 2 2 2h36c1.108 0 2-0.892 2-2v-1c0 1.108-0.892 2-2 2h-36c-1.108 0-2-0.892-2-2z"
     id="path6" />
  <g
     id="g411"
     transform="matrix(1.3750901,0,0,1.3750901,1.9980909,0.62366081)">
    <path
       fill="#4f4f4f"
       d="M 12.5,4 C 9.4624,4 7,6.462 7,9.5 7,12.538 9.4624,15 12.5,15 13.008,14.998 13.512,14.926 14,14.785 V 27 c 0,2 2,2 4,2 7,0 7,-8.333 7,-11 -1,1 -7,8 -7,2.666 0,-3.782 0.024,-7.597 0,-11.363 C 17.894,6.3457 15.458,4.003 12.5,4 Z"
       id="path251" />
    <path
       opacity="0.2"
       d="M 12.5,9 A 1.5,1.5 0 0 1 14,10.5 1.5,1.5 0 0 1 12.5,12 1.5,1.5 0 0 1 11,10.5 1.5,1.5 0 0 1 12.5,9 Z"
       id="path253" />
    <path
       fill="#ffffff"
       d="M 12.5,8 A 1.5,1.5 0 0 1 14,9.5 1.5,1.5 0 0 1 12.5,11 1.5,1.5 0 0 1 11,9.5 1.5,1.5 0 0 1 12.5,8 Z"
       id="path255" />
    <path
       fill="#ffffff"
       opacity="0.1"
       d="M 12.5,4 C 9.4624,4 7,6.462 7,9.5 7,9.6688 7.0105,9.8351 7.0254,10 7.2783,7.1967 9.6311,5 12.5,5 15.458,5.003 17.894,7.3454 18,10.303 17.999,9.9706 18.002,9.6342 18,9.3027 17.894,6.3454 15.458,4.003 12.5,4 Z M 25,18 c -1,1 -7,8 -7,2.666 v 1 c 0,5.324 5.971,-1.634 6.988,-2.654 C 24.996,18.636 25,18.272 25,18 Z"
       id="path257" />
    <path
       opacity="0.2"
       d="M 7.0254,10 C 7.0105,10.165 7,10.331 7,10.5 7,13.538 9.4624,16 12.5,16 13.008,15.998 13.512,15.92616 14,15.78516 v -1 c -0.488,0.141 -0.992,0.213 -1.5,0.215 -2.8689,0 -5.2217,-2.197 -5.4746,-5 z m 17.975,9 -0.01172,0.01172 c -0.065,3.302 -0.703,9.988 -6.988,9.988 -2,0 -4,0 -4,-2 v 1 c 0,2 2,2 4,2 7,0 7,-8.333 7,-11 z"
       id="path259" />
  </g>
</svg>
