<?xml version="1.0" encoding="UTF-8" standalone="no"?>
<svg
   xmlns:dc="http://purl.org/dc/elements/1.1/"
   xmlns:cc="http://creativecommons.org/ns#"
   xmlns:rdf="http://www.w3.org/1999/02/22-rdf-syntax-ns#"
   xmlns:svg="http://www.w3.org/2000/svg"
   xmlns="http://www.w3.org/2000/svg"
   xmlns:sodipodi="http://sodipodi.sourceforge.net/DTD/sodipodi-0.dtd"
   xmlns:inkscape="http://www.inkscape.org/namespaces/inkscape"
   width="32"
   height="32"
   version="1.1"
   viewBox="0 0 24 24"
   id="svg44"
   sodipodi:docname="spotify-client.svg"
   inkscape:version="0.92.4 5da689c313, 2019-01-14">
  <metadata
     id="metadata48">
    <rdf:RDF>
      <cc:Work
         rdf:about="">
        <dc:format>image/svg+xml</dc:format>
        <dc:type
           rdf:resource="http://purl.org/dc/dcmitype/StillImage" />
        <dc:title />
      </cc:Work>
    </rdf:RDF>
  </metadata>
  <sodipodi:namedview
     pagecolor="#ffffff"
     bordercolor="#666666"
     borderopacity="1"
     objecttolerance="10"
     gridtolerance="10"
     guidetolerance="10"
     inkscape:pageopacity="0"
     inkscape:pageshadow="2"
     inkscape:window-width="1366"
     inkscape:window-height="691"
     id="namedview46"
     showgrid="false"
     inkscape:zoom="16.875"
     inkscape:cx="16"
     inkscape:cy="16"
     inkscape:window-x="0"
     inkscape:window-y="0"
     inkscape:window-maximized="1"
     inkscape:current-layer="svg44" />
  <defs
     id="defs30">
    <clipPath
       id="f">
      <path
         d="m 111,119 h 177 v 23 H 111 Z"
         id="path2"
         inkscape:connector-curvature="0" />
    </clipPath>
    <clipPath
       id="d">
      <path
         d="m 177,130 h 45 v 89 h -45 z"
         id="path5"
         inkscape:connector-curvature="0" />
    </clipPath>
    <clipPath
       id="b">
      <path
         d="m 111,207 h 177 v 89 H 111 Z"
         id="path8"
         inkscape:connector-curvature="0" />
    </clipPath>
    <clipPath
       id="h">
      <rect
         width="384"
         height="384"
         id="rect11"
         x="0"
         y="0" />
    </clipPath>
    <g
       clip-path="url(#h)"
       id="g14" />
    <clipPath
       id="e">
      <path
         d="m 111,119 h 177 v 23 H 111 Z"
         id="path16"
         inkscape:connector-curvature="0" />
    </clipPath>
    <clipPath
       id="c">
      <path
         d="m 177,130 h 45 v 89 h -45 z"
         id="path19"
         inkscape:connector-curvature="0" />
    </clipPath>
    <clipPath
       id="a">
      <path
         d="m 111,207 h 177 v 89 H 111 Z"
         id="path22"
         inkscape:connector-curvature="0" />
    </clipPath>
    <clipPath
       id="g">
      <rect
         width="384"
         height="384"
         id="rect25"
         x="0"
         y="0" />
    </clipPath>
    <g
       clip-path="url(#g)"
       id="g28" />
  </defs>
  <path
     inkscape:connector-curvature="0"
     style="opacity:0.2;fill:#000000;fill-opacity:1;stroke-width:0.12538438"
     d="m 11.999936,2.250002 c -5.7988312,0 -10.4999362,4.701092 -10.4999362,10.500063 0,5.799221 4.701105,10.499935 10.4999362,10.499935 C 17.799397,23.25 22.5,18.549286 22.5,12.750065 22.5,6.951471 17.799397,2.2505046 11.999812,2.2505046 Z m 4.815205,15.144103 c -0.188074,0.308449 -0.591806,0.406251 -0.900249,0.216917 -2.465278,-1.505883 -5.568756,-1.846931 -9.223665,-1.011864 -0.3522006,0.08025 -0.7032731,-0.140432 -0.7835183,-0.492766 -0.08062,-0.352334 0.1391754,-0.703413 0.4922535,-0.783661 3.9997128,-0.914186 7.4305638,-0.520352 10.1982668,1.171104 0.308441,0.189332 0.406241,0.591819 0.216912,0.90027 z m 1.285174,-2.859425 c -0.236973,0.385563 -0.741012,0.507187 -1.125938,0.270207 C 14.152009,13.069673 9.8497462,12.567253 6.5114271,13.58062 6.0784802,13.711394 5.6212092,13.467402 5.4898079,13.035191 c -0.1303974,-0.432956 0.113722,-0.88936 0.5459168,-1.021015 3.8132685,-1.157062 8.5538703,-0.596587 11.7950173,1.395168 0.384924,0.23698 0.506548,0.741031 0.269573,1.125462 z m 0.110334,-2.97716 C 14.826563,9.547459 9.2432652,9.362641 6.012274,10.343283 5.4934396,10.500643 4.9447646,10.207749 4.7875343,9.688895 4.6303042,9.169798 4.9229479,8.621485 5.442158,8.46375 c 3.7089502,-1.125966 9.874654,-0.908421 13.7708,1.404572 0.467678,0.276977 0.620645,0.879707 0.34355,1.345766 -0.275842,0.466687 -0.880189,0.620534 -1.34536,0.343432 z"
     id="path913-7" />
  <circle
     style="opacity:1;fill:#1b1b1b;fill-opacity:1;fill-rule:evenodd;stroke:none;stroke-width:0.50387454;stroke-linejoin:round;stroke-miterlimit:4;stroke-dasharray:none;stroke-opacity:1;paint-order:normal"
     id="path1481"
     cx="12.000001"
     cy="12"
     r="8.4893618" />
  <path
     inkscape:connector-curvature="0"
     style="fill:#1ed760;stroke-width:0.12538436"
     d="M 11.999937,1.5 C 6.201105,1.5 1.5,6.2010915 1.5,12.000062 1.5,17.799284 6.201105,22.5 11.999937,22.5 17.799396,22.5 22.5,17.799284 22.5,12.000062 22.5,6.201468 17.799396,1.5005017 11.999812,1.5005017 Z m 4.815203,15.144104 c -0.188074,0.308449 -0.591806,0.40625 -0.900249,0.216917 C 13.449613,15.355138 10.346137,15.014088 6.6912273,15.849157 6.3390265,15.929405 5.987954,15.708725 5.907709,15.356391 5.827088,15.004057 6.046884,14.652977 6.3999625,14.57273 c 3.9997125,-0.914188 7.4305645,-0.520352 10.1982665,1.171104 0.308441,0.189332 0.40624,0.59182 0.216911,0.90027 z m 1.285174,-2.859425 c -0.236973,0.385562 -0.741012,0.507186 -1.125937,0.270207 C 14.152009,12.319672 9.849746,11.81725 6.5114274,12.830619 6.0784805,12.961396 5.6212095,12.717395 5.489808,12.28519 5.35941,11.852233 5.6035305,11.395828 6.035725,11.264173 c 3.813269,-1.157061 8.55387,-0.596587 11.795017,1.395168 0.384925,0.23698 0.506547,0.741031 0.269572,1.125464 z m 0.110338,-2.977161 C 14.826568,8.7974566 9.24327,8.6126377 6.0122785,9.593281 5.493444,9.7506403 4.944769,9.4577393 4.7875385,8.9388923 4.6303085,8.4197947 4.922952,7.8714826 5.4421625,7.7137467 9.151113,6.5877813 15.316815,6.8053266 19.212962,9.1183198 c 0.467679,0.2769767 0.620646,0.8797068 0.343549,1.3457652 -0.275842,0.466687 -0.880188,0.620535 -1.345358,0.343433 z"
     id="path913" />
</svg>
