<?xml version="1.0" encoding="UTF-8" standalone="no"?>
<svg
   xmlns:dc="http://purl.org/dc/elements/1.1/"
   xmlns:cc="http://creativecommons.org/ns#"
   xmlns:rdf="http://www.w3.org/1999/02/22-rdf-syntax-ns#"
   xmlns:svg="http://www.w3.org/2000/svg"
   xmlns="http://www.w3.org/2000/svg"
   xmlns:xlink="http://www.w3.org/1999/xlink"
   xmlns:sodipodi="http://sodipodi.sourceforge.net/DTD/sodipodi-0.dtd"
   xmlns:inkscape="http://www.inkscape.org/namespaces/inkscape"
   width="32"
   height="32"
   version="1"
   id="svg16"
   sodipodi:docname="vocal.svg"
   inkscape:version="0.92.4 5da689c313, 2019-01-14">
  <metadata
     id="metadata22">
    <rdf:RDF>
      <cc:Work
         rdf:about="">
        <dc:format>image/svg+xml</dc:format>
        <dc:type
           rdf:resource="http://purl.org/dc/dcmitype/StillImage" />
        <dc:title></dc:title>
      </cc:Work>
    </rdf:RDF>
  </metadata>
  <defs
     id="defs20">
    <linearGradient
       inkscape:collect="always"
       id="linearGradient848">
      <stop
         style="stop-color:#a87ccd;stop-opacity:1"
         offset="0"
         id="stop844" />
      <stop
         style="stop-color:#fb2bff;stop-opacity:1"
         offset="1"
         id="stop846" />
    </linearGradient>
    <linearGradient
       inkscape:collect="always"
       xlink:href="#linearGradient848"
       id="linearGradient850"
       x1="-24.745762"
       y1="33.898304"
       x2="115.79393"
       y2="31.306753"
       gradientUnits="userSpaceOnUse"
       gradientTransform="matrix(0.50522645,0,0,0.50522645,-0.16724879,-0.52090561)" />
  </defs>
  <sodipodi:namedview
     pagecolor="#ffffff"
     bordercolor="#666666"
     borderopacity="1"
     objecttolerance="10"
     gridtolerance="10"
     guidetolerance="10"
     inkscape:pageopacity="0"
     inkscape:pageshadow="2"
     inkscape:window-width="1366"
     inkscape:window-height="709"
     id="namedview18"
     showgrid="false"
     inkscape:zoom="7.6308609"
     inkscape:cx="0.8655245"
     inkscape:cy="24.165288"
     inkscape:window-x="0"
     inkscape:window-y="25"
     inkscape:window-maximized="1"
     inkscape:current-layer="svg16" />
  <rect
     style="opacity:0.2;fill:#000000;fill-opacity:1;stroke-width:0.50522649"
     width="28.292685"
     height="28.292685"
     x="1.853655"
     y="2.2073157"
     rx="14.146342"
     ry="14.146342"
     id="rect4-8" />
  <rect
     style="fill:url(#linearGradient850);fill-opacity:1;stroke-width:0.50522649"
     width="28.292681"
     height="28.292681"
     x="1.8536569"
     y="1.4999998"
     rx="14.14634"
     ry="14.14634"
     id="rect4" />
  <g
     style="opacity:0.2;enable-background:new"
     transform="matrix(1.0104424,0,0,1.0104424,-340.68658,427.40179)"
     id="g8">
    <path
       d="m 353,-415 c -1.6621,0 -3,1.3379 -3,3 v 5 c 0,1.6621 1.3379,3 3,3 1.6621,0 3,-1.3379 3,-3 v -5 c 0,-1.6621 -1.3379,-3 -3,-3 z m -6,7 v 0.99999 c 0,2.9695 2.1624,5.4322 5,5.9062 v 2.0938 h 2 v -2.0938 c 2.8376,-0.47409 5,-2.9368 5,-5.9062 V -408 h -2 v 0.99999 c 0,2.2334 -1.7666,4 -4,4 -2.2334,0 -4,-1.7666 -4,-4 v -1 z"
       id="path6"
       inkscape:connector-curvature="0" />
  </g>
  <g
     style="fill:#ffffff;enable-background:new"
     transform="matrix(1.0104424,0,0,1.0104424,-340.68658,426.89658)"
     id="g12">
    <path
       d="m 353,-415 c -1.6621,0 -3,1.3379 -3,3 v 5 c 0,1.6621 1.3379,3 3,3 1.6621,0 3,-1.3379 3,-3 v -5 c 0,-1.6621 -1.3379,-3 -3,-3 z m -6,7 v 0.99999 c 0,2.9695 2.1624,5.4322 5,5.9062 v 2.0938 h 2 v -2.0938 c 2.8376,-0.47409 5,-2.9368 5,-5.9062 V -408 h -2 v 0.99999 c 0,2.2334 -1.7666,4 -4,4 -2.2334,0 -4,-1.7666 -4,-4 V -408 Z"
       id="path10"
       inkscape:connector-curvature="0" />
  </g>
  <path
     style="opacity:0.4;fill:#ffffff;stroke-width:0.50522649"
     d="m 15.999998,1.4999998 c -7.836992,0 -14.146341,6.3093493 -14.146341,14.1463412 0,0.05531 0.00489,0.109272 0.00789,0.163804 C 2.0422199,8.1326588 8.277513,2.0052265 15.999998,2.0052265 c 7.722485,0 13.957778,6.1274323 14.138447,13.8049185 0.003,-0.05453 0.0079,-0.108498 0.0079,-0.163804 -6e-6,-7.8369919 -6.309356,-14.1463412 -14.146347,-14.1463412 z"
     id="path14"
     inkscape:connector-curvature="0" />
  <ellipse
     style="opacity:0.4;fill:none;fill-opacity:1;stroke:#ffffff;stroke-width:0.58751869;stroke-miterlimit:4;stroke-dasharray:none;stroke-opacity:1"
     id="path852"
     cx="15.999998"
     cy="15.64634"
     rx="12.336904"
     ry="12.336901" />
  <ellipse
     style="opacity:0.4;fill:none;fill-opacity:1;stroke:#ffffff;stroke-width:0.37601197;stroke-miterlimit:4;stroke-dasharray:none;stroke-opacity:1"
     id="path852-6"
     cx="15.999998"
     cy="15.64634"
     rx="7.8956175"
     ry="7.8956165" />
  <ellipse
     style="opacity:0.4;fill:none;fill-opacity:1;stroke:#ffffff;stroke-width:0.42301345;stroke-miterlimit:4;stroke-dasharray:none;stroke-opacity:1"
     id="path852-6-7"
     cx="15.999998"
     cy="15.64634"
     rx="8.8825693"
     ry="8.8825684" />
  <circle
     style="opacity:0.4;fill:none;fill-opacity:1;stroke:#ffffff;stroke-width:0.49351564;stroke-miterlimit:4;stroke-dasharray:none;stroke-opacity:1"
     id="path852-6-7-5"
     cx="15.999998"
     cy="15.64634"
     r="10.362997" />
  <ellipse
     style="opacity:0.4;fill:none;fill-opacity:1;stroke:#ffffff;stroke-width:0.32901046;stroke-miterlimit:4;stroke-dasharray:none;stroke-opacity:1"
     id="path852-6-7-3"
     cx="15.999998"
     cy="15.64634"
     rx="6.9086652"
     ry="6.9086647" />
  <circle
     style="opacity:0.4;fill:none;fill-opacity:1;stroke:#ffffff;stroke-width:0.28200895;stroke-miterlimit:4;stroke-dasharray:none;stroke-opacity:1"
     id="path852-6-7-3-6"
     cx="15.999998"
     cy="15.64634"
     r="5.9217124" />
</svg>
