<?xml version='1.0' encoding='utf-8'?>
<svg xmlns="http://www.w3.org/2000/svg" height="100%" stroke-miterlimit="10" style="fill-rule:nonzero;clip-rule:evenodd;stroke-linecap:round;stroke-linejoin:round;" version="1.1" viewBox="0 0 1920 1080" width="100%"> <metadata> </metadata> <defs> <radialGradient cx="1152.27" cy="846.338" gradientTransform="matrix(1 0 0 1 -2.00677 -8.15971)" gradientUnits="userSpaceOnUse" id="RadialGradient" r="612.095"> <stop offset="0" stop-color="#f5b881"/> <stop offset="0.997934" stop-color="#eaecbd"/> </radialGradient> </defs> <clipPath id="ArtboardFrame"> <rect height="1080" width="1920" x="0" y="0"/> </clipPath> <g clip-path="url(#ArtboardFrame)" id="Layer-1"> <path d="M6.89726-8.57485L1913.1-8.57485C1918.02-8.57485 1922.01-4.47792 1922.01 0.575895L1922.01 1079.42C1922.01 1084.48 1918.02 1088.57 1913.1 1088.57L6.89726 1088.57C1.9797 1088.57-2.00677 1084.48-2.00677 1079.42L-2.00677 0.575895C-2.00677-4.47792 1.9797-8.57485 6.89726-8.57485Z" fill="url(#RadialGradient)" fill-rule="evenodd" opacity="1" stroke="none"/> </g> <g clip-path="url(#ArtboardFrame)" id="Mountains"> <g opacity="1"> <path d="M1994.34 255.219C1992.31 255.13 1990.11 255.509 1987.72 256.406C1911.19 285.105 1917.27 258.969 1834.66 381.812C1754.94 500.357 1622.6 391.933 1597.09 562.531C1571.58 733.13 1609.86 761.838 1482.31 855.906C1312.64 981.04 1230.38 991.421 1145.88 1034.47C979.303 1119.33 995.602 1159.85 1092.75 1176C1109.86 1155.9 1146.05 1130.97 1206.66 1100.09C1291.16 1057.05 1373.39 1046.67 1543.06 921.531C1670.61 827.463 1632.33 798.755 1657.84 628.156C1683.35 457.558 1815.69 565.982 1895.41 447.438C1963.35 346.406 1971.9 345.964 2015.16 333.094C2015.81 286.765 2010.5 255.926 1994.34 255.219Z" fill="#c7f4f4" fill-rule="evenodd" opacity="1" stroke="none"/> <path d="M2015.16 333.094C1971.9 345.964 1963.35 346.406 1895.41 447.438C1815.69 565.982 1683.35 457.558 1657.84 628.156C1632.33 798.755 1520.46 802.266 1392.91 896.334C1223.24 1021.47 1291.16 1057.05 1206.66 1100.09C1146.05 1130.97 1109.86 1155.9 1092.75 1176C1292 1209.13 1831.47 1139.72 1831.47 1139.72C1831.47 1139.72 1981.35 1174.77 1976.56 1133.31C1971.78 1091.86 2002.07 827.209 1978.16 773C1960.92 733.921 2013.26 467.843 2015.16 333.094Z" fill="#55a5a5" fill-rule="evenodd" opacity="1" stroke="none"/> </g> <path d="M23.4456 659.998C120.703 628.111 76.0601 757.256 165.345 829.003C254.631 900.75 254.631 939.015 371.02 939.015C487.41 939.015 525.675 894.372 606.988 832.191C688.302 770.011 1128.35 884.603 1222.42 916.491C1316.49 948.378 1101.77 782.667 987.104 720.382C857.96 650.23 854.117 557.756 683.519 524.274C512.92 490.792 526.411 416.073 361.454 355.472C74.4657 250.04 39.3894 518.93 4.31303 541.252C-30.7633 563.573-73.8116 691.886 23.4456 659.998Z" fill="#1baeae" fill-rule="evenodd" opacity="1" stroke="none"/> <path d="M502.12 1026.5C599.378 1058.39 554.735 929.246 644.02 857.499C733.305 785.752 733.305 747.487 849.695 747.487C966.085 747.487 1004.35 792.129 1085.66 854.31C1166.98 916.491 1246.7 824.017 1340.76 792.129C1434.83 760.242 1445.99 844.744 1469.91 946.784C1493.82 1048.82 1548.03 989.832 1602.24 1021.72C1687.45 1071.84 1721.82 1149.27 1646.88 1256.09C1571.95 1362.92 1350.33 1244.93 1179.73 1278.41C1009.13 1311.9 1015.51 1342.19 840.129 1331.03C664.747 1319.87 612.133 1259.28 514.875 1267.25C417.618 1275.23 277.313 1337.41 242.237 1315.09C207.16 1292.76 267.747 1170 320.361 1112.6C372.976 1055.2 404.863 994.615 502.12 1026.5Z" fill="#248686" fill-rule="evenodd" opacity="1" stroke="none"/> <path d="M-58.7724 584.749C-58.7724 584.749-38.17 419.646 80.9045 388.007C199.979 356.367 161.917 452.437 254.104 529.523C346.291 606.609 375.623 514.566 485.968 509.964C596.312 505.362 607.486 603.158 726.212 654.932C875.371 719.978 749.957 824.062 853.318 902.298C925.904 957.241 1006.96 887.341 1092.17 974.782C1148.54 1032.63 1259.78 1140.46 1175.97 1231.35C1092.17 1322.25 974.837 1141.61 818.399 1229.05C661.96 1316.49 491.555 1287.73 349.084 1292.33C206.614 1296.93 103.253 1334.9-18.2661 1268.17C-139.785 1201.44-164.927 1122.05-178.895 1027.71C-192.862 933.363-195.656 837.868-181.688 780.341C-167.72 722.814-58.7724 584.749-58.7724 584.749Z" fill="#244c4c" fill-rule="evenodd" opacity="1" stroke="none"/> <path d="M118.75 381.844C108.215 382.094 95.7906 384.045 80.9062 388C26.4547 402.469-7.25464 444.827-27.9688 486.562C-25.5736 486.967-23.3489 487.481-20.8438 487.812C72.5008 500.172 42.6708 462.643 114.938 432.531C141.035 421.657 160.693 419.456 179.25 421.094C166.166 397.152 151.747 381.059 118.75 381.844Z" fill="#b2c6c6" fill-rule="evenodd" opacity="1" stroke="none"/> <path d="M63.3051 1131.73C63.3051 1131.73 136.647 881.415 262.602 868.659C388.558 855.904 394.936 1021.72 538.43 997.804C681.924 973.889 774.398 973.889 862.089 994.615C949.78 1015.34 972.101 1138.11 943.402 1171.59C914.704 1205.07 728.161 1238.56 589.45 1248.12C450.739 1257.69 233.904 1254.5 176.506 1228.99C119.108 1203.48 63.3051 1131.73 63.3051 1131.73Z" fill="#141d1d" fill-rule="evenodd" opacity="1" stroke="none"/> <path d="M-123.237 753.864C-104.105 736.326-30.7633 629.503 61.7107 726.76C154.185 824.017 158.968 940.407 273.763 986.644C388.558 1032.88 525.675 977.077 482.627 1106.22C439.579 1235.37 437.984 1276.82 273.763 1291.17C109.542 1305.52-80.1891 1235.37-155.125 1174.78C-230.061 1114.19-142.37 771.402-123.237 753.864Z" fill="#071010" fill-rule="evenodd" opacity="1" stroke="none"/> <path d="M1295.76 1107.82C1295.76 1107.82 1263.13 970.658 1471.14 953.162C1641.74 938.812 1636.96 822.422 1684.79 769.808C1732.62 717.193 1849.85 800.101 1920 841.555C1990.15 883.009 1933.51 1016.94 2005.26 1111.01C2077.01 1205.07 1713.49 1249.72 1600.29 1287.98C1487.09 1326.25 1295.76 1107.82 1295.76 1107.82Z" fill="#0b2222" fill-rule="evenodd" opacity="1" stroke="none"/> <path d="M630.904 1190.72C630.904 1190.72 645.253 1059.98 726.567 1012.15C807.88 964.322 1005.58 1026.5 1118.78 932.435C1231.99 838.366 1278.22 897.358 1365.91 922.868C1453.6 948.378 1628.99 1082.31 1841.04 1090.28C1984.23 1095.66 1271.84 1273.63 1239.96 1273.63C1208.07 1273.63 630.904 1190.72 630.904 1190.72Z" fill="#010505" fill-rule="evenodd" opacity="1" stroke="none"/> <path d="M508.469 510.562C471.494 545.36 440.437 576.478 431.75 586.188C408.903 611.723 349.755 664.152 513.719 691.031C635.745 711.036 717.543 704.977 780.781 691.156C768.823 678.174 751.553 665.985 726.219 654.938C616.12 606.925 598.444 519.367 508.469 510.562Z" fill="#b2c6c6" fill-rule="evenodd" opacity="1" stroke="none"/> <path d="M244.406 331.094C236.95 330.968 229.828 331.262 222.875 331.781C217.057 339.65 215.224 346.423 222.094 349.656C244.941 360.408 259.713 404.748 294.656 416.844C329.599 428.94 361.868 463.223 443.844 470.625C525.819 478.027 635.511 557.365 670.969 586.188C741.703 643.685 736.826 627.847 848.375 606.344C810.523 571.218 767.045 540.672 683.531 524.281C512.933 490.799 526.426 416.07 361.469 355.469C316.627 338.995 277.909 331.659 244.406 331.094Z" fill="#b2c6c6" fill-rule="evenodd" opacity="1" stroke="none"/> </g> <g id="Trees"> <g opacity="1"> <path d="M287.108 839.092L297.71 839.092L297.71 893.118L287.108 893.118L287.108 839.092Z" fill="#183535" fill-rule="evenodd" opacity="1" stroke="none"/> <g opacity="1"> <path d="M295.138 790.963L267.239 829.828L239.341 868.693L295.138 868.693L350.935 868.693L323.036 829.828L295.138 790.963Z" fill="#183535" fill-rule="evenodd" opacity="1" stroke="none"/> <path d="M295.691 778.056L271.965 808.592L248.239 839.128L295.691 839.128L343.142 839.128L319.416 808.592L295.691 778.056Z" fill="#183535" fill-rule="evenodd" opacity="1" stroke="none"/> <path d="M295.045 760.919L278.215 783.486L261.385 806.053L295.045 806.053L328.705 806.053L311.875 783.486L295.045 760.919Z" fill="#183535" fill-rule="evenodd" opacity="1" stroke="none"/> </g> </g> <g opacity="1"> <path d="M331.75 872.574L342.352 872.574L342.352 926.6L331.75 926.6L331.75 872.574Z" fill="#1a2626" fill-rule="evenodd" opacity="1" stroke="none"/> <g opacity="1"> <path d="M339.78 824.445L311.882 863.31L283.983 902.175L339.78 902.175L395.577 902.175L367.679 863.31L339.78 824.445Z" fill="#1a2626" fill-rule="evenodd" opacity="1" stroke="none"/> <path d="M340.333 811.538L316.608 842.074L292.882 872.61L340.333 872.61L387.785 872.61L364.059 842.074L340.333 811.538Z" fill="#1a2626" fill-rule="evenodd" opacity="1" stroke="none"/> <path d="M339.687 794.401L322.857 816.968L306.028 839.535L339.687 839.535L373.347 839.535L356.517 816.968L339.687 794.401Z" fill="#1a2626" fill-rule="evenodd" opacity="1" stroke="none"/> </g> </g> <g opacity="1"> <path d="M376.393 909.244L386.995 909.244L386.995 963.271L376.393 963.271L376.393 909.244Z" fill="#102222" fill-rule="evenodd" opacity="1" stroke="none"/> <g opacity="1"> <path d="M384.423 861.115L356.524 899.98L328.626 938.845L384.423 938.845L440.22 938.845L412.321 899.98L384.423 861.115Z" fill="#102222" fill-rule="evenodd" opacity="1" stroke="none"/> <path d="M384.976 848.209L361.25 878.745L337.524 909.281L384.976 909.281L432.427 909.281L408.702 878.745L384.976 848.209Z" fill="#102222" fill-rule="evenodd" opacity="1" stroke="none"/> <path d="M384.33 831.071L367.5 853.639L350.67 876.206L384.33 876.206L417.99 876.206L401.16 853.639L384.33 831.071Z" fill="#102222" fill-rule="evenodd" opacity="1" stroke="none"/> </g> </g> <g opacity="1"> <g opacity="1"> <path d="M1646.28 820.139L1654.22 820.139L1654.22 862.17L1646.28 862.17L1646.28 820.139Z" fill="#0f4747" fill-rule="evenodd" opacity="1" stroke="none"/> <g opacity="1"> <path d="M1652.29 782.697L1631.4 812.932L1610.51 843.168L1652.29 843.168L1694.07 843.168L1673.18 812.932L1652.29 782.697Z" fill="#0f4747" fill-rule="evenodd" opacity="1" stroke="none"/> <path d="M1652.7 772.657L1634.94 796.412L1617.17 820.168L1652.7 820.168L1688.24 820.168L1670.47 796.412L1652.7 772.657Z" fill="#0f4747" fill-rule="evenodd" opacity="1" stroke="none"/> <path d="M1652.22 759.324L1639.62 776.881L1627.01 794.437L1652.22 794.437L1677.43 794.437L1664.82 776.881L1652.22 759.324Z" fill="#0f4747" fill-rule="evenodd" opacity="1" stroke="none"/> </g> </g> <g opacity="1"> <path d="M1682.77 846.747L1690.74 846.747L1690.74 886.345L1682.77 886.345L1682.77 846.747Z" fill="#053939" fill-rule="evenodd" opacity="1" stroke="none"/> <g opacity="1"> <path d="M1688.8 811.471L1667.83 839.957L1646.87 868.442L1688.8 868.442L1730.74 868.442L1709.77 839.957L1688.8 811.471Z" fill="#053939" fill-rule="evenodd" opacity="1" stroke="none"/> <path d="M1689.22 802.012L1671.39 824.393L1653.55 846.774L1689.22 846.774L1724.88 846.774L1707.05 824.393L1689.22 802.012Z" fill="#053939" fill-rule="evenodd" opacity="1" stroke="none"/> <path d="M1688.73 789.451L1676.08 805.991L1663.43 822.532L1688.73 822.532L1714.03 822.532L1701.38 805.991L1688.73 789.451Z" fill="#053939" fill-rule="evenodd" opacity="1" stroke="none"/> </g> </g> <g opacity="1"> <path d="M1569.82 904.93L1575.69 904.93L1575.69 940.389L1569.82 940.389L1569.82 904.93Z" fill="#053939" fill-rule="evenodd" opacity="1" stroke="none"/> <g opacity="1"> <path d="M1574.27 873.343L1558.82 898.85L1543.37 924.358L1574.27 924.358L1605.17 924.358L1589.72 898.85L1574.27 873.343Z" fill="#053939" fill-rule="evenodd" opacity="1" stroke="none"/> <path d="M1574.58 864.872L1561.44 884.914L1548.3 904.955L1574.58 904.955L1600.85 904.955L1587.71 884.914L1574.58 864.872Z" fill="#053939" fill-rule="evenodd" opacity="1" stroke="none"/> <path d="M1574.22 853.625L1564.9 868.436L1555.58 883.247L1574.22 883.247L1592.86 883.247L1583.54 868.436L1574.22 853.625Z" fill="#053939" fill-rule="evenodd" opacity="1" stroke="none"/> </g> </g> </g> <g opacity="1"> <path d="M400.7 456.988L405.082 456.988L405.082 479.519L400.7 479.519L400.7 456.988Z" fill="#208080" fill-rule="evenodd" opacity="1" stroke="none"/> <g opacity="1"> <path d="M404.019 436.916L392.487 453.124L380.956 469.333L404.019 469.333L427.082 469.333L415.551 453.124L404.019 436.916Z" fill="#208080" fill-rule="evenodd" opacity="1" stroke="none"/> <path d="M404.248 431.533L394.441 444.268L384.634 457.003L404.248 457.003L423.861 457.003L414.054 444.268L404.248 431.533Z" fill="#208080" fill-rule="evenodd" opacity="1" stroke="none"/> <path d="M403.981 424.386L397.024 433.798L390.068 443.209L403.981 443.209L417.893 443.209L410.937 433.798L403.981 424.386Z" fill="#208080" fill-rule="evenodd" opacity="1" stroke="none"/> </g> </g> <g opacity="1"> <path d="M418.782 481.481L423.181 481.481L423.181 502.709L418.782 502.709L418.782 481.481Z" fill="#208080" fill-rule="evenodd" opacity="1" stroke="none"/> <g opacity="1"> <path d="M422.114 462.571L410.54 477.841L398.965 493.112L422.114 493.112L445.262 493.112L433.688 477.841L422.114 462.571Z" fill="#208080" fill-rule="evenodd" opacity="1" stroke="none"/> <path d="M422.343 457.5L412.5 469.498L402.657 481.496L422.343 481.496L442.029 481.496L432.186 469.498L422.343 457.5Z" fill="#208080" fill-rule="evenodd" opacity="1" stroke="none"/> <path d="M422.075 450.766L415.093 459.633L408.111 468.5L422.075 468.5L436.04 468.5L429.057 459.633L422.075 450.766Z" fill="#208080" fill-rule="evenodd" opacity="1" stroke="none"/> </g> </g> <g opacity="1"> <path d="M382.708 471.223L385.949 471.223L385.949 490.232L382.708 490.232L382.708 471.223Z" fill="#208080" fill-rule="evenodd" opacity="1" stroke="none"/> <g opacity="1"> <path d="M385.163 454.29L376.635 467.964L368.108 481.638L385.163 481.638L402.217 481.638L393.69 467.964L385.163 454.29Z" fill="#208080" fill-rule="evenodd" opacity="1" stroke="none"/> <path d="M385.332 449.749L378.08 460.493L370.828 471.236L385.332 471.236L399.835 471.236L392.583 460.493L385.332 449.749Z" fill="#208080" fill-rule="evenodd" opacity="1" stroke="none"/> <path d="M385.134 443.72L379.99 451.659L374.846 459.599L385.134 459.599L395.422 459.599L390.278 451.659L385.134 443.72Z" fill="#208080" fill-rule="evenodd" opacity="1" stroke="none"/> </g> </g> <g opacity="1"> <path d="M1754.57 532.976L1758.96 532.976L1758.96 555.507L1754.57 555.507L1754.57 532.976Z" fill="#157676" fill-rule="evenodd" opacity="1" stroke="none"/> <g opacity="1"> <path d="M1757.89 512.904L1746.36 529.112L1734.83 545.321L1757.89 545.321L1780.96 545.321L1769.43 529.112L1757.89 512.904Z" fill="#157676" fill-rule="evenodd" opacity="1" stroke="none"/> <path d="M1758.12 507.521L1748.32 520.256L1738.51 532.991L1758.12 532.991L1777.74 532.991L1767.93 520.256L1758.12 507.521Z" fill="#157676" fill-rule="evenodd" opacity="1" stroke="none"/> <path d="M1757.86 500.374L1750.9 509.786L1743.94 519.197L1757.86 519.197L1771.77 519.197L1764.81 509.786L1757.86 500.374Z" fill="#157676" fill-rule="evenodd" opacity="1" stroke="none"/> </g> </g> <g opacity="1"> <path d="M1724 553.456L1728.4 553.456L1728.4 574.683L1724 574.683L1724 553.456Z" fill="#157676" fill-rule="evenodd" opacity="1" stroke="none"/> <g opacity="1"> <path d="M1727.34 534.545L1715.76 549.816L1704.19 565.086L1727.34 565.086L1750.48 565.086L1738.91 549.816L1727.34 534.545Z" fill="#157676" fill-rule="evenodd" opacity="1" stroke="none"/> <path d="M1727.57 529.474L1717.72 541.472L1707.88 553.47L1727.57 553.47L1747.25 553.47L1737.41 541.472L1727.57 529.474Z" fill="#157676" fill-rule="evenodd" opacity="1" stroke="none"/> <path d="M1727.3 522.741L1720.32 531.608L1713.33 540.475L1727.3 540.475L1741.26 540.475L1734.28 531.608L1727.3 522.741Z" fill="#157676" fill-rule="evenodd" opacity="1" stroke="none"/> </g> </g> <g opacity="1"> <path d="M1697.65 568.288L1700.89 568.288L1700.89 587.296L1697.65 587.296L1697.65 568.288Z" fill="#157676" fill-rule="evenodd" opacity="1" stroke="none"/> <g opacity="1"> <path d="M1700.11 551.354L1691.58 565.028L1683.05 578.702L1700.11 578.702L1717.16 578.702L1708.63 565.028L1700.11 551.354Z" fill="#157676" fill-rule="evenodd" opacity="1" stroke="none"/> <path d="M1700.27 546.813L1693.02 557.557L1685.77 568.301L1700.27 568.301L1714.78 568.301L1707.53 557.557L1700.27 546.813Z" fill="#157676" fill-rule="evenodd" opacity="1" stroke="none"/> <path d="M1700.08 540.784L1694.93 548.724L1689.79 556.664L1700.08 556.664L1710.36 556.664L1705.22 548.724L1700.08 540.784Z" fill="#157676" fill-rule="evenodd" opacity="1" stroke="none"/> </g> </g> <g opacity="1"> <path d="M1113.03 862.397L1115.21 862.397L1115.21 874.654L1113.03 874.654L1113.03 862.397Z" fill="#168585" fill-rule="evenodd" opacity="1" stroke="none"/> <g opacity="1"> <path d="M1114.68 851.478L1108.96 860.295L1103.24 869.113L1114.68 869.113L1126.12 869.113L1120.4 860.295L1114.68 851.478Z" fill="#168585" fill-rule="evenodd" opacity="1" stroke="none"/> <path d="M1114.79 848.549L1109.93 855.477L1105.06 862.405L1114.79 862.405L1124.52 862.405L1119.66 855.477L1114.79 848.549Z" fill="#168585" fill-rule="evenodd" opacity="1" stroke="none"/> <path d="M1114.66 844.661L1111.21 849.781L1107.76 854.901L1114.66 854.901L1121.56 854.901L1118.11 849.781L1114.66 844.661Z" fill="#168585" fill-rule="evenodd" opacity="1" stroke="none"/> </g> </g> <g opacity="1"> <path d="M1099.35 855.107L1102.18 855.107L1102.18 871.569L1099.35 871.569L1099.35 855.107Z" fill="#0f6a6a" fill-rule="evenodd" opacity="1" stroke="none"/> <g opacity="1"> <path d="M1101.49 840.442L1094.04 852.284L1086.58 864.127L1101.49 864.127L1116.41 864.127L1108.95 852.284L1101.49 840.442Z" fill="#0f6a6a" fill-rule="evenodd" opacity="1" stroke="none"/> <path d="M1101.64 836.51L1095.3 845.814L1088.95 855.118L1101.64 855.118L1114.33 855.118L1107.99 845.814L1101.64 836.51Z" fill="#0f6a6a" fill-rule="evenodd" opacity="1" stroke="none"/> <path d="M1101.47 831.288L1096.97 838.164L1092.47 845.04L1101.47 845.04L1110.47 845.04L1105.97 838.164L1101.47 831.288Z" fill="#0f6a6a" fill-rule="evenodd" opacity="1" stroke="none"/> </g> </g> <g opacity="1"> <path d="M1129.06 867.094L1131.17 867.094L1131.17 880.443L1129.06 880.443L1129.06 867.094Z" fill="#208b8b" fill-rule="evenodd" opacity="1" stroke="none"/> <g opacity="1"> <path d="M1130.66 855.202L1125.11 864.805L1119.56 874.408L1130.66 874.408L1141.76 874.408L1136.21 864.805L1130.66 855.202Z" fill="#208b8b" fill-rule="evenodd" opacity="1" stroke="none"/> <path d="M1130.77 852.013L1126.05 859.558L1121.33 867.103L1130.77 867.103L1140.21 867.103L1135.49 859.558L1130.77 852.013Z" fill="#208b8b" fill-rule="evenodd" opacity="1" stroke="none"/> <path d="M1130.64 847.779L1127.29 853.355L1123.94 858.931L1130.64 858.931L1137.34 858.931L1133.99 853.355L1130.64 847.779Z" fill="#208b8b" fill-rule="evenodd" opacity="1" stroke="none"/> </g> </g> <g opacity="1"> <path d="M532.66 529.674L537.654 529.674L537.654 556.933L532.66 556.933L532.66 529.674Z" fill="#0f4646" fill-rule="evenodd" opacity="1" stroke="none"/> <g opacity="1"> <path d="M536.442 505.39L523.301 525L510.159 544.609L536.442 544.609L562.726 544.609L549.584 525L536.442 505.39Z" fill="#0f4646" fill-rule="evenodd" opacity="1" stroke="none"/> <path d="M536.703 498.878L525.527 514.285L514.351 529.692L536.703 529.692L559.055 529.692L547.879 514.285L536.703 498.878Z" fill="#0f4646" fill-rule="evenodd" opacity="1" stroke="none"/> <path d="M536.399 490.232L528.471 501.618L520.543 513.004L536.399 513.004L552.254 513.004L544.326 501.618L536.399 490.232Z" fill="#0f4646" fill-rule="evenodd" opacity="1" stroke="none"/> </g> </g> <g opacity="1"> <path d="M438.972 471.809L442.245 471.809L442.245 490.232L438.972 490.232L438.972 471.809Z" fill="#208080" fill-rule="evenodd" opacity="1" stroke="none"/> <g opacity="1"> <path d="M441.451 455.397L432.838 468.65L424.225 481.903L441.451 481.903L458.676 481.903L450.063 468.65L441.451 455.397Z" fill="#208080" fill-rule="evenodd" opacity="1" stroke="none"/> <path d="M441.621 450.996L434.297 461.409L426.972 471.822L441.621 471.822L456.27 471.822L448.946 461.409L441.621 450.996Z" fill="#208080" fill-rule="evenodd" opacity="1" stroke="none"/> <path d="M441.422 445.153L436.226 452.848L431.031 460.543L441.422 460.543L451.813 460.543L446.618 452.848L441.422 445.153Z" fill="#208080" fill-rule="evenodd" opacity="1" stroke="none"/> </g> </g> <g opacity="1"> <path d="M559.082 546.818L562.591 546.818L562.591 568.833L559.082 568.833L559.082 546.818Z" fill="#0f4646" fill-rule="evenodd" opacity="1" stroke="none"/> <g opacity="1"> <path d="M561.739 527.207L552.507 543.044L543.274 558.88L561.739 558.88L580.205 558.88L570.972 543.044L561.739 527.207Z" fill="#0f4646" fill-rule="evenodd" opacity="1" stroke="none"/> <path d="M561.922 521.948L554.071 534.391L546.219 546.833L561.922 546.833L577.626 546.833L569.774 534.391L561.922 521.948Z" fill="#0f4646" fill-rule="evenodd" opacity="1" stroke="none"/> <path d="M561.709 514.965L556.139 524.161L550.569 533.356L561.709 533.356L572.848 533.356L567.278 524.161L561.709 514.965Z" fill="#0f4646" fill-rule="evenodd" opacity="1" stroke="none"/> </g> </g> </g> <g id="Layer-2"> <path d="M1246.37 156.191C1270.99 136.195 1324.82 106.969 1403.27 82.3573C1481.72 57.7459 1527.87 120.813 1623.24 110.045C1718.61 99.2776 1775.52 142.348 1813.97 145.424C1852.43 148.5 1800.13 193.108 1724.76 233.102C1649.39 273.095 1581.7 266.943 1503.26 286.939C1424.81 306.936 1355.59 308.474 1277.14 296.169C1198.69 283.863 1075.63 237.717 1006.41 231.564C937.194 225.411 978.726 180.803 1023.33 170.035C1067.94 159.268 1187.92 176.188 1217.15 183.879" fill="#ffffff" fill-opacity="0.58108" fill-rule="evenodd" opacity="1" stroke="none"/> <path d="M243.601 56.2077C243.601 56.2077 360.505 42.3638 398.96 39.2874C437.415 36.211 563.549 66.9752 614.31 73.128C665.071 79.2809 671.224 122.351 620.463 148.5C569.702 174.65 458.95 180.803 400.498 170.035C342.046 159.268 257.445 143.886 198.993 119.274C140.541 94.663 103.624 113.122 57.4774 80.8191C-10.2081 33.4392 243.601 56.2077 243.601 56.2077Z" fill="#ffffff" fill-opacity="0.337837" fill-rule="evenodd" opacity="1" stroke="none"/> <g opacity="1"> <path d="M1615.23 883.734L1625.83 883.734L1625.83 937.761L1615.23 937.761L1615.23 883.734Z" fill="#053939" fill-rule="evenodd" opacity="1" stroke="none"/> <g opacity="1"> <path d="M1623.26 835.605L1595.36 874.47L1567.46 913.335L1623.26 913.335L1679.05 913.335L1651.15 874.47L1623.26 835.605Z" fill="#053939" fill-rule="evenodd" opacity="1" stroke="none"/> <path d="M1623.81 822.699L1600.08 853.235L1576.36 883.771L1623.81 883.771L1671.26 883.771L1647.53 853.235L1623.81 822.699Z" fill="#053939" fill-rule="evenodd" opacity="1" stroke="none"/> <path d="M1623.16 805.561L1606.33 828.129L1589.5 850.696L1623.16 850.696L1656.82 850.696L1639.99 828.129L1623.16 805.561Z" fill="#053939" fill-rule="evenodd" opacity="1" stroke="none"/> </g> </g> <path d="M243.601 56.2077C243.601 56.2077 360.505 42.3638 398.96 39.2874C437.415 36.211 563.549 66.9752 614.31 73.128C665.071 79.2809 671.224 122.351 620.463 148.5C569.702 174.65 458.95 180.803 400.498 170.035C342.046 159.268 257.445 143.886 198.993 119.274C140.541 94.663 103.624 113.122 57.4774 80.8191C-10.2081 33.4392 243.601 56.2077 243.601 56.2077Z" fill="#ffffff" fill-opacity="0.337837" fill-rule="evenodd" opacity="1" stroke="none"/> </g> </svg>