<?xml version="1.0" encoding="UTF-8" standalone="no"?>
<!-- Created with Inkscape (http://www.inkscape.org/) -->

<svg
   xmlns:dc="http://purl.org/dc/elements/1.1/"
   xmlns:cc="http://creativecommons.org/ns#"
   xmlns:rdf="http://www.w3.org/1999/02/22-rdf-syntax-ns#"
   xmlns:svg="http://www.w3.org/2000/svg"
   xmlns="http://www.w3.org/2000/svg"
   xmlns:xlink="http://www.w3.org/1999/xlink"
   xmlns:inkscape="http://www.inkscape.org/namespaces/inkscape"
   version="1.0"
   width="96"
   height="96"
   id="svg2408">
  <defs
     id="defs2410">
    <linearGradient
       id="linearGradient4384">
      <stop
         id="stop4386"
         style="stop-color:#ffffff;stop-opacity:1"
         offset="0" />
      <stop
         id="stop4388"
         style="stop-color:#ffffff;stop-opacity:0"
         offset="1" />
    </linearGradient>
    <linearGradient
       id="linearGradient4367">
      <stop
         id="stop4369"
         style="stop-color:#ffffff;stop-opacity:0.71755725"
         offset="0" />
      <stop
         id="stop4371"
         style="stop-color:#ffffff;stop-opacity:1"
         offset="1" />
    </linearGradient>
    <linearGradient
       x1="45.447727"
       y1="92.539597"
       x2="45.447727"
       y2="7.0165396"
       id="ButtonShadow"
       gradientUnits="userSpaceOnUse"
       gradientTransform="scale(1.0058652,0.994169)">
      <stop
         id="stop3750"
         style="stop-color:#000000;stop-opacity:1"
         offset="0" />
      <stop
         id="stop3752"
         style="stop-color:#000000;stop-opacity:0.58823532"
         offset="1" />
    </linearGradient>
    <linearGradient
       id="linearGradient3737">
      <stop
         id="stop3739"
         style="stop-color:#ffffff;stop-opacity:1"
         offset="0" />
      <stop
         id="stop3741"
         style="stop-color:#ffffff;stop-opacity:0"
         offset="1" />
    </linearGradient>
    <filter
       color-interpolation-filters="sRGB"
       id="filter3174">
      <feGaussianBlur
         id="feGaussianBlur3176"
         stdDeviation="1.71" />
    </filter>
    <filter
       x="-0.192"
       y="-0.192"
       width="1.3839999"
       height="1.3839999"
       color-interpolation-filters="sRGB"
       id="filter3794">
      <feGaussianBlur
         id="feGaussianBlur3796"
         stdDeviation="5.28" />
    </filter>
    <linearGradient
       x1="48"
       y1="20.220806"
       x2="48"
       y2="138.66119"
       id="linearGradient3613"
       xlink:href="#linearGradient3737"
       gradientUnits="userSpaceOnUse" />
    <linearGradient
       x1="45.447727"
       y1="92.539597"
       x2="45.447727"
       y2="7.0165396"
       id="ButtonShadow-0"
       gradientUnits="userSpaceOnUse"
       gradientTransform="matrix(1.0058652,0,0,0.994169,100,0)">
      <stop
         id="stop3750-8"
         style="stop-color:#000000;stop-opacity:1"
         offset="0" />
      <stop
         id="stop3752-5"
         style="stop-color:#000000;stop-opacity:0.58823532"
         offset="1" />
    </linearGradient>
    <linearGradient
       x1="32.251034"
       y1="6.1317081"
       x2="32.251034"
       y2="90.238609"
       id="linearGradient3780"
       xlink:href="#ButtonShadow-0"
       gradientUnits="userSpaceOnUse"
       gradientTransform="matrix(1.0238095,0,0,1.0119048,-1.1428571,-98.071429)" />
    <linearGradient
       x1="32.251034"
       y1="6.1317081"
       x2="32.251034"
       y2="90.238609"
       id="linearGradient3772"
       xlink:href="#ButtonShadow-0"
       gradientUnits="userSpaceOnUse"
       gradientTransform="matrix(1.0238095,0,0,1.0119048,-1.1428571,-98.071429)" />
    <linearGradient
       x1="32.251034"
       y1="6.1317081"
       x2="32.251034"
       y2="90.238609"
       id="linearGradient3725"
       xlink:href="#ButtonShadow-0"
       gradientUnits="userSpaceOnUse"
       gradientTransform="matrix(1.0238095,0,0,1.0119048,-1.1428571,-98.071429)" />
    <linearGradient
       x1="32.251034"
       y1="6.1317081"
       x2="32.251034"
       y2="90.238609"
       id="linearGradient3721"
       xlink:href="#ButtonShadow-0"
       gradientUnits="userSpaceOnUse"
       gradientTransform="translate(0,-97)" />
    <linearGradient
       x1="32.251034"
       y1="6.1317081"
       x2="32.251034"
       y2="90.238609"
       id="linearGradient3026"
       xlink:href="#ButtonShadow-0"
       gradientUnits="userSpaceOnUse"
       gradientTransform="matrix(1.0238095,0,0,1.0119048,-1.1428571,-98.071429)" />
    <clipPath
       id="clipPath4355">
      <rect
         width="84"
         height="80"
         rx="6"
         ry="6"
         x="6"
         y="6"
         id="rect4357"
         style="fill:#ffffff;fill-opacity:1;fill-rule:nonzero;stroke:none" />
    </clipPath>
    <radialGradient
       cx="48"
       cy="87.792389"
       r="42"
       fx="48"
       fy="87.792389"
       id="radialGradient4375"
       xlink:href="#linearGradient4367"
       gradientUnits="userSpaceOnUse"
       gradientTransform="matrix(1,-6.7114942e-8,8.4282233e-8,1.2557894,109.99999,-24.505592)" />
    <linearGradient
       x1="48"
       y1="88"
       x2="48"
       y2="-40"
       id="linearGradient4390"
       xlink:href="#linearGradient4384"
       gradientUnits="userSpaceOnUse"
       gradientTransform="matrix(1,0,0,-1,0,92)" />
    <linearGradient
       x1="48"
       y1="82"
       x2="112.12357"
       y2="82.454597"
       id="linearGradient4429"
       xlink:href="#linearGradient4384"
       gradientUnits="userSpaceOnUse"
       spreadMethod="reflect" />
    <linearGradient
       id="linearGradient3892">
      <stop
         id="stop3894"
         style="stop-color:#000000;stop-opacity:0.58823532"
         offset="0" />
      <stop
         id="stop3896"
         style="stop-color:#000000;stop-opacity:0.47058824"
         offset="0.11780351" />
      <stop
         id="stop3898"
         style="stop-color:#000000;stop-opacity:0.39215687"
         offset="0.23809524" />
      <stop
         id="stop3900"
         style="stop-color:#000000;stop-opacity:0.3137255"
         offset="1" />
    </linearGradient>
    <linearGradient
       x1="90"
       y1="88"
       x2="48"
       y2="88"
       id="linearGradient3228"
       xlink:href="#linearGradient3892"
       gradientUnits="userSpaceOnUse"
       spreadMethod="reflect" />
    <radialGradient
       cx="65.324959"
       cy="31.114408"
       r="52.04668"
       fx="65.324959"
       fy="31.114408"
       id="radialGradient4524"
       xlink:href="#linearGradient3762-0"
       gradientUnits="userSpaceOnUse"
       gradientTransform="matrix(1,0,0,1.0084418,-18,12.737341)" />
    <linearGradient
       id="linearGradient3762-0">
      <stop
         id="stop3764-5"
         style="stop-color:#ffda56;stop-opacity:1"
         offset="0" />
      <stop
         id="stop3770-3"
         style="stop-color:#ffda56;stop-opacity:1"
         offset="0.640625" />
      <stop
         id="stop3766-9"
         style="stop-color:#ffda56;stop-opacity:0"
         offset="1" />
    </linearGradient>
    <radialGradient
       cx="64"
       cy="32"
       r="40"
       fx="64"
       fy="32"
       id="radialGradient4522"
       xlink:href="#linearGradient3762-0"
       gradientUnits="userSpaceOnUse" />
    <radialGradient
       cx="64"
       cy="32"
       r="32"
       fx="64"
       fy="32"
       id="radialGradient4520"
       xlink:href="#linearGradient3752-3"
       gradientUnits="userSpaceOnUse" />
    <linearGradient
       id="linearGradient3752-3">
      <stop
         id="stop3754-6"
         style="stop-color:#ffdc4d;stop-opacity:1"
         offset="0" />
      <stop
         id="stop3756-2"
         style="stop-color:#ffe041;stop-opacity:1"
         offset="0.77642262" />
      <stop
         id="stop3758-7"
         style="stop-color:#fffda4;stop-opacity:0"
         offset="1" />
    </linearGradient>
    <radialGradient
       cx="52.148148"
       cy="43.851852"
       r="32"
       fx="52.148148"
       fy="43.851852"
       id="radialGradient4518"
       xlink:href="#linearGradient3699-8"
       gradientUnits="userSpaceOnUse" />
    <linearGradient
       id="linearGradient3699-8">
      <stop
         id="stop3701-8"
         style="stop-color:#fff894;stop-opacity:1"
         offset="0" />
      <stop
         id="stop4084"
         style="stop-color:#ffc822;stop-opacity:1"
         offset="0.80000001" />
      <stop
         id="stop3703-4"
         style="stop-color:#ffb400;stop-opacity:1"
         offset="1" />
    </linearGradient>
    <clipPath
       id="clipPath4303">
      <path
         d="m 96,32 a 32,32 0 1 1 -64,0 32,32 0 1 1 64,0 z"
         transform="matrix(0.84375003,0,0,0.84375003,-6.000001,14.000003)"
         id="path4305"
         style="color:#000000;fill:#ff0000;fill-opacity:1;fill-rule:nonzero;stroke:none;stroke-width:1.5;marker:none;visibility:visible;display:inline;overflow:visible;enable-background:accumulate" />
    </clipPath>
    <radialGradient
       cx="57.033619"
       cy="44.185143"
       r="10.810294"
       fx="57.033619"
       fy="44.185143"
       id="radialGradient4508"
       xlink:href="#linearGradient4271"
       gradientUnits="userSpaceOnUse"
       gradientTransform="matrix(1,0,0,1.0689655,0,-3.0472483)" />
    <linearGradient
       id="linearGradient4271">
      <stop
         id="stop4273"
         style="stop-color:#ff6600;stop-opacity:1"
         offset="0" />
      <stop
         id="stop4275"
         style="stop-color:#ff6600;stop-opacity:0"
         offset="1" />
    </linearGradient>
    <radialGradient
       cx="57.033619"
       cy="44.185143"
       r="10.810294"
       fx="57.033619"
       fy="44.185143"
       id="radialGradient4510"
       xlink:href="#linearGradient4271"
       gradientUnits="userSpaceOnUse"
       gradientTransform="matrix(1,0,0,1.0689655,0,-3.0472483)" />
    <radialGradient
       cx="57.033619"
       cy="44.185143"
       r="10.810294"
       fx="57.033619"
       fy="44.185143"
       id="radialGradient4512"
       xlink:href="#linearGradient4271"
       gradientUnits="userSpaceOnUse"
       gradientTransform="matrix(1,0,0,1.0689655,0,-3.0472483)" />
    <radialGradient
       cx="57.033619"
       cy="44.185143"
       r="10.810294"
       fx="57.033619"
       fy="44.185143"
       id="radialGradient4514"
       xlink:href="#linearGradient4271"
       gradientUnits="userSpaceOnUse"
       gradientTransform="matrix(1,0,0,1.0689655,0,-3.0472483)" />
    <linearGradient
       x1="64.995598"
       y1="-0.90906203"
       x2="64.995598"
       y2="55.535763"
       id="linearGradient4516"
       xlink:href="#linearGradient4090"
       gradientUnits="userSpaceOnUse" />
    <linearGradient
       id="linearGradient4090">
      <stop
         id="stop4092"
         style="stop-color:#ffffff;stop-opacity:1"
         offset="0" />
      <stop
         id="stop4094"
         style="stop-color:#ffffff;stop-opacity:0"
         offset="1" />
    </linearGradient>
    <filter
       x="-0.11751841"
       y="-0.12003421"
       width="1.2350368"
       height="1.2400684"
       color-interpolation-filters="sRGB"
       id="filter4421">
      <feGaussianBlur
         id="feGaussianBlur4423"
         stdDeviation="0.56854841" />
    </filter>
    <filter
       x="-0.13546811"
       y="-0.12851021"
       width="1.2709363"
       height="1.2570204"
       color-interpolation-filters="sRGB"
       id="filter4425">
      <feGaussianBlur
         id="feGaussianBlur4427"
         stdDeviation="0.56854841" />
    </filter>
    <filter
       color-interpolation-filters="sRGB"
       id="filter4429">
      <feGaussianBlur
         id="feGaussianBlur4431"
         stdDeviation="0.56854841" />
    </filter>
    <filter
       x="-0.068762444"
       y="-0.11615224"
       width="1.1375248"
       height="1.2323045"
       color-interpolation-filters="sRGB"
       id="filter4433">
      <feGaussianBlur
         id="feGaussianBlur4435"
         stdDeviation="0.56854841" />
    </filter>
    <filter
       color-interpolation-filters="sRGB"
       id="filter4437">
      <feGaussianBlur
         id="feGaussianBlur4439"
         stdDeviation="0.56854841" />
    </filter>
    <filter
       color-interpolation-filters="sRGB"
       id="filter4441">
      <feGaussianBlur
         id="feGaussianBlur4443"
         stdDeviation="0.56854841" />
    </filter>
    <filter
       color-interpolation-filters="sRGB"
       id="filter4445">
      <feGaussianBlur
         id="feGaussianBlur4447"
         stdDeviation="0.56854841" />
    </filter>
    <filter
       x="-0.073074818"
       y="-0.10019269"
       width="1.1461496"
       height="1.2003855"
       color-interpolation-filters="sRGB"
       id="filter4449">
      <feGaussianBlur
         id="feGaussianBlur4451"
         stdDeviation="0.56854841" />
    </filter>
    <filter
       color-interpolation-filters="sRGB"
       id="filter4453">
      <feGaussianBlur
         id="feGaussianBlur4455"
         stdDeviation="0.56854841" />
    </filter>
    <filter
       color-interpolation-filters="sRGB"
       id="filter4457">
      <feGaussianBlur
         id="feGaussianBlur4459"
         stdDeviation="0.56854841" />
    </filter>
    <filter
       x="-0.10343797"
       y="-0.21036677"
       width="1.2068759"
       height="1.4207335"
       color-interpolation-filters="sRGB"
       id="filter4461">
      <feGaussianBlur
         id="feGaussianBlur4463"
         stdDeviation="0.5685484" />
    </filter>
    <filter
       x="-0.071041182"
       y="-0.11023861"
       width="1.1420825"
       height="1.2204772"
       color-interpolation-filters="sRGB"
       id="filter4465">
      <feGaussianBlur
         id="feGaussianBlur4467"
         stdDeviation="0.5685484" />
    </filter>
    <filter
       color-interpolation-filters="sRGB"
       id="filter4469">
      <feGaussianBlur
         id="feGaussianBlur4471"
         stdDeviation="0.5685484" />
    </filter>
    <filter
       x="-0.070044853"
       y="-0.12051222"
       width="1.1400898"
       height="1.2410244"
       color-interpolation-filters="sRGB"
       id="filter4473">
      <feGaussianBlur
         id="feGaussianBlur4475"
         stdDeviation="0.56854841" />
    </filter>
    <linearGradient
       id="linearGradient3700-7">
      <stop
         id="stop3702-4"
         style="stop-color:#2a76bd;stop-opacity:1"
         offset="0" />
      <stop
         id="stop3704-1"
         style="stop-color:#68b0f4;stop-opacity:1"
         offset="1" />
    </linearGradient>
    <linearGradient
       x1="48"
       y1="90"
       x2="48"
       y2="5.9877172"
       id="linearGradient3324"
       xlink:href="#linearGradient3700-7"
       gradientUnits="userSpaceOnUse" />
    <clipPath
       id="clipPath3301">
      <rect
         width="84"
         height="80"
         rx="6"
         ry="6"
         x="6"
         y="6"
         id="rect3303"
         style="fill:#ff00ff;fill-opacity:1;fill-rule:nonzero;stroke:none;display:inline" />
    </clipPath>
  </defs>
  <metadata
     id="metadata2413">
    <rdf:RDF>
      <cc:Work
         rdf:about="">
        <dc:format>image/svg+xml</dc:format>
        <dc:type
           rdf:resource="http://purl.org/dc/dcmitype/StillImage" />
        <dc:title />
      </cc:Work>
    </rdf:RDF>
  </metadata>
  <g
     id="layer2"
     style="display:none">
    <rect
       width="86"
       height="85"
       rx="6"
       ry="6"
       x="5"
       y="7"
       id="rect3745"
       style="opacity:0.9;fill:url(#ButtonShadow);fill-opacity:1;fill-rule:nonzero;stroke:none;filter:url(#filter3174)" />
  </g>
  <g
     id="layer3"
     style="display:inline">
    <path
       d="m 12,-95.03125 c -5.5110903,0 -10.03125,4.52016 -10.03125,10.03125 l 0,71 c 0,5.5110902 4.5201598,10.03125 10.03125,10.03125 l 72,0 c 5.51109,0 10.03125,-4.5201597 10.03125,-10.03125 l 0,-71 c 0,-5.51109 -4.52016,-10.03125 -10.03125,-10.03125 l -72,0 z"
       transform="scale(1,-1)"
       id="path3786"
       style="opacity:0.07999998;fill:url(#linearGradient3026);fill-opacity:1;fill-rule:nonzero;stroke:none;display:inline" />
    <path
       d="m 12,-94.03125 c -4.971633,0 -9.03125,4.059617 -9.03125,9.03125 l 0,71 c 0,4.9716329 4.0596171,9.03125 9.03125,9.03125 l 72,0 c 4.971633,0 9.03125,-4.059617 9.03125,-9.03125 l 0,-71 c 0,-4.971633 -4.059617,-9.03125 -9.03125,-9.03125 l -72,0 z"
       transform="scale(1,-1)"
       id="path3778"
       style="opacity:0.1;fill:url(#linearGradient3780);fill-opacity:1;fill-rule:nonzero;stroke:none;display:inline" />
    <path
       d="m 12,-93 c -4.4091333,0 -8,3.590867 -8,8 l 0,71 c 0,4.4091333 3.5908667,8 8,8 l 72,0 c 4.409133,0 8,-3.5908667 8,-8 l 0,-71 c 0,-4.409133 -3.590867,-8 -8,-8 l -72,0 z"
       transform="scale(1,-1)"
       id="path3770"
       style="opacity:0.2;fill:url(#linearGradient3772);fill-opacity:1;fill-rule:nonzero;stroke:none;display:inline" />
    <rect
       width="86"
       height="85"
       rx="7"
       ry="7"
       x="5"
       y="-92"
       transform="scale(1,-1)"
       id="rect3723"
       style="opacity:0.3;fill:url(#linearGradient3725);fill-opacity:1;fill-rule:nonzero;stroke:none;display:inline" />
    <rect
       width="84"
       height="84"
       rx="6"
       ry="6"
       x="6"
       y="-91"
       transform="scale(1,-1)"
       id="rect3716"
       style="opacity:0.45;fill:url(#linearGradient3721);fill-opacity:1;fill-rule:nonzero;stroke:none;display:inline" />
  </g>
  <g
     id="layer1">
    <rect
       width="84"
       height="84"
       rx="6"
       ry="6"
       x="6"
       y="6"
       id="rect2419-8"
       style="fill:url(#linearGradient3324);fill-opacity:1;fill-rule:nonzero;stroke:none;display:inline" />
    <path
       d="M 120.78125,6.125 C 118.04223,6.6826484 116,9.0915 116,12 l 0,68 c 0,3.324 2.676,6 6,6 l 72,0 c 3.324,0 6,-2.676 6,-6 l 0,-68 c 0,-2.9085 -2.04223,-5.3173516 -4.78125,-5.875 2.20512,0.5362071 3.8125,2.4908437 3.8125,4.875 l 0,68 c 0,2.80489 -2.22636,5.03125 -5.03125,5.03125 l -72,0 c -2.80489,0 -5.03125,-2.22636 -5.03125,-5.03125 l 0,-68 c 0,-2.3841563 1.60738,-4.3387929 3.8125,-4.875 z"
       inkscape:connector-curvature="0"
       id="rect4359"
       style="opacity:0.2;fill:url(#radialGradient4375);fill-opacity:1;fill-rule:nonzero;stroke:none" />
    <path
       d="M 12,86 C 8.676,86 6,83.324 6,80 L 6,12 C 6,8.676 8.676,6 12,6 l 72,0 c 3.324,0 6,2.676 6,6 l 0,68 c 0,3.324 -2.676,6 -6,6 z m 0,-0.96875 72,0 c 2.80489,0 5.03125,-2.22636 5.03125,-5.03125 l 0,-68 C 89.03125,9.19511 86.80489,6.96875 84,6.96875 l -72,0 C 9.1951102,6.96875 6.96875,9.19511 6.96875,12 l 0,68 c 0,2.80489 2.2263602,5.03125 5.03125,5.03125 z"
       inkscape:connector-curvature="0"
       id="rect4377"
       style="opacity:0.3;fill:url(#linearGradient4390);fill-opacity:1;fill-rule:nonzero;stroke:none" />
    <path
       d="m 6,78 0,2 c 0,3.324 2.676,6 6,6 l 72,0 c 3.324,0 6,-2.676 6,-6 l 0,-2 c 0,3.324 -2.676,6 -6,6 L 12,84 C 8.676,84 6,81.324 6,78 z"
       inkscape:connector-curvature="0"
       id="rect4414"
       style="opacity:0.1;fill:url(#linearGradient4429);fill-opacity:1;fill-rule:nonzero;stroke:none" />
    <path
       d="m 6,100 0,1 c 0,3.324 2.676,6 6,6 l 72,0 c 3.324,0 6,-2.676 6,-6 l 0,-1 c 0,3.324 -2.676,6 -6,6 l -72,0 c -3.324,0 -6,-2.676 -6,-6 z"
       inkscape:connector-curvature="0"
       id="path4412"
       style="opacity:0.15;fill:#000000;fill-opacity:1;fill-rule:nonzero;stroke:none" />
  </g>
  <g
     id="layer4"
     style="display:inline">
    <path
       d="m 6,80 0,4 c 0,3.324 2.676,6 6,6 l 72,0 c 3.324,0 6,-2.676 6,-6 l 0,-4 c 0,3.324 -2.676,6 -6,6 L 12,86 C 8.676,86 6,83.324 6,80 z"
       inkscape:connector-curvature="0"
       id="path3888"
       style="fill:url(#linearGradient3228);fill-opacity:1;fill-rule:nonzero;stroke:none;display:inline" />
    <path
       d="m 6,82 0,2 c 0,3.324 2.676,6 6,6 l 72,0 c 3.324,0 6,-2.676 6,-6 l 0,-2 c 0,3.324 -2.676,6 -6,6 L 12,88 C 8.676,88 6,85.324 6,82 z"
       inkscape:connector-curvature="0"
       id="rect4345"
       style="opacity:0.1;color:#000000;fill:#000000;fill-opacity:1;fill-rule:nonzero;stroke:none;stroke-width:1.5;marker:none;visibility:visible;display:inline;overflow:visible;enable-background:accumulate" />
    <path
       d="m 6,83 0,1 c 0,3.324 2.676,6 6,6 l 72,0 c 3.324,0 6,-2.676 6,-6 l 0,-1 c 0,3.324 -2.676,6 -6,6 L 12,89 C 8.676,89 6,86.324 6,83 z"
       inkscape:connector-curvature="0"
       id="rect4336"
       style="opacity:0.15;color:#000000;fill:#000000;fill-opacity:1;fill-rule:nonzero;stroke:none;stroke-width:1.5;marker:none;visibility:visible;display:inline;overflow:visible;enable-background:accumulate" />
  </g>
  <g
     id="layer5"
     style="display:inline">
    <rect
       width="66"
       height="62"
       rx="12"
       ry="12"
       x="15"
       y="15"
       clip-path="url(#clipPath4355)"
       id="rect3171"
       style="opacity:0.1;fill:url(#linearGradient3613);fill-opacity:1;fill-rule:nonzero;stroke:#ffffff;stroke-width:0.5;stroke-linecap:round;stroke-linejoin:miter;stroke-miterlimit:4;stroke-opacity:1;stroke-dasharray:none;stroke-dashoffset:0;filter:url(#filter3794)" />
  </g>
  <g
     id="layer6">
    <g
       clip-path="url(#clipPath3301)"
       id="g4477">
      <path
         d="M 72.83281,-1.475796 58.495964,29.568774 85.88133,9.090686 62.65288,34.185497 95.02599,23.172223 65.179697,39.86082 99.37164,39.390416 65.829071,46.039202 98.49291,56.157713 64.537437,52.115859 92.4758,71.832817 61.43123,57.495968 81.90932,84.881338 56.814507,61.652884 65.072606,87.925251 51.139184,64.179701 50.625597,96.60046 44.960802,64.829075 36.219879,93.16335 38.884145,63.537441 22.906353,83.800673 33.504036,60.431234 1.985903,85.63248 29.34712,55.814511 -3.025992,66.827785 26.820303,50.139188 1.877873,49.428803 26.170929,43.960806 -4.721724,34.43269 27.462563,37.884149 7.002533,23.87434 30.56877,32.50404 10.090682,5.11867 35.185493,28.347124 24.172219,-4.025988 40.860816,25.820307 40.390412,-8.37164 47.039198,25.170933 57.157709,-7.492904 53.115855,26.462567 72.83281,-1.475796 z"
         inkscape:connector-curvature="0"
         id="path3663"
         style="opacity:0.3;color:#000000;fill:url(#radialGradient4524);fill-opacity:1;fill-rule:nonzero;stroke:none;stroke-width:1.5;marker:none;visibility:visible;display:inline;overflow:visible;enable-background:accumulate" />
      <path
         d="M 98.641016,52 83.98731,45.995265 94.641778,57.711505 81.253405,49.253405 89.711504,62.641778 77.995265,51.98731 84,66.641016 74.311885,54.11391 77.680806,69.587705 70.315185,55.56859 70.945927,71.39231 66.1266,56.30715 64,72 61.8734,56.30715 57.054073,71.39231 57.684815,55.56859 50.319194,69.587705 53.688115,54.11391 44,66.641016 50.004735,51.98731 38.288495,62.641778 46.746595,49.253405 33.358222,57.711504 44.01269,45.995265 29.358984,52 41.88609,42.311885 26.412295,45.680806 40.43141,38.315185 24.60769,38.945927 39.69285,34.1266 24,32 39.69285,29.8734 24.60769,25.054073 40.43141,25.684815 26.412295,18.319194 41.88609,21.688115 29.358984,12 44.01269,18.004735 33.358222,6.2884955 46.746595,14.746595 38.288496,1.3582222 50.004735,12.01269 44,-2.6410162 53.688115,9.8860903 50.319194,-5.5877049 57.684815,8.4314102 57.054073,-7.3923102 61.8734,7.6928497 64,-8 66.1266,7.6928498 70.945927,-7.3923101 70.315185,8.4314102 77.680806,-5.5877048 74.311885,9.8860904 84,-2.6410161 77.995265,12.01269 89.711505,1.3582224 81.253405,14.746595 94.641778,6.2884957 83.98731,18.004735 98.641016,12 86.11391,21.688115 101.5877,18.319194 87.56859,25.684815 103.39231,25.054073 88.30715,29.8734 104,32 88.30715,34.1266 103.39231,38.945927 87.56859,38.315185 101.5877,45.680806 86.11391,42.311885 z"
         transform="translate(-16,12.000004)"
         id="path3760"
         style="opacity:0.8;color:#000000;fill:url(#radialGradient4522);fill-opacity:1;fill-rule:nonzero;stroke:none;stroke-width:1.5;marker:none;visibility:visible;display:inline;overflow:visible;enable-background:accumulate" />
      <path
         d="m 96,32 a 32,32 0 1 1 -64,0 32,32 0 1 1 64,0 z"
         transform="matrix(1.03125,0,0,1.03125,-17.999996,10.000006)"
         id="path3651"
         style="color:#000000;fill:url(#radialGradient4520);fill-opacity:1;fill-rule:nonzero;stroke:none;stroke-width:1.5;marker:none;visibility:visible;display:inline;overflow:visible;enable-background:accumulate" />
      <path
         d="m 96,32 a 32,32 0 1 1 -64,0 32,32 0 1 1 64,0 z"
         transform="matrix(0.84375003,0,0,0.84375003,-6.000001,16.000003)"
         id="path3695"
         style="color:#000000;fill:url(#radialGradient4518);fill-opacity:1;fill-rule:nonzero;stroke:none;stroke-width:1.5;marker:none;visibility:visible;display:inline;overflow:visible;enable-background:accumulate" />
      <path
         d="m 48,16.000004 c -14.911689,0 -27,12.088311 -27,27 0,14.911689 12.088311,27 27,27 14.911689,0 27,-12.088311 27,-27 0,-14.911689 -12.088311,-27 -27,-27 z m 0,1 c 14.359403,0 26,11.640597 26,26 0,14.359403 -11.640597,26 -26,26 -14.359403,0 -26,-11.640597 -26,-26 0,-14.359403 11.640597,-26 26,-26 z"
         inkscape:connector-curvature="0"
         id="path3695-8"
         style="color:#000000;fill:#ffc000;fill-opacity:1;fill-rule:nonzero;stroke:none;stroke-width:1.5;marker:none;visibility:visible;display:inline;overflow:visible;enable-background:accumulate" />
      <g
         transform="translate(0,2)"
         clip-path="url(#clipPath4303)"
         id="g4295">
        <path
           d="m 67.843913,44.185143 a 10.810294,11.555831 0 1 1 -21.620588,0 10.810294,11.555831 0 1 1 21.620588,0 z"
           transform="matrix(1.3218391,0,0,1.3218391,-14.876472,-17.939623)"
           id="path4269"
           style="opacity:0.3;color:#000000;fill:url(#radialGradient4508);fill-opacity:1;fill-rule:nonzero;stroke:none;stroke-width:1.5;marker:none;visibility:visible;display:inline;overflow:visible;enable-background:accumulate" />
        <path
           d="m 67.843913,44.185143 a 10.810294,11.555831 0 1 1 -21.620588,0 10.810294,11.555831 0 1 1 21.620588,0 z"
           transform="matrix(1.0422692,0,0,1.0422692,-26.556559,-5.5867866)"
           id="path4279"
           style="opacity:0.3;color:#000000;fill:url(#radialGradient4510);fill-opacity:1;fill-rule:nonzero;stroke:none;stroke-width:1.5;marker:none;visibility:visible;display:inline;overflow:visible;enable-background:accumulate" />
        <path
           d="m 67.843913,44.185143 a 10.810294,11.555831 0 1 1 -21.620588,0 10.810294,11.555831 0 1 1 21.620588,0 z"
           transform="matrix(1.4508714,0,0,1.4508714,-43.952434,-36.066556)"
           id="path4283"
           style="opacity:0.3;color:#000000;fill:url(#radialGradient4512);fill-opacity:1;fill-rule:nonzero;stroke:none;stroke-width:1.5;marker:none;visibility:visible;display:inline;overflow:visible;enable-background:accumulate" />
        <path
           d="m 67.843913,44.185143 a 10.810294,11.555831 0 1 1 -21.620588,0 10.810294,11.555831 0 1 1 21.620588,0 z"
           transform="matrix(1.9221358,0,0,1.6981832,-48.091452,-49.354932)"
           id="path4287"
           style="opacity:0.3;color:#000000;fill:url(#radialGradient4514);fill-opacity:1;fill-rule:nonzero;stroke:none;stroke-width:1.5;marker:none;visibility:visible;display:inline;overflow:visible;enable-background:accumulate" />
      </g>
      <path
         d="m 96,32 a 32,32 0 1 1 -64,0 32,32 0 1 1 64,0 z"
         transform="matrix(0.58747152,0,0,0.37002308,10.401824,18.73364)"
         id="path4086"
         style="opacity:0.5;color:#000000;fill:url(#linearGradient4516);fill-opacity:1;fill-rule:nonzero;stroke:none;stroke-width:1.5;marker:none;visibility:visible;display:inline;overflow:visible;enable-background:accumulate" />
      <path
         d="m 24.8096,39.35105 c -0.486437,1.523676 0.0317,3.832207 1.873425,3.538622 1.077406,2.367083 -3.418682,3.028306 -2.45647,5.528441 0.390688,1.418612 2.462669,1.209646 1.542332,-0.444994 -0.274639,-2.100499 2.995175,-2.623043 2.999677,-0.281949 0.913693,1.612732 3.710035,2.717817 4.91407,0.846968 0.85384,-1.440377 -3.404403,-3.483763 -0.650318,-4.177487 2.547972,0.770365 3.537643,-2.50797 1.788276,-4.017132 -1.251246,-1.460564 -2.791804,0.09474 -3.100418,1.385872 -2.124936,1.495584 -4.440665,-0.981566 -4.19277,-3.068597 -0.75242,-0.953442 -2.491237,-0.48632 -2.717804,0.690256 z"
         inkscape:connector-curvature="0"
         id="path4337"
         style="opacity:0.07000002;fill:#ff6600;stroke:none;filter:url(#filter4421)" />
      <path
         d="m 41.211425,51.528162 c -1.140292,-1.575846 -2.314247,-4.741446 0.0246,-5.79161 2.394181,-0.669098 3.112004,2.302608 4.929997,2.944427 2.067223,0.09268 2.898693,1.705675 2.570029,3.544564 0.312424,1.426612 2.528382,3.15799 0.0925,3.94749 -1.677517,0.437833 -3.834764,-0.888012 -3.602076,-2.763831 0.04456,-2.121611 -2.241063,-2.205062 -3.585446,-1.506463 l -0.247153,-0.143804 -0.182455,-0.230773 0,0 z"
         inkscape:connector-curvature="0"
         id="path4339"
         style="opacity:0.07000002;fill:#ff6600;stroke:none;filter:url(#filter4425)" />
      <path
         d="m 31.270925,47.551962 c 2.067551,-0.470399 1.592808,-3.472738 3.44449,-4.141974 2.745902,0.544454 1.790062,4.163181 1.64083,6.165841 1.332023,1.968434 5.786664,0.474897 5.545368,3.700317 -0.428768,2.635469 1.508023,4.738719 1.82601,7.109089 -0.60003,2.643451 -4.945781,2.957873 -5.519638,0.110032 -1.142766,-2.169543 3.333377,-3.8415 0.382194,-5.469574 -1.889743,-0.83289 -4.549187,-2.114942 -6.029042,0.08389 -1.473276,1.946846 -4.445144,-0.129293 -4.128269,-2.17889 0.296978,-2.1872 5.120429,-0.812256 3.945563,-3.552061 -0.348713,-0.568152 -1.797441,-0.985101 -1.107506,-1.826673 z"
         inkscape:connector-curvature="0"
         id="path4341"
         style="opacity:0.07000002;fill:#ff6600;stroke:none;filter:url(#filter4429)" />
      <path
         d="m 34.004562,59.480562 c -1.916224,-0.985718 -2.800531,-4.922209 0.05414,-5.153051 2.184612,-0.07762 2.94969,2.589224 2.632208,4.359453 -0.258367,2.680317 3.684131,2.982919 5.16886,1.363 2.248605,-0.159205 4.171287,3.201028 6.380086,1.166407 1.006212,-0.753628 2.779377,-3.588743 3.833278,-1.923997 -0.65567,1.679783 -3.771871,2.221793 -2.832023,4.560821 -0.293617,2.284271 -3.30646,2.691912 -5.009291,1.742205 -1.531658,-1.004161 -3.323503,-4.115971 -5.241896,-1.905629 -1.795596,1.424613 -4.894233,-0.232303 -4.59639,-2.535132 -0.108318,-0.562421 -0.202472,-1.130729 -0.388971,-1.674077 z"
         inkscape:connector-curvature="0"
         id="path4343"
         style="opacity:0.07000002;fill:#ff6600;stroke:none;filter:url(#filter4433)" />
      <path
         d="m 57.861762,41.587662 c 1.691568,-0.386605 3.760001,-1.103698 5.252729,0.176942 1.622722,1.210354 0.947171,3.438271 1.465562,5.120212 1.075407,1.578792 2.868092,2.630145 3.39028,4.572528 0.549496,1.212388 1.005368,3.054703 -0.32076,3.936525 -1.679306,0.734234 -4.202379,0.786409 -5.202101,-1.039087 -1.295525,-1.324531 -1.38772,-3.392638 -2.484647,-4.736939 -1.879758,-0.59972 -3.943699,-0.114816 -5.855587,-0.794802 -1.655022,-0.183075 -3.172518,-1.722392 -2.722232,-3.446173 0.575059,-2.293314 3.030965,-3.732148 5.311456,-3.648082 0.390498,-0.02534 0.782142,-0.05803 1.165301,-0.141124 z"
         inkscape:connector-curvature="0"
         id="path4345"
         style="opacity:0.07000002;fill:#ff6600;stroke:none;filter:url(#filter4437)" />
      <path
         d="m 34.875138,37.544195 c 1.691567,-0.386605 3.760001,-1.103699 5.252728,0.176942 1.622723,1.210353 0.947172,3.438271 1.465562,5.120212 1.075407,1.578792 2.868092,2.630145 3.39028,4.572528 0.549496,1.212388 1.005368,3.054703 -0.32076,3.936525 -1.679306,0.734233 -4.202379,0.786408 -5.202101,-1.039088 -1.295525,-1.32453 -1.38772,-3.392637 -2.484647,-4.736939 -1.879758,-0.59972 -3.943699,-0.114816 -5.855587,-0.794802 -1.655022,-0.183074 -3.172518,-1.722392 -2.722232,-3.446173 0.575059,-2.293314 3.030965,-3.732148 5.311456,-3.648081 0.390498,-0.02534 0.782142,-0.05803 1.165301,-0.141124 z"
         inkscape:connector-curvature="0"
         id="path4347"
         style="opacity:0.07000002;fill:#ff6600;stroke:none;filter:url(#filter4441)" />
      <path
         d="m 55.418287,42.072787 c -1.916224,-0.985718 -2.800531,-4.922209 0.05414,-5.153051 2.184612,-0.07762 2.94969,2.589224 2.632208,4.359453 -0.258367,2.680317 3.684131,2.982919 5.16886,1.363 2.248605,-0.159205 4.171287,3.201028 6.380086,1.166407 1.006212,-0.753628 2.779377,-3.588743 3.833278,-1.923997 -0.65567,1.679783 -3.771871,2.221793 -2.832023,4.560821 -0.293617,2.284271 -3.30646,2.691912 -5.009291,1.742205 -1.531658,-1.004161 -3.323503,-4.115971 -5.241896,-1.905629 -1.795596,1.424613 -4.894233,-0.232303 -4.59639,-2.535132 -0.108318,-0.562421 -0.202472,-1.130729 -0.388971,-1.674077 z"
         inkscape:connector-curvature="0"
         transform="matrix(-0.43764358,0.89914854,-0.89914854,-0.43764358,125.09656,15.560182)"
         id="path4349"
         style="opacity:0.07000002;fill:#ff6600;stroke:none;filter:url(#filter4445)" />
      <path
         d="m 63.495725,27.343283 c 1.691567,-0.386605 3.760002,-1.103699 5.252728,0.176942 1.622723,1.210353 0.947173,3.438271 1.465562,5.120212 1.075407,1.578792 2.868092,2.630145 3.39028,4.572528 0.549496,1.212388 1.005368,3.054703 -0.32076,3.936525 -1.679305,0.734233 -4.202379,0.786408 -5.202101,-1.039088 -1.295524,-1.32453 -1.38772,-3.392637 -2.484647,-4.736939 -1.879758,-0.59972 -3.943699,-0.114816 -5.855587,-0.794802 -1.655022,-0.183074 -3.172518,-1.722392 -2.722232,-3.446173 0.575059,-2.293314 3.030965,-3.732148 5.311456,-3.648081 0.390498,-0.02534 0.782142,-0.05803 1.165301,-0.141124 z"
         inkscape:connector-curvature="0"
         transform="matrix(-0.97170735,0.23618812,-0.23618812,-0.97170735,124.59643,78.075132)"
         id="path4351"
         style="opacity:0.07000002;fill:#ff6600;stroke:none;filter:url(#filter4449)" />
      <path
         d="m 46.6787,46.806424 c 2.067551,-0.470399 1.592808,-3.472738 3.44449,-4.141974 2.745902,0.544454 1.790062,4.163181 1.64083,6.165841 1.332023,1.968434 5.786664,0.474897 5.545368,3.700317 -0.428768,2.635469 1.508023,4.738719 1.82601,7.109089 -0.60003,2.643451 -4.945781,2.957873 -5.519638,0.110032 -1.142766,-2.169543 3.333377,-3.8415 0.382194,-5.469574 -1.889743,-0.83289 -4.549187,-2.114942 -6.029042,0.08389 -1.473276,1.946846 -4.445144,-0.129293 -4.128269,-2.17889 0.296978,-2.1872 5.120429,-0.812256 3.945563,-3.552061 -0.348713,-0.568152 -1.797441,-0.985101 -1.107506,-1.826673 z"
         inkscape:connector-curvature="0"
         id="path4353"
         style="opacity:0.07000002;fill:#ff6600;stroke:none;filter:url(#filter4453)" />
      <path
         d="m 35.910838,43.496595 c 1.691567,-0.386605 3.760001,-1.103699 5.252728,0.176942 1.622723,1.210353 0.947172,3.438271 1.465562,5.120212 1.075407,1.578792 2.868092,2.630145 3.39028,4.572528 0.549496,1.212388 1.005368,3.054703 -0.32076,3.936525 -1.679306,0.734233 -4.202379,0.786408 -5.202101,-1.039088 -1.295525,-1.32453 -1.38772,-3.392637 -2.484647,-4.736939 -1.879758,-0.59972 -3.943699,-0.114816 -5.855587,-0.794802 -1.655022,-0.183074 -3.172518,-1.722392 -2.722232,-3.446173 0.575059,-2.293314 3.030965,-3.732148 5.311456,-3.648081 0.390498,-0.02534 0.782142,-0.05803 1.165301,-0.141124 z"
         inkscape:connector-curvature="0"
         transform="matrix(-0.97412445,-0.22601228,0.22601228,-0.97412445,56.552421,110.00044)"
         id="path4355"
         style="opacity:0.07000002;fill:#ff6600;stroke:none;filter:url(#filter4457)" />
      <path
         d="m 57.6549,36.605512 c -1.140292,-1.575846 -2.314247,-4.741446 0.0246,-5.79161 2.394181,-0.669098 3.112004,2.302608 4.929997,2.944427 2.067223,0.09268 2.898693,1.705675 2.570029,3.544564 0.312424,1.426612 2.528382,3.15799 0.0925,3.94749 -1.677517,0.437833 -3.834764,-0.888012 -3.602076,-2.763831 0.04456,-2.121611 -2.241063,-2.205062 -3.585446,-1.506463 l -0.247153,-0.143804 -0.182455,-0.230773 0,0 z"
         inkscape:connector-curvature="0"
         transform="matrix(-0.67461244,0.73817211,-0.73817211,-0.67461244,106.62158,34.560193)"
         id="path4357"
         style="opacity:0.07000002;fill:#ff6600;stroke:none;filter:url(#filter4461)" />
      <path
         d="m 47.7144,32.629312 c 2.067551,-0.470399 1.592808,-3.472738 3.44449,-4.141974 2.745902,0.544454 1.790062,4.163181 1.64083,6.165841 1.332023,1.968434 5.786664,0.474897 5.545368,3.700317 -0.428768,2.635469 1.508023,4.738719 1.82601,7.109089 -0.60003,2.643451 -4.945781,2.957873 -5.519638,0.110032 -1.142766,-2.169543 3.333377,-3.8415 0.382194,-5.469574 -1.889743,-0.83289 -4.549187,-2.114942 -6.029042,0.08389 -1.473276,1.946846 -4.445144,-0.129293 -4.128269,-2.17889 0.296978,-2.1872 5.120429,-0.812256 3.945563,-3.552061 C 48.473193,33.88783 47.024465,33.470881 47.7144,32.629309 z"
         inkscape:connector-curvature="0"
         transform="matrix(-0.67461244,0.73817211,-0.73817211,-0.67461244,106.62158,34.560193)"
         id="path4359"
         style="opacity:0.07000002;fill:#ff6600;stroke:none;filter:url(#filter4465)" />
      <path
         d="m 50.448037,44.557912 c -1.916224,-0.985718 -2.800531,-4.922209 0.05414,-5.153051 2.184612,-0.07762 2.94969,2.589224 2.632208,4.359453 -0.258367,2.680317 3.684131,2.982919 5.16886,1.363 2.248605,-0.159205 4.171287,3.201028 6.380086,1.166407 1.006212,-0.753628 2.779377,-3.588743 3.833278,-1.923997 -0.65567,1.679783 -3.771871,2.221793 -2.832023,4.560821 -0.293617,2.284271 -3.30646,2.691912 -5.009291,1.742205 -1.531658,-1.004161 -3.323503,-4.115971 -5.241896,-1.905629 -1.795596,1.424613 -4.894233,-0.232303 -4.59639,-2.535132 -0.108318,-0.562421 -0.202472,-1.130729 -0.388971,-1.674077 z"
         inkscape:connector-curvature="0"
         transform="matrix(-0.67461244,0.73817211,-0.73817211,-0.67461244,106.62158,34.560193)"
         id="path4361"
         style="opacity:0.07000002;fill:#ff6600;stroke:none;filter:url(#filter4469)" />
      <path
         d="m 35.910838,43.496595 c 1.691567,-0.386605 3.760001,-1.103699 5.252728,0.176942 1.622723,1.210353 0.947172,3.438271 1.465562,5.120212 1.075407,1.578792 2.868092,2.630145 3.39028,4.572528 0.549496,1.212388 1.005368,3.054703 -0.32076,3.936525 -1.679306,0.734233 -4.202379,0.786408 -5.202101,-1.039088 -1.295525,-1.32453 -1.38772,-3.392637 -2.484647,-4.736939 -1.879758,-0.59972 -3.943699,-0.114816 -5.855587,-0.794802 -1.655022,-0.183074 -3.172518,-1.722392 -2.722232,-3.446173 0.575059,-2.293314 3.030965,-3.732148 5.311456,-3.648081 0.390498,-0.02534 0.782142,-0.05803 1.165301,-0.141124 z"
         inkscape:connector-curvature="0"
         transform="matrix(0.82399243,-0.5666008,0.5666008,0.82399243,-12.806131,24.303068)"
         id="path4363"
         style="opacity:0.07000002;fill:#ff6600;stroke:none;filter:url(#filter4473)" />
    </g>
  </g>
</svg>
