/* XPM */
static char * close_active_xpm[] = {
"20 24 156 2",
"  	c None",
". 	c #AAAAAA",
"+ 	c #F8F7F8",
"@ 	c #F6F5F6",
"# 	c #F4F3F4",
"$ 	c #F2F1F2",
"% 	c #F0EFF0",
"& 	c #E0E0E0",
"* 	c #C4C3C4",
"= 	c #C3C2C3",
"- 	c #DFDEDF",
"; 	c #EEEDEE",
"> 	c #EDECED",
", 	c #A7A6A7",
"' 	c #554242",
") 	c #601E1E",
"! 	c #863636",
"~ 	c #883838",
"{ 	c #621F1F",
"] 	c #523D3D",
"^ 	c #9F9E9F",
"/ 	c #ECEBEC",
"( 	c #E7E6E7",
"_ 	c #605B5B",
": 	c #793636",
"< 	c #E3A4A4",
"[ 	c #F6DBDB",
"} 	c #F8E3E3",
"| 	c #F6DEDE",
"1 	c #E7ADAD",
"2 	c #834242",
"3 	c #585152",
"4 	c #E4E3E4",
"5 	c #EAE9EA",
"6 	c #E9E8E9",
"7 	c #5F5959",
"8 	c #9C4444",
"9 	c #EEBEBE",
"0 	c #F0C6C6",
"a 	c #F0C3C3",
"b 	c #A85454",
"c 	c #564D4D",
"d 	c #E8E7E8",
"e 	c #E7E7E7",
"f 	c #A0A0A0",
"g 	c #741D1D",
"h 	c #E39292",
"i 	c #E9A9A9",
"j 	c #E79E9E",
"k 	c #802222",
"l 	c #939393",
"m 	c #E5E5E5",
"n 	c #503C3C",
"o 	c #C73232",
"p 	c #E28D8D",
"q 	c #CD3E3E",
"r 	c #4D3232",
"s 	c #E4E4E4",
"t 	c #E3E3E3",
"u 	c #D3D3D3",
"v 	c #601B1B",
"w 	c #CC3333",
"x 	c #D96868",
"y 	c #DB7070",
"z 	c #DA6D6D",
"A 	c #CD3535",
"B 	c #681B1B",
"C 	c #CACACA",
"D 	c #E1E0E1",
"E 	c #B7B6B7",
"F 	c #812020",
"G 	c #CF3E3E",
"H 	c #D45353",
"I 	c #D45757",
"J 	c #D65E5E",
"K 	c #D86464",
"L 	c #D76464",
"M 	c #D45656",
"N 	c #D04242",
"O 	c #8D2323",
"P 	c #ABAAAB",
"Q 	c #C6C5C6",
"R 	c #8D2D2D",
"S 	c #CC3434",
"T 	c #D14949",
"U 	c #DA6E6E",
"V 	c #E08484",
"W 	c #E18C8C",
"X 	c #DF8484",
"Y 	c #D14747",
"Z 	c #932A2A",
"` 	c #BFBEBF",
" .	c #DDDCDD",
"..	c #DCDBDC",
"+.	c #894747",
"@.	c #D04545",
"#.	c #DE7C7C",
"$.	c #E49595",
"%.	c #DD7979",
"&.	c #CF4242",
"*.	c #873C3C",
"=.	c #DBDADB",
"-.	c #D8D7D8",
";.	c #8A7A7A",
">.	c #C53232",
",.	c #D75F5F",
"'.	c #E39191",
").	c #E39090",
"!.	c #D65B5B",
"~.	c #C93333",
"{.	c #856D6D",
"].	c #D9D8D9",
"^.	c #D8D8D8",
"/.	c #D7D7D7",
"(.	c #CDCDCD",
"_.	c #772929",
":.	c #E38F8F",
"<.	c #D55A5A",
"[.	c #7E2626",
"}.	c #C6C6C6",
"|.	c #D6D6D6",
"1.	c #9D9999",
"2.	c #8F3333",
"3.	c #E49494",
"4.	c #DC7676",
"5.	c #973333",
"6.	c #928C8C",
"7.	c #DADADA",
"8.	c #D4D4D4",
"9.	c #DEDEDE",
"0.	c #9B9898",
"a.	c #713030",
"b.	c #CE6161",
"c.	c #E08585",
"d.	c #D06060",
"e.	c #762F2F",
"f.	c #918D8D",
"g.	c #DFDFDF",
"h.	c #D2D2D2",
"i.	c #D1D1D1",
"j.	c #DCDCDC",
"k.	c #D5D5D5",
"l.	c #7C7171",
"m.	c #6E3B3B",
"n.	c #7B3030",
"o.	c #7C3030",
"p.	c #6E3838",
"q.	c #786B6B",
"r.	c #DDDDDD",
"s.	c #D0D0D0",
"t.	c #ECECEC",
"u.	c #EAEAEA",
"v.	c #E9E9E9",
"w.	c #E1E1E1",
"x.	c #CECECE",
"y.	c #CCCCCC",
". . . . . . . . . . . . . . . . . . . . ",
"+ + + + + + + + + + + + + + + + + + + + ",
"@ @ @ @ @ @ @ @ @ @ @ @ @ @ @ @ @ @ @ @ ",
"# # # # # # # # # # # # # # # # # # # # ",
"$ $ $ $ $ $ $ $ $ $ $ $ $ $ $ $ $ $ $ $ ",
"% % % % % % % % & * = - % % % % % % % % ",
"; ; ; ; ; > , ' ) ! ~ { ] ^ > ; ; ; ; ; ",
"/ / / / ( _ : < [ } } | 1 2 3 4 / / / / ",
"5 5 5 6 7 8 9 0 0 0 0 0 0 a b c d 5 5 5 ",
"e e e f g h i i i i i i i i j k l e e e ",
"m m m n o p p p p p p p p p p q r s m m ",
"t t u v w x y y y y y y y y z A B C t t ",
"D D E F w G H I J K L J M H N w O P D D ",
"- - Q R w S T U V W W X z Y S w Z ` - - ",
" . ...+.w @.#.h $.$.$.$.h %.&.w *... . .",
"=.=.-.;.>.,.'.$.$.$.$.$.$.).!.~.{.].=.=.",
"^.^./.(._.J ).$.$.$.$.$.$.:.<.[.}./.^.^.",
"|.|.|.^.1.2.%.'.3.$.$.3.).4.5.6.7.|.|.|.",
"8.8.8.8.9.0.a.b.#.c.c.#.d.e.f.g.u 8.8.8.",
"h.h.h.h.i.j.k.l.m.n.o.p.q.i.r.i.h.h.h.h.",
"s.s.s.s.s.s.s.& t.u.v.t.w.s.s.s.s.s.s.s.",
"x.x.x.x.x.x.x.x.x.x.x.x.x.x.x.x.x.x.x.x.",
"y.y.y.y.y.y.y.y.y.y.y.y.y.y.y.y.y.y.y.y.",
". . . . . . . . . . . . . . . . . . . . "};
