/* XPM */
static char * hide_active_xpm[] = {
"20 24 164 2",
"  	c None",
". 	c #AAAAAA",
"+ 	c #F8F7F8",
"@ 	c #F6F5F6",
"# 	c #F4F3F4",
"$ 	c #F2F1F2",
"% 	c #F0EFF0",
"& 	c #E0E0E0",
"* 	c #C4C3C4",
"= 	c #C3C2C3",
"- 	c #DFDEDF",
"; 	c #EEEDEE",
"> 	c #EDECED",
", 	c #A7A6A7",
"' 	c #574B3E",
") 	c #6A3F12",
"! 	c #925E26",
"~ 	c #946028",
"{ 	c #6C4012",
"] 	c #554839",
"^ 	c #9F9E9F",
"/ 	c #ECEBEC",
"( 	c #E7E6E7",
"_ 	c #615D5A",
": 	c #825729",
"< 	c #EDC397",
"[ 	c #FAE8D6",
"} 	c #FBEDDF",
"| 	c #FAEADA",
"1 	c #F0CAA1",
"2 	c #8C6235",
"3 	c #5A5550",
"4 	c #E4E3E4",
"5 	c #EAE9EA",
"6 	c #E9E8E9",
"7 	c #605C58",
"8 	c #A97032",
"9 	c #F5D6B5",
"0 	c #F6DBBE",
"a 	c #F6D9BA",
"b 	c #B47E42",
"c 	c #57514B",
"d 	c #E8E7E8",
"e 	c #E7E7E7",
"f 	c #A0A0A0",
"g 	c #80480B",
"h 	c #EFBA81",
"i 	c #F2C99D",
"j 	c #F1C290",
"k 	c #8D510F",
"l 	c #939393",
"m 	c #E5E5E5",
"n 	c #524538",
"o 	c #DD7C13",
"p 	c #EFB77C",
"q 	c #E18521",
"r 	c #503F2C",
"s 	c #E4E4E4",
"t 	c #E3E3E3",
"u 	c #D3D3D3",
"v 	c #6A3D0D",
"w 	c #E27F14",
"x 	c #E9A051",
"y 	c #EAA55A",
"z 	c #EAA357",
"A 	c #E28017",
"B 	c #73420B",
"C 	c #CACACA",
"D 	c #E1E0E1",
"E 	c #B7B6B7",
"F 	c #8F500D",
"G 	c #E38621",
"H 	c #E69339",
"I 	c #E6953D",
"J 	c #E79A46",
"K 	c #E89E4D",
"L 	c #E89D4D",
"M 	c #E79A45",
"N 	c #E6933A",
"O 	c #E48825",
"P 	c #9C580E",
"Q 	c #ABAAAB",
"R 	c #C6C5C6",
"S 	c #9B5D1A",
"T 	c #E28015",
"U 	c #E48C2D",
"V 	c #EAA459",
"W 	c #EDB272",
"X 	c #EEB67A",
"Y 	c #EDB171",
"Z 	c #E9A356",
"` 	c #E48C2C",
" .	c #E27F15",
"..	c #A25E15",
"+.	c #BFBEBF",
"@.	c #DDDCDD",
"#.	c #DCDBDC",
"$.	c #93683A",
"%.	c #E48A29",
"&.	c #ECAD68",
"*.	c #F0BC84",
"=.	c #F0BC85",
"-.	c #ECAB65",
";.	c #E48926",
">.	c #92612D",
",.	c #DBDADB",
"'.	c #D8D7D8",
").	c #8C8176",
"!.	c #DA7B15",
"~.	c #E89B47",
"{.	c #EFBA80",
"].	c #EFB97F",
"^.	c #E79842",
"/.	c #DE7D15",
"(.	c #887968",
"_.	c #D9D8D9",
":.	c #D8D8D8",
"<.	c #D7D7D7",
"[.	c #CDCDCD",
"}.	c #835019",
"|.	c #E89A46",
"1.	c #EFB97E",
"2.	c #E79741",
"3.	c #8A5214",
"4.	c #C6C6C6",
"5.	c #D6D6D6",
"6.	c #9D9B99",
"7.	c #9C6121",
"8.	c #ECAA64",
"9.	c #EFB980",
"0.	c #EBA961",
"a.	c #A5651F",
"b.	c #938F8B",
"c.	c #DADADA",
"d.	c #D4D4D4",
"e.	c #DEDEDE",
"f.	c #9B9998",
"g.	c #7B5123",
"h.	c #DE974B",
"i.	c #ECAD69",
"j.	c #EDB273",
"k.	c #ECAC68",
"l.	c #E0984A",
"m.	c #805220",
"n.	c #918F8D",
"o.	c #DFDFDF",
"p.	c #D2D2D2",
"q.	c #D1D1D1",
"r.	c #DCDCDC",
"s.	c #D5D5D5",
"t.	c #7D766F",
"u.	c #765431",
"v.	c #865521",
"w.	c #875620",
"x.	c #76532D",
"y.	c #7A7269",
"z.	c #DDDDDD",
"A.	c #D0D0D0",
"B.	c #ECECEC",
"C.	c #EAEAEA",
"D.	c #E9E9E9",
"E.	c #E1E1E1",
"F.	c #CECECE",
"G.	c #CCCCCC",
". . . . . . . . . . . . . . . . . . . . ",
"+ + + + + + + + + + + + + + + + + + + + ",
"@ @ @ @ @ @ @ @ @ @ @ @ @ @ @ @ @ @ @ @ ",
"# # # # # # # # # # # # # # # # # # # # ",
"$ $ $ $ $ $ $ $ $ $ $ $ $ $ $ $ $ $ $ $ ",
"% % % % % % % % & * = - % % % % % % % % ",
"; ; ; ; ; > , ' ) ! ~ { ] ^ > ; ; ; ; ; ",
"/ / / / ( _ : < [ } } | 1 2 3 4 / / / / ",
"5 5 5 6 7 8 9 0 0 0 0 0 0 a b c d 5 5 5 ",
"e e e f g h i i i i i i i i j k l e e e ",
"m m m n o p p p p p p p p p p q r s m m ",
"t t u v w x y y y y y y y y z A B C t t ",
"D D E F w G H I J K L M I N O w P Q D D ",
"- - R S w T U V W X X Y Z `  .w ..+.- - ",
"@.@.#.$.w %.&.h *.=.=.*.h -.;.w >.#.@.@.",
",.,.'.).!.~.{.*.=.=.=.=.=.].^./.(._.,.,.",
":.:.<.[.}.|.].*.=.=.=.=.=.1.2.3.4.<.:.:.",
"5.5.5.:.6.7.8.9.*.=.=.*.].0.a.b.c.5.5.5.",
"d.d.d.d.e.f.g.h.i.j.j.k.l.m.n.o.u d.d.d.",
"p.p.p.p.q.r.s.t.u.v.w.x.y.q.z.q.p.p.p.p.",
"A.A.A.A.A.A.A.& B.C.D.B.E.A.A.A.A.A.A.A.",
"F.F.F.F.F.F.F.F.F.F.F.F.F.F.F.F.F.F.F.F.",
"G.G.G.G.G.G.G.G.G.G.G.G.G.G.G.G.G.G.G.G.",
". . . . . . . . . . . . . . . . . . . . "};
