/* XPM */
static char * hide_inactive_xpm[] = {
"20 24 91 1",
" 	c None",
".	c #AAAAAA",
"+	c #F8F7F8",
"@	c #F6F5F6",
"#	c #F4F3F4",
"$	c #F2F1F2",
"%	c #F0EFF0",
"&	c #E3E2E3",
"*	c #D6D5D6",
"=	c #D5D5D5",
"-	c #E2E1E2",
";	c #EEEDEE",
">	c #EDECED",
",	c #CAC9CA",
"'	c #A3A2A3",
")	c #A2A2A2",
"!	c #B2B2B2",
"~	c #B3B3B3",
"{	c #A4A4A4",
"]	c #A0A0A0",
"^	c #C7C6C7",
"/	c #ECEBEC",
"(	c #E7E6E7",
"_	c #AEAEAE",
":	c #E1E1E1",
"<	c #F4F4F4",
"[	c #F7F7F7",
"}	c #F5F5F5",
"|	c #E5E5E5",
"1	c #A7A7A7",
"2	c #E5E4E5",
"3	c #EAE9EA",
"4	c #E8E7E8",
"5	c #A9A9A9",
"6	c #B8B8B8",
"7	c #ECECEC",
"8	c #EEEEEE",
"9	c #EDEDED",
"0	c #BFBFBF",
"a	c #A6A6A6",
"b	c #E7E7E7",
"c	c #C4C4C4",
"d	c #DFDFDF",
"e	c #E6E6E6",
"f	c #E3E3E3",
"g	c #9F9F9F",
"h	c #C0C0C0",
"i	c #DEDEDE",
"j	c #C5C5C5",
"k	c #9C9C9C",
"l	c #D6D6D6",
"m	c #D3D3D3",
"n	c #D4D4D4",
"o	c #A5A5A5",
"p	c #D2D2D2",
"q	c #E1E0E1",
"r	c #ACACAC",
"s	c #C7C7C7",
"t	c #CDCDCD",
"u	c #CECECE",
"v	c #D0D0D0",
"w	c #C8C8C8",
"x	c #DFDEDF",
"y	c #D0CFD0",
"z	c #B0B0B0",
"A	c #CACACA",
"B	c #DBDBDB",
"C	c #DDDDDD",
"D	c #C9C9C9",
"E	c #CECDCE",
"F	c #DDDCDD",
"G	c #DCDBDC",
"H	c #B6B6B6",
"I	c #D9D9D9",
"J	c #E0E0E0",
"K	c #D8D8D8",
"L	c #DBDADB",
"M	c #D8D7D8",
"N	c #C2C2C2",
"O	c #CFCFCF",
"P	c #C1C1C1",
"Q	c #D9D8D9",
"R	c #D7D7D7",
"S	c #ABABAB",
"T	c #D1D1D1",
"U	c #B1B1B1",
"V	c #CCCCCC",
"W	c #DADADA",
"X	c #DCDCDC",
"Y	c #E9E9E9",
"Z	c #BCBCBC",
"....................",
"++++++++++++++++++++",
"@@@@@@@@@@@@@@@@@@@@",
"####################",
"$$$$$$$$$$$$$$$$$$$$",
"%%%%%%%%&*=-%%%%%%%%",
";;;;;>,')!~{]^/;;;;;",
"////(._:<[[}|~12////",
"333456788888890a(333",
"bbbc1deeeeeeeef.0bbb",
"|||ghiiiiiiiiiijkf||",
"ffl)cm========njopff",
"qq,rcstuvppvutwc_jqq",
"xxyzccAnBCCBnDcczExx",
"FFGHcDIdJJJJdKwc~FFF",
"LLMNhvdJJJJJJdOP0QLL",
"KKRi.vdJJJJJJiOSiRKK",
"lllKTUKdJJJJdR~VWlll",
"nnnniTSVIXXIVrVJmnnn",
"ppppTXY0r__rZbCTpppp",
"vvvvvvvJ7887:vvvvvvv",
"uuuuuuuuuuuuuuuuuuuu",
"VVVVVVVVVVVVVVVVVVVV",
"...................."};
