/* XPM */
static char * maximize_active_xpm[] = {
"20 24 164 2",
"  	c None",
". 	c #AAAAAA",
"+ 	c #F8F7F8",
"@ 	c #F6F5F6",
"# 	c #F4F3F4",
"$ 	c #F2F1F2",
"% 	c #F0EFF0",
"& 	c #E0E0E0",
"* 	c #C4C3C4",
"= 	c #C3C2C3",
"- 	c #DFDEDF",
"; 	c #EEEDEE",
"> 	c #EDECED",
", 	c #A7A6A7",
"' 	c #475341",
") 	c #315D1D",
"! 	c #4C8233",
"~ 	c #4E8435",
"{ 	c #315F1D",
"] 	c #44513D",
"^ 	c #9F9E9F",
"/ 	c #ECEBEC",
"( 	c #E7E6E7",
"_ 	c #5C5F5B",
": 	c #497534",
"< 	c #B5E0A1",
"[ 	c #E3F4DB",
"} 	c #E9F7E2",
"| 	c #E5F5DE",
"1 	c #BDE4AB",
"2 	c #547F40",
"3 	c #545851",
"4 	c #E4E3E4",
"5 	c #EAE9EA",
"6 	c #E9E8E9",
"7 	c #5B5E59",
"8 	c #5C9840",
"9 	c #CCECBC",
"0 	c #D2EEC5",
"a 	c #CFEDC1",
"b 	c #6BA450",
"c 	c #4F554D",
"d 	c #E8E7E8",
"e 	c #E7E7E7",
"f 	c #A0A0A0",
"g 	c #356F19",
"h 	c #A8DF8F",
"i 	c #BBE6A7",
"j 	c #B2E39C",
"k 	c #3C7B1E",
"l 	c #939393",
"m 	c #E5E5E5",
"n 	c #424F3B",
"o 	c #5BBF2C",
"p 	c #A4DE89",
"q 	c #A4DE8A",
"r 	c #65C538",
"s 	c #394B30",
"t 	c #E4E4E4",
"u 	c #E3E3E3",
"v 	c #D3D3D3",
"w 	c #2E5C18",
"x 	c #5DC42D",
"y 	c #87D363",
"z 	c #8DD56C",
"A 	c #8BD469",
"B 	c #5FC52F",
"C 	c #306418",
"D 	c #CACACA",
"E 	c #E1E0E1",
"F 	c #B7B6B7",
"G 	c #3B7C1C",
"H 	c #66C738",
"I 	c #76CD4E",
"J 	c #79CE52",
"K 	c #7FD059",
"L 	c #84D260",
"M 	c #84D25F",
"N 	c #79CE51",
"O 	c #77CD4E",
"P 	c #69C83C",
"Q 	c #40871F",
"R 	c #ABAAAB",
"S 	c #C6C5C6",
"T 	c #48882A",
"U 	c #5EC42E",
"V 	c #6ECA43",
"W 	c #8CD46A",
"X 	c #9DDB81",
"Y 	c #A3DD88",
"Z 	c #9DDB80",
"` 	c #8BD468",
" .	c #6DC942",
"..	c #478D26",
"+.	c #BFBEBF",
"@.	c #DDDCDD",
"#.	c #DCDBDC",
"$.	c #598644",
"%.	c #6BC940",
"&.	c #97D978",
"*.	c #AAE092",
"=.	c #ABE092",
"-.	c #A8DF8E",
";.	c #95D876",
">.	c #69C83D",
",.	c #508339",
"'.	c #DBDADB",
").	c #D8D7D8",
"!.	c #7E8979",
"~.	c #5BBE2D",
"{.	c #80D05B",
"].	c #A7DF8E",
"^.	c #A7DF8D",
"/.	c #7DCF56",
"(.	c #5CC12D",
"_.	c #74836C",
":.	c #D9D8D9",
"<.	c #D8D8D8",
"[.	c #D7D7D7",
"}.	c #CDCDCD",
"|.	c #3E7325",
"1.	c #A6DE8C",
"2.	c #7CCF55",
"3.	c #3E7923",
"4.	c #C6C6C6",
"5.	c #D6D6D6",
"6.	c #9A9D99",
"7.	c #4D8A30",
"8.	c #94D875",
"9.	c #AAE091",
"0.	c #92D772",
"a.	c #4E922F",
"b.	c #8E928C",
"c.	c #DADADA",
"d.	c #D4D4D4",
"e.	c #DEDEDE",
"f.	c #999B98",
"g.	c #426E2E",
"h.	c #7FC95D",
"i.	c #97D979",
"j.	c #9EDC82",
"k.	c #96D978",
"l.	c #7FCA5C",
"m.	c #42722C",
"n.	c #8E918D",
"o.	c #DFDFDF",
"p.	c #D2D2D2",
"q.	c #D1D1D1",
"r.	c #DCDCDC",
"s.	c #D5D5D5",
"t.	c #747B71",
"u.	c #4A6B39",
"v.	c #45772D",
"w.	c #45782D",
"x.	c #476B36",
"y.	c #6F786B",
"z.	c #DDDDDD",
"A.	c #D0D0D0",
"B.	c #ECECEC",
"C.	c #EAEAEA",
"D.	c #E9E9E9",
"E.	c #E1E1E1",
"F.	c #CECECE",
"G.	c #CCCCCC",
". . . . . . . . . . . . . . . . . . . . ",
"+ + + + + + + + + + + + + + + + + + + + ",
"@ @ @ @ @ @ @ @ @ @ @ @ @ @ @ @ @ @ @ @ ",
"# # # # # # # # # # # # # # # # # # # # ",
"$ $ $ $ $ $ $ $ $ $ $ $ $ $ $ $ $ $ $ $ ",
"% % % % % % % % & * = - % % % % % % % % ",
"; ; ; ; ; > , ' ) ! ~ { ] ^ > ; ; ; ; ; ",
"/ / / / ( _ : < [ } } | 1 2 3 4 / / / / ",
"5 5 5 6 7 8 9 0 0 0 0 0 0 a b c d 5 5 5 ",
"e e e f g h i i i i i i i i j k l e e e ",
"m m m n o p q q q q q q q q q r s t m m ",
"u u v w x y z z z z z z z z A B C D u u ",
"E E F G x H I J K L M K N O P x Q R E E ",
"- - S T x U V W X Y Y Z `  .U x ..+.- - ",
"@.@.#.$.x %.&.h *.=.=.*.-.;.>.x ,.#.@.@.",
"'.'.).!.~.{.].*.=.=.=.=.=.^./.(._.:.'.'.",
"<.<.[.}.|.K ^.*.=.=.=.=.=.1.2.3.4.[.<.<.",
"5.5.5.<.6.7.8.^.9.=.=.9.^.0.a.b.c.5.5.5.",
"d.d.d.d.e.f.g.h.i.j.j.k.l.m.n.o.v d.d.d.",
"p.p.p.p.q.r.s.t.u.v.w.x.y.q.z.q.p.p.p.p.",
"A.A.A.A.A.A.A.& B.C.D.B.E.A.A.A.A.A.A.A.",
"F.F.F.F.F.F.F.F.F.F.F.F.F.F.F.F.F.F.F.F.",
"G.G.G.G.G.G.G.G.G.G.G.G.G.G.G.G.G.G.G.G.",
". . . . . . . . . . . . . . . . . . . . "};
