/* XPM */
static char * maximize_pressed_xpm[] = {
"20 24 109 2",
"  	c None",
". 	c #AAAAAA",
"+ 	c #F8F7F8",
"@ 	c #F6F5F6",
"# 	c #F4F3F4",
"$ 	c #F2F1F2",
"% 	c #F0EFF0",
"& 	c #E0E0E0",
"* 	c #C4C3C4",
"= 	c #C3C2C3",
"- 	c #DFDEDF",
"; 	c #EEEDEE",
"> 	c #EDECED",
", 	c #A7A6A7",
"' 	c #555555",
") 	c #606060",
"! 	c #868686",
"~ 	c #888888",
"{ 	c #626262",
"] 	c #525252",
"^ 	c #9F9E9F",
"/ 	c #ECEBEC",
"( 	c #E7E6E7",
"_ 	c #797979",
": 	c #E3E3E3",
"< 	c #F6F6F6",
"[ 	c #F8F8F8",
"} 	c #E7E7E7",
"| 	c #838383",
"1 	c #585858",
"2 	c #E4E3E4",
"3 	c #EAE9EA",
"4 	c #E9E8E9",
"5 	c #5F5F5F",
"6 	c #9C9C9C",
"7 	c #EEEEEE",
"8 	c #F0F0F0",
"9 	c #A8A8A8",
"0 	c #565556",
"a 	c #E8E7E8",
"b 	c #A0A0A0",
"c 	c #747474",
"d 	c #E9E9E9",
"e 	c #808080",
"f 	c #939393",
"g 	c #E5E5E5",
"h 	c #505050",
"i 	c #C7C7C7",
"j 	c #E2E2E2",
"k 	c #CDCDCD",
"l 	c #4D4D4D",
"m 	c #E4E4E4",
"n 	c #D3D3D3",
"o 	c #CCCCCC",
"p 	c #D9D9D9",
"q 	c #DBDBDB",
"r 	c #DADADA",
"s 	c #686868",
"t 	c #CACACA",
"u 	c #E1E0E1",
"v 	c #B7B6B7",
"w 	c #818181",
"x 	c #CFCFCF",
"y 	c #D4D4D4",
"z 	c #D6D6D6",
"A 	c #D8D8D8",
"B 	c #D7D7D7",
"C 	c #D0D0D0",
"D 	c #8D8D8D",
"E 	c #ABAAAB",
"F 	c #C6C5C6",
"G 	c #D1D1D1",
"H 	c #E1E1E1",
"I 	c #DFDFDF",
"J 	c #BFBEBF",
"K 	c #DDDCDD",
"L 	c #DCDBDC",
"M 	c #898989",
"N 	c #DEDEDE",
"O 	c #DDDDDD",
"P 	c #878787",
"Q 	c #DBDADB",
"R 	c #D8D7D8",
"S 	c #8A8A8A",
"T 	c #C5C5C5",
"U 	c #C9C9C9",
"V 	c #858585",
"W 	c #D9D8D9",
"X 	c #777777",
"Y 	c #D5D5D5",
"Z 	c #7E7E7E",
"` 	c #C6C6C6",
" .	c #9D9D9D",
"..	c #8F8F8F",
"+.	c #DCDCDC",
"@.	c #979797",
"#.	c #929292",
"$.	c #9B9B9B",
"%.	c #717171",
"&.	c #CECECE",
"*.	c #767676",
"=.	c #919191",
"-.	c #D2D2D2",
";.	c #7C7C7C",
">.	c #6E6E6E",
",.	c #7B7B7B",
"'.	c #787878",
").	c #ECECEC",
"!.	c #EAEAEA",
". . . . . . . . . . . . . . . . . . . . ",
"+ + + + + + + + + + + + + + + + + + + + ",
"@ @ @ @ @ @ @ @ @ @ @ @ @ @ @ @ @ @ @ @ ",
"# # # # # # # # # # # # # # # # # # # # ",
"$ $ $ $ $ $ $ $ $ $ $ $ $ $ $ $ $ $ $ $ ",
"% % % % % % % % & * = - % % % % % % % % ",
"; ; ; ; ; > , ' ) ! ~ { ] ^ > ; ; ; ; ; ",
"/ / / / ( ) _ : < [ [ < } | 1 2 / / / / ",
"3 3 3 4 5 6 7 8 8 8 8 8 8 8 9 0 a 3 3 3 ",
"} } } b c : d d d d d d d d } e f } } } ",
"g g g h i j j j j j j j j j j k l m g g ",
": : n ) o p q q q q q q q q r k s t : : ",
"u u v w o x y y z A B z y y C o D E u u ",
"- - F D o o G r & H H I r G o o f J - - ",
"K K L M o C N : m m m m : O x o P L K K ",
"Q Q R S T B : m m m m m m : z U V W Q Q ",
"A A B k X z : m m m m m m : Y Z ` B A A ",
"z z z A  ...O : m m m m : +.@.#.r z z z ",
"y y y y N $.%.&.N & & N C *.=.I n y y y ",
"-.-.-.-.G +.Y ;.>.,.;.>.'.G O G -.-.-.-.",
"C C C C C C C & ).!.d ).H C C C C C C C ",
"&.&.&.&.&.&.&.&.&.&.&.&.&.&.&.&.&.&.&.&.",
"o o o o o o o o o o o o o o o o o o o o ",
". . . . . . . . . . . . . . . . . . . . "};
