/* XPM */
static char * menu_active_xpm[] = {
"20 24 165 2",
"  	c None",
". 	c #AAAAAA",
"+ 	c #F8F7F8",
"@ 	c #F6F5F6",
"# 	c #F4F3F4",
"$ 	c #F2F1F2",
"% 	c #F0EFF0",
"& 	c #E0E0E0",
"* 	c #C4C3C4",
"= 	c #C3C2C3",
"- 	c #DFDEDF",
"; 	c #EEEDEE",
"> 	c #EDECED",
", 	c #A7A6A7",
"' 	c #414B53",
") 	c #193E5B",
"! 	c #305C80",
"~ 	c #315E82",
"{ 	c #1A3F5D",
"] 	c #3C4751",
"^ 	c #9F9E9F",
"/ 	c #ECEBEC",
"( 	c #E7E6E7",
"_ 	c #5B5D5F",
": 	c #315674",
"< 	c #9EC2DF",
"[ 	c #D9E8F4",
"} 	c #E1EDF6",
"| 	c #DCEAF5",
"1 	c #A8C9E3",
"2 	c #3D617E",
"3 	c #515558",
"4 	c #E4E3E4",
"5 	c #EAE9EA",
"6 	c #E9E8E9",
"7 	c #595C5E",
"8 	c #3C6E96",
"9 	c #BAD5EB",
"0 	c #C3DAED",
"a 	c #BFD8EC",
"b 	c #4C7CA2",
"c 	c #4D5155",
"d 	c #E8E7E8",
"e 	c #E7E7E7",
"f 	c #A0A0A0",
"g 	c #15466D",
"h 	c #8BB9DD",
"i 	c #A4C8E5",
"j 	c #98C1E1",
"k 	c #1A4F79",
"l 	c #939393",
"m 	c #E5E5E5",
"n 	c #3A454F",
"o 	c #2579BC",
"p 	c #86B6DC",
"q 	c #3282C2",
"r 	c #2F3E4A",
"s 	c #E4E4E4",
"t 	c #E3E3E3",
"u 	c #D3D3D3",
"v 	c #153C5A",
"w 	c #267CC1",
"x 	c #5E9ED1",
"y 	c #67A3D3",
"z 	c #64A1D2",
"A 	c #287DC2",
"B 	c #144063",
"C 	c #CACACA",
"D 	c #E1E0E1",
"E 	c #B7B6B7",
"F 	c #184E7A",
"G 	c #3283C4",
"H 	c #4891CB",
"I 	c #4C93CC",
"J 	c #5497CE",
"K 	c #5A9BCF",
"L 	c #4C92CB",
"M 	c #4991CB",
"N 	c #3686C6",
"O 	c #1A5685",
"P 	c #ABAAAB",
"Q 	c #C6C5C6",
"R 	c #255B86",
"S 	c #277DC1",
"T 	c #3D8AC7",
"U 	c #65A2D2",
"V 	c #7DB0D9",
"W 	c #85B5DB",
"X 	c #84B5DB",
"Y 	c #7CAFD9",
"Z 	c #63A1D2",
"` 	c #3C89C7",
" .	c #277CC1",
"..	c #225C8B",
"+.	c #BFBEBF",
"@.	c #DDDCDD",
"#.	c #DCDBDC",
"$.	c #416784",
"%.	c #3987C6",
"&.	c #74ABD7",
"*.	c #8EBADE",
"=.	c #8EBBDF",
"-.	c #8BB8DD",
";.	c #71A9D6",
">.	c #3686C5",
",.	c #356081",
"'.	c #DBDADB",
").	c #D8D7D8",
"!.	c #788189",
"~.	c #2679BB",
"{.	c #5598CE",
"].	c #8AB8DD",
"^.	c #8FBBDF",
"/.	c #89B7DD",
"(.	c #5196CD",
"_.	c #267ABE",
":.	c #6B7883",
"<.	c #D9D8D9",
"[.	c #D8D8D8",
"}.	c #D7D7D7",
"|.	c #CDCDCD",
"1.	c #224E71",
"2.	c #88B7DD",
"3.	c #4F95CC",
"4.	c #1F5077",
"5.	c #C6C6C6",
"6.	c #D6D6D6",
"7.	c #999B9D",
"8.	c #2C5F89",
"9.	c #70A9D6",
"0.	c #8DBADE",
"a.	c #89B8DD",
"b.	c #6DA7D5",
"c.	c #2A6390",
"d.	c #8C8F92",
"e.	c #DADADA",
"f.	c #D4D4D4",
"g.	c #DEDEDE",
"h.	c #98999B",
"i.	c #2B4F6D",
"j.	c #5895C6",
"k.	c #7EB1DA",
"l.	c #73AAD7",
"m.	c #5796C8",
"n.	c #295071",
"o.	c #8D8F90",
"p.	c #DFDFDF",
"q.	c #D2D2D2",
"r.	c #D1D1D1",
"s.	c #DCDCDC",
"t.	c #D5D5D5",
"u.	c #70767B",
"v.	c #37546A",
"w.	c #2A5476",
"x.	c #295477",
"y.	c #33526A",
"z.	c #6A7177",
"A.	c #DDDDDD",
"B.	c #D0D0D0",
"C.	c #ECECEC",
"D.	c #EAEAEA",
"E.	c #E9E9E9",
"F.	c #E1E1E1",
"G.	c #CECECE",
"H.	c #CCCCCC",
". . . . . . . . . . . . . . . . . . . . ",
"+ + + + + + + + + + + + + + + + + + + + ",
"@ @ @ @ @ @ @ @ @ @ @ @ @ @ @ @ @ @ @ @ ",
"# # # # # # # # # # # # # # # # # # # # ",
"$ $ $ $ $ $ $ $ $ $ $ $ $ $ $ $ $ $ $ $ ",
"% % % % % % % % & * = - % % % % % % % % ",
"; ; ; ; ; > , ' ) ! ~ { ] ^ > ; ; ; ; ; ",
"/ / / / ( _ : < [ } } | 1 2 3 4 / / / / ",
"5 5 5 6 7 8 9 0 0 0 0 0 0 a b c d 5 5 5 ",
"e e e f g h i i i i i i i i j k l e e e ",
"m m m n o p p p p p p p p p p q r s m m ",
"t t u v w x y y y y y y y y z A B C t t ",
"D D E F w G H I J K K J L M N w O P D D ",
"- - Q R w S T U V W X Y Z `  .w ..+.- - ",
"@.@.#.$.w %.&.h *.=.=.*.-.;.>.w ,.#.@.@.",
"'.'.).!.~.{.].*.=.^.^.=.=./.(._.:.<.'.'.",
"[.[.}.|.1.J /.*.=.^.^.=.=.2.3.4.5.}.[.[.",
"6.6.6.[.7.8.9.].0.=.=.*.a.b.c.d.e.6.6.6.",
"f.f.f.f.g.h.i.j.&.k.k.l.m.n.o.p.u f.f.f.",
"q.q.q.q.r.s.t.u.v.w.x.y.z.r.A.r.q.q.q.q.",
"B.B.B.B.B.B.B.& C.D.E.C.F.B.B.B.B.B.B.B.",
"G.G.G.G.G.G.G.G.G.G.G.G.G.G.G.G.G.G.G.G.",
"H.H.H.H.H.H.H.H.H.H.H.H.H.H.H.H.H.H.H.H.",
". . . . . . . . . . . . . . . . . . . . "};
