/* XPM */
static char * shade_active_xpm[] = {
"20 24 128 2",
"  	c None",
". 	c #AAAAAA",
"+ 	c #F8F7F8",
"@ 	c #F6F5F6",
"# 	c #F4F3F4",
"$ 	c #F2F1F2",
"% 	c #F0EFF0",
"& 	c #E0E0E0",
"* 	c #C4C3C4",
"= 	c #C3C2C3",
"- 	c #DFDEDF",
"; 	c #EEEDEE",
"> 	c #EDECED",
", 	c #A7A6A7",
"' 	c #4A4A4A",
") 	c #3C3C3C",
"! 	c #5A5A5A",
"~ 	c #5C5C5C",
"{ 	c #3D3C3C",
"] 	c #474647",
"^ 	c #9F9E9F",
"/ 	c #ECEBEC",
"( 	c #E7E6E7",
"_ 	c #5D5D5D",
": 	c #545454",
"< 	c #C0C0C0",
"[ 	c #E7E7E7",
"} 	c #ECECEC",
"| 	c #E9E9E9",
"1 	c #C7C7C7",
"2 	c #5F5F5F",
"3 	c #E4E3E4",
"4 	c #EAE9EA",
"5 	c #E9E8E9",
"6 	c #6B6B6B",
"7 	c #D4D4D4",
"8 	c #D9D9D9",
"9 	c #D7D7D7",
"0 	c #797979",
"a 	c #515151",
"b 	c #E8E7E8",
"c 	c #A0A0A0",
"d 	c #434343",
"e 	c #B6B6B6",
"f 	c #C6C6C6",
"g 	c #BFBFBF",
"h 	c #4C4C4C",
"i 	c #939393",
"j 	c #E5E5E5",
"k 	c #454545",
"l 	c #747474",
"m 	c #B3B3B3",
"n 	c #7D7D7D",
"o 	c #3D3D3D",
"p 	c #E4E4E4",
"q 	c #E3E3E3",
"r 	c #D3D3D3",
"s 	c #393939",
"t 	c #777777",
"u 	c #9A9A9A",
"v 	c #9E9E9E",
"w 	c #787878",
"x 	c #3E3E3E",
"y 	c #CACACA",
"z 	c #E1E0E1",
"A 	c #B7B6B7",
"B 	c #4B4B4B",
"C 	c #7E7E7E",
"D 	c #8C8C8C",
"E 	c #8F8F8F",
"F 	c #949494",
"G 	c #979797",
"H 	c #8E8E8E",
"I 	c #8D8D8D",
"J 	c #818181",
"K 	c #525252",
"L 	c #ABAAAB",
"M 	c #C6C5C6",
"N 	c #585858",
"O 	c #858585",
"P 	c #ADADAD",
"Q 	c #B2B2B2",
"R 	c #ACACAC",
"S 	c #9D9D9D",
"T 	c #595959",
"U 	c #BFBEBF",
"V 	c #DDDCDD",
"W 	c #DCDBDC",
"X 	c #646464",
"Y 	c #838383",
"Z 	c #A8A8A8",
"` 	c #B8B8B8",
" .	c #A6A6A6",
"..	c #DBDADB",
"+.	c #D8D7D8",
"@.	c #B5B5B5",
"#.	c #929292",
"$.	c #757575",
"%.	c #D9D8D9",
"&.	c #D8D8D8",
"*.	c #CDCDCD",
"=.	c #B4B4B4",
"-.	c #919191",
";.	c #4D4D4D",
">.	c #D6D6D6",
",.	c #9B9B9B",
"'.	c #A5A5A5",
").	c #A4A4A4",
"!.	c #DADADA",
"~.	c #DEDEDE",
"{.	c #999999",
"].	c #AEAEAE",
"^.	c #A7A7A7",
"/.	c #4E4E4E",
"(.	c #DFDFDF",
"_.	c #D2D2D2",
":.	c #D1D1D1",
"<.	c #DCDCDC",
"[.	c #D5D5D5",
"}.	c #767676",
"|.	c #505050",
"1.	c #717171",
"2.	c #DDDDDD",
"3.	c #D0D0D0",
"4.	c #EAEAEA",
"5.	c #E1E1E1",
"6.	c #CECECE",
"7.	c #CCCCCC",
". . . . . . . . . . . . . . . . . . . . ",
"+ + + + + + + + + + + + + + + + + + + + ",
"@ @ @ @ @ @ @ @ @ @ @ @ @ @ @ @ @ @ @ @ ",
"# # # # # # # # # # # # # # # # # # # # ",
"$ $ $ $ $ $ $ $ $ $ $ $ $ $ $ $ $ $ $ $ ",
"% % % % % % % % & * = - % % % % % % % % ",
"; ; ; ; ; > , ' ) ! ~ { ] ^ > ; ; ; ; ; ",
"/ / / / ( _ : < [ } } | 1 2 : 3 / / / / ",
"4 4 4 5 ~ 6 7 8 8 8 8 8 8 9 0 a b 4 4 4 ",
"[ [ [ c d e f f f f f f f f g h i [ [ [ ",
"j j j k l m m m m m m m m m m n o p j j ",
"q q r s t u c c c c c c c c v w x y q q ",
"z z A B t C D E F G G i H I J t K L z z ",
"- - M N t w O v P Q Q R S O t t T U - - ",
"V V W X t Y Z e ` ` ` ` e  .J t _ W V V ",
"....+.J l F @.` ` ` ` ` ` @.#.$.w %.....",
"&.&.9 *.h F @.` ` ` ` ` ` =.-.;.f 9 &.&.",
">.>.>.&.,.~ '.@.` ` ` ` @.).2 E !.>.>.>.",
"7 7 7 7 ~.{.;.#.Z ].].^.#./.H (.r 7 7 7 ",
"_._._._.:.<.[.}.K K K |.1.:.2.:._._._._.",
"3.3.3.3.3.3.3.& } 4.| } 5.3.3.3.3.3.3.3.",
"6.6.6.6.6.6.6.6.6.6.6.6.6.6.6.6.6.6.6.6.",
"7.7.7.7.7.7.7.7.7.7.7.7.7.7.7.7.7.7.7.7.",
". . . . . . . . . . . . . . . . . . . . "};
