/* XPM */
static char * stick_active_xpm[] = {
"20 24 160 2",
"  	c None",
". 	c #AAAAAA",
"+ 	c #F8F7F8",
"@ 	c #F6F5F6",
"# 	c #F4F3F4",
"$ 	c #F2F1F2",
"% 	c #F0EFF0",
"& 	c #E0E0E0",
"* 	c #C4C3C4",
"= 	c #C3C2C3",
"- 	c #DFDEDF",
"; 	c #EEEDEE",
"> 	c #EDECED",
", 	c #A7A6A7",
"' 	c #4D4351",
") 	c #452153",
"! 	c #653A77",
"~ 	c #673C79",
"{ 	c #462255",
"] 	c #4A3E4E",
"^ 	c #9F9E9F",
"/ 	c #ECEBEC",
"( 	c #E7E6E7",
"_ 	c #5E5B5F",
": 	c #5D396C",
"< 	c #C9A7D7",
"[ 	c #EBDDF1",
"} 	c #EFE4F4",
"| 	c #ECE0F2",
"1 	c #CFB0DC",
"2 	c #684576",
"3 	c #565157",
"4 	c #E4E3E4",
"5 	c #EAE9EA",
"6 	c #E9E8E9",
"7 	c #5D595E",
"8 	c #77488C",
"9 	c #DAC1E5",
"0 	c #DFC8E8",
"a 	c #DDC5E7",
"b 	c #855898",
"c 	c #524D54",
"d 	c #E8E7E8",
"e 	c #E7E7E7",
"f 	c #A0A0A0",
"g 	c #4F2163",
"h 	c #C195D4",
"i 	c #CFACDD",
"j 	c #C8A2D9",
"k 	c #58266E",
"l 	c #939393",
"m 	c #E5E5E5",
"n 	c #483D4C",
"o 	c #8939AB",
"p 	c #BE91D2",
"q 	c #9144B2",
"r 	c #413347",
"s 	c #E4E4E4",
"t 	c #E3E3E3",
"u 	c #D3D3D3",
"v 	c #431D52",
"w 	c #8C3AAF",
"x 	c #AA6DC4",
"y 	c #AE75C7",
"z 	c #AD72C6",
"A 	c #8D3CB0",
"B 	c #481E5A",
"C 	c #CACACA",
"D 	c #E1E0E1",
"E 	c #B7B6B7",
"F 	c #59256F",
"G 	c #9245B3",
"H 	c #9E59BB",
"I 	c #A05CBC",
"J 	c #A464BF",
"K 	c #A769C2",
"L 	c #A463BF",
"M 	c #9448B5",
"N 	c #612879",
"O 	c #ABAAAB",
"P 	c #C6C5C6",
"Q 	c #65327B",
"R 	c #8C3BAF",
"S 	c #984FB7",
"T 	c #AD73C6",
"U 	c #B989CE",
"V 	c #BE90D1",
"W 	c #B988CE",
"X 	c #AC72C5",
"Y 	c #974EB7",
"Z 	c #672F7F",
"` 	c #BFBEBF",
" .	c #DDDCDD",
"..	c #DCDBDC",
"+.	c #6E4A7D",
"@.	c #964BB6",
"#.	c #B581CB",
"$.	c #C398D5",
"%.	c #B47ECA",
"&.	c #9449B5",
"*.	c #673F79",
"=.	c #DBDADB",
"-.	c #D8D7D8",
";.	c #837A87",
">.	c #8839A9",
",.	c #A565C0",
"'.	c #C195D3",
").	c #C399D5",
"!.	c #C094D3",
"~.	c #A261BE",
"{.	c #8A3AAC",
"].	c #7B6E80",
"^.	c #D9D8D9",
"/.	c #D8D8D8",
"(.	c #D7D7D7",
"_.	c #CDCDCD",
":.	c #562C68",
"<.	c #A464C0",
"[.	c #C093D3",
"}.	c #A260BE",
"|.	c #592A6D",
"1.	c #C6C6C6",
"2.	c #D6D6D6",
"3.	c #9B999C",
"4.	c #69377E",
"5.	c #B37DCA",
"6.	c #C194D4",
"7.	c #B27BC9",
"8.	c #6D3784",
"9.	c #908D91",
"0.	c #DADADA",
"a.	c #D4D4D4",
"b.	c #DEDEDE",
"c.	c #9A989A",
"d.	c #563365",
"e.	c #A166BA",
"f.	c #BA89CF",
"g.	c #B580CB",
"h.	c #A165BB",
"i.	c #583268",
"j.	c #8F8D90",
"k.	c #DFDFDF",
"l.	c #D2D2D2",
"m.	c #D1D1D1",
"n.	c #DCDCDC",
"o.	c #D5D5D5",
"p.	c #77717A",
"q.	c #583E64",
"r.	c #5C336D",
"s.	c #5C336E",
"t.	c #573B64",
"u.	c #736C76",
"v.	c #DDDDDD",
"w.	c #D0D0D0",
"x.	c #ECECEC",
"y.	c #EAEAEA",
"z.	c #E9E9E9",
"A.	c #E1E1E1",
"B.	c #CECECE",
"C.	c #CCCCCC",
". . . . . . . . . . . . . . . . . . . . ",
"+ + + + + + + + + + + + + + + + + + + + ",
"@ @ @ @ @ @ @ @ @ @ @ @ @ @ @ @ @ @ @ @ ",
"# # # # # # # # # # # # # # # # # # # # ",
"$ $ $ $ $ $ $ $ $ $ $ $ $ $ $ $ $ $ $ $ ",
"% % % % % % % % & * = - % % % % % % % % ",
"; ; ; ; ; > , ' ) ! ~ { ] ^ > ; ; ; ; ; ",
"/ / / / ( _ : < [ } } | 1 2 3 4 / / / / ",
"5 5 5 6 7 8 9 0 0 0 0 0 0 a b c d 5 5 5 ",
"e e e f g h i i i i i i i i j k l e e e ",
"m m m n o p p p p p p p p p p q r s m m ",
"t t u v w x y y y y y y y y z A B C t t ",
"D D E F w G H I J K K L I H M w N O D D ",
"- - P Q w R S T U V V W X Y R w Z ` - - ",
" . ...+.w @.#.h $.$.$.$.h %.&.w *... . .",
"=.=.-.;.>.,.'.$.$.).).$.$.!.~.{.].^.=.=.",
"/./.(._.:.<.!.$.$.).).$.$.[.}.|.1.(././.",
"2.2.2./.3.4.5.6.$.$.$.$.!.7.8.9.0.2.2.2.",
"a.a.a.a.b.c.d.e.#.f.f.g.h.i.j.k.u a.a.a.",
"l.l.l.l.m.n.o.p.q.r.s.t.u.m.v.m.l.l.l.l.",
"w.w.w.w.w.w.w.& x.y.z.x.A.w.w.w.w.w.w.w.",
"B.B.B.B.B.B.B.B.B.B.B.B.B.B.B.B.B.B.B.B.",
"C.C.C.C.C.C.C.C.C.C.C.C.C.C.C.C.C.C.C.C.",
". . . . . . . . . . . . . . . . . . . . "};
