/* XPM */
static char * top_right_inactive_xpm[] = {
"5 24 29 1",
" 	c None",
".	c #B4B4B4",
"+	c #F8F7F8",
"@	c #C0C0C0",
"#	c #AFAFAF",
"$	c #F6F5F6",
"%	c #CBCBCB",
"&	c #F4F3F4",
"*	c #BABABA",
"=	c #F2F1F2",
"-	c #F0EFF0",
";	c #AAAAAA",
">	c #EEEDEE",
",	c #ECEBEC",
"'	c #EAE9EA",
")	c #E7E7E7",
"!	c #E5E5E5",
"~	c #E3E3E3",
"{	c #E1E0E1",
"]	c #DFDEDF",
"^	c #DDDCDD",
"/	c #DBDADB",
"(	c #D8D8D8",
"_	c #D6D6D6",
":	c #D4D4D4",
"<	c #D2D2D2",
"[	c #D0D0D0",
"}	c #CECECE",
"|	c #CCCCCC",
".    ",
"+@#  ",
"$$%# ",
"&&&* ",
"====#",
"----;",
">>>>;",
",,,,;",
"'''';",
"))));",
"!!!!;",
"~~~~;",
"{{{{;",
"]]]];",
"^^^^;",
"////;",
"((((;",
"____;",
"::::;",
"<<<<;",
"[[[[;",
"}}}};",
"||||;",
";;;;;"};
