<svg width="64" height="64" viewBox="0 0 64 64" fill="none" xmlns="http://www.w3.org/2000/svg">
<rect x="7" y="7" width="50" height="50" rx="6" fill="#FF598B"/>
<path d="M33 7H51C54.3137 7 57 9.68629 57 13V31H41C36.5817 31 33 27.4183 33 23V7Z" fill="#F9F9F9"/>
<path d="M38.6 15.8C38.6 15.3757 38.7685 14.9687 39.0686 14.6686C39.3687 14.3686 39.7756 14.2 40.2 14.2H44.2L45.8 15.8H49.8C50.2243 15.8 50.6313 15.9686 50.9313 16.2686C51.2314 16.5687 51.4 16.9757 51.4 17.4V22.2C51.4 22.6244 51.2314 23.0313 50.9313 23.3314C50.6313 23.6314 50.2243 23.8 49.8 23.8H40.2C39.7756 23.8 39.3687 23.6314 39.0686 23.3314C38.7685 23.0313 38.6 22.6244 38.6 22.2V15.8Z" fill="#FF598B"/>
</svg>
