<svg width="64" height="64" viewBox="0 0 64 64" fill="none" xmlns="http://www.w3.org/2000/svg">
<rect x="7" y="7" width="50" height="50" rx="6" fill="#FE7CBD"/>
<path d="M33 7H51C54.3137 7 57 9.68629 57 13V31H41C36.5817 31 33 27.4183 33 23V7Z" fill="#F9F9F9"/>
<path d="M45.5656 12.8344C45.4156 12.6844 45.2122 12.6002 45 12.6002C44.7879 12.6002 44.5845 12.6844 44.4344 12.8344L38.8344 18.4344C38.6887 18.5853 38.6081 18.7874 38.6099 18.9971C38.6117 19.2069 38.6959 19.4075 38.8442 19.5558C38.9925 19.7042 39.1932 19.7883 39.4029 19.7901C39.6127 19.7919 39.8148 19.7113 39.9656 19.5656L40.2 19.3312V24.6C40.2 24.8122 40.2843 25.0156 40.4343 25.1657C40.5844 25.3157 40.7879 25.4 41 25.4H42.6C42.8122 25.4 43.0157 25.3157 43.1657 25.1657C43.3157 25.0156 43.4 24.8122 43.4 24.6V23C43.4 22.7878 43.4843 22.5843 43.6343 22.4343C43.7844 22.2843 43.9879 22.2 44.2 22.2H45.8C46.0122 22.2 46.2157 22.2843 46.3657 22.4343C46.5157 22.5843 46.6 22.7878 46.6 23V24.6C46.6 24.8122 46.6843 25.0156 46.8343 25.1657C46.9844 25.3157 47.1879 25.4 47.4 25.4H49C49.2122 25.4 49.4157 25.3157 49.5657 25.1657C49.7157 25.0156 49.8 24.8122 49.8 24.6V19.3312L50.0344 19.5656C50.1853 19.7113 50.3874 19.7919 50.5972 19.7901C50.8069 19.7883 51.0076 19.7042 51.1559 19.5558C51.3042 19.4075 51.3884 19.2069 51.3902 18.9971C51.392 18.7874 51.3114 18.5853 51.1656 18.4344L45.5656 12.8344V12.8344Z" fill="#FE7CBD"/>
</svg>
