<?xml version="1.0" encoding="UTF-8" standalone="no"?>
<!-- Created with Inkscape (http://www.inkscape.org/) -->

<svg
   xmlns:dc="http://purl.org/dc/elements/1.1/"
   xmlns:cc="http://creativecommons.org/ns#"
   xmlns:rdf="http://www.w3.org/1999/02/22-rdf-syntax-ns#"
   xmlns:svg="http://www.w3.org/2000/svg"
   xmlns="http://www.w3.org/2000/svg"
   xmlns:xlink="http://www.w3.org/1999/xlink"
   xmlns:sodipodi="http://sodipodi.sourceforge.net/DTD/sodipodi-0.dtd"
   xmlns:inkscape="http://www.inkscape.org/namespaces/inkscape"
   version="1.0"
   width="96"
   height="96"
   id="svg2408"
   inkscape:version="0.48.3.1 r9886"
   sodipodi:docname="go-home.svg">
  <metadata
     id="metadata76">
    <rdf:RDF>
      <cc:Work
         rdf:about="">
        <dc:format>image/svg+xml</dc:format>
        <dc:type
           rdf:resource="http://purl.org/dc/dcmitype/StillImage" />
        <dc:title></dc:title>
      </cc:Work>
    </rdf:RDF>
  </metadata>
  <sodipodi:namedview
     pagecolor="#ffffff"
     bordercolor="#666666"
     borderopacity="1"
     objecttolerance="10"
     gridtolerance="10"
     guidetolerance="10"
     inkscape:pageopacity="0"
     inkscape:pageshadow="2"
     inkscape:window-width="691"
     inkscape:window-height="480"
     id="namedview74"
     showgrid="false"
     inkscape:zoom="1.7383042"
     inkscape:cx="-32.45194"
     inkscape:cy="19.414249"
     inkscape:window-x="466"
     inkscape:window-y="340"
     inkscape:window-maximized="0"
     inkscape:current-layer="svg2408" />
  <defs
     id="defs2410">
    <linearGradient
       id="linearGradient3658">
      <stop
         id="stop3660"
         style="stop-color:#52802d;stop-opacity:1"
         offset="0" />
      <stop
         id="stop3662"
         style="stop-color:#52802d;stop-opacity:0.47058824"
         offset="1" />
    </linearGradient>
    <linearGradient
       x1="11.794092"
       y1="3.2126782"
       x2="11.794092"
       y2="20.137329"
       id="linearGradient3317"
       gradientUnits="userSpaceOnUse"
       gradientTransform="scale(1.0598527,0.9435274)">
      <stop
         id="stop3319"
         style="stop-color:#52802d;stop-opacity:1"
         offset="0" />
      <stop
         id="stop3321"
         style="stop-color:#52802d;stop-opacity:1"
         offset="1" />
    </linearGradient>
    <linearGradient
       id="linearGradient3348">
      <stop
         id="stop3350"
         style="stop-color:#95c070;stop-opacity:1"
         offset="0" />
      <stop
         id="stop3356"
         style="stop-color:#52802d;stop-opacity:1"
         offset="0.71691591" />
      <stop
         id="stop3352"
         style="stop-color:#52802d;stop-opacity:1"
         offset="1" />
    </linearGradient>
    <linearGradient
       id="linearGradient3187">
      <stop
         id="stop3189"
         style="stop-color:#52802d;stop-opacity:1"
         offset="0" />
      <stop
         id="stop3191"
         style="stop-color:#95c070;stop-opacity:1"
         offset="1" />
    </linearGradient>
    <linearGradient
       x1="45.447727"
       y1="80.471962"
       x2="45.447727"
       y2="7.0165396"
       id="ButtonShadow"
       gradientUnits="userSpaceOnUse"
       gradientTransform="matrix(1.0058652,0,0,0.994169,0,12)">
      <stop
         id="stop3750"
         style="stop-color:#000000;stop-opacity:1"
         offset="0" />
      <stop
         id="stop3752"
         style="stop-color:#000000;stop-opacity:0.58823532"
         offset="1" />
    </linearGradient>
    <linearGradient
       id="linearGradient3737">
      <stop
         id="stop3739"
         style="stop-color:#ffffff;stop-opacity:1"
         offset="0" />
      <stop
         id="stop3741"
         style="stop-color:#ffffff;stop-opacity:0"
         offset="1" />
    </linearGradient>
    <linearGradient
       x1="48"
       y1="78"
       x2="48"
       y2="5.9877172"
       id="linearGradient3706"
       xlink:href="#linearGradient3187"
       gradientUnits="userSpaceOnUse"
       gradientTransform="translate(0,12)" />
    <filter
       color-interpolation-filters="sRGB"
       id="filter3174">
      <feGaussianBlur
         id="feGaussianBlur3176"
         stdDeviation="1.71" />
    </filter>
    <linearGradient
       x1="36.357143"
       y1="18"
       x2="36.357143"
       y2="73.994667"
       id="linearGradient3188"
       xlink:href="#linearGradient3737"
       gradientUnits="userSpaceOnUse" />
    <linearGradient
       x1="23.607143"
       y1="6"
       x2="23.607143"
       y2="58.466385"
       id="linearGradient4010"
       xlink:href="#linearGradient3737"
       gradientUnits="userSpaceOnUse" />
    <linearGradient
       x1="45.447727"
       y1="80.471962"
       x2="45.447727"
       y2="5.297224"
       id="linearGradient4018"
       xlink:href="#ButtonShadow"
       gradientUnits="userSpaceOnUse"
       gradientTransform="matrix(1.0058652,0,0,0.994169,0,12)" />
    <linearGradient
       x1="34.85965"
       y1="17.736111"
       x2="34.85965"
       y2="32.012737"
       id="linearGradient4023"
       xlink:href="#linearGradient3348"
       gradientUnits="userSpaceOnUse"
       gradientTransform="matrix(0.72,0,0,0.72,1.92,-5.52)" />
    <linearGradient
       id="linearGradient3737-5">
      <stop
         id="stop3739-0"
         style="stop-color:#ffffff;stop-opacity:1"
         offset="0" />
      <stop
         id="stop3741-4"
         style="stop-color:#ffffff;stop-opacity:0"
         offset="1" />
    </linearGradient>
    <radialGradient
       cx="48"
       cy="90.171875"
       r="42"
       fx="48"
       fy="90.171875"
       id="radialGradient3681"
       xlink:href="#linearGradient3737-5"
       gradientUnits="userSpaceOnUse"
       gradientTransform="matrix(1.1573129,0,0,0.99590774,-7.551021,0.197132)" />
    <linearGradient
       x1="48.035713"
       y1="25.910715"
       x2="48.035713"
       y2="85.821426"
       id="linearGradient3680"
       xlink:href="#linearGradient3317"
       gradientUnits="userSpaceOnUse"
       gradientTransform="translate(-100,80)" />
    <linearGradient
       x1="47"
       y1="76"
       x2="47"
       y2="33.086185"
       id="linearGradient3664"
       xlink:href="#linearGradient3658"
       gradientUnits="userSpaceOnUse" />
    <clipPath
       id="clipPath3668">
      <path
         d="m 48,33.268293 -24,24.083623 5.920127,0 0,18.648084 36.200724,0 0,-18.731707 5.879149,0 -10.536585,-10.620209 0,-8.111499 -5.351916,0 0,2.843206 L 48,33.268293 z"
         id="path3670"
         style="opacity:0.9;fill:url(#linearGradient3672);fill-opacity:1;stroke:none;display:inline" />
    </clipPath>
    <linearGradient
       x1="47"
       y1="76"
       x2="47"
       y2="33.086185"
       id="linearGradient3672"
       xlink:href="#linearGradient3658"
       gradientUnits="userSpaceOnUse" />
    <filter
       color-interpolation-filters="sRGB"
       id="filter3674">
      <feGaussianBlur
         id="feGaussianBlur3676"
         stdDeviation="0.45365853" />
    </filter>
    <clipPath
       id="clipPath3690">
      <path
         d="m 77.375,23.75 c -3.324,0 -6,2.676 -6,6 l 0,49.25 c 0,3.324 2.676,6 6,6 l 59.875,0 c 3.324,0 6,-2.676 6,-6 l 0,-49.25 c 0,-3.324 -2.676,-6 -6,-6 l -59.875,0 z m 30.625,9.53125 8.125,8.09375 0,-2.84375 5.34375,0 0,8.125 10.53125,10.625 -5.875,0 0,18.71875 -36.21875,0 0,-18.65625 -5.90625,0 24,-24.0625 z"
         id="path3692"
         style="opacity:0.35;fill:#ff00ff;stroke:none" />
    </clipPath>
    <filter
       color-interpolation-filters="sRGB"
       id="filter3694">
      <feGaussianBlur
         id="feGaussianBlur3696"
         stdDeviation="0.6804878" />
    </filter>
    <linearGradient
       x1="26.5"
       y1="90.312759"
       x2="26.5"
       y2="6.9171443"
       id="linearGradient3671"
       xlink:href="#ButtonShadow-1"
       gradientUnits="userSpaceOnUse" />
    <linearGradient
       x1="45.447727"
       y1="80.471962"
       x2="45.447727"
       y2="7.0165396"
       id="ButtonShadow-1"
       gradientUnits="userSpaceOnUse"
       gradientTransform="matrix(1.0058652,0,0,0.994169,0,12)">
      <stop
         id="stop3750-2"
         style="stop-color:#000000;stop-opacity:1"
         offset="0" />
      <stop
         id="stop3752-0"
         style="stop-color:#000000;stop-opacity:0.58823532"
         offset="1" />
    </linearGradient>
    <linearGradient
       x1="26.5"
       y1="90.312759"
       x2="26.5"
       y2="6.9171443"
       id="linearGradient3692"
       xlink:href="#ButtonShadow-1"
       gradientUnits="userSpaceOnUse"
       gradientTransform="matrix(1.0277778,0,0,1.0127315,-1.333333,0.03087956)" />
    <linearGradient
       x1="26.5"
       y1="90.312759"
       x2="26.5"
       y2="6.9171443"
       id="linearGradient3701"
       xlink:href="#ButtonShadow-1"
       gradientUnits="userSpaceOnUse"
       gradientTransform="matrix(1.0277778,0,0,1.0127315,-1.333333,0.03087963)" />
    <linearGradient
       x1="26.5"
       y1="90.312759"
       x2="26.5"
       y2="6.9171443"
       id="linearGradient3709"
       xlink:href="#ButtonShadow-1"
       gradientUnits="userSpaceOnUse"
       gradientTransform="matrix(1.0277778,0,0,1.0127315,-1.333333,0.03087963)" />
    <linearGradient
       x1="26.5"
       y1="90.312759"
       x2="26.5"
       y2="6.9171443"
       id="linearGradient2946"
       xlink:href="#ButtonShadow-1"
       gradientUnits="userSpaceOnUse"
       gradientTransform="matrix(1.0277778,0,0,1.0127315,-1.333333,0.03087963)" />
    <linearGradient
       x1="56"
       y1="76"
       x2="56"
       y2="32"
       id="linearGradient4519"
       xlink:href="#linearGradient3877"
       gradientUnits="userSpaceOnUse"
       gradientTransform="translate(0,-3.999995)" />
    <linearGradient
       id="linearGradient3877">
      <stop
         id="stop3879"
         style="stop-color:#527f2d;stop-opacity:0.78431374;"
         offset="0" />
      <stop
         id="stop3883"
         style="stop-color:#527f2d;stop-opacity:0.39215687;"
         offset="1" />
    </linearGradient>
    <linearGradient
       y2="32"
       x2="56"
       y1="76"
       x1="56"
       gradientTransform="translate(-5.7308681,-6.3229533)"
       gradientUnits="userSpaceOnUse"
       id="linearGradient3873"
       xlink:href="#linearGradient3877"
       inkscape:collect="always" />
    <linearGradient
       x1="56"
       y1="76"
       x2="56"
       y2="32"
       id="linearGradient3117"
       xlink:href="#linearGradient3877-8"
       gradientUnits="userSpaceOnUse"
       gradientTransform="translate(0,-3.999995)" />
    <linearGradient
       id="linearGradient3877-8">
      <stop
         id="stop3879-5"
         style="stop-color:#527f2d;stop-opacity:0.78431374;"
         offset="0" />
      <stop
         id="stop3883-0"
         style="stop-color:#527f2d;stop-opacity:0.39215687;"
         offset="1" />
    </linearGradient>
    <linearGradient
       x1="56"
       y1="76"
       x2="56"
       y2="32"
       id="linearGradient4532"
       xlink:href="#linearGradient3877-8"
       gradientUnits="userSpaceOnUse"
       gradientTransform="translate(0,-3.999995)" />
    <linearGradient
       id="linearGradient3890">
      <stop
         id="stop3892"
         style="stop-color:#527f2d;stop-opacity:0.78431374;"
         offset="0" />
      <stop
         id="stop3894"
         style="stop-color:#527f2d;stop-opacity:0.39215687;"
         offset="1" />
    </linearGradient>
    <linearGradient
       x1="56"
       y1="76"
       x2="56"
       y2="32"
       id="linearGradient4506"
       xlink:href="#linearGradient3877-8"
       gradientUnits="userSpaceOnUse"
       gradientTransform="translate(0,-3.999995)" />
    <linearGradient
       id="linearGradient3897">
      <stop
         id="stop3899"
         style="stop-color:#527f2d;stop-opacity:0.78431374;"
         offset="0" />
      <stop
         id="stop3901"
         style="stop-color:#527f2d;stop-opacity:0.39215687;"
         offset="1" />
    </linearGradient>
  </defs>
  <g
     id="layer2"
     style="display:none">
    <path
       d="M 14.96875,8.8028918 C 13.32891,8.8028918 12,10.085142 12,11.677892 L 12,19 c -3.324,0 -7,2.676 -7,6 l 0,61 c 0,3.324 2.676,6 6,6 l 74,0 c 3.324,0 6,-2.676 6,-6 l 0,-61 c 0,-3.324 -3.747429,-6 -7.071429,-6 l 0,-0.134608 c 0,-2.389125 -1.97774,-4.3125 -4.4375,-4.3125 l -43.334821,0 -1.46875,-2.875 C 33.954141,10.253293 33.35859,8.8028918 31.71875,8.8028918 l -16.75,0 z"
       id="rect3745"
       style="opacity:0.9;fill:url(#linearGradient4018);fill-opacity:1;fill-rule:nonzero;stroke:none;filter:url(#filter3174)" />
  </g>
  <g
     id="layer5"
     style="display:inline">
    <path
       d="M 13.96875,4 C 10.667823,4 7.875,6.6931198 7.875,10.03125 l 0,7.0625 c -3.4360632,1.560695 -6,4.840711 -6,8.90625 l 0,59 c 0,5.561299 4.5637001,10.125 10.125,10.125 l 72,0 c 5.561299,0 10.125,-4.563701 10.125,-10.125 l 0,-59 c 0,-4.090756 -2.593768,-7.389362 -6.0625,-8.9375 -0.160383,-3.993445 -3.473555,-7.21875 -7.5,-7.21875 l -42.5,0 L 37.4375,8.625 C 37.135051,8.028958 36.735432,7.0401877 35.9375,6.0625 35.034313,4.9558457 33.554045,4 31.71875,4 l -17.75,0 z"
       transform="matrix(0.99728997,0,0,0.99862826,0.13008131,0.00548696)"
       id="path3715"
       style="opacity:0.07999998;fill:url(#linearGradient2946);fill-opacity:1;fill-rule:nonzero;stroke:none;display:inline" />
    <path
       d="m 13.96875,4.96875 c -2.783187,0 -5.125,2.2572798 -5.125,5.0625 l 0,7.3125 0,0.3125 c -3.4368535,1.290325 -6,4.439736 -6,8.34375 l 0,59 c 0,5.039918 4.1163315,9.15625 9.15625,9.15625 l 72,0 c 5.039918,0 9.15625,-4.116332 9.15625,-9.15625 l 0,-59 c 0,-3.904014 -2.563147,-7.053425 -6,-8.34375 l 0,-0.3125 c 0,-3.602656 -2.985437,-6.53125 -6.59375,-6.53125 l -43.09375,0 -0.875,-1.75 C 36.26366,8.4119848 35.884179,7.5098749 35.1875,6.65625 34.437476,5.737263 33.22926,4.96875 31.71875,4.96875 l -17.75,0 z"
       transform="matrix(0.99653979,0,0,0.99789769,0.16609001,0.04169586)"
       id="path3707"
       style="opacity:0.1;fill:url(#linearGradient3709);fill-opacity:1;fill-rule:nonzero;stroke:none;display:inline" />
    <path
       d="M 13.96875,6 C 11.736726,6 9.875,7.7965069 9.875,10.03125 l 0,7.3125 0,0.96875 c -3.4279042,0.950944 -6,3.959493 -6,7.6875 l 0,59 c 0,4.483833 3.6411665,8.125 8.125,8.125 l 72,0 c 4.483833,0 8.125,-3.641167 8.125,-8.125 l 0,-59 c 0,-3.728007 -2.572096,-6.736556 -6,-7.6875 l 0,-0.96875 c 0,-3.037808 -2.505776,-5.5 -5.5625,-5.5 l -43.71875,0 -1.15625,-2.3125 C 35.33448,8.8355471 34.9882,8.0255499 34.40625,7.3125 33.8243,6.5994501 32.873904,6 31.71875,6 l -17.75,0 z"
       transform="matrix(0.99716714,0,0,0.99856528,0.13597731,0.00860826)"
       id="path3698"
       style="opacity:0.2;fill:url(#linearGradient3701);fill-opacity:1;fill-rule:nonzero;stroke:none;display:inline" />
    <path
       d="M 13.96875,7.125 C 12.32891,7.125 11,8.4154163 11,10.03125 l 0,7.3125 0,1.75 C 7.602692,19.579354 5,22.464233 5,26 l 0,59 c 0,3.878 3.122,7 7,7 l 72,0 c 3.878,0 7,-3.122 7,-7 l 0,-59 c 0,-3.535767 -2.602692,-6.420646 -6,-6.90625 l 0,-1.75 c 0,-2.42375 -1.97774,-4.375 -4.4375,-4.375 l -44.40625,0 -1.46875,-2.9375 C 33.954141,8.5860044 33.35859,7.125 31.71875,7.125 l -17.75,0 z"
       id="path3679"
       style="opacity:0.3;fill:url(#linearGradient3692);fill-opacity:1;fill-rule:nonzero;stroke:none;display:inline" />
    <path
       d="M 14.875,7 C 13.27948,7 12,8.27948 12,9.875 L 12,17.09375 12,19 c -3.324,0 -6,2.676 -6,6 l 0,60 c 0,3.324 2.676,6 6,6 l 72,0 c 3.324,0 6,-2.676 6,-6 l 0,-60 c 0,-3.324 -2.676,-6 -6,-6 l 0,-1.90625 C 84,14.70047 82.08078,12.75 79.6875,12.75 l -43.21875,0 -1.4375,-2.875 C 34.317712,8.4479235 33.75177,7 32.15625,7 L 14.875,7 z"
       id="path2885"
       style="opacity:0.45;fill:url(#linearGradient3671);fill-opacity:1;fill-rule:nonzero;stroke:none;display:inline" />
  </g>
  <g
     id="layer3"
     style="display:inline">
    <path
       d="M 14.88,6 C 13.28448,6 12,7.28448 12,8.88 l 0,7.2 0,50.4 0,4.32 c 0,2.39328 1.92672,4.32 4.32,4.32 l 63.36,0 c 2.39328,0 4.32,-1.92672 4.32,-4.32 l 0,-54.72 c 0,-2.39328 -1.92672,-4.32 -4.32,-4.32 l -43.2,0 -1.44,-2.88 C 34.326462,7.4529235 33.75552,6 32.16,6 L 14.88,6 z"
       id="rect3325"
       style="fill:url(#linearGradient4023);fill-opacity:1;fill-rule:nonzero;stroke:none;display:inline" />
    <path
       d="M 14.875,6 C 13.27948,6 12,7.27948 12,8.875 l 0,7.21875 0,50.375 0,4.34375 c 0,2.393277 1.91922,4.3125 4.3125,4.3125 l 63.375,0 C 82.08078,75.124997 84,73.20578 84,70.8125 L 84,16.09375 C 84,13.70047 82.08078,11.75 79.6875,11.75 l -43.21875,0 -1.4375,-2.875 C 34.317711,7.4479234 33.75177,6 32.15625,6 L 14.875,6 z m 0,1.9375 17.28125,0 c 0.48716,0 0.660447,0.1126732 0.96875,0.5 0.308303,0.3873268 0.629671,1.0718434 1,1.8125 l 1.4375,2.875 c 0.173379,0.341986 0.522842,0.558894 0.90625,0.5625 l 43.21875,0 c 1.835408,0 3.28125,1.468154 3.28125,3.3125 l 0,54.71875 c 0,1.844346 -1.436902,3.281248 -3.28125,3.28125 l -63.375,0 c -1.844346,0 -3.28125,-1.436907 -3.28125,-3.28125 l 0,-4.34375 0,-50.375 0,-7.21875 c 0,-1.0465864 0.797164,-1.84375 1.84375,-1.84375 z"
       id="path3997"
       style="opacity:0.3;fill:url(#linearGradient4010);fill-opacity:1;fill-rule:nonzero;stroke:none;display:inline" />
  </g>
  <g
     id="layer1">
    <path
       d="m 12,18 c -3.324,0 -6,2.676 -6,6 l 0,60 c 0,3.324 2.676,6 6,6 l 72,0 c 3.324,0 6,-2.676 6,-6 l 0,-60 c 0,-3.324 -2.676,-6 -6,-6 l -72,0 z"
       id="rect2419"
       style="fill:url(#linearGradient3706);fill-opacity:1;fill-rule:nonzero;stroke:none" />
    <path
       d="m 12,18 c -3.324,0 -6,2.676 -6,6 l 0,2 0,56 0,2 c 0,0.334721 0.04135,0.6507 0.09375,0.96875 0.0487,0.295596 0.09704,0.596915 0.1875,0.875 0.00988,0.03038 0.020892,0.0636 0.03125,0.09375 0.098865,0.287771 0.2348802,0.547452 0.375,0.8125 0.1445918,0.273507 0.3156161,0.535615 0.5,0.78125 0.1843839,0.245635 0.3737765,0.473472 0.59375,0.6875 0.439947,0.428056 0.94291,0.814526 1.5,1.09375 0.278545,0.139612 0.5734731,0.246947 0.875,0.34375 -0.2562018,-0.100222 -0.4867109,-0.236272 -0.71875,-0.375 -0.00741,-0.0044 -0.023866,0.0045 -0.03125,0 -0.031933,-0.0193 -0.062293,-0.04251 -0.09375,-0.0625 -0.120395,-0.0767 -0.2310226,-0.163513 -0.34375,-0.25 -0.1061728,-0.0808 -0.2132809,-0.161112 -0.3125,-0.25 C 8.4783201,88.557317 8.3087904,88.373362 8.15625,88.1875 8.0486711,88.057245 7.9378561,87.922215 7.84375,87.78125 7.818661,87.74287 7.805304,87.69538 7.78125,87.65625 7.716487,87.553218 7.6510225,87.451733 7.59375,87.34375 7.4927417,87.149044 7.3880752,86.928049 7.3125,86.71875 7.30454,86.69694 7.288911,86.6782 7.28125,86.65625 7.2494249,86.5643 7.2454455,86.469419 7.21875,86.375 7.1884177,86.268382 7.1483606,86.171969 7.125,86.0625 7.0521214,85.720988 7,85.364295 7,85 L 7,83 7,27 7,25 c 0,-2.781848 2.2181517,-5 5,-5 l 2,0 68,0 2,0 c 2.781848,0 5,2.218152 5,5 l 0,2 0,56 0,2 c 0,0.364295 -0.05212,0.720988 -0.125,1.0625 -0.04415,0.206893 -0.08838,0.397658 -0.15625,0.59375 -0.0077,0.02195 -0.0233,0.04069 -0.03125,0.0625 -0.06274,0.173739 -0.138383,0.367449 -0.21875,0.53125 -0.04158,0.0828 -0.07904,0.169954 -0.125,0.25 -0.0546,0.09721 -0.126774,0.18835 -0.1875,0.28125 -0.09411,0.140965 -0.204921,0.275995 -0.3125,0.40625 -0.143174,0.17445 -0.303141,0.346998 -0.46875,0.5 -0.01117,0.0102 -0.01998,0.02115 -0.03125,0.03125 -0.138386,0.125556 -0.285091,0.234436 -0.4375,0.34375 -0.102571,0.07315 -0.204318,0.153364 -0.3125,0.21875 -0.0074,0.0045 -0.02384,-0.0044 -0.03125,0 -0.232039,0.138728 -0.462548,0.274778 -0.71875,0.375 0.301527,-0.0968 0.596455,-0.204138 0.875,-0.34375 0.55709,-0.279224 1.060053,-0.665694 1.5,-1.09375 0.219973,-0.214028 0.409366,-0.441865 0.59375,-0.6875 0.184384,-0.245635 0.355408,-0.507743 0.5,-0.78125 0.14012,-0.265048 0.276135,-0.524729 0.375,-0.8125 0.01041,-0.03078 0.02133,-0.06274 0.03125,-0.09375 0.09046,-0.278085 0.1388,-0.579404 0.1875,-0.875 C 89.95865,84.6507 90,84.334721 90,84 l 0,-2 0,-56 0,-2 c 0,-3.324 -2.676,-6 -6,-6 l -72,0 z"
       id="rect3728"
       style="opacity:0.5;fill:url(#linearGradient3188);fill-opacity:1;fill-rule:nonzero;stroke:none" />
    <path
       d="M 12,90 C 8.676,90 6,87.324 6,84 L 6,82 6,26 6,24 c 0,-0.334721 0.04135,-0.6507 0.09375,-0.96875 0.0487,-0.295596 0.09704,-0.596915 0.1875,-0.875 0.00988,-0.03038 0.020892,-0.0636 0.03125,-0.09375 0.098865,-0.287771 0.2348802,-0.547452 0.375,-0.8125 0.1445918,-0.273507 0.3156161,-0.535615 0.5,-0.78125 0.1843839,-0.245635 0.3737765,-0.473472 0.59375,-0.6875 0.439947,-0.428056 0.94291,-0.814526 1.5,-1.09375 0.278545,-0.139612 0.5734731,-0.246947 0.875,-0.34375 -0.2562018,0.100222 -0.4867109,0.236272 -0.71875,0.375 -0.00741,0.0044 -0.023866,-0.0045 -0.03125,0 -0.031933,0.0193 -0.062293,0.04251 -0.09375,0.0625 -0.120395,0.0767 -0.2310226,0.163513 -0.34375,0.25 -0.1061728,0.0808 -0.2132809,0.161112 -0.3125,0.25 -0.1779299,0.161433 -0.3474596,0.345388 -0.5,0.53125 -0.1075789,0.130255 -0.2183939,0.265285 -0.3125,0.40625 -0.025089,0.03838 -0.038446,0.08587 -0.0625,0.125 -0.064763,0.103032 -0.1302275,0.204517 -0.1875,0.3125 -0.1010083,0.194706 -0.2056748,0.415701 -0.28125,0.625 C 7.30454,21.30306 7.288911,21.3218 7.28125,21.34375 7.2494249,21.4357 7.2454455,21.530581 7.21875,21.625 7.1884177,21.731618 7.1483606,21.828031 7.125,21.9375 7.0521214,22.279012 7,22.635705 7,23 l 0,2 0,56 0,2 c 0,2.781848 2.2181517,5 5,5 l 2,0 68,0 2,0 c 2.781848,0 5,-2.218152 5,-5 l 0,-2 0,-56 0,-2 c 0,-0.364295 -0.05212,-0.720988 -0.125,-1.0625 -0.04415,-0.206893 -0.08838,-0.397658 -0.15625,-0.59375 -0.0077,-0.02195 -0.0233,-0.04069 -0.03125,-0.0625 -0.06274,-0.173739 -0.138383,-0.367449 -0.21875,-0.53125 -0.04158,-0.0828 -0.07904,-0.169954 -0.125,-0.25 -0.0546,-0.09721 -0.126774,-0.18835 -0.1875,-0.28125 -0.09411,-0.140965 -0.204921,-0.275995 -0.3125,-0.40625 -0.143174,-0.17445 -0.303141,-0.346998 -0.46875,-0.5 -0.01117,-0.0102 -0.01998,-0.02115 -0.03125,-0.03125 -0.138386,-0.125556 -0.285091,-0.234436 -0.4375,-0.34375 -0.102571,-0.07315 -0.204318,-0.153364 -0.3125,-0.21875 -0.0074,-0.0045 -0.02384,0.0044 -0.03125,0 -0.232039,-0.138728 -0.462548,-0.274778 -0.71875,-0.375 0.301527,0.0968 0.596455,0.204138 0.875,0.34375 0.55709,0.279224 1.060053,0.665694 1.5,1.09375 0.219973,0.214028 0.409366,0.441865 0.59375,0.6875 0.184384,0.245635 0.355408,0.507743 0.5,0.78125 0.14012,0.265048 0.276135,0.524729 0.375,0.8125 0.01041,0.03078 0.02133,0.06274 0.03125,0.09375 0.09046,0.278085 0.1388,0.579404 0.1875,0.875 C 89.95865,23.3493 90,23.665279 90,24 l 0,2 0,56 0,2 c 0,3.324 -2.676,6 -6,6 l -72,0 z"
       id="path3615"
       style="opacity:0.2;fill:url(#radialGradient3681);fill-opacity:1;fill-rule:nonzero;stroke:none" />
  </g>
  <g
     transform="translate(1.7491591,8.0319613)"
     id="layer6">
    <path
       d="m 48,25.96875 c -12.551157,0 -22.762661,9.715452 -23.8125,22 l -2.1875,0 a 2.0273462,2.0273462 0 0 0 -1.75,3.0625 l 3.5,6 3.5,6 a 2.0273462,2.0273462 0 0 0 3.5,0 l 3.5,-6 3.5,-6 A 2.0273462,2.0273462 0 0 0 36,47.96875 l -1.75,0 c 0.804894,-5.498998 4.749798,-9.911644 10,-11.375 C 44.081297,37.034205 43.96875,37.505906 43.96875,38 l 0,11.34375 0.0625,0 c -0.154893,1.010711 0.03287,2.022143 0.59375,2.84375 l -0.03125,0 c 0.02105,0.03266 0.01066,0.03264 0.03125,0.0625 0.01338,0.01941 0.01812,0.01299 0.03125,0.03125 0.224262,0.311734 0.459639,0.52214 0.5,0.5625 l 7.0625,7.09375 c 1.256134,1.256128 3.297504,1.630512 4.84375,0.625 -2.44285,2.097277 -5.575584,3.40625 -9.0625,3.40625 -2.551941,0 -4.906021,-0.679804 -6.96875,-1.875 a 2.0273462,2.0273462 0 0 0 -2.78125,0.75 l -3,5.21875 a 2.0273462,2.0273462 0 0 0 0.75,2.75 c 3.534217,2.042709 7.635234,3.21875 12,3.21875 C 61.245811,74.03125 72.03125,63.245811 72.03125,50 72.03125,36.754189 61.245811,25.96875 48,25.96875 z M 48,28 c 12.15026,0 22,9.84974 22,22 0,12.15026 -9.84974,22 -22,22 -4.00428,0 -7.76567,-1.06812 -11,-2.9375 l 3,-5.21875 C 42.35563,65.20866 45.08161,66 48,66 56.83656,66 64,58.83656 64,50 64,41.16344 56.83656,34 48,34 39.16344,34 32,41.16344 32,50 l 4,0 -3.5,6 -3.5,6 -3.5,-6 -3.5,-6 4,0 C 26,37.84974 35.84974,28 48,28 z m 0,8 c 1.108,0 2,0.892 2,2 l 0,11.1875 6.5,6.46875 c 0.783474,0.78347 0.886572,1.92593 0.25,2.5625 L 56.21875,58.75 c -0.636572,0.63657 -1.779026,0.53347 -2.5625,-0.25 l -7.0625,-7.09375 C 46.493589,51.30609 46.3896,51.21338 46.3125,51.09375 45.91094,50.53301 45.801394,49.87808 46,49.34375 L 46,38 c 0,-1.108 0.892,-2 2,-2 z m 3.75,0.59375 C 57.641086,38.235736 61.96875,43.571266 61.96875,50 c 0,3.486916 -1.308973,6.61965 -3.40625,9.0625 1.00552,-1.546248 0.631142,-3.587614 -0.625,-4.84375 l -5.90625,-5.875 0,-10.34375 c 0,-0.494094 -0.112547,-0.965795 -0.28125,-1.40625 z"
       inkscape:connector-curvature="0"
       id="path4561"
       style="opacity:0.05;color:#000000;fill:#ffffff;fill-opacity:1;stroke:none;stroke-width:1.5;marker:none;visibility:visible;display:inline;overflow:visible;enable-background:accumulate" />
    <path
       d="M 48,27 C 35.65203,27 25.62992,36.782808 25.09375,49 L 22,49 a 1.0001,1.0001 0 0 0 -0.875,1.5 l 3.5,6 3.5,6 a 1.0001,1.0001 0 0 0 1.75,0 l 3.5,-6 3.5,-6 A 1.0001,1.0001 0 0 0 36,49 l -2.90625,0 C 33.615046,41.179769 40.045662,35 48,35 c 8.29612,0 15,6.70388 15,15 0,8.29612 -6.70388,15 -15,15 -2.737619,0 -5.28886,-0.750061 -7.5,-2.03125 a 1.0001,1.0001 0 0 0 -1.375,0.375 l -3,5.21875 a 1.0001,1.0001 0 0 0 0.375,1.375 C 39.882266,71.892384 43.81789,73 48,73 60.690701,73 71,62.690701 71,50 71,37.309299 60.690701,27 48,27 z m 0,8 c -1.644703,0 -3,1.355297 -3,3 l 0,11.34375 0.03125,0 c -0.171612,0.779464 -0.02883,1.600668 0.4375,2.28125 0.01815,0.02817 0.01325,0.03712 0.03125,0.0625 0.152013,0.214303 0.309174,0.371675 0.375,0.4375 l 7.0625,7.09375 c 1.096156,1.096151 2.902238,1.347758 4,0.25 l 0.53125,-0.53125 c 1.097764,-1.097761 0.846161,-2.903845 -0.25,-4 L 51,48.75 51,38 c 0,-1.644703 -1.355297,-3 -3,-3 z m 0,-7 c 12.15026,0 22,9.84974 22,22 0,12.15026 -9.84974,22 -22,22 -4.00428,0 -7.76567,-1.06812 -11,-2.9375 l 3,-5.21875 C 42.35563,65.20866 45.08161,66 48,66 56.83656,66 64,58.83656 64,50 64,41.16344 56.83656,34 48,34 39.16344,34 32,41.16344 32,50 l 4,0 -3.5,6 -3.5,6 -3.5,-6 -3.5,-6 4,0 C 26,37.84974 35.84974,28 48,28 z m 0,8 c 1.108,0 2,0.892 2,2 l 0,11.1875 6.5,6.46875 c 0.783474,0.78347 0.886572,1.92593 0.25,2.5625 L 56.21875,58.75 c -0.636572,0.63657 -1.779026,0.53347 -2.5625,-0.25 l -7.0625,-7.09375 C 46.493589,51.30609 46.3896,51.21338 46.3125,51.09375 45.91094,50.53301 45.801394,49.87808 46,49.34375 L 46,38 c 0,-1.108 0.892,-2 2,-2 z"
       inkscape:connector-curvature="0"
       id="path4550"
       style="opacity:0.1;color:#000000;fill:#ffffff;fill-opacity:1;stroke:none;stroke-width:1.5;marker:none;visibility:visible;display:inline;overflow:visible;enable-background:accumulate" />
    <path
       d="M 48,28.000005 C 35.84974,28.000005 26,37.84974 26,50 l -4,0 3.5,6 3.5,6 3.5,-6 3.5,-6 -4,0 c 0,-8.83656 7.16344,-16 16,-16 8.83656,0 16,7.16344 16,16 0,8.83656 -7.16344,16 -16,16 -2.91839,0 -5.64437,-0.79134 -8,-2.15625 L 37,69.0625 C 40.23433,70.93188 43.99572,72 48,72 60.15026,72 70,62.15026 70,50 70,37.84974 60.15026,28.000005 48,28.000005 z M 48,36 c -1.108,0 -2,0.892 -2,2 l 0,11.34375 c -0.198606,0.53433 -0.08906,1.18926 0.3125,1.75 0.0771,0.11963 0.181089,0.21234 0.28125,0.3125 L 53.65625,58.5 c 0.783474,0.78347 1.925928,0.88657 2.5625,0.25 L 56.75,58.21875 c 0.636572,-0.63657 0.533474,-1.77903 -0.25,-2.5625 L 50,49.1875 50,38 c 0,-1.108 -0.892,-2 -2,-2 z"
       inkscape:connector-curvature="0"
       id="path4090"
       style="opacity:0.9;color:#000000;fill:url(#linearGradient3117);fill-opacity:1;stroke:none;stroke-width:1.5;marker:none;visibility:visible;display:inline;overflow:visible;enable-background:accumulate" />
    <path
       d="M 48,28 C 35.84974,28 26,37.84974 26,50 l -4,0 3.5,6 3.5,6 3.5,-6 3.5,-6 -4,0 c 0,-8.83656 7.16344,-16 16,-16 8.83656,0 16,7.16344 16,16 0,8.83656 -7.16344,16 -16,16 -2.91839,0 -5.64437,-0.79134 -8,-2.15625 L 37,69.0625 C 40.23433,70.93188 43.99572,72 48,72 60.15026,72 70,62.15026 70,50 70,37.84974 60.15026,28 48,28 z m 0,1.96875 c 11.081222,0 20.03125,8.950028 20.03125,20.03125 0,11.081222 -8.950028,20.03125 -20.03125,20.03125 -2.937295,0 -5.648554,-0.775871 -8.15625,-1.90625 L 40.875,66.34375 c 2.202319,0.967434 4.56655,1.625 7.125,1.625 9.905596,0 17.96875,-8.063154 17.96875,-17.96875 C 65.96875,40.094404 57.905596,32.03125 48,32.03125 38.094404,32.03125 30.03125,40.094404 30.03125,50 A 1.9782833,1.9782833 0 0 0 32,51.96875 l 0.5625,0 L 30.78125,55 29,58.0625 27.21875,55 25.4375,51.96875 l 0.5625,0 A 1.9782833,1.9782833 0 0 0 27.96875,50 C 27.96875,38.918778 36.918778,29.96875 48,29.96875 z M 48,36 c -1.108,0 -2,0.892 -2,2 l 0,11.34375 c -0.198606,0.53433 -0.08906,1.18926 0.3125,1.75 0.0771,0.11963 0.181089,0.21234 0.28125,0.3125 L 53.65625,58.5 c 0.783474,0.78347 1.925928,0.88657 2.5625,0.25 L 56.75,58.21875 c 0.636572,-0.63657 0.533474,-1.77903 -0.25,-2.5625 L 50,49.1875 50,38 c 0,-1.108 -0.892,-2 -2,-2 z m 0,1.96875 c 0.04636,0 0.03125,-0.01511 0.03125,0.03125 l 0,11.1875 a 1.9782833,1.9782833 0 0 0 0.4375,1.25 L 48,50 c -0.07633,-0.07633 -0.122576,-0.0994 -0.125,-0.09375 -0.0018,-0.0057 -9.64e-4,-0.03679 0,-0.03125 a 1.9782833,1.9782833 0 0 0 0.09375,-0.53125 l 0,-11.34375 c 0,-0.04636 -0.01511,-0.03125 0.03125,-0.03125 z m 0.59375,12.625 6.5,6.46875 -0.03125,0.03125 -6.46875,-6.5 z"
       inkscape:connector-curvature="0"
       id="path4522"
       style="opacity:0.25;color:#000000;fill:url(#linearGradient4532);fill-opacity:1;stroke:none;stroke-width:1.5;marker:none;visibility:visible;display:inline;overflow:visible;enable-background:accumulate" />
    <path
       d="M 48,28 C 35.84974,28 26,37.84974 26,50 l -4,0 0.59375,1 L 26,51 C 26,38.84974 35.84974,29 48,29 59.981636,29 69.731835,38.582765 70,50.5 70.0038,50.332283 70,50.168624 70,50 70,37.84974 60.15026,28 48,28 z m 0,8 c -1.108,0 -2,0.892 -2,2 l 0,1 c 0,-1.108 0.892,-2 2,-2 1.108,0 2,0.892 2,2 l 0,-1 c 0,-1.108 -0.892,-2 -2,-2 z m 2,13.1875 0,1 6.5,6.46875 c 0.293803,0.293801 0.49443,0.650842 0.59375,1 0.202832,-0.626595 -0.0061,-1.412397 -0.59375,-2 L 50,49.1875 z m -4,0.15625 c -0.12085,0.325135 -0.103707,0.696451 0,1.0625 0.0064,-0.01982 -0.0073,-0.04299 0,-0.0625 l 0,-1 z M 32.0625,50 C 32.04161,50.334696 32,50.660038 32,51 L 35.40625,51 36,50 32.0625,50 z m 31.90625,0.5 C 63.700451,59.101456 56.666579,66 48,66 45.08161,66 42.35563,65.20866 40,63.84375 l -3,5.21875 c 0.140046,0.08094 0.295501,0.140832 0.4375,0.21875 L 40,64.84375 C 42.35563,66.20866 45.08161,67 48,67 c 8.83656,0 16,-7.16344 16,-16 0,-0.169981 -0.02599,-0.331296 -0.03125,-0.5 z"
       inkscape:connector-curvature="0"
       id="path4500"
       style="color:#000000;fill:url(#linearGradient4506);fill-opacity:1;stroke:none;stroke-width:1.5;marker:none;visibility:visible;display:inline;overflow:visible;enable-background:accumulate" />
    <path
       d="m 48,34 c -8.83656,0 -16,7.16344 -16,16 l 0.0625,0 C 32.584667,41.635 39.503402,35 48,35 56.666579,35 63.700451,41.898544 63.96875,50.5 63.97405,50.331296 64,50.169981 64,50 64,41.16344 56.83656,34 48,34 z m -2,16.40625 c -0.169691,0.523028 -0.0744,1.147236 0.3125,1.6875 0.0771,0.11963 0.181089,0.21234 0.28125,0.3125 L 53.65625,59.5 c 0.783474,0.78347 1.925928,0.88657 2.5625,0.25 L 56.75,59.21875 c 0.397858,-0.397856 0.509284,-0.98057 0.34375,-1.5625 -0.06761,0.208865 -0.184607,0.403357 -0.34375,0.5625 L 56.21875,58.75 c -0.636572,0.63657 -1.779026,0.53347 -2.5625,-0.25 l -7.0625,-7.09375 C 46.493589,51.30609 46.3896,51.21338 46.3125,51.09375 46.155285,50.874215 46.066726,50.64177 46,50.40625 z M 70,50.5 C 69.731835,62.417235 59.981636,72 48,72 44.169105,72 40.574941,71.002823 37.4375,69.28125 L 37,70.0625 C 40.23433,71.93188 43.99572,73 48,73 c 12.15026,0 22,-9.84974 22,-22 0,-0.168624 0.0038,-0.332283 0,-0.5 z M 22,51 25.5,57 29,63 32.5,57 36,51 35.40625,51 32.5,56 29,62 25.5,56 22.59375,51 22,51 z"
       inkscape:connector-curvature="0"
       id="path4535"
       style="opacity:0.2;color:#000000;fill:#ffffff;fill-opacity:1;stroke:none;stroke-width:1.5;marker:none;visibility:visible;display:inline;overflow:visible;enable-background:accumulate" />
  </g>
</svg>
