<?xml version="1.0" encoding="utf-8"?>
<!-- Generator: Adobe Illustrator 23.0.0, SVG Export Plug-In . SVG Version: 6.00 Build 0)  -->
<!DOCTYPE svg PUBLIC "-//W3C//DTD SVG 1.1//EN" "http://www.w3.org/Graphics/SVG/1.1/DTD/svg11.dtd" [
	<!ENTITY ns_extend "http://ns.adobe.com/Extensibility/1.0/">
	<!ENTITY ns_ai "http://ns.adobe.com/AdobeIllustrator/10.0/">
	<!ENTITY ns_graphs "http://ns.adobe.com/Graphs/1.0/">
	<!ENTITY ns_vars "http://ns.adobe.com/Variables/1.0/">
	<!ENTITY ns_imrep "http://ns.adobe.com/ImageReplacement/1.0/">
	<!ENTITY ns_sfw "http://ns.adobe.com/SaveForWeb/1.0/">
	<!ENTITY ns_custom "http://ns.adobe.com/GenericCustomNamespace/1.0/">
	<!ENTITY ns_adobe_xpath "http://ns.adobe.com/XPath/1.0/">
]>
<svg version="1.1" id="audio-x-generic" xmlns:x="&ns_extend;" xmlns:i="&ns_ai;" xmlns:graph="&ns_graphs;"
	 xmlns="http://www.w3.org/2000/svg" xmlns:xlink="http://www.w3.org/1999/xlink" x="0px" y="0px" viewBox="0 0 256 256"
	 style="enable-background:new 0 0 256 256;" xml:space="preserve">
<style type="text/css">
	.st0{fill:#F4A72E;}
	.st1{fill:#FFFFFF;}
	.st2{fill-rule:evenodd;clip-rule:evenodd;fill:#F4A72E;}
</style>
<metadata>
	<sfw  xmlns="&ns_sfw;">
		<slices></slices>
		<sliceSourceBounds  bottomLeftOrigin="true" height="252.1" width="252" x="2" y="2"></sliceSourceBounds>
	</sfw>
</metadata>
<path id="path1" class="st0" d="M251.7,90.4c-3.1-23.4-11.4-44.6-26-60.1l0,0c-15.6-14.6-36.7-22.9-60.1-26C143.2,1.3,128,2,128,2
	s-15.2-0.7-37.6,2.3C67,7.4,45.8,15.7,30.3,30.3C15.7,45.8,7.5,67,4.3,90.4c-3,22.3-2.2,37.6-2.2,37.6s-0.7,15.2,2.2,37.6
	c3.1,23.4,11.4,44.6,26,60.1l0,0c15.6,14.6,36.7,22.9,60.1,26c22.3,3,37.6,2.2,37.6,2.2s15.2,0.7,37.6-2.2
	c23.4-3.1,44.6-11.4,60.1-26l0,0c14.6-15.6,22.9-36.7,26-60.1c3-22.3,2.2-37.6,2.2-37.6S254.7,112.8,251.7,90.4"/>
<path id="path1_1_" class="st1" d="M249.7,91c-3.1-23-11.2-43.9-25.6-59.1l0,0C208.8,17.5,188,9.3,165,6.3c-22-3-37-2.3-37-2.3
	s-15-0.7-37,2.3C68,9.3,47.1,17.5,31.8,31.9C17.5,47.1,9.4,68,6.3,91c-3,21.9-2.2,37-2.2,37s-0.7,15,2.2,37
	c3.1,23,11.2,43.9,25.6,59.1l0,0C47.2,238.6,68,246.7,91,249.8c21.9,3,37,2.2,37,2.2s15,0.7,37-2.2c23-3.1,43.9-11.2,59.1-25.6l0,0
	c14.4-15.4,22.5-36.1,25.6-59.1c3-21.9,2.2-37,2.2-37S252.7,113.1,249.7,91"/>
<path class="st2" d="M199.2,79.1h-78.3v-5.1c0-4.7-3.8-8.4-8.4-8.4h-51c-4.7,0-8.4,3.8-8.4,8.4v94.4c0,12.1,9.8,21.9,21.9,21.9
	h106.2c12.1,0,21.9-9.8,21.9-21.9V82.9C203,80.8,201.3,79.1,199.2,79.1z M192.8,168.4c0,6.7-5.4,12.1-12.1,12.1
	c-35.4-0.1-70.8-0.2-106.2-0.2c-6.2,0-11.2-5-11.2-11.2V75.7l46.9-0.2l0,6.9c0,3.8,3.1,6.8,6.8,6.8c25.2,0.1,50.5,0.1,75.7,0.2
	V168.4z"/>
</svg>
