<?xml version="1.0" encoding="UTF-8" standalone="no"?>
<!-- Generator: Adobe Illustrator 23.0.0, SVG Export Plug-In . SVG Version: 6.00 Build 0)  -->

<svg
   xmlns:ns="&amp;ns_sfw;"
   xmlns:dc="http://purl.org/dc/elements/1.1/"
   xmlns:cc="http://creativecommons.org/ns#"
   xmlns:rdf="http://www.w3.org/1999/02/22-rdf-syntax-ns#"
   xmlns:svg="http://www.w3.org/2000/svg"
   xmlns="http://www.w3.org/2000/svg"
   xmlns:sodipodi="http://sodipodi.sourceforge.net/DTD/sodipodi-0.dtd"
   xmlns:inkscape="http://www.inkscape.org/namespaces/inkscape"
   version="1.1"
   id="audio-x-generic"
   x="0px"
   y="0px"
   viewBox="0 0 256 256"
   style="enable-background:new 0 0 256 256;"
   xml:space="preserve"
   sodipodi:docname="default-folder-pictures.svg"
   inkscape:version="0.92.5 (2060ec1f9f, 2020-04-08)"><defs
   id="defs19" /><sodipodi:namedview
   pagecolor="#ffffff"
   bordercolor="#666666"
   borderopacity="1"
   objecttolerance="10"
   gridtolerance="10"
   guidetolerance="10"
   inkscape:pageopacity="0"
   inkscape:pageshadow="2"
   inkscape:window-width="1848"
   inkscape:window-height="1052"
   id="namedview17"
   showgrid="false"
   inkscape:zoom="3.6875"
   inkscape:cx="134.07458"
   inkscape:cy="144.21677"
   inkscape:window-x="72"
   inkscape:window-y="28"
   inkscape:window-maximized="1"
   inkscape:current-layer="audio-x-generic" />
<style
   type="text/css"
   id="style2">
	.st0{fill:#F4A72E;}
	.st1{fill:#FFFFFF;}
	.st2{fill-rule:evenodd;clip-rule:evenodd;fill:#F4A72E;}
</style>
<metadata
   id="metadata4">
	<ns:sfw>
		<ns:slices />
		<ns:sliceSourceBounds
   bottomLeftOrigin="true"
   height="252.1"
   width="252"
   x="2"
   y="2" />
	</ns:sfw>
<rdf:RDF><cc:Work
     rdf:about=""><dc:format>image/svg+xml</dc:format><dc:type
       rdf:resource="http://purl.org/dc/dcmitype/StillImage" /></cc:Work></rdf:RDF></metadata>
<path
   id="path1"
   class="st0"
   d="M251.7,90.4c-3.1-23.4-11.4-44.6-26-60.1l0,0c-15.6-14.6-36.7-22.9-60.1-26C143.2,1.3,128,2,128,2  s-15.2-0.7-37.6,2.3C67,7.4,45.8,15.7,30.3,30.3C15.7,45.8,7.5,67,4.3,90.4c-3,22.3-2.2,37.6-2.2,37.6s-0.7,15.2,2.2,37.6  c3.1,23.4,11.4,44.6,26,60.1l0,0c15.6,14.6,36.7,22.9,60.1,26c22.3,3,37.6,2.2,37.6,2.2s15.2,0.7,37.6-2.2  c23.4-3.1,44.6-11.4,60.1-26l0,0c14.6-15.6,22.9-36.7,26-60.1c3-22.3,2.2-37.6,2.2-37.6S254.7,112.8,251.7,90.4" />
<path
   id="path1_1_"
   class="st1"
   d="M249.7,91c-3.1-23-11.2-43.9-25.6-59.1l0,0C208.8,17.5,188,9.3,165,6.3c-22-3-37-2.3-37-2.3  s-15-0.7-37,2.3c-23,3-43.9,11.2-59.2,25.6C17.5,47.1,9.4,68,6.3,91c-3,21.9-2.2,37-2.2,37s-0.7,15,2.2,37  c3.1,23,11.2,43.9,25.6,59.1l0,0C47.2,238.6,68,246.7,91,249.8c21.9,3,37,2.2,37,2.2s15,0.7,37-2.2c23-3.1,43.9-11.2,59.1-25.6l0,0  c14.4-15.4,22.5-36.1,25.6-59.1c3-21.9,2.2-37,2.2-37S252.7,113.1,249.7,91" />
<path
   d="M 61.400391,65.599609 C 56.700391,65.599609 53,69.4 53,74 v 94.40039 c 0,12.1 9.800391,21.90039 21.900391,21.90039 h 36.828129 v -9.93164 c -12.436768,-0.0294 -24.861918,-0.0684 -37.328129,-0.0684 -6.2,0 -11.201172,-5.00117 -11.201172,-11.20117 V 75.699219 L 110.09961,75.5 v 6.900391 c 0,3.8 3.10078,6.798828 6.80078,6.798828 25.2,0.1 50.49922,0.101172 75.69922,0.201172 V 105.2207 H 203 V 82.900391 c -0.1,-2.1 -1.80039,-3.800782 -3.90039,-3.800782 H 120.80078 V 74 c 0,-4.7 -3.80039,-8.400391 -8.40039,-8.400391 z"
   id="path8"
   inkscape:connector-curvature="0"
   sodipodi:nodetypes="ssssccssccscccccscsss"
   style="fill:#f4a72e;fill-opacity:1" />
<g
   id="g14">
	<path
   class="st2"
   d="m 132.9,125 v 58.4 7.1 14.5 h 80 V 185.7 171.6 125 Z m 72,72 h -64 v -7.4 L 155.5,175 c 0.2,-0.2 0.9,-0.8 1.9,-0.8 1.3,-0.1 2.2,0.7 2.3,0.8 2.7,2.7 5.5,5.5 8.2,8.2 0.3,0.2 1.6,1.4 3.6,1.3 1.4,-0.1 2.4,-0.8 2.7,-1.1 5.3,-5.3 10.7,-10.7 16,-16 0.2,-0.2 0.9,-0.9 2.1,-0.9 1.2,0 2,0.7 2.2,0.9 3.4,3.4 6.9,6.9 10.3,10.3 V 197 Z m 0,-33.4 -5.4,-5.4 -2.8,-2.8 c -2.3,-2.3 -6.1,-2.3 -8.5,0 l -2.8,2.8 -14.1,14.1 -6.5,-6.5 -2.8,-2.8 c -2.3,-2.3 -6.1,-2.3 -8.5,0 l -2.8,2.8 -9.7,9.7 V 133 h 64 v 30.6 z"
   id="path10"
   inkscape:connector-curvature="0"
   style="clip-rule:evenodd;fill:#f4a72e;fill-rule:evenodd" />
	<path
   class="st2"
   d="m 157.5,158.9 c 6.6,0 12,-5.4 12,-12 0,-6.6 -5.4,-12 -12,-12 -6.6,0 -12,5.4 -12,12 0,6.6 5.3,12 12,12 z m 0,-17 c 2.8,0 5,2.2 5,5 0,2.8 -2.2,5 -5,5 -2.8,0 -5,-2.2 -5,-5 0,-2.7 2.2,-5 5,-5 z"
   id="path12"
   inkscape:connector-curvature="0"
   style="clip-rule:evenodd;fill:#f4a72e;fill-rule:evenodd" />
</g>
</svg>