<?xml version="1.0" encoding="utf-8"?>
<!-- Generator: Adobe Illustrator 23.0.0, SVG Export Plug-In . SVG Version: 6.00 Build 0)  -->
<svg version="1.1" id="레이어_1" xmlns="http://www.w3.org/2000/svg" xmlns:xlink="http://www.w3.org/1999/xlink" x="0px"
	 y="0px" viewBox="0 0 256 256" style="enable-background:new 0 0 256 256;" xml:space="preserve">
<style type="text/css">
	.st0{fill:#E7A12E;}
	.st1{fill:#FFFFFF;}
	.st2{fill:#C5660A;}
</style>
<g>
	<path class="st0" d="M251.7,90.4c-3.1-23.4-11.4-44.6-26-60.1l0,0c-15.6-14.6-36.7-22.9-60.1-26C143.2,1.3,128,2,128,2
		s-15.2-0.7-37.6,2.3C67,7.4,45.8,15.7,30.3,30.3C15.7,45.8,7.5,67,4.3,90.4c-3,22.3-2.2,37.6-2.2,37.6s-0.7,15.2,2.2,37.6
		c3.1,23.4,11.4,44.6,26,60.1l0,0c15.6,14.6,36.7,22.9,60.1,26c22.3,3,37.6,2.2,37.6,2.2s15.2,0.7,37.6-2.2
		c23.4-3.1,44.6-11.4,60.1-26l0,0c14.6-15.6,22.9-36.7,26-60.1c3-22.3,2.2-37.6,2.2-37.6S254.7,112.8,251.7,90.4"/>
	<g>
		<path class="st1" d="M188.3,192.7H67.7c-8.1,0-14.7-6.6-14.7-14.7v-75.6c0-8.1,6.6-14.7,14.7-14.7h120.5c8.1,0,14.7,6.6,14.7,14.7
			V178C203,186.1,196.4,192.7,188.3,192.7z"/>
		<path class="st1" d="M115.3,108.5H53V75.3c0-6.7,5.4-12,12-12h50.2c6.7,0,12,5.4,12,12v21.1C127.3,103.1,121.9,108.5,115.3,108.5z
			"/>
		<path class="st1" d="M127.3,77.1h-10.6v21.1h21.1V87.7C132.1,87.6,127.4,82.9,127.3,77.1z"/>
	</g>
</g>
<path class="st2" d="M253,189.1c-1.2-9.3-4.5-17.7-10.3-23.9l0,0c-6.2-5.8-14.6-9.1-23.9-10.3c-8.9-1.2-14.9-0.9-14.9-0.9
	s-6-0.3-14.9,0.9c-9.3,1.2-17.7,4.5-23.9,10.3c-5.8,6.1-9.1,14.6-10.3,23.9c-1.2,8.9-0.9,14.9-0.9,14.9s-0.3,6,0.9,14.9
	c1.2,9.3,4.5,17.7,10.3,23.9l0,0c6.2,5.8,14.6,9.1,23.9,10.3c8.9,1.2,14.9,0.9,14.9,0.9s6,0.3,14.9-0.9c9.3-1.2,17.7-4.5,23.9-10.3
	l0,0c5.8-6.2,9.1-14.6,10.3-23.9c1.2-8.9,0.9-14.9,0.9-14.9S254.2,198,253,189.1"/>
<g>
	<path class="st1" d="M181.8,228.3h-7.6l18.8-55.6h7.6L181.8,228.3z"/>
	<path class="st1" d="M233.6,231.8h-32v-7.9h32V231.8z"/>
</g>
</svg>
