<?xml version="1.0" encoding="utf-8"?>
<!-- Generator: Adobe Illustrator 23.0.0, SVG Export Plug-In . SVG Version: 6.00 Build 0)  -->
<svg version="1.1" id="레이어_1" xmlns="http://www.w3.org/2000/svg" xmlns:xlink="http://www.w3.org/1999/xlink" x="0px"
	 y="0px" viewBox="0 0 256 256" style="enable-background:new 0 0 256 256;" xml:space="preserve">
<style type="text/css">
	.st0{fill:#E7A12E;}
	.st1{fill:#FFFFFF;}
	.st2{fill:#C5660A;}
	.st3{opacity:0.75;fill:#FFFFFF;}
	.st4{opacity:0.9;fill:#FFFFFF;}
	.st5{opacity:0.48;fill:#FFFFFF;}
	.st6{opacity:0.6;fill:#FFFFFF;}
	.st7{opacity:0.4;fill:#FFFFFF;}
</style>
<g>
	<path class="st0" d="M251.7,90.4c-3.1-23.4-11.4-44.6-26-60.1l0,0c-15.6-14.6-36.7-22.9-60.1-26C143.2,1.3,128,2,128,2
		s-15.2-0.7-37.6,2.3C67,7.4,45.8,15.7,30.3,30.3C15.7,45.8,7.5,67,4.3,90.4c-3,22.3-2.2,37.6-2.2,37.6s-0.7,15.2,2.2,37.6
		c3.1,23.4,11.4,44.6,26,60.1l0,0c15.6,14.6,36.7,22.9,60.1,26c22.3,3,37.6,2.2,37.6,2.2s15.2,0.7,37.6-2.2
		c23.4-3.1,44.6-11.4,60.1-26l0,0c14.6-15.6,22.9-36.7,26-60.1c3-22.3,2.2-37.6,2.2-37.6S254.7,112.8,251.7,90.4"/>
	<g>
		<path class="st1" d="M188.3,192.7H67.7c-8.1,0-14.7-6.6-14.7-14.7v-75.6c0-8.1,6.6-14.7,14.7-14.7h120.5c8.1,0,14.7,6.6,14.7,14.7
			V178C203,186.1,196.4,192.7,188.3,192.7z"/>
		<path class="st1" d="M115.3,108.5H53V75.3c0-6.7,5.4-12,12-12h50.2c6.7,0,12,5.4,12,12v21.1C127.3,103.1,121.9,108.5,115.3,108.5z
			"/>
		<path class="st1" d="M127.3,77.1h-10.6v21.1h21.1V87.7C132.1,87.6,127.4,82.9,127.3,77.1z"/>
	</g>
</g>
<path class="st2" d="M253,189.1c-1.2-9.3-4.5-17.7-10.3-23.9l0,0c-6.2-5.8-14.6-9.1-23.9-10.3c-8.9-1.2-14.9-0.9-14.9-0.9
	s-6-0.3-14.9,0.9c-9.3,1.2-17.7,4.5-23.9,10.3c-5.8,6.1-9.1,14.6-10.3,23.9c-1.2,8.9-0.9,14.9-0.9,14.9s-0.3,6,0.9,14.9
	c1.2,9.3,4.5,17.7,10.3,23.9l0,0c6.2,5.8,14.6,9.1,23.9,10.3c8.9,1.2,14.9,0.9,14.9,0.9s6,0.3,14.9-0.9c9.3-1.2,17.7-4.5,23.9-10.3
	l0,0c5.8-6.2,9.1-14.6,10.3-23.9c1.2-8.9,0.9-14.9,0.9-14.9S254.2,198,253,189.1"/>
<g>
	<path class="st3" d="M224.4,229.5c0.6-0.4,1.5-0.9,2.4-1.8c1-1,1.5-1.9,1.8-2.4c1.9-3.2,3.8-6.7,4.2-7.6c0.3-0.7,0.6-1.6,0.8-2.6
		c0.1-0.7,0.2-1.3,0.2-1.9c-6.3,0-12.6,0-18.9,0C218.1,218.6,221.2,224.1,224.4,229.5z"/>
	<path class="st4" d="M193,213.2c-6.3,0-12.7,0.1-19,0.1c-0.1,0.3-0.1,0.7-0.1,1c0,0.1,0,0.1,0,0.2c0,0,0,0,0,0
		c0,0.2,0.1,0.4,0.1,0.6c0,0.1,0.1,0.3,0.2,0.4c1.7,3.4,3.5,6.9,5.2,10.3c0.3,0.5,0.6,1,0.9,1.4c0,0,0,0,0,0c0.4,0.5,0.9,1,1.5,1.6
		c0.5,0.5,1.1,0.8,1.5,1.1C186.6,224.3,189.8,218.7,193,213.2z"/>
	<path class="st1" d="M210.8,177.4c-1.7,0-6.4-0.1-12.6,0c0,0,0,0,0,0c-0.2,0-0.4,0-0.6,0c-0.6,0-1.4,0.1-2.2,0.4
		c-0.2,0.1-0.4,0.3-0.6,0.4c3.1,5.3,6.2,10.7,9.2,16c3.1-5.3,6.2-10.5,9.3-15.8C212.4,177.8,211.5,177.5,210.8,177.4z"/>
	<path class="st5" d="M215,213.2c-7.3,0-14.7,0-22,0c-3.2,5.6-6.4,11.1-9.6,16.7c0.4,0.2,1,0.5,1.8,0.7c0.7,0.2,1.4,0.2,1.9,0.2
		h32.5c0.6,0,1.5-0.1,2.5-0.3c1-0.3,1.7-0.6,2.3-0.9C221.3,224.1,218.2,218.6,215,213.2z"/>
	<path class="st6" d="M193,213.2c3.7-6.3,7.4-12.6,11-19c-3.1-5.3-6.2-10.5-9.2-15.8c0.2-0.2,0.4-0.3,0.6-0.4c0,0-0.1,0-0.1,0
		c-1.4,0.7-2.5,2.3-2.5,2.3c-0.8,1.2-8.1,13.3-18.1,30c-0.2,0.4-0.3,0.9-0.5,1.4c-0.1,0.6-0.2,1.1-0.2,1.5
		C180.3,213.2,186.7,213.2,193,213.2z"/>
	<path class="st7" d="M215,213.1C215,213.1,215,213.1,215,213.1c6.3,0,12.6,0,18.9,0.1c0-0.6-0.1-1.2-0.2-1.9
		c-0.1-0.5-0.2-1-0.3-1.4c-5.3-9-10.6-17.9-15.9-26.9c-0.4-0.9-1.3-2.7-3.3-4.2c-0.3-0.2-0.5-0.3-0.8-0.5c0,0,0,0,0,0
		c-3.1,5.3-6.1,10.7-9.2,16C207.7,200.6,211.4,206.8,215,213.1z"/>
</g>
</svg>
