<?xml version="1.0" encoding="UTF-8" standalone="no"?>
<svg
   viewBox="0 0 64 64"
   version="1.1"
   id="svg12"
   sodipodi:docname="folder-build.svg"
   inkscape:version="1.2 (dc2aedaf03, 2022-05-15)"
   xmlns:inkscape="http://www.inkscape.org/namespaces/inkscape"
   xmlns:sodipodi="http://sodipodi.sourceforge.net/DTD/sodipodi-0.dtd"
   xmlns="http://www.w3.org/2000/svg"
   xmlns:svg="http://www.w3.org/2000/svg"
   xmlns:rdf="http://www.w3.org/1999/02/22-rdf-syntax-ns#"
   xmlns:cc="http://creativecommons.org/ns#"
   xmlns:dc="http://purl.org/dc/elements/1.1/">
  <metadata
     id="metadata16">
    <rdf:RDF>
      <cc:Work
         rdf:about="">
        <dc:format>image/svg+xml</dc:format>
        <dc:type
           rdf:resource="http://purl.org/dc/dcmitype/StillImage" />
      </cc:Work>
    </rdf:RDF>
  </metadata>
  <sodipodi:namedview
     pagecolor="#ffffff"
     bordercolor="#666666"
     borderopacity="1"
     objecttolerance="10"
     gridtolerance="10"
     guidetolerance="10"
     inkscape:pageopacity="0"
     inkscape:pageshadow="2"
     inkscape:window-width="1920"
     inkscape:window-height="1000"
     id="namedview14"
     showgrid="true"
     inkscape:zoom="5.6568543"
     inkscape:cx="46.050329"
     inkscape:cy="33.14563"
     inkscape:window-x="0"
     inkscape:window-y="0"
     inkscape:window-maximized="1"
     inkscape:current-layer="svg12"
     inkscape:document-rotation="0"
     inkscape:lockguides="false"
     inkscape:showpageshadow="2"
     inkscape:pagecheckerboard="0"
     inkscape:deskcolor="#d1d1d1">
    <inkscape:grid
       type="xygrid"
       id="grid841" />
  </sodipodi:namedview>
  <defs
     id="defs3051">
    <style
       type="text/css"
       id="current-color-scheme">
      .ColorScheme-Text {
        color:#31363b;
      }
      .ColorScheme-Background {
        color:#eff0f1;
      }
      .ColorScheme-Highlight {
        color:#3daee9;
      }
      .ColorScheme-ViewText {
        color:#31363b;
      }
      .ColorScheme-ViewBackground {
        color:#fcfcfc;
      }
      .ColorScheme-ViewHover {
        color:#93cee9;
      }
      .ColorScheme-ViewFocus{
        color:#3daee9;
      }
      .ColorScheme-ButtonText {
        color:#31363b;
      }
      .ColorScheme-ButtonBackground {
        color:#eff0f1;
      }
      .ColorScheme-ButtonHover {
        color:#93cee9;
      }
      .ColorScheme-ButtonFocus{
        color:#3daee9;
      }
      </style>
  </defs>
  <path
     style="fill:currentColor;fill-opacity:1;stroke:none"
     d="m 9,6.000034 c -3,0 -5,2 -4.992,5.197014 L 4,20 c -0.5255187,0 -1,0.363715 -1,1 l 0.008,0.197048 H 3.01 c -5e-5,0.004 -0.002,0.008 -0.002,0.01172 L 3,53 c 0,3 2,5 5,5 v 0 h 48 v 0 c 3,0 5,-2 5,-5 l 0.008,-31.791232 v -0.01172 L 61,17 c 0,-0.484427 -0.416433,-1 -1,-1 v 0 0 l 0.008,-0.802952 C 60,12 58,10 55,10 H 32 C 32,8 30,6 28,6.000034 Z"
     class="ColorScheme-Highlight"
     id="path4"
     sodipodi:nodetypes="ccccccsccccccccccccccccc" />
  <path
     style="fill-opacity:0.33;fill-rule:evenodd"
     d="M 9,6 C 6,6 4,8 4.0000003,11 v 9 H 22 l 4,-4 h 34 v -1 0 0 c 0,-3 -2,-5 -5,-5 L 32,9.9999657 C 32,8 30,6 28,5.9999657 Z"
     id="path6"
     sodipodi:nodetypes="ccccccccccccc" />
  <path
     style="fill:#737373;fill-opacity:0.2;fill-rule:evenodd;opacity:0.01"
     d="m 28,6 3,5 h 2 22 V 10 H 33 32 C 32,8 30,6 28,6 Z m -2,10 -4,4 H 4 c -0.5804871,0 -1,0.403257 -1,1 h 20 z"
     id="path8"
     sodipodi:nodetypes="cccccccccccccc" />
  <path
     style="fill-opacity:0.2;fill-rule:evenodd"
     d="m 26,16 -6,3 H 4 v 1 H 22 Z M 5,57 c 0,0.416776 2,1 3,1 h 2 42 3 c 2.476706,0 4,-0.558829 4,-1 H 52 10 Z"
     class="ColorScheme-Text"
     id="path10"
     sodipodi:nodetypes="ccccccccccccccc" />
  <path
     style="color:#232629;fill:#e5e5e5;fill-opacity:1;stroke:none"
     d="m 39.996872,25.2 -0.31054,1.060546 c -0.636,-0.053 -1.27672,0.01708 -1.88672,0.205078 l -0.5293,-0.96875 -1.75586,0.958985 0.5293,0.96875 c -0.489,0.412 -0.89336,0.912562 -1.19336,1.476562 l -1.05664,-0.308593 -0.5625,1.917968 1.06054,0.310547 c -0.053,0.636 0.0151,1.278672 0.20313,1.888672 l -0.96875,0.529297 0.95898,1.755859 0.96875,-0.53125 c 0.412,0.489 0.91452,0.895313 1.47852,1.195313 l -0.31055,1.05664 1.91992,0.5625 0.31055,-1.060546 c 0.636,0.053 1.27672,-0.01708 1.88672,-0.205078 l 0.53125,0.96875 1.75391,-0.958985 -0.5293,-0.96875 c 0.489,-0.412 0.89336,-0.912562 1.19336,-1.476562 l 1.05664,0.308593 0.5625,-1.917968 -1.06055,-0.310547 c 0.053,-0.636 -0.0151,-1.278672 -0.20312,-1.888672 l 0.96875,-0.529297 -0.95899,-1.755859 -0.96875,0.53125 c -0.412,-0.489 -0.91451,-0.895313 -1.47851,-1.195313 l 0.31054,-1.05664 z m -0.98828,2.048828 c 0.19847,-0.01293 0.39873,-0.0109 0.59766,0.0059 0.26523,0.02234 0.52981,0.07048 0.78906,0.146484 0.998,0.293 1.84347,0.963141 2.35547,1.869141 0.532,0.94 0.66142,2.05675 0.35742,3.09375 -0.293,0.998 -0.96314,1.843469 -1.86914,2.355469 -0.94,0.532 -2.05675,0.661422 -3.09375,0.357422 -0.998,-0.293 -1.84542,-0.963141 -2.35742,-1.869141 -0.532,-0.94 -0.66142,-2.05675 -0.35742,-3.09375 0.293,-0.998 0.96314,-1.843469 1.86914,-2.355469 0.52875,-0.29925 1.11358,-0.470984 1.70898,-0.509765 z m -13.330077,2.921875 -1.990234,0.195312 0.107422,1.099609 c -0.61,0.188001 -1.177829,0.490579 -1.673829,0.892579 l -0.855468,-0.701172 -1.269532,1.544922 0.853516,0.701171 c -0.3,0.565001 -0.486687,1.18236 -0.554687,1.81836 L 19.2,35.828906 l 0.195312,1.990234 1.099609,-0.107422 c 0.188,0.61 0.490578,1.177828 0.892579,1.673828 l -0.701172,0.855469 1.544922,1.269531 0.701171,-0.853515 c 0.565,0.3 1.18236,0.486687 1.81836,0.554687 l 0.107422,1.095703 1.990234,-0.195312 -0.107422,-1.099609 c 0.61,-0.188 1.177828,-0.490579 1.673828,-0.892579 l 0.855469,0.701172 1.26953,-1.544922 L 29.686328,38.575 c 0.3,-0.565 0.486687,-1.18236 0.554684,-1.81836 l 1.09571,-0.107422 -0.19532,-1.990234 -1.099606,0.107422 c -0.188,-0.61 -0.490578,-1.177828 -0.892578,-1.673828 l 0.701172,-0.855469 -1.544922,-1.269531 -0.701172,0.853515 c -0.565,-0.3 -1.182359,-0.486687 -1.818359,-0.554687 z m -0.02734,2.085937 c 0.766032,0.07373 1.500829,0.368719 2.111329,0.855469 0.845,0.674 1.381328,1.660328 1.486328,2.736328 0.102,1.036 -0.204516,2.070766 -0.853516,2.884766 -0.674,0.845 -1.662281,1.381328 -2.738281,1.486328 -1.036,0.102 -2.068813,-0.204516 -2.882813,-0.853516 -0.845,-0.674 -1.381328,-1.662281 -1.486328,-2.738281 -0.102,-1.036 0.204516,-2.068813 0.853516,-2.882813 0.674,-0.845 1.660328,-1.381328 2.736328,-1.486328 0.259,-0.02555 0.518094,-0.02653 0.773437,-0.002 z m 8.617187,3.982422 v 1.105469 c -0.626,0.128 -1.22091,0.374562 -1.75391,0.726562 l -0.78125,-0.78125 -1.41406,1.414063 0.78125,0.78125 c -0.353,0.533 -0.60147,1.127906 -0.73047,1.753906 h -1.101563 v 2 h 1.105473 c 0.128,0.626 0.37456,1.220906 0.72656,1.753906 l -0.78125,0.78125 1.41406,1.414063 0.78125,-0.78125 c 0.533,0.353 1.12791,0.601469 1.75391,0.730469 v 1.101562 h 2 v -1.105469 c 0.626,-0.128 1.2209,-0.374562 1.7539,-0.726562 l 0.78125,0.78125 1.41407,-1.414063 -0.78125,-0.78125 c 0.353,-0.533 0.60146,-1.127906 0.73046,-1.753906 h 1.10157 v -2 h -1.10547 c -0.128,-0.626 -0.37456,-1.220906 -0.72656,-1.753906 l 0.78125,-0.78125 -1.41407,-1.414063 -0.78125,0.78125 c -0.533,-0.353 -1.1279,-0.601469 -1.7539,-0.730469 v -1.101562 z m 1,2 c 1.041,0 2.04011,0.405859 2.78711,1.130859 0.775,0.753 1.21289,1.788141 1.21289,2.869141 0,1.041 -0.40586,2.040109 -1.13086,2.787109 -0.753,0.775 -1.78814,1.212891 -2.86914,1.212891 -1.041,0 -2.04011,-0.405859 -2.78711,-1.130859 -0.775,-0.753 -1.21289,-1.788141 -1.21289,-2.869141 0,-1.041 0.40586,-2.040109 1.13086,-2.787109 0.753,-0.775 1.78814,-1.212891 2.86914,-1.212891 z"
     class="ColorScheme-Text"
     id="path1935" />
</svg>
