<svg id="레이어_1" data-name="레이어 1" xmlns="http://www.w3.org/2000/svg" viewBox="0 0 16 16"><defs><style>.cls-1,.cls-2{fill:#363636;}.cls-2{opacity:0.35;}</style></defs><title>audio-volume-medium-symbolic</title><g id="레이어_3" data-name="레이어 3"><path class="cls-1" d="M7.84,2.29,4.54,5.58H1.75a.29.29,0,0,0-.28.28h0V10.3a.27.27,0,0,0,.26.28h3l3.13,3.13a.16.16,0,0,0,.24,0,.18.18,0,0,0,.05-.12V2.41a.19.19,0,0,0-.1-.23A.18.18,0,0,0,7.84,2.29Z"/><path class="cls-1" d="M10,8.08a2.48,2.48,0,0,1-.7,1.77l1.06,1.06a4,4,0,0,0,0-5.65L9.3,6.32A2.45,2.45,0,0,1,10,8.08Z"/><path class="cls-2" d="M13,8.08A5.46,5.46,0,0,1,11.42,12l1.06,1a7,7,0,0,0,0-9.9h0L11.42,4.2A5.47,5.47,0,0,1,13,8.08Z"/></g></svg>