<?xml version="1.0" encoding="UTF-8" standalone="no"?>
<!-- Created with Inkscape (http://www.inkscape.org/) -->

<svg
   xmlns:dc="http://purl.org/dc/elements/1.1/"
   xmlns:cc="http://creativecommons.org/ns#"
   xmlns:rdf="http://www.w3.org/1999/02/22-rdf-syntax-ns#"
   xmlns:svg="http://www.w3.org/2000/svg"
   xmlns="http://www.w3.org/2000/svg"
   xmlns:sodipodi="http://sodipodi.sourceforge.net/DTD/sodipodi-0.dtd"
   xmlns:inkscape="http://www.inkscape.org/namespaces/inkscape"
   width="16"
   height="16"
   viewBox="0 0 4.2333332 4.2333332"
   version="1.1"
   id="svg8"
   inkscape:version="0.92.5 (2060ec1f9f, 2020-04-08)"
   sodipodi:docname="network-wired-offline-symbolic.svg">
  <defs
     id="defs2" />
  <sodipodi:namedview
     id="base"
     pagecolor="#ffffff"
     bordercolor="#666666"
     borderopacity="1.0"
     inkscape:pageopacity="0.0"
     inkscape:pageshadow="2"
     inkscape:zoom="31.678384"
     inkscape:cx="10.993257"
     inkscape:cy="9.4690143"
     inkscape:document-units="mm"
     inkscape:current-layer="g4690"
     showgrid="false"
     units="px"
     inkscape:window-width="1848"
     inkscape:window-height="1019"
     inkscape:window-x="72"
     inkscape:window-y="31"
     inkscape:window-maximized="1" />
  <metadata
     id="metadata5">
    <rdf:RDF>
      <cc:Work
         rdf:about="">
        <dc:format>image/svg+xml</dc:format>
        <dc:type
           rdf:resource="http://purl.org/dc/dcmitype/StillImage" />
        <dc:title></dc:title>
      </cc:Work>
    </rdf:RDF>
  </metadata>
  <g
     inkscape:label="Layer 1"
     inkscape:groupmode="layer"
     id="layer1"
     transform="translate(0,-292.76667)">
    <g
       id="g4690"
       transform="matrix(0.79999995,0,0,0.79999995,-38.987834,94.374187)">
      <path
         inkscape:connector-curvature="0"
         id="rect815-3"
         d="m 52.89152,251.77135 0.862562,-0.86256 0.272381,-0.27238 -0.272393,-0.2724 -0.86255,-0.86255 -0.272382,0.27238 0.862551,0.86255 -0.862563,0.86257 z"
         style="opacity:1;fill:#363636;fill-opacity:1;stroke-width:0.00888002" />
      <path
         inkscape:connector-curvature="0"
         id="rect815-7-5"
         d="m 49.869739,251.77135 -0.862562,-0.86256 -0.272381,-0.27238 0.272393,-0.2724 0.86255,-0.86255 0.272381,0.27238 -0.86255,0.86255 0.862562,0.86257 z"
         style="opacity:1;fill:#363636;fill-opacity:1;stroke-width:0.00888002" />
      <g
         transform="matrix(1.2500001,0,0,1.2500001,48.734795,-117.96775)"
         id="layer1-3"
         inkscape:label="Layer 1">
        <path
           style="opacity:1;fill:#363636;fill-opacity:1;stroke-width:0.2987234"
           d="m 1.4552087,294.48646 0.3968744,0.39688 -0.3968744,0.39688 0.2645832,0.26458 0.3968752,-0.39687 0.3968751,0.39687 0.2645832,-0.26458 -0.3968752,-0.39688 0.3968752,-0.39688 -0.2645832,-0.26458 -0.3968751,0.39687 -0.3968752,-0.39687 z"
           id="rect5591"
           inkscape:connector-curvature="0" />
      </g>
      <path
         style="opacity:0.4;fill:#363636;fill-opacity:1;stroke-width:0.01249717"
         d="m 50.25925,250.43815 -0.201538,0.1983 0.186681,0.18668 h 0.209936 0.05297 l 0.186681,-0.18668 -0.198308,-0.1983 h -0.04134 z"
         id="rect815-3-6"
         inkscape:connector-curvature="0" />
      <path
         style="opacity:0.4;fill:#363636;fill-opacity:1;stroke-width:0.01249717"
         d="m 52.268818,250.43813 -0.201538,0.19831 0.186681,0.18668 h 0.209935 0.05297 l 0.186681,-0.18668 -0.198309,-0.19831 h -0.04134 z"
         id="rect815-3-6-8"
         inkscape:connector-curvature="0" />
    </g>
  </g>
</svg>
