<?xml version="1.0" encoding="utf-8"?>
<!-- Generator: Adobe Illustrator 23.0.0, SVG Export Plug-In . SVG Version: 6.00 Build 0)  -->
<!DOCTYPE svg PUBLIC "-//W3C//DTD SVG 1.1//EN" "http://www.w3.org/Graphics/SVG/1.1/DTD/svg11.dtd" [
	<!ENTITY ns_extend "http://ns.adobe.com/Extensibility/1.0/">
	<!ENTITY ns_ai "http://ns.adobe.com/AdobeIllustrator/10.0/">
	<!ENTITY ns_graphs "http://ns.adobe.com/Graphs/1.0/">
	<!ENTITY ns_vars "http://ns.adobe.com/Variables/1.0/">
	<!ENTITY ns_imrep "http://ns.adobe.com/ImageReplacement/1.0/">
	<!ENTITY ns_sfw "http://ns.adobe.com/SaveForWeb/1.0/">
	<!ENTITY ns_custom "http://ns.adobe.com/GenericCustomNamespace/1.0/">
	<!ENTITY ns_adobe_xpath "http://ns.adobe.com/XPath/1.0/">
]>
<svg version="1.1" id="레이어_1" xmlns:x="&ns_extend;" xmlns:i="&ns_ai;" xmlns:graph="&ns_graphs;"
	 xmlns="http://www.w3.org/2000/svg" xmlns:xlink="http://www.w3.org/1999/xlink" x="0px" y="0px" viewBox="0 0 16 16"
	 style="enable-background:new 0 0 16 16;" xml:space="preserve">
<style type="text/css">
	.st0{fill:#363636;}
</style>
<metadata>
	<sfw  xmlns="&ns_sfw;">
		<slices></slices>
		<sliceSourceBounds  bottomLeftOrigin="true" height="13.2" width="14" x="1" y="1.4"></sliceSourceBounds>
	</sfw>
</metadata>
<path class="st0" d="M13.4,7c-0.6,0-1.1,0.4-1.3,0.9c-1.5,0-3,0-4.5,0c0-1.1,0-2.2,0-3.3c0-0.1,0-0.6,0.4-1C8.4,3.3,8.9,3.3,9,3.3
	c1.1,0,2.2,0,3.2,0c0,0.1,0.1,0.4,0.5,0.7c0,0,0.4,0.3,0.9,0.3c0.8,0,1.4-0.6,1.4-1.4c0-0.8-0.6-1.4-1.4-1.4c-0.4,0-0.8,0.2-0.8,0.3
	c-0.3,0.2-0.5,0.5-0.5,0.7c0,0,0,0,0,0.1H9c-1.2,0-2.2,0.9-2.3,2.1h0v3.5c-0.8,0-1.6,0-2.4,0C2.5,7.9,1,9.5,1,11.3s1.5,3.3,3.3,3.3
	c1.8,0,3.3-1.5,3.3-3.3V9.8H6.8v1.5c0,1.3-1.1,2.4-2.4,2.4c-1.3,0-2.4-1.1-2.4-2.4S3,8.9,4.3,8.9c2.6,0,5.1,0,7.7,0
	c0.2,0.6,0.7,1.1,1.4,1.1c0.8,0,1.4-0.6,1.4-1.4C14.9,7.7,14.2,7,13.4,7z M13.6,2.2c0.4,0,0.6,0.3,0.6,0.6c0,0.4-0.3,0.6-0.6,0.6
	c-0.4,0-0.6-0.3-0.6-0.6C12.9,2.5,13.2,2.2,13.6,2.2z M13.4,9.1c-0.4,0-0.6-0.3-0.6-0.6c0-0.4,0.3-0.6,0.6-0.6
	c0.4,0,0.6,0.3,0.6,0.6C14.1,8.8,13.8,9.1,13.4,9.1z"/>
</svg>
