<?xml version="1.0" encoding="utf-8"?>
<!-- Generator: Adobe Illustrator 23.0.0, SVG Export Plug-In . SVG Version: 6.00 Build 0)  -->
<!DOCTYPE svg PUBLIC "-//W3C//DTD SVG 1.1//EN" "http://www.w3.org/Graphics/SVG/1.1/DTD/svg11.dtd" [
	<!ENTITY ns_extend "http://ns.adobe.com/Extensibility/1.0/">
	<!ENTITY ns_ai "http://ns.adobe.com/AdobeIllustrator/10.0/">
	<!ENTITY ns_graphs "http://ns.adobe.com/Graphs/1.0/">
	<!ENTITY ns_vars "http://ns.adobe.com/Variables/1.0/">
	<!ENTITY ns_imrep "http://ns.adobe.com/ImageReplacement/1.0/">
	<!ENTITY ns_sfw "http://ns.adobe.com/SaveForWeb/1.0/">
	<!ENTITY ns_custom "http://ns.adobe.com/GenericCustomNamespace/1.0/">
	<!ENTITY ns_adobe_xpath "http://ns.adobe.com/XPath/1.0/">
]>
<svg version="1.1" id="레이어_1" xmlns:x="&ns_extend;" xmlns:i="&ns_ai;" xmlns:graph="&ns_graphs;"
	 xmlns="http://www.w3.org/2000/svg" xmlns:xlink="http://www.w3.org/1999/xlink" x="0px" y="0px" viewBox="0 0 16 16"
	 style="enable-background:new 0 0 16 16;" xml:space="preserve">
<style type="text/css">
	.st0{fill:#363636;}
</style>
<metadata>
	<sfw  xmlns="&ns_sfw;">
		<slices></slices>
		<sliceSourceBounds  bottomLeftOrigin="true" height="14" width="14.2" x="0.9" y="1"></sliceSourceBounds>
	</sfw>
</metadata>
<g>
	<path class="st0" d="M8,4.1C5.9,4.1,4.2,5.9,4.2,8c0,2.1,1.8,3.9,3.9,3.9c2.1,0,3.7-1.8,3.7-3.8C11.9,6,10.2,4.1,8,4.1z M8,11
		c-1.6,0-3-1.3-3-3s1.3-3,3-3c1.6,0,3,1.3,3,3S9.7,11,8,11z"/>
	<rect x="5" y="1.1" transform="matrix(0.9397 -0.342 0.342 0.9397 -0.4408 2.0032)" class="st0" width="0.9" height="2.3"/>
	<rect x="9.1" y="1.8" transform="matrix(0.342 -0.9397 0.9397 0.342 4.6611 11.1383)" class="st0" width="2.3" height="0.9"/>
	<rect x="4.6" y="13.3" transform="matrix(0.342 -0.9397 0.9397 0.342 -9.0817 14.4622)" class="st0" width="2.3" height="0.9"/>
	<rect x="10.2" y="12.6" transform="matrix(0.9397 -0.342 0.342 0.9397 -4.0554 4.4658)" class="st0" width="0.9" height="2.3"/>
	<rect x="13.4" y="9.1" transform="matrix(0.342 -0.9397 0.9397 0.342 -0.4762 19.7379)" class="st0" width="0.9" height="2.3"/>
	<rect x="12.7" y="5" transform="matrix(0.9397 -0.342 0.342 0.9397 -1.0248 5.0672)" class="st0" width="2.3" height="0.9"/>
	<rect x="1" y="10.1" transform="matrix(0.9397 -0.342 0.342 0.9397 -3.4806 1.3747)" class="st0" width="2.3" height="0.9"/>
	<rect x="1.7" y="4.6" transform="matrix(0.342 -0.9397 0.9397 0.342 -3.9741 5.8454)" class="st0" width="0.9" height="2.3"/>
</g>
</svg>
