<?xml version="1.0" encoding="utf-8"?>
<!-- Generator: Adobe Illustrator 23.0.0, SVG Export Plug-In . SVG Version: 6.00 Build 0)  -->
<!DOCTYPE svg PUBLIC "-//W3C//DTD SVG 1.1//EN" "http://www.w3.org/Graphics/SVG/1.1/DTD/svg11.dtd" [
	<!ENTITY ns_extend "http://ns.adobe.com/Extensibility/1.0/">
	<!ENTITY ns_ai "http://ns.adobe.com/AdobeIllustrator/10.0/">
	<!ENTITY ns_graphs "http://ns.adobe.com/Graphs/1.0/">
	<!ENTITY ns_vars "http://ns.adobe.com/Variables/1.0/">
	<!ENTITY ns_imrep "http://ns.adobe.com/ImageReplacement/1.0/">
	<!ENTITY ns_sfw "http://ns.adobe.com/SaveForWeb/1.0/">
	<!ENTITY ns_custom "http://ns.adobe.com/GenericCustomNamespace/1.0/">
	<!ENTITY ns_adobe_xpath "http://ns.adobe.com/XPath/1.0/">
]>
<svg version="1.1" id="레이어_1" xmlns:x="&ns_extend;" xmlns:i="&ns_ai;" xmlns:graph="&ns_graphs;"
	 xmlns="http://www.w3.org/2000/svg" xmlns:xlink="http://www.w3.org/1999/xlink" x="0px" y="0px" viewBox="0 0 16 16"
	 style="enable-background:new 0 0 16 16;" xml:space="preserve">
<style type="text/css">
	.st0{fill:#363636;}
</style>
<metadata>
	<sfw  xmlns="&ns_sfw;">
		<slices></slices>
		<sliceSourceBounds  bottomLeftOrigin="true" height="12.4" width="14" x="1" y="-14.2"></sliceSourceBounds>
	</sfw>
</metadata>
<rect x="1" y="7.5" class="st0" width="10.3" height="1"/>
<path class="st0" d="M8.1,1.8c-0.9,0-1.6,0.7-1.7,0.8C6.7,2.8,6.9,3,7.1,3.3c0-0.1,0.4-0.5,1-0.5c0.6,0,1.2,0.5,1.2,1.2
	c0,0.7-0.5,1.2-1.2,1.2c-2.4,0-4.8,0-7.1,0v1h7.1c1.2,0,2.2-1,2.2-2.2C10.3,2.7,9.2,1.8,8.1,1.8z"/>
<path class="st0" d="M12.8,14.2c-0.9,0-1.5-0.5-1.6-0.7c0.2-0.3,0.4-0.5,0.6-0.8c0,0.1,0.4,0.5,1,0.5c0.6,0,1.2-0.5,1.2-1.2
	c0-0.7-0.5-1.2-1.2-1.2c-2.4,0-4.8,0-7.1,0v-1h7.1c1.2,0,2.2,1,2.2,2.2C15,13.3,13.9,14.2,12.8,14.2z"/>
</svg>
