<?xml version="1.0" encoding="utf-8"?>
<!-- Generator: Adobe Illustrator 23.0.0, SVG Export Plug-In . SVG Version: 6.00 Build 0)  -->
<!DOCTYPE svg PUBLIC "-//W3C//DTD SVG 1.1//EN" "http://www.w3.org/Graphics/SVG/1.1/DTD/svg11.dtd" [
	<!ENTITY ns_extend "http://ns.adobe.com/Extensibility/1.0/">
	<!ENTITY ns_ai "http://ns.adobe.com/AdobeIllustrator/10.0/">
	<!ENTITY ns_graphs "http://ns.adobe.com/Graphs/1.0/">
	<!ENTITY ns_vars "http://ns.adobe.com/Variables/1.0/">
	<!ENTITY ns_imrep "http://ns.adobe.com/ImageReplacement/1.0/">
	<!ENTITY ns_sfw "http://ns.adobe.com/SaveForWeb/1.0/">
	<!ENTITY ns_custom "http://ns.adobe.com/GenericCustomNamespace/1.0/">
	<!ENTITY ns_adobe_xpath "http://ns.adobe.com/XPath/1.0/">
]>
<svg version="1.1" id="레이어_1" xmlns:x="&ns_extend;" xmlns:i="&ns_ai;" xmlns:graph="&ns_graphs;"
	 xmlns="http://www.w3.org/2000/svg" xmlns:xlink="http://www.w3.org/1999/xlink" x="0px" y="0px" viewBox="0 0 16 16"
	 style="enable-background:new 0 0 16 16;" xml:space="preserve">
<style type="text/css">
	.st0{fill:#363636;}
</style>
<metadata>
	<sfw  xmlns="&ns_sfw;">
		<slices></slices>
		<sliceSourceBounds  bottomLeftOrigin="true" height="12.5" width="15.1" x="0.8" y="1"></sliceSourceBounds>
	</sfw>
</metadata>
<path class="st0" d="M6.3,9c-1.5,0-2.4,1.2-2.5,1.4c0.2,0.2,0.4,0.3,0.6,0.5c0.1-0.1,0.8-1.1,1.9-1.1c1.1,0,2.3,1,2.3,2.3
	c0,1.2-1,2.2-2.3,2.3c-1.2,0-2.3,0-3.5,0c-0.7,0-1.3-0.6-1.3-1.3c0-0.7,0.6-1.3,1.3-1.3c0.8,0,1.3,0.8,1.3,1.3c0,0,0,0,0,0
	c0.2,0,0.5,0.1,0.7,0.1c0.1-1.2-0.9-2.2-2-2.2c-1.1,0-2,1-2,2.1c0,0.9,0.7,1.7,1.6,2c1.3,0,2.6,0,3.9,0c1.6,0,3-1.4,3-3
	C9.3,10.3,7.8,9,6.3,9z"/>
<path class="st0" d="M15.3,9.8c-1.3,0.2-3.6,0.3-5.7-1.3C7.4,6.8,7,4.3,6.9,2.9c0-0.4-0.5-0.6-0.8-0.3C5.3,3.6,4,5.3,4.2,7.7
	c0,0.1,0,0.2,0,0.2c0.3-0.1,0.6-0.2,0.9-0.2c0,0,0,0,0,0c0-0.1,0-0.2,0-0.4C5,5.4,6.1,4,6.3,3.7c0,0.4,0.1,3.4,2.6,5.4
	c2.5,2,5.3,1.6,5.7,1.5c-0.3,0.3-1.5,1.7-3.6,1.9c-0.3,0-0.6,0-0.9,0c0,0,0,0,0,0c0,0.3-0.1,0.6-0.1,0.9c0.4,0,0.9,0,1.4-0.1
	c2.3-0.4,3.6-1.9,4.3-2.9C16,10.2,15.7,9.8,15.3,9.8z"/>
</svg>
