<?xml version="1.0" encoding="UTF-8" standalone="no"?>
<svg
   width="24"
   height="24"
   version="1.1"
   id="svg9"
   sodipodi:docname="audio-recorder-on.svg"
   inkscape:version="1.2.1 (9c6d41e410, 2022-07-14)"
   xmlns:inkscape="http://www.inkscape.org/namespaces/inkscape"
   xmlns:sodipodi="http://sodipodi.sourceforge.net/DTD/sodipodi-0.dtd"
   xmlns="http://www.w3.org/2000/svg"
   xmlns:svg="http://www.w3.org/2000/svg">
  <sodipodi:namedview
     id="namedview11"
     pagecolor="#ffffff"
     bordercolor="#000000"
     borderopacity="0.25"
     inkscape:showpageshadow="2"
     inkscape:pageopacity="0.0"
     inkscape:pagecheckerboard="0"
     inkscape:deskcolor="#d1d1d1"
     showgrid="false"
     inkscape:zoom="42.791667"
     inkscape:cx="11.988315"
     inkscape:cy="12.023369"
     inkscape:current-layer="svg9" />
  <defs
     id="defs3">
    <style
       id="current-color-scheme"
       type="text/css">
   .ColorScheme-Text { color:#dfdfdf; } .ColorScheme-Highlight { color:#4285f4; } .ColorScheme-NeutralText { color:#ff9800; } .ColorScheme-PositiveText { color:#4caf50; } .ColorScheme-NegativeText { color:#f44336; }
  </style>
  </defs>
  <g
     id="g850"
     style="fill:#4285f4;fill-opacity:1">
    <path
       style="fill:#4285f4;fill-opacity:1"
       class="ColorScheme-PositiveText"
       d="m 7.0000051,11 a 1,1 0 0 0 -1,1 1,1 0 0 0 0.00586,0.111328 c 0.063706,2.435063 2.1932095,4.425359 4.9941409,4.814453 V 18 H 8.0000051 a 1,1 0 0 0 -1,1 1,1 0 0 0 1,1 h 8.0000009 a 1,1 0 0 0 0.999999,-1 1,1 0 0 0 -0.999999,-1 h -3 v -1.074219 c 2.804683,-0.389615 4.935899,-2.386668 4.99414,-4.826172 A 1,1 0 0 0 18.000005,12 a 1,1 0 0 0 -1,-1 1,1 0 0 0 -0.999999,1 h -0.01563 c -0.08353,2.067786 -1.410965,3 -3.984369,3 -2.5735991,0 -3.9008543,-0.932214 -3.9843759,-3 h -0.015625 a 1,1 0 0 0 -1.000001,-1 z"
       id="path5" />
    <rect
       style="fill:#4285f4;fill-opacity:1"
       class="ColorScheme-PositiveText"
       width="10"
       height="8"
       x="-14"
       y="-16"
       rx="4.167"
       ry="4"
       transform="matrix(0,-1,-1,0,0,0)"
       id="rect7" />
  </g>
</svg>
