<?xml version="1.0" encoding="UTF-8" standalone="no"?>
<!-- Created with Inkscape (http://www.inkscape.org/) -->

<svg
   id="svg7384"
   height="24"
   width="24"
   version="1.1"
   sodipodi:docname="battery-caution.svg"
   inkscape:version="1.2.1 (9c6d41e410, 2022-07-14)"
   xml:space="preserve"
   xmlns:inkscape="http://www.inkscape.org/namespaces/inkscape"
   xmlns:sodipodi="http://sodipodi.sourceforge.net/DTD/sodipodi-0.dtd"
   xmlns="http://www.w3.org/2000/svg"
   xmlns:svg="http://www.w3.org/2000/svg"
   xmlns:rdf="http://www.w3.org/1999/02/22-rdf-syntax-ns#"
   xmlns:cc="http://creativecommons.org/ns#"
   xmlns:dc="http://purl.org/dc/elements/1.1/"><defs
     id="defs12" /><sodipodi:namedview
     pagecolor="#ffffff"
     bordercolor="#666666"
     borderopacity="1"
     objecttolerance="10"
     gridtolerance="10"
     guidetolerance="10"
     inkscape:pageopacity="0"
     inkscape:pageshadow="2"
     inkscape:window-width="1366"
     inkscape:window-height="711"
     id="namedview10"
     showgrid="false"
     inkscape:zoom="20.85965"
     inkscape:cx="5.6089148"
     inkscape:cy="14.118166"
     inkscape:window-x="0"
     inkscape:window-y="25"
     inkscape:window-maximized="1"
     inkscape:current-layer="layer9"
     inkscape:showpageshadow="2"
     inkscape:pagecheckerboard="0"
     inkscape:deskcolor="#d1d1d1" /><metadata
     id="metadata90"><rdf:RDF><cc:Work
         rdf:about=""><dc:format>image/svg+xml</dc:format><dc:type
           rdf:resource="http://purl.org/dc/dcmitype/StillImage" /><dc:title>Gnome Symbolic Icon Theme</dc:title></cc:Work></rdf:RDF></metadata><title
     id="title9167">Gnome Symbolic Icon Theme</title><g
     id="layer9"
     transform="rotate(90,133.0003,99.998825)"><path
       id="path313"
       style="fill:#dfdfdf;fill-opacity:1;stroke-width:1.15789"
       d="m 38.054107,228.52544 c 0,1.91516 1.558528,3.47368 3.473685,3.47368 h 6.947367 c 1.915157,0 3.473685,-1.55852 3.473685,-3.47368 V 215.7886 c 0,-1.91516 -1.558528,-3.47369 -3.473685,-3.47369 0,-1.27831 -1.037475,-2.31579 -2.315789,-2.31579 h -2.315788 c -1.278316,0 -2.31579,1.03748 -2.31579,2.31579 -1.915157,0 -3.473685,1.55853 -3.473685,3.47369 z m 2.315789,0 V 215.7886 c 0,-0.638 0.518736,-1.1579 1.157896,-1.1579 h 6.947367 c 0.639158,0 1.157896,0.5199 1.157896,1.1579 v 12.73684 c 0,0.638 -0.518738,1.15789 -1.157896,1.15789 h -6.947367 c -0.63916,0 -1.157896,-0.51989 -1.157896,-1.15789 z" /></g></svg>
