<?xml version="1.0" encoding="UTF-8" standalone="no"?>
<svg
   width="24"
   height="24"
   version="1.1"
   id="svg7"
   sodipodi:docname="camera-on.svg"
   inkscape:version="1.2.1 (9c6d41e410, 2022-07-14)"
   xmlns:inkscape="http://www.inkscape.org/namespaces/inkscape"
   xmlns:sodipodi="http://sodipodi.sourceforge.net/DTD/sodipodi-0.dtd"
   xmlns="http://www.w3.org/2000/svg"
   xmlns:svg="http://www.w3.org/2000/svg">
  <sodipodi:namedview
     id="namedview9"
     pagecolor="#ffffff"
     bordercolor="#000000"
     borderopacity="0.25"
     inkscape:showpageshadow="2"
     inkscape:pageopacity="0.0"
     inkscape:pagecheckerboard="0"
     inkscape:deskcolor="#d1d1d1"
     showgrid="false"
     inkscape:zoom="42.791667"
     inkscape:cx="11.988315"
     inkscape:cy="12.093476"
     inkscape:current-layer="svg7" />
  <defs
     id="defs3">
    <style
       id="current-color-scheme"
       type="text/css">
   .ColorScheme-Text { color:#dfdfdf; } .ColorScheme-Highlight { color:#4285f4; } .ColorScheme-NeutralText { color:#ff9800; } .ColorScheme-PositiveText { color:#4caf50; } .ColorScheme-NegativeText { color:#f44336; }
  </style>
  </defs>
  <path
     style="fill:#4285f4;fill-opacity:1;stroke-width:1"
     class="ColorScheme-PositiveText"
     d="m 11.99975,5 c -3.3137003,0 -6.0000002,2.6863 -6.0000002,6 0,2.087 1.0708,3.9251 2.6875002,5 H 7.9997498 c -2,0 -2,2 -2,2 v 1 H 17.999749 v -1 c 0,0 0,-2 -2,-2 H 15.31225 c 1.617,-1.075 2.688,-2.913 2.688,-5 -1e-6,-3.3137 -2.686001,-6 -6.000001,-6 z m 0,4.0039002 a 2,2 0 0 1 1.999999,1.9999998 2,2 0 0 1 -1.999999,2 2,2 0 0 1 -1.9999999,-2 2,2 0 0 1 1.9999999,-1.9999998 z"
     id="path5" />
</svg>
