<?xml version="1.0" encoding="UTF-8" standalone="no"?>
<svg
   width="24"
   height="24"
   version="1.1"
   id="svg7"
   sodipodi:docname="jdownloader-indicator.svg"
   inkscape:version="1.2.1 (9c6d41e410, 2022-07-14)"
   xmlns:inkscape="http://www.inkscape.org/namespaces/inkscape"
   xmlns:sodipodi="http://sodipodi.sourceforge.net/DTD/sodipodi-0.dtd"
   xmlns="http://www.w3.org/2000/svg"
   xmlns:svg="http://www.w3.org/2000/svg">
  <sodipodi:namedview
     id="namedview9"
     pagecolor="#ffffff"
     bordercolor="#000000"
     borderopacity="0.25"
     inkscape:showpageshadow="2"
     inkscape:pageopacity="0.0"
     inkscape:pagecheckerboard="0"
     inkscape:deskcolor="#d1d1d1"
     showgrid="false"
     inkscape:zoom="42.791667"
     inkscape:cx="11.988315"
     inkscape:cy="12.023369"
     inkscape:current-layer="svg7" />
  <defs
     id="defs3">
    <style
       id="current-color-scheme"
       type="text/css">
   .ColorScheme-Text { color:#dfdfdf; } .ColorScheme-Highlight { color:#4285f4; } .ColorScheme-NeutralText { color:#ff9800; } .ColorScheme-PositiveText { color:#4caf50; } .ColorScheme-NegativeText { color:#f44336; }
  </style>
  </defs>
  <g
     id="g137"
     transform="matrix(1.1428571,0,0,1.1428571,2.8571432,2.8571432)">
    <g
       id="g241"
       transform="matrix(0.99999857,0,0,0.99999857,1.139e-5,1.144e-5)"
       style="fill:#dfdfdf;fill-opacity:1">
      <path
         d="m 8,293.76664 c -3.8779999,0 -6.9999999,3.12201 -6.9999999,6.99999 0,3.87802 3.122,7.00003 7,7.00003 C 11.878,307.76666 15,304.64465 15,300.76663 c 0,-3.87798 -3.122,-6.99999 -7,-6.99999 z m 0,3 c 0.553999,0 1,0.44603 1,0.99999 v 3 h 1 a 1.0001,1.0001 0 0 1 0.707031,1.70706 l -1.9999999,1.99998 a 1.0001,1.0001 0 0 1 -1.4140621,0 l -2,-1.99998 a 1.0001,1.0001 0 0 1 0.7070311,-1.70707 h 1 v -3 c 0,-0.55396 0.446001,-0.99999 0.9999999,-0.99998 z"
         fill="currentColor"
         transform="translate(0,-292.76665)"
         style="color:#122036;fill:#dfdfdf;fill-opacity:1;stroke:none"
         class="ColorScheme-Text"
         id="path4" />
    </g>
  </g>
</svg>
