<?xml version="1.0" encoding="UTF-8" standalone="no"?>
<svg
   width="24"
   height="24"
   version="1.1"
   id="svg13"
   sodipodi:docname="keyboard-battery-low.svg"
   xml:space="preserve"
   inkscape:version="1.2.1 (9c6d41e410, 2022-07-14)"
   xmlns:inkscape="http://www.inkscape.org/namespaces/inkscape"
   xmlns:sodipodi="http://sodipodi.sourceforge.net/DTD/sodipodi-0.dtd"
   xmlns="http://www.w3.org/2000/svg"
   xmlns:svg="http://www.w3.org/2000/svg"><sodipodi:namedview
     id="namedview15"
     pagecolor="#ffffff"
     bordercolor="#000000"
     borderopacity="0.25"
     inkscape:showpageshadow="2"
     inkscape:pageopacity="0.0"
     inkscape:pagecheckerboard="0"
     inkscape:deskcolor="#d1d1d1"
     showgrid="false"
     inkscape:zoom="30.258278"
     inkscape:cx="11.137448"
     inkscape:cy="12.971657"
     inkscape:current-layer="svg13" /><defs
     id="defs3"><style
       id="current-color-scheme"
       type="text/css">
   .ColorScheme-Text { color:#dfdfdf; } .ColorScheme-Highlight { color:#4285f4; } .ColorScheme-NeutralText { color:#ff9800; } .ColorScheme-PositiveText { color:#4caf50; } .ColorScheme-NegativeText { color:#f44336; }
  </style></defs><path
     fill-rule="evenodd"
     style="fill:#ff9800;fill-opacity:1"
     class="ColorScheme-Text"
     d="m 14,4.5 c -0.554,0 -1,0.446 -1,1 v 13 c 0,0.554 0.446,1 1,1 h 5 c 0.554,0 1,-0.446 1,-1 v -13 c 0,-0.554 -0.446,-1 -1,-1 z m 0,3 h 1 v 1 h -1 z m 2,0 h 1 v 1 h -1 z m 2,1 h 1 v 7 h -1 z m -4,1 h 1 v 1 h -1 z m 2,0 h 1 v 1 h -1 z m -2,2 h 1 v 1 h -1 z m 2,0 h 1 v 1 h -1 z m -2,2 h 1 v 1 h -1 z m 2,0 h 1 v 1 h -1 z m -2,2 h 1 v 1 h -1 z m 2,0 h 1 v 1 h -1 z"
     id="path9" /><path
     id="path256"
     style="fill:#ff9800;fill-opacity:1;stroke-width:0.769483"
     d="m 3.0000008,17.131578 c 0,1.305792 1.009501,2.368418 2.2499999,2.368418 H 9.750001 c 1.240498,0 2.25,-1.062626 2.25,-2.368418 V 8.4473657 c 0,-1.3057921 -1.009502,-2.3684244 -2.25,-2.3684244 0,-0.871577 -0.6720015,-1.5789454 -1.4999999,-1.5789454 H 6.7500006 c -0.827999,0 -1.4999999,0.7073684 -1.4999999,1.5789454 -1.2404989,0 -2.2499999,1.0626323 -2.2499999,2.3684244 z m 1.4999999,0 V 8.4473657 c 0,-0.4350002 0.3359999,-0.7894791 0.75,-0.7894791 H 9.750001 c 0.413999,0 0.75,0.3544789 0.75,0.7894791 v 8.6842123 c 0,0.435 -0.336001,0.789473 -0.75,0.789473 H 5.2500007 c -0.4140001,0 -0.75,-0.354473 -0.75,-0.789473 z" /><path
     d="m 9.7500998,16.34236 c 0,0.435792 -0.3352497,0.78948 -0.7499999,0.78948 H 6.0000995 c -0.4147496,0 -0.75,-0.353688 -0.75,-0.78948 0,-0.435785 0.3352504,-0.789472 0.75,-0.789472 h 3.0000004 c 0.4147502,0 0.7499999,0.353687 0.7499999,0.789472 z"
     id="path250"
     style="fill:#ff9800;fill-opacity:1;stroke-width:0.769483" /></svg>
