<?xml version="1.0" encoding="UTF-8" standalone="no"?>
<svg
   width="24"
   height="24"
   version="1.1"
   id="svg11"
   sodipodi:docname="keyboard-battery-caution.svg"
   xml:space="preserve"
   inkscape:version="1.2.1 (9c6d41e410, 2022-07-14)"
   xmlns:inkscape="http://www.inkscape.org/namespaces/inkscape"
   xmlns:sodipodi="http://sodipodi.sourceforge.net/DTD/sodipodi-0.dtd"
   xmlns="http://www.w3.org/2000/svg"
   xmlns:svg="http://www.w3.org/2000/svg"><sodipodi:namedview
     id="namedview13"
     pagecolor="#ffffff"
     bordercolor="#000000"
     borderopacity="0.25"
     inkscape:showpageshadow="2"
     inkscape:pageopacity="0.0"
     inkscape:pagecheckerboard="0"
     inkscape:deskcolor="#d1d1d1"
     showgrid="false"
     inkscape:zoom="30.258278"
     inkscape:cx="3.8006128"
     inkscape:cy="8.9397024"
     inkscape:current-layer="svg11" /><defs
     id="defs3"><style
       id="current-color-scheme"
       type="text/css">
   .ColorScheme-Text { color:#dfdfdf; } .ColorScheme-Highlight { color:#4285f4; } .ColorScheme-NeutralText { color:#ff9800; } .ColorScheme-PositiveText { color:#4caf50; } .ColorScheme-NegativeText { color:#f44336; }
  </style></defs><path
     style="fill:#f44336;fill-opacity:1"
     class="ColorScheme-Text"
     d="m 14,4.5 c -0.554,0 -1,0.446 -1,1 v 13 c 0,0.554 0.446,1 1,1 h 5 c 0.554,0 1,-0.446 1,-1 v -13 c 0,-0.554 -0.446,-1 -1,-1 z m 0,3 h 1 v 1 h -1 z m 2,0 h 1 v 1 h -1 z m 2,1 h 1 v 7 h -1 z m -4,1 h 1 v 1 h -1 z m 2,0 h 1 v 1 h -1 z m -2,2 h 1 v 1 h -1 z m 2,0 h 1 v 1 h -1 z m -2,2 h 1 v 1 h -1 z m 2,0 h 1 v 1 h -1 z m -2,2 h 1 v 1 h -1 z m 2,0 h 1 v 1 h -1 z"
     id="path9" /><path
     id="path313"
     style="fill:#f44336;fill-opacity:1;stroke-width:0.76948;opacity:1"
     d="M 3,17.131582 C 3,18.437373 4.0095011,19.5 5.2500006,19.5 H 9.75 C 10.9905,19.5 12,18.437373 12,17.131582 V 8.447373 C 12,7.141582 10.9905,6.0789479 9.75,6.0789479 9.75,5.2073726 9.0779987,4.4999999 8.2500001,4.4999999 h -1.499999 c -0.8280003,0 -1.5000005,0.7073727 -1.5000005,1.578948 C 4.0095011,6.0789479 3,7.141582 3,8.447373 Z m 1.4999997,0 V 8.447373 c 0,-0.435 0.3359995,-0.7894773 0.7500009,-0.7894773 H 9.75 c 0.414,0 0.75,0.3544773 0.75,0.7894773 v 8.684209 c 0,0.435 -0.336,0.78947 -0.75,0.78947 H 5.2500006 c -0.4140014,0 -0.7500009,-0.35447 -0.7500009,-0.78947 z" /></svg>
