<?xml version="1.0" encoding="UTF-8" standalone="no"?>
<svg
   width="24"
   height="24"
   version="1.1"
   id="svg13"
   sodipodi:docname="microphone-sensitivity-muted-symbolic.svg"
   inkscape:version="1.2.1 (9c6d41e410, 2022-07-14)"
   xmlns:inkscape="http://www.inkscape.org/namespaces/inkscape"
   xmlns:sodipodi="http://sodipodi.sourceforge.net/DTD/sodipodi-0.dtd"
   xmlns="http://www.w3.org/2000/svg"
   xmlns:svg="http://www.w3.org/2000/svg">
  <sodipodi:namedview
     id="namedview15"
     pagecolor="#ffffff"
     bordercolor="#000000"
     borderopacity="0.25"
     inkscape:showpageshadow="2"
     inkscape:pageopacity="0.0"
     inkscape:pagecheckerboard="0"
     inkscape:deskcolor="#d1d1d1"
     showgrid="false"
     inkscape:zoom="42.791667"
     inkscape:cx="11.988315"
     inkscape:cy="10.831548"
     inkscape:current-layer="svg13" />
  <defs
     id="defs3">
    <style
       id="current-color-scheme"
       type="text/css">
   .ColorScheme-Text { color:#ffffff; } .ColorScheme-Highlight { color:#4285f4; }
  </style>
  </defs>
  <g
     transform="translate(-544.99951,403.01001)"
     id="g11">
    <g
       transform="translate(546,-402.01)"
       id="g9">
      <g
         transform="translate(-225,-647.36)"
         id="g7">
        <path
           style="fill:currentColor"
           class="ColorScheme-Text"
           d="M 11,3 C 9.754,3 8.6889,3.7515 8.2344,4.8281 V 4.83005 L 14,10.59405 v -4.594 c 0,-1.6621 -1.338,-3 -3,-3 z M 5.3438,3.9375 3.9375,5.3438 8,9.4062 V 11 c 0,1.6621 1.3379,3 3,3 0.46584,0 0.90068,-0.11309 1.291,-0.30273 l 0.72852,0.72852 c -0.592,0.352 -1.271,0.574 -2.02,0.574 -2.2334,0 -4,-1.767 -4,-4 v -1 h -2 v 1 c 0,2.9695 2.1624,5.4322 5,5.9062 v 2.094 h 2 v -2.0938 c 0.9102,-0.15207 1.7376,-0.52772 2.459,-1.041 l 2.197,2.197 1.406,-1.406 -12.718,-12.718 z M 15,10 v 1 c 0,0.18587 -0.02903,0.36236 -0.05273,0.54102 l 1.6367,1.6367 c 0.264,-0.676 0.416,-1.409 0.416,-2.178 v -1 h -2 z"
           transform="translate(225,647.36)"
           id="path5" />
      </g>
    </g>
  </g>
</svg>
