<?xml version="1.0" encoding="UTF-8" standalone="no"?>
<svg
   width="24"
   height="24"
   version="1.1"
   id="svg9"
   sodipodi:docname="mintupdate-checking.svg"
   inkscape:version="1.2.1 (9c6d41e410, 2022-07-14)"
   xmlns:inkscape="http://www.inkscape.org/namespaces/inkscape"
   xmlns:sodipodi="http://sodipodi.sourceforge.net/DTD/sodipodi-0.dtd"
   xmlns="http://www.w3.org/2000/svg"
   xmlns:svg="http://www.w3.org/2000/svg">
  <sodipodi:namedview
     id="namedview11"
     pagecolor="#ffffff"
     bordercolor="#000000"
     borderopacity="0.25"
     inkscape:showpageshadow="2"
     inkscape:pageopacity="0.0"
     inkscape:pagecheckerboard="0"
     inkscape:deskcolor="#d1d1d1"
     showgrid="false"
     inkscape:zoom="42.791667"
     inkscape:cx="11.988315"
     inkscape:cy="12.140214"
     inkscape:current-layer="svg9" />
  <defs
     id="defs3">
    <style
       id="current-color-scheme"
       type="text/css">
   .ColorScheme-Text { color:#dfdfdf; } .ColorScheme-Highlight { color:#4285f4; } .ColorScheme-NeutralText { color:#ff9800; } .ColorScheme-PositiveText { color:#4caf50; } .ColorScheme-NegativeText { color:#f44336; }
  </style>
  </defs>
  <g
     id="g208"
     transform="matrix(1.375,0,0,1.375,0.99999987,1)">
    <path
       id="path2"
       style="fill:#dfdfdf;fill-opacity:1"
       d="M 8,0 C 7.7441413,0 7.4882809,0.09765664 7.2929688,0.29296875 L 5.5859375,2 H 3 C 2.4492202,2 2,2.4492202 2,3 V 5.5859375 L 0.29296875,7.2929688 c -0.39062442,0.3906242 -0.39062442,1.0234382 0,1.4140624 L 2,10.414062 V 13 c 0,0.550779 0.4492202,1 1,1 h 2.5859375 l 1.7070313,1.707031 C 7.4882804,15.90234 7.7421886,16 8,16 8.2578114,16 8.5117196,15.902344 8.7070312,15.707031 L 10.414062,14 H 13 c 0.550779,0 1,-0.449221 1,-1 v -2.585938 l 1.707031,-1.7070308 c 0.390625,-0.3906242 0.390625,-1.0234382 0,-1.4140624 L 14,5.5859375 V 3 C 14,2.4492202 13.550779,2 13,2 H 10.414062 L 8.7070312,0.29296875 C 8.5117191,0.09765664 8.2558587,0 8,0 Z m 2.855469,4.9375 c 0.137093,0.056362 0.224361,0.2358637 0.226562,0.5273438 V 8.0996094 H 8.4472656 c -0.5823312,0 -0.7211307,-0.3380919 -0.3085937,-0.75 L 8.8808594,6.6035156 C 8.5915804,6.4129688 8.2538141,6.3105469 7.9003906,6.3105469 c -0.4773103,0 -0.9272943,0.1876888 -1.265625,0.5253906 -0.3377018,0.3370729 -0.5234375,0.7857327 -0.5234375,1.2636719 0,0.478568 0.1857357,0.9279232 0.5234375,1.265625 0.3383307,0.3383306 0.7883147,0.5234375 1.265625,0.5234375 0.4773104,0 0.9272944,-0.1857357 1.265625,-0.5234375 C 9.2565725,9.2727909 9.3377035,9.1726848 9.40625,9.0664062 9.5842195,8.7897046 9.9537671,8.7087493 10.230469,8.8867188 c 0.27733,0.1773405 0.357657,0.5462593 0.179687,0.8242187 -0.113825,0.1767117 -0.248204,0.3432785 -0.40039,0.4960935 -0.5634655,0.564094 -1.3132293,0.875 -2.1093754,0.875 -0.7961461,0 -1.5439567,-0.311535 -2.1074218,-0.875 -0.5634652,-0.5622072 -0.875,-1.3100178 -0.875,-2.1074216 0,-0.7961461 0.3109059,-1.5464722 0.875,-2.1074219 0.5628362,-0.5634652 1.3112757,-0.875 2.1074218,-0.875 0.6722592,0 1.3107002,0.2240487 1.8320313,0.6328125 L 10.324219,5.1542969 C 10.530173,4.9480284 10.718376,4.8811378 10.855469,4.9375 Z" />
  </g>
</svg>
