<?xml version="1.0" encoding="UTF-8" standalone="no"?>
<svg
   width="24"
   height="24"
   version="1.1"
   id="svg13"
   sodipodi:docname="mouse-battery-good.svg"
   inkscape:version="1.2.1 (9c6d41e410, 2022-07-14)"
   xmlns:inkscape="http://www.inkscape.org/namespaces/inkscape"
   xmlns:sodipodi="http://sodipodi.sourceforge.net/DTD/sodipodi-0.dtd"
   xmlns="http://www.w3.org/2000/svg"
   xmlns:svg="http://www.w3.org/2000/svg">
  <sodipodi:namedview
     id="namedview15"
     pagecolor="#ffffff"
     bordercolor="#000000"
     borderopacity="0.25"
     inkscape:showpageshadow="2"
     inkscape:pageopacity="0.0"
     inkscape:pagecheckerboard="0"
     inkscape:deskcolor="#d1d1d1"
     showgrid="false"
     inkscape:zoom="15.129139"
     inkscape:cx="30.338805"
     inkscape:cy="22.307945"
     inkscape:current-layer="svg13" />
  <defs
     id="defs3">
    <style
       id="current-color-scheme"
       type="text/css">
   .ColorScheme-Text { color:#dfdfdf; } .ColorScheme-Highlight { color:#4285f4; } .ColorScheme-NeutralText { color:#ff9800; } .ColorScheme-PositiveText { color:#4caf50; } .ColorScheme-NegativeText { color:#f44336; }
  </style>
  </defs>
  <g
     id="g142"
     transform="matrix(1.3333333,0,0,1.3333333,1.3333336,1.3333335)">
    <path
       style="color:#dfdfdf;fill:currentColor"
       class="ColorScheme-Text"
       d="m 11.5,2.0000005 c -1.762728,0 -3,1.5069991 -3,3.999999 h 3 z m 1,0 v 3.999999 h 3 c 0,-2.4929999 -1.237272,-3.999999 -3,-3.999999 z m -4,4.999999 V 9.5000001 C 8.5,11.993 9.919091,14 11.681818,14 h 0.636364 C 14.080909,14 15.5,11.993 15.5,9.5000001 V 6.9999995 h -3.181818 z"
       id="path7" />
    <g
       id="g306"
       transform="matrix(0.84999996,0,0,0.84999996,0.50000016,1.1999985)">
      <g
         id="g595"
         transform="matrix(0.57071343,0,0,0.60075122,-21.57581,-139.89442)">
        <path
           id="path256"
           style="fill:#dfdfdf;fill-opacity:1;stroke-width:1.23684"
           d="m 37.80498,254.22195 c 0,2.04574 1.664791,3.71052 3.710526,3.71052 h 7.421053 c 2.045734,0 3.710526,-1.66478 3.710526,-3.71052 v -13.60526 c 0,-2.04574 -1.664792,-3.71053 -3.710526,-3.71053 0,-1.36547 -1.108213,-2.47368 -2.473684,-2.47368 H 43.98919 c -1.365472,0 -2.473684,1.10821 -2.473684,2.47368 -2.045735,0 -3.710526,1.66479 -3.710526,3.71053 z m 2.473684,0 v -13.60526 c 0,-0.6815 0.554105,-1.23685 1.236842,-1.23685 h 7.421053 c 0.682735,0 1.236842,0.55535 1.236842,1.23685 v 13.60526 c 0,0.6815 -0.554107,1.23684 -1.236842,1.23684 h -7.421053 c -0.682737,0 -1.236842,-0.55534 -1.236842,-1.23684 z" />
        <path
           d="m 48.936722,245.56446 c 0,0.68274 -0.552868,1.23684 -1.236842,1.23684 h -4.947369 c -0.683973,0 -1.236842,-0.5541 -1.236842,-1.23684 0,-0.68273 0.552869,-1.23684 1.236842,-1.23684 h 4.947369 c 0.683974,0 1.236842,0.55411 1.236842,1.23684 z"
           id="path254"
           style="fill:#dfdfdf;fill-opacity:1;stroke-width:1.23684" />
        <path
           d="m 48.936722,252.98551 c 0,0.68274 -0.552868,1.23685 -1.236842,1.23685 h -4.947369 c -0.683973,0 -1.236842,-0.55411 -1.236842,-1.23685 0,-0.68273 0.552869,-1.23684 1.236842,-1.23684 h 4.947369 c 0.683974,0 1.236842,0.55411 1.236842,1.23684 z"
           id="path250"
           style="fill:#dfdfdf;fill-opacity:1;stroke-width:1.23684" />
        <path
           d="m 48.936722,249.27499 c 0,0.68274 -0.552868,1.23684 -1.236842,1.23684 h -4.947369 c -0.683973,0 -1.236842,-0.5541 -1.236842,-1.23684 0,-0.68274 0.552869,-1.23684 1.236842,-1.23684 h 4.947369 c 0.683974,0 1.236842,0.5541 1.236842,1.23684 z"
           id="path239"
           style="fill:#dfdfdf;fill-opacity:1;stroke-width:1.23684" />
      </g>
    </g>
  </g>
</svg>
