<?xml version="1.0" encoding="UTF-8" standalone="no"?>
<svg
   width="24"
   height="24"
   version="1.1"
   id="svg11"
   sodipodi:docname="mouse-battery-full.svg"
   inkscape:version="1.2.1 (9c6d41e410, 2022-07-14)"
   xmlns:inkscape="http://www.inkscape.org/namespaces/inkscape"
   xmlns:sodipodi="http://sodipodi.sourceforge.net/DTD/sodipodi-0.dtd"
   xmlns="http://www.w3.org/2000/svg"
   xmlns:svg="http://www.w3.org/2000/svg">
  <sodipodi:namedview
     id="namedview13"
     pagecolor="#ffffff"
     bordercolor="#000000"
     borderopacity="0.25"
     inkscape:showpageshadow="2"
     inkscape:pageopacity="0.0"
     inkscape:pagecheckerboard="0"
     inkscape:deskcolor="#d1d1d1"
     showgrid="false"
     inkscape:zoom="10.697917"
     inkscape:cx="1.6825706"
     inkscape:cy="16.96592"
     inkscape:current-layer="svg11" />
  <defs
     id="defs3">
    <style
       id="current-color-scheme"
       type="text/css">
   .ColorScheme-Text { color:#dfdfdf; } .ColorScheme-Highlight { color:#4285f4; } .ColorScheme-NeutralText { color:#ff9800; } .ColorScheme-PositiveText { color:#4caf50; } .ColorScheme-NegativeText { color:#f44336; }
  </style>
  </defs>
  <g
     id="g142"
     transform="matrix(1.3333331,0,0,1.3333331,1.3333353,1.3333365)">
    <path
       style="color:#dfdfdf;fill:currentColor"
       class="ColorScheme-Text"
       d="M 11.5,2.0000009 C 9.737272,2.0000009 8.5,3.507 8.5,6 h 3 z m 1,0 V 6 h 3 c 0,-2.493 -1.237272,-3.9999991 -3,-3.9999991 z M 8.5,7 V 9.5000005 C 8.5,11.993 9.919091,14 11.681818,14 h 0.636364 C 14.080909,14 15.5,11.993 15.5,9.5000005 V 7 h -3.181818 z"
       id="path7-3" />
    <g
       id="g734"
       transform="matrix(0.6,0,0,0.63157895,-12.161823,-148.79139)">
      <path
         id="path256"
         style="fill:#dfdfdf;fill-opacity:1"
         d="m 21.103038,254.75303 c 0,1.654 1.346001,3 3,3 h 6 c 1.653998,0 3,-1.346 3,-3 v -11 c 0,-1.654 -1.346002,-3 -3,-3 0,-1.104 -0.896002,-2 -2,-2 h -2 c -1.103999,0 -2,0.896 -2,2 -1.653999,0 -3,1.346 -3,3 z m 2,0 v -11 c 0,-0.551 0.448,-1 1,-1 h 6 c 0.551999,0 1,0.449 1,1 v 11 c 0,0.551 -0.448001,1 -1,1 h -6 c -0.552,0 -1,-0.449 -1,-1 z" />
      <path
         d="m 30.10317,247.75336 c 0,0.552 -0.447,1 -1,1 h -4 c -0.553,0 -1,-0.448 -1,-1 0,-0.552 0.447,-1 1,-1 h 4 c 0.553,0 1,0.448 1,1 z"
         id="path254"
         style="fill:#dfdfdf;fill-opacity:1" />
      <path
         d="m 30.10317,244.75336 c 0,0.552 -0.447,1 -1,1 h -4 c -0.553,0 -1,-0.448 -1,-1 0,-0.552 0.447,-1 1,-1 h 4 c 0.553,0 1,0.448 1,1 z"
         id="path252"
         style="fill:#dfdfdf;fill-opacity:1" />
      <path
         d="m 30.10317,253.75336 c 0,0.552 -0.447,1 -1,1 h -4 c -0.553,0 -1,-0.448 -1,-1 0,-0.552 0.447,-1 1,-1 h 4 c 0.553,0 1,0.448 1,1 z"
         id="path250"
         style="fill:#dfdfdf;fill-opacity:1" />
      <path
         d="m 30.10317,250.75336 c 0,0.552 -0.447,1 -1,1 h -4 c -0.553,0 -1,-0.448 -1,-1 0,-0.552 0.447,-1 1,-1 h 4 c 0.553,0 1,0.448 1,1 z"
         id="path239"
         style="fill:#dfdfdf;fill-opacity:1" />
    </g>
  </g>
</svg>
