<?xml version="1.0" encoding="UTF-8" standalone="no"?>
<svg
   width="24"
   height="24"
   version="1.1"
   id="svg11"
   sodipodi:docname="mouse-battery-caution.svg"
   inkscape:version="1.2.1 (9c6d41e410, 2022-07-14)"
   xmlns:inkscape="http://www.inkscape.org/namespaces/inkscape"
   xmlns:sodipodi="http://sodipodi.sourceforge.net/DTD/sodipodi-0.dtd"
   xmlns="http://www.w3.org/2000/svg"
   xmlns:svg="http://www.w3.org/2000/svg">
  <sodipodi:namedview
     id="namedview13"
     pagecolor="#ffffff"
     bordercolor="#000000"
     borderopacity="0.25"
     inkscape:showpageshadow="2"
     inkscape:pageopacity="0.0"
     inkscape:pagecheckerboard="0"
     inkscape:deskcolor="#d1d1d1"
     showgrid="false"
     inkscape:zoom="15.129139"
     inkscape:cx="-2.1151237"
     inkscape:cy="15.764281"
     inkscape:current-layer="svg11" />
  <defs
     id="defs3">
    <style
       id="current-color-scheme"
       type="text/css">
   .ColorScheme-Text { color:#dfdfdf; } .ColorScheme-Highlight { color:#4285f4; } .ColorScheme-NeutralText { color:#ff9800; } .ColorScheme-PositiveText { color:#4caf50; } .ColorScheme-NegativeText { color:#f44336; }
  </style>
  </defs>
  <path
     style="color:#dfdfdf;fill:#f44336;stroke-width:1.33333;fill-opacity:1"
     class="ColorScheme-Text"
     d="m 16.666667,4.0000009 c -2.350304,0 -4,2.009332 -4,5.3333318 h 4 z m 1.333333,0 v 5.3333318 h 4 C 22,6.0093329 20.350304,4.0000009 18,4.0000009 Z M 12.666667,10.666666 V 14 c 0,3.324 1.892121,6 4.242424,6 h 0.848485 C 20.107878,20 22,17.324 22,14 v -3.333334 h -4.242424 z"
     id="path9-3" />
  <path
     id="path313"
     style="fill:#f44336;fill-opacity:1;stroke-width:0.820779"
     d="M 2.0000003,17.473687 C 2.0000003,18.86653 3.0768018,20 4.4000013,20 H 9.2000009 C 10.5232,20 11.600001,18.86653 11.600001,17.473687 V 8.2105313 c 0,-1.3928437 -1.076801,-2.5263199 -2.4000001,-2.5263199 0,-0.9296803 -0.7168016,-1.6842112 -1.6000004,-1.6842112 h -1.599999 c -0.8831999,0 -1.6000002,0.7545309 -1.6000002,1.6842112 -1.3231995,0 -2.400001,1.1334762 -2.400001,2.5263199 z m 1.6000002,0 V 8.2105313 c 0,-0.464 0.3583997,-0.8421091 0.8000008,-0.8421091 H 9.2000009 C 9.6416007,7.3684222 10,7.7465313 10,8.2105313 v 9.2631557 c 0,0.464001 -0.3583993,0.842101 -0.7999991,0.842101 H 4.4000013 c -0.4416011,0 -0.8000008,-0.3781 -0.8000008,-0.842101 z" />
</svg>
