<?xml version="1.0" encoding="UTF-8" standalone="no"?>
<svg
   width="24"
   height="24"
   version="1.1"
   id="svg7"
   sodipodi:docname="network-wireless-signal-excellent.svg"
   inkscape:version="1.2.1 (9c6d41e410, 2022-07-14)"
   xmlns:inkscape="http://www.inkscape.org/namespaces/inkscape"
   xmlns:sodipodi="http://sodipodi.sourceforge.net/DTD/sodipodi-0.dtd"
   xmlns="http://www.w3.org/2000/svg"
   xmlns:svg="http://www.w3.org/2000/svg">
  <sodipodi:namedview
     id="namedview9"
     pagecolor="#ffffff"
     bordercolor="#000000"
     borderopacity="0.25"
     inkscape:showpageshadow="2"
     inkscape:pageopacity="0.0"
     inkscape:pagecheckerboard="0"
     inkscape:deskcolor="#d1d1d1"
     showgrid="false"
     inkscape:zoom="42.791667"
     inkscape:cx="11.988315"
     inkscape:cy="12.023369"
     inkscape:current-layer="svg7" />
  <defs
     id="defs3">
    <style
       id="current-color-scheme"
       type="text/css">
   .ColorScheme-Text { color:#dfdfdf; } .ColorScheme-Highlight { color:#4285f4; } .ColorScheme-NeutralText { color:#ff9800; } .ColorScheme-PositiveText { color:#4caf50; } .ColorScheme-NegativeText { color:#f44336; }
  </style>
  </defs>
  <g
     id="g373"
     transform="translate(4,4)">
    <path
       style="color:#000000;display:inline;overflow:visible;visibility:visible;fill:#dfdfdf;fill-opacity:1;fill-rule:nonzero;stroke:none;stroke-width:1.5;marker:none;enable-background:accumulate"
       d="M 8,2 C 4.881216,2 2.0438333,3.3284272 0,5.5 L 1.3529412,6.9375 C 3.0561357,5.1278558 5.401013,4 8,4 c 2.598986,0 4.943864,1.1278558 6.647059,2.9375 L 16,5.5 C 13.956167,3.3284272 11.118784,2 8,2 Z M 8,5 C 5.6609119,5 3.532875,5.9963203 2,7.625 L 3.3529412,9.0625 C 4.545177,7.7957491 6.180709,7 8,7 9.819291,7 11.454823,7.7957491 12.647059,9.0625 L 14,7.625 C 12.467125,5.9963203 10.339088,5 8,5 Z M 8,8 C 6.440607,8 5.021917,8.6642136 4.0000001,9.75 L 5.323529,11.15625 C 6.004807,10.432392 6.960405,10 8,10 c 1.039595,0 1.995192,0.432392 2.676471,1.15625 L 12,9.75 C 10.978084,8.6642136 9.559392,8 8,8 Z m 0,3 C 7.220304,11 6.510958,11.332107 6,11.875 L 8,14 10,11.875 C 9.489042,11.332107 8.779696,11 8,11 Z"
       id="path3909"
       inkscape:connector-curvature="0" />
  </g>
</svg>
