<?xml version="1.0" encoding="UTF-8" standalone="no"?>
<svg
   width="24"
   height="24"
   version="1.1"
   id="svg11"
   sodipodi:docname="network-wireless-secure-signal-low.svg"
   inkscape:version="1.2.1 (9c6d41e410, 2022-07-14)"
   xmlns:inkscape="http://www.inkscape.org/namespaces/inkscape"
   xmlns:sodipodi="http://sodipodi.sourceforge.net/DTD/sodipodi-0.dtd"
   xmlns="http://www.w3.org/2000/svg"
   xmlns:svg="http://www.w3.org/2000/svg">
  <sodipodi:namedview
     id="namedview13"
     pagecolor="#ffffff"
     bordercolor="#000000"
     borderopacity="0.25"
     inkscape:showpageshadow="2"
     inkscape:pageopacity="0.0"
     inkscape:pagecheckerboard="0"
     inkscape:deskcolor="#d1d1d1"
     showgrid="false"
     inkscape:zoom="15.129139"
     inkscape:cx="11.765376"
     inkscape:cy="16.226965"
     inkscape:current-layer="svg11" />
  <defs
     id="defs3">
    <style
       id="current-color-scheme"
       type="text/css">
   .ColorScheme-Text { color:#dfdfdf; } .ColorScheme-Highlight { color:#4285f4; } .ColorScheme-NeutralText { color:#ff9800; } .ColorScheme-PositiveText { color:#4caf50; } .ColorScheme-NegativeText { color:#f44336; }
  </style>
  </defs>
  <g
     id="g273"
     transform="translate(4,3.9999999)">
    <path
       sodipodi:nodetypes="sscsssssssscsssccccc"
       id="path3114"
       d="m 11.637417,8.9995689 c -0.34625,0 -0.759365,0.3058838 -0.625,0.625 v 2.3750001 h -0.375 c -0.34625,0 -0.625,0.27875 -0.625,0.625 v 2.75 c 0,0.34625 0.27875,0.625 0.625,0.625 h 4.75 c 0.34625,0 0.625,-0.27875 0.625,-0.625 v -2.75 c 0,-0.34625 -0.27875,-0.625 -0.625,-0.625 h -0.375 V 9.6245689 c 0,-0.34625 -0.27875,-0.625 -0.625,-0.625 z m 0.375,1 h 2 v 2.0000001 h -2 z"
       style="color:#000000;display:inline;overflow:visible;visibility:visible;fill:#dfdfdf;fill-opacity:1;fill-rule:nonzero;stroke:none;stroke-width:1;marker:none;enable-background:accumulate"
       inkscape:connector-curvature="0" />
    <path
       inkscape:connector-curvature="0"
       style="color:#000000;display:inline;overflow:visible;visibility:visible;opacity:0.45;fill:#dfdfdf;fill-opacity:1;fill-rule:nonzero;stroke:none;stroke-width:1.5;marker:none;enable-background:accumulate"
       d="m 7.987583,4.311e-4 c -3.1187845,0 -5.9561667,1.3284272 -8,3.5 l 1.3529412,1.4375 c 1.7031945,-1.8096442 4.0480724,-2.9375 6.6470588,-2.9375 2.598986,0 4.943864,1.1278558 6.647059,2.9375 l 1.352941,-1.4375 c -2.043833,-2.1715728 -4.881216,-3.5 -8,-3.5 z"
       id="path3958" />
    <path
       inkscape:connector-curvature="0"
       style="color:#000000;display:inline;overflow:visible;visibility:visible;opacity:0.45;fill:#dfdfdf;fill-opacity:1;fill-rule:nonzero;stroke:none;stroke-width:1.5;marker:none;enable-background:accumulate"
       d="m 7.987583,3.0004311 c -2.3390881,0 -4.467125,0.9963203 -6,2.625 l 1.3529412,1.4375 c 1.1922361,-1.2667509 2.8277678,-2.0625 4.6470588,-2.0625 1.819291,0 3.454823,0.7957491 4.647059,2.0625 l 1.352941,-1.4375 c -1.532875,-1.6286797 -3.660912,-2.625 -6,-2.625 z"
       id="path3956" />
    <path
       inkscape:connector-curvature="0"
       style="color:#000000;display:inline;overflow:visible;visibility:visible;opacity:0.45;fill:#dfdfdf;fill-opacity:1;fill-rule:nonzero;stroke:none;stroke-width:1.5;marker:none;enable-background:accumulate"
       d="m 7.987583,6.0004311 c -1.559393,0 -2.9780834,0.6642136 -4,1.75 l 1.3235294,1.40625 c 0.6812775,-0.723858 1.6368756,-1.15625 2.6764706,-1.15625 1.039595,0 1.995192,0.432392 2.676471,1.15625 l 1.323529,-1.40625 c -1.021916,-1.0857864 -2.440608,-1.75 -4,-1.75 z"
       id="path3954" />
    <path
       inkscape:connector-curvature="0"
       style="color:#000000;display:inline;overflow:visible;visibility:visible;fill:#dfdfdf;fill-opacity:1;fill-rule:nonzero;stroke:none;stroke-width:1.5;marker:none;enable-background:accumulate"
       d="m 7.987583,9.0004311 c -0.779696,0 -1.489042,0.332107 -2.0000001,0.875 l 2.0000001,2.1249999 2,-2.1249999 c -0.510958,-0.542893 -1.220304,-0.875 -2,-0.875 z"
       id="path3909" />
  </g>
</svg>
