<?xml version="1.0" encoding="UTF-8" standalone="no"?>
<svg
   width="24"
   height="24"
   version="1.1"
   id="svg9"
   sodipodi:docname="network-wireless-secure-signal-none.svg"
   inkscape:version="1.2.1 (9c6d41e410, 2022-07-14)"
   xmlns:inkscape="http://www.inkscape.org/namespaces/inkscape"
   xmlns:sodipodi="http://sodipodi.sourceforge.net/DTD/sodipodi-0.dtd"
   xmlns="http://www.w3.org/2000/svg"
   xmlns:svg="http://www.w3.org/2000/svg">
  <sodipodi:namedview
     id="namedview11"
     pagecolor="#ffffff"
     bordercolor="#000000"
     borderopacity="0.25"
     inkscape:showpageshadow="2"
     inkscape:pageopacity="0.0"
     inkscape:pagecheckerboard="0"
     inkscape:deskcolor="#d1d1d1"
     showgrid="false"
     inkscape:zoom="21.395833"
     inkscape:cx="16.685492"
     inkscape:cy="13.483934"
     inkscape:current-layer="svg9" />
  <defs
     id="defs3">
    <style
       id="current-color-scheme"
       type="text/css">
   .ColorScheme-Text { color:#dfdfdf; } .ColorScheme-Highlight { color:#4285f4; } .ColorScheme-NeutralText { color:#ff9800; } .ColorScheme-PositiveText { color:#4caf50; } .ColorScheme-NegativeText { color:#f44336; }
  </style>
  </defs>
  <g
     id="g386"
     transform="translate(4,4)">
    <path
       inkscape:connector-curvature="0"
       id="path3112"
       d="M 8,0 C 4.881215,0 2.043833,1.3284272 0,3.5 L 1.352941,4.9375 C 3.056136,3.1278558 5.401014,2 8,2 c 2.598986,0 4.943864,1.1278558 6.647059,2.9375 L 16,3.5 C 13.956167,1.3284272 11.118784,0 8,0 Z M 8,3 C 5.660912,3 3.532875,3.9963203 2,5.625 L 3.352941,7.0625 C 4.545177,5.7957491 6.180709,5 8,5 9.819291,5 11.454823,5.7957491 12.647059,7.0625 L 14,5.625 C 12.467125,3.9963203 10.339088,3 8,3 Z M 8,6 C 6.440608,6 5.021917,6.6642136 4,7.75 L 5.323529,9.15625 C 6.004807,8.432392 6.960405,8 8,8 9.039595,8 9.995192,8.432392 10.676471,9.15625 L 12,7.75 C 10.978084,6.6642136 9.559392,6 8,6 Z M 8,9 C 7.220304,9 6.510958,9.332107 6,9.875 L 8,12 10,9.875 C 9.489042,9.332107 8.779696,9 8,9 Z"
       style="color:#000000;display:inline;overflow:visible;visibility:visible;opacity:0.35;fill:#dfdfdf;fill-opacity:1;fill-rule:nonzero;stroke:none;stroke-width:1.5;marker:none;enable-background:accumulate" />
    <path
       sodipodi:nodetypes="sscsssssssscsssccccc"
       id="path3114"
       d="M 11.625,9 C 11.27875,9 10.865635,9.3058838 11,9.625 V 12 H 10.625 C 10.27875,12 10,12.27875 10,12.625 v 2.75 C 10,15.72125 10.27875,16 10.625,16 h 4.75 C 15.72125,16 16,15.72125 16,15.375 v -2.75 C 16,12.27875 15.72125,12 15.375,12 H 15 V 9.625 C 15,9.27875 14.72125,9 14.375,9 Z M 12,10 h 2 v 2 h -2 z"
       style="color:#000000;display:inline;overflow:visible;visibility:visible;fill:#dfdfdf;fill-opacity:1;fill-rule:nonzero;stroke:none;stroke-width:1;marker:none;enable-background:accumulate"
       inkscape:connector-curvature="0" />
  </g>
</svg>
