<?xml version="1.0" encoding="UTF-8" standalone="no"?>
<svg
   width="24"
   height="24"
   version="1.1"
   id="svg9"
   sodipodi:docname="network-wireless-signal-good.svg"
   inkscape:version="1.2.1 (9c6d41e410, 2022-07-14)"
   xmlns:inkscape="http://www.inkscape.org/namespaces/inkscape"
   xmlns:sodipodi="http://sodipodi.sourceforge.net/DTD/sodipodi-0.dtd"
   xmlns="http://www.w3.org/2000/svg"
   xmlns:svg="http://www.w3.org/2000/svg">
  <sodipodi:namedview
     id="namedview11"
     pagecolor="#ffffff"
     bordercolor="#000000"
     borderopacity="0.25"
     inkscape:showpageshadow="2"
     inkscape:pageopacity="0.0"
     inkscape:pagecheckerboard="0"
     inkscape:deskcolor="#d1d1d1"
     showgrid="false"
     inkscape:zoom="42.791667"
     inkscape:cx="11.988315"
     inkscape:cy="12.023369"
     inkscape:current-layer="svg9" />
  <defs
     id="defs3">
    <style
       id="current-color-scheme"
       type="text/css">
   .ColorScheme-Text { color:#dfdfdf; } .ColorScheme-Highlight { color:#4285f4; } .ColorScheme-NeutralText { color:#ff9800; } .ColorScheme-PositiveText { color:#4caf50; } .ColorScheme-NegativeText { color:#f44336; }
  </style>
  </defs>
  <g
     id="g376"
     transform="translate(4,4)">
    <path
       inkscape:connector-curvature="0"
       style="color:#000000;display:inline;overflow:visible;visibility:visible;opacity:0.45;fill:#dfdfdf;fill-opacity:1;fill-rule:nonzero;stroke:none;stroke-width:1.5;marker:none;enable-background:accumulate"
       d="M 7.9999999,2 C 4.8812155,2 2.0438334,3.3284272 5e-8,5.5 L 1.3529412,6.9375 C 3.0561357,5.1278558 5.4010135,4 7.9999999,4 10.598986,4 12.943864,5.1278558 14.647059,6.9375 L 16,5.5 C 13.956167,3.3284272 11.118784,2 7.9999999,2 Z"
       id="path3958" />
    <path
       inkscape:connector-curvature="0"
       style="color:#000000;display:inline;overflow:visible;visibility:visible;fill:#dfdfdf;fill-opacity:1;fill-rule:nonzero;stroke:none;stroke-width:1.5;marker:none;enable-background:accumulate"
       d="M 7.9999999,5 C 5.6609115,5 3.532875,5.9963203 2,7.625 L 3.3529412,9.0625 C 4.5451773,7.7957491 6.1807099,7 7.9999999,7 9.8192909,7 11.454823,7.7957491 12.647059,9.0625 L 14,7.625 C 12.467125,5.9963203 10.339088,5 7.9999999,5 Z"
       id="path3956" />
    <path
       inkscape:connector-curvature="0"
       style="color:#000000;display:inline;overflow:visible;visibility:visible;fill:#dfdfdf;fill-opacity:1;fill-rule:nonzero;stroke:none;stroke-width:1.5;marker:none;enable-background:accumulate"
       d="M 7.9999999,8 C 6.440608,8 5.0219166,8.6642136 4,9.75 l 1.3235295,1.40625 C 6.0048075,10.432392 6.9604059,10 7.9999999,10 9.039595,10 9.995193,10.432392 10.676471,11.15625 L 12,9.75 C 10.978084,8.6642136 9.559393,8 7.9999999,8 Z"
       id="path3954" />
    <path
       inkscape:connector-curvature="0"
       style="color:#000000;display:inline;overflow:visible;visibility:visible;fill:#dfdfdf;fill-opacity:1;fill-rule:nonzero;stroke:none;stroke-width:1.5;marker:none;enable-background:accumulate"
       d="m 7.9999999,11 c -0.779696,0 -1.489041,0.332107 -2.0000004,0.875 L 7.9999999,14 10,11.875 C 9.4890419,11.332107 8.779697,11 7.9999999,11 Z"
       id="path3909" />
  </g>
</svg>
