<?xml version="1.0" encoding="UTF-8" standalone="no"?>
<svg
   width="24"
   height="24"
   version="1.1"
   id="svg9"
   sodipodi:docname="network-wireless-signal-ok.svg"
   inkscape:version="1.2.1 (9c6d41e410, 2022-07-14)"
   xmlns:inkscape="http://www.inkscape.org/namespaces/inkscape"
   xmlns:sodipodi="http://sodipodi.sourceforge.net/DTD/sodipodi-0.dtd"
   xmlns="http://www.w3.org/2000/svg"
   xmlns:svg="http://www.w3.org/2000/svg">
  <sodipodi:namedview
     id="namedview11"
     pagecolor="#ffffff"
     bordercolor="#000000"
     borderopacity="0.25"
     inkscape:showpageshadow="2"
     inkscape:pageopacity="0.0"
     inkscape:pagecheckerboard="0"
     inkscape:deskcolor="#d1d1d1"
     showgrid="false"
     inkscape:zoom="42.791667"
     inkscape:cx="11.988315"
     inkscape:cy="12.023369"
     inkscape:current-layer="svg9" />
  <defs
     id="defs3">
    <style
       id="current-color-scheme"
       type="text/css">
   .ColorScheme-Text { color:#dfdfdf; } .ColorScheme-Highlight { color:#4285f4; } .ColorScheme-NeutralText { color:#ff9800; } .ColorScheme-PositiveText { color:#4caf50; } .ColorScheme-NegativeText { color:#f44336; }
  </style>
  </defs>
  <g
     id="g376"
     transform="translate(0.02483395,8)">
    <path
       inkscape:connector-curvature="0"
       style="color:#000000;display:inline;overflow:visible;visibility:visible;opacity:0.45;fill:#dfdfdf;fill-opacity:1;fill-rule:nonzero;stroke:none;stroke-width:1.5;marker:none;enable-background:accumulate"
       d="M 11.975166,-2 C 8.8563816,-2 6.0189994,-0.6715728 3.9751661,1.5 L 5.3281073,2.9375 C 7.0313018,1.1278558 9.3761797,0 11.975166,0 14.574152,0 16.91903,1.1278558 18.622225,2.9375 L 19.975166,1.5 c -2.043833,-2.1715728 -4.881216,-3.5 -8,-3.5 z"
       id="path3958" />
    <path
       inkscape:connector-curvature="0"
       style="color:#000000;display:inline;overflow:visible;visibility:visible;opacity:0.45;fill:#dfdfdf;fill-opacity:1;fill-rule:nonzero;stroke:none;stroke-width:1.5;marker:none;enable-background:accumulate"
       d="M 11.975166,0.99999999 C 9.636078,0.99999999 7.5080411,1.9963203 5.9751661,3.625 L 7.3281073,5.0625 C 8.5203434,3.7957491 10.155875,3 11.975166,3 c 1.81929,0 3.454823,0.7957491 4.647059,2.0625 L 17.975166,3.625 c -1.532875,-1.6286797 -3.660912,-2.62500001 -6,-2.62500001 z"
       id="path3956" />
    <path
       inkscape:connector-curvature="0"
       style="color:#000000;display:inline;overflow:visible;visibility:visible;fill:#dfdfdf;fill-opacity:1;fill-rule:nonzero;stroke:none;stroke-width:1.5;marker:none;enable-background:accumulate"
       d="M 11.975166,4 C 10.415774,4 8.9970827,4.6642136 7.9751661,5.75 L 9.2986955,7.15625 C 9.9799733,6.432392 10.935571,6 11.975166,6 13.01476,6 13.970358,6.432392 14.651637,7.15625 L 15.975166,5.75 C 14.95325,4.6642136 13.534558,4 11.975166,4 Z"
       id="path3954" />
    <path
       inkscape:connector-curvature="0"
       style="color:#000000;display:inline;overflow:visible;visibility:visible;fill:#dfdfdf;fill-opacity:1;fill-rule:nonzero;stroke:none;stroke-width:1.5;marker:none;enable-background:accumulate"
       d="M 11.975166,7 C 11.195469,7 10.486124,7.332107 9.9751661,7.875 L 11.975166,10 l 2,-2.125 C 13.464207,7.332107 12.754862,7 11.975166,7 Z"
       id="path3909" />
  </g>
</svg>
