<?xml version="1.0" encoding="UTF-8" standalone="no"?>
<svg
   width="24"
   height="24"
   version="1.1"
   id="svg7"
   sodipodi:docname="network-wireless-signal-none.svg"
   inkscape:version="1.2.1 (9c6d41e410, 2022-07-14)"
   xmlns:inkscape="http://www.inkscape.org/namespaces/inkscape"
   xmlns:sodipodi="http://sodipodi.sourceforge.net/DTD/sodipodi-0.dtd"
   xmlns="http://www.w3.org/2000/svg"
   xmlns:svg="http://www.w3.org/2000/svg">
  <sodipodi:namedview
     id="namedview9"
     pagecolor="#ffffff"
     bordercolor="#000000"
     borderopacity="0.25"
     inkscape:showpageshadow="2"
     inkscape:pageopacity="0.0"
     inkscape:pagecheckerboard="0"
     inkscape:deskcolor="#d1d1d1"
     showgrid="false"
     inkscape:zoom="42.791667"
     inkscape:cx="11.988315"
     inkscape:cy="12.023369"
     inkscape:current-layer="svg7" />
  <defs
     id="defs3">
    <style
       id="current-color-scheme"
       type="text/css">
   .ColorScheme-Text { color:#dfdfdf; } .ColorScheme-Highlight { color:#4285f4; } .ColorScheme-NeutralText { color:#ff9800; } .ColorScheme-PositiveText { color:#4caf50; } .ColorScheme-NegativeText { color:#f44336; }
  </style>
  </defs>
  <g
     id="g265"
     transform="translate(0,8)">
    <path
       inkscape:connector-curvature="0"
       id="path3112"
       d="M 12,-2 C 8.881215,-2 6.043833,-0.6715728 4,1.5 L 5.352941,2.9375 C 7.056136,1.1278558 9.401014,0 12,0 c 2.598986,0 4.943864,1.1278558 6.647059,2.9375 L 20,1.5 C 17.956167,-0.6715728 15.118784,-2 12,-2 Z m 0,3 C 9.660912,1 7.532875,1.9963203 6,3.625 L 7.352941,5.0625 C 8.545177,3.7957491 10.180709,3 12,3 c 1.819291,0 3.454823,0.7957491 4.647059,2.0625 L 18,3.625 C 16.467125,1.9963203 14.339088,1 12,1 Z m 0,3 C 10.440608,4 9.021917,4.6642136 8,5.75 L 9.323529,7.15625 C 10.004807,6.432392 10.960405,6 12,6 c 1.039595,0 1.995192,0.432392 2.676471,1.15625 L 16,5.75 C 14.978084,4.6642136 13.559392,4 12,4 Z m 0,3 C 11.220304,7 10.510958,7.332107 10,7.875 L 12,10 14,7.875 C 13.489042,7.332107 12.779696,7 12,7 Z"
       style="color:#000000;display:inline;overflow:visible;visibility:visible;opacity:0.35;fill:#dfdfdf;fill-opacity:1;fill-rule:nonzero;stroke:none;stroke-width:1.5;marker:none;enable-background:accumulate" />
  </g>
</svg>
