<?xml version="1.0" encoding="UTF-8" standalone="no"?>
<svg
   width="24"
   height="24"
   version="1.1"
   id="svg11"
   sodipodi:docname="notification-disabled-symbolic.svg"
   inkscape:version="1.2.1 (9c6d41e410, 2022-07-14)"
   xmlns:inkscape="http://www.inkscape.org/namespaces/inkscape"
   xmlns:sodipodi="http://sodipodi.sourceforge.net/DTD/sodipodi-0.dtd"
   xmlns="http://www.w3.org/2000/svg"
   xmlns:svg="http://www.w3.org/2000/svg">
  <sodipodi:namedview
     id="namedview13"
     pagecolor="#ffffff"
     bordercolor="#000000"
     borderopacity="0.25"
     inkscape:showpageshadow="2"
     inkscape:pageopacity="0.0"
     inkscape:pagecheckerboard="0"
     inkscape:deskcolor="#d1d1d1"
     showgrid="false"
     inkscape:zoom="42.791667"
     inkscape:cx="11.988315"
     inkscape:cy="12.093476"
     inkscape:current-layer="svg11" />
  <defs
     id="defs3">
    <style
       id="current-color-scheme"
       type="text/css">
   .ColorScheme-Text { color:#ffffff; } .ColorScheme-Highlight { color:#4285f4; }
  </style>
  </defs>
  <g
     transform="matrix(0.99585063,0,0,0.99585063,4.0333543,-4.4004181)"
     id="g9">
    <path
       style="fill:currentColor"
       class="ColorScheme-Text"
       d="M 2.34359,9.8750031 15.06234,22.593753 13.65609,24.000003 0.93734,11.281253 Z"
       id="path5" />
    <path
       style="fill:currentColor"
       class="ColorScheme-Text"
       d="m 7.99977,8.9375031 c -0.55228,0 -1,0.44772 -1,1 0,0.0333 0.002,0.0665 0.006,0.0996 -0.64334,0.12889 -1.2324,0.39135 -1.75977,0.74023 l 7.75377,7.75392 v -1.59375 -2 c 1.7e-4,-2.42916 -1.71554,-4.44156 -4.00586,-4.90039 0.004,-0.0331 0.006,-0.0663 0.006,-0.0996 0,-0.55228 -0.44772,-1 -1,-1 z m -4.1582,3.2480499 c -0.5234,0.7903 -0.84177,1.72888 -0.8418,2.75195 v 4.5 l -2,2 v 0.5 h 2 10 0.59375 z m 2.42773,10.75195 c 0.35698,0.61831 1.0165,0.99944 1.73047,1 0.71327,-0.001 1.37189,-0.38229 1.72852,-1 z"
       id="path7" />
  </g>
</svg>
