<?xml version="1.0" encoding="UTF-8" standalone="no"?>
<svg
   width="24"
   height="24"
   version="1"
   id="svg7"
   sodipodi:docname="system-file-manager-panel.svg"
   inkscape:version="1.2.1 (9c6d41e410, 2022-07-14)"
   xmlns:inkscape="http://www.inkscape.org/namespaces/inkscape"
   xmlns:sodipodi="http://sodipodi.sourceforge.net/DTD/sodipodi-0.dtd"
   xmlns="http://www.w3.org/2000/svg"
   xmlns:svg="http://www.w3.org/2000/svg">
  <sodipodi:namedview
     id="namedview9"
     pagecolor="#ffffff"
     bordercolor="#000000"
     borderopacity="0.25"
     inkscape:showpageshadow="2"
     inkscape:pageopacity="0.0"
     inkscape:pagecheckerboard="0"
     inkscape:deskcolor="#d1d1d1"
     showgrid="false"
     inkscape:zoom="15.129139"
     inkscape:cx="4.5607355"
     inkscape:cy="12.922084"
     inkscape:current-layer="svg7" />
  <defs
     id="defs3">
    <style
       id="current-color-scheme"
       type="text/css">
   .ColorScheme-Text { color:#dfdfdf; } .ColorScheme-Highlight { color:#4285f4; } .ColorScheme-NeutralText { color:#ff9800; } .ColorScheme-PositiveText { color:#4caf50; } .ColorScheme-NegativeText { color:#f44336; }
  </style>
  </defs>
  <g
     id="g244"
     transform="matrix(1.1428571,0,0,1.1428571,2.8571435,2.8571432)">
    <path
       style="color:#dfdfdf;fill:currentColor"
       class="ColorScheme-Text"
       d="M 4.0000005,1 C 3.4459995,1 2.9999994,1.446 2.9999994,2 v 2 c 0,-0.554 0.4460001,-1 1.0000011,-1 H 12 c 0.554,0 1,0.446 1,1 V 2 C 13,1.446 12.554,1 12,1 Z m 0,3 C 3.4459995,4 2.9999994,4.446 2.9999994,5 V 6 H 13 V 5 C 13,4.446 12.554,4 12,4 Z m -2.000001,3 c -0.554,0 -1.00000003,0.446 -1.00000003,1 v 6 c 0,0.554 0.44600003,1 1.00000003,1 H 14 c 0.554,0 1,-0.446 1,-1 V 8 C 15,7.446 14.554,7 14,7 Z M 6.25,9.9999999 H 9.7499999 C 9.8889998,9.9999999 10,10.111 10,10.25 v 0.5 C 10,10.889 9.8879999,11 9.7499999,11 H 6.25 C 6.111,11 6,10.889 6,10.75 v -0.5 C 6,10.111 6.112,9.9999999 6.25,9.9999999 Z"
       id="path5" />
  </g>
</svg>
