/* XPM */
static char * bottom_right_active_xpm[] = {
"16 16 6 1",
" 	c None",
".	c #000000",
"+	c #FFFFFF s active_hilight_2",
"@	c #949594 s active_shadow_2",
"#	c #D5D6D5 s active_color_2",
"%	c #C6C6C6 s active_mid_2",
"           ##%@.",
"           ##%@.",
"           ##%@.",
"           ##%@.",
"           ##%@.",
"           ##%@.",
"           ##%@.",
"           ##%@.",
"           ##%@.",
"           ##%@.",
"           ##%@.",
"#############%@.",
"#############%@.",
"%%%%%%%%%%%%%%@.",
"@@@@@@@@@@@@@@@.",
"............... "};
