/* XPM */
static char *xterm_32x32[] = {
/* columns rows colors chars-per-pixel */
"48 48 125 2 ",
"   c black",
".  c #070707",
"X  c gray3",
"o  c #090909",
"O  c gray4",
"+  c #0B0B0B",
"@  c #0C0C0C",
"#  c gray5",
"$  c #0E0E0E",
"%  c gray6",
"&  c #101010",
"*  c #111111",
"=  c gray7",
"-  c gray8",
";  c #151515",
":  c #191919",
">  c gray10",
",  c #1B1B1B",
"<  c gray11",
"1  c #1D1D1D",
"2  c #1E1E1E",
"3  c gray12",
"4  c #202020",
"5  c gray13",
"6  c #222222",
"7  c #232323",
"8  c gray14",
"9  c #252525",
"0  c gray15",
"q  c #272727",
"w  c #282828",
"e  c gray16",
"r  c #2A2A2A",
"t  c gray17",
"y  c #2C2C2C",
"u  c #2D2D2D",
"i  c gray18",
"p  c #2F2F2F",
"a  c gray19",
"s  c #313131",
"d  c #323232",
"f  c gray20",
"g  c #343434",
"h  c #353535",
"j  c gray21",
"k  c #373737",
"l  c gray22",
"z  c #393939",
"x  c #3A3A3A",
"c  c gray23",
"v  c #3C3C3C",
"b  c gray24",
"n  c #3E3E3E",
"m  c #3F3F3F",
"M  c gray25",
"N  c #414141",
"B  c gray26",
"V  c #434343",
"C  c #444444",
"Z  c gray27",
"A  c #464646",
"S  c gray28",
"D  c #484848",
"F  c #494949",
"G  c gray29",
"H  c #4B4B4B",
"J  c #4C4C4C",
"K  c gray30",
"L  c #4E4E4E",
"P  c gray31",
"I  c #505050",
"U  c #515151",
"Y  c gray32",
"T  c #535353",
"R  c gray33",
"E  c #555555",
"W  c #565656",
"Q  c gray34",
"!  c #585858",
"~  c gray35",
"^  c #5A5A5A",
"/  c #5B5B5B",
"(  c gray36",
")  c #5D5D5D",
"_  c gray37",
"`  c #5F5F5F",
"'  c #606060",
"]  c gray38",
"[  c #626262",
"{  c gray39",
"}  c #646464",
"|  c #656565",
" . c gray40",
".. c #676767",
"X. c #686868",
"o. c DimGray",
"O. c #6A6A6A",
"+. c gray42",
"@. c #6C6C6C",
"#. c #6D6D6D",
"$. c gray43",
"%. c #6F6F6F",
"&. c gray44",
"*. c #717171",
"=. c #727272",
"-. c gray45",
";. c #747474",
":. c gray46",
">. c #767676",
",. c #777777",
"<. c gray47",
"1. c #797979",
"2. c gray48",
"3. c #7B7B7B",
"4. c #7C7C7C",
"5. c gray58",
"6. c #959595",
"7. c #ACACAC",
"8. c gray77",
"9. c #C5C5C5",
"0. c LightGray",
"q. c gray89",
"w. c #EAEAEA",
"e. c gray100",
"r. c None",
/* pixels */
"r.r.r.r.r.r.r.r.r.r.r.r.r.r.r.r.r.r.r.r.r.r.r.r.r.r.r.r.r.r.r.r.r.r.r.r.r.r.r.r.r.r.r.r.r.r.r.r.",
"r.r.r.r.r.r.r.r.r.r.r.r.r.r.r.r.r.r.r.r.r.r.r.r.r.r.r.r.r.r.r.r.r.r.r.r.r.r.r.r.r.r.r.r.r.r.r.r.",
"r.r.r.r.r.r.r.r.r.r.r.r.r.r.r.r.r.r.r.r.r.r.r.r.r.r.r.r.r.r.r.r.r.r.r.r.r.r.r.r.r.r.r.r.r.r.r.r.",
"r.r.r.r.n B Z D D K K I I E / / ( ( { ....X.@.X.1.1.1.1.;.;.;.=.=.@.@.X.X.X.....{ { ( I r.r.r.r.",
"r.r.r.z z d d j j z n B B Z Z Z D K I I I I E E { X.X.X.X...{ ( { ( ( / / / E E I I I I K r.r.r.",
"r.r.r.D z j j d j j z z n B B B Z Z D D D K D K I { { { { { ( ( ( ( / / E E I I I I I K E r.r.r.",
"r.r.r.K z j d j j j z z z n n B B B B Z D Z D D D ( { ( ( / ( / / E / E E E E I I I K K ( r.r.r.",
"r.r.r.I n j j z B z z z n z n n B n B B Z Z Z B Z E ( ( ( / / / / E E E E I E I I I I K ( r.r.r.",
"r.r.r.I n z j D 0.X.n n K I E E E E D Z D D D D D I { ( ( ( ( ( / / { X./ I E I I I K K / r.r.r.",
"r.r.r.E n z j n 5.w.7.K D { ....X.X.( Z Z D D D D D ( ( ( ( / / / ( ;.@.E E I I I K K K ( r.r.r.",
"r.r.r.E B z j j z / 9.q.K / ....X.X.X.I Z D D D D D / / ( ( / E / =.;./ I E I I K K K K / r.r.r.",
"r.r.r.E B z j z n ( 9.q.K Z ..X.X.@.@.X.D K K I K K E { ( ( / / X.1.X.E E I I I I K D K / r.r.r.",
"r.r.r.E B z j n 6.w.7.K n n I X.X.@.X.@.( D D D D D K ( / / / ( ;.=.E E I I I I K K D K / r.r.r.",
"r.r.r.E B n j D 0.@.B B Z E E =.4.4.=.@.@.E K I I K K ( ( ( ( ;.1.( E E E I I K K K D K / r.r.r.",
"r.r.r.E B z j n B z z z I e.e.e.e.e.1.X.@...D D D D Z I / E X.1...E E I I K K K K D D K E r.r.r.",
"r.r.r.I n z d j j j z n B I E E ..1.@.X.X.X.E Z Z Z Z D E ( 1.@.E I I I K K K K D D D K / r.r.r.",
"r.r.r.K n j d j z z z n n B B B Z ..X.@.@.=.@.K K D D D / =.1./ E I I I I K K K D D D K / r.r.r.",
"r.r.r.K n j j j j j z z z z z n n Z ..X.X.X.X.( Z B B B { ;.{ I I I K K K K D D D D D D E r.r.r.",
"r.r.r.D z j d j j z z z n n n B B B / X.X.X.X.X.E Z D K @.=.I I I I I I K D D D Z Z Z D / r.r.r.",
"r.r.r.Z z j d j j j j z z z z n z n n { ........{ B B ( ..E I K K D K D D D D D Z Z Z D E r.r.r.",
"r.r.r.Z j d d d d j j j z z z z n z z D ..........D I { I D K D D D D D D D Z Z Z B B Z E r.r.r.",
"r.r.r.B j d d d j j j j z z z n n B B B / ......( D ..{ B Z K K K K K D D Z Z B B B B Z E r.r.r.",
"r.r.r.B d d i d d d j j j j j j j z z z z ( { { B ( { B z n D D D D Z Z Z Z B B B n B B E r.r.r.",
"r.r.r.n d i i d d d j j j z z z z n n n n / ..K E ..X.I n n D D D D Z B Z B B B B n n B I r.r.r.",
"r.r.r.n i i i i d d d d d j j j j j j z Z { E B ( { { ( n j n Z B Z B B n B n n n n n B I r.r.r.",
"r.r.r.z i t i i i i i d d d d d j j j z / ( z E ( ( ( ( E j j B B B B n n n n n z z n n K r.r.r.",
"r.r.r.j t t t i i d d d d d j j j j z I { Z z K ..{ { { { D z B B B B n n n n n n z z z K r.r.r.",
"r.r.r.j q t t i t i i i i d d d d d B ( I d d j E / / / / / z z n z n n n z z j z j z z D r.r.r.",
"r.r.r.d q q t t t i i i i d d d j z ( ( z z z z B { { ( ( ( I z n n n z z n z j j j j z Z r.r.r.",
"r.r.r.d q t q t t t t i i i i i i D / n i d d i i Z / / / / / n z z j z z j j j j d d j B r.r.r.",
"r.r.r.d 7 q q q t q t t t i i i z / D i i i d i i d E E E E E E j j j j j d d d d d d d n r.r.r.",
"r.r.r.i q q q q q t t t t i i d E E j j d j d d j d B ( ( / / / K j j j d j d d d i i d n r.r.r.",
"r.r.r.i 7 7 q q q q q q t q t Z E z i t t t i t i i t Z E E E E E n d i i i i i i i i i z r.r.r.",
"r.r.r.i 7 7 7 7 7 q q q t t z E Z i i i i i i i i i d d E / E E E / d d d d i i i i t t j r.r.r.",
"r.r.r.t 7 7 7 7 7 7 q q q t K K t q t q t q t q t q q t z I E I I E Z i t t t t t t q t j r.r.r.",
"r.r.r.t < 7 < 7 7 7 7 7 7 B I j 7 q q q q q q q q q q q t D I I I I E d t q t q q q q q d r.r.r.",
"r.r.r.t < < 7 7 7 7 7 7 j K Z q q q t q q q t t t t q q t i I I E I E K t t q q 7 7 q 7 i r.r.r.",
"r.r.r.q < < < 7 < < 7 7 d z q 7 7 7 7 7 q 7 7 7 7 7 7 q 7 7 d z z z z z i 7 7 q 7 7 7 7 t r.r.r.",
"r.r.r.7 < < < < < 7 7 7 7 7 7 7 q 7 7 q 7 q q q q q 7 q q 7 q 7 q 7 7 q 7 q 7 7 7 7 7 < t r.r.r.",
"r.r.r.q < < < < < < < < < < 7 < < 7 < 7 7 < 7 7 < 7 7 < < 7 < 7 7 < < 7 7 < 7 < < < < < q r.r.r.",
"r.r.r.< ; , , , < < < < < 7 < < < 7 < < 7 < < < < 7 < < < 7 7 < 7 < < 7 7 < < , < < , , 7 r.r.r.",
"r.r.r.* < , , ; , , , , < < < < < < < 7 < 7 7 < 7 < 7 7 7 < < < < < < < , < , , , < , 7 * r.r.r.",
"r.r.r.+ ; 7 q t t t t i i i d d d d d d j d j j d d j d d d d d i d i i t t t t t q 7 * + r.r.r.",
"r.r.r.. + # # # # # # # * # * * * * * * * * * * * * * * * # * * * # * # * # * # # + + + . r.r.r.",
"r.r.r.  . + + + + + + # # # # # # # * # # # * # # * # # * # # # # # # # # + + + + + + .   r.r.r.",
"r.r.r.r.r.                                                                            r.r.r.r.r.",
"r.r.r.r.r.r.r.r.r.r.r.r.r.r.r.r.r.r.r.r.r.r.r.r.r.r.r.r.r.r.r.r.r.r.r.r.r.r.r.r.r.r.r.r.r.r.r.r.",
"r.r.r.r.r.r.r.r.r.r.r.r.r.r.r.r.r.r.r.r.r.r.r.r.r.r.r.r.r.r.r.r.r.r.r.r.r.r.r.r.r.r.r.r.r.r.r.r."
};
