<?xml version="1.0" encoding="UTF-8" standalone="no"?>
<svg
   xmlns:osb="http://www.openswatchbook.org/uri/2009/osb"
   xmlns:dc="http://purl.org/dc/elements/1.1/"
   xmlns:cc="http://creativecommons.org/ns#"
   xmlns:rdf="http://www.w3.org/1999/02/22-rdf-syntax-ns#"
   xmlns:svg="http://www.w3.org/2000/svg"
   xmlns="http://www.w3.org/2000/svg"
   xmlns:sodipodi="http://sodipodi.sourceforge.net/DTD/sodipodi-0.dtd"
   xmlns:inkscape="http://www.inkscape.org/namespaces/inkscape"
   width="100"
   height="32"
   viewBox="0 0 26.458333 8.4666669"
   version="1.1"
   id="svg2174"
   inkscape:version="1.0 (1.0+r73+1)"
   sodipodi:docname="thumbnail.svg">
  <defs
     id="defs2168">
    <linearGradient
       id="selected_bg_dark"
       osb:paint="solid">
      <stop
         style="stop-color:#204a87;stop-opacity:1;"
         offset="0"
         id="stop2015" />
    </linearGradient>
    <linearGradient
       id="selected_fg_color"
       osb:paint="solid">
      <stop
         style="stop-color:#ffffffgit;stop-opacity:1;"
         offset="0"
         id="stop6555" />
    </linearGradient>
  </defs>
  <sodipodi:namedview
     id="base"
     pagecolor="#ffffff"
     bordercolor="#666666"
     borderopacity="1.0"
     inkscape:pageopacity="0.0"
     inkscape:pageshadow="2"
     inkscape:zoom="2.8"
     inkscape:cx="11.438631"
     inkscape:cy="-0.22193654"
     inkscape:document-units="mm"
     inkscape:current-layer="layer1"
     inkscape:document-rotation="0"
     showgrid="false"
     units="px"
     inkscape:window-width="1366"
     inkscape:window-height="705"
     inkscape:window-x="0"
     inkscape:window-y="0"
     inkscape:window-maximized="1" />
  <metadata
     id="metadata2171">
    <rdf:RDF>
      <cc:Work
         rdf:about="">
        <dc:format>image/svg+xml</dc:format>
        <dc:type
           rdf:resource="http://purl.org/dc/dcmitype/StillImage" />
        <dc:title />
      </cc:Work>
    </rdf:RDF>
  </metadata>
  <g
     inkscape:label="Layer 1"
     inkscape:groupmode="layer"
     id="layer1">
    <rect
       style="fill:#10151e;stroke:#ff0000;stroke-width:0;fill-opacity:1"
       id="rect2875"
       width="26.458332"
       height="8.4666653"
       x="5e-07"
       y="5e-07"
       rx="0.30782014"
       ry="0.26730999"
       inkscape:export-xdpi="96"
       inkscape:export-ydpi="96" />
    <g
       inkscape:export-ydpi="96"
       inkscape:export-xdpi="96"
       id="g1002">
      <g
         id="g1956"
         transform="matrix(-0.26458333,0,0,0.26458333,170.09934,59.834895)"
         inkscape:label="#g5828"
         style="display:inline">
        <rect
           y="-218.14763"
           x="559.89514"
           height="16"
           width="16"
           id="rect1948"
           style="fill:none;fill-opacity:1;stroke-width:0.970366" />
        <g
           transform="translate(-0.65600586,-0.11610413)"
           id="g1954">
          <circle
             style="fill:#762020;fill-opacity:1;stroke-width:1.19994"
             id="circle1950"
             cx="568.55115"
             cy="-210.03152"
             r="7" />
          <path
             inkscape:connector-curvature="0"
             id="path1952"
             d="m 565.06018,-213.50576 c 0,0 -0.0852,1.27658 0.26772,1.6295 l 1.83471,1.8347 c -0.80645,0.80645 -1.8347,1.8347 -1.8347,1.8347 -0.35613,0.35613 -0.23784,1.65939 -0.23784,1.65939 0,0 1.27659,0.0852 1.6295,-0.26774 l 1.8347,-1.8347 1.78985,1.78985 c 0.36652,0.36653 1.67435,0.31259 1.67435,0.31259 0,0 0.0869,-1.33461 -0.28268,-1.70425 l -1.78987,-1.78984 1.78987,-1.78986 c 0.36651,-0.36652 0.31257,-1.67434 0.31257,-1.67434 0,0 -1.3346,-0.0869 -1.70422,0.28268 -0.13199,0.13197 -0.97441,0.97439 -1.78987,1.78986 l -1.8347,-1.83471 c -0.35614,-0.35613 -1.65939,-0.23783 -1.65939,-0.23783 z"
             style="display:inline;fill:#d4dbe8;fill-opacity:1;stroke:#ef2929;stroke-width:0;stroke-linecap:butt;stroke-linejoin:miter;stroke-miterlimit:4;stroke-dasharray:none;stroke-opacity:1" />
        </g>
      </g>
      <g
         style="display:inline"
         id="g1975"
         transform="matrix(-0.26458333,0,0,0.26458333,160.86666,57.583341)"
         inkscape:label="#g6824">
        <rect
           style="display:inline;opacity:0.55;fill:none;fill-opacity:1;stroke-width:0.914239"
           id="rect1958"
           width="16"
           height="16"
           x="550.5"
           y="-209.63782" />
        <g
           transform="translate(3.0017743,15.028024)"
           id="g1973">
          <g
             id="g1965"
             transform="matrix(0.80812205,0,0,0.80812205,107.10929,-39.194708)">
            <g
               id="g1963"
               transform="matrix(1.1428571,0,0,1.1428571,-88.057601,18.790656)">
              <path
                 inkscape:connector-curvature="0"
                 style="opacity:1;fill:#d4dbe8;fill-opacity:1;stroke-width:0.923568"
                 d="m 512.04492,61 c -0.5551,0 -1.00195,0.44685 -1.00195,1.001953 v 5.996094 c 0,0.555103 0.44685,1.001953 1.00195,1.001953 h 5.9961 c 0.5551,0 1.00195,-0.44685 1.00195,-1.001953 V 62.001953 C 519.04297,61.44685 518.59612,61 518.04102,61 Z m 1.29297,1.724609 H 516.75 c 0.31574,0 0.56836,0.25457 0.56836,0.570313 v 3.410156 c 0,0.315743 -0.25262,0.570313 -0.56836,0.570313 h -3.41211 c -0.31574,0 -0.56836,-0.25457 -0.56836,-0.570313 v -3.410156 c 0,-0.315743 0.25262,-0.570313 0.56836,-0.570313 z"
                 transform="matrix(1.0827573,0,0,1.0827573,4.8794097,-278.9792)"
                 id="path1960" />
            </g>
          </g>
          <g
             transform="matrix(0.53612468,0,0,0.53612468,258.02784,-98.927867)"
             id="g1970"
             style="fill:#00ffff">
            <g
               transform="matrix(1.1428571,0,0,1.1428571,-88.057601,18.790656)"
               id="g1968"
               style="fill:#00ffff" />
          </g>
        </g>
      </g>
      <g
         transform="matrix(-0.26458333,0,0,0.26458333,145.39792,62.610427)"
         style="display:inline"
         id="g1989"
         inkscape:label="#g7370">
        <rect
           y="-228.63783"
           x="521.29376"
           height="16"
           width="16"
           id="rect1978"
           style="display:inline;opacity:0.55;fill:none;fill-opacity:1;stroke-width:0.914239" />
        <path
           sodipodi:nodetypes="ccccc"
           style="color:#000000;font-style:normal;font-variant:normal;font-weight:normal;font-stretch:normal;font-size:medium;line-height:normal;font-family:Sans;-inkscape-font-specification:Sans;text-indent:0;text-align:start;text-decoration:none;text-decoration-line:none;letter-spacing:normal;word-spacing:normal;text-transform:none;writing-mode:lr-tb;direction:ltr;baseline-shift:baseline;text-anchor:start;display:inline;overflow:visible;visibility:visible;opacity:1;fill:#d4dbe8;fill-opacity:1;stroke:none;stroke-width:2;marker:none;enable-background:accumulate"
           id="path1980"
           d="m 526.29376,-218.43853 v 2 h 6 v -2 z"
           inkscape:connector-curvature="0" />
      </g>
    </g>
    <g
       id="titlebutton-close-active"
       inkscape:label="#g6332"
       transform="matrix(0.26458333,0,0,0.26458333,-98.954161,51.23334)"
       style="display:inline"
       inkscape:export-xdpi="96"
       inkscape:export-ydpi="96">
      <g
         id="g4927-8-7"
         style="display:inline;opacity:1"
         transform="translate(-882,-432.63782)">
        <g
           transform="translate(-103)"
           style="display:inline;opacity:1"
           id="g4490-6-3-7">
          <g
             id="g4092-0-2-2-1"
             style="display:inline"
             transform="translate(58)" />
        </g>
        <g
           id="g4778-3-6"
           transform="translate(1323,246.86719)"
           style="fill:#ffffff;fill-opacity:1">
          <g
             style="display:inline;fill:#ffffff;fill-opacity:1"
             id="layer9-9-6-0"
             transform="translate(-60,-518)" />
          <g
             id="layer10-2-3-6"
             transform="translate(-60,-518)"
             style="fill:#ffffff;fill-opacity:1" />
          <g
             id="layer11-16-2-2"
             transform="translate(-60,-518)"
             style="fill:#ffffff;fill-opacity:1" />
          <g
             transform="matrix(0.75,0,0,0.75,2,2.0546875)"
             id="g2996-7-0"
             style="fill:#ffffff;fill-opacity:1">
            <g
               transform="translate(-60,-518)"
               id="layer12-4-6-3"
               style="fill:#ffffff;fill-opacity:1">
              <g
                 transform="translate(19,-242)"
                 id="layer4-4-1-4-1"
                 style="display:inline;fill:#ffffff;fill-opacity:1" />
            </g>
          </g>
          <g
             id="layer13-2-0-2"
             transform="translate(-60,-518)"
             style="fill:#ffffff;fill-opacity:1" />
          <g
             id="layer14-4-4-0"
             transform="translate(-60,-518)"
             style="fill:#ffffff;fill-opacity:1" />
          <g
             id="layer15-7-5-0"
             transform="translate(-60,-518)"
             style="fill:#ffffff;fill-opacity:1" />
        </g>
      </g>
      <rect
         y="-185.63782"
         x="441"
         height="16"
         width="16"
         id="rect17883-02"
         style="display:inline;opacity:1;fill:none;fill-opacity:1;stroke:none;stroke-width:1;stroke-linecap:butt;stroke-linejoin:miter;stroke-miterlimit:4;stroke-dasharray:none;stroke-dashoffset:0;stroke-opacity:0" />
    </g>
  </g>
</svg>
