<?xml version="1.0" encoding="UTF-8" standalone="no"?>
<svg
   width="16"
   height="16"
   version="1.1"
   id="svg9"
   sodipodi:docname="google-tasks-indicator-light-starred.svg"
   xml:space="preserve"
   inkscape:version="1.2.1 (9c6d41e410, 2022-07-14)"
   xmlns:inkscape="http://www.inkscape.org/namespaces/inkscape"
   xmlns:sodipodi="http://sodipodi.sourceforge.net/DTD/sodipodi-0.dtd"
   xmlns="http://www.w3.org/2000/svg"
   xmlns:svg="http://www.w3.org/2000/svg"><sodipodi:namedview
     id="namedview11"
     pagecolor="#ffffff"
     bordercolor="#000000"
     borderopacity="0.25"
     inkscape:showpageshadow="2"
     inkscape:pageopacity="0.0"
     inkscape:pagecheckerboard="0"
     inkscape:deskcolor="#d1d1d1"
     showgrid="false"
     inkscape:zoom="16.453125"
     inkscape:cx="-1.2155745"
     inkscape:cy="9.8157645"
     inkscape:current-layer="svg9" /><defs
     id="defs3"><style
       id="current-color-scheme"
       type="text/css">
   .ColorScheme-Text { color:#dfdfdf; } .ColorScheme-Highlight { color:#4285f4; }
  </style><style
       id="current-color-scheme-6"
       type="text/css">
   .ColorScheme-Text { color:#dfdfdf; } .ColorScheme-Highlight { color:#4285f4; }
  </style></defs><g
     id="g652"
     transform="translate(41.896866,-0.56980076)"><path
       style="fill:#4285f4;fill-opacity:1;stroke-width:1.15556"
       d="m -26.6353,1.9749059 c -0.451245,-0.4512685 -1.182944,-0.4512685 -1.63419,0 l -6.116251,6.1162512 -0.91623,-0.9162417 c -0.45128,-0.4512684 -1.182933,-0.4512684 -1.634213,0 -0.451268,0.45128 -0.451268,1.1829329 0,1.6342128 l 1.733337,1.7333368 c 0.216713,0.216702 0.510629,0.338452 0.817106,0.338452 0.306477,0 0.600393,-0.12175 0.817106,-0.338452 L -26.6353,3.6091186 c 0.451245,-0.4512798 0.451245,-1.1829328 0,-1.6342127 z"
       id="path303" /><path
       style="fill:#dfdfdf;fill-opacity:1;stroke-width:1.15556"
       d="m -39.585751,3.9475699 h 5.777789 c 0.638191,0 1.155558,-0.5173663 1.155558,-1.1555576 0,-0.6381914 -0.517367,-1.1555577 -1.155558,-1.1555577 h -5.777789 c -1.276394,0 -2.311115,1.034721 -2.311115,2.3111153 v 9.2444621 c 0,1.276429 1.034721,2.311115 2.311115,2.311115 h 9.244462 c 1.276429,0 2.311115,-1.034686 2.311115,-2.311115 v -2.311115 c 0,-0.638203 -0.517343,-1.1555584 -1.155557,-1.1555584 -0.638215,0 -1.155558,0.5173554 -1.155558,1.1555584 v 2.311115 h -9.244462 z"
       id="path2678" /></g></svg>
