<?xml version="1.0" encoding="UTF-8" standalone="no"?>
<svg
   width="16"
   height="16"
   version="1.1"
   id="svg9"
   sodipodi:docname="laptopdisconnected.svg"
   xml:space="preserve"
   inkscape:version="1.2.1 (9c6d41e410, 2022-07-14)"
   xmlns:inkscape="http://www.inkscape.org/namespaces/inkscape"
   xmlns:sodipodi="http://sodipodi.sourceforge.net/DTD/sodipodi-0.dtd"
   xmlns="http://www.w3.org/2000/svg"
   xmlns:svg="http://www.w3.org/2000/svg"><sodipodi:namedview
     id="namedview11"
     pagecolor="#ffffff"
     bordercolor="#000000"
     borderopacity="0.25"
     inkscape:showpageshadow="2"
     inkscape:pageopacity="0.0"
     inkscape:pagecheckerboard="0"
     inkscape:deskcolor="#d1d1d1"
     showgrid="false"
     inkscape:zoom="32.90625"
     inkscape:cx="-3.7986705"
     inkscape:cy="9.5574549"
     inkscape:current-layer="svg9" /><defs
     id="defs3"><style
       id="current-color-scheme"
       type="text/css">
   .ColorScheme-Text { color:#dfdfdf; } .ColorScheme-Highlight { color:#4285f4; } .ColorScheme-NeutralText { color:#ff9800; } .ColorScheme-PositiveText { color:#4caf50; } .ColorScheme-NegativeText { color:#f44336; }
  </style></defs><path
     style="fill:currentColor;opacity:.35"
     class="ColorScheme-Text"
     d="M 2 2 C 1.446 2 1 2.446 1 3 L 1 12 C 1 12.554 1.446 13 2 13 L 0 13 L 0 14 C 0 14.554 0.892 15 2 15 L 10 15 C 10 14.483086 10.188612 13.978203 10.554688 13.591797 A 1.0001 1.0001 0 0 1 10.572266 13.572266 L 10.644531 13.5 L 10.572266 13.427734 C 10.182753 13.038221 10 12.518095 10 12 L 3 12 L 3 4 L 13 4 L 13 10.261719 C 13.152415 10.346135 13.299045 10.44358 13.427734 10.572266 A 1.0001 1.0001 0 0 1 13.431641 10.578125 L 13.5 10.646484 L 13.568359 10.578125 A 1.0001 1.0001 0 0 1 13.572266 10.572266 C 13.974873 10.169658 14.483086 10 15 10 L 15 3 C 15 2.446 14.554 2 14 2 L 2 2 z M 6 13 L 10 13 L 10 14 L 6 14 L 6 13 z"
     id="path5" /><path
     d="m 11.833333,11 c -0.221354,0 -0.432942,0.08789 -0.589192,0.244141 -0.325521,0.32552 -0.325521,0.852864 0,1.178385 L 12.321615,13.5 11.244141,14.577474 c -0.325521,0.325521 -0.325521,0.852865 0,1.178386 0.325521,0.32552 0.852864,0.32552 1.178385,0 L 13.5,14.678385 14.577474,15.75586 c 0.325521,0.32552 0.852864,0.32552 1.178385,0 0.325521,-0.325521 0.325521,-0.852865 0,-1.178386 L 14.678385,13.5 15.755859,12.422526 c 0.325521,-0.325521 0.325521,-0.852865 0,-1.178385 C 15.599609,11.087891 15.388021,11 15.166667,11 c -0.221354,0 -0.432943,0.08789 -0.589193,0.244141 L 13.5,12.321615 12.422526,11.244141 C 12.266276,11.087891 12.054687,11 11.833333,11 Z m 0,0"
     id="path4"
     style="fill:#dfdfdf;fill-opacity:1;stroke-width:0.833333" /></svg>
