<?xml version="1.0" encoding="UTF-8" standalone="no"?>
<svg
   width="16"
   height="16"
   version="1.1"
   id="svg9"
   sodipodi:docname="mintupdate-empty.svg"
   inkscape:version="1.2.1 (9c6d41e410, 2022-07-14)"
   xml:space="preserve"
   xmlns:inkscape="http://www.inkscape.org/namespaces/inkscape"
   xmlns:sodipodi="http://sodipodi.sourceforge.net/DTD/sodipodi-0.dtd"
   xmlns="http://www.w3.org/2000/svg"
   xmlns:svg="http://www.w3.org/2000/svg"><sodipodi:namedview
     id="namedview11"
     pagecolor="#ffffff"
     bordercolor="#000000"
     borderopacity="0.25"
     inkscape:showpageshadow="2"
     inkscape:pageopacity="0.0"
     inkscape:pagecheckerboard="0"
     inkscape:deskcolor="#d1d1d1"
     showgrid="false"
     inkscape:zoom="45.387417"
     inkscape:cx="6.2682571"
     inkscape:cy="8.9562268"
     inkscape:current-layer="svg9" /><defs
     id="defs3"><style
       id="current-color-scheme"
       type="text/css">
   .ColorScheme-Text { color:#dfdfdf; } .ColorScheme-Highlight { color:#4285f4; }
  </style></defs><path
     id="path2"
     style="fill:#dfdfdf;fill-opacity:1"
     d="M 8,0 C 7.744141,0 7.4882811,0.09765644 7.2929688,0.29296875 L 5.5859375,2 H 3 C 2.4492196,2 2,2.4492196 2,3 V 5.5859375 L 0.29296875,7.2929688 c -0.39062481,0.3906246 -0.39062481,1.0234378 0,1.4140624 L 2,10.414062 V 13 c 0,0.55078 0.4492196,1 1,1 h 2.5859375 l 1.7070313,1.707031 C 7.4882806,15.90234 7.7421883,16 8,16 8.2578117,16 8.5117194,15.902344 8.7070312,15.707031 L 10.414062,14 H 13 c 0.55078,0 1,-0.44922 1,-1 v -2.585938 l 1.707031,-1.7070308 c 0.390625,-0.3906246 0.390625,-1.0234378 0,-1.4140624 L 14,5.5859375 V 3 C 14,2.4492196 13.55078,2 13,2 H 10.414062 L 8.7070312,0.29296875 C 8.5117189,0.09765644 8.255859,0 8,0 Z"
     sodipodi:nodetypes="sscsscsscssccsccsscsscsscss" /></svg>
