<?xml version="1.0" encoding="UTF-8" standalone="no"?>
<svg
   width="16"
   height="16"
   version="1.1"
   id="svg9"
   sodipodi:docname="network-cellular-signal-ok.svg"
   xml:space="preserve"
   inkscape:version="1.2.1 (9c6d41e410, 2022-07-14)"
   xmlns:inkscape="http://www.inkscape.org/namespaces/inkscape"
   xmlns:sodipodi="http://sodipodi.sourceforge.net/DTD/sodipodi-0.dtd"
   xmlns="http://www.w3.org/2000/svg"
   xmlns:svg="http://www.w3.org/2000/svg"><sodipodi:namedview
     id="namedview11"
     pagecolor="#ffffff"
     bordercolor="#000000"
     borderopacity="0.25"
     inkscape:showpageshadow="2"
     inkscape:pageopacity="0.0"
     inkscape:pagecheckerboard="0"
     inkscape:deskcolor="#d1d1d1"
     showgrid="false"
     inkscape:zoom="16.453125"
     inkscape:cx="-12.581197"
     inkscape:cy="7.019943"
     inkscape:current-layer="svg9" /><defs
     id="defs3"><style
       id="current-color-scheme"
       type="text/css">
   .ColorScheme-Text { color:#dfdfdf; } .ColorScheme-Highlight { color:#4285f4; }
  </style><style
       id="current-color-scheme-5"
       type="text/css">
   .ColorScheme-Text { color:#dfdfdf; } .ColorScheme-Highlight { color:#4285f4; }
  </style><style
       id="current-color-scheme-6"
       type="text/css">
   .ColorScheme-Text { color:#dfdfdf; } .ColorScheme-Highlight { color:#4285f4; }
  </style></defs><g
     id="g877"
     transform="translate(23.446106,0.89814821)"><path
       style="fill:#dfdfdf;fill-opacity:1"
       d="M -22.446106,9.1018516"
       id="path867" /><path
       style="fill:#dfdfdf;fill-opacity:1"
       d="m -22.446106,9.1018516 c -0.554688,0 -1,0.4453122 -1,1.0000004 v 3 c 0,0.554688 0.445312,1 1,1 h 1 c 0.554688,0 1,-0.445312 1,-1 v -3 c 0,-0.5546882 -0.445312,-1.0000004 -1,-1.0000004 z"
       id="path865" /><path
       style="fill:#dfdfdf;fill-opacity:1"
       d="m -18.446106,6.1018516 c -0.554688,0 -1,0.445312 -1,1 v 6.0000004 c 0,0.554688 0.445312,1 1,1 h 1 c 0.554688,0 1,-0.445312 1,-1 V 7.1018516 c 0,-0.554688 -0.445312,-1 -1,-1 z"
       id="path863" /><path
       style="opacity:0.3;fill:#dfdfdf;fill-opacity:1"
       d="m -14.446106,3.1018516 c -0.554688,0 -1,0.4453119 -1,1 v 9.0000004 c 0,0.554688 0.445312,1 1,1 h 1 c 0.554688,0 1,-0.445312 1,-1 V 4.1018516 c 0,-0.5546881 -0.445312,-1 -1,-1 z"
       id="path861" /><path
       style="opacity:0.3;fill:#dfdfdf;fill-opacity:1"
       d="m -10.446106,0.10185158 c -0.554688,0 -1,0.445312 -1,1.00000002 V 13.101852 c 0,0.554688 0.445312,1 1,1 h 1 c 0.554688,0 1,-0.445312 1,-1 V 1.1018516 c 0,-0.55468802 -0.445312,-1.00000002 -1,-1.00000002 z"
       id="path2" /></g></svg>
