<?xml version="1.0" encoding="UTF-8" standalone="no"?>
<svg
   width="16"
   height="16"
   version="1.1"
   id="svg9"
   sodipodi:docname="network-vpn-acquiring.svg"
   xml:space="preserve"
   inkscape:version="1.2.1 (9c6d41e410, 2022-07-14)"
   xmlns:inkscape="http://www.inkscape.org/namespaces/inkscape"
   xmlns:sodipodi="http://sodipodi.sourceforge.net/DTD/sodipodi-0.dtd"
   xmlns="http://www.w3.org/2000/svg"
   xmlns:svg="http://www.w3.org/2000/svg"><sodipodi:namedview
     id="namedview11"
     pagecolor="#ffffff"
     bordercolor="#000000"
     borderopacity="0.25"
     inkscape:showpageshadow="2"
     inkscape:pageopacity="0.0"
     inkscape:pagecheckerboard="0"
     inkscape:deskcolor="#d1d1d1"
     showgrid="false"
     inkscape:zoom="16.453125"
     inkscape:cx="-8.0835707"
     inkscape:cy="12.672365"
     inkscape:current-layer="svg9" /><defs
     id="defs3"><style
       id="current-color-scheme"
       type="text/css">
   .ColorScheme-Text { color:#dfdfdf; } .ColorScheme-Highlight { color:#4285f4; } .ColorScheme-NeutralText { color:#ff9800; } .ColorScheme-PositiveText { color:#4caf50; } .ColorScheme-NegativeText { color:#f44336; }
  </style></defs><g
     id="g247"
     style="fill:#dfdfdf;fill-opacity:1"><path
       d="M 8,1 C 6.355469,1 5,2.355469 5,4 V 5 H 7 V 4 C 7,3.4375 7.4375,3 8,3 8.5625,3 9,3.4375 9,4 v 1 h 2 V 4 C 11,2.355469 9.644531,1 8,1 Z M 4,11 v 1.011719 H 7 V 13 H 2 v 2 H 14 V 13 H 9 v -0.988281 h 3 V 11 Z m 0,0"
       fill="#2e3434"
       fill-opacity="0.34902"
       id="path2"
       style="opacity:0.3;fill:#dfdfdf;fill-opacity:1" /><path
       d="M 3,6 C 1.894531,6 1,6.894531 1,8 1,9.105469 1.894531,10 3,10 4.105469,10 5,9.105469 5,8 5,6.894531 4.105469,6 3,6 Z M 8,6 C 6.894531,6 6,6.894531 6,8 6,9.105469 6.894531,10 8,10 9.105469,10 10,9.105469 10,8 10,6.894531 9.105469,6 8,6 Z m 5,0 c -1.105469,0 -2,0.894531 -2,2 0,1.105469 0.894531,2 2,2 1.105469,0 2,-0.894531 2,-2 0,-1.105469 -0.894531,-2 -2,-2 z m 0,0"
       fill="#2e3436"
       id="path4"
       style="fill:#dfdfdf;fill-opacity:1" /></g></svg>
