<?xml version="1.0" encoding="UTF-8" standalone="no"?>
<svg
   width="16"
   height="16"
   version="1.1"
   id="svg11"
   sodipodi:docname="network-cellular-secure-signal-low.svg"
   xml:space="preserve"
   inkscape:version="1.2.1 (9c6d41e410, 2022-07-14)"
   xmlns:inkscape="http://www.inkscape.org/namespaces/inkscape"
   xmlns:sodipodi="http://sodipodi.sourceforge.net/DTD/sodipodi-0.dtd"
   xmlns="http://www.w3.org/2000/svg"
   xmlns:svg="http://www.w3.org/2000/svg"><sodipodi:namedview
     id="namedview13"
     pagecolor="#ffffff"
     bordercolor="#000000"
     borderopacity="0.25"
     inkscape:showpageshadow="2"
     inkscape:pageopacity="0.0"
     inkscape:pagecheckerboard="0"
     inkscape:deskcolor="#d1d1d1"
     showgrid="false"
     inkscape:zoom="23.268233"
     inkscape:cx="-2.9224394"
     inkscape:cy="9.7343017"
     inkscape:current-layer="svg11" /><defs
     id="defs3"><style
       id="current-color-scheme"
       type="text/css">
   .ColorScheme-Text { color:#dfdfdf; } .ColorScheme-Highlight { color:#4285f4; }
  </style><style
       id="current-color-scheme-5"
       type="text/css">
   .ColorScheme-Text { color:#dfdfdf; } .ColorScheme-Highlight { color:#4285f4; }
  </style><style
       id="current-color-scheme-6"
       type="text/css">
   .ColorScheme-Text { color:#dfdfdf; } .ColorScheme-Highlight { color:#4285f4; }
  </style></defs><g
     id="g859"
     transform="translate(0,0.5)"><path
       style="display:inline;fill:#dfdfdf;fill-opacity:1;stroke-width:0.5"
       d="m 13,8.5 c -1.108,0 -2,0.892 -2,2 v 1 H 10.5 C 10.223,11.5 10,11.723 10,12 v 3 c 0,0.277 0.223,0.5 0.5,0.5 h 5 c 0.277,0 0.5,-0.223 0.5,-0.5 v -3 c 0,-0.277 -0.223,-0.5 -0.5,-0.5 H 15 v -1 c 0,-1.108 -0.892,-2 -2,-2 z m 0,1 c 0.554,0 1,0.4459999 1,1 v 1 h -2 v -1 c 0,-0.554 0.446,-1 1,-1 z"
       id="path240" /><path
       style="display:inline;fill:#dfdfdf;fill-opacity:1"
       d="m 1,9.5 c -0.554687,0 -1,0.445314 -1,1 v 3 c 0,0.554686 0.445313,1 1,1 h 1 c 0.554687,0 1,-0.445314 1,-1 v -3 C 3,9.945314 2.554687,9.5 2,9.5 Z"
       id="path324" /><path
       style="display:inline;opacity:0.3;fill:#dfdfdf;fill-opacity:1"
       d="m 5,6.4999999 c -0.554687,0 -1,0.4453133 -1,1 V 13.5 c 0,0.554686 0.445313,1 1,1 h 1 c 0.554687,0 1,-0.445314 1,-1 V 7.4999999 c 0,-0.5546867 -0.445313,-1 -1,-1 z"
       id="path322" /><path
       style="display:inline;opacity:0.3;fill:#dfdfdf;fill-opacity:1"
       d="M 9,3.5 C 8.445313,3.5 8,3.9453132 8,4.4999999 V 13.5 c 0,0.554686 0.345704,1 0.900391,1 h 0.177734 v -3.138672 c 1.1e-5,-0.249191 0.102911,-0.626953 0.542969,-0.626953 h 0.480468 v -0.107422 h -0.002 v -0.210937 c 0,-0.751045 0.287591,-1.4324004 0.757813,-1.9414066 C 10.906025,8.4153844 10.955535,8.3527061 11,8.298828 V 4.4999999 C 10.999939,3.9453132 10.554686,3.5 10,3.5 Z"
       id="path320" /><path
       style="display:inline;opacity:0.3;fill:#dfdfdf;fill-opacity:1"
       d="m 13,0.49999995 c -0.554686,0 -1,0.4453132 -1,0.99999995 v 6.2226563 c 0.29835,-0.1052348 0.619724,-0.1640625 0.955078,-0.1640625 0.517047,0 1.000393,0.1366791 1.417969,0.375 0.233699,0.1333776 0.446722,0.2986641 0.632812,0.4902344 L 14.999959,1.5 c -4.86e-4,-0.55468665 -0.445314,-1.00000005 -1,-1.00000005 z"
       id="path2" /></g></svg>
