<?xml version="1.0" encoding="UTF-8" standalone="no"?>
<svg
   width="16"
   height="16"
   version="1.1"
   id="svg9"
   sodipodi:docname="network-cellular-acquiring.svg"
   xml:space="preserve"
   inkscape:version="1.2.1 (9c6d41e410, 2022-07-14)"
   xmlns:inkscape="http://www.inkscape.org/namespaces/inkscape"
   xmlns:sodipodi="http://sodipodi.sourceforge.net/DTD/sodipodi-0.dtd"
   xmlns="http://www.w3.org/2000/svg"
   xmlns:svg="http://www.w3.org/2000/svg"><sodipodi:namedview
     id="namedview11"
     pagecolor="#ffffff"
     bordercolor="#000000"
     borderopacity="0.25"
     inkscape:showpageshadow="2"
     inkscape:pageopacity="0.0"
     inkscape:pagecheckerboard="0"
     inkscape:deskcolor="#d1d1d1"
     showgrid="false"
     inkscape:zoom="23.268233"
     inkscape:cx="-8.1226623"
     inkscape:cy="12.828649"
     inkscape:current-layer="svg9" /><defs
     id="defs3"><style
       id="current-color-scheme"
       type="text/css">
   .ColorScheme-Text { color:#dfdfdf; } .ColorScheme-Highlight { color:#4285f4; }
  </style></defs><g
     id="g1214"
     transform="translate(35.47806,1.2096261)"><path
       d="m -22.47806,-0.2096261 c -0.554688,0 -1,0.445312 -1,1 v 3 h 1 c 0.769531,0 1.46875,0.289062 2,0.765625 v -3.765625 c 0,-0.554688 -0.445312,-1 -1,-1 z m -4,3 c -0.554688,0 -1,0.445312 -1,1 h 3 c 0,-0.554688 -0.445312,-1 -1,-1 z m -8.210938,6.023438 c -0.453124,0.097656 -0.789062,0.496093 -0.789062,0.976562 v 3.0000001 c 0,0.554688 0.445312,1 1,1 h 1 c 0.554688,0 1,-0.445312 1,-1 V 9.7903739 c -0.878906,0 -1.664062,-0.378906 -2.210938,-0.976562 z m 14.210938,0.210937 c -0.53125,0.476563 -1.230469,0.765625 -2,0.765625 h -1 v 3.0000001 c 0,0.554688 0.445312,1 1,1 h 1 c 0.554688,0 1,-0.445312 1,-1 z m -11,0.765625 v 3.0000001 c 0,0.554688 0.445312,1 1,1 h 1 c 0.554688,0 1,-0.445312 1,-1 V 9.7903739 Z m 4,0 v 3.0000001 c 0,0.554688 0.445312,1 1,1 h 1 c 0.554688,0 1,-0.445312 1,-1 V 9.7903739 Z m 0,0"
       fill="#2e3434"
       fill-opacity="0.34902"
       id="path2"
       style="opacity:0.3;fill:#dfdfdf;fill-opacity:1" /><path
       d="m -32.47806,4.7903739 c -1.105469,0 -2,0.894531 -2,2 0,1.105469 0.894531,2 2,2 1.105469,0 2,-0.894531 2,-2 0,-1.105469 -0.894531,-2 -2,-2 z m 5,0 c -1.105469,0 -2,0.894531 -2,2 0,1.105469 0.894531,2 2,2 1.105469,0 2,-0.894531 2,-2 0,-1.105469 -0.894531,-2 -2,-2 z m 5,0 c -1.105469,0 -2,0.894531 -2,2 0,1.105469 0.894531,2 2,2 1.105469,0 2,-0.894531 2,-2 0,-1.105469 -0.894531,-2 -2,-2 z m 0,0"
       fill="#2e3436"
       id="path4"
       style="fill:#dfdfdf;fill-opacity:1" /></g></svg>
