<?xml version="1.0" encoding="UTF-8" standalone="no"?>
<svg
   width="16"
   height="16"
   version="1.1"
   id="svg9"
   sodipodi:docname="network-cellular-offline.svg"
   xml:space="preserve"
   inkscape:version="1.2.1 (9c6d41e410, 2022-07-14)"
   xmlns:inkscape="http://www.inkscape.org/namespaces/inkscape"
   xmlns:sodipodi="http://sodipodi.sourceforge.net/DTD/sodipodi-0.dtd"
   xmlns="http://www.w3.org/2000/svg"
   xmlns:svg="http://www.w3.org/2000/svg"><sodipodi:namedview
     id="namedview11"
     pagecolor="#ffffff"
     bordercolor="#000000"
     borderopacity="0.25"
     inkscape:showpageshadow="2"
     inkscape:pageopacity="0.0"
     inkscape:pagecheckerboard="0"
     inkscape:deskcolor="#d1d1d1"
     showgrid="false"
     inkscape:zoom="23.268233"
     inkscape:cx="-3.7819804"
     inkscape:cy="12.656741"
     inkscape:current-layer="svg9" /><defs
     id="defs3"><style
       id="current-color-scheme"
       type="text/css">
   .ColorScheme-Text { color:#dfdfdf; } .ColorScheme-Highlight { color:#4285f4; }
  </style></defs><g
     id="g861"
     transform="translate(35.161496,3.1278693)"><path
       d="m -22.161496,-2.1278686 c -0.554688,0 -1,0.445312 -1,1 v 7.269531 c 0.148438,0.089844 0.289062,0.191407 0.414062,0.316407 l 0.414063,0.414062 h 0.34375 l 0.414063,-0.414062 c 0.375,-0.375 0.882812,-0.585938 1.414062,-0.585938 v -7 c 0,-0.554688 -0.445312,-1 -1,-1 z m -4,3 c -0.554688,0 -1,0.445312 -1,1 v 8.9999996 c 0,0.554688 0.445312,1 1,1 h 0.0078 c 0,-0.515625 0.191407,-1.027344 0.578126,-1.414062 l 0.414064,-0.414063 V 9.7002564 l -0.414062,-0.414063 c -0.773438,-0.773437 -0.773438,-2.054687 0,-2.828124 0.375,-0.375 0.882812,-0.585938 1.414062,-0.585938 v -4 c 0,-0.554688 -0.445312,-1 -1,-1 z m -4,3 c -0.554688,0 -1,0.445312 -1,1 v 5.9999996 c 0,0.554688 0.445312,1 1,1 h 1 c 0.554688,0 1,-0.445312 1,-1 V 4.8721314 c 0,-0.554688 -0.445312,-1 -1,-1 z m -4,3 c -0.554688,0 -1,0.445312 -1,1 v 2.9999996 c 0,0.554688 0.445312,1 1,1 h 1 c 0.554688,0 1,-0.445312 1,-1 V 7.8721314 c 0,-0.554688 -0.445312,-1 -1,-1 z m 0,0"
       fill="#2e3434"
       fill-opacity="0.34902"
       id="path2"
       style="opacity:0.3;fill:#dfdfdf;fill-opacity:1" /><path
       d="m -24.161496,6.8721314 c -0.265625,0 -0.519531,0.105469 -0.707031,0.292969 -0.390625,0.390625 -0.390625,1.023437 0,1.414062 l 1.292969,1.292969 -1.292969,1.2929686 c -0.390625,0.390625 -0.390625,1.023437 0,1.414062 0.390625,0.390625 1.023437,0.390625 1.414062,0 l 1.292969,-1.292969 1.292969,1.292969 c 0.390625,0.390625 1.023437,0.390625 1.414062,0 0.390625,-0.390625 0.390625,-1.023437 0,-1.414062 l -1.292969,-1.2929686 1.292969,-1.292969 c 0.390625,-0.390625 0.390625,-1.023437 0,-1.414062 -0.1875,-0.1875 -0.441406,-0.292969 -0.707031,-0.292969 -0.265625,0 -0.519531,0.105469 -0.707031,0.292969 l -1.292969,1.292969 -1.292969,-1.292969 c -0.1875,-0.1875 -0.441406,-0.292969 -0.707031,-0.292969 z m 0,0"
       fill="#2e3436"
       id="path4"
       style="fill:#dfdfdf;fill-opacity:1" /></g></svg>
