<?xml version="1.0" encoding="UTF-8" standalone="no"?>
<svg
   width="16"
   height="16"
   version="1.1"
   id="svg9"
   sodipodi:docname="network-wireless-offline.svg"
   xml:space="preserve"
   inkscape:version="1.2.1 (9c6d41e410, 2022-07-14)"
   xmlns:inkscape="http://www.inkscape.org/namespaces/inkscape"
   xmlns:sodipodi="http://sodipodi.sourceforge.net/DTD/sodipodi-0.dtd"
   xmlns="http://www.w3.org/2000/svg"
   xmlns:svg="http://www.w3.org/2000/svg"><sodipodi:namedview
     id="namedview11"
     pagecolor="#ffffff"
     bordercolor="#000000"
     borderopacity="0.25"
     inkscape:showpageshadow="2"
     inkscape:pageopacity="0.0"
     inkscape:pagecheckerboard="0"
     inkscape:deskcolor="#d1d1d1"
     showgrid="false"
     inkscape:zoom="23.268233"
     inkscape:cx="-6.016787"
     inkscape:cy="10.507889"
     inkscape:current-layer="svg9" /><defs
     id="defs3"><style
       id="current-color-scheme"
       type="text/css">
   .ColorScheme-Text { color:#dfdfdf; } .ColorScheme-Highlight { color:#4285f4; }
  </style></defs><g
     id="g861"
     transform="translate(52.246914,0.66940825)"><path
       d="m -44.247535,1.3227798 c -2.617188,0 -5.238281,0.933593 -7.195312,2.808593 l -0.496094,0.480469 c -0.398438,0.378906 -0.410156,1.011719 -0.03125,1.410156 0.382812,0.398438 1.015625,0.410156 1.414062,0.027344 l 0.5,-0.476562 c 3.085938,-2.953126 8.53125,-2.953126 11.617188,0 l 0.5,0.476562 c 0.398437,0.382812 1.03125,0.371094 1.414062,-0.027344 0.378906,-0.398437 0.367188,-1.03125 -0.03125,-1.410156 l -0.496094,-0.480469 c -1.957031,-1.875 -4.578124,-2.808593 -7.195312,-2.808593 z m -0.03125,4.007812 c -1.570312,0.011719 -3.128906,0.628906 -4.207031,1.8125 l -0.5,0.550781 c -0.375,0.40625 -0.347657,1.042969 0.0625,1.414063 0.410156,0.371094 1.042969,0.339844 1.414062,-0.070313 l 0.5,-0.542969 c 1.242188,-1.363281 3.992188,-1.492187 5.398438,-0.128906 0.121093,-0.023437 0.242187,-0.035156 0.363281,-0.035156 0.53125,0 1.039062,0.210938 1.414062,0.585938 l 0.222657,0.222656 c 0.01172,-0.011719 0.02344,-0.019532 0.03906,-0.03125 0.40625,-0.371094 0.4375,-1.007813 0.0625,-1.414063 l -0.5,-0.550781 c -1.124998,-1.230469 -2.703123,-1.824219 -4.269529,-1.8125 z m 0.03125,4 c -0.511719,0 -1.023438,0.195312 -1.414062,0.585938 -0.78125,0.7812502 -0.78125,2.0468742 0,2.8281242 0.78125,0.78125 2.046874,0.78125 2.828124,0 0.210938,-0.210937 0.359376,-0.453124 0.457032,-0.714843 l -0.285156,-0.285157 c -0.554688,-0.554687 -0.707032,-1.367187 -0.46875,-2.0703122 -0.335938,-0.226562 -0.726563,-0.34375 -1.117188,-0.34375 z m 0,0"
       fill-opacity="0.34902"
       id="path2"
       style="opacity:0.3;fill:#dfdfdf;fill-opacity:1" /><path
       d="m -41.247535,9.3305918 c -0.265625,0 -0.519531,0.105469 -0.707031,0.292969 -0.390625,0.3906252 -0.390625,1.0234372 0,1.4140622 l 1.292969,1.292969 -1.292969,1.292969 c -0.390625,0.390625 -0.390625,1.023437 0,1.414062 0.390625,0.390625 1.023437,0.390625 1.414062,0 l 1.292969,-1.292969 1.292969,1.292969 c 0.390625,0.390625 1.023437,0.390625 1.414062,0 0.390625,-0.390625 0.390625,-1.023437 0,-1.414062 l -1.292969,-1.292969 1.292969,-1.292969 c 0.390625,-0.390625 0.390625,-1.023437 0,-1.4140622 -0.1875,-0.1875 -0.441406,-0.292969 -0.707031,-0.292969 -0.265625,0 -0.519531,0.105469 -0.707031,0.292969 l -1.292969,1.2929692 -1.292969,-1.2929692 c -0.1875,-0.1875 -0.441406,-0.292969 -0.707031,-0.292969 z m 0,0"
       id="path4"
       style="fill:#dfdfdf;fill-opacity:1" /></g></svg>
