<?xml version="1.0" encoding="UTF-8" standalone="no"?>
<svg
   width="16"
   height="16"
   version="1.1"
   id="svg7"
   sodipodi:docname="network-cellular-signal-excellent.svg"
   xml:space="preserve"
   inkscape:version="1.2.1 (9c6d41e410, 2022-07-14)"
   xmlns:inkscape="http://www.inkscape.org/namespaces/inkscape"
   xmlns:sodipodi="http://sodipodi.sourceforge.net/DTD/sodipodi-0.dtd"
   xmlns="http://www.w3.org/2000/svg"
   xmlns:svg="http://www.w3.org/2000/svg"><sodipodi:namedview
     id="namedview9"
     pagecolor="#ffffff"
     bordercolor="#000000"
     borderopacity="0.25"
     inkscape:showpageshadow="2"
     inkscape:pageopacity="0.0"
     inkscape:pagecheckerboard="0"
     inkscape:deskcolor="#d1d1d1"
     showgrid="false"
     inkscape:zoom="16.453125"
     inkscape:cx="-12.338082"
     inkscape:cy="12.672365"
     inkscape:current-layer="svg7" /><defs
     id="defs3"><style
       id="current-color-scheme"
       type="text/css">
   .ColorScheme-Text { color:#dfdfdf; } .ColorScheme-Highlight { color:#4285f4; }
  </style></defs><path
     d="m 13,0.9999998 c -0.554688,0 -1,0.445312 -1,1 V 14 c 0,0.554688 0.445312,1 1,1 h 1 c 0.554688,0 1,-0.445312 1,-1 V 1.9999998 c 0,-0.554688 -0.445312,-1 -1,-1 z m -4,3 c -0.554688,0 -1,0.4453119 -1,1 V 14 c 0,0.554688 0.445312,1 1,1 h 1 c 0.554688,0 1,-0.445312 1,-1 V 4.9999998 c 0,-0.5546881 -0.445312,-1 -1,-1 z m -4,3 c -0.554688,0 -1,0.445312 -1,1 V 14 c 0,0.554688 0.445312,1 1,1 h 1 c 0.554688,0 1,-0.445312 1,-1 V 7.9999998 c 0,-0.554688 -0.445312,-1 -1,-1 z m -4,3 C 0.445312,9.9999998 0,10.445312 0,11 v 3 c 0,0.554688 0.445312,1 1,1 h 1 c 0.554688,0 1,-0.445312 1,-1 V 11 C 3,10.445312 2.554688,9.9999998 2,9.9999998 Z m 0,0"
     fill="#2e3436"
     id="path2"
     style="fill:#dfdfdf;fill-opacity:1" /></svg>
