<?xml version="1.0" encoding="UTF-8" standalone="no"?>
<svg
   width="16"
   height="16"
   version="1.1"
   id="svg13"
   sodipodi:docname="network-wireless-acquiring.svg"
   xml:space="preserve"
   inkscape:version="1.2.1 (9c6d41e410, 2022-07-14)"
   xmlns:inkscape="http://www.inkscape.org/namespaces/inkscape"
   xmlns:sodipodi="http://sodipodi.sourceforge.net/DTD/sodipodi-0.dtd"
   xmlns="http://www.w3.org/2000/svg"
   xmlns:svg="http://www.w3.org/2000/svg"><sodipodi:namedview
     id="namedview15"
     pagecolor="#ffffff"
     bordercolor="#000000"
     borderopacity="0.25"
     inkscape:showpageshadow="2"
     inkscape:pageopacity="0.0"
     inkscape:pagecheckerboard="0"
     inkscape:deskcolor="#d1d1d1"
     showgrid="false"
     inkscape:zoom="16.453125"
     inkscape:cx="-20.300095"
     inkscape:cy="9.0864197"
     inkscape:current-layer="svg13" /><defs
     id="defs3"><style
       id="current-color-scheme"
       type="text/css">
   .ColorScheme-Text { color:#dfdfdf; } .ColorScheme-Highlight { color:#4285f4; }
  </style></defs><g
     id="g1352"
     transform="translate(60.634378,5.994302)"><path
       d="m -52.63438,-3.9982077 c -2.617188,0 -5.238281,0.933593 -7.195312,2.808593 l -0.496094,0.480469 c -0.398438,0.378906 -0.410156,1.011719 -0.03125,1.410156 0.0039,0.007813 0.01172,0.011719 0.01953,0.015625 0.480469,-1.011719 1.503906,-1.707031 2.703125,-1.707031 h 0.9375 c 2.480469,-1.292969 5.644531,-1.292969 8.125,0 h 0.9375 c 1.199219,0 2.222656,0.695312 2.707031,1.707031 0.0039,-0.00781 0.01172,-0.011719 0.01563,-0.015625 0.378906,-0.398437 0.367188,-1.03125 -0.03125,-1.410156 l -0.496099,-0.480469 c -1.957031,-1.875 -4.578124,-2.808593 -7.195311,-2.808593 z m -1.730469,9.007812 c -0.441406,0.765625 -0.339843,1.757812 0.316407,2.414062 0.78125,0.78125 2.046874,0.78125 2.828124,0 0.65625,-0.65625 0.757813,-1.648437 0.316407,-2.414062 z m 0,0"
       fill="#2e3434"
       fill-opacity="0.34902"
       id="path2"
       style="opacity:0.3;fill:#dfdfdf;fill-opacity:1" /><path
       d="m -57.63438,0.0096043 c -1.105469,0 -2,0.894531 -2,2 0,1.105469 0.894531,2 2,2 1.105469,0 2,-0.894531 2,-2 0,-1.105469 -0.894531,-2 -2,-2 z m 5,0 c -1.105469,0 -2,0.894531 -2,2 0,1.105469 0.894531,2 2,2 1.105469,0 2,-0.894531 2,-2 0,-1.105469 -0.894531,-2 -2,-2 z m 5,0 c -1.105469,0 -2,0.894531 -2,2 0,1.105469 0.894531,2 2,2 1.105469,0 2,-0.894531 2,-2 0,-1.105469 -0.894531,-2 -2,-2 z m 0,0"
       fill="#2e3436"
       id="path4"
       style="fill:#dfdfdf;fill-opacity:1" /></g></svg>
