<?xml version="1.0" encoding="UTF-8" standalone="no"?>
<svg
   width="16"
   height="16"
   version="1.1"
   id="svg9"
   sodipodi:docname="network-cellular-secure-signal-excellent.svg"
   xml:space="preserve"
   inkscape:version="1.2.1 (9c6d41e410, 2022-07-14)"
   xmlns:inkscape="http://www.inkscape.org/namespaces/inkscape"
   xmlns:sodipodi="http://sodipodi.sourceforge.net/DTD/sodipodi-0.dtd"
   xmlns="http://www.w3.org/2000/svg"
   xmlns:svg="http://www.w3.org/2000/svg"><sodipodi:namedview
     id="namedview11"
     pagecolor="#ffffff"
     bordercolor="#000000"
     borderopacity="0.25"
     inkscape:showpageshadow="2"
     inkscape:pageopacity="0.0"
     inkscape:pagecheckerboard="0"
     inkscape:deskcolor="#d1d1d1"
     showgrid="false"
     inkscape:zoom="16"
     inkscape:cx="-15.5"
     inkscape:cy="9.34375"
     inkscape:current-layer="svg9"
     showguides="false"><sodipodi:guide
       position="21.9375,42.3125"
       orientation="0,-1"
       id="guide235"
       inkscape:locked="false" /></sodipodi:namedview><defs
     id="defs3"><style
       id="current-color-scheme"
       type="text/css">
   .ColorScheme-Text { color:#dfdfdf; } .ColorScheme-Highlight { color:#4285f4; }
  </style></defs><path
     style="display:inline;fill:#dfdfdf;stroke-width:0.5;fill-opacity:1"
     d="m 13,9 c -1.108,0 -2,0.892 -2,2 v 1 H 10.5 C 10.223,12 10,12.223 10,12.5 v 3 c 0,0.277 0.223,0.5 0.5,0.5 h 5 c 0.277,0 0.5,-0.223 0.5,-0.5 v -3 C 16,12.223 15.777,12 15.5,12 H 15 V 11 C 15,9.892 14.108,9 13,9 Z m 0,1 c 0.554,0 1,0.446 1,1 v 1 h -2 v -1 c 0,-0.554 0.446,-1 1,-1 z"
     id="path240" /><path
     id="path2"
     style="display:inline;fill:#dfdfdf;fill-opacity:1"
     d="M 13 1 C 12.445314 1 12 1.4453132 12 2 L 12 8.2226562 C 12.29835 8.1174215 12.619724 8.0585938 12.955078 8.0585938 C 13.472125 8.0585938 13.955471 8.1952729 14.373047 8.4335938 C 14.606746 8.5669713 14.819769 8.7322578 15.005859 8.9238281 L 15 2 C 14.999514 1.4453134 14.554686 1 14 1 L 13 1 z M 9 4 C 8.4453132 4 8 4.4453132 8 5 L 8 14 C 8 14.554686 8.3457038 15 8.9003906 15 L 9.078125 15 L 9.078125 11.861328 C 9.0781355 11.612137 9.1810363 11.234375 9.6210938 11.234375 L 10.101562 11.234375 L 10.101562 11.126953 L 10.099609 11.126953 L 10.099609 10.916016 C 10.099609 10.164971 10.3872 9.4836156 10.857422 8.9746094 C 10.906025 8.9153842 10.955535 8.8527061 11 8.7988281 L 11 5 C 10.999939 4.4453132 10.554686 4 10 4 L 9 4 z M 5 7 C 4.4453132 7 4 7.4453132 4 8 L 4 14 C 4 14.554686 4.4453132 15 5 15 L 6 15 C 6.5546868 15 7 14.554686 7 14 L 7 8 C 7 7.4453132 6.5546868 7 6 7 L 5 7 z M 1 10 C 0.4453131 10 0 10.445314 0 11 L 0 14 C 0 14.554686 0.4453131 15 1 15 L 2 15 C 2.5546868 15 3 14.554686 3 14 L 3 11 C 3 10.445314 2.5546868 10 2 10 L 1 10 z " /></svg>
