<?xml version="1.0" encoding="UTF-8" standalone="no"?>
<svg
   width="16"
   height="16"
   version="1.1"
   id="svg9"
   sodipodi:docname="smartphoneattention.svg"
   xml:space="preserve"
   inkscape:version="1.2.1 (9c6d41e410, 2022-07-14)"
   xmlns:inkscape="http://www.inkscape.org/namespaces/inkscape"
   xmlns:sodipodi="http://sodipodi.sourceforge.net/DTD/sodipodi-0.dtd"
   xmlns="http://www.w3.org/2000/svg"
   xmlns:svg="http://www.w3.org/2000/svg"><sodipodi:namedview
     id="namedview11"
     pagecolor="#ffffff"
     bordercolor="#000000"
     borderopacity="0.25"
     inkscape:showpageshadow="2"
     inkscape:pageopacity="0.0"
     inkscape:pagecheckerboard="0"
     inkscape:deskcolor="#d1d1d1"
     showgrid="false"
     inkscape:zoom="23.268233"
     inkscape:cx="-6.9193051"
     inkscape:cy="8.1871281"
     inkscape:current-layer="svg9" /><defs
     id="defs3"><style
       id="current-color-scheme"
       type="text/css">
   .ColorScheme-Text { color:#dfdfdf; } .ColorScheme-Highlight { color:#4285f4; } .ColorScheme-NeutralText { color:#ff9800; } .ColorScheme-PositiveText { color:#4caf50; } .ColorScheme-NegativeText { color:#f44336; }
  </style><style
       id="current-color-scheme-6"
       type="text/css">
   .ColorScheme-Text { color:#dfdfdf; } .ColorScheme-Highlight { color:#4285f4; }
  </style></defs><g
     id="g191"
     transform="matrix(0.4375,0,0,0.4375,1,1)"
     style="fill:#dfdfdf;fill-opacity:1"><g
       id="g136"
       style="fill:#dfdfdf;fill-opacity:1">
	<g
   id="iphone"
   style="fill:#dfdfdf;fill-opacity:1">
		<path
   id="path133"
   style="fill:#dfdfdf;fill-opacity:1"
   d="M 12 0 C 7.5820044 0 4 3.5820044 4 8 L 4 24 C 4 28.417996 7.5820044 32 12 32 L 20 32 C 20.999021 32 21.953045 31.807778 22.834821 31.473214 L 22.834821 24 L 8 24 L 8 8 C 8 5.7970022 9.7950022 4 12 4 L 20 4 C 22.202998 4 24 5.7970022 24 8 L 24 11.397321 L 28 11.397321 L 28 8 C 28 3.5820044 24.417996 0 20 0 L 12 0 z M 16 25.9375 C 17.137999 25.9375 18.0625 26.860001 18.0625 28 C 18.0625 29.139999 17.138999 30.0625 16 30.0625 C 14.861001 30.0625 13.9375 29.139999 13.9375 28 C 13.9375 26.860001 14.862001 25.9375 16 25.9375 z " />
	</g>
</g><g
       id="g138"
       style="fill:#dfdfdf;fill-opacity:1">
</g><g
       id="g140"
       style="fill:#dfdfdf;fill-opacity:1">
</g><g
       id="g142"
       style="fill:#dfdfdf;fill-opacity:1">
</g><g
       id="g144"
       style="fill:#dfdfdf;fill-opacity:1">
</g><g
       id="g146"
       style="fill:#dfdfdf;fill-opacity:1">
</g><g
       id="g148"
       style="fill:#dfdfdf;fill-opacity:1">
</g><g
       id="g150"
       style="fill:#dfdfdf;fill-opacity:1">
</g><g
       id="g152"
       style="fill:#dfdfdf;fill-opacity:1">
</g><g
       id="g154"
       style="fill:#dfdfdf;fill-opacity:1">
</g><g
       id="g156"
       style="fill:#dfdfdf;fill-opacity:1">
</g><g
       id="g158"
       style="fill:#dfdfdf;fill-opacity:1">
</g><g
       id="g160"
       style="fill:#dfdfdf;fill-opacity:1">
</g><g
       id="g162"
       style="fill:#dfdfdf;fill-opacity:1">
</g><g
       id="g164"
       style="fill:#dfdfdf;fill-opacity:1">
</g><g
       id="g166"
       style="fill:#dfdfdf;fill-opacity:1">
</g></g><g
     id="g311"
     transform="translate(5,3)"
     style="fill:#ff9800;fill-opacity:1"><path
       style="fill:#ff9800;fill-opacity:1"
       d="M 8,11"
       id="path293" /><path
       style="fill:#ff9800;fill-opacity:1"
       d="m 8,11 c 0.550781,0 1,0.449219 1,1 0,0.550781 -0.449219,1 -1,1 -0.550781,0 -1,-0.449219 -1,-1 0,-0.550781 0.449219,-1 1,-1 z"
       id="path291" /><path
       style="fill:#ff9800;fill-opacity:1"
       d="M 9,4 V 9 C 9.007812,9.527344 8.527344,10 8,10 7.472656,10 6.992188,9.527344 7,9 V 4 Z"
       id="path289" /></g></svg>
