<?xml version="1.0" encoding="UTF-8" standalone="no"?>
<!-- Generator: Adobe Illustrator 23.0.0, SVG Export Plug-In . SVG Version: 6.00 Build 0)  -->

<svg
   xmlns:dc="http://purl.org/dc/elements/1.1/"
   xmlns:cc="http://creativecommons.org/ns#"
   xmlns:rdf="http://www.w3.org/1999/02/22-rdf-syntax-ns#"
   xmlns:svg="http://www.w3.org/2000/svg"
   xmlns="http://www.w3.org/2000/svg"
   xmlns:sodipodi="http://sodipodi.sourceforge.net/DTD/sodipodi-0.dtd"
   xmlns:inkscape="http://www.inkscape.org/namespaces/inkscape"
   version="1.1"
   id="레이어_1"
   x="0px"
   y="0px"
   viewBox="0 0 16 16"
   xml:space="preserve"
   sodipodi:docname="file-roller.svg"
   width="16"
   height="16"
   inkscape:version="0.92.5 (2060ec1f9f, 2020-04-08)"><metadata
   id="metadata29"><rdf:RDF><cc:Work
       rdf:about=""><dc:format>image/svg+xml</dc:format><dc:type
         rdf:resource="http://purl.org/dc/dcmitype/StillImage" /><dc:title></dc:title></cc:Work></rdf:RDF></metadata><defs
   id="defs27"><style
     id="style836">.cls-1{fill:#363636;}</style></defs><sodipodi:namedview
   pagecolor="#ffffff"
   bordercolor="#666666"
   borderopacity="1"
   objecttolerance="10"
   gridtolerance="10"
   guidetolerance="10"
   inkscape:pageopacity="0"
   inkscape:pageshadow="2"
   inkscape:window-width="1848"
   inkscape:window-height="1052"
   id="namedview25"
   showgrid="false"
   inkscape:zoom="7.375"
   inkscape:cx="17.862028"
   inkscape:cy="57.603434"
   inkscape:window-x="72"
   inkscape:window-y="28"
   inkscape:window-maximized="1"
   inkscape:current-layer="레이어_1" />
<style
   type="text/css"
   id="style2">
	.st0{fill:#E6E6E6;}
	.st1{fill:#E7A12E;}
	.st2{fill:#FFFFFF;}
</style>


<g
   id="g14"
   transform="translate(-30.043733,-256.36108)"><path
   d="m 35.483523,258.28866 c 0.04903,0.1217 0.06163,0.23901 0.06176,0.37022 0,0.56738 -0.459956,1.02734 -1.027341,1.02734 -0.567385,0 -1.027341,-0.45996 -1.027341,-1.02734 3.08e-4,-0.13125 0.02575,-0.24855 0.07497,-0.37022 l -1.401102,-0.0127 c -0.61638,-0.006 -1.120736,0.49499 -1.120736,1.12073 v 3.10063 6.49093 c 0,0.7565 0.616332,1.37283 1.372829,1.37283 h 11.263541 c 0.756496,0 1.372865,-0.61633 1.363525,-1.37283 v -7.0606 c 0,-0.75649 -0.616514,-1.37301 -1.37301,-1.37301 h -4.706945 c -0.53235,-0.009 -0.971305,-0.44826 -0.980644,-0.98995 h -0.0095 v -0.168 c 0,-0.6164 -0.495018,-1.12652 -1.120735,-1.12073 z m -0.96558,2.3689 c 0.567385,0 1.027341,0.45996 1.027341,1.02734 0,0.56739 -0.459956,1.02734 -1.027341,1.02734 -0.567385,0 -1.027341,-0.45995 -1.027341,-1.02734 0,-0.56738 0.459956,-1.02734 1.027341,-1.02734 z m 0,3.03533 c 0.567385,0 1.027341,0.45995 1.027341,1.02734 0,0.56738 -0.459956,1.02734 -1.027341,1.02734 -0.567385,0 -1.027341,-0.45996 -1.027341,-1.02734 0,-0.56739 0.459956,-1.02734 1.027341,-1.02734 z m 0,3.03532 c 0.567385,0 1.027341,0.45996 1.027341,1.02734 0,0.56739 -0.459956,1.02735 -1.027341,1.02735 -0.567385,0 -1.027341,-0.45996 -1.027341,-1.02735 0,-0.56738 0.459956,-1.02734 1.027341,-1.02734 z"
   id="path8"
   inkscape:connector-curvature="0"
   sodipodi:nodetypes="ccsccsscssscsscccsscsssssssssssssss"
   style="fill:#363636;fill-opacity:1;stroke-width:0.09339466" />
	
	
	
</g>




</svg>