<?xml version="1.0" encoding="UTF-8" standalone="no"?>
<svg
   xmlns:dc="http://purl.org/dc/elements/1.1/"
   xmlns:cc="http://creativecommons.org/ns#"
   xmlns:rdf="http://www.w3.org/1999/02/22-rdf-syntax-ns#"
   xmlns:svg="http://www.w3.org/2000/svg"
   xmlns="http://www.w3.org/2000/svg"
   xmlns:sodipodi="http://sodipodi.sourceforge.net/DTD/sodipodi-0.dtd"
   xmlns:inkscape="http://www.inkscape.org/namespaces/inkscape"
   version="1.1"
   id="레이어_1"
   x="0px"
   y="0px"
   viewBox="0 0 16 16"
   xml:space="preserve"
   sodipodi:docname="qt.svg"
   inkscape:version="0.92.5 (2060ec1f9f, 2020-04-08)"
   width="16"
   height="16"><metadata
   id="metadata21"><rdf:RDF><cc:Work
       rdf:about=""><dc:format>image/svg+xml</dc:format><dc:type
         rdf:resource="http://purl.org/dc/dcmitype/StillImage" /><dc:title></dc:title></cc:Work></rdf:RDF></metadata><defs
   id="defs19"><linearGradient
     id="a"
     gradientTransform="matrix(0,-54.944,-54.944,0,23.62,79.474)"
     gradientUnits="userSpaceOnUse"
     x2="1"><stop
       offset="0"
       stop-color="#ff1b2d"
       id="stop2" /><stop
       offset=".3"
       stop-color="#ff1b2d"
       id="stop4" /><stop
       offset=".614"
       stop-color="#ff1b2d"
       id="stop6" /><stop
       offset="1"
       stop-color="#a70014"
       id="stop8" /></linearGradient><linearGradient
     id="b"
     gradientTransform="matrix(0,-48.595,-48.595,0,37.854,76.235)"
     gradientUnits="userSpaceOnUse"
     x2="1"><stop
       offset="0"
       stop-color="#9c0000"
       id="stop11" /><stop
       offset=".7"
       stop-color="#ff4b4b"
       id="stop13" /><stop
       offset="1"
       stop-color="#ff4b4b"
       id="stop15" /></linearGradient><linearGradient
     id="a-5"
     gradientTransform="matrix(0,152.324,-152.324,0,266.896,83.243)"
     gradientUnits="userSpaceOnUse"
     x2="1"><stop
       offset="0"
       stop-color="#36b5f5"
       id="stop2-8" /><stop
       offset=".53"
       stop-color="#6137f5"
       id="stop4-9" /><stop
       offset="1"
       stop-color="#5b0d6b"
       id="stop6-4" /></linearGradient><linearGradient
     id="b-2"
     gradientTransform="matrix(0,134.723,-134.723,0,306.36,92.221)"
     gradientUnits="userSpaceOnUse"
     x2="1"><stop
       offset="0"
       stop-color="#211060"
       id="stop9" /><stop
       offset=".51"
       stop-color="#9b32bf"
       id="stop11-7" /><stop
       offset="1"
       stop-color="#fe7a79"
       id="stop13-3" /></linearGradient><linearGradient
     id="SVGID_1_"
     gradientUnits="userSpaceOnUse"
     x1="203.5132"
     y1="1729.0183"
     x2="967.98682"
     y2="404.98169"
     gradientTransform="matrix(0.07424391,0,0,-0.07424391,43.00001,208.28802)"><stop
       offset="0"
       style="stop-color:#18884F"
       id="stop18" /><stop
       offset="0.5"
       style="stop-color:#117E43"
       id="stop20" /><stop
       offset="1"
       style="stop-color:#0B6631"
       id="stop22" /></linearGradient><linearGradient
     id="SVGID_1_-6"
     gradientUnits="userSpaceOnUse"
     x1="167.2057"
     y1="1420.9117"
     x2="795.29431"
     y2="333.08829"
     gradientTransform="matrix(0.0903654,0,0,-0.0903654,43,208.32019)"><stop
       offset="0"
       style="stop-color:#2368C4"
       id="stop20-3" /><stop
       offset="0.5"
       style="stop-color:#1A5DBE"
       id="stop22-8" /><stop
       offset="1"
       style="stop-color:#1146AC"
       id="stop24" /></linearGradient><linearGradient
     id="SVGID_1_-8"
     gradientUnits="userSpaceOnUse"
     x1="170.6454"
     y1="1450.1008"
     x2="811.65472"
     y2="339.8992"
     gradientTransform="matrix(0.08854397,0,0,-0.08854397,43,208.31662)"><stop
       offset="0"
       style="stop-color:#CA4C28"
       id="stop18-8" /><stop
       offset="0.5"
       style="stop-color:#C5401E"
       id="stop20-8" /><stop
       offset="1"
       style="stop-color:#B62F14"
       id="stop22-2" /></linearGradient><linearGradient
     id="SVGID_1_-9"
     gradientUnits="userSpaceOnUse"
     x1="177.1808"
     y1="1551.9205"
     x2="842.73962"
     y2="399.2002"
     gradientTransform="matrix(0.08527796,0,0,-0.08527796,43,212.21705)"><stop
       offset="0"
       style="stop-color:#B72C3F"
       id="stop20-1" /><stop
       offset="0.5"
       style="stop-color:#B12334"
       id="stop22-9" /><stop
       offset="1"
       style="stop-color:#9D1623"
       id="stop24-6" /></linearGradient><linearGradient
     id="a-1"
     x1="28.285999"
     y1="53.757"
     x2="70.713997"
     y2="127.243"
     gradientUnits="userSpaceOnUse"
     gradientTransform="matrix(1.3386459,0,0,1.3386459,201.97189,-20.05199)"><stop
       offset="0"
       stop-color="#1784d9"
       id="stop2-9" /><stop
       offset="0.5"
       stop-color="#107ad5"
       id="stop4-94" /><stop
       offset="1"
       stop-color="#0a63c9"
       id="stop6-0" /></linearGradient></defs><sodipodi:namedview
   pagecolor="#ffffff"
   bordercolor="#666666"
   borderopacity="1"
   objecttolerance="10"
   gridtolerance="10"
   guidetolerance="10"
   inkscape:pageopacity="0"
   inkscape:pageshadow="2"
   inkscape:window-width="1848"
   inkscape:window-height="1052"
   id="namedview17"
   showgrid="false"
   inkscape:zoom="6.640625"
   inkscape:cx="-24.429773"
   inkscape:cy="5.647217"
   inkscape:window-x="72"
   inkscape:window-y="28"
   inkscape:window-maximized="1"
   inkscape:current-layer="레이어_1" />
<style
   type="text/css"
   id="style2">
	.st0{opacity:0.1;}
	.st1{fill:#FAFAFA;}
</style>


<g
   id="g861"
   transform="matrix(0.09139289,0,0,0.09139289,-3.5653838,-4.3904639)"><path
     id="path8"
     d="m 96.416016,66.951172 c -9.85767,-0.08866 -20.225656,1.314662 -28.609375,6.861328 -7.142512,4.63238 -11.369369,12.516329 -13.923829,20.417969 -3.302513,10.505971 -4.001408,21.626911 -3.923828,32.576171 0.149611,10.12918 1.025022,20.40204 4.283204,30.05469 1.989261,5.70735 4.898867,11.32221 9.53125,15.33398 6.028745,5.25854 13.989744,7.63972 21.802734,8.57617 6.52191,0.72034 13.161721,0.80412 19.650388,-0.25976 4.7986,7.87947 9.55786,15.78717 14.33985,23.67773 5.6187,-2.57661 11.21496,-5.18183 16.82812,-7.76953 -4.46615,-7.23671 -9.02018,-14.41759 -13.48633,-21.6543 6.20605,-4.45507 10.90951,-10.87202 13.38086,-18.09765 3.69038,-10.62233 4.19434,-22.01531 4.17774,-33.16406 -0.13298,-11.07117 -1.29591,-22.31901 -5.25782,-32.736332 -2.44917,-6.34458 -6.12345,-12.478184 -11.77539,-16.451172 -7.77975,-5.602078 -17.63091,-7.248869 -27.017574,-7.365234 z m -0.988282,15.546875 c 3.619644,0.06661 7.222546,0.650859 10.595706,1.998047 4.37196,1.72883 8.08531,5.113513 10.04687,9.402344 3.00883,6.499732 4.16036,13.674622 4.74219,20.761722 0.63168,9.431 0.54436,18.95253 -0.75781,28.32812 -0.91428,5.57991 -2.21706,11.45776 -5.9961,15.85742 -3.83446,4.41628 -9.74776,6.31257 -15.421871,6.75586 -5.98441,0.43775 -12.294676,-5.1e-4 -17.697266,-2.83203 -3.1529,-1.67895 -5.829988,-4.31217 -7.392578,-7.53711 -1.895069,-3.86217 -2.936541,-8.07844 -3.667969,-12.30078 -2.205366,-13.38735 -2.737026,-27.23904 0.277344,-40.54883 1.241214,-5.020258 3.046614,-10.174392 6.714844,-13.958982 3.19169,-3.24156 7.637412,-4.914865 12.070312,-5.541016 2.138187,-0.278441 4.314542,-0.424733 6.486328,-0.384765 z"
     style="fill:#363636;fill-opacity:1;stroke-width:0.554111"
     inkscape:connector-curvature="0" /><path
     style="fill:#363636;fill-opacity:1;stroke-width:0.554111"
     id="path10-7"
     d="m 162.98112,73.457279 c 5.87359,-0.0055 11.74719,-0.0055 17.62078,0 0.0166,7.768651 -0.005,15.531771 0.0115,23.300431 7.50822,0.0115 15.01645,0 22.52467,0.005 -0.12749,5.04242 -0.26597,10.08485 -0.41004,15.12727 -7.50268,0.0166 -14.99983,-0.005 -22.50251,0.0115 0.0166,12.7335 -0.0388,25.46701 0.0278,38.20051 0.14407,3.48538 0.0666,7.16469 1.60139,10.38408 1.1193,2.48242 4.13367,3.11965 6.58839,3.20276 4.62684,-0.0166 9.24814,-0.28814 13.87498,-0.37125 0.2826,4.63238 0.55411,9.2703 0.82009,13.90268 -9.20382,1.54597 -18.86199,3.39671 -28.00485,0.50425 -3.85108,-1.14147 -7.44173,-3.69594 -9.00433,-7.50269 -2.79831,-6.47758 -3.0255,-13.68659 -3.1474,-20.6407 -0.0115,-12.56173 0,-25.11791 -0.005,-37.67964 -4.09489,-0.0115 -8.18979,0.005 -12.28468,-0.0115 -0.0115,-5.03689 -0.0115,-10.07931 0,-15.12174 4.09489,-0.0166 8.18425,0.005 12.27913,-0.0115 0.0166,-7.76865 -0.005,-15.53177 0.0115,-23.300425 z"
     inkscape:connector-curvature="0" /></g></svg>