<svg id="레이어_1" data-name="레이어 1" xmlns="http://www.w3.org/2000/svg" viewBox="0 0 16 16"><defs><style>.cls-1{fill:#363636;}</style></defs><title>user-trash-symbolic</title><path class="cls-1" d="M12.46,3.24H11.23V1.35A.85.85,0,0,0,10.38.5H5.62a.85.85,0,0,0-.85.85V3.24H2.43V4.36H3.6c.18,3.39.37,6.78.55,10.17a1.05,1.05,0,0,0,.95,1h5.74a1,1,0,0,0,.6-.25,1.08,1.08,0,0,0,.34-.72c.2-3.39.41-6.78.61-10.17h1.18V3.24ZM5.85,1.81a.31.31,0,0,1,.3-.3h3.7a.31.31,0,0,1,.3.3V3.24H5.85ZM7.08,13.27H5.8V5.47H7.08Zm3.15,0H9V5.47h1.28Z"/></svg>
