<?xml version="1.0" encoding="UTF-8" standalone="no"?>
<!-- Generator: Adobe Illustrator 23.0.0, SVG Export Plug-In . SVG Version: 6.00 Build 0)  -->

<svg
   xmlns:ns="&amp;ns_sfw;"
   xmlns:dc="http://purl.org/dc/elements/1.1/"
   xmlns:cc="http://creativecommons.org/ns#"
   xmlns:rdf="http://www.w3.org/1999/02/22-rdf-syntax-ns#"
   xmlns:svg="http://www.w3.org/2000/svg"
   xmlns="http://www.w3.org/2000/svg"
   xmlns:sodipodi="http://sodipodi.sourceforge.net/DTD/sodipodi-0.dtd"
   xmlns:inkscape="http://www.inkscape.org/namespaces/inkscape"
   version="1.1"
   id="video-x-generic"
   x="0px"
   y="0px"
   viewBox="0 0 16 16"
   xml:space="preserve"
   sodipodi:docname="video-x-generic.svg"
   width="16"
   height="16"
   inkscape:version="0.92.5 (2060ec1f9f, 2020-04-08)"><defs
   id="defs33" /><sodipodi:namedview
   pagecolor="#ffffff"
   bordercolor="#666666"
   borderopacity="1"
   objecttolerance="10"
   gridtolerance="10"
   guidetolerance="10"
   inkscape:pageopacity="0"
   inkscape:pageshadow="2"
   inkscape:window-width="1262"
   inkscape:window-height="480"
   id="namedview31"
   showgrid="false"
   inkscape:zoom="0.921875"
   inkscape:cx="136.67797"
   inkscape:cy="128"
   inkscape:window-x="72"
   inkscape:window-y="28"
   inkscape:window-maximized="0"
   inkscape:current-layer="video-x-generic" />
<style
   type="text/css"
   id="style2">
	.st0{fill:#9A80FF;}
	.st1{fill:#FFFFFF;}
</style>
<metadata
   id="metadata4">
	<ns:sfw>
		<ns:slices />
		<ns:sliceSourceBounds
   bottomLeftOrigin="true"
   height="252.1"
   width="252"
   x="2"
   y="2" />
	</ns:sfw>
<rdf:RDF><cc:Work
     rdf:about=""><dc:format>image/svg+xml</dc:format><dc:type
       rdf:resource="http://purl.org/dc/dcmitype/StillImage" /><dc:title></dc:title></cc:Work></rdf:RDF></metadata>

<g
   id="video"
   style="fill:#363636;fill-opacity:1"
   transform="matrix(0.09333333,0,0,0.09333333,-3.9466665,-3.95133)">
	<path
   class="st1"
   d="m 191.5,172.1 c 0,10.1 -8.2,18.4 -18.4,18.4 H 83.3 V 202 h 91.1 c 15.8,0 28.6,-12.8 28.6,-28.6 V 84.1 h -11.5 z"
   id="path7"
   inkscape:connector-curvature="0"
   style="fill:#363636;fill-opacity:1" />
	<path
   class="st1"
   d="M 66.4,54.1 C 59,54.1 53,60.1 53,67.5 v 134.4 h 11.5 v -9.3 -127 h 73.2 53.9 11.4 V 54.1 Z"
   id="path9"
   inkscape:connector-curvature="0"
   style="fill:#363636;fill-opacity:1" />
	<path
   class="st1"
   d="M 115.9,160.2 154.6,134 c 3.4,-2.3 3.4,-7.4 0,-9.7 L 115.9,98 c -3.9,-2.7 -9.2,0.1 -9.2,4.9 v 52.5 c 0,4.6 5.2,7.4 9.2,4.8 z m 1.5,-47.5 c 7.6,5.6 15.2,11.2 22.8,16.7 -7.6,5.3 -15.2,10.7 -22.8,16 z"
   id="path11"
   inkscape:connector-curvature="0"
   style="fill:#363636;fill-opacity:1" />
	<circle
   class="st1"
   cx="79.900002"
   cy="90.699997"
   r="6.5"
   id="circle13"
   style="fill:#363636;fill-opacity:1" />
	<circle
   class="st1"
   cx="79.900002"
   cy="115.7"
   r="6.5"
   id="circle15"
   style="fill:#363636;fill-opacity:1" />
	<circle
   class="st1"
   cx="79.900002"
   cy="140.60001"
   r="6.5"
   id="circle17"
   style="fill:#363636;fill-opacity:1" />
	<circle
   class="st1"
   cx="79.900002"
   cy="165.60001"
   r="6.5"
   id="circle19"
   style="fill:#363636;fill-opacity:1" />
	<circle
   class="st1"
   cx="175.2"
   cy="90.699997"
   r="6.5"
   id="circle21"
   style="fill:#363636;fill-opacity:1" />
	<circle
   class="st1"
   cx="175.2"
   cy="115.7"
   r="6.5"
   id="circle23"
   style="fill:#363636;fill-opacity:1" />
	<circle
   class="st1"
   cx="175.2"
   cy="140.60001"
   r="6.5"
   id="circle25"
   style="fill:#363636;fill-opacity:1" />
	<circle
   class="st1"
   cx="175.2"
   cy="165.5"
   r="6.5"
   id="circle27"
   style="fill:#363636;fill-opacity:1" />
</g>
</svg>
