<?xml version="1.0" encoding="utf-8"?>
<!-- Generator: Adobe Illustrator 23.0.0, SVG Export Plug-In . SVG Version: 6.00 Build 0)  -->
<svg version="1.1" id="레이어_1" xmlns="http://www.w3.org/2000/svg" xmlns:xlink="http://www.w3.org/1999/xlink" x="0px"
	 y="0px" viewBox="0 0 256 256" style="enable-background:new 0 0 256 256;" xml:space="preserve">
<style type="text/css">
	.st0{fill:#666666;}
	.st1{fill:#FFFFFF;}
</style>
<path class="st0" d="M251.7,90.4c-3.1-23.4-11.4-44.6-26-60.1l0,0c-15.6-14.6-36.7-22.9-60.1-26C143.2,1.3,128,2,128,2
	s-15.2-0.7-37.6,2.3C67,7.4,45.8,15.7,30.3,30.3C15.7,45.8,7.5,67,4.3,90.4c-3,22.3-2.2,37.6-2.2,37.6s-0.7,15.2,2.2,37.6
	c3.1,23.4,11.4,44.6,26,60.1l0,0c15.6,14.6,36.7,22.9,60.1,26c22.3,3,37.6,2.2,37.6,2.2s15.2,0.7,37.6-2.2
	c23.4-3.1,44.6-11.4,60.1-26l0,0c14.6-15.6,22.9-36.7,26-60.1c3-22.3,2.2-37.6,2.2-37.6S254.7,112.8,251.7,90.4"/>
<g>
	<path class="st1" d="M112.1,146.8c0-7.6,1.4-13.9,4.3-18.8c2.8-5,8-10.4,15.5-16.3c5.3-4.1,8.8-7.5,10.6-10.2
		c1.8-2.6,2.7-5.7,2.7-9.2c0-10.2-6.3-15.3-18.8-15.3c-9.3,0-19.5,3.2-30.5,9.7l-9.1-18.8c5.8-4,12.3-7.1,19.5-9.2
		c7.2-2.1,14.6-3.2,22-3.2c12.9,0,22.9,3.2,30.1,9.5c7.2,6.3,10.7,15.1,10.7,26.5c0,6.4-1.4,12-4.3,16.6c-2.8,4.6-8,9.8-15.5,15.5
		c-6.4,5-10.8,9.1-13,12.3c-2.2,3.2-3.3,7-3.3,11.5c0,1.9,0.2,5.2,0.6,9.7h-21.1C112.3,152.1,112.1,148.7,112.1,146.8z M108.7,186.4
		c0-4.5,1.3-8,3.9-10.5c2.6-2.5,6.2-3.8,10.8-3.8c4.6,0,8.2,1.3,10.8,3.8c2.6,2.5,3.9,6,3.9,10.3c0,4.5-1.3,8-3.9,10.5
		c-2.6,2.5-6.2,3.8-10.8,3.8c-4.6,0-8.3-1.3-10.8-3.8C110,194.2,108.7,190.8,108.7,186.4z"/>
</g>
</svg>
