<?xml version="1.0" encoding="utf-8"?>
<!-- Generator: Adobe Illustrator 23.0.0, SVG Export Plug-In . SVG Version: 6.00 Build 0)  -->
<svg version="1.1" id="레이어_1" xmlns="http://www.w3.org/2000/svg" xmlns:xlink="http://www.w3.org/1999/xlink" x="0px"
	 y="0px" viewBox="0 0 256 256" style="enable-background:new 0 0 256 256;" xml:space="preserve">
<style type="text/css">
	.st0{fill:#FF9933;}
	.st1{fill:#FFFFFF;}
</style>
<path class="st0" d="M251.7,90.4c-3.1-23.4-11.4-44.6-26-60.1l0,0c-15.6-14.6-36.7-22.9-60.1-26C143.2,1.3,128,2,128,2
	s-15.2-0.7-37.6,2.3C67,7.4,45.8,15.7,30.3,30.3C15.7,45.8,7.5,67,4.3,90.4c-3,22.3-2.2,37.6-2.2,37.6s-0.7,15.2,2.2,37.6
	c3.1,23.4,11.4,44.6,26,60.1l0,0c15.6,14.6,36.7,22.9,60.1,26c22.3,3,37.6,2.2,37.6,2.2s15.2,0.7,37.6-2.2
	c23.4-3.1,44.6-11.4,60.1-26l0,0c14.6-15.6,22.9-36.7,26-60.1c3-22.3,2.2-37.6,2.2-37.6S254.7,112.8,251.7,90.4"/>
<path class="st1" d="M206.4,180.6L138.5,63.2c-4.7-8.1-16.4-8.1-21.1,0L49.6,180.6c-4.7,8.1,1.2,18.2,10.5,18.2h135.6
	C205.2,198.9,211,188.8,206.4,180.6z M133.6,100l-1.9,52h-9.5l-1.9-52H133.6z M132.6,172.8c-1.4,1.3-3.3,2-5.7,2s-4.3-0.7-5.7-2
	c-1.4-1.3-2-3.1-2-5.4c0-2.4,0.7-4.2,2-5.5c1.4-1.3,3.3-2,5.7-2s4.3,0.7,5.7,2c1.4,1.3,2,3.1,2,5.4
	C134.6,169.7,133.9,171.5,132.6,172.8z"/>
</svg>
