<?xml version="1.0" encoding="utf-8"?>
<!-- Generator: Adobe Illustrator 23.0.0, SVG Export Plug-In . SVG Version: 6.00 Build 0)  -->
<svg version="1.1" id="레이어_1" xmlns="http://www.w3.org/2000/svg" xmlns:xlink="http://www.w3.org/1999/xlink" x="0px"
	 y="0px" viewBox="0 0 256 256" style="enable-background:new 0 0 256 256;" xml:space="preserve">
<style type="text/css">
	.st0{fill:#2DAB9C;}
	.st1{fill:#FFFFFF;}
</style>
<path id="SVGID_3_" class="st0" d="M251.7,90.4c-3.1-23.4-11.4-44.6-26-60.2l0,0c-15.5-14.6-36.7-22.9-60.1-26
	C143.2,1.3,128,2,128,2s-15.2-0.7-37.6,2.2C67,7.4,45.8,15.7,30.3,30.3C15.7,45.8,7.4,67,4.3,90.4c-3,22.4-2.2,37.6-2.2,37.6
	s-0.7,15.2,2.2,37.6c3.1,23.4,11.4,44.6,26,60.1l0,0c15.5,14.6,36.7,22.9,60.1,26c22.3,3,37.6,2.2,37.6,2.2s15.2,0.7,37.6-2.2
	c23.4-3.1,44.6-11.4,60.1-26l0,0c14.6-15.5,22.9-36.7,26-60.1c3-22.4,2.2-37.6,2.2-37.6S254.6,112.8,251.7,90.4"/>
<path class="st1" d="M169.5,111.3h-4.2V86c0-21-17-38-38-38s-38,17-38,38v25.3h-2.7c-9.5,0-17.3,7.7-17.3,17.3v62.2
	c0,9.5,7.7,17.3,17.3,17.3h82.9c9.5,0,17.3-7.7,17.3-17.3v-62.2C186.7,119,179,111.3,169.5,111.3z M134.9,156.3v19.1
	c0,3.8-3.1,6.9-6.9,6.9c-3.8,0-6.9-3.1-6.9-6.9v-19.1c-2.1-1.9-3.5-4.6-3.5-7.7c0-5.7,4.6-10.4,10.4-10.4s10.4,4.6,10.4,10.4
	C138.4,151.7,137,154.4,134.9,156.3z M153.2,111.3h-51.8V86c0-14.3,11.6-25.9,25.9-25.9s25.9,11.6,25.9,25.9V111.3z"/>
</svg>
