<?xml version="1.0" encoding="UTF-8" standalone="no"?>
<svg
   xmlns:dc="http://purl.org/dc/elements/1.1/"
   xmlns:cc="http://creativecommons.org/ns#"
   xmlns:rdf="http://www.w3.org/1999/02/22-rdf-syntax-ns#"
   xmlns:svg="http://www.w3.org/2000/svg"
   xmlns="http://www.w3.org/2000/svg"
   width="15.999999"
   height="16"
   viewBox="0 0 15.999999 16"
   version="1.1"
   id="svg4043">
  <defs
     id="defs4037" />
  <metadata
     id="metadata4040">
    <rdf:RDF>
      <cc:Work
         rdf:about="">
        <dc:format>image/svg+xml</dc:format>
        <dc:type
           rdf:resource="http://purl.org/dc/dcmitype/StillImage" />
        <dc:title></dc:title>
      </cc:Work>
    </rdf:RDF>
  </metadata>
  <path
     style="display:inline;fill:#241f31;fill-opacity:1;stroke-width:1;enable-background:new"
     d="M 11.75796,3.87645 11.44658,5.38 c -0.0356,0.16014 -0.18683,0.30249 -0.37367,0.30249 H 8.3682901 c -0.30249,0 -0.55161,0.24911 -0.55161,0.5516 v 0.32918 c 0,0.3025 0.24912,0.5516 0.55161,0.5516 H 10.65476 c 0.21353,0 0.39146,0.20463 0.34697,0.42705 -0.0444,0.2313103 -0.28469,1.4057003 -0.31138,1.5302503 -0.0178,0.13344 -0.16014,0.3025 -0.37367,0.3025 H 8.4483601 c -0.39146,0.008 -0.47152,0.0178 -0.70284,0.30248 -0.23132,0.2847003 -2.27758,2.8469807 -2.27758,2.8469807 -0.0178,0.0266 -0.0356,0.0178 -0.0356,-0.008 V 3.80617 c 0,-0.20463 0.16904,-0.37366 0.37367,-0.37366 H 11.41989 c 0.19572,0 0.39145,0.19573 0.33806,0.44484 m 0.40926,-1.87723 c 0,0 -5.9697399,0 -6.9305899,0 -0.95196,0 -1.23665,0.72064 -1.23665,1.17438 v 11.014221 c 0,0.54271 0.27579,0.70285 0.42704,0.76513 0.15124,0.0622 0.5516,0.10681 0.83629,-0.17794 0,0 3.29182,-3.83451 3.34519,-3.89679 0.0534,-0.0622 0.08,-0.0622 0.11564,-0.0622 0.0356,0 1.3967899,0 2.0818399,0 0.88968,0 1.05872,-0.61389 1.15658,-0.9875504 0.08,-0.3113903 0.99645,-4.7597806 1.28114,-6.1654806 0.21353,-1.0854 -0.0622,-1.6637 -1.07651,-1.6637"
     id="path2832" />
</svg>
