<?xml version="1.0" encoding="UTF-8" standalone="no"?>
<svg
   xmlns:dc="http://purl.org/dc/elements/1.1/"
   xmlns:cc="http://creativecommons.org/ns#"
   xmlns:rdf="http://www.w3.org/1999/02/22-rdf-syntax-ns#"
   xmlns:svg="http://www.w3.org/2000/svg"
   xmlns="http://www.w3.org/2000/svg"
   width="15.999999"
   height="16"
   viewBox="0 0 15.999999 16"
   version="1.1"
   id="svg4043">
  <defs
     id="defs4037">
    <clipPath
       id="clipPath16-6-3"
       clipPathUnits="userSpaceOnUse">
      <path
         id="path18-8-6"
         d="M 0,500 H 500 V 0 H 0 Z" />
    </clipPath>
  </defs>
  <metadata
     id="metadata4040">
    <rdf:RDF>
      <cc:Work
         rdf:about="">
        <dc:format>image/svg+xml</dc:format>
        <dc:type
           rdf:resource="http://purl.org/dc/dcmitype/StillImage" />
        <dc:title></dc:title>
      </cc:Work>
    </rdf:RDF>
  </metadata>
  <g
     transform="translate(2.1016948,-11.525424)"
     id="g39">
    <g
       style="display:inline;fill:#241f31;stroke-width:2.70919704;enable-background:new"
       id="g8320-9-5"
       transform="matrix(0.02978955,0,0,-0.02978955,-1.5491149,26.869493)">
      <g
         clip-path="url(#clipPath16-6-3)"
         id="g8322-0-6"
         style="fill:#241f31;stroke-width:2.70919704">
        <g
           transform="translate(372.4658,250)"
           id="g8324-6-2"
           style="fill:#241f31;stroke-width:2.70919704">
          <path
             id="path8326-8-9"
             d="m -118.88598,173.61686 c -67.97863,0 -128.60354,-39.96201 -158.10584,-98.077361 -12.07732,-23.792362 -18.98261,-50.599652 -18.98261,-79.0113817 0,-29.2644953 7.38528,-56.8553443 20.14805,-81.1760793 29.89364,-56.952368 89.79898,-95.912648 156.9404,-95.912648 44.584459,0 84.495635,17.16615 114.3960873,45.37535 34.3499467,32.40923 55.5325767,79.41862 55.5325767,131.7133773 0,11.4570534 -1.048644,22.6187537 -2.996737,33.4695197 H 34.225146 -19.392588 -118.88555 v -66.939044 h 100.99133 c -6.552753,-23.191744 -20.286593,-43.08784 -38.714612,-56.781621 -16.774911,-12.464212 -37.440039,-19.815302 -60.111658,-19.815302 -46.76317,0 -87.79205,31.203709 -102.07409,74.348974 -3.47416,10.506546 -5.32848,21.658967 -5.32848,33.3030064 0,12.7319453 2.20387,24.9636316 6.32768,36.3002736 15.13715,41.618224 55.37698,71.434946 101.07489,71.434946 25.391276,0 48.306302,-9.255141 66.022862,-24.560963 L -2.4914992,126.24333 C -32.608501,155.61831 -73.273763,173.61686 -118.88555,173.61686 Z"
             style="fill:#241f31;fill-opacity:1;fill-rule:nonzero;stroke:none;stroke-width:2.70919728" />
        </g>
        <g
           transform="translate(254.0713,324.3242)"
           id="g8328-7-1"
           style="fill:#241f31;stroke-width:2.70919704" />
        <g
           transform="translate(141.7104,192.7031)"
           id="g8332-0-7"
           style="fill:#241f31;stroke-width:2.70919704" />
        <g
           transform="translate(182.0156,224.7676)"
           id="g8336-3-9"
           style="fill:#241f31;stroke-width:2.70919704" />
      </g>
    </g>
  </g>
</svg>
