<?xml version="1.0" encoding="UTF-8" standalone="no"?>
<svg
   xmlns:dc="http://purl.org/dc/elements/1.1/"
   xmlns:cc="http://creativecommons.org/ns#"
   xmlns:rdf="http://www.w3.org/1999/02/22-rdf-syntax-ns#"
   xmlns:svg="http://www.w3.org/2000/svg"
   xmlns="http://www.w3.org/2000/svg"
   id="svg4043"
   version="1.1"
   viewBox="0 0 15.999999 16"
   height="16"
   width="15.999999">
  <defs
     id="defs4037" />
  <metadata
     id="metadata4040">
    <rdf:RDF>
      <cc:Work
         rdf:about="">
        <dc:format>image/svg+xml</dc:format>
        <dc:type
           rdf:resource="http://purl.org/dc/dcmitype/StillImage" />
        <dc:title></dc:title>
      </cc:Work>
    </rdf:RDF>
  </metadata>
  <g
     transform="translate(-460.00003,-331.99988)"
     style="display:inline;enable-background:new"
     id="g2991">
    <path
       id="path2801"
       transform="translate(460.00003,331.99988)"
       d="M 8 4 C 6.546753 4 5.278794 4.7970734 4.578125 5.9667969 C 4.0897474 5.5267299 3.4515868 5.25 2.75 5.25 C 1.24306 5.25 0 6.49306 0 8 C 0 9.50694 1.24306 10.75 2.75 10.75 C 3.4515868 10.75 4.0897474 10.47327 4.578125 10.033203 C 5.278794 11.202927 6.546753 12 8 12 C 9.453247 12 10.721206 11.202927 11.421875 10.033203 C 11.910253 10.47327 12.548413 10.75 13.25 10.75 C 14.75694 10.75 16 9.50694 16 8 C 16 6.49306 14.75694 5.25 13.25 5.25 C 12.548413 5.25 11.910253 5.5267299 11.421875 5.9667969 C 10.721206 4.7970734 9.453247 4 8 4 z M 8 6 C 9.11641 6 10 6.88359 10 8 C 10 9.11641 9.11641 10 8 10 C 6.88359 10 6 9.11641 6 8 C 6 6.88359 6.88359 6 8 6 z M 2.75 7.25 C 3.17606 7.25 3.5 7.57394 3.5 8 C 3.5 8.42606 3.17606 8.75 2.75 8.75 C 2.32394 8.75 2 8.42606 2 8 C 2 7.57394 2.32394 7.25 2.75 7.25 z M 13.25 7.25 C 13.67606 7.25 14 7.57394 14 8 C 14 8.42606 13.67606 8.75 13.25 8.75 C 12.82394 8.75 12.5 8.42606 12.5 8 C 12.5 7.57394 12.82394 7.25 13.25 7.25 z "
       style="color:#000000;font-style:normal;font-variant:normal;font-weight:normal;font-stretch:normal;font-size:medium;line-height:normal;font-family:sans-serif;font-variant-ligatures:normal;font-variant-position:normal;font-variant-caps:normal;font-variant-numeric:normal;font-variant-alternates:normal;font-feature-settings:normal;text-indent:0;text-align:start;text-decoration:none;text-decoration-line:none;text-decoration-style:solid;text-decoration-color:#000000;letter-spacing:normal;word-spacing:normal;text-transform:none;writing-mode:lr-tb;direction:ltr;text-orientation:mixed;dominant-baseline:auto;baseline-shift:baseline;text-anchor:start;white-space:normal;shape-padding:0;clip-rule:nonzero;display:inline;overflow:visible;visibility:visible;opacity:1;isolation:auto;mix-blend-mode:normal;color-interpolation:sRGB;color-interpolation-filters:linearRGB;solid-color:#000000;solid-opacity:1;vector-effect:none;fill:#241f31;fill-opacity:1;fill-rule:nonzero;stroke:none;stroke-width:1.99999988;stroke-linecap:round;stroke-linejoin:bevel;stroke-miterlimit:4;stroke-dasharray:none;stroke-dashoffset:0;stroke-opacity:1;color-rendering:auto;image-rendering:auto;shape-rendering:auto;text-rendering:auto;enable-background:accumulate" />
  </g>
</svg>
