<svg xmlns="http://www.w3.org/2000/svg" xmlns:xlink="http://www.w3.org/1999/xlink" width="16" height="16"><defs><clipPath id="b"><path d="M0 0h192v152H0z"/></clipPath><clipPath id="c"><path d="M0 0h192v152H0z"/></clipPath><clipPath id="d"><path d="M0 0h192v152H0z"/></clipPath><clipPath id="e"><path d="M0 0h192v152H0z"/></clipPath><mask id="i"><g filter="url(#a)"><path fill-opacity=".1" d="M0 0h16v16H0z"/></g></mask><mask id="g"><g filter="url(#a)"><path fill-opacity=".2" d="M0 0h16v16H0z"/></g></mask><mask id="k"><g filter="url(#a)"><path fill-opacity=".2" d="M0 0h16v16H0z"/></g></mask><mask id="m"><g filter="url(#a)"><path fill-opacity=".1" d="M0 0h16v16H0z"/></g></mask><g id="h" clip-path="url(#c)"><path d="M73.027 54.629v52.726a7.286 7.286 0 01-7.215 7.215H19.965V47.414h45.847a7.238 7.238 0 017.215 7.215zm0 0"/></g><g id="j" clip-path="url(#d)"><path d="M70.86 54.629v52.726a5.037 5.037 0 01-5.047 5.047H19.965V49.578h45.847a5.038 5.038 0 015.047 5.05zm0 0"/></g><g id="f" clip-path="url(#b)"><path d="M70.86 54.629v57.059c.003.292-.024.582-.087.867a5.007 5.007 0 01-4.96 4.18H19.965V49.577h45.847a5.038 5.038 0 015.047 5.05zm0 0"/></g><g id="l" clip-path="url(#e)"><path d="M68.695 54.629v52.726a5.04 5.04 0 01-5.05 5.047h-43.68V49.578h43.68a5.041 5.041 0 015.05 5.05zm0 0"/></g><filter id="a" filterUnits="objectBoundingBox" x="0%" y="0%" width="100%" height="100%"><feColorMatrix in="SourceGraphic" values="0 0 0 0 1 0 0 0 0 1 0 0 0 0 1 0 0 0 1 0"/></filter></defs><use xlink:href="#f" transform="translate(-168 -16)" mask="url(#g)"/><use xlink:href="#h" transform="translate(-168 -16)" mask="url(#i)"/><use xlink:href="#j" transform="translate(-168 -16)" mask="url(#k)"/><use xlink:href="#l" transform="translate(-168 -16)" mask="url(#m)"/><path d="M10.77 0c-.31 0-.606.121-.825.34L8.012 2.277v3.645c0 .273-.055.547-.157.797a2.122 2.122 0 01-.457.683 2.115 2.115 0 01-.68.453c-.25.102-.523.157-.8.157H2.285L.34 9.945c-.219.22-.34.516-.34.82v4.07A1.165 1.165 0 001.164 16l4.066.001c.31 0 .606-.121.825-.34l9.605-9.605c.219-.22.34-.516.34-.82v-4.07A1.165 1.165 0 0014.836 0zm0 0" fill="#241f31" fill-opacity=".502"/><path d="M14.836 16H10.77c-.31 0-.606-.121-.825-.34L8 13.715v-3.637C8 8.93 8.93 8 10.078 8h3.637l1.945 1.945c.219.22.34.516.34.825v4.066C16 15.48 15.48 16 14.836 16zm0 0M1.164.008C.516.008.008.516.008 1.164v4.07c0 .309.12.598.34.817l1.941 1.941h3.633c1.125 0 2.07-.945 2.07-2.07V2.289L6.051.348a1.149 1.149 0 00-.82-.34zm0 1H5.23c.036 0 .086.02.11.047h.004l1.648 1.648v3.219c0 .52-.55 1.07-1.07 1.07H2.703L1.055 5.344a.196.196 0 01-.047-.11v-4.07c0-.039.117-.156.156-.156zm0 0" fill="#241f31"/></svg>