<?xml version="1.0" encoding="UTF-8" standalone="no"?>
<svg
   width="16"
   height="16"
   version="1.1"
   id="svg2265"
   sodipodi:docname="audio-volume-low.svg"
   inkscape:version="1.2.1 (9c6d41e410, 2022-07-14)"
   xmlns:inkscape="http://www.inkscape.org/namespaces/inkscape"
   xmlns:sodipodi="http://sodipodi.sourceforge.net/DTD/sodipodi-0.dtd"
   xmlns="http://www.w3.org/2000/svg"
   xmlns:svg="http://www.w3.org/2000/svg">
  <sodipodi:namedview
     id="namedview2267"
     pagecolor="#ffffff"
     bordercolor="#000000"
     borderopacity="0.25"
     inkscape:showpageshadow="2"
     inkscape:pageopacity="0.0"
     inkscape:pagecheckerboard="0"
     inkscape:deskcolor="#d1d1d1"
     showgrid="false"
     inkscape:zoom="22.693708"
     inkscape:cx="-12.029766"
     inkscape:cy="10.24513"
     inkscape:current-layer="svg2265" />
  <defs
     id="defs2259">
    <style
       id="current-color-scheme"
       type="text/css">
   .ColorScheme-Text { color:#444444; } .ColorScheme-Highlight { color:#4285f4; }
  </style>
  </defs>
  <g
     id="g2983"
     transform="translate(23.063888,0.79587604)">
    <path
       style="fill:#444444;fill-opacity:1;stroke-width:0.964811"
       d="M -13.096578,3.3297967"
       id="path2423" />
    <path
       style="opacity:0.3;fill:#444444;fill-opacity:1;stroke-width:0.964811"
       d="m -13.096578,3.3297967 c -0.214821,-0.00754 -0.437179,0.056532 -0.62185,0.1959773 -0.25251,0.1922087 -0.380648,0.4824056 -0.380648,0.7763719 v 0.056532 c 0.01131,0.1846706 0.07161,0.3618042 0.192208,0.5163245 1.036419,1.379378 1.036419,3.2713134 0,4.6469224 -0.120601,0.158289 -0.180902,0.335423 -0.192208,0.5163252 v 0.0603 c 0,0.293967 0.128138,0.584164 0.380648,0.776372 0.425874,0.320348 1.028881,0.233665 1.349228,-0.192208 0.776371,-1.0288812 1.164557,-2.2537392 1.164557,-3.4823662 0,-1.2286272 -0.388186,-2.4534849 -1.164557,-3.4861339 -0.177133,-0.2374342 -0.448487,-0.3693422 -0.727378,-0.3844172 z"
       id="path2421" />
    <path
       style="opacity:0.3;fill:#444444;fill-opacity:1;stroke-width:0.964811"
       d="m -9.7951139,1.3813306 c -0.1846716,-0.00377 -0.3731111,0.052764 -0.5389381,0.1620584 -0.440949,0.3015035 -0.557781,0.9007409 -0.260047,1.3416905 1.7600267,2.6117738 1.7600267,6.0187633 0,8.6305375 -0.297734,0.440949 -0.180902,1.040187 0.260047,1.34169 0.440949,0.297735 1.0401874,0.180902 1.3416909,-0.260046 1.0967192,-1.631888 1.6469626,-3.5125162 1.6469626,-5.3969132 0,-1.8843966 -0.5502434,-3.7650249 -1.6469626,-5.3969123 C -9.1808013,1.5283138 -9.4860733,1.3813306 -9.7951139,1.3813306 Z"
       id="path2419" />
    <path
       style="fill:#444444;fill-opacity:1;stroke-width:0.964811"
       d="m -16.028699,0.45420695 c -0.286428,-0.00377 -0.557781,0.1206014 -0.742452,0.3391919 l -3.116792,3.51251565 h -0.964812 c -1.055262,0 -1.929622,0.8140594 -1.929622,1.9296224 v 1.9296219 c 0,1.051494 0.878129,1.9296232 1.929622,1.9296232 h 0.964812 l 3.116792,3.512515 c 0.203515,0.244972 0.474868,0.350498 0.742452,0.34673 z"
       id="path2-3" />
  </g>
</svg>
