<?xml version="1.0" encoding="UTF-8" standalone="no"?>
<svg
   width="16"
   height="16"
   version="1.1"
   id="svg3001"
   sodipodi:docname="audio-volume-medium.svg"
   xml:space="preserve"
   inkscape:version="1.2.1 (9c6d41e410, 2022-07-14)"
   xmlns:inkscape="http://www.inkscape.org/namespaces/inkscape"
   xmlns:sodipodi="http://sodipodi.sourceforge.net/DTD/sodipodi-0.dtd"
   xmlns="http://www.w3.org/2000/svg"
   xmlns:svg="http://www.w3.org/2000/svg"><sodipodi:namedview
     id="namedview3003"
     pagecolor="#ffffff"
     bordercolor="#000000"
     borderopacity="0.25"
     inkscape:showpageshadow="2"
     inkscape:pageopacity="0.0"
     inkscape:pagecheckerboard="0"
     inkscape:deskcolor="#d1d1d1"
     showgrid="false"
     inkscape:zoom="16.046875"
     inkscape:cx="-30.722493"
     inkscape:cy="7.4469328"
     inkscape:current-layer="svg3001" /><defs
     id="defs2995"><style
       id="current-color-scheme"
       type="text/css">
   .ColorScheme-Text { color:#444444; } .ColorScheme-Highlight { color:#4285f4; }
  </style><style
       id="current-color-scheme-3"
       type="text/css">
   .ColorScheme-Text { color:#444444; } .ColorScheme-Highlight { color:#4285f4; }
  </style></defs><g
     id="g3513"
     transform="translate(31.67405,0.60589095)"><path
       style="fill:#444444;fill-opacity:1;stroke-width:0.964811"
       d="M -21.706741,3.5197819"
       id="path3144" /><path
       style="fill:#444444;fill-opacity:1;stroke-width:0.964811"
       d="m -21.706741,3.5197819 c -0.214821,-0.00754 -0.437179,0.056532 -0.62185,0.1959773 -0.25251,0.1922087 -0.380648,0.4824056 -0.380648,0.776372 v 0.056532 c 0.01131,0.1846707 0.07161,0.3618042 0.192208,0.5163245 1.036419,1.379378 1.036419,3.2713129 0,4.6469222 -0.120601,0.158289 -0.180902,0.3354231 -0.192208,0.5163251 v 0.0603 c 0,0.293967 0.128138,0.584164 0.380648,0.776372 0.425874,0.320348 1.028881,0.233665 1.349229,-0.192208 0.776371,-1.0288811 1.164557,-2.2537386 1.164557,-3.4823658 0,-1.2286272 -0.388186,-2.4534849 -1.164557,-3.4861339 -0.177134,-0.2374342 -0.448487,-0.3693422 -0.727379,-0.3844174 z"
       id="path3142" /><path
       style="opacity:0.3;fill:#444444;fill-opacity:1;stroke-width:0.964811"
       d="m -18.405276,1.5713159 c -0.184672,-0.00377 -0.373111,0.052764 -0.538938,0.1620583 -0.440949,0.3015035 -0.557781,0.900741 -0.260047,1.3416906 1.760027,2.6117738 1.760027,6.0187632 0,8.6305372 -0.297734,0.440949 -0.180902,1.040187 0.260047,1.34169 0.440949,0.297735 1.040187,0.180903 1.341691,-0.260046 1.096719,-1.631887 1.646962,-3.5125159 1.646962,-5.3969127 0,-1.8843968 -0.550243,-3.7650251 -1.646962,-5.3969125 -0.18844,-0.2751217 -0.493712,-0.4221049 -0.802753,-0.4221049 z"
       id="path3140" /><path
       style="fill:#444444;fill-opacity:1;stroke-width:0.964811"
       d="m -24.638862,0.64419212 c -0.286428,-0.00377 -0.557781,0.1206014 -0.742452,0.3391919 l -3.116792,3.51251578 h -0.964812 c -1.055262,0 -1.929622,0.8140594 -1.929622,1.9296223 v 1.9296224 c 0,1.0514934 0.878129,1.9296225 1.929622,1.9296225 h 0.964812 l 3.116792,3.512516 c 0.203515,0.244971 0.474868,0.350497 0.742452,0.346729 z"
       id="path2-3" /></g></svg>
