<?xml version="1.0" encoding="UTF-8" standalone="no"?>
<svg
   width="16"
   height="16"
   version="1.1"
   id="svg17"
   sodipodi:docname="auto-type.svg"
   xml:space="preserve"
   inkscape:version="1.2.1 (9c6d41e410, 2022-07-14)"
   xmlns:inkscape="http://www.inkscape.org/namespaces/inkscape"
   xmlns:sodipodi="http://sodipodi.sourceforge.net/DTD/sodipodi-0.dtd"
   xmlns="http://www.w3.org/2000/svg"
   xmlns:svg="http://www.w3.org/2000/svg"><sodipodi:namedview
     id="namedview19"
     pagecolor="#ffffff"
     bordercolor="#000000"
     borderopacity="0.25"
     inkscape:showpageshadow="2"
     inkscape:pageopacity="0.0"
     inkscape:pagecheckerboard="0"
     inkscape:deskcolor="#d1d1d1"
     showgrid="false"
     inkscape:zoom="16.046875"
     inkscape:cx="-3.7390458"
     inkscape:cy="5.5150925"
     inkscape:current-layer="svg17" /><defs
     id="defs3"><style
       id="current-color-scheme"
       type="text/css">
   .ColorScheme-Text { color:#444444; } .ColorScheme-Highlight { color:#4285f4; }
  </style><style
       id="current-color-scheme-6"
       type="text/css">
   .ColorScheme-Text { color:#444444; } .ColorScheme-Highlight { color:#4285f4; }
  </style></defs><rect
     style="fill:currentColor"
     class="ColorScheme-Text"
     width="4"
     height="4"
     x="1"
     y="2"
     rx="1"
     ry="1"
     id="rect7" /><rect
     style="fill:currentColor"
     class="ColorScheme-Text"
     width="4"
     height="4"
     x="6"
     y="2"
     rx="1"
     ry="1"
     id="rect9" /><rect
     style="fill:currentColor"
     class="ColorScheme-Text"
     width="4"
     height="4"
     x="11"
     y="2"
     rx="1"
     ry="1"
     id="rect11" /><rect
     style="fill:currentColor"
     class="ColorScheme-Text"
     width="4"
     height="4"
     x="10"
     y="7"
     rx="1"
     ry="1"
     id="rect13" /><rect
     style="fill:currentColor"
     class="ColorScheme-Text"
     width="7"
     height="4"
     x="2"
     y="7"
     rx="1"
     ry="1"
     id="rect15" /><path
     d="m 5.000008,12 v 1 h 0.0078 c -0.0039,0.265625 0.101563,0.519531 0.285157,0.707031 l 2,2 c 0.390625,0.390625 1.023437,0.390625 1.414062,0 l 2,-2 C 10.890623,13.519531 10.996092,13.265625 10.996092,13 h 0.0039 v -1 z m 0,0"
     id="path4"
     style="fill:#444444;fill-opacity:1" /></svg>
