<?xml version="1.0" encoding="UTF-8" standalone="no"?>
<svg
   width="16"
   height="16"
   viewBox="0 0 16 16"
   version="1.1"
   id="svg7"
   sodipodi:docname="contact-new.svg"
   inkscape:version="1.2.1 (9c6d41e410, 2022-07-14)"
   xmlns:inkscape="http://www.inkscape.org/namespaces/inkscape"
   xmlns:sodipodi="http://sodipodi.sourceforge.net/DTD/sodipodi-0.dtd"
   xmlns="http://www.w3.org/2000/svg"
   xmlns:svg="http://www.w3.org/2000/svg">
  <sodipodi:namedview
     id="namedview9"
     pagecolor="#ffffff"
     bordercolor="#000000"
     borderopacity="0.25"
     inkscape:showpageshadow="2"
     inkscape:pageopacity="0.0"
     inkscape:pagecheckerboard="0"
     inkscape:deskcolor="#d1d1d1"
     showgrid="false"
     inkscape:zoom="16.046875"
     inkscape:cx="-5.7955209"
     inkscape:cy="10.313535"
     inkscape:current-layer="svg7" />
  <defs
     id="defs3">
    <style
       id="current-color-scheme"
       type="text/css">
   .ColorScheme-Text { color:#444444; } .ColorScheme-Highlight { color:#4285f4; }
  </style>
  </defs>
  <g
     id="g239">
    <path
       d="M 8,1 C 6.34375,1 5,2.34375 5,4 5,5.65625 6.34375,7 8,7 9.65625,7 11,5.65625 11,4 11,2.34375 9.65625,1 8,1 Z M 6.5,8 C 4.007812,8 2,10.007812 2,12.5 V 13 c 0,1.109375 0.890625,2 2,2 h 6 V 14 H 7 v -4 h 3 V 8.027344 C 9.835938,8.007812 9.667969,8 9.5,8 Z M 11,8 v 3 H 8 v 2 h 3 v 3 h 2 v -3 h 3 V 11 H 13 V 8 Z m 0,0"
       fill="#2e3436"
       id="path2"
       style="fill:#444444;fill-opacity:1" />
  </g>
</svg>
