<?xml version="1.0" encoding="UTF-8" standalone="no"?>
<svg
   width="16"
   height="16"
   viewBox="0 0 16 16"
   version="1.1"
   id="svg7"
   sodipodi:docname="dialog-layers.svg"
   xml:space="preserve"
   inkscape:version="1.2.1 (9c6d41e410, 2022-07-14)"
   xmlns:inkscape="http://www.inkscape.org/namespaces/inkscape"
   xmlns:sodipodi="http://sodipodi.sourceforge.net/DTD/sodipodi-0.dtd"
   xmlns="http://www.w3.org/2000/svg"
   xmlns:svg="http://www.w3.org/2000/svg"><sodipodi:namedview
     id="namedview9"
     pagecolor="#ffffff"
     bordercolor="#000000"
     borderopacity="0.25"
     inkscape:showpageshadow="2"
     inkscape:pageopacity="0.0"
     inkscape:pagecheckerboard="0"
     inkscape:deskcolor="#d1d1d1"
     showgrid="false"
     inkscape:zoom="22.693708"
     inkscape:cx="-11.016269"
     inkscape:cy="5.0895164"
     inkscape:current-layer="svg7" /><defs
     id="defs3"><style
       id="current-color-scheme"
       type="text/css">
   .ColorScheme-Text { color:#444444; } .ColorScheme-Highlight { color:#4285f4; }
  </style></defs><g
     id="g333"
     transform="matrix(0.02734375,0,0,0.02734375,1.0000273,1)"
     style="fill:#444444;fill-opacity:1"><g
       id="g242"
       style="fill:#444444;fill-opacity:1">
	<g
   id="g240"
   style="fill:#444444;fill-opacity:1">
		<path
   d="m 247.432,209.21 -55.94,-28.456 -0.003,0.001 55.936,28.454 c 1.78,0.905 3.68,1.47 5.613,1.696 -1.93,-0.226 -3.829,-0.791 -5.606,-1.695 z"
   id="path238"
   style="fill:#444444;fill-opacity:1" />
	</g>
</g><g
       id="g248"
       style="fill:#444444;fill-opacity:1">
	<g
   id="g246"
   style="fill:#444444;fill-opacity:1">
		<rect
   x="173.129"
   y="150.82401"
   width="0.003"
   height="41.183998"
   id="rect244"
   style="fill:#444444;fill-opacity:1" />
	</g>
</g><g
       id="g254"
       style="fill:#444444;fill-opacity:1">
	<g
   id="g252"
   style="fill:#444444;fill-opacity:1">
		<path
   d="M 439.198,391.621 356.165,349.872 277.4,389.475 c -6.923,3.479 -14.676,5.318 -22.423,5.318 -7.829,0 -15.656,-1.876 -22.637,-5.428 L 154.786,349.914 72.73,391.655 c -5.582,2.839 -9.097,8.571 -9.097,14.833 0,6.262 3.515,11.995 9.097,14.833 l 174.702,88.869 c 2.371,1.206 4.957,1.81 7.546,1.81 2.562,0 5.124,-0.591 7.476,-1.774 l 176.745,-88.869 c 5.62,-2.826 9.167,-8.577 9.167,-14.868 -10e-4,-6.292 -3.547,-12.042 -9.168,-14.868 z"
   id="path250"
   style="fill:#444444;fill-opacity:1" />
	</g>
</g><g
       id="g260"
       style="fill:#444444;fill-opacity:1">
	<g
   id="g258"
   style="fill:#444444;fill-opacity:1">
		<path
   d="m 439.198,241.13 -83.036,-41.751 -78.77,39.605 c -6.923,3.479 -14.676,5.318 -22.423,5.318 -7.828,0 -15.656,-1.876 -22.636,-5.428 l -77.551,-39.449 -82.053,41.739 c -5.582,2.839 -9.097,8.571 -9.097,14.833 0,6.262 3.515,11.995 9.097,14.833 l 174.701,88.869 c 2.371,1.206 4.957,1.81 7.546,1.81 2.562,0 5.124,-0.591 7.476,-1.774 l 176.745,-88.869 c 5.62,-2.826 9.167,-8.577 9.167,-14.868 0,-6.291 -3.545,-12.043 -9.166,-14.868 z"
   id="path256"
   style="fill:#444444;fill-opacity:1" />
	</g>
</g><g
       id="g266"
       style="fill:#444444;fill-opacity:1">
	<g
   id="g264"
   style="fill:#444444;fill-opacity:1">
		<path
   d="M 439.198,90.64 262.453,1.772 C 260.891,0.986 259.233,0.488 257.547,0.224 257.324,0.19 257.103,0.134 256.879,0.109 256.632,0.081 256.382,0.083 256.133,0.066 255.739,0.039 255.345,0 254.949,0 c -0.195,0 -0.388,0.027 -0.584,0.034 -2.382,0.088 -4.751,0.663 -6.933,1.774 L 72.731,90.676 c -5.582,2.839 -9.097,8.571 -9.097,14.833 0,6.262 3.515,11.995 9.097,14.833 l 82.055,41.741 36.706,18.672 55.94,28.456 c 1.777,0.904 3.676,1.469 5.605,1.695 0.645,0.075 1.293,0.114 1.94,0.114 2.562,0 5.124,-0.591 7.476,-1.774 l 176.745,-88.868 c 5.62,-2.826 9.167,-8.577 9.167,-14.868 0,-6.291 -3.546,-12.044 -9.167,-14.87 z"
   id="path262"
   style="fill:#444444;fill-opacity:1" />
	</g>
</g><g
       id="g268"
       style="fill:#444444;fill-opacity:1">
</g><g
       id="g270"
       style="fill:#444444;fill-opacity:1">
</g><g
       id="g272"
       style="fill:#444444;fill-opacity:1">
</g><g
       id="g274"
       style="fill:#444444;fill-opacity:1">
</g><g
       id="g276"
       style="fill:#444444;fill-opacity:1">
</g><g
       id="g278"
       style="fill:#444444;fill-opacity:1">
</g><g
       id="g280"
       style="fill:#444444;fill-opacity:1">
</g><g
       id="g282"
       style="fill:#444444;fill-opacity:1">
</g><g
       id="g284"
       style="fill:#444444;fill-opacity:1">
</g><g
       id="g286"
       style="fill:#444444;fill-opacity:1">
</g><g
       id="g288"
       style="fill:#444444;fill-opacity:1">
</g><g
       id="g290"
       style="fill:#444444;fill-opacity:1">
</g><g
       id="g292"
       style="fill:#444444;fill-opacity:1">
</g><g
       id="g294"
       style="fill:#444444;fill-opacity:1">
</g><g
       id="g296"
       style="fill:#444444;fill-opacity:1">
</g></g></svg>
