<?xml version="1.0" encoding="UTF-8" standalone="no"?>
<svg
   width="16"
   height="16"
   version="1.1"
   id="svg7"
   sodipodi:docname="edit-paste-in-place.svg"
   inkscape:version="1.2.1 (9c6d41e410, 2022-07-14)"
   xmlns:inkscape="http://www.inkscape.org/namespaces/inkscape"
   xmlns:sodipodi="http://sodipodi.sourceforge.net/DTD/sodipodi-0.dtd"
   xmlns="http://www.w3.org/2000/svg"
   xmlns:svg="http://www.w3.org/2000/svg">
  <sodipodi:namedview
     id="namedview9"
     pagecolor="#ffffff"
     bordercolor="#000000"
     borderopacity="0.25"
     inkscape:showpageshadow="2"
     inkscape:pageopacity="0.0"
     inkscape:pagecheckerboard="0"
     inkscape:deskcolor="#d1d1d1"
     showgrid="false"
     inkscape:zoom="16.046875"
     inkscape:cx="-1.0593963"
     inkscape:cy="13.180136"
     inkscape:current-layer="svg7" />
  <defs
     id="defs3">
    <style
       id="current-color-scheme"
       type="text/css">
   .ColorScheme-Text { color:#444444; } .ColorScheme-Highlight { color:#4285f4; }
  </style>
  </defs>
  <g
     id="g239">
    <path
       d="M 8,0 C 4.6875,0 2,2.6875 2,6 2.007812,6.710938 2.136719,7.414062 2.386719,8.078125 L 2.371094,8.074219 c 0.636718,1.988281 3.78125,5.082031 5.625,6.929687 H 8 V 15 c 1.507812,-1.507812 3.878906,-3.925781 5.046875,-5.753906 0.261719,-0.414063 0.46875,-0.808594 0.585937,-1.171875 l -0.01953,0.00391 C 13.863281,7.414062 13.996094,6.710938 14,6 14,2.6875 11.316406,0 8,0 Z M 8,3.691406 C 9.273438,3.691406 10.308594,4.726562 10.308594,6 10.308594,7.273438 9.273438,8.308594 8,8.308594 6.726562,8.304688 5.695312,7.273438 5.695312,6 5.691406,4.726562 6.726562,3.695312 8,3.691406 Z m 0,0"
       fill="#2e3436"
       id="path2"
       style="fill:#444444;fill-opacity:1" />
  </g>
</svg>
