<?xml version="1.0" encoding="UTF-8" standalone="no"?>
<svg
   width="16"
   height="16"
   viewBox="0 0 16 16"
   version="1.1"
   id="svg7"
   sodipodi:docname="edit-text-frame-update.svg"
   xml:space="preserve"
   inkscape:version="1.2.1 (9c6d41e410, 2022-07-14)"
   xmlns:inkscape="http://www.inkscape.org/namespaces/inkscape"
   xmlns:sodipodi="http://sodipodi.sourceforge.net/DTD/sodipodi-0.dtd"
   xmlns="http://www.w3.org/2000/svg"
   xmlns:svg="http://www.w3.org/2000/svg"><sodipodi:namedview
     id="namedview9"
     pagecolor="#ffffff"
     bordercolor="#000000"
     borderopacity="0.25"
     inkscape:showpageshadow="2"
     inkscape:pageopacity="0.0"
     inkscape:pagecheckerboard="0"
     inkscape:deskcolor="#d1d1d1"
     showgrid="false"
     inkscape:zoom="45.387417"
     inkscape:cx="2.8421975"
     inkscape:cy="8.2291531"
     inkscape:current-layer="svg7" /><defs
     id="defs3"><style
       id="current-color-scheme"
       type="text/css">
   .ColorScheme-Text { color:#444444; } .ColorScheme-Highlight { color:#4285f4; }
  </style></defs><g
     id="g510"><path
       style="fill:#444444;fill-opacity:1"
       d="m 9,1 v 2 h 3 v 9.996 H 4 V 6 H 2 v 8 c 0,1 1,1 1,1 h 10 c 0,0 1,0 1,-1 V 2 C 14,1 13,1 13,1 Z"
       id="path299" /><path
       d="M 2,0.9999949 V 1.9999976 H 2.0078 C 2.0039,2.2656233 2.1093633,2.5195299 2.2929577,2.7070304 l 2.0000054,2.0000058 c 0.3906259,0.3906252 1.02344,0.3906252 1.414065,0 l 2.000006,-2.0000058 c 0.183597,-0.1875005 0.289066,-0.4414071 0.289066,-0.7070328 h 0.0039 V 0.9999949 Z m 0,0"
       id="path4"
       style="fill:#444444;fill-opacity:1;stroke-width:1" /></g></svg>
