<?xml version="1.0" encoding="UTF-8" standalone="no"?>
<svg
   height="16px"
   viewBox="0 0 16 16"
   width="16px"
   version="1.1"
   id="svg4"
   sodipodi:docname="find-location-symbolic.svg"
   inkscape:version="1.2.1 (9c6d41e410, 2022-07-14)"
   xmlns:inkscape="http://www.inkscape.org/namespaces/inkscape"
   xmlns:sodipodi="http://sodipodi.sourceforge.net/DTD/sodipodi-0.dtd"
   xmlns="http://www.w3.org/2000/svg"
   xmlns:svg="http://www.w3.org/2000/svg">
  <defs
     id="defs8" />
  <sodipodi:namedview
     id="namedview6"
     pagecolor="#ffffff"
     bordercolor="#000000"
     borderopacity="0.25"
     inkscape:showpageshadow="2"
     inkscape:pageopacity="0.0"
     inkscape:pagecheckerboard="0"
     inkscape:deskcolor="#d1d1d1"
     showgrid="false"
     inkscape:zoom="64.1875"
     inkscape:cx="7.9922103"
     inkscape:cy="8.0155794"
     inkscape:current-layer="svg4" />
  <path
     d="m 8 0 c -0.554688 0 -1 0.445312 -1 1 v 1 c 0 0.03125 0 0.058594 0.003906 0.085938 c -2.507812 0.421874 -4.492187 2.410156 -4.914062 4.917968 c -0.03125 -0.003906 -0.058594 -0.003906 -0.089844 -0.003906 h -1 c -0.554688 0 -1 0.445312 -1 1 s 0.445312 1 1 1 h 1 c 0.03125 0 0.058594 0 0.089844 -0.003906 c 0.421875 2.507812 2.40625 4.496094 4.914062 4.917968 c 0 0.027344 -0.003906 0.054688 -0.003906 0.085938 v 1 c 0 0.554688 0.445312 1 1 1 s 1 -0.445312 1 -1 v -1 c 0 -0.03125 0 -0.058594 -0.003906 -0.085938 c 2.507812 -0.421874 4.496094 -2.410156 4.917968 -4.917968 c 0.03125 0 0.058594 0.003906 0.085938 0.003906 h 1 c 0.554688 0 1 -0.445312 1 -1 s -0.445312 -1 -1 -1 h -1 c -0.027344 0 -0.054688 0 -0.085938 0.003906 c -0.421874 -2.507812 -2.410156 -4.496094 -4.917968 -4.917968 c 0 -0.027344 0.003906 -0.058594 0.003906 -0.085938 v -1 c 0 -0.554688 -0.445312 -1 -1 -1 z m 0.003906 4 c 2.199219 0 4 1.796875 4 4 s -1.800781 4 -4 4 c -2.203125 0 -4 -1.796875 -4 -4 s 1.796875 -4 4 -4 z m -0.003906 2 c -1.105469 0 -2 0.894531 -2 2 s 0.894531 2 2 2 s 2 -0.894531 2 -2 s -0.894531 -2 -2 -2 z m 0 0"
     fill="#2e3436"
     id="path2"
     style="fill:#444444;fill-opacity:1" />
</svg>
