<?xml version="1.0" encoding="UTF-8" standalone="no"?>
<svg
   width="16"
   height="16"
   viewBox="0 0 16 16"
   version="1.1"
   id="svg9"
   sodipodi:docname="flag-green.svg"
   xml:space="preserve"
   inkscape:version="1.2.1 (9c6d41e410, 2022-07-14)"
   xmlns:inkscape="http://www.inkscape.org/namespaces/inkscape"
   xmlns:sodipodi="http://sodipodi.sourceforge.net/DTD/sodipodi-0.dtd"
   xmlns="http://www.w3.org/2000/svg"
   xmlns:svg="http://www.w3.org/2000/svg"><sodipodi:namedview
     id="namedview11"
     pagecolor="#ffffff"
     bordercolor="#000000"
     borderopacity="0.25"
     inkscape:showpageshadow="2"
     inkscape:pageopacity="0.0"
     inkscape:pagecheckerboard="0"
     inkscape:deskcolor="#d1d1d1"
     showgrid="false"
     inkscape:zoom="22.693708"
     inkscape:cx="-11.28066"
     inkscape:cy="12.492449"
     inkscape:current-layer="svg9" /><defs
     id="defs3"><style
       id="current-color-scheme"
       type="text/css">
   .ColorScheme-Text { color:#444444; } .ColorScheme-Highlight { color:#4285f4; }
  </style><style
       id="current-color-scheme-53"
       type="text/css">
   .ColorScheme-Text { color:#444444; } .ColorScheme-Highlight { color:#4285f4; }
  </style><style
       id="current-color-scheme-5"
       type="text/css">
   .ColorScheme-Text { color:#444444; } .ColorScheme-Highlight { color:#4285f4; }
  </style><style
       id="current-color-scheme-6"
       type="text/css">
   .ColorScheme-Text { color:#444444; } .ColorScheme-Highlight { color:#4285f4; }
  </style></defs><g
     id="g639"
     transform="translate(40.691146,-0.1961042)"><path
       id="path353"
       style="fill:#75e73c;fill-opacity:1;stroke-width:0.0348582"
       d="m -35.900131,1.3425888 v 6.4140625 h 3.835938 v 0.8261719 c 0,0.641145 0.519011,1.1601561 1.160156,1.1601561 h 3.013672 c 0.641145,0 1.160156,-0.5190111 1.160156,-1.1601561 V 4.4910263 c 0,-0.6411455 -0.519011,-1.1621094 -1.160156,-1.1621094 h -2.103516 V 2.5046982 c 0,-0.6411455 -0.519011,-1.1621094 -1.160156,-1.1621094 z" /><path
       id="path566"
       style="fill:#444444;fill-opacity:1;stroke-width:0.0348582"
       d="m -35.900131,1.0886825 c 0,-0.4923012 -0.400276,-0.8925781 -0.892578,-0.8925781 -0.492301,0 -0.890625,0.4002769 -0.890625,0.8925781 V 14.158995 h -0.488281 c -0.56282,0 -1.019531,0.456712 -1.019531,1.019531 0,0.562819 0.456711,1.017578 1.019531,1.017578 h 2.759765 c 0.562819,0 1.019532,-0.454724 1.019532,-1.017578 0,-0.562819 -0.456713,-1.019531 -1.019532,-1.019531 h -0.488281 V 10.680479 7.7566513 1.3425888 Z" /></g><g
     id="g359"
     transform="matrix(0.0348647,0,0,0.0348647,-185.48314,-16.691099)">
</g><g
     id="g361"
     transform="matrix(0.0348647,0,0,0.0348647,-185.48314,-16.691099)">
</g><g
     id="g363"
     transform="matrix(0.0348647,0,0,0.0348647,-185.48314,-16.691099)">
</g><g
     id="g365"
     transform="matrix(0.0348647,0,0,0.0348647,-185.48314,-16.691099)">
</g><g
     id="g367"
     transform="matrix(0.0348647,0,0,0.0348647,-185.48314,-16.691099)">
</g><g
     id="g369"
     transform="matrix(0.0348647,0,0,0.0348647,-185.48314,-16.691099)">
</g><g
     id="g371"
     transform="matrix(0.0348647,0,0,0.0348647,-185.48314,-16.691099)">
</g><g
     id="g373"
     transform="matrix(0.0348647,0,0,0.0348647,-185.48314,-16.691099)">
</g><g
     id="g375"
     transform="matrix(0.0348647,0,0,0.0348647,-185.48314,-16.691099)">
</g><g
     id="g377"
     transform="matrix(0.0348647,0,0,0.0348647,-185.48314,-16.691099)">
</g><g
     id="g379"
     transform="matrix(0.0348647,0,0,0.0348647,-185.48314,-16.691099)">
</g><g
     id="g381"
     transform="matrix(0.0348647,0,0,0.0348647,-185.48314,-16.691099)">
</g><g
     id="g383"
     transform="matrix(0.0348647,0,0,0.0348647,-185.48314,-16.691099)">
</g><g
     id="g385"
     transform="matrix(0.0348647,0,0,0.0348647,-185.48314,-16.691099)">
</g><g
     id="g387"
     transform="matrix(0.0348647,0,0,0.0348647,-185.48314,-16.691099)">
</g></svg>
