<?xml version="1.0" encoding="UTF-8" standalone="no"?>
<svg
   width="16"
   height="16"
   viewBox="0 0 16 16"
   version="1.1"
   id="svg7"
   sodipodi:docname="flag-new.svg"
   xml:space="preserve"
   inkscape:version="1.2.1 (9c6d41e410, 2022-07-14)"
   xmlns:inkscape="http://www.inkscape.org/namespaces/inkscape"
   xmlns:sodipodi="http://sodipodi.sourceforge.net/DTD/sodipodi-0.dtd"
   xmlns="http://www.w3.org/2000/svg"
   xmlns:svg="http://www.w3.org/2000/svg"><sodipodi:namedview
     id="namedview9"
     pagecolor="#ffffff"
     bordercolor="#000000"
     borderopacity="0.25"
     inkscape:showpageshadow="2"
     inkscape:pageopacity="0.0"
     inkscape:pagecheckerboard="0"
     inkscape:deskcolor="#d1d1d1"
     showgrid="false"
     inkscape:zoom="16.046875"
     inkscape:cx="-12.463486"
     inkscape:cy="9.6903603"
     inkscape:current-layer="svg7" /><defs
     id="defs3"><style
   id="current-color-scheme"
   type="text/css">
   .ColorScheme-Text { color:#444444; } .ColorScheme-Highlight { color:#4285f4; }
  </style>
	

		
	


	














		
	</defs><g
     id="g571"
     transform="translate(28.646484,-0.86132806)"
     style="fill:#444444;fill-opacity:1"><path
       id="path353"
       style="stroke-width:0.0348582;fill:#444444;fill-opacity:1"
       d="M -23.855469,2.0078125 V 8.421875 h 3.835938 v 0.8261719 c 0,0.641145 0.519011,1.1601561 1.160156,1.1601561 h 3.013672 c 0.641145,0 1.160156,-0.5190111 1.160156,-1.1601561 V 5.15625 c 0,-0.6411455 -0.519011,-1.1621094 -1.160156,-1.1621094 h -2.103516 V 3.1699219 c 0,-0.6411455 -0.519011,-1.1621094 -1.160156,-1.1621094 z" /><path
       id="path566"
       style="stroke-width:0.0348582;fill:#444444;fill-opacity:1"
       d="m -23.855469,1.7539062 c 0,-0.4923012 -0.400276,-0.89257807 -0.892578,-0.89257808 -0.492301,0 -0.890625,0.40027688 -0.890625,0.89257808 V 14.824219 h -0.488281 c -0.56282,0 -1.019531,0.456712 -1.019531,1.019531 0,0.562819 0.456711,1.017578 1.019531,1.017578 h 2.759765 c 0.562819,0 1.019532,-0.454724 1.019532,-1.017578 0,-0.562819 -0.456713,-1.019531 -1.019532,-1.019531 h -0.488281 V 11.345703 8.421875 2.0078125 Z" /></g><g
     id="g359"
     transform="matrix(0.0348647,0,0,0.0348647,-48.09565,-4.6601588)">
</g><g
     id="g361"
     transform="matrix(0.0348647,0,0,0.0348647,-48.09565,-4.6601588)">
</g><g
     id="g363"
     transform="matrix(0.0348647,0,0,0.0348647,-48.09565,-4.6601588)">
</g><g
     id="g365"
     transform="matrix(0.0348647,0,0,0.0348647,-48.09565,-4.6601588)">
</g><g
     id="g367"
     transform="matrix(0.0348647,0,0,0.0348647,-48.09565,-4.6601588)">
</g><g
     id="g369"
     transform="matrix(0.0348647,0,0,0.0348647,-48.09565,-4.6601588)">
</g><g
     id="g371"
     transform="matrix(0.0348647,0,0,0.0348647,-48.09565,-4.6601588)">
</g><g
     id="g373"
     transform="matrix(0.0348647,0,0,0.0348647,-48.09565,-4.6601588)">
</g><g
     id="g375"
     transform="matrix(0.0348647,0,0,0.0348647,-48.09565,-4.6601588)">
</g><g
     id="g377"
     transform="matrix(0.0348647,0,0,0.0348647,-48.09565,-4.6601588)">
</g><g
     id="g379"
     transform="matrix(0.0348647,0,0,0.0348647,-48.09565,-4.6601588)">
</g><g
     id="g381"
     transform="matrix(0.0348647,0,0,0.0348647,-48.09565,-4.6601588)">
</g><g
     id="g383"
     transform="matrix(0.0348647,0,0,0.0348647,-48.09565,-4.6601588)">
</g><g
     id="g385"
     transform="matrix(0.0348647,0,0,0.0348647,-48.09565,-4.6601588)">
</g><g
     id="g387"
     transform="matrix(0.0348647,0,0,0.0348647,-48.09565,-4.6601588)">
</g></svg>
