<?xml version="1.0" encoding="UTF-8" standalone="no"?>
<svg
   width="16"
   height="16"
   version="1.1"
   viewBox="0 0 16 16"
   id="svg9"
   sodipodi:docname="format-font-size-less.svg"
   xml:space="preserve"
   inkscape:version="1.2.1 (9c6d41e410, 2022-07-14)"
   xmlns:inkscape="http://www.inkscape.org/namespaces/inkscape"
   xmlns:sodipodi="http://sodipodi.sourceforge.net/DTD/sodipodi-0.dtd"
   xmlns="http://www.w3.org/2000/svg"
   xmlns:svg="http://www.w3.org/2000/svg"><sodipodi:namedview
     id="namedview11"
     pagecolor="#ffffff"
     bordercolor="#000000"
     borderopacity="0.25"
     inkscape:showpageshadow="2"
     inkscape:pageopacity="0.0"
     inkscape:pagecheckerboard="0"
     inkscape:deskcolor="#d1d1d1"
     showgrid="false"
     inkscape:zoom="16.046875"
     inkscape:cx="-20.814022"
     inkscape:cy="11.123661"
     inkscape:current-layer="svg9" /><defs
     id="defs3"><style
       id="current-color-scheme"
       type="text/css">
   .ColorScheme-Text { color:#444444; } .ColorScheme-Highlight { color:#4285f4; }
  </style></defs><path
     id="path5"
     style="fill:currentColor"
     class="ColorScheme-Text"
     d="M 6 1 L 1 15 L 3.5 15 L 4.5625 12 L 8.8007812 12 L 8.8007812 11.199219 C 8.8007812 11.043785 8.8395928 10.900497 8.9023438 10.769531 C 8.9027683 10.768351 8.9019129 10.766804 8.9023438 10.765625 C 9.0328195 10.408595 9.4516857 10.123297 10 10.123047 L 11.441406 10.123047 L 8 1 L 6 1 z M 7 5 L 8.75 10 L 5.25 10 L 7 5 z " /><path
     style="fill:#444444;fill-opacity:1"
     d="m 16,11 h -6 v 1 h 0.0078 c -0.0039,0.265625 0.101563,0.519531 0.285157,0.707031 l 2,2 c 0.390625,0.390625 1.023437,0.390625 1.414062,0 l 2,-2 C 15.890625,12.519531 15.996094,12.265625 15.996094,12 h 0.0039 z"
     id="path301" /></svg>
