<?xml version="1.0" encoding="UTF-8" standalone="no"?>
<svg
   width="16"
   height="16"
   viewBox="0 0 16 16"
   version="1.1"
   id="svg7"
   sodipodi:docname="help-contents.svg"
   xml:space="preserve"
   inkscape:version="1.2.1 (9c6d41e410, 2022-07-14)"
   xmlns:inkscape="http://www.inkscape.org/namespaces/inkscape"
   xmlns:sodipodi="http://sodipodi.sourceforge.net/DTD/sodipodi-0.dtd"
   xmlns="http://www.w3.org/2000/svg"
   xmlns:svg="http://www.w3.org/2000/svg"><sodipodi:namedview
     id="namedview9"
     pagecolor="#ffffff"
     bordercolor="#000000"
     borderopacity="0.25"
     inkscape:showpageshadow="2"
     inkscape:pageopacity="0.0"
     inkscape:pagecheckerboard="0"
     inkscape:deskcolor="#d1d1d1"
     showgrid="false"
     inkscape:zoom="11.346854"
     inkscape:cx="-10.487488"
     inkscape:cy="1.5422777"
     inkscape:current-layer="svg7" /><defs
     id="defs3"><style
       id="current-color-scheme"
       type="text/css">
   .ColorScheme-Text { color:#444444; } .ColorScheme-Highlight { color:#4285f4; }
  </style></defs><path
     d="M 8.2138439,1.0061227 C 7.6011331,0.97329975 6.982952,1.0717717 6.3921223,1.3179498 4.8275222,1.9634838 3.7990434,3.5007311 3.7990434,5.1966276 h 2.8009637 c 0,-0.5689457 0.3391799,-1.077714 0.8643605,-1.2965393 C 7.9950186,3.6867332 8.5913172,3.8016163 8.990673,4.2064437 9.3955004,4.6112696 9.5158537,5.2075683 9.2970284,5.732749 9.0782031,6.2579297 8.5749049,6.5971095 8.0004889,6.5971095 c -0.7713588,0 -1.4004818,0.6291232 -1.4004818,1.4004818 V 10.798555 H 9.4009707 V 9.1464237 C 10.506038,8.7525377 11.419634,7.9210017 11.884638,6.8049942 12.530172,5.2403927 12.16911,3.4241428 10.971042,2.2260742 10.221566,1.4765978 9.2368511,1.0553594 8.2138439,1.0061227 Z M 8.0004889,12.199037 c -0.7713588,0 -1.4004818,0.629123 -1.4004818,1.400482 0,0.771358 0.629123,1.400481 1.4004818,1.400481 0.7768305,0 1.4004818,-0.629123 1.4004818,-1.400481 0,-0.771359 -0.6236513,-1.400482 -1.4004818,-1.400482 z m 0,0"
     fill="#2e3436"
     id="path4"
     style="fill:#444444;fill-opacity:1;stroke-width:1.40048" /></svg>
