<?xml version="1.0" encoding="UTF-8" standalone="no"?>
<svg
   width="16"
   height="16"
   viewBox="0 0 16 16"
   version="1.1"
   id="svg9"
   sodipodi:docname="im-ban-user.svg"
   xml:space="preserve"
   inkscape:version="1.2.1 (9c6d41e410, 2022-07-14)"
   xmlns:inkscape="http://www.inkscape.org/namespaces/inkscape"
   xmlns:sodipodi="http://sodipodi.sourceforge.net/DTD/sodipodi-0.dtd"
   xmlns="http://www.w3.org/2000/svg"
   xmlns:svg="http://www.w3.org/2000/svg"><sodipodi:namedview
     id="namedview11"
     pagecolor="#ffffff"
     bordercolor="#000000"
     borderopacity="0.25"
     inkscape:showpageshadow="2"
     inkscape:pageopacity="0.0"
     inkscape:pagecheckerboard="0"
     inkscape:deskcolor="#d1d1d1"
     showgrid="false"
     inkscape:zoom="22.693708"
     inkscape:cx="1.1897571"
     inkscape:cy="6.4114687"
     inkscape:current-layer="svg9" /><defs
     id="defs3"><style
       id="current-color-scheme"
       type="text/css">
   .ColorScheme-Text { color:#444444; } .ColorScheme-Highlight { color:#4285f4; }
  </style></defs><path
     style="fill:currentColor"
     class="ColorScheme-Text"
     d="M 8 0 C 5.7909 -5.5e-06 4 1.7909 4 4 C 4.0000166 6.2091 5.7909 8 8 8 C 10.2091 8.000006 12 6.2091 12 4 C 12 1.7909 10.209 0 8 0 z M 8 8.9863281 C 3.972 8.9911281 0.5035 12.004 0 16 L 9.7128906 16 C 8.6785906 15.173 8 13.918 8 12.5 C 8 11.097 8.6653406 9.8407719 9.6816406 9.0136719 C 8.9431406 8.9991719 8.1873 8.9877281 8 8.9863281 z"
     id="path5" /><path
     d="m 10.5,9.5000006 c -0.265624,0 -0.5195303,0.105469 -0.7070313,0.292969 -0.390625,0.3906244 -0.390625,1.0234364 0,1.4140614 L 11.085938,12.5 9.7929687,13.792969 c -0.390625,0.390625 -0.390625,1.023437 0,1.414062 0.3906263,0.390625 1.0234373,0.390625 1.4140623,0 L 12.5,13.914062 l 1.292969,1.292969 c 0.390625,0.390625 1.023437,0.390625 1.414062,0 0.390625,-0.390625 0.390625,-1.023437 0,-1.414062 L 13.914062,12.5 15.207031,11.207031 c 0.390625,-0.390625 0.390625,-1.023437 0,-1.4140614 -0.1875,-0.1875 -0.441406,-0.292969 -0.707031,-0.292969 -0.265625,0 -0.519531,0.105469 -0.707031,0.292969 L 12.5,11.085938 11.207031,9.7929696 C 11.019531,9.6054696 10.765625,9.5000006 10.5,9.5000006 Z m 0,0"
     fill="#2e3436"
     id="path4"
     style="fill:#f44336;fill-opacity:1" /></svg>
