<?xml version="1.0" encoding="UTF-8" standalone="no"?>
<svg
   width="16"
   height="16"
   viewBox="0 0 16 16"
   version="1.1"
   id="svg7"
   sodipodi:docname="kdenlive-select-tool.svg"
   xml:space="preserve"
   inkscape:version="1.2.1 (9c6d41e410, 2022-07-14)"
   xmlns:inkscape="http://www.inkscape.org/namespaces/inkscape"
   xmlns:sodipodi="http://sodipodi.sourceforge.net/DTD/sodipodi-0.dtd"
   xmlns="http://www.w3.org/2000/svg"
   xmlns:svg="http://www.w3.org/2000/svg"><sodipodi:namedview
     id="namedview9"
     pagecolor="#ffffff"
     bordercolor="#000000"
     borderopacity="0.25"
     inkscape:showpageshadow="2"
     inkscape:pageopacity="0.0"
     inkscape:pagecheckerboard="0"
     inkscape:deskcolor="#d1d1d1"
     showgrid="false"
     inkscape:zoom="11.346854"
     inkscape:cx="-24.764573"
     inkscape:cy="7.6232583"
     inkscape:current-layer="svg7" /><defs
     id="defs3"><style
       id="current-color-scheme"
       type="text/css">
   .ColorScheme-Text { color:#444444; } .ColorScheme-Highlight { color:#4285f4; }
  </style><style
       id="current-color-scheme-5"
       type="text/css">
   .ColorScheme-Text { color:#444444; } .ColorScheme-Highlight { color:#4285f4; }
  </style></defs><g
     id="g193"
     transform="matrix(0.03621539,0,0,0.03621539,0.99996623,0.9999997)"
     style="fill:#444444;fill-opacity:1"><g
       id="g138"
       style="fill:#444444;fill-opacity:1">
	<g
   id="g136"
   style="fill:#444444;fill-opacity:1">
		<path
   style="fill:#444444;fill-opacity:1"
   d="m 323.54,173.105 c -7.207,0 -13.947,1.954 -19.782,5.31 -3.462,-18.395 -19.595,-32.312 -39.007,-32.312 -7.874,0 -15.186,2.316 -21.361,6.274 -5.771,-14.825 -20.143,-25.333 -36.988,-25.333 -7.398,0 -14.286,2.051 -20.219,5.57 V 39.715 C 186.183,17.778 168.392,0 146.47,0 124.529,0 106.756,17.778 106.756,39.715 V 218.917 L 92.689,203.086 c -14.551,-16.4 -39.656,-17.879 -56.055,-3.32 -16.403,14.573 -17.891,39.675 -3.32,56.075 l 86.635,97.547 c 17.421,17.05 47.141,33.188 72.679,33.188 h 85.319 c 47.129,0 85.342,-34.201 85.342,-76.4 l -0.035,-97.351 c -0.001,-21.932 -17.791,-39.72 -39.714,-39.72 z"
   id="path134" />
	</g>
</g><g
       id="g140"
       style="fill:#444444;fill-opacity:1">
</g><g
       id="g142"
       style="fill:#444444;fill-opacity:1">
</g><g
       id="g144"
       style="fill:#444444;fill-opacity:1">
</g><g
       id="g146"
       style="fill:#444444;fill-opacity:1">
</g><g
       id="g148"
       style="fill:#444444;fill-opacity:1">
</g><g
       id="g150"
       style="fill:#444444;fill-opacity:1">
</g><g
       id="g152"
       style="fill:#444444;fill-opacity:1">
</g><g
       id="g154"
       style="fill:#444444;fill-opacity:1">
</g><g
       id="g156"
       style="fill:#444444;fill-opacity:1">
</g><g
       id="g158"
       style="fill:#444444;fill-opacity:1">
</g><g
       id="g160"
       style="fill:#444444;fill-opacity:1">
</g><g
       id="g162"
       style="fill:#444444;fill-opacity:1">
</g><g
       id="g164"
       style="fill:#444444;fill-opacity:1">
</g><g
       id="g166"
       style="fill:#444444;fill-opacity:1">
</g><g
       id="g168"
       style="fill:#444444;fill-opacity:1">
</g></g></svg>
