<?xml version="1.0" encoding="UTF-8" standalone="no"?>
<svg
   width="16"
   height="16"
   version="1.1"
   id="svg9"
   sodipodi:docname="kdenlive-zindex-top.svg"
   xml:space="preserve"
   inkscape:version="1.2.1 (9c6d41e410, 2022-07-14)"
   xmlns:inkscape="http://www.inkscape.org/namespaces/inkscape"
   xmlns:sodipodi="http://sodipodi.sourceforge.net/DTD/sodipodi-0.dtd"
   xmlns="http://www.w3.org/2000/svg"
   xmlns:svg="http://www.w3.org/2000/svg"><sodipodi:namedview
     id="namedview11"
     pagecolor="#ffffff"
     bordercolor="#000000"
     borderopacity="0.25"
     inkscape:showpageshadow="2"
     inkscape:pageopacity="0.0"
     inkscape:pagecheckerboard="0"
     inkscape:deskcolor="#d1d1d1"
     showgrid="false"
     inkscape:zoom="22.693708"
     inkscape:cx="-2.2032538"
     inkscape:cy="6.7639893"
     inkscape:current-layer="svg9" /><defs
     id="defs3"><style
       id="current-color-scheme"
       type="text/css">
   .ColorScheme-Text { color:#444444; } .ColorScheme-Highlight { color:#4285f4; }
  </style><style
       type="text/css"
       id="current-color-scheme-367">
      .ColorScheme-Text {
        color:#122036;
      }
      </style><style
       type="text/css"
       id="current-color-scheme-36">
      .ColorScheme-Text {
        color:#122036;
      }
      </style><style
       type="text/css"
       id="current-color-scheme-3">
      .ColorScheme-Text {
        color:#122036;
      }
      </style><style
       type="text/css"
       id="current-color-scheme-7">
      .ColorScheme-Text {
        color:#122036;
      }
      </style></defs><g
     id="g315"
     transform="translate(21.419537,0.80379419)"><path
       style="fill:#444444"
       d="m -11.419537,13.196206 a 2,2 0 0 1 -2,2 2,2 0 0 1 -2,-2 2,2 0 0 1 2,-2 2,2 0 0 1 2,2 z"
       id="path2" /><path
       d="m -13.419529,10.196206 c 0.757324,0 1.375,-0.6176757 1.375,-1.3749998 V 4.696206 h 2.749999 v -1.375 H -9.30526 C -9.29986,2.955972 -9.444912,2.606851 -9.697354,2.349038 l -2.749999,-2.74999905 c -0.53711,-0.5371111 -1.407226,-0.5371111 -1.944335,0 L -17.141681,2.349038 c -0.252442,0.257813 -0.397463,0.606934 -0.397463,0.972168 h -0.0054 v 1.375 h 2.75006 v 4.1250002 c 0,0.7573241 0.617675,1.3749998 1.374999,1.3749998 z m 0,0"
       id="path4"
       style="fill:#444444;fill-opacity:1;stroke-width:1.375" /></g></svg>
