<?xml version="1.0" encoding="UTF-8" standalone="no"?>
<svg
   width="16"
   height="16"
   viewBox="0 0 16 16"
   version="1.1"
   id="svg7"
   sodipodi:docname="kdenlive-object-height.svg"
   xml:space="preserve"
   inkscape:version="1.2.1 (9c6d41e410, 2022-07-14)"
   xmlns:inkscape="http://www.inkscape.org/namespaces/inkscape"
   xmlns:sodipodi="http://sodipodi.sourceforge.net/DTD/sodipodi-0.dtd"
   xmlns="http://www.w3.org/2000/svg"
   xmlns:svg="http://www.w3.org/2000/svg"><sodipodi:namedview
     id="namedview9"
     pagecolor="#ffffff"
     bordercolor="#000000"
     borderopacity="0.25"
     inkscape:showpageshadow="2"
     inkscape:pageopacity="0.0"
     inkscape:pagecheckerboard="0"
     inkscape:deskcolor="#d1d1d1"
     showgrid="false"
     inkscape:zoom="22.693708"
     inkscape:cx="-3.8336617"
     inkscape:cy="12.272124"
     inkscape:current-layer="svg7" /><defs
     id="defs3"><style
       id="current-color-scheme"
       type="text/css">
   .ColorScheme-Text { color:#444444; } .ColorScheme-Highlight { color:#4285f4; }
  </style><style
       id="current-color-scheme-535"
       type="text/css">
   .ColorScheme-Text { color:#444444; } .ColorScheme-Highlight { color:#4285f4; }
  </style><style
       id="current-color-scheme-53"
       type="text/css">
   .ColorScheme-Text { color:#444444; } .ColorScheme-Highlight { color:#4285f4; }
  </style><style
       id="current-color-scheme-5"
       type="text/css">
   .ColorScheme-Text { color:#444444; } .ColorScheme-Highlight { color:#4285f4; }
  </style></defs><g
     id="g352"
     transform="translate(4.1999981)"><path
       style="fill:#444444;fill-opacity:1;stroke-width:0.564693"
       d="m 0.657609,7.000004 h 6.289135 c 0.857609,0 0.853142,-0.708061 0.853142,-0.708061 v -0.0719 C 7.802186,6.082789 7.770856,5.947712 7.701616,5.830065 L 4.501218,0.366013 C 4.36275,0.124183 4.081347,0 3.799944,0 3.518541,0 3.237138,0.124183 3.100903,0.366013 L -0.099499,5.830069 C -0.168729,5.947716 -0.2,6.082793 -0.2,6.220047 v 0.0719 c 0,0 0,0.708061 0.85761,0.708061 z"
       id="path2-3" /><path
       style="fill:#444444;fill-opacity:1;stroke-width:0.564693"
       d="m 0.657609,8.9999962 h 6.289135 c 0.857609,0 0.853142,0.708061 0.853142,0.708061 v 0.0719 c 0.0023,0.137254 -0.02903,0.2723308 -0.09827,0.3899778 L 4.501218,15.633987 C 4.36275,15.875817 4.081347,16 3.799944,16 3.518541,16 3.237138,15.875817 3.100903,15.633987 L -0.099499,10.169931 C -0.168729,10.052284 -0.2,9.9172072 -0.2,9.7799532 v -0.0719 c 0,0 0,-0.708061 0.85761,-0.708061 z"
       id="path2-3-6" /></g></svg>
