<?xml version="1.0" encoding="UTF-8" standalone="no"?>
<svg
   width="16"
   height="16"
   viewBox="0 0 16 16"
   version="1.1"
   id="svg7"
   sodipodi:docname="layer-visible_on_off.svg"
   xml:space="preserve"
   inkscape:version="1.2.1 (9c6d41e410, 2022-07-14)"
   xmlns:inkscape="http://www.inkscape.org/namespaces/inkscape"
   xmlns:sodipodi="http://sodipodi.sourceforge.net/DTD/sodipodi-0.dtd"
   xmlns="http://www.w3.org/2000/svg"
   xmlns:svg="http://www.w3.org/2000/svg"><sodipodi:namedview
     id="namedview9"
     pagecolor="#ffffff"
     bordercolor="#000000"
     borderopacity="0.25"
     inkscape:showpageshadow="2"
     inkscape:pageopacity="0.0"
     inkscape:pagecheckerboard="0"
     inkscape:deskcolor="#d1d1d1"
     showgrid="false"
     inkscape:zoom="16"
     inkscape:cx="-16.1875"
     inkscape:cy="7.84375"
     inkscape:current-layer="svg7" /><defs
     id="defs3"><style
       id="current-color-scheme"
       type="text/css">
   .ColorScheme-Text { color:#444444; } .ColorScheme-Highlight { color:#4285f4; }
  </style><style
       id="current-color-scheme-5"
       type="text/css">
   .ColorScheme-Text { color:#444444; } .ColorScheme-Highlight { color:#4285f4; }
  </style><style
       id="current-color-scheme-3"
       type="text/css">
   .ColorScheme-Text { color:#444444; } .ColorScheme-Highlight { color:#4285f4; }
  </style></defs><g
     id="g268"
     style="fill:#444444;fill-opacity:1"
     transform="matrix(0.02586982,0,0,0.02586982,-1.646174,1.3773261)">
</g><g
     id="g270"
     style="fill:#444444;fill-opacity:1"
     transform="matrix(0.02586982,0,0,0.02586982,-1.646174,1.3773261)">
</g><g
     id="g272"
     style="fill:#444444;fill-opacity:1"
     transform="matrix(0.02586982,0,0,0.02586982,-1.646174,1.3773261)">
</g><g
     id="g274"
     style="fill:#444444;fill-opacity:1"
     transform="matrix(0.02586982,0,0,0.02586982,-1.646174,1.3773261)">
</g><g
     id="g276"
     style="fill:#444444;fill-opacity:1"
     transform="matrix(0.02586982,0,0,0.02586982,-1.646174,1.3773261)">
</g><g
     id="g278"
     style="fill:#444444;fill-opacity:1"
     transform="matrix(0.02586982,0,0,0.02586982,-1.646174,1.3773261)">
</g><g
     id="g280"
     style="fill:#444444;fill-opacity:1"
     transform="matrix(0.02586982,0,0,0.02586982,-1.646174,1.3773261)">
</g><g
     id="g282"
     style="fill:#444444;fill-opacity:1"
     transform="matrix(0.02586982,0,0,0.02586982,-1.646174,1.3773261)">
</g><g
     id="g284"
     style="fill:#444444;fill-opacity:1"
     transform="matrix(0.02586982,0,0,0.02586982,-1.646174,1.3773261)">
</g><g
     id="g286"
     style="fill:#444444;fill-opacity:1"
     transform="matrix(0.02586982,0,0,0.02586982,-1.646174,1.3773261)">
</g><g
     id="g288"
     style="fill:#444444;fill-opacity:1"
     transform="matrix(0.02586982,0,0,0.02586982,-1.646174,1.3773261)">
</g><g
     id="g290"
     style="fill:#444444;fill-opacity:1"
     transform="matrix(0.02586982,0,0,0.02586982,-1.646174,1.3773261)">
</g><g
     id="g292"
     style="fill:#444444;fill-opacity:1"
     transform="matrix(0.02586982,0,0,0.02586982,-1.646174,1.3773261)">
</g><g
     id="g294"
     style="fill:#444444;fill-opacity:1"
     transform="matrix(0.02586982,0,0,0.02586982,-1.646174,1.3773261)">
</g><g
     id="g296"
     style="fill:#444444;fill-opacity:1"
     transform="matrix(0.02586982,0,0,0.02586982,-1.646174,1.3773261)">
</g><g
     id="g1609"><g
       id="g254"
       style="fill:#444444;fill-opacity:1"
       transform="matrix(0.02586982,0,0,0.02586982,-1.646174,1.3773261)">
	<g
   id="g252"
   style="fill:#444444;fill-opacity:1">
		<path
   d="M 439.198,391.621 356.165,349.872 277.4,389.475 c -6.923,3.479 -14.676,5.318 -22.423,5.318 -7.829,0 -15.656,-1.876 -22.637,-5.428 L 154.786,349.914 72.73,391.655 c -5.582,2.839 -9.097,8.571 -9.097,14.833 0,6.262 3.515,11.995 9.097,14.833 l 174.702,88.869 c 2.371,1.206 4.957,1.81 7.546,1.81 2.562,0 5.124,-0.591 7.476,-1.774 l 176.745,-88.869 c 5.62,-2.826 9.167,-8.577 9.167,-14.868 -10e-4,-6.292 -3.547,-12.042 -9.168,-14.868 z"
   id="path250"
   style="fill:#444444;fill-opacity:1" />
	</g>
</g><g
       id="g260"
       style="fill:#444444;fill-opacity:1"
       transform="matrix(0.02586982,0,0,0.02586982,-1.646174,1.3773261)">
	<g
   id="g258"
   style="fill:#444444;fill-opacity:1">
		<path
   id="path256"
   style="fill:#444444;fill-opacity:1"
   d="m 154.78139,199.43539 -82.071433,41.71429 c -5.581995,2.839 -9.071429,8.59515 -9.071429,14.85714 0,6.262 3.489434,12.01915 9.071429,14.85715 l 174.714283,88.85714 c 2.371,1.206 4.98243,1.78571 7.57143,1.78571 2.562,0 5.07657,-0.60271 7.42857,-1.78571 l 81,-40.71429 c -31.33704,-31.69397 -43.92857,-63.07143 -43.92857,-63.07143 0,0 7.11109,-17.82384 24,-40.14285 l -46.07143,23.21428 c -6.92299,3.479 -14.68158,5.28572 -22.42857,5.28572 -7.82799,0 -15.66286,-1.87658 -22.64286,-5.42857 z" />
	</g>
</g><g
       id="g266"
       style="fill:#444444;fill-opacity:1"
       transform="matrix(0.02586982,0,0,0.02586982,-1.646174,1.3773261)">
	<g
   id="g264"
   style="fill:#444444;fill-opacity:1">
		<path
   id="path262"
   style="fill:#444444;fill-opacity:1"
   d="m 254.94544,-0.01441738 c -0.195,0 -0.40798,0.06849821 -0.60398,0.07549821 -2.382,0.08799991 -4.76384,0.62545985 -6.94584,1.73645877 L 72.768273,90.658928 c -5.581994,2.838997 -9.135283,8.611153 -9.135283,14.873142 0,6.262 3.553289,11.95966 9.135283,14.79765 l 81.991047,41.75051 36.76763,18.64806 55.86867,28.46282 c 1.777,0.904 3.73337,1.51046 5.66237,1.73646 0.645,0.075 1.24045,0.0755 1.88745,0.0755 2.562,0 5.12233,-0.55346 7.47433,-1.73646 l 95.42973,-48.01686 -23.90845,-25.0066 52.52227,-53.738028 42.80748,42.882978 9.89027,-4.98288 c 5.61999,-2.826 9.21078,-8.58215 9.21078,-14.87315 0,-6.290989 -3.58979,-12.047145 -9.21078,-14.873142 L 262.41977,1.7975396 c -1.562,-0.7859992 -3.22139,-1.32146262 -4.90739,-1.58546236 -0.223,-0.034 -0.37998,-0.0504982 -0.60398,-0.0754982 -0.247,-0.028 -0.50598,-0.05849822 -0.75498,-0.0754982 -0.394,-0.02699998 -0.81198,-0.07549821 -1.20798,-0.07549821 z"
   sodipodi:nodetypes="scccscccccsccccccscccccs" />
	</g>
</g><g
       id="g666"
       transform="matrix(0.5676875,0,0,0.5676875,6.9172395,3.4877211)"
       style="fill:#444444;fill-opacity:1"><path
         style="fill:#444444;fill-opacity:1"
         d="M 8,3 C 7.5092,3 7.0467,3.0455 6.6094,3.1094 l 1.9531,1.9531 a 3,3 0 0 1 2.3885,2.3887 l 3.164,3.1638 C 15.46,9.3291 16,8 16,8 16,8 14,3 8,3 Z M 4.2715,3.7715 C 1.1494,5.162 0,8 0,8 c 0,0 2,5 8,5 1.8188,0 3.267,-0.468 4.398,-1.102 L 10.355,9.8555 A 3,3 0 0 1 8,11 3,3 0 0 1 5,8 3,3 0 0 1 6.1426,5.6426 Z"
         id="path654" /><path
         style="fill:#444444;fill-opacity:1"
         d="M 2.5,1 15,13.5 13.5,15 1,2.5 Z"
         id="path656" /></g></g></svg>
