<?xml version="1.0" encoding="UTF-8" standalone="no"?>
<svg
   width="16"
   height="16"
   viewBox="0 0 16 16"
   version="1.1"
   id="svg7"
   sodipodi:docname="layer-visible_on.svg"
   xml:space="preserve"
   inkscape:version="1.2.1 (9c6d41e410, 2022-07-14)"
   xmlns:inkscape="http://www.inkscape.org/namespaces/inkscape"
   xmlns:sodipodi="http://sodipodi.sourceforge.net/DTD/sodipodi-0.dtd"
   xmlns="http://www.w3.org/2000/svg"
   xmlns:svg="http://www.w3.org/2000/svg"><sodipodi:namedview
     id="namedview9"
     pagecolor="#ffffff"
     bordercolor="#000000"
     borderopacity="0.25"
     inkscape:showpageshadow="2"
     inkscape:pageopacity="0.0"
     inkscape:pagecheckerboard="0"
     inkscape:deskcolor="#d1d1d1"
     showgrid="false"
     inkscape:zoom="22.627417"
     inkscape:cx="-8.4852814"
     inkscape:cy="8.8167377"
     inkscape:current-layer="svg7" /><defs
     id="defs3"><style
       id="current-color-scheme"
       type="text/css">
   .ColorScheme-Text { color:#444444; } .ColorScheme-Highlight { color:#4285f4; }
  </style><style
       id="current-color-scheme-5"
       type="text/css">
   .ColorScheme-Text { color:#444444; } .ColorScheme-Highlight { color:#4285f4; }
  </style><style
       id="current-color-scheme-3"
       type="text/css">
   .ColorScheme-Text { color:#444444; } .ColorScheme-Highlight { color:#4285f4; }
  </style></defs><g
     id="g597"
     transform="translate(35.125151,-2.3529561)"><g
       id="g333"
       transform="matrix(0.02586982,0,0,0.02586982,-36.771325,3.7302822)"
       style="fill:#444444;fill-opacity:1"><g
         id="g242"
         style="fill:#444444;fill-opacity:1">
	<g
   id="g240"
   style="fill:#444444;fill-opacity:1">
		<path
   d="m 247.432,209.21 -55.94,-28.456 -0.003,0.001 55.936,28.454 c 1.78,0.905 3.68,1.47 5.613,1.696 -1.93,-0.226 -3.829,-0.791 -5.606,-1.695 z"
   id="path238"
   style="fill:#444444;fill-opacity:1" />
	</g>
</g><g
         id="g248"
         style="fill:#444444;fill-opacity:1">
	<g
   id="g246"
   style="fill:#444444;fill-opacity:1">
		<rect
   x="173.129"
   y="150.82401"
   width="0.003"
   height="41.183998"
   id="rect244"
   style="fill:#444444;fill-opacity:1" />
	</g>
</g><g
         id="g254"
         style="fill:#444444;fill-opacity:1">
	<g
   id="g252"
   style="fill:#444444;fill-opacity:1">
		<path
   d="M 439.198,391.621 356.165,349.872 277.4,389.475 c -6.923,3.479 -14.676,5.318 -22.423,5.318 -7.829,0 -15.656,-1.876 -22.637,-5.428 L 154.786,349.914 72.73,391.655 c -5.582,2.839 -9.097,8.571 -9.097,14.833 0,6.262 3.515,11.995 9.097,14.833 l 174.702,88.869 c 2.371,1.206 4.957,1.81 7.546,1.81 2.562,0 5.124,-0.591 7.476,-1.774 l 176.745,-88.869 c 5.62,-2.826 9.167,-8.577 9.167,-14.868 -10e-4,-6.292 -3.547,-12.042 -9.168,-14.868 z"
   id="path250"
   style="fill:#444444;fill-opacity:1" />
	</g>
</g><g
         id="g260"
         style="fill:#444444;fill-opacity:1">
	<g
   id="g258"
   style="fill:#444444;fill-opacity:1">
		<path
   id="path256"
   style="fill:#444444;fill-opacity:1"
   d="m 154.78139,199.43539 -82.071433,41.71429 c -5.581995,2.839 -9.071429,8.59515 -9.071429,14.85714 0,6.262 3.489434,12.01915 9.071429,14.85715 l 174.714283,88.85714 c 2.371,1.206 4.98243,1.78571 7.57143,1.78571 2.562,0 5.07657,-0.60271 7.42857,-1.78571 l 81,-40.71429 c -31.33704,-31.69397 -43.92857,-63.07143 -43.92857,-63.07143 0,0 7.11109,-17.82384 24,-40.14285 l -46.07143,23.21428 c -6.92299,3.479 -14.68158,5.28572 -22.42857,5.28572 -7.82799,0 -15.66286,-1.87658 -22.64286,-5.42857 z" />
	</g>
</g><g
         id="g266"
         style="fill:#444444;fill-opacity:1">
	<g
   id="g264"
   style="fill:#444444;fill-opacity:1">
		<path
   d="M 439.198,90.64 262.453,1.772 C 260.891,0.986 259.233,0.488 257.547,0.224 257.324,0.19 257.103,0.134 256.879,0.109 256.632,0.081 256.382,0.083 256.133,0.066 255.739,0.039 255.345,0 254.949,0 c -0.195,0 -0.388,0.027 -0.584,0.034 -2.382,0.088 -4.751,0.663 -6.933,1.774 L 72.731,90.676 c -5.582,2.839 -9.097,8.571 -9.097,14.833 0,6.262 3.515,11.995 9.097,14.833 l 82.055,41.741 36.706,18.672 55.94,28.456 c 1.777,0.904 3.676,1.469 5.605,1.695 0.645,0.075 1.293,0.114 1.94,0.114 2.562,0 5.124,-0.591 7.476,-1.774 l 176.745,-88.868 c 5.62,-2.826 9.167,-8.577 9.167,-14.868 0,-6.291 -3.546,-12.044 -9.167,-14.87 z"
   id="path262"
   style="fill:#444444;fill-opacity:1" />
	</g>
</g><g
         id="g268"
         style="fill:#444444;fill-opacity:1">
</g><g
         id="g270"
         style="fill:#444444;fill-opacity:1">
</g><g
         id="g272"
         style="fill:#444444;fill-opacity:1">
</g><g
         id="g274"
         style="fill:#444444;fill-opacity:1">
</g><g
         id="g276"
         style="fill:#444444;fill-opacity:1">
</g><g
         id="g278"
         style="fill:#444444;fill-opacity:1">
</g><g
         id="g280"
         style="fill:#444444;fill-opacity:1">
</g><g
         id="g282"
         style="fill:#444444;fill-opacity:1">
</g><g
         id="g284"
         style="fill:#444444;fill-opacity:1">
</g><g
         id="g286"
         style="fill:#444444;fill-opacity:1">
</g><g
         id="g288"
         style="fill:#444444;fill-opacity:1">
</g><g
         id="g290"
         style="fill:#444444;fill-opacity:1">
</g><g
         id="g292"
         style="fill:#444444;fill-opacity:1">
</g><g
         id="g294"
         style="fill:#444444;fill-opacity:1">
</g><g
         id="g296"
         style="fill:#444444;fill-opacity:1">
</g></g><path
       style="fill:currentColor;stroke-width:0.567658"
       class="ColorScheme-Text"
       d="m -23.666412,7.5438892 c -3.405945,0 -4.54126,2.8382888 -4.54126,2.8382888 0,0 1.135315,2.838287 4.54126,2.838287 3.405946,0 4.541261,-2.838287 4.541261,-2.838287 0,0 -1.135315,-2.8382888 -4.541261,-2.8382888 z m 0,1.1353153 a 1.7029731,1.7029731 0 0 1 1.702973,1.7029735 1.7029731,1.7029731 0 0 1 -1.702973,1.702972 1.7029731,1.7029731 0 0 1 -1.702972,-1.702972 1.7029731,1.7029731 0 0 1 1.702972,-1.7029735 z m 0,1.1353156 a 0.56765768,0.56765768 0 0 0 -0.567658,0.5676579 0.56765768,0.56765768 0 0 0 0.567658,0.567657 0.56765768,0.56765768 0 0 0 0.567657,-0.567657 0.56765768,0.56765768 0 0 0 -0.567657,-0.5676579 z"
       id="path308" /></g></svg>
