<?xml version="1.0" encoding="UTF-8" standalone="no"?>
<svg
   width="16"
   height="16"
   viewBox="0 0 16 16"
   version="1.1"
   id="svg7"
   sodipodi:docname="list-resource-add-2.svg"
   inkscape:version="1.2.1 (9c6d41e410, 2022-07-14)"
   xmlns:inkscape="http://www.inkscape.org/namespaces/inkscape"
   xmlns:sodipodi="http://sodipodi.sourceforge.net/DTD/sodipodi-0.dtd"
   xmlns="http://www.w3.org/2000/svg"
   xmlns:svg="http://www.w3.org/2000/svg">
  <sodipodi:namedview
     id="namedview9"
     pagecolor="#ffffff"
     bordercolor="#000000"
     borderopacity="0.25"
     inkscape:showpageshadow="2"
     inkscape:pageopacity="0.0"
     inkscape:pagecheckerboard="0"
     inkscape:deskcolor="#d1d1d1"
     showgrid="false"
     inkscape:zoom="32"
     inkscape:cx="1.3125"
     inkscape:cy="10.515625"
     inkscape:current-layer="svg7" />
  <defs
     id="defs3">
    <style
       id="current-color-scheme"
       type="text/css">
   .ColorScheme-Text { color:#444444; } .ColorScheme-Highlight { color:#4285f4; }
  </style>
  </defs>
  <g
     id="g239">
    <path
       id="path2"
       style="fill:#444444;fill-opacity:1"
       d="M 8 1 C 6.3437534 1 5 2.3437534 5 4 C 5 5.6562466 6.3437534 7 8 7 C 9.6562466 7 11 5.6562466 11 4 C 11 2.3437534 9.6562466 1 8 1 z M 6.5 8 C 4.007817 8 2 10.007816 2 12.5 L 2 13 C 2 14.109373 2.8906272 15 4 15 L 10 15 L 10 14 L 7 14 L 7 10 L 10 10 L 10 8.0273438 C 9.8359384 8.0078118 9.6679686 8 9.5 8 L 6.5 8 z M 8 11 L 8 13 L 10.324219 13 L 11 13 L 13 13 L 13.957031 13 L 16 13 L 16 11 L 13.832031 11 L 13 11 L 11 11 L 10.199219 11 L 8 11 z " />
  </g>
</svg>
