<?xml version="1.0" encoding="UTF-8" standalone="no"?>
<svg
   height="16px"
   viewBox="0 0 16 16"
   width="16px"
   version="1.1"
   id="svg4"
   sodipodi:docname="media-repeat-album-amarok (копія).svg"
   inkscape:version="1.2.1 (9c6d41e410, 2022-07-14)"
   xml:space="preserve"
   xmlns:inkscape="http://www.inkscape.org/namespaces/inkscape"
   xmlns:sodipodi="http://sodipodi.sourceforge.net/DTD/sodipodi-0.dtd"
   xmlns="http://www.w3.org/2000/svg"
   xmlns:svg="http://www.w3.org/2000/svg"><defs
     id="defs8"><style
       id="current-color-scheme"
       type="text/css">
   .ColorScheme-Text { color:#444444; } .ColorScheme-Highlight { color:#4285f4; }
  </style><style
       id="current-color-scheme-3"
       type="text/css">
   .ColorScheme-Text { color:#444444; } .ColorScheme-Highlight { color:#4285f4; }
  </style><style
       id="current-color-scheme-5"
       type="text/css">
   .ColorScheme-Text { color:#444444; } .ColorScheme-Highlight { color:#4285f4; }
  </style></defs><sodipodi:namedview
     id="namedview6"
     pagecolor="#ffffff"
     bordercolor="#000000"
     borderopacity="0.25"
     inkscape:showpageshadow="2"
     inkscape:pageopacity="0.0"
     inkscape:pagecheckerboard="0"
     inkscape:deskcolor="#d1d1d1"
     showgrid="false"
     inkscape:zoom="22.693708"
     inkscape:cx="-15.466842"
     inkscape:cy="8.7909829"
     inkscape:current-layer="svg4" /><path
     id="path2"
     style="fill:#444444;fill-opacity:1"
     d="M 8 1 L 8 3 L 4 3 C 1.8007832 3 0 4.8007832 0 7 L 0 9 C 0 10.01953 0.38671988 10.964845 1.0195312 11.671875 C 1.3867189 12.082031 2.0195309 12.117188 2.4296875 11.75 C 2.8437491 11.382812 2.8789061 10.749999 2.5078125 10.335938 C 2.1914068 9.9843749 2 9.5234375 2 9 L 2 7 C 2 5.8750011 2.8750011 5 4 5 L 8 5 L 8 7 L 9 7 L 9 6.9921875 C 9.2656247 6.9960935 9.5195314 6.8906251 9.7070312 6.7070312 L 11.707031 4.7070312 C 12.097656 4.3164066 12.097656 3.6835934 11.707031 3.2929688 L 9.7070312 1.2929688 C 9.5195314 1.1093749 9.2656247 1.0039065 9 1.0078125 L 9 1 L 8 1 z M 14.289062 4 C 14.023439 3.988281 13.765625 4.0781257 13.570312 4.2578125 C 13.156251 4.6250001 13.121094 5.2578122 13.492188 5.6679688 C 13.808593 6.0234374 14 6.484376 14 7.0078125 L 14 9.0078125 C 14 9.2667965 13.952305 9.5114671 13.867188 9.7363281 L 15.929688 9.7363281 C 15.973874 9.4997017 16 9.2565224 16 9.0078125 L 16 7.0078125 C 16 5.9843765 15.61328 5.0390615 14.980469 4.3320312 C 14.804688 4.1328124 14.554688 4.015625 14.289062 4 z M 7 9 L 7 9.0078125 C 6.7343753 9.0039065 6.4804686 9.1093749 6.2929688 9.2929688 L 4.2929688 11.292969 C 3.9023441 11.683593 3.9023441 12.316407 4.2929688 12.707031 L 6.2929688 14.707031 C 6.4804686 14.890625 6.7343753 14.996093 7 14.992188 L 7 15 L 8 15 L 8 13.007812 L 9.7363281 13.007812 L 9.7363281 11.007812 L 8 11.007812 L 8 9 L 7 9 z " /><g
     id="g311"
     transform="translate(49.504311,-1.08426)"
     style="fill:#444444;fill-opacity:1"><path
       style="fill:#444444;fill-opacity:1"
       d="m -38.504311,16.08426 v 1 h 5 v -1 z"
       id="path306" /><path
       style="fill:#444444;fill-opacity:1"
       d="m -38.504311,14.08426 v 1 h 5 v -1 z"
       id="path304" /><path
       style="fill:#444444;fill-opacity:1"
       d="m -38.504311,12.08426 v 1 h 5 v -1 z"
       id="path302" /></g></svg>
