<?xml version="1.0" encoding="UTF-8" standalone="no"?>
<svg
   width="16"
   height="16"
   viewBox="0 0 16 16"
   version="1.1"
   id="svg261"
   sodipodi:docname="pgp-keys.svg"
   inkscape:version="1.2.1 (9c6d41e410, 2022-07-14)"
   xmlns:inkscape="http://www.inkscape.org/namespaces/inkscape"
   xmlns:sodipodi="http://sodipodi.sourceforge.net/DTD/sodipodi-0.dtd"
   xmlns="http://www.w3.org/2000/svg"
   xmlns:svg="http://www.w3.org/2000/svg">
  <sodipodi:namedview
     id="namedview263"
     pagecolor="#ffffff"
     bordercolor="#000000"
     borderopacity="0.25"
     inkscape:showpageshadow="2"
     inkscape:pageopacity="0.0"
     inkscape:pagecheckerboard="0"
     inkscape:deskcolor="#d1d1d1"
     showgrid="false"
     inkscape:zoom="22.693708"
     inkscape:cx="-6.2572409"
     inkscape:cy="6.8080544"
     inkscape:current-layer="svg261" />
  <defs
     id="defs257">
    <style
       id="current-color-scheme"
       type="text/css">
   .ColorScheme-Text { color:#444444; } .ColorScheme-Highlight { color:#4285f4; }
  </style>
  </defs>
  <path
     d="m 6.285715,1.9999998 c -2.3671885,0 -4.2857155,1.9185267 -4.2857155,4.2857145 0,2.3671879 1.918527,4.2857147 4.2857155,4.2857147 0.713169,-0.0033 1.416294,-0.184152 2.04241,-0.529018 l 0.529018,0.529018 v 1.714285 H 10.57143 V 14 H 14 V 11.428572 L 10.306919,7.735491 c 0.17076,-0.4654012 0.261162,-0.9542409 0.26451,-1.4497767 0,-2.3671878 -1.918527,-4.2857145 -4.285714,-4.2857145 z M 5.428572,4.5714285 c 0.472098,0 0.857143,0.3850449 0.857143,0.8571429 0,0.4720981 -0.385045,0.8571429 -0.857143,0.8571429 -0.4720985,0 -0.8571435,-0.3850448 -0.8571435,-0.8571429 0,-0.472098 0.385045,-0.8571429 0.8571435,-0.8571429 z m 0,0"
     fill="#2e3436"
     id="path2"
     style="fill:#444444;fill-opacity:1;stroke-width:0.857143" />
</svg>
