<?xml version="1.0" encoding="UTF-8" standalone="no"?>
<svg
   width="16"
   height="16"
   viewBox="0 0 16 16"
   version="1.1"
   id="svg7"
   sodipodi:docname="run-build-configure.svg"
   xml:space="preserve"
   inkscape:version="1.2.1 (9c6d41e410, 2022-07-14)"
   xmlns:inkscape="http://www.inkscape.org/namespaces/inkscape"
   xmlns:sodipodi="http://sodipodi.sourceforge.net/DTD/sodipodi-0.dtd"
   xmlns="http://www.w3.org/2000/svg"
   xmlns:svg="http://www.w3.org/2000/svg"><sodipodi:namedview
     id="namedview9"
     pagecolor="#ffffff"
     bordercolor="#000000"
     borderopacity="0.25"
     inkscape:showpageshadow="2"
     inkscape:pageopacity="0.0"
     inkscape:pagecheckerboard="0"
     inkscape:deskcolor="#d1d1d1"
     showgrid="false"
     inkscape:zoom="32.09375"
     inkscape:cx="0.31158715"
     inkscape:cy="9.113924"
     inkscape:current-layer="svg7" /><defs
     id="defs3"><style
       id="current-color-scheme"
       type="text/css">
   .ColorScheme-Text { color:#444444; } .ColorScheme-Highlight { color:#4285f4; }
  </style></defs><path
     id="path5"
     style="fill:currentColor"
     class="ColorScheme-Text"
     d="M 7 1 L 7 2.0859375 C 6.1094427 2.2386169 5.2648945 2.5904759 4.5292969 3.1152344 L 3.7578125 2.34375 L 2.34375 3.7578125 L 3.1132812 4.5273438 C 2.5903331 5.2640014 2.2404531 6.1092027 2.0898438 7 L 1 7 L 1 9 L 2.0859375 9 C 2.2386169 9.8905573 2.5904759 10.735106 3.1152344 11.470703 L 2.34375 12.242188 L 3.7578125 13.65625 L 4.5273438 12.886719 C 5.2640013 13.409666 6.1092027 13.759546 7 13.910156 L 7 15 L 9 15 L 9 13.914062 C 9.8905573 13.761385 10.735106 13.409523 11.470703 12.884766 L 12.242188 13.65625 L 13.65625 12.242188 L 12.886719 11.472656 C 13.409666 10.735999 13.759546 9.8907973 13.910156 9 L 15 9 L 15 7 L 13.914062 7 C 13.761386 6.1094427 13.409523 5.2648945 12.884766 4.5292969 L 13.65625 3.7578125 L 12.242188 2.34375 L 11.472656 3.1132812 C 10.735999 2.590333 9.8907973 2.2404532 9 2.0898438 L 9 1 L 7 1 z M 5.7890625 5 L 10.210938 5 C 10.579111 5 10.876941 5.2978529 10.876953 5.6660156 C 10.876953 6.0341785 10.579087 6.3339844 10.210938 6.3339844 L 5.7890625 6.3339844 C 5.4208998 6.3339844 5.1230469 6.0341785 5.1230469 5.6660156 C 5.1230469 5.2978529 5.4208998 5 5.7890625 5 z M 5.7890625 7.3339844 L 10.210938 7.3339844 C 10.579112 7.3339844 10.876941 7.6318369 10.876953 8 C 10.876953 8.3681631 10.579112 8.6660156 10.210938 8.6660156 L 5.7890625 8.6660156 C 5.4208871 8.6660156 5.1230469 8.3681508 5.1230469 8 C 5.1230469 7.6318369 5.4208994 7.3339844 5.7890625 7.3339844 z M 5.7890625 9.6660156 L 10.210938 9.6660156 C 10.579113 9.6660156 10.876941 9.9658209 10.876953 10.333984 C 10.876953 10.702148 10.579113 11 10.210938 11 L 5.7890625 11 C 5.420899 11 5.1230469 10.702136 5.1230469 10.333984 C 5.1230469 9.9658086 5.420899 9.6660156 5.7890625 9.6660156 z " /><g
     id="g303"
     transform="matrix(0.01229508,0,0,0.01229508,4.9999943,5.0000005)"><g
       id="g246">
	<g
   id="g244">
		
		
		
	</g>
</g><g
       id="g248">
</g><g
       id="g250">
</g><g
       id="g252">
</g><g
       id="g254">
</g><g
       id="g256">
</g><g
       id="g258">
</g><g
       id="g260">
</g><g
       id="g262">
</g><g
       id="g264">
</g><g
       id="g266">
</g><g
       id="g268">
</g><g
       id="g270">
</g><g
       id="g272">
</g><g
       id="g274">
</g><g
       id="g276">
</g></g></svg>
