<?xml version="1.0" encoding="UTF-8" standalone="no"?>
<svg
   width="16"
   height="16"
   viewBox="0 0 16 16"
   version="1.1"
   id="svg7"
   sodipodi:docname="shapes.svg"
   xml:space="preserve"
   inkscape:version="1.2.1 (9c6d41e410, 2022-07-14)"
   xmlns:inkscape="http://www.inkscape.org/namespaces/inkscape"
   xmlns:sodipodi="http://sodipodi.sourceforge.net/DTD/sodipodi-0.dtd"
   xmlns="http://www.w3.org/2000/svg"
   xmlns:svg="http://www.w3.org/2000/svg"><sodipodi:namedview
     id="namedview9"
     pagecolor="#ffffff"
     bordercolor="#000000"
     borderopacity="0.25"
     inkscape:showpageshadow="2"
     inkscape:pageopacity="0.0"
     inkscape:pagecheckerboard="0"
     inkscape:deskcolor="#d1d1d1"
     showgrid="false"
     inkscape:zoom="22.693708"
     inkscape:cx="-12.867002"
     inkscape:cy="9.4078939"
     inkscape:current-layer="svg7" /><defs
     id="defs3"><style
       id="current-color-scheme"
       type="text/css">
   .ColorScheme-Text { color:#444444; } .ColorScheme-Highlight { color:#4285f4; }
  </style></defs><g
     id="g297"
     transform="matrix(0.0312499,0,0,0.0312499,-1.139981e-5,9.97505e-6)"
     style="fill:#444444;fill-opacity:1"><g
       id="g242"
       style="fill:#444444;fill-opacity:1">
	<g
   id="g240"
   style="fill:#444444;fill-opacity:1">
		<path
   d="M 489.741,100.175 H 267.132 c -12.31,0 -22.261,9.973 -22.261,22.261 v 73.038 L 176.041,46.326 c -3.651,-7.88 -11.531,-12.934 -20.213,-12.934 -8.682,0 -16.562,5.053 -20.213,12.934 L 2.05,335.717 c -3.183,6.901 -2.627,14.915 1.447,21.326 4.118,6.389 11.175,10.262 18.766,10.262 H 135.57 c 10.663,63.065 65.514,111.304 131.562,111.304 66.048,0 120.899,-48.239 131.562,-111.304 h 91.047 c 12.31,0 22.261,-9.973 22.261,-22.261 V 122.436 c 0,-12.288 -9.951,-22.261 -22.261,-22.261 z M 161.037,264.237 c -0.378,0.467 -0.735,0.957 -1.091,1.447 -2.649,3.584 -5.142,7.279 -7.435,11.13 -0.378,0.623 -0.757,1.247 -1.135,1.87 -5.053,8.771 -9.171,18.12 -12.132,27.982 -0.223,0.735 -0.356,1.514 -0.579,2.248 -1.113,3.962 -2.07,7.992 -2.827,12.11 -0.089,0.601 -0.289,1.158 -0.401,1.759 H 57.034 l 98.794,-214.016 53.537,116.024 c -19.077,9.216 -35.595,22.773 -48.328,39.446 z m 106.095,169.851 c -49.107,0 -89.043,-39.936 -89.043,-89.044 0,-5.654 0.668,-11.13 1.67,-16.473 0.378,-1.959 0.979,-3.851 1.491,-5.766 0.846,-3.25 1.781,-6.478 2.983,-9.594 0.868,-2.248 1.87,-4.43 2.938,-6.612 1.202,-2.493 2.538,-4.92 3.962,-7.279 1.402,-2.315 2.849,-4.608 4.452,-6.79 1.336,-1.803 2.827,-3.473 4.296,-5.187 2.07,-2.382 4.096,-4.808 6.411,-6.968 0.712,-0.668 1.514,-1.202 2.248,-1.848 10.307,-9.016 22.706,-15.872 36.708,-19.411 0.111,-0.045 0.2,-0.134 0.312,-0.178 6.945,-1.736 14.091,-2.938 21.571,-2.938 49.107,0 89.044,39.936 89.044,89.043 0,49.107 -39.935,89.045 -89.043,89.045 z"
   id="path238"
   style="fill:#444444;fill-opacity:1" />
	</g>
</g><g
       id="g244"
       style="fill:#444444;fill-opacity:1">
</g><g
       id="g246"
       style="fill:#444444;fill-opacity:1">
</g><g
       id="g248"
       style="fill:#444444;fill-opacity:1">
</g><g
       id="g250"
       style="fill:#444444;fill-opacity:1">
</g><g
       id="g252"
       style="fill:#444444;fill-opacity:1">
</g><g
       id="g254"
       style="fill:#444444;fill-opacity:1">
</g><g
       id="g256"
       style="fill:#444444;fill-opacity:1">
</g><g
       id="g258"
       style="fill:#444444;fill-opacity:1">
</g><g
       id="g260"
       style="fill:#444444;fill-opacity:1">
</g><g
       id="g262"
       style="fill:#444444;fill-opacity:1">
</g><g
       id="g264"
       style="fill:#444444;fill-opacity:1">
</g><g
       id="g266"
       style="fill:#444444;fill-opacity:1">
</g><g
       id="g268"
       style="fill:#444444;fill-opacity:1">
</g><g
       id="g270"
       style="fill:#444444;fill-opacity:1">
</g><g
       id="g272"
       style="fill:#444444;fill-opacity:1">
</g></g></svg>
