<?xml version="1.0" encoding="UTF-8" standalone="no"?>
<svg
   width="16"
   height="16"
   viewBox="0 0 16 16"
   version="1.1"
   id="svg7"
   sodipodi:docname="view-refresh.svg"
   inkscape:version="1.2.1 (9c6d41e410, 2022-07-14)"
   xmlns:inkscape="http://www.inkscape.org/namespaces/inkscape"
   xmlns:sodipodi="http://sodipodi.sourceforge.net/DTD/sodipodi-0.dtd"
   xmlns="http://www.w3.org/2000/svg"
   xmlns:svg="http://www.w3.org/2000/svg">
  <sodipodi:namedview
     id="namedview9"
     pagecolor="#ffffff"
     bordercolor="#000000"
     borderopacity="0.25"
     inkscape:showpageshadow="2"
     inkscape:pageopacity="0.0"
     inkscape:pagecheckerboard="0"
     inkscape:deskcolor="#d1d1d1"
     showgrid="false"
     inkscape:zoom="11.346854"
     inkscape:cx="-12.514482"
     inkscape:cy="10.884074"
     inkscape:current-layer="svg7" />
  <defs
     id="defs3">
    <style
       id="current-color-scheme"
       type="text/css">
   .ColorScheme-Text { color:#444444; } .ColorScheme-Highlight { color:#4285f4; }
  </style>
  </defs>
  <g
     id="g243"
     transform="translate(-1.1590984e-7,-0.49910106)"
     style="fill:#444444;fill-opacity:1">
    <path
       d="M 7.40625,1 C 6.792969,1.007812 6.171875,1.089844 5.558594,1.253906 2.285156,2.132812 0,5.109375 0,8.5 c 0,3.390625 2.285156,6.367188 5.558594,7.242188 3.273437,0.878906 6.742187,-0.558594 8.4375,-3.492188 0.277344,-0.480469 0.109375,-1.089844 -0.367188,-1.367188 C 13.152344,10.609375 12.539062,10.773438 12.261719,11.25 11.015625,13.410156 8.484375,14.457031 6.074219,13.8125 3.667969,13.167969 2,10.992188 2,8.5 2,6.003906 3.667969,3.832031 6.074219,3.1875 c 2.410156,-0.644531 4.941406,0.402344 6.1875,2.5625 0.05859,0.085938 0.125,0.164062 0.203125,0.226562 L 12.445312,5.992188 12.4375,6 H 11 c -0.550781,0 -1,0.449219 -1,1 0,0 0,1 1,1 h 5 V 3 C 16,3 16.0039,2 15,2 14.449219,2 14,2.449219 14,3 V 4.6875 L 13.98437,4.699219 13.97265,4.710938 C 12.695312,2.53125 10.441406,1.191406 8.019531,1.019531 7.816406,1.003906 7.613281,1 7.40625,1 Z m 0,0"
       fill="#2e3436"
       id="path2"
       style="fill:#444444;fill-opacity:1" />
  </g>
</svg>
