<?xml version="1.0" encoding="UTF-8" standalone="no"?>
<svg
   width="16"
   height="16"
   version="1.1"
   id="svg7"
   sodipodi:docname="window-pin.svg"
   inkscape:version="1.2.1 (9c6d41e410, 2022-07-14)"
   xmlns:inkscape="http://www.inkscape.org/namespaces/inkscape"
   xmlns:sodipodi="http://sodipodi.sourceforge.net/DTD/sodipodi-0.dtd"
   xmlns="http://www.w3.org/2000/svg"
   xmlns:svg="http://www.w3.org/2000/svg">
  <sodipodi:namedview
     id="namedview9"
     pagecolor="#ffffff"
     bordercolor="#000000"
     borderopacity="0.25"
     inkscape:showpageshadow="2"
     inkscape:pageopacity="0.0"
     inkscape:pagecheckerboard="0"
     inkscape:deskcolor="#d1d1d1"
     showgrid="false"
     inkscape:zoom="65.8125"
     inkscape:cx="7.9924027"
     inkscape:cy="8.0151947"
     inkscape:current-layer="svg7" />
  <defs
     id="defs3">
    <style
       id="current-color-scheme"
       type="text/css">
   .ColorScheme-Text { color:#dfdfdf; } .ColorScheme-Highlight { color:#4285f4; }
  </style>
  </defs>
  <path
     style="fill:#444444;fill-opacity:1"
     class="ColorScheme-Text"
     d="M 8.8417908,3.228871e-6 C 8.7275068,6.2872887e-4 8.6130038,0.04515123 8.5253848,0.13281573 l -0.0293,0.029297 c -0.400217,0.4001255 -0.623955,0.93110857 -0.626953,1.49414067 -0.0028,0.5224875 0.183991,1.0157428 0.527343,1.4003906 l -1.650388,1.6894531 -1.689453,1.6503906 c -0.384648,-0.3433514 -0.877903,-0.5281758 -1.40039,-0.5253906 -0.563032,0.003 -1.094015,0.2247831 -1.494141,0.625 l -0.0293,0.029297 c -0.175331,0.1752393 -0.177381,0.4594296 -0.0039,0.6328122 L 4.7187468,9.7460973 0.3925748,14.074223 -3.1986939e-6,16.000004 1.9257778,15.607426 l 4.328125,-4.326172 2.587891,2.589844 c 0.08669,0.08678 0.202192,0.129514 0.316406,0.128906 0.114213,-6.09e-4 0.228875,-0.04511 0.316406,-0.132812 l 0.0293,-0.0293 c 0.400217,-0.400125 0.6220012,-0.931199 0.6250002,-1.494141 0.0028,-0.522489 -0.1840832,-1.015745 -0.5273442,-1.400391 l 1.6894542,-1.6523437 1.652343,-1.689454 c 0.384645,0.343259 0.877901,0.530127 1.400391,0.527344 0.562941,-0.003 1.094016,-0.224784 1.494141,-0.625 l 0.0293,-0.0293 c 0.0877,-0.087524 0.132197,-0.202186 0.132806,-0.3164 6.08e-4,-0.114213 -0.04212,-0.2297151 -0.128906,-0.3164061 L 13.148435,4.1210971 12.0332,3.0058627 9.1581998,0.12890943 C 9.0715098,0.04217343 8.9560778,-6.2227113e-4 8.8417938,3.228871e-6 Z"
     id="path5" />
</svg>
