<?xml version="1.0" encoding="UTF-8" standalone="no"?>
<svg
   width="16"
   height="16"
   viewBox="0 0 16 16"
   version="1.1"
   id="svg7"
   sodipodi:docname="window-close.svg"
   xml:space="preserve"
   inkscape:version="1.2.1 (9c6d41e410, 2022-07-14)"
   xmlns:inkscape="http://www.inkscape.org/namespaces/inkscape"
   xmlns:sodipodi="http://sodipodi.sourceforge.net/DTD/sodipodi-0.dtd"
   xmlns="http://www.w3.org/2000/svg"
   xmlns:svg="http://www.w3.org/2000/svg"><sodipodi:namedview
     id="namedview9"
     pagecolor="#ffffff"
     bordercolor="#000000"
     borderopacity="0.25"
     inkscape:showpageshadow="2"
     inkscape:pageopacity="0.0"
     inkscape:pagecheckerboard="0"
     inkscape:deskcolor="#d1d1d1"
     showgrid="false"
     inkscape:zoom="16.453125"
     inkscape:cx="-14.647673"
     inkscape:cy="9.0864197"
     inkscape:current-layer="svg7" /><defs
     id="defs3"><style
       id="current-color-scheme"
       type="text/css">
   .ColorScheme-Text { color:#444444; } .ColorScheme-Highlight { color:#4285f4; }
  </style><style
       id="current-color-scheme-36"
       type="text/css">
   .ColorScheme-Text { color:#444444; } .ColorScheme-Highlight { color:#4285f4; }
  </style><style
       id="current-color-scheme-3"
       type="text/css">
   .ColorScheme-Text { color:#444444; } .ColorScheme-Highlight { color:#4285f4; }
  </style></defs><path
     style="fill:currentColor;stroke-width:1.06159"
     class="ColorScheme-Text"
     d="M 11.188097,3.750038 A 1.0619815,1.0612046 0 0 0 10.437243,4.0609381 L 8.002152,6.4942471 5.577433,4.0713018 a 1.0619815,1.0612046 0 0 0 -0.01041,-0.0104 1.0619815,1.0612046 0 0 0 -0.744632,-0.306755 l -0.01041,0.014506 A 1.0619815,1.0612046 0 0 0 3.75,4.8298582 1.0619815,1.0612046 0 0 0 4.061127,5.5801638 L 6.496218,8.0134724 4.061127,10.446781 A 1.0619815,1.0612046 0 0 0 3.754148,11.188796 1.0619815,1.0612046 0 0 0 4.816129,12.25 1.0619815,1.0612046 0 0 0 5.566984,11.939101 l 2.43509,-2.4333098 2.42472,2.4229448 A 1.0619815,1.0612046 0 0 0 11.188019,12.25 1.0619815,1.0612046 0 0 0 12.25,11.188796 1.0619815,1.0612046 0 0 0 11.938874,10.43849 L 9.495485,7.9989637 11.920205,5.5760177 A 1.0619815,1.0612046 0 0 0 12.25,4.8112044 1.0619815,1.0612046 0 0 0 11.188019,3.7499999 Z"
     id="path133" /></svg>
