<?xml version="1.0" encoding="UTF-8" standalone="no"?>
<svg
   width="16"
   height="16"
   viewBox="0 0 16 16"
   version="1.1"
   id="svg7"
   sodipodi:docname="zoom-out-x.svg"
   xml:space="preserve"
   inkscape:version="1.2.1 (9c6d41e410, 2022-07-14)"
   xmlns:inkscape="http://www.inkscape.org/namespaces/inkscape"
   xmlns:sodipodi="http://sodipodi.sourceforge.net/DTD/sodipodi-0.dtd"
   xmlns="http://www.w3.org/2000/svg"
   xmlns:svg="http://www.w3.org/2000/svg"><sodipodi:namedview
     id="namedview9"
     pagecolor="#ffffff"
     bordercolor="#000000"
     borderopacity="0.25"
     inkscape:showpageshadow="2"
     inkscape:pageopacity="0.0"
     inkscape:pagecheckerboard="0"
     inkscape:deskcolor="#d1d1d1"
     showgrid="false"
     inkscape:zoom="16.046875"
     inkscape:cx="-16.825706"
     inkscape:cy="6.8860759"
     inkscape:current-layer="svg7" /><defs
     id="defs3"><style
       id="current-color-scheme"
       type="text/css">
   .ColorScheme-Text { color:#444444; } .ColorScheme-Highlight { color:#4285f4; }
  </style><style
       id="current-color-scheme-535"
       type="text/css">
   .ColorScheme-Text { color:#444444; } .ColorScheme-Highlight { color:#4285f4; }
  </style><style
       id="current-color-scheme-53"
       type="text/css">
   .ColorScheme-Text { color:#444444; } .ColorScheme-Highlight { color:#4285f4; }
  </style><style
       id="current-color-scheme-5"
       type="text/css">
   .ColorScheme-Text { color:#444444; } .ColorScheme-Highlight { color:#4285f4; }
  </style></defs><g
     id="g317"
     transform="rotate(180,-3.057449,4.5774128)"><path
       style="fill:#444444;fill-opacity:1"
       d="m -10.114898,2.1548257 v 2.9999998 h -3 v 2 h 3.8125 c 0.663,0 1.1875,-0.54875 1.1875,-1.21875 V 2.1548257 Z"
       id="path305" /><path
       style="fill:#444444;fill-opacity:1"
       d="m -20.114898,1.1509195 v 6 h 6 v -6 z"
       id="path303" /><path
       style="fill:#444444;fill-opacity:1"
       d="m -18.927398,-4.8451743 c -0.6627,0 -1.1875,0.5488501 -1.1875,1.21875 v 3.78125 h 2 v -3 h 3 v -2 z"
       id="path301" /><path
       d="m -10.76492,-3.973984 v 0.0034 c 0.232417,0 0.45458,0.09228 0.618639,0.252925 l 1.7499633,1.74996 c 0.3417897,0.341789 0.3417897,0.895489 0,1.23727796 L -10.146281,1.019548 c -0.164059,0.160638 -0.386222,0.252921 -0.618639,0.249504 v 0.0068 h -0.874982 v -1.74999704 h -2.625092 c -0.481923,0 -0.874982,-0.393058 -0.874982,-0.87498096 0,-0.481923 0.393059,-0.874982 0.874982,-0.874982 h 2.625092 v -1.749905 z"
       id="path2-3"
       style="fill:#444444;fill-opacity:1;stroke-width:0.874981"
       sodipodi:nodetypes="cccsscccccsssccc" /></g></svg>
