<svg width="64" height="64" viewBox="0 0 64 64" fill="none" xmlns="http://www.w3.org/2000/svg">
<path d="M12.3846 4C9.4108 4 7 6.41078 7 9.38462V54.6154C7 57.5892 9.4108 60 12.3846 60H52.2308C55.2046 60 57.6154 57.5892 57.6154 54.6154V9.38462C57.6154 6.41078 55.2046 4 52.2308 4H12.3846ZM12.0615 13.6923C12.0615 10.7185 14.4723 8.30769 17.4462 8.30769H28.7C29.2948 8.30769 29.7769 8.78983 29.7769 9.38462C29.7769 9.9794 30.2591 10.4615 30.8538 10.4615H33.7615C34.3563 10.4615 34.8385 9.9794 34.8385 9.38462C34.8385 8.78983 35.3206 8.30769 35.9154 8.30769H47.1692C50.143 8.30769 52.5538 10.7185 52.5538 13.6923V50.3077C52.5538 53.2815 50.143 55.6923 47.1692 55.6923H17.4462C14.4723 55.6923 12.0615 53.2815 12.0615 50.3077V13.6923ZM31.9308 12.6154C30.7412 12.6154 29.7769 13.5797 29.7769 14.7692C29.7769 15.9588 30.7412 16.9231 31.9308 16.9231H32.6846C33.8742 16.9231 34.8385 15.9588 34.8385 14.7692C34.8385 13.5797 33.8742 12.6154 32.6846 12.6154H31.9308ZM31.9308 19.0769C30.7412 19.0769 29.7769 20.0412 29.7769 21.2308C29.7769 22.4203 30.7412 23.3846 31.9308 23.3846H32.6846C33.8742 23.3846 34.8385 22.4203 34.8385 21.2308C34.8385 20.0412 33.8742 19.0769 32.6846 19.0769H31.9308ZM32.3077 25.5385C30.91 25.5385 29.7769 26.6715 29.7769 28.0692V28.2492C29.7769 29.4391 28.9718 30.4493 27.9516 31.0619C26.0046 32.2309 24.7154 34.1458 24.7154 36.3077C24.7154 39.8508 28.1445 42.7692 32.3077 42.7692C36.4708 42.7692 39.9 39.8508 39.9 36.3077C39.9 34.1451 38.61 32.2296 36.6619 31.0597C35.6425 30.4475 34.8385 29.4378 34.8385 28.2488V28.0692C34.8385 26.6715 33.7054 25.5385 32.3077 25.5385ZM32.3077 34.1538C33.735 34.1538 34.8385 35.0929 34.8385 36.3077C34.8385 37.5225 33.735 38.4615 32.3077 38.4615C30.8803 38.4615 29.7769 37.5225 29.7769 36.3077C29.7769 35.0929 30.8803 34.1538 32.3077 34.1538Z" fill="url(#paint0_linear)"/>
<defs>
<linearGradient id="paint0_linear" x1="32.3077" y1="60" x2="32.3077" y2="4" gradientUnits="userSpaceOnUse">
<stop stop-color="#02AA93"/>
<stop offset="1" stop-color="#67FF80"/>
</linearGradient>
</defs>
</svg>
