<svg width="64" height="64" viewBox="0 0 64 64" fill="none" xmlns="http://www.w3.org/2000/svg">
<path d="M54.95 20.1C57.1868 20.1 59 18.2868 59 16.05V16.05C59 13.8132 57.1868 12 54.95 12H9.05C6.81325 12 5 13.8132 5 16.05V16.05C5 18.2868 6.81325 20.1 9.05 20.1H54.95ZM54.95 36.3C57.1868 36.3 59 34.4868 59 32.25V32.25C59 30.0132 57.1868 28.2 54.95 28.2H9.05C6.81325 28.2 5 30.0132 5 32.25V32.25C5 34.4868 6.81325 36.3 9.05 36.3H54.95ZM54.95 52.5C57.1868 52.5 59 50.6868 59 48.45V48.45C59 46.2132 57.1868 44.4 54.95 44.4H9.05C6.81325 44.4 5 46.2132 5 48.45V48.45C5 50.6868 6.81325 52.5 9.05 52.5H54.95Z" fill="url(#paint0_linear)"/>
<defs>
<linearGradient id="paint0_linear" x1="5.00791" y1="31.6499" x2="59.009" y2="31.6499" gradientUnits="userSpaceOnUse">
<stop stop-color="#A93AFF"/>
<stop offset="1" stop-color="#FF81FF"/>
</linearGradient>
</defs>
</svg>
