<svg width="128" height="128" viewBox="0 0 128 128" fill="none" xmlns="http://www.w3.org/2000/svg">
<path d="M58.1589 44.9092H37.386C36.7532 44.9092 36.1463 45.1605 35.6988 45.608C35.2514 46.0555 35 46.6623 35 47.2951V80.6989C35 81.3317 35.2514 81.9386 35.6988 82.386C36.1463 82.8335 36.7532 83.0849 37.386 83.0849H58.1589C59.2618 83.0854 60.3305 83.468 61.1832 84.1675L88.4639 106.536C88.8196 106.798 89.241 106.956 89.6811 106.992C90.1212 107.028 90.5628 106.942 90.9567 106.742C91.3505 106.542 91.6812 106.237 91.912 105.861C92.1427 105.484 92.2644 105.051 92.2636 104.609V23.3846C92.2633 22.9435 92.1408 22.5111 91.9096 22.1355C91.6784 21.7598 91.3477 21.4556 90.954 21.2566C90.5603 21.0576 90.1192 20.9716 89.6796 21.0082C89.2401 21.0448 88.8192 21.2026 88.4639 21.4639L61.1832 43.8325C60.3297 44.5299 59.2611 44.9103 58.1589 44.9092V44.9092Z" stroke="url(#paint0_linear)" stroke-width="12" stroke-linecap="round" stroke-linejoin="round"/>
<defs>
<linearGradient id="paint0_linear" x1="40.3268" y1="64" x2="82.4977" y2="64" gradientUnits="userSpaceOnUse">
<stop stop-color="#5570FF"/>
<stop offset="1" stop-color="#4DD3FF"/>
</linearGradient>
</defs>
</svg>
