<svg width="128" height="128" viewBox="0 0 128 128" fill="none" xmlns="http://www.w3.org/2000/svg">
<path d="M31.4132 44.9092H10.4122C9.77243 44.9092 9.15888 45.1605 8.70651 45.608C8.25414 46.0555 8 46.6623 8 47.2951V80.6989C8 81.3317 8.25414 81.9386 8.70651 82.386C9.15888 82.8335 9.77243 83.0849 10.4122 83.0849H31.4132C32.5282 83.0854 33.6086 83.468 34.4706 84.1675L62.0509 106.536C62.4106 106.798 62.8366 106.956 63.2815 106.992C63.7264 107.028 64.1728 106.942 64.571 106.742C64.9692 106.542 65.3035 106.237 65.5368 105.861C65.7701 105.484 65.8932 105.051 65.8923 104.609V23.3846C65.892 22.9435 65.7682 22.5111 65.5345 22.1355C65.3007 21.7598 64.9663 21.4556 64.5683 21.2566C64.1704 21.0576 63.7244 20.9716 63.28 21.0082C62.8356 21.0448 62.4101 21.2026 62.0509 21.4639L34.4706 43.8325C33.6078 44.5299 32.5275 44.9103 31.4132 44.9092V44.9092Z" stroke="url(#paint0_linear)" stroke-width="12" stroke-linecap="round" stroke-linejoin="round"/>
<path fill-rule="evenodd" clip-rule="evenodd" d="M109.656 27.5464C107.973 24.6917 104.295 23.7418 101.44 25.4245C98.5856 27.1073 97.6356 30.7856 99.3184 33.6402C104.975 43.236 108.136 51.0449 108.136 63.997C108.136 76.9193 104.839 84.8221 99.2952 94.3935C97.6343 97.2609 98.6124 100.932 101.48 102.593C104.347 104.254 108.018 103.276 109.679 100.408C115.882 89.6986 120.136 79.7066 120.136 63.997C120.136 48.3175 116.06 38.4103 109.656 27.5464ZM95.3464 42.1587C93.8274 39.2137 90.2085 38.0577 87.2635 39.5768C84.3185 41.0958 83.1625 44.7147 84.6816 47.6597C87.3291 52.7925 88.8383 58.0859 88.8383 63.9971C88.8383 69.7906 87.2626 75.2464 84.6632 80.3704C83.164 83.3255 84.3443 86.9365 87.2994 88.4357C90.2546 89.9349 93.8656 88.7546 95.3648 85.7994C98.639 79.3454 100.838 72.0362 100.838 63.9971C100.838 55.8846 98.7293 48.7172 95.3464 42.1587Z" fill="url(#paint1_linear)"/>
<defs>
<linearGradient id="paint0_linear" x1="36.9461" y1="107" x2="36.9461" y2="21" gradientUnits="userSpaceOnUse">
<stop stop-color="#00B59C"/>
<stop offset="1" stop-color="#9CFFAC"/>
</linearGradient>
<linearGradient id="paint1_linear" x1="102.074" y1="103.402" x2="102.074" y2="24.5923" gradientUnits="userSpaceOnUse">
<stop stop-color="#00B59C"/>
<stop offset="1" stop-color="#9CFFAC"/>
</linearGradient>
</defs>
</svg>
