<svg width="16" height="16" viewBox="0 0 16 16" fill="none" xmlns="http://www.w3.org/2000/svg">
<path d="M7.83333 1C7.3692 1 6.92409 1.18437 6.5959 1.51256C6.26771 1.84075 6.08333 2.28587 6.08333 2.75C6.08411 3.02839 6.15129 3.30259 6.2793 3.5498C5.05009 3.88955 3.96609 4.62276 3.19323 5.63719C2.42037 6.65162 2.00124 7.89137 2 9.16667C2 10.7138 2.61458 12.1975 3.70854 13.2915C4.80251 14.3854 6.28624 15 7.83333 15C8.59938 15 9.35792 14.8491 10.0657 14.556C10.7734 14.2628 11.4164 13.8331 11.9581 13.2915C12.4998 12.7498 12.9295 12.1067 13.2226 11.399C13.5158 10.6913 13.6667 9.93271 13.6667 9.16667C13.6647 7.82135 13.1978 6.51806 12.3451 5.47754L13.4456 4.37467C13.4526 4.36801 13.4595 4.36117 13.4661 4.35417L13.4707 4.35189C13.5322 4.29726 13.5815 4.23025 13.6152 4.15524C13.649 4.08023 13.6665 3.99893 13.6667 3.91667C13.6667 3.76196 13.6052 3.61358 13.4958 3.50419C13.3864 3.39479 13.238 3.33333 13.0833 3.33333C13.0011 3.33346 12.9198 3.35099 12.8448 3.38476C12.7698 3.41854 12.7027 3.46779 12.6481 3.5293L12.6458 3.52702L11.5202 4.65267C10.8952 4.14006 10.1704 3.76294 9.39193 3.54525C9.39193 3.54449 9.39193 3.54373 9.39193 3.54297C9.5173 3.29741 9.58289 3.02571 9.58333 2.75C9.58333 2.28587 9.39896 1.84075 9.07077 1.51256C8.74258 1.18437 8.29746 1 7.83333 1V1ZM7.83333 2.16667C7.98804 2.16667 8.13642 2.22812 8.24581 2.33752C8.35521 2.44692 8.41667 2.59529 8.41667 2.75C8.41667 2.90471 8.35521 3.05308 8.24581 3.16248C8.13642 3.27187 7.98804 3.33333 7.83333 3.33333C7.67862 3.33333 7.53025 3.27187 7.42085 3.16248C7.31146 3.05308 7.25 2.90471 7.25 2.75C7.25 2.59529 7.31146 2.44692 7.42085 2.33752C7.53025 2.22812 7.67862 2.16667 7.83333 2.16667V2.16667ZM7.83333 4.5C9.07101 4.5 10.258 4.99166 11.1332 5.86683C12.0083 6.742 12.5 7.92899 12.5 9.16667C12.5 10.4043 12.0083 11.5913 11.1332 12.4665C10.258 13.3417 9.07101 13.8333 7.83333 13.8333C6.59566 13.8333 5.40867 13.3417 4.5335 12.4665C3.65833 11.5913 3.16667 10.4043 3.16667 9.16667C3.16667 7.92899 3.65833 6.742 4.5335 5.86683C5.40867 4.99166 6.59566 4.5 7.83333 4.5V4.5ZM7.83333 5.66667V8C8.14275 8 8.4395 8.12292 8.65829 8.34171C8.87708 8.5605 9 8.85725 9 9.16667H11.3333C11.3333 8.23841 10.9646 7.34817 10.3082 6.69179C9.65183 6.03542 8.76159 5.66667 7.83333 5.66667Z" fill="url(#paint0_linear)"/>
<defs>
<linearGradient id="paint0_linear" x1="7.83333" y1="15" x2="7.83333" y2="1" gradientUnits="userSpaceOnUse">
<stop stop-color="#A93AFF"/>
<stop offset="1" stop-color="#FF81FF"/>
</linearGradient>
</defs>
</svg>
