<svg width="16" height="16" viewBox="0 0 16 16" fill="none" xmlns="http://www.w3.org/2000/svg">
<path d="M2 14.5V1.5C2 1.22386 2.22386 1 2.5 1H9.95956C10.0922 1 10.2193 1.05268 10.3131 1.14645L13.5202 4.35355C13.614 4.44732 13.6667 4.5745 13.6667 4.70711V9.25C13.6667 9.52614 13.4428 9.75 13.1667 9.75H13C12.7239 9.75 12.5 9.52614 12.5 9.25V6.16667C12.5 5.89052 12.2761 5.66667 12 5.66667H9.5C9.22386 5.66667 9 5.44281 9 5.16667V2.66667C9 2.39052 8.77614 2.16667 8.5 2.16667H3.66667C3.39052 2.16667 3.16667 2.39052 3.16667 2.66667V13.3333C3.16667 13.6095 3.39052 13.8333 3.66667 13.8333H7.33333C7.60948 13.8333 7.83333 14.0572 7.83333 14.3333V14.5C7.83333 14.7761 7.60948 15 7.33333 15H2.5C2.22386 15 2 14.7761 2 14.5Z" fill="url(#paint0_linear)"/>
<path d="M10.5809 12.2879L9.3535 11.0605C9.15827 10.8653 9.15827 10.5487 9.3535 10.3535C9.54873 10.1583 9.86527 10.1583 10.0605 10.3535L11.2879 11.5809C11.405 11.698 11.595 11.698 11.7121 11.5809L12.9395 10.3535C13.1347 10.1583 13.4513 10.1583 13.6465 10.3535C13.8417 10.5487 13.8417 10.8653 13.6465 11.0605L12.4191 12.2879C12.302 12.405 12.302 12.595 12.4191 12.7121L13.6465 13.9395C13.8417 14.1347 13.8417 14.4513 13.6465 14.6465C13.4513 14.8417 13.1347 14.8417 12.9395 14.6465L11.7121 13.4191C11.595 13.302 11.405 13.302 11.2879 13.4191L10.0605 14.6465C9.86527 14.8417 9.54873 14.8417 9.3535 14.6465C9.15827 14.4513 9.15827 14.1347 9.3535 13.9395L10.5809 12.7121C10.698 12.595 10.698 12.405 10.5809 12.2879Z" fill="url(#paint1_linear)"/>
<defs>
<linearGradient id="paint0_linear" x1="1.99829" y1="7.79256" x2="13.6641" y2="7.79256" gradientUnits="userSpaceOnUse">
<stop stop-color="#FD3A84"/>
<stop offset="1" stop-color="#FFA68D"/>
</linearGradient>
<linearGradient id="paint1_linear" x1="11.5" y1="15" x2="11.5" y2="10" gradientUnits="userSpaceOnUse">
<stop stop-color="#FF2424"/>
<stop offset="1" stop-color="#FF8D8D"/>
</linearGradient>
</defs>
</svg>
