<svg width="16" height="16" viewBox="0 0 16 16" fill="none" xmlns="http://www.w3.org/2000/svg">
<path d="M2 14.5V1.5C2 1.22386 2.22386 1 2.5 1H9.95956C10.0922 1 10.2193 1.05268 10.3131 1.14645L13.5202 4.35355C13.614 4.44732 13.6667 4.5745 13.6667 4.70711V9.25C13.6667 9.52614 13.4428 9.75 13.1667 9.75H13C12.7239 9.75 12.5 9.52614 12.5 9.25V6.16667C12.5 5.89052 12.2761 5.66667 12 5.66667H9.5C9.22386 5.66667 9 5.44281 9 5.16667V2.66667C9 2.39052 8.77614 2.16667 8.5 2.16667H3.66667C3.39052 2.16667 3.16667 2.39052 3.16667 2.66667V13.3333C3.16667 13.6095 3.39052 13.8333 3.66667 13.8333H7.33333C7.60948 13.8333 7.83333 14.0572 7.83333 14.3333V14.5C7.83333 14.7761 7.60948 15 7.33333 15H2.5C2.22386 15 2 14.7761 2 14.5Z" fill="url(#paint0_linear)"/>
<path d="M9.73561 12.0356L7.99985 12.0356C7.72375 12.0356 7.49992 11.8117 7.49992 11.5356C7.49992 11.2595 7.72375 11.0357 7.99985 11.0357L9.73561 11.0357C9.90129 11.0357 10.0356 10.9014 10.0356 10.7357L10.0356 8.99996C10.0356 8.72386 10.2594 8.50004 10.5355 8.50004C10.8116 8.50004 11.0355 8.72386 11.0355 8.99996L11.0355 10.7357C11.0355 10.9014 11.1698 11.0357 11.3355 11.0357H13.0712C13.3473 11.0357 13.5711 11.2595 13.5711 11.5356C13.5711 11.8117 13.3473 12.0356 13.0712 12.0356L11.3355 12.0356C11.1698 12.0356 11.0355 12.1699 11.0355 12.3356L11.0355 14.0713C11.0355 14.3474 10.8116 14.5713 10.5355 14.5713C10.2594 14.5713 10.0356 14.3474 10.0356 14.0713L10.0356 12.3356C10.0356 12.1699 9.90129 12.0356 9.73561 12.0356Z" fill="url(#paint1_linear)"/>
<defs>
<linearGradient id="paint0_linear" x1="7.83333" y1="15" x2="7.83333" y2="1" gradientUnits="userSpaceOnUse">
<stop stop-color="#00B59C"/>
<stop offset="1" stop-color="#9CFFAC"/>
</linearGradient>
<linearGradient id="paint1_linear" x1="12.3033" y1="13.3034" x2="8.76776" y2="9.76788" gradientUnits="userSpaceOnUse">
<stop stop-color="#02AA93"/>
<stop offset="1" stop-color="#67FF80"/>
</linearGradient>
</defs>
</svg>
