<svg width="24" height="24" viewBox="0 0 24 24" fill="none" xmlns="http://www.w3.org/2000/svg">
<path d="M21.6714 20.0942L17.8949 16.3287C19.1134 14.7764 19.7745 12.8595 19.772 10.886C19.772 9.12854 19.2509 7.41051 18.2745 5.94922C17.2981 4.48792 15.9103 3.34898 14.2866 2.67641C12.6629 2.00385 10.8761 1.82788 9.15245 2.17074C7.42873 2.51361 5.84539 3.35993 4.60266 4.60266C3.35993 5.84539 2.51361 7.42873 2.17074 9.15245C1.82788 10.8761 2.00385 12.6629 2.67641 14.2866C3.34898 15.9103 4.48792 17.2981 5.94922 18.2745C7.41051 19.2509 9.12854 19.772 10.886 19.772C12.8595 19.7745 14.7764 19.1134 16.3287 17.8949L20.0942 21.6714C20.1975 21.7755 20.3203 21.8582 20.4556 21.9146C20.591 21.971 20.7362 22 20.8828 22C21.0294 22 21.1746 21.971 21.31 21.9146C21.4453 21.8582 21.5681 21.7755 21.6714 21.6714C21.7755 21.5681 21.8582 21.4453 21.9146 21.31C21.971 21.1746 22 21.0294 22 20.8828C22 20.7362 21.971 20.591 21.9146 20.4556C21.8582 20.3203 21.7755 20.1975 21.6714 20.0942ZM4.22151 10.886C4.22151 9.56792 4.61238 8.2794 5.34469 7.18342C6.07699 6.08745 7.11785 5.23323 8.33562 4.72882C9.55341 4.22439 10.8935 4.09241 12.1862 4.34956C13.479 4.60671 14.6665 5.24145 15.5985 6.1735C16.5307 7.10555 17.1653 8.29306 17.4225 9.58584C17.6796 10.8786 17.5477 12.2186 17.0433 13.4364C16.5389 14.6543 15.6846 15.695 14.5886 16.4273C13.4926 17.1597 12.2042 17.5505 10.886 17.5505C9.11848 17.5505 7.42334 16.8484 6.1735 15.5985C4.92366 14.3487 4.22151 12.6536 4.22151 10.886Z" fill="url(#paint0_linear)"/>
<path d="M5.33203 11.1638C5.33203 10.397 5.95366 9.77539 6.72047 9.77539C7.48728 9.77539 8.10891 10.397 8.10891 11.1638C8.10891 11.9306 7.48728 12.5523 6.72047 12.5523C5.95366 12.5523 5.33203 11.9306 5.33203 11.1638Z" fill="url(#paint1_linear)"/>
<path d="M9.49736 11.1638C9.49736 10.397 10.119 9.77539 10.8858 9.77539C11.6526 9.77539 12.2742 10.397 12.2742 11.1638C12.2742 11.9306 11.6526 12.5523 10.8858 12.5523C10.119 12.5523 9.49736 11.9306 9.49736 11.1638Z" fill="url(#paint2_linear)"/>
<path d="M13.6627 11.1638C13.6627 10.397 14.2843 9.77539 15.0511 9.77539C15.8179 9.77539 16.4396 10.397 16.4396 11.1638C16.4396 11.9306 15.8179 12.5523 15.0511 12.5523C14.2843 12.5523 13.6627 11.9306 13.6627 11.1638Z" fill="url(#paint3_linear)"/>
<defs>
<linearGradient id="paint0_linear" x1="12" y1="2" x2="12" y2="22" gradientUnits="userSpaceOnUse">
<stop stop-color="#DC18FC"/>
<stop offset="1" stop-color="#8E1EFF"/>
</linearGradient>
<linearGradient id="paint1_linear" x1="10.8858" y1="9.77539" x2="10.8858" y2="12.5523" gradientUnits="userSpaceOnUse">
<stop stop-color="#DC18FC"/>
<stop offset="1" stop-color="#8E1EFF"/>
</linearGradient>
<linearGradient id="paint2_linear" x1="10.8858" y1="9.77539" x2="10.8858" y2="12.5523" gradientUnits="userSpaceOnUse">
<stop stop-color="#DC18FC"/>
<stop offset="1" stop-color="#8E1EFF"/>
</linearGradient>
<linearGradient id="paint3_linear" x1="10.8858" y1="9.77539" x2="10.8858" y2="12.5523" gradientUnits="userSpaceOnUse">
<stop stop-color="#DC18FC"/>
<stop offset="1" stop-color="#8E1EFF"/>
</linearGradient>
</defs>
</svg>
