<svg width="64" height="64" viewBox="0 0 64 64" fill="none" xmlns="http://www.w3.org/2000/svg">
<path d="M34.4706 12.1176C35.0229 12.1176 35.4706 12.5654 35.4706 13.1176V29.4706C35.4706 30.0229 35.9183 30.4706 36.4706 30.4706H36.6352C37.5261 30.4706 37.9723 31.5477 37.3423 32.1777L33.1189 36.4011C32.7283 36.7917 32.0952 36.7917 31.7047 36.4011L27.4812 32.1777C26.8513 31.5477 27.2974 30.4706 28.1883 30.4706H28.3529C28.9052 30.4706 29.3529 30.0229 29.3529 29.4706V13.1176C29.3529 12.5654 29.8007 12.1176 30.3529 12.1176H34.4706ZM41.5882 7C41.5882 6.44771 41.1405 6 40.5882 6H24.2353C23.683 6 23.2353 6.44772 23.2353 7V23.3529C23.2353 23.9052 22.7876 24.3529 22.2353 24.3529H13.4142C12.5233 24.3529 12.0771 25.4301 12.7071 26.06L31.7047 45.0576C32.0952 45.4481 32.7283 45.4481 33.1189 45.0576L52.1164 26.06C52.7464 25.4301 52.3002 24.3529 51.4093 24.3529H42.5882C42.036 24.3529 41.5882 23.9052 41.5882 23.3529V7ZM53.8235 52.8824C53.8235 52.3301 53.3758 51.8823 52.8235 51.8823H12C11.4477 51.8823 11 52.3301 11 52.8823V57C11 57.5523 11.4477 58 12 58H52.8235C53.3758 58 53.8235 57.5523 53.8235 57V52.8824Z" fill="url(#paint0_linear)"/>
<defs>
<linearGradient id="paint0_linear" x1="32.4118" y1="58" x2="32.4118" y2="6" gradientUnits="userSpaceOnUse">
<stop stop-color="#00B59C"/>
<stop offset="1" stop-color="#9CFFAC"/>
</linearGradient>
</defs>
</svg>
