<svg width="64" height="64" viewBox="0 0 64 64" fill="none" xmlns="http://www.w3.org/2000/svg">
<path d="M51.682 14.182L46.818 9.31803C45.9741 8.47412 44.8295 8.00001 43.6361 8H27.5C25.0147 8 23 10.0147 23 12.5V17H15.5C13.0147 17 11 19.0147 11 21.5V51.5C11 53.9853 13.0147 56 15.5 56H36.5C38.9853 56 41 53.9853 41 51.5V47H48.5C50.9853 47 53 44.9853 53 42.5V17.3639C53 16.1705 52.5259 15.0259 51.682 14.182ZM35.9375 51.5H16.0625C15.9133 51.5 15.7702 51.4407 15.6648 51.3352C15.5593 51.2298 15.5 51.0867 15.5 50.9375V22.0625C15.5 21.9133 15.5593 21.7702 15.6648 21.6648C15.7702 21.5593 15.9133 21.5 16.0625 21.5H23V42.5C23 44.9853 25.0147 47 27.5 47H36.5V50.9375C36.5 51.0867 36.4407 51.2298 36.3352 51.3352C36.2298 51.4407 36.0867 51.5 35.9375 51.5ZM47.9375 42.5H28.0625C27.9133 42.5 27.7702 42.4407 27.6648 42.3352C27.5593 42.2298 27.5 42.0867 27.5 41.9375V13.0625C27.5 12.9133 27.5593 12.7702 27.6648 12.6648C27.7702 12.5593 27.9133 12.5 28.0625 12.5H38V20.75C38 21.9927 39.0073 23 40.25 23H48.5V41.9375C48.5 42.0867 48.4407 42.2298 48.3352 42.3352C48.2298 42.4407 48.0867 42.5 47.9375 42.5V42.5ZM48.5 18.5H42.5V12.5H43.403C43.5522 12.5 43.6952 12.5592 43.8008 12.6647L48.3353 17.1992C48.3875 17.2515 48.4289 17.3135 48.4572 17.3817C48.4855 17.45 48.5 17.5231 48.5 17.597V18.5Z" fill="url(#paint0_linear)"/>
<defs>
<linearGradient id="paint0_linear" x1="32" y1="56" x2="32" y2="8" gradientUnits="userSpaceOnUse">
<stop stop-color="#5570FF"/>
<stop offset="1" stop-color="#4DD3FF"/>
</linearGradient>
</defs>
</svg>
