<svg width="24" height="24" viewBox="0 0 24 24" fill="none" xmlns="http://www.w3.org/2000/svg">
<path d="M21 14H15C14.7348 14 14.4804 13.8946 14.2929 13.7071C14.1054 13.5196 14 13.2652 14 13C14 12.7348 14.1054 12.4804 14.2929 12.2929C14.4804 12.1054 14.7348 12 15 12H21C21.2652 12 21.5196 12.1054 21.7071 12.2929C21.8946 12.4804 22 12.7348 22 13C22 13.2652 21.8946 13.5196 21.7071 13.7071C21.5196 13.8946 21.2652 14 21 14ZM18 17C17.7348 17 17.4804 16.8946 17.2929 16.7071C17.1054 16.5196 17 16.2652 17 16V10C17 9.73478 17.1054 9.48043 17.2929 9.29289C17.4804 9.10536 17.7348 9 18 9C18.2652 9 18.5196 9.10536 18.7071 9.29289C18.8946 9.48043 19 9.73478 19 10V16C19 16.2652 18.8946 16.5196 18.7071 16.7071C18.5196 16.8946 18.2652 17 18 17ZM9 6C10.654 6 12 7.346 12 9C12 10.654 10.654 12 9 12C7.346 12 6 10.654 6 9C6 7.346 7.346 6 9 6ZM9 4C6.236 4 4 6.238 4 9C4 11.762 6.236 14 9 14C11.764 14 14 11.762 14 9C14 6.238 11.764 4 9 4ZM9 17C11.021 17 12.301 17.771 12.783 18.445C12.1 18.705 10.814 19 9 19C7.016 19 5.794 18.695 5.182 18.458C5.641 17.743 6.959 17 9 17ZM9 15C5.25 15 3 17 3 19C3 20 5.25 21 9 21C12.518 21 15 20 15 19C15 17 12.646 15 9 15Z" fill="url(#paint0_linear)"/>
<defs>
<linearGradient id="paint0_linear" x1="12.5" y1="21" x2="12.5" y2="4" gradientUnits="userSpaceOnUse">
<stop stop-color="#02AA93"/>
<stop offset="1" stop-color="#67FF80"/>
</linearGradient>
</defs>
</svg>
