<svg width="22" height="22" viewBox="0 0 22 22" fill="none" xmlns="http://www.w3.org/2000/svg">
<path d="M4.53921 2C4.274 2 4.01964 2.10536 3.83211 2.29289L3.29289 2.83211C3.10536 3.01964 3 3.274 3 3.53921V4.25V4.27462C3 4.48161 3.06423 4.6835 3.18383 4.85244L8.44117 12.2784C8.56077 12.4474 8.625 12.6492 8.625 12.8562V16.625V16.625C8.625 16.6536 8.63341 16.6811 8.65004 16.7044C8.90504 17.0615 11.0638 19.9976 13.114 20V20C14.1825 20.0012 13.125 19.1345 13.125 18.0659V12.8562C13.125 12.6492 13.1892 12.4474 13.3088 12.2784L18.5662 4.85244C18.6858 4.6835 18.75 4.48161 18.75 4.27462V3.53921C18.75 3.274 18.6446 3.01964 18.4571 2.83211L17.9179 2.29289C17.7304 2.10536 17.476 2 17.2108 2H4.53921ZM4.125 3.96844C4.125 3.50262 4.50262 3.125 4.96844 3.125H16.7816C17.2474 3.125 17.625 3.50262 17.625 3.96844V3.96844C17.625 4.14304 17.5708 4.31335 17.4699 4.45584L12.0473 12.114C12.0425 12.1209 12.0345 12.125 12.0261 12.125V12.125C12.0117 12.125 12 12.1367 12 12.1511V12.1799V13.25V15.7845C12 16.6062 11.0639 17.0772 10.404 16.5875L10.154 16.4019C9.89985 16.2133 9.75 15.9154 9.75 15.5989V13.25V12.1799V12.1511C9.75 12.1367 9.73833 12.125 9.72393 12.125V12.125C9.71548 12.125 9.70754 12.1209 9.70266 12.114L4.28009 4.45585C4.17919 4.31335 4.125 4.14304 4.125 3.96844V3.96844Z" fill="url(#paint0_linear)"/>
<defs>
<linearGradient id="paint0_linear" x1="10.875" y1="20.0011" x2="10.875" y2="2" gradientUnits="userSpaceOnUse">
<stop stop-color="#5570FF"/>
<stop offset="1" stop-color="#4DD3FF"/>
</linearGradient>
</defs>
</svg>
