<svg width="16" height="16" viewBox="0 0 16 16" fill="none" xmlns="http://www.w3.org/2000/svg">
<path d="M8.35158 1.3477C8.15678 1.15505 7.84322 1.15505 7.64842 1.3477L7.17743 1.81348C7.17616 1.81474 7.17615 1.81678 7.17741 1.81804V1.81804C7.17867 1.81929 7.17867 1.82133 7.17741 1.82258L1.00161 7.99611C1.00058 7.99714 1 7.99854 1 8V8V8.66667C1 8.94281 1.22386 9.16667 1.5 9.16667H1.67578C1.95192 9.16667 2.17578 9.39052 2.17578 9.66667V13.8288C2.17578 13.8313 2.17374 13.8333 2.17122 13.8333V13.8333C2.16871 13.8333 2.16667 13.8354 2.16667 13.8379V14.5C2.16667 14.7761 2.39052 15 2.66667 15H13.3333C13.6095 15 13.8333 14.7761 13.8333 14.5V13.8333V9.66667C13.8333 9.39052 14.0572 9.16667 14.3333 9.16667H14.5C14.7761 9.16667 15 8.94281 15 8.66667V8V8C15 7.99854 14.9994 7.99714 14.9984 7.99611L14.0205 7.01827C13.8253 6.823 13.5087 6.823 13.3134 7.01827L13.0005 7.33125C12.9168 7.41492 12.9168 7.55058 13.0005 7.63425L13.0164 7.65023C13.1455 7.7793 13.0541 8 12.8716 8V8C12.7584 8 12.6667 8.09173 12.6667 8.20489V13.3333C12.6667 13.6095 12.4428 13.8333 12.1667 13.8333H9.66667C9.39052 13.8333 9.16667 13.6095 9.16667 13.3333V10.8333C9.16667 10.5572 8.94281 10.3333 8.66667 10.3333H7.33333C7.05719 10.3333 6.83333 10.5572 6.83333 10.8333V13.3333C6.83333 13.6095 6.60948 13.8333 6.33333 13.8333H3.83333C3.55719 13.8333 3.33333 13.6095 3.33333 13.3333V9.16667V8.20485C3.33333 8.09171 3.24162 8 3.12849 8V8C2.94596 8 2.85458 7.77931 2.98367 7.65027L7.99658 2.63949C7.99721 2.63886 7.99823 2.63886 7.99886 2.63949V2.63949C7.99949 2.64011 8.00051 2.64011 8.00114 2.63949V2.63949C8.00177 2.63886 8.00279 2.63886 8.00342 2.63948L9.33037 3.96463C9.52567 4.15967 9.84206 4.15956 10.0372 3.96439L10.1482 3.85347C10.3435 3.65811 10.3434 3.34134 10.1479 3.14612L8.82259 1.82258C8.82133 1.82133 8.82133 1.81929 8.82259 1.81804V1.81804C8.82384 1.81678 8.82384 1.81474 8.82257 1.81348L8.35158 1.3477ZM12 2.16667C11.7239 2.16667 11.5 2.39052 11.5 2.66667V5.16667C11.5 5.44281 11.7239 5.66667 12 5.66667H12.1758C12.4519 5.66667 12.6758 5.44281 12.6758 5.16667V2.66667C12.6758 2.39052 12.4519 2.16667 12.1758 2.16667H12Z" fill="url(#paint0_linear)"/>
<defs>
<linearGradient id="paint0_linear" x1="2" y1="8" x2="13.3613" y2="6.7445" gradientUnits="userSpaceOnUse">
<stop stop-color="#8D01A2"/>
<stop offset="1" stop-color="#FF00D2"/>
</linearGradient>
</defs>
</svg>
