<svg width="16" height="16" viewBox="0 0 16 16" fill="none" xmlns="http://www.w3.org/2000/svg">
<path d="M2.9999 1.99996C3.3904 1.60947 4.02351 1.60947 4.41401 1.99996L9.3534 6.93936C9.93919 7.52514 9.93919 8.47489 9.3534 9.06068L4.41401 14.0001C4.02351 14.3906 3.3904 14.3906 2.9999 14.0001C2.60941 13.6096 2.60941 12.9765 2.9999 12.586L7.2323 8.35357C7.42756 8.15831 7.42756 7.84173 7.2323 7.64646L2.9999 3.41407C2.60941 3.02358 2.60941 2.39046 2.9999 1.99996Z" fill="url(#paint0_linear)"/>
<path d="M13 6C12.4696 6 11.9609 6.21071 11.5858 6.58579C11.2107 6.96086 11 7.46957 11 8C11 8.53043 11.2107 9.03914 11.5858 9.41421C11.9609 9.78929 12.4696 10 13 10C13.5304 10 14.0391 9.78929 14.4142 9.41421C14.7893 9.03914 15 8.53043 15 8C15 7.46957 14.7893 6.96086 14.4142 6.58579C14.0391 6.21071 13.5304 6 13 6Z" fill="url(#paint1_linear)"/>
<defs>
<linearGradient id="paint0_linear" x1="8.85352" y1="1.70709" x2="8.85352" y2="14.2929" gradientUnits="userSpaceOnUse">
<stop stop-color="#DC18FC"/>
<stop offset="1" stop-color="#8E1EFF"/>
</linearGradient>
<linearGradient id="paint1_linear" x1="8.85352" y1="1.70709" x2="8.85352" y2="14.2929" gradientUnits="userSpaceOnUse">
<stop stop-color="#DC18FC"/>
<stop offset="1" stop-color="#8E1EFF"/>
</linearGradient>
</defs>
</svg>
