<svg width="24" height="24" viewBox="0 0 24 24" fill="none" xmlns="http://www.w3.org/2000/svg">
<path d="M6.61632 2.99028C6.73244 2.87387 6.87038 2.78152 7.02224 2.7185C7.1741 2.65548 7.33691 2.62305 7.50133 2.62305C7.66574 2.62305 7.82855 2.65548 7.98041 2.7185C8.13227 2.78152 8.27021 2.87387 8.38632 2.99028L16.6963 11.3003C16.789 11.3928 16.8626 11.5027 16.9128 11.6237C16.9629 11.7446 16.9888 11.8743 16.9888 12.0053C16.9888 12.1362 16.9629 12.2659 16.9128 12.3869C16.8626 12.5079 16.789 12.6178 16.6963 12.7103L8.38632 21.0203C7.89632 21.5103 7.10632 21.5103 6.61632 21.0203C6.12632 20.5303 6.12632 19.7403 6.61632 19.2503L13.8563 12.0003L6.60633 4.75028C6.12633 4.27028 6.12632 3.47028 6.61632 2.99028Z" fill="url(#paint0_linear)"/>
<defs>
<linearGradient id="paint0_linear" x1="6.27939" y1="2.74201" x2="22.2644" y2="11.8159" gradientUnits="userSpaceOnUse">
<stop stop-color="#FE7970"/>
<stop offset="1" stop-color="#DC3282"/>
</linearGradient>
</defs>
</svg>
