<svg width="24" height="24" viewBox="0 0 24 24" fill="none" xmlns="http://www.w3.org/2000/svg">
<path fill-rule="evenodd" clip-rule="evenodd" d="M21.7219 11.2506C21.7529 11.6637 21.4142 12 21 12C20.5858 12 20.2534 11.6635 20.2169 11.2509C20.0595 9.47061 19.5937 7.77801 18.4121 6.42016C17.0658 4.87301 15.2054 3.86482 13.1741 3.58151C11.1429 3.2982 9.07766 3.7589 7.35936 4.87863C5.64106 5.99835 4.38556 7.7016 3.82439 9.67427C3.26321 11.6469 3.43421 13.756 4.30585 15.6125C5.17748 17.469 6.69097 18.9477 8.56721 19.776C10.4434 20.6043 12.5559 20.7262 14.515 20.1194C16.2344 19.5868 17.7339 18.5244 18.8049 17.0935C19.0531 16.7619 19.5128 16.6508 19.865 16.8688C20.2171 17.0868 20.3281 17.551 20.0843 17.8859C18.8196 19.6231 17.0241 20.9125 14.9588 21.5522C12.654 22.2662 10.1688 22.1227 7.96143 21.1482C5.75409 20.1738 3.97351 18.4341 2.94805 16.2499C1.9226 14.0658 1.72142 11.5846 2.38163 9.26384C3.04183 6.94305 4.5189 4.93923 6.54042 3.62191C8.56195 2.30458 10.9916 1.7626 13.3813 2.09589C15.7711 2.42919 17.9597 3.6153 19.5437 5.43548C20.9629 7.06645 21.5609 9.10793 21.7219 11.2506ZM8 10C6.89543 10 6 10.8954 6 12C6 13.1046 6.89543 14 8 14H16C17.1046 14 18 13.1046 18 12C18 10.8954 17.1046 10 16 10H8Z" fill="url(#paint0_linear)"/>
<defs>
<linearGradient id="paint0_linear" x1="1.99711" y1="11.7037" x2="21.7196" y2="11.7037" gradientUnits="userSpaceOnUse">
<stop stop-color="#FD3A84"/>
<stop offset="1" stop-color="#FFA68D"/>
</linearGradient>
</defs>
</svg>
