<svg width="16" height="16" viewBox="0 0 16 16" fill="none" xmlns="http://www.w3.org/2000/svg">
<path d="M14.2833 2.28331C14.3584 2.20821 14.4006 2.10634 14.4006 2.00011C14.4006 1.89389 14.3584 1.79202 14.2833 1.71691C14.2082 1.64181 14.1063 1.59961 14.0001 1.59961C13.8939 1.59961 13.792 1.64181 13.7169 1.71691L11.5825 3.85211C10.9614 3.36881 10.1851 3.129 9.39963 3.17776C8.61414 3.22652 7.8735 3.5605 7.31691 4.11691L7.07691 4.35691C6.96613 4.46761 6.87824 4.59906 6.81828 4.74374C6.75832 4.88842 6.72746 5.0435 6.72746 5.20011C6.72746 5.35673 6.75832 5.51181 6.81828 5.65649C6.87824 5.80117 6.96613 5.93261 7.07691 6.04331L9.95691 8.92331C10.1805 9.14681 10.4836 9.27237 10.7997 9.27237C11.1158 9.27237 11.419 9.14681 11.6425 8.92331L11.8825 8.68331C12.439 8.12684 12.7732 7.38625 12.8221 6.60075C12.871 5.81525 12.6313 5.03893 12.1481 4.41771L14.2833 2.28331V2.28331ZM11.0769 8.35691C11.0405 8.39332 10.9973 8.4222 10.9497 8.4419C10.9022 8.4616 10.8512 8.47174 10.7997 8.47174C10.7482 8.47174 10.6973 8.4616 10.6497 8.4419C10.6021 8.4222 10.5589 8.39332 10.5225 8.35691L7.64251 5.47692C7.56924 5.40343 7.52809 5.30389 7.52809 5.20011C7.52809 5.09634 7.56924 4.9968 7.64251 4.92331L7.88251 4.68331C8.3412 4.24441 8.95349 4.00253 9.5883 4.00949C10.2231 4.01644 10.83 4.27167 11.2789 4.72052C11.7279 5.16937 11.9832 5.77617 11.9903 6.41097C11.9974 7.04578 11.7557 7.65813 11.3169 8.11691L11.0769 8.35691V8.35691ZM6.04331 7.07691C5.81978 6.85341 5.51662 6.72786 5.20052 6.72786C4.88441 6.72786 4.58125 6.85341 4.35771 7.07691L4.11771 7.31691C3.56118 7.87339 3.22706 8.61398 3.17815 9.39948C3.12924 10.185 3.36891 10.9613 3.85211 11.5825L1.71691 13.7169C1.64181 13.792 1.59961 13.8939 1.59961 14.0001C1.59961 14.1063 1.64181 14.2082 1.71691 14.2833C1.79202 14.3584 1.89389 14.4006 2.00011 14.4006C2.10634 14.4006 2.20821 14.3584 2.28331 14.2833L4.41771 12.1481C5.03893 12.6313 5.81525 12.871 6.60075 12.8221C7.38625 12.7732 8.12684 12.439 8.68331 11.8825L8.92331 11.6425C9.14681 11.419 9.27237 11.1158 9.27237 10.7997C9.27237 10.4836 9.14681 10.1805 8.92331 9.95691L6.04331 7.07691V7.07691ZM4.92331 7.64331C4.95972 7.60691 5.00293 7.57803 5.05049 7.55833C5.09806 7.53863 5.14903 7.52849 5.20052 7.52849C5.252 7.52849 5.30297 7.53863 5.35054 7.55833C5.3981 7.57803 5.44131 7.60691 5.47771 7.64331L8.35771 10.5233C8.43099 10.5968 8.47214 10.6963 8.47214 10.8001C8.47214 10.9039 8.43099 11.0034 8.35771 11.0769L8.11771 11.3169C7.89226 11.5424 7.6246 11.7213 7.33001 11.8434C7.03542 11.9654 6.71967 12.0283 6.4008 12.0283C6.08192 12.0284 5.76616 11.9656 5.47154 11.8436C5.17692 11.7216 4.90922 11.5428 4.68371 11.3173C4.45821 11.0919 4.27932 10.8242 4.15725 10.5296C4.03519 10.235 3.97235 9.91927 3.97231 9.6004C3.97224 8.9564 4.22799 8.33874 4.68331 7.88331L4.92331 7.64331V7.64331Z" fill="url(#paint0_linear)" stroke="url(#paint1_linear)" stroke-width="0.5"/>
<defs>
<linearGradient id="paint0_linear" x1="8.00011" y1="14.4006" x2="8.00011" y2="1.59961" gradientUnits="userSpaceOnUse">
<stop stop-color="#00B59C"/>
<stop offset="1" stop-color="#9CFFAC"/>
</linearGradient>
<linearGradient id="paint1_linear" x1="8.00011" y1="14.4006" x2="8.00011" y2="1.59961" gradientUnits="userSpaceOnUse">
<stop stop-color="#00B59C"/>
<stop offset="1" stop-color="#9CFFAC"/>
</linearGradient>
</defs>
</svg>
