<svg width="24" height="24" viewBox="0 0 24 24" fill="none" xmlns="http://www.w3.org/2000/svg">
<path d="M4.71019 3.29019C4.61695 3.19695 4.50626 3.12299 4.38443 3.07253C4.26261 3.02207 4.13204 2.99609 4.00019 2.99609C3.86833 2.99609 3.73776 3.02207 3.61594 3.07253C3.49411 3.12299 3.38342 3.19695 3.29019 3.29019C3.10188 3.47849 2.99609 3.73388 2.99609 4.00019C2.99609 4.26649 3.10188 4.52188 3.29019 4.71019L8.92019 10.3402C8.56399 11.0028 8.43077 11.7626 8.54027 12.5068C8.64978 13.2511 8.99617 13.9403 9.52812 14.4722C10.0601 15.0042 10.7493 15.3506 11.4935 15.4601C12.2378 15.5696 12.9976 15.4364 13.6602 15.0802L19.2902 20.7102C19.3831 20.8039 19.4937 20.8783 19.6156 20.9291C19.7375 20.9798 19.8682 21.006 20.0002 21.006C20.1322 21.006 20.2629 20.9798 20.3848 20.9291C20.5066 20.8783 20.6172 20.8039 20.7102 20.7102C20.8039 20.6172 20.8783 20.5066 20.9291 20.3848C20.9798 20.2629 21.006 20.1322 21.006 20.0002C21.006 19.8682 20.9798 19.7375 20.9291 19.6156C20.8783 19.4937 20.8039 19.3831 20.7102 19.2902L4.71019 3.29019ZM12.0002 13.5002C11.6024 13.5002 11.2208 13.3422 10.9395 13.0608C10.6582 12.7795 10.5002 12.398 10.5002 12.0002V11.9302L12.0602 13.4902L12.0002 13.5002Z" fill="url(#paint0_linear)"/>
<path d="M12.2201 17.0004C7.92007 17.1004 5.10007 13.4104 4.22007 12.0004C4.84654 11.0011 5.59943 10.0868 6.46007 9.28036L5.00007 7.87036C3.87139 8.93383 2.90448 10.1568 2.13007 11.5004C2.0423 11.6524 1.99609 11.8248 1.99609 12.0004C1.99609 12.1759 2.0423 12.3483 2.13007 12.5004C2.76007 13.5904 6.13007 19.0004 12.0201 19.0004H12.2701C13.3776 18.9675 14.4708 18.7407 15.5001 18.3304L13.9201 16.7504C13.3644 16.8965 12.7943 16.9804 12.2201 17.0004ZM21.8701 11.5004C21.2301 10.3904 17.7001 4.82036 11.7301 5.00036C10.6225 5.03321 9.52931 5.25998 8.50007 5.67036L10.0801 7.25036C10.6357 7.10419 11.2059 7.02034 11.7801 7.00036C16.0701 6.89036 18.8901 10.5904 19.7801 12.0004C19.1381 13.0027 18.3683 13.917 17.4901 14.7204L19.0001 16.1304C20.1429 15.0697 21.1234 13.8466 21.9101 12.5004C21.9918 12.3449 22.0312 12.1705 22.0242 11.995C22.0171 11.8194 21.964 11.6488 21.8701 11.5004V11.5004Z" fill="url(#paint1_linear)"/>
<defs>
<linearGradient id="paint0_linear" x1="20.9526" y1="3.11027" x2="3.0852" y2="20.829" gradientUnits="userSpaceOnUse">
<stop stop-color="#FE7970"/>
<stop offset="1" stop-color="#DC3282"/>
</linearGradient>
<linearGradient id="paint1_linear" x1="21.9656" y1="5.08487" x2="8.87888" y2="23.6457" gradientUnits="userSpaceOnUse">
<stop stop-color="#FE7970"/>
<stop offset="1" stop-color="#DC3282"/>
</linearGradient>
</defs>
</svg>
