<svg width="16" height="16" viewBox="0 0 16 16" fill="none" xmlns="http://www.w3.org/2000/svg">
<path d="M1.5 1C1.22386 1 1 1.22386 1 1.5V5.62622C1 6.07168 1.53857 6.29476 1.85355 5.97978L5.97978 1.85355C6.29476 1.53857 6.07168 1 5.62623 1H1.5ZM10.3738 1C9.92832 1 9.70524 1.53857 10.0202 1.85355L14.1464 5.97978C14.4614 6.29476 15 6.07168 15 5.62623V1.5C15 1.22386 14.7761 1 14.5 1H10.3738ZM1.85355 10.0202C1.53857 9.70524 1 9.92832 1 10.3738V14.5C1 14.7761 1.22386 15 1.5 15H5.62622C6.07168 15 6.29476 14.4614 5.97978 14.1464L1.85355 10.0202ZM15 10.3738C15 9.92832 14.4614 9.70524 14.1464 10.0202L10.0202 14.1464C9.70524 14.4614 9.92832 15 10.3738 15H14.5C14.7761 15 15 14.7761 15 14.5V10.3738Z" fill="url(#paint0_linear)"/>
<path fill-rule="evenodd" clip-rule="evenodd" d="M5 4.5C4.72386 4.5 4.5 4.72386 4.5 5V6.60547V10.7891V11C4.5 11.2761 4.72386 11.5 5 11.5H11C11.2761 11.5 11.5 11.2761 11.5 11V10.7891V5C11.5 4.72386 11.2761 4.5 11 4.5H5.21094H5ZM5.375 6.75C5.375 6.47386 5.59886 6.25 5.875 6.25H10.125C10.4011 6.25 10.625 6.47386 10.625 6.75V10.125C10.625 10.4011 10.4011 10.625 10.125 10.625H5.875C5.59886 10.625 5.375 10.4011 5.375 10.125V6.75Z" fill="url(#paint1_linear)"/>
<defs>
<linearGradient id="paint0_linear" x1="7.39122" y1="14.624" x2="8.97294" y2="1.97355" gradientUnits="userSpaceOnUse">
<stop stop-color="#8D01A2"/>
<stop offset="1" stop-color="#FF33DB"/>
</linearGradient>
<linearGradient id="paint1_linear" x1="8" y1="11.5" x2="8" y2="4.5" gradientUnits="userSpaceOnUse">
<stop stop-color="#A93AFF"/>
<stop offset="1" stop-color="#FF81FF"/>
</linearGradient>
</defs>
</svg>
