<svg width="32" height="32" viewBox="0 0 32 32" fill="none" xmlns="http://www.w3.org/2000/svg">
<path d="M13.3333 28.4444H9.77777C9.54202 28.4444 9.31593 28.3508 9.14923 28.1841C8.98253 28.0174 8.88888 27.7913 8.88888 27.5556V24C8.88888 23.7643 8.98253 23.5382 9.14923 23.3715C9.31593 23.2048 9.54202 23.1111 9.77777 23.1111H13.3333C13.5691 23.1111 13.7952 23.2048 13.9619 23.3715C14.1286 23.5382 14.2222 23.7643 14.2222 24V27.5556C14.2222 27.7913 14.1286 28.0174 13.9619 28.1841C13.7952 28.3508 13.5691 28.4444 13.3333 28.4444ZM10.6667 26.6667H12.4444V24.8889H10.6667V26.6667Z" fill="url(#paint0_linear)"/>
<path d="M13.3333 14.2222H9.77777C9.54202 14.2222 9.31593 14.3159 9.14923 14.4826C8.98253 14.6493 8.88888 14.8754 8.88888 15.1111V16.1778H5.15555V10.6667H6.22222C6.45796 10.6667 6.68406 10.573 6.85075 10.4063C7.01745 10.2396 7.1111 10.0135 7.1111 9.77778V6.22222C7.1111 5.98647 7.01745 5.76038 6.85075 5.59368C6.68406 5.42698 6.45796 5.33333 6.22222 5.33333H2.66666C2.43091 5.33333 2.20482 5.42698 2.03812 5.59368C1.87142 5.76038 1.77777 5.98647 1.77777 6.22222V9.77778C1.77777 10.0135 1.87142 10.2396 2.03812 10.4063C2.20482 10.573 2.43091 10.6667 2.66666 10.6667H3.73333V26.4889H9.38666C9.57526 26.4889 9.75613 26.414 9.88949 26.2806C10.0229 26.1472 10.0978 25.9664 10.0978 25.7778C10.0978 25.5892 10.0229 25.4083 9.88949 25.2749C9.75613 25.1416 9.57526 25.0667 9.38666 25.0667H5.15555V17.6H8.88888V18.6667C8.88888 18.9024 8.98253 19.1285 9.14923 19.2952C9.31593 19.4619 9.54202 19.5556 9.77777 19.5556H13.3333C13.5691 19.5556 13.7952 19.4619 13.9619 19.2952C14.1286 19.1285 14.2222 18.9024 14.2222 18.6667V15.1111C14.2222 14.8754 14.1286 14.6493 13.9619 14.4826C13.7952 14.3159 13.5691 14.2222 13.3333 14.2222ZM3.55555 7.11111H5.33333V8.88889H3.55555V7.11111ZM12.4444 17.7778H10.6667V16H12.4444V17.7778Z" fill="url(#paint1_linear)"/>
<path d="M30.2222 8.36111C30.2222 8.02959 30.1286 7.71165 29.9619 7.47723C29.7952 7.24281 29.5691 7.11111 29.3333 7.11111H9.88888C9.3366 7.11111 8.88888 7.55883 8.88888 8.11111V8.61111C8.88888 9.16339 9.3366 9.61111 9.88888 9.61111H29.3333C29.5691 9.61111 29.7952 9.47941 29.9619 9.24499C30.1286 9.01057 30.2222 8.69263 30.2222 8.36111Z" fill="url(#paint2_linear)"/>
<path d="M29.3333 16H17C16.4477 16 16 16.4477 16 17V17.5C16 18.0523 16.4477 18.5 17 18.5H29.3333C29.5691 18.5 29.7952 18.3683 29.9619 18.1339C30.1286 17.8995 30.2222 17.5815 30.2222 17.25C30.2222 16.9185 30.1286 16.6005 29.9619 16.3661C29.7952 16.1317 29.5691 16 29.3333 16Z" fill="url(#paint3_linear)"/>
<path d="M29.3333 24.8889H17C16.4477 24.8889 16 25.3366 16 25.8889V26.3889C16 26.9412 16.4477 27.3889 17 27.3889H29.3333C29.5691 27.3889 29.7952 27.2572 29.9619 27.0228C30.1286 26.7884 30.2222 26.4704 30.2222 26.1389C30.2222 25.8074 30.1286 25.4894 29.9619 25.255C29.7952 25.0206 29.5691 24.8889 29.3333 24.8889Z" fill="url(#paint4_linear)"/>
<defs>
<linearGradient id="paint0_linear" x1="16" y1="28.4444" x2="16" y2="5.33333" gradientUnits="userSpaceOnUse">
<stop stop-color="#FD5900"/>
<stop offset="1" stop-color="#FFDE00"/>
</linearGradient>
<linearGradient id="paint1_linear" x1="16" y1="28.4444" x2="16" y2="5.33333" gradientUnits="userSpaceOnUse">
<stop stop-color="#FD5900"/>
<stop offset="1" stop-color="#FFDE00"/>
</linearGradient>
<linearGradient id="paint2_linear" x1="16" y1="28.4444" x2="16" y2="5.33333" gradientUnits="userSpaceOnUse">
<stop stop-color="#FD5900"/>
<stop offset="1" stop-color="#FFDE00"/>
</linearGradient>
<linearGradient id="paint3_linear" x1="16" y1="28.4444" x2="16" y2="5.33333" gradientUnits="userSpaceOnUse">
<stop stop-color="#FD5900"/>
<stop offset="1" stop-color="#FFDE00"/>
</linearGradient>
<linearGradient id="paint4_linear" x1="16" y1="28.4444" x2="16" y2="5.33333" gradientUnits="userSpaceOnUse">
<stop stop-color="#FD5900"/>
<stop offset="1" stop-color="#FFDE00"/>
</linearGradient>
</defs>
</svg>
