<svg width="16" height="16" viewBox="0 0 16 16" fill="none" xmlns="http://www.w3.org/2000/svg">
<path d="M6.87377 1C6.42832 1 6.20524 1.53857 6.52022 1.85355L8 3.33333L9.47978 1.85355C9.79476 1.53857 9.57168 1 9.12623 1H6.87377ZM8 3.33333H3.83333C3.55719 3.33333 3.33333 3.55719 3.33333 3.83333V8V12.1667C3.33333 12.4428 3.55719 12.6667 3.83333 12.6667H8H12.1667C12.4428 12.6667 12.6667 12.4428 12.6667 12.1667V8V3.83333C12.6667 3.55719 12.4428 3.33333 12.1667 3.33333H8ZM12.6667 8L14.1464 9.47978C14.4614 9.79476 15 9.57168 15 9.12623V6.87377C15 6.42832 14.4614 6.20524 14.1464 6.52022L12.6667 8ZM8 12.6667L6.52022 14.1464C6.20524 14.4614 6.42832 15 6.87377 15H9.12623C9.57168 15 9.79476 14.4614 9.47978 14.1464L8 12.6667ZM3.33333 8L1.85355 6.52022C1.53857 6.20524 1 6.42832 1 6.87377V9.12623C1 9.57168 1.53857 9.79476 1.85355 9.47978L3.33333 8ZM4.5 6.16667C4.5 5.89052 4.72386 5.66667 5 5.66667H11C11.2761 5.66667 11.5 5.89052 11.5 6.16667V11C11.5 11.2761 11.2761 11.5 11 11.5H5C4.72386 11.5 4.5 11.2761 4.5 11V6.16667Z" fill="url(#paint0_linear)"/>
<defs>
<linearGradient id="paint0_linear" x1="14.527" y1="1.40016" x2="9.06638" y2="15.1117" gradientUnits="userSpaceOnUse">
<stop stop-color="#FE0F7C"/>
<stop offset="1" stop-color="#DF0066"/>
</linearGradient>
</defs>
</svg>
