<svg width="32" height="32" viewBox="0 0 32 32" fill="none" xmlns="http://www.w3.org/2000/svg">
<path d="M22.3657 4.70711C21.9752 4.31658 21.342 4.31658 20.9515 4.70711L11.4882 14.1705C11.0976 14.561 10.4645 14.561 10.0739 14.1705L8.31747 12.414C7.92694 12.0235 7.29378 12.0235 6.90325 12.414L6.82103 12.4962C6.43046 12.8868 6.43052 13.5201 6.82117 13.9106L11.0015 18.0893C11.3922 18.4799 11.3922 19.1132 11.0016 19.5038L4.7073 25.7963C4.31669 26.1868 4.31664 26.8201 4.7072 27.2106L4.78936 27.2928C5.17992 27.6834 5.81316 27.6833 6.20367 27.2927L12.4962 20.9984C12.8868 20.6078 13.5201 20.6078 13.9107 20.9985L18.0894 25.1788C18.4799 25.5695 19.1132 25.5695 19.5038 25.179L19.586 25.0967C19.9765 24.7062 19.9765 24.0731 19.586 23.6825L17.8295 21.9261C17.439 21.5355 17.439 20.9024 17.8295 20.5118L27.2929 11.0485C27.6834 10.658 27.6834 10.0248 27.2929 9.63427L22.3657 4.70711Z" fill="url(#paint0_linear)"/>
<defs>
<linearGradient id="paint0_linear" x1="16" y1="28" x2="16" y2="4" gradientUnits="userSpaceOnUse">
<stop stop-color="#00B59C"/>
<stop offset="1" stop-color="#9CFFAC"/>
</linearGradient>
</defs>
</svg>
