/* XPM */
static char * stick_toggled_pressed_xpm[] = {
"13 13 6 1",
" 	c None",
".	c #000000 s active_border_color",
"+	c #FFFFFF s active_hilight_2",
"@	c #D6D6CC s active_color_2",
"#	c #9B9B8A s active_shadow_2",
"$	c #B5B5A1 s active_mid_2",
"############@",
"#$$$$$$$$$$$+",
"#$$$$$$$$$$$+",
"#$$$$$$$$$$$+",
"#$$$$$$$$$$$+",
"#$$$$...$$$$+",
"#$$$.@@$.$$$+",
"#$$$.@$#.$$$+",
"#$$$.$##.$$$+",
"#$$$#...#$$$+",
"#$$$$###$$$$+",
"#$$$$$$$$$$$+",
"@++++++++++++"};
