<?xml version="1.0" encoding="UTF-8" standalone="no"?>
<!-- Generator: Adobe Illustrator 23.0.0, SVG Export Plug-In . SVG Version: 6.00 Build 0)  -->

<svg
   xmlns:ns="&amp;#38;ns_sfw;"
   xmlns:dc="http://purl.org/dc/elements/1.1/"
   xmlns:cc="http://creativecommons.org/ns#"
   xmlns:rdf="http://www.w3.org/1999/02/22-rdf-syntax-ns#"
   xmlns:svg="http://www.w3.org/2000/svg"
   xmlns="http://www.w3.org/2000/svg"
   xmlns:sodipodi="http://sodipodi.sourceforge.net/DTD/sodipodi-0.dtd"
   xmlns:inkscape="http://www.inkscape.org/namespaces/inkscape"
   version="1.1"
   id="audio-x-generic"
   x="0px"
   y="0px"
   viewBox="0 0 256 256"
   style="enable-background:new 0 0 256 256;"
   xml:space="preserve"
   sodipodi:docname="ark.svg"
   inkscape:version="0.92.5 (2060ec1f9f, 2020-04-08)"><defs
   id="defs22">
	
</defs><sodipodi:namedview
   pagecolor="#ffffff"
   bordercolor="#666666"
   borderopacity="1"
   objecttolerance="10"
   gridtolerance="10"
   guidetolerance="10"
   inkscape:pageopacity="0"
   inkscape:pageshadow="2"
   inkscape:window-width="1848"
   inkscape:window-height="1052"
   id="namedview20"
   showgrid="false"
   inkscape:zoom="0.921875"
   inkscape:cx="-316.74576"
   inkscape:cy="128"
   inkscape:window-x="72"
   inkscape:window-y="28"
   inkscape:window-maximized="1"
   inkscape:current-layer="audio-x-generic" />
<style
   type="text/css"
   id="style2">
	.st0{fill:#F4A72E;}
	.st1{fill-rule:evenodd;clip-rule:evenodd;fill:#FFFFFF;}
</style>
<metadata
   id="metadata4">
	<ns:sfw>
		<ns:slices />
		<ns:sliceSourceBounds
   bottomLeftOrigin="true"
   height="252.1"
   width="252"
   x="2"
   y="2" />
	</ns:sfw>
<rdf:RDF><cc:Work
     rdf:about=""><dc:format>image/svg+xml</dc:format><dc:type
       rdf:resource="http://purl.org/dc/dcmitype/StillImage" /><dc:title /></cc:Work></rdf:RDF></metadata>
<path
   style="fill:#000000;fill-opacity:0.11764706"
   inkscape:connector-curvature="0"
   d="m 132.69987,0.50001 c 6.2,0 18.1,0.3 33.3,2.3 23.7,3.1 45.1,11.5 60.9,26.3 v 0 c 14.7,15.7 23.1,37.2 26.3,60.9 3,22.59999 2.3,37.99999 2.3,37.99999 0,0 0.7,15.4 -2.3,38 -3.1,23.7 -11.5,45.1 -26.3,60.9 v 0 c -15.7,14.8 -37.2,23.2 -60.9,26.3 -15.1,2 -27.1,2.3 -33.3,2.3 -3.1,0 -4.7,-0.1 -4.7,-0.1 0,0 -1.7,0.1 -4.7,0.1 -6.2,0 -18.1,-0.3 -33.3,-2.3 -23.7,-3.1 -45.1,-11.5 -60.9,-26.3 v 0 c -14.7,-15.7 -23.1,-37.2 -26.3,-60.9 -3,-22.6 -2.3,-38 -2.3,-38 0,0 -0.7,-15.4 2.3,-37.99999 3.2,-23.7 11.6,-45.2 26.3,-60.9 v 0 c 15.8,-14.8 37.2,-23.2 60.9,-26.3 15.2,-2 27.1,-2.3 33.3,-2.3 3.1,0 4.7,0.1 4.7,0.1 0,0 1.7,-0.1 4.7,-0.1"
   id="path847" /><path
   id="path1"
   class="st0"
   d="M251.7,90.4c-3.1-23.4-11.4-44.6-26-60.1l0,0c-15.6-14.6-36.7-22.9-60.1-26C143.2,1.3,128,2,128,2  s-15.2-0.7-37.6,2.3C67,7.4,45.8,15.7,30.3,30.3C15.7,45.8,7.5,67,4.3,90.4c-3,22.3-2.2,37.6-2.2,37.6s-0.7,15.2,2.2,37.6  c3.1,23.4,11.4,44.6,26,60.1l0,0c15.6,14.6,36.7,22.9,60.1,26c22.3,3,37.6,2.2,37.6,2.2s15.2,0.7,37.6-2.2  c23.4-3.1,44.6-11.4,60.1-26l0,0c14.6-15.6,22.9-36.7,26-60.1c3-22.3,2.2-37.6,2.2-37.6S254.7,112.8,251.7,90.4"
   style="fill:#808080;fill-opacity:1;opacity:1" />
<g
   id="g17">
	<path
   class="st1"
   d="m 129.4,82.7 c 0,0 0,0 0,0 -3.4,-3.5 -6.7,-7.1 -10.1,-10.6 -1.2,-1.3 -3.3,-3.2 -6.4,-4.6 -2,-0.9 -3.9,-1.2 -5.3,-1.4 -14,0 -28.1,0 -42.1,0 -6.9,0 -12.4,5.6 -12.4,12.4 0,37.1 0,74.2 0,111.3 h 10.5 v -10.5 -44.7 -58 c 7.1,0 14.3,0.1 21.4,0.1 v 3.8 h 8.7 v -3.7 c 3.8,0 7.7,0 11.5,0 0.8,-0.1 2.4,-0.3 4.4,0.4 1.5,0.6 2.5,1.4 3,2 3.4,3.5 6.7,7 10.1,10.5 1.3,0.8 3.1,1.7 5.4,2.4 1.9,0.5 3.5,0.7 4.8,0.8 2.4,0 4.9,0 7.3,0 h 21.2 31.3 10.3 V 82.7 Z"
   id="path7"
   inkscape:connector-curvature="0"
   style="clip-rule:evenodd;fill:#ffffff;fill-rule:evenodd" />
	<path
   class="st1"
   d="m 192.5,160.6 c 0,10.4 -8.4,18.8 -18.8,18.8 h -93 v 10.5 h 96.5 c 14.2,0 25.8,-11.5 25.8,-25.8 v -55.6 h -10.5 z"
   id="path9"
   inkscape:connector-curvature="0"
   style="clip-rule:evenodd;fill:#ffffff;fill-rule:evenodd" />
	<path
   class="st1"
   d="m 78.4,132.8 v 9.2 c 0,6 4.8,10.8 10.8,10.8 6,0 10.8,-4.8 10.8,-10.8 v -9.2 c 0,-6 -4.8,-10.8 -10.8,-10.8 -5.9,-0.1 -10.8,4.8 -10.8,10.8 z m 6.5,-0.4 c 0,-2.4 2,-4.4 4.4,-4.4 2.4,0 4.4,2 4.4,4.4 v 10 c 0,2.4 -2,4.4 -4.4,4.4 -2.4,0 -4.4,-2 -4.4,-4.4 z"
   id="path11"
   inkscape:connector-curvature="0"
   style="clip-rule:evenodd;fill:#ffffff;fill-rule:evenodd" />
	<rect
   x="84.900002"
   y="103.9"
   class="st1"
   width="8.6999998"
   height="12.9"
   id="rect13"
   style="clip-rule:evenodd;fill:#ffffff;fill-rule:evenodd" />
	<rect
   x="84.900002"
   y="86.800003"
   class="st1"
   width="8.6999998"
   height="12"
   id="rect15"
   style="clip-rule:evenodd;fill:#ffffff;fill-rule:evenodd" />
</g>
<style
   id="style2-3"
   type="text/css">
	.st0{fill:#9A80FF;}
	.st1{fill:#FFFFFF;}
</style><style
   type="text/css"
   id="style843">
	.st0{opacity:0.1;}
	.st1{fill:#706CF5;}
	.st2{fill-rule:evenodd;clip-rule:evenodd;fill:#FFFFFF;}
</style></svg>
