<?xml version="1.0" encoding="utf-8"?>
<!-- Generator: Adobe Illustrator 23.0.0, SVG Export Plug-In . SVG Version: 6.00 Build 0)  -->
<!DOCTYPE svg PUBLIC "-//W3C//DTD SVG 1.1//EN" "http://www.w3.org/Graphics/SVG/1.1/DTD/svg11.dtd" [
	<!ENTITY ns_extend "http://ns.adobe.com/Extensibility/1.0/">
	<!ENTITY ns_ai "http://ns.adobe.com/AdobeIllustrator/10.0/">
	<!ENTITY ns_graphs "http://ns.adobe.com/Graphs/1.0/">
	<!ENTITY ns_vars "http://ns.adobe.com/Variables/1.0/">
	<!ENTITY ns_imrep "http://ns.adobe.com/ImageReplacement/1.0/">
	<!ENTITY ns_sfw "http://ns.adobe.com/SaveForWeb/1.0/">
	<!ENTITY ns_custom "http://ns.adobe.com/GenericCustomNamespace/1.0/">
	<!ENTITY ns_adobe_xpath "http://ns.adobe.com/XPath/1.0/">
]>
<svg version="1.1" id="레이어_1" xmlns:x="&ns_extend;" xmlns:i="&ns_ai;" xmlns:graph="&ns_graphs;"
	 xmlns="http://www.w3.org/2000/svg" xmlns:xlink="http://www.w3.org/1999/xlink" x="0px" y="0px" viewBox="0 0 256 256"
	 style="enable-background:new 0 0 256 256;" xml:space="preserve">
<style type="text/css">
	.st0{opacity:0.1;}
	.st1{fill:#5364A2;}
	.st2{fill-rule:evenodd;clip-rule:evenodd;fill:#FFFFFF;}
</style>
<metadata>
	<sfw  xmlns="&ns_sfw;">
		<slices></slices>
		<sliceSourceBounds  bottomLeftOrigin="true" height="255.1" width="255" x="0.5" y="0.5"></sliceSourceBounds>
	</sfw>
</metadata>
<g class="st0">
	<g>
		<path d="M132.8,0.5c6.2,0,18.1,0.3,33.3,2.3c23.7,3.1,45.1,11.5,60.8,26.3l0,0C241.6,44.8,250,66.2,253.1,90c3,22.6,2.3,38,2.3,38
			s0.7,15.4-2.3,38c-3.1,23.7-11.5,45.1-26.3,60.9l0,0c-15.7,14.8-37.1,23.1-60.8,26.3c-15.1,2-27,2.3-33.2,2.3
			c-3.1,0-4.7-0.1-4.7-0.1s-1.7,0.1-4.7,0.1c-6.2,0-18.1-0.3-33.2-2.3c-23.7-3.1-45.1-11.5-60.8-26.3l0,0
			C14.4,211.2,6,189.8,2.9,166c-3-22.6-2.3-38-2.3-38s-0.7-15.4,2.3-38C6,66.2,14.4,44.8,29.2,29.1l0,0C44.8,14.3,66.3,5.9,89.9,2.8
			c15.1-2,27-2.3,33.3-2.3c3.1,0,4.7,0.1,4.7,0.1S129.7,0.5,132.8,0.5"/>
	</g>
</g>
<path class="st1" d="M251.7,90.4c-3.1-23.4-11.4-44.6-26-60.1l0,0c-15.6-14.6-36.7-22.9-60.1-26C143.2,1.3,128,2,128,2
	s-15.2-0.7-37.6,2.3C67,7.4,45.8,15.7,30.3,30.3C15.7,45.8,7.5,67,4.3,90.4c-3,22.3-2.2,37.6-2.2,37.6s-0.7,15.2,2.2,37.6
	c3.1,23.4,11.4,44.6,26,60.1l0,0c15.6,14.6,36.7,22.9,60.1,26c22.3,3,37.6,2.2,37.6,2.2s15.2,0.7,37.6-2.2
	c23.4-3.1,44.6-11.4,60.1-26l0,0c14.6-15.6,22.9-36.7,26-60.1c3-22.3,2.2-37.6,2.2-37.6S254.7,112.8,251.7,90.4"/>
<g>
	<path class="st2" d="M62,65.7c0-2,1.6-3.7,3.7-3.7h14.7V51H60.2c-5.1,0-9.2,4.1-9.2,9.2v20.2h11V65.7z"/>
	<path class="st2" d="M195.8,51h-20.2v11h14.7c2,0,3.7,1.6,3.7,3.7v14.7h11V60.2C205,55.1,200.9,51,195.8,51z"/>
	<path class="st2" d="M62,190.3v-14.7H51v20.2c0,5.1,4.1,9.2,9.2,9.2h20.2v-11H65.7C63.6,194,62,192.4,62,190.3z"/>
	<path class="st2" d="M194,190.3c0,2-1.6,3.7-3.7,3.7h-14.7v11h20.2c5.1,0,9.2-4.1,9.2-9.2v-20.2h-11V190.3z"/>
	<path class="st2" d="M74,166.1h14.7v12.8h9.2c0-7.3,0-14.7,0-22c-7.9,0-15.9,0-23.8,0V166.1z"/>
	<rect x="109.5" y="156.9" class="st2" width="27.5" height="9.2"/>
	<polygon class="st2" points="183.4,87.7 168.8,87.7 168.8,74.8 159.6,74.8 159.6,87.7 159.6,96.8 168.8,96.8 183.4,96.8 	"/>
	<rect x="120.4" y="87.7" class="st2" width="27.5" height="9.2"/>
	<rect x="159.6" y="107.6" class="st2" width="9.2" height="27.5"/>
	<rect x="88.6" y="119.2" class="st2" width="9.2" height="27.5"/>
	<path class="st2" d="M160.5,155.1c0,1.5-1.2,2.8-2.8,2.8h-11v8.3h15.1c3.8,0,6.9-3.1,6.9-6.9v-15.1h-8.3V155.1z"/>
	<path class="st2" d="M110.6,87.7H95.5c-3.8,0-6.9,3.1-6.9,6.9v15.1h8.3v-11c0-1.5,1.2-2.8,2.8-2.8h11V87.7z"/>
</g>
</svg>
