<?xml version="1.0" encoding="UTF-8" standalone="no"?>
<!-- Generator: Adobe Illustrator 23.0.0, SVG Export Plug-In . SVG Version: 6.00 Build 0)  -->

<svg
   xmlns:ns="&amp;ns_sfw;"
   xmlns:dc="http://purl.org/dc/elements/1.1/"
   xmlns:cc="http://creativecommons.org/ns#"
   xmlns:rdf="http://www.w3.org/1999/02/22-rdf-syntax-ns#"
   xmlns:svg="http://www.w3.org/2000/svg"
   xmlns="http://www.w3.org/2000/svg"
   xmlns:sodipodi="http://sodipodi.sourceforge.net/DTD/sodipodi-0.dtd"
   xmlns:inkscape="http://www.inkscape.org/namespaces/inkscape"
   version="1.1"
   id="레이어_1"
   x="0px"
   y="0px"
   viewBox="0 0 256 256"
   style="enable-background:new 0 0 256 256;"
   xml:space="preserve"
   sodipodi:docname="cpuinfo.svg"
   inkscape:version="0.92.5 (2060ec1f9f, 2020-04-08)"><defs
   id="defs44" /><sodipodi:namedview
   pagecolor="#ffffff"
   bordercolor="#666666"
   borderopacity="1"
   objecttolerance="10"
   gridtolerance="10"
   guidetolerance="10"
   inkscape:pageopacity="0"
   inkscape:pageshadow="2"
   inkscape:window-width="857"
   inkscape:window-height="480"
   id="namedview42"
   showgrid="false"
   inkscape:zoom="0.921875"
   inkscape:cx="128"
   inkscape:cy="128"
   inkscape:window-x="820"
   inkscape:window-y="287"
   inkscape:window-maximized="0"
   inkscape:current-layer="레이어_1" />
<style
   type="text/css"
   id="style2">
	.st0{opacity:0.1;}
	.st1{fill:#F74569;}
	.st2{fill:url(#SVGID_1_);}
	.st3{fill:url(#SVGID_2_);}
	.st4{fill:url(#SVGID_3_);}
	.st5{fill:#FFFFFF;}
</style>
<metadata
   id="metadata4">
	<ns:sfw>
		<ns:slices />
		<ns:sliceSourceBounds
   bottomLeftOrigin="true"
   height="255"
   width="255.1"
   x="0.4"
   y="0.5" />
	</ns:sfw>
<rdf:RDF><cc:Work
     rdf:about=""><dc:format>image/svg+xml</dc:format><dc:type
       rdf:resource="http://purl.org/dc/dcmitype/StillImage" /><dc:title></dc:title></cc:Work></rdf:RDF></metadata>
<g
   class="st0"
   id="g10">
	<g
   id="g8">
		<path
   d="M132.7,0.5c6.2,0,18.1,0.3,33.3,2.3c23.7,3.1,45.1,11.5,60.9,26.3l0,0C241.6,44.8,250,66.3,253.2,90c3,22.6,2.3,38,2.3,38    s0.7,15.4-2.3,38c-3.1,23.7-11.5,45.1-26.3,60.9l0,0c-15.7,14.8-37.2,23.2-60.9,26.3c-15.1,2-27.1,2.3-33.3,2.3    c-3.1,0-4.7-0.1-4.7-0.1s-1.7,0.1-4.7,0.1c-6.2,0-18.1-0.3-33.3-2.3c-23.7-3.1-45.1-11.5-60.9-26.3l0,0    C14.4,211.2,6,189.7,2.8,166c-3-22.6-2.3-38-2.3-38s-0.7-15.4,2.3-38C6,66.3,14.4,44.8,29.1,29.1l0,0C44.9,14.3,66.3,5.9,90,2.8    c15.2-2,27.1-2.3,33.3-2.3c3.1,0,4.7,0.1,4.7,0.1S129.7,0.5,132.7,0.5"
   id="path6" />
	</g>
</g>
<path
   class="st1"
   d="M251.7,90.4c-3.1-23.4-11.4-44.6-26-60.1l0,0c-15.6-14.6-36.7-22.9-60.1-26C143.2,1.3,128,2,128,2  s-15.2-0.7-37.6,2.3c-23.4,3-44.6,11.4-60.1,26C15.7,45.7,7.5,67,4.3,90.4c-3,22.3-2.2,37.6-2.2,37.6s-0.7,15.2,2.2,37.6  c3.1,23.4,11.4,44.6,26,60.1l0,0c15.6,14.6,36.7,22.9,60.1,26c22.3,3,37.6,2.2,37.6,2.2s15.2,0.7,37.6-2.2  c23.4-3.1,44.6-11.4,60.1-26l0,0c14.6-15.6,22.9-36.7,26-60.1c3-22.3,2.2-37.6,2.2-37.6S254.7,112.7,251.7,90.4L251.7,90.4z"
   id="path12"
   style="fill:#008080" />
<radialGradient
   id="SVGID_1_"
   cx="138.8032"
   cy="137.1782"
   r="285.122"
   fx="163.7063"
   fy="-78.8362"
   gradientTransform="matrix(1 0 0 -1 0 256)"
   gradientUnits="userSpaceOnUse">
	<stop
   offset="0.2655"
   style="stop-color:#F7BA60"
   id="stop14" />
	<stop
   offset="0.6575"
   style="stop-color:#F7BA60;stop-opacity:0"
   id="stop16" />
</radialGradient>

<radialGradient
   id="SVGID_2_"
   cx="172.968"
   cy="110.7781"
   r="199.3546"
   fx="325.7359"
   fy="86.4806"
   gradientTransform="matrix(1 0 0 -1.421 0 260.5711)"
   gradientUnits="userSpaceOnUse">
	<stop
   offset="0.2289"
   style="stop-color:#64BDF2"
   id="stop21" />
	<stop
   offset="0.7572"
   style="stop-color:#64BDF2;stop-opacity:0"
   id="stop23" />
</radialGradient>

<radialGradient
   id="SVGID_3_"
   cx="83.9115"
   cy="236.1938"
   r="185.7909"
   fx="16.9301"
   fy="404.5495"
   gradientTransform="matrix(1 0 0 -0.7153 0 244.078)"
   gradientUnits="userSpaceOnUse">
	<stop
   offset="0.3141"
   style="stop-color:#C848AF"
   id="stop28" />
	<stop
   offset="0.8209"
   style="stop-color:#C848AF;stop-opacity:0"
   id="stop30" />
</radialGradient>

<g
   id="g39">
	<path
   class="st5"
   d="m 192.5,74.5 c -10.8,0 -21.7,0 -32.5,0 V 52 H 149.8 V 74.4 H 135.3 V 52 H 125.1 V 74.4 H 108.6 V 52 H 98.4 v 22.4 c -9.9,-0.1 -19.8,-0.2 -29.7,-0.3 0,8.9 0,17.9 0,26.8 H 45.5 v 10.2 h 23.2 v 14.5 H 45.5 v 10.2 h 23.2 v 16.4 H 45.5 v 10.2 H 68.7 V 181 H 79.2 V 84.9 c 37.8,0.1 75.7,0.2 113.5,0.3 -0.1,-3.6 -0.1,-7.2 -0.2,-10.7 z"
   id="path35"
   inkscape:connector-curvature="0"
   style="fill:#ffffff" />
	<path
   class="st5"
   d="m 210.5,112.1 v -10.2 h -21.7 -8.3 -0.7 v 1 5.3 41.2 c 0,11.9 -9.7,21.6 -21.6,21.6 H 97.5 v 3 7.2 22.8 h 10.2 v -22.8 h 16.4 V 204 h 10.2 v -22.8 h 14.5 V 204 H 159 v -22.8 h 2.3 c 12,0 22.2,-7.3 26.5,-17.7 h 22.7 V 153.3 H 190 c 0,-0.3 0,-0.5 0,-0.8 v -15.6 h 20.5 V 126.7 H 190 v -14.5 z"
   id="path37"
   inkscape:connector-curvature="0"
   style="fill:#ffffff" />
</g>
</svg>