<?xml version="1.0" encoding="UTF-8" standalone="no"?>
<!-- Generator: Adobe Illustrator 23.0.0, SVG Export Plug-In . SVG Version: 6.00 Build 0)  -->

<svg
   xmlns:dc="http://purl.org/dc/elements/1.1/"
   xmlns:cc="http://creativecommons.org/ns#"
   xmlns:rdf="http://www.w3.org/1999/02/22-rdf-syntax-ns#"
   xmlns:svg="http://www.w3.org/2000/svg"
   xmlns="http://www.w3.org/2000/svg"
   xmlns:sodipodi="http://sodipodi.sourceforge.net/DTD/sodipodi-0.dtd"
   xmlns:inkscape="http://www.inkscape.org/namespaces/inkscape"
   version="1.1"
   id="svg45"
   x="0px"
   y="0px"
   viewBox="0 0 256 256"
   style="enable-background:new 0 0 256 256;"
   xml:space="preserve"
   sodipodi:docname="discord.svg"
   inkscape:version="0.92.5 (2060ec1f9f, 2020-04-08)"><metadata
   id="metadata51"><rdf:RDF><cc:Work
       rdf:about=""><dc:format>image/svg+xml</dc:format><dc:type
         rdf:resource="http://purl.org/dc/dcmitype/StillImage" /></cc:Work></rdf:RDF></metadata><defs
   id="defs49" /><sodipodi:namedview
   pagecolor="#ffffff"
   bordercolor="#666666"
   borderopacity="1"
   objecttolerance="10"
   gridtolerance="10"
   guidetolerance="10"
   inkscape:pageopacity="0"
   inkscape:pageshadow="2"
   inkscape:window-width="1920"
   inkscape:window-height="996"
   id="namedview47"
   showgrid="false"
   inkscape:zoom="3.1210938"
   inkscape:cx="128"
   inkscape:cy="128"
   inkscape:window-x="0"
   inkscape:window-y="0"
   inkscape:window-maximized="1"
   inkscape:current-layer="svg45" />
<style
   type="text/css"
   id="style2">
	.st0{fill:#FFFFFF;}
	.st1{opacity:0.1;}
	.st2{fill:url(#SVGID_1_);}
	.st3{fill:url(#SVGID_2_);}
</style>
<g
   id="레이어_1">
	<g
   id="g16">
		<g
   id="g8">
			<g
   id="g6">
				<path
   class="st0"
   d="m 132.7,0.5 c 6.2,0 18.1,0.3 33.3,2.3 23.7,3.1 45.1,11.5 60.9,26.3 v 0 c 14.7,15.7 23.1,37.2 26.3,60.9 3,22.6 2.3,38 2.3,38 0,0 0.7,15.4 -2.3,38 -3.1,23.7 -11.5,45.1 -26.3,60.9 v 0 c -15.7,14.8 -37.2,23.2 -60.9,26.3 -15.1,2 -27.1,2.3 -33.3,2.3 -3.1,0 -4.7,-0.1 -4.7,-0.1 0,0 -1.7,0.1 -4.7,0.1 -6.2,0 -18.1,-0.3 -33.3,-2.3 -23.7,-3.1 -45.1,-11.5 -60.9,-26.3 v 0 C 14.4,211.2 6,189.7 2.8,166 -0.2,143.4 0.5,128 0.5,128 0.5,128 -0.2,112.6 2.8,90 6,66.3 14.4,44.8 29.1,29.1 v 0 C 44.9,14.3 66.3,5.9 90,2.8 c 15.2,-2 27.1,-2.3 33.3,-2.3 3.1,0 4.7,0.1 4.7,0.1 0,0 1.7,-0.1 4.7,-0.1"
   id="path4"
   inkscape:connector-curvature="0"
   style="fill:#ffffff" />
			</g>
		</g>
		<path
   class="st0"
   d="M 251.7,90.4 C 248.6,67 240.3,45.8 225.7,30.2 v 0 C 210.2,15.6 189,7.3 165.6,4.2 143.2,1.3 128,2 128,2 128,2 112.8,1.3 90.4,4.2 67,7.4 45.8,15.7 30.3,30.3 15.7,45.8 7.4,67 4.3,90.4 1.3,112.8 2.1,128 2.1,128 c 0,0 -0.7,15.2 2.2,37.6 3.1,23.4 11.4,44.6 26,60.1 v 0 c 15.5,14.6 36.7,22.9 60.1,26 22.3,3 37.6,2.2 37.6,2.2 0,0 15.2,0.7 37.6,-2.2 23.4,-3.1 44.6,-11.4 60.1,-26 v 0 c 14.6,-15.5 22.9,-36.7 26,-60.1 3,-22.4 2.2,-37.6 2.2,-37.6 0,0 0.7,-15.2 -2.2,-37.6"
   id="path10"
   inkscape:connector-curvature="0"
   style="fill:#ffffff" />
		<path
   class="st0"
   d="m 128,253.7 c 9.2,0.6 22.3,0.6 37.6,-2.2 18.1,-3.3 41.4,-7.4 60.1,-26 15.2,-15.1 20.9,-33.4 23.3,-45.3 -17.4,-33.9 -34.8,-67.8 -52.1,-101.7 -7.4,4.6 -19.4,11.3 -35,17.3 -36.4,14 -56.8,10.3 -75.2,27.3 -5.8,5.4 -13.4,14.6 -18.2,30.9 -10.1,5.7 -20.3,11.4 -30.4,17.1 14.6,26.3 29.1,52.6 43.7,79 2.8,0.5 5.7,1 8.7,1.4 13.3,2 26,2.5 37.5,2.2 z"
   id="path12"
   inkscape:connector-curvature="0"
   style="fill:#ffffff" />
		<path
   class="st0"
   d="M 212.6,124.6 C 208.4,106 202.4,90.6 196.8,78.8 191.5,75 184.1,70.6 174.7,67.1 166.4,64 158.9,62.4 153,61.6 c -1.1,1.1 -2.3,2.3 -3.4,3.4 21.7,3.2 32.6,14.3 36,18 0,0 0,0 0,0 -13,-6.5 -33.6,-14.2 -59.6,-14.1 -21.8,0 -39.7,5.5 -52.3,11 5.1,-4.9 15.5,-12.4 32.8,-14.9 -1.1,-1.1 -2.3,-2.3 -3.4,-3.4 -6,0.8 -13.5,2.4 -21.7,5.5 -9.4,3.5 -16.7,8 -22.1,11.7 -5.6,11.8 -11.6,27.2 -15.8,45.8 -4.1,18 -5.3,34 -5.4,46.8 3.5,4.2 9.8,10.7 19.7,15.8 11,5.6 21,6.7 26.6,6.9 3.3,-4.3 6.6,-8.5 9.8,-12.8 -3.5,-0.9 -9.2,-2.9 -15,-7.1 -3.5,-2.6 -6.6,-5.8 -9.4,-9.4 12.7,7.1 32.3,15.1 57.1,15.6 25,0.4 44.9,-7 57.7,-13.6 -2.4,2.8 -5,5.3 -7.8,7.5 -5.7,4.2 -11.4,6.2 -15,7.1 3.3,4.3 6.6,8.5 9.8,12.8 5.6,-0.2 15.6,-1.3 26.6,-6.9 9.9,-5.1 16.2,-11.6 19.7,-15.8 0,-12.9 -1.3,-28.9 -5.3,-46.9 z m -112.9,30 c -8.4,0 -15.3,-7.6 -15.3,-17 0,-9.4 6.8,-17 15.3,-17 8.5,0 15.3,7.6 15.3,17 0,9.4 -6.9,17 -15.3,17 z m 56.2,0 c -8.4,0 -15.3,-7.6 -15.3,-17 0,-9.4 6.8,-17 15.3,-17 8.5,0 15.3,7.6 15.3,17 0,9.4 -6.9,17 -15.3,17 z"
   id="path14"
   inkscape:connector-curvature="0"
   style="fill:#ffffff" />
	</g>
	<g
   id="g42">
		<g
   class="st1"
   id="g22"
   style="opacity:0.1">
			<g
   id="g20">
				<path
   d="m 132.7,0.5 c 6.2,0 18.1,0.3 33.3,2.3 23.7,3.1 45.1,11.5 60.9,26.3 v 0 c 14.7,15.7 23.1,37.2 26.3,60.9 3,22.6 2.3,38 2.3,38 0,0 0.7,15.4 -2.3,38 -3.1,23.7 -11.5,45.1 -26.3,60.9 v 0 c -15.7,14.8 -37.2,23.2 -60.9,26.3 -15.1,2 -27.1,2.3 -33.3,2.3 -3.1,0 -4.7,-0.1 -4.7,-0.1 0,0 -1.7,0.1 -4.7,0.1 -6.2,0 -18.1,-0.3 -33.3,-2.3 -23.7,-3.1 -45.1,-11.5 -60.9,-26.3 v 0 C 14.4,211.2 6,189.7 2.8,166 -0.2,143.4 0.5,128 0.5,128 0.5,128 -0.2,112.6 2.8,90 6,66.3 14.4,44.8 29.1,29.1 v 0 C 44.9,14.3 66.3,5.9 90,2.8 c 15.2,-2 27.1,-2.3 33.3,-2.3 3.1,0 4.7,0.1 4.7,0.1 0,0 1.7,-0.1 4.7,-0.1"
   id="path18"
   inkscape:connector-curvature="0" />
			</g>
		</g>
		<linearGradient
   id="SVGID_1_"
   gradientUnits="userSpaceOnUse"
   x1="72.279999"
   y1="22.054001"
   x2="197.4191"
   y2="260.05219">
			<stop
   offset="0"
   style="stop-color:#9999CC"
   id="stop24" />
			<stop
   offset="0.4658"
   style="stop-color:#8484CC"
   id="stop26" />
			<stop
   offset="1"
   style="stop-color:#6666CC"
   id="stop28" />
		</linearGradient>
		<path
   class="st2"
   d="M 251.7,90.4 C 248.6,67 240.3,45.8 225.7,30.2 v 0 C 210.2,15.6 189,7.3 165.6,4.2 143.2,1.3 128,2 128,2 128,2 112.8,1.3 90.4,4.2 67,7.4 45.8,15.7 30.3,30.3 15.7,45.8 7.4,67 4.3,90.4 1.3,112.8 2.1,128 2.1,128 c 0,0 -0.7,15.2 2.2,37.6 3.1,23.4 11.4,44.6 26,60.1 v 0 c 15.5,14.6 36.7,22.9 60.1,26 22.3,3 37.6,2.2 37.6,2.2 0,0 15.2,0.7 37.6,-2.2 23.4,-3.1 44.6,-11.4 60.1,-26 v 0 c 14.6,-15.5 22.9,-36.7 26,-60.1 3,-22.4 2.2,-37.6 2.2,-37.6 0,0 0.7,-15.2 -2.2,-37.6"
   id="path31"
   inkscape:connector-curvature="0"
   style="fill:#5662f6;fill-opacity:1" />
		<linearGradient
   id="SVGID_2_"
   gradientUnits="userSpaceOnUse"
   x1="217.2941"
   y1="293.50009"
   x2="108.2037"
   y2="112.9472">
			<stop
   offset="0"
   style="stop-color:#B3B3B3;stop-opacity:0.1"
   id="stop33" />
			<stop
   offset="0.8867"
   style="stop-color:#464646;stop-opacity:0.2"
   id="stop35" />
		</linearGradient>
		
		<path
   class="st0"
   d="M 212.6,124.6 C 208.4,106 202.4,90.6 196.8,78.8 191.5,75 184.1,70.6 174.7,67.1 166.4,64 158.9,62.4 153,61.6 c -1.1,1.1 -2.3,2.3 -3.4,3.4 21.7,3.2 32.6,14.3 36,18 0,0 0,0 0,0 -13,-6.5 -33.6,-14.2 -59.6,-14.1 -21.8,0 -39.7,5.5 -52.3,11 5.1,-4.9 15.5,-12.4 32.8,-14.9 -1.1,-1.1 -2.3,-2.3 -3.4,-3.4 -6,0.8 -13.5,2.4 -21.7,5.5 -9.4,3.5 -16.7,8 -22.1,11.7 -5.6,11.8 -11.6,27.2 -15.8,45.8 -4.1,18 -5.3,34 -5.4,46.8 3.5,4.2 9.8,10.7 19.7,15.8 11,5.6 21,6.7 26.6,6.9 3.3,-4.3 6.6,-8.5 9.8,-12.8 -3.5,-0.9 -9.2,-2.9 -15,-7.1 -3.5,-2.6 -6.6,-5.8 -9.4,-9.4 12.7,7.1 32.3,15.1 57.1,15.6 25,0.4 44.9,-7 57.7,-13.6 -2.4,2.8 -5,5.3 -7.8,7.5 -5.7,4.2 -11.4,6.2 -15,7.1 3.3,4.3 6.6,8.5 9.8,12.8 5.6,-0.2 15.6,-1.3 26.6,-6.9 9.9,-5.1 16.2,-11.6 19.7,-15.8 0,-12.9 -1.3,-28.9 -5.3,-46.9 z m -112.9,30 c -8.4,0 -15.3,-7.6 -15.3,-17 0,-9.4 6.8,-17 15.3,-17 8.5,0 15.3,7.6 15.3,17 0,9.4 -6.9,17 -15.3,17 z m 56.2,0 c -8.4,0 -15.3,-7.6 -15.3,-17 0,-9.4 6.8,-17 15.3,-17 8.5,0 15.3,7.6 15.3,17 0,9.4 -6.9,17 -15.3,17 z"
   id="path40"
   inkscape:connector-curvature="0"
   style="fill:#ffffff" />
	</g>
</g>
</svg>