<?xml version="1.0" encoding="utf-8"?>
<!-- Generator: Adobe Illustrator 23.0.0, SVG Export Plug-In . SVG Version: 6.00 Build 0)  -->
<!DOCTYPE svg PUBLIC "-//W3C//DTD SVG 1.1//EN" "http://www.w3.org/Graphics/SVG/1.1/DTD/svg11.dtd" [
	<!ENTITY ns_extend "http://ns.adobe.com/Extensibility/1.0/">
	<!ENTITY ns_ai "http://ns.adobe.com/AdobeIllustrator/10.0/">
	<!ENTITY ns_graphs "http://ns.adobe.com/Graphs/1.0/">
	<!ENTITY ns_vars "http://ns.adobe.com/Variables/1.0/">
	<!ENTITY ns_imrep "http://ns.adobe.com/ImageReplacement/1.0/">
	<!ENTITY ns_sfw "http://ns.adobe.com/SaveForWeb/1.0/">
	<!ENTITY ns_custom "http://ns.adobe.com/GenericCustomNamespace/1.0/">
	<!ENTITY ns_adobe_xpath "http://ns.adobe.com/XPath/1.0/">
]>
<svg version="1.1" id="레이어_1" xmlns:x="&ns_extend;" xmlns:i="&ns_ai;" xmlns:graph="&ns_graphs;"
	 xmlns="http://www.w3.org/2000/svg" xmlns:xlink="http://www.w3.org/1999/xlink" x="0px" y="0px" viewBox="0 0 256 256"
	 style="enable-background:new 0 0 256 256;" xml:space="preserve">
<style type="text/css">
	.st0{opacity:0.1;}
	.st1{fill:#FD4C76;}
	.st2{fill:#1E69F6;}
	.st3{fill:#2F359D;}
	.st4{fill:#FFFFFF;}
	.st5{fill:#FDD839;}
</style>
<metadata>
	<sfw  xmlns="&ns_sfw;">
		<slices></slices>
		<sliceSourceBounds  bottomLeftOrigin="true" height="255" width="254.9" x="0.5" y="0.5"></sliceSourceBounds>
	</sfw>
</metadata>
<g class="st0">
	<g>
		<path d="M132.8,0.5c6.2,0,18.1,0.3,33.3,2.3c23.7,3.1,45.1,11.5,60.8,26.3l0,0C241.6,44.8,250,66.2,253.1,90c3,22.6,2.3,38,2.3,38
			s0.7,15.4-2.3,38c-3.1,23.7-11.5,45.1-26.3,60.9l0,0c-15.7,14.8-37.1,23.1-60.8,26.3c-15.1,2-27,2.3-33.2,2.3
			c-3.1,0-4.7-0.1-4.7-0.1s-1.7,0.1-4.7,0.1c-6.2,0-18.1-0.3-33.2-2.3c-23.7-3.1-45.1-11.5-60.8-26.3l0,0
			C14.4,211.2,6,189.8,2.9,166c-3-22.6-2.3-38-2.3-38s-0.7-15.4,2.3-38C6,66.2,14.4,44.8,29.2,29.1l0,0C44.8,14.3,66.3,5.9,89.9,2.8
			c15.1-2,27-2.3,33.3-2.3c3.1,0,4.7,0.1,4.7,0.1S129.7,0.5,132.8,0.5"/>
	</g>
</g>
<path class="st1" d="M251.7,90.4c-3.1-23.4-11.4-44.6-26-60.1l0,0c-15.6-14.6-36.7-22.9-60.1-26C143.2,1.3,128,2,128,2
	s-15.2-0.7-37.6,2.3C67,7.4,45.8,15.7,30.3,30.3C15.7,45.8,7.5,67,4.3,90.4c-3,22.3-2.2,37.6-2.2,37.6s-0.7,15.2,2.2,37.6
	c3.1,23.4,11.4,44.6,26,60.1l0,0c15.6,14.6,36.7,22.9,60.1,26c22.3,3,37.6,2.2,37.6,2.2s15.2,0.7,37.6-2.2
	c23.4-3.1,44.6-11.4,60.1-26l0,0c14.6-15.6,22.9-36.7,26-60.1c3-22.3,2.2-37.6,2.2-37.6S254.7,112.8,251.7,90.4"/>
<g>
	<path class="st2" d="M127.2,130.4h-68c-5.8,0-10.6,4.8-10.6,10.6v57.4c0,5.8,4.8,10.6,10.6,10.6h57.4c5.8,0,10.6-4.8,10.6-10.6
		V130.4z"/>
	<path class="st3" d="M195.2,130.4h-16.9c-0.7,1.3-1.7,3.1-2.3,5.5c-0.1,0.5-0.2,1.1-0.3,1.5c2.4,2.3,3.9,5.6,3.9,9.4
		c0,7.2-5.8,13.1-13.1,13.1s-13.1-5.8-13.1-13.1c0-3.6,1.5-6.8,3.7-9.1c0-0.4-0.1-0.9-0.2-1.4c-0.5-2.7-1.5-4.7-2.2-6h-27.5v25.5
		c-1.3,0.7-3.2,1.7-5.6,2.1c-0.4,0.1-1,0.1-1.4,0.2c-2.3-2.3-5.6-3.7-9.1-3.7c-7.2,0-13.1,5.8-13.1,13.1s5.8,13.1,13.1,13.1
		c3.6,0,6.9-1.5,9.4-3.9c0.5,0.1,1,0.1,1.5,0.3c2.3,0.5,4.1,1.5,5.3,2.2v19.1c0,5.8,4.8,10.6,10.6,10.6h57.4
		c5.8,0,10.6-4.8,10.6-10.6v-57.4C205.9,135.2,201.2,130.4,195.2,130.4z"/>
	<path class="st4" d="M143,78c-3.6,0-6.8,1.5-9.1,3.7c-0.4,0-0.9-0.1-1.4-0.2c-2.2-0.4-3.9-1.2-5.2-1.9V62.4
		c0-5.8-4.8-10.6-10.6-10.6H59.2c-5.8,0-10.6,4.8-10.6,10.6v57.4c0,5.8,4.8,10.6,10.6,10.6h68v-27.9c1.2-0.6,2.8-1.4,4.9-1.9
		c0.5-0.1,1.1-0.2,1.5-0.3c2.3,2.4,5.6,3.9,9.4,3.9c7.2,0,13.1-5.8,13.1-13.1C156.1,83.8,150.2,78,143,78z"/>
	<path class="st5" d="M209.8,52.1l-56.5-10c-5.7-1.1-11.3,2.9-12.3,8.6l-3,16.7c1.1,1,2.8,2.2,5.1,3.3c0.5,0.2,1,0.4,1.5,0.5
		c2.8-1.9,6.3-2.9,9.9-2.2c7.1,1.3,11.9,8.1,10.6,15.2c-1.3,7.1-8.1,11.9-15.2,10.6c-3.5-0.6-6.5-2.6-8.4-5.3
		c-0.4,0-0.9-0.1-1.4-0.1c-2.7,0-4.9,0.6-6.2,1.2l-4.8,27.1l25.2,4.5c0.5,1.4,1.1,3.4,1.1,6c0,0.5,0,1-0.1,1.4
		c-2.7,1.9-4.7,4.9-5.3,8.4c-1.3,7.1,3.5,13.9,10.6,15.2c7.1,1.3,13.9-3.5,15.2-10.6c0.6-3.6-0.3-7.1-2.2-9.9c0.2-0.5,0.3-1,0.5-1.5
		c1-2.2,2.1-3.8,3.1-4.9l18.9,3.3c5.7,1.1,11.3-2.9,12.3-8.6l10-56.5C219.5,58.7,215.6,53.1,209.8,52.1z"/>
</g>
</svg>
