<?xml version="1.0" encoding="UTF-8" standalone="no"?>
<svg
   xmlns:dc="http://purl.org/dc/elements/1.1/"
   xmlns:cc="http://creativecommons.org/ns#"
   xmlns:rdf="http://www.w3.org/1999/02/22-rdf-syntax-ns#"
   xmlns:svg="http://www.w3.org/2000/svg"
   xmlns="http://www.w3.org/2000/svg"
   xmlns:sodipodi="http://sodipodi.sourceforge.net/DTD/sodipodi-0.dtd"
   xmlns:inkscape="http://www.inkscape.org/namespaces/inkscape"
   width="256"
   height="256"
   viewBox="0 0 67.733332 67.733335"
   version="1.1"
   id="svg1058"
   inkscape:version="1.0.2 (e86c870879, 2021-01-15)"
   sodipodi:docname="그리기.svg">
  <defs
     id="defs1052">
    <linearGradient
       id="a"
       x1="74.800003"
       x2="7.7399998"
       y1="20.5"
       y2="62.799999"
       gradientTransform="translate(-1.3,-0.00409)"
       gradientUnits="userSpaceOnUse">
      <stop
         stop-color="#3fe1b0"
         offset="0"
         id="stop4" />
      <stop
         stop-color="#00b3f4"
         offset=".406"
         id="stop6" />
      <stop
         stop-color="#03b0f4"
         offset=".421"
         id="stop8" />
      <stop
         stop-color="#5561e9"
         offset=".818"
         id="stop10" />
      <stop
         stop-color="#7542e5"
         offset="1"
         id="stop12" />
    </linearGradient>
    <radialGradient
       id="b"
       cx="-7907"
       cy="-8515"
       r="80.800003"
       gradientTransform="translate(7974,8524)"
       gradientUnits="userSpaceOnUse">
      <stop
         stop-color="#3fe1b0"
         offset=".108"
         id="stop15" />
      <stop
         stop-color="#3bdcb3"
         offset=".122"
         id="stop17" />
      <stop
         stop-color="#1bb3d3"
         offset=".254"
         id="stop19" />
      <stop
         stop-color="#0799e6"
         offset=".358"
         id="stop21" />
      <stop
         stop-color="#0090ed"
         offset=".42"
         id="stop23" />
      <stop
         stop-color="#2482f1"
         offset=".487"
         id="stop25" />
      <stop
         stop-color="#7165fb"
         offset=".64"
         id="stop27" />
      <stop
         stop-color="#9059ff"
         offset=".71"
         id="stop29" />
      <stop
         stop-color="#7d49ed"
         offset=".795"
         id="stop31" />
      <stop
         stop-color="#7542e5"
         offset=".86"
         id="stop33" />
    </radialGradient>
    <radialGradient
       id="c"
       cx="-7937"
       cy="-8482"
       r="80.800003"
       gradientTransform="translate(7974,8524)"
       gradientUnits="userSpaceOnUse">
      <stop
         stop-color="#45278d"
         offset=".3"
         id="stop36" />
      <stop
         stop-color="#562896"
         stop-opacity=".787"
         offset=".341"
         id="stop38" />
      <stop
         stop-color="#782aa9"
         stop-opacity=".364"
         offset=".43"
         id="stop40" />
      <stop
         stop-color="#8d2bb5"
         stop-opacity=".1"
         offset=".495"
         id="stop42" />
      <stop
         stop-color="#952bb9"
         stop-opacity="0"
         offset=".53"
         id="stop44" />
    </radialGradient>
    <radialGradient
       id="d"
       cx="-7927"
       cy="-8533"
       r="58.5"
       gradientTransform="translate(7974,8524)"
       gradientUnits="userSpaceOnUse">
      <stop
         stop-color="#3fe1b0"
         offset=".132"
         id="stop47" />
      <stop
         stop-color="#28d0c8"
         offset=".289"
         id="stop49" />
      <stop
         stop-color="#00b3f4"
         offset=".526"
         id="stop51" />
    </radialGradient>
    <radialGradient
       id="e"
       cx="-7946"
       cy="-8461"
       r="38.5"
       gradientTransform="translate(7974,8524)"
       gradientUnits="userSpaceOnUse">
      <stop
         stop-color="#0060df"
         offset=".287"
         id="stop54" />
      <stop
         stop-color="#2357e1"
         offset=".417"
         id="stop56" />
      <stop
         stop-color="#4f4ce3"
         offset=".604"
         id="stop58" />
      <stop
         stop-color="#6b45e4"
         offset=".748"
         id="stop60" />
      <stop
         stop-color="#7542e5"
         offset=".833"
         id="stop62" />
    </radialGradient>
    <radialGradient
       id="f"
       cx="-7936"
       cy="-8492"
       r="20.4"
       gradientTransform="matrix(0.972,-0.235,0.275,1.14,10090,7834)"
       gradientUnits="userSpaceOnUse">
      <stop
         stop-color="#45278d"
         stop-opacity="0"
         offset=".206"
         id="stop65" />
      <stop
         stop-color="#44268a"
         stop-opacity=".055"
         offset=".251"
         id="stop67" />
      <stop
         stop-color="#371f6f"
         stop-opacity=".591"
         offset=".725"
         id="stop69" />
      <stop
         stop-color="#321c64"
         stop-opacity=".8"
         offset=".956"
         id="stop71" />
    </radialGradient>
    <radialGradient
       id="g"
       cx="-7944"
       cy="-8467"
       r="0.62599999"
       gradientTransform="translate(7974,8524)"
       gradientUnits="userSpaceOnUse">
      <stop
         stop-color="#3a8ee6"
         offset=".353"
         id="stop74" />
      <stop
         stop-color="#5c79f0"
         offset=".472"
         id="stop76" />
      <stop
         stop-color="#9059ff"
         offset=".669"
         id="stop78" />
      <stop
         stop-color="#c139e6"
         offset="1"
         id="stop80" />
    </radialGradient>
    <radialGradient
       id="h"
       cx="-7943"
       cy="-8467"
       r="0.22400001"
       gradientTransform="matrix(0.972,-0.235,0.275,1.14,10083,7829)"
       gradientUnits="userSpaceOnUse">
      <stop
         stop-color="#9059ff"
         stop-opacity="0"
         offset=".206"
         id="stop83" />
      <stop
         stop-color="#8c4ff3"
         stop-opacity=".064"
         offset=".278"
         id="stop85" />
      <stop
         stop-color="#7716a8"
         stop-opacity=".45"
         offset=".747"
         id="stop87" />
      <stop
         stop-color="#6e008b"
         stop-opacity=".6"
         offset=".975"
         id="stop89" />
    </radialGradient>
    <radialGradient
       id="i"
       cx="-7938"
       cy="-8518"
       r="27.700001"
       gradientTransform="translate(7974,8524)"
       gradientUnits="userSpaceOnUse">
      <stop
         stop-color="#0df"
         offset="0"
         id="stop92" />
      <stop
         stop-color="#00d6fd"
         offset=".235"
         id="stop94" />
      <stop
         stop-color="#00c3f8"
         offset=".572"
         id="stop96" />
      <stop
         stop-color="#00b3f4"
         offset=".792"
         id="stop98" />
    </radialGradient>
    <radialGradient
       id="j"
       cx="-7916"
       cy="-8536"
       r="118"
       gradientTransform="translate(7974,8524)"
       gradientUnits="userSpaceOnUse">
      <stop
         stop-color="#3fe1b0"
         offset=".126"
         id="stop101" />
      <stop
         stop-color="#0df"
         offset=".429"
         id="stop103" />
      <stop
         stop-color="#1ec1ff"
         offset=".479"
         id="stop105" />
      <stop
         stop-color="#7077ff"
         offset=".624"
         id="stop107" />
      <stop
         stop-color="#9059ff"
         offset=".69"
         id="stop109" />
      <stop
         stop-color="#b833e1"
         offset=".904"
         id="stop111" />
    </radialGradient>
    <radialGradient
       id="k"
       cx="-7927"
       cy="-8523"
       r="86.5"
       gradientTransform="matrix(0.105,0.995,-0.653,0.069,-4685,8470)"
       gradientUnits="userSpaceOnUse">
      <stop
         stop-color="#54ffbd"
         offset="0"
         id="stop114" />
      <stop
         stop-color="#4cf3b8"
         offset=".095"
         id="stop116" />
      <stop
         stop-color="#3fe1b0"
         offset=".197"
         id="stop118" />
      <stop
         stop-color="#33d8bd"
         offset=".257"
         id="stop120" />
      <stop
         stop-color="#12c0e1"
         offset=".369"
         id="stop122" />
      <stop
         stop-color="#00b3f4"
         offset=".423"
         id="stop124" />
      <stop
         stop-color="#0060df"
         offset=".737"
         id="stop126" />
    </radialGradient>
    <radialGradient
       id="l"
       cx="-7938"
       cy="-8508"
       r="73.699997"
       gradientTransform="translate(7974,8524)"
       gradientUnits="userSpaceOnUse">
      <stop
         stop-color="#3fe1b0"
         offset=".137"
         id="stop129" />
      <stop
         stop-color="#0df"
         offset=".435"
         id="stop131" />
      <stop
         stop-color="#1ec1ff"
         offset=".484"
         id="stop133" />
      <stop
         stop-color="#7077ff"
         offset=".622"
         id="stop135" />
      <stop
         stop-color="#9059ff"
         offset=".685"
         id="stop137" />
    </radialGradient>
    <radialGradient
       id="m"
       cx="-7919"
       cy="-8504"
       r="80.699997"
       gradientTransform="translate(7974,8524)"
       gradientUnits="userSpaceOnUse">
      <stop
         stop-color="#54ffbd"
         offset=".094"
         id="stop140" />
      <stop
         stop-color="#41f7cc"
         offset=".242"
         id="stop142" />
      <stop
         stop-color="#0fe3f3"
         offset=".543"
         id="stop144" />
      <stop
         stop-color="#0df"
         offset=".626"
         id="stop146" />
    </radialGradient>
    <linearGradient
       id="n"
       x1="70"
       x2="15.3"
       y1="12.1"
       y2="66.800003"
       gradientTransform="translate(-1.3,-0.00409)"
       gradientUnits="userSpaceOnUse">
      <stop
         stop-color="#54ffbd"
         stop-opacity=".8"
         offset=".167"
         id="stop149" />
      <stop
         stop-color="#43f8ca"
         stop-opacity=".639"
         offset=".236"
         id="stop151" />
      <stop
         stop-color="#27ede1"
         stop-opacity=".368"
         offset=".361"
         id="stop153" />
      <stop
         stop-color="#12e4f1"
         stop-opacity=".169"
         offset=".466"
         id="stop155" />
      <stop
         stop-color="#05dffb"
         stop-opacity=".046"
         offset=".545"
         id="stop157" />
      <stop
         stop-color="#0df"
         stop-opacity="0"
         offset=".589"
         id="stop159" />
    </linearGradient>
  </defs>
  <sodipodi:namedview
     id="base"
     pagecolor="#ffffff"
     bordercolor="#666666"
     borderopacity="1.0"
     inkscape:pageopacity="0.0"
     inkscape:pageshadow="2"
     inkscape:zoom="0.35"
     inkscape:cx="400"
     inkscape:cy="560"
     inkscape:document-units="px"
     inkscape:current-layer="layer1"
     inkscape:document-rotation="0"
     showgrid="false"
     units="px"
     inkscape:window-width="1411"
     inkscape:window-height="1012"
     inkscape:window-x="118"
     inkscape:window-y="32"
     inkscape:window-maximized="0" />
  <metadata
     id="metadata1055">
    <rdf:RDF>
      <cc:Work
         rdf:about="">
        <dc:format>image/svg+xml</dc:format>
        <dc:type
           rdf:resource="http://purl.org/dc/dcmitype/StillImage" />
        <dc:title></dc:title>
      </cc:Work>
    </rdf:RDF>
  </metadata>
  <g
     inkscape:label="레이어 1"
     inkscape:groupmode="layer"
     id="layer1">
    <path
       d="m 35.136632,0.13229167 c 1.640416,0 4.788959,0.07937 8.810629,0.608541 6.27062,0.82020903 11.9327,3.04270903 16.08666,6.95854203 v 0 c 3.88938,4.1539583 6.11188,9.8160413 6.93209,16.1131243 0.79375,5.979584 0.60854,10.054167 0.60854,10.054167 0,0 0.18521,4.074583 -0.60854,10.054166 -0.82021,6.270626 -3.04271,11.932709 -6.95855,16.113126 v 0 c -4.15395,3.915833 -9.81604,6.111874 -16.08666,6.958541 -3.99521,0.529167 -7.143753,0.608542 -8.784169,0.608542 -0.820208,0 -1.243542,-0.02646 -1.243542,-0.02646 0,0 -0.449791,0.02646 -1.243541,0.02646 -1.640417,0 -4.788959,-0.07938 -8.784168,-0.608542 C 17.594757,66.172291 11.932673,63.949791 7.7787149,60.033958 v 0 c -3.96875,-4.153959 -6.19125,-9.816042 -7.01145797,-16.113126 -0.79375,-5.979583 -0.608542,-10.054166 -0.608542,-10.054166 0,0 -0.185208,-4.074583 0.608542,-10.054167 C 1.5874649,17.515416 3.8099649,11.853333 7.7257979,7.6993747 v 0 C 11.853298,3.7835417 17.54184,1.5610417 23.786006,0.74083267 c 3.995209,-0.529166 7.143751,-0.608541 8.810626,-0.608541 0.820208,0 1.243542,0.02646 1.243542,0.02646 0,0 0.47625,-0.02646 1.296458,-0.02646"
       id="path4"
       inkscape:connector-curvature="0"
       style="opacity:0.1;stroke-width:0.264583" />
    <path
       class="st1"
       d="m 66.595591,23.918332 c -0.82021,-6.191249 -3.01625,-11.800415 -6.87917,-15.9014573 v 0 c -4.1275,-3.862917 -9.71021,-6.058958 -15.90146,-6.879167 -5.926663,-0.79375003 -9.948329,-0.60854103 -9.948329,-0.60854103 0,0 -4.021667,-0.185209 -9.948334,0.60854103 -6.19125,0.820209 -11.800416,3.01625 -15.9014581,6.879167 -3.862917,4.1010423 -6.0325,9.7102083 -6.879167,15.9014573 -0.79374997,5.900209 -0.58208297,9.948334 -0.58208297,9.948334 0,0 -0.185208,4.021667 0.58208297,9.948333 0.820209,6.19125 3.01625,11.800417 6.879167,15.901459 v 0 c 4.1275001,3.862916 9.7102081,6.058958 15.9014581,6.879166 5.900209,0.79375 9.948334,0.582083 9.948334,0.582083 0,0 4.021666,0.185209 9.948329,-0.582083 6.19125,-0.820208 11.80042,-3.01625 15.90146,-6.879166 v 0 c 3.86292,-4.1275 6.05896,-9.710209 6.87917,-15.901459 0.79375,-5.900208 0.58208,-9.948333 0.58208,-9.948333 0,0 0.21167,-4.021667 -0.58208,-9.948334"
       id="path10"
       inkscape:connector-curvature="0"
       style="fill:#220033;fill-opacity:1;stroke-width:0.264583" />
    <g
       transform="matrix(0.65760782,0,0,0.66323974,7.9596019,7.3804407)"
       id="g198">
      <path
         d="m 74.6,26.8 c -1.68,-4.05 -5.1,-8.43 -7.78,-9.81 a 40.3,40.3 0 0 1 3.92,11.8 l 0.007,0.065 c -4.38,-10.9 -11.8,-15.3 -17.9,-24.9 C 52.54,3.47 52.233,2.984 51.934,2.475 51.763,2.182 51.626,1.918 51.507,1.675 a 7.05,7.05 0 0 1 -0.578,-1.54 0.1,0.1 0 0 0 -0.088,-0.1 0.138,0.138 0 0 0 -0.073,0 c -0.005,0 -0.013,0.009 -0.019,0.011 -0.006,0.002 -0.019,0.011 -0.028,0.015 l 0.015,-0.026 c -9.74,5.7 -13,16.3 -13.3,21.5 a 19.4,19.4 0 0 0 -10.7,4.11 11.6,11.6 0 0 0 -1,-0.758 18,18 0 0 1 -0.109,-9.47 28.7,28.7 0 0 0 -9.33,7.21 h -0.018 c -1.54,-1.95 -1.43,-8.37 -1.34,-9.71 a 6.93,6.93 0 0 0 -1.29,0.687 28.2,28.2 0 0 0 -3.79,3.24 33.8,33.8 0 0 0 -3.62,4.35 V 21.2 21.193 a 32.7,32.7 0 0 0 -5.2,11.7 l -0.052,0.256 c -0.073,0.341 -0.336,2.05 -0.381,2.42 0,0.029 -0.006,0.056 -0.009,0.085 a 36.9,36.9 0 0 0 -0.629,5.34 v 0.2 a 38.8,38.8 0 0 0 77,6.55 c 0.065,-0.5 0.118,-0.995 0.176,-1.5 a 39.9,39.9 0 0 0 -2.51,-19.5 z M 29.9,57.1 c 0.181,0.087 0.351,0.181 0.537,0.264 l 0.027,0.017 Q 30.182,57.246 29.9,57.1 Z m 8.88,-23.4 m 32,-4.93 v -0.037 l 0.007,0.041 z"
         style="fill:url(#a)"
         id="path164"
         inkscape:connector-curvature="0" />
      <path
         d="m 70.8,28.9 -0.007,-0.041 v 0.037 z"
         style="fill:none"
         id="path166"
         inkscape:connector-curvature="0" />
      <path
         d="m 74.6,26.8 c -1.68,-4.05 -5.1,-8.43 -7.78,-9.81 a 40.3,40.3 0 0 1 3.92,11.8 v 0.037 l 0.007,0.041 a 35.1,35.1 0 0 1 -1.21,26.2 c -4.44,9.53 -15.2,19.3 -32,18.8 -18.2,-0.515 -34.2,-14 -37.2,-31.7 -0.545,-2.79 0,-4.2 0.274,-6.46 a 28.9,28.9 0 0 0 -0.623,5.35 v 0.2 a 38.8,38.8 0 0 0 77,6.55 c 0.065,-0.5 0.118,-0.995 0.176,-1.5 a 39.9,39.9 0 0 0 -2.51,-19.5 z"
         style="fill:url(#b)"
         id="path168"
         inkscape:connector-curvature="0" />
      <path
         d="m 74.6,26.8 c -1.68,-4.05 -5.1,-8.43 -7.78,-9.81 a 40.3,40.3 0 0 1 3.92,11.8 v 0.037 l 0.007,0.041 a 35.1,35.1 0 0 1 -1.21,26.2 c -4.44,9.53 -15.2,19.3 -32,18.8 -18.2,-0.515 -34.2,-14 -37.2,-31.7 -0.545,-2.79 0,-4.2 0.274,-6.46 a 28.9,28.9 0 0 0 -0.623,5.35 v 0.2 a 38.8,38.8 0 0 0 77,6.55 c 0.065,-0.5 0.118,-0.995 0.176,-1.5 a 39.9,39.9 0 0 0 -2.51,-19.5 z"
         style="fill:url(#c)"
         id="path170"
         inkscape:connector-curvature="0" />
      <path
         d="m 55.8,31.4 c 0.084,0.059 0.162,0.118 0.241,0.177 a 21.1,21.1 0 0 0 -3.6,-4.7 c -12,-12 -3.16,-26.1 -1.66,-26.8 l 0.015,-0.022 c -9.74,5.7 -13,16.3 -13.3,21.5 0.452,-0.031 0.9,-0.069 1.36,-0.069 a 19.6,19.6 0 0 1 17,9.92 z"
         style="fill:url(#d)"
         id="path172"
         inkscape:connector-curvature="0" />
      <path
         d="m 38.8,33.8 c -0.064,0.964 -3.47,4.29 -4.66,4.29 -11,0 -12.8,6.67 -12.8,6.67 0.488,5.61 4.4,10.2 9.13,12.7 0.216,0.112 0.435,0.213 0.654,0.312 q 0.569,0.252 1.14,0.466 a 17.2,17.2 0 0 0 5.04,0.973 c 19.3,0.906 23.1,-23.1 9.12,-30.1 a 13.4,13.4 0 0 1 9.34,2.27 19.6,19.6 0 0 0 -17,-9.92 c -0.46,0 -0.91,0.038 -1.36,0.069 a 19.4,19.4 0 0 0 -10.7,4.11 c 0.591,0.5 1.26,1.17 2.66,2.55 2.63,2.59 9.38,5.28 9.39,5.59 z"
         style="fill:url(#e)"
         id="path174"
         inkscape:connector-curvature="0" />
      <path
         d="m 38.8,33.8 c -0.064,0.964 -3.47,4.29 -4.66,4.29 -11,0 -12.8,6.67 -12.8,6.67 0.488,5.61 4.4,10.2 9.13,12.7 0.216,0.112 0.435,0.213 0.654,0.312 q 0.569,0.252 1.14,0.466 a 17.2,17.2 0 0 0 5.04,0.973 c 19.3,0.906 23.1,-23.1 9.12,-30.1 a 13.4,13.4 0 0 1 9.34,2.27 19.6,19.6 0 0 0 -17,-9.92 c -0.46,0 -0.91,0.038 -1.36,0.069 a 19.4,19.4 0 0 0 -10.7,4.11 c 0.591,0.5 1.26,1.17 2.66,2.55 2.63,2.59 9.38,5.28 9.39,5.59 z"
         style="fill:url(#f)"
         id="path176"
         inkscape:connector-curvature="0" />
      <path
         d="m 29.9,57.2 q 0.282,0.145 0.564,0.281 L 30.437,57.464 C 30.254,57.381 30.081,57.287 29.9,57.2 Z"
         style="fill:url(#g)"
         id="path178"
         inkscape:connector-curvature="0" />
      <path
         d="m 29.9,57.2 q 0.282,0.145 0.564,0.281 L 30.437,57.464 C 30.254,57.381 30.081,57.287 29.9,57.2 Z"
         style="fill:url(#h)"
         id="path180"
         inkscape:connector-curvature="0" />
      <path
         d="m 25,24.4 c 0.314,0.2 0.573,0.374 0.8,0.531 a 18,18 0 0 1 -0.109,-9.47 28.7,28.7 0 0 0 -9.33,7.21 c 0.189,-0.005 5.81,-0.106 8.64,1.73 z"
         style="fill:url(#i)"
         id="path182"
         inkscape:connector-curvature="0" />
      <path
         d="m 0.354,42.2 c 2.99,17.7 19,31.2 37.2,31.7 16.8,0.476 27.6,-9.29 32,-18.8 a 35.1,35.1 0 0 0 1.21,-26.2 v -0.037 c 0,-0.029 -0.006,-0.046 0,-0.037 l 0.007,0.065 c 1.38,8.98 -3.19,17.7 -10.3,23.6 l -0.022,0.05 c -13.9,11.3 -27.2,6.83 -29.9,5 Q 30.267,57.406 29.985,57.26 c -8.11,-3.88 -11.5,-11.3 -10.7,-17.6 a 9.95,9.95 0 0 1 -9.18,-5.78 14.6,14.6 0 0 1 14.2,-0.572 19.3,19.3 0 0 0 14.6,0.572 c -0.015,-0.315 -6.76,-3 -9.39,-5.59 -1.4,-1.38 -2.07,-2.05 -2.66,-2.55 a 11.6,11.6 0 0 0 -1,-0.758 c -0.23,-0.157 -0.489,-0.327 -0.8,-0.531 -2.83,-1.84 -8.45,-1.74 -8.64,-1.73 h -0.018 c -1.54,-1.95 -1.43,-8.37 -1.34,-9.71 a 6.93,6.93 0 0 0 -1.29,0.687 28.2,28.2 0 0 0 -3.79,3.24 33.8,33.8 0 0 0 -3.64,4.34 v 0.006 -0.007 a 32.7,32.7 0 0 0 -5.2,11.7 c -0.019,0.079 -1.4,6.1 -0.717,9.22 z"
         style="fill:url(#j)"
         id="path184"
         inkscape:connector-curvature="0" />
      <path
         d="M 38.8,33.8 H 38.799 Z"
         style="fill:#ff4aa2"
         id="path186"
         inkscape:connector-curvature="0" />
      <path
         d="m 52.4,26.9 a 21.1,21.1 0 0 1 3.6,4.7 c 0.213,0.161 0.412,0.321 0.581,0.476 8.79,8.1 4.18,19.6 3.84,20.4 7.14,-5.88 11.7,-14.6 10.3,-23.6 -4.38,-10.9 -11.8,-15.3 -17.9,-24.9 C 52.514,3.491 52.207,3.005 51.908,2.496 51.737,2.203 51.6,1.939 51.481,1.696 a 7.05,7.05 0 0 1 -0.578,-1.54 0.1,0.1 0 0 0 -0.088,-0.1 0.138,0.138 0 0 0 -0.073,0 c -0.005,0 -0.013,0.009 -0.019,0.011 -0.006,0.002 -0.019,0.011 -0.028,0.015 -1.5,0.711 -10.4,14.8 1.66,26.8 z"
         style="fill:url(#k)"
         id="path188"
         inkscape:connector-curvature="0" />
      <path
         d="M 56.6,32 C 56.431,31.845 56.232,31.685 56.019,31.524 55.94,31.465 55.862,31.406 55.778,31.347 a 13.4,13.4 0 0 0 -9.34,-2.27 c 13.9,6.97 10.2,31 -9.12,30.1 a 17.2,17.2 0 0 1 -5.04,-0.973 q -0.569,-0.213 -1.14,-0.466 c -0.219,-0.1 -0.438,-0.2 -0.654,-0.312 l 0.027,0.017 c 2.69,1.84 16,6.33 29.9,-5 l 0.022,-0.05 c 0.347,-0.81 4.95,-12.3 -3.84,-20.4 z"
         style="fill:url(#l)"
         id="path190"
         inkscape:connector-curvature="0" />
      <path
         d="m 21.4,44.7 c 0,0 1.79,-6.67 12.8,-6.67 1.19,0 4.6,-3.32 4.66,-4.29 a 19.3,19.3 0 0 1 -14.6,-0.572 14.6,14.6 0 0 0 -14.2,0.572 9.95,9.95 0 0 0 9.18,5.78 c -0.718,6.34 2.63,13.7 10.7,17.6 0.181,0.087 0.351,0.181 0.537,0.264 -4.73,-2.44 -8.64,-7.07 -9.13,-12.7 z"
         style="fill:url(#m)"
         id="path192"
         inkscape:connector-curvature="0" />
      <path
         d="m 48.2,38.5 -0.001,10e-4 z"
         style="fill:#ff4aa2"
         id="path194"
         inkscape:connector-curvature="0" />
      <path
         d="m 74.6,26.8 c -1.68,-4.05 -5.1,-8.43 -7.78,-9.81 a 40.3,40.3 0 0 1 3.92,11.8 l 0.007,0.065 c -4.38,-10.9 -11.8,-15.3 -17.9,-24.9 C 52.54,3.47 52.233,2.984 51.934,2.475 51.763,2.182 51.626,1.918 51.507,1.675 a 7.05,7.05 0 0 1 -0.578,-1.54 0.1,0.1 0 0 0 -0.088,-0.1 0.138,0.138 0 0 0 -0.073,0 c -0.005,0 -0.013,0.009 -0.019,0.011 -0.006,0.002 -0.019,0.011 -0.028,0.015 l 0.015,-0.026 c -9.74,5.7 -13,16.3 -13.3,21.5 0.452,-0.031 0.9,-0.069 1.36,-0.069 a 19.6,19.6 0 0 1 17,9.92 13.4,13.4 0 0 0 -9.34,-2.27 c 13.9,6.97 10.2,31 -9.12,30.1 a 17.2,17.2 0 0 1 -5.04,-0.973 q -0.569,-0.213 -1.14,-0.466 c -0.219,-0.1 -0.438,-0.2 -0.654,-0.312 l 0.027,0.017 q -0.282,-0.135 -0.564,-0.281 c 0.181,0.087 0.351,0.181 0.537,0.264 -4.73,-2.45 -8.64,-7.07 -9.13,-12.7 0,0 1.79,-6.67 12.8,-6.67 1.19,0 4.6,-3.32 4.66,-4.29 -0.015,-0.315 -6.76,-3 -9.39,-5.59 -1.4,-1.38 -2.07,-2.05 -2.66,-2.55 a 11.6,11.6 0 0 0 -1,-0.758 18,18 0 0 1 -0.109,-9.47 28.7,28.7 0 0 0 -9.33,7.21 h -0.018 c -1.54,-1.95 -1.43,-8.37 -1.34,-9.71 a 6.93,6.93 0 0 0 -1.29,0.687 28.2,28.2 0 0 0 -3.79,3.24 33.8,33.8 0 0 0 -3.62,4.35 v 0.006 -0.007 a 32.7,32.7 0 0 0 -5.2,11.7 l -0.052,0.256 c -0.073,0.341 -0.4,2.07 -0.447,2.44 a 45.1,45.1 0 0 0 -0.572,5.4 v 0.2 a 38.8,38.8 0 0 0 77,6.55 c 0.065,-0.5 0.118,-0.995 0.176,-1.5 a 39.9,39.9 0 0 0 -2.51,-19.5 z m -3.84,1.99 0.007,0.041 z"
         style="fill:url(#n)"
         id="path196"
         inkscape:connector-curvature="0" />
    </g>
  </g>
</svg>
