<?xml version="1.0" encoding="UTF-8" standalone="no"?>
<svg
   xmlns:dc="http://purl.org/dc/elements/1.1/"
   xmlns:cc="http://creativecommons.org/ns#"
   xmlns:rdf="http://www.w3.org/1999/02/22-rdf-syntax-ns#"
   xmlns:svg="http://www.w3.org/2000/svg"
   xmlns="http://www.w3.org/2000/svg"
   xmlns:sodipodi="http://sodipodi.sourceforge.net/DTD/sodipodi-0.dtd"
   xmlns:inkscape="http://www.inkscape.org/namespaces/inkscape"
   width="256"
   height="256"
   viewBox="0 0 67.733332 67.733335"
   version="1.1"
   id="svg1030"
   inkscape:version="1.0.2 (e86c870879, 2021-01-15)"
   sodipodi:docname="그리기.svg">
  <defs
     id="defs1024">
    <linearGradient
       id="a"
       x1="70.790001"
       x2="6.447"
       y1="12.39"
       y2="74.470001"
       gradientTransform="matrix(0.66181017,0,0,0.66181017,7.0755579,7.4094261)"
       gradientUnits="userSpaceOnUse">
      <stop
         stop-color="#fff44f"
         offset=".048"
         id="stop4" />
      <stop
         stop-color="#ffe847"
         offset=".111"
         id="stop6" />
      <stop
         stop-color="#ffc830"
         offset=".225"
         id="stop8" />
      <stop
         stop-color="#ff980e"
         offset=".368"
         id="stop10" />
      <stop
         stop-color="#ff8b16"
         offset=".401"
         id="stop12" />
      <stop
         stop-color="#ff672a"
         offset=".462"
         id="stop14" />
      <stop
         stop-color="#ff3647"
         offset=".534"
         id="stop16" />
      <stop
         stop-color="#e31587"
         offset=".705"
         id="stop18" />
    </linearGradient>
    <radialGradient
       id="b"
       cx="-7907"
       cy="-8515"
       r="80.800003"
       gradientTransform="matrix(0.66181017,0,0,0.66181017,5285.2105,5648.6824)"
       gradientUnits="userSpaceOnUse">
      <stop
         stop-color="#ffbd4f"
         offset=".129"
         id="stop21" />
      <stop
         stop-color="#ffac31"
         offset=".186"
         id="stop23" />
      <stop
         stop-color="#ff9d17"
         offset=".247"
         id="stop25" />
      <stop
         stop-color="#ff980e"
         offset=".283"
         id="stop27" />
      <stop
         stop-color="#ff563b"
         offset=".403"
         id="stop29" />
      <stop
         stop-color="#ff3750"
         offset=".467"
         id="stop31" />
      <stop
         stop-color="#f5156c"
         offset=".71"
         id="stop33" />
      <stop
         stop-color="#eb0878"
         offset=".782"
         id="stop35" />
      <stop
         stop-color="#e50080"
         offset=".86"
         id="stop37" />
    </radialGradient>
    <radialGradient
       id="c"
       cx="-7937"
       cy="-8482"
       r="80.800003"
       gradientTransform="matrix(0.66181017,0,0,0.66181017,5285.2105,5648.6824)"
       gradientUnits="userSpaceOnUse">
      <stop
         stop-color="#960e18"
         offset=".3"
         id="stop40" />
      <stop
         stop-color="#b11927"
         stop-opacity=".74"
         offset=".351"
         id="stop42" />
      <stop
         stop-color="#db293d"
         stop-opacity=".343"
         offset=".435"
         id="stop44" />
      <stop
         stop-color="#f5334b"
         stop-opacity=".094"
         offset=".497"
         id="stop46" />
      <stop
         stop-color="#ff3750"
         stop-opacity="0"
         offset=".53"
         id="stop48" />
    </radialGradient>
    <radialGradient
       id="d"
       cx="-7927"
       cy="-8533"
       r="58.529999"
       gradientTransform="matrix(0.66181017,0,0,0.66181017,5285.2105,5648.6824)"
       gradientUnits="userSpaceOnUse">
      <stop
         stop-color="#fff44f"
         offset=".132"
         id="stop51" />
      <stop
         stop-color="#ffdc3e"
         offset=".252"
         id="stop53" />
      <stop
         stop-color="#ff9d12"
         offset=".506"
         id="stop55" />
      <stop
         stop-color="#ff980e"
         offset=".526"
         id="stop57" />
    </radialGradient>
    <radialGradient
       id="e"
       cx="-7946"
       cy="-8461"
       r="38.470001"
       gradientTransform="matrix(0.66181017,0,0,0.66181017,5285.2105,5648.6824)"
       gradientUnits="userSpaceOnUse">
      <stop
         stop-color="#3a8ee6"
         offset=".353"
         id="stop60" />
      <stop
         stop-color="#5c79f0"
         offset=".472"
         id="stop62" />
      <stop
         stop-color="#9059ff"
         offset=".669"
         id="stop64" />
      <stop
         stop-color="#c139e6"
         offset="1"
         id="stop66" />
    </radialGradient>
    <radialGradient
       id="f"
       cx="-7936"
       cy="-8492"
       r="20.4"
       gradientTransform="matrix(0.64327952,-0.1555254,0.1819978,0.75313997,6685.6006,5192.033)"
       gradientUnits="userSpaceOnUse">
      <stop
         stop-color="#9059ff"
         stop-opacity="0"
         offset=".206"
         id="stop69" />
      <stop
         stop-color="#8c4ff3"
         stop-opacity=".064"
         offset=".278"
         id="stop71" />
      <stop
         stop-color="#7716a8"
         stop-opacity=".45"
         offset=".747"
         id="stop73" />
      <stop
         stop-color="#6e008b"
         stop-opacity=".6"
         offset=".975"
         id="stop75" />
    </radialGradient>
    <radialGradient
       id="g"
       cx="-7938"
       cy="-8518"
       r="27.68"
       gradientTransform="matrix(0.66181017,0,0,0.66181017,5285.2105,5648.6824)"
       gradientUnits="userSpaceOnUse">
      <stop
         stop-color="#ffe226"
         offset="0"
         id="stop78" />
      <stop
         stop-color="#ffdb27"
         offset=".121"
         id="stop80" />
      <stop
         stop-color="#ffc82a"
         offset=".295"
         id="stop82" />
      <stop
         stop-color="#ffa930"
         offset=".502"
         id="stop84" />
      <stop
         stop-color="#ff7e37"
         offset=".732"
         id="stop86" />
      <stop
         stop-color="#ff7139"
         offset=".792"
         id="stop88" />
    </radialGradient>
    <radialGradient
       id="h"
       cx="-7916"
       cy="-8536"
       r="118.1"
       gradientTransform="matrix(0.66181017,0,0,0.66181017,5285.2105,5648.6824)"
       gradientUnits="userSpaceOnUse">
      <stop
         stop-color="#fff44f"
         offset=".113"
         id="stop91" />
      <stop
         stop-color="#ff980e"
         offset=".456"
         id="stop93" />
      <stop
         stop-color="#ff5634"
         offset=".622"
         id="stop95" />
      <stop
         stop-color="#ff3647"
         offset=".716"
         id="stop97" />
      <stop
         stop-color="#e31587"
         offset=".904"
         id="stop99" />
    </radialGradient>
    <radialGradient
       id="i"
       cx="-7927"
       cy="-8523"
       r="86.5"
       gradientTransform="matrix(0.06949007,0.65850113,-0.43216205,0.0456649,-3092.6449,5612.9443)"
       gradientUnits="userSpaceOnUse">
      <stop
         stop-color="#fff44f"
         offset="0"
         id="stop102" />
      <stop
         stop-color="#ffe847"
         offset=".06"
         id="stop104" />
      <stop
         stop-color="#ffc830"
         offset=".168"
         id="stop106" />
      <stop
         stop-color="#ff980e"
         offset=".304"
         id="stop108" />
      <stop
         stop-color="#ff8b16"
         offset=".356"
         id="stop110" />
      <stop
         stop-color="#ff672a"
         offset=".455"
         id="stop112" />
      <stop
         stop-color="#ff3647"
         offset=".57"
         id="stop114" />
      <stop
         stop-color="#e31587"
         offset=".737"
         id="stop116" />
    </radialGradient>
    <radialGradient
       id="j"
       cx="-7938"
       cy="-8508"
       r="73.720001"
       gradientTransform="matrix(0.66181017,0,0,0.66181017,5285.2105,5648.6824)"
       gradientUnits="userSpaceOnUse">
      <stop
         stop-color="#fff44f"
         offset=".137"
         id="stop119" />
      <stop
         stop-color="#ff980e"
         offset=".48"
         id="stop121" />
      <stop
         stop-color="#ff5634"
         offset=".592"
         id="stop123" />
      <stop
         stop-color="#ff3647"
         offset=".655"
         id="stop125" />
      <stop
         stop-color="#e31587"
         offset=".904"
         id="stop127" />
    </radialGradient>
    <radialGradient
       id="k"
       cx="-7919"
       cy="-8504"
       r="80.690002"
       gradientTransform="matrix(0.66181017,0,0,0.66181017,5285.2105,5648.6824)"
       gradientUnits="userSpaceOnUse">
      <stop
         stop-color="#fff44f"
         offset=".094"
         id="stop130" />
      <stop
         stop-color="#ffe141"
         offset=".231"
         id="stop132" />
      <stop
         stop-color="#ffaf1e"
         offset=".509"
         id="stop134" />
      <stop
         stop-color="#ff980e"
         offset=".626"
         id="stop136" />
    </radialGradient>
    <linearGradient
       id="l"
       x1="70.010002"
       x2="15.27"
       y1="12.06"
       y2="66.809998"
       gradientTransform="matrix(0.66181017,0,0,0.66181017,7.0755579,7.4094261)"
       gradientUnits="userSpaceOnUse">
      <stop
         stop-color="#fff44f"
         stop-opacity=".8"
         offset=".167"
         id="stop139" />
      <stop
         stop-color="#fff44f"
         stop-opacity=".634"
         offset=".266"
         id="stop141" />
      <stop
         stop-color="#fff44f"
         stop-opacity=".217"
         offset=".489"
         id="stop143" />
      <stop
         stop-color="#fff44f"
         stop-opacity="0"
         offset=".6"
         id="stop145" />
    </linearGradient>
  </defs>
  <sodipodi:namedview
     id="base"
     pagecolor="#ffffff"
     bordercolor="#666666"
     borderopacity="1.0"
     inkscape:pageopacity="0.0"
     inkscape:pageshadow="2"
     inkscape:zoom="0.35"
     inkscape:cx="400"
     inkscape:cy="560"
     inkscape:document-units="px"
     inkscape:current-layer="layer1"
     inkscape:document-rotation="0"
     showgrid="false"
     units="px"
     inkscape:window-width="1411"
     inkscape:window-height="1012"
     inkscape:window-x="118"
     inkscape:window-y="32"
     inkscape:window-maximized="0" />
  <metadata
     id="metadata1027">
    <rdf:RDF>
      <cc:Work
         rdf:about="">
        <dc:format>image/svg+xml</dc:format>
        <dc:type
           rdf:resource="http://purl.org/dc/dcmitype/StillImage" />
        <dc:title></dc:title>
      </cc:Work>
    </rdf:RDF>
  </metadata>
  <g
     inkscape:label="레이어 1"
     inkscape:groupmode="layer"
     id="layer1">
    <path
       d="m 35.136632,0.13229167 c 1.640416,0 4.788958,0.07938 8.810625,0.608542 C 50.217882,1.5610417 55.879965,3.7835417 60.033923,7.699375 v 0 c 3.889375,4.153958 6.111875,9.816041 6.932083,16.113124 0.79375,5.979582 0.608542,10.054165 0.608542,10.054165 0,0 0.185208,4.074584 -0.608542,10.054167 -0.820208,6.270625 -3.042708,11.932708 -6.958541,16.113125 v 0 c -4.153958,3.915833 -9.816042,6.111874 -16.086667,6.958541 -3.995208,0.529167 -7.14375,0.608542 -8.784166,0.608542 -0.820208,0 -1.243542,-0.02646 -1.243542,-0.02646 0,0 -0.449791,0.02646 -1.243541,0.02646 -1.640417,0 -4.788959,-0.07937 -8.784167,-0.608542 C 17.594757,66.172289 11.932673,63.949789 7.7787149,60.033956 v 0 c -3.96875,-4.153959 -6.19125,-9.816042 -7.01145797,-16.113125 -0.79375,-5.979583 -0.608542,-10.054167 -0.608542,-10.054167 0,0 -0.185208,-4.074583 0.608542,-10.054165 C 1.5874649,17.515416 3.8099649,11.853333 7.7257989,7.699375 v 0 C 11.853298,3.7835417 17.54184,1.5610417 23.786007,0.74083367 c 3.995208,-0.529167 7.14375,-0.608542 8.810625,-0.608542 0.820208,0 1.243542,0.02646 1.243542,0.02646 0,0 0.47625,-0.02646 1.296458,-0.02646"
       id="path4"
       inkscape:connector-curvature="0"
       style="opacity:0.1;stroke-width:0.264583" />
    <path
       class="st1"
       d="M 66.59559,23.918332 C 65.775381,17.727083 63.57934,12.117917 59.716423,8.016875 v 0 C 55.588923,4.1539587 50.006215,1.9579167 43.814965,1.1377087 37.888298,0.34395867 33.866632,0.52916667 33.866632,0.52916667 c 0,0 -4.021667,-0.185208 -9.948333,0.60854203 -6.191251,0.820208 -11.800417,3.01625 -15.9014591,6.8791663 -3.862916,4.101042 -6.0325,9.710208 -6.879167,15.901457 -0.79374997,5.900207 -0.58208297,9.948332 -0.58208297,9.948332 0,0 -0.185208,4.021667 0.58208297,9.948333 0.820209,6.19125 3.016251,11.800417 6.879167,15.901459 v 0 c 4.1275001,3.862916 9.7102081,6.058958 15.9014591,6.879166 5.900208,0.79375 9.948333,0.582083 9.948333,0.582083 0,0 4.021666,0.185209 9.948333,-0.582083 6.19125,-0.820208 11.800417,-3.01625 15.901458,-6.879166 v 0 c 3.862917,-4.1275 6.058958,-9.710209 6.879167,-15.901459 0.79375,-5.900208 0.582083,-9.948333 0.582083,-9.948333 0,0 0.211667,-4.021666 -0.582083,-9.948332"
       id="path10"
       inkscape:connector-curvature="0"
       style="fill:#21123b;fill-opacity:1;stroke-width:0.264583" />
    <path
       d="m 57.32019,25.168498 c -1.114491,-2.681655 -3.375234,-5.577076 -5.145577,-6.492357 a 26.651098,26.651098 0 0 1 2.597605,7.782886 l 0.0046,0.04302 C 51.876798,19.275078 46.960869,16.356494 42.943684,10.009735 42.740508,9.6887559 42.537334,9.3671178 42.339453,9.0276071 42.226282,8.8336966 42.135612,8.6589817 42.056859,8.49816 a 4.6677474,4.6677474 0 0 1 -0.382529,-1.0158783 0.06618102,0.06618102 0 0 0 -0.05824,-0.06618 0.09132981,0.09132981 0 0 0 -0.04831,0 c -0.0033,0 -0.0086,0.00595 -0.01257,0.00728 -0.004,0.00132 -0.01259,0.0073 -0.01852,0.00995 l 0.0099,-0.017198 C 35.103892,11.188446 32.916608,18.170543 32.718065,21.6649 a 12.8325,12.8325 0 0 0 -7.061515,2.720703 7.6703803,7.6703803 0 0 0 -0.66181,-0.501652 11.892729,11.892729 0 0 1 -0.07214,-6.269329 18.993953,18.993953 0 0 0 -6.174028,4.771652 h -0.01191 C 17.720123,21.09773 17.791599,16.848907 17.849838,15.961421 a 4.5850211,4.5850211 0 0 0 -0.856382,0.454662 18.676284,18.676284 0 0 0 -2.506938,2.147576 22.395658,22.395658 0 0 0 -2.397738,2.876889 v 0.004 -0.0046 a 21.661048,21.661048 0 0 0 -3.4414341,7.769624 l -0.03441,0.169424 c -0.04831,0.225679 -0.222369,1.35605 -0.25215,1.601581 0,0.01918 -0.004,0.03706 -0.006,0.05625 a 24.44727,24.44727 0 0 0 -0.416268,3.536063 v 0.132361 a 25.651764,25.651764 0 0 0 50.9262961,4.337505 c 0.04302,-0.330904 0.07809,-0.658501 0.116477,-0.992714 A 26.379755,26.379755 0 0 0 57.317544,25.164527 Z M 27.757125,45.247819 c 0.11979,0.05758 0.232296,0.119788 0.355394,0.174718 l 0.01789,0.01124 q -0.186646,-0.08934 -0.373277,-0.185966 z m 5.875552,-15.473121 m 21.144838,-3.265374 v -0.02447 l 0.0046,0.02713 z"
       style="fill:url(#a);stroke-width:0.66181"
       id="path150"
       inkscape:connector-curvature="0" />
    <path
       d="m 57.32019,25.168498 c -1.114491,-2.681655 -3.375234,-5.577076 -5.145577,-6.492357 a 26.651098,26.651098 0 0 1 2.597605,7.782886 v 0.02447 l 0.0046,0.02713 A 23.229538,23.229538 0 0 1 53.978709,43.823591 C 51.038947,50.131308 43.925812,56.596531 32.787545,56.278862 20.755836,55.938028 10.153637,47.006902 8.1748249,35.312715 c -0.360687,-1.844466 0,-2.779604 0.181335,-4.278603 a 19.113079,19.113079 0 0 0 -0.412307,3.53936 v 0.132363 a 25.651764,25.651764 0 0 0 50.9262951,4.337503 c 0.04302,-0.330904 0.0781,-0.658501 0.11648,-0.992714 A 26.379755,26.379755 0 0 0 57.322836,25.165178 Z"
       style="fill:url(#b);stroke-width:0.66181"
       id="path152"
       inkscape:connector-curvature="0" />
    <path
       d="m 57.32019,25.168498 c -1.114491,-2.681655 -3.375234,-5.577076 -5.145577,-6.492357 a 26.651098,26.651098 0 0 1 2.597605,7.782886 v 0.02447 l 0.0046,0.02713 A 23.229538,23.229538 0 0 1 53.978709,43.823591 C 51.038947,50.131308 43.925812,56.596531 32.787545,56.278862 20.755836,55.938028 10.153637,47.006902 8.1748249,35.312715 c -0.360687,-1.844466 0,-2.779604 0.181335,-4.278603 a 19.113079,19.113079 0 0 0 -0.412307,3.53936 v 0.132363 a 25.651764,25.651764 0 0 0 50.9262951,4.337503 c 0.04302,-0.330904 0.0781,-0.658501 0.11648,-0.992714 A 26.379755,26.379755 0 0 0 57.322836,25.165178 Z"
       style="fill:url(#c);stroke-width:0.66181"
       id="path154"
       inkscape:connector-curvature="0" />
    <path
       d="m 44.851685,28.179734 c 0.05559,0.03905 0.107211,0.07809 0.159498,0.117142 a 13.964195,13.964195 0 0 0 -2.382517,-3.1072 C 34.653852,17.214863 40.539328,7.9031941 41.531383,7.4266901 l 0.0099,-0.014552 C 35.09856,11.184456 32.911279,18.166556 32.712735,21.660912 c 0.299138,-0.02052 0.595628,-0.04566 0.901386,-0.04566 a 12.945007,12.945007 0 0 1 11.237539,6.563172 z"
       style="fill:url(#d);stroke-width:0.66181"
       id="path156"
       inkscape:connector-curvature="0" />
    <path
       d="m 33.627382,29.774698 c -0.04235,0.637984 -2.29648,2.838503 -3.084697,2.838503 -7.293148,0 -8.477788,4.412289 -8.477788,4.412289 0.322963,3.715401 2.911965,6.776937 6.041666,8.391753 0.142949,0.07412 0.287885,0.140964 0.432821,0.206486 q 0.376574,0.166775 0.753142,0.308403 a 11.409608,11.409608 0 0 0 3.33751,0.643941 C 45.41621,47.175674 47.891382,31.288257 38.665083,26.67544 A 8.8550204,8.8550204 0 0 1 44.8497,28.177088 12.945007,12.945007 0 0 0 33.612164,21.613915 c -0.304435,0 -0.602248,0.02515 -0.901386,0.04566 a 12.8325,12.8325 0 0 0 -7.061517,2.720702 c 0.391131,0.330905 0.832556,0.772994 1.7624,1.689602 1.740562,1.71475 6.204471,3.491049 6.214398,3.69952 z"
       style="fill:url(#e);stroke-width:0.66181"
       id="path158"
       inkscape:connector-curvature="0" />
    <path
       d="m 33.627382,29.774698 c -0.04235,0.637984 -2.29648,2.838503 -3.084697,2.838503 -7.293148,0 -8.477788,4.412289 -8.477788,4.412289 0.322963,3.715401 2.911965,6.776937 6.041666,8.391753 0.142949,0.07412 0.287885,0.140964 0.432821,0.206486 q 0.376574,0.166775 0.753142,0.308403 a 11.409608,11.409608 0 0 0 3.33751,0.643941 C 45.41621,47.175674 47.891382,31.288257 38.665083,26.67544 A 8.8550204,8.8550204 0 0 1 44.8497,28.177088 12.945007,12.945007 0 0 0 33.612164,21.613915 c -0.304435,0 -0.602248,0.02515 -0.901386,0.04566 a 12.8325,12.8325 0 0 0 -7.061517,2.720702 c 0.391131,0.330905 0.832556,0.772994 1.7624,1.689602 1.740562,1.71475 6.204471,3.491049 6.214398,3.69952 z"
       style="fill:url(#f);stroke-width:0.66181"
       id="path160"
       inkscape:connector-curvature="0" />
    <path
       d="m 24.454694,23.533827 c 0.207808,0.132362 0.379217,0.247516 0.529448,0.351421 a 11.892729,11.892729 0 0 1 -0.07214,-6.26933 18.993953,18.993953 0 0 0 -6.174028,4.771653 c 0.125082,-0.0033 3.845779,-0.07015 5.716717,1.146256 z"
       style="fill:url(#g);stroke-width:0.66181"
       id="path162"
       inkscape:connector-curvature="0" />
    <path
       d="M 8.1701919,35.314049 C 10.149666,47.008235 20.751204,55.942672 32.782912,56.280195 43.921182,56.595216 51.035637,50.129332 53.974079,43.824927 a 23.229538,23.229538 0 0 0 0.798139,-17.312954 v -0.02447 c 0,-0.01918 -0.004,-0.03044 0,-0.02447 l 0.0046,0.04302 c 0.909992,5.941068 -2.111832,11.694184 -6.836497,15.592248 l -0.01455,0.03309 C 38.720014,49.629687 29.91132,46.654188 28.13105,45.440428 q -0.186632,-0.08934 -0.373261,-0.185968 c -5.36662,-2.565198 -7.584345,-7.452005 -7.107842,-11.647881 a 6.5869973,6.5869973 0 0 1 -6.07608,-3.821954 9.6756653,9.6756653 0 0 1 9.430796,-0.378555 12.772937,12.772937 0 0 0 9.629337,0.378555 c -0.0099,-0.20847 -4.473835,-1.985431 -6.214396,-3.69952 -0.929844,-0.916607 -1.371272,-1.358035 -1.762401,-1.689601 a 7.6703803,7.6703803 0 0 0 -0.66181,-0.501653 C 24.843176,23.789947 24.671767,23.677439 24.465945,23.54243 22.595007,22.326023 18.87431,22.392865 18.751213,22.396175 h -0.01191 C 17.722759,21.10763 17.794235,16.858808 17.852474,15.971321 a 4.5850211,4.5850211 0 0 0 -0.856383,0.454663 18.676284,18.676284 0 0 0 -2.506937,2.147575 22.395658,22.395658 0 0 0 -2.407665,2.87027 v 0.004 -0.0046 a 21.661048,21.661048 0 0 0 -3.4414121,7.769648 c -0.01258,0.05228 -0.923887,4.03638 -0.474518,6.102554 z"
       style="fill:url(#h);stroke-width:0.66181"
       id="path164"
       inkscape:connector-curvature="0" />
    <path
       d="m 42.628002,25.188352 a 13.964195,13.964195 0 0 1 2.382517,3.110508 c 0.140965,0.10655 0.272667,0.212442 0.384511,0.315021 5.815325,5.360664 2.768354,12.938389 2.541352,13.474456 4.724001,-3.892105 7.74318,-9.649192 6.8365,-15.592247 C 51.871504,19.262503 46.950285,16.343921 42.939715,9.9971595 42.736539,9.6761829 42.533363,9.3545422 42.335481,9.0150341 42.222311,8.8211236 42.131644,8.646406 42.052888,8.4855843 a 4.6677474,4.6677474 0 0 1 -0.382524,-1.0158756 0.06618102,0.06618102 0 0 0 -0.05824,-0.066183 0.09132981,0.09132981 0 0 0 -0.04831,0 c -0.0033,0 -0.0086,0.00595 -0.01259,0.00728 -0.004,0.00132 -0.01257,0.00728 -0.01855,0.00992 -0.992052,0.4705482 -6.876208,9.7881753 1.098606,17.7563693 z"
       style="fill:url(#i);stroke-width:0.66181"
       id="path166"
       inkscape:connector-curvature="0" />
    <path
       d="m 45.394366,28.616529 c -0.111845,-0.102581 -0.243544,-0.20847 -0.384508,-0.315021 -0.05228,-0.03905 -0.103905,-0.07809 -0.159499,-0.117141 a 8.8550204,8.8550204 0 0 0 -6.184614,-1.501648 c 9.225637,4.612817 6.750465,20.496262 -6.035048,19.900635 a 11.409608,11.409608 0 0 1 -3.33751,-0.643943 q -0.376568,-0.140965 -0.753139,-0.308404 c -0.144936,-0.06618 -0.289872,-0.13236 -0.432824,-0.206483 l 0.01786,0.01124 c 1.782919,1.21707 10.588964,4.190584 19.794744,-3.309051 l 0.01455,-0.03309 c 0.229651,-0.536067 3.276621,-8.113795 -2.541349,-13.474457 z"
       style="fill:url(#j);stroke-width:0.66181"
       id="path168"
       inkscape:connector-curvature="0" />
    <path
       d="m 22.065559,37.021519 c 0,0 1.183978,-4.41229 8.477787,-4.41229 0.788218,0 3.044328,-2.200518 3.084698,-2.838503 a 12.772937,12.772937 0 0 1 -9.629337,-0.378555 9.6756653,9.6756653 0 0 0 -9.430796,0.378555 6.5869973,6.5869973 0 0 0 6.07608,3.821954 c -0.47518,4.193892 1.741884,9.080037 7.10784,11.647861 0.11979,0.05758 0.232298,0.119787 0.355393,0.174717 -3.132348,-1.618125 -5.718702,-4.678336 -6.041665,-8.391755 z"
       style="fill:url(#k);stroke-width:0.66181"
       id="path170"
       inkscape:connector-curvature="0" />
    <path
       d="m 57.32019,25.168498 c -1.114491,-2.681655 -3.375234,-5.577076 -5.145577,-6.492357 a 26.651098,26.651098 0 0 1 2.597605,7.782886 l 0.0046,0.04302 C 51.876798,19.275078 46.960869,16.356494 42.943684,10.009735 42.740508,9.6887559 42.537334,9.3671178 42.339453,9.0276071 42.226282,8.8336966 42.135612,8.6589817 42.056859,8.49816 a 4.6677474,4.6677474 0 0 1 -0.382529,-1.0158783 0.06618102,0.06618102 0 0 0 -0.05824,-0.06618 0.09132981,0.09132981 0 0 0 -0.04831,0 c -0.0033,0 -0.0086,0.00595 -0.01257,0.00728 -0.004,0.00132 -0.01259,0.0073 -0.01852,0.00995 l 0.0099,-0.017198 c -6.442721,3.7723183 -8.630005,10.7544153 -8.828548,14.2487723 0.299141,-0.02052 0.59563,-0.04566 0.901388,-0.04566 a 12.945007,12.945007 0 0 1 11.237536,6.563173 8.8550204,8.8550204 0 0 0 -6.184619,-1.501648 c 9.225624,4.612817 6.750452,20.496262 -6.035058,19.900632 a 11.409608,11.409608 0 0 1 -3.337482,-0.643971 q -0.376571,-0.140968 -0.753142,-0.308404 c -0.144936,-0.06618 -0.289872,-0.132363 -0.432824,-0.206486 l 0.01786,0.01124 q -0.186618,-0.08934 -0.373247,-0.185966 c 0.119788,0.05758 0.232294,0.119788 0.355391,0.174718 -3.132347,-1.618787 -5.718701,-4.678997 -6.041664,-8.391752 0,0 1.183978,-4.41229 8.477789,-4.41229 0.788215,0 3.044327,-2.200518 3.084697,-2.838503 -0.0099,-0.20847 -4.473837,-1.98543 -6.214398,-3.699519 -0.929845,-0.916608 -1.371273,-1.358035 -1.762402,-1.689602 a 7.6703803,7.6703803 0 0 0 -0.66181,-0.501644 11.892729,11.892729 0 0 1 -0.07214,-6.269329 18.993953,18.993953 0 0 0 -6.174027,4.771652 H 18.73798 C 17.721441,21.103002 17.792916,16.85418 17.851155,15.966694 a 4.5850211,4.5850211 0 0 0 -0.856382,0.454662 18.676284,18.676284 0 0 0 -2.506937,2.147575 22.395658,22.395658 0 0 0 -2.397738,2.876889 v 0.004 -0.0046 a 21.661048,21.661048 0 0 0 -3.4414181,7.769663 l -0.03441,0.169423 c -0.04831,0.225676 -0.264724,1.371931 -0.295829,1.618126 v 0 a 29.841023,29.841023 0 0 0 -0.378555,3.575759 v 0.132363 a 25.651764,25.651764 0 0 0 50.9262971,4.337505 c 0.04302,-0.330907 0.07809,-0.658503 0.116475,-0.992717 A 26.379755,26.379755 0 0 0 57.318864,25.169823 Z m -2.544659,1.317665 0.0046,0.02713 z"
       style="fill:url(#l);stroke-width:0.66181"
       id="path172"
       inkscape:connector-curvature="0" />
  </g>
</svg>
