<?xml version="1.0" encoding="utf-8"?>
<!-- Generator: Adobe Illustrator 23.0.0, SVG Export Plug-In . SVG Version: 6.00 Build 0)  -->
<!DOCTYPE svg PUBLIC "-//W3C//DTD SVG 1.1//EN" "http://www.w3.org/Graphics/SVG/1.1/DTD/svg11.dtd" [
	<!ENTITY ns_extend "http://ns.adobe.com/Extensibility/1.0/">
	<!ENTITY ns_ai "http://ns.adobe.com/AdobeIllustrator/10.0/">
	<!ENTITY ns_graphs "http://ns.adobe.com/Graphs/1.0/">
	<!ENTITY ns_vars "http://ns.adobe.com/Variables/1.0/">
	<!ENTITY ns_imrep "http://ns.adobe.com/ImageReplacement/1.0/">
	<!ENTITY ns_sfw "http://ns.adobe.com/SaveForWeb/1.0/">
	<!ENTITY ns_custom "http://ns.adobe.com/GenericCustomNamespace/1.0/">
	<!ENTITY ns_adobe_xpath "http://ns.adobe.com/XPath/1.0/">
]>
<svg version="1.1" id="레이어_1" xmlns:x="&ns_extend;" xmlns:i="&ns_ai;" xmlns:graph="&ns_graphs;"
	 xmlns="http://www.w3.org/2000/svg" xmlns:xlink="http://www.w3.org/1999/xlink" x="0px" y="0px" viewBox="0 0 256 256"
	 style="enable-background:new 0 0 256 256;" xml:space="preserve">
<style type="text/css">
	.st0{opacity:0.1;}
	.st1{fill:#598CFF;}
	.st2{fill:url(#SVGID_1_);}
	.st3{fill:#FFFFFF;}
</style>
<metadata>
	<sfw  xmlns="&ns_sfw;">
		<slices></slices>
		<sliceSourceBounds  bottomLeftOrigin="true" height="255" width="255.1" x="0.4" y="0.5"></sliceSourceBounds>
	</sfw>
</metadata>
<g class="st0">
	<g>
		<path d="M132.7,0.5c6.2,0,18.1,0.3,33.3,2.3c23.7,3.1,45.1,11.5,60.9,26.3l0,0C241.6,44.8,250,66.3,253.2,90c3,22.6,2.3,38,2.3,38
			s0.7,15.4-2.3,38c-3.1,23.7-11.5,45.1-26.3,60.9l0,0c-15.7,14.8-37.2,23.2-60.9,26.3c-15.1,2-27.1,2.3-33.3,2.3
			c-3.1,0-4.7-0.1-4.7-0.1s-1.7,0.1-4.7,0.1c-6.2,0-18.1-0.3-33.3-2.3c-23.7-3.1-45.1-11.5-60.9-26.3l0,0
			C14.4,211.2,6,189.7,2.8,166c-3-22.6-2.3-38-2.3-38s-0.7-15.4,2.3-38C6,66.3,14.4,44.8,29.1,29.1l0,0C44.9,14.3,66.3,5.9,90,2.8
			c15.2-2,27.1-2.3,33.3-2.3c3.1,0,4.7,0.1,4.7,0.1S129.7,0.5,132.7,0.5"/>
	</g>
</g>
<path class="st1" d="M251.7,90.4c-3.1-23.4-11.4-44.6-26-60.1l0,0c-15.6-14.6-36.7-22.9-60.1-26C143.2,1.3,128,2,128,2
	s-15.2-0.7-37.6,2.3C67,7.4,45.8,15.7,30.3,30.3C15.7,45.8,7.5,67,4.3,90.4c-3,22.3-2.2,37.6-2.2,37.6s-0.7,15.2,2.2,37.6
	c3.1,23.4,11.4,44.6,26,60.1l0,0c15.6,14.6,36.7,22.9,60.1,26c22.3,3,37.6,2.2,37.6,2.2s15.2,0.7,37.6-2.2
	c23.4-3.1,44.6-11.4,60.1-26l0,0c14.6-15.6,22.9-36.7,26-60.1c3-22.3,2.2-37.6,2.2-37.6S254.7,112.8,251.7,90.4"/>
<radialGradient id="SVGID_1_" cx="244.1091" cy="64.1122" r="244.6706" gradientUnits="userSpaceOnUse">
	<stop  offset="0.2167" style="stop-color:#FF6A27"/>
	<stop  offset="0.7155" style="stop-color:#FF881B;stop-opacity:0.4"/>
	<stop  offset="1" style="stop-color:#FFB900;stop-opacity:0"/>
</radialGradient>
<path class="st2" d="M251.7,90.4c-3.1-23.4-11.4-44.6-26-60.1l0,0c-15.6-14.6-36.7-22.9-60.1-26C143.2,1.3,128,2,128,2
	s-15.2-0.7-37.6,2.3C67,7.4,45.8,15.7,30.3,30.3C15.7,45.8,7.5,67,4.3,90.4c-3,22.3-2.2,37.6-2.2,37.6s-0.7,15.2,2.2,37.6
	c3.1,23.4,11.4,44.6,26,60.1l0,0c15.6,14.6,36.7,22.9,60.1,26c22.3,3,37.6,2.2,37.6,2.2s15.2,0.7,37.6-2.2
	c23.4-3.1,44.6-11.4,60.1-26l0,0c14.6-15.6,22.9-36.7,26-60.1c3-22.3,2.2-37.6,2.2-37.6S254.7,112.8,251.7,90.4"/>
<g>
	<path class="st3" d="M185,113.3c-1-4.9-6.4-28.5-27.8-42.4c-14.5-9.4-30-10.3-33.9-10.1c-4.9,0.2-9.8,1.2-9.8,1.2
		c-1.8,0.4-3.3,0.8-4.4,1.1c0.3-1.3,0.9-3.1,2.2-5c0.8-1.1,1.7-2,2.5-2.8c0.6-0.5,0-1.4-0.7-1.1c-1.6,0.7-3.3,1.7-4.9,3.3
		c-2.6,2.4-3.8,5.1-4.4,6.7c-0.5-6.1,1-9.8,2.7-12.1c2.2-3,3.5-5.9,5.2-7.6c0.8-0.8-0.2-2.1-1.2-1.6c-3,1.7-10,6.7-13.4,11.6
		c-2.1,3.1-4.8,7.7-6.7,14.2c0.2-10.2,3-16.5,4.4-19.2c2.8-5.3,8.7-12.6,9.5-13.2c0,0,0.4-0.4,0.8-0.9c0.2-0.3,0.3-0.5,0.3-0.7
		c-0.1-0.8-1.5-1.2-1.7-1.3c-4.6-2.2-20.8,13.3-24.5,31.5c-0.6,3-1.4,8.9,0.1,16.6c1,5,7,7,10.8,3.7l0.1-0.1c3-2.6,5.8-4.4,8.3-5.8
		c2.9-1.6,7.1-3.6,12.4-4.9c0.5-0.1,6.2-1.5,12.2-1.5c15.8,0.1,27.4,8.6,30.3,10.9c12.6,9.8,20.3,25.2,20.2,39.6c0,0.7,0,1.2,0,1.6
		h11.5c11,1,20.9,9.1,24.2,19.3c0.5,1.5,1.2,4.5,1.2,8.1c0,15.2-12.3,27.5-27.5,27.5c0,0,0,0.1,0,0.1h-27.5h-11.1h-17.3
		c-0.2,0-3.1-0.2-4.5-2.8c-1.1-2-0.8-4.5,0.7-6.3c3.5-3.5,7-7,10.5-10.5c0.5-0.4,1.7-1.1,3.4-1.2c2.1-0.1,3.6,0.9,4.1,1.2
		c2.5,1.3,5.5,0.8,7.4-1.2c1.8-1.9,2.2-4.7,1-7c0,0,0,0,0,0s0,0,0,0c-0.7-0.7-4.9-4.7-11.4-4.7c-6.4,0-10.4,3.9-11.2,4.7l-11.7,11.7
		c-6.3,6.3-6.6,16.9-0.2,23.1c3.3,3.2,7.6,4.6,11.9,4.4v0h55.1c21.5,0,39.8-17.6,39.7-39.1C222.2,131.2,205.7,114.2,185,113.3z"/>
	<path class="st3" d="M150.3,162.1c-0.2,0.3-1.4,2.1-3.7,2.3c-1.3,0.1-2.3-0.4-2.8-0.6c-2.2-2.1-5.6-2.1-7.7-0.2
		c-2.3,2.1-2.4,6,0,8.3c0.9,0.7,5.5,4.2,11.9,3.4c4.8-0.6,7.9-3.4,8.9-4.4c4.2-4.2,8.4-8.4,12.6-12.6c6-6.9,5.9-17.1,0-23.6
		c-6.2-6.9-17.3-7.7-24.7-1.5c-1.3,1.2-2.5,2.4-3.8,3.6c-1.9,2.1-2,5.3-0.2,7.3c1.9,2.2,5.4,2.4,7.7,0.4c1.1-1,2.3-2,3.4-3
		c2.7-2.1,6.5-1.9,8.9,0.4c2.5,2.4,2.9,6.4,0.8,9.2C157.9,154.7,154.1,158.4,150.3,162.1z"/>
	<path class="st3" d="M81,115.5c13.5-0.3,25.1,7.6,30.4,19.1c3.3-2.1,6.5-4.1,9.8-6.2c-7.4-14.9-23.1-25-41-24.4
		c-23.4,0.8-42.2,20.3-42.4,43.7c-0.1,21.6,15.3,39.6,35.8,43.5h26.9v-11.4H75.3c-14.7-3-25.8-15.9-26-31.4
		C49,130.7,63.3,115.9,81,115.5z"/>
</g>
</svg>
