<?xml version="1.0" encoding="utf-8"?>
<!-- Generator: Adobe Illustrator 23.0.0, SVG Export Plug-In . SVG Version: 6.00 Build 0)  -->
<!DOCTYPE svg PUBLIC "-//W3C//DTD SVG 1.1//EN" "http://www.w3.org/Graphics/SVG/1.1/DTD/svg11.dtd" [
	<!ENTITY ns_extend "http://ns.adobe.com/Extensibility/1.0/">
	<!ENTITY ns_ai "http://ns.adobe.com/AdobeIllustrator/10.0/">
	<!ENTITY ns_graphs "http://ns.adobe.com/Graphs/1.0/">
	<!ENTITY ns_vars "http://ns.adobe.com/Variables/1.0/">
	<!ENTITY ns_imrep "http://ns.adobe.com/ImageReplacement/1.0/">
	<!ENTITY ns_sfw "http://ns.adobe.com/SaveForWeb/1.0/">
	<!ENTITY ns_custom "http://ns.adobe.com/GenericCustomNamespace/1.0/">
	<!ENTITY ns_adobe_xpath "http://ns.adobe.com/XPath/1.0/">
]>
<svg version="1.1" id="레이어_1" xmlns:x="&ns_extend;" xmlns:i="&ns_ai;" xmlns:graph="&ns_graphs;"
	 xmlns="http://www.w3.org/2000/svg" xmlns:xlink="http://www.w3.org/1999/xlink" x="0px" y="0px" viewBox="0 0 256 256"
	 style="enable-background:new 0 0 256 256;" xml:space="preserve">
<style type="text/css">
	.st0{opacity:0.1;}
	.st1{fill:#B2AD9A;}
	.st2{fill:url(#SVGID_1_);}
	.st3{fill:#FFFFFF;}
</style>
<metadata>
	<sfw  xmlns="&ns_sfw;">
		<slices></slices>
		<sliceSourceBounds  bottomLeftOrigin="true" height="255.1" width="255" x="0.5" y="0.5"></sliceSourceBounds>
	</sfw>
</metadata>
<g class="st0">
	<g>
		<path d="M132.8,0.5c6.2,0,18.1,0.3,33.3,2.3c23.7,3.1,45.1,11.5,60.8,26.3l0,0C241.6,44.8,250,66.2,253.1,90c3,22.6,2.3,38,2.3,38
			s0.7,15.4-2.3,38c-3.1,23.7-11.5,45.1-26.3,60.9l0,0c-15.7,14.8-37.1,23.1-60.8,26.3c-15.1,2-27,2.3-33.2,2.3
			c-3.1,0-4.7-0.1-4.7-0.1s-1.7,0.1-4.7,0.1c-6.2,0-18.1-0.3-33.2-2.3c-23.7-3.1-45.1-11.5-60.8-26.3l0,0
			C14.4,211.2,6,189.8,2.9,166c-3-22.6-2.3-38-2.3-38s-0.7-15.4,2.3-38C6,66.2,14.4,44.8,29.2,29.1l0,0C44.8,14.3,66.3,5.9,89.9,2.8
			c15.1-2,27-2.3,33.3-2.3c3.1,0,4.7,0.1,4.7,0.1S129.7,0.5,132.8,0.5"/>
	</g>
</g>
<path class="st1" d="M251.7,90.4c-3.1-23.4-11.4-44.6-26-60.1l0,0c-15.6-14.6-36.7-22.9-60.1-26C143.2,1.3,128,2,128,2
	s-15.2-0.7-37.6,2.3C67,7.4,45.8,15.7,30.3,30.3C15.7,45.8,7.5,67,4.3,90.4c-3,22.3-2.2,37.6-2.2,37.6s-0.7,15.2,2.2,37.6
	c3.1,23.4,11.4,44.6,26,60.1l0,0c15.6,14.6,36.7,22.9,60.1,26c22.3,3,37.6,2.2,37.6,2.2s15.2,0.7,37.6-2.2
	c23.4-3.1,44.6-11.4,60.1-26l0,0c14.6-15.6,22.9-36.7,26-60.1c3-22.3,2.2-37.6,2.2-37.6S254.7,112.8,251.7,90.4"/>
<radialGradient id="SVGID_1_" cx="129.5921" cy="114.4053" r="295.8732" fx="-7.8426" fy="376.4218" gradientTransform="matrix(1 0 0 0.6219 0 43.2528)" gradientUnits="userSpaceOnUse">
	<stop  offset="0.3021" style="stop-color:#C0B2B2;stop-opacity:0"/>
	<stop  offset="0.6122" style="stop-color:#B8ACAC;stop-opacity:0.4605"/>
	<stop  offset="0.9312" style="stop-color:#ACA3A3"/>
</radialGradient>
<path class="st2" d="M251.7,90.4c-3.1-23.4-11.4-44.6-26-60.1l0,0c-15.6-14.6-36.7-22.9-60.1-26C143.2,1.3,128,2,128,2
	s-15.2-0.7-37.6,2.3C67,7.4,45.8,15.7,30.3,30.3C15.7,45.8,7.5,67,4.3,90.4c-3,22.3-2.2,37.6-2.2,37.6s-0.7,15.2,2.2,37.6
	c3.1,23.4,11.4,44.6,26,60.1l0,0c15.6,14.6,36.7,22.9,60.1,26c22.3,3,37.6,2.2,37.6,2.2s15.2,0.7,37.6-2.2
	c23.4-3.1,44.6-11.4,60.1-26l0,0c14.6-15.6,22.9-36.7,26-60.1c3-22.3,2.2-37.6,2.2-37.6S254.7,112.8,251.7,90.4"/>
<path class="st3" d="M219.4,72.5l-11.3-5c-0.8-0.3-4.1-1.4-7.8,0.1c-3.8,1.4-5.4,4.4-5.9,5.2c-2,4-4,7.9-5.9,11.9
	c-0.2-1.6-1.1-11-2.5-15.3c-0.2-0.7-0.6-1.7-1.6-2.1c-1.2-0.6-2.8-0.3-3.9,0.8c-22.6,27.4-55.1,40.2-82.7,32
	c-11.4-3.4-20.1-9.8-26.1-15.7c-1.3-1.3-3.5-0.3-3.4,1.5c0.3,5.3,0.3,11,0,17.2c-0.3,5.3-0.8,10.3-1.4,14.8
	c-10.8-10.4-25.2-11.3-31.9-5.3c-8.3,7.4-3.9,24.2,4,33c7.2,8,16.7,12,24.4,11c0,0,0,0,0,0c7.2,5.5,21.2,14.7,41.1,18.6
	c16,3.2,29.5,1.8,37.8,0.3c1.8,7,2.1,12.9,2.1,17c-0.1,6.4-0.2,10.5-3.1,13.1c-1.8,1.6-3.8,1.8-4.6,3.8c-0.7,1.9-0.2,4.5,1.1,5.9
	c4.5,5,20.2-2.3,26.5-5.3c7.8-3.6,11.8-5.5,15.8-10c7.2-8.1,8.1-17.8,8.3-21.9c-3.4-1.3-6.9-2.6-10.3-3.9
	c-0.5,4.9-2.3,15.3-10.6,22.3c-4.3,3.6-11.6,7.3-14.3,5c-2-1.8,0.6-5.4,1.1-13.7c0.6-11.4-3.2-14.6-1.6-22c0.7-3.1,2.9-7,8.8-10.8
	l25.9,11c2.3,1,5.1-0.1,6-2.5c10.4-25.9,20.8-51.7,31.2-77.6C227,80.9,224.7,74.8,219.4,72.5z M65.7,146.8
	c-4.9,4.4-15.9,0.4-21.7-6.1c-5.6-6.4-8.1-17.5-3.4-21.8c4.9-4.4,16.6-0.4,22.4,6.8C68.1,132,70.4,142.6,65.7,146.8z M159.8,142.2
	c-2.6,1.3-7.4,4.2-11.5,9.5c-4,5.2-5.5,10.3-6.1,13.1c0,0,0,0,0,0c-6.6,1.6-15.7,3-26.5,2.2c-20.7-1.6-35.6-10.7-42.7-15.8
	c1-2.3,2.5-6.4,2.6-11.6c0.1-5.4-1.2-9.7-2.2-12.1c1.1-4.2,2.2-9.2,2.7-15c0.5-5.5,0.5-10.3,0.2-14.5c6.5,4.4,18.6,11.2,35,12.7
	c22.9,2.2,39.9-7.2,46.3-10.8c10.7-6.1,18-13.3,22.4-18.4c0.6,5,0.9,12.3-0.4,20.7C173.1,115.6,166.5,128.9,159.8,142.2z M188,150.5
	c-0.7,1.9-3,2.9-4.9,2c-3.8-1.7-7.5-3.3-11.3-5c-1.6-0.7-2.3-2.7-1.5-4.2c11.1-21.8,22.1-43.6,33.2-65.4c6.7,3,3.9,1.8,10.6,4.7
	C205.5,105.2,196.7,127.9,188,150.5z"/>
</svg>
