<?xml version="1.0" encoding="utf-8"?>
<!-- Generator: Adobe Illustrator 23.0.0, SVG Export Plug-In . SVG Version: 6.00 Build 0)  -->
<svg version="1.1" id="레이어_1" xmlns="http://www.w3.org/2000/svg" xmlns:xlink="http://www.w3.org/1999/xlink" x="0px"
	 y="0px" viewBox="0 0 256 256" style="enable-background:new 0 0 256 256;" xml:space="preserve">
<style type="text/css">
	.st0{opacity:0.1;}
	.st1{fill:#666699;}
	.st2{fill:#339966;}
	.st3{fill:#FFFFCC;}
	.st4{fill:#CC3333;}
</style>
<g class="st0">
	<g>
		<path d="M132.7,0.5c6.2,0,18.1,0.3,33.3,2.3c23.7,3.1,45.1,11.5,60.9,26.3h0C241.6,44.8,250,66.3,253.2,90c3,22.6,2.3,38,2.3,38
			s0.7,15.4-2.3,38c-3.1,23.7-11.5,45.1-26.3,60.9l0,0c-15.7,14.8-37.2,23.2-60.9,26.3c-15.1,2-27.1,2.3-33.3,2.3
			c-3.1,0-4.7-0.1-4.7-0.1s-1.7,0.1-4.7,0.1c-6.2,0-18.1-0.3-33.3-2.3c-23.7-3.1-45.1-11.5-60.9-26.3l0,0
			C14.4,211.2,6,189.7,2.8,166c-3-22.6-2.3-38-2.3-38s-0.7-15.4,2.3-38C6,66.3,14.4,44.8,29.1,29.1h0C44.9,14.3,66.3,5.9,90,2.8
			c15.2-2,27.1-2.3,33.3-2.3c3.1,0,4.7,0.1,4.7,0.1S129.7,0.5,132.7,0.5"/>
	</g>
</g>
<path class="st1" d="M251.7,90.4c-3.1-23.4-11.4-44.6-26-60.1l0,0c-15.6-14.6-36.7-22.9-60.1-26C143.2,1.3,128,2,128,2
	s-15.2-0.7-37.6,2.3C67,7.4,45.8,15.7,30.3,30.3C15.7,45.8,7.5,67,4.3,90.4c-3,22.3-2.2,37.6-2.2,37.6s-0.7,15.2,2.2,37.6
	c3.1,23.4,11.4,44.6,26,60.1l0,0c15.6,14.6,36.7,22.9,60.1,26c22.3,3,37.6,2.2,37.6,2.2s15.2,0.7,37.6-2.2
	c23.4-3.1,44.6-11.4,60.1-26l0,0c14.6-15.6,22.9-36.7,26-60.1c3-22.3,2.2-37.6,2.2-37.6S254.7,112.8,251.7,90.4"/>
<g>
	<path class="st2" d="M177,203H99c-6.1,0-11-4.9-11-11V64c0-6.1,4.9-11,11-11h78c6.1,0,11,4.9,11,11v128
		C188,198.1,183.1,203,177,203z"/>
	<path class="st3" d="M157,203H79c-6.1,0-11-4.9-11-11V64c0-6.1,4.9-11,11-11h78c6.1,0,11,4.9,11,11v128
		C168,198.1,163.1,203,157,203z"/>
</g>
<g>
	<path class="st4" d="M120.6,101.4v6.8h13.9c0.4,0,0.7-0.2,1-0.6c0.3-0.4,0.7-0.5,1.4-0.3l6.3,1.6l-0.4,3.1v25.8
		c0,0.6-0.3,1.2-0.8,1.9c-0.5,0.7-1.6,1.1-3.3,1.2c-0.6,0.1-1-0.1-1.3-0.3c-0.3-0.3-0.6-0.6-0.7-1c-0.2-0.4-0.4-0.9-0.4-1.5h-10.5
		c4,3.5,8.5,6.9,13.4,10.3c4.9,3.4,10.4,6.4,16.5,9c1.2,0.5,1.7,0.9,1.5,1.2c-0.1,0.3-0.5,0.7-1,1l-3.5,1.9
		c-0.5,0.3-1.1,0.4-1.9,0.5c-0.8,0-1.5-0.2-2.3-0.6c-1.6-0.8-3.5-1.9-5.6-3.2c-2.1-1.4-4.4-2.9-6.9-4.7c-2.5-1.8-5-3.7-7.6-5.9
		c-2.6-2.2-5.2-4.5-7.8-6.9v23.2c0,0.3-0.1,0.8-0.3,1.3c-0.2,0.5-0.5,1-0.9,1.4c-0.4,0.4-0.9,0.8-1.5,1.1c-0.6,0.3-1.3,0.4-2.1,0.4
		c-1.2,0-1.9-0.3-2.1-1c-0.2-0.7-0.3-1.6-0.3-2.8v-23.5c-1.5,1.6-3.3,3.4-5.4,5.3c-2.1,1.9-4.5,3.8-7,5.7c-2.6,1.9-5.4,3.7-8.6,5.4
		c-3.1,1.7-6.4,3.2-9.9,4.4c-0.7,0.2-1.3,0.2-1.9,0c-0.5-0.2-1-0.5-1.2-0.9c-0.3-0.4-0.3-0.9-0.2-1.3c0.1-0.5,0.5-0.9,1.2-1.2
		c3.5-1.7,6.7-3.5,9.6-5.4c2.9-1.8,5.4-3.7,7.7-5.4c2.2-1.8,4.2-3.5,5.8-5.1c1.6-1.6,3-3,4-4.2H97c-0.1,1.2-0.5,1.9-1.3,2.4
		c-0.8,0.4-1.8,0.6-2.9,0.6c-0.6,0-1.1-0.1-1.4-0.3c-0.3-0.2-0.5-0.5-0.7-0.9c-0.1-0.3-0.2-0.7-0.2-1.1c0-0.4,0-0.7,0-1v-29.6h22.9
		v-6.8H82.7c-1.2,0-2.1-0.3-2.8-0.9c-0.7-0.6-1.1-1.2-1.1-1.9c0-0.3,0.2-0.7,0.5-1c0.3-0.3,0.9-0.5,1.6-0.5h32.5V88l7.2,1.2v8h22.6
		c0.8,0,1.4-0.1,1.6-0.2c0.3-0.1,0.7-0.4,1.3-0.9c0.3-0.2,0.7-0.5,1.3-0.8c0.6-0.3,1.3-0.3,2.1,0.1l3.8,1.8c1.6,0.7,2.4,1.7,2.4,2.8
		c0,0.6-0.2,1-0.7,1.2c-0.5,0.2-1.1,0.3-1.9,0.3H120.6z M97.4,121.5h16v-9h-16V121.5z M113.4,133.8v-8.2h-16v8.2H113.4z
		 M120.6,112.5v9h15.3v-9H120.6z M135.9,133.8v-8.2h-15.3v8.2H135.9z"/>
</g>
</svg>
