<?xml version="1.0" encoding="UTF-8" standalone="no"?>
<!-- Generator: Adobe Illustrator 23.0.0, SVG Export Plug-In . SVG Version: 6.00 Build 0)  -->

<svg
   xmlns:ns="&amp;ns_sfw;"
   xmlns:dc="http://purl.org/dc/elements/1.1/"
   xmlns:cc="http://creativecommons.org/ns#"
   xmlns:rdf="http://www.w3.org/1999/02/22-rdf-syntax-ns#"
   xmlns:svg="http://www.w3.org/2000/svg"
   xmlns="http://www.w3.org/2000/svg"
   xmlns:sodipodi="http://sodipodi.sourceforge.net/DTD/sodipodi-0.dtd"
   xmlns:inkscape="http://www.inkscape.org/namespaces/inkscape"
   version="1.1"
   id="레이어_1"
   x="0px"
   y="0px"
   viewBox="0 0 256 256"
   style="enable-background:new 0 0 256 256;"
   xml:space="preserve"
   sodipodi:docname="gnome-power-manager.svg"
   inkscape:version="0.92.5 (2060ec1f9f, 2020-04-08)"><defs
   id="defs25"><filter
     inkscape:collect="always"
     style="color-interpolation-filters:sRGB"
     id="filter4567"
     x="-0.072008227"
     width="1.1440165"
     y="-0.071991774"
     height="1.1439835"><feGaussianBlur
       inkscape:collect="always"
       stdDeviation="7.649126"
       id="feGaussianBlur4569" /></filter></defs><sodipodi:namedview
   pagecolor="#ffffff"
   bordercolor="#666666"
   borderopacity="1"
   objecttolerance="10"
   gridtolerance="10"
   guidetolerance="10"
   inkscape:pageopacity="0"
   inkscape:pageshadow="2"
   inkscape:window-width="1439"
   inkscape:window-height="480"
   id="namedview23"
   showgrid="false"
   inkscape:zoom="0.921875"
   inkscape:cx="128"
   inkscape:cy="128"
   inkscape:window-x="68"
   inkscape:window-y="27"
   inkscape:window-maximized="0"
   inkscape:current-layer="레이어_1" />
<style
   type="text/css"
   id="style2">
	.st0{opacity:0.1;}
	.st1{fill:#33CC33;}
	.st2{fill-rule:evenodd;clip-rule:evenodd;fill:#FFFFFF;}
	.st3{fill:#FFFFFF;}
</style>
<metadata
   id="metadata4">
	<ns:sfw>
		<ns:slices />
		<ns:sliceSourceBounds
   bottomLeftOrigin="true"
   height="255"
   width="254.9"
   x="0.5"
   y="0.5" />
	</ns:sfw>
<rdf:RDF><cc:Work
     rdf:about=""><dc:format>image/svg+xml</dc:format><dc:type
       rdf:resource="http://purl.org/dc/dcmitype/StillImage" /></cc:Work></rdf:RDF></metadata>
<g
   class="st0"
   id="g10"
   style="opacity:0.1">
	<g
   id="g8">
		<path
   d="m 132.8,0.5 c 6.2,0 18.1,0.3 33.3,2.3 23.7,3.1 45.1,11.5 60.8,26.3 v 0 c 14.7,15.7 23.1,37.1 26.2,60.9 3,22.6 2.3,38 2.3,38 0,0 0.7,15.4 -2.3,38 -3.1,23.7 -11.5,45.1 -26.3,60.9 v 0 c -15.7,14.8 -37.1,23.1 -60.8,26.3 -15.1,2 -27,2.3 -33.2,2.3 -3.1,0 -4.7,-0.1 -4.7,-0.1 0,0 -1.7,0.1 -4.7,0.1 -6.2,0 -18.1,-0.3 -33.2,-2.3 -23.7,-3.1 -45.1,-11.5 -60.8,-26.3 v 0 C 14.4,211.2 6,189.8 2.9,166 -0.1,143.4 0.6,128 0.6,128 0.6,128 -0.1,112.6 2.9,90 6,66.2 14.4,44.8 29.2,29.1 v 0 C 44.8,14.3 66.3,5.9 89.9,2.8 c 15.1,-2 27,-2.3 33.3,-2.3 3.1,0 4.7,0.1 4.7,0.1 0,0 1.8,-0.1 4.9,-0.1"
   id="path6"
   inkscape:connector-curvature="0"
   style="opacity:0.1;fill:#000000;fill-opacity:1;filter:url(#filter4567)" />
	</g>
</g>
<path
   class="st1"
   d="M251.7,90.4c-3.1-23.4-11.4-44.6-26-60.1l0,0c-15.6-14.6-36.7-22.9-60.1-26C143.2,1.3,128,2,128,2  s-15.2-0.7-37.6,2.3C67,7.4,45.8,15.7,30.3,30.3C15.7,45.8,7.5,67,4.3,90.4c-3,22.3-2.2,37.6-2.2,37.6s-0.7,15.2,2.2,37.6  c3.1,23.4,11.4,44.6,26,60.1l0,0c15.6,14.6,36.7,22.9,60.1,26c22.3,3,37.6,2.2,37.6,2.2s15.2,0.7,37.6-2.2  c23.4-3.1,44.6-11.4,60.1-26l0,0c14.6-15.6,22.9-36.7,26-60.1c3-22.3,2.2-37.6,2.2-37.6S254.7,112.8,251.7,90.4"
   id="path12"
   style="opacity:1;fill:#66cc33;fill-opacity:1" />
<g
   id="g18">
	<path
   class="st2"
   d="M80.2,202.7h0.1c-0.1-0.2-0.1-0.4-0.1-0.6V67.1c0-0.9,0.7-1.7,1.7-1.7h26.1h40H169h4.8h12.9V54.8h-38.6V41.2   h-40v13.6H69.3v159.9c3.6,0,7.3,0,10.9,0V202.7z"
   id="path14" />
	<path
   class="st2"
   d="M175.8,79.4v108.1c0,9.1-7.3,16.4-16.4,16.4h-1.4c-21.3,0-42.5,0-63.8,0v10.8c22.3,0,44.5,0,66.8,0   c14.1,0,25.6-11.4,25.6-25.6V79.4H175.8z"
   id="path16" />
</g>
<path
   class="st3"
   d="M146.1,129.5H130c2.7-10.8,5.4-21.5,8.1-32.3c0.5-2-2.3-3.1-3.4-1.3c-8.8,14-17.6,28-26.4,42  c-0.7,1.2,0.1,2.7,1.6,2.7H126c-2.7,10.8-5.4,21.5-8.1,32.3c-0.5,2,2.3,3.1,3.4,1.3c8.8-14,17.6-28,26.4-42  C148.5,131,147.6,129.5,146.1,129.5z"
   id="path20"
   style="fill:#ffffff;fill-opacity:1" />
<style
   id="style4571"
   type="text/css">
	.st0{opacity:0.1;}
	.st1{fill:#66CC33;}
	.st2{fill:#FFFFFF;}
	.st3{fill:#339900;}
</style></svg>