<?xml version="1.0" encoding="utf-8"?>
<!-- Generator: Adobe Illustrator 23.0.0, SVG Export Plug-In . SVG Version: 6.00 Build 0)  -->
<svg version="1.1" id="레이어_1" xmlns="http://www.w3.org/2000/svg" xmlns:xlink="http://www.w3.org/1999/xlink" x="0px"
	 y="0px" viewBox="0 0 256 256" style="enable-background:new 0 0 256 256;" xml:space="preserve">
<style type="text/css">
	.st0{opacity:0.1;}
	.st1{fill:#CC99CC;}
	.st2{fill:#FFFFFF;}
	.st3{fill:#666666;}
	.st4{fill:#66CCCC;}
</style>
<g class="st0">
	<g>
		<path d="M132.7,0.5c6.2,0,18.1,0.3,33.3,2.3c23.7,3.1,45.1,11.5,60.9,26.3h0C241.6,44.8,250,66.3,253.2,90c3,22.6,2.3,38,2.3,38
			s0.7,15.4-2.3,38c-3.1,23.7-11.5,45.1-26.3,60.9l0,0c-15.7,14.8-37.2,23.2-60.9,26.3c-15.1,2-27.1,2.3-33.3,2.3
			c-3.1,0-4.7-0.1-4.7-0.1s-1.7,0.1-4.7,0.1c-6.2,0-18.1-0.3-33.3-2.3c-23.7-3.1-45.1-11.5-60.9-26.3l0,0
			C14.4,211.2,6,189.7,2.8,166c-3-22.6-2.3-38-2.3-38s-0.7-15.4,2.3-38C6,66.3,14.4,44.8,29.1,29.1h0C44.9,14.3,66.3,5.9,90,2.8
			c15.2-2,27.1-2.3,33.3-2.3c3.1,0,4.7,0.1,4.7,0.1S129.7,0.5,132.7,0.5"/>
	</g>
</g>
<path class="st1" d="M251.7,90.4c-3.1-23.4-11.4-44.6-26-60.1l0,0c-15.6-14.6-36.7-22.9-60.1-26C143.2,1.3,128,2,128,2
	s-15.2-0.7-37.6,2.3C67,7.4,45.8,15.7,30.3,30.3C15.7,45.8,7.5,67,4.3,90.4c-3,22.3-2.2,37.6-2.2,37.6s-0.7,15.2,2.2,37.6
	c3.1,23.4,11.4,44.6,26,60.1l0,0c15.6,14.6,36.7,22.9,60.1,26c22.3,3,37.6,2.2,37.6,2.2s15.2,0.7,37.6-2.2
	c23.4-3.1,44.6-11.4,60.1-26l0,0c14.6-15.6,22.9-36.7,26-60.1c3-22.3,2.2-37.6,2.2-37.6S254.7,112.8,251.7,90.4"/>
<path class="st2" d="M205,208H51c-1.7,0-3-1.3-3-3V51c0-1.7,1.3-3,3-3h154c1.7,0,3,1.3,3,3v154C208,206.7,206.7,208,205,208z"/>
<g>
	<path class="st3" d="M81.1,63.3v24.6h-4V67.4l-5.7,1.9L70.2,66l7.4-2.7H81.1z"/>
</g>
<g>
	<path class="st3" d="M187.1,79.9c0,1.6-0.4,3-1.1,4.2c-0.7,1.2-1.7,2.2-3,2.8c-1.3,0.7-2.8,1-4.5,1c-1.3,0-2.7-0.2-4-0.6
		c-1.3-0.4-2.5-0.9-3.4-1.6l1.5-3.3c1,0.6,2,1,3,1.3c1,0.3,2,0.5,2.9,0.5c1.4,0,2.5-0.4,3.3-1.1c0.8-0.8,1.2-1.8,1.2-3.2
		c0-1.3-0.4-2.3-1.1-3c-0.7-0.7-1.8-1.1-3.1-1.1c-0.7,0-1.4,0.1-2.1,0.3l-1.5-2l6.9-7.3h-10.3v-3.5h14.6v3.5l-5.5,5.7
		c1.9,0.3,3.5,1.1,4.6,2.4C186.5,76.2,187.1,77.8,187.1,79.9z"/>
</g>
<rect x="107.8" y="107.8" class="st4" width="40.4" height="40.4"/>
<g>
	<path class="st2" d="M135.5,131.9c0,1.6-0.3,3-1,4.2c-0.7,1.2-1.7,2.1-2.9,2.8c-1.2,0.7-2.7,1-4.3,1c-1.2,0-2.5-0.2-3.7-0.5
		c-1.2-0.4-2.2-0.8-3-1.4l1.4-3.1c0.9,0.5,1.8,0.9,2.7,1.1c0.9,0.3,1.8,0.4,2.6,0.4c1.4,0,2.4-0.4,3.2-1.2c0.8-0.8,1.1-1.8,1.1-3.2
		c0-1.3-0.3-2.3-1-3c-0.7-0.7-1.7-1.1-2.9-1.1c-0.6,0-1.2,0.1-1.9,0.2c-0.6,0.2-1.2,0.4-1.8,0.7l-2.4-1.3l0.6-11.4h12.3v3.3h-8.9
		l-0.5,5.4c1-0.3,2-0.5,3-0.5c1.5,0,2.8,0.3,3.9,0.9c1.1,0.6,2,1.5,2.6,2.6C135.2,129.1,135.5,130.4,135.5,131.9z"/>
</g>
<g>
	<path class="st3" d="M83.9,168.4v3.4l-9.1,20.4l-3.6-1.5l8.7-18.9H69.1v-3.4H83.9z"/>
</g>
<g>
	<path class="st3" d="M186.8,176.4c0,1.8-0.3,3.4-1,5c-0.7,1.5-1.8,3.3-3.4,5.2l-4.7,5.6l-2.9-2.3l4.7-5.4c0.5-0.6,0.9-1.1,1.2-1.4
		c-0.8,0.3-1.6,0.4-2.5,0.4c-1.4,0-2.5-0.3-3.6-0.9c-1-0.6-1.8-1.5-2.4-2.6c-0.6-1.1-0.8-2.4-0.8-3.8c0-1.5,0.3-2.9,0.9-4
		s1.5-2.1,2.7-2.7c1.1-0.6,2.5-0.9,4-0.9c1.6,0,2.9,0.3,4.1,1c1.2,0.7,2.1,1.6,2.7,2.8C186.5,173.4,186.8,174.8,186.8,176.4z
		 M179.3,180.5c1,0,2-0.2,3-0.7c0.5-0.9,0.7-2.1,0.7-3.4c0-1.5-0.4-2.6-1.1-3.4c-0.7-0.8-1.7-1.2-2.9-1.2c-1.2,0-2.1,0.4-2.8,1.1
		c-0.7,0.8-1,1.8-1,3.2c0,1.4,0.4,2.5,1.1,3.3C177,180.1,178,180.5,179.3,180.5z"/>
</g>
<path class="st3" d="M198.3,48H57.7H51c-1.7,0-3,1.3-3,3v154c0,1.7,1.3,3,3,3h6.7h140.7h6.7c1.7,0,3-1.3,3-3V51c0-1.7-1.3-3-3-3
	H198.3z M148.2,57.7v40.4h-40.4V57.7H148.2z M107.8,107.8h40.4v40.4h-40.4V107.8z M57.7,57.7h40.4v40.4H57.7V57.7z M57.7,107.8h40.4
	v40.4H57.7V107.8z M57.7,198.3v-40.4h40.4v40.4H57.7z M107.8,198.3v-40.4h40.4v40.4H107.8z M198.3,198.3h-40.4v-40.4h40.4V198.3z
	 M198.3,148.2h-40.4v-40.4h40.4V148.2z M198.3,98.1h-40.4V57.7h40.4V98.1z"/>
</svg>
