<?xml version="1.0" encoding="UTF-8" standalone="no"?>
<!-- Generator: Adobe Illustrator 23.0.0, SVG Export Plug-In . SVG Version: 6.00 Build 0)  -->

<svg
   xmlns:ns="&amp;ns_sfw;"
   xmlns:dc="http://purl.org/dc/elements/1.1/"
   xmlns:cc="http://creativecommons.org/ns#"
   xmlns:rdf="http://www.w3.org/1999/02/22-rdf-syntax-ns#"
   xmlns:svg="http://www.w3.org/2000/svg"
   xmlns="http://www.w3.org/2000/svg"
   xmlns:sodipodi="http://sodipodi.sourceforge.net/DTD/sodipodi-0.dtd"
   xmlns:inkscape="http://www.inkscape.org/namespaces/inkscape"
   version="1.1"
   id="레이어_1"
   x="0px"
   y="0px"
   viewBox="0 0 256 256"
   style="enable-background:new 0 0 256 256;"
   xml:space="preserve"
   sodipodi:docname="system-software-update.svg"
   inkscape:version="0.92.5 (2060ec1f9f, 2020-04-08)"><defs
   id="defs24" /><sodipodi:namedview
   pagecolor="#ffffff"
   bordercolor="#666666"
   borderopacity="1"
   objecttolerance="10"
   gridtolerance="10"
   guidetolerance="10"
   inkscape:pageopacity="0"
   inkscape:pageshadow="2"
   inkscape:window-width="1848"
   inkscape:window-height="1052"
   id="namedview22"
   showgrid="false"
   inkscape:zoom="0.921875"
   inkscape:cx="136.67797"
   inkscape:cy="-88.949153"
   inkscape:window-x="72"
   inkscape:window-y="28"
   inkscape:window-maximized="1"
   inkscape:current-layer="g10" />
<style
   type="text/css"
   id="style2">
	.st0{opacity:0.1;}
	.st1{fill:#618FFA;}
	.st2{fill-rule:evenodd;clip-rule:evenodd;fill:#FFFFFF;}
</style>
<metadata
   id="metadata4">
	<ns:sfw>
		<ns:slices />
		<ns:sliceSourceBounds
   bottomLeftOrigin="true"
   height="255.1"
   width="255"
   x="0.5"
   y="0.5" />
	</ns:sfw>
<rdf:RDF><cc:Work
     rdf:about=""><dc:format>image/svg+xml</dc:format><dc:type
       rdf:resource="http://purl.org/dc/dcmitype/StillImage" /></cc:Work></rdf:RDF></metadata>
<g
   class="st0"
   id="g10"
   style="opacity:0.1">
	<g
   id="g8">
		<path
   d="m 132.8,0.5 c 6.2,0 18.1,0.3 33.3,2.3 23.7,3.1 45.1,11.5 60.8,26.3 v 0 c 14.7,15.7 23.1,37.1 26.2,60.9 3,22.6 2.3,38 2.3,38 0,0 0.7,15.4 -2.3,38 -3.1,23.7 -11.5,45.1 -26.3,60.9 v 0 c -15.7,14.8 -37.1,23.1 -60.8,26.3 -15.1,2 -27,2.3 -33.2,2.3 -3.1,0 -4.7,-0.1 -4.7,-0.1 0,0 -1.7,0.1 -4.7,0.1 -6.2,0 -18.1,-0.3 -33.2,-2.3 -23.7,-3.1 -45.1,-11.5 -60.8,-26.3 v 0 C 14.4,211.2 6,189.8 2.9,166 -0.1,143.4 0.6,128 0.6,128 0.6,128 -0.1,112.6 2.9,90 6,66.2 14.4,44.8 29.2,29.1 v 0 C 44.8,14.3 66.3,5.9 89.9,2.8 c 15.1,-2 27,-2.3 33.3,-2.3 3.1,0 4.7,0.1 4.7,0.1 0,0 1.8,-0.1 4.9,-0.1"
   id="path6"
   inkscape:connector-curvature="0"
   style="fill:#000000;fill-opacity:1" />
	</g>
</g>
<path
   class="st1"
   d="M251.7,90.4c-3.1-23.4-11.4-44.6-26-60.1l0,0c-15.6-14.6-36.7-22.9-60.1-26C143.2,1.3,128,2,128,2  s-15.2-0.7-37.6,2.3C67,7.4,45.8,15.7,30.3,30.3C15.7,45.8,7.5,67,4.3,90.4c-3,22.3-2.2,37.6-2.2,37.6s-0.7,15.2,2.2,37.6  c3.1,23.4,11.4,44.6,26,60.1l0,0c15.6,14.6,36.7,22.9,60.1,26c22.3,3,37.6,2.2,37.6,2.2s15.2,0.7,37.6-2.2  c23.4-3.1,44.6-11.4,60.1-26l0,0c14.6-15.6,22.9-36.7,26-60.1c3-22.3,2.2-37.6,2.2-37.6S254.7,112.8,251.7,90.4"
   id="path12"
   style="fill:#f8f9f9;fill-opacity:1" />


<path
   style="fill:#ff5439;fill-rule:evenodd;stroke-width:0.5849241"
   d="m 115.43665,49.739123 c -9.42254,0 -17.166602,7.186948 -18.049252,16.377868 h -0.0834 v 88.669689 h -0.024 c 0.0158,0.19302 0.024,0.3878 0.024,0.58493 0,3.87628 -3.1428,7.01908 -7.019091,7.01908 -3.876291,0 -7.019089,-3.1428 -7.019089,-7.01908 0,-0.19713 0.0082,-0.39191 0.02399,-0.58493 h -0.02398 V 112.91091 96.188031 h -11.11356 v 16.722879 0.58493 24.75874 16.5321 0.8237 h 0.0023 c 0.127514,9.90451 8.195431,17.89387 18.130366,17.89387 10.013906,0 18.132646,-8.11874 18.132646,-18.13264 0,-0.41121 -0.0136,-0.81878 -0.0411,-1.22355 h 0.0411 V 68.456691 h 0.024 c -0.016,-0.19457 -0.024,-0.38971 -0.024,-0.58493 0,-3.87629 3.1428,-7.01909 7.01909,-7.01909 3.8763,0 7.01909,3.1428 7.01909,7.01909 0,0.19712 -0.008,0.3919 -0.024,0.58493 h 0.024 v 70.190889 59.66225 7.95017 h 11.11356 v -7.95017 -59.66225 -73.115509 h -0.14971 c -1.14758,-8.90899 -8.76163,-15.792948 -17.98296,-15.792948 z"
   id="path919"
   inkscape:connector-curvature="0" /><rect
   style="opacity:1;fill:#ff5439;fill-opacity:1;fill-rule:evenodd;stroke-width:0.5849241"
   id="rect955-7"
   width="11.113558"
   height="33.870094"
   x="47"
   y="111.39777" /><rect
   style="opacity:1;fill:#ff5439;fill-opacity:1;fill-rule:evenodd;stroke-width:0.5849241"
   id="rect1020"
   width="11.113558"
   height="67.612434"
   x="147.60693"
   y="91.853333" /><rect
   style="opacity:1;fill:#ff5439;fill-opacity:1;fill-rule:evenodd;stroke-width:0.37135619"
   id="rect1020-3"
   width="11.113558"
   height="27.252661"
   x="172.79526"
   y="111.74077" /><rect
   style="opacity:1;fill:#ff5439;fill-opacity:1;fill-rule:evenodd;stroke-width:0.44863221"
   id="rect1020-3-5"
   width="11.113558"
   height="39.774837"
   x="197.88644"
   y="106.32451" /></svg>