<?xml version="1.0" encoding="utf-8"?>
<!-- Generator: Adobe Illustrator 23.0.0, SVG Export Plug-In . SVG Version: 6.00 Build 0)  -->
<!DOCTYPE svg PUBLIC "-//W3C//DTD SVG 1.1//EN" "http://www.w3.org/Graphics/SVG/1.1/DTD/svg11.dtd" [
	<!ENTITY ns_extend "http://ns.adobe.com/Extensibility/1.0/">
	<!ENTITY ns_ai "http://ns.adobe.com/AdobeIllustrator/10.0/">
	<!ENTITY ns_graphs "http://ns.adobe.com/Graphs/1.0/">
	<!ENTITY ns_vars "http://ns.adobe.com/Variables/1.0/">
	<!ENTITY ns_imrep "http://ns.adobe.com/ImageReplacement/1.0/">
	<!ENTITY ns_sfw "http://ns.adobe.com/SaveForWeb/1.0/">
	<!ENTITY ns_custom "http://ns.adobe.com/GenericCustomNamespace/1.0/">
	<!ENTITY ns_adobe_xpath "http://ns.adobe.com/XPath/1.0/">
]>
<svg version="1.1" id="레이어_1" xmlns:x="&ns_extend;" xmlns:i="&ns_ai;" xmlns:graph="&ns_graphs;"
	 xmlns="http://www.w3.org/2000/svg" xmlns:xlink="http://www.w3.org/1999/xlink" x="0px" y="0px" viewBox="0 0 256 256"
	 style="enable-background:new 0 0 256 256;" xml:space="preserve">
<style type="text/css">
	.st0{opacity:0.1;}
	.st1{fill:#09CFDB;}
	.st2{fill-rule:evenodd;clip-rule:evenodd;fill:#FFFFFF;}
</style>
<metadata>
	<sfw  xmlns="&ns_sfw;">
		<slices></slices>
		<sliceSourceBounds  bottomLeftOrigin="true" height="255.1" width="255" x="0.5" y="0.5"></sliceSourceBounds>
	</sfw>
</metadata>
<g class="st0">
	<g>
		<path d="M132.8,0.5c6.2,0,18.1,0.3,33.3,2.3c23.7,3.1,45.1,11.5,60.8,26.3l0,0C241.6,44.8,250,66.2,253.1,90c3,22.6,2.3,38,2.3,38
			s0.7,15.4-2.3,38c-3.1,23.7-11.5,45.1-26.3,60.9l0,0c-15.7,14.8-37.1,23.1-60.8,26.3c-15.1,2-27,2.3-33.2,2.3
			c-3.1,0-4.7-0.1-4.7-0.1s-1.7,0.1-4.7,0.1c-6.2,0-18.1-0.3-33.2-2.3c-23.7-3.1-45.1-11.5-60.8-26.3l0,0
			C14.4,211.2,6,189.8,2.9,166c-3-22.6-2.3-38-2.3-38s-0.7-15.4,2.3-38C6,66.2,14.4,44.8,29.2,29.1l0,0C44.8,14.3,66.3,5.9,89.9,2.8
			c15.1-2,27-2.3,33.3-2.3c3.1,0,4.7,0.1,4.7,0.1S129.7,0.5,132.8,0.5"/>
	</g>
</g>
<path class="st1" d="M251.7,90.4c-3.1-23.4-11.4-44.6-26-60.1l0,0c-15.6-14.6-36.7-22.9-60.1-26C143.2,1.3,128,2,128,2
	s-15.2-0.7-37.6,2.3C67,7.4,45.8,15.7,30.3,30.3C15.7,45.8,7.5,67,4.3,90.4c-3,22.3-2.2,37.6-2.2,37.6s-0.7,15.2,2.2,37.6
	c3.1,23.4,11.4,44.6,26,60.1l0,0c15.6,14.6,36.7,22.9,60.1,26c22.3,3,37.6,2.2,37.6,2.2s15.2,0.7,37.6-2.2
	c23.4-3.1,44.6-11.4,60.1-26l0,0c14.6-15.6,22.9-36.7,26-60.1c3-22.3,2.2-37.6,2.2-37.6S254.7,112.8,251.7,90.4"/>
<g transform="translate(-21 -26)">
	<path class="st2" d="M217.1,174.5c3.5,9.9-3.8,20.4-14.4,20.4h-74c-0.1,0.7-0.1,1.3-0.1,2c0,10.8,8.8,19.6,19.6,19.6
		c6.4,0,12.1-3,15.6-7.8l7.7,7.7c-5.9,7-15,11.4-25,10.8c-15.3-0.8-27.7-13.1-28.6-28.4c-0.1-1.5-0.1-3,0-4.5
		c0.5-5.6,5.2-9.8,10.8-9.8h73.7c3.2,0,5.4-3.1,4.4-6.1l-25.1-71.8l9.8-3.4L217.1,174.5L217.1,174.5z M144.4,87.5
		c-10.9,0.3-20.5,7.2-24.1,17.6L90,191.7l-9.8-3.4l29.6-84.9c5.4-15.5,20-26,36.5-26.2c0.2,0,0.4,0,0.7,0l20.4,2.5l-3.6,9.5
		l-18.1-1.6C145.2,87.5,144.8,87.5,144.4,87.5L144.4,87.5z"/>
</g>
</svg>
