<?xml version="1.0" encoding="utf-8"?>
<!-- Generator: Adobe Illustrator 23.0.0, SVG Export Plug-In . SVG Version: 6.00 Build 0)  -->
<svg version="1.1" id="레이어_1" xmlns="http://www.w3.org/2000/svg" xmlns:xlink="http://www.w3.org/1999/xlink" x="0px"
	 y="0px" viewBox="0 0 256 256" style="enable-background:new 0 0 256 256;" xml:space="preserve">
<style type="text/css">
	.st0{opacity:0.1;}
	.st1{fill:#FFFFFF;}
	.st2{fill:#255FDB;}
	.st3{fill:#4285F4;}
	.st4{fill:#91BFFF;}
	.st5{fill:#C4E1FF;}
	.st6{fill:#F5F5F5;}
	.st7{fill:#FFFFFF;fill-opacity:0.2;}
	.st8{fill:#1A237E;fill-opacity:0.2;}
	.st9{fill:url(#SVGID_1_);fill-opacity:0.1;}
</style>
<g class="st0">
	<g>
		<path d="M132.8,0.5c6.2,0,18.1,0.3,33.3,2.3c23.7,3.1,45.1,11.5,60.8,26.3l0,0C241.6,44.8,250,66.2,253.1,90c3,22.6,2.3,38,2.3,38
			s0.7,15.4-2.3,38c-3.1,23.7-11.5,45.1-26.3,60.9l0,0c-15.7,14.8-37.1,23.1-60.8,26.3c-15.1,2-27,2.3-33.2,2.3
			c-3.1,0-4.7-0.1-4.7-0.1s-1.7,0.1-4.7,0.1c-6.2,0-18.1-0.3-33.2-2.3c-23.7-3.1-45.1-11.5-60.8-26.3l0,0
			C14.4,211.2,6,189.8,2.9,166c-3-22.6-2.3-38-2.3-38s-0.7-15.4,2.3-38C6,66.2,14.4,44.8,29.2,29.1l0,0C44.8,14.3,66.3,5.9,89.9,2.8
			c15.1-2,27-2.3,33.3-2.3c3.1,0,4.7,0.1,4.7,0.1S129.7,0.5,132.8,0.5"/>
	</g>
</g>
<path class="st1" d="M251.7,90.4c-3.1-23.4-11.4-44.6-26-60.1l0,0c-15.6-14.6-36.7-22.9-60.1-26C143.2,1.3,128,2,128,2
	s-15.2-0.7-37.6,2.3C67,7.4,45.8,15.7,30.3,30.3C15.7,45.8,7.5,67,4.3,90.4c-3,22.3-2.2,37.6-2.2,37.6s-0.7,15.2,2.2,37.6
	c3.1,23.4,11.4,44.6,26,60.1l0,0c15.6,14.6,36.7,22.9,60.1,26c22.3,3,37.6,2.2,37.6,2.2s15.2,0.7,37.6-2.2
	c23.4-3.1,44.6-11.4,60.1-26l0,0c14.6-15.6,22.9-36.7,26-60.1c3-22.3,2.2-37.6,2.2-37.6S254.7,112.8,251.7,90.4"/>
<g>
	<g>
		<path class="st2" d="M103.2,144.7c-27.3-36.1-55.3-8.7-48,16.6c18.4,40.2,65.9,57.9,106.1,39.5c13.9-6.3,25.6-16.5,33.9-29.3
			C174.1,191.2,135.8,187.9,103.2,144.7z"/>
		<path class="st3" d="M127.6,119.8C90,62.9,48,93.3,48,128c0,11.5,2.5,22.9,7.3,33.3c-5-23.6,22.1-41.7,47.3-7.9
			c36.6,49.1,72.5,40.5,92.6,18.1c6.5-9.9,10.6-21.1,12.2-32.8v0.2C198.7,165.6,160.6,170,127.6,119.8z"/>
		<path class="st4" d="M153.3,94.4c-27.9-46-63.2-41.8-87.1-17.2C54.4,91.5,48,109.5,48,128c2.5-33.6,43.2-57,80,0
			c32.7,50.8,73.5,37.5,79.3,11v-0.3c0.5-3.6,0.7-7.3,0.6-10.9v-3.6C193.8,134.4,175.1,130.5,153.3,94.4z"/>
		<path class="st5" d="M153.5,102.6c25.5,41,47.5,30.5,54.5,21.7c-0.3-6.1-1.3-12.2-3-18.1c-11.9,0.2-14.7-1.7-26.4-19.6
			c-17.9-27.4-40.4-45.9-79.8-33.2c-12.8,5-24,13.2-32.7,23.8C93.2,52.3,126.4,59.1,153.5,102.6z"/>
		<path class="st6" d="M176.9,90.2c11.7,17.8,18.8,18.8,28.1,16c-12.1-42.6-56.4-67.2-99-55.1c-2.4,0.7-4.8,1.5-7.1,2.4
			C134.1,42.4,159,62.8,176.9,90.2z"/>
	</g>
	<g>
		<path class="st7" d="M128,48.9c44,0,79.7,35.5,80,79.5V128c0-44.2-35.8-80-80-80s-80,35.8-80,80v0.5C48.3,84.5,84,48.9,128,48.9z"
			/>
		<path class="st8" d="M128,207.1c-44,0-79.7-35.5-80-79.5v0.5c0,44.2,35.8,80,80,80s80-35.8,80-80v-0.5
			C207.8,171.6,172,207.1,128,207.1z"/>
	</g>
	
		<radialGradient id="SVGID_1_" cx="1147.7241" cy="-3947.9512" r="0.9031" gradientTransform="matrix(176 0 0 176 -201927.2813 694911.5625)" gradientUnits="userSpaceOnUse">
		<stop  offset="0" style="stop-color:#FFFFFF"/>
		<stop  offset="1" style="stop-color:#FFFFFF;stop-opacity:0"/>
	</radialGradient>
	<circle class="st9" cx="128" cy="128" r="80"/>
</g>
</svg>
