<?xml version="1.0" encoding="utf-8"?>
<!-- Generator: Adobe Illustrator 23.0.0, SVG Export Plug-In . SVG Version: 6.00 Build 0)  -->
<svg version="1.1" id="레이어_1" xmlns="http://www.w3.org/2000/svg" xmlns:xlink="http://www.w3.org/1999/xlink" x="0px"
	 y="0px" viewBox="0 0 256 256" style="enable-background:new 0 0 256 256;" xml:space="preserve">
<style type="text/css">
	.st0{opacity:0.1;}
	.st1{fill:#FFFFFF;}
	.st2{fill:#F4481E;}
	.st3{opacity:0.1;fill:#FFFFFF;enable-background:new    ;}
	.st4{fill:#FFD119;}
	.st5{fill:#FF8C00;}
	.st6{fill:url(#path29_1_);}
	.st7{opacity:0.722;}
	.st8{fill:#808080;}
	.st9{fill:#FAFAFA;}
	.st10{opacity:0.3;fill:#FFFFFF;enable-background:new    ;}
</style>
<g class="st0">
	<g>
		<path d="M132.8,0.5c6.2,0,18.1,0.3,33.3,2.3c23.7,3.1,45.1,11.5,60.8,26.3l0,0C241.6,44.8,250,66.2,253.1,90c3,22.6,2.3,38,2.3,38
			s0.7,15.4-2.3,38c-3.1,23.7-11.5,45.1-26.3,60.9l0,0c-15.7,14.8-37.1,23.1-60.8,26.3c-15.1,2-27,2.3-33.2,2.3
			c-3.1,0-4.7-0.1-4.7-0.1s-1.7,0.1-4.7,0.1c-6.2,0-18.1-0.3-33.2-2.3c-23.7-3.1-45.1-11.5-60.8-26.3l0,0
			C14.4,211.2,6,189.8,2.9,166c-3-22.6-2.3-38-2.3-38s-0.7-15.4,2.3-38C6,66.2,14.4,44.8,29.2,29.1l0,0C44.8,14.3,66.3,5.9,89.9,2.8
			c15.1-2,27-2.3,33.3-2.3c3.1,0,4.7,0.1,4.7,0.1S129.7,0.5,132.8,0.5"/>
	</g>
</g>
<path class="st1" d="M251.7,90.4c-3.1-23.4-11.4-44.6-26-60.1l0,0c-15.6-14.6-36.7-22.9-60.1-26C143.2,1.3,128,2,128,2
	s-15.2-0.7-37.6,2.3C67,7.4,45.8,15.7,30.3,30.3C15.7,45.8,7.5,67,4.3,90.4c-3,22.3-2.2,37.6-2.2,37.6s-0.7,15.2,2.2,37.6
	c3.1,23.4,11.4,44.6,26,60.1l0,0c15.6,14.6,36.7,22.9,60.1,26c22.3,3,37.6,2.2,37.6,2.2s15.2,0.7,37.6-2.2
	c23.4-3.1,44.6-11.4,60.1-26l0,0c14.6-15.6,22.9-36.7,26-60.1c3-22.3,2.2-37.6,2.2-37.6S254.7,112.8,251.7,90.4"/>
<g id="layer1" transform="translate(-84.93125,-125.55004)">
	<path id="path21" class="st2" d="M293.1,244.2l-126.6-72c-5.4-3-10.3-2.8-13.2,0.1c-2.1,2-3.2,5.2-3.2,9.4v143.6
		c0,4.2,1.2,7.4,3.2,9.4c3,2.9,7.8,3.2,13.2,0.1l126.6-72C302.2,257.8,302.2,249.4,293.1,244.2L293.1,244.2z"/>
	<path id="path23" class="st3" d="M293.1,245.1l-126.6-72c-9.1-5.1-16.5-0.9-16.5,9.5v-0.9c0-10.4,7.4-14.7,16.5-9.5l126.6,72
		c4.7,2.7,7,6.3,6.7,9.9C299.6,250.8,297.5,247.6,293.1,245.1L293.1,245.1z"/>
	<path id="path25" class="st4" d="M280.6,270.1c1.5-5.2,2.3-10.8,2.3-16.5c0-33.5-27.2-60.8-60.8-60.8s-60.8,27.2-60.8,60.8
		c0,28.1,19.1,51.7,45,58.7L280.6,270.1z"/>
	<circle id="circle27" class="st5" cx="222.1" cy="253.6" r="38"/>
	
		<linearGradient id="path29_1_" gradientUnits="userSpaceOnUse" x1="239.3423" y1="1021.4185" x2="258.2334" y2="1054.1401" gradientTransform="matrix(0.75 0 0 0.75 50.4828 -498.7594)">
		<stop  offset="0" style="stop-color:#991700;stop-opacity:0"/>
		<stop  offset="1" style="stop-color:#991700;stop-opacity:0.1"/>
	</linearGradient>
	<path id="path29" class="st6" d="M222.1,192.8c-33.5,0-60.8,27.2-60.8,60.8c0,28.1,19.1,51.7,45,58.7l74.2-42.2
		c1.5-5.2,2.3-10.8,2.3-16.5C282.8,220.1,255.6,192.8,222.1,192.8z"/>
	<g id="g33" transform="matrix(0.26458333,0,0,0.26458333,85.325876,125.9572)" class="st7">
		<path id="path31" class="st8" d="M522.2,412.4v88.3c-5-2.9-10.8-4.7-16.9-4.7c-18.7,0-33.4,15.1-33.4,33.4
			c0,18.7,15.1,33.4,33.4,33.4c18.7,0,34.8-15.1,34.8-33.4v-81.1h32.3v-35.9H522.2z"/>
	</g>
	<path id="path35" class="st9" d="M222.1,233.7V257c-1.3-0.8-2.8-1.2-4.5-1.2c-4.9,0-8.8,4-8.8,8.8c0,4.9,4,8.8,8.8,8.8
		c4.9,0,9.2-4,9.2-8.8v-21.5h8.5v-9.5L222.1,233.7z"/>
	<path id="path37" class="st10" d="M222.1,193.8c33.4,0,60.6,27,60.8,60.4v-0.6c0-33.5-27.2-60.8-60.8-60.8s-60.8,27.2-60.8,60.8
		v0.5C161.6,220.7,188.7,193.8,222.1,193.8L222.1,193.8z"/>
</g>
</svg>
