<?xml version="1.0" encoding="utf-8"?>
<!-- Generator: Adobe Illustrator 23.0.0, SVG Export Plug-In . SVG Version: 6.00 Build 0)  -->
<svg version="1.1" id="레이어_1" xmlns="http://www.w3.org/2000/svg" xmlns:xlink="http://www.w3.org/1999/xlink" x="0px"
	 y="0px" viewBox="0 0 256 256" style="enable-background:new 0 0 256 256;" xml:space="preserve">
<style type="text/css">
	.st0{opacity:0.1;}
	.st1{fill:#FFFFFF;}
	.st2{clip-path:url(#SVGID_2_);fill:#FBBC05;}
	.st3{clip-path:url(#SVGID_4_);fill:#EA4335;}
	.st4{clip-path:url(#SVGID_6_);fill:#34A853;}
	.st5{clip-path:url(#SVGID_8_);fill:#4285F4;}
</style>
<g class="st0">
	<g>
		<path d="M132.8,0.5c6.2,0,18.1,0.3,33.3,2.3c23.7,3.1,45.1,11.5,60.8,26.3l0,0C241.6,44.8,250,66.2,253.1,90c3,22.6,2.3,38,2.3,38
			s0.7,15.4-2.3,38c-3.1,23.7-11.5,45.1-26.3,60.9l0,0c-15.7,14.8-37.1,23.1-60.8,26.3c-15.1,2-27,2.3-33.2,2.3
			c-3.1,0-4.7-0.1-4.7-0.1s-1.7,0.1-4.7,0.1c-6.2,0-18.1-0.3-33.2-2.3c-23.7-3.1-45.1-11.5-60.8-26.3l0,0
			C14.4,211.2,6,189.8,2.9,166c-3-22.6-2.3-38-2.3-38s-0.7-15.4,2.3-38C6,66.2,14.4,44.8,29.2,29.1l0,0C44.8,14.3,66.3,5.9,89.9,2.8
			c15.1-2,27-2.3,33.3-2.3c3.1,0,4.7,0.1,4.7,0.1S129.7,0.5,132.8,0.5"/>
	</g>
</g>
<path class="st1" d="M251.7,90.4c-3.1-23.4-11.4-44.6-26-60.1l0,0c-15.6-14.6-36.7-22.9-60.1-26C143.2,1.3,128,2,128,2
	s-15.2-0.7-37.6,2.3C67,7.4,45.8,15.7,30.3,30.3C15.7,45.8,7.5,67,4.3,90.4c-3,22.3-2.2,37.6-2.2,37.6s-0.7,15.2,2.2,37.6
	c3.1,23.4,11.4,44.6,26,60.1l0,0c15.6,14.6,36.7,22.9,60.1,26c22.3,3,37.6,2.2,37.6,2.2s15.2,0.7,37.6-2.2
	c23.4-3.1,44.6-11.4,60.1-26l0,0c14.6-15.6,22.9-36.7,26-60.1c3-22.3,2.2-37.6,2.2-37.6S254.7,112.8,251.7,90.4"/>
<g>
	<defs>
		<path id="SVGID_1_" d="M206.1,113.1h-76.3v31.6h43.9c-4.1,20.1-21.2,31.6-43.9,31.6c-26.8,0-48.4-21.6-48.4-48.4
			s21.6-48.4,48.4-48.4c11.5,0,22,4.1,30.1,10.8l23.8-23.8c-14.5-12.7-33.1-20.5-54-20.5C84.5,46.1,48,82.6,48,128
			s36.5,81.9,81.9,81.9c40.9,0,78.1-29.8,78.1-81.9C208,123.2,207.3,118,206.1,113.1z"/>
	</defs>
	<clipPath id="SVGID_2_">
		<use xlink:href="#SVGID_1_"  style="overflow:visible;"/>
	</clipPath>
	<path class="st2" d="M40.6,176.4V79.6l63.3,48.4L40.6,176.4z"/>
</g>
<g>
	<defs>
		<path id="SVGID_3_" d="M206.1,113.1h-76.3v31.6h43.9c-4.1,20.1-21.2,31.6-43.9,31.6c-26.8,0-48.4-21.6-48.4-48.4
			s21.6-48.4,48.4-48.4c11.5,0,22,4.1,30.1,10.8l23.8-23.8c-14.5-12.7-33.1-20.5-54-20.5C84.5,46.1,48,82.6,48,128
			s36.5,81.9,81.9,81.9c40.9,0,78.1-29.8,78.1-81.9C208,123.2,207.3,118,206.1,113.1z"/>
	</defs>
	<clipPath id="SVGID_4_">
		<use xlink:href="#SVGID_3_"  style="overflow:visible;"/>
	</clipPath>
	<path class="st3" d="M40.6,79.6l63.3,48.4l26-22.7l89.3-14.5V38.7H40.6V79.6z"/>
</g>
<g>
	<defs>
		<path id="SVGID_5_" d="M206.1,113.1h-76.3v31.6h43.9c-4.1,20.1-21.2,31.6-43.9,31.6c-26.8,0-48.4-21.6-48.4-48.4
			s21.6-48.4,48.4-48.4c11.5,0,22,4.1,30.1,10.8l23.8-23.8c-14.5-12.7-33.1-20.5-54-20.5C84.5,46.1,48,82.6,48,128
			s36.5,81.9,81.9,81.9c40.9,0,78.1-29.8,78.1-81.9C208,123.2,207.3,118,206.1,113.1z"/>
	</defs>
	<clipPath id="SVGID_6_">
		<use xlink:href="#SVGID_5_"  style="overflow:visible;"/>
	</clipPath>
	<path class="st4" d="M40.6,176.4l111.6-85.6l29.4,3.7l37.6-55.8v178.6H40.6V176.4z"/>
</g>
<g>
	<defs>
		<path id="SVGID_7_" d="M206.1,113.1h-76.3v31.6h43.9c-4.1,20.1-21.2,31.6-43.9,31.6c-26.8,0-48.4-21.6-48.4-48.4
			s21.6-48.4,48.4-48.4c11.5,0,22,4.1,30.1,10.8l23.8-23.8c-14.5-12.7-33.1-20.5-54-20.5C84.5,46.1,48,82.6,48,128
			s36.5,81.9,81.9,81.9c40.9,0,78.1-29.8,78.1-81.9C208,123.2,207.3,118,206.1,113.1z"/>
	</defs>
	<clipPath id="SVGID_8_">
		<use xlink:href="#SVGID_7_"  style="overflow:visible;"/>
	</clipPath>
	<path class="st5" d="M219.2,217.3L103.8,128l-14.9-11.2l130.2-37.2V217.3z"/>
</g>
</svg>
