<?xml version="1.0" encoding="utf-8"?>
<!-- Generator: Adobe Illustrator 23.0.0, SVG Export Plug-In . SVG Version: 6.00 Build 0)  -->
<!DOCTYPE svg PUBLIC "-//W3C//DTD SVG 1.1//EN" "http://www.w3.org/Graphics/SVG/1.1/DTD/svg11.dtd" [
	<!ENTITY ns_extend "http://ns.adobe.com/Extensibility/1.0/">
	<!ENTITY ns_ai "http://ns.adobe.com/AdobeIllustrator/10.0/">
	<!ENTITY ns_graphs "http://ns.adobe.com/Graphs/1.0/">
	<!ENTITY ns_vars "http://ns.adobe.com/Variables/1.0/">
	<!ENTITY ns_imrep "http://ns.adobe.com/ImageReplacement/1.0/">
	<!ENTITY ns_sfw "http://ns.adobe.com/SaveForWeb/1.0/">
	<!ENTITY ns_custom "http://ns.adobe.com/GenericCustomNamespace/1.0/">
	<!ENTITY ns_adobe_xpath "http://ns.adobe.com/XPath/1.0/">
]>
<svg version="1.1" id="레이어_1" xmlns:x="&ns_extend;" xmlns:i="&ns_ai;" xmlns:graph="&ns_graphs;"
	 xmlns="http://www.w3.org/2000/svg" xmlns:xlink="http://www.w3.org/1999/xlink" x="0px" y="0px" viewBox="0 0 256 256"
	 style="enable-background:new 0 0 256 256;" xml:space="preserve">
<style type="text/css">
	.st0{opacity:0.1;}
	.st1{fill:#28C7DA;}
	.st2{fill-rule:evenodd;clip-rule:evenodd;fill:#FFFFFF;}
</style>
<metadata>
	<sfw  xmlns="&ns_sfw;">
		<slices></slices>
		<sliceSourceBounds  bottomLeftOrigin="true" height="255.1" width="255" x="0.5" y="0.5"></sliceSourceBounds>
	</sfw>
</metadata>
<g class="st0">
	<g>
		<path d="M132.7,0.5c6.2,0,18.1,0.3,33.3,2.3c23.7,3.1,45.1,11.5,60.9,26.3h0C241.6,44.8,250,66.3,253.2,90c3,22.6,2.3,38,2.3,38
			s0.7,15.4-2.3,38c-3.1,23.7-11.5,45.1-26.3,60.9l0,0c-15.7,14.8-37.2,23.2-60.9,26.3c-15.1,2-27.1,2.3-33.3,2.3
			c-3.1,0-4.7-0.1-4.7-0.1s-1.7,0.1-4.7,0.1c-6.2,0-18.1-0.3-33.3-2.3c-23.7-3.1-45.1-11.5-60.9-26.3l0,0
			C14.4,211.2,6,189.7,2.8,166c-3-22.6-2.3-38-2.3-38s-0.7-15.4,2.3-38C6,66.3,14.4,44.8,29.1,29.1h0C44.9,14.3,66.3,5.9,90,2.8
			c15.2-2,27.1-2.3,33.3-2.3c3.1,0,4.7,0.1,4.7,0.1S129.7,0.5,132.7,0.5"/>
	</g>
</g>
<path class="st1" d="M251.7,90.4c-3.1-23.4-11.4-44.6-26-60.1l0,0c-15.6-14.6-36.7-22.9-60.1-26C143.2,1.3,128,2,128,2
	s-15.2-0.7-37.6,2.3C67,7.4,45.8,15.7,30.3,30.3C15.7,45.8,7.5,67,4.3,90.4c-3,22.3-2.2,37.6-2.2,37.6s-0.7,15.2,2.2,37.6
	c3.1,23.4,11.4,44.6,26,60.1l0,0c15.6,14.6,36.7,22.9,60.1,26c22.3,3,37.6,2.2,37.6,2.2s15.2,0.7,37.6-2.2
	c23.4-3.1,44.6-11.4,60.1-26l0,0c14.6-15.6,22.9-36.7,26-60.1c3-22.3,2.2-37.6,2.2-37.6S254.7,112.8,251.7,90.4"/>
<g transform="translate(-21 -26)">
	<path class="st2" d="M114.3,127.9l5-10.8l5,10.8H114.3z M123.4,108.6l15.5,33.2l-6.5,3l-4.5-9.7H111l-4.3,9.3l-6.5-3l15.3-32.9
		l1.3-2.7c1-2.2,4.2-2.3,5.3-0.1L123.4,108.6L123.4,108.6z M185.9,165.2h7.2v13.6h8.4v7.2h-8.4v19.4h-7.2V165.2L185.9,165.2z
		 M164.5,191.8c4.3-4,7-9.3,7.8-15l0.1-0.7h-12.7V169h20.7v7.2l-1.6,6.5c-1.2,4.9-3.9,9.3-7.6,12.7l-6.9,6.2l-4.8-6.4l4.3-2.8
		C164.1,192.2,164.3,192,164.5,191.8L164.5,191.8z M204.9,142.7c11.9,0,21.5,9.6,21.5,21.5v50.7c0,5.5-4.4,9.9-9.9,9.9h-76
		c-6.4,0-11.7-5.2-11.7-11.7v-33.5c0-6,2-11.9,5.7-16.7l20.6-26.8c2.2-2.9,3.4-6.5,3.4-10.1V93.3h-77v49.6c0,6.9,5.6,12.5,12.5,12.5
		h23.4v10H91.8c-11.1,0-20.1-9-20.1-20.1v-52c0-5.5,4.4-9.9,9.9-9.9H157c6.4,0,11.5,5.2,11.5,11.5v34.9c0,3.7-1.2,7.2-3.4,10.1
		l-20.6,26.9c-3.7,4.8-5.6,10.6-5.6,16.7v31.4h77.7v-49c0-7.3-5.9-13.2-13.2-13.2h-21v-10L204.9,142.7L204.9,142.7z"/>
</g>
</svg>
