<?xml version="1.0" encoding="utf-8"?>
<!-- Generator: Adobe Illustrator 23.0.0, SVG Export Plug-In . SVG Version: 6.00 Build 0)  -->
<!DOCTYPE svg PUBLIC "-//W3C//DTD SVG 1.1//EN" "http://www.w3.org/Graphics/SVG/1.1/DTD/svg11.dtd" [
	<!ENTITY ns_extend "http://ns.adobe.com/Extensibility/1.0/">
	<!ENTITY ns_ai "http://ns.adobe.com/AdobeIllustrator/10.0/">
	<!ENTITY ns_graphs "http://ns.adobe.com/Graphs/1.0/">
	<!ENTITY ns_vars "http://ns.adobe.com/Variables/1.0/">
	<!ENTITY ns_imrep "http://ns.adobe.com/ImageReplacement/1.0/">
	<!ENTITY ns_sfw "http://ns.adobe.com/SaveForWeb/1.0/">
	<!ENTITY ns_custom "http://ns.adobe.com/GenericCustomNamespace/1.0/">
	<!ENTITY ns_adobe_xpath "http://ns.adobe.com/XPath/1.0/">
]>
<svg version="1.1" id="레이어_1" xmlns:x="&ns_extend;" xmlns:i="&ns_ai;" xmlns:graph="&ns_graphs;"
	 xmlns="http://www.w3.org/2000/svg" xmlns:xlink="http://www.w3.org/1999/xlink" x="0px" y="0px" viewBox="0 0 256 256"
	 style="enable-background:new 0 0 256 256;" xml:space="preserve">
<style type="text/css">
	.st0{opacity:0.1;}
	.st1{fill:#60BAFF;}
	.st2{fill-rule:evenodd;clip-rule:evenodd;fill:#FFFFFF;}
</style>
<metadata>
	<sfw  xmlns="&ns_sfw;">
		<slices></slices>
		<sliceSourceBounds  bottomLeftOrigin="true" height="255.1" width="255" x="0.5" y="0.5"></sliceSourceBounds>
	</sfw>
</metadata>
<g class="st0">
	<g>
		<path d="M132.8,0.5c6.2,0,18.1,0.3,33.3,2.3c23.7,3.1,45.1,11.5,60.8,26.3l0,0C241.6,44.8,250,66.2,253.1,90c3,22.6,2.3,38,2.3,38
			s0.7,15.4-2.3,38c-3.1,23.7-11.5,45.1-26.3,60.9l0,0c-15.7,14.8-37.1,23.1-60.8,26.3c-15.1,2-27,2.3-33.2,2.3
			c-3.1,0-4.7-0.1-4.7-0.1s-1.7,0.1-4.7,0.1c-6.2,0-18.1-0.3-33.2-2.3c-23.7-3.1-45.1-11.5-60.8-26.3l0,0
			C14.4,211.2,6,189.8,2.9,166c-3-22.6-2.3-38-2.3-38s-0.7-15.4,2.3-38C6,66.2,14.4,44.8,29.2,29.1l0,0C44.8,14.3,66.3,5.9,89.9,2.8
			c15.1-2,27-2.3,33.3-2.3c3.1,0,4.7,0.1,4.7,0.1S129.7,0.5,132.8,0.5"/>
	</g>
</g>
<path class="st1" d="M251.7,90.4c-3.1-23.4-11.4-44.6-26-60.1l0,0c-15.6-14.6-36.7-22.9-60.1-26C143.2,1.3,128,2,128,2
	s-15.2-0.7-37.6,2.3C67,7.4,45.8,15.7,30.3,30.3C15.7,45.8,7.5,67,4.3,90.4c-3,22.3-2.2,37.6-2.2,37.6s-0.7,15.2,2.2,37.6
	c3.1,23.4,11.4,44.6,26,60.1l0,0c15.6,14.6,36.7,22.9,60.1,26c22.3,3,37.6,2.2,37.6,2.2s15.2,0.7,37.6-2.2
	c23.4-3.1,44.6-11.4,60.1-26l0,0c14.6-15.6,22.9-36.7,26-60.1c3-22.3,2.2-37.6,2.2-37.6S254.7,112.8,251.7,90.4"/>
<path class="st2" d="M106.5,171.1c-18.8,0-34-15.2-34-34c0-18.8,15.2-34,34-34c18.8,0,34,15.2,34,34h-11.7c0-12.3-10-22.3-22.3-22.3
	c-12.3,0-22.3,10-22.3,22.3c0,12.3,10,22.3,22.3,22.3c0.2,0,0.4,0,0.6,0v0h61.4l0,0c0.2,0,0.5,0,0.7,0c21.5,0,39-17.6,39-39.2
	s-17.4-39.2-39-39.2c-13.3,0-25,6.7-32,16.9L127,89.5c9.4-13,24.6-21.5,41.9-21.5c28.5,0,51.5,23.1,51.5,51.5
	c0,27.8-22,50.4-49.5,51.5v0L106.5,171.1L106.5,171.1z M100,68.6h11.1V92H100V68.6z M100,184.6h11.1V208H100V184.6L100,184.6z
	 M59,133v11.1H35.6V133H59L59,133z M75.8,101l-7.9,7.9L51.4,92.3l7.9-7.9L75.8,101z M75.8,173.1l-16.6,16.6l-7.9-7.9L68,165.2
	L75.8,173.1z"/>
</svg>
