<?xml version="1.0" encoding="utf-8"?>
<!-- Generator: Adobe Illustrator 23.0.0, SVG Export Plug-In . SVG Version: 6.00 Build 0)  -->
<svg version="1.1" id="레이어_1" xmlns="http://www.w3.org/2000/svg" xmlns:xlink="http://www.w3.org/1999/xlink" x="0px"
	 y="0px" viewBox="0 0 256 256" style="enable-background:new 0 0 256 256;" xml:space="preserve">
<style type="text/css">
	.st0{opacity:0.1;}
	.st1{fill:#FFFFFF;}
	.st2{enable-background:new    ;}
	.st3{opacity:0.783;}
	.st4{opacity:0.576;enable-background:new    ;}
	.st5{fill:none;}
	.st6{clip-path:url(#SVGID_2_);}
	.st7{fill:url(#I_1_);}
	.st8{opacity:0.5;fill:url(#SVGID_3_);enable-background:new    ;}
	.st9{fill:url(#SVGID_4_);}
	.st10{opacity:0.217;fill-rule:evenodd;clip-rule:evenodd;fill:url(#SVGID_5_);enable-background:new    ;}
	.st11{opacity:0.276;fill-rule:evenodd;clip-rule:evenodd;fill:url(#SVGID_6_);enable-background:new    ;}
	.st12{opacity:0.453;fill-rule:evenodd;clip-rule:evenodd;fill:url(#SVGID_7_);enable-background:new    ;}
	.st13{opacity:0.512;fill-rule:evenodd;clip-rule:evenodd;fill:url(#SVGID_8_);enable-background:new    ;}
	.st14{opacity:0.286;fill:url(#SVGID_9_);enable-background:new    ;}
	.st15{opacity:0.621;fill:url(#SVGID_10_);enable-background:new    ;}
	.st16{fill-rule:evenodd;clip-rule:evenodd;fill:url(#SVGID_11_);}
	.st17{opacity:0.286;fill:url(#SVGID_12_);enable-background:new    ;}
	.st18{opacity:0.621;fill:url(#SVGID_13_);enable-background:new    ;}
	.st19{fill-rule:evenodd;clip-rule:evenodd;fill:url(#SVGID_14_);}
	.st20{fill-rule:evenodd;clip-rule:evenodd;fill:url(#SVGID_15_);}
	.st21{opacity:0.286;fill:url(#SVGID_16_);enable-background:new    ;}
	.st22{opacity:0.621;fill:url(#SVGID_17_);enable-background:new    ;}
	.st23{opacity:0.616;fill-rule:evenodd;clip-rule:evenodd;fill:url(#SVGID_18_);enable-background:new    ;}
	.st24{fill:none;stroke:url(#SVGID_19_);stroke-width:1.5288;}
	.st25{opacity:0.325;fill-rule:evenodd;clip-rule:evenodd;fill:url(#SVGID_20_);enable-background:new    ;}
	.st26{fill-rule:evenodd;clip-rule:evenodd;fill:url(#SVGID_21_);}
	.st27{opacity:0.478;fill-rule:evenodd;clip-rule:evenodd;fill:url(#SVGID_22_);enable-background:new    ;}
	.st28{opacity:0.586;fill:#FFFFFF;enable-background:new    ;}
	.st29{opacity:0.251;fill:url(#SVGID_23_);enable-background:new    ;}
	.st30{opacity:0.363;fill:url(#SVGID_24_);enable-background:new    ;}
</style>
<g class="st0">
	<g>
		<path d="M132.7,0.5c6.2,0,18.1,0.3,33.3,2.3c23.7,3.1,45.1,11.5,60.9,26.3h0C241.6,44.8,250,66.3,253.2,90c3,22.6,2.3,38,2.3,38
			s0.7,15.4-2.3,38c-3.1,23.7-11.5,45.1-26.3,60.9l0,0c-15.7,14.8-37.2,23.2-60.9,26.3c-15.1,2-27.1,2.3-33.3,2.3
			c-3.1,0-4.7-0.1-4.7-0.1s-1.7,0.1-4.7,0.1c-6.2,0-18.1-0.3-33.3-2.3c-23.7-3.1-45.1-11.5-60.9-26.3l0,0
			C14.4,211.2,6,189.7,2.8,166c-3-22.6-2.3-38-2.3-38s-0.7-15.4,2.3-38C6,66.3,14.4,44.8,29.1,29.1h0C44.9,14.3,66.3,5.9,90,2.8
			c15.2-2,27.1-2.3,33.3-2.3c3.1,0,4.7,0.1,4.7,0.1S129.7,0.5,132.7,0.5"/>
	</g>
</g>
<path class="st1" d="M251.7,90.4c-3.1-23.4-11.4-44.6-26-60.1l0,0c-15.6-14.6-36.7-22.9-60.1-26C143.2,1.3,128,2,128,2
	s-15.2-0.7-37.6,2.3C67,7.4,45.8,15.7,30.3,30.3C15.7,45.8,7.5,67,4.3,90.4c-3,22.3-2.2,37.6-2.2,37.6s-0.7,15.2,2.2,37.6
	c3.1,23.4,11.4,44.6,26,60.1l0,0c15.6,14.6,36.7,22.9,60.1,26c22.3,3,37.6,2.2,37.6,2.2s15.2,0.7,37.6-2.2
	c23.4-3.1,44.6-11.4,60.1-26l0,0c14.6-15.6,22.9-36.7,26-60.1c3-22.3,2.2-37.6,2.2-37.6S254.7,112.8,251.7,90.4"/>
<g transform="matrix(.99658 0 0 .99627 .22 -1.6)" class="st2">
	<g transform="translate(0 .49)" class="st3">
		<path d="M113.1,51.3l-62.7,64.3c-23.8,23.8,15.4,21.8,29.5,30.8c6.5,4.3-21,9.7-15.4,15.4c5.5,5.6,33,10.8,38.5,16.3
			c5.5,5.6-11.1,11.6-5.6,17.2c5.3,5.6,18.1,0.3,20.4,13.1c1.7,9.4,23.4,4.7,33.2-3.3c6.1-5.2-10.5-5.2-5-10.8
			c13.7-13.9,25.9-6.2,30.9-19c2.7-6.9-20.7-11.7-14.5-16.1c14.9-10.5,69.7-15.8,44.5-41.1l-65-66.5
			C133.9,43.7,120.6,43.7,113.1,51.3L113.1,51.3z M185.2,175.1c0,3.2,24.8,5,23.4-0.8C206.6,164.6,187.9,165.4,185.2,175.1z
			 M79.3,192c5.6,4.9,14.2-1.1,16.9-7.9C90.8,177,70.5,184.6,79.3,192z M182.1,181.8c-7,6.4,1.2,13.1,8.1,8.7
			C192,189.3,190,183.4,182.1,181.8z"/>
		<path class="st4" d="M113.1,52.8l-62.7,64.3c-23.8,23.8,15.4,21.8,29.5,30.8c6.5,4.3-21,9.7-15.4,15.4c5.5,5.6,33,10.8,38.5,16.3
			c5.5,5.6-11.1,11.6-5.6,17.2c5.3,5.6,18.1,0.3,20.4,13.1c1.7,9.4,23.4,4.7,33.2-3.3c6.1-5.2-10.5-5.2-5-10.8
			c13.7-13.9,25.9-6.2,30.9-19c2.7-6.9-20.7-11.7-14.5-16.1c14.9-10.5,69.7-15.8,44.5-41.1l-65-66.5
			C133.9,45.2,120.6,45.2,113.1,52.8L113.1,52.8z M185.2,176.6c0,3.2,24.8,5,23.4-0.8C206.6,166.1,187.9,166.9,185.2,176.6z
			 M79.3,193.5c5.6,4.9,14.2-1.1,16.9-7.9C90.8,178.5,70.5,186.1,79.3,193.5z M182.1,183.3c-7,6.4,1.2,13.1,8.1,8.7
			C192,190.8,190,184.8,182.1,183.3z"/>
	</g>
	<path d="M113.1,50.3l-62.7,64.3c-23.8,23.8,15.4,21.8,29.5,30.8c6.5,4.3-21,9.7-15.4,15.4c5.5,5.6,33,10.8,38.5,16.3
		c5.5,5.6-11.1,11.6-5.6,17.2c5.3,5.6,18.1,0.3,20.4,13.1c1.7,9.4,23.4,4.7,33.2-3.3c6.1-5.2-10.5-5.2-5-10.8
		c13.7-13.9,25.9-6.2,30.9-19c2.7-6.9-20.7-11.7-14.5-16.1c14.9-10.5,69.7-15.8,44.5-41.1l-65-66.5
		C133.9,42.7,120.6,42.7,113.1,50.3L113.1,50.3z M185.2,174.1c0,3.2,24.8,5,23.4-0.8C206.6,163.6,187.9,164.4,185.2,174.1z
		 M79.3,191c5.6,4.9,14.2-1.1,16.9-7.9C90.8,176,70.5,183.6,79.3,191z M182.1,180.8c-7,6.4,1.2,13.1,8.1,8.7
		C192,188.3,190,182.4,182.1,180.8z"/>
	<path id="J" class="st5" d="M113.1,50.3l-62.7,64.3c-23.8,23.8,15.4,21.8,29.5,30.8c6.5,4.3-21,9.7-15.4,15.4
		c5.5,5.6,33,10.8,38.5,16.3c5.5,5.6-11.1,11.6-5.6,17.2c5.3,5.6,18.1,0.3,20.4,13.1c1.7,9.4,23.4,4.7,33.2-3.3
		c6.1-5.2-10.5-5.2-5-10.8c13.7-13.9,25.9-6.2,30.9-19c2.7-6.9-20.7-11.7-14.5-16.1c14.9-10.5,69.7-15.8,44.5-41.1l-65-66.5
		C133.9,42.7,120.6,42.7,113.1,50.3L113.1,50.3z M185.2,174.1c0,3.2,24.8,5,23.4-0.8C206.6,163.6,187.9,164.4,185.2,174.1z
		 M79.3,191c5.6,4.9,14.2-1.1,16.9-7.9C90.8,176,70.5,183.6,79.3,191z M182.1,180.8c-7,6.4,1.2,13.1,8.1,8.7
		C192,188.3,190,182.4,182.1,180.8z"/>
	<g>
		<defs>
			<path id="SVGID_1_" d="M113.3,51.1l-62.1,63.7c-23.5,23.5,15.2,21.6,29.3,30.5c6.5,4.2-20.8,9.7-15.2,15.2
				c5.4,5.6,32.7,10.7,38.2,16.1c5.4,5.6-11,11.5-5.6,17c5.3,5.6,17.9,0.3,20.2,13c1.7,9.4,23.2,4.7,32.9-3.3c6-5.1-10.4-5.1-5-10.7
				c13.6-13.7,25.6-6.2,30.6-18.9c2.7-6.8-20.5-11.6-14.3-16c14.8-10.4,69.1-15.7,44-40.7l-64.4-65.9
				C133.8,43.5,120.7,43.5,113.3,51.1L113.3,51.1z M98.4,148.7c1.4,0,46.5,6,29.1,10.7C120.8,161.2,90.4,148.7,98.4,148.7z
				 M184.6,173.7c0,3.2,24.6,5,23.2-0.8C205.9,163.3,187.4,164,184.6,173.7z M79.8,190.4c5.6,4.8,14-1.1,16.7-7.8
				C91.1,175.5,71.1,183.1,79.8,190.4z M181.6,180.3c-6.9,6.3,1.2,13,8,8.6C191.4,187.7,189.5,181.8,181.6,180.3z"/>
		</defs>
		<clipPath id="SVGID_2_">
			<use xlink:href="#SVGID_1_"  style="overflow:visible;"/>
		</clipPath>
		<g transform="matrix(.99054 0 0 .99054 .61 .6)" class="st6">
			
				<linearGradient id="I_1_" gradientUnits="userSpaceOnUse" x1="182.818" y1="166.9794" x2="149.1358" y2="136.5254" gradientTransform="matrix(0.9872 0 0 -0.9868 2.3362 257.308)">
				<stop  offset="0" style="stop-color:#C0CDF9"/>
				<stop  offset="1" style="stop-color:#07092D;stop-opacity:0.288"/>
			</linearGradient>
			<path id="I" class="st7" d="M113.3,51.1l-62.1,63.7c-23.5,23.5,15.2,21.6,29.3,30.5c6.5,4.2-20.8,9.7-15.2,15.2
				c5.4,5.6,32.7,10.7,38.2,16.1c5.4,5.6-11,11.5-5.6,17c5.3,5.6,17.9,0.3,20.2,13c1.7,9.4,23.2,4.7,32.9-3.3c6-5.1-10.4-5.1-5-10.7
				c13.6-13.7,25.6-6.2,30.6-18.9c2.7-6.8-20.5-11.6-14.3-16c14.8-10.4,69.1-15.7,44-40.7l-64.4-65.9
				C133.8,43.5,120.7,43.5,113.3,51.1L113.3,51.1z M98.4,148.7c1.4,0,46.5,6,29.1,10.7C120.8,161.2,90.4,148.7,98.4,148.7z
				 M184.6,173.7c0,3.2,24.6,5,23.2-0.8C205.9,163.3,187.4,164,184.6,173.7z M79.8,190.4c5.6,4.8,14-1.1,16.7-7.8
				C91.1,175.5,71.1,183.1,79.8,190.4z M181.6,180.3c-6.9,6.3,1.2,13,8,8.6C191.4,187.7,189.5,181.8,181.6,180.3z"/>
		</g>
	</g>
	
		<linearGradient id="SVGID_3_" gradientUnits="userSpaceOnUse" x1="84.201" y1="177.8426" x2="122.6188" y2="139.4248" gradientTransform="matrix(0.9966 0 0 -0.9963 0.6215 258.0381)">
		<stop  offset="0" style="stop-color:#FFFFFF"/>
		<stop  offset="1" style="stop-color:#FFFFFF;stop-opacity:0"/>
	</linearGradient>
	<path class="st8" d="M56,118.2c-17.1,16.9,12.9,12.1,36,21.2l47.6-83.7c-7.2-7.4-16.4-6.8-23.1,0L56,118.2z"/>
	
		<linearGradient id="SVGID_4_" gradientUnits="userSpaceOnUse" x1="109.7737" y1="184.8531" x2="155.4548" y2="139.172" gradientTransform="matrix(0.9966 0 0 -0.9963 0.6215 258.0381)">
		<stop  offset="0" style="stop-color:#FFFFFF"/>
		<stop  offset="1" style="stop-color:#FFFFFF;stop-opacity:0"/>
	</linearGradient>
	<path class="st9" d="M138.1,54.9l24.8,25.3c2.3,2.3,2.3,7,0.9,8.4l-12.3-10l-2.4,14.8l-10.2-5.5l-16.6,10.5l-5.5-22.1L108,95.4
		l-22.1-0.2c-4.3,0-3.7-4.4,0.8-8.8c8.7-9.6,25.6-25.9,30.9-31.5C123,49.3,132.6,49.4,138.1,54.9z"/>
	
		<radialGradient id="SVGID_5_" cx="155.6907" cy="-70.8919" r="49.3356" gradientTransform="matrix(0.7827 0 0 -0.5237 -22.5499 167.9093)" gradientUnits="userSpaceOnUse">
		<stop  offset="0" style="stop-color:#FFFFFF"/>
		<stop  offset="1" style="stop-color:#FFFFFF;stop-opacity:0"/>
	</radialGradient>
	<path class="st10" d="M104.1,174.3c0,0,2.7,4.1,2.4,6c-0.5,3.8-8.7,5.7-6.9,9.1c1.8,3.3,8.2,1.4,13.7,4.9
		c5.4,3.5,3.9,10.6,7.9,12.3c7.6,3.5,27.7-6,26.7-5.8c-1,0.2-19.8,4.1-24,0.7c-4.8-3.9-6.2-6.6-9.8-8.9c-3.3-2.2-8-3-9.1-4.8
		c-1.1-1.8,2.2-4.1,2.4-7.5C107.4,178.3,104.1,174.3,104.1,174.3z"/>
	
		<radialGradient id="SVGID_6_" cx="196.5513" cy="-81.1221" r="49.3356" gradientTransform="matrix(0.9986 0 0 -0.6682 -76.5587 151.7519)" gradientUnits="userSpaceOnUse">
		<stop  offset="0" style="stop-color:#FFFFFF"/>
		<stop  offset="1" style="stop-color:#FFFFFF;stop-opacity:0"/>
	</radialGradient>
	<path class="st11" d="M104.1,174.3c0,0,2.7,4.1,2.4,6c-0.5,3.8-8.7,5.7-6.9,9.1c1.8,3.3,8.2,1.4,13.7,4.9
		c5.4,3.5,3.9,10.6,7.9,12.3c7.6,3.5,27.7-6,26.7-5.8c-33.3,0.1-27.1-8.5-40-14.1c-1.9-0.8-0.8-3-0.6-6.5
		C107.4,178.3,104.1,174.3,104.1,174.3z"/>
	
		<radialGradient id="SVGID_7_" cx="268.7408" cy="176.9199" r="55.2202" gradientTransform="matrix(0.4985 0 0 -0.211 48.5173 183.4281)" gradientUnits="userSpaceOnUse">
		<stop  offset="0" style="stop-color:#FFFFFF"/>
		<stop  offset="1" style="stop-color:#FFFFFF;stop-opacity:0"/>
	</radialGradient>
	<path class="st12" d="M160.7,156.8c29.9-11,39.5-12.5,49.4-22.4c-11.4,9.6-35.6,14.8-55.2,23.4L160.7,156.8z"/>
	
		<radialGradient id="SVGID_8_" cx="280.4699" cy="157.5068" r="55.2204" gradientTransform="matrix(0.4985 0 0 -0.211 48.5173 182.5498)" gradientUnits="userSpaceOnUse">
		<stop  offset="0" style="stop-color:#FFFFFF"/>
		<stop  offset="1" style="stop-color:#FFFFFF;stop-opacity:0"/>
	</radialGradient>
	<path class="st13" d="M160.7,155.4c49.3-17.5,40.9-17.4,49.4-22.4c-15.7,6-44.9,6.6-55.2,23.4L160.7,155.4z"/>
	
		<linearGradient id="SVGID_9_" gradientUnits="userSpaceOnUse" x1="292.0089" y1="20.6183" x2="292.1916" y2="11.0101" gradientTransform="matrix(0.5278 0 0 -0.5277 43.169 177.1168)">
		<stop  offset="0" style="stop-color:#FFFFFF"/>
		<stop  offset="1" style="stop-color:#FFFFFF;stop-opacity:0"/>
	</linearGradient>
	<path class="st14" d="M203.8,169.3c0,1.1-2.9,2-6.4,2s-6.4-0.9-6.4-2c0-1.1,2.9-2,6.4-2S203.8,168.2,203.8,169.3z"/>
	
		<linearGradient id="SVGID_10_" gradientUnits="userSpaceOnUse" x1="306.4701" y1="-20.0082" x2="306.4701" y2="-26.7843" gradientTransform="matrix(0.7107 0 0 -1.1365 -20.4601 142.8717)">
		<stop  offset="0" style="stop-color:#FFFFFF"/>
		<stop  offset="1" style="stop-color:#FFFFFF;stop-opacity:0"/>
	</linearGradient>
	<path class="st15" d="M206,171.6c0,2.3-3.9,4.2-8.6,4.2c-4.8,0-8.6-1.9-8.6-4.2s3.9-4.2,8.6-4.2C202.1,167.4,206,169.3,206,171.6z"
		/>
	
		<radialGradient id="SVGID_11_" cx="297.8108" cy="374.611" r="22.7226" gradientTransform="matrix(0.4985 0 0 -7.363257e-02 48.5173 202.4075)" gradientUnits="userSpaceOnUse">
		<stop  offset="0" style="stop-color:#FFFFFF"/>
		<stop  offset="1" style="stop-color:#FFFFFF;stop-opacity:0"/>
	</radialGradient>
	<path class="st16" d="M185.6,174c3,2.8,20,4.3,22.7-0.8C202.9,177,190.8,175.6,185.6,174z"/>
	
		<linearGradient id="SVGID_12_" gradientUnits="userSpaceOnUse" x1="280.8625" y1="33.2319" x2="281.0453" y2="23.6237" gradientTransform="matrix(0.2036 -0.1032 -0.2386 -0.4706 132.9757 226.2412)">
		<stop  offset="0" style="stop-color:#FFFFFF"/>
		<stop  offset="1" style="stop-color:#FFFFFF;stop-opacity:0"/>
	</linearGradient>
	<path class="st17" d="M185.7,183.3c0.6,1.2,0.2,2.7-0.9,3.2c-1.1,0.6-2.5,0-3.1-1.2c-0.6-1.2-0.2-2.7,0.9-3.2
		S185,182.1,185.7,183.3z"/>
	
		<linearGradient id="SVGID_13_" gradientUnits="userSpaceOnUse" x1="297.9684" y1="-13.7802" x2="297.9684" y2="-20.5562" gradientTransform="matrix(0.2741 -0.139 -0.514 -1.0137 92.4674 207.4781)">
		<stop  offset="0" style="stop-color:#FFFFFF"/>
		<stop  offset="1" style="stop-color:#FFFFFF;stop-opacity:0"/>
	</linearGradient>
	<path class="st18" d="M186.9,183.9c0.9,1.8,0.4,4-1.3,4.8c-1.6,0.8-3.7,0-4.6-1.8c-0.9-1.8-0.4-4,1.3-4.8
		C183.9,181.2,185.9,182,186.9,183.9z"/>
	
		<radialGradient id="SVGID_14_" cx="285.3925" cy="434.1308" r="22.7169" gradientTransform="matrix(0.1922 -9.747217e-02 -3.329835e-02 -6.567360e-02 145.5768 245.6634)" gradientUnits="userSpaceOnUse">
		<stop  offset="0" style="stop-color:#FFFFFF"/>
		<stop  offset="1" style="stop-color:#FFFFFF;stop-opacity:0"/>
	</radialGradient>
	<path class="st19" d="M181.5,189c2.4,1.9,11.6,2.2,8.1-3.4C190.5,190,184.2,189.5,181.5,189z"/>
	
		<radialGradient id="SVGID_15_" cx="74.0053" cy="129.8449" r="36.6792" gradientTransform="matrix(0.4985 0 0 -0.2029 48.5173 191.5873)" gradientUnits="userSpaceOnUse">
		<stop  offset="0" style="stop-color:#FFFFFF;stop-opacity:0.33"/>
		<stop  offset="1" style="stop-color:#FFFFFF;stop-opacity:0"/>
	</radialGradient>
	<path class="st20" d="M68,160.2c0-0.5,31.3,9.5,36.7,14.9c-4.4-4.3-26.7-14.2-30.1-14.3C71.1,160.7,68.4,160.4,68,160.2z"/>
	
		<linearGradient id="SVGID_16_" gradientUnits="userSpaceOnUse" x1="234.8427" y1="71.2876" x2="235.0254" y2="61.6793" gradientTransform="matrix(0.464 -0.1019 -0.1234 -0.3672 -15.0779 230.932)">
		<stop  offset="0" style="stop-color:#FFFFFF"/>
		<stop  offset="1" style="stop-color:#FFFFFF;stop-opacity:0"/>
	</linearGradient>
	<path class="st21" d="M91.5,181.7c0.3,0.8-2.1,1.9-5.2,2.6s-5.8,0.6-6.1-0.1c-0.3-0.8,2.1-1.9,5.2-2.6
		C88.5,180.9,91.2,181,91.5,181.7z"/>
	
		<linearGradient id="SVGID_17_" gradientUnits="userSpaceOnUse" x1="264.0207" y1="3.5123" x2="264.0207" y2="-3.2638" gradientTransform="matrix(0.6247 -0.1372 -0.2658 -0.7909 -79.0056 219.3852)">
		<stop  offset="0" style="stop-color:#FFFFFF"/>
		<stop  offset="1" style="stop-color:#FFFFFF;stop-opacity:0"/>
	</linearGradient>
	<path class="st22" d="M94,182.9c0.5,1.6-2.4,3.7-6.6,4.6s-8,0.3-8.6-1.3c-0.5-1.6,2.4-3.7,6.6-4.6S93.4,181.3,94,182.9z"/>
	
		<radialGradient id="SVGID_18_" cx="114.8977" cy="96.1992" r="16.8805" gradientTransform="matrix(0.5908 -0.1637 -6.122840e-02 -0.221 23.8959 231.3734)" gradientUnits="userSpaceOnUse">
		<stop  offset="0" style="stop-color:#FFFFFF"/>
		<stop  offset="1" style="stop-color:#FFFFFF;stop-opacity:0"/>
	</radialGradient>
	<path class="st23" d="M78,186.8c0,0,1.7,4.6,6.4,4.8c4.7,0.2,10.1-5.7,10.5-7.8c-0.8,1.8-5.3,7.3-11.1,7.2
		C80.4,191,78,186.8,78,186.8z"/>
	
		<radialGradient id="SVGID_19_" cx="156.3936" cy="166.2846" r="88.2438" gradientTransform="matrix(1.6209 0 0 -1.5948 -118.5928 329.9174)" gradientUnits="userSpaceOnUse">
		<stop  offset="0" style="stop-color:#FFFFFF"/>
		<stop  offset="1" style="stop-color:#FFFFFF;stop-opacity:0"/>
	</radialGradient>
	<path class="st24" d="M127.3,46.9c-4.7,0-9.3,1.7-12.6,5L52,116.2c-5.7,5.7-7.1,9.5-6.8,11.6c0.2,1.1,0.7,2,1.8,3s2.8,1.9,4.8,2.8
		c4,1.7,9.5,3.1,14.8,4.5s10.6,3,14.5,5.5c0.6,0.4,1.2,0.9,1.6,1.6s0.5,1.6,0.4,2.4c-0.3,1.5-1.3,2.4-2.2,3.1
		c-1.9,1.5-4.6,2.7-7.3,4s-5.4,2.6-6.7,3.7c-0.7,0.5-0.9,1-0.9,1c0,0-0.2-0.4,0.1-0.1c0.8,0.9,3.5,2.3,6.8,3.7
		c3.3,1.3,7.4,2.7,11.6,4s8.3,2.7,11.8,4c3.5,1.4,6.4,2.7,8.3,4.6c0.9,1,1.6,2.2,1.8,3.4c0.1,1.2-0.2,2.4-0.7,3.4
		c-0.9,2-2.5,3.5-3.9,4.9c-1.4,1.4-2.6,2.8-3.1,3.8c-0.2,0.5-0.3,0.8-0.2,1c0,0.2,0.1,0.4,0.5,0.8c0,0,0,0,0,0
		c1.8,1.9,5.8,2.2,10.2,3.2c2.2,0.5,4.6,1.3,6.6,3c2,1.7,3.5,4.4,4.1,7.9c0.3,1.5,1.1,2.3,3,2.9c1.9,0.6,4.9,0.7,8.1,0.2
		c6.5-0.9,14.1-4.1,18.5-7.8c0.3-0.2,0.2-0.2,0.3-0.3c-0.3-0.2-1-0.7-2.1-1.2c-1.4-0.7-3-1.3-4.2-2.9c-0.6-0.8-1-2-0.9-3.2
		c0.2-1.2,0.8-2.2,1.7-3.1c7.2-7.3,14.3-9.1,19.7-10.5c2.7-0.7,4.9-1.4,6.6-2.4s3-2.5,4.1-5.4c0.1-0.3,0.1-0.4,0-0.8
		c-0.2-0.4-0.6-0.9-1.3-1.6c-1.4-1.2-3.8-2.6-6.2-3.9s-4.7-2.5-6.3-4.1c-0.8-0.8-1.7-1.8-1.8-3.2c-0.1-1.5,0.9-2.8,2-3.6
		c4.2-2.9,10.5-5.2,17.4-7.6c6.9-2.4,14.3-4.8,20.3-7.7c6-2.8,10.4-6.1,11.8-9.3c0.7-1.6,0.8-3.3,0.1-5.4c-0.7-2.1-2.4-4.8-5.4-7.8
		l-65-66.5c0,0,0,0,0,0C136.8,48.6,132,46.9,127.3,46.9L127.3,46.9z M197.3,168.7c-4,0.1-7.7,2-9.3,4.9c0.4,0.2,0.9,0.4,1.6,0.5
		c2.1,0.5,5,0.8,7.9,0.9c2.9,0.1,5.8-0.2,7.5-0.7c0.8-0.2,1.2-0.4,1.4-0.6c-0.4-1.7-1.3-2.8-2.9-3.7
		C201.8,169.1,199.6,168.6,197.3,168.7z M89.9,182.5c-3.2-0.2-7.2,1-9.1,2.6c-1,0.8-1.4,1.5-1.4,2c0,0.5,0.1,1.1,1.4,2.2
		c0,0,0,0,0,0c2.1,1.8,4.4,1.6,7,0.1c2.2-1.2,4.2-3.5,5.5-5.9C92.5,183.1,91.4,182.6,89.9,182.5z M182.8,183.4
		c-0.7,0.9-1.1,1.7-1.1,2.2c-0.1,0.8,0.2,1.4,0.8,2c1.1,1.1,3.6,1.5,6,0.2c0-0.3-0.1-0.7-0.5-1.3
		C187.2,185.4,185.4,184.2,182.8,183.4z"/>
	
		<linearGradient id="SVGID_20_" gradientUnits="userSpaceOnUse" x1="82.6866" y1="22.8606" x2="171.0034" y2="-0.4977" gradientTransform="matrix(0.4866 0 0 -0.4865 54.5667 178.3944)">
		<stop  offset="0" style="stop-color:#FFFFFF"/>
		<stop  offset="1" style="stop-color:#FFFFFF;stop-opacity:0"/>
	</linearGradient>
	<path class="st25" d="M92.9,147.5c-3.8,1.1-16.1,5.8-14.3,9.3c1.7,3.4,30.2,4.8,34.6,14.9c1.9,4.4-4.4,7.7-2.8,12.3
		c1.2,3.5,10.7,12.3,16.7,16.4c4.7,3.3,10.9-2.6,8.4-7.5c-4-7.8,13.7-17.2,21.7-21.6c4.7-2.5-9.7-14.9-9.7-14.9L92.9,147.5z"/>
	
		<linearGradient id="SVGID_21_" gradientUnits="userSpaceOnUse" x1="113.4063" y1="111.2462" x2="108.5641" y2="100.1457" gradientTransform="matrix(0.9966 0 0 -0.9963 0.6215 258.0381)">
		<stop  offset="0" style="stop-color:#EEEEEC"/>
		<stop  offset="1" style="stop-color:#EEEEEC;stop-opacity:0"/>
	</linearGradient>
	<path class="st26" d="M94.3,150.9c3.4,2.5,10.1,1,14.1,2.8c9.7,4.4,21.6,9.2,19.4,0.6l-2.5,2l0-3.9l-5.7,1.4c0,0-4.4-3.6-6.5-4.7
		c-0.4-0.2-2.6,2-2.6,2l-0.4-2.4c-2.8-0.3-5.6-0.4-8.1-0.4C96.2,148.4,92.2,149.3,94.3,150.9L94.3,150.9z"/>
	
		<radialGradient id="SVGID_22_" cx="235.5688" cy="-35.3217" r="36.2278" gradientTransform="matrix(0.6212 0 0 -0.7892 10.3448 151.2358)" gradientUnits="userSpaceOnUse">
		<stop  offset="0" style="stop-color:#FFFFFF"/>
		<stop  offset="1" style="stop-color:#FFFFFF;stop-opacity:0"/>
	</radialGradient>
	<path class="st27" d="M157.8,158.8c-1.3,4.8,16.1,11.4,14.8,14.7c-2.9,7.3-18.6,2.3-30.6,17.7c-1.7,2.2,2.4,10,1.9,9.1
		s-4.8-7.4-3.7-10.6c3.4-10,36.4-13.7,30.4-18.5C167.1,168.4,154.5,160.9,157.8,158.8z"/>
	<path class="st28" d="M196.9,168.7c0,0.4-0.9,0.8-1.9,0.8s-1.9-0.4-1.9-0.8c0-0.4,0.9-0.8,1.9-0.8S196.9,168.3,196.9,168.7z"/>
	<path class="st28" d="M184.2,183.3c0,0.4-0.5,0.8-1.2,0.8s-1.2-0.4-1.2-0.8s0.5-0.8,1.2-0.8S184.2,182.9,184.2,183.3z"/>
	<path class="st28" d="M87.8,182.6c0,0.4-1,0.8-2.1,0.8c-1.2,0-2.1-0.4-2.1-0.8s1-0.8,2.1-0.8C86.9,181.8,87.8,182.2,87.8,182.6z"/>
	
		<linearGradient id="SVGID_23_" gradientUnits="userSpaceOnUse" x1="76.3975" y1="106.2708" x2="83.1887" y2="100.8805" gradientTransform="matrix(0.9966 0 0 -0.9963 0.6215 258.0381)">
		<stop  offset="0" style="stop-color:#FFFFFF"/>
		<stop  offset="1" style="stop-color:#FFFFFF;stop-opacity:0"/>
	</linearGradient>
	<path class="st29" d="M86.6,147.8c-10.9,6.7-27.8,9.2-9.3,13.7C75.1,156.6,82.1,157.1,86.6,147.8z"/>
	
		<linearGradient id="SVGID_24_" gradientUnits="userSpaceOnUse" x1="104.7827" y1="87.4155" x2="63.5022" y2="198.5729" gradientTransform="matrix(0.4866 0 0 -0.4865 118.1267 219.0944)">
		<stop  offset="0" style="stop-color:#729FCF"/>
		<stop  offset="1" style="stop-color:#729FCF;stop-opacity:0"/>
	</linearGradient>
	<path class="st30" d="M125.3,209.2c0,0,16.8-1.6,20.7-6.4c2.3-2.8-9-6.1-6.6-8.9c9.2-10.4,16.9-10,27.5-14.4
		c10.6-4.4,6.7-6.5,3.3-8.4c-5.9-3.3-19-6.8-14.7-14.6c4.4-7.9,42.6-18.8,42.6-18.8c11.6-4,10.1-11.1,4.5-17.1l-34.2-34
		c0,0,1.7,32.3-5.2,46.1c-8.5,17.1-53.9,36.2-34.9,38.3c6.7,0.7,9.9,3,12.6,8.2C146.5,189.7,125.3,209.2,125.3,209.2L125.3,209.2z"
		/>
</g>
</svg>
