<?xml version="1.0" encoding="utf-8"?>
<!-- Generator: Adobe Illustrator 23.0.0, SVG Export Plug-In . SVG Version: 6.00 Build 0)  -->
<!DOCTYPE svg PUBLIC "-//W3C//DTD SVG 1.1//EN" "http://www.w3.org/Graphics/SVG/1.1/DTD/svg11.dtd" [
	<!ENTITY ns_extend "http://ns.adobe.com/Extensibility/1.0/">
	<!ENTITY ns_ai "http://ns.adobe.com/AdobeIllustrator/10.0/">
	<!ENTITY ns_graphs "http://ns.adobe.com/Graphs/1.0/">
	<!ENTITY ns_vars "http://ns.adobe.com/Variables/1.0/">
	<!ENTITY ns_imrep "http://ns.adobe.com/ImageReplacement/1.0/">
	<!ENTITY ns_sfw "http://ns.adobe.com/SaveForWeb/1.0/">
	<!ENTITY ns_custom "http://ns.adobe.com/GenericCustomNamespace/1.0/">
	<!ENTITY ns_adobe_xpath "http://ns.adobe.com/XPath/1.0/">
]>
<svg version="1.1" id="레이어_1" xmlns:x="&ns_extend;" xmlns:i="&ns_ai;" xmlns:graph="&ns_graphs;"
	 xmlns="http://www.w3.org/2000/svg" xmlns:xlink="http://www.w3.org/1999/xlink" x="0px" y="0px" viewBox="0 0 256 256"
	 style="enable-background:new 0 0 256 256;" xml:space="preserve">
<style type="text/css">
	.st0{opacity:0.1;}
	.st1{fill:#62FFFC;}
	.st2{fill:url(#SVGID_1_);}
	.st3{fill:url(#SVGID_2_);}
	.st4{fill:#FFFFFF;}
</style>
<metadata>
	<sfw  xmlns="&ns_sfw;">
		<slices></slices>
		<sliceSourceBounds  bottomLeftOrigin="true" height="255" width="254.9" x="0.5" y="0.5"></sliceSourceBounds>
	</sfw>
</metadata>
<g class="st0">
	<g>
		<path d="M132.8,0.5c6.2,0,18.1,0.3,33.3,2.3c23.7,3.1,45.1,11.5,60.8,26.3l0,0C241.6,44.8,250,66.2,253.1,90c3,22.6,2.3,38,2.3,38
			s0.7,15.4-2.3,38c-3.1,23.7-11.5,45.1-26.3,60.9l0,0c-15.7,14.8-37.1,23.1-60.8,26.3c-15.1,2-27,2.3-33.2,2.3
			c-3.1,0-4.7-0.1-4.7-0.1s-1.7,0.1-4.7,0.1c-6.2,0-18.1-0.3-33.2-2.3c-23.7-3.1-45.1-11.5-60.8-26.3l0,0
			C14.4,211.2,6,189.8,2.9,166c-3-22.6-2.3-38-2.3-38s-0.7-15.4,2.3-38C6,66.2,14.4,44.8,29.2,29.1l0,0C44.8,14.3,66.3,5.9,89.9,2.8
			c15.1-2,27-2.3,33.3-2.3c3.1,0,4.7,0.1,4.7,0.1S129.7,0.5,132.8,0.5"/>
	</g>
</g>
<path class="st1" d="M251.7,90.4c-3.1-23.4-11.4-44.6-26-60.1l0,0c-15.6-14.6-36.7-22.9-60.1-26C143.2,1.3,128,2,128,2
	s-15.2-0.7-37.6,2.3C67,7.4,45.8,15.7,30.3,30.3C15.7,45.8,7.5,67,4.3,90.4c-3,22.3-2.2,37.6-2.2,37.6s-0.7,15.2,2.2,37.6
	c3.1,23.4,11.4,44.6,26,60.1l0,0c15.6,14.6,36.7,22.9,60.1,26c22.3,3,37.6,2.2,37.6,2.2s15.2,0.7,37.6-2.2
	c23.4-3.1,44.6-11.4,60.1-26l0,0c14.6-15.6,22.9-36.7,26-60.1c3-22.3,2.2-37.6,2.2-37.6S254.7,112.8,251.7,90.4"/>
<radialGradient id="SVGID_1_" cx="203.4938" cy="-151.1386" r="200.8778" fx="273.34" fy="-339.4825" gradientTransform="matrix(-0.3694 0.9293 0.9364 0.3722 367.3826 -0.3594)" gradientUnits="userSpaceOnUse">
	<stop  offset="0.1943" style="stop-color:#F5FF6A"/>
	<stop  offset="0.6943" style="stop-color:#F5FF6A;stop-opacity:0"/>
</radialGradient>
<path class="st2" d="M251.7,90.4c-3.1-23.4-11.4-44.6-26-60.1l0,0c-15.6-14.6-36.7-22.9-60.1-26C143.2,1.3,128,2,128,2
	s-15.2-0.7-37.6,2.3C67,7.4,45.8,15.7,30.3,30.3C15.7,45.8,7.5,67,4.3,90.4c-3,22.3-2.2,37.6-2.2,37.6s-0.7,15.2,2.2,37.6
	c3.1,23.4,11.4,44.6,26,60.1l0,0c15.6,14.6,36.7,22.9,60.1,26c22.3,3,37.6,2.2,37.6,2.2s15.2,0.7,37.6-2.2
	c23.4-3.1,44.6-11.4,60.1-26l0,0c14.6-15.6,22.9-36.7,26-60.1c3-22.3,2.2-37.6,2.2-37.6S254.7,112.8,251.7,90.4"/>
<radialGradient id="SVGID_2_" cx="158.1099" cy="183.8681" r="197.5515" fx="144.1669" fy="326.5075" gradientTransform="matrix(1 0 0 -1 0 256)" gradientUnits="userSpaceOnUse">
	<stop  offset="0.1873" style="stop-color:#FF43FF"/>
	<stop  offset="0.8608" style="stop-color:#FF43FF;stop-opacity:0.1"/>
	<stop  offset="0.9988" style="stop-color:#FF43FF;stop-opacity:0"/>
</radialGradient>
<path class="st3" d="M251.7,90.4c-3.1-23.4-11.4-44.6-26-60.1l0,0c-15.6-14.6-36.7-22.9-60.1-26C143.2,1.3,128,2,128,2
	s-15.2-0.7-37.6,2.3C67,7.4,45.8,15.7,30.3,30.3C15.7,45.8,7.5,67,4.3,90.4c-3,22.3-2.2,37.6-2.2,37.6s-0.7,15.2,2.2,37.6
	c3.1,23.4,11.4,44.6,26,60.1l0,0c15.6,14.6,36.7,22.9,60.1,26c22.3,3,37.6,2.2,37.6,2.2s15.2,0.7,37.6-2.2
	c23.4-3.1,44.6-11.4,60.1-26l0,0c14.6-15.6,22.9-36.7,26-60.1c3-22.3,2.2-37.6,2.2-37.6S254.7,112.8,251.7,90.4"/>
<g>
	<path class="st4" d="M216.3,63.1l-12.2-5.4c-5.7-2.5-12.3,0-14.8,5.7c-1.7,3.3-3.3,6.7-5,10c-25.8-21.4-56.8-19.4-66.9-18.7
		c-6.1,0.4-36.3,3-61.1,25.3c-12.7,11.5-17.2,22-18.3,24.6c-2.1,5.2-10.4,25.7,0.2,40.8c1,1.4,5.9,8.4,14.5,10.9
		c4.4,1.3,8,0.9,14,0.3c10.5-1.1,12.6-3.6,19.7-2.8c3.2,0.4,9.6,1.1,11.2,4.9c1.6,3.8-2.9,6.9-2.1,13.3c0.4,3.1,1.9,5.2,4.2,8.4
		c1.5,2.1,5.5,7.5,12.6,10.5c3.8,1.6,7.4,2,10.9,2.1c3.5,0.1,6.8-0.1,10-0.4c-0.2,0.9-0.4,1.8-0.6,2.7c-1.8,6.8-5.1,11.9-7.5,15.1
		c0.2,4.2,1.6,6.3,2.8,7.4c5.7,5.1,18.5-0.9,28.7-5.7c8.6-4,12.9-6,17.1-10.8c7.8-8.8,8.8-19.3,9-23.7c-3.7-1.4-7.5-2.8-11.2-4.2
		c-0.5,5.3-2.5,16.6-11.5,24.1c-4.7,3.9-12.6,7.9-15.5,5.4c-2.2-1.9,0.7-5.8,1.2-14.8c0.7-12.3-3.5-15.8-1.7-23.8
		c0.8-3.4,3.1-7.6,9.5-11.7l28,11.9c2.5,1.1,5.5-0.1,6.5-2.7c11.3-28,22.5-56,33.8-84C224.5,72.2,222,65.6,216.3,63.1z M151.8,138.5
		c-0.2-0.1-0.3-0.1-0.5-0.2c-13.5,9.3-17.6,18.2-18.8,24.7c-1.1,6.1,0.1,11.2,0.9,16.8c-4.7,0.6-8.3,0.6-10.1,0.6
		c-10.5-2.6-14-6.5-15.1-9.8c-1.7-5.2,2.4-9.2-0.2-15.7c-1.8-4.5-5.4-7-6.8-7.9c-3.5-2.4-7.9-3.6-17.5-3.4
		c-15.3,0.4-18.5,5-25.8,2.4c-7.1-2.6-10.5-9.4-11.2-10.7c-6-12.5,3-26.9,6.6-32.8c6.9-11,15.6-16.8,21.7-20.8
		c7-4.5,24.7-15.6,49.9-15.7c9,0,34.8-0.2,53.9,18.1C170,102.1,160.9,120.3,151.8,138.5z M182.3,147.5c-0.8,2.1-3.2,3.1-5.3,2.2
		l-8.4-3.7l-7.1-3.1c12.5-24.7,25-49.3,37.5-74c7.3,3.3,4.2,1.9,11.5,5.1C201.2,98.5,191.7,123,182.3,147.5z"/>
	<circle class="st4" cx="135.1" cy="90.4" r="11.2"/>
	<circle class="st4" cx="97.9" cy="96" r="9.8"/>
	<circle class="st4" cx="72.5" cy="117.8" r="8.4"/>
</g>
</svg>
