<?xml version="1.0" encoding="utf-8"?>
<!-- Generator: Adobe Illustrator 23.0.0, SVG Export Plug-In . SVG Version: 6.00 Build 0)  -->
<!DOCTYPE svg PUBLIC "-//W3C//DTD SVG 1.1//EN" "http://www.w3.org/Graphics/SVG/1.1/DTD/svg11.dtd" [
	<!ENTITY ns_extend "http://ns.adobe.com/Extensibility/1.0/">
	<!ENTITY ns_ai "http://ns.adobe.com/AdobeIllustrator/10.0/">
	<!ENTITY ns_graphs "http://ns.adobe.com/Graphs/1.0/">
	<!ENTITY ns_vars "http://ns.adobe.com/Variables/1.0/">
	<!ENTITY ns_imrep "http://ns.adobe.com/ImageReplacement/1.0/">
	<!ENTITY ns_sfw "http://ns.adobe.com/SaveForWeb/1.0/">
	<!ENTITY ns_custom "http://ns.adobe.com/GenericCustomNamespace/1.0/">
	<!ENTITY ns_adobe_xpath "http://ns.adobe.com/XPath/1.0/">
]>
<svg version="1.1" id="레이어_1" xmlns:x="&ns_extend;" xmlns:i="&ns_ai;" xmlns:graph="&ns_graphs;"
	 xmlns="http://www.w3.org/2000/svg" xmlns:xlink="http://www.w3.org/1999/xlink" x="0px" y="0px" viewBox="0 0 256 256"
	 style="enable-background:new 0 0 256 256;" xml:space="preserve">
<style type="text/css">
	.st0{opacity:0.1;}
	.st1{fill:url(#SVGID_1_);}
	.st2{fill:#FFFFFF;}
</style>
<metadata>
	<sfw  xmlns="&ns_sfw;">
		<slices></slices>
		<sliceSourceBounds  bottomLeftOrigin="true" height="255" width="255.1" x="0.4" y="0.5"></sliceSourceBounds>
	</sfw>
</metadata>
<g class="st0">
	<g>
		<path d="M132.7,0.5c6.2,0,18.1,0.3,33.3,2.3c23.7,3.1,45.1,11.5,60.9,26.3l0,0C241.6,44.8,250,66.3,253.2,90c3,22.6,2.3,38,2.3,38
			s0.7,15.4-2.3,38c-3.1,23.7-11.5,45.1-26.3,60.9l0,0c-15.7,14.8-37.2,23.2-60.9,26.3c-15.1,2-27.1,2.3-33.3,2.3
			c-3.1,0-4.7-0.1-4.7-0.1s-1.7,0.1-4.7,0.1c-6.2,0-18.1-0.3-33.3-2.3c-23.7-3.1-45.1-11.5-60.9-26.3l0,0
			C14.4,211.2,6,189.7,2.8,166c-3-22.6-2.3-38-2.3-38s-0.7-15.4,2.3-38C6,66.3,14.4,44.8,29.1,29.1l0,0C44.9,14.3,66.3,5.9,90,2.8
			c15.2-2,27.1-2.3,33.3-2.3c3.1,0,4.7,0.1,4.7,0.1S129.7,0.5,132.7,0.5"/>
	</g>
</g>
<radialGradient id="SVGID_1_" cx="128" cy="127.963" r="181.2627" fx="-13.3662" fy="110.4191" gradientTransform="matrix(-0.5254 0.8508 -0.8803 -0.5436 307.9005 88.6208)" gradientUnits="userSpaceOnUse">
	<stop  offset="0.1708" style="stop-color:#FA7250"/>
	<stop  offset="1" style="stop-color:#FFBB11"/>
</radialGradient>
<path class="st1" d="M251.7,90.4c-3.1-23.4-11.4-44.6-26-60.1l0,0c-15.6-14.6-36.7-22.9-60.1-26C143.2,1.3,128,2,128,2
	s-15.2-0.7-37.6,2.3C67,7.4,45.8,15.7,30.3,30.3C15.7,45.8,7.5,67,4.3,90.4c-3,22.3-2.2,37.6-2.2,37.6s-0.7,15.2,2.2,37.6
	c3.1,23.4,11.4,44.6,26,60.1l0,0c15.6,14.6,36.7,22.9,60.1,26c22.3,3,37.6,2.2,37.6,2.2s15.2,0.7,37.6-2.2
	c23.4-3.1,44.6-11.4,60.1-26l0,0c14.6-15.6,22.9-36.7,26-60.1c3-22.3,2.2-37.6,2.2-37.6S254.7,112.8,251.7,90.4"/>
<g>
	<path class="st2" d="M65.8,116c3.2-1.3,6.4-2.5,9.5-3.8c-8.5-9-13.1-17.6-10.5-21.4c2.7-3.9,12.1-1.9,18.6-0.5
		c12.1,2.6,21.7,7.9,28.6,12.9c0.3-8.5,1.9-45.1,12.4-46.7c0.9-0.1,1.7,0,2.2,0.2c11.4,2.8,13.7,33.4,14,38.4c3.3-0.5,6.7-1,10-1.4
		c0.1-3.6,0.9-38.4-18.6-47.6c-1.8-0.8-3.8-1.5-6.2-1.9c-1.8-0.1-3.3,0.1-4.8,0.5c-14.9,4.1-18.8,31.7-19.8,41.5
		C79.5,75,60,76.5,54.8,85c-3.4,5.6-1,14.5-0.6,15.8C56.8,110.3,64.1,114.9,65.8,116z"/>
	<path class="st2" d="M126.6,199.4c-0.3,0.1-1.3,0.3-2.2,0.2c-10.5-1.6-12.1-38.2-12.4-46.7c-6.9,5-16.5,10.2-28.6,12.9
		c-7.1,1.5-15.6,3.5-18.6-0.5c-3.9-5.1,4.1-16.6,5.2-18.3c6.5-9.4,15.7-13.8,21-15.7c-2.2-2.5-4.4-5.1-6.7-7.6
		c-5.1,2.2-22.1,10.3-28.6,28.6c-1.7,4.7-4.7,13.1-1,18.8c5.5,8.4,24.2,8.8,46.5-1c0.9,9.8,4.8,37.4,19.8,41.5
		c1.4,0.4,3,0.6,4.8,0.5c2.5-0.4,4.5-1.1,6.2-1.9c12.5-6,14.9-22.4,15.2-25c-3-1.4-6-2.9-9.1-4.3
		C137.6,184.2,134.7,197.6,126.6,199.4z"/>
	<path class="st2" d="M176.5,127.9c8-5.7,30-22.9,26-37.8c-0.4-1.4-1-2.9-2-4.4c-1.6-2-3.2-3.4-4.7-4.4c-11.5-7.8-26.8-1.7-29.3-0.7
		c0.3,3.3,0.5,6.7,0.8,10c3.3-1.1,16.3-5.4,22,0.8c0.2,0.2,0.9,1,1.2,1.8c3.8,9.9-27,29.6-34.2,34.1c7.7,3.5,17.1,9.1,25.4,18.3
		c4.8,5.3,10.8,11.7,8.9,16.3c-2.5,5.9-16.4,4.8-18.5,4.6c-11.4-0.9-19.8-6.7-24.1-10.3c-1.1,3.2-2.2,6.4-3.3,9.6
		c4.5,3.3,20,14,39.1,10.5c4.9-0.9,13.7-2.5,16.7-8.6C205.1,158.7,196.1,142.2,176.5,127.9z"/>
</g>
</svg>
