<?xml version="1.0" encoding="UTF-8" standalone="no"?>
<svg
   xmlns:dc="http://purl.org/dc/elements/1.1/"
   xmlns:cc="http://creativecommons.org/ns#"
   xmlns:rdf="http://www.w3.org/1999/02/22-rdf-syntax-ns#"
   xmlns:svg="http://www.w3.org/2000/svg"
   xmlns="http://www.w3.org/2000/svg"
   xmlns:sodipodi="http://sodipodi.sourceforge.net/DTD/sodipodi-0.dtd"
   xmlns:inkscape="http://www.inkscape.org/namespaces/inkscape"
   version="1.1"
   id="레이어_1"
   x="0px"
   y="0px"
   viewBox="0 0 256 256"
   style="enable-background:new 0 0 256 256;"
   xml:space="preserve"
   sodipodi:docname="minecraft.svg"
   inkscape:version="1.0.2 (e86c870879, 2021-01-15)"><metadata
   id="metadata21"><rdf:RDF><cc:Work
       rdf:about=""><dc:format>image/svg+xml</dc:format><dc:type
         rdf:resource="http://purl.org/dc/dcmitype/StillImage" /><dc:title></dc:title></cc:Work></rdf:RDF></metadata><defs
   id="defs19">
		
		
	
			
		
				
			
	
	
</defs><sodipodi:namedview
   pagecolor="#ffffff"
   bordercolor="#666666"
   borderopacity="1"
   objecttolerance="10"
   gridtolerance="10"
   guidetolerance="10"
   inkscape:pageopacity="0"
   inkscape:pageshadow="2"
   inkscape:window-width="1852"
   inkscape:window-height="1048"
   id="namedview17"
   showgrid="false"
   inkscape:zoom="0.65186406"
   inkscape:cx="-26.492816"
   inkscape:cy="462.954"
   inkscape:window-x="68"
   inkscape:window-y="32"
   inkscape:window-maximized="1"
   inkscape:current-layer="레이어_1"
   inkscape:document-rotation="0" />
<style
   type="text/css"
   id="style2">
	.st0{opacity:0.1;}
	.st1{fill:#FAFAFA;}
</style>
<path
   style="opacity:0.1"
   d="m 132.8,0.5 c 6.2,0 18.1,0.3 33.3,2.3 23.7,3.1 45.1,11.5 60.8,26.3 v 0 c 14.7,15.7 23.1,37.1 26.2,60.9 3,22.6 2.3,38 2.3,38 0,0 0.7,15.4 -2.3,38 -3.1,23.7 -11.5,45.1 -26.3,60.9 v 0 c -15.7,14.8 -37.1,23.1 -60.8,26.3 -15.1,2 -27,2.3 -33.2,2.3 -3.1,0 -4.7,-0.1 -4.7,-0.1 0,0 -1.7,0.1 -4.7,0.1 -6.2,0 -18.1,-0.3 -33.2,-2.3 -23.7,-3.1 -45.1,-11.5 -60.8,-26.3 v 0 C 14.4,211.2 6,189.8 2.9,166 -0.1,143.4 0.6,128 0.6,128 0.6,128 -0.1,112.6 2.9,90 6,66.2 14.4,44.8 29.2,29.1 v 0 C 44.8,14.3 66.3,5.9 89.9,2.8 c 15.1,-2 27,-2.3 33.3,-2.3 3.1,0 4.7,0.1 4.7,0.1 0,0 1.8,-0.1 4.9,-0.1"
   id="path4"
   inkscape:connector-curvature="0" />

<rect
   fill="#b8845b"
   width="18.007423"
   height="18.007288"
   x="146.02113"
   y="-217.98009"
   ry="0"
   transform="scale(1,-1)"
   id="rect2"
   style="stroke-width:9.00364" /><rect
   fill="#785439"
   width="18.007423"
   height="18.007288"
   x="73.991432"
   y="-217.98009"
   ry="0"
   transform="scale(1,-1)"
   id="rect4"
   style="stroke-width:9.00364" /><rect
   fill="#956b49"
   width="18.007423"
   height="18.007288"
   x="37.976585"
   y="-217.98009"
   ry="0"
   transform="scale(1,-1)"
   id="rect8"
   style="stroke-width:9.00364" /><rect
   fill="#956b49"
   width="18.007423"
   height="18.007288"
   x="-200.04338"
   y="73.921852"
   ry="0"
   transform="scale(-1,1)"
   id="rect10"
   style="stroke-width:9.00364" /><rect
   fill="#583c28"
   width="18.007423"
   height="18.007288"
   x="55.984009"
   y="73.921852"
   ry="0"
   id="rect12"
   style="stroke-width:9.00364" /><rect
   fill="#b8845b"
   width="18.007423"
   height="18.007288"
   x="-128.0137"
   y="73.921852"
   ry="0"
   transform="scale(-1,1)"
   id="rect14"
   style="stroke-width:9.00364" /><rect
   fill="#785439"
   width="18.007423"
   height="18.007288"
   x="-110.00627"
   y="73.921852"
   ry="0"
   transform="scale(-1,1)"
   id="rect16"
   style="stroke-width:9.00364" /><rect
   fill="#956b49"
   width="18.007423"
   height="18.007288"
   x="-128.0137"
   y="55.914562"
   ry="0"
   transform="scale(-1,1)"
   id="rect20"
   style="stroke-width:9.00364" /><rect
   fill="#583c28"
   width="18.007423"
   height="18.007288"
   x="19.969164"
   y="55.914562"
   ry="0"
   id="rect22"
   style="stroke-width:9.00364" /><rect
   fill="#785439"
   width="18.007423"
   height="18.007288"
   x="91.998856"
   y="55.914562"
   ry="0"
   id="rect24"
   style="stroke-width:9.00364" /><rect
   fill="#583c28"
   width="18.007423"
   height="18.007288"
   x="-110.00627"
   y="37.907272"
   ry="0"
   transform="scale(-1,1)"
   id="rect30"
   style="stroke-width:9.00364" /><rect
   fill="#9bca6b"
   width="18.007423"
   height="18.007288"
   x="110.00627"
   y="37.907272"
   ry="0"
   id="rect32"
   style="stroke-width:9.00364" /><rect
   fill="#72b248"
   width="18.007423"
   height="18.007288"
   x="55.984009"
   y="19.899984"
   ry="0"
   id="rect40"
   style="stroke-width:9.00364" /><rect
   fill="#72b248"
   width="18.007423"
   height="18.007288"
   x="-182.03598"
   y="37.907272"
   ry="0"
   transform="scale(-1,1)"
   id="rect42"
   style="stroke-width:9.00364" /><rect
   fill="#72b248"
   width="18.007423"
   height="18.007288"
   x="37.976585"
   y="37.907272"
   ry="0"
   id="rect44"
   style="stroke-width:9.00364" /><rect
   fill="#56962c"
   width="18.007423"
   height="18.007288"
   x="164.02855"
   y="55.914562"
   ry="0"
   id="rect46"
   style="stroke-width:9.00364" /><rect
   fill="#b8845b"
   width="18.007423"
   height="18.007288"
   x="-146.02113"
   y="91.929138"
   ry="0"
   transform="scale(-1,1)"
   id="rect58"
   style="stroke-width:9.00364" /><rect
   fill="#785439"
   width="18.007423"
   height="18.007288"
   x="73.991432"
   y="91.929138"
   ry="0"
   id="rect60"
   style="stroke-width:9.00364" /><rect
   fill="#785439"
   width="18.007423"
   height="18.007288"
   x="19.969164"
   y="91.929138"
   ry="0"
   id="rect62"
   style="stroke-width:9.00364" /><rect
   fill="#956b49"
   width="18.007423"
   height="18.007288"
   x="37.976585"
   y="91.929138"
   ry="0"
   id="rect64"
   style="stroke-width:9.00364" /><rect
   fill="#b8845b"
   width="18.007423"
   height="18.007288"
   x="-146.02113"
   y="73.921852"
   ry="0"
   transform="scale(-1,1)"
   id="rect66"
   style="stroke-width:9.00364" /><rect
   fill="#785439"
   width="18.007423"
   height="18.007288"
   x="73.991432"
   y="73.921852"
   ry="0"
   id="rect68"
   style="stroke-width:9.00364" /><rect
   fill="#785439"
   width="18.007423"
   height="18.007288"
   x="19.969164"
   y="73.921852"
   ry="0"
   id="rect70"
   style="stroke-width:9.00364" /><rect
   fill="#583c28"
   width="18.007423"
   height="18.007288"
   x="37.976585"
   y="73.921852"
   ry="0"
   id="rect72"
   style="stroke-width:9.00364" /><rect
   fill="#583c28"
   width="18.007423"
   height="18.007288"
   x="73.991432"
   y="55.914562"
   ry="0"
   id="rect74"
   style="stroke-width:9.00364" /><rect
   fill="#6b6b6b"
   width="18.007423"
   height="18.007288"
   x="-146.02113"
   y="55.914562"
   ry="0"
   transform="scale(-1,1)"
   id="rect76"
   style="stroke-width:9.00364" /><rect
   fill="#956b49"
   width="18.007423"
   height="18.007288"
   x="128.0137"
   y="37.907272"
   ry="0"
   id="rect78"
   style="stroke-width:9.00364" /><rect
   fill="#60a036"
   width="18.007423"
   height="18.007288"
   x="-91.998856"
   y="19.899984"
   ry="0"
   transform="scale(-1,1)"
   id="rect80"
   style="stroke-width:9.00364" /><rect
   fill="#56962c"
   width="18.007423"
   height="18.007288"
   x="-55.984009"
   y="55.914562"
   ry="0"
   transform="scale(-1,1)"
   id="rect82"
   style="stroke-width:9.00364" /><rect
   fill="#60a036"
   width="18.007423"
   height="18.007288"
   x="73.991432"
   y="37.907272"
   ry="0"
   id="rect84"
   style="stroke-width:9.00364" /><rect
   fill="#b8845b"
   width="18.007423"
   height="18.007288"
   x="91.998856"
   y="199.97279"
   ry="0"
   id="rect90"
   style="stroke-width:9.00364" /><rect
   fill="#785439"
   width="18.007423"
   height="18.007288"
   x="-73.991432"
   y="199.97279"
   ry="0"
   transform="scale(-1,1)"
   id="rect92"
   style="stroke-width:9.00364" /><rect
   fill="#583c28"
   width="18.007423"
   height="18.007288"
   x="182.03598"
   y="199.97279"
   ry="0"
   id="rect94"
   style="stroke-width:9.00364" /><rect
   fill="#b8845b"
   width="18.007423"
   height="18.007288"
   x="91.998856"
   y="-109.93642"
   ry="0"
   transform="scale(1,-1)"
   id="rect98"
   style="stroke-width:9.00364" /><rect
   fill="#785439"
   width="18.007423"
   height="18.007288"
   x="110.00627"
   y="-109.93642"
   ry="0"
   transform="scale(1,-1)"
   id="rect100"
   style="stroke-width:9.00364" /><rect
   fill="#785439"
   width="18.007423"
   height="18.007288"
   x="-73.991432"
   y="-109.93642"
   ry="0"
   transform="scale(-1)"
   id="rect102"
   style="stroke-width:9.00364" /><rect
   fill="#583c28"
   width="18.007423"
   height="18.007288"
   x="182.03598"
   y="-109.93642"
   ry="0"
   transform="scale(1,-1)"
   id="rect104"
   style="stroke-width:9.00364" /><rect
   fill="#b8845b"
   width="18.007423"
   height="18.007288"
   x="-91.998856"
   y="217.98009"
   ry="0"
   transform="scale(-1,1)"
   id="rect118"
   style="stroke-width:9.00364" /><rect
   fill="#785439"
   width="18.007423"
   height="18.007288"
   x="-164.02855"
   y="217.98009"
   ry="0"
   transform="scale(-1,1)"
   id="rect120"
   style="stroke-width:9.00364" /><rect
   fill="#956b49"
   width="18.007423"
   height="18.007288"
   x="-110.00627"
   y="217.98009"
   ry="0"
   transform="scale(-1,1)"
   id="rect128"
   style="stroke-width:9.00364" /><rect
   fill="#785439"
   width="18.007423"
   height="18.007288"
   x="-73.991432"
   y="217.98009"
   ry="0"
   transform="scale(-1,1)"
   id="rect132"
   style="stroke-width:9.00364" /><rect
   fill="#583c28"
   width="18.007423"
   height="18.007288"
   x="182.03598"
   y="217.98009"
   ry="0"
   id="rect134"
   style="stroke-width:9.00364" /><rect
   fill="#b8845b"
   width="18.007423"
   height="18.007288"
   x="-218.05081"
   y="-217.98009"
   ry="0"
   transform="scale(-1)"
   id="rect136"
   style="stroke-width:9.00364" /><rect
   fill="#785439"
   width="18.007423"
   height="18.007288"
   x="-182.03598"
   y="-217.98009"
   ry="0"
   transform="scale(-1)"
   id="rect138"
   style="stroke-width:9.00364" /><rect
   fill="#956b49"
   width="18.007423"
   height="18.007288"
   x="110.00627"
   y="-217.98009"
   ry="0"
   transform="scale(1,-1)"
   id="rect140"
   style="stroke-width:9.00364" /><rect
   fill="#956b49"
   width="18.007423"
   height="18.007288"
   x="-164.02855"
   y="73.921852"
   ry="0"
   transform="scale(-1,1)"
   id="rect142"
   style="stroke-width:9.00364" /><rect
   fill="#583c28"
   width="18.007423"
   height="18.007288"
   x="218.05081"
   y="73.921852"
   ry="0"
   id="rect144"
   style="stroke-width:9.00364" /><rect
   fill="#9bca6b"
   width="18.007423"
   height="18.007288"
   x="146.02113"
   y="55.914562"
   ry="0"
   id="rect148"
   style="stroke-width:9.00364" /><rect
   fill="#785439"
   width="18.007423"
   height="18.007288"
   x="-236.05824"
   y="55.914562"
   ry="0"
   transform="scale(-1,1)"
   id="rect150"
   style="stroke-width:9.00364" /><rect
   fill="#72b248"
   width="18.007423"
   height="18.007288"
   x="110.00627"
   y="19.899984"
   ry="0"
   id="rect154"
   style="stroke-width:9.00364" /><rect
   fill="#56962c"
   width="18.007423"
   height="18.007288"
   x="128.0137"
   y="19.899984"
   ry="0"
   id="rect156"
   style="stroke-width:9.00364" /><rect
   fill="#60a036"
   width="18.007423"
   height="18.007288"
   x="146.02113"
   y="19.899984"
   ry="0"
   id="rect158"
   style="stroke-width:9.00364" /><rect
   fill="#72b248"
   width="18.007423"
   height="18.007288"
   x="-164.02855"
   y="37.907272"
   ry="0"
   transform="scale(-1,1)"
   id="rect166"
   style="stroke-width:9.00364" /><path
   id="rect176"
   d="M 128.01361,1.9630306 V 19.899983 h 18.00743 V 2.4026695 C 135.07378,1.7472042 128.01361,1.9630216 128.01361,1.9630306 Z"
   style="fill:#72b248;fill-opacity:1;stroke-width:9.00364" /><rect
   fill="#b8845b"
   width="18.007423"
   height="18.007288"
   x="-218.05081"
   y="91.929138"
   ry="0"
   transform="scale(-1,1)"
   id="rect180"
   style="stroke-width:9.00364" /><rect
   fill="#785439"
   width="18.007423"
   height="18.007288"
   x="-182.03598"
   y="91.929138"
   ry="0"
   transform="scale(-1,1)"
   id="rect182"
   style="stroke-width:9.00364" /><rect
   fill="#b8845b"
   width="18.007423"
   height="18.007288"
   x="-218.05081"
   y="73.921852"
   ry="0"
   transform="scale(-1,1)"
   id="rect184"
   style="stroke-width:9.00364" /><rect
   fill="#785439"
   width="18.007423"
   height="18.007288"
   x="-182.03598"
   y="73.921852"
   ry="0"
   transform="scale(-1,1)"
   id="rect186"
   style="stroke-width:9.00364" /><rect
   fill="#583c28"
   width="18.007423"
   height="18.007288"
   x="-73.991432"
   y="55.914562"
   ry="0"
   transform="scale(-1,1)"
   id="rect188"
   style="stroke-width:9.00364" /><rect
   fill="#b8845b"
   width="18.007423"
   height="18.007288"
   x="-200.04338"
   y="55.914562"
   ry="0"
   transform="scale(-1,1)"
   id="rect190"
   style="stroke-width:9.00364" /><rect
   fill="#72b248"
   width="18.007423"
   height="18.007288"
   x="-200.04338"
   y="19.899984"
   ry="0"
   transform="scale(-1,1)"
   id="rect194"
   style="stroke-width:9.00364" /><rect
   fill="#72b248"
   width="18.007423"
   height="18.007288"
   x="-182.03598"
   y="19.899984"
   ry="0"
   transform="scale(-1,1)"
   id="rect196"
   style="stroke-width:9.00364" /><rect
   fill="#56962c"
   width="18.007423"
   height="18.007288"
   x="-110.00627"
   y="19.899984"
   ry="0"
   transform="scale(-1,1)"
   id="rect198"
   style="stroke-width:9.00364" /><rect
   fill="#72b248"
   width="18.007423"
   height="18.007288"
   x="200.04338"
   y="37.907272"
   ry="0"
   id="rect200"
   style="stroke-width:9.00364" /><rect
   fill="#56962c"
   width="18.007423"
   height="18.007288"
   x="182.03598"
   y="37.907272"
   ry="0"
   id="rect202"
   style="stroke-width:9.00364" /><rect
   fill="#56962c"
   width="18.007423"
   height="18.007288"
   x="200.04338"
   y="55.914562"
   ry="0"
   id="rect204"
   style="stroke-width:9.00364" /><rect
   fill="#60a036"
   width="18.007423"
   height="18.007288"
   x="-73.991432"
   y="37.907272"
   ry="0"
   transform="scale(-1,1)"
   id="rect206"
   style="stroke-width:9.00364" /><rect
   fill="#583c28"
   width="18.007423"
   height="18.007288"
   x="-146.02113"
   y="199.97279"
   ry="0"
   transform="scale(-1,1)"
   id="rect220"
   style="stroke-width:9.00364" /><rect
   fill="#785439"
   width="18.007423"
   height="18.007288"
   x="-236.05824"
   y="-109.93642"
   ry="0"
   transform="scale(-1)"
   id="rect224"
   style="stroke-width:9.00364" /><rect
   fill="#583c28"
   width="18.007423"
   height="18.007288"
   x="146.02113"
   y="-109.93642"
   ry="0"
   transform="scale(1,-1)"
   id="rect226"
   style="stroke-width:9.00364" /><rect
   fill="#956b49"
   width="18.007423"
   height="18.007288"
   x="-128.0137"
   y="217.98009"
   ry="0"
   transform="scale(-1,1)"
   id="rect234"
   style="stroke-width:9.00364" /><rect
   fill="#b8845b"
   width="18.007423"
   height="18.007288"
   x="164.02855"
   y="217.98009"
   ry="0"
   id="rect236"
   style="stroke-width:9.00364" /><rect
   fill="#583c28"
   width="18.007423"
   height="18.007288"
   x="-146.02113"
   y="217.98009"
   ry="0"
   transform="scale(-1,1)"
   id="rect250"
   style="stroke-width:9.00364" /><rect
   fill="#b8845b"
   width="18.007423"
   height="18.007288"
   x="-146.02113"
   y="163.95828"
   ry="0"
   transform="scale(-1,1)"
   id="rect254"
   style="stroke-width:9.00364" /><rect
   fill="#785439"
   width="18.007423"
   height="18.007288"
   x="73.991432"
   y="163.95828"
   ry="0"
   id="rect256"
   style="stroke-width:9.00364" /><rect
   fill="#785439"
   width="18.007423"
   height="18.007288"
   x="19.969164"
   y="163.95828"
   ry="0"
   id="rect258"
   style="stroke-width:9.00364" /><rect
   fill="#956b49"
   width="18.007423"
   height="18.007288"
   x="37.976585"
   y="163.95828"
   ry="0"
   id="rect260"
   style="stroke-width:9.00364" /><rect
   fill="#583c28"
   width="18.007423"
   height="18.007288"
   x="55.984009"
   y="181.96558"
   ry="0"
   id="rect262"
   style="stroke-width:9.00364" /><rect
   fill="#b8845b"
   width="18.007423"
   height="18.007288"
   x="91.998856"
   y="-181.96558"
   ry="0"
   transform="scale(1,-1)"
   id="rect268"
   style="stroke-width:9.00364" /><rect
   fill="#785439"
   width="18.007423"
   height="18.007288"
   x="110.00627"
   y="-181.96558"
   ry="0"
   transform="scale(1,-1)"
   id="rect270"
   style="stroke-width:9.00364" /><rect
   fill="#785439"
   width="18.007423"
   height="18.007288"
   x="-73.991432"
   y="-181.96558"
   ry="0"
   transform="scale(-1)"
   id="rect272"
   style="stroke-width:9.00364" /><rect
   fill="#583c28"
   width="18.007423"
   height="18.007288"
   x="91.998856"
   y="181.96558"
   ry="0"
   id="rect274"
   style="stroke-width:9.00364" /><rect
   fill="#b8845b"
   width="18.007423"
   height="18.007288"
   x="-55.984009"
   y="181.96558"
   ry="0"
   transform="scale(-1,1)"
   id="rect276"
   style="stroke-width:9.00364" /><rect
   fill="#6b6b6b"
   width="18.007423"
   height="18.007288"
   x="73.991432"
   y="181.96558"
   ry="0"
   id="rect278"
   style="stroke-width:9.00364" /><rect
   fill="#785439"
   width="18.007423"
   height="18.007288"
   x="19.969164"
   y="181.96558"
   ry="0"
   id="rect280"
   style="stroke-width:9.00364" /><rect
   fill="#583c28"
   width="18.007423"
   height="18.007288"
   x="-164.02855"
   y="181.96558"
   ry="0"
   transform="scale(-1,1)"
   id="rect282"
   style="stroke-width:9.00364" /><rect
   fill="#956b49"
   width="18.007423"
   height="18.007288"
   x="128.0137"
   y="181.96558"
   ry="0"
   id="rect284"
   style="stroke-width:9.00364" /><rect
   fill="#583c28"
   width="18.007423"
   height="18.007288"
   x="146.02113"
   y="-181.96558"
   ry="0"
   transform="scale(1,-1)"
   id="rect286"
   style="stroke-width:9.00364" /><rect
   fill="#b8845b"
   width="18.007423"
   height="18.007288"
   x="-128.0137"
   y="181.96558"
   ry="0"
   transform="scale(-1,1)"
   id="rect288"
   style="stroke-width:9.00364" /><rect
   fill="#b8845b"
   width="18.007423"
   height="18.007288"
   x="218.05081"
   y="145.95099"
   ry="0"
   id="rect290"
   style="stroke-width:9.00364" /><rect
   fill="#583c28"
   width="18.007423"
   height="18.007288"
   x="-146.02113"
   y="145.95099"
   ry="0"
   transform="scale(-1,1)"
   id="rect292"
   style="stroke-width:9.00364" /><rect
   fill="#785439"
   width="18.007423"
   height="18.007288"
   x="146.02113"
   y="145.95099"
   ry="0"
   id="rect294"
   style="stroke-width:9.00364" /><rect
   fill="#583c28"
   width="18.007423"
   height="18.007288"
   x="-218.05081"
   y="145.95099"
   ry="0"
   transform="scale(-1,1)"
   id="rect296"
   style="stroke-width:9.00364" /><rect
   fill="#956b49"
   width="18.007423"
   height="18.007288"
   x="182.03598"
   y="145.95099"
   ry="0"
   id="rect298"
   style="stroke-width:9.00364" /><rect
   fill="#b8845b"
   width="18.007423"
   height="18.007288"
   x="-182.03598"
   y="145.95099"
   ry="0"
   transform="scale(-1,1)"
   id="rect302"
   style="stroke-width:9.00364" /><rect
   fill="#6b6b6b"
   width="18.007423"
   height="18.007288"
   x="19.969164"
   y="145.95099"
   ry="0"
   id="rect306"
   style="stroke-width:9.00364" /><rect
   fill="#583c28"
   width="18.007423"
   height="18.007288"
   x="110.00627"
   y="145.95099"
   ry="0"
   id="rect308"
   style="stroke-width:9.00364" /><rect
   fill="#785439"
   width="18.007423"
   height="18.007288"
   x="55.984009"
   y="145.95099"
   ry="0"
   id="rect310"
   style="stroke-width:9.00364" /><rect
   fill="#583c28"
   width="18.007423"
   height="18.007288"
   x="37.976585"
   y="145.95099"
   ry="0"
   id="rect312"
   style="stroke-width:9.00364" /><rect
   fill="#583c28"
   width="18.007423"
   height="18.007288"
   x="-91.998856"
   y="145.95099"
   ry="0"
   transform="scale(-1,1)"
   id="rect314"
   style="stroke-width:9.00364" /><rect
   fill="#785439"
   width="18.007423"
   height="18.007288"
   x="-110.00627"
   y="145.95099"
   ry="0"
   transform="scale(-1,1)"
   id="rect316"
   style="stroke-width:9.00364" /><rect
   fill="#b8845b"
   width="18.007423"
   height="18.007288"
   x="-218.05081"
   y="163.95828"
   ry="0"
   transform="scale(-1,1)"
   id="rect318"
   style="stroke-width:9.00364" /><rect
   fill="#b8845b"
   width="18.007423"
   height="18.007288"
   x="164.02855"
   y="-181.96558"
   ry="0"
   transform="scale(1,-1)"
   id="rect322"
   style="stroke-width:9.00364" /><rect
   fill="#785439"
   width="18.007423"
   height="18.007288"
   x="182.03598"
   y="-181.96558"
   ry="0"
   transform="scale(1,-1)"
   id="rect324"
   style="stroke-width:9.00364" /><rect
   fill="#583c28"
   width="18.007423"
   height="18.007288"
   x="164.02855"
   y="181.96558"
   ry="0"
   id="rect326"
   style="stroke-width:9.00364" /><rect
   fill="#583c28"
   width="18.007423"
   height="18.007288"
   x="-236.05824"
   y="181.96558"
   ry="0"
   transform="scale(-1,1)"
   id="rect328"
   style="stroke-width:9.00364" /><rect
   fill="#956b49"
   width="18.007423"
   height="18.007288"
   x="200.04338"
   y="181.96558"
   ry="0"
   id="rect332"
   style="stroke-width:9.00364" /><rect
   fill="#583c28"
   width="18.007423"
   height="18.007288"
   x="218.05081"
   y="-181.96558"
   ry="0"
   transform="scale(1,-1)"
   id="rect334"
   style="stroke-width:9.00364" /><rect
   fill="#b8845b"
   width="18.007423"
   height="18.007288"
   x="-200.04338"
   y="181.96558"
   ry="0"
   transform="scale(-1,1)"
   id="rect336"
   style="stroke-width:9.00364" /><rect
   fill="#785439"
   width="18.007423"
   height="18.007288"
   x="146.02113"
   y="127.94372"
   ry="0"
   id="rect338"
   style="stroke-width:9.00364" /><rect
   fill="#785439"
   width="18.007423"
   height="18.007288"
   x="91.998856"
   y="127.94372"
   ry="0"
   id="rect340"
   style="stroke-width:9.00364" /><rect
   fill="#956b49"
   width="18.007423"
   height="18.007288"
   x="110.00627"
   y="127.94372"
   ry="0"
   id="rect342"
   style="stroke-width:9.00364" /><rect
   fill="#956b49"
   width="18.007423"
   height="18.007288"
   x="73.991432"
   y="-145.95099"
   ry="0"
   transform="scale(1,-1)"
   id="rect344"
   style="stroke-width:9.00364" /><rect
   fill="#b8845b"
   width="18.007423"
   height="18.007288"
   x="164.02855"
   y="-145.95099"
   ry="0"
   transform="scale(1,-1)"
   id="rect346"
   style="stroke-width:9.00364" /><rect
   fill="#785439"
   width="18.007423"
   height="18.007288"
   x="182.03598"
   y="-145.95099"
   ry="0"
   transform="scale(1,-1)"
   id="rect348"
   style="stroke-width:9.00364" /><rect
   fill="#785439"
   width="18.007423"
   height="18.007288"
   x="-146.02113"
   y="-145.95099"
   ry="0"
   transform="scale(-1)"
   id="rect350"
   style="stroke-width:9.00364" /><rect
   fill="#583c28"
   width="18.007423"
   height="18.007288"
   x="73.991432"
   y="109.93642"
   ry="0"
   id="rect352"
   style="stroke-width:9.00364" /><rect
   fill="#6b6b6b"
   width="18.007423"
   height="18.007288"
   x="91.998856"
   y="109.93642"
   ry="0"
   id="rect354"
   style="stroke-width:9.00364" /><rect
   fill="#583c28"
   width="18.007423"
   height="18.007288"
   x="182.03598"
   y="109.93642"
   ry="0"
   id="rect356"
   style="stroke-width:9.00364" /><rect
   fill="#785439"
   width="18.007423"
   height="18.007288"
   x="128.0137"
   y="109.93642"
   ry="0"
   id="rect358"
   style="stroke-width:9.00364" /><rect
   fill="#583c28"
   width="18.007423"
   height="18.007288"
   x="110.00627"
   y="109.93642"
   ry="0"
   id="rect360"
   style="stroke-width:9.00364" /><rect
   fill="#583c28"
   width="18.007423"
   height="18.007288"
   x="-164.02855"
   y="109.93642"
   ry="0"
   transform="scale(-1,1)"
   id="rect362"
   style="stroke-width:9.00364" /><rect
   fill="#785439"
   width="18.007423"
   height="18.007288"
   x="-182.03598"
   y="109.93642"
   ry="0"
   transform="scale(-1,1)"
   id="rect364"
   style="stroke-width:9.00364" /><rect
   fill="#b8845b"
   width="18.007423"
   height="18.007288"
   x="-218.05081"
   y="-145.95099"
   ry="0"
   transform="scale(-1)"
   id="rect366"
   style="stroke-width:9.00364" /><rect
   fill="#785439"
   width="18.007423"
   height="18.007288"
   x="-236.05824"
   y="127.94372"
   ry="0"
   transform="scale(-1,1)"
   id="rect370"
   style="stroke-width:9.00364" /><rect
   fill="#583c28"
   width="18.007423"
   height="18.007288"
   x="-236.05824"
   y="109.93642"
   ry="0"
   transform="scale(-1,1)"
   id="rect374"
   style="stroke-width:9.00364" /><rect
   fill="#956b49"
   width="18.007423"
   height="18.007288"
   x="200.04338"
   y="109.93642"
   ry="0"
   id="rect376"
   style="stroke-width:9.00364" /><rect
   fill="#b8845b"
   width="18.007423"
   height="18.007288"
   x="-37.976585"
   y="109.93642"
   ry="0"
   transform="scale(-1,1)"
   id="rect378"
   style="stroke-width:9.00364" /><rect
   fill="#6b6b6b"
   width="18.007423"
   height="18.007288"
   x="-73.991432"
   y="-127.94372"
   ry="0"
   transform="scale(-1)"
   id="rect380"
   style="stroke-width:9.00364" /><rect
   fill="#785439"
   width="18.007423"
   height="18.007288"
   x="-55.984009"
   y="-127.94372"
   ry="0"
   transform="scale(-1)"
   id="rect382"
   style="stroke-width:9.00364" /><rect
   fill="#b8845b"
   width="18.007423"
   height="18.007288"
   x="55.984009"
   y="-145.95099"
   ry="0"
   transform="scale(1,-1)"
   id="rect384"
   style="stroke-width:9.00364" /><rect
   fill="#583c28"
   width="18.007423"
   height="18.007288"
   x="-55.984009"
   y="-145.95099"
   ry="0"
   transform="scale(-1)"
   id="rect386"
   style="stroke-width:9.00364" /><rect
   fill="#956b49"
   width="18.007423"
   height="18.007288"
   x="19.969164"
   y="-145.95099"
   ry="0"
   transform="scale(1,-1)"
   id="rect388"
   style="stroke-width:9.00364" /><path
   id="rect50-3"
   d="m 55.983922,13.622048 c -4.199151,1.843451 -8.228852,3.922635 -12.045976,6.277935 h 12.045976 z"
   style="fill:#56962c;fill-opacity:1;stroke-width:9.00364" /><path
   id="rect52-7"
   d="M 73.991345,7.4320422 C 67.710626,9.0366537 61.695966,11.096057 55.983922,13.604464 v 6.295519 h 18.007423 z"
   style="fill:#60a036;fill-opacity:1;stroke-width:9.00364" /><path
   id="rect38-3"
   d="m 43.937946,19.899983 c -2.047444,1.26449 -4.020427,2.628344 -5.94389,4.044608 v 13.96268 H 56.001479 V 19.899983 Z"
   style="fill:#60a036;fill-opacity:1;stroke-width:9.00364" /><path
   id="path86-6"
   d="M 91.998764,4.0908528 C 91.423431,4.1637823 90.983423,4.1883623 90.398537,4.266694 84.78436,5.0104851 79.303986,6.0747428 73.991345,7.4320422 V 19.899974 h 18.007419 z"
   style="fill:#56962c;fill-opacity:1;stroke-width:9.00364" /><path
   id="rect36-9"
   d="m 37.994056,23.944591 c -2.684366,1.976633 -5.282387,4.051235 -7.702405,6.330687 -2.260021,2.399327 -4.31926,4.972596 -6.277928,7.631993 h 13.980333 z"
   style="fill:#56962c;fill-opacity:1;stroke-width:9.00364" /><path
   id="rect48-2"
   d="m 24.013723,37.907271 c -1.413041,1.918434 -2.783857,3.884065 -4.044646,5.926226 V 55.91456 H 37.976499 V 37.907271 Z"
   style="fill:#60a036;fill-opacity:1;stroke-width:9.00364" /><path
   id="rect28-0"
   d="m 19.969077,43.833497 c -2.362395,3.826423 -4.447834,7.869392 -6.295575,12.081063 h 6.295575 z"
   style="fill:#60a036;fill-opacity:1;stroke-width:9.00364" /><path
   id="rect26-3"
   d="M 13.673502,55.91456 C 11.167318,61.627201 9.0982655,67.639286 7.4834492,73.921849 H 19.969077 V 55.91456 Z"
   style="fill:#72b248;fill-opacity:1;stroke-width:9.00364" /><path
   id="rect18-0"
   d="m 7.4834492,73.921849 c -1.3710848,5.334347 -2.4470284,10.838725 -3.2181059,16.477375 -0.072029,0.557595 -0.090036,0.98119 -0.1584642,1.529917 H 19.968898 V 73.921849 Z"
   style="fill:#583c28;fill-opacity:1;stroke-width:9.00364" /><path
   id="rect96-2"
   d="M 4.0895003,91.929141 C 3.2053334,98.825446 2.7355224,104.72046 2.4364195,109.93643 H 19.969077 V 91.929141 Z"
   style="fill:#956b49;fill-opacity:1;stroke-width:9.00364" /><path
   id="rect208-1"
   d="M 110.00619,2.4202536 C 104.79979,2.7319598 98.913257,3.2085227 91.998764,4.0908528 V 19.917576 h 18.007426 z"
   style="fill:#72b248;fill-opacity:1;stroke-width:9.00364" /><path
   id="path178-7"
   d="m 128.01361,1.9630396 c 0,0 -7.06017,-0.2158174 -18.00742,0.4396479 V 19.900001 h 18.00742 z"
   style="fill:#56962c;fill-opacity:1;stroke-width:9.00364" /><path
   id="rect390-2"
   d="M 2.4364195,109.93643 C 1.8115576,120.84048 2.044761,127.85921 2.0492628,127.94372 H 19.96872 v -18.00729 z"
   style="fill:#956b49;fill-opacity:1;stroke-width:9.00364" /><path
   id="rect50-3-2"
   d="m 55.983922,242.26539 c -4.199151,-1.8435 -8.228852,-3.92262 -12.045976,-6.27798 h 12.045976 z"
   style="fill:#583c28;fill-opacity:1;stroke-width:9.00364" /><path
   id="rect52-7-3"
   d="m 73.991345,248.45539 c -6.280719,-1.60463 -12.295379,-3.66403 -18.007423,-6.17245 v -6.29553 h 18.007423 z"
   style="fill:#785439;fill-opacity:1;stroke-width:9.00364" /><path
   id="rect38-3-7"
   d="m 43.920389,235.98741 c -2.047444,-1.26447 -4.020517,-2.62834 -5.94389,-4.04461 v -13.96267 h 18.007423 v 18.00728 z"
   style="fill:#956b49;fill-opacity:1;stroke-width:9.00364" /><path
   id="path86-6-5"
   d="m 91.998764,251.79655 c -0.575333,-0.072 -1.015341,-0.0972 -1.600227,-0.17557 -5.614177,-0.7437 -11.094551,-1.80802 -16.407192,-3.16532 v -12.46798 h 18.007419 z"
   style="fill:#b8845b;fill-opacity:1;stroke-width:9.00364" /><path
   id="rect28-0-2"
   d="m 19.969077,212.05393 c -2.362395,-3.82646 -4.447834,-7.86937 -6.295575,-12.08109 h 6.295575 z"
   style="fill:#956b49;fill-opacity:1;stroke-width:9.00364" /><path
   id="rect18-0-9"
   d="M 7.4834492,181.96558 C 6.1123644,176.63124 5.0364208,171.12686 4.2653433,165.48821 4.1933141,164.93062 4.1753068,164.50702 4.1068791,163.9583 H 19.968898 v 18.00728 z"
   style="fill:#956b49;fill-opacity:1;stroke-width:9.00364" /><path
   id="rect96-2-7"
   d="M 4.0895003,163.9583 C 3.2053334,157.06199 2.7355224,151.16698 2.4364195,145.95101 H 19.969077 v 18.00729 z"
   style="fill:#583c28;fill-opacity:1;stroke-width:9.00364" /><path
   id="rect390-2-1"
   d="M 2.4364195,145.95101 C 1.8115576,135.04695 2.044761,128.02823 2.0492628,127.94372 H 19.96872 v 18.00729 z"
   style="fill:#b8845b;fill-opacity:1;stroke-width:9.00364" /><path
   id="rect244-2"
   d="m 110.00619,236.00506 v 17.6204 c 2.63467,0.15036 5.45778,0.33134 7.56168,0.38716 6.61538,0.17467 10.44574,-0.018 10.44574,-0.018 v -17.98955 z"
   style="fill:#583c28;fill-opacity:1;stroke-width:9.00364" /><path
   id="rect108-3"
   d="m 91.998764,236.00506 v 15.94978 c 6.905669,0.88325 12.791846,1.3735 18.007426,1.67062 v -17.6204 z"
   style="fill:#6b6b6b;fill-opacity:1;stroke-width:9.00364" /><path
   id="rect116-9"
   d="m 23.890643,217.98013 c 1.991261,2.71018 4.083993,5.3315 6.383451,7.77266 2.42614,2.27063 5.022361,4.343 7.702405,6.31318 v -14.08584 z"
   style="fill:#583c28;fill-opacity:1;stroke-width:9.00364" /><path
   id="rect6-7"
   d="m 19.969077,199.97284 v 12.25693 c 1.227115,1.98008 2.552101,3.8866 3.921566,5.75036 h 14.085856 v -18.00729 z"
   style="fill:#785439;fill-opacity:1;stroke-width:9.00364" /><path
   id="rect264-4"
   d="m 7.3955737,181.96558 c 1.6005895,6.27976 3.6689223,12.29498 6.1724043,18.00726 h 6.401099 v -18.00726 z"
   style="fill:#583c28;fill-opacity:1;stroke-width:9.00364" /><path
   id="rect50-3-2-0"
   d="m 200.02584,242.38874 c 4.19906,-1.84341 8.22885,-3.92262 12.04598,-6.27789 h -12.04598 z"
   style="fill:#583c28;fill-opacity:1;stroke-width:9.00364" /><path
   id="rect52-7-3-3"
   d="m 182.01842,248.56118 c 6.28062,-1.60463 12.29528,-3.66403 18.00742,-6.17244 v -6.29544 h -18.00742 z"
   style="fill:#785439;fill-opacity:1;stroke-width:9.00364" /><path
   id="rect38-3-7-6"
   d="m 212.08937,236.11085 c 2.04745,-1.26447 4.02043,-2.62834 5.94389,-4.04461 v -13.96267 h -18.00742 v 18.00728 z"
   style="fill:#785439;fill-opacity:1;stroke-width:9.00364" /><path
   id="path86-6-5-1"
   d="m 164.02846,251.797 c 0.57533,-0.072 1.01535,-0.0972 1.60023,-0.17557 5.61417,-0.7437 11.09447,-1.80802 16.40719,-3.16532 v -12.46798 h -18.00742 z"
   style="fill:#b8845b;fill-opacity:1;stroke-width:9.00364" /><path
   id="rect28-0-2-0"
   d="m 236.05815,212.05393 c 2.3624,-3.82646 4.44783,-7.86937 6.29558,-12.08109 h -6.29558 z"
   style="fill:#6b6b6b;fill-opacity:1;stroke-width:9.00364" /><path
   id="rect244-2-6"
   d="m 146.02104,236.00542 v 17.6204 c -2.63467,0.15036 -5.45778,0.33134 -7.56168,0.38716 -6.61548,0.17467 -10.44575,-0.018 -10.44575,-0.018 v -17.98991 z"
   style="fill:#785439;fill-opacity:1;stroke-width:9.00364" /><path
   id="rect108-3-3"
   d="m 164.02846,236.00542 v 15.94987 c -6.90567,0.88325 -12.79184,1.3735 -18.00742,1.67053 v -17.6204 z"
   style="fill:#583c28;fill-opacity:1;stroke-width:9.00364" /><path
   id="rect116-9-2"
   d="m 232.10156,217.98049 c -1.99135,2.71009 -4.08408,5.3315 -6.38354,7.77266 -2.42614,2.27063 -5.02227,4.343 -7.7024,6.31309 v -14.08575 z"
   style="fill:#785439;fill-opacity:1;stroke-width:9.00364" /><path
   id="rect6-7-0"
   d="m 236.02304,199.9732 v 12.25693 c -1.22712,1.97999 -2.5521,3.8866 -3.92148,5.75036 H 218.01562 V 199.9732 Z"
   style="fill:#785439;fill-opacity:1;stroke-width:9.00364" /><path
   id="rect264-4-6"
   d="m 248.59663,181.96589 c -1.60068,6.27975 -3.66901,12.29503 -6.17249,18.00731 h -6.4011 v -18.00731 z"
   style="fill:#b8845b;fill-opacity:1;stroke-width:9.00364" /><path
   id="rect330-1"
   d="m 236.02304,163.9586 v 18.00729 h 12.55594 c 1.35101,-5.28935 2.40642,-10.74065 3.14779,-16.33669 0.081,-0.60973 0.099,-1.07154 0.17557,-1.6706 z"
   style="fill:#956b49;fill-opacity:1;stroke-width:9.00364" /><path
   id="rect300-5"
   d="m 236.02304,145.95131 v 18.00729 h 15.87966 c 0.88146,-6.90781 1.37523,-12.79528 1.67055,-18.00729 z"
   style="fill:#583c28;fill-opacity:1;stroke-width:9.00364" /><path
   id="rect368-7"
   d="m 236.04069,127.94402 v 18.00729 h 17.53256 c 0.61585,-10.87553 0.36915,-17.91936 0.36915,-17.91936 0,0 0,-0.0873 0,-0.0882 z"
   style="fill:#6b6b6b;fill-opacity:1;stroke-width:9.00364" /><path
   id="rect372-5"
   d="m 236.0406,109.93643 v 18.00729 h 17.9019 c 0.004,-0.0846 0.2584,-7.08237 -0.36915,-18.00729 z"
   style="fill:#b8845b;fill-opacity:1;stroke-width:9.00364" /><path
   id="rect222-9"
   d="m 236.0406,91.929141 v 18.007289 h 17.53256 c -0.29892,-5.21025 -0.77071,-11.094507 -1.65299,-18.007289 z"
   style="fill:#785439;fill-opacity:1;stroke-width:9.00364" /><path
   id="rect146-7"
   d="m 236.05815,73.921849 v 18.007292 h 15.86202 c -0.072,-0.549763 -0.081,-0.971079 -0.15846,-1.529917 -0.74731,-5.638551 -1.7994,-11.143118 -3.16535,-16.477375 z"
   style="fill:#b8845b;fill-opacity:1;stroke-width:9.00364" /><path
   id="rect168-5"
   d="m 236.05815,55.91456 v 18.007289 h 12.53839 c -1.60887,-6.282653 -3.69368,-12.294567 -6.2077,-18.007289 z"
   style="fill:#56962c;fill-opacity:1;stroke-width:9.00364" /><path
   id="rect164-5"
   d="M 236.05815,43.798329 V 55.91456 h 6.34834 c -1.85909,-4.224717 -3.97037,-8.279247 -6.34834,-12.116231 z"
   style="fill:#72b248;fill-opacity:1;stroke-width:9.00364" /><path
   id="rect152-7"
   d="M 218.05073,37.907271 V 55.91456 h 18.00742 V 43.815913 c -1.26232,-2.037534 -2.61404,-3.99435 -4.02709,-5.908642 z"
   style="fill:#583c28;fill-opacity:1;stroke-width:9.00364" /><path
   id="rect162-4"
   d="m 218.05073,23.962175 v 13.945096 h 13.98033 c -1.96046,-2.656183 -4.02043,-5.235331 -6.27793,-7.631993 -2.42533,-2.269809 -5.02335,-4.343574 -7.7024,-6.313103 z"
   style="fill:#56962c;fill-opacity:1;stroke-width:9.00364" /><path
   id="rect192-0"
   d="m 200.04331,19.899983 v 18.007288 h 18.00742 V 23.962175 c -1.9376,-1.424341 -3.91949,-2.791193 -5.979,-4.062192 z"
   style="fill:#60a036;fill-opacity:1;stroke-width:9.00364" /><path
   id="rect172-8"
   d="m 200.04331,13.622048 v 6.277935 h 12.01077 c -3.81397,-2.35367 -7.82324,-4.434862 -12.01077,-6.277935 z"
   style="fill:#60a036;fill-opacity:1;stroke-width:9.00364" /><path
   id="rect212-8"
   d="M 182.03588,7.4320422 V 19.899983 h 18.00743 V 13.622048 C 194.33072,11.107852 188.31669,9.0397149 182.03588,7.4320422 Z"
   style="fill:#60a036;fill-opacity:1;stroke-width:9.00364" /><path
   id="rect214-4"
   d="M 164.02846,4.0908528 V 19.899983 h 18.00742 V 7.4320512 C 176.72541,6.07269 171.24872,5.0112234 165.62869,4.266703 165.04345,4.1883713 164.60344,4.1642415 164.02846,4.0908528 Z"
   style="fill:#72b248;fill-opacity:1;stroke-width:9.00364" /><path
   id="rect170-1"
   d="M 146.02104,2.4026695 V 19.899992 h 18.00742 V 4.0908528 C 157.11388,3.2084957 151.22753,2.7144027 146.02104,2.4026695 Z"
   style="fill:#56962c;fill-opacity:1;stroke-width:9.00364" /></svg>
