<?xml version="1.0" encoding="utf-8"?>
<!-- Generator: Adobe Illustrator 23.0.0, SVG Export Plug-In . SVG Version: 6.00 Build 0)  -->
<svg version="1.1"
	 id="레이어_1" xmlns:cc="http://creativecommons.org/ns#" xmlns:dc="http://purl.org/dc/elements/1.1/" xmlns:inkscape="http://www.inkscape.org/namespaces/inkscape" xmlns:rdf="http://www.w3.org/1999/02/22-rdf-syntax-ns#" xmlns:sodipodi="http://sodipodi.sourceforge.net/DTD/sodipodi-0.dtd" xmlns:svg="http://www.w3.org/2000/svg"
	 xmlns="http://www.w3.org/2000/svg" xmlns:xlink="http://www.w3.org/1999/xlink" x="0px" y="0px" viewBox="0 0 256 256"
	 style="enable-background:new 0 0 256 256;" xml:space="preserve">
<style type="text/css">
	.st0{opacity:0.1;}
	.st1{fill:#FAFAFA;}
	.st2{fill:#CA64EA;}
	.st3{fill:#AE4BD5;}
	.st4{fill:#9332BF;}
	.st5{fill:#7719AA;}
	.st6{opacity:0.2;enable-background:new    ;}
	.st7{opacity:0.5;enable-background:new    ;}
	.st8{fill:url(#SVGID_1_);}
	.st9{fill:#FFFFFF;}
</style>
<g id="레이어_2">
</g>
<g id="레이어_1">
	
		<sodipodi:namedview  bordercolor="#666666" borderopacity="1" gridtolerance="10" guidetolerance="10" id="namedview17" inkscape:current-layer="레이어_1" inkscape:cx="128" inkscape:cy="101.82972" inkscape:pageopacity="0" inkscape:pageshadow="2" inkscape:window-height="1017" inkscape:window-maximized="1" inkscape:window-width="1920" inkscape:window-x="-8" inkscape:window-y="-8" inkscape:zoom="3.3203125" objecttolerance="10" pagecolor="#ffffff" showgrid="false">
		</sodipodi:namedview>
	<g id="g8" class="st0">
		<g id="g6">
			<path id="path4" d="M132.8,0.5c6.2,0,18.1,0.3,33.3,2.3c23.7,3.1,45.1,11.5,60.8,26.3l0,0C241.6,44.8,250,66.2,253.1,90
				c3,22.6,2.3,38,2.3,38s0.7,15.4-2.3,38c-3.1,23.7-11.5,45.1-26.3,60.9l0,0c-15.7,14.8-37.1,23.1-60.8,26.3
				c-15.1,2-27,2.3-33.2,2.3c-3.1,0-4.7-0.1-4.7-0.1s-1.7,0.1-4.7,0.1c-6.2,0-18.1-0.3-33.2-2.3c-23.7-3.1-45.1-11.5-60.8-26.3l0,0
				C14.4,211.2,6,189.8,2.9,166c-3-22.6-2.3-38-2.3-38s-0.7-15.4,2.3-38C6,66.2,14.4,44.8,29.2,29.1l0,0
				C44.8,14.3,66.3,5.9,89.9,2.8c15.1-2,27-2.3,33.3-2.3c3.1,0,4.7,0.1,4.7,0.1S129.7,0.5,132.8,0.5"/>
		</g>
	</g>
	<path id="path10" class="st1" d="M251.7,90.4c-3.1-23.4-11.4-44.6-26-60.1l0,0c-15.6-14.6-36.7-22.9-60.1-26C143.2,1.3,128,2,128,2
		s-15.2-0.7-37.6,2.3C67,7.4,45.8,15.7,30.3,30.3C15.7,45.8,7.5,67,4.3,90.4c-3,22.3-2.2,37.6-2.2,37.6s-0.7,15.2,2.2,37.6
		c3.1,23.4,11.4,44.6,26,60.1l0,0c15.6,14.6,36.7,22.9,60.1,26c22.3,3,37.6,2.2,37.6,2.2s15.2,0.7,37.6-2.2
		c23.4-3.1,44.6-11.4,60.1-26l0,0c14.6-15.6,22.9-36.7,26-60.1c3-22.3,2.2-37.6,2.2-37.6S254.7,112.8,251.7,90.4"/>
	<path class="st2" d="M173.5,207.1H89.8c-4,0-7.2-3.2-7.2-7.2l0,0V56.2c0-4,3.2-7.2,7.2-7.2l0,0h116c4,0,7.2,3.2,7.2,7.2l0,0v32.3
		L173.5,207.1z"/>
	<path class="st3" d="M213,128l-19.8,11.9L173.5,128V88.5H213L213,128L213,128z"/>
	<path class="st4" d="M213,167.5l-19.8,11.9l-19.8-11.9V128H213V167.5z"/>
	<path class="st5" d="M173.5,167.5H213v32.1c0,4.1-3.3,7.4-7.4,7.4h-32.1V167.5z"/>
	<path class="st6" d="M130.6,80.6H82.5v98.8h48.1c4,0,7.2-3.2,7.2-7.2V87.8C137.9,83.8,134.6,80.6,130.6,80.6z"/>
	<path class="st6" d="M126.7,84.5H82.5v98.8h44.1c4,0,7.2-3.2,7.2-7.2V91.8C133.9,87.8,130.7,84.5,126.7,84.5z"/>
	<path class="st7" d="M126.7,84.5H82.5v90.9h44.1c4,0,7.2-3.2,7.2-7.2V91.8C133.9,87.8,130.7,84.5,126.7,84.5z"/>
	<path class="st7" d="M122.7,84.5H82.5v90.9h40.2c4,0,7.2-3.2,7.2-7.2V91.8C130,87.8,126.7,84.5,122.7,84.5z"/>
	
		<linearGradient id="SVGID_1_" gradientUnits="userSpaceOnUse" x1="58.1096" y1="-2454.4841" x2="114.8672" y2="-2356.1824" gradientTransform="matrix(1 0 0 1 0 2533.3333)">
		<stop  offset="0" style="stop-color:#8324B3"/>
		<stop  offset="0.5" style="stop-color:#7A1BAC"/>
		<stop  offset="1" style="stop-color:#621197"/>
	</linearGradient>
	<path class="st8" d="M50.2,84.5h72.5c4,0,7.2,3.2,7.2,7.2v72.5c0,4-3.2,7.2-7.2,7.2H50.2c-4,0-7.2-3.2-7.2-7.2V91.8
		C43,87.8,46.2,84.5,50.2,84.5z"/>
	<path class="st9" d="M66.8,104.4h9.8L96,135.7c0.9,1.4,1.5,2.5,2,3.4h0.1c-0.2-2.1-0.3-4.3-0.3-6.4v-28.2h8.4v47.1H97l-20-32.1
		c-0.7-1.1-1.3-2.2-1.8-3.3H75c0.2,2.3,0.3,4.7,0.2,7v28.4h-8.4V104.4z"/>
</g>
</svg>
