<?xml version="1.0" encoding="utf-8"?>
<!-- Generator: Adobe Illustrator 23.0.0, SVG Export Plug-In . SVG Version: 6.00 Build 0)  -->
<svg version="1.1" id="레이어_1" xmlns="http://www.w3.org/2000/svg" xmlns:xlink="http://www.w3.org/1999/xlink" x="0px"
	 y="0px" viewBox="0 0 256 256" style="enable-background:new 0 0 256 256;" xml:space="preserve">
<style type="text/css">
	.st0{opacity:0.1;}
	.st1{fill:#FAFAFA;}
	.st2{opacity:0.12;}
	.st3{fill:#FFFFFF;}
	.st4{fill:url(#SVGID_1_);}
	.st5{fill:url(#SVGID_2_);}
	.st6{fill:url(#SVGID_3_);}
	.st7{fill:url(#SVGID_4_);}
	.st8{fill:url(#SVGID_5_);}
	.st9{fill:none;}
</style>
<g class="st0">
	<g>
		<path d="M132.8,0.5c6.2,0,18.1,0.3,33.3,2.3c23.7,3.1,45.1,11.5,60.8,26.3l0,0C241.6,44.8,250,66.2,253.1,90c3,22.6,2.3,38,2.3,38
			s0.7,15.4-2.3,38c-3.1,23.7-11.5,45.1-26.3,60.9l0,0c-15.7,14.8-37.1,23.1-60.8,26.3c-15.1,2-27,2.3-33.2,2.3
			c-3.1,0-4.7-0.1-4.7-0.1s-1.7,0.1-4.7,0.1c-6.2,0-18.1-0.3-33.2-2.3c-23.7-3.1-45.1-11.5-60.8-26.3l0,0
			C14.4,211.2,6,189.8,2.9,166c-3-22.6-2.3-38-2.3-38s-0.7-15.4,2.3-38C6,66.2,14.4,44.8,29.2,29.1l0,0C44.8,14.3,66.3,5.9,89.9,2.8
			c15.1-2,27-2.3,33.3-2.3c3.1,0,4.7,0.1,4.7,0.1S129.7,0.5,132.8,0.5"/>
	</g>
</g>
<path class="st1" d="M251.7,90.4c-3.1-23.4-11.4-44.6-26-60.1l0,0c-15.6-14.6-36.7-22.9-60.1-26C143.2,1.3,128,2,128,2
	s-15.2-0.7-37.6,2.3C67,7.4,45.8,15.7,30.3,30.3C15.7,45.8,7.5,67,4.3,90.4c-3,22.3-2.2,37.6-2.2,37.6s-0.7,15.2,2.2,37.6
	c3.1,23.4,11.4,44.6,26,60.1l0,0c15.6,14.6,36.7,22.9,60.1,26c22.3,3,37.6,2.2,37.6,2.2s15.2,0.7,37.6-2.2
	c23.4-3.1,44.6-11.4,60.1-26l0,0c14.6-15.6,22.9-36.7,26-60.1c3-22.3,2.2-37.6,2.2-37.6S254.7,112.8,251.7,90.4"/>
<g>
	<g id="Icons_-_Color">
		<g id="Desktop_-_Full_Bleed">
			<g class="st2">
				
					<image style="overflow:visible;enable-background:new    ;" width="170" height="62" xlink:href="AD705FBA.png"  transform="matrix(0.6641 0 0 0.6641 80.8973 178.2494)">
				</image>
				<path class="st3" d="M91.1,179.6c-5,0.1-9,4.2-9,9.2c0,3.2,1.7,6.1,4.5,7.7l31.9,18.1c2.6,1.5,5.6,2.3,8.6,2.3
					c1.6,0,3.2-0.2,4.8-0.7l48.1-13.7c7.4-2.1,12.4-8.8,12.5-16.5v-6.4H91.1z"/>
			</g>
			
				<linearGradient id="SVGID_1_" gradientUnits="userSpaceOnUse" x1="162.1391" y1="218.1787" x2="162.1391" y2="51.6225" gradientTransform="matrix(1 0 0 -1 0 256)">
				<stop  offset="0" style="stop-color:#FFB900"/>
				<stop  offset="0.17" style="stop-color:#EF8400"/>
				<stop  offset="0.31" style="stop-color:#E25C01"/>
				<stop  offset="0.43" style="stop-color:#DB4401"/>
				<stop  offset="0.5" style="stop-color:#D83B01"/>
			</linearGradient>
			<path class="st4" d="M131.8,47.4L144.7,77v102.7L132,216.2l48.1-13.7c7.4-2.1,12.4-8.8,12.5-16.5V77.6c0-7.7-5.1-14.4-12.5-16.5
				L131.8,47.4z"/>
			
				<linearGradient id="SVGID_2_" gradientUnits="userSpaceOnUse" x1="132.0993" y1="212.2923" x2="43.8993" y2="86.3486" gradientTransform="matrix(1 0 0 -1 0 256)">
				<stop  offset="0" style="stop-color:#800600"/>
				<stop  offset="0.6" style="stop-color:#C72127"/>
				<stop  offset="0.73" style="stop-color:#C13959"/>
				<stop  offset="0.85" style="stop-color:#BC4B81"/>
				<stop  offset="0.94" style="stop-color:#B95799"/>
				<stop  offset="1" style="stop-color:#B85BA2"/>
			</linearGradient>
			<path class="st5" d="M70.8,178.5l14.1-7.6c3.9-2.2,6.4-6.3,6.4-10.8v-55.3c0-5.2,3.2-9.8,8.1-11.5L144.7,77V64.5
				c0-7.9-5.3-14.9-12.9-17.1c-1.6-0.5-3.2-0.7-4.9-0.7l0,0c-3.1,0-6.1,0.8-8.8,2.3L66.2,78.7c-5.4,3.1-8.7,8.7-8.7,14.9v76.9
				c0,5,4,9,9,9.1C68,179.6,69.5,179.3,70.8,178.5z"/>
			
				<linearGradient id="SVGID_3_" gradientUnits="userSpaceOnUse" x1="87.0313" y1="57.7397" x2="202.175" y2="57.7397" gradientTransform="matrix(1 0 0 -1 0 256)">
				<stop  offset="0" style="stop-color:#F32B44"/>
				<stop  offset="0.6" style="stop-color:#A4070A"/>
			</linearGradient>
			<path class="st6" d="M144.7,179.6H91.1c-5,0.1-9,4.2-9,9.2c0,3.2,1.7,6.1,4.5,7.7l31.9,18.1c2.6,1.5,5.6,2.3,8.6,2.3l0,0
				c1.6,0,3.2-0.2,4.8-0.7c7.5-2.1,12.7-9,12.7-16.9V179.6z"/>
			
				<linearGradient id="SVGID_4_" gradientUnits="userSpaceOnUse" x1="133.9004" y1="214.851" x2="115.2254" y2="188.1885" gradientTransform="matrix(1 0 0 -1 0 256)">
				<stop  offset="0" style="stop-color:#000000;stop-opacity:0.4"/>
				<stop  offset="1" style="stop-color:#000000;stop-opacity:0"/>
			</linearGradient>
			<path class="st7" d="M70.8,178.5l14.1-7.6c3.9-2.2,6.4-6.3,6.4-10.8v-55.3c0-5.2,3.2-9.8,8.1-11.5L144.7,77V64.5
				c0-7.9-5.3-14.9-12.9-17.1c-1.6-0.5-3.2-0.7-4.9-0.7l0,0c-3.1,0-6.1,0.8-8.8,2.3L66.2,78.7c-5.4,3.1-8.7,8.7-8.7,14.9v76.9
				c0,5,4,9,9,9.1C68,179.6,69.5,179.3,70.8,178.5z"/>
			
				<linearGradient id="SVGID_5_" gradientUnits="userSpaceOnUse" x1="165.2755" y1="55.144" x2="113.7224" y2="59.644" gradientTransform="matrix(1 0 0 -1 0 256)">
				<stop  offset="0" style="stop-color:#000000;stop-opacity:0.4"/>
				<stop  offset="1" style="stop-color:#000000;stop-opacity:0"/>
			</linearGradient>
			<path class="st8" d="M144.7,179.6H91.1c-5,0.1-9,4.2-9,9.2c0,3.2,1.7,6.1,4.5,7.7l31.9,18.1c2.6,1.5,5.6,2.3,8.6,2.3l0,0
				c1.6,0,3.2-0.2,4.8-0.7c7.5-2.1,12.7-9,12.7-16.9V179.6z"/>
			<rect x="35" y="41.8" class="st9" width="180" height="180"/>
		</g>
	</g>
</g>
</svg>
