<?xml version="1.0" encoding="utf-8"?>
<!-- Generator: Adobe Illustrator 23.0.0, SVG Export Plug-In . SVG Version: 6.00 Build 0)  -->
<svg version="1.1"
	 id="레이어_1" xmlns:cc="http://creativecommons.org/ns#" xmlns:dc="http://purl.org/dc/elements/1.1/" xmlns:inkscape="http://www.inkscape.org/namespaces/inkscape" xmlns:rdf="http://www.w3.org/1999/02/22-rdf-syntax-ns#" xmlns:sodipodi="http://sodipodi.sourceforge.net/DTD/sodipodi-0.dtd" xmlns:svg="http://www.w3.org/2000/svg"
	 xmlns="http://www.w3.org/2000/svg" xmlns:xlink="http://www.w3.org/1999/xlink" x="0px" y="0px" viewBox="0 0 256 256"
	 style="enable-background:new 0 0 256 256;" xml:space="preserve">
<style type="text/css">
	.st0{opacity:0.1;}
	.st1{fill:#FAFAFA;}
	.st2{fill:#038387;}
	.st3{fill:#37C6D0;}
	.st4{fill:#1A9BA1;}
	.st5{opacity:0.2;enable-background:new    ;}
	.st6{opacity:0.1;enable-background:new    ;}
	.st7{fill:url(#SVGID_1_);}
	.st8{fill:#FFFFFF;}
</style>
<g id="레이어_2">
</g>
<g id="레이어_1">
	
		<sodipodi:namedview  bordercolor="#666666" borderopacity="1" gridtolerance="10" guidetolerance="10" id="namedview17" inkscape:current-layer="레이어_1" inkscape:cx="128" inkscape:cy="113.87678" inkscape:pageopacity="0" inkscape:pageshadow="2" inkscape:window-height="1017" inkscape:window-maximized="1" inkscape:window-width="1920" inkscape:window-x="-8" inkscape:window-y="-8" inkscape:zoom="3.3203125" objecttolerance="10" pagecolor="#ffffff" showgrid="false">
		</sodipodi:namedview>
	<g id="g8" class="st0">
		<g id="g6">
			<path id="path4" d="M132.8,0.5c6.2,0,18.1,0.3,33.3,2.3c23.7,3.1,45.1,11.5,60.8,26.3l0,0C241.6,44.8,250,66.2,253.1,90
				c3,22.6,2.3,38,2.3,38s0.7,15.4-2.3,38c-3.1,23.7-11.5,45.1-26.3,60.9l0,0c-15.7,14.8-37.1,23.1-60.8,26.3
				c-15.1,2-27,2.3-33.2,2.3c-3.1,0-4.7-0.1-4.7-0.1s-1.7,0.1-4.7,0.1c-6.2,0-18.1-0.3-33.2-2.3c-23.7-3.1-45.1-11.5-60.8-26.3l0,0
				C14.4,211.2,6,189.8,2.9,166c-3-22.6-2.3-38-2.3-38s-0.7-15.4,2.3-38C6,66.2,14.4,44.8,29.2,29.1l0,0
				C44.8,14.3,66.3,5.9,89.9,2.8c15.1-2,27-2.3,33.3-2.3c3.1,0,4.7,0.1,4.7,0.1S129.7,0.5,132.8,0.5"/>
		</g>
	</g>
	<path id="path10" class="st1" d="M251.7,90.4c-3.1-23.4-11.4-44.6-26-60.1l0,0c-15.6-14.6-36.7-22.9-60.1-26C143.2,1.3,128,2,128,2
		s-15.2-0.7-37.6,2.3C67,7.4,45.8,15.7,30.3,30.3C15.7,45.8,7.5,67,4.3,90.4c-3,22.3-2.2,37.6-2.2,37.6s-0.7,15.2,2.2,37.6
		c3.1,23.4,11.4,44.6,26,60.1l0,0c15.6,14.6,36.7,22.9,60.1,26c22.3,3,37.6,2.2,37.6,2.2s15.2,0.7,37.6-2.2
		c23.4-3.1,44.6-11.4,60.1-26l0,0c14.6-15.6,22.9-36.7,26-60.1c3-22.3,2.2-37.6,2.2-37.6S254.7,112.8,251.7,90.4"/>
	<g>
		<path class="st2" d="M160.7,66.3H206c3.9,0,7,3.1,7,7v110.5c0,3.9-3.1,7-7,7h-45.3c-3.9,0-7-3.1-7-7V73.3
			C153.7,69.4,156.8,66.3,160.7,66.3z"/>
		<path class="st2" d="M182.4,204.8H90.3c-4.1,0-7.4-3.3-7.4-7.3v-30.8l58.3-12.7l48.6,12.7v30.8
			C189.8,201.5,186.5,204.8,182.4,204.8z"/>
		<path class="st3" d="M182.1,52.3H90.6c-4.2,0-7.6,3.4-7.6,7.5v68.7l55,6.4l51.8-6.4V59.9C189.8,55.7,186.4,52.3,182.1,52.3z"/>
		<rect x="82.9" y="128.6" class="st4" width="106.9" height="38.1"/>
		<path class="st5" d="M132.6,92.8v81.7c0,0.4,0,0.8-0.1,1.2c-0.6,3.5-3.6,6-7.1,6H82.9V85.6h42.4C129.4,85.6,132.6,88.8,132.6,92.8
			C132.6,92.8,132.6,92.8,132.6,92.8z"/>
		<path class="st6" d="M135.7,92.8v75.5c-0.1,5.7-4.6,10.3-10.3,10.3H82.9V82.5h42.4C131.1,82.5,135.7,87.1,135.7,92.8z"/>
		<path class="st5" d="M132.6,92.8v75.5c0,4-3.2,7.2-7.2,7.2c0,0,0,0,0,0H82.9v-90h42.4C129.4,85.6,132.6,88.8,132.6,92.8
			C132.6,92.8,132.6,92.8,132.6,92.8z"/>
		<path class="st6" d="M129.5,92.8v75.5c0,4-3.2,7.2-7.2,7.2c0,0,0,0,0,0H82.9v-90h39.3C126.2,85.6,129.5,88.8,129.5,92.8
			C129.5,92.8,129.5,92.8,129.5,92.8z"/>
		
			<linearGradient id="SVGID_1_" gradientUnits="userSpaceOnUse" x1="58.0998" y1="176.4596" x2="114.8118" y2="78.2316" gradientTransform="matrix(1 0 0 -1 0 256)">
			<stop  offset="0" style="stop-color:#058F92"/>
			<stop  offset="0.5" style="stop-color:#038489"/>
			<stop  offset="1" style="stop-color:#026D71"/>
		</linearGradient>
		<path class="st7" d="M50.2,85.2h72.4c4,0,7.2,3.2,7.2,7.2v72.4c0,4-3.2,7.2-7.2,7.2H50.2c-4,0-7.2-3.2-7.2-7.2V92.4
			C43,88.4,46.2,85.2,50.2,85.2z"/>
		<path class="st8" d="M87.1,105c4.6-0.3,9.1,1,12.7,3.8c3.1,2.8,4.7,6.9,4.4,11.1c0.1,2.9-0.7,5.8-2.2,8.3
			c-1.5,2.4-3.6,4.4-6.2,5.6c-2.9,1.4-6.1,2.1-9.3,2h-8.8v16.8h-9V105H87.1z M77.7,128.5h7.8c2.5,0.2,4.9-0.6,6.9-2.1
			c1.6-1.6,2.5-3.9,2.3-6.2c0-5.2-3-7.9-8.9-7.9h-8.1V128.5L77.7,128.5z"/>
		<rect x="189.8" y="66.3" class="st5" width="3.2" height="124.5"/>
		<rect x="192.9" y="66.3" class="st6" width="3.2" height="124.5"/>
	</g>
</g>
</svg>
