<?xml version="1.0" encoding="utf-8"?>
<!-- Generator: Adobe Illustrator 23.0.0, SVG Export Plug-In . SVG Version: 6.00 Build 0)  -->
<svg version="1.1" id="레이어_1" xmlns="http://www.w3.org/2000/svg" xmlns:xlink="http://www.w3.org/1999/xlink" x="0px"
	 y="0px" viewBox="0 0 256 256" style="enable-background:new 0 0 256 256;" xml:space="preserve">
<style type="text/css">
	.st0{fill:#3399CC;}
	.st1{fill:#FFFFFF;}
</style>
<path class="st0" d="M251.7,90.4c-3.1-23.4-11.4-44.6-26-60.2l0,0c-15.5-14.6-36.7-22.9-60.1-26C143.2,1.3,128,2,128,2
	s-15.2-0.7-37.6,2.2C67,7.4,45.8,15.7,30.3,30.3C15.7,45.8,7.4,67,4.3,90.4c-3,22.4-2.2,37.6-2.2,37.6s-0.7,15.2,2.2,37.6
	c3.1,23.4,11.4,44.6,26,60.1l0,0c15.5,14.6,36.7,22.9,60.1,26c22.3,3,37.6,2.2,37.6,2.2s15.2,0.7,37.6-2.2
	c23.4-3.1,44.6-11.4,60.1-26l0,0c14.6-15.5,22.9-36.7,26-60.1c3-22.4,2.2-37.6,2.2-37.6S254.6,112.8,251.7,90.4"/>
<path class="st1" d="M199.9,187.2l-55-55c5.6-8.1,8.8-17.8,8.8-28.4c0-27.6-22.4-50-50-50c-27.6,0-50,22.4-50,50
	c0,27.6,22.4,50,50,50c10.6,0,20.4-3.3,28.5-8.9l55,55c3.1,3.1,8.2,3.1,11.3,0l1.4-1.4C203.1,195.4,203.1,190.3,199.9,187.2z
	 M68.7,103.8c0-19.3,15.7-35,35-35c19.3,0,35,15.7,35,35c0,19.3-15.7,35-35,35C84.4,138.8,68.7,123.1,68.7,103.8z"/>
</svg>
