<?xml version="1.0" encoding="utf-8"?>
<!-- Generator: Adobe Illustrator 23.0.0, SVG Export Plug-In . SVG Version: 6.00 Build 0)  -->
<svg version="1.1" id="레이어_1" xmlns="http://www.w3.org/2000/svg" xmlns:xlink="http://www.w3.org/1999/xlink" x="0px"
	 y="0px" viewBox="0 0 256 256" style="enable-background:new 0 0 256 256;" xml:space="preserve">
<style type="text/css">
	.st0{opacity:0.1;}
	.st1{fill:#0091B1;}
	.st2{fill:#FFFFFF;}
</style>
<g class="st0">
	<g>
		<path d="M132.7,0.5c6.2,0,18.1,0.3,33.3,2.3c23.7,3.1,45.1,11.5,60.9,26.3l0,0C241.6,44.8,250,66.3,253.2,90c3,22.6,2.3,38,2.3,38
			s0.7,15.4-2.3,38c-3.1,23.7-11.5,45.1-26.3,60.9l0,0c-15.7,14.8-37.2,23.2-60.9,26.3c-15.1,2-27.1,2.3-33.3,2.3
			c-3.1,0-4.7-0.1-4.7-0.1s-1.7,0.1-4.7,0.1c-6.2,0-18.1-0.3-33.3-2.3c-23.7-3.1-45.1-11.5-60.9-26.3l0,0
			C14.4,211.2,6,189.7,2.8,166c-3-22.6-2.3-38-2.3-38s-0.7-15.4,2.3-38C6,66.3,14.4,44.8,29.1,29.1l0,0C44.9,14.3,66.3,5.9,90,2.8
			c15.2-2,27.1-2.3,33.3-2.3c3.1,0,4.7,0.1,4.7,0.1S129.7,0.5,132.7,0.5"/>
	</g>
</g>
<path class="st1" d="M251.7,90.4c-3.1-23.4-11.4-44.6-26-60.1l0,0c-15.6-14.6-36.7-22.9-60.1-26C143.2,1.3,128,2,128,2
	s-15.2-0.7-37.6,2.3C67,7.4,45.8,15.7,30.3,30.3C15.7,45.8,7.5,67,4.3,90.4c-3,22.3-2.2,37.6-2.2,37.6s-0.7,15.2,2.2,37.6
	c3.1,23.4,11.4,44.6,26,60.1l0,0c15.6,14.6,36.7,22.9,60.1,26c22.3,3,37.6,2.2,37.6,2.2s15.2,0.7,37.6-2.2
	c23.4-3.1,44.6-11.4,60.1-26l0,0c14.6-15.6,22.9-36.7,26-60.1c3-22.3,2.2-37.6,2.2-37.6S254.7,112.8,251.7,90.4L251.7,90.4z"/>
<g>
	<path class="st2" d="M187.2,113.9h-8.7v-0.3h-10.7v0.3h-8.7c-10.7,0-19.4,8.7-19.4,19.4v53.1c0,15.3,12.4,27.7,27.7,27.7h11.3
		c15.3,0,27.7-12.4,27.7-27.7v-53.1C206.6,122.6,197.9,113.9,187.2,113.9z M178.5,151.6c0,2.7-2.2,4.9-4.9,4.9h-0.9
		c-2.7,0-4.9-2.2-4.9-4.9v-20.3c0-2.7,2.2-4.9,4.9-4.9h0.9c2.7,0,4.9,2.2,4.9,4.9V151.6z"/>
	<path class="st2" d="M127.5,149H92.4v-15.8h35.2V128c0-14,11.4-25.4,25.4-25.4h32V78.5c0-8.1-6.6-14.6-14.6-14.6H66.1
		c-8.1,0-14.6,6.6-14.6,14.6v70.8c0,8.1,6.6,14.6,14.6,14.6h61.5V149z M160,83c4.8-0.5,8.8,3.5,8.3,8.3c-0.3,3.5-3.2,6.3-6.7,6.7
		c-4.8,0.5-8.8-3.5-8.3-8.3C153.7,86.2,156.5,83.3,160,83z M139,83c4.8-0.5,8.8,3.5,8.3,8.3c-0.3,3.5-3.2,6.3-6.7,6.7
		c-4.8,0.5-8.8-3.5-8.3-8.3C132.7,86.2,135.6,83.3,139,83z M118.9,82.9c4.8-0.5,8.8,3.5,8.3,8.3c-0.3,3.5-3.2,6.3-6.7,6.7
		c-4.8,0.5-8.8-3.5-8.3-8.3C112.6,86.1,115.4,83.2,118.9,82.9z M118.9,107c4.8-0.5,8.8,3.5,8.3,8.3c-0.3,3.5-3.2,6.3-6.7,6.7
		c-4.8,0.5-8.8-3.5-8.3-8.3C112.6,110.2,115.4,107.3,118.9,107z M96.5,82.9c4.8-0.5,8.8,3.5,8.3,8.3c-0.3,3.5-3.2,6.3-6.7,6.7
		c-4.8,0.5-8.8-3.5-8.3-8.3C90.2,86.1,93,83.2,96.5,82.9z M76.7,121.9c-4.8,0.5-8.8-3.5-8.3-8.3c0.3-3.5,3.2-6.3,6.7-6.7
		c4.8-0.5,8.8,3.5,8.3,8.3C83,118.7,80.2,121.6,76.7,121.9z M76.7,97.9c-4.8,0.5-8.8-3.5-8.3-8.3c0.3-3.5,3.2-6.3,6.7-6.7
		c4.8-0.5,8.8,3.5,8.3,8.3C83,94.7,80.2,97.6,76.7,97.9z M89.8,115.3c-0.5-4.8,3.5-8.8,8.3-8.3c3.5,0.3,6.3,3.2,6.7,6.7
		c0.5,4.8-3.5,8.8-8.3,8.3C93,121.6,90.2,118.7,89.8,115.3z"/>
</g>
</svg>
