<?xml version="1.0" encoding="utf-8"?>
<!-- Generator: Adobe Illustrator 23.0.0, SVG Export Plug-In . SVG Version: 6.00 Build 0)  -->
<svg version="1.1" id="레이어_1" xmlns="http://www.w3.org/2000/svg" xmlns:xlink="http://www.w3.org/1999/xlink" x="0px"
	 y="0px" viewBox="0 0 256 256" style="enable-background:new 0 0 256 256;" xml:space="preserve">
<style type="text/css">
	.st0{fill:#A0CF1D;}
	.st1{fill:#FFFFFF;}
</style>
<path class="st0" d="M251.7,90.4c-3.1-23.4-11.4-44.6-26-60.1l0,0c-15.6-14.6-36.7-22.9-60.1-26C143.2,1.3,128,2,128,2
	s-15.2-0.7-37.6,2.3C67,7.4,45.8,15.7,30.3,30.3C15.7,45.8,7.5,67,4.3,90.4c-3,22.3-2.2,37.6-2.2,37.6s-0.7,15.2,2.2,37.6
	c3.1,23.4,11.4,44.6,26,60.1l0,0c15.6,14.6,36.7,22.9,60.1,26c22.3,3,37.6,2.2,37.6,2.2s15.2,0.7,37.6-2.2
	c23.4-3.1,44.6-11.4,60.1-26l0,0c14.6-15.6,22.9-36.7,26-60.1c3-22.3,2.2-37.6,2.2-37.6S254.7,112.8,251.7,90.4"/>
<circle class="st1" cx="128" cy="128" r="42.5"/>
<g>
	<path class="st1" d="M128.9,40.5h-1.9c-3.3,0-6.1,2.7-6.1,6.1v17.9c0,3.3,2.7,6.1,6.1,6.1h1.9c3.3,0,6.1-2.7,6.1-6.1V46.6
		C135,43.2,132.3,40.5,128.9,40.5z"/>
	<path class="st1" d="M128.9,185.5h-1.9c-3.3,0-6.1,2.7-6.1,6.1v17.9c0,3.3,2.7,6.1,6.1,6.1h1.9c3.3,0,6.1-2.7,6.1-6.1v-17.9
		C135,188.2,132.3,185.5,128.9,185.5z"/>
</g>
<g>
	<path class="st1" d="M40.5,127.1v1.9c0,3.3,2.7,6.1,6.1,6.1h17.9c3.3,0,6.1-2.7,6.1-6.1v-1.9c0-3.3-2.7-6.1-6.1-6.1H46.6
		C43.2,121,40.5,123.7,40.5,127.1z"/>
	<path class="st1" d="M185.5,127.1v1.9c0,3.3,2.7,6.1,6.1,6.1h17.9c3.3,0,6.1-2.7,6.1-6.1v-1.9c0-3.3-2.7-6.1-6.1-6.1h-17.9
		C188.2,121,185.5,123.7,185.5,127.1z"/>
</g>
<g>
	<path class="st1" d="M66.8,65.5l-1.3,1.3c-2.4,2.4-2.4,6.2,0,8.6L78.1,88c2.4,2.4,6.2,2.4,8.6,0l1.3-1.3c2.4-2.4,2.4-6.2,0-8.6
		L75.4,65.5C73,63.1,69.2,63.1,66.8,65.5z"/>
	<path class="st1" d="M169.3,168l-1.3,1.3c-2.4,2.4-2.4,6.2,0,8.6l12.6,12.6c2.4,2.4,6.2,2.4,8.6,0l1.3-1.3c2.4-2.4,2.4-6.2,0-8.6
		L177.9,168C175.5,165.6,171.7,165.6,169.3,168z"/>
</g>
<g>
	<path class="st1" d="M65.5,189.2l1.3,1.3c2.4,2.4,6.2,2.4,8.6,0L88,177.9c2.4-2.4,2.4-6.2,0-8.6l-1.3-1.3c-2.4-2.4-6.2-2.4-8.6,0
		l-12.6,12.6C63.1,183,63.1,186.8,65.5,189.2z"/>
	<path class="st1" d="M168,86.7l1.3,1.3c2.4,2.4,6.2,2.4,8.6,0l12.6-12.6c2.4-2.4,2.4-6.2,0-8.6l-1.3-1.3c-2.4-2.4-6.2-2.4-8.6,0
		L168,78.1C165.6,80.5,165.6,84.3,168,86.7z"/>
</g>
</svg>
