<?xml version="1.0" encoding="utf-8"?>
<!-- Generator: Adobe Illustrator 23.0.0, SVG Export Plug-In . SVG Version: 6.00 Build 0)  -->
<svg version="1.1" id="레이어_1" xmlns="http://www.w3.org/2000/svg" xmlns:xlink="http://www.w3.org/1999/xlink" x="0px"
	 y="0px" viewBox="0 0 256 256" style="enable-background:new 0 0 256 256;" xml:space="preserve">
<style type="text/css">
	.st0{fill:#0091B1;}
	.st1{fill:#FFFFFF;}
</style>
<path class="st0" d="M251.7,90.4c-3.1-23.4-11.4-44.6-26-60.1l0,0c-15.6-14.6-36.7-22.9-60.1-26C143.2,1.3,128,2,128,2
	s-15.2-0.7-37.6,2.3C67,7.4,45.8,15.7,30.3,30.3C15.7,45.8,7.5,67,4.3,90.4c-3,22.3-2.2,37.6-2.2,37.6s-0.7,15.2,2.2,37.6
	c3.1,23.4,11.4,44.6,26,60.1l0,0c15.6,14.6,36.7,22.9,60.1,26c22.3,3,37.6,2.2,37.6,2.2s15.2,0.7,37.6-2.2
	c23.4-3.1,44.6-11.4,60.1-26l0,0c14.6-15.6,22.9-36.7,26-60.1c3-22.3,2.2-37.6,2.2-37.6S254.7,112.8,251.7,90.4L251.7,90.4z"/>
<path class="st1" d="M138.4,176.9c22.7-22.7,45.4-45.4,68.1-68.1c0.9-0.9,1.5-2.2,1.5-3.5V85c0-9.4-7.6-17-17-17H65
	c-9.4,0-17,7.6-17,17v86c0,9.4,7.6,17,17,17h63c1.7,0,3.3-0.8,4.2-2.2C134.3,182.5,136.4,179.6,138.4,176.9z"/>
<g>
	<path class="st1" d="M139.1,209c-1.9-1.9-3.9-3.9-5.8-5.8c1.4-3.7,3.3-7.9,5.9-12.4c3.4-5.7,7-10.3,10.2-13.7
		c19.7-19.7,39.4-39.4,59-59c5.3,5.3,10.6,10.6,15.9,15.9c-19.8,19.8-39.6,39.6-59.4,59.4c-3.5,3.1-8,6.5-13.5,9.7
		C147,205.5,142.8,207.5,139.1,209z"/>
	<path class="st1" d="M126.4,215.8c0.1-1,0.4-2.2,0.8-3.4c0.8-2.6,2-4.7,3-6.2c1.9,1.9,3.9,3.9,5.8,5.8c-1.1,0.9-3,2.3-5.7,3.1
		C128.8,215.6,127.5,215.8,126.4,215.8z"/>
	<path class="st1" d="M225.5,107.6l9.2,9.2c2.3,2.3,2.3,6,0,8.4v0c-2.3,2.3-6,2.3-8.4,0l-9.2-9.2c-2.3-2.3-2.3-6,0-8.4v0
		C219.4,105.2,223.2,105.2,225.5,107.6z"/>
</g>
</svg>
