<?xml version="1.0" encoding="utf-8"?>
<!-- Generator: Adobe Illustrator 23.0.0, SVG Export Plug-In . SVG Version: 6.00 Build 0)  -->
<svg version="1.1" id="레이어_1" xmlns="http://www.w3.org/2000/svg" xmlns:xlink="http://www.w3.org/1999/xlink" x="0px"
	 y="0px" viewBox="0 0 256 256" style="enable-background:new 0 0 256 256;" xml:space="preserve">
<style type="text/css">
	.st0{fill:#0091B1;}
	.st1{fill:#FFFFFF;}
</style>
<path class="st0" d="M251.7,90.4c-3.1-23.4-11.4-44.6-26-60.1l0,0c-15.6-14.6-36.7-22.9-60.1-26C143.2,1.3,128,2,128,2
	s-15.2-0.7-37.6,2.3C67,7.4,45.8,15.7,30.3,30.3C15.7,45.8,7.5,67,4.3,90.4c-3,22.3-2.2,37.6-2.2,37.6s-0.7,15.2,2.2,37.6
	c3.1,23.4,11.4,44.6,26,60.1l0,0c15.6,14.6,36.7,22.9,60.1,26c22.3,3,37.6,2.2,37.6,2.2s15.2,0.7,37.6-2.2
	c23.4-3.1,44.6-11.4,60.1-26l0,0c14.6-15.6,22.9-36.7,26-60.1c3-22.3,2.2-37.6,2.2-37.6S254.7,112.8,251.7,90.4L251.7,90.4z"/>
<path class="st1" d="M149,65.5h-13V41.3c0-0.5-0.4-0.8-0.8-0.8h-14.4c-0.5,0-0.8,0.4-0.8,0.8v24.2h-13c-16,0-29,13-29,29V174
	c0,22.9,18.6,41.5,41.5,41.5h16.9c22.9,0,41.5-18.6,41.5-41.5V94.5C178,78.5,165,65.5,149,65.5z M136,122c0,4-3.3,7.3-7.3,7.3h-1.4
	c-4,0-7.3-3.3-7.3-7.3V91.6c0-4,3.3-7.3,7.3-7.3h1.4c4,0,7.3,3.3,7.3,7.3V122z"/>
</svg>
