<?xml version="1.0" encoding="utf-8"?>
<!-- Generator: Adobe Illustrator 23.0.0, SVG Export Plug-In . SVG Version: 6.00 Build 0)  -->
<svg version="1.1" id="레이어_1" xmlns="http://www.w3.org/2000/svg" xmlns:xlink="http://www.w3.org/1999/xlink" x="0px"
	 y="0px" viewBox="0 0 256 256" style="enable-background:new 0 0 256 256;" xml:space="preserve">
<style type="text/css">
	.st0{fill:#00CCCC;}
	.st1{fill:#FFFFFF;}
</style>
<path id="SVGID_3_" class="st0" d="M251.7,90.4c-3.1-23.4-11.4-44.6-26-60.2l0,0c-15.5-14.6-36.7-22.9-60.1-26
	C143.2,1.3,128,2,128,2s-15.2-0.7-37.6,2.2C67,7.4,45.8,15.7,30.3,30.3C15.7,45.8,7.4,67,4.3,90.4c-3,22.4-2.2,37.6-2.2,37.6
	s-0.7,15.2,2.2,37.6c3.1,23.4,11.4,44.6,26,60.1l0,0c15.5,14.6,36.7,22.9,60.1,26c22.3,3,37.6,2.2,37.6,2.2s15.2,0.7,37.6-2.2
	c23.4-3.1,44.6-11.4,60.1-26l0,0c14.6-15.5,22.9-36.7,26-60.1c3-22.4,2.2-37.6,2.2-37.6S254.6,112.8,251.7,90.4"/>
<path class="st1" d="M187.5,73.2H68.5c-8.6,0-15.5,7-15.5,15.5v78.5c0,8.6,7,15.5,15.5,15.5h118.9c8.6,0,15.5-7,15.5-15.5V88.8
	C203,80.2,196,73.2,187.5,73.2z M128,88.8c4.7,0,8.5,3.8,8.5,8.5c0,4.7-3.8,8.5-8.5,8.5s-8.5-3.8-8.5-8.5
	C119.5,92.6,123.3,88.8,128,88.8z M115.6,114.6c4.8-4.5,10.6-4.6,12.2-4.6c1.9,0,7.9,0.3,12.7,5.1c3.7,3.7,4.7,8,5,9.6
	c-0.9,1-7.3,8.1-17.8,7.8c-10.3-0.2-16.4-7.3-17.2-8.3C110.8,122.7,111.7,118.3,115.6,114.6z M172.7,153c0,2.2-1.8,4-4,4H88.7
	c-2.2,0-4-1.8-4-4V148c0-2.2,1.8-4,4-4h79.9c2.2,0,4,1.8,4,4V153z"/>
</svg>
