<?xml version="1.0" encoding="utf-8"?>
<!-- Generator: Adobe Illustrator 23.0.0, SVG Export Plug-In . SVG Version: 6.00 Build 0)  -->
<svg version="1.1" id="레이어_1" xmlns="http://www.w3.org/2000/svg" xmlns:xlink="http://www.w3.org/1999/xlink" x="0px"
	 y="0px" viewBox="0 0 256 256" style="enable-background:new 0 0 256 256;" xml:space="preserve">
<style type="text/css">
	.st0{fill:#6699CC;}
	.st1{fill:#FFFFFF;}
</style>
<path class="st0" d="M251.7,90.4c-3.1-23.4-11.4-44.6-26-60.1l0,0c-15.6-14.6-36.7-22.9-60.1-26C143.2,1.3,128,2,128,2
	s-15.2-0.7-37.6,2.3C67,7.4,45.8,15.7,30.3,30.3C15.7,45.8,7.5,67,4.3,90.4c-3,22.3-2.2,37.6-2.2,37.6s-0.7,15.2,2.2,37.6
	c3.1,23.4,11.4,44.6,26,60.1l0,0c15.6,14.6,36.7,22.9,60.1,26c22.3,3,37.6,2.2,37.6,2.2s15.2,0.7,37.6-2.2
	c23.4-3.1,44.6-11.4,60.1-26l0,0c14.6-15.6,22.9-36.7,26-60.1c3-22.3,2.2-37.6,2.2-37.6S254.7,112.8,251.7,90.4"/>
<path class="st1" d="M168.4,106.5c-5.6,0-11.2,0-16.7,0h-13.7h-8.4C141,85.3,152.5,64.2,164,43c-12.4,0-24.7,0-37.1,0
	c-13.1,28.3-26.2,56.7-39.3,85c5.7,0,11.4,0,17.1,0v0h22.6c-6.3,13-12.6,25.9-19,38.9c-3.5-4.3-6.9-8.7-10.4-13
	c-0.7,19.7-1.3,39.4-2,59.1c14.6-12.8,29.2-25.6,43.8-38.4c-6-0.4-12-0.9-18-1.3C137.4,151,152.9,128.7,168.4,106.5z"/>
</svg>
