<?xml version="1.0" encoding="utf-8"?>
<!-- Generator: Adobe Illustrator 23.0.0, SVG Export Plug-In . SVG Version: 6.00 Build 0)  -->
<svg version="1.1" id="레이어_1" xmlns="http://www.w3.org/2000/svg" xmlns:xlink="http://www.w3.org/1999/xlink" x="0px"
	 y="0px" viewBox="0 0 256 256" style="enable-background:new 0 0 256 256;" xml:space="preserve">
<style type="text/css">
	.st0{fill:#C47BDF;}
	.st1{opacity:0.7;fill:#FFFFFF;}
	.st2{fill:#FFFFFF;}
</style>
<path class="st0" d="M251.7,90.4c-3.1-23.4-11.4-44.6-26-60.1l0,0c-15.6-14.6-36.7-22.9-60.1-26C143.2,1.3,128,2,128,2
	s-15.2-0.7-37.6,2.3C67,7.4,45.8,15.7,30.3,30.3C15.7,45.8,7.5,67,4.3,90.4c-3,22.3-2.2,37.6-2.2,37.6s-0.7,15.2,2.2,37.6
	c3.1,23.4,11.4,44.6,26,60.1l0,0c15.6,14.6,36.7,22.9,60.1,26c22.3,3,37.6,2.2,37.6,2.2s15.2,0.7,37.6-2.2
	c23.4-3.1,44.6-11.4,60.1-26l0,0c14.6-15.6,22.9-36.7,26-60.1c3-22.3,2.2-37.6,2.2-37.6S254.7,112.8,251.7,90.4"/>
<path class="st1" d="M128,58c4.3-0.1,35.2,0,55.4,24.6c18.1,22.1,20.1,54.9,4.3,81.9c4.1,2.8,8.3,5.6,12.4,8.5
	c19.1-33.1,16.7-73.3-5.5-100.2C170.3,43.4,133.4,43,128,43V58z"/>
<path class="st2" d="M200.1,173c-4.1-2.8-8.3-5.6-12.4-8.5l0,0l0,0c-1.9,2.8-23.7,33.7-59.7,33.5c-34.9-0.2-70-29.6-70-70
	c0-38.4,31.6-70,70-70V43C81,43,43,81.1,43,128c0,49.1,42.6,84.7,85,85C171.3,213.3,197.6,176.6,200.1,173z"/>
</svg>
