<?xml version="1.0" encoding="UTF-8" standalone="no"?>
<!-- Generator: Adobe Illustrator 23.0.0, SVG Export Plug-In . SVG Version: 6.00 Build 0)  -->

<svg
   xmlns:ns="&amp;#38;ns_sfw;"
   xmlns:dc="http://purl.org/dc/elements/1.1/"
   xmlns:cc="http://creativecommons.org/ns#"
   xmlns:rdf="http://www.w3.org/1999/02/22-rdf-syntax-ns#"
   xmlns:svg="http://www.w3.org/2000/svg"
   xmlns="http://www.w3.org/2000/svg"
   xmlns:sodipodi="http://sodipodi.sourceforge.net/DTD/sodipodi-0.dtd"
   xmlns:inkscape="http://www.inkscape.org/namespaces/inkscape"
   version="1.1"
   id="video-x-generic"
   x="0px"
   y="0px"
   viewBox="0 0 256 256"
   style="enable-background:new 0 0 256 256;"
   xml:space="preserve"
   sodipodi:docname="video-x-generic (사본).svg"
   inkscape:version="0.92.5 (2060ec1f9f, 2020-04-08)"><defs
   id="defs33" /><sodipodi:namedview
   pagecolor="#ffffff"
   bordercolor="#666666"
   borderopacity="1"
   objecttolerance="10"
   gridtolerance="10"
   guidetolerance="10"
   inkscape:pageopacity="0"
   inkscape:pageshadow="2"
   inkscape:window-width="1848"
   inkscape:window-height="1052"
   id="namedview31"
   showgrid="false"
   inkscape:zoom="0.921875"
   inkscape:cx="-316.74576"
   inkscape:cy="128"
   inkscape:window-x="72"
   inkscape:window-y="28"
   inkscape:window-maximized="1"
   inkscape:current-layer="video-x-generic" />
<style
   type="text/css"
   id="style2">
	.st0{fill:#9A80FF;}
	.st1{fill:#FFFFFF;}
</style>
<metadata
   id="metadata4">
	<ns:sfw>
		<ns:slices />
		<ns:sliceSourceBounds
   bottomLeftOrigin="true"
   height="252.1"
   width="252"
   x="2"
   y="2" />
	</ns:sfw>
<rdf:RDF><cc:Work
     rdf:about=""><dc:format>image/svg+xml</dc:format><dc:type
       rdf:resource="http://purl.org/dc/dcmitype/StillImage" /></cc:Work></rdf:RDF></metadata>
<g
   id="g851"
   class="st0"
   style="opacity:0.1"
   transform="translate(-1.322314e-4)">
	<g
   id="g849"
   style="fill:#000000;fill-opacity:1">
		<path
   id="path847"
   d="m 132.7,0.5 c 6.2,0 18.1,0.3 33.3,2.3 23.7,3.1 45.1,11.5 60.9,26.3 v 0 c 14.7,15.7 23.1,37.2 26.3,60.9 3,22.6 2.3,38 2.3,38 0,0 0.7,15.4 -2.3,38 -3.1,23.7 -11.5,45.1 -26.3,60.9 v 0 c -15.7,14.8 -37.2,23.2 -60.9,26.3 -15.1,2 -27.1,2.3 -33.3,2.3 -3.1,0 -4.7,-0.1 -4.7,-0.1 0,0 -1.7,0.1 -4.7,0.1 -6.2,0 -18.1,-0.3 -33.3,-2.3 -23.7,-3.1 -45.1,-11.5 -60.9,-26.3 v 0 C 14.4,211.2 6,189.7 2.8,166 -0.2,143.4 0.5,128 0.5,128 0.5,128 -0.2,112.6 2.8,90 6,66.3 14.4,44.8 29.1,29.1 v 0 C 44.9,14.3 66.3,5.9 90,2.8 c 15.2,-2 27.1,-2.3 33.3,-2.3 3.1,0 4.7,0.1 4.7,0.1 0,0 1.7,-0.1 4.7,-0.1"
   inkscape:connector-curvature="0"
   style="fill:#000000;fill-opacity:1" />
	</g>
</g><path
   id="path1"
   class="st0"
   d="M251.7,90.4c-3.1-23.4-11.4-44.6-26-60.1l0,0c-15.6-14.6-36.7-22.9-60.1-26C143.2,1.3,128,2,128,2  s-15.2-0.7-37.6,2.3C67,7.4,45.8,15.7,30.3,30.3C15.7,45.8,7.5,67,4.3,90.4c-3,22.3-2.2,37.6-2.2,37.6s-0.7,15.2,2.2,37.6  c3.1,23.4,11.4,44.6,26,60.1l0,0c15.6,14.6,36.7,22.9,60.1,26c22.3,3,37.6,2.2,37.6,2.2s15.2,0.7,37.6-2.2  c23.4-3.1,44.6-11.4,60.1-26l0,0c14.6-15.6,22.9-36.7,26-60.1c3-22.3,2.2-37.6,2.2-37.6S254.7,112.8,251.7,90.4"
   style="fill:#41cd52;fill-opacity:1;opacity:1" />
<g
   id="video"
   style="fill:#ffffff;fill-opacity:1">
	<path
   class="st1"
   d="M191.5,172.1c0,10.1-8.2,18.4-18.4,18.4H83.3v11.5h91.1c15.8,0,28.6-12.8,28.6-28.6V84.1h-11.5V172.1z"
   id="path7"
   style="fill:#ffffff;fill-opacity:1" />
	<path
   class="st1"
   d="M66.4,54.1c-7.4,0-13.4,6-13.4,13.4v134.4h11.5v-9.3v-127h73.2h53.9H203V54.1H66.4z"
   id="path9"
   style="fill:#ffffff;fill-opacity:1" />
	<path
   class="st1"
   d="M115.9,160.2l38.7-26.2c3.4-2.3,3.4-7.4,0-9.7L115.9,98c-3.9-2.7-9.2,0.1-9.2,4.9v52.5   C106.7,160,111.9,162.8,115.9,160.2z M117.4,112.7c7.6,5.6,15.2,11.2,22.8,16.7c-7.6,5.3-15.2,10.7-22.8,16V112.7z"
   id="path11"
   style="fill:#ffffff;fill-opacity:1" />
	<circle
   class="st1"
   cx="79.9"
   cy="90.7"
   r="6.5"
   id="circle13"
   style="fill:#ffffff;fill-opacity:1" />
	<circle
   class="st1"
   cx="79.9"
   cy="115.7"
   r="6.5"
   id="circle15"
   style="fill:#ffffff;fill-opacity:1" />
	<circle
   class="st1"
   cx="79.9"
   cy="140.6"
   r="6.5"
   id="circle17"
   style="fill:#ffffff;fill-opacity:1" />
	<circle
   class="st1"
   cx="79.9"
   cy="165.6"
   r="6.5"
   id="circle19"
   style="fill:#ffffff;fill-opacity:1" />
	<circle
   class="st1"
   cx="175.2"
   cy="90.7"
   r="6.5"
   id="circle21"
   style="fill:#ffffff;fill-opacity:1" />
	<circle
   class="st1"
   cx="175.2"
   cy="115.7"
   r="6.5"
   id="circle23"
   style="fill:#ffffff;fill-opacity:1" />
	<circle
   class="st1"
   cx="175.2"
   cy="140.6"
   r="6.5"
   id="circle25"
   style="fill:#ffffff;fill-opacity:1" />
	<circle
   class="st1"
   cx="175.2"
   cy="165.5"
   r="6.5"
   id="circle27"
   style="fill:#ffffff;fill-opacity:1" />
</g>
<style
   id="style843"
   type="text/css">
	.st0{opacity:0.1;}
	.st1{fill:#706CF5;}
	.st2{fill-rule:evenodd;clip-rule:evenodd;fill:#FFFFFF;}
</style><g
   id="g871"
   transform="translate(181.15254,254.91525)" /></svg>