<?xml version="1.0" encoding="UTF-8" standalone="no"?>
<!-- Generator: Adobe Illustrator 23.0.0, SVG Export Plug-In . SVG Version: 6.00 Build 0)  -->

<svg
   xmlns:ns="&amp;ns_sfw;"
   xmlns:dc="http://purl.org/dc/elements/1.1/"
   xmlns:cc="http://creativecommons.org/ns#"
   xmlns:rdf="http://www.w3.org/1999/02/22-rdf-syntax-ns#"
   xmlns:svg="http://www.w3.org/2000/svg"
   xmlns="http://www.w3.org/2000/svg"
   xmlns:xlink="http://www.w3.org/1999/xlink"
   xmlns:sodipodi="http://sodipodi.sourceforge.net/DTD/sodipodi-0.dtd"
   xmlns:inkscape="http://www.inkscape.org/namespaces/inkscape"
   version="1.1"
   id="레이어_1"
   x="0px"
   y="0px"
   viewBox="0 0 256 256"
   style="enable-background:new 0 0 256 256;"
   xml:space="preserve"
   sodipodi:docname="shotwell.svg"
   inkscape:version="0.92.5 (2060ec1f9f, 2020-04-08)"><defs
   id="defs28"><linearGradient
     inkscape:collect="always"
     xlink:href="#SVGID_1_"
     id="linearGradient841"
     x1="50.5"
     y1="128"
     x2="205.5"
     y2="128"
     gradientUnits="userSpaceOnUse" /></defs><sodipodi:namedview
   pagecolor="#ffffff"
   bordercolor="#666666"
   borderopacity="1"
   objecttolerance="10"
   gridtolerance="10"
   guidetolerance="10"
   inkscape:pageopacity="0"
   inkscape:pageshadow="2"
   inkscape:window-width="1437"
   inkscape:window-height="480"
   id="namedview26"
   showgrid="false"
   inkscape:zoom="0.921875"
   inkscape:cx="128"
   inkscape:cy="128"
   inkscape:window-x="68"
   inkscape:window-y="27"
   inkscape:window-maximized="0"
   inkscape:current-layer="레이어_1" />
<style
   type="text/css"
   id="style2">
	.st0{opacity:0.1;}
	.st1{fill:url(#SVGID_1_);}
	.st2{fill-rule:evenodd;clip-rule:evenodd;fill:#FFFFFF;}
</style>
<metadata
   id="metadata4">
	<ns:sfw>
		<ns:slices />
		<ns:sliceSourceBounds
   bottomLeftOrigin="true"
   height="255.1"
   width="255"
   x="0.5"
   y="0.5" />
	</ns:sfw>
<rdf:RDF><cc:Work
     rdf:about=""><dc:format>image/svg+xml</dc:format><dc:type
       rdf:resource="http://purl.org/dc/dcmitype/StillImage" /></cc:Work></rdf:RDF></metadata>
<g
   class="st0"
   id="g10"
   style="opacity:0.1;fill:#000000;fill-opacity:1">
	<g
   id="g8"
   style="fill:#000000;fill-opacity:1">
		<path
   d="m 132.7,0.5 c 6.2,0 18.1,0.3 33.3,2.3 23.7,3.1 45.1,11.5 60.9,26.3 v 0 c 14.7,15.7 23.1,37.2 26.3,60.9 3,22.6 2.3,38 2.3,38 0,0 0.7,15.4 -2.3,38 -3.1,23.7 -11.5,45.1 -26.3,60.9 v 0 c -15.7,14.8 -37.2,23.2 -60.9,26.3 -15.1,2 -27.1,2.3 -33.3,2.3 -3.1,0 -4.7,-0.1 -4.7,-0.1 0,0 -1.7,0.1 -4.7,0.1 -6.2,0 -18.1,-0.3 -33.3,-2.3 -23.7,-3.1 -45.1,-11.5 -60.9,-26.3 v 0 C 14.4,211.2 6,189.7 2.8,166 -0.2,143.4 0.5,128 0.5,128 0.5,128 -0.2,112.6 2.8,90 6,66.3 14.4,44.8 29.1,29.1 v 0 C 44.9,14.3 66.3,5.9 90,2.8 c 15.2,-2 27.1,-2.3 33.3,-2.3 3.1,0 4.7,0.1 4.7,0.1 0,0 1.7,-0.1 4.7,-0.1"
   id="path6"
   inkscape:connector-curvature="0"
   style="fill:#000000;fill-opacity:1" />
	</g>
</g>
<linearGradient
   id="SVGID_1_"
   gradientUnits="userSpaceOnUse"
   x1="22.9122"
   y1="227.4916"
   x2="228.9343"
   y2="32.5127">
	<stop
   offset="0"
   style="stop-color:#6497F2"
   id="stop12" />
	<stop
   offset="0.9542"
   style="stop-color:#64BDF2"
   id="stop14" />
</linearGradient>
<path
   class="st1"
   d="M251.7,90.4c-3.1-23.4-11.4-44.6-26-60.1l0,0c-15.6-14.6-36.7-22.9-60.1-26C143.2,1.3,128,2,128,2  s-15.2-0.7-37.6,2.3C67,7.4,45.8,15.7,30.3,30.3C15.7,45.8,7.5,67,4.3,90.4c-3,22.3-2.2,37.6-2.2,37.6s-0.7,15.2,2.2,37.6  c3.1,23.4,11.4,44.6,26,60.1l0,0c15.6,14.6,36.7,22.9,60.1,26c22.3,3,37.6,2.2,37.6,2.2s15.2,0.7,37.6-2.2  c23.4-3.1,44.6-11.4,60.1-26l0,0c14.6-15.6,22.9-36.7,26-60.1c3-22.3,2.2-37.6,2.2-37.6S254.7,112.8,251.7,90.4"
   id="path17"
   style="fill:#fffffb;fill-opacity:1;opacity:1" />
<g
   id="g23"
   style="fill:url(#linearGradient841);fill-opacity:1;opacity:1">
	<path
   class="st2"
   d="m 191.5,51.5 h -127 c -7.7,0 -14,6.3 -14,14 v 139 H 62.1 V 192.9 172.6 63.1 h 131.8 v 83.7 c -3.4,-3.2 -6.7,-6.4 -10.1,-9.6 -0.9,-0.7 -3.7,-2.8 -7.9,-2.8 -4.6,0 -7.6,2.4 -8.4,3.1 l -31.2,29.2 c -0.5,0.4 -0.5,1.2 0,1.6 l 6,6 c 0.2,0.2 0.5,0.3 0.8,0.3 0,0 0.4,0 0.8,-0.3 0.9,-0.7 26.4,-25.1 29.4,-28 0.3,-0.2 1.1,-1 2.4,-1.1 1.7,-0.2 2.9,0.9 3.1,1.1 5.1,5.3 10.2,10.6 15.2,15.9 v 18.2 c 0,6.9 -5.6,12.4 -12.4,12.4 H 131.5 97 96.8 c -1.5,0 -2.2,-1.8 -1.2,-2.8 l 44.1,-43.8 c -2.8,-3.1 -5.5,-6.1 -8.3,-9.2 -17.5,17 -34.9,34 -52.3,51 -6.2,6 -1.9,16.5 6.7,16.5 h 11.2 33.3 51.8 c 12.9,0 23.4,-10.5 23.4,-23.4 V 65.5 c 0,-7.8 -6.3,-14 -14,-14 z"
   id="path19"
   inkscape:connector-curvature="0"
   style="clip-rule:evenodd;fill:url(#linearGradient841);fill-opacity:1;fill-rule:evenodd" />
	<path
   class="st2"
   d="m 124.5,104.4 c 0,-12.3 -10,-22.3 -22.3,-22.3 -12.3,0 -22.2,10 -22.2,22.3 0,12.3 10,22.3 22.3,22.3 12.3,0 22.2,-10 22.2,-22.3 z m -34.8,0 c 0,-7 5.6,-12.6 12.6,-12.6 7,0 12.6,5.6 12.6,12.6 0,7 -5.6,12.6 -12.6,12.6 -7,0 -12.6,-5.6 -12.6,-12.6 z"
   id="path21"
   inkscape:connector-curvature="0"
   style="clip-rule:evenodd;fill:url(#linearGradient841);fill-opacity:1;fill-rule:evenodd" />
</g>
</svg>