<?xml version="1.0" encoding="utf-8"?>
<!-- Generator: Adobe Illustrator 23.0.0, SVG Export Plug-In . SVG Version: 6.00 Build 0)  -->
<!DOCTYPE svg PUBLIC "-//W3C//DTD SVG 1.1//EN" "http://www.w3.org/Graphics/SVG/1.1/DTD/svg11.dtd" [
	<!ENTITY ns_extend "http://ns.adobe.com/Extensibility/1.0/">
	<!ENTITY ns_ai "http://ns.adobe.com/AdobeIllustrator/10.0/">
	<!ENTITY ns_graphs "http://ns.adobe.com/Graphs/1.0/">
	<!ENTITY ns_vars "http://ns.adobe.com/Variables/1.0/">
	<!ENTITY ns_imrep "http://ns.adobe.com/ImageReplacement/1.0/">
	<!ENTITY ns_sfw "http://ns.adobe.com/SaveForWeb/1.0/">
	<!ENTITY ns_custom "http://ns.adobe.com/GenericCustomNamespace/1.0/">
	<!ENTITY ns_adobe_xpath "http://ns.adobe.com/XPath/1.0/">
]>
<svg version="1.1" id="레이어_1" xmlns:x="&ns_extend;" xmlns:i="&ns_ai;" xmlns:graph="&ns_graphs;"
	 xmlns="http://www.w3.org/2000/svg" xmlns:xlink="http://www.w3.org/1999/xlink" x="0px" y="0px" viewBox="0 0 256 256"
	 style="enable-background:new 0 0 256 256;" xml:space="preserve">
<style type="text/css">
	.st0{opacity:0.1;}
	.st1{fill:#618FFA;}
	.st2{fill-rule:evenodd;clip-rule:evenodd;fill:#FFFFFF;}
</style>
<metadata>
	<sfw  xmlns="&ns_sfw;">
		<slices></slices>
		<sliceSourceBounds  bottomLeftOrigin="true" height="255.1" width="255" x="0.5" y="0.5"></sliceSourceBounds>
	</sfw>
</metadata>
<g class="st0">
	<g>
		<path d="M132.7,0.5c6.2,0,18.1,0.3,33.3,2.3c23.7,3.1,45.1,11.5,60.9,26.3h0C241.6,44.8,250,66.3,253.2,90c3,22.6,2.3,38,2.3,38
			s0.7,15.4-2.3,38c-3.1,23.7-11.5,45.1-26.3,60.9l0,0c-15.7,14.8-37.2,23.2-60.9,26.3c-15.1,2-27.1,2.3-33.3,2.3
			c-3.1,0-4.7-0.1-4.7-0.1s-1.7,0.1-4.7,0.1c-6.2,0-18.1-0.3-33.3-2.3c-23.7-3.1-45.1-11.5-60.9-26.3l0,0
			C14.4,211.2,6,189.7,2.8,166c-3-22.6-2.3-38-2.3-38s-0.7-15.4,2.3-38C6,66.3,14.4,44.8,29.1,29.1h0C44.9,14.3,66.3,5.9,90,2.8
			c15.2-2,27.1-2.3,33.3-2.3c3.1,0,4.7,0.1,4.7,0.1S129.7,0.5,132.7,0.5"/>
	</g>
</g>
<path class="st1" d="M251.7,90.4c-3.1-23.4-11.4-44.6-26-60.1l0,0c-15.6-14.6-36.7-22.9-60.1-26C143.2,1.3,128,2,128,2
	s-15.2-0.7-37.6,2.3C67,7.4,45.8,15.7,30.3,30.3C15.7,45.8,7.5,67,4.3,90.4c-3,22.3-2.2,37.6-2.2,37.6s-0.7,15.2,2.2,37.6
	c3.1,23.4,11.4,44.6,26,60.1l0,0c15.6,14.6,36.7,22.9,60.1,26c22.3,3,37.6,2.2,37.6,2.2s15.2,0.7,37.6-2.2
	c23.4-3.1,44.6-11.4,60.1-26l0,0c14.6-15.6,22.9-36.7,26-60.1c3-22.3,2.2-37.6,2.2-37.6S254.7,112.8,251.7,90.4"/>
<path class="st2" d="M128.9,148.5c-12.2,0-22.1-9.9-22.1-22.1c0-12.2,9.9-22.1,22.1-22.1c12.2,0,22.1,9.9,22.1,22.1
	C151,138.6,141.1,148.5,128.9,148.5 M128.9,93.9c17.9,0,32.4,14.5,32.4,32.4s-14.5,32.4-32.4,32.4s-32.4-14.5-32.4-32.4
	S111,93.9,128.9,93.9z M76.3,136c0,1.4-0.6,2.7-1.6,3.7l-14.3,13.1l-7.5-8.2l10.8-9.9c1-0.9,1.5-2.1,1.5-3.4v-8.6
	c0-1.4-0.6-2.6-1.6-3.5L51,108.8c-3.2-2.7-3.9-7.4-1.7-10.9L66.4,71c2.3-3.7,7.1-4.9,10.9-3l12,6.1c1.2,0.6,2.5,0.7,3.8,0.2l7.7-3
	c1.6-0.6,2.8-2.2,2.9-3.9l1.1-13.5c0.4-4.3,4-7.7,8.4-7.7l31.4,0c4.3,0,7.9,3.3,8.3,7.6l1.2,13.4c0.1,1.3,0.8,2.5,1.9,3.3l6.3,4.7
	c1.2,0.9,2.9,1.1,4.3,0.6l15.1-5.5l3.8,10.5l-20.5,7.6c-1.6,0.6-3.4,0.3-4.7-0.7l-14.4-10.8c-1.4-1-2.3-2.6-2.4-4.3l-1.4-15.1h-26.3
	l-1.6,17.2c-0.2,2.6-1.9,4.8-4.4,5.6l-16.8,6c-1.7,0.6-3.6,0.5-5.3-0.3l-13.4-6.8l-14.1,22.1l13.8,11.9c1.3,1.2,2.1,2.8,2.1,4.6
	L76.3,136L76.3,136z M204.8,145.5c3.4,2.7,4.3,7.5,1.9,11.1l-16.9,26.5c-2.3,3.7-7.1,4.9-11,2.9l-12-6.3c-1.6-0.8-3.4-0.7-4.9,0.4
	l-6.7,4.9c-1.1,0.8-1.7,2-1.9,3.3l-1.3,13.4c-0.4,4.3-4,7.6-8.4,7.6l-31.8,0c-4.2,0-7.8-3.1-8.3-7.3l-2.1-16.2
	c-0.2-1.3-0.9-2.5-2.1-3.3l-7.2-4.6c-1.1-0.7-2.4-0.9-3.7-0.6L74.6,181l-2.9-10.8l18.8-5c1.4-0.4,2.8-0.1,4,0.6l15.3,9.8
	c1.5,1,2.5,2.5,2.8,4.3l2.6,18.1l26.3,0l1.4-14.9c0.2-1.8,1.1-3.5,2.5-4.6l14.1-10.9c2-1.6,4.8-1.8,7.1-0.6l15.3,7.9l14.1-22.1
	l-12-9.3c-1.4-1.1-2.2-2.6-2.3-4.4l-1.3-18c-0.1-1.7,0.6-3.3,2-4.3l17.4-13.2l6.7,8.9l-12.8,9.7c-1.2,0.9-1.9,2.4-1.8,4l0.5,7.9
	c0.1,1.3,0.7,2.5,1.8,3.3L204.8,145.5L204.8,145.5z"/>
</svg>
