<?xml version="1.0" encoding="utf-8"?>
<!-- Generator: Adobe Illustrator 23.0.0, SVG Export Plug-In . SVG Version: 6.00 Build 0)  -->
<!DOCTYPE svg PUBLIC "-//W3C//DTD SVG 1.1//EN" "http://www.w3.org/Graphics/SVG/1.1/DTD/svg11.dtd" [
	<!ENTITY ns_extend "http://ns.adobe.com/Extensibility/1.0/">
	<!ENTITY ns_ai "http://ns.adobe.com/AdobeIllustrator/10.0/">
	<!ENTITY ns_graphs "http://ns.adobe.com/Graphs/1.0/">
	<!ENTITY ns_vars "http://ns.adobe.com/Variables/1.0/">
	<!ENTITY ns_imrep "http://ns.adobe.com/ImageReplacement/1.0/">
	<!ENTITY ns_sfw "http://ns.adobe.com/SaveForWeb/1.0/">
	<!ENTITY ns_custom "http://ns.adobe.com/GenericCustomNamespace/1.0/">
	<!ENTITY ns_adobe_xpath "http://ns.adobe.com/XPath/1.0/">
]>
<svg version="1.1" id="레이어_1" xmlns:x="&ns_extend;" xmlns:i="&ns_ai;" xmlns:graph="&ns_graphs;"
	 xmlns="http://www.w3.org/2000/svg" xmlns:xlink="http://www.w3.org/1999/xlink" x="0px" y="0px" viewBox="0 0 256 256"
	 style="enable-background:new 0 0 256 256;" xml:space="preserve">
<style type="text/css">
	.st0{opacity:0.1;}
	.st1{fill:#F86141;}
	.st2{fill-rule:evenodd;clip-rule:evenodd;fill:#FFFFFF;}
</style>
<metadata>
	<sfw  xmlns="&ns_sfw;">
		<slices></slices>
		<sliceSourceBounds  bottomLeftOrigin="true" height="255" width="255.1" x="0.4" y="0.5"></sliceSourceBounds>
	</sfw>
</metadata>
<g class="st0">
	<g>
		<path d="M132.7,0.5c6.2,0,18.1,0.3,33.3,2.3c23.7,3.1,45.1,11.5,60.9,26.3l0,0C241.6,44.8,250,66.3,253.2,90c3,22.6,2.3,38,2.3,38
			s0.7,15.4-2.3,38c-3.1,23.7-11.5,45.1-26.3,60.9l0,0c-15.7,14.8-37.2,23.2-60.9,26.3c-15.1,2-27.1,2.3-33.3,2.3
			c-3.1,0-4.7-0.1-4.7-0.1s-1.7,0.1-4.7,0.1c-6.2,0-18.1-0.3-33.3-2.3c-23.7-3.1-45.1-11.5-60.9-26.3l0,0
			C14.4,211.2,6,189.7,2.8,166c-3-22.6-2.3-38-2.3-38s-0.7-15.4,2.3-38C6,66.3,14.4,44.8,29.1,29.1l0,0C44.9,14.3,66.3,5.9,90,2.8
			c15.2-2,27.1-2.3,33.3-2.3c3.1,0,4.7,0.1,4.7,0.1S129.7,0.5,132.7,0.5"/>
	</g>
</g>
<path class="st1" d="M251.7,90.4c-3.1-23.4-11.4-44.6-26-60.1l0,0c-15.6-14.6-36.7-22.9-60.1-26C143.2,1.3,128,2,128,2
	s-15.2-0.7-37.6,2.3C67,7.4,45.8,15.7,30.3,30.3C15.7,45.8,7.5,67,4.3,90.4c-3,22.3-2.2,37.6-2.2,37.6s-0.7,15.2,2.2,37.6
	c3.1,23.4,11.4,44.6,26,60.1l0,0c15.6,14.6,36.7,22.9,60.1,26c22.3,3,37.6,2.2,37.6,2.2s15.2,0.7,37.6-2.2
	c23.4-3.1,44.6-11.4,60.1-26l0,0c14.6-15.6,22.9-36.7,26-60.1c3-22.3,2.2-37.6,2.2-37.6S254.7,112.8,251.7,90.4"/>
<path class="st2" d="M75.6,178.9v8.4c0,5.4,4.4,9.8,9.8,9.8h107.4v11.2H84.8c-11.3,0-20.4-9.2-20.4-20.4v-9H75.6L75.6,178.9z
	 M69.6,167.8H51.2v-11.2h13.1v-18.2h11.2v23.4C75.6,165.1,72.9,167.8,69.6,167.8L69.6,167.8z M64.4,61.8c0-7.4,6-13.4,13.4-13.4H183
	c7.6,0,13.7,6.2,13.7,13.8l-0.1,77.2c0,9.5-3.8,18.7-10.5,25.4l-12.6,12.6l-7.9-7.9l9.7-9.7c6.6-6.6,10.2-15.5,10.2-24.7V59.5h-110
	v21.3c0,3.3-2.7,6-6,6H51.2V75.7h13.1V61.8L64.4,61.8z M69.6,127.3H51.2v-11.2h13.1V97.9h11.2v23.4
	C75.6,124.6,72.9,127.3,69.6,127.3L69.6,127.3z M92.3,91.8h72.5v10.9H92.3L92.3,91.8L92.3,91.8z M92.3,123.7h72.5v10.9H92.3V123.7z
	 M92.3,155.1H143V166H92.3V155.1z"/>
</svg>
