<?xml version="1.0" encoding="utf-8"?>
<!-- Generator: Adobe Illustrator 23.0.0, SVG Export Plug-In . SVG Version: 6.00 Build 0)  -->
<!DOCTYPE svg PUBLIC "-//W3C//DTD SVG 1.1//EN" "http://www.w3.org/Graphics/SVG/1.1/DTD/svg11.dtd" [
	<!ENTITY ns_extend "http://ns.adobe.com/Extensibility/1.0/">
	<!ENTITY ns_ai "http://ns.adobe.com/AdobeIllustrator/10.0/">
	<!ENTITY ns_graphs "http://ns.adobe.com/Graphs/1.0/">
	<!ENTITY ns_vars "http://ns.adobe.com/Variables/1.0/">
	<!ENTITY ns_imrep "http://ns.adobe.com/ImageReplacement/1.0/">
	<!ENTITY ns_sfw "http://ns.adobe.com/SaveForWeb/1.0/">
	<!ENTITY ns_custom "http://ns.adobe.com/GenericCustomNamespace/1.0/">
	<!ENTITY ns_adobe_xpath "http://ns.adobe.com/XPath/1.0/">
]>
<svg version="1.1" id="레이어_1" xmlns:x="&ns_extend;" xmlns:i="&ns_ai;" xmlns:graph="&ns_graphs;"
	 xmlns="http://www.w3.org/2000/svg" xmlns:xlink="http://www.w3.org/1999/xlink" x="0px" y="0px" viewBox="0 0 256 256"
	 style="enable-background:new 0 0 256 256;" xml:space="preserve">
<style type="text/css">
	.st0{opacity:0.1;}
	.st1{fill:#9A80FF;}
	.st2{fill-rule:evenodd;clip-rule:evenodd;fill:#FFFFFF;}
</style>
<metadata>
	<sfw  xmlns="&ns_sfw;">
		<slices></slices>
		<sliceSourceBounds  bottomLeftOrigin="true" height="255.1" width="255" x="0.5" y="0.5"></sliceSourceBounds>
	</sfw>
</metadata>
<g class="st0">
	<g>
		<path d="M132.7,0.5c6.2,0,18.1,0.3,33.3,2.3c23.7,3.1,45.1,11.5,60.9,26.3h0C241.6,44.8,250,66.3,253.2,90c3,22.6,2.3,38,2.3,38
			s0.7,15.4-2.3,38c-3.1,23.7-11.5,45.1-26.3,60.9l0,0c-15.7,14.8-37.2,23.2-60.9,26.3c-15.1,2-27.1,2.3-33.3,2.3
			c-3.1,0-4.7-0.1-4.7-0.1s-1.7,0.1-4.7,0.1c-6.2,0-18.1-0.3-33.3-2.3c-23.7-3.1-45.1-11.5-60.9-26.3l0,0
			C14.4,211.2,6,189.7,2.8,166c-3-22.6-2.3-38-2.3-38s-0.7-15.4,2.3-38C6,66.3,14.4,44.8,29.1,29.1h0C44.9,14.3,66.3,5.9,90,2.8
			c15.2-2,27.1-2.3,33.3-2.3c3.1,0,4.7,0.1,4.7,0.1S129.7,0.5,132.7,0.5"/>
	</g>
</g>
<path class="st1" d="M251.7,90.4c-3.1-23.4-11.4-44.6-26-60.1l0,0c-15.6-14.6-36.7-22.9-60.1-26C143.2,1.3,128,2,128,2
	s-15.2-0.7-37.6,2.3C67,7.4,45.8,15.7,30.3,30.3C15.7,45.8,7.5,67,4.3,90.4c-3,22.3-2.2,37.6-2.2,37.6s-0.7,15.2,2.2,37.6
	c3.1,23.4,11.4,44.6,26,60.1l0,0c15.6,14.6,36.7,22.9,60.1,26c22.3,3,37.6,2.2,37.6,2.2s15.2,0.7,37.6-2.2
	c23.4-3.1,44.6-11.4,60.1-26l0,0c14.6-15.6,22.9-36.7,26-60.1c3-22.3,2.2-37.6,2.2-37.6S254.7,112.8,251.7,90.4"/>
<g>
	<path class="st2" d="M196.8,162.8c0,11.1-9,20.1-20.1,20.1H77.5v11.2h103c15.2,0,27.5-12.3,27.5-27.5v-59.3h-11.2V162.8z"/>
	<path class="st2" d="M105.9,129.8v27.4c-0.1,2,0.9,4,2.6,5c1.7,1.1,4,1.1,5.7,0c11-7.1,22-14.1,33-21.2c0.3-0.3,3.2-2.9,2.9-7
		c-0.3-3.6-2.9-5.6-3.3-5.9c-12.1-7-24.2-14.1-36.3-21.1c-1.5,2.5-3,5-4.6,7.6v0.2c11.5,7,23,14,34.5,21.1
		c-8.2,4.8-16.4,9.7-24.6,14.5c0-6.9,0-13.8,0-20.6C112.5,129.8,109.2,129.8,105.9,129.8z"/>
	<path class="st2" d="M129.4,79.6c-3.6-3.7-7.2-7.6-10.8-11.3c-1.3-1.4-3.5-3.4-6.8-4.9c-2.1-1-4.2-1.3-5.7-1.5c-14.9,0-30,0-44.9,0
		c-7.4,0-13.2,6-13.2,13.2c0,39.6,0,79.2,0,118.8h11.2v-11.2V135V73.1c3.7,0,7.5,0,11.2,0.1v0h30.1v0.2c1,0,2.1,0,3.1,0
		c0.9-0.1,2.6-0.3,4.7,0.4c1.6,0.6,2.7,1.5,3.2,2.1c3.6,3.7,7.2,7.5,10.8,11.2c1.4,0.9,3.3,1.8,5.8,2.6c2,0.5,3.7,0.7,5.1,0.9
		c2.6,0,5.2,0,7.8,0h22.6H197h11V79.6H129.4z"/>
</g>
</svg>
