<?xml version="1.0" encoding="utf-8"?>
<!-- Generator: Adobe Illustrator 23.0.0, SVG Export Plug-In . SVG Version: 6.00 Build 0)  -->
<svg version="1.1" id="레이어_1" xmlns="http://www.w3.org/2000/svg" xmlns:xlink="http://www.w3.org/1999/xlink" x="0px"
	 y="0px" viewBox="0 0 256 256" style="enable-background:new 0 0 256 256;" xml:space="preserve">
<style type="text/css">
	.st0{opacity:0.1;}
	.st1{fill:#A2A2A2;}
	.st2{fill:url(#SVGID_1_);}
	.st3{fill:#FFFFFF;}
</style>
<g class="st0">
	<g>
		<path d="M132.7,0.5c6.2,0,18.1,0.3,33.3,2.3c23.7,3.1,45.1,11.5,60.9,26.3h0C241.6,44.8,250,66.3,253.2,90c3,22.6,2.3,38,2.3,38
			s0.7,15.4-2.3,38c-3.1,23.7-11.5,45.1-26.3,60.9l0,0c-15.7,14.8-37.2,23.2-60.9,26.3c-15.1,2-27.1,2.3-33.3,2.3
			c-3.1,0-4.7-0.1-4.7-0.1s-1.7,0.1-4.7,0.1c-6.2,0-18.1-0.3-33.3-2.3c-23.7-3.1-45.1-11.5-60.9-26.3l0,0
			C14.4,211.2,6,189.7,2.8,166c-3-22.6-2.3-38-2.3-38s-0.7-15.4,2.3-38C6,66.3,14.4,44.8,29.1,29.1h0C44.9,14.3,66.3,5.9,90,2.8
			c15.2-2,27.1-2.3,33.3-2.3c3.1,0,4.7,0.1,4.7,0.1S129.7,0.5,132.7,0.5"/>
	</g>
</g>
<path class="st1" d="M203.7,151.8"/>
<linearGradient id="SVGID_1_" gradientUnits="userSpaceOnUse" x1="127.9795" y1="254.8889" x2="128.0202" y2="2.8163">
	<stop  offset="0" style="stop-color:#0063E0"/>
	<stop  offset="1" style="stop-color:#18ACFE"/>
</linearGradient>
<path class="st2" d="M251.7,90.4c-3.1-23.4-11.4-44.6-26-60.2l0,0c-15.5-14.6-36.7-22.9-60.1-26C143.2,1.3,128,2,128,2
	s-15.2-0.7-37.6,2.2C67,7.4,45.8,15.7,30.3,30.3C15.7,45.8,7.4,67,4.3,90.4c-3,22.4-2.2,37.6-2.2,37.6s-0.7,15.2,2.2,37.6
	c3.1,23.4,11.4,44.6,26,60.1l0,0c15.5,14.6,36.7,22.9,60.1,26c22.3,3,37.6,2.2,37.6,2.2s15.2,0.7,37.6-2.2
	c23.4-3.1,44.6-11.4,60.1-26l0,0c14.6-15.5,22.9-36.7,26-60.1c3-22.4,2.2-37.6,2.2-37.6S254.6,112.8,251.7,90.4"/>
<path class="st3" d="M123.5,61.9c-5.8,5.4-9.4,12.1-9.4,12.1c-5.8,10.7-5.9,20.9-5.6,25.9c0,9.3,0,18.7,0,28H75.2v37.1
	c11.1,0,22.2,0.1,33.2,0.1v88.4c12.1,0.8,19.6,0.4,19.6,0.4s7.7,0.4,20.3-0.5v-88.2c10,0,19.9,0.1,29.9,0.1
	c2-12.5,4.1-24.9,6.1-37.4h-36c0.1-7.3,0.2-14.6,0.3-21.9c-0.1-2.6-0.2-12.2,6.4-17.7c3.6-3,7.8-4.4,14.4-4.4c5.4,0,10.7,0,16.1,0
	c0-10.3,0-20.7,0-31C159.3,47.1,135.5,50.7,123.5,61.9z"/>
</svg>
