<?xml version="1.0" encoding="UTF-8" standalone="no"?>
<!-- Generator: Adobe Illustrator 23.0.0, SVG Export Plug-In . SVG Version: 6.00 Build 0)  -->

<svg
   xmlns:ns="&amp;ns_sfw;"
   xmlns:dc="http://purl.org/dc/elements/1.1/"
   xmlns:cc="http://creativecommons.org/ns#"
   xmlns:rdf="http://www.w3.org/1999/02/22-rdf-syntax-ns#"
   xmlns:svg="http://www.w3.org/2000/svg"
   xmlns="http://www.w3.org/2000/svg"
   xmlns:sodipodi="http://sodipodi.sourceforge.net/DTD/sodipodi-0.dtd"
   xmlns:inkscape="http://www.inkscape.org/namespaces/inkscape"
   version="1.1"
   id="레이어_1"
   x="0px"
   y="0px"
   viewBox="0 0 256 256"
   style="enable-background:new 0 0 256 256;"
   xml:space="preserve"
   sodipodi:docname="wine-winecfg.svg"
   inkscape:version="0.92.5 (2060ec1f9f, 2020-04-08)"><defs
   id="defs19" /><sodipodi:namedview
   pagecolor="#ffffff"
   bordercolor="#666666"
   borderopacity="1"
   objecttolerance="10"
   gridtolerance="10"
   guidetolerance="10"
   inkscape:pageopacity="0"
   inkscape:pageshadow="2"
   inkscape:window-width="1920"
   inkscape:window-height="996"
   id="namedview17"
   showgrid="false"
   inkscape:zoom="0.921875"
   inkscape:cx="128"
   inkscape:cy="171.38983"
   inkscape:window-x="0"
   inkscape:window-y="0"
   inkscape:window-maximized="1"
   inkscape:current-layer="레이어_1" />
<style
   type="text/css"
   id="style2">
	.st0{opacity:0.1;}
	.st1{fill:#618FFA;}
	.st2{fill-rule:evenodd;clip-rule:evenodd;fill:#FFFFFF;}
</style>
<metadata
   id="metadata4">
	<ns:sfw>
		<ns:slices />
		<ns:sliceSourceBounds
   bottomLeftOrigin="true"
   height="255.1"
   width="255"
   x="0.5"
   y="0.5" />
	</ns:sfw>
<rdf:RDF><cc:Work
     rdf:about=""><dc:format>image/svg+xml</dc:format><dc:type
       rdf:resource="http://purl.org/dc/dcmitype/StillImage" /><dc:title></dc:title></cc:Work></rdf:RDF></metadata>
<g
   class="st0"
   id="g10"
   style="opacity:0.1;fill:#000000;fill-opacity:1">
	<g
   id="g8"
   style="fill:#000000;fill-opacity:1">
		<path
   d="m 132.7,0.5 c 6.2,0 18.1,0.3 33.3,2.3 23.7,3.1 45.1,11.5 60.9,26.3 v 0 c 14.7,15.7 23.1,37.2 26.3,60.9 3,22.6 2.3,38 2.3,38 0,0 0.7,15.4 -2.3,38 -3.1,23.7 -11.5,45.1 -26.3,60.9 v 0 c -15.7,14.8 -37.2,23.2 -60.9,26.3 -15.1,2 -27.1,2.3 -33.3,2.3 -3.1,0 -4.7,-0.1 -4.7,-0.1 0,0 -1.7,0.1 -4.7,0.1 -6.2,0 -18.1,-0.3 -33.3,-2.3 -23.7,-3.1 -45.1,-11.5 -60.9,-26.3 v 0 C 14.4,211.2 6,189.7 2.8,166 -0.2,143.4 0.5,128 0.5,128 0.5,128 -0.2,112.6 2.8,90 6,66.3 14.4,44.8 29.1,29.1 v 0 C 44.9,14.3 66.3,5.9 90,2.8 c 15.2,-2 27.1,-2.3 33.3,-2.3 3.1,0 4.7,0.1 4.7,0.1 0,0 1.7,-0.1 4.7,-0.1"
   id="path6"
   inkscape:connector-curvature="0"
   style="fill:#000000;fill-opacity:1" />
	</g>
</g>
<path
   class="st1"
   d="M251.7,90.4c-3.1-23.4-11.4-44.6-26-60.1l0,0c-15.6-14.6-36.7-22.9-60.1-26C143.2,1.3,128,2,128,2  s-15.2-0.7-37.6,2.3C67,7.4,45.8,15.7,30.3,30.3C15.7,45.8,7.5,67,4.3,90.4c-3,22.3-2.2,37.6-2.2,37.6s-0.7,15.2,2.2,37.6  c3.1,23.4,11.4,44.6,26,60.1l0,0c15.6,14.6,36.7,22.9,60.1,26c22.3,3,37.6,2.2,37.6,2.2s15.2,0.7,37.6-2.2  c23.4-3.1,44.6-11.4,60.1-26l0,0c14.6-15.6,22.9-36.7,26-60.1c3-22.3,2.2-37.6,2.2-37.6S254.7,112.8,251.7,90.4"
   id="path12"
   style="fill:#2196f3;fill-opacity:1" />
<path
   class="st2"
   d="m 128.9,158.7 c -85.933333,64.86667 -42.966667,32.43333 0,0 z M 76.3,136 c 0,1.4 -0.6,2.7 -1.6,3.7 l -14.3,13.1 -7.5,-8.2 10.8,-9.9 c 1,-0.9 1.5,-2.1 1.5,-3.4 v -8.6 c 0,-1.4 -0.6,-2.6 -1.6,-3.5 L 51,108.8 c -3.2,-2.7 -3.9,-7.4 -1.7,-10.9 L 66.4,71 c 2.3,-3.7 7.1,-4.9 10.9,-3 l 12,6.1 c 1.2,0.6 2.5,0.7 3.8,0.2 l 7.7,-3 c 1.6,-0.6 2.8,-2.2 2.9,-3.9 l 1.1,-13.5 c 0.4,-4.3 4,-7.7 8.4,-7.7 h 31.4 c 4.3,0 7.9,3.3 8.3,7.6 l 1.2,13.4 c 0.1,1.3 0.8,2.5 1.9,3.3 l 6.3,4.7 c 1.2,0.9 2.9,1.1 4.3,0.6 l 15.1,-5.5 3.8,10.5 -20.5,7.6 c -1.6,0.6 -3.4,0.3 -4.7,-0.7 L 145.9,76.9 c -1.4,-1 -2.3,-2.6 -2.4,-4.3 l -1.4,-15.1 h -26.3 l -1.6,17.2 c -0.2,2.6 -1.9,4.8 -4.4,5.6 L 93,86.3 C 91.3,86.9 89.4,86.8 87.7,86 L 74.3,79.2 60.2,101.3 74,113.2 c 1.3,1.2 2.1,2.8 2.1,4.6 z m 128.5,9.5 c 3.4,2.7 4.3,7.5 1.9,11.1 l -16.9,26.5 c -2.3,3.7 -7.1,4.9 -11,2.9 l -12,-6.3 c -1.6,-0.8 -3.4,-0.7 -4.9,0.4 l -6.7,4.9 c -1.1,0.8 -1.7,2 -1.9,3.3 l -1.3,13.4 c -0.4,4.3 -4,7.6 -8.4,7.6 h -31.8 c -4.2,0 -7.8,-3.1 -8.3,-7.3 l -2.1,-16.2 c -0.2,-1.3 -0.9,-2.5 -2.1,-3.3 l -7.2,-4.6 C 91,177.2 89.7,177 88.4,177.3 l -13.8,3.7 -2.9,-10.8 18.8,-5 c 1.4,-0.4 2.8,-0.1 4,0.6 l 15.3,9.8 c 1.5,1 2.5,2.5 2.8,4.3 l 2.6,18.1 h 26.3 l 1.4,-14.9 c 0.2,-1.8 1.1,-3.5 2.5,-4.6 l 14.1,-10.9 c 2,-1.6 4.8,-1.8 7.1,-0.6 l 15.3,7.9 14.1,-22.1 -12,-9.3 c -1.4,-1.1 -2.2,-2.6 -2.3,-4.4 l -1.3,-18 c -0.1,-1.7 0.6,-3.3 2,-4.3 l 17.4,-13.2 6.7,8.9 -12.8,9.7 c -1.2,0.9 -1.9,2.4 -1.8,4 l 0.5,7.9 c 0.1,1.3 0.7,2.5 1.8,3.3 z"
   id="path14"
   inkscape:connector-curvature="0"
   style="clip-rule:evenodd;fill:#ffffff;fill-rule:evenodd"
   sodipodi:nodetypes="cccccccssccccccccccsscccccccccccccccccccccccccccccccsscccccccccccccccccccccccccccccc" />
<style
   id="style2-6"
   type="text/css">
	.st0{opacity:0.1;}
	.st1{fill:#29ABE2;}
	.st2{fill:#FFFFFF;}
</style><g
   id="g850"
   transform="translate(408.13531,83.525424)"><g
     id="g20"
     transform="matrix(0.34722222,0,0,0.34722222,-324.57975,-1.657368)">
	<path
   id="path12-5"
   d="m 56,74.7 c 19.4,-3.2 38.8,-6.4 58.2,-9.6 0,19.7 -0.1,39.4 -0.1,59.2 H 56 c 0,-16.5 0,-33 0,-49.6 z"
   class="st2"
   inkscape:connector-curvature="0"
   style="fill:#ffffff" />
	<path
   id="path14-3"
   d="m 122,64.1 c 26,-3.1 52,-6.2 78,-9.3 v 69.6 h -78 c 0,-20.2 0,-40.2 0,-60.3 z"
   class="st2"
   inkscape:connector-curvature="0"
   style="fill:#ffffff" />
	<path
   id="path16"
   d="m 56,181.3 c 19.4,3.2 38.8,6.4 58.2,9.6 0,-19.7 -0.1,-39.4 -0.1,-59.2 H 56 c 0,16.5 0,33 0,49.6 z"
   class="st2"
   inkscape:connector-curvature="0"
   style="fill:#ffffff" />
	<path
   id="path18"
   d="m 122,191.9 c 26,3.1 52,6.2 78,9.3 v -69.6 h -78 c 0,20.2 0,40.2 0,60.3 z"
   class="st2"
   inkscape:connector-curvature="0"
   style="fill:#ffffff" />
</g></g></svg>