<?xml version="1.0" encoding="UTF-8" standalone="no"?>
<!-- Generator: Adobe Illustrator 23.0.0, SVG Export Plug-In . SVG Version: 6.00 Build 0)  -->

<svg
   xmlns:dc="http://purl.org/dc/elements/1.1/"
   xmlns:cc="http://creativecommons.org/ns#"
   xmlns:rdf="http://www.w3.org/1999/02/22-rdf-syntax-ns#"
   xmlns:svg="http://www.w3.org/2000/svg"
   xmlns="http://www.w3.org/2000/svg"
   xmlns:sodipodi="http://sodipodi.sourceforge.net/DTD/sodipodi-0.dtd"
   xmlns:inkscape="http://www.inkscape.org/namespaces/inkscape"
   version="1.1"
   id="레이어_1"
   x="0px"
   y="0px"
   viewBox="0 0 256 256"
   style="enable-background:new 0 0 256 256;"
   xml:space="preserve"
   sodipodi:docname="xorg.svg"
   inkscape:version="0.92.5 (2060ec1f9f, 2020-04-08)"><metadata
   id="metadata23"><rdf:RDF><cc:Work
       rdf:about=""><dc:format>image/svg+xml</dc:format><dc:type
         rdf:resource="http://purl.org/dc/dcmitype/StillImage" /><dc:title></dc:title></cc:Work></rdf:RDF></metadata><defs
   id="defs21" /><sodipodi:namedview
   pagecolor="#ffffff"
   bordercolor="#666666"
   borderopacity="1"
   objecttolerance="10"
   gridtolerance="10"
   guidetolerance="10"
   inkscape:pageopacity="0"
   inkscape:pageshadow="2"
   inkscape:window-width="2928"
   inkscape:window-height="1672"
   id="namedview19"
   showgrid="false"
   inkscape:zoom="3.6875"
   inkscape:cx="104.19554"
   inkscape:cy="155.42342"
   inkscape:window-x="144"
   inkscape:window-y="56"
   inkscape:window-maximized="1"
   inkscape:current-layer="레이어_1" />
<style
   type="text/css"
   id="style2">
	.st0{opacity:0.1;}
	.st1{fill:#6166DA;}
	.st2{fill:#FFFFFF;}
	.st3{fill:#4D4EAD;}
</style>
<g
   class="st0"
   id="g8">
	<g
   id="g6">
		<path
   d="M132.7,0.5c6.2,0,18.1,0.3,33.3,2.3c23.7,3.1,45.1,11.5,60.9,26.3h0C241.6,44.8,250,66.3,253.2,90c3,22.6,2.3,38,2.3,38    s0.7,15.4-2.3,38c-3.1,23.7-11.5,45.1-26.3,60.9l0,0c-15.7,14.8-37.2,23.2-60.9,26.3c-15.1,2-27.1,2.3-33.3,2.3    c-3.1,0-4.7-0.1-4.7-0.1s-1.7,0.1-4.7,0.1c-6.2,0-18.1-0.3-33.3-2.3c-23.7-3.1-45.1-11.5-60.9-26.3l0,0    C14.4,211.2,6,189.7,2.8,166c-3-22.6-2.3-38-2.3-38s-0.7-15.4,2.3-38C6,66.3,14.4,44.8,29.1,29.1h0C44.9,14.3,66.3,5.9,90,2.8    c15.2-2,27.1-2.3,33.3-2.3c3.1,0,4.7,0.1,4.7,0.1S129.7,0.5,132.7,0.5"
   id="path4" />
	</g>
</g>
<path
   class="st1"
   d="M251.7,90.4c-3.1-23.4-11.4-44.6-26-60.1l0,0c-15.6-14.6-36.7-22.9-60.1-26C143.2,1.3,128,2,128,2  s-15.2-0.7-37.6,2.3C67,7.4,45.8,15.7,30.3,30.3C15.7,45.8,7.5,67,4.3,90.4c-3,22.3-2.2,37.6-2.2,37.6s-0.7,15.2,2.2,37.6  c3.1,23.4,11.4,44.6,26,60.1l0,0c15.6,14.6,36.7,22.9,60.1,26c22.3,3,37.6,2.2,37.6,2.2s15.2,0.7,37.6-2.2  c23.4-3.1,44.6-11.4,60.1-26l0,0c14.6-15.6,22.9-36.7,26-60.1c3-22.3,2.2-37.6,2.2-37.6S254.7,112.8,251.7,90.4"
   id="path10"
   style="fill:#dae0e2;fill-opacity:1" />

<g
   id="g842"
   transform="matrix(5.9376415,0,0,5.9376415,-14.248894,-112.44425)"
   style="stroke-width:0.76923001"><g
     id="g834"
     font-size="12.666px"
     transform="translate(-384.57,-483.8)"
     style="font-size:12.66600037px"><text
   id="text832"
   y="132.19"
   x="730.88"
   style="font-family:'Droid Sans';stroke-width:0.76923001" />


</g><rect
     id="rect838"
     height="0"
     width="0.045000002"
     y="38.529999"
     x="45.98"
     style="opacity:0.40741003;fill:#000cff" /><g
     id="g851"
     transform="matrix(0.72898295,0,0,0.72898295,0.55417048,16.672545)"><g
       id="g838"
       transform="matrix(1.3717415,0,0,1.3717415,-0.81911506,-22.913295)"
       style="stroke-width:0.76923001"><g
         id="g830"
         font-size="12.666px"
         transform="translate(-384.57,-483.8)"
         style="font-size:12.66600037px"><text
           id="text828"
           y="132.19"
           x="730.88"
           style="font-family:'Droid Sans';stroke-width:0.76923001" />
</g><path
         id="path832"
         d="m 11.29,53.991 9.8168,-12.85 -10.107,-14.129 6.4959,0.0054 8.0532,11.11 -12.041,15.864 h -2.2181 z m 19.214,0.0091 -7.9976,-11.129 12.141,-15.871 h 2.1633 l -9.8569,12.911 10.046,14.089 z"
         inkscape:connector-curvature="0"
         style="fill:#373a3d" /><rect
         id="rect834"
         height="0"
         width="0.045000002"
         y="38.529999"
         x="45.98"
         style="opacity:0.40741003;fill:#000cff" /><path
         id="path836"
         d="m 23.999,31.929 c -0.781,0 -1.6154,0.05974 -2.3665,0.13098 1.3382,1.7243 2.4486,3.1844 3.7265,4.8426 -0.71726,-1.5249 -2.1914,-2.9872 -1.6818,-3.7392 0.50447,-0.74443 1.434,-0.61913 1.5048,-0.61913 1.4902,0 2.9247,0.16627 4.2657,0.474 l 0.31435,-0.42769 c -1.7887,-0.45489 -3.7314,-0.66152 -5.763,-0.66152 z m 8.071,1.3916 -0.28953,0.40862 c 4.1318,1.5985 6.9267,4.6516 6.9267,8.1506 0,5.1524 -6.0588,9.3329 -13.525,9.3329 -7.4664,0 -13.528,-4.1805 -13.528,-9.3329 10e-7,-2.8059 1.7975,-5.3245 4.6408,-7.0365 l -0.87411,-1.3158 c -4.4601,1.8683 -7.4202,5.1475 -7.4202,8.8807 0,5.8086 7.1669,10.521 15.999,10.521 8.8317,0 16.001,-4.712 16.001,-10.521 0,-3.8733 -3.1874,-7.2608 -7.9304,-9.0878 z"
         inkscape:connector-curvature="0"
         style="fill:#ec6e28" /></g></g></g></svg>