<?xml version="1.0" encoding="UTF-8" standalone="no"?>
<!-- Generator: Adobe Illustrator 23.0.0, SVG Export Plug-In . SVG Version: 6.00 Build 0)  -->

<svg
   xmlns:dc="http://purl.org/dc/elements/1.1/"
   xmlns:cc="http://creativecommons.org/ns#"
   xmlns:rdf="http://www.w3.org/1999/02/22-rdf-syntax-ns#"
   xmlns:svg="http://www.w3.org/2000/svg"
   xmlns="http://www.w3.org/2000/svg"
   xmlns:sodipodi="http://sodipodi.sourceforge.net/DTD/sodipodi-0.dtd"
   xmlns:inkscape="http://www.inkscape.org/namespaces/inkscape"
   version="1.1"
   id="레이어_1"
   x="0px"
   y="0px"
   viewBox="0 0 256 256"
   style="enable-background:new 0 0 256 256;"
   xml:space="preserve"
   sodipodi:docname="xournal.svg"
   inkscape:version="0.92.5 (2060ec1f9f, 2020-04-08)"><metadata
   id="metadata23"><rdf:RDF><cc:Work
       rdf:about=""><dc:format>image/svg+xml</dc:format><dc:type
         rdf:resource="http://purl.org/dc/dcmitype/StillImage" /><dc:title></dc:title></cc:Work></rdf:RDF></metadata><defs
   id="defs21" /><sodipodi:namedview
   pagecolor="#ffffff"
   bordercolor="#666666"
   borderopacity="1"
   objecttolerance="10"
   gridtolerance="10"
   guidetolerance="10"
   inkscape:pageopacity="0"
   inkscape:pageshadow="2"
   inkscape:window-width="2928"
   inkscape:window-height="1598"
   id="namedview19"
   showgrid="false"
   inkscape:zoom="3.6875"
   inkscape:cx="185.68707"
   inkscape:cy="155.42342"
   inkscape:window-x="144"
   inkscape:window-y="56"
   inkscape:window-maximized="1"
   inkscape:current-layer="g851" />
<style
   type="text/css"
   id="style2">
	.st0{opacity:0.1;}
	.st1{fill:#6166DA;}
	.st2{fill:#FFFFFF;}
	.st3{fill:#4D4EAD;}
</style>
<g
   class="st0"
   id="g8">
	<g
   id="g6">
		<path
   d="M132.7,0.5c6.2,0,18.1,0.3,33.3,2.3c23.7,3.1,45.1,11.5,60.9,26.3h0C241.6,44.8,250,66.3,253.2,90c3,22.6,2.3,38,2.3,38    s0.7,15.4-2.3,38c-3.1,23.7-11.5,45.1-26.3,60.9l0,0c-15.7,14.8-37.2,23.2-60.9,26.3c-15.1,2-27.1,2.3-33.3,2.3    c-3.1,0-4.7-0.1-4.7-0.1s-1.7,0.1-4.7,0.1c-6.2,0-18.1-0.3-33.3-2.3c-23.7-3.1-45.1-11.5-60.9-26.3l0,0    C14.4,211.2,6,189.7,2.8,166c-3-22.6-2.3-38-2.3-38s-0.7-15.4,2.3-38C6,66.3,14.4,44.8,29.1,29.1h0C44.9,14.3,66.3,5.9,90,2.8    c15.2-2,27.1-2.3,33.3-2.3c3.1,0,4.7,0.1,4.7,0.1S129.7,0.5,132.7,0.5"
   id="path4" />
	</g>
</g>
<path
   class="st1"
   d="M251.7,90.4c-3.1-23.4-11.4-44.6-26-60.1l0,0c-15.6-14.6-36.7-22.9-60.1-26C143.2,1.3,128,2,128,2  s-15.2-0.7-37.6,2.3C67,7.4,45.8,15.7,30.3,30.3C15.7,45.8,7.5,67,4.3,90.4c-3,22.3-2.2,37.6-2.2,37.6s-0.7,15.2,2.2,37.6  c3.1,23.4,11.4,44.6,26,60.1l0,0c15.6,14.6,36.7,22.9,60.1,26c22.3,3,37.6,2.2,37.6,2.2s15.2,0.7,37.6-2.2  c23.4-3.1,44.6-11.4,60.1-26l0,0c14.6-15.6,22.9-36.7,26-60.1c3-22.3,2.2-37.6,2.2-37.6S254.7,112.8,251.7,90.4"
   id="path10"
   style="fill:#ececec;fill-opacity:1" />

<g
   id="g842"
   transform="matrix(6.3,0,0,6.3,-22.454237,-124)"
   style="stroke-width:0.76923001"><g
     id="g834"
     font-size="12.666px"
     transform="translate(-384.57,-483.8)"
     style="font-size:12.66600037px"><text
   id="text832"
   y="132.19"
   x="730.88"
   style="font-family:'Droid Sans';stroke-width:0.76923001" />

</g><rect
     id="rect838"
     height="0"
     width="0.045000002"
     y="38.529999"
     x="45.98"
     style="opacity:0.40741003;fill:#000cff" /><g
     id="g851"
     transform="matrix(0.72898295,0,0,0.72898295,0.55417048,16.672545)"><g
       id="g835"
       transform="matrix(1.3333,0,0,1.3333,0.0034045,0.0014748)"><path
         id="path827"
         d="m 19.598,12.742 13.813,15.75 c 2.035,2.449 -1.773,2.801 -2.605,2.59 L 16.4,14.586 c -1.895,-2.078 1.93,-2.852 3.199,-1.844"
         inkscape:connector-curvature="0"
         style="fill:#2d2d2d" /><path
         id="path829"
         d="m 28.21,14.617 -5.676,6.453 -7.762,11.211 c -2.559,5.863 1.937,3.457 2.781,1.742 l 6.645,-10.91 8.04,-8.336 c 1.559,-2.449 -1.012,-4.707 -4.04,-0.16"
         inkscape:connector-curvature="0"
         style="fill:#2d2d2d" /><path
         id="path831"
         d="m 16.555,33.922 c 1.168,0.223 1.582,0.313 2.305,-0.133 -0.074,0.43 -0.148,0.855 -0.223,1.285 -0.707,0.223 -1.418,0.488 -2.125,-0.133"
         inkscape:connector-curvature="0"
         style="fill:#2d2d2d" /><path
         id="path833"
         d="m 31.27,20.01 -11.697,10.734 -1.57,4.258 4.367,-1.289 0.012,0.012 0.023,-0.023 h 0.004 l 11.578,-10.75 c 0,0 0.192,-0.637 -0.979,-1.883 C 32.158,20.17 31.53,20.026 31.27,20.01 Z"
         inkscape:connector-curvature="0"
         style="fill:#3686dd" /></g></g></g></svg>