<svg width="16" height="16" viewBox="0 0 16 16" fill="none" xmlns="http://www.w3.org/2000/svg">
<rect x="1" y="1" width="14" height="14" rx="3" fill="#F9F9F9"/>
<path fill-rule="evenodd" clip-rule="evenodd" d="M3.80005 4.99999C3.80005 4.68173 3.92648 4.3765 4.15152 4.15146C4.37656 3.92642 4.68179 3.79999 5.00005 3.79999H11C11.3183 3.79999 11.6235 3.92642 11.8486 4.15146C12.0736 4.3765 12.2 4.68173 12.2 4.99999V9.79999C12.2 10.1182 12.0736 10.4235 11.8486 10.6485C11.6235 10.8736 11.3183 11 11 11H9.66805L9.74185 11.2934L10.2242 11.7758C10.3081 11.8597 10.3653 11.9666 10.3884 12.083C10.4115 12.1993 10.3997 12.32 10.3543 12.4296C10.3089 12.5392 10.232 12.6329 10.1333 12.6988C10.0347 12.7648 9.9187 12.8 9.80005 12.8H6.20005C6.0814 12.8 5.96542 12.7648 5.86677 12.6988C5.76813 12.6329 5.69124 12.5392 5.64584 12.4296C5.60044 12.32 5.58856 12.1993 5.6117 12.083C5.63484 11.9666 5.69196 11.8597 5.77585 11.7758L6.25825 11.2934L6.33205 11H5.00005C4.68179 11 4.37656 10.8736 4.15152 10.6485C3.92648 10.4235 3.80005 10.1182 3.80005 9.79999V4.99999ZM7.26265 9.19999H5.00005V4.99999H11V9.19999H7.26265Z" fill="#21252B"/>
</svg>
