<svg width="16" height="16" viewBox="0 0 16 16" fill="none" xmlns="http://www.w3.org/2000/svg">
<rect x="1" y="1" width="14" height="14" rx="3" fill="#F9F9F9"/>
<path fill-rule="evenodd" clip-rule="evenodd" d="M4.4 4.40001C4.4 4.08175 4.52643 3.77653 4.75147 3.55148C4.97652 3.32644 5.28174 3.20001 5.6 3.20001H8.3516C8.66984 3.20008 8.97501 3.32655 9.2 3.55161L11.2484 5.60001C11.4735 5.825 11.5999 6.13018 11.6 6.44841V11.6C11.6 11.9183 11.4736 12.2235 11.2485 12.4485C11.0235 12.6736 10.7183 12.8 10.4 12.8H5.6C5.28174 12.8 4.97652 12.6736 4.75147 12.4485C4.52643 12.2235 4.4 11.9183 4.4 11.6V4.40001ZM5.6 8.00001C5.6 7.84088 5.66322 7.68827 5.77574 7.57575C5.88826 7.46323 6.04087 7.40001 6.2 7.40001H9.8C9.95913 7.40001 10.1117 7.46323 10.2243 7.57575C10.3368 7.68827 10.4 7.84088 10.4 8.00001C10.4 8.15914 10.3368 8.31175 10.2243 8.42428C10.1117 8.5368 9.95913 8.60001 9.8 8.60001H6.2C6.04087 8.60001 5.88826 8.5368 5.77574 8.42428C5.66322 8.31175 5.6 8.15914 5.6 8.00001ZM6.2 9.80001C6.04087 9.80001 5.88826 9.86323 5.77574 9.97575C5.66322 10.0883 5.6 10.2409 5.6 10.4C5.6 10.5591 5.66322 10.7118 5.77574 10.8243C5.88826 10.9368 6.04087 11 6.2 11H9.8C9.95913 11 10.1117 10.9368 10.2243 10.8243C10.3368 10.7118 10.4 10.5591 10.4 10.4C10.4 10.2409 10.3368 10.0883 10.2243 9.97575C10.1117 9.86323 9.95913 9.80001 9.8 9.80001H6.2Z" fill="#36ADFB"/>
</svg>
