<svg width="16" height="16" viewBox="0 0 16 16" fill="none" xmlns="http://www.w3.org/2000/svg">
<rect x="1" y="1" width="14" height="14" rx="3" fill="#F9F9F9"/>
<path d="M3.20001 5.60002C3.20001 5.28176 3.32644 4.97654 3.55148 4.7515C3.77653 4.52645 4.08175 4.40002 4.40001 4.40002H7.40001L8.60001 5.60002H11.6C11.9183 5.60002 12.2235 5.72645 12.4485 5.9515C12.6736 6.17654 12.8 6.48176 12.8 6.80002V10.4C12.8 10.7183 12.6736 11.0235 12.4485 11.2486C12.2235 11.4736 11.9183 11.6 11.6 11.6H4.40001C4.08175 11.6 3.77653 11.4736 3.55148 11.2486C3.32644 11.0235 3.20001 10.7183 3.20001 10.4V5.60002Z" fill="#FF598B"/>
</svg>
