<svg width="16" height="16" viewBox="0 0 16 16" fill="none" xmlns="http://www.w3.org/2000/svg">
<rect x="1" y="1" width="14" height="14" rx="3" fill="#F9F9F9"/>
<path fill-rule="evenodd" clip-rule="evenodd" d="M4.40001 3.79999C4.08175 3.79999 3.77653 3.92642 3.55148 4.15146C3.32644 4.3765 3.20001 4.68173 3.20001 4.99999V11C3.20001 11.3182 3.32644 11.6235 3.55148 11.8485C3.77653 12.0736 4.08175 12.2 4.40001 12.2H11.6C11.9183 12.2 12.2235 12.0736 12.4485 11.8485C12.6736 11.6235 12.8 11.3182 12.8 11V4.99999C12.8 4.68173 12.6736 4.3765 12.4485 4.15146C12.2235 3.92642 11.9183 3.79999 11.6 3.79999H4.40001ZM11.6 11H4.40001L6.80001 6.19999L8.60001 9.79999L9.80001 7.39999L11.6 11Z" fill="#B467F9"/>
</svg>
