<svg width="16" height="16" viewBox="0 0 16 16" fill="none" xmlns="http://www.w3.org/2000/svg">
<rect x="1" y="1" width="14" height="14" rx="3" fill="#F9F9F9"/>
<path d="M12.8 3.80002C12.8 3.71128 12.7802 3.62366 12.7422 3.54347C12.7042 3.46328 12.6489 3.39252 12.5803 3.33628C12.5117 3.28004 12.4314 3.23972 12.3453 3.21824C12.2592 3.19675 12.1694 3.19462 12.0824 3.21202L6.08241 4.41202C5.94645 4.43919 5.82409 4.51262 5.73614 4.61982C5.6482 4.72701 5.6001 4.86136 5.60001 5.00002V10.4684C5.40331 10.4226 5.20198 10.3996 5.00001 10.4C4.00581 10.4 3.20001 10.937 3.20001 11.6C3.20001 12.263 4.00581 12.8 5.00001 12.8C5.99421 12.8 6.80001 12.263 6.80001 11.6V6.69202L11.6 5.73202V9.26842C11.4033 9.22258 11.202 9.19963 11 9.20002C10.0058 9.20002 9.20001 9.73702 9.20001 10.4C9.20001 11.063 10.0058 11.6 11 11.6C11.9942 11.6 12.8 11.063 12.8 10.4V3.80002Z" fill="#1FE0A6"/>
</svg>
