<svg width="16" height="16" viewBox="0 0 16 16" fill="none" xmlns="http://www.w3.org/2000/svg">
<rect x="1" y="1" width="14" height="14" rx="3" fill="#F9F9F9"/>
<path d="M8.42423 3.37581C8.31171 3.26332 8.15912 3.20013 8.00003 3.20013C7.84093 3.20013 7.68834 3.26332 7.57583 3.37581L3.37582 7.57581C3.26653 7.68897 3.20605 7.84053 3.20742 7.99785C3.20879 8.15516 3.27189 8.30565 3.38313 8.4169C3.49438 8.52814 3.64487 8.59124 3.80218 8.59261C3.9595 8.59398 4.11106 8.5335 4.22422 8.42421L4.40002 8.24841V12.2C4.40002 12.3591 4.46324 12.5117 4.57576 12.6243C4.68828 12.7368 4.8409 12.8 5.00003 12.8H6.20003C6.35916 12.8 6.51177 12.7368 6.62429 12.6243C6.73681 12.5117 6.80003 12.3591 6.80003 12.2V11C6.80003 10.8409 6.86324 10.6883 6.97576 10.5757C7.08828 10.4632 7.2409 10.4 7.40003 10.4H8.60003C8.75916 10.4 8.91177 10.4632 9.02429 10.5757C9.13681 10.6883 9.20003 10.8409 9.20003 11V12.2C9.20003 12.3591 9.26324 12.5117 9.37576 12.6243C9.48828 12.7368 9.6409 12.8 9.80003 12.8H11C11.1592 12.8 11.3118 12.7368 11.4243 12.6243C11.5368 12.5117 11.6 12.3591 11.6 12.2V8.24841L11.7758 8.42421C11.889 8.5335 12.0405 8.59398 12.1979 8.59261C12.3552 8.59124 12.5057 8.52814 12.6169 8.4169C12.7282 8.30565 12.7913 8.15516 12.7926 7.99785C12.794 7.84053 12.7335 7.68897 12.6242 7.57581L8.42423 3.37581V3.37581Z" fill="#FE7CBD"/>
</svg>
