<svg id="Capa_1" enable-background="new 0 0 512 512" height="512" viewBox="0 0 512 512" width="512" xmlns="http://www.w3.org/2000/svg" xmlns:xlink="http://www.w3.org/1999/xlink"><linearGradient id="SVGID_1_" gradientUnits="userSpaceOnUse" x1="256" x2="256" y1="512" y2="0"><stop offset="0" stop-color="#5558ff"/><stop offset="1" stop-color="#00c0ff"/></linearGradient><g><g><path d="m376 90h-45v-75c0-8.284-6.716-15-15-15s-15 6.716-15 15v75h-90v-75c0-8.284-6.716-15-15-15s-15 6.716-15 15v75h-45c-8.284 0-15 6.716-15 15v101.977c0 35.101 15.72 67.809 43.129 89.736 20.255 16.204 31.871 40.373 31.871 66.31v11.977c0 8.284 6.716 15 15 15h30v107c0 8.284 6.716 15 15 15s15-6.716 15-15v-107h30c8.284 0 15-6.716 15-15v-11.977c0-25.938 11.616-50.107 31.87-66.311 27.41-21.928 43.13-54.635 43.13-89.736v-101.976c0-8.284-6.716-15-15-15zm-15 116.977c0 25.938-11.616 50.107-31.87 66.311-26.622 21.297-42.217 52.761-43.091 86.713h-60.078c-.875-33.952-16.469-65.416-43.09-86.713-20.255-16.205-31.871-40.374-31.871-66.311v-86.977h210zm-135 18.023h31.972l-14.453 21.68c-4.595 6.893-2.732 16.206 4.161 20.801 6.863 4.575 16.185 2.762 20.801-4.161l30-45c3.068-4.603 3.354-10.521.745-15.398-2.611-4.877-7.694-7.922-13.226-7.922h-31.972l14.453-21.68c4.595-6.893 2.732-16.206-4.161-20.801-6.892-4.594-16.205-2.732-20.801 4.161l-30 45c-3.068 4.603-3.354 10.521-.744 15.398s7.693 7.922 13.225 7.922z" fill="url(#SVGID_1_)"/></g></g></svg>