<svg id="Capa_1" enable-background="new 0 0 512 512" height="512" viewBox="0 0 512 512" width="512" xmlns="http://www.w3.org/2000/svg" xmlns:xlink="http://www.w3.org/1999/xlink"><linearGradient id="SVGID_1_" gradientUnits="userSpaceOnUse" x1="256" x2="256" y1="512" y2="0"><stop offset="0" stop-color="#a93aff"/><stop offset="1" stop-color="#ff81ff"/></linearGradient><g><g><path d="m171.938 408.85-11.397 11.397c-5.858 5.858-5.858 15.355 0 21.213 5.857 5.857 15.355 5.858 21.213 0l11.397-11.397c17.535 13.143 39.298 20.937 62.849 20.937s45.314-7.794 62.849-20.938l11.397 11.397c5.857 5.858 15.354 5.858 21.213 0 5.858-5.858 5.858-15.355 0-21.213l-11.397-11.397c13.144-17.535 20.938-39.298 20.938-62.849s-7.794-45.314-20.938-62.85l11.397-11.397c5.858-5.858 5.858-15.355 0-21.213-5.857-5.857-15.355-5.858-21.213 0l-11.397 11.397c-17.535-13.143-39.298-20.937-62.849-20.937s-45.314 7.794-62.849 20.938l-11.397-11.397c-5.856-5.857-15.354-5.858-21.213 0-5.858 5.858-5.858 15.355 0 21.213l11.397 11.397c-13.144 17.535-20.938 39.298-20.938 62.849s7.794 45.314 20.938 62.85zm84.062-137.85c41.355 0 75 33.645 75 75s-33.645 75-75 75-75-33.645-75-75 33.645-75 75-75zm0 120c24.813 0 45-20.187 45-45s-20.187-45-45-45-45 20.187-45 45 20.187 45 45 45zm0-60c8.271 0 15 6.729 15 15s-6.729 15-15 15-15-6.729-15-15 6.729-15 15-15zm0-180c8.284 0 15-6.716 15-15s-6.716-15-15-15-15 6.716-15 15 6.716 15 15 15zm-74.246 59.247c5.857 5.857 15.355 5.858 21.213 0l11.704-11.704c11.859 7.863 26.065 12.457 41.329 12.457s29.47-4.594 41.33-12.458l11.704 11.704c5.857 5.858 15.354 5.858 21.213 0 5.858-5.858 5.858-15.355 0-21.213l-11.704-11.704c7.863-11.859 12.457-26.065 12.457-41.329s-4.594-29.47-12.458-41.329l11.704-11.704c5.858-5.858 5.858-15.355 0-21.213-5.857-5.857-15.355-5.858-21.213 0l-11.703 11.704c-11.86-7.864-26.066-12.458-41.33-12.458s-29.47 4.594-41.33 12.458l-11.704-11.704c-5.856-5.857-15.354-5.858-21.213 0-5.858 5.858-5.858 15.355 0 21.213l11.704 11.704c-7.863 11.859-12.457 26.065-12.457 41.329s4.594 29.47 12.458 41.329l-11.704 11.704c-5.858 5.858-5.858 15.356 0 21.214zm74.246-119.247c24.813 0 45 20.187 45 45s-20.187 45-45 45-45-20.187-45-45 20.187-45 45-45zm150-91h-300c-8.284 0-15 6.716-15 15v482c0 8.284 6.716 15 15 15h300c8.284 0 15-6.716 15-15v-482c0-8.284-6.716-15-15-15zm-15 482h-270v-452h270z" fill="url(#SVGID_1_)"/></g></g></svg>