<svg width="128" height="128" viewBox="0 0 128 128" fill="none" xmlns="http://www.w3.org/2000/svg">
<g clip-path="url(#clip0)">
<path d="M123.422 87.7904C128.796 67.8622 123.756 46.8626 109.912 31.544C110.749 29.6712 111.089 27.6099 110.817 25.5261C110.429 22.545 108.906 19.8937 106.521 18.0624C82.0506 -0.761318 46.6534 -0.768568 22.1898 18.0624C18.1617 21.1562 16.6089 26.6419 18.8 31.5425C5.07314 46.7336 -0.000988029 67.5482 5.17414 87.3404C0.852284 90.1205 -1.15377 95.6091 0.67778 100.634L5.80841 114.73C7.93146 120.555 14.3639 123.59 20.2265 121.454L24.4464 119.919C25.4969 121.19 26.7482 122.282 28.2872 123C30.9413 124.233 33.9941 124.428 36.8897 123.373C39.7133 122.344 41.9656 120.279 43.2364 117.557C44.5071 114.833 44.6389 111.779 43.6099 108.955L33.3521 80.7633C32.3231 77.9397 30.2575 75.6839 27.533 74.4131C24.8084 73.1461 21.7541 73.0068 18.934 74.0396C16.1104 75.0686 13.8546 77.1342 12.5838 79.8552C12.1563 80.7725 11.9058 81.7325 11.7371 82.703C8.37372 66.3549 12.8806 49.5057 24.0269 36.9351C28.484 39.1782 32.8293 38.2754 35.9084 35.8979C52.3003 23.2778 76.4107 23.2778 92.8029 35.8979C96.2212 38.5302 100.926 38.7452 104.681 36.9316C116.304 50.0305 120.661 67.7504 116.477 84.7156L116.441 84.7029C116.456 83.0493 116.144 81.3995 115.424 79.8555C114.153 77.1344 111.898 75.0689 109.074 74.0398C106.25 73.0181 103.196 73.1463 100.472 74.4133C97.7505 75.6841 95.6849 77.9399 94.6559 80.7635L84.3944 108.955C83.3654 111.779 83.4971 114.833 84.7679 117.558C86.7055 121.706 90.8066 124.058 94.9709 124.058C96.5932 124.058 98.2083 123.703 99.7208 123C101.258 122.282 102.508 121.19 103.558 119.919L107.778 121.454C113.552 123.559 120.049 120.644 122.196 114.73L127.326 100.635C129.069 95.8546 127.314 90.6805 123.422 87.7904V87.7904ZM21.5013 81.0855C23.4756 80.3755 25.6004 81.3975 26.3062 83.3268L36.5639 111.519C37.2647 113.455 36.2857 115.609 34.3226 116.327C34.3226 116.327 34.3226 116.327 34.3189 116.327C32.3103 117.052 30.2078 115.982 29.514 114.086L19.2563 85.8939C18.552 83.9478 19.5428 81.799 21.5013 81.0855V81.0855ZM13.4921 91.9805L21.1863 113.126L17.6632 114.408C15.7187 115.104 13.5616 114.108 12.8548 112.167L7.72421 98.0707C7.02344 96.1339 8.00247 93.9803 9.96552 93.2623L13.4921 91.9805ZM102.632 29.2689C101.413 30.8547 98.9735 31.1842 97.3732 29.9502C78.2968 15.2648 50.4218 15.2648 31.3306 29.9575C29.6688 31.2345 27.322 30.8865 26.0789 29.2689C24.8021 27.6099 25.1357 25.2586 26.7602 24.0101C37.6515 15.6308 50.9501 11.4415 63.9984 11.4415C77.0467 11.4415 91.0596 15.6311 101.951 24.0101C103.578 25.2601 103.907 27.6122 102.632 29.2689V29.2689ZM98.49 114.086C97.7765 116.036 95.6379 117.027 93.6816 116.327C91.7163 115.608 90.7403 113.453 91.4403 111.519L101.702 83.3268C102.401 81.416 104.505 80.3707 106.51 81.0855C108.476 81.8043 109.452 83.9593 108.752 85.8939L98.49 114.086ZM120.28 98.0707L115.146 112.167C114.442 114.112 112.316 115.109 110.345 114.408L106.822 113.126L114.516 91.9805L117.886 93.2068C117.903 93.2128 117.915 93.2271 117.933 93.2328C117.948 93.2378 117.963 93.2356 117.978 93.2401L118.039 93.2621C120.004 93.9811 120.98 96.1361 120.28 98.0707V98.0707Z" fill="url(#paint0_linear)"/>
</g>
<defs>
<linearGradient id="paint0_linear" x1="-0.00012207" y1="124.058" x2="151.177" y2="53.8418" gradientUnits="userSpaceOnUse">
<stop stop-color="#0357D1"/>
<stop offset="1" stop-color="#27CDFC"/>
</linearGradient>
<clipPath id="clip0">
<rect width="128" height="128" fill="white"/>
</clipPath>
</defs>
</svg>
