<svg id="Capa_1" enable-background="new 0 0 512 512" height="512" viewBox="0 0 512 512" width="512" xmlns="http://www.w3.org/2000/svg" xmlns:xlink="http://www.w3.org/1999/xlink"><linearGradient id="lg1"><stop offset="0" stop-color="#00b59c"/><stop offset="1" stop-color="#9cffac"/></linearGradient><linearGradient id="SVGID_1_" gradientUnits="userSpaceOnUse" x1="256" x2="256" xlink:href="#lg1" y1="731.002" y2="-222.11"/><linearGradient id="SVGID_2_" gradientUnits="userSpaceOnUse" x1="256" x2="256" xlink:href="#lg1" y1="763.503" y2="-74.234"/><g><path d="m316 0h-120c-8.284 0-15 6.716-15 15v45h-45c-8.284 0-15 6.716-15 15v422c0 8.284 6.716 15 15 15h240c8.284 0 15-6.716 15-15v-422c0-8.284-6.716-15-15-15h-45v-45c0-8.284-6.716-15-15-15zm-105 30h90v30h-90zm-60 452v-271h210v271zm210-301h-210v-91h210z" fill="url(#SVGID_1_)"/><path d="m286 331h-35.729l19.146-38.292c3.705-7.41.701-16.419-6.708-20.125-7.409-3.704-16.42-.702-20.125 6.708l-30 60c-2.325 4.649-2.076 10.172.657 14.594s7.561 7.114 12.76 7.114h35.729l-19.146 38.292c-3.705 7.41-.701 16.419 6.708 20.125 7.424 3.712 16.427.687 20.125-6.708l30-60c2.325-4.649 2.076-10.172-.657-14.594s-7.561-7.114-12.76-7.114z" fill="url(#SVGID_2_)"/></g></svg>