<svg id="Capa_1" enable-background="new 0 0 511.999 511.999" height="512" viewBox="0 0 511.999 511.999" width="512" xmlns="http://www.w3.org/2000/svg" xmlns:xlink="http://www.w3.org/1999/xlink"><linearGradient id="SVGID_1_" gradientUnits="userSpaceOnUse" x1="255.999" x2="255.999" y1="240" y2="0"><stop offset="0" stop-color="#a93aff"/><stop offset="1" stop-color="#ff81ff"/></linearGradient><g><g><path d="m286.999 210c8.271 0 15 6.729 15 15 0 8.284 6.716 15 15 15s15-6.716 15-15c0-24.813-20.187-45-45-45-8.284 0-15 6.716-15 15s6.715 15 15 15zm0-60c41.355 0 75 33.645 75 75 0 8.284 6.716 15 15 15s15-6.716 15-15c0-57.897-47.103-105-105-105-8.284 0-15 6.716-15 15s6.715 15 15 15zm0-90c-8.284 0-15 6.716-15 15s6.716 15 15 15c74.439 0 135 60.561 135 135 0 8.284 6.716 15 15 15s15-6.716 15-15c0-90.981-74.019-165-165-165zm0-60c-8.284 0-15 6.716-15 15s6.716 15 15 15c107.523 0 195 87.477 195 195 0 8.284 6.716 15 15 15s15-6.716 15-15c0-124.065-100.935-225-225-225zm120.646 388.857-76.367-50.912c-17.786-11.856-41.666-9.493-56.781 5.623l-20.093 20.093c-11.794-1.71-39.825-8.726-68.583-37.483-28.758-28.758-35.773-56.788-37.483-68.583l20.093-20.093c15.115-15.116 17.479-38.996 5.622-56.782l-50.912-76.367c-7.508-11.262-19.539-18.486-33.008-19.82-13.473-1.334-26.684 3.391-36.253 12.962l-31.83 31.828c-15.167 15.168-23.158 35.881-21.926 56.829 2.4 40.801 20.072 122.892 111.451 214.271s173.471 109.051 214.271 111.451c20.931 1.232 41.65-6.749 56.829-21.927l31.828-31.829c9.571-9.571 14.295-22.785 12.961-36.253-1.333-13.469-8.557-25.5-19.819-33.008zm-14.355 48.049-31.828 31.828c-9.113 9.113-21.448 13.918-33.854 13.192-36.548-2.15-110.458-18.354-194.82-102.716-84.362-84.362-100.565-158.272-102.716-194.82-.729-12.401 4.079-24.741 13.191-33.854l31.829-31.828c6.7-6.699 17.842-5.583 23.087 2.286l50.912 76.367c3.953 5.929 3.165 13.889-1.874 18.928l-25.036 25.035c-2.813 2.813-4.394 6.628-4.394 10.607 0 1.986.532 49.172 46.82 95.459 46.287 46.288 93.473 46.82 95.459 46.82 3.979 0 7.793-1.581 10.607-4.394l25.035-25.036c5.038-5.039 12.998-5.827 18.928-1.874l76.367 50.911c7.87 5.247 8.987 16.389 2.287 23.089z" fill="url(#SVGID_1_)"/></g></g></svg>