<svg id="Capa_1" enable-background="new 0 0 512 512" height="512" viewBox="0 0 512 512" width="512" xmlns="http://www.w3.org/2000/svg" xmlns:xlink="http://www.w3.org/1999/xlink"><linearGradient id="SVGID_1_" gradientUnits="userSpaceOnUse" x1="256" x2="256" y1="451" y2="61"><stop offset="0" stop-color="#fd5900"/><stop offset="1" stop-color="#ffde00"/></linearGradient><g><g><path d="m497 121h-81.742l-25.84-51.709c-2.549-5.083-7.734-8.291-13.418-8.291h-120c-5.684 0-10.869 3.208-13.418 8.291l-25.84 51.709h-126.742v-15c0-8.291-6.709-15-15-15s-15 6.709-15 15v15h-45c-8.291 0-15 6.709-15 15v300c0 8.291 6.709 15 15 15h482c8.291 0 15-6.709 15-15v-300c0-8.291-6.709-15-15-15zm-467 90h75c8.262 0 15 6.724 15 15v120c0 8.276-6.738 15-15 15h-75zm452 210h-166-286v-30h75c24.814 0 45-20.186 45-45v-120c0-24.814-20.186-45-45-45h-75v-30h196c5.684 0 10.869-3.208 13.418-8.291l25.84-51.709h101.484l25.84 51.709c2.549 5.083 7.734 8.291 13.418 8.291h76zm-31-135c0-74.443-60.557-135-135-135s-135 60.557-135 135 60.557 135 135 135 135-60.557 135-135zm-135 105c-57.891 0-105-47.109-105-105s47.109-105 105-105 105 47.109 105 105-47.109 105-105 105zm0-180c-41.367 0-75 33.647-75 75s33.633 75 75 75 75-33.647 75-75-33.633-75-75-75zm0 120c-24.814 0-45-20.186-45-45s20.186-45 45-45 45 20.186 45 45-20.186 45-45 45z" fill="url(#SVGID_1_)"/></g></g></svg>