<svg id="Capa_1" enable-background="new 0 0 512 512" height="512" viewBox="0 0 512 512" width="512" xmlns="http://www.w3.org/2000/svg" xmlns:xlink="http://www.w3.org/1999/xlink"><linearGradient id="SVGID_1_" gradientUnits="userSpaceOnUse" x1="256" x2="256" y1="512" y2="0"><stop offset="0" stop-color="#5558ff"/><stop offset="1" stop-color="#00c0ff"/></linearGradient><g><g><path d="m196 452h120c8.291 0 15-6.709 15-15s-6.709-15-15-15h-120c-8.291 0-15 6.709-15 15s6.709 15 15 15zm0-60h120c8.291 0 15-6.709 15-15s-6.709-15-15-15h-120c-8.291 0-15 6.709-15 15s6.709 15 15 15zm120-180h30c8.291 0 15-6.709 15-15s-6.709-15-15-15h-30c-8.291 0-15 6.709-15 15s6.709 15 15 15zm181-90h-106v-107c0-8.291-6.709-15-15-15h-240c-8.291 0-15 6.709-15 15v107h-106c-8.291 0-15 6.709-15 15v210c0 8.291 6.709 15 15 15h106v135c0 8.291 6.709 15 15 15h240c8.291 0 15-6.709 15-15v-135h106c8.291 0 15-6.709 15-15v-210c0-8.291-6.709-15-15-15zm-346-92h210v92h-210zm210 452h-210v-150h210zm121-150h-91v-15c0-8.291-6.709-15-15-15h-240c-8.291 0-15 6.709-15 15v15h-91v-180h452zm-376-60c24.814 0 45-20.186 45-45s-20.186-45-45-45-45 20.186-45 45 20.186 45 45 45zm0-60c8.276 0 15 6.724 15 15s-6.724 15-15 15-15-6.724-15-15 6.724-15 15-15zm300 0h30c8.291 0 15-6.709 15-15s-6.709-15-15-15h-30c-8.291 0-15 6.709-15 15s6.709 15 15 15z" fill="url(#SVGID_1_)"/></g></g></svg>