<svg width="24" height="24" viewBox="0 0 24 24" fill="none" xmlns="http://www.w3.org/2000/svg">
<path fill-rule="evenodd" clip-rule="evenodd" d="M7.09524 7.83333C7.09524 8.10948 6.87138 8.33333 6.59524 8.33333H5.5C5.22386 8.33333 5 8.55719 5 8.83333V19.8571C5 20.6907 5.33112 21.4901 5.92052 22.0795C6.50992 22.6689 7.30932 23 8.14286 23H16.5238C17.3573 23 18.1567 22.6689 18.7461 22.0795C19.3355 21.4901 19.6667 20.6907 19.6667 19.8571V8.83333C19.6667 8.55719 19.4428 8.33333 19.1667 8.33333H18.0714C17.7953 8.33333 17.5714 8.10948 17.5714 7.83333V1.5C17.5714 1.22386 17.3476 1 17.0714 1H7.59524C7.3191 1 7.09524 1.22386 7.09524 1.5V7.83333ZM9.69048 3.09524C9.41433 3.09524 9.19048 3.3191 9.19048 3.59524V7.83333C9.19048 8.10948 9.41433 8.33333 9.69048 8.33333H14.9762C15.2523 8.33333 15.4762 8.10948 15.4762 7.83333V3.59524C15.4762 3.3191 15.2523 3.09524 14.9762 3.09524H9.69048ZM17.0714 10.4286C17.3476 10.4286 17.5714 10.6524 17.5714 10.9286V19.8571C17.5714 20.135 17.4611 20.4015 17.2646 20.5979C17.0681 20.7944 16.8017 20.9048 16.5238 20.9048H8.14286C7.86501 20.9048 7.59855 20.7944 7.40208 20.5979C7.20561 20.4015 7.09524 20.135 7.09524 19.8571V10.9286C7.09524 10.6524 7.3191 10.4286 7.59524 10.4286H17.0714ZM10.2381 4.34288C10.2381 4.23243 10.3276 4.14288 10.4381 4.14288H11.0857C11.1962 4.14288 11.2857 4.23243 11.2857 4.34288V6.03812C11.2857 6.14858 11.1962 6.23812 11.0857 6.23812H10.4381C10.3276 6.23812 10.2381 6.14858 10.2381 6.03812V4.34288ZM14.4286 4.34288C14.4286 4.23243 14.339 4.14288 14.2286 4.14288H13.581C13.4705 4.14288 13.381 4.23243 13.381 4.34288V6.03812C13.381 6.14858 13.4705 6.23812 13.581 6.23812H14.2286C14.339 6.23812 14.4286 6.14858 14.4286 6.03812V4.34288Z" fill="url(#paint0_linear)"/>
<defs>
<linearGradient id="paint0_linear" x1="12.3333" y1="23" x2="12.3333" y2="1" gradientUnits="userSpaceOnUse">
<stop stop-color="#FD5900"/>
<stop offset="1" stop-color="#FFDE00"/>
</linearGradient>
</defs>
</svg>
