<svg width="16" height="16" viewBox="0 0 16 16" fill="none" xmlns="http://www.w3.org/2000/svg">
<path d="M2 2C1.446 2 1 2.446 1 3V12C1 12.554 1.446 13 2 13H0V14C0 14.554 0.892 15 2 15H14C15.108 15 16 14.554 16 14V13H14C14.554 13 15 12.554 15 12V3C15 2.446 14.554 2 14 2H2ZM3 4H13V12H3V4ZM6 13H10V14H6V13Z" fill="url(#paint0_linear)"/>
<defs>
<linearGradient id="paint0_linear" x1="8" y1="15" x2="8" y2="2" gradientUnits="userSpaceOnUse">
<stop stop-color="#A93AFF"/>
<stop offset="1" stop-color="#FF81FF"/>
</linearGradient>
</defs>
</svg>
