<svg width="128" height="128" viewBox="0 0 128 128" fill="none" xmlns="http://www.w3.org/2000/svg">
<path d="M104.961 122H23.3984C21.5216 122 20 120.478 20 118.602V91.4141C20 89.5372 21.5216 88.0156 23.3984 88.0156H33.5938V81.2188H23.3984C21.5216 81.2188 20 79.6972 20 77.8203V56.9766C20 56.0753 20.358 55.2107 20.9955 54.5734L33.5938 41.9752V9.39844C33.5938 7.52159 35.1153 6 36.9922 6H104.961C106.838 6 108.359 7.52159 108.359 9.39844V77.8203C108.359 79.6972 106.838 81.2188 104.961 81.2188H101.562V88.0156H104.961C106.838 88.0156 108.359 89.5372 108.359 91.4141V118.602C108.359 120.478 106.838 122 104.961 122Z" stroke="url(#paint0_linear)" stroke-width="8" stroke-linecap="round" stroke-linejoin="round"/>
<path d="M50.5859 39.9844C52.4628 39.9844 53.9844 38.4628 53.9844 36.5859V22.9922C53.9844 21.1153 52.4628 19.5938 50.5859 19.5938C48.7091 19.5938 47.1875 21.1153 47.1875 22.9922V36.5859C47.1875 38.4628 48.7091 39.9844 50.5859 39.9844ZM64.1797 39.9844C66.0565 39.9844 67.5781 38.4628 67.5781 36.5859V22.9922C67.5781 21.1153 66.0565 19.5938 64.1797 19.5938C62.3028 19.5938 60.7812 21.1153 60.7812 22.9922V36.5859C60.7812 38.4628 62.3028 39.9844 64.1797 39.9844ZM77.7734 39.9844C79.6503 39.9844 81.1719 38.4628 81.1719 36.5859V22.9922C81.1719 21.1153 79.6503 19.5938 77.7734 19.5938C75.8966 19.5938 74.375 21.1153 74.375 22.9922V36.5859C74.375 38.4628 75.8966 39.9844 77.7734 39.9844ZM91.3672 19.5938C89.4903 19.5938 87.9688 21.1153 87.9688 22.9922V36.5859C87.9688 38.4628 89.4903 39.9844 91.3672 39.9844C93.244 39.9844 94.7656 38.4628 94.7656 36.5859V22.9922C94.7656 21.1153 93.244 19.5938 91.3672 19.5938ZM91.3672 101.609H36.9922C35.1153 101.609 33.5938 103.131 33.5938 105.008C33.5938 106.885 35.1153 108.406 36.9922 108.406H91.3672C93.244 108.406 94.7656 106.885 94.7656 105.008C94.7656 103.131 93.244 101.609 91.3672 101.609Z" fill="url(#paint1_linear)"/>
<defs>
<linearGradient id="paint0_linear" x1="108.359" y1="65.0175" x2="41.5633" y2="70.7041" gradientUnits="userSpaceOnUse">
<stop stop-color="#BE41B4"/>
<stop offset="1" stop-color="#FE1FE8"/>
</linearGradient>
<linearGradient id="paint1_linear" x1="94.7656" y1="64.7791" x2="48.4614" y2="68.3436" gradientUnits="userSpaceOnUse">
<stop stop-color="#BE41B4"/>
<stop offset="1" stop-color="#FE1FE8"/>
</linearGradient>
</defs>
</svg>
