<svg id="Capa_1" enable-background="new 0 0 512.34 512.34" height="512" viewBox="0 0 512.34 512.34" width="512" xmlns="http://www.w3.org/2000/svg" xmlns:xlink="http://www.w3.org/1999/xlink"><linearGradient id="SVGID_1_" gradientUnits="userSpaceOnUse" x1="256.17" x2="256.17" y1="443.797" y2="68.543"><stop offset="0" stop-color="#fd3a84"/><stop offset="1" stop-color="#ffa68d"/></linearGradient><g><g><path d="m507.954 177.013c-.465-.465-.96-.88-1.468-1.271-66.751-70.31-156.777-107.199-250.318-107.199-47.84 0-94.055 9.478-137.359 28.169-48.847 21.084-81.209 47.084-114.426 80.301-5.932 5.932-5.757 15.456 0 21.213l42.78 42.781c6.073 6.072 15.923 5.786 21.66-.467 48.506-52.877 115.04-81.997 187.345-81.997s138.839 29.121 187.345 81.997c5.77 6.289 15.623 6.505 21.66.467l42.78-42.781c.14-.14.26-.291.393-.435.092-.102.188-.202.276-.306 5.165-5.892 4.953-14.852-.668-20.472zm-251.785 131.53c-32.562 0-62.707 14.61-82.707 40.085-4.687 5.971-4.175 14.502 1.192 19.869l70.908 70.909c5.856 5.857 15.359 5.854 21.213 0l70.908-70.909c5.367-5.367 5.879-13.898 1.192-19.869-19.999-25.475-50.144-40.085-82.706-40.085zm0-120c-64.123 0-124.085 26.327-167.215 74.129-5.35 5.929-5.116 15.009.53 20.655l42.339 42.34c6.15 6.152 16.2 5.78 21.895-.729 25.802-29.485 63.144-46.395 102.451-46.395s76.649 16.91 102.451 46.395c5.705 6.521 15.753 6.871 21.895.729l42.339-42.34c5.646-5.646 5.88-14.726.53-20.655-43.128-47.799-103.088-74.129-167.215-74.129z" fill="url(#SVGID_1_)"/></g></g></svg>