<svg width="192" height="192" viewBox="0 0 192 192" fill="none" xmlns="http://www.w3.org/2000/svg">
<path d="M147.09 10.3404C153.992 9.54828 161.403 9.94979 167.517 13.585C172.95 16.58 176.958 21.6151 179.475 27.2362C177.801 27.4098 176.094 27.4098 174.484 27.9415C172.011 30.2203 170.39 33.2262 168.457 35.9499C167.819 31.2621 165.162 26.7804 160.895 24.5884C156.585 22.1034 151.465 23.4707 146.83 22.5158C144.087 21.8213 143.168 18.8697 142.023 16.6343C142.985 14.1059 144.076 10.959 147.09 10.3404Z" fill="url(#paint0_linear)"/>
<path d="M10.0408 36.7963C9.97598 23.1018 21.7073 10.666 35.3506 10.1451C47.3303 10.004 59.3101 10.08 71.2899 10.1126C68.6649 14.388 65.8239 18.5333 63.1773 22.7979C54.2438 22.9173 45.3103 22.6352 36.3984 22.8956C31.1917 23.0258 26.4279 26.3355 24.235 31.0451C23.7489 32.1085 23.36 33.2045 23.0576 34.3439C21.3292 46.5518 22.6687 58.9768 22.0962 71.2715C17.9373 76.0787 14.6534 81.6129 10.0732 86.062C9.95437 69.6438 10.0084 53.2146 10.0408 36.7963Z" fill="url(#paint1_linear)"/>
<path d="M71.2899 10.1126C85.6029 10.0583 99.916 10.0692 114.229 10.08C117.2 9.80872 120.224 11.6535 121.045 14.5834C121.985 17.0901 120.419 19.5099 119.609 21.7996C113.948 23.1994 108.093 22.8088 102.325 22.8196C89.2757 22.7979 76.2265 22.8305 63.1773 22.7979C65.8239 18.5333 68.6649 14.388 71.2899 10.1126Z" fill="url(#paint2_linear)"/>
<path d="M125.323 16.9924C125.366 14.6159 125.366 11.1217 128.348 10.5792C131.07 10.2211 133.932 10.08 136.611 10.8179C138.675 11.8922 138.642 14.3446 138.664 16.363C138.415 18.3814 139.182 20.964 137.724 22.5918C133.965 23.1018 130.13 23.0584 126.36 22.6243C125.139 21.0617 125.593 18.8371 125.323 16.9924Z" fill="url(#paint3_linear)"/>
<path d="M174.484 27.9415C176.094 27.4098 177.801 27.4098 179.475 27.2362C180.361 30.2638 181.16 33.3564 181.247 36.5251C181.16 52.8023 181.279 69.0686 181.171 85.335C177.617 89.4803 174.128 93.7015 171.179 98.3025C169.17 101.254 169.375 104.976 169.321 108.384C169.461 117.423 169.288 126.473 169.234 135.523C169.148 142.425 169.688 149.402 168.392 156.228C168.521 116.131 168.467 76.0353 168.457 35.9499C170.39 33.2262 172.011 30.2203 174.484 27.9415Z" fill="url(#paint4_linear)"/>
<path d="M125.896 28.343C129.946 27.9849 134.019 28.0066 138.07 28.2779C138.945 32.1411 138.588 36.1127 138.631 40.0301C138.696 57.7723 138.729 75.5144 138.793 93.2566C139.29 98.2483 135.866 102.361 133.436 106.376C132.939 106.463 131.956 106.647 131.459 106.745C129.028 103.674 126.987 100.147 125.755 96.4361C125.409 77.2832 125.679 58.0978 125.496 38.9341C125.453 35.4074 125.377 31.8481 125.896 28.343Z" fill="url(#paint5_linear)"/>
<path d="M22.0962 71.2715C22.6687 58.9768 21.3292 46.5518 23.0576 34.3439C22.6147 74.2122 23.0036 114.091 22.8739 153.971C22.5715 158.431 24.6671 162.522 27.5729 165.744C24.9264 169.022 22.3986 172.386 19.9789 175.825C18.6178 174.664 17.3215 173.416 16.0901 172.136C12.2985 167.285 10.0624 161.219 10.03 155.034C9.99758 148.328 9.98678 141.611 10.0732 134.894C14.1241 131.052 17.7536 126.733 20.6595 121.959C22.3662 119.213 22.0854 115.849 22.1502 112.757C21.8585 98.9319 22.2474 85.0963 22.0962 71.2715Z" fill="url(#paint6_linear)"/>
<path d="M181.247 36.5251C181.603 38.3807 181.916 40.2471 181.97 42.1461C181.851 74.3533 181.97 106.571 181.905 138.779C181.819 144.28 182.456 149.858 181.268 155.294C181.139 131.975 181.29 108.655 181.171 85.335C181.279 69.0686 181.16 52.8023 181.247 36.5251Z" fill="url(#paint7_linear)"/>
<path d="M10.0732 86.062C14.6534 81.6129 17.9373 76.0787 22.0962 71.2715C22.2474 85.0963 21.8585 98.9319 22.1502 112.757C22.0854 115.849 22.3662 119.213 20.6595 121.959C17.7536 126.733 14.1241 131.052 10.0732 134.894C9.97598 118.616 9.97598 102.339 10.0732 86.062Z" fill="url(#paint8_linear)"/>
<path d="M171.179 98.3025C174.128 93.7015 177.617 89.4803 181.171 85.335C181.29 108.655 181.139 131.975 181.268 155.294C181.16 161.805 178.6 168.175 174.365 173.08C169.904 177.594 164.114 181.056 157.708 181.696C141.753 180.861 125.755 181.49 109.789 180.763C112.166 176.759 114.812 172.928 117.567 169.174C129.806 169.141 142.045 169.206 154.273 169.141C160.43 169.206 166.21 164.746 167.862 158.81C168.003 158.17 168.262 156.868 168.392 156.228C169.688 149.402 169.148 142.425 169.234 135.523C169.288 126.473 169.461 117.423 169.321 108.384C169.375 104.976 169.17 101.254 171.179 98.3025Z" fill="url(#paint9_linear)"/>
<path d="M19.9789 175.825C22.3986 172.386 24.9264 169.022 27.5729 165.744C30.5112 167.665 33.8059 169.304 37.4138 169.163C47.9893 169.206 58.5647 169.119 69.1402 169.184C66.7961 172.972 64.8733 177.193 61.5786 180.275C58.3811 181.403 54.892 181.034 51.5433 181.11C45.6776 180.915 39.8119 181.295 33.9571 181.707C28.826 181.273 23.9758 179.016 19.9789 175.825Z" fill="url(#paint10_linear)"/>
<path d="M69.1402 169.184C85.2897 169.163 101.428 169.152 117.567 169.174C114.812 172.928 112.166 176.759 109.789 180.763C125.755 181.49 141.753 180.861 157.708 181.696C155.483 181.924 153.236 181.989 151 182C116.411 181.978 81.8221 181.967 47.2439 181.957C42.815 181.924 38.3752 182.098 33.9571 181.707C39.8119 181.295 45.6776 180.915 51.5433 181.11C54.892 181.034 58.3811 181.403 61.5786 180.275C64.8733 177.193 66.7961 172.972 69.1402 169.184Z" fill="url(#paint11_linear)"/>
<path d="M179.475 27.2362C176.958 21.6151 172.95 16.58 167.517 13.585C161.403 9.94979 153.992 9.54828 147.09 10.3404C144.076 10.959 142.985 14.1059 142.023 16.6343C143.168 18.8697 144.087 21.8213 146.83 22.5158C151.465 23.4707 156.585 22.1034 160.895 24.5884C165.162 26.7804 167.819 31.2621 168.457 35.9499M179.475 27.2362C177.801 27.4098 176.094 27.4098 174.484 27.9415C172.011 30.2203 170.39 33.2262 168.457 35.9499M179.475 27.2362C180.361 30.2638 181.16 33.3564 181.247 36.5251M168.457 35.9499C168.467 76.0353 168.521 116.131 168.392 156.228M71.2899 10.1126C59.3101 10.08 47.3303 10.004 35.3506 10.1451C21.7073 10.666 9.97598 23.1018 10.0408 36.7963C10.0084 53.2146 9.95437 69.6438 10.0732 86.062M71.2899 10.1126C68.6649 14.388 65.8239 18.5333 63.1773 22.7979M71.2899 10.1126C85.6029 10.0583 99.916 10.0692 114.229 10.08C117.2 9.80872 120.224 11.6535 121.045 14.5834C121.985 17.0901 120.419 19.5099 119.609 21.7996C113.948 23.1994 108.093 22.8088 102.325 22.8196C89.2757 22.7979 76.2265 22.8305 63.1773 22.7979M63.1773 22.7979C54.2438 22.9173 45.3103 22.6352 36.3984 22.8956C31.1917 23.0258 26.4279 26.3355 24.235 31.0451C23.7489 32.1085 23.36 33.2045 23.0576 34.3439M23.0576 34.3439C21.3292 46.5518 22.6687 58.9768 22.0962 71.2715M23.0576 34.3439C22.6147 74.2122 23.0036 114.091 22.8739 153.971C22.5715 158.431 24.6671 162.522 27.5729 165.744M22.0962 71.2715C17.9373 76.0787 14.6534 81.6129 10.0732 86.062M22.0962 71.2715C22.2474 85.0963 21.8585 98.9319 22.1502 112.757C22.0854 115.849 22.3662 119.213 20.6595 121.959C17.7536 126.733 14.1241 131.052 10.0732 134.894M10.0732 86.062C9.97598 102.339 9.97598 118.616 10.0732 134.894M181.247 36.5251C181.16 52.8023 181.279 69.0686 181.171 85.335M181.247 36.5251C181.603 38.3807 181.916 40.2471 181.97 42.1461C181.851 74.3533 181.97 106.571 181.905 138.779C181.819 144.28 182.456 149.858 181.268 155.294M181.171 85.335C177.617 89.4803 174.128 93.7015 171.179 98.3025C169.17 101.254 169.375 104.976 169.321 108.384C169.461 117.423 169.288 126.473 169.234 135.523C169.148 142.425 169.688 149.402 168.392 156.228M181.171 85.335C181.29 108.655 181.139 131.975 181.268 155.294M168.392 156.228C168.262 156.868 168.003 158.17 167.862 158.81C166.21 164.746 160.43 169.206 154.273 169.141C142.045 169.206 129.806 169.141 117.567 169.174M27.5729 165.744C24.9264 169.022 22.3986 172.386 19.9789 175.825M27.5729 165.744C30.5112 167.665 33.8059 169.304 37.4138 169.163C47.9893 169.206 58.5647 169.119 69.1402 169.184M19.9789 175.825C18.6178 174.664 17.3215 173.416 16.0901 172.136C12.2985 167.285 10.0624 161.219 10.03 155.034C9.99758 148.328 9.98678 141.611 10.0732 134.894M19.9789 175.825C23.9758 179.016 28.826 181.273 33.9571 181.707M181.268 155.294C181.16 161.805 178.6 168.175 174.365 173.08C169.904 177.594 164.114 181.056 157.708 181.696M157.708 181.696C141.753 180.861 125.755 181.49 109.789 180.763C112.166 176.759 114.812 172.928 117.567 169.174M157.708 181.696C155.483 181.924 153.236 181.989 151 182C116.411 181.978 81.8221 181.967 47.2439 181.957C42.815 181.924 38.3752 182.098 33.9571 181.707M117.567 169.174C101.428 169.152 85.2897 169.163 69.1402 169.184M69.1402 169.184C66.7961 172.972 64.8733 177.193 61.5786 180.275C58.3811 181.403 54.892 181.034 51.5433 181.11C45.6776 180.915 39.8119 181.295 33.9571 181.707M125.323 16.9924C125.366 14.6159 125.366 11.1217 128.348 10.5792C131.07 10.2211 133.932 10.08 136.611 10.8179C138.675 11.8922 138.642 14.3446 138.664 16.363C138.415 18.3814 139.182 20.964 137.724 22.5918C133.965 23.1018 130.13 23.0584 126.36 22.6243C125.139 21.0617 125.593 18.8371 125.323 16.9924ZM125.896 28.343C129.946 27.9849 134.019 28.0066 138.07 28.2779C138.945 32.1411 138.588 36.1127 138.631 40.0301C138.696 57.7723 138.729 75.5144 138.793 93.2566C139.29 98.2483 135.866 102.361 133.436 106.376C132.939 106.463 131.956 106.647 131.459 106.745C129.028 103.674 126.987 100.147 125.755 96.4361C125.409 77.2832 125.679 58.0978 125.496 38.9341C125.453 35.4074 125.377 31.8481 125.896 28.343Z" stroke="url(#paint12_linear)" stroke-width="4"/>
<defs>
<linearGradient id="paint0_linear" x1="10" y1="182" x2="217.541" y2="91.5421" gradientUnits="userSpaceOnUse">
<stop stop-color="#0357D1"/>
<stop offset="1" stop-color="#27CDFC"/>
</linearGradient>
<linearGradient id="paint1_linear" x1="10" y1="182" x2="217.541" y2="91.5421" gradientUnits="userSpaceOnUse">
<stop stop-color="#0357D1"/>
<stop offset="1" stop-color="#27CDFC"/>
</linearGradient>
<linearGradient id="paint2_linear" x1="10" y1="182" x2="217.541" y2="91.5421" gradientUnits="userSpaceOnUse">
<stop stop-color="#0357D1"/>
<stop offset="1" stop-color="#27CDFC"/>
</linearGradient>
<linearGradient id="paint3_linear" x1="10" y1="182" x2="217.541" y2="91.5421" gradientUnits="userSpaceOnUse">
<stop stop-color="#0357D1"/>
<stop offset="1" stop-color="#27CDFC"/>
</linearGradient>
<linearGradient id="paint4_linear" x1="10" y1="182" x2="217.541" y2="91.5421" gradientUnits="userSpaceOnUse">
<stop stop-color="#0357D1"/>
<stop offset="1" stop-color="#27CDFC"/>
</linearGradient>
<linearGradient id="paint5_linear" x1="10" y1="182" x2="217.541" y2="91.5421" gradientUnits="userSpaceOnUse">
<stop stop-color="#0357D1"/>
<stop offset="1" stop-color="#27CDFC"/>
</linearGradient>
<linearGradient id="paint6_linear" x1="10" y1="182" x2="217.541" y2="91.5421" gradientUnits="userSpaceOnUse">
<stop stop-color="#0357D1"/>
<stop offset="1" stop-color="#27CDFC"/>
</linearGradient>
<linearGradient id="paint7_linear" x1="10" y1="182" x2="217.541" y2="91.5421" gradientUnits="userSpaceOnUse">
<stop stop-color="#0357D1"/>
<stop offset="1" stop-color="#27CDFC"/>
</linearGradient>
<linearGradient id="paint8_linear" x1="10" y1="182" x2="217.541" y2="91.5421" gradientUnits="userSpaceOnUse">
<stop stop-color="#0357D1"/>
<stop offset="1" stop-color="#27CDFC"/>
</linearGradient>
<linearGradient id="paint9_linear" x1="10" y1="182" x2="217.541" y2="91.5421" gradientUnits="userSpaceOnUse">
<stop stop-color="#0357D1"/>
<stop offset="1" stop-color="#27CDFC"/>
</linearGradient>
<linearGradient id="paint10_linear" x1="10" y1="182" x2="217.541" y2="91.5421" gradientUnits="userSpaceOnUse">
<stop stop-color="#0357D1"/>
<stop offset="1" stop-color="#27CDFC"/>
</linearGradient>
<linearGradient id="paint11_linear" x1="10" y1="182" x2="217.541" y2="91.5421" gradientUnits="userSpaceOnUse">
<stop stop-color="#0357D1"/>
<stop offset="1" stop-color="#27CDFC"/>
</linearGradient>
<linearGradient id="paint12_linear" x1="10" y1="182" x2="217.541" y2="91.5421" gradientUnits="userSpaceOnUse">
<stop stop-color="#0357D1"/>
<stop offset="1" stop-color="#27CDFC"/>
</linearGradient>
</defs>
</svg>
