<svg width="192" height="192" viewBox="0 0 192 192" fill="none" xmlns="http://www.w3.org/2000/svg">
<path d="M39.0948 23.514C38.9375 13.748 47.6965 5.18827 57.3786 5.08337C68.0154 5.03092 78.6521 5.04141 89.2993 5.09386C87.2852 9.32127 84.925 13.3599 82.376 17.2831C73.6169 17.5243 64.8055 16.7376 56.0989 17.8181C54.3576 18.4789 53.0568 19.8741 51.7666 21.1748C50.833 34.413 51.7351 47.7246 51.2945 61.0048C46.8993 65.1378 43.5845 70.2568 39.1158 74.3374C39.0214 57.3963 39.0633 40.4552 39.0948 23.514Z" fill="url(#paint0_linear)"/>
<path d="M89.2993 5.09386C100.177 5.0519 111.055 5.02043 121.944 5.10435C119.972 9.38421 117.517 13.4018 114.842 17.2726C104.017 17.3145 93.191 17.2936 82.376 17.2831C84.925 13.3599 87.2852 9.32127 89.2993 5.09386Z" fill="url(#paint1_linear)"/>
<path d="M121.944 5.10435C128.552 5.31415 135.675 3.96096 141.77 7.23379C145.21 8.90168 147.612 11.9542 149.962 14.8494L149.584 15.2795C146.186 18.93 143.144 22.8847 140.06 26.7974C139.86 25.2973 139.598 23.8078 139.262 22.3392C138.717 20.3146 137.123 18.6782 135.213 17.881C128.479 16.8005 121.629 17.4299 114.842 17.2726C117.517 13.4018 119.972 9.38421 121.944 5.10435Z" fill="url(#paint2_linear)"/>
<path d="M140.06 26.7974C143.144 22.8847 146.186 18.93 149.584 15.2795C151.074 17.6817 151.819 20.4615 151.861 23.2833C151.787 35.5249 151.85 47.7771 151.798 60.0292C147.959 64.8021 144.644 70.0575 140.028 74.1591C139.818 58.3718 139.755 42.5846 140.06 26.7974Z" fill="url(#paint3_linear)"/>
<path d="M51.2945 61.0048C51.7351 47.7246 50.833 34.413 51.7666 21.1748C51.798 70.9492 51.7456 120.734 51.819 170.508C50.9379 162.725 51.5568 154.879 51.3155 147.064C51.4309 134.098 51.4414 121.143 51.284 108.188C51.4624 92.4534 51.4309 76.7291 51.2945 61.0048Z" fill="url(#paint4_linear)"/>
<path d="M139.262 22.3392C139.598 23.8078 139.86 25.2973 140.06 26.7974C139.755 42.5846 139.818 58.3718 140.028 74.1591C139.797 89.9043 139.808 105.639 140.028 121.374C139.776 134.213 139.86 147.064 139.944 159.903C139.923 163.103 139.818 166.323 139.315 169.491C139.2 120.44 139.399 71.3897 139.262 22.3392Z" fill="url(#paint5_linear)"/>
<path d="M151.861 23.2833C152.826 28.203 152.553 33.2277 152.501 38.2103C152.511 76.6661 152.511 115.132 152.501 153.599C152.553 158.581 152.836 163.606 151.871 168.526C151.735 148.364 151.924 128.213 151.756 108.052C151.892 92.0443 151.808 76.0368 151.798 60.0292C151.85 47.7771 151.787 35.5249 151.861 23.2833Z" fill="url(#paint6_linear)"/>
<path d="M140.028 74.1591C144.644 70.0575 147.959 64.8021 151.798 60.0292C151.808 76.0368 151.892 92.0443 151.756 108.052C147.203 111.923 144.308 117.251 140.028 121.374C139.808 105.639 139.797 89.9043 140.028 74.1591Z" fill="url(#paint7_linear)"/>
<path d="M39.1158 74.3374C43.5845 70.2568 46.8993 65.1378 51.2945 61.0048C51.4309 76.7291 51.4624 92.4534 51.284 108.188C46.8258 112.321 43.8362 117.797 39.1368 121.699C39.0109 105.912 39.0529 90.1246 39.1158 74.3374Z" fill="url(#paint8_linear)"/>
<path d="M39.1368 121.699C43.8362 117.797 46.8258 112.321 51.284 108.188C51.4414 121.143 51.4309 134.098 51.3155 147.064C47.0566 151.669 43.6684 157.029 39.1158 161.372C39.0424 148.144 39.0319 134.916 39.1368 121.699Z" fill="url(#paint9_linear)"/>
<path d="M140.028 121.374C144.308 117.251 147.203 111.923 151.756 108.052C151.924 128.213 151.735 148.364 151.871 168.526C151.882 172.921 150.098 177.159 147.392 180.568C143.333 184.67 137.741 187.271 131.909 186.977C106.209 186.799 80.4983 187.229 54.8191 186.715C65.823 186.243 76.8478 186.317 87.8726 186.17C90.1175 185.949 92.8448 186.222 94.5022 184.386C97.1876 181.565 98.8555 177.988 100.66 174.589C111.076 174.568 121.503 174.61 131.92 174.578C135.15 174.809 138.738 172.869 139.315 169.491C139.818 166.323 139.923 163.103 139.944 159.903C139.86 147.064 139.776 134.213 140.028 121.374Z" fill="url(#paint10_linear)"/>
<path d="M39.1158 161.372C43.6684 157.029 47.0566 151.669 51.3155 147.064C51.5568 154.879 50.9379 162.725 51.819 170.508C53.4449 174.474 58.1234 174.82 61.8054 174.631C59.6864 178.774 57.2947 182.771 54.8191 186.715C50.1092 185.834 45.9447 183.201 42.7768 179.666C38.7906 174.421 38.8221 167.634 39.1158 161.372Z" fill="url(#paint11_linear)"/>
<path d="M76.9003 159.903C76.9108 156.494 80.1626 153.62 83.5403 153.966C91.5966 153.945 99.6423 153.913 107.688 153.966C111.695 153.672 115.052 157.963 113.835 161.781C113.353 164.152 111.244 165.809 108.978 166.365C100.093 166.145 91.2084 166.113 82.3235 166.386C79.2395 165.924 76.659 163.092 76.9003 159.903Z" fill="url(#paint12_linear)"/>
<path d="M61.8054 174.631C74.7603 174.547 87.7048 174.578 100.66 174.589C98.8555 177.988 97.1876 181.565 94.5022 184.386C92.8448 186.222 90.1175 185.949 87.8726 186.17C76.8478 186.317 65.823 186.243 54.8191 186.715C57.2947 182.771 59.6864 178.774 61.8054 174.631Z" fill="url(#paint13_linear)"/>
<defs>
<linearGradient id="paint0_linear" x1="47.1128" y1="96" x2="139.969" y2="89.5963" gradientUnits="userSpaceOnUse">
<stop stop-color="#8D01A2"/>
<stop offset="1" stop-color="#FF00D2"/>
</linearGradient>
<linearGradient id="paint1_linear" x1="47.1128" y1="96" x2="139.969" y2="89.5963" gradientUnits="userSpaceOnUse">
<stop stop-color="#8D01A2"/>
<stop offset="1" stop-color="#FF00D2"/>
</linearGradient>
<linearGradient id="paint2_linear" x1="47.1128" y1="96" x2="139.969" y2="89.5963" gradientUnits="userSpaceOnUse">
<stop stop-color="#8D01A2"/>
<stop offset="1" stop-color="#FF00D2"/>
</linearGradient>
<linearGradient id="paint3_linear" x1="47.1128" y1="96" x2="139.969" y2="89.5963" gradientUnits="userSpaceOnUse">
<stop stop-color="#8D01A2"/>
<stop offset="1" stop-color="#FF00D2"/>
</linearGradient>
<linearGradient id="paint4_linear" x1="47.1128" y1="96" x2="139.969" y2="89.5963" gradientUnits="userSpaceOnUse">
<stop stop-color="#8D01A2"/>
<stop offset="1" stop-color="#FF00D2"/>
</linearGradient>
<linearGradient id="paint5_linear" x1="47.1128" y1="96" x2="139.969" y2="89.5963" gradientUnits="userSpaceOnUse">
<stop stop-color="#8D01A2"/>
<stop offset="1" stop-color="#FF00D2"/>
</linearGradient>
<linearGradient id="paint6_linear" x1="47.1128" y1="96" x2="139.969" y2="89.5963" gradientUnits="userSpaceOnUse">
<stop stop-color="#8D01A2"/>
<stop offset="1" stop-color="#FF00D2"/>
</linearGradient>
<linearGradient id="paint7_linear" x1="47.1128" y1="96" x2="139.969" y2="89.5963" gradientUnits="userSpaceOnUse">
<stop stop-color="#8D01A2"/>
<stop offset="1" stop-color="#FF00D2"/>
</linearGradient>
<linearGradient id="paint8_linear" x1="47.1128" y1="96" x2="139.969" y2="89.5963" gradientUnits="userSpaceOnUse">
<stop stop-color="#8D01A2"/>
<stop offset="1" stop-color="#FF00D2"/>
</linearGradient>
<linearGradient id="paint9_linear" x1="47.1128" y1="96" x2="139.969" y2="89.5963" gradientUnits="userSpaceOnUse">
<stop stop-color="#8D01A2"/>
<stop offset="1" stop-color="#FF00D2"/>
</linearGradient>
<linearGradient id="paint10_linear" x1="47.1128" y1="96" x2="139.969" y2="89.5963" gradientUnits="userSpaceOnUse">
<stop stop-color="#8D01A2"/>
<stop offset="1" stop-color="#FF00D2"/>
</linearGradient>
<linearGradient id="paint11_linear" x1="47.1128" y1="96" x2="139.969" y2="89.5963" gradientUnits="userSpaceOnUse">
<stop stop-color="#8D01A2"/>
<stop offset="1" stop-color="#FF00D2"/>
</linearGradient>
<linearGradient id="paint12_linear" x1="47.1128" y1="96" x2="139.969" y2="89.5963" gradientUnits="userSpaceOnUse">
<stop stop-color="#8D01A2"/>
<stop offset="1" stop-color="#FF00D2"/>
</linearGradient>
<linearGradient id="paint13_linear" x1="47.1128" y1="96" x2="139.969" y2="89.5963" gradientUnits="userSpaceOnUse">
<stop stop-color="#8D01A2"/>
<stop offset="1" stop-color="#FF00D2"/>
</linearGradient>
</defs>
</svg>
