<svg width="192" height="192" viewBox="0 0 192 192" fill="none" xmlns="http://www.w3.org/2000/svg">
<path d="M49.7761 24.4801C51.2226 21.4844 55.155 20.1077 58.0694 21.6166C64.2519 24.6674 70.295 28.0045 76.4453 31.1103L76.4132 31.1434C73.0273 34.051 70.3057 37.6304 67.7985 41.331C62.2696 38.4124 56.6658 35.6369 51.2012 32.5862C49.069 30.5817 48.3725 27.1124 49.7761 24.4801Z" fill="#0C95FF"/>
<path d="M67.7985 41.331C70.3057 37.6304 73.0273 34.051 76.4132 31.1434C82.9492 34.5135 89.4746 37.9278 95.9999 41.331C92.8497 44.536 89.8067 47.84 86.9137 51.2983C80.5384 47.9832 74.1738 44.6461 67.7985 41.331Z" fill="#119EFF"/>
<path d="M5.02029 120.222C4.77385 116.631 7.83829 113.25 11.3635 113.338C22.8605 113.25 34.3575 113.316 45.8652 113.294C42.9401 117.733 39.7792 121.995 36.779 126.378C32.2038 126.444 27.6286 126.279 23.0641 126.422C20.4496 126.268 17.9102 128.482 17.8459 131.213C17.6102 135.476 17.5781 139.782 18.1031 144.033C18.4995 146.313 19.6353 148.362 20.8139 150.3C17.5031 153.163 15.0065 156.82 12.6921 160.543C11.5028 159.177 10.3777 157.745 9.31693 156.269C6.55251 151.798 4.99886 146.544 5.02029 141.236C4.99886 134.231 4.98814 127.226 5.02029 120.222Z" fill="#119EFF"/>
<path opacity="0.27" d="M51.201 32.5862C56.6656 35.637 62.2695 38.4124 67.7983 41.331C74.1736 44.6461 80.5382 47.9832 86.9136 51.2983C95.0675 55.5386 103.211 59.8009 111.376 64.0411C119.915 68.4906 128.444 72.9401 136.973 77.4007C144.602 81.3435 152.199 85.3635 159.839 89.2954C163.482 91.1347 167.468 93.018 169.514 96.8397C131.402 76.1341 92.5281 56.7831 54.2655 36.3198C52.7976 35.4938 51.2225 34.5466 51.201 32.5862Z" fill="black"/>
<path opacity="0.27" d="M17.8458 131.213C17.9101 128.482 20.4495 126.268 23.064 126.422C27.6285 126.279 32.2037 126.444 36.7789 126.378C47.1402 126.367 57.5014 126.389 67.8626 126.378C77.1953 126.367 86.5172 126.389 95.8391 126.378C104.379 126.367 112.919 126.389 121.458 126.378C135.859 126.367 150.26 126.389 164.66 126.378C166.428 126.246 168.1 126.852 169.664 127.656C170.35 128.691 170.982 129.759 171.561 130.861C168.978 129.792 166.364 128.57 163.514 128.669C118.126 128.713 72.7379 128.691 27.3606 128.68C24.6819 128.944 20.9531 128.9 19.6352 131.83C18.8209 135.839 18.6494 139.969 18.103 144.033C17.578 139.782 17.6101 135.476 17.8458 131.213Z" fill="black"/>
<path d="M86.9138 51.2983C89.8068 47.8401 92.8498 44.536 96 41.331C104.1 45.5712 112.212 49.7895 120.323 54.0077C117.044 57.0585 113.99 60.3736 111.376 64.0411C103.211 59.8009 95.0678 55.5386 86.9138 51.2983Z" fill="#16A9FF"/>
<path d="M45.8652 113.294C56.205 113.294 66.5448 113.294 76.8954 113.294C73.7559 117.556 70.6165 121.83 67.8628 126.378C57.5015 126.389 47.1403 126.367 36.7791 126.378C39.7792 121.995 42.9401 117.733 45.8652 113.294Z" fill="#16A9FF"/>
<path d="M12.6921 160.543C15.0065 156.82 17.5031 153.163 20.814 150.3C26.3214 157.591 35.9219 155.697 43.7223 155.884C40.8507 160.333 37.8291 164.684 34.7754 169.001C26.675 169.486 18.4031 166.578 12.6921 160.543Z" fill="#16A9FF"/>
<path d="M120.322 54.0077C128.509 58.292 136.705 62.5543 144.902 66.8165L144.442 67.3342C141.891 70.6273 137.927 73.0723 136.973 77.4006C128.444 72.9401 119.915 68.4906 111.376 64.0411C113.99 60.3736 117.044 57.0585 120.322 54.0077Z" fill="#1CB5FF"/>
<path d="M94.0711 95.5291C103.436 95.5401 112.79 95.5071 122.155 95.5401C119.883 100.221 116.722 104.329 113.936 108.679C104.315 108.701 94.6926 108.679 85.0707 108.69C88.0601 104.296 91.1567 99.9786 94.0711 95.5291Z" fill="#1CB5FF"/>
<path d="M144.442 67.3341L144.892 66.8275C152.746 70.9136 160.578 75.0217 168.443 79.0857C165.346 82.2796 162.228 85.4956 159.839 89.2953C152.199 85.3635 144.602 81.3435 136.973 77.4006C137.927 73.0722 141.891 70.6272 144.442 67.3341Z" fill="#21C0FF"/>
<path d="M122.155 95.5401C129.462 95.5842 136.781 95.4079 144.088 95.6172C147.785 95.8154 150.356 99.6922 149.949 103.327C148.963 106.333 146.381 108.911 143.102 108.646C133.384 108.756 123.655 108.646 113.937 108.679C116.722 104.329 119.883 100.221 122.155 95.5401Z" fill="#21C0FF"/>
<path d="M168.443 79.0857C174.379 81.9603 179.383 86.8833 182.094 93.062C184.033 97.6877 184.633 102.743 184.408 107.754C178.526 113.547 174.422 120.915 169.664 127.656C168.1 126.852 166.428 126.246 164.661 126.378C150.26 126.389 135.859 126.367 121.458 126.378C124.276 122.05 127.319 117.876 129.762 113.305C142.052 113.25 154.342 113.382 166.632 113.25C169.021 113.283 171.282 111.279 171.539 108.823C171.893 104.758 171.722 100.386 169.514 96.8397C167.468 93.0179 163.482 91.1346 159.839 89.2953C162.228 85.4956 165.346 82.2796 168.443 79.0857Z" fill="#26CBFF"/>
<path opacity="0.18" d="M182.094 93.062C184.451 93.2272 184.569 95.9145 185.319 97.6547C186.926 102.06 186.465 106.829 186.508 111.422C186.487 127.601 186.487 143.769 186.508 159.937C186.454 161.633 186.722 163.781 184.729 164.419C184.558 163.197 184.408 161.985 184.247 160.774C184.622 143.108 184.279 125.42 184.408 107.754C184.633 102.743 184.033 97.6877 182.094 93.062Z" fill="black"/>
<path d="M27.9179 105.805C25.3892 101.829 28.0787 95.7824 32.7932 95.6061C43.2187 95.4189 53.655 95.5731 64.0805 95.529C61.2518 100.045 58.048 104.296 55.0479 108.69C47.9761 108.646 40.9043 108.756 33.8432 108.657C31.4753 108.834 29.4823 107.479 27.9179 105.805Z" fill="#12A0FF"/>
<path d="M64.0803 95.5291C74.0773 95.5291 84.0742 95.5181 94.0711 95.5291C91.1567 99.9786 88.0601 104.296 85.0707 108.69C75.063 108.69 65.0554 108.679 55.0477 108.69C58.0479 104.296 61.2516 100.045 64.0803 95.5291Z" fill="#17ABFF"/>
<path opacity="0.27" d="M149.949 103.327C152.038 107.17 148.01 111.576 144.152 111.047C107.358 111.058 70.5628 111.168 33.7788 110.992C30.6715 111.477 27.4571 109.296 27.9178 105.805C29.4822 107.479 31.4752 108.834 33.8431 108.657C40.9042 108.756 47.976 108.646 55.0478 108.69C65.0554 108.679 75.0631 108.69 85.0707 108.69C94.6926 108.679 104.315 108.701 113.936 108.679C123.655 108.646 133.384 108.756 143.102 108.646C146.381 108.911 148.963 106.333 149.949 103.327Z" fill="black"/>
<path d="M169.664 127.656C174.422 120.916 178.525 113.547 184.408 107.754C184.279 125.42 184.622 143.108 184.247 160.774C182.747 165.157 178.911 168.836 174.218 168.902C163.439 169.089 152.66 168.913 141.87 168.979C144.774 164.541 147.956 160.311 150.86 155.884C155.971 155.807 161.092 156.049 166.193 155.796C169.15 155.708 171.689 152.932 171.593 149.892C171.689 143.549 171.689 137.205 171.561 130.861C170.982 129.759 170.35 128.691 169.664 127.656Z" fill="#2CD7FF"/>
<path d="M76.8954 113.294C86.1637 113.294 95.4428 113.294 104.722 113.294C101.625 117.556 98.7108 121.951 95.8392 126.378C86.5173 126.389 77.1954 126.367 67.8628 126.378C70.6165 121.83 73.7559 117.556 76.8954 113.294Z" fill="#1BB3FF"/>
<path d="M43.7223 155.884C53.0013 155.895 62.2804 155.873 71.5594 155.884C68.6557 160.322 65.4627 164.552 62.5375 168.979C53.2906 169.001 44.033 168.946 34.7754 169.001C37.8291 164.684 40.8507 160.333 43.7223 155.884Z" fill="#1BB3FF"/>
<path d="M104.722 113.294C113.069 113.305 121.415 113.272 129.762 113.305C127.319 117.876 124.276 122.05 121.458 126.378C112.919 126.389 104.379 126.367 95.8391 126.378C98.7107 121.951 101.625 117.556 104.722 113.294Z" fill="#20BDFF"/>
<path d="M33.8217 133.636C38.2255 131.29 43.8722 134.143 45.2652 138.912C46.0902 142.932 44.0973 147.546 40.1542 148.901C36.8647 150.344 33.1788 148.846 30.8323 146.313C27.8107 142.249 29.2036 135.729 33.8217 133.636Z" fill="#15A7FF"/>
<path opacity="0.24" d="M45.2652 138.912C48.4046 141.291 47.3331 146.126 45.2652 148.912C43.1865 152.426 38.6648 152.073 35.2361 151.611C33.0717 150.818 30.8109 148.901 30.8323 146.313C33.1789 148.846 36.8647 150.344 40.1542 148.901C44.0973 147.547 46.0902 142.932 45.2652 138.912Z" fill="black"/>
<path opacity="0.25" d="M9.31689 156.269C10.3777 157.745 11.5027 159.177 12.6921 160.542C18.4031 166.578 26.6749 169.486 34.7753 169.001C44.0329 168.946 53.2905 169.001 62.5374 168.979C71.1093 168.979 79.6705 168.979 88.2316 168.979C97.1463 168.968 106.05 168.99 114.954 168.979C123.923 168.979 132.902 168.979 141.87 168.979C152.66 168.913 163.439 169.089 174.218 168.902C178.911 168.836 182.747 165.157 184.247 160.774C184.408 161.985 184.558 163.197 184.729 164.419C183.733 168.516 179.511 171.809 175.343 171.534C127.823 171.622 80.3026 171.556 32.7824 171.567C24.2534 172.03 16.1851 167.162 10.9563 160.476C9.87407 159.342 9.69191 157.734 9.31689 156.269Z" fill="black"/>
<path d="M71.5594 155.884C79.8205 155.895 88.0923 155.873 96.3642 155.895C94.3605 160.686 91.1996 164.794 88.2316 168.979C79.6705 168.979 71.1093 168.979 62.5375 168.979C65.4626 164.552 68.6556 160.322 71.5594 155.884Z" fill="#1FBCFF"/>
<path d="M96.3642 155.895C105.3 155.895 114.247 155.873 123.194 155.895C121.073 160.653 117.547 164.507 114.954 168.979C106.05 168.99 97.1464 168.968 88.2317 168.979C91.1997 164.794 94.3606 160.686 96.3642 155.895Z" fill="#23C5FF"/>
<path d="M123.194 155.895C132.42 155.884 141.645 155.884 150.86 155.884C147.956 160.311 144.774 164.541 141.87 168.979C132.902 168.979 123.923 168.979 114.954 168.979C117.547 164.507 121.073 160.653 123.194 155.895Z" fill="#28CEFF"/>
</svg>
