/* XPM */
static char * right_inactive_xpm[] = {
"3 32 5 1",
" 	c None",
".	c #9B9B8A s inactive_shadow_2",
"+	c #D6D6CC s inactive_color_2",
"%	c #9B9B8A s inactive_mid_2",
"@	c #000000",
"%.@",
"%.@",
"%.@",
"%.@",
"%.@",
"%.@",
"%.@",
"%.@",
"%.@",
"%.@",
"%.@",
"%.@",
"%.@",
"%.@",
"%.@",
"%.@",
"%.@",
"%.@",
"%.@",
"%.@",
"%.@",
"%.@",
"%.@",
"%.@",
"%.@",
"%.@",
"%.@",
"%.@",
"%.@",
"%.@",
"%.@",
"%.@"};
