<?xml version='1.0' encoding='ASCII' standalone='yes'?>
<svg xmlns="http://www.w3.org/2000/svg" xmlns:xlink="http://www.w3.org/1999/xlink" version="1.1" width="24px" height="24px">
  <g transform="translate(4.0, 4.0) scale(1 1) "><sodipodi:namedview xmlns:sodipodi="http://sodipodi.sourceforge.net/DTD/sodipodi-0.dtd" xmlns:inkscape="http://www.inkscape.org/namespaces/inkscape" id="namedview1671" pagecolor="#ffffff" bordercolor="#000000" borderopacity="0.25" inkscape:showpageshadow="2" inkscape:pageopacity="0.0" inkscape:pagecheckerboard="0" inkscape:deskcolor="#d1d1d1" showgrid="false" inkscape:zoom="22.693708" inkscape:cx="-14.717736" inkscape:cy="7.2927703" inkscape:current-layer="svg1669"/>
  <defs id="defs1665">
    <style id="current-color-scheme" type="text/css">
   .ColorScheme-Text { color:#444444; } .ColorScheme-Highlight { color:#4285f4; }
  </style>
  </defs>
  <path d="M 7.0351888,1.2500832 C 6.7487605,1.2463147 6.4774073,1.3706846 6.2927367,1.5892751 L 3.1759441,5.1017909 H 2.2111329 c -1.0552622,0 -1.92962236,0.8140594 -1.92962236,1.9296223 v 1.9296224 c 0,1.0514934 0.87812866,1.9296224 1.92962236,1.9296224 h 0.9648112 l 3.1167926,3.512516 c 0.2035144,0.244971 0.4748675,0.350497 0.7424521,0.346729 z M 13.268774,2.177207 c -0.184672,-0.00377 -0.373111,0.052764 -0.538938,0.1620583 -0.440949,0.3015035 -0.557781,0.900741 -0.260047,1.3416906 1.760027,2.6117738 1.760027,6.0187632 0,8.6305371 -0.297734,0.440949 -0.180902,1.040187 0.260047,1.34169 0.440949,0.297735 1.040187,0.180903 1.341691,-0.260046 1.096719,-1.631887 1.646962,-3.5125158 1.646962,-5.3969126 0,-1.8843968 -0.550243,-3.7650251 -1.646962,-5.3969125 C 13.883087,2.3241902 13.577815,2.177207 13.268774,2.177207 Z M 9.9673098,4.125673 C 9.7524888,4.1181359 9.5301307,4.1822052 9.3454591,4.3216503 9.0929497,4.513859 8.9648112,4.8040559 8.9648112,5.0980223 v 0.056532 c 0.011307,0.1846707 0.071607,0.3618042 0.1922087,0.5163245 1.0364181,1.379378 1.0364181,3.2713129 0,4.6469222 -0.1206014,0.158289 -0.1809021,0.335423 -0.1922087,0.516325 v 0.0603 c 0,0.293967 0.1281385,0.584164 0.3806479,0.776372 0.4258744,0.320348 1.0288809,0.233665 1.3492289,-0.192208 0.776371,-1.028881 1.164557,-2.2537385 1.164557,-3.4823657 0,-1.2286272 -0.388186,-2.4534849 -1.164557,-3.4861339 C 10.517554,4.2726562 10.246201,4.1407482 9.9673098,4.125673 Z m 0,0" fill="#2e3436" id="path2-3" style="fill:#dfdfdf;fill-opacity:1;stroke-width:0.964811;opacity:0.3"/>
</g>
</svg>
