<?xml version='1.0' encoding='ASCII' standalone='yes'?>
<svg xmlns="http://www.w3.org/2000/svg" xmlns:xlink="http://www.w3.org/1999/xlink" version="1.1" width="24px" height="24px">
  <g transform="translate(4.0, 4.0) scale(1 1) "><sodipodi:namedview xmlns:sodipodi="http://sodipodi.sourceforge.net/DTD/sodipodi-0.dtd" xmlns:inkscape="http://www.inkscape.org/namespaces/inkscape" id="namedview9" pagecolor="#ffffff" bordercolor="#000000" borderopacity="0.25" inkscape:showpageshadow="2" inkscape:pageopacity="0.0" inkscape:pagecheckerboard="0" inkscape:deskcolor="#d1d1d1" showgrid="false" inkscape:zoom="16.046875" inkscape:cx="-8.7244401" inkscape:cy="14.239533" inkscape:current-layer="svg7"/>
  <defs id="defs3">
    <style id="current-color-scheme" type="text/css">
   .ColorScheme-Text { color:#444444; } .ColorScheme-Highlight { color:#4285f4; }
  </style>
  </defs>
  <g id="g240" style="fill:#dfdfdf;fill-opacity:1">
    <g id="g243" transform="translate(-0.01557787)" style="fill:#dfdfdf;fill-opacity:1">
      <path d="M 5,0 C 3.667969,0 2.726562,0.816406 2.355469,1.554688 1.984375,2.292969 2,3 2,3 L 2.03125,15.472656 8.027344,13.070312 14.03125,15.472656 14,2.996094 C 14,2.992188 14.011719,2.289062 13.644531,1.554688 13.273438,0.816406 12.332031,0 11,0 Z m 0,2 h 6 c 0.695312,0.011719 1.003906,0.367188 1,1 L 12.02344,12.519531 8.027344,10.917969 4.023438,12.519531 4,2.996094 C 3.992188,2.347656 4.398438,2 5,2 Z m 0,0" fill="#2e3436" id="path2-3" style="fill:#dfdfdf;fill-opacity:1"/>
    </g>
  </g>
</g>
</svg>
