<?xml version='1.0' encoding='ASCII' standalone='yes'?>
<svg xmlns="http://www.w3.org/2000/svg" xmlns:xlink="http://www.w3.org/1999/xlink" version="1.1" width="24px" height="24px">
  <g transform="translate(4.0, 4.0) scale(1 1) "><defs id="defs8"/>
  <sodipodi:namedview xmlns:sodipodi="http://sodipodi.sourceforge.net/DTD/sodipodi-0.dtd" xmlns:inkscape="http://www.inkscape.org/namespaces/inkscape" id="namedview6" pagecolor="#ffffff" bordercolor="#000000" borderopacity="0.25" inkscape:showpageshadow="2" inkscape:pageopacity="0.0" inkscape:pagecheckerboard="0" inkscape:deskcolor="#d1d1d1" showgrid="false" inkscape:zoom="64.1875" inkscape:cx="7.9922103" inkscape:cy="8.0467381" inkscape:current-layer="svg4"/>
  <path d="m 10.996094 2 c -0.554688 0 -1 0.445312 -1 1 v 3 c 0 0.554688 0.445312 1 1 1 h 0.710937 c -0.671875 2.265625 -2.445312 4.042969 -4.710937 4.710938 v -0.710938 c 0 -0.554688 -0.449219 -1 -1 -1 h -3 c -0.554688 0 -1 0.445312 -1 1 v 1.5 c 0 1.378906 1.117187 2.5 2.5 2.5 h 0.5 c 5.503906 0 10 -4.496094 10 -10 v -0.5 c 0 -1.378906 -1.121094 -2.5 -2.5 -2.5 z m 0 0" fill="#2e3436" id="path2" style="fill:#dfdfdf;fill-opacity:1"/>
</g>
</svg>
