<?xml version='1.0' encoding='ASCII' standalone='yes'?>
<svg xmlns="http://www.w3.org/2000/svg" xmlns:xlink="http://www.w3.org/1999/xlink" version="1.1" width="24px" height="24px">
  <g transform="translate(4.0, 4.0) scale(1 1) "><sodipodi:namedview xmlns:sodipodi="http://sodipodi.sourceforge.net/DTD/sodipodi-0.dtd" xmlns:inkscape="http://www.inkscape.org/namespaces/inkscape" id="namedview9" pagecolor="#ffffff" bordercolor="#000000" borderopacity="0.25" inkscape:showpageshadow="2" inkscape:pageopacity="0.0" inkscape:pagecheckerboard="0" inkscape:deskcolor="#d1d1d1" showgrid="false" inkscape:zoom="16.046875" inkscape:cx="-5.4216164" inkscape:cy="13.990263" inkscape:current-layer="svg7"/>
  <defs id="defs3">
    <style id="current-color-scheme" type="text/css">
   .ColorScheme-Text { color:#444444; } .ColorScheme-Highlight { color:#4285f4; }
  </style>
  </defs>
  <g id="g239" transform="translate(0.00585938,9.765e-4)" style="fill:#dfdfdf;fill-opacity:1">
    <path d="m 12.957031,0.980469 c -0.519531,0.015625 -1.015625,0.234375 -1.375,0.605469 L 9.996094,3.171875 8.910156,2.085938 C 8.8125,1.992188 8.683594,1.9375 8.546875,1.9375 8.417969,1.941406 8.292969,1.992188 8.203125,2.085938 L 6.082031,4.207031 c -0.195312,0.195313 -0.195312,0.511719 0,0.707031 L 6.726562,5.5625 1.140625,11.144531 C 1.046875,11.242188 0.996094,11.367188 0.996094,11.5 v 1.792969 l -0.855469,0.851562 c -0.1953125,0.195313 -0.1953125,0.515625 0,0.710938 l 1,1 c 0.195313,0.191406 0.511719,0.191406 0.707031,0 L 2.703125,15 h 1.792969 c 0.132812,0 0.257812,-0.05078 0.351562,-0.144531 l 5.585938,-5.585938 0.648437,0.644531 c 0.195313,0.195313 0.511719,0.195313 0.707031,0 l 2.121094,-2.121093 c 0.195313,-0.195313 0.195313,-0.511719 0,-0.707031 L 12.824219,6 14.410156,4.414062 C 15.714844,3.140625 14.777344,0.925781 12.957031,0.980469 Z M 7.933594,6.769531 9.226562,8.0625 6.289062,11 H 3.703125 Z m 0,0" fill="#2e3436" fill-rule="evenodd" id="path2" style="fill:#dfdfdf;fill-opacity:1"/>
  </g>
</g>
</svg>
