<?xml version='1.0' encoding='ASCII' standalone='yes'?>
<svg xmlns="http://www.w3.org/2000/svg" xmlns:xlink="http://www.w3.org/1999/xlink" version="1.1" width="24px" height="24px">
  <g transform="translate(4.0, 4.0) scale(1 1) ">
    <sodipodi:namedview xmlns:sodipodi="http://sodipodi.sourceforge.net/DTD/sodipodi-0.dtd" xmlns:inkscape="http://www.inkscape.org/namespaces/inkscape" id="namedview9" pagecolor="#ffffff" bordercolor="#000000" borderopacity="0.25" inkscape:showpageshadow="2" inkscape:pageopacity="0.0" inkscape:pagecheckerboard="0" inkscape:deskcolor="#d1d1d1" showgrid="false" inkscape:zoom="16.046875" inkscape:cx="10.469328" inkscape:cy="12.494645" inkscape:current-layer="svg7"/>
    <defs id="defs3">
      <style id="current-color-scheme" type="text/css">
   .ColorScheme-Text { color:#444444; } .ColorScheme-Highlight { color:#4285f4; }
  </style>
    </defs>
    <path d="m 6.2857145,1.9999999 c -2.367188,0 -4.285715,1.9185267 -4.285715,4.2857145 0,2.3671879 1.918527,4.2857146 4.285715,4.2857146 0.713169,-0.0033 1.416294,-0.184152 2.04241,-0.529018 l 0.529018,0.529018 v 1.714285 H 10.571429 V 14 H 14 V 11.428572 L 10.306919,7.7354911 c 0.17076,-0.4654012 0.261162,-0.9542409 0.26451,-1.4497767 0,-2.3671878 -1.9185275,-4.2857145 -4.2857145,-4.2857145 z m -0.857143,2.5714287 c 0.472098,0 0.857143,0.3850449 0.857143,0.8571429 0,0.4720981 -0.385045,0.8571429 -0.857143,0.8571429 -0.472098,0 -0.857143,-0.3850448 -0.857143,-0.8571429 0,-0.472098 0.385045,-0.8571429 0.857143,-0.8571429 z m 0,0" fill="#2e3436" id="path2" style="fill:#dfdfdf;fill-opacity:1;stroke-width:0.857143"/>
  </g>
</svg>
