<?xml version='1.0' encoding='ASCII' standalone='yes'?>
<svg xmlns="http://www.w3.org/2000/svg" xmlns:xlink="http://www.w3.org/1999/xlink" version="1.1" width="24px" height="24px">
  <g transform="translate(4.0, 4.0) scale(1 1) "><defs>
  <style id="current-color-scheme" type="text/css">
   .ColorScheme-Text { color:#dfdfdf; } .ColorScheme-Highlight { color:#4285f4; }
  </style>
 </defs>
 <path style="fill:currentColor" class="ColorScheme-Text" d="M 3.0039062 1.0039062 L 3.0039062 2.5039062 L 1.0039062 2.5039062 L 1.0039062 4.5039062 L 3.0039062 4.5039062 L 3.0039062 6.0039062 L 7.0039062 6.0039062 L 7.0039062 4.5039062 L 9.0039062 4.5039062 L 9.0039062 6.0039062 L 13.003906 6.0039062 L 13.003906 4.5039062 L 15.003906 4.5039062 L 15.003906 2.5039062 L 13.003906 2.5039062 L 13.003906 1.0039062 L 9.0039062 1.0039062 L 9.0039062 2.5039062 L 7.0039062 2.5039062 L 7.0039062 1.0039062 L 3.0039062 1.0039062 z M 3.0039062 10.003906 L 3.0039062 11.503906 L 1.0039062 11.503906 L 1.0039062 13.503906 L 3.0039062 13.503906 L 3.0039062 15.003906 L 7.0039062 15.003906 L 7.0039062 13.503906 L 9.0039062 13.503906 L 9.0039062 15.003906 L 13.003906 15.003906 L 13.003906 13.503906 L 15.003906 13.503906 L 15.003906 11.503906 L 13.003906 11.503906 L 13.003906 10.003906 L 9.0039062 10.003906 L 9.0039062 11.503906 L 7.0039062 11.503906 L 7.0039062 10.003906 L 3.0039062 10.003906 z"/>
</g>
</svg>
