<?xml version='1.0' encoding='ASCII' standalone='yes'?>
<svg xmlns="http://www.w3.org/2000/svg" xmlns:xlink="http://www.w3.org/1999/xlink" version="1.1" width="24px" height="24px">
  <g transform="translate(4.0, 4.0) scale(1 1) "><defs id="defs8"/>
  <sodipodi:namedview xmlns:sodipodi="http://sodipodi.sourceforge.net/DTD/sodipodi-0.dtd" xmlns:inkscape="http://www.inkscape.org/namespaces/inkscape" id="namedview6" pagecolor="#ffffff" bordercolor="#000000" borderopacity="0.25" inkscape:showpageshadow="2" inkscape:pageopacity="0.0" inkscape:pagecheckerboard="0" inkscape:deskcolor="#d1d1d1" showgrid="false" inkscape:zoom="16.046875" inkscape:cx="-4.4868549" inkscape:cy="10.749757" inkscape:current-layer="svg4"/>
  <path d="m 0 3 c 0 -1.644531 1.355469 -3 3 -3 h 5 c 1.644531 0 3 1.355469 3 3 c 0 0.550781 -0.449219 1 -1 1 s -1 -0.449219 -1 -1 c 0 -0.570312 -0.429688 -1 -1 -1 h -5 c -0.570312 0 -1 0.429688 -1 1 v 5 c 0 0.570312 0.429688 1 1 1 c 0.550781 0 1 0.449219 1 1 s -0.449219 1 -1 1 c -1.644531 0 -3 -1.355469 -3 -3 z m 5 5 c 0 -1.644531 1.355469 -3 3 -3 h 5 c 1.644531 0 3 1.355469 3 3 v 5 c 0 1.644531 -1.355469 3 -3 3 h -5 c -1.644531 0 -3 -1.355469 -3 -3 z m 2 0 v 5 c 0 0.570312 0.429688 1 1 1 h 5 c 0.570312 0 1 -0.429688 1 -1 v -5 c 0 -0.570312 -0.429688 -1 -1 -1 h -5 c -0.570312 0 -1 0.429688 -1 1 z m 0 0" fill="#2e3436" id="path2" style="fill:#dfdfdf;fill-opacity:1"/>
</g>
</svg>
