<?xml version='1.0' encoding='ASCII' standalone='yes'?>
<svg xmlns="http://www.w3.org/2000/svg" xmlns:xlink="http://www.w3.org/1999/xlink" version="1.1" width="24px" height="24px">
  <g transform="translate(4.0, 4.0) scale(1 1) "><defs id="defs8"/>
  <sodipodi:namedview xmlns:sodipodi="http://sodipodi.sourceforge.net/DTD/sodipodi-0.dtd" xmlns:inkscape="http://www.inkscape.org/namespaces/inkscape" id="namedview6" pagecolor="#ffffff" bordercolor="#000000" borderopacity="0.25" inkscape:showpageshadow="2" inkscape:pageopacity="0.0" inkscape:pagecheckerboard="0" inkscape:deskcolor="#d1d1d1" showgrid="false" inkscape:zoom="64.1875" inkscape:cx="7.9922103" inkscape:cy="8.0467381" inkscape:current-layer="svg4"/>
  <path d="m 7.933594 2 l -7.933594 0.011719 l -0.00390625 11.96875 h 9.96875025 l 0.027344 -9.917969 c 0.003906 -1.125 -0.933594 -2.0625 -2.058594 -2.0625 z m 2.050781 0.03125 s 1.03125 0.484375 1.03125 1.96875 v 10 h 0.984375 v -10 c 0 -1.25 -2.015625 -1.96875 -2.015625 -1.96875 z m 1.984375 0 s 1.03125 0.484375 1.03125 1.96875 v 10 h 1 v -10 c 0 -1.25 -2.03125 -1.96875 -2.03125 -1.96875 z m -8.953125 2.96875 h 1 c 0.308594 0 0.550781 0.089844 0.75 0.28125 l 2.65625 2.71875 l -2.65625 2.71875 c -0.199219 0.191406 -0.441406 0.28125 -0.75 0.28125 h -1 v -1 c 0 -0.257812 0.128906 -0.527344 0.3125 -0.71875 l 1.28125 -1.28125 l -1.28125 -1.28125 c -0.183594 -0.191406 -0.3125 -0.460938 -0.3125 -0.71875 z m 0 0" fill="#2e3436" id="path2" style="fill:#dfdfdf;fill-opacity:1"/>
</g>
</svg>
