<?xml version='1.0' encoding='ASCII' standalone='yes'?>
<svg xmlns="http://www.w3.org/2000/svg" xmlns:xlink="http://www.w3.org/1999/xlink" version="1.1" width="24px" height="24px">
  <g transform="translate(4.0, 4.0) scale(1 1) "><defs id="defs8"/>
  <sodipodi:namedview xmlns:sodipodi="http://sodipodi.sourceforge.net/DTD/sodipodi-0.dtd" xmlns:inkscape="http://www.inkscape.org/namespaces/inkscape" id="namedview6" pagecolor="#ffffff" bordercolor="#000000" borderopacity="0.25" inkscape:showpageshadow="2" inkscape:pageopacity="0.0" inkscape:pagecheckerboard="0" inkscape:deskcolor="#d1d1d1" showgrid="false" inkscape:zoom="32.90625" inkscape:cx="11.791073" inkscape:cy="9.982906" inkscape:current-layer="svg4"/>
  <path style="fill:#dfdfdf;fill-opacity:1" d="M 5,3 C 2.23,3 0,5.23 0,8 0,10.77 2.23,13 5,13 H 7 V 11 H 5 C 3.34,11 2,9.67 2,8 2,6.34 3.34,5 5,5 H 7 V 3 Z M 9,3 V 5 H 11 C 12.66,5 14,6.34 14,8 14,9.67 12.66,11 11,11 H 9 V 13 H 11 C 13.77,13 16,10.77 16,8 16,5.23 13.77,3 11,3 Z M 5,7 V 9 H 11 V 7 Z" id="path2"/>
</g>
</svg>
