<?xml version='1.0' encoding='ASCII' standalone='yes'?>
<svg xmlns="http://www.w3.org/2000/svg" xmlns:xlink="http://www.w3.org/1999/xlink" version="1.1" width="24px" height="24px">
  <g transform="translate(4.0, 4.0) scale(1 1) "><defs>
  <style id="current-color-scheme" type="text/css">
   .ColorScheme-Text { color:#dfdfdf; } .ColorScheme-Highlight { color:#4285f4; }
  </style>
 </defs>
 <path style="fill:currentColor" class="ColorScheme-Text" d="m4.5 3a3.5 5 0 0 0 -3.5 5 3.5 5 0 0 0 3.5 5 3.5 5 0 0 0 3.5 -5 3.5 5 0 0 0 -3.5 -5zm3.5 5a3.5 5 0 0 0 3.5 5 3.5 5 0 0 0 3.5 -5 3.5 5 0 0 0 -3.5 -5 3.5 5 0 0 0 -3.5 5zm-3 0a2 2 0 0 1 2 2 2 2 0 0 1 -2 2 2 2 0 0 1 -2 -2 2 2 0 0 1 2 -2zm7 0a2 2 0 0 1 2 2 2 2 0 0 1 -2 2 2 2 0 0 1 -2 -2 2 2 0 0 1 2 -2z"/>
</g>
</svg>
