<?xml version='1.0' encoding='ASCII' standalone='yes'?>
<svg xmlns="http://www.w3.org/2000/svg" xmlns:xlink="http://www.w3.org/1999/xlink" version="1.1" width="24px" height="24px">
  <g transform="translate(4.0, 4.0) scale(1 1) "><defs id="defs12"/>
  <sodipodi:namedview xmlns:sodipodi="http://sodipodi.sourceforge.net/DTD/sodipodi-0.dtd" xmlns:inkscape="http://www.inkscape.org/namespaces/inkscape" id="namedview10" pagecolor="#ffffff" bordercolor="#000000" borderopacity="0.25" inkscape:showpageshadow="2" inkscape:pageopacity="0.0" inkscape:pagecheckerboard="0" inkscape:deskcolor="#d1d1d1" showgrid="false" inkscape:zoom="16.046875" inkscape:cx="-1.4333009" inkscape:cy="7.1976631" inkscape:current-layer="svg8"/>
  <g fill="#2e3436" id="g6" style="fill:#dfdfdf;fill-opacity:1">
    <path d="m 7 4.003906 c -0.179688 -0.003906 -0.359375 0.046875 -0.515625 0.140625 l -5 3 c -0.648437 0.386719 -0.648437 1.328125 0 1.714844 l 5 3 c 0.15625 0.09375 0.335937 0.140625 0.515625 0.140625 v 0.003906 c 1 -0.003906 1 -1 1 -1 v -6 s 0.003906 -1 -1 -1 z m 0 0" id="path2" style="fill:#dfdfdf;fill-opacity:1"/>
    <path d="m 14 4.003906 c -0.179688 -0.003906 -0.359375 0.046875 -0.515625 0.140625 l -5 3 c -0.648437 0.386719 -0.648437 1.328125 0 1.714844 l 5 3 c 0.15625 0.09375 0.335937 0.140625 0.515625 0.140625 v 0.003906 c 1 -0.003906 1 -1 1 -1 v -6 s 0.003906 -1 -1 -1 z m 0 0" id="path4" style="fill:#dfdfdf;fill-opacity:1"/>
  </g>
</g>
</svg>
