<?xml version='1.0' encoding='ASCII' standalone='yes'?>
<svg xmlns="http://www.w3.org/2000/svg" xmlns:xlink="http://www.w3.org/1999/xlink" version="1.1" width="24px" height="24px">
  <g transform="translate(4.0, 4.0) scale(1 1) ">
    <sodipodi:namedview xmlns:sodipodi="http://sodipodi.sourceforge.net/DTD/sodipodi-0.dtd" xmlns:inkscape="http://www.inkscape.org/namespaces/inkscape" id="namedview9" pagecolor="#ffffff" bordercolor="#000000" borderopacity="0.25" inkscape:showpageshadow="2" inkscape:pageopacity="0.0" inkscape:pagecheckerboard="0" inkscape:deskcolor="#d1d1d1" showgrid="false" inkscape:zoom="11.346854" inkscape:cx="-18.066682" inkscape:cy="1.8947983" inkscape:current-layer="svg7"/>
    <defs id="defs3">
      <style id="current-color-scheme" type="text/css">
   .ColorScheme-Text { color:#444444; } .ColorScheme-Highlight { color:#4285f4; }
  </style>
    </defs>
    <path d="m 8.0000001,1.55e-7 c -1.660156,0 -3,1.339843845 -3,2.999999845 v 4.9999997 c 0,1.6601556 1.339844,3.0000003 3,3.0000003 C 9.6601559,11 11,9.6601554 11,7.9999997 V 3 C 11,1.339844 9.6601559,1.55e-7 8.0000001,1.55e-7 Z m -6,5.999999545 v 2.0117191 c 0,2.9648432 2.164062,5.4296872 5,5.9062502 V 16 H 8.9999999 V 13.917969 C 11.835938,13.441406 14,10.976562 14,8.0117188 v -2.011719 h -1.5 v 2.011719 C 12.5,10.511719 10.507812,12.5 8.0000001,12.5 c -2.507812,0 -4.5,-1.988281 -4.5,-4.4882812 v -2.011719 z m 0,0" fill="#2e3436" id="path2-3" style="fill:#dfdfdf;fill-opacity:1"/>
  </g>
</svg>
