<?xml version="1.0" encoding="UTF-8" standalone="no"?>
<svg
   version="1.1"
   width="24px"
   height="24px"
   id="svg9"
   sodipodi:docname="news-unsubscribe.svg"
   inkscape:version="1.2.1 (9c6d41e410, 2022-07-14)"
   xmlns:inkscape="http://www.inkscape.org/namespaces/inkscape"
   xmlns:sodipodi="http://sodipodi.sourceforge.net/DTD/sodipodi-0.dtd"
   xmlns="http://www.w3.org/2000/svg"
   xmlns:svg="http://www.w3.org/2000/svg">
  <defs
     id="defs13" />
  <sodipodi:namedview
     id="namedview11"
     pagecolor="#ffffff"
     bordercolor="#000000"
     borderopacity="0.25"
     inkscape:showpageshadow="2"
     inkscape:pageopacity="0.0"
     inkscape:pagecheckerboard="0"
     inkscape:deskcolor="#d1d1d1"
     showgrid="false"
     inkscape:zoom="43.875"
     inkscape:cx="11.988604"
     inkscape:cy="12.022792"
     inkscape:current-layer="svg9" />
  <g
     transform="translate(4.0, 4.0) scale(1 1) "
     id="g7"
     style="fill:#dfdfdf;fill-opacity:1">
    <defs
       id="defs3">
      <style
         id="current-color-scheme"
         type="text/css">
   .ColorScheme-Text { color:#444444; } .ColorScheme-Highlight { color:#4285f4; }
  </style>
    </defs>
    <path
       style="fill:#dfdfdf;fill-opacity:1"
       class="ColorScheme-Text"
       d="M 0 1 L 0 15 C 3.4739 14.999 6.947775 14.999953 10.421875 15.001953 L 10.292969 14.873047 C 9.9025688 14.483047 9.9025688 13.849984 10.292969 13.458984 L 10.751953 13 L 1 13 L 1 12 L 10.751953 12 L 10.292969 11.541016 C 9.9025688 11.150016 9.9025688 10.516953 10.292969 10.126953 L 10.419922 10 L 9 10 L 9 9 L 15 9 L 15 9.015625 C 15.319 8.961525 15.644047 9.0647687 15.873047 9.2929688 L 16 9.4199219 L 16 1.0039062 C 10.667 1.0059063 5.333 0.998 0 1 z M 6 3 L 6 9.9960938 L 1 10 L 1 3.0039062 L 6 3 z M 9 3 L 15 3 L 15 4 L 9 4 L 9 3 z M 9 6 L 15 6 L 15 7 L 9 7 L 9 6 z M 11.833984 10 L 11 10.833984 L 12.666016 12.5 L 11 14.166016 L 11.833984 15 L 13.5 13.333984 L 15.166016 15 L 16 14.166016 L 14.333984 12.5 L 16 10.833984 L 15.166016 10 L 13.5 11.666016 L 11.833984 10 z"
       id="path5" />
  </g>
</svg>
