<?xml version='1.0' encoding='ASCII' standalone='yes'?>
<svg xmlns="http://www.w3.org/2000/svg" xmlns:xlink="http://www.w3.org/1999/xlink" version="1.1" width="24px" height="24px">
  <g transform="translate(4.0, 4.0) scale(1 1) "><defs>
  <style id="current-color-scheme" type="text/css">
   .ColorScheme-Text { color:#dfdfdf; } .ColorScheme-Highlight { color:#4285f4; }
  </style>
 </defs>
 <path style="fill:currentColor" class="ColorScheme-Text" d="M 8 0 A 8 8 0 0 0 0 8 A 8 8 0 0 0 8 16 A 8 8 0 0 0 16 8 A 8 8 0 0 0 8 0 z M 5.171875 3.7578125 L 8 6.5859375 L 10.828125 3.7578125 L 12.242188 5.171875 L 9.4140625 8 L 12.242188 10.828125 L 10.828125 12.242188 L 8 9.4140625 L 5.171875 12.242188 L 3.7578125 10.828125 L 6.5859375 8 L 3.7578125 5.171875 L 5.171875 3.7578125 z"/>
</g>
</svg>
