<?xml version="1.0" encoding="UTF-8" standalone="no"?>
<svg
   version="1.1"
   width="24px"
   height="24px"
   id="svg11"
   sodipodi:docname="task-past-due.svg"
   inkscape:version="1.2.1 (9c6d41e410, 2022-07-14)"
   xmlns:inkscape="http://www.inkscape.org/namespaces/inkscape"
   xmlns:sodipodi="http://sodipodi.sourceforge.net/DTD/sodipodi-0.dtd"
   xmlns="http://www.w3.org/2000/svg"
   xmlns:svg="http://www.w3.org/2000/svg">
  <defs
     id="defs15">
    <defs
       id="defs3">
      <style
         id="current-color-scheme"
         type="text/css">
   .ColorScheme-Text { color:#444444; } .ColorScheme-Highlight { color:#4285f4; }
  </style>
    </defs>
  </defs>
  <sodipodi:namedview
     id="namedview13"
     pagecolor="#ffffff"
     bordercolor="#000000"
     borderopacity="0.25"
     inkscape:showpageshadow="2"
     inkscape:pageopacity="0.0"
     inkscape:pagecheckerboard="0"
     inkscape:deskcolor="#d1d1d1"
     showgrid="false"
     inkscape:zoom="43.875"
     inkscape:cx="11.988604"
     inkscape:cy="12.022792"
     inkscape:current-layer="svg11" />
  <path
     style="opacity:0.3;fill:#dfdfdf;fill-opacity:1"
     class="ColorScheme-Text"
     d="M 11,4 A 2,2 0 0 0 9,6 H 5 C 4.446,6 4,6.45 4,7 v 11 c 0,0.55 0.446,1 1,1 h 8 V 16 H 7 v -1 h 6 v -1 h 5 V 7 C 18,6.45 17.554,6 17,6 H 13 A 2,2 0 0 0 11,4 Z m 0,1 A 1,1 0 0 1 12,6 1,1 0 0 1 11,7 1,1 0 0 1 10,6 1,1 0 0 1 11,5 Z M 7,9 h 8 v 1 H 7 Z m 0,3 h 8 v 1 H 7 Z"
     id="path5" />
  <path
     style="fill:#dfdfdf;fill-opacity:1"
     class="ColorScheme-Text"
     d="m 14,15 v 1 c 0,0.28 0.1,0.54 0.28,0.72 l 0.78,0.78 -0.78,0.78 C 14.1,18.46 14,18.72 14,19 v 1 h 1 c 0.28,0 0.54,-0.1 0.72,-0.28 l 0.78,-0.78 0.78,0.78 C 17.46,19.9 17.72,20 18,20 h 1 v -1 c 0,-0.28 -0.1,-0.54 -0.28,-0.72 L 17.94,17.5 18.72,16.72 C 18.9,16.54 19,16.28 19,16 v -1 h -1 c -0.28,0 -0.54,0.1 -0.72,0.28 L 16.5,16.06 15.72,15.28 C 15.54,15.1 15.28,15 15,15 Z"
     id="path7" />
</svg>
