<?xml version="1.0" encoding="UTF-8" standalone="no"?>
<svg
   version="1.1"
   width="24px"
   height="24px"
   id="svg9"
   sodipodi:docname="window-close.svg"
   xml:space="preserve"
   inkscape:version="1.2.1 (9c6d41e410, 2022-07-14)"
   xmlns:inkscape="http://www.inkscape.org/namespaces/inkscape"
   xmlns:sodipodi="http://sodipodi.sourceforge.net/DTD/sodipodi-0.dtd"
   xmlns="http://www.w3.org/2000/svg"
   xmlns:svg="http://www.w3.org/2000/svg"><defs
     id="defs13"><style
       id="current-color-scheme-6"
       type="text/css">
   .ColorScheme-Text { color:#dfdfdf; } .ColorScheme-Highlight { color:#4285f4; }
  </style><style
       id="current-color-scheme-5"
       type="text/css">
   .ColorScheme-Text { color:#444444; } .ColorScheme-Highlight { color:#4285f4; }
  </style><style
       id="current-color-scheme-36"
       type="text/css">
   .ColorScheme-Text { color:#444444; } .ColorScheme-Highlight { color:#4285f4; }
  </style><style
       id="current-color-scheme-3"
       type="text/css">
   .ColorScheme-Text { color:#444444; } .ColorScheme-Highlight { color:#4285f4; }
  </style></defs><sodipodi:namedview
     id="namedview11"
     pagecolor="#ffffff"
     bordercolor="#000000"
     borderopacity="0.25"
     inkscape:showpageshadow="2"
     inkscape:pageopacity="0.0"
     inkscape:pagecheckerboard="0"
     inkscape:deskcolor="#d1d1d1"
     showgrid="false"
     inkscape:zoom="43.875"
     inkscape:cx="11.988604"
     inkscape:cy="12.022792"
     inkscape:current-layer="svg9" /><path
     style="fill:#dfdfdf;fill-opacity:1;stroke-width:1.06159"
     class="ColorScheme-Text"
     d="M 15.188097,7.7500382 A 1.0619815,1.0612046 0 0 0 14.437243,8.0609383 L 12.002152,10.494247 9.577433,8.071302 A 1.0619815,1.0612046 0 0 0 9.567023,8.060902 1.0619815,1.0612046 0 0 0 8.822391,7.754147 L 8.811981,7.768653 A 1.0619815,1.0612046 0 0 0 7.75,8.8298583 1.0619815,1.0612046 0 0 0 8.061127,9.5801639 l 2.435091,2.4333091 -2.435091,2.433308 A 1.0619815,1.0612046 0 0 0 7.754148,15.188796 1.0619815,1.0612046 0 0 0 8.816129,16.25 1.0619815,1.0612046 0 0 0 9.566984,15.939101 l 2.43509,-2.433309 2.42472,2.422944 A 1.0619815,1.0612046 0 0 0 15.188019,16.25 1.0619815,1.0612046 0 0 0 16.25,15.188796 1.0619815,1.0612046 0 0 0 15.938874,14.43849 l -2.443389,-2.439526 2.42472,-2.4229461 A 1.0619815,1.0612046 0 0 0 16.25,8.8112045 1.0619815,1.0612046 0 0 0 15.188019,7.7500001 Z"
     id="path133" /></svg>
