<?xml version="1.0" standalone="no"?>
<!DOCTYPE svg PUBLIC "-//W3C//DTD SVG 20010904//EN"
 "http://www.w3.org/TR/2001/REC-SVG-20010904/DTD/svg10.dtd">
<svg version="1.0" xmlns="http://www.w3.org/2000/svg"
 width="646.000000pt" height="662.000000pt" viewBox="0 0 646.000000 662.000000"
 preserveAspectRatio="xMidYMid meet">

<g transform="translate(0.000000,662.000000) scale(0.100000,-0.100000)"
fill="#000000" stroke="none">
<path d="M3074 6549 c-2 -4 -13 -5 -24 -2 -23 6 -80 -15 -80 -29 0 -5 -6 -8
-12 -7 -7 1 -22 -1 -33 -6 -33 -13 -99 -44 -115 -54 -8 -5 -58 -29 -111 -54
-97 -45 -186 -104 -319 -210 -155 -124 -149 -114 -212 -332 l-41 -140 7 -179
c5 -148 11 -201 37 -315 17 -75 45 -169 61 -209 35 -86 31 -99 -28 -83 -62 17
-82 14 -98 -17 -22 -42 1 -132 92 -362 l78 -195 94 -76 c107 -86 94 -59 145
-309 36 -173 46 -240 52 -352 5 -95 4 -98 -31 -170 -36 -76 -82 -132 -116
-143 -11 -3 -23 -17 -26 -30 -3 -13 -14 -27 -23 -30 -16 -5 -25 -45 -10 -45 4
0 10 -9 14 -19 3 -11 14 -23 24 -26 10 -3 24 -16 31 -30 7 -13 17 -22 21 -19
5 3 23 -10 41 -28 18 -18 47 -44 64 -58 27 -21 135 -108 207 -166 9 -8 20 -14
22 -14 3 0 29 -18 57 -41 28 -22 104 -65 167 -96 64 -30 124 -62 133 -70 15
-14 19 -14 33 1 9 9 22 16 28 16 7 0 4 -5 -5 -11 -30 -17 -20 -28 21 -24 31 3
39 0 34 -11 -3 -8 0 -14 6 -14 6 0 11 -8 12 -17 0 -11 3 -13 6 -5 2 6 14 12
25 12 15 0 18 3 10 13 -8 9 -1 12 31 11 23 -1 47 -2 52 -4 6 -1 13 -2 17 -1 4
0 12 -8 18 -19 6 -11 15 -18 21 -15 5 4 9 0 9 -8 0 -10 7 -13 19 -10 10 3 22
0 25 -6 4 -6 2 -11 -3 -11 -6 0 -11 -4 -11 -10 0 -5 9 -10 20 -10 13 0 20 7
20 18 0 11 9 27 20 37 24 22 26 35 3 35 -14 0 -14 2 2 20 21 24 37 26 29 5 -4
-8 -1 -15 5 -15 6 0 11 3 11 8 0 4 12 13 27 19 21 10 29 10 34 1 4 -7 5 -16 3
-20 -3 -4 0 -8 5 -8 6 0 11 7 11 16 0 13 7 15 35 11 19 -3 37 -1 40 4 4 5 14
5 26 -2 26 -13 49 -5 49 18 0 15 2 15 14 -3 13 -17 13 -21 -7 -37 -15 -13 -18
-20 -9 -24 6 -2 10 -9 7 -14 -4 -5 -1 -17 4 -26 10 -17 10 -17 11 -1 0 21 55
79 66 70 4 -4 4 -2 1 5 -9 14 2 43 15 43 17 0 78 52 78 66 0 8 -4 14 -10 14
-5 0 -10 4 -10 10 0 5 3 9 8 9 4 -1 10 0 15 1 4 1 13 3 20 4 6 0 13 11 15 24
2 14 9 22 16 19 18 -7 46 13 29 20 -18 7 -16 24 2 17 8 -4 15 -2 15 3 0 5 10
20 22 32 20 22 44 106 27 96 -13 -8 -22 16 -11 27 12 12 -6 55 -32 77 -8 7
-12 19 -9 27 3 8 -3 24 -13 35 -42 46 -47 149 -24 487 l9 143 55 61 c123 135
163 197 189 293 14 50 27 101 30 115 3 14 10 42 15 63 7 27 5 70 -10 165 -12
77 -16 141 -12 162 4 19 6 39 5 44 -1 4 3 14 10 22 6 8 9 20 6 28 -3 8 1 17 9
20 8 3 14 10 14 16 0 6 -4 9 -9 5 -5 -3 -13 -1 -16 5 -4 6 -1 9 6 8 40 -9 106
274 69 297 -5 3 -27 -6 -49 -21 -28 -18 -46 -24 -58 -19 -10 5 -21 7 -25 7
-16 -4 -7 6 32 33 23 16 37 32 33 39 -4 7 -1 6 8 -1 13 -10 16 -10 16 2 0 23
-15 18 -63 -21 -29 -24 -44 -31 -44 -22 0 8 9 95 20 194 10 98 21 250 24 338
l4 158 -35 117 c-37 120 -79 202 -146 284 -36 43 -66 61 -351 202 l-311 154
-165 11 c-239 16 -251 16 -256 9z m730 -310 c8 -12 19 -18 25 -15 7 4 8 1 5
-8 -8 -20 -34 -21 -34 -2 0 8 -7 16 -15 20 -8 3 -15 10 -15 16 0 17 18 11 34
-11z m-14 -40 c0 -18 -1 -18 -19 -2 -22 18 -19 35 4 26 8 -3 15 -14 15 -24z
m-51 -31 c0 -18 -3 -27 -6 -20 -2 6 -11 12 -19 12 -8 0 -14 5 -14 10 0 6 7 10
15 10 8 0 15 5 15 10 0 6 2 10 5 10 3 0 5 -15 4 -32z m178 20 c37 -30 73 -71
73 -84 0 -8 7 -14 16 -14 20 0 43 -28 44 -53 0 -9 11 -22 24 -29 29 -13 42
-38 25 -49 -9 -5 -8 -11 4 -24 9 -9 21 -14 25 -11 16 10 42 -34 36 -60 -6 -25
-7 -25 -21 -4 -8 11 -27 27 -44 35 -24 13 -28 20 -23 40 5 21 3 24 -10 19 -10
-4 -25 3 -39 17 -30 32 -81 33 -85 2 -4 -25 -21 -30 -40 -11 -15 15 -48 -14
-68 -61 -17 -41 -17 -44 -1 -38 7 3 12 -4 12 -19 0 -13 -3 -24 -7 -24 -5 0 -8
-4 -8 -10 0 -6 9 -6 26 1 36 13 37 11 43 -64 0 -10 5 -16 10 -13 5 3 11 -3 14
-14 3 -11 1 -18 -4 -14 -5 3 -9 0 -9 -6 0 -7 9 -14 21 -17 11 -3 18 -11 15
-18 -2 -7 5 -15 16 -18 14 -4 19 -11 14 -22 -5 -14 -1 -16 25 -10 29 7 30 5
27 -22 -2 -20 -8 -27 -20 -25 -12 2 -15 -3 -11 -16 3 -15 -2 -21 -22 -26 -15
-4 -33 -2 -40 4 -6 5 -38 12 -70 15 -32 3 -62 8 -67 11 -5 3 -15 0 -23 -6 -8
-7 -21 -10 -30 -7 -8 4 -19 -1 -24 -10 -8 -14 -16 -11 -57 26 -55 48 -62 76
-34 126 11 21 14 39 9 59 -5 16 -6 33 -3 37 3 5 -1 27 -8 50 -11 39 -10 43 11
60 22 18 22 19 4 19 -30 0 -57 -35 -49 -65 6 -22 3 -25 -20 -25 -22 0 -25 -2
-14 -15 16 -19 4 -101 -15 -109 -8 -3 -15 -13 -15 -21 0 -15 2 -15 22 -1 12 9
26 16 30 16 15 0 8 -77 -7 -90 -13 -10 -15 -9 -15 8 0 12 5 24 10 27 6 3 10
10 10 16 0 14 -27 11 -34 -3 -3 -9 -8 -8 -16 5 -8 12 -18 16 -33 11 -18 -5
-16 -1 11 24 17 17 32 36 32 43 0 8 -6 6 -18 -4 -22 -20 -32 -13 -32 24 0 15
-4 30 -9 33 -12 8 11 89 29 103 13 10 11 12 -13 18 -25 7 -27 10 -21 44 7 33
6 35 -9 22 -14 -11 -17 -11 -17 0 0 12 -2 12 -9 0 -6 -10 -10 -10 -16 -1 -4 6
2 21 12 33 22 26 46 77 39 85 -12 12 17 43 37 40 16 -2 22 2 20 15 -1 16 3 17
25 11 15 -4 42 -8 59 -9 19 -1 40 -10 51 -23 11 -12 22 -19 25 -15 4 3 19 -3
34 -13 15 -10 35 -17 45 -16 9 2 24 -10 34 -28 10 -16 22 -30 26 -30 4 0 8 -6
8 -14 0 -8 7 -16 15 -20 19 -7 68 11 61 23 -4 5 4 7 15 4 16 -5 20 -2 17 8 -3
8 -11 13 -18 11 -8 -2 -9 5 -5 19 5 14 3 19 -3 15 -6 -3 -13 0 -16 6 -3 9 -9
7 -20 -6 -9 -11 -19 -16 -23 -12 -4 4 -1 11 6 15 11 7 11 13 1 32 -7 13 -19
28 -26 32 -8 4 -14 15 -14 23 0 8 4 13 9 9 6 -3 15 4 21 15 12 23 34 26 57 8z
m73 -228 c0 -5 -2 -10 -4 -10 -3 0 -8 5 -11 10 -3 6 -1 10 4 10 6 0 11 -4 11
-10z m150 -10 c0 -5 -4 -10 -10 -10 -5 0 -10 5 -10 10 0 6 5 10 10 10 6 0 10
-4 10 -10z m-230 -24 c0 -11 -19 -15 -25 -6 -3 5 1 10 9 10 9 0 16 -2 16 -4z
m-503 -46 c1 -11 -2 -20 -8 -20 -10 0 -12 23 -2 33 9 9 9 10 10 -13z m708 -30
c3 -5 1 -10 -4 -10 -6 0 -11 5 -11 10 0 6 2 10 4 10 3 0 8 -4 11 -10z m-704
-213 c9 -7 14 -18 11 -26 -3 -8 0 -11 6 -7 5 3 13 -1 16 -10 5 -12 1 -14 -16
-8 -18 5 -15 -1 15 -29 41 -40 45 -54 20 -64 -11 -4 -22 1 -31 15 -8 12 -21
22 -29 22 -8 0 -12 4 -8 9 3 5 -5 17 -17 25 -13 9 -17 16 -9 16 10 0 12 9 8
35 -6 37 5 44 34 22z m119 -45 c0 -15 -2 -15 -10 -2 -13 20 -13 33 0 25 6 -3
10 -14 10 -23z m-20 -34 c0 -5 -7 -8 -16 -8 -10 0 -14 6 -10 15 3 8 1 15 -5
15 -6 0 -7 5 -4 11 7 10 34 -16 35 -33z m-185 13 c-3 -6 -11 -11 -17 -11 -6 0
-6 6 2 15 14 17 26 13 15 -4z m25 -21 c0 -5 -2 -10 -4 -10 -3 0 -8 5 -11 10
-3 6 -1 10 4 10 6 0 11 -4 11 -10z m735 -290 c3 -5 -1 -10 -10 -10 -9 0 -13 5
-10 10 3 6 8 10 10 10 2 0 7 -4 10 -10z m175 -60 c24 -24 26 -50 5 -50 -8 0
-15 -4 -15 -10 0 -5 7 -10 15 -10 12 0 15 -10 11 -47 -4 -51 -22 -111 -38
-128 -12 -13 -38 21 -38 51 0 12 7 27 15 34 9 7 13 21 10 31 -4 11 -8 29 -9
42 -2 12 -9 34 -16 49 -25 52 18 80 60 38z m-743 -5 c3 -9 -2 -22 -13 -30 -17
-12 -20 -11 -27 7 -4 11 -5 24 -1 29 9 14 34 10 41 -6z m458 -201 c16 -4 46
-8 65 -8 28 -1 36 -6 42 -25 7 -24 -10 -51 -32 -51 -6 0 -26 15 -44 34 -20 20
-49 36 -70 40 -20 4 -34 11 -30 17 3 5 13 8 22 5 10 -3 30 -8 47 -12z m223
-64 c12 0 13 -3 4 -12 -19 -19 -14 -30 7 -18 24 12 34 13 27 1 -4 -5 0 -11 6
-14 10 -3 10 -7 -1 -20 -12 -16 -9 -21 12 -18 4 1 2 -8 -5 -19 -7 -11 -16 -20
-20 -20 -5 0 -8 -9 -8 -20 0 -20 -24 -28 -34 -11 -10 15 -44 1 -49 -20 -3 -10
-1 -19 4 -19 5 0 9 8 9 18 0 12 2 14 8 4 5 -7 16 -10 25 -6 17 6 23 -6 10 -20
-4 -3 -8 -13 -9 -22 -2 -10 3 -13 17 -9 27 9 37 -22 13 -40 -26 -20 -33 -19
-44 8 l-9 22 0 -22 c-1 -18 -7 -23 -25 -23 -14 0 -28 -5 -31 -11 -4 -6 -13 -8
-21 -5 -7 3 -16 1 -19 -3 -8 -15 -80 7 -112 34 -22 18 -39 30 -58 41 -10 6
-21 16 -23 24 -4 10 7 11 54 5 33 -4 69 -8 81 -7 19 0 22 -5 20 -30 -1 -18 3
-33 11 -35 7 -3 12 5 12 21 0 14 8 34 18 44 36 39 41 56 21 81 -19 24 -19 24
13 47 37 27 33 28 -59 12 -70 -12 -168 -4 -158 13 4 5 25 9 49 9 23 0 46 3 50
7 4 4 24 6 45 4 23 -1 51 5 72 17 19 10 40 17 46 15 7 -3 16 4 20 14 7 17 8
17 11 1 2 -10 11 -18 20 -18z m-556 -128 c15 -14 25 -29 22 -33 -3 -5 1 -12 9
-15 12 -4 16 -35 8 -75 -1 -7 -111 7 -119 16 -10 9 -5 160 6 179 3 5 14 -4 26
-19 11 -16 33 -40 48 -53z m121 -105 c-4 -6 2 -8 16 -4 17 4 21 2 19 -11 -2
-12 -11 -16 -28 -14 -37 6 -52 21 -37 37 14 14 40 8 30 -8z m387 -1753 c0 -8
-4 -12 -10 -9 -5 3 -10 10 -10 16 0 5 5 9 10 9 6 0 10 -7 10 -16z"/>
<path d="M3881 6164 c0 -11 3 -14 6 -6 3 7 2 16 -1 19 -3 4 -6 -2 -5 -13z"/>
<path d="M3885 6120 c-3 -5 1 -10 10 -10 9 0 13 5 10 10 -3 6 -8 10 -10 10 -2
0 -7 -4 -10 -10z"/>
<path d="M3570 6040 c0 -6 7 -10 15 -10 8 0 15 2 15 4 0 2 -7 6 -15 10 -8 3
-15 1 -15 -4z"/>
<path d="M3735 6020 c-3 -5 1 -10 9 -10 9 0 16 -4 16 -10 0 -5 10 -10 23 -9
l22 0 -22 11 c-13 6 -23 15 -23 20 0 11 -17 10 -25 -2z"/>
<path d="M3608 5973 c7 -3 16 -2 19 1 4 3 -2 6 -13 5 -11 0 -14 -3 -6 -6z"/>
<path d="M3640 5951 c0 -6 5 -13 10 -16 6 -3 10 1 10 9 0 9 -4 16 -10 16 -5 0
-10 -4 -10 -9z"/>
<path d="M3875 5710 c3 -5 8 -10 11 -10 2 0 4 5 4 10 0 6 -5 10 -11 10 -5 0
-7 -4 -4 -10z"/>
<path d="M3985 5590 c-3 -5 1 -10 10 -10 9 0 13 5 10 10 -3 6 -8 10 -10 10 -2
0 -7 -4 -10 -10z"/>
<path d="M4148 4883 c7 -3 16 -2 19 1 4 3 -2 6 -13 5 -11 0 -14 -3 -6 -6z"/>
<path d="M4200 4845 c0 -8 0 -18 -1 -22 0 -4 4 -9 10 -11 6 -2 11 8 11 22 0
14 -4 26 -10 26 -5 0 -10 -7 -10 -15z"/>
<path d="M4105 4699 c-4 -6 -5 -12 -2 -15 2 -3 7 2 10 11 7 17 1 20 -8 4z"/>
<path d="M836 5551 c-3 -4 -19 -11 -34 -14 -37 -8 -86 -49 -120 -101 l-27 -41
0 -965 0 -965 35 -49 c36 -50 81 -84 113 -85 9 -1 17 -5 17 -11 0 -13 886 -14
895 -1 3 5 19 12 36 16 44 10 96 60 124 120 l25 52 0 919 c0 906 0 920 -21
974 -25 66 -69 115 -118 131 -20 6 -40 15 -46 20 -12 12 -872 12 -879 0z m914
-59 c43 -23 61 -39 82 -78 l26 -49 1 -932 c1 -534 -3 -934 -8 -937 -5 -3 -12
-18 -16 -33 -10 -43 -64 -92 -107 -97 -3 -1 -10 -4 -14 -9 -11 -11 -872 -9
-879 3 -3 5 -12 7 -20 4 -8 -4 -34 14 -64 44 -39 39 -51 58 -56 93 -3 24 -5
460 -3 969 l3 926 32 40 c17 22 44 46 60 53 15 7 35 17 43 22 8 4 206 8 440 8
l425 1 55 -28z"/>
<path d="M1311 5395 c-33 -62 -94 -130 -131 -145 -34 -14 -34 -15 -19 -59 10
-29 15 -32 38 -26 44 10 381 18 381 9 0 -5 7 -18 15 -28 14 -19 15 -19 50 0
19 10 35 22 35 26 0 18 -116 167 -130 167 -17 0 -50 -22 -50 -34 0 -4 9 -20
21 -36 l20 -29 -84 0 c-46 0 -105 -3 -131 -6 -25 -4 -46 -3 -46 2 0 5 31 41
70 81 l69 71 -37 24 c-20 12 -39 24 -42 25 -3 2 -16 -17 -29 -42z"/>
<path d="M911 5273 l1 -118 -61 -3 -62 -3 3 -32 c3 -32 3 -32 66 -35 l63 -3
-3 -151 -3 -152 -64 -16 c-36 -9 -66 -21 -68 -27 -6 -17 25 -73 40 -73 7 0 18
5 23 10 6 6 62 28 125 48 l114 37 3 38 c3 35 2 36 -20 28 -13 -4 -35 -11 -51
-15 l-28 -7 3 143 3 142 58 -3 57 -2 0 35 0 36 -60 0 -60 0 0 120 0 120 -41 0
-40 0 2 -117z"/>
<path d="M1240 5145 c0 -20 -52 -121 -84 -165 l-26 -34 32 -17 c37 -19 50 -14
74 33 13 26 19 28 69 28 l55 0 0 -42 c0 -90 2 -88 -122 -88 l-109 0 3 -32 3
-33 98 -3 c53 -1 97 -6 97 -11 0 -16 -59 -88 -96 -118 -22 -17 -65 -44 -97
-59 l-57 -28 32 -33 c18 -18 36 -33 41 -33 15 0 129 85 169 127 20 21 50 62
66 91 l29 53 17 -41 c32 -80 101 -146 212 -203 l32 -16 27 40 c14 23 25 42 23
43 -2 1 -32 13 -67 27 -69 26 -143 84 -167 130 l-15 29 116 0 115 0 0 35 0 35
-141 0 -142 0 7 46 c3 26 6 55 6 65 0 17 9 19 90 19 l90 0 0 35 0 35 -166 2
-166 3 21 27 c29 36 27 43 -18 56 -49 15 -51 15 -51 -3z"/>
<path d="M1346 4310 l-7 -50 -119 0 -120 0 0 -30 0 -30 115 0 c113 0 115 0
115 -22 0 -42 -12 -47 -110 -50 l-95 -3 0 -118 0 -119 265 1 265 0 3 120 3
121 -131 0 c-137 0 -136 0 -124 48 6 22 9 22 156 22 l149 0 -3 28 -3 27 -144
3 -144 3 7 49 7 50 -39 0 -39 0 -7 -50z m-61 -305 l0 -60 -42 -3 -43 -3 0 66
0 66 43 -3 42 -3 0 -60z m150 0 l0 -60 -37 -3 -38 -3 0 66 0 66 38 -3 37 -3 0
-60z m155 -1 l0 -65 -42 3 -43 3 -3 49 c-4 68 1 76 48 76 l40 0 0 -66z"/>
<path d="M924 4278 c-26 -40 -66 -95 -89 -123 l-43 -50 22 -27 c12 -16 25 -28
28 -28 10 0 198 243 198 255 0 10 -50 45 -64 45 -3 0 -26 -33 -52 -72z"/>
<path d="M969 4073 c-40 -71 -117 -170 -164 -212 l-36 -31 24 -36 25 -35 41
48 41 48 0 -212 0 -213 40 0 40 0 0 263 0 263 45 62 c25 34 45 66 45 72 0 8
-50 40 -64 40 -2 0 -19 -26 -37 -57z"/>
<path d="M1080 3805 l0 -31 310 1 310 0 0 30 0 30 -310 0 -310 0 0 -30z"/>
<path d="M1367 3728 c-16 -12 -15 -17 1 -70 10 -32 21 -60 24 -63 3 -4 20 1
37 9 l30 16 -21 60 c-23 62 -38 72 -71 48z"/>
<path d="M1572 3700 c-13 -11 -22 -23 -20 -27 1 -5 28 -41 58 -80 50 -67 56
-72 74 -59 43 28 41 39 -19 114 -32 40 -60 72 -64 72 -3 -1 -17 -9 -29 -20z"/>
<path d="M1204 3695 c-4 -9 -4 -58 -1 -108 7 -125 9 -127 179 -127 73 0 138 5
150 11 21 11 52 74 44 88 -3 5 -20 14 -37 21 -34 14 -49 4 -49 -33 0 -10 -12
-22 -26 -27 -33 -13 -125 -13 -158 0 -24 9 -25 13 -28 97 l-3 88 -33 3 c-23 2
-34 -2 -38 -13z"/>
<path d="M1096 3678 c-3 -7 -18 -53 -34 -101 l-30 -88 25 -10 c13 -5 30 -9 36
-9 18 1 78 187 64 198 -23 18 -57 24 -61 10z"/>
<path d="M4345 5060 c-3 -5 -1 -10 4 -10 6 0 11 5 11 10 0 6 -2 10 -4 10 -3 0
-8 -4 -11 -10z"/>
<path d="M5248 4063 c-16 -4 -18 -20 -18 -159 l0 -154 25 0 c25 0 25 1 25 79
0 94 12 114 69 109 l36 -3 3 -92 3 -93 29 0 30 0 0 93 c0 85 -2 95 -24 116
-32 30 -86 37 -127 17 -38 -19 -47 -20 -31 -4 13 13 17 99 5 97 -5 -1 -16 -3
-25 -6z"/>
<path d="M4653 3990 c-14 -6 -23 -18 -23 -30 0 -18 4 -20 35 -14 43 8 85 -2
85 -20 0 -10 -12 -12 -47 -9 -66 7 -103 -21 -103 -78 0 -79 83 -116 151 -68
29 20 40 14 17 -10 -11 -10 -8 -12 12 -9 24 3 25 6 28 87 2 48 -2 97 -9 112
-17 42 -90 61 -146 39z m93 -142 c8 -26 -13 -48 -45 -48 -31 0 -51 16 -51 42
0 38 84 43 96 6z"/>
<path d="M4857 3983 c-10 -9 -9 -233 1 -233 4 0 17 3 30 6 20 6 22 12 22 86
l0 79 34 14 c28 12 46 32 46 51 0 8 -42 4 -63 -7 -16 -9 -22 -9 -25 0 -4 12
-35 15 -45 4z"/>
<path d="M5045 3981 c-36 -15 -58 -49 -63 -100 -8 -86 51 -139 144 -128 58 6
80 25 61 51 -11 15 -17 16 -35 7 -60 -32 -116 1 -110 65 4 50 44 74 92 55 26
-9 33 -8 50 8 18 19 18 19 -12 35 -33 17 -94 20 -127 7z"/>
<path d="M4160 2872 c0 -7 -7 -9 -17 -5 -15 5 -16 3 -5 -8 9 -10 15 -10 24 -1
6 6 9 15 5 19 -4 3 -7 1 -7 -5z"/>
<path d="M4164 2772 c3 -25 0 -32 -10 -28 -18 7 -18 -2 0 -20 13 -12 15 -10
21 16 4 16 2 37 -4 47 -9 15 -10 12 -7 -15z"/>
<path d="M4091 2756 c-8 -10 -9 -16 -1 -21 5 -3 13 1 16 10 9 22 -1 29 -15 11z"/>
<path d="M3565 2519 c-10 -15 3 -25 16 -12 7 7 7 13 1 17 -6 3 -14 1 -17 -5z"/>
<path d="M3520 2490 c0 -5 5 -10 10 -10 6 0 10 5 10 10 0 6 -4 10 -10 10 -5 0
-10 -4 -10 -10z"/>
<path d="M3606 2457 c3 -10 9 -15 12 -12 3 3 0 11 -7 18 -10 9 -11 8 -5 -6z"/>
<path d="M3505 2440 c3 -5 8 -10 11 -10 2 0 4 5 4 10 0 6 -5 10 -11 10 -5 0
-7 -4 -4 -10z"/>
<path d="M3947 2443 c-12 -12 -7 -22 8 -17 8 4 15 10 15 15 0 11 -14 12 -23 2z"/>
<path d="M3570 2429 c0 -5 5 -7 10 -4 6 3 10 8 10 11 0 2 -4 4 -10 4 -5 0 -10
-5 -10 -11z"/>
<path d="M4085 1860 c-9 -15 25 -74 37 -62 6 6 4 20 -6 41 -18 33 -22 36 -31
21z"/>
<path d="M4023 1842 c-8 -5 -7 -16 6 -39 10 -20 21 -29 28 -25 8 5 7 16 -6 39
-10 20 -21 29 -28 25z"/>
<path d="M3430 1626 c0 -119 4 -187 11 -191 16 -11 113 42 157 85 53 51 66 74
48 89 -10 9 -19 2 -41 -29 -28 -40 -107 -100 -132 -100 -10 0 -13 34 -13 165
0 140 -2 165 -15 165 -13 0 -15 -27 -15 -184z"/>
<path d="M4390 1626 c0 -119 4 -187 11 -191 16 -11 113 42 157 85 53 51 66 74
48 89 -10 9 -19 2 -41 -29 -28 -40 -107 -100 -132 -100 -10 0 -13 34 -13 165
0 140 -2 165 -15 165 -13 0 -15 -27 -15 -184z"/>
<path d="M516 1792 c-3 -5 1 -9 9 -9 8 0 12 4 9 9 -3 4 -7 8 -9 8 -2 0 -6 -4
-9 -8z"/>
<path d="M3288 1687 c-5 -114 -29 -184 -74 -214 -24 -15 -31 -37 -16 -47 14
-8 84 66 104 111 12 27 20 78 25 147 6 102 5 106 -14 106 -19 0 -21 -8 -25
-103z"/>
<path d="M3710 1775 c0 -13 24 -15 155 -15 131 0 155 2 155 15 0 13 -24 15
-155 15 -131 0 -155 -2 -155 -15z"/>
<path d="M4248 1687 c-5 -114 -29 -184 -74 -214 -24 -15 -31 -37 -16 -47 14
-8 84 66 104 111 12 27 20 78 25 147 6 102 5 106 -14 106 -19 0 -21 -8 -25
-103z"/>
<path d="M2750 1755 c0 -12 16 -15 85 -15 l85 0 0 -130 0 -130 -100 0 c-82 0
-100 -3 -100 -15 0 -13 31 -15 220 -15 189 0 220 2 220 15 0 12 -18 15 -100
15 l-100 0 0 130 0 130 85 0 c69 0 85 3 85 15 0 13 -28 15 -190 15 -162 0
-190 -2 -190 -15z"/>
<path d="M3680 1645 c0 -12 18 -15 106 -15 l107 0 -6 -47 c-4 -39 -12 -54 -41
-79 -19 -17 -53 -36 -75 -43 -29 -8 -39 -16 -35 -26 7 -17 40 -12 94 15 63 32
100 87 100 151 l0 29 90 0 c73 0 90 3 90 15 0 13 -31 15 -215 15 -184 0 -215
-2 -215 -15z"/>
<path d="M463 1603 c-15 -5 -17 -23 -4 -23 5 0 11 7 15 15 3 8 4 15 3 14 -1 0
-8 -3 -14 -6z"/>
<path d="M433 1509 c3 -9 1 -21 -4 -26 -6 -6 -6 -19 -1 -33 8 -23 9 -22 15 9
4 18 2 40 -4 49 -9 15 -10 15 -6 1z"/>
<path d="M407 1406 c-3 -8 -3 -25 0 -38 4 -19 3 -20 -7 -8 -10 13 -11 13 -8 0
1 -8 -5 -37 -14 -65 -28 -86 -29 -102 -10 -116 9 -7 14 -9 10 -5 -4 5 -3 16 4
23 9 11 9 16 0 22 -10 6 -8 20 5 62 9 30 21 57 26 60 5 4 10 23 11 43 1 36 -7
48 -17 22z"/>
<path d="M1195 1260 c-3 -5 -1 -10 4 -10 6 0 11 5 11 10 0 6 -2 10 -4 10 -3 0
-8 -4 -11 -10z"/>
<path d="M1170 1191 c0 -11 4 -21 9 -21 18 0 21 18 6 30 -13 10 -15 9 -15 -9z"/>
<path d="M340 1171 c0 -6 5 -13 10 -16 6 -3 10 1 10 9 0 9 -4 16 -10 16 -5 0
-10 -4 -10 -9z"/>
<path d="M1216 1141 c-8 -12 36 -26 56 -18 7 3 4 6 -7 6 -12 1 -26 6 -32 12
-7 7 -13 8 -17 0z"/>
<path d="M282 934 c-30 -113 -51 -208 -48 -211 3 -4 6 0 6 8 0 8 9 25 20 39
11 14 20 36 20 50 0 15 4 30 8 35 5 6 14 30 21 55 7 25 19 66 27 91 8 25 12
53 8 62 -3 10 -1 23 5 30 8 10 7 18 -2 30 -10 15 -21 -16 -65 -189z"/>
<path d="M1295 1020 c3 -5 11 -10 16 -10 6 0 7 5 4 10 -3 6 -11 10 -16 10 -6
0 -7 -4 -4 -10z"/>
<path d="M800 1000 c0 -5 4 -10 9 -10 6 0 13 5 16 10 3 6 -1 10 -9 10 -9 0
-16 -4 -16 -10z"/>
<path d="M1316 985 c-3 -8 -3 -22 0 -30 7 -17 34 -21 34 -4 0 5 5 7 10 4 6 -3
10 -1 10 4 0 6 -4 11 -10 11 -5 0 -10 7 -10 15 0 8 -6 15 -14 15 -8 0 -16 -7
-20 -15z"/>
<path d="M1760 920 c0 -5 5 -10 10 -10 6 0 10 5 10 10 0 6 -4 10 -10 10 -5 0
-10 -4 -10 -10z"/>
<path d="M1367 913 c-12 -11 -7 -23 9 -23 9 0 14 -6 11 -13 -3 -8 -2 -19 3
-26 6 -10 12 -9 28 4 20 18 20 18 -8 41 -30 26 -33 27 -43 17z"/>
<path d="M1736 854 c-14 -20 -17 -37 -14 -75 3 -27 2 -49 -1 -49 -3 0 -19 19
-35 42 -17 23 -32 36 -34 30 -3 -11 31 -107 63 -177 12 -27 12 -31 -6 -48 -19
-18 -45 -15 -34 4 4 5 2 9 -4 9 -17 0 -23 -20 -11 -35 20 -25 25 -121 6 -149
-9 -15 -12 -27 -6 -31 6 -3 10 -26 10 -51 0 -28 4 -43 10 -39 14 8 13 -1 -3
-33 -13 -25 -36 -133 -42 -193 -1 -13 -3 -27 -4 -31 -6 -36 -231 5 -442 80
-150 53 -172 61 -319 107 -80 25 -154 50 -165 55 -11 5 -69 28 -130 51 -60 23
-130 50 -154 60 -24 11 -51 19 -60 19 -9 0 -31 9 -50 21 -37 22 -81 41 -81 34
0 -2 23 -16 51 -32 l51 -28 -6 -197 -6 -198 765 0 c713 0 765 1 765 17 0 13 3
14 12 5 19 -19 28 -14 28 14 0 22 2 25 15 14 11 -9 18 -10 29 -1 11 9 18 6 34
-14 23 -29 32 -32 32 -10 0 11 11 15 36 15 31 0 35 -3 29 -20 -4 -11 -2 -20 4
-20 6 0 11 5 11 11 0 5 9 9 19 7 11 -2 28 7 39 19 l19 22 22 -20 c25 -23 31
-21 34 10 2 26 25 27 43 4 12 -17 14 -17 44 0 17 10 61 23 97 28 36 5 76 12
89 15 17 4 24 2 24 -9 0 -8 7 -18 16 -21 25 -9 30 2 9 18 -14 10 -15 15 -5 21
7 4 15 3 19 -3 4 -6 12 -7 19 -3 10 6 10 14 2 36 -10 27 -12 27 -73 22 -34 -3
-111 -13 -172 -21 -91 -13 -386 -30 -460 -27 -11 0 -31 1 -44 1 -13 0 -30 5
-38 12 -11 9 -17 9 -25 -3 -7 -11 -11 -11 -15 -1 -2 6 -9 10 -14 6 -5 -3 -9 0
-9 6 0 6 7 13 15 16 12 5 14 15 9 43 -4 27 -3 32 5 21 9 -13 11 -13 11 3 0 20
52 45 58 28 6 -17 22 -13 22 5 0 11 5 14 18 9 9 -4 42 -9 72 -10 30 -2 67 -8
81 -14 18 -6 30 -6 37 1 16 16 114 17 139 0 20 -12 30 -12 68 -1 25 7 45 17
45 21 0 12 38 10 45 -2 3 -5 14 -10 23 -10 16 1 16 2 0 14 -10 7 -18 25 -18
40 0 14 -5 26 -11 26 -6 0 -9 -6 -6 -14 5 -12 -11 -26 -29 -26 -10 0 -3 29 8
32 15 5 -13 38 -31 38 -15 0 -14 -17 2 -24 6 -3 1 -3 -13 1 -40 10 -110 10
-116 1 -4 -5 -12 -7 -20 -4 -7 3 -17 -1 -22 -9 -6 -12 -17 -13 -57 -6 -38 7
-52 6 -62 -5 -18 -18 -37 -18 -52 0 -21 25 -1 45 55 56 65 14 102 15 132 6 15
-5 22 -3 22 6 0 7 10 19 21 27 17 10 23 10 29 0 11 -17 67 40 62 64 -3 17 -22
25 -22 9 0 -5 -27 -9 -59 -9 -33 0 -66 -4 -73 -10 -23 -17 -91 -34 -143 -37
-28 -1 -56 -5 -62 -9 -6 -4 -15 -3 -18 3 -4 6 -15 8 -26 5 -15 -5 -18 -3 -12
12 4 10 13 23 21 29 8 6 12 16 8 22 -9 15 13 27 27 13 7 -7 17 -3 33 14 13 14
31 25 41 25 16 0 15 1 -2 14 -11 8 -35 12 -53 10 -27 -3 -32 0 -32 17 0 11 8
23 17 26 23 9 63 49 63 63 0 5 4 10 9 10 16 0 53 59 45 72 -5 7 -10 3 -16 -12
-8 -22 -9 -22 -22 -4 -13 17 -16 16 -59 -19 -25 -20 -48 -37 -52 -37 -4 0 -15
-10 -24 -21 -15 -19 -21 -20 -40 -10 -18 10 -20 15 -11 26 7 8 9 18 6 23 -6
10 23 39 33 34 3 -2 7 2 10 9 2 7 -1 9 -9 4 -10 -6 -11 -4 -5 11 7 18 8 94 1
101 -2 2 -15 -1 -29 -6 -24 -9 -27 -8 -33 14 -8 31 -14 31 -38 -1z m154 -504
c0 -5 -4 -10 -10 -10 -5 0 -15 -11 -22 -24 -11 -19 -17 -22 -36 -15 -19 7 -21
12 -13 28 7 12 18 17 30 14 10 -3 22 0 25 6 9 14 26 14 26 1z m20 -34 c0 -8 6
-17 13 -20 6 -3 1 -4 -13 -3 -28 2 -42 37 -16 37 9 0 16 -6 16 -14z m350 -10
c0 -2 -7 -7 -16 -10 -8 -3 -12 -2 -9 4 6 10 25 14 25 6z m30 -35 c0 -11 -39
-21 -45 -11 -2 4 -2 10 2 14 10 9 43 7 43 -3z m-450 -241 c0 -5 -5 -10 -11
-10 -5 0 -7 5 -4 10 3 6 8 10 11 10 2 0 4 -4 4 -10z"/>
<path d="M1417 815 c-9 -7 -17 -18 -17 -26 0 -12 2 -12 9 0 7 11 10 10 18 -3
11 -21 65 -12 57 9 -9 22 -48 34 -67 20z"/>
<path d="M1881 774 c0 -11 3 -14 6 -6 3 7 2 16 -1 19 -3 4 -6 -2 -5 -13z"/>
<path d="M1005 770 c3 -5 8 -10 11 -10 2 0 4 5 4 10 0 6 -5 10 -11 10 -5 0 -7
-4 -4 -10z"/>
<path d="M1497 743 c-12 -11 -8 -23 9 -23 8 0 12 -4 9 -10 -3 -5 -1 -10 5 -10
6 0 9 -4 6 -8 -3 -5 0 -9 7 -9 7 0 20 -4 30 -8 10 -4 17 -3 17 4 0 6 -5 11
-12 11 -6 0 -9 3 -5 6 7 8 -33 54 -48 54 -6 0 -15 -3 -18 -7z"/>
<path d="M206 644 c-11 -43 -14 -70 -7 -77 6 -6 9 -4 8 4 -1 36 4 50 16 43 9
-5 9 -4 1 5 -8 9 -9 23 -2 48 5 19 7 37 5 39 -2 3 -12 -25 -21 -62z"/>
<path d="M1610 627 c0 -7 6 -22 14 -32 13 -19 14 -18 13 8 -2 26 -27 49 -27
24z"/>
<path d="M5550 626 c-37 -36 -154 -88 -222 -100 -70 -12 -72 -13 -85 -51 -7
-21 -24 -52 -37 -69 -43 -57 -52 -165 -30 -353 l6 -53 245 0 245 0 -5 23 c-3
12 -24 139 -47 282 -58 364 -52 339 -70 321z"/>
<path d="M2083 613 c-7 -2 -13 -9 -13 -14 0 -6 4 -8 9 -5 5 3 12 -6 15 -19 4
-16 11 -23 18 -19 9 6 9 9 0 12 -19 6 -14 22 8 22 11 0 20 5 20 10 0 6 -4 10
-9 10 -5 0 -15 2 -23 4 -7 3 -19 2 -25 -1z"/>
<path d="M2010 600 c0 -5 10 -15 23 -21 22 -12 22 -12 3 10 -21 23 -26 26 -26
11z"/>
<path d="M1988 574 c-2 -5 0 -18 6 -29 12 -23 47 -27 54 -6 3 9 -1 11 -15 7
-14 -5 -23 0 -30 16 -5 12 -12 18 -15 12z"/>
<path d="M180 539 c0 -11 4 -18 10 -14 5 3 7 12 3 20 -7 21 -13 19 -13 -6z"/>
<path d="M170 501 c0 -6 4 -13 10 -16 6 -3 7 1 4 9 -7 18 -14 21 -14 7z"/>
<path d="M1760 159 c0 -5 5 -7 10 -4 6 3 10 8 10 11 0 2 -4 4 -10 4 -5 0 -10
-5 -10 -11z"/>
<path d="M2237 33 c-4 -3 -7 -13 -7 -21 0 -12 3 -12 15 -2 8 7 15 16 15 21 0
11 -14 12 -23 2z"/>
</g>
</svg>
