<?xml version="1.0" encoding="UTF-8" standalone="no"?>
<svg
   width="16"
   height="16"
   version="1.1"
   id="svg4"
   sodipodi:docname="emblem-synchronizing-symbolic-new.svg"
   xml:space="preserve"
   inkscape:version="1.2.1 (9c6d41e410, 2022-07-14)"
   xmlns:inkscape="http://www.inkscape.org/namespaces/inkscape"
   xmlns:sodipodi="http://sodipodi.sourceforge.net/DTD/sodipodi-0.dtd"
   xmlns="http://www.w3.org/2000/svg"
   xmlns:svg="http://www.w3.org/2000/svg"><defs
     id="defs8" /><sodipodi:namedview
     id="namedview6"
     pagecolor="#ffffff"
     bordercolor="#000000"
     borderopacity="0.25"
     inkscape:showpageshadow="2"
     inkscape:pageopacity="0.0"
     inkscape:pagecheckerboard="0"
     inkscape:deskcolor="#d1d1d1"
     showgrid="false"
     inkscape:zoom="22.693708"
     inkscape:cx="-8.2401695"
     inkscape:cy="8.5265925"
     inkscape:current-layer="svg4" /><g
     transform="matrix(0.00152735,0,0,-0.00152735,0.36329833,8.1833274)"
     id="g243"
     style="fill:#444444;fill-opacity:1"><path
       d="m 1134.8,5015 c -130.5,-32.6 -220.7,-120.9 -220.7,-218.8 0,-163.1 23,-191.9 545,-719.6 l 500.9,-504.7 -57.6,-42.2 c -30.7,-23 -143.9,-117.1 -249.5,-207.3 C 1023.5,2783.2 545.6,2053.9 298,1251.8 75.4,537.9 39,-314.1 196.3,-1041.5 c 251.4,-1151.4 944.2,-2172.4 1897.9,-2801.8 664,-437.5 1351,-669.7 2151.3,-731.1 197.7,-13.4 238,-1.9 295.5,94 36.5,57.6 38.4,99.8 38.4,617.9 0,606.4 0,612.2 -111.3,669.7 -28.8,13.4 -107.5,32.6 -176.6,40.3 -1067,113.2 -1972.8,746.5 -2452.5,1709.9 -418.4,838.6 -429.9,1817.3 -28.8,2675.1 143.9,312.8 347.3,594.9 617.9,863.6 207.3,205.3 500.9,441.4 550.8,441.4 9.6,0 228.4,-209.2 487.4,-466.3 491.3,-487.4 523.9,-512.4 685.1,-512.4 69.1,0 147.8,57.6 193.8,140.1 30.7,55.7 32.6,180.4 38.4,1525.6 3.8,1040.1 -1.9,1487.3 -17.3,1542.9 -26.9,101.7 -138.2,214.9 -238,243.7 -86.2,23.1 -2895.7,27 -2993.5,3.9 z"
       id="path239"
       style="fill:#444444;fill-opacity:1" /><path
       d="m 5523.6,4790.5 c -94,-65.2 -99.8,-99.8 -99.8,-694.7 0,-522 1.9,-558.4 38.4,-602.6 49.9,-65.2 113.2,-86.4 320.5,-111.3 679.3,-78.7 1306.9,-389.6 1809.6,-900 238,-239.9 399.2,-462.5 543.1,-746.5 C 8381,1257.5 8482.7,831.5 8480.8,301.9 8479,-381.3 8271.7,-993.5 7861,-1540.4 c -145.8,-195.8 -424.1,-470.2 -623.7,-617.9 -236,-176.5 -155.4,-213 -696.6,324.3 -497,493.2 -522,514.3 -687,514.3 -71,0 -149.7,-55.6 -195.7,-140.1 -30.7,-55.6 -32.6,-180.4 -38.4,-1525.6 -3.9,-1040.1 1.9,-1487.3 17.3,-1542.9 26.9,-105.5 138.2,-216.8 243.7,-243.7 57.6,-15.4 499,-21.1 1542.9,-17.3 1345.2,5.7 1470,7.7 1525.6,38.4 82.5,46.1 140.1,124.7 140.1,193.8 0,163.1 -23,191.9 -545,719.6 l -500.9,504.7 57.6,42.2 c 134.3,97.9 451,381.9 573.8,514.3 660.2,708.1 1061.3,1550.6 1193.6,2502.4 42.2,309 42.2,880.8 0,1189.8 -138.2,982.6 -554.6,1850 -1228.2,2560 -168.8,176.6 -510.4,460.6 -731.1,606.4 -608.3,401.1 -1226.3,625.6 -1944,710 -309,36.6 -387.7,36.6 -441.4,-1.8 z"
       id="path241"
       style="fill:#444444;fill-opacity:1" /></g></svg>
