/* XPM */
static char * bottom_active_xpm[] = {
"16 4 4 1",
" 	c None",
".	c #43486B",
"+	c #82859A",
"@	c #CBCEE3",
"................",
"++++++++++++++++",
"@@@@@@@@@@@@@@@@",
"................"};
