/* XPM */
static char * bottom_right_active_xpm[] = {
"20 20 4 1",
" 	c None",
".	c #43486B",
"+	c #CBCEE3",
"@	c #82859A",
"                ....",
"                .+@.",
"                .+@.",
"                .+@.",
"                .+@.",
"                .+@.",
"                .+@.",
"                .+@.",
"                .+@.",
"                .+@.",
"                .+@.",
"                .+@.",
"                .+@.",
"                .+@.",
"                .+@.",
"                .+@.",
".................+@.",
".+++++++++++++++++@.",
".@@@@@@@@@@@@@@@@@@.",
"................... "};
