/* XPM */
static char * bottom_left_inactive_xpm[] = {
"20 20 4 1",
"       c None",
".      c #52545C",
"+      c #D4D5DA",
"@      c #868A96",
".+@.                ",
".+@.                ",
".+@.                ",
".+@.                ",
".+@.                ",
".+@.                ",
".+@.                ",
".+@.                ",
".+@.                ",
".+@.                ",
".+@.                ",
".+@.                ",
".+@.                ",
".+@.                ",
".+@.                ",
".+@.                ",
".+@.................",
".+@@@@@@@@@@@@@@@@@@",
".+++++++++++++++++++",
" ..................."};
