/* XPM */
static char * close_pressed_xpm[] = {
"19 26 23 1",
" 	c None",
".	c #43486B",
"+	c #E3E3E3",
"@	c #FF5B5B",
"#	c #FF5757",
"$	c #FF5353",
"%	c #FF4D4D",
"&	c #FF4949",
"*	c #FFFFFF",
"=	c #744848",
"-	c #FF4343",
";	c #FF3D3D",
">	c #FF3939",
",	c #FF3333",
"'	c #FF2F2F",
")	c #FF2B2B",
"!	c #FF2525",
"~	c #FF1F1F",
"{	c #FF1B1B",
"]	c #FF1515",
"^	c #FF1111",
"/	c #FF0B0B",
"(	c #FF0505",
"                   ",
"                   ",
"                   ",
"...................",
".+@@@@@@@@@@@@@@@@@",
".+#################",
".+$$$$$$$$$$$$$$$$$",
".+%%%%%%%%%%%%%%%%%",
".+&&&&**=&&&&=**&&&",
".+----***=--=***---",
".+;;;;=***;;***=;;;",
".+>>>>>=******=>>>>",
".+,,,,,,,****,,,,,,",
".+'''''''****''''''",
".+)))))=******=))))",
".+!!!!=***!!***=!!!",
".+~~~~***=~~=***~~~",
".+{{{{**={{{{=**{{{",
".+]]]]]]]]]]]]]]]]]",
".+^^^^^^^^^^^^^^^^^",
".+/////////////////",
".+(((((((((((((((((",
"...................",
"                   ",
"                   ",
"                   "};
