/* XPM */
static char * hide_active_xpm[] = {
"19 26 71 1",
" 	c None",
".	c #43486B",
"+	c #DADAB6",
"@	c #C2B898",
"#	c #C1B695",
"$	c #BFB493",
"%	c #BDB28F",
"&	c #BBB08D",
"*	c #B2A784",
"=	c #ACA17E",
"-	c #B4A886",
";	c #B9AD89",
">	c #B3A783",
",	c #9D916E",
"'	c #8D815F",
")	c #8E8261",
"!	c #9E926F",
"~	c #B6AA87",
"{	c #B7AB85",
"]	c #B5A984",
"^	c #968A67",
"/	c #90876D",
"(	c #C3BDB2",
"_	c #E8E6E3",
":	c #BCB7AB",
"<	c #8C815F",
"[	c #9F936F",
"}	c #B5A983",
"|	c #AFA37D",
"1	c #8E8260",
"2	c #D0CDC6",
"3	c #FFFFFF",
"4	c #FFFEFE",
"5	c #B3AEA1",
"6	c #958966",
"7	c #B4A882",
"8	c #B3A67F",
"9	c #AB9E78",
"0	c #8F8362",
"a	c #E8E8E4",
"b	c #CBC7BF",
"c	c #918563",
"d	c #B1A47D",
"e	c #B2A57C",
"f	c #AC9F77",
"g	c #8C805D",
"h	c #BBB6AA",
"i	c #F7F6F4",
"j	c #98907A",
"k	c #958965",
"l	c #B1A47B",
"m	c #B0A37A",
"n	c #9A8D68",
"o	c #8C805F",
"p	c #B1ACA0",
"q	c #CBC8C2",
"r	c #A29B8B",
"s	c #8A7E5C",
"t	c #A69972",
"u	c #AEA076",
"v	c #AC9E74",
"w	c #9D9069",
"x	c #968A65",
"y	c #988C68",
"z	c #A1946C",
"A	c #AC9E72",
"B	c #AA9C70",
"C	c #A8996C",
"D	c #A6976A",
"E	c #A49566",
"F	c #A29262",
"                   ",
"                   ",
"                   ",
"...................",
".+@@@@@@@@@@@@@@@@@",
".+#################",
".+$$$$$$$$$$$$$$$$$",
".+%%%%%%%%%%%%%%%%%",
".+&&&&&&&*=-&&&&&&&",
".+;;;;;>,')'!~;;;;;",
".+{{{{]^/(_:<[{{{{{",
".+}}}}|12334567}}}}",
".+888890a333bcd8888",
".+eeeefgh43ijkleeee",
".+mmmmmnopqrstmmmmm",
".+uuuuuvwxyxzuuuuuu",
".+AAAAAAAAAAAAAAAAA",
".+BBBBBBBBBBBBBBBBB",
".+CCCCCCCCCCCCCCCCC",
".+DDDDDDDDDDDDDDDDD",
".+EEEEEEEEEEEEEEEEE",
".+FFFFFFFFFFFFFFFFF",
"...................",
"                   ",
"                   ",
"                   "};
