/* XPM */
static char * hide_pressed_xpm[] = {
"19 26 73 1",
" 	c None",
".	c #43486B",
"+	c #E3E3E3",
"@	c #FFD65B",
"#	c #FFD557",
"$	c #FFD553",
"%	c #FFD34D",
"&	c #FFD249",
"*	c #ECC54D",
"=	c #DFBC50",
"-	c #EFC74D",
";	c #FFD143",
">	c #F1C847",
",	c #C1A654",
"'	c #9C8D60",
")	c #9D8E62",
"!	c #C4A853",
"~	c #F9CD45",
"{	c #FFCF3D",
"]	c #FBCD3E",
"^	c #B29B58",
"/	c #A1905F",
"(	c #C6C1B6",
"_	c #E9E7E4",
":	c #C0BBB0",
"<	c #998A60",
"[	c #C9AA4F",
"}	c #FFCE39",
"|	c #F1C43E",
"1	c #9F8E5F",
"2	c #D3D0C9",
"3	c #FFFFFF",
"4	c #FFFFFE",
"5	c #B8B2A6",
"6	c #B19A58",
"7	c #FDCD3A",
"8	c #FFCD33",
"9	c #EBC03B",
"0	c #A19060",
"a	c #EAE9E5",
"b	c #CECAC2",
"c	c #A6935D",
"d	c #F9C935",
"e	c #FFCC2F",
"f	c #F1C336",
"g	c #9C8C5E",
"h	c #BFBAAF",
"i	c #F8F7F5",
"j	c #9F9781",
"k	c #B69C50",
"l	c #FDCB30",
"m	c #FFCB2B",
"n	c #C4A548",
"o	c #998B63",
"p	c #B6B1A5",
"q	c #CDCBC5",
"r	c #A8A191",
"s	c #988961",
"t	c #E3B939",
"u	c #FFC925",
"v	c #F9C528",
"w	c #D0AB3F",
"x	c #BA9E4E",
"y	c #BDA14E",
"z	c #BB9F4B",
"A	c #DBB239",
"B	c #FEC826",
"C	c #FFC81F",
"D	c #FFC71B",
"E	c #FFC515",
"F	c #FFC411",
"G	c #FFC30B",
"H	c #FFC105",
"                   ",
"                   ",
"                   ",
"...................",
".+@@@@@@@@@@@@@@@@@",
".+#################",
".+$$$$$$$$$$$$$$$$$",
".+%%%%%%%%%%%%%%%%%",
".+&&&&&&&*=-&&&&&&&",
".+;;;;;>,')'!~;;;;;",
".+{{{{]^/(_:<[{{{{{",
".+}}}}|12334567}}}}",
".+888890a333bcd8888",
".+eeeefgh43ijkleeee",
".+mmmmmnopqrstmmmmm",
".+uuuuuvwxyzABuuuuu",
".+CCCCCCCCCCCCCCCCC",
".+DDDDDDDDDDDDDDDDD",
".+EEEEEEEEEEEEEEEEE",
".+FFFFFFFFFFFFFFFFF",
".+GGGGGGGGGGGGGGGGG",
".+HHHHHHHHHHHHHHHHH",
"...................",
"                   ",
"                   ",
"                   "};
