/* XPM */
static char * hide_inactive_xpm[] = {
"19 26 67 1",
"       c None",
".      c #52545C",
"+      c #D4D5DA",
"@      c #A7AAB3",
"#      c #A5A8B1",
"$      c #A3A6AF",
"%      c #A0A3AC",
"&      c #9EA1AA",
"*      c #9498A2",
"=      c #8E929D",
"-      c #9699A4",
";      c #9B9EA7",
">      c #7D8290",
",      c #6C7283",
"'      c #6E7484",
")      c #7F8391",
"!      c #989BA5",
"~      c #979AA5",
"{      c #9599A4",
"]      c #767B8A",
"^      c #757B8B",
"/      c #B6B8C1",
"(      c #E3E4E8",
"_      c #AEB1BB",
":      c #7F8392",
"<      c #9598A3",
"[      c #8F929E",
"}      c #6D7384",
"|      c #C8CAD1",
"1      c #FFFFFF",
"2      c #FEFEFE",
"3      c #A4A8B2",
"4      c #757A89",
"5      c #9497A2",
"6      c #9295A0",
"7      c #8A8D9A",
"8      c #6F7585",
"9      c #E4E5E9",
"0      c #C1C3CA",
"a      c #717686",
"b      c #90939E",
"c      c #8A8E9A",
"d      c #6B7182",
"e      c #ADB1BA",
"f      c #F5F5F6",
"g      c #818694",
"h      c #747989",
"i      c #8F929D",
"j      c #8E919C",
"k      c #787D8C",
"l      c #6C7182",
"m      c #A3A6B1",
"n      c #C2C5CC",
"o      c #8F93A0",
"p      c #6A6F81",
"q      c #848894",
"r      c #8B8E99",
"s      c #898C98",
"t      c #7B7F8D",
"u      c #777C8B",
"v      c #7F8390",
"w      c #878B97",
"x      c #858995",
"y      c #828692",
"z      c #808490",
"A      c #7D818D",
"B      c #7A7E8A",
"                   ",
"                   ",
"                   ",
"...................",
".+@@@@@@@@@@@@@@@@@",
".+#################",
".+$$$$$$$$$$$$$$$$$",
".+%%%%%%%%%%%%%%%%%",
".+&&&&&&&*=-&&&&&&&",
".+;;;;;*>,',)!;;;;;",
".+~~~~{]^/(_,:~~~~~",
".+<<<<[}|112345<<<<",
".+66667891110ab6666",
".+bbbbcde21fghibbbb",
".+jjjjjklmnopqjjjjj",
".+rrrrrst4u4vrrrrrr",
".+wwwwwwwwwwwwwwwww",
".+xxxxxxxxxxxxxxxxx",
".+yyyyyyyyyyyyyyyyy",
".+zzzzzzzzzzzzzzzzz",
".+AAAAAAAAAAAAAAAAA",
".+BBBBBBBBBBBBBBBBB",
"...................",
"                   ",
"                   ",
"                   "};
