/* XPM */
static char * left_inactive_xpm[] = {
"4 16 4 1",
"       c None",
".      c #52545C",
"+      c #D4D5DA",
"@      c #868A96",
".+@.",
".+@.",
".+@.",
".+@.",
".+@.",
".+@.",
".+@.",
".+@.",
".+@.",
".+@.",
".+@.",
".+@.",
".+@.",
".+@.",
".+@.",
".+@."};
