/* XPM */
static char * maximize_active_xpm[] = {
"19 26 102 2",
"  	c None",
". 	c #43486B",
"+ 	c #D1DAC8",
"@ 	c #ADC298",
"# 	c #ABC195",
"$ 	c #A9BF93",
"% 	c #A7BD91",
"& 	c #A1B68B",
"* 	c #98AD82",
"= 	c #A2B88C",
"- 	c #A8BE92",
"; 	c #A6BD8F",
"> 	c #A5BC8E",
", 	c #96AC7F",
"' 	c #7E9368",
") 	c #798E65",
"! 	c #768A61",
"~ 	c #798D64",
"{ 	c #81966C",
"] 	c #99B082",
"^ 	c #A4BB8D",
"/ 	c #A3BA8C",
"( 	c #859B6F",
"_ 	c #788D63",
": 	c #A9B4A5",
"< 	c #DFE3DD",
"[ 	c #E8EBE7",
"} 	c #D8DDD5",
"| 	c #98A593",
"1 	c #778C62",
"2 	c #8FA579",
"3 	c #A1B989",
"4 	c #8DA476",
"5 	c #D0D6D0",
"6 	c #FEFFFE",
"7 	c #FFFFFF",
"8 	c #FDFEFD",
"9 	c #B4BDB2",
"0 	c #758A60",
"a 	c #96AD7E",
"b 	c #9EB785",
"c 	c #9CB583",
"d 	c #788E62",
"e 	c #A1AC9B",
"f 	c #F7F8F6",
"g 	c #839377",
"h 	c #81986A",
"i 	c #96AE7D",
"j 	c #778C61",
"k 	c #DCE0DC",
"l 	c #B4BDB0",
"m 	c #7A8F64",
"n 	c #9AB382",
"o 	c #99B37F",
"p 	c #91AA78",
"q 	c #EAECEA",
"r 	c #CDD3C8",
"s 	c #798E64",
"t 	c #97B07D",
"u 	c #97B27C",
"v 	c #93AD78",
"w 	c #768B60",
"x 	c #D2D8CF",
"y 	c #ADB8A7",
"z 	c #7D9367",
"A 	c #95B07A",
"B 	c #94AF79",
"C 	c #7B9264",
"D 	c #93A08E",
"E 	c #EDEFEC",
"F 	c #7B8C70",
"G 	c #849C6B",
"H 	c #92AE76",
"I 	c #8AA46F",
"J 	c #748A5E",
"K 	c #B1BAB0",
"L 	c #F6F8F6",
"M 	c #EDEFEB",
"N 	c #96A393",
"O 	c #768D60",
"P 	c #8FAB74",
"Q 	c #8FAC72",
"R 	c #829C68",
"S 	c #73885D",
"T 	c #809176",
"U 	c #B1BBAE",
"V 	c #C7CDC7",
"W 	c #B0B9AC",
"X 	c #798A6C",
"Y 	c #758B5F",
"Z 	c #87A26C",
"` 	c #8DAA70",
" .	c #86A26B",
"..	c #7C9463",
"+.	c #7A9263",
"@.	c #7C9464",
"#.	c #7E9765",
"$.	c #89A56D",
"%.	c #8AA86C",
"&.	c #88A66A",
"*.	c #85A466",
"=.	c #82A262",
"                                      ",
"                                      ",
"                                      ",
". . . . . . . . . . . . . . . . . . . ",
". + @ @ @ @ @ @ @ @ @ @ @ @ @ @ @ @ @ ",
". + # # # # # # # # # # # # # # # # # ",
". + $ $ $ $ $ $ % & * = - $ $ $ $ $ $ ",
". + ; ; ; ; > , ' ) ! ~ { ] ; ; ; ; ; ",
". + ^ ^ ^ / ( _ : < [ } | 1 2 ^ ^ ^ ^ ",
". + 3 3 3 4 1 5 6 7 7 7 8 9 0 a 3 3 3 ",
". + b b c d e 6 7 7 7 7 7 f g h b b b ",
". + c c i j k 7 7 7 7 7 7 7 l m n c c ",
". + o o p 1 q 7 7 7 7 7 7 7 r s t o o ",
". + u u v w x 7 7 7 7 7 7 7 y z u u u ",
". + A A B C D 8 7 7 7 7 7 E F G A A A ",
". + H H H I J K L 7 7 7 M N O P H H H ",
". + Q Q Q Q R S T U V W X Y Z Q Q Q Q ",
". + ` ` ` ` `  ...+.@.+.#.$.` ` ` ` ` ",
". + %.%.%.%.%.%.%.%.%.%.%.%.%.%.%.%.%.",
". + &.&.&.&.&.&.&.&.&.&.&.&.&.&.&.&.&.",
". + *.*.*.*.*.*.*.*.*.*.*.*.*.*.*.*.*.",
". + =.=.=.=.=.=.=.=.=.=.=.=.=.=.=.=.=.",
". . . . . . . . . . . . . . . . . . . ",
"                                      ",
"                                      ",
"                                      "};
