/* XPM */
static char * maximize_toggled_active_xpm[] = {
"19 26 104 2",
"  	c None",
". 	c #43486B",
"+ 	c #D1DAC8",
"@ 	c #ADD783",
"# 	c #ABD680",
"$ 	c #A9D57D",
"% 	c #A7D37C",
"& 	c #A2CB79",
"* 	c #9BC075",
"= 	c #A3CD7A",
"- 	c #A8D47D",
"; 	c #A6D379",
"> 	c #A5D178",
", 	c #99BF72",
"' 	c #85A16A",
") 	c #829A69",
"! 	c #7F9667",
"~ 	c #88A56A",
"{ 	c #9BC374",
"] 	c #A4D276",
"^ 	c #A3D076",
"/ 	c #8BAB6A",
"( 	c #819968",
"_ 	c #AEB9AA",
": 	c #E1E5DF",
"< 	c #E9EDE8",
"[ 	c #DBE0D8",
"} 	c #9EAB98",
"| 	c #809866",
"1 	c #93B86E",
"2 	c #A1D171",
"3 	c #91B76B",
"4 	c #809868",
"5 	c #D2D8D2",
"6 	c #FEFFFE",
"7 	c #FFFFFF",
"8 	c #FDFEFD",
"9 	c #B8C1B5",
"0 	c #7E9765",
"a 	c #98C26E",
"b 	c #9DCF6D",
"c 	c #9BCC6C",
"d 	c #809B65",
"e 	c #A7B2A0",
"f 	c #F8F9F6",
"g 	c #8B9B7F",
"h 	c #87A866",
"i 	c #9BCE6A",
"j 	c #96C569",
"k 	c #809966",
"l 	c #DEE2DE",
"m 	c #B8C2B4",
"n 	c #829E65",
"o 	c #9ACC6A",
"p 	c #98CD65",
"q 	c #92C164",
"r 	c #809967",
"s 	c #EBEDEB",
"t 	c #D0D6CB",
"u 	c #829C67",
"v 	c #96CA65",
"w 	c #96CC62",
"x 	c #93C662",
"y 	c #7F9865",
"z 	c #D5DBD2",
"A 	c #B2BDAC",
"B 	c #84A365",
"C 	c #94CB5F",
"D 	c #94CA5F",
"E 	c #82A261",
"F 	c #9AA794",
"G 	c #EEF0ED",
"H 	c #849578",
"I 	c #88B060",
"J 	c #91C95B",
"K 	c #8BBB5C",
"L 	c #7D9762",
"M 	c #B5BEB4",
"N 	c #F7F9F6",
"O 	c #EEF0EC",
"P 	c #9CA999",
"Q 	c #7E9C60",
"R 	c #8FC55B",
"S 	c #8EC856",
"T 	c #85B15A",
"U 	c #7C9562",
"V 	c #89997D",
"W 	c #B6BFB2",
"X 	c #CAD0CA",
"Y 	c #B5BEB1",
"Z 	c #829374",
"` 	c #7D9A60",
" .	c #89BA59",
"..	c #8CC753",
"+.	c #88BB56",
"@.	c #81A85A",
"#.	c #81A35F",
"$.	c #82A65F",
"%.	c #82AC59",
"&.	c #89C055",
"*.	c #89C54F",
"=.	c #87C44C",
"-.	c #84C347",
";.	c #81C143",
"                                      ",
"                                      ",
"                                      ",
". . . . . . . . . . . . . . . . . . . ",
". + @ @ @ @ @ @ @ @ @ @ @ @ @ @ @ @ @ ",
". + # # # # # # # # # # # # # # # # # ",
". + $ $ $ $ $ $ % & * = - $ $ $ $ $ $ ",
". + ; ; ; ; > , ' ) ! ) ~ { ; ; ; ; ; ",
". + ] ] ] ^ / ( _ : < [ } | 1 ] ] ] ] ",
". + 2 2 2 3 4 5 6 7 7 7 8 9 0 a 2 2 2 ",
". + b b c d e 6 7 7 7 7 7 f g h b b b ",
". + i i j k l 7 7 7 7 7 7 7 m n o i i ",
". + p p q r s 7 7 7 7 7 7 7 t u v p p ",
". + w w x y z 7 7 7 7 7 7 7 A B w w w ",
". + C C D E F 8 7 7 7 7 7 G H I C C C ",
". + J J J K L M N 7 7 7 O P Q R J J J ",
". + S S S S T U V W X Y Z `  .S S S S ",
". + ..........+.@.#.$.#.%.&...........",
". + *.*.*.*.*.*.*.*.*.*.*.*.*.*.*.*.*.",
". + =.=.=.=.=.=.=.=.=.=.=.=.=.=.=.=.=.",
". + -.-.-.-.-.-.-.-.-.-.-.-.-.-.-.-.-.",
". + ;.;.;.;.;.;.;.;.;.;.;.;.;.;.;.;.;.",
". . . . . . . . . . . . . . . . . . . ",
"                                      ",
"                                      ",
"                                      "};
