/* XPM */
static char * maximize_pressed_xpm[] = {
"19 26 103 2",
"  	c None",
". 	c #43486B",
"+ 	c #E3E3E3",
"@ 	c #ACEB6F",
"# 	c #AAEA6C",
"$ 	c #A8EA68",
"% 	c #A6E768",
"& 	c #A1DD67",
"* 	c #9ACF66",
"= 	c #A2DF67",
"- 	c #A7E968",
"; 	c #A5E963",
"> 	c #A4E763",
", 	c #98CF62",
"' 	c #85A664",
") 	c #829E66",
"! 	c #7F9965",
"~ 	c #829D66",
"{ 	c #88AC63",
"] 	c #9BD463",
"^ 	c #A3E860",
"/ 	c #A2E660",
"( 	c #8CB662",
"_ 	c #7F9B61",
": 	c #97B579",
"< 	c #E1E5DF",
"[ 	c #E9EDE8",
"} 	c #DBE0D8",
"| 	c #92AE75",
"1 	c #809B63",
"2 	c #92C560",
"3 	c #A0E85A",
"4 	c #90C55D",
"5 	c #7E9A61",
"6 	c #A6C884",
"7 	c #FEFFFE",
"8 	c #FFFFFF",
"9 	c #FDFEFD",
"0 	c #9DBC7D",
"a 	c #7E9A62",
"b 	c #97D45C",
"c 	c #9DE755",
"d 	c #9BE356",
"e 	c #80A15F",
"f 	c #94B176",
"g 	c #F8F9F6",
"h 	c #86A06C",
"i 	c #87B35C",
"j 	c #9BE652",
"k 	c #96DA54",
"l 	c #7F9C62",
"m 	c #DEE2DE",
"n 	c #C2CABA",
"o 	c #82A45F",
"p 	c #9AE352",
"q 	c #98E54D",
"r 	c #92D551",
"s 	c #809D63",
"t 	c #EBEDEB",
"u 	c #D0D6CB",
"v 	c #82A062",
"w 	c #96E04E",
"x 	c #96E549",
"y 	c #93DC4B",
"z 	c #7F9B62",
"A 	c #D5DBD2",
"B 	c #B2BDAC",
"C 	c #84AB5D",
"D 	c #94E446",
"E 	c #94E346",
"F 	c #82AB59",
"G 	c #91AD74",
"H 	c #EEF0ED",
"I 	c #849D6B",
"J 	c #88BF51",
"K 	c #91E440",
"L 	c #8BD047",
"M 	c #7D9B5F",
"N 	c #F7F9F6",
"O 	c #EEF0EC",
"P 	c #93B076",
"Q 	c #7EA25A",
"R 	c #8FDE42",
"S 	c #8EE33B",
"T 	c #85C249",
"U 	c #7C995E",
"V 	c #B6BFB2",
"W 	c #CAD0CA",
"X 	c #B5BEB1",
"Y 	c #829A69",
"Z 	c #7DA05B",
"` 	c #89CF44",
" .	c #8CE238",
"..	c #88D140",
"+.	c #81B44E",
"@.	c #81AD54",
"#.	c #82B154",
"$.	c #82BB4B",
"%.	c #89D83D",
"&.	c #89E232",
"*.	c #87E12F",
"=.	c #84E02A",
"-.	c #81E024",
"                                      ",
"                                      ",
"                                      ",
". . . . . . . . . . . . . . . . . . . ",
". + @ @ @ @ @ @ @ @ @ @ @ @ @ @ @ @ @ ",
". + # # # # # # # # # # # # # # # # # ",
". + $ $ $ $ $ $ % & * = - $ $ $ $ $ $ ",
". + ; ; ; ; > , ' ) ! ~ { ] ; ; ; ; ; ",
". + ^ ^ ^ / ( _ : < [ } | 1 2 ^ ^ ^ ^ ",
". + 3 3 3 4 5 6 7 8 8 8 9 0 a b 3 3 3 ",
". + c c d e f 7 8 8 8 8 8 g h i c c c ",
". + j j k l m 8 8 8 8 8 8 8 n o p j j ",
". + q q r s t 8 8 8 8 8 8 8 u v w q q ",
". + x x y z A 8 8 8 8 8 8 8 B C x x x ",
". + D D E F G 9 8 8 8 8 8 H I J D D D ",
". + K K K L M 0 N 8 8 8 O P Q R K K K ",
". + S S S S T U h V W X Y Z ` S S S S ",
". +  . . . . ...+.@.#.@.$.%. . . . . .",
". + &.&.&.&.&.&.&.&.&.&.&.&.&.&.&.&.&.",
". + *.*.*.*.*.*.*.*.*.*.*.*.*.*.*.*.*.",
". + =.=.=.=.=.=.=.=.=.=.=.=.=.=.=.=.=.",
". + -.-.-.-.-.-.-.-.-.-.-.-.-.-.-.-.-.",
". . . . . . . . . . . . . . . . . . . ",
"                                      ",
"                                      ",
"                                      "};
