/* XPM */
static char * maximize_inactive_xpm[] = {
"19 26 95 2",
"       c None",
".      c #52545C",
"+      c #D4D5DA",
"@      c #A7AAB3",
"#      c #A5A8B1",
"$      c #A3A6AF",
"%      c #A1A4AD",
"&      c #9A9EA8",
"*      c #9195A1",
"=      c #9C9FA9",
"-      c #A2A5AE",
";      c #A0A3AC",
">      c #9FA2AB",
",      c #90939F",
"'      c #777C8B",
")      c #737888",
"!      c #6F7485",
"~      c #727788",
"{      c #7A7F8E",
"]      c #9396A1",
"^      c #9EA1AA",
"/      c #9DA0A9",
"(      c #7E8391",
"_      c #717787",
":      c #A8ABB5",
"<      c #DEDFE4",
"[      c #E7E8EC",
"}      c #D7D8DE",
"|      c #969AA6",
"1      c #707586",
"2      c #898D99",
"3      c #9B9EA7",
"4      c #868B97",
"5      c #707686",
"6      c #D0D1D7",
"7      c #FEFEFE",
"8      c #FFFFFF",
"9      c #FDFDFD",
"0      c #B3B6BF",
"a      c #6E7484",
"b      c #8F939E",
"c      c #979AA5",
"d      c #9598A3",
"e      c #717686",
"f      c #9FA3AD",
"g      c #F7F7F8",
"h      c #7F8493",
"i      c #8F929E",
"j      c #DCDDE2",
"k      c #B2B5BE",
"l      c #9397A2",
"m      c #9295A0",
"n      c #8A8D9A",
"o      c #E9EAEE",
"p      c #CBCDD3",
"q      c #727888",
"r      c #90939E",
"s      c #8C8F9B",
"t      c #D1D3D9",
"u      c #ABAEB8",
"v      c #767B8B",
"w      c #8E919C",
"x      c #8D909C",
"y      c #747989",
"z      c #9296A2",
"A      c #ECEDF0",
"B      c #777C8C",
"C      c #7D818F",
"D      c #8B8E99",
"E      c #838693",
"F      c #6D7283",
"G      c #B1B4BC",
"H      c #9599A5",
"I      c #6F7585",
"J      c #888C97",
"K      c #878B97",
"L      c #7A7F8D",
"M      c #6C7182",
"N      c #7D8291",
"O      c #B0B3BD",
"P      c #C7C9D0",
"Q      c #AFB2BB",
"R      c #74798A",
"S      c #6E7384",
"T      c #7F8391",
"U      c #858995",
"V      c #7F8390",
"W      c #747988",
"X      c #757A89",
"Y      c #767B8A",
"Z      c #818592",
"`      c #828692",
" .     c #808490",
"..     c #7D818D",
"+.     c #7A7E8A",
"                                      ",
"                                      ",
"                                      ",
". . . . . . . . . . . . . . . . . . . ",
". + @ @ @ @ @ @ @ @ @ @ @ @ @ @ @ @ @ ",
". + # # # # # # # # # # # # # # # # # ",
". + $ $ $ $ $ $ % & * = - $ $ $ $ $ $ ",
". + ; ; ; ; > , ' ) ! ~ { ] ; ; ; ; ; ",
". + ^ ^ ^ / ( _ : < [ } | 1 2 ^ ^ ^ ^ ",
". + 3 3 3 4 5 6 7 8 8 8 9 0 a b 3 3 3 ",
". + c c d e f 7 8 8 8 8 8 g h { c c c ",
". + d d i 1 j 8 8 8 8 8 8 8 k ) l d d ",
". + m m n 5 o 8 8 8 8 8 8 8 p q r m m ",
". + r r s ! t 8 8 8 8 8 8 8 u v r r r ",
". + w w x y z 9 8 8 8 8 8 A B C w w w ",
". + D D D E F G g 8 8 8 A H I J D D D ",
". + K K K K L M N O P Q R S T K K K K ",
". + U U U U U V W ) X ) Y Z U U U U U ",
". + ` ` ` ` ` ` ` ` ` ` ` ` ` ` ` ` ` ",
". +  . . . . . . . . . . . . . . . . .",
". + ..................................",
". + +.+.+.+.+.+.+.+.+.+.+.+.+.+.+.+.+.",
". . . . . . . . . . . . . . . . . . . ",
"                                      ",
"                                      ",
"                                      "};
