/* XPM */
static char * menu_pressed_xpm[] = {
"19 26 107 2",
"       c None",
".      c #BDBFD3",
"+      c #BBBED1",
"@      c #BABCD0",
"#      c #B8BACF",
"$      c #B7B3B5",
"%      c #B2ADAD",
"&      c #BDBCC8",
"*      c #B3B0B5",
"=      c #B6B9CD",
"-      c #BCB9B9",
";      c #B4A78B",
">      c #DBCDAF",
",      c #AB9F87",
"'      c #D3C7AB",
")      c #B9AD8D",
"!      c #A9A9B3",
"~      c #B4B7CC",
"{      c #BCB7B5",
"]      c #A49D8F",
"^      c #D9CBAA",
"/      c #F6EEDB",
"(      c #EFE7D2",
"_      c #F3E9D1",
":      c #D3C39C",
"<      c #9D978F",
"[      c #ADABB1",
"}      c #B2B5CA",
"|      c #B2B2BF",
"1      c #AFA58F",
"2      c #EFE7D3",
"3      c #F2E9D3",
"4      c #C7B894",
"5      c #A99B78",
"6      c #CEBE97",
"7      c #EDDFC0",
"8      c #EBDFC3",
"9      c #B3A37D",
"0      c #B2AFB4",
"a      c #B0B3C9",
"b      c #B0AFBA",
"c      c #C6B793",
"d      c #F0E5CB",
"e      c #D5C5A1",
"f      c #AF9F7D",
"g      c #E3DDCB",
"h      c #B1A37E",
"i      c #D7CBAD",
"j      c #E5D5AF",
"k      c #AC9E7D",
"l      c #A2A3B1",
"m      c #AEB1C7",
"n      c #AEB1C6",
"o      c #A69883",
"p      c #E4D8BD",
"q      c #CDC1A4",
"r      c #C7BFAC",
"s      c #FEFDFB",
"t      c #C8C1AD",
"u      c #CFCBBB",
"v      c #E6D2A2",
"w      c #A3987C",
"x      c #B1B1BE",
"y      c #ACAFC6",
"z      c #AEACB2",
"A      c #D7C395",
"B      c #EBDDBD",
"C      c #C3B083",
"D      c #AFA795",
"E      c #C1B18B",
"F      c #EBDEBD",
"G      c #EDD9AA",
"H      c #A5987D",
"I      c #A1A3B7",
"J      c #ABADC5",
"K      c #A9A9B7",
"L      c #9A917C",
"M      c #C1B18D",
"N      c #DFCDA3",
"O      c #EDDFBF",
"P      c #EAE2CD",
"Q      c #EDE0C0",
"R      c #D5C397",
"S      c #A09373",
"T      c #8B8887",
"U      c #A9ACC3",
"V      c #A9AAB9",
"W      c #9F9E9F",
"X      c #CDBD95",
"Y      c #E6D3A9",
"Z      c #CBB98F",
"`      c #E1CD9E",
" .     c #AEA083",
"..     c #A1A3B1",
"+.     c #A8A9B9",
"@.     c #A7AAC1",
"#.     c #A5A6B5",
"$.     c #B5A683",
"%.     c #9B8F71",
"&.     c #A9A290",
"*.     c #978A6C",
"=.     c #827B70",
"-.     c #A5A8C0",
";.     c #A3A7BF",
">.     c #A1A5BD",
",.     c #9FA3BC",
"'.     c #9DA1BA",
"                                      ",
"                                      ",
"                                      ",
"                                      ",
". . . . . . . . . . . . . . . . . . . ",
"+ + + + + + + + + + + + + + + + + + + ",
"@ @ @ @ @ @ @ @ @ @ @ @ @ @ @ @ @ @ @ ",
"# # # # # # # $ % & * $ # # # # # # # ",
"= = = = = = - ; > , ' ) ! = = = = = = ",
"~ ~ ~ ~ ~ { ] ^ / ( _ : < [ ~ ~ ~ ~ ~ ",
"} } } } | 1 2 3 4 5 6 7 8 9 0 } } } } ",
"a a a a b c d e f g h i j k l a a a a ",
"m m m m n o p q r s t u v w x m m m m ",
"y y y y z A _ B C D E F G H I y y y y ",
"J J J J K L M N O P Q R S T J J J J J ",
"U U U U U V W X Y Z `  ...+.U U U U U ",
"@.@.@.@.@.@.#.$.%.&.*.=.@.@.@.@.@.@.@.",
"-.-.-.-.-.-.-.-.-.-.-.-.-.-.-.-.-.-.-.",
";.;.;.;.;.;.;.;.;.;.;.;.;.;.;.;.;.;.;.",
">.>.>.>.>.>.>.>.>.>.>.>.>.>.>.>.>.>.>.",
",.,.,.,.,.,.,.,.,.,.,.,.,.,.,.,.,.,.,.",
"'.'.'.'.'.'.'.'.'.'.'.'.'.'.'.'.'.'.'.",
"                                      ",
"                                      ",
"                                      ",
"                                      "};
