/* XPM */
static char * menu_active_xpm[] = {
"19 26 109 2",
"       c None",
".      c #9DA0BD",
"+      c #9A9EBB",
"@      c #989BB9",
"#      c #9598B7",
"$      c #938D90",
"%      c #8C8585",
"&      c #9C9BAD",
"*      c #8E8990",
"=      c #948E90",
"-      c #9296B5",
";      c #9B9696",
">      c #8F7C51",
",      c #C9B587",
"'      c #82704B",
")      c #BEAC81",
"!      c #968454",
"~      c #7E7E8D",
"{      c #8F93B3",
"]      c #9B9490",
"^      c #776D58",
"/      c #C6B180",
"(      c #F2E6C9",
"_      c #E8DBBC",
":      c #EEDFBB",
"<      c #BEA66B",
"[      c #6C6458",
"}      c #85828A",
"|      c #8C90B0",
"1      c #8C8C9F",
"2      c #887857",
"3      c #E8DBBE",
"4      c #ECDEBE",
"5      c #AC955F",
"6      c #7F6935",
"7      c #B69E63",
"8      c #E5D0A1",
"9      c #E2D0A6",
"0      c #8D753D",
"a      c #8C888F",
"b      c #898DAE",
"c      c #898898",
"d      c #AA945E",
"e      c #E9D9B2",
"f      c #C0A973",
"g      c #87703C",
"h      c #D5CCB2",
"i      c #8A753E",
"j      c #C3B184",
"k      c #D9C187",
"l      c #836E3C",
"m      c #74758A",
"n      c #868BAC",
"o      c #868AAA",
"p      c #7A6545",
"q      c #D7C59C",
"r      c #B5A277",
"s      c #ACA083",
"t      c #FEFDFA",
"u      c #ADA284",
"v      c #B7B199",
"w      c #DABC74",
"x      c #76653B",
"y      c #8A8B9E",
"z      c #8388AA",
"A      c #86838C",
"B      c #C3A560",
"C      c #EDDEBA",
"D      c #E2CD9D",
"E      c #A58946",
"F      c #887B60",
"G      c #A38B51",
"H      c #E2CE9D",
"I      c #E4C680",
"J      c #79653D",
"K      c #737694",
"L      c #8185A8",
"M      c #7E7E93",
"N      c #685A3B",
"O      c #A28B55",
"P      c #D0B576",
"Q      c #E4D09F",
"R      c #E0D4B4",
"S      c #E5D1A1",
"T      c #C0A563",
"U      c #715D2D",
"V      c #514D4C",
"W      c #7E83A6",
"X      c #7F8097",
"Y      c #706E70",
"Z      c #B59C60",
"`      c #DABE7E",
" .     c #B19757",
"..     c #D2B56E",
"+.     c #867145",
"@.     c #73758B",
"#.     c #7D7F97",
"$.     c #7B80A3",
"%.     c #787A90",
"&.     c #907A46",
"*.     c #6A572B",
"=.     c #7F7459",
"-.     c #635023",
";.     c #443A29",
">.     c #787DA1",
",.     c #757B9F",
"'.     c #72789D",
").     c #6F759B",
"!.     c #6C7298",
"                                      ",
"                                      ",
"                                      ",
"                                      ",
". . . . . . . . . . . . . . . . . . . ",
"+ + + + + + + + + + + + + + + + + + + ",
"@ @ @ @ @ @ @ @ @ @ @ @ @ @ @ @ @ @ @ ",
"# # # # # # # $ % & * = # # # # # # # ",
"- - - - - - ; > , ' ) ! ~ - - - - - - ",
"{ { { { { ] ^ / ( _ : < [ } { { { { { ",
"| | | | 1 2 3 4 5 6 7 8 9 0 a | | | | ",
"b b b b c d e f g h i j k l m b b b b ",
"n n n n o p q r s t u v w x y n n n n ",
"z z z z A B C D E F G H I J K z z z z ",
"L L L L M N O P Q R S T U V L L L L L ",
"W W W W W X Y Z `  ...+.@.#.W W W W W ",
"$.$.$.$.$.$.%.&.*.=.-.;.$.$.$.$.$.$.$.",
">.>.>.>.>.>.>.>.>.>.>.>.>.>.>.>.>.>.>.",
",.,.,.,.,.,.,.,.,.,.,.,.,.,.,.,.,.,.,.",
"'.'.'.'.'.'.'.'.'.'.'.'.'.'.'.'.'.'.'.",
").).).).).).).).).).).).).).).).).).).",
"!.!.!.!.!.!.!.!.!.!.!.!.!.!.!.!.!.!.!.",
"                                      ",
"                                      ",
"                                      ",
"                                      "};
