/* XPM */
static char * title_5_active_xpm[] = {
"8 26 22 1",
" 	c None",
".	c #43486B",
"+	c #CBCEE3",
"@	c #82859A",
"#	c #9DA0BD",
"$	c #9A9EBB",
"%	c #989BB9",
"&	c #9598B7",
"*	c #9296B5",
"=	c #8F93B3",
"-	c #8C90B0",
";	c #898DAE",
">	c #868BAC",
",	c #8388AA",
"'	c #8185A8",
")	c #7E83A6",
"!	c #7B80A3",
"~	c #787DA1",
"{	c #757B9F",
"]	c #72789D",
"^	c #6F759B",
"/	c #6C7298",
"........",
"++++++++",
"@@@@@@@@",
"........",
"########",
"$$$$$$$$",
"%%%%%%%%",
"&&&&&&&&",
"********",
"========",
"--------",
";;;;;;;;",
">>>>>>>>",
",,,,,,,,",
"''''''''",
"))))))))",
"!!!!!!!!",
"~~~~~~~~",
"{{{{{{{{",
"]]]]]]]]",
"^^^^^^^^",
"////////",
"........",
"++++++++",
"@@@@@@@@",
"........"};
