/* XPM */
static char * top_left_active_xpm[] = {
"4 26 4 1",
" 	c None",
".	c #43486B",
"+	c #CBCEE3",
"@	c #82859A",
" ...",
".+++",
".+@@",
".+@.",
".+@.",
".+@.",
".+@.",
".+@.",
".+@.",
".+@.",
".+@.",
".+@.",
".+@.",
".+@.",
".+@.",
".+@.",
".+@.",
".+@.",
".+@.",
".+@.",
".+@.",
".+@.",
".+@.",
".+++",
".+@@",
".+@."};
