/* XPM */
static char * top_left_inactive_xpm[] = {
"4 26 5 1",
"       c None",
".      c #52545C",
"+      c #D4D5DA",
"@      c #868A96",
"#      c #52545C",
" ...",
".+++",
".+@@",
".+@#",
".+@#",
".+@#",
".+@#",
".+@#",
".+@#",
".+@#",
".+@#",
".+@#",
".+@#",
".+@#",
".+@#",
".+@#",
".+@#",
".+@#",
".+@#",
".+@#",
".+@#",
".+@#",
".+@#",
".+++",
".+@@",
".+@."};
