<?xml version="1.0" encoding="UTF-8" standalone="no"?>
<svg
   xmlns:dc="http://purl.org/dc/elements/1.1/"
   xmlns:cc="http://creativecommons.org/ns#"
   xmlns:rdf="http://www.w3.org/1999/02/22-rdf-syntax-ns#"
   xmlns:svg="http://www.w3.org/2000/svg"
   xmlns="http://www.w3.org/2000/svg"
   xmlns:xlink="http://www.w3.org/1999/xlink"
   xmlns:sodipodi="http://sodipodi.sourceforge.net/DTD/sodipodi-0.dtd"
   xmlns:inkscape="http://www.inkscape.org/namespaces/inkscape"
   width="400"
   height="400"
   viewBox="0 0 105.83333 105.83334"
   version="1.1"
   id="svg8915"
   inkscape:version="1.0 (4035a4fb49, 2020-05-01)"
   sodipodi:docname="garuda-blue.svg"
   inkscape:export-filename="/home/sgs/Bilder/garuda-orange-1024.png"
   inkscape:export-xdpi="245.75999"
   inkscape:export-ydpi="245.75999">
  <defs
     id="defs8909">
    <linearGradient
       inkscape:collect="always"
       xlink:href="#linearGradient2098"
       id="linearGradient2351"
       gradientUnits="userSpaceOnUse"
       gradientTransform="matrix(0.97216289,0,0,0.97216289,-127.68477,375.22886)"
       x1="84.990685"
       y1="236.78419"
       x2="104.03497"
       y2="236.78419" />
    <linearGradient
       id="linearGradient2098"
       inkscape:collect="always">
      <stop
         id="stop2094"
         offset="0"
         style="stop-color:#2972e2;stop-opacity:1" />
      <stop
         id="stop2096"
         offset="1"
         style="stop-color:#26c7fc;stop-opacity:1" />
    </linearGradient>
    <linearGradient
       inkscape:collect="always"
       xlink:href="#linearGradient2110"
       id="linearGradient2353"
       gradientUnits="userSpaceOnUse"
       gradientTransform="matrix(0.94146089,-0.2423883,0.2423883,0.94146089,-189.35582,400.81566)"
       x1="60.396301"
       y1="249.92128"
       x2="73.893196"
       y2="249.92128" />
    <linearGradient
       id="linearGradient2110"
       inkscape:collect="always">
      <stop
         id="stop2106"
         offset="0"
         style="stop-color:#26c4fb;stop-opacity:1" />
      <stop
         id="stop2108"
         offset="1"
         style="stop-color:#2977e3;stop-opacity:1" />
    </linearGradient>
    <linearGradient
       inkscape:collect="always"
       xlink:href="#linearGradient2110"
       id="linearGradient2355"
       gradientUnits="userSpaceOnUse"
       gradientTransform="matrix(0.97216289,0,0,0.97216289,-127.68477,375.22886)"
       x1="60.396301"
       y1="249.92128"
       x2="73.997559"
       y2="246.41939" />
    <linearGradient
       inkscape:collect="always"
       xlink:href="#linearGradient2098"
       id="linearGradient2357"
       gradientUnits="userSpaceOnUse"
       gradientTransform="matrix(0.97216289,0,0,0.97216289,-127.68477,375.22886)"
       x1="64.392105"
       y1="228.14523"
       x2="84.990685"
       y2="228.14523" />
    <linearGradient
       inkscape:collect="always"
       xlink:href="#linearGradient2110"
       id="linearGradient2359"
       gradientUnits="userSpaceOnUse"
       gradientTransform="matrix(0.97216289,0,0,0.97216289,-127.68477,375.22886)"
       x1="84.361542"
       y1="234.05646"
       x2="84.151169"
       y2="237.95784" />
    <linearGradient
       inkscape:collect="always"
       xlink:href="#linearGradient2110"
       id="linearGradient2361"
       gradientUnits="userSpaceOnUse"
       gradientTransform="matrix(0.97216289,0,0,0.97216289,-127.68477,375.22886)"
       x1="9.4423542"
       y1="230.94318"
       x2="50.305416"
       y2="223.45911" />
    <linearGradient
       inkscape:collect="always"
       xlink:href="#linearGradient2110"
       id="linearGradient2363"
       gradientUnits="userSpaceOnUse"
       gradientTransform="matrix(0.97216288,0,0,0.97216288,-127.68477,375.22885)"
       x1="26.040033"
       y1="222.32001"
       x2="64.62645"
       y2="222.32001" />
    <linearGradient
       inkscape:collect="always"
       xlink:href="#linearGradient2104"
       id="linearGradient2365"
       gradientUnits="userSpaceOnUse"
       gradientTransform="matrix(0.97216289,0,0,0.97216289,-127.68477,375.22886)"
       x1="84.990685"
       y1="226.43633"
       x2="94.986862"
       y2="226.43633" />
    <linearGradient
       id="linearGradient2104"
       inkscape:collect="always">
      <stop
         id="stop2100"
         offset="0"
         style="stop-color:#279ff0;stop-opacity:1" />
      <stop
         id="stop2102"
         offset="1"
         style="stop-color:#8de1fd;stop-opacity:1" />
    </linearGradient>
    <linearGradient
       inkscape:collect="always"
       xlink:href="#linearGradient2104"
       id="linearGradient2367"
       gradientUnits="userSpaceOnUse"
       gradientTransform="matrix(0.97216289,0,0,0.97216289,-127.74355,375.09245)"
       x1="84.990685"
       y1="228.64478"
       x2="104.03497"
       y2="228.64478" />
    <linearGradient
       inkscape:collect="always"
       xlink:href="#linearGradient2104"
       id="linearGradient2369"
       gradientUnits="userSpaceOnUse"
       gradientTransform="matrix(0.97216289,0,0,0.97216289,-127.68477,375.22886)"
       x1="96.589539"
       y1="242.79604"
       x2="104.03497"
       y2="242.79604" />
    <linearGradient
       inkscape:collect="always"
       xlink:href="#linearGradient2110"
       id="linearGradient2371"
       gradientUnits="userSpaceOnUse"
       gradientTransform="matrix(0.97216289,0,0,0.97216289,-127.68477,375.22886)"
       x1="68.41713"
       y1="213.70825"
       x2="87.139732"
       y2="213.70825" />
    <linearGradient
       inkscape:collect="always"
       xlink:href="#linearGradient2104"
       id="linearGradient2373"
       gradientUnits="userSpaceOnUse"
       gradientTransform="matrix(0.97216289,0,0,0.97216289,-127.68477,375.22886)"
       x1="49.313831"
       y1="210.37106"
       x2="78.71286"
       y2="210.37106" />
    <linearGradient
       inkscape:collect="always"
       xlink:href="#linearGradient2110"
       id="linearGradient2375"
       gradientUnits="userSpaceOnUse"
       gradientTransform="matrix(0.97216289,0,0,0.97216289,-127.68477,375.22886)"
       x1="26.040033"
       y1="215.47971"
       x2="68.747917"
       y2="215.47971" />
    <linearGradient
       inkscape:collect="always"
       xlink:href="#linearGradient2098"
       id="linearGradient2377"
       gradientUnits="userSpaceOnUse"
       gradientTransform="matrix(0.97216289,0,0,0.97216289,-127.68477,375.22886)"
       x1="68.473366"
       y1="219.45323"
       x2="87.139732"
       y2="218.32979" />
    <linearGradient
       inkscape:collect="always"
       xlink:href="#linearGradient2098"
       id="linearGradient2379"
       gradientUnits="userSpaceOnUse"
       gradientTransform="matrix(0.97216289,0,0,0.97216289,-127.68477,375.22886)"
       x1="73.07399"
       y1="226.43633"
       x2="87.139732"
       y2="226.43633" />
    <linearGradient
       inkscape:collect="always"
       xlink:href="#linearGradient2098"
       id="linearGradient2381"
       gradientUnits="userSpaceOnUse"
       gradientTransform="matrix(0.97216289,0,0,0.97216289,-127.68477,375.22886)"
       x1="64.010452"
       y1="229.4481"
       x2="84.990685"
       y2="229.4481" />
    <linearGradient
       inkscape:collect="always"
       xlink:href="#linearGradient2098"
       id="linearGradient2383"
       gradientUnits="userSpaceOnUse"
       gradientTransform="matrix(0.97216289,0,0,0.97216289,-127.68477,375.22886)"
       x1="60.738827"
       y1="229.79071"
       x2="31.603239"
       y2="237.79631" />
    <linearGradient
       inkscape:collect="always"
       xlink:href="#linearGradient2110"
       id="linearGradient2385"
       gradientUnits="userSpaceOnUse"
       gradientTransform="matrix(0.97216289,0,0,0.97216289,-127.68477,375.22886)"
       x1="74.356033"
       y1="245.42155"
       x2="73.301544"
       y2="232.25313" />
    <linearGradient
       inkscape:collect="always"
       xlink:href="#linearGradient4966"
       id="linearGradient2387"
       gradientUnits="userSpaceOnUse"
       gradientTransform="matrix(0.97216289,0,0,0.97216289,-127.68477,375.22886)"
       x1="47.828709"
       y1="249.93732"
       x2="72.465904"
       y2="249.93732" />
    <linearGradient
       inkscape:collect="always"
       id="linearGradient4966">
      <stop
         style="stop-color:#fca326;stop-opacity:1;"
         offset="0"
         id="stop4962" />
      <stop
         style="stop-color:#e24329;stop-opacity:1"
         offset="1"
         id="stop4964" />
    </linearGradient>
    <linearGradient
       inkscape:collect="always"
       xlink:href="#linearGradient2110"
       id="linearGradient2389"
       gradientUnits="userSpaceOnUse"
       gradientTransform="matrix(0.97216289,0,0,0.97216289,-127.68477,375.22886)"
       x1="15.984433"
       y1="239.53865"
       x2="61.029278"
       y2="227.73369" />
    <linearGradient
       inkscape:collect="always"
       xlink:href="#linearGradient2110"
       id="linearGradient2391"
       gradientUnits="userSpaceOnUse"
       gradientTransform="matrix(0.97216289,0,0,0.97216289,-127.68477,375.22886)"
       x1="0.45401412"
       y1="245.29109"
       x2="47.828709"
       y2="245.29109" />
    <linearGradient
       inkscape:collect="always"
       xlink:href="#linearGradient2110"
       id="linearGradient2393"
       gradientUnits="userSpaceOnUse"
       gradientTransform="matrix(0.97216289,0,0,0.97216289,-127.68477,375.22886)"
       x1="3.0690458"
       y1="248.2049"
       x2="47.828709"
       y2="248.2049" />
    <linearGradient
       inkscape:collect="always"
       xlink:href="#linearGradient2104"
       id="linearGradient2395"
       gradientUnits="userSpaceOnUse"
       gradientTransform="matrix(0.97216289,0,0,0.97216289,-127.68477,375.22886)"
       x1="25.745007"
       y1="247.43947"
       x2="35.366211"
       y2="259.47876" />
    <linearGradient
       inkscape:collect="always"
       xlink:href="#linearGradient2110"
       id="linearGradient2397"
       gradientUnits="userSpaceOnUse"
       gradientTransform="matrix(0.97216289,0,0,0.97216289,-127.68477,375.22886)"
       x1="26.82168"
       y1="250.59947"
       x2="47.828709"
       y2="257.93643" />
    <linearGradient
       inkscape:collect="always"
       xlink:href="#linearGradient2110"
       id="linearGradient2399"
       gradientUnits="userSpaceOnUse"
       gradientTransform="matrix(0.97216289,0,0,0.97216289,-127.68477,375.22886)"
       x1="47.828709"
       y1="252.61922"
       x2="72.465904"
       y2="252.61922" />
    <linearGradient
       inkscape:collect="always"
       xlink:href="#linearGradient2098"
       id="linearGradient2401"
       gradientUnits="userSpaceOnUse"
       gradientTransform="matrix(0.97216289,0,0,0.97216289,-127.68477,375.22886)"
       x1="47.828709"
       y1="255.66508"
       x2="69.110939"
       y2="255.66508" />
    <linearGradient
       inkscape:collect="always"
       xlink:href="#linearGradient2110"
       id="linearGradient2403"
       gradientUnits="userSpaceOnUse"
       gradientTransform="matrix(0.97216289,0,0,0.97216289,-127.68477,375.22886)"
       x1="29.910975"
       y1="255.24037"
       x2="50.258846"
       y2="262.24741" />
    <linearGradient
       inkscape:collect="always"
       xlink:href="#linearGradient2098"
       id="linearGradient2405"
       gradientUnits="userSpaceOnUse"
       gradientTransform="matrix(0.97216289,0,0,0.97216289,-127.68477,375.22886)"
       x1="47.828709"
       y1="258.90265"
       x2="65.866058"
       y2="258.90265" />
    <linearGradient
       inkscape:collect="always"
       xlink:href="#linearGradient2110"
       id="linearGradient2407"
       gradientUnits="userSpaceOnUse"
       gradientTransform="matrix(0.97216289,0,0,0.97216289,-127.68477,375.22886)"
       x1="39.274921"
       y1="261.4118"
       x2="52.925247"
       y2="261.11023" />
    <linearGradient
       inkscape:collect="always"
       xlink:href="#linearGradient2110"
       id="linearGradient2409"
       gradientUnits="userSpaceOnUse"
       gradientTransform="matrix(0.97216289,0,0,0.97216289,-127.68477,375.22886)"
       x1="47.828709"
       y1="260.43134"
       x2="60.346333"
       y2="260.43134" />
    <linearGradient
       inkscape:collect="always"
       xlink:href="#linearGradient2110"
       id="linearGradient2411"
       gradientUnits="userSpaceOnUse"
       gradientTransform="matrix(0.94146089,-0.2423883,0.2423883,0.94146089,-189.26618,400.80604)"
       x1="54.119331"
       y1="231.45634"
       x2="73.555878"
       y2="257.89557" />
  </defs>
  <sodipodi:namedview
     inkscape:pagecheckerboard="true"
     id="base"
     pagecolor="#929292"
     bordercolor="#b31919"
     borderopacity="1"
     inkscape:pageopacity="0"
     inkscape:pageshadow="2"
     inkscape:zoom="1.4142136"
     inkscape:cx="183.77163"
     inkscape:cy="268.41289"
     inkscape:document-units="px"
     inkscape:current-layer="layer1"
     showgrid="false"
     inkscape:window-width="1873"
     inkscape:window-height="2063"
     inkscape:window-x="21"
     inkscape:window-y="21"
     inkscape:window-maximized="1"
     units="px"
     borderlayer="true"
     inkscape:showpageshadow="false"
     inkscape:snap-global="false"
     showguides="true"
     inkscape:guide-bbox="true"
     inkscape:document-rotation="0">
    <sodipodi:guide
       position="379.08175,135.03673"
       orientation="0,-1"
       id="guide3517" />
    <sodipodi:guide
       position="374.43734,132.96355"
       orientation="1,0"
       id="guide3519" />
  </sodipodi:namedview>
  <metadata
     id="metadata8912">
    <rdf:RDF>
      <cc:Work
         rdf:about="">
        <dc:format>image/svg+xml</dc:format>
        <dc:type
           rdf:resource="http://purl.org/dc/dcmitype/StillImage" />
        <dc:title></dc:title>
      </cc:Work>
    </rdf:RDF>
  </metadata>
  <g
     inkscape:label="Ebene 1"
     inkscape:groupmode="layer"
     id="layer1"
     transform="translate(0,-191.16665)">
    <path
       style="fill:#000000;stroke-width:0.0822478"
       id="path3437"
       d="" />
    <path
       transform="matrix(0.26458334,0,0,0.26458334,0,191.16665)"
       id="path1918"
       d=""
       style="fill:#ac2f13;fill-opacity:1;stroke-width:0.35411" />
    <g
       id="g2754"
       transform="matrix(1.0243439,0,0,1.0243439,131.66391,-385.22011)"
       inkscape:export-filename="/home/sgs/Bilder/SVG/Garuda-SVG/rainbow-eagle/blue.png"
       inkscape:export-xdpi="96"
       inkscape:export-ydpi="96">
      <path
         sodipodi:nodetypes="cssssssscsssssssssssssssssssssssssssssscsccssscsscssccsscsscccssscssccsssscccc"
         id="path2279"
         d="m -81.341743,651.66859 c -6.016932,-2.00413 -13.786665,-4.53226 -13.929044,-4.53226 -0.107566,0 -0.232267,0.22461 -0.431797,0.77774 -0.154308,0.42776 -0.280559,0.80872 -0.280559,0.84656 0,0.0378 -0.05118,0.13898 -0.113672,0.22475 -0.1301,0.17848 0.31823,0.40305 -6.459085,-3.23535 -5.03442,-2.70272 -5.16561,-2.76764 -5.32494,-2.635 -0.0686,0.0571 -0.65277,0.84399 -1.2982,1.74868 l -1.17352,1.64486 -0.12521,-0.29996 c -0.13092,-0.31366 -2.32843,-6.56249 -4.31895,-12.28137 -0.63979,-1.83812 -1.19988,-3.34205 -1.24466,-3.34205 -0.12019,0 -1.62995,1.04765 -4.23833,2.94108 -1.27149,0.92298 -2.32489,1.66581 -2.3409,1.65074 -0.016,-0.0151 0.71349,-1.69894 1.6211,-3.74192 2.90002,-6.52781 3.11106,-7.03385 2.93347,-7.03385 -0.0291,0 -1.45691,0.71936 -3.17305,1.59856 -1.71615,0.87921 -3.12026,1.57701 -3.12026,1.55069 0,-0.0263 0.50995,-1.61529 1.13322,-3.53103 0.62327,-1.91575 1.13323,-3.53708 1.13323,-3.60298 2e-5,-0.1482 0.0814,-0.17272 -2.39791,0.72274 -1.09447,0.3953 -2.01988,0.70782 -2.05644,0.69448 -0.0695,-0.0254 0.97148,-1.17305 5.25866,-5.79791 2.38738,-2.57541 2.64724,-2.88905 3.61758,-4.36619 2.50005,-3.80576 4.55336,-7.009 4.55336,-7.1034 0,-0.0581 -0.0879,-0.0834 -0.20399,-0.0586 -0.11219,0.0239 -1.07692,0.23513 -2.14385,0.46939 -1.06693,0.23427 -1.99779,0.41387 -2.06858,0.39911 -0.0708,-0.0148 2.31161,-1.54827 5.29424,-3.40783 11.1692,-6.96358 13.42545,-8.3377 14.028641,-8.54387 0.228177,-0.078 0.414876,-0.16275 0.414876,-0.18834 0,-0.0256 -0.948521,-0.0169 -2.107823,0.0192 -1.159304,0.0362 -2.087424,0.0469 -2.062484,0.0237 0.0533,-0.0495 10.408613,-8.09642 14.732055,-11.44807 3.481015,-2.69857 6.52819,-5.01828 7.133058,-5.43012 0.35659,-0.24281 0.508495,-0.28889 0.951912,-0.28877 0.290193,7e-5 3.260979,0.18373 6.601777,0.40811 15.38762,1.0335 20.865741,1.42314 21.041923,1.49666 0.104727,0.0436 2.012584,2.33993 4.239709,5.10274 l 4.049317,5.02327 3.738238,1.72342 c 2.056069,0.94787 3.744509,1.72961 3.752127,1.73719 0,0 0.301009,0.52106 0.07685,0.24661 l 0.255906,0.29283 c 0.493871,0.5651 8.425034,11.18332 8.463483,11.33091 0.03412,0.13079 -0.997887,9.02893 -1.104329,9.52196 -0.03733,0.1729 -5.297278,5.2759 -5.297278,5.73885 -0.01619,-0.0163 0.110881,-2.03211 0.282585,-4.4795 0.171696,-2.44739 0.591619,-4.88151 0.369297,-5.28423 l -0.460648,-0.83443 -0.393244,-0.0528 c -0.432301,-0.058 -8.23545,-0.55598 -18.57036,-1.18509 -3.664883,-0.22309 -6.999983,-0.42979 -7.41133,-0.45933 l -0.747964,-0.0538 v 0.28337 c 0,0.29823 0.872636,7.94634 2.090125,18.31898 l 0.725315,6.1795 -0.317427,0.45915 c -0.174573,0.25252 -1.026838,1.44109 -1.8939,2.64126 l -1.576484,2.18213 0.230213,0.41361 0.230213,0.41359 -2.010499,2.50428 c -1.105766,1.37734 -2.010471,2.57423 -2.010471,2.65975 0,0.0856 0.192309,0.6101 0.427377,1.16574 l 0.427378,1.01026 -0.300632,0.23649 c -0.165338,0.13007 -1.489782,1.01876 -2.943154,1.97486 l -2.642533,1.73836 0.02336,0.3078 c 0.01279,0.16928 0.14831,0.81308 0.300903,1.43066 0.152603,0.61759 0.262786,1.13761 0.244837,1.15561 -0.03567,0.0358 -3.370512,-0.40801 -6.859775,-0.91281 -1.216008,-0.17592 -2.261752,-0.31986 -2.323905,-0.31986 -0.08693,0 -0.101954,0.27323 -0.06522,1.18223 0.02723,0.67223 0.01289,1.17828 -0.03324,1.1731 -0.04458,-0.005 -1.304918,-0.41679 -2.800787,-0.91503 z"
         style="fill:#297be5;fill-opacity:1;stroke-width:0.0909424" />
      <path
         sodipodi:nodetypes="cccc"
         d="m -46.786108,601.99712 20.240284,1.42121 -6.460798,4.78251 z"
         style="fill:url(#linearGradient2351);fill-opacity:1;fill-rule:nonzero;stroke:none;stroke-width:0.0182619"
         id="path2281"
         inkscape:connector-curvature="0" />
      <path
         sodipodi:nodetypes="cccc"
         inkscape:connector-curvature="0"
         id="path2283"
         style="fill:url(#linearGradient2353);fill-opacity:1;fill-rule:nonzero;stroke:none;stroke-width:0.0182619"
         d="m -68.310359,605.84914 11.084809,25.47191 -18.40997,-25.94552 z" />
      <path
         d="m -60.216709,605.71428 3.017736,25.68424 -11.770752,-26.41094 z"
         style="fill:url(#linearGradient2355);fill-opacity:1;fill-rule:nonzero;stroke:none;stroke-width:0.0182619"
         id="path2285"
         inkscape:connector-curvature="0"
         sodipodi:nodetypes="cccc" />
      <path
         d="m -65.08515,594.00887 20.02517,8.6336 -11.584964,-11.23856 z"
         style="fill:url(#linearGradient2357);fill-opacity:1;fill-rule:nonzero;stroke:none;stroke-width:0.0182619"
         id="path2287"
         inkscape:connector-curvature="0"
         sodipodi:nodetypes="cccc" />
      <path
         d="m -33.004305,608.18408 -12.121673,-5.69125 -36.438951,2.63755 z"
         style="fill:url(#linearGradient2359);fill-opacity:1;fill-rule:nonzero;stroke:none;stroke-width:0.0183314"
         id="path2289"
         inkscape:connector-curvature="0"
         sodipodi:nodetypes="cccc" />
      <path
         sodipodi:nodetypes="cccc"
         d="m -118.55527,605.7535 20.055378,-12.42823 52.094636,-3.40348 z"
         style="fill:url(#linearGradient2361);fill-opacity:1;fill-rule:nonzero;stroke:none;stroke-width:0.0182619"
         id="path2291"
         inkscape:connector-curvature="0" />
      <path
         d="m -61.003354,583.54594 c 0,0 -38.970937,9.37105 -41.366396,9.9235 l 1.99595,-0.28988 -1.97284,0.28837 45.761207,-2.00299 -2.44307,-4.28981 h 5.14e-4 z"
         style="fill:url(#linearGradient2363);fill-opacity:1;fill-rule:nonzero;stroke:none;stroke-width:0.0182619"
         id="path2293" />
      <path
         d="m -35.342061,591.59929 -9.717919,11.04318 2.089227,-14.56122 z"
         style="fill:url(#linearGradient2365);fill-opacity:1;fill-rule:nonzero;stroke:none;stroke-width:0.0182619"
         id="path2295"
         inkscape:connector-curvature="0" />
      <path
         sodipodi:nodetypes="cccc"
         d="m -26.508173,603.42408 -8.932429,-11.90566 -9.678166,10.98764 z"
         style="fill:url(#linearGradient2367);fill-opacity:1;fill-rule:nonzero;stroke:none;stroke-width:0.0182619"
         id="path2297"
         inkscape:connector-curvature="0" />
      <path
         d="m -33.784003,619.11398 0.777381,-10.91314 6.460798,-4.78251 -1.198386,9.82016 -6.039793,5.87549"
         style="fill:url(#linearGradient2369);fill-opacity:1;fill-rule:nonzero;stroke:none;stroke-width:0.0182619"
         id="path2299"
         inkscape:connector-curvature="0" />
      <path
         d="m -42.970753,588.08125 -8.242611,-10.18633 -10.25105,5.73843 z"
         style="fill:url(#linearGradient2371);fill-opacity:1;fill-rule:nonzero;stroke:none;stroke-width:0.0182619"
         id="path2301"
         inkscape:connector-curvature="0"
         sodipodi:nodetypes="cccc" />
      <path
         d="m -79.743689,575.9512 18.703795,7.58519 9.876851,-5.63282 z"
         style="fill:url(#linearGradient2373);fill-opacity:1;fill-rule:nonzero;stroke:none;stroke-width:0.0182619"
         id="path2303"
         inkscape:connector-curvature="0"
         sodipodi:nodetypes="cccc" />
      <path
         d="m -102.36961,593.46928 22.625921,-17.51808 18.83174,7.63452 z"
         style="fill:url(#linearGradient2375);fill-opacity:1;fill-rule:nonzero;stroke:none;stroke-width:0.0182619"
         id="path2305"
         inkscape:connector-curvature="0"
         sodipodi:nodetypes="cccc" />
      <path
         sodipodi:nodetypes="cccc"
         d="m -42.970753,588.08125 -13.746312,3.4703 -4.334994,-7.99351 z"
         style="fill:url(#linearGradient2377);fill-opacity:1;fill-rule:nonzero;stroke:none;stroke-width:0.0182619"
         id="path2307"
         inkscape:connector-curvature="0" />
      <path
         sodipodi:nodetypes="cccc"
         d="m -42.970753,588.08125 -14.43748,3.49217 12.348253,11.06905 z"
         style="fill:url(#linearGradient2379);fill-opacity:1;fill-rule:nonzero;stroke:none;stroke-width:0.0182619"
         id="path2309"
         inkscape:connector-curvature="0" />
      <path
         d="m -63.997101,601.49326 18.937121,1.14921 -20.052201,-8.7415 z"
         style="fill:url(#linearGradient2381);fill-opacity:1;fill-rule:nonzero;stroke:none;stroke-width:0.0182619"
         id="path2311"
         inkscape:connector-curvature="0"
         sodipodi:nodetypes="cccc" />
      <path
         sodipodi:nodetypes="cccc"
         d="m -63.886497,601.48529 -54.895613,11.63943 53.740321,-19.25405 z"
         style="fill:url(#linearGradient2383);fill-opacity:1;fill-rule:nonzero;stroke:none;stroke-width:0.0182619"
         id="path2313"
         inkscape:connector-curvature="0" />
      <path
         d="m -81.126658,605.13501 17.327224,-3.66837 19.103637,1.08517 z"
         style="fill:url(#linearGradient2385);fill-opacity:1;fill-rule:nonzero;stroke:none;stroke-width:0.0182619"
         id="path2315"
         inkscape:connector-curvature="0"
         sodipodi:nodetypes="cccc" />
      <path
         d="m -81.187472,605.13916 23.951372,26.13896 c -8.104592,-8.4367 -14.01684,-14.49693 -23.951372,-26.13896 z"
         style="fill:url(#linearGradient2387);fill-opacity:1;fill-rule:nonzero;stroke:none;stroke-width:0.0182619"
         id="path2317"
         inkscape:connector-curvature="0"
         sodipodi:nodetypes="ccc" />
      <path
         sodipodi:nodetypes="cccc"
         d="m -65.05345,593.9067 -48.10802,10.6459 -5.62064,8.57212 z"
         style="fill:url(#linearGradient2389);fill-opacity:1;fill-rule:nonzero;stroke:none;stroke-width:0.0182619"
         id="path2319"
         inkscape:connector-curvature="0" />
      <path
         d="m -81.187472,605.13916 -37.594638,7.98556 -8.46128,9.11962 z"
         style="fill:url(#linearGradient2391);fill-opacity:1;fill-rule:nonzero;stroke:none;stroke-width:0.0182619"
         id="path2321"
         inkscape:connector-curvature="0" />
      <path
         d="m -124.70115,627.90972 43.513678,-22.77056 -40.964868,15.21435 z"
         style="fill:url(#linearGradient2393);fill-opacity:1;fill-rule:nonzero;stroke:none;stroke-width:0.0182619"
         id="path2323"
         inkscape:connector-curvature="0" />
      <path
         d="m -123.06215,635.65805 5.05233,-11.24986 36.822348,-19.26903 z"
         style="fill:url(#linearGradient2395);fill-opacity:1;fill-rule:nonzero;stroke:none;stroke-width:0.0182619"
         id="path2325"
         inkscape:connector-curvature="0" />
      <path
         sodipodi:nodetypes="cccc"
         d="m -110.45104,646.83103 -5.73903,-16.4897 35.002598,-25.20217 z"
         style="fill:url(#linearGradient2397);fill-opacity:1;fill-rule:nonzero;stroke:none;stroke-width:0.0182619"
         id="path2327"
         inkscape:connector-curvature="0" />
      <path
         d="m -57.2361,631.27812 -3.772543,5.2145 -20.178829,-31.35346 z"
         style="fill:url(#linearGradient2399);fill-opacity:1;fill-rule:nonzero;stroke:none;stroke-width:0.0182619"
         id="path2329"
         inkscape:connector-curvature="0" />
      <path
         d="m -64.679828,642.41477 -16.507644,-37.27561 20.689796,32.14712 z"
         style="fill:url(#linearGradient2401);fill-opacity:1;fill-rule:nonzero;stroke:none;stroke-width:0.0182619"
         id="path2331"
         inkscape:connector-curvature="0" />
      <path
         d="m -96.060134,649.36962 -11.742386,-6.31203 26.615048,-37.91843 z"
         style="fill:url(#linearGradient2403);fill-opacity:1;fill-rule:nonzero;stroke:none;stroke-width:0.0182619"
         id="path2333"
         inkscape:connector-curvature="0" />
      <path
         d="m -63.652231,644.73494 -17.535241,-39.59578 11.41203,43.57048 z"
         style="fill:url(#linearGradient2405);fill-opacity:1;fill-rule:nonzero;stroke:none;stroke-width:0.0182619"
         id="path2335"
         inkscape:connector-curvature="0" />
      <path
         d="m -81.187472,605.13916 2.922814,47.60526 -17.057691,-5.56933 z"
         style="fill:url(#linearGradient2407);fill-opacity:1;fill-rule:nonzero;stroke:none;stroke-width:0.0182619"
         id="path2337"
         inkscape:connector-curvature="0" />
      <path
         sodipodi:nodetypes="cccc"
         d="m -81.187472,605.13916 2.764768,45.17882 9.468676,1.34504 z"
         style="fill:url(#linearGradient2409);fill-opacity:1;fill-rule:nonzero;stroke:none;stroke-width:0.0182619"
         id="path2339"
         inkscape:connector-curvature="0" />
      <path
         style="fill:#000000;fill-opacity:1;stroke:none;stroke-width:0.366687px;stroke-linecap:butt;stroke-linejoin:miter;stroke-opacity:1"
         d="m -73.128241,588.13118 c 9.474943,-4.34767 17.898794,8.97989 22.914515,3.56519 -2.186433,3.49461 -7.276618,3.81245 -10.825244,3.82451 0,0 -5.445035,-0.12966 -4.731993,-4.69957 -1.176557,-1.94356 -4.90302,-1.90484 -7.357278,-2.69013 z"
         id="path2341"
         inkscape:connector-curvature="0"
         sodipodi:nodetypes="ccccc" />
      <path
         style="fill:#ffffff;fill-opacity:1;stroke:none;stroke-width:0.402905;stroke-linecap:round;stroke-miterlimit:4;stroke-dasharray:none;stroke-opacity:1;paint-order:stroke fill markers"
         d="m -64.247934,589.4898 a 2.8845707,2.8845707 0 0 0 -1.198895,2.33619 2.8845707,2.8845707 0 0 0 2.8848,2.88481 2.8845707,2.8845707 0 0 0 2.884082,-2.88481 2.8845707,2.8845707 0 0 0 -0.08594,-0.68896 2.3497907,2.8521598 0 0 1 -2.198691,1.85565 2.3497907,2.8521598 0 0 1 -2.349811,-2.85188 2.3497907,2.8521598 0 0 1 0.06445,-0.651 z"
         id="path2343"
         inkscape:connector-curvature="0" />
      <path
         inkscape:connector-curvature="0"
         id="path2345"
         d="m -38.797192,594.46964 c 0,0 -3.279402,0.81983 -2.869472,2.66449 0,0 1.332254,-0.10246 2.869472,-2.66449 z"
         style="fill:#000000;fill-opacity:1;stroke:none;stroke-width:0.204962px;stroke-linecap:butt;stroke-linejoin:miter;stroke-opacity:1" />
      <path
         d="m -75.221671,605.52855 18.008253,25.80437 -23.999394,-26.18705 z"
         style="fill:url(#linearGradient2411);fill-opacity:1;fill-rule:nonzero;stroke:none;stroke-width:0.0182619"
         id="path2347"
         inkscape:connector-curvature="0"
         sodipodi:nodetypes="cccc" />
    </g>
  </g>
</svg>
