<?xml version="1.0" encoding="UTF-8" standalone="no"?>
<svg xmlns:dc="http://purl.org/dc/elements/1.1/" xmlns:cc="http://creativecommons.org/ns#" xmlns:rdf="http://www.w3.org/1999/02/22-rdf-syntax-ns#" xmlns:svg="http://www.w3.org/2000/svg" xmlns="http://www.w3.org/2000/svg" xmlns:sodipodi="http://sodipodi.sourceforge.net/DTD/sodipodi-0.dtd" xmlns:inkscape="http://www.inkscape.org/namespaces/inkscape" width="400" height="400" viewBox="0 0 105.83333 105.83334" version="1.1" id="svg8915" inkscape:version="1.0.1 (3bc2e813f5, 2020-09-07)" sodipodi:docname="garuda-eagle-white.svg" inkscape:export-filename="/home/sgs/Bilder/Garuda-Eagle-white-sgs.png" inkscape:export-xdpi="96" inkscape:export-ydpi="96">
  <defs id="defs8909"/>
  
  
  <g inkscape:label="Ebene 1" inkscape:groupmode="layer" id="layer1" transform="translate(0,-191.16665)">
    <path style="fill:#000000;stroke-width:0.0822478" id="path3437" d=""/>
    <g id="g1554" transform="matrix(1.1151249,0,0,1.1151249,-10.032057,-179.53667)">
      <ellipse ry="9.2227726" rx="15.144643" cy="356.8118" cx="68.134544" id="ellipse3419" style="fill:#ededed;fill-opacity:1;stroke:none;stroke-width:1.88137;stroke-linecap:round;stroke-miterlimit:4;stroke-dasharray:none;stroke-opacity:1;paint-order:stroke markers fill"/>
      <path inkscape:connector-curvature="0" id="path3421" style="fill:#f1f3f2;fill-opacity:1;fill-rule:nonzero;stroke:none;stroke-width:0.0167233" d="M 18.409876,372.27382 36.58124,360.7493 67.513309,361.04982 Z"/>
      <path inkscape:connector-curvature="0" id="path3423" style="fill:#d2d2d2;fill-opacity:1;fill-rule:nonzero;stroke:none;stroke-width:0.0167233" d="m 73.236317,355.35681 2.085895,3.92525 -42.136138,1.48413 z" sodipodi:nodetypes="cccc"/>
      <path inkscape:connector-curvature="0" id="path3425" style="fill:#d6d6d6;fill-opacity:1;fill-rule:nonzero;stroke:none;stroke-width:0.0167233" d="m 94.566467,359.05375 -9.223548,10.92415 2.237583,-14.14578 z" sodipodi:nodetypes="cccc"/>
      <path inkscape:connector-curvature="0" id="path3427" style="fill:#dfdfdf;fill-opacity:1;fill-rule:nonzero;stroke:none;stroke-width:0.0167233" d="m 102.49192,369.91593 -7.925453,-10.86218 -8.899173,10.11278 c 5.533712,0.98541 11.123126,1.42078 16.824626,0.7494 z" sodipodi:nodetypes="cccc"/>
      <path inkscape:connector-curvature="0" id="path3429" style="fill:#cbcbcb;fill-opacity:1;fill-rule:nonzero;stroke:none;stroke-width:0.0167233" d="m 95.993252,384.2503 0.803534,-10.17549 5.686834,-4.17344 -0.95945,8.96845 -5.530918,5.38048" sodipodi:nodetypes="ccccc"/>
      <path inkscape:connector-curvature="0" id="path3431" style="fill:#d6d6d6;fill-opacity:1;fill-rule:nonzero;stroke:none;stroke-width:0.0167233" d="m 85.667294,369.16653 16.800666,0.74719 -5.762819,4.34288 z" sodipodi:nodetypes="cccc"/>
      <path sodipodi:nodetypes="cccc" inkscape:connector-curvature="0" id="path3433" style="fill:#ffffff;fill-opacity:1;fill-rule:nonzero;stroke:none;stroke-width:0.0167233" d="m 87.580502,355.83212 -7.548161,-9.32813 -9.119766,5.17496 z"/>
      <path sodipodi:nodetypes="cccc" inkscape:connector-curvature="0" id="path3435" style="fill:#f3f3f3;fill-opacity:1;fill-rule:nonzero;stroke:none;stroke-width:0.0167233" d="m 53.905734,344.72404 17.127974,6.94612 9.044715,-5.15825 z"/>
      <path sodipodi:nodetypes="cccc" inkscape:connector-curvature="0" id="path3438" style="fill:#e4e4e4;fill-opacity:1;fill-rule:nonzero;stroke:none;stroke-width:0.0167233" d="m 33.186074,360.76619 20.71966,-16.04215 17.301324,6.93553 z"/>
      <path inkscape:connector-curvature="0" id="path3440" style="fill:#c9c9c9;fill-opacity:1;fill-rule:nonzero;stroke:none;stroke-width:0.0167233" d="m 87.580502,355.83212 -12.522123,3.04271 -4.035811,-7.18484 z"/>
      <path inkscape:connector-curvature="0" id="path3442" style="fill:#c0c0c0;fill-opacity:1;fill-rule:nonzero;stroke:none;stroke-width:0.0167233" d="m 87.580502,355.83212 -12.655404,3.07537 10.661694,10.23099 z" sodipodi:nodetypes="cccc"/>
      <path sodipodi:nodetypes="cccc" inkscape:connector-curvature="0" id="path3444" style="fill:#bebebe;fill-opacity:1;fill-rule:nonzero;stroke:none;stroke-width:0.0167233" d="m 67.32927,361.26032 18.338024,7.90621 -10.608915,-10.2917 z"/>
      <path sodipodi:nodetypes="cccc" inkscape:connector-curvature="0" id="path3446" style="fill:#a6a6a6;fill-opacity:1;fill-rule:nonzero;stroke:none;stroke-width:0.0167233" d="m 66.989498,368.0785 18.677796,1.08803 -18.363123,-8.03683 z"/>
      <path sodipodi:nodetypes="cccc" inkscape:connector-curvature="0" id="path3448" style="fill:#f8f8f8;fill-opacity:1;fill-rule:nonzero;stroke:none;stroke-width:0.0167233" d="m 73.140487,355.47941 -39.954413,5.28678 37.91785,-9.07012 z"/>
      <path inkscape:connector-curvature="0" id="path3450" style="fill:#d7d7d7;fill-opacity:1;fill-rule:nonzero;stroke:none;stroke-width:0.0167233" d="M 69.09868,367.94517 18.156351,378.76564 67.370659,361.07039 Z"/>
      <path sodipodi:nodetypes="cccc" inkscape:connector-curvature="0" id="path3452" style="fill:#a1a1a1;fill-opacity:1;fill-rule:nonzero;stroke:none;stroke-width:0.0167233" d="m 51.842119,371.60209 17.215043,-3.66395 16.943633,1.14537 z"/>
      <path sodipodi:nodetypes="cccc" inkscape:connector-curvature="0" id="path3454" style="fill:#a2a2a2;fill-opacity:1;fill-rule:nonzero;stroke:none;stroke-width:0.0167233" d="m 75.787685,371.35969 -1.236659,24.14016 -10.77905,-24.18578 z"/>
      <path sodipodi:nodetypes="cccc" inkscape:connector-curvature="0" id="path3456" style="fill:#b6b6b6;fill-opacity:1;fill-rule:nonzero;stroke:none;stroke-width:0.0167233" d="m 96.874083,374.32575 -11.0054,-5.3518 -32.810284,2.54018 z"/>
      <path sodipodi:nodetypes="cccc" inkscape:connector-curvature="0" id="path3458" style="fill:#b9b9b9;fill-opacity:1;fill-rule:nonzero;stroke:none;stroke-width:0.0167233" d="M 52.583591,371.45288 74.517028,395.3896 64.21875,372.07584 Z"/>
      <path inkscape:connector-curvature="0" id="path3460" style="fill:#fbfbfb;fill-opacity:1;fill-rule:nonzero;stroke:none;stroke-width:0.0167233" d="m 67.370659,361.07039 -44.067214,9.84534 -5.147094,7.84991 z"/>
      <path inkscape:connector-curvature="0" id="path3462" style="fill:#f0f0f0;fill-opacity:1;fill-rule:nonzero;stroke:none;stroke-width:0.0167233" d="m 52.583591,371.45288 -34.42724,7.31276 -7.748407,8.35128 z"/>
      <path inkscape:connector-curvature="0" id="path3464" style="fill:#f7f9fb;fill-opacity:1;fill-rule:nonzero;stroke:none;stroke-width:0.0167233" d="M 12.735994,392.30499 52.583591,371.45288 15.070064,385.38539 Z"/>
      <path inkscape:connector-curvature="0" id="path3466" style="fill:#f3f3f3;fill-opacity:1;fill-rule:nonzero;stroke:none;stroke-width:0.0167233" d="m 14.236909,399.40051 4.626667,-10.30204 33.720015,-17.64559 z"/>
      <path inkscape:connector-curvature="0" id="path3468" style="fill:#a6a6a6;fill-opacity:1;fill-rule:nonzero;stroke:none;stroke-width:0.0167233" d="m 74.517028,395.3896 -3.454702,4.77517 -18.478735,-28.71189 z"/>
      <path inkscape:connector-curvature="0" id="path3470" style="fill:#999999;fill-opacity:1;fill-rule:nonzero;stroke:none;stroke-width:0.0167233" d="M 67.700443,405.58797 52.583591,371.45288 71.530243,400.89156 Z"/>
      <path inkscape:connector-curvature="0" id="path3472" style="fill:#e5e5e5;fill-opacity:1;fill-rule:nonzero;stroke:none;stroke-width:0.0167233" d="M 25.785517,409.63216 20.65347,394.72401 52.583591,371.45288 Z"/>
      <path inkscape:connector-curvature="0" id="path3474" style="fill:#cecece;fill-opacity:1;fill-rule:nonzero;stroke:none;stroke-width:0.0167233" d="M 38.963971,411.95687 28.210893,406.17663 52.583591,371.45288 Z"/>
      <path inkscape:connector-curvature="0" id="path3476" style="fill:#a5a5a5;fill-opacity:1;fill-rule:nonzero;stroke:none;stroke-width:0.0167233" d="m 68.641463,407.71266 -16.057872,-36.25978 10.450551,39.8996 z"/>
      <path inkscape:connector-curvature="0" id="path3478" style="fill:#c6c6c6;fill-opacity:1;fill-rule:nonzero;stroke:none;stroke-width:0.0167233" d="m 52.583591,371.45288 2.676564,43.59445 -15.620559,-5.1001 z"/>
      <path inkscape:connector-curvature="0" id="path3480" style="fill:#ababab;fill-opacity:1;fill-rule:nonzero;stroke:none;stroke-width:0.0167233" d="m 52.583591,371.45288 2.494445,41.35771 8.649455,1.26378 z"/>
      <path style="fill:#000000;stroke:none;stroke-width:0.187694px;stroke-linecap:butt;stroke-linejoin:miter;stroke-opacity:1" d="m 91.402437,361.68227 c 0,0 -3.003111,0.75076 -2.627718,2.44001 0,0 1.22001,-0.0938 2.627718,-2.44001 z" id="path3489" inkscape:connector-curvature="0"/>
      <path sodipodi:nodetypes="cccc" d="m 67.294002,359.17902 0.09928,1.85193 -34.35192,-0.24475 z" style="fill:#b6b6b6;fill-opacity:1;fill-rule:nonzero;stroke:none;stroke-width:0.0167233" id="path3668" inkscape:connector-curvature="0"/>
      <g transform="matrix(0.33579365,0,0,0.33579365,329.63854,742.38193)" id="g3486">
        <path style="fill:#000000;stroke:none;stroke-width:1px;stroke-linecap:butt;stroke-linejoin:miter;stroke-opacity:1" d="m -803.09654,-1151.0167 c 25.83928,-11.8566 48.81211,24.4892 62.49057,9.7227 -5.96266,9.5302 -19.84419,10.397 -29.52171,10.4299 0,0 -14.84925,-0.3536 -12.9047,-12.8163 -3.20861,-5.3003 -13.37111,-5.1947 -20.06416,-7.3363 z" id="path3482" inkscape:connector-curvature="0" sodipodi:nodetypes="ccccc"/>
        <path style="opacity:1;fill:#ffffff;fill-opacity:1;stroke:none;stroke-width:1.09877;stroke-linecap:round;stroke-miterlimit:4;stroke-dasharray:none;stroke-opacity:1;paint-order:stroke fill markers" d="m -778.8789,-1147.3116 a 7.8665628,7.8665628 0 0 0 -3.26953,6.3711 7.8665628,7.8665628 0 0 0 7.86719,7.8672 7.8665628,7.8665628 0 0 0 7.86523,-7.8672 7.8665628,7.8665628 0 0 0 -0.23437,-1.8789 6.408155,7.7781744 0 0 1 -5.99609,5.0606 6.408155,7.7781744 0 0 1 -6.40821,-7.7774 6.408155,7.7781744 0 0 1 0.17578,-1.7754 z" id="path3484" inkscape:connector-curvature="0"/>
      </g>
    </g>
    <g id="g1628" transform="matrix(1.1151249,0,0,1.1151249,-10.032057,-179.53667)">
      <ellipse ry="9.2227726" rx="15.144643" cy="356.8118" cx="68.134544" id="ellipse1556" style="fill:#ededed;fill-opacity:1;stroke:none;stroke-width:1.88137;stroke-linecap:round;stroke-miterlimit:4;stroke-dasharray:none;stroke-opacity:1;paint-order:stroke markers fill"/>
      <path inkscape:connector-curvature="0" id="path1558" style="fill:#f1f3f2;fill-opacity:1;fill-rule:nonzero;stroke:none;stroke-width:0.0167233" d="M 18.409876,372.27382 36.58124,360.7493 67.513309,361.04982 Z"/>
      <path inkscape:connector-curvature="0" id="path1560" style="fill:#d2d2d2;fill-opacity:1;fill-rule:nonzero;stroke:none;stroke-width:0.0167233" d="m 73.236317,355.35681 2.085895,3.92525 -42.136138,1.48413 z" sodipodi:nodetypes="cccc"/>
      <path inkscape:connector-curvature="0" id="path1562" style="fill:#d6d6d6;fill-opacity:1;fill-rule:nonzero;stroke:none;stroke-width:0.0167233" d="m 94.566467,359.05375 -9.223548,10.92415 2.237583,-14.14578 z" sodipodi:nodetypes="cccc"/>
      <path inkscape:connector-curvature="0" id="path1564" style="fill:#dfdfdf;fill-opacity:1;fill-rule:nonzero;stroke:none;stroke-width:0.0167233" d="m 102.49192,369.91593 -7.925453,-10.86218 -8.899173,10.11278 c 5.533712,0.98541 11.123126,1.42078 16.824626,0.7494 z" sodipodi:nodetypes="cccc"/>
      <path inkscape:connector-curvature="0" id="path1566" style="fill:#cbcbcb;fill-opacity:1;fill-rule:nonzero;stroke:none;stroke-width:0.0167233" d="m 95.993252,384.2503 0.803534,-10.17549 5.686834,-4.17344 -0.95945,8.96845 -5.530918,5.38048" sodipodi:nodetypes="ccccc"/>
      <path inkscape:connector-curvature="0" id="path1568" style="fill:#d6d6d6;fill-opacity:1;fill-rule:nonzero;stroke:none;stroke-width:0.0167233" d="m 85.667294,369.16653 16.800666,0.74719 -5.762819,4.34288 z" sodipodi:nodetypes="cccc"/>
      <path sodipodi:nodetypes="cccc" inkscape:connector-curvature="0" id="path1570" style="fill:#ffffff;fill-opacity:1;fill-rule:nonzero;stroke:none;stroke-width:0.0167233" d="m 87.580502,355.83212 -7.548161,-9.32813 -9.119766,5.17496 z"/>
      <path sodipodi:nodetypes="cccc" inkscape:connector-curvature="0" id="path1572" style="fill:#f3f3f3;fill-opacity:1;fill-rule:nonzero;stroke:none;stroke-width:0.0167233" d="m 53.905734,344.72404 17.127974,6.94612 9.044715,-5.15825 z"/>
      <path sodipodi:nodetypes="cccc" inkscape:connector-curvature="0" id="path1574" style="fill:#e4e4e4;fill-opacity:1;fill-rule:nonzero;stroke:none;stroke-width:0.0167233" d="m 33.186074,360.76619 20.71966,-16.04215 17.301324,6.93553 z"/>
      <path inkscape:connector-curvature="0" id="path1576" style="fill:#c9c9c9;fill-opacity:1;fill-rule:nonzero;stroke:none;stroke-width:0.0167233" d="m 87.580502,355.83212 -12.522123,3.04271 -4.035811,-7.18484 z"/>
      <path inkscape:connector-curvature="0" id="path1578" style="fill:#c0c0c0;fill-opacity:1;fill-rule:nonzero;stroke:none;stroke-width:0.0167233" d="m 87.580502,355.83212 -12.655404,3.07537 10.661694,10.23099 z" sodipodi:nodetypes="cccc"/>
      <path sodipodi:nodetypes="cccc" inkscape:connector-curvature="0" id="path1580" style="fill:#bebebe;fill-opacity:1;fill-rule:nonzero;stroke:none;stroke-width:0.0167233" d="m 67.32927,361.26032 18.338024,7.90621 -10.608915,-10.2917 z"/>
      <path sodipodi:nodetypes="cccc" inkscape:connector-curvature="0" id="path1582" style="fill:#a6a6a6;fill-opacity:1;fill-rule:nonzero;stroke:none;stroke-width:0.0167233" d="m 66.989498,368.0785 18.677796,1.08803 -18.363123,-8.03683 z"/>
      <path sodipodi:nodetypes="cccc" inkscape:connector-curvature="0" id="path1584" style="fill:#f8f8f8;fill-opacity:1;fill-rule:nonzero;stroke:none;stroke-width:0.0167233" d="m 73.140487,355.47941 -39.954413,5.28678 37.91785,-9.07012 z"/>
      <path inkscape:connector-curvature="0" id="path1586" style="fill:#d7d7d7;fill-opacity:1;fill-rule:nonzero;stroke:none;stroke-width:0.0167233" d="M 69.09868,367.94517 18.156351,378.76564 67.370659,361.07039 Z"/>
      <path sodipodi:nodetypes="cccc" inkscape:connector-curvature="0" id="path1588" style="fill:#a1a1a1;fill-opacity:1;fill-rule:nonzero;stroke:none;stroke-width:0.0167233" d="m 51.842119,371.60209 17.215043,-3.66395 16.943633,1.14537 z"/>
      <path sodipodi:nodetypes="cccc" inkscape:connector-curvature="0" id="path1590" style="fill:#a2a2a2;fill-opacity:1;fill-rule:nonzero;stroke:none;stroke-width:0.0167233" d="m 75.787685,371.35969 -1.236659,24.14016 -10.77905,-24.18578 z"/>
      <path sodipodi:nodetypes="cccc" inkscape:connector-curvature="0" id="path1592" style="fill:#b6b6b6;fill-opacity:1;fill-rule:nonzero;stroke:none;stroke-width:0.0167233" d="m 96.874083,374.32575 -11.0054,-5.3518 -32.810284,2.54018 z"/>
      <path sodipodi:nodetypes="cccc" inkscape:connector-curvature="0" id="path1594" style="fill:#b9b9b9;fill-opacity:1;fill-rule:nonzero;stroke:none;stroke-width:0.0167233" d="M 52.583591,371.45288 74.517028,395.3896 64.21875,372.07584 Z"/>
      <path inkscape:connector-curvature="0" id="path1596" style="fill:#fbfbfb;fill-opacity:1;fill-rule:nonzero;stroke:none;stroke-width:0.0167233" d="m 67.370659,361.07039 -44.067214,9.84534 -5.147094,7.84991 z"/>
      <path inkscape:connector-curvature="0" id="path1598" style="fill:#f0f0f0;fill-opacity:1;fill-rule:nonzero;stroke:none;stroke-width:0.0167233" d="m 52.583591,371.45288 -34.42724,7.31276 -7.748407,8.35128 z"/>
      <path inkscape:connector-curvature="0" id="path1600" style="fill:#f7f9fb;fill-opacity:1;fill-rule:nonzero;stroke:none;stroke-width:0.0167233" d="M 12.735994,392.30499 52.583591,371.45288 15.070064,385.38539 Z"/>
      <path inkscape:connector-curvature="0" id="path1602" style="fill:#f3f3f3;fill-opacity:1;fill-rule:nonzero;stroke:none;stroke-width:0.0167233" d="m 14.236909,399.40051 4.626667,-10.30204 33.720015,-17.64559 z"/>
      <path inkscape:connector-curvature="0" id="path1604" style="fill:#a6a6a6;fill-opacity:1;fill-rule:nonzero;stroke:none;stroke-width:0.0167233" d="m 74.517028,395.3896 -3.454702,4.77517 -18.478735,-28.71189 z"/>
      <path inkscape:connector-curvature="0" id="path1606" style="fill:#999999;fill-opacity:1;fill-rule:nonzero;stroke:none;stroke-width:0.0167233" d="M 67.700443,405.58797 52.583591,371.45288 71.530243,400.89156 Z"/>
      <path inkscape:connector-curvature="0" id="path1608" style="fill:#e5e5e5;fill-opacity:1;fill-rule:nonzero;stroke:none;stroke-width:0.0167233" d="M 25.785517,409.63216 20.65347,394.72401 52.583591,371.45288 Z"/>
      <path inkscape:connector-curvature="0" id="path1610" style="fill:#cecece;fill-opacity:1;fill-rule:nonzero;stroke:none;stroke-width:0.0167233" d="M 38.963971,411.95687 28.210893,406.17663 52.583591,371.45288 Z"/>
      <path inkscape:connector-curvature="0" id="path1612" style="fill:#a5a5a5;fill-opacity:1;fill-rule:nonzero;stroke:none;stroke-width:0.0167233" d="m 68.641463,407.71266 -16.057872,-36.25978 10.450551,39.8996 z"/>
      <path inkscape:connector-curvature="0" id="path1614" style="fill:#c6c6c6;fill-opacity:1;fill-rule:nonzero;stroke:none;stroke-width:0.0167233" d="m 52.583591,371.45288 2.676564,43.59445 -15.620559,-5.1001 z"/>
      <path inkscape:connector-curvature="0" id="path1616" style="fill:#ababab;fill-opacity:1;fill-rule:nonzero;stroke:none;stroke-width:0.0167233" d="m 52.583591,371.45288 2.494445,41.35771 8.649455,1.26378 z"/>
      <path style="fill:#000000;stroke:none;stroke-width:0.187694px;stroke-linecap:butt;stroke-linejoin:miter;stroke-opacity:1" d="m 91.402437,361.68227 c 0,0 -3.003111,0.75076 -2.627718,2.44001 0,0 1.22001,-0.0938 2.627718,-2.44001 z" id="path1618" inkscape:connector-curvature="0"/>
      <path sodipodi:nodetypes="cccc" d="m 67.294002,359.17902 0.09928,1.85193 -34.35192,-0.24475 z" style="fill:#b6b6b6;fill-opacity:1;fill-rule:nonzero;stroke:none;stroke-width:0.0167233" id="path1620" inkscape:connector-curvature="0"/>
      <g transform="matrix(0.33579365,0,0,0.33579365,329.63854,742.38193)" id="g1626">
        <path style="fill:#000000;stroke:none;stroke-width:1px;stroke-linecap:butt;stroke-linejoin:miter;stroke-opacity:1" d="m -803.09654,-1151.0167 c 25.83928,-11.8566 48.81211,24.4892 62.49057,9.7227 -5.96266,9.5302 -19.84419,10.397 -29.52171,10.4299 0,0 -14.84925,-0.3536 -12.9047,-12.8163 -3.20861,-5.3003 -13.37111,-5.1947 -20.06416,-7.3363 z" id="path1622" inkscape:connector-curvature="0" sodipodi:nodetypes="ccccc"/>
        <path style="opacity:1;fill:#ffffff;fill-opacity:1;stroke:none;stroke-width:1.09877;stroke-linecap:round;stroke-miterlimit:4;stroke-dasharray:none;stroke-opacity:1;paint-order:stroke fill markers" d="m -778.8789,-1147.3116 a 7.8665628,7.8665628 0 0 0 -3.26953,6.3711 7.8665628,7.8665628 0 0 0 7.86719,7.8672 7.8665628,7.8665628 0 0 0 7.86523,-7.8672 7.8665628,7.8665628 0 0 0 -0.23437,-1.8789 6.408155,7.7781744 0 0 1 -5.99609,5.0606 6.408155,7.7781744 0 0 1 -6.40821,-7.7774 6.408155,7.7781744 0 0 1 0.17578,-1.7754 z" id="path1624" inkscape:connector-curvature="0"/>
      </g>
    </g>
  </g>
</svg>
