<?xml version="1.0" encoding="UTF-8" standalone="no"?>
<svg
   width="16"
   height="16"
   version="1.1"
   id="svg4"
   sodipodi:docname="ac-adapter-symbolic-new.svg"
   xml:space="preserve"
   inkscape:version="1.2.1 (9c6d41e410, 2022-07-14)"
   xmlns:inkscape="http://www.inkscape.org/namespaces/inkscape"
   xmlns:sodipodi="http://sodipodi.sourceforge.net/DTD/sodipodi-0.dtd"
   xmlns="http://www.w3.org/2000/svg"
   xmlns:svg="http://www.w3.org/2000/svg"><defs
     id="defs8" /><sodipodi:namedview
     id="namedview6"
     pagecolor="#ffffff"
     bordercolor="#000000"
     borderopacity="0.25"
     inkscape:showpageshadow="2"
     inkscape:pageopacity="0.0"
     inkscape:pagecheckerboard="0"
     inkscape:deskcolor="#d1d1d1"
     showgrid="false"
     inkscape:zoom="22.693708"
     inkscape:cx="-11.060334"
     inkscape:cy="7.2927702"
     inkscape:current-layer="svg4" /><g
     id="g657"
     transform="matrix(0.73684211,0,0,0.73684211,-23.488135,-177.42452)"
     style="fill:#444444;fill-opacity:1"><path
       id="path250"
       style="fill:#444444;fill-opacity:1"
       d="m 36.733897,258.14756 c 0,1.654 1.346002,3 3,3 h 6 c 1.653998,0 3,-1.346 3,-3 v -11 c 0,-1.654 -1.346002,-3 -3,-3 0,-1.104 -0.896001,-2 -2,-2 h -2 c -1.103999,0 -2,0.896 -2,2 -1.653998,0 -3,1.346 -3,3 z m 2,0 v -11 c 0,-0.551 0.448,-1 1,-1 h 6 c 0.551999,0 1,0.449 1,1 v 11 c 0,0.551 -0.448001,1 -1,1 h -6 c -0.552,0 -1,-0.449 -1,-1 z" /><path
       id="path237"
       style="fill:#444444;fill-opacity:1"
       d="m 39.733897,258.14756 h 6 v -11 h -6 z m 1.103516,-5.22265 1.896484,-1.17579 -0.431641,-2.60156 2.339844,3.16992 -1.908203,1.21094 0.427734,2.61914 z" /></g></svg>
