<?xml version="1.0" encoding="UTF-8" standalone="no"?>
<svg
   width="16"
   height="16"
   version="1.1"
   id="svg4"
   sodipodi:docname="audio-speakers-symbolic.svg"
   xml:space="preserve"
   inkscape:version="1.2.1 (9c6d41e410, 2022-07-14)"
   xmlns:inkscape="http://www.inkscape.org/namespaces/inkscape"
   xmlns:sodipodi="http://sodipodi.sourceforge.net/DTD/sodipodi-0.dtd"
   xmlns="http://www.w3.org/2000/svg"
   xmlns:svg="http://www.w3.org/2000/svg"><defs
     id="defs8" /><sodipodi:namedview
     id="namedview6"
     pagecolor="#ffffff"
     bordercolor="#000000"
     borderopacity="0.25"
     inkscape:showpageshadow="2"
     inkscape:pageopacity="0.0"
     inkscape:pagecheckerboard="0"
     inkscape:deskcolor="#d1d1d1"
     showgrid="false"
     inkscape:zoom="16.046875"
     inkscape:cx="-18.445959"
     inkscape:cy="5.0165531"
     inkscape:current-layer="svg4" /><path
     d="m 7.035189,1.2500832 c -0.286428,-0.0038 -0.557782,0.120602 -0.742452,0.339192 L 3.175944,5.1017912 H 2.211133 c -1.055262,0 -1.929622,0.8140594 -1.929622,1.9296223 v 1.9296224 c 0,1.0514941 0.878128,1.9296231 1.929622,1.9296231 h 0.964811 l 3.116793,3.512516 c 0.203514,0.244971 0.474867,0.350497 0.742452,0.346729 z m 6.233585,0.9271241 c -0.184672,-0.00377 -0.373111,0.052764 -0.538938,0.1620583 -0.440949,0.3015035 -0.557781,0.900741 -0.260047,1.3416906 1.760027,2.6117738 1.760027,6.0187632 0,8.6305378 -0.297734,0.440949 -0.180902,1.040187 0.260047,1.34169 0.440949,0.297735 1.040187,0.180903 1.341691,-0.260046 1.096719,-1.631887 1.646962,-3.5125165 1.646962,-5.3969133 0,-1.8843968 -0.550243,-3.7650251 -1.646962,-5.3969125 C 13.883087,2.3241905 13.577815,2.1772073 13.268774,2.1772073 Z M 9.96731,4.1256733 C 9.752489,4.1181333 9.530131,4.1822053 9.345459,4.3216506 9.09295,4.5138593 8.964811,4.8040562 8.964811,5.0980226 v 0.056532 c 0.01131,0.1846707 0.07161,0.3618042 0.192209,0.5163245 1.036418,1.379378 1.036418,3.2713129 0,4.6469229 -0.120601,0.158289 -0.180902,0.335423 -0.192209,0.516325 v 0.0603 c 0,0.293967 0.128139,0.584164 0.380648,0.776372 0.425875,0.320348 1.028881,0.233665 1.349229,-0.192208 0.776371,-1.028881 1.164557,-2.2537392 1.164557,-3.4823664 0,-1.2286272 -0.388186,-2.4534849 -1.164557,-3.4861339 C 10.517554,4.2726565 10.246201,4.1407485 9.96731,4.1256733 Z m 0,0"
     fill="#2e3436"
     id="path2-3"
     style="fill:#444444;fill-opacity:1;stroke-width:0.964811" /></svg>
