<?xml version="1.0" encoding="UTF-8" standalone="no"?>
<svg
   width="16"
   height="16"
   version="1.1"
   id="svg4"
   sodipodi:docname="camera-photo-symbolic.svg"
   xml:space="preserve"
   inkscape:version="1.2.1 (9c6d41e410, 2022-07-14)"
   xmlns:inkscape="http://www.inkscape.org/namespaces/inkscape"
   xmlns:sodipodi="http://sodipodi.sourceforge.net/DTD/sodipodi-0.dtd"
   xmlns="http://www.w3.org/2000/svg"
   xmlns:svg="http://www.w3.org/2000/svg"><defs
     id="defs8" /><sodipodi:namedview
     id="namedview6"
     pagecolor="#ffffff"
     bordercolor="#000000"
     borderopacity="0.25"
     inkscape:showpageshadow="2"
     inkscape:pageopacity="0.0"
     inkscape:pagecheckerboard="0"
     inkscape:deskcolor="#d1d1d1"
     showgrid="false"
     inkscape:zoom="22.693708"
     inkscape:cx="-7.1826075"
     inkscape:cy="8.5706575"
     inkscape:current-layer="svg4" /><g
     style="fill:#444444;fill-opacity:1"
     id="g246"
     transform="matrix(0.7,0,0,0.7,-0.4,-0.2259905)"><path
       d="m 13.9247,2.50293 c 0.7978,0 1.536,0.42247 1.94,1.11037 l 0.8146,1.38658 H 18.75 c 1.7949,0 3.25,1.45508 3.25,3.25 v 9.50002 c 0,1.7949 -1.4551,3.25 -3.25,3.25 H 5.25 C 3.45507,20.9999 2,19.5448 2,17.7499 V 8.24988 c 0,-1.79492 1.45507,-3.25 3.25,-3.25 H 7.33042 L 8.205,3.57558 C 8.61425,2.90908 9.34026,2.50293 10.1224,2.50293 Z M 12,7.99988 c -2.48528,0 -4.5,2.01472 -4.5,4.50002 0,2.4853 2.01472,4.5 4.5,4.5 2.4853,0 4.5,-2.0147 4.5,-4.5 0,-2.4853 -2.0147,-4.50002 -4.5,-4.50002 z m 0,1.5 c 1.6569,0 3,1.34312 3,3.00002 0,1.6568 -1.3431,3 -3,3 -1.6569,0 -3,-1.3432 -3,-3 0,-1.6569 1.3431,-3.00002 3,-3.00002 z"
       fill="#212121"
       id="path237"
       style="fill:#444444;fill-opacity:1" /></g></svg>
