<svg xmlns="http://www.w3.org/2000/svg" width="16" height="16">
    <path d="M 2 1 C 0.7899927 1 0 1.8590461 0 3 L 0 13 C 0 14.313587 0.5483059 15 2 15 L 8 15 L 8 8 L 8 1 L 2 1 z M 9 1 L 9 5 C 10.68 5 12 6.319998 12 8 C 12 9.6800001 10.68 11 9 11 L 9 15 C 12.842 15 16 11.842 16 8 C 16 4.157998 12.842 1 9 1 z M 9 6 L 9 7 C 9.5579997 7 10 7.441998 10 8 C 10 8.558 9.5579997 9 9 9 L 9 10 C 10.099 10 11 9.099 11 8 C 11 6.900998 10.099 6 9 6 z" style="marker:none" color="#bebebe" overflow="visible" fill="#2e3436"/>
</svg>
