<svg xmlns="http://www.w3.org/2000/svg" width="16" height="16">
    <path d="m 1,1.0037351 v 6 L 8.9785156,14.982251 C 9.5330771,15.536811 10.410664,15.559722 11,15.064281 V 4.9646721 L 7.0390625,1.0037341 Z m 3.5390625,2 c 0.828426,10e-7 1.4980469,0.671573 1.4980469,1.5 1e-6,0.828427 -0.6696209,1.5 -1.4980469,1.5 -0.828428,0 -1.500001,-0.671572 -1.5,-1.5 0,-0.414213 0.166054,-0.789101 0.4375,-1.060547 0.271447,-0.271447 0.648286,-0.439453 1.0625,-0.439453 z m 8.9511715,1 c -0.277,0 -0.5,0.223 -0.5,0.5 v 1 c -5.54e-4,0.276372 0.223629,0.500555 0.5,0.5 h 1 c 0.277,0 0.5,-0.223 0.5,-0.5 v -1 c 0,-0.277 -0.223,-0.5 -0.5,-0.5 z m 0,4 c -0.277,0 -0.5,0.223 -0.5,0.5 v 1 c -5.54e-4,0.276372 0.223629,0.5005539 0.5,0.4999999 h 1 c 0.277,0 0.5,-0.2229999 0.5,-0.4999999 v -1 c 0,-0.277 -0.223,-0.5 -0.5,-0.5 z m 0,3.9999999 c -0.277,0 -0.5,0.223 -0.5,0.5 v 1 c -5.54e-4,0.276372 0.223629,0.500554 0.5,0.5 h 1 c 0.277,0 0.5,-0.223 0.5,-0.5 v -1 c 0,-0.277 -0.223,-0.5 -0.5,-0.5 z" style="marker:none" color="#bebebe" overflow="visible" fill="#2e3436"/>
</svg>
