<svg xmlns="http://www.w3.org/2000/svg" width="16" height="16">
    <path d="M 7 2 A 3 3 0 0 0 7 8 A 3 3 0 0 0 7 2 z M 13.490234 4 C 13.213234 4 12.990234 4.223 12.990234 4.5 L 12.990234 5.5 C 12.98968 5.7763717 13.213863 6.0005544 13.490234 6 L 14.490234 6 C 14.767234 6 14.990234 5.777 14.990234 5.5 L 14.990234 4.5 C 14.990234 4.223 14.767234 4 14.490234 4 L 13.490234 4 z M 13.490234 8 C 13.213234 8 12.990234 8.223 12.990234 8.5 L 12.990234 9.5 C 12.98968 9.7763717 13.213863 10.000554 13.490234 10 L 14.490234 10 C 14.767234 10 14.990234 9.777 14.990234 9.5 L 14.990234 8.5 C 14.990234 8.223 14.767234 8 14.490234 8 L 13.490234 8 z M 5.5 9 A 4.49 4.49 0 0 0 1 13.5 L 1 14 C 1 15 2 15 2 15 L 11 15 L 11 9.7558594 A 4.49 4.49 0 0 0 8.5 9 L 5.5 9 z M 13.490234 12 C 13.213234 12 12.990234 12.223 12.990234 12.5 L 12.990234 13.5 C 12.98968 13.776372 13.213863 14.000554 13.490234 14 L 14.490234 14 C 14.767234 14 14.990234 13.777 14.990234 13.5 L 14.990234 12.5 C 14.990234 12.223 14.767234 12 14.490234 12 L 13.490234 12 z" style="marker:none" color="#bebebe" overflow="visible" fill="#2e3436"/>
</svg>
