<svg width="192" height="192" viewBox="0 0 192 192" fill="none" xmlns="http://www.w3.org/2000/svg">
<path d="M68.757 16.5279C69.9503 12.6112 73.219 8.81043 77.6681 9.04234C89.7701 9.00369 101.872 8.96504 113.961 9.05522C117.45 9.01657 120.68 11.3357 121.99 14.518C143.172 67.0583 164.237 119.65 185.47 172.165C187.987 177.64 181.008 184.018 175.625 181.48C172.007 179.882 170.748 175.875 169.425 172.513C149.58 123.039 129.669 73.5904 109.771 24.1422C100.497 24.1293 91.2358 24.1551 81.9745 24.1293C62.7643 71.8124 44.5141 119.869 25.3169 167.552C43.7358 167.514 62.1547 167.565 80.5736 167.527C74.7366 160.492 69.3017 153.135 63.6723 145.933C61.5061 143.318 60.0923 139.762 61.5451 136.451C70.2616 112.963 79.1857 89.5406 87.9541 66.0791C88.8232 62.9097 91.3525 60.3072 94.5953 59.5728C98.5255 58.9801 101.898 62.1624 103.156 65.6153C116.348 99.2292 129.578 132.83 142.822 166.419C144.274 170.129 146.648 174.162 144.949 178.22C143.185 180.681 140.409 183.309 137.101 182.845C134.105 181.686 131.615 179.289 130.577 176.236C119.033 146.68 107.281 117.189 95.8016 87.608C89.3809 104.499 83.3105 121.518 76.6174 138.306C84.0239 147.711 91.2617 157.258 98.6552 166.676C100.393 169.073 102.572 171.469 102.871 174.548C102.897 178.787 99.0573 183.026 94.6861 182.923C67.6933 183.039 40.7006 182.897 13.7208 183C9.75164 181.106 5.41931 177.009 7.57251 172.242C27.8981 120.307 48.3794 68.4369 68.757 16.5279Z" fill="url(#paint0_linear)"/>
<defs>
<linearGradient id="paint0_linear" x1="96.5" y1="183" x2="96.5" y2="9" gradientUnits="userSpaceOnUse">
<stop stop-color="#5570FF"/>
<stop offset="1" stop-color="#4DD3FF"/>
</linearGradient>
</defs>
</svg>
