<svg id="Capa_1" enable-background="new 0 0 512.013 512.013" height="512" viewBox="0 0 512.013 512.013" width="512" xmlns="http://www.w3.org/2000/svg" xmlns:xlink="http://www.w3.org/1999/xlink"><linearGradient id="SVGID_1_" gradientUnits="userSpaceOnUse" x1="256.007" x2="256.007" y1="512.014" y2="0"><stop offset="0" stop-color="#fd3a84"/><stop offset="1" stop-color="#ffa68d"/></linearGradient><g><g><path d="m494.426 17.587c-23.447-23.448-61.401-23.451-84.852 0-11.51 11.51-91.284 91.284-102.427 102.427h-292.147c-8.284 0-15 6.716-15 15v362c0 8.284 6.716 15 15 15h362c8.284 0 15-6.716 15-15v-292.147c10.928-10.928 91.092-91.092 102.426-102.426 23.448-23.448 23.452-61.403 0-84.854zm-132.426 464.426h-332v-332h247.148l-14.302 14.302c-46.692 46.692-83.316 103.797-106.383 165.698h-81.463c-8.284 0-15 6.716-15 15s6.716 14.99 15 14.99h91.992.01c1.656 0 3.477-.323 4.901-.815 65.785-22.755 126.574-60.8 175.795-110.021l14.302-14.3zm-35.515-254.058c-38.105 38.105-83.624 69.047-133.07 90.644 21.597-49.446 52.539-94.965 90.644-133.07l104.302-104.302 42.426 42.426c-10.852 10.852-93.976 93.976-104.302 104.302zm146.728-146.728-21.213 21.213-42.426-42.426 21.213-21.214c11.724-11.724 30.701-11.725 42.426 0s11.725 30.701 0 42.427z" fill="url(#SVGID_1_)"/></g></g></svg>