<svg id="Capa_1" enable-background="new 0 0 512 512" height="512" viewBox="0 0 512 512" width="512" xmlns="http://www.w3.org/2000/svg" xmlns:xlink="http://www.w3.org/1999/xlink"><linearGradient id="lg1"><stop offset="0" stop-color="#fd3a84"/><stop offset="1" stop-color="#ffa68d"/></linearGradient><linearGradient id="SVGID_1_" gradientUnits="userSpaceOnUse" x1="256" x2="256" xlink:href="#lg1" y1="463.129" y2="48.141"/><linearGradient id="SVGID_2_" gradientUnits="userSpaceOnUse" x1="256" x2="256" xlink:href="#lg1" y1="523.5" y2="17.61"/><linearGradient id="SVGID_4_" gradientUnits="userSpaceOnUse" x1="436" x2="436" xlink:href="#lg1" y1="613.5" y2="107.61"/><g><path d="m497 106h-111.729l-25.854-51.708c-2.541-5.082-7.735-8.292-13.417-8.292h-180c-5.682 0-10.876 3.21-13.416 8.292l-25.855 51.708h-35.729v-15c0-8.284-6.716-15-15-15s-15 6.716-15 15v15h-46c-8.284 0-15 6.716-15 15v330c0 8.284 6.716 15 15 15h482c8.284 0 15-6.716 15-15v-330c0-8.284-6.716-15-15-15zm-15 330h-452v-300h106c5.682 0 10.876-3.21 13.416-8.292l25.855-51.708h161.459l25.854 51.708c2.54 5.082 7.734 8.292 13.416 8.292h106z" fill="url(#SVGID_1_)"/><path d="m256 136c-74.439 0-135 60.561-135 135s60.561 135 135 135 135-60.561 135-135-60.561-135-135-135zm0 240c-57.897 0-105-47.103-105-105s47.103-105 105-105 105 47.103 105 105-47.103 105-105 105z" fill="url(#SVGID_2_)"/><path d="m256 196c-41.355 0-75 33.645-75 75s33.645 75 75 75 75-33.645 75-75-33.645-75-75-75zm0 120c-24.813 0-45-20.187-45-45s20.187-45 45-45 45 20.187 45 45-20.187 45-45 45z" fill="url(#SVGID_2_)"/><circle cx="436" cy="181" fill="url(#SVGID_4_)" r="15"/></g></svg>