<svg width="128" height="128" viewBox="0 0 128 128" fill="none" xmlns="http://www.w3.org/2000/svg">
<path d="M37.7499 15C31.5467 15 26.4999 20.0467 26.4999 26.2499C26.4999 28.3209 28.1789 29.9999 30.2499 29.9999C32.3209 29.9999 33.9999 28.3209 33.9999 26.2499C33.9999 24.1822 35.6822 22.5 37.7499 22.5C39.8177 22.5 41.4999 24.1822 41.4999 26.2499C41.4999 27.4552 40.9419 28.5572 39.9687 29.2737C36.2314 32.0257 33.9999 36.4367 33.9999 41.0729V41.2499C33.9999 43.3209 35.6789 44.9999 37.7499 44.9999C39.8209 44.9999 41.4999 43.3209 41.4999 41.2499V41.0729C41.4999 38.8107 42.5899 36.6574 44.4154 35.3132C47.2862 33.1999 48.9999 29.8117 48.9999 26.2499C48.9999 20.047 43.9532 15 37.7499 15ZM37.7499 52.7499C35.6789 52.7499 33.9999 54.4289 33.9999 56.4999C33.9999 58.5709 35.6789 60.2499 37.7499 60.2499C39.8209 60.2499 41.4999 58.5709 41.4999 56.4999C41.4999 54.4289 39.8212 52.7499 37.7499 52.7499ZM75.2499 37.4999C75.2499 16.8225 58.4274 0 37.7499 0C17.0675 0 0 16.784 0 37.4999C0 46.2449 3.05499 54.7889 8.47998 61.4666L1.0985 68.8484C0.026 69.9209 -0.294749 71.5339 0.285499 72.9351C0.865998 74.3364 2.23325 75.2499 3.74999 75.2499H37.7499C58.4354 75.2499 75.2499 58.2161 75.2499 37.4999ZM37.7499 67.7499H12.8035L16.2977 64.2554C17.7615 62.7916 17.762 60.4166 16.2977 58.9521C10.7067 53.3614 7.49999 45.5424 7.49999 37.4999C7.49999 20.958 21.07 7.49999 37.7499 7.49999C54.2919 7.49999 67.7499 20.958 67.7499 37.4999C67.7499 54.1799 54.2921 67.7499 37.7499 67.7499ZM120.613 115.31C125.342 109.345 128 101.766 128 93.9998C128 75.3901 112.748 60.2499 93.9998 60.2499C75.3901 60.2499 60.2499 75.3901 60.2499 93.9998C60.2499 112.748 75.3901 128 93.9998 128H124.25C125.767 128 127.134 127.086 127.714 125.685C128.294 124.284 127.974 122.671 126.901 121.598L120.613 115.31ZM112.812 118.115L115.197 120.5H93.9998C79.5256 120.5 67.7499 108.612 67.7499 94.0001C67.7499 79.5258 79.5256 67.7501 93.9998 67.7501C108.612 67.7501 120.5 79.5258 120.5 94.0001C120.5 101.069 117.698 107.926 112.811 112.812C111.347 114.276 111.347 116.65 112.812 118.115ZM97.4466 77.5229C96.8558 76.1441 95.5001 75.2499 93.9998 75.2499C92.4996 75.2499 91.1441 76.1439 90.5531 77.5226C89.4786 80.0296 80.4191 101.168 79.3031 103.773C78.4874 105.676 79.3691 107.881 81.2726 108.697C83.1768 109.513 85.3808 108.631 86.1966 106.727L88.4368 101.5H99.5628L101.803 106.727C102.619 108.631 104.823 109.513 106.727 108.697C108.631 107.881 109.513 105.676 108.697 103.773C107.581 101.171 98.5176 80.0216 97.4466 77.5229ZM91.6513 93.9998L93.9998 88.5198L96.3486 93.9998H91.6513Z" fill="url(#paint0_linear)"/>
<defs>
<linearGradient id="paint0_linear" x1="63.9999" y1="128" x2="63.9999" y2="0" gradientUnits="userSpaceOnUse">
<stop stop-color="#FD2E00"/>
<stop offset="1" stop-color="#FF9900"/>
</linearGradient>
</defs>
</svg>
