<svg width="64" height="64" viewBox="0 0 64 64" fill="none" xmlns="http://www.w3.org/2000/svg">
<path fill-rule="evenodd" clip-rule="evenodd" d="M38.5175 6.34829C38.4386 5.17466 39.4318 4.0168 40.6338 4.03255C43.3588 3.99035 46.0858 3.99839 48.8121 4.00643C49.9023 4.00965 50.9924 4.01286 52.0822 4.01286C55.7079 3.9656 58.9789 6.72636 59.838 10.196C60.0308 12.3488 60.0081 14.5098 59.9853 16.6705C59.9726 17.8656 59.96 19.0609 59.9838 20.2544L59.9848 45.2708C59.8433 45.2092 59.7001 45.1502 59.5567 45.091C58.9942 44.8588 58.4292 44.6257 57.9551 44.2429C57.7907 43.9725 57.6574 43.6574 57.5232 43.3401C57.136 42.4249 56.7406 41.4902 55.5672 41.5492C56.7395 41.4909 57.1348 42.4252 57.5218 43.34C57.6561 43.6574 57.7894 43.9725 57.9538 44.2429C58.4279 44.6257 58.992 44.8585 59.5544 45.0907C59.698 45.15 59.8415 45.2091 59.9833 45.2709C59.974 46.2248 59.9788 47.1787 59.9837 48.1326C59.9911 49.585 59.9985 51.0374 59.9557 52.4898C59.8887 54.4549 58.9273 56.2939 57.5836 57.6959C56.0978 59.0507 54.1631 59.9568 52.1257 59.9372C47.9876 59.9529 43.8457 59.945 39.7037 59.9293C39.2111 59.5039 38.7107 59.0903 38.2022 58.6808C37.7535 57.8359 36.9839 57.3581 36.2111 56.8782C35.579 56.4857 34.9447 56.0918 34.4819 55.4947C37.823 55.4581 41.1653 55.464 44.5082 55.4701C46.9105 55.4743 49.3132 55.4787 51.7158 55.4671C52.5788 55.5065 53.3787 55.1482 54.147 54.8017C54.8484 54.0376 55.4868 53.1278 55.4828 52.0486C55.5167 50.0411 55.5104 48.0322 55.5041 46.0235C55.4994 44.533 55.4948 43.0426 55.5065 41.5531L55.5078 41.5529C55.5078 40.3668 55.5062 39.1808 55.5047 37.9946C55.5008 34.9117 55.4968 31.8288 55.5195 28.7459C55.5173 27.8952 55.5135 27.0442 55.5102 26.1935C55.4963 22.6532 55.4824 19.1128 55.5428 15.5725C55.4945 14.9799 55.5025 14.3819 55.5107 13.7849C55.5234 12.87 55.5361 11.9561 55.3453 11.0625C54.967 9.62891 53.5837 8.54587 52.098 8.52224C50.1059 8.48305 48.1138 8.4914 46.1223 8.49975C44.3119 8.50734 42.5019 8.51493 40.6928 8.4868C39.546 8.49862 38.5411 7.48253 38.5175 6.34829Z" fill="url(#paint0_linear)"/>
<path d="M4.54292 9.01458C5.79614 6.13173 8.71244 3.97746 11.9125 4.01291C12.5275 4.0116 13.1426 4.00996 13.7578 4.00832C16.8365 4.00011 19.9174 3.9919 22.9983 4.02473C24.2594 3.95777 25.3511 5.16684 25.2171 6.41135C25.1777 7.58891 24.0703 8.55774 22.8998 8.49472C21.282 8.51216 19.6641 8.50566 18.0462 8.49916C16.0108 8.49098 13.9754 8.48279 11.9401 8.5223C9.86332 8.49866 8.38551 10.4794 8.45626 12.4445C8.51988 15.3578 8.51174 18.2727 8.50332 21.1877C8.49661 23.5099 8.4899 25.8324 8.5196 28.1548C8.10565 27.8435 7.66531 27.5711 7.22484 27.2985C6.88538 27.0886 6.54569 26.8784 6.2181 26.6504C5.76477 26.1844 5.38545 25.6563 5.00591 25.1279C4.69587 24.6963 4.38565 24.2644 4.03482 23.866C4.05693 22.2725 4.03979 20.6765 4.02265 19.0803C3.99091 16.1242 3.95917 13.1672 4.17669 10.2236C4.24848 9.94731 4.33462 9.67635 4.42059 9.40593C4.46202 9.27561 4.5032 9.1452 4.54292 9.01458Z" fill="url(#paint1_linear)"/>
<path fill-rule="evenodd" clip-rule="evenodd" d="M38.012 12.3782C38.9341 11.4881 40.5145 11.4212 41.5076 12.2404C42.3327 12.9243 43.1088 13.663 43.8847 14.4017C44.3909 14.8835 44.8973 15.3656 45.4171 15.8321C45.5945 16.0042 45.78 16.1719 45.9662 16.3402C46.6235 16.9344 47.2887 17.5359 47.6358 18.3645C47.7343 19.2624 47.6949 20.2509 47.0368 20.948C46.1746 21.9451 45.2669 22.9034 44.3589 23.8619L44.3583 23.8626C43.7102 24.5467 43.062 25.231 42.4303 25.9296C41.3452 27.0885 40.2633 28.25 39.1812 29.411C38.0942 30.5772 37.0071 31.7435 35.9172 32.9077L35.9181 32.9087C35.1393 33.7423 34.3618 34.5772 33.5843 35.4121L33.5832 35.4132C32.4253 36.6566 31.2674 37.9 30.1053 39.1392C29.0924 38.0246 28.0008 36.977 26.791 36.0712C27.8976 34.8893 29.0019 33.7049 30.1064 32.5202L30.1127 32.5134C30.9565 31.6084 31.8007 30.703 32.6463 29.7983L32.6452 29.7974C33.676 28.696 34.7052 27.5921 35.7346 26.488L35.7394 26.4829L35.7408 26.4815C36.9839 25.1483 38.2276 23.8143 39.4745 22.4843C40.4518 21.4367 41.4288 20.3887 42.3786 19.3175C41.6376 18.459 40.8022 17.6831 39.8958 17.0018C38.9817 17.9075 38.1108 18.8447 37.2399 19.7898C36.2707 20.8299 35.3003 21.8695 34.3293 22.909C33.0541 24.2745 31.7786 25.6402 30.5056 27.0085L30.5064 27.009C29.5225 28.0587 28.542 29.1119 27.5613 30.1654C26.4486 31.3606 25.3352 32.5565 24.2167 33.7475C23.531 32.3336 22.4669 31.16 20.9575 30.6125L21.0062 30.5604C23.0627 28.3528 25.1193 26.1454 27.1835 23.9418L27.183 23.9409C28.0962 22.9518 29.0162 21.9688 29.9363 20.9856C31.2433 19.589 32.5505 18.1922 33.8386 16.7778C34.4873 16.126 35.109 15.4477 35.7306 14.77C36.4759 13.9574 37.2212 13.1447 38.012 12.3782Z" fill="url(#paint2_linear)"/>
<path fill-rule="evenodd" clip-rule="evenodd" d="M4.035 23.8657C4.38583 24.2641 4.69605 24.696 5.00609 25.1276C5.38563 25.6561 5.76495 26.1841 6.21828 26.6501C6.54588 26.8781 6.88556 27.0883 7.22502 27.2983C7.66549 27.5708 8.10584 27.8432 8.51978 28.1546C8.49639 30.9418 8.49876 33.7292 8.50176 36.5165C8.50381 38.4233 8.50587 40.3305 8.49946 42.2374L8.50086 42.2382C8.51071 43.6002 8.50688 44.9622 8.50305 46.3241C8.49769 48.2309 8.49232 50.1378 8.5245 52.0446C8.53633 53.8523 10.1245 55.4394 11.9295 55.4473C13.9648 55.483 16.0016 55.477 18.0381 55.471C19.3723 55.4671 20.7064 55.4632 22.0399 55.471C23.5199 55.4751 24.9999 55.4718 26.4801 55.4685H26.4819C29.1475 55.4625 31.8143 55.4566 34.482 55.4945C34.9448 56.0917 35.5791 56.4855 36.2111 56.878C36.984 57.3579 37.7536 57.8357 38.2023 58.6807C38.7107 59.0902 39.2112 59.5038 39.7038 59.9291C34.9793 59.9527 30.2542 59.9448 25.5297 59.933C24.0072 59.9318 22.4848 59.9364 20.9624 59.9409C17.8069 59.9504 14.6515 59.9598 11.496 59.9174C7.46438 59.7795 3.97271 56.1011 4.03183 52.0722C4.01764 49.2389 4.02048 46.4042 4.02331 43.5698C4.0252 41.6809 4.02709 39.7921 4.02395 37.9039L4.02254 37.902C4.02385 36.3424 4.02298 34.7828 4.0221 33.2232C4.02035 30.1041 4.01924 26.9848 4.035 23.8657ZM23.3485 56.5628L23.3483 56.5618C23.0927 56.6876 22.841 56.8133 22.5855 56.9429L22.5858 56.9439C22.8413 56.8142 23.0929 56.6886 23.3485 56.5628Z" fill="url(#paint3_linear)"/>
<path d="M19.6743 31.9818C18.722 32.8891 17.7648 33.8012 17.6932 35.1611C17.4936 36.8237 17.2744 38.484 17.0551 40.1455C16.9798 40.7156 16.9045 41.2858 16.83 41.8563C16.7473 42.4234 16.7907 42.9827 16.9522 43.5379C20.0699 43.3931 23.1771 42.9436 26.2671 42.4966L26.8282 42.4155C27.6482 41.8809 28.2985 41.1339 28.9482 40.3876C29.3226 39.9575 29.6968 39.5277 30.1032 39.1388C29.0904 38.0243 27.9988 36.9767 26.7889 36.0709C26.1346 36.7759 25.4765 37.4807 24.8184 38.1857C23.8213 38.3038 22.8282 38.4141 21.8311 38.5126C21.8639 38.2776 21.8898 38.0407 21.9156 37.8037C21.9829 37.1869 22.0502 36.5692 22.241 35.9803C22.6259 35.3936 23.116 34.8905 23.6044 34.389C23.811 34.1769 24.0174 33.965 24.2154 33.7472C23.5297 32.3334 22.4657 31.1597 20.9563 30.6123C20.5981 31.1016 20.1367 31.5411 19.6743 31.9818Z" fill="url(#paint4_linear)"/>
<path d="M16.7802 49.1973C16.4138 47.7716 17.4069 46.0821 18.9792 46.1451C23.8124 46.1117 28.6467 46.1162 33.4817 46.1205C37.1898 46.1239 40.8989 46.1273 44.6073 46.1136C45.5767 46.0821 46.7196 46.1688 47.295 47.0785C48.0241 48.0355 47.6812 49.3667 46.9442 50.2174C46.0694 50.5324 45.1393 50.6663 44.2092 50.6388C40.3114 50.6169 36.4135 50.6221 32.5157 50.6272C28.0075 50.6332 23.4994 50.6392 18.9911 50.6033C18.0059 50.6663 17.3241 49.9062 16.7802 49.1973Z" fill="url(#paint5_linear)"/>
<defs>
<linearGradient id="paint0_linear" x1="32.0001" y1="59.9491" x2="32.0001" y2="4" gradientUnits="userSpaceOnUse">
<stop stop-color="#FD2E00"/>
<stop offset="1" stop-color="#FF9900"/>
</linearGradient>
<linearGradient id="paint1_linear" x1="32" y1="59.9493" x2="32" y2="4.00011" gradientUnits="userSpaceOnUse">
<stop stop-color="#FD2E00"/>
<stop offset="1" stop-color="#FF9900"/>
</linearGradient>
<linearGradient id="paint2_linear" x1="32.0002" y1="59.9494" x2="32.0002" y2="4.00023" gradientUnits="userSpaceOnUse">
<stop stop-color="#FD2E00"/>
<stop offset="1" stop-color="#FF9900"/>
</linearGradient>
<linearGradient id="paint3_linear" x1="32.0002" y1="59.949" x2="32.0002" y2="3.99983" gradientUnits="userSpaceOnUse">
<stop stop-color="#FD2E00"/>
<stop offset="1" stop-color="#FF9900"/>
</linearGradient>
<linearGradient id="paint4_linear" x1="32" y1="59.9492" x2="32" y2="4.00009" gradientUnits="userSpaceOnUse">
<stop stop-color="#FD2E00"/>
<stop offset="1" stop-color="#FF9900"/>
</linearGradient>
<linearGradient id="paint5_linear" x1="32.0001" y1="59.9493" x2="32.0001" y2="4.00009" gradientUnits="userSpaceOnUse">
<stop stop-color="#FD2E00"/>
<stop offset="1" stop-color="#FF9900"/>
</linearGradient>
</defs>
</svg>
