<svg width="128" height="128" viewBox="0 0 128 128" fill="none" xmlns="http://www.w3.org/2000/svg">
<path d="M124.25 15.25H110.362C107.483 12.9502 99.5623 7.75 86.5 7.75C75.1112 7.75 67.6562 11.7105 64 14.258C60.3438 11.7105 52.8888 7.75 41.5 7.75C28.4377 7.75 20.5175 12.9502 17.6378 15.25H3.75C1.67725 15.25 0 16.9272 0 19V109C0 111.073 1.67725 112.75 3.75 112.75H53.3908C54.9398 117.115 59.111 120.25 64 120.25C68.889 120.25 73.06 117.115 74.6093 112.75H124.25C126.323 112.75 128 111.073 128 109V19C128 16.9272 126.323 15.25 124.25 15.25ZM67.75 20.7467C70.1377 18.9635 76.334 15.25 86.5 15.25C96.747 15.25 102.904 18.9907 105.25 20.7577V87.0123C101.049 84.8735 94.8075 82.75 86.5 82.75C78.2052 82.75 71.9505 84.8667 67.75 87.0017V20.7467ZM22.75 20.7577C25.096 18.9907 31.253 15.25 41.5 15.25C51.7655 15.25 57.9237 19.0045 60.25 20.756V87.0123C56.0495 84.8735 49.8075 82.75 41.5 82.75C33.2052 82.75 26.9505 84.8667 22.75 87.0017V20.7577ZM120.5 105.25H71.5C69.4272 105.25 67.75 106.927 67.75 109C67.75 111.069 66.069 112.75 64 112.75C61.931 112.75 60.25 111.069 60.25 109C60.25 106.927 58.5728 105.25 56.5 105.25H7.5V22.75H15.25V94C15.25 95.5052 16.1617 96.8565 17.5497 97.4425C18.9377 98.032 20.5562 97.7208 21.6292 96.6735C21.9005 96.4098 28.408 90.25 41.5 90.25C54.592 90.25 61.0995 96.4097 61.3705 96.6732C62.8645 98.145 65.3188 97.9047 66.5798 96.699C66.594 96.6857 66.6155 96.6867 66.6292 96.6732C66.9005 96.4097 73.408 90.25 86.5 90.25C99.576 90.25 106.081 96.3922 106.345 96.6482C107.356 97.662 108.952 98.074 110.432 97.4617C111.844 96.8775 112.75 95.4933 112.75 94V22.75H120.5V105.25Z" fill="url(#paint0_linear)"/>
<defs>
<linearGradient id="paint0_linear" x1="64" y1="120.25" x2="64" y2="7.75" gradientUnits="userSpaceOnUse">
<stop stop-color="#FD5900"/>
<stop offset="1" stop-color="#FFDE00"/>
</linearGradient>
</defs>
</svg>
