<svg width="128" height="128" viewBox="0 0 128 128" fill="none" xmlns="http://www.w3.org/2000/svg">
<path fill-rule="evenodd" clip-rule="evenodd" d="M9.39844 9C5.31336 9 2 12.3134 2 16.3984V36.1875V40.1875V44.1875V111.555C2 115.64 5.31336 118.953 9.39844 118.953H118.602C122.687 118.953 126 115.64 126 111.555V44.1875V40.1875V36.1875V16.3984C126 12.3134 122.687 9 118.602 9H108.406H105.609H104.406H101.609H94.8125H92.0156H90.8125H88.0156H81.2188H78.4219H77.2188H74.4219H9.39844ZM118 36.1875V17H112.406V23.1953C112.406 27.2804 109.093 30.5938 105.008 30.5938C101.962 30.5938 99.3453 28.7519 98.2109 26.1216C97.0766 28.7519 94.4598 30.5938 91.4141 30.5938C88.3683 30.5938 85.7515 28.7519 84.6172 26.1216C83.4828 28.7519 80.8661 30.5938 77.8203 30.5938C73.7352 30.5938 70.4219 27.2804 70.4219 23.1953V17H10V36.1875H60H118ZM118 44.1875H60H10V110.953H118V44.1875Z" fill="url(#paint0_linear)"/>
<path d="M54.5723 97.2873L79.5724 82.2873C81.0784 81.3837 82.0001 79.7563 82.0001 78C82.0001 76.2436 81.0784 74.6163 79.5724 73.7126L54.5723 58.7126C53.0281 57.786 51.1044 57.7613 49.5363 58.6489C47.969 59.5362 47 61.1986 47 63V93C47 94.8013 47.969 96.4637 49.5366 97.351C50.3014 97.784 51.151 98 52 98C52.891 98 53.7814 97.762 54.5723 97.2873Z" stroke="url(#paint1_linear)" stroke-width="8"/>
<defs>
<linearGradient id="paint0_linear" x1="13.5349" y1="63.9765" x2="104.853" y2="63.9765" gradientUnits="userSpaceOnUse">
<stop stop-color="#5570FF"/>
<stop offset="1" stop-color="#4DD3FF"/>
</linearGradient>
<linearGradient id="paint1_linear" x1="47" y1="71.3865" x2="80.021" y2="88.1852" gradientUnits="userSpaceOnUse">
<stop stop-color="#FD5900"/>
<stop offset="1" stop-color="#FFDE00"/>
</linearGradient>
</defs>
</svg>
