<svg width="128" height="128" viewBox="0 0 128 128" fill="none" xmlns="http://www.w3.org/2000/svg">
<path d="M24.165 5.00053L24.1592 5.00056C22.6663 5.00807 21.15 5.10543 19.6404 5.40706C11.0139 7.01781 4.07753 14.9708 4.03832 23.7584L4.03831 23.7597C4.00135 35.7368 3.97175 47.7184 4.04566 59.6935C4.01736 61.8204 5.41723 63.4543 7.08434 64.2373C8.73854 65.0143 10.8761 65.0598 12.5149 63.7792C14.5147 62.4645 14.876 60.0604 14.8543 58.2785C14.867 53.339 14.8633 48.4051 14.8597 43.4724C14.8549 36.897 14.85 30.3238 14.8838 23.7422C14.9379 19.3963 19.08 15.6195 23.4955 15.6983L23.505 15.6985H23.5145C36.99 15.6831 50.4589 15.6879 63.9276 15.6928C76.0499 15.6972 88.1721 15.7016 100.299 15.6912C100.65 15.6912 100.996 15.688 101.337 15.6848C103.586 15.6642 105.601 15.6456 107.396 16.5573L107.416 16.5676L107.437 16.5769C110.679 18.0428 112.69 21.6301 112.45 25.168L112.448 25.2015V25.2351C112.442 35.4016 112.444 45.5669 112.446 55.7319C112.45 71.7039 112.453 87.6749 112.426 103.647V103.66V103.672C112.531 108.161 108.53 112.291 103.977 112.277L103.965 112.278C97.5037 112.333 91.0731 112.324 84.6368 112.316C79.063 112.309 73.4849 112.302 67.8788 112.336C65.9212 112.226 64.253 113.308 63.2998 114.758C62.3498 116.204 62.02 118.153 62.902 119.89C63.4438 121.239 64.5 122.086 65.6618 122.563C66.8122 123.036 68.1027 123.166 69.2517 123.085C74.2675 123.054 79.3008 123.064 84.3389 123.074C91.1903 123.087 98.0507 123.101 104.889 123.012H104.904L104.92 123.011C114.657 122.586 123.15 114.025 123.197 104.299V104.295C123.218 89.8072 123.213 75.3133 123.209 60.8206C123.206 48.9763 123.202 37.1328 123.212 25.294C123.963 14.6939 114.656 4.8955 103.954 5.0152C89.3249 4.99506 74.6946 4.99929 60.0663 5.00352C48.0973 5.00698 36.1296 5.01044 24.165 5.00053Z" fill="url(#paint0_linear)"/>
<path d="M11.5465 71.3276C10.5065 71.2113 9.12982 71.0573 7.851 71.5675C5.03005 72.516 3.97484 75.297 4.25775 77.7101C4.54207 80.1352 6.22603 82.593 9.24764 82.8094C26.0019 84.3275 40.7564 97.538 44.0404 113.87L44.0462 113.9L44.0538 113.928C44.214 114.535 44.3075 115.215 44.405 115.978C44.4117 116.03 44.4184 116.083 44.4252 116.136C44.5138 116.833 44.6104 117.593 44.7746 118.322C45.1309 119.906 45.8507 121.548 47.7137 122.487C49.5512 123.571 51.7431 123.375 53.4282 122.457C55.1267 121.533 56.4769 119.782 56.4489 117.595L56.4485 117.562L56.4458 117.528C55.5319 106.147 50.4535 95.169 42.5124 86.9333C34.4896 78.4257 23.4207 72.8476 11.7776 71.3534L11.768 71.3521L11.7583 71.3511C11.6894 71.3436 11.6188 71.3357 11.5465 71.3276Z" fill="url(#paint1_linear)"/>
<path d="M10.1073 88.4055C8.97165 88.3435 7.89535 88.6108 6.9193 89.202C5.27713 90.1442 4.37854 91.8378 4.19471 93.5481C4.01165 95.2513 4.52344 97.0894 5.85017 98.3726C6.54938 99.1127 7.40626 99.4986 8.20676 99.7489C8.61004 99.8749 9.01749 99.9719 9.39442 100.058C9.46451 100.074 9.53322 100.09 9.60074 100.105C9.90749 100.175 10.1898 100.239 10.4657 100.313L10.486 100.319L10.5065 100.323C18.88 102.205 25.7271 109.341 27.2964 117.688C27.6317 120.075 29.2455 122.51 31.9385 123.081C33.8772 123.578 35.8238 122.918 37.1784 121.71C38.5358 120.498 39.403 118.639 39.033 116.638C36.9553 102.351 24.6458 90.2481 10.1786 88.412L10.1431 88.4075L10.1073 88.4055Z" fill="url(#paint2_linear)"/>
<path d="M19.599 116.157C19.9749 113.413 18.6108 110.92 16.6137 109.387C14.6159 107.852 11.8455 107.169 9.26597 108.202C6.42408 109.09 4.72074 111.593 4.29451 114.206C3.86868 116.816 4.68761 119.723 7.10208 121.457C9.37815 123.434 12.4495 123.509 14.9128 122.454C17.3745 121.399 19.4388 119.126 19.599 116.157Z" fill="url(#paint3_linear)"/>
<defs>
<linearGradient id="paint0_linear" x1="63.6273" y1="122.107" x2="63.6273" y2="6" gradientUnits="userSpaceOnUse">
<stop stop-color="#FD2E00"/>
<stop offset="1" stop-color="#FF9900"/>
</linearGradient>
<linearGradient id="paint1_linear" x1="30.3309" y1="122.225" x2="30.3309" y2="72.2115" gradientUnits="userSpaceOnUse">
<stop stop-color="#FD2E00"/>
<stop offset="1" stop-color="#FF9900"/>
</linearGradient>
<linearGradient id="paint2_linear" x1="21.6384" y1="122.247" x2="21.6384" y2="89.3967" gradientUnits="userSpaceOnUse">
<stop stop-color="#FD2E00"/>
<stop offset="1" stop-color="#FF9900"/>
</linearGradient>
<linearGradient id="paint3_linear" x1="11.9236" y1="122.129" x2="11.9236" y2="108.71" gradientUnits="userSpaceOnUse">
<stop stop-color="#FD2E00"/>
<stop offset="1" stop-color="#FF9900"/>
</linearGradient>
</defs>
</svg>
