<svg id="Capa_1" enable-background="new 0 0 512.001 512.001" height="512" viewBox="0 0 512.001 512.001" width="512" xmlns="http://www.w3.org/2000/svg" xmlns:xlink="http://www.w3.org/1999/xlink"><linearGradient id="SVGID_1_" gradientUnits="userSpaceOnUse" x1="256" x2="256" y1="512.001" y2="0"><stop offset="0" stop-color="#fd3a84"/><stop offset="1" stop-color="#ffa68d"/></linearGradient><g><g><path d="m256 181c-8.291 0-15 6.709-15 15v68.789l-55.605 55.605c-5.859 5.859-5.859 15.352 0 21.211s15.351 5.859 21.211 0l60-60c2.812-2.812 4.394-6.621 4.394-10.605v-75c0-8.291-6.709-15-15-15zm229.633-154.633c-34.014-34.014-93.252-34.014-127.266 0-5.859 5.859-5.859 15.352 0 21.211l42.422 42.422-15.705 15.705c-31.946-25.003-71.23-40.894-114.084-43.945v-31.76h15c8.291 0 15-6.709 15-15s-6.709-15-15-15h-60c-8.291 0-15 6.709-15 15s6.709 15 15 15h15v31.76c-42.854 3.051-82.137 18.942-114.084 43.945l-15.705-15.705 42.422-42.422c5.859-5.859 5.859-15.352 0-21.211-34.014-34.014-93.252-34.014-127.266 0-17.006 17.007-26.367 39.595-26.367 63.633s9.36 46.626 26.367 63.633c2.93 2.93 6.768 4.395 10.605 4.395s7.676-1.465 10.605-4.395l42.423-42.422 14.619 14.619c-36.214 37.749-58.619 88.851-58.619 145.17 0 74.302 38.895 139.558 97.286 176.896l-20.704 42.395c-3.706 7.412-.703 16.421 6.709 20.127 7.487 3.718 16.439.646 20.127-6.709l20.25-41.49c26.371 11.955 55.543 18.781 86.332 18.781s59.962-6.826 86.332-18.781l20.25 41.49c3.691 7.361 12.647 10.423 20.127 6.709 7.412-3.706 10.415-12.715 6.709-20.127l-20.704-42.395c58.391-37.338 97.286-102.594 97.286-176.896 0-56.319-22.405-107.421-58.619-145.17l14.619-14.619 42.422 42.422c2.93 2.93 6.768 4.395 10.605 4.395s7.676-1.465 10.605-4.395c17.008-17.007 26.368-39.595 26.368-63.633s-9.36-46.626-26.367-63.633zm-447.327 94.116c-5.42-9.14-8.306-19.585-8.306-30.483 0-16.025 6.24-31.084 17.578-42.422s26.397-17.578 42.422-17.578c10.898 0 21.343 2.886 30.483 8.306zm397.694 150.517c0 99.258-80.742 180-180 180s-180-80.742-180-180 80.743-180 180-180 180 80.742 180 180zm37.695-150.517-82.178-82.178c22.603-13.374 53.862-9.771 72.905 9.272 11.338 11.339 17.578 26.398 17.578 42.423 0 10.898-2.885 21.343-8.305 30.483zm-217.695.517c-82.705 0-150 67.295-150 150s67.295 150 150 150 150-67.295 150-150-67.295-150-150-150zm0 270c-66.167 0-120-53.833-120-120s53.833-120 120-120 120 53.833 120 120-53.833 120-120 120z" fill="url(#SVGID_1_)"/></g></g></svg>