<svg width="128" height="128" viewBox="0 0 128 128" fill="none" xmlns="http://www.w3.org/2000/svg">
<path d="M57.3 12.64C59.3933 8.6 65.1466 7.30667 68.8933 9.76667C70.2666 10.7 71.2733 12.0933 71.9333 13.6C69.8666 15.6 67.9466 17.84 66.94 20.58L66.78 20.9467C66.36 19.9667 65.84 19.04 65.4133 18.0667C65.1266 17.3867 64.8 16.7267 64.42 16.0933C59.5066 25.1533 55.2133 34.5867 50.46 43.7533C49.28 45.9267 46.9866 47.3533 44.56 47.6867C39.5133 48.42 34.4666 49.1267 29.4266 49.84C30.6466 46.62 33.02 44.08 34.8933 41.2533C37.7 40.8 40.5333 40.5133 43.3266 40.0133C44.0466 39.5133 44.3066 38.64 44.7133 37.9133C48.92 29.4933 53.0466 21.0333 57.3 12.64Z" fill="#B21BDF"/>
<path d="M66.94 20.58C67.9467 17.84 69.8667 15.6 71.9334 13.6C73.96 17.7933 76.1067 21.9333 78 26.18C76.0334 28.36 74.2334 30.7067 72.9 33.3333C70.8667 29.2733 68.9267 25.1667 66.8734 21.12L66.94 20.58Z" fill="#B91DDA"/>
<path opacity="0.3" d="M50.46 43.7533C55.2133 34.5867 59.5066 25.1533 64.42 16.0933C64.8 16.7267 65.1266 17.3867 65.4133 18.0667C63.3333 19.9667 62.52 22.7267 61.2333 25.1467C58.1066 31.3533 55.02 37.5867 51.9266 43.8133C50.94 45.8733 49.4066 47.8867 47.1466 48.6067C45.0933 49.2667 42.94 49.6267 40.78 49.7533C35.2 50.68 29.5666 51.28 23.9866 52.24C21.3333 52.42 18.6333 52.7533 16.1666 53.8133C15.5866 53.2733 15.08 52.66 14.6266 52.02C19.5333 51.16 24.4933 50.6 29.4266 49.84C34.4666 49.1267 39.5133 48.42 44.56 47.6867C46.9866 47.3533 49.28 45.9267 50.46 43.7533Z" fill="black"/>
<path d="M78 26.18L78.0667 26.1067C79.9934 30.1267 81.9667 34.1133 83.9 38.1333C84.1934 38.8733 84.72 39.4667 85.2267 40.0733C83.7267 42.2267 82.2467 44.4 81.02 46.7267C79.8067 46.0533 78.8667 45 78.0667 43.8867C76.26 40.4133 74.5934 36.8667 72.9 33.3333C74.2334 30.7067 76.0334 28.36 78 26.18Z" fill="#C220D4"/>
<path d="M81.02 46.7267C82.2467 44.4 83.7267 42.2267 85.2267 40.0733C90.4 41.1067 95.6734 41.6133 100.88 42.5C99.3267 44.9333 97.7067 47.32 95.9267 49.5933C90.9867 48.54 85.6734 48.7933 81.02 46.7267Z" fill="#CB23CE"/>
<path d="M12.9866 44.4533C20.24 43.1267 27.5933 42.3333 34.8933 41.2533C33.02 44.08 30.6466 46.62 29.4266 49.84C24.4933 50.6 19.5333 51.16 14.6266 52.02C15.08 52.66 15.5866 53.2733 16.1666 53.8133C18.0866 55.7467 20.0866 57.6 22.0266 59.52C20.16 61.4333 18.5866 63.6067 17.4333 66.02C14.44 63.02 11.2733 60.1867 8.44664 57.0333C4.98664 52.7467 7.49331 45.4533 12.9866 44.4533Z" fill="#A918E6"/>
<path d="M100.88 42.5C105.513 43.2 110.16 43.8667 114.793 44.6C117.473 44.9933 119.96 46.7267 120.953 49.2933C121.613 51.1733 121.92 53.2933 121.2 55.2133C120.373 57.7 118.173 59.2867 116.427 61.1C110.247 67.26 103.867 73.2267 97.64 79.3333C97.5733 81.6867 98.3333 83.9933 98.6067 86.3267C95.6867 88.2533 94.1333 91.4867 92.0867 94.2133C91.3133 89.9267 90.6333 85.62 89.9 81.3267C89.3867 78.58 90.0667 75.4933 92.1733 73.5533C98.6667 67.0467 105.367 60.7467 111.987 54.3667C112.64 53.7667 113.26 53.1267 113.84 52.4467C107.933 51.2067 101.887 50.58 95.9267 49.5933C97.7067 47.32 99.3267 44.9333 100.88 42.5Z" fill="#DA27C4"/>
<path opacity="0.23" d="M78.0667 43.8867C78.8667 45 79.8067 46.0533 81.02 46.7267C85.6733 48.7933 90.9866 48.54 95.9266 49.5933C101.887 50.58 107.933 51.2067 113.84 52.4467C113.26 53.1267 112.64 53.7667 111.987 54.3667C111.287 54 110.58 53.6667 109.853 53.3667C101.54 52.0133 93.1266 50.9267 84.7933 49.5867C81.84 49.0533 78.4267 47.1467 78.0667 43.8867Z" fill="black"/>
<path opacity="0.24" d="M120.953 49.2933C122.967 50.6267 122.333 53.3 122.413 55.3533C122.533 57.94 120.327 59.6667 118.72 61.36C113.993 65.96 109.353 70.6533 104.607 75.24C102.733 77.04 100.533 78.5267 98.9867 80.64C98.56 83.76 99.6467 86.8 100.073 89.86C101.173 97.04 102.66 104.167 103.633 111.353C104.407 117.02 98.06 121.927 92.7734 119.893C88.5 118.147 84.5 115.773 80.42 113.627C78.92 112.693 76.8134 111.9 76.7467 109.833C79.2134 112.04 82.48 113.113 85.28 114.833C88.5134 116.327 91.5667 118.9 95.3334 118.613C99.56 118.313 103.067 114.233 102.56 109.98C101.367 102.08 99.9134 94.2133 98.6067 86.3267C98.3334 83.9933 97.5734 81.6867 97.64 79.3333C103.867 73.2267 110.247 67.26 116.427 61.1C118.173 59.2867 120.373 57.7 121.2 55.2133C121.92 53.2933 121.613 51.1733 120.953 49.2933Z" fill="black"/>
<path d="M17.4333 66.02C18.5867 63.6067 20.16 61.4333 22.0267 59.52C25.38 62.8333 28.6934 66.1867 32.1 69.4467C30.62 71.66 29.0867 73.8333 27.6467 76.0733C24.22 72.74 20.82 69.3867 17.4333 66.02Z" fill="#B21BE0"/>
<path d="M32.1 69.4467C34.38 71.8333 37.56 73.8 38.34 77.2267C38.8667 79.5933 38.1867 81.9667 37.8133 84.3C36.32 93.06 34.6867 101.807 33.2867 110.58C31.6133 112.52 30.02 114.52 28.42 116.52C27.8733 116.027 27.3667 115.493 26.9067 114.927C25.7667 113.353 25.3067 111.333 25.6067 109.42C27.2867 99.5467 28.9867 89.6733 30.7667 79.82C30.3933 78.1467 28.6467 77.34 27.6467 76.0733C29.0867 73.8333 30.62 71.66 32.1 69.4467Z" fill="#BF1FD7"/>
<path d="M50.5 101.793C52.2733 100.973 54.54 102.18 54.9333 104.073C55.6 105.753 55.3666 108 53.6066 108.9C48.3533 111.68 43.12 114.493 37.86 117.247C34.9066 118.76 31.0066 118.767 28.42 116.52C30.02 114.52 31.6133 112.52 33.2866 110.58C33.8533 110.34 34.4466 110.14 34.9866 109.84C40.1266 107.107 45.2333 104.293 50.5 101.793Z" fill="#CB22CE"/>
<path opacity="0.24" d="M54.9333 104.073C56.8933 104.733 56.2733 107.28 56.1133 108.86C54.32 111.393 51.08 112.207 48.5267 113.753C43.78 115.967 39.48 119.48 34.16 120.193C31.1667 119.887 27.2733 118.287 26.9067 114.927C27.3667 115.493 27.8733 116.027 28.42 116.52C31.0067 118.767 34.9067 118.76 37.86 117.247C43.12 114.493 48.3533 111.68 53.6067 108.9C55.3667 108 55.6 105.753 54.9333 104.073Z" fill="black"/>
<path opacity="0.22" d="M38.34 77.2267C39.54 77.5733 39.06 79.0733 39.26 79.9867C39.28 82.0333 39.1333 84.0867 38.8467 86.1133C37.54 92.9533 36.4867 99.8333 35.1733 106.673C34.9933 107.72 35.0267 108.78 34.9867 109.84C34.4467 110.14 33.8533 110.34 33.2867 110.58C34.6867 101.807 36.32 93.06 37.8133 84.3C38.1867 81.9667 38.8667 79.5933 38.34 77.2267Z" fill="black"/>
<path d="M92.0867 94.2133C94.1334 91.4867 95.6867 88.2533 98.6067 86.3267C99.9134 94.2133 101.367 102.08 102.56 109.98C103.067 114.233 99.56 118.313 95.3334 118.613C91.5667 118.9 88.5134 116.327 85.28 114.833C82.48 113.113 79.2134 112.04 76.7467 109.833C74.5534 106.993 77.62 102.52 81.06 103.68C85.7267 105.82 90.0667 108.653 94.7667 110.707C94.0267 105.187 92.9134 99.72 92.0867 94.2133Z" fill="#E22ABE"/>
</svg>
