<svg width="64" height="64" viewBox="0 0 64 64" fill="none" xmlns="http://www.w3.org/2000/svg">
<path d="M27.5417 1.8232C34.2373 0.838077 41.2575 2.11639 47.1284 5.50177C53.5466 9.14515 58.5537 15.2005 60.9067 22.198C63.8617 30.81 62.7008 40.7277 57.7641 48.3858C57.1309 49.2771 56.6227 50.4577 55.4892 50.8017C54.168 51.2239 52.6593 50.1723 52.5967 48.7924C52.4951 48.0066 52.9837 47.342 53.3941 46.7322C57.0683 41.4782 58.6397 34.8169 57.7328 28.4723C57.0644 23.5428 54.9224 18.8244 51.6664 15.0676C47.6873 10.4274 42.0236 7.26091 35.9767 6.35006C30.5279 5.4744 24.8055 6.4517 19.9313 9.03178C13.8884 12.1904 9.20574 17.8197 7.20055 24.3403C4.84748 31.8029 6.11001 40.3133 10.6207 46.7205C11.1171 47.4437 11.7699 48.2216 11.5901 49.1716C11.4806 50.4421 10.1438 51.3803 8.90476 51.091C7.82595 50.9268 7.27872 49.8752 6.70414 49.0699C2.94002 43.5188 1.1029 36.6973 1.57195 30.0086C1.98237 23.1479 4.83967 16.4788 9.48717 11.4242C14.1659 6.27579 20.6545 2.81223 27.5417 1.8232Z" fill="url(#paint0_linear)"/>
<path d="M29.9417 15.7752C30.5632 13.9144 33.53 13.93 34.128 15.7986C36.4889 22.37 38.838 28.9531 41.1364 35.5519C41.6641 36.9044 40.5305 38.5385 39.0765 38.4955C36.5866 38.558 34.0928 38.7965 31.599 38.7144C29.6446 38.3665 29.1873 35.4268 30.9658 34.5237C32.4941 33.91 34.2218 34.2775 35.8283 34.0898C34.515 30.4191 33.1938 26.7483 31.9234 23.0619C27.8896 33.1985 23.8636 43.339 19.8297 53.4756C19.6851 53.8861 19.5483 54.3004 19.4154 54.7148C26.6701 58.8273 35.9182 59.0423 43.3918 55.3676C42.2191 51.6969 40.6713 48.1512 39.4205 44.5079C38.9045 43.1787 39.995 41.6072 41.4022 41.5603C42.481 41.4587 43.4856 42.2327 43.7787 43.2569C45.2992 47.3147 46.8315 51.3685 48.3441 55.4302C48.7702 56.3606 48.52 57.5881 47.6562 58.1745C37.9039 64.2142 24.6532 63.921 15.1783 57.4474C14.2949 56.8532 14.0213 55.6022 14.4787 54.6601C19.6226 41.6932 24.7665 28.7264 29.9417 15.7752Z" fill="url(#paint1_linear)"/>
<defs>
<linearGradient id="paint0_linear" x1="32.007" y1="51.1437" x2="32.007" y2="1.5" gradientUnits="userSpaceOnUse">
<stop stop-color="#5570FF"/>
<stop offset="1" stop-color="#4DD3FF"/>
</linearGradient>
<linearGradient id="paint1_linear" x1="31.4038" y1="62.5112" x2="31.4038" y2="14.3883" gradientUnits="userSpaceOnUse">
<stop stop-color="#5570FF"/>
<stop offset="1" stop-color="#4DD3FF"/>
</linearGradient>
</defs>
</svg>
