<svg width="128" height="128" viewBox="0 0 128 128" fill="none" xmlns="http://www.w3.org/2000/svg">
<path d="M40.5408 66.9826C38.8841 66.3736 36.9829 67.1091 36.3164 68.6232L28.147 87.116C27.4805 88.6245 28.293 90.3371 29.9592 90.9405C31.5935 91.5372 33.5099 90.8284 34.1836 89.2998L42.353 70.807C43.0194 69.2984 42.2069 67.586 40.5408 66.9826V66.9826ZM48.6435 66.3302C47.374 65.1809 45.3172 65.1809 44.0477 66.3302C42.7783 67.4795 42.7783 69.3416 44.0477 70.4908L54.3563 79.8234C55.626 80.9727 57.6826 80.9727 58.952 79.8234C60.2215 78.6742 60.2215 76.8121 58.952 75.6628L48.6435 66.3302ZM98.9487 51.8947L87.25 37.7692C86.171 36.4648 84.1332 36.2033 82.7019 37.1802C81.9785 37.6704 81.5458 38.381 81.4312 39.1317C81.0884 38.4413 80.4545 37.8699 79.6105 37.5825C77.9188 37.0136 76.0559 37.7808 75.4243 39.3035L60.4882 75.3584C59.8599 76.8813 60.7103 78.5765 62.3892 79.1483C64.097 79.7199 65.9532 78.9307 66.5754 77.4272L81.5116 41.3724C81.5982 41.1621 81.6541 40.9487 81.6862 40.7355C81.7833 40.9304 81.9031 41.1195 82.0511 41.2978L93.75 55.4231C94.8227 56.723 96.8594 56.989 98.298 56.0121C99.7358 55.038 100.028 53.1934 98.9487 51.8947V51.8947Z" fill="url(#paint0_linear)"/>
<path d="M28.75 102.5C34.1264 102.5 38.5 98.5404 38.5 93.6731C38.5 88.8057 34.1264 84.8462 28.75 84.8462C23.3736 84.8462 19 88.8057 19 93.6731C19 98.5404 23.3736 102.5 28.75 102.5ZM41.75 73.0769C47.1264 73.0769 51.5 69.1174 51.5 64.25C51.5 59.3826 47.1264 55.4231 41.75 55.4231C36.3736 55.4231 32 59.3826 32 64.25C32 69.1174 36.3736 73.0769 41.75 73.0769ZM61.25 90.7308C66.6264 90.7308 71 86.7712 71 81.9038C71 77.0365 66.6264 73.0769 61.25 73.0769C55.8736 73.0769 51.5 77.0365 51.5 81.9038C51.5 86.7712 55.8736 90.7308 61.25 90.7308ZM80.75 43.6538C86.1264 43.6538 90.5 39.6943 90.5 34.8269C90.5 29.9596 86.1264 26 80.75 26C75.3736 26 71 29.9596 71 34.8269C71 39.6943 75.3736 43.6538 80.75 43.6538ZM100.25 67.1923C105.626 67.1923 110 63.2327 110 58.3654C110 53.498 105.626 49.5385 100.25 49.5385C94.8736 49.5385 90.5 53.498 90.5 58.3654C90.5 63.2327 94.8736 67.1923 100.25 67.1923Z" fill="url(#paint1_linear)"/>
<rect x="6" y="10" width="116" height="108" rx="7" stroke="url(#paint2_linear)" stroke-width="12" stroke-linecap="round"/>
<defs>
<linearGradient id="paint0_linear" x1="63.757" y1="91.1513" x2="63.757" y2="36.5896" gradientUnits="userSpaceOnUse">
<stop stop-color="#FFBEF9"/>
<stop offset="1" stop-color="#FFF1FF"/>
</linearGradient>
<linearGradient id="paint1_linear" x1="54.5333" y1="120.35" x2="54.5333" y2="19.9192" gradientUnits="userSpaceOnUse">
<stop stop-color="#A93AFF"/>
<stop offset="1" stop-color="#FF81FF"/>
</linearGradient>
<linearGradient id="paint2_linear" x1="64" y1="124" x2="64" y2="4" gradientUnits="userSpaceOnUse">
<stop stop-color="#A93AFF"/>
<stop offset="1" stop-color="#FF81FF"/>
</linearGradient>
</defs>
</svg>
