<svg width="128" height="128" viewBox="0 0 128 128" fill="none" xmlns="http://www.w3.org/2000/svg">
<g clip-path="url(#clip0)">
<path d="M102.5 -0.894544V-1H101.5H26.5C23.8767 -1 21.75 1.12672 21.75 3.75V41.25C21.75 62.9426 38.1806 80.863 59.25 83.2314V119.5H41.5C38.8767 119.5 36.75 121.627 36.75 124.25C36.75 126.873 38.8767 129 41.5 129H86.5C89.1233 129 91.25 126.873 91.25 124.25C91.25 121.627 89.1233 119.5 86.5 119.5H68.75V83.2314C89.8194 80.863 106.25 62.9426 106.25 41.25V3.75C106.25 1.46976 104.643 -0.435299 102.5 -0.894544ZM67.4238 8.5H96.75V41.25C96.75 59.3075 82.0575 74 64 74C45.9425 74 31.25 59.3075 31.25 41.25V8.5H57.4096L51.9936 24.7478L51.9935 24.748C51.511 26.1965 51.7538 27.7887 52.6465 29.0272C53.5391 30.2656 54.9729 31 56.5 31H64.9096L59.4936 47.2477C59.4936 47.2477 59.4936 47.2478 59.4936 47.2478C58.6639 49.7365 60.0092 52.4265 62.4977 53.2562L62.4979 53.2562C64.987 54.0855 67.6765 52.7407 68.5062 50.252L68.5062 50.252L76.0062 27.752L76.0062 27.7518C76.4888 26.3033 76.246 24.7111 75.3532 23.4725C74.4606 22.2341 73.027 21.5 71.5 21.5H63.0904L67.4238 8.5Z" fill="url(#paint0_linear)" stroke="url(#paint1_linear)" stroke-width="2"/>
</g>
<defs>
<linearGradient id="paint0_linear" x1="64" y1="128" x2="64" y2="0" gradientUnits="userSpaceOnUse">
<stop stop-color="#FD3A84"/>
<stop offset="1" stop-color="#FFA68D"/>
</linearGradient>
<linearGradient id="paint1_linear" x1="64" y1="128" x2="64" y2="0" gradientUnits="userSpaceOnUse">
<stop stop-color="#FD3A84"/>
<stop offset="1" stop-color="#FFA68D"/>
</linearGradient>
<clipPath id="clip0">
<rect width="128" height="128" fill="white"/>
</clipPath>
</defs>
</svg>
