<svg width="192" height="192" viewBox="0 0 192 192" fill="none" xmlns="http://www.w3.org/2000/svg">
<path d="M71.6873 9.37548C76.1368 7.64645 81.1105 12.1894 79.9953 16.8566C79.5715 19.7949 76.9286 21.6369 74.2633 22.2923C55.35 28.0445 39.0462 41.9106 30.069 59.732C22.4747 74.5926 20.0436 92.0863 23.2999 108.495C26.5562 125.627 36.0463 141.403 49.4507 152.32C61.6284 162.378 77.0735 168.243 92.764 168.909C107.897 169.599 123.219 165.463 135.955 157.134C150.151 147.946 161.124 133.741 166.365 117.502C172.309 99.4658 171.105 79.1355 163.009 61.9696C154.69 44.0012 139.033 29.6831 120.51 23.1964C117.699 22.4392 115.056 20.2356 114.9 17.1053C114.276 12.4606 119.439 8.52792 123.677 10.4039C138.854 15.5005 152.548 24.9932 162.797 37.4242C174.361 51.3016 181.443 68.9309 182.792 87.0461C184.242 105.376 179.87 124.147 170.358 139.821C160.009 157.044 143.672 170.48 124.859 177.091C106.336 183.691 85.6158 183.68 67.0927 177.057C48.0568 170.345 31.5634 156.625 21.248 139.086C12.2263 123.864 7.98861 105.828 9.20415 88.1197C10.3305 69.1117 17.8802 50.567 30.2474 36.2376C41.1092 23.4789 55.6957 14.0088 71.6873 9.37548Z" fill="url(#paint0_linear)"/>
<path d="M68.1187 57.6414C71.0851 53.9008 76.3264 55.5281 80.4079 55.1891C89.0393 55.6072 97.8604 54.1946 106.336 56.2514C116.785 59.2122 124.769 69.3151 125.171 80.3334C125.45 92.7531 125.305 105.184 125.115 117.604C124.87 124.621 119.45 130.939 112.714 132.362C106.826 133.176 100.849 132.543 94.9163 132.747C88.203 132.973 81.4004 130.803 76.226 126.418C68.4867 120.101 64.7397 109.286 66.8363 99.4319C68.8547 88.7978 77.6423 79.904 88.1584 77.8925C95.9311 76.672 103.849 77.6099 111.677 77.2596C109.614 72.5472 105.31 68.6936 100.08 68.3546C90.9351 68.0494 81.7684 68.4676 72.624 68.185C67.6615 68.1285 64.8512 61.3819 68.1187 57.6414ZM79.3819 102.743C78.1999 109.309 82.2145 116.293 88.3591 118.621C93.6562 120.542 99.4327 119.333 104.931 119.694C107.295 119.457 110.618 120.485 112.001 117.864C112.781 108.732 111.376 99.5336 112.246 90.3912C105.7 90.7415 99.1428 90.2443 92.5967 90.5155C86.0841 90.7867 80.3187 96.245 79.3819 102.743Z" fill="url(#paint1_linear)"/>
<defs>
<linearGradient id="paint0_linear" x1="9.0255" y1="92.9525" x2="183.093" y2="92.9525" gradientUnits="userSpaceOnUse">
<stop stop-color="#A93AFF"/>
<stop offset="1" stop-color="#FF81FF"/>
</linearGradient>
<linearGradient id="paint1_linear" x1="66.2696" y1="92.7942" x2="125.336" y2="92.7942" gradientUnits="userSpaceOnUse">
<stop stop-color="#A93AFF"/>
<stop offset="1" stop-color="#FF81FF"/>
</linearGradient>
</defs>
</svg>
