<svg width="192" height="192" viewBox="0 0 192 192" fill="none" xmlns="http://www.w3.org/2000/svg">
<path d="M176.239 12.3626C179.988 11.1257 184.513 13.1552 185.529 16.9019C186.958 20.9608 183.586 25.284 179.298 25.7763C143.582 34.2425 107.904 42.9248 72.1377 51.2348C104.958 51.3429 137.778 51.2468 170.598 51.3069C181.617 51.0427 191.722 60.1813 191.922 70.761C192.06 100.026 191.972 129.292 191.972 158.557C192.135 166.843 186.381 174.793 178.295 177.675C173.883 179.392 169.018 179.044 164.367 179.068C116.729 179.02 69.0913 179.104 21.4532 179.032C13.2921 179.14 5.43181 174.276 2.05953 167.179C-0.0967165 163.036 0.0411828 158.269 0.0537191 153.765C0.179082 133.687 -0.0841801 113.608 0.179083 93.5415C0.166547 88.9902 5.83297 85.8079 10.0452 87.7774C12.9536 88.8942 14.5708 91.9444 14.3326 94.8625C14.4078 116.07 14.2699 137.265 14.3953 158.461C14.1822 162.64 18.4195 165.846 22.6066 165.378C71.5234 165.378 120.44 165.378 169.344 165.378C173.544 165.846 177.844 162.7 177.669 158.485C177.731 129.688 177.731 100.867 177.669 72.0699C177.869 68.4073 174.56 64.9368 170.673 65.0929C115.889 64.9728 61.0931 65.1049 6.30935 65.0208C2.71142 65.4651 -0.748607 62.3909 0.141473 58.8483C0.442345 55.7021 3.27556 53.3604 6.42218 52.88C63.0237 39.3702 119.625 25.8484 176.239 12.3626Z" fill="url(#paint0_linear)"/>
<path d="M52.4108 84.2443C66.0386 83.9903 79.6811 84.1976 93.3089 84.1441L92.5238 84.4115C87.7837 84.6722 83.0288 84.4516 78.3036 84.8862C80.4958 87.2194 83.0066 89.2986 85.073 91.7322C76.6667 91.7322 68.2605 91.7389 59.8468 91.7322C57.5805 89.0646 54.8623 86.7581 52.4108 84.2443Z" fill="#FE4C98"/>
<path d="M93.3089 84.1439C102.078 84.1105 110.847 84.1305 119.616 84.1506C120.513 84.0904 121.438 84.7322 121.416 85.5813C121.394 90.7894 121.564 96.0108 121.335 101.205C125.586 99.3335 129.615 97.1741 133.859 95.3021C135.888 97.1808 137.881 99.0795 139.902 100.958C133.896 104.221 127.415 106.795 121.461 110.131C121.12 110.639 120.787 111.147 120.446 111.655C118.224 109.262 116.002 106.828 113.054 105.13C113.017 100.671 113.069 96.218 113.032 91.7588C110.381 91.6986 107.737 91.7654 105.085 91.732C103.167 89.3052 101.115 86.8582 98.3674 85.1467C96.4862 84.6119 94.4717 84.6186 92.5238 84.4113L93.3089 84.1439Z" fill="#E34CA8"/>
<path d="M41.3234 90.6158C43.6565 87.0925 47.9003 84.679 52.4108 84.2444C54.8623 86.7582 57.5805 89.0647 59.8468 91.7322C55.5808 91.5985 49.7445 91.1239 47.8781 95.5831C45.8636 93.7513 43.6491 92.1133 41.3234 90.6158Z" fill="#FF508E"/>
<path d="M78.3036 84.8862C83.0288 84.4516 87.7837 84.6722 92.5238 84.4115C94.4717 84.6188 96.4862 84.6121 98.3675 85.1469C101.115 86.8584 103.167 89.3053 105.085 91.7322C98.4119 91.7322 91.7461 91.7456 85.073 91.7322C83.0066 89.2987 80.4958 87.2194 78.3036 84.8862Z" fill="#F14CA1"/>
<path d="M147.568 88.6435C150.508 87.2863 154.227 89.8937 153.96 92.715C153.945 101.928 153.989 111.134 153.952 120.346C151.034 117.986 148.079 115.667 145.198 113.273C145.191 108.359 145.154 103.439 145.213 98.5314C143.324 99.1131 141.85 100.524 139.903 100.958C137.881 99.0797 135.888 97.181 133.859 95.3023C138.347 92.9691 143.028 90.9099 147.568 88.6435Z" fill="#CD4CB1"/>
<path d="M41.2716 90.5823L41.3235 90.6157C43.6491 92.1133 45.8636 93.7512 47.8781 95.5831C47.0856 97.6823 47.5374 99.9287 47.4189 102.102C47.5152 115.453 47.2115 128.817 47.5744 142.161C47.3374 140.671 47.2412 139.166 47.1078 137.669C47.4337 132.788 47.0708 127.915 46.7968 123.041C46.782 118.581 47.2338 114.062 46.5376 109.636C44.7674 106.728 41.9382 104.448 39.0349 102.463C38.9534 98.4311 38.7312 94.1123 41.2716 90.5823Z" fill="#FF5585"/>
<path d="M39.0349 102.463C41.9382 104.448 44.7674 106.728 46.5375 109.636C47.2337 114.062 46.7819 118.581 46.7968 123.041C44.3526 120.754 41.8123 118.548 39.0349 116.596C39.02 111.883 39.0126 107.169 39.0349 102.463Z" fill="#FF5B7C"/>
<path d="M63.8019 107.697C65.4387 103.546 71.3268 101.44 75.6373 103.572C81.118 106.407 86.5543 109.322 92.0202 112.19C93.894 113.106 95.3753 114.63 96.1085 116.435C97.4047 119.678 96.1382 123.616 92.946 125.554C90.576 126.912 88.1171 128.128 85.71 129.419C84.1472 128.021 82.5623 126.651 80.9106 125.347C83.6436 123.896 86.3988 122.466 89.1243 121.002C90.6723 120.36 90.8204 118.14 89.3021 117.391C83.8213 114.45 78.3184 111.542 72.7784 108.68C71.4527 107.925 69.5566 108.968 69.4974 110.338C69.4159 111.869 69.4826 113.393 69.4603 114.918C67.1347 113.347 64.8832 111.615 63.3279 109.369C63.4464 108.948 63.6834 108.112 63.8019 107.697Z" fill="#FF4E92"/>
<path d="M113.054 105.13C116.002 106.828 118.224 109.262 120.446 111.655C120.787 111.147 121.12 110.639 121.461 110.131C121.327 119.063 121.631 128.008 121.305 136.933C120.831 133.972 121.075 130.936 120.446 128.001C118.957 125.193 115.898 123.495 113.054 121.944C113.047 116.342 113.04 110.739 113.054 105.13Z" fill="#F54C9F"/>
<path opacity="0.09" d="M62.9501 107.757L63.8018 107.697C63.6833 108.112 63.4463 108.948 63.3278 109.369C63.2093 115.84 63.2167 122.325 63.3204 128.797C63.8167 133.671 70.1121 137.014 75.067 134.954C78.6813 133.23 82.1549 131.257 85.71 129.419C88.117 128.128 90.576 126.912 92.946 125.554C96.1382 123.616 97.4047 119.678 96.1085 116.435C97.4269 115.981 97.4417 117.645 97.7602 118.354C98.5897 121.984 96.2863 125.635 92.9756 127.594C89.0873 129.94 84.873 131.799 80.9254 134.059C77.8296 135.663 74.5559 137.689 70.8009 137.341C66.957 136.913 63.3649 134.366 62.365 130.93C60.9282 125.862 62.2169 120.647 61.891 115.506C62.0391 112.932 61.4096 110.077 62.9501 107.757Z" fill="black"/>
<path opacity="0.11" d="M69.4974 110.338C69.5566 108.968 71.4527 107.925 72.7784 108.68C78.3184 111.542 83.8213 114.45 89.3021 117.391C90.8204 118.14 90.6722 120.36 89.1243 121.002C87.4282 116.937 82.4734 115.7 78.822 113.487C76.4372 112.357 73.9708 110.325 71.0897 111.127C70.6009 113.895 70.912 116.716 70.749 119.511C70.6157 122.439 70.1121 125.468 71.112 128.322C71.9489 128.643 72.808 128.924 73.682 129.171C72.297 130.402 69.6159 129.827 69.4974 127.948C69.4233 123.602 69.4974 119.263 69.4603 114.918C69.4826 113.393 69.4159 111.869 69.4974 110.338Z" fill="black"/>
<path opacity="0.11" d="M94.6272 154.47C100.767 154.77 107.329 154.269 112.38 150.759C112.558 152.471 110.677 153.173 109.27 153.781C105.722 155.085 101.9 155.9 98.0564 155.94C83.7473 155.927 69.4381 155.927 55.129 155.934C51.4998 155.8 47.7003 154.904 44.8341 152.825C44.7674 152.464 44.6341 151.755 44.56 151.401C50.0926 155.733 57.7656 154.209 64.4388 154.47C74.5041 154.476 84.562 154.476 94.6272 154.47Z" fill="black"/>
<path d="M63.3278 109.369C64.8832 111.615 67.1347 113.347 69.4603 114.918C69.4973 119.263 69.4233 123.602 69.4973 127.948C69.6158 129.827 72.297 130.402 73.682 129.171C76.0816 127.881 78.4961 126.618 80.9106 125.347C82.5622 126.651 84.1472 128.021 85.7099 129.419C82.1549 131.257 78.6813 133.23 75.067 134.954C70.1121 137.014 63.8166 133.671 63.3204 128.797C63.2167 122.325 63.2093 115.84 63.3278 109.369Z" fill="#FF5683"/>
<path d="M145.198 113.273C148.079 115.667 151.034 117.986 153.952 120.346C153.967 124.217 153.975 128.088 153.952 131.959C150.508 130.007 148.22 126.912 145.198 124.525C145.176 120.774 145.183 117.024 145.198 113.273Z" fill="#E24CA9"/>
<path d="M39.0349 116.596C41.8123 118.548 44.3526 120.754 46.7968 123.041C47.0708 127.915 47.4337 132.788 47.1078 137.669C44.4637 135.536 41.7604 133.457 39.0349 131.404C39.02 126.47 39.0126 121.536 39.0349 116.596Z" fill="#FF6171"/>
<path d="M113.054 121.944C115.898 123.495 118.957 125.194 120.446 128.001C121.075 130.936 120.831 133.972 121.305 136.933C120.927 140.229 119.565 143.432 117.439 146.139C115.328 144.314 113.291 142.409 111.61 140.256C112.499 138.551 113.017 136.693 113.04 134.807C113.062 130.522 113.04 126.236 113.054 121.944Z" fill="#FF4C96"/>
<path d="M145.198 124.525C148.22 126.912 150.508 130.007 153.952 131.959C153.967 136.412 153.967 140.864 153.952 145.317C150.879 143.011 148.294 140.223 145.191 137.943C145.183 133.47 145.183 128.998 145.198 124.525Z" fill="#ED4CA4"/>
<path d="M39.0349 131.404C41.7604 133.457 44.4638 135.536 47.1078 137.669C47.2412 139.166 47.3374 140.671 47.5744 142.161C48.2632 144.889 51.0851 146.928 54.1958 146.928C58.8544 147.543 62.0465 151.107 64.4388 154.47C57.7656 154.209 50.0926 155.733 44.56 151.401C41.1087 148.86 39.0053 144.903 39.0349 140.871C39.0201 137.716 39.0201 134.56 39.0349 131.404Z" fill="#FF6866"/>
<path d="M130.356 140.176C129.83 137.368 133.629 134.821 136.436 136.218C139.391 137.535 142.236 138.986 145.065 140.517C145.25 139.681 145.294 138.819 145.191 137.943C148.294 140.223 150.879 143.011 153.952 145.317C154.656 148.112 151.797 151.321 148.509 150.706C142.939 148.386 137.607 145.491 132.222 142.79C131.304 142.148 130.556 141.219 130.356 140.176Z" fill="#F84C9D"/>
<path d="M99.7747 146.928C104.707 146.881 109.373 144.201 111.61 140.256C113.291 142.409 115.328 144.314 117.439 146.139C116.076 147.938 114.365 149.522 112.38 150.759C107.329 154.269 100.767 154.77 94.6272 154.47C92.272 152.063 89.5539 149.984 87.1098 147.657C91.324 147.256 95.5753 147.483 99.7747 146.928Z" fill="#FF5487"/>
<path d="M54.1958 146.928C69.3863 146.935 84.5842 146.928 99.7747 146.928C95.5753 147.483 91.324 147.256 87.1098 147.657C89.5539 149.984 92.272 152.063 94.6272 154.47C84.562 154.476 74.5041 154.476 64.4388 154.47C62.0465 151.107 58.8544 147.543 54.1958 146.928Z" fill="#FF5E75"/>
<defs>
<linearGradient id="paint0_linear" x1="191.431" y1="13.0592" x2="27.0703" y2="200.36" gradientUnits="userSpaceOnUse">
<stop stop-color="#FE7970"/>
<stop offset="1" stop-color="#DC3282"/>
</linearGradient>
</defs>
</svg>
