<svg width="192" height="192" viewBox="0 0 192 192" fill="none" xmlns="http://www.w3.org/2000/svg">
<path fill-rule="evenodd" clip-rule="evenodd" d="M21.3855 6.20986C24.4402 3.65325 28.5662 3.05421 32.4059 3.04351C42.8288 3.05064 53.2517 3.04826 63.6746 3.04589C68.8861 3.0447 74.0975 3.04351 79.309 3.04351C81.4007 3.07346 83.4942 3.05891 85.5873 3.04436C88.7267 3.02254 91.8653 3.00073 94.9964 3.12909C99.1224 3.41791 101.138 7.83583 100.629 11.5584C100.609 16.8975 100.612 22.2365 100.615 27.5746C100.618 33.9798 100.621 40.3836 100.586 46.7841C100.618 59.963 100.629 73.1312 100.586 86.2994C100.616 93.6506 100.612 101.002 100.609 108.353C100.606 114.234 100.604 120.115 100.618 125.997C100.565 132.261 100.585 138.529 100.605 144.795C100.633 153.725 100.661 162.653 100.48 171.566C115.478 163.49 129.818 153.691 141.284 140.908C151.276 130.168 158.637 116.144 158.329 101.104C158.268 91.6525 158.302 82.2042 158.336 72.7574C158.36 65.7608 158.385 58.7649 158.372 51.769C158.405 47.1979 158.372 42.6234 158.339 38.0489C158.289 31.0726 158.239 24.0963 158.425 17.1317C158.356 16.9872 158.25 16.7706 158.144 16.554C158.038 16.3374 157.932 16.1208 157.863 15.9764C152.461 15.6559 147.042 15.7021 141.625 15.7483C138.363 15.7762 135.101 15.804 131.844 15.7517C129.847 15.5304 127.759 15.6488 125.666 15.7674C121.59 15.9985 117.498 16.2306 114.036 13.9546C110.641 10.6064 112.487 4.04904 117.218 3.23606C122.151 2.95963 127.102 3.00191 132.051 3.04417C134.954 3.06897 137.856 3.09376 140.754 3.05421C143.32 3.28268 146.023 3.16685 148.745 3.05018C155.327 2.76809 162.024 2.4811 167.186 7.04424C167.35 7.28305 167.517 7.52076 167.684 7.75853C168.42 8.80947 169.157 9.86138 169.71 11.0129C171.193 16.3976 171.033 21.9795 170.872 27.5564C170.791 30.3994 170.709 33.2412 170.845 36.0549C170.853 38.6344 170.863 41.2141 170.872 43.794C170.922 58.0007 170.973 72.2127 170.856 86.4171C170.865 87.3908 170.877 88.3672 170.89 89.3455C171.041 101.566 171.197 114.093 166.178 125.483C162.328 134.8 156.494 143.176 149.611 150.461C136.246 164.988 119.646 176.081 102.156 184.906C98.2633 187.013 93.6599 188.446 89.3324 186.788C80.7303 182.691 72.3615 178.113 64.4065 172.85C57.9151 168.518 51.6465 163.832 45.8977 158.527C41.5701 154.43 37.4335 150.129 33.5408 145.604C33.2575 145.253 32.9542 144.901 32.6489 144.547C31.9141 143.696 31.1685 142.832 30.6664 141.925C26.0949 136.084 22.6158 129.409 20.1339 122.402C17.8746 115.791 16.5594 108.817 16.6018 101.8C16.5965 87.8779 16.6018 73.9536 16.6071 60.0279C16.6124 46.1009 16.6177 32.1725 16.6124 18.2442C16.5063 13.8369 17.9064 9.09809 21.3855 6.20986ZM54.6436 15.7496C46.1665 15.7011 37.6894 15.6527 29.2239 15.9763C29.1135 31.8886 29.1343 47.8044 29.1551 63.7197C29.1703 75.3334 29.1855 86.9468 29.1497 98.5583C29.1285 101.254 29.2133 103.95 29.4891 106.635C29.5282 107.089 29.5513 107.471 29.5727 107.825C29.6556 109.199 29.713 110.148 30.5816 113.203C35.5 130.5 48.0933 143.304 53.6089 148.45C59.1244 153.595 65.1278 158.195 71.407 162.356C71.97 162.708 72.5328 163.061 73.0959 163.414C77.8046 166.369 82.5316 169.335 87.5717 171.695L87.9323 171.417C87.9999 165.688 87.9892 159.952 87.9785 154.216C87.9708 150.044 87.963 145.871 87.9854 141.7L87.9748 102.046C87.9641 88.5244 87.9641 75.0139 87.9854 61.4927C87.9524 52.6077 87.9643 43.7228 87.9762 34.8378C87.9796 32.2982 87.983 29.7586 87.9854 27.219C87.9919 26.0409 87.9783 24.8618 87.9648 23.6824C87.9343 21.0277 87.9037 18.3711 88.102 15.7196C83.1831 15.7664 78.2642 15.7559 73.3453 15.7453C72.6426 15.7438 71.9399 15.7423 71.2373 15.741C65.7083 15.8128 60.1759 15.7812 54.6436 15.7496Z" fill="url(#paint0_linear)" stroke="url(#paint1_linear)" stroke-width="4"/>
<defs>
<linearGradient id="paint0_linear" x1="93.786" y1="187.511" x2="93.786" y2="2.91333" gradientUnits="userSpaceOnUse">
<stop stop-color="#5570FF"/>
<stop offset="1" stop-color="#4DD3FF"/>
</linearGradient>
<linearGradient id="paint1_linear" x1="93.786" y1="187.511" x2="93.786" y2="2.91333" gradientUnits="userSpaceOnUse">
<stop stop-color="#5570FF"/>
<stop offset="1" stop-color="#4DD3FF"/>
</linearGradient>
</defs>
</svg>
