<svg width="32" height="32" viewBox="0 0 32 32" fill="none" xmlns="http://www.w3.org/2000/svg">
<path d="M10.0673 5L10.6729 6.47901C11.0504 7.39868 11.5635 9.69732 11.4452 10.7816C9.9791 11.6851 9.07987 12.5671 8.38608 13.3029C7.53847 12.6177 5.86155 11.4538 3.07564 11.4538H2V12.5295C2 14.5883 2.74327 16.2609 3.00895 16.832C2.74004 17.3989 2 19.0124 2 21.1346V22.2102H3.07564C5.84004 22.2102 7.5374 21.0421 8.38715 20.3612C9.65964 21.6724 11.4742 23.0546 13.7654 24.0926C13.6642 24.7606 13.5846 25.6932 13.8654 26.7817L14.0676 27.5885H14.9077C16.235 27.5885 17.3784 26.9291 18.3024 26.345C19.0586 25.8653 19.4243 25.5297 19.6136 25.3694C23.8914 25.2188 26.6225 22.9116 28.0843 20.6301C29.5966 18.2734 29.9667 15.9242 29.9667 15.9242L30 15.6553L29.9 15.3864C29.9 15.3864 27.4367 8.62168 20.757 8.29361C20.0471 7.4331 19.0543 6.71887 17.6646 6.14233C16.021 5.46253 13.9536 5 11.6808 5H10.0673ZM13.1931 7.28574C14.5506 7.43633 15.8198 7.71061 16.8234 8.12581C18.1981 8.69375 19.1554 9.50801 19.378 9.87373L19.6814 10.3782H20.2859C25.6598 10.3782 27.5927 15.466 27.7487 15.8909C27.6734 16.2856 27.3615 17.7861 26.2697 19.4878C25.0209 21.4326 22.9997 23.2859 19.2102 23.2859H18.8069L18.5046 23.5548C18.5046 23.5548 17.9367 24.0388 17.1601 24.5293C16.7513 24.7864 16.4039 24.8327 15.9833 25.0005C16.0264 24.5089 15.9833 23.7904 15.9833 23.7904L16.2189 22.8492L15.3444 22.5458C12.6811 21.5294 10.4158 19.6137 9.26057 18.2777L8.52053 17.4032L7.7138 18.2099C7.7138 18.2099 6.28105 19.2146 4.42019 19.6889C4.69771 18.4283 5.12581 17.3032 5.12581 17.3032L5.36138 16.832L5.12581 16.3609C5.12581 16.3609 4.66006 15.1261 4.38685 13.8063C6.36925 14.2441 7.7138 15.4542 7.7138 15.4542L8.52053 16.2609L9.26057 15.3864C10.2233 14.2989 12.8156 11.5883 16.6223 11.0838L16.3189 8.96589C15.2895 9.10142 14.3914 9.39937 13.5298 9.74035C13.4749 8.83681 13.4287 8.05912 13.1931 7.28574V7.28574ZM22.975 14.6808C22.5471 14.6808 22.1367 14.8508 21.8341 15.1533C21.5315 15.4559 21.3615 15.8663 21.3615 16.2942C21.3615 16.7221 21.5315 17.1325 21.8341 17.4351C22.1367 17.7377 22.5471 17.9077 22.975 17.9077C23.4029 17.9077 23.8133 17.7377 24.1159 17.4351C24.4185 17.1325 24.5885 16.7221 24.5885 16.2942C24.5885 15.8663 24.4185 15.4559 24.1159 15.1533C23.8133 14.8508 23.4029 14.6808 22.975 14.6808Z" fill="url(#paint0_linear)"/>
<defs>
<linearGradient id="paint0_linear" x1="3" y1="17" x2="26" y2="16" gradientUnits="userSpaceOnUse">
<stop stop-color="#0004F0"/>
<stop offset="1" stop-color="#00F0FF"/>
</linearGradient>
</defs>
</svg>
