<svg viewBox="0 0 48 48" xmlns="http://www.w3.org/2000/svg" xmlns:xlink="http://www.w3.org/1999/xlink"><linearGradient id="a" gradientUnits="userSpaceOnUse" x1="16.829393" x2="16.676353" y1="7.321177" y2="-1.329284"><stop offset="0" stop-color="#ffa302"/><stop offset="1" stop-color="#f9e900"/></linearGradient><radialGradient id="b" cx="16.917055" cy="2.913743" gradientTransform="matrix(1.3709991 0 0 1.306787 -6.276212 -.893898)" gradientUnits="userSpaceOnUse" r="17.24367"><stop offset="0" stop-color="#00efff"/><stop offset="1" stop-color="#07f"/></radialGradient><g fill="none" stroke="#000" stroke-linecap="round" stroke-linejoin="round" stroke-width="1.380489" transform="matrix(1.3038862 0 0 1.3038862 1.83802 20.576466)"><path d="m28.424277-13.508548c-1.677071 2.98415-3.507528 5.9191297-5.089443 8.933692.683917.9492288 1.713688 1.8067325 2.213096 2.9518177 1.258657 2.31644437 1.477751 5.148135.637823 7.6434037.262162.7512119 1.382161.8923496 1.977719 1.4024867.681019.1984196 1.43718 1.2592327 2.094499.8176874 1.745016-4.3162504 1.20102-9.446577-1.416908-13.2968552 1.031675-1.8675698 2.220053-3.6849024 3.155654-5.5832723-.768655-1.170318-2.030867-2.080993-3.157877-2.956544-.174553-.07442-.285636-.04603-.414563.08758zm-25.250484 1.438039c-1.0263055 1.01499-2.1681499 2.048901-2.81018158 3.3367952 1.71381268 1.2354087 3.69719298 2.1693608 5.51481588 3.2887 1.2258145.6330468 2.3706403 1.5187065 3.6472604 1.9932849 2.4840083-2.792084 6.5738803-4.099335 10.1800533-2.9567399.921463.4047657 1.032304-1.0175024 1.51127-1.5109987.373498-.7717232.992371-1.4647548 1.208208-2.2870405-1.406112-.811433-3.15323-1.043096-4.774193-1.173712-3.06082-.163826-6.154037.710987-8.6997754 2.4132279-1.8674777-1.0315796-3.6847182-2.2198659-5.5829944-3.1553749l-.092977-.009zm.4557126 9.6814607c-1.7511233 4.3195583-1.210242 9.4567959 1.4110687 13.3115913-1.0315852 1.867661-2.2198507 3.685097-3.1553751 5.583551.7686468 1.17049 2.0310442 2.081197 3.1581557 2.956821.8178576-.05838.956568-1.367062 1.4818483-1.937217 1.3209354-2.367799 2.7962361-4.686065 4.0218788-7.084336-.6837707-.9492344-1.7137273-1.8065291-2.2130281-2.9515768-1.2590174-2.3166511-1.4774844-5.1482781-.6381679-7.64392301-.2627106-.75101438-1.3820862-.89218019-1.9776834-1.40227159-.6426052-.1811483-1.4775021-1.267231-2.088697-.8326389zm20.6152274 11.7776279c-2.509862 2.8854354-6.772411 4.0506244-10.391026 2.7896064-.750859.262401-.892276 1.382105-1.402381 1.977621-.198419.680985-1.259364 1.436891-.817794 2.09432 4.316099 1.745645 9.446534 1.200963 13.296856-1.41663 1.867569 1.031583 3.684907 2.21986 5.583271 3.155375 1.17046-.768659 2.081396-2.030904 2.956823-3.158155-.05729-.817569-1.367073-.956543-1.937007-1.481733-2.36794-1.320757-4.686266-2.79602-7.084547-4.021716l-.09298-.00903z" stroke="url(#b)"/><circle cx="16.940928" cy="2.933262" r="4.822274" stroke="url(#a)"/></g></svg>