<?xml version="1.0" encoding="UTF-8" ?>
<!DOCTYPE svg PUBLIC "-//W3C//DTD SVG 1.1//EN" "http://www.w3.org/Graphics/SVG/1.1/DTD/svg11.dtd">
<svg width="192pt" height="192pt" viewBox="0 0 192 192" version="1.1" xmlns="http://www.w3.org/2000/svg">
<g id="#ff6f4bff">
<path fill="#ff6f4b" opacity="1.00" d=" M 53.54 25.65 C 55.69 25.30 57.86 25.21 60.03 25.19 C 84.03 25.20 108.02 25.18 132.02 25.19 C 140.37 25.26 148.65 28.58 154.72 34.32 C 161.52 40.60 165.50 49.75 165.50 59.00 C 165.50 81.68 165.49 104.35 165.50 127.03 C 165.64 132.53 165.38 138.14 163.36 143.32 C 158.74 156.17 145.70 165.33 132.05 165.37 C 109.40 165.40 86.75 165.37 64.10 165.38 C 60.36 165.38 56.59 165.52 52.91 164.78 C 41.76 162.72 31.90 154.71 27.75 144.14 C 25.93 139.68 25.17 134.86 25.28 130.06 C 25.30 106.04 25.23 82.02 25.31 58.00 C 25.51 42.31 38.04 27.99 53.54 25.65 M 57.40 36.60 C 46.07 37.27 36.49 47.62 36.62 58.95 C 36.61 83.32 36.58 107.68 36.64 132.04 C 36.71 143.37 46.54 153.61 57.91 153.92 C 82.64 154.03 107.37 153.96 132.10 153.96 C 141.30 153.93 149.98 147.52 152.88 138.82 C 154.03 135.68 154.23 132.32 154.18 129.02 C 154.10 105.35 154.26 81.68 154.11 58.02 C 153.81 46.54 143.53 36.52 132.05 36.54 C 107.16 36.52 82.27 36.40 57.40 36.60 Z" />
<path fill="#ff6f4b" opacity="1.00" d=" M 67.69 64.00 C 67.44 59.72 71.73 54.72 76.22 56.76 C 84.92 61.35 93.45 66.30 102.05 71.08 C 104.79 72.52 106.20 76.17 104.64 78.96 C 103.43 82.08 99.26 82.57 96.55 81.29 C 90.98 78.17 85.46 74.95 79.81 71.97 C 79.88 87.84 79.91 103.71 79.80 119.58 C 93.49 111.66 107.18 103.75 120.82 95.75 C 118.16 93.43 114.78 92.14 112.17 89.76 C 109.62 87.51 109.99 82.74 113.04 81.08 C 114.98 79.53 117.72 79.94 119.70 81.19 C 124.52 84.02 129.17 87.15 134.02 89.94 C 136.05 90.98 137.12 93.07 138.54 94.75 C 138.41 97.74 136.19 100.23 133.69 101.65 C 114.71 112.71 95.76 123.83 76.68 134.70 C 72.27 137.26 67.65 132.32 67.69 128.01 C 67.71 106.67 67.71 85.33 67.69 64.00 Z" />
</g>
</svg>
