<svg width="128" height="128" viewBox="0 0 128 128" fill="none" xmlns="http://www.w3.org/2000/svg">
<path d="M52.4479 4.86994C54.8064 4.08158 57.6842 5.67202 57.9088 8.16051C58.3299 10.3611 56.6313 12.5274 54.3782 12.8084C43.3653 14.8102 33.0683 20.3768 25.5438 28.4935C16.7419 37.7756 11.632 50.3621 11.7093 63.0308C11.5619 74.3901 15.5066 85.7494 22.666 94.6956C28.2743 101.736 35.7777 107.344 44.2427 110.703C55.8662 115.385 69.2235 115.769 81.1068 111.772C90.6598 108.619 99.1809 102.648 105.365 94.8876C112.644 85.8934 116.687 74.4586 116.553 62.9896C116.518 51.5823 112.503 40.1956 105.154 31.3042C104.417 30.3307 103.463 29.3504 103.427 28.0616C102.838 23.9552 108.98 22.0152 111.106 25.5183C118.413 34.1766 123.116 44.9052 124.45 56.052C126.338 70.4003 122.512 85.3587 114.012 97.1979C106.284 108.187 94.6045 116.434 81.5209 120.218C70.2413 123.55 57.986 123.557 46.7274 120.129C31.6926 115.666 18.595 105.356 10.9723 91.9329C4.26202 80.3131 1.89659 66.431 4.17779 53.2962C6.19226 41.4707 12.0181 30.317 20.5743 21.7341C29.1095 13.1101 40.3892 7.14592 52.4479 4.86994Z" fill="url(#paint0_linear)"/>
<path d="M71.2942 11.595C70.9853 9.16825 72.9296 6.60435 75.5407 6.69347C80.2084 6.63177 84.8831 6.59749 89.5508 6.63177C91.9864 6.47409 94.3799 8.44158 94.422 10.8684C94.7098 13.2472 92.7023 15.5026 90.2878 15.7083C87.059 16.0442 83.7951 15.5986 80.5664 15.9208C79.5907 16.3184 79.9838 17.6209 79.8364 18.423C79.7943 34.6839 79.9487 50.9585 79.7521 67.2194C78.7554 72.3472 74.4949 76.7072 69.4622 78.3388C61.7482 80.8821 52.4409 76.6044 49.6614 69.0978C46.9731 62.8662 49.3104 55.0923 54.8906 51.1504C59.6004 47.853 66.0088 47.4623 71.3433 49.4572C71.3854 36.8365 71.3082 24.2157 71.2942 11.595Z" fill="url(#paint1_linear)"/>
<path d="M19.4583 70.6265C16.4612 52.0416 26.7301 32.2159 43.99 23.777C47.0292 22.5088 50.5739 25.6554 49.4859 28.7197C48.9524 30.7969 46.6853 31.4893 45.0569 32.5587C32.219 40.3464 25.0876 56.0452 27.8882 70.5648C28.169 72.6762 29.4394 75.0276 28.0146 77.0157C27.2425 78.3593 25.6351 78.6541 24.2383 79.0106C20.2093 78.2359 19.9777 73.8211 19.4583 70.6265Z" fill="url(#paint2_linear)"/>
<path d="M60.92 35.0404C62.8572 34.9307 65.2578 34.3822 66.7528 35.9521C68.7673 38.1321 67.8759 42.9926 64.3523 42.9583C58.0983 43.0474 51.9215 45.769 48.0259 50.602C41.779 57.8413 41.9895 69.3925 48.4471 76.4398C54.3992 83.4803 65.4613 85.5849 73.6666 81.1837C81.3525 77.3653 85.9991 68.5425 84.5602 60.2201C84.3707 57.903 82.6791 55.5858 83.8021 53.2824C84.9182 50.746 88.8839 50.2181 90.6668 52.3707C91.9162 54.0982 92.2391 56.2782 92.6883 58.3006C94.4992 67.5142 91.0669 77.4064 84.1391 83.8436C78.9941 88.5395 72.1084 91.5559 65.0191 91.6107C56.9121 92.0083 48.791 88.6492 43.2319 82.9181C36.9849 76.7003 34.0229 67.5553 35.4337 58.9518C37.1744 46.5916 48.1944 36.2263 60.92 35.0404Z" fill="url(#paint3_linear)"/>
<path d="M101.75 48.8333C103.806 47.5925 106.818 48.6277 107.632 50.8419C113.268 69.1115 105.168 90.2602 88.919 100.742C86.5326 102.154 83.6828 104.759 80.7699 103.059C77.9202 101.592 78.1237 97.0744 81.0998 95.8542C90.4281 90.9046 97.4262 82.0132 99.9109 71.9359C101.497 65.8483 101.35 59.4111 99.7846 53.3373C99.2932 51.6166 100.206 49.7314 101.75 48.8333Z" fill="url(#paint4_linear)"/>
<defs>
<linearGradient id="paint0_linear" x1="64.1278" y1="122.708" x2="64.1278" y2="4.66667" gradientUnits="userSpaceOnUse">
<stop stop-color="#5558FF"/>
<stop offset="1" stop-color="#00C0FF"/>
</linearGradient>
<linearGradient id="paint1_linear" x1="71.4978" y1="79.0752" x2="71.4978" y2="6.61819" gradientUnits="userSpaceOnUse">
<stop stop-color="#5558FF"/>
<stop offset="1" stop-color="#00C0FF"/>
</linearGradient>
<linearGradient id="paint2_linear" x1="34.3139" y1="79.0106" x2="34.3139" y2="23.4887" gradientUnits="userSpaceOnUse">
<stop stop-color="#5558FF"/>
<stop offset="1" stop-color="#00C0FF"/>
</linearGradient>
<linearGradient id="paint3_linear" x1="64.1272" y1="91.6425" x2="64.1272" y2="34.8586" gradientUnits="userSpaceOnUse">
<stop stop-color="#5558FF"/>
<stop offset="1" stop-color="#00C0FF"/>
</linearGradient>
<linearGradient id="paint4_linear" x1="94.0818" y1="103.616" x2="94.0818" y2="48.3012" gradientUnits="userSpaceOnUse">
<stop stop-color="#5558FF"/>
<stop offset="1" stop-color="#00C0FF"/>
</linearGradient>
</defs>
</svg>
