<svg width="24" height="24" viewBox="0 0 24 24" fill="none" xmlns="http://www.w3.org/2000/svg">
<path d="M15.0751 14.6964C15.1574 14.6964 15.3376 14.7795 15.5791 15.1006C16.2422 16.0211 16.874 16.9638 17.4735 17.9269C16.0499 18.4921 14.3279 18.8106 12.5 18.8106C11.6355 18.8106 10.7955 18.7257 10.001 18.5831C11.2409 17.2645 12.5543 16.0841 14.1161 15.1006C14.6018 14.8574 14.8327 14.6964 15.0751 14.6964ZM17.1961 9.2696C19.6969 10.1927 21.3856 11.8124 21.3856 13.6429C21.3856 14.881 20.6147 16.0316 19.3399 16.9285C19.003 14.951 18.5541 13.0111 17.9014 11.1395C17.6842 10.5097 17.5 10 17.1944 9.27048L17.1961 9.2696ZM8.76375 8.99223C8.40157 9.93653 8.08159 10.8965 7.80475 11.8692C7.30957 13.713 6.92188 15.584 6.64363 17.4727C4.79738 16.5102 3.61437 15.119 3.61437 13.6359C3.61525 11.6461 5.74938 9.84098 8.76375 8.99223ZM12.9051 2.0001C12.822 2.0001 12.8351 1.99398 12.7529 2.07535C11.466 3.60918 10.3882 5.3069 9.54775 7.1241C5.17713 7.9536 2 10.576 2 13.6367C2 15.9012 3.74212 17.9269 6.417 19.1641C6.27951 20.3303 6.17825 21.5004 6.11338 22.6729C6.11338 22.7551 6.20787 22.8496 6.291 22.8496H6.36625C6.4485 22.8496 6.43625 22.8557 6.51762 22.7744C7.23382 21.8213 7.97431 20.8868 8.73838 19.9717C9.90913 20.2657 11.1709 20.4267 12.5 20.4267C14.6481 20.4267 16.6458 20.0067 18.3056 19.291C18.7081 19.9665 19.1001 20.6516 19.5175 21.3866C19.5175 21.4689 19.6873 21.4619 19.7695 21.4619C19.8095 21.4614 19.8477 21.4453 19.876 21.417C19.9043 21.3887 19.9204 21.3505 19.9209 21.3105C19.8401 20.4077 19.7391 19.5068 19.6181 18.6085C21.691 17.366 23 15.5897 23 13.6367C23 10.7912 20.2385 8.32373 16.3369 7.32623C15.4314 5.46539 14.3315 3.70559 13.0556 2.07623C13.0556 1.99398 12.9874 2.0001 12.9051 2.0001Z" stroke="url(#paint0_linear)" stroke-width="2"/>
<defs>
<linearGradient id="paint0_linear" x1="12.5" y1="22.8497" x2="12.5" y2="2" gradientUnits="userSpaceOnUse">
<stop stop-color="#FDA700"/>
<stop offset="1" stop-color="#FFDE00"/>
</linearGradient>
</defs>
</svg>
