<svg width="64" height="64" viewBox="0 0 64 64" fill="none" xmlns="http://www.w3.org/2000/svg">
<path d="M28.0306 0.947002C29.3966 0.229956 31.0182 -0.416863 32.5085 0.337144C40.3076 3.91128 48.0925 7.52238 55.888 11.1113C57.0767 11.5955 58.0312 12.7746 57.9992 14.1532C57.8786 23.3048 57.7047 32.6855 54.71 41.4009C52.4391 48.2609 47.9754 54.2671 42.2449 58.3735C39.2324 60.5985 35.8971 62.3024 32.4765 63.718C31.4937 64.047 30.2695 64.2059 29.3931 63.5222C28.7863 63.049 28.5522 62.2359 28.5947 61.4745C28.5912 56.0819 28.6196 50.6893 28.5876 45.2966C25.8839 46.387 23.1517 47.433 20.377 48.309C18.6135 48.7599 17.2048 46.3796 18.2906 44.9122C24.0175 36.5886 29.8331 28.3315 35.631 20.0633C34.602 20.2814 33.5375 20.6362 32.4907 20.3072C30.3973 19.8822 28.8396 17.7865 28.7899 15.5984C28.7296 12.1832 28.8928 8.76797 28.797 5.35277C21.9879 8.6423 15.0829 11.7175 8.21704 14.8813C8.15672 21.66 8.35898 28.5089 9.82441 35.1434C11.0095 40.7578 13.3762 46.1985 17.2084 50.3936C19.096 52.5188 21.3101 54.2893 23.6307 55.8675C24.7023 56.5587 24.8407 58.3254 23.9323 59.2199C23.2865 60.0035 22.0482 60.0589 21.2569 59.4897C16.7435 56.5476 12.7979 52.5891 10.0799 47.8063C5.98518 40.6913 4.62975 32.2974 4.18267 24.129C3.95913 20.8025 4.00525 17.4686 4.0017 14.1384C4.0017 12.6711 5.06973 11.4735 6.32582 10.9598C13.5536 7.61109 20.8063 4.31046 28.0306 0.947002ZM33.0656 5.61889C33.0265 8.58317 33.0123 11.5474 32.991 14.5117C33.0478 15.007 32.7781 15.9791 33.5233 16.0234C35.0881 15.6945 36.5358 14.9146 38.1112 14.6263C39.864 14.4119 41.5601 15.9902 41.5637 17.8234C41.6666 18.8916 41.0811 19.812 40.4885 20.614C35.4926 27.6181 30.6243 34.7258 25.6461 41.741C27.0619 41.1755 28.6196 40.4436 30.1524 40.9833C31.8379 41.534 32.8278 43.4042 32.7959 45.1784C32.8456 49.7135 32.8243 54.2523 32.8101 58.7874C39.6973 55.764 45.9635 50.6006 49.274 43.4929C53.4432 34.7036 53.5426 24.6649 53.8229 15.0809C53.3971 14.8259 52.9678 14.5783 52.5242 14.3713C46.439 11.5807 40.3643 8.76797 34.2862 5.96262C33.8888 5.81478 33.4807 5.6965 33.0656 5.61889Z" fill="#FF3660"/>
</svg>
