<svg viewBox="0 0 48 48" xmlns="http://www.w3.org/2000/svg" xmlns:xlink="http://www.w3.org/1999/xlink"><linearGradient id="a"><stop offset="0" stop-color="#00ffdb"/><stop offset="1" stop-color="#ff5900"/></linearGradient><linearGradient id="b" gradientUnits="userSpaceOnUse" x1="4.229204" x2="45.398754" xlink:href="#a" y1="24.0000895" y2="24.0000895"/><linearGradient id="c" gradientUnits="userSpaceOnUse" x1="14.459" x2="32.593" xlink:href="#a" y1="24.27" y2="24.27"/><path d="m24.814 4.08a19.92 19.92 0 0 0 -2.267.152l-1.515 5.658.002.005a14.609 14.609 0 0 0 -3.514 1.47l-.01-.018-5.084-2.933a19.92 19.92 0 0 0 -1.7 1.499 19.92 19.92 0 0 0 -1.494 1.712l2.929 5.07.013.009a14.609 14.609 0 0 0 -1.453 3.52l-.018-.006-5.67 1.52a19.92 19.92 0 0 0 -.14 2.262 19.92 19.92 0 0 0 .153 2.267l5.657 1.515.005-.003a14.609 14.609 0 0 0 1.471 3.515l-.018.01-2.934 5.084a19.92 19.92 0 0 0 1.5 1.699 19.92 19.92 0 0 0 1.712 1.494l5.07-2.928.008-.013a14.609 14.609 0 0 0 3.52 1.452l-.005.018 1.52 5.67a19.92 19.92 0 0 0 2.262.14 19.92 19.92 0 0 0 2.267-.153l1.515-5.657-.003-.005a14.609 14.609 0 0 0 3.515-1.47l.01.018 5.084 2.933a19.92 19.92 0 0 0 1.699-1.499 19.92 19.92 0 0 0 1.494-1.712l-2.929-5.071-.013-.008a14.609 14.609 0 0 0 1.453-3.52l.018.005 5.67-1.52a19.92 19.92 0 0 0 .14-2.261 19.92 19.92 0 0 0 -.153-2.267l-5.657-1.515-.005.003a14.609 14.609 0 0 0 -1.47-3.515l.017-.01 2.934-5.084a19.92 19.92 0 0 0 -1.5-1.7 19.92 19.92 0 0 0 -1.71-1.492l-5.071 2.928-.008.013a14.609 14.609 0 0 0 -3.52-1.452l.005-.019-1.52-5.67a19.92 19.92 0 0 0 -2.261-.14z" fill="none" stroke="url(#b)" stroke-linecap="round" stroke-linejoin="round" stroke-width="1.328"/><path d="m26.412 14.974a10.624 10.624 0 0 0 -10.625 10.624 10.624 10.624 0 0 0 10.625 10.625 10.624 10.624 0 0 0 7.509-3.116l-2.817-2.817a6.64 6.64 0 0 1 -4.692 1.948 6.64 6.64 0 0 1 -6.64-6.64 6.64 6.64 0 0 1 6.64-6.64 6.64 6.64 0 0 1 4.692 1.948l2.817-2.817a10.624 10.624 0 0 0 -7.51-3.115z" opacity=".1"/><path d="m25.084 13.646a10.624 10.624 0 0 0 -10.625 10.624 10.624 10.624 0 0 0 10.625 10.625 10.624 10.624 0 0 0 7.509-3.116l-2.817-2.817a6.64 6.64 0 0 1 -4.692 1.948 6.64 6.64 0 0 1 -6.64-6.64 6.64 6.64 0 0 1 6.64-6.64 6.64 6.64 0 0 1 4.692 1.948l2.817-2.817a10.624 10.624 0 0 0 -7.51-3.115z" fill="url(#c)"/></svg>