<svg viewBox="0 0 48 48" xmlns="http://www.w3.org/2000/svg" xmlns:xlink="http://www.w3.org/1999/xlink"><linearGradient id="a" gradientUnits="userSpaceOnUse" x1="3.381" x2="45.11" y1="24.746" y2="24.746"><stop offset="0" stop-color="#f9b807"/><stop offset="1" stop-color="#f88d06"/></linearGradient><g fill="none" stroke="url(#a)"><path d="m3.881 8.153v15.084h12.069v-4.525h-7.543v-6.034h7.542v-4.525zm13.577 0v15.084h4.525v-6.034h1.509l3.016 6.034h4.526l-3.771-7.542h2.262v-7.542zm13.576 0v4.525h4.525v10.56h4.526v-10.56h4.525v-4.525zm-9.05 3.016h3.016v3.017h-3.017zm-18.104 15.085v15.086h12.07v-15.086z"/><path d="m3.881 8.153v1.507h12.069v-1.507zm13.577 0v1.507h12.067v-1.507zm13.576 0v1.507h13.576v-1.507zm-27.154 4.525v1.508h4.526v-1.508zm13.577 0v1.508h4.525v-1.508zm7.542 0v1.508h4.525v-1.508zm10.56 0v1.508h4.525v-1.508zm-31.679 4.525v1.509h4.526v-1.509zm13.577 0v1.509h4.525v-1.509zm6.034 0 .754 1.509h4.525l-.754-1.509zm12.067 0v1.509h4.526v-1.509zm-31.677 4.527v1.508h12.069v-1.508zm13.577 0v1.508h4.525v-1.508zm8.296 0 .754 1.508h4.526l-.754-1.508zm9.805 0v1.508h4.526v-1.508zm-31.678 4.524v1.509h12.069v-1.509zm0 4.526v1.508h12.069v-1.508zm0 4.525v1.509h12.069v-1.509zm0 4.526v1.508h12.069v-1.508z"/></g></svg>