<svg viewBox="0 0 48 48" xmlns="http://www.w3.org/2000/svg" xmlns:xlink="http://www.w3.org/1999/xlink"><linearGradient id="a"><stop offset="0" stop-color="#1ca600"/><stop offset="1" stop-color="#4f9800" stop-opacity=".845"/></linearGradient><linearGradient id="b" gradientUnits="userSpaceOnUse" x1="15.997" x2="33.999" y1="22.997" y2="22.997"><stop offset="0" stop-color="#92fe77"/><stop offset="1" stop-color="#ff8712" stop-opacity=".858"/></linearGradient><linearGradient id="c" gradientUnits="userSpaceOnUse" x1="18.8550827" x2="33.9605609" xlink:href="#a" y1="21.1037827" y2="21.1037827"/><linearGradient id="d" gradientUnits="userSpaceOnUse" x1="15.997" x2="33.999" xlink:href="#a" y1="22.997" y2="22.997"/><linearGradient id="e" gradientUnits="userSpaceOnUse" x1="15.997" x2="33.999" xlink:href="#a" y1="23.134" y2="23.134"/><linearGradient id="f" gradientUnits="userSpaceOnUse" x1="16.08856422" x2="31.66497474" xlink:href="#a" y1="24.06638422" y2="24.06638422"/><g style="fill:none;fill-rule:evenodd;stroke-width:1.008;stroke-linecap:round;stroke-linejoin:round;stroke:url(#b)" transform="matrix(1.78651 0 0 1.78651 -18.447 -16.424)"><path d="m31.44 12.136c1.675 1.088 2.675 2.612 2.5 3.674l-6.834-4.448c-.02-.013-.043-.022-.065-.04.914-.579 2.72-.278 4.398.814" stroke="url(#c)"/><path d="m32.77 16.5-.52-.336c-.559-.367-1.309-.219-1.668.324l-7.09 10.711a1.187 1.187 0 0 0 .363 1.648l.52.336c.559.367 1.309.219 1.668-.324l7.09-10.711a1.187 1.187 0 0 0 -.363-1.648" stroke="url(#d)"/><path d="m29.859 14.742-.52-.336c-.559-.367-1.309-.219-1.668.328l-7.09 10.707a1.187 1.187 0 0 0 .363 1.648l.52.34c.559.363 1.309.219 1.668-.328l7.09-10.711c.359-.543.199-1.281-.363-1.648" stroke="url(#e)"/><path d="m26.949 12.715-.52-.34c-.559-.363-1.309-.219-1.668.328l-7.09 10.711c-.359.543-.199 1.281.363 1.648l.52.336c.559.363 1.309.219 1.668-.328l7.09-10.707a1.187 1.187 0 0 0 -.363-1.648" stroke="url(#d)"/><path d="m23.93 30.394c.014-.176-7.023-4.755-7.183-4.674-.155.09-.78 8.635-.638 8.73.145.091 7.813-3.873 7.822-4.056" stroke="url(#f)"/></g></svg>