<svg width="64" height="64" viewBox="0 0 64 64" fill="none" xmlns="http://www.w3.org/2000/svg">
<path d="M27.7508 2.35764C33.9823 1.3912 40.5121 2.39266 46.1367 5.24995C52.4174 8.39438 57.5366 13.7868 60.3331 20.2262C63.1401 26.5781 63.6279 33.8999 61.7507 40.581C59.9858 46.9574 56.0314 52.6824 50.7332 56.6532C45.5297 60.5995 39.0139 62.7635 32.4771 62.76C26.2946 62.774 20.1157 60.8657 15.049 57.3186C9.91221 53.7609 5.91924 48.5821 3.79995 42.7099C1.15434 35.4406 1.43154 27.1559 4.58942 20.0862C8.64906 10.772 17.6701 3.82481 27.7508 2.35764ZM29.3718 6.34945C20.5578 7.25286 12.5192 13.076 8.73327 21.0421C6.21749 26.1859 5.59293 32.1561 6.70871 37.7482C7.82801 43.1686 10.7438 48.1899 14.8806 51.8736C19.4666 56.037 25.5859 58.4636 31.7858 58.5686C37.6841 58.7402 43.6139 56.8388 48.2981 53.2602C52.7928 49.8567 56.1752 44.993 57.6945 39.5585C59.3437 33.7739 58.9472 27.415 56.5156 21.9035C54.3016 16.8052 50.3928 12.4632 45.5788 9.67946C40.7297 6.86068 34.9402 5.65964 29.3718 6.34945Z" fill="url(#paint0_linear)"/>
<path d="M19.6666 19.5014C22.1578 18.4124 25.2034 20.7935 24.6666 23.4722C24.4455 26.263 20.6104 27.7057 18.5999 25.7413C16.4912 24.0815 17.1403 20.3733 19.6666 19.5014Z" fill="url(#paint1_linear)"/>
<path d="M43.0665 19.3228C45.5963 18.689 48.1472 21.2556 47.456 23.7768C46.9683 26.515 43.1156 27.6495 41.242 25.5696C39.1297 23.6857 40.2841 19.7955 43.0665 19.3228Z" fill="url(#paint2_linear)"/>
<path d="M29.7368 31.2143C32.8104 30.2023 37.0806 30.9937 38.4876 34.2151C39.4946 36.6767 37.3192 38.8057 35.4911 40.1048C36.1403 40.546 36.9262 40.8051 37.7192 40.7211C38.4104 40.7 39.2385 40.4304 39.7648 41.0432C40.4104 41.9396 40.7718 43.3122 39.9227 44.2086C37.3894 45.077 34.4771 44.4432 32.449 42.7275C30.5122 44.2191 27.9157 45.0105 25.5017 44.3522C23.7684 43.904 24.2806 40.9487 25.8034 40.5915C26.9754 40.7035 28.2245 40.8331 29.2736 40.1748C27.9262 39.0613 26.435 37.8147 26.042 36.0324C25.7473 33.7389 27.6806 31.8375 29.7368 31.2143ZM30.0596 35.1921C30.0315 36.4421 31.4911 36.9218 32.2315 37.7237C33.1824 37.0794 34.1753 36.3931 34.7438 35.3706C33.3403 34.4847 31.5332 34.4777 30.0596 35.1921Z" fill="url(#paint3_linear)"/>
<defs>
<linearGradient id="paint0_linear" x1="10.9144" y1="53.8619" x2="53.8781" y2="10.8197" gradientUnits="userSpaceOnUse">
<stop stop-color="#0072FF"/>
<stop offset="1" stop-color="#00E5A1"/>
</linearGradient>
<linearGradient id="paint1_linear" x1="18.4189" y1="25.5618" x2="23.6631" y2="20.3345" gradientUnits="userSpaceOnUse">
<stop stop-color="#0072FF"/>
<stop offset="1" stop-color="#00E5A1"/>
</linearGradient>
<linearGradient id="paint2_linear" x1="41.2403" y1="25.5554" x2="46.4844" y2="20.311" gradientUnits="userSpaceOnUse">
<stop stop-color="#0072FF"/>
<stop offset="1" stop-color="#00E5A1"/>
</linearGradient>
<linearGradient id="paint3_linear" x1="26.757" y1="42.5758" x2="36.4043" y2="31.3807" gradientUnits="userSpaceOnUse">
<stop stop-color="#0072FF"/>
<stop offset="1" stop-color="#00E5A1"/>
</linearGradient>
</defs>
</svg>
