<svg width="192" height="192" viewBox="0 0 192 192" fill="none" xmlns="http://www.w3.org/2000/svg">
<path d="M83.6172 5.76419C91.2901 4.85755 99.1003 4.6467 106.763 5.7431C110.066 6.28076 112.462 9.79137 111.818 13.0806C111.396 16.412 107.987 19.0159 104.652 18.4783C86.6041 16.296 67.7964 20.6395 52.5982 30.6442C36.4924 41.1127 24.3761 57.6326 19.5423 76.2293C14.909 93.4766 16.5132 112.274 23.9012 128.519C31.3525 145.187 44.8936 159.029 61.3688 166.936C76.3559 174.21 93.7071 176.392 110.077 173.324C128.125 169.982 144.832 160.073 156.41 145.851C169.708 129.858 175.935 108.415 173.656 87.7837C172.41 82.8394 178.015 78.1586 182.627 80.4673C185.55 81.6164 186.627 84.874 186.658 87.7626C188.822 110.049 182.373 133.021 168.832 150.869C156.304 167.705 137.792 179.987 117.391 184.974C98.5409 189.623 78.1923 188.147 60.2817 180.599C39.8381 172.154 22.7191 155.993 13.1253 136.089C4.2597 117.988 1.77945 96.8923 6.01171 77.2097C9.80069 59.1401 19.2995 42.3356 32.7984 29.7375C46.6456 16.6544 64.7251 8.17839 83.6172 5.76419Z" fill="url(#paint0_linear)" stroke="url(#paint1_linear)" stroke-width="3"/>
<path d="M124.473 19.3006C124.167 14.683 129.613 11.0881 133.718 13.3442C153.391 22.2841 169.645 38.4771 178.658 58.107C180.569 61.9339 177.571 67.0786 173.276 67.1734C170.352 67.5846 167.661 65.5077 166.626 62.8827C160.199 49.3358 149.792 37.6759 137.022 29.8113C136.927 52.6671 137.064 75.523 136.948 98.3683C136.41 117.598 120.61 134.792 101.57 137.27C89.2215 139.262 76.1554 134.992 67.0998 126.432C59.1102 119.01 54.2342 108.299 54.0864 97.3773C53.7487 87.4885 57.1999 77.5577 63.5747 69.9882C71.8492 59.836 85.2004 54.0377 98.2876 55.0181C108.04 55.5979 117.412 59.9097 124.441 66.6463C124.441 50.8644 124.378 35.0825 124.473 19.3006ZM92.5461 67.5846C84.6938 68.428 77.3058 72.5817 72.5247 78.8544C63.828 89.7552 64.9045 106.823 74.9205 116.533C84.7888 126.991 102.573 128.034 113.602 118.799C125.127 110.039 127.913 92.2115 119.586 80.3619C113.866 71.559 102.984 66.446 92.5461 67.5846Z" fill="url(#paint2_linear)" stroke="url(#paint3_linear)" stroke-width="3"/>
<defs>
<linearGradient id="paint0_linear" x1="95.5346" y1="187.623" x2="95.5346" y2="5" gradientUnits="userSpaceOnUse">
<stop stop-color="#02AA93"/>
<stop offset="1" stop-color="#67FF80"/>
</linearGradient>
<linearGradient id="paint1_linear" x1="95.5346" y1="187.623" x2="95.5346" y2="5" gradientUnits="userSpaceOnUse">
<stop stop-color="#02AA93"/>
<stop offset="1" stop-color="#67FF80"/>
</linearGradient>
<linearGradient id="paint2_linear" x1="116.655" y1="137.753" x2="116.655" y2="12.6522" gradientUnits="userSpaceOnUse">
<stop stop-color="#02AA93"/>
<stop offset="1" stop-color="#67FF80"/>
</linearGradient>
<linearGradient id="paint3_linear" x1="116.655" y1="137.753" x2="116.655" y2="12.6522" gradientUnits="userSpaceOnUse">
<stop stop-color="#02AA93"/>
<stop offset="1" stop-color="#67FF80"/>
</linearGradient>
</defs>
</svg>
