<svg width="64" height="64" viewBox="0 0 64 64" fill="none" xmlns="http://www.w3.org/2000/svg">
<path fill-rule="evenodd" clip-rule="evenodd" d="M14.0627 6.01963C12.5213 5.98713 10.979 5.95461 9.47396 6.27847C6.56266 7.03055 4.27901 9.58622 4.05972 12.4341C3.98901 13.5521 3.99851 14.6719 4.008 15.7909C4.0117 16.2274 4.0154 16.6638 4.01434 17.0999C3.97654 17.8307 4.24498 18.6148 4.91798 19.0318C6.0825 19.8873 7.98807 19.1852 8.24516 17.8235C8.34435 16.9304 8.32866 16.0343 8.31298 15.1383C8.29937 14.3608 8.28577 13.5835 8.34725 12.8084C8.4569 11.4005 9.76887 10.1957 11.2661 10.1209C12.4246 10.0729 13.5855 10.0848 14.7469 10.0968C16.0873 10.1105 17.4284 10.1243 18.7673 10.046C20.3591 9.8286 21.0548 7.76125 19.9395 6.68838C19.2886 5.96569 18.2968 5.99207 17.3521 6.01719C17.062 6.02491 16.7764 6.0325 16.5064 6.01827C15.6958 6.05407 14.8794 6.03685 14.0627 6.01963ZM27.0361 6.02868C25.8225 5.9467 24.7336 7.00176 24.8394 8.14236C24.847 9.23306 25.9283 10.1776 27.0853 10.0885C31.4229 10.105 35.7606 10.1027 40.0977 10.1004C44.2174 10.0982 48.3367 10.096 52.455 10.1099C54.1867 10.0564 55.7255 11.5071 55.6802 13.1396C55.6967 16.0997 55.694 19.0598 55.6912 22.0198C55.689 24.4598 55.6867 26.8998 55.6952 29.3398C52.0294 29.3563 48.3628 29.3629 44.6957 29.3694C40.4618 29.377 36.2273 29.3846 31.9928 29.4075C30.8661 29.3611 29.8453 30.2879 29.834 31.3465C29.7357 32.4622 30.7717 33.5029 31.9626 33.4709C36.234 33.5152 40.5066 33.4898 44.779 33.4643C48.4143 33.4427 52.0495 33.421 55.684 33.4423C55.6773 34.1129 55.6847 34.784 55.6922 35.455C55.7058 36.685 55.7195 37.9149 55.6461 39.1419C55.4722 40.7671 53.7406 41.922 52.0542 41.7581C45.3109 41.751 38.5675 41.7545 31.8247 41.7581C25.0821 41.7616 18.3399 41.7652 11.5987 41.7581C9.88978 41.8222 8.31315 40.4356 8.32449 38.8174C8.2978 36.7475 8.30461 34.6776 8.31141 32.608C8.31906 30.2799 8.32671 27.9523 8.28668 25.6257C8.33205 24.0965 6.24878 23.0879 4.95572 24.0145C4.09745 24.4993 3.96513 25.5009 4.00671 26.3599C4.02231 28.1244 4.01668 29.8888 4.01104 31.6532C4.00302 34.1661 3.99499 36.6789 4.0483 39.1917C4.17307 42.6955 7.48891 45.7751 11.2131 45.8108C12.5442 45.8117 13.8754 45.8145 15.2065 45.8174C19.0212 45.8254 22.8358 45.8335 26.6504 45.7965C24.8896 47.2753 23.1753 48.8028 21.4614 50.3299C20.2422 51.4162 19.0233 52.5023 17.788 53.5705C17.7385 53.6146 17.6881 53.6589 17.6373 53.7036C17.0598 54.2116 16.4286 54.7668 16.4043 55.563C16.2833 56.7677 17.4667 57.8441 18.7409 57.7265C27.5768 57.7373 36.4166 57.7373 45.2562 57.7265C46.5304 57.8406 47.676 56.7356 47.5474 55.5416C47.5018 54.7166 46.861 54.1676 46.2499 53.6438C46.1031 53.5181 45.9581 53.3938 45.8234 53.2674C44.7277 52.323 43.6535 51.3552 42.5794 50.3873C40.8402 48.8203 39.1011 47.2533 37.271 45.7859C41.0531 45.843 44.8372 45.8339 48.6203 45.8247C50.026 45.8213 51.4316 45.8179 52.8369 45.8179C56.7009 45.768 60.0546 42.446 59.9903 38.8139C59.9911 37.9686 59.9919 37.1231 59.9926 36.2777C59.9999 28.4461 60.0071 20.61 59.9866 12.7796C59.9147 9.23306 56.5951 6.07145 52.8218 6.02868C44.2278 6.01442 35.6301 6.01798 27.0361 6.02868ZM39.9705 53.6453C34.6433 53.6595 29.3198 53.6595 23.9925 53.6489C25.3745 52.4593 26.7376 51.2501 28.1007 50.0409C29.3965 48.8913 30.6923 47.7418 32.0042 46.6092C33.2402 47.687 34.4648 48.7777 35.6898 49.8687C37.1103 51.1338 38.5311 52.3993 39.9705 53.6453Z" fill="url(#paint0_linear)"/>
<path d="M9.47396 6.27847L9.36878 5.78966L9.35879 5.79181L9.3489 5.79437L9.47396 6.27847ZM14.0627 6.01963L14.0733 5.51974L14.0627 6.01963ZM4.05972 12.4341L3.56115 12.3957L3.56072 12.4026L4.05972 12.4341ZM4.008 15.7909L4.50798 15.7867L4.008 15.7909ZM4.01434 17.0999L4.51368 17.1258L4.51431 17.1135L4.51434 17.1011L4.01434 17.0999ZM4.91798 19.0318L5.21399 18.6289L5.19811 18.6172L5.18136 18.6068L4.91798 19.0318ZM8.24516 17.8235L8.73648 17.9163L8.74001 17.8976L8.74211 17.8787L8.24516 17.8235ZM8.31298 15.1383L7.81306 15.1471L7.81306 15.1471L8.31298 15.1383ZM8.34725 12.8084L8.84568 12.8479L8.84574 12.8472L8.34725 12.8084ZM11.2661 10.1209L11.2454 9.62129L11.2411 9.62151L11.2661 10.1209ZM14.7469 10.0968L14.752 9.59679L14.752 9.59679L14.7469 10.0968ZM18.7673 10.046L18.7965 10.5452L18.8158 10.544L18.835 10.5414L18.7673 10.046ZM19.9395 6.68838L19.5679 7.023L19.5799 7.0363L19.5928 7.04872L19.9395 6.68838ZM17.3521 6.01719L17.3388 5.51737L17.3521 6.01719ZM16.5064 6.01827L16.5327 5.51896L16.5085 5.51769L16.4843 5.51875L16.5064 6.01827ZM24.8394 8.14236L25.3394 8.13891L25.3393 8.11749L25.3373 8.09616L24.8394 8.14236ZM27.0361 6.02868L27.0024 6.52754L27.0195 6.5287L27.0367 6.52868L27.0361 6.02868ZM27.0853 10.0885L27.0872 9.58852L27.067 9.58844L27.0469 9.58999L27.0853 10.0885ZM40.0977 10.1004L40.0974 9.60038L40.0974 9.60038L40.0977 10.1004ZM52.455 10.1099L52.4534 10.6099L52.4619 10.6099L52.4705 10.6097L52.455 10.1099ZM55.6802 13.1396L55.1804 13.1257L55.1801 13.134L55.1802 13.1424L55.6802 13.1396ZM55.6912 22.0198L56.1912 22.0203L56.1912 22.0203L55.6912 22.0198ZM55.6952 29.3398L55.6975 29.8397L56.197 29.8375L56.1952 29.338L55.6952 29.3398ZM44.6957 29.3694L44.6966 29.8694L44.6966 29.8694L44.6957 29.3694ZM31.9928 29.4075L31.9723 29.9071L31.9839 29.9076L31.9955 29.9075L31.9928 29.4075ZM29.834 31.3465L30.3321 31.3904L30.3338 31.3711L30.334 31.3518L29.834 31.3465ZM31.9626 33.4709L31.9678 32.9709L31.9585 32.9708L31.9492 32.9711L31.9626 33.4709ZM44.779 33.4643L44.776 32.9643L44.776 32.9643L44.779 33.4643ZM55.684 33.4423L56.1839 33.4473L56.1889 32.9453L55.6869 32.9424L55.684 33.4423ZM55.6922 35.455L56.1921 35.4494L56.1921 35.4494L55.6922 35.455ZM55.6461 39.1419L56.1433 39.1951L56.1445 39.1834L56.1452 39.1717L55.6461 39.1419ZM52.0542 41.7581L52.1026 41.2604L52.0787 41.2581L52.0548 41.2581L52.0542 41.7581ZM31.8247 41.7581L31.8249 42.2581L31.8249 42.2581L31.8247 41.7581ZM11.5987 41.7581L11.5993 41.2581L11.5896 41.2581L11.58 41.2584L11.5987 41.7581ZM8.32449 38.8174L8.82458 38.8209L8.82445 38.811L8.32449 38.8174ZM8.31141 32.608L7.81141 32.6064L8.31141 32.608ZM8.28668 25.6257L7.7869 25.6108L7.78655 25.6226L7.78676 25.6343L8.28668 25.6257ZM4.95572 24.0145L5.20163 24.4499L5.22508 24.4366L5.24697 24.4209L4.95572 24.0145ZM4.00671 26.3599L4.50669 26.3555L4.50661 26.3456L4.50613 26.3357L4.00671 26.3599ZM4.01104 31.6532L3.51104 31.6516L4.01104 31.6532ZM4.0483 39.1917L3.54836 39.2023L3.54862 39.2095L4.0483 39.1917ZM11.2131 45.8108L11.2083 46.3108L11.2128 46.3108L11.2131 45.8108ZM15.2065 45.8174L15.2076 45.3174L15.2076 45.3174L15.2065 45.8174ZM26.6504 45.7965L26.972 46.1794L28.0393 45.283L26.6456 45.2965L26.6504 45.7965ZM21.4614 50.3299L21.1287 49.9566L21.1287 49.9566L21.4614 50.3299ZM17.788 53.5705L17.4609 53.1923L17.4556 53.197L17.788 53.5705ZM17.6373 53.7036L17.3071 53.3281L17.3071 53.3282L17.6373 53.7036ZM16.4043 55.563L16.9018 55.613L16.9035 55.5956L16.904 55.5782L16.4043 55.563ZM18.7409 57.7265L18.7415 57.2265L18.7181 57.2265L18.6949 57.2286L18.7409 57.7265ZM45.2562 57.7265L45.3008 57.2285L45.2782 57.2265L45.2556 57.2265L45.2562 57.7265ZM47.5474 55.5416L47.0482 55.5692L47.0489 55.5822L47.0503 55.5951L47.5474 55.5416ZM46.2499 53.6438L45.9245 54.0235L45.9245 54.0235L46.2499 53.6438ZM45.8234 53.2674L46.1654 52.9027L46.1577 52.8956L46.1498 52.8887L45.8234 53.2674ZM42.5794 50.3873L42.2447 50.7588L42.2447 50.7588L42.5794 50.3873ZM37.271 45.7859L37.2785 45.2859L35.8207 45.2639L36.9582 46.1759L37.271 45.7859ZM48.6203 45.8247L48.6191 45.3247L48.6191 45.3247L48.6203 45.8247ZM52.8369 45.8179V46.3179L52.8434 46.3178L52.8369 45.8179ZM59.9903 38.8139L59.4903 38.8135L59.4904 38.8228L59.9903 38.8139ZM59.9926 36.2777L60.4926 36.2781L60.4926 36.2781L59.9926 36.2777ZM59.9866 12.7796L60.4867 12.7783L60.4865 12.7695L59.9866 12.7796ZM52.8218 6.02868L52.8275 5.52869L52.8226 5.52868L52.8218 6.02868ZM23.9925 53.6489L23.6664 53.2699L22.6484 54.1462L23.9915 54.1489L23.9925 53.6489ZM39.9705 53.6453L39.9719 54.1453L41.308 54.1417L40.2978 53.2673L39.9705 53.6453ZM28.1007 50.0409L27.7689 49.6668L27.7689 49.6668L28.1007 50.0409ZM32.0042 46.6092L32.3328 46.2324L32.0059 45.9473L31.6775 46.2308L32.0042 46.6092ZM35.6898 49.8687L35.3572 50.2421L35.3572 50.2421L35.6898 49.8687ZM9.57914 6.76729C11.0174 6.4578 12.5006 6.48681 14.0522 6.51952L14.0733 5.51974C12.5421 5.48746 10.9407 5.45143 9.36878 5.78966L9.57914 6.76729ZM4.55825 12.4725C4.7595 9.85883 6.87345 7.46668 9.59902 6.76258L9.3489 5.79437C6.25188 6.59443 3.79852 9.31361 3.5612 12.3957L4.55825 12.4725ZM4.50798 15.7867C4.49846 14.6647 4.48933 13.5628 4.55872 12.4657L3.56072 12.4026C3.48868 13.5414 3.49855 14.6792 3.50802 15.7951L4.50798 15.7867ZM4.51434 17.1011C4.51541 16.6619 4.51168 16.2227 4.50798 15.7867L3.50802 15.7951C3.51172 16.2321 3.5154 16.6658 3.51434 17.0987L4.51434 17.1011ZM5.18136 18.6068C4.70937 18.3143 4.48211 17.7359 4.51368 17.1258L3.51501 17.0741C3.47097 17.9255 3.78059 18.9152 4.6546 19.4568L5.18136 18.6068ZM7.75384 17.7308C7.66593 18.1963 7.28338 18.5948 6.75038 18.7894C6.21922 18.9833 5.63445 18.9377 5.21399 18.6289L4.62197 19.4348C5.36603 19.9814 6.3163 20.0124 7.09333 19.7288C7.86852 19.4457 8.56729 18.8123 8.73648 17.9163L7.75384 17.7308ZM7.81306 15.1471C7.82883 16.0484 7.84328 16.9124 7.74822 17.7683L8.74211 17.8787C8.84542 16.9484 8.82849 16.0202 8.81291 15.1296L7.81306 15.1471ZM7.84881 12.7689C7.7851 13.5721 7.79952 14.3736 7.81306 15.1471L8.81291 15.1296C8.79922 14.348 8.78643 13.5949 8.84568 12.8479L7.84881 12.7689ZM11.2411 9.62151C9.51769 9.70766 7.97982 11.0867 7.84876 12.7696L8.84574 12.8472C8.93397 11.7143 10.02 10.6838 11.2911 10.6203L11.2411 9.62151ZM14.752 9.59679C13.5928 9.58487 12.4189 9.5727 11.2454 9.62131L11.2868 10.6205C12.4302 10.5731 13.5781 10.5848 14.7418 10.5967L14.752 9.59679ZM18.7381 9.54688C17.4192 9.624 16.0953 9.61059 14.752 9.59679L14.7418 10.5967C16.0793 10.6105 17.4376 10.6246 18.7965 10.5452L18.7381 9.54688ZM19.5928 7.04872C19.9843 7.42532 20.0785 7.99461 19.8958 8.52522C19.7136 9.05432 19.2796 9.47141 18.6997 9.55063L18.835 10.5414C19.8468 10.4032 20.5565 9.67792 20.8413 8.85077C21.1256 8.02513 21.0099 7.02431 20.2861 6.32803L19.5928 7.04872ZM17.3654 6.51701C17.8487 6.50416 18.2796 6.49459 18.6673 6.56443C19.041 6.63175 19.3377 6.76732 19.5679 7.023L20.311 6.35376C19.8904 5.88675 19.3657 5.67416 18.8446 5.58028C18.3375 5.48892 17.8002 5.5051 17.3388 5.51737L17.3654 6.51701ZM16.4801 6.51757C16.7734 6.53304 17.0795 6.52462 17.3654 6.51701L17.3388 5.51737C17.0445 5.52519 16.7793 5.53196 16.5327 5.51896L16.4801 6.51757ZM14.0522 6.51952C14.8661 6.53668 15.6989 6.55442 16.5285 6.51778L16.4843 5.51875C15.6928 5.55371 14.8927 5.53702 14.0733 5.51974L14.0522 6.51952ZM25.3373 8.09616C25.2628 7.29312 26.0642 6.46416 27.0024 6.52754L27.0698 5.52982C25.5808 5.42923 24.2044 6.71039 24.3416 8.18856L25.3373 8.09616ZM27.0469 9.58999C26.1511 9.65899 25.3448 8.91251 25.3394 8.13891L24.3394 8.14581C24.3492 9.55361 25.7055 10.6963 27.1237 10.587L27.0469 9.58999ZM40.0974 9.60038C35.7601 9.60267 31.4236 9.60497 27.0872 9.58852L27.0834 10.5885C31.4223 10.605 35.761 10.6027 40.0979 10.6004L40.0974 9.60038ZM52.4567 9.60991C48.3372 9.59601 44.217 9.5982 40.0974 9.60038L40.0979 10.6004C44.2178 10.5982 48.3361 10.596 52.4534 10.6099L52.4567 9.60991ZM56.18 13.1535C56.2341 11.2056 54.4302 9.54868 52.4396 9.61014L52.4705 10.6097C53.9433 10.5642 55.217 11.8087 55.1804 13.1257L56.18 13.1535ZM56.1912 22.0203C56.194 19.0605 56.1967 16.0988 56.1802 13.1368L55.1802 13.1424C55.1967 16.1006 55.194 19.059 55.1912 22.0194L56.1912 22.0203ZM56.1952 29.338C56.1867 26.8993 56.189 24.4605 56.1912 22.0203L55.1912 22.0194C55.189 24.4592 55.1867 26.9002 55.1953 29.3415L56.1952 29.338ZM44.6966 29.8694C48.3636 29.8628 52.0309 29.8563 55.6975 29.8397L55.693 28.8398C52.028 28.8563 48.362 28.8629 44.6948 28.8694L44.6966 29.8694ZM31.9955 29.9075C36.229 29.8846 40.4626 29.877 44.6966 29.8694L44.6948 28.8694C40.4611 28.877 36.2257 28.8846 31.9901 28.9075L31.9955 29.9075ZM30.334 31.3518C30.342 30.5999 31.1023 29.8713 31.9723 29.9071L32.0134 28.9079C30.63 28.851 29.3486 29.9759 29.334 31.3411L30.334 31.3518ZM31.9492 32.9711C31.0261 32.9959 30.2626 32.1784 30.3321 31.3904L29.3359 31.3026C29.2087 32.7459 30.5173 34.01 31.9761 33.9707L31.9492 32.9711ZM44.776 32.9643C40.5029 32.9898 36.2345 33.0152 31.9678 32.9709L31.9575 33.9709C36.2336 34.0152 40.5102 33.9897 44.782 33.9643L44.776 32.9643ZM55.6869 32.9424C52.049 32.921 48.4108 32.9427 44.776 32.9643L44.782 33.9643C48.4178 33.9427 52.0501 33.921 55.681 33.9423L55.6869 32.9424ZM56.1921 35.4494C56.1847 34.7775 56.1773 34.1118 56.1839 33.4473L55.184 33.4374C55.1772 34.1141 55.1848 34.7904 55.1922 35.4605L56.1921 35.4494ZM56.1452 39.1717C56.2198 37.9241 56.2058 36.6765 56.1921 35.4494L55.1922 35.4605C55.2059 36.6935 55.2191 37.9057 55.147 39.112L56.1452 39.1717ZM52.0058 42.2557C53.9002 42.4399 55.9337 41.1536 56.1433 39.1951L55.149 39.0886C55.0107 40.3806 53.5809 41.4042 52.1026 41.2604L52.0058 42.2557ZM31.8249 42.2581C38.5679 42.2545 45.3108 42.251 52.0537 42.2581L52.0548 41.2581C45.311 41.251 38.5672 41.2545 31.8244 41.2581L31.8249 42.2581ZM11.5982 42.2581C18.3399 42.2652 25.0824 42.2616 31.8249 42.2581L31.8244 41.2581C25.0817 41.2616 18.34 41.2652 11.5993 41.2581L11.5982 42.2581ZM7.82451 38.8139C7.81089 40.7564 9.66487 42.331 11.6175 42.2577L11.58 41.2584C10.1147 41.3134 8.81541 40.1148 8.82448 38.8209L7.82451 38.8139ZM7.81141 32.6064C7.80461 34.6753 7.79778 36.7492 7.82454 38.8239L8.82445 38.811C8.79782 36.7458 8.8046 34.6799 8.81141 32.6096L7.81141 32.6064ZM7.78676 25.6343C7.82668 27.9549 7.81907 30.2774 7.81141 32.6064L8.81141 32.6096C8.81906 30.2824 8.82674 27.9497 8.78661 25.6171L7.78676 25.6343ZM5.24697 24.4209C5.7121 24.0876 6.35397 24.0824 6.90533 24.3492C7.45841 24.6169 7.80216 25.0967 7.7869 25.6108L8.78646 25.6405C8.81658 24.6255 8.14137 23.8364 7.34089 23.4491C6.5387 23.0609 5.49239 23.0148 4.66447 23.6081L5.24697 24.4209ZM4.50613 26.3357C4.46534 25.4933 4.61755 24.7798 5.20163 24.4499L4.7098 23.5792C3.57735 24.2189 3.46491 25.5085 3.5073 26.3841L4.50613 26.3357ZM4.51104 31.6548C4.51667 29.8909 4.52232 28.1235 4.50669 26.3555L3.50673 26.3643C3.5223 28.1253 3.51668 29.8867 3.51104 31.6516L4.51104 31.6548ZM4.54819 39.1811C4.49503 36.6754 4.50301 34.1687 4.51104 31.6548L3.51104 31.6516C3.50302 34.1634 3.49495 36.6824 3.54841 39.2023L4.54819 39.1811ZM11.2179 45.3108C7.73701 45.2775 4.6624 42.3871 4.54798 39.1739L3.54862 39.2095C3.68373 43.0038 7.24081 46.2728 11.2083 46.3108L11.2179 45.3108ZM15.2076 45.3174C13.8765 45.3145 12.545 45.3117 11.2134 45.3108L11.2128 46.3108C12.5435 46.3117 13.8743 46.3145 15.2055 46.3174L15.2076 45.3174ZM26.6456 45.2965C22.8344 45.3335 19.0227 45.3254 15.2076 45.3174L15.2055 46.3174C19.0196 46.3254 22.8372 46.3335 26.6553 46.2965L26.6456 45.2965ZM21.794 50.7032C23.5088 49.1753 25.2177 47.6527 26.972 46.1794L26.3289 45.4136C24.5615 46.8979 22.8417 48.4303 21.1287 49.9566L21.794 50.7032ZM18.1151 53.9487C19.3536 52.8776 20.5753 51.7891 21.794 50.7032L21.1287 49.9566C19.9091 51.0433 18.693 52.1269 17.461 53.1923L18.1151 53.9487ZM17.9676 54.079C18.0182 54.0345 18.0697 53.9892 18.1205 53.9439L17.4556 53.197C17.4073 53.24 17.3581 53.2833 17.3071 53.3281L17.9676 54.079ZM16.904 55.5782C16.912 55.3182 17.0171 55.0795 17.2091 54.8308C17.4075 54.5738 17.6716 54.3394 17.9676 54.079L17.3071 53.3282C17.0256 53.5758 16.6852 53.873 16.4176 54.2197C16.1435 54.5746 15.9209 55.0117 15.9045 55.5477L16.904 55.5782ZM18.6949 57.2286C17.6856 57.3218 16.8169 56.4583 16.9018 55.613L15.9068 55.513C15.7497 57.0771 17.2478 58.3664 18.7868 58.2244L18.6949 57.2286ZM45.2556 57.2265C36.4164 57.2373 27.577 57.2373 18.7415 57.2265L18.7402 58.2265C27.5766 58.2373 36.4168 58.2373 45.2568 58.2265L45.2556 57.2265ZM47.0503 55.5951C47.1417 56.4438 46.2936 57.3174 45.3008 57.2285L45.2116 58.2245C46.7673 58.3638 48.2104 57.0274 48.0446 55.488L47.0503 55.5951ZM45.9245 54.0235C46.5761 54.5819 47.0164 54.9944 47.0482 55.5692L48.0467 55.514C47.9871 54.4388 47.1459 53.7532 46.5752 53.2642L45.9245 54.0235ZM45.4813 53.6322C45.6256 53.7675 45.7794 53.8991 45.9245 54.0235L46.5752 53.2642C46.4268 53.137 46.2905 53.02 46.1654 52.9027L45.4813 53.6322ZM42.2447 50.7588C43.3182 51.726 44.3964 52.6975 45.4969 53.6462L46.1498 52.8887C45.059 51.9485 43.9889 50.9843 42.9141 50.0159L42.2447 50.7588ZM36.9582 46.1759C38.7752 47.6329 40.5038 49.1902 42.2447 50.7588L42.9141 50.0159C41.1767 48.4504 39.427 46.8738 37.5838 45.3958L36.9582 46.1759ZM48.6191 45.3247C44.8352 45.3339 41.0555 45.343 37.2785 45.2859L37.2634 46.2858C41.0506 46.343 44.8391 46.3338 48.6215 46.3247L48.6191 45.3247ZM52.8369 45.3179C51.4309 45.3179 50.0247 45.3213 48.6191 45.3247L48.6215 46.3247C50.0274 46.3213 51.4323 46.3179 52.8369 46.3179V45.3179ZM59.4904 38.8228C59.5494 42.1555 56.4404 45.2714 52.8305 45.3179L52.8434 46.3178C56.9615 46.2647 60.5598 42.7366 60.4903 38.8051L59.4904 38.8228ZM59.4926 36.2772C59.4919 37.1227 59.4911 37.9681 59.4903 38.8135L60.4903 38.8144C60.4911 37.969 60.4919 37.1236 60.4926 36.2781L59.4926 36.2772ZM59.4866 12.7809C59.5071 20.6102 59.4999 28.4455 59.4926 36.2772L60.4926 36.2781C60.4999 28.4467 60.5071 20.6097 60.4866 12.7783L59.4866 12.7809ZM52.8161 6.52865C56.3416 6.56861 59.4207 9.53473 59.4867 12.7898L60.4865 12.7695C60.4087 8.93139 56.8486 5.57429 52.8275 5.52871L52.8161 6.52865ZM27.0367 6.52868C35.6304 6.51798 44.2277 6.51442 52.821 6.52868L52.8226 5.52868C44.228 5.51442 35.6297 5.51798 27.0355 5.52868L27.0367 6.52868ZM23.9915 54.1489C29.3195 54.1595 34.6437 54.1595 39.9719 54.1453L39.9692 53.1453C34.6428 53.1595 29.3201 53.1595 23.9935 53.1489L23.9915 54.1489ZM27.7689 49.6668C26.4053 50.8765 25.045 52.0832 23.6664 53.2699L24.3187 54.0278C25.704 52.8354 27.0699 51.6237 28.4325 50.4149L27.7689 49.6668ZM31.6775 46.2308C30.3625 47.3659 29.0642 48.5177 27.7689 49.6668L28.4325 50.4149C29.7287 49.265 31.022 48.1177 32.331 46.9877L31.6775 46.2308ZM36.0223 49.4953C34.7977 48.4046 33.5711 47.3121 32.3328 46.2324L31.6756 46.9861C32.9093 48.0618 34.132 49.1508 35.3572 50.2421L36.0223 49.4953ZM40.2978 53.2673C38.8615 52.024 37.4433 50.7609 36.0223 49.4953L35.3572 50.2421C36.7773 51.5068 38.2008 52.7747 39.6433 54.0234L40.2978 53.2673Z" fill="url(#paint1_linear)"/>
<defs>
<linearGradient id="paint0_linear" x1="32" y1="57.7353" x2="32" y2="6" gradientUnits="userSpaceOnUse">
<stop stop-color="#A93AFF"/>
<stop offset="1" stop-color="#FF81FF"/>
</linearGradient>
<linearGradient id="paint1_linear" x1="32" y1="57.7353" x2="32" y2="6" gradientUnits="userSpaceOnUse">
<stop stop-color="#A93AFF"/>
<stop offset="1" stop-color="#FF81FF"/>
</linearGradient>
</defs>
</svg>
