<svg width="128" height="128" viewBox="0 0 128 128" fill="none" xmlns="http://www.w3.org/2000/svg">
<path d="M28.5474 71.6294C26.9406 71.6294 25.6379 72.932 25.6379 74.5388C25.6379 76.1456 26.9406 77.4483 28.5474 77.4483C30.1542 77.4483 31.4569 76.1456 31.4569 74.5388C31.4569 72.932 30.1542 71.6294 28.5474 71.6294ZM40.1853 71.6294C38.5785 71.6294 37.2759 72.932 37.2759 74.5388C37.2759 76.1456 38.5785 77.4483 40.1853 77.4483C41.7922 77.4483 43.0948 76.1456 43.0948 74.5388C43.0948 72.932 41.7922 71.6294 40.1853 71.6294ZM110.401 54.1725H95.6595V39.2371C95.6595 38.2644 95.1738 37.3559 94.3638 36.8163L76.9069 25.1783C76.429 24.8596 75.8674 24.6897 75.2931 24.6897H34.3664C32.7596 24.6897 31.4569 25.9924 31.4569 27.5992V54.1725H16.9095C15.3027 54.1725 14 55.4751 14 57.0819V97.8147C14 99.4215 15.3027 100.724 16.9095 100.724H31.4569V121.091C31.4569 122.697 32.7596 124 34.3664 124H92.75C94.3568 124 95.6595 122.697 95.6595 121.091V100.724H110.401C112.008 100.724 113.31 99.4215 113.31 97.8147V57.0819C113.31 55.4751 112.008 54.1725 110.401 54.1725ZM78.2026 33.0356L83.1406 36.3276H78.2026V33.0356ZM37.2759 30.5087H72.3836V39.2371C72.3836 40.8439 73.6863 42.1466 75.2931 42.1466H89.8405V57.0819C89.8405 58.6862 88.5353 59.9914 86.931 59.9914H40.1853C38.5811 59.9914 37.2759 58.6862 37.2759 57.0819V30.5087ZM89.8405 118.181H37.2759V91.9957C37.2759 90.3915 38.5811 89.0863 40.1853 89.0863H86.931C88.5353 89.0863 89.8405 90.3915 89.8405 91.9957V118.181ZM107.491 94.9052H95.6595V91.9957C95.6595 87.1829 91.7437 83.2673 86.931 83.2673H40.1853C35.3725 83.2673 31.4569 87.1829 31.4569 91.9957V94.9052H19.819V59.9914H31.9573C33.1584 63.3778 36.3923 65.8104 40.1853 65.8104H86.931C90.7241 65.8104 93.958 63.3778 95.1591 59.9914H107.491V94.9052ZM81.1121 94.9052H46.0043C44.3975 94.9052 43.0948 96.2079 43.0948 97.8147C43.0948 99.4215 44.3975 100.724 46.0043 100.724H81.1121C82.7189 100.724 84.0216 99.4215 84.0216 97.8147C84.0216 96.2079 82.7189 94.9052 81.1121 94.9052ZM81.1121 106.543H46.0043C44.3975 106.543 43.0948 107.846 43.0948 109.453C43.0948 111.059 44.3975 112.362 46.0043 112.362H81.1121C82.7189 112.362 84.0216 111.059 84.0216 109.453C84.0216 107.846 82.7189 106.543 81.1121 106.543Z" fill="url(#paint0_linear)"/>
<path d="M46.9243 10.2472C51.577 6.23511 57.5113 4.01927 63.655 4C76.1774 4 86.5724 13.3103 87.7036 25.316C95.1146 26.3634 100.896 32.5688 100.896 40.1847C100.896 48.5453 93.9229 55.2069 85.4737 55.2069H44.0148C34.3646 55.2069 26.4136 47.6003 26.4136 38.0666C26.4136 29.8595 32.307 23.0629 40.1091 21.3405C40.7748 17.3231 43.3584 13.3197 46.9243 10.2472V10.2472Z" fill="url(#paint1_linear)"/>
<defs>
<linearGradient id="paint0_linear" x1="63.6551" y1="24.6897" x2="63.6551" y2="124" gradientUnits="userSpaceOnUse">
<stop stop-color="#BAFA52"/>
<stop offset="1" stop-color="#3F8F5B"/>
</linearGradient>
<linearGradient id="paint1_linear" x1="63.655" y1="55.2069" x2="63.655" y2="4" gradientUnits="userSpaceOnUse">
<stop stop-color="#5570FF"/>
<stop offset="1" stop-color="#4DD3FF"/>
</linearGradient>
</defs>
</svg>
