<svg width="128" height="128" viewBox="0 0 128 128" fill="none" xmlns="http://www.w3.org/2000/svg">
<path fill-rule="evenodd" clip-rule="evenodd" d="M25.6927 16.9526C23.8449 16.9526 21.99 17.0897 20.2075 17.5009C12.7298 19.098 6.99103 25.0337 6.94755 31.4103C6.93306 53.0673 6.93306 74.7242 6.94031 96.3755C6.94031 103.98 15.0557 110.72 24.287 110.869C43.02 110.906 61.7565 110.9 80.4939 110.892C88.0654 110.889 95.637 110.886 103.209 110.886C112.599 110.941 121.128 104.134 121.041 96.363C121.062 83.7141 121.059 71.0649 121.055 58.4159C121.052 49.6227 121.049 40.8294 121.056 32.0362C121.302 25.9455 116.36 20.0634 109.44 17.9477C106.332 16.9167 102.927 16.899 99.6296 16.9526C91.4155 16.9526 83.2006 16.9532 74.9855 16.9539C58.5542 16.9552 42.1218 16.9565 25.6927 16.9526ZM15.6498 31.3985C15.5557 27.8884 19.1135 24.825 23.1856 24.1516C24.058 24.0141 24.9452 24.0102 25.8309 24.0064C26.0193 24.0056 26.2075 24.0048 26.3956 24.0027C37.7637 24.0107 49.1318 24.0092 60.4993 24.0077C74.7083 24.0058 88.9164 24.004 103.122 24.0206C108.172 24.0206 112.724 27.7929 112.469 31.9826C112.506 53.2521 112.492 74.5216 112.477 95.7915C112.715 99.9684 108.281 103.801 103.195 103.771C81.8667 103.814 60.5338 103.807 39.204 103.799C34.4899 103.797 29.776 103.795 25.0623 103.795C20.2075 103.908 15.5339 100.469 15.6426 96.4049C15.6455 87.7428 15.6438 79.0806 15.6421 70.4185C15.6395 57.4118 15.6368 44.4051 15.6498 31.3985ZM68.4728 80.562C67.7109 80.5699 66.935 80.578 66.234 80.9571C64.915 81.6018 64.0158 83.2424 64.0039 84.94C63.9019 87.3686 65.8204 89.7325 67.8827 89.489C73.8892 89.5091 79.8986 89.5045 85.9069 89.5C88.4806 89.4981 91.0541 89.4962 93.6269 89.4962C95.8032 89.84 97.8363 87.4616 97.6674 84.8684C97.6376 82.4184 95.7007 80.3769 93.6688 80.5702C89.4223 80.548 85.1742 80.5527 80.9262 80.5574C76.9755 80.5617 73.025 80.5661 69.0759 80.5488C68.877 80.5578 68.6754 80.5599 68.4728 80.562Z" fill="url(#paint0_linear)"/>
<path d="M20.2074 17.5006L20.4029 18.4155L20.4103 18.4139L20.4177 18.4121L20.2074 17.5006ZM25.6926 16.9523L25.6928 16.0168H25.6926V16.9523ZM6.94749 31.4101L6.01201 31.4037L6.012 31.4095L6.94749 31.4101ZM6.94024 96.3752H7.87573V96.3749L6.94024 96.3752ZM24.287 110.868L24.2719 111.804H24.2851L24.287 110.868ZM80.4938 110.892L80.4942 111.827L80.4938 110.892ZM103.209 110.885L103.214 109.95H103.209V110.885ZM121.041 96.3627L120.105 96.3611V96.3732L121.041 96.3627ZM121.055 58.4156L120.119 58.4159L121.055 58.4156ZM121.056 32.0359L120.12 31.9981V32.0166V32.0352L121.056 32.0359ZM109.44 17.9474L109.145 18.8354L109.156 18.8389L109.167 18.8421L109.44 17.9474ZM99.6295 16.9523V17.8878H99.637L99.6445 17.8876L99.6295 16.9523ZM74.9854 16.9536V17.8891V16.9536ZM23.1855 24.1513L23.0398 23.2272L23.0329 23.2283L23.1855 24.1513ZM15.6498 31.3982L16.5853 31.3991V31.3861L16.585 31.3731L15.6498 31.3982ZM25.8308 24.0061L25.8348 24.9416L25.8308 24.0061ZM26.3956 24.0024L26.3962 23.0669L26.3851 23.067L26.3956 24.0024ZM60.4992 24.0074L60.4993 24.9429L60.4992 24.0074ZM103.122 24.0203L103.121 24.9558H103.122V24.0203ZM112.469 31.9823L111.535 31.9256L111.534 31.9547V31.9839L112.469 31.9823ZM112.477 95.7912L111.541 95.7906V95.8176L111.542 95.8446L112.477 95.7912ZM103.195 103.771L103.199 102.835H103.192L103.195 103.771ZM39.2039 103.799L39.2043 102.863L39.2039 103.799ZM25.0622 103.794L25.0625 102.859H25.0515L25.0404 102.86L25.0622 103.794ZM15.6426 96.4046L16.5778 96.4297L16.5781 96.4173V96.405L15.6426 96.4046ZM15.642 70.4182L14.7065 70.4184L15.642 70.4182ZM66.234 80.9568L66.6448 81.7973L66.6621 81.7888L66.6791 81.7797L66.234 80.9568ZM68.4728 80.5618L68.463 79.6263L68.4728 80.5618ZM64.0038 84.9397L64.9384 84.979L64.9391 84.9627L64.9392 84.9464L64.0038 84.9397ZM67.8827 89.4887L67.8858 88.5532L67.8293 88.553L67.773 88.5597L67.8827 89.4887ZM85.9069 89.4997L85.9076 90.4352L85.9069 89.4997ZM93.6268 89.4959L93.7729 88.5718L93.7003 88.5604H93.6268V89.4959ZM97.6674 84.8681L96.732 84.8795L96.7323 84.9041L96.7339 84.9287L97.6674 84.8681ZM93.6688 80.5699L93.6639 81.5054L93.7108 81.5057L93.7574 81.5013L93.6688 80.5699ZM80.9262 80.5571L80.9252 79.6216L80.9262 80.5571ZM69.0758 80.5485L69.0799 79.613L69.0565 79.6129L69.0332 79.6139L69.0758 80.5485ZM20.4177 18.4121C22.1087 18.022 23.888 17.8878 25.6926 17.8878V16.0168C23.8018 16.0168 21.8712 16.1568 19.9971 16.589L20.4177 18.4121ZM7.88295 31.4165C7.9226 25.6003 13.2231 19.9489 20.4029 18.4155L20.0121 16.5858C12.2363 18.2465 6.05932 24.4665 6.01203 31.4037L7.88295 31.4165ZM7.87573 96.3749C7.86848 74.7238 7.86848 53.0672 7.88297 31.4107L6.012 31.4095C5.99751 53.0668 5.99751 74.7241 6.00476 96.3755L7.87573 96.3749ZM24.302 109.934C19.9041 109.863 15.7726 108.219 12.751 105.699C9.72509 103.176 7.87573 99.8334 7.87573 96.3752H6.00476C6.00476 100.52 8.21311 104.351 11.5527 107.136C14.8966 109.924 19.4386 111.726 24.2719 111.804L24.302 109.934ZM80.4935 109.956C61.7559 109.964 43.0205 109.97 24.2889 109.933L24.2851 111.804C43.0193 111.841 61.757 111.835 80.4942 111.827L80.4935 109.956ZM103.209 109.95C95.6367 109.95 88.0649 109.953 80.4935 109.956L80.4942 111.827C88.0657 111.824 95.6372 111.821 103.209 111.821V109.95ZM120.105 96.3732C120.145 99.9008 118.226 103.295 115.09 105.832C111.959 108.365 107.689 109.976 103.214 109.951L103.203 111.821C108.119 111.85 112.808 110.085 116.267 107.286C119.722 104.491 122.024 100.597 121.976 96.3523L120.105 96.3732ZM120.119 58.4159C120.123 71.0651 120.127 83.7132 120.105 96.3611L121.976 96.3643C121.998 83.7142 121.994 71.0643 121.99 58.4154L120.119 58.4159ZM120.12 32.0352C120.114 40.829 120.117 49.6228 120.119 58.4159L121.99 58.4154C121.988 49.622 121.985 40.8292 121.991 32.0365L120.12 32.0352ZM109.167 18.8421C115.798 20.8698 120.345 26.4452 120.12 31.9981L121.99 32.0736C122.258 25.4453 116.921 19.2566 109.714 17.0528L109.167 18.8421ZM99.6445 17.8876C102.953 17.8338 106.208 17.8609 109.145 18.8354L109.735 17.0596C106.456 15.9721 102.9 15.9635 99.6146 16.0169L99.6445 17.8876ZM74.9854 17.8891C83.2006 17.8884 91.4155 17.8878 99.6295 17.8878V16.0168C91.4154 16.0168 83.2004 16.0175 74.9853 16.0181L74.9854 17.8891ZM25.6925 17.8878C42.1218 17.8917 58.5542 17.8904 74.9854 17.8891L74.9853 16.0181C58.554 16.0194 42.1218 16.0207 25.6928 16.0168L25.6925 17.8878ZM23.0329 23.2283C20.8242 23.5936 18.7459 24.6061 17.2185 26.0258C15.6924 27.444 14.6585 29.33 14.7147 31.4232L16.585 31.3731C16.5469 29.9562 17.2448 28.5555 18.4921 27.3962C19.738 26.2383 21.4747 25.3825 23.3382 25.0742L23.0329 23.2283ZM25.8268 23.0706C24.9534 23.0744 23.9945 23.0767 23.0398 23.2272L23.3313 25.0754C24.1214 24.9507 24.9369 24.9454 25.8348 24.9416L25.8268 23.0706ZM26.3851 23.067C26.2008 23.069 26.0157 23.0699 25.8268 23.0706L25.8348 24.9416C26.0227 24.9408 26.2142 24.94 26.4059 24.9378L26.3851 23.067ZM60.499 23.0719C49.1315 23.0734 37.7638 23.0749 26.3962 23.067L26.3949 24.9379C37.7634 24.9459 49.1319 24.9444 60.4993 24.9429L60.499 23.0719ZM103.123 23.0848C88.9167 23.0683 74.708 23.0701 60.499 23.0719L60.4993 24.9429C74.7084 24.941 88.9159 24.9392 103.121 24.9558L103.123 23.0848ZM113.403 32.0389C113.552 29.5734 112.286 27.3178 110.389 25.7154C108.486 24.1094 105.873 23.0848 103.122 23.0848V24.9558C105.421 24.9558 107.609 25.8175 109.181 27.145C110.758 28.4762 111.64 30.2015 111.535 31.9256L113.403 32.0389ZM113.412 95.7919C113.427 74.5222 113.441 53.2515 113.405 31.9807L111.534 31.9839C111.57 53.2521 111.556 74.5205 111.541 95.7906L113.412 95.7919ZM103.189 104.706C105.964 104.722 108.562 103.688 110.443 102.067C112.319 100.452 113.55 98.186 113.41 95.7378L111.542 95.8446C111.641 97.5733 110.774 99.3133 109.222 100.65C107.674 101.982 105.512 102.848 103.199 102.835L103.189 104.706ZM39.2036 104.734C60.5332 104.742 81.8672 104.749 103.197 104.706L103.192 102.835C81.866 102.878 60.5343 102.871 39.2043 102.863L39.2036 104.734ZM25.062 104.73C29.7756 104.731 34.4895 104.733 39.2036 104.734L39.2043 102.863C34.4902 102.862 29.7762 102.86 25.0625 102.859L25.062 104.73ZM14.7075 96.3796C14.6428 98.796 15.9991 100.931 17.9211 102.408C19.8487 103.889 22.4387 104.791 25.0841 104.73L25.0404 102.86C22.8311 102.911 20.6569 102.151 19.0611 100.924C17.4598 99.694 16.5337 98.0766 16.5778 96.4297L14.7075 96.3796ZM14.7065 70.4184C14.7082 79.0806 14.71 87.7424 14.7071 96.4043L16.5781 96.405C16.581 87.7425 16.5792 79.0801 16.5775 70.4181L14.7065 70.4184ZM14.7143 31.3972C14.7013 44.4046 14.7039 57.4118 14.7065 70.4184L16.5775 70.4181C16.5749 57.4112 16.5723 44.4051 16.5853 31.3991L14.7143 31.3972ZM66.6791 81.7797C67.1436 81.5284 67.6813 81.5055 68.4825 81.4971L68.463 79.6263C67.7404 79.6339 66.7262 79.627 65.789 80.134L66.6791 81.7797ZM64.9392 84.9464C64.9493 83.5213 65.7125 82.253 66.6448 81.7973L65.8232 80.1164C64.1174 80.9502 63.0822 82.9629 63.0683 84.9331L64.9392 84.9464ZM67.773 88.5597C67.1479 88.6335 66.439 88.3194 65.8484 87.6151C65.2633 86.9174 64.8979 85.9444 64.9384 84.979L63.0691 84.9005C63.0077 86.3636 63.5506 87.7869 64.4148 88.8174C65.2735 89.8413 66.555 90.5874 67.9924 90.4177L67.773 88.5597ZM85.9062 88.5642C79.8975 88.5687 73.8901 88.5733 67.8858 88.5532L67.8796 90.4242C73.8883 90.4443 79.8996 90.4397 85.9076 90.4352L85.9062 88.5642ZM93.6268 88.5604C91.0535 88.5604 88.4797 88.5623 85.9062 88.5642L85.9076 90.4352C88.4813 90.4332 91.0544 90.4314 93.6268 90.4314V88.5604ZM96.7339 84.9287C96.8015 85.9698 96.4242 86.9731 95.8195 87.6707C95.212 88.3714 94.4611 88.6806 93.7729 88.5718L93.4809 90.4199C94.969 90.6549 96.3225 89.9468 97.2333 88.8962C98.1468 87.8422 98.7015 86.3597 98.6005 84.8074L96.7339 84.9287ZM93.7574 81.5013C94.4232 81.4378 95.1455 81.7365 95.736 82.3671C96.3231 82.9943 96.72 83.895 96.732 84.8795L98.6024 84.8566C98.5846 83.3913 97.9981 82.0462 97.1017 81.0884C96.2083 80.1342 94.9462 79.5087 93.5802 79.6386L93.7574 81.5013ZM80.9272 81.4926C85.1757 81.4879 89.4208 81.4832 93.6639 81.5054L93.6737 79.6345C89.4237 79.6122 85.1726 79.6169 80.9252 79.6216L80.9272 81.4926ZM69.0717 81.484C73.0238 81.5013 76.977 81.4969 80.9272 81.4926L80.9252 79.6216C76.9741 79.6259 73.026 79.6303 69.0799 79.613L69.0717 81.484ZM68.4825 81.4971C68.6821 81.4951 68.9002 81.4929 69.1183 81.483L69.0332 79.6139C68.8535 79.6222 68.6685 79.6241 68.463 79.6263L68.4825 81.4971Z" fill="url(#paint1_linear)"/>
<path d="M35.9353 46.8716L52.774 63.7103L35.9353 80.5489" stroke="url(#paint2_linear)" stroke-width="12" stroke-linecap="round" stroke-linejoin="round"/>
<defs>
<linearGradient id="paint0_linear" x1="100.411" y1="16.936" x2="27.6387" y2="124.858" gradientUnits="userSpaceOnUse">
<stop stop-color="#DE00C0"/>
<stop offset="1" stop-color="#8720FF"/>
</linearGradient>
<linearGradient id="paint1_linear" x1="101.007" y1="16" x2="26.6903" y2="125.833" gradientUnits="userSpaceOnUse">
<stop stop-color="#DE00C0"/>
<stop offset="1" stop-color="#8720FF"/>
</linearGradient>
<linearGradient id="paint2_linear" x1="35.9353" y1="46.8716" x2="62.8772" y2="60.3425" gradientUnits="userSpaceOnUse">
<stop stop-color="#FFC823"/>
<stop offset="1" stop-color="#FF2F78"/>
</linearGradient>
</defs>
</svg>
