<svg width="128" height="128" viewBox="0 0 128 128" fill="none" xmlns="http://www.w3.org/2000/svg">
<path d="M115.773 39.9844H101.246C99.6572 39.9844 98.3697 38.6968 98.3697 37.1083V22.9922C98.3697 22.1109 97.925 21.2374 97.0949 20.589L79.6911 6.99529C78.8754 6.35797 77.7689 6 76.6148 6H50.5092C49.3554 6 48.2487 6.35797 47.4329 6.99529L30.0291 20.589C29.2335 21.2105 28.7547 22.0737 28.7547 22.9922V37.1083C28.7547 38.6968 27.467 39.9844 25.8787 39.9844H11.3509C8.94804 39.9844 7 41.506 7 43.3828V118.601C7 120.479 8.94804 122 11.3509 122H115.773C118.175 122 120.124 120.479 120.124 118.601V43.3828C120.124 41.506 118.175 39.9844 115.773 39.9844ZM51.5311 13.4064C52.0367 13.0114 52.6598 12.7968 53.3014 12.7968H73.8224C74.4641 12.7968 75.0872 13.0114 75.5928 13.4064L76.9305 14.4511C79.0862 16.1349 77.8956 19.5938 75.1601 19.5938H51.9638C49.2283 19.5938 48.0376 16.135 50.1934 14.4511L51.5311 13.4064ZM86.7915 26.3906C88.3798 26.3906 89.6675 27.6783 89.6675 29.2666V50.7021C89.6675 52.2905 88.3798 53.5781 86.7915 53.5781H83.8417C82.2533 53.5781 80.9656 52.2905 80.9656 50.7021V29.2666C80.9656 27.6783 82.2533 26.3906 83.8417 26.3906H86.7915ZM69.3879 26.3906C70.9762 26.3906 72.2639 27.6783 72.2639 29.2666V37.1083C72.2639 38.6968 70.9762 39.9844 69.3879 39.9844H57.7361C56.1478 39.9844 54.8601 38.6968 54.8601 37.1083V29.2666C54.8601 27.6783 56.1478 26.3906 57.7361 26.3906H69.3879ZM37.4564 29.2666C37.4564 27.6783 38.7441 26.3906 40.3325 26.3906H43.2823C44.8706 26.3906 46.1583 27.6783 46.1583 29.2666V50.7021C46.1583 52.2905 44.8706 53.5781 43.2823 53.5781H40.3325C38.7441 53.5781 37.4564 52.2905 37.4564 50.7021V29.2666ZM111.423 112.327C111.423 113.915 110.135 115.203 108.547 115.203H18.578C16.9895 115.203 15.7019 113.915 15.7019 112.327V49.6573C15.7019 48.0689 16.9895 46.7813 18.578 46.7813H25.8787C27.467 46.7813 28.7547 48.0689 28.7547 49.6573V56.9765C28.7547 58.8534 30.7027 60.375 33.1056 60.375H50.5092C52.912 60.375 54.8601 58.8534 54.8601 56.9765V49.6573C54.8601 48.0689 56.1478 46.7813 57.7361 46.7813H69.3879C70.9762 46.7813 72.2639 48.0689 72.2639 49.6573V56.9765C72.2639 58.8534 74.2119 60.375 76.6148 60.375H94.0184C96.4212 60.375 98.3697 58.8534 98.3697 56.9765V49.6573C98.3697 48.0689 99.6572 46.7813 101.246 46.7813H108.547C110.135 46.7813 111.423 48.0689 111.423 49.6573V112.327Z" fill="url(#paint0_linear)"/>
<defs>
<linearGradient id="paint0_linear" x1="63.562" y1="122" x2="63.562" y2="6" gradientUnits="userSpaceOnUse">
<stop stop-color="#FD3A84"/>
<stop offset="1" stop-color="#FFA68D"/>
</linearGradient>
</defs>
</svg>
