<svg width="180" height="192" viewBox="0 0 180 192" fill="none" xmlns="http://www.w3.org/2000/svg">
<path fill-rule="evenodd" clip-rule="evenodd" d="M56.9547 52.9497L56.9521 52.9598C55.626 57.9784 54.204 62.9762 52.7819 67.9738C50.1841 77.1037 47.5864 86.2329 45.5747 95.4868L45.1689 95.7523C44.434 97.8149 43.8639 99.9256 43.2934 102.037C42.8769 103.579 42.4603 105.121 41.9792 106.646C41.8691 107.075 41.7437 107.51 41.6171 107.949C41.0005 110.087 40.3558 112.323 41.3106 114.458C42.0547 114.486 42.8007 114.523 43.5477 114.561C46.7185 114.72 49.9074 114.88 53.0388 114.28C54.1303 113.589 54.6354 112.382 55.1282 111.205C55.2887 110.821 55.4479 110.441 55.6256 110.082C55.7132 109.596 55.8887 108.635 55.9873 108.149C56.3709 106.126 56.7984 104.105 57.4999 102.172C63.2586 101.615 69.0772 101.775 74.8648 101.934L74.8693 101.935C75.6238 101.955 76.3777 101.976 77.1309 101.995C78.3561 104.35 78.8475 106.966 79.3362 109.567C79.4596 110.224 79.5829 110.88 79.7177 111.53L80.1561 113.607C84.5844 115.154 89.451 115.088 93.934 113.795C92.6754 107.218 90.7665 100.799 88.8573 94.3787C87.6905 90.4553 86.5237 86.5314 85.505 82.571C84.5362 79.4877 83.7441 76.3457 82.9522 73.2043C81.8626 68.8823 80.7732 64.5613 79.2244 60.3961L78.9924 60.0937C79.0698 60.1945 79.1471 60.2953 79.2244 60.3961C78.9638 59.3714 78.7394 58.3183 78.5133 57.2592C77.7888 53.8646 77.0505 50.4055 75.0705 47.6012C72.3998 45.9859 69.1768 46.1837 66.0272 46.3771C64.7173 46.4575 63.42 46.5371 62.1804 46.4852C58.6226 46.3307 57.645 50.2101 56.9547 52.9497ZM68.5595 65.5556C68.3081 65.5791 67.9259 65.6152 67.5524 65.6505C67.2255 65.6814 66.9053 65.7116 66.6854 65.7322C66.6485 65.895 66.6116 66.0577 66.5746 66.2205C65.461 71.1298 64.3457 76.046 62.871 80.8691C62.3668 78.3832 61.8188 75.8972 61.0077 73.4886C61.0078 73.4885 61.0076 73.4887 61.0077 73.4886C61.8188 75.8972 62.3668 78.3832 62.871 80.8691C62.679 81.6888 62.4751 82.5066 62.2715 83.3241C61.6845 85.6804 61.0974 88.0372 60.7881 90.4489C65.2492 90.703 69.7433 90.7251 74.2153 90.4268C73.5843 86.59 72.5642 82.8363 71.5441 79.0823C70.3316 74.6204 69.1191 70.1579 68.5595 65.5556C68.5595 65.5557 68.5595 65.5555 68.5595 65.5556Z" fill="url(#paint0_linear)"/>
<path fill-rule="evenodd" clip-rule="evenodd" d="M104.873 63.8208C108.683 60.404 114.087 60.2351 118.929 60.0837L119.199 60.0752C119.616 60.0788 120.035 60.0806 120.457 60.0825C125.259 60.1035 130.333 60.1258 134.544 62.716C138.545 65.2903 139.739 70.4059 139.761 74.9027C139.794 80.2444 139.79 85.5862 139.786 90.9279C139.781 96.646 139.777 102.364 139.817 108.082C139.793 108.549 139.795 109.031 139.796 109.517C139.802 111.266 139.807 113.075 138.633 114.458C134.555 114.922 130.248 115.043 126.971 112.204C119.44 117.021 108.239 116.645 101.705 110.204C99.6259 105.842 99.7653 100.965 99.9005 96.2341C99.9149 95.7289 99.9293 95.2254 99.9409 94.7244C99.9738 90.349 102.516 85.9185 106.671 84.3164C110.8 82.6081 115.229 82.6474 119.647 82.6866C121.774 82.7055 123.897 82.7244 125.984 82.5485L127.014 82.438C127.003 81.6665 127.046 80.8369 127.091 79.9841C127.256 76.8314 127.437 73.3627 124.909 71.345C121.742 70.4722 117.15 69.7651 114.804 72.6599C114.497 73.7427 114.245 74.8364 114.036 75.9524C111.198 80.2062 105.125 78.4936 101.036 77.3004C100.784 72.5936 101.256 67.2459 104.873 63.8208ZM112.952 97.0557L112.948 97.1233C112.76 99.8315 112.477 103.932 115.987 104.481C116.45 104.518 116.933 104.568 117.428 104.62C120.473 104.938 123.98 105.305 126.148 102.9C127.365 99.7295 127.321 96.1828 126.741 92.8682C123.178 92.6804 119.583 92.5588 116.053 93.0118C114.157 93.2991 112.765 95.1221 112.952 97.0557Z" fill="url(#paint1_linear)"/>
<path fill-rule="evenodd" clip-rule="evenodd" d="M111.657 9.18449C116.526 8.96881 121.402 9.00394 126.276 9.03906L126.277 9.03906C129.393 9.06151 132.507 9.08395 135.619 9.04087C137.112 9.07752 138.617 9.05374 140.124 9.02993C144.523 8.96042 148.94 8.89077 153.145 10.3227C162.297 13.4273 168.842 22.0565 170.485 31.5143C170.726 34.7958 170.781 38.0885 170.726 41.3699C170.821 53.4122 170.81 65.4513 170.799 77.4907V77.4963C170.789 87.68 170.78 97.8639 170.835 108.05C170.879 111.386 170.616 114.734 169.762 117.96C166.353 121.761 159.151 119.927 158.976 114.513C158.832 100.387 158.858 86.2585 158.884 72.1282V72.1228L158.884 71.87V71.8659C158.908 59.2045 158.931 46.5414 158.834 33.8788C158.308 32.2987 157.672 30.7409 156.894 29.2714C154.286 23.5812 147.795 21.4488 141.964 21.9238C142.203 21.5439 142.438 21.1532 142.673 20.7557C142.917 20.3429 143.16 19.9228 143.404 19.4995L143.366 19.5655L143.365 19.5666C143.133 19.9671 142.903 20.3647 142.673 20.7557C142.438 21.1532 142.203 21.5439 141.964 21.9238C132.908 22.093 123.852 22.0566 114.796 22.0201L114.794 22.0201C111.432 22.0066 108.07 21.9931 104.708 21.9901C91.9223 22.0717 79.1262 22.0406 66.3382 22.0093L63.1339 22.0014C58.7057 22.0812 54.2753 22.0551 49.8448 22.0289C44.4709 21.9972 39.0967 21.9655 33.7258 22.1229C27.7521 22.3107 23.0171 27.2713 21.3729 32.7847C21.1756 34.663 21.0878 36.5413 21.0549 38.4306C21.0549 50.5751 21.0585 62.7208 21.0622 74.8673V74.8817C21.0695 99.1866 21.0768 123.495 21.0549 147.803C21.067 148.735 21.0556 149.673 21.0441 150.613C21.0038 153.925 20.9633 157.256 21.9537 160.432C23.5978 165.459 28.2452 169.614 33.6051 169.879C39.5643 170.018 45.5301 169.981 51.4965 169.943H51.4991L51.5654 169.943C58.8657 169.898 66.1675 169.853 73.4588 170.132C91.347 169.823 109.269 169.812 127.167 170.121C130.571 169.872 133.984 169.912 137.396 169.952C140.489 169.988 143.582 170.024 146.667 169.845C151.983 169.481 156.379 165.271 158.045 160.332C159.151 155.747 159.371 150.852 158.373 146.235C153.007 146.159 147.64 146.175 142.273 146.191C137.457 146.206 132.641 146.22 127.825 146.168C128.411 145.303 128.995 144.437 129.578 143.571C131.939 140.064 134.298 136.561 136.846 133.186C144.817 133.001 152.798 133.055 160.771 133.109H160.776C161.324 133.113 161.872 133.116 162.42 133.12L164.149 133.131C167.91 132.942 170.869 136.368 170.846 140.014C170.836 141.866 170.878 143.75 170.921 145.646L170.921 145.647L170.921 145.65L170.922 145.679L170.922 145.683C171.118 154.453 171.32 163.505 166.495 171.127C162.439 177.005 156.235 181.723 149.045 182.629C145.703 183.034 142.342 183.012 138.985 182.989L138.798 182.988C137.737 182.981 136.678 182.975 135.619 182.983C130.473 182.981 125.328 182.979 120.182 182.977H120.175C115.034 182.974 109.894 182.972 104.753 182.97C82.1364 182.959 59.5203 182.949 36.9042 182.949C34.9861 182.927 33.0678 182.838 31.1606 182.629C22.2275 181.612 14.6644 174.873 11.3543 166.619C11.2354 166.342 11.0553 165.924 10.8743 165.505L10.7414 165.197C10.6023 164.874 10.4718 164.572 10.3788 164.354C8.88724 159.607 8.96035 154.642 9.03312 149.701C9.05875 147.961 9.08433 146.224 9.04151 144.5C9.10036 138.759 9.06896 133.012 9.03755 127.266L9.03754 127.264C8.98706 118.027 8.93669 108.79 9.26102 99.575C8.9389 86.8846 8.98656 74.1818 9.03422 61.4792C9.06441 53.4343 9.09459 45.3896 9.03084 37.3482C8.76778 27.2385 14.0071 16.8857 22.995 12.0574C27.1931 9.53831 32.1693 8.88644 36.9702 9.03007C41.7152 9.08361 46.4619 9.06147 51.209 9.03933C58.2172 9.00665 65.2264 8.97407 72.2314 9.18486C85.3626 8.94179 98.5269 8.94142 111.657 9.18449ZM143.408 19.4929L143.409 19.4908L143.414 19.4827L143.466 19.3927C143.545 19.2554 143.624 19.1179 143.704 18.9803C143.604 19.1531 143.504 19.3256 143.405 19.4977L143.408 19.4929ZM159.832 45.9718V45.9732C159.777 48.6404 159.722 51.3092 160.017 53.9435L160.018 53.9427C159.723 51.3091 159.778 48.6407 159.833 45.9742V45.9731C159.907 42.3727 159.981 38.7751 159.194 35.2698C159.98 38.7745 159.906 42.3721 159.832 45.9718ZM20.2348 150.86C20.2636 150.305 20.2715 149.747 20.2792 149.196L20.2789 149.2L20.2788 149.209C20.2711 149.755 20.2633 150.309 20.2348 150.86Z" fill="url(#paint2_linear)"/>
<path d="M37.0685 138.058C37.6604 134.555 41.3543 132.755 44.6207 133.086C50.105 133.123 55.5923 133.101 61.0805 133.078H61.0822C70.3459 133.04 79.6126 133.002 88.8698 133.251C104.84 132.92 120.854 133.053 136.846 133.186C134.298 136.561 131.939 140.064 129.578 143.571C128.995 144.437 128.411 145.303 127.825 146.168C112.074 146.235 96.3233 146.235 80.5835 146.146C75.3458 146.228 70.1117 146.216 64.8792 146.203L64.5868 146.202C60.8611 146.193 57.1361 146.185 53.4113 146.212C52.5476 146.21 51.682 146.217 50.8155 146.224H50.8097L50.7969 146.224C46.9964 146.255 43.18 146.286 39.4361 145.549C37.781 143.505 35.9725 140.776 37.0685 138.058Z" fill="url(#paint3_linear)"/>
<path d="M141.964 21.9238C147.795 21.4488 154.286 23.5812 156.894 29.2714C157.672 30.7409 158.308 32.2987 158.834 33.8788C158.931 46.5414 158.908 59.2045 158.884 71.8659V71.87L158.884 72.1228V72.1282C158.858 86.2585 158.832 100.387 158.976 114.513C159.151 119.927 166.353 121.761 169.762 117.96C170.616 114.734 170.879 111.386 170.835 108.05C170.78 97.8639 170.789 87.68 170.799 77.4963V77.4907C170.81 65.4513 170.821 53.4122 170.726 41.3699C170.781 38.0885 170.726 34.7958 170.485 31.5143C168.842 22.0565 162.297 13.4273 153.145 10.3227C148.94 8.89077 144.523 8.96042 140.124 9.02993C138.617 9.05374 137.112 9.07752 135.619 9.04087C132.507 9.08395 129.393 9.06151 126.277 9.03906L126.276 9.03906C121.402 9.00394 116.526 8.96881 111.657 9.18449C98.5269 8.94142 85.3626 8.94179 72.2314 9.18486C65.2264 8.97407 58.2172 9.00665 51.209 9.03933C46.4619 9.06147 41.7152 9.08361 36.9702 9.03007C32.1693 8.88644 27.1931 9.53831 22.995 12.0574C14.0071 16.8857 8.76778 27.2385 9.03084 37.3482C9.09459 45.3896 9.06441 53.4343 9.03422 61.4792C8.98656 74.1818 8.9389 86.8846 9.26102 99.575C8.93669 108.79 8.98706 118.027 9.03754 127.264L9.03755 127.266C9.06896 133.012 9.10036 138.759 9.04151 144.5C9.08433 146.224 9.05875 147.961 9.03312 149.701C8.96035 154.642 8.88724 159.607 10.3788 164.354C10.4718 164.572 10.6023 164.874 10.7414 165.197L10.8743 165.505C11.0553 165.924 11.2354 166.342 11.3543 166.619C14.6644 174.873 22.2275 181.612 31.1606 182.629C33.0678 182.838 34.9861 182.927 36.9042 182.949C59.5203 182.949 82.1364 182.959 104.753 182.97C109.894 182.972 115.034 182.974 120.175 182.977H120.182C125.328 182.979 130.473 182.981 135.619 182.983C136.678 182.975 137.737 182.981 138.798 182.988L138.985 182.989C142.342 183.012 145.703 183.034 149.045 182.629C156.235 181.723 162.439 177.005 166.495 171.127C171.32 163.505 171.118 154.453 170.922 145.683L170.922 145.679L170.921 145.65L170.921 145.647L170.921 145.646C170.878 143.75 170.836 141.866 170.846 140.014C170.869 136.368 167.91 132.942 164.149 133.131L162.42 133.12C161.872 133.116 161.324 133.113 160.776 133.109H160.771C152.798 133.055 144.817 133.001 136.846 133.186M141.964 21.9238C142.203 21.5439 142.438 21.1532 142.673 20.7557M141.964 21.9238C132.908 22.093 123.852 22.0566 114.796 22.0201L114.794 22.0201C111.432 22.0066 108.07 21.9931 104.708 21.9901C91.9223 22.0717 79.1262 22.0406 66.3382 22.0093L63.1339 22.0014C58.7057 22.0812 54.2753 22.0551 49.8448 22.0289C44.4709 21.9972 39.0967 21.9655 33.7258 22.1229C27.7521 22.3107 23.0171 27.2713 21.3729 32.7847C21.1756 34.663 21.0878 36.5413 21.0549 38.4306C21.0549 50.5751 21.0585 62.7208 21.0622 74.8673V74.8817C21.0695 99.1866 21.0768 123.495 21.0549 147.803C21.067 148.735 21.0556 149.673 21.0441 150.613C21.0038 153.925 20.9633 157.256 21.9537 160.432C23.5978 165.459 28.2452 169.614 33.6051 169.879C39.5643 170.018 45.5301 169.981 51.4965 169.943H51.4991L51.5654 169.943C58.8657 169.898 66.1675 169.853 73.4588 170.132C91.347 169.823 109.269 169.812 127.167 170.121C130.571 169.872 133.984 169.912 137.396 169.952C140.489 169.988 143.582 170.024 146.667 169.845C151.983 169.481 156.379 165.271 158.045 160.332C159.151 155.747 159.371 150.852 158.373 146.235C153.007 146.159 147.64 146.175 142.273 146.191C137.457 146.206 132.641 146.22 127.825 146.168M142.673 20.7557C142.917 20.3429 143.16 19.9228 143.404 19.4995L143.366 19.5655L143.365 19.5666C143.133 19.9671 142.903 20.3647 142.673 20.7557ZM127.825 146.168C128.411 145.303 128.995 144.437 129.578 143.571C131.939 140.064 134.298 136.561 136.846 133.186M127.825 146.168C112.074 146.235 96.3233 146.235 80.5835 146.146C75.3458 146.228 70.1117 146.216 64.8792 146.203L64.5868 146.202C60.8611 146.193 57.1361 146.185 53.4113 146.212C52.5476 146.21 51.682 146.217 50.8155 146.224H50.8097L50.7969 146.224C46.9964 146.255 43.18 146.286 39.4361 145.549C37.781 143.505 35.9725 140.776 37.0685 138.058C37.6604 134.555 41.3543 132.755 44.6207 133.086C50.105 133.123 55.5923 133.101 61.0805 133.078H61.0822C70.3459 133.04 79.6126 133.002 88.8698 133.251C104.84 132.92 120.854 133.053 136.846 133.186M143.409 19.4908L143.408 19.4929L143.405 19.4977C143.504 19.3256 143.604 19.1531 143.704 18.9803C143.624 19.1179 143.545 19.2554 143.466 19.3927L143.414 19.4827L143.409 19.4908ZM159.832 45.9718V45.9732C159.777 48.6404 159.722 51.3092 160.017 53.9435L160.018 53.9427C159.723 51.3091 159.778 48.6407 159.833 45.9742V45.9731C159.907 42.3727 159.981 38.7751 159.194 35.2698C159.98 38.7745 159.906 42.3721 159.832 45.9718ZM20.2792 149.196C20.2715 149.747 20.2636 150.305 20.2348 150.86C20.2633 150.309 20.2711 149.755 20.2788 149.209L20.2789 149.2L20.2792 149.196Z" stroke="url(#paint4_linear)" stroke-width="4"/>
<defs>
<linearGradient id="paint0_linear" x1="67.3796" y1="114.766" x2="67.3796" y2="46.2495" gradientUnits="userSpaceOnUse">
<stop stop-color="#A93AFF"/>
<stop offset="1" stop-color="#FF81FF"/>
</linearGradient>
<linearGradient id="paint1_linear" x1="119.825" y1="115.473" x2="119.825" y2="60.0752" gradientUnits="userSpaceOnUse">
<stop stop-color="#A93AFF"/>
<stop offset="1" stop-color="#FF81FF"/>
</linearGradient>
<linearGradient id="paint2_linear" x1="90.0001" y1="183" x2="90.0001" y2="9" gradientUnits="userSpaceOnUse">
<stop stop-color="#FD5900"/>
<stop offset="1" stop-color="#FFDE00"/>
</linearGradient>
<linearGradient id="paint3_linear" x1="90.0001" y1="183" x2="90.0001" y2="9" gradientUnits="userSpaceOnUse">
<stop stop-color="#FD5900"/>
<stop offset="1" stop-color="#FFDE00"/>
</linearGradient>
<linearGradient id="paint4_linear" x1="90.0001" y1="183" x2="90.0001" y2="9" gradientUnits="userSpaceOnUse">
<stop stop-color="#FD5900"/>
<stop offset="1" stop-color="#FFDE00"/>
</linearGradient>
</defs>
</svg>
