<svg width="192" height="192" viewBox="0 0 192 192" fill="none" xmlns="http://www.w3.org/2000/svg">
<path d="M82.3111 6.0709C102.278 2.96166 123.245 6.66964 140.855 16.5856C157.822 26.0184 171.621 41.0184 179.578 58.7074C188.651 78.6129 190.093 101.817 183.683 122.72C177.399 143.518 163.316 161.806 144.886 173.319C130.203 182.604 112.804 187.468 95.4366 187.3C73.6696 187.121 52.05 178.907 35.8195 164.411C21.6626 151.964 11.5159 135.031 7.32673 116.659C2.62178 96.344 5.08477 74.4322 14.421 55.7557C27.2306 29.5268 53.3552 10.3041 82.3111 6.0709ZM82.3532 18.7285C57.7654 22.9196 35.9037 39.7158 25.2097 62.1423C15.1157 82.9826 14.9788 108.34 24.8098 129.306C31.6093 143.907 43.0612 156.291 57.0286 164.338C70.7224 172.258 86.8687 175.777 102.636 174.495C118.803 173.277 134.508 166.838 146.875 156.396C159.685 145.714 169.011 130.913 172.873 114.695C176.947 97.8671 175.357 79.6738 168.179 63.886C160.948 47.762 148.065 34.2747 132.339 26.1969C117.109 18.3083 99.2363 15.6822 82.3532 18.7285Z" fill="url(#paint0_linear)"/>
<path d="M95.8997 39.4217C111.625 38.5184 127.255 46.1864 136.813 58.5288C137.739 60.115 135.918 61.6486 135.381 63.0667C130.813 70.3461 127.171 78.2242 122.14 85.1885C113.383 69.9469 104.32 54.8629 95.8997 39.4217Z" fill="url(#paint1_linear)"/>
<path d="M45.1136 66.3965C51.9448 52.2578 66.428 42.741 81.8059 40.4931C83.3953 40.3356 83.9216 42.1633 84.7215 43.1612C89.1633 50.9448 93.7419 58.6549 98.0785 66.5015C80.4271 66.6591 62.7546 66.8587 45.1136 66.3965Z" fill="url(#paint2_linear)"/>
<path d="M119.614 112.951C128.329 97.6149 137.307 82.4364 146.138 67.1843C155.59 80.22 156.306 98.1087 150.254 112.741C146.496 114.327 142.465 113.077 138.549 113.277C132.245 113.602 125.877 114.012 119.614 112.951Z" fill="url(#paint3_linear)"/>
<path d="M42.3033 78.1402C42.9664 76.8692 44.6926 77.3104 45.8399 77.1528C54.7235 77.2263 63.5966 77.1213 72.4802 77.2263C67.6279 87.3629 61.3547 96.7746 55.934 106.628C52.5763 112.037 49.9239 117.92 46.0294 122.983C37.5247 109.789 36.0616 92.5414 42.3033 78.1402Z" fill="url(#paint4_linear)"/>
<path d="M56.9339 127.52C61.2705 120.703 64.6071 113.203 69.512 106.785C78.3009 122.09 87.4476 137.216 95.9313 152.678C80.5639 153.886 65.2176 146.249 55.4919 134.59C53.1236 132.331 55.9024 129.695 56.9339 127.52Z" fill="url(#paint5_linear)"/>
<path d="M94.5103 124.957C112.13 124.926 129.761 124.894 147.391 124.989C140.876 139.705 125.613 149.296 109.972 151.428C107.815 149.632 106.846 146.88 105.383 144.558C101.805 137.993 97.6469 131.743 94.5103 124.957Z" fill="url(#paint6_linear)"/>
<defs>
<linearGradient id="paint0_linear" x1="96.3115" y1="187.304" x2="96.3115" y2="5" gradientUnits="userSpaceOnUse">
<stop stop-color="#5570FF"/>
<stop offset="1" stop-color="#4DD3FF"/>
</linearGradient>
<linearGradient id="paint1_linear" x1="116.485" y1="85.1885" x2="116.485" y2="39.3497" gradientUnits="userSpaceOnUse">
<stop stop-color="#5570FF"/>
<stop offset="1" stop-color="#4DD3FF"/>
</linearGradient>
<linearGradient id="paint2_linear" x1="71.5961" y1="66.6827" x2="71.5961" y2="40.4836" gradientUnits="userSpaceOnUse">
<stop stop-color="#5570FF"/>
<stop offset="1" stop-color="#4DD3FF"/>
</linearGradient>
<linearGradient id="paint3_linear" x1="136.883" y1="113.634" x2="136.883" y2="67.1843" gradientUnits="userSpaceOnUse">
<stop stop-color="#5570FF"/>
<stop offset="1" stop-color="#4DD3FF"/>
</linearGradient>
<linearGradient id="paint4_linear" x1="55.473" y1="122.983" x2="55.473" y2="77.1528" gradientUnits="userSpaceOnUse">
<stop stop-color="#5570FF"/>
<stop offset="1" stop-color="#4DD3FF"/>
</linearGradient>
<linearGradient id="paint5_linear" x1="75.2465" y1="152.803" x2="75.2465" y2="106.785" gradientUnits="userSpaceOnUse">
<stop stop-color="#5570FF"/>
<stop offset="1" stop-color="#4DD3FF"/>
</linearGradient>
<linearGradient id="paint6_linear" x1="120.951" y1="151.428" x2="120.951" y2="124.926" gradientUnits="userSpaceOnUse">
<stop stop-color="#5570FF"/>
<stop offset="1" stop-color="#4DD3FF"/>
</linearGradient>
</defs>
</svg>
