<svg width="128" height="128" viewBox="0 0 128 128" fill="none" xmlns="http://www.w3.org/2000/svg">
<path d="M49.4213 98.5482C44.9608 96.6585 40.9473 93.9522 37.4975 90.5025C34.0478 87.0527 31.3415 83.039 29.4518 78.5787C28.646 76.6672 26.4268 75.7772 24.5373 76.5865C22.6293 77.3922 21.7395 79.593 22.545 81.501C24.8118 86.855 28.0565 91.667 32.1948 95.8052C36.333 99.9435 41.145 103.188 46.499 105.455C48.404 106.261 50.6078 105.372 51.4135 103.463C52.219 101.555 51.329 99.354 49.4213 98.5482ZM105.455 46.4987C103.188 41.1447 99.9435 36.3327 95.8053 32.1945C91.667 28.0562 86.855 24.8117 81.501 22.5447C79.604 21.7427 77.392 22.6217 76.5865 24.537C75.7808 26.445 76.6708 28.646 78.5788 29.4515C83.0393 31.3412 87.0528 34.0475 90.5025 37.4972C93.9523 40.947 96.6585 44.9607 98.5483 49.421C99.356 51.3352 101.563 52.217 103.463 51.4132C105.371 50.6077 106.261 48.4067 105.455 46.4987ZM64 37.75C49.5273 37.75 37.75 49.5272 37.75 64C37.75 78.4727 49.5273 90.25 64 90.25C78.4728 90.25 90.25 78.4727 90.25 64C90.25 49.5272 78.4728 37.75 64 37.75ZM64 82.75C53.6618 82.75 45.25 74.3382 45.25 64C45.25 53.6617 53.6618 45.25 64 45.25C74.3383 45.25 82.75 53.6617 82.75 64C82.75 74.3382 74.3383 82.75 64 82.75ZM64 52.75C57.7965 52.75 52.75 57.7965 52.75 64C52.75 70.2035 57.7965 75.25 64 75.25C70.2035 75.25 75.25 70.2035 75.25 64C75.25 57.7965 70.2035 52.75 64 52.75ZM64 67.75C61.931 67.75 60.25 66.069 60.25 64C60.25 61.931 61.931 60.25 64 60.25C66.069 60.25 67.75 61.931 67.75 64C67.75 66.069 66.069 67.75 64 67.75Z" fill="url(#paint0_linear)"/>
<path d="M125 64C125 50.4291 120.475 37.2456 112.14 26.5358C103.805 15.8259 92.1367 8.20128 78.9814 4.8683C65.8261 1.53533 51.935 2.68437 39.5062 8.13361C27.0774 13.5829 16.8206 23.0211 10.3588 34.9549C3.89697 46.8887 1.59922 60.6365 3.82908 74.023C6.05895 87.4095 12.6891 99.6702 22.6704 108.865C32.6517 118.06 45.4141 123.664 58.9383 124.79C72.4624 125.916 85.9759 122.5 97.3404 115.082L91.8982 106.744C82.3887 112.951 71.0811 115.809 59.7645 114.867C48.4479 113.925 37.7687 109.236 29.4167 101.542C21.0646 93.8477 15.5167 83.5883 13.6508 72.387C11.785 61.1856 13.7076 49.6818 19.1147 39.696C24.5217 29.7101 33.1043 21.8125 43.5043 17.2527C53.9044 12.693 65.528 11.7315 76.536 14.5204C87.5439 17.3094 97.3075 23.6894 104.282 32.6511C111.256 41.6128 115.043 52.6443 115.043 64H125Z" fill="url(#paint1_linear)"/>
<path d="M101.147 54.5719L100.459 55.2562C101.699 57.3354 102.561 59.6548 102.36 62.0177L102.36 62.0177L102.359 62.0241C102.07 66.0365 99.4673 69.5233 96.3613 72.0811C92.554 74.9736 89.7624 79.242 88.8245 83.9592L88.8244 83.9591L88.8227 83.9684C88.102 87.9887 88.597 92.2353 90.2228 95.9824L90.2227 95.9824L90.2281 95.994C90.2485 96.0379 90.2698 96.0849 90.2922 96.1343C90.4007 96.3732 90.5342 96.6672 90.7038 96.9242C90.9123 97.2401 91.2071 97.554 91.6522 97.7176C92.3097 98.0383 93.064 98.0048 93.6888 97.7365C94.319 97.4659 94.8674 96.9344 95.0639 96.2044C95.2104 95.7648 95.1647 95.3463 95.0651 94.9862C94.9855 94.6988 94.8597 94.4133 94.7553 94.1766C94.7326 94.1249 94.7108 94.0756 94.6908 94.0291L94.6875 94.0214L94.684 94.0139C93.7277 91.9797 93.3679 89.6906 93.3482 87.4135C93.3293 83.1472 95.5393 79.0261 98.8327 76.3314C102.247 73.6909 105.179 70.1735 106.516 65.9623C106.557 65.8463 106.608 65.7364 106.67 65.6322C108.086 67.2827 109.155 69.2435 109.655 71.3425L109.656 71.3442C110.166 73.4542 109.769 75.7236 108.759 77.6648C108.043 79.0231 107.287 80.3611 106.527 81.7067C106.455 81.8355 106.382 81.9644 106.309 82.0934C105.477 83.5674 104.645 85.0522 103.87 86.5691L103.742 86.8182L103.888 87.057C103.97 87.1921 104.136 87.4672 104.219 87.6057L104.424 87.9502L104.804 87.825C106.201 87.3656 107.563 86.8214 108.907 86.2673C109.197 86.1477 109.485 86.0279 109.773 85.9083C110.825 85.4718 111.868 85.0388 112.925 84.6389C115.17 83.8245 117.193 82.4435 118.752 80.6363C118.788 80.6383 118.825 80.6402 118.861 80.6422C118.867 80.6425 118.872 80.6428 118.878 80.6431C119.452 81.8496 119.993 83.041 120.37 84.2879L120.369 84.2879L120.372 84.2965C121.323 87.2504 121.191 90.5374 120.04 93.4213L120.039 93.4253C118.742 96.7584 116.05 99.5161 112.761 100.931L112.756 100.933C108.836 102.668 104.086 102.439 100.39 100.264C99.7599 99.8628 98.7668 99.4304 97.8267 99.9546C96.9681 100.356 96.525 101.23 96.4773 102.067C96.4293 102.91 96.7773 103.832 97.6402 104.301C101.151 106.418 105.384 107.302 109.449 106.803C114.469 106.264 119.168 103.517 122.175 99.4801C125.329 95.3173 126.55 89.7942 125.495 84.6855L125.493 84.6804C124.469 79.9706 121.975 75.6103 118.498 72.2943C118.223 71.9164 117.769 71.8362 117.416 71.9506C117.053 72.0682 116.723 72.4172 116.754 72.909C116.676 74.5965 116.151 76.2493 115.04 77.4679C114.918 77.5903 114.793 77.7246 114.674 77.8528C114.624 77.9069 114.574 77.9599 114.527 78.0105C114.356 78.1913 114.193 78.3563 114.025 78.4977C113.894 78.6077 113.766 78.6985 113.637 78.768C113.721 78.4447 113.833 78.1177 113.953 77.7718C113.962 77.7469 113.971 77.7218 113.98 77.6966C114.174 77.1382 114.387 76.5262 114.478 75.8746C115.305 71.851 114.043 67.7025 111.833 64.4081C109.103 60.333 105.296 57.0762 101.147 54.5719Z" fill="#FF4A7C" stroke="#FF4A7C"/>
<defs>
<linearGradient id="paint0_linear" x1="64" y1="128" x2="64" y2="0" gradientUnits="userSpaceOnUse">
<stop stop-color="#A93AFF"/>
<stop offset="1" stop-color="#FF81FF"/>
</linearGradient>
<linearGradient id="paint1_linear" x1="64" y1="125" x2="64" y2="3" gradientUnits="userSpaceOnUse">
<stop stop-color="#A93AFF"/>
<stop offset="1" stop-color="#FF81FF"/>
</linearGradient>
</defs>
</svg>
