<svg width="128" height="128" viewBox="0 0 128 128" fill="none" xmlns="http://www.w3.org/2000/svg">
<g clip-path="url(#clip0)">
<path fill-rule="evenodd" clip-rule="evenodd" d="M15.907 12.8062H111.101C119.937 12.8062 127.101 19.9697 127.101 28.8062V100.186C127.101 109.023 119.937 116.186 111.101 116.186H15.907C7.0704 116.186 -0.0930176 109.023 -0.0930176 100.186V28.8062C-0.0930176 19.9696 7.07044 12.8062 15.907 12.8062ZM15.907 24.8062C13.6978 24.8062 11.907 26.5971 11.907 28.8062V100.186C11.907 102.395 13.6978 104.186 15.907 104.186H34C35.1046 104.186 36 103.291 36 102.186V100C36 98.8954 35.1046 98 34 98H27C24.2386 98 22 95.7614 22 93C22 90.2386 24.2386 88 27 88H98C100.761 88 103 90.2386 103 93C103 95.7614 100.761 98 98 98H94C92.8954 98 92 98.8954 92 100V102.186C92 103.291 92.8954 104.186 94 104.186H111.101C113.31 104.186 115.101 102.395 115.101 100.186V28.8062C115.101 26.5971 113.31 24.8062 111.101 24.8062H15.907ZM80 100C80 98.8954 79.1046 98 78 98H72C70.8954 98 70 98.8954 70 100V102.186C70 103.291 70.8954 104.186 72 104.186H78C79.1046 104.186 80 103.291 80 102.186V100ZM58 100C58 98.8954 57.1046 98 56 98H50C48.8954 98 48 98.8954 48 100V102.186C48 103.291 48.8954 104.186 50 104.186H56C57.1046 104.186 58 103.291 58 102.186V100Z" fill="url(#paint0_linear)"/>
</g>
<defs>
<linearGradient id="paint0_linear" x1="63.5039" y1="116.186" x2="63.5039" y2="12.8062" gradientUnits="userSpaceOnUse">
<stop stop-color="#FD2E00"/>
<stop offset="1" stop-color="#FF9900"/>
</linearGradient>
<clipPath id="clip0">
<rect width="128" height="128" fill="white"/>
</clipPath>
</defs>
</svg>
