<?xml version="1.0" encoding="UTF-8" standalone="no"?>
<svg
   xmlns:dc="http://purl.org/dc/elements/1.1/"
   xmlns:cc="http://creativecommons.org/ns#"
   xmlns:rdf="http://www.w3.org/1999/02/22-rdf-syntax-ns#"
   xmlns:svg="http://www.w3.org/2000/svg"
   xmlns="http://www.w3.org/2000/svg"
   xmlns:xlink="http://www.w3.org/1999/xlink"
   xmlns:sodipodi="http://sodipodi.sourceforge.net/DTD/sodipodi-0.dtd"
   xmlns:inkscape="http://www.inkscape.org/namespaces/inkscape"
   style="isolation:isolate"
   viewBox="0 0 48 48"
   width="48pt"
   height="48pt"
   version="1.1"
   id="svg9"
   sodipodi:docname="nico-logo-02-sgs.svg"
   inkscape:version="1.0.2 (e86c870879, 2021-01-15)"
   inkscape:export-filename="/home/sgs/Downloads/nico-logo-sgs.png"
   inkscape:export-xdpi="96"
   inkscape:export-ydpi="96">
  <metadata
     id="metadata15">
    <rdf:RDF>
      <cc:Work
         rdf:about="">
        <dc:format>image/svg+xml</dc:format>
        <dc:type
           rdf:resource="http://purl.org/dc/dcmitype/StillImage" />
        <dc:title></dc:title>
      </cc:Work>
    </rdf:RDF>
  </metadata>
  <defs
     id="defs13">
    <linearGradient
       id="linearGradient1031"
       x1="-0.00100785"
       y1="32"
       x2="64"
       y2="32"
       gradientUnits="userSpaceOnUse"
       gradientTransform="matrix(0.75,0,0,0.75,26.465789,79.869284)">
      <stop
         stop-color="#FF823B"
         id="stop1027"
         style="stop-color:#ff1755;stop-opacity:1" />
      <stop
         offset="0.93203861"
         stop-color="#FF005B"
         id="stop1029"
         style="stop-color:#ff7c3c;stop-opacity:1" />
    </linearGradient>
    <linearGradient
       inkscape:collect="always"
       xlink:href="#paint0_linear"
       id="linearGradient890"
       x1="3.3339844"
       y1="32.219727"
       x2="60.226562"
       y2="32.219727"
       gradientUnits="userSpaceOnUse"
       gradientTransform="matrix(1.0640422,0,0,1.0640422,-2.0352788,-2.0634224)" />
    <clipPath
       clipPathUnits="userSpaceOnUse"
       id="clipPath925">
      <path
         id="path927"
         style="opacity:0.512051;fill:#dd955d;stroke-width:0.245843"
         d="M 46.763384,69.064991 C 46.763384,79.308998 34.244002,87.548407 24,87.548407 13.755998,87.548407 5.4515934,79.244002 5.4515934,69 c 0,-3.060123 0.7564413,-5.938386 2.0576151,-8.489103 C 7.6371218,60.260147 6.3892731,55.603438 6.5275131,55.359158 8.2549238,52.306694 10.13171,56.167357 11.540078,55.259592 15.277089,52.850899 19.203763,50.451593 24,50.451593 c 10.244002,0 22.763384,8.369396 22.763384,18.613398 z"
         sodipodi:nodetypes="ssssssss" />
    </clipPath>
    <linearGradient
       id="paint0_linear"
       x1="-0.00100785"
       y1="32"
       x2="64"
       y2="32"
       gradientUnits="userSpaceOnUse"
       gradientTransform="matrix(0.75,0,0,0.75,26.465789,79.869284)">
      <stop
         stop-color="#FF823B"
         id="stop6" />
      <stop
         offset="0.986957"
         stop-color="#FF005B"
         id="stop8" />
    </linearGradient>
  </defs>
  <sodipodi:namedview
     pagecolor="#ffffff"
     bordercolor="#666666"
     borderopacity="1"
     objecttolerance="10"
     gridtolerance="10"
     guidetolerance="10"
     inkscape:pageopacity="0"
     inkscape:pageshadow="2"
     inkscape:window-width="3840"
     inkscape:window-height="2125"
     id="namedview11"
     showgrid="false"
     inkscape:zoom="22.627417"
     inkscape:cx="21.68356"
     inkscape:cy="45.107639"
     inkscape:window-x="0"
     inkscape:window-y="0"
     inkscape:window-maximized="0"
     inkscape:current-layer="svg9" />
  <linearGradient
     id="_lgradient_28"
     x1="0"
     y1="0.5"
     x2="1"
     y2="0.5"
     gradientTransform="matrix(43.93,0,0,43,2,2.5)"
     gradientUnits="userSpaceOnUse">
    <stop
       offset="0%"
       stop-opacity="1"
       style="stop-color:rgb(88,0,226)"
       id="stop2" />
    <stop
       offset="100%"
       stop-opacity="1"
       style="stop-color:rgb(255,0,230)"
       id="stop4" />
  </linearGradient>
  <path
     id="path863"
     style="fill:url(#linearGradient890);fill-opacity:1;stroke-width:1.41872"
     d="m 31.546875,1.9511719 c -8.200219,0 -16.061744,3.3061666 -19.808594,7.1367187 -1.095252,1.1193724 -1.303308,2.6966744 -0.464843,3.5195314 0.838466,0.822861 2.407234,0.580843 3.503906,-0.53711 2.950945,-3.010525 9.718478,-5.8632808 16.769531,-5.8632808 6.951743,0 13.633671,2.7664894 18.556641,7.6894528 4.922968,4.92297 7.689453,11.606851 7.689453,18.558594 0,2.170647 -0.269531,4.328125 -0.269531,4.328125 -0.289419,1.166191 0.399827,2.345697 1.539062,2.630859 1.139235,0.285165 2.337591,-0.57746 2.673828,-1.923828 0,0 0.3125,-2.509828 0.3125,-5.035156 0,-8.086721 -3.220047,-15.847004 -8.9375,-21.564453 C 47.393875,5.1731718 39.633596,1.9511719 31.546875,1.9511719 Z M 9.3105469,12.341797 c -0.2433312,-0.189133 -0.2083175,0.788131 0.15625,2.404297 0.3510545,1.556251 1.8501571,3.57497 3.4824221,4.6875 0.483787,0.329744 1.035157,0.720288 1.224609,0.867187 0.879106,0.681665 2.66664,1.390355 6.322266,2.503907 l 3.964844,1.207031 1.240234,1.11914 c 0.85357,0.770238 1.391619,1.462506 1.726562,2.21875 l 0.486328,1.097657 -0.625,0.185546 c -0.344187,0.102113 -0.822018,0.314082 -1.060546,0.470704 -0.539566,0.35426 -1.550478,1.619269 -1.931641,2.416015 -0.31863,0.666004 -0.131878,0.807203 1.029297,0.773438 1.931044,-0.05614 2.762243,0.06519 3.429687,0.498047 1.450552,0.940718 1.656485,1.138034 1.902344,1.832031 0.13999,0.395172 0.330968,0.88059 0.425781,1.078125 0.09482,0.19754 0.366877,0.778 0.603516,1.291016 0.633595,1.373634 -0.02871,0.645023 -1.240234,-1.365235 -1.082541,-1.796238 -1.449224,-2.15728 -2.470704,-2.433594 -0.565152,-0.152876 -0.782136,-0.07343 -1.546874,0.570313 -0.825534,0.694966 -0.920723,0.861628 -1.310547,2.302734 -0.296237,1.09513 -0.374692,1.795116 -0.267579,2.375 0.08356,0.452333 0.187113,0.831975 0.230469,0.84375 0.21371,0.05781 1.318015,-0.181429 1.486328,-0.322265 0.268677,-0.224848 3.933852,0.793965 4.433594,1.232421 0.22288,0.195557 0.724889,0.554543 1.117188,0.798829 0.392302,0.244274 1.047243,0.771256 1.455078,1.169921 0.407836,0.398667 1.014249,0.983014 1.345703,1.298829 0.417198,0.397514 0.660223,0.90566 0.791016,1.65039 0.322027,1.83363 1.042363,2.848734 2.21289,3.119141 0.337485,0.07797 0.135129,0.707955 -0.423828,1.318359 -0.255905,0.279523 -0.44203,0.549453 -0.412109,0.601563 0.124718,0.217213 1.144769,-0.3269 1.541015,-0.822266 0.235257,-0.294125 0.393827,-0.392402 0.351563,-0.21875 -0.04248,0.173599 -0.312605,0.491345 -0.59961,0.705078 -0.28702,0.213729 -0.548525,0.482962 -0.580078,0.59961 h 0.002 c -0.188894,0.698311 1.883901,-0.341785 2.214844,-1.111328 0.09764,-0.227047 0.446223,-0.456597 0.789063,-0.519532 1.057097,-0.194078 1.399038,-0.975241 1.419921,-3.248047 0.0076,-0.827243 -0.296497,-1.143411 -0.472656,-0.492187 -0.133861,0.49486 -0.97712,0.985967 -1.466797,0.853516 -0.321075,-0.08685 -0.333842,-0.196053 -0.08398,-0.748047 0.278195,-0.614614 0.27486,-1.908445 -0.0059,-1.984375 -0.07237,-0.01958 -0.316384,0.226252 -0.541016,0.546875 -0.224633,0.32062 -0.669005,0.722279 -0.988281,0.892578 l -0.582031,0.308593 -0.367188,-0.582031 c -0.202005,-0.320262 -0.586416,-0.875109 -0.855469,-1.234375 -0.649735,-0.86759 -1.183135,-2.464024 -1.929687,-5.78125 l -0.386719,-1.71875 0.498047,-0.179687 c 0.667115,-0.241124 0.939652,-0.141232 1.623047,0.58789 0.789519,0.842518 2.286783,1.248406 3.263672,0.886719 0.623062,-0.230671 0.867146,-0.204696 1.964843,0.205078 1.087324,0.405917 1.319172,0.578486 1.748047,1.300782 0.341776,0.575578 0.678788,0.88348 1.087891,0.99414 0.573346,0.155092 0.583341,0.188083 0.351562,1.044922 -0.131634,0.486629 -0.44342,1.249404 -0.693359,1.695312 -0.25,0.445895 -0.41977,0.870759 -0.376953,0.945313 0.04282,0.07459 0.388629,0.01524 0.767578,-0.132813 0.684921,-0.267592 2.479382,-2.076557 2.636719,-2.658203 0.115802,-0.428096 0.551779,-0.584324 1.439453,-0.513671 0.739217,0.05883 0.760845,0.0809 0.613281,0.617187 -0.0838,0.305214 -0.390528,0.934805 -0.681641,1.400391 -0.397331,0.635422 -0.470321,0.861513 -0.294921,0.908203 0.37208,0.09838 1.379543,-0.886244 1.917968,-1.875 0.27196,-0.499416 0.755165,-1.052346 1.074219,-1.228516 0.733454,-0.405057 0.840566,-0.811101 0.46875,-1.765625 -0.270084,-0.693341 -0.25955,-0.798602 0.117188,-1.207031 0.491642,-0.53303 0.557183,-0.730854 0.484375,-1.462891 l -0.05469,-0.554687 -0.716797,0.466797 -0.716797,0.466796 -0.916015,-0.519531 C 49.435746,34.613925 48.983835,34.484195 48.07032,34.423828 47.304531,34.373208 46.797736,34.249247 46.60157,34.064453 46.437051,33.909466 45.832392,33.59554 45.25782,33.365234 44.433642,33.03492 44.140891,32.801312 43.869149,32.257812 43.679695,31.878911 43.580758,31.36351 43.648446,31.113281 c 0.196456,-0.726264 -0.588985,-1.669711 -2.267579,-2.722656 -0.847389,-0.531546 -1.47345,-1.029775 -1.390625,-1.107422 0.243147,-0.227901 -0.500349,-1.61215 -1.376953,-2.5625 -1.424173,-1.543997 -3.955535,-3.083073 -8.058593,-4.900391 -1.125679,-0.498587 -2.115964,-0.994926 -2.201172,-1.103515 -0.08523,-0.108582 -0.554194,-0.418131 -1.042969,-0.6875 -1.046525,-0.576731 -1.7613,-1.197789 -2.357422,-2.048828 -0.925246,-1.320897 -0.774492,-0.0637 0.205078,1.708984 0.353652,0.639995 0.715407,1.182885 0.804688,1.207031 0.08926,0.02414 0.481435,0.322618 0.871093,0.66211 0.389657,0.33948 1.500473,0.98076 2.46875,1.425781 2.585787,1.188436 3.6115,2.149851 5.232422,4.910156 0.746353,1.270996 1.336169,2.389675 1.310547,2.484375 -0.02562,0.09473 -0.464619,0.06834 -0.974609,-0.05859 -0.509997,-0.126937 -0.762421,-0.228832 -0.5625,-0.226562 0.65433,0.0076 0.596046,-0.783158 -0.160156,-2.185547 C 33.572681,24.84043 32.407758,23.746695 30.966797,22.919922 29.898578,22.306997 24.529032,20.817428 18.943359,19.583984 16.069854,18.949448 14.969642,18.632585 14.207031,18.220703 12.493814,17.295399 10.478539,14.961413 9.6445312,12.939453 9.5035772,12.59773 9.3916573,12.404841 9.3105469,12.341797 Z M 12.035156,21.0625 c -0.253497,0.02596 -0.293239,0.131289 -0.01953,0.333984 0.184607,0.136699 0.638811,0.339802 1.009766,0.451172 0.370953,0.1114 0.9822,0.45427 1.357421,0.761719 l 0.681641,0.558594 -2.365234,-0.65625 c -2.006506,-0.555751 -2.43132,-0.616075 -2.7988284,-0.40625 -0.4128739,0.235682 -0.3695548,0.263785 0.9296874,0.615234 0.898343,0.243003 1.466565,0.500895 1.664063,0.755859 0.273995,0.353751 0.195214,0.359105 -0.917969,0.06445 -0.669752,-0.177527 -1.389867,-0.289796 -1.5996095,-0.25 -0.2097539,0.03978 -0.8502697,0.159542 -1.4238281,0.267578 -0.5735471,0.108036 -1.065787,0.281397 -1.09375,0.384765 -0.028321,0.104702 0.1169452,0.164275 0.328125,0.134766 0.8639923,-0.120743 2.6504776,0.355259 3.0585936,0.814453 0.160048,0.180079 -9.4889162,0.03731 -0.755859,1.048828 1.504799,0.174295 -7.4389543,0.543267 -2.2285159,1.417969 0.8020002,0.134636 -0.4350915,0.662658 -1.875,0.808594 0.015512,-0.139376 0.050781,-0.509766 0.050781,-0.509766 0.2783095,-1.121423 -0.3526145,-2.24697 -1.4140625,-2.585937 0,0 -0.7744577,-0.17353 -1.3046875,0.04883 -0.6936222,0.28441 -1.2757518,0.955601 -1.4941406,1.830078 -0.2240456,0.760543 -0.3203038,1.937427 -0.2617184,3.158203 -0.088564,2.859145 0.027808,4.128145 0.083984,4.693359 0.011389,0.122593 0.024246,0.24485 0.037109,0.367188 0.1906032,1.602884 0.2179438,3.176882 1.1914062,5.8125 0.2798773,0.9055 0.5984614,1.797173 0.9609375,2.671875 2.328e-4,5.62e-4 -2.328e-4,0.0014 0,0.002 6.5298132,12.731337 12.2183062,14.834642 18.5078132,17.246094 3.090377,1.034482 6.351164,1.585937 9.669922,1.585937 8.200219,0 16.061746,-3.304213 19.808594,-7.134765 1.095254,-1.119374 1.303309,-2.696672 0.464843,-3.519532 -0.838464,-0.822858 -2.407234,-0.580844 -3.503906,0.53711 -2.950945,3.01053 -9.718478,5.861328 -16.769531,5.861328 -3.901734,0 -7.71718,-0.872732 -11.185547,-2.507813 -1.782113,-1.706044 -2.42488,-2.356704 -3.242187,-3.365234 -1.110188,-1.369939 -1.532281,-2.042084 -2.148438,-3.423828 -1.55277,-3.482163 -1.747338,-7.691574 -0.482422,-10.402344 0.568743,-1.218855 1.749695,-2.849002 2.41211,-3.328125 1.613768,-1.16722 3.472059,-1.931297 5.189453,-2.136719 0.924732,-0.110647 1.035993,-0.179633 1.052734,-0.640625 0.01032,-0.283695 0.11525,-1.051152 0.232422,-1.707031 0.256309,-1.435184 0.641879,-1.912735 1.865234,-2.306641 l 0.875,-0.28125 -0.65039,-1.011718 c -0.744613,-1.159528 -2.413353,-2.700621 -3.138672,-2.898438 -0.270996,-0.074 -1.178155,0.04724 -2.015625,0.269532 -0.837472,0.222296 -1.713646,0.453461 -1.947266,0.513671 -0.233608,0.06021 -0.762083,0.243862 -1.173828,0.410157 -5.403472,2.1824 -8.4974326,4.817963 -11.1171882,9.464843 C 6.336171,35.240789 6.197769,35.502389 6.0468757,35.783248 6.0064587,35.507417 5.9750077,35.23069 5.9433601,34.95317 6.2846481,34.337267 6.6562278,33.725507 7.0761726,33.101607 8.0085672,31.716368 9.937041,29.482419 10.38672,29.267623 c 0.07658,-0.03658 0.355037,-0.262756 0.61914,-0.503906 1.922851,-1.755761 6.013724,-3.871584 8.558594,-4.425781 0.838081,-0.182511 1.60818,-0.378883 1.710938,-0.435547 0.10278,-0.05668 -0.316185,-0.238064 -0.931641,-0.404297 -0.615449,-0.166228 -1.917458,-0.640256 -2.894531,-1.052735 -1.962674,-0.828559 -4.653571,-1.46068 -5.414063,-1.382812 z m 22.425782,2.242188 c 0.0778,-0.06523 0.625988,0.382699 1.33789,1.18164 0.545933,0.612678 1.31185,1.247437 1.701172,1.410156 1.143201,0.477762 2.248505,1.143993 2.199219,1.326172 -0.02513,0.09293 -0.107423,0.139679 -0.183594,0.103516 -0.07618,-0.0361 -0.961671,-0.449406 -1.966797,-0.917969 -1.29095,-0.601807 -1.854514,-0.962252 -1.921875,-1.230469 -0.05244,-0.208824 -0.38082,-0.733376 -0.730469,-1.166015 -0.35804,-0.443025 -0.482226,-0.667896 -0.435546,-0.707031 z m -4.763672,1.517578 c 0.01689,-0.0085 0.05437,0.01156 0.113281,0.06641 0.183083,0.170444 0.486428,0.603771 0.675781,0.96289 0.452378,0.857987 1.119385,1.454223 2.164063,1.935547 l 0.853515,0.392579 -0.980468,-0.240235 C 31.776054,27.755961 31.412013,27.54284 30.994141,27.042969 30.40611,26.339544 29.579014,24.881845 29.697266,24.822266 Z m -6.251954,3.285156 c 0.34008,0.01641 0.643274,0.06943 0.671876,0.11914 0.02856,0.04975 -0.200863,0.474129 -0.509766,0.94336 -0.455258,0.691494 -0.580859,1.071317 -0.65625,2.005859 -0.05114,0.634161 -0.171682,1.203036 -0.269531,1.263672 -0.268007,0.1661 -0.603912,-1.450928 -0.503907,-2.425781 0.137582,-1.34115 0.53623,-1.941364 1.267578,-1.90625 z m -2.451171,0.193359 c 0.398288,-0.01129 0.428376,0.08371 0.302734,0.904297 -0.08125,0.530632 0.0045,1.393906 0.203125,2.054688 0.18852,0.627251 0.272756,1.207329 0.185547,1.289062 -0.326034,0.305589 -0.89608,-0.07151 -1.152344,-0.763672 -0.31712,-0.8565 -0.437969,-3.234721 -0.171875,-3.373047 0.10352,-0.05381 0.388316,-0.104376 0.632813,-0.111328 z m -1.828125,0.330078 c 0.239659,0.02718 0.299226,0.223255 0.195312,0.607422 -0.109057,0.403166 0.160538,1.882562 0.4375,2.398438 0.09775,0.182099 0.248885,0.500776 0.335938,0.707031 0.130202,0.308449 0.07599,0.416295 -0.306641,0.611328 -0.445395,0.227023 -0.478512,0.211053 -0.777344,-0.396484 -0.453883,-0.92275 -0.86433,-2.827848 -0.722656,-3.351563 0.0672,-0.248427 0.308696,-0.494084 0.537109,-0.546875 0.120436,-0.02784 0.220895,-0.03836 0.300782,-0.0293 z m -2.011719,0.447266 c 0.282931,-0.0336 0.328739,0.207597 0.404297,1.037109 0.05084,0.558083 0.368116,1.512622 0.703125,2.121094 0.596143,1.082761 0.597347,1.108724 0.130859,1.25 -0.436071,0.132069 -0.537447,0.03339 -1.193359,-1.160156 -0.39431,-0.717512 -0.743607,-1.680226 -0.777344,-2.138672 -0.0558,-0.758275 -0.02321,-0.848188 0.361328,-0.996094 0.15674,-0.06029 0.276784,-0.102081 0.371094,-0.113281 z M 15.125,29.783203 c 0.294312,-0.06145 0.502213,0.136672 0.517578,0.542969 0.0262,0.69286 0.696147,2.159104 1.240234,2.716797 0.25972,0.26622 0.483137,0.603099 0.498047,0.748047 0.01486,0.144951 -0.09912,0.318875 -0.253906,0.386718 -0.358772,0.157246 -1.298164,-0.854658 -2.046875,-2.205078 -0.633431,-1.142538 -0.711726,-1.730185 -0.273437,-2.039062 0.113322,-0.07986 0.220255,-0.129906 0.318359,-0.150391 z m -1.521484,0.917969 c 0.09874,-0.01602 0.152343,0.0053 0.134765,0.07031 -0.127449,0.471158 1.20796,2.628651 1.970703,3.183594 0.817816,0.595024 0.866859,0.718493 0.400391,0.986328 -0.162804,0.09352 -0.386228,0.138298 -0.496094,0.09961 -0.334042,-0.117874 -1.246917,-0.789999 -1.310547,-0.964844 -0.03287,-0.09031 -0.286603,-0.370096 -0.5625,-0.621094 -0.511449,-0.46528 -1.278525,-1.81422 -1.199218,-2.107422 0.0241,-0.08909 0.317552,-0.307756 0.652343,-0.486328 0.167398,-0.08929 0.311413,-0.144135 0.410157,-0.160156 z m 22.388672,0.148437 c 0.08826,-0.0097 0.414613,0.07129 1.05664,0.234375 1.335038,0.339096 2.401491,1.056073 2.919922,1.958985 0.178982,0.311688 0.163792,0.377724 -0.111328,0.46289 -0.731221,0.226324 -1.751037,-0.263244 -2.310547,-1.109375 -0.299919,-0.453561 -0.83259,-1.010151 -1.183594,-1.236328 -0.309527,-0.199455 -0.459357,-0.300892 -0.371093,-0.310547 z m -24.435547,1.222657 c 0.187121,-0.03845 0.350398,0.184654 0.820312,0.927734 0.641816,1.014922 1.918509,2.121713 2.683594,2.326172 0.293122,0.07839 0.292241,0.137268 -0.0059,0.414062 -0.39452,0.366352 -0.435359,0.357498 -1.539063,-0.300781 -1.000194,-0.59655 -2.007199,-1.579038 -2.324219,-2.267578 -0.286403,-0.622058 -0.283364,-0.641744 0.158203,-0.982422 0.0795,-0.06134 0.144658,-0.104372 0.207032,-0.117187 z m -1.548829,1.373046 c 0.167037,-0.0046 0.389648,0.211136 0.84961,0.775391 0.908326,1.114299 1.689404,1.673628 2.722656,1.953125 0.620904,0.167958 0.728757,0.260019 0.566406,0.482422 -0.110476,0.151379 -0.210597,0.312746 -0.222656,0.357422 -0.04209,0.155644 -2.274786,-0.528931 -2.414062,-0.740234 -0.07719,-0.11711 -0.414457,-0.412015 -0.75,-0.654297 -0.680329,-0.491213 -1.3037035,-1.347569 -1.212891,-1.666016 0.032719,-0.114414 0.1705993,-0.310756 0.3066406,-0.435547 0.050062,-0.04592 0.098618,-0.07073 0.1542964,-0.07227 z m -1.2656245,1.53125 c 0.1434536,-0.02838 0.3049249,0.117486 0.6230469,0.517579 0.7738706,0.97328 1.5310196,1.469272 2.8144536,1.841797 0.632255,0.183548 1.145732,0.349349 1.140624,0.36914 -0.0051,0.01981 -0.155757,0.236694 -0.333984,0.482422 -0.261784,0.360942 -0.444137,0.40996 -0.953125,0.253906 C 10.795559,38.061773 9.7881707,37.44453 9.015625,36.591797 8.2246302,35.718701 8.1557605,35.467492 8.5996094,35.060547 c 0.049309,-0.04521 0.09476,-0.07452 0.1425781,-0.08398 z m 37.2832035,0.105469 c 0.09342,0.01371 0.237166,0.121734 0.443359,0.310547 0.496343,0.454519 0.499435,0.48198 0.07617,0.753906 -0.559119,0.359214 -0.573226,0.3534 -0.638672,-0.304687 -0.05433,-0.546137 -0.03655,-0.782621 0.119141,-0.759766 z m -38.2109379,1.423828 0.5820313,0.675782 c 0.3196794,0.371653 0.7920814,0.784282 1.0507812,0.917968 0.2587056,0.133699 0.6884424,0.400477 0.9531254,0.591797 0.264674,0.191346 0.844717,0.386492 1.289062,0.433594 0.630716,0.06686 0.790027,0.146985 0.730469,0.367188 -0.04196,0.155131 -0.168896,0.309714 -0.283203,0.34375 C 11.723756,39.9589 10.182516,39.601218 9.375,39.195312 7.8332468,38.420368 7.1906925,37.620359 7.5683594,36.945312 Z m 28.4296879,1.078125 c -0.365019,-0.0073 -0.16656,0.247488 0.685547,0.703125 1.183903,0.633056 2.20943,1.685519 3.324218,3.408203 1.123067,1.735477 2.621483,3.640931 3.183594,4.050782 0.237857,0.173424 0.662872,0.505168 0.945312,0.738281 0.282453,0.233112 0.676188,0.516614 0.875,0.628906 0.812226,0.458635 2.547265,0.643003 3.574219,0.38086 0.888525,-0.22681 1.161015,-0.422258 1.859375,-1.339844 0.449893,-0.591124 0.944932,-1.321104 1.09961,-1.623047 0.427791,-0.835065 1.000727,-1.25744 1.859375,-1.371094 1.735027,-0.229657 3.119358,0.630089 4.041015,2.509766 0.484677,0.988479 0.449028,0.25346 -0.04492,-0.925781 -0.726203,-1.73372 -2.930452,-3.11529 -4.259765,-2.667969 -1.13787,0.382895 -2.148855,1.041426 -2.548828,1.660156 -0.690323,1.067876 -1.796953,2.343224 -2.191407,2.523438 -0.205913,0.09408 -0.905765,0.07676 -1.554687,-0.03711 -1.057435,-0.185606 -1.297305,-0.311141 -2.3125,-1.216797 -0.933757,-0.832989 -1.321484,-1.40726 -2.207031,-3.261718 -1.057765,-2.215115 -2.050139,-3.698771 -2.564454,-3.837891 -0.446072,-0.120664 -0.377069,0.240813 0.183594,0.970703 0.295489,0.38468 0.586695,0.918481 0.648438,1.185547 0.110474,0.477843 0.106918,0.476934 -0.263672,0.02344 -0.966847,-1.18311 -1.740727,-1.73155 -3.085938,-2.191407 -0.605779,-0.20708 -1.027082,-0.306173 -1.246093,-0.310547 z m -29.3261722,0.777344 0.8710937,0.779297 c 0.9856294,0.882993 2.5184395,1.515511 3.5019535,1.445313 0.639788,-0.04568 0.657924,-0.02838 0.466796,0.445312 -0.167918,0.416231 -0.357696,0.489374 -1.238281,0.482422 -1.2558561,-0.0099 -1.624708,-0.114106 -2.4179685,-0.6875 C 7.7660799,40.583662 7.3562335,40.342061 7.1914062,40.291016 7.1603082,40.281383 7.1424615,40.261331 7.1132812,40.25 6.9559206,39.776379 6.811897,39.298805 6.6816406,38.816406 Z M 14.726562,41.3125 c -0.05724,0.0074 -0.09868,0.02823 -0.107421,0.06055 -0.152842,0.565026 4.53e-4,2.990702 0.27539,4.359375 0.693479,3.452265 1.663008,4.318355 3.542969,3.164062 0.550635,-0.338077 1.217128,-0.83878 1.480469,-1.111328 l 0.478515,-0.496094 -0.164062,1.41211 c -0.215784,1.862916 0.108564,2.038422 1.271484,0.685547 1.081947,-1.258673 1.880155,-1.810439 2.414063,-1.666016 0.227845,0.06163 0.39298,0.191757 0.367187,0.287109 -0.113952,0.421262 0.565174,0.59315 1.001953,0.253907 0.249931,-0.194148 0.501334,-0.271611 0.558594,-0.171875 0.05727,0.09974 0.0015,0.152835 -0.123047,0.11914 -0.522586,-0.14136 -0.549299,1.232838 -0.05469,2.773438 0.608798,1.896292 0.578541,2.769936 -0.132813,3.789062 -0.580517,0.831693 -0.500386,0.986892 0.253906,0.488282 1.340926,-0.886397 1.929992,-2.627089 1.552735,-4.589844 -0.216473,-1.126241 -0.203264,-1.282802 0.111328,-1.355469 0.276156,-0.0638 0.333511,0.01916 0.259766,0.375 -0.05222,0.252121 0.129214,1.057356 0.402343,1.789063 0.512181,1.372113 0.476128,2.15659 -0.128906,2.798828 -0.246695,0.261765 -0.259392,0.335994 -0.05469,0.324218 0.146317,-0.0084 0.513903,-0.270833 0.816406,-0.583984 0.661174,-0.684434 0.878878,-1.834067 0.599609,-3.160156 -0.102247,-0.485655 -0.10552,-0.862368 -0.0078,-0.835938 0.292115,0.07902 0.258665,-1.274385 -0.05078,-2.066406 -0.281664,-0.720917 -0.492344,-0.892187 -1.263671,-1.02539 -0.213517,-0.03689 -0.533955,-0.342609 -0.710938,-0.679688 -0.368818,-0.702441 -1.545588,-1.161757 -1.863281,-0.726562 -0.153741,0.210586 -0.261609,0.158428 -0.626953,-0.302735 -0.849556,-1.072383 -2.784714,-0.823175 -5.375,0.691406 -1.547418,0.904791 -1.718194,0.783932 -3.140625,-2.210937 -0.598696,-1.260534 -1.216849,-2.324938 -1.373047,-2.367188 -0.0781,-0.02112 -0.151742,-0.02888 -0.208985,-0.02148 z m -7.1660151,0.173828 c 0.9323066,0.464454 2.3953366,0.814098 3.1894531,0.708984 0.686669,-0.09089 0.739629,-0.06937 0.755859,0.306641 0.02575,0.596498 -0.20395,0.718779 -1.398437,0.748047 C 9.5139336,43.264526 8.8495195,43.17971 8.2070312,43.019531 7.9734796,42.515833 7.7616807,42.003672 7.5605469,41.486328 Z m 3.2460941,2.394531 c 0.541682,-0.05567 0.613091,0.08447 0.498047,0.509766 -0.09427,0.348499 -0.328012,0.493248 -0.941407,0.587891 -0.3782855,0.05837 -0.7542192,0.131854 -1.0097654,0.185546 0.4654669,0.06816 0.9270804,0.190629 1.3593754,0.388672 0.583943,-0.292201 0.924508,-0.08387 0.773437,0.47461 -0.0659,0.24362 -0.515772,0.520564 -1.134766,0.759765 -0.3607091,-0.527915 -0.701164,-1.068004 -1.0214839,-1.61914 0.00571,-0.0012 0.017524,-0.0027 0.023437,-0.0039 -0.010451,-0.0015 -0.020796,-0.0044 -0.03125,-0.0059 -0.2276752,-0.392158 -0.4435838,-0.7905 -0.6503906,-1.193359 0.5460962,0.06974 1.0719975,0.102896 1.4257805,0.0332 0.295839,-0.05828 0.528424,-0.09863 0.708985,-0.117188 z m 0.939453,2.966797 0.04297,0.488282 c 0.0242,0.268053 -0.05064,0.581441 -0.167968,0.697265 -0.04829,0.04768 -0.149778,0.106838 -0.234375,0.162109 -0.203917,-0.259516 -0.406072,-0.520721 -0.59961,-0.787109 0.179515,-0.07819 0.380786,-0.160643 0.470703,-0.222656 z m 14.517578,1.33399 c 0.274436,0.0055 0.748573,0.405576 0.779297,0.705078 0.04123,0.401867 -0.05938,0.371375 -0.265625,-0.08008 -0.08961,-0.196137 -0.29799,-0.392896 -0.462891,-0.4375 -0.164874,-0.04461 -0.234554,-0.117983 -0.154297,-0.164063 0.02923,-0.01678 0.06431,-0.02422 0.103516,-0.02344 z m -2.564453,0.169921 c -0.451232,0.04629 -0.777211,1.193293 -0.587891,2.06836 0.07636,0.352961 0.133054,1.177449 0.126953,1.832031 -0.01262,1.346033 -0.519154,2.478781 -1.191406,2.660156 -0.363702,0.09831 -0.367007,0.108643 -0.04883,0.201172 0.903133,0.261223 2.222353,-1.128746 2.671875,-2.814453 0.511059,-1.917594 -0.01251,-4.045555 -0.970703,-3.947266 z M 19.6875,48.699219 c -0.107607,0.0031 -0.247806,0.284059 -0.396484,0.84375 -0.281083,1.058493 -0.09489,2.57877 0.4375,3.55664 0.201207,0.369561 0.438593,0.691364 0.52539,0.714844 0.222229,0.06012 0.287817,-0.289041 0.09375,-0.496094 -0.253062,-0.269994 -0.05866,-0.710038 0.84375,-1.910156 1.079796,-1.436026 1.077293,-2.012907 -0.0059,-1.244141 -0.928208,0.658802 -1.270378,0.490771 -1.300781,-0.638671 -0.01494,-0.554985 -0.08966,-0.82928 -0.197266,-0.826172 z m -7.611328,0.03906 c 0.215133,-0.01993 0.299429,0.104521 0.326172,0.365235 0.01376,0.134103 0.02346,0.231819 0.0059,0.318359 -0.181275,-0.203849 -0.358799,-0.410265 -0.533203,-0.619141 0.06547,-0.02047 0.150845,-0.05979 0.201172,-0.06445 z m 16.072266,0.197266 c 0.148045,-0.01776 0.36741,0.04284 0.486328,0.132812 0.118897,0.09 -0.0026,0.103463 -0.269532,0.03125 -0.266961,-0.07221 -0.364853,-0.146314 -0.216796,-0.164062 z M 8.4941406,51.396484 c 3.5169354,0.704209 -2.8313802,-17.132161 0,0 z m 0.5800782,0.673828 c 0.2350176,0.268422 0.4756652,0.532186 0.7207031,0.792969 0.7647201,-0.543555 0.6989581,-0.706126 -0.7207031,-0.792969 z m 1.3359372,1.439454 c 0.01335,0.0134 0.02568,0.02764 0.03906,0.04102 0.335799,0.3358 0.679744,0.662053 1.029297,0.980469 1.757236,-0.368937 0.420135,-1.560889 -1.06836,-1.021484 z M 11.871094,54.875 c 0.483534,0.42554 0.979209,0.834217 1.486328,1.226562 0,0 -0.409687,-1.684155 -1.486328,-1.226562 z m 1.990234,1.619141 c 0.418849,0.31027 0.846272,0.606863 1.279297,0.894531 0.437075,-1.079107 0.464844,0.294922 -1.279297,-0.894531 z m 1.744141,1.189453 c 0.402351,0.256946 0.809389,0.504774 1.222656,0.742187 0.980406,-2.373247 -0.185394,-0.686516 -1.222656,-0.742187 z"
     transform="scale(0.75)"
     sodipodi:nodetypes="scscssscscssssssccccccccccssscsscscccscsssscsscsccscsssssscccscccccccsscsssscccscscccccccscssscssccssscsssscccsssssccccccscccsscssscccccccccsccscscscscsccccccccsccsccsscssssssscscssssscccccsscccccsccscccscssccssscsssssssssssscscsssscccscsssscccsssssccssssscscssccsssscsscsssssscscsccssssccssssscscssssssscssssscssccccccscscscsscccssscscssssscsccscsscssssssscsscccsssccscccccssccscccccccssscsssscsscsscssssssccsccsccccccccscccccccccccsscssccccccccc" />
</svg>
