<svg width="128" height="128" viewBox="0 0 128 128" fill="none" xmlns="http://www.w3.org/2000/svg">
<path d="M58.1757 7.64278C61.3666 5.45615 65.9721 5.44866 69.171 7.64278C74.1141 10.9302 76.9674 16.1946 79.1697 21.3242C80.2306 23.6831 78.4543 26.5961 75.7618 27.0379C73.5916 27.4872 71.2527 26.2591 70.5294 24.3046C68.9058 20.6802 67.025 16.9584 63.6734 14.4273C60.161 17.0558 58.3123 20.9947 56.6003 24.7614C55.66 27.0529 52.4128 28.0563 50.1623 26.8133C48.1208 25.8248 47.2125 23.3461 48.1449 21.3841C50.3793 16.247 53.2085 10.9452 58.1757 7.64278Z" fill="url(#paint0_linear)"/>
<path d="M99.6572 28.1912C104.721 27.8917 110.452 28.034 114.527 31.2465C117.991 34.0322 118.023 38.8249 116.673 42.5916C113.819 50.6791 107.502 57.0892 101.401 63.2073C106.714 67.7228 111.577 72.8075 115.162 78.6485C117.275 82.243 119.076 86.429 118.071 90.5851C117.324 93.7303 114.398 96.0068 111.207 96.9578C106.152 98.5229 100.686 98.2159 95.4777 97.5569C84.9245 96.0742 74.8133 92.607 65.1683 88.4359C64.0591 87.6796 62.8857 88.6157 61.8569 89.0051C51.2956 93.8875 40.0591 97.9163 28.2601 99.107C23.0116 99.4664 17.0156 99.414 12.7959 96.0517C9.32371 93.2211 9.38801 88.376 10.7544 84.6018C13.6157 76.6865 19.7644 70.3588 25.7524 64.3605C25.5997 63.5143 24.5146 63.0725 23.9761 62.421C18.3981 57.2839 13.1013 51.5702 10.1837 44.7033C8.60034 40.9441 8.21454 36.0916 11.5099 33.0138C15.5126 29.4194 21.5327 29.1498 26.7812 29.322C39.167 30.1008 51.0223 34.1296 62.2185 38.9297C63.2875 39.6411 64.4289 38.7425 65.4255 38.3756C76.1717 33.4107 87.6251 29.2696 99.6572 28.1912ZM73.3666 44.3064C80.6968 48.2004 87.7376 52.5662 94.3364 57.4786C100.252 51.8099 106.561 45.6618 108.499 37.7091C105.549 36.3462 102.133 36.7131 98.966 36.9003C90.0364 37.9038 81.5327 40.9216 73.3666 44.3064ZM18.1409 38.7425C18.2936 41.2886 19.5956 43.5875 20.9942 45.7142C24.2011 50.4844 28.3887 54.6105 32.8254 58.4072C39.2072 53.2476 46.1998 48.7995 53.2889 44.5461C46.2641 41.9775 39.1187 39.5438 31.6439 38.428C27.1831 37.7465 22.5133 37.4395 18.1409 38.7425ZM39.8984 64.031C47.3733 69.4377 55.4108 74.1255 63.7537 78.2741C69.8702 75.3611 75.5367 71.7067 81.0826 67.955C83.1562 66.3899 85.5434 65.1094 87.1911 63.1174C79.7242 57.8456 71.8234 53.1203 63.5126 49.0841C55.1053 53.2701 47.2929 58.4446 39.8984 64.031ZM73.8729 82.6998C82.457 85.9423 91.3625 88.8553 100.678 89.4544C103.563 89.6715 106.465 89.3795 109.23 88.5782C107.647 80.4532 100.533 74.6796 94.6981 68.9584C88.027 73.8784 81.3157 78.8208 73.8729 82.6998ZM22.1435 82.1007C20.5843 84.512 19.1295 87.118 18.9928 89.9935C21.7577 90.6301 24.6271 90.8922 27.4644 90.5701C36.7396 89.679 45.5568 86.5638 54.0122 83.0517C46.666 79.1577 39.609 74.792 33.0183 69.8571C28.9674 73.5863 25.1415 77.5777 22.1435 82.1007Z" fill="url(#paint1_linear)"/>
<path d="M48.0725 105.592C46.7946 101.346 53.522 98.5453 56.1502 102.087C58.3123 105.884 59.8796 110.212 63.6733 112.946C67.2179 110.31 69.0183 106.333 70.8106 102.582C72.0404 99.8857 76.3967 99.4289 78.3337 101.69C79.7483 103.091 79.7001 105.232 78.824 106.872C76.5253 111.822 73.68 116.967 68.6807 119.992C65.3532 122.037 60.7637 121.692 57.6934 119.371C52.9674 115.926 50.098 110.744 48.0725 105.592Z" fill="url(#paint2_linear)"/>
<defs>
<linearGradient id="paint0_linear" x1="63.6297" y1="27.3515" x2="63.6297" y2="6" gradientUnits="userSpaceOnUse">
<stop stop-color="#5570FF"/>
<stop offset="1" stop-color="#4DD3FF"/>
</linearGradient>
<linearGradient id="paint1_linear" x1="63.6787" y1="99.2546" x2="63.6787" y2="28.0853" gradientUnits="userSpaceOnUse">
<stop stop-color="#5570FF"/>
<stop offset="1" stop-color="#4DD3FF"/>
</linearGradient>
<linearGradient id="paint2_linear" x1="63.6793" y1="121.339" x2="63.6793" y2="100.243" gradientUnits="userSpaceOnUse">
<stop stop-color="#5570FF"/>
<stop offset="1" stop-color="#4DD3FF"/>
</linearGradient>
</defs>
</svg>
