<svg width="192" height="192" viewBox="0 0 192 192" fill="none" xmlns="http://www.w3.org/2000/svg">
<path d="M4.2713 49.5486C4.26084 38.9992 13.6988 29.7646 24.0052 30.1173C47.4431 30.1814 70.8915 29.9142 94.3189 30.2562C91.8077 34.4781 88.4595 38.1442 86.4819 42.6867C65.6807 42.9112 44.8796 42.6974 24.0889 42.7936C19.9873 42.5905 16.346 46.4597 16.6704 50.6388C16.5657 79.8713 16.6913 109.104 16.6181 138.347C16.6285 142.334 16.1158 146.63 18.3445 150.158L18.5852 150.724C16.9424 154.572 13.5418 157.158 11.4701 160.771C9.57622 159.157 8.02764 157.158 6.59416 155.117C4.82586 151.6 4.11435 147.635 4.21898 143.713C4.2713 112.321 4.17713 80.9401 4.2713 49.5486Z" fill="url(#paint0_linear)"/>
<path d="M94.3189 30.2562C115.936 29.989 137.574 30.0104 159.192 30.2562C156.701 34.4888 153.332 38.1442 151.344 42.6974C129.727 42.8363 108.099 42.8363 86.4819 42.6867C88.4595 38.1442 91.8077 34.4781 94.3189 30.2562Z" fill="url(#paint1_linear)"/>
<path d="M159.192 30.2562C164.716 29.8821 170.691 29.7004 175.651 32.6397C179.867 34.9911 182.965 39.0206 184.785 43.5097C184.89 44.1724 185.089 45.5191 185.183 46.1818C184.67 51.6114 184.911 57.0518 184.869 62.4921C185.047 65.581 182.766 67.8256 181.123 70.1129C178.675 73.4583 176.571 77.103 173.432 79.8392C172.982 69.1189 173.976 58.3023 172.92 47.6354C171.852 45.145 169.634 43.0394 166.882 42.8898C161.713 42.5584 156.524 42.9112 151.344 42.6974C153.332 38.1442 156.701 34.4888 159.192 30.2562Z" fill="url(#paint2_linear)"/>
<path d="M185.183 46.1818C185.978 49.7731 185.716 53.4712 185.8 57.1159C185.685 86.6904 185.863 116.276 185.716 145.85C185.643 156.282 176.53 165.399 166.328 165.281C142.21 165.378 118.071 165.356 93.9527 165.281C96.6732 161.188 99.9587 157.394 101.685 152.691C123.135 152.488 144.585 152.723 166.035 152.584C170.084 152.701 173.6 148.928 173.317 144.813C173.453 123.159 173.213 101.494 173.432 79.8392C176.571 77.103 178.675 73.4583 181.123 70.1129C182.766 67.8256 185.047 65.581 184.869 62.4921C184.911 57.0518 184.67 51.6114 185.183 46.1818Z" fill="url(#paint3_linear)"/>
<path d="M31.0366 86.7332C35.5567 74.4951 48.772 66.543 61.4431 68.36C74.3653 69.7922 85.1635 81.1325 86.6807 94.2471C87.748 105.491 82.4116 117.206 72.7958 122.977C63.1905 129.102 50.3415 128.407 41.0814 121.919C30.4611 114.288 25.9828 99.014 31.0366 86.7332ZM50.1845 82.7999C43.2055 86.4125 39.2294 95.7755 42.473 103.225C45.1935 113.433 58.6075 117.922 66.9363 111.765C75.4744 106.474 77.0753 92.3339 69.1337 85.8354C64.7286 80.2988 56.1277 79.4224 50.1845 82.7999Z" fill="url(#paint4_linear)"/>
<path d="M112.012 76.4724C118.96 69.4181 129.591 66.5323 139.071 68.9906C149.513 71.5344 157.947 80.5126 160.364 91.1474C162.655 102.488 158.344 114.993 148.959 121.705C139.228 129.07 125.27 128.856 115.35 121.962C109.083 117.238 104.604 109.98 103.548 102.06C102.135 92.7935 105.368 82.9495 112.012 76.4724ZM121.921 84.4993C116.575 88.6357 113.844 96.9405 116.794 103.172C119.316 113.454 132.95 117.943 141.216 111.733C149.764 106.421 151.25 92.3659 143.423 85.8033C138.181 79.572 127.948 79.2407 121.921 84.4993Z" fill="url(#paint5_linear)"/>
<path d="M11.4701 160.771C13.5418 157.158 16.9424 154.572 18.5852 150.724C20.5837 151.804 22.7182 152.765 25.0306 152.637C50.5821 152.659 76.1336 152.53 101.685 152.691C99.9587 157.394 96.6732 161.188 93.9527 165.281C70.9752 165.399 48.0081 165.303 25.0411 165.335C20.1861 165.41 15.2055 164.042 11.4701 160.771Z" fill="url(#paint6_linear)"/>
<defs>
<linearGradient id="paint0_linear" x1="95.0044" y1="30.0505" x2="95.0044" y2="165.346" gradientUnits="userSpaceOnUse">
<stop stop-color="#00FFE0"/>
<stop offset="1" stop-color="#078AA7"/>
</linearGradient>
<linearGradient id="paint1_linear" x1="95.0044" y1="30.0505" x2="95.0044" y2="165.346" gradientUnits="userSpaceOnUse">
<stop stop-color="#00FFE0"/>
<stop offset="1" stop-color="#078AA7"/>
</linearGradient>
<linearGradient id="paint2_linear" x1="95.0044" y1="30.0505" x2="95.0044" y2="165.346" gradientUnits="userSpaceOnUse">
<stop stop-color="#00FFE0"/>
<stop offset="1" stop-color="#078AA7"/>
</linearGradient>
<linearGradient id="paint3_linear" x1="95.0044" y1="30.0505" x2="95.0044" y2="165.346" gradientUnits="userSpaceOnUse">
<stop stop-color="#00FFE0"/>
<stop offset="1" stop-color="#078AA7"/>
</linearGradient>
<linearGradient id="paint4_linear" x1="95.0044" y1="30.0505" x2="95.0044" y2="165.346" gradientUnits="userSpaceOnUse">
<stop stop-color="#00FFE0"/>
<stop offset="1" stop-color="#078AA7"/>
</linearGradient>
<linearGradient id="paint5_linear" x1="95.0044" y1="30.0505" x2="95.0044" y2="165.346" gradientUnits="userSpaceOnUse">
<stop stop-color="#00FFE0"/>
<stop offset="1" stop-color="#078AA7"/>
</linearGradient>
<linearGradient id="paint6_linear" x1="95.0044" y1="30.0505" x2="95.0044" y2="165.346" gradientUnits="userSpaceOnUse">
<stop stop-color="#00FFE0"/>
<stop offset="1" stop-color="#078AA7"/>
</linearGradient>
</defs>
</svg>
