<svg width="128" height="128" viewBox="0 0 128 128" fill="none" xmlns="http://www.w3.org/2000/svg">
<path d="M64 0C28.7103 0 0 28.7103 0 64C0 99.2897 28.7103 128 64 128C99.2897 128 128 99.2897 128 64C128 28.7103 99.2897 0 64 0ZM40.7923 12.4888L50.1842 19.5572L43.9873 22.0105C43.0843 22.368 42.3552 23.062 41.9535 23.946L38.6403 31.2393L24.8232 38.1455C23.6712 38.7213 22.8955 39.848 22.7682 41.1297L21.56 53.3112L15.4143 49.214L12.5608 40.6375C18.2405 28.1805 28.3153 18.1325 40.7923 12.4888V12.4888ZM37.7108 77.973L28.425 68.4248V63.5957L36.6463 63.487L46.2253 74.0228C46.7643 74.6155 47.4788 75.02 48.2643 75.1773L54.3155 76.388L50.993 79.7115C50.29 80.4148 49.895 81.3682 49.895 82.3627V86.6953L43.1177 91.7777C42.177 92.4832 41.622 93.589 41.6177 94.7643L38.7728 91.3503V80.5875C38.7725 79.611 38.3915 78.673 37.7108 77.973V77.973ZM64 120.5C32.8458 120.5 7.5 95.1542 7.5 64C7.5 60.1088 7.8955 56.308 8.64825 52.636L8.70425 52.804C8.96775 53.596 9.488 54.2772 10.1825 54.7402L20.925 61.902V69.9475C20.925 70.924 21.3057 71.862 21.9867 72.562L31.2725 82.1103V92.7075C31.2725 93.5847 31.58 94.4343 32.1418 95.1083L42.4868 107.522C43.2135 108.394 44.2765 108.872 45.3683 108.872C45.7953 108.872 46.2267 108.799 46.6442 108.647C48.1287 108.11 49.1177 106.7 49.1177 105.121V96.6525L55.895 91.57C56.8393 90.8617 57.395 89.7502 57.395 88.57V83.9155L64.572 76.7363C65.5497 75.7583 65.9098 74.3218 65.509 72.9983C65.108 71.6748 64.0115 70.6792 62.6555 70.408L50.9448 68.065L41.0595 57.1925C40.3373 56.3983 39.31 55.956 38.2352 55.9655L28.8207 56.09L30.0273 43.9295L43.1815 37.3545C43.9502 36.9702 44.5635 36.3338 44.919 35.5513L48.1555 28.427L59.1628 24.0693C60.424 23.57 61.3172 22.4282 61.4987 21.084C61.6802 19.7397 61.1212 18.402 60.0375 17.5865L49.24 9.46C53.9473 8.18475 58.8948 7.5 64 7.5C83.5455 7.5 100.803 17.4775 110.951 32.6055L102.983 35.3498L93.1085 33.7033L89.8695 28.8468C88.8047 27.2503 86.7067 26.7153 85.0072 27.6068L58.8848 41.3143C57.4998 42.041 56.7115 43.5508 56.9065 45.1025C57.1015 46.6543 58.239 47.922 59.7605 48.2835L76.664 52.2995L81.529 59.8573C82.3987 61.2088 84.033 61.8555 85.5922 61.4655L92.258 59.798L95.4147 61.9022V68.1725C95.4147 69.1155 95.77 70.024 96.4098 70.7168L107.392 82.6095L107.394 100.141C97.0215 112.574 81.4198 120.5 64 120.5V120.5ZM114.893 81.1423C114.893 80.1995 114.537 79.291 113.897 78.5983L102.915 66.7057V59.895C102.915 58.641 102.288 57.47 101.245 56.7747L95.0372 52.6372C94.158 52.0512 93.0725 51.863 92.0475 52.1198L86.3805 53.5373L82.1533 46.9702C81.6288 46.1555 80.8095 45.5755 79.8668 45.3515L71.2387 43.3018L85.5033 35.8167L87.77 39.2158C88.345 40.0778 89.251 40.6635 90.2732 40.834L102.688 42.904C103.304 43.0067 103.936 42.954 104.526 42.7508L114.769 39.2233C118.437 46.7085 120.5 55.1173 120.5 64C120.5 72.7837 118.485 81.1052 114.893 88.5275L114.893 81.1423Z" fill="url(#paint0_linear)"/>
<defs>
<linearGradient id="paint0_linear" x1="18.7453" y1="109.255" x2="109.255" y2="18.7453" gradientUnits="userSpaceOnUse">
<stop stop-color="#0072FF"/>
<stop offset="1" stop-color="#00E5A1"/>
</linearGradient>
</defs>
</svg>
