<svg width="192" height="192" viewBox="0 0 192 192" fill="none" xmlns="http://www.w3.org/2000/svg">
<path d="M27.7194 19.9912C32.5821 17.6183 38.1565 17.8675 43.4101 18.2364C43.9114 22.2444 39.9712 24.2982 37.6753 26.9104C30.9679 33.2114 24.8721 40.1905 17.8639 46.1426C14.3548 46.671 15.0666 42.3739 15.0466 40.1905C14.826 31.7458 19.9393 23.4408 27.7194 19.9912Z" fill="url(#paint0_linear)"/>
<path d="M48.1725 23.371C51.2605 20.2304 55.5617 18.3561 60.0032 18.3561C69.1469 18.2364 78.3006 18.3561 87.4544 18.3162C82.4113 20.37 79.5539 25.1756 75.5936 28.5853C71.3827 29.3431 67.0615 29.2633 62.8606 30.1407C56.2534 30.9183 51.9423 36.362 47.5409 40.6989C43.5906 44.7368 39.4298 48.5753 35.5397 52.6829C32.6121 55.7338 31.1082 59.9312 31.1383 64.1286C31.0581 71.3469 31.1784 78.5652 31.1082 85.7835C26.787 90.0008 23.6489 95.2152 19.3778 99.4724C19.3477 85.7037 19.2876 71.9251 19.3979 58.1565C19.458 53.5802 21.754 49.333 25.0826 46.2722C32.7926 38.6551 40.4625 30.9981 48.1725 23.371Z" fill="url(#paint1_linear)"/>
<path d="M87.4544 18.3162C101.822 18.2962 116.199 18.3062 130.576 18.3162C125.704 20.5495 122.004 24.5873 119.227 29.0539C130.646 29.6721 142.196 28.3859 153.536 30.1407C123.317 30.0111 93.079 30.0011 62.8606 30.1407C67.0615 29.2633 71.3827 29.3431 75.5936 28.5853C79.5539 25.1756 82.4113 20.37 87.4544 18.3162Z" fill="url(#paint2_linear)"/>
<path d="M130.576 18.3162C138.186 18.3461 145.806 18.1766 153.425 18.4259C159.872 18.6153 165.778 21.7957 170.369 26.1427C167.612 29.1935 164.925 32.374 163.281 36.1825C161.938 34.5873 160.434 33.1317 158.819 31.8256C157.125 31.0679 155.371 30.4398 153.536 30.1407C142.196 28.3859 130.646 29.6721 119.227 29.0539C122.004 24.5873 125.704 20.5495 130.576 18.3162Z" fill="url(#paint3_linear)"/>
<path d="M163.281 36.1825C164.925 32.374 167.612 29.1935 170.369 26.1427C172.515 29.014 174.721 31.9652 175.834 35.4148C177.287 40.5494 176.967 45.9133 176.977 51.1775C176.946 63.3609 177.007 75.5443 176.946 87.7277C172.214 91.5163 169.216 96.8503 165.176 101.277C165.146 82.2342 165.176 63.1814 165.176 44.1386C165.216 41.3769 164.514 38.6551 163.281 36.1825Z" fill="url(#paint4_linear)"/>
<path d="M19.3778 99.4724C23.6489 95.2152 26.787 90.0008 31.1082 85.7835C31.1283 93.1913 31.1584 100.589 31.0882 107.997C31.0982 111.696 30.9879 115.454 31.9203 119.073C33.0432 122.483 35.8205 125.016 38.8984 126.711C36.2516 128.685 33.9055 131.008 31.8502 133.59C32.4417 134.776 33.0332 135.973 33.6147 137.169C25.8145 133.42 20.1799 125.594 19.4881 116.97C19.1572 111.137 19.4179 105.305 19.3778 99.4724Z" fill="url(#paint5_linear)"/>
<path d="M123.608 90.4096C128.832 84.2182 139.519 84.4974 144.412 90.948C148.382 95.4844 147.42 101.855 147.54 107.399C138.396 107.359 129.253 107.438 120.099 107.349C120.169 101.616 119.217 94.936 123.608 90.4096Z" fill="url(#paint6_linear)"/>
<path d="M165.176 101.277C169.216 96.8503 172.214 91.5163 176.946 87.7277C176.997 107.448 176.946 127.169 176.987 146.88C177.007 150.15 176.716 153.42 176.054 156.631C173.728 162.393 169.868 167.737 164.304 170.768C160.404 173.071 155.842 173.949 151.35 173.949C138.958 173.998 126.556 173.879 114.164 173.998C117.101 170.23 119.818 166.282 122.445 162.294C132.381 162.274 142.307 162.334 152.232 162.274C158.298 162.403 163.983 157.648 164.925 151.695C165.507 146.501 164.955 141.267 165.186 136.052C164.705 136.252 163.732 136.661 163.241 136.86C157.867 139.402 151.871 139.702 146.026 139.502C148.342 135.494 150.618 131.436 153.405 127.708C159.15 127.04 164.334 122.493 164.985 116.661C165.437 111.546 165.056 106.402 165.176 101.277Z" fill="url(#paint7_linear)"/>
<path d="M31.8502 133.59C33.9055 131.008 36.2516 128.685 38.8984 126.711C41.5052 127.558 44.2523 127.817 46.9894 127.787C57.3864 127.737 67.7833 127.757 78.1903 127.747C75.2527 131.516 72.5457 135.454 69.969 139.482C61.3166 139.512 52.6541 139.502 44.0017 139.333C40.5527 139.313 37.204 138.405 33.8654 137.668L33.6147 137.169C33.0332 135.973 32.4417 134.776 31.8502 133.59Z" fill="url(#paint8_linear)"/>
<path d="M78.1903 127.747C90.9133 127.757 103.636 127.757 116.359 127.737C113.672 131.506 111.406 135.534 109.02 139.482C96.0065 139.492 82.9828 139.492 69.969 139.482C72.5457 135.454 75.2527 131.516 78.1903 127.747Z" fill="url(#paint9_linear)"/>
<path d="M116.359 127.737C128.701 127.728 141.053 127.817 153.405 127.708C150.618 131.436 148.342 135.494 146.026 139.502C133.694 139.472 121.352 139.502 109.02 139.482C111.406 135.534 113.672 131.506 116.359 127.737Z" fill="url(#paint10_linear)"/>
<path d="M98.493 153.022C98.5532 148.106 105.471 145.793 108.629 149.492C112.118 152.792 108.399 158.844 112.128 161.805C115.457 162.782 119.026 162.124 122.445 162.294C119.818 166.282 117.101 170.23 114.164 173.998C110.815 174.018 107.426 173.849 104.198 172.882C102.824 171.875 101.601 170.688 100.438 169.452C97.3601 164.557 98.5331 158.485 98.493 153.022Z" fill="url(#paint11_linear)"/>
<path d="M87.4544 18.3162C78.3006 18.3561 69.1469 18.2364 60.0032 18.3561C55.5617 18.3561 51.2605 20.2304 48.1725 23.371C40.4625 30.9981 32.7926 38.6551 25.0826 46.2722C21.754 49.333 19.458 53.5802 19.3979 58.1565C19.2876 71.9251 19.3477 85.7037 19.3778 99.4724M87.4544 18.3162C82.4113 20.37 79.5539 25.1756 75.5936 28.5853C71.3827 29.3431 67.0615 29.2633 62.8606 30.1407M87.4544 18.3162C101.822 18.2962 116.199 18.3062 130.576 18.3162M62.8606 30.1407C56.2534 30.9183 51.9423 36.362 47.5409 40.6989C43.5906 44.7368 39.4298 48.5753 35.5397 52.6829C32.6121 55.7338 31.1082 59.9312 31.1383 64.1286C31.0581 71.3469 31.1784 78.5652 31.1082 85.7835M62.8606 30.1407C93.079 30.0011 123.317 30.0111 153.536 30.1407M31.1082 85.7835C26.787 90.0008 23.6489 95.2152 19.3778 99.4724M31.1082 85.7835C31.1283 93.1913 31.1584 100.589 31.0882 107.997C31.0982 111.696 30.9879 115.454 31.9203 119.073C33.0432 122.483 35.8205 125.016 38.8984 126.711M19.3778 99.4724C19.4179 105.305 19.1572 111.137 19.4881 116.97C20.1799 125.594 25.8145 133.42 33.6147 137.169M130.576 18.3162C125.704 20.5495 122.004 24.5873 119.227 29.0539C130.646 29.6721 142.196 28.3859 153.536 30.1407M130.576 18.3162C138.186 18.3461 145.806 18.1766 153.425 18.4259C159.872 18.6153 165.778 21.7957 170.369 26.1427M153.536 30.1407C155.371 30.4398 157.125 31.0679 158.819 31.8256C160.434 33.1317 161.938 34.5873 163.281 36.1825M170.369 26.1427C167.612 29.1935 164.925 32.374 163.281 36.1825M170.369 26.1427C172.515 29.014 174.721 31.9652 175.834 35.4148C177.287 40.5494 176.967 45.9133 176.977 51.1775C176.946 63.3609 177.007 75.5443 176.946 87.7277M163.281 36.1825C164.514 38.6551 165.216 41.3769 165.176 44.1386C165.176 63.1814 165.146 82.2342 165.176 101.277M176.946 87.7277C172.214 91.5163 169.216 96.8503 165.176 101.277M176.946 87.7277C176.997 107.448 176.946 127.169 176.987 146.88C177.007 150.15 176.716 153.42 176.054 156.631C173.728 162.393 169.868 167.737 164.304 170.768C160.404 173.071 155.842 173.949 151.35 173.949C138.958 173.998 126.556 173.879 114.164 173.998M165.176 101.277C165.056 106.402 165.437 111.546 164.985 116.661C164.334 122.493 159.15 127.04 153.405 127.708M38.8984 126.711C36.2516 128.685 33.9055 131.008 31.8502 133.59C32.4417 134.776 33.0332 135.973 33.6147 137.169M38.8984 126.711C41.5052 127.558 44.2523 127.817 46.9894 127.787C57.3864 127.737 67.7833 127.757 78.1903 127.747M33.6147 137.169L33.8654 137.668C37.204 138.405 40.5527 139.313 44.0017 139.333C52.6541 139.502 61.3166 139.512 69.969 139.482M114.164 173.998C117.101 170.23 119.818 166.282 122.445 162.294M114.164 173.998C110.815 174.018 107.426 173.849 104.198 172.882C102.824 171.875 101.601 170.688 100.438 169.452C97.3601 164.557 98.5331 158.485 98.493 153.022C98.5532 148.106 105.471 145.793 108.629 149.492C112.118 152.792 108.399 158.844 112.128 161.805C115.457 162.782 119.026 162.124 122.445 162.294M122.445 162.294C132.381 162.274 142.307 162.334 152.232 162.274C158.298 162.403 163.983 157.648 164.925 151.695C165.507 146.501 164.955 141.267 165.186 136.052C164.705 136.252 163.732 136.661 163.241 136.86C157.867 139.402 151.871 139.702 146.026 139.502M146.026 139.502C148.342 135.494 150.618 131.436 153.405 127.708M146.026 139.502C133.694 139.472 121.352 139.502 109.02 139.482M153.405 127.708C141.053 127.817 128.701 127.728 116.359 127.737M78.1903 127.747C75.2527 131.516 72.5457 135.454 69.969 139.482M78.1903 127.747C90.9133 127.757 103.636 127.757 116.359 127.737M69.969 139.482C82.9828 139.492 96.0065 139.492 109.02 139.482M116.359 127.737C113.672 131.506 111.406 135.534 109.02 139.482M27.7194 19.9912C32.5821 17.6183 38.1565 17.8675 43.4101 18.2364C43.9114 22.2444 39.9712 24.2982 37.6753 26.9104C30.9679 33.2114 24.8721 40.1905 17.8639 46.1426C14.3548 46.671 15.0666 42.3739 15.0466 40.1905C14.826 31.7458 19.9393 23.4408 27.7194 19.9912ZM123.608 90.4096C128.832 84.2182 139.519 84.4974 144.412 90.948C148.382 95.4844 147.42 101.855 147.54 107.399C138.396 107.359 129.253 107.438 120.099 107.349C120.169 101.616 119.217 94.936 123.608 90.4096Z" stroke="url(#paint12_linear)" stroke-width="4"/>
<defs>
<linearGradient id="paint0_linear" x1="96" y1="18" x2="96" y2="174" gradientUnits="userSpaceOnUse">
<stop stop-color="#97EB0E"/>
<stop offset="1" stop-color="#19B90B"/>
</linearGradient>
<linearGradient id="paint1_linear" x1="96" y1="18" x2="96" y2="174" gradientUnits="userSpaceOnUse">
<stop stop-color="#97EB0E"/>
<stop offset="1" stop-color="#19B90B"/>
</linearGradient>
<linearGradient id="paint2_linear" x1="96" y1="18" x2="96" y2="174" gradientUnits="userSpaceOnUse">
<stop stop-color="#97EB0E"/>
<stop offset="1" stop-color="#19B90B"/>
</linearGradient>
<linearGradient id="paint3_linear" x1="96" y1="18" x2="96" y2="174" gradientUnits="userSpaceOnUse">
<stop stop-color="#97EB0E"/>
<stop offset="1" stop-color="#19B90B"/>
</linearGradient>
<linearGradient id="paint4_linear" x1="96" y1="18" x2="96" y2="174" gradientUnits="userSpaceOnUse">
<stop stop-color="#97EB0E"/>
<stop offset="1" stop-color="#19B90B"/>
</linearGradient>
<linearGradient id="paint5_linear" x1="96" y1="18" x2="96" y2="174" gradientUnits="userSpaceOnUse">
<stop stop-color="#97EB0E"/>
<stop offset="1" stop-color="#19B90B"/>
</linearGradient>
<linearGradient id="paint6_linear" x1="96" y1="18" x2="96" y2="174" gradientUnits="userSpaceOnUse">
<stop stop-color="#97EB0E"/>
<stop offset="1" stop-color="#19B90B"/>
</linearGradient>
<linearGradient id="paint7_linear" x1="96" y1="18" x2="96" y2="174" gradientUnits="userSpaceOnUse">
<stop stop-color="#97EB0E"/>
<stop offset="1" stop-color="#19B90B"/>
</linearGradient>
<linearGradient id="paint8_linear" x1="96" y1="18" x2="96" y2="174" gradientUnits="userSpaceOnUse">
<stop stop-color="#97EB0E"/>
<stop offset="1" stop-color="#19B90B"/>
</linearGradient>
<linearGradient id="paint9_linear" x1="96" y1="18" x2="96" y2="174" gradientUnits="userSpaceOnUse">
<stop stop-color="#97EB0E"/>
<stop offset="1" stop-color="#19B90B"/>
</linearGradient>
<linearGradient id="paint10_linear" x1="96" y1="18" x2="96" y2="174" gradientUnits="userSpaceOnUse">
<stop stop-color="#97EB0E"/>
<stop offset="1" stop-color="#19B90B"/>
</linearGradient>
<linearGradient id="paint11_linear" x1="96" y1="18" x2="96" y2="174" gradientUnits="userSpaceOnUse">
<stop stop-color="#97EB0E"/>
<stop offset="1" stop-color="#19B90B"/>
</linearGradient>
<linearGradient id="paint12_linear" x1="96" y1="18" x2="96" y2="174" gradientUnits="userSpaceOnUse">
<stop stop-color="#97EB0E"/>
<stop offset="1" stop-color="#19B90B"/>
</linearGradient>
</defs>
</svg>
