<svg viewBox="0 0 48 48" xmlns="http://www.w3.org/2000/svg" xmlns:xlink="http://www.w3.org/1999/xlink"><radialGradient id="a" cx="26.805" cy="21.453" gradientTransform="matrix(3.5035 .02137 -.01507 2.47004 -66.755 -32.267)" gradientUnits="userSpaceOnUse" r="13.5"><stop offset="0" stop-color="#9bd7ff"/><stop offset="1" stop-color="#ff0046"/></radialGradient><path d="m4.73 7.295v32h38.602v-32zm21.477 28.119 14.156-.12v-2.81h-1.485v-1.484h-1.485v-1.485h-1.485v-1.484h-1.484v-1.485h-2.97v1.485h-1.29v1.484h-1.68v1.485h-1.484v1.485h-1.485v-1.485h-1.484v-1.485h-1.485v-1.484h-1.486v-1.485h-1.485v-1.486h-1.484v1.485h-1.485v1.485h-1.485v1.484h-1.485v1.486h-1.484v1.485h-1.485v1.484h-1.484v1.485h-1.483zm-.692-19.261v1.484h-1.484v1.485h-1.485v2.97h1.485v1.484h1.484v1.485h2.97v-1.485h1.485v-1.484h1.484v-2.97h-1.484v-1.485h-1.485v-1.484z" fill="none" stroke="url(#a)" stroke-width="1.485"/></svg>