<svg height="48" width="48" xmlns="http://www.w3.org/2000/svg" xmlns:xlink="http://www.w3.org/1999/xlink"><linearGradient id="a"><stop offset="0" stop-color="#00ff16"/><stop offset="1" stop-color="#bf0"/></linearGradient><linearGradient id="b" gradientTransform="matrix(1.17955 0 0 1.11351 -66.007 -6.503)" gradientUnits="userSpaceOnUse" x1="60.155" x2="93.639" xlink:href="#a" y1="12.59" y2="45.834"/><linearGradient id="c" gradientTransform="matrix(1.17955 0 0 1.11351 -66.007 -6.503)" gradientUnits="userSpaceOnUse" x1="59.89" x2="93.046" xlink:href="#a" y1="12.513" y2="45.208"/><linearGradient id="d" gradientUnits="userSpaceOnUse" x1="6" x2="16" xlink:href="#a" y1="11" y2="11"/><g fill="none" stroke-linecap="round" stroke-linejoin="round" stroke-width="1.8"><path d="m43.799 16.19-.001-4.679s0-1.073-1.138-1.073h-17.814c-.333 0-.784-.033-1.197-.464l-3.215-3.348c-.354-.367-.83-.467-1.196-.467h-13.644c-1.138 0-1.138 1.071-1.138 1.071l-.076 13.192" stroke="url(#c)"/><path d="m4 20.456h10.37c.818 0 1.062-.238 1.437-.768l1.448-2.114c.31-.452.794-1.411 1.424-1.411h25.497c1.137 0 1.137 1.073 1.137 1.073l-.378 26.12s0 1.073-1.137 1.073h-39.42c-1.137 0-1.137-1.073-1.137-1.073l-.376-21.827s0-1.074 1.136-1.074z" stroke="url(#b)"/></g><path d="m11 3-.707.707-7.293 7.293.707.707.293-.293v7.586h14v-7.586l.293.293.707-.707-2-2-.707.707.707.707v7.586h-4v-5h-4v5h-4v-7.586l6-6 1.293 1.293.707-.707-1.293-1.293zm3 2v3h2v-3z" fill="url(#d)" transform="matrix(1.15 0 0 1.15 16.1 17.25)"/></svg>