<svg width="128" height="128" viewBox="0 0 128 128" fill="none" xmlns="http://www.w3.org/2000/svg">
<path d="M124.25 0H3.75C1.679 0 0 1.679 0 3.75V26.25C0 28.321 1.679 30 3.75 30H9.60725L49 72.7152V124.25C49 125.633 49.7612 126.904 50.9805 127.556C52.197 128.207 53.6765 128.139 54.83 127.37L77.33 112.37C78.3733 111.675 79 110.504 79 109.25V72.7152L118.393 30H124.25C126.321 30 128 28.321 128 26.25V3.75C128 1.679 126.321 0 124.25 0ZM72.4935 68.7077C71.8545 69.4002 71.5 70.3077 71.5 71.25V107.243L56.5 117.243V71.25C56.5 70.3077 56.1455 69.4002 55.5065 68.7077L19.8095 30H108.19L72.4935 68.7077ZM120.5 22.5H7.5V7.5H120.5V22.5Z" fill="url(#paint0_linear)"/>
<defs>
<linearGradient id="paint0_linear" x1="64" y1="133.42" x2="64" y2="0.134754" gradientUnits="userSpaceOnUse">
<stop stop-color="#5558FF"/>
<stop offset="1" stop-color="#00C0FF"/>
</linearGradient>
</defs>
</svg>
