<?xml version="1.0" encoding="UTF-8" ?>
<!DOCTYPE svg PUBLIC "-//W3C//DTD SVG 1.1//EN" "http://www.w3.org/Graphics/SVG/1.1/DTD/svg11.dtd">
<svg width="192pt" height="192pt" viewBox="0 0 192 192" version="1.1" xmlns="http://www.w3.org/2000/svg">
<g id="#19b0ffff">
<path fill="#19b0ff" opacity="1.00" d=" M 138.91 26.90 C 144.54 21.56 152.05 17.53 159.98 17.77 C 165.89 17.95 171.29 22.24 172.88 27.92 C 175.13 35.57 171.65 43.78 166.43 49.39 C 157.09 58.79 147.67 68.11 138.30 77.49 C 136.72 78.58 138.05 80.56 138.05 82.04 C 142.35 105.13 146.55 128.25 150.84 151.35 C 151.47 154.01 151.15 157.11 149.00 159.03 C 144.60 163.30 139.93 167.30 135.37 171.40 C 132.90 173.73 128.85 173.92 126.11 171.95 C 123.79 170.37 122.97 167.54 121.84 165.12 C 114.56 148.61 107.32 132.08 99.98 115.59 C 93.76 121.93 87.49 128.22 81.11 134.40 C 81.32 142.62 82.90 150.74 83.41 158.94 C 83.57 163.13 79.62 165.53 77.05 168.19 C 75.00 170.02 73.02 172.52 70.01 172.52 C 66.48 172.92 63.02 170.42 62.14 167.02 C 59.05 157.15 56.15 147.22 53.00 137.37 C 43.13 134.38 33.26 131.39 23.40 128.37 C 19.83 127.40 17.28 123.64 17.98 119.96 C 18.42 116.68 21.30 114.66 23.34 112.34 C 25.66 109.93 28.18 106.76 31.94 107.20 C 39.94 107.89 47.90 108.94 55.89 109.69 C 62.23 103.32 68.59 96.97 74.95 90.62 C 57.43 82.94 39.92 75.26 22.40 67.59 C 19.34 66.42 16.83 63.39 17.16 59.99 C 17.11 56.86 19.66 54.73 21.52 52.56 C 24.75 49.10 27.87 45.53 31.12 42.08 C 33.07 39.89 36.24 39.24 39.01 40.01 C 63.43 44.50 87.88 48.91 112.30 53.40 C 121.20 44.59 130.01 35.70 138.91 26.90 M 145.99 35.08 C 137.36 43.76 128.62 52.33 120.01 61.03 C 118.04 63.27 115.14 65.08 112.03 64.31 C 87.32 59.80 62.59 55.33 37.89 50.72 C 35.29 53.53 32.69 56.32 30.10 59.14 C 47.86 67.02 65.69 74.72 83.45 82.58 C 88.08 84.23 89.90 90.80 86.43 94.41 C 78.69 102.33 70.74 110.05 62.94 117.92 C 61.19 119.80 58.65 120.95 56.06 120.58 C 48.61 119.92 41.20 118.83 33.74 118.27 C 32.70 118.08 32.07 118.53 31.86 119.64 C 40.17 122.14 48.46 124.73 56.78 127.22 C 59.37 127.93 61.97 129.54 62.78 132.26 C 65.69 141.08 68.16 150.05 71.02 158.88 C 71.36 158.51 72.02 157.77 72.36 157.40 C 71.68 149.59 70.58 141.83 69.92 134.03 C 69.68 131.84 70.55 129.67 72.11 128.16 C 79.56 120.60 87.15 113.18 94.62 105.64 C 97.98 100.92 106.07 101.49 108.10 107.13 C 115.95 124.79 123.75 142.47 131.51 160.17 C 134.43 157.74 137.18 155.12 140.00 152.59 C 135.47 128.10 130.99 103.60 126.50 79.11 C 125.83 76.44 126.74 73.60 128.70 71.72 C 138.35 62.02 148.10 52.41 157.77 42.72 C 160.36 40.11 162.50 36.74 162.73 32.98 C 162.94 30.83 161.47 28.26 159.04 28.56 C 154.03 28.80 149.52 31.68 145.99 35.08 Z" />
</g>
</svg>
