<svg width="128" height="128" viewBox="0 0 128 128" fill="none" xmlns="http://www.w3.org/2000/svg">
<path d="M117.333 63.9998C117.333 34.5447 93.4552 10.6665 64 10.6665C34.5448 10.6665 10.6667 34.5447 10.6667 63.9998C10.6667 93.455 34.5448 117.333 64 117.333C93.4552 117.333 117.333 93.455 117.333 63.9998Z" stroke="url(#paint0_linear)" stroke-width="15"/>
<path fill-rule="evenodd" clip-rule="evenodd" d="M101.333 52.6762C101.332 52.6774 101.33 52.6771 101.33 52.6756C94.3308 23.1038 67.4605 23.3521 51.2346 31.0717C34.16 39.7011 21.7973 61.8211 28.5386 80.3411C38.9626 108.28 77.3333 107.861 90.3146 81.8797C94.1207 72.9605 94.5774 67.75 89.7748 59.0048C89.2907 58.1233 88 58.4799 88 59.4855V63.3471C88 64.3364 86.7169 64.725 86.168 63.902L83.7787 60.3195C83.3211 59.6332 82.2623 59.7589 81.9598 60.5263C80.8009 63.467 78.3707 69.0947 75.8333 71.6701C70.9349 76.6411 63.544 72.9239 64 74.6453C64.847 77.8475 69.063 80.2535 71.934 81.5532C72.8043 81.9472 72.7711 83.289 71.8567 83.5656C47.9794 90.7866 47.7173 74.0444 48 69.3141C48.8426 55.1856 61.2685 44.5051 76.232 45.2917C79.4646 45.5391 84.9391 47.911 88.1363 49.4163C88.9885 49.8176 89.8579 48.9559 89.3723 48.1489C86.5077 43.3886 82.3496 40.5937 79.446 38.9739C78.6709 38.5415 78.7801 37.4306 79.6575 37.2963C89.6605 35.7646 96.5755 46.3773 101.333 52.6743C101.333 52.6749 101.333 52.6756 101.333 52.6762V52.6762Z" fill="url(#paint1_linear)"/>
<defs>
<linearGradient id="paint0_linear" x1="64" y1="117.333" x2="64" y2="10.6665" gradientUnits="userSpaceOnUse">
<stop stop-color="#FD5900"/>
<stop offset="1" stop-color="#FFDE00"/>
</linearGradient>
<linearGradient id="paint1_linear" x1="26.6663" y1="26.667" x2="26.6663" y2="101.333" gradientUnits="userSpaceOnUse">
<stop stop-color="white"/>
<stop offset="1" stop-color="#E0E0E0"/>
</linearGradient>
</defs>
</svg>
