<svg width="64" height="64" viewBox="0 0 64 64" fill="none" xmlns="http://www.w3.org/2000/svg">
<path d="M6.933 0.335383C8.03292 0.0313024 9.18202 0 10.3177 0C24.7776 0.0268306 39.242 -0.0178867 53.7019 0.0178875C54.8689 -0.0670762 56.0314 0.697597 56.331 1.84684C56.7781 3.1526 55.9152 4.66406 54.6096 5.04863C53.8584 5.16937 53.0983 5.15595 52.3427 5.16042C38.0303 5.13359 23.7179 5.11123 9.40558 5.13359C7.15209 5.0844 5.10874 7.10565 5.13557 9.36389C5.12216 24.4382 5.12663 39.517 5.13557 54.5959C5.09086 56.8675 7.13868 58.9066 9.41005 58.8575C24.4602 58.8709 39.5148 58.8709 54.5649 58.8619C56.8452 58.9201 58.9109 56.8675 58.8528 54.5869C58.9064 48.5366 58.7946 42.4818 58.9019 36.436C58.9869 34.5534 61.4282 33.4712 62.9037 34.6205C63.9097 35.242 64.0304 36.5031 63.9947 37.5763C63.9589 43.3851 64.0304 49.1984 63.9589 55.0073C63.8784 59.8726 59.4564 64.085 54.6006 63.9911C39.5371 64.0045 24.4736 64 9.40558 63.9955C4.37546 64.1163 -0.131523 59.6042 0.00708446 54.569C0.00261324 39.5126 -0.00632919 24.4516 0.00708446 9.39072C-0.0510414 5.26328 2.94915 1.37283 6.933 0.335383Z" fill="url(#paint0_linear)"/>
<path d="M27.9612 9.75746C31.9361 9.0062 36.1211 9.30581 39.9261 10.6876C41.7593 11.2645 42.1081 14.028 40.5521 15.1012C39.6713 15.8391 38.4551 15.6065 37.458 15.2712C33.2819 13.9475 28.6095 14.2829 24.6614 16.1834C20.8609 17.9811 17.7578 21.1918 16.0946 25.0554C14.1764 29.4243 14.1406 34.5803 16.032 38.9626C17.9233 43.4657 21.7685 47.0923 26.3739 48.7111C31.0642 50.4059 36.4654 49.9408 40.807 47.4947C45.0591 45.1515 48.2739 40.9749 49.3693 36.2393C49.6152 35.2108 49.8388 33.9766 50.9164 33.4892C52.5171 32.559 54.784 33.8961 54.6722 35.7608C53.6885 42.7323 49.0563 49.0151 42.8324 52.2527C37.847 54.8955 31.8601 55.5484 26.4141 54.0906C20.2796 52.4987 14.9276 48.1923 12.0436 42.549C8.80647 36.3734 8.66786 28.6909 11.6859 22.4036C14.7085 15.9285 20.9324 11.0677 27.9612 9.75746Z" fill="url(#paint1_linear)"/>
<path d="M49.727 9.44437C50.7867 9.16712 51.8195 9.86025 52.2488 10.8083C55.4412 16.4159 58.6873 21.9966 61.8663 27.6087C62.8008 28.9592 61.6517 31.0341 59.9929 30.891C53.4023 30.9089 46.8162 30.9089 40.2301 30.891C38.5489 31.043 37.3954 28.9458 38.3522 27.5863C41.5 22.1174 44.7192 16.6886 47.867 11.2197C48.3051 10.4773 48.7791 9.583 49.727 9.44437ZM45.3497 25.744C48.5332 25.7529 51.7167 25.7529 54.9002 25.744C53.3129 22.9983 51.7435 20.2392 50.1562 17.4936C48.56 20.2482 46.9504 22.9938 45.3497 25.744Z" fill="url(#paint2_linear)"/>
<defs>
<linearGradient id="paint0_linear" x1="32" y1="64" x2="32" y2="0" gradientUnits="userSpaceOnUse">
<stop stop-color="#FD2E00"/>
<stop offset="1" stop-color="#FF9900"/>
</linearGradient>
<linearGradient id="paint1_linear" x1="32.0958" y1="54.8508" x2="32.0958" y2="9.35608" gradientUnits="userSpaceOnUse">
<stop stop-color="#FD2E00"/>
<stop offset="1" stop-color="#FF9900"/>
</linearGradient>
<linearGradient id="paint2_linear" x1="50.1034" y1="30.9044" x2="50.1034" y2="9.38269" gradientUnits="userSpaceOnUse">
<stop stop-color="#FDA700"/>
<stop offset="1" stop-color="#FFDE00"/>
</linearGradient>
</defs>
</svg>
