<svg width="128" height="128" viewBox="0 0 128 128" fill="none" xmlns="http://www.w3.org/2000/svg">
<path d="M124.744 53.9875L103.961 36.0017V5.63281C103.961 3.62653 102.334 2 100.328 2H27.6719C25.6656 2 24.0391 3.62653 24.0391 5.63281V36.0017L3.2555 53.9875C2.45822 54.6775 2 55.6799 2 56.7344V122.367C2 124.373 3.62653 126 5.63281 126H122.367C124.373 126 126 124.373 126 122.367V56.7344C126 55.6799 125.542 54.6775 124.744 53.9875ZM103.961 45.61L116.834 56.7504L103.961 68.021V45.61ZM31.3047 9.26562H96.6953V74.3823L64 103.008L31.3047 74.3821V9.26562ZM24.0391 45.61V68.0208L11.1661 56.7502L24.0391 45.61ZM118.734 118.734H9.26562V64.7433L61.607 110.57C62.2921 111.169 63.1459 111.469 64 111.469C64.854 111.469 65.7082 111.169 66.3931 110.57L118.734 64.7433V118.734Z" fill="url(#paint0_linear)" stroke="url(#paint1_linear)" stroke-width="2"/>
<path d="M62.1705 22.0502C62.1705 20.9845 63.0061 20.1037 64.0711 20.0639C65.2118 20.0213 66.2032 20 67.0455 20C71.4773 20 75.5398 20.2955 79.233 20.8864C80.5465 21.0246 81.8236 21.2114 83.0644 21.4468C83.9809 21.6206 84.625 22.4343 84.625 23.3672V30.1357C84.625 31.3152 83.6089 32.2407 82.4361 32.1155C81.4228 32.0072 80.6013 31.9081 79.9716 31.8182C79.1345 31.7689 77.7803 31.6458 75.9091 31.4489C74.0379 31.3504 72.8068 31.3011 72.2159 31.3011C69.2121 31.3011 66.9962 31.375 65.5682 31.5227C65.5214 31.5261 65.4749 31.5296 65.4287 31.5334C63.9088 31.6582 62.1705 30.535 62.1705 29.0101V22.0502ZM67.0455 72C62.1212 72 58.1818 71.6307 55.2273 70.892C52.322 70.1534 50.0568 68.8485 48.4318 66.9773C46.8068 65.1061 45.6496 62.5208 44.9602 59.2216C44.3201 55.9223 44 51.5151 44 46C44 41.322 44.2216 37.4811 44.6648 34.4773C45.108 31.4735 45.8712 29.0114 46.9545 27.0909C48.0871 25.1212 49.6136 23.6193 51.5341 22.5852C52.9687 21.8127 54.7331 21.2189 56.8273 20.8036C58.0088 20.5693 59.0682 21.5086 59.0682 22.7132V46C59.0682 49.4962 59.1667 52.1799 59.3636 54.0511C59.5606 55.8731 59.9299 57.2765 60.4716 58.2614C61.0625 59.2955 61.8996 60.0095 62.983 60.4034C63.7194 60.6596 64.6537 60.8324 65.7857 60.922C66.8868 61.0092 67.7841 61.8897 67.7841 62.9943V71.2614C67.7841 71.6693 67.4534 72 67.0455 72V72ZM70.8864 53.9091C70.8864 52.8045 69.9909 51.9091 68.8864 51.9091H67.642C66.5375 51.9091 65.642 51.0137 65.642 49.9091V43.1989C65.642 42.0943 66.5375 41.1989 67.642 41.1989H82.8466C83.9512 41.1989 84.8466 42.0943 84.8466 43.1989V68.5674C84.8466 69.4964 84.2078 70.3071 83.2954 70.4819C81.2831 70.8673 78.9195 71.1764 76.2045 71.4091C75.1542 71.5635 74.0651 71.6792 72.9373 71.7562C71.8147 71.8328 70.8864 70.9241 70.8864 69.7989V53.9091Z" fill="url(#paint2_linear)"/>
<defs>
<linearGradient id="paint0_linear" x1="64" y1="126" x2="64" y2="2" gradientUnits="userSpaceOnUse">
<stop stop-color="#FD3A84"/>
<stop offset="1" stop-color="#FFA68D"/>
</linearGradient>
<linearGradient id="paint1_linear" x1="64" y1="126" x2="64" y2="2" gradientUnits="userSpaceOnUse">
<stop stop-color="#FD3A84"/>
<stop offset="1" stop-color="#FFA68D"/>
</linearGradient>
<linearGradient id="paint2_linear" x1="83.6945" y1="46" x2="48.0315" y2="35.8664" gradientUnits="userSpaceOnUse">
<stop stop-color="#FE7970"/>
<stop offset="1" stop-color="#DC3282"/>
</linearGradient>
</defs>
</svg>
