<?xml version="1.0" encoding="UTF-8" standalone="no"?>
<!-- Created with Inkscape (http://www.inkscape.org/) -->

<svg
   xmlns:dc="http://purl.org/dc/elements/1.1/"
   xmlns:cc="http://creativecommons.org/ns#"
   xmlns:rdf="http://www.w3.org/1999/02/22-rdf-syntax-ns#"
   xmlns:svg="http://www.w3.org/2000/svg"
   xmlns="http://www.w3.org/2000/svg"
   xmlns:xlink="http://www.w3.org/1999/xlink"
   xmlns:sodipodi="http://sodipodi.sourceforge.net/DTD/sodipodi-0.dtd"
   xmlns:inkscape="http://www.inkscape.org/namespaces/inkscape"
   width="64"
   height="64"
   viewBox="0 0 16.933333 16.933334"
   version="1.1"
   id="svg8"
   inkscape:version="0.92.4 5da689c313, 2019-01-14"
   sodipodi:docname="documents.svg">
  <defs
     id="defs2">
    <linearGradient
       inkscape:collect="always"
       id="linearGradient824">
      <stop
         style="stop-color:#bdffb8;stop-opacity:1"
         offset="0"
         id="stop820" />
      <stop
         style="stop-color:#ebb4ff;stop-opacity:0.96862745"
         offset="1"
         id="stop822" />
    </linearGradient>
    <linearGradient
       inkscape:collect="always"
       xlink:href="#linearGradient824"
       id="linearGradient826"
       x1="0.5810227"
       y1="288.48337"
       x2="16.633181"
       y2="288.48337"
       gradientUnits="userSpaceOnUse" />
    <linearGradient
       inkscape:collect="always"
       xlink:href="#linearGradient824"
       id="linearGradient877"
       x1="1.3229166"
       y1="289.06247"
       x2="15.875"
       y2="289.06247"
       gradientUnits="userSpaceOnUse" />
  </defs>
  <sodipodi:namedview
     id="base"
     pagecolor="#ffffff"
     bordercolor="#666666"
     borderopacity="1.0"
     inkscape:pageopacity="0.0"
     inkscape:pageshadow="2"
     inkscape:zoom="5.6"
     inkscape:cx="-35.973726"
     inkscape:cy="0.0864077"
     inkscape:document-units="mm"
     inkscape:current-layer="layer1"
     showgrid="true"
     units="px"
     inkscape:window-width="1920"
     inkscape:window-height="1014"
     inkscape:window-x="0"
     inkscape:window-y="29"
     inkscape:window-maximized="1">
    <inkscape:grid
       type="xygrid"
       id="grid815" />
  </sodipodi:namedview>
  <metadata
     id="metadata5">
    <rdf:RDF>
      <cc:Work
         rdf:about="">
        <dc:format>image/svg+xml</dc:format>
        <dc:type
           rdf:resource="http://purl.org/dc/dcmitype/StillImage" />
        <dc:title></dc:title>
      </cc:Work>
    </rdf:RDF>
  </metadata>
  <g
     inkscape:label="Capa 1"
     inkscape:groupmode="layer"
     id="layer1"
     transform="translate(0,-280.06665)">
    <path
       style="opacity:1;fill:none;fill-opacity:1;stroke:url(#linearGradient826);stroke-width:1.5;stroke-miterlimit:4;stroke-dasharray:none;stroke-opacity:1;stroke-linecap:round"
       d="m 15.311318,291.31553 c -0.368188,0.8705 -0.900964,1.65443 -1.559316,2.31278 -1.316704,1.3167 -3.135715,2.1311 -5.1449378,2.1311 -4.0184462,0 -7.2760407,-3.25759 -7.2760415,-7.27604 8e-7,-4.01845 3.2575953,-7.27604 7.2760415,-7.27604 4.0184458,0 7.2760428,3.25759 7.2760418,7.27604"
       id="path817"
       inkscape:connector-curvature="0"
       sodipodi:nodetypes="cssssc" />
    <path
       id="path840-1"
       d="m 8.5267372,284.7514 -3.4040834,4.35703 c -0.6382697,0.81694 -0.4595886,2.27215 0.3573478,2.91042 0.8169507,0.63826 2.2721557,0.45959 2.9104235,-0.35736 l 3.4040829,-4.35703 0.425501,-0.54462 c 0.425516,-0.54463 0.3064,-1.51477 -0.238224,-1.94028 -0.544632,-0.42551 -1.514769,-0.30639 -1.940278,0.23823 l -0.4255143,0.54463 -2.5530619,3.26777 -0.4255075,0.54463 c -0.2127606,0.27232 -0.1531969,0.75739 0.119116,0.97015 0.272312,0.21274 0.7573843,0.15319 0.970138,-0.11919 l 2.9785697,-3.8124 0.544631,0.42551 -2.9785688,3.8124 c -0.4255144,0.54462 -1.3956538,0.66375 -1.9402788,0.23823 -0.5446305,-0.42551 -0.6637532,-1.39565 -0.2382443,-1.94028 l 0.425513,-0.54462 2.9785776,-3.8124 c 0.6382623,-0.81695 2.0934653,-0.99561 2.9104153,-0.35735 0.816942,0.63826 0.995624,2.09346 0.357356,2.91041 l -0.425508,0.54463 -3.4040845,4.35703 c -0.8510285,1.08925 -2.791306,1.3275 -3.8805614,0.47647 -1.0892555,-0.85102 -1.3274944,-2.79129 -0.4764725,-3.88056 l 3.4040851,-4.35696 z"
       inkscape:connector-curvature="0"
       style="fill:url(#linearGradient877);fill-opacity:1;stroke-width:0.3508026" />
  </g>
</svg>
