<svg viewBox="0 0 48 48" xmlns="http://www.w3.org/2000/svg" xmlns:xlink="http://www.w3.org/1999/xlink"><linearGradient id="a" gradientUnits="userSpaceOnUse" x1="18.317" x2="35.633" y1="17.096" y2="34.988"><stop offset="0" stop-color="#ff0005"/><stop offset="1" stop-color="#ff9e00"/></linearGradient><path d="m15.973 14.656a75.91 75.91 0 0 1 1.798 1.895c.354.398.744.578 1.167.558.306-.028.52-.223.637-.597.14-.393.097-1.025-.141-1.89-.14-.472-.579-.895-1.308-1.265-1.84-.739-2.916-1.001-3.222-.777-.14.102-.184.336-.14.704.097.32.495.777 1.205 1.37m-3.465 7.053c1.132 1.366 2.157 2.304 3.082 2.824.374.073.704-.074.962-.442.165-.32.224-.734.18-1.224-.282-1.19-1.487-2.09-3.61-2.712-.02-.029-.044-.039-.069-.039-.447-.102-.787-.112-1.02-.039-.166.03-.229.214-.18.56.024.32.247.685.67 1.073m.064 14.41c-.307.096-.409.369-.321.815.52 1.959 1.18 3.106 1.983 3.455.165.17.374.224.637.146.165-.073.257-.438.282-1.074.025-.966 1.015-4.729 2.97-11.284.14-.398.199-.68.18-.856-.025-.248-.155-.282-.39-.107-.285.224-1.628 2.644-4.033 7.276-.234.545-.67 1.088-1.307 1.633m16.198-1.336c.02.029.059.059.102.107 3.042 4.087 5.002 6.27 5.866 6.537 1.206.441 3.266.37 6.192-.224.447-.029.696-.112.74-.263.024-.17-.127-.33-.462-.481-4.243-1.438-7.09-2.702-8.558-3.786-1.06-.7-1.94-1.375-2.65-2.047 2.003-.247 4.452-.398 7.354-.441 1.433.073 2.25-.039 2.434-.336.097-.248-.043-.545-.423-.895-1.205-.89-2.225-1.239-3.076-1.035-1.793.442-4.233.928-7.32 1.448.141-.767.263-1.545.35-2.337a87.866 87.866 0 0 1 4.281-.74c.593-.102.778-.32.569-.67-.238-.393-.68-.65-1.347-.778-.85-.097-1.978.102-3.392.598.025-.705.058-1.375.107-2.002 1.695-.301 3.699-.559 6.006-.778.238-.028.375-.14.428-.336 0-.184-.296-.481-.884-.904.495-1.035 1.04-1.716 1.628-2.042.428-.398.472-.821.14-1.264-.349-.32-1.108-.816-2.263-1.487-.375-.175-.822-.184-1.342-.033a33.164 33.164 0 0 1 -3.43 1.185c.024-.17.081-.37.18-.593.092-.296.043-.52-.146-.666-.35-.3-.798-.558-1.341-.777.797-.176 2.026-.336 3.674-.487.237-.028.37-.145.39-.37.024-.175-.307-.486-.987-.927-.025-.029-.069-.039-.141-.039a64.35 64.35 0 0 1 .67-2.858 79.189 79.189 0 0 1 4.069-.593c.237.025.461-.112.67-.408.025-.248-.224-.51-.739-.778-.709-.545-1.92-.52-3.64.074.02-.102.059-.21.102-.336 0-.097.204-.642.602-1.634.092-.224-.048-.53-.428-.928-.709-.52-1.307-.86-1.802-1.035-.307-.102-.564-.073-.778.073-.166.146-.184.399-.068.74.237.47.354.879.354 1.224-.025.772-.063 1.583-.107 2.454-.209 0-1.487.273-3.82.816 0-1.633-.043-2.5-.14-2.595-.025-.028-.043-.038-.068-.038-.306-.248-.753-.457-1.347-.632a1.782 1.782 0 0 0 -1.269.184c-.214.175-.165.408.141.704.375.593.71 1.458.987 2.595a33.72 33.72 0 0 0 -3.572.447c-.637.073-.71.32-.21.739.656.593 1.464.777 2.407.558a10.098 10.098 0 0 1 1.662-.335c.375 2.526.656 3.975.851 4.344.16.224.316.248.462.073.068-.097.14-.272.209-.52.637.666 1.001 1.352 1.098 2.042-1.438.248-2.901.481-4.388.704-.092-.224-.68-.384-1.769-.486-.282-.074-.447-.039-.495.107-.14.15-.102.398.107.744.593 1.04 1.108 2.425 1.555 4.155.097.525.306.943.637 1.264.423.472.68.53.778.184.024-.175.043-.398.068-.67.14.028.34.01.569-.034.806-.224 1.797-.423 3.003-.597a59.63 59.63 0 0 1 -.107 2.157 81.871 81.871 0 0 0 -4.311 1.035c-.428.102-.375.35.14.744.283.224 1.638.122 4.069-.296-.025.17-.049.385-.074.627a6.568 6.568 0 0 1 -.282 1.706c-2.57.398-5.312.806-8.237 1.23-.492.073-.549.31-.176.7.306.32.67.545 1.099.67.491.102.918.102 1.269 0a33.59 33.59 0 0 1 5.516-1.152 11.458 11.458 0 0 1 -4.53 4.272c-.797.399-1.789.856-2.964 1.371-.286.102-.472.19-.569.263-.097.097.025.194.35.296 2.192.146 4.694-.777 7.502-2.784.35-.296.67-.617.953-.967.568-.768.981-1.696 1.239-2.784m-.846-8.19c-1.341.235-2.59.443-3.745.643-.286-1.375-.461-2.367-.53-3.023a3.05 3.05 0 0 0 .632-.18c1.157-.248 2.348-.496 3.572-.745.025 1.142.049 2.24.068 3.305m1.701-2.114c0-.52.039-1.045.107-1.565.851-.176 1.696-.35 2.547-.554.66-.175 1.147-.107 1.453.18.14.146.175.394.102.705-.165.767-.35 1.473-.564 2.118a255.74 255.74 0 0 0 -3.645.856v-1.749m-2.824-5.603c-.025-.37-.044-.705-.068-1.036-.025-.617-.049-1.2-.069-1.739a49.986 49.986 0 0 1 3.713-.704c-.097.841-.19 1.72-.287 2.634a37.282 37.282 0 0 1 -3.285.856m-.005 0" opacity=".1"/><path d="m15.34 14.246c.473.48.953.988 1.445 1.523.285.32.598.465.938.449.246-.023.418-.18.512-.48.113-.316.078-.824-.113-1.52-.113-.379-.465-.719-1.051-1.016-1.48-.594-2.344-.805-2.59-.625-.113.082-.148.27-.113.566.078.258.398.625.969 1.102m-2.785 5.668c.91 1.098 1.734 1.852 2.477 2.27.301.059.566-.059.773-.355.133-.258.18-.59.145-.984-.227-.957-1.195-1.68-2.902-2.18-.016-.023-.035-.031-.055-.031-.359-.082-.633-.09-.82-.031-.133.023-.184.172-.145.449.02.258.199.551.539.863m.051 11.582c-.246.078-.328.297-.258.656.418 1.574.949 2.496 1.594 2.777.133.137.301.18.512.117.133-.059.207-.352.227-.863.02-.777.816-3.801 2.387-9.07.113-.32.16-.547.145-.688-.02-.199-.125-.227-.313-.086-.23.18-1.309 2.125-3.242 5.848-.188.438-.539.875-1.051 1.313m13.02-1.074c.016.023.047.047.082.086 2.445 3.285 4.02 5.04 4.715 5.254.969.355 2.625.297 4.977-.18.359-.023.559-.09.594-.211.02-.137-.102-.266-.371-.387-3.41-1.156-5.699-2.172-6.879-3.043-.852-.563-1.559-1.105-2.129-1.645 1.609-.199 3.578-.32 5.91-.355 1.152.059 1.809-.031 1.957-.27.078-.199-.035-.438-.34-.719-.969-.715-1.789-.996-2.473-.832-1.441.355-3.402.746-5.883 1.164a26.46 26.46 0 0 0 .281-1.879 70.624 70.624 0 0 1 3.441-.594c.477-.082.625-.258.457-.539-.191-.316-.547-.523-1.082-.625-.684-.078-1.59.082-2.727.48.02-.566.047-1.105.086-1.609 1.363-.242 2.973-.449 4.828-.625.191-.023.301-.113.344-.27 0-.148-.238-.387-.711-.727.398-.832.836-1.379 1.309-1.641.344-.32.379-.66.113-1.016-.281-.258-.891-.656-1.82-1.195-.301-.141-.66-.148-1.078-.027-.93.379-1.852.695-2.758.953a1.88 1.88 0 0 1 .145-.477c.074-.238.035-.418-.117-.535-.281-.242-.641-.449-1.078-.625.641-.141 1.629-.27 2.953-.391.191-.023.297-.117.313-.297.02-.141-.246-.391-.793-.746-.02-.023-.055-.031-.113-.031.168-.793.348-1.563.539-2.297a63.65 63.65 0 0 1 3.27-.477c.191.02.371-.09.539-.328.02-.199-.18-.41-.594-.625-.57-.438-1.543-.418-2.926.059.016-.082.047-.168.082-.27 0-.078.164-.516.484-1.313.074-.18-.039-.426-.344-.746-.57-.418-1.051-.691-1.449-.832-.246-.082-.453-.059-.625.059-.133.117-.148.32-.055.594.191.379.285.707.285.984a112.5 112.5 0 0 1 -.086 1.973c-.168 0-1.195.219-3.07.656 0-1.313-.035-2.01-.113-2.086-.02-.023-.035-.031-.055-.031-.246-.199-.605-.367-1.082-.508a1.432 1.432 0 0 0 -1.02.148c-.172.141-.133.328.113.566.301.477.57 1.172.793 2.086-.906.059-1.867.184-2.871.359-.512.059-.57.258-.168.594.527.477 1.176.625 1.934.449.398-.117.84-.211 1.336-.27.301 2.031.527 3.195.684 3.492.129.18.254.199.371.059.055-.078.113-.219.168-.418.512.535.805 1.086.883 1.641-1.156.199-2.332.387-3.527.566-.074-.18-.547-.309-1.422-.391-.227-.059-.359-.031-.398.086-.113.121-.082.32.086.598.477.836.891 1.949 1.25 3.34.078.422.246.758.512 1.016.34.379.547.426.625.148.02-.141.035-.32.055-.539.113.023.273.008.457-.027.648-.18 1.445-.34 2.414-.48a47.93 47.93 0 0 1 -.086 1.734 65.806 65.806 0 0 0 -3.465.832c-.344.082-.301.281.113.598.227.18 1.316.098 3.27-.238-.02.137-.039.309-.059.504a5.28 5.28 0 0 1 -.227 1.371c-2.066.32-4.27.648-6.621.988-.395.059-.441.25-.141.563.246.258.539.438.883.539.395.082.738.082 1.02 0a26.998 26.998 0 0 1 4.434-.926 9.21 9.21 0 0 1 -3.641 3.434c-.641.32-1.438.688-2.383 1.102-.23.082-.379.152-.457.211-.078.078.02.156.281.238 1.762.117 3.773-.625 6.03-2.238.281-.238.539-.496.766-.777.457-.617.789-1.363.996-2.238m-.68-6.582c-1.078.188-2.082.355-3.01.516-.23-1.105-.371-1.902-.426-2.43a2.4 2.4 0 0 0 .508-.145 285.7 285.7 0 0 1 2.871-.598c.02.918.039 1.801.055 2.656m1.367-1.699c0-.418.031-.84.086-1.258a65.087 65.087 0 0 0 2.047-.445c.531-.141.922-.086 1.168.145.113.117.141.316.082.566a16.452 16.452 0 0 1 -.453 1.703c-1.043.238-2.02.465-2.93.688v-1.406m-2.27-4.504c-.02-.297-.035-.566-.055-.832-.02-.496-.039-.965-.055-1.398a40.177 40.177 0 0 1 2.984-.566c-.078.676-.152 1.383-.23 2.117-.984.301-1.867.527-2.641.688m-.004 0" fill="url(#a)" transform="matrix(1.24413 0 0 1.24413 -4.356 -4.312)"/></svg>