<svg width="64" height="64" viewBox="0 0 64 64" fill="none" xmlns="http://www.w3.org/2000/svg">
<g clip-path="url(#clip0)">
<path fill-rule="evenodd" clip-rule="evenodd" d="M49.4649 4.81129C42.9942 2.08527 35.2675 2.4374 29.125 5.8601C24.3492 8.45742 20.627 12.7926 18.6533 17.8131C15.0114 17.2906 11.1594 17.8206 7.96029 19.6796C3.3372 22.2807 0.164785 27.2974 0.0158992 32.5905C-0.167345 36.513 1.24134 40.4544 3.82966 43.4152C5.89116 45.6415 8.5062 47.3983 11.461 48.2047C13.6325 48.853 15.8906 48.8327 18.1399 48.8124C18.9512 48.8051 19.7614 48.7978 20.5659 48.8219C20.7619 48.8125 20.9659 48.8121 21.1731 48.8116C22.0518 48.8097 22.9876 48.8077 23.6086 48.1214C24.1996 47.5766 24.2207 46.7553 24.24 46.0066C24.2419 45.9333 24.2437 45.8607 24.2461 45.7891C23.7498 45.0925 23.0894 44.358 22.1541 44.3617C21.0016 44.3099 19.8475 44.3213 18.6933 44.3327C17.4004 44.3455 16.1075 44.3582 14.8167 44.2822C10.9151 44.0096 7.32657 41.4918 5.64301 38.0123C3.34865 33.5522 4.71534 27.6836 8.67417 24.6055C11.0907 22.5609 14.3624 21.8567 17.4775 22.1179C17.4584 22.277 17.4403 22.435 17.4221 22.5931C17.404 22.7512 17.3859 22.9093 17.3668 23.0683C17.349 23.3654 17.3162 23.6717 17.2831 23.9819C17.1459 25.265 17.0015 26.6159 17.8745 27.6647C18.806 28.0963 20.0009 28.3916 20.8599 27.642C21.6291 27.0905 21.6809 26.1548 21.7293 25.2801C21.7407 25.0739 21.7519 24.871 21.7723 24.6774C22.0968 18.1841 26.2618 12.0846 32.1752 9.30931C36.68 7.13604 42.0627 6.88994 46.7698 8.56722C48.7359 9.29416 50.6027 10.3164 52.1983 11.6719C57.772 16.1055 60.3489 23.871 58.3675 30.7012C56.6076 37.2248 50.9843 42.5709 44.2921 43.896C44.1422 43.93 43.9868 43.9607 43.8292 43.9918C42.9872 44.1578 42.0816 44.3364 41.6122 45.1114C41.0166 45.8762 41.2228 46.8947 41.574 47.7125C42.2383 48.1934 42.9941 48.7348 43.8684 48.5265C51.6982 47.4437 58.7226 42.0067 61.7385 34.7638C63.842 29.872 64.0672 24.2799 62.5593 19.1874C60.5817 12.8002 55.6532 7.44268 49.4649 4.81129Z" fill="url(#paint0_linear)"/>
<path d="M27.6318 39.9812C28.5098 39.046 30.1247 39.1709 30.9454 40.1175C32.8695 42.003 34.7821 43.8999 36.6985 45.7892C37.5842 46.554 37.8705 48.0268 37.0307 48.9279C35.6754 50.4083 34.1904 51.7713 32.7626 53.1874C34.2858 54.9441 36.2251 56.3412 37.5498 58.2608C37.4773 59.196 37.3208 60.2864 36.4008 60.7824C35.4769 61.3655 34.2286 61.1005 33.5147 60.3167C31.6135 58.4918 29.7849 56.5949 27.8723 54.7775C27.0362 53.9332 27.0477 52.4528 27.9181 51.635C29.2619 50.2455 30.6935 48.9355 32.0182 47.527C30.5369 46.0428 29.0023 44.6117 27.5669 43.0896C26.7346 42.2567 26.7575 40.7725 27.6318 39.9812Z" fill="url(#paint1_linear)"/>
<path d="M15.7217 56.3679C14.7559 54.5202 17.1686 52.3545 18.9094 53.5509C20.5357 54.9064 22.0322 56.436 23.4256 58.0224C23.4752 58.9008 23.4905 59.9269 22.7155 60.5289C21.7993 61.3959 20.3754 61.1271 19.4897 60.3623C18.2833 58.9841 16.7601 57.8748 15.7217 56.3679Z" fill="url(#paint2_linear)"/>
<path d="M41.6234 57.0568C40.501 55.9891 40.9133 53.9332 42.3716 53.3918C43.4329 52.9072 44.5744 53.4941 45.2807 54.2929C46.5214 55.6143 48.0293 56.7237 48.9913 58.276C48.9341 59.1468 48.8348 60.1577 48.014 60.6726C47.1818 61.2633 45.9258 61.2519 45.1852 60.5174C43.9521 59.4118 42.8298 58.1889 41.6234 57.0568Z" fill="url(#paint3_linear)"/>
</g>
<defs>
<linearGradient id="paint0_linear" x1="0.999999" y1="36" x2="57" y2="42" gradientUnits="userSpaceOnUse">
<stop stop-color="#5570FF"/>
<stop offset="1" stop-color="#4DD3FF"/>
</linearGradient>
<linearGradient id="paint1_linear" x1="32.2544" y1="61.0981" x2="32.2544" y2="39.3403" gradientUnits="userSpaceOnUse">
<stop stop-color="#FD5900"/>
<stop offset="1" stop-color="#FFDE00"/>
</linearGradient>
<linearGradient id="paint2_linear" x1="19.4732" y1="61.0682" x2="19.4732" y2="53.207" gradientUnits="userSpaceOnUse">
<stop stop-color="#00B59C"/>
<stop offset="1" stop-color="#9CFFAC"/>
</linearGradient>
<linearGradient id="paint3_linear" x1="44.9864" y1="61.0939" x2="44.9864" y2="53.2158" gradientUnits="userSpaceOnUse">
<stop stop-color="#00B59C"/>
<stop offset="1" stop-color="#9CFFAC"/>
</linearGradient>
<clipPath id="clip0">
<rect width="64" height="64" fill="white"/>
</clipPath>
</defs>
</svg>
