<svg width="64" height="64" viewBox="0 0 64 64" fill="none" xmlns="http://www.w3.org/2000/svg">
<path d="M20.0234 36.037L22.1423 37.6268C22.5752 37.9515 23.1879 37.873 23.5249 37.4496L27.0002 33.083" stroke="url(#paint0_linear)" stroke-width="4" stroke-linecap="round"/>
<path d="M20.0234 23.9618L22.1423 25.5516C22.5752 25.8763 23.1879 25.7978 23.5249 25.3744L27.0002 21.0078" stroke="url(#paint1_linear)" stroke-width="4" stroke-linecap="round"/>
<path d="M20.0234 49.0121L22.1423 50.6019C22.5752 50.9266 23.1879 50.8481 23.5249 50.4247L27.0002 46.0581" stroke="url(#paint2_linear)" stroke-width="4" stroke-linecap="round"/>
<path fill-rule="evenodd" clip-rule="evenodd" d="M32.0283 24C32.0283 22.8954 32.9238 22 34.0283 22H44.8908C45.9954 22 46.8908 22.8954 46.8908 24C46.8908 25.1046 45.9954 26 44.8908 26H34.0283C32.9238 26 32.0283 25.1046 32.0283 24ZM32.0283 36C32.0283 34.8954 32.9238 34 34.0283 34H44.8908C45.9954 34 46.8908 34.8954 46.8908 36C46.8908 37.1046 45.9954 38 44.8908 38H34.0283C32.9238 38 32.0283 37.1046 32.0283 36ZM32.0283 48C32.0283 46.8954 32.9238 46 34.0283 46H44.8908C45.9954 46 46.8908 46.8954 46.8908 48C46.8908 49.1046 45.9954 50 44.8908 50H34.0283C32.9238 50 32.0283 49.1046 32.0283 48Z" fill="url(#paint3_linear)"/>
<path fill-rule="evenodd" clip-rule="evenodd" d="M22.834 4C21.8183 4 21 5.39864 21 7.13979V11.8602V12H14.3613C11.9455 12 10 13.905 10 16.2715V55.7285C10 58.095 11.9455 60 14.3613 60H49.6387C52.0545 60 54 58.095 54 55.7285V16.2715C54 13.905 52.0545 12 49.6387 12H43V11.8602V7.13979C43 5.39864 42.1817 4 41.166 4H35C32.5 4 30 4.00014 29 4.00027L22.834 4ZM21 15H16C14.8954 15 14 15.8954 14 17V54C14 55.1046 14.8954 56 16 56H48C49.1046 56 50 55.1046 50 54V17C50 15.8954 49.1046 15 48 15H43H21Z" fill="url(#paint4_linear)"/>
<path d="M22.834 4L22.834 3.5H22.834V4ZM21 12V12.5H21.5V12H21ZM43 12H42.5V12.5H43V12ZM29 4.00027L29 4.50027L29.0001 4.50027L29 4.00027ZM21.5 7.13979C21.5 6.34133 21.6887 5.64688 21.9678 5.16925C22.2535 4.68035 22.5763 4.5 22.834 4.5V3.5C22.076 3.5 21.4818 4.01897 21.1044 4.66468C20.7205 5.32166 20.5 6.1971 20.5 7.13979H21.5ZM21.5 11.8602V7.13979H20.5V11.8602H21.5ZM21.5 12V11.8602H20.5V12H21.5ZM14.3613 12.5H21V11.5H14.3613V12.5ZM10.5 16.2715C10.5 14.1909 12.2118 12.5 14.3613 12.5V11.5C11.6793 11.5 9.5 13.619 9.5 16.2715H10.5ZM10.5 55.7285V16.2715H9.5V55.7285H10.5ZM14.3613 59.5C12.2118 59.5 10.5 57.8091 10.5 55.7285H9.5C9.5 58.381 11.6793 60.5 14.3613 60.5V59.5ZM49.6387 59.5H14.3613V60.5H49.6387V59.5ZM53.5 55.7285C53.5 57.8091 51.7882 59.5 49.6387 59.5V60.5C52.3207 60.5 54.5 58.381 54.5 55.7285H53.5ZM53.5 16.2715V55.7285H54.5V16.2715H53.5ZM49.6387 12.5C51.7882 12.5 53.5 14.1909 53.5 16.2715H54.5C54.5 13.619 52.3207 11.5 49.6387 11.5V12.5ZM43 12.5H49.6387V11.5H43V12.5ZM42.5 11.8602V12H43.5V11.8602H42.5ZM42.5 7.13979V11.8602H43.5V7.13979H42.5ZM41.166 4.5C41.4237 4.5 41.7465 4.68035 42.0322 5.16925C42.3113 5.64688 42.5 6.34133 42.5 7.13979H43.5C43.5 6.1971 43.2795 5.32166 42.8956 4.66468C42.5182 4.01897 41.924 3.5 41.166 3.5V4.5ZM35 4.5H41.166V3.5H35V4.5ZM29.0001 4.50027C30 4.50014 32.5 4.5 35 4.5V3.5C32.5 3.5 30 3.50014 28.9999 3.50027L29.0001 4.50027ZM22.834 4.5L29 4.50027L29 3.50027L22.834 3.5L22.834 4.5ZM16 15.5H21V14.5H16V15.5ZM14.5 17C14.5 16.1716 15.1716 15.5 16 15.5V14.5C14.6193 14.5 13.5 15.6193 13.5 17H14.5ZM14.5 54V17H13.5V54H14.5ZM16 55.5C15.1716 55.5 14.5 54.8284 14.5 54H13.5C13.5 55.3807 14.6193 56.5 16 56.5V55.5ZM48 55.5H16V56.5H48V55.5ZM49.5 54C49.5 54.8284 48.8284 55.5 48 55.5V56.5C49.3807 56.5 50.5 55.3807 50.5 54H49.5ZM49.5 17V54H50.5V17H49.5ZM48 15.5C48.8284 15.5 49.5 16.1716 49.5 17H50.5C50.5 15.6193 49.3807 14.5 48 14.5V15.5ZM43 15.5H48V14.5H43V15.5ZM21 15.5H43V14.5H21V15.5Z" fill="url(#paint5_linear)"/>
<defs>
<linearGradient id="paint0_linear" x1="23.5118" y1="38.21" x2="23.5118" y2="33.083" gradientUnits="userSpaceOnUse">
<stop stop-color="#5570FF"/>
<stop offset="1" stop-color="#4DD3FF"/>
</linearGradient>
<linearGradient id="paint1_linear" x1="23.5118" y1="26.1348" x2="23.5118" y2="21.0078" gradientUnits="userSpaceOnUse">
<stop stop-color="#5570FF"/>
<stop offset="1" stop-color="#4DD3FF"/>
</linearGradient>
<linearGradient id="paint2_linear" x1="23.5118" y1="51.1851" x2="23.5118" y2="46.0581" gradientUnits="userSpaceOnUse">
<stop stop-color="#5570FF"/>
<stop offset="1" stop-color="#4DD3FF"/>
</linearGradient>
<linearGradient id="paint3_linear" x1="39.4596" y1="50" x2="39.4596" y2="22" gradientUnits="userSpaceOnUse">
<stop stop-color="#A93AFF"/>
<stop offset="1" stop-color="#FF81FF"/>
</linearGradient>
<linearGradient id="paint4_linear" x1="32" y1="60" x2="32" y2="4" gradientUnits="userSpaceOnUse">
<stop stop-color="#A93AFF"/>
<stop offset="1" stop-color="#FF81FF"/>
</linearGradient>
<linearGradient id="paint5_linear" x1="32" y1="60" x2="32" y2="4" gradientUnits="userSpaceOnUse">
<stop stop-color="#A93AFF"/>
<stop offset="1" stop-color="#FF81FF"/>
</linearGradient>
</defs>
</svg>
