<svg width="192" height="192" viewBox="0 0 192 192" fill="none" xmlns="http://www.w3.org/2000/svg">
<path d="M33.3537 39.9753C32.6586 38.203 33.0248 36.181 34.3601 34.8241C48.5081 20.447 67.7751 11.1706 87.9107 9.42995C113.961 6.87995 140.961 17.07 158.651 36.39C161.841 40 158.891 46.79 153.951 46.5C151.111 46.87 149.081 44.53 147.251 42.75C139.181 34.74 129.811 27.59 118.851 24.11C108.251 20.74 96.9107 21.02 86.0007 22.38C71.6107 23.93 58.0407 30.48 47.1107 39.85C51.2707 52.63 57.1107 64.84 61.6807 77.5C62.2007 77.38 63.2607 77.13 63.7907 77.01C58.7307 85.32 57.4007 95.5 59.5907 104.94L59.5807 105.92C50.9968 83.8758 41.9907 61.9968 33.3537 39.9753Z" fill="url(#paint0_linear)" stroke="url(#paint1_linear)" stroke-width="2"/>
<path d="M102.27 58.8699C125.128 58.5926 147.996 58.7998 170.855 58.7399C172.782 58.7349 174.555 59.8304 175.323 61.5976C183.262 79.847 184.531 100.879 179.06 119.99C170.85 149.17 146.34 173.08 116.88 180.35C113.97 180.97 111 182.13 107.99 181.48C104.05 180.35 102.15 175.02 104.73 171.74C106.49 169 109.99 169 112.85 168.39C121.23 167.1 129.51 164.32 136.46 159.38C143.27 154.68 148.76 148.38 153.92 141.99C163.09 130.3 169.08 115.94 169.82 101.03C170.28 90.9899 168.95 80.8199 165.61 71.3299C151.65 71.0899 137.69 71.3499 123.72 71.1999C118.38 64.6599 110.44 60.6199 102.27 58.8699Z" fill="url(#paint2_linear)" stroke="url(#paint3_linear)" stroke-width="2"/>
<path d="M28.1203 59.8899C26.1503 55.3499 18.7903 55.39 16.9903 60.06C9.69029 75.87 7.5303 93.94 10.5003 111.08C13.7203 129.78 23.4303 147.19 37.3403 160.06C49.6011 171.213 65.0197 179.072 81.4308 181.683C81.8023 181.742 82.1645 181.879 82.5405 181.894C83.6684 181.937 84.2003 180.54 84.8003 179.74C97.7503 159.96 111.21 140.49 123.99 120.6C117.73 126.94 109.77 131.75 100.83 132.95C93.1103 144.68 85.2003 156.3 77.5903 168.11C65.4103 164.98 54.0403 158.72 44.7803 150.22C24.5703 130.93 16.2703 99.93 25.2203 73.3C26.1203 68.85 30.2103 64.5699 28.1203 59.8899Z" fill="url(#paint4_linear)" stroke="url(#paint5_linear)" stroke-width="2"/>
<path d="M82.0999 61.29C88.4799 58.69 95.4899 58.54 102.27 58.87C110.44 60.62 118.38 64.66 123.72 71.2C129.02 77.99 132.93 86.22 132.91 94.98C133.37 104.29 129.61 113.34 123.99 120.6C117.73 126.94 109.77 131.75 100.83 132.95C91.9199 134.12 82.4399 132.18 75.0399 126.97C67.4399 121.78 62.3999 113.57 59.5899 104.94C57.3999 95.5 58.7299 85.32 63.7899 77.01C68.2799 70.22 74.3899 64.22 82.0999 61.29ZM90.6099 71.78C83.4699 73.31 77.0699 78.11 73.8699 84.72C68.9899 93.75 70.7999 105.74 77.9499 113.06C84.1499 119.75 94.2299 122.5 102.94 119.65C114.82 116.27 122.69 103.09 119.99 91.02C117.54 78.03 103.58 68.61 90.6099 71.78Z" fill="url(#paint6_linear)" stroke="url(#paint7_linear)" stroke-width="4"/>
<defs>
<linearGradient id="paint0_linear" x1="52" y1="78" x2="147" y2="34" gradientUnits="userSpaceOnUse">
<stop stop-color="#FD3A84"/>
<stop offset="1" stop-color="#FFA68D"/>
</linearGradient>
<linearGradient id="paint1_linear" x1="52" y1="78" x2="147" y2="34" gradientUnits="userSpaceOnUse">
<stop stop-color="#FD3A84"/>
<stop offset="1" stop-color="#FFA68D"/>
</linearGradient>
<linearGradient id="paint2_linear" x1="129.5" y1="66.5" x2="105.5" y2="175" gradientUnits="userSpaceOnUse">
<stop stop-color="#FD5900"/>
<stop offset="1" stop-color="#FFDE00"/>
</linearGradient>
<linearGradient id="paint3_linear" x1="129.5" y1="66.5" x2="105.5" y2="175" gradientUnits="userSpaceOnUse">
<stop stop-color="#FD5900"/>
<stop offset="1" stop-color="#FFDE00"/>
</linearGradient>
<linearGradient id="paint4_linear" x1="110" y1="138" x2="9" y2="93" gradientUnits="userSpaceOnUse">
<stop stop-color="#00B59C"/>
<stop offset="1" stop-color="#9CFFAC"/>
</linearGradient>
<linearGradient id="paint5_linear" x1="110" y1="138" x2="9" y2="93" gradientUnits="userSpaceOnUse">
<stop stop-color="#00B59C"/>
<stop offset="1" stop-color="#9CFFAC"/>
</linearGradient>
<linearGradient id="paint6_linear" x1="95.761" y1="133.279" x2="96" y2="69.5" gradientUnits="userSpaceOnUse">
<stop stop-color="#5570FF"/>
<stop offset="1" stop-color="#4DD3FF"/>
</linearGradient>
<linearGradient id="paint7_linear" x1="95.761" y1="133.279" x2="96" y2="69.5" gradientUnits="userSpaceOnUse">
<stop stop-color="#5570FF"/>
<stop offset="1" stop-color="#4DD3FF"/>
</linearGradient>
</defs>
</svg>
