<svg viewBox="0 0 48 48" xmlns="http://www.w3.org/2000/svg" xmlns:xlink="http://www.w3.org/1999/xlink"><linearGradient gradientUnits="userSpaceOnUse" x1="11.274" x2="39.274" y1="-13.248" y2="-13.248"><stop offset="0" stop-color="#1f081d"/><stop offset="1" stop-color="#ebff00"/></linearGradient><linearGradient id="a" gradientUnits="userSpaceOnUse" x1="11.274" x2="39.274" y1="-13.248" y2="-13.248"><stop offset="0" stop-color="#00ff56"/><stop offset="1" stop-color="#ebff00"/></linearGradient><g fill="url(#a)" transform="matrix(1.2922 0 0 1.2922 -8.536 41.264)"><path d="m22.274-12.248c-.554 0-1 .446-1 1v6c0 .554.446 1 1 1h6c.554 0 1-.446 1-1v-6c0-.554-.446-1-1-1zm2 2h2v2h1l-2 2.5-2-2.5h1z"/><path d="m22.274-14.248c-.554 0-1-.446-1-1v-6c0-.554.446-1 1-1h6c.554 0 1 .446 1 1v6c0 .554-.446 1-1 1zm2-2h2v-2h1l-2-2.5-2 2.5h1z"/><path d="m19.274-5.248c0 .554-.446 1-1 1h-6c-.554 0-1-.446-1-1v-6c0-.554.446-1 1-1h6c.554 0 1 .446 1 1zm-2-2v-2h-2v-1l-2.5 2 2.5 2v-1z"/><path d="m31.274-5.248c0 .554.446 1 1 1h6c.554 0 1-.446 1-1v-6c0-.554-.446-1-1-1h-6c-.554 0-1 .446-1 1zm2-2v-2h2v-1l2.5 2-2.5 2v-1z"/></g></svg>