<svg viewBox="0 0 48 48" xmlns="http://www.w3.org/2000/svg" xmlns:xlink="http://www.w3.org/1999/xlink"><linearGradient id="a"><stop offset="0" stop-color="#0051ff"/><stop offset="1" stop-color="#c500ff"/></linearGradient><linearGradient id="b" gradientUnits="userSpaceOnUse" x1="13.253" x2="37.5" xlink:href="#a" y1="13.738" y2="24"/><linearGradient id="c" gradientUnits="userSpaceOnUse" x1="9.80964735" x2="40.602125" xlink:href="#a" y1="11.6905731" y2="24.7228"/><linearGradient id="d" gradientTransform="matrix(0 1 -1 0 35.058 9.002)" gradientUnits="userSpaceOnUse" x1="9.488" x2="15.838" xlink:href="#a" y1="24.723" y2="24.723"/><g fill="none" stroke="url(#b)" stroke-linecap="round" stroke-linejoin="round" transform="matrix(1.12517 0 0 1.12517 -1.582 -1.214)"><path d="m9.488 8.214h27.94a2.54 2.54 0 0 1 2.54 2.54v22.859a2.54 2.54 0 0 1 -2.54 2.54h-27.941a2.54 2.54 0 0 1 -2.54-2.54v-22.86a2.54 2.54 0 0 1 2.54-2.54m0 0" stroke="url(#c)" stroke-width="1.27"/><path d="m13.298 10.754h24.13v22.859h-24.13zm0 0" stroke="url(#c)" stroke-width="1.27"/><path d="m11.605 19.76v3.81c0 .7-.57 1.27-1.27 1.27s-1.27-.57-1.27-1.27v-3.81c0-.7.57-1.27 1.27-1.27s1.27.57 1.27 1.27m0 0" fill="url(#d)" stroke="none"/><g stroke="url(#c)" stroke-width="1.27"><path d="m20.347 24.817c-.43.019-.79.124-.96.293-.446.447-.445 2.244.453 3.142l12.572 12.574c.496.491 1.209.59 1.794 0l.9-.898a1.253 1.253 0 0 0 0-1.796l-12.573-12.574c-.562-.561-1.472-.772-2.187-.741z"/><path d="m18.492 24.213c-.447.447.451 3.14 1.35 4.038l2.694-2.694c-.898-.897-3.592-1.795-4.044-1.344m0 0"/></g></g></svg>