<svg width="192" height="192" viewBox="0 0 192 192" fill="none" xmlns="http://www.w3.org/2000/svg">
<path d="M83.6141 8.75693C103.227 6.29505 123.697 9.83401 141.083 19.4397C160.706 30.3753 175.671 48.9933 183.664 70.0292C190.907 89.1197 190.429 110.573 184.326 129.906C177.702 152.304 161.521 171.043 141.67 182.605C137.25 184.419 132.113 179.704 133.308 175.066C133.938 171.461 137.641 169.977 140.214 167.988C155.396 157.844 167.439 142.49 172.294 124.619C177.485 107.837 177.419 89.2186 170.817 72.8428C163.563 55.0491 150.585 39.3216 133.633 30.3094C118.549 22.2753 100.924 19.6595 84.1028 21.9676C64.9682 24.891 46.9413 34.9803 34.5396 50.0374C22.1054 64.7317 15.2095 84.185 15.9914 103.55C16.4475 129.323 30.3478 154.261 51.7955 168.12C54.9122 169.724 57.3122 173.417 55.857 176.967C54.695 180.495 50.4924 182.067 47.1911 180.693C30.8256 170.659 17.6204 155.36 10.2467 137.467C1.33097 116.189 0.559936 91.4937 8.38971 69.7654C14.8077 52.0706 26.5578 36.3762 41.7504 25.4625C54.0869 16.5602 68.5953 10.7682 83.6141 8.75693Z" fill="url(#paint0_linear)" stroke="url(#paint1_linear)" stroke-width="4"/>
<path d="M112.772 65.4901C114.575 63.8415 117.583 66.0396 116.834 68.3037C115.205 81.5802 112.522 94.692 109.884 107.793C107.744 118.036 96.0267 123.806 86.4485 121.124C79.1183 118.849 74.036 111.233 74.0577 103.572C74.3075 97.011 78.2278 91.0211 83.4404 87.3063C93.214 80.0196 102.944 72.6779 112.772 65.4901Z" fill="url(#paint2_linear)" stroke="url(#paint3_linear)" stroke-width="4"/>
<defs>
<linearGradient id="paint0_linear" x1="36.7125" y1="162.343" x2="195.541" y2="15.0536" gradientUnits="userSpaceOnUse">
<stop stop-color="#FE0844"/>
<stop offset="1" stop-color="#FEB302"/>
</linearGradient>
<linearGradient id="paint1_linear" x1="36.7125" y1="162.343" x2="195.541" y2="15.0536" gradientUnits="userSpaceOnUse">
<stop stop-color="#FE0844"/>
<stop offset="1" stop-color="#FEB302"/>
</linearGradient>
<linearGradient id="paint2_linear" x1="81.8321" y1="115.066" x2="129.367" y2="83.7803" gradientUnits="userSpaceOnUse">
<stop stop-color="#FE0844"/>
<stop offset="1" stop-color="#FEB302"/>
</linearGradient>
<linearGradient id="paint3_linear" x1="81.8321" y1="115.066" x2="129.367" y2="83.7803" gradientUnits="userSpaceOnUse">
<stop stop-color="#FE0844"/>
<stop offset="1" stop-color="#FEB302"/>
</linearGradient>
</defs>
</svg>
