<svg width="192" height="192" viewBox="0 0 192 192" fill="none" xmlns="http://www.w3.org/2000/svg">
<path d="M23 28C23 24.6863 20.3137 22 17 22C13.6863 22 11 24.6863 11 28V165C11 168.314 13.6863 171 17 171C20.3137 171 23 168.314 23 165V28Z" fill="url(#paint0_linear)"/>
<path d="M145 28H48C41.3726 28 36 33.3726 36 40V152C36 158.627 41.3726 164 48 164H145C151.627 164 157 158.627 157 152V40C157 33.3726 151.627 28 145 28Z" stroke="url(#paint1_linear)" stroke-width="16"/>
<path fill-rule="evenodd" clip-rule="evenodd" d="M75.4662 83.6159C75.9995 83.6159 76.5328 83.6159 77.0662 83.3493V81.7493V81.7492C77.0662 80.4159 77.0662 79.0826 77.3328 78.0159C76.7995 78.2826 75.9995 78.2826 75.4662 78.2826C71.9994 78.2826 69.0661 75.3493 69.0661 71.8827C69.0661 68.416 71.9994 65.4827 75.4662 65.4827C78.1328 65.4827 80.5328 67.0827 81.5995 69.4827C82.6662 68.1494 84.2662 66.8161 85.5995 65.7494C82.1328 60.1494 74.9328 58.2827 69.3327 61.7494C63.7327 65.2161 61.8661 72.416 65.3327 78.0159C67.4661 81.4826 71.1994 83.6159 75.4662 83.6159ZM110.4 69.4833C111.733 66.2833 115.467 64.6833 118.933 66.0166C122.133 67.35 123.733 71.0833 122.4 74.55C121.333 76.9498 118.933 78.5498 116.533 78.5498C116 78.5498 115.2 78.5498 114.667 78.2832C114.933 79.6165 114.933 80.9498 114.933 82.0165V83.6165C115.2 83.6165 115.467 83.6832 115.733 83.7498C116 83.8165 116.267 83.8832 116.533 83.8832C123.2 83.8832 128.533 78.5498 128.533 72.15C128.533 65.4833 123.2 60.15 116.8 60.15C112.533 60.15 108.8 62.2833 106.667 66.0166C108 66.8166 109.333 67.8833 110.4 69.4833ZM108.533 81.7495C108.533 88.9496 102.933 94.8162 95.7334 94.8162C88.5334 94.8162 82.6668 88.9496 82.6668 81.7495C82.6668 74.8162 88.2668 68.9495 95.4668 68.9495C102.667 68.9495 108.533 74.5495 108.533 81.7495ZM103.2 82.0162C103.2 77.7496 99.7334 74.2828 95.4668 74.2828C91.4668 74.2828 88.0001 77.7496 88.0001 82.0162C88.0001 86.0162 91.2001 89.4829 95.4668 89.4829C99.7334 89.4829 103.2 86.2829 103.2 82.0162ZM116.533 86.5484C123.467 86.2817 130.133 88.6817 135.2 93.2151L136 94.0151V115.348H130.667V96.1484C126.667 93.2151 121.6 91.6151 116.533 91.8817H116.533C114.933 91.8817 113.6 91.8817 112 92.1484C113.067 90.5484 113.867 88.6817 114.4 86.5484H116.533ZM77.6 86.8156C78.1333 88.9489 78.9333 90.8156 80 92.4156C78.6667 92.1489 77.0667 91.8822 75.4667 91.8822C70.4 91.6156 65.6 93.2156 61.3333 96.1489V115.349H56V94.0156L56.8 93.2156C61.8667 88.9489 68.5333 86.5489 75.4667 86.8156H77.6ZM117.067 108.416L117.6 109.216H117.867V129.482C117.867 131.882 115.733 134.016 113.333 134.016H79.2C76.5333 134.016 74.6666 131.882 74.6666 129.482V109.216L75.2 108.416C80.5333 102.549 88.2666 99.0822 96.2666 99.3489C104.267 99.0822 111.733 102.549 117.067 108.416ZM80 128.682H112.267V111.082C108 106.816 102.133 104.416 96.2666 104.682C90.1333 104.682 84.2666 106.816 80 111.082V128.682Z" fill="url(#paint2_linear)"/>
<path d="M77.0662 83.3493L77.737 84.6909L78.5662 84.2763V83.3493H77.0662ZM77.3328 78.0159L78.788 78.3797L79.579 75.2158L76.662 76.6743L77.3328 78.0159ZM81.5995 69.4827L80.2288 70.0919L81.2303 72.3454L82.7708 70.4198L81.5995 69.4827ZM85.5995 65.7494L86.5365 66.9207L87.5746 66.0902L86.8749 64.9599L85.5995 65.7494ZM69.3327 61.7494L68.5432 60.474L68.5432 60.474L69.3327 61.7494ZM65.3327 78.0159L66.6102 77.2298L66.6081 77.2264L65.3327 78.0159ZM118.933 66.0166L119.51 64.632L119.491 64.6241L119.472 64.6166L118.933 66.0166ZM110.4 69.4833L109.152 70.3154L110.706 72.6474L111.784 70.0602L110.4 69.4833ZM122.4 74.55L123.771 75.1592L123.786 75.1242L123.8 75.0884L122.4 74.55ZM114.667 78.2832L115.337 76.9415L112.594 75.5699L113.196 78.5773L114.667 78.2832ZM114.933 83.6165H113.433V85.1165H114.933V83.6165ZM106.667 66.0166L105.364 65.2724L104.636 66.5474L105.895 67.3029L106.667 66.0166ZM135.2 93.2151L136.261 92.1544L136.231 92.125L136.2 92.0972L135.2 93.2151ZM116.533 86.5484V88.0484H116.562L116.591 88.0473L116.533 86.5484ZM136 94.0151H137.5V93.3937L137.061 92.9544L136 94.0151ZM136 115.348V116.848H137.5V115.348H136ZM130.667 115.348H129.167V116.848H130.667V115.348ZM130.667 96.1484H132.167V95.3883L131.554 94.9388L130.667 96.1484ZM116.533 91.8817V93.3817H116.573L116.612 93.3797L116.533 91.8817ZM112 92.1484L110.752 91.3163L108.831 94.1972L112.247 93.628L112 92.1484ZM114.4 86.5484V85.0484H113.229L112.945 86.1846L114.4 86.5484ZM80 92.4156L79.7058 93.8865L83.2568 94.5967L81.2481 91.5835L80 92.4156ZM77.6 86.8156L79.0552 86.4518L78.7712 85.3156H77.6V86.8156ZM75.4667 91.8822L75.3878 93.3802L75.4272 93.3822H75.4667V91.8822ZM61.3333 96.1489L60.4835 94.9129L59.8333 95.3599V96.1489H61.3333ZM61.3333 115.349V116.849H62.8333V115.349H61.3333ZM56 115.349H54.5V116.849H56V115.349ZM56 94.0156L54.9393 92.9549L54.5 93.3943V94.0156H56ZM56.8 93.2156L55.8338 92.0682L55.7847 92.1095L55.7393 92.1549L56.8 93.2156ZM75.4667 86.8156L75.409 88.3145L75.4378 88.3156H75.4667V86.8156ZM117.6 109.216L116.352 110.048L116.797 110.716H117.6V109.216ZM117.067 108.416L118.315 107.584L118.252 107.49L118.177 107.407L117.067 108.416ZM117.867 109.216H119.367V107.716H117.867V109.216ZM74.6666 109.216L73.4186 108.384L73.1666 108.761V109.216H74.6666ZM75.2 108.416L74.0901 107.407L74.0143 107.49L73.9519 107.584L75.2 108.416ZM96.2666 99.3489L96.2167 100.848L96.2666 100.85L96.3166 100.848L96.2666 99.3489ZM112.267 128.682V130.182H113.767V128.682H112.267ZM80 128.682H78.5V130.182H80V128.682ZM112.267 111.082H113.767V110.461L113.327 110.022L112.267 111.082ZM96.2666 104.682V106.182H96.3007L96.3348 106.181L96.2666 104.682ZM80 111.082L78.9393 110.022L78.5 110.461V111.082H80ZM76.3953 82.0076C76.2225 82.094 76.0373 82.1159 75.4662 82.1159V85.1159C75.9617 85.1159 76.8431 85.1378 77.737 84.6909L76.3953 82.0076ZM75.5662 81.7493V83.3493H78.5662V81.7493H75.5662ZM75.5662 81.7492V81.7493H78.5662V81.7492H75.5662ZM75.8776 77.6521C75.5568 78.9355 75.5662 80.474 75.5662 81.7492H78.5662C78.5662 80.3578 78.5756 79.2297 78.788 78.3797L75.8776 77.6521ZM75.4662 79.7826C75.7245 79.7826 76.13 79.7837 76.5487 79.7418C76.9511 79.7016 77.4964 79.6112 78.0036 79.3576L76.662 76.6743C76.6621 76.6742 76.6598 76.6754 76.6547 76.6775C76.6496 76.6796 76.6421 76.6825 76.6321 76.686C76.6115 76.6931 76.583 76.7016 76.5455 76.7105C76.4685 76.7287 76.3703 76.7447 76.2502 76.7567C76.0023 76.7815 75.7412 76.7826 75.4662 76.7826V79.7826ZM67.5661 71.8827C67.5661 76.1777 71.171 79.7826 75.4662 79.7826V76.7826C72.8278 76.7826 70.5661 74.5208 70.5661 71.8827H67.5661ZM75.4662 63.9827C71.171 63.9827 67.5661 67.5876 67.5661 71.8827H70.5661C70.5661 69.2445 72.8278 66.9827 75.4662 66.9827V63.9827ZM82.9702 68.8735C81.6671 65.9416 78.7362 63.9827 75.4662 63.9827V66.9827C77.5294 66.9827 79.3985 68.2238 80.2288 70.0919L82.9702 68.8735ZM84.6624 64.5781C83.3387 65.6371 81.6127 67.065 80.4282 68.5457L82.7708 70.4198C83.7196 69.2337 85.1936 67.995 86.5365 66.9207L84.6624 64.5781ZM70.1223 63.0248C74.9848 60.0147 81.2727 61.6097 84.3241 66.5389L86.8749 64.9599C82.993 58.6891 74.8808 56.5507 68.5432 60.474L70.1223 63.0248ZM66.6081 77.2264C63.5981 72.3641 65.193 66.0762 70.1223 63.0248L68.5432 60.474C62.2725 64.3559 60.1341 72.468 64.0573 78.8055L66.6081 77.2264ZM75.4662 82.1159C71.7184 82.1159 68.4696 80.2512 66.6102 77.2298L64.0553 78.8021C66.4626 82.714 70.6804 85.1159 75.4662 85.1159V82.1159ZM119.472 64.6166C115.28 63.0045 110.675 64.924 109.015 68.9064L111.784 70.0602C112.792 67.6426 115.653 66.3621 118.395 67.4167L119.472 64.6166ZM123.8 75.0884C125.412 70.897 123.492 66.2913 119.51 64.632L118.356 67.4013C120.774 68.4086 122.054 71.2697 121 74.0115L123.8 75.0884ZM116.533 80.0498C119.571 80.0498 122.482 78.0585 123.771 75.1592L121.029 73.9407C120.184 75.8412 118.295 77.0498 116.533 77.0498V80.0498ZM113.996 79.6248C114.503 79.8784 115.048 79.9688 115.451 80.0091C115.869 80.0509 116.275 80.0498 116.533 80.0498V77.0498C116.258 77.0498 115.997 77.0487 115.749 77.0239C115.629 77.0119 115.531 76.9959 115.454 76.9777C115.416 76.9688 115.388 76.9603 115.367 76.9532C115.357 76.9498 115.35 76.9469 115.345 76.9447C115.339 76.9426 115.337 76.9415 115.337 76.9415L113.996 79.6248ZM116.433 82.0165C116.433 80.9653 116.437 79.4889 116.137 77.989L113.196 78.5773C113.429 79.7441 113.433 80.9344 113.433 82.0165H116.433ZM116.433 83.6165V82.0165H113.433V83.6165H116.433ZM116.097 82.2946C115.865 82.2368 115.417 82.1165 114.933 82.1165V85.1165C114.983 85.1165 115.068 85.1296 115.369 85.2051L116.097 82.2946ZM116.533 82.3832C116.483 82.3832 116.399 82.3701 116.097 82.2946L115.369 85.2051C115.601 85.2629 116.05 85.3832 116.533 85.3832V82.3832ZM127.033 72.15C127.033 77.6996 122.393 82.3832 116.533 82.3832V85.3832C124.006 85.3832 130.033 79.4001 130.033 72.15H127.033ZM116.8 61.65C122.35 61.65 127.033 66.2897 127.033 72.15H130.033C130.033 64.6769 124.05 58.65 116.8 58.65V61.65ZM107.969 66.7608C109.832 63.5 113.066 61.65 116.8 61.65V58.65C112.001 58.65 107.767 61.0666 105.364 65.2724L107.969 66.7608ZM111.648 68.6513C110.425 66.8162 108.902 65.6089 107.438 64.7304L105.895 67.3029C107.097 68.0244 108.242 68.9504 109.152 70.3154L111.648 68.6513ZM95.7334 96.3162C103.802 96.3162 110.033 89.7373 110.033 81.7495H107.033C107.033 88.1618 102.065 93.3162 95.7334 93.3162V96.3162ZM81.1668 81.7495C81.1668 89.778 87.705 96.3162 95.7334 96.3162V93.3162C89.3619 93.3162 84.1668 88.1211 84.1668 81.7495H81.1668ZM95.4668 67.4495C87.4181 67.4495 81.1668 74.0082 81.1668 81.7495H84.1668C84.1668 75.6242 89.1155 70.4495 95.4668 70.4495V67.4495ZM110.033 81.7495C110.033 73.681 103.455 67.4495 95.4668 67.4495V70.4495C101.879 70.4495 107.033 75.418 107.033 81.7495H110.033ZM95.4668 75.7828C98.905 75.7828 101.7 78.578 101.7 82.0162H104.7C104.7 76.9211 100.562 72.7828 95.4668 72.7828V75.7828ZM89.5001 82.0162C89.5001 78.5437 92.3291 75.7828 95.4668 75.7828V72.7828C90.6045 72.7828 86.5001 76.9554 86.5001 82.0162H89.5001ZM95.4668 87.9829C92.0632 87.9829 89.5001 85.2229 89.5001 82.0162H86.5001C86.5001 86.8095 90.337 90.9829 95.4668 90.9829V87.9829ZM101.7 82.0162C101.7 85.3863 98.9748 87.9829 95.4668 87.9829V90.9829C100.492 90.9829 104.7 87.1794 104.7 82.0162H101.7ZM136.2 92.0972C130.84 87.3016 123.793 84.768 116.476 85.0495L116.591 88.0473C123.14 87.7954 129.426 90.0619 134.2 94.3329L136.2 92.0972ZM137.061 92.9544L136.261 92.1544L134.139 94.2757L134.939 95.0757L137.061 92.9544ZM137.5 115.348V94.0151H134.5V115.348H137.5ZM130.667 116.848H136V113.848H130.667V116.848ZM129.167 96.1484V115.348H132.167V96.1484H129.167ZM116.612 93.3797C121.32 93.1319 126.047 94.6211 129.78 97.358L131.554 94.9388C127.286 91.809 121.88 90.0982 116.454 90.3838L116.612 93.3797ZM116.533 93.3817H116.533V90.3817H116.533V93.3817ZM112.247 93.628C113.708 93.3844 114.925 93.3817 116.533 93.3817V90.3817C114.942 90.3817 113.492 90.379 111.753 90.6688L112.247 93.628ZM112.945 86.1846C112.447 88.1747 111.711 89.8783 110.752 91.3163L113.248 92.9804C114.423 91.2184 115.286 89.1887 115.855 86.9122L112.945 86.1846ZM116.533 85.0484H114.4V88.0484H116.533V85.0484ZM81.2481 91.5835C80.2894 90.1455 79.5527 88.4419 79.0552 86.4518L76.1448 87.1794C76.7139 89.4559 77.5773 91.4856 78.7519 93.2476L81.2481 91.5835ZM75.4667 93.3822C76.9153 93.3822 78.3987 93.625 79.7058 93.8865L80.2942 90.9447C78.9346 90.6728 77.218 90.3822 75.4667 90.3822V93.3822ZM62.1831 97.385C66.2238 94.607 70.7031 93.1336 75.3878 93.3802L75.5455 90.3843C70.0969 90.0976 64.9762 91.8242 60.4835 94.9129L62.1831 97.385ZM62.8333 115.349V96.1489H59.8333V115.349H62.8333ZM56 116.849H61.3333V113.849H56V116.849ZM54.5 94.0156V115.349H57.5V94.0156H54.5ZM55.7393 92.1549L54.9393 92.9549L57.0607 95.0762L57.8607 94.2762L55.7393 92.1549ZM75.5243 85.3167C68.2102 85.0354 61.1802 87.566 55.8338 92.0682L57.7662 94.363C62.5532 90.3318 68.8565 88.0625 75.409 88.3145L75.5243 85.3167ZM77.6 85.3156H75.4667V88.3156H77.6V85.3156ZM118.848 108.384L118.315 107.584L115.819 109.248L116.352 110.048L118.848 108.384ZM117.867 107.716H117.6V110.716H117.867V107.716ZM119.367 129.482V109.216H116.367V129.482H119.367ZM113.333 135.516C116.562 135.516 119.367 132.711 119.367 129.482H116.367C116.367 131.054 114.905 132.516 113.333 132.516V135.516ZM79.2 135.516H113.333V132.516H79.2V135.516ZM73.1666 129.482C73.1666 132.652 75.6478 135.516 79.2 135.516V132.516C77.4189 132.516 76.1666 131.112 76.1666 129.482H73.1666ZM73.1666 109.216V129.482H76.1666V109.216H73.1666ZM73.9519 107.584L73.4186 108.384L75.9147 110.048L76.4481 109.248L73.9519 107.584ZM96.3166 97.8497C87.8537 97.5676 79.7035 101.232 74.0901 107.407L76.3099 109.425C81.3632 103.866 88.6796 100.597 96.2167 100.848L96.3166 97.8497ZM118.177 107.407C112.574 101.243 104.694 97.5671 96.2167 97.8497L96.3166 100.848C103.839 100.597 110.893 103.854 115.957 109.425L118.177 107.407ZM112.267 127.182H80V130.182H112.267V127.182ZM110.767 111.082V128.682H113.767V111.082H110.767ZM96.3348 106.181C101.753 105.934 107.218 108.154 111.206 112.143L113.327 110.022C108.782 105.477 102.513 102.897 96.1985 103.184L96.3348 106.181ZM81.0606 112.143C85.0093 108.194 90.476 106.182 96.2666 106.182V103.182C89.7906 103.182 83.524 105.437 78.9393 110.022L81.0606 112.143ZM81.5 128.682V111.082H78.5V128.682H81.5Z" fill="url(#paint3_linear)"/>
<defs>
<linearGradient id="paint0_linear" x1="17" y1="171" x2="17" y2="22" gradientUnits="userSpaceOnUse">
<stop stop-color="#5570FF"/>
<stop offset="1" stop-color="#4DD3FF"/>
</linearGradient>
<linearGradient id="paint1_linear" x1="96.5" y1="156" x2="96.5" y2="36" gradientUnits="userSpaceOnUse">
<stop stop-color="#5570FF"/>
<stop offset="1" stop-color="#4DD3FF"/>
</linearGradient>
<linearGradient id="paint2_linear" x1="63.4419" y1="97.0078" x2="122.357" y2="97.0078" gradientUnits="userSpaceOnUse">
<stop stop-color="#5570FF"/>
<stop offset="1" stop-color="#4DD3FF"/>
</linearGradient>
<linearGradient id="paint3_linear" x1="63.4419" y1="97.0078" x2="122.357" y2="97.0078" gradientUnits="userSpaceOnUse">
<stop stop-color="#5570FF"/>
<stop offset="1" stop-color="#4DD3FF"/>
</linearGradient>
</defs>
</svg>
