<svg width="180" height="192" viewBox="0 0 180 192" fill="none" xmlns="http://www.w3.org/2000/svg">
<path d="M22.995 12.0572C27.1931 9.53808 32.1693 8.88621 36.9702 9.02984C48.7203 9.16242 60.4814 8.83096 72.2315 9.18453C69.1843 13.4494 66.1482 17.7142 63.134 22.0012C53.3349 22.1779 43.5248 21.8355 33.7258 22.1227C27.7521 22.3105 23.017 27.2714 21.3728 32.7848C20.8906 35.3592 20.7371 37.9888 20.7152 40.6074C20.77 55.9874 20.6385 71.3784 20.4302 86.7694C16.3308 90.7138 13.4262 95.6968 9.26102 99.5749C8.73489 78.8473 9.19525 58.0866 9.03084 37.348C8.76778 27.2383 14.0071 16.8855 22.995 12.0572Z" fill="url(#paint0_linear)"/>
<path d="M72.2315 9.18453C85.3627 8.94146 98.5268 8.94145 111.657 9.18452C109.422 13.4935 107.109 17.7694 104.708 21.9901C90.8542 22.0785 76.9886 22.0343 63.134 22.0012C66.1482 17.7142 69.1843 13.4494 72.2315 9.18453Z" fill="url(#paint1_linear)"/>
<path d="M111.657 9.18452C119.638 8.83096 127.639 9.15138 135.619 9.0409C141.471 9.18453 147.5 8.40006 153.145 10.3226C147.226 11.3059 144.815 17.3827 141.964 21.9238C129.546 22.1559 117.128 22.0012 104.708 21.9901C107.109 17.7694 109.422 13.4935 111.657 9.18452Z" fill="url(#paint2_linear)"/>
<path d="M141.965 21.9238C144.815 17.3827 147.226 11.3059 153.145 10.3226C162.297 13.4272 168.842 22.0564 170.485 31.5142C170.726 34.7957 170.781 38.0883 170.726 41.3697C166.167 44.6844 164.051 50.1536 160.018 53.9433C159.273 47.2809 160.763 40.3974 158.834 33.8787C158.308 32.2986 157.672 30.7408 156.894 29.2713C154.286 23.5811 147.796 21.4488 141.965 21.9238Z" fill="url(#paint3_linear)"/>
<path d="M104.873 63.821C108.754 60.3406 114.288 60.2301 119.199 60.0754C124.362 60.1196 129.963 59.8987 134.544 62.7162C138.545 65.2905 139.739 70.4061 139.761 74.9029C139.828 85.9628 139.739 97.0228 139.817 108.082C139.707 110.226 140.134 112.69 138.633 114.458C134.555 114.922 130.248 115.043 126.971 112.204C119.44 117.021 108.239 116.645 101.705 110.204C99.4036 105.376 99.8201 99.9175 99.9407 94.7246C99.9736 90.3492 102.516 85.9187 106.671 84.3166C112.787 81.7863 119.56 83.0901 125.984 82.5487L127.014 82.4382C126.959 78.8142 128.121 73.9086 124.909 71.3452C121.742 70.4724 117.15 69.7653 114.804 72.6601C114.497 73.7429 114.245 74.8366 114.036 75.9526C111.198 80.2064 105.125 78.4938 101.036 77.3006C100.784 72.5938 101.256 67.2461 104.873 63.821ZM112.952 97.0559C112.765 99.7629 112.447 103.928 115.987 104.481C119.297 104.746 123.627 105.696 126.148 102.9C127.365 99.7297 127.321 96.183 126.741 92.8684C123.178 92.6806 119.583 92.559 116.053 93.012C114.157 93.2993 112.765 95.1223 112.952 97.0559Z" fill="url(#paint4_linear)"/>
<path d="M20.7152 40.6074C20.7371 37.9888 20.8906 35.3592 21.3728 32.7848C21.1755 34.6631 21.0877 36.5414 21.0548 38.4307C21.0548 74.8809 21.0877 111.342 21.0548 147.803C21.1096 152.024 20.6822 156.355 21.9536 160.432C23.5977 165.459 28.2451 169.614 33.605 169.879C46.8787 170.188 60.1852 169.625 73.459 170.132C65.5233 171.514 57.0176 170.232 49.5532 173.79C46.78 175.756 45.3989 179.105 42.8999 181.369C39.0746 182.32 35.0738 182.331 31.1608 182.629C22.2276 181.612 14.6645 174.873 11.3544 166.619C13.0424 162.565 15.8922 159.217 18.5776 155.824C20.5286 153.648 20.1998 150.554 20.3094 147.859C20.1231 127.495 20.7919 107.132 20.4302 86.7694C20.6385 71.3784 20.77 55.9874 20.7152 40.6074Z" fill="url(#paint5_linear)"/>
<path d="M158.834 33.8787C160.762 40.3974 159.272 47.2808 160.017 53.9433C164.051 50.1535 166.166 44.6844 170.726 41.3697C170.902 63.6 170.715 85.8192 170.835 108.05C170.879 111.386 170.616 114.734 169.762 117.96C166.353 121.761 159.151 119.927 158.976 114.513C158.702 87.6423 159.041 60.7604 158.834 33.8787Z" fill="url(#paint6_linear)"/>
<path d="M56.9519 52.96C57.6424 50.2199 58.618 46.3307 62.1802 46.4854C66.4003 46.6621 71.2888 45.3142 75.0703 47.6014C77.6681 51.2806 78.1284 56.0869 79.2245 60.3959C77.9092 58.6833 76.6049 56.9486 75.0483 55.4681C71.0805 57.0039 69.4912 61.6886 68.5595 65.5557C68.0882 65.5998 67.1565 65.6882 66.6852 65.7324C65.5343 70.8039 64.3944 75.8863 62.8708 80.8693C62.3666 78.3834 61.8186 75.8974 61.0075 73.4888C57.7411 77.4221 55.8448 82.2725 52.6333 86.2502C50.1671 89.2554 48.7641 93.1336 45.5745 95.487C48.6874 81.1676 53.2033 67.1467 56.9519 52.96Z" fill="url(#paint7_linear)"/>
<path d="M68.5595 65.5557C69.4912 61.6886 71.0805 57.0039 75.0483 55.4681C76.6049 56.9486 77.9092 58.6833 79.2245 60.3959C81.899 67.5886 83.2034 75.2455 85.5051 82.5708C88.1906 93.012 91.9063 103.199 93.9341 113.795C89.4511 115.088 84.5845 115.154 80.1562 113.607C80.0466 113.088 79.8274 112.049 79.7178 111.53C79.0491 108.304 78.6656 104.945 77.131 101.995C70.5983 101.829 64.0108 101.542 57.5 102.172C56.7985 104.105 56.371 106.126 55.9874 108.149C55.8888 108.635 55.7133 109.596 55.6257 110.082C54.9023 111.541 54.4858 113.364 53.0389 114.28C49.1697 115.021 45.2128 114.602 41.3107 114.458C40.1598 111.884 41.3326 109.165 41.9793 106.646C43.1192 103.033 43.8975 99.3208 45.169 95.7521L45.5745 95.487C48.7641 93.1336 50.1671 89.2554 52.6333 86.2502C55.8448 82.2725 57.7411 77.4221 61.0075 73.4888C61.8186 75.8974 62.3666 78.3834 62.8708 80.8693C62.1254 84.0514 61.2048 87.2003 60.7882 90.4487C65.2493 90.7028 69.7434 90.7249 74.2154 90.4266C72.8343 82.0295 69.5898 74.0301 68.5595 65.5557Z" fill="url(#paint8_linear)"/>
<path d="M9.26102 99.5749C13.4262 95.6968 16.3308 90.7138 20.4302 86.7694C20.7919 107.132 20.1231 127.495 20.3094 147.859C20.1998 150.554 20.5286 153.648 18.5776 155.824C15.8922 159.217 13.0424 162.565 11.3544 166.619C11.1132 166.056 10.62 164.917 10.3789 164.354C8.36205 157.935 9.20604 151.118 9.04162 144.5C9.19508 129.529 8.7349 114.524 9.26102 99.5749Z" fill="url(#paint9_linear)"/>
<path d="M37.0687 138.058C37.6606 134.555 41.3545 132.755 44.6209 133.086C59.3633 133.186 74.1277 132.854 88.8701 133.251C86.2175 137.616 83.1375 141.704 80.5837 146.146C71.519 146.289 62.4653 146.146 53.4115 146.212C48.7531 146.201 44.0399 146.455 39.4363 145.549C37.7812 143.505 35.9727 140.776 37.0687 138.058Z" fill="url(#paint10_linear)"/>
<path d="M88.8701 133.251C104.84 132.92 120.854 133.053 136.846 133.186C133.668 137.395 130.785 141.803 127.825 146.168C112.074 146.235 96.3235 146.235 80.5837 146.146C83.1375 141.704 86.2175 137.616 88.8701 133.251Z" fill="url(#paint11_linear)"/>
<path d="M136.846 133.186C145.943 132.975 155.052 133.075 164.149 133.131C167.91 132.942 170.869 136.368 170.846 140.014C170.792 150.444 172.371 161.846 166.495 171.127C162.439 177.005 156.236 181.723 149.046 182.629C132.221 182.099 115.384 182.331 98.5595 181.834C100.369 178.243 102.494 174 106.66 172.851C113.324 170.917 120.361 171.26 127.167 170.121C133.657 169.647 140.178 170.221 146.667 169.845C151.983 169.481 156.379 165.271 158.045 160.332C159.151 155.747 159.371 150.852 158.373 146.235C148.191 146.091 138.008 146.278 127.825 146.168C130.785 141.803 133.668 137.395 136.846 133.186Z" fill="url(#paint12_linear)"/>
<path d="M73.459 170.132C91.3472 169.823 109.269 169.812 127.167 170.121C120.361 171.26 113.324 170.917 106.66 172.851C102.494 174 100.369 178.243 98.5595 181.834C115.384 182.331 132.221 182.099 149.046 182.629C144.585 183.17 140.091 182.949 135.619 182.983C102.714 182.971 69.8091 182.949 36.9044 182.949C34.9863 182.927 33.068 182.838 31.1608 182.629C35.0738 182.331 39.0746 182.32 42.8999 181.369C45.3989 179.105 46.78 175.756 49.5532 173.79C57.0176 170.232 65.5233 171.514 73.459 170.132Z" fill="url(#paint13_linear)"/>
<path d="M72.2315 9.18453C60.4814 8.83096 48.7203 9.16242 36.9702 9.02984C32.1693 8.88621 27.1931 9.53808 22.995 12.0572C14.0071 16.8855 8.76778 27.2383 9.03084 37.348C9.19525 58.0866 8.73489 78.8473 9.26102 99.5749M72.2315 9.18453C69.1843 13.4494 66.1482 17.7142 63.134 22.0012M72.2315 9.18453C85.3627 8.94146 98.5268 8.94145 111.657 9.18452M63.134 22.0012C53.3349 22.1779 43.5248 21.8355 33.7258 22.1227C27.7521 22.3105 23.017 27.2714 21.3728 32.7848M63.134 22.0012C76.9886 22.0343 90.8542 22.0785 104.708 21.9901M21.3728 32.7848C20.8906 35.3592 20.7371 37.9888 20.7152 40.6074C20.77 55.9874 20.6385 71.3784 20.4302 86.7694M21.3728 32.7848C21.1755 34.6631 21.0877 36.5414 21.0548 38.4307C21.0548 74.8809 21.0877 111.342 21.0548 147.803C21.1096 152.024 20.6822 156.355 21.9536 160.432C23.5977 165.459 28.2451 169.614 33.605 169.879C46.8787 170.188 60.1852 169.625 73.459 170.132M20.4302 86.7694C16.3308 90.7138 13.4262 95.6968 9.26102 99.5749M20.4302 86.7694C20.7919 107.132 20.1231 127.495 20.3094 147.859C20.1998 150.554 20.5286 153.648 18.5776 155.824C15.8922 159.217 13.0424 162.565 11.3544 166.619M9.26102 99.5749C8.7349 114.524 9.19508 129.529 9.04162 144.5C9.20604 151.118 8.36205 157.935 10.3789 164.354C10.62 164.917 11.1132 166.056 11.3544 166.619M111.657 9.18452C109.422 13.4935 107.109 17.7694 104.708 21.9901M111.657 9.18452C119.638 8.83096 127.639 9.15138 135.619 9.0409C141.471 9.18453 147.5 8.40006 153.145 10.3226M104.708 21.9901C117.128 22.0012 129.546 22.1559 141.964 21.9238C144.815 17.3827 147.226 11.3059 153.145 10.3226M153.145 10.3226C147.226 11.3059 144.815 17.3827 141.965 21.9238C147.796 21.4488 154.286 23.5811 156.894 29.2713C157.672 30.7408 158.308 32.2986 158.834 33.8787M153.145 10.3226C162.297 13.4272 168.842 22.0564 170.485 31.5142C170.726 34.7957 170.781 38.0883 170.726 41.3697M170.726 41.3697C166.167 44.6844 164.051 50.1536 160.018 53.9433C159.273 47.2809 160.763 40.3974 158.834 33.8787M170.726 41.3697C166.166 44.6844 164.051 50.1535 160.017 53.9433C159.272 47.2808 160.762 40.3974 158.834 33.8787M170.726 41.3697C170.902 63.6 170.715 85.8192 170.835 108.05C170.879 111.386 170.616 114.734 169.762 117.96C166.353 121.761 159.151 119.927 158.976 114.513C158.702 87.6423 159.041 60.7604 158.834 33.8787M73.459 170.132C65.5233 171.514 57.0176 170.232 49.5532 173.79C46.78 175.756 45.3989 179.105 42.8999 181.369C39.0746 182.32 35.0738 182.331 31.1608 182.629M73.459 170.132C91.3472 169.823 109.269 169.812 127.167 170.121M31.1608 182.629C22.2276 181.612 14.6645 174.873 11.3544 166.619M31.1608 182.629C33.068 182.838 34.9863 182.927 36.9044 182.949C69.8091 182.949 102.714 182.971 135.619 182.983C140.091 182.949 144.585 183.17 149.046 182.629M79.2245 60.3959C78.1284 56.0869 77.6681 51.2806 75.0703 47.6014C71.2888 45.3142 66.4003 46.6621 62.1802 46.4854C58.618 46.3307 57.6424 50.2199 56.9519 52.96C53.2033 67.1467 48.6874 81.1676 45.5745 95.487M79.2245 60.3959C77.9092 58.6833 76.6049 56.9486 75.0483 55.4681C71.0805 57.0039 69.4912 61.6886 68.5595 65.5557M79.2245 60.3959C81.899 67.5886 83.2034 75.2455 85.5051 82.5708C88.1906 93.012 91.9063 103.199 93.9341 113.795C89.4511 115.088 84.5845 115.154 80.1562 113.607C80.0466 113.088 79.8274 112.049 79.7178 111.53C79.0491 108.304 78.6656 104.945 77.131 101.995C70.5983 101.829 64.0108 101.542 57.5 102.172C56.7985 104.105 56.371 106.126 55.9874 108.149C55.8888 108.635 55.7133 109.596 55.6257 110.082C54.9023 111.541 54.4858 113.364 53.0389 114.28C49.1697 115.021 45.2128 114.602 41.3107 114.458C40.1598 111.884 41.3326 109.165 41.9793 106.646C43.1192 103.033 43.8975 99.3208 45.169 95.7521L45.5745 95.487M68.5595 65.5557C68.0882 65.5998 67.1565 65.6882 66.6852 65.7324C65.5343 70.8039 64.3944 75.8863 62.8708 80.8693M68.5595 65.5557C69.5898 74.0301 72.8343 82.0295 74.2154 90.4266C69.7434 90.7249 65.2493 90.7028 60.7882 90.4487C61.2048 87.2003 62.1254 84.0514 62.8708 80.8693M62.8708 80.8693C62.3666 78.3834 61.8186 75.8974 61.0075 73.4888C57.7411 77.4221 55.8448 82.2725 52.6333 86.2502C50.1671 89.2554 48.7641 93.1336 45.5745 95.487M88.8701 133.251C74.1277 132.854 59.3633 133.186 44.6209 133.086C41.3545 132.755 37.6606 134.555 37.0687 138.058C35.9727 140.776 37.7812 143.505 39.4363 145.549C44.0399 146.455 48.7531 146.201 53.4115 146.212C62.4653 146.146 71.519 146.289 80.5837 146.146M88.8701 133.251C86.2175 137.616 83.1375 141.704 80.5837 146.146M88.8701 133.251C104.84 132.92 120.854 133.053 136.846 133.186M80.5837 146.146C96.3235 146.235 112.074 146.235 127.825 146.168M136.846 133.186C133.668 137.395 130.785 141.803 127.825 146.168M136.846 133.186C145.943 132.975 155.052 133.075 164.149 133.131C167.91 132.942 170.869 136.368 170.846 140.014C170.792 150.444 172.371 161.846 166.495 171.127C162.439 177.005 156.236 181.723 149.046 182.629M127.825 146.168C138.008 146.278 148.191 146.091 158.373 146.235C159.371 150.852 159.151 155.747 158.045 160.332C156.379 165.271 151.983 169.481 146.667 169.845C140.178 170.221 133.657 169.647 127.167 170.121M149.046 182.629C132.221 182.099 115.384 182.331 98.5595 181.834C100.369 178.243 102.494 174 106.66 172.851C113.324 170.917 120.361 171.26 127.167 170.121M104.873 63.821C108.754 60.3406 114.288 60.2301 119.199 60.0754C124.362 60.1196 129.963 59.8987 134.544 62.7162C138.545 65.2905 139.739 70.4061 139.761 74.9029C139.828 85.9628 139.739 97.0228 139.817 108.082C139.707 110.226 140.134 112.69 138.633 114.458C134.555 114.922 130.248 115.043 126.971 112.204C119.44 117.021 108.239 116.645 101.705 110.204C99.4036 105.376 99.8201 99.9175 99.9407 94.7246C99.9736 90.3492 102.516 85.9187 106.671 84.3166C112.787 81.7863 119.56 83.0901 125.984 82.5487L127.014 82.4382C126.959 78.8142 128.121 73.9086 124.909 71.3452C121.742 70.4724 117.15 69.7653 114.804 72.6601C114.497 73.7429 114.245 74.8366 114.036 75.9526C111.198 80.2064 105.125 78.4938 101.036 77.3006C100.784 72.5938 101.256 67.2461 104.873 63.821ZM112.952 97.0559C112.765 99.7629 112.447 103.928 115.987 104.481C119.297 104.746 123.627 105.696 126.148 102.9C127.365 99.7297 127.321 96.183 126.741 92.8684C123.178 92.6806 119.583 92.559 116.053 93.012C114.157 93.2993 112.765 95.1223 112.952 97.0559Z" stroke="url(#paint14_linear)" stroke-width="4"/>
<defs>
<linearGradient id="paint0_linear" x1="90" y1="183" x2="90" y2="9" gradientUnits="userSpaceOnUse">
<stop stop-color="#5570FF"/>
<stop offset="1" stop-color="#4DD3FF"/>
</linearGradient>
<linearGradient id="paint1_linear" x1="90" y1="183" x2="90" y2="9" gradientUnits="userSpaceOnUse">
<stop stop-color="#5570FF"/>
<stop offset="1" stop-color="#4DD3FF"/>
</linearGradient>
<linearGradient id="paint2_linear" x1="90" y1="183" x2="90" y2="9" gradientUnits="userSpaceOnUse">
<stop stop-color="#5570FF"/>
<stop offset="1" stop-color="#4DD3FF"/>
</linearGradient>
<linearGradient id="paint3_linear" x1="90" y1="183" x2="90" y2="9" gradientUnits="userSpaceOnUse">
<stop stop-color="#5570FF"/>
<stop offset="1" stop-color="#4DD3FF"/>
</linearGradient>
<linearGradient id="paint4_linear" x1="90" y1="183" x2="90" y2="9" gradientUnits="userSpaceOnUse">
<stop stop-color="#5570FF"/>
<stop offset="1" stop-color="#4DD3FF"/>
</linearGradient>
<linearGradient id="paint5_linear" x1="90" y1="183" x2="90" y2="9" gradientUnits="userSpaceOnUse">
<stop stop-color="#5570FF"/>
<stop offset="1" stop-color="#4DD3FF"/>
</linearGradient>
<linearGradient id="paint6_linear" x1="90" y1="183" x2="90" y2="9" gradientUnits="userSpaceOnUse">
<stop stop-color="#5570FF"/>
<stop offset="1" stop-color="#4DD3FF"/>
</linearGradient>
<linearGradient id="paint7_linear" x1="90" y1="183" x2="90" y2="9" gradientUnits="userSpaceOnUse">
<stop stop-color="#5570FF"/>
<stop offset="1" stop-color="#4DD3FF"/>
</linearGradient>
<linearGradient id="paint8_linear" x1="90" y1="183" x2="90" y2="9" gradientUnits="userSpaceOnUse">
<stop stop-color="#5570FF"/>
<stop offset="1" stop-color="#4DD3FF"/>
</linearGradient>
<linearGradient id="paint9_linear" x1="90" y1="183" x2="90" y2="9" gradientUnits="userSpaceOnUse">
<stop stop-color="#5570FF"/>
<stop offset="1" stop-color="#4DD3FF"/>
</linearGradient>
<linearGradient id="paint10_linear" x1="90" y1="183" x2="90" y2="9" gradientUnits="userSpaceOnUse">
<stop stop-color="#5570FF"/>
<stop offset="1" stop-color="#4DD3FF"/>
</linearGradient>
<linearGradient id="paint11_linear" x1="90" y1="183" x2="90" y2="9" gradientUnits="userSpaceOnUse">
<stop stop-color="#5570FF"/>
<stop offset="1" stop-color="#4DD3FF"/>
</linearGradient>
<linearGradient id="paint12_linear" x1="90" y1="183" x2="90" y2="9" gradientUnits="userSpaceOnUse">
<stop stop-color="#5570FF"/>
<stop offset="1" stop-color="#4DD3FF"/>
</linearGradient>
<linearGradient id="paint13_linear" x1="90" y1="183" x2="90" y2="9" gradientUnits="userSpaceOnUse">
<stop stop-color="#5570FF"/>
<stop offset="1" stop-color="#4DD3FF"/>
</linearGradient>
<linearGradient id="paint14_linear" x1="90" y1="183" x2="90" y2="9" gradientUnits="userSpaceOnUse">
<stop stop-color="#5570FF"/>
<stop offset="1" stop-color="#4DD3FF"/>
</linearGradient>
</defs>
</svg>
