<svg width="64" height="64" viewBox="0 0 64 64" fill="none" xmlns="http://www.w3.org/2000/svg">
<path d="M48.01 3.64337C50.34 2.78004 53.0133 2.71337 55.3233 3.6867C58.0733 4.86337 59.9833 7.70337 60.1067 10.6834C60.2967 13.76 58.5967 16.7667 56.0267 18.4067C52.87 20.5267 48.7933 20.1034 45.48 21.8367C44.7133 22.1534 44.9233 23 44.9067 23.66C45 25.4367 43.4167 27.0267 41.67 27.1067C39.6233 27.32 37.7367 25.36 37.96 23.33C38.0333 21.4 39.9233 19.8234 41.8367 20.0767C44.08 17.6434 47.5433 17.1867 50.6033 16.4734C52.8433 16.1267 55.2567 14.9934 56.0933 12.7334C56.9533 10.69 55.9967 8.13003 53.99 7.18337C51.9433 6.28337 49.44 6.73003 47.6767 8.05003C46.8533 8.5967 46.77 9.65004 46.4333 10.4934C45.4133 10.4734 44.34 10.7167 43.3633 10.3667C42.8267 9.82337 43.09 9.00337 43.2033 8.35003C43.8033 6.04337 45.85 4.4267 48.01 3.64337Z" fill="url(#paint0_linear)"/>
<path d="M29.9233 13.2367C30.2067 12.96 30.5233 12.63 30.9633 12.6867C34.2 12.6434 37.4367 12.6934 40.6767 12.66C41.55 12.63 42.62 12.6434 43.1433 13.4867C44.0333 14.6134 43.0733 16.4267 41.6733 16.4067C38.4967 16.45 35.32 16.3934 32.1433 16.4334C23.9533 24.6967 15.6967 32.9 7.48333 41.1467C6.95333 41.5534 7.00333 42.4 7.52666 42.79C12.04 47.31 16.55 51.84 21.09 56.3334C21.5833 56.89 22.3733 56.6067 22.77 56.0834C30.87 47.85 38.9867 39.6367 47.0767 31.39C47.0833 29.6934 47.0433 27.9934 47.0833 26.2967C47.05 25.3967 47.7533 24.5567 48.64 24.43C49.7433 24.22 50.86 25.21 50.7833 26.33C50.8233 28.5767 50.77 30.82 50.8033 33.0667C42.7733 41.2867 34.5967 49.3667 26.53 57.5567C25.52 58.53 24.6133 59.7334 23.2267 60.1767C21.5433 60.79 19.56 60.28 18.34 58.9833C13.8 54.4134 9.25 49.8534 4.72333 45.27C2.89333 43.4867 2.95333 40.2567 4.81666 38.52C13.18 30.0867 21.5633 21.6734 29.9233 13.2367Z" fill="url(#paint1_linear)"/>
<defs>
<linearGradient id="paint0_linear" x1="49.0315" y1="27.1227" x2="49.0315" y2="2.97626" gradientUnits="userSpaceOnUse">
<stop stop-color="#FD2E00"/>
<stop offset="1" stop-color="#FF9900"/>
</linearGradient>
<linearGradient id="paint1_linear" x1="27.0939" y1="60.4352" x2="27.0939" y2="12.6521" gradientUnits="userSpaceOnUse">
<stop stop-color="#FD2E00"/>
<stop offset="1" stop-color="#FF9900"/>
</linearGradient>
</defs>
</svg>
