<svg viewBox="0 0 48 48" xmlns="http://www.w3.org/2000/svg" xmlns:xlink="http://www.w3.org/1999/xlink"><linearGradient id="a" gradientUnits="userSpaceOnUse" x1="15.47081152" x2="36.78266562" y1="10.89535266" y2="39.25401314"><stop offset="0" stop-color="#ff0004"/><stop offset="1" stop-color="#8d1cff"/></linearGradient><path d="m25.421 41.496c-.586-.654-.456-2.49-.456-8.448v-6.484c-2.765.349-4.148.726-5.88 1.355-.716.885-1.033 1.02-1.674.391-.524-.551-.844-1.703-2.226-6.372-.389-1.31-1.018-3.068-1.4-3.907-.833-1.833-.774-2.25.294-2.052.403.075 1.122.295 1.597.573.595.333.994.333 1.822.264 2.417-.516 4.702-.97 7.467-1.59v-3.062c0-3.574-.362-3.37-.882-4.379-1.01-1.96-.384-2.495 1.644-1.403 1.619.87 2.433 1.818 2.266 2.639-.07.339-.263 1.647-.263 3.144v2.578a63.642 63.642 0 0 1 8.004-1.451c1.016 0 3.748 2.093 3.748 2.864 0 .215-.227.689-.504 1.055-.466.617-1.483 2.855-2.477 5.065-.231.512-.419 1.294-.419 1.736 0 .629-.073 1.171-.339 1.171-1.833 0-7.436.939-8.013 1.05 0 9.984 0 14.158-1.207 15.333-.315.288-.787.282-1.102-.07zm-.456-17.698v-6.36s-5.082.9-6.954 1.383c-1.032.265-.863.829.367 5.354.205.75.489.984.945.867 1.496-.384 2.878-.75 5.643-1.244m8.71-1.383c.448-.213.394-.196 1.037-3.133.519-2.367.739-3.206.484-3.365-.156-.31-4.7.32-7.466.968v6.498c2.765-.494 4.615-.716 5.945-.968z" fill-opacity=".098"/><path d="m23.824 41.534c-.586-.654-.456-2.49-.456-8.447v-6.484c-2.765.348-4.148.725-5.88 1.354-.716.885-1.033 1.02-1.674.392-.524-.552-.844-1.704-2.226-6.372-.389-1.31-1.018-3.068-1.4-3.908-.833-1.833-.774-2.249.294-2.051.404.074 1.122.294 1.597.572.596.333.994.333 1.822.264 2.417-.515 4.702-.969 7.467-1.59v-3.062c0-3.574-.362-3.37-.882-4.379-1.01-1.96-.384-2.495 1.644-1.403 1.619.871 2.433 1.818 2.266 2.64-.07.338-.263 1.646-.263 3.143v2.579a63.641 63.641 0 0 1 8.004-1.452c1.016 0 3.748 2.093 3.748 2.865 0 .214-.227.688-.504 1.055-.465.616-1.483 2.855-2.477 5.064-.231.513-.419 1.294-.419 1.736 0 .63-.073 1.171-.339 1.171-1.833 0-7.436.94-8.013 1.051 0 9.983 0 14.157-1.207 15.333-.315.287-.787.282-1.102-.071m-.456-17.698v-6.36s-5.082.9-6.954 1.383c-1.032.265-.863.83.368 5.355.204.749.488.984.944.866 1.496-.384 2.878-.75 5.643-1.244m8.71-1.382c.448-.213.394-.197 1.037-3.133.519-2.369.739-3.206.484-3.365-.156-.31-4.7.32-7.466.967v6.498c2.766-.493 4.615-.716 5.945-.967z" fill="url(#a)"/></svg>