<svg width="16" height="16" viewBox="0 0 16 16" fill="none" xmlns="http://www.w3.org/2000/svg">
<g clip-path="url(#clip0)">
<path fill-rule="evenodd" clip-rule="evenodd" d="M2.5 1.75C2.5 1.6837 2.52634 1.62011 2.57322 1.57322C2.62011 1.52634 2.6837 1.5 2.75 1.5H11.25C11.3163 1.5 11.3799 1.52634 11.4268 1.57322C11.4737 1.62011 11.5 1.6837 11.5 1.75V9.486C11.5 9.68491 11.579 9.87568 11.7197 10.0163C11.8603 10.157 12.0511 10.236 12.25 10.236C12.4489 10.236 12.6397 10.157 12.7803 10.0163C12.921 9.87568 13 9.68491 13 9.486V1.75C13 1.28587 12.8156 0.840752 12.4874 0.512563C12.1592 0.184374 11.7141 0 11.25 0H2.75C2.28587 0 1.84075 0.184374 1.51256 0.512563C1.18437 0.840752 1 1.28587 1 1.75V13.25C1 14.216 1.784 15 2.75 15H5.92C6.11891 15 6.30968 14.921 6.45033 14.7803C6.59098 14.6397 6.67 14.4489 6.67 14.25C6.67 14.0511 6.59098 13.8603 6.45033 13.7197C6.30968 13.579 6.11891 13.5 5.92 13.5H2.75C2.6837 13.5 2.62011 13.4737 2.57322 13.4268C2.52634 13.3799 2.5 13.3163 2.5 13.25V1.75Z" fill="url(#paint0_linear)"/>
<path d="M4.21967 4.21967C4.36032 4.07902 4.55109 4 4.75 4H9.25C9.44891 4 9.63968 4.07902 9.78033 4.21967C9.92098 4.36032 10 4.55109 10 4.75C10 4.94891 9.92098 5.13968 9.78033 5.28033C9.63968 5.42098 9.44891 5.5 9.25 5.5H4.75C4.55109 5.5 4.36032 5.42098 4.21967 5.28033C4.07902 5.13968 4 4.94891 4 4.75C4 4.55109 4.07902 4.36032 4.21967 4.21967Z" fill="url(#paint1_linear)"/>
<path d="M4.21967 7.21967C4.07902 7.36032 4 7.55109 4 7.75C4 7.94891 4.07902 8.13968 4.21967 8.28033C4.36032 8.42098 4.55109 8.5 4.75 8.5H6.75C6.94891 8.5 7.13968 8.42098 7.28033 8.28033C7.42098 8.13968 7.5 7.94891 7.5 7.75C7.5 7.55109 7.42098 7.36032 7.28033 7.21967C7.13968 7.07902 6.94891 7 6.75 7H4.75C4.55109 7 4.36032 7.07902 4.21967 7.21967Z" fill="url(#paint2_linear)"/>
<path d="M15.9396 11.0454C15.9008 11.136 15.8446 11.218 15.774 11.2868L11.217 15.7358C11.0756 15.8737 10.8854 15.9502 10.6879 15.9487C10.4904 15.9472 10.3014 15.8678 10.162 15.7278L8.21903 13.7778C8.08681 13.6354 8.01503 13.4472 8.01882 13.2529C8.02261 13.0586 8.10167 12.8734 8.23935 12.7362C8.37702 12.599 8.56257 12.5207 8.75688 12.5176C8.95119 12.5146 9.13911 12.587 9.28103 12.7198L10.7 14.1448L14.726 10.2128C14.7965 10.144 14.8799 10.0897 14.9714 10.0532C15.0629 10.0166 15.1607 9.99836 15.2592 9.99957C15.3577 10.0008 15.4551 10.0214 15.5456 10.0602C15.6362 10.099 15.7182 10.1553 15.787 10.2258C15.8558 10.2963 15.9101 10.3797 15.9467 10.4712C15.9833 10.5627 16.0015 10.6605 16.0003 10.759C15.9991 10.8575 15.9785 10.9548 15.9396 11.0454Z" fill="url(#paint3_linear)"/>
</g>
<defs>
<linearGradient id="paint0_linear" x1="7" y1="15" x2="7" y2="0" gradientUnits="userSpaceOnUse">
<stop stop-color="#FD5900"/>
<stop offset="1" stop-color="#FFDE00"/>
</linearGradient>
<linearGradient id="paint1_linear" x1="4" y1="6.5" x2="10" y2="6.5" gradientUnits="userSpaceOnUse">
<stop stop-color="#00B59C"/>
<stop offset="1" stop-color="#9CFFAC"/>
</linearGradient>
<linearGradient id="paint2_linear" x1="4" y1="6.5" x2="10" y2="6.5" gradientUnits="userSpaceOnUse">
<stop stop-color="#00B59C"/>
<stop offset="1" stop-color="#9CFFAC"/>
</linearGradient>
<linearGradient id="paint3_linear" x1="8.01985" y1="12.886" x2="16.0017" y2="12.886" gradientUnits="userSpaceOnUse">
<stop stop-color="#A93AFF"/>
<stop offset="1" stop-color="#FF81FF"/>
</linearGradient>
<clipPath id="clip0">
<rect width="16" height="16" fill="white"/>
</clipPath>
</defs>
</svg>
