<svg width="192" height="192" viewBox="0 0 192 192" fill="none" xmlns="http://www.w3.org/2000/svg">
<path d="M91.2732 9.29147C97.3921 7.40018 104.312 7.43356 110.097 10.4151C116.961 13.8528 121.856 20.5613 123.603 27.9819C124.949 37.7832 120.599 48.2854 111.933 53.3474C104.123 58.376 93.8988 57.7196 85.9665 53.3363C82.2396 50.7441 79.1245 47.2841 77.0552 43.2345C76.6992 42.6115 75.9983 41.3544 75.6534 40.7202C73.1169 41.5101 70.5803 42.3 68.0994 43.2345C68.0215 37.8166 72.8387 34.4456 75.4977 30.2625C79.6696 23.9768 84.5629 18.02 87.5 11C89 10 90.0717 9.76985 91.2732 9.29147ZM89.8937 25.8013C87.4462 28.9498 88.3918 33.0772 88.9814 36.8042C91.1175 43.7908 101.052 46.027 106.326 41.1541C111.577 37.2269 111.922 28.7495 107.071 24.3662C102.476 19.4266 93.6207 20.2164 89.8937 25.8013Z" fill="url(#paint0_linear)"/>
<path d="M74.4741 27.0028C77.6226 21.0063 80.5 13.5 87.5 11C84.5629 18.02 79.6696 23.9768 75.4977 30.2625C72.8387 34.4456 68.0215 37.8166 68.0994 43.2345C62.0028 46.4052 55.9506 49.8652 51.011 54.7047C40.4643 64.773 33.7892 78.6128 31.6086 92.9754C31.0079 96.0571 31.197 99.4281 29.6617 102.254C27.8817 105.169 24.1547 104.824 21.2177 104.98C19.1039 102.91 17.2348 100.318 17.8467 97.1585C19.2819 77.3556 28.1932 57.8865 42.8117 44.3471C51.7119 35.9475 63.0597 30.93 74.4741 27.0028Z" fill="url(#paint1_linear)"/>
<path d="M89.8937 25.8013C93.6207 20.2164 102.476 19.4266 107.071 24.3662C102.545 19.5 96.8382 19.5384 93 22.8204C87 27.5 88.0581 32.5766 88.9814 36.8042C88.3918 33.0772 87.4462 28.9498 89.8937 25.8013Z" fill="url(#paint2_linear)"/>
<path d="M136.086 48.9084C132.67 45.0257 135.974 37.9501 141.27 38.4841C146.377 39.1071 149.859 43.6239 153.686 46.65C150.771 49.8986 144.307 52.8022 146.788 58.0645C143.406 54.8048 139.434 52.2015 136.086 48.9084Z" fill="url(#paint3_linear)"/>
<path d="M146.788 58.0645C144.307 52.8022 150.771 49.8986 153.686 46.65C166.168 57.7196 175.369 72.8833 178.184 89.4154C173.01 89.8604 170.262 94.8111 166.38 97.5924C164.755 82.5845 157.246 68.767 146.788 58.0645Z" fill="url(#paint4_linear)"/>
<path d="M166.38 97.5924C170.262 94.8111 173.01 89.8604 178.184 89.4154L178.695 89.3041C178.973 95.245 179.897 101.186 179.418 107.149C179.207 113.379 177.561 119.42 176.771 125.572C177.193 126.073 178.039 127.052 178.473 127.542C181.31 130.823 182.923 134.973 183.835 139.179C185.026 149.514 179.697 160.428 170.173 164.956C162.541 168.994 153.252 167.692 145.909 163.654C139.056 159.07 134.606 151.038 134.795 142.75C134.717 132.793 141.437 123.303 150.793 119.943C155.143 118.118 159.938 118.497 164.555 118.541C166.079 111.655 166.658 104.624 166.38 97.5924ZM156 132.5C148.435 133.257 145.642 144.752 150.593 150.081C155.288 156.567 166.424 155.021 169.628 147.834C173.422 140.792 167.125 130.868 159.059 131.947C156.745 132.257 158 132 156 132.5Z" fill="url(#paint5_linear)"/>
<path d="M8.89091 129.622C11.1938 120.366 19.4265 112.979 28.8496 111.555C34.3899 110.72 40.1194 111.966 45.0145 114.647C42.5892 118.207 40.0527 121.679 37.505 125.161C32.7212 123.948 27.0028 124.604 23.8432 128.788C20.1274 133.093 20.9507 139.601 24.3439 143.829C21.6515 147.289 18.9815 150.76 16.2781 154.209C9.69192 148.157 6.25423 138.344 8.89091 129.622Z" fill="url(#paint6_linear)"/>
<path d="M45.0145 114.647C54.3597 119.732 59.1658 131.346 56.6738 141.604C55.7615 145.798 53.2806 149.38 50.8553 152.829C54.6712 157.046 59.3327 160.316 63.983 163.532C60.8569 166.691 57.1744 169.995 57.6639 174.902C55.183 173.411 52.7354 171.842 50.3435 170.229C46.2161 167.181 42.6671 163.443 38.9179 159.972C30.9856 161.028 22.3302 159.883 16.2781 154.209C18.9815 150.76 21.6515 147.289 24.3439 143.829C27.4144 146.232 31.4084 147.923 35.3356 146.899C41.3766 145.576 45.3594 138.745 43.5682 132.826C42.8117 129.455 40.0416 127.23 37.505 125.161C40.0527 121.679 42.5892 118.207 45.0145 114.647Z" fill="url(#paint7_linear)"/>
<path d="M63.983 163.532C81.6054 173.967 103.9 173.867 122.569 166.302C126.863 164.032 131.825 167.114 132.759 171.609C132.069 173.778 131.569 176.426 129.31 177.549C125.517 179.73 121.256 180.909 117.073 182.066C97.3365 187.273 75.3642 185.493 57.6639 174.902C57.1744 169.995 60.8569 166.691 63.983 163.532Z" fill="url(#paint8_linear)"/>
<defs>
<linearGradient id="paint0_linear" x1="8" y1="184.888" x2="220.707" y2="92.644" gradientUnits="userSpaceOnUse">
<stop stop-color="#0357D1"/>
<stop offset="1" stop-color="#27CDFC"/>
</linearGradient>
<linearGradient id="paint1_linear" x1="8" y1="184.888" x2="220.707" y2="92.644" gradientUnits="userSpaceOnUse">
<stop stop-color="#0357D1"/>
<stop offset="1" stop-color="#27CDFC"/>
</linearGradient>
<linearGradient id="paint2_linear" x1="8" y1="184.888" x2="220.707" y2="92.644" gradientUnits="userSpaceOnUse">
<stop stop-color="#0357D1"/>
<stop offset="1" stop-color="#27CDFC"/>
</linearGradient>
<linearGradient id="paint3_linear" x1="8" y1="184.888" x2="220.707" y2="92.644" gradientUnits="userSpaceOnUse">
<stop stop-color="#0357D1"/>
<stop offset="1" stop-color="#27CDFC"/>
</linearGradient>
<linearGradient id="paint4_linear" x1="8" y1="184.888" x2="220.707" y2="92.644" gradientUnits="userSpaceOnUse">
<stop stop-color="#0357D1"/>
<stop offset="1" stop-color="#27CDFC"/>
</linearGradient>
<linearGradient id="paint5_linear" x1="8" y1="184.888" x2="220.707" y2="92.644" gradientUnits="userSpaceOnUse">
<stop stop-color="#0357D1"/>
<stop offset="1" stop-color="#27CDFC"/>
</linearGradient>
<linearGradient id="paint6_linear" x1="8" y1="184.888" x2="220.707" y2="92.644" gradientUnits="userSpaceOnUse">
<stop stop-color="#0357D1"/>
<stop offset="1" stop-color="#27CDFC"/>
</linearGradient>
<linearGradient id="paint7_linear" x1="8" y1="184.888" x2="220.707" y2="92.644" gradientUnits="userSpaceOnUse">
<stop stop-color="#0357D1"/>
<stop offset="1" stop-color="#27CDFC"/>
</linearGradient>
<linearGradient id="paint8_linear" x1="8" y1="184.888" x2="220.707" y2="92.644" gradientUnits="userSpaceOnUse">
<stop stop-color="#0357D1"/>
<stop offset="1" stop-color="#27CDFC"/>
</linearGradient>
</defs>
</svg>
