<svg width="64" height="64" viewBox="0 0 64 64" fill="none" xmlns="http://www.w3.org/2000/svg">
<path d="M27.714 3.29953C36.2999 2.02617 45.4133 4.85921 51.6559 10.9133C52.8614 12.0171 52.1042 14.3077 50.4804 14.4885C49.4934 14.7183 48.7022 14.0289 48.0354 13.4186C43.5861 9.43652 37.6185 7.22886 31.6509 7.30797C25.6457 7.31174 19.6932 9.66256 15.2815 13.735C14.528 14.5676 13.1642 14.8238 12.2525 14.0967C11.2617 13.3771 11.1072 11.7534 12.0227 10.9133C16.2837 6.81445 21.867 4.13588 27.714 3.29953Z" fill="url(#paint0_linear)"/>
<path d="M18.9397 16.2517C19.1958 15.3249 20.1528 14.7297 21.0909 14.7787C28.1321 14.7598 35.1734 14.7749 42.2109 14.7749C43.3223 14.677 44.4789 15.4417 44.6334 16.587C44.867 17.8227 43.8121 19.0998 42.55 19.0508C39.7847 19.1375 37.0157 18.9906 34.2542 19.1149C33.674 19.4577 33.8285 20.1584 33.7983 20.7235C33.8172 27.4106 33.7983 34.0976 33.8096 40.7846C35.1885 40.8223 36.5787 40.6904 37.95 40.8599C38.5453 41.2404 37.9575 41.8922 37.7616 42.3217C35.9495 45.4033 34.1864 48.5152 32.3705 51.5931C32.0992 52.2561 31.2327 52.2863 30.9615 51.6081C29.1833 48.4511 27.454 45.2677 25.6909 42.1069C25.4724 41.7415 25.1295 41.0822 25.6946 40.8373C26.968 40.7168 28.2452 40.8072 29.5223 40.7846C29.5336 34.0976 29.5148 27.4143 29.5336 20.7273C29.4959 20.1622 29.6768 19.4389 29.0627 19.1111C26.3087 18.9868 23.5434 19.1601 20.7857 19.0395C19.4784 18.9793 18.4574 17.4874 18.9397 16.2517Z" fill="url(#paint1_linear)"/>
<path d="M5.13595 22.1211C6.52236 21.0775 8.7715 22.3584 8.46257 24.0952C8.067 25.8696 7.53202 27.6176 7.4077 29.441C6.81245 35.3896 8.46257 41.5417 12.0303 46.3488C15.7713 51.4799 21.5656 55.0664 27.8459 56.0685C33.9114 57.0857 40.3537 55.7332 45.451 52.2786C50.7517 48.7674 54.5719 43.1202 55.8566 36.8928C56.7532 32.7902 56.4744 28.4879 55.2915 24.4719C54.8582 23.2061 55.9131 21.7406 57.2543 21.7594C58.2753 21.6728 59.2209 22.4488 59.4432 23.4321C61.4813 30.0702 61.0029 37.4428 58.1246 43.7569C55.4685 49.6301 50.7856 54.5503 45.0516 57.4926C40.2633 59.9715 34.7591 61.0489 29.3868 60.5705C22.0479 60.0016 15.0367 56.4 10.1993 50.8696C4.07731 44.0244 1.61342 34.1615 3.76461 25.2367C4.09238 24.1667 4.14512 22.8256 5.13595 22.1211Z" fill="url(#paint2_linear)"/>
<defs>
<linearGradient id="paint0_linear" x1="31.8317" y1="14.5338" x2="31.8317" y2="3" gradientUnits="userSpaceOnUse">
<stop stop-color="#5570FF"/>
<stop offset="1" stop-color="#4DD3FF"/>
</linearGradient>
<linearGradient id="paint1_linear" x1="31.742" y1="52.1037" x2="31.742" y2="14.7665" gradientUnits="userSpaceOnUse">
<stop stop-color="#5570FF"/>
<stop offset="1" stop-color="#4DD3FF"/>
</linearGradient>
<linearGradient id="paint2_linear" x1="31.8445" y1="60.6814" x2="31.8445" y2="21.7451" gradientUnits="userSpaceOnUse">
<stop stop-color="#A93AFF"/>
<stop offset="1" stop-color="#FF81FF"/>
</linearGradient>
</defs>
</svg>
