<svg width="192" height="192" viewBox="0 0 192 192" fill="none" xmlns="http://www.w3.org/2000/svg">
<path d="M82.5515 6.14056C79.7229 4.15663 75.4745 4.90589 73.2164 7.2697C59.4582 19.817 45.7697 32.438 32 44.9748C34.9215 44.9958 37.8315 45.0065 40.7531 44.9958C44.3731 44.9853 48.0047 44.9642 51.6246 44.9536C60.401 36.8596 69.2821 28.8606 78.0817 20.7878C78.396 21.1149 79.0245 21.7692 79.3272 22.0964C81.5388 24.3652 83.599 26.7501 85.6127 29.1667C87.2772 30.9184 88.8602 32.723 90.4665 34.517C93.6441 37.9571 96.752 41.4501 99.883 44.922C105.866 44.9748 111.837 44.9536 117.809 44.922C114.98 41.8195 112.163 38.717 109.3 35.6462C108.38 34.6436 107.472 33.6305 106.553 32.6174C113.001 28.5335 119.496 24.5024 125.956 20.4184C127.132 22.2019 128.319 23.9748 129.483 25.7581C129.728 26.138 130.205 26.8979 130.437 27.2777C134.185 33.1873 138.096 39.0124 141.856 44.922C145.406 44.9643 148.968 45.0065 152.529 44.9853C154.345 44.9642 156.172 44.9326 158 44.9114C151.854 35.2451 145.569 25.6632 139.424 16.0074C137.479 13.1159 135.839 10.0556 133.627 7.32247C131.229 4.63151 126.573 4.53653 123.663 6.57322C115.097 11.9657 106.354 17.126 97.9392 22.6873C94.3542 18.825 90.804 14.931 87.3121 11.0159C85.7757 9.3486 84.3555 7.57573 82.5515 6.14056Z" fill="url(#paint0_linear)" stroke="url(#paint1_linear)" stroke-width="4"/>
<path d="M55.0265 45.2409C51.675 45.2516 48.3127 45.2728 44.9611 45.2834C42.2562 45.2941 39.562 45.2834 36.8571 45.2622C30.2833 45.4641 23.2785 44.1568 17.1358 47.1222C9.53826 50.5021 4.60255 58.6436 5.04439 66.8383C5.20604 100.319 4.72109 133.82 5.2707 167.3C5.89575 172.785 9.16109 177.653 13.4071 181.128C13.7412 181.309 14.4093 181.691 14.7434 181.872C21.759 186.336 30.3264 184.838 38.1934 185.071C46.7716 185.061 55.3498 185.082 63.9388 185.071H89.8135C99.103 185.071 108.392 185.082 117.682 185.061C133.254 185.018 148.826 185.167 164.399 184.997C174.766 184.806 184.023 175.888 184.336 165.642C184.476 156.342 184.389 147.031 184.357 137.731C183.657 135.329 181.62 133.703 179.314 132.885C165.961 132.885 152.609 132.938 139.268 132.874C133.75 132.024 128.588 128.995 125.646 124.254C125.139 123.393 124.665 122.522 124.213 121.629C120.958 113.679 124.428 103.815 132.069 99.6915C137.856 96.1415 144.882 97.7039 151.284 97.1406C154.118 96.9174 155.896 94.4197 156.78 91.9857C157.06 88.4464 154.258 84.7901 150.486 84.907C143.934 84.8433 137.123 84.3225 130.873 86.6927C120.452 90.2745 112.229 99.6065 110.515 110.416C109.147 117.962 111.044 125.88 115.29 132.247C116.852 134.235 118.458 136.212 120.344 137.923C125.15 141.792 130.873 144.64 137.091 145.363C147.954 145.915 158.849 145.458 169.733 145.607L170.973 145.66L171.522 145.682C171.393 152.303 171.684 158.946 171.393 165.568C171.069 169.554 167.298 172.721 163.289 172.615C150.842 172.7 138.395 172.615 125.948 172.657C116.637 172.636 107.315 172.646 97.993 172.657C89.3825 172.636 80.7719 172.646 72.1614 172.657C63.831 172.636 55.5007 172.647 47.1703 172.647C40.2409 172.604 33.3223 172.71 26.4037 172.625C24.41 172.7 22.6104 171.807 20.8538 170.999C20.0024 169.798 19.0325 168.65 18.4075 167.311C17.9548 165.387 17.8255 163.41 17.8363 161.444C17.8902 143.662 17.8471 125.88 17.8578 108.099C17.9872 93.7394 17.5992 79.3695 18.0518 65.0208V65.0102C18.5152 61.5878 21.3387 58.5799 24.8842 58.2079C28.5698 57.8784 32.2878 58.1335 35.9842 58.0803C45.2737 58.0591 54.5739 58.091 63.8741 58.0697C71.7411 58.0697 79.5973 58.091 87.4642 58.0697C95.7191 58.0697 103.963 58.091 112.218 58.0697C121.271 58.0697 130.334 58.0803 139.397 58.0697C146.693 58.0591 153.978 58.1016 161.274 58.0484C163.407 57.9847 165.52 58.346 167.535 59.0156C169.572 60.7906 171.554 63.0226 171.468 65.8924C171.576 74.8417 171.447 83.8017 171.511 92.7616C171.522 100.435 171.457 108.109 171.522 115.783C171.436 117.558 172.276 119.184 173.3 120.587C176.964 123.872 183.829 122.065 184.271 116.899C184.573 103.603 184.314 90.2851 184.379 76.9887C184.346 71.6744 184.67 66.3388 183.98 61.0563C182.611 55.9015 179.271 51.4162 174.852 48.387C168.483 44.295 160.713 45.2197 153.514 45.1984C151.822 45.2197 150.13 45.2515 148.449 45.2728C145.152 45.2941 141.854 45.2515 138.567 45.209C132.511 45.1559 126.454 45.1771 120.398 45.1878C119.029 45.1984 117.671 45.1984 116.303 45.209C110.774 45.2409 105.246 45.2622 99.7065 45.209C98.3594 45.209 97.0016 45.1984 95.6437 45.1984C87.7768 45.1771 79.9206 45.1453 72.0536 45.209C67.6783 45.2197 63.303 45.209 58.9277 45.2303C57.947 45.2303 55.9964 45.2409 55.0265 45.2409Z" fill="url(#paint2_linear)" stroke="url(#paint3_linear)" stroke-width="4"/>
<path d="M139.828 107.238C145.777 104.974 152.62 110.798 151.154 116.931C150.389 123.351 141.434 126.306 136.811 121.799C131.81 117.803 133.664 109.002 139.828 107.238Z" fill="url(#paint4_linear)"/>
<defs>
<linearGradient id="paint0_linear" x1="95" y1="45" x2="95" y2="5" gradientUnits="userSpaceOnUse">
<stop stop-color="#00B59C"/>
<stop offset="1" stop-color="#9CFFAC"/>
</linearGradient>
<linearGradient id="paint1_linear" x1="95" y1="45" x2="95" y2="5" gradientUnits="userSpaceOnUse">
<stop stop-color="#00B59C"/>
<stop offset="1" stop-color="#9CFFAC"/>
</linearGradient>
<linearGradient id="paint2_linear" x1="94.7133" y1="185.134" x2="94.7133" y2="45.123" gradientUnits="userSpaceOnUse">
<stop stop-color="#5570FF"/>
<stop offset="1" stop-color="#4DD3FF"/>
</linearGradient>
<linearGradient id="paint3_linear" x1="94.7133" y1="185.134" x2="94.7133" y2="45.123" gradientUnits="userSpaceOnUse">
<stop stop-color="#5570FF"/>
<stop offset="1" stop-color="#4DD3FF"/>
</linearGradient>
<linearGradient id="paint4_linear" x1="142.646" y1="123.967" x2="142.646" y2="106.739" gradientUnits="userSpaceOnUse">
<stop stop-color="#5570FF"/>
<stop offset="1" stop-color="#4DD3FF"/>
</linearGradient>
</defs>
</svg>
