<svg width="192" height="192" viewBox="0 0 192 192" fill="none" xmlns="http://www.w3.org/2000/svg">
<path opacity="0.23" d="M103.57 27.2913C105.64 22.7513 110.91 20.0513 115.8 21.0213C120.28 21.7313 123.68 25.4513 124.95 29.6713C122.02 27.1413 119.18 23.7313 114.99 23.5913C110.79 22.9413 106.99 25.1513 103.57 27.2913Z" fill="black"/>
<path opacity="0.23" d="M175.13 70.4114C175.42 71.7814 175.7 73.1614 175.73 74.5714C175.66 92.6014 175.62 110.651 175.73 128.681C175.71 130.071 175.43 131.431 175.13 132.781C174.94 115.311 175.18 97.8414 174.99 80.3814C175 77.0514 175.12 73.7314 175.13 70.4114Z" fill="#13071C"/>
<path fill-rule="evenodd" clip-rule="evenodd" d="M139.286 57.8002C137.767 57.8041 136.249 57.808 134.73 57.8114C134.809 57.8316 134.903 57.8556 135.005 57.8819C135.459 57.9984 136.087 58.1598 136.43 58.2414C140.41 59.4014 144.55 61.0514 147.09 64.5114C147.643 65.1466 148.083 65.873 148.521 66.5969C149.207 67.7306 149.889 68.8585 151 69.6213C153.24 69.9387 155.601 69.9298 157.945 69.9209C159.515 69.915 161.077 69.9091 162.59 70.0014C163.095 74.939 163.035 79.8956 162.975 84.8549C162.938 87.9507 162.9 91.0475 163 94.1414C164.24 93.6714 165.56 93.1614 166.27 91.9414C166.821 91.1474 167.364 90.3455 167.908 89.5429C170.074 86.3423 172.248 83.1317 174.99 80.3814C174.995 78.7149 175.028 77.0509 175.06 75.3882C175.093 73.7284 175.125 72.0699 175.13 70.4114C175.01 63.6114 168.76 57.8814 162.05 57.8114C154.467 57.7614 146.877 57.7808 139.286 57.8002ZM167.908 89.5429C167.364 90.3455 166.821 91.1474 166.27 91.9413C165.56 93.1613 164.24 93.6713 163 94.1413C162.943 102.273 162.962 110.405 162.982 118.537C162.993 123.245 163.004 127.953 163 132.661C163.06 140.381 157.04 147.231 149.53 148.641C148.561 150.613 147.611 152.59 146.662 154.566C145.661 156.648 144.661 158.729 143.64 160.801C154.15 162.131 164.65 156.831 170.6 148.231C173.42 143.601 175.31 138.261 175.13 132.781C175.035 124.046 175.048 115.311 175.06 106.577C175.073 97.8436 175.085 89.1112 174.99 80.3813C172.248 83.1317 170.074 86.3423 167.908 89.5429Z" fill="url(#paint0_linear)"/>
<path d="M91.1998 26.6414C93.4998 16.7914 102.89 9.15137 113.03 9.02137C121.45 8.64137 129.78 13.3614 133.91 20.6914C138.15 27.8414 137.84 37.1714 133.68 44.2914C129.32 50.7614 121.95 55.3714 114.02 55.2814C107.21 55.5014 100.78 52.2014 96.0998 47.4214C91.3998 41.7314 89.2998 33.8614 91.1998 26.6414ZM103.57 27.2914C101.72 30.9714 102.21 35.6314 104.68 38.9114C108.34 44.0514 116.42 44.9514 121.12 40.7214C124.44 38.1014 125.36 33.6914 124.95 29.6714C123.68 25.4514 120.28 21.7314 115.8 21.0214C110.91 20.0514 105.64 22.7514 103.57 27.2914Z" fill="url(#paint1_linear)"/>
<path d="M83.7698 57.7214C92.2498 57.8514 100.73 57.7614 109.21 57.7514C112.39 57.8314 115.58 57.8114 118.76 57.7314C124.08 57.8814 129.42 57.5814 134.73 57.8114C135.16 57.9214 136.01 58.1414 136.43 58.2414C133.94 62.1614 131.23 65.9414 128.86 69.9414C115.71 70.0214 102.57 70.1114 89.4198 69.8914C88.5298 65.4614 86.7198 61.1914 83.7698 57.7214Z" fill="url(#paint2_linear)"/>
<path d="M136.43 58.2414C140.41 59.4014 143.681 60.76 147 64.1213C149.588 66.743 152 68.6213 152 72.1213C151.747 80.9337 151.947 89 151.942 98C151.222 96.04 151.94 100.363 151.939 103.681C148 103.681 143.64 103.681 140.38 103.681C139.72 93.9514 140.15 84.6213 140 74.6213C140 73.1213 137.19 70.9614 135.19 70.5014C133.11 70.0414 130.98 69.9514 128.86 69.9414C131.23 65.9414 133.94 62.1614 136.43 58.2414Z" fill="url(#paint3_linear)"/>
<path d="M152 72.1213C151.967 76.5812 151.95 81.1614 151.95 85.6214C151.94 96.2914 151.94 106.951 151.93 117.621C151.79 127.991 152.8 138.611 149.53 148.641C147.54 152.691 145.63 156.761 143.64 160.801C136.52 170.521 126.39 178.241 114.56 181.091C102.19 184.221 88.6698 182.711 77.3898 176.691C77.2198 171.841 80.6598 166.571 86.0598 167.411C99.1398 173.031 115.23 171.031 126.18 161.811C134.77 154.761 140.22 143.751 140 132.621C139.87 113.231 140.45 94.0013 140 74.6213C140.15 84.6213 139.72 93.9514 140.38 103.681C143.64 103.681 148 103.681 151.939 103.681C151.94 100.363 151.222 96.04 151.942 98C151.947 89 151.747 80.9337 152 72.1213Z" fill="url(#paint4_linear)"/>
<path d="M51.8398 139.621C55.8798 139.531 59.9198 139.471 63.9498 139.571C64.1298 140.181 64.4798 141.401 64.6598 142.001C67.3298 153.241 75.5298 162.771 86.0598 167.411C80.6598 166.571 77.2198 171.841 77.3898 176.691C67.5398 171.361 59.6898 162.641 55.1698 152.411C54.1098 149.911 53.3098 147.291 52.7398 144.631C52.3798 142.971 52.0998 141.291 51.8398 139.621Z" fill="url(#paint5_linear)"/>
<path d="M54.2518 81.9004C53.6996 81.9004 53.2518 82.3481 53.2518 82.9004V117.621C53.2518 118.726 52.3564 119.621 51.2518 119.621H43.8002C42.6957 119.621 41.8002 118.726 41.8002 117.621V82.9004C41.8002 82.3481 41.3525 81.9004 40.8002 81.9004H32C30.8954 81.9004 30 81.005 30 79.9004V73.6213C30 72.5168 30.8954 71.6213 32 71.6213H63C64.1046 71.6213 65 72.5168 65 73.6213V79.9004C65 81.005 64.1046 81.9004 63 81.9004H54.2518Z" fill="#A117FF"/>
<rect x="11" y="57.6213" width="75" height="77" rx="16" stroke="url(#paint6_linear)" stroke-width="12"/>
<defs>
<linearGradient id="paint0_linear" x1="154.936" y1="161.005" x2="154.936" y2="57.7797" gradientUnits="userSpaceOnUse">
<stop stop-color="#FD3AD2"/>
<stop offset="1" stop-color="#FFA6DB"/>
</linearGradient>
<linearGradient id="paint1_linear" x1="101.92" y1="182.68" x2="101.92" y2="9" gradientUnits="userSpaceOnUse">
<stop stop-color="#A93AFF"/>
<stop offset="1" stop-color="#FF81FF"/>
</linearGradient>
<linearGradient id="paint2_linear" x1="101.92" y1="182.68" x2="101.92" y2="9" gradientUnits="userSpaceOnUse">
<stop stop-color="#A93AFF"/>
<stop offset="1" stop-color="#FF81FF"/>
</linearGradient>
<linearGradient id="paint3_linear" x1="101.92" y1="182.68" x2="101.92" y2="9" gradientUnits="userSpaceOnUse">
<stop stop-color="#A93AFF"/>
<stop offset="1" stop-color="#FF81FF"/>
</linearGradient>
<linearGradient id="paint4_linear" x1="101.92" y1="182.68" x2="101.92" y2="9" gradientUnits="userSpaceOnUse">
<stop stop-color="#A93AFF"/>
<stop offset="1" stop-color="#FF81FF"/>
</linearGradient>
<linearGradient id="paint5_linear" x1="101.92" y1="182.68" x2="101.92" y2="9" gradientUnits="userSpaceOnUse">
<stop stop-color="#A93AFF"/>
<stop offset="1" stop-color="#FF81FF"/>
</linearGradient>
<linearGradient id="paint6_linear" x1="48.5" y1="128.621" x2="48.5" y2="63.6213" gradientUnits="userSpaceOnUse">
<stop stop-color="#A93AFF"/>
<stop offset="1" stop-color="#FF81FF"/>
</linearGradient>
</defs>
</svg>
