<svg width="128" height="128" viewBox="0 0 128 128" fill="none" xmlns="http://www.w3.org/2000/svg">
<path d="M86.5 90.25H101.5C103.573 90.25 105.25 88.5728 105.25 86.5V41.5C105.25 39.4272 103.573 37.75 101.5 37.75H86.5C84.4272 37.75 82.75 39.4272 82.75 41.5V86.5C82.75 88.5728 84.4272 90.25 86.5 90.25ZM90.25 45.25H97.75V82.75H90.25V45.25ZM124.25 7.75H67.75V3.75C67.75 1.67725 66.0728 0 64 0C61.9272 0 60.25 1.67725 60.25 3.75V7.75H3.75C1.67725 7.75 0 9.42725 0 11.5V26.5C0 28.5728 1.67725 30.25 3.75 30.25H7.5V101.75C7.5 103.823 9.17725 105.5 11.25 105.5H43.7985L38.7988 120.5H34C31.9272 120.5 30.25 122.177 30.25 124.25C30.25 126.323 31.9272 128 34 128H41.5C42.8787 128 44.4572 126.997 44.994 125.52C45.3515 124.537 51.5057 106.176 51.7045 105.5H60.25V124.25C60.25 126.323 61.9272 128 64 128C66.0728 128 67.75 126.323 67.75 124.25V105.5H76.2988C76.9845 107.547 73.8167 98.0835 83.006 125.52C83.54 126.989 85.1163 128 86.5 128H94C96.0728 128 97.75 126.323 97.75 124.25C97.75 122.177 96.0728 120.5 94 120.5H89.2012L84.2015 105.5H116.75C118.823 105.5 120.5 103.823 120.5 101.75V30.25H124.25C126.323 30.25 128 28.5728 128 26.5V11.5C128 9.42725 126.323 7.75 124.25 7.75ZM113 98H15V30.25H113V98ZM120.5 22.75H7.5V15.25H120.5V22.75ZM56.5 90.25H71.5C73.5728 90.25 75.25 88.5728 75.25 86.5V56.5C75.25 54.4272 73.5728 52.75 71.5 52.75H56.5C54.4272 52.75 52.75 54.4272 52.75 56.5V86.5C52.75 88.5728 54.4272 90.25 56.5 90.25ZM60.25 60.25H67.75V82.75H60.25V60.25ZM26.5 90.25H41.5C43.5728 90.25 45.25 88.5728 45.25 86.5V71.5C45.25 69.4272 43.5728 67.75 41.5 67.75H26.5C24.4272 67.75 22.75 69.4272 22.75 71.5V86.5C22.75 88.5728 24.4272 90.25 26.5 90.25ZM30.25 75.25H37.75V82.75H30.25V75.25Z" fill="url(#paint0_linear)"/>
<defs>
<linearGradient id="paint0_linear" x1="64" y1="128" x2="64" y2="0" gradientUnits="userSpaceOnUse">
<stop stop-color="#FF9900"/>
<stop offset="1" stop-color="#FFF500"/>
</linearGradient>
</defs>
</svg>
