<svg width="192" height="192" viewBox="0 0 192 192" fill="none" xmlns="http://www.w3.org/2000/svg">
<path d="M74.0001 9.4695C62.1301 9.9595 51.7301 20.1695 50.8601 31.9995C50.5916 37.1472 50.6526 42.3067 50.7137 47.4644C50.7322 49.0298 50.7508 50.5949 50.7601 52.1595C54.7501 52.1095 58.7301 52.1295 62.7101 52.2295C62.7784 49.8056 62.6846 47.3508 62.5905 44.8911C62.3819 39.4359 62.1724 33.9571 63.7301 28.7395C65.7101 24.7695 69.5401 21.6195 74.0601 21.2795C77.8221 20.9765 81.5962 21.0281 85.3696 21.0798C87.5741 21.1099 89.7785 21.1401 91.9801 21.0995C94.7901 17.2695 97.5201 13.3795 100.13 9.4095C97.4081 9.41263 94.6863 9.40111 91.9644 9.38958C85.9763 9.36423 79.9882 9.33888 74.0001 9.4695Z" fill="url(#paint0_linear)"/>
<path fill-rule="evenodd" clip-rule="evenodd" d="M70.8338 52.1888L70.8357 52.1887C76.4259 52.045 82.0221 51.9012 87.4599 53.2202C91.9899 55.0202 96.0199 58.2802 98.2199 62.6902C100.678 67.3582 100.533 72.6215 100.39 77.7853L100.388 77.8693C100.347 79.3363 100.307 80.7959 100.33 82.2302C100.434 87.4307 100.422 92.6345 100.41 97.8362V97.8387L100.41 97.9702V97.9726C100.397 103.217 100.385 108.461 100.49 113.7C100.63 119.42 100.74 125.57 97.6099 130.61C94.3999 136.06 88.3699 139.72 82.0299 139.93C77.534 140.09 73.0374 140.052 68.5415 140.014C66.5677 139.997 64.5938 139.98 62.6199 139.98C62.59 141.21 62.5701 142.44 62.5601 143.68C62.5997 145.64 62.5757 147.603 62.5517 149.565C62.5092 153.049 62.4666 156.533 62.7801 160C63.3101 164.87 67.0999 168.63 71.4199 170.5C74.9437 171.137 78.5212 171.098 82.0933 171.06H82.0946C83.3977 171.045 84.7011 171.031 85.9999 171.05C91.8157 171.05 97.6324 171.038 103.449 171.026H103.455C116.061 171 128.668 170.974 141.27 171.07C143.248 171.005 145.23 171.027 147.212 171.049C150.128 171.082 153.044 171.114 155.95 170.87C161.54 170.31 166.14 165.58 167.1 160.14C167.36 117.48 167.29 74.81 167.2 32.16C166.72 30.61 166.2 29.07 165.44 27.63C163.22 23.97 159.31 21.31 154.95 21.19C150.407 21.0189 145.86 21.0532 141.314 21.0875C138.155 21.1113 134.997 21.1351 131.84 21.09C123.867 21.108 115.897 21.1043 107.927 21.1007H107.926C102.611 21.0983 97.2962 21.0955 91.9801 21.0995C94.7901 17.2695 97.5201 13.3795 100.13 9.4095C103.092 9.40728 106.054 9.40443 109.016 9.40122C119.384 9.38999 129.754 9.37875 140.13 9.40986C142.187 9.44281 144.247 9.42093 146.307 9.39894C149.876 9.36084 153.447 9.32273 157.01 9.56998C165.93 10.41 173.68 16.6599 177.28 24.7398C179.239 30.061 179.183 35.7184 179.126 41.3204C179.113 42.551 179.101 43.7789 179.11 45C179.107 49.5489 179.111 54.0978 179.114 58.6468C179.122 66.9878 179.129 75.3289 179.09 83.67C179.118 97.0626 179.115 110.455 179.112 123.848C179.109 134.565 179.107 145.283 179.12 156C179.22 161.07 178.27 166.24 175.68 170.65C171.08 178 162.76 183 153.99 182.81C143.984 182.762 133.975 182.779 123.966 182.797C106.866 182.827 89.7638 182.856 72.6699 182.56C69.6999 182.33 66.8899 181.26 64.1899 180.07C59.4901 177.53 55.7299 173.5 53.1399 168.86C52.0299 166.43 51.3301 163.84 50.9001 161.21C50.7139 157.097 50.7443 152.98 50.7748 148.862C50.7967 145.902 50.8186 142.941 50.7601 139.98C49.2328 139.984 47.706 139.995 46.1798 140.006L45.6153 140.01H45.6124L45.5042 140.011H45.4977C40.966 140.043 36.4379 140.074 31.9099 139.98C28.2399 139.95 24.6599 138.86 21.4799 137.06C19.0499 135.32 16.9699 133.13 15.2199 130.71C12.2258 125.479 12.3868 119.524 12.5458 113.643L12.5459 113.64C12.6029 111.528 12.6597 109.426 12.5699 107.37L12.5634 104.771C12.5348 93.5074 12.5063 82.2438 12.5899 70.9802C12.6399 61.4202 20.7899 52.8102 30.3399 52.3002C34.2053 52.1467 38.0771 52.1677 41.948 52.1887C44.8869 52.2047 47.8255 52.2199 50.7601 52.1595C54.7501 52.1095 58.7301 52.1295 62.7101 52.2295C65.4039 52.3276 68.1183 52.2586 70.8338 52.1888ZM87.0399 125.03C85.7599 126.94 83.5199 127.94 81.2699 128.11C75.3694 128.122 69.4704 128.121 63.5719 128.12H63.5616C54.7084 128.119 45.856 128.118 36.9999 128.16C34.1399 128.19 31.2899 128 28.4499 127.64C28.2825 127.469 28.1128 127.298 27.9425 127.127L27.8756 127.06C26.6735 125.855 25.4493 124.627 24.7599 123.05C24.4145 112.757 24.4609 102.452 24.5074 92.1451V92.144L24.5075 92.1242C24.5362 85.7263 24.565 79.3275 24.4999 72.9302C24.2199 69.6102 25.7099 66.1402 28.8399 64.6802C33.0896 63.7965 37.424 63.8924 41.7575 63.9883L41.7586 63.9883C44.0934 64.04 46.4288 64.0917 48.7499 63.9902C59.1599 64.0002 69.5799 64.0002 79.9999 63.9902C81.3999 64.1302 82.7899 64.3702 84.1499 64.7002C86.1499 65.7702 87.7199 67.6402 88.2899 69.8502C88.5239 79.0456 88.4875 88.2444 88.4511 97.4447L88.4511 97.4553C88.4252 103.98 88.3994 110.505 88.4699 117.03C88.4534 117.52 88.4527 118.022 88.452 118.53C88.4487 120.794 88.4452 123.159 87.0399 125.03Z" fill="url(#paint1_linear)"/>
<path d="M125.978 105.032C126.465 103.352 127.966 101.971 129.774 102.047C137.68 102.022 145.594 101.928 153.491 102.107C157.73 102.406 157.815 109.365 153.551 109.74C146.549 109.962 139.53 109.783 132.52 109.825C128.801 119.394 125.245 129.032 121.458 138.575C120.358 141.227 116.196 141.398 114.772 138.95C111.941 134.14 109.092 129.313 106.414 124.418C104.657 121.151 108.87 117.441 111.932 119.454C114.465 121.569 115.233 125.066 117.399 127.514C120.213 120 123.113 112.52 125.978 105.032Z" fill="url(#paint2_linear)"/>
<path d="M125.978 54.0324C126.465 52.3523 127.966 50.9706 129.774 51.0474C137.68 51.0218 145.594 50.928 153.491 51.1071C157.73 51.4056 157.815 58.3648 153.551 58.7401C146.549 58.9618 139.53 58.7827 132.52 58.8254C128.801 68.3943 125.245 78.0315 121.458 87.5749C120.358 90.2273 116.196 90.3978 114.772 87.9502C111.941 83.1401 109.092 78.313 106.414 73.4176C104.657 70.1512 108.87 66.4413 111.932 68.454C114.465 70.5691 115.233 74.0658 117.399 76.5135C120.213 68.9999 123.113 61.5204 125.978 54.0324Z" fill="url(#paint3_linear)"/>
<path d="M132.219 120.148C131.008 116.865 135.085 113.649 137.976 115.585C140.338 117.581 142.197 120.097 144.372 122.289C146.538 120.105 148.406 117.606 150.743 115.611C153.634 113.624 157.702 116.856 156.517 120.139C154.726 123.15 151.903 125.41 149.685 128.114C151.843 130.647 154.368 132.881 156.286 135.61C158.043 138.783 154.137 142.535 150.999 140.804C148.474 138.851 146.615 136.173 144.372 133.913C142.129 136.19 140.261 138.877 137.72 140.83C134.59 142.51 130.709 138.766 132.466 135.602C134.394 132.89 136.893 130.638 139.067 128.114C136.841 125.419 134.036 123.15 132.219 120.148Z" fill="url(#paint4_linear)"/>
<path d="M76.5859 116H68.207V86C68.207 85.4141 68.0898 84.8672 67.8555 84.3594C67.6406 83.8516 67.3379 83.4121 66.9473 83.041C66.5762 82.6504 66.1367 82.3477 65.6289 82.1328C65.1211 81.918 64.5742 81.8105 63.9883 81.8105C63.4023 81.8105 62.8555 81.918 62.3477 82.1328C61.8398 82.3477 61.3906 82.6504 61 83.041C60.6289 83.4121 60.3359 83.8516 60.1211 84.3594C59.9062 84.8672 59.7988 85.4141 59.7988 86V116H51.3906V86C51.3906 85.4141 51.2832 84.8672 51.0684 84.3594C50.8535 83.8516 50.5508 83.4121 50.1602 83.041C49.7891 82.6504 49.3496 82.3477 48.8418 82.1328C48.334 81.918 47.7871 81.8105 47.2012 81.8105C46.6152 81.8105 46.0684 81.918 45.5605 82.1328C45.0527 82.3477 44.6035 82.6504 44.2129 83.041C43.8418 83.4121 43.5488 83.8516 43.334 84.3594C43.1191 84.8672 43.0117 85.4141 43.0117 86V116H34.6035V86C34.6035 84.2617 34.9258 82.6309 35.5703 81.1074C36.2344 79.5645 37.1328 78.2266 38.2656 77.0938C39.418 75.9414 40.7559 75.043 42.2793 74.3984C43.8223 73.7344 45.4629 73.4023 47.2012 73.4023C48.7637 73.4023 50.2676 73.6855 51.7129 74.252C53.1582 74.7988 54.457 75.5996 55.6094 76.6543C56.7617 75.5996 58.0508 74.7988 59.4766 74.252C60.9219 73.6855 62.4258 73.4023 63.9883 73.4023C65.7266 73.4023 67.3574 73.7344 68.8809 74.3984C70.4238 75.043 71.7617 75.9414 72.8945 77.0938C74.0469 78.2266 74.9453 79.5645 75.5898 81.1074C76.2539 82.6309 76.5859 84.2617 76.5859 86V116Z" fill="url(#paint5_linear)"/>
<path d="M143.999 70C138.46 70 134 74.4596 134 79.9992C134 85.5387 138.46 89.9983 143.999 89.9983C145.932 89.9983 147.72 89.4394 149.24 88.489C149.825 88.1235 150.665 88.5123 150.665 89.2017V89.2017C150.665 89.6417 151.022 89.9983 151.462 89.9983H152.998C153.551 89.9983 153.998 89.5506 153.998 88.9983V71C153.998 70.4477 153.551 70 152.998 70H151.462C151.022 70 150.665 70.3567 150.665 70.7966V70.7966C150.665 71.486 149.825 71.8748 149.24 71.5093C147.72 70.5589 145.932 70 143.999 70ZM143.999 73.3331C147.692 73.3331 150.665 76.3061 150.665 79.9992C150.665 83.6922 147.692 86.6653 143.999 86.6653C140.306 86.6653 137.333 83.6922 137.333 79.9992C137.333 76.3061 140.306 73.3331 143.999 73.3331Z" fill="url(#paint6_linear)" stroke="url(#paint7_linear)" stroke-width="3"/>
<defs>
<linearGradient id="paint0_linear" x1="109.5" y1="3.5" x2="106.5" y2="183" gradientUnits="userSpaceOnUse">
<stop stop-color="#00F0FF"/>
<stop offset="1" stop-color="#0094C2"/>
</linearGradient>
<linearGradient id="paint1_linear" x1="109.5" y1="3.5" x2="106.5" y2="183" gradientUnits="userSpaceOnUse">
<stop stop-color="#00F0FF"/>
<stop offset="1" stop-color="#0094C2"/>
</linearGradient>
<linearGradient id="paint2_linear" x1="131.355" y1="102" x2="131.355" y2="140.681" gradientUnits="userSpaceOnUse">
<stop stop-color="#00F0FF"/>
<stop offset="1" stop-color="#0094C2"/>
</linearGradient>
<linearGradient id="paint3_linear" x1="131.355" y1="51" x2="131.355" y2="89.6805" gradientUnits="userSpaceOnUse">
<stop stop-color="#00F0FF"/>
<stop offset="1" stop-color="#0094C2"/>
</linearGradient>
<linearGradient id="paint4_linear" x1="144.364" y1="115" x2="144.364" y2="141.246" gradientUnits="userSpaceOnUse">
<stop stop-color="#00F0FF"/>
<stop offset="1" stop-color="#0094C2"/>
</linearGradient>
<linearGradient id="paint5_linear" x1="55.5948" y1="73.4024" x2="55.5948" y2="116" gradientUnits="userSpaceOnUse">
<stop stop-color="#00F0FF"/>
<stop offset="1" stop-color="#0094C2"/>
</linearGradient>
<linearGradient id="paint6_linear" x1="143.999" y1="70" x2="143.999" y2="89.9983" gradientUnits="userSpaceOnUse">
<stop stop-color="#00F0FF"/>
<stop offset="1" stop-color="#0094C2"/>
</linearGradient>
<linearGradient id="paint7_linear" x1="143.999" y1="70" x2="143.999" y2="89.9983" gradientUnits="userSpaceOnUse">
<stop stop-color="#00F0FF"/>
<stop offset="1" stop-color="#0094C2"/>
</linearGradient>
</defs>
</svg>
