<svg width="192" height="192" viewBox="0 0 192 192" fill="none" xmlns="http://www.w3.org/2000/svg">
<path fill-rule="evenodd" clip-rule="evenodd" d="M70.8357 52.1885C68.1194 52.2583 65.4045 52.3281 62.7099 52.23C58.7299 52.13 54.7499 52.11 50.7599 52.16C47.8253 52.2204 44.8869 52.2045 41.948 52.1885C38.0771 52.1675 34.2053 52.1465 30.3399 52.3C20.7899 52.81 12.6399 61.42 12.5899 70.98C12.5063 82.2436 12.5348 93.5072 12.5634 104.771L12.5699 107.37C12.6598 109.427 12.6029 111.53 12.5458 113.643C12.3868 119.524 12.2258 125.479 15.2199 130.71C16.9699 133.13 19.0499 135.32 21.4799 137.06C24.6599 138.86 28.2399 139.95 31.9099 139.98C36.4761 140.075 41.0424 140.042 45.6124 140.01L45.6153 140.01C47.3296 139.998 49.0444 139.985 50.7599 139.98C51.0026 139.975 51.3679 139.97 51.7332 139.965C52.0904 139.96 52.4476 139.955 52.6899 139.95C55.9999 139.93 59.3099 139.94 62.6199 139.98C64.5938 139.98 66.5677 139.997 68.5415 140.014H68.5421C73.038 140.052 77.534 140.09 82.0299 139.93C88.3699 139.72 94.3999 136.06 97.6099 130.61C100.74 125.57 100.63 119.42 100.49 113.7C100.385 108.461 100.397 103.217 100.41 97.9724V97.972V97.9716V97.9712V97.9708V97.9704V97.97V97.9696V97.9692C100.422 92.7228 100.435 87.4751 100.33 82.23C100.307 80.768 100.349 79.2807 100.39 77.7851C100.533 72.6213 100.678 67.358 98.2199 62.69C96.0199 58.28 91.9899 55.02 87.4599 53.22C82.0221 51.901 76.4259 52.0448 70.8357 52.1885ZM81.2699 128.11C83.5199 127.94 85.7599 126.94 87.0399 125.03C88.4452 123.159 88.4487 120.794 88.452 118.53C88.4527 118.022 88.4534 117.52 88.4699 117.03C88.3994 110.505 88.4252 103.98 88.4511 97.4551C88.4875 88.2513 88.524 79.0489 88.2899 69.85C87.7199 67.64 86.1499 65.77 84.1499 64.7C82.7899 64.37 81.3999 64.13 79.9999 63.99C69.5799 64 59.1599 64 48.7499 63.99C46.4285 64.0915 44.0937 64.0398 41.7586 63.9881C37.4247 63.8922 33.09 63.7962 28.8399 64.68C25.7099 66.14 24.2199 69.61 24.4999 72.93C24.5651 79.3339 24.5362 85.7392 24.5074 92.1438V92.1438V92.1439V92.1439V92.144V92.144V92.1441V92.1442V92.1442V92.1443V92.1443V92.1444V92.1444V92.1445V92.1445V92.1446V92.1446V92.1447V92.1447V92.1447V92.1448V92.1448V92.1449C24.4609 102.452 24.4145 112.757 24.7599 123.05C25.4497 124.628 26.6748 125.856 27.8775 127.062C28.0696 127.255 28.2612 127.447 28.4499 127.64C31.2899 128 34.1399 128.19 36.9999 128.16C45.856 128.118 54.7084 128.119 63.5616 128.12H63.5616H63.5617C69.4637 128.121 75.366 128.122 81.2699 128.11ZM34.8948 80.2128L34.895 80.2128H34.895C37.4506 80.009 40.0431 79.8022 42.5399 80.42C44.1129 84.2524 44.953 88.3203 45.7938 92.3917C46.423 95.4383 47.0526 98.4868 47.9899 101.44C48.9191 98.5026 49.5769 95.4826 50.2342 92.465L50.2343 92.4649L50.2343 92.4649L50.2343 92.4649L50.2343 92.4648L50.2343 92.4648L50.2343 92.4647L50.2343 92.4647L50.2343 92.4647L50.2343 92.4646L50.2344 92.4646L50.2344 92.4646L50.2344 92.4645C51.1121 88.435 51.989 84.4095 53.5099 80.59C56.3699 79.72 59.6099 79.66 62.4499 80.63C63.5262 82.86 64.0483 85.278 64.5696 87.6926C64.7893 88.7105 65.0089 89.7277 65.2699 90.73C65.4089 91.3239 65.5465 91.9181 65.684 92.5122C66.3781 95.5095 67.072 98.5056 67.9399 101.46C68.8806 98.5144 69.5061 95.4692 70.1309 92.4269C70.974 88.322 71.816 84.2223 73.4299 80.38C76.0411 79.7918 78.7397 80.0137 81.3912 80.2318C81.7149 80.2584 82.0379 80.285 82.3599 80.31C81.4992 85.908 79.9677 91.3719 78.4367 96.8338C77.5665 99.9384 76.6965 103.042 75.9499 106.17C75.5593 107.349 75.2778 108.577 74.9962 109.806C74.4558 112.164 73.9146 114.525 72.5999 116.55C69.6999 117.42 66.4399 117.45 63.5799 116.41C62.0917 112.544 61.2328 108.482 60.3736 104.418C59.7837 101.628 59.1937 98.8376 58.3999 96.11C58 95.5 57.5 95.5 57 96C56.1518 98.7888 55.6014 101.899 55.0466 105.034C54.3521 108.958 53.6508 112.921 52.3499 116.34C49.5599 117.53 46.2699 117.4 43.3999 116.54C42.1207 114.674 41.6183 112.454 41.1179 110.242L41.1179 110.242C40.8672 109.134 40.617 108.028 40.2699 106.97C39.4945 103.745 38.5997 100.546 37.7048 97.3456C36.1298 91.7137 34.5545 86.081 33.6299 80.31C34.0491 80.2803 34.4699 80.2467 34.8918 80.2131L34.8939 80.2129L34.8941 80.2129L34.8942 80.2129L34.8944 80.2128L34.8946 80.2128L34.8948 80.2128ZM100.66 73.16C107.82 73.13 114.99 73.11 122.15 73.15C124.176 73.1806 126.203 73.1585 128.231 73.1363C131.497 73.1006 134.762 73.0649 138.02 73.25C141.04 73.49 143.12 76.98 142.11 79.8C141.52 82.01 139.29 83.48 137.04 83.38C133.016 83.4514 128.996 83.4343 124.975 83.4171C122.241 83.4055 119.506 83.3938 116.77 83.41C111.36 83.43 105.95 83.43 100.53 83.4C100.542 81.2676 100.574 79.1312 100.607 76.9958V76.9957V76.9955V76.9953V76.9951V76.995V76.9948V76.9946C100.626 75.7157 100.645 74.4372 100.66 73.16ZM111.556 93.2148L111.554 93.2148C107.915 93.2259 104.277 93.237 100.64 93.24C100.63 96.66 100.63 100.08 100.64 103.5C109.067 103.529 117.499 103.532 125.929 103.535H125.93H125.93H125.931H125.932C129.305 103.536 132.678 103.537 136.05 103.54C138.32 103.72 140.88 102.87 141.84 100.62C143.63 97.35 140.77 92.95 137.05 93.24C128.551 93.163 120.053 93.1889 111.557 93.2148H111.557H111.557H111.557H111.556ZM100.97 113.7C112.668 113.66 124.365 113.66 136.063 113.66H136.07C138.77 113.3 140.91 115.03 142.55 116.96C142.32 119.77 141.5 123.59 137.99 123.74C130.345 123.96 122.689 123.915 115.033 123.869H115.033H115.033H115.033C110.181 123.84 105.329 123.811 100.48 123.85C100.554 122.467 100.612 121.082 100.671 119.697L100.671 119.696L100.671 119.695L100.671 119.695C100.755 117.696 100.84 115.696 100.97 113.7Z" fill="url(#paint0_linear)"/>
<path d="M50.8601 32C51.7301 20.17 62.1301 9.95999 74.0001 9.46999C82.7101 9.27999 91.4201 9.41999 100.13 9.40999C97.5201 13.38 94.7901 17.27 91.9801 21.1C86.0101 21.21 80.0201 20.8 74.0601 21.28C69.5401 21.62 65.7101 24.77 63.7301 28.74C61.4701 36.31 62.9301 44.43 62.7101 52.23C58.7301 52.13 54.7501 52.11 50.7601 52.16C50.7201 45.44 50.5101 38.71 50.8601 32Z" fill="url(#paint1_linear)"/>
<path d="M100.13 9.40999C113.46 9.39999 126.79 9.36999 140.13 9.40999C137.28 13.24 134.49 17.12 131.84 21.09C118.55 21.12 105.27 21.09 91.9801 21.1C94.7901 17.27 97.5201 13.38 100.13 9.40999Z" fill="url(#paint2_linear)"/>
<path d="M140.13 9.40999C145.75 9.49999 151.39 9.17999 157.01 9.56999C165.93 10.41 173.68 16.66 177.28 24.74C176.16 24.23 175.04 23.72 173.92 23.21C171.46 26.02 168.99 28.87 167.2 32.16C166.72 30.61 166.2 29.07 165.44 27.63C163.22 23.97 159.31 21.31 154.95 21.19C147.25 20.9 139.54 21.2 131.84 21.09C134.49 17.12 137.28 13.24 140.13 9.40999Z" fill="url(#paint3_linear)"/>
<path d="M173.92 23.21C175.04 23.72 176.16 24.23 177.28 24.74C179.67 31.23 179.06 38.22 179.11 45C179.1 57.89 179.15 70.78 179.09 83.67C175.64 87.02 172.01 90.38 169.71 94.67C167.87 98.14 168.08 102.2 168.04 106C168.3 119.33 167.84 132.66 168.02 145.99C168.08 150.72 168.03 155.48 167.1 160.14C167.36 117.48 167.29 74.81 167.2 32.16C168.99 28.87 171.46 26.02 173.92 23.21Z" fill="url(#paint4_linear)"/>
<path d="M71.4201 170.5C76.2301 171.37 81.1401 170.98 86.0001 171.05C104.42 171.05 122.85 170.93 141.27 171.07C132.72 172.29 123.96 171.68 115.51 173.59C111.22 174.41 108.84 178.36 106.45 181.61C95.2001 182.31 83.9101 181.56 72.6701 182.56C69.7001 182.33 66.8901 181.26 64.1901 180.07C66.1101 176.54 68.5801 173.34 71.4201 170.5Z" fill="url(#paint5_linear)"/>
<path d="M169.71 94.67C172.01 90.38 175.64 87.02 179.09 83.67C179.14 107.78 179.09 131.89 179.12 156C179.22 161.07 178.27 166.24 175.68 170.65C171.08 178 162.76 183 153.99 182.81C126.89 182.68 99.7701 183.03 72.6701 182.56C83.9101 181.56 95.2001 182.31 106.45 181.61C108.84 178.36 111.22 174.41 115.51 173.59C123.96 171.68 132.72 172.29 141.27 171.07C146.16 170.91 151.07 171.28 155.95 170.87C161.54 170.31 166.14 165.58 167.1 160.14C168.03 155.48 168.08 150.72 168.02 145.99C167.84 132.66 168.3 119.33 168.04 106C168.08 102.2 167.87 98.14 169.71 94.67Z" fill="url(#paint6_linear)"/>
<path d="M50.7601 139.98C51.2401 139.97 52.2001 139.96 52.6901 139.95C56.0001 139.93 59.3101 139.94 62.6201 139.98C62.5901 141.21 62.5701 142.44 62.5601 143.68C62.6701 149.12 62.2901 154.58 62.7801 160C63.3101 164.87 67.1001 168.63 71.4201 170.5C68.5801 173.34 66.1101 176.54 64.1901 180.07C59.4901 177.53 55.7301 173.5 53.1401 168.86C52.0301 166.43 51.3301 163.84 50.9001 161.21C50.5801 154.14 50.9001 147.06 50.7601 139.98Z" fill="url(#paint7_linear)"/>
<defs>
<linearGradient id="paint0_linear" x1="31.5234" y1="127.167" x2="89.2358" y2="41.8106" gradientUnits="userSpaceOnUse">
<stop stop-color="#0072FF"/>
<stop offset="1" stop-color="#00E5A1"/>
</linearGradient>
<linearGradient id="paint1_linear" x1="114.903" y1="112.152" x2="114.903" y2="9.36963" gradientUnits="userSpaceOnUse">
<stop stop-color="#5558FF"/>
<stop offset="1" stop-color="#00C0FF"/>
</linearGradient>
<linearGradient id="paint2_linear" x1="114.903" y1="112.152" x2="114.903" y2="9.36963" gradientUnits="userSpaceOnUse">
<stop stop-color="#5558FF"/>
<stop offset="1" stop-color="#00C0FF"/>
</linearGradient>
<linearGradient id="paint3_linear" x1="114.903" y1="112.152" x2="114.903" y2="9.36963" gradientUnits="userSpaceOnUse">
<stop stop-color="#5558FF"/>
<stop offset="1" stop-color="#00C0FF"/>
</linearGradient>
<linearGradient id="paint4_linear" x1="114.903" y1="112.152" x2="114.903" y2="9.36963" gradientUnits="userSpaceOnUse">
<stop stop-color="#5558FF"/>
<stop offset="1" stop-color="#00C0FF"/>
</linearGradient>
<linearGradient id="paint5_linear" x1="114.903" y1="112.152" x2="114.903" y2="9.36963" gradientUnits="userSpaceOnUse">
<stop stop-color="#5558FF"/>
<stop offset="1" stop-color="#00C0FF"/>
</linearGradient>
<linearGradient id="paint6_linear" x1="114.903" y1="112.152" x2="114.903" y2="9.36963" gradientUnits="userSpaceOnUse">
<stop stop-color="#5558FF"/>
<stop offset="1" stop-color="#00C0FF"/>
</linearGradient>
<linearGradient id="paint7_linear" x1="114.903" y1="112.152" x2="114.903" y2="9.36963" gradientUnits="userSpaceOnUse">
<stop stop-color="#5558FF"/>
<stop offset="1" stop-color="#00C0FF"/>
</linearGradient>
</defs>
</svg>
