<svg width="48" height="48" viewBox="0 0 48 48" fill="none" xmlns="http://www.w3.org/2000/svg">
<path fill-rule="evenodd" clip-rule="evenodd" d="M29.375 14.8621C29.375 12.7861 31.061 11.1001 33.138 11.1001C35.214 11.1001 36.9 12.7861 36.9 14.8621C36.9 16.9391 35.214 18.6251 33.138 18.6251C31.061 18.6251 29.375 16.9391 29.375 14.8621ZM6.8 28.1931L16.527 20.0791C18.349 18.5581 21.191 18.6881 22.868 20.3671L27.135 24.6401C27.974 25.4791 29.491 25.6831 30.521 25.0941L40.267 19.5241C40.782 19.2301 41.2 18.5091 41.2 17.9161V11.6381C41.2 9.85806 39.755 8.41206 37.975 8.41206H10.025C8.245 8.41206 6.8 9.85806 6.8 11.6381V28.1931ZM41.2 28.8381C41.2 27.6511 42.163 26.6881 43.35 26.6881C44.537 26.6881 45.5 27.6511 45.5 28.8381V38.5131C45.5 41.4791 43.092 43.8881 40.125 43.8881H7.875C4.908 43.8881 2.5 41.4791 2.5 38.5131V9.48706C2.5 6.52106 4.908 4.11206 7.875 4.11206H40.125C43.092 4.11206 45.5 6.52106 45.5 9.48706V19.3341C45.5 20.5211 44.664 21.9621 43.633 22.5511L31.679 29.3811C29.618 30.5581 26.582 30.1531 24.903 28.4761L21.092 24.6701C20.253 23.8321 18.831 23.7671 17.919 24.5271L8.176 32.6431L6.8 33.7821V36.3631C6.8 38.1421 8.245 39.5881 10.025 39.5881H37.975C39.755 39.5881 41.2 38.1421 41.2 36.3631V28.8381Z" fill="url(#paint0_linear)"/>
<defs>
<linearGradient id="paint0_linear" x1="24" y1="43.8881" x2="24" y2="4.11206" gradientUnits="userSpaceOnUse">
<stop stop-color="#FD5900"/>
<stop offset="1" stop-color="#FFE533"/>
</linearGradient>
</defs>
</svg>
