<svg width="128" height="128" viewBox="0 0 128 128" fill="none" xmlns="http://www.w3.org/2000/svg">
<g clip-path="url(#clip0)">
<path d="M123.421 87.7904C128.796 67.8621 123.756 46.8626 109.911 31.5439C110.748 29.6712 111.088 27.6098 110.817 25.526C110.429 22.545 108.905 19.8937 106.521 18.0624C82.0502 -0.761372 46.653 -0.768622 22.1894 18.0624C18.1613 21.1562 16.6085 26.6418 18.7996 31.5425C5.07273 46.7336 -0.00140383 67.5481 5.17373 87.3404C0.851868 90.1204 -1.15418 95.6091 0.677364 100.634L5.80799 114.73C7.93105 120.555 14.3635 123.59 20.2261 121.454L24.446 119.919C25.4965 121.19 26.7478 122.282 28.2868 123C30.9409 124.233 33.9937 124.428 36.8893 123.373C39.7129 122.344 41.9652 120.278 43.2359 117.557C44.5067 114.833 44.6385 111.778 43.6095 108.955L33.3517 80.7632C32.3227 77.9396 30.2571 75.6838 27.5325 74.413C24.808 73.146 21.7537 73.0068 18.9336 74.0395C16.11 75.0686 13.8542 77.1341 12.5834 79.8552C12.1559 80.7725 11.9054 81.7325 11.7366 82.703C8.37331 66.3548 12.8802 49.5057 24.0265 36.9351C28.4836 39.1781 32.8289 38.2754 35.908 35.8978C52.2999 23.2777 76.4103 23.2777 92.8025 35.8978C96.2208 38.5301 100.926 38.7451 104.68 36.9316C116.304 50.0304 120.66 67.7504 116.476 84.7156L116.441 84.7028C116.456 83.0493 116.144 81.3995 115.424 79.8554C114.153 77.1344 111.897 75.0688 109.074 74.0398C106.25 73.018 103.196 73.1463 100.471 74.4133C97.7501 75.6841 95.6845 77.9399 94.6555 80.7635L84.394 108.955C83.365 111.779 83.4967 114.833 84.7675 117.558C86.705 121.706 90.8062 124.058 94.9705 124.058C96.5928 124.058 98.2078 123.703 99.7204 123C101.258 122.282 102.508 121.19 103.558 119.919L107.777 121.454C113.552 123.559 120.048 120.643 122.195 114.73L127.326 100.634C129.068 95.8546 127.313 90.6805 123.421 87.7904V87.7904ZM21.5009 81.0855C23.4752 80.3755 25.6 81.3975 26.3058 83.3268L36.5635 111.518C37.2643 113.455 36.2853 115.609 34.3222 116.327C34.3222 116.327 34.3222 116.327 34.3185 116.327C32.3099 117.052 30.2074 115.982 29.5136 114.086L19.2558 85.8938C18.5516 83.9478 19.5423 81.799 21.5009 81.0855V81.0855ZM13.4917 91.9805L21.1859 113.126L17.6628 114.408C15.7182 115.104 13.5612 114.108 12.8544 112.167L7.72379 98.0707C7.02302 96.1339 8.00205 93.9803 9.9651 93.2623L13.4917 91.9805ZM102.632 29.2689C101.412 30.8547 98.9731 31.1842 97.3728 29.9502C78.2963 15.2648 50.4214 15.2648 31.3301 29.9574C29.6684 31.2344 27.3215 30.8864 26.0785 29.2689C24.8017 27.6098 25.1352 25.2585 26.7598 24.01C37.6511 15.6308 50.9496 11.4414 63.998 11.4414C77.0463 11.4414 91.0592 15.631 101.95 24.01C103.577 25.26 103.907 27.6121 102.632 29.2689V29.2689ZM98.4896 114.086C97.7761 116.036 95.6375 117.027 93.6812 116.327C91.7159 115.608 90.7399 113.453 91.4399 111.518L101.701 83.3268C102.4 81.416 104.505 80.3707 106.51 81.0855C108.475 81.8042 109.451 83.9593 108.751 85.8938L98.4896 114.086ZM120.28 98.0707L115.146 112.167C114.442 114.112 112.316 115.109 110.344 114.408L106.821 113.126L114.516 91.9805L117.886 93.2068C117.903 93.2128 117.914 93.227 117.932 93.2328C117.947 93.2378 117.963 93.2355 117.978 93.24L118.038 93.262C120.004 93.981 120.98 96.1361 120.28 98.0707V98.0707Z" fill="url(#paint0_linear)"/>
</g>
<defs>
<linearGradient id="paint0_linear" x1="63.9995" y1="124.058" x2="63.9995" y2="3.94184" gradientUnits="userSpaceOnUse">
<stop stop-color="#5570FF"/>
<stop offset="1" stop-color="#4DD3FF"/>
</linearGradient>
<clipPath id="clip0">
<rect width="128" height="128" fill="white"/>
</clipPath>
</defs>
</svg>
