<svg width="128" height="128" viewBox="0 0 128 128" fill="none" xmlns="http://www.w3.org/2000/svg">
<path d="M118.462 42.4492H103.308C101.651 42.4492 100.308 41.1061 100.308 39.4492V24.7246C100.308 23.8053 99.8442 22.8942 98.9783 22.2178L80.8243 8.03819C79.9735 7.3734 78.8193 7 77.6154 7H50.3846C49.1811 7 48.0267 7.3734 47.1757 8.03819L29.0217 22.2178C28.1918 22.8661 27.6924 23.7665 27.6924 24.7246V39.4492C27.6924 41.1061 26.3492 42.4492 24.6924 42.4492H9.53843C7.03201 42.4492 5 44.0364 5 45.9941V124.455C5 126.413 7.03201 128 9.53843 128H118.462C120.967 128 123 126.413 123 124.455V45.9941C123 44.0364 120.967 42.4492 118.462 42.4492ZM51.4505 14.7256C51.9779 14.3136 52.6279 14.0898 53.2972 14.0898H74.7027C75.372 14.0898 76.022 14.3136 76.5494 14.7256L77.9447 15.8154C80.1934 17.5718 78.9514 21.1797 76.098 21.1797H51.9019C49.0485 21.1797 47.8065 17.5719 50.0552 15.8154L51.4505 14.7256ZM88.2308 28.2695C89.8876 28.2695 91.2308 29.6127 91.2308 31.2695V53.6289C91.2308 55.2858 89.8876 56.6289 88.2308 56.6289H85.1538C83.497 56.6289 82.1538 55.2858 82.1538 53.6289V31.2695C82.1538 29.6127 83.497 28.2695 85.1538 28.2695H88.2308ZM70.077 28.2695C71.7338 28.2695 73.077 29.6127 73.077 31.2695V39.4492C73.077 41.1061 71.7338 42.4492 70.077 42.4492H57.923C56.2662 42.4492 54.923 41.1061 54.923 39.4492V31.2695C54.923 29.6127 56.2662 28.2695 57.923 28.2695H70.077ZM36.7692 31.2695C36.7692 29.6127 38.1124 28.2695 39.7692 28.2695H42.8462C44.503 28.2695 45.8462 29.6127 45.8462 31.2695V53.6289C45.8462 55.2858 44.503 56.6289 42.8462 56.6289H39.7692C38.1124 56.6289 36.7692 55.2858 36.7692 53.6289V31.2695ZM113.924 117.91C113.924 119.567 112.58 120.91 110.924 120.91H17.077C15.4201 120.91 14.077 119.567 14.077 117.91V52.5391C14.077 50.8822 15.4201 49.5391 17.077 49.5391H24.6924C26.3492 49.5391 27.6924 50.8822 27.6924 52.5391V60.1738C27.6924 62.1316 29.7244 63.7188 32.2308 63.7188H50.3846C52.891 63.7188 54.923 62.1316 54.923 60.1738V52.5391C54.923 50.8822 56.2662 49.5391 57.923 49.5391H70.077C71.7338 49.5391 73.077 50.8822 73.077 52.5391V60.1738C73.077 62.1316 75.109 63.7188 77.6154 63.7188H95.7692C98.2756 63.7188 100.308 62.1316 100.308 60.1738V52.5391C100.308 50.8822 101.651 49.5391 103.308 49.5391H110.924C112.58 49.5391 113.924 50.8822 113.924 52.5391V117.91Z" fill="url(#paint0_linear)"/>
<path fill-rule="evenodd" clip-rule="evenodd" d="M67.0976 59.3887C64.6653 56.556 59.3383 58.3285 59.2984 62.2544C59.2043 67.36 59.2208 72.4689 59.2373 77.579C59.2474 80.7006 59.2575 83.8226 59.2424 86.9446C56.68 85.059 54.1018 83.2002 51.5249 81.3424C50.91 80.8991 50.2952 80.4558 49.6807 80.0123C48.1495 78.8775 46.0203 78.3474 44.3136 79.3911C41.4826 80.7162 41.1476 85.1392 43.532 87.1186C46.386 89.3469 49.3293 91.4486 52.2728 93.5504C55.1609 95.6126 58.0492 97.675 60.8534 99.8573C62.4006 101.29 64.9126 101.24 66.6032 100.097C72.2815 96.3372 77.9674 92.5851 83.6535 88.8414C83.7529 88.7739 83.8531 88.7064 83.9537 88.6387C85.1368 87.8423 86.3751 87.0089 86.9631 85.6196C88.1991 83.1348 86.6282 79.7306 84.0044 79.1675C82.1543 78.5463 80.3359 79.6395 78.8288 80.6417C77.3727 81.6405 75.8951 82.6064 74.4173 83.5724C72.4146 84.8815 70.4116 86.1908 68.4615 87.5825C68.3953 83.4769 68.4192 79.3691 68.4431 75.2602C68.4653 71.4445 68.4875 67.628 68.4375 63.8115C68.4055 62.2461 68.0627 60.6311 67.0976 59.3887ZM43.9171 108.537C43.6199 108.591 43.3067 108.649 43.1095 108.687C38.6676 109.747 39.0982 117.416 43.6758 117.88C50.966 117.994 58.2589 117.978 65.5514 117.961C71.0226 117.949 76.4935 117.937 81.9629 117.98C83.8928 118.12 86.0939 117.549 87.0189 115.594C89.1642 112.546 86.2294 108.098 82.7843 108.413C78.2708 108.416 73.7564 108.413 69.2416 108.41C60.993 108.404 52.7434 108.398 44.4971 108.43C44.348 108.458 44.1369 108.497 43.9171 108.537Z" fill="url(#paint1_linear)"/>
<defs>
<linearGradient id="paint0_linear" x1="64" y1="128" x2="64" y2="7" gradientUnits="userSpaceOnUse">
<stop stop-color="#FDA700"/>
<stop offset="1" stop-color="#FFDE00"/>
</linearGradient>
<linearGradient id="paint1_linear" x1="63.8745" y1="118" x2="63.4143" y2="58.0002" gradientUnits="userSpaceOnUse">
<stop stop-color="#02AA93"/>
<stop offset="1" stop-color="#67FF80"/>
</linearGradient>
</defs>
</svg>
