<svg width="24" height="24" viewBox="0 0 24 24" fill="none" xmlns="http://www.w3.org/2000/svg">
<path d="M20.6 3.2V20.8C20.6 22.021 19.621 23 18.4 23H5.2C3.979 23 3 22.021 3 20.8V3.2C3 2.61652 3.23178 2.05695 3.64437 1.64437C4.05695 1.23178 4.61652 1 5.2 1H18.4C18.9835 1 19.5431 1.23178 19.9556 1.64437C20.3682 2.05695 20.6 2.61652 20.6 3.2ZM18.4 13.6C18.4 13.3239 18.1761 13.1 17.9 13.1H5.7C5.42386 13.1 5.2 13.3239 5.2 13.6V20.3C5.2 20.5761 5.42386 20.8 5.7 20.8H17.9C18.1761 20.8 18.4 20.5761 18.4 20.3V13.6ZM18.4 3.7C18.4 3.42386 18.1761 3.2 17.9 3.2H5.7C5.42386 3.2 5.2 3.42386 5.2 3.7V10.4C5.2 10.6761 5.42386 10.9 5.7 10.9H17.9C18.1761 10.9 18.4 10.6761 18.4 10.4V3.7Z" fill="url(#paint0_linear)"/>
<path d="M9.4 9.54545H14.6C14.8209 9.54545 15 9.36637 15 9.14545V7.4C15 7.17909 14.8209 7 14.6 7H9.4C9.17909 7 9 7.17909 9 7.4V9.14545C9 9.36637 9.17909 9.54545 9.4 9.54545Z" fill="url(#paint1_linear)"/>
<path d="M9.4 16.4545H14.6C14.8209 16.4545 15 16.6336 15 16.8545V18.6C15 18.8209 14.8209 19 14.6 19H9.4C9.17909 19 9 18.8209 9 18.6V16.8545C9 16.6336 9.17909 16.4545 9.4 16.4545Z" fill="url(#paint2_linear)"/>
<defs>
<linearGradient id="paint0_linear" x1="11.8" y1="23" x2="11.8" y2="1" gradientUnits="userSpaceOnUse">
<stop stop-color="#5570FF"/>
<stop offset="1" stop-color="#4DD3FF"/>
</linearGradient>
<linearGradient id="paint1_linear" x1="15" y1="13.625" x2="9" y2="13.625" gradientUnits="userSpaceOnUse">
<stop stop-color="#FFCD1A"/>
<stop offset="1" stop-color="#FD9C0C"/>
</linearGradient>
<linearGradient id="paint2_linear" x1="15" y1="13.625" x2="9" y2="13.625" gradientUnits="userSpaceOnUse">
<stop stop-color="#FFCD1A"/>
<stop offset="1" stop-color="#FD9C0C"/>
</linearGradient>
</defs>
</svg>
