<svg width="48" height="48" viewBox="0 0 48 48" fill="none" xmlns="http://www.w3.org/2000/svg">
<path fill-rule="evenodd" clip-rule="evenodd" d="M22 19.414C19.673 19.214 17.403 18.667 15.264 17.794C15.024 19.186 14.869 20.59 14.797 22H22V19.414ZM26 19.415C28.325 19.215 30.596 18.67 32.739 17.8C32.977 19.19 33.131 20.593 33.203 22H26V19.415ZM22 29.586C19.73 29.78 17.514 30.305 15.421 31.14C15.092 29.444 14.884 27.725 14.797 26H22V29.586ZM26 29.585C28.27 29.78 30.486 30.305 32.579 31.14C32.908 29.443 33.116 27.725 33.203 26H26V29.585ZM22 33.603C20.08 33.801 18.21 34.283 16.448 35.027C16.825 36.145 17.289 37.234 17.83 38.29C18.25 39.1 18.74 39.88 19.3 40.61C19.77 41.22 20.3 41.78 20.89 42.27C21.234 42.55 21.604 42.788 22 42.989V33.603ZM26 33.603C27.92 33.802 29.79 34.286 31.551 35.031C31.174 36.147 30.711 37.235 30.17 38.29C29.75 39.1 29.26 39.88 28.7 40.61C28.23 41.22 27.7 41.78 27.11 42.27C26.766 42.55 26.396 42.788 26 42.989V33.603ZM22 15.397C19.974 15.187 18.003 14.66 16.159 13.844C16.59 12.421 17.149 11.039 17.83 9.71C18.25 8.9 18.74 8.12 19.3 7.39C19.77 6.78 20.3 6.22 20.89 5.73C21.234 5.45 21.604 5.212 22 5.011V15.397ZM26 15.397C28.024 15.188 29.996 14.665 31.844 13.854C31.413 12.429 30.853 11.043 30.17 9.71C29.75 8.9 29.26 8.12 28.7 7.39C28.23 6.78 27.7 6.22 27.11 5.73C26.766 5.45 26.396 5.212 26 5.011V15.397ZM43.397 22C43.066 18.798 41.946 15.734 40.153 13.079L39.6 13.57C38.618 14.443 37.57 15.226 36.463 15.904C36.866 17.913 37.114 19.953 37.208 22H43.397ZM43.397 26C43.04 29.452 41.767 32.744 39.725 35.537C38.653 34.571 37.5 33.712 36.276 32.981C36.292 32.914 36.306 32.847 36.32 32.78C36.808 30.551 37.103 28.28 37.208 26H43.397ZM4.603 26C4.96 29.454 6.234 32.746 8.277 35.54C9.348 34.574 10.5 33.714 11.725 32.983C11.708 32.915 11.694 32.848 11.68 32.78C11.192 30.551 10.897 28.28 10.792 26H4.603ZM14.911 41.245C13.495 40.506 12.168 39.587 10.963 38.508C11.578 37.953 12.224 37.441 12.9 36.975C13.292 38.045 13.752 39.091 14.27 40.11C14.469 40.497 14.681 40.877 14.911 41.245ZM35.1 36.976C35.776 37.442 36.424 37.953 37.039 38.506C35.833 39.586 34.506 40.506 33.089 41.245C33.319 40.877 33.531 40.497 33.73 40.11C34.248 39.092 34.708 38.046 35.1 36.976ZM14.892 6.787C13.267 7.634 11.772 8.724 10.451 10.015C11.131 10.674 11.856 11.279 12.613 11.833C13.064 10.481 13.622 9.165 14.27 7.89C14.463 7.514 14.669 7.145 14.892 6.787ZM35.38 11.816C35.924 11.439 36.442 11.023 36.94 10.58L37.585 10.008C36.242 8.708 34.732 7.618 33.099 6.772C33.326 7.135 33.534 7.509 33.73 7.89C34.375 9.158 34.931 10.469 35.38 11.816ZM5.17 18.92C4.872 19.98 3.767 20.598 2.705 20.3C1.643 20.002 1.022 18.895 1.32 17.83L1.43 17.43C1.734 16.365 2.843 15.744 3.905 16.045C4.967 16.346 5.584 17.45 5.28 18.51L5.17 18.92ZM4.5 22C2.292 22 0.5 22.896 0.5 24C0.5 30.23 2.98 36.21 7.38 40.62C11.79 45.02 17.77 47.5 24 47.5C30.23 47.5 36.21 45.02 40.62 40.62C45.02 36.21 47.5 30.23 47.5 24C47.5 17.77 45.02 11.79 40.62 7.38C36.21 2.98 30.23 0.5 24 0.5C15.91 0.51 8.37 4.68 4.08 11.54C3.495 12.473 3.78 13.705 4.715 14.29C5.65 14.875 6.885 14.593 7.47 13.66C7.594 13.462 7.722 13.266 7.854 13.074C8.989 14.147 10.221 15.096 11.536 15.9C11.134 17.913 10.886 19.95 10.792 22H4.5Z" fill="url(#paint0_linear)"/>
<defs>
<linearGradient id="paint0_linear" x1="24" y1="47.5" x2="24" y2="0.5" gradientUnits="userSpaceOnUse">
<stop stop-color="#A93AFF"/>
<stop offset="1" stop-color="#FF81FF"/>
</linearGradient>
</defs>
</svg>
