<svg viewBox="0 0 48 48" xmlns="http://www.w3.org/2000/svg" xmlns:xlink="http://www.w3.org/1999/xlink"><linearGradient id="a" gradientUnits="userSpaceOnUse" x1="5" x2="45" y1="3" y2="40.237"><stop offset="0" stop-color="#002eff"/><stop offset="1" stop-color="#fb00ff" stop-opacity=".877"/></linearGradient><path d="m33.8 24.07c0 5.413-4.386 9.8-9.8 9.8a9.798 9.798 0 0 1 -9.8-9.8c0-5.414 4.386-9.8 9.8-9.8s9.8 4.386 9.8 9.8m0 0" fill="none" stroke="#00ff92" stroke-width="1.5"/><path d="m24 3.07c-11.589 0-21 9.41-21 21 0 11.588 9.411 21 21 21 11.59 0 21-9.412 21-21 0-11.59-9.41-21-21-21zm0 1.4c10.833 0 19.6 8.766 19.6 19.6 0 10.832-8.767 19.6-19.6 19.6s-19.6-8.768-19.6-19.6c0-10.834 8.767-19.6 19.6-19.6z" fill="#f9f9f9"/><path d="m24 8.67c-8.5 0-15.4 6.9-15.4 15.4 0 8.499 6.9 15.4 15.4 15.4s15.4-6.901 15.4-15.4c0-8.5-6.9-15.4-15.4-15.4zm0 1.4c7.744 0 14 6.256 14 14 0 7.743-6.256 14-14 14-7.743 0-14-6.257-14-14 0-7.744 6.257-14 14-14z" fill="#f9f9f9"/><path d="m25.54 4.087c0 .832-.689 1.504-1.537 1.504-.847 0-1.547-.672-1.547-1.504 0-.831.689-1.503 1.547-1.503.843 0 1.537.672 1.537 1.503m-19.472 14.328c0 .826-.683 1.498-1.532 1.498-.846 0-1.536-.673-1.536-1.498 0-.832.689-1.504 1.537-1.504.847 0 1.532.672 1.532 1.504m38.931 0c0 .826-.689 1.498-1.537 1.498-.847 0-1.537-.672-1.537-1.498 0-.832.688-1.504 1.537-1.504.847 0 1.537.672 1.537 1.504m-7.437 22.388c0 .832-.683 1.504-1.531 1.504-.847 0-1.537-.672-1.537-1.504 0-.826.688-1.498 1.537-1.498.847 0 1.531.672 1.531 1.498m-24.057 0c0 .832-.689 1.504-1.537 1.504-.847 0-1.532-.672-1.532-1.504 0-.826.683-1.498 1.532-1.498.847 0 1.537.672 1.537 1.498m12.034-31.226c0 .831-.689 1.503-1.537 1.503-.847 0-1.547-.672-1.547-1.503 0-.826.689-1.498 1.547-1.498.843 0 1.537.672 1.537 1.498m0 29.23c0 .832-.689 1.504-1.537 1.504-.847 0-1.547-.672-1.547-1.504s.689-1.504 1.547-1.504c.843 0 1.537.672 1.537 1.504m0 0" fill="none" stroke="url(#a)" stroke-width="1.5"/></svg>