<svg viewBox="0 0 48 48" xmlns="http://www.w3.org/2000/svg" xmlns:xlink="http://www.w3.org/1999/xlink"><linearGradient id="a"><stop offset="0" stop-color="#ff6500"/><stop offset="1" stop-color="#ff0056"/></linearGradient><linearGradient id="b" gradientUnits="userSpaceOnUse" x1="2.109" x2="45.154" xlink:href="#a" y1="23.971" y2="23.971"/><linearGradient id="c" gradientUnits="userSpaceOnUse" x1="2.397" x2="45.442" xlink:href="#a" y1="23.971" y2="23.971"/><g fill="url(#b)"><path d="m31.62 22.467v-.394q.223-.908 1.08-1.01h4.557v-10.21h-4.267q-.874-.104-1.096-1.063v-.377q.222-.925 1.096-1.028h5.996q.856.086 1.08 1.028v11.65h4.008q.856.102 1.08 1.01v.394q-.224.942-1.08 1.045h-11.374q-.857-.103-1.08-1.045zm4.523-18.364v-.24q0-.754.6-1.285.6-.531 1.37-.531.754 0 1.354.53.6.532.6 1.286v.24q0 .77-.6 1.302-.6.53-1.354.53-.77 0-1.37-.53-.6-.532-.6-1.302z"/><path d="m19.206 36.786q.326 1.654 1.49 2.982 1.189 1.328 2.843 2.073 1.654.723 3.355.723 2.819 0 4.147-1.724.046-.07.372-.7.35-.628.63-.885.302-.256.861-.326h.862q1.142.117 1.491 1.398v.326q-.396 1.794-1.77 2.982-1.375 1.165-3.238 1.724-1.864.536-3.681.536-2.89 0-5.522-1.351-2.609-1.375-4.216-3.75-1.585-2.4-1.585-5.336v-.35q0-2.795 1.468-5.194 1.468-2.4 3.89-3.798 2.447-1.398 5.242-1.398 3.006 0 5.102 1.328 2.12 1.328 3.215 3.658 1.095 2.306 1.095 5.312v.349q-.35 1.281-1.49 1.421zm.047-3.285h12.09q-.28-2.446-1.7-3.937-1.421-1.514-3.798-1.514-2.353 0-4.193 1.56-1.817 1.562-2.4 3.891z" fill="url(#c)"/><path d="m12.61 24.268q-2.941 0-5.348-1.507-2.382-1.531-3.767-4.083-1.386-2.553-1.386-5.397 0-2.139.778-4.132.778-2.018 2.212-3.598 1.434-1.58 3.33-2.48 1.92-.899 4.181-.899 2.26 0 4.205.924 1.945.9 3.33 2.43 1.386 1.532 2.164 3.525.802 1.994.802 4.23 0 2.844-1.41 5.42-1.385 2.553-3.792 4.06-2.382 1.507-5.299 1.507zm0-3.476q2.893 0 4.692-2.455 1.823-2.455 1.823-5.47 0-1.822-.851-3.475-.826-1.677-2.334-2.698-1.482-1.046-3.33-1.046-1.896 0-3.379 1.046-1.482 1.02-2.333 2.698-.827 1.653-.827 3.476 0 2.99 1.823 5.47 1.823 2.454 4.716 2.454z"/><path d="m8.942 13.788v-.438c0-.92.366-1.703 1.097-2.351.732-.648 1.567-.972 2.508-.972.919 0 1.744.324 2.476.972.73.648 1.097 1.431 1.097 2.35v.44c0 .94-.366 1.734-1.097 2.381-.732.648-1.557.972-2.476.972-.94 0-1.776-.324-2.508-.972-.731-.647-1.097-1.441-1.097-2.382z"/></g></svg>