<svg viewBox="0 0 48 48" xmlns="http://www.w3.org/2000/svg" xmlns:xlink="http://www.w3.org/1999/xlink"><linearGradient id="a" gradientUnits="userSpaceOnUse" x1="5.123572" x2="45.33474928" y1="5.97973504" y2="42.79673608"><stop offset="0" stop-color="#ffeb00"/><stop offset="1" stop-color="#ff2824"/></linearGradient><path d="m27.24 3.594c-16.216 0-24.325 11.352-24.325 21.082s8.109 21.082 24.326 21.082c-9.73-5.788-14.595-12.535-14.595-21.082s4.864-15.294 14.594-21.082zm-1.243 6.487c.946 2.194 2.374 4.646 2.078 8.464-3.182-1.282-7.966-1.468-12.265 3.04 2.376.28 5.202.265 8.361 2.433-2.711 2.108-5.257 6.165-3.496 12.162 1.42-1.907 2.818-4.378 6.234-6.03.467 3.403 2.737 7.647 8.818 9.121-.945-2.194-2.374-4.646-2.077-8.463 3.182 1.28 7.966 1.467 12.265-3.04-2.376-.28-5.203-.265-8.362-2.433 2.712-2.109 5.258-6.166 3.497-12.163-1.42 1.907-2.819 4.378-6.234 6.031-.467-3.404-2.737-7.648-8.819-9.122z" fill="none" stroke="url(#a)" stroke-linecap="round" stroke-linejoin="round" stroke-width="1.8"/></svg>