<svg viewBox="0 0 48 48" xmlns="http://www.w3.org/2000/svg" xmlns:xlink="http://www.w3.org/1999/xlink"><linearGradient id="a"><stop offset="0" stop-color="#f40"/><stop offset="1" stop-color="#ff244e"/></linearGradient><linearGradient id="b" gradientUnits="userSpaceOnUse" x1="2.211" x2="47.01" xlink:href="#a" y1="24" y2="24"/><linearGradient id="c" gradientUnits="userSpaceOnUse" x1="26.968" x2="35.493" xlink:href="#a" y1="24.419" y2="24.419"/><g fill="none" stroke="url(#b)" stroke-linecap="round" stroke-linejoin="round"><path d="m30.663 20.88-.18.915c-.223.06-.435.15-.632.258l-.812-.515-.787.76.529.787a2.62 2.62 0 0 0 -.258.605l-.94.181v1.096l.94.18c.062.216.146.429.258.62l-.529.773.787.773.812-.528c.197.108.41.198.631.258l.181.915h1.135l.18-.915c.223-.06.435-.15.632-.258l.812.528.786-.773-.528-.774c.111-.19.196-.403.258-.619l.94-.18v-1.097l-.94-.18a2.597 2.597 0 0 0 -.258-.606l.528-.787-.786-.76-.812.515a2.864 2.864 0 0 0 -.632-.258l-.18-.915z" stroke="url(#c)" stroke-width="1.228"/><path d="m27.436 2.918c-16.217 0-24.326 11.352-24.326 21.082s8.108 21.082 24.325 21.082c-9.729-5.788-14.595-12.535-14.595-21.082s4.866-15.294 14.596-21.082zm-1.244 6.487c.946 2.194 2.375 4.646 2.078 8.463-3.182-1.28-7.966-1.467-12.265 3.041 2.376.279 5.202.264 8.361 2.433-2.711 2.108-5.257 6.165-3.496 12.162 1.42-1.907 2.819-4.378 6.234-6.03.467 3.403 2.737 7.647 8.819 9.121-.946-2.194-2.375-4.646-2.078-8.463 3.182 1.28 7.966 1.467 12.265-3.041-2.376-.279-5.202-.264-8.361-2.433 2.711-2.108 5.257-6.165 3.496-12.162-1.42 1.907-2.819 4.378-6.234 6.03-.467-3.403-2.737-7.647-8.819-9.121z" stroke-width="1.8"/></g></svg>