<svg width="64" height="64" viewBox="0 0 64 64" fill="none" xmlns="http://www.w3.org/2000/svg">
<path fill-rule="evenodd" clip-rule="evenodd" d="M28.2212 9.21387C13.3253 9.21387 1 20.7285 1 35.0518C1 49.3617 13.3082 61.0003 28.2212 61.0003C43.1306 61.0003 55.3263 49.3638 55.3263 35.0518C55.3263 33.5389 54.0519 32.396 52.5861 32.396H30.9615V11.8697C30.9615 10.3566 29.687 9.21387 28.2212 9.21387ZM28.1017 36.7029L28.2212 37.7066C26.7547 37.7076 25.4809 36.5644 25.4809 35.0518V14.6877C14.7407 15.9674 6.48069 24.6539 6.48069 35.0518C6.48069 46.3838 16.1868 55.6885 28.2212 55.6885C39.2359 55.6885 48.3011 47.8036 49.6674 37.7066L28.2222 37.7066L28.1027 36.703L28.1017 36.7029Z" fill="url(#paint0_linear)"/>
<path fill-rule="evenodd" clip-rule="evenodd" d="M33.0786 5.13503C33.0786 3.9345 34.0947 3 35.299 3C35.4015 3 35.5038 3.00056 35.606 3.00167C35.6327 3.00056 35.6595 3 35.6864 3C50.7173 3 63.0002 14.6856 63.0002 28.988C63.0002 29.9406 62.1885 30.7129 61.1873 30.7129H35.6864C35.3845 30.7129 35.0999 30.6427 34.8495 30.5185C33.8522 30.3201 33.0786 29.4751 33.0786 28.4276V5.13503ZM37.7513 6.77968V25.6978H57.679C56.6243 15.7406 48.2636 7.77331 37.7513 6.77968Z" fill="url(#paint1_linear)"/>
<defs>
<linearGradient id="paint0_linear" x1="28.1632" y1="60.0002" x2="28.1632" y2="10.2139" gradientUnits="userSpaceOnUse">
<stop stop-color="#02AA93"/>
<stop offset="1" stop-color="#67FF80"/>
</linearGradient>
<linearGradient id="paint1_linear" x1="48.0394" y1="30.7129" x2="48.0394" y2="3" gradientUnits="userSpaceOnUse">
<stop stop-color="#02AA93"/>
<stop offset="1" stop-color="#67FF80"/>
</linearGradient>
</defs>
</svg>
