<svg viewBox="0 0 48 48" xmlns="http://www.w3.org/2000/svg" xmlns:xlink="http://www.w3.org/1999/xlink"><linearGradient id="a" gradientTransform="matrix(0 -1 1 0 0 48)" gradientUnits="userSpaceOnUse" x1="1" x2="47"><stop offset="0" stop-color="#ce6b20"/><stop offset="1" stop-color="#dd7425"/></linearGradient><linearGradient id="b" gradientUnits="userSpaceOnUse" x1="3.871" x2="10.516" y1="6.393" y2="6.393"><stop offset="0" stop-color="#ff6e00"/><stop offset="1" stop-color="#ff0062"/></linearGradient><path d="m4.618 2.725a.244.244 0 0 0 -.247.247v6.844c0 .139.108.247.247.247h5.152a.244.244 0 0 0 .247-.247v-5.398l-1.694-1.693" fill="none" stroke="url(#b)" stroke-linecap="round" stroke-linejoin="round" stroke-width=".606" transform="matrix(4.82656 0 0 4.82656 -10.027 -6.625)"/><path d="m28.62 6.526v8.172h8.172" fill="#ff1252"/><path d="m36.797 22.874v-8.171h-8.171" fill-opacity=".2"/><path d="m24.836 15.342c-.688 0-1.301.431-1.536 1.077a1.634 1.634 0 0 0 -2.659 1.538 1.634 1.634 0 0 0 -1.92 1.606c.001.384.137.757.385 1.05a1.635 1.635 0 0 0 -.002 3.073 1.634 1.634 0 0 0 1.538 2.659c-.018.095-.026.19-.028.287a1.634 1.634 0 0 0 1.499 1.626v7.513l2.724-2.724 2.724 2.724v-7.513a1.635 1.635 0 0 0 1.471-1.913 1.634 1.634 0 0 0 1.92-1.606 1.636 1.636 0 0 0 -.384-1.05 1.635 1.635 0 0 0 .002-3.073 1.634 1.634 0 0 0 -1.538-2.659 1.634 1.634 0 0 0 -1.606-1.92 1.636 1.636 0 0 0 -1.05.385 1.635 1.635 0 0 0 -1.538-1.08m0 2.724a4.086 4.086 0 1 1 0 8.172 4.086 4.086 0 0 1 0-8.172zm0 1.362a2.724 2.724 0 1 0 0 5.449 2.724 2.724 0 1 0 0-5.449z" fill="#f02"/><path d="m31.37-57.503c5.86 4.062 9.688 10.83 9.688 18.5 0 12.426-10.07 22.5-22.5 22.5-7.669 0-14.438-3.828-18.5-9.688a23.24 23.24 0 0 0 3.781 4.969 22.923 22.923 0 0 0 15.47 5.969c12.702 0 23-10.298 23-23a22.92 22.92 0 0 0 -5.97-15.47 23.216 23.216 0 0 0 -4.969-3.78zm4.97 3.78a22.911 22.911 0 0 1 6.218 15.72c0 12.703-10.297 23-23 23a22.909 22.909 0 0 1 -15.719-6.22c4.16 4.145 9.883 6.72 16.22 6.72 12.702 0 23-10.298 23-23 0-6.335-2.576-12.06-6.72-16.22z" opacity=".05"/><path d="m36.34-53.722a22.923 22.923 0 0 1 5.97 15.469c0 12.703-10.298 23-23 23a22.92 22.92 0 0 1 -15.47-5.97 22.911 22.911 0 0 0 15.72 6.22c12.702 0 23-10.298 23-23a22.909 22.909 0 0 0 -6.22-15.72z" opacity=".1"/><path d="m26.31-60.128c8.615 3.154 14.75 11.417 14.75 21.13 0 12.426-10.07 22.5-22.5 22.5-9.708 0-17.97-6.135-21.12-14.75a23 23 0 0 0 44.875-7 23 23 0 0 0 -16-21.875z" opacity=".2"/><path d="m24 1c12.703 0 23 10.297 23 23s-10.297 23-23 23-23-10.297-23-23 10.297-23 23-23z" fill="url(#a)" transform="translate(-4.94 -62.503)"/><path d="m35.09-54.972a22.922 22.922 0 0 1 5.97 15.469c0 12.703-10.298 23-23 23a22.92 22.92 0 0 1 -15.47-5.97c4.178 4.292 10.01 6.97 16.47 6.97 12.702 0 23-10.298 23-23 0-6.462-2.678-12.291-6.97-16.47z" opacity=".1"/><path d="m10.935-50.504a.864.864 0 0 0 -.875.875v24.25c0 .493.382.876.875.876h18.251a.864.864 0 0 0 .875-.876v-19.123l-5.998-5.998h-13.125z" opacity=".1"/><path d="m9.935-51.507a.864.864 0 0 0 -.875.875v24.25c0 .493.383.876.875.876h18.252a.864.864 0 0 0 .875-.875v-19.127l-5.999-5.999" fill="#e8e8d9"/><path d="m23.06-51.507v5.999h5.999" fill="#fff"/><path d="m29.062-39.506v-5.999h-5.999" fill-opacity=".2"/><path d="m19.06-44.503a1.2 1.2 0 0 0 -1.127.79 1.2 1.2 0 0 0 -1.952 1.129 1.2 1.2 0 0 0 -1.127 1.95 1.2 1.2 0 0 0 -.002 2.257 1.2 1.2 0 0 0 1.129 1.952 1.2 1.2 0 0 0 1.08 1.404v5.516l2-2 2 2v-5.516a1.2 1.2 0 0 0 1.08-1.404 1.2 1.2 0 0 0 1.127-1.95 1.2 1.2 0 0 0 .002-2.256 1.2 1.2 0 0 0 -1.129-1.952 1.2 1.2 0 0 0 -1.95-1.127 1.2 1.2 0 0 0 -1.129-.793m0 2a3 3 0 1 1 0 6 3 3 0 0 1 0-6zm0 1a2 2 0 1 0 0 3.999 2 2 0 0 0 0-4z" fill="#aa2c2c"/></svg>