<svg id="Capa_1" enable-background="new 0 0 511.923 511.923" height="512" viewBox="0 0 511.923 511.923" width="512" xmlns="http://www.w3.org/2000/svg" xmlns:xlink="http://www.w3.org/1999/xlink"><linearGradient id="SVGID_1_" gradientUnits="userSpaceOnUse" x1="4.393" x2="463.673" y1="507.529" y2="48.25"><stop offset="0" stop-color="#fd5900"/><stop offset="1" stop-color="#ffde00"/></linearGradient><g><g><path d="m463.673 48.25c-64.334-64.333-169.013-64.333-233.345 0-43.934 43.934-59.193 108.694-40.186 167.437l-58.726 58.475c-2.827 2.815-4.416 6.64-4.416 10.629v27.132h-27c-8.284 0-15 6.716-15 15v28h-27c-8.284 0-15 6.716-15 15v27h-28c-8.284 0-15 6.716-15 15v85c0 8.284 6.716 15 15 15h84.853c3.978 0 7.793-1.581 10.606-4.394l185.755-185.755c58.381 18.899 123.249 4.03 167.458-40.179 64.334-64.334 64.334-169.012.001-233.345zm-21.213 212.132c-37.86 37.859-94.65 49.677-144.681 30.109-5.547-2.17-11.856-.851-16.07 3.363l-188.069 188.069h-63.64v-55h28c8.284 0 15-6.716 15-15v-27h27c8.284 0 15-6.716 15-15v-28h27c8.284 0 15-6.716 15-15v-35.9l61.046-60.786c4.23-4.213 5.56-10.533 3.385-16.094-19.569-50.03-7.75-106.82 30.109-144.681 52.638-52.636 138.283-52.635 190.919 0 52.637 52.637 52.637 138.283.001 190.92zm-137.886-74.247c-5.858 5.858-5.858 15.355 0 21.213s15.355 5.858 21.213 0 5.858-15.355 0-21.213c-5.858-5.857-15.355-5.857-21.213 0zm106.066-84.852c-25.461-25.461-59.362-39.484-95.459-39.484-8.284 0-15 6.716-15 15s6.716 15 15 15c28.083 0 54.451 10.902 74.246 30.697s30.696 46.163 30.696 74.247c0 8.284 6.716 15 15 15s15-6.716 15-15c0-36.098-14.022-69.999-39.483-95.46zm-95.459 20.459c-8.284 0-15 6.716-15 15s6.716 15 15 15c12.02 0 23.319 4.681 31.819 13.18 8.5 8.5 13.181 19.801 13.181 31.82 0 8.284 6.716 15 15 15s15-6.716 15-15c0-20.033-7.802-38.867-21.968-53.034-14.166-14.164-33-21.966-53.032-21.966z" fill="url(#SVGID_1_)"/></g></g></svg>