<?xml version="1.0" encoding="UTF-8" standalone="no"?>
<!-- Generator: Gravit.io -->

<svg
   xmlns:dc="http://purl.org/dc/elements/1.1/"
   xmlns:cc="http://creativecommons.org/ns#"
   xmlns:rdf="http://www.w3.org/1999/02/22-rdf-syntax-ns#"
   xmlns:svg="http://www.w3.org/2000/svg"
   xmlns="http://www.w3.org/2000/svg"
   xmlns:xlink="http://www.w3.org/1999/xlink"
   xmlns:sodipodi="http://sodipodi.sourceforge.net/DTD/sodipodi-0.dtd"
   xmlns:inkscape="http://www.inkscape.org/namespaces/inkscape"
   style="isolation:isolate"
   viewBox="0 0 48 48"
   width="48"
   height="48"
   version="1.1"
   id="svg23"
   sodipodi:docname="persepolis.svg"
   inkscape:version="0.92.4 (unknown)">
  <metadata
     id="metadata27">
    <rdf:RDF>
      <cc:Work
         rdf:about="">
        <dc:format>image/svg+xml</dc:format>
        <dc:type
           rdf:resource="http://purl.org/dc/dcmitype/StillImage" />
      </cc:Work>
    </rdf:RDF>
  </metadata>
  <sodipodi:namedview
     pagecolor="#ffffff"
     bordercolor="#666666"
     borderopacity="1"
     objecttolerance="10"
     gridtolerance="10"
     guidetolerance="10"
     inkscape:pageopacity="0"
     inkscape:pageshadow="2"
     inkscape:window-width="640"
     inkscape:window-height="480"
     id="namedview25"
     showgrid="false"
     showguides="true"
     inkscape:guide-bbox="true"
     inkscape:snap-bbox="true"
     inkscape:bbox-paths="true"
     inkscape:bbox-nodes="true"
     inkscape:snap-bbox-edge-midpoints="true"
     inkscape:snap-bbox-midpoints="true"
     inkscape:object-paths="true"
     inkscape:snap-intersection-paths="true"
     inkscape:snap-smooth-nodes="true"
     inkscape:snap-midpoints="true"
     inkscape:snap-object-midpoints="true"
     inkscape:snap-center="true"
     inkscape:zoom="6.3391882"
     inkscape:cx="10.934158"
     inkscape:cy="29.604178"
     inkscape:current-layer="svg23" />
  <defs
     id="defs5">
    <linearGradient
       inkscape:collect="always"
       id="linearGradient862">
      <stop
         style="stop-color:#b50000;stop-opacity:1;"
         offset="0"
         id="stop858" />
      <stop
         style="stop-color:#ff4141;stop-opacity:1"
         offset="1"
         id="stop860" />
    </linearGradient>
    <clipPath
       id="_clipPath_Sd08GpmkdqIAy1UR239YV2vyPFIZuRyU">
      <rect
         width="48"
         height="48"
         id="rect2" />
    </clipPath>
    <linearGradient
       inkscape:collect="always"
       xlink:href="#linearGradient862"
       id="linearGradient864"
       x1="30.527979"
       y1="35.303959"
       x2="6.3813939"
       y2="21.997744"
       gradientUnits="userSpaceOnUse" />
  </defs>
  <g
     id="g870"
     transform="translate(1.1068874,0.41456845)">
    <path
       inkscape:connector-curvature="0"
       id="path817"
       d="M 9.1549026,19.050928 9.3226531,17.755155 9.1610065,16.510897 c -0.088902,-0.684322 -0.1461506,-1.259679 -0.1272114,-1.27869 0.018936,-0.0189 0.1057437,0.0076 0.1929071,0.07672 0.2501783,0.176504 0.9496048,0.514356 1.5018798,0.725329 0.628211,0.239622 1.744261,0.54293 1.793121,0.486312 0.01999,-0.0189 0.10235,-0.545575 0.183058,-1.161562 l 0.146743,-1.120025 -0.146692,-1.137789 c -0.08069,-0.625508 -0.152746,-1.145268 -0.160142,-1.154528 -0.02204,-0.02646 -1.0928,0.253606 -1.579082,0.415218 -0.524804,0.173859 -1.2801921,0.516284 -1.6739758,0.758665 -0.1512605,0.09298 -0.2825083,0.169323 -0.2916699,0.169323 -0.00915,0 0.053696,-0.51428 0.139612,-1.143005 0.085943,-0.628838 0.1579918,-1.24456 0.1601348,-1.368756 C 9.3018219,10.654141 9.2347984,10.025681 9.1507568,9.381914 9.0667152,8.7383738 9.0113754,8.1980526 9.0277785,8.1816494 c 0.016403,-0.00756 0.2243225,0.087307 0.4620265,0.2301733 1.538007,0.9244346 3.852256,1.4486551 8.446558,1.9133103 2.221592,0.224504 3.250365,0.35452 3.201309,0.402898 -0.0501,0.05329 -1.668707,0.267968 -3.537068,0.475086 -2.396057,0.266835 -3.068782,0.353008 -4.002015,0.516284 l -0.702141,0.122456 0.14639,0.125859 c 0.50647,0.435628 2.000773,1.220485 2.890395,1.51816 0.583862,0.195024 1.999805,0.504378 3.013233,0.656882 0.328529,0.04762 0.441063,0.08579 0.366882,0.115654 -0.05883,0.02646 -0.615,0.147401 -1.235875,0.272881 -2.500295,0.508309 -3.247796,0.786823 -4.71728,1.757405 l -0.531965,0.351496 0.197553,0.04762 c 0.970923,0.218457 2.716642,0.450407 6.312251,0.840907 0.879568,0.09487 1.65178,0.193512 1.716025,0.216945 0.08209,0.03024 -0.05769,0.0703 -0.470349,0.135307 -0.976855,0.153827 -1.365656,0.202205 -3.07067,0.37973 -2.8704,0.299716 -4.285449,0.518324 -5.64435,0.873146 -1.063519,0.277795 -1.9275008,0.622261 -2.5377751,1.012724 -0.173144,0.110741 -0.3213279,0.201071 -0.3292838,0.201071 -0.00797,0 0.061024,-0.582954 0.1532787,-1.29566 z"
       style="opacity:1;vector-effect:none;fill:#b50000;fill-opacity:1;fill-rule:evenodd;stroke:none;stroke-width:4.87786674;stroke-linecap:butt;stroke-linejoin:miter;stroke-miterlimit:4;stroke-dasharray:none;stroke-dashoffset:0;stroke-opacity:1;paint-order:normal" />
    <path
       inkscape:connector-curvature="0"
       id="path819"
       d="M 11.397796,26.377769 C 11.059233,24.683974 10.930567,24.12725 10.756628,23.603672 10.45552,22.697227 9.967439,21.776761 9.3046837,20.865631 9.1399266,20.638859 9.0144387,20.446594 9.0258226,20.438506 c 0.011376,-0.0076 0.5921828,0.05972 1.2906714,0.154583 l 1.26998,0.170079 1.258642,-0.158741 c 0.692253,-0.08731 1.270564,-0.146267 1.285135,-0.131905 0.01459,0.0076 -0.160466,0.303118 -0.388981,0.641575 -1.148809,1.700863 -1.521296,2.663622 -1.897554,4.904919 -0.09902,0.589493 -0.198345,1.119497 -0.22072,1.177097 -0.02615,0.06765 -0.106568,-0.22526 -0.225192,-0.818495 z"
       style="opacity:1;vector-effect:none;fill:#b50000;fill-opacity:1;fill-rule:evenodd;stroke:none;stroke-width:4.87786674;stroke-linecap:butt;stroke-linejoin:miter;stroke-miterlimit:4;stroke-dasharray:none;stroke-dashoffset:0;stroke-opacity:1;paint-order:normal" />
    <path
       inkscape:connector-curvature="0"
       id="path821"
       d="m 18.419632,26.228327 c -0.532431,-2.721109 -0.832111,-3.534463 -1.868525,-5.071786 -0.264287,-0.392466 -0.473473,-0.717544 -0.464846,-0.723288 0.0086,-0.0034 0.587173,0.0669 1.285664,0.159118 l 1.269979,0.170078 1.258022,-0.15874 c 0.691912,-0.08731 1.271699,-0.145512 1.288414,-0.128882 0.01671,0.02268 -0.09577,0.203717 -0.249955,0.416164 -0.154193,0.21241 -0.419304,0.614892 -0.589138,0.894085 -0.81291,1.337348 -1.091759,2.159471 -1.484575,4.376655 -0.112528,0.634885 -0.209719,1.160089 -0.215988,1.166514 -0.0063,0.0076 -0.109336,-0.488995 -0.229051,-1.100636 z"
       style="opacity:1;vector-effect:none;fill:#b50000;fill-opacity:1;fill-rule:evenodd;stroke:none;stroke-width:4.87786674;stroke-linecap:butt;stroke-linejoin:miter;stroke-miterlimit:4;stroke-dasharray:none;stroke-dashoffset:0;stroke-opacity:1;paint-order:normal" />
    <path
       sodipodi:nodetypes="ccsccssscccccccccccccccccssccccccccccccscccccccccccccccccccccscccccccssccccccccc"
       inkscape:connector-curvature="0"
       id="rect891-47-5"
       d="m 3.9996032,2.0147919 v 0.0137 c -1.10457,0 -2,0.89543 -2,2 v 7.1003301 4 4 c 0,1.10457 0.89543,2 2,2 1.10457,0 2,-0.89543 2,-2 v -4 -4 -5.1140001 h 1.0039064 0.9960937 3.0039067 3.999999 4 4 4 4 1.042969 v 5.1140001 4 4 4 4 3.96679 c 0,1.10457 0.89543,2 2,2 h 2.912109 l -2.242187,2.24219 -2.828125,2.82813 0.0078,0.008 -2.177734,2.17969 -1.410156,-1.41016 -2.828125,-2.82812 -2.828125,-2.82813 -0.191406,-0.19141 h 3.197265 v -4 h -4 -4 c -1.104569,0 -2,0.89543 -2,2 5.98e-4,0.52973 0.211325,1.03758 0.585938,1.41211 l -0.002,0.002 0.765625,0.76367 -0.01367,0.0137 2.828125,2.82813 2.830078,2.82812 2.828125,2.82813 2.792969,2.79297 c 0.0045,0.005 0.0091,0.0104 0.01367,0.0156 l 0.02148,0.0195 c 0.37501,0.37509 0.883659,0.58586 1.414062,0.58594 0.530403,-8e-5 1.039052,-0.21085 1.414063,-0.58594 l 2.828125,-2.82812 -0.0039,-0.004 0.765625,-0.76367 -0.0098,-0.01 2.828125,-2.82812 2.828125,-2.82813 2.808594,-2.80859 c 0.387086,-0.37653 0.605462,-0.89359 0.605469,-1.4336 0,-1.10457 -0.89543,-2 -2,-2 h -3.740235 -2 v -2 -3.96679 -4 -4 -4 -7.1140001 c 0,-1.10457 -0.919017,-2.22705 -2,-2 h -3.042969 -4 -4 -4 -4 -3.999954 -3.0039066 -0.9960937 z"
       style="opacity:1;vector-effect:none;fill:url(#linearGradient864);fill-opacity:1;fill-rule:evenodd;stroke:none;stroke-width:4.87786674;stroke-linecap:butt;stroke-linejoin:miter;stroke-miterlimit:4;stroke-dasharray:none;stroke-dashoffset:0;stroke-opacity:1;paint-order:normal" />
  </g>
</svg>
