<svg viewBox="0 0 48 48" xmlns="http://www.w3.org/2000/svg" xmlns:xlink="http://www.w3.org/1999/xlink"><linearGradient id="a" gradientUnits="userSpaceOnUse" x1="10.48619391" x2="35.25939996" y1="15.09477535" y2="44.83335391"><stop offset="0" stop-color="#0de6e6"/><stop offset="1" stop-color="#002cff"/></linearGradient><path d="m24 2.09c-5.646.011-6.997 7.881-1.678 9.776v5.327h-7.552a.837.837 0 0 0 -.84.838v1.678a.837.837 0 0 0 .84.84h7.552v16.78a1.68 1.68 0 0 1 -1.679 1.68h-.838c-1.259 0-4.996-1.444-7.283-2.587-2.827-1.413-2.83-2.118-2.642-2.449.568-1.004 1.534-.167 1.534-.167s.34-1.511-1.678-3.189c-.675-.56-2.076-1.27-2.518-1.678-.877-.812-.861-1.678-1.341-1.678-.625 0-2.014 3.066-2.014 5.034 0 1.966 0 4.147 1.678 5.035 0-.764.673-1.678 1.677-1.173.467.235 2.711 1.727 5.173 3.273 3.638 2.288 9.154 2.987 11.609 6.29 2.455-3.305 7.971-4.002 11.61-6.289 2.46-1.547 4.726-3 5.172-3.274.818-.505 1.677-.505 1.677 1.173 1.678-.888 1.678-3.07 1.678-5.035 0-1.968-1.557-5.033-2.181-5.033-.453 0-.297.865-1.174 1.677-.442.409-1.843 1.117-2.518 1.678-2.018 1.678-1.678 3.188-1.678 3.188s.966-.837 1.534.168c.186.33.185 1.036-2.642 2.449-2.287 1.143-6.024 2.586-7.283 2.586h-.838a1.678 1.678 0 0 1 -1.679-1.678v-16.782h7.55a.837.837 0 0 0 .84-.839v-1.678c0-.465-.387-.739-.84-.838h-7.552v-5.33a5.034 5.034 0 0 0 3.356-4.74 5.034 5.034 0 0 0 -5.032-5.033" fill="none" stroke="url(#a)" stroke-linecap="round" stroke-linejoin="round" stroke-width="1.932"/></svg>