<svg viewBox="0 0 48 48" xmlns="http://www.w3.org/2000/svg" xmlns:xlink="http://www.w3.org/1999/xlink"><linearGradient id="a" gradientUnits="userSpaceOnUse" x1="-492.899" x2="-107.096" y1="83.576" y2="468.605"><stop offset="0" stop-color="#ff00ae"/><stop offset="1" stop-color="#f01116"/></linearGradient><g stroke-linecap="round" stroke-linejoin="round"><path d="m8.129 3.445 1.709 8.576c-.656-.555-1.635-.91-2.731-.91-1.976 0-3.578 1.144-3.578 2.555 0 1.41 1.602 2.555 3.578 2.555 1.975 0 3.577-1.144 3.577-2.555-.311-2.52-.68-5.12-1.022-7.666 0 0 2.044 0 3.066.511 1.648.824 2.555 2.555 2.555 2.555v-3.576s-1.533-1.022-3.577-1.533-3.577-.511-3.577-.511z" fill="#fa0580" stroke="#fb0581" stroke-width=".511"/><g fill="none" stroke="url(#a)" stroke-width="18.358" transform="matrix(.1035 0 0 .1035 55.787 -4.376)"><path d="m-132.015 65.944c-19.404 0-35.192 15.787-35.192 35.192 0 4.535.87 8.866 2.44 12.85-13.632 15.722-22.496 36.918-26.574 53.206a71.714 71.714 0 0 0 -16.131-1.85c-5.547 0-10.941.654-16.13 1.85-4.078-16.288-12.942-37.483-26.574-53.206a34.978 34.978 0 0 0 2.44-12.85c0-19.405-15.788-35.192-35.192-35.192-19.405 0-35.192 15.787-35.192 35.192s15.787 35.192 35.192 35.192a34.988 34.988 0 0 0 14.984-3.357c11.069 13.825 17.988 33.208 20.28 44.711-14.698 9.97-25.5 25.25-29.674 43.056-18.164-7.579-37.835-11.53-57.822-11.53-69.909 0-129.74 47.7-143.32 113.804-5.421 8.546-9.617 18.146-12.429 28.524-5.697 7.872-9.138 18.01-9.138 29.068 0 10.503 3.108 20.174 8.302 27.864 9.858 41.313 41.393 69.946 77.475 69.946 4.355 0 8.651-.412 12.862-1.21 9.38 4.828 22.68 10.543 41.943 10.543h117.748c39.909 0 67.808-8.544 85.291-26.118 21.015-21.126 20.865-49.759 20.766-68.705-.007-1.288-.014-2.547-.014-3.77l-.022-152.034c0-24.696-12.539-46.516-31.581-59.436 2.29-11.503 9.21-30.886 20.28-44.71a34.977 34.977 0 0 0 14.984 3.357c19.404 0 35.192-15.787 35.192-35.193 0-19.405-15.79-35.194-35.194-35.194z"/><path d="m-293.099 424.408c-9.237 8.86-26.28 13.35-50.652 13.35-2.436 0-4.668-.16-6.746-.432a64.464 64.464 0 0 0 9.101-8.85c11.067-13.076 17.162-30.342 17.162-48.621s-6.095-35.546-17.162-48.62c-11.56-13.658-27.114-21.179-43.798-21.179a54.2 54.2 0 0 0 -17.012 2.726c16.27-23.51 44.849-38.687 76.836-38.687 14.797 0 29.3 3.297 42.28 9.559v101.613c0 .914.006 1.854.011 2.817.069 12.457.146 26.576-10.02 36.324zm119.341-155.663.016 114.968c0 .958.005 1.943.011 2.953.069 13.06.146 27.861-10.02 38.08-9.238 9.287-26.28 13.994-50.652 13.994h-24.767l.222-.222c15.892-15.975 15.778-37.627 15.704-51.955-.005-.974-.011-1.926-.011-2.852v-114.967c0-19.16 15.588-34.748 34.748-34.748s34.749 15.588 34.749 34.75z"/><path d="m-413.44 437.25c-13.114 0-25.177-6.624-33.02-17.253 15.192-1.433 27.105-13.834 27.105-28.873 0-14.708-11.396-26.887-26.109-28.757 7.896-9.888 19.579-16.03 32.023-16.03 23.251 0 42.167 20.393 42.167 45.457s-18.917 45.456-42.167 45.456z"/></g></g></svg>