<svg width="128" height="128" viewBox="0 0 128 128" fill="none" xmlns="http://www.w3.org/2000/svg">
<path d="M22.8041 5.1728C23.173 2.24499 25.695 -0.136802 28.3972 0.0232397C39.8235 -0.0144171 51.2584 0.0138253 62.6933 0.0138253C65.121 -0.174459 67.2398 1.586 68.5008 3.73243C80.622 22.655 92.8118 41.5304 104.873 60.4906C106.4 62.4111 106.357 65.386 104.856 67.3159C92.6745 86.2856 80.3303 105.152 68.132 124.112C66.8452 125.995 65.0266 128.019 62.7362 128C50.9753 127.99 39.2059 128.009 27.445 127.99C23.6276 127.896 20.2135 122.502 23.0443 118.906C31.3396 105.792 39.8321 92.819 48.2131 79.7709C49.5342 77.2668 52.6996 75.9394 55.0586 77.5209C57.8723 78.9048 58.1296 83.3201 56.4655 85.8148C49.7915 96.1516 43.1347 106.498 36.4522 116.825C44.5673 116.515 52.7253 117.051 60.8147 116.571C72.2067 98.9477 83.7016 81.409 94.9821 63.7103C83.4957 46.2752 72.3697 28.5577 61.0463 11.0002C53.0942 11.0943 45.1335 11.2261 37.19 10.9249C43.6323 21.497 50.4692 31.7867 56.9716 42.3118C58.4299 44.7689 57.838 48.6193 55.3503 49.975C53.077 51.7543 49.903 50.3421 48.5133 47.9509C40.5269 35.383 32.5577 22.7962 24.5455 10.2376C23.662 8.72196 22.6326 7.06506 22.8041 5.1728Z" fill="url(#paint0_linear)"/>
<defs>
<linearGradient id="paint0_linear" x1="64" y1="128" x2="64" y2="0" gradientUnits="userSpaceOnUse">
<stop stop-color="#FD2E00"/>
<stop offset="1" stop-color="#FF9900"/>
</linearGradient>
</defs>
</svg>
