<svg id="Capa_1" enable-background="new 0 0 512 512" height="512" viewBox="0 0 512 512" width="512" xmlns="http://www.w3.org/2000/svg" xmlns:xlink="http://www.w3.org/1999/xlink"><linearGradient id="SVGID_1_" gradientUnits="userSpaceOnUse" x1="25.606" x2="459.222" y1="486.395" y2="52.778"><stop offset="0" stop-color="#a93aff"/><stop offset="1" stop-color="#ff81ff"/></linearGradient><g><g><path d="m332 0c-99.258 0-180 80.742-180 180 0 44.242 16.113 84.743 42.686 116.118l-33.677 33.677-10.605-10.605c-5.859-5.859-15.352-5.859-21.211 0l-124.798 124.783c-2.813 2.812-4.395 6.621-4.395 10.605s1.582 7.793 4.395 10.605l42.422 42.422c2.93 2.93 6.768 4.395 10.605 4.395s7.676-1.465 10.605-4.395l124.798-124.783c5.86-5.86 5.856-15.355 0-21.211l-10.605-10.605 33.677-33.677c31.373 26.565 71.868 42.671 116.103 42.671 99.258 0 180-80.742 180-180s-80.742-180-180-180zm-274.578 475.789-21.211-21.211 103.587-103.572 21.211 21.211zm274.578-145.789c-82.705 0-150-67.295-150-150s67.295-150 150-150 150 67.295 150 150-67.295 150-150 150zm0-270c-66.167 0-120 53.833-120 120s53.833 120 120 120 120-53.833 120-120-53.833-120-120-120zm0 210c-49.629 0-90-40.371-90-90s40.371-90 90-90 90 40.371 90 90-40.371 90-90 90z" fill="url(#SVGID_1_)"/></g></g></svg>