<svg width="128" height="128" viewBox="0 0 128 128" fill="none" xmlns="http://www.w3.org/2000/svg">
<path d="M97.75 0H30.25C28.1772 0 26.5 1.67725 26.5 3.75V124.25C26.5 126.323 28.1772 128 30.25 128H97.75C99.8228 128 101.5 126.323 101.5 124.25V3.75C101.5 1.67725 99.8228 0 97.75 0ZM94 120.5H34V7.5H94V120.5ZM42.13 76.2013C43.2605 77.8998 45.5762 78.404 47.3302 77.2412L56.5 71.1275V94.12C56.5 96.6315 59.5545 99.072 62.33 97.24L84.83 82.24C85.8738 81.5443 86.5 80.3723 86.5 79.12C86.5 77.8678 85.8738 76.6957 84.83 76L67.0103 64.12L84.83 52.24C85.8738 51.5442 86.5 50.3723 86.5 49.12C86.5 47.8678 85.8738 46.6957 84.83 46L62.33 31C59.89 29.3733 56.5 31.239 56.5 34.12V57.1125L47.33 50.9985C45.5978 49.8523 43.2725 50.31 42.1297 52.0385C40.9797 53.7597 41.445 56.0888 43.1698 57.2388L53.4897 64.12L43.17 71.001C41.445 72.151 40.98 74.48 42.13 76.2013ZM64 41.127L75.9898 49.12L64 57.113V41.127ZM64 71.127L75.9898 79.12L64 87.113V71.127Z" fill="url(#paint0_linear)"/>
<defs>
<linearGradient id="paint0_linear" x1="64" y1="128" x2="64" y2="0" gradientUnits="userSpaceOnUse">
<stop stop-color="#FD5900"/>
<stop offset="1" stop-color="#FFDE00"/>
</linearGradient>
</defs>
</svg>
