<svg width="192" height="192" viewBox="0 0 192 192" fill="none" xmlns="http://www.w3.org/2000/svg">
<path d="M71.5546 26.9201L71.5605 26.918C91.4071 19.9201 114.292 22.1137 132.354 32.9223C134.879 34.6307 138.635 35.4235 141.524 33.3371C143.695 31.9622 144.734 29.5107 144.727 27.152C144.721 24.7849 143.66 22.337 141.417 21.0066C124.185 10.1641 103.049 6.02046 82.9589 8.87671C58.7003 12.2169 36.2483 26.3687 22.7173 46.7693C3.68731 74.6436 2.94036 113.828 21.4783 142.126L21.5008 142.161L21.526 142.193C23.2365 144.388 25.9934 145.083 28.4517 144.649C30.8961 144.217 33.2395 142.635 34.1245 140.036C34.8575 138.302 34.7005 136.608 34.2021 135.083C33.7121 133.584 32.8661 132.174 32.1506 130.982L32.1415 130.967C20.3568 110.421 19.8543 83.9934 30.6097 62.9179L30.6098 62.918L30.6133 62.9109C38.9532 46.2429 53.9436 33.0056 71.5546 26.9201Z" fill="url(#paint0_linear)" stroke="url(#paint1_linear)" stroke-width="2"/>
<path d="M118.694 93.7479L118.683 93.7474L118.672 93.7471C111.499 93.5847 104.284 93.6089 97.0859 93.633C92.2257 93.6493 87.3729 93.6656 82.5458 93.6244C84.831 86.3667 87.1409 79.1076 89.4514 71.8466C92.5246 62.1886 95.5988 52.5273 98.6176 42.8615C99.7287 39.6936 98.4476 35.905 95.5069 34.1688C93.4551 32.822 90.949 32.7757 88.8548 33.6082C86.7645 34.4392 84.9766 36.1886 84.4053 38.5706C79.3788 54.2768 74.3877 70.0117 69.3988 85.7397C68.1034 89.8238 66.808 93.9074 65.5123 97.9899C64.4285 100.358 64.8031 103.02 66.0554 105.055C67.3186 107.106 69.544 108.626 72.2424 108.554C79.3085 108.634 86.3816 108.62 93.447 108.606C96.6629 108.6 99.8772 108.594 103.089 108.596C98.293 114.95 93.5293 121.336 88.7676 127.719C84.7982 133.04 80.8303 138.359 76.8465 143.657C74.9242 145.6 74.3699 148.374 74.9259 150.81C75.4879 153.272 77.2175 155.519 79.9856 156.263C83.3529 157.28 86.902 155.614 88.6715 152.802C93.5333 146.266 98.4177 139.738 103.303 133.209C110.199 123.994 117.098 114.775 123.938 105.523C125.719 103.33 125.754 100.436 124.734 98.1229C123.71 95.8023 121.539 93.876 118.694 93.7479Z" fill="url(#paint2_linear)" stroke="url(#paint3_linear)" stroke-width="2"/>
<path d="M169.564 48.9512L169.55 48.9306L169.536 48.9107C167.464 46.0555 163.29 45.2781 160.277 46.9354C157.996 48.0291 156.768 50.1275 156.46 52.3385C156.156 54.5216 156.732 56.8851 158.124 58.6801C171.922 81.5307 171.432 112.095 156.856 134.476L156.856 134.476L156.849 134.487C146.736 150.453 130.185 162.206 111.728 166.33L111.719 166.332C93.8235 170.488 74.3632 167.514 58.6087 158.075C56.0625 156.348 52.2892 155.427 49.3273 157.557C47.0868 158.963 46.0435 161.492 46.088 163.906C46.1326 166.323 47.2724 168.806 49.6178 170.091C70.6288 183.255 97.369 186.598 121.021 179.283C140.716 173.346 158.011 160.12 169.135 142.859C187.401 115.143 187.746 76.7903 169.564 48.9512Z" fill="url(#paint4_linear)" stroke="url(#paint5_linear)" stroke-width="2"/>
<defs>
<linearGradient id="paint0_linear" x1="76.3636" y1="143.772" x2="76.3636" y2="9" gradientUnits="userSpaceOnUse">
<stop stop-color="#02AA93"/>
<stop offset="1" stop-color="#67FF80"/>
</linearGradient>
<linearGradient id="paint1_linear" x1="76.3636" y1="143.772" x2="76.3636" y2="9" gradientUnits="userSpaceOnUse">
<stop stop-color="#02AA93"/>
<stop offset="1" stop-color="#67FF80"/>
</linearGradient>
<linearGradient id="paint2_linear" x1="95.1427" y1="155.562" x2="95.1427" y2="34.0551" gradientUnits="userSpaceOnUse">
<stop stop-color="#02AA93"/>
<stop offset="1" stop-color="#67FF80"/>
</linearGradient>
<linearGradient id="paint3_linear" x1="95.1427" y1="155.562" x2="95.1427" y2="34.0551" gradientUnits="userSpaceOnUse">
<stop stop-color="#02AA93"/>
<stop offset="1" stop-color="#67FF80"/>
</linearGradient>
<linearGradient id="paint4_linear" x1="114.553" y1="182.083" x2="114.553" y2="47.074" gradientUnits="userSpaceOnUse">
<stop stop-color="#02AA93"/>
<stop offset="1" stop-color="#67FF80"/>
</linearGradient>
<linearGradient id="paint5_linear" x1="114.553" y1="182.083" x2="114.553" y2="47.074" gradientUnits="userSpaceOnUse">
<stop stop-color="#02AA93"/>
<stop offset="1" stop-color="#67FF80"/>
</linearGradient>
</defs>
</svg>
