<svg width="32" height="32" viewBox="0 0 32 32" fill="none" xmlns="http://www.w3.org/2000/svg">
<path d="M28.0206 10.8C27.8948 10.6477 27.7369 10.525 27.5581 10.4408C27.3794 10.3566 27.1842 10.313 26.9866 10.313H26.9516H26.9536H23.5126L24.4666 5.67C24.5142 5.46473 24.5147 5.25138 24.4683 5.04586C24.4219 4.84033 24.3297 4.64793 24.1986 4.483L24.2006 4.486C24.0743 4.3338 23.916 4.21133 23.7369 4.12733C23.5578 4.04332 23.3624 3.99985 23.1646 4H23.1316H23.1336C22.2336 4.029 21.4906 4.665 21.2986 5.51L21.2956 5.523L21.0366 6.785C21.0286 6.817 21.0146 6.847 21.0076 6.879L20.2996 10.314H14.5066L15.4606 5.671C15.5082 5.46573 15.5087 5.25238 15.4623 5.04686C15.4159 4.84133 15.3237 4.64893 15.1926 4.484L15.1946 4.487C15.0683 4.3348 14.91 4.21233 14.7309 4.12833C14.5518 4.04432 14.3564 4.00085 14.1586 4.001H14.1256H14.1276C13.2276 4.03 12.4846 4.666 12.2926 5.511L12.2896 5.524L12.0196 6.837C12.0196 6.852 12.0096 6.865 12.0066 6.879L11.3046 10.314H7.55762C6.65762 10.343 5.91462 10.978 5.72162 11.823L5.71862 11.836C5.6708 12.0413 5.66997 12.2548 5.7162 12.4605C5.76244 12.6663 5.85453 12.8589 5.98562 13.024L5.98362 13.021C6.23162 13.319 6.60262 13.508 7.01862 13.508H7.05262H7.05062H10.6476L9.62562 18.478H5.87462C4.97462 18.507 4.23162 19.143 4.03862 19.988L4.03562 20.001C3.98856 20.2059 3.98812 20.4188 4.03434 20.6239C4.08055 20.829 4.17223 21.0211 4.30262 21.186L4.30062 21.183C4.54962 21.481 4.92062 21.67 5.33662 21.67H5.37062H5.36862H8.96562L8.00562 26.338C7.95809 26.5433 7.95751 26.7566 8.00391 26.9621C8.05032 27.1677 8.14251 27.3601 8.27362 27.525L8.27162 27.522C8.52062 27.82 8.89162 28.009 9.30762 28.009H9.34062H9.33862C9.76845 27.9954 10.1817 27.8399 10.5138 27.5667C10.846 27.2936 11.0783 26.9181 11.1746 26.499L11.1776 26.486L12.1676 21.672H17.9636L17.0036 26.34C16.9561 26.5453 16.9555 26.7586 17.0019 26.9641C17.0483 27.1697 17.1405 27.3621 17.2716 27.527L17.2696 27.524C17.5186 27.822 17.8896 28.01 18.3056 28.01H18.3386H18.3366C18.7664 27.9965 19.1795 27.841 19.5115 27.5678C19.8436 27.2946 20.0757 26.9191 20.1716 26.5L20.1746 26.487L21.1646 21.673H24.7646C25.1943 21.6595 25.6074 21.5041 25.9396 21.2311C26.2717 20.9581 26.5041 20.5829 26.6006 20.164L26.6036 20.151C26.6529 19.946 26.6548 19.7325 26.6092 19.5266C26.5637 19.3208 26.4718 19.128 26.3406 18.963L26.3426 18.966C26.2162 18.8136 26.0577 18.691 25.8784 18.6069C25.6992 18.5227 25.5036 18.479 25.3056 18.479H25.2696H25.2716H21.8246L22.8466 13.509H26.4466C26.8765 13.4954 27.2897 13.3399 27.6218 13.0667C27.954 12.7936 28.1863 12.4181 28.2826 11.999L28.2856 11.986C28.3332 11.7806 28.3339 11.5671 28.2875 11.3614C28.2411 11.1557 28.1488 10.9631 28.0176 10.798L28.0196 10.801L28.0206 10.8ZM12.8296 18.475L13.8516 13.505H19.6476L18.6256 18.475H12.8296Z" fill="url(#paint0_linear)"/>
<defs>
<linearGradient id="paint0_linear" x1="16.1609" y1="28.01" x2="16.1609" y2="4" gradientUnits="userSpaceOnUse">
<stop stop-color="#02AA93"/>
<stop offset="1" stop-color="#67FF80"/>
</linearGradient>
</defs>
</svg>
