<svg width="64" height="64" viewBox="0 0 64 64" fill="none" xmlns="http://www.w3.org/2000/svg">
<path d="M13.7556 0.096759C14.2683 0.0261658 14.7891 -0.00705515 15.31 0.00124993C26.7115 0.0261652 38.117 -0.00705477 49.5185 0.0178605C52.025 0.0303181 54.1613 2.45955 53.9904 5.00091C53.9782 23.0022 53.9904 41.0034 53.9863 59.0047C54.0677 60.836 53.0382 62.6382 51.4391 63.4604C50.2265 64.1373 48.8024 63.9753 47.4758 63.9961C45.0222 63.9462 42.5645 64.0625 40.1149 63.9462C38.7437 63.8756 37.7508 62.3101 38.1618 60.9938C38.3897 60.0761 39.2197 59.3286 40.1556 59.2788C42.5726 59.1584 44.9978 59.3037 47.4189 59.2206C48.5826 59.2373 49.4738 58.0621 49.3517 56.9201C49.3557 40.3017 49.3558 23.6873 49.3476 7.06888C49.49 5.77744 48.3507 4.60227 47.0812 4.76006C37.0265 4.76006 26.9678 4.76006 16.9132 4.76006C15.6436 4.59396 14.5002 5.76913 14.6427 7.06057C14.6345 23.6915 14.6345 40.3183 14.6386 56.9451C14.5206 58.087 15.4239 59.2456 16.5836 59.2248C19.5418 59.2912 22.5041 59.1833 25.4623 59.2663C27.0818 59.2206 28.2455 61.2097 27.4724 62.6548C27.0655 63.5933 26.0401 64.0501 25.0716 63.9878C21.5356 63.9795 17.9956 64.0251 14.4595 63.9629C11.9611 63.9255 9.86558 61.5212 10.0121 58.9923C10.008 41.0034 10.008 23.0105 10.008 5.01752C9.86965 2.72947 11.542 0.512013 13.7556 0.096759Z" fill="url(#paint0_linear)"/>
<path d="M29.5395 20.7179C29.5232 19.4182 30.7602 18.3095 32.0175 18.4506C33.1731 18.5088 34.1782 19.5801 34.1334 20.7719C34.1782 22.5035 34.1334 24.2393 34.1497 25.9709C35.9564 23.7659 37.7467 21.5443 39.5778 19.36C40.4893 18.0935 42.5889 18.2223 43.3539 19.5843C43.9073 20.4895 43.7608 21.7228 43.0569 22.4994C41.5595 24.3722 39.9929 26.1868 38.5158 28.0762C40.0905 29.9989 41.6978 31.8924 43.2278 33.8524C44.2979 35.1605 43.4109 37.4527 41.7263 37.598C40.7863 37.7849 39.9196 37.2575 39.3703 36.5184C37.6369 34.3798 35.8709 32.2703 34.1497 30.1234C34.1212 32.0004 34.2148 33.8815 34.0968 35.7543C33.8445 37.353 31.7815 38.2043 30.5201 37.2035C29.6168 36.6346 29.4662 35.4761 29.5069 34.4878C29.5435 29.8992 29.4744 25.3065 29.5395 20.7179Z" fill="url(#paint1_linear)"/>
<path d="M19.5171 31.1452C18.8946 29.5008 20.5466 27.6114 22.2149 28.1138C23.5455 28.5706 24.8232 29.1686 26.1253 29.7001C27.1751 30.1153 27.8099 31.3196 27.4965 32.4449C27.1181 33.8734 26.9269 35.4597 27.7041 36.7926C28.583 38.9436 31.0244 40.1313 33.2298 39.7866C34.2023 39.6205 35.0324 38.8481 36.066 39.0059C37.4169 38.9893 37.9703 40.4136 38.605 41.3812C39.1544 42.3778 40.0333 43.2457 40.2123 44.4084C40.4198 45.9573 38.8166 47.3899 37.3436 46.9207C36.0904 46.6134 35.6021 45.2555 34.8981 44.3046C33.9134 44.4831 32.9165 44.6119 31.9155 44.6451C31.647 45.6915 31.5981 46.9788 30.6378 47.6474C29.5636 48.4779 27.8139 48.0792 27.2443 46.8127C26.6583 45.6832 27.2687 44.4291 27.4681 43.2789C26.5688 42.6892 25.7428 41.9875 24.99 41.2109C24.0256 41.7466 23.0206 42.5979 21.8446 42.2906C20.4856 42.029 19.6758 40.3472 20.2536 39.0807C20.6972 37.9969 21.8935 37.6024 22.7886 37.0003C22.5567 35.7877 22.4753 34.5544 22.512 33.3211C21.4052 32.8228 19.8915 32.5072 19.5171 31.1452Z" fill="url(#paint2_linear)"/>
<defs>
<linearGradient id="paint0_linear" x1="32" y1="0" x2="32" y2="64" gradientUnits="userSpaceOnUse">
<stop stop-color="#DC18FC"/>
<stop offset="1" stop-color="#8E1EFF"/>
</linearGradient>
<linearGradient id="paint1_linear" x1="36.5974" y1="18.4385" x2="36.5974" y2="37.6359" gradientUnits="userSpaceOnUse">
<stop stop-color="#DC18FC"/>
<stop offset="1" stop-color="#8E1EFF"/>
</linearGradient>
<linearGradient id="paint2_linear" x1="29.8066" y1="28.0312" x2="29.8066" y2="48.0833" gradientUnits="userSpaceOnUse">
<stop stop-color="#DC18FC"/>
<stop offset="1" stop-color="#8E1EFF"/>
</linearGradient>
</defs>
</svg>
