<svg width="128" height="128" viewBox="0 0 128 128" fill="none" xmlns="http://www.w3.org/2000/svg">
<path d="M18.75 60.5C16.679 60.5 15 62.179 15 64.25C15 66.321 16.679 68 18.75 68C20.821 68 22.5 66.321 22.5 64.25C22.5 62.179 20.821 60.5 18.75 60.5ZM33.75 60.5C31.679 60.5 30 62.179 30 64.25C30 66.321 31.679 68 33.75 68C35.821 68 37.5 66.321 37.5 64.25C37.5 62.179 35.821 60.5 33.75 60.5ZM124.25 38H105.25V18.75C105.25 17.4963 104.624 16.3253 103.58 15.6298L81.08 0.62975C80.464 0.219 79.7402 0 79 0H26.25C24.179 0 22.5 1.679 22.5 3.75V38H3.75C1.679 38 0 39.679 0 41.75V94.25C0 96.321 1.679 98 3.75 98H22.5V124.25C22.5 126.321 24.179 128 26.25 128H101.5C103.571 128 105.25 126.321 105.25 124.25V98H124.25C126.321 98 128 96.321 128 94.25V41.75C128 39.679 126.321 38 124.25 38ZM82.75 10.757L89.1145 15H82.75V10.757ZM30 7.5H75.25V18.75C75.25 20.821 76.929 22.5 79 22.5H97.75V41.75C97.75 43.8177 96.0677 45.5 94 45.5H33.75C31.6823 45.5 30 43.8177 30 41.75V7.5ZM97.75 120.5H30V86.75C30 84.6823 31.6823 83 33.75 83H94C96.0677 83 97.75 84.6823 97.75 86.75V120.5ZM120.5 90.5H105.25V86.75C105.25 80.5468 100.203 75.5 94 75.5H33.75C27.5468 75.5 22.5 80.5468 22.5 86.75V90.5H7.5V45.5H23.145C24.693 49.8647 28.8612 53 33.75 53H94C98.8888 53 103.057 49.8647 104.605 45.5H120.5V90.5ZM86.5 90.5H41.25C39.179 90.5 37.5 92.179 37.5 94.25C37.5 96.321 39.179 98 41.25 98H86.5C88.571 98 90.25 96.321 90.25 94.25C90.25 92.179 88.571 90.5 86.5 90.5ZM86.5 105.5H41.25C39.179 105.5 37.5 107.179 37.5 109.25C37.5 111.321 39.179 113 41.25 113H86.5C88.571 113 90.25 111.321 90.25 109.25C90.25 107.179 88.571 105.5 86.5 105.5Z" fill="url(#paint0_linear)"/>
<defs>
<linearGradient id="paint0_linear" x1="64" y1="128" x2="64" y2="0" gradientUnits="userSpaceOnUse">
<stop stop-color="#FD2E00"/>
<stop offset="1" stop-color="#FF9900"/>
</linearGradient>
</defs>
</svg>
