<svg width="128" height="128" viewBox="0 0 128 128" fill="none" xmlns="http://www.w3.org/2000/svg">
<path d="M6.02115 23.838C6.02844 14.4828 14.3127 6.1794 23.6648 6.0544C49.4159 5.95876 75.1745 6.06169 100.933 6.01028C104.048 5.95876 107.244 6.06169 110.167 7.24586C116.957 9.75376 121.913 16.601 121.986 23.8526C122.001 50.6016 122.008 77.3504 121.986 104.092C122.052 112.69 115.109 120.154 106.853 121.817C83.0317 122.17 59.2024 121.891 35.3806 121.963C32.7959 122.25 30.4468 119.867 30.6015 117.316C30.5278 101.025 30.6824 84.7272 30.5278 68.4366C28.083 68.4366 25.6235 68.6058 23.2083 68.1571C27.9579 67.8556 32.7001 68.672 37.4572 68.3557C40.3512 68.1497 43.2598 68.0835 46.1612 68.1425C43.8858 68.6941 41.5293 68.4145 39.2097 68.3778C39.1434 83.3151 39.2097 98.245 39.1729 113.175C45.4764 113.212 51.7797 113.204 58.0906 113.19C58.0316 104.739 58.2304 96.2887 57.9653 87.8456C60.8372 87.6984 63.7165 87.7058 66.5957 87.8603C66.5809 96.3034 66.5736 104.739 66.5957 113.182C73.9522 113.204 81.3086 113.197 88.6723 113.19C88.665 93.8322 88.7018 74.4748 88.6502 55.1173C86.419 55.1394 84.1657 55.3085 81.9639 54.8525C84.6075 54.7717 87.2512 54.7937 89.8874 55.0144C94.7402 55.4188 99.5929 54.4333 104.445 54.9041C102.104 55.2864 99.7328 55.1614 97.3763 55.0658C97.3028 74.4307 97.369 93.8029 97.3395 113.168C101.257 113.057 105.654 113.918 109.07 111.491C111.721 109.711 113.334 106.563 113.26 103.371C113.29 77.1004 113.282 50.8295 113.26 24.5661C113.503 19.3883 108.871 14.799 103.753 14.7697C77.531 14.7182 51.3011 14.7623 25.0786 14.7402C19.9829 14.3577 14.8061 18.6161 14.8871 23.8526C14.8577 50.5795 14.8945 77.3063 14.8724 104.026C14.7399 107.652 17.2878 110.815 20.4173 112.373C22.1552 113.109 22.7369 114.947 23.1641 116.624C22.4203 118.941 20.4689 121.331 17.7296 120.596C10.6309 118.206 5.80024 110.704 6.00635 103.283C6.01375 76.7988 5.99906 50.3148 6.02115 23.838Z" fill="url(#paint0_linear)"/>
<path d="M30.8228 41.046C30.786 38.1184 34.3657 35.9859 36.8826 37.5017C38.7499 38.371 39.3256 40.5927 39.2962 42.5023C39.3478 48.4987 39.2887 54.4951 39.3109 60.4914C42.1747 60.811 45.8134 59.5106 47.9982 61.985C49.8951 64.0655 48.9577 67.7065 46.367 68.7096C43.459 68.6501 40.5435 68.717 37.6428 68.9251C32.8748 69.2446 28.1214 68.4198 23.3608 68.7244C21.2646 67.3721 20.1353 64.3628 21.8035 62.2302C23.8996 59.4215 27.8189 60.8258 30.7638 60.5212C30.8377 54.0344 30.6974 47.5402 30.8228 41.046Z" fill="url(#paint1_linear)"/>
<path d="M58.7989 40.981C58.7694 38.7116 61.0157 36.7789 63.2695 37.0205C65.6562 37.1156 67.4517 39.4436 67.2153 41.7424C67.2226 54.3196 67.2153 66.8967 67.2153 79.474C69.5724 79.5691 71.9961 79.2177 74.309 79.7887C77.4272 80.8209 77.9961 85.5063 75.1661 87.212C72.7424 88.4493 69.8902 87.8417 67.2818 87.8563C64.3926 87.7025 61.5034 87.6952 58.6216 87.8417C55.9985 87.7978 53.0575 88.5517 50.693 87.1096C48.0919 85.338 48.5796 80.9674 51.5279 79.84C53.8704 79.1957 56.3457 79.5838 58.7473 79.5032C58.7989 66.6625 58.6955 53.8218 58.7989 40.981Z" fill="url(#paint2_linear)"/>
<path d="M89.2186 38.9992C90.7147 36.2018 95.3061 36.3897 96.6254 39.2521C97.4581 41.5942 96.9275 44.1676 97.0455 46.6035C100.089 47.0011 104.245 45.5337 106.279 48.5407C107.938 50.731 106.494 53.5356 104.378 54.7934C99.5217 54.3307 94.6649 55.2993 89.8082 54.9018C87.1697 54.685 84.524 54.6633 81.8782 54.7427C79.0555 53.8898 78.0384 50.1021 80.0578 47.9913C82.3056 45.7867 85.7842 46.9216 88.5996 46.6469C88.7837 44.1169 88.0836 41.3702 89.2186 38.9992Z" fill="url(#paint3_linear)"/>
<defs>
<linearGradient id="paint0_linear" x1="22.9879" y1="105.012" x2="105.012" y2="22.9879" gradientUnits="userSpaceOnUse">
<stop stop-color="#0072FF"/>
<stop offset="1" stop-color="#00E5A1"/>
</linearGradient>
<linearGradient id="paint1_linear" x1="25.1005" y1="64.3137" x2="47.5277" y2="44.6899" gradientUnits="userSpaceOnUse">
<stop stop-color="#0072FF"/>
<stop offset="1" stop-color="#00E5A1"/>
</linearGradient>
<linearGradient id="paint2_linear" x1="53.1005" y1="80.5312" x2="83.5272" y2="63.8264" gradientUnits="userSpaceOnUse">
<stop stop-color="#0072FF"/>
<stop offset="1" stop-color="#00E5A1"/>
</linearGradient>
<linearGradient id="paint3_linear" x1="83.1005" y1="52.3639" x2="94.6797" y2="34.3519" gradientUnits="userSpaceOnUse">
<stop stop-color="#0072FF"/>
<stop offset="1" stop-color="#00E5A1"/>
</linearGradient>
</defs>
</svg>
