<svg width="192" height="192" viewBox="0 0 192 192" fill="none" xmlns="http://www.w3.org/2000/svg">
<path d="M30.1394 12.7281C33.8421 11.823 37.6742 12.0228 41.4474 12.011C79.4738 12.0463 117.5 11.9758 155.527 12.0463C167.552 11.9288 178.484 22.3325 178.954 34.3586C179.154 44.1864 179.013 54.0259 179.024 63.8654C179.248 66.9219 177.261 69.9314 174.275 70.7543C170.455 72.0944 165.8 69.0144 165.73 64.9234C165.412 54.8841 165.918 44.8212 165.506 34.7818C165.071 29.2919 159.794 25.0951 154.386 25.4125C114.844 25.4243 75.2892 25.3303 35.7464 25.4596C29.8573 25.4243 25.0144 30.926 25.4258 36.7215C25.4023 75.9385 25.4023 115.156 25.4258 154.373C25.0966 159.78 29.2696 165.047 34.7472 165.505C45.1854 166.022 55.6823 165.258 66.1088 165.858C72.1272 167.092 72.7502 176.461 67.0021 178.507C61.736 179.694 56.2466 178.766 50.8864 179.048C43.9864 178.789 36.9689 179.706 30.1394 178.319C22.0052 176.332 15.2109 169.737 12.9423 161.685C11.8138 157.735 12.0137 153.585 12.0137 149.529C12.0607 111.535 11.9666 73.5286 12.0489 35.546C12.0137 24.9893 19.9246 15.1616 30.1394 12.7281Z" fill="url(#paint0_linear)"/>
<path d="M53.5314 40.6362C56.7757 37.3093 63.088 38.814 64.4515 43.2577C65.1803 46.8432 64.7454 50.5345 64.8277 54.167C69.0594 54.5432 73.9376 53.1325 77.6873 55.6482C81.9073 58.6576 80.579 66.0402 75.548 67.3451C72.0098 67.9329 68.4011 67.592 64.8277 67.6508C64.7689 71.2245 65.1216 74.8335 64.5338 78.3719C63.2878 83.0625 56.6699 84.673 53.3786 81.0993C50.0756 77.4432 51.8505 72.0709 51.4273 67.6508C47.5013 67.3686 43.2696 68.4149 39.5433 66.8396C34.8415 64.606 34.9708 57.0706 39.6962 54.9428C43.4342 53.5792 47.5365 54.3786 51.4273 54.1787C51.8388 49.7233 50.0285 44.2334 53.5314 40.6362Z" fill="url(#paint1_linear)"/>
<path d="M113.621 54.9898C115.643 53.9788 118.006 54.261 120.204 54.1669C129.255 54.2727 138.33 54.0846 147.381 54.2375C151.213 54.0376 154.645 57.5996 154.21 61.432C154.081 64.9469 150.778 67.8506 147.275 67.6272C136.649 67.5919 125.999 67.8506 115.384 67.4861C109.343 66.675 108.108 57.482 113.621 54.9898Z" fill="url(#paint2_linear)"/>
<path d="M96.0598 89.3401C98.4225 88.1057 101.126 87.8118 103.759 87.8236C124.095 87.8941 144.442 87.8001 164.778 87.8706C172.477 87.8353 179.248 94.877 179.013 102.553C179.071 122.938 179.024 143.322 179.036 163.707C179.542 171.512 172.9 178.895 165.036 178.989C144.595 179.154 124.142 178.989 103.689 179.071C98.1404 179.4 92.5452 176.544 89.7946 171.677C88.1019 168.914 87.7375 165.611 87.8315 162.449C87.902 142.464 87.8315 122.479 87.8668 102.506C87.7727 97.0165 91.1346 91.7265 96.0598 89.3401ZM105.17 101.637C102.337 102.553 101.009 105.645 101.208 108.455C101.22 125.301 101.15 142.158 101.244 159.016C100.95 162.461 103.818 165.752 107.333 165.599C124.577 165.717 141.821 165.658 159.065 165.623C162.697 165.964 165.965 162.731 165.624 159.098C165.648 141.841 165.706 124.584 165.601 107.326C165.753 103.811 162.462 100.955 159.018 101.237C142.938 101.108 126.857 101.26 110.765 101.155C108.896 101.202 106.98 101.096 105.17 101.637Z" fill="url(#paint3_linear)"/>
<path d="M40.8713 124.878C38.92 119.764 44.5975 114.321 49.6285 116.46C53.0374 118.271 55.353 121.539 58.1507 124.125C60.8425 121.633 63.1111 118.635 66.2261 116.649C70.834 114.286 76.7231 118.741 75.6769 123.82C74.6072 128.099 70.3755 130.438 67.6602 133.612C70.1522 136.292 73.1849 138.561 75.1244 141.712C77.6987 146.59 72.4914 152.75 67.2488 151.046C63.452 149.482 61.1246 145.803 58.1272 143.158C55.0004 145.861 52.6612 149.941 48.5118 151.14C43.4338 152.362 38.8377 146.555 41.0829 141.876C43.0224 138.667 46.1374 136.375 48.6176 133.6C46.0081 130.744 42.5639 128.439 40.8713 124.878Z" fill="url(#paint4_linear)"/>
<path d="M114.726 117.236C125.552 116.59 136.461 117.095 147.322 116.978C151.507 116.649 155.127 120.939 154.081 125.03C153.47 128.686 149.649 130.791 146.146 130.379C135.802 130.215 125.446 130.697 115.126 130.144C108.661 129.015 108.402 118.812 114.726 117.236Z" fill="url(#paint5_linear)"/>
<path d="M113.563 138.314C115.984 137.139 118.782 137.597 121.38 137.491C130.395 137.644 139.435 137.291 148.451 137.644C153.352 137.973 155.962 144.404 152.976 148.201C150.931 151.246 146.958 151.057 143.725 151.01C134.298 150.811 124.859 151.269 115.455 150.787C109.401 150.07 108.073 140.842 113.563 138.314Z" fill="url(#paint6_linear)"/>
<defs>
<linearGradient id="paint0_linear" x1="95.5309" y1="179.13" x2="95.5309" y2="12" gradientUnits="userSpaceOnUse">
<stop stop-color="#5570FF"/>
<stop offset="1" stop-color="#4DD3FF"/>
</linearGradient>
<linearGradient id="paint1_linear" x1="58.1454" y1="83.0436" x2="58.1454" y2="38.8318" gradientUnits="userSpaceOnUse">
<stop stop-color="#5570FF"/>
<stop offset="1" stop-color="#4DD3FF"/>
</linearGradient>
<linearGradient id="paint2_linear" x1="132.172" y1="67.6836" x2="132.172" y2="54.1669" gradientUnits="userSpaceOnUse">
<stop stop-color="#5570FF"/>
<stop offset="1" stop-color="#4DD3FF"/>
</linearGradient>
<linearGradient id="paint3_linear" x1="133.441" y1="179.097" x2="133.441" y2="87.8232" gradientUnits="userSpaceOnUse">
<stop stop-color="#5570FF"/>
<stop offset="1" stop-color="#4DD3FF"/>
</linearGradient>
<linearGradient id="paint4_linear" x1="58.1405" y1="151.336" x2="58.1405" y2="115.983" gradientUnits="userSpaceOnUse">
<stop stop-color="#5570FF"/>
<stop offset="1" stop-color="#4DD3FF"/>
</linearGradient>
<linearGradient id="paint5_linear" x1="132.195" y1="130.43" x2="132.195" y2="116.9" gradientUnits="userSpaceOnUse">
<stop stop-color="#5570FF"/>
<stop offset="1" stop-color="#4DD3FF"/>
</linearGradient>
<linearGradient id="paint6_linear" x1="132.17" y1="151.03" x2="132.17" y2="137.481" gradientUnits="userSpaceOnUse">
<stop stop-color="#5570FF"/>
<stop offset="1" stop-color="#4DD3FF"/>
</linearGradient>
</defs>
</svg>
