<svg width="64" height="64" viewBox="0 0 64 64" fill="none" xmlns="http://www.w3.org/2000/svg">
<g clip-path="url(#clip0)">
<path d="M11.7072 17.9497C15.0214 16.6308 18.6783 16.6861 21.9635 18.1128C26.1332 19.8768 29.6647 23.8196 31.4719 28.7855C32.2266 30.7514 32.623 32.8859 32.8827 35.0288C33.1627 37.2933 32.9051 39.5882 32.4931 41.8029C31.6936 41.0812 30.9546 40.2656 30.2783 39.3725C30.6613 35.7891 30.1283 32.0509 28.6906 28.8933C26.9596 25.0086 23.9409 22.0252 20.4833 20.8114C18.3604 20.0013 16.074 20.0013 13.8973 20.4547C13.053 19.7884 12.2267 19.0363 11.7072 17.9497Z" fill="url(#paint0_linear)"/>
<path d="M7.47026 20.4575C8.79821 19.4289 10.2001 18.5192 11.7072 17.9497C12.2267 19.0363 13.053 19.7884 13.8973 20.4547C12.2267 20.9137 10.6031 21.6823 9.16771 22.8436C8.46678 22.2436 7.3986 21.7211 7.47026 20.4575Z" fill="url(#paint1_linear)"/>
<path d="M13.8973 20.4547C16.074 20.0013 18.3604 20.0013 20.4833 20.8114C23.9409 22.0252 26.9596 25.0086 28.6906 28.8933C30.1283 32.0509 30.6613 35.7891 30.2783 39.3725C30.238 39.7319 30.191 40.0886 30.1417 40.4481C29.7789 37.9126 30.2492 35.2583 29.5483 32.7864C28.2091 26.7339 23.802 21.9644 18.7903 21.0215C17.2541 20.8667 15.6977 20.8584 14.166 21.0824C12.0699 21.6409 10.003 22.6307 8.34137 24.345C6.58346 26.2832 4.9084 28.5146 4.14925 31.3293C3.782 32.8113 3.30277 34.2905 3.30277 35.8666C3.24678 37.4039 3.44161 38.9605 3.18184 40.484C3.16841 40.3955 3.1393 40.2214 3.12586 40.1329C2.81011 37.5559 2.8325 34.8739 3.44609 32.3634C3.88949 30.403 4.65759 28.5726 5.63396 26.9385C6.59689 25.3238 7.80617 23.9385 9.16771 22.8436C10.6031 21.6823 12.2267 20.9137 13.8973 20.4547Z" fill="url(#paint2_linear)"/>
<path d="M0.693901 31.5035C0.790194 31.4288 0.980541 31.2768 1.07459 31.2021C0.593128 33.3588 0.297531 35.5984 0.369191 37.8407C0.572974 42.7872 2.21444 47.6536 5.0674 51.1623C7.82632 54.6959 11.6646 56.7392 15.597 57.2092C17.6594 57.447 19.7241 56.8995 21.697 56.2028C22.8436 55.7161 23.9767 55.1438 25.0001 54.3392C25.486 53.9908 25.6697 53.3162 25.7481 52.6692C26.2183 53.5788 25.607 54.6212 24.9665 55.1023C22.6308 56.8608 19.91 57.6599 17.2115 58C12.7552 57.9889 8.19805 55.9982 5.0674 51.9918C0.637916 46.9236 -1.09088 38.6011 0.693901 31.5035Z" fill="url(#paint3_linear)"/>
<path d="M3.68125 24.9312C4.74495 23.2058 6.04378 21.7155 7.47026 20.4575C7.3986 21.7211 8.46678 22.2436 9.16771 22.8436C7.80617 23.9385 6.59689 25.3238 5.63396 26.9385C5.02933 26.2031 4.37545 25.5312 3.68125 24.9312Z" fill="url(#paint4_linear)"/>
<path d="M20.817 45.378C23.0586 44.8167 25.4502 45.3365 27.3918 46.8296C29.8797 48.6738 31.678 51.6876 32.7909 54.9502C33.0305 55.5364 32.8491 56.1917 32.6095 56.7281C32.0631 57.1566 31.2816 57.4 30.7688 56.764C30.2515 55.9539 30.0141 54.9336 29.564 54.071C28.1375 50.9963 25.6294 48.3337 22.6331 48.2867C22.3263 47.048 21.285 46.4922 20.817 45.378Z" fill="url(#paint5_linear)"/>
<path d="M13.9219 25.039C16.6271 24.0685 19.6525 24.4611 22.0799 26.2528C24.7829 28.1855 26.6908 31.733 27.0267 35.5735C27.1813 36.9864 27.067 38.4186 26.8633 39.8149C26.0168 38.72 25.2531 37.5366 24.5164 36.3283C24.2902 32.3108 21.762 28.7164 18.5664 27.9007C17.646 27.6353 16.6898 27.6215 15.7537 27.7625C15.0371 26.9745 14.2197 26.2252 13.9219 25.039Z" fill="url(#paint6_linear)"/>
<path d="M3.68125 24.9312C4.37545 25.5312 5.02933 26.2031 5.63396 26.9385C4.65759 28.5726 3.88949 30.403 3.44609 32.3634C2.86385 31.4122 2.19652 30.5468 1.47768 29.7505C2.05992 28.0473 2.76758 26.4049 3.68125 24.9312Z" fill="url(#paint7_linear)"/>
<path d="M9.60216 28.2408C10.8181 26.7781 12.2984 25.6639 13.9219 25.039C14.2197 26.2252 15.0371 26.9745 15.7537 27.7625C14.1436 28.0832 12.6186 29.0205 11.4608 30.4445C10.8674 29.6758 10.2471 28.9403 9.60216 28.2408Z" fill="url(#paint8_linear)"/>
<path d="M15.7537 27.7625C16.6898 27.6215 17.646 27.6353 18.5664 27.9007C21.762 28.7164 24.2902 32.3108 24.5164 36.3283C24.5791 37.6306 24.4537 38.9495 24.082 40.1743C23.9364 39.19 24.194 38.2195 24.194 37.238C24.1223 34.7993 23.2736 32.3855 21.7866 30.7597C19.133 27.5966 14.4348 27.5994 11.8819 30.9366C10.5181 32.3606 9.79252 34.52 9.62233 36.6794C9.51484 37.849 9.85523 39.0048 9.70519 40.1743C9.35137 39.0048 9.22148 37.7495 9.25283 36.508C9.37824 34.2435 10.1665 32.0564 11.4608 30.4445C12.6186 29.0205 14.1436 28.0832 15.7537 27.7625Z" fill="url(#paint9_linear)"/>
<path d="M6.4648 36.6905C6.48047 36.0656 6.42673 35.3606 6.8231 34.8822C6.23862 39.0656 7.47699 43.5559 10.0769 46.354C12.688 49.271 16.5823 50.3355 19.9347 48.9586C20.8058 48.5936 21.7105 48.3337 22.6331 48.2867C25.6294 48.3337 28.1375 50.9963 29.564 54.071C30.0141 54.9336 30.2515 55.9539 30.7688 56.764C31.2816 57.4 32.0631 57.1566 32.6095 56.7281C32.4976 58.1658 30.8695 57.9115 30.3925 56.9382C29.8103 55.7991 29.405 54.5327 28.7399 53.4572C27.5284 51.5023 25.9631 49.6471 23.9342 49.1632C22.3823 48.6323 20.817 49.3346 19.3233 49.8268C17.2004 50.5346 14.9252 50.2083 12.8918 49.2378C9.9112 47.7061 7.5285 44.4102 6.73128 40.5338C6.43568 39.2868 6.48047 37.9734 6.4648 36.6905Z" fill="url(#paint10_linear)"/>
<path d="M6.99103 33.9504C7.43443 31.8021 8.36602 29.8417 9.60216 28.2408C10.2471 28.9403 10.8674 29.6758 11.4608 30.4445C10.1665 32.0564 9.37824 34.2435 9.25283 36.508C8.19361 36.1071 7.80393 34.744 6.99103 33.9504Z" fill="url(#paint11_linear)"/>
<path d="M1.07459 31.2021C1.20448 30.7155 1.35004 30.2371 1.47768 29.7505C2.19652 30.5468 2.86385 31.4122 3.44609 32.3634C2.8325 34.8739 2.81011 37.5559 3.12586 40.1329C2.15397 39.5937 1.43738 38.5983 0.998461 37.4149C0.787959 37.5587 0.577453 37.6997 0.369191 37.8407C0.297531 35.5984 0.593128 33.3588 1.07459 31.2021Z" fill="url(#paint12_linear)"/>
<path d="M6.99103 33.9504C7.80393 34.744 8.19361 36.1071 9.25283 36.508C9.22148 37.7495 9.35137 39.0048 9.70519 40.1743C10.7308 43.9015 13.8279 46.5088 17.0055 46.4065C18.3312 46.4452 19.5517 45.7485 20.817 45.378C21.285 46.4922 22.3263 47.048 22.6331 48.2867C21.7105 48.3337 20.8058 48.5936 19.9347 48.9586C16.5823 50.3355 12.688 49.271 10.0769 46.354C7.47699 43.5559 6.23862 39.0656 6.8231 34.8822C6.87012 34.567 6.92609 34.2574 6.99103 33.9504Z" fill="url(#paint13_linear)"/>
<path d="M24.5164 36.3283C25.2531 37.5366 26.0168 38.72 26.8633 39.8149C26.5453 41.2167 26.1556 42.6324 25.4525 43.8185C24.8322 44.5181 23.7058 44.1614 23.3631 43.2296C22.8906 42.1236 23.9185 41.2278 24.082 40.1743C24.4537 38.9495 24.5791 37.6306 24.5164 36.3283Z" fill="url(#paint14_linear)"/>
<path d="M0.369191 37.8407C0.577453 37.6997 0.787959 37.5587 0.998461 37.4149C1.43738 38.5983 2.15397 39.5937 3.12586 40.1329C3.1393 40.2214 3.16841 40.3955 3.18184 40.484C3.92308 44.8886 6.1132 48.8978 9.19682 51.3116C10.574 52.4811 12.1573 53.1751 13.7584 53.706C14.1011 54.6157 14.578 55.4313 15.1916 56.0866C15.4962 56.3438 15.5231 56.8055 15.597 57.2092C11.6646 56.7392 7.82632 54.6959 5.0674 51.1623C2.21444 47.6536 0.572974 42.7872 0.369191 37.8407Z" fill="url(#paint15_linear)"/>
<path d="M30.2783 39.3725C30.9546 40.2656 31.6936 41.0812 32.4931 41.8029C32.3027 42.8619 32.0116 43.8904 31.6802 44.8941C31.4965 45.4665 31.1494 45.9835 30.6657 46.1909C29.7162 46.5171 28.7063 45.0904 29.2079 43.9927C29.6267 42.8619 29.9536 41.673 30.1417 40.4481C30.191 40.0886 30.238 39.7319 30.2783 39.3725Z" fill="url(#paint16_linear)"/>
<path d="M23.8804 51.541C24.6373 50.9964 25.4681 51.801 25.7481 52.6692C25.6697 53.3162 25.486 53.9908 25.0001 54.3392C23.9767 55.1438 22.8436 55.7161 21.697 56.2028C21.0409 55.3014 20.2929 54.5161 19.5562 53.7171C21.07 53.2304 22.5502 52.5724 23.8804 51.541Z" fill="url(#paint17_linear)"/>
<path d="M13.7584 53.706C15.6731 54.1401 17.6393 54.1152 19.5562 53.7171C20.2929 54.5161 21.0409 55.3014 21.697 56.2028C19.7241 56.8995 17.6594 57.447 15.597 57.2092C15.5231 56.8055 15.4962 56.3438 15.1916 56.0866C14.578 55.4313 14.1011 54.6157 13.7584 53.706Z" fill="url(#paint18_linear)"/>
<path d="M41.9565 19.4868C42.0376 18.6937 42.6886 18.008 43.4738 18.0106C45.4926 17.9923 47.5114 18.0027 49.5303 18.0053C50.3358 17.9609 51.1286 18.6257 51.1539 19.4816C51.2071 21.8791 51.1514 24.2767 51.1793 26.6768C52.808 26.648 54.4367 26.648 56.068 26.6637C56.909 26.6663 57.6967 27.4202 57.6714 28.3101C57.6866 30.5898 57.6739 32.8722 57.6765 35.152C57.7474 36.0288 56.9824 36.9449 56.0984 36.8166C55.2676 36.8219 54.7027 35.9398 54.7508 35.1415C54.7382 33.3172 54.7584 31.4902 54.7432 29.6659C53.0816 29.6842 51.4199 29.7104 49.7633 29.6633C48.9781 29.6685 48.2283 28.9173 48.2992 28.0902C48.284 25.7555 48.3017 23.4181 48.2941 21.0808C47.091 21.0834 45.8903 21.0913 44.6871 21.0729C44.1754 23.7087 43.4029 26.4831 41.4702 28.3991C40.8116 29.0979 39.9174 29.4408 39.1347 29.9486C38.0734 30.8935 37.9847 32.4718 37.9569 33.8171C38.9143 33.8433 39.887 33.7203 40.8344 33.9061C41.612 34.05 42.0502 34.9007 42.0249 35.6624C42.0325 39.1488 42.03 42.6351 42.0249 46.1189C41.8679 48.5479 43.1369 50.9323 44.9607 52.4059C46.8199 53.8847 49.2947 54.013 51.5415 53.7748C53.0284 53.6309 54.6419 53.3299 55.7919 52.2724C55.2777 51.1077 54.8217 49.9194 54.3278 48.7468C53.1474 49.0085 51.8834 49.3305 50.7233 48.807C49.1503 48.2521 48.2232 46.488 48.2967 44.8259C48.2992 41.6798 48.2815 38.5337 48.3043 35.3875C48.2536 34.3929 49.4061 33.6888 50.2598 34.0867C50.8981 34.2882 51.1818 35.0237 51.1717 35.665C51.1869 38.6305 51.159 41.596 51.1818 44.5642C51.2147 45.0719 51.2375 45.7943 51.8024 45.9854C52.7776 46.1372 53.7249 45.7472 54.6014 45.3494C55.3562 44.9777 56.2326 45.5483 56.5062 46.2995C57.3396 48.2312 58.0817 50.2021 58.8974 52.1442C59.2571 52.932 58.5909 53.6623 58.1375 54.2276C56.2782 56.1514 53.5603 56.5938 51.0703 56.9576C48.8615 57.1434 46.5919 56.7168 44.5985 55.7143C41.5614 54.157 39.5476 50.8721 39.0739 47.4564C39.0435 43.9098 39.0815 40.3632 39.0537 36.8193C38.0734 36.8062 37.0779 36.9266 36.1078 36.746C35.1123 36.301 35.0692 35.0263 35.0059 34.0684C34.94 31.8357 35.4137 29.3492 37.0855 27.7866C37.8682 26.9647 39.0917 26.7841 39.7832 25.8523C41.1789 24.0516 41.6095 21.7037 41.9565 19.4868Z" fill="url(#paint19_linear)"/>
<path d="M44.599 6.26507C45.0596 6.27023 45.2973 6.74596 45.2882 7.17423C45.2961 8.46412 45.1344 9.76762 44.8372 11.0468C44.6819 12.0284 43.713 12.5469 43.072 13.208C43.4018 13.5629 43.8034 14.0283 43.4974 14.5839C43.0769 15.1396 42.353 15.2713 41.7717 15.5645C42.2265 15.8205 42.3409 16.5212 41.9608 16.9555C40.7234 18.3465 39.2063 19.4884 37.5353 20.2203C35.0014 21.3563 32.2581 21.6736 29.6046 21.6374C29.2662 21.6285 28.8274 21.6959 28.6336 21.36C27.3811 19.1847 26.6037 16.6581 26.6081 14.0269C26.5913 11.3785 27.5906 8.68778 29.2805 6.54944C29.5778 6.05726 30.3277 5.94793 30.6295 6.40933C30.9582 6.84973 30.639 7.4564 30.3083 7.84558C29.4083 8.97139 28.785 10.3039 28.4666 11.6871C27.9135 14.1342 28.3264 16.6367 29.2298 18.8156C29.9777 16.8501 30.7881 14.9075 31.5507 12.9471C31.7926 12.4572 32.3745 12.4433 32.8064 12.5233C32.9336 12.8277 33.1377 13.1563 33.0103 13.5177C32.2713 15.3704 31.5463 17.2295 30.7968 19.0783C33.2734 17.6809 35.568 15.6534 36.8467 13.0208C37.8482 10.9298 38.0451 8.56374 37.6273 6.40437C37.4215 5.2141 37.0078 4.09058 36.5322 3.00869C35.5427 3.49033 34.5785 4.0397 33.6712 4.68512C33.2904 4.94289 32.7073 4.99809 32.4396 4.61079C32.1838 4.28163 32.2708 3.7334 32.6206 3.4533C33.8709 2.64218 35.1495 1.86424 36.4985 1.26178C36.9031 1.05969 37.4459 1.13511 37.6299 1.55931C38.491 3.08216 39.0231 4.80274 39.3175 6.57055C41.074 6.26887 42.8557 6.1212 44.599 6.26507ZM39.4504 8.20544C39.4724 10.487 38.8831 12.8419 37.6234 14.8479L37.6955 14.9182C37.2832 15.5 36.9058 16.1198 36.3662 16.5934C35.2268 17.8531 33.9388 18.971 32.5238 19.88C35.2908 19.5742 38.1751 18.608 40.2669 16.4767C39.7765 16.1932 39.2666 15.5838 39.6671 14.9531C40.1506 14.4336 40.8755 14.2842 41.4835 13.9865C41.1285 13.641 41.0289 12.9711 41.4669 12.5803C42.0704 12.039 42.6303 11.4461 43.2503 10.9239C43.4861 9.91229 43.6271 8.88742 43.6901 7.8633C42.2815 7.83391 40.8597 7.93261 39.4504 8.20544Z" fill="url(#paint20_linear)"/>
</g>
<defs>
<linearGradient id="paint0_linear" x1="16.5" y1="58" x2="16.5" y2="17" gradientUnits="userSpaceOnUse">
<stop stop-color="#02AA93"/>
<stop offset="1" stop-color="#67FF80"/>
</linearGradient>
<linearGradient id="paint1_linear" x1="16.5" y1="58" x2="16.5" y2="17" gradientUnits="userSpaceOnUse">
<stop stop-color="#02AA93"/>
<stop offset="1" stop-color="#67FF80"/>
</linearGradient>
<linearGradient id="paint2_linear" x1="16.5" y1="58" x2="16.5" y2="17" gradientUnits="userSpaceOnUse">
<stop stop-color="#02AA93"/>
<stop offset="1" stop-color="#67FF80"/>
</linearGradient>
<linearGradient id="paint3_linear" x1="16.5" y1="58" x2="16.5" y2="17" gradientUnits="userSpaceOnUse">
<stop stop-color="#02AA93"/>
<stop offset="1" stop-color="#67FF80"/>
</linearGradient>
<linearGradient id="paint4_linear" x1="16.5" y1="58" x2="16.5" y2="17" gradientUnits="userSpaceOnUse">
<stop stop-color="#02AA93"/>
<stop offset="1" stop-color="#67FF80"/>
</linearGradient>
<linearGradient id="paint5_linear" x1="16.5" y1="58" x2="16.5" y2="17" gradientUnits="userSpaceOnUse">
<stop stop-color="#02AA93"/>
<stop offset="1" stop-color="#67FF80"/>
</linearGradient>
<linearGradient id="paint6_linear" x1="16.5" y1="58" x2="16.5" y2="17" gradientUnits="userSpaceOnUse">
<stop stop-color="#02AA93"/>
<stop offset="1" stop-color="#67FF80"/>
</linearGradient>
<linearGradient id="paint7_linear" x1="16.5" y1="58" x2="16.5" y2="17" gradientUnits="userSpaceOnUse">
<stop stop-color="#02AA93"/>
<stop offset="1" stop-color="#67FF80"/>
</linearGradient>
<linearGradient id="paint8_linear" x1="16.5" y1="58" x2="16.5" y2="17" gradientUnits="userSpaceOnUse">
<stop stop-color="#02AA93"/>
<stop offset="1" stop-color="#67FF80"/>
</linearGradient>
<linearGradient id="paint9_linear" x1="16.5" y1="58" x2="16.5" y2="17" gradientUnits="userSpaceOnUse">
<stop stop-color="#02AA93"/>
<stop offset="1" stop-color="#67FF80"/>
</linearGradient>
<linearGradient id="paint10_linear" x1="16.5" y1="58" x2="16.5" y2="17" gradientUnits="userSpaceOnUse">
<stop stop-color="#02AA93"/>
<stop offset="1" stop-color="#67FF80"/>
</linearGradient>
<linearGradient id="paint11_linear" x1="16.5" y1="58" x2="16.5" y2="17" gradientUnits="userSpaceOnUse">
<stop stop-color="#02AA93"/>
<stop offset="1" stop-color="#67FF80"/>
</linearGradient>
<linearGradient id="paint12_linear" x1="16.5" y1="58" x2="16.5" y2="17" gradientUnits="userSpaceOnUse">
<stop stop-color="#02AA93"/>
<stop offset="1" stop-color="#67FF80"/>
</linearGradient>
<linearGradient id="paint13_linear" x1="16.5" y1="58" x2="16.5" y2="17" gradientUnits="userSpaceOnUse">
<stop stop-color="#02AA93"/>
<stop offset="1" stop-color="#67FF80"/>
</linearGradient>
<linearGradient id="paint14_linear" x1="16.5" y1="58" x2="16.5" y2="17" gradientUnits="userSpaceOnUse">
<stop stop-color="#02AA93"/>
<stop offset="1" stop-color="#67FF80"/>
</linearGradient>
<linearGradient id="paint15_linear" x1="16.5" y1="58" x2="16.5" y2="17" gradientUnits="userSpaceOnUse">
<stop stop-color="#02AA93"/>
<stop offset="1" stop-color="#67FF80"/>
</linearGradient>
<linearGradient id="paint16_linear" x1="16.5" y1="58" x2="16.5" y2="17" gradientUnits="userSpaceOnUse">
<stop stop-color="#02AA93"/>
<stop offset="1" stop-color="#67FF80"/>
</linearGradient>
<linearGradient id="paint17_linear" x1="16.5" y1="58" x2="16.5" y2="17" gradientUnits="userSpaceOnUse">
<stop stop-color="#02AA93"/>
<stop offset="1" stop-color="#67FF80"/>
</linearGradient>
<linearGradient id="paint18_linear" x1="16.5" y1="58" x2="16.5" y2="17" gradientUnits="userSpaceOnUse">
<stop stop-color="#02AA93"/>
<stop offset="1" stop-color="#67FF80"/>
</linearGradient>
<linearGradient id="paint19_linear" x1="47" y1="57" x2="47" y2="18" gradientUnits="userSpaceOnUse">
<stop stop-color="#02AA93"/>
<stop offset="1" stop-color="#67FF80"/>
</linearGradient>
<linearGradient id="paint20_linear" x1="37.4476" y1="6.39916" x2="25.0117" y2="21.9541" gradientUnits="userSpaceOnUse">
<stop stop-color="#43E97B"/>
<stop offset="0.978261" stop-color="#38F9D7"/>
</linearGradient>
<clipPath id="clip0">
<rect width="64" height="64" fill="white"/>
</clipPath>
</defs>
</svg>
