<svg viewBox="0 0 48 48" xmlns="http://www.w3.org/2000/svg" xmlns:xlink="http://www.w3.org/1999/xlink"><linearGradient id="a"><stop offset="0" stop-color="#00ff16"/><stop offset="1" stop-color="#bf0"/></linearGradient><linearGradient id="b" gradientUnits="userSpaceOnUse" x1="9.9917884" x2="40.0175029" xlink:href="#a" y1="12.99336689" y2="34.75643363"/><linearGradient id="c" gradientUnits="userSpaceOnUse" x1="7.1135934" x2="29.7853022" xlink:href="#a" y1="24.8620873" y2="24.8620873"/><path d="m13.99 14.706c-1.459-.014-2.994.194-4.235 1.015-1.057.685-1.682 1.852-2.06 3.022-.488 1.554-.59 3.202-.58 4.823.022 1.5.15 3.018.633 4.446.293.846.724 1.678 1.41 2.27.892.78 2.071 1.131 3.228 1.268.964.108 1.947.12 2.907-.037.711 1.166 1.416 2.338 2.125 3.506.831-.382 1.658-.768 2.489-1.151-.662-1.071-1.337-2.133-1.996-3.204a5.506 5.506 0 0 0 1.98-2.68c.547-1.572.62-3.257.617-4.908-.019-1.638-.19-3.304-.777-4.845-.362-.939-.905-1.847-1.742-2.435-1.151-.829-2.61-1.073-3.999-1.09zm-.468 2.304c.642-.024 1.292.053 1.89.292a2.75 2.75 0 0 1 1.486 1.393c.445.962.617 2.024.702 3.073.095 1.397.082 2.804-.11 4.191-.136.826-.33 1.697-.89 2.348-.567.653-1.442.934-2.282 1-.885.064-1.82 0-2.619-.42a2.543 2.543 0 0 1 -1.094-1.115c-.28-.572-.434-1.196-.542-1.82-.325-1.982-.406-4.033.04-6.002.184-.744.451-1.506.994-2.065.471-.48 1.131-.728 1.787-.82a6.837 6.837 0 0 1 .638-.056zm9.535-1.254h2.608c.003 1.15 0 2.3.002 3.45h3.334c-.018.746-.039 1.492-.06 2.239-1.11.002-2.22 0-3.331.001.002 1.885-.006 3.77.004 5.655.022.515.009 1.06.237 1.536.166.368.612.462.975.474.686-.002 1.37-.043 2.054-.055.042.686.082 1.371.121 2.057-1.362.23-2.792.503-4.146.075-.569-.169-1.1-.547-1.331-1.11-.415-.96-.448-2.026-.466-3.055-.002-1.86 0-3.718 0-5.578-.607 0-1.213.002-1.82 0v-2.238c.607-.003 1.212 0 1.817-.002.004-1.15.003-3.449.003-3.449z" fill="url(#c)"/><path d="m24.293 40h-22.063v-26.384c2.018-2.03 4.053-4.046 6.079-6.069h38.148v14.306" fill="none" stroke="url(#b)" stroke-linecap="round" stroke-linejoin="round" stroke-width="1.9"/><path d="m43.385 26.271s1.468 0 2.936 1.468 1.468 2.936 1.468 2.936l-13.212 13.213-5.872 1.468 1.468-5.872" fill="#97ff04" stroke-width=".721"/></svg>