<svg height="48" width="48" xmlns="http://www.w3.org/2000/svg"><path d="m24 13c2.59 0 19 0 19 11.289v9.422c0 11.289-.864 11.289-19 11.289-3.455 0-19 0-19-11.289v-9.422c0-11.289 16.41-11.289 19-11.289z" opacity=".2"/><path d="m19 6 4.5 6m5.5-6-3.5 6" fill="none" stroke="#37474f" stroke-width="1.5"/><ellipse cx="24" cy="12.5" fill="#37474f" rx="7" ry="2.5"/><circle cx="19" cy="7" opacity=".2" r="2"/><circle cx="19" cy="6" fill="#455a64" r="2"/><path d="m24 12c2.59 0 19 0 19 11.289v9.422c0 11.289-.864 11.289-19 11.289-3.455 0-19 0-19-11.289v-9.422c0-11.289 16.41-11.289 19-11.289z" fill="#455a64"/><circle cx="38.5" cy="39.5" opacity=".2" r="2.5"/><circle cx="38.5" cy="38.5" fill="#fff" r="2.5"/><path d="m22 16c1.91 0 14 0 14 8.467v7.066c0 8.467-11.455 8.467-14 8.467s-14 0-14-8.467v-7.066c0-8.467 12.09-8.467 14-8.467z" opacity=".3"/><g fill="none" stroke-linecap="round" stroke-width="3"><path d="m22 21.5-4.5 14m14-14-4 14" opacity=".5" stroke="#26a69a"/><path d="m12.5 22.5 5 14" opacity=".2" stroke="#000"/><path d="m12.5 21.5 5 14" stroke="#26a69a"/><path d="m22 22.5 5.5 14" opacity=".2" stroke="#000"/><path d="m22 21.5 5.5 14" stroke="#26a69a"/></g><circle cx="29" cy="7" opacity=".2" r="2"/><circle cx="29" cy="6" fill="#455a64" r="2"/><path d="m19 4a2 2 0 0 0 -2 2 2 2 0 0 0 .064.504 2 2 0 0 1 1.936-1.504 2 2 0 0 1 1.936 1.496 2 2 0 0 0 .064-.496 2 2 0 0 0 -2-2zm5 8c-2.59 0-19 0-19 11.29v1c0-11.29 16.41-11.29 19-11.29s19 0 19 11.29v-1c0-11.29-16.41-11.29-19-11.29zm5-8a2 2 0 0 0 -2 2 2 2 0 0 0 .064.504 2 2 0 0 1 1.936-1.504 2 2 0 0 1 1.936 1.496 2 2 0 0 0 .064-.496 2 2 0 0 0 -2-2z" fill="#fff" opacity=".1"/></svg>