<svg viewBox="0 0 48 48" xmlns="http://www.w3.org/2000/svg" xmlns:xlink="http://www.w3.org/1999/xlink"><linearGradient id="a" gradientUnits="userSpaceOnUse" x1="5.046" x2="43.713" y1="11.369" y2="40.555"><stop offset="0" stop-color="#e800ff"/><stop offset="1" stop-color="#ff5400"/></linearGradient><g fill="none" stroke="url(#a)" stroke-linecap="round" stroke-linejoin="round" stroke-width="2"><path d="m5.18 9.56a1.875 1.875 0 0 0 -1.88 1.881v16.149l13.788 1.043.49-.037v-11.986a1.875 1.875 0 0 1 1.881-1.879l.002-.002h11.414v-3.29a1.875 1.875 0 0 0 -1.879-1.88h-23.814zm8.728 21.211c0 3.182-2.12 5.303-2.12 5.303h10.607s-1.17-1.176-1.772-3.084l-3.045-.23v-1.99z"/><path d="m19.46 14.73h23.813a1.875 1.875 0 0 1 1.88 1.88v16.15l-13.787 1.043-13.788-1.043v-16.15a1.875 1.875 0 0 1 1.88-1.88m8.729 21.21c0 3.182-2.121 5.303-2.121 5.303h10.606s-2.121-2.12-2.121-5.302h-6.364m-4.242 5.303h14.848"/></g></svg>