<svg width="64" height="64" viewBox="0 0 64 64" fill="none" xmlns="http://www.w3.org/2000/svg">
<path d="M20.5129 10.5219C21.6088 10.0457 23.0062 10.5064 23.5806 11.5092C25.0268 13.6696 26.4609 15.8378 27.8908 18.0098C30.4044 18.033 32.9221 17.9982 35.4357 18.0291C37.0082 15.7913 38.43 13.4567 40.0107 11.2266C40.8255 10.1038 42.7566 10.0341 43.6773 11.0717C44.378 11.788 44.5083 12.9417 43.9502 13.7703C43.058 15.2067 42.0762 16.5927 41.1474 18.0098C43.4695 18.033 45.7876 17.9827 48.1056 18.033C49.3808 18.0175 50.4889 19.0164 50.6477 20.2012C51.3199 23.6315 51.9432 27.0734 52.6236 30.5038C54.5546 30.5038 56.4898 30.5076 58.4208 30.4999C57.4512 27.1431 56.3879 23.8096 55.459 20.4451C55.0883 19.0745 56.4123 17.6575 57.8749 17.7426C59.0237 17.7581 59.9811 18.6293 60.197 19.6785C61.4192 23.8173 62.678 27.9484 63.8798 32.0912C64.3606 33.3727 63.338 34.9214 61.8958 34.9988C59.093 35.0724 56.2861 35.0027 53.4832 35.0259C53.7276 36.4933 54.078 37.9452 54.2898 39.4203C54.5669 40.8451 53.2551 42.3008 51.7314 42.2505C49.1567 42.2931 46.5779 42.2505 44.0032 42.2621C45.702 44.8484 47.4538 47.3999 49.1159 50.0055C49.9104 51.2057 49.0996 52.9829 47.6453 53.2694C46.5657 53.5481 45.4046 53.0409 44.8791 52.1156C42.7036 48.8401 40.5159 45.5685 38.3567 42.2815C33.9161 42.2428 29.4756 42.2699 25.035 42.266C22.8269 45.5918 20.6311 48.9292 18.3986 52.2434C17.6205 53.6101 15.3146 53.7069 14.4143 52.4098C13.7665 51.6007 13.8724 50.4353 14.4876 49.6338C16.1253 47.1792 17.7427 44.7129 19.3885 42.2621C17.0053 42.235 14.618 42.3086 12.2388 42.2273C10.9392 42.1653 9.83519 40.9961 9.8963 39.761C10.0348 38.162 10.4259 36.5978 10.6907 35.0182C7.82267 34.9911 4.95055 35.0569 2.08251 34.9872C0.648492 34.9175 -0.321102 33.4075 0.0985124 32.1337C1.12107 27.9639 2.18843 23.798 3.25173 19.6359C3.43913 18.5325 4.54316 17.6729 5.72053 17.762C7.10159 17.7736 8.26265 19.1132 7.94489 20.4025C7.16269 23.7864 6.23791 27.1431 5.41498 30.5192C7.44379 30.5154 9.46853 30.5192 11.4973 30.5154C12.1207 27.0889 12.7236 23.6547 13.3551 20.2283C13.5017 19.0474 14.5935 18.0408 15.8687 18.0408C17.9912 17.9827 20.1137 18.0369 22.2362 18.0098C21.2748 16.5502 20.2522 15.1176 19.3519 13.6193C18.6797 12.5275 19.2948 10.9904 20.5129 10.5219ZM17.7956 22.5668C16.8749 27.6232 15.9624 32.6758 15.058 37.7361C26.412 37.7438 37.766 37.7477 49.12 37.7284C48.1382 32.6797 47.1971 27.6232 46.2153 22.5706C36.7434 22.5629 27.2675 22.5629 17.7956 22.5668Z" fill="url(#paint0_linear)"/>
<path d="M21.7595 24.1193C23.1691 23.6625 24.8557 24.7427 24.8191 26.1791C24.8435 27.4606 24.8842 28.746 24.7905 30.0276C24.5868 31.6343 22.3095 32.4358 21.0181 31.4059C19.5759 30.3644 20.1952 28.4634 20.0607 26.9999C19.91 25.8151 20.4477 24.4523 21.7595 24.1193Z" fill="url(#paint1_linear)"/>
<path d="M40.4385 24.3361C41.7584 23.5269 43.7424 24.3322 44.0032 25.8112C44.1172 27.2399 44.1376 28.6879 43.995 30.1165C43.6854 31.6807 41.4855 32.4202 40.2063 31.3981C38.98 30.5657 39.3018 29.0054 39.2489 27.7742C39.2285 26.5623 39.1307 25.0175 40.4385 24.3361Z" fill="url(#paint2_linear)"/>
<defs>
<linearGradient id="paint0_linear" x1="32" y1="53.3457" x2="32" y2="10.3333" gradientUnits="userSpaceOnUse">
<stop stop-color="#A93AFF"/>
<stop offset="1" stop-color="#FF81FF"/>
</linearGradient>
<linearGradient id="paint1_linear" x1="22.4426" y1="31.8663" x2="22.4426" y2="24.0132" gradientUnits="userSpaceOnUse">
<stop stop-color="#A93AFF"/>
<stop offset="1" stop-color="#FF81FF"/>
</linearGradient>
<linearGradient id="paint2_linear" x1="41.6672" y1="31.8689" x2="41.6672" y2="24.0152" gradientUnits="userSpaceOnUse">
<stop stop-color="#A93AFF"/>
<stop offset="1" stop-color="#FF81FF"/>
</linearGradient>
</defs>
</svg>
