<svg width="512" height="512" viewBox="0 0 512 512" fill="none" xmlns="http://www.w3.org/2000/svg">
<path d="M435.995 63.834C380.083 63.834 325.957 47.7623 279.434 17.3584L264.317 7.47737C259.278 4.17421 252.715 4.17421 247.676 7.47737L232.56 17.3584C186.037 47.7633 131.912 63.834 75.9998 63.834C67.7089 63.834 61 70.4118 61 78.5408V247.433C61 365.045 137.464 469.055 251.251 506.239C252.789 506.742 254.4 507 255.997 507C257.594 507 259.205 506.741 260.743 506.239C374.531 469.055 450.995 365.045 450.995 247.433V78.5408C450.995 70.4118 444.286 63.834 435.995 63.834ZM420.995 247.433C420.995 350.726 354.902 442.256 255.997 476.739C157.093 442.256 90.9996 350.726 90.9996 247.433V92.9035C147.498 90.2612 201.916 72.7394 249.2 41.8316L255.997 37.394L262.794 41.8316C310.079 72.7385 364.497 90.2612 420.995 92.9035V247.433ZM221.603 261.293C215.744 255.548 206.251 255.548 200.392 261.293C194.533 267.037 194.533 276.345 200.392 282.089L230.392 311.503C233.322 314.376 237.16 315.812 240.997 315.812C244.834 315.812 248.672 314.376 251.601 311.503L311.601 252.676C317.46 246.931 317.46 237.624 311.601 231.879C305.742 226.135 296.249 226.135 290.39 231.879L240.996 280.309L221.603 261.293ZM120.999 256.984C120.999 329.972 181.555 389.345 255.997 389.345C330.439 389.345 390.996 329.972 390.996 256.984C390.996 183.996 330.439 124.622 255.997 124.622C181.555 124.622 120.999 183.996 120.999 256.984ZM360.996 256.984C360.996 313.743 313.888 359.932 255.997 359.932C198.107 359.932 150.999 313.743 150.999 256.984C150.999 200.224 198.107 154.036 255.997 154.036C313.888 154.036 360.996 200.225 360.996 256.984Z" fill="url(#paint0_linear)" stroke="url(#paint1_linear)" stroke-width="4"/>
<defs>
<linearGradient id="paint0_linear" x1="255.997" y1="5" x2="255.997" y2="506.999" gradientUnits="userSpaceOnUse">
<stop stop-color="#BAFA52"/>
<stop offset="1" stop-color="#3F8F5B"/>
</linearGradient>
<linearGradient id="paint1_linear" x1="255.997" y1="5" x2="255.997" y2="506.999" gradientUnits="userSpaceOnUse">
<stop stop-color="#BAFA52"/>
<stop offset="1" stop-color="#3F8F5B"/>
</linearGradient>
</defs>
</svg>
