<svg width="512" height="512" viewBox="0 0 512 512" fill="none" xmlns="http://www.w3.org/2000/svg">
<path fill-rule="evenodd" clip-rule="evenodd" d="M435.995 63.834C380.083 63.834 325.957 47.7623 279.434 17.3584L264.317 7.47737C259.278 4.17421 252.715 4.17421 247.676 7.47737L232.56 17.3584C186.037 47.7633 131.912 63.834 75.9998 63.834C67.7089 63.834 61 70.4118 61 78.5408V247.433C61 365.045 137.464 469.055 251.251 506.239C252.789 506.742 254.4 507 255.997 507C257.594 507 259.205 506.741 260.743 506.239C374.531 469.055 450.995 365.045 450.995 247.433V78.5408C450.995 70.4118 444.286 63.834 435.995 63.834ZM420.995 247.433C420.995 350.726 354.902 442.256 255.997 476.739C157.093 442.256 90.9996 350.726 90.9996 247.433V92.9035C147.498 90.2612 201.916 72.7394 249.2 41.8316L255.997 37.394L262.794 41.8316C310.079 72.7385 364.497 90.2612 420.995 92.9035V247.433ZM120.999 256.984C120.999 329.972 181.555 389.345 255.997 389.345C330.439 389.345 390.996 329.972 390.996 256.984C390.996 183.996 330.439 124.622 255.997 124.622C181.555 124.622 120.999 183.996 120.999 256.984ZM360.996 256.984C360.996 313.743 313.888 359.932 255.997 359.932C198.107 359.932 150.999 313.743 150.999 256.984C150.999 200.224 198.107 154.036 255.997 154.036C313.888 154.036 360.996 200.225 360.996 256.984ZM240 231.75H272.091V320H240V231.75ZM270.975 213.933C271.759 211.944 272.138 209.819 272.09 207.683C271.995 203.49 270.263 199.502 267.264 196.571C264.265 193.64 260.238 191.999 256.045 192C251.851 192.001 247.825 193.644 244.828 196.576C241.83 199.509 240.1 203.498 240.007 207.691C239.96 209.828 240.34 211.952 241.125 213.94C241.91 215.928 243.085 217.739 244.58 219.267C246.074 220.794 247.859 222.008 249.829 222.837C251.8 223.665 253.915 224.091 256.053 224.091C258.19 224.09 260.306 223.663 262.276 222.833C264.245 222.004 266.03 220.789 267.524 219.261C269.017 217.732 270.191 215.921 270.975 213.933Z" fill="url(#paint0_linear)"/>
<defs>
<linearGradient id="paint0_linear" x1="255.997" y1="507" x2="255.997" y2="5" gradientUnits="userSpaceOnUse">
<stop stop-color="#FFA800"/>
<stop offset="1" stop-color="#FFF737"/>
</linearGradient>
</defs>
</svg>
