<svg width="192" height="192" viewBox="0 0 192 192" fill="none" xmlns="http://www.w3.org/2000/svg">
<path fill-rule="evenodd" clip-rule="evenodd" d="M50.7761 25.4801C52.2226 22.4844 56.155 21.1077 59.0694 22.6166C62.5042 24.3115 65.8959 26.0948 69.2869 27.8777C71.9996 29.304 74.7119 30.73 77.4453 32.1103L77.4132 32.1434C82.7611 34.9009 88.1018 37.6879 93.4412 40.4743C94.6275 41.0933 95.8137 41.7124 96.9999 42.331C104.967 46.5016 112.946 50.6511 120.924 54.8001L121.323 55.0077C129.51 59.292 137.705 63.5543 145.902 67.8165L145.892 67.8275C148.666 69.2706 151.437 70.7165 154.208 72.1622C159.282 74.8099 164.356 77.457 169.443 80.0857C175.379 82.9603 180.383 87.8833 183.094 94.062C185.033 98.6877 185.633 103.743 185.408 108.754C185.357 115.761 185.38 122.771 185.403 129.782C185.438 140.447 185.473 151.115 185.247 161.774C183.747 166.157 179.911 169.836 175.218 169.902C168.751 170.014 162.284 169.996 155.814 169.977C151.501 169.965 147.186 169.953 142.87 169.979H115.954C111.502 169.984 107.051 169.982 102.598 169.979C98.1444 169.976 93.6894 169.973 89.2316 169.979L63.5375 169.979C59.73 169.988 55.9206 169.984 52.1102 169.98C46.6667 169.974 41.2211 169.969 35.7754 170.001C27.675 170.486 19.4031 167.578 13.6921 161.543C12.5028 160.177 11.3777 158.745 10.3169 157.269C7.55251 152.798 5.99886 147.544 6.02029 142.236C5.99886 135.231 5.98814 128.226 6.02029 121.222C5.77385 117.631 8.83829 114.25 12.3635 114.338C19.6793 114.282 26.9952 114.288 34.3137 114.295C38.4965 114.298 42.6801 114.302 46.8652 114.294L105.722 114.294C109.061 114.298 112.4 114.296 115.738 114.293C120.746 114.289 125.754 114.285 130.762 114.305C135.858 114.282 140.954 114.292 146.049 114.301C153.244 114.314 160.438 114.327 167.632 114.25C170.021 114.283 172.282 112.279 172.539 109.823C172.893 105.758 172.722 101.386 170.514 97.8397C168.554 94.1795 164.816 92.2973 161.303 90.5289C161.148 90.4509 160.993 90.3731 160.839 90.2953C156.704 88.1674 152.582 86.0137 148.461 83.8604C144.967 82.0349 141.473 80.2096 137.973 78.4006C129.444 73.9401 120.915 69.4906 112.376 65.0411C107.903 62.718 103.436 60.3883 98.9702 58.0593C95.2849 56.1372 91.6004 54.2155 87.9137 52.2983C84.726 50.6408 81.5411 48.9777 78.3561 47.3147C75.1711 45.6516 71.9861 43.9886 68.7985 42.331C66.8981 41.3278 64.9889 40.3416 63.0795 39.3552C59.4338 37.4719 55.7875 35.5883 52.2012 33.5862C50.069 31.5817 49.3725 28.1124 50.7761 25.4801ZM31.8963 127.378C29.2833 127.359 26.6719 127.34 24.0639 127.422C21.4494 127.268 18.91 129.482 18.8457 132.213C18.61 136.476 18.5779 140.782 19.1029 145.033C19.4993 147.313 20.6351 149.362 21.8137 151.3C26.3122 157.255 33.5416 157.083 40.2903 156.921C41.8038 156.885 43.2931 156.85 44.7221 156.884C49.3616 156.889 54.0011 156.887 58.6406 156.884C63.2802 156.881 67.9197 156.878 72.5592 156.884C76.0994 156.889 79.6416 156.887 83.1849 156.886C87.9099 156.884 92.6369 156.882 97.364 156.895C100.342 156.895 103.321 156.893 106.301 156.89C112.263 156.885 118.228 156.88 124.194 156.895C133.42 156.884 142.645 156.884 151.86 156.884C153.863 156.854 155.867 156.873 157.872 156.891C160.982 156.921 164.091 156.95 167.193 156.796C170.15 156.708 172.689 153.932 172.593 150.892C172.689 144.549 172.689 138.205 172.561 131.861C171.982 130.759 171.35 129.691 170.664 128.656C169.1 127.852 167.428 127.246 165.661 127.378C158.46 127.383 151.26 127.381 144.059 127.378C136.859 127.375 129.658 127.372 122.458 127.378C118.188 127.383 113.919 127.381 109.649 127.378C105.379 127.375 101.109 127.372 96.839 127.378C92.1785 127.383 87.518 127.381 82.8561 127.378C78.1934 127.375 73.5293 127.372 68.8626 127.378C63.6819 127.383 58.5013 127.381 53.3206 127.378C48.14 127.375 42.9594 127.372 37.7788 127.378C35.8177 127.406 33.8566 127.392 31.8963 127.378Z" fill="url(#paint0_linear)"/>
<path d="M123.155 96.5401C113.79 96.5071 104.436 96.5401 95.0709 96.5291C85.074 96.5181 75.0773 96.529 65.0803 96.529C54.6548 96.5731 44.2185 96.4189 33.793 96.6061C29.0785 96.7824 26.389 102.829 28.9177 106.805C30.4821 108.479 32.4751 109.834 34.843 109.657C41.9041 109.756 48.9759 109.646 56.0477 109.69C66.0554 109.679 76.0628 109.69 86.0705 109.69C95.6924 109.679 105.315 109.701 114.936 109.679C124.654 109.646 134.384 109.756 144.102 109.646C147.381 109.911 149.963 107.333 150.949 104.327C151.356 100.692 148.785 96.8154 145.088 96.6172C137.781 96.4079 130.462 96.5842 123.155 96.5401Z" fill="url(#paint1_linear)"/>
<path d="M46 143C46 147.971 41.9706 152 37 152C32.0294 152 28 147.971 28 143C28 138.029 32.0294 134 37 134C41.9706 134 46 138.029 46 143Z" fill="url(#paint2_linear)"/>
<defs>
<linearGradient id="paint0_linear" x1="32.2804" y1="148.371" x2="135.062" y2="23.7906" gradientUnits="userSpaceOnUse">
<stop stop-color="#0072FF"/>
<stop offset="1" stop-color="#00E5A1"/>
</linearGradient>
<linearGradient id="paint1_linear" x1="32.2804" y1="148.371" x2="135.062" y2="23.7906" gradientUnits="userSpaceOnUse">
<stop stop-color="#0072FF"/>
<stop offset="1" stop-color="#00E5A1"/>
</linearGradient>
<linearGradient id="paint2_linear" x1="32.2804" y1="148.371" x2="135.062" y2="23.7906" gradientUnits="userSpaceOnUse">
<stop stop-color="#0072FF"/>
<stop offset="1" stop-color="#00E5A1"/>
</linearGradient>
</defs>
</svg>
