<svg viewBox="0 0 48 48" xmlns="http://www.w3.org/2000/svg" xmlns:xlink="http://www.w3.org/1999/xlink"><linearGradient id="a" gradientTransform="matrix(0 -1 1 0 0 48)" gradientUnits="userSpaceOnUse" x1="8.356" x2="41.396" y1="7.755" y2="38.532"><stop offset="0" stop-color="#05f"/><stop offset="1" stop-color="#00ffd8"/></linearGradient><path d="m18.06 11a7.047 7.047 0 0 0 -7.05 7.05c0 1.203.305 2.367.836 3.359-.176.84-.273 1.695-.273 2.586 0 6.863 5.566 12.43 12.438 12.43.887 0 1.746-.094 2.582-.27.996.539 2.145.84 3.355.84a7.047 7.047 0 0 0 7.05-7.05 7.117 7.117 0 0 0 -.84-3.363c.176-.836.27-1.695.27-2.582 0-6.859-5.566-12.43-12.43-12.43-.891 0-1.75.09-2.586.27a7.16 7.16 0 0 0 -3.359-.84m5.703 5.16c3.883 0 5.887 2.043 5.887 3.242 0 1.203-.578 1.383-1.531 1.383-1.852 0-1.094-2.223-4.563-2.223-1.148 0-2.582.523-2.582 1.859 0 1.074 1.27 1.469 3.512 2.02 3.379.902 5.914 1.801 5.914 4.891 0 3-2.453 4.504-6.336 4.504s-6.363-2.313-6.363-3.512.457-1.5 1.41-1.5c1.855 0 1.605 2.523 5.074 2.523 1.152 0 2.852-.523 2.852-1.863 0-1.07-.09-1.441-2.551-2.102-2.629-.355-6.875-1.207-6.875-4.473 0-3 2.273-4.746 6.156-4.746m0 0" fill="none" stroke="url(#a)" stroke-width="1.22" transform="matrix(1.55674 0 0 1.55674 -13.642 -13.639)"/><circle cx="37.105" cy="36.696" fill="#ff0037" r="3.495"/></svg>