<?xml version="1.0" encoding="UTF-8" ?>
<!DOCTYPE svg PUBLIC "-//W3C//DTD SVG 1.1//EN" "http://www.w3.org/Graphics/SVG/1.1/DTD/svg11.dtd">
<svg width="192pt" height="192pt" viewBox="0 0 192 192" version="1.1" xmlns="http://www.w3.org/2000/svg">
<g id="#8d0affff">
<path fill="#8d0aff" opacity="1.00" d=" M 13.13 45.93 C 12.89 38.14 19.36 31.09 27.02 30.22 C 30.89 29.64 34.77 30.87 38.05 32.87 C 44.79 36.83 51.65 40.59 58.33 44.64 C 55.89 47.73 53.61 50.95 51.57 54.32 C 45.43 50.85 39.32 47.31 33.23 43.75 C 31.29 42.68 28.87 41.18 26.72 42.64 C 24.85 43.67 25.09 46.11 24.95 47.92 C 24.91 68.37 25.10 88.81 24.88 109.25 C 23.91 103.87 23.56 98.37 21.93 93.12 C 19.27 96.67 15.44 99.70 14.22 104.08 C 13.58 118.76 14.35 133.50 13.47 148.18 C 12.94 145.15 13.09 142.06 13.10 138.99 C 13.12 107.97 13.10 76.95 13.13 45.93 Z" />
</g>
<g id="#c472fcff">
<path fill="#c472fc" opacity="1.00" d=" M 150.00 35.00 C 153.73 32.87 157.49 30.20 161.96 30.15 C 169.36 29.69 177.21 35.25 178.04 42.82 C 177.56 47.38 178.12 52.01 177.37 56.52 C 174.63 60.77 170.49 63.90 166.71 67.18 C 166.47 59.28 167.15 51.33 166.27 43.46 C 164.36 42.20 161.99 41.41 159.96 42.97 C 142.58 52.96 125.18 62.93 107.83 72.98 C 103.90 70.62 99.92 68.36 95.92 66.13 C 113.95 55.75 131.98 45.39 150.00 35.00 Z" />
</g>
<g id="#00000036">
<path fill="#000000" opacity="0.21" d=" M 26.72 42.64 C 28.87 41.18 31.29 42.68 33.23 43.75 C 39.32 47.31 45.43 50.85 51.57 54.32 C 61.92 60.37 72.37 66.25 82.71 72.32 L 83.60 72.85 C 83.09 73.21 82.07 73.93 81.56 74.28 C 76.45 70.17 70.52 67.34 64.87 64.10 C 55.00 58.25 44.98 52.67 35.07 46.89 C 32.79 45.44 30.11 44.86 27.43 45.29 C 27.05 47.84 26.66 50.40 26.67 52.98 C 26.81 79.65 26.69 106.33 26.74 133.00 C 26.77 137.89 27.24 142.93 25.56 147.64 C 25.12 145.81 24.94 143.93 24.94 142.05 C 24.94 131.12 25.07 120.18 24.88 109.25 C 25.10 88.81 24.91 68.37 24.95 47.92 C 25.09 46.11 24.85 43.67 26.72 42.64 Z" />
<path fill="#000000" opacity="0.21" d=" M 159.96 42.97 C 161.99 41.41 164.36 42.20 166.27 43.46 C 163.17 44.47 160.07 45.56 157.27 47.27 C 144.05 55.14 130.66 62.71 117.29 70.31 C 115.03 71.62 112.91 73.16 110.85 74.76 C 109.84 74.17 108.83 73.58 107.83 72.98 C 125.18 62.93 142.58 52.96 159.96 42.97 Z" />
<path fill="#000000" opacity="0.21" d=" M 178.51 44.11 C 180.61 45.29 180.54 47.89 180.66 49.99 C 180.66 79.65 180.62 109.33 180.68 139.00 C 180.68 145.13 180.94 151.96 177.14 157.16 C 172.65 163.83 162.93 165.82 155.99 162.01 C 152.04 159.96 148.22 157.70 144.31 155.59 C 144.56 155.10 145.04 154.13 145.28 153.64 C 149.45 155.86 153.34 158.64 157.75 160.38 C 164.87 163.00 173.43 159.39 176.79 152.66 C 178.56 149.42 178.64 145.64 178.63 142.04 C 178.52 109.40 178.70 76.75 178.51 44.11 Z" />
<path fill="#000000" opacity="0.21" d=" M 95.60 79.80 C 97.85 81.04 100.08 82.32 102.30 83.62 C 99.53 82.84 96.36 82.01 93.76 83.79 C 86.51 88.10 78.77 91.73 72.29 97.22 C 72.47 95.41 72.40 93.22 74.33 92.32 C 81.28 87.93 88.70 84.29 95.60 79.80 Z" />
</g>
<g id="#e07df9ff">
<path fill="#e07df9" opacity="1.00" d=" M 178.04 42.82 C 178.16 43.14 178.40 43.79 178.51 44.11 C 178.70 76.75 178.52 109.40 178.63 142.04 C 178.64 145.64 178.56 149.42 176.79 152.66 C 173.43 159.39 164.87 163.00 157.75 160.38 C 153.34 158.64 149.45 155.86 145.28 153.64 C 140.06 150.66 134.85 147.66 129.65 144.63 C 129.55 144.57 129.34 144.45 129.24 144.39 C 125.60 142.33 121.95 140.29 118.40 138.08 C 119.44 135.97 120.23 133.65 121.86 131.90 C 123.39 130.69 125.33 130.19 127.11 129.46 C 137.74 135.63 148.42 141.70 159.05 147.87 C 160.72 148.73 162.78 150.03 164.64 148.86 C 166.52 148.02 166.71 145.81 166.70 144.03 C 166.69 118.41 166.68 92.80 166.71 67.18 C 170.49 63.90 174.63 60.77 177.37 56.52 C 178.12 52.01 177.56 47.38 178.04 42.82 Z" />
</g>
<g id="#9b13ffff">
<path fill="#9b13ff" opacity="1.00" d=" M 58.33 44.64 C 68.76 50.51 79.15 56.46 89.44 62.56 C 86.19 65.02 83.20 68.06 82.71 72.32 C 72.37 66.25 61.92 60.37 51.57 54.32 C 53.61 50.95 55.89 47.73 58.33 44.64 Z" />
<path fill="#9b13ff" opacity="1.00" d=" M 14.22 104.08 C 15.44 99.70 19.27 96.67 21.93 93.12 C 23.56 98.37 23.91 103.87 24.88 109.25 C 25.07 120.18 24.94 131.12 24.94 142.05 C 24.94 143.93 25.12 145.81 25.56 147.64 C 27.18 149.45 29.58 149.46 31.74 148.72 C 28.84 152.50 25.55 155.98 22.90 159.95 C 21.99 159.59 21.09 159.20 20.21 158.78 C 16.82 156.22 13.89 152.53 13.47 148.18 C 14.35 133.50 13.58 118.76 14.22 104.08 Z" />
</g>
<g id="#af21ffff">
<path fill="#af21ff" opacity="1.00" d=" M 89.44 62.56 C 91.61 63.73 93.76 64.93 95.92 66.13 C 99.92 68.36 103.90 70.62 107.83 72.98 C 108.83 73.58 109.84 74.17 110.85 74.76 C 115.31 77.47 119.97 79.83 124.35 82.67 C 127.87 84.94 130.13 88.74 131.14 92.74 C 131.71 98.44 129.89 104.61 125.08 108.06 C 119.51 111.87 113.39 114.79 107.69 118.41 C 103.82 120.51 99.99 122.68 96.27 125.03 C 76.37 136.11 56.77 147.71 36.98 158.98 C 32.75 161.50 27.45 161.81 22.90 159.95 C 25.55 155.98 28.84 152.50 31.74 148.72 C 33.50 147.43 35.36 146.26 37.25 145.18 C 52.86 136.25 68.42 127.23 84.01 118.28 C 87.99 116.20 91.80 113.83 95.60 111.45 C 102.26 107.90 108.73 103.99 115.31 100.29 C 116.93 99.21 119.26 98.22 119.28 95.94 C 119.57 93.62 117.41 92.29 115.70 91.29 C 111.24 88.72 106.76 86.19 102.30 83.62 C 100.08 82.32 97.85 81.04 95.60 79.80 C 91.61 77.47 87.62 75.13 83.60 72.85 L 82.71 72.32 C 83.20 68.06 86.19 65.02 89.44 62.56 Z" />
</g>
<g id="#b66dfdff">
<path fill="#b66dfd" opacity="1.00" d=" M 83.60 72.85 C 87.62 75.13 91.61 77.47 95.60 79.80 C 88.70 84.29 81.28 87.93 74.33 92.32 C 72.40 93.22 72.47 95.41 72.29 97.22 C 79.41 102.93 88.01 106.42 95.60 111.45 C 91.80 113.83 87.99 116.20 84.01 118.28 C 78.96 115.59 74.05 112.68 69.09 109.84 C 65.73 107.97 62.89 105.07 61.56 101.42 C 58.98 94.97 61.19 86.91 66.98 82.95 C 71.66 79.78 76.82 77.37 81.56 74.28 C 82.07 73.93 83.09 73.21 83.60 72.85 Z" />
</g>
<g id="#08020b46">
<path fill="#08020b" opacity="0.27" d=" M 131.14 92.74 C 132.60 97.95 132.26 104.21 128.24 108.23 C 123.24 113.35 116.05 115.36 110.66 120.00 C 109.67 119.46 108.68 118.93 107.69 118.41 C 113.39 114.79 119.51 111.87 125.08 108.06 C 129.89 104.61 131.71 98.44 131.14 92.74 Z" />
</g>
<g id="#ce76fbff">
<path fill="#ce76fb" opacity="1.00" d=" M 96.27 125.03 C 99.99 122.68 103.82 120.51 107.69 118.41 C 108.68 118.93 109.67 119.46 110.66 120.00 C 116.16 123.13 121.61 126.34 127.11 129.46 C 125.33 130.19 123.39 130.69 121.86 131.90 C 120.23 133.65 119.44 135.97 118.40 138.08 C 113.30 135.40 108.40 132.36 103.36 129.57 C 100.95 128.13 98.56 126.65 96.27 125.03 Z" />
</g>
<g id="#09020d49">
<path fill="#09020d" opacity="0.29" d=" M 36.98 158.98 C 56.77 147.71 76.37 136.11 96.27 125.03 C 98.56 126.65 100.95 128.13 103.36 129.57 C 101.21 129.18 99.13 128.49 97.00 128.02 C 93.76 128.53 91.11 130.73 88.27 132.24 C 71.26 141.90 54.46 151.94 37.35 161.41 C 32.06 164.22 23.79 164.16 20.21 158.78 C 21.09 159.20 21.99 159.59 22.90 159.95 C 27.45 161.81 32.75 161.50 36.98 158.98 Z" />
</g>
<g id="#703f81a8">
<path fill="#703f81" opacity="0.66" d=" M 129.24 144.39 C 129.34 144.45 129.55 144.57 129.65 144.63 C 129.55 144.57 129.34 144.45 129.24 144.39 Z" />
</g>
</svg>
