<svg viewBox="0 0 48 48" xmlns="http://www.w3.org/2000/svg" xmlns:xlink="http://www.w3.org/1999/xlink"><linearGradient id="a" gradientUnits="userSpaceOnUse" x1="15.049" x2="37" y1="13.402" y2="34.216"><stop offset="0" stop-color="#ff06f7"/><stop offset="1" stop-color="#9587ff"/></linearGradient><g fill="none" stroke="url(#a)" stroke-linecap="round" stroke-linejoin="round" stroke-width="1.407" transform="matrix(1.56341 0 0 1.56341 -12.95 -12.198)"><path d="m11.965 20c-.57.027-.965.156-.965.766v12.773c0 .809.699 1.457 1.574 1.457h22.824c.879 0 1.602-.648 1.602-1.457v-12.773c0-.813-.723-.766-1.602-.766h-22.824c-.219 0-.422-.012-.609 0"/><path d="m15.05 13.402-3.25 4.598h11.195v-7h-5.508c-.813 0-2.438 2.402-2.438 2.402m9.938-2.402v7h11.188l-3.25-4.598s-1.625-2.402-2.441-2.402zm.005 0"/></g><path d="m17.196 25.518h16v2.667h-16zm-5.558 9.589h26.775v2.308h-26.775z" fill="#be0bff"/></svg>