<svg width="167" height="158" viewBox="0 0 167 158" fill="none" xmlns="http://www.w3.org/2000/svg">
<path d="M44.9849 121V131.793C44.9849 140.878 70.087 148.25 101.055 148.25C132.023 148.25 157.125 140.878 157.125 131.793V98.875M157.125 98.875C157.125 107.965 119.468 115.5 88.5 115.5M157.125 98.875V67.6682M95 79C125.968 79 157.125 71.7534 157.125 62.6684V26.4568M157.125 26.4568C157.125 35.5456 132.022 42.9134 101.055 42.9134C70.0884 42.9134 44.9849 35.5455 44.9849 26.4567C44.9849 17.3679 70.0884 10 101.055 10C132.022 10 157.125 17.368 157.125 26.4568Z" stroke="url(#paint0_linear)" stroke-width="10"/>
<path d="M17.2316 42H17.2044L17.1771 42.0003C15.7298 42.0161 14.2937 42.3012 12.9486 42.8456C11.6032 43.3902 10.3668 44.1872 9.31698 45.2037C8.26657 46.2208 7.42276 47.439 6.84807 48.796C6.27768 50.1429 5.98726 51.5922 6.00043 53.0596V113.354C5.98726 114.821 6.27768 116.271 6.84807 117.618C7.42276 118.975 8.26656 120.193 9.31698 121.21C10.3668 122.226 11.6032 123.023 12.9486 123.568C14.2937 124.112 15.7298 124.398 17.1771 124.413L17.2044 124.414H17.2316H79.5331H79.5603L79.5876 124.413C81.0348 124.398 82.471 124.112 83.816 123.568C85.1615 123.023 86.3979 122.226 87.4477 121.21C88.4981 120.193 89.3419 118.975 89.9166 117.618C90.4869 116.271 90.7774 114.822 90.7642 113.354V53.0594C90.7774 51.592 90.4869 50.1428 89.9166 48.796C89.3419 47.439 88.4981 46.2208 87.4477 45.2037C86.3979 44.1872 85.1615 43.3902 83.816 42.8456C82.471 42.3012 81.0348 42.0161 79.5876 42.0003L79.5603 42H79.5331H17.2316Z" stroke="url(#paint1_linear)" stroke-width="10"/>
<path d="M56.8906 94.3926C56.8906 92.4557 56.207 90.9746 54.8398 89.9492C53.4727 88.901 51.0117 87.8073 47.457 86.668C43.9023 85.5058 41.0882 84.3665 39.0146 83.25C33.3636 80.1966 30.5381 76.0836 30.5381 70.9111C30.5381 68.2223 31.29 65.8297 32.7939 63.7334C34.3206 61.6142 36.4967 59.9622 39.3223 58.7773C42.1706 57.5924 45.3607 57 48.8926 57C52.4473 57 55.6146 57.6494 58.3945 58.9482C61.1745 60.2243 63.3278 62.0358 64.8545 64.3828C66.0501 66.1938 66.7844 68.1947 67.0575 70.3856C67.1941 71.4817 66.2833 72.3808 65.1787 72.3808H58.9248C57.8202 72.3808 56.9613 71.4728 56.7148 70.396C56.4065 69.0492 55.7587 67.9448 54.7715 67.083C53.3359 65.8069 51.3193 65.1689 48.7217 65.1689C46.2152 65.1689 44.2669 65.7044 42.877 66.7754C41.487 67.8235 40.792 69.2135 40.792 70.9453C40.792 72.5631 41.6009 73.9189 43.2187 75.0127C44.8594 76.1064 47.2633 77.1318 50.4307 78.0888C56.264 79.8434 60.5137 82.0195 63.1797 84.6172C65.8457 87.2148 67.1787 90.4505 67.1787 94.3242C67.1787 98.6308 65.5495 102.015 62.291 104.475C59.0326 106.914 54.6462 108.133 49.1318 108.133C45.3037 108.133 41.8174 107.438 38.6728 106.048C35.5283 104.635 33.1243 102.71 31.4609 100.272C30.169 98.3515 29.3857 96.1913 29.1112 93.7909C28.9856 92.6935 29.8954 91.7949 31 91.7949H37.2881C38.3927 91.7949 39.2596 92.6988 39.4525 93.7864C40.191 97.9503 43.4174 100.032 49.1318 100.032C51.57 100.032 53.4727 99.5423 54.8398 98.5625C56.207 97.5599 56.8906 96.1699 56.8906 94.3926Z" fill="url(#paint2_linear)"/>
<defs>
<linearGradient id="paint0_linear" x1="101.055" y1="148.25" x2="101.055" y2="10" gradientUnits="userSpaceOnUse">
<stop stop-color="#00B59C"/>
<stop offset="1" stop-color="#9CFFAC"/>
</linearGradient>
<linearGradient id="paint1_linear" x1="48.3823" y1="124.414" x2="48.3823" y2="42" gradientUnits="userSpaceOnUse">
<stop stop-color="#00B59C"/>
<stop offset="1" stop-color="#9CFFAC"/>
</linearGradient>
<linearGradient id="paint2_linear" x1="34.5912" y1="100.645" x2="69.2577" y2="74.7611" gradientUnits="userSpaceOnUse">
<stop stop-color="#0072FF"/>
<stop offset="1" stop-color="#00E5A1"/>
</linearGradient>
</defs>
</svg>
