<svg viewBox="0 0 48 48" xmlns="http://www.w3.org/2000/svg" xmlns:xlink="http://www.w3.org/1999/xlink"><linearGradient id="a" gradientTransform="matrix(0 -1 1 0 0 48)" gradientUnits="userSpaceOnUse" x1="8.634594" x2="42.347321" y1="11.0357" y2="42.561123"><stop offset="0" stop-color="#95ff04"/><stop offset="1" stop-color="#00a691"/></linearGradient><g fill="none" stroke="url(#a)" stroke-linecap="round" stroke-linejoin="round" stroke-width="3"><ellipse cx="24.168491" cy="13.74475" rx="20.745762" ry="6.90404"/><path d="m13.432695 19.642578a20.745762 6.9040403 0 0 0 -10.0097655 5.898438 20.745762 6.9040403 0 0 0 20.7460935 6.904296 20.745762 6.9040403 0 0 0 20.746094-6.904296 20.745762 6.9040403 0 0 0 -10.007813-5.896485 20.745762 6.9040403 0 0 1 -10.738281 1.003907 20.745762 6.9040403 0 0 1 -10.736328-1.00586z"/><path d="m13.432695 31.71609a20.745762 6.9040403 0 0 0 -10.0097655 5.898438 20.745762 6.9040403 0 0 0 20.7460935 6.904296 20.745762 6.9040403 0 0 0 20.746094-6.904296 20.745762 6.9040403 0 0 0 -10.007813-5.896485 20.745762 6.9040403 0 0 1 -10.738281 1.003907 20.745762 6.9040403 0 0 1 -10.736328-1.00586z"/></g></svg>