<svg width="192" height="192" viewBox="0 0 192 192" fill="none" xmlns="http://www.w3.org/2000/svg">
<path d="M108.047 51.7012C115.808 43.646 127.765 39.6755 139.006 41.3958C148.882 42.8144 157.948 48.5542 163.333 56.6665C168.92 64.9011 170.487 75.5409 167.538 84.974C163.948 97.2362 152.572 106.824 139.638 108.944C137.506 109.335 135.062 108.887 133.276 110.322C125.801 115.548 118.234 120.66 110.777 125.919C110.347 132.286 107.6 138.491 103.008 143.073C96.6036 149.644 86.6182 152.718 77.4839 150.794C68.6108 149.131 60.85 142.959 57.4541 134.855C56.8474 133.811 56.6705 132.262 55.2885 131.911C45.7581 128.112 36.2194 124.329 26.689 120.538C24.3717 119.82 22.6358 117.546 23.0656 115.157C23.3605 111.936 27.3884 109.939 30.304 111.52C41.1826 115.817 52.0696 120.097 62.8976 124.508C65.4593 125.478 65.6615 128.397 66.4705 130.558C69.445 138.801 79.5905 143.635 88.1603 140.847C95.5334 138.744 100.943 131.577 100.69 124.133C100.547 122.315 101.213 120.415 102.848 119.396C111.535 113.347 120.248 107.338 128.97 101.337C131.397 99.462 134.599 99.7555 137.497 99.3723C149.96 97.6602 160.047 85.9197 158.867 73.6657C158.387 61.3708 146.851 50.5109 134.051 50.8941C122.186 50.2011 111.038 59.1939 108.923 70.3881C108.123 73.2743 108.957 76.6089 106.96 79.1282C100.901 87.6645 94.8088 96.1845 88.7333 104.713C87.6884 106.49 85.6492 107.517 83.5341 107.313C80.0793 107.24 76.5907 107.99 73.7088 109.898C71.7455 111.365 68.9226 111.374 66.9002 110.004C53.1482 102.136 39.3372 94.3663 25.5935 86.4741C22.8886 85.137 22.1387 81.2562 24.2369 79.1119C25.7789 77.2938 28.6608 76.8943 30.6747 78.2069C43.8201 85.6344 56.957 93.0781 70.0686 100.546C73.6835 98.932 77.5345 97.8151 81.5286 97.6276C87.1575 89.8088 92.8454 82.0226 98.2468 74.0652C98.8703 65.8305 102.089 57.7101 108.047 51.7012Z" fill="url(#paint0_linear)" stroke="url(#paint1_linear)" stroke-width="2"/>
<path d="M130.166 60.1641C136.663 58.4194 144.087 61.8111 146.775 67.8036C149.699 73.6004 147.634 81.1583 142.183 84.8435C137.413 88.276 130.478 88.3575 125.641 84.9984C120.88 81.9003 118.529 75.8833 119.878 70.4941C120.931 65.537 125.136 61.436 130.166 60.1641Z" fill="url(#paint2_linear)"/>
<path d="M80.2477 116.91C86.7614 114.725 93.5784 121.94 90.764 128.014C88.8427 133.583 80.6353 135.262 76.5148 130.966C71.8718 126.791 74.0458 118.361 80.2477 116.91Z" fill="url(#paint3_linear)"/>
<path d="M29.2694 10.0185C32.0189 9.25526 34.8793 9.00084 37.7175 9.00084C77.2307 9.03403 116.744 8.96766 156.257 9.02297C170.626 8.84598 183.597 21.4892 183.575 35.8692C183.63 74.5733 183.564 113.277 183.608 151.981C183.686 156.45 183.597 161.052 181.912 165.277C178.131 175.775 167.466 183.297 156.279 183.308C116.023 183.319 75.7672 183.374 35.5223 183.274C21.431 182.998 9.02495 170.509 9.02495 156.428C8.99168 116.22 8.99168 76.0223 9.02495 35.8139C9.10255 23.9891 17.85 13.0051 29.2694 10.0185ZM34.9014 22.1972C29.4578 22.7945 24.5797 26.7545 22.8723 31.9313C21.3756 37.1634 22.5508 42.6277 22.1406 47.9594C22.1738 78.5665 22.0741 109.174 22.2625 139.792C22.2958 145.986 21.5862 152.214 22.3956 158.386C23.4377 165.067 29.8126 170.277 36.5645 170.178C75.3681 170.255 114.172 170.156 152.987 170.211C156.335 170.255 159.871 170.144 162.854 168.43C167.61 165.941 170.637 160.687 170.504 155.344C170.526 115.877 170.537 76.3984 170.504 36.92C170.903 28.7566 163.319 21.5667 155.204 22.0755C115.103 22.164 74.9912 21.8985 34.9014 22.1972Z" fill="url(#paint4_linear)" stroke="url(#paint5_linear)" stroke-width="2"/>
<defs>
<linearGradient id="paint0_linear" x1="23.0214" y1="94.5451" x2="169.024" y2="94.5451" gradientUnits="userSpaceOnUse">
<stop stop-color="#A93AFF"/>
<stop offset="0.9999" stop-color="#7452FF"/>
<stop offset="1" stop-color="#FF81FF"/>
</linearGradient>
<linearGradient id="paint1_linear" x1="23.0214" y1="94.5451" x2="178" y2="96" gradientUnits="userSpaceOnUse">
<stop stop-color="#A93AFF"/>
<stop offset="0.9999" stop-color="#7452FF"/>
<stop offset="1" stop-color="#FF81FF"/>
</linearGradient>
<linearGradient id="paint2_linear" x1="119.505" y1="73.1761" x2="148.109" y2="73.1761" gradientUnits="userSpaceOnUse">
<stop stop-color="#A93AFF"/>
<stop offset="0.9999" stop-color="#7452FF"/>
<stop offset="1" stop-color="#FF81FF"/>
</linearGradient>
<linearGradient id="paint3_linear" x1="74.022" y1="124.7" x2="91.4188" y2="124.7" gradientUnits="userSpaceOnUse">
<stop stop-color="#A93AFF"/>
<stop offset="0.9999" stop-color="#7452FF"/>
<stop offset="1" stop-color="#FF81FF"/>
</linearGradient>
<linearGradient id="paint4_linear" x1="10.7216" y1="89.0843" x2="185.352" y2="89.0843" gradientUnits="userSpaceOnUse">
<stop stop-color="#A93AFF"/>
<stop offset="0.9999" stop-color="#7452FF"/>
<stop offset="1" stop-color="#FF81FF"/>
</linearGradient>
<linearGradient id="paint5_linear" x1="10.7216" y1="89.0843" x2="185.352" y2="89.0843" gradientUnits="userSpaceOnUse">
<stop stop-color="#A93AFF"/>
<stop offset="0.9999" stop-color="#7452FF"/>
<stop offset="1" stop-color="#FF81FF"/>
</linearGradient>
</defs>
</svg>
