<svg viewBox="0 0 48 48" xmlns="http://www.w3.org/2000/svg" xmlns:xlink="http://www.w3.org/1999/xlink"><linearGradient id="a"><stop offset="0" stop-color="#00ff1f"/><stop offset="1" stop-color="#00d7ff"/></linearGradient><linearGradient id="b" gradientUnits="userSpaceOnUse" x1="2.086" x2="45.914" xlink:href="#a" y1="24" y2="24"/><linearGradient id="c" gradientUnits="userSpaceOnUse" x1="2.018" x2="45.983" xlink:href="#a" y1="24" y2="24"/><path d="m28 13.01h-5.996v-.867l2.402-2.348c.734-.727 1.215-1.23 1.449-1.539.234-.312.406-.609.523-.898s.176-.605.176-.938c0-.48-.145-.855-.441-1.121-.293-.281-.703-.422-1.23-.422a3.15 3.15 0 0 0 -1.082.184c-.336.121-.715.34-1.125.66l-.551-.691c.84-.68 1.758-1.02 2.746-1.02.859 0 1.531.215 2.02.645.488.43.73.996.73 1.723 0 .563-.164 1.113-.488 1.668s-.934 1.25-1.824 2.09l-1.996 1.898v.051h4.691v.938m-3.242 9.43c1.012 0 1.793.234 2.371.699.574.461.867 1.094.867 1.898 0 .922-.316 1.645-.949 2.164-.629.523-1.492.781-2.598.781-1.07 0-1.895-.16-2.457-.477v-.973c.305.18.684.316 1.133.43.453.102.898.152 1.336.152.766 0 1.359-.168 1.781-.512.426-.336.641-.813.641-1.457 0-1.23-.816-1.852-2.445-1.852-.414 0-.969.059-1.656.176l-.563-.332.359-4.156h4.742v.934h-3.816l-.242 2.668c.5-.094 1-.145 1.492-.145m3.242 18.49h-1.398v2.055h-1.027v-2.055h-4.578v-.887l4.473-6.06h1.133v6.02h1.398v.926m-2.422-.926v-2.98c0-.586.023-1.238.066-1.977h-.051a9.488 9.488 0 0 1 -.578.973l-2.941 3.98h3.508" fill="#ff007c"/><path d="m17 2.088c-.337.107-.67.221-1 .344v12.568h-13.172c-.14.329-.271.663-.396 1h13.568v14.996h-13.914c.107.337.223.67.346 1h13.568v13.572c.33.122.663.236 1 .344v-13.916h15v13.572c.337-.125.671-.256 1-.396v-13.176h12.568c.122-.33.238-.663.346-1h-12.914v-14.996h12.568a22.831 22.831 0 0 0 -.396-1h-12.172v-12.172c-.329-.14-.663-.271-1-.396v12.568h-15zm0 13.912h15v14.996h-15z" fill="url(#b)" stroke="url(#c)" stroke-width=".6"/></svg>