<svg width="64" height="64" viewBox="0 0 64 64" fill="none" xmlns="http://www.w3.org/2000/svg">
<path d="M21.2391 1.84061C28.4907 -0.744365 36.6728 -0.607731 43.821 2.2579C50.3748 4.85026 56.0055 9.68786 59.5722 15.7626C63.3937 22.1807 64.8227 29.9762 63.5414 37.3323C62.5704 43.0968 59.9304 48.5511 56.0794 52.9419C50.9729 58.8283 43.6659 62.7943 35.9195 63.7397C30.1374 64.5078 24.1523 63.5551 18.8428 61.1584C17.4213 60.5306 17.2108 58.363 18.4772 57.473C19.1825 56.8969 20.172 56.9228 20.9585 57.3068C27.4532 60.1429 35.0445 60.3386 41.6758 57.8423C47.5391 55.6598 52.5975 51.3983 55.7655 46.0031C58.675 41.0953 59.9969 35.2717 59.4947 29.5885C58.9852 23.3181 56.2123 17.2692 51.8111 12.7787C47.9933 8.81635 42.9533 6.0652 37.5663 4.95366C31.2747 3.62055 24.5252 4.60284 18.8797 7.67527C12.7542 10.973 7.94688 16.6599 5.7869 23.2811C3.02878 31.4275 4.36169 40.8479 9.37949 47.8495C10.6681 49.7217 12.2447 51.3687 13.9321 52.8865C14.7961 53.5881 15.025 54.9877 14.2385 55.8371C12.2595 57.9124 10.1807 59.8992 8.09827 61.8748C6.46997 63.4443 3.64169 63.3963 2.07617 61.7677C0.40357 60.1983 0.385108 57.3216 1.95432 55.6746C3.40908 54.1568 4.97091 52.7425 6.42936 51.2247C2.23863 45.7113 -0.0579643 38.791 0.00111207 31.8669C0.00111207 25.3159 2.07617 18.7833 5.8829 13.4545C9.64902 8.12579 15.0914 4.01199 21.2391 1.84061Z" fill="url(#paint0_linear)"/>
<path d="M26.0095 24.6623C26.8957 23.4658 25.4188 20.9805 27.1947 20.3084C30.1486 20.1681 33.1098 20.2937 36.0673 20.2457C36.8759 20.253 38.0426 20.157 38.3233 21.1467C38.5079 22.3062 38.4119 23.4843 38.4857 24.6512C40.1214 24.9392 41.7977 24.6069 43.4297 24.8949C44.3749 25.1276 44.5484 26.2022 44.5078 27.0257C44.4857 31.217 44.5558 35.4084 44.4783 39.596C44.5521 40.5525 43.6364 41.2135 42.7429 41.1544C35.9676 41.184 29.1923 41.1618 22.4169 41.1618C21.4422 41.2578 20.2274 40.7408 20.2311 39.6145C20.0797 35.5598 20.2127 31.494 20.1647 27.4356C20.1868 26.5788 20.113 25.3861 21.0693 24.9909C22.668 24.4887 24.396 25.0279 26.0095 24.6623ZM28.8969 22.8454C28.86 23.4362 28.8637 24.0308 28.8489 24.6253C30.6286 24.9245 32.4378 24.725 34.2322 24.7841C34.6974 24.7287 35.2956 24.8986 35.6242 24.4592C35.783 23.9015 35.6057 23.3476 35.4876 22.8085C33.2907 22.8159 31.0901 22.7494 28.8969 22.8454Z" fill="url(#paint1_linear)"/>
<defs>
<linearGradient id="paint0_linear" x1="32" y1="64" x2="32" y2="0" gradientUnits="userSpaceOnUse">
<stop stop-color="#02AA93"/>
<stop offset="1" stop-color="#67FF80"/>
</linearGradient>
<linearGradient id="paint1_linear" x1="32.336" y1="41.1731" x2="32.336" y2="20.2395" gradientUnits="userSpaceOnUse">
<stop stop-color="#02AA93"/>
<stop offset="1" stop-color="#67FF80"/>
</linearGradient>
</defs>
</svg>
