<svg width="64" height="64" viewBox="0 0 64 64" fill="none" xmlns="http://www.w3.org/2000/svg">
<path d="M35.6328 26.5508H28.3672C27.364 26.5508 26.5508 27.364 26.5508 28.3672V50.1641C26.5508 51.1672 27.364 51.9805 28.3672 51.9805H35.6328C36.636 51.9805 37.4492 51.1672 37.4492 50.1641V28.3672C37.4492 27.364 36.636 26.5508 35.6328 26.5508ZM33.8164 48.3477H30.1836V30.1836H33.8164V48.3477ZM32 12.0195C28.9953 12.0195 26.5508 14.4641 26.5508 17.4688C26.5508 20.4734 28.9953 22.918 32 22.918C35.0047 22.918 37.4492 20.4734 37.4492 17.4688C37.4492 14.4641 35.0047 12.0195 32 12.0195ZM32 19.2852C30.9984 19.2852 30.1836 18.4703 30.1836 17.4688C30.1836 16.4672 30.9984 15.6523 32 15.6523C33.0016 15.6523 33.8164 16.4672 33.8164 17.4688C33.8164 18.4703 33.0016 19.2852 32 19.2852ZM32 1C14.8463 1 1 14.861 1 32C1 49.1537 14.8606 63 32 63C49.1537 63 63 49.139 63 32C63 14.8463 49.1394 1 32 1ZM32 59.3672C16.9097 59.3672 4.63281 47.0903 4.63281 32C4.63281 16.9097 16.9097 4.63281 32 4.63281C47.0903 4.63281 59.3672 16.9097 59.3672 32C59.3672 47.0903 47.0903 59.3672 32 59.3672Z" fill="url(#paint0_linear)" stroke="url(#paint1_linear)" stroke-width="1.5"/>
<defs>
<linearGradient id="paint0_linear" x1="32" y1="63" x2="32" y2="1" gradientUnits="userSpaceOnUse">
<stop stop-color="#FD3A84"/>
<stop offset="1" stop-color="#FFA68D"/>
</linearGradient>
<linearGradient id="paint1_linear" x1="32" y1="63" x2="32" y2="1" gradientUnits="userSpaceOnUse">
<stop stop-color="#FD3A84"/>
<stop offset="1" stop-color="#FFA68D"/>
</linearGradient>
</defs>
</svg>
