<svg width="128" height="128" viewBox="0 0 128 128" fill="none" xmlns="http://www.w3.org/2000/svg">
<path d="M4.18183 20.3563C6.19481 16.2656 10.7898 13.9329 15.215 14.0015C25.1015 14.0272 34.988 13.9757 44.8746 14.0186C46.9385 13.9414 48.7646 15.1592 50.1406 16.6086C53.4871 20.1677 56.7231 23.8297 60.163 27.303C78.3308 27.2086 96.507 27.2258 114.675 27.2944C120.365 27.363 124.893 32.6201 124.978 38.2117C125.003 59.0859 124.952 79.9515 124.994 100.826C125.096 104.908 123.788 109.342 120.527 111.966C118.794 113.355 116.62 113.956 114.624 114.865C79.2226 114.968 43.8044 114.951 8.39464 114.951C5.30298 115.362 1.85459 112.729 2.01597 109.453C2.02446 95.4399 1.95651 81.4266 2.04994 67.4133C2.03295 64.1887 2.94176 61.0241 4.30074 58.134C6.45811 53.7516 11.206 50.8529 16.0474 50.8872C40.3815 50.8872 64.7241 50.8786 89.0582 50.8958C92.5235 50.4755 95.8785 54.5921 94.1203 57.8338C93.3219 59.8578 91.1391 60.8698 89.0921 60.8698C64.7665 60.9212 40.4324 60.8269 16.1068 60.9126C13.0661 60.784 12.0809 64.2402 12.0384 66.7272C11.911 79.3512 12.1488 91.9838 11.9195 104.608C45.5201 104.616 79.1207 104.745 112.713 104.676C113.842 104.779 115.15 103.827 114.87 102.558C114.853 80.7834 115.015 59.0002 114.785 37.2255C95.9974 37.1569 77.2096 37.2427 58.4303 37.1912C56.0436 37.2855 54.1496 35.5703 52.6547 33.898C49.6989 30.5962 46.6412 27.3802 43.6685 24.0869C34.436 24.0784 25.1949 24.1127 15.9624 24.0698C14.9262 24.1212 13.7031 23.9326 12.9132 24.7902C11.0956 28.6494 13.9579 33.8551 10.4756 37.0969C7.64721 39.5753 2.8993 37.6972 2.34722 33.958C2.11789 29.3955 2.03295 24.5243 4.18183 20.3563Z" fill="url(#paint0_linear)"/>
<defs>
<linearGradient id="paint0_linear" x1="63.5" y1="114.993" x2="63.5" y2="14" gradientUnits="userSpaceOnUse">
<stop stop-color="#FD2E00"/>
<stop offset="1" stop-color="#FF9900"/>
</linearGradient>
</defs>
</svg>
