<svg id="Capa_1" enable-background="new 0 0 512 512" height="512" viewBox="0 0 512 512" width="512" xmlns="http://www.w3.org/2000/svg" xmlns:xlink="http://www.w3.org/1999/xlink"><linearGradient id="lg1"><stop offset="0" stop-color="#a93aff"/><stop offset="1" stop-color="#ff81ff"/></linearGradient><linearGradient id="SVGID_1_" gradientUnits="userSpaceOnUse" x1="60" x2="60" xlink:href="#lg1" y1="503.287" y2="-1.576"/><linearGradient id="SVGID_4_" gradientUnits="userSpaceOnUse" x1="331" x2="331" xlink:href="#lg1" y1="503.287" y2="-1.576"/><g><g fill="url(#SVGID_1_)"><path d="m15 136h90c8.284 0 15-6.716 15-15v-90c0-8.284-6.716-15-15-15h-90c-8.284 0-15 6.716-15 15v90c0 8.284 6.716 15 15 15zm15-90h60v60h-60z"/><path d="m15 316h90c8.284 0 15-6.716 15-15v-90c0-8.284-6.716-15-15-15h-90c-8.284 0-15 6.716-15 15v90c0 8.284 6.716 15 15 15zm15-90h60v60h-60z"/><path d="m15 496h90c8.284 0 15-6.716 15-15v-90c0-8.284-6.716-15-15-15h-90c-8.284 0-15 6.716-15 15v90c0 8.284 6.716 15 15 15zm15-90h60v60h-60z"/></g><path d="m497 16h-332c-8.284 0-15 6.716-15 15v90c0 8.284 6.716 15 15 15h332c8.284 0 15-6.716 15-15v-90c0-8.284-6.716-15-15-15zm-15 90h-302v-60h302z" fill="url(#SVGID_4_)"/><path d="m497 196h-332c-8.284 0-15 6.716-15 15v90c0 8.284 6.716 15 15 15h332c8.284 0 15-6.716 15-15v-90c0-8.284-6.716-15-15-15zm-15 90h-302v-60h302z" fill="url(#SVGID_4_)"/><path d="m497 376h-332c-8.284 0-15 6.716-15 15v90c0 8.284 6.716 15 15 15h332c8.284 0 15-6.716 15-15v-90c0-8.284-6.716-15-15-15zm-15 90h-302v-60h302z" fill="url(#SVGID_4_)"/></g></svg>