<svg width="192" height="192" viewBox="0 0 192 192" fill="none" xmlns="http://www.w3.org/2000/svg">
<path d="M66.6014 31.3573C70.8376 18.2737 84.4004 9.43504 97.7696 10.0281C108.406 10.191 118.575 16.2036 124.338 25.2749C125.75 27.7869 126.957 30.4153 127.902 33.1483C123.199 33.5088 118.473 33.66 113.747 33.4274C110.547 28.0544 105.024 24.1003 98.8172 23.542C91.8366 22.6698 84.8787 26.2518 80.8019 31.9737C76.2012 31.869 71.612 31.7411 67.0227 31.6713L66.6014 31.3573Z" fill="url(#paint0_linear)"/>
<path d="M67.0227 31.6713C71.612 31.7411 76.2012 31.869 80.8019 31.9737C77.7728 36.8117 76.6112 42.8593 78.2396 48.4416C73.8668 49.2557 69.4939 50.1047 65.0754 50.5815C63.9139 44.4758 63.8797 37.9398 66.2028 32.1133L67.0227 31.6713Z" fill="url(#paint1_linear)"/>
<path d="M113.747 33.4274C118.473 33.66 123.199 33.5088 127.902 33.1483C129.713 39.2889 129.804 45.9179 128.187 52.1166C123.609 51.5235 118.974 51.2677 114.362 51.5235C114.852 50.3024 115.262 49.0464 115.592 47.7671C116.799 42.9407 115.979 37.8119 113.747 33.4274Z" fill="url(#paint2_linear)"/>
<path d="M138.435 57.0128C140.941 49.8372 148.218 44.6852 155.745 45.4527C162.828 45.8714 168.977 51.4072 170.765 58.327C170.868 59.3388 171.084 61.3508 171.198 62.3626C160.004 61.816 148.798 62.2811 137.604 62.4789C137.809 60.6413 138.082 58.8154 138.435 57.0128Z" fill="url(#paint3_linear)"/>
<path d="M78.2396 48.4416C78.3877 48.9882 78.6838 50.093 78.8318 50.6397C79.4809 50.6745 80.7677 50.7211 81.4054 50.756C88.6594 50.4652 94.7177 56.0824 96.7105 62.9208C104.102 62.6533 111.071 58.3386 114.362 51.5235C118.974 51.2677 123.609 51.5235 128.187 52.1166C124.44 66.1539 111.003 76.2835 96.8244 76.3068C96.813 77.7373 96.8016 79.1794 96.8016 80.6215C92.3718 80.5401 87.942 80.54 83.5235 80.6331C83.4097 75.5625 83.7968 70.4802 83.3413 65.4328C82.2481 63.6651 80.0617 64.3048 78.3649 64.1303C62.4221 64.1768 46.4679 64.1652 30.5251 64.1303C28.8625 64.328 26.6533 63.6418 25.6853 65.491C25.5145 66.8052 25.4348 68.1426 25.4576 69.4684C21.0619 69.794 16.6663 70.1429 12.2706 70.5035C12.1795 66.5726 12.3162 62.5254 13.8991 58.862C16.6549 54.2333 21.5516 50.7792 26.9835 50.7676C39.6695 50.535 52.3781 50.9537 65.0754 50.5815C69.4939 50.1047 73.8668 49.2557 78.2396 48.4416Z" fill="url(#paint4_linear)"/>
<path d="M137.604 62.4789C148.798 62.2811 160.004 61.816 171.198 62.3626C171.255 71.3873 163.591 79.5166 154.686 79.4003C145.621 79.7957 137.673 71.6548 137.604 62.4789Z" fill="url(#paint5_linear)"/>
<path d="M12.2706 70.5035C16.6663 70.1429 21.0619 69.794 25.4576 69.4684C25.5145 76.0044 25.4918 82.5288 25.4918 89.0531C21.1075 89.5765 16.7118 90.0416 12.3048 90.4836C12.3048 83.8197 12.3276 77.1674 12.2706 70.5035Z" fill="url(#paint6_linear)"/>
<path d="M83.5235 80.6331C87.942 80.54 92.3718 80.5401 96.8016 80.6215C96.7788 86.89 96.7902 93.1468 96.7902 99.4037C92.3718 98.9966 87.9534 98.7292 83.5235 98.5198C83.5235 92.5537 83.5122 86.5992 83.5235 80.6331Z" fill="url(#paint7_linear)"/>
<path d="M115.512 87.4133C121.696 86.4713 128.039 87.0877 134.279 86.8667C137.616 86.5527 141.112 89.0531 141.396 92.5653C141.704 97.1242 141.442 101.695 141.51 106.254C137.103 106.219 132.685 106.289 128.278 106.44C128.266 104.393 128.244 102.358 128.232 100.311C124.007 100.241 119.691 100.869 115.523 100.02C109.909 98.264 109.898 89.181 115.512 87.4133Z" fill="url(#paint8_linear)"/>
<path d="M166.7 92.2397C167.622 85.9945 176.459 85.1571 179.306 90.4371C179.921 95.3449 179.762 100.311 179.648 105.254C179.169 106.475 178.657 107.696 178.144 108.905C174.842 109.173 171.551 109.487 168.26 109.847C167.634 111.894 166.984 113.929 166.461 116C166.518 108.08 166.278 100.148 166.7 92.2397Z" fill="url(#paint9_linear)"/>
<path d="M12.3048 90.4836C16.7118 90.0416 21.1075 89.5765 25.4918 89.0531C25.5031 95.0541 25.4918 101.055 25.5031 107.056C21.1075 107.172 16.7004 107.172 12.3048 107.056C12.2934 101.532 12.3048 96.0078 12.3048 90.4836Z" fill="url(#paint10_linear)"/>
<path d="M83.5235 98.5198C87.9534 98.7292 92.3718 98.9966 96.7902 99.4037C96.7788 105.742 96.7788 112.069 96.8244 118.395C92.406 118.465 87.9875 118.465 83.5577 118.419C83.5122 111.79 83.5122 105.149 83.5235 98.5198Z" fill="url(#paint11_linear)"/>
<path d="M128.278 106.44C132.685 106.289 137.103 106.219 141.51 106.254C141.499 113.301 141.567 120.349 141.465 127.397C137.046 127.606 132.639 127.734 128.221 127.757C128.164 120.651 128.312 113.546 128.278 106.44Z" fill="url(#paint12_linear)"/>
<path d="M178.144 108.905C178.657 107.696 179.169 106.475 179.648 105.254C179.454 112.883 180.183 120.628 178.737 128.164C174.068 127.804 169.376 127.897 164.718 128.385C166.415 124.466 166.381 120.186 166.461 116C166.984 113.929 167.634 111.894 168.26 109.847C171.551 109.487 174.842 109.173 178.144 108.905Z" fill="url(#paint13_linear)"/>
<path d="M12.3048 107.056C16.7004 107.172 21.1075 107.172 25.5031 107.056C25.6284 112.045 25.1957 117.069 25.6967 122.047C26.8013 123.687 28.8853 123.129 30.5365 123.291C47.2992 123.187 64.0847 123.373 80.8474 123.21C83.6944 123.559 83.6374 120.407 83.5577 118.419C87.9875 118.465 92.406 118.465 96.8244 118.395C97.6671 126.118 93.1006 134.375 85.4139 136.154C78.9001 137.259 72.2383 136.398 65.6562 136.677C65.827 137.422 66.1687 138.922 66.3395 139.678C61.8413 139.818 57.3318 139.829 52.8337 139.701C52.7084 138.945 52.4579 137.422 52.3326 136.666C43.8943 136.596 35.4446 136.782 27.0063 136.608C19.7182 136.643 12.988 130.409 12.43 122.977C12.0884 117.674 12.3845 112.359 12.3048 107.056Z" fill="url(#paint14_linear)"/>
<path d="M128.221 127.757C132.639 127.734 137.046 127.606 141.465 127.397C141.453 129.955 141.453 132.502 141.453 135.061C149.402 140.062 160.368 136.689 164.718 128.385C169.376 127.897 174.068 127.804 178.737 128.164C177.359 133.305 174.751 138.073 171.13 141.911C156.428 140.76 141.647 141.248 126.911 141.574C128.095 137.061 128.335 132.398 128.221 127.757Z" fill="url(#paint15_linear)"/>
<path d="M52.8337 139.701C57.3319 139.829 61.8413 139.817 66.3395 139.678C67.0113 142.492 68.1046 145.19 69.4369 147.737C76.3151 160.588 92.3262 167.264 106.015 162.693C112.904 160.6 118.792 155.89 122.971 149.97C127.697 150.657 132.446 151.157 137.217 151.494C134.108 158.262 129.303 164.17 123.449 168.636C105.662 168.532 87.885 168.427 70.1088 168.567C61.0442 161.635 54.633 151.145 52.8337 139.701Z" fill="url(#paint16_linear)"/>
<path d="M126.911 141.574C141.647 141.248 156.428 140.76 171.13 141.911C162.817 150.657 149.504 153.087 138.504 148.668C138.185 149.377 137.536 150.784 137.217 151.494C132.446 151.157 127.697 150.657 122.971 149.97C124.497 147.272 125.818 144.469 126.911 141.574Z" fill="url(#paint17_linear)"/>
<path d="M123.449 168.636C105.662 168.532 87.885 168.427 70.1088 168.567C85.3797 180.464 108.144 180.51 123.449 168.636Z" fill="url(#paint18_linear)"/>
<defs>
<linearGradient id="paint0_linear" x1="96.0017" y1="177.516" x2="96.0017" y2="10" gradientUnits="userSpaceOnUse">
<stop stop-color="#5A92FF"/>
<stop offset="0.635417" stop-color="#960EFF"/>
</linearGradient>
<linearGradient id="paint1_linear" x1="96.0017" y1="177.516" x2="96.0017" y2="10" gradientUnits="userSpaceOnUse">
<stop stop-color="#5A92FF"/>
<stop offset="0.635417" stop-color="#960EFF"/>
</linearGradient>
<linearGradient id="paint2_linear" x1="96.0017" y1="177.516" x2="96.0017" y2="10" gradientUnits="userSpaceOnUse">
<stop stop-color="#5A92FF"/>
<stop offset="0.635417" stop-color="#960EFF"/>
</linearGradient>
<linearGradient id="paint3_linear" x1="96.0017" y1="177.516" x2="96.0017" y2="10" gradientUnits="userSpaceOnUse">
<stop stop-color="#5A92FF"/>
<stop offset="0.635417" stop-color="#960EFF"/>
</linearGradient>
<linearGradient id="paint4_linear" x1="96.0017" y1="177.516" x2="96.0017" y2="10" gradientUnits="userSpaceOnUse">
<stop stop-color="#5A92FF"/>
<stop offset="0.635417" stop-color="#960EFF"/>
</linearGradient>
<linearGradient id="paint5_linear" x1="96.0017" y1="177.516" x2="96.0017" y2="10" gradientUnits="userSpaceOnUse">
<stop stop-color="#5A92FF"/>
<stop offset="0.635417" stop-color="#960EFF"/>
</linearGradient>
<linearGradient id="paint6_linear" x1="96.0017" y1="177.516" x2="96.0017" y2="10" gradientUnits="userSpaceOnUse">
<stop stop-color="#5A92FF"/>
<stop offset="0.635417" stop-color="#960EFF"/>
</linearGradient>
<linearGradient id="paint7_linear" x1="96.0017" y1="177.516" x2="96.0017" y2="10" gradientUnits="userSpaceOnUse">
<stop stop-color="#5A92FF"/>
<stop offset="0.635417" stop-color="#960EFF"/>
</linearGradient>
<linearGradient id="paint8_linear" x1="96.0017" y1="177.516" x2="96.0017" y2="10" gradientUnits="userSpaceOnUse">
<stop stop-color="#5A92FF"/>
<stop offset="0.635417" stop-color="#960EFF"/>
</linearGradient>
<linearGradient id="paint9_linear" x1="96.0017" y1="177.516" x2="96.0017" y2="10" gradientUnits="userSpaceOnUse">
<stop stop-color="#5A92FF"/>
<stop offset="0.635417" stop-color="#960EFF"/>
</linearGradient>
<linearGradient id="paint10_linear" x1="96.0017" y1="177.516" x2="96.0017" y2="10" gradientUnits="userSpaceOnUse">
<stop stop-color="#5A92FF"/>
<stop offset="0.635417" stop-color="#960EFF"/>
</linearGradient>
<linearGradient id="paint11_linear" x1="96.0017" y1="177.516" x2="96.0017" y2="10" gradientUnits="userSpaceOnUse">
<stop stop-color="#5A92FF"/>
<stop offset="0.635417" stop-color="#960EFF"/>
</linearGradient>
<linearGradient id="paint12_linear" x1="96.0017" y1="177.516" x2="96.0017" y2="10" gradientUnits="userSpaceOnUse">
<stop stop-color="#5A92FF"/>
<stop offset="0.635417" stop-color="#960EFF"/>
</linearGradient>
<linearGradient id="paint13_linear" x1="96.0017" y1="177.516" x2="96.0017" y2="10" gradientUnits="userSpaceOnUse">
<stop stop-color="#5A92FF"/>
<stop offset="0.635417" stop-color="#960EFF"/>
</linearGradient>
<linearGradient id="paint14_linear" x1="96.0017" y1="177.516" x2="96.0017" y2="10" gradientUnits="userSpaceOnUse">
<stop stop-color="#5A92FF"/>
<stop offset="0.635417" stop-color="#960EFF"/>
</linearGradient>
<linearGradient id="paint15_linear" x1="96.0017" y1="177.516" x2="96.0017" y2="10" gradientUnits="userSpaceOnUse">
<stop stop-color="#5A92FF"/>
<stop offset="0.635417" stop-color="#960EFF"/>
</linearGradient>
<linearGradient id="paint16_linear" x1="96.0017" y1="177.516" x2="96.0017" y2="10" gradientUnits="userSpaceOnUse">
<stop stop-color="#5A92FF"/>
<stop offset="0.635417" stop-color="#960EFF"/>
</linearGradient>
<linearGradient id="paint17_linear" x1="96.0017" y1="177.516" x2="96.0017" y2="10" gradientUnits="userSpaceOnUse">
<stop stop-color="#5A92FF"/>
<stop offset="0.635417" stop-color="#960EFF"/>
</linearGradient>
<linearGradient id="paint18_linear" x1="96.0017" y1="177.516" x2="96.0017" y2="10" gradientUnits="userSpaceOnUse">
<stop stop-color="#5A92FF"/>
<stop offset="0.635417" stop-color="#960EFF"/>
</linearGradient>
</defs>
</svg>
