<svg width="192" height="192" viewBox="0 0 192 192" fill="none" xmlns="http://www.w3.org/2000/svg">
<path d="M19.3292 46.9899C34.5531 22.9212 61.5909 6.78455 90.0767 5.21075C86.0897 10.2049 80.6129 13.9086 77.4024 19.5218C62.2204 23.3829 48.1612 31.6401 37.7111 43.3387C24.3443 57.8386 17.1154 77.574 17.3777 97.257C12.1107 100.111 9.13096 105.462 6.10926 110.382C2.6574 88.5696 7.31584 65.5502 19.3292 46.9899Z" fill="url(#paint0_linear)"/>
<path d="M90.0767 5.21075C105.815 4.11958 121.773 7.28816 135.958 14.1919C132.223 16.71 129.002 19.8681 126.159 23.3514C110.83 16.9723 93.56 15.8811 77.4024 19.5218C80.6129 13.9086 86.0897 10.2049 90.0767 5.21075Z" fill="url(#paint1_linear)"/>
<path d="M126.159 23.3514C129.002 19.8681 132.223 16.71 135.958 14.1919C152.021 22.0714 165.609 34.7457 174.726 50.1375C169.522 48.4378 166.416 53.9041 164.717 57.8911C158.422 46.6961 149.44 36.9176 138.55 30.0663C134.657 27.4223 130.513 25.156 126.159 23.3514Z" fill="url(#paint2_linear)"/>
<path d="M114.177 70.4395C115.278 69.3588 117.157 69.086 118.384 70.1457C122.539 72.9995 126.4 76.2625 130.502 79.2108C126.306 80.921 124.354 85.1702 121.857 88.6221C116.831 95.977 110.945 102.744 106.549 110.519C98.4283 110.519 90.3075 110.718 82.1867 110.362C84.432 105.074 88.3665 100.824 91.6085 96.1553C94.966 91.3605 98.5018 86.6916 101.618 81.7498C104.912 81.6344 108.238 81.9807 111.501 81.4351C115.216 79.0009 111.858 73.6185 114.177 70.4395Z" fill="url(#paint3_linear)"/>
<path d="M164.717 57.8911C166.416 53.9041 169.522 48.4378 174.726 50.1375C181.137 61.4269 185.302 73.9753 186.635 86.9119C188.061 103.458 185.333 120.423 178.042 135.395C167.487 157.554 147.562 175.055 124.165 182.525C110.746 187.027 96.2775 187.866 82.3021 185.925C82.512 180.826 86.1317 177.185 89.9823 174.331C108.962 175.853 128.414 170.197 143.512 158.583C156.732 148.531 166.721 134.252 171.369 118.293C177.276 98.3482 174.946 76.0422 164.717 57.8911Z" fill="url(#paint4_linear)"/>
<path d="M72.4711 70.7437C74.0134 69.0965 77.5702 68.9181 78.1893 71.4992C78.7978 74.5313 78.525 77.658 78.7768 80.7216C77.3289 81.8757 75.881 83.0508 74.7059 84.4987C68.4212 92.651 62.9759 101.443 56.4394 109.407C51.8229 105.839 47.0175 102.513 42.5375 98.7783C40.5545 97.5718 40.6279 94.5081 42.6529 93.375C52.5363 85.7578 62.5667 78.319 72.4711 70.7437Z" fill="url(#paint5_linear)"/>
<path d="M121.857 88.6221C124.354 85.1702 126.306 80.921 130.502 79.2108C136.577 83.9112 142.799 88.4332 148.874 93.1337C150.301 94.015 150.615 95.7357 151.182 97.1941C141.666 104.811 131.74 111.893 122.14 119.395C120.042 121.095 117.671 122.427 115.1 123.288C112.624 120.476 113.6 116.741 113.096 113.373C112.907 112.722 112.54 111.432 112.351 110.781C110.421 110.666 108.48 110.55 106.549 110.519C110.945 102.744 116.831 95.977 121.857 88.6221Z" fill="url(#paint6_linear)"/>
<path d="M74.7059 84.4987C75.881 83.0508 77.3289 81.8757 78.7768 80.7216C86.1527 82.8515 94.0322 81.1623 101.618 81.7498C98.5018 86.6916 94.966 91.3605 91.6085 96.1553C88.3665 100.824 84.432 105.074 82.1867 110.362C81.0641 110.718 79.8785 111.064 78.9971 111.883C78.2102 115.335 78.4725 118.933 77.822 122.417C76.1958 122.417 74.3597 123.036 73.0062 121.819C68.0435 118.367 63.4375 114.443 58.4748 110.981C57.7928 110.466 57.1108 109.931 56.4394 109.407C62.9759 101.443 68.4212 92.651 74.7059 84.4987Z" fill="url(#paint7_linear)"/>
<path d="M6.10926 110.382C9.13096 105.462 12.1107 100.111 17.3777 97.257C17.4616 100.94 17.8498 104.622 18.4583 108.263C20.2839 120.486 25.2047 132.185 32.4232 142.194C29.2861 144.975 26.3273 147.954 23.5155 151.07C14.4504 139.225 8.50144 125.092 6.10926 110.382Z" fill="url(#paint8_linear)"/>
<path d="M23.5155 151.07C26.3273 147.954 29.2861 144.975 32.4232 142.194C38.1728 149.937 45.2339 156.726 53.3232 161.982C50.3015 163.913 47.5841 166.294 45.2549 169.022C45.4228 169.988 45.5906 170.963 45.769 171.929C37.239 166.305 29.7372 159.17 23.5155 151.07Z" fill="url(#paint9_linear)"/>
<path d="M45.2549 169.022C47.5841 166.294 50.3015 163.913 53.3232 161.982C64.2454 169.106 76.9827 173.355 89.9823 174.331C86.1317 177.185 82.512 180.826 82.3021 185.925C71.0127 184.33 60.1955 180.28 50.2491 174.772C48.7068 173.901 47.2484 172.894 45.769 171.929C45.5906 170.963 45.4228 169.988 45.2549 169.022Z" fill="url(#paint10_linear)"/>
<defs>
<linearGradient id="paint0_linear" x1="96" y1="186.906" x2="96" y2="5" gradientUnits="userSpaceOnUse">
<stop stop-color="#5570FF"/>
<stop offset="1" stop-color="#4DD3FF"/>
</linearGradient>
<linearGradient id="paint1_linear" x1="96" y1="186.906" x2="96" y2="5" gradientUnits="userSpaceOnUse">
<stop stop-color="#5570FF"/>
<stop offset="1" stop-color="#4DD3FF"/>
</linearGradient>
<linearGradient id="paint2_linear" x1="96" y1="186.906" x2="96" y2="5" gradientUnits="userSpaceOnUse">
<stop stop-color="#5570FF"/>
<stop offset="1" stop-color="#4DD3FF"/>
</linearGradient>
<linearGradient id="paint3_linear" x1="96" y1="186.906" x2="96" y2="5" gradientUnits="userSpaceOnUse">
<stop stop-color="#5570FF"/>
<stop offset="1" stop-color="#4DD3FF"/>
</linearGradient>
<linearGradient id="paint4_linear" x1="96" y1="186.906" x2="96" y2="5" gradientUnits="userSpaceOnUse">
<stop stop-color="#5570FF"/>
<stop offset="1" stop-color="#4DD3FF"/>
</linearGradient>
<linearGradient id="paint5_linear" x1="96" y1="186.906" x2="96" y2="5" gradientUnits="userSpaceOnUse">
<stop stop-color="#5570FF"/>
<stop offset="1" stop-color="#4DD3FF"/>
</linearGradient>
<linearGradient id="paint6_linear" x1="96" y1="186.906" x2="96" y2="5" gradientUnits="userSpaceOnUse">
<stop stop-color="#5570FF"/>
<stop offset="1" stop-color="#4DD3FF"/>
</linearGradient>
<linearGradient id="paint7_linear" x1="96" y1="186.906" x2="96" y2="5" gradientUnits="userSpaceOnUse">
<stop stop-color="#5570FF"/>
<stop offset="1" stop-color="#4DD3FF"/>
</linearGradient>
<linearGradient id="paint8_linear" x1="96" y1="186.906" x2="96" y2="5" gradientUnits="userSpaceOnUse">
<stop stop-color="#5570FF"/>
<stop offset="1" stop-color="#4DD3FF"/>
</linearGradient>
<linearGradient id="paint9_linear" x1="96" y1="186.906" x2="96" y2="5" gradientUnits="userSpaceOnUse">
<stop stop-color="#5570FF"/>
<stop offset="1" stop-color="#4DD3FF"/>
</linearGradient>
<linearGradient id="paint10_linear" x1="96" y1="186.906" x2="96" y2="5" gradientUnits="userSpaceOnUse">
<stop stop-color="#5570FF"/>
<stop offset="1" stop-color="#4DD3FF"/>
</linearGradient>
</defs>
</svg>
