<svg width="128" height="128" viewBox="0 0 128 128" fill="none" xmlns="http://www.w3.org/2000/svg">
<g clip-path="url(#clip0)">
<path fill-rule="evenodd" clip-rule="evenodd" d="M48.4242 17.6222C57.8903 15.8861 67.6624 17.8143 75.7596 23.016C82.3008 27.2182 87.354 33.3023 90.2967 40.4052C93.3579 40.1697 96.4449 40.3372 99.4776 40.9096C104.337 41.8268 108.946 43.7626 113.003 46.5896C117.06 49.4167 120.472 53.0708 123.015 57.3116C125.558 61.5524 127.174 66.2837 127.756 71.194C128.339 76.1042 127.875 81.0822 126.395 85.8003C124.915 90.5183 122.452 94.8695 119.17 98.5673C115.887 102.265 111.858 105.226 107.349 107.254C102.839 109.283 97.9512 110.333 93.0065 110.337H93.0024H29.1641L29.1482 110.337C22.0261 110.318 15.156 107.699 9.82861 102.972C4.50125 98.245 1.08335 91.7354 0.217063 84.6661C-0.64922 77.5968 1.09574 70.4545 5.12411 64.5811C8.1985 60.0985 12.4414 56.5905 17.3487 54.4079C17.4552 46.5041 20.0322 38.785 24.782 32.3654C30.5063 24.6288 38.9581 19.3583 48.4242 17.6222ZM19.6663 66.7817C17.854 67.9907 16.2726 69.5424 15.0202 71.3684C12.6459 74.8302 11.6174 79.0399 12.128 83.2065C12.6386 87.3731 14.6531 91.2099 17.793 93.996C20.931 96.7803 24.9771 98.3237 29.172 98.3368H92.9983C96.2485 98.3346 99.4614 97.644 102.426 96.3106C105.39 94.9772 108.038 93.0311 110.196 90.6005C112.353 88.1699 113.972 85.3099 114.945 82.2086C115.918 79.1074 116.223 75.8353 115.84 72.6077C115.457 69.3801 114.395 66.2702 112.723 63.4827C111.052 60.6951 108.809 58.2932 106.142 56.4349C103.476 54.5767 100.446 53.3043 97.2519 52.7014C94.0861 52.1038 90.8304 52.1776 87.6955 52.9175L80.0694 54.9931C76.872 55.8634 73.5746 53.9769 72.7043 50.7795C71.834 47.5821 73.7205 44.2846 76.9179 43.4143L78.3007 43.038C76.2307 39.0249 73.1308 35.5901 69.2737 33.1122C63.739 29.5567 57.0594 28.2386 50.5889 29.4253C44.1185 30.612 38.3413 34.2146 34.4286 39.5029C30.5539 44.7396 28.7947 51.2414 29.4964 57.7131C29.5175 57.8227 29.55 57.9864 29.5938 58.1925C29.6873 58.6328 29.8287 59.2483 30.0163 59.9344C30.4319 61.4542 30.9248 62.7557 31.3479 63.4315C33.1061 66.2402 32.2546 69.9426 29.4458 71.7008C26.6371 73.4591 22.9347 72.6076 21.1765 69.7988C20.579 68.8444 20.0797 67.8012 19.6663 66.7817ZM41.5688 53.2667C43.1309 51.7046 45.6636 51.7046 47.2257 53.2667L62.4598 68.5008C64.0219 70.0629 64.0219 72.5956 62.4598 74.1577L47.2257 89.3918C45.6636 90.9539 43.1309 90.9539 41.5688 89.3918C40.0067 87.8297 40.0067 85.2971 41.5688 83.735L53.9745 71.3293L41.5688 58.9236C40.0067 57.3615 40.0067 54.8288 41.5688 53.2667ZM74.1636 79.8886C72.1737 77.9621 68 79.267 68 82.0366C68 82.6598 68.2131 83.2638 68.6348 83.7226C70.4438 85.6907 75.8901 91 82 91C88.1099 91 93.5562 85.6907 95.3652 83.7226C95.7869 83.2638 96 82.6598 96 82.0366C96 79.267 91.8263 77.9621 89.8364 79.8886C87.5085 82.1422 84.7543 84 82 84C79.2457 84 76.4915 82.1422 74.1636 79.8886Z" fill="url(#paint0_linear)"/>
</g>
<defs>
<linearGradient id="paint0_linear" x1="64" y1="110.337" x2="64" y2="17" gradientUnits="userSpaceOnUse">
<stop stop-color="#00B59C"/>
<stop offset="1" stop-color="#9CFFAC"/>
</linearGradient>
<clipPath id="clip0">
<rect width="128" height="128" fill="white"/>
</clipPath>
</defs>
</svg>
