<svg viewBox="0 0 48 48" xmlns="http://www.w3.org/2000/svg" xmlns:xlink="http://www.w3.org/1999/xlink"><linearGradient id="a"><stop offset="0" stop-color="#00b8ff"/><stop offset="1" stop-color="#00ff9d"/></linearGradient><linearGradient id="b" gradientUnits="userSpaceOnUse" x1="5.887" x2="43.976" xlink:href="#a" y1="8.011" y2="43.605"/><linearGradient id="c" gradientUnits="userSpaceOnUse" x1="4.208" x2="46.094" xlink:href="#a" y1="8.767" y2="44.022"/><linearGradient id="d" gradientUnits="userSpaceOnUse" x1="3.853" x2="43.976" xlink:href="#a" y1="8.621" y2="43.605"/><g fill="none" stroke="url(#b)" stroke-linecap="round" stroke-linejoin="round" stroke-width="2"><path d="m30.288 5.005-3.074 2.995h-16.694c-6.793 0-7.487 1.053-7.487 7.666v8.141c-.001.171-.01.3-.01.48v12.39c0 3.307.176 5.131 1.2 6.129 1.024.997 2.897 1.168 6.29 1.168h28.023c6.788 0 7.483-.682 7.483-7.297v-9.393l-.002-.101v-15.196c0-2.494.17-4.864-1.017-5.987s-3.731-.998-6.463-.996z" stroke="url(#d)"/><path d="m38.37 36v-4.743h-14.37v4.743zm-22.684-1.985-3.286-3.448 7.392-6.037-7.392-6.033 3.286-3.452 11.086 9.485z" fill="none" opacity=".93" stroke="url(#c)"/></g></svg>