<svg width="128" height="128" viewBox="0 0 128 128" fill="none" xmlns="http://www.w3.org/2000/svg">
<path fill-rule="evenodd" clip-rule="evenodd" d="M23.0508 14.0177C21.0756 14.0177 19.0927 14.1643 17.1873 14.6038C9.19385 16.3111 3.05931 22.6562 3.01283 29.4726C2.99734 52.6232 2.99734 75.7737 3.00509 98.9183C3.00509 107.047 11.6802 114.252 21.5482 114.411C41.5731 114.451 61.6019 114.444 81.6315 114.436C89.7252 114.433 97.819 114.429 105.913 114.429C115.951 114.488 125.068 107.212 124.975 98.9049C124.998 85.3836 124.994 71.8621 124.99 58.3407C124.987 48.941 124.984 39.5413 124.991 30.1416C125.254 23.6309 119.971 17.3431 112.574 15.0815C109.252 13.9794 105.612 13.9604 102.087 14.0177C93.3064 14.0177 84.5249 14.0184 75.7432 14.0191C58.1787 14.0205 40.613 14.0219 23.0508 14.0177ZM12.3153 29.4599C12.2147 25.7077 16.0178 22.4331 20.3708 21.7132C21.3034 21.5662 22.2517 21.5621 23.1985 21.558C23.3999 21.5572 23.6011 21.5563 23.8022 21.5541C35.9543 21.5626 48.1064 21.561 60.2579 21.5594C75.4469 21.5574 90.6349 21.5555 105.82 21.5732C111.219 21.5732 116.084 25.6057 115.812 30.0843C115.851 52.8207 115.836 75.5572 115.82 98.294C116.075 102.759 111.335 106.856 105.898 106.824C83.099 106.87 60.2948 106.862 37.4939 106.854C32.4547 106.852 27.4157 106.85 22.3769 106.849C17.1873 106.97 12.1914 103.294 12.3076 98.9497C12.3107 89.6902 12.3088 80.4306 12.307 71.1711C12.3042 57.2673 12.3014 43.3636 12.3153 29.4599ZM68.7814 82.0142C67.9669 82.0226 67.1375 82.0313 66.3882 82.4365C64.9782 83.1257 64.017 84.8794 64.0042 86.6941C63.8952 89.2902 65.946 91.8171 68.1506 91.5568C74.5713 91.5783 80.9952 91.5734 87.4179 91.5686C90.1691 91.5665 92.92 91.5645 95.6703 91.5645C97.9967 91.932 100.17 89.3896 99.9895 86.6175C99.9576 83.9986 97.8871 81.8163 95.7151 82.0229C91.1757 81.9992 86.6346 82.0042 82.0937 82.0092C77.8705 82.0138 73.6475 82.0185 69.426 82C69.2134 82.0097 68.9979 82.0119 68.7814 82.0142Z" fill="url(#paint0_linear)"/>
<path d="M17.1873 14.6038L17.3962 15.5818L17.4042 15.5801L17.4121 15.5782L17.1873 14.6038ZM23.0508 14.0177L23.051 13.0177H23.0508V14.0177ZM3.01283 29.4726L2.01284 29.4658L2.01283 29.472L3.01283 29.4726ZM3.00509 98.9183L4.00509 98.9183L4.00509 98.9179L3.00509 98.9183ZM21.5482 114.411L21.5321 115.411L21.5462 115.411L21.5482 114.411ZM81.6315 114.436L81.6319 115.436L81.6319 115.436L81.6315 114.436ZM105.913 114.429L105.919 113.429H105.913V114.429ZM124.975 98.9049L123.975 98.9032L123.975 98.9161L124.975 98.9049ZM124.99 58.3407L123.99 58.341L123.99 58.341L124.99 58.3407ZM124.991 30.1416L123.991 30.1012L123.991 30.121L123.991 30.1409L124.991 30.1416ZM112.574 15.0815L112.259 16.0307L112.271 16.0344L112.282 16.0379L112.574 15.0815ZM102.087 14.0177V15.0177H102.095L102.103 15.0175L102.087 14.0177ZM75.7432 14.0191L75.7432 15.0191L75.7432 14.0191ZM20.3708 21.7132L20.215 20.7254L20.2076 20.7266L20.3708 21.7132ZM12.3153 29.4599L13.3153 29.4609L13.3153 29.447L13.315 29.4331L12.3153 29.4599ZM23.1985 21.558L23.2028 22.558L23.2028 22.558L23.1985 21.558ZM23.8022 21.5541L23.8029 20.554L23.791 20.5541L23.8022 21.5541ZM60.2579 21.5594L60.258 22.5594L60.2579 21.5594ZM105.82 21.5732L105.819 22.5732H105.82V21.5732ZM115.812 30.0843L114.814 30.0237L114.812 30.0548L114.812 30.086L115.812 30.0843ZM115.82 98.294L114.82 98.2933L114.82 98.3222L114.821 98.3511L115.82 98.294ZM105.898 106.824L105.903 105.824L105.895 105.824L105.898 106.824ZM37.4939 106.854L37.4943 105.854L37.4943 105.854L37.4939 106.854ZM22.3769 106.849L22.3772 105.849L22.3654 105.849L22.3536 105.85L22.3769 106.849ZM12.3076 98.9497L13.3073 98.9765L13.3076 98.9633L13.3076 98.9501L12.3076 98.9497ZM12.307 71.1711L11.307 71.1713L11.307 71.1713L12.307 71.1711ZM66.3882 82.4365L66.8274 83.335L66.8459 83.3259L66.864 83.3161L66.3882 82.4365ZM68.7814 82.0142L68.771 81.0142L68.771 81.0142L68.7814 82.0142ZM64.0042 86.6941L65.0033 86.7361L65.004 86.7187L65.0041 86.7012L64.0042 86.6941ZM68.1506 91.5568L68.154 90.5568L68.0935 90.5566L68.0334 90.5637L68.1506 91.5568ZM87.4179 91.5686L87.4187 92.5686L87.4187 92.5686L87.4179 91.5686ZM95.6703 91.5645L95.8264 90.5767L95.7488 90.5645H95.6703V91.5645ZM99.9895 86.6175L98.9896 86.6297L98.9899 86.656L98.9916 86.6823L99.9895 86.6175ZM95.7151 82.0229L95.7099 83.0229L95.76 83.0232L95.8099 83.0185L95.7151 82.0229ZM82.0937 82.0092L82.0926 81.0092L82.0926 81.0092L82.0937 82.0092ZM69.426 82L69.4304 81L69.4054 80.9999L69.3805 81.001L69.426 82ZM17.4121 15.5782C19.2197 15.1612 21.1217 15.0177 23.0508 15.0177V13.0177C21.0296 13.0177 18.9658 13.1673 16.9625 13.6294L17.4121 15.5782ZM4.01281 29.4795C4.0552 23.2621 9.72126 17.221 17.3962 15.5818L16.9785 13.6259C8.66644 15.4012 2.06341 22.0502 2.01286 29.4658L4.01281 29.4795ZM4.00509 98.9179C3.99734 75.7736 3.99734 52.6234 4.01283 29.4733L2.01283 29.472C1.99734 52.623 1.99734 75.7739 2.00509 98.9186L4.00509 98.9179ZM21.5643 113.412C16.863 113.336 12.4466 111.579 9.21661 108.885C5.982 106.188 4.00509 102.615 4.00509 98.9183H2.00509C2.00509 103.349 4.36574 107.444 7.93568 110.421C11.5102 113.402 16.3654 115.328 21.5321 115.411L21.5643 113.412ZM81.6312 113.436C61.6013 113.444 41.5737 113.451 21.5502 113.411L21.5462 115.411C41.5725 115.451 61.6025 115.444 81.6319 115.436L81.6312 113.436ZM105.913 113.429C97.8188 113.429 89.7248 113.433 81.6312 113.436L81.6319 115.436C89.7256 115.433 97.8193 115.429 105.913 115.429V113.429ZM123.975 98.9161C124.017 102.687 121.966 106.315 118.614 109.027C115.267 111.735 110.702 113.457 105.919 113.43L105.907 115.429C111.162 115.46 116.174 113.574 119.872 110.582C123.565 107.594 126.026 103.431 125.975 98.8938L123.975 98.9161ZM123.99 58.341C123.994 71.8626 123.998 85.383 123.975 98.9032L125.975 98.9066C125.998 85.3841 125.994 71.8617 125.99 58.3404L123.99 58.341ZM123.991 30.1409C123.984 39.5412 123.987 48.9414 123.99 58.341L125.99 58.3404C125.987 48.9406 125.984 39.5414 125.991 30.1422L123.991 30.1409ZM112.282 16.0379C119.371 18.2054 124.231 24.1653 123.991 30.1012L125.99 30.1819C126.276 23.0965 120.571 16.4809 112.867 14.1252L112.282 16.0379ZM102.103 15.0175C105.64 14.96 109.119 14.989 112.259 16.0307L112.889 14.1324C109.384 12.9699 105.583 12.9607 102.071 13.0178L102.103 15.0175ZM75.7432 15.0191C84.525 15.0184 93.3064 15.0177 102.087 15.0177V13.0177C93.3063 13.0177 84.5248 13.0184 75.7431 13.0191L75.7432 15.0191ZM23.0506 15.0177C40.613 15.0219 58.1788 15.0205 75.7432 15.0191L75.7431 13.0191C58.1786 13.0205 40.6131 13.0219 23.051 13.0177L23.0506 15.0177ZM20.2076 20.7266C17.8466 21.1171 15.625 22.1994 13.9922 23.717C12.3609 25.233 11.2557 27.2491 11.3157 29.4867L13.315 29.4331C13.2743 27.9185 14.0203 26.4212 15.3537 25.1819C16.6855 23.9442 18.542 23.0293 20.534 22.6998L20.2076 20.7266ZM23.1942 20.558C22.2606 20.562 21.2355 20.5645 20.215 20.7254L20.5266 22.701C21.3712 22.5678 22.2429 22.5621 23.2028 22.558L23.1942 20.558ZM23.791 20.5541C23.594 20.5563 23.3961 20.5572 23.1942 20.558L23.2028 22.558C23.4036 22.5572 23.6083 22.5563 23.8133 22.554L23.791 20.5541ZM60.2577 20.5594C48.1062 20.561 35.9545 20.5626 23.8029 20.5541L23.8015 22.5541C35.9541 22.5626 48.1066 22.561 60.258 22.5594L60.2577 20.5594ZM105.821 20.5732C90.6353 20.5555 75.4467 20.5574 60.2577 20.5594L60.258 22.5594C75.4471 22.5574 90.6345 22.5555 105.819 22.5732L105.821 20.5732ZM116.81 30.1448C116.97 27.5093 115.616 25.0981 113.588 23.3852C111.554 21.6684 108.761 20.5732 105.82 20.5732V22.5732C108.278 22.5732 110.617 23.4943 112.297 24.9134C113.983 26.3364 114.926 28.1807 114.814 30.0237L116.81 30.1448ZM116.82 98.2947C116.836 75.5581 116.851 52.8204 116.812 30.0826L114.812 30.086C114.851 52.821 114.836 75.5563 114.82 98.2933L116.82 98.2947ZM105.892 107.824C108.858 107.841 111.635 106.735 113.646 105.003C115.652 103.276 116.968 100.854 116.818 98.2369L114.821 98.3511C114.927 100.199 114 102.059 112.341 103.488C110.686 104.912 108.375 105.838 105.903 105.824L105.892 107.824ZM37.4936 107.854C60.2943 107.862 83.0996 107.87 105.9 107.824L105.895 105.824C83.0983 105.87 60.2954 105.862 37.4943 105.854L37.4936 107.854ZM22.3767 107.849C27.4154 107.85 32.4544 107.852 37.4936 107.854L37.4943 105.854C32.4551 105.852 27.416 105.85 22.3772 105.849L22.3767 107.849ZM11.308 98.923C11.2389 101.506 12.6887 103.788 14.7433 105.367C16.8038 106.95 19.5724 107.915 22.4003 107.849L22.3536 105.85C19.9919 105.905 17.6678 105.092 15.9619 103.781C14.2502 102.466 13.2602 100.737 13.3073 98.9765L11.308 98.923ZM11.307 71.1713C11.3088 80.4309 11.3107 89.6901 11.3076 98.9494L13.3076 98.9501C13.3107 89.6902 13.3088 80.4304 13.307 71.1709L11.307 71.1713ZM11.3153 29.4589C11.3014 43.3633 11.3042 57.2676 11.307 71.1713L13.307 71.1709C13.3042 57.267 13.3014 43.3639 13.3153 29.4609L11.3153 29.4589ZM66.864 83.3161C67.3606 83.0475 67.9353 83.023 68.7918 83.0141L68.771 81.0142C67.9985 81.0223 66.9144 81.015 65.9125 81.5569L66.864 83.3161ZM65.0041 86.7012C65.0149 85.1779 65.8308 83.8221 66.8274 83.335L65.9491 81.5381C64.1257 82.4294 63.0191 84.5809 63.0042 86.687L65.0041 86.7012ZM68.0334 90.5637C67.3652 90.6426 66.6074 90.3069 65.976 89.554C65.3506 88.8082 64.96 87.7681 65.0033 86.7361L63.005 86.6522C62.9394 88.2162 63.5197 89.7376 64.4436 90.8392C65.3615 91.9337 66.7314 92.7313 68.2679 92.5499L68.0334 90.5637ZM87.4172 90.5686C80.9941 90.5734 74.5723 90.5783 68.154 90.5568L68.1473 92.5568C74.5704 92.5783 80.9963 92.5734 87.4187 92.5686L87.4172 90.5686ZM95.6703 90.5645C92.9195 90.5645 90.1682 90.5665 87.4172 90.5686L87.4187 92.5686C90.1699 92.5665 92.9204 92.5645 95.6703 92.5645V90.5645ZM98.9916 86.6823C99.0639 87.7952 98.6606 88.8677 98.0142 89.6134C97.3648 90.3625 96.5621 90.693 95.8264 90.5767L95.5143 92.5522C97.105 92.8035 98.5519 92.0465 99.5255 90.9234C100.502 89.7968 101.095 88.212 100.987 86.5527L98.9916 86.6823ZM95.8099 83.0185C96.5216 82.9507 97.2937 83.27 97.9249 83.9441C98.5525 84.6145 98.9768 85.5773 98.9896 86.6297L100.989 86.6053C100.97 85.0389 100.343 83.601 99.3848 82.5772C98.4298 81.5571 97.0807 80.8885 95.6204 81.0274L95.8099 83.0185ZM82.0948 83.0092C86.6363 83.0042 91.1742 82.9992 95.7099 83.0229L95.7204 81.023C91.1773 80.9992 86.633 81.0042 82.0926 81.0092L82.0948 83.0092ZM69.4216 83C73.6463 83.0185 77.8721 83.0138 82.0948 83.0092L82.0926 81.0092C77.869 81.0138 73.6487 81.0185 69.4304 81L69.4216 83ZM68.7918 83.0141C69.0052 83.0119 69.2383 83.0096 69.4714 82.999L69.3805 81.001C69.1884 81.0098 68.9906 81.0119 68.771 81.0142L68.7918 83.0141Z" fill="url(#paint1_linear)"/>
<path d="M34 46L52 64L34 82" stroke="url(#paint2_linear)" stroke-width="12" stroke-linecap="round" stroke-linejoin="round"/>
<defs>
<linearGradient id="paint0_linear" x1="64" y1="114.442" x2="64" y2="14" gradientUnits="userSpaceOnUse">
<stop stop-color="#5570FF"/>
<stop offset="1" stop-color="#4DD3FF"/>
</linearGradient>
<linearGradient id="paint1_linear" x1="64" y1="114.442" x2="64" y2="14" gradientUnits="userSpaceOnUse">
<stop stop-color="#5570FF"/>
<stop offset="1" stop-color="#4DD3FF"/>
</linearGradient>
<linearGradient id="paint2_linear" x1="43" y1="82" x2="43" y2="46" gradientUnits="userSpaceOnUse">
<stop stop-color="#FD5900"/>
<stop offset="1" stop-color="#FFDE00"/>
</linearGradient>
</defs>
</svg>
