<svg width="48" height="48" viewBox="0 0 48 48" fill="none" xmlns="http://www.w3.org/2000/svg">
<path d="M32.8001 12.5898C25.5401 12.5898 19.6001 18.5298 19.6001 25.7898C19.6001 33.0498 25.5401 38.9898 32.8001 38.9898C40.0601 38.9898 46.0001 33.0498 46.0001 25.7898C46.0001 18.5298 40.0601 12.5898 32.8001 12.5898ZM32.8001 34.5898C27.9601 34.5898 24.0001 30.6298 24.0001 25.7898C24.0001 20.9498 27.9601 16.9898 32.8001 16.9898C37.6401 16.9898 41.6001 20.9498 41.6001 25.7898C41.6001 30.6298 37.6401 34.5898 32.8001 34.5898Z" fill="url(#paint0_linear)"/>
<path fill-rule="evenodd" clip-rule="evenodd" d="M19.8997 6.56836L25.54 23.59H28.9886C29.7493 22.2748 31.1713 21.3899 32.8 21.3899C35.2301 21.3899 37.2 23.3598 37.2 25.7899C37.2 28.2199 35.2301 30.1899 32.8 30.1899C31.1714 30.1899 29.7495 29.3051 28.9887 27.99H22.46L19.82 20.18L13.8282 42.2877C13.7029 42.7499 13.0622 42.7886 12.8823 42.3449L7.06 27.99H2.5C2.22386 27.99 2 27.7661 2 27.49V24.09C2 23.8139 2.22386 23.59 2.5 23.59H10.14L12.56 29.86L18.9429 6.59335C19.0738 6.1162 19.7441 6.09869 19.8997 6.56836Z" fill="url(#paint1_linear)"/>
<defs>
<linearGradient id="paint0_linear" x1="32.8001" y1="38.9898" x2="32.8001" y2="12.5898" gradientUnits="userSpaceOnUse">
<stop stop-color="#02AA93"/>
<stop offset="1" stop-color="#67FF80"/>
</linearGradient>
<linearGradient id="paint1_linear" x1="19.6" y1="43.72" x2="19.6" y2="5" gradientUnits="userSpaceOnUse">
<stop stop-color="#5570FF"/>
<stop offset="1" stop-color="#4DD3FF"/>
</linearGradient>
</defs>
</svg>
