<svg width="192" height="192" viewBox="0 0 192 192" fill="none" xmlns="http://www.w3.org/2000/svg">
<path d="M82.3538 9.87932C100.217 7.33606 118.89 10.3315 134.93 18.5829C151.951 27.2639 165.907 41.6645 173.95 58.9021C182.825 77.7449 184.465 99.7978 178.587 119.76C174.098 135.211 165.086 149.329 152.976 160.034C138.781 172.716 120.245 180.583 101.163 181.781C83.3108 183.149 65.0714 178.842 49.7826 169.596C31.2697 158.53 17.1658 140.411 11.1733 119.805C10.4442 117.058 9.22518 113.95 10.6834 111.226C12.2898 107.981 16.8582 106.817 19.8544 108.841C22.2127 110.14 22.6912 112.944 23.3861 115.283C27.9659 132.171 39.0394 147.125 53.6788 156.835C66.541 165.437 82.1944 169.777 97.6882 169.144C116.167 168.489 134.27 160.644 147.314 147.622C158.832 136.274 166.442 121.082 168.447 105.088C170.373 90.6081 167.786 75.5859 161.179 62.5418C153.307 46.864 139.601 34.1703 123.287 27.49C105.572 20.1315 84.9627 20.0524 67.179 27.2187C45.7496 35.6284 28.8545 54.5277 23.1241 76.705C22.5772 79.7343 20.1392 82.5149 16.8582 82.5036C12.6771 82.8992 9.11126 78.5813 10.3189 74.5912C18.1797 41.1784 48.0737 14.3668 82.3538 9.87932Z" fill="url(#paint0_linear)"/>
<path d="M35.4622 69.1543C44.4964 48.6047 65.0486 33.5825 87.5716 31.3784C91.502 30.8471 95.0223 34.5885 94.578 38.4204C94.6236 52.041 94.5666 65.6615 94.6008 79.2934C102.484 79.3839 109.753 85.8381 110.072 93.7618C110.995 102.33 103.419 110.547 94.7147 110.31C94.3729 124.801 94.7717 139.303 94.5097 153.783C94.4185 156.846 91.6729 159.57 88.6083 159.706C65.5384 157.988 44.3597 142.525 35.2799 121.489C33.9584 118.211 31.6798 114.345 33.8444 110.92C36.1913 106.489 43.7218 106.987 45.3053 111.813C50.4775 126.96 62.8384 139.699 78.2981 144.537C80.2348 145.475 81.9779 143.225 81.6133 141.417C81.6361 110.807 81.6589 80.1977 81.5905 49.5881C81.9665 47.7457 80.1551 45.6658 78.2411 46.5814C63.8068 51.1706 51.8218 62.6209 46.3876 76.6371C45.6927 78.197 45.1686 79.9716 43.7673 81.0907C40.7483 83.6452 35.3596 82.6618 33.7875 78.9317C32.1014 75.6424 34.2318 72.1949 35.4622 69.1543Z" fill="url(#paint1_linear)"/>
<path d="M103.669 32.9156C105.287 32.0001 107.246 32.0001 109.001 32.4522C122.604 35.4137 135.124 42.8965 144.204 53.3522C156.747 67.6623 162.352 87.6467 159.037 106.331C154.958 132.374 133.096 154.721 106.791 158.903C101.983 159.197 98.6337 153.285 101.186 149.307C102.644 146.39 106.21 146.096 109.001 145.283C125.794 140.829 139.59 127.231 144.614 110.762C149.387 95.966 146.71 79.1691 137.858 66.4076C130.396 55.4433 118.571 47.6553 105.549 44.8746C99.7502 44.106 98.4287 35.425 103.669 32.9156Z" fill="url(#paint2_linear)"/>
<path d="M104.752 55.658C107.805 54.6068 110.79 56.4041 113.512 57.5796C126.978 63.9547 136.411 77.824 137.277 92.6088C138.929 111.35 126.204 130.283 107.976 135.596C104.011 136.59 99.8755 132.883 100.354 128.87C100.422 126.022 102.701 123.784 105.321 122.981C113.831 119.816 120.633 112.571 123.185 103.912C126.363 93.8183 123.321 82.1758 115.723 74.7947C112.282 71.0759 107.565 69.0865 103.054 67.0066C98.7363 64.339 99.8186 56.9692 104.752 55.658Z" fill="url(#paint3_linear)"/>
<defs>
<linearGradient id="paint0_linear" x1="96.0254" y1="182.03" x2="96.0254" y2="9" gradientUnits="userSpaceOnUse">
<stop stop-color="#A93AFF"/>
<stop offset="1" stop-color="#FF81FF"/>
</linearGradient>
<linearGradient id="paint1_linear" x1="71.5491" y1="159.706" x2="71.5491" y2="31.3278" gradientUnits="userSpaceOnUse">
<stop stop-color="#A93AFF"/>
<stop offset="1" stop-color="#FF81FF"/>
</linearGradient>
<linearGradient id="paint2_linear" x1="130.14" y1="158.914" x2="130.14" y2="32.156" gradientUnits="userSpaceOnUse">
<stop stop-color="#A93AFF"/>
<stop offset="1" stop-color="#FF81FF"/>
</linearGradient>
<linearGradient id="paint3_linear" x1="118.869" y1="135.759" x2="118.869" y2="55.3405" gradientUnits="userSpaceOnUse">
<stop stop-color="#A93AFF"/>
<stop offset="1" stop-color="#FF81FF"/>
</linearGradient>
</defs>
</svg>
