<svg width="64" height="64" viewBox="0 0 64 64" fill="none" xmlns="http://www.w3.org/2000/svg">
<path d="M8.77916 10.0005C7.24018 10.0005 6.0014 11.2271 6.0014 12.7504V45.3499C6.0014 46.8734 7.24026 47.9999 8.77916 47.9999H25.5855C25.8507 47.9999 26.1051 48.1053 26.2926 48.2928L31.2925 53.2927C31.683 53.6832 32.3162 53.6832 32.7067 53.2927L37.7066 48.2928C37.8942 48.1053 38.1485 47.9999 38.4137 47.9999H55.2218C56.7598 47.9999 57.9978 46.8739 57.9978 45.3499V12.7504C57.9978 11.2271 56.7598 10.0005 55.2198 10.0005H8.77916Z" stroke="url(#paint0_linear)" stroke-width="5"/>
<path d="M47.9994 19.0724C46.822 19.5946 45.5568 19.9475 44.2286 20.1062C45.5841 19.2936 46.625 18.007 47.1152 16.4741C45.8467 17.2264 44.4416 17.7728 42.9462 18.0673C41.7486 16.7914 40.0425 15.9941 38.1541 15.9941C34.5284 15.9941 31.5888 18.9335 31.5888 22.559C31.5888 23.0736 31.647 23.5747 31.7589 24.0551C26.3026 23.7814 21.4652 21.1678 18.2271 17.1958C17.662 18.1655 17.3383 19.293 17.3383 20.4964C17.3383 22.774 18.4973 24.7835 20.2589 25.9607C19.1827 25.9266 18.1705 25.6313 17.2853 25.1396C17.2848 25.167 17.2847 25.1944 17.2847 25.2221C17.2847 28.4031 19.5477 31.0565 22.5511 31.6594C22.0002 31.8095 21.4201 31.8897 20.8215 31.8897C20.3984 31.8897 19.9871 31.8486 19.5863 31.7719C20.4217 34.3803 22.8463 36.2782 25.719 36.3312C23.4722 38.092 20.6415 39.1416 17.5655 39.1416C17.0356 39.1416 16.513 39.1106 15.9994 39.05C18.9068 40.914 22.3573 41.9999 26.0653 41.9999C38.1409 41.9999 44.7442 31.9963 44.7442 23.3208C44.7442 23.0362 44.7378 22.753 44.7252 22.4715C46.0078 21.5459 47.121 20.3896 48.0012 19.073" fill="url(#paint1_linear)"/>
<defs>
<linearGradient id="paint0_linear" x1="31.9996" y1="53.9998" x2="31.9996" y2="10.0005" gradientUnits="userSpaceOnUse">
<stop stop-color="#5570FF"/>
<stop offset="1" stop-color="#4DD3FF"/>
</linearGradient>
<linearGradient id="paint1_linear" x1="32.0003" y1="41.9999" x2="32.0003" y2="15.9941" gradientUnits="userSpaceOnUse">
<stop stop-color="#5570FF"/>
<stop offset="1" stop-color="#4DD3FF"/>
</linearGradient>
</defs>
</svg>
