<svg width="64" height="64" viewBox="0 0 64 64" fill="none" xmlns="http://www.w3.org/2000/svg">
<path d="M6.95146 0.33536C8.04244 0.0402432 9.18261 0.00447146 10.3049 0C25.0599 0.0268288 39.815 -0.00894337 54.5701 0.0178854C59.4258 -0.107316 63.8613 4.1048 63.9596 8.96081C64.0312 13.5932 63.9865 18.2302 63.982 22.8626C64.1027 24.204 63.0877 25.5008 61.7374 25.6349C60.3201 25.8495 58.9071 24.6422 58.8937 23.2158C58.8132 18.6102 58.9072 14.0046 58.858 9.39902C58.9116 7.13198 56.8549 5.07958 54.5835 5.13324C39.5288 5.1243 24.4697 5.1243 9.41064 5.13771C7.1482 5.08852 5.10037 7.12751 5.14509 9.39007C5.09143 13.9957 5.1898 18.6102 5.10485 23.2158C5.0959 24.6467 3.67405 25.8585 2.25667 25.6349C0.901891 25.5097 -0.11755 24.1861 0.0121156 22.8492C0.0165868 18.2123 -0.0281249 13.5754 0.0344723 8.94293C0.150724 4.9678 3.11962 1.3325 6.95146 0.33536Z" fill="url(#paint0_linear)"/>
<path d="M16.7609 13.2936C17.4226 13.1147 18.1201 13.155 18.7998 13.1415C28.0284 13.1773 37.2615 13.1192 46.4901 13.1728C47.8225 13.1326 49.0387 14.3131 48.985 15.6545C49.0074 18.7398 49.0387 21.8296 48.9716 24.9149C49.0029 25.5812 48.2026 26.0417 47.6124 25.8047C46.9417 25.6974 46.9328 24.8478 46.6779 24.3604C45.7926 21.2885 43.159 18.5028 39.8414 18.3016C38.348 18.2524 36.8099 18.087 35.3433 18.4134C34.5922 18.6146 34.6011 19.4955 34.5877 20.1126C34.5966 27.2714 34.5698 34.4346 34.6011 41.5979C34.5787 44.4105 37.0156 46.8251 39.7877 46.9726C40.91 46.6909 41.4823 48.5108 40.2572 48.6628C34.8873 48.7746 29.5039 48.6986 24.1295 48.7031C23.2218 48.9177 22.645 47.706 23.3694 47.1694C24.438 46.8564 25.6139 46.8698 26.5976 46.3019C28.2967 45.3808 29.4502 43.5251 29.4502 41.5845C29.4771 34.4346 29.4547 27.2893 29.4637 20.1439C29.5486 19.3435 29.2714 18.3061 28.2877 18.2971C25.7838 18.2077 22.9983 17.9573 20.8297 19.4865C18.8534 20.8146 17.7267 22.9966 17.0649 25.219C16.7922 26.2876 14.9456 25.9523 15.0663 24.8389C15.0171 21.8028 15.0439 18.7577 15.0574 15.7216C15.0305 14.6529 15.737 13.62 16.7609 13.2936Z" fill="url(#paint1_linear)"/>
<path d="M1.10713 38.298C2.66312 37.1041 5.18042 38.3919 5.10888 40.3504C5.18489 45.0901 5.09547 49.8299 5.14465 54.5696C5.08205 56.859 7.14776 58.9114 9.43256 58.8578C24.4917 58.8712 39.5508 58.8712 54.6099 58.8578C56.8857 58.8935 58.9291 56.8367 58.8575 54.5562C58.9022 49.8209 58.8173 45.0857 58.8888 40.3504C58.8665 38.8927 60.2883 37.6586 61.7281 37.8642C63.1097 37.985 64.1112 39.3354 63.9816 40.6857C63.986 45.4657 64.0218 50.2502 63.9637 55.0302C63.8698 59.8907 59.4433 64.0938 54.592 63.991C39.5284 64.0044 24.4693 63.9999 9.40573 63.9955C4.55445 64.1028 0.127932 59.8996 0.029565 55.0436C-0.0240897 50.2502 0.0116797 45.4568 0.0116797 40.6634C-0.0375038 39.7512 0.329137 38.8122 1.10713 38.298Z" fill="url(#paint2_linear)"/>
<defs>
<linearGradient id="paint0_linear" x1="32.0003" y1="25.6616" x2="32.0003" y2="0" gradientUnits="userSpaceOnUse">
<stop stop-color="#A93AFF"/>
<stop offset="1" stop-color="#FF81FF"/>
</linearGradient>
<linearGradient id="paint1_linear" x1="32.0251" y1="48.7283" x2="32.0251" y2="13.1415" gradientUnits="userSpaceOnUse">
<stop stop-color="#A93AFF"/>
<stop offset="1" stop-color="#FF81FF"/>
</linearGradient>
<linearGradient id="paint2_linear" x1="31.9983" y1="63.9999" x2="31.9983" y2="37.838" gradientUnits="userSpaceOnUse">
<stop stop-color="#A93AFF"/>
<stop offset="1" stop-color="#FF81FF"/>
</linearGradient>
</defs>
</svg>
