<svg width="128" height="128" viewBox="0 0 128 128" fill="none" xmlns="http://www.w3.org/2000/svg">
<path d="M55.7885 5.24611C64.5868 2.16897 75.1196 4.93768 81.0909 11.9312C78.9356 13.832 76.7287 15.6754 74.4405 17.4256C71.7243 14.4345 67.7237 12.5624 63.5977 12.5265C57.774 12.3687 52.1644 16.0484 49.9796 21.2702C48.8503 23.6947 48.7248 26.3988 48.7765 29.0241C48.0605 31.4628 48.0236 34.0379 47.3962 36.4767C45.3369 38.3775 43.0045 40.5723 40.0225 40.7804C34.3317 40.7804 28.6335 40.723 22.9426 40.809C18.4328 41.0673 14.5356 44.79 14.0779 49.1439C13.6572 51.0806 13.5539 53.2037 12.4172 54.9037C10.7122 56.783 8.46088 58.1171 6.19489 59.2719C5.72988 55.499 5.75202 51.6902 5.51583 47.8958C6.43846 39.7403 13.8639 32.8831 22.2931 32.4097C28.198 32.2662 34.1029 32.3953 40.0077 32.3379C40.0742 28.1849 39.683 23.9027 41.1001 19.9002C43.2333 13.1147 48.8724 7.50556 55.7885 5.24611Z" fill="url(#paint0_linear)"/>
<path d="M81.0909 11.9312C82.2202 13.0932 83.1059 14.456 83.9105 15.8404C87.5863 22.0305 86.6489 29.3468 86.7891 36.1754C84.0138 37.5597 81.8216 39.7546 79.2383 41.39C78.8323 41.2466 78.419 41.0959 78.0204 40.931C72.086 40.3213 65.9375 41.4115 60.0622 40.35C56.4011 38.7289 57.3607 32.7468 61.435 32.3881C66.934 32.2877 72.4403 32.3881 77.9466 32.3451C77.8801 28.3857 78.4485 24.1824 76.4851 20.5314C75.9832 19.3909 75.2082 18.4011 74.4405 17.4256C76.7287 15.6754 78.9356 13.832 81.0909 11.9312Z" fill="url(#paint1_linear)"/>
<path d="M47.3962 36.4767C48.0236 34.0379 48.0605 31.4628 48.7765 29.0241C48.6805 35.329 48.7912 41.6339 48.7691 47.9389C48.6584 51.4249 43.8902 53.1176 41.3585 50.7291C39.1663 48.4983 40.2882 45.1988 40.0077 42.4445C40.0151 42.0284 40.0225 41.1964 40.0225 40.7804C43.0045 40.5723 45.3369 38.3775 47.3962 36.4767Z" fill="url(#paint2_linear)"/>
<path d="M97.7131 32.9835C99.2115 32.0295 101.079 32.4312 102.762 32.3451C106.77 32.2518 110.808 33.4641 114.04 35.7809C111.708 37.8825 109.294 39.9483 106.386 41.2681C103.212 40.0272 98.9901 42.0284 96.5174 39.1378C95.0043 37.237 95.5652 34.1957 97.7131 32.9835Z" fill="url(#paint3_linear)"/>
<path d="M114.04 35.7809C116.786 37.6889 118.941 40.3787 120.211 43.4128C117.642 45.0769 115.162 46.8629 112.808 48.8068C112.601 47.9747 112.402 47.1355 112.033 46.3537C111.036 43.9508 108.837 42.1862 106.386 41.2681C109.294 39.9483 111.708 37.8825 114.04 35.7809Z" fill="url(#paint4_linear)"/>
<path d="M79.2383 41.39C81.8216 39.7546 84.0138 37.5597 86.7891 36.1754C86.7891 40.1133 86.7596 44.0583 86.7153 47.9962C86.5603 51.5037 81.6371 53.1822 79.1866 50.6071C77.1125 48.362 78.2344 45.1271 77.9466 42.4086C77.9687 42.0428 78.0056 41.304 78.0204 40.931C78.419 41.0959 78.8323 41.2466 79.2383 41.39Z" fill="url(#paint5_linear)"/>
<path d="M112.808 48.8068C115.162 46.8629 117.642 45.0769 120.211 43.4128C120.558 44.1444 120.824 44.8976 121.001 45.6866C121.569 48.0034 121.606 50.3848 121.554 52.7518C118.476 54.5164 115.672 56.6682 112.911 58.8559C112.852 55.5062 112.992 52.1565 112.808 48.8068Z" fill="url(#paint6_linear)"/>
<path d="M5.383 76.3433C5.43466 66.8608 5.16891 57.3711 5.51583 47.8958C5.75202 51.6902 5.72988 55.499 6.19489 59.2719C8.46088 58.1171 10.7122 56.783 12.4172 54.9037C13.5539 53.2037 13.6572 51.0806 14.0779 49.1439C14.0114 58.4399 14.0706 67.7431 14.0411 77.0391L13.8861 77.7277C13.517 74.3277 13.6646 70.8991 13.2808 67.5064C10.8377 68.9696 8.28377 70.4831 6.49016 72.7067C6.03991 74.0982 5.86277 75.5615 5.60443 77.0032L5.383 76.3433Z" fill="url(#paint7_linear)"/>
<path d="M112.911 58.8559C115.672 56.6682 118.476 54.5164 121.554 52.7518C121.562 55.872 121.562 58.9922 121.554 62.1124C118.75 64.2571 115.908 66.3659 112.911 68.2452C112.896 65.1178 112.889 61.9833 112.911 58.8559Z" fill="url(#paint8_linear)"/>
<path d="M112.911 68.2452C115.908 66.3659 118.75 64.2571 121.554 62.1124C121.562 66.1292 121.562 70.1532 121.554 74.1771C118.41 75.6834 115.79 77.9715 112.911 79.8795C112.896 75.999 112.889 72.1257 112.911 68.2452Z" fill="url(#paint9_linear)"/>
<path d="M6.49016 72.7067C8.28377 70.4831 10.8377 68.9696 13.2808 67.5064C13.6646 70.8991 13.517 74.3277 13.8861 77.7277C13.5983 81.8952 9.56807 83.9537 6.48277 86.1414C5.30917 83.222 5.78158 80.0516 5.60443 77.0032C5.86277 75.5615 6.03991 74.0982 6.49016 72.7067Z" fill="url(#paint10_linear)"/>
<path d="M112.911 79.8795C115.79 77.9715 118.41 75.6834 121.554 74.1771C121.562 78.0433 121.562 81.9166 121.554 85.7899C118.661 87.7911 115.768 89.7924 112.911 91.8438C112.889 87.8557 112.889 83.8676 112.911 79.8795Z" fill="url(#paint11_linear)"/>
<path d="M5.383 76.3433L5.60443 77.0032C5.78158 80.0516 5.30917 83.222 6.48277 86.1414C9.56807 83.9537 13.5983 81.8952 13.8861 77.7277L14.0411 77.0391C14.0706 86.6578 14.0189 96.2766 14.0632 105.903C11.561 107.681 8.99972 109.389 6.57872 111.282C5.7668 109.159 5.30918 106.9 5.36084 104.626C5.38299 95.2007 5.33133 85.7684 5.383 76.3433Z" fill="url(#paint12_linear)"/>
<path d="M112.911 91.8438C115.768 89.7924 118.661 87.7911 121.554 85.7899C121.562 89.8641 121.562 93.9454 121.554 98.0196C118.727 100.121 115.864 102.166 112.919 104.109C112.882 100.021 112.896 95.9323 112.911 91.8438Z" fill="url(#paint13_linear)"/>
<path d="M82.294 114.273C87.9849 114.252 93.6757 114.252 99.3665 114.273C96.2148 117.343 92.3766 119.631 89.2101 122.694C83.5341 122.701 77.858 122.701 72.1746 122.694C75.2746 119.581 79.0464 117.228 82.294 114.273Z" fill="url(#paint14_linear)"/>
<path d="M112.919 104.109C115.864 102.166 118.727 100.121 121.554 98.0196C121.422 102.539 122.145 107.287 120.211 111.562C117.672 117.86 111.147 122.357 104.194 122.651C99.2041 122.752 94.2071 122.673 89.2101 122.694C92.3766 119.631 96.2148 117.343 99.3665 114.273C102.046 114.194 104.881 114.567 107.361 113.326C110.963 111.748 113.14 107.904 112.919 104.109Z" fill="url(#paint15_linear)"/>
<path d="M6.57872 111.282C8.99972 109.389 11.561 107.681 14.0632 105.903C14.1518 106.24 14.3289 106.928 14.4101 107.273C15.377 111.067 19.0454 114.015 23.0755 114.209C27.8216 114.338 32.5824 114.216 37.3358 114.273C34.3243 117.487 30.5378 119.839 27.2015 122.694C19.9681 123.44 12.277 120.643 8.28376 114.539C7.61208 113.506 7.04373 112.415 6.57872 111.282Z" fill="url(#paint16_linear)"/>
<path d="M37.3358 114.273C41.7275 114.252 46.1267 114.259 50.5184 114.273C47.3962 117.35 43.558 119.61 40.4432 122.694C36.0293 122.701 31.6154 122.701 27.2015 122.694C30.5378 119.839 34.3243 117.487 37.3358 114.273Z" fill="url(#paint17_linear)"/>
<path d="M50.5184 114.273C55.4785 114.252 60.4386 114.259 65.3987 114.273C62.3134 117.415 58.4162 119.639 55.2423 122.694C50.3118 122.701 45.3738 122.701 40.4432 122.694C43.558 119.61 47.3962 117.35 50.5184 114.273Z" fill="url(#paint18_linear)"/>
<path d="M65.3987 114.273C71.0305 114.252 76.6622 114.259 82.294 114.273C79.0464 117.228 75.2746 119.581 72.1746 122.694C66.5281 122.701 60.8888 122.701 55.2423 122.694C58.4162 119.639 62.3134 117.415 65.3987 114.273Z" fill="url(#paint19_linear)"/>
<path d="M5.51583 47.8958C6.43846 39.7403 13.8639 32.8831 22.2931 32.4097C28.198 32.2662 34.1029 32.3953 40.0077 32.3379C40.0742 28.1849 39.683 23.9027 41.1001 19.9002C43.2333 13.1147 48.8724 7.50556 55.7885 5.24611C64.5868 2.16897 75.1196 4.93768 81.0909 11.9312C82.2202 13.0932 83.1059 14.456 83.9105 15.8404C87.5863 22.0305 86.6489 29.3468 86.7891 36.1754C86.7891 40.1133 86.7596 44.0583 86.7153 47.9962C86.5603 51.5037 81.6371 53.1822 79.1866 50.6071C77.1125 48.362 78.2344 45.1271 77.9466 42.4086C77.9687 42.0428 78.0056 41.304 78.0204 40.931C72.086 40.3213 65.9375 41.4115 60.0622 40.35C56.4011 38.7289 57.3607 32.7468 61.435 32.3881C66.934 32.2877 72.4403 32.3881 77.9466 32.3451C77.8801 28.3857 78.4485 24.1824 76.4851 20.5314C75.9832 19.3909 75.2082 18.4011 74.4405 17.4256C71.7243 14.4345 67.7237 12.5624 63.5977 12.5265C57.774 12.3687 52.1644 16.0484 49.9796 21.2702C48.8503 23.6947 48.7248 26.3988 48.7765 29.0241C48.6805 35.329 48.7912 41.6339 48.7691 47.9389C48.6584 51.4249 43.8902 53.1176 41.3585 50.7291C39.1663 48.4983 40.2882 45.1988 40.0077 42.4445C40.0151 42.0284 40.0225 41.1964 40.0225 40.7804C34.3317 40.7804 28.6335 40.723 22.9426 40.809C18.4328 41.0673 14.5356 44.79 14.0779 49.1439M5.51583 47.8958C5.16891 57.3711 5.43466 66.8608 5.383 76.3433M5.51583 47.8958L5.383 76.3433M14.0779 49.1439C14.0114 58.4399 14.0706 67.7431 14.0411 77.0391M14.0779 49.1439L14.0411 77.0391M14.0411 77.0391L13.8861 77.7277M14.0411 77.0391C14.0706 86.6578 14.0189 96.2766 14.0632 105.903M14.0411 77.0391L14.0632 105.903M5.383 76.3433L5.60443 77.0032M5.383 76.3433C5.33133 85.7684 5.38299 95.2007 5.36084 104.626C5.30918 106.9 5.7668 109.159 6.57872 111.282C7.04373 112.415 7.61208 113.506 8.28376 114.539C12.277 120.643 19.9681 123.44 27.2015 122.694M114.04 35.7809C110.808 33.4641 106.77 32.2518 102.762 32.3451C101.079 32.4312 99.2115 32.0295 97.7131 32.9835C95.5652 34.1957 95.0043 37.237 96.5174 39.1378C98.9901 42.0284 103.212 40.0272 106.386 41.2681C108.837 42.1862 111.036 43.9508 112.033 46.3537C112.402 47.1355 112.601 47.9747 112.808 48.8068M114.04 35.7809C116.786 37.6889 118.941 40.3787 120.211 43.4128M114.04 35.7809L120.211 43.4128M120.211 43.4128C120.558 44.1444 120.824 44.8976 121.001 45.6866C121.569 48.0034 121.606 50.3848 121.554 52.7518M120.211 43.4128L121.554 52.7518M112.808 48.8068C112.992 52.1565 112.852 55.5062 112.911 58.8559M112.808 48.8068L112.911 58.8559M121.554 52.7518C121.562 55.872 121.562 58.9922 121.554 62.1124M121.554 52.7518V62.1124M112.911 58.8559C112.889 61.9833 112.896 65.1178 112.911 68.2452M112.911 58.8559V68.2452M121.554 62.1124C121.562 66.1292 121.562 70.1532 121.554 74.1771M121.554 62.1124V74.1771M112.911 68.2452C112.889 72.1257 112.896 75.999 112.911 79.8795M112.911 68.2452V79.8795M14.0632 105.903C14.1518 106.24 14.3289 106.928 14.4101 107.273C15.377 111.067 19.0454 114.015 23.0755 114.209C27.8216 114.338 32.5824 114.216 37.3358 114.273M121.554 74.1771C121.562 78.0433 121.562 81.9166 121.554 85.7899M121.554 74.1771V85.7899M112.911 79.8795C112.889 83.8676 112.889 87.8557 112.911 91.8438M112.911 79.8795V91.8438M121.554 85.7899C121.562 89.8641 121.562 93.9454 121.554 98.0196M121.554 85.7899V98.0196M112.911 91.8438C112.896 95.9323 112.882 100.021 112.919 104.109M112.911 91.8438L112.919 104.109M121.554 98.0196C121.422 102.539 122.145 107.287 120.211 111.562C117.672 117.86 111.147 122.357 104.194 122.651C99.2041 122.752 94.2071 122.673 89.2101 122.694M112.919 104.109C113.14 107.904 110.963 111.748 107.361 113.326C104.881 114.567 102.046 114.194 99.3665 114.273M37.3358 114.273C41.7275 114.252 46.1267 114.259 50.5184 114.273M37.3358 114.273H50.5184M27.2015 122.694C31.6154 122.701 36.0293 122.701 40.4432 122.694M27.2015 122.694H40.4432M89.2101 122.694C83.5341 122.701 77.858 122.701 72.1746 122.694M89.2101 122.694H72.1746M99.3665 114.273C93.6757 114.252 87.9849 114.252 82.294 114.273M99.3665 114.273H82.294M82.294 114.273C76.6622 114.259 71.0305 114.252 65.3987 114.273M82.294 114.273H65.3987M72.1746 122.694C66.5281 122.701 60.8888 122.701 55.2423 122.694M72.1746 122.694H55.2423M65.3987 114.273C60.4386 114.259 55.4785 114.252 50.5184 114.273M65.3987 114.273H50.5184M55.2423 122.694C50.3118 122.701 45.3738 122.701 40.4432 122.694M55.2423 122.694H40.4432" stroke="url(#paint20_linear)" stroke-width="2"/>
<defs>
<linearGradient id="paint0_linear" x1="63.4577" y1="122.812" x2="63.4577" y2="4" gradientUnits="userSpaceOnUse">
<stop stop-color="#BE55FF"/>
<stop offset="0.505208" stop-color="#E7335D"/>
<stop offset="1" stop-color="#FF5C00"/>
</linearGradient>
<linearGradient id="paint1_linear" x1="63.4577" y1="122.812" x2="63.4577" y2="4" gradientUnits="userSpaceOnUse">
<stop stop-color="#BE55FF"/>
<stop offset="0.505208" stop-color="#E7335D"/>
<stop offset="1" stop-color="#FF5C00"/>
</linearGradient>
<linearGradient id="paint2_linear" x1="63.4577" y1="122.812" x2="63.4577" y2="4" gradientUnits="userSpaceOnUse">
<stop stop-color="#BE55FF"/>
<stop offset="0.505208" stop-color="#E7335D"/>
<stop offset="1" stop-color="#FF5C00"/>
</linearGradient>
<linearGradient id="paint3_linear" x1="63.4577" y1="122.812" x2="63.4577" y2="4" gradientUnits="userSpaceOnUse">
<stop stop-color="#BE55FF"/>
<stop offset="0.505208" stop-color="#E7335D"/>
<stop offset="1" stop-color="#FF5C00"/>
</linearGradient>
<linearGradient id="paint4_linear" x1="63.4577" y1="122.812" x2="63.4577" y2="4" gradientUnits="userSpaceOnUse">
<stop stop-color="#BE55FF"/>
<stop offset="0.505208" stop-color="#E7335D"/>
<stop offset="1" stop-color="#FF5C00"/>
</linearGradient>
<linearGradient id="paint5_linear" x1="63.4577" y1="122.812" x2="63.4577" y2="4" gradientUnits="userSpaceOnUse">
<stop stop-color="#BE55FF"/>
<stop offset="0.505208" stop-color="#E7335D"/>
<stop offset="1" stop-color="#FF5C00"/>
</linearGradient>
<linearGradient id="paint6_linear" x1="63.4577" y1="122.812" x2="63.4577" y2="4" gradientUnits="userSpaceOnUse">
<stop stop-color="#BE55FF"/>
<stop offset="0.505208" stop-color="#E7335D"/>
<stop offset="1" stop-color="#FF5C00"/>
</linearGradient>
<linearGradient id="paint7_linear" x1="63.4577" y1="122.812" x2="63.4577" y2="4" gradientUnits="userSpaceOnUse">
<stop stop-color="#BE55FF"/>
<stop offset="0.505208" stop-color="#E7335D"/>
<stop offset="1" stop-color="#FF5C00"/>
</linearGradient>
<linearGradient id="paint8_linear" x1="63.4577" y1="122.812" x2="63.4577" y2="4" gradientUnits="userSpaceOnUse">
<stop stop-color="#BE55FF"/>
<stop offset="0.505208" stop-color="#E7335D"/>
<stop offset="1" stop-color="#FF5C00"/>
</linearGradient>
<linearGradient id="paint9_linear" x1="63.4577" y1="122.812" x2="63.4577" y2="4" gradientUnits="userSpaceOnUse">
<stop stop-color="#BE55FF"/>
<stop offset="0.505208" stop-color="#E7335D"/>
<stop offset="1" stop-color="#FF5C00"/>
</linearGradient>
<linearGradient id="paint10_linear" x1="63.4577" y1="122.812" x2="63.4577" y2="4" gradientUnits="userSpaceOnUse">
<stop stop-color="#BE55FF"/>
<stop offset="0.505208" stop-color="#E7335D"/>
<stop offset="1" stop-color="#FF5C00"/>
</linearGradient>
<linearGradient id="paint11_linear" x1="63.4577" y1="122.812" x2="63.4577" y2="4" gradientUnits="userSpaceOnUse">
<stop stop-color="#BE55FF"/>
<stop offset="0.505208" stop-color="#E7335D"/>
<stop offset="1" stop-color="#FF5C00"/>
</linearGradient>
<linearGradient id="paint12_linear" x1="63.4577" y1="122.812" x2="63.4577" y2="4" gradientUnits="userSpaceOnUse">
<stop stop-color="#BE55FF"/>
<stop offset="0.505208" stop-color="#E7335D"/>
<stop offset="1" stop-color="#FF5C00"/>
</linearGradient>
<linearGradient id="paint13_linear" x1="63.4577" y1="122.812" x2="63.4577" y2="4" gradientUnits="userSpaceOnUse">
<stop stop-color="#BE55FF"/>
<stop offset="0.505208" stop-color="#E7335D"/>
<stop offset="1" stop-color="#FF5C00"/>
</linearGradient>
<linearGradient id="paint14_linear" x1="63.4577" y1="122.812" x2="63.4577" y2="4" gradientUnits="userSpaceOnUse">
<stop stop-color="#BE55FF"/>
<stop offset="0.505208" stop-color="#E7335D"/>
<stop offset="1" stop-color="#FF5C00"/>
</linearGradient>
<linearGradient id="paint15_linear" x1="63.4577" y1="122.812" x2="63.4577" y2="4" gradientUnits="userSpaceOnUse">
<stop stop-color="#BE55FF"/>
<stop offset="0.505208" stop-color="#E7335D"/>
<stop offset="1" stop-color="#FF5C00"/>
</linearGradient>
<linearGradient id="paint16_linear" x1="63.4577" y1="122.812" x2="63.4577" y2="4" gradientUnits="userSpaceOnUse">
<stop stop-color="#BE55FF"/>
<stop offset="0.505208" stop-color="#E7335D"/>
<stop offset="1" stop-color="#FF5C00"/>
</linearGradient>
<linearGradient id="paint17_linear" x1="63.4577" y1="122.812" x2="63.4577" y2="4" gradientUnits="userSpaceOnUse">
<stop stop-color="#BE55FF"/>
<stop offset="0.505208" stop-color="#E7335D"/>
<stop offset="1" stop-color="#FF5C00"/>
</linearGradient>
<linearGradient id="paint18_linear" x1="63.4577" y1="122.812" x2="63.4577" y2="4" gradientUnits="userSpaceOnUse">
<stop stop-color="#BE55FF"/>
<stop offset="0.505208" stop-color="#E7335D"/>
<stop offset="1" stop-color="#FF5C00"/>
</linearGradient>
<linearGradient id="paint19_linear" x1="63.4577" y1="122.812" x2="63.4577" y2="4" gradientUnits="userSpaceOnUse">
<stop stop-color="#BE55FF"/>
<stop offset="0.505208" stop-color="#E7335D"/>
<stop offset="1" stop-color="#FF5C00"/>
</linearGradient>
<linearGradient id="paint20_linear" x1="63.4577" y1="122.812" x2="63.4577" y2="4" gradientUnits="userSpaceOnUse">
<stop stop-color="#BE55FF"/>
<stop offset="0.505208" stop-color="#E7335D"/>
<stop offset="1" stop-color="#FF5C00"/>
</linearGradient>
</defs>
</svg>
