<?xml version="1.0" encoding="UTF-8" ?>
<!DOCTYPE svg PUBLIC "-//W3C//DTD SVG 1.1//EN" "http://www.w3.org/Graphics/SVG/1.1/DTD/svg11.dtd">
<svg width="192pt" height="192pt" viewBox="0 0 192 192" version="1.1" xmlns="http://www.w3.org/2000/svg">
<g id="#9b13ffff">
<path fill="#9b13ff" opacity="1.00" d=" M 89.28 26.26 C 101.70 16.12 118.53 11.91 134.30 14.50 C 132.01 18.00 129.62 21.43 127.19 24.84 C 128.20 25.17 129.22 25.50 130.25 25.81 C 119.51 24.84 108.38 27.30 99.47 33.49 C 92.25 38.38 86.71 45.77 84.39 54.21 C 82.89 59.41 82.72 64.87 82.43 70.24 C 81.89 80.21 82.14 90.21 82.97 100.17 C 82.08 99.12 81.15 98.12 80.21 97.12 C 77.84 100.42 75.54 103.77 73.29 107.15 C 70.58 101.17 70.61 94.50 70.31 88.07 C 70.04 77.84 70.34 67.57 71.62 57.41 C 73.27 45.27 79.74 33.93 89.28 26.26 Z" />
<path fill="#9b13ff" opacity="1.00" d=" M 50.41 69.18 C 50.35 65.45 54.43 62.53 57.95 63.77 C 60.68 64.43 62.35 67.24 62.23 69.95 C 62.34 75.64 62.20 81.32 62.31 87.01 C 62.41 92.88 61.85 98.89 63.55 104.60 C 64.80 109.36 67.51 113.56 70.52 117.39 C 68.90 118.79 66.58 119.63 65.73 121.75 C 65.01 124.16 65.36 126.73 65.58 129.20 C 56.43 121.09 50.68 109.19 50.44 96.92 C 50.39 87.67 50.23 78.42 50.41 69.18 Z" />
<path fill="#9b13ff" opacity="1.00" d=" M 17.36 119.19 C 20.53 115.90 23.79 112.68 27.21 109.65 C 29.82 123.27 37.17 135.59 46.81 145.42 C 43.60 147.79 40.78 150.62 38.41 153.83 C 28.81 144.14 21.30 132.28 17.36 119.19 Z" />
</g>
<g id="#a71bffff">
<path fill="#a71bff" opacity="1.00" d=" M 134.30 14.50 C 149.28 16.98 162.93 26.17 170.69 39.25 C 166.98 41.61 164.47 45.23 162.51 49.08 C 159.89 44.12 156.69 39.37 152.37 35.72 C 146.29 30.12 138.33 27.07 130.25 25.81 C 129.22 25.50 128.20 25.17 127.19 24.84 C 129.62 21.43 132.01 18.00 134.30 14.50 Z" />
</g>
<g id="#8f0cffff">
<path fill="#8f0cff" opacity="1.00" d=" M 47.34 21.32 C 51.78 19.51 57.39 20.89 60.08 24.97 C 63.11 29.36 61.99 34.98 62.28 39.99 C 62.12 43.39 63.07 47.65 60.09 50.13 C 57.12 52.91 51.63 51.32 50.63 47.38 C 50.01 43.56 50.48 39.65 50.26 35.79 C 50.25 35.05 50.22 33.57 50.20 32.84 C 40.30 37.98 31.77 46.50 28.24 57.25 C 25.22 65.84 26.09 75.07 25.97 84.00 C 26.10 91.77 25.56 99.61 26.82 107.31 C 26.92 107.90 27.11 109.06 27.21 109.65 C 23.79 112.68 20.53 115.90 17.36 119.19 C 12.70 104.22 14.46 88.40 14.13 72.98 C 13.72 58.46 18.98 43.67 29.49 33.47 C 34.64 28.43 40.54 23.89 47.34 21.32 Z" />
</g>
<g id="#00000041">
<path fill="#000000" opacity="0.25" d=" M 99.47 33.49 C 108.38 27.30 119.51 24.84 130.25 25.81 C 138.33 27.07 146.29 30.12 152.37 35.72 C 147.50 34.19 143.41 30.87 138.42 29.67 C 125.98 26.39 112.06 28.15 101.24 35.26 C 93.81 40.30 87.74 47.73 85.53 56.54 C 83.98 61.00 84.73 66.03 82.43 70.24 C 82.72 64.87 82.89 59.41 84.39 54.21 C 86.71 45.77 92.25 38.38 99.47 33.49 Z" />
</g>
<g id="#0000003d">
<path fill="#000000" opacity="0.24" d=" M 28.24 57.25 C 31.77 46.50 40.30 37.98 50.20 32.84 C 50.22 33.57 50.25 35.05 50.26 35.79 C 43.72 39.30 37.37 43.96 33.74 50.59 C 30.39 57.24 27.74 64.45 27.65 71.97 C 27.45 83.75 28.18 95.58 26.82 107.31 C 25.56 99.61 26.10 91.77 25.97 84.00 C 26.09 75.07 25.22 65.84 28.24 57.25 Z" />
<path fill="#000000" opacity="0.24" d=" M 141.39 59.83 C 142.61 62.72 143.00 65.86 142.92 68.98 C 142.80 80.09 143.22 91.22 142.50 102.33 C 141.88 112.42 136.94 121.84 130.26 129.25 C 117.61 142.38 96.91 147.06 80.02 139.91 C 76.35 138.16 71.87 136.78 70.04 132.79 C 86.39 144.13 110.09 143.26 125.27 130.28 C 134.77 122.37 141.02 110.45 141.33 98.01 C 141.76 85.29 141.55 72.55 141.39 59.83 Z" />
</g>
<g id="#b826ffff">
<path fill="#b826ff" opacity="1.00" d=" M 162.51 49.08 C 164.47 45.23 166.98 41.61 170.69 39.25 C 175.31 46.98 177.91 55.84 178.25 64.83 C 178.57 74.21 178.39 83.60 178.34 92.99 C 178.30 100.26 177.64 107.55 175.84 114.61 C 171.24 132.98 159.78 149.38 144.58 160.57 C 124.29 175.65 96.94 181.25 72.56 174.08 C 73.84 170.21 75.87 166.66 78.30 163.39 C 94.92 167.43 112.90 164.95 127.99 156.99 C 142.75 149.34 154.75 136.48 161.21 121.15 C 165.93 110.44 166.80 98.57 166.53 87.00 C 166.31 74.34 168.03 60.94 162.51 49.08 Z" />
</g>
<g id="#aa1dffff">
<path fill="#aa1dff" opacity="1.00" d=" M 120.43 54.42 C 123.97 51.79 128.50 49.89 132.96 50.89 C 137.25 51.82 140.61 55.55 141.39 59.83 C 141.55 72.55 141.76 85.29 141.33 98.01 C 141.02 110.45 134.77 122.37 125.27 130.28 C 110.09 143.26 86.39 144.13 70.04 132.79 C 68.44 131.75 66.98 130.49 65.58 129.20 C 65.36 126.73 65.01 124.16 65.73 121.75 C 66.58 119.63 68.90 118.79 70.52 117.39 C 78.10 125.91 89.97 130.31 101.27 128.48 C 116.22 126.53 128.94 113.15 129.48 97.97 C 129.87 86.20 129.78 74.42 129.51 62.64 C 129.16 62.89 128.46 63.38 128.11 63.62 C 124.92 65.81 122.38 69.12 121.76 73.00 C 120.99 82.50 122.81 92.21 120.71 101.61 C 117.91 112.82 106.61 121.46 94.99 120.63 C 89.28 120.30 83.87 117.94 79.27 114.64 C 76.81 112.56 74.97 109.87 73.29 107.15 C 75.54 103.77 77.84 100.42 80.21 97.12 C 81.15 98.12 82.08 99.12 82.97 100.17 C 85.09 103.96 88.22 107.37 92.67 108.25 C 100.34 110.89 108.90 104.49 109.61 96.67 C 110.21 89.12 109.61 81.53 109.74 73.97 C 110.07 66.27 114.36 59.04 120.43 54.42 Z" />
</g>
<g id="#0000003e">
<path fill="#000000" opacity="0.24" d=" M 121.76 73.00 C 122.38 69.12 124.92 65.81 128.11 63.62 C 128.25 64.16 128.52 65.25 128.66 65.79 C 126.73 68.85 123.60 71.36 123.16 75.17 C 121.90 84.66 124.11 94.40 121.91 103.80 C 118.82 116.22 105.25 125.53 92.54 122.55 C 87.58 121.24 81.81 119.55 79.27 114.64 C 83.87 117.94 89.28 120.30 94.99 120.63 C 106.61 121.46 117.91 112.82 120.71 101.61 C 122.81 92.21 120.99 82.50 121.76 73.00 Z" />
</g>
<g id="#00000040">
<path fill="#000000" opacity="0.25" d=" M 178.25 64.83 C 180.02 70.73 179.22 76.94 179.35 83.00 C 179.13 94.28 179.73 105.76 176.89 116.80 C 171.72 138.30 156.81 156.81 137.89 167.94 C 115.71 181.06 86.99 183.54 63.45 172.55 C 59.76 170.76 55.58 169.22 53.24 165.62 C 59.32 169.18 65.77 172.17 72.56 174.08 C 96.94 181.25 124.29 175.65 144.58 160.57 C 159.78 149.38 171.24 132.98 175.84 114.61 C 177.64 107.55 178.30 100.26 178.34 92.99 C 178.39 83.60 178.57 74.21 178.25 64.83 Z" />
</g>
<g id="#a81bffff">
<path fill="#a81bff" opacity="1.00" d=" M 38.41 153.83 C 40.78 150.62 43.60 147.79 46.81 145.42 C 55.47 154.07 66.42 160.37 78.30 163.39 C 75.87 166.66 73.84 170.21 72.56 174.08 C 65.77 172.17 59.32 169.18 53.24 165.62 C 47.85 162.30 42.93 158.25 38.41 153.83 Z" />
</g>
</svg>
