<svg width="36" height="36" viewBox="0 0 36 36" fill="none" xmlns="http://www.w3.org/2000/svg">
<path d="M17.9 17.3C20.6 17.3 22.7 15.1 22.7 12.4C22.7 9.69998 20.5 7.59998 17.8 7.59998C15.1 7.59998 13 9.79998 13 12.4C13 15.1 15.2 17.3 17.9 17.3ZM17.8 9.59998C17.9 9.59998 17.9 9.59998 17.8 9.59998C19.4 9.59998 20.7 10.9 20.7 12.5C20.7 14.1 19.4 15.3 17.8 15.3C16.2 15.3 15 14 15 12.5C15 10.9 16.3 9.59998 17.8 9.59998V9.59998Z" fill="url(#paint0_linear)"/>
<path d="M32.7 16.7C30.8 15 28.3 14.1 25.7 14.2H24.9C24.7 15 24.4 15.7 24 16.3C24.6 16.2 25.1 16.2 25.7 16.2C27.6 16.1 29.5 16.7 31 17.8V25H33V17L32.7 16.7Z" fill="url(#paint1_linear)"/>
<path d="M23.4 7.80005C23.9 6.60005 25.3 6.00005 26.6 6.50005C27.8 7.00005 28.4 8.40005 27.9 9.70005C27.5 10.6 26.6 11.2 25.7 11.2C25.5 11.2 25.2 11.2 25 11.1C25.1 11.6 25.1 12.1 25.1 12.5V13.1C25.3 13.1 25.5 13.2 25.7 13.2C28.2 13.2 30.2 11.2 30.2 8.80005C30.2 6.30005 28.2 4.30005 25.8 4.30005C24.2 4.30005 22.8 5.10005 22 6.50005C22.5 6.80005 23 7.20005 23.4 7.80005V7.80005Z" fill="url(#paint2_linear)"/>
<path d="M12 16.4C11.6 15.8 11.3 15.1 11.1 14.3H10.3C7.7 14.2 5.2 15.1 3.3 16.7L3 17V25H5V17.8C6.6 16.7 8.4 16.1 10.3 16.2C10.9 16.2 11.5 16.3 12 16.4Z" fill="url(#paint3_linear)"/>
<path d="M10.2998 13.1C10.4998 13.1 10.6998 13.1 10.8998 13V12.4C10.8998 11.9 10.8998 11.4 10.9998 11C10.7998 11.1 10.4998 11.1 10.2998 11.1C8.99977 11.1 7.89977 10 7.89977 8.70004C7.89977 7.40004 8.99977 6.30004 10.2998 6.30004C11.2998 6.30004 12.1998 6.90004 12.5998 7.80004C12.9998 7.30004 13.5998 6.80004 14.0998 6.40004C12.7998 4.30004 10.0998 3.60004 7.99977 4.90004C5.89977 6.20004 5.19977 8.90004 6.49977 11C7.29977 12.3 8.69977 13.1 10.2998 13.1V13.1Z" fill="url(#paint4_linear)"/>
<path d="M26.1 22.7L25.9 22.4C23.9 20.2 21.1 18.9 18.1 19C15.1 18.9 12.2 20.2 10.2 22.4L10 22.7V30.3C10 31.2 10.7 32 11.7 32H24.5C25.4 32 26.2 31.2 26.2 30.3V22.7H26.1ZM24.1 30H12V23.4C13.6 21.8 15.8 21 18.1 21C20.3 20.9 22.5 21.8 24.1 23.4V30Z" fill="url(#paint5_linear)"/>
<defs>
<linearGradient id="paint0_linear" x1="13.6929" y1="12.45" x2="21.5646" y2="11.5801" gradientUnits="userSpaceOnUse">
<stop stop-color="#8D01A2"/>
<stop offset="1" stop-color="#FF00D2"/>
</linearGradient>
<linearGradient id="paint1_linear" x1="24" y1="25" x2="35.4184" y2="20.8556" gradientUnits="userSpaceOnUse">
<stop stop-color="#0357D1"/>
<stop offset="1" stop-color="#27CDFC"/>
</linearGradient>
<linearGradient id="paint2_linear" x1="22" y1="13.2" x2="32.139" y2="9.12848" gradientUnits="userSpaceOnUse">
<stop stop-color="#0357D1"/>
<stop offset="1" stop-color="#27CDFC"/>
</linearGradient>
<linearGradient id="paint3_linear" x1="3" y1="25" x2="14.3936" y2="20.826" gradientUnits="userSpaceOnUse">
<stop stop-color="#0357D1"/>
<stop offset="1" stop-color="#27CDFC"/>
</linearGradient>
<linearGradient id="paint4_linear" x1="5.84375" y1="13.1" x2="16.0184" y2="8.96582" gradientUnits="userSpaceOnUse">
<stop stop-color="#0357D1"/>
<stop offset="1" stop-color="#27CDFC"/>
</linearGradient>
<linearGradient id="paint5_linear" x1="11.1571" y1="25.4973" x2="24.2168" y2="23.6996" gradientUnits="userSpaceOnUse">
<stop stop-color="#8D01A2"/>
<stop offset="1" stop-color="#FF00D2"/>
</linearGradient>
</defs>
</svg>
