<svg width="64" height="64" viewBox="0 0 64 64" fill="none" xmlns="http://www.w3.org/2000/svg">
<path d="M42.3061 8.12862C45.5862 5.76486 49.49 4.0283 53.5991 4.00478C56.6543 3.93814 60.0963 4.54966 62.1843 6.97615C64.2803 9.41047 64.2882 12.9032 63.5698 15.8667C62.662 19.4378 61.241 22.86 59.7607 26.2312C56.2398 33.9497 51.8781 41.3585 46.2454 47.752C42.8666 51.5074 39.0654 54.9961 34.5695 57.3873C31.6525 58.7437 28.1079 59.8726 25.0172 58.4144C21.8673 56.8072 20.1187 53.5183 18.8595 50.3784C16.4991 44.1338 15.5478 37.4738 13.3768 31.1704C12.4571 28.6145 11.8532 25.9685 11.1427 23.3539C10.7558 22.319 11.1624 21.0607 12.1492 20.5237C13.3571 19.7357 15.1886 20.3982 15.5636 21.7937C16.3491 24.33 16.8662 26.9407 17.7701 29.4417C19.8976 35.5451 20.9121 41.9661 23.0357 48.0695C23.9514 50.351 24.9383 52.9578 27.2198 54.2082C29.0947 54.6865 31.017 53.8398 32.6867 53.044C37.9286 50.1236 42.0771 45.6509 45.7086 40.9704C50.8597 34.0359 54.9491 26.3292 57.9134 18.2344C58.7029 15.8824 59.7055 13.3501 59.0463 10.8491C58.5568 9.23798 56.6622 8.91263 55.2135 8.74015C49.9519 8.20311 44.931 11.2137 41.71 15.1611C44.2797 16.0588 46.4349 18.1207 47.177 20.7589C48.3651 24.867 47.1809 29.23 45.2349 32.9148C43.6323 35.9175 42.1166 39.1829 39.2943 41.2605C37.376 42.6991 34.6682 42.9892 32.5327 41.8642C29.892 40.4765 28.1513 37.8344 27.1803 35.0982C25.5895 30.6569 25.708 25.8745 24.8593 21.2841C24.3383 18.5049 24.0028 15.655 22.9252 13.0208C22.4239 12.0133 21.8476 10.9197 20.8371 10.3395C18.3701 10.1239 16.2307 11.6605 14.2965 12.9816C10.7874 15.557 7.46385 18.3951 4.39685 21.4841C3.61135 22.3269 2.24955 22.6169 1.24696 21.978C-0.225362 21.2332 -0.44246 18.9635 0.85618 17.9482C4.61 14.7495 8.43882 11.6213 12.3939 8.66959C14.9123 6.76446 18.0503 5.31406 21.2831 5.68254C23.5804 5.91382 25.3132 7.70918 26.4343 9.57903C28.4395 12.8993 28.8263 16.8428 29.5289 20.5707C30.3775 24.9376 30.2118 29.5005 31.7196 33.7341C32.3156 35.2864 33.2117 36.8975 34.7432 37.7011C35.7695 38.1989 36.776 37.3718 37.4273 36.6505C39.1009 34.6788 40.214 32.315 41.3785 30.0297C42.6337 27.3601 43.656 24.0948 42.2982 21.2724C41.2048 19.2575 38.5957 19.3045 36.6181 19.5789C35.7655 19.869 34.7708 19.1007 34.98 18.1991C36.176 14.1419 38.8996 10.6178 42.3061 8.12862Z" fill="url(#paint0_linear)"/>
<defs>
<linearGradient id="paint0_linear" x1="32" y1="59.0976" x2="32" y2="4" gradientUnits="userSpaceOnUse">
<stop stop-color="#00B59C"/>
<stop offset="1" stop-color="#9CFFAC"/>
</linearGradient>
</defs>
</svg>
