<svg width="192" height="192" viewBox="0 0 192 192" fill="none" xmlns="http://www.w3.org/2000/svg">
<path d="M32.8178 12.512C45.4086 11.5025 58.1053 12.3476 70.7431 12.0659C73.7555 11.7373 76.8385 13.9087 77.368 16.9135C78.2506 20.4113 75.4264 24.2377 71.8139 24.3551C59.5644 24.5899 47.2913 24.1204 35.0536 24.5899C37.4658 23.9091 39.9487 23.51 42.3845 22.9114C41.4078 17.923 35.2536 16.6905 32.8178 12.512Z" fill="url(#paint0_linear)"/>
<path d="M114.47 20.2822C112.846 16.5966 116.046 11.9955 120.059 12.0777C132.262 12.1246 144.476 11.9603 156.69 12.1598C168.61 12.9228 178.742 23.5335 179.024 35.4354C179.024 48.4406 179.047 61.434 179.012 74.4392C177.082 71.1644 173.599 69.5212 170.787 67.1854C169.41 65.636 168.539 63.7111 167.504 61.9387C167.092 52.7247 167.433 43.4638 166.516 34.2733C165.468 29.0149 160.797 24.719 155.396 24.4256C143.652 24.3551 131.92 24.449 120.188 24.3786C117.682 24.3669 115.176 22.7119 114.47 20.2822Z" fill="url(#paint1_linear)"/>
<path d="M13.0138 35.1771C13.4609 24.2847 22.0274 14.4017 32.8178 12.512C35.2536 16.6905 41.4078 17.923 42.3845 22.9114C39.9487 23.51 37.4658 23.9091 35.0536 24.5899C29.4877 25.7871 25.1221 31.0573 25.3692 36.7969C25.4751 76.3407 25.1692 115.908 25.5222 155.44C24.8515 150.393 25.0986 145.287 24.9927 140.216C25.1457 121.049 24.4514 101.893 24.5808 82.7259C24.7103 71.6926 24.4396 60.6593 24.4749 49.6378C25.2163 42.5131 18.0972 38.581 13.0138 35.1771Z" fill="url(#paint2_linear)"/>
<path d="M166.516 34.2733C167.433 43.4638 167.092 52.7248 167.504 61.9387C166.939 74.4627 167.363 87.0218 167.633 99.5575C167.28 108.361 167.751 117.164 167.551 125.955C167.586 128.831 167.327 131.777 168.022 134.594C170.599 139.336 175.823 141.777 179.024 146.038C179.377 153.585 179.118 161.802 174.105 167.964C172.14 170.347 169.881 172.53 167.198 174.114C165.386 170.44 163.232 166.872 160.42 163.891C164.197 161.649 166.81 157.459 166.668 153.01C166.563 113.431 166.869 73.8406 166.516 34.2733Z" fill="#3A7DFF"/>
<path d="M13.0138 35.1771C18.0972 38.581 25.2163 42.5131 24.475 49.6378C24.4397 60.6593 24.7103 71.6926 24.5809 82.7259C22.2157 76.8336 17.6971 72.2795 13.0138 68.23C13.002 57.2085 13.0138 46.1987 13.0138 35.1771Z" fill="url(#paint3_linear)"/>
<path d="M167.504 61.9387C168.539 63.7111 169.41 65.636 170.787 67.1854C173.599 69.5211 177.082 71.1644 179.012 74.4392C179.047 86.5406 179.036 98.642 179.012 110.755C174.788 107.433 171.728 102.985 167.633 99.5575C167.363 87.0218 166.939 74.4626 167.504 61.9387Z" fill="#2887FF"/>
<path d="M13.0138 68.23C17.6971 72.2795 22.2157 76.8337 24.5808 82.7259C24.4514 101.893 25.1457 121.049 24.9927 140.216C22.8981 137.81 19.2856 137.024 17.8148 134.054C16.3792 132.305 13.6139 131.812 13.0256 129.336C12.9903 108.971 13.0138 88.5947 13.0138 68.23Z" fill="url(#paint4_linear)"/>
<path d="M167.633 99.5575C171.728 102.985 174.788 107.433 179.012 110.755C179.036 122.516 179.036 134.277 179.024 146.038C175.823 141.777 170.599 139.336 168.022 134.594C167.327 131.777 167.586 128.831 167.551 125.955C167.751 117.164 167.28 108.361 167.633 99.5575Z" fill="#3182FF"/>
<path d="M13.0256 129.336C13.6139 131.812 16.3792 132.305 17.8148 134.054C19.2857 137.024 22.8982 137.81 24.9927 140.216C25.0986 145.287 24.8515 150.393 25.5222 155.44C26.5695 160.734 31.2881 165.053 36.7363 165.311C41.6314 165.382 46.5382 165.276 51.4334 165.346C57.1169 167.577 59.4114 173.844 63.8947 177.6C54.787 177.589 45.6793 177.612 36.5598 177.589C29.3112 177.436 22.3922 173.68 17.9678 167.999C14.6965 163.703 12.9314 158.327 13.002 152.94C13.0256 145.064 12.9903 137.2 13.0256 129.336Z" fill="#5F69FF"/>
<path d="M154.372 165.335C156.49 165.429 158.49 164.689 160.42 163.891C163.232 166.872 165.386 170.44 167.198 174.114C163.327 176.438 158.808 177.706 154.278 177.6C147.217 177.589 140.145 177.6 133.073 177.6C130.873 176.028 129.673 173.645 128.473 171.321C127.39 170.969 126.249 170.898 125.154 170.675C124.342 168.973 123.977 167.119 123.436 165.346C133.744 165.311 144.052 165.335 154.372 165.335Z" fill="#4577FF"/>
<path d="M51.4333 165.346C63.9653 165.311 76.4973 165.323 89.0292 165.346C89.547 171.344 94.9951 174.232 99.1724 177.589C87.4171 177.612 75.6618 177.6 63.8947 177.6C59.4114 173.844 57.1169 167.577 51.4333 165.346Z" fill="#576DFF"/>
<path d="M89.0292 165.346C100.502 165.323 111.963 165.323 123.436 165.346C123.977 167.119 124.342 168.973 125.154 170.675C126.249 170.898 127.39 170.969 128.473 171.321C129.673 173.645 130.873 176.028 133.073 177.6C121.777 177.589 110.469 177.624 99.1724 177.589C94.9951 174.232 89.547 171.344 89.0292 165.346Z" fill="#4E72FF"/>
<path opacity="0.13" d="M17.9678 167.999C22.3922 173.68 29.3112 177.436 36.5598 177.589C45.6793 177.612 54.787 177.589 63.8947 177.6C75.6618 177.6 87.4171 177.612 99.1725 177.589C110.469 177.624 121.777 177.589 133.073 177.6C140.145 177.6 147.217 177.589 154.278 177.6C158.808 177.706 163.327 176.438 167.198 174.114C169.881 172.53 172.14 170.347 174.105 167.964C174.953 171.133 172.446 173.281 170.022 174.713C165.374 177.835 159.997 180.23 154.301 180.3C115.47 180.206 76.6267 180.276 37.7953 180.265C30.9704 179.983 24.4161 177.013 19.2974 172.588C17.7913 171.497 17.4147 169.724 17.9678 167.999Z" fill="#010103"/>
<path d="M64.4 62.7246C64.9646 60.2724 67.4616 58.5675 69.8074 59.0966C71.8431 59.4493 73.3381 61.3305 73.696 63.4133C77.7515 79.4622 81.9343 95.4859 85.8944 111.56C87.3735 108.327 88.1369 104.707 90.0295 101.717C92.9717 97.9886 99.3413 101.432 98.1008 106.143C95.5561 113.567 92.5264 120.815 89.8307 128.18C89.2581 129.927 88.1528 131.724 86.3079 132.094C83.8825 132.875 81.0914 131.229 80.5109 128.608C76.9881 115.029 73.6005 101.407 70.0937 87.8184C69.5689 85.9624 69.0997 84.0896 68.8929 82.1664C64.2807 97.7283 60.1059 113.433 55.5971 129.028C54.8019 131.976 51.1758 133.454 48.7266 131.775C46.8578 130.683 46.4205 128.323 45.8241 126.349C39.9873 106.462 34.0391 86.6175 28.2341 66.7222C27.4867 64.463 28.592 61.7504 30.6516 60.7594C34.1187 58.8195 37.538 62.2711 37.88 65.8655C42.2218 80.6967 46.6749 95.4859 50.9929 110.326C55.4778 94.4614 59.8992 78.5804 64.4 62.7246Z" fill="url(#paint5_linear)"/>
<path d="M105.767 61.8932C107.325 58.0468 113.257 58.45 114.355 62.4727C118.418 78.0429 122.315 93.6635 126.299 109.259C130.768 93.8903 135.038 78.4544 139.61 63.1277C141.09 59.0966 147.3 59.4661 148.326 63.6736C154.481 84.0728 160.54 104.506 166.639 124.922C167.856 127.819 165.844 131.523 162.846 131.791C160.644 132.144 158.377 130.574 157.765 128.314C153.129 112.921 148.556 97.5015 143.936 82.0992C139.531 97.7199 135.03 113.298 130.537 128.886C129.575 133.261 123.11 133.622 121.718 129.389C117.337 112.946 113.329 96.3845 109.019 79.9241C107.866 83.0734 106.713 86.2311 105.464 89.3469C104.558 91.8327 101.56 93.1009 99.2856 91.9503C96.8921 90.9509 95.7152 87.7176 96.8523 85.2738C99.8184 77.4802 102.713 69.6447 105.767 61.8932Z" fill="url(#paint6_linear)"/>
<defs>
<linearGradient id="paint0_linear" x1="55.1744" y1="24.5899" x2="55.1744" y2="12" gradientUnits="userSpaceOnUse">
<stop stop-color="#5558FF"/>
<stop offset="1" stop-color="#00C0FF"/>
</linearGradient>
<linearGradient id="paint1_linear" x1="146.535" y1="74.4392" x2="146.535" y2="12.0582" gradientUnits="userSpaceOnUse">
<stop stop-color="#5558FF"/>
<stop offset="1" stop-color="#00C0FF"/>
</linearGradient>
<linearGradient id="paint2_linear" x1="27.6991" y1="155.44" x2="27.6991" y2="12.512" gradientUnits="userSpaceOnUse">
<stop stop-color="#5558FF"/>
<stop offset="1" stop-color="#00C0FF"/>
</linearGradient>
<linearGradient id="paint3_linear" x1="18.8124" y1="82.7259" x2="18.8124" y2="35.1771" gradientUnits="userSpaceOnUse">
<stop stop-color="#5558FF"/>
<stop offset="1" stop-color="#00C0FF"/>
</linearGradient>
<linearGradient id="paint4_linear" x1="19.0105" y1="140.216" x2="19.0105" y2="68.23" gradientUnits="userSpaceOnUse">
<stop stop-color="#5558FF"/>
<stop offset="1" stop-color="#00C0FF"/>
</linearGradient>
<linearGradient id="paint5_linear" x1="63.1295" y1="132.48" x2="63.1295" y2="59" gradientUnits="userSpaceOnUse">
<stop stop-color="#5570FF"/>
<stop offset="1" stop-color="#4DD3FF"/>
</linearGradient>
<linearGradient id="paint6_linear" x1="131.708" y1="132.374" x2="131.708" y2="59.2206" gradientUnits="userSpaceOnUse">
<stop stop-color="#5570FF"/>
<stop offset="1" stop-color="#4DD3FF"/>
</linearGradient>
</defs>
</svg>
