<svg width="192" height="192" viewBox="0 0 192 192" fill="none" xmlns="http://www.w3.org/2000/svg">
<path d="M50.2792 51.9787C51.0591 48.7007 54.5081 46.4219 57.7484 47.1291C60.5603 47.6006 62.6253 50.1152 63.1196 52.8992C68.7215 74.3516 74.4992 95.7704 79.9692 117.257C82.0123 112.935 83.0668 108.096 85.681 104.1C89.7451 99.1157 98.5434 103.718 96.8299 110.016C93.3149 119.94 89.13 129.627 85.4064 139.472C84.6155 141.807 83.0887 144.21 80.5404 144.704C77.1903 145.748 73.3348 143.547 72.533 140.045C67.667 121.893 62.9878 103.685 58.1438 85.5213C57.4189 83.0404 56.7708 80.537 56.4852 77.9663C50.1144 98.7677 44.3478 119.76 38.1198 140.606C37.0214 144.546 32.0126 146.522 28.6295 144.277C26.0482 142.818 25.4441 139.663 24.6203 137.025C16.5579 110.443 8.34183 83.916 0.323429 57.3221C-0.709078 54.3024 0.817714 50.6765 3.6626 49.3518C8.45167 46.7587 13.1748 51.3725 13.6472 56.1771C19.6445 76.0018 25.7956 95.7704 31.76 115.606C37.955 94.4009 44.0622 73.1729 50.2792 51.9787Z" fill="url(#paint0_linear)"/>
<path d="M107.419 50.8673C109.571 45.7259 117.766 46.2648 119.281 51.6419C124.894 72.4545 130.276 93.3344 135.78 114.181C141.953 93.6375 147.851 73.0045 154.167 52.5175C156.21 47.1291 164.789 47.6231 166.206 53.2472C174.707 80.5146 183.077 107.827 191.502 135.117C193.183 138.99 190.404 143.94 186.263 144.299C183.22 144.771 180.089 142.672 179.244 139.652C172.84 119.075 166.524 98.4646 160.142 77.8765C154.057 98.7565 147.84 119.58 141.634 140.415C140.305 146.264 131.375 146.747 129.453 141.089C123.4 119.109 117.864 96.9716 111.911 74.9691C110.318 79.1787 108.726 83.3996 107.001 87.5644C105.749 90.8872 101.608 92.5823 98.4665 91.0444C95.1603 89.7085 93.5346 85.3866 95.1054 82.1199C99.2024 71.7024 103.201 61.2287 107.419 50.8673Z" fill="url(#paint1_linear)"/>
<defs>
<linearGradient id="paint0_linear" x1="48.5242" y1="145.22" x2="48.5242" y2="47" gradientUnits="userSpaceOnUse">
<stop stop-color="#FD2E00"/>
<stop offset="1" stop-color="#FF9900"/>
</linearGradient>
<linearGradient id="paint1_linear" x1="143.251" y1="145.078" x2="143.251" y2="47.2948" gradientUnits="userSpaceOnUse">
<stop stop-color="#5570FF"/>
<stop offset="1" stop-color="#4DD3FF"/>
</linearGradient>
</defs>
</svg>
