<svg width="64" height="64" viewBox="0 0 64 64" fill="none" xmlns="http://www.w3.org/2000/svg">
<path d="M27.313 0.338501C33.7591 -0.60452 40.4882 0.428703 46.311 3.36437C52.835 6.61574 58.174 12.1591 61.1674 18.8053C64.3167 25.714 64.8538 33.7543 62.7092 41.0319C60.9788 46.973 57.4564 52.3728 52.7366 56.3745C47.7626 60.6304 41.4436 63.3036 34.9155 63.8612C28.3341 64.4844 21.5681 62.9961 15.8683 59.6463C9.87322 56.1572 5.06734 50.6712 2.42246 44.2546C-1.29676 35.3697 -0.722682 24.7669 4.0709 16.3986C4.85821 15.0004 7.07663 14.9553 7.96645 16.2715C8.68816 17.1776 8.45032 18.4199 7.88444 19.3342C4.63268 25.4188 3.87817 32.7661 5.77674 39.396C7.47848 45.4641 11.374 50.8762 16.5736 54.4392C21.8592 58.1047 28.4817 59.7939 34.8786 59.0846C40.2503 58.5229 45.4294 56.3048 49.5464 52.8115C54.3441 48.7811 57.6901 43.0533 58.7891 36.8826C60.0152 30.3717 58.703 23.4343 55.2257 17.8008C51.7648 12.114 46.147 7.78427 39.7583 5.89413C33.2219 3.91788 25.9721 4.5616 19.8663 7.59566C18.7961 8.21068 17.2871 7.85807 16.6761 6.77155C15.8888 5.61942 16.4342 3.89738 17.7053 3.36027C20.7152 1.84733 23.9792 0.834612 27.313 0.338501Z" fill="url(#paint0_linear)"/>
<path d="M18.5377 18.584C20.137 17.8829 22.1832 18.4979 22.9869 20.0846C25.3037 24.115 27.3294 28.4037 30.5114 31.8478C31.5858 33.1188 33.1768 33.8568 34.854 33.742C38.3025 33.9716 40.7916 30.6301 41.2796 27.5345C41.5994 26.0011 40.7588 24.6644 40.0699 23.3811C39.4384 21.0235 41.419 18.2888 43.908 18.3339C45.6672 18.3708 47.6396 19.4532 47.9676 21.3147C48.2752 23.0408 47.5617 24.7464 46.7046 26.2102C43.2437 31.9913 40.2052 38.0676 36.0267 43.3814C34.9811 44.5663 33.7837 46.2596 31.963 45.8209C30.5073 45.7799 29.3428 44.7508 28.5842 43.5946C24.5656 37.8134 21.0309 31.7207 17.3773 25.71C16.4997 24.279 15.8888 22.5857 16.102 20.8841C16.2455 19.6336 17.4839 18.9858 18.5377 18.584Z" fill="url(#paint1_linear)"/>
<defs>
<linearGradient id="paint0_linear" x1="32" y1="64" x2="32" y2="0" gradientUnits="userSpaceOnUse">
<stop stop-color="#FF2424"/>
<stop offset="1" stop-color="#FF8D8D"/>
</linearGradient>
<linearGradient id="paint1_linear" x1="32.0499" y1="45.8918" x2="32.0499" y2="18.297" gradientUnits="userSpaceOnUse">
<stop stop-color="#FF2424"/>
<stop offset="1" stop-color="#FF8D8D"/>
</linearGradient>
</defs>
</svg>
