<svg width="64" height="64" viewBox="0 0 64 64" fill="none" xmlns="http://www.w3.org/2000/svg">
<path d="M7.43685 0.369686C8.44018 0.0935277 9.48006 -0.00393993 10.5199 0.000121224C24.9971 0.00824353 39.4743 -0.00800089 53.9514 0.00824371C59.2199 -0.0567347 63.9887 4.59735 63.9603 9.88091C63.9806 24.3589 63.9603 38.8329 63.9725 53.3109C64.4112 58.8665 59.5367 64.0445 53.9758 63.9917C39.2305 63.9958 24.4812 64.012 9.73191 63.9836C4.5731 63.882 0.0276682 59.3173 0.00735792 54.1475C-0.00482824 39.3811 -0.000766093 24.6148 0.0114201 9.84842C0.0398544 5.50298 3.24481 1.46214 7.43685 0.369686ZM9.49631 4.84101C7.34343 5.07656 5.40989 6.76194 4.959 8.88998C4.74777 10.287 4.78433 11.7084 4.78027 13.1176C4.83308 25.9671 4.77621 38.8126 4.80058 51.662C4.78027 53.1362 4.64622 54.6957 5.28396 56.0684C6.11262 57.9203 8.07459 59.1955 10.1056 59.1752C24.3187 59.2036 38.5319 59.1711 52.745 59.1874C55.9662 59.6909 59.3417 57.1202 59.1752 53.7495C59.1833 39.2471 59.1874 24.7447 59.1752 10.2423C59.3174 7.24928 56.5511 4.61359 53.5858 4.79634C38.8893 4.82477 24.1888 4.73949 9.49631 4.84101Z" fill="url(#paint0_linear)"/>
<path d="M11.8198 18.0925C15.0288 17.8286 18.2784 18.06 21.4997 17.9748C22.2471 17.8976 23.1448 18.1128 23.3926 18.921C25.9476 24.497 28.3808 30.1298 30.9439 35.6976C31.3623 36.7251 33.044 36.6764 33.3974 35.6164C35.9565 30.0201 38.41 24.3711 40.9691 18.7707C41.5784 17.5443 43.1585 18.1007 44.239 17.9748C45.2302 18.0803 46.5788 17.6255 47.2449 18.6124C47.708 19.2784 47.3221 20.0703 47.0296 20.7079C42.7361 29.8536 38.4912 39.0237 34.2098 48.1775C33.7671 49.9035 30.7896 49.9604 30.1721 48.3522C26.3416 40.1405 22.503 31.9289 18.6806 23.7091C18.4491 23.2786 18.2988 22.7344 17.7991 22.5273C15.8412 21.4511 13.7655 20.6064 11.8239 19.4936C11.2673 19.25 11.3567 18.3849 11.8198 18.0925Z" fill="url(#paint1_linear)"/>
<defs>
<linearGradient id="paint0_linear" x1="32" y1="64" x2="32" y2="0" gradientUnits="userSpaceOnUse">
<stop stop-color="#00B59C"/>
<stop offset="1" stop-color="#9CFFAC"/>
</linearGradient>
<linearGradient id="paint1_linear" x1="29.4494" y1="49.5167" x2="29.4494" y2="17.9547" gradientUnits="userSpaceOnUse">
<stop stop-color="#00B59C"/>
<stop offset="1" stop-color="#9CFFAC"/>
</linearGradient>
</defs>
</svg>
