<svg width="64" height="64" viewBox="0 0 64 64" fill="none" xmlns="http://www.w3.org/2000/svg">
<g clip-path="url(#clip0)">
<path d="M13.1992 12.7533C17.2898 9.5474 22.9453 8.2758 28.1054 9.40413C32.2785 10.2745 36.0688 12.653 38.5832 15.9484C39.9868 15.583 41.4279 15.3466 42.8877 15.3072C42.1184 17.0301 40.5422 18.2982 39.8967 20.0784L39.8329 20.2432C38.966 20.4868 38.0841 20.9524 37.1609 20.7447C36.234 20.587 35.8137 19.7202 35.322 19.0611C33.1829 15.8696 29.4676 13.6989 25.5047 13.3765C20.0256 12.8142 14.4414 15.9806 12.2798 20.8091C11.3191 22.7506 11.0864 24.9177 11.1089 27.0418C11.1051 28.1808 9.91926 28.7253 9.01108 29.173C6.19647 30.5951 4.42139 33.6362 4.54898 36.6629C4.54898 40.1124 7.08964 43.372 10.5272 44.4108C11.6118 44.7904 12.7789 44.7725 13.9085 44.9588C15.4697 45.2919 16.0889 47.3766 14.9593 48.462C14.3326 49.2357 13.2292 49.1784 12.3173 49.121C7.35609 48.8524 2.7739 45.6143 0.968803 41.2085C-1.54558 35.5561 1.01008 28.4746 6.60177 25.4514C6.75564 20.5727 9.18746 15.8015 13.1992 12.7533Z" fill="url(#paint0_linear)"/>
<path d="M42.8877 15.3072C49.1324 15.2141 55.0543 19.3979 56.7844 25.1218C59.3063 26.4293 61.4679 28.4244 62.6951 30.9246C64.5752 34.6284 64.4213 39.1954 62.2485 42.7559C60.0906 46.4704 55.8387 48.9706 51.3916 49.1426C50.4196 49.2751 49.335 48.9886 48.8209 48.1396C47.879 46.8501 48.971 44.8299 50.6373 44.8693C53.6283 44.855 56.5817 43.3756 58.1391 40.9184C59.8429 38.4289 59.9292 35.0618 58.4356 32.4649C57.5162 30.767 55.9212 29.4954 54.1161 28.7217C52.4011 28.0985 52.645 26.0782 51.8082 24.8066C49.7328 20.7196 44.4001 18.6564 39.8967 20.0784C40.5422 18.2982 42.1184 17.0301 42.8877 15.3072Z" fill="url(#paint1_linear)"/>
<path d="M27.0512 38.5005C28.4022 37.7698 30.3049 38.7978 30.3236 40.2772C30.4324 41.0401 29.9596 41.6849 29.513 42.2652C26.3231 46.4059 23.1671 50.5753 19.9997 54.7376C19.3505 55.7477 17.8005 56.1166 16.7872 55.3788C15.6877 54.7197 15.5114 53.1579 16.3182 52.2195C19.5156 48.0035 22.7393 43.809 25.9292 39.5858C26.2557 39.1847 26.5821 38.762 27.0512 38.5005Z" fill="url(#paint2_linear)"/>
<path d="M36.065 38.4826C37.1758 37.931 38.6357 38.4969 39.0935 39.593C39.5251 40.4169 39.1798 41.3661 38.6019 42.0359C35.3219 46.3056 32.087 50.6076 28.8033 54.8737C28.1278 55.78 26.7055 56.0594 25.7485 55.3895C24.6564 54.734 24.4088 53.1759 25.2344 52.2338C28.4505 47.9999 31.6855 43.7768 34.8979 39.5393C35.2244 39.1345 35.5584 38.6939 36.065 38.4826Z" fill="url(#paint3_linear)"/>
<path d="M44.7488 38.5758C46.0999 37.7377 48.1151 38.7012 48.1827 40.2415C48.3328 41.0904 47.7136 41.7674 47.2445 42.4121C44.0696 46.5421 40.936 50.7008 37.7649 54.8308C37.2282 55.5759 36.1849 55.9986 35.2692 55.6654C33.8582 55.3108 33.1527 53.5163 34.0458 52.3879C37.1344 48.2794 40.2868 44.2139 43.3791 40.1053C43.7994 39.5716 44.1784 38.9806 44.7488 38.5758Z" fill="url(#paint4_linear)"/>
</g>
<defs>
<linearGradient id="paint0_linear" x1="32" y1="49.1735" x2="32" y2="9" gradientUnits="userSpaceOnUse">
<stop stop-color="#5570FF"/>
<stop offset="1" stop-color="#4DD3FF"/>
</linearGradient>
<linearGradient id="paint1_linear" x1="32" y1="49.1735" x2="32" y2="9" gradientUnits="userSpaceOnUse">
<stop stop-color="#5570FF"/>
<stop offset="1" stop-color="#4DD3FF"/>
</linearGradient>
<linearGradient id="paint2_linear" x1="23.0784" y1="38.2595" x2="23.0784" y2="55.7671" gradientUnits="userSpaceOnUse">
<stop stop-color="#FC1878"/>
<stop offset="1" stop-color="#FF1E1E"/>
</linearGradient>
<linearGradient id="paint3_linear" x1="32.0156" y1="55.7596" x2="32.0156" y2="38.2686" gradientUnits="userSpaceOnUse">
<stop stop-color="#FD5900"/>
<stop offset="1" stop-color="#FFDE00"/>
</linearGradient>
<linearGradient id="paint4_linear" x1="40.9275" y1="38.2657" x2="40.9275" y2="55.7807" gradientUnits="userSpaceOnUse">
<stop stop-color="#97EB0E"/>
<stop offset="1" stop-color="#19B90B"/>
</linearGradient>
<clipPath id="clip0">
<rect width="64" height="64" fill="white"/>
</clipPath>
</defs>
</svg>
