<svg width="192" height="192" viewBox="0 0 192 192" fill="none" xmlns="http://www.w3.org/2000/svg">
<path d="M77.1593 8.02847C86.8713 5.87473 96.9673 5.4709 106.835 6.65131C105.88 10.6274 102.737 13.3817 100.672 16.7573C101.201 17.3682 101.75 17.9481 102.342 18.5072C90.503 17.5443 78.4979 19.3252 67.4473 23.6327C69.5641 17.7617 74.8558 13.7753 77.1593 8.02847Z" fill="url(#paint0_linear)"/>
<path d="M106.835 6.65131C114.856 7.56251 122.7 9.68519 130.181 12.6776L130.109 12.7605C127.09 15.7012 124.65 19.1803 122.752 22.939C116.184 20.5678 109.294 19.0871 102.342 18.5072C101.75 17.9481 101.201 17.3682 100.672 16.7573C102.737 13.3817 105.88 10.6274 106.835 6.65131Z" fill="url(#paint1_linear)"/>
<path d="M60.9721 63.249C63.5869 60.9296 65.6622 57.6058 69.273 56.7568C74.6063 55.2243 80.4791 58.9933 81.9837 64.1603C82.8657 69.5032 86.2794 74.8358 84.3183 80.3029C83.3637 83.2332 80.6244 84.9418 78.6945 87.1783C78.985 88.5761 79.4623 89.9326 80.0227 91.2477C80.8009 93.1632 81.7347 95.0063 82.6997 96.839C79.2548 101.467 75.2185 105.723 72.7179 110.963C63.5558 99.5726 58.3159 85.1074 58.0668 70.4971C57.7452 67.7947 58.8347 64.9575 60.9721 63.249Z" fill="url(#paint2_linear)"/>
<path d="M72.7179 110.963C75.2185 105.723 79.2548 101.467 82.6997 96.839C86.4661 103.279 92.0487 108.601 98.6063 112.164C95.784 116.844 92.2147 121.027 89.4235 125.738C84.2147 122.529 79.5455 118.491 75.3639 114.038C74.4508 113.033 73.548 112.029 72.7179 110.963Z" fill="url(#paint3_linear)"/>
<path d="M113.807 109.772C118.311 107.856 122.898 110.455 127.307 111.366C131.603 112.05 135.816 114.742 137.205 119.018C138.42 122.612 137.527 126.949 134.57 129.435C131.727 131.93 129.475 135.793 125.284 135.979C112.687 136 100.09 132.458 89.4235 125.738C92.2147 121.027 95.784 116.844 98.6063 112.164C101.273 113.468 104.002 114.649 106.876 115.415C109.159 113.51 110.861 110.745 113.807 109.772Z" fill="url(#paint4_linear)"/>
<path d="M28.6407 36.2755C41.2581 22.0485 58.4927 11.8596 77.1593 8.02847C74.8558 13.7753 69.5641 17.7617 67.4473 23.6327C51.0635 30.1561 36.9935 42.3226 28.3295 57.668C22.3943 68.0949 19.0221 79.9405 18.3995 91.9103C13.6888 95.6483 11.8315 101.851 7.1623 105.516C6.66425 100.608 7.63959 95.5758 6.18693 90.7713C7.16229 70.7561 15.2971 51.2274 28.6407 36.2755Z" fill="url(#paint5_linear)"/>
<path d="M122.752 22.939C124.65 19.1803 127.09 15.7012 130.109 12.7605C136.842 15.318 143.141 18.9939 148.982 23.1874C145.943 25.9728 143.618 29.3898 141.305 32.755C135.598 28.6754 129.34 25.3723 122.752 22.939Z" fill="url(#paint6_linear)"/>
<path d="M10.1195 185.277C4.21551 183.631 5.07672 173.969 11.209 173.369C20.9417 173.307 30.6745 173.41 40.4177 173.389C37.6264 177.553 34.4099 181.405 31.7018 185.618C24.5111 185.432 17.2582 186.043 10.1195 185.277Z" fill="url(#paint7_linear)"/>
<path d="M141.305 32.755C143.618 29.3898 145.943 25.9728 148.982 23.1874C160.272 31.4089 169.683 42.2398 176.023 54.6755C173.367 58.6516 170.149 62.2757 168.023 66.6038C163.696 56.0941 157.056 46.5887 148.702 38.8642C146.42 36.6276 143.888 34.6498 141.305 32.755Z" fill="url(#paint8_linear)"/>
<path d="M168.023 66.6038C170.149 62.2757 173.367 58.6516 176.023 54.6755C178.16 58.7034 179.945 62.928 181.377 67.2562C183.11 72.7441 184.49 78.3562 185.216 84.0615C181.055 88.6901 177.952 94.1469 173.678 98.6821C174.02 87.7478 172.132 76.7514 168.023 66.6038Z" fill="url(#paint9_linear)"/>
<path d="M173.678 98.6821C177.952 94.1469 181.055 88.6901 185.216 84.0615C188.214 106.23 182.539 129.445 169.486 147.659C157.221 165.076 138.523 177.811 117.813 182.947C120.106 176.724 125.543 172.323 128.334 166.317C154.607 154.659 172.899 127.375 173.678 98.6821Z" fill="url(#paint10_linear)"/>
<path d="M6.18693 90.7713C7.63959 95.5758 6.66425 100.608 7.1623 105.516C11.8315 101.851 13.6888 95.6483 18.3995 91.9103C18.109 109.264 18.4929 126.64 18.2025 143.983C17.5487 148.332 11.9976 150.434 8.52157 147.835C6.63313 146.613 5.86531 144.148 6.02095 141.984C6.13508 124.91 5.81339 107.835 6.18693 90.7713Z" fill="url(#paint11_linear)"/>
<path d="M96.3447 173.359C107.333 173.203 118.342 170.967 128.334 166.317C125.543 172.323 120.106 176.724 117.813 182.947C108.288 185.422 98.3784 185.805 88.5833 185.608C90.4199 181.073 94.2176 177.749 96.3447 173.359Z" fill="url(#paint12_linear)"/>
<path d="M40.4177 173.389C49.4449 173.369 58.4824 173.359 67.52 173.389C66.0673 178.132 62.1036 181.394 59.6964 185.618C50.3683 185.629 41.0298 185.618 31.7018 185.618C34.4099 181.405 37.6264 177.553 40.4177 173.389Z" fill="url(#paint13_linear)"/>
<path d="M67.52 173.389C77.1282 173.348 86.7364 173.41 96.3447 173.359C94.2176 177.749 90.4199 181.073 88.5833 185.608C78.9543 185.629 69.3254 185.618 59.6964 185.618C62.1036 181.394 66.0673 178.132 67.52 173.389Z" fill="url(#paint14_linear)"/>
<path d="M77.1593 8.02847C86.8713 5.87473 96.9673 5.4709 106.835 6.65131M77.1593 8.02847C74.8558 13.7753 69.5641 17.7617 67.4473 23.6327M77.1593 8.02847C58.4927 11.8596 41.2581 22.0485 28.6407 36.2755C15.2971 51.2274 7.16229 70.7561 6.18693 90.7713M106.835 6.65131C105.88 10.6274 102.737 13.3817 100.672 16.7573C101.201 17.3682 101.75 17.9481 102.342 18.5072M106.835 6.65131C114.856 7.56251 122.7 9.68519 130.181 12.6776L130.109 12.7605M102.342 18.5072C90.503 17.5443 78.4979 19.3252 67.4473 23.6327M102.342 18.5072C109.294 19.0871 116.184 20.5678 122.752 22.939M67.4473 23.6327C51.0635 30.1561 36.9935 42.3226 28.3295 57.668C22.3943 68.0949 19.0221 79.9405 18.3995 91.9103M130.109 12.7605C127.09 15.7012 124.65 19.1803 122.752 22.939M130.109 12.7605C136.842 15.318 143.141 18.9939 148.982 23.1874M122.752 22.939C129.34 25.3723 135.598 28.6754 141.305 32.755M82.6997 96.839C81.7347 95.0063 80.8009 93.1632 80.0227 91.2477C79.4623 89.9326 78.985 88.5761 78.6945 87.1783C80.6244 84.9418 83.3637 83.2332 84.3183 80.3029C86.2794 74.8358 82.8657 69.5032 81.9837 64.1603C80.4791 58.9933 74.6063 55.2243 69.273 56.7568C65.6622 57.6058 63.5869 60.9296 60.9721 63.249C58.8347 64.9575 57.7452 67.7947 58.0668 70.4971C58.3159 85.1074 63.5558 99.5726 72.7179 110.963M82.6997 96.839C79.2548 101.467 75.2185 105.723 72.7179 110.963M82.6997 96.839C86.4661 103.279 92.0487 108.601 98.6063 112.164M72.7179 110.963C73.548 112.029 74.4508 113.033 75.3639 114.038C79.5455 118.491 84.2147 122.529 89.4235 125.738M98.6063 112.164C95.784 116.844 92.2147 121.027 89.4235 125.738M98.6063 112.164C101.273 113.468 104.002 114.649 106.876 115.415C109.159 113.51 110.861 110.745 113.807 109.772C118.311 107.856 122.898 110.455 127.307 111.366C131.603 112.05 135.816 114.742 137.205 119.018C138.42 122.612 137.527 126.949 134.57 129.435C131.727 131.93 129.475 135.793 125.284 135.979C112.687 136 100.09 132.458 89.4235 125.738M18.3995 91.9103C13.6888 95.6483 11.8315 101.851 7.1623 105.516C6.66425 100.608 7.63959 95.5758 6.18693 90.7713M18.3995 91.9103C18.109 109.264 18.4929 126.64 18.2025 143.983C17.5487 148.332 11.9976 150.434 8.52157 147.835C6.63313 146.613 5.86531 144.148 6.02095 141.984C6.13508 124.91 5.81339 107.835 6.18693 90.7713M148.982 23.1874C145.943 25.9728 143.618 29.3898 141.305 32.755M148.982 23.1874C160.272 31.4089 169.683 42.2398 176.023 54.6755M141.305 32.755C143.888 34.6498 146.42 36.6276 148.702 38.8642C157.056 46.5887 163.696 56.0941 168.023 66.6038M40.4177 173.389C30.6745 173.41 20.9417 173.307 11.209 173.369C5.07672 173.969 4.21551 183.631 10.1195 185.277C17.2582 186.043 24.5111 185.432 31.7018 185.618M40.4177 173.389C37.6264 177.553 34.4099 181.405 31.7018 185.618M40.4177 173.389C49.4449 173.369 58.4824 173.359 67.52 173.389M31.7018 185.618C41.0298 185.618 50.3683 185.629 59.6964 185.618M176.023 54.6755C173.367 58.6516 170.149 62.2757 168.023 66.6038M176.023 54.6755C178.16 58.7034 179.945 62.928 181.377 67.2562C183.11 72.7441 184.49 78.3562 185.216 84.0615M168.023 66.6038C172.132 76.7514 174.02 87.7478 173.678 98.6821M185.216 84.0615C181.055 88.6901 177.952 94.1469 173.678 98.6821M185.216 84.0615C188.214 106.23 182.539 129.445 169.486 147.659C157.221 165.076 138.523 177.811 117.813 182.947M173.678 98.6821C172.899 127.375 154.607 154.659 128.334 166.317M117.813 182.947C120.106 176.724 125.543 172.323 128.334 166.317M117.813 182.947C108.288 185.422 98.3784 185.805 88.5833 185.608M128.334 166.317C118.342 170.967 107.333 173.203 96.3447 173.359M96.3447 173.359C94.2176 177.749 90.4199 181.073 88.5833 185.608M96.3447 173.359C86.7364 173.41 77.1282 173.348 67.52 173.389M88.5833 185.608C78.9543 185.629 69.3254 185.618 59.6964 185.618M67.52 173.389C66.0673 178.132 62.1036 181.394 59.6964 185.618" stroke="url(#paint15_linear)" stroke-width="6"/>
<defs>
<linearGradient id="paint0_linear" x1="96" y1="185.674" x2="96" y2="5.99974" gradientUnits="userSpaceOnUse">
<stop stop-color="#02AA93"/>
<stop offset="1" stop-color="#67FF80"/>
</linearGradient>
<linearGradient id="paint1_linear" x1="96" y1="185.674" x2="96" y2="5.99974" gradientUnits="userSpaceOnUse">
<stop stop-color="#02AA93"/>
<stop offset="1" stop-color="#67FF80"/>
</linearGradient>
<linearGradient id="paint2_linear" x1="96" y1="185.674" x2="96" y2="5.99974" gradientUnits="userSpaceOnUse">
<stop stop-color="#02AA93"/>
<stop offset="1" stop-color="#67FF80"/>
</linearGradient>
<linearGradient id="paint3_linear" x1="96" y1="185.674" x2="96" y2="5.99974" gradientUnits="userSpaceOnUse">
<stop stop-color="#02AA93"/>
<stop offset="1" stop-color="#67FF80"/>
</linearGradient>
<linearGradient id="paint4_linear" x1="96" y1="185.674" x2="96" y2="5.99974" gradientUnits="userSpaceOnUse">
<stop stop-color="#02AA93"/>
<stop offset="1" stop-color="#67FF80"/>
</linearGradient>
<linearGradient id="paint5_linear" x1="96" y1="185.674" x2="96" y2="5.99974" gradientUnits="userSpaceOnUse">
<stop stop-color="#02AA93"/>
<stop offset="1" stop-color="#67FF80"/>
</linearGradient>
<linearGradient id="paint6_linear" x1="96" y1="185.674" x2="96" y2="5.99974" gradientUnits="userSpaceOnUse">
<stop stop-color="#02AA93"/>
<stop offset="1" stop-color="#67FF80"/>
</linearGradient>
<linearGradient id="paint7_linear" x1="96" y1="185.674" x2="96" y2="5.99974" gradientUnits="userSpaceOnUse">
<stop stop-color="#02AA93"/>
<stop offset="1" stop-color="#67FF80"/>
</linearGradient>
<linearGradient id="paint8_linear" x1="96" y1="185.674" x2="96" y2="5.99974" gradientUnits="userSpaceOnUse">
<stop stop-color="#02AA93"/>
<stop offset="1" stop-color="#67FF80"/>
</linearGradient>
<linearGradient id="paint9_linear" x1="96" y1="185.674" x2="96" y2="5.99974" gradientUnits="userSpaceOnUse">
<stop stop-color="#02AA93"/>
<stop offset="1" stop-color="#67FF80"/>
</linearGradient>
<linearGradient id="paint10_linear" x1="96" y1="185.674" x2="96" y2="5.99974" gradientUnits="userSpaceOnUse">
<stop stop-color="#02AA93"/>
<stop offset="1" stop-color="#67FF80"/>
</linearGradient>
<linearGradient id="paint11_linear" x1="96" y1="185.674" x2="96" y2="5.99974" gradientUnits="userSpaceOnUse">
<stop stop-color="#02AA93"/>
<stop offset="1" stop-color="#67FF80"/>
</linearGradient>
<linearGradient id="paint12_linear" x1="96" y1="185.674" x2="96" y2="5.99974" gradientUnits="userSpaceOnUse">
<stop stop-color="#02AA93"/>
<stop offset="1" stop-color="#67FF80"/>
</linearGradient>
<linearGradient id="paint13_linear" x1="96" y1="185.674" x2="96" y2="5.99974" gradientUnits="userSpaceOnUse">
<stop stop-color="#02AA93"/>
<stop offset="1" stop-color="#67FF80"/>
</linearGradient>
<linearGradient id="paint14_linear" x1="96" y1="185.674" x2="96" y2="5.99974" gradientUnits="userSpaceOnUse">
<stop stop-color="#02AA93"/>
<stop offset="1" stop-color="#67FF80"/>
</linearGradient>
<linearGradient id="paint15_linear" x1="96" y1="185.674" x2="96" y2="5.99974" gradientUnits="userSpaceOnUse">
<stop stop-color="#02AA93"/>
<stop offset="1" stop-color="#67FF80"/>
</linearGradient>
</defs>
</svg>
