<?xml version="1.0" encoding="UTF-8" ?>
<!DOCTYPE svg PUBLIC "-//W3C//DTD SVG 1.1//EN" "http://www.w3.org/Graphics/SVG/1.1/DTD/svg11.dtd">
<svg width="192pt" height="192pt" viewBox="0 0 192 192" version="1.1" xmlns="http://www.w3.org/2000/svg">
<g id="#0f9affff">
<path fill="#0f9aff" opacity="1.00" d=" M 69.11 13.11 C 84.10 7.93 100.74 7.41 116.12 11.21 C 112.89 14.44 109.71 17.73 106.83 21.27 C 86.03 18.34 64.26 24.29 48.04 37.69 C 47.69 37.43 46.99 36.90 46.64 36.64 C 47.02 35.48 47.84 34.57 48.68 33.72 C 55.56 26.93 62.54 20.21 69.11 13.11 Z" />
</g>
<g id="#16aaffff">
<path fill="#16aaff" opacity="1.00" d=" M 116.12 11.21 C 129.28 14.27 141.85 20.53 151.96 29.52 C 149.27 31.42 146.34 33.30 144.60 36.18 C 144.87 37.48 145.44 38.70 146.00 39.90 C 142.99 37.24 139.81 34.74 136.37 32.66 C 127.61 26.56 117.29 23.04 106.83 21.27 C 109.71 17.73 112.89 14.44 116.12 11.21 Z" />
</g>
<g id="#0a91ffff">
<path fill="#0a91ff" opacity="1.00" d=" M 10.74 79.06 C 16.18 48.65 39.53 22.09 69.11 13.11 C 62.54 20.21 55.56 26.93 48.68 33.72 C 47.84 34.57 47.02 35.48 46.64 36.64 C 46.99 36.90 47.69 37.43 48.04 37.69 C 36.18 47.72 27.50 61.24 23.29 76.19 C 21.28 75.99 19.25 75.52 17.23 75.75 C 15.02 77.10 13.43 79.21 11.35 80.73 C 11.20 80.31 10.89 79.48 10.74 79.06 Z" />
</g>
<g id="#00000040">
<path fill="#000000" opacity="0.25" d=" M 48.04 37.69 C 64.26 24.29 86.03 18.34 106.83 21.27 C 117.29 23.04 127.61 26.56 136.37 32.66 C 132.32 31.78 128.66 29.82 124.90 28.15 C 111.95 23.17 97.69 21.89 84.00 24.04 C 68.21 26.76 53.37 34.71 42.40 46.39 C 36.07 53.74 30.10 61.75 27.06 71.08 C 24.47 78.80 22.03 86.75 21.96 94.97 C 21.92 99.03 21.98 103.10 21.95 107.17 C 20.08 96.90 20.99 86.32 23.29 76.19 C 27.50 61.24 36.18 47.72 48.04 37.69 Z" />
<path fill="#000000" opacity="0.25" d=" M 62.07 79.09 C 73.55 71.10 87.82 67.57 101.73 68.75 C 110.76 69.86 119.69 72.66 127.34 77.66 C 123.20 78.14 119.98 74.90 116.16 73.87 C 97.51 68.10 75.77 70.97 60.38 83.39 C 56.71 86.00 53.64 89.30 50.24 92.23 C 48.14 94.30 44.75 93.22 43.19 91.04 C 45.43 91.09 48.06 91.57 49.79 89.76 C 53.75 86.05 57.45 82.01 62.07 79.09 Z" />
<path fill="#000000" opacity="0.25" d=" M 70.94 110.91 C 76.44 105.01 83.78 100.72 91.87 99.75 C 100.51 98.76 109.55 101.14 116.21 106.82 C 112.58 106.13 109.44 104.07 105.91 103.08 C 96.23 100.66 85.39 102.27 77.36 108.38 C 74.53 110.61 72.40 113.91 68.86 115.09 C 66.45 115.89 64.02 114.38 62.69 112.43 C 65.53 113.29 68.91 113.50 70.94 110.91 Z" />
<path fill="#000000" opacity="0.25" d=" M 149.56 163.57 C 166.94 149.98 178.59 129.54 181.77 107.74 C 182.96 113.37 181.07 119.00 179.45 124.35 C 172.40 146.96 155.45 166.06 134.04 176.11 C 108.63 188.47 76.87 187.19 52.89 172.12 C 52.73 171.74 52.42 170.96 52.27 170.58 C 59.00 174.20 66.02 177.43 73.48 179.23 C 99.43 186.38 128.54 180.40 149.56 163.57 Z" />
</g>
<g id="#1eb9ffff">
<path fill="#1eb9ff" opacity="1.00" d=" M 144.60 36.18 C 146.34 33.30 149.27 31.42 151.96 29.52 C 160.61 36.58 167.82 45.59 172.76 55.61 C 167.69 57.15 165.91 62.50 165.24 67.23 C 160.96 56.83 154.30 47.47 146.00 39.90 C 145.44 38.70 144.87 37.48 144.60 36.18 Z" />
</g>
<g id="#26cbffff">
<path fill="#26cbff" opacity="1.00" d=" M 165.24 67.23 C 165.91 62.50 167.69 57.15 172.76 55.61 C 181.34 71.37 184.18 90.02 181.77 107.74 C 178.59 129.54 166.94 149.98 149.56 163.57 C 128.54 180.40 99.43 186.38 73.48 179.23 C 75.28 175.60 77.28 172.08 79.43 168.65 C 96.89 172.35 115.68 170.04 131.39 161.41 C 147.80 152.58 160.73 137.42 166.71 119.75 C 172.52 102.81 171.97 83.82 165.24 67.23 Z" />
</g>
<g id="#12a1ffff">
<path fill="#12a1ff" opacity="1.00" d=" M 41.11 82.08 C 55.64 64.93 78.54 55.10 101.02 56.92 C 104.37 57.39 108.06 57.18 111.12 58.69 C 107.61 61.65 104.21 64.85 101.73 68.75 C 87.82 67.57 73.55 71.10 62.07 79.09 C 57.45 82.01 53.75 86.05 49.79 89.76 C 48.06 91.57 45.43 91.09 43.19 91.04 C 40.59 88.97 38.90 85.04 41.11 82.08 Z" />
</g>
<g id="#1cb6ffff">
<path fill="#1cb6ff" opacity="1.00" d=" M 101.73 68.75 C 104.21 64.85 107.61 61.65 111.12 58.69 C 126.07 61.21 139.69 70.02 149.90 81.11 C 152.71 83.72 152.07 88.89 148.60 90.60 C 146.09 92.17 142.81 91.14 141.01 88.98 C 136.95 84.65 132.42 80.75 127.34 77.66 C 119.69 72.66 110.76 69.86 101.73 68.75 Z" />
<path fill="#1cb6ff" opacity="1.00" d=" M 96.32 87.82 C 108.09 87.55 119.58 92.94 127.85 101.15 C 129.47 102.82 131.39 104.67 131.43 107.16 C 131.67 111.19 126.97 114.57 123.26 112.81 C 120.54 111.31 118.72 108.63 116.21 106.82 C 109.55 101.14 100.51 98.76 91.87 99.75 C 91.39 99.06 90.94 98.35 90.54 97.62 C 91.72 93.99 94.54 91.17 96.32 87.82 Z" />
</g>
<g id="#0e97ffff">
<path fill="#0e97ff" opacity="1.00" d=" M 17.23 75.75 C 19.25 75.52 21.28 75.99 23.29 76.19 C 20.99 86.32 20.08 96.90 21.95 107.17 C 22.65 112.25 24.11 117.17 25.76 122.01 C 22.59 124.83 19.51 127.77 16.81 131.06 C 9.33 114.99 7.29 96.42 10.74 79.06 C 10.89 79.48 11.20 80.31 11.35 80.73 C 13.43 79.21 15.02 77.10 17.23 75.75 Z" />
</g>
<g id="#17aaffff">
<path fill="#17aaff" opacity="1.00" d=" M 61.66 103.67 C 70.12 93.69 83.14 87.29 96.32 87.82 C 94.54 91.17 91.72 93.99 90.54 97.62 C 90.94 98.35 91.39 99.06 91.87 99.75 C 83.78 100.72 76.44 105.01 70.94 110.91 C 68.91 113.50 65.53 113.29 62.69 112.43 C 60.54 110.12 59.35 106.31 61.66 103.67 Z" />
</g>
<g id="#1db7ffff">
<path fill="#1db7ff" opacity="1.00" d=" M 90.38 118.53 C 96.08 116.64 102.64 117.92 107.29 121.70 C 109.49 123.50 112.04 125.80 111.72 128.94 C 111.67 131.91 108.94 134.43 106.01 134.47 C 101.85 134.78 100.12 129.39 95.97 129.55 C 91.78 129.22 90.08 134.56 86.01 134.47 C 81.66 134.70 78.50 129.40 80.75 125.69 C 82.98 122.27 86.53 119.81 90.38 118.53 Z" />
</g>
<g id="#14a4ffff">
<path fill="#14a4ff" opacity="1.00" d=" M 16.81 131.06 C 19.51 127.77 22.59 124.83 25.76 122.01 C 29.41 131.57 35.07 140.28 42.10 147.69 C 39.15 150.26 36.39 153.01 33.81 155.95 C 26.59 148.91 20.81 140.31 16.81 131.06 Z" />
</g>
<g id="#1bb3ffff">
<path fill="#1bb3ff" opacity="1.00" d=" M 33.81 155.95 C 36.39 153.01 39.15 150.26 42.10 147.69 C 52.24 158.05 65.32 165.36 79.43 168.65 C 77.28 172.08 75.28 175.60 73.48 179.23 C 66.02 177.43 59.00 174.20 52.27 170.58 C 45.54 166.53 39.10 161.79 33.81 155.95 Z" />
</g>
</svg>
