<svg width="192" height="192" viewBox="0 0 192 192" fill="none" xmlns="http://www.w3.org/2000/svg">
<path d="M1.10239 41.0944C-2.14829 36.3664 2.29677 29.6986 7.83769 30.0259C29.2256 30.0017 50.6259 30.0017 72.0138 30.0259C75.3138 29.9047 78.429 32.002 79.8081 34.9116C85.8046 47.5561 91.9612 60.1279 97.7607 72.8573C103.412 60.4067 109.791 48.2956 115.676 35.9663C116.932 32.6688 120.121 30.0138 123.803 30.038C143.873 29.9774 163.944 30.0017 184.014 30.0259C188.989 29.8319 193.877 35.5177 191.279 40.1852C186.859 48.7442 182.401 57.2789 178.005 65.8622C176.86 67.8989 175.925 70.3357 173.647 71.4146C170.1 73.8029 164.818 71.5722 163.636 67.6564C162.528 64.856 164.067 61.9828 165.298 59.5096C168.044 54.4179 170.581 49.2049 173.351 44.1252C157.997 44.2586 142.654 44.2222 127.312 44.1495C120.22 59.1217 112.844 73.9726 105.419 88.7872C113.201 105.36 121.599 121.702 128.777 138.529C135.513 126.006 141.152 112.937 147.654 100.304C148.971 98.5707 150.744 96.7643 153.145 96.8977C158.218 96.0127 162.577 102.196 160.151 106.596C152.431 123.047 144.292 139.317 136.461 155.72C135.143 158.969 132.028 161.963 128.334 161.999C125.847 160.945 123.249 159.466 122.239 156.847C113.989 139.559 105.653 122.308 97.6006 104.935C89.0552 122.199 80.6454 139.535 72.1 156.799C71.0288 159.405 68.48 161.054 65.9065 161.999C62.2618 162.048 59.2944 159.005 57.8907 155.901C38.9777 117.616 20.0154 79.3675 1.10239 41.0944ZM18.3039 44.0283C33.9169 75.5365 49.53 107.045 65.0692 138.577C73.7746 122.199 81.3103 105.226 89.9172 88.7872C82.5047 73.9969 75.8063 58.855 68.3692 44.0646C51.6848 44.2586 34.9882 44.3435 18.3039 44.0283Z" fill="url(#paint0_linear)"/>
<defs>
<linearGradient id="paint0_linear" x1="28.1179" y1="142.669" x2="115.266" y2="15.9076" gradientUnits="userSpaceOnUse">
<stop stop-color="#0072FF"/>
<stop offset="1" stop-color="#00E5A1"/>
</linearGradient>
</defs>
</svg>
