<svg width="226" height="222" viewBox="0 0 226 222" fill="none" xmlns="http://www.w3.org/2000/svg">
<path d="M205.567 78.079C209.327 88.2469 211.396 99.2129 211.435 110.663V110.998C211.435 122.57 209.363 133.651 205.566 143.918C202.926 151.057 199.451 157.81 195.247 164.06L195.24 164.071C193.483 166.693 191.59 169.231 189.577 171.674C183.137 179.486 175.48 186.294 166.88 191.822L166.878 191.823C163.709 193.862 160.42 195.723 157.02 197.389L157.011 197.393C143.784 203.896 128.841 207.561 112.999 207.561C97.1561 207.561 82.2134 203.896 68.9863 197.393L68.9777 197.389C65.5748 195.721 62.2818 193.86 59.1151 191.823C50.4035 186.219 42.6539 179.303 36.1622 171.361L36.1579 171.356C34.1478 168.902 32.2594 166.342 30.4977 163.689L30.4932 163.683C26.4032 157.538 23.0164 150.911 20.4274 143.908L20.427 143.906C16.6316 133.645 14.5625 122.569 14.5625 111C14.5625 57.7958 58.5068 14.4384 112.999 14.4384C140.334 14.4384 165.032 25.3574 182.862 42.9733L182.863 42.9743C187.999 48.0475 192.562 53.6776 196.442 59.7578L196.449 59.7691C200.117 65.4946 203.182 71.6275 205.566 78.0776L205.567 78.079Z" stroke="url(#paint0_linear)" stroke-width="15"/>
<path fill-rule="evenodd" clip-rule="evenodd" d="M82 167.5C82 169.962 80.95 172.332 79.1 174.051C77.2 175.816 74.65 176.792 72 176.792C69.35 176.792 66.8 175.816 64.95 174.051C63.1 172.332 62 169.962 62 167.5V107.104H141.95C143 107.058 144.1 106.965 145.15 106.779C147.85 106.454 150.5 105.71 152.95 104.688C155.45 103.666 157.65 102.087 159.3 100.089C160.1 99.0204 160.75 97.8125 161.15 96.5581C161.75 94.6998 162.05 92.7485 162 90.8438C162.05 88.8925 161.75 86.9413 161.15 85.0829C160.75 83.8285 160.1 82.6206 159.3 81.5521C157.65 79.5544 155.45 77.9748 152.95 76.9527C150.5 75.9306 147.85 75.1873 145.15 74.8621C144.1 74.6763 143 74.5833 141.95 74.5833H72C69.35 74.5833 66.8 73.6077 64.95 71.8423C63.1 70.1233 62 67.754 62 65.2917C62 62.8294 63.1 60.46 64.95 58.6946C66.8 56.9756 69.35 56 72 56H142C142.05 56 142.15 56 142.2 56C144.2 56 146.25 56.1858 148.25 56.511C152.7 57.115 157 58.2765 161.1 59.9954C166.75 62.2719 171.65 65.9421 175.4 70.5415C177.55 73.329 179.2 76.3952 180.3 79.6938C181.45 83.3175 182.05 87.0342 182 90.8438C182.05 94.6069 181.45 98.37 180.3 101.947C179.2 105.246 177.55 108.359 175.4 111.1C171.65 115.699 166.75 119.369 161.1 121.692C157 123.365 152.7 124.526 148.25 125.176C146.25 125.455 144.2 125.641 142.2 125.688C142.15 125.688 142.05 125.688 142 125.688H82V167.5Z" fill="url(#paint1_linear)"/>
<defs>
<linearGradient id="paint0_linear" x1="112.999" y1="215.061" x2="112.999" y2="6.93839" gradientUnits="userSpaceOnUse">
<stop stop-color="#FD2E00"/>
<stop offset="1" stop-color="#FF9900"/>
</linearGradient>
<linearGradient id="paint1_linear" x1="122.001" y1="176.792" x2="122.001" y2="56" gradientUnits="userSpaceOnUse">
<stop stop-color="#FD2E00"/>
<stop offset="1" stop-color="#FF9900"/>
</linearGradient>
</defs>
</svg>
