<svg width="64" height="64" viewBox="0 0 64 64" fill="none" xmlns="http://www.w3.org/2000/svg">
<path fill-rule="evenodd" clip-rule="evenodd" d="M56 12V17.7922V20V58.2792C56 61.1159 53.7713 63.5714 50.8125 63.5714H13.1875C10.2287 63.5714 8 61.1159 8 58.2792V20V17.7922V12C8 9.784 9.338 8 11 8H53C54.662 8 56 9.784 56 12ZM13 20V58.2792C13 58.3979 13.0434 58.4768 13.0866 58.5217C13.128 58.5647 13.1605 58.5714 13.1875 58.5714H50.8125C50.8395 58.5714 50.872 58.5647 50.9134 58.5217C50.9566 58.4768 51 58.3979 51 58.2792V20H13Z" fill="url(#paint0_linear)"/>
<path d="M11.4314 2C10.7178 2 10.1428 2.874 10.1428 3.95871V12.8984C10.1428 13.9831 10.7178 14.8571 11.4314 14.8571H14.3523C15.0659 14.8571 15.6409 13.9831 15.6409 12.8984V3.95871C15.6409 2.874 15.0659 2 14.3523 2H11.4314ZM23.5273 2C22.8137 2 22.2387 2.874 22.2387 3.95871V12.8984C22.2387 13.9831 22.8137 14.8571 23.5273 14.8571H26.4482C27.1618 14.8571 27.7368 13.9831 27.7368 12.8984V3.95871C27.7368 2.874 27.1618 2 26.4482 2H23.5273ZM35.6232 2C34.9095 2 34.3346 2.874 34.3346 3.95871V12.8984C34.3346 13.9831 34.9095 14.8571 35.6232 14.8571H38.544C39.2577 14.8571 39.8327 13.9831 39.8327 12.8984V3.95871C39.8327 2.874 39.2577 2 38.544 2H35.6232ZM47.719 2C47.0054 2 46.4304 2.874 46.4304 3.95871V12.8984C46.4304 13.9831 47.0054 14.8571 47.719 14.8571H50.6399C51.3535 14.8571 51.9285 13.9831 51.9285 12.8984V3.95871C51.9285 2.874 51.3535 2 50.6399 2H47.719Z" fill="url(#paint1_linear)"/>
<path d="M34.2315 35.8247C34.3272 35.9368 34.5814 36.1858 34.9939 36.5716C40.7847 42.5523 43.5687 45.2196 43.3447 45.9363C43.1837 46.4634 42.7197 46.9105 41.9526 47.2773C41.1867 47.6229 40.4968 47.7796 39.8827 47.7474C39.3965 47.7219 37.0876 45.883 32.9569 40.8676C32.8931 40.7871 32.8312 40.7093 32.7714 40.6342C32.0808 39.7669 30.8984 39.772 30.2837 40.6947C29.8478 41.3491 29.3447 42.1585 28.7744 43.123C27.2244 46.3724 25.185 49.3707 24.017 52.804C23.6602 54.0065 22.7526 54.5695 21.2941 54.4932C20.5265 54.4529 20.0549 54.1926 19.8793 53.7121C19.7036 53.2315 19.7754 52.4854 20.0947 51.4738C20.6921 49.5007 23.5071 44.7848 28.5398 37.3262C28.7967 36.9454 28.8831 36.4895 28.6637 36.0859C28.3199 35.4533 27.6545 34.4201 26.6676 32.9862C25.1837 30.8303 24.0057 29.1973 23.1334 28.3589C22.1884 27.4524 21.795 26.757 21.9533 26.2725C22.3101 25.07 23.4352 24.5183 25.3286 24.6175C26.2497 24.6658 27.8915 26.6873 30.2539 30.4103C30.5489 30.8579 30.8141 31.2545 31.0496 31.6001C31.6726 32.5145 32.8764 32.5807 33.5668 31.7161C33.8699 31.3366 34.2031 30.9016 34.5664 30.4112C35.576 29.0287 36.2742 27.9083 36.661 27.0502C37.0438 26.2561 37.6477 25.6236 38.4726 25.1526C39.2975 24.6817 40.081 24.4656 40.823 24.5044C41.9744 24.5648 42.3912 25.0901 42.0732 26.0803C41.7164 27.2828 39.6405 29.9271 35.8453 34.0132C34.8554 35.0754 34.3175 35.6792 34.2315 35.8247" fill="url(#paint2_linear)"/>
<path d="M34.2315 35.8247C34.3272 35.9368 34.5814 36.1858 34.9939 36.5716C40.7847 42.5523 43.5687 45.2196 43.3447 45.9363C43.1837 46.4634 42.7197 46.9105 41.9526 47.2773C41.1867 47.6229 40.4968 47.7796 39.8827 47.7474C39.3965 47.7219 37.0876 45.883 32.9569 40.8676C32.8931 40.7871 32.8312 40.7093 32.7714 40.6342C32.0808 39.7669 30.8984 39.772 30.2837 40.6947C29.8478 41.3491 29.3447 42.1585 28.7744 43.123C27.2244 46.3724 25.185 49.3707 24.017 52.804C23.6602 54.0065 22.7526 54.5695 21.2941 54.4932C20.5265 54.4529 20.0549 54.1926 19.8793 53.7121C19.7036 53.2315 19.7754 52.4854 20.0947 51.4738C20.6921 49.5007 23.5071 44.7848 28.5398 37.3262C28.7967 36.9454 28.8831 36.4895 28.6637 36.0859C28.3199 35.4533 27.6545 34.4201 26.6676 32.9862C25.1837 30.8303 24.0057 29.1973 23.1334 28.3589C22.1884 27.4524 21.795 26.757 21.9533 26.2725C22.3101 25.07 23.4352 24.5183 25.3286 24.6175C26.2497 24.6658 27.8915 26.6873 30.2539 30.4103C30.5489 30.8579 30.8141 31.2545 31.0496 31.6001C31.6726 32.5145 32.8764 32.5807 33.5668 31.7161C33.8699 31.3366 34.2031 30.9016 34.5664 30.4112C35.576 29.0287 36.2742 27.9083 36.661 27.0502C37.0438 26.2561 37.6477 25.6236 38.4726 25.1526C39.2975 24.6817 40.081 24.4656 40.823 24.5044C41.9744 24.5648 42.3912 25.0901 42.0732 26.0803C41.7164 27.2828 39.6405 29.9271 35.8453 34.0132C34.8554 35.0754 34.3175 35.6792 34.2315 35.8247" stroke="url(#paint3_linear)" stroke-width="2"/>
<defs>
<linearGradient id="paint0_linear" x1="32.6429" y1="8" x2="32.6429" y2="18.6857" gradientUnits="userSpaceOnUse">
<stop stop-color="#A93AFF"/>
<stop offset="1" stop-color="#FF81FF"/>
</linearGradient>
<linearGradient id="paint1_linear" x1="31.0357" y1="14.8571" x2="31.0357" y2="2" gradientUnits="userSpaceOnUse">
<stop stop-color="#FDA700"/>
<stop offset="1" stop-color="#FFDE00"/>
</linearGradient>
<linearGradient id="paint2_linear" x1="31.5715" y1="54.5" x2="31.5715" y2="24.5" gradientUnits="userSpaceOnUse">
<stop stop-color="#FD5900"/>
<stop offset="1" stop-color="#FFDE00"/>
</linearGradient>
<linearGradient id="paint3_linear" x1="31.5715" y1="54.5" x2="31.5715" y2="24.5" gradientUnits="userSpaceOnUse">
<stop stop-color="#FD5900"/>
<stop offset="1" stop-color="#FFDE00"/>
</linearGradient>
</defs>
</svg>
