<svg id="Capa_1" enable-background="new 0 0 512 512" height="512" viewBox="0 0 512 512" width="512" xmlns="http://www.w3.org/2000/svg" xmlns:xlink="http://www.w3.org/1999/xlink"><linearGradient id="SVGID_1_" gradientUnits="userSpaceOnUse" x1="256" x2="256" y1="512" y2="0"><stop offset="0" stop-color="#fd3a84"/><stop offset="1" stop-color="#ffa68d"/></linearGradient><g><g><path d="m152.948 295.551c-6.606 34.614 4.175 70.005 28.828 94.673 19.893 19.878 46.743 30.732 74.546 30.732 6.68 0 13.418-.63 20.127-1.904 41.484-7.925 74.678-41.118 82.603-82.603 6.606-34.614-4.175-70.005-28.828-94.673-24.683-24.653-60.015-35.376-94.673-28.828-41.485 7.925-74.678 41.118-82.603 82.603zm103.14-54.566c19.849 0 38.584 7.676 52.925 22.002 17.886 17.9 25.386 42.612 20.566 67.837-5.552 29.048-29.707 53.203-58.755 58.755-25.239 4.805-49.937-2.695-67.837-20.566-17.886-17.9-25.386-42.612-20.566-67.837 5.552-29.048 29.707-53.203 58.755-58.755 5.01-.952 9.99-1.436 14.912-1.436zm-60.088-44.985c24.814 0 45-20.186 45-45s-20.186-45-45-45-45 20.186-45 45 20.186 45 45 45zm0-60c8.276 0 15 6.724 15 15s-6.724 15-15 15-15-6.724-15-15 6.724-15 15-15zm120 60c24.814 0 45-20.186 45-45s-20.186-45-45-45-45 20.186-45 45 20.186 45 45 45zm0-60c8.276 0 15 6.724 15 15s-6.724 15-15 15-15-6.724-15-15 6.724-15 15-15zm-60 225c24.814 0 45-20.186 45-45s-20.186-45-45-45-45 20.186-45 45 20.186 45 45 45zm0-60c8.276 0 15 6.724 15 15s-6.724 15-15 15-15-6.724-15-15 6.724-15 15-15zm150-301h-300c-8.291 0-15 6.709-15 15v482c0 8.291 6.709 15 15 15h300c8.291 0 15-6.709 15-15v-482c0-8.291-6.709-15-15-15zm-15 482h-270v-452h270zm-45-61c-8.284 0-15 6.714-15 15 0 8.284 6.716 15 15 15s15-6.716 15-15c0-8.286-6.716-15-15-15zm-180 30c8.284 0 15-6.716 15-15 0-8.286-6.716-15-15-15s-15 6.714-15 15c0 8.284 6.716 15 15 15zm180-360c8.284 0 15-6.716 15-15 0-8.286-6.716-15-15-15s-15 6.714-15 15c0 8.284 6.716 15 15 15zm-180 0c8.284 0 15-6.716 15-15 0-8.286-6.716-15-15-15s-15 6.714-15 15c0 8.284 6.716 15 15 15zm315.238 90.762c-5.859-5.859-15.352-5.859-21.211 0s-5.859 15.352 0 21.211c14.136 14.136 21.929 32.974 21.929 53.027s-7.793 38.892-21.929 53.027c-5.859 5.859-5.859 15.352 0 21.211s15.351 5.859 21.211 0c19.805-19.805 30.718-46.157 30.718-74.238s-10.913-54.434-30.718-74.238zm-429.265 0c-5.859-5.859-15.352-5.859-21.211 0-19.805 19.804-30.718 46.157-30.718 74.238s10.913 54.434 30.718 74.238c5.859 5.859 15.351 5.859 21.211 0 5.859-5.859 5.859-15.352 0-21.211-14.136-14.135-21.929-32.973-21.929-53.027s7.793-38.892 21.929-53.027c5.859-5.86 5.859-15.352 0-21.211z" fill="url(#SVGID_1_)"/></g></g></svg>