<svg width="128" height="128" viewBox="0 0 128 128" fill="none" xmlns="http://www.w3.org/2000/svg">
<path d="M7.82441 30.144C5.23716 30.1725 3.0225 32.5159 3.05765 35.1228C3.0225 42.3951 2.9311 49.6745 3.09281 56.9397C3.00844 63.9342 3.09281 70.9288 3.04359 77.9232C2.94517 81.9832 4.70282 85.8294 6.86124 89.1558C7.11434 89.4763 7.62056 90.1316 7.87366 90.4521C10.2992 93.0946 13.2803 95.203 16.6339 96.4424C20.9462 98.0252 25.574 97.9891 30.104 97.9537L30.2733 97.9523C35.3987 97.9381 40.524 98.0663 45.6563 97.9523C51.4846 97.9737 57.3132 97.9025 63.1416 97.9025C68.3935 97.9096 73.6384 97.8028 78.8903 97.8811C81.1822 98.1589 83.4391 97.1902 84.9296 95.4237C88.1778 91.5419 86.631 86.0716 86.8912 81.4347C86.2162 78.3791 82.2368 76.7551 79.8183 78.8777C77.0131 81.3848 78.5177 85.6514 78.2013 88.9563C75.1921 88.9563 72.183 88.9635 69.1739 88.9563C63.3173 89.049 57.4607 88.9777 51.6042 89.056C46.5211 88.9919 41.431 89.1558 36.3478 89.0774C31.5599 88.9421 26.751 89.2911 21.9842 88.7427C17.5971 87.9235 13.6248 84.8537 12.296 80.4518L11.9444 79.4403C11.6773 71.5057 11.9093 63.5496 11.8319 55.6078L11.8316 55.5597C11.8037 50.0271 11.7757 44.5017 11.7968 38.9762C15.8042 38.969 19.8117 38.9762 23.8262 38.969C29.4649 38.9406 35.1034 38.9049 40.749 38.9193C45.4525 38.9193 50.156 38.9263 54.8665 38.9193C59.7177 39.0759 64.6392 38.4989 69.4411 39.4535C70.6784 39.8879 71.8737 40.4648 72.9845 41.1629C75.5015 42.7939 77.1467 45.465 77.9271 48.3426C78.4122 53.9268 78.0115 59.5395 78.1802 65.138C78.1942 66.0568 78.4684 66.9471 78.8903 67.752C79.4457 68.2292 80.0012 68.6993 80.5707 69.1623C83.5446 70.1096 86.7576 68.9058 89.6823 69.8176C90.4487 71.1922 89.9143 72.9231 90.1041 74.4402C90.0901 75.7009 90.6034 76.8833 91.0392 78.0444C91.4751 78.5786 91.932 79.1056 92.4031 79.6185C98.9909 84.7254 105.98 89.2769 112.714 94.1915C114.965 95.787 117.446 97.8099 120.392 97.2686C123.141 96.8626 125.116 94.163 124.969 91.3995C125.047 74.0769 124.948 56.7545 124.997 39.4321C125.011 37.6799 124.934 35.9277 124.688 34.1897C124.238 33.3564 123.668 32.5943 123.149 31.8107C120.905 30.201 117.812 30.0728 115.555 31.7324C110.149 35.6997 104.918 39.9092 99.5462 43.9265C98.3511 44.881 96.8746 45.7713 96.4599 47.3739C95.8482 49.1546 96.6286 51.0634 97.8941 52.3313C99.476 52.9795 101.395 53.6348 102.907 52.4381C107.428 49.1119 111.765 45.5362 116.195 42.096L116.195 42.0971C116.181 43.0084 116.167 43.9198 116.167 44.8382C116.195 58.4711 116.16 72.1111 116.167 85.744C110.866 82.0402 105.606 78.2651 100.299 74.5684C99.8204 74.1767 99.3353 73.8135 98.8222 73.4716C98.9276 71.5413 99.012 69.611 99.04 67.6736C98.9626 66.2919 98.7518 64.9243 98.4425 63.5781C97.7113 62.3388 96.5442 61.1919 95.0256 61.1991C92.2555 61.0353 89.4855 61.1991 86.7224 61.078L86.9685 60.7859C86.8561 53.9838 87.8685 46.6474 84.2125 40.5219C81.9486 36.8322 78.6442 33.6056 74.5804 32.0956L74.0742 31.8037C69.9262 29.9019 65.2649 29.9874 60.8145 30.0301C56.1602 30.0728 51.5057 29.9446 46.8586 30.0301H29.8726C22.5185 30.1511 15.1715 29.9802 7.82441 30.144Z" fill="url(#paint0_linear)"/>
<defs>
<linearGradient id="paint0_linear" x1="3" y1="98" x2="111.703" y2="12.9963" gradientUnits="userSpaceOnUse">
<stop stop-color="#0357D1"/>
<stop offset="1" stop-color="#27CDFC"/>
</linearGradient>
</defs>
</svg>
