<svg width="48" height="48" viewBox="0 0 48 48" fill="none" xmlns="http://www.w3.org/2000/svg">
<rect x="7" y="6" width="35" height="35" rx="5" fill="#FF598B"/>
<path d="M25.2 6H37C39.7614 6 42 8.23858 42 11V22.8H31.2C27.8863 22.8 25.2 20.1137 25.2 16.8V6Z" fill="#F9F9F9"/>
<path d="M29.2 11.6C29.2 11.2818 29.3264 10.9765 29.5515 10.7515C29.7765 10.5265 30.0818 10.4 30.4 10.4H33.4L34.6 11.6H37.6C37.9183 11.6 38.2235 11.7265 38.4485 11.9515C38.6736 12.1765 38.8 12.4818 38.8 12.8V16.4C38.8 16.7183 38.6736 17.0235 38.4485 17.2486C38.2235 17.4736 37.9183 17.6 37.6 17.6H30.4C30.0818 17.6 29.7765 17.4736 29.5515 17.2486C29.3264 17.0235 29.2 16.7183 29.2 16.4V11.6Z" fill="#FF598B"/>
</svg>
