<svg width="48" height="48" viewBox="0 0 48 48" fill="none" xmlns="http://www.w3.org/2000/svg">
<rect x="7" y="6" width="35" height="35" rx="5" fill="#B467F9"/>
<path d="M25.2 6H37C39.7614 6 42 8.23858 42 11V22.8H31.2C27.8863 22.8 25.2 20.1137 25.2 16.8V6Z" fill="#F9F9F9"/>
<path fill-rule="evenodd" clip-rule="evenodd" d="M30.4001 9.79999C30.0818 9.79999 29.7766 9.92642 29.5515 10.1515C29.3265 10.3765 29.2001 10.6817 29.2001 11V17C29.2001 17.3182 29.3265 17.6235 29.5515 17.8485C29.7766 18.0736 30.0818 18.2 30.4001 18.2H37.6001C37.9183 18.2 38.2236 18.0736 38.4486 17.8485C38.6736 17.6235 38.8001 17.3182 38.8001 17V11C38.8001 10.6817 38.6736 10.3765 38.4486 10.1515C38.2236 9.92642 37.9183 9.79999 37.6001 9.79999H30.4001ZM37.6001 17H30.4001L32.8001 12.2L34.6001 15.8L35.8001 13.4L37.6001 17Z" fill="#B467F9"/>
</svg>
