<?xml version="1.0" encoding="UTF-8" standalone="no"?>
<!-- Created with Inkscape (http://www.inkscape.org/) -->

<svg
   width="22"
   height="22"
   viewBox="0 0 5.8208332 5.8208335"
   version="1.1"
   id="svg5"
   inkscape:version="1.1 (c4e8f9ed74, 2021-05-24)"
   sodipodi:docname="folder-music.svg"
   xmlns:inkscape="http://www.inkscape.org/namespaces/inkscape"
   xmlns:sodipodi="http://sodipodi.sourceforge.net/DTD/sodipodi-0.dtd"
   xmlns="http://www.w3.org/2000/svg"
   xmlns:svg="http://www.w3.org/2000/svg">
  <sodipodi:namedview
     id="namedview7"
     pagecolor="#ffffff"
     bordercolor="#666666"
     borderopacity="1.0"
     inkscape:pageshadow="2"
     inkscape:pageopacity="0.0"
     inkscape:pagecheckerboard="0"
     inkscape:document-units="px"
     showgrid="false"
     units="px"
     height="22px"
     inkscape:zoom="25.970104"
     inkscape:cx="10.935651"
     inkscape:cy="10.589099"
     inkscape:window-width="1920"
     inkscape:window-height="1009"
     inkscape:window-x="0"
     inkscape:window-y="0"
     inkscape:window-maximized="1"
     inkscape:current-layer="svg5" />
  <defs
      id="defs2">
    <style
       id="current-color-scheme"
       type="text/css">
        .ColorScheme-Text { color:#dedede; }
    </style>
  </defs>
  <path
     id="rect846-3"
     style="fill:currentColor;stroke-width:0.087599"
     class="ColorScheme-Text"
     d="M 3.0135826,0.79375 C 2.9584456,0.796527 2.9144856,0.8404867 2.9117089,0.8956237 V 3.1394285 A 1.0590718,1.0590718 0 0 0 2.1174051,2.7795096 1.0590718,1.0590718 0 0 0 1.0583333,3.8385813 1.0590718,1.0590718 0 0 0 2.1174051,4.8976531 1.0590718,1.0590718 0 0 0 3.1764768,3.8385813 V 1.058518 a 1.3238396,1.3238396 0 0 1 1.3171169,1.2369627 v 0.3971519 c 0,0.073341 0.059043,0.132384 0.132384,0.132384 0.073341,0 0.132384,-0.059043 0.132384,-0.132384 V 2.2954807 H 4.7625 A 1.5886076,1.5886076 0 0 0 3.1764768,0.79375 Z" />
</svg>
