/* XPM */
static char *xterm_48x48[] = {
/* columns rows colors chars-per-pixel */
"24 24 115 2 ",
"   c black",
".  c gray3",
"X  c #151515",
"o  c gray9",
"O  c #181818",
"+  c #191919",
"@  c gray10",
"#  c #1B1B1B",
"$  c gray11",
"%  c #1D1D1D",
"&  c #1E1E1E",
"*  c gray12",
"=  c #202020",
"-  c #222222",
";  c #232323",
":  c gray14",
">  c #252525",
",  c gray15",
"<  c #272727",
"1  c #282828",
"2  c gray16",
"3  c #2A2A2A",
"4  c gray17",
"5  c #2C2C2C",
"6  c #2D2D2D",
"7  c gray18",
"8  c #2F2F2F",
"9  c gray19",
"0  c #313131",
"q  c #323232",
"w  c gray20",
"e  c #343434",
"r  c #353535",
"t  c gray21",
"y  c #373737",
"u  c gray22",
"i  c #393939",
"p  c #3A3A3A",
"a  c gray23",
"s  c #3C3C3C",
"d  c gray24",
"f  c #3E3E3E",
"g  c #3F3F3F",
"h  c gray25",
"j  c #414141",
"k  c gray26",
"l  c #434343",
"z  c #444444",
"x  c gray27",
"c  c #464646",
"v  c gray28",
"b  c #484848",
"n  c #494949",
"m  c gray29",
"M  c #4B4B4B",
"N  c #4C4C4C",
"B  c gray30",
"V  c #4E4E4E",
"C  c gray31",
"Z  c #505050",
"A  c #515151",
"S  c gray32",
"D  c #535353",
"F  c gray33",
"G  c #555555",
"H  c #565656",
"J  c gray34",
"K  c #585858",
"L  c gray35",
"P  c #5A5A5A",
"I  c #5B5B5B",
"U  c gray36",
"Y  c #5D5D5D",
"T  c gray37",
"R  c #5F5F5F",
"E  c #606060",
"W  c gray38",
"Q  c #626262",
"!  c gray39",
"~  c #646464",
"^  c #656565",
"/  c gray40",
"(  c #676767",
")  c #686868",
"_  c DimGray",
"`  c #6A6A6A",
"'  c gray42",
"]  c #6C6C6C",
"[  c #6D6D6D",
"{  c gray43",
"}  c #6F6F6F",
"|  c gray44",
" . c #717171",
".. c #747474",
"X. c #777777",
"o. c gray48",
"O. c #7B7B7B",
"+. c #7E7E7E",
"@. c #808080",
"#. c #838383",
"$. c #868686",
"%. c #898989",
"&. c gray58",
"*. c #959595",
"=. c #B9B9B9",
"-. c #BCBCBC",
";. c gray74",
":. c gray75",
">. c #C8C8C8",
",. c gray82",
"<. c gray87",
"1. c #E1E1E1",
"2. c gray90",
"3. c #E9E9E9",
"4. c None",
/* pixels */
"4.4.4.4.4.4.4.4.4.4.4.4.4.4.4.4.4.4.4.4.4.4.4.4.",
"4.4.4.4.4.4.4.4.4.4.4.4.4.4.4.4.4.4.4.4.4.4.4.4.",
"4.4.4.P Q Q ^ ^ ' {  . .$.$.#.#.O.O.O... .4.4.4.",
"4.4.F h r a g g h x x b F U U P P P F S P ' 4.4.",
"4.4.P r r S Q ^ P g x h N P P P F { Q S N { 4.4.",
"4.4.P r a -.%.^ ^ S x b b U U F Q { S N N { 4.4.",
"4.4.P a r o.,.,.*.^ N b b P P U ..P S N S ^ 4.4.",
"4.4.F a a a g =.3.' U b b S P  .Q S S S N Q 4.4.",
"4.4.F a a ' =.>.*.' ' S x N ^ { F S N N b Q 4.4.",
"4.4.P a r -.{ g N ^ ^ ^ h b  .F S N N b x P 4.4.",
"4.4.P a r r a a a <.2.2.1.U P N N b b x x F 4.4.",
"4.4.F a r r r a a h ^ Q F F x b b b x h x N 4.4.",
"4.4.F r 8 q q r r a P b Q P g h h h h g h b 4.4.",
"4.4.N r 8 8 q q q N N N U U b h g g g a a h 4.4.",
"4.4.x q 2 8 8 q a S q a P P P h a a a r r g 4.4.",
"4.4.a 8 2 2 2 8 S r 8 8 h P P F r r r q q q 4.4.",
"4.4.q > > 2 > x h 2 2 2 2 N F F x q 8 8 8 8 4.4.",
"4.4.8 - - - q b > > 2 2 2 q S F F q 2 2 > > 4.4.",
"4.4.> & & - x 2 - > > - - - g N S b 2 > > - 4.4.",
"4.4.& # # g q - & - & & - & - x N N r - & & 4.4.",
"4.4.o # # # # # # # & & & & # & # & & # & o 4.4.",
"4.4.. o & - 2 2 q q r a a r q 8 2 2 - - o . 4.4.",
"4.4.4.4.                                4.4.4.4.",
"4.4.4.4.4.4.4.4.4.4.4.4.4.4.4.4.4.4.4.4.4.4.4.4."
};
