<?xml version="1.0" encoding="UTF-8" standalone="no"?>
<!-- Created with Inkscape (http://www.inkscape.org/) -->

<svg
   xmlns:dc="http://purl.org/dc/elements/1.1/"
   xmlns:cc="http://creativecommons.org/ns#"
   xmlns:rdf="http://www.w3.org/1999/02/22-rdf-syntax-ns#"
   xmlns:svg="http://www.w3.org/2000/svg"
   xmlns="http://www.w3.org/2000/svg"
   xmlns:xlink="http://www.w3.org/1999/xlink"
   xmlns:sodipodi="http://sodipodi.sourceforge.net/DTD/sodipodi-0.dtd"
   xmlns:inkscape="http://www.inkscape.org/namespaces/inkscape"
   width="128"
   height="128"
   id="svg4201"
   version="1.1"
   inkscape:version="0.48.2 r9819"
   sodipodi:docname="xfburn-mod1.svg"
   inkscape:export-filename="/home/ochosi/xfburn.png"
   inkscape:export-xdpi="90"
   inkscape:export-ydpi="90">
  <defs
     id="defs4203">
    <linearGradient
       id="linearGradient3889">
      <stop
         id="stop3891"
         offset="0"
         style="stop-color:#cc4418;stop-opacity:1;" />
      <stop
         style="stop-color:#d76519;stop-opacity:0.8429752;"
         offset="0.36476627"
         id="stop3893" />
      <stop
         id="stop3895"
         offset="0.54846799"
         style="stop-color:#e2a834;stop-opacity:0.6280992;" />
      <stop
         id="stop3897"
         offset="1"
         style="stop-color:#f1f76b;stop-opacity:0.14876033;" />
    </linearGradient>
    <linearGradient
       id="linearGradient3975">
      <stop
         id="stop3977"
         offset="0"
         style="stop-color:#ffffff;stop-opacity:1;" />
      <stop
         style="stop-color:#ffffff;stop-opacity:0.92561984;"
         offset="0.5"
         id="stop3999" />
      <stop
         id="stop3981"
         offset="1"
         style="stop-color:#ffffff;stop-opacity:0;" />
    </linearGradient>
    <linearGradient
       id="linearGradient3965">
      <stop
         style="stop-color:#cc4418;stop-opacity:1;"
         offset="0"
         id="stop3967" />
      <stop
         id="stop3969"
         offset="0.43294808"
         style="stop-color:#d76519;stop-opacity:0.8429752;" />
      <stop
         style="stop-color:#e2a834;stop-opacity:0.6280992;"
         offset="0.62801343"
         id="stop3971" />
      <stop
         style="stop-color:#f1f76b;stop-opacity:0.14876033;"
         offset="1"
         id="stop3973" />
    </linearGradient>
    <linearGradient
       id="linearGradient3903">
      <stop
         style="stop-color:#efdc44;stop-opacity:1;"
         offset="0"
         id="stop3905" />
      <stop
         id="stop3917"
         offset="0.33333334"
         style="stop-color:#de876b;stop-opacity:1;" />
      <stop
         style="stop-color:#cc4418;stop-opacity:1;"
         offset="1"
         id="stop3909" />
    </linearGradient>
    <linearGradient
       id="linearGradient3873">
      <stop
         id="stop3875"
         offset="0"
         style="stop-color:#cc4418;stop-opacity:1;" />
      <stop
         style="stop-color:#d76519;stop-opacity:0.8429752;"
         offset="0.50009006"
         id="stop3877" />
      <stop
         id="stop3880"
         offset="0.68891644"
         style="stop-color:#e2a834;stop-opacity:0.6280992;" />
      <stop
         id="stop3882"
         offset="1"
         style="stop-color:#f1f76b;stop-opacity:0.14876033;" />
    </linearGradient>
    <linearGradient
       id="linearGradient3877">
      <stop
         id="stop3879"
         offset="0"
         style="stop-color:#cc4418;stop-opacity:1;" />
      <stop
         style="stop-color:#d76519;stop-opacity:1;"
         offset="0.5"
         id="stop3881" />
      <stop
         id="stop3885"
         offset="1"
         style="stop-color:#f1f76b;stop-opacity:1;" />
    </linearGradient>
    <linearGradient
       id="linearGradient3843">
      <stop
         style="stop-color:#cc4418;stop-opacity:1;"
         offset="0"
         id="stop3845" />
      <stop
         id="stop3851"
         offset="0.5"
         style="stop-color:#d76519;stop-opacity:0.8429752;" />
      <stop
         style="stop-color:#e2a834;stop-opacity:0.6280992;"
         offset="0.75"
         id="stop3853" />
      <stop
         style="stop-color:#f1f76b;stop-opacity:0.14876033;"
         offset="1"
         id="stop3847" />
    </linearGradient>
    <linearGradient
       x1="18.775953"
       y1="4.0378027"
       x2="18.203465"
       y2="45.962208"
       id="linearGradient2651"
       xlink:href="#linearGradient6036"
       gradientUnits="userSpaceOnUse"
       gradientTransform="matrix(1.0859888,0,0,-1.0859883,37.559418,27.149721)" />
    <linearGradient
       id="linearGradient6036">
      <stop
         id="stop6038"
         style="stop-color:#ffffff;stop-opacity:1"
         offset="0" />
      <stop
         id="stop6040"
         style="stop-color:#ffffff;stop-opacity:0"
         offset="1" />
    </linearGradient>
    <linearGradient
       inkscape:collect="always"
       xlink:href="#linearGradient4011"
       id="linearGradient4064"
       gradientUnits="userSpaceOnUse"
       gradientTransform="matrix(2.9459458,0,0,2.9459459,-147.32304,-74.701047)"
       x1="71.204407"
       y1="6.2375584"
       x2="71.204407"
       y2="44.340794" />
    <linearGradient
       id="linearGradient4011">
      <stop
         id="stop4013"
         style="stop-color:#ffffff;stop-opacity:1;"
         offset="0" />
      <stop
         offset="0.507761"
         style="stop-color:#ffffff;stop-opacity:0.23529412;"
         id="stop4015" />
      <stop
         id="stop4017"
         style="stop-color:#ffffff;stop-opacity:0.15686275;"
         offset="0.83456558" />
      <stop
         id="stop4019"
         style="stop-color:#ffffff;stop-opacity:0.39215687;"
         offset="1" />
    </linearGradient>
    <linearGradient
       x1="20.580074"
       y1="10.774516"
       x2="24.27351"
       y2="9.8622112"
       id="linearGradient2682"
       xlink:href="#linearGradient3487"
       gradientUnits="userSpaceOnUse"
       spreadMethod="reflect" />
    <linearGradient
       id="linearGradient3487">
      <stop
         id="stop3489"
         style="stop-color:#e6cde2;stop-opacity:1"
         offset="0" />
      <stop
         id="stop3491"
         style="stop-color:#e6cde2;stop-opacity:0"
         offset="1" />
    </linearGradient>
    <linearGradient
       x1="17.494959"
       y1="11.200086"
       x2="21.047453"
       y2="9.7956104"
       id="linearGradient2684"
       xlink:href="#linearGradient3495"
       gradientUnits="userSpaceOnUse"
       spreadMethod="reflect" />
    <linearGradient
       id="linearGradient3495">
      <stop
         id="stop3497"
         style="stop-color:#c1cbe4;stop-opacity:1"
         offset="0" />
      <stop
         id="stop3499"
         style="stop-color:#c1cbe4;stop-opacity:0"
         offset="1" />
    </linearGradient>
    <linearGradient
       x1="14.084608"
       y1="13.045606"
       x2="16.994024"
       y2="10.732353"
       id="linearGradient2686"
       xlink:href="#linearGradient3503"
       gradientUnits="userSpaceOnUse"
       spreadMethod="reflect" />
    <linearGradient
       id="linearGradient3503">
      <stop
         id="stop3505"
         style="stop-color:#c4ebdd;stop-opacity:1"
         offset="0" />
      <stop
         id="stop3507"
         style="stop-color:#c4ebdd;stop-opacity:0"
         offset="1" />
    </linearGradient>
    <linearGradient
       x1="12.371647"
       y1="16.188046"
       x2="14.609327"
       y2="13.461712"
       id="linearGradient2688"
       xlink:href="#linearGradient3511"
       gradientUnits="userSpaceOnUse"
       spreadMethod="reflect" />
    <linearGradient
       id="linearGradient3511">
      <stop
         id="stop3513"
         style="stop-color:#ebeec7;stop-opacity:1"
         offset="0" />
      <stop
         id="stop3515"
         style="stop-color:#ebeec7;stop-opacity:0"
         offset="1" />
    </linearGradient>
    <linearGradient
       x1="10.609375"
       y1="17.886322"
       x2="9.7297754"
       y2="20.612656"
       id="linearGradient2690"
       xlink:href="#linearGradient3519"
       gradientUnits="userSpaceOnUse"
       spreadMethod="reflect" />
    <linearGradient
       id="linearGradient3519">
      <stop
         id="stop3521"
         style="stop-color:#fcd9cd;stop-opacity:1"
         offset="0" />
      <stop
         id="stop3523"
         style="stop-color:#fcd9cd;stop-opacity:0"
         offset="1" />
    </linearGradient>
    <linearGradient
       x1="20.580074"
       y1="10.774516"
       x2="24.27351"
       y2="9.8622112"
       id="linearGradient2672"
       xlink:href="#linearGradient3487"
       gradientUnits="userSpaceOnUse"
       spreadMethod="reflect" />
    <linearGradient
       x1="17.494959"
       y1="11.200086"
       x2="21.047453"
       y2="9.7956104"
       id="linearGradient2674"
       xlink:href="#linearGradient3495"
       gradientUnits="userSpaceOnUse"
       spreadMethod="reflect" />
    <linearGradient
       x1="14.084608"
       y1="13.045606"
       x2="16.994024"
       y2="10.732353"
       id="linearGradient2676"
       xlink:href="#linearGradient3503"
       gradientUnits="userSpaceOnUse"
       spreadMethod="reflect" />
    <linearGradient
       x1="12.371647"
       y1="16.188046"
       x2="14.609327"
       y2="13.461712"
       id="linearGradient2678"
       xlink:href="#linearGradient3511"
       gradientUnits="userSpaceOnUse"
       spreadMethod="reflect" />
    <linearGradient
       x1="10.609375"
       y1="17.886322"
       x2="9.7297754"
       y2="20.612656"
       id="linearGradient2680"
       xlink:href="#linearGradient3519"
       gradientUnits="userSpaceOnUse"
       spreadMethod="reflect" />
    <linearGradient
       x1="21.448364"
       y1="15.5"
       x2="21.448364"
       y2="32.509201"
       id="linearGradient2654"
       xlink:href="#linearGradient3428"
       gradientUnits="userSpaceOnUse"
       gradientTransform="matrix(2.5381093,0,0,2.5381093,3.0853666,-60.914613)" />
    <linearGradient
       id="linearGradient3428">
      <stop
         id="stop3430"
         style="stop-color:#aaaaaa;stop-opacity:1"
         offset="0" />
      <stop
         id="stop3432"
         style="stop-color:#d4d4d4;stop-opacity:1"
         offset="1" />
    </linearGradient>
    <linearGradient
       x1="12.2744"
       y1="32.4165"
       x2="35.391201"
       y2="14.2033"
       id="linearGradient2658"
       xlink:href="#linearGradient3263-6"
       gradientUnits="userSpaceOnUse"
       gradientTransform="matrix(0,3.1714559,-3.1714559,0,137.26064,-76.11495)" />
    <linearGradient
       x1="12.2744"
       y1="32.4165"
       x2="35.391201"
       y2="14.2033"
       id="linearGradient3263-6"
       gradientUnits="userSpaceOnUse">
      <stop
         id="stop3265-8"
         style="stop-color:#dedcde;stop-opacity:1;"
         offset="0" />
      <stop
         id="stop3267-9"
         style="stop-color:#f0f0f0;stop-opacity:1;"
         offset="0.5" />
      <stop
         id="stop3269-2"
         style="stop-color:#d2d2d2;stop-opacity:1"
         offset="1" />
    </linearGradient>
    <linearGradient
       x1="-21.915663"
       y1="3"
       x2="-21.915663"
       y2="45.032898"
       id="linearGradient2660"
       xlink:href="#linearGradient3772-6"
       gradientUnits="userSpaceOnUse"
       gradientTransform="matrix(2.7073165,0,0,2.7073165,135.10782,-64.975588)" />
    <linearGradient
       id="linearGradient3772-6">
      <stop
         id="stop3774-6"
         style="stop-color:#b4b4b4;stop-opacity:1;"
         offset="0" />
      <stop
         id="stop3776-4"
         style="stop-color:#969696;stop-opacity:1;"
         offset="1" />
    </linearGradient>
    <linearGradient
       id="linearGradient23419">
      <stop
         id="stop23421"
         style="stop-color:#000000;stop-opacity:1"
         offset="0" />
      <stop
         id="stop23423"
         style="stop-color:#000000;stop-opacity:0"
         offset="1" />
    </linearGradient>
    <radialGradient
       r="22.627417"
       fy="41.63604"
       fx="23.334524"
       cy="41.63604"
       cx="23.334524"
       gradientTransform="matrix(2.6516504,0,0,0.7954211,2.1249955,8.881818)"
       gradientUnits="userSpaceOnUse"
       id="radialGradient4199"
       xlink:href="#linearGradient23419"
       inkscape:collect="always" />
    <filter
       inkscape:collect="always"
       id="filter3976"
       x="-0.13075472"
       width="1.2615094"
       y="-0.038932584"
       height="1.0778652">
      <feGaussianBlur
         inkscape:collect="always"
         stdDeviation="1.05"
         id="feGaussianBlur3978" />
    </filter>
    <linearGradient
       inkscape:collect="always"
       xlink:href="#linearGradient3843"
       id="linearGradient3890"
       gradientUnits="userSpaceOnUse"
       x1="92.727273"
       y1="40.909091"
       x2="116"
       y2="40.909091"
       gradientTransform="translate(3.4375,-65.75)" />
    <linearGradient
       inkscape:collect="always"
       xlink:href="#linearGradient3843"
       id="linearGradient3893"
       gradientUnits="userSpaceOnUse"
       x1="92.727273"
       y1="40.909091"
       x2="116"
       y2="40.909091"
       gradientTransform="translate(3.4375,-65.75)" />
    <radialGradient
       inkscape:collect="always"
       xlink:href="#linearGradient3873"
       id="radialGradient3921"
       cx="124.97068"
       cy="24.274097"
       fx="124.97068"
       fy="24.274097"
       r="1.6651577"
       gradientUnits="userSpaceOnUse" />
    <radialGradient
       inkscape:collect="always"
       xlink:href="#linearGradient3873"
       id="radialGradient3923"
       gradientUnits="userSpaceOnUse"
       cx="124.97068"
       cy="24.274097"
       fx="124.97068"
       fy="24.274097"
       r="1.6651577" />
    <radialGradient
       inkscape:collect="always"
       xlink:href="#linearGradient3873"
       id="radialGradient3925"
       gradientUnits="userSpaceOnUse"
       cx="124.97068"
       cy="24.274097"
       fx="124.97068"
       fy="24.274097"
       r="1.6651577" />
    <radialGradient
       inkscape:collect="always"
       xlink:href="#linearGradient3975"
       id="radialGradient3985"
       cx="124.97068"
       cy="24.274097"
       fx="124.97068"
       fy="24.274097"
       r="1.6249884"
       gradientUnits="userSpaceOnUse"
       gradientTransform="matrix(0.79249636,0.00926304,-0.00940668,0.80478638,26.160211,3.5810269)" />
    <radialGradient
       inkscape:collect="always"
       xlink:href="#linearGradient3903"
       id="radialGradient3997"
       cx="94.25"
       cy="73"
       fx="94.25"
       fy="73"
       r="1.25"
       gradientUnits="userSpaceOnUse" />
    <filter
       inkscape:collect="always"
       id="filter3926"
       x="-0.48229665"
       width="1.9645933"
       y="-0.48229665"
       height="1.9645933">
      <feGaussianBlur
         inkscape:collect="always"
         stdDeviation="0.50239234"
         id="feGaussianBlur3928" />
    </filter>
    <radialGradient
       inkscape:collect="always"
       xlink:href="#linearGradient3975"
       id="radialGradient3903"
       cx="132.5625"
       cy="7.6875"
       fx="132.5625"
       fy="7.6875"
       r="5.5"
       gradientUnits="userSpaceOnUse" />
    <radialGradient
       inkscape:collect="always"
       xlink:href="#linearGradient3975"
       id="radialGradient3905"
       gradientUnits="userSpaceOnUse"
       cx="132.5625"
       cy="7.6875"
       fx="132.5625"
       fy="7.6875"
       r="5.5" />
    <radialGradient
       inkscape:collect="always"
       xlink:href="#linearGradient3975"
       id="radialGradient3907"
       gradientUnits="userSpaceOnUse"
       cx="132.5625"
       cy="7.6875"
       fx="132.5625"
       fy="7.6875"
       r="5.5" />
    <radialGradient
       inkscape:collect="always"
       xlink:href="#linearGradient3975"
       id="radialGradient3910"
       gradientUnits="userSpaceOnUse"
       cx="132.5625"
       cy="7.6875"
       fx="132.5625"
       fy="7.6875"
       r="5.5"
       gradientTransform="matrix(0.48063383,-0.38875642,0.49341866,0.61003157,30.680323,54.657406)" />
    <radialGradient
       inkscape:collect="always"
       xlink:href="#linearGradient3975"
       id="radialGradient3917"
       cx="98.0625"
       cy="7.5625"
       fx="98.0625"
       fy="7.5625"
       r="4.5167222"
       gradientTransform="matrix(1,0,0,0.76993252,0,1.9898853)"
       gradientUnits="userSpaceOnUse" />
  </defs>
  <sodipodi:namedview
     id="base"
     pagecolor="#ffffff"
     bordercolor="#666666"
     borderopacity="1.0"
     inkscape:pageopacity="0.0"
     inkscape:pageshadow="2"
     inkscape:zoom="8"
     inkscape:cx="96.23547"
     inkscape:cy="65.901612"
     inkscape:current-layer="layer1"
     showgrid="true"
     inkscape:document-units="px"
     inkscape:grid-bbox="true"
     inkscape:window-width="1920"
     inkscape:window-height="1151"
     inkscape:window-x="0"
     inkscape:window-y="25"
     inkscape:window-maximized="1" />
  <metadata
     id="metadata4206">
    <rdf:RDF>
      <cc:Work
         rdf:about="">
        <dc:format>image/svg+xml</dc:format>
        <dc:type
           rdf:resource="http://purl.org/dc/dcmitype/StillImage" />
        <dc:title />
      </cc:Work>
    </rdf:RDF>
  </metadata>
  <g
     id="layer1"
     inkscape:label="Layer 1"
     inkscape:groupmode="layer"
     transform="translate(0,64)">
    <path
       inkscape:connector-curvature="0"
       d="M 124,41.999991 C 124.003,51.94084 97.139272,60 64,60 30.860727,60 3.9969077,51.94084 3.999998,41.999991 3.9969077,32.05915 30.860727,24.000001 64,24.000001 c 33.139272,0 60.00309,8.059149 60,17.99999 z"
       id="path23417"
       style="opacity:0.3;fill:url(#radialGradient4199);fill-opacity:1;fill-rule:evenodd;stroke:none;stroke-width:2;marker:none;visibility:visible;display:inline;overflow:visible" />
    <path
       inkscape:connector-curvature="0"
       d="m 119.49998,9e-6 c 0,-30.763132 -24.736865,-55.499989 -55.499992,-55.499989 C 33.236854,-55.49998 8.5,-30.763121 8.5,9e-6 8.4999946,30.763139 33.236857,55.5 63.999988,55.5 94.763112,55.49999 119.49998,30.763141 119.49998,9e-6 z m -35.195118,0 c 0,11.176154 -8.905094,20.304874 -20.304874,20.304874 -11.623403,0 -20.304874,-9.354626 -20.304874,-20.304874 0,-11.173915 8.234215,-20.304874 20.304874,-20.304874 12.07066,0 20.304874,9.352343 20.304874,20.304874 z"
       id="path2781"
       style="fill:url(#linearGradient2658);fill-opacity:1;fill-rule:nonzero;stroke:url(#linearGradient2660);stroke-width:1;stroke-miterlimit:4;stroke-opacity:1" />
    <path
       inkscape:connector-curvature="0"
       d="m 63.999988,-20.999991 c -11.592,0 -21,9.408 -21,21 0,11.592001 9.408,21 21,21 11.592,0 21,-9.407999 21,-21 0,-11.592 -9.408,-21 -21,-21 z m 0,10.500001 c 5.796,0 10.5,4.703999 10.5,10.499999 0,5.796 -4.704,10.5 -10.5,10.5 -5.796,0 -10.5,-4.704 -10.5,-10.5 0,-5.796 4.704,-10.499999 10.5,-10.499999 z"
       id="path2474"
       style="opacity:0.5;fill:#ffffff;fill-opacity:1;fill-rule:nonzero;stroke:none;stroke-width:1;marker:none;visibility:visible;display:inline;overflow:visible;enable-background:accumulate" />
    <path
       inkscape:connector-curvature="0"
       d="m 63.999988,-20.304865 c -11.20829,0 -20.304874,9.096584 -20.304874,20.304874 0,11.20829 9.096584,20.304874 20.304874,20.304874 11.20829,0 20.304874,-9.096584 20.304874,-20.304874 0,-11.20829 -9.096584,-20.304874 -20.304874,-20.304874 z m 0,10.152436 c 5.604145,0 10.152437,4.548293 10.152437,10.152438 0,5.604145 -4.548292,10.152436 -10.152437,10.152436 -5.604145,0 -10.152437,-4.548291 -10.152437,-10.152436 0,-5.604145 4.548292,-10.152438 10.152437,-10.152438 z"
       id="path3418"
       style="fill:none;stroke:url(#linearGradient2654);stroke-width:1;stroke-linecap:butt;stroke-linejoin:round;stroke-miterlimit:4;stroke-opacity:1;stroke-dasharray:none;stroke-dashoffset:0;marker:none;visibility:visible;display:inline;overflow:visible;enable-background:accumulate" />
    <g
       transform="matrix(2.7320403,0,0,2.7320403,-1.0900842,-65.074256)"
       id="g3527">
      <path
         inkscape:connector-curvature="0"
         d="M 15.856928,5.7307748 20.625,16.34375 C 21.660403,15.885186 22.795334,15.625 24,15.625 c 0.03206,0 0.06178,-3.6e-4 0.09375,0 L 24.10801,4.0047512 c -2.94215,-0.070687 -5.543041,0.6572865 -8.251083,1.7260236 z"
         transform="matrix(0.9996011,0.02824295,-0.02824295,0.9996011,0.6924114,-0.6708346)"
         id="path3296"
         style="opacity:0.8;fill:url(#linearGradient2672);fill-opacity:1;fill-rule:nonzero;stroke:none" />
      <path
         inkscape:connector-curvature="0"
         d="m 12.121471,7.9060109 6.931026,9.3601041 c 0.913109,-0.669755 1.965938,-1.167064 3.142629,-1.425169 0.03132,-0.0069 0.06026,-0.01359 0.09157,-0.02009 L 19.857174,4.426276 c -2.888973,0.5613244 -5.31953,1.8556038 -7.735703,3.4797349 z"
         id="path3308"
         style="opacity:0.8;fill:url(#linearGradient2674);fill-opacity:1;fill-rule:nonzero;stroke:none" />
      <path
         inkscape:connector-curvature="0"
         d="m 8.2523933,11.646535 9.2137237,7.155818 c 0.70865,-0.883264 1.596891,-1.636119 2.666685,-2.18998 0.02847,-0.01474 0.05469,-0.02872 0.08325,-0.0431 L 14.86585,6.2506132 C 12.220599,7.5405321 10.165881,9.452393 8.2523933,11.646535 z"
         id="path3310"
         style="opacity:0.8;fill:url(#linearGradient2676);fill-opacity:1;fill-rule:nonzero;stroke:none" />
      <path
         inkscape:connector-curvature="0"
         d="m 5.6328855,16.073974 c 7.1748065,2.242248 7.8502625,7.031463 12.7767855,1.754127 L 10.499985,9.1321388 C 8.2787249,11.062747 6.9132871,13.459349 5.6328855,16.073974 z"
         id="path3312"
         style="opacity:0.8;fill:url(#linearGradient2678);fill-opacity:1;fill-rule:nonzero;stroke:none" />
      <path
         inkscape:connector-curvature="0"
         d="M 7.155289,13.193173 C 5.9722117,14.945185 5.2475768,16.829547 4.6301929,18.837116 L 15.96875,21.8125 C 16.184264,21.049497 16.486796,20.297733 16.9375,19.59375 16.95479,19.56675 16.98246,19.52673 17,19.5 L 7.155289,13.193173 z"
         id="path3314"
         style="opacity:0.8;fill:url(#linearGradient2680);fill-opacity:1;fill-rule:nonzero;stroke:none" />
    </g>
    <g
       transform="matrix(-2.7073165,0,0,-2.7073165,128.97558,64.95078)"
       id="g3297">
      <path
         inkscape:connector-curvature="0"
         d="M 15.856928,5.7307748 20.625,16.34375 C 21.660403,15.885186 22.795334,15.625 24,15.625 c 0.03206,0 0.06178,-3.6e-4 0.09375,0 L 24.10801,4.0047512 c -2.94215,-0.070687 -5.543041,0.6572865 -8.251083,1.7260236 z"
         transform="matrix(0.9996011,0.02824295,-0.02824295,0.9996011,0.6924114,-0.6708346)"
         id="path3299"
         style="opacity:0.8;fill:url(#linearGradient2682);fill-opacity:1;fill-rule:nonzero;stroke:none" />
      <path
         inkscape:connector-curvature="0"
         d="m 12.121471,7.9060109 6.931026,9.3601041 c 0.913109,-0.669755 1.965938,-1.167064 3.142629,-1.425169 0.03132,-0.0069 0.06026,-0.01359 0.09157,-0.02009 L 19.857174,4.426276 c -2.888973,0.5613244 -5.31953,1.8556038 -7.735703,3.4797349 z"
         id="path3301"
         style="opacity:0.8;fill:url(#linearGradient2684);fill-opacity:1;fill-rule:nonzero;stroke:none" />
      <path
         inkscape:connector-curvature="0"
         d="m 8.2523933,11.646535 9.2137237,7.155818 c 0.70865,-0.883264 1.596891,-1.636119 2.666685,-2.18998 0.02847,-0.01474 0.05469,-0.02872 0.08325,-0.0431 L 14.86585,6.2506132 C 12.220599,7.5405321 10.165881,9.452393 8.2523933,11.646535 z"
         id="path3303"
         style="opacity:0.8;fill:url(#linearGradient2686);fill-opacity:1;fill-rule:nonzero;stroke:none" />
      <path
         inkscape:connector-curvature="0"
         d="m 5.6328855,16.073974 c 7.1748065,2.242248 7.8502625,7.031463 12.7767855,1.754127 L 10.499985,9.1321388 C 8.2787249,11.062747 6.9132871,13.459349 5.6328855,16.073974 z"
         id="path3305"
         style="opacity:0.8;fill:url(#linearGradient2688);fill-opacity:1;fill-rule:nonzero;stroke:none" />
      <path
         inkscape:connector-curvature="0"
         d="M 7.155289,13.193173 C 5.9722117,14.945185 5.2475768,16.829547 4.6301929,18.837116 L 15.96875,21.8125 C 16.184264,21.049497 16.486796,20.297733 16.9375,19.59375 16.95479,19.56675 16.98246,19.52673 17,19.5 L 7.155289,13.193173 z"
         id="path3307"
         style="opacity:0.8;fill:url(#linearGradient2690);fill-opacity:1;fill-rule:nonzero;stroke:none" />
    </g>
    <path
       inkscape:connector-curvature="0"
       style="opacity:0.55;color:#000000;fill:none;stroke:url(#linearGradient4064);stroke-width:1.00000012;stroke-linecap:round;stroke-linejoin:round;stroke-miterlimit:4;stroke-opacity:1;stroke-dasharray:none;stroke-dashoffset:0;marker:none;visibility:visible;display:inline;overflow:visible;enable-background:accumulate"
       id="path8655"
       d="m 118.49999,-0.001923 c 0,30.100492 -24.402273,54.501933 -54.499313,54.501933 -30.099783,0 -54.500684,-24.401718 -54.500684,-54.501933 0,-30.099098 24.400901,-54.498065 54.500684,-54.498065 30.09704,0 54.499313,24.398967 54.499313,54.498065 l 0,0 z" />
    <path
       d="m 63.99999,21.500009 c -11.917147,0 -21.500003,-9.582855 -21.500003,-21.5 0,-11.917145 9.582856,-21.5 21.500003,-21.5 11.917144,0 21.499999,9.582855 21.499999,21.5 0,11.917145 -9.582855,21.5 -21.499999,21.5 l 0,0 0,0 z"
       id="path3281"
       style="opacity:0.4;fill:none;stroke:url(#linearGradient2651);stroke-width:1;stroke-miterlimit:4;stroke-opacity:1"
       inkscape:connector-curvature="0" />
    <g
       id="g3910"
       style="opacity:0.1"
       transform="matrix(0.99936166,-0.03572521,0.03572521,0.99936166,0.04591765,2.1447388)">
      <path
         transform="matrix(0.91956821,0,0,0.98046675,4.9913658,-63.969838)"
         d="m 92.630985,65.24427 c 0,14.742292 -12.742445,26.693281 -28.461048,26.693281 -15.718603,0 -28.461048,-11.950989 -28.461048,-26.693281 0,-14.742292 12.742445,-26.693281 28.461048,-26.693281 15.718603,0 28.461048,11.950989 28.461048,26.693281 z"
         sodipodi:ry="26.693281"
         sodipodi:rx="28.461048"
         sodipodi:cy="65.24427"
         sodipodi:cx="64.169937"
         id="path4012"
         style="fill:none;stroke:#000000;stroke-width:15.43527794;stroke-miterlimit:4;stroke-opacity:1;stroke-dasharray:none"
         sodipodi:type="arc" />
      <path
         transform="matrix(0.68170517,1.5858422,1.5856521,-0.68162581,107.98569,-19.40557)"
         d="m 14.363971,-38.609885 c 6.248048,7.700309 4.929997,19.327962 -2.745866,25.551898 -7.8790327,6.3886755 -19.7735298,5.0388444 -26.13816,-2.815688 -6.529304,-8.057755 -5.147693,-20.219099 2.88551,-26.724422 8.2364762,-6.669935 20.6646698,-5.256543 27.310684,2.955332 6.622739,8.183115 5.470995,20.477853 -2.426129,27.392756"
         sodipodi:t0="0.8963514"
         sodipodi:argument="-17.98468"
         sodipodi:radius="20.039024"
         sodipodi:revolution="12"
         sodipodi:expansion="1"
         sodipodi:cy="-27.5"
         sodipodi:cx="0.25"
         id="path3904"
         style="fill:none;stroke:#000000;stroke-width:1.7380687;stroke-linecap:butt;stroke-linejoin:miter;stroke-miterlimit:4;stroke-opacity:1;stroke-dasharray:none"
         sodipodi:type="spiral" />
    </g>
    <path
       style="opacity:0.5;fill:none;stroke:url(#linearGradient3893);stroke-width:4;stroke-linecap:round;stroke-linejoin:miter;stroke-miterlimit:4;stroke-opacity:1;stroke-dasharray:none;filter:url(#filter3976)"
       d="m 98.164773,7.522727 19.272727,-64.727273 0,0 0,0"
       id="path3073"
       inkscape:connector-curvature="0" />
    <path
       inkscape:connector-curvature="0"
       id="path3970"
       d="m 98.164773,7.522727 19.272727,-64.727273 0,0 0,0"
       style="fill:none;stroke:url(#linearGradient3890);stroke-width:1.5;stroke-linecap:round;stroke-linejoin:miter;stroke-miterlimit:4;stroke-opacity:1;stroke-dasharray:none" />
    <path
       transform="matrix(1.2,0,0,1.2,-14.964276,-79.85)"
       d="m 95.5,73 c 0,0.690356 -0.559644,1.25 -1.25,1.25 C 93.559644,74.25 93,73.690356 93,73 c 0,-0.690356 0.559644,-1.25 1.25,-1.25 0.690356,0 1.25,0.559644 1.25,1.25 z"
       sodipodi:ry="1.25"
       sodipodi:rx="1.25"
       sodipodi:cy="73"
       sodipodi:cx="94.25"
       id="path3896"
       style="fill:url(#radialGradient3997);fill-opacity:1;stroke:none;filter:url(#filter3926)"
       sodipodi:type="arc" />
    <path
       sodipodi:type="arc"
       style="fill:url(#radialGradient3997);fill-opacity:1;stroke:none"
       id="path3994"
       sodipodi:cx="94.25"
       sodipodi:cy="73"
       sodipodi:rx="1.25"
       sodipodi:ry="1.25"
       d="m 95.5,73 c 0,0.690356 -0.559644,1.25 -1.25,1.25 C 93.559644,74.25 93,73.690356 93,73 c 0,-0.690356 0.559644,-1.25 1.25,-1.25 0.690356,0 1.25,0.559644 1.25,1.25 z"
       transform="matrix(1.2,0,0,1.2,-14.964276,-79.85)" />
  </g>
</svg>
