/* XPM */
static char * desktop_xpm[] = {
"48 48 807 2",
"  	c None",
". 	c #C5C5C5",
"+ 	c #DEDEDE",
"@ 	c #EBEBEB",
"# 	c #B6B6B6",
"$ 	c #E6E6E6",
"% 	c #E4E4E4",
"& 	c #E8E8E8",
"* 	c #EEEEEE",
"= 	c #ECECEC",
"- 	c #D8D8D8",
"; 	c #E3E3E3",
"> 	c #EDEDED",
", 	c #E2E2E2",
"' 	c #DCDCDC",
") 	c #C0C0C0",
"! 	c #ADADAD",
"~ 	c #ABABAB",
"{ 	c #AEAEAE",
"] 	c #C9C9C9",
"^ 	c #E7E7E7",
"/ 	c #E1E1E1",
"( 	c #A2A8A1",
"_ 	c #637862",
": 	c #5A7158",
"< 	c #DFDFDF",
"[ 	c #AFAFAF",
"} 	c #728D70",
"| 	c #779475",
"1 	c #A6BAA5",
"2 	c #779575",
"3 	c #7E9B7D",
"4 	c #7A9778",
"5 	c #819D7F",
"6 	c #7B9879",
"7 	c #7C997A",
"8 	c #7D9A7B",
"9 	c #799777",
"0 	c #B6BBAE",
"a 	c #A5AB9B",
"b 	c #A5AA9B",
"c 	c #9AA291",
"d 	c #647962",
"e 	c #B0B0B0",
"f 	c #EAEAEA",
"g 	c #E5E5E5",
"h 	c #7C9B7A",
"i 	c #A9BEA8",
"j 	c #96AF94",
"k 	c #9BB39A",
"l 	c #93AC91",
"m 	c #92AC90",
"n 	c #94AD92",
"o 	c #92AB90",
"p 	c #B2BCAB",
"q 	c #AAAF9F",
"r 	c #A4AA9A",
"s 	c #5B7259",
"t 	c #E9E9E9",
"u 	c #DDDDDD",
"v 	c #B2B2B2",
"w 	c #587057",
"x 	c #99AD94",
"y 	c #B1B8A8",
"z 	c #A8B09E",
"A 	c #A2AA98",
"B 	c #5A7259",
"C 	c #D4D4D4",
"D 	c #B3B3B3",
"E 	c #205420",
"F 	c #2A6E2B",
"G 	c #2C732D",
"H 	c #2E742F",
"I 	c #8CA986",
"J 	c #73956C",
"K 	c #6E9067",
"L 	c #215521",
"M 	c #ACACAC",
"N 	c #BBBBBB",
"O 	c #D2D2D2",
"P 	c #B8B8B8",
"Q 	c #3C3C3C",
"R 	c #353535",
"S 	c #DBDBDB",
"T 	c #B5B5B5",
"U 	c #739D70",
"V 	c #72956A",
"W 	c #709469",
"X 	c #6F8F6A",
"Y 	c #859385",
"Z 	c #C8C8C8",
"` 	c #CACACA",
" .	c #BDBDBD",
"..	c #A1A1A1",
"+.	c #E0E0E0",
"@.	c #D9D9D9",
"#.	c #2B722C",
"$.	c #286829",
"%.	c #276528",
"&.	c #2A6C2A",
"*.	c #2A6F2B",
"=.	c #2C742E",
"-.	c #458345",
";.	c #7FA17B",
">.	c #6D9467",
",.	c #6E9368",
"'.	c #899B87",
").	c #C1C3C1",
"!.	c #AEAFAE",
"~.	c #A7A7A7",
"{.	c #929292",
"].	c #6C6C6C",
"^.	c #8D8D8D",
"/.	c #2A6D2A",
"(.	c #8E8E52",
"_.	c #C3A76B",
":.	c #AA9D64",
"<.	c #79854E",
"[.	c #2A6D2B",
"}.	c #2D762F",
"|.	c #2D7730",
"1.	c #2E7831",
"2.	c #2E7931",
"3.	c #2E7A32",
"4.	c #2F7A32",
"5.	c #7EA67C",
"6.	c #6C9767",
"7.	c #6C9667",
"8.	c #6B9566",
"9.	c #6B9465",
"0.	c #6A9364",
"a.	c #6A9264",
"b.	c #699163",
"c.	c #7D9679",
"d.	c #B6B9B6",
"e.	c #B9BAB8",
"f.	c #D6D6D6",
"g.	c #BFBFBF",
"h.	c #9C9C9C",
"i.	c #767676",
"j.	c #4F4F4F",
"k.	c #232323",
"l.	c #D7D7D7",
"m.	c #BABABA",
"n.	c #266327",
"o.	c #D3B379",
"p.	c #D6B577",
"q.	c #D6B376",
"r.	c #D2B378",
"s.	c #266628",
"t.	c #2F7C33",
"u.	c #307D34",
"v.	c #307F35",
"w.	c #318036",
"x.	c #318137",
"y.	c #669D67",
"z.	c #6F9C6D",
"A.	c #6A9968",
"B.	c #6A9868",
"C.	c #699867",
"D.	c #699666",
"E.	c #689565",
"F.	c #689264",
"G.	c #72926F",
"H.	c #A6ADA5",
"I.	c #C2C3C1",
"J.	c #9E9E9E",
"K.	c #A6A6A6",
"L.	c #808080",
"M.	c #5A5A5A",
"N.	c #555555",
"O.	c #276427",
"P.	c #CEAB6A",
"Q.	c #C09B54",
"R.	c #C29B55",
"S.	c #CCA968",
"T.	c #286A2C",
"U.	c #307E35",
"V.	c #328237",
"W.	c #328439",
"X.	c #338539",
"Y.	c #33863A",
"Z.	c #33873B",
"`.	c #34873B",
" +	c #3D8C44",
".+	c #7EAC7E",
"++	c #6A9E69",
"@+	c #699D68",
"#+	c #689C68",
"$+	c #689A67",
"%+	c #6B976A",
"&+	c #94A393",
"*+	c #C5C6C5",
"=+	c #D5D5D5",
"-+	c #8A8A8A",
";+	c #646464",
">+	c #494949",
",+	c #276428",
"'+	c #A4853D",
")+	c #B38F48",
"!+	c #B48F49",
"~+	c #A3853E",
"{+	c #2B7230",
"]+	c #34883C",
"^+	c #348A3D",
"/+	c #358B3E",
"(+	c #358C3F",
"_+	c #368D3F",
":+	c #368E40",
"<+	c #74AC78",
"[+	c #68A16B",
"}+	c #67A16A",
"|+	c #679F69",
"1+	c #679A68",
"2+	c #B5B9B5",
"3+	c #B1B2B1",
"4+	c #A4A4A4",
"5+	c #B7B7B7",
"6+	c #959595",
"7+	c #6E6E6E",
"8+	c #484948",
"9+	c #213721",
"0+	c #DADADA",
"a+	c #2B702C",
"b+	c #2C742F",
"c+	c #286C2C",
"d+	c #296D2E",
"e+	c #2B7031",
"f+	c #2C7433",
"g+	c #358A3D",
"h+	c #379041",
"i+	c #379242",
"j+	c #389343",
"k+	c #389444",
"l+	c #389544",
"m+	c #5AA362",
"n+	c #6EAA72",
"o+	c #66A46A",
"p+	c #6D9C6F",
"q+	c #9BA19B",
"r+	c #9F9F9F",
"s+	c #797979",
"t+	c #525252",
"u+	c #3A483A",
"v+	c #4E744C",
"w+	c #205120",
"x+	c #205622",
"y+	c #2D7530",
"z+	c #2D7831",
"A+	c #296E2F",
"B+	c #2A7031",
"C+	c #2C7232",
"D+	c #2D7634",
"E+	c #33863C",
"F+	c #399646",
"G+	c #3A9847",
"H+	c #3A9947",
"I+	c #3A9A48",
"J+	c #3B9B49",
"K+	c #3C9A49",
"L+	c #78B47E",
"M+	c #538657",
"N+	c #5E5F5E",
"O+	c #D0D0D0",
"P+	c #A9A9A9",
"Q+	c #838383",
"R+	c #5C5C5C",
"S+	c #3B443C",
"T+	c #496F49",
"U+	c #598B58",
"V+	c #538453",
"W+	c #205321",
"X+	c #BEBEBE",
"Y+	c #D1D1D1",
"Z+	c #C2C2C2",
"`+	c #225924",
" @	c #2E7A33",
".@	c #2B7131",
"+@	c #AAADAA",
"@@	c #919391",
"#@	c #929392",
"$@	c #A2A4A2",
"%@	c #317F3A",
"&@	c #399645",
"*@	c #3B9D4A",
"=@	c #3C9E4B",
"-@	c #3CA04C",
";@	c #3DA14D",
">@	c #3DA24D",
",@	c #3DA04D",
"'@	c #3C9A4B",
")@	c #2F4733",
"!@	c #131413",
"~@	c #434343",
"{@	c #878787",
"]@	c #676767",
"^@	c #424542",
"/@	c #3E5F40",
"(@	c #568F5A",
"_@	c #579059",
":@	c #58905A",
"<@	c #578D58",
"[@	c #245D27",
"}@	c #307F36",
"|@	c #2D7533",
"1@	c #B9B9B9",
"2@	c #31843D",
"3@	c #3B9C49",
"4@	c #3EA34E",
"5@	c #3EA44F",
"6@	c #3FA550",
"7@	c #40A650",
"8@	c #41A650",
"9@	c #41A651",
"0@	c #2E6B38",
"a@	c #272C28",
"b@	c #2B2B2B",
"c@	c #131313",
"d@	c #0C0C0C",
"e@	c #303030",
"f@	c #4A4A4A",
"g@	c #38533B",
"h@	c #528C58",
"i@	c #56945C",
"j@	c #58975D",
"k@	c #5B9B5F",
"l@	c #5C9A5F",
"m@	c #569058",
"n@	c #225B26",
"o@	c #CFCFCF",
"p@	c #C6C6C6",
"q@	c #24602A",
"r@	c #32833A",
"s@	c #2E7935",
"t@	c #C0C2C0",
"u@	c #C7C7C7",
"v@	c #AFB1B0",
"w@	c #338940",
"x@	c #42A751",
"y@	c #43A851",
"z@	c #44A952",
"A@	c #45A952",
"B@	c #45AA53",
"C@	c #46AA53",
"D@	c #42944C",
"E@	c #354738",
"F@	c #373737",
"G@	c #1E1E1E",
"H@	c #292929",
"I@	c #0E0E0E",
"J@	c #111C13",
"K@	c #3D6D44",
"L@	c #519059",
"M@	c #56985E",
"N@	c #589C5F",
"O@	c #5AA062",
"P@	c #589B5E",
"Q@	c #559459",
"R@	c #518D55",
"S@	c #4D8650",
"T@	c #215826",
"U@	c #CDCDCD",
"V@	c #CECECE",
"W@	c #26632C",
"X@	c #33873D",
"Y@	c #307E39",
"Z@	c #939C94",
"`@	c #A0A4A1",
" #	c #9FA3A0",
".#	c #828D84",
"+#	c #368F45",
"@#	c #47AB54",
"##	c #48AC54",
"$#	c #49AD55",
"%#	c #49AB53",
"&#	c #3A623F",
"*#	c #404240",
"=#	c #3F3F3F",
"-#	c #333333",
";#	c #181818",
">#	c #151D16",
",#	c #3E6A43",
"'#	c #589E60",
")#	c #5AA363",
"!#	c #5CA966",
"~#	c #5AAA66",
"{#	c #58A363",
"]#	c #4E8F56",
"^#	c #4D8D55",
"/#	c #4D8D54",
"(#	c #4F8D54",
"_#	c #4B884F",
":#	c #235C28",
"<#	c #BCBCBC",
"[#	c #CBCBCB",
"}#	c #D3D3D3",
"|#	c #CCCCCC",
"1#	c #26652D",
"2#	c #378F42",
"3#	c #33863F",
"4#	c #338840",
"5#	c #348B42",
"6#	c #379046",
"7#	c #3FA04D",
"8#	c #46AB53",
"9#	c #4AAE55",
"0#	c #4CAF56",
"a#	c #4DB057",
"b#	c #428348",
"c#	c #323C32",
"d#	c #414141",
"e#	c #3B3B3B",
"f#	c #2F2F2F",
"g#	c #272C27",
"h#	c #2C572F",
"i#	c #409449",
"j#	c #4A9F52",
"k#	c #6CB774",
"l#	c #62B56B",
"m#	c #5BAA65",
"n#	c #4D9256",
"o#	c #4B8F54",
"p#	c #4B9055",
"q#	c #4C8F54",
"r#	c #4C9054",
"s#	c #4C9053",
"t#	c #4A8A4F",
"u#	c #245E29",
"v#	c #28692F",
"w#	c #368E41",
"x#	c #3DA24E",
"y#	c #40A550",
"z#	c #4CB056",
"A#	c #4EB157",
"B#	c #489F50",
"C#	c #355036",
"D#	c #454545",
"E#	c #202020",
"F#	c #282C28",
"G#	c #2C4E2E",
"H#	c #439349",
"I#	c #49A150",
"J#	c #4BA753",
"K#	c #469E4E",
"L#	c #5B9C60",
"M#	c #4E8E53",
"N#	c #4C8D52",
"O#	c #4B9054",
"P#	c #4B9256",
"Q#	c #4B9355",
"R#	c #4C9255",
"S#	c #4C9254",
"T#	c #488C4F",
"U#	c #25612C",
"V#	c #296B31",
"W#	c #389244",
"X#	c #49AD54",
"Y#	c #4BAF56",
"Z#	c #4FB057",
"`#	c #3D6E40",
" $	c #3A3A3A",
".$	c #272727",
"+$	c #292B29",
"@$	c #234025",
"#$	c #438B46",
"$$	c #48974B",
"%$	c #46954A",
"&$	c #408844",
"*$	c #3B803F",
"=$	c #3B8240",
"-$	c #498A4E",
";$	c #4E8D53",
">$	c #4C8E52",
",$	c #4C8F53",
"'$	c #4B9154",
")$	c #4C9355",
"!$	c #4A9356",
"~$	c #4A9455",
"{$	c #4C9857",
"]$	c #4B9554",
"^$	c #286A30",
"/$	c #2A6D34",
"($	c #42A851",
"_$	c #4FB258",
":$	c #48954D",
"<$	c #435144",
"[$	c #474747",
"}$	c #323232",
"|$	c #1F1F1F",
"1$	c #1D331E",
"2$	c #366E38",
"3$	c #3E7D3F",
"4$	c #3C7A3D",
"5$	c #3C7A3E",
"6$	c #3D7E3F",
"7$	c #3E8040",
"8$	c #3E8241",
"9$	c #3E8542",
"0$	c #539157",
"a$	c #4F9554",
"b$	c #539E5A",
"c$	c #4F9A58",
"d$	c #51A05B",
"e$	c #53A75E",
"f$	c #53AC60",
"g$	c #52A95F",
"h$	c #4D9E58",
"i$	c #2A7034",
"j$	c #3A9948",
"k$	c #46774A",
"l$	c #565756",
"m$	c #3D3D3D",
"n$	c #1B291C",
"o$	c #28522A",
"p$	c #336633",
"q$	c #397139",
"r$	c #3C763C",
"s$	c #3D7A3D",
"t$	c #3F7D3F",
"u$	c #408040",
"v$	c #418342",
"w$	c #438A46",
"x$	c #49994C",
"y$	c #4FA652",
"z$	c #65B869",
"A$	c #62BA68",
"B$	c #60B867",
"C$	c #5DB665",
"D$	c #59B363",
"E$	c #57B162",
"F$	c #53AE60",
"G$	c #50AC5F",
"H$	c #4CA058",
"I$	c #2A7035",
"J$	c #2B7235",
"K$	c #3B9B4A",
"L$	c #47AC54",
"M$	c #4BAE56",
"N$	c #4CA153",
"O$	c #596D5A",
"P$	c #1E271E",
"Q$	c #1E3B1E",
"R$	c #316131",
"S$	c #376C37",
"T$	c #3A7139",
"U$	c #3C753B",
"V$	c #3F783D",
"W$	c #448342",
"X$	c #4D964C",
"Y$	c #56A855",
"Z$	c #5EB75D",
"`$	c #60C061",
" %	c #5EBE5F",
".%	c #5BBB5E",
"+%	c #60BC64",
"@%	c #66BE6C",
"#%	c #60B966",
"$%	c #5DB664",
"%%	c #5AB463",
"&%	c #56B161",
"*%	c #53AE5F",
"=%	c #50AB5D",
"-%	c #49A257",
";%	c #2B7335",
">%	c #2C7436",
",%	c #3C9E4C",
"'%	c #4C9353",
")%	c #555955",
"!%	c #232D24",
"~%	c #1F3D20",
"{%	c #2E5D2F",
"]%	c #336533",
"^%	c #438041",
"/%	c #4F964E",
"(%	c #5BA959",
"_%	c #65BB64",
":%	c #6CC76B",
"<%	c #6BC769",
"[%	c #69C667",
"}%	c #67C564",
"|%	c #64C363",
"1%	c #61C161",
"2%	c #5EBE60",
"3%	c #68BF6B",
"4%	c #5FBA64",
"5%	c #5DB763",
"6%	c #59B461",
"7%	c #55B15F",
"8%	c #51AF5D",
"9%	c #4FAC5C",
"0%	c #48A356",
"a%	c #2C7437",
"b%	c #C4C4C4",
"c%	c #2D7437",
"d%	c #3D9F4D",
"e%	c #43A852",
"f%	c #46984F",
"g%	c #3A453B",
"h%	c #253326",
"i%	c #214223",
"j%	c #316633",
"k%	c #3F8040",
"l%	c #4D994D",
"m%	c #5BB059",
"n%	c #67C364",
"o%	c #6FC96F",
"p%	c #72CA72",
"q%	c #73CA73",
"r%	c #6CC76A",
"s%	c #68C565",
"t%	c #65C363",
"u%	c #61C061",
"v%	c #63BF66",
"w%	c #5FBB63",
"x%	c #5CB861",
"y%	c #58B560",
"z%	c #54B15E",
"A%	c #50AE5C",
"B%	c #4DAB5A",
"C%	c #46A455",
"D%	c #2D7538",
"E%	c #C3C3C3",
"F%	c #2D7539",
"G%	c #3E9F4D",
"H%	c #4DB056",
"I%	c #4BA551",
"J%	c #4FAC55",
"K%	c #58B85D",
"L%	c #5CBC5F",
"M%	c #60BF60",
"N%	c #64C262",
"O%	c #67C565",
"P%	c #6CC86B",
"Q%	c #71CA71",
"R%	c #75CB76",
"S%	c #78CD7A",
"T%	c #7ACE7C",
"U%	c #5EBD60",
"V%	c #5AB960",
"W%	c #56B65E",
"X%	c #52B35C",
"Y%	c #4EAF5A",
"Z%	c #4BAC58",
"`%	c #43A253",
" &	c #2D7638",
".&	c #2D7639",
"+&	c #3EA04E",
"@&	c #52B459",
"#&	c #56B75B",
"$&	c #5ABA5D",
"%&	c #62C161",
"&&	c #66C463",
"*&	c #70C970",
"=&	c #75CC77",
"-&	c #7ACE7D",
";&	c #7ED082",
">&	c #80D185",
",&	c #7ECF82",
"'&	c #70C96F",
")&	c #6AC768",
"!&	c #65C463",
"~&	c #5EBD5F",
"{&	c #5FBC61",
"]&	c #59B85E",
"^&	c #55B55C",
"/&	c #50B25A",
"(&	c #4DAF58",
"_&	c #49AC56",
":&	c #41A151",
"<&	c #2D7739",
"[&	c #C1C1C1",
"}&	c #2D773A",
"|&	c #3FA04E",
"1&	c #56B85C",
"2&	c #5FBE60",
"3&	c #63C262",
"4&	c #6DC86B",
"5&	c #72CA73",
"6&	c #83D288",
"7&	c #87D48D",
"8&	c #86D48D",
"9&	c #7DCF81",
"0&	c #63C162",
"a&	c #5ABB5E",
"b&	c #57B85C",
"c&	c #53B45A",
"d&	c #4FB158",
"e&	c #47AA54",
"f&	c #40A04F",
"g&	c #618666",
"h&	c #85B38A",
"i&	c #8CBD91",
"j&	c #8EBE92",
"k&	c #91C093",
"l&	c #94C395",
"m&	c #96C496",
"n&	c #99C697",
"o&	c #9BC899",
"p&	c #9DCA9A",
"q&	c #A0CC9B",
"r&	c #A3CEA0",
"s&	c #A7D0A5",
"t&	c #ABD1A9",
"u&	c #AED3AE",
"v&	c #B2D5B2",
"w&	c #B5D6B7",
"x&	c #93C294",
"y&	c #8CBC91",
"z&	c #628768",
"A&	c #628667",
"B&	c #84B28A",
"C&	c #A5CBA8",
"D&	c #AACFAC",
"E&	c #ACD0AD",
"F&	c #AED2AE",
"G&	c #AED2AC",
"H&	c #B1D5AF",
"I&	c #B6D8B2",
"J&	c #B8D9B5",
"K&	c #BBDAB9",
"L&	c #BBDABA",
"M&	c #AED2AD",
"N&	c #C1DDC1",
"O&	c #C5DFC5",
"P&	c #C3DEC3",
"Q&	c #BFDBBE",
"R&	c #AAD1A8",
"S&	c #A6CFA4",
"T&	c #A3CE9F",
"U&	c #9AC899",
"V&	c #98C697",
"W&	c #638768",
"X&	c #6E8F74",
"Y&	c #7EAA83",
"Z&	c #85B48B",
"`&	c #90BC94",
" *	c #94BE96",
".*	c #96BF97",
"+*	c #99C199",
"@*	c #99C298",
"#*	c #94C092",
"$*	c #9EC69A",
"%*	c #A1C99C",
"&*	c #A4CAA0",
"**	c #A7CBA4",
"=*	c #A7CCA5",
"-*	c #A4CAA3",
";*	c #ADCEAC",
">*	c #AFCFAF",
",*	c #AECFAD",
"'*	c #AACEA9",
")*	c #A1C89F",
"!*	c #9FC79C",
"~*	c #9CC598",
"{*	c #99C494",
"]*	c #97C293",
"^*	c #92BE91",
"/*	c #90BC90",
"(*	c #8DBA8E",
"_*	c #8BB88D",
":*	c #88B78C",
"<*	c #6F9075",
"[*	c #BEC9C0",
"}*	c #709075",
"|*	c #658869",
"1*	c #678A6A",
"2*	c #698C6B",
"3*	c #6B8D6C",
"4*	c #6C8E6C",
"5*	c #6D8F6D",
"6*	c #6F906E",
"7*	c #739370",
"8*	c #749572",
"9*	c #769674",
"0*	c #799676",
"a*	c #7A9779",
"b*	c #7C987A",
"c*	c #7D997C",
"d*	c #6F906D",
"e*	c #66896A",
"f*	c #787878",
"g*	c #818181",
"h*	c #515151",
"i*	c #5E5E5E",
"j*	c #666666",
"k*	c #6F6F6F",
"l*	c #707070",
"m*	c #717171",
"n*	c #737373",
"o*	c #747474",
"p*	c #757575",
"q*	c #777777",
"r*	c #7A7A7A",
"s*	c #7B7B7B",
"t*	c #7C7C7C",
"u*	c #080808",
"v*	c #4E4E4E",
"w*	c #545454",
"x*	c #595959",
"y*	c #5D5D5D",
"z*	c #5F5F5F",
"A*	c #606060",
"B*	c #616161",
"C*	c #626262",
"D*	c #636363",
"E*	c #656565",
"F*	c #000000",
"                                                                                                ",
"                                                                                                ",
"                                                                                                ",
"        . + @ @ @ @ @ @ @ @ @ @ @ @ @ @ @ @ @ @ @ @ @ @ @ @ @ @ @ @ @ @ @ @ @ @ @ @ + .         ",
"      # $ % % % % % % % % % % % % % % % % % & * * * * * * * * * * * * * * * * * * * = & #       ",
"      - ; ; ; ; ; ; ; ; ; ; ; ; ; ; ; ; ; ; % > > > > > > > > > > > > > > > > * * * * @ -       ",
"      & , , ' ) ! ~ ~ ~ ~ ~ ~ ~ ~ ~ ~ ~ ~ ~ ~ ~ ~ ~ ~ ~ ~ ~ ~ ~ ~ ~ ~ ~ ~ ~ ~ { ] & > = &       ",
"      ^ / / ) ( _ : : : : : : : : : : : : : : : : : : : : : : : : : : : : : : _ ( ] = @ ^       ",
"      $ < < [ _ } | 1 1 2 3 4 4 5 6 7 8 4 9 2 7 0 a a a a a a a a a a a a a b c d e f f $       ",
"      g + + e : | h i i h j k k l l l m n o h h p q q q q q q q q q q q q q q r s e t t g       ",
"      % u u v w 2 h h h h h h h h h h h h h h h x y z z z z z z z z z z z z z A B v % ] C       ",
"      ; ' ' D E F G G G G G G G G G G G G G G G H I J J J J J J J J J J J J J K L M N O P g Q R ",
"      , S S T E F G G G G G G G G G G G G G G G G U V W W W W W W W W W W W W X Y Z u ` C  ...  ",
"      +.@.@.# E F #.$.%.&.*.G G G G G G G G =.=.=.-.;.>.>.>.>.>.>.>.>.>.>.,.'.).!.~.' T {.].^.  ",
"      < - - P E F /.(._.:.<.[.G =.}.|.1.2.3.4.4.4.4.5.6.7.8.9.0.a.a.a.b.c.d.e...f.g.h.i.j.k.    ",
"      + l.l.m.E F n.o.p.q.r.s.1.4.t.u.v.w.w.x.x.x.x.y.z.A.B.C.D.E.F.G.H.I.J.) ` K.L.M.N.e       ",
"      u f.f.N E F O.P.Q.R.S.T.U.w.V.W.X.Y.Z.Z.`.`.Z. +.+++@+#+$+%+&+*+~.e =+[ -+;+>+{.S '       ",
"      ' =+=+ .E F ,+'+)+!+~+{+W.Y.]+^+/+(+_+:+:+:+:+_+<+[+}+|+1+2+3+4+' 5+6+7+8+9+[ 0+S 0+      ",
"      S C C g.E a+b+c+d+e+f+W.g+(+:+h+i+j+k+k+l+l+k+k+m+n+o+p+q+K.O ) r+s+t+u+v+w+P - ' S       ",
"      @.O O ) x+y+z+A+B+C+D+E+h+j+l+F+G+H+I+J+J+J+J+I+K+L+M+N+S O+P+Q+R+S+T+U+V+W+X+S S @.      ",
"      - Y+Y+Z+`+ @.@+@@@#@$@%@&@G+J+*@=@-@;@;@>@>@;@,@'@)@!@~@{@^.]@^@/@(@_@:@<@`+Z+0+@.l.      ",
"      l.O+O+. [@}@|@*+`  .1@2@3@=@;@4@5@6@7@8@9@9@8@0@a@b@c@d@e@f@g@h@i@j@k@l@m@n@ .o@O =+      ",
"      f.o@o@p@q@r@s@t@u@1@v@w@;@5@7@x@y@z@A@B@C@D@E@F@G@H@I@J@K@L@M@N@O@P@Q@R@S@T@m.U@Y+C       ",
"      =+V@V@Z W@X@Y@Z@`@ #.#+#7@x@z@C@@###$#%#&#*#=#-#;#>#,#'#)#!#~#{#]#^#/#(#_#:#<#[#o@}#      ",
"      }#|#|#] 1#/+2#3#4#5#6#7#z@8###9#0#a#b#c#d#e#f#g#h#i#j#k#l#m#n#o#p#q#r#s#t#u# .` V@O       ",
"      }#[#[#[#v#w#H+=@x#y#y@B@##9#z#A#B#C#D#=#E#F#G#H#I#J#K#L#M#N#q#O#P#Q#R#S#T#U#g.[#O+}#      ",
"      Y+` ` U@V#W#*@>@y#y@C@X#Y#A#Z#`#^@ $.$+$@$#$$$%$&$*$=$-$;$>$,$'$)$!$~${$]$^$U@O+O+Y+      ",
"      O+] ] V@/$F+;@6@($C@$#0#_$:$<$[$}$|$1$2$3$4$5$6$7$8$9$&$0$a$b$c$d$e$f$g$h$/$V@o@o@O+      ",
"      o@Z Z O+i$j$5@x@B@##0#A#k$l$m$.$n$o$p$q$r$s$t$u$v$w$x$y$z$A$B$C$D$E$F$G$H$I$O+U@U@o@      ",
"      U@p@p@O J$K$7@z@L$M$N$O$f@}$P$Q$R$S$T$U$V$W$X$Y$Z$`$ %.%+%@%#%$%%%&%*%=%-%;%O [#[#U@      ",
"      |#. . }#>%,%x@C@$#'%)%m$!%~%{%]%S$^%/%(%_%:%<%[%}%|%1%2%.%3%4%5%6%7%8%9%0%a%}#] ] |#      ",
"      [#b%b%=+c%d%e%@#f%g%h%i%j%k%l%m%n%:%o%p%q%q%p%o%r%s%t%u% %v%w%x%y%z%A%B%C%D%=+u@u@[#      ",
"      ` E%E%l.F%G%A@X#H%I%J%K%L%M%N%O%P%Q%R%S%T%T%S%R%Q%:%}%N%M%U%+%V%W%X%Y%Z%`% &l.p@p@`       ",
"      ] Z+Z+@..&+&B@$#A#@&#&$& %%&&&<%*&=&-&;&>&>&,&-&R%'&)&!&%&~&{&]&^&/&(&_&:&<&@.b%b%]       ",
"      Z [&[&S }&|&C@9#A#@&1&.%2&3&}%4&5&S%,&6&7&8&6&9&S%5&:%}%0&2%a&b&c&d&M$e&f&}&S Z+Z+Z       ",
"      p@g.g.' g&h&i&j&k&l&m&n&o&p&q&r&s&t&u&v&w&w&v&u&t&s&r&q&p&o&n&m&x&k&j&y&h&z&' ) ) p@      ",
"      . X+X++ A&B&y&C&D&E&F&G&o&H&I&J&K&L&M&N&O&O&P&Q&R&S&T&q&p&U&V&m&x&k&j&y&B&W&+ X+X+.       ",
"      b% . .< X&Y&Z&`& *.*+*@*#*$*%*&***=*-*;*>*>*,*'*)*!*~*{*]*#*^*/*(*_*:*Z&Y&<*<  . .b%      ",
"      E%<#<#}#[*}*|*1*2*3*4*5*6*G.7*8*9*0*a*b*c*c*b*a*0*9*8*7*G.d*5*4*3*2*e*|*<*[*}#<#<#E%      ",
"      Z+N N g.=+; ; ; ; ; ; ; ; ; ; ; ; ; ; ; ; ; ; ; ; ; ; ; ; ; ; ; ; ; ; ; ; =+g.N N Z+      ",
"      ~ 1@1@1@1@1@1@1@1@1@1@1@1@1@1@1@1@1@1@1@1@1@1@1@1@1@1@1@1@1@1@1@1@1@1@1@1@1@1@1@1@~       ",
"      f*<#1@P P P P P P P P P P P P P P P P P P P P P P P P P P P P P P P P P P P P 1@<#f*      ",
"      j.g*{ [&Z+Z+Z+E%E%E%E%b%b%. . . p@p@p@p@u@u@p@p@p@p@. . . b%b%E%E%E%E%Z+Z+Z+[&{ g*j.      ",
"      Q h*i*j*].k*l*m*m*n*o*o*p*i.q*f*s+r*s*s*t*t*s*s*r*s+f*q*i.p*o*o*n*m*m*l*k*].j*i*h*Q       ",
"      u* $v*w*x*R+R+y*i*z*z*A*B*C*D*D*;+E*E*j*j*j*j*E*E*;+D*D*C*B*A*z*z*i*y*R+R+x*w*v* $u*      ",
"          F*F*F*F*F*F*F*F*F*F*F*F*F*F*F*F*F*F*F*F*F*F*F*F*F*F*F*F*F*F*F*F*F*F*F*F*F*F*          ",
"                                                                                                ",
"                                                                                                "};
